<?xml version="1.0" encoding="UTF-8" standalone="no"?>
<!DOCTYPE svg PUBLIC "-//W3C//DTD SVG 1.1//EN" "http://www.w3.org/Graphics/SVG/1.1/DTD/svg11.dtd">
<svg xmlns="http://www.w3.org/2000/svg" xmlns:xl="http://www.w3.org/1999/xlink" version="1.1" viewBox="-1474.5 -359.5 432.4053 448.4" width="432.4053pt" height="448.4pt" xmlns:dc="http://purl.org/dc/elements/1.1/">
  <metadata> Produced by OmniGraffle 7.4.2 
    <dc:date>2018-03-14 06:41:51 +0000</dc:date>
  </metadata>
  <defs>
    <radialGradient cx="0" cy="0" r="1" id="Gradient" gradientUnits="userSpaceOnUse">
      <stop offset="0" stop-color="white"/>
      <stop offset="1" stop-color="#171605"/>
    </radialGradient>
    <radialGradient id="Obj_Gradient" xl:href="#Gradient" gradientTransform="translate(-1259.2408 -331.6) scale(70.26272)"/>
    <linearGradient x1="0" x2="1" id="Gradient_2" gradientUnits="userSpaceOnUse">
      <stop offset="0" stop-color="#a35607"/>
      <stop offset="1" stop-color="#ff4710"/>
    </linearGradient>
    <linearGradient id="Obj_Gradient_2" xl:href="#Gradient_2" gradientTransform="translate(-1296.6655 -376.9063) rotate(81) scale(490.53356)"/>
    <radialGradient cx="0" cy="0" r="1" id="Gradient_3" gradientUnits="userSpaceOnUse">
      <stop offset="0" stop-color="#ff5b28"/>
      <stop offset="1" stop-color="#e3e3e3"/>
    </radialGradient>
    <radialGradient id="Obj_Gradient_3" xl:href="#Gradient_3" gradientTransform="translate(-1431.8 -195.75385) scale(46.03694)"/>
    <radialGradient cx="0" cy="0" r="1" id="Gradient_4" gradientUnits="userSpaceOnUse">
      <stop offset="0" stop-color="#ff5b25"/>
      <stop offset="1" stop-color="#fefefe"/>
    </radialGradient>
    <radialGradient id="Obj_Gradient_4" xl:href="#Gradient_4" gradientTransform="translate(-1084.7947 -196.69725) scale(46.03694)"/>
    <linearGradient x1="0" x2="1" id="Gradient_5" gradientUnits="userSpaceOnUse">
      <stop offset="0" stop-color="#883321"/>
      <stop offset="1" stop-color="#ff8456"/>
    </linearGradient>
    <linearGradient id="Obj_Gradient_5" xl:href="#Gradient_5" gradientTransform="translate(-1258.6703 67.566765) rotate(90) scale(20.833242)"/>
  </defs>
  <g stroke="none" stroke-opacity="1" stroke-dasharray="none" fill="none" fill-opacity="1">
    <title>Lienzo 12</title>
    <rect fill="white" width="432.4053" height="448.4"/>
    <g>
      <title>Capa 1</title>
      <path d="M -1320.9943 -358.40955 L -1312.8289 -355.29184 C -1311.9709 -354.96424 -1311.094 -354.68833 -1310.203 -354.4656 L -1296.4859 -351.0363 C -1295.3242 -350.74587 -1294.1417 -350.5466 -1292.949 -350.44034 L -1275.4228 -348.8786 C -1274.835 -348.8262 -1274.2454 -348.7965 -1273.6552 -348.78946 L -1258.1763 -348.6052 C -1257.886 -348.60173 -1257.5956 -348.60377 -1257.3053 -348.6113 L -1242.882 -348.98594 C -1242.5212 -348.9953 -1242.1607 -349.01317 -1241.8008 -349.0395 L -1227.4295 -350.09107 C -1226.438 -350.1636 -1225.4523 -350.30036 -1224.4786 -350.50044 L -1212.9056 -352.87845 C -1211.8636 -353.09256 -1210.8377 -353.3787 -1209.8353 -353.7348 L -1198.0834 -357.90986 C -1196.993 -358.29723 -1195.7898 -357.76646 -1195.3408 -356.7 L -1195.3408 -356.7 C -1194.8186 -355.4599 -1194.6666 -354.09515 -1194.9032 -352.77055 L -1195.0836 -351.75986 C -1195.3874 -350.0587 -1195.882 -348.3972 -1196.5579 -346.8068 L -1198.1011 -343.1757 C -1198.6596 -341.8614 -1199.3394 -340.60202 -1200.1315 -339.41382 L -1203.8173 -333.88515 C -1204.5648 -332.7639 -1205.4094 -331.7105 -1206.3414 -330.7371 L -1212.6365 -324.16226 C -1213.5045 -323.2556 -1214.4454 -322.42154 -1215.4495 -321.6684 L -1223.8244 -315.38723 C -1224.7009 -314.7299 -1225.6231 -314.13606 -1226.5842 -313.6102 L -1233.7694 -309.67867 C -1235.0805 -308.96126 -1236.4584 -308.37336 -1237.8836 -307.9233 L -1244.5565 -305.81607 C -1246.2734 -305.2739 -1248.048 -304.9352 -1249.8439 -304.80692 L -1256.7303 -304.31503 C -1257.8026 -304.23844 -1258.879 -304.2371 -1259.9515 -304.3111 L -1268.3877 -304.8929 C -1269.4219 -304.9642 -1270.45 -305.10537 -1271.4652 -305.3154 L -1278.6004 -306.79165 C -1280.5524 -307.1955 -1282.4435 -307.8514 -1284.2264 -308.7428 L -1288.8858 -311.07252 C -1290.12 -311.6896 -1291.296 -312.41646 -1292.3999 -313.24434 L -1298.0818 -317.5058 C -1298.521 -317.83517 -1298.9482 -318.18013 -1299.3626 -318.54005 L -1305.1178 -323.53797 C -1305.9321 -324.2451 -1306.6956 -325.00865 -1307.4028 -325.82294 L -1311.808 -330.89562 C -1312.5621 -331.764 -1313.25 -332.6877 -1313.866 -333.65895 L -1317.5996 -339.5467 C -1317.9602 -340.1153 -1318.2956 -340.69944 -1318.605 -341.29745 L -1320.2253 -344.43017 C -1320.8345 -345.60785 -1321.3406 -346.836 -1321.7382 -348.1009 L -1323.0184 -352.17438 C -1323.2332 -352.85775 -1323.416 -353.5508 -1323.566 -354.2512 L -1323.6408 -354.6 C -1323.8354 -355.50843 -1323.7282 -356.45557 -1323.3353 -357.29746 L -1323.2408 -357.5 C -1322.8463 -358.3453 -1321.8658 -358.7423 -1320.9943 -358.40955 Z" fill="url(#Obj_Gradient)"/>
      <path d="M -1320.9943 -358.40955 L -1312.8289 -355.29184 C -1311.9709 -354.96424 -1311.094 -354.68833 -1310.203 -354.4656 L -1296.4859 -351.0363 C -1295.3242 -350.74587 -1294.1417 -350.5466 -1292.949 -350.44034 L -1275.4228 -348.8786 C -1274.835 -348.8262 -1274.2454 -348.7965 -1273.6552 -348.78946 L -1258.1763 -348.6052 C -1257.886 -348.60173 -1257.5956 -348.60377 -1257.3053 -348.6113 L -1242.882 -348.98594 C -1242.5212 -348.9953 -1242.1607 -349.01317 -1241.8008 -349.0395 L -1227.4295 -350.09107 C -1226.438 -350.1636 -1225.4523 -350.30036 -1224.4786 -350.50044 L -1212.9056 -352.87845 C -1211.8636 -353.09256 -1210.8377 -353.3787 -1209.8353 -353.7348 L -1198.0834 -357.90986 C -1196.993 -358.29723 -1195.7898 -357.76646 -1195.3408 -356.7 L -1195.3408 -356.7 C -1194.8186 -355.4599 -1194.6666 -354.09515 -1194.9032 -352.77055 L -1195.0836 -351.75986 C -1195.3874 -350.0587 -1195.882 -348.3972 -1196.5579 -346.8068 L -1198.1011 -343.1757 C -1198.6596 -341.8614 -1199.3394 -340.60202 -1200.1315 -339.41382 L -1203.8173 -333.88515 C -1204.5648 -332.7639 -1205.4094 -331.7105 -1206.3414 -330.7371 L -1212.6365 -324.16226 C -1213.5045 -323.2556 -1214.4454 -322.42154 -1215.4495 -321.6684 L -1223.8244 -315.38723 C -1224.7009 -314.7299 -1225.6231 -314.13606 -1226.5842 -313.6102 L -1233.7694 -309.67867 C -1235.0805 -308.96126 -1236.4584 -308.37336 -1237.8836 -307.9233 L -1244.5565 -305.81607 C -1246.2734 -305.2739 -1248.048 -304.9352 -1249.8439 -304.80692 L -1256.7303 -304.31503 C -1257.8026 -304.23844 -1258.879 -304.2371 -1259.9515 -304.3111 L -1268.3877 -304.8929 C -1269.4219 -304.9642 -1270.45 -305.10537 -1271.4652 -305.3154 L -1278.6004 -306.79165 C -1280.5524 -307.1955 -1282.4435 -307.8514 -1284.2264 -308.7428 L -1288.8858 -311.07252 C -1290.12 -311.6896 -1291.296 -312.41646 -1292.3999 -313.24434 L -1298.0818 -317.5058 C -1298.521 -317.83517 -1298.9482 -318.18013 -1299.3626 -318.54005 L -1305.1178 -323.53797 C -1305.9321 -324.2451 -1306.6956 -325.00865 -1307.4028 -325.82294 L -1311.808 -330.89562 C -1312.5621 -331.764 -1313.25 -332.6877 -1313.866 -333.65895 L -1317.5996 -339.5467 C -1317.9602 -340.1153 -1318.2956 -340.69944 -1318.605 -341.29745 L -1320.2253 -344.43017 C -1320.8345 -345.60785 -1321.3406 -346.836 -1321.7382 -348.1009 L -1323.0184 -352.17438 C -1323.2332 -352.85775 -1323.416 -353.5508 -1323.566 -354.2512 L -1323.6408 -354.6 C -1323.8354 -355.50843 -1323.7282 -356.45557 -1323.3353 -357.29746 L -1323.2408 -357.5 C -1322.8463 -358.3453 -1321.8658 -358.7423 -1320.9943 -358.40955 Z" stroke="#7f8080" stroke-linecap="round" stroke-linejoin="round" stroke-width="1"/>
      <path d="M -1385.0265 78.26379 L -1371.2843 80.55416 C -1371.101 80.58472 -1370.917 80.61209 -1370.7327 80.63624 L -1342.379 84.35154 C -1342.1325 84.38385 -1341.8853 84.4104 -1341.6375 84.43118 L -1311.3946 86.96768 C -1311.1377 86.98923 -1310.8803 87.00456 -1310.6227 87.01367 L -1271.6918 88.39002 C -1271.5034 88.39668 -1271.315 88.40001 -1271.1265 88.40001 L -1239.6592 88.40001 C -1239.4925 88.40001 -1239.326 88.3974 -1239.1594 88.3922 L -1214.1246 87.60986 C -1213.9144 87.60329 -1213.7043 87.59258 -1213.4945 87.57772 L -1191.4467 86.01682 C -1191.2884 86.00561 -1191.1302 85.99205 -1190.9723 85.97614 L -1165.7119 83.4305 C -1165.5101 83.41017 -1165.3088 83.38601 -1165.108 83.35803 L -1141.3153 80.04265 C -1141.1112 80.01422 -1140.9078 79.98186 -1140.705 79.94558 L -1131.5092 78.30001 C -1126.1821 77.346735 -1122.5312 72.39309 -1123.1977 67.02255 L -1125.4052 49.23198 C -1125.4079 49.210665 -1125.4105 49.18934 -1125.413 49.168015 L -1128.9769 19.469487 C -1128.9984 19.289846 -1129.017 19.109851 -1129.0324 18.929582 L -1131.3946 -8.629628 C -1131.4043 -8.743202 -1131.4129 -8.856878 -1131.4202 -8.970635 L -1132.8068 -30.562278 C -1132.8084 -30.587423 -1132.8101 -30.612564 -1132.8118 -30.6377 L -1134.404 -53.72401 C -1134.4075 -53.77467 -1134.4107 -53.82534 -1134.4137 -53.876024 L -1135.5901 -73.67819 C -1135.6028 -73.89271 -1135.6113 -74.107455 -1135.6154 -74.32231 L -1136.0076 -94.91715 C -1136.0087 -94.97238 -1136.01 -95.02761 -1136.0117 -95.08282 L -1136.6068 -115.31717 C -1136.6084 -115.37239 -1136.6097 -115.42761 -1136.6108 -115.48285 L -1137.0015 -135.99239 C -1137.0066 -136.26408 -1137.0049 -136.53587 -1136.9962 -136.80747 L -1136.4103 -155.16708 C -1136.4096 -155.18903 -1136.4088 -155.21097 -1136.408 -155.2329 L -1135.62 -177.10221 C -1135.6128 -177.30072 -1135.602 -177.49907 -1135.5874 -177.69717 L -1134.0299 -198.9178 C -1134.0161 -199.10591 -1134.0056 -199.29427 -1133.9985 -199.48276 L -1133.244 -219.38163 C -1133.2208 -219.99337 -1133.1626 -220.60328 -1133.0695 -221.20835 L -1130.3305 -239.01187 C -1130.2497 -239.53696 -1130.1428 -240.0577 -1130.0102 -240.57217 L -1125.382 -258.52983 C -1125.2668 -258.9764 -1125.1325 -259.4178 -1124.9793 -259.85275 L -1119.2585 -276.0924 C -1119.0924 -276.56387 -1118.9043 -277.0273 -1118.6948 -277.48117 L -1113.1633 -289.4662 C -1113.0606 -289.6887 -1112.9528 -289.9088 -1112.84 -290.12636 L -1107.4778 -300.4678 C -1107.4321 -300.55593 -1107.3855 -300.64364 -1107.3382 -300.7309 L -1102.1222 -310.34788 C -1101.385 -311.70724 -1100.4353 -312.94013 -1099.3092 -314 L -1099.3092 -314 C -1098.634 -314.63547 -1098.6018 -315.69797 -1099.2373 -316.37316 C -1099.3618 -316.50544 -1099.5069 -316.61663 -1099.667 -316.7024 L -1102.8812 -318.42427 C -1103.0998 -318.5414 -1103.3212 -318.65344 -1103.545 -318.7603 L -1111.399 -322.50878 C -1111.8056 -322.70284 -1112.2203 -322.87964 -1112.6418 -323.0387 L -1122.3166 -326.6896 C -1122.5117 -326.7632 -1122.7081 -326.83297 -1122.9059 -326.8989 L -1135.6004 -331.1304 C -1135.7396 -331.1768 -1135.8794 -331.2213 -1136.0199 -331.26384 L -1148.9034 -335.16794 C -1148.974 -335.1893 -1149.0443 -335.21117 -1149.1146 -335.2335 L -1161.6186 -339.21206 C -1162.0122 -339.3373 -1162.4008 -339.47775 -1162.7836 -339.63307 L -1174.7595 -344.49287 C -1175.5912 -344.83036 -1176.393 -345.23723 -1177.1564 -345.70917 L -1186.7756 -351.6556 C -1186.9313 -351.75186 -1187.0854 -351.8508 -1187.2377 -351.9523 L -1192.1278 -355.2124 C -1193.1092 -355.86665 -1193.9805 -356.67255 -1194.7092 -357.6 L -1194.7092 -357.6 C -1194.8148 -357.7344 -1195.0094 -357.75775 -1195.1438 -357.65215 C -1195.2465 -357.57142 -1195.2875 -357.43487 -1195.2462 -357.3109 L -1195.1092 -356.9 C -1194.65 -355.52225 -1194.5454 -354.05096 -1194.8052 -352.6221 L -1195.2003 -350.44885 C -1195.4715 -348.9572 -1195.9534 -347.51165 -1196.6314 -346.1556 L -1198.1637 -343.09096 C -1198.4604 -342.49756 -1198.7938 -341.9232 -1199.1618 -341.37117 L -1202.3655 -336.5656 C -1202.794 -335.9227 -1203.2687 -335.3117 -1203.7856 -334.7374 L -1208.3476 -329.66844 C -1208.3887 -329.6228 -1208.43 -329.57742 -1208.4716 -329.53227 L -1214.4658 -323.02424 C -1215.0936 -322.3427 -1215.7793 -321.71698 -1216.5154 -321.15413 L -1221.5395 -317.3121 C -1221.9857 -316.97094 -1222.4495 -316.6535 -1222.929 -316.3611 L -1229.4154 -312.40597 C -1230.0771 -312.00252 -1230.7672 -311.64768 -1231.4803 -311.34424 L -1238.5957 -308.3164 C -1239.4033 -307.9727 -1240.2379 -307.69607 -1241.091 -307.48928 L -1245.17 -306.5004 C -1245.9948 -306.30045 -1246.8343 -306.16644 -1247.6804 -306.09965 L -1253.3806 -305.64963 C -1253.7995 -305.61656 -1254.2196 -305.6 -1254.6398 -305.6 L -1261.6721 -305.6 C -1262.4292 -305.6 -1263.1854 -305.65374 -1263.9349 -305.7608 L -1271.8813 -306.896 C -1272.3663 -306.9653 -1272.8479 -307.05683 -1273.3245 -307.1703 L -1279.2857 -308.58965 C -1280.4312 -308.8624 -1281.5431 -309.26073 -1282.6012 -309.77747 L -1288.8812 -312.84444 C -1289.3662 -313.08133 -1289.839 -313.3426 -1290.2976 -313.6273 L -1294.5095 -316.24154 C -1295.1086 -316.61344 -1295.6826 -317.02454 -1296.2275 -317.47216 L -1300.6736 -321.12432 C -1300.8973 -321.30807 -1301.116 -321.49786 -1301.3294 -321.69348 L -1305.1317 -325.17896 C -1305.583 -325.59264 -1306.0102 -326.0319 -1306.4111 -326.49454 L -1310.5299 -331.24693 C -1310.8493 -331.61545 -1311.1516 -331.99838 -1311.436 -332.3945 L -1315.8657 -338.5644 C -1316.3606 -339.2537 -1316.7999 -339.9813 -1317.1794 -340.7403 L -1319.7558 -345.8932 C -1319.7914 -345.9644 -1319.8265 -346.03586 -1319.861 -346.10758 L -1321.1092 -348.7 C -1321.96 -350.46687 -1322.3155 -352.4314 -1322.1379 -354.38436 L -1321.9577 -356.3666 C -1321.9339 -356.62848 -1322.1269 -356.86006 -1322.3887 -356.88386 C -1322.5511 -356.89862 -1322.7098 -356.82925 -1322.8092 -356.7 L -1322.8092 -356.7 C -1323.4727 -355.8375 -1324.2528 -355.07144 -1325.1271 -354.42375 L -1329.0237 -351.53743 C -1329.1474 -351.4458 -1329.2724 -351.356 -1329.3986 -351.26798 L -1334.0209 -348.0464 C -1335.2076 -347.2193 -1336.501 -346.55692 -1337.8658 -346.0774 L -1342.473 -344.4587 C -1342.9635 -344.28633 -1343.4454 -344.09016 -1343.9168 -343.87087 L -1350.7636 -340.68632 C -1351.4598 -340.36253 -1352.1783 -340.08926 -1352.9137 -339.86864 L -1363.7841 -336.60752 C -1363.8009 -336.6025 -1363.8176 -336.59746 -1363.8343 -336.5924 L -1374.8024 -333.2628 C -1374.9403 -333.22093 -1375.0776 -333.1772 -1375.2143 -333.13164 L -1388.1355 -328.82456 C -1388.1847 -328.8082 -1388.2339 -328.79205 -1388.2831 -328.77616 L -1399.6505 -325.10925 C -1400.289 -324.9033 -1400.914 -324.65737 -1401.5215 -324.37296 L -1409.4535 -320.66012 C -1409.8238 -320.48677 -1410.1874 -320.2993 -1410.5434 -320.0981 L -1416.4895 -316.73724 C -1417.7425 -316.029 -1418.1842 -314.43907 -1417.476 -313.18604 C -1417.3988 -313.0496 -1417.3096 -312.9204 -1417.2092 -312.8 L -1416.3451 -311.76307 C -1415.5902 -310.85713 -1414.9377 -309.8705 -1414.3996 -308.8212 L -1411.3224 -302.82076 C -1411.247 -302.6736 -1411.1692 -302.5276 -1411.0892 -302.38285 L -1407.1345 -295.22663 C -1407.051 -295.07555 -1406.97 -294.92313 -1406.8914 -294.76943 L -1402.783 -286.73144 C -1402.534 -286.24413 -1402.3101 -285.74437 -1402.1122 -285.2341 L -1398.6295 -276.25224 C -1398.616 -276.2174 -1398.6023 -276.18263 -1398.5886 -276.1479 L -1394.9923 -267.06246 C -1394.8703 -266.75423 -1394.7579 -266.44228 -1394.6552 -266.12706 L -1392.0334 -258.07428 C -1392.0173 -258.02476 -1392.0014 -257.97516 -1391.9858 -257.92548 L -1388.9137 -248.1672 C -1388.711 -247.52305 -1388.5491 -246.8667 -1388.4293 -246.20208 L -1386.444 -235.19263 C -1386.4208 -235.0642 -1386.3992 -234.93552 -1386.3792 -234.80658 L -1384.6733 -223.8132 C -1384.6306 -223.53778 -1384.595 -223.2613 -1384.5668 -222.98402 L -1383.6794 -214.2873 C -1383.6326 -213.8293 -1383.6057 -213.36952 -1383.5986 -212.9092 L -1383.4144 -200.93359 C -1383.411 -200.71122 -1383.4029 -200.48895 -1383.3902 -200.26691 L -1382.6198 -186.78535 C -1382.6127 -186.66179 -1382.6043 -186.5383 -1382.5943 -186.41494 L -1381.2608 -169.84057 C -1381.2264 -169.4137 -1381.2092 -168.98561 -1381.2092 -168.55736 L -1381.2092 -156.10758 C -1381.2092 -155.90254 -1381.2053 -155.69753 -1381.1974 -155.49265 L -1380.617 -140.4035 C -1380.6118 -140.26784 -1380.6083 -140.13211 -1380.6066 -139.99635 L -1380.4144 -125.2001 C -1380.411 -124.9334 -1380.4142 -124.66667 -1380.424 -124.40014 L -1380.9983 -108.89599 C -1381.0056 -108.69868 -1381.0092 -108.50125 -1381.0092 -108.3038 L -1381.0092 -94.70757 C -1381.0092 -94.50254 -1381.0132 -94.29753 -1381.021 -94.09264 L -1381.6062 -78.87764 C -1381.6082 -78.82588 -1381.6105 -78.77412 -1381.613 -78.72238 L -1382.4083 -62.21945 C -1382.4089 -62.20648 -1382.4095 -62.19351 -1382.4102 -62.18055 L -1383.2047 -46.48938 C -1383.2077 -46.42979 -1383.211 -46.37022 -1383.2147 -46.310667 L -1384.4037 -27.089933 C -1384.4074 -27.029975 -1384.4114 -26.970038 -1384.4158 -26.910126 L -1386.199 -2.540577 C -1386.2058 -2.4468573 -1386.2135 -2.3531998 -1386.222 -2.2596154 L -1388.0079 17.385197 C -1388.0088 17.39507 -1388.0097 17.404941 -1388.0106 17.414812 L -1389.7814 36.499717 C -1389.8 36.69989 -1389.8223 36.8997 -1389.8484 37.09903 L -1391.8091 52.07175 C -1391.9419 53.085944 -1392.211 54.07756 -1392.6092 55.01973 L -1392.6092 55.01973 C -1393.0068 55.96048 -1393.2555 56.95739 -1393.3463 57.974655 L -1394.1092 66.51973 C -1394.617 72.20676 -1390.6585 77.32512 -1385.0265 78.26379 Z" fill="url(#Obj_Gradient_2)"/>
      <path d="M -1385.0265 78.26379 L -1371.2843 80.55416 C -1371.101 80.58472 -1370.917 80.61209 -1370.7327 80.63624 L -1342.379 84.35154 C -1342.1325 84.38385 -1341.8853 84.4104 -1341.6375 84.43118 L -1311.3946 86.96768 C -1311.1377 86.98923 -1310.8803 87.00456 -1310.6227 87.01367 L -1271.6918 88.39002 C -1271.5034 88.39668 -1271.315 88.40001 -1271.1265 88.40001 L -1239.6592 88.40001 C -1239.4925 88.40001 -1239.326 88.3974 -1239.1594 88.3922 L -1214.1246 87.60986 C -1213.9144 87.60329 -1213.7043 87.59258 -1213.4945 87.57772 L -1191.4467 86.01682 C -1191.2884 86.00561 -1191.1302 85.99205 -1190.9723 85.97614 L -1165.7119 83.4305 C -1165.5101 83.41017 -1165.3088 83.38601 -1165.108 83.35803 L -1141.3153 80.04265 C -1141.1112 80.01422 -1140.9078 79.98186 -1140.705 79.94558 L -1131.5092 78.30001 C -1126.1821 77.346735 -1122.5312 72.39309 -1123.1977 67.02255 L -1125.4052 49.23198 C -1125.4079 49.210665 -1125.4105 49.18934 -1125.413 49.168015 L -1128.9769 19.469487 C -1128.9984 19.289846 -1129.017 19.109851 -1129.0324 18.929582 L -1131.3946 -8.629628 C -1131.4043 -8.743202 -1131.4129 -8.856878 -1131.4202 -8.970635 L -1132.8068 -30.562278 C -1132.8084 -30.587423 -1132.8101 -30.612564 -1132.8118 -30.6377 L -1134.404 -53.72401 C -1134.4075 -53.77467 -1134.4107 -53.82534 -1134.4137 -53.876024 L -1135.5901 -73.67819 C -1135.6028 -73.89271 -1135.6113 -74.107455 -1135.6154 -74.32231 L -1136.0076 -94.91715 C -1136.0087 -94.97238 -1136.01 -95.02761 -1136.0117 -95.08282 L -1136.6068 -115.31717 C -1136.6084 -115.37239 -1136.6097 -115.42761 -1136.6108 -115.48285 L -1137.0015 -135.99239 C -1137.0066 -136.26408 -1137.0049 -136.53587 -1136.9962 -136.80747 L -1136.4103 -155.16708 C -1136.4096 -155.18903 -1136.4088 -155.21097 -1136.408 -155.2329 L -1135.62 -177.10221 C -1135.6128 -177.30072 -1135.602 -177.49907 -1135.5874 -177.69717 L -1134.0299 -198.9178 C -1134.0161 -199.10591 -1134.0056 -199.29427 -1133.9985 -199.48276 L -1133.244 -219.38163 C -1133.2208 -219.99337 -1133.1626 -220.60328 -1133.0695 -221.20835 L -1130.3305 -239.01187 C -1130.2497 -239.53696 -1130.1428 -240.0577 -1130.0102 -240.57217 L -1125.382 -258.52983 C -1125.2668 -258.9764 -1125.1325 -259.4178 -1124.9793 -259.85275 L -1119.2585 -276.0924 C -1119.0924 -276.56387 -1118.9043 -277.0273 -1118.6948 -277.48117 L -1113.1633 -289.4662 C -1113.0606 -289.6887 -1112.9528 -289.9088 -1112.84 -290.12636 L -1107.4778 -300.4678 C -1107.4321 -300.55593 -1107.3855 -300.64364 -1107.3382 -300.7309 L -1102.1222 -310.34788 C -1101.385 -311.70724 -1100.4353 -312.94013 -1099.3092 -314 L -1099.3092 -314 C -1098.634 -314.63547 -1098.6018 -315.69797 -1099.2373 -316.37316 C -1099.3618 -316.50544 -1099.5069 -316.61663 -1099.667 -316.7024 L -1102.8812 -318.42427 C -1103.0998 -318.5414 -1103.3212 -318.65344 -1103.545 -318.7603 L -1111.399 -322.50878 C -1111.8056 -322.70284 -1112.2203 -322.87964 -1112.6418 -323.0387 L -1122.3166 -326.6896 C -1122.5117 -326.7632 -1122.7081 -326.83297 -1122.9059 -326.8989 L -1135.6004 -331.1304 C -1135.7396 -331.1768 -1135.8794 -331.2213 -1136.0199 -331.26384 L -1148.9034 -335.16794 C -1148.974 -335.1893 -1149.0443 -335.21117 -1149.1146 -335.2335 L -1161.6186 -339.21206 C -1162.0122 -339.3373 -1162.4008 -339.47775 -1162.7836 -339.63307 L -1174.7595 -344.49287 C -1175.5912 -344.83036 -1176.393 -345.23723 -1177.1564 -345.70917 L -1186.7756 -351.6556 C -1186.9313 -351.75186 -1187.0854 -351.8508 -1187.2377 -351.9523 L -1192.1278 -355.2124 C -1193.1092 -355.86665 -1193.9805 -356.67255 -1194.7092 -357.6 L -1194.7092 -357.6 C -1194.8148 -357.7344 -1195.0094 -357.75775 -1195.1438 -357.65215 C -1195.2465 -357.57142 -1195.2875 -357.43487 -1195.2462 -357.3109 L -1195.1092 -356.9 C -1194.65 -355.52225 -1194.5454 -354.05096 -1194.8052 -352.6221 L -1195.2003 -350.44885 C -1195.4715 -348.9572 -1195.9534 -347.51165 -1196.6314 -346.1556 L -1198.1637 -343.09096 C -1198.4604 -342.49756 -1198.7938 -341.9232 -1199.1618 -341.37117 L -1202.3655 -336.5656 C -1202.794 -335.9227 -1203.2687 -335.3117 -1203.7856 -334.7374 L -1208.3476 -329.66844 C -1208.3887 -329.6228 -1208.43 -329.57742 -1208.4716 -329.53227 L -1214.4658 -323.02424 C -1215.0936 -322.3427 -1215.7793 -321.71698 -1216.5154 -321.15413 L -1221.5395 -317.3121 C -1221.9857 -316.97094 -1222.4495 -316.6535 -1222.929 -316.3611 L -1229.4154 -312.40597 C -1230.0771 -312.00252 -1230.7672 -311.64768 -1231.4803 -311.34424 L -1238.5957 -308.3164 C -1239.4033 -307.9727 -1240.2379 -307.69607 -1241.091 -307.48928 L -1245.17 -306.5004 C -1245.9948 -306.30045 -1246.8343 -306.16644 -1247.6804 -306.09965 L -1253.3806 -305.64963 C -1253.7995 -305.61656 -1254.2196 -305.6 -1254.6398 -305.6 L -1261.6721 -305.6 C -1262.4292 -305.6 -1263.1854 -305.65374 -1263.9349 -305.7608 L -1271.8813 -306.896 C -1272.3663 -306.9653 -1272.8479 -307.05683 -1273.3245 -307.1703 L -1279.2857 -308.58965 C -1280.4312 -308.8624 -1281.5431 -309.26073 -1282.6012 -309.77747 L -1288.8812 -312.84444 C -1289.3662 -313.08133 -1289.839 -313.3426 -1290.2976 -313.6273 L -1294.5095 -316.24154 C -1295.1086 -316.61344 -1295.6826 -317.02454 -1296.2275 -317.47216 L -1300.6736 -321.12432 C -1300.8973 -321.30807 -1301.116 -321.49786 -1301.3294 -321.69348 L -1305.1317 -325.17896 C -1305.583 -325.59264 -1306.0102 -326.0319 -1306.4111 -326.49454 L -1310.5299 -331.24693 C -1310.8493 -331.61545 -1311.1516 -331.99838 -1311.436 -332.3945 L -1315.8657 -338.5644 C -1316.3606 -339.2537 -1316.7999 -339.9813 -1317.1794 -340.7403 L -1319.7558 -345.8932 C -1319.7914 -345.9644 -1319.8265 -346.03586 -1319.861 -346.10758 L -1321.1092 -348.7 C -1321.96 -350.46687 -1322.3155 -352.4314 -1322.1379 -354.38436 L -1321.9577 -356.3666 C -1321.9339 -356.62848 -1322.1269 -356.86006 -1322.3887 -356.88386 C -1322.5511 -356.89862 -1322.7098 -356.82925 -1322.8092 -356.7 L -1322.8092 -356.7 C -1323.4727 -355.8375 -1324.2528 -355.07144 -1325.1271 -354.42375 L -1329.0237 -351.53743 C -1329.1474 -351.4458 -1329.2724 -351.356 -1329.3986 -351.26798 L -1334.0209 -348.0464 C -1335.2076 -347.2193 -1336.501 -346.55692 -1337.8658 -346.0774 L -1342.473 -344.4587 C -1342.9635 -344.28633 -1343.4454 -344.09016 -1343.9168 -343.87087 L -1350.7636 -340.68632 C -1351.4598 -340.36253 -1352.1783 -340.08926 -1352.9137 -339.86864 L -1363.7841 -336.60752 C -1363.8009 -336.6025 -1363.8176 -336.59746 -1363.8343 -336.5924 L -1374.8024 -333.2628 C -1374.9403 -333.22093 -1375.0776 -333.1772 -1375.2143 -333.13164 L -1388.1355 -328.82456 C -1388.1847 -328.8082 -1388.2339 -328.79205 -1388.2831 -328.77616 L -1399.6505 -325.10925 C -1400.289 -324.9033 -1400.914 -324.65737 -1401.5215 -324.37296 L -1409.4535 -320.66012 C -1409.8238 -320.48677 -1410.1874 -320.2993 -1410.5434 -320.0981 L -1416.4895 -316.73724 C -1417.7425 -316.029 -1418.1842 -314.43907 -1417.476 -313.18604 C -1417.3988 -313.0496 -1417.3096 -312.9204 -1417.2092 -312.8 L -1416.3451 -311.76307 C -1415.5902 -310.85713 -1414.9377 -309.8705 -1414.3996 -308.8212 L -1411.3224 -302.82076 C -1411.247 -302.6736 -1411.1692 -302.5276 -1411.0892 -302.38285 L -1407.1345 -295.22663 C -1407.051 -295.07555 -1406.97 -294.92313 -1406.8914 -294.76943 L -1402.783 -286.73144 C -1402.534 -286.24413 -1402.3101 -285.74437 -1402.1122 -285.2341 L -1398.6295 -276.25224 C -1398.616 -276.2174 -1398.6023 -276.18263 -1398.5886 -276.1479 L -1394.9923 -267.06246 C -1394.8703 -266.75423 -1394.7579 -266.44228 -1394.6552 -266.12706 L -1392.0334 -258.07428 C -1392.0173 -258.02476 -1392.0014 -257.97516 -1391.9858 -257.92548 L -1388.9137 -248.1672 C -1388.711 -247.52305 -1388.5491 -246.8667 -1388.4293 -246.20208 L -1386.444 -235.19263 C -1386.4208 -235.0642 -1386.3992 -234.93552 -1386.3792 -234.80658 L -1384.6733 -223.8132 C -1384.6306 -223.53778 -1384.595 -223.2613 -1384.5668 -222.98402 L -1383.6794 -214.2873 C -1383.6326 -213.8293 -1383.6057 -213.36952 -1383.5986 -212.9092 L -1383.4144 -200.93359 C -1383.411 -200.71122 -1383.4029 -200.48895 -1383.3902 -200.26691 L -1382.6198 -186.78535 C -1382.6127 -186.66179 -1382.6043 -186.5383 -1382.5943 -186.41494 L -1381.2608 -169.84057 C -1381.2264 -169.4137 -1381.2092 -168.98561 -1381.2092 -168.55736 L -1381.2092 -156.10758 C -1381.2092 -155.90254 -1381.2053 -155.69753 -1381.1974 -155.49265 L -1380.617 -140.4035 C -1380.6118 -140.26784 -1380.6083 -140.13211 -1380.6066 -139.99635 L -1380.4144 -125.2001 C -1380.411 -124.9334 -1380.4142 -124.66667 -1380.424 -124.40014 L -1380.9983 -108.89599 C -1381.0056 -108.69868 -1381.0092 -108.50125 -1381.0092 -108.3038 L -1381.0092 -94.70757 C -1381.0092 -94.50254 -1381.0132 -94.29753 -1381.021 -94.09264 L -1381.6062 -78.87764 C -1381.6082 -78.82588 -1381.6105 -78.77412 -1381.613 -78.72238 L -1382.4083 -62.21945 C -1382.4089 -62.20648 -1382.4095 -62.19351 -1382.4102 -62.18055 L -1383.2047 -46.48938 C -1383.2077 -46.42979 -1383.211 -46.37022 -1383.2147 -46.310667 L -1384.4037 -27.089933 C -1384.4074 -27.029975 -1384.4114 -26.970038 -1384.4158 -26.910126 L -1386.199 -2.540577 C -1386.2058 -2.4468573 -1386.2135 -2.3531998 -1386.222 -2.2596154 L -1388.0079 17.385197 C -1388.0088 17.39507 -1388.0097 17.404941 -1388.0106 17.414812 L -1389.7814 36.499717 C -1389.8 36.69989 -1389.8223 36.8997 -1389.8484 37.09903 L -1391.8091 52.07175 C -1391.9419 53.085944 -1392.211 54.07756 -1392.6092 55.01973 L -1392.6092 55.01973 C -1393.0068 55.96048 -1393.2555 56.95739 -1393.3463 57.974655 L -1394.1092 66.51973 C -1394.617 72.20676 -1390.6585 77.32512 -1385.0265 78.26379 Z" stroke="#7f8080" stroke-linecap="round" stroke-linejoin="round" stroke-width="1"/>
      <path d="M -1474 -207.55385 L -1467.8 -203.15385 L -1459.6 -199.15385 L -1451 -195.55385 L -1442 -191.75385 L -1431 -187.75385 L -1421.6 -184.95385 L -1412.6 -182.35385 L -1403.6 -179.75385 L -1398.2 -178.35385 L -1392.6 -177.35385 L -1390.2 -183.15385 L -1387.6 -188.55385 L -1385.4 -192.55385 L -1382.8 -195.95385 L -1382.6 -204.95385 L -1383.2 -215.95385 L -1385 -226.75385 L -1386.6 -237.15385 L -1389.2 -248.15386 L -1391.6 -257.75386 L -1394.4 -265.75386 L -1397.6 -275.15386 L -1400.4 -282.55386 L -1404 -290.15386 L -1408 -297.75386 L -1412 -305.15386 L -1414.6 -308.75386 L -1418.2 -314.55386 L -1423.6 -310.15386 L -1428.4 -305.35386 L -1433 -299.15386 L -1437.4 -292.95386 L -1442.2 -284.35386 L -1447 -274.95386 L -1451.8 -265.75386 L -1455.4 -257.15386 L -1459.4 -248.15386 L -1462.6 -239.95385 L -1466.4 -230.55385 L -1469.2 -222.55385 L -1472.2 -214.15385 Z" fill="white"/>
      <path d="M -1474 -207.55385 L -1467.8 -203.15385 L -1459.6 -199.15385 L -1451 -195.55385 L -1442 -191.75385 L -1431 -187.75385 L -1421.6 -184.95385 L -1412.6 -182.35385 L -1403.6 -179.75385 L -1398.2 -178.35385 L -1392.6 -177.35385 L -1390.2 -183.15385 L -1387.6 -188.55385 L -1385.4 -192.55385 L -1382.8 -195.95385 L -1382.6 -204.95385 L -1383.2 -215.95385 L -1385 -226.75385 L -1386.6 -237.15385 L -1389.2 -248.15386 L -1391.6 -257.75386 L -1394.4 -265.75386 L -1397.6 -275.15386 L -1400.4 -282.55386 L -1404 -290.15386 L -1408 -297.75386 L -1412 -305.15386 L -1414.6 -308.75386 L -1418.2 -314.55386 L -1423.6 -310.15386 L -1428.4 -305.35386 L -1433 -299.15386 L -1437.4 -292.95386 L -1442.2 -284.35386 L -1447 -274.95386 L -1451.8 -265.75386 L -1455.4 -257.15386 L -1459.4 -248.15386 L -1462.6 -239.95385 L -1466.4 -230.55385 L -1469.2 -222.55385 L -1472.2 -214.15385 Z" stroke="#7f8080" stroke-linecap="round" stroke-linejoin="round" stroke-width="1"/>
      <path d="M -1042.5947 -208.49725 L -1048.7947 -204.09725 L -1056.9947 -200.09725 L -1065.5947 -196.49725 L -1074.5947 -192.69725 L -1085.5947 -188.69725 L -1094.9947 -185.89725 L -1103.9947 -183.29725 L -1112.9947 -180.69725 L -1118.3947 -179.29725 L -1123.9947 -178.29725 L -1126.3947 -184.09725 L -1128.9947 -189.49725 L -1131.1947 -193.49725 L -1133.7947 -196.89725 L -1133.9947 -205.89725 L -1133.3947 -216.89725 L -1131.5947 -227.69725 L -1129.9947 -238.09725 L -1127.3947 -249.09725 L -1124.9947 -258.69725 L -1122.1947 -266.69725 L -1118.9947 -276.09725 L -1116.1947 -283.49725 L -1112.5947 -291.09725 L -1108.5947 -298.69725 L -1104.5947 -306.09725 L -1101.9947 -309.69725 L -1098.3947 -315.49725 L -1092.9947 -311.09725 L -1088.1947 -306.29725 L -1083.5947 -300.09725 L -1079.1947 -293.89725 L -1074.3947 -285.29725 L -1069.5947 -275.89725 L -1064.7947 -266.69725 L -1061.1947 -258.09725 L -1057.1947 -249.09725 L -1053.9947 -240.89725 L -1050.1947 -231.49725 L -1047.3947 -223.49725 L -1044.3947 -215.09725 Z" fill="white"/>
      <path d="M -1042.5947 -208.49725 L -1048.7947 -204.09725 L -1056.9947 -200.09725 L -1065.5947 -196.49725 L -1074.5947 -192.69725 L -1085.5947 -188.69725 L -1094.9947 -185.89725 L -1103.9947 -183.29725 L -1112.9947 -180.69725 L -1118.3947 -179.29725 L -1123.9947 -178.29725 L -1126.3947 -184.09725 L -1128.9947 -189.49725 L -1131.1947 -193.49725 L -1133.7947 -196.89725 L -1133.9947 -205.89725 L -1133.3947 -216.89725 L -1131.5947 -227.69725 L -1129.9947 -238.09725 L -1127.3947 -249.09725 L -1124.9947 -258.69725 L -1122.1947 -266.69725 L -1118.9947 -276.09725 L -1116.1947 -283.49725 L -1112.5947 -291.09725 L -1108.5947 -298.69725 L -1104.5947 -306.09725 L -1101.9947 -309.69725 L -1098.3947 -315.49725 L -1092.9947 -311.09725 L -1088.1947 -306.29725 L -1083.5947 -300.09725 L -1079.1947 -293.89725 L -1074.3947 -285.29725 L -1069.5947 -275.89725 L -1064.7947 -266.69725 L -1061.1947 -258.09725 L -1057.1947 -249.09725 L -1053.9947 -240.89725 L -1050.1947 -231.49725 L -1047.3947 -223.49725 L -1044.3947 -215.09725 Z" stroke="#7f8080" stroke-linecap="round" stroke-linejoin="round" stroke-width="1"/>
      <path d="M -1474 -207.55385 L -1467.8 -203.15385 L -1459.6 -199.15385 L -1451 -195.55385 L -1442 -191.75385 L -1431 -187.75385 L -1421.6 -184.95385 L -1412.6 -182.35385 L -1403.6 -179.75385 L -1398.2 -178.35385 L -1392.6 -177.35385 L -1389.6 -183.75385 L -1393.4 -184.55385 L -1398.2 -185.75385 L -1403.8 -186.95385 L -1409.8 -188.75385 L -1414.4 -190.15385 L -1418.6 -191.35385 L -1423.2 -193.35385 L -1427.8 -194.95385 L -1432.6 -196.95385 L -1436.6 -198.35385 L -1441.8 -200.55385 L -1446.4 -202.15385 L -1451.2 -204.35385 L -1456 -206.15385 L -1460 -208.15385 L -1464.4 -210.35385 L -1468.8 -212.55385 L -1472.2 -214.15385 Z" fill="url(#Obj_Gradient_3)"/>
      <path d="M -1474 -207.55385 L -1467.8 -203.15385 L -1459.6 -199.15385 L -1451 -195.55385 L -1442 -191.75385 L -1431 -187.75385 L -1421.6 -184.95385 L -1412.6 -182.35385 L -1403.6 -179.75385 L -1398.2 -178.35385 L -1392.6 -177.35385 L -1389.6 -183.75385 L -1393.4 -184.55385 L -1398.2 -185.75385 L -1403.8 -186.95385 L -1409.8 -188.75385 L -1414.4 -190.15385 L -1418.6 -191.35385 L -1423.2 -193.35385 L -1427.8 -194.95385 L -1432.6 -196.95385 L -1436.6 -198.35385 L -1441.8 -200.55385 L -1446.4 -202.15385 L -1451.2 -204.35385 L -1456 -206.15385 L -1460 -208.15385 L -1464.4 -210.35385 L -1468.8 -212.55385 L -1472.2 -214.15385 Z" stroke="#7f8080" stroke-linecap="round" stroke-linejoin="round" stroke-width="1"/>
      <path d="M -1042.5947 -208.49725 L -1048.7947 -204.09725 L -1056.9947 -200.09725 L -1065.5947 -196.49725 L -1074.5947 -192.69725 L -1085.5947 -188.69725 L -1094.9947 -185.89725 L -1103.9947 -183.29725 L -1112.9947 -180.69725 L -1118.3947 -179.29725 L -1123.9947 -178.29725 L -1126.9947 -184.69725 L -1123.1947 -185.49725 L -1118.3947 -186.69725 L -1112.7947 -187.89725 L -1106.7947 -189.69725 L -1102.1947 -191.09725 L -1097.9947 -192.29725 L -1093.3947 -194.29725 L -1088.7947 -195.89725 L -1083.9947 -197.89725 L -1079.9947 -199.29725 L -1074.7947 -201.49725 L -1070.1947 -203.09725 L -1065.3947 -205.29725 L -1060.5947 -207.09725 L -1056.5947 -209.09725 L -1052.1947 -211.29725 L -1047.7947 -213.49725 L -1044.3947 -215.09725 Z" fill="url(#Obj_Gradient_4)"/>
      <path d="M -1042.5947 -208.49725 L -1048.7947 -204.09725 L -1056.9947 -200.09725 L -1065.5947 -196.49725 L -1074.5947 -192.69725 L -1085.5947 -188.69725 L -1094.9947 -185.89725 L -1103.9947 -183.29725 L -1112.9947 -180.69725 L -1118.3947 -179.29725 L -1123.9947 -178.29725 L -1126.9947 -184.69725 L -1123.1947 -185.49725 L -1118.3947 -186.69725 L -1112.7947 -187.89725 L -1106.7947 -189.69725 L -1102.1947 -191.09725 L -1097.9947 -192.29725 L -1093.3947 -194.29725 L -1088.7947 -195.89725 L -1083.9947 -197.89725 L -1079.9947 -199.29725 L -1074.7947 -201.49725 L -1070.1947 -203.09725 L -1065.3947 -205.29725 L -1060.5947 -207.09725 L -1056.5947 -209.09725 L -1052.1947 -211.29725 L -1047.7947 -213.49725 L -1044.3947 -215.09725 Z" stroke="#7f8080" stroke-linecap="round" stroke-linejoin="round" stroke-width="1"/>
      <path d="M -1323.4279 -357.0362 L -1328.157 -352.98264 C -1329.3074 -351.99662 -1330.5524 -351.1267 -1331.8738 -350.3855 L -1334.4004 -348.96835 C -1335.8356 -348.16338 -1336.4164 -346.39425 -1335.7376 -344.89527 L -1334.72 -342.64803 C -1334.5984 -342.37954 -1334.4717 -342.1134 -1334.3399 -341.8498 L -1332.5376 -338.24526 L -1330.0506 -333.2713 C -1329.7088 -332.5877 -1329.3332 -331.92157 -1328.925 -331.27537 L -1326.5987 -327.5919 C -1326.1583 -326.89465 -1325.6807 -326.2216 -1325.168 -325.5756 L -1321.7574 -321.27815 C -1321.2113 -320.59013 -1320.6263 -319.93394 -1320.0052 -319.31283 L -1315.3391 -314.6468 C -1314.9383 -314.2459 -1314.5227 -313.86 -1314.0933 -313.4898 L -1309.5298 -309.55574 C -1309.1351 -309.21552 -1308.729 -308.8888 -1308.3122 -308.57617 L -1304.3372 -305.59497 C -1303.6713 -305.09553 -1302.9788 -304.6326 -1302.2627 -304.20826 L -1298.1296 -301.75904 C -1298.0016 -301.6832 -1297.8729 -301.6086 -1297.7434 -301.53523 L -1293.0459 -298.8733 C -1292.3076 -298.45493 -1291.5467 -298.07774 -1290.7667 -297.74347 L -1287.217 -296.2221 C -1286.631 -295.971 -1286.0348 -295.74433 -1285.43 -295.54274 L -1280.4119 -293.87003 C -1279.1647 -293.4543 -1277.8841 -293.14624 -1276.5842 -292.9493 L -1272.4854 -292.32826 C -1272.1202 -292.27294 -1271.7539 -292.2264 -1271.3865 -292.18874 L -1264.5054 -291.483 C -1264.2602 -291.45784 -1264.0147 -291.43664 -1263.7688 -291.41938 L -1259.2417 -291.1017 C -1258.7058 -291.0641 -1258.1688 -291.04527 -1257.6316 -291.04527 L -1254.3695 -291.04526 C -1253.4158 -291.04526 -1252.463 -291.10458 -1251.5167 -291.22287 L -1247.528 -291.72146 C -1246.868 -291.80396 -1246.212 -291.91504 -1245.5616 -292.0544 L -1239.4796 -293.3577 C -1238.5857 -293.54924 -1237.7041 -293.7939 -1236.8393 -294.0904 L -1232.3305 -295.63628 C -1231.5358 -295.90873 -1230.7567 -296.2245 -1229.9966 -296.5822 L -1225.1632 -298.85674 C -1224.613 -299.11565 -1224.0733 -299.3963 -1223.5454 -299.69798 L -1219.7775 -301.85104 C -1219.0847 -302.24692 -1218.413 -302.6786 -1217.765 -303.14428 L -1213.089 -306.50525 C -1212.5883 -306.8651 -1212.1022 -307.24497 -1211.6321 -307.6439 L -1206.3112 -312.15856 C -1205.9289 -312.48294 -1205.5573 -312.81974 -1205.197 -313.1684 L -1200.4978 -317.71604 C -1199.8582 -318.335 -1199.2551 -318.99056 -1198.6915 -319.67942 L -1194.8982 -324.31566 C -1194.3915 -324.93497 -1193.9174 -325.5803 -1193.478 -326.24904 L -1189.8608 -331.75344 C -1189.6454 -332.08127 -1189.4384 -332.41456 -1189.24 -332.75298 L -1186.7169 -337.05708 C -1186.331 -337.71546 -1185.978 -338.39265 -1185.6594 -339.08612 L -1183.5407 -343.6974 C -1183.0078 -344.85715 -1182.6367 -346.08456 -1182.4376 -347.34526 L -1182.4376 -347.34526 C -1182.2593 -348.47453 -1182.8386 -349.58797 -1183.8657 -350.0901 L -1189.1591 -352.678 C -1190.4736 -353.32063 -1191.7082 -354.11514 -1192.8376 -355.04526 L -1193.2436 -355.37963 C -1194.088 -356.07496 -1194.7114 -357.00126 -1195.0376 -358.04526 L -1195.0376 -358.04526 C -1195.0843 -358.1946 -1195.2431 -358.2778 -1195.3925 -358.23114 C -1195.5075 -358.19518 -1195.5872 -358.0903 -1195.5911 -357.9698 L -1195.7003 -354.5469 C -1195.791 -351.7038 -1196.4084 -348.90224 -1197.521 -346.28433 L -1198.398 -344.22096 C -1198.9565 -342.9067 -1199.6363 -341.6473 -1200.4284 -340.4591 L -1204.1142 -334.9304 C -1204.8617 -333.80915 -1205.7063 -332.75575 -1206.6382 -331.78238 L -1212.9333 -325.20753 C -1213.8014 -324.30087 -1214.7422 -323.4668 -1215.7464 -322.71367 L -1224.1213 -316.4325 C -1224.9977 -315.7752 -1225.92 -315.18133 -1226.881 -314.65546 L -1234.0662 -310.72394 C -1235.3774 -310.00653 -1236.7553 -309.41863 -1238.1805 -308.96857 L -1244.8534 -306.86133 C -1246.5703 -306.31916 -1248.3449 -305.98046 -1250.1407 -305.8522 L -1257.0272 -305.3603 C -1258.0995 -305.2837 -1259.1758 -305.2824 -1260.2483 -305.35635 L -1268.6846 -305.93816 C -1269.7187 -306.00948 -1270.7469 -306.15064 -1271.762 -306.36067 L -1278.8973 -307.8369 C -1280.8492 -308.24077 -1282.7404 -308.89665 -1284.5232 -309.78808 L -1289.1827 -312.1178 C -1290.4168 -312.73485 -1291.5929 -313.46173 -1292.6967 -314.2896 L -1298.3787 -318.55108 C -1298.8178 -318.88043 -1299.245 -319.2254 -1299.6595 -319.5853 L -1305.4147 -324.58324 C -1306.229 -325.29038 -1306.9925 -326.05392 -1307.6996 -326.8682 L -1312.1049 -331.9409 C -1312.859 -332.80925 -1313.5469 -333.73295 -1314.1628 -334.7042 L -1317.8965 -340.59198 C -1318.257 -341.16056 -1318.5925 -341.7447 -1318.9018 -342.3427 L -1320.5222 -345.47544 C -1321.1313 -346.6531 -1321.6375 -347.88126 -1322.035 -349.14615 L -1323.3153 -353.21964 C -1323.53 -353.903 -1323.7128 -354.59605 -1323.8629 -355.2965 L -1324.0883 -356.34843 C -1324.1734 -356.74544 -1323.947 -357.1431 -1323.5622 -357.27263 L -1323.5622 -357.27263 C -1323.4897 -357.29704 -1323.4112 -357.25805 -1323.3868 -357.18556 C -1323.3687 -357.13205 -1323.385 -357.07296 -1323.4279 -357.0362 Z" fill="white"/>
      <path d="M -1323.4279 -357.0362 L -1328.157 -352.98264 C -1329.3074 -351.99662 -1330.5524 -351.1267 -1331.8738 -350.3855 L -1334.4004 -348.96835 C -1335.8356 -348.16338 -1336.4164 -346.39425 -1335.7376 -344.89527 L -1334.72 -342.64803 C -1334.5984 -342.37954 -1334.4717 -342.1134 -1334.3399 -341.8498 L -1332.5376 -338.24526 L -1330.0506 -333.2713 C -1329.7088 -332.5877 -1329.3332 -331.92157 -1328.925 -331.27537 L -1326.5987 -327.5919 C -1326.1583 -326.89465 -1325.6807 -326.2216 -1325.168 -325.5756 L -1321.7574 -321.27815 C -1321.2113 -320.59013 -1320.6263 -319.93394 -1320.0052 -319.31283 L -1315.3391 -314.6468 C -1314.9383 -314.2459 -1314.5227 -313.86 -1314.0933 -313.4898 L -1309.5298 -309.55574 C -1309.1351 -309.21552 -1308.729 -308.8888 -1308.3122 -308.57617 L -1304.3372 -305.59497 C -1303.6713 -305.09553 -1302.9788 -304.6326 -1302.2627 -304.20826 L -1298.1296 -301.75904 C -1298.0016 -301.6832 -1297.8729 -301.6086 -1297.7434 -301.53523 L -1293.0459 -298.8733 C -1292.3076 -298.45493 -1291.5467 -298.07774 -1290.7667 -297.74347 L -1287.217 -296.2221 C -1286.631 -295.971 -1286.0348 -295.74433 -1285.43 -295.54274 L -1280.4119 -293.87003 C -1279.1647 -293.4543 -1277.8841 -293.14624 -1276.5842 -292.9493 L -1272.4854 -292.32826 C -1272.1202 -292.27294 -1271.7539 -292.2264 -1271.3865 -292.18874 L -1264.5054 -291.483 C -1264.2602 -291.45784 -1264.0147 -291.43664 -1263.7688 -291.41938 L -1259.2417 -291.1017 C -1258.7058 -291.0641 -1258.1688 -291.04527 -1257.6316 -291.04527 L -1254.3695 -291.04526 C -1253.4158 -291.04526 -1252.463 -291.10458 -1251.5167 -291.22287 L -1247.528 -291.72146 C -1246.868 -291.80396 -1246.212 -291.91504 -1245.5616 -292.0544 L -1239.4796 -293.3577 C -1238.5857 -293.54924 -1237.7041 -293.7939 -1236.8393 -294.0904 L -1232.3305 -295.63628 C -1231.5358 -295.90873 -1230.7567 -296.2245 -1229.9966 -296.5822 L -1225.1632 -298.85674 C -1224.613 -299.11565 -1224.0733 -299.3963 -1223.5454 -299.69798 L -1219.7775 -301.85104 C -1219.0847 -302.24692 -1218.413 -302.6786 -1217.765 -303.14428 L -1213.089 -306.50525 C -1212.5883 -306.8651 -1212.1022 -307.24497 -1211.6321 -307.6439 L -1206.3112 -312.15856 C -1205.9289 -312.48294 -1205.5573 -312.81974 -1205.197 -313.1684 L -1200.4978 -317.71604 C -1199.8582 -318.335 -1199.2551 -318.99056 -1198.6915 -319.67942 L -1194.8982 -324.31566 C -1194.3915 -324.93497 -1193.9174 -325.5803 -1193.478 -326.24904 L -1189.8608 -331.75344 C -1189.6454 -332.08127 -1189.4384 -332.41456 -1189.24 -332.75298 L -1186.7169 -337.05708 C -1186.331 -337.71546 -1185.978 -338.39265 -1185.6594 -339.08612 L -1183.5407 -343.6974 C -1183.0078 -344.85715 -1182.6367 -346.08456 -1182.4376 -347.34526 L -1182.4376 -347.34526 C -1182.2593 -348.47453 -1182.8386 -349.58797 -1183.8657 -350.0901 L -1189.1591 -352.678 C -1190.4736 -353.32063 -1191.7082 -354.11514 -1192.8376 -355.04526 L -1193.2436 -355.37963 C -1194.088 -356.07496 -1194.7114 -357.00126 -1195.0376 -358.04526 L -1195.0376 -358.04526 C -1195.0843 -358.1946 -1195.2431 -358.2778 -1195.3925 -358.23114 C -1195.5075 -358.19518 -1195.5872 -358.0903 -1195.5911 -357.9698 L -1195.7003 -354.5469 C -1195.791 -351.7038 -1196.4084 -348.90224 -1197.521 -346.28433 L -1198.398 -344.22096 C -1198.9565 -342.9067 -1199.6363 -341.6473 -1200.4284 -340.4591 L -1204.1142 -334.9304 C -1204.8617 -333.80915 -1205.7063 -332.75575 -1206.6382 -331.78238 L -1212.9333 -325.20753 C -1213.8014 -324.30087 -1214.7422 -323.4668 -1215.7464 -322.71367 L -1224.1213 -316.4325 C -1224.9977 -315.7752 -1225.92 -315.18133 -1226.881 -314.65546 L -1234.0662 -310.72394 C -1235.3774 -310.00653 -1236.7553 -309.41863 -1238.1805 -308.96857 L -1244.8534 -306.86133 C -1246.5703 -306.31916 -1248.3449 -305.98046 -1250.1407 -305.8522 L -1257.0272 -305.3603 C -1258.0995 -305.2837 -1259.1758 -305.2824 -1260.2483 -305.35635 L -1268.6846 -305.93816 C -1269.7187 -306.00948 -1270.7469 -306.15064 -1271.762 -306.36067 L -1278.8973 -307.8369 C -1280.8492 -308.24077 -1282.7404 -308.89665 -1284.5232 -309.78808 L -1289.1827 -312.1178 C -1290.4168 -312.73485 -1291.5929 -313.46173 -1292.6967 -314.2896 L -1298.3787 -318.55108 C -1298.8178 -318.88043 -1299.245 -319.2254 -1299.6595 -319.5853 L -1305.4147 -324.58324 C -1306.229 -325.29038 -1306.9925 -326.05392 -1307.6996 -326.8682 L -1312.1049 -331.9409 C -1312.859 -332.80925 -1313.5469 -333.73295 -1314.1628 -334.7042 L -1317.8965 -340.59198 C -1318.257 -341.16056 -1318.5925 -341.7447 -1318.9018 -342.3427 L -1320.5222 -345.47544 C -1321.1313 -346.6531 -1321.6375 -347.88126 -1322.035 -349.14615 L -1323.3153 -353.21964 C -1323.53 -353.903 -1323.7128 -354.59605 -1323.8629 -355.2965 L -1324.0883 -356.34843 C -1324.1734 -356.74544 -1323.947 -357.1431 -1323.5622 -357.27263 L -1323.5622 -357.27263 C -1323.4897 -357.29704 -1323.4112 -357.25805 -1323.3868 -357.18556 C -1323.3687 -357.13205 -1323.385 -357.07296 -1323.4279 -357.0362 Z" stroke="#7f8080" stroke-linecap="round" stroke-linejoin="round" stroke-width="1"/>
      <path d="M -1323.9408 -357.2441 L -1318.5408 -357.8441 L -1311.7408 -354.4441 L -1306.7408 -352.6441 L -1298.3408 -350.8441 L -1289.9408 -349.8441 L -1281.9408 -348.8441 L -1274.3408 -348.6441 L -1265.7408 -348.2441 L -1254.1408 -348.4441 L -1245.7408 -348.8441 L -1236.3408 -349.4441 L -1227.9408 -350.2441 L -1218.7408 -351.6441 L -1210.5408 -353.8441 L -1204.7408 -355.6441 L -1199.1408 -358.2441 L -1196.3408 -357.0441 L -1195.9408 -351.4441 L -1198.7408 -343.4441 L -1204.1408 -340.6441 L -1214.7408 -337.4441 L -1226.1408 -335.0441 L -1237.3408 -334.2441 L -1249.7408 -333.2441 L -1260.1408 -333.2441 L -1269.5408 -333.2441 L -1281.1408 -333.8441 L -1292.3408 -334.6441 L -1302.9408 -336.8441 L -1311.5408 -338.8441 L -1317.7408 -341.6441 L -1319.7408 -343.2441 L -1322.9408 -350.8441 Z" fill="white"/>
      <path d="M -1323.9408 -357.2441 L -1318.5408 -357.8441 L -1311.7408 -354.4441 L -1306.7408 -352.6441 L -1298.3408 -350.8441 L -1289.9408 -349.8441 L -1281.9408 -348.8441 L -1274.3408 -348.6441 L -1265.7408 -348.2441 L -1254.1408 -348.4441 L -1245.7408 -348.8441 L -1236.3408 -349.4441 L -1227.9408 -350.2441 L -1218.7408 -351.6441 L -1210.5408 -353.8441 L -1204.7408 -355.6441 L -1199.1408 -358.2441 L -1196.3408 -357.0441 L -1195.9408 -351.4441 L -1198.7408 -343.4441 L -1204.1408 -340.6441 L -1214.7408 -337.4441 L -1226.1408 -335.0441 L -1237.3408 -334.2441 L -1249.7408 -333.2441 L -1260.1408 -333.2441 L -1269.5408 -333.2441 L -1281.1408 -333.8441 L -1292.3408 -334.6441 L -1302.9408 -336.8441 L -1311.5408 -338.8441 L -1317.7408 -341.6441 L -1319.7408 -343.2441 L -1322.9408 -350.8441 Z" stroke="#7f8080" stroke-linecap="round" stroke-linejoin="round" stroke-width="1"/>
      <path d="M -1394.1868 68.20001 L -1394.1868 68.20001 C -1394.2525 68.725486 -1394.1896 69.25905 -1394.0037 69.7549 L -1393.3527 71.49092 C -1393.176 71.96227 -1392.9489 72.41318 -1392.6754 72.83582 L -1391.7076 74.33153 C -1391.1666 75.16756 -1390.4535 75.87855 -1389.6159 76.41702 L -1388.5378 77.11005 C -1388.2376 77.30307 -1387.923 77.47285 -1387.5968 77.617885 L -1386.28 78.20349 C -1385.6835 78.46876 -1385.0528 78.64928 -1384.4062 78.7398 L -1375.3958 80.00126 C -1375.3858 80.00265 -1375.3758 80.00403 -1375.3658 80.00539 L -1363.6498 81.594 C -1363.6038 81.600235 -1363.5577 81.60601 -1363.5116 81.61134 L -1353.2287 82.79783 C -1353.1968 82.80151 -1353.1648 82.80498 -1353.1328 82.80822 L -1339.4228 84.1991 C -1339.3948 84.20193 -1339.3668 84.2046 -1339.3388 84.20711 L -1328.2335 85.19865 C -1328.1984 85.20179 -1328.1632 85.20466 -1328.128 85.20726 L -1317.4415 85.99886 C -1317.401 86.00185 -1317.3605 86.0045 -1317.32 86.00679 L -1306.812 86.60159 C -1306.7912 86.60276 -1306.7704 86.60404 -1306.7496 86.6054 L -1294.7068 87.39509 C -1294.6228 87.4006 -1294.5387 87.40459 -1294.4546 87.40707 L -1281.0074 87.80257 C -1280.9897 87.80309 -1280.9719 87.80368 -1280.9542 87.80434 L -1270.3103 88.19856 C -1270.224 88.20176 -1270.1376 88.20335 -1270.0512 88.20335 L -1259.4422 88.20335 C -1259.4013 88.20335 -1259.3603 88.20371 -1259.3194 88.20443 L -1248.233 88.39893 C -1248.0649 88.40188 -1247.8968 88.39877 -1247.729 88.38962 L -1237.1077 87.81028 C -1237.0231 87.80566 -1236.9384 87.80258 -1236.8537 87.80104 L -1226.0891 87.60532 C -1226.0169 87.60401 -1225.9447 87.60158 -1225.8726 87.59803 L -1213.854 87.00695 C -1213.8052 87.00455 -1213.7564 87.00165 -1213.7078 86.99823 L -1202.4677 86.20945 C -1202.4098 86.20539 -1202.3519 86.2006 -1202.294 86.19509 L -1189.8835 85.01313 C -1189.815 85.00661 -1189.7465 85.0011 -1189.6779 84.9966 L -1177.7458 84.21418 C -1177.6358 84.20696 -1177.526 84.19715 -1177.4164 84.18475 L -1167.0041 83.00599 C -1166.9886 83.00423 -1166.973 83.00242 -1166.9575 83.00056 L -1157.0098 81.80683 C -1156.9905 81.80451 -1156.9711 81.80211 -1156.9518 81.79963 L -1143.116 80.02209 C -1143.0188 80.0096 -1142.9219 79.99507 -1142.8253 79.97851 L -1136.2718 78.85506 C -1136.0708 78.82061 -1135.8685 78.79495 -1135.6653 78.77817 L -1132.433 78.51119 C -1131.5437 78.43775 -1130.6767 78.19497 -1129.8786 77.79594 L -1128.3924 77.05279 C -1127.7918 76.7525 -1127.2375 76.36735 -1126.7466 75.90919 L -1125.4115 74.66308 C -1124.8047 74.096715 -1124.3493 73.38747 -1124.0868 72.60001 L -1123.792 71.71552 C -1123.7219 71.5053 -1123.6618 71.29187 -1123.612 71.075945 L -1123.1423 69.04056 C -1123.1071 68.887924 -1123.1405 68.72752 -1123.2338 68.60168 L -1123.2338 68.60168 C -1123.3241 68.4798 -1123.4748 68.418305 -1123.6246 68.44214 L -1132.1045 69.79121 C -1132.1553 69.799305 -1132.2061 69.80796 -1132.2568 69.81718 L -1145.2416 72.17805 C -1145.3344 72.19492 -1145.4275 72.20991 -1145.5209 72.22302 L -1156.7506 73.79911 C -1156.7707 73.80194 -1156.7909 73.804856 -1156.811 73.80786 L -1169.9801 75.7734 C -1170.1139 75.793365 -1170.2482 75.80945 -1170.3829 75.82163 L -1180.8913 76.77208 C -1181.097 76.79069 -1181.3034 76.80018 -1181.51 76.80053 L -1182.944 76.80295 C -1183.1018 76.80322 -1183.2596 76.80883 -1183.417 76.81976 L -1197.5469 77.801 C -1197.5695 77.80257 -1197.5921 77.80403 -1197.6147 77.80538 L -1210.918 78.5996 C -1210.9598 78.6021 -1211.0018 78.60423 -1211.0437 78.605975 L -1225.2352 79.19729 C -1225.3322 79.20133 -1225.4294 79.20335 -1225.5266 79.20335 L -1238.7808 79.20335 L -1251.3225 79.20335 C -1251.3614 79.20335 -1251.4002 79.20368 -1251.4391 79.20433 L -1263.1975 79.4003 C -1263.3197 79.402335 -1263.4419 79.40117 -1263.564 79.39681 L -1274.3976 79.0099 C -1274.5197 79.00554 -1274.6419 79.00437 -1274.7641 79.00641 L -1286.4787 79.20165 C -1286.5468 79.20279 -1286.6148 79.20293 -1286.6829 79.20208 L -1302.3852 79.0058 C -1302.5156 79.00417 -1302.6459 78.9989 -1302.776 78.98998 L -1317.0858 78.00986 C -1317.1491 78.00552 -1317.2124 78.00032 -1317.2756 77.99426 L -1331.7666 76.60471 C -1331.776 76.60381 -1331.7855 76.60288 -1331.795 76.60194 L -1345.607 75.22073 C -1345.7228 75.20915 -1345.8384 75.19468 -1345.9535 75.17733 L -1360.2627 73.02116 C -1360.3414 73.00929 -1360.4204 72.99877 -1360.4995 72.98959 L -1374.0194 71.422065 C -1374.127 71.40959 -1374.2343 71.394625 -1374.3411 71.377175 L -1383.7332 69.84377 C -1383.8982 69.816835 -1384.0622 69.784 -1384.2248 69.74532 L -1393.3024 67.58654 C -1393.6908 67.49419 -1394.0804 67.73412 -1394.1728 68.12244 C -1394.1788 68.14802 -1394.1835 68.17392 -1394.1868 68.20001 Z" fill="url(#Obj_Gradient_5)"/>
      <path d="M -1394.1868 68.20001 L -1394.1868 68.20001 C -1394.2525 68.725486 -1394.1896 69.25905 -1394.0037 69.7549 L -1393.3527 71.49092 C -1393.176 71.96227 -1392.9489 72.41318 -1392.6754 72.83582 L -1391.7076 74.33153 C -1391.1666 75.16756 -1390.4535 75.87855 -1389.6159 76.41702 L -1388.5378 77.11005 C -1388.2376 77.30307 -1387.923 77.47285 -1387.5968 77.617885 L -1386.28 78.20349 C -1385.6835 78.46876 -1385.0528 78.64928 -1384.4062 78.7398 L -1375.3958 80.00126 C -1375.3858 80.00265 -1375.3758 80.00403 -1375.3658 80.00539 L -1363.6498 81.594 C -1363.6038 81.600235 -1363.5577 81.60601 -1363.5116 81.61134 L -1353.2287 82.79783 C -1353.1968 82.80151 -1353.1648 82.80498 -1353.1328 82.80822 L -1339.4228 84.1991 C -1339.3948 84.20193 -1339.3668 84.2046 -1339.3388 84.20711 L -1328.2335 85.19865 C -1328.1984 85.20179 -1328.1632 85.20466 -1328.128 85.20726 L -1317.4415 85.99886 C -1317.401 86.00185 -1317.3605 86.0045 -1317.32 86.00679 L -1306.812 86.60159 C -1306.7912 86.60276 -1306.7704 86.60404 -1306.7496 86.6054 L -1294.7068 87.39509 C -1294.6228 87.4006 -1294.5387 87.40459 -1294.4546 87.40707 L -1281.0074 87.80257 C -1280.9897 87.80309 -1280.9719 87.80368 -1280.9542 87.80434 L -1270.3103 88.19856 C -1270.224 88.20176 -1270.1376 88.20335 -1270.0512 88.20335 L -1259.4422 88.20335 C -1259.4013 88.20335 -1259.3603 88.20371 -1259.3194 88.20443 L -1248.233 88.39893 C -1248.0649 88.40188 -1247.8968 88.39877 -1247.729 88.38962 L -1237.1077 87.81028 C -1237.0231 87.80566 -1236.9384 87.80258 -1236.8537 87.80104 L -1226.0891 87.60532 C -1226.0169 87.60401 -1225.9447 87.60158 -1225.8726 87.59803 L -1213.854 87.00695 C -1213.8052 87.00455 -1213.7564 87.00165 -1213.7078 86.99823 L -1202.4677 86.20945 C -1202.4098 86.20539 -1202.3519 86.2006 -1202.294 86.19509 L -1189.8835 85.01313 C -1189.815 85.00661 -1189.7465 85.0011 -1189.6779 84.9966 L -1177.7458 84.21418 C -1177.6358 84.20696 -1177.526 84.19715 -1177.4164 84.18475 L -1167.0041 83.00599 C -1166.9886 83.00423 -1166.973 83.00242 -1166.9575 83.00056 L -1157.0098 81.80683 C -1156.9905 81.80451 -1156.9711 81.80211 -1156.9518 81.79963 L -1143.116 80.02209 C -1143.0188 80.0096 -1142.9219 79.99507 -1142.8253 79.97851 L -1136.2718 78.85506 C -1136.0708 78.82061 -1135.8685 78.79495 -1135.6653 78.77817 L -1132.433 78.51119 C -1131.5437 78.43775 -1130.6767 78.19497 -1129.8786 77.79594 L -1128.3924 77.05279 C -1127.7918 76.7525 -1127.2375 76.36735 -1126.7466 75.90919 L -1125.4115 74.66308 C -1124.8047 74.096715 -1124.3493 73.38747 -1124.0868 72.60001 L -1123.792 71.71552 C -1123.7219 71.5053 -1123.6618 71.29187 -1123.612 71.075945 L -1123.1423 69.04056 C -1123.1071 68.887924 -1123.1405 68.72752 -1123.2338 68.60168 L -1123.2338 68.60168 C -1123.3241 68.4798 -1123.4748 68.418305 -1123.6246 68.44214 L -1132.1045 69.79121 C -1132.1553 69.799305 -1132.2061 69.80796 -1132.2568 69.81718 L -1145.2416 72.17805 C -1145.3344 72.19492 -1145.4275 72.20991 -1145.5209 72.22302 L -1156.7506 73.79911 C -1156.7707 73.80194 -1156.7909 73.804856 -1156.811 73.80786 L -1169.9801 75.7734 C -1170.1139 75.793365 -1170.2482 75.80945 -1170.3829 75.82163 L -1180.8913 76.77208 C -1181.097 76.79069 -1181.3034 76.80018 -1181.51 76.80053 L -1182.944 76.80295 C -1183.1018 76.80322 -1183.2596 76.80883 -1183.417 76.81976 L -1197.5469 77.801 C -1197.5695 77.80257 -1197.5921 77.80403 -1197.6147 77.80538 L -1210.918 78.5996 C -1210.9598 78.6021 -1211.0018 78.60423 -1211.0437 78.605975 L -1225.2352 79.19729 C -1225.3322 79.20133 -1225.4294 79.20335 -1225.5266 79.20335 L -1238.7808 79.20335 L -1251.3225 79.20335 C -1251.3614 79.20335 -1251.4002 79.20368 -1251.4391 79.20433 L -1263.1975 79.4003 C -1263.3197 79.402335 -1263.4419 79.40117 -1263.564 79.39681 L -1274.3976 79.0099 C -1274.5197 79.00554 -1274.6419 79.00437 -1274.7641 79.00641 L -1286.4787 79.20165 C -1286.5468 79.20279 -1286.6148 79.20293 -1286.6829 79.20208 L -1302.3852 79.0058 C -1302.5156 79.00417 -1302.6459 78.9989 -1302.776 78.98998 L -1317.0858 78.00986 C -1317.1491 78.00552 -1317.2124 78.00032 -1317.2756 77.99426 L -1331.7666 76.60471 C -1331.776 76.60381 -1331.7855 76.60288 -1331.795 76.60194 L -1345.607 75.22073 C -1345.7228 75.20915 -1345.8384 75.19468 -1345.9535 75.17733 L -1360.2627 73.02116 C -1360.3414 73.00929 -1360.4204 72.99877 -1360.4995 72.98959 L -1374.0194 71.422065 C -1374.127 71.40959 -1374.2343 71.394625 -1374.3411 71.377175 L -1383.7332 69.84377 C -1383.8982 69.816835 -1384.0622 69.784 -1384.2248 69.74532 L -1393.3024 67.58654 C -1393.6908 67.49419 -1394.0804 67.73412 -1394.1728 68.12244 C -1394.1788 68.14802 -1394.1835 68.17392 -1394.1868 68.20001 Z" stroke="#7f8080" stroke-linecap="round" stroke-linejoin="round" stroke-width="1"/>
    </g>
  </g>
</svg>
