<?xml version="1.0" encoding="UTF-8" standalone="no"?>
<!DOCTYPE svg PUBLIC "-//W3C//DTD SVG 1.1//EN" "http://www.w3.org/Graphics/SVG/1.1/DTD/svg11.dtd">
<svg xmlns="http://www.w3.org/2000/svg" xmlns:xl="http://www.w3.org/1999/xlink" version="1.1" viewBox="-1284.5 -130.5 432.4053 449.30915" width="432.4053pt" height="449.30915pt" xmlns:dc="http://purl.org/dc/elements/1.1/">
  <metadata> Produced by OmniGraffle 7.4.2 
    <dc:date>2018-03-14 06:41:51 +0000</dc:date>
  </metadata>
  <defs>
    <radialGradient cx="0" cy="0" r="1" id="Gradient" gradientUnits="userSpaceOnUse">
      <stop offset="0" stop-color="#cbcbcb"/>
      <stop offset="1" stop-color="#2b1b0b"/>
    </radialGradient>
    <radialGradient id="Obj_Gradient" xl:href="#Gradient" gradientTransform="translate(-1069.2408 -102.6) scale(70.26272)"/>
    <radialGradient cx="0" cy="0" r="1" id="Gradient_2" gradientUnits="userSpaceOnUse">
      <stop offset="0" stop-color="#3e41ff"/>
      <stop offset="1" stop-color="#2233b5"/>
    </radialGradient>
    <radialGradient id="Obj_Gradient_2" xl:href="#Gradient_2" gradientTransform="translate(-1241.8 33.246146) scale(46.03694)"/>
    <radialGradient cx="0" cy="0" r="1" id="Gradient_3" gradientUnits="userSpaceOnUse">
      <stop offset="0" stop-color="#2833ef"/>
      <stop offset="1" stop-color="#1f2da5"/>
    </radialGradient>
    <radialGradient id="Obj_Gradient_3" xl:href="#Gradient_3" gradientTransform="translate(-894.7947 32.30275) scale(46.03694)"/>
    <linearGradient x1="0" x2="1" id="Gradient_4" gradientUnits="userSpaceOnUse">
      <stop offset="0" stop-color="white"/>
      <stop offset="1" stop-color="#82800d"/>
    </linearGradient>
    <linearGradient id="Obj_Gradient_4" xl:href="#Gradient_4" gradientTransform="translate(-1069.213 -129.2441) rotate(90) scale(67.19884)"/>
    <linearGradient x1="0" x2="1" id="Gradient_5" gradientUnits="userSpaceOnUse">
      <stop offset="0" stop-color="white"/>
      <stop offset="1" stop-color="#777115"/>
    </linearGradient>
    <linearGradient id="Obj_Gradient_5" xl:href="#Gradient_5" gradientTransform="translate(-1069.9408 -129.2441) rotate(90) scale(25)"/>
    <radialGradient cx="0" cy="0" r="1" id="Gradient_6" gradientUnits="userSpaceOnUse">
      <stop offset="0" stop-color="#9f9011"/>
      <stop offset="1" stop-color="#c3cbc0"/>
    </radialGradient>
    <radialGradient id="Obj_Gradient_6" xl:href="#Gradient_6" gradientTransform="translate(-1068.6703 306.9834) scale(135.94141)"/>
  </defs>
  <g stroke="none" stroke-opacity="1" stroke-dasharray="none" fill="none" fill-opacity="1">
    <title>Lienzo 18</title>
    <rect fill="white" width="432.4053" height="449.30915"/>
    <g>
      <title>Capa 1</title>
      <path d="M -1130.9943 -129.40955 L -1122.8289 -126.29184 C -1121.9709 -125.96424 -1121.094 -125.68833 -1120.2031 -125.46558 L -1106.4859 -122.03629 C -1105.3242 -121.74587 -1104.1417 -121.54662 -1102.949 -121.44034 L -1085.4228 -119.8786 C -1084.835 -119.82622 -1084.2454 -119.79648 -1083.6552 -119.78946 L -1068.1763 -119.60519 C -1067.886 -119.60173 -1067.5956 -119.60377 -1067.3053 -119.61131 L -1052.882 -119.98594 C -1052.5212 -119.99531 -1052.1607 -120.01317 -1051.8008 -120.03951 L -1037.4295 -121.09107 C -1036.438 -121.16361 -1035.4523 -121.30036 -1034.4786 -121.50044 L -1022.9056 -123.87845 C -1021.8636 -124.09256 -1020.8377 -124.3787 -1019.8353 -124.73481 L -1008.0834 -128.90986 C -1006.993 -129.29723 -1005.7898 -128.76646 -1005.3408 -127.7 L -1005.3408 -127.7 C -1004.8186 -126.4599 -1004.6666 -125.09515 -1004.9032 -123.77055 L -1005.0836 -122.75986 C -1005.3874 -121.0587 -1005.8819 -119.3972 -1006.5579 -117.80681 L -1008.1011 -114.17569 C -1008.6596 -112.86142 -1009.3394 -111.60202 -1010.1315 -110.41382 L -1013.8173 -104.88515 C -1014.5648 -103.76389 -1015.4094 -102.71049 -1016.3414 -101.73711 L -1022.6365 -95.16226 C -1023.5045 -94.25561 -1024.4454 -93.42154 -1025.4495 -92.66841 L -1033.8244 -86.38723 C -1034.7009 -85.72992 -1035.6231 -85.13606 -1036.5842 -84.6102 L -1043.7694 -80.67867 C -1045.0805 -79.961265 -1046.4584 -79.37336 -1047.8836 -78.9233 L -1054.5565 -76.81607 C -1056.2734 -76.2739 -1058.048 -75.935195 -1059.8439 -75.80692 L -1066.7303 -75.31503 C -1067.8026 -75.23844 -1068.879 -75.23712 -1069.9515 -75.31108 L -1078.3877 -75.89289 C -1079.4219 -75.96422 -1080.45 -76.10537 -1081.4652 -76.3154 L -1088.6004 -77.79165 C -1090.5524 -78.1955 -1092.4435 -78.85139 -1094.2264 -79.74281 L -1098.8858 -82.07252 C -1100.1199 -82.68959 -1101.296 -83.41646 -1102.3999 -84.24434 L -1108.0818 -88.50581 C -1108.521 -88.83517 -1108.9482 -89.18013 -1109.3626 -89.54005 L -1115.1178 -94.53797 C -1115.9321 -95.24511 -1116.6956 -96.00865 -1117.4028 -96.82294 L -1121.808 -101.89562 C -1122.5621 -102.76398 -1123.25 -103.68768 -1123.866 -104.65895 L -1127.5996 -110.54671 C -1127.9602 -111.1153 -1128.2956 -111.69944 -1128.605 -112.29745 L -1130.2253 -115.43017 C -1130.8345 -116.60785 -1131.3406 -117.836 -1131.7382 -119.10089 L -1133.0184 -123.17438 C -1133.2332 -123.85775 -1133.4159 -124.55079 -1133.566 -125.25122 L -1133.6408 -125.6 C -1133.8354 -126.50843 -1133.7282 -127.45557 -1133.3353 -128.29746 L -1133.2408 -128.5 C -1132.8463 -129.3453 -1131.8658 -129.7423 -1130.9943 -129.40955 Z" fill="url(#Obj_Gradient)"/>
      <path d="M -1130.9943 -129.40955 L -1122.8289 -126.29184 C -1121.9709 -125.96424 -1121.094 -125.68833 -1120.2031 -125.46558 L -1106.4859 -122.03629 C -1105.3242 -121.74587 -1104.1417 -121.54662 -1102.949 -121.44034 L -1085.4228 -119.8786 C -1084.835 -119.82622 -1084.2454 -119.79648 -1083.6552 -119.78946 L -1068.1763 -119.60519 C -1067.886 -119.60173 -1067.5956 -119.60377 -1067.3053 -119.61131 L -1052.882 -119.98594 C -1052.5212 -119.99531 -1052.1607 -120.01317 -1051.8008 -120.03951 L -1037.4295 -121.09107 C -1036.438 -121.16361 -1035.4523 -121.30036 -1034.4786 -121.50044 L -1022.9056 -123.87845 C -1021.8636 -124.09256 -1020.8377 -124.3787 -1019.8353 -124.73481 L -1008.0834 -128.90986 C -1006.993 -129.29723 -1005.7898 -128.76646 -1005.3408 -127.7 L -1005.3408 -127.7 C -1004.8186 -126.4599 -1004.6666 -125.09515 -1004.9032 -123.77055 L -1005.0836 -122.75986 C -1005.3874 -121.0587 -1005.8819 -119.3972 -1006.5579 -117.80681 L -1008.1011 -114.17569 C -1008.6596 -112.86142 -1009.3394 -111.60202 -1010.1315 -110.41382 L -1013.8173 -104.88515 C -1014.5648 -103.76389 -1015.4094 -102.71049 -1016.3414 -101.73711 L -1022.6365 -95.16226 C -1023.5045 -94.25561 -1024.4454 -93.42154 -1025.4495 -92.66841 L -1033.8244 -86.38723 C -1034.7009 -85.72992 -1035.6231 -85.13606 -1036.5842 -84.6102 L -1043.7694 -80.67867 C -1045.0805 -79.961265 -1046.4584 -79.37336 -1047.8836 -78.9233 L -1054.5565 -76.81607 C -1056.2734 -76.2739 -1058.048 -75.935195 -1059.8439 -75.80692 L -1066.7303 -75.31503 C -1067.8026 -75.23844 -1068.879 -75.23712 -1069.9515 -75.31108 L -1078.3877 -75.89289 C -1079.4219 -75.96422 -1080.45 -76.10537 -1081.4652 -76.3154 L -1088.6004 -77.79165 C -1090.5524 -78.1955 -1092.4435 -78.85139 -1094.2264 -79.74281 L -1098.8858 -82.07252 C -1100.1199 -82.68959 -1101.296 -83.41646 -1102.3999 -84.24434 L -1108.0818 -88.50581 C -1108.521 -88.83517 -1108.9482 -89.18013 -1109.3626 -89.54005 L -1115.1178 -94.53797 C -1115.9321 -95.24511 -1116.6956 -96.00865 -1117.4028 -96.82294 L -1121.808 -101.89562 C -1122.5621 -102.76398 -1123.25 -103.68768 -1123.866 -104.65895 L -1127.5996 -110.54671 C -1127.9602 -111.1153 -1128.2956 -111.69944 -1128.605 -112.29745 L -1130.2253 -115.43017 C -1130.8345 -116.60785 -1131.3406 -117.836 -1131.7382 -119.10089 L -1133.0184 -123.17438 C -1133.2332 -123.85775 -1133.4159 -124.55079 -1133.566 -125.25122 L -1133.6408 -125.6 C -1133.8354 -126.50843 -1133.7282 -127.45557 -1133.3353 -128.29746 L -1133.2408 -128.5 C -1132.8463 -129.3453 -1131.8658 -129.7423 -1130.9943 -129.40955 Z" stroke="#7f8080" stroke-linecap="round" stroke-linejoin="round" stroke-width="1"/>
      <path d="M -1196.67 308.17293 L -1182.9277 310.4633 C -1182.7443 310.49387 -1182.5604 310.52123 -1182.3761 310.5454 L -1154.0225 314.2607 C -1153.7759 314.293 -1153.5287 314.31955 -1153.2809 314.34033 L -1123.038 316.87683 C -1122.7811 316.89837 -1122.5237 316.9137 -1122.2661 316.9228 L -1083.3352 318.29916 C -1083.1468 318.30582 -1082.9584 318.30915 -1082.7699 318.30915 L -1051.3026 318.30915 C -1051.1359 318.30915 -1050.9693 318.30655 -1050.8028 318.30134 L -1025.768 317.519 C -1025.5578 317.51244 -1025.3477 317.50172 -1025.1378 317.48687 L -1003.0901 315.92596 C -1002.9318 315.91476 -1002.7736 315.9012 -1002.6157 315.88528 L -977.3552 313.33965 C -977.1535 313.31932 -976.9522 313.29516 -976.7514 313.26717 L -952.9587 309.9518 C -952.7546 309.92337 -952.5512 309.891 -952.3484 309.85472 L -943.1526 308.20915 C -937.8255 307.25588 -934.1746 302.30223 -934.841 296.9317 L -937.0486 279.14113 C -937.0513 279.1198 -937.0539 279.0985 -937.0564 279.07716 L -940.6203 249.37863 C -940.6418 249.199 -940.6603 249.019 -940.6758 248.83873 L -943.038 221.27952 C -943.0477 221.16594 -943.0563 221.05227 -943.0636 220.9385 L -944.4502 199.34687 C -944.4518 199.32172 -944.4535 199.29658 -944.4552 199.27144 L -946.0474 176.18513 C -946.0509 176.13448 -946.0541 176.0838 -946.0571 176.03312 L -947.2335 156.23095 C -947.2462 156.01644 -947.2547 155.80169 -947.2588 155.58684 L -947.651 134.992 C -947.6521 134.93677 -947.6534 134.88154 -947.655 134.82632 L -948.2502 114.59198 C -948.2518 114.53676 -948.2531 114.48153 -948.2542 114.4263 L -948.6448 93.91676 C -948.65 93.64506 -948.6483 93.37328 -948.6396 93.10167 L -948.0537 74.74206 C -948.053 74.72012 -948.0522 74.69818 -948.0514 74.67624 L -947.2633 52.80693 C -947.2562 52.608425 -947.2453 52.41007 -947.2308 52.21197 L -945.6733 30.991353 C -945.6595 30.80323 -945.649 30.614878 -945.6419 30.426385 L -944.8874 10.527517 C -944.8642 9.915772 -944.806 9.305862 -944.7129 8.700796 L -941.9739 -9.102722 C -941.8931 -9.62782 -941.7862 -10.148567 -941.6536 -10.66303 L -937.0253 -28.620682 C -936.9102 -29.067255 -936.7759 -29.508643 -936.6227 -29.94361 L -930.9019 -46.18325 C -930.7358 -46.65473 -930.5477 -47.11816 -930.3382 -47.57203 L -924.8067 -59.55707 C -924.704 -59.77956 -924.5962 -59.99967 -924.4834 -60.21721 L -919.1212 -70.55864 C -919.0755 -70.64678 -919.0289 -70.7345 -918.9816 -70.82177 L -913.7656 -80.43873 C -913.0283 -81.79809 -912.0787 -83.03099 -910.9526 -84.09086 L -910.9526 -84.09086 C -910.2774 -84.72633 -910.2452 -85.78883 -910.8807 -86.46402 C -911.0052 -86.59629 -911.1503 -86.70749 -911.3104 -86.79327 L -914.5246 -88.51513 C -914.7432 -88.63226 -914.9646 -88.7443 -915.1885 -88.85114 L -923.0424 -92.59963 C -923.449 -92.79369 -923.8637 -92.9705 -924.2852 -93.12956 L -933.96 -96.78044 C -934.1551 -96.85404 -934.3515 -96.92383 -934.5493 -96.98975 L -947.2438 -101.22124 C -947.383 -101.26765 -947.5228 -101.31214 -947.6633 -101.3547 L -960.5468 -105.2588 C -960.6173 -105.28017 -960.6877 -105.30203 -960.758 -105.32437 L -973.262 -109.30292 C -973.6556 -109.42816 -974.0442 -109.5686 -974.427 -109.72393 L -986.4029 -114.58373 C -987.2346 -114.92122 -988.0364 -115.32808 -988.7998 -115.80002 L -998.419 -121.74647 C -998.5747 -121.84272 -998.7288 -121.94164 -998.8811 -122.04317 L -1003.7712 -125.30324 C -1004.7526 -125.9575 -1005.6239 -126.7634 -1006.3526 -127.69086 L -1006.3526 -127.69086 C -1006.4582 -127.82526 -1006.6528 -127.84861 -1006.7872 -127.743 C -1006.8899 -127.66228 -1006.9309 -127.52573 -1006.8896 -127.40177 L -1006.7526 -126.99086 C -1006.2934 -125.6131 -1006.1888 -124.14182 -1006.4486 -122.71297 L -1006.8437 -120.5397 C -1007.115 -119.04804 -1007.5968 -117.6025 -1008.2748 -116.24645 L -1009.8071 -113.18182 C -1010.1038 -112.58842 -1010.4372 -112.01405 -1010.8052 -111.46203 L -1014.0089 -106.65647 C -1014.4375 -106.01357 -1014.9121 -105.40256 -1015.429 -104.82824 L -1019.991 -99.7593 C -1020.0321 -99.71367 -1020.0734 -99.66828 -1020.115 -99.62312 L -1026.1092 -93.1151 C -1026.737 -92.43356 -1027.4227 -91.80783 -1028.1588 -91.24498 L -1033.1829 -87.40297 C -1033.6291 -87.0618 -1034.0929 -86.74435 -1034.5724 -86.45195 L -1041.0588 -82.49683 C -1041.7205 -82.09338 -1042.4106 -81.73853 -1043.1237 -81.43509 L -1050.239 -78.40726 C -1051.0467 -78.06357 -1051.8813 -77.78693 -1052.7343 -77.58013 L -1056.8134 -76.59127 C -1057.6382 -76.39131 -1058.4777 -76.2573 -1059.3238 -76.1905 L -1065.024 -75.740485 C -1065.4429 -75.70741 -1065.863 -75.690855 -1066.2832 -75.690855 L -1073.3155 -75.690855 C -1074.0726 -75.690855 -1074.8288 -75.74459 -1075.5783 -75.85166 L -1083.5247 -76.98687 C -1084.0097 -77.05616 -1084.4913 -77.14768 -1084.9679 -77.26116 L -1090.9291 -78.6805 C -1092.0746 -78.95324 -1093.1865 -79.35159 -1094.2446 -79.86832 L -1100.5246 -82.9353 C -1101.0096 -83.17218 -1101.4824 -83.43346 -1101.941 -83.71814 L -1106.1529 -86.3324 C -1106.752 -86.7043 -1107.326 -87.1154 -1107.8709 -87.56302 L -1112.317 -91.21518 C -1112.5407 -91.39893 -1112.7594 -91.58872 -1112.9728 -91.78433 L -1116.7751 -95.26981 C -1117.2264 -95.6835 -1117.6536 -96.12275 -1118.0545 -96.58539 L -1122.1733 -101.33779 C -1122.4927 -101.70631 -1122.795 -102.08923 -1123.0794 -102.48537 L -1127.5091 -108.65525 C -1128.004 -109.34456 -1128.4433 -110.07215 -1128.8228 -110.83114 L -1131.3992 -115.98406 C -1131.4348 -116.05526 -1131.4699 -116.12672 -1131.5044 -116.19843 L -1132.7526 -118.79086 C -1133.6033 -120.55772 -1133.9588 -122.52226 -1133.7813 -124.47521 L -1133.6011 -126.45747 C -1133.5773 -126.71933 -1133.7703 -126.95091 -1134.0321 -126.97472 C -1134.1945 -126.98948 -1134.3532 -126.9201 -1134.4526 -126.79086 L -1134.4526 -126.79086 C -1135.116 -125.92838 -1135.8962 -125.1623 -1136.7705 -124.51461 L -1140.6671 -121.62829 C -1140.7908 -121.53667 -1140.9158 -121.44684 -1141.042 -121.35883 L -1145.6643 -118.13726 C -1146.851 -117.31015 -1148.1444 -116.64778 -1149.5092 -116.16827 L -1154.1163 -114.54955 C -1154.6069 -114.37719 -1155.0888 -114.18102 -1155.5602 -113.96173 L -1162.407 -110.77718 C -1163.1032 -110.45338 -1163.8217 -110.18012 -1164.5571 -109.9595 L -1175.4275 -106.69838 C -1175.4443 -106.69336 -1175.461 -106.68832 -1175.4777 -106.68325 L -1186.4458 -103.35365 C -1186.5837 -103.31179 -1186.721 -103.26807 -1186.8577 -103.2225 L -1199.779 -98.91542 C -1199.828 -98.89904 -1199.8773 -98.88291 -1199.9265 -98.86701 L -1211.294 -95.20011 C -1211.9324 -94.99414 -1212.5573 -94.74823 -1213.165 -94.46381 L -1221.0969 -90.75098 C -1221.4672 -90.57763 -1221.8308 -90.39014 -1222.1868 -90.18894 L -1228.1329 -86.82809 C -1229.3859 -86.11985 -1229.8276 -84.52993 -1229.1193 -83.2769 C -1229.0422 -83.14046 -1228.953 -83.01125 -1228.8526 -82.89086 L -1227.9885 -81.85392 C -1227.2336 -80.94799 -1226.5811 -79.96137 -1226.043 -78.91204 L -1222.9658 -72.91162 C -1222.8904 -72.76445 -1222.8126 -72.61846 -1222.7326 -72.47371 L -1218.7779 -65.31749 C -1218.6944 -65.16641 -1218.6133 -65.01399 -1218.5348 -64.86029 L -1214.4265 -56.8223 C -1214.1774 -56.33499 -1213.9535 -55.835223 -1213.7556 -55.32497 L -1210.2729 -46.34309 C -1210.2594 -46.308267 -1210.2457 -46.27349 -1210.232 -46.23876 L -1206.6357 -37.153315 C -1206.5137 -36.845082 -1206.4013 -36.533132 -1206.2986 -36.217917 L -1203.6768 -28.16514 C -1203.6607 -28.115616 -1203.6448 -28.066015 -1203.6292 -28.016337 L -1200.5571 -18.258066 C -1200.3543 -17.613904 -1200.1925 -16.95755 -1200.0727 -16.29294 L -1198.0874 -5.2834835 C -1198.0642 -5.1550686 -1198.0426 -5.026375 -1198.0226 -4.8974323 L -1196.3167 6.0959495 C -1196.274 6.371367 -1196.2385 6.647854 -1196.2102 6.925128 L -1195.3227 15.621843 C -1195.276 16.079832 -1195.249 16.539624 -1195.242 16.999937 L -1195.0577 28.97556 C -1195.0543 29.197926 -1195.0463 29.4202 -1195.0336 29.64223 L -1194.2632 43.12379 C -1194.2561 43.24736 -1194.2477 43.370837 -1194.2377 43.494205 L -1192.9042 60.06858 C -1192.8698 60.49545 -1192.8526 60.92353 -1192.8526 61.35179 L -1192.8526 73.80157 C -1192.8526 74.0066 -1192.8487 74.21162 -1192.8408 74.4165 L -1192.2604 89.50564 C -1192.2552 89.6413 -1192.2517 89.77703 -1192.25 89.91279 L -1192.0578 104.70905 C -1192.0543 104.97574 -1192.0576 105.24248 -1192.0674 105.50901 L -1192.6417 121.01316 C -1192.649 121.21047 -1192.6526 121.4079 -1192.6526 121.60534 L -1192.6526 135.20157 C -1192.6526 135.4066 -1192.6566 135.61162 -1192.6644 135.8165 L -1193.2496 151.0315 C -1193.2516 151.08327 -1193.2539 151.13502 -1193.2564 151.18676 L -1194.0517 167.6897 C -1194.0523 167.70266 -1194.053 167.71563 -1194.0536 167.7286 L -1194.8481 183.41976 C -1194.8511 183.47935 -1194.8545 183.53893 -1194.8581 183.59848 L -1196.047 202.8192 C -1196.0508 202.87917 -1196.0548 202.9391 -1196.0592 202.99902 L -1197.8423 227.36857 C -1197.8492 227.4623 -1197.8569 227.55594 -1197.8654 227.64953 L -1199.6513 247.29434 C -1199.6522 247.3042 -1199.6531 247.31409 -1199.654 247.32396 L -1201.4248 266.40886 C -1201.4433 266.60904 -1201.4657 266.80884 -1201.4918 267.00818 L -1203.4525 281.9809 C -1203.5853 282.9951 -1203.8544 283.9867 -1204.2526 284.92888 L -1204.2526 284.92888 C -1204.6502 285.86962 -1204.8989 286.86654 -1204.9897 287.8838 L -1205.7526 296.42888 C -1206.2604 302.1159 -1202.3019 307.23427 -1196.67 308.17293 Z" fill="#a8a600"/>
      <path d="M -1196.67 308.17293 L -1182.9277 310.4633 C -1182.7443 310.49387 -1182.5604 310.52123 -1182.3761 310.5454 L -1154.0225 314.2607 C -1153.7759 314.293 -1153.5287 314.31955 -1153.2809 314.34033 L -1123.038 316.87683 C -1122.7811 316.89837 -1122.5237 316.9137 -1122.2661 316.9228 L -1083.3352 318.29916 C -1083.1468 318.30582 -1082.9584 318.30915 -1082.7699 318.30915 L -1051.3026 318.30915 C -1051.1359 318.30915 -1050.9693 318.30655 -1050.8028 318.30134 L -1025.768 317.519 C -1025.5578 317.51244 -1025.3477 317.50172 -1025.1378 317.48687 L -1003.0901 315.92596 C -1002.9318 315.91476 -1002.7736 315.9012 -1002.6157 315.88528 L -977.3552 313.33965 C -977.1535 313.31932 -976.9522 313.29516 -976.7514 313.26717 L -952.9587 309.9518 C -952.7546 309.92337 -952.5512 309.891 -952.3484 309.85472 L -943.1526 308.20915 C -937.8255 307.25588 -934.1746 302.30223 -934.841 296.9317 L -937.0486 279.14113 C -937.0513 279.1198 -937.0539 279.0985 -937.0564 279.07716 L -940.6203 249.37863 C -940.6418 249.199 -940.6603 249.019 -940.6758 248.83873 L -943.038 221.27952 C -943.0477 221.16594 -943.0563 221.05227 -943.0636 220.9385 L -944.4502 199.34687 C -944.4518 199.32172 -944.4535 199.29658 -944.4552 199.27144 L -946.0474 176.18513 C -946.0509 176.13448 -946.0541 176.0838 -946.0571 176.03312 L -947.2335 156.23095 C -947.2462 156.01644 -947.2547 155.80169 -947.2588 155.58684 L -947.651 134.992 C -947.6521 134.93677 -947.6534 134.88154 -947.655 134.82632 L -948.2502 114.59198 C -948.2518 114.53676 -948.2531 114.48153 -948.2542 114.4263 L -948.6448 93.91676 C -948.65 93.64506 -948.6483 93.37328 -948.6396 93.10167 L -948.0537 74.74206 C -948.053 74.72012 -948.0522 74.69818 -948.0514 74.67624 L -947.2633 52.80693 C -947.2562 52.608425 -947.2453 52.41007 -947.2308 52.21197 L -945.6733 30.991353 C -945.6595 30.80323 -945.649 30.614878 -945.6419 30.426385 L -944.8874 10.527517 C -944.8642 9.915772 -944.806 9.305862 -944.7129 8.700796 L -941.9739 -9.102722 C -941.8931 -9.62782 -941.7862 -10.148567 -941.6536 -10.66303 L -937.0253 -28.620682 C -936.9102 -29.067255 -936.7759 -29.508643 -936.6227 -29.94361 L -930.9019 -46.18325 C -930.7358 -46.65473 -930.5477 -47.11816 -930.3382 -47.57203 L -924.8067 -59.55707 C -924.704 -59.77956 -924.5962 -59.99967 -924.4834 -60.21721 L -919.1212 -70.55864 C -919.0755 -70.64678 -919.0289 -70.7345 -918.9816 -70.82177 L -913.7656 -80.43873 C -913.0283 -81.79809 -912.0787 -83.03099 -910.9526 -84.09086 L -910.9526 -84.09086 C -910.2774 -84.72633 -910.2452 -85.78883 -910.8807 -86.46402 C -911.0052 -86.59629 -911.1503 -86.70749 -911.3104 -86.79327 L -914.5246 -88.51513 C -914.7432 -88.63226 -914.9646 -88.7443 -915.1885 -88.85114 L -923.0424 -92.59963 C -923.449 -92.79369 -923.8637 -92.9705 -924.2852 -93.12956 L -933.96 -96.78044 C -934.1551 -96.85404 -934.3515 -96.92383 -934.5493 -96.98975 L -947.2438 -101.22124 C -947.383 -101.26765 -947.5228 -101.31214 -947.6633 -101.3547 L -960.5468 -105.2588 C -960.6173 -105.28017 -960.6877 -105.30203 -960.758 -105.32437 L -973.262 -109.30292 C -973.6556 -109.42816 -974.0442 -109.5686 -974.427 -109.72393 L -986.4029 -114.58373 C -987.2346 -114.92122 -988.0364 -115.32808 -988.7998 -115.80002 L -998.419 -121.74647 C -998.5747 -121.84272 -998.7288 -121.94164 -998.8811 -122.04317 L -1003.7712 -125.30324 C -1004.7526 -125.9575 -1005.6239 -126.7634 -1006.3526 -127.69086 L -1006.3526 -127.69086 C -1006.4582 -127.82526 -1006.6528 -127.84861 -1006.7872 -127.743 C -1006.8899 -127.66228 -1006.9309 -127.52573 -1006.8896 -127.40177 L -1006.7526 -126.99086 C -1006.2934 -125.6131 -1006.1888 -124.14182 -1006.4486 -122.71297 L -1006.8437 -120.5397 C -1007.115 -119.04804 -1007.5968 -117.6025 -1008.2748 -116.24645 L -1009.8071 -113.18182 C -1010.1038 -112.58842 -1010.4372 -112.01405 -1010.8052 -111.46203 L -1014.0089 -106.65647 C -1014.4375 -106.01357 -1014.9121 -105.40256 -1015.429 -104.82824 L -1019.991 -99.7593 C -1020.0321 -99.71367 -1020.0734 -99.66828 -1020.115 -99.62312 L -1026.1092 -93.1151 C -1026.737 -92.43356 -1027.4227 -91.80783 -1028.1588 -91.24498 L -1033.1829 -87.40297 C -1033.6291 -87.0618 -1034.0929 -86.74435 -1034.5724 -86.45195 L -1041.0588 -82.49683 C -1041.7205 -82.09338 -1042.4106 -81.73853 -1043.1237 -81.43509 L -1050.239 -78.40726 C -1051.0467 -78.06357 -1051.8813 -77.78693 -1052.7343 -77.58013 L -1056.8134 -76.59127 C -1057.6382 -76.39131 -1058.4777 -76.2573 -1059.3238 -76.1905 L -1065.024 -75.740485 C -1065.4429 -75.70741 -1065.863 -75.690855 -1066.2832 -75.690855 L -1073.3155 -75.690855 C -1074.0726 -75.690855 -1074.8288 -75.74459 -1075.5783 -75.85166 L -1083.5247 -76.98687 C -1084.0097 -77.05616 -1084.4913 -77.14768 -1084.9679 -77.26116 L -1090.9291 -78.6805 C -1092.0746 -78.95324 -1093.1865 -79.35159 -1094.2446 -79.86832 L -1100.5246 -82.9353 C -1101.0096 -83.17218 -1101.4824 -83.43346 -1101.941 -83.71814 L -1106.1529 -86.3324 C -1106.752 -86.7043 -1107.326 -87.1154 -1107.8709 -87.56302 L -1112.317 -91.21518 C -1112.5407 -91.39893 -1112.7594 -91.58872 -1112.9728 -91.78433 L -1116.7751 -95.26981 C -1117.2264 -95.6835 -1117.6536 -96.12275 -1118.0545 -96.58539 L -1122.1733 -101.33779 C -1122.4927 -101.70631 -1122.795 -102.08923 -1123.0794 -102.48537 L -1127.5091 -108.65525 C -1128.004 -109.34456 -1128.4433 -110.07215 -1128.8228 -110.83114 L -1131.3992 -115.98406 C -1131.4348 -116.05526 -1131.4699 -116.12672 -1131.5044 -116.19843 L -1132.7526 -118.79086 C -1133.6033 -120.55772 -1133.9588 -122.52226 -1133.7813 -124.47521 L -1133.6011 -126.45747 C -1133.5773 -126.71933 -1133.7703 -126.95091 -1134.0321 -126.97472 C -1134.1945 -126.98948 -1134.3532 -126.9201 -1134.4526 -126.79086 L -1134.4526 -126.79086 C -1135.116 -125.92838 -1135.8962 -125.1623 -1136.7705 -124.51461 L -1140.6671 -121.62829 C -1140.7908 -121.53667 -1140.9158 -121.44684 -1141.042 -121.35883 L -1145.6643 -118.13726 C -1146.851 -117.31015 -1148.1444 -116.64778 -1149.5092 -116.16827 L -1154.1163 -114.54955 C -1154.6069 -114.37719 -1155.0888 -114.18102 -1155.5602 -113.96173 L -1162.407 -110.77718 C -1163.1032 -110.45338 -1163.8217 -110.18012 -1164.5571 -109.9595 L -1175.4275 -106.69838 C -1175.4443 -106.69336 -1175.461 -106.68832 -1175.4777 -106.68325 L -1186.4458 -103.35365 C -1186.5837 -103.31179 -1186.721 -103.26807 -1186.8577 -103.2225 L -1199.779 -98.91542 C -1199.828 -98.89904 -1199.8773 -98.88291 -1199.9265 -98.86701 L -1211.294 -95.20011 C -1211.9324 -94.99414 -1212.5573 -94.74823 -1213.165 -94.46381 L -1221.0969 -90.75098 C -1221.4672 -90.57763 -1221.8308 -90.39014 -1222.1868 -90.18894 L -1228.1329 -86.82809 C -1229.3859 -86.11985 -1229.8276 -84.52993 -1229.1193 -83.2769 C -1229.0422 -83.14046 -1228.953 -83.01125 -1228.8526 -82.89086 L -1227.9885 -81.85392 C -1227.2336 -80.94799 -1226.5811 -79.96137 -1226.043 -78.91204 L -1222.9658 -72.91162 C -1222.8904 -72.76445 -1222.8126 -72.61846 -1222.7326 -72.47371 L -1218.7779 -65.31749 C -1218.6944 -65.16641 -1218.6133 -65.01399 -1218.5348 -64.86029 L -1214.4265 -56.8223 C -1214.1774 -56.33499 -1213.9535 -55.835223 -1213.7556 -55.32497 L -1210.2729 -46.34309 C -1210.2594 -46.308267 -1210.2457 -46.27349 -1210.232 -46.23876 L -1206.6357 -37.153315 C -1206.5137 -36.845082 -1206.4013 -36.533132 -1206.2986 -36.217917 L -1203.6768 -28.16514 C -1203.6607 -28.115616 -1203.6448 -28.066015 -1203.6292 -28.016337 L -1200.5571 -18.258066 C -1200.3543 -17.613904 -1200.1925 -16.95755 -1200.0727 -16.29294 L -1198.0874 -5.2834835 C -1198.0642 -5.1550686 -1198.0426 -5.026375 -1198.0226 -4.8974323 L -1196.3167 6.0959495 C -1196.274 6.371367 -1196.2385 6.647854 -1196.2102 6.925128 L -1195.3227 15.621843 C -1195.276 16.079832 -1195.249 16.539624 -1195.242 16.999937 L -1195.0577 28.97556 C -1195.0543 29.197926 -1195.0463 29.4202 -1195.0336 29.64223 L -1194.2632 43.12379 C -1194.2561 43.24736 -1194.2477 43.370837 -1194.2377 43.494205 L -1192.9042 60.06858 C -1192.8698 60.49545 -1192.8526 60.92353 -1192.8526 61.35179 L -1192.8526 73.80157 C -1192.8526 74.0066 -1192.8487 74.21162 -1192.8408 74.4165 L -1192.2604 89.50564 C -1192.2552 89.6413 -1192.2517 89.77703 -1192.25 89.91279 L -1192.0578 104.70905 C -1192.0543 104.97574 -1192.0576 105.24248 -1192.0674 105.50901 L -1192.6417 121.01316 C -1192.649 121.21047 -1192.6526 121.4079 -1192.6526 121.60534 L -1192.6526 135.20157 C -1192.6526 135.4066 -1192.6566 135.61162 -1192.6644 135.8165 L -1193.2496 151.0315 C -1193.2516 151.08327 -1193.2539 151.13502 -1193.2564 151.18676 L -1194.0517 167.6897 C -1194.0523 167.70266 -1194.053 167.71563 -1194.0536 167.7286 L -1194.8481 183.41976 C -1194.8511 183.47935 -1194.8545 183.53893 -1194.8581 183.59848 L -1196.047 202.8192 C -1196.0508 202.87917 -1196.0548 202.9391 -1196.0592 202.99902 L -1197.8423 227.36857 C -1197.8492 227.4623 -1197.8569 227.55594 -1197.8654 227.64953 L -1199.6513 247.29434 C -1199.6522 247.3042 -1199.6531 247.31409 -1199.654 247.32396 L -1201.4248 266.40886 C -1201.4433 266.60904 -1201.4657 266.80884 -1201.4918 267.00818 L -1203.4525 281.9809 C -1203.5853 282.9951 -1203.8544 283.9867 -1204.2526 284.92888 L -1204.2526 284.92888 C -1204.6502 285.86962 -1204.8989 286.86654 -1204.9897 287.8838 L -1205.7526 296.42888 C -1206.2604 302.1159 -1202.3019 307.23427 -1196.67 308.17293 Z" stroke="#7f8080" stroke-linecap="round" stroke-linejoin="round" stroke-width="1"/>
      <path d="M -1284 21.446146 L -1277.8 25.846146 L -1269.6 29.846146 L -1261 33.446146 L -1252 37.246146 L -1241 41.246146 L -1231.6 44.046146 L -1222.6 46.646146 L -1213.6 49.246146 L -1208.2 50.646146 L -1202.6 51.646146 L -1200.2 45.846146 L -1197.6 40.446146 L -1195.4 36.446146 L -1192.8 33.046146 L -1192.6 24.046146 L -1193.2 13.046145 L -1195 2.2461453 L -1196.6 -8.153855 L -1199.2 -19.153855 L -1201.6 -28.753855 L -1204.4 -36.753855 L -1207.6 -46.153855 L -1210.4 -53.553856 L -1214 -61.153856 L -1218 -68.753856 L -1222 -76.15386 L -1224.6 -79.75386 L -1228.2 -85.55386 L -1233.6 -81.15386 L -1238.4 -76.35386 L -1243 -70.153856 L -1247.4 -63.953856 L -1252.2 -55.353856 L -1257 -45.953855 L -1261.8 -36.753855 L -1265.4 -28.153855 L -1269.4 -19.153855 L -1272.6 -10.953855 L -1276.4 -1.5538548 L -1279.2 6.446145 L -1282.2 14.846145 Z" fill="#c6b00a"/>
      <path d="M -1284 21.446146 L -1277.8 25.846146 L -1269.6 29.846146 L -1261 33.446146 L -1252 37.246146 L -1241 41.246146 L -1231.6 44.046146 L -1222.6 46.646146 L -1213.6 49.246146 L -1208.2 50.646146 L -1202.6 51.646146 L -1200.2 45.846146 L -1197.6 40.446146 L -1195.4 36.446146 L -1192.8 33.046146 L -1192.6 24.046146 L -1193.2 13.046145 L -1195 2.2461453 L -1196.6 -8.153855 L -1199.2 -19.153855 L -1201.6 -28.753855 L -1204.4 -36.753855 L -1207.6 -46.153855 L -1210.4 -53.553856 L -1214 -61.153856 L -1218 -68.753856 L -1222 -76.15386 L -1224.6 -79.75386 L -1228.2 -85.55386 L -1233.6 -81.15386 L -1238.4 -76.35386 L -1243 -70.153856 L -1247.4 -63.953856 L -1252.2 -55.353856 L -1257 -45.953855 L -1261.8 -36.753855 L -1265.4 -28.153855 L -1269.4 -19.153855 L -1272.6 -10.953855 L -1276.4 -1.5538548 L -1279.2 6.446145 L -1282.2 14.846145 Z" stroke="#7f8080" stroke-linecap="round" stroke-linejoin="round" stroke-width="1"/>
      <path d="M -852.5947 20.50275 L -858.7947 24.90275 L -866.9947 28.90275 L -875.5947 32.50275 L -884.5947 36.30275 L -895.5947 40.30275 L -904.9947 43.10275 L -913.9947 45.70275 L -922.9947 48.30275 L -928.3947 49.70275 L -933.9947 50.70275 L -936.3947 44.90275 L -938.9947 39.50275 L -941.1947 35.50275 L -943.7947 32.10275 L -943.9947 23.10275 L -943.3947 12.102749 L -941.5947 1.3027491 L -939.9947 -9.097251 L -937.3947 -20.097251 L -934.9947 -29.69725 L -932.1947 -37.69725 L -928.9947 -47.09725 L -926.1947 -54.49725 L -922.5947 -62.09725 L -918.5947 -69.69725 L -914.5947 -77.09725 L -911.9947 -80.69725 L -908.3947 -86.49725 L -902.9947 -82.09725 L -898.1947 -77.29725 L -893.5947 -71.09725 L -889.1947 -64.89725 L -884.3947 -56.29725 L -879.5947 -46.89725 L -874.7947 -37.69725 L -871.1947 -29.09725 L -867.1947 -20.097251 L -863.9947 -11.897251 L -860.1947 -2.497251 L -857.3947 5.502749 L -854.3947 13.90275 Z" fill="#d1bc1d"/>
      <path d="M -852.5947 20.50275 L -858.7947 24.90275 L -866.9947 28.90275 L -875.5947 32.50275 L -884.5947 36.30275 L -895.5947 40.30275 L -904.9947 43.10275 L -913.9947 45.70275 L -922.9947 48.30275 L -928.3947 49.70275 L -933.9947 50.70275 L -936.3947 44.90275 L -938.9947 39.50275 L -941.1947 35.50275 L -943.7947 32.10275 L -943.9947 23.10275 L -943.3947 12.102749 L -941.5947 1.3027491 L -939.9947 -9.097251 L -937.3947 -20.097251 L -934.9947 -29.69725 L -932.1947 -37.69725 L -928.9947 -47.09725 L -926.1947 -54.49725 L -922.5947 -62.09725 L -918.5947 -69.69725 L -914.5947 -77.09725 L -911.9947 -80.69725 L -908.3947 -86.49725 L -902.9947 -82.09725 L -898.1947 -77.29725 L -893.5947 -71.09725 L -889.1947 -64.89725 L -884.3947 -56.29725 L -879.5947 -46.89725 L -874.7947 -37.69725 L -871.1947 -29.09725 L -867.1947 -20.097251 L -863.9947 -11.897251 L -860.1947 -2.497251 L -857.3947 5.502749 L -854.3947 13.90275 Z" stroke="#7f8080" stroke-linecap="round" stroke-linejoin="round" stroke-width="1"/>
      <path d="M -1284 21.446146 L -1277.8 25.846146 L -1269.6 29.846146 L -1261 33.446146 L -1252 37.246146 L -1241 41.246146 L -1231.6 44.046146 L -1222.6 46.646146 L -1213.6 49.246146 L -1208.2 50.646146 L -1202.6 51.646146 L -1199.6 45.246146 L -1203.4 44.446146 L -1208.2 43.246146 L -1213.8 42.046146 L -1219.8 40.246146 L -1224.4 38.846146 L -1228.6 37.646146 L -1233.2 35.646146 L -1237.8 34.046146 L -1242.6 32.046146 L -1246.6 30.646146 L -1251.8 28.446146 L -1256.4 26.846146 L -1261.2 24.646146 L -1266 22.846146 L -1270 20.846146 L -1274.4 18.646146 L -1278.8 16.446146 L -1282.2 14.846145 Z" fill="url(#Obj_Gradient_2)"/>
      <path d="M -1284 21.446146 L -1277.8 25.846146 L -1269.6 29.846146 L -1261 33.446146 L -1252 37.246146 L -1241 41.246146 L -1231.6 44.046146 L -1222.6 46.646146 L -1213.6 49.246146 L -1208.2 50.646146 L -1202.6 51.646146 L -1199.6 45.246146 L -1203.4 44.446146 L -1208.2 43.246146 L -1213.8 42.046146 L -1219.8 40.246146 L -1224.4 38.846146 L -1228.6 37.646146 L -1233.2 35.646146 L -1237.8 34.046146 L -1242.6 32.046146 L -1246.6 30.646146 L -1251.8 28.446146 L -1256.4 26.846146 L -1261.2 24.646146 L -1266 22.846146 L -1270 20.846146 L -1274.4 18.646146 L -1278.8 16.446146 L -1282.2 14.846145 Z" stroke="#7f8080" stroke-linecap="round" stroke-linejoin="round" stroke-width="1"/>
      <path d="M -852.5947 20.50275 L -858.7947 24.90275 L -866.9947 28.90275 L -875.5947 32.50275 L -884.5947 36.30275 L -895.5947 40.30275 L -904.9947 43.10275 L -913.9947 45.70275 L -922.9947 48.30275 L -928.3947 49.70275 L -933.9947 50.70275 L -936.9947 44.30275 L -933.1947 43.50275 L -928.3947 42.30275 L -922.7947 41.10275 L -916.7947 39.30275 L -912.1947 37.90275 L -907.9947 36.70275 L -903.3947 34.70275 L -898.7947 33.10275 L -893.9947 31.10275 L -889.9947 29.70275 L -884.7947 27.50275 L -880.1947 25.90275 L -875.3947 23.70275 L -870.5947 21.90275 L -866.5947 19.90275 L -862.1947 17.70275 L -857.7947 15.50275 L -854.3947 13.90275 Z" fill="url(#Obj_Gradient_3)"/>
      <path d="M -852.5947 20.50275 L -858.7947 24.90275 L -866.9947 28.90275 L -875.5947 32.50275 L -884.5947 36.30275 L -895.5947 40.30275 L -904.9947 43.10275 L -913.9947 45.70275 L -922.9947 48.30275 L -928.3947 49.70275 L -933.9947 50.70275 L -936.9947 44.30275 L -933.1947 43.50275 L -928.3947 42.30275 L -922.7947 41.10275 L -916.7947 39.30275 L -912.1947 37.90275 L -907.9947 36.70275 L -903.3947 34.70275 L -898.7947 33.10275 L -893.9947 31.10275 L -889.9947 29.70275 L -884.7947 27.50275 L -880.1947 25.90275 L -875.3947 23.70275 L -870.5947 21.90275 L -866.5947 19.90275 L -862.1947 17.70275 L -857.7947 15.50275 L -854.3947 13.90275 Z" stroke="#7f8080" stroke-linecap="round" stroke-linejoin="round" stroke-width="1"/>
      <path d="M -1133.4279 -128.03621 L -1138.157 -123.98264 C -1139.3074 -122.99662 -1140.5524 -122.12669 -1141.8738 -121.38552 L -1144.4004 -119.96835 C -1145.8356 -119.16338 -1146.4164 -117.39425 -1145.7376 -115.89527 L -1144.72 -113.64803 C -1144.5984 -113.37954 -1144.4717 -113.11342 -1144.3399 -112.8498 L -1142.5376 -109.24526 L -1140.0506 -104.27129 C -1139.7088 -103.5877 -1139.3332 -102.92157 -1138.925 -102.27537 L -1136.5987 -98.59192 C -1136.1583 -97.89465 -1135.6807 -97.22158 -1135.168 -96.57561 L -1131.7574 -92.27815 C -1131.2113 -91.59013 -1130.6263 -90.93394 -1130.0052 -90.31283 L -1125.3391 -85.64679 C -1124.9383 -85.24591 -1124.5227 -84.85999 -1124.0933 -84.48982 L -1119.5298 -80.55574 C -1119.1351 -80.21552 -1118.729 -79.88881 -1118.3122 -79.57617 L -1114.3372 -76.59497 C -1113.6713 -76.09553 -1112.9788 -75.63262 -1112.2627 -75.20826 L -1108.1296 -72.75904 C -1108.0016 -72.68319 -1107.8729 -72.60859 -1107.7434 -72.535235 L -1103.0459 -69.87329 C -1102.3076 -69.45493 -1101.5467 -69.07774 -1100.7667 -68.74347 L -1097.2169 -67.22212 C -1096.631 -66.97099 -1096.0348 -66.744334 -1095.43 -66.54274 L -1090.4119 -64.870034 C -1089.1647 -64.454286 -1087.8841 -64.146244 -1086.5842 -63.94929 L -1082.4854 -63.328256 C -1082.1202 -63.272936 -1081.7539 -63.22642 -1081.3865 -63.18874 L -1074.5054 -62.482985 C -1074.2602 -62.45784 -1074.0147 -62.436636 -1073.7688 -62.41938 L -1069.2417 -62.10169 C -1068.7058 -62.064085 -1068.1688 -62.045266 -1067.6316 -62.045266 L -1064.3695 -62.045264 C -1063.4158 -62.045264 -1062.4631 -62.10458 -1061.5167 -62.22287 L -1057.528 -62.72146 C -1056.868 -62.80396 -1056.212 -62.91504 -1055.5616 -63.0544 L -1049.4796 -64.35769 C -1048.5857 -64.549236 -1047.7041 -64.7939 -1046.8393 -65.09039 L -1042.3305 -66.63628 C -1041.5358 -66.90873 -1040.7567 -67.22451 -1039.9966 -67.58221 L -1035.1632 -69.85674 C -1034.613 -70.11565 -1034.0733 -70.39629 -1033.5454 -70.697975 L -1029.7775 -72.85104 C -1029.0847 -73.24692 -1028.413 -73.678585 -1027.7651 -74.14428 L -1023.0889 -77.50525 C -1022.5883 -77.86511 -1022.1022 -78.24497 -1021.6321 -78.64389 L -1016.3112 -83.15856 C -1015.9289 -83.48294 -1015.5573 -83.81974 -1015.197 -84.16842 L -1010.4978 -88.71604 C -1009.8582 -89.335 -1009.2551 -89.99056 -1008.6915 -90.67942 L -1004.8982 -95.31566 C -1004.3915 -95.93497 -1003.9174 -96.58031 -1003.478 -97.24904 L -999.8608 -102.75344 C -999.6454 -103.08127 -999.4384 -103.41456 -999.24 -103.75298 L -996.7169 -108.05708 C -996.3309 -108.71546 -995.978 -109.39265 -995.6594 -110.08612 L -993.5407 -114.69739 C -993.0078 -115.85715 -992.6367 -117.08456 -992.4376 -118.34526 L -992.4376 -118.34526 C -992.2593 -119.47453 -992.8386 -120.58797 -993.8657 -121.0901 L -999.1591 -123.678 C -1000.4736 -124.32063 -1001.7082 -125.11514 -1002.8376 -126.04526 L -1003.2436 -126.37963 C -1004.088 -127.07496 -1004.7114 -128.00126 -1005.0376 -129.04526 L -1005.0376 -129.04526 C -1005.0843 -129.19458 -1005.2431 -129.2778 -1005.3925 -129.23114 C -1005.5075 -129.19518 -1005.5872 -129.09031 -1005.5911 -128.96981 L -1005.7003 -125.54689 C -1005.7911 -122.70381 -1006.4084 -119.90224 -1007.521 -117.28433 L -1008.398 -115.22096 C -1008.9565 -113.90669 -1009.6363 -112.64729 -1010.4284 -111.45909 L -1014.1142 -105.93042 C -1014.8617 -104.80915 -1015.7063 -103.75575 -1016.6382 -102.78238 L -1022.9333 -96.20753 C -1023.8014 -95.30087 -1024.7422 -94.4668 -1025.7464 -93.71367 L -1034.1213 -87.43249 C -1034.9977 -86.77518 -1035.92 -86.18133 -1036.881 -85.65546 L -1044.0662 -81.72394 C -1045.3774 -81.00653 -1046.7553 -80.41863 -1048.1805 -79.96857 L -1054.8534 -77.86133 C -1056.5703 -77.31916 -1058.3449 -76.98046 -1060.1407 -76.852185 L -1067.0272 -76.3603 C -1068.0995 -76.2837 -1069.1758 -76.28238 -1070.2483 -76.35635 L -1078.6846 -76.93816 C -1079.7187 -77.00948 -1080.7469 -77.15064 -1081.762 -77.36067 L -1088.8973 -78.83692 C -1090.8492 -79.24077 -1092.7404 -79.89665 -1094.5232 -80.78808 L -1099.1827 -83.11779 C -1100.4168 -83.73485 -1101.5929 -84.46173 -1102.6967 -85.28961 L -1108.3787 -89.55108 C -1108.8178 -89.88043 -1109.245 -90.2254 -1109.6595 -90.58532 L -1115.4147 -95.58324 C -1116.229 -96.29038 -1116.9925 -97.05392 -1117.6996 -97.86821 L -1122.1049 -102.94089 C -1122.859 -103.80925 -1123.5469 -104.73295 -1124.1628 -105.70422 L -1127.8965 -111.59198 C -1128.2571 -112.16056 -1128.5925 -112.7447 -1128.9018 -113.34272 L -1130.5222 -116.47544 C -1131.1313 -117.65312 -1131.6375 -118.88126 -1132.035 -120.14615 L -1133.3153 -124.21964 C -1133.53 -124.90302 -1133.7128 -125.59605 -1133.8629 -126.29649 L -1134.0883 -127.34843 C -1134.1734 -127.74544 -1133.947 -128.1431 -1133.5622 -128.27263 L -1133.5622 -128.27263 C -1133.4897 -128.29704 -1133.4112 -128.25805 -1133.3868 -128.18556 C -1133.3687 -128.13205 -1133.385 -128.07296 -1133.4279 -128.03621 Z" fill="url(#Obj_Gradient_4)"/>
      <path d="M -1133.4279 -128.03621 L -1138.157 -123.98264 C -1139.3074 -122.99662 -1140.5524 -122.12669 -1141.8738 -121.38552 L -1144.4004 -119.96835 C -1145.8356 -119.16338 -1146.4164 -117.39425 -1145.7376 -115.89527 L -1144.72 -113.64803 C -1144.5984 -113.37954 -1144.4717 -113.11342 -1144.3399 -112.8498 L -1142.5376 -109.24526 L -1140.0506 -104.27129 C -1139.7088 -103.5877 -1139.3332 -102.92157 -1138.925 -102.27537 L -1136.5987 -98.59192 C -1136.1583 -97.89465 -1135.6807 -97.22158 -1135.168 -96.57561 L -1131.7574 -92.27815 C -1131.2113 -91.59013 -1130.6263 -90.93394 -1130.0052 -90.31283 L -1125.3391 -85.64679 C -1124.9383 -85.24591 -1124.5227 -84.85999 -1124.0933 -84.48982 L -1119.5298 -80.55574 C -1119.1351 -80.21552 -1118.729 -79.88881 -1118.3122 -79.57617 L -1114.3372 -76.59497 C -1113.6713 -76.09553 -1112.9788 -75.63262 -1112.2627 -75.20826 L -1108.1296 -72.75904 C -1108.0016 -72.68319 -1107.8729 -72.60859 -1107.7434 -72.535235 L -1103.0459 -69.87329 C -1102.3076 -69.45493 -1101.5467 -69.07774 -1100.7667 -68.74347 L -1097.2169 -67.22212 C -1096.631 -66.97099 -1096.0348 -66.744334 -1095.43 -66.54274 L -1090.4119 -64.870034 C -1089.1647 -64.454286 -1087.8841 -64.146244 -1086.5842 -63.94929 L -1082.4854 -63.328256 C -1082.1202 -63.272936 -1081.7539 -63.22642 -1081.3865 -63.18874 L -1074.5054 -62.482985 C -1074.2602 -62.45784 -1074.0147 -62.436636 -1073.7688 -62.41938 L -1069.2417 -62.10169 C -1068.7058 -62.064085 -1068.1688 -62.045266 -1067.6316 -62.045266 L -1064.3695 -62.045264 C -1063.4158 -62.045264 -1062.4631 -62.10458 -1061.5167 -62.22287 L -1057.528 -62.72146 C -1056.868 -62.80396 -1056.212 -62.91504 -1055.5616 -63.0544 L -1049.4796 -64.35769 C -1048.5857 -64.549236 -1047.7041 -64.7939 -1046.8393 -65.09039 L -1042.3305 -66.63628 C -1041.5358 -66.90873 -1040.7567 -67.22451 -1039.9966 -67.58221 L -1035.1632 -69.85674 C -1034.613 -70.11565 -1034.0733 -70.39629 -1033.5454 -70.697975 L -1029.7775 -72.85104 C -1029.0847 -73.24692 -1028.413 -73.678585 -1027.7651 -74.14428 L -1023.0889 -77.50525 C -1022.5883 -77.86511 -1022.1022 -78.24497 -1021.6321 -78.64389 L -1016.3112 -83.15856 C -1015.9289 -83.48294 -1015.5573 -83.81974 -1015.197 -84.16842 L -1010.4978 -88.71604 C -1009.8582 -89.335 -1009.2551 -89.99056 -1008.6915 -90.67942 L -1004.8982 -95.31566 C -1004.3915 -95.93497 -1003.9174 -96.58031 -1003.478 -97.24904 L -999.8608 -102.75344 C -999.6454 -103.08127 -999.4384 -103.41456 -999.24 -103.75298 L -996.7169 -108.05708 C -996.3309 -108.71546 -995.978 -109.39265 -995.6594 -110.08612 L -993.5407 -114.69739 C -993.0078 -115.85715 -992.6367 -117.08456 -992.4376 -118.34526 L -992.4376 -118.34526 C -992.2593 -119.47453 -992.8386 -120.58797 -993.8657 -121.0901 L -999.1591 -123.678 C -1000.4736 -124.32063 -1001.7082 -125.11514 -1002.8376 -126.04526 L -1003.2436 -126.37963 C -1004.088 -127.07496 -1004.7114 -128.00126 -1005.0376 -129.04526 L -1005.0376 -129.04526 C -1005.0843 -129.19458 -1005.2431 -129.2778 -1005.3925 -129.23114 C -1005.5075 -129.19518 -1005.5872 -129.09031 -1005.5911 -128.96981 L -1005.7003 -125.54689 C -1005.7911 -122.70381 -1006.4084 -119.90224 -1007.521 -117.28433 L -1008.398 -115.22096 C -1008.9565 -113.90669 -1009.6363 -112.64729 -1010.4284 -111.45909 L -1014.1142 -105.93042 C -1014.8617 -104.80915 -1015.7063 -103.75575 -1016.6382 -102.78238 L -1022.9333 -96.20753 C -1023.8014 -95.30087 -1024.7422 -94.4668 -1025.7464 -93.71367 L -1034.1213 -87.43249 C -1034.9977 -86.77518 -1035.92 -86.18133 -1036.881 -85.65546 L -1044.0662 -81.72394 C -1045.3774 -81.00653 -1046.7553 -80.41863 -1048.1805 -79.96857 L -1054.8534 -77.86133 C -1056.5703 -77.31916 -1058.3449 -76.98046 -1060.1407 -76.852185 L -1067.0272 -76.3603 C -1068.0995 -76.2837 -1069.1758 -76.28238 -1070.2483 -76.35635 L -1078.6846 -76.93816 C -1079.7187 -77.00948 -1080.7469 -77.15064 -1081.762 -77.36067 L -1088.8973 -78.83692 C -1090.8492 -79.24077 -1092.7404 -79.89665 -1094.5232 -80.78808 L -1099.1827 -83.11779 C -1100.4168 -83.73485 -1101.5929 -84.46173 -1102.6967 -85.28961 L -1108.3787 -89.55108 C -1108.8178 -89.88043 -1109.245 -90.2254 -1109.6595 -90.58532 L -1115.4147 -95.58324 C -1116.229 -96.29038 -1116.9925 -97.05392 -1117.6996 -97.86821 L -1122.1049 -102.94089 C -1122.859 -103.80925 -1123.5469 -104.73295 -1124.1628 -105.70422 L -1127.8965 -111.59198 C -1128.2571 -112.16056 -1128.5925 -112.7447 -1128.9018 -113.34272 L -1130.5222 -116.47544 C -1131.1313 -117.65312 -1131.6375 -118.88126 -1132.035 -120.14615 L -1133.3153 -124.21964 C -1133.53 -124.90302 -1133.7128 -125.59605 -1133.8629 -126.29649 L -1134.0883 -127.34843 C -1134.1734 -127.74544 -1133.947 -128.1431 -1133.5622 -128.27263 L -1133.5622 -128.27263 C -1133.4897 -128.29704 -1133.4112 -128.25805 -1133.3868 -128.18556 C -1133.3687 -128.13205 -1133.385 -128.07296 -1133.4279 -128.03621 Z" stroke="#7f8080" stroke-linecap="round" stroke-linejoin="round" stroke-width="1"/>
      <path d="M -1133.9408 -128.24411 L -1128.5408 -128.8441 L -1121.7408 -125.44411 L -1116.7408 -123.64411 L -1108.3408 -121.84411 L -1099.9408 -120.84411 L -1091.9408 -119.84411 L -1084.3408 -119.64411 L -1075.7408 -119.24411 L -1064.1408 -119.44411 L -1055.7408 -119.84411 L -1046.3408 -120.44411 L -1037.9408 -121.24411 L -1028.7408 -122.64411 L -1020.5408 -124.84411 L -1014.7408 -126.64411 L -1009.1408 -129.2441 L -1006.3408 -128.04411 L -1005.9408 -122.44411 L -1008.7408 -114.44411 L -1014.1408 -111.64411 L -1024.7408 -108.44411 L -1036.1408 -106.04411 L -1047.3408 -105.24411 L -1059.7408 -104.24411 L -1070.1408 -104.24411 L -1079.5408 -104.24411 L -1091.1408 -104.84411 L -1102.3408 -105.64411 L -1112.9408 -107.84411 L -1121.5408 -109.84411 L -1127.7408 -112.64411 L -1129.7408 -114.24411 L -1132.9408 -121.84411 Z" fill="url(#Obj_Gradient_5)"/>
      <path d="M -1133.9408 -128.24411 L -1128.5408 -128.8441 L -1121.7408 -125.44411 L -1116.7408 -123.64411 L -1108.3408 -121.84411 L -1099.9408 -120.84411 L -1091.9408 -119.84411 L -1084.3408 -119.64411 L -1075.7408 -119.24411 L -1064.1408 -119.44411 L -1055.7408 -119.84411 L -1046.3408 -120.44411 L -1037.9408 -121.24411 L -1028.7408 -122.64411 L -1020.5408 -124.84411 L -1014.7408 -126.64411 L -1009.1408 -129.2441 L -1006.3408 -128.04411 L -1005.9408 -122.44411 L -1008.7408 -114.44411 L -1014.1408 -111.64411 L -1024.7408 -108.44411 L -1036.1408 -106.04411 L -1047.3408 -105.24411 L -1059.7408 -104.24411 L -1070.1408 -104.24411 L -1079.5408 -104.24411 L -1091.1408 -104.84411 L -1102.3408 -105.64411 L -1112.9408 -107.84411 L -1121.5408 -109.84411 L -1127.7408 -112.64411 L -1129.7408 -114.24411 L -1132.9408 -121.84411 Z" stroke="#7f8080" stroke-linecap="round" stroke-linejoin="round" stroke-width="1"/>
      <path d="M -1204.1868 297.2 L -1204.1868 297.2 C -1204.2525 297.7255 -1204.1896 298.25905 -1204.0037 298.7549 L -1203.3527 300.49092 C -1203.176 300.96227 -1202.9489 301.41318 -1202.6754 301.83582 L -1201.7076 303.33153 C -1201.1666 304.16756 -1200.4535 304.87855 -1199.6159 305.41702 L -1198.5378 306.11005 C -1198.2376 306.30307 -1197.923 306.47285 -1197.5968 306.6179 L -1196.28 307.2035 C -1195.6835 307.46876 -1195.0528 307.64928 -1194.4062 307.7398 L -1185.3958 309.00126 C -1185.3858 309.00265 -1185.3758 309.00403 -1185.3658 309.0054 L -1173.6498 310.594 C -1173.6038 310.60024 -1173.5577 310.606 -1173.5116 310.61134 L -1163.2287 311.79783 C -1163.1968 311.8015 -1163.1648 311.80498 -1163.1328 311.80822 L -1149.4228 313.1991 C -1149.3948 313.20193 -1149.3668 313.2046 -1149.3388 313.2071 L -1138.2335 314.19865 C -1138.1984 314.2018 -1138.1632 314.20466 -1138.128 314.20726 L -1127.4415 314.99886 C -1127.401 315.00185 -1127.3605 315.0045 -1127.32 315.0068 L -1116.812 315.6016 C -1116.7912 315.60276 -1116.7704 315.60404 -1116.7496 315.6054 L -1104.7068 316.3951 C -1104.6228 316.4006 -1104.5387 316.4046 -1104.4546 316.40707 L -1091.0074 316.80257 C -1090.9897 316.8031 -1090.9719 316.8037 -1090.9542 316.80434 L -1080.3103 317.19856 C -1080.224 317.20176 -1080.1376 317.20335 -1080.0512 317.20335 L -1069.4422 317.20335 C -1069.4013 317.20335 -1069.3603 317.2037 -1069.3194 317.20443 L -1058.233 317.39893 C -1058.0649 317.40188 -1057.8968 317.39877 -1057.729 317.3896 L -1047.1077 316.81028 C -1047.0231 316.80566 -1046.9384 316.8026 -1046.8537 316.80104 L -1036.0891 316.60532 C -1036.0169 316.604 -1035.9447 316.60158 -1035.8726 316.59803 L -1023.8539 316.00695 C -1023.8052 316.00455 -1023.7564 316.00165 -1023.7078 315.99823 L -1012.4677 315.20945 C -1012.4098 315.2054 -1012.3519 315.2006 -1012.2941 315.1951 L -999.8835 314.01313 C -999.815 314.0066 -999.7465 314.0011 -999.6779 313.9966 L -987.7458 313.21418 C -987.6358 313.20696 -987.526 313.19715 -987.4164 313.18475 L -977.0041 312.006 C -976.9886 312.00423 -976.973 312.00242 -976.9575 312.00056 L -967.0098 310.80683 C -966.9905 310.8045 -966.9711 310.8021 -966.9518 310.79963 L -953.1161 309.0221 C -953.0188 309.0096 -952.9219 308.99507 -952.8253 308.9785 L -946.2718 307.85506 C -946.0708 307.8206 -945.8685 307.79495 -945.6653 307.77817 L -942.4329 307.5112 C -941.5437 307.43775 -940.6767 307.19497 -939.8786 306.79594 L -938.3924 306.0528 C -937.7918 305.7525 -937.2375 305.36735 -936.7466 304.9092 L -935.4115 303.66308 C -934.8047 303.0967 -934.3493 302.38747 -934.0868 301.6 L -933.792 300.71552 C -933.7219 300.5053 -933.6618 300.29187 -933.612 300.07595 L -933.1423 298.04056 C -933.1071 297.88792 -933.1405 297.72752 -933.2338 297.60168 L -933.2338 297.60168 C -933.3241 297.4798 -933.4748 297.4183 -933.6246 297.44214 L -942.1045 298.7912 C -942.1553 298.7993 -942.2061 298.80796 -942.2568 298.81718 L -955.2416 301.17805 C -955.3344 301.1949 -955.4275 301.2099 -955.5209 301.223 L -966.7506 302.7991 C -966.7707 302.80194 -966.7909 302.80486 -966.811 302.80786 L -979.9336 304.76645 C -980.0983 304.79105 -980.2639 304.80975 -980.43 304.82253 L -993.1548 305.80136 C -993.1721 305.8027 -993.1895 305.80396 -993.2068 305.80516 L -1007.5469 306.801 C -1007.5695 306.80257 -1007.5921 306.80403 -1007.6147 306.80538 L -1020.918 307.5996 C -1020.9598 307.6021 -1021.0018 307.60423 -1021.0437 307.60597 L -1035.2352 308.1973 C -1035.3322 308.20133 -1035.4294 308.20335 -1035.5266 308.20335 L -1048.7808 308.20335 L -1061.3225 308.20335 C -1061.3614 308.20335 -1061.4002 308.20368 -1061.4391 308.20433 L -1073.1975 308.4003 C -1073.3197 308.40234 -1073.4419 308.40117 -1073.564 308.3968 L -1084.3976 308.0099 C -1084.5197 308.00554 -1084.6419 308.00437 -1084.7641 308.0064 L -1096.4787 308.20165 C -1096.5468 308.2028 -1096.6148 308.20293 -1096.6829 308.20208 L -1112.3852 308.0058 C -1112.5156 308.00417 -1112.6459 307.9989 -1112.776 307.99 L -1127.0858 307.00986 C -1127.1491 307.00552 -1127.2124 307.00032 -1127.2756 306.99426 L -1141.7666 305.6047 C -1141.7761 305.6038 -1141.7855 305.60288 -1141.795 305.60194 L -1155.607 304.22073 C -1155.7228 304.20915 -1155.8384 304.19468 -1155.9535 304.17733 L -1170.2627 302.02116 C -1170.3414 302.0093 -1170.4204 301.99877 -1170.4995 301.9896 L -1184.0194 300.42207 C -1184.127 300.4096 -1184.2343 300.39463 -1184.3411 300.37718 L -1193.7332 298.84377 C -1193.8982 298.81684 -1194.0622 298.784 -1194.2248 298.7453 L -1203.3024 296.58654 C -1203.6908 296.4942 -1204.0804 296.73412 -1204.1728 297.12244 C -1204.1788 297.14802 -1204.1835 297.1739 -1204.1868 297.2 Z" fill="url(#Obj_Gradient_6)"/>
      <path d="M -1204.1868 297.2 L -1204.1868 297.2 C -1204.2525 297.7255 -1204.1896 298.25905 -1204.0037 298.7549 L -1203.3527 300.49092 C -1203.176 300.96227 -1202.9489 301.41318 -1202.6754 301.83582 L -1201.7076 303.33153 C -1201.1666 304.16756 -1200.4535 304.87855 -1199.6159 305.41702 L -1198.5378 306.11005 C -1198.2376 306.30307 -1197.923 306.47285 -1197.5968 306.6179 L -1196.28 307.2035 C -1195.6835 307.46876 -1195.0528 307.64928 -1194.4062 307.7398 L -1185.3958 309.00126 C -1185.3858 309.00265 -1185.3758 309.00403 -1185.3658 309.0054 L -1173.6498 310.594 C -1173.6038 310.60024 -1173.5577 310.606 -1173.5116 310.61134 L -1163.2287 311.79783 C -1163.1968 311.8015 -1163.1648 311.80498 -1163.1328 311.80822 L -1149.4228 313.1991 C -1149.3948 313.20193 -1149.3668 313.2046 -1149.3388 313.2071 L -1138.2335 314.19865 C -1138.1984 314.2018 -1138.1632 314.20466 -1138.128 314.20726 L -1127.4415 314.99886 C -1127.401 315.00185 -1127.3605 315.0045 -1127.32 315.0068 L -1116.812 315.6016 C -1116.7912 315.60276 -1116.7704 315.60404 -1116.7496 315.6054 L -1104.7068 316.3951 C -1104.6228 316.4006 -1104.5387 316.4046 -1104.4546 316.40707 L -1091.0074 316.80257 C -1090.9897 316.8031 -1090.9719 316.8037 -1090.9542 316.80434 L -1080.3103 317.19856 C -1080.224 317.20176 -1080.1376 317.20335 -1080.0512 317.20335 L -1069.4422 317.20335 C -1069.4013 317.20335 -1069.3603 317.2037 -1069.3194 317.20443 L -1058.233 317.39893 C -1058.0649 317.40188 -1057.8968 317.39877 -1057.729 317.3896 L -1047.1077 316.81028 C -1047.0231 316.80566 -1046.9384 316.8026 -1046.8537 316.80104 L -1036.0891 316.60532 C -1036.0169 316.604 -1035.9447 316.60158 -1035.8726 316.59803 L -1023.8539 316.00695 C -1023.8052 316.00455 -1023.7564 316.00165 -1023.7078 315.99823 L -1012.4677 315.20945 C -1012.4098 315.2054 -1012.3519 315.2006 -1012.2941 315.1951 L -999.8835 314.01313 C -999.815 314.0066 -999.7465 314.0011 -999.6779 313.9966 L -987.7458 313.21418 C -987.6358 313.20696 -987.526 313.19715 -987.4164 313.18475 L -977.0041 312.006 C -976.9886 312.00423 -976.973 312.00242 -976.9575 312.00056 L -967.0098 310.80683 C -966.9905 310.8045 -966.9711 310.8021 -966.9518 310.79963 L -953.1161 309.0221 C -953.0188 309.0096 -952.9219 308.99507 -952.8253 308.9785 L -946.2718 307.85506 C -946.0708 307.8206 -945.8685 307.79495 -945.6653 307.77817 L -942.4329 307.5112 C -941.5437 307.43775 -940.6767 307.19497 -939.8786 306.79594 L -938.3924 306.0528 C -937.7918 305.7525 -937.2375 305.36735 -936.7466 304.9092 L -935.4115 303.66308 C -934.8047 303.0967 -934.3493 302.38747 -934.0868 301.6 L -933.792 300.71552 C -933.7219 300.5053 -933.6618 300.29187 -933.612 300.07595 L -933.1423 298.04056 C -933.1071 297.88792 -933.1405 297.72752 -933.2338 297.60168 L -933.2338 297.60168 C -933.3241 297.4798 -933.4748 297.4183 -933.6246 297.44214 L -942.1045 298.7912 C -942.1553 298.7993 -942.2061 298.80796 -942.2568 298.81718 L -955.2416 301.17805 C -955.3344 301.1949 -955.4275 301.2099 -955.5209 301.223 L -966.7506 302.7991 C -966.7707 302.80194 -966.7909 302.80486 -966.811 302.80786 L -979.9336 304.76645 C -980.0983 304.79105 -980.2639 304.80975 -980.43 304.82253 L -993.1548 305.80136 C -993.1721 305.8027 -993.1895 305.80396 -993.2068 305.80516 L -1007.5469 306.801 C -1007.5695 306.80257 -1007.5921 306.80403 -1007.6147 306.80538 L -1020.918 307.5996 C -1020.9598 307.6021 -1021.0018 307.60423 -1021.0437 307.60597 L -1035.2352 308.1973 C -1035.3322 308.20133 -1035.4294 308.20335 -1035.5266 308.20335 L -1048.7808 308.20335 L -1061.3225 308.20335 C -1061.3614 308.20335 -1061.4002 308.20368 -1061.4391 308.20433 L -1073.1975 308.4003 C -1073.3197 308.40234 -1073.4419 308.40117 -1073.564 308.3968 L -1084.3976 308.0099 C -1084.5197 308.00554 -1084.6419 308.00437 -1084.7641 308.0064 L -1096.4787 308.20165 C -1096.5468 308.2028 -1096.6148 308.20293 -1096.6829 308.20208 L -1112.3852 308.0058 C -1112.5156 308.00417 -1112.6459 307.9989 -1112.776 307.99 L -1127.0858 307.00986 C -1127.1491 307.00552 -1127.2124 307.00032 -1127.2756 306.99426 L -1141.7666 305.6047 C -1141.7761 305.6038 -1141.7855 305.60288 -1141.795 305.60194 L -1155.607 304.22073 C -1155.7228 304.20915 -1155.8384 304.19468 -1155.9535 304.17733 L -1170.2627 302.02116 C -1170.3414 302.0093 -1170.4204 301.99877 -1170.4995 301.9896 L -1184.0194 300.42207 C -1184.127 300.4096 -1184.2343 300.39463 -1184.3411 300.37718 L -1193.7332 298.84377 C -1193.8982 298.81684 -1194.0622 298.784 -1194.2248 298.7453 L -1203.3024 296.58654 C -1203.6908 296.4942 -1204.0804 296.73412 -1204.1728 297.12244 C -1204.1788 297.14802 -1204.1835 297.1739 -1204.1868 297.2 Z" stroke="#7f8080" stroke-linecap="round" stroke-linejoin="round" stroke-width="1"/>
      <path d="M -961.7271 302.8372 L -950.527 301.83352 L -937.2904 299.8262 L -933.2176 297.81885 L -938.3086 266.70516 L -941.3632 239.60614 L -943.3996 212.50711 L -946.4542 185.4081 L -947.4724 157.3054 L -947.4724 128.19905 L -948.4906 104.11103 L -948.4906 66.97533 L -946.4542 33.854303 L -943.3996 2.7406113 L -941.3632 -12.314401 L -936.2722 -28.37308 L -932.1995 -42.424425 L -928.1267 -55.4721 L -919.9811 -69.52345 L -913.872 -80.56379 L -908.781 -87.58946 L -917.9447 -92.6078 L -931.1813 -97.62614 L -944.4178 -101.64081 L -963.7635 -106.65914 L -967 303 Z" fill="#0000c6"/>
      <path d="M -961.7271 302.8372 L -950.527 301.83352 L -937.2904 299.8262 L -933.2176 297.81885 L -938.3086 266.70516 L -941.3632 239.60614 L -943.3996 212.50711 L -946.4542 185.4081 L -947.4724 157.3054 L -947.4724 128.19905 L -948.4906 104.11103 L -948.4906 66.97533 L -946.4542 33.854303 L -943.3996 2.7406113 L -941.3632 -12.314401 L -936.2722 -28.37308 L -932.1995 -42.424425 L -928.1267 -55.4721 L -919.9811 -69.52345 L -913.872 -80.56379 L -908.781 -87.58946 L -917.9447 -92.6078 L -931.1813 -97.62614 L -944.4178 -101.64081 L -963.7635 -106.65914 L -967 303 Z" stroke="#7f8080" stroke-linecap="round" stroke-linejoin="round" stroke-width="1"/>
      <path d="M -1172.6583 301.8861 L -1176.972 301.46113 L -1187.972 300.46113 L -1200.972 298.46113 L -1204.972 296.46113 L -1199.972 265.46113 L -1198.1583 239.3861 L -1195.6583 211.3861 L -1194.1583 184.3861 L -1193.6583 155.3861 L -1192.1583 128.3861 L -1191.6583 102.8861 L -1192.6583 66.8861 L -1193.6583 33.3861 L -1193.6583 18.3861 L -1196.1583 2.8861004 L -1198.6583 -12.1139 L -1203.1583 -27.6139 L -1207.6583 -42.1139 L -1212.6583 -55.6139 L -1219.1583 -69.1139 L -1225.6583 -79.6139 L -1229.1583 -86.1139 L -1219.972 -92.53887 L -1206.972 -97.53887 L -1193.972 -101.53887 L -1175.6583 -107.1139 L -1170.1583 -108.6139 Z" fill="#0000ce"/>
      <path d="M -1172.6583 301.8861 L -1176.972 301.46113 L -1187.972 300.46113 L -1200.972 298.46113 L -1204.972 296.46113 L -1199.972 265.46113 L -1198.1583 239.3861 L -1195.6583 211.3861 L -1194.1583 184.3861 L -1193.6583 155.3861 L -1192.1583 128.3861 L -1191.6583 102.8861 L -1192.6583 66.8861 L -1193.6583 33.3861 L -1193.6583 18.3861 L -1196.1583 2.8861004 L -1198.6583 -12.1139 L -1203.1583 -27.6139 L -1207.6583 -42.1139 L -1212.6583 -55.6139 L -1219.1583 -69.1139 L -1225.6583 -79.6139 L -1229.1583 -86.1139 L -1219.972 -92.53887 L -1206.972 -97.53887 L -1193.972 -101.53887 L -1175.6583 -107.1139 L -1170.1583 -108.6139 Z" stroke="#7f8080" stroke-linecap="round" stroke-linejoin="round" stroke-width="1"/>
      <path d="M -1132.5 306 L -1127 307 L -1113 307.5 L -1092 307.5 L -1092 -66 L -1104 -70 L -1111 -74 L -1120 -80 L -1129 -88.5 Z" fill="#1513c0"/>
      <path d="M -1132.5 306 L -1127 307 L -1113 307.5 L -1092 307.5 L -1092 -66 L -1104 -70 L -1111 -74 L -1120 -80 L -1129 -88.5 Z" stroke="#7f8080" stroke-linecap="round" stroke-linejoin="round" stroke-width="1"/>
      <path d="M -1039 -67.5 L -1030 -72.5 L -1024 -77 L -1016 -83 L -1010 -89.5 L -1005.5 306.5 L -1022.5 307.5 L -1033.5 308 L -1040 308.5 L -1044 308 L -1043 308 L -1047 -64.5 Z" fill="#0000c4"/>
      <path d="M -1039 -67.5 L -1030 -72.5 L -1024 -77 L -1016 -83 L -1010 -89.5 L -1005.5 306.5 L -1022.5 307.5 L -1033.5 308 L -1040 308.5 L -1044 308 L -1043 308 L -1047 -64.5 Z" stroke="#7f8080" stroke-linecap="round" stroke-linejoin="round" stroke-width="1"/>
    </g>
  </g>
</svg>
