<?xml version="1.0" encoding="UTF-8" standalone="no"?>
<!DOCTYPE svg PUBLIC "-//W3C//DTD SVG 1.1//EN" "http://www.w3.org/Graphics/SVG/1.1/DTD/svg11.dtd">
<svg xmlns="http://www.w3.org/2000/svg" xmlns:xl="http://www.w3.org/1999/xlink" version="1.1" viewBox="-66.5 -112.5 432.4053 448.4" width="432.4053pt" height="448.4pt" xmlns:dc="http://purl.org/dc/elements/1.1/">
  <metadata> Produced by OmniGraffle 7.6.1 
    <dc:date>2019-06-20 18:01:39 +0000</dc:date>
  </metadata>
  <defs>
    <radialGradient cx="0" cy="0" r="1" id="Gradient" gradientUnits="userSpaceOnUse">
      <stop offset="0" stop-color="#cbcbcb"/>
      <stop offset="1" stop-color="#010e1d"/>
    </radialGradient>
    <radialGradient id="Obj_Gradient" xl:href="#Gradient" gradientTransform="translate(148.75925 -84.6) scale(70.26272)"/>
    <linearGradient x1="0" x2="1" id="Gradient_2" gradientUnits="userSpaceOnUse">
      <stop offset="0" stop-color="#2f67d5"/>
      <stop offset="1" stop-color="white"/>
    </linearGradient>
    <linearGradient id="Obj_Gradient_2" xl:href="#Gradient_2" gradientTransform="translate(148.05925 -111.24411) rotate(90) scale(25)"/>
    <linearGradient x1="0" x2="1" id="Gradient_3" gradientUnits="userSpaceOnUse">
      <stop offset="0" stop-color="white"/>
      <stop offset="1" stop-color="#2f67d5"/>
    </linearGradient>
    <linearGradient id="Obj_Gradient_3" xl:href="#Gradient_3" gradientTransform="translate(148.78697 -111.24411) rotate(90) scale(67.19884)"/>
    <linearGradient x1="0" x2="1" id="Gradient_4" gradientUnits="userSpaceOnUse">
      <stop offset="0" stop-color="#2f67d5"/>
      <stop offset="1" stop-color="white"/>
    </linearGradient>
    <linearGradient id="Obj_Gradient_4" xl:href="#Gradient_4" gradientTransform="translate(365.7135 51.044733) rotate(-179) scale(85.0294)"/>
    <linearGradient x1="0" x2="1" id="Gradient_5" gradientUnits="userSpaceOnUse">
      <stop offset="0" stop-color="#2f67d5"/>
      <stop offset="1" stop-color="white"/>
    </linearGradient>
    <linearGradient id="Obj_Gradient_5" xl:href="#Gradient_5" gradientTransform="translate(-39.15924 19.755033) rotate(64) scale(70.07415)"/>
    <radialGradient cx="0" cy="0" r="1" id="Gradient_6" gradientUnits="userSpaceOnUse">
      <stop offset="0" stop-color="#2f67d5"/>
      <stop offset="1" stop-color="white"/>
    </radialGradient>
    <radialGradient id="Obj_Gradient_6" xl:href="#Gradient_6" gradientTransform="translate(149.32968 324.9834) scale(135.94141)"/>
  </defs>
  <g stroke="none" stroke-opacity="1" stroke-dasharray="none" fill="none" fill-opacity="1">
    <title>Depor</title>
    <g>
      <title>Capa 1</title>
      <path d="M 87.00565 -111.40955 L 95.17111 -108.29184 C 96.0291 -107.96424 96.90594 -107.68833 97.79692 -107.46558 L 111.5141 -104.03629 C 112.67576 -103.74587 113.85832 -103.54662 115.051 -103.44034 L 132.57715 -101.8786 C 133.165 -101.82622 133.75464 -101.79648 134.34478 -101.78946 L 149.8237 -101.60519 C 150.11404 -101.60173 150.40442 -101.60377 150.69469 -101.61131 L 165.118 -101.98594 C 165.47878 -101.99531 165.8393 -102.01317 166.19924 -102.03951 L 180.57053 -103.09107 C 181.56197 -103.16361 182.54766 -103.30036 183.5214 -103.50044 L 195.09436 -105.87845 C 196.13637 -106.09256 197.16226 -106.3787 198.16465 -106.73481 L 209.91664 -110.90986 C 211.00702 -111.29723 212.21021 -110.76646 212.65925 -109.7 L 212.65925 -109.7 C 213.1814 -108.4599 213.33338 -107.09515 213.09685 -105.77055 L 212.91637 -104.75986 C 212.6126 -103.0587 212.11806 -101.3972 211.44214 -99.80681 L 209.89892 -96.17569 C 209.34035 -94.86142 208.6606 -93.60202 207.86846 -92.41382 L 204.18268 -86.88515 C 203.43517 -85.76389 202.59057 -84.71049 201.6586 -83.73711 L 195.36354 -77.16226 C 194.49547 -76.25561 193.55463 -75.42154 192.55046 -74.66841 L 184.17555 -68.38723 C 183.29914 -67.729916 182.37688 -67.13606 181.41582 -66.6102 L 174.23062 -62.67867 C 172.9195 -61.961265 171.54156 -61.37336 170.11638 -60.9233 L 163.44347 -58.81607 C 161.7266 -58.2739 159.952 -57.935195 158.15613 -57.80692 L 151.26968 -57.31503 C 150.19738 -57.23844 149.12103 -57.23712 148.04854 -57.31108 L 139.61229 -57.89289 C 138.57811 -57.964216 137.54994 -58.10537 136.5348 -58.3154 L 129.3996 -59.79165 C 127.44765 -60.1955 125.55647 -60.85139 123.77362 -61.742815 L 119.11421 -64.07252 C 117.88007 -64.68959 116.70397 -65.41646 115.60012 -66.244345 L 109.91816 -70.50581 C 109.47903 -70.835165 109.05182 -71.18013 108.63737 -71.54005 L 102.88219 -76.53797 C 102.0679 -77.245115 101.30436 -78.008655 100.59722 -78.82294 L 96.192 -83.89562 C 95.43789 -84.76398 94.74998 -85.68768 94.13406 -86.65895 L 90.40036 -92.54671 C 90.03979 -93.1153 89.70437 -93.69944 89.39505 -94.29745 L 87.77468 -97.43017 C 87.16553 -98.60785 86.65936 -99.836 86.26183 -101.10089 L 84.98159 -105.17438 C 84.76681 -105.85775 84.58408 -106.55079 84.43399 -107.25122 L 84.35925 -107.6 C 84.16458 -108.50843 84.27185 -109.45557 84.66473 -110.29746 L 84.75925 -110.5 C 85.15372 -111.34531 86.1342 -111.74229 87.00565 -111.40955 Z" fill="url(#Obj_Gradient)"/>
      <path d="M 87.00565 -111.40955 L 95.17111 -108.29184 C 96.0291 -107.96424 96.90594 -107.68833 97.79692 -107.46558 L 111.5141 -104.03629 C 112.67576 -103.74587 113.85832 -103.54662 115.051 -103.44034 L 132.57715 -101.8786 C 133.165 -101.82622 133.75464 -101.79648 134.34478 -101.78946 L 149.8237 -101.60519 C 150.11404 -101.60173 150.40442 -101.60377 150.69469 -101.61131 L 165.118 -101.98594 C 165.47878 -101.99531 165.8393 -102.01317 166.19924 -102.03951 L 180.57053 -103.09107 C 181.56197 -103.16361 182.54766 -103.30036 183.5214 -103.50044 L 195.09436 -105.87845 C 196.13637 -106.09256 197.16226 -106.3787 198.16465 -106.73481 L 209.91664 -110.90986 C 211.00702 -111.29723 212.21021 -110.76646 212.65925 -109.7 L 212.65925 -109.7 C 213.1814 -108.4599 213.33338 -107.09515 213.09685 -105.77055 L 212.91637 -104.75986 C 212.6126 -103.0587 212.11806 -101.3972 211.44214 -99.80681 L 209.89892 -96.17569 C 209.34035 -94.86142 208.6606 -93.60202 207.86846 -92.41382 L 204.18268 -86.88515 C 203.43517 -85.76389 202.59057 -84.71049 201.6586 -83.73711 L 195.36354 -77.16226 C 194.49547 -76.25561 193.55463 -75.42154 192.55046 -74.66841 L 184.17555 -68.38723 C 183.29914 -67.729916 182.37688 -67.13606 181.41582 -66.6102 L 174.23062 -62.67867 C 172.9195 -61.961265 171.54156 -61.37336 170.11638 -60.9233 L 163.44347 -58.81607 C 161.7266 -58.2739 159.952 -57.935195 158.15613 -57.80692 L 151.26968 -57.31503 C 150.19738 -57.23844 149.12103 -57.23712 148.04854 -57.31108 L 139.61229 -57.89289 C 138.57811 -57.964216 137.54994 -58.10537 136.5348 -58.3154 L 129.3996 -59.79165 C 127.44765 -60.1955 125.55647 -60.85139 123.77362 -61.742815 L 119.11421 -64.07252 C 117.88007 -64.68959 116.70397 -65.41646 115.60012 -66.244345 L 109.91816 -70.50581 C 109.47903 -70.835165 109.05182 -71.18013 108.63737 -71.54005 L 102.88219 -76.53797 C 102.0679 -77.245115 101.30436 -78.008655 100.59722 -78.82294 L 96.192 -83.89562 C 95.43789 -84.76398 94.74998 -85.68768 94.13406 -86.65895 L 90.40036 -92.54671 C 90.03979 -93.1153 89.70437 -93.69944 89.39505 -94.29745 L 87.77468 -97.43017 C 87.16553 -98.60785 86.65936 -99.836 86.26183 -101.10089 L 84.98159 -105.17438 C 84.76681 -105.85775 84.58408 -106.55079 84.43399 -107.25122 L 84.35925 -107.6 C 84.16458 -108.50843 84.27185 -109.45557 84.66473 -110.29746 L 84.75925 -110.5 C 85.15372 -111.34531 86.1342 -111.74229 87.00565 -111.40955 Z" stroke="#7f8080" stroke-linecap="round" stroke-linejoin="round" stroke-width="1"/>
      <path d="M 22.973455 325.2638 L 36.715696 327.55416 C 36.899072 327.58472 37.08297 327.6121 37.2673 327.63624 L 65.62094 331.35154 C 65.86747 331.38385 66.114715 331.4104 66.36248 331.4312 L 96.60537 333.9677 C 96.86227 333.98923 97.11966 334.00456 97.37731 334.01367 L 136.30822 335.39 C 136.49658 335.39668 136.68504 335.4 136.87352 335.4 L 168.34084 335.4 C 168.50746 335.4 168.67407 335.3974 168.8406 335.3922 L 193.87539 334.60986 C 194.08563 334.6033 194.29573 334.59258 194.50555 334.57772 L 216.5533 333.0168 C 216.71161 333.0056 216.86975 332.99205 217.02766 332.97614 L 242.28815 330.4305 C 242.4899 330.41017 242.69122 330.386 242.89204 330.35803 L 266.68474 327.04265 C 266.88875 327.01422 267.0922 326.98186 267.29496 326.94558 L 276.4908 325.3 C 281.8179 324.34674 285.46876 319.3931 284.80234 314.02255 L 282.59475 296.23198 C 282.5921 296.21066 282.5895 296.18934 282.58695 296.168 L 279.02312 266.4695 C 279.00157 266.28985 278.98306 266.10985 278.9676 265.92958 L 276.6054 238.37037 C 276.59565 238.2568 276.58713 238.14312 276.57983 238.02936 L 275.1932 216.43772 C 275.1916 216.41258 275.18992 216.38744 275.1882 216.3623 L 273.59603 193.27599 C 273.59253 193.22533 273.58928 193.17466 273.58627 193.12398 L 272.4099 173.3218 C 272.39716 173.1073 272.38874 172.89255 272.38465 172.6777 L 271.99236 152.08285 C 271.9913 152.02762 271.98997 151.9724 271.98835 151.91718 L 271.39322 131.68283 C 271.3916 131.62761 271.39026 131.57239 271.3892 131.51715 L 270.99855 111.00761 C 270.99337 110.73592 270.99512 110.46413 271.0038 110.19253 L 271.58973 91.83292 C 271.59044 91.81097 271.59118 91.78903 271.59197 91.76709 L 272.38005 69.897785 C 272.3872 69.69928 272.39806 69.50093 272.4126 69.30283 L 273.97007 48.08221 C 273.98388 47.894086 273.99436 47.705734 274.0015 47.51724 L 274.75596 27.618373 C 274.77915 27.006628 274.83744 26.396718 274.93052 25.791652 L 277.66953 7.988134 C 277.7503 7.463036 277.8572 6.942288 277.9898 6.427825 L 282.61806 -11.529826 C 282.73316 -11.976399 282.8675 -12.417787 283.02073 -12.852753 L 288.7415 -29.092394 C 288.9076 -29.56387 289.0957 -30.027307 289.30517 -30.481174 L 294.83673 -42.466213 C 294.93942 -42.68871 295.0472 -42.908814 295.16 -43.126357 L 300.52223 -53.46778 C 300.56793 -53.555925 300.61446 -53.64364 300.6618 -53.730917 L 305.87777 -63.34788 C 306.61505 -64.70724 307.56468 -65.94013 308.6908 -67 L 308.6908 -67 C 309.36598 -67.63547 309.39817 -68.69797 308.7627 -69.37316 C 308.6382 -69.50544 308.49307 -69.61663 308.33295 -69.70241 L 305.1188 -71.42427 C 304.90016 -71.54141 304.6788 -71.65344 304.45494 -71.76029 L 296.60097 -75.50878 C 296.19436 -75.70284 295.77974 -75.87964 295.3582 -76.03871 L 285.68338 -79.68959 C 285.48833 -79.76319 285.29187 -79.83297 285.0941 -79.89889 L 272.39963 -84.13038 C 272.2604 -84.17679 272.12055 -84.22128 271.9801 -84.26384 L 259.09658 -88.16794 C 259.02605 -88.18931 258.95567 -88.21117 258.88544 -88.23352 L 246.38144 -92.21206 C 245.98782 -92.33731 245.5992 -92.47775 245.21643 -92.63307 L 233.2405 -97.49287 C 232.40883 -97.83036 231.60704 -98.23723 230.8436 -98.70917 L 221.22436 -104.65561 C 221.06865 -104.75186 220.91461 -104.85078 220.7623 -104.95232 L 215.8722 -108.21238 C 214.89081 -108.86665 214.0195 -109.67255 213.29078 -110.6 L 213.29078 -110.6 C 213.18518 -110.7344 212.99062 -110.75775 212.8562 -110.65215 C 212.75347 -110.57142 212.7125 -110.43487 212.7538 -110.31092 L 212.89078 -109.9 C 213.35003 -108.52225 213.4546 -107.05096 213.1948 -105.62211 L 212.79967 -103.44885 C 212.52845 -101.95719 212.0466 -100.51165 211.36858 -99.1556 L 209.83626 -96.09096 C 209.53956 -95.49756 209.20624 -94.92319 208.83823 -94.37117 L 205.63453 -89.56562 C 205.20593 -88.92272 204.73132 -88.31171 204.21443 -87.73739 L 199.65238 -82.66844 C 199.61132 -82.622815 199.57 -82.57742 199.5284 -82.53227 L 193.53417 -76.02424 C 192.90643 -75.3427 192.22068 -74.71698 191.48465 -74.15413 L 186.46047 -70.31211 C 186.01432 -69.97094 185.55052 -69.6535 185.07099 -69.3611 L 178.58458 -65.40597 C 177.92292 -65.002524 177.23283 -64.64768 176.51975 -64.34424 L 169.40434 -61.316404 C 168.59667 -60.97272 167.7621 -60.696074 166.90905 -60.48928 L 162.83 -59.500414 C 162.00516 -59.300454 161.16573 -59.16644 160.31963 -59.099645 L 154.61943 -58.64963 C 154.2005 -58.616555 153.78042 -58.6 153.36019 -58.6 L 146.32787 -58.6 C 145.57077 -58.6 144.81462 -58.65374 144.06513 -58.76081 L 136.11868 -59.896014 C 135.63367 -59.9653 135.1521 -60.05683 134.6755 -60.17031 L 128.71426 -61.58965 C 127.56878 -61.86238 126.4569 -62.260734 125.39883 -62.777466 L 119.11882 -65.844444 C 118.63377 -66.08133 118.16102 -66.34261 117.70238 -66.62728 L 113.49052 -69.24154 C 112.89135 -69.61344 112.31742 -70.02454 111.7725 -70.472165 L 107.32639 -74.12432 C 107.10269 -74.30807 106.88402 -74.49786 106.67063 -74.69348 L 102.86828 -78.17896 C 102.41699 -78.59264 101.98981 -79.03189 101.58885 -79.494535 L 97.47011 -84.24693 C 97.15072 -84.61545 96.84836 -84.99838 96.56395 -85.39451 L 92.1343 -91.56439 C 91.6394 -92.2537 91.20013 -92.9813 90.82064 -93.74028 L 88.24418 -98.89321 C 88.20858 -98.9644 88.17352 -99.03586 88.13899 -99.10758 L 86.89078 -101.7 C 86.04007 -103.46687 85.68455 -105.4314 85.86209 -107.38436 L 86.04229 -109.36661 C 86.0661 -109.62848 85.87312 -109.86006 85.61125 -109.88386 C 85.44886 -109.89862 85.2902 -109.82925 85.19078 -109.7 L 85.19078 -109.7 C 84.52734 -108.83752 83.74723 -108.07144 82.87285 -107.42375 L 78.97632 -104.53743 C 78.85263 -104.44582 78.72763 -104.35599 78.60136 -104.26798 L 73.97911 -101.04641 C 72.79237 -100.21929 71.49895 -99.55692 70.1342 -99.07742 L 65.527076 -97.4587 C 65.036505 -97.28633 64.55463 -97.09016 64.08316 -96.87087 L 57.23638 -93.68632 C 56.54022 -93.36253 55.82165 -93.08926 55.08625 -92.86864 L 44.215864 -89.60752 C 44.19914 -89.60251 44.18243 -89.59746 44.165724 -89.59239 L 33.197637 -86.2628 C 33.05974 -86.22093 32.922414 -86.17721 32.7857 -86.13164 L 19.864464 -81.82456 C 19.815343 -81.80819 19.766142 -81.79205 19.716864 -81.77616 L 8.349458 -78.10925 C 7.710972 -77.90329 7.086073 -77.65737 6.47846 -77.37296 L -1.453505 -73.66012 C -1.8238448 -73.48677 -2.1874032 -73.29929 -2.5433793 -73.09808 L -8.489494 -69.737235 C -9.742528 -69.029 -10.184173 -67.439075 -9.475937 -66.18604 C -9.398819 -66.0496 -9.309552 -65.9204 -9.209219 -65.8 L -8.345108 -64.76307 C -7.590163 -63.85713 -6.937686 -62.87051 -6.399569 -61.82118 L -3.322431 -55.82076 C -3.246961 -55.673596 -3.1692132 -55.52761 -3.0892163 -55.38285 L .8655364 -48.22663 C .9490275 -48.075553 1.0300682 -47.923133 1.1086268 -47.76943 L 5.2169314 -39.731444 C 5.4660006 -39.244135 5.6899036 -38.744368 5.8877574 -38.234113 L 9.370526 -29.252235 C 9.38403 -29.21741 9.397655 -29.182634 9.411402 -29.147906 L 13.007724 -20.06246 C 13.129733 -19.754227 13.242133 -19.442277 13.344761 -19.12706 L 15.966596 -11.074284 C 15.98272 -11.02476 15.998601 -10.975159 16.01424 -10.925481 L 19.086289 -1.1672101 C 19.28908 -.52304844 19.450886 .13330626 19.570733 .7979154 L 21.556045 11.807372 C 21.579202 11.935787 21.600787 12.06448 21.620795 12.193423 L 23.326665 23.186805 C 23.369402 23.462223 23.404935 23.73871 23.43323 24.015984 L 24.320649 32.7127 C 24.367382 33.170688 24.394327 33.63048 24.40141 34.090793 L 24.58565 46.066414 C 24.58907 46.28878 24.597127 46.511054 24.609815 46.733086 L 25.38019 60.21465 C 25.38725 60.338214 25.395745 60.46169 25.40567 60.58506 L 26.73924 77.15943 C 26.773588 77.58631 26.79078 78.01439 26.79078 78.44264 L 26.79078 90.89242 C 26.79078 91.09746 26.794723 91.30247 26.802603 91.50735 L 27.382954 106.59649 C 27.388172 106.73216 27.391663 106.86789 27.393426 107.00365 L 27.585585 121.7999 C 27.58905 122.0666 27.585843 122.33333 27.575972 122.59986 L 27.001744 138.10401 C 26.994436 138.30132 26.99078 138.49875 26.99078 138.6962 L 26.99078 152.29243 C 26.99078 152.49746 26.98684 152.70247 26.97896 152.90736 L 26.393768 168.12236 C 26.391777 168.17412 26.389535 168.22588 26.38704 168.27762 L 25.59172 184.78055 C 25.591094 184.79352 25.590453 184.80649 25.589797 184.81945 L 24.795307 200.51062 C 24.79229 200.5702 24.78894 200.62978 24.785256 200.68933 L 23.596345 219.91007 C 23.592636 219.97003 23.58859 220.02996 23.584206 220.08987 L 21.801068 244.45942 C 21.79421 244.55314 21.786527 244.6468 21.77802 244.74038 L 19.992128 264.3852 C 19.99123 264.39507 19.990324 264.40494 19.989408 264.4148 L 18.218643 283.49972 C 18.20007 283.6999 18.177726 283.8997 18.151623 284.09903 L 16.19091 299.07175 C 16.0581 300.08594 15.788958 301.07756 15.390781 302.01973 L 15.390781 302.01973 C 14.993206 302.96048 14.744538 303.9574 14.653714 304.97465 L 13.890781 313.51973 C 13.383025 319.20676 17.34149 324.32512 22.973455 325.2638 Z" fill="white"/>
      <path d="M 22.973455 325.2638 L 36.715696 327.55416 C 36.899072 327.58472 37.08297 327.6121 37.2673 327.63624 L 65.62094 331.35154 C 65.86747 331.38385 66.114715 331.4104 66.36248 331.4312 L 96.60537 333.9677 C 96.86227 333.98923 97.11966 334.00456 97.37731 334.01367 L 136.30822 335.39 C 136.49658 335.39668 136.68504 335.4 136.87352 335.4 L 168.34084 335.4 C 168.50746 335.4 168.67407 335.3974 168.8406 335.3922 L 193.87539 334.60986 C 194.08563 334.6033 194.29573 334.59258 194.50555 334.57772 L 216.5533 333.0168 C 216.71161 333.0056 216.86975 332.99205 217.02766 332.97614 L 242.28815 330.4305 C 242.4899 330.41017 242.69122 330.386 242.89204 330.35803 L 266.68474 327.04265 C 266.88875 327.01422 267.0922 326.98186 267.29496 326.94558 L 276.4908 325.3 C 281.8179 324.34674 285.46876 319.3931 284.80234 314.02255 L 282.59475 296.23198 C 282.5921 296.21066 282.5895 296.18934 282.58695 296.168 L 279.02312 266.4695 C 279.00157 266.28985 278.98306 266.10985 278.9676 265.92958 L 276.6054 238.37037 C 276.59565 238.2568 276.58713 238.14312 276.57983 238.02936 L 275.1932 216.43772 C 275.1916 216.41258 275.18992 216.38744 275.1882 216.3623 L 273.59603 193.27599 C 273.59253 193.22533 273.58928 193.17466 273.58627 193.12398 L 272.4099 173.3218 C 272.39716 173.1073 272.38874 172.89255 272.38465 172.6777 L 271.99236 152.08285 C 271.9913 152.02762 271.98997 151.9724 271.98835 151.91718 L 271.39322 131.68283 C 271.3916 131.62761 271.39026 131.57239 271.3892 131.51715 L 270.99855 111.00761 C 270.99337 110.73592 270.99512 110.46413 271.0038 110.19253 L 271.58973 91.83292 C 271.59044 91.81097 271.59118 91.78903 271.59197 91.76709 L 272.38005 69.897785 C 272.3872 69.69928 272.39806 69.50093 272.4126 69.30283 L 273.97007 48.08221 C 273.98388 47.894086 273.99436 47.705734 274.0015 47.51724 L 274.75596 27.618373 C 274.77915 27.006628 274.83744 26.396718 274.93052 25.791652 L 277.66953 7.988134 C 277.7503 7.463036 277.8572 6.942288 277.9898 6.427825 L 282.61806 -11.529826 C 282.73316 -11.976399 282.8675 -12.417787 283.02073 -12.852753 L 288.7415 -29.092394 C 288.9076 -29.56387 289.0957 -30.027307 289.30517 -30.481174 L 294.83673 -42.466213 C 294.93942 -42.68871 295.0472 -42.908814 295.16 -43.126357 L 300.52223 -53.46778 C 300.56793 -53.555925 300.61446 -53.64364 300.6618 -53.730917 L 305.87777 -63.34788 C 306.61505 -64.70724 307.56468 -65.94013 308.6908 -67 L 308.6908 -67 C 309.36598 -67.63547 309.39817 -68.69797 308.7627 -69.37316 C 308.6382 -69.50544 308.49307 -69.61663 308.33295 -69.70241 L 305.1188 -71.42427 C 304.90016 -71.54141 304.6788 -71.65344 304.45494 -71.76029 L 296.60097 -75.50878 C 296.19436 -75.70284 295.77974 -75.87964 295.3582 -76.03871 L 285.68338 -79.68959 C 285.48833 -79.76319 285.29187 -79.83297 285.0941 -79.89889 L 272.39963 -84.13038 C 272.2604 -84.17679 272.12055 -84.22128 271.9801 -84.26384 L 259.09658 -88.16794 C 259.02605 -88.18931 258.95567 -88.21117 258.88544 -88.23352 L 246.38144 -92.21206 C 245.98782 -92.33731 245.5992 -92.47775 245.21643 -92.63307 L 233.2405 -97.49287 C 232.40883 -97.83036 231.60704 -98.23723 230.8436 -98.70917 L 221.22436 -104.65561 C 221.06865 -104.75186 220.91461 -104.85078 220.7623 -104.95232 L 215.8722 -108.21238 C 214.89081 -108.86665 214.0195 -109.67255 213.29078 -110.6 L 213.29078 -110.6 C 213.18518 -110.7344 212.99062 -110.75775 212.8562 -110.65215 C 212.75347 -110.57142 212.7125 -110.43487 212.7538 -110.31092 L 212.89078 -109.9 C 213.35003 -108.52225 213.4546 -107.05096 213.1948 -105.62211 L 212.79967 -103.44885 C 212.52845 -101.95719 212.0466 -100.51165 211.36858 -99.1556 L 209.83626 -96.09096 C 209.53956 -95.49756 209.20624 -94.92319 208.83823 -94.37117 L 205.63453 -89.56562 C 205.20593 -88.92272 204.73132 -88.31171 204.21443 -87.73739 L 199.65238 -82.66844 C 199.61132 -82.622815 199.57 -82.57742 199.5284 -82.53227 L 193.53417 -76.02424 C 192.90643 -75.3427 192.22068 -74.71698 191.48465 -74.15413 L 186.46047 -70.31211 C 186.01432 -69.97094 185.55052 -69.6535 185.07099 -69.3611 L 178.58458 -65.40597 C 177.92292 -65.002524 177.23283 -64.64768 176.51975 -64.34424 L 169.40434 -61.316404 C 168.59667 -60.97272 167.7621 -60.696074 166.90905 -60.48928 L 162.83 -59.500414 C 162.00516 -59.300454 161.16573 -59.16644 160.31963 -59.099645 L 154.61943 -58.64963 C 154.2005 -58.616555 153.78042 -58.6 153.36019 -58.6 L 146.32787 -58.6 C 145.57077 -58.6 144.81462 -58.65374 144.06513 -58.76081 L 136.11868 -59.896014 C 135.63367 -59.9653 135.1521 -60.05683 134.6755 -60.17031 L 128.71426 -61.58965 C 127.56878 -61.86238 126.4569 -62.260734 125.39883 -62.777466 L 119.11882 -65.844444 C 118.63377 -66.08133 118.16102 -66.34261 117.70238 -66.62728 L 113.49052 -69.24154 C 112.89135 -69.61344 112.31742 -70.02454 111.7725 -70.472165 L 107.32639 -74.12432 C 107.10269 -74.30807 106.88402 -74.49786 106.67063 -74.69348 L 102.86828 -78.17896 C 102.41699 -78.59264 101.98981 -79.03189 101.58885 -79.494535 L 97.47011 -84.24693 C 97.15072 -84.61545 96.84836 -84.99838 96.56395 -85.39451 L 92.1343 -91.56439 C 91.6394 -92.2537 91.20013 -92.9813 90.82064 -93.74028 L 88.24418 -98.89321 C 88.20858 -98.9644 88.17352 -99.03586 88.13899 -99.10758 L 86.89078 -101.7 C 86.04007 -103.46687 85.68455 -105.4314 85.86209 -107.38436 L 86.04229 -109.36661 C 86.0661 -109.62848 85.87312 -109.86006 85.61125 -109.88386 C 85.44886 -109.89862 85.2902 -109.82925 85.19078 -109.7 L 85.19078 -109.7 C 84.52734 -108.83752 83.74723 -108.07144 82.87285 -107.42375 L 78.97632 -104.53743 C 78.85263 -104.44582 78.72763 -104.35599 78.60136 -104.26798 L 73.97911 -101.04641 C 72.79237 -100.21929 71.49895 -99.55692 70.1342 -99.07742 L 65.527076 -97.4587 C 65.036505 -97.28633 64.55463 -97.09016 64.08316 -96.87087 L 57.23638 -93.68632 C 56.54022 -93.36253 55.82165 -93.08926 55.08625 -92.86864 L 44.215864 -89.60752 C 44.19914 -89.60251 44.18243 -89.59746 44.165724 -89.59239 L 33.197637 -86.2628 C 33.05974 -86.22093 32.922414 -86.17721 32.7857 -86.13164 L 19.864464 -81.82456 C 19.815343 -81.80819 19.766142 -81.79205 19.716864 -81.77616 L 8.349458 -78.10925 C 7.710972 -77.90329 7.086073 -77.65737 6.47846 -77.37296 L -1.453505 -73.66012 C -1.8238448 -73.48677 -2.1874032 -73.29929 -2.5433793 -73.09808 L -8.489494 -69.737235 C -9.742528 -69.029 -10.184173 -67.439075 -9.475937 -66.18604 C -9.398819 -66.0496 -9.309552 -65.9204 -9.209219 -65.8 L -8.345108 -64.76307 C -7.590163 -63.85713 -6.937686 -62.87051 -6.399569 -61.82118 L -3.322431 -55.82076 C -3.246961 -55.673596 -3.1692132 -55.52761 -3.0892163 -55.38285 L .8655364 -48.22663 C .9490275 -48.075553 1.0300682 -47.923133 1.1086268 -47.76943 L 5.2169314 -39.731444 C 5.4660006 -39.244135 5.6899036 -38.744368 5.8877574 -38.234113 L 9.370526 -29.252235 C 9.38403 -29.21741 9.397655 -29.182634 9.411402 -29.147906 L 13.007724 -20.06246 C 13.129733 -19.754227 13.242133 -19.442277 13.344761 -19.12706 L 15.966596 -11.074284 C 15.98272 -11.02476 15.998601 -10.975159 16.01424 -10.925481 L 19.086289 -1.1672101 C 19.28908 -.52304844 19.450886 .13330626 19.570733 .7979154 L 21.556045 11.807372 C 21.579202 11.935787 21.600787 12.06448 21.620795 12.193423 L 23.326665 23.186805 C 23.369402 23.462223 23.404935 23.73871 23.43323 24.015984 L 24.320649 32.7127 C 24.367382 33.170688 24.394327 33.63048 24.40141 34.090793 L 24.58565 46.066414 C 24.58907 46.28878 24.597127 46.511054 24.609815 46.733086 L 25.38019 60.21465 C 25.38725 60.338214 25.395745 60.46169 25.40567 60.58506 L 26.73924 77.15943 C 26.773588 77.58631 26.79078 78.01439 26.79078 78.44264 L 26.79078 90.89242 C 26.79078 91.09746 26.794723 91.30247 26.802603 91.50735 L 27.382954 106.59649 C 27.388172 106.73216 27.391663 106.86789 27.393426 107.00365 L 27.585585 121.7999 C 27.58905 122.0666 27.585843 122.33333 27.575972 122.59986 L 27.001744 138.10401 C 26.994436 138.30132 26.99078 138.49875 26.99078 138.6962 L 26.99078 152.29243 C 26.99078 152.49746 26.98684 152.70247 26.97896 152.90736 L 26.393768 168.12236 C 26.391777 168.17412 26.389535 168.22588 26.38704 168.27762 L 25.59172 184.78055 C 25.591094 184.79352 25.590453 184.80649 25.589797 184.81945 L 24.795307 200.51062 C 24.79229 200.5702 24.78894 200.62978 24.785256 200.68933 L 23.596345 219.91007 C 23.592636 219.97003 23.58859 220.02996 23.584206 220.08987 L 21.801068 244.45942 C 21.79421 244.55314 21.786527 244.6468 21.77802 244.74038 L 19.992128 264.3852 C 19.99123 264.39507 19.990324 264.40494 19.989408 264.4148 L 18.218643 283.49972 C 18.20007 283.6999 18.177726 283.8997 18.151623 284.09903 L 16.19091 299.07175 C 16.0581 300.08594 15.788958 301.07756 15.390781 302.01973 L 15.390781 302.01973 C 14.993206 302.96048 14.744538 303.9574 14.653714 304.97465 L 13.890781 313.51973 C 13.383025 319.20676 17.34149 324.32512 22.973455 325.2638 Z" stroke="#7f8080" stroke-linecap="round" stroke-linejoin="round" stroke-width="1"/>
      <path d="M -66 39.446146 L -59.8 43.846146 L -51.6 47.846146 L -43 51.446146 L -34 55.246146 L -23 59.246146 L -13.6 62.046146 L -4.599999 64.646146 L 4.400001 67.24615 L 9.800001 68.64615 L 15.400001 69.64615 L 17.800001 63.846146 L 20.400001 58.446146 L 22.6 54.446146 L 25.2 51.046146 L 25.4 42.046146 L 24.8 31.046145 L 23 20.246145 L 21.400001 9.846145 L 18.800001 -1.153855 L 16.400001 -10.753855 L 13.600001 -18.753855 L 10.400001 -28.153855 L 7.600001 -35.553856 L 4.000001 -43.153856 L 9834767e-13 -50.753856 L -3.999999 -58.153856 L -6.599999 -61.753856 L -10.199999 -67.55386 L -15.6 -63.153856 L -20.4 -58.353856 L -25 -52.153856 L -29.4 -45.953856 L -34.2 -37.353856 L -39 -27.953855 L -43.8 -18.753855 L -47.4 -10.153855 L -51.4 -1.153855 L -54.6 7.046145 L -58.4 16.446145 L -61.2 24.446145 L -64.2 32.846145 Z" fill="#2f67d5"/>
      <path d="M -66 39.446146 L -59.8 43.846146 L -51.6 47.846146 L -43 51.446146 L -34 55.246146 L -23 59.246146 L -13.6 62.046146 L -4.599999 64.646146 L 4.400001 67.24615 L 9.800001 68.64615 L 15.400001 69.64615 L 17.800001 63.846146 L 20.400001 58.446146 L 22.6 54.446146 L 25.2 51.046146 L 25.4 42.046146 L 24.8 31.046145 L 23 20.246145 L 21.400001 9.846145 L 18.800001 -1.153855 L 16.400001 -10.753855 L 13.600001 -18.753855 L 10.400001 -28.153855 L 7.600001 -35.553856 L 4.000001 -43.153856 L 9834767e-13 -50.753856 L -3.999999 -58.153856 L -6.599999 -61.753856 L -10.199999 -67.55386 L -15.6 -63.153856 L -20.4 -58.353856 L -25 -52.153856 L -29.4 -45.953856 L -34.2 -37.353856 L -39 -27.953855 L -43.8 -18.753855 L -47.4 -10.153855 L -51.4 -1.153855 L -54.6 7.046145 L -58.4 16.446145 L -61.2 24.446145 L -64.2 32.846145 Z" stroke="#7f8080" stroke-linecap="round" stroke-linejoin="round" stroke-width="1"/>
      <path d="M 365.4053 38.50275 L 359.2053 42.90275 L 351.0053 46.90275 L 342.4053 50.50275 L 333.4053 54.30275 L 322.4053 58.30275 L 313.0053 61.10275 L 304.0053 63.70275 L 295.0053 66.30275 L 289.6053 67.70275 L 284.0053 68.70275 L 281.6053 62.90275 L 279.0053 57.50275 L 276.8053 53.50275 L 274.2053 50.10275 L 274.0053 41.10275 L 274.6053 30.10275 L 276.4053 19.30275 L 278.0053 8.902749 L 280.6053 -2.0972512 L 283.0053 -11.697251 L 285.8053 -19.697252 L 289.0053 -29.09725 L 291.8053 -36.49725 L 295.4053 -44.09725 L 299.4053 -51.69725 L 303.4053 -59.09725 L 306.0053 -62.69725 L 309.6053 -68.49725 L 315.0053 -64.09725 L 319.8053 -59.29725 L 324.4053 -53.09725 L 328.8053 -46.89725 L 333.6053 -38.29725 L 338.4053 -28.89725 L 343.2053 -19.697252 L 346.8053 -11.097251 L 350.8053 -2.0972512 L 354.0053 6.102749 L 357.8053 15.502749 L 360.6053 23.50275 L 363.6053 31.90275 Z" fill="#2f67d5"/>
      <path d="M 365.4053 38.50275 L 359.2053 42.90275 L 351.0053 46.90275 L 342.4053 50.50275 L 333.4053 54.30275 L 322.4053 58.30275 L 313.0053 61.10275 L 304.0053 63.70275 L 295.0053 66.30275 L 289.6053 67.70275 L 284.0053 68.70275 L 281.6053 62.90275 L 279.0053 57.50275 L 276.8053 53.50275 L 274.2053 50.10275 L 274.0053 41.10275 L 274.6053 30.10275 L 276.4053 19.30275 L 278.0053 8.902749 L 280.6053 -2.0972512 L 283.0053 -11.697251 L 285.8053 -19.697252 L 289.0053 -29.09725 L 291.8053 -36.49725 L 295.4053 -44.09725 L 299.4053 -51.69725 L 303.4053 -59.09725 L 306.0053 -62.69725 L 309.6053 -68.49725 L 315.0053 -64.09725 L 319.8053 -59.29725 L 324.4053 -53.09725 L 328.8053 -46.89725 L 333.6053 -38.29725 L 338.4053 -28.89725 L 343.2053 -19.697252 L 346.8053 -11.097251 L 350.8053 -2.0972512 L 354.0053 6.102749 L 357.8053 15.502749 L 360.6053 23.50275 L 363.6053 31.90275 Z" stroke="#7f8080" stroke-linecap="round" stroke-linejoin="round" stroke-width="1"/>
      <path d="M 84.05925 -110.24411 L 89.45925 -110.84411 L 96.25925 -107.44411 L 101.25925 -105.64411 L 109.65925 -103.84411 L 118.05925 -102.84411 L 126.05925 -101.84411 L 133.65925 -101.64411 L 142.25925 -101.24411 L 153.85925 -101.44411 L 162.25925 -101.84411 L 171.65925 -102.44411 L 180.05925 -103.24411 L 189.25925 -104.64411 L 197.45925 -106.84411 L 203.25925 -108.64411 L 208.85925 -111.24411 L 211.65925 -110.04411 L 212.05925 -104.44411 L 209.25925 -96.44411 L 203.85925 -93.64411 L 193.25925 -90.44411 L 181.85925 -88.04411 L 170.65925 -87.24411 L 158.25925 -86.24411 L 147.85925 -86.24411 L 138.45925 -86.24411 L 126.85925 -86.84411 L 115.65925 -87.64411 L 105.05925 -89.84411 L 96.45925 -91.84411 L 90.25925 -94.64411 L 88.25925 -96.24411 L 85.05925 -103.84411 Z" fill="url(#Obj_Gradient_2)"/>
      <path d="M 84.05925 -110.24411 L 89.45925 -110.84411 L 96.25925 -107.44411 L 101.25925 -105.64411 L 109.65925 -103.84411 L 118.05925 -102.84411 L 126.05925 -101.84411 L 133.65925 -101.64411 L 142.25925 -101.24411 L 153.85925 -101.44411 L 162.25925 -101.84411 L 171.65925 -102.44411 L 180.05925 -103.24411 L 189.25925 -104.64411 L 197.45925 -106.84411 L 203.25925 -108.64411 L 208.85925 -111.24411 L 211.65925 -110.04411 L 212.05925 -104.44411 L 209.25925 -96.44411 L 203.85925 -93.64411 L 193.25925 -90.44411 L 181.85925 -88.04411 L 170.65925 -87.24411 L 158.25925 -86.24411 L 147.85925 -86.24411 L 138.45925 -86.24411 L 126.85925 -86.84411 L 115.65925 -87.64411 L 105.05925 -89.84411 L 96.45925 -91.84411 L 90.25925 -94.64411 L 88.25925 -96.24411 L 85.05925 -103.84411 Z" stroke="#7f8080" stroke-linecap="round" stroke-linejoin="round" stroke-width="1"/>
      <path d="M 120 328.5 L 139.3772 330.5 L 160.8772 329 L 179.8772 329 L 180.5 329 L 179.5 -58.5 L 152.84034 -53 L 127 -57 L 118.5 -55.5 Z" fill="#2f67d5"/>
      <path d="M 120 328.5 L 139.3772 330.5 L 160.8772 329 L 179.8772 329 L 180.5 329 L 179.5 -58.5 L 152.84034 -53 L 127 -57 L 118.5 -55.5 Z" stroke="#7f8080" stroke-linecap="round" stroke-linejoin="round" stroke-width="1"/>
      <path d="M 84.57212 -110.03621 L 79.84295 -105.98264 C 78.6926 -104.99662 77.44764 -104.12669 76.12621 -103.38552 L 73.59958 -101.96835 C 72.16441 -101.16338 71.5836 -99.39425 72.26239 -97.89527 L 73.280006 -95.64803 C 73.401585 -95.37954 73.52831 -95.11342 73.66012 -94.8498 L 75.46239 -91.24526 L 77.94938 -86.27129 C 78.29117 -85.5877 78.66683 -84.92157 79.07495 -84.27537 L 81.40134 -80.59192 C 81.84172 -79.89465 82.31928 -79.22158 82.83195 -78.57561 L 86.24264 -74.27815 C 86.78869 -73.590125 87.37371 -72.93394 87.99482 -72.31283 L 92.66087 -67.64679 C 93.06175 -67.24591 93.47731 -66.85999 93.90671 -66.48982 L 98.47023 -62.555744 C 98.86489 -62.21552 99.271 -61.88881 99.68785 -61.57617 L 103.66279 -58.59497 C 104.3287 -58.09553 105.02123 -57.63262 105.73733 -57.20826 L 109.8704 -54.75904 C 109.99839 -54.68319 110.12712 -54.608586 110.25656 -54.535235 L 114.9541 -51.87329 C 115.6924 -51.45493 116.45328 -51.07774 117.23325 -50.743466 L 120.78307 -49.222117 C 121.36903 -48.97099 121.96518 -48.744334 122.56997 -48.542736 L 127.58808 -46.870034 C 128.83532 -46.454286 130.11592 -46.146244 131.4158 -45.949294 L 135.51464 -45.328256 C 135.87976 -45.272936 136.24615 -45.226417 136.6135 -45.18874 L 143.4946 -44.482985 C 143.73978 -44.45784 143.98534 -44.436636 144.2312 -44.41938 L 148.75835 -44.10169 C 149.2942 -44.064085 149.83122 -44.045266 150.3684 -44.045266 L 153.63046 -44.045264 C 154.58416 -44.045264 155.53693 -44.10458 156.48327 -44.222873 L 160.47198 -44.72146 C 161.13195 -44.80396 161.78802 -44.91504 162.43835 -45.0544 L 168.52039 -46.35769 C 169.41426 -46.549236 170.29592 -46.7939 171.16068 -47.09039 L 175.66952 -48.63628 C 176.46417 -48.90873 177.2433 -49.224514 178.0034 -49.58221 L 182.83677 -51.85674 C 183.38697 -52.115653 183.92668 -52.396286 184.45464 -52.697975 L 188.2225 -54.85104 C 188.9153 -55.24692 189.58701 -55.678585 190.23494 -56.14428 L 194.91106 -59.505246 C 195.41175 -59.86511 195.89776 -60.24497 196.36792 -60.64389 L 201.68877 -65.158555 C 202.07108 -65.48294 202.44269 -65.81974 202.80298 -66.16842 L 207.5022 -70.71604 C 208.1418 -71.335 208.7449 -71.990565 209.30852 -72.67942 L 213.1018 -77.31566 C 213.60852 -77.93497 214.08257 -78.58031 214.52201 -79.24904 L 218.1392 -84.75344 C 218.35462 -85.08127 218.56163 -85.41456 218.76002 -85.75298 L 221.2831 -90.05708 C 221.66906 -90.71546 222.022 -91.39265 222.34062 -92.08612 L 224.45932 -96.69739 C 224.99218 -97.85715 225.36334 -99.08456 225.5624 -100.34526 L 225.5624 -100.34526 C 225.7407 -101.47453 225.1614 -102.58797 224.13432 -103.0901 L 218.84088 -105.678 C 217.52642 -106.32063 216.29183 -107.11514 215.1624 -108.04526 L 214.75638 -108.37963 C 213.91205 -109.07496 213.28864 -110.00126 212.9624 -111.04526 L 212.9624 -111.04526 C 212.91573 -111.19458 212.75686 -111.2778 212.60754 -111.23114 C 212.49247 -111.19518 212.41277 -111.09031 212.40892 -110.96981 L 212.29968 -107.54689 C 212.20894 -104.70381 211.5916 -101.90224 210.479 -99.28433 L 209.60206 -97.22096 C 209.0435 -95.90669 208.36374 -94.64729 207.5716 -93.45909 L 203.88582 -87.93042 C 203.13831 -86.80915 202.2937 -85.75575 201.36175 -84.78238 L 195.06668 -78.20753 C 194.1986 -77.300875 193.25777 -76.4668 192.2536 -75.71367 L 183.8787 -69.432495 C 183.00228 -68.77518 182.08002 -68.181326 181.11896 -67.65546 L 173.93376 -63.72394 C 172.62263 -63.00653 171.2447 -62.41863 169.81952 -61.96857 L 163.1466 -59.861334 C 161.42973 -59.31916 159.65514 -58.98046 157.85927 -58.852185 L 150.97281 -58.360296 C 149.90052 -58.2837 148.82417 -58.282384 147.75168 -58.35635 L 139.31543 -58.93816 C 138.28125 -59.00948 137.25308 -59.15064 136.23795 -59.36067 L 129.10274 -60.836916 C 127.15079 -61.24077 125.25961 -61.89665 123.47676 -62.78808 L 118.81735 -65.117785 C 117.58321 -65.73485 116.4071 -66.46173 115.30326 -67.28961 L 109.6213 -71.55108 C 109.18217 -71.88043 108.75496 -72.2254 108.34051 -72.58532 L 102.58533 -77.58324 C 101.77104 -78.29038 101.0075 -79.05392 100.30036 -79.86821 L 95.89513 -84.94089 C 95.14103 -85.80925 94.45312 -86.73295 93.8372 -87.70422 L 90.1035 -93.59198 C 89.74293 -94.16056 89.40751 -94.7447 89.09819 -95.34272 L 87.47781 -98.47544 C 86.86867 -99.65312 86.3625 -100.88126 85.96497 -102.14615 L 84.68473 -106.21964 C 84.46995 -106.90302 84.28722 -107.59605 84.13713 -108.29649 L 83.91171 -109.34843 C 83.82664 -109.74544 84.05299 -110.1431 84.4378 -110.27263 L 84.4378 -110.27263 C 84.51029 -110.29704 84.58884 -110.25805 84.61325 -110.18556 C 84.63126 -110.13205 84.61499 -110.07296 84.57212 -110.03621 Z" fill="url(#Obj_Gradient_3)"/>
      <path d="M 84.57212 -110.03621 L 79.84295 -105.98264 C 78.6926 -104.99662 77.44764 -104.12669 76.12621 -103.38552 L 73.59958 -101.96835 C 72.16441 -101.16338 71.5836 -99.39425 72.26239 -97.89527 L 73.280006 -95.64803 C 73.401585 -95.37954 73.52831 -95.11342 73.66012 -94.8498 L 75.46239 -91.24526 L 77.94938 -86.27129 C 78.29117 -85.5877 78.66683 -84.92157 79.07495 -84.27537 L 81.40134 -80.59192 C 81.84172 -79.89465 82.31928 -79.22158 82.83195 -78.57561 L 86.24264 -74.27815 C 86.78869 -73.590125 87.37371 -72.93394 87.99482 -72.31283 L 92.66087 -67.64679 C 93.06175 -67.24591 93.47731 -66.85999 93.90671 -66.48982 L 98.47023 -62.555744 C 98.86489 -62.21552 99.271 -61.88881 99.68785 -61.57617 L 103.66279 -58.59497 C 104.3287 -58.09553 105.02123 -57.63262 105.73733 -57.20826 L 109.8704 -54.75904 C 109.99839 -54.68319 110.12712 -54.608586 110.25656 -54.535235 L 114.9541 -51.87329 C 115.6924 -51.45493 116.45328 -51.07774 117.23325 -50.743466 L 120.78307 -49.222117 C 121.36903 -48.97099 121.96518 -48.744334 122.56997 -48.542736 L 127.58808 -46.870034 C 128.83532 -46.454286 130.11592 -46.146244 131.4158 -45.949294 L 135.51464 -45.328256 C 135.87976 -45.272936 136.24615 -45.226417 136.6135 -45.18874 L 143.4946 -44.482985 C 143.73978 -44.45784 143.98534 -44.436636 144.2312 -44.41938 L 148.75835 -44.10169 C 149.2942 -44.064085 149.83122 -44.045266 150.3684 -44.045266 L 153.63046 -44.045264 C 154.58416 -44.045264 155.53693 -44.10458 156.48327 -44.222873 L 160.47198 -44.72146 C 161.13195 -44.80396 161.78802 -44.91504 162.43835 -45.0544 L 168.52039 -46.35769 C 169.41426 -46.549236 170.29592 -46.7939 171.16068 -47.09039 L 175.66952 -48.63628 C 176.46417 -48.90873 177.2433 -49.224514 178.0034 -49.58221 L 182.83677 -51.85674 C 183.38697 -52.115653 183.92668 -52.396286 184.45464 -52.697975 L 188.2225 -54.85104 C 188.9153 -55.24692 189.58701 -55.678585 190.23494 -56.14428 L 194.91106 -59.505246 C 195.41175 -59.86511 195.89776 -60.24497 196.36792 -60.64389 L 201.68877 -65.158555 C 202.07108 -65.48294 202.44269 -65.81974 202.80298 -66.16842 L 207.5022 -70.71604 C 208.1418 -71.335 208.7449 -71.990565 209.30852 -72.67942 L 213.1018 -77.31566 C 213.60852 -77.93497 214.08257 -78.58031 214.52201 -79.24904 L 218.1392 -84.75344 C 218.35462 -85.08127 218.56163 -85.41456 218.76002 -85.75298 L 221.2831 -90.05708 C 221.66906 -90.71546 222.022 -91.39265 222.34062 -92.08612 L 224.45932 -96.69739 C 224.99218 -97.85715 225.36334 -99.08456 225.5624 -100.34526 L 225.5624 -100.34526 C 225.7407 -101.47453 225.1614 -102.58797 224.13432 -103.0901 L 218.84088 -105.678 C 217.52642 -106.32063 216.29183 -107.11514 215.1624 -108.04526 L 214.75638 -108.37963 C 213.91205 -109.07496 213.28864 -110.00126 212.9624 -111.04526 L 212.9624 -111.04526 C 212.91573 -111.19458 212.75686 -111.2778 212.60754 -111.23114 C 212.49247 -111.19518 212.41277 -111.09031 212.40892 -110.96981 L 212.29968 -107.54689 C 212.20894 -104.70381 211.5916 -101.90224 210.479 -99.28433 L 209.60206 -97.22096 C 209.0435 -95.90669 208.36374 -94.64729 207.5716 -93.45909 L 203.88582 -87.93042 C 203.13831 -86.80915 202.2937 -85.75575 201.36175 -84.78238 L 195.06668 -78.20753 C 194.1986 -77.300875 193.25777 -76.4668 192.2536 -75.71367 L 183.8787 -69.432495 C 183.00228 -68.77518 182.08002 -68.181326 181.11896 -67.65546 L 173.93376 -63.72394 C 172.62263 -63.00653 171.2447 -62.41863 169.81952 -61.96857 L 163.1466 -59.861334 C 161.42973 -59.31916 159.65514 -58.98046 157.85927 -58.852185 L 150.97281 -58.360296 C 149.90052 -58.2837 148.82417 -58.282384 147.75168 -58.35635 L 139.31543 -58.93816 C 138.28125 -59.00948 137.25308 -59.15064 136.23795 -59.36067 L 129.10274 -60.836916 C 127.15079 -61.24077 125.25961 -61.89665 123.47676 -62.78808 L 118.81735 -65.117785 C 117.58321 -65.73485 116.4071 -66.46173 115.30326 -67.28961 L 109.6213 -71.55108 C 109.18217 -71.88043 108.75496 -72.2254 108.34051 -72.58532 L 102.58533 -77.58324 C 101.77104 -78.29038 101.0075 -79.05392 100.30036 -79.86821 L 95.89513 -84.94089 C 95.14103 -85.80925 94.45312 -86.73295 93.8372 -87.70422 L 90.1035 -93.59198 C 89.74293 -94.16056 89.40751 -94.7447 89.09819 -95.34272 L 87.47781 -98.47544 C 86.86867 -99.65312 86.3625 -100.88126 85.96497 -102.14615 L 84.68473 -106.21964 C 84.46995 -106.90302 84.28722 -107.59605 84.13713 -108.29649 L 83.91171 -109.34843 C 83.82664 -109.74544 84.05299 -110.1431 84.4378 -110.27263 L 84.4378 -110.27263 C 84.51029 -110.29704 84.58884 -110.25805 84.61325 -110.18556 C 84.63126 -110.13205 84.61499 -110.07296 84.57212 -110.03621 Z" stroke="#7f8080" stroke-linecap="round" stroke-linejoin="round" stroke-width="1"/>
      <path d="M 325.07477 48.87649 L 310.07477 55.37649 L 298.57477 58.37649 L 286.57477 61.37649 L 281.07477 62.37649 L 276.07477 51.87649 L 270.4695 45.025585 L 274.07477 37.37649 L 275.57477 27.37649 L 273.0695 12.425584 L 278.5695 .8764899 L 282.5695 -10.12351 L 285.5695 -20.62351 L 288.5695 -26.62351 L 305.07477 3.37649 L 312.57477 18.87649 L 320.57477 36.87649 Z" fill="white"/>
      <path d="M 325.07477 48.87649 L 310.07477 55.37649 L 298.57477 58.37649 L 286.57477 61.37649 L 281.07477 62.37649 L 276.07477 51.87649 L 270.4695 45.025585 L 274.07477 37.37649 L 275.57477 27.37649 L 273.0695 12.425584 L 278.5695 .8764899 L 282.5695 -10.12351 L 285.5695 -20.62351 L 288.5695 -26.62351 L 305.07477 3.37649 L 312.57477 18.87649 L 320.57477 36.87649 Z" stroke="#7f8080" stroke-linecap="round" stroke-linejoin="round" stroke-width="1"/>
      <path d="M 240.19999 322.8 L 258 322 L 269 319 L 281.219 316.34086 L 285.219 314.34086 L 280.219 283.34086 L 277.219 256.34086 L 275.219 229.34086 L 274 203 L 272 174 L 271.21902 145.34086 L 270.21902 121.34086 L 271 85 L 274 51 L 277 20 L 279 5 L 283 -10.5 L 287.5 -24.5 L 292.5 -37.5 L 299.5 -51.5 L 306 -62.5 L 309.219 -69.659144 L 300.219 -74.65914 L 287.219 -79.65914 L 274.219 -83.65914 L 255.21902 -88.65914 L 240.21902 -93.65914 Z" fill="#2f67d5"/>
      <path d="M 240.19999 322.8 L 258 322 L 269 319 L 281.219 316.34086 L 285.219 314.34086 L 280.219 283.34086 L 277.219 256.34086 L 275.219 229.34086 L 274 203 L 272 174 L 271.21902 145.34086 L 270.21902 121.34086 L 271 85 L 274 51 L 277 20 L 279 5 L 283 -10.5 L 287.5 -24.5 L 292.5 -37.5 L 299.5 -51.5 L 306 -62.5 L 309.219 -69.659144 L 300.219 -74.65914 L 287.219 -79.65914 L 274.219 -83.65914 L 255.21902 -88.65914 L 240.21902 -93.65914 Z" stroke="#7f8080" stroke-linecap="round" stroke-linejoin="round" stroke-width="1"/>
      <path d="M 365.4053 38.50275 L 359.2053 42.90275 L 351.0053 46.90275 L 342.4053 50.50275 L 333.4053 54.30275 L 322.4053 58.30275 L 313.0053 61.10275 L 304.0053 63.70275 L 295.0053 66.30275 L 289.6053 67.70275 L 284.0053 68.70275 L 281.0053 62.30275 L 284.8053 61.50275 L 289.6053 60.30275 L 295.2053 59.10275 L 301.2053 57.30275 L 305.8053 55.90275 L 310.0053 54.70275 L 314.6053 52.70275 L 319.2053 51.10275 L 324.0053 49.10275 L 328.0053 47.70275 L 333.2053 45.50275 L 337.8053 43.90275 L 342.6053 41.70275 L 347.4053 39.90275 L 351.4053 37.90275 L 355.8053 35.70275 L 360.2053 33.50275 L 363.6053 31.90275 Z" fill="url(#Obj_Gradient_4)"/>
      <path d="M 365.4053 38.50275 L 359.2053 42.90275 L 351.0053 46.90275 L 342.4053 50.50275 L 333.4053 54.30275 L 322.4053 58.30275 L 313.0053 61.10275 L 304.0053 63.70275 L 295.0053 66.30275 L 289.6053 67.70275 L 284.0053 68.70275 L 281.0053 62.30275 L 284.8053 61.50275 L 289.6053 60.30275 L 295.2053 59.10275 L 301.2053 57.30275 L 305.8053 55.90275 L 310.0053 54.70275 L 314.6053 52.70275 L 319.2053 51.10275 L 324.0053 49.10275 L 328.0053 47.70275 L 333.2053 45.50275 L 337.8053 43.90275 L 342.6053 41.70275 L 347.4053 39.90275 L 351.4053 37.90275 L 355.8053 35.70275 L 360.2053 33.50275 L 363.6053 31.90275 Z" stroke="#7f8080" stroke-linecap="round" stroke-linejoin="round" stroke-width="1"/>
      <path d="M -27.47847 51.04482 L 16.521531 66.54482 L 24.6 52 L 28 49.6 L 27.4 35 L 24.8 25.6 L 23.4 11.8 L 19.4 -1.8 L 16.8 -13.6 L 14.4 -22 L 11.4 -27.2 L -6.0784675 3.7903655 L -13.578468 19.290365 L -21.578468 37.290365 Z" fill="white"/>
      <path d="M -27.47847 51.04482 L 16.521531 66.54482 L 24.6 52 L 28 49.6 L 27.4 35 L 24.8 25.6 L 23.4 11.8 L 19.4 -1.8 L 16.8 -13.6 L 14.4 -22 L 11.4 -27.2 L -6.0784675 3.7903655 L -13.578468 19.290365 L -21.578468 37.290365 Z" stroke="#7f8080" stroke-linecap="round" stroke-linejoin="round" stroke-width="1"/>
      <path d="M 59.99998 321.8 L 42.186273 319.07503 L 31.186273 318.07503 L 18.186273 316.07503 L 14.186273 314.07503 L 19.186273 283.07503 L 21 257 L 23.5 229 L 25 202 L 25.5 173 L 27 146 L 27.5 120.5 L 26.5 84.5 L 25.5 51 L 25.5 36 L 23 20.5 L 20.5 5.5 L 16 -10 L 11.5 -24.5 L 6.5 -38 L -18260948e-19 -51.5 L -6.5 -62 L -10 -68.5 L -.8137267 -74.92497 L 12.186273 -79.92497 L 25.186273 -83.92497 L 43.5 -89.5 L 54.5 -93 L 58 -94 Z" fill="#2f67d5"/>
      <path d="M 59.99998 321.8 L 42.186273 319.07503 L 31.186273 318.07503 L 18.186273 316.07503 L 14.186273 314.07503 L 19.186273 283.07503 L 21 257 L 23.5 229 L 25 202 L 25.5 173 L 27 146 L 27.5 120.5 L 26.5 84.5 L 25.5 51 L 25.5 36 L 23 20.5 L 20.5 5.5 L 16 -10 L 11.5 -24.5 L 6.5 -38 L -18260948e-19 -51.5 L -6.5 -62 L -10 -68.5 L -.8137267 -74.92497 L 12.186273 -79.92497 L 25.186273 -83.92497 L 43.5 -89.5 L 54.5 -93 L 58 -94 Z" stroke="#7f8080" stroke-linecap="round" stroke-linejoin="round" stroke-width="1"/>
      <path d="M -66 39.446146 L -59.8 43.846146 L -51.6 47.846146 L -43 51.446146 L -34 55.246146 L -23 59.246146 L -13.6 62.046146 L -4.599999 64.646146 L 4.400001 67.24615 L 9.800001 68.64615 L 15.400001 69.64615 L 18.400001 63.246146 L 14.600001 62.446146 L 9.800001 61.246146 L 4.200001 60.046146 L -1.799999 58.246146 L -6.399999 56.846146 L -10.599999 55.646146 L -15.2 53.646146 L -19.8 52.046146 L -24.6 50.046146 L -28.6 48.646146 L -33.8 46.446146 L -38.4 44.846146 L -43.2 42.646146 L -48 40.846146 L -52 38.846146 L -56.4 36.646146 L -60.8 34.446146 L -64.2 32.846145 Z" fill="url(#Obj_Gradient_5)"/>
      <path d="M -66 39.446146 L -59.8 43.846146 L -51.6 47.846146 L -43 51.446146 L -34 55.246146 L -23 59.246146 L -13.6 62.046146 L -4.599999 64.646146 L 4.400001 67.24615 L 9.800001 68.64615 L 15.400001 69.64615 L 18.400001 63.246146 L 14.600001 62.446146 L 9.800001 61.246146 L 4.200001 60.046146 L -1.799999 58.246146 L -6.399999 56.846146 L -10.599999 55.646146 L -15.2 53.646146 L -19.8 52.046146 L -24.6 50.046146 L -28.6 48.646146 L -33.8 46.446146 L -38.4 44.846146 L -43.2 42.646146 L -48 40.846146 L -52 38.846146 L -56.4 36.646146 L -60.8 34.446146 L -64.2 32.846145 Z" stroke="#7f8080" stroke-linecap="round" stroke-linejoin="round" stroke-width="1"/>
      <path d="M 13.813213 315.2 L 13.813213 315.2 C 13.747529 315.7255 13.810355 316.25905 13.996298 316.7549 L 14.647306 318.49092 C 14.824062 318.96227 15.051147 319.41318 15.32462 319.8358 L 16.292434 321.33153 C 16.833392 322.16756 17.546494 322.87855 18.384121 323.41702 L 19.46217 324.11005 C 19.762426 324.30307 20.077006 324.47285 20.403157 324.6179 L 21.72001 325.2035 C 22.31654 325.46876 22.947246 325.64928 23.593793 325.7398 L 32.604213 327.00126 C 32.614207 327.00265 32.624203 327.00403 32.634203 327.0054 L 44.3502 328.594 C 44.3962 328.60024 44.442263 328.606 44.48838 328.61134 L 54.771315 329.79783 C 54.80324 329.8015 54.83519 329.80498 54.867165 329.8082 L 68.57723 331.1991 C 68.60521 331.20193 68.63321 331.2046 68.661226 331.2071 L 79.76653 332.19865 C 79.80164 332.2018 79.83679 332.20466 79.87195 332.20726 L 90.55848 332.99886 C 90.59896 333.00185 90.63947 333.0045 90.67999 333.0068 L 101.18798 333.6016 C 101.2088 333.60276 101.22961 333.60404 101.25042 333.6054 L 113.29319 334.3951 C 113.3772 334.4006 113.46129 334.4046 113.54543 334.40707 L 126.99256 334.80257 C 127.01032 334.8031 127.02809 334.8037 127.04585 334.80434 L 137.68971 335.19856 C 137.77603 335.20176 137.8624 335.20335 137.94879 335.20335 L 148.5578 335.20335 C 148.59874 335.20335 148.63967 335.2037 148.6806 335.20443 L 159.76702 335.39893 C 159.93509 335.40188 160.10321 335.39877 160.27106 335.3896 L 170.89229 334.81028 C 170.9769 334.80566 171.06157 334.8026 171.14629 334.80104 L 181.91085 334.60532 C 181.98308 334.604 182.0553 334.60158 182.12745 334.59803 L 194.14607 334.00695 C 194.19483 334.00455 194.24355 334.00165 194.29225 333.99823 L 205.5323 333.20945 C 205.59023 333.2054 205.64812 333.2006 205.70594 333.1951 L 218.1165 332.01313 C 218.18497 332.0066 218.25352 332.0011 218.32214 331.9966 L 230.25416 331.21418 C 230.36418 331.20696 230.474 331.19715 230.58355 331.18475 L 240.9959 330.006 C 241.01144 330.00423 241.02697 330.00242 241.0425 330.00056 L 250.9902 328.80683 C 251.00954 328.8045 251.02886 328.8021 251.04818 328.79963 L 264.88394 327.0221 C 264.98115 327.0096 265.0781 326.99507 265.1747 326.9785 L 271.7282 325.85506 C 271.92915 325.8206 272.13153 325.79495 272.33473 325.77817 L 275.56706 325.5112 C 276.4563 325.43775 277.3233 325.19497 278.12135 324.79594 L 279.60765 324.0528 C 280.20824 323.7525 280.7625 323.36735 281.25338 322.9092 L 282.5885 321.6631 C 283.19532 321.0967 283.65073 320.38747 283.91322 319.6 L 284.20805 318.71552 C 284.27812 318.5053 284.33817 318.29187 284.388 318.07595 L 284.8577 316.04056 C 284.89293 315.88792 284.8595 315.72752 284.7662 315.6017 L 284.7662 315.6017 C 284.67587 315.4798 284.52523 315.4183 284.3754 315.44214 L 275.89555 316.7912 C 275.84466 316.7993 275.79385 316.80796 275.74315 316.8172 L 262.7584 319.17805 C 262.6656 319.1949 262.5725 319.2099 262.4791 319.223 L 251.24943 320.7991 C 251.22928 320.80194 251.20914 320.80486 251.18902 320.80786 L 238.06643 322.76645 C 237.90167 322.79105 237.73608 322.80975 237.56998 322.82253 L 224.84517 323.80136 C 224.82786 323.8027 224.81055 323.80396 224.79323 323.80516 L 210.45308 324.801 C 210.4305 324.80257 210.4079 324.80403 210.3853 324.80538 L 197.08205 325.5996 C 197.04016 325.6021 196.99824 325.60423 196.9563 325.60597 L 182.76485 326.1973 C 182.66776 326.20133 182.5706 326.20335 182.47344 326.20335 L 169.2192 326.20335 L 156.67753 326.20335 C 156.63865 326.20335 156.59976 326.20368 156.56088 326.20433 L 144.8025 326.4003 C 144.68032 326.40234 144.55812 326.40117 144.436 326.3968 L 133.6024 326.0099 C 133.4803 326.00554 133.35809 326.00437 133.23591 326.0064 L 121.52127 326.20165 C 121.45323 326.2028 121.38518 326.20293 121.31713 326.20208 L 105.61484 326.0058 C 105.48444 326.00417 105.35411 325.9989 105.22401 325.99 L 90.91423 325.00986 C 90.85088 325.00552 90.7876 325.00032 90.72439 324.99426 L 76.23339 323.6047 C 76.22393 323.6038 76.21448 323.6029 76.20503 323.60194 L 62.39299 322.22073 C 62.27715 322.20915 62.16162 322.19468 62.0465 322.17733 L 47.73735 320.02116 C 47.65859 320.0093 47.57964 319.99877 47.50052 319.9896 L 33.98059 318.42207 C 33.873013 318.4096 33.76574 318.39463 33.65886 318.37718 L 24.26677 316.84377 C 24.10178 316.81684 23.937805 316.784 23.775164 316.7453 L 14.697565 314.58654 C 14.309246 314.4942 13.919589 314.73412 13.827241 315.12244 C 13.821158 315.14802 13.816475 315.1739 13.813213 315.2 Z" fill="url(#Obj_Gradient_6)"/>
      <path d="M 13.813213 315.2 L 13.813213 315.2 C 13.747529 315.7255 13.810355 316.25905 13.996298 316.7549 L 14.647306 318.49092 C 14.824062 318.96227 15.051147 319.41318 15.32462 319.8358 L 16.292434 321.33153 C 16.833392 322.16756 17.546494 322.87855 18.384121 323.41702 L 19.46217 324.11005 C 19.762426 324.30307 20.077006 324.47285 20.403157 324.6179 L 21.72001 325.2035 C 22.31654 325.46876 22.947246 325.64928 23.593793 325.7398 L 32.604213 327.00126 C 32.614207 327.00265 32.624203 327.00403 32.634203 327.0054 L 44.3502 328.594 C 44.3962 328.60024 44.442263 328.606 44.48838 328.61134 L 54.771315 329.79783 C 54.80324 329.8015 54.83519 329.80498 54.867165 329.8082 L 68.57723 331.1991 C 68.60521 331.20193 68.63321 331.2046 68.661226 331.2071 L 79.76653 332.19865 C 79.80164 332.2018 79.83679 332.20466 79.87195 332.20726 L 90.55848 332.99886 C 90.59896 333.00185 90.63947 333.0045 90.67999 333.0068 L 101.18798 333.6016 C 101.2088 333.60276 101.22961 333.60404 101.25042 333.6054 L 113.29319 334.3951 C 113.3772 334.4006 113.46129 334.4046 113.54543 334.40707 L 126.99256 334.80257 C 127.01032 334.8031 127.02809 334.8037 127.04585 334.80434 L 137.68971 335.19856 C 137.77603 335.20176 137.8624 335.20335 137.94879 335.20335 L 148.5578 335.20335 C 148.59874 335.20335 148.63967 335.2037 148.6806 335.20443 L 159.76702 335.39893 C 159.93509 335.40188 160.10321 335.39877 160.27106 335.3896 L 170.89229 334.81028 C 170.9769 334.80566 171.06157 334.8026 171.14629 334.80104 L 181.91085 334.60532 C 181.98308 334.604 182.0553 334.60158 182.12745 334.59803 L 194.14607 334.00695 C 194.19483 334.00455 194.24355 334.00165 194.29225 333.99823 L 205.5323 333.20945 C 205.59023 333.2054 205.64812 333.2006 205.70594 333.1951 L 218.1165 332.01313 C 218.18497 332.0066 218.25352 332.0011 218.32214 331.9966 L 230.25416 331.21418 C 230.36418 331.20696 230.474 331.19715 230.58355 331.18475 L 240.9959 330.006 C 241.01144 330.00423 241.02697 330.00242 241.0425 330.00056 L 250.9902 328.80683 C 251.00954 328.8045 251.02886 328.8021 251.04818 328.79963 L 264.88394 327.0221 C 264.98115 327.0096 265.0781 326.99507 265.1747 326.9785 L 271.7282 325.85506 C 271.92915 325.8206 272.13153 325.79495 272.33473 325.77817 L 275.56706 325.5112 C 276.4563 325.43775 277.3233 325.19497 278.12135 324.79594 L 279.60765 324.0528 C 280.20824 323.7525 280.7625 323.36735 281.25338 322.9092 L 282.5885 321.6631 C 283.19532 321.0967 283.65073 320.38747 283.91322 319.6 L 284.20805 318.71552 C 284.27812 318.5053 284.33817 318.29187 284.388 318.07595 L 284.8577 316.04056 C 284.89293 315.88792 284.8595 315.72752 284.7662 315.6017 L 284.7662 315.6017 C 284.67587 315.4798 284.52523 315.4183 284.3754 315.44214 L 275.89555 316.7912 C 275.84466 316.7993 275.79385 316.80796 275.74315 316.8172 L 262.7584 319.17805 C 262.6656 319.1949 262.5725 319.2099 262.4791 319.223 L 251.24943 320.7991 C 251.22928 320.80194 251.20914 320.80486 251.18902 320.80786 L 238.06643 322.76645 C 237.90167 322.79105 237.73608 322.80975 237.56998 322.82253 L 224.84517 323.80136 C 224.82786 323.8027 224.81055 323.80396 224.79323 323.80516 L 210.45308 324.801 C 210.4305 324.80257 210.4079 324.80403 210.3853 324.80538 L 197.08205 325.5996 C 197.04016 325.6021 196.99824 325.60423 196.9563 325.60597 L 182.76485 326.1973 C 182.66776 326.20133 182.5706 326.20335 182.47344 326.20335 L 169.2192 326.20335 L 156.67753 326.20335 C 156.63865 326.20335 156.59976 326.20368 156.56088 326.20433 L 144.8025 326.4003 C 144.68032 326.40234 144.55812 326.40117 144.436 326.3968 L 133.6024 326.0099 C 133.4803 326.00554 133.35809 326.00437 133.23591 326.0064 L 121.52127 326.20165 C 121.45323 326.2028 121.38518 326.20293 121.31713 326.20208 L 105.61484 326.0058 C 105.48444 326.00417 105.35411 325.9989 105.22401 325.99 L 90.91423 325.00986 C 90.85088 325.00552 90.7876 325.00032 90.72439 324.99426 L 76.23339 323.6047 C 76.22393 323.6038 76.21448 323.6029 76.20503 323.60194 L 62.39299 322.22073 C 62.27715 322.20915 62.16162 322.19468 62.0465 322.17733 L 47.73735 320.02116 C 47.65859 320.0093 47.57964 319.99877 47.50052 319.9896 L 33.98059 318.42207 C 33.873013 318.4096 33.76574 318.39463 33.65886 318.37718 L 24.26677 316.84377 C 24.10178 316.81684 23.937805 316.784 23.775164 316.7453 L 14.697565 314.58654 C 14.309246 314.4942 13.919589 314.73412 13.827241 315.12244 C 13.821158 315.14802 13.816475 315.1739 13.813213 315.2 Z" stroke="#7f8080" stroke-linecap="round" stroke-linejoin="round" stroke-width="1"/>
    </g>
  </g>
</svg>
