<?xml version="1.0" encoding="UTF-8" standalone="no"?>
<!DOCTYPE svg PUBLIC "-//W3C//DTD SVG 1.1//EN" "http://www.w3.org/Graphics/SVG/1.1/DTD/svg11.dtd">
<svg xmlns="http://www.w3.org/2000/svg" xmlns:xl="http://www.w3.org/1999/xlink" version="1.1" viewBox="-1368.5 -294.5 432.4053 448.4" width="432.4053pt" height="448.4pt" xmlns:dc="http://purl.org/dc/elements/1.1/">
  <metadata> Produced by OmniGraffle 7.4.2 
    <dc:date>2018-03-14 17:26:21 +0000</dc:date>
  </metadata>
  <defs>
    <radialGradient cx="0" cy="0" r="1" id="Gradient" gradientUnits="userSpaceOnUse">
      <stop offset="0" stop-color="#cbcbcb"/>
      <stop offset="1" stop-color="#0f74e9"/>
    </radialGradient>
    <radialGradient id="Obj_Gradient" xl:href="#Gradient" gradientTransform="translate(-1153.2408 -266.6) scale(70.26272)"/>
    <radialGradient cx="0" cy="0" r="1" id="Gradient_2" gradientUnits="userSpaceOnUse">
      <stop offset="0" stop-color="#2625ff"/>
      <stop offset="1" stop-color="#3a8eed"/>
    </radialGradient>
    <radialGradient id="Obj_Gradient_2" xl:href="#Gradient_2" gradientTransform="translate(-1325.8 -130.75385) scale(46.03694)"/>
    <radialGradient cx="0" cy="0" r="1" id="Gradient_3" gradientUnits="userSpaceOnUse">
      <stop offset="0" stop-color="#1c0fff"/>
      <stop offset="1" stop-color="#3a8eed"/>
    </radialGradient>
    <radialGradient id="Obj_Gradient_3" xl:href="#Gradient_3" gradientTransform="translate(-978.7947 -131.69725) scale(46.03694)"/>
    <radialGradient cx="0" cy="0" r="1" id="Gradient_4" gradientUnits="userSpaceOnUse">
      <stop offset="0" stop-color="#2517ff"/>
      <stop offset="1" stop-color="#1542e5"/>
    </radialGradient>
    <radialGradient id="Obj_Gradient_4" xl:href="#Gradient_4" gradientTransform="translate(-1153.213 -259.6447) scale(83.83496)"/>
    <linearGradient x1="0" x2="1" id="Gradient_5" gradientUnits="userSpaceOnUse">
      <stop offset="0" stop-color="white"/>
      <stop offset="1" stop-color="#2242e4"/>
    </linearGradient>
    <linearGradient id="Obj_Gradient_5" xl:href="#Gradient_5" gradientTransform="translate(-1153.9408 -293.2441) rotate(90) scale(25)"/>
  </defs>
  <g stroke="none" stroke-opacity="1" stroke-dasharray="none" fill="none" fill-opacity="1">
    <title>espanyol</title>
    <rect fill="white" width="432.4053" height="448.4"/>
    <g>
      <title>Capa 1</title>
      <path d="M -1214.9943 -293.40955 L -1206.8289 -290.29184 C -1205.9709 -289.96424 -1205.094 -289.68833 -1204.2031 -289.46558 L -1190.4859 -286.0363 C -1189.3242 -285.74587 -1188.1417 -285.54662 -1186.949 -285.44034 L -1169.4228 -283.8786 C -1168.835 -283.82622 -1168.2454 -283.7965 -1167.6552 -283.78946 L -1152.1763 -283.6052 C -1151.886 -283.60173 -1151.5956 -283.60377 -1151.3053 -283.6113 L -1136.882 -283.98594 C -1136.5212 -283.9953 -1136.1607 -284.01317 -1135.8008 -284.0395 L -1121.4295 -285.09107 C -1120.438 -285.1636 -1119.4523 -285.30036 -1118.4786 -285.50044 L -1106.9056 -287.87845 C -1105.8636 -288.09256 -1104.8377 -288.3787 -1103.8353 -288.7348 L -1092.0834 -292.90986 C -1090.993 -293.29723 -1089.7898 -292.76646 -1089.3408 -291.7 L -1089.3408 -291.7 C -1088.8186 -290.4599 -1088.6666 -289.09515 -1088.9032 -287.77055 L -1089.0836 -286.75986 C -1089.3874 -285.0587 -1089.882 -283.3972 -1090.5579 -281.8068 L -1092.1011 -278.1757 C -1092.6596 -276.86142 -1093.3394 -275.60202 -1094.1315 -274.41382 L -1097.8173 -268.88515 C -1098.5648 -267.7639 -1099.4094 -266.7105 -1100.3414 -265.7371 L -1106.6365 -259.16226 C -1107.5045 -258.2556 -1108.4454 -257.42154 -1109.4495 -256.6684 L -1117.8244 -250.38723 C -1118.7009 -249.72992 -1119.6231 -249.13606 -1120.5842 -248.6102 L -1127.7694 -244.67867 C -1129.0805 -243.96126 -1130.4584 -243.37336 -1131.8836 -242.9233 L -1138.5565 -240.81607 C -1140.2734 -240.2739 -1142.048 -239.9352 -1143.8439 -239.80692 L -1150.7303 -239.31503 C -1151.8026 -239.23844 -1152.879 -239.23712 -1153.9515 -239.31108 L -1162.3877 -239.8929 C -1163.4219 -239.96422 -1164.45 -240.10537 -1165.4652 -240.3154 L -1172.6004 -241.79165 C -1174.5524 -242.1955 -1176.4435 -242.8514 -1178.2264 -243.74281 L -1182.8858 -246.07252 C -1184.1199 -246.6896 -1185.296 -247.41646 -1186.3999 -248.24434 L -1192.0818 -252.5058 C -1192.521 -252.83517 -1192.9482 -253.18013 -1193.3626 -253.54005 L -1199.1178 -258.53797 C -1199.9321 -259.2451 -1200.6956 -260.00865 -1201.4028 -260.82294 L -1205.808 -265.89562 C -1206.5621 -266.764 -1207.25 -267.6877 -1207.866 -268.65895 L -1211.5996 -274.5467 C -1211.9602 -275.1153 -1212.2956 -275.69944 -1212.605 -276.29745 L -1214.2253 -279.43017 C -1214.8345 -280.60785 -1215.3406 -281.836 -1215.7382 -283.1009 L -1217.0184 -287.17438 C -1217.2332 -287.85775 -1217.4159 -288.5508 -1217.566 -289.25122 L -1217.6408 -289.6 C -1217.8354 -290.50843 -1217.7282 -291.45557 -1217.3353 -292.29746 L -1217.2408 -292.5 C -1216.8463 -293.3453 -1215.8658 -293.7423 -1214.9943 -293.40955 Z" fill="url(#Obj_Gradient)"/>
      <path d="M -1214.9943 -293.40955 L -1206.8289 -290.29184 C -1205.9709 -289.96424 -1205.094 -289.68833 -1204.2031 -289.46558 L -1190.4859 -286.0363 C -1189.3242 -285.74587 -1188.1417 -285.54662 -1186.949 -285.44034 L -1169.4228 -283.8786 C -1168.835 -283.82622 -1168.2454 -283.7965 -1167.6552 -283.78946 L -1152.1763 -283.6052 C -1151.886 -283.60173 -1151.5956 -283.60377 -1151.3053 -283.6113 L -1136.882 -283.98594 C -1136.5212 -283.9953 -1136.1607 -284.01317 -1135.8008 -284.0395 L -1121.4295 -285.09107 C -1120.438 -285.1636 -1119.4523 -285.30036 -1118.4786 -285.50044 L -1106.9056 -287.87845 C -1105.8636 -288.09256 -1104.8377 -288.3787 -1103.8353 -288.7348 L -1092.0834 -292.90986 C -1090.993 -293.29723 -1089.7898 -292.76646 -1089.3408 -291.7 L -1089.3408 -291.7 C -1088.8186 -290.4599 -1088.6666 -289.09515 -1088.9032 -287.77055 L -1089.0836 -286.75986 C -1089.3874 -285.0587 -1089.882 -283.3972 -1090.5579 -281.8068 L -1092.1011 -278.1757 C -1092.6596 -276.86142 -1093.3394 -275.60202 -1094.1315 -274.41382 L -1097.8173 -268.88515 C -1098.5648 -267.7639 -1099.4094 -266.7105 -1100.3414 -265.7371 L -1106.6365 -259.16226 C -1107.5045 -258.2556 -1108.4454 -257.42154 -1109.4495 -256.6684 L -1117.8244 -250.38723 C -1118.7009 -249.72992 -1119.6231 -249.13606 -1120.5842 -248.6102 L -1127.7694 -244.67867 C -1129.0805 -243.96126 -1130.4584 -243.37336 -1131.8836 -242.9233 L -1138.5565 -240.81607 C -1140.2734 -240.2739 -1142.048 -239.9352 -1143.8439 -239.80692 L -1150.7303 -239.31503 C -1151.8026 -239.23844 -1152.879 -239.23712 -1153.9515 -239.31108 L -1162.3877 -239.8929 C -1163.4219 -239.96422 -1164.45 -240.10537 -1165.4652 -240.3154 L -1172.6004 -241.79165 C -1174.5524 -242.1955 -1176.4435 -242.8514 -1178.2264 -243.74281 L -1182.8858 -246.07252 C -1184.1199 -246.6896 -1185.296 -247.41646 -1186.3999 -248.24434 L -1192.0818 -252.5058 C -1192.521 -252.83517 -1192.9482 -253.18013 -1193.3626 -253.54005 L -1199.1178 -258.53797 C -1199.9321 -259.2451 -1200.6956 -260.00865 -1201.4028 -260.82294 L -1205.808 -265.89562 C -1206.5621 -266.764 -1207.25 -267.6877 -1207.866 -268.65895 L -1211.5996 -274.5467 C -1211.9602 -275.1153 -1212.2956 -275.69944 -1212.605 -276.29745 L -1214.2253 -279.43017 C -1214.8345 -280.60785 -1215.3406 -281.836 -1215.7382 -283.1009 L -1217.0184 -287.17438 C -1217.2332 -287.85775 -1217.4159 -288.5508 -1217.566 -289.25122 L -1217.6408 -289.6 C -1217.8354 -290.50843 -1217.7282 -291.45557 -1217.3353 -292.29746 L -1217.2408 -292.5 C -1216.8463 -293.3453 -1215.8658 -293.7423 -1214.9943 -293.40955 Z" stroke="#7f8080" stroke-linecap="round" stroke-linejoin="round" stroke-width="1"/>
      <path d="M -1279.0265 143.26379 L -1265.2843 145.55416 C -1265.101 145.58472 -1264.917 145.61209 -1264.7327 145.63624 L -1236.379 149.35154 C -1236.1325 149.38385 -1235.8853 149.4104 -1235.6375 149.43118 L -1205.3946 151.96768 C -1205.1377 151.98923 -1204.8803 152.00456 -1204.6227 152.01367 L -1165.6918 153.39002 C -1165.5034 153.39668 -1165.315 153.4 -1165.1265 153.4 L -1133.6592 153.4 C -1133.4925 153.4 -1133.326 153.3974 -1133.1594 153.3922 L -1108.1246 152.60986 C -1107.9144 152.6033 -1107.7043 152.59258 -1107.4945 152.57772 L -1085.4467 151.01682 C -1085.2884 151.00561 -1085.1302 150.99205 -1084.9723 150.97614 L -1059.7119 148.4305 C -1059.5101 148.41017 -1059.3088 148.38601 -1059.108 148.35803 L -1035.3153 145.04265 C -1035.1112 145.01422 -1034.9078 144.98186 -1034.705 144.94558 L -1025.5092 143.3 C -1020.1821 142.34674 -1016.5312 137.39309 -1017.1977 132.02255 L -1019.4052 114.23198 C -1019.4079 114.21066 -1019.4105 114.18934 -1019.413 114.16801 L -1022.9769 84.46949 C -1022.9984 84.28985 -1023.017 84.10985 -1023.0324 83.92958 L -1025.3946 56.37037 C -1025.4043 56.2568 -1025.4129 56.14312 -1025.4202 56.029365 L -1026.8068 34.437722 C -1026.8084 34.412577 -1026.8101 34.387436 -1026.8118 34.3623 L -1028.404 11.275987 C -1028.4075 11.225332 -1028.4107 11.174661 -1028.4137 11.123976 L -1029.5901 -8.678192 C -1029.6028 -8.892706 -1029.6113 -9.107455 -1029.6154 -9.322308 L -1030.0076 -29.917147 C -1030.0087 -29.97238 -1030.01 -30.027606 -1030.0117 -30.082825 L -1030.6068 -50.31717 C -1030.6084 -50.372386 -1030.6097 -50.427613 -1030.6108 -50.482846 L -1031.0015 -70.99239 C -1031.0066 -71.26408 -1031.0049 -71.53587 -1030.9962 -71.80747 L -1030.4103 -90.16708 C -1030.4096 -90.18903 -1030.4088 -90.21097 -1030.408 -90.23291 L -1029.62 -112.10221 C -1029.6128 -112.30072 -1029.602 -112.49907 -1029.5874 -112.69717 L -1028.0299 -133.91779 C -1028.0161 -134.10591 -1028.0056 -134.29427 -1027.9985 -134.48276 L -1027.244 -154.38163 C -1027.2208 -154.99337 -1027.1626 -155.60328 -1027.0695 -156.20835 L -1024.3305 -174.01187 C -1024.2497 -174.53696 -1024.1428 -175.05771 -1024.0102 -175.57217 L -1019.382 -193.52983 C -1019.2668 -193.9764 -1019.1325 -194.41779 -1018.9793 -194.85275 L -1013.2585 -211.0924 C -1013.0924 -211.56387 -1012.9043 -212.0273 -1012.6948 -212.48117 L -1007.1633 -224.4662 C -1007.0606 -224.6887 -1006.9528 -224.90881 -1006.84 -225.12636 L -1001.4778 -235.46778 C -1001.4321 -235.55593 -1001.3855 -235.64364 -1001.3382 -235.73092 L -996.1222 -245.34788 C -995.385 -246.70724 -994.4353 -247.94013 -993.3092 -249 L -993.3092 -249 C -992.634 -249.63547 -992.6018 -250.69797 -993.2373 -251.37316 C -993.3618 -251.50544 -993.5069 -251.61663 -993.667 -251.7024 L -996.8812 -253.42427 C -997.0998 -253.5414 -997.3212 -253.65344 -997.545 -253.7603 L -1005.399 -257.50878 C -1005.8056 -257.70284 -1006.2203 -257.87964 -1006.6418 -258.0387 L -1016.3166 -261.6896 C -1016.5117 -261.7632 -1016.7081 -261.83297 -1016.9059 -261.8989 L -1029.6004 -266.1304 C -1029.7396 -266.1768 -1029.8794 -266.22128 -1030.0199 -266.26384 L -1042.9034 -270.16794 C -1042.974 -270.1893 -1043.0443 -270.21117 -1043.1146 -270.23352 L -1055.6186 -274.21206 C -1056.0122 -274.3373 -1056.4008 -274.47775 -1056.7836 -274.63307 L -1068.7595 -279.49287 C -1069.5912 -279.83036 -1070.393 -280.23723 -1071.1564 -280.70917 L -1080.7756 -286.6556 C -1080.9313 -286.75186 -1081.0854 -286.85078 -1081.2377 -286.95232 L -1086.1278 -290.2124 C -1087.1092 -290.86665 -1087.9805 -291.67255 -1088.7092 -292.6 L -1088.7092 -292.6 C -1088.8148 -292.7344 -1089.0094 -292.75775 -1089.1438 -292.65215 C -1089.2465 -292.57142 -1089.2875 -292.43487 -1089.2462 -292.3109 L -1089.1092 -291.9 C -1088.65 -290.52225 -1088.5454 -289.05096 -1088.8052 -287.6221 L -1089.2003 -285.44885 C -1089.4715 -283.9572 -1089.9534 -282.51165 -1090.6314 -281.1556 L -1092.1637 -278.09096 C -1092.4604 -277.49756 -1092.7938 -276.9232 -1093.1618 -276.37117 L -1096.3655 -271.56562 C -1096.7941 -270.92272 -1097.2687 -270.3117 -1097.7856 -269.7374 L -1102.3476 -264.66844 C -1102.3887 -264.6228 -1102.43 -264.57742 -1102.4716 -264.53227 L -1108.4658 -258.02424 C -1109.0936 -257.3427 -1109.7793 -256.71698 -1110.5154 -256.15413 L -1115.5395 -252.3121 C -1115.9857 -251.97094 -1116.4495 -251.6535 -1116.929 -251.3611 L -1123.4154 -247.40597 C -1124.0771 -247.00252 -1124.7672 -246.64768 -1125.4803 -246.34424 L -1132.5957 -243.3164 C -1133.4033 -242.97272 -1134.2379 -242.69607 -1135.091 -242.48928 L -1139.17 -241.5004 C -1139.9948 -241.30045 -1140.8343 -241.16644 -1141.6804 -241.09965 L -1147.3806 -240.64963 C -1147.7995 -240.61656 -1148.2196 -240.6 -1148.6398 -240.6 L -1155.6721 -240.6 C -1156.4292 -240.6 -1157.1854 -240.65374 -1157.9349 -240.7608 L -1165.8813 -241.896 C -1166.3663 -241.9653 -1166.8479 -242.05683 -1167.3245 -242.1703 L -1173.2857 -243.58965 C -1174.4312 -243.86238 -1175.5431 -244.26073 -1176.6012 -244.77747 L -1182.8812 -247.84444 C -1183.3662 -248.08133 -1183.839 -248.3426 -1184.2976 -248.62728 L -1188.5095 -251.24154 C -1189.1086 -251.61344 -1189.6826 -252.02454 -1190.2275 -252.47216 L -1194.6736 -256.12432 C -1194.8973 -256.30807 -1195.116 -256.49786 -1195.3294 -256.69348 L -1199.1317 -260.17896 C -1199.583 -260.59264 -1200.0102 -261.0319 -1200.4111 -261.49454 L -1204.5299 -266.24693 C -1204.8493 -266.61545 -1205.1516 -266.99838 -1205.436 -267.3945 L -1209.8657 -273.5644 C -1210.3606 -274.2537 -1210.7999 -274.9813 -1211.1794 -275.74028 L -1213.7558 -280.8932 C -1213.7914 -280.9644 -1213.8265 -281.03586 -1213.861 -281.10758 L -1215.1092 -283.7 C -1215.96 -285.46687 -1216.3155 -287.4314 -1216.1379 -289.38436 L -1215.9577 -291.3666 C -1215.9339 -291.62848 -1216.1269 -291.86006 -1216.3887 -291.88386 C -1216.5511 -291.89862 -1216.7098 -291.82925 -1216.8092 -291.7 L -1216.8092 -291.7 C -1217.4727 -290.83752 -1218.2528 -290.07144 -1219.1271 -289.42375 L -1223.0237 -286.53743 C -1223.1474 -286.4458 -1223.2724 -286.356 -1223.3986 -286.26798 L -1228.0209 -283.0464 C -1229.2076 -282.2193 -1230.501 -281.55692 -1231.8658 -281.07742 L -1236.4729 -279.4587 C -1236.9635 -279.28633 -1237.4454 -279.09016 -1237.9168 -278.87087 L -1244.7636 -275.68632 C -1245.4598 -275.36253 -1246.1783 -275.08926 -1246.9137 -274.86864 L -1257.7841 -271.60752 C -1257.8009 -271.6025 -1257.8176 -271.59746 -1257.8343 -271.5924 L -1268.8024 -268.2628 C -1268.9403 -268.22093 -1269.0776 -268.1772 -1269.2143 -268.13164 L -1282.1355 -263.82456 C -1282.1847 -263.8082 -1282.2339 -263.79205 -1282.2831 -263.77616 L -1293.6505 -260.10925 C -1294.289 -259.9033 -1294.914 -259.65737 -1295.5215 -259.37296 L -1303.4535 -255.66012 C -1303.8238 -255.48677 -1304.1874 -255.2993 -1304.5434 -255.09808 L -1310.4895 -251.73724 C -1311.7425 -251.029 -1312.1842 -249.43907 -1311.476 -248.18604 C -1311.3988 -248.0496 -1311.3096 -247.9204 -1311.2092 -247.8 L -1310.3451 -246.76307 C -1309.5902 -245.85713 -1308.9377 -244.8705 -1308.3996 -243.82118 L -1305.3224 -237.82076 C -1305.247 -237.6736 -1305.1692 -237.5276 -1305.0892 -237.38285 L -1301.1345 -230.22663 C -1301.051 -230.07555 -1300.97 -229.92313 -1300.8914 -229.76943 L -1296.783 -221.73144 C -1296.534 -221.24413 -1296.3101 -220.74437 -1296.1122 -220.2341 L -1292.6295 -211.25224 C -1292.616 -211.2174 -1292.6023 -211.18263 -1292.5886 -211.1479 L -1288.9923 -202.06246 C -1288.8703 -201.75423 -1288.7579 -201.44228 -1288.6552 -201.12706 L -1286.0334 -193.07428 C -1286.0173 -193.02476 -1286.0014 -192.97516 -1285.9858 -192.92548 L -1282.9137 -183.1672 C -1282.7109 -182.52305 -1282.5491 -181.8667 -1282.4293 -181.20208 L -1280.444 -170.19263 C -1280.4208 -170.06421 -1280.3992 -169.93552 -1280.3792 -169.80658 L -1278.6733 -158.8132 C -1278.6306 -158.53778 -1278.595 -158.26129 -1278.5668 -157.98402 L -1277.6794 -149.2873 C -1277.6326 -148.82931 -1277.6057 -148.36952 -1277.5986 -147.9092 L -1277.4144 -135.93359 C -1277.411 -135.71122 -1277.4029 -135.48895 -1277.3902 -135.26691 L -1276.6198 -121.78535 C -1276.6127 -121.66179 -1276.6043 -121.5383 -1276.5943 -121.41494 L -1275.2608 -104.84057 C -1275.2264 -104.41369 -1275.2092 -103.98561 -1275.2092 -103.55736 L -1275.2092 -91.10758 C -1275.2092 -90.90254 -1275.2053 -90.69753 -1275.1974 -90.49265 L -1274.617 -75.40351 C -1274.6118 -75.26784 -1274.6083 -75.13211 -1274.6066 -74.99635 L -1274.4144 -60.2001 C -1274.411 -59.933405 -1274.4142 -59.66667 -1274.424 -59.400136 L -1274.9983 -43.89599 C -1275.0056 -43.698677 -1275.0092 -43.50125 -1275.0092 -43.3038 L -1275.0092 -29.707575 C -1275.0092 -29.50254 -1275.0132 -29.297527 -1275.021 -29.092645 L -1275.6062 -13.877642 C -1275.6082 -13.825878 -1275.6105 -13.774124 -1275.613 -13.722382 L -1276.4083 2.7805534 C -1276.4089 2.7935208 -1276.4095 2.8064873 -1276.4102 2.819453 L -1277.2047 18.51062 C -1277.2077 18.57021 -1277.211 18.629781 -1277.2147 18.689333 L -1278.4037 37.910067 C -1278.4074 37.970025 -1278.4114 38.02996 -1278.4158 38.089874 L -1280.199 62.45942 C -1280.2058 62.55314 -1280.2135 62.6468 -1280.222 62.740385 L -1282.0079 82.3852 C -1282.0088 82.39507 -1282.0097 82.40494 -1282.0106 82.41481 L -1283.7814 101.49972 C -1283.8 101.69989 -1283.8223 101.8997 -1283.8484 102.09903 L -1285.8091 117.07175 C -1285.9419 118.08594 -1286.211 119.07756 -1286.6092 120.01973 L -1286.6092 120.01973 C -1287.0068 120.96048 -1287.2555 121.9574 -1287.3463 122.97465 L -1288.1092 131.51973 C -1288.617 137.20676 -1284.6585 142.32512 -1279.0265 143.26379 Z" fill="white"/>
      <path d="M -1279.0265 143.26379 L -1265.2843 145.55416 C -1265.101 145.58472 -1264.917 145.61209 -1264.7327 145.63624 L -1236.379 149.35154 C -1236.1325 149.38385 -1235.8853 149.4104 -1235.6375 149.43118 L -1205.3946 151.96768 C -1205.1377 151.98923 -1204.8803 152.00456 -1204.6227 152.01367 L -1165.6918 153.39002 C -1165.5034 153.39668 -1165.315 153.4 -1165.1265 153.4 L -1133.6592 153.4 C -1133.4925 153.4 -1133.326 153.3974 -1133.1594 153.3922 L -1108.1246 152.60986 C -1107.9144 152.6033 -1107.7043 152.59258 -1107.4945 152.57772 L -1085.4467 151.01682 C -1085.2884 151.00561 -1085.1302 150.99205 -1084.9723 150.97614 L -1059.7119 148.4305 C -1059.5101 148.41017 -1059.3088 148.38601 -1059.108 148.35803 L -1035.3153 145.04265 C -1035.1112 145.01422 -1034.9078 144.98186 -1034.705 144.94558 L -1025.5092 143.3 C -1020.1821 142.34674 -1016.5312 137.39309 -1017.1977 132.02255 L -1019.4052 114.23198 C -1019.4079 114.21066 -1019.4105 114.18934 -1019.413 114.16801 L -1022.9769 84.46949 C -1022.9984 84.28985 -1023.017 84.10985 -1023.0324 83.92958 L -1025.3946 56.37037 C -1025.4043 56.2568 -1025.4129 56.14312 -1025.4202 56.029365 L -1026.8068 34.437722 C -1026.8084 34.412577 -1026.8101 34.387436 -1026.8118 34.3623 L -1028.404 11.275987 C -1028.4075 11.225332 -1028.4107 11.174661 -1028.4137 11.123976 L -1029.5901 -8.678192 C -1029.6028 -8.892706 -1029.6113 -9.107455 -1029.6154 -9.322308 L -1030.0076 -29.917147 C -1030.0087 -29.97238 -1030.01 -30.027606 -1030.0117 -30.082825 L -1030.6068 -50.31717 C -1030.6084 -50.372386 -1030.6097 -50.427613 -1030.6108 -50.482846 L -1031.0015 -70.99239 C -1031.0066 -71.26408 -1031.0049 -71.53587 -1030.9962 -71.80747 L -1030.4103 -90.16708 C -1030.4096 -90.18903 -1030.4088 -90.21097 -1030.408 -90.23291 L -1029.62 -112.10221 C -1029.6128 -112.30072 -1029.602 -112.49907 -1029.5874 -112.69717 L -1028.0299 -133.91779 C -1028.0161 -134.10591 -1028.0056 -134.29427 -1027.9985 -134.48276 L -1027.244 -154.38163 C -1027.2208 -154.99337 -1027.1626 -155.60328 -1027.0695 -156.20835 L -1024.3305 -174.01187 C -1024.2497 -174.53696 -1024.1428 -175.05771 -1024.0102 -175.57217 L -1019.382 -193.52983 C -1019.2668 -193.9764 -1019.1325 -194.41779 -1018.9793 -194.85275 L -1013.2585 -211.0924 C -1013.0924 -211.56387 -1012.9043 -212.0273 -1012.6948 -212.48117 L -1007.1633 -224.4662 C -1007.0606 -224.6887 -1006.9528 -224.90881 -1006.84 -225.12636 L -1001.4778 -235.46778 C -1001.4321 -235.55593 -1001.3855 -235.64364 -1001.3382 -235.73092 L -996.1222 -245.34788 C -995.385 -246.70724 -994.4353 -247.94013 -993.3092 -249 L -993.3092 -249 C -992.634 -249.63547 -992.6018 -250.69797 -993.2373 -251.37316 C -993.3618 -251.50544 -993.5069 -251.61663 -993.667 -251.7024 L -996.8812 -253.42427 C -997.0998 -253.5414 -997.3212 -253.65344 -997.545 -253.7603 L -1005.399 -257.50878 C -1005.8056 -257.70284 -1006.2203 -257.87964 -1006.6418 -258.0387 L -1016.3166 -261.6896 C -1016.5117 -261.7632 -1016.7081 -261.83297 -1016.9059 -261.8989 L -1029.6004 -266.1304 C -1029.7396 -266.1768 -1029.8794 -266.22128 -1030.0199 -266.26384 L -1042.9034 -270.16794 C -1042.974 -270.1893 -1043.0443 -270.21117 -1043.1146 -270.23352 L -1055.6186 -274.21206 C -1056.0122 -274.3373 -1056.4008 -274.47775 -1056.7836 -274.63307 L -1068.7595 -279.49287 C -1069.5912 -279.83036 -1070.393 -280.23723 -1071.1564 -280.70917 L -1080.7756 -286.6556 C -1080.9313 -286.75186 -1081.0854 -286.85078 -1081.2377 -286.95232 L -1086.1278 -290.2124 C -1087.1092 -290.86665 -1087.9805 -291.67255 -1088.7092 -292.6 L -1088.7092 -292.6 C -1088.8148 -292.7344 -1089.0094 -292.75775 -1089.1438 -292.65215 C -1089.2465 -292.57142 -1089.2875 -292.43487 -1089.2462 -292.3109 L -1089.1092 -291.9 C -1088.65 -290.52225 -1088.5454 -289.05096 -1088.8052 -287.6221 L -1089.2003 -285.44885 C -1089.4715 -283.9572 -1089.9534 -282.51165 -1090.6314 -281.1556 L -1092.1637 -278.09096 C -1092.4604 -277.49756 -1092.7938 -276.9232 -1093.1618 -276.37117 L -1096.3655 -271.56562 C -1096.7941 -270.92272 -1097.2687 -270.3117 -1097.7856 -269.7374 L -1102.3476 -264.66844 C -1102.3887 -264.6228 -1102.43 -264.57742 -1102.4716 -264.53227 L -1108.4658 -258.02424 C -1109.0936 -257.3427 -1109.7793 -256.71698 -1110.5154 -256.15413 L -1115.5395 -252.3121 C -1115.9857 -251.97094 -1116.4495 -251.6535 -1116.929 -251.3611 L -1123.4154 -247.40597 C -1124.0771 -247.00252 -1124.7672 -246.64768 -1125.4803 -246.34424 L -1132.5957 -243.3164 C -1133.4033 -242.97272 -1134.2379 -242.69607 -1135.091 -242.48928 L -1139.17 -241.5004 C -1139.9948 -241.30045 -1140.8343 -241.16644 -1141.6804 -241.09965 L -1147.3806 -240.64963 C -1147.7995 -240.61656 -1148.2196 -240.6 -1148.6398 -240.6 L -1155.6721 -240.6 C -1156.4292 -240.6 -1157.1854 -240.65374 -1157.9349 -240.7608 L -1165.8813 -241.896 C -1166.3663 -241.9653 -1166.8479 -242.05683 -1167.3245 -242.1703 L -1173.2857 -243.58965 C -1174.4312 -243.86238 -1175.5431 -244.26073 -1176.6012 -244.77747 L -1182.8812 -247.84444 C -1183.3662 -248.08133 -1183.839 -248.3426 -1184.2976 -248.62728 L -1188.5095 -251.24154 C -1189.1086 -251.61344 -1189.6826 -252.02454 -1190.2275 -252.47216 L -1194.6736 -256.12432 C -1194.8973 -256.30807 -1195.116 -256.49786 -1195.3294 -256.69348 L -1199.1317 -260.17896 C -1199.583 -260.59264 -1200.0102 -261.0319 -1200.4111 -261.49454 L -1204.5299 -266.24693 C -1204.8493 -266.61545 -1205.1516 -266.99838 -1205.436 -267.3945 L -1209.8657 -273.5644 C -1210.3606 -274.2537 -1210.7999 -274.9813 -1211.1794 -275.74028 L -1213.7558 -280.8932 C -1213.7914 -280.9644 -1213.8265 -281.03586 -1213.861 -281.10758 L -1215.1092 -283.7 C -1215.96 -285.46687 -1216.3155 -287.4314 -1216.1379 -289.38436 L -1215.9577 -291.3666 C -1215.9339 -291.62848 -1216.1269 -291.86006 -1216.3887 -291.88386 C -1216.5511 -291.89862 -1216.7098 -291.82925 -1216.8092 -291.7 L -1216.8092 -291.7 C -1217.4727 -290.83752 -1218.2528 -290.07144 -1219.1271 -289.42375 L -1223.0237 -286.53743 C -1223.1474 -286.4458 -1223.2724 -286.356 -1223.3986 -286.26798 L -1228.0209 -283.0464 C -1229.2076 -282.2193 -1230.501 -281.55692 -1231.8658 -281.07742 L -1236.4729 -279.4587 C -1236.9635 -279.28633 -1237.4454 -279.09016 -1237.9168 -278.87087 L -1244.7636 -275.68632 C -1245.4598 -275.36253 -1246.1783 -275.08926 -1246.9137 -274.86864 L -1257.7841 -271.60752 C -1257.8009 -271.6025 -1257.8176 -271.59746 -1257.8343 -271.5924 L -1268.8024 -268.2628 C -1268.9403 -268.22093 -1269.0776 -268.1772 -1269.2143 -268.13164 L -1282.1355 -263.82456 C -1282.1847 -263.8082 -1282.2339 -263.79205 -1282.2831 -263.77616 L -1293.6505 -260.10925 C -1294.289 -259.9033 -1294.914 -259.65737 -1295.5215 -259.37296 L -1303.4535 -255.66012 C -1303.8238 -255.48677 -1304.1874 -255.2993 -1304.5434 -255.09808 L -1310.4895 -251.73724 C -1311.7425 -251.029 -1312.1842 -249.43907 -1311.476 -248.18604 C -1311.3988 -248.0496 -1311.3096 -247.9204 -1311.2092 -247.8 L -1310.3451 -246.76307 C -1309.5902 -245.85713 -1308.9377 -244.8705 -1308.3996 -243.82118 L -1305.3224 -237.82076 C -1305.247 -237.6736 -1305.1692 -237.5276 -1305.0892 -237.38285 L -1301.1345 -230.22663 C -1301.051 -230.07555 -1300.97 -229.92313 -1300.8914 -229.76943 L -1296.783 -221.73144 C -1296.534 -221.24413 -1296.3101 -220.74437 -1296.1122 -220.2341 L -1292.6295 -211.25224 C -1292.616 -211.2174 -1292.6023 -211.18263 -1292.5886 -211.1479 L -1288.9923 -202.06246 C -1288.8703 -201.75423 -1288.7579 -201.44228 -1288.6552 -201.12706 L -1286.0334 -193.07428 C -1286.0173 -193.02476 -1286.0014 -192.97516 -1285.9858 -192.92548 L -1282.9137 -183.1672 C -1282.7109 -182.52305 -1282.5491 -181.8667 -1282.4293 -181.20208 L -1280.444 -170.19263 C -1280.4208 -170.06421 -1280.3992 -169.93552 -1280.3792 -169.80658 L -1278.6733 -158.8132 C -1278.6306 -158.53778 -1278.595 -158.26129 -1278.5668 -157.98402 L -1277.6794 -149.2873 C -1277.6326 -148.82931 -1277.6057 -148.36952 -1277.5986 -147.9092 L -1277.4144 -135.93359 C -1277.411 -135.71122 -1277.4029 -135.48895 -1277.3902 -135.26691 L -1276.6198 -121.78535 C -1276.6127 -121.66179 -1276.6043 -121.5383 -1276.5943 -121.41494 L -1275.2608 -104.84057 C -1275.2264 -104.41369 -1275.2092 -103.98561 -1275.2092 -103.55736 L -1275.2092 -91.10758 C -1275.2092 -90.90254 -1275.2053 -90.69753 -1275.1974 -90.49265 L -1274.617 -75.40351 C -1274.6118 -75.26784 -1274.6083 -75.13211 -1274.6066 -74.99635 L -1274.4144 -60.2001 C -1274.411 -59.933405 -1274.4142 -59.66667 -1274.424 -59.400136 L -1274.9983 -43.89599 C -1275.0056 -43.698677 -1275.0092 -43.50125 -1275.0092 -43.3038 L -1275.0092 -29.707575 C -1275.0092 -29.50254 -1275.0132 -29.297527 -1275.021 -29.092645 L -1275.6062 -13.877642 C -1275.6082 -13.825878 -1275.6105 -13.774124 -1275.613 -13.722382 L -1276.4083 2.7805534 C -1276.4089 2.7935208 -1276.4095 2.8064873 -1276.4102 2.819453 L -1277.2047 18.51062 C -1277.2077 18.57021 -1277.211 18.629781 -1277.2147 18.689333 L -1278.4037 37.910067 C -1278.4074 37.970025 -1278.4114 38.02996 -1278.4158 38.089874 L -1280.199 62.45942 C -1280.2058 62.55314 -1280.2135 62.6468 -1280.222 62.740385 L -1282.0079 82.3852 C -1282.0088 82.39507 -1282.0097 82.40494 -1282.0106 82.41481 L -1283.7814 101.49972 C -1283.8 101.69989 -1283.8223 101.8997 -1283.8484 102.09903 L -1285.8091 117.07175 C -1285.9419 118.08594 -1286.211 119.07756 -1286.6092 120.01973 L -1286.6092 120.01973 C -1287.0068 120.96048 -1287.2555 121.9574 -1287.3463 122.97465 L -1288.1092 131.51973 C -1288.617 137.20676 -1284.6585 142.32512 -1279.0265 143.26379 Z" stroke="#7f8080" stroke-linecap="round" stroke-linejoin="round" stroke-width="1"/>
      <path d="M -1368 -142.55385 L -1361.8 -138.15385 L -1353.6 -134.15385 L -1345 -130.55385 L -1336 -126.75385 L -1325 -122.75385 L -1315.6 -119.95385 L -1306.6 -117.35385 L -1297.6 -114.75385 L -1292.2 -113.35385 L -1286.6 -112.35385 L -1284.2 -118.15385 L -1281.6 -123.55385 L -1279.4 -127.55385 L -1276.8 -130.95385 L -1276.6 -139.95385 L -1277.2 -150.95385 L -1279 -161.75385 L -1280.6 -172.15385 L -1283.2 -183.15386 L -1285.6 -192.75386 L -1288.4 -200.75386 L -1291.6 -210.15386 L -1294.4 -217.55386 L -1298 -225.15386 L -1302 -232.75386 L -1306 -240.15386 L -1308.6 -243.75386 L -1312.2 -249.55386 L -1317.6 -245.15386 L -1322.4 -240.35386 L -1327 -234.15386 L -1331.4 -227.95386 L -1336.2 -219.35386 L -1341 -209.95386 L -1345.8 -200.75386 L -1349.4 -192.15386 L -1353.4 -183.15386 L -1356.6 -174.95385 L -1360.4 -165.55385 L -1363.2 -157.55385 L -1366.2 -149.15385 Z" fill="white"/>
      <path d="M -1368 -142.55385 L -1361.8 -138.15385 L -1353.6 -134.15385 L -1345 -130.55385 L -1336 -126.75385 L -1325 -122.75385 L -1315.6 -119.95385 L -1306.6 -117.35385 L -1297.6 -114.75385 L -1292.2 -113.35385 L -1286.6 -112.35385 L -1284.2 -118.15385 L -1281.6 -123.55385 L -1279.4 -127.55385 L -1276.8 -130.95385 L -1276.6 -139.95385 L -1277.2 -150.95385 L -1279 -161.75385 L -1280.6 -172.15385 L -1283.2 -183.15386 L -1285.6 -192.75386 L -1288.4 -200.75386 L -1291.6 -210.15386 L -1294.4 -217.55386 L -1298 -225.15386 L -1302 -232.75386 L -1306 -240.15386 L -1308.6 -243.75386 L -1312.2 -249.55386 L -1317.6 -245.15386 L -1322.4 -240.35386 L -1327 -234.15386 L -1331.4 -227.95386 L -1336.2 -219.35386 L -1341 -209.95386 L -1345.8 -200.75386 L -1349.4 -192.15386 L -1353.4 -183.15386 L -1356.6 -174.95385 L -1360.4 -165.55385 L -1363.2 -157.55385 L -1366.2 -149.15385 Z" stroke="#7f8080" stroke-linecap="round" stroke-linejoin="round" stroke-width="1"/>
      <path d="M -936.5947 -143.49725 L -942.7947 -139.09725 L -950.9947 -135.09725 L -959.5947 -131.49725 L -968.5947 -127.69725 L -979.5947 -123.69725 L -988.9947 -120.89725 L -997.9947 -118.29725 L -1006.9947 -115.69725 L -1012.3947 -114.29725 L -1017.9947 -113.29725 L -1020.3947 -119.09725 L -1022.9947 -124.49725 L -1025.1947 -128.49725 L -1027.7947 -131.89725 L -1027.9947 -140.89725 L -1027.3947 -151.89725 L -1025.5947 -162.69725 L -1023.9947 -173.09725 L -1021.3947 -184.09725 L -1018.9947 -193.69725 L -1016.1947 -201.69725 L -1012.9947 -211.09725 L -1010.1947 -218.49725 L -1006.5947 -226.09725 L -1002.5947 -233.69725 L -998.5947 -241.09725 L -995.9947 -244.69725 L -992.3947 -250.49725 L -986.9947 -246.09725 L -982.1947 -241.29725 L -977.5947 -235.09725 L -973.1947 -228.89725 L -968.3947 -220.29725 L -963.5947 -210.89725 L -958.7947 -201.69725 L -955.1947 -193.09725 L -951.1947 -184.09725 L -947.9947 -175.89725 L -944.1947 -166.49725 L -941.3947 -158.49725 L -938.3947 -150.09725 Z" fill="white"/>
      <path d="M -936.5947 -143.49725 L -942.7947 -139.09725 L -950.9947 -135.09725 L -959.5947 -131.49725 L -968.5947 -127.69725 L -979.5947 -123.69725 L -988.9947 -120.89725 L -997.9947 -118.29725 L -1006.9947 -115.69725 L -1012.3947 -114.29725 L -1017.9947 -113.29725 L -1020.3947 -119.09725 L -1022.9947 -124.49725 L -1025.1947 -128.49725 L -1027.7947 -131.89725 L -1027.9947 -140.89725 L -1027.3947 -151.89725 L -1025.5947 -162.69725 L -1023.9947 -173.09725 L -1021.3947 -184.09725 L -1018.9947 -193.69725 L -1016.1947 -201.69725 L -1012.9947 -211.09725 L -1010.1947 -218.49725 L -1006.5947 -226.09725 L -1002.5947 -233.69725 L -998.5947 -241.09725 L -995.9947 -244.69725 L -992.3947 -250.49725 L -986.9947 -246.09725 L -982.1947 -241.29725 L -977.5947 -235.09725 L -973.1947 -228.89725 L -968.3947 -220.29725 L -963.5947 -210.89725 L -958.7947 -201.69725 L -955.1947 -193.09725 L -951.1947 -184.09725 L -947.9947 -175.89725 L -944.1947 -166.49725 L -941.3947 -158.49725 L -938.3947 -150.09725 Z" stroke="#7f8080" stroke-linecap="round" stroke-linejoin="round" stroke-width="1"/>
      <path d="M -1368 -142.55385 L -1361.8 -138.15385 L -1353.6 -134.15385 L -1345 -130.55385 L -1336 -126.75385 L -1325 -122.75385 L -1315.6 -119.95385 L -1306.6 -117.35385 L -1297.6 -114.75385 L -1292.2 -113.35385 L -1286.6 -112.35385 L -1283.6 -118.75385 L -1287.4 -119.55385 L -1292.2 -120.75385 L -1297.8 -121.95385 L -1303.8 -123.75385 L -1308.4 -125.15385 L -1312.6 -126.35385 L -1317.2 -128.35385 L -1321.8 -129.95385 L -1326.6 -131.95385 L -1330.6 -133.35385 L -1335.8 -135.55385 L -1340.4 -137.15385 L -1345.2 -139.35385 L -1350 -141.15385 L -1354 -143.15385 L -1358.4 -145.35385 L -1362.8 -147.55385 L -1366.2 -149.15385 Z" fill="url(#Obj_Gradient_2)"/>
      <path d="M -1368 -142.55385 L -1361.8 -138.15385 L -1353.6 -134.15385 L -1345 -130.55385 L -1336 -126.75385 L -1325 -122.75385 L -1315.6 -119.95385 L -1306.6 -117.35385 L -1297.6 -114.75385 L -1292.2 -113.35385 L -1286.6 -112.35385 L -1283.6 -118.75385 L -1287.4 -119.55385 L -1292.2 -120.75385 L -1297.8 -121.95385 L -1303.8 -123.75385 L -1308.4 -125.15385 L -1312.6 -126.35385 L -1317.2 -128.35385 L -1321.8 -129.95385 L -1326.6 -131.95385 L -1330.6 -133.35385 L -1335.8 -135.55385 L -1340.4 -137.15385 L -1345.2 -139.35385 L -1350 -141.15385 L -1354 -143.15385 L -1358.4 -145.35385 L -1362.8 -147.55385 L -1366.2 -149.15385 Z" stroke="#7f8080" stroke-linecap="round" stroke-linejoin="round" stroke-width="1"/>
      <path d="M -936.5947 -143.49725 L -942.7947 -139.09725 L -950.9947 -135.09725 L -959.5947 -131.49725 L -968.5947 -127.69725 L -979.5947 -123.69725 L -988.9947 -120.89725 L -997.9947 -118.29725 L -1006.9947 -115.69725 L -1012.3947 -114.29725 L -1017.9947 -113.29725 L -1020.9947 -119.69725 L -1017.1947 -120.49725 L -1012.3947 -121.69725 L -1006.7947 -122.89725 L -1000.7947 -124.69725 L -996.1947 -126.09725 L -991.9947 -127.29725 L -987.3947 -129.29725 L -982.7947 -130.89725 L -977.9947 -132.89725 L -973.9947 -134.29725 L -968.7947 -136.49725 L -964.1947 -138.09725 L -959.3947 -140.29725 L -954.5947 -142.09725 L -950.5947 -144.09725 L -946.1947 -146.29725 L -941.7947 -148.49725 L -938.3947 -150.09725 Z" fill="url(#Obj_Gradient_3)"/>
      <path d="M -936.5947 -143.49725 L -942.7947 -139.09725 L -950.9947 -135.09725 L -959.5947 -131.49725 L -968.5947 -127.69725 L -979.5947 -123.69725 L -988.9947 -120.89725 L -997.9947 -118.29725 L -1006.9947 -115.69725 L -1012.3947 -114.29725 L -1017.9947 -113.29725 L -1020.9947 -119.69725 L -1017.1947 -120.49725 L -1012.3947 -121.69725 L -1006.7947 -122.89725 L -1000.7947 -124.69725 L -996.1947 -126.09725 L -991.9947 -127.29725 L -987.3947 -129.29725 L -982.7947 -130.89725 L -977.9947 -132.89725 L -973.9947 -134.29725 L -968.7947 -136.49725 L -964.1947 -138.09725 L -959.3947 -140.29725 L -954.5947 -142.09725 L -950.5947 -144.09725 L -946.1947 -146.29725 L -941.7947 -148.49725 L -938.3947 -150.09725 Z" stroke="#7f8080" stroke-linecap="round" stroke-linejoin="round" stroke-width="1"/>
      <path d="M -1217.4279 -292.0362 L -1222.157 -287.98264 C -1223.3074 -286.99662 -1224.5524 -286.1267 -1225.8738 -285.3855 L -1228.4004 -283.96835 C -1229.8356 -283.16338 -1230.4164 -281.39425 -1229.7376 -279.89527 L -1228.72 -277.64803 C -1228.5984 -277.37954 -1228.4717 -277.11342 -1228.3399 -276.8498 L -1226.5376 -273.24526 L -1224.0506 -268.2713 C -1223.7088 -267.5877 -1223.3332 -266.92157 -1222.925 -266.27537 L -1220.5987 -262.59192 C -1220.1583 -261.89465 -1219.6807 -261.22158 -1219.168 -260.5756 L -1215.7574 -256.27815 C -1215.2113 -255.59013 -1214.6263 -254.93394 -1214.0052 -254.31283 L -1209.3391 -249.6468 C -1208.9383 -249.2459 -1208.5227 -248.86 -1208.0933 -248.48982 L -1203.5298 -244.55574 C -1203.1351 -244.21552 -1202.729 -243.8888 -1202.3122 -243.57617 L -1198.3372 -240.59497 C -1197.6713 -240.09553 -1196.9788 -239.63262 -1196.2627 -239.20826 L -1192.1296 -236.75904 C -1192.0016 -236.6832 -1191.8729 -236.60859 -1191.7434 -236.53523 L -1187.0459 -233.8733 C -1186.3076 -233.45493 -1185.5467 -233.07774 -1184.7667 -232.74347 L -1181.217 -231.22212 C -1180.631 -230.971 -1180.0348 -230.74433 -1179.43 -230.54274 L -1174.4119 -228.87003 C -1173.1647 -228.45429 -1171.8841 -228.14624 -1170.5842 -227.9493 L -1166.4854 -227.32826 C -1166.1202 -227.27294 -1165.7539 -227.22642 -1165.3865 -227.18874 L -1158.5054 -226.48299 C -1158.2602 -226.45784 -1158.0147 -226.43664 -1157.7688 -226.41938 L -1153.2417 -226.1017 C -1152.7058 -226.06409 -1152.1688 -226.04527 -1151.6316 -226.04527 L -1148.3695 -226.04526 C -1147.4158 -226.04526 -1146.463 -226.10458 -1145.5167 -226.22287 L -1141.528 -226.72146 C -1140.868 -226.80396 -1140.212 -226.91504 -1139.5616 -227.0544 L -1133.4796 -228.3577 C -1132.5857 -228.54924 -1131.7041 -228.7939 -1130.8393 -229.0904 L -1126.3305 -230.63628 C -1125.5358 -230.90873 -1124.7567 -231.2245 -1123.9966 -231.5822 L -1119.1632 -233.85674 C -1118.613 -234.11565 -1118.0733 -234.3963 -1117.5454 -234.69798 L -1113.7775 -236.85104 C -1113.0847 -237.24692 -1112.413 -237.67858 -1111.765 -238.14428 L -1107.089 -241.50525 C -1106.5883 -241.8651 -1106.1022 -242.24497 -1105.6321 -242.6439 L -1100.3112 -247.15856 C -1099.9289 -247.48294 -1099.5573 -247.81974 -1099.197 -248.16842 L -1094.4978 -252.71604 C -1093.8582 -253.335 -1093.2551 -253.99056 -1092.6915 -254.67942 L -1088.8982 -259.31566 C -1088.3915 -259.93497 -1087.9174 -260.5803 -1087.478 -261.24904 L -1083.8608 -266.75344 C -1083.6454 -267.08127 -1083.4384 -267.41456 -1083.24 -267.75298 L -1080.7169 -272.05708 C -1080.331 -272.71546 -1079.978 -273.39265 -1079.6594 -274.08612 L -1077.5407 -278.6974 C -1077.0078 -279.85715 -1076.6367 -281.08456 -1076.4376 -282.34526 L -1076.4376 -282.34526 C -1076.2593 -283.47453 -1076.8386 -284.58797 -1077.8657 -285.0901 L -1083.1591 -287.678 C -1084.4736 -288.32063 -1085.7082 -289.11514 -1086.8376 -290.04526 L -1087.2436 -290.37963 C -1088.088 -291.07496 -1088.7114 -292.00126 -1089.0376 -293.04526 L -1089.0376 -293.04526 C -1089.0843 -293.19458 -1089.2431 -293.2778 -1089.3925 -293.23114 C -1089.5075 -293.19518 -1089.5872 -293.0903 -1089.5911 -292.9698 L -1089.7003 -289.5469 C -1089.791 -286.7038 -1090.4084 -283.90224 -1091.521 -281.28433 L -1092.398 -279.22096 C -1092.9565 -277.9067 -1093.6363 -276.6473 -1094.4284 -275.4591 L -1098.1142 -269.9304 C -1098.8617 -268.80915 -1099.7063 -267.75575 -1100.6382 -266.78238 L -1106.9333 -260.20753 C -1107.8014 -259.30087 -1108.7422 -258.4668 -1109.7464 -257.71367 L -1118.1213 -251.4325 C -1118.9977 -250.77518 -1119.92 -250.18133 -1120.881 -249.65546 L -1128.0662 -245.72394 C -1129.3774 -245.00653 -1130.7553 -244.41863 -1132.1805 -243.96857 L -1138.8534 -241.86133 C -1140.5703 -241.31916 -1142.3449 -240.98046 -1144.1407 -240.85219 L -1151.0272 -240.3603 C -1152.0995 -240.2837 -1153.1758 -240.28238 -1154.2483 -240.35635 L -1162.6846 -240.93816 C -1163.7187 -241.00948 -1164.7469 -241.15064 -1165.762 -241.36067 L -1172.8973 -242.83692 C -1174.8492 -243.24077 -1176.7404 -243.89665 -1178.5232 -244.78808 L -1183.1827 -247.11779 C -1184.4168 -247.73485 -1185.5929 -248.46173 -1186.6967 -249.2896 L -1192.3787 -253.55108 C -1192.8178 -253.88043 -1193.245 -254.2254 -1193.6595 -254.58532 L -1199.4147 -259.58324 C -1200.229 -260.29038 -1200.9925 -261.05392 -1201.6996 -261.8682 L -1206.1049 -266.9409 C -1206.859 -267.80925 -1207.5469 -268.73295 -1208.1628 -269.70422 L -1211.8965 -275.59198 C -1212.257 -276.16056 -1212.5925 -276.7447 -1212.9018 -277.34272 L -1214.5222 -280.47544 C -1215.1313 -281.65312 -1215.6375 -282.88126 -1216.035 -284.14615 L -1217.3153 -288.21964 C -1217.53 -288.90302 -1217.7128 -289.59605 -1217.8629 -290.2965 L -1218.0883 -291.34843 C -1218.1734 -291.74544 -1217.947 -292.1431 -1217.5622 -292.27263 L -1217.5622 -292.27263 C -1217.4897 -292.29704 -1217.4112 -292.25805 -1217.3868 -292.18556 C -1217.3687 -292.13205 -1217.385 -292.07296 -1217.4279 -292.0362 Z" fill="url(#Obj_Gradient_4)"/>
      <path d="M -1217.4279 -292.0362 L -1222.157 -287.98264 C -1223.3074 -286.99662 -1224.5524 -286.1267 -1225.8738 -285.3855 L -1228.4004 -283.96835 C -1229.8356 -283.16338 -1230.4164 -281.39425 -1229.7376 -279.89527 L -1228.72 -277.64803 C -1228.5984 -277.37954 -1228.4717 -277.11342 -1228.3399 -276.8498 L -1226.5376 -273.24526 L -1224.0506 -268.2713 C -1223.7088 -267.5877 -1223.3332 -266.92157 -1222.925 -266.27537 L -1220.5987 -262.59192 C -1220.1583 -261.89465 -1219.6807 -261.22158 -1219.168 -260.5756 L -1215.7574 -256.27815 C -1215.2113 -255.59013 -1214.6263 -254.93394 -1214.0052 -254.31283 L -1209.3391 -249.6468 C -1208.9383 -249.2459 -1208.5227 -248.86 -1208.0933 -248.48982 L -1203.5298 -244.55574 C -1203.1351 -244.21552 -1202.729 -243.8888 -1202.3122 -243.57617 L -1198.3372 -240.59497 C -1197.6713 -240.09553 -1196.9788 -239.63262 -1196.2627 -239.20826 L -1192.1296 -236.75904 C -1192.0016 -236.6832 -1191.8729 -236.60859 -1191.7434 -236.53523 L -1187.0459 -233.8733 C -1186.3076 -233.45493 -1185.5467 -233.07774 -1184.7667 -232.74347 L -1181.217 -231.22212 C -1180.631 -230.971 -1180.0348 -230.74433 -1179.43 -230.54274 L -1174.4119 -228.87003 C -1173.1647 -228.45429 -1171.8841 -228.14624 -1170.5842 -227.9493 L -1166.4854 -227.32826 C -1166.1202 -227.27294 -1165.7539 -227.22642 -1165.3865 -227.18874 L -1158.5054 -226.48299 C -1158.2602 -226.45784 -1158.0147 -226.43664 -1157.7688 -226.41938 L -1153.2417 -226.1017 C -1152.7058 -226.06409 -1152.1688 -226.04527 -1151.6316 -226.04527 L -1148.3695 -226.04526 C -1147.4158 -226.04526 -1146.463 -226.10458 -1145.5167 -226.22287 L -1141.528 -226.72146 C -1140.868 -226.80396 -1140.212 -226.91504 -1139.5616 -227.0544 L -1133.4796 -228.3577 C -1132.5857 -228.54924 -1131.7041 -228.7939 -1130.8393 -229.0904 L -1126.3305 -230.63628 C -1125.5358 -230.90873 -1124.7567 -231.2245 -1123.9966 -231.5822 L -1119.1632 -233.85674 C -1118.613 -234.11565 -1118.0733 -234.3963 -1117.5454 -234.69798 L -1113.7775 -236.85104 C -1113.0847 -237.24692 -1112.413 -237.67858 -1111.765 -238.14428 L -1107.089 -241.50525 C -1106.5883 -241.8651 -1106.1022 -242.24497 -1105.6321 -242.6439 L -1100.3112 -247.15856 C -1099.9289 -247.48294 -1099.5573 -247.81974 -1099.197 -248.16842 L -1094.4978 -252.71604 C -1093.8582 -253.335 -1093.2551 -253.99056 -1092.6915 -254.67942 L -1088.8982 -259.31566 C -1088.3915 -259.93497 -1087.9174 -260.5803 -1087.478 -261.24904 L -1083.8608 -266.75344 C -1083.6454 -267.08127 -1083.4384 -267.41456 -1083.24 -267.75298 L -1080.7169 -272.05708 C -1080.331 -272.71546 -1079.978 -273.39265 -1079.6594 -274.08612 L -1077.5407 -278.6974 C -1077.0078 -279.85715 -1076.6367 -281.08456 -1076.4376 -282.34526 L -1076.4376 -282.34526 C -1076.2593 -283.47453 -1076.8386 -284.58797 -1077.8657 -285.0901 L -1083.1591 -287.678 C -1084.4736 -288.32063 -1085.7082 -289.11514 -1086.8376 -290.04526 L -1087.2436 -290.37963 C -1088.088 -291.07496 -1088.7114 -292.00126 -1089.0376 -293.04526 L -1089.0376 -293.04526 C -1089.0843 -293.19458 -1089.2431 -293.2778 -1089.3925 -293.23114 C -1089.5075 -293.19518 -1089.5872 -293.0903 -1089.5911 -292.9698 L -1089.7003 -289.5469 C -1089.791 -286.7038 -1090.4084 -283.90224 -1091.521 -281.28433 L -1092.398 -279.22096 C -1092.9565 -277.9067 -1093.6363 -276.6473 -1094.4284 -275.4591 L -1098.1142 -269.9304 C -1098.8617 -268.80915 -1099.7063 -267.75575 -1100.6382 -266.78238 L -1106.9333 -260.20753 C -1107.8014 -259.30087 -1108.7422 -258.4668 -1109.7464 -257.71367 L -1118.1213 -251.4325 C -1118.9977 -250.77518 -1119.92 -250.18133 -1120.881 -249.65546 L -1128.0662 -245.72394 C -1129.3774 -245.00653 -1130.7553 -244.41863 -1132.1805 -243.96857 L -1138.8534 -241.86133 C -1140.5703 -241.31916 -1142.3449 -240.98046 -1144.1407 -240.85219 L -1151.0272 -240.3603 C -1152.0995 -240.2837 -1153.1758 -240.28238 -1154.2483 -240.35635 L -1162.6846 -240.93816 C -1163.7187 -241.00948 -1164.7469 -241.15064 -1165.762 -241.36067 L -1172.8973 -242.83692 C -1174.8492 -243.24077 -1176.7404 -243.89665 -1178.5232 -244.78808 L -1183.1827 -247.11779 C -1184.4168 -247.73485 -1185.5929 -248.46173 -1186.6967 -249.2896 L -1192.3787 -253.55108 C -1192.8178 -253.88043 -1193.245 -254.2254 -1193.6595 -254.58532 L -1199.4147 -259.58324 C -1200.229 -260.29038 -1200.9925 -261.05392 -1201.6996 -261.8682 L -1206.1049 -266.9409 C -1206.859 -267.80925 -1207.5469 -268.73295 -1208.1628 -269.70422 L -1211.8965 -275.59198 C -1212.257 -276.16056 -1212.5925 -276.7447 -1212.9018 -277.34272 L -1214.5222 -280.47544 C -1215.1313 -281.65312 -1215.6375 -282.88126 -1216.035 -284.14615 L -1217.3153 -288.21964 C -1217.53 -288.90302 -1217.7128 -289.59605 -1217.8629 -290.2965 L -1218.0883 -291.34843 C -1218.1734 -291.74544 -1217.947 -292.1431 -1217.5622 -292.27263 L -1217.5622 -292.27263 C -1217.4897 -292.29704 -1217.4112 -292.25805 -1217.3868 -292.18556 C -1217.3687 -292.13205 -1217.385 -292.07296 -1217.4279 -292.0362 Z" stroke="#7f8080" stroke-linecap="round" stroke-linejoin="round" stroke-width="1"/>
      <path d="M -1217.9408 -292.2441 L -1212.5408 -292.8441 L -1205.7408 -289.4441 L -1200.7408 -287.6441 L -1192.3408 -285.8441 L -1183.9408 -284.8441 L -1175.9408 -283.8441 L -1168.3408 -283.6441 L -1159.7408 -283.2441 L -1148.1408 -283.4441 L -1139.7408 -283.8441 L -1130.3408 -284.4441 L -1121.9408 -285.2441 L -1112.7408 -286.6441 L -1104.5408 -288.8441 L -1098.7408 -290.6441 L -1093.1408 -293.2441 L -1090.3408 -292.0441 L -1089.9408 -286.4441 L -1092.7408 -278.4441 L -1098.1408 -275.6441 L -1108.7408 -272.4441 L -1120.1408 -270.0441 L -1131.3408 -269.2441 L -1143.7408 -268.2441 L -1154.1408 -268.2441 L -1163.5408 -268.2441 L -1175.1408 -268.8441 L -1186.3408 -269.6441 L -1196.9408 -271.8441 L -1205.5408 -273.8441 L -1211.7408 -276.6441 L -1213.7408 -278.2441 L -1216.9408 -285.8441 Z" fill="url(#Obj_Gradient_5)"/>
      <path d="M -1217.9408 -292.2441 L -1212.5408 -292.8441 L -1205.7408 -289.4441 L -1200.7408 -287.6441 L -1192.3408 -285.8441 L -1183.9408 -284.8441 L -1175.9408 -283.8441 L -1168.3408 -283.6441 L -1159.7408 -283.2441 L -1148.1408 -283.4441 L -1139.7408 -283.8441 L -1130.3408 -284.4441 L -1121.9408 -285.2441 L -1112.7408 -286.6441 L -1104.5408 -288.8441 L -1098.7408 -290.6441 L -1093.1408 -293.2441 L -1090.3408 -292.0441 L -1089.9408 -286.4441 L -1092.7408 -278.4441 L -1098.1408 -275.6441 L -1108.7408 -272.4441 L -1120.1408 -270.0441 L -1131.3408 -269.2441 L -1143.7408 -268.2441 L -1154.1408 -268.2441 L -1163.5408 -268.2441 L -1175.1408 -268.8441 L -1186.3408 -269.6441 L -1196.9408 -271.8441 L -1205.5408 -273.8441 L -1211.7408 -276.6441 L -1213.7408 -278.2441 L -1216.9408 -285.8441 Z" stroke="#7f8080" stroke-linecap="round" stroke-linejoin="round" stroke-width="1"/>
      <path d="M -1059.781 138.34086 L -1044.781 137.34086 L -1033.781 136.34086 L -1020.781 134.34086 L -1016.781 132.34086 L -1021.781 101.34086 L -1024.781 74.34086 L -1026.781 47.340856 L -1029.781 20.340856 L -1030.781 -7.659144 L -1030.781 -36.659144 L -1031.781 -60.659144 L -1031.781 -97.65914 L -1029.781 -130.65914 L -1026.781 -161.65914 L -1024.781 -176.65914 L -1019.781 -192.65914 L -1015.781 -206.65914 L -1011.781 -219.65914 L -1003.781 -233.65914 L -997.781 -244.65914 L -992.781 -251.65914 L -1001.781 -256.65914 L -1014.781 -261.65914 L -1027.781 -265.65914 L -1046.781 -270.65914 L -1061.781 -275.65914 Z" fill="#0000e2"/>
      <path d="M -1059.781 138.34086 L -1044.781 137.34086 L -1033.781 136.34086 L -1020.781 134.34086 L -1016.781 132.34086 L -1021.781 101.34086 L -1024.781 74.34086 L -1026.781 47.340856 L -1029.781 20.340856 L -1030.781 -7.659144 L -1030.781 -36.659144 L -1031.781 -60.659144 L -1031.781 -97.65914 L -1029.781 -130.65914 L -1026.781 -161.65914 L -1024.781 -176.65914 L -1019.781 -192.65914 L -1015.781 -206.65914 L -1011.781 -219.65914 L -1003.781 -233.65914 L -997.781 -244.65914 L -992.781 -251.65914 L -1001.781 -256.65914 L -1014.781 -261.65914 L -1027.781 -265.65914 L -1046.781 -270.65914 L -1061.781 -275.65914 Z" stroke="#7f8080" stroke-linecap="round" stroke-linejoin="round" stroke-width="1"/>
      <path d="M -1245 139 L -1259.8137 137.07503 L -1270.8137 136.07503 L -1283.8137 134.07503 L -1287.8137 132.07503 L -1282.8137 101.07503 L -1281 75 L -1278.5 47 L -1277 20 L -1276.5 -9 L -1275 -36 L -1274.5 -61.5 L -1275.5 -97.5 L -1276.5 -131 L -1276.5 -146 L -1279 -161.5 L -1281.5 -176.5 L -1286 -192 L -1290.5 -206.5 L -1295.5 -220 L -1302 -233.5 L -1308.5 -244 L -1312 -250.5 L -1302.8137 -256.92497 L -1289.8137 -261.92497 L -1276.8137 -265.92497 L -1258.5 -271.5 L -1247.5 -275 L -1242.8137 -275.92497 Z" fill="#1343f3"/>
      <path d="M -1245 139 L -1259.8137 137.07503 L -1270.8137 136.07503 L -1283.8137 134.07503 L -1287.8137 132.07503 L -1282.8137 101.07503 L -1281 75 L -1278.5 47 L -1277 20 L -1276.5 -9 L -1275 -36 L -1274.5 -61.5 L -1275.5 -97.5 L -1276.5 -131 L -1276.5 -146 L -1279 -161.5 L -1281.5 -176.5 L -1286 -192 L -1290.5 -206.5 L -1295.5 -220 L -1302 -233.5 L -1308.5 -244 L -1312 -250.5 L -1302.8137 -256.92497 L -1289.8137 -261.92497 L -1276.8137 -265.92497 L -1258.5 -271.5 L -1247.5 -275 L -1242.8137 -275.92497 Z" stroke="#7f8080" stroke-linecap="round" stroke-linejoin="round" stroke-width="1"/>
      <path d="M -1181.7974 143 L -1160.7974 145 L -1139.7974 144 L -1120.7974 144 L -1108.7974 143 L -1113.7974 -236 L -1126.7974 -230 L -1139.7974 -227 L -1152.7974 -225 L -1162.7974 -226 L -1175.7974 -228 L -1186.7974 -233 L -1188.7974 -234 Z" fill="#052bee"/>
      <path d="M -1181.7974 143 L -1160.7974 145 L -1139.7974 144 L -1120.7974 144 L -1108.7974 143 L -1113.7974 -236 L -1126.7974 -230 L -1139.7974 -227 L -1152.7974 -225 L -1162.7974 -226 L -1175.7974 -228 L -1186.7974 -233 L -1188.7974 -234 Z" stroke="#7f8080" stroke-linecap="round" stroke-linejoin="round" stroke-width="1"/>
    </g>
  </g>
</svg>
