<?xml version="1.0" encoding="UTF-8" standalone="no"?>
<!DOCTYPE svg PUBLIC "-//W3C//DTD SVG 1.1//EN" "http://www.w3.org/Graphics/SVG/1.1/DTD/svg11.dtd">
<svg xmlns="http://www.w3.org/2000/svg" xmlns:xl="http://www.w3.org/1999/xlink" version="1.1" viewBox="-62.5 -60.5 432.4053 448.4" width="432.4053pt" height="448.4pt" xmlns:dc="http://purl.org/dc/elements/1.1/">
  <metadata> Produced by OmniGraffle 7.6.1 
    <dc:date>2019-05-26 04:32:13 +0000</dc:date>
  </metadata>
  <defs>
    <radialGradient cx="0" cy="0" r="1" id="Gradient" gradientUnits="userSpaceOnUse">
      <stop offset="0" stop-color="#cbcbcb"/>
      <stop offset="1" stop-color="#843918"/>
    </radialGradient>
    <radialGradient id="Obj_Gradient" xl:href="#Gradient" gradientTransform="translate(152.75925 -32.6) scale(70.26272)"/>
    <radialGradient cx="0" cy="0" r="1" id="Gradient_2" gradientUnits="userSpaceOnUse">
      <stop offset="0" stop-color="#ff4040"/>
      <stop offset="1" stop-color="#333"/>
    </radialGradient>
    <radialGradient id="Obj_Gradient_2" xl:href="#Gradient_2" gradientTransform="translate(-19.8 103.24615) scale(46.03694)"/>
    <radialGradient id="Obj_Gradient_3" xl:href="#Gradient_2" gradientTransform="translate(327.2053 102.30275) scale(46.03694)"/>
    <linearGradient x1="0" x2="1" id="Gradient_3" gradientUnits="userSpaceOnUse">
      <stop offset="0" stop-color="#ff4040"/>
      <stop offset="1" stop-color="#333"/>
    </linearGradient>
    <linearGradient id="Obj_Gradient_4" xl:href="#Gradient_3" gradientTransform="translate(152.05925 -59.24411) rotate(90) scale(25)"/>
    <radialGradient id="Obj_Gradient_5" xl:href="#Gradient_2" gradientTransform="translate(152.78697 -25.644686) scale(83.83496)"/>
    <radialGradient cx="0" cy="0" r="1" id="Gradient_4" gradientUnits="userSpaceOnUse">
      <stop offset="0" stop-color="#ea3f33"/>
      <stop offset="1" stop-color="#241209"/>
    </radialGradient>
    <radialGradient id="Obj_Gradient_6" xl:href="#Gradient_4" gradientTransform="translate(153.32968 376.9834) scale(135.94141)"/>
  </defs>
  <g stroke="none" stroke-opacity="1" stroke-dasharray="none" fill="none" fill-opacity="1">
    <title>cagliari_02</title>
    <g>
      <title>Capa 1</title>
      <path d="M 91.00565 -59.409554 L 99.17111 -56.291836 C 100.0291 -55.96424 100.90594 -55.68833 101.79692 -55.46558 L 115.5141 -52.036287 C 116.67576 -51.74587 117.85832 -51.54662 119.051 -51.44034 L 136.57715 -49.8786 C 137.165 -49.82622 137.75464 -49.796483 138.34478 -49.78946 L 153.8237 -49.605185 C 154.11404 -49.60173 154.40442 -49.60377 154.69469 -49.61131 L 169.118 -49.98594 C 169.47878 -49.99531 169.8393 -50.013174 170.19924 -50.03951 L 184.57053 -51.09107 C 185.56197 -51.163613 186.54766 -51.30036 187.5214 -51.50044 L 199.09436 -53.87845 C 200.13637 -54.09256 201.16226 -54.3787 202.16465 -54.734814 L 213.91664 -58.909864 C 215.00702 -59.29723 216.21021 -58.76646 216.65925 -57.7 L 216.65925 -57.7 C 217.1814 -56.459894 217.33338 -55.095146 217.09685 -53.77055 L 216.91637 -52.75986 C 216.6126 -51.058706 216.11806 -49.397204 215.44214 -47.80681 L 213.89892 -44.17569 C 213.34035 -42.86142 212.6606 -41.602025 211.86846 -40.41382 L 208.18268 -34.88515 C 207.43517 -33.763886 206.59057 -32.710487 205.6586 -31.73711 L 199.36354 -25.162263 C 198.49547 -24.25561 197.55463 -23.421538 196.55046 -22.668407 L 188.17555 -16.387229 C 187.29914 -15.729916 186.37688 -15.13606 185.41582 -14.610197 L 178.23062 -10.678672 C 176.9195 -9.961265 175.54156 -9.373362 174.11638 -8.923302 L 167.44347 -6.816068 C 165.7266 -6.273897 163.952 -5.9351955 162.15613 -5.806919 L 155.26968 -5.3150297 C 154.19738 -5.238437 153.12103 -5.237118 152.04854 -5.311082 L 143.61229 -5.892893 C 142.57811 -5.9642156 141.54994 -6.1053734 140.5348 -6.315401 L 133.3996 -7.79165 C 131.44765 -8.195503 129.55647 -8.851386 127.77362 -9.742815 L 123.11421 -12.072519 C 121.88007 -12.689587 120.70397 -13.41646 119.60012 -14.244345 L 113.91816 -18.505813 C 113.47903 -18.835165 113.05182 -19.180132 112.63737 -19.540052 L 106.88219 -24.537972 C 106.0679 -25.245115 105.30436 -26.008655 104.59722 -26.82294 L 100.192 -31.895624 C 99.43789 -32.763985 98.74998 -33.687685 98.13406 -34.65895 L 94.40036 -40.54671 C 94.03979 -41.115296 93.70437 -41.69944 93.39505 -42.29745 L 91.77468 -45.430173 C 91.16553 -46.60785 90.65936 -47.836 90.26183 -49.10089 L 88.98159 -53.174377 C 88.76681 -53.85775 88.58408 -54.55079 88.43399 -55.25122 L 88.35925 -55.6 C 88.16458 -56.508426 88.27185 -57.45557 88.66473 -58.29746 L 88.75925 -58.5 C 89.15372 -59.34531 90.1342 -59.74229 91.00565 -59.409554 Z" fill="url(#Obj_Gradient)"/>
      <path d="M 91.00565 -59.409554 L 99.17111 -56.291836 C 100.0291 -55.96424 100.90594 -55.68833 101.79692 -55.46558 L 115.5141 -52.036287 C 116.67576 -51.74587 117.85832 -51.54662 119.051 -51.44034 L 136.57715 -49.8786 C 137.165 -49.82622 137.75464 -49.796483 138.34478 -49.78946 L 153.8237 -49.605185 C 154.11404 -49.60173 154.40442 -49.60377 154.69469 -49.61131 L 169.118 -49.98594 C 169.47878 -49.99531 169.8393 -50.013174 170.19924 -50.03951 L 184.57053 -51.09107 C 185.56197 -51.163613 186.54766 -51.30036 187.5214 -51.50044 L 199.09436 -53.87845 C 200.13637 -54.09256 201.16226 -54.3787 202.16465 -54.734814 L 213.91664 -58.909864 C 215.00702 -59.29723 216.21021 -58.76646 216.65925 -57.7 L 216.65925 -57.7 C 217.1814 -56.459894 217.33338 -55.095146 217.09685 -53.77055 L 216.91637 -52.75986 C 216.6126 -51.058706 216.11806 -49.397204 215.44214 -47.80681 L 213.89892 -44.17569 C 213.34035 -42.86142 212.6606 -41.602025 211.86846 -40.41382 L 208.18268 -34.88515 C 207.43517 -33.763886 206.59057 -32.710487 205.6586 -31.73711 L 199.36354 -25.162263 C 198.49547 -24.25561 197.55463 -23.421538 196.55046 -22.668407 L 188.17555 -16.387229 C 187.29914 -15.729916 186.37688 -15.13606 185.41582 -14.610197 L 178.23062 -10.678672 C 176.9195 -9.961265 175.54156 -9.373362 174.11638 -8.923302 L 167.44347 -6.816068 C 165.7266 -6.273897 163.952 -5.9351955 162.15613 -5.806919 L 155.26968 -5.3150297 C 154.19738 -5.238437 153.12103 -5.237118 152.04854 -5.311082 L 143.61229 -5.892893 C 142.57811 -5.9642156 141.54994 -6.1053734 140.5348 -6.315401 L 133.3996 -7.79165 C 131.44765 -8.195503 129.55647 -8.851386 127.77362 -9.742815 L 123.11421 -12.072519 C 121.88007 -12.689587 120.70397 -13.41646 119.60012 -14.244345 L 113.91816 -18.505813 C 113.47903 -18.835165 113.05182 -19.180132 112.63737 -19.540052 L 106.88219 -24.537972 C 106.0679 -25.245115 105.30436 -26.008655 104.59722 -26.82294 L 100.192 -31.895624 C 99.43789 -32.763985 98.74998 -33.687685 98.13406 -34.65895 L 94.40036 -40.54671 C 94.03979 -41.115296 93.70437 -41.69944 93.39505 -42.29745 L 91.77468 -45.430173 C 91.16553 -46.60785 90.65936 -47.836 90.26183 -49.10089 L 88.98159 -53.174377 C 88.76681 -53.85775 88.58408 -54.55079 88.43399 -55.25122 L 88.35925 -55.6 C 88.16458 -56.508426 88.27185 -57.45557 88.66473 -58.29746 L 88.75925 -58.5 C 89.15372 -59.34531 90.1342 -59.74229 91.00565 -59.409554 Z" stroke="#7f8080" stroke-linecap="round" stroke-linejoin="round" stroke-width="1"/>
      <path d="M 26.973455 377.2638 L 40.715696 379.55416 C 40.899072 379.5847 41.08297 379.6121 41.2673 379.63624 L 69.62094 383.35154 C 69.86747 383.38385 70.114715 383.4104 70.36248 383.4312 L 100.60537 385.9677 C 100.86227 385.98923 101.11966 386.00456 101.37731 386.01367 L 140.30822 387.39 C 140.49658 387.39668 140.68504 387.4 140.87352 387.4 L 172.34084 387.4 C 172.50746 387.4 172.67407 387.3974 172.8406 387.3922 L 197.87539 386.60986 C 198.08563 386.6033 198.29573 386.5926 198.50555 386.5777 L 220.5533 385.0168 C 220.71161 385.0056 220.86975 384.99205 221.02766 384.97614 L 246.28815 382.4305 C 246.4899 382.41017 246.69122 382.386 246.89204 382.35803 L 270.68474 379.04265 C 270.88875 379.01422 271.0922 378.98186 271.29496 378.94558 L 280.4908 377.3 C 285.8179 376.34674 289.46876 371.3931 288.80234 366.02255 L 286.59475 348.232 C 286.5921 348.21066 286.5895 348.18934 286.58695 348.168 L 283.02312 318.4695 C 283.00157 318.28985 282.98306 318.10985 282.9676 317.9296 L 280.6054 290.37037 C 280.59565 290.2568 280.58713 290.14312 280.57983 290.02936 L 279.1932 268.43772 C 279.1916 268.41258 279.18992 268.38744 279.1882 268.3623 L 277.59603 245.276 C 277.59253 245.22533 277.58928 245.17466 277.58627 245.12398 L 276.4099 225.3218 C 276.39716 225.1073 276.38874 224.89255 276.38465 224.6777 L 275.99236 204.08285 C 275.9913 204.02762 275.98997 203.9724 275.98835 203.91718 L 275.39322 183.68283 C 275.3916 183.62761 275.39026 183.57239 275.3892 183.51715 L 274.99855 163.00761 C 274.99337 162.73592 274.99512 162.46413 275.0038 162.19253 L 275.58973 143.83292 C 275.59044 143.81097 275.59118 143.78903 275.59197 143.7671 L 276.38005 121.89779 C 276.3872 121.69928 276.39806 121.50093 276.4126 121.30283 L 277.97007 100.08221 C 277.98388 99.89409 277.99436 99.70573 278.0015 99.51724 L 278.75596 79.61837 C 278.77915 79.00663 278.83744 78.39672 278.93052 77.79165 L 281.66953 59.988134 C 281.7503 59.463036 281.8572 58.94229 281.9898 58.427825 L 286.61806 40.470174 C 286.73316 40.0236 286.8675 39.582213 287.02073 39.147247 L 292.7415 22.907606 C 292.9076 22.436128 293.0957 21.972693 293.30517 21.518826 L 298.83673 9.533787 C 298.93942 9.311292 299.0472 9.091186 299.16 8.873643 L 304.52223 -1.4677826 C 304.56793 -1.555925 304.61446 -1.6436402 304.6618 -1.7309166 L 309.87777 -11.347879 C 310.61505 -12.707236 311.56468 -13.940134 312.6908 -15 L 312.6908 -15 C 313.36598 -15.635472 313.39817 -16.697974 312.7627 -17.373163 C 312.6382 -17.505439 312.49307 -17.616634 312.33295 -17.702411 L 309.1188 -19.42427 C 308.90016 -19.541407 308.6788 -19.653443 308.45494 -19.760288 L 300.60097 -23.508776 C 300.19436 -23.702838 299.77974 -23.87964 299.3582 -24.038707 L 289.68338 -27.689588 C 289.48833 -27.76319 289.29187 -27.83297 289.0941 -27.898893 L 276.39963 -32.130385 C 276.2604 -32.176792 276.12055 -32.221283 275.9801 -32.263842 L 263.09658 -36.16794 C 263.02605 -36.189313 262.95567 -36.211173 262.88544 -36.23352 L 250.38144 -40.212062 C 249.98782 -40.337307 249.5992 -40.47775 249.21643 -40.63307 L 237.2405 -45.492873 C 236.40883 -45.83036 235.60704 -46.237225 234.8436 -46.709166 L 225.22436 -52.65561 C 225.06865 -52.75186 224.91461 -52.85078 224.7623 -52.95232 L 219.8722 -56.212384 C 218.89081 -56.86665 218.0195 -57.67255 217.29078 -58.6 L 217.29078 -58.6 C 217.18518 -58.734404 216.99062 -58.75775 216.8562 -58.65215 C 216.75347 -58.571424 216.7125 -58.43487 216.7538 -58.31092 L 216.89078 -57.9 C 217.35003 -56.52225 217.4546 -55.050963 217.1948 -53.62211 L 216.79967 -51.448845 C 216.52845 -49.95719 216.0466 -48.51165 215.36858 -47.155595 L 213.83626 -44.09096 C 213.53956 -43.49756 213.20624 -42.92319 212.83823 -42.371175 L 209.63453 -37.56562 C 209.20593 -36.922717 208.73132 -36.311707 208.21443 -35.737385 L 203.65238 -30.668445 C 203.61132 -30.622815 203.57 -30.577422 203.5284 -30.532268 L 197.53417 -24.024242 C 196.90643 -23.342702 196.22068 -22.71698 195.48465 -22.154129 L 190.46047 -18.312113 C 190.01432 -17.97094 189.55052 -17.653496 189.07099 -17.3611 L 182.58458 -13.405974 C 181.92292 -13.002524 181.23283 -12.647678 180.51975 -12.344238 L 173.40434 -9.316404 C 172.59667 -8.972717 171.7621 -8.696074 170.90905 -8.489277 L 166.83 -7.500414 C 166.00516 -7.3004545 165.16573 -7.166442 164.31963 -7.099645 L 158.61943 -6.649629 C 158.2005 -6.616555 157.78042 -6.599999 157.36019 -6.599999 L 150.32787 -6.599999 C 149.57077 -6.599999 148.81462 -6.653737 148.06513 -6.760807 L 140.11868 -7.896014 C 139.63367 -7.965301 139.1521 -8.056828 138.6755 -8.170307 L 132.71426 -9.589647 C 131.56878 -9.862382 130.4569 -10.260734 129.39883 -10.777466 L 123.11882 -13.844444 C 122.63377 -14.081329 122.16102 -14.34261 121.70238 -14.627282 L 117.49052 -17.241542 C 116.89135 -17.61344 116.31742 -18.024544 115.7725 -18.472165 L 111.32639 -22.124323 C 111.10269 -22.308073 110.88402 -22.49786 110.67063 -22.693477 L 106.86828 -26.178957 C 106.41699 -26.592644 105.98981 -27.031893 105.58885 -27.494535 L 101.4701 -32.246934 C 101.15072 -32.61545 100.84836 -32.99838 100.56395 -33.394514 L 96.1343 -39.56439 C 95.6394 -40.253704 95.20013 -40.981296 94.82064 -41.74028 L 92.24418 -46.89321 C 92.20858 -46.9644 92.17352 -47.03586 92.13899 -47.107576 L 90.89078 -49.7 C 90.04007 -51.46687 89.68455 -53.431406 89.86209 -55.38436 L 90.04229 -57.366614 C 90.0661 -57.628476 89.87312 -57.860055 89.61125 -57.88386 C 89.44886 -57.898624 89.2902 -57.82925 89.19078 -57.7 L 89.19078 -57.7 C 88.52734 -56.83752 87.74723 -56.07144 86.87285 -55.423754 L 82.97632 -52.537433 C 82.85263 -52.445816 82.72763 -52.35599 82.60136 -52.26798 L 77.97911 -49.04641 C 76.79237 -48.21929 75.49895 -47.556924 74.1342 -47.07742 L 69.52708 -45.4587 C 69.036505 -45.286335 68.55463 -45.09016 68.08316 -44.870873 L 61.23638 -41.686324 C 60.54022 -41.36253 59.82165 -41.08926 59.08625 -40.86864 L 48.215864 -37.607524 C 48.19914 -37.60251 48.18243 -37.597464 48.165724 -37.592393 L 37.197637 -34.262795 C 37.05974 -34.220933 36.922414 -34.17721 36.7857 -34.13164 L 23.864464 -29.82456 C 23.815343 -29.808187 23.766142 -29.79205 23.716864 -29.776155 L 12.349458 -26.10925 C 11.710972 -25.903287 11.086073 -25.65737 10.47846 -25.372956 L 2.546495 -21.66012 C 2.1761552 -21.48677 1.8125968 -21.299287 1.4566207 -21.098083 L -4.4894937 -17.737235 C -5.7425276 -17.028999 -6.184173 -15.439075 -5.4759366 -14.186041 C -5.398819 -14.049603 -5.3095516 -13.920398 -5.209219 -13.8 L -4.345108 -12.763066 C -3.5901626 -11.857132 -2.9376864 -10.870511 -2.3995692 -9.821182 L .6775689 -3.820763 C .7530392 -3.673596 .8307868 -3.527608 .9107837 -3.3828516 L 4.8655364 3.7733676 C 4.9490275 3.9244466 5.030068 4.076867 5.108627 4.2305684 L 9.216931 12.268556 C 9.466001 12.755865 9.689904 13.255632 9.887757 13.765887 L 13.370526 22.747765 C 13.38403 22.78259 13.397655 22.817366 13.411402 22.852094 L 17.007724 31.93754 C 17.129733 32.245773 17.242133 32.557723 17.344761 32.87294 L 19.966596 40.925716 C 19.98272 40.97524 19.998601 41.02484 20.01424 41.07452 L 23.08629 50.83279 C 23.28908 51.47695 23.450886 52.133306 23.570733 52.797915 L 25.556045 63.80737 C 25.579202 63.93579 25.600787 64.06448 25.620795 64.19342 L 27.326665 75.186805 C 27.369402 75.46222 27.404935 75.73871 27.43323 76.01598 L 28.32065 84.7127 C 28.367382 85.17069 28.394327 85.63048 28.40141 86.09079 L 28.58565 98.06641 C 28.58907 98.28878 28.597127 98.51105 28.609815 98.73309 L 29.38019 112.21465 C 29.38725 112.33821 29.395745 112.46169 29.40567 112.58506 L 30.73924 129.15943 C 30.773588 129.5863 30.79078 130.01439 30.79078 130.44264 L 30.79078 142.89242 C 30.79078 143.09746 30.794723 143.30247 30.802603 143.50735 L 31.382954 158.5965 C 31.388172 158.73216 31.391663 158.86789 31.393426 159.00365 L 31.585585 173.7999 C 31.58905 174.0666 31.585843 174.33333 31.575972 174.59986 L 31.001744 190.10401 C 30.994436 190.30132 30.99078 190.49875 30.99078 190.6962 L 30.99078 204.29243 C 30.99078 204.49746 30.98684 204.70247 30.97896 204.90736 L 30.393768 220.12236 C 30.391777 220.17412 30.389535 220.22588 30.38704 220.27762 L 29.59172 236.78055 C 29.591094 236.79352 29.590453 236.8065 29.589797 236.81945 L 28.795307 252.51062 C 28.79229 252.5702 28.78894 252.62978 28.785256 252.68933 L 27.596345 271.91007 C 27.592636 271.97003 27.58859 272.02996 27.584206 272.08987 L 25.801068 296.45942 C 25.79421 296.55314 25.786527 296.6468 25.77802 296.7404 L 23.992128 316.3852 C 23.99123 316.39507 23.990324 316.40494 23.989408 316.4148 L 22.218643 335.4997 C 22.20007 335.6999 22.177726 335.8997 22.151623 336.09903 L 20.19091 351.07175 C 20.0581 352.08594 19.788958 353.07756 19.390781 354.01973 L 19.390781 354.01973 C 18.993206 354.96048 18.744538 355.9574 18.653714 356.97465 L 17.890781 365.51973 C 17.383025 371.20676 21.34149 376.32512 26.973455 377.2638 Z" fill="#000052"/>
      <path d="M 26.973455 377.2638 L 40.715696 379.55416 C 40.899072 379.5847 41.08297 379.6121 41.2673 379.63624 L 69.62094 383.35154 C 69.86747 383.38385 70.114715 383.4104 70.36248 383.4312 L 100.60537 385.9677 C 100.86227 385.98923 101.11966 386.00456 101.37731 386.01367 L 140.30822 387.39 C 140.49658 387.39668 140.68504 387.4 140.87352 387.4 L 172.34084 387.4 C 172.50746 387.4 172.67407 387.3974 172.8406 387.3922 L 197.87539 386.60986 C 198.08563 386.6033 198.29573 386.5926 198.50555 386.5777 L 220.5533 385.0168 C 220.71161 385.0056 220.86975 384.99205 221.02766 384.97614 L 246.28815 382.4305 C 246.4899 382.41017 246.69122 382.386 246.89204 382.35803 L 270.68474 379.04265 C 270.88875 379.01422 271.0922 378.98186 271.29496 378.94558 L 280.4908 377.3 C 285.8179 376.34674 289.46876 371.3931 288.80234 366.02255 L 286.59475 348.232 C 286.5921 348.21066 286.5895 348.18934 286.58695 348.168 L 283.02312 318.4695 C 283.00157 318.28985 282.98306 318.10985 282.9676 317.9296 L 280.6054 290.37037 C 280.59565 290.2568 280.58713 290.14312 280.57983 290.02936 L 279.1932 268.43772 C 279.1916 268.41258 279.18992 268.38744 279.1882 268.3623 L 277.59603 245.276 C 277.59253 245.22533 277.58928 245.17466 277.58627 245.12398 L 276.4099 225.3218 C 276.39716 225.1073 276.38874 224.89255 276.38465 224.6777 L 275.99236 204.08285 C 275.9913 204.02762 275.98997 203.9724 275.98835 203.91718 L 275.39322 183.68283 C 275.3916 183.62761 275.39026 183.57239 275.3892 183.51715 L 274.99855 163.00761 C 274.99337 162.73592 274.99512 162.46413 275.0038 162.19253 L 275.58973 143.83292 C 275.59044 143.81097 275.59118 143.78903 275.59197 143.7671 L 276.38005 121.89779 C 276.3872 121.69928 276.39806 121.50093 276.4126 121.30283 L 277.97007 100.08221 C 277.98388 99.89409 277.99436 99.70573 278.0015 99.51724 L 278.75596 79.61837 C 278.77915 79.00663 278.83744 78.39672 278.93052 77.79165 L 281.66953 59.988134 C 281.7503 59.463036 281.8572 58.94229 281.9898 58.427825 L 286.61806 40.470174 C 286.73316 40.0236 286.8675 39.582213 287.02073 39.147247 L 292.7415 22.907606 C 292.9076 22.436128 293.0957 21.972693 293.30517 21.518826 L 298.83673 9.533787 C 298.93942 9.311292 299.0472 9.091186 299.16 8.873643 L 304.52223 -1.4677826 C 304.56793 -1.555925 304.61446 -1.6436402 304.6618 -1.7309166 L 309.87777 -11.347879 C 310.61505 -12.707236 311.56468 -13.940134 312.6908 -15 L 312.6908 -15 C 313.36598 -15.635472 313.39817 -16.697974 312.7627 -17.373163 C 312.6382 -17.505439 312.49307 -17.616634 312.33295 -17.702411 L 309.1188 -19.42427 C 308.90016 -19.541407 308.6788 -19.653443 308.45494 -19.760288 L 300.60097 -23.508776 C 300.19436 -23.702838 299.77974 -23.87964 299.3582 -24.038707 L 289.68338 -27.689588 C 289.48833 -27.76319 289.29187 -27.83297 289.0941 -27.898893 L 276.39963 -32.130385 C 276.2604 -32.176792 276.12055 -32.221283 275.9801 -32.263842 L 263.09658 -36.16794 C 263.02605 -36.189313 262.95567 -36.211173 262.88544 -36.23352 L 250.38144 -40.212062 C 249.98782 -40.337307 249.5992 -40.47775 249.21643 -40.63307 L 237.2405 -45.492873 C 236.40883 -45.83036 235.60704 -46.237225 234.8436 -46.709166 L 225.22436 -52.65561 C 225.06865 -52.75186 224.91461 -52.85078 224.7623 -52.95232 L 219.8722 -56.212384 C 218.89081 -56.86665 218.0195 -57.67255 217.29078 -58.6 L 217.29078 -58.6 C 217.18518 -58.734404 216.99062 -58.75775 216.8562 -58.65215 C 216.75347 -58.571424 216.7125 -58.43487 216.7538 -58.31092 L 216.89078 -57.9 C 217.35003 -56.52225 217.4546 -55.050963 217.1948 -53.62211 L 216.79967 -51.448845 C 216.52845 -49.95719 216.0466 -48.51165 215.36858 -47.155595 L 213.83626 -44.09096 C 213.53956 -43.49756 213.20624 -42.92319 212.83823 -42.371175 L 209.63453 -37.56562 C 209.20593 -36.922717 208.73132 -36.311707 208.21443 -35.737385 L 203.65238 -30.668445 C 203.61132 -30.622815 203.57 -30.577422 203.5284 -30.532268 L 197.53417 -24.024242 C 196.90643 -23.342702 196.22068 -22.71698 195.48465 -22.154129 L 190.46047 -18.312113 C 190.01432 -17.97094 189.55052 -17.653496 189.07099 -17.3611 L 182.58458 -13.405974 C 181.92292 -13.002524 181.23283 -12.647678 180.51975 -12.344238 L 173.40434 -9.316404 C 172.59667 -8.972717 171.7621 -8.696074 170.90905 -8.489277 L 166.83 -7.500414 C 166.00516 -7.3004545 165.16573 -7.166442 164.31963 -7.099645 L 158.61943 -6.649629 C 158.2005 -6.616555 157.78042 -6.599999 157.36019 -6.599999 L 150.32787 -6.599999 C 149.57077 -6.599999 148.81462 -6.653737 148.06513 -6.760807 L 140.11868 -7.896014 C 139.63367 -7.965301 139.1521 -8.056828 138.6755 -8.170307 L 132.71426 -9.589647 C 131.56878 -9.862382 130.4569 -10.260734 129.39883 -10.777466 L 123.11882 -13.844444 C 122.63377 -14.081329 122.16102 -14.34261 121.70238 -14.627282 L 117.49052 -17.241542 C 116.89135 -17.61344 116.31742 -18.024544 115.7725 -18.472165 L 111.32639 -22.124323 C 111.10269 -22.308073 110.88402 -22.49786 110.67063 -22.693477 L 106.86828 -26.178957 C 106.41699 -26.592644 105.98981 -27.031893 105.58885 -27.494535 L 101.4701 -32.246934 C 101.15072 -32.61545 100.84836 -32.99838 100.56395 -33.394514 L 96.1343 -39.56439 C 95.6394 -40.253704 95.20013 -40.981296 94.82064 -41.74028 L 92.24418 -46.89321 C 92.20858 -46.9644 92.17352 -47.03586 92.13899 -47.107576 L 90.89078 -49.7 C 90.04007 -51.46687 89.68455 -53.431406 89.86209 -55.38436 L 90.04229 -57.366614 C 90.0661 -57.628476 89.87312 -57.860055 89.61125 -57.88386 C 89.44886 -57.898624 89.2902 -57.82925 89.19078 -57.7 L 89.19078 -57.7 C 88.52734 -56.83752 87.74723 -56.07144 86.87285 -55.423754 L 82.97632 -52.537433 C 82.85263 -52.445816 82.72763 -52.35599 82.60136 -52.26798 L 77.97911 -49.04641 C 76.79237 -48.21929 75.49895 -47.556924 74.1342 -47.07742 L 69.52708 -45.4587 C 69.036505 -45.286335 68.55463 -45.09016 68.08316 -44.870873 L 61.23638 -41.686324 C 60.54022 -41.36253 59.82165 -41.08926 59.08625 -40.86864 L 48.215864 -37.607524 C 48.19914 -37.60251 48.18243 -37.597464 48.165724 -37.592393 L 37.197637 -34.262795 C 37.05974 -34.220933 36.922414 -34.17721 36.7857 -34.13164 L 23.864464 -29.82456 C 23.815343 -29.808187 23.766142 -29.79205 23.716864 -29.776155 L 12.349458 -26.10925 C 11.710972 -25.903287 11.086073 -25.65737 10.47846 -25.372956 L 2.546495 -21.66012 C 2.1761552 -21.48677 1.8125968 -21.299287 1.4566207 -21.098083 L -4.4894937 -17.737235 C -5.7425276 -17.028999 -6.184173 -15.439075 -5.4759366 -14.186041 C -5.398819 -14.049603 -5.3095516 -13.920398 -5.209219 -13.8 L -4.345108 -12.763066 C -3.5901626 -11.857132 -2.9376864 -10.870511 -2.3995692 -9.821182 L .6775689 -3.820763 C .7530392 -3.673596 .8307868 -3.527608 .9107837 -3.3828516 L 4.8655364 3.7733676 C 4.9490275 3.9244466 5.030068 4.076867 5.108627 4.2305684 L 9.216931 12.268556 C 9.466001 12.755865 9.689904 13.255632 9.887757 13.765887 L 13.370526 22.747765 C 13.38403 22.78259 13.397655 22.817366 13.411402 22.852094 L 17.007724 31.93754 C 17.129733 32.245773 17.242133 32.557723 17.344761 32.87294 L 19.966596 40.925716 C 19.98272 40.97524 19.998601 41.02484 20.01424 41.07452 L 23.08629 50.83279 C 23.28908 51.47695 23.450886 52.133306 23.570733 52.797915 L 25.556045 63.80737 C 25.579202 63.93579 25.600787 64.06448 25.620795 64.19342 L 27.326665 75.186805 C 27.369402 75.46222 27.404935 75.73871 27.43323 76.01598 L 28.32065 84.7127 C 28.367382 85.17069 28.394327 85.63048 28.40141 86.09079 L 28.58565 98.06641 C 28.58907 98.28878 28.597127 98.51105 28.609815 98.73309 L 29.38019 112.21465 C 29.38725 112.33821 29.395745 112.46169 29.40567 112.58506 L 30.73924 129.15943 C 30.773588 129.5863 30.79078 130.01439 30.79078 130.44264 L 30.79078 142.89242 C 30.79078 143.09746 30.794723 143.30247 30.802603 143.50735 L 31.382954 158.5965 C 31.388172 158.73216 31.391663 158.86789 31.393426 159.00365 L 31.585585 173.7999 C 31.58905 174.0666 31.585843 174.33333 31.575972 174.59986 L 31.001744 190.10401 C 30.994436 190.30132 30.99078 190.49875 30.99078 190.6962 L 30.99078 204.29243 C 30.99078 204.49746 30.98684 204.70247 30.97896 204.90736 L 30.393768 220.12236 C 30.391777 220.17412 30.389535 220.22588 30.38704 220.27762 L 29.59172 236.78055 C 29.591094 236.79352 29.590453 236.8065 29.589797 236.81945 L 28.795307 252.51062 C 28.79229 252.5702 28.78894 252.62978 28.785256 252.68933 L 27.596345 271.91007 C 27.592636 271.97003 27.58859 272.02996 27.584206 272.08987 L 25.801068 296.45942 C 25.79421 296.55314 25.786527 296.6468 25.77802 296.7404 L 23.992128 316.3852 C 23.99123 316.39507 23.990324 316.40494 23.989408 316.4148 L 22.218643 335.4997 C 22.20007 335.6999 22.177726 335.8997 22.151623 336.09903 L 20.19091 351.07175 C 20.0581 352.08594 19.788958 353.07756 19.390781 354.01973 L 19.390781 354.01973 C 18.993206 354.96048 18.744538 355.9574 18.653714 356.97465 L 17.890781 365.51973 C 17.383025 371.20676 21.34149 376.32512 26.973455 377.2638 Z" stroke="#7f8080" stroke-linecap="round" stroke-linejoin="round" stroke-width="1"/>
      <path d="M -62 91.44615 L -55.8 95.84615 L -47.6 99.84615 L -39 103.44615 L -30 107.24615 L -19 111.24615 L -9.599999 114.04615 L -.5999991 116.64615 L 8.400001 119.24615 L 13.800001 120.64615 L 19.400001 121.64615 L 21.8 115.84615 L 24.4 110.44615 L 26.6 106.44615 L 29.2 103.04615 L 29.4 94.04615 L 28.8 83.04615 L 27 72.246145 L 25.4 61.846145 L 22.8 50.846145 L 20.400001 41.246145 L 17.600001 33.246145 L 14.400001 23.846145 L 11.600001 16.446144 L 8.000001 8.846144 L 4.000001 1.2461442 L 923872e-12 -6.153856 L -2.599999 -9.753856 L -6.199999 -15.553856 L -11.599999 -11.153856 L -16.4 -6.353856 L -21 -.15385577 L -25.4 6.046144 L -30.2 14.646144 L -35 24.046145 L -39.8 33.246145 L -43.4 41.846145 L -47.4 50.846145 L -50.6 59.046145 L -54.4 68.446145 L -57.2 76.446145 L -60.2 84.84615 Z" fill="#000047"/>
      <path d="M -62 91.44615 L -55.8 95.84615 L -47.6 99.84615 L -39 103.44615 L -30 107.24615 L -19 111.24615 L -9.599999 114.04615 L -.5999991 116.64615 L 8.400001 119.24615 L 13.800001 120.64615 L 19.400001 121.64615 L 21.8 115.84615 L 24.4 110.44615 L 26.6 106.44615 L 29.2 103.04615 L 29.4 94.04615 L 28.8 83.04615 L 27 72.246145 L 25.4 61.846145 L 22.8 50.846145 L 20.400001 41.246145 L 17.600001 33.246145 L 14.400001 23.846145 L 11.600001 16.446144 L 8.000001 8.846144 L 4.000001 1.2461442 L 923872e-12 -6.153856 L -2.599999 -9.753856 L -6.199999 -15.553856 L -11.599999 -11.153856 L -16.4 -6.353856 L -21 -.15385577 L -25.4 6.046144 L -30.2 14.646144 L -35 24.046145 L -39.8 33.246145 L -43.4 41.846145 L -47.4 50.846145 L -50.6 59.046145 L -54.4 68.446145 L -57.2 76.446145 L -60.2 84.84615 Z" stroke="#7f8080" stroke-linecap="round" stroke-linejoin="round" stroke-width="1"/>
      <path d="M 369.4053 90.50275 L 363.2053 94.90275 L 355.0053 98.90275 L 346.4053 102.50275 L 337.4053 106.30275 L 326.4053 110.30275 L 317.0053 113.10275 L 308.0053 115.70275 L 299.0053 118.30275 L 293.6053 119.70275 L 288.0053 120.70275 L 285.6053 114.90275 L 283.0053 109.50275 L 280.8053 105.50275 L 278.2053 102.10275 L 278.0053 93.10275 L 278.6053 82.10275 L 280.4053 71.30275 L 282.0053 60.90275 L 284.6053 49.90275 L 287.0053 40.30275 L 289.8053 32.30275 L 293.0053 22.902748 L 295.8053 15.502748 L 299.4053 7.902748 L 303.4053 .30274802 L 307.4053 -7.097252 L 310.0053 -10.697252 L 313.6053 -16.497252 L 319.0053 -12.097252 L 323.8053 -7.297252 L 328.4053 -1.097252 L 332.8053 5.102748 L 337.6053 13.702748 L 342.4053 23.102748 L 347.2053 32.30275 L 350.8053 40.90275 L 354.8053 49.90275 L 358.0053 58.10275 L 361.8053 67.50275 L 364.6053 75.50275 L 367.6053 83.90275 Z" fill="red"/>
      <path d="M 369.4053 90.50275 L 363.2053 94.90275 L 355.0053 98.90275 L 346.4053 102.50275 L 337.4053 106.30275 L 326.4053 110.30275 L 317.0053 113.10275 L 308.0053 115.70275 L 299.0053 118.30275 L 293.6053 119.70275 L 288.0053 120.70275 L 285.6053 114.90275 L 283.0053 109.50275 L 280.8053 105.50275 L 278.2053 102.10275 L 278.0053 93.10275 L 278.6053 82.10275 L 280.4053 71.30275 L 282.0053 60.90275 L 284.6053 49.90275 L 287.0053 40.30275 L 289.8053 32.30275 L 293.0053 22.902748 L 295.8053 15.502748 L 299.4053 7.902748 L 303.4053 .30274802 L 307.4053 -7.097252 L 310.0053 -10.697252 L 313.6053 -16.497252 L 319.0053 -12.097252 L 323.8053 -7.297252 L 328.4053 -1.097252 L 332.8053 5.102748 L 337.6053 13.702748 L 342.4053 23.102748 L 347.2053 32.30275 L 350.8053 40.90275 L 354.8053 49.90275 L 358.0053 58.10275 L 361.8053 67.50275 L 364.6053 75.50275 L 367.6053 83.90275 Z" stroke="#7f8080" stroke-linecap="round" stroke-linejoin="round" stroke-width="1"/>
      <path d="M -62 91.44615 L -55.8 95.84615 L -47.6 99.84615 L -39 103.44615 L -30 107.24615 L -19 111.24615 L -9.599999 114.04615 L -.5999991 116.64615 L 8.400001 119.24615 L 13.800001 120.64615 L 19.400001 121.64615 L 22.4 115.24615 L 18.600001 114.44615 L 13.800001 113.24615 L 8.200001 112.04615 L 2.200001 110.24615 L -2.399999 108.84615 L -6.599999 107.64615 L -11.199999 105.64615 L -15.8 104.04615 L -20.6 102.04615 L -24.6 100.64615 L -29.8 98.44615 L -34.4 96.84615 L -39.2 94.64615 L -44 92.84615 L -48 90.84615 L -52.4 88.64615 L -56.8 86.44615 L -60.2 84.84615 Z" fill="url(#Obj_Gradient_2)"/>
      <path d="M -62 91.44615 L -55.8 95.84615 L -47.6 99.84615 L -39 103.44615 L -30 107.24615 L -19 111.24615 L -9.599999 114.04615 L -.5999991 116.64615 L 8.400001 119.24615 L 13.800001 120.64615 L 19.400001 121.64615 L 22.4 115.24615 L 18.600001 114.44615 L 13.800001 113.24615 L 8.200001 112.04615 L 2.200001 110.24615 L -2.399999 108.84615 L -6.599999 107.64615 L -11.199999 105.64615 L -15.8 104.04615 L -20.6 102.04615 L -24.6 100.64615 L -29.8 98.44615 L -34.4 96.84615 L -39.2 94.64615 L -44 92.84615 L -48 90.84615 L -52.4 88.64615 L -56.8 86.44615 L -60.2 84.84615 Z" stroke="#7f8080" stroke-linecap="round" stroke-linejoin="round" stroke-width="1"/>
      <path d="M 369.4053 90.50275 L 363.2053 94.90275 L 355.0053 98.90275 L 346.4053 102.50275 L 337.4053 106.30275 L 326.4053 110.30275 L 317.0053 113.10275 L 308.0053 115.70275 L 299.0053 118.30275 L 293.6053 119.70275 L 288.0053 120.70275 L 285.0053 114.30275 L 288.8053 113.50275 L 293.6053 112.30275 L 299.2053 111.10275 L 305.2053 109.30275 L 309.8053 107.90275 L 314.0053 106.70275 L 318.6053 104.70275 L 323.2053 103.10275 L 328.0053 101.10275 L 332.0053 99.70275 L 337.2053 97.50275 L 341.8053 95.90275 L 346.6053 93.70275 L 351.4053 91.90275 L 355.4053 89.90275 L 359.8053 87.70275 L 364.2053 85.50275 L 367.6053 83.90275 Z" fill="url(#Obj_Gradient_3)"/>
      <path d="M 369.4053 90.50275 L 363.2053 94.90275 L 355.0053 98.90275 L 346.4053 102.50275 L 337.4053 106.30275 L 326.4053 110.30275 L 317.0053 113.10275 L 308.0053 115.70275 L 299.0053 118.30275 L 293.6053 119.70275 L 288.0053 120.70275 L 285.0053 114.30275 L 288.8053 113.50275 L 293.6053 112.30275 L 299.2053 111.10275 L 305.2053 109.30275 L 309.8053 107.90275 L 314.0053 106.70275 L 318.6053 104.70275 L 323.2053 103.10275 L 328.0053 101.10275 L 332.0053 99.70275 L 337.2053 97.50275 L 341.8053 95.90275 L 346.6053 93.70275 L 351.4053 91.90275 L 355.4053 89.90275 L 359.8053 87.70275 L 364.2053 85.50275 L 367.6053 83.90275 Z" stroke="#7f8080" stroke-linecap="round" stroke-linejoin="round" stroke-width="1"/>
      <path d="M 88.05925 -58.24411 L 93.45925 -58.84411 L 100.25925 -55.44411 L 105.25925 -53.64411 L 113.65925 -51.84411 L 122.05925 -50.84411 L 130.05925 -49.84411 L 137.65925 -49.64411 L 146.25925 -49.24411 L 157.85925 -49.44411 L 166.25925 -49.84411 L 175.65925 -50.44411 L 184.05925 -51.24411 L 193.25925 -52.64411 L 201.45925 -54.84411 L 207.25925 -56.64411 L 212.85925 -59.24411 L 215.65925 -58.04411 L 216.05925 -52.44411 L 213.25925 -44.44411 L 207.85925 -41.644107 L 197.25925 -38.444107 L 185.85925 -36.044107 L 174.65925 -35.244107 L 162.25925 -34.244107 L 151.85925 -34.244107 L 142.45925 -34.244107 L 130.85925 -34.844107 L 119.65925 -35.644107 L 109.05925 -37.844107 L 100.45925 -39.844107 L 94.25925 -42.644107 L 92.25925 -44.24411 L 89.05925 -51.84411 Z" fill="url(#Obj_Gradient_4)"/>
      <path d="M 88.05925 -58.24411 L 93.45925 -58.84411 L 100.25925 -55.44411 L 105.25925 -53.64411 L 113.65925 -51.84411 L 122.05925 -50.84411 L 130.05925 -49.84411 L 137.65925 -49.64411 L 146.25925 -49.24411 L 157.85925 -49.44411 L 166.25925 -49.84411 L 175.65925 -50.44411 L 184.05925 -51.24411 L 193.25925 -52.64411 L 201.45925 -54.84411 L 207.25925 -56.64411 L 212.85925 -59.24411 L 215.65925 -58.04411 L 216.05925 -52.44411 L 213.25925 -44.44411 L 207.85925 -41.644107 L 197.25925 -38.444107 L 185.85925 -36.044107 L 174.65925 -35.244107 L 162.25925 -34.244107 L 151.85925 -34.244107 L 142.45925 -34.244107 L 130.85925 -34.844107 L 119.65925 -35.644107 L 109.05925 -37.844107 L 100.45925 -39.844107 L 94.25925 -42.644107 L 92.25925 -44.24411 L 89.05925 -51.84411 Z" stroke="#7f8080" stroke-linecap="round" stroke-linejoin="round" stroke-width="1"/>
      <path d="M 28.050956 376.80685 L 39.807764 378.94415 C 40.00645 378.98027 40.205806 379.01262 40.40572 379.0412 L 66.29682 382.7417 C 66.5647 382.78 66.833515 382.8115 67.103 382.83614 L 94.70576 385.3613 C 94.9856 385.3869 95.26606 385.40513 95.54686 385.41596 L 130.94643 386.78103 C 131.27449 386.7937 131.60285 386.79623 131.93106 386.7887 L 147.4991 386.43043 C 148.37886 386.4102 149.2588 386.46255 150.12994 386.587 L 152.321 386.9 C 153.99317 387.1389 155.5424 385.97697 155.78128 384.3048 C 155.80211 384.15895 155.81238 384.0118 155.812 383.8645 L 154.83055 -2.3397272 C 154.82504 -4.507313 153.2482 -6.350927 151.10768 -6.692439 L 148.64687 -7.085051 C 147.81317 -7.218064 146.97026 -7.284884 146.12601 -7.284884 L 140.5639 -7.284884 C 139.73907 -7.284884 138.91547 -7.348666 138.10047 -7.47566 L 131.12548 -8.562516 C 130.60098 -8.644245 130.08086 -8.752026 129.56707 -8.885459 L 124.46642 -10.210112 C 123.25002 -10.526015 122.07508 -10.984133 120.96589 -11.574992 L 115.49615 -14.488682 C 114.9986 -14.753723 114.5154 -15.044875 114.04859 -15.360919 L 110.32941 -17.87887 C 109.73098 -18.284023 109.16068 -18.729255 108.62243 -19.211508 L 104.62178 -22.795992 C 104.40433 -22.99082 104.19226 -23.191563 103.9858 -23.397996 L 100.53991 -26.843386 C 100.10963 -27.273603 99.70424 -27.728014 99.32572 -28.204405 L 95.57024 -32.93091 C 95.27395 -33.303804 94.99446 -33.68974 94.73261 -34.087568 L 90.66164 -40.27244 C 90.2148 -40.9513 89.82034 -41.66322 89.48167 -42.402016 L 87.10309 -47.590905 C 87.07171 -47.65936 87.04082 -47.728036 87.01041 -47.79693 L 85.31344 -51.641247 C 84.99087 -52.372007 85.32177 -53.2259 86.05253 -53.548475 C 86.09392 -53.566744 86.13614 -53.58306 86.17905 -53.59737 L 86.17905 -53.59737 C 86.58123 -53.73149 87.01598 -53.51418 87.1501 -53.112004 C 87.2049 -52.94767 87.20251 -52.769633 87.14331 -52.60683 L 86.52772 -50.913966 C 85.99003 -49.43533 84.87403 -48.239 83.43627 -47.599993 L 82.78544 -47.310736 C 81.73107 -46.842125 80.59009 -46.599993 79.43627 -46.599993 L 77.68627 -46.599993 L 74.93627 -46.599993 C 73.118475 -46.599993 71.31621 -46.26535 69.61957 -45.6128 L 66.411765 -44.37903 C 65.92839 -44.193115 65.43627 -44.03078 64.93715 -43.892597 L 58.068075 -41.99088 C 57.83082 -41.925195 57.595116 -41.854044 57.361146 -41.777483 L 46.73492 -38.30031 C 46.7171 -38.29448 46.699297 -38.288618 46.6815 -38.282725 L 36.65784 -34.96368 C 36.51118 -34.915116 36.36523 -34.864432 36.22004 -34.811643 L 24.411668 -30.518307 C 24.35955 -30.499358 24.307334 -30.48068 24.255022 -30.462273 L 13.97349 -26.84466 C 13.30041 -26.607832 12.643926 -26.326246 12.008434 -26.001787 L 4.7419404 -22.29177 C 4.4760164 -22.155999 4.206344 -22.027697 3.93324 -21.907017 L -2.9212583 -18.878127 C -4.5609986 -18.153553 -5.3806267 -16.300693 -4.8137267 -14.599993 L -4.634794 -14.063195 C -4.090973 -12.431732 -3.2876893 -10.89861 -2.2558612 -9.522839 L 1.3206418 -4.7541686 C 1.8965612 -3.986276 2.402212 -3.168116 2.831477 -2.3095861 L 5.611746 3.2509516 C 5.6614295 3.350319 5.712147 3.449166 5.763889 3.547477 L 10.443388 12.438525 C 10.605269 12.746098 10.757084 13.058864 10.898592 13.376325 L 14.56475 21.60102 C 14.719355 21.947864 14.861564 22.300102 14.991105 22.657065 L 18.12286 31.28688 C 18.228475 31.57791 18.325621 31.87195 18.414175 32.16862 L 20.828111 40.25571 C 20.841974 40.30215 20.855626 40.348656 20.869066 40.395223 L 23.70652 50.226275 C 23.87982 50.82671 24.01779 51.43678 24.119725 52.053355 L 25.954685 63.152505 C 25.974283 63.27105 25.992546 63.38981 26.00947 63.50877 L 27.580543 74.55231 C 27.616627 74.80595 27.646613 75.06042 27.670476 75.315505 L 28.492644 84.10396 C 28.53198 84.52445 28.554654 84.94633 28.56061 85.36861 L 28.730757 97.43184 C 28.733633 97.63575 28.740408 97.8396 28.751077 98.04326 L 29.459757 111.57065 C 29.465698 111.68405 29.472846 111.79739 29.4812 111.91063 L 30.70911 128.55678 C 30.738002 128.94847 30.752463 129.34108 30.752463 129.73383 L 30.752463 142.26539 C 30.752463 142.45338 30.755776 142.64135 30.7624 142.82922 L 31.29608 157.96414 C 31.300467 158.08854 31.3034 158.213 31.304884 158.33748 L 31.481692 173.18725 C 31.484604 173.43177 31.48191 173.67632 31.47361 173.92071 L 30.945078 189.48616 C 30.938935 189.66708 30.935862 189.8481 30.935862 190.02913 L 30.935862 203.67862 C 30.935862 203.8666 30.93255 204.05458 30.925925 204.24245 L 30.388176 219.49277 C 30.3865 219.54025 30.384616 219.58772 30.38252 219.63518 L 29.652856 236.14972 C 29.65233 236.16162 29.65179 236.1735 29.65124 236.1854 L 28.922278 251.88896 C 28.91974 251.94363 28.91692 251.9983 28.913823 252.05293 L 27.822756 271.2926 C 27.819636 271.34763 27.81623 271.40264 27.812542 271.45763 L 26.176142 295.85137 C 26.17037 295.93742 26.1639 296.02342 26.156738 296.10937 L 24.518024 315.7711 C 24.517268 315.78018 24.516504 315.78925 24.515733 315.7983 L 22.889777 334.91286 C 22.874125 335.09687 22.855288 335.2806 22.833274 335.46395 L 21.030436 350.48048 C 20.90989 351.48455 20.664068 352.46957 20.298708 353.41255 L 20.298708 353.41255 C 19.933817 354.3543 19.706666 355.3438 19.62427 356.3504 L 18.923214 364.91502 C 18.454886 370.63647 22.40295 375.7801 28.050956 376.80685 Z" fill="red"/>
      <path d="M 28.050956 376.80685 L 39.807764 378.94415 C 40.00645 378.98027 40.205806 379.01262 40.40572 379.0412 L 66.29682 382.7417 C 66.5647 382.78 66.833515 382.8115 67.103 382.83614 L 94.70576 385.3613 C 94.9856 385.3869 95.26606 385.40513 95.54686 385.41596 L 130.94643 386.78103 C 131.27449 386.7937 131.60285 386.79623 131.93106 386.7887 L 147.4991 386.43043 C 148.37886 386.4102 149.2588 386.46255 150.12994 386.587 L 152.321 386.9 C 153.99317 387.1389 155.5424 385.97697 155.78128 384.3048 C 155.80211 384.15895 155.81238 384.0118 155.812 383.8645 L 154.83055 -2.3397272 C 154.82504 -4.507313 153.2482 -6.350927 151.10768 -6.692439 L 148.64687 -7.085051 C 147.81317 -7.218064 146.97026 -7.284884 146.12601 -7.284884 L 140.5639 -7.284884 C 139.73907 -7.284884 138.91547 -7.348666 138.10047 -7.47566 L 131.12548 -8.562516 C 130.60098 -8.644245 130.08086 -8.752026 129.56707 -8.885459 L 124.46642 -10.210112 C 123.25002 -10.526015 122.07508 -10.984133 120.96589 -11.574992 L 115.49615 -14.488682 C 114.9986 -14.753723 114.5154 -15.044875 114.04859 -15.360919 L 110.32941 -17.87887 C 109.73098 -18.284023 109.16068 -18.729255 108.62243 -19.211508 L 104.62178 -22.795992 C 104.40433 -22.99082 104.19226 -23.191563 103.9858 -23.397996 L 100.53991 -26.843386 C 100.10963 -27.273603 99.70424 -27.728014 99.32572 -28.204405 L 95.57024 -32.93091 C 95.27395 -33.303804 94.99446 -33.68974 94.73261 -34.087568 L 90.66164 -40.27244 C 90.2148 -40.9513 89.82034 -41.66322 89.48167 -42.402016 L 87.10309 -47.590905 C 87.07171 -47.65936 87.04082 -47.728036 87.01041 -47.79693 L 85.31344 -51.641247 C 84.99087 -52.372007 85.32177 -53.2259 86.05253 -53.548475 C 86.09392 -53.566744 86.13614 -53.58306 86.17905 -53.59737 L 86.17905 -53.59737 C 86.58123 -53.73149 87.01598 -53.51418 87.1501 -53.112004 C 87.2049 -52.94767 87.20251 -52.769633 87.14331 -52.60683 L 86.52772 -50.913966 C 85.99003 -49.43533 84.87403 -48.239 83.43627 -47.599993 L 82.78544 -47.310736 C 81.73107 -46.842125 80.59009 -46.599993 79.43627 -46.599993 L 77.68627 -46.599993 L 74.93627 -46.599993 C 73.118475 -46.599993 71.31621 -46.26535 69.61957 -45.6128 L 66.411765 -44.37903 C 65.92839 -44.193115 65.43627 -44.03078 64.93715 -43.892597 L 58.068075 -41.99088 C 57.83082 -41.925195 57.595116 -41.854044 57.361146 -41.777483 L 46.73492 -38.30031 C 46.7171 -38.29448 46.699297 -38.288618 46.6815 -38.282725 L 36.65784 -34.96368 C 36.51118 -34.915116 36.36523 -34.864432 36.22004 -34.811643 L 24.411668 -30.518307 C 24.35955 -30.499358 24.307334 -30.48068 24.255022 -30.462273 L 13.97349 -26.84466 C 13.30041 -26.607832 12.643926 -26.326246 12.008434 -26.001787 L 4.7419404 -22.29177 C 4.4760164 -22.155999 4.206344 -22.027697 3.93324 -21.907017 L -2.9212583 -18.878127 C -4.5609986 -18.153553 -5.3806267 -16.300693 -4.8137267 -14.599993 L -4.634794 -14.063195 C -4.090973 -12.431732 -3.2876893 -10.89861 -2.2558612 -9.522839 L 1.3206418 -4.7541686 C 1.8965612 -3.986276 2.402212 -3.168116 2.831477 -2.3095861 L 5.611746 3.2509516 C 5.6614295 3.350319 5.712147 3.449166 5.763889 3.547477 L 10.443388 12.438525 C 10.605269 12.746098 10.757084 13.058864 10.898592 13.376325 L 14.56475 21.60102 C 14.719355 21.947864 14.861564 22.300102 14.991105 22.657065 L 18.12286 31.28688 C 18.228475 31.57791 18.325621 31.87195 18.414175 32.16862 L 20.828111 40.25571 C 20.841974 40.30215 20.855626 40.348656 20.869066 40.395223 L 23.70652 50.226275 C 23.87982 50.82671 24.01779 51.43678 24.119725 52.053355 L 25.954685 63.152505 C 25.974283 63.27105 25.992546 63.38981 26.00947 63.50877 L 27.580543 74.55231 C 27.616627 74.80595 27.646613 75.06042 27.670476 75.315505 L 28.492644 84.10396 C 28.53198 84.52445 28.554654 84.94633 28.56061 85.36861 L 28.730757 97.43184 C 28.733633 97.63575 28.740408 97.8396 28.751077 98.04326 L 29.459757 111.57065 C 29.465698 111.68405 29.472846 111.79739 29.4812 111.91063 L 30.70911 128.55678 C 30.738002 128.94847 30.752463 129.34108 30.752463 129.73383 L 30.752463 142.26539 C 30.752463 142.45338 30.755776 142.64135 30.7624 142.82922 L 31.29608 157.96414 C 31.300467 158.08854 31.3034 158.213 31.304884 158.33748 L 31.481692 173.18725 C 31.484604 173.43177 31.48191 173.67632 31.47361 173.92071 L 30.945078 189.48616 C 30.938935 189.66708 30.935862 189.8481 30.935862 190.02913 L 30.935862 203.67862 C 30.935862 203.8666 30.93255 204.05458 30.925925 204.24245 L 30.388176 219.49277 C 30.3865 219.54025 30.384616 219.58772 30.38252 219.63518 L 29.652856 236.14972 C 29.65233 236.16162 29.65179 236.1735 29.65124 236.1854 L 28.922278 251.88896 C 28.91974 251.94363 28.91692 251.9983 28.913823 252.05293 L 27.822756 271.2926 C 27.819636 271.34763 27.81623 271.40264 27.812542 271.45763 L 26.176142 295.85137 C 26.17037 295.93742 26.1639 296.02342 26.156738 296.10937 L 24.518024 315.7711 C 24.517268 315.78018 24.516504 315.78925 24.515733 315.7983 L 22.889777 334.91286 C 22.874125 335.09687 22.855288 335.2806 22.833274 335.46395 L 21.030436 350.48048 C 20.90989 351.48455 20.664068 352.46957 20.298708 353.41255 L 20.298708 353.41255 C 19.933817 354.3543 19.706666 355.3438 19.62427 356.3504 L 18.923214 364.91502 C 18.454886 370.63647 22.40295 375.7801 28.050956 376.80685 Z" stroke="#7f8080" stroke-linecap="round" stroke-linejoin="round" stroke-width="1"/>
      <path d="M 88.57212 -58.03621 L 83.84295 -53.98264 C 82.6926 -52.996625 81.44764 -52.12669 80.12621 -51.385515 L 77.59958 -49.96835 C 76.16441 -49.16338 75.5836 -47.39425 76.26239 -45.895265 L 77.28001 -43.64803 C 77.401585 -43.379545 77.52831 -43.11342 77.66012 -42.849804 L 79.46239 -39.245264 L 81.94938 -34.271293 C 82.29117 -33.5877 82.66683 -32.921566 83.07495 -32.275375 L 85.40134 -28.59192 C 85.84172 -27.894655 86.31928 -27.22158 86.83195 -26.575613 L 90.24264 -22.278153 C 90.78869 -21.590125 91.37371 -20.933944 91.99482 -20.312833 L 96.66087 -15.64679 C 97.06175 -15.24591 97.47731 -14.859989 97.90671 -14.489817 L 102.47023 -10.555744 C 102.86489 -10.215522 103.271 -9.88881 103.68785 -9.576173 L 107.66279 -6.594968 C 108.3287 -6.0955334 109.02123 -5.632617 109.73733 -5.2082625 L 113.8704 -2.75904 C 113.99839 -2.683191 114.12712 -2.6085858 114.25656 -2.535235 L 118.9541 .12670809 C 119.6924 .5450729 120.45328 .9222581 121.23325 1.2565335 L 124.78307 2.7778834 C 125.36903 3.02901 125.96518 3.255666 126.56997 3.4572635 L 131.58808 5.129966 C 132.83532 5.545714 134.11592 5.8537556 135.4158 6.0507064 L 139.51464 6.671744 C 139.87976 6.727064 140.24615 6.773583 140.6135 6.81126 L 147.4946 7.517015 C 147.73978 7.542161 147.98534 7.5633645 148.2312 7.5806175 L 152.75835 7.89831 C 153.2942 7.935915 153.83122 7.954734 154.3684 7.954734 L 157.63046 7.954736 C 158.58416 7.954736 159.53693 7.895419 160.48327 7.777127 L 164.47198 7.278537 C 165.13195 7.196042 165.78802 7.084959 166.43835 6.945602 L 172.52039 5.642309 C 173.41426 5.450764 174.29592 5.206097 175.16068 4.90961 L 179.66952 3.3637194 C 180.46417 3.0912685 181.2433 2.7754865 182.0034 2.4177928 L 186.83677 .14326272 C 187.38697 -.11565314 187.92668 -.39628627 188.45464 -.6979752 L 192.2225 -2.851042 C 192.9153 -3.2469217 193.58701 -3.678585 194.23494 -4.1442806 L 198.91106 -7.505246 C 199.41175 -7.865112 199.89776 -8.244967 200.36792 -8.643889 L 205.68877 -13.158555 C 206.07108 -13.482941 206.44269 -13.819741 206.80298 -14.168416 L 211.5022 -18.716044 C 212.1418 -19.335002 212.7449 -19.990565 213.30852 -20.679424 L 217.1018 -25.315658 C 217.60852 -25.934974 218.08257 -26.58031 218.52201 -27.249036 L 222.1392 -32.753436 C 222.35462 -33.081268 222.56163 -33.414558 222.76002 -33.75298 L 225.2831 -38.057076 C 225.66906 -38.71546 226.022 -39.392646 226.34062 -40.08612 L 228.45932 -44.69739 C 228.99218 -45.85715 229.36334 -47.084564 229.5624 -48.345265 L 229.5624 -48.345265 C 229.7407 -49.474526 229.1614 -50.587974 228.13432 -51.0901 L 222.84088 -53.678005 C 221.52642 -54.32063 220.29183 -55.11514 219.1624 -56.045265 L 218.75638 -56.379625 C 217.91205 -57.074957 217.28864 -58.00126 216.9624 -59.045265 L 216.9624 -59.045265 C 216.91573 -59.19458 216.75686 -59.2778 216.60754 -59.23114 C 216.49247 -59.19518 216.41277 -59.090315 216.40892 -58.96981 L 216.29968 -55.54689 C 216.20894 -52.703814 215.5916 -49.902236 214.479 -47.284333 L 213.60206 -45.22096 C 213.0435 -43.906686 212.36374 -42.64729 211.5716 -41.45909 L 207.88582 -35.930416 C 207.13831 -34.80915 206.2937 -33.755752 205.36175 -32.782376 L 199.06668 -26.20753 C 198.1986 -25.300875 197.25777 -24.466804 196.2536 -23.713673 L 187.8787 -17.432495 C 187.00228 -16.775182 186.08002 -16.181326 185.11896 -15.655463 L 177.93376 -11.723938 C 176.62263 -11.006531 175.2447 -10.418628 173.81952 -9.968568 L 167.1466 -7.861334 C 165.42973 -7.319163 163.65514 -6.980461 161.85927 -6.852185 L 154.97281 -6.3602956 C 153.90052 -6.283703 152.82417 -6.282384 151.75168 -6.356348 L 143.31543 -6.938159 C 142.28125 -7.0094815 141.25308 -7.150639 140.23795 -7.360667 L 133.10274 -8.836916 C 131.15079 -9.240769 129.25961 -9.896652 127.47676 -10.78808 L 122.81735 -13.117785 C 121.58321 -13.734853 120.4071 -14.461726 119.30326 -15.28961 L 113.6213 -19.55108 C 113.18217 -19.88043 112.75496 -20.225398 112.34051 -20.585317 L 106.58533 -25.583238 C 105.77104 -26.29038 105.0075 -27.05392 104.30036 -27.868206 L 99.89513 -32.94089 C 99.14103 -33.80925 98.45312 -34.73295 97.8372 -35.704217 L 94.1035 -41.59198 C 93.74293 -42.16056 93.4075 -42.744705 93.09819 -43.342717 L 91.47781 -46.47544 C 90.86867 -47.65312 90.3625 -48.881264 89.96497 -50.146155 L 88.68473 -54.21964 C 88.46995 -54.90302 88.28722 -55.596055 88.13713 -56.296485 L 87.91171 -57.34843 C 87.82664 -57.74544 88.05299 -58.143094 88.4378 -58.27263 L 88.4378 -58.27263 C 88.51029 -58.29704 88.58884 -58.25805 88.61325 -58.18556 C 88.63126 -58.132046 88.61499 -58.07296 88.57212 -58.03621 Z" fill="url(#Obj_Gradient_5)"/>
      <path d="M 88.57212 -58.03621 L 83.84295 -53.98264 C 82.6926 -52.996625 81.44764 -52.12669 80.12621 -51.385515 L 77.59958 -49.96835 C 76.16441 -49.16338 75.5836 -47.39425 76.26239 -45.895265 L 77.28001 -43.64803 C 77.401585 -43.379545 77.52831 -43.11342 77.66012 -42.849804 L 79.46239 -39.245264 L 81.94938 -34.271293 C 82.29117 -33.5877 82.66683 -32.921566 83.07495 -32.275375 L 85.40134 -28.59192 C 85.84172 -27.894655 86.31928 -27.22158 86.83195 -26.575613 L 90.24264 -22.278153 C 90.78869 -21.590125 91.37371 -20.933944 91.99482 -20.312833 L 96.66087 -15.64679 C 97.06175 -15.24591 97.47731 -14.859989 97.90671 -14.489817 L 102.47023 -10.555744 C 102.86489 -10.215522 103.271 -9.88881 103.68785 -9.576173 L 107.66279 -6.594968 C 108.3287 -6.0955334 109.02123 -5.632617 109.73733 -5.2082625 L 113.8704 -2.75904 C 113.99839 -2.683191 114.12712 -2.6085858 114.25656 -2.535235 L 118.9541 .12670809 C 119.6924 .5450729 120.45328 .9222581 121.23325 1.2565335 L 124.78307 2.7778834 C 125.36903 3.02901 125.96518 3.255666 126.56997 3.4572635 L 131.58808 5.129966 C 132.83532 5.545714 134.11592 5.8537556 135.4158 6.0507064 L 139.51464 6.671744 C 139.87976 6.727064 140.24615 6.773583 140.6135 6.81126 L 147.4946 7.517015 C 147.73978 7.542161 147.98534 7.5633645 148.2312 7.5806175 L 152.75835 7.89831 C 153.2942 7.935915 153.83122 7.954734 154.3684 7.954734 L 157.63046 7.954736 C 158.58416 7.954736 159.53693 7.895419 160.48327 7.777127 L 164.47198 7.278537 C 165.13195 7.196042 165.78802 7.084959 166.43835 6.945602 L 172.52039 5.642309 C 173.41426 5.450764 174.29592 5.206097 175.16068 4.90961 L 179.66952 3.3637194 C 180.46417 3.0912685 181.2433 2.7754865 182.0034 2.4177928 L 186.83677 .14326272 C 187.38697 -.11565314 187.92668 -.39628627 188.45464 -.6979752 L 192.2225 -2.851042 C 192.9153 -3.2469217 193.58701 -3.678585 194.23494 -4.1442806 L 198.91106 -7.505246 C 199.41175 -7.865112 199.89776 -8.244967 200.36792 -8.643889 L 205.68877 -13.158555 C 206.07108 -13.482941 206.44269 -13.819741 206.80298 -14.168416 L 211.5022 -18.716044 C 212.1418 -19.335002 212.7449 -19.990565 213.30852 -20.679424 L 217.1018 -25.315658 C 217.60852 -25.934974 218.08257 -26.58031 218.52201 -27.249036 L 222.1392 -32.753436 C 222.35462 -33.081268 222.56163 -33.414558 222.76002 -33.75298 L 225.2831 -38.057076 C 225.66906 -38.71546 226.022 -39.392646 226.34062 -40.08612 L 228.45932 -44.69739 C 228.99218 -45.85715 229.36334 -47.084564 229.5624 -48.345265 L 229.5624 -48.345265 C 229.7407 -49.474526 229.1614 -50.587974 228.13432 -51.0901 L 222.84088 -53.678005 C 221.52642 -54.32063 220.29183 -55.11514 219.1624 -56.045265 L 218.75638 -56.379625 C 217.91205 -57.074957 217.28864 -58.00126 216.9624 -59.045265 L 216.9624 -59.045265 C 216.91573 -59.19458 216.75686 -59.2778 216.60754 -59.23114 C 216.49247 -59.19518 216.41277 -59.090315 216.40892 -58.96981 L 216.29968 -55.54689 C 216.20894 -52.703814 215.5916 -49.902236 214.479 -47.284333 L 213.60206 -45.22096 C 213.0435 -43.906686 212.36374 -42.64729 211.5716 -41.45909 L 207.88582 -35.930416 C 207.13831 -34.80915 206.2937 -33.755752 205.36175 -32.782376 L 199.06668 -26.20753 C 198.1986 -25.300875 197.25777 -24.466804 196.2536 -23.713673 L 187.8787 -17.432495 C 187.00228 -16.775182 186.08002 -16.181326 185.11896 -15.655463 L 177.93376 -11.723938 C 176.62263 -11.006531 175.2447 -10.418628 173.81952 -9.968568 L 167.1466 -7.861334 C 165.42973 -7.319163 163.65514 -6.980461 161.85927 -6.852185 L 154.97281 -6.3602956 C 153.90052 -6.283703 152.82417 -6.282384 151.75168 -6.356348 L 143.31543 -6.938159 C 142.28125 -7.0094815 141.25308 -7.150639 140.23795 -7.360667 L 133.10274 -8.836916 C 131.15079 -9.240769 129.25961 -9.896652 127.47676 -10.78808 L 122.81735 -13.117785 C 121.58321 -13.734853 120.4071 -14.461726 119.30326 -15.28961 L 113.6213 -19.55108 C 113.18217 -19.88043 112.75496 -20.225398 112.34051 -20.585317 L 106.58533 -25.583238 C 105.77104 -26.29038 105.0075 -27.05392 104.30036 -27.868206 L 99.89513 -32.94089 C 99.14103 -33.80925 98.45312 -34.73295 97.8372 -35.704217 L 94.1035 -41.59198 C 93.74293 -42.16056 93.4075 -42.744705 93.09819 -43.342717 L 91.47781 -46.47544 C 90.86867 -47.65312 90.3625 -48.881264 89.96497 -50.146155 L 88.68473 -54.21964 C 88.46995 -54.90302 88.28722 -55.596055 88.13713 -56.296485 L 87.91171 -57.34843 C 87.82664 -57.74544 88.05299 -58.143094 88.4378 -58.27263 L 88.4378 -58.27263 C 88.51029 -58.29704 88.58884 -58.25805 88.61325 -58.18556 C 88.63126 -58.132046 88.61499 -58.07296 88.57212 -58.03621 Z" stroke="#7f8080" stroke-linecap="round" stroke-linejoin="round" stroke-width="1"/>
      <path d="M 17.813213 367.2 L 17.813213 367.2 C 17.747529 367.7255 17.810355 368.25905 17.996298 368.7549 L 18.647306 370.49092 C 18.824062 370.96227 19.051147 371.4132 19.32462 371.8358 L 20.292434 373.33153 C 20.833392 374.16756 21.546494 374.87855 22.384121 375.417 L 23.46217 376.11005 C 23.762426 376.30307 24.077006 376.47285 24.403157 376.6179 L 25.72001 377.2035 C 26.31654 377.46876 26.947246 377.6493 27.593793 377.7398 L 36.604213 379.00126 C 36.614207 379.00265 36.624203 379.00403 36.634203 379.0054 L 48.3502 380.594 C 48.3962 380.60024 48.442263 380.606 48.48838 380.61134 L 58.771315 381.79783 C 58.80324 381.8015 58.83519 381.80498 58.867165 381.8082 L 72.57723 383.1991 C 72.60521 383.20193 72.63321 383.2046 72.66123 383.2071 L 83.76653 384.19865 C 83.80164 384.2018 83.83679 384.20466 83.87195 384.20726 L 94.55848 384.99886 C 94.59896 385.00185 94.63947 385.0045 94.67999 385.0068 L 105.18798 385.6016 C 105.2088 385.60276 105.22961 385.60404 105.25042 385.6054 L 117.2932 386.3951 C 117.3772 386.4006 117.46129 386.4046 117.54543 386.40707 L 130.99256 386.80257 C 131.01032 386.8031 131.02809 386.8037 131.04585 386.80434 L 141.68971 387.19856 C 141.77603 387.20176 141.8624 387.20335 141.94879 387.20335 L 152.5578 387.20335 C 152.59874 387.20335 152.63967 387.2037 152.6806 387.20443 L 163.76702 387.39893 C 163.93509 387.4019 164.10321 387.39877 164.27106 387.3896 L 174.89229 386.81028 C 174.9769 386.80566 175.06157 386.8026 175.14629 386.80104 L 185.91085 386.60532 C 185.98308 386.604 186.0553 386.6016 186.12745 386.59803 L 198.14607 386.00695 C 198.19483 386.00455 198.24355 386.00165 198.29225 385.99823 L 209.5323 385.20945 C 209.59023 385.2054 209.64812 385.2006 209.70594 385.1951 L 222.1165 384.01313 C 222.18497 384.0066 222.25352 384.0011 222.32214 383.9966 L 234.25416 383.21418 C 234.36418 383.20696 234.474 383.19715 234.58355 383.18475 L 244.9959 382.006 C 245.01144 382.00423 245.02697 382.0024 245.0425 382.00056 L 254.9902 380.80683 C 255.00954 380.8045 255.02886 380.8021 255.04818 380.79963 L 268.88394 379.0221 C 268.98115 379.0096 269.0781 378.99507 269.1747 378.9785 L 275.7282 377.85506 C 275.92915 377.8206 276.13153 377.79495 276.33473 377.77817 L 279.56706 377.5112 C 280.4563 377.43775 281.3233 377.19497 282.12135 376.79594 L 283.60765 376.0528 C 284.20824 375.7525 284.7625 375.36735 285.25338 374.9092 L 286.5885 373.6631 C 287.19532 373.0967 287.65073 372.38747 287.91322 371.6 L 288.20805 370.71552 C 288.27812 370.5053 288.33817 370.29187 288.388 370.07595 L 288.8577 368.04056 C 288.89293 367.88792 288.8595 367.72752 288.7662 367.6017 L 288.7662 367.6017 C 288.67587 367.4798 288.52523 367.4183 288.3754 367.44214 L 279.89555 368.7912 C 279.84466 368.7993 279.79385 368.80796 279.74315 368.8172 L 266.7584 371.17805 C 266.6656 371.1949 266.5725 371.2099 266.4791 371.223 L 255.24943 372.7991 C 255.22928 372.80194 255.20914 372.80486 255.18902 372.80786 L 242.06643 374.76645 C 241.90167 374.79105 241.73608 374.80975 241.56998 374.82253 L 228.84517 375.80136 C 228.82786 375.8027 228.81055 375.80396 228.79323 375.80516 L 214.45308 376.801 C 214.4305 376.80257 214.4079 376.80403 214.3853 376.8054 L 201.08205 377.5996 C 201.04016 377.6021 200.99824 377.60423 200.9563 377.60597 L 186.76485 378.1973 C 186.66776 378.20133 186.5706 378.20335 186.47344 378.20335 L 173.2192 378.20335 L 160.67753 378.20335 C 160.63865 378.20335 160.59976 378.2037 160.56088 378.20433 L 148.8025 378.4003 C 148.68032 378.40234 148.55812 378.40117 148.436 378.3968 L 137.6024 378.0099 C 137.4803 378.00554 137.35809 378.00437 137.23591 378.0064 L 125.52127 378.20165 C 125.45323 378.2028 125.38518 378.20293 125.31713 378.2021 L 109.61484 378.0058 C 109.48444 378.00417 109.35411 377.9989 109.22401 377.99 L 94.91423 377.00986 C 94.85088 377.00552 94.7876 377.00032 94.72439 376.99426 L 80.23339 375.6047 C 80.22393 375.6038 80.21448 375.6029 80.20503 375.60194 L 66.39299 374.22073 C 66.27715 374.20915 66.16162 374.19468 66.0465 374.17733 L 51.73735 372.02116 C 51.65859 372.0093 51.57964 371.99877 51.50052 371.9896 L 37.98059 370.42207 C 37.873013 370.4096 37.76574 370.39463 37.65886 370.37718 L 28.26677 368.84377 C 28.10178 368.81684 27.937805 368.784 27.775164 368.7453 L 18.697565 366.58654 C 18.309246 366.4942 17.91959 366.73412 17.827241 367.12244 C 17.821158 367.14802 17.816475 367.1739 17.813213 367.2 Z" fill="url(#Obj_Gradient_6)"/>
      <path d="M 17.813213 367.2 L 17.813213 367.2 C 17.747529 367.7255 17.810355 368.25905 17.996298 368.7549 L 18.647306 370.49092 C 18.824062 370.96227 19.051147 371.4132 19.32462 371.8358 L 20.292434 373.33153 C 20.833392 374.16756 21.546494 374.87855 22.384121 375.417 L 23.46217 376.11005 C 23.762426 376.30307 24.077006 376.47285 24.403157 376.6179 L 25.72001 377.2035 C 26.31654 377.46876 26.947246 377.6493 27.593793 377.7398 L 36.604213 379.00126 C 36.614207 379.00265 36.624203 379.00403 36.634203 379.0054 L 48.3502 380.594 C 48.3962 380.60024 48.442263 380.606 48.48838 380.61134 L 58.771315 381.79783 C 58.80324 381.8015 58.83519 381.80498 58.867165 381.8082 L 72.57723 383.1991 C 72.60521 383.20193 72.63321 383.2046 72.66123 383.2071 L 83.76653 384.19865 C 83.80164 384.2018 83.83679 384.20466 83.87195 384.20726 L 94.55848 384.99886 C 94.59896 385.00185 94.63947 385.0045 94.67999 385.0068 L 105.18798 385.6016 C 105.2088 385.60276 105.22961 385.60404 105.25042 385.6054 L 117.2932 386.3951 C 117.3772 386.4006 117.46129 386.4046 117.54543 386.40707 L 130.99256 386.80257 C 131.01032 386.8031 131.02809 386.8037 131.04585 386.80434 L 141.68971 387.19856 C 141.77603 387.20176 141.8624 387.20335 141.94879 387.20335 L 152.5578 387.20335 C 152.59874 387.20335 152.63967 387.2037 152.6806 387.20443 L 163.76702 387.39893 C 163.93509 387.4019 164.10321 387.39877 164.27106 387.3896 L 174.89229 386.81028 C 174.9769 386.80566 175.06157 386.8026 175.14629 386.80104 L 185.91085 386.60532 C 185.98308 386.604 186.0553 386.6016 186.12745 386.59803 L 198.14607 386.00695 C 198.19483 386.00455 198.24355 386.00165 198.29225 385.99823 L 209.5323 385.20945 C 209.59023 385.2054 209.64812 385.2006 209.70594 385.1951 L 222.1165 384.01313 C 222.18497 384.0066 222.25352 384.0011 222.32214 383.9966 L 234.25416 383.21418 C 234.36418 383.20696 234.474 383.19715 234.58355 383.18475 L 244.9959 382.006 C 245.01144 382.00423 245.02697 382.0024 245.0425 382.00056 L 254.9902 380.80683 C 255.00954 380.8045 255.02886 380.8021 255.04818 380.79963 L 268.88394 379.0221 C 268.98115 379.0096 269.0781 378.99507 269.1747 378.9785 L 275.7282 377.85506 C 275.92915 377.8206 276.13153 377.79495 276.33473 377.77817 L 279.56706 377.5112 C 280.4563 377.43775 281.3233 377.19497 282.12135 376.79594 L 283.60765 376.0528 C 284.20824 375.7525 284.7625 375.36735 285.25338 374.9092 L 286.5885 373.6631 C 287.19532 373.0967 287.65073 372.38747 287.91322 371.6 L 288.20805 370.71552 C 288.27812 370.5053 288.33817 370.29187 288.388 370.07595 L 288.8577 368.04056 C 288.89293 367.88792 288.8595 367.72752 288.7662 367.6017 L 288.7662 367.6017 C 288.67587 367.4798 288.52523 367.4183 288.3754 367.44214 L 279.89555 368.7912 C 279.84466 368.7993 279.79385 368.80796 279.74315 368.8172 L 266.7584 371.17805 C 266.6656 371.1949 266.5725 371.2099 266.4791 371.223 L 255.24943 372.7991 C 255.22928 372.80194 255.20914 372.80486 255.18902 372.80786 L 242.06643 374.76645 C 241.90167 374.79105 241.73608 374.80975 241.56998 374.82253 L 228.84517 375.80136 C 228.82786 375.8027 228.81055 375.80396 228.79323 375.80516 L 214.45308 376.801 C 214.4305 376.80257 214.4079 376.80403 214.3853 376.8054 L 201.08205 377.5996 C 201.04016 377.6021 200.99824 377.60423 200.9563 377.60597 L 186.76485 378.1973 C 186.66776 378.20133 186.5706 378.20335 186.47344 378.20335 L 173.2192 378.20335 L 160.67753 378.20335 C 160.63865 378.20335 160.59976 378.2037 160.56088 378.20433 L 148.8025 378.4003 C 148.68032 378.40234 148.55812 378.40117 148.436 378.3968 L 137.6024 378.0099 C 137.4803 378.00554 137.35809 378.00437 137.23591 378.0064 L 125.52127 378.20165 C 125.45323 378.2028 125.38518 378.20293 125.31713 378.2021 L 109.61484 378.0058 C 109.48444 378.00417 109.35411 377.9989 109.22401 377.99 L 94.91423 377.00986 C 94.85088 377.00552 94.7876 377.00032 94.72439 376.99426 L 80.23339 375.6047 C 80.22393 375.6038 80.21448 375.6029 80.20503 375.60194 L 66.39299 374.22073 C 66.27715 374.20915 66.16162 374.19468 66.0465 374.17733 L 51.73735 372.02116 C 51.65859 372.0093 51.57964 371.99877 51.50052 371.9896 L 37.98059 370.42207 C 37.873013 370.4096 37.76574 370.39463 37.65886 370.37718 L 28.26677 368.84377 C 28.10178 368.81684 27.937805 368.784 27.775164 368.7453 L 18.697565 366.58654 C 18.309246 366.4942 17.91959 366.73412 17.827241 367.12244 C 17.821158 367.14802 17.816475 367.1739 17.813213 367.2 Z" stroke="#7f8080" stroke-linecap="round" stroke-linejoin="round" stroke-width="1"/>
    </g>
  </g>
</svg>
