<?xml version="1.0" encoding="UTF-8" standalone="no"?>
<!DOCTYPE svg PUBLIC "-//W3C//DTD SVG 1.1//EN" "http://www.w3.org/Graphics/SVG/1.1/DTD/svg11.dtd">
<svg xmlns:xl="http://www.w3.org/1999/xlink" xmlns:dc="http://purl.org/dc/elements/1.1/" xmlns="http://www.w3.org/2000/svg" version="1.1" viewBox="-137 -113 433 449" width="433" height="449">
  <defs>
    <radialGradient cx="0" cy="0" r="1" id="Gradient" gradientUnits="userSpaceOnUse">
      <stop offset="0" stop-color="#cbcbcb"/>
      <stop offset=".4338305" stop-color="#a9887c"/>
      <stop offset="1" stop-color="#843918"/>
    </radialGradient>
    <radialGradient id="Obj_Gradient" xl:href="#Gradient" gradientTransform="translate(78.75925 -84.6) scale(70.26272)"/>
    <radialGradient cx="0" cy="0" r="1" id="Gradient_2" gradientUnits="userSpaceOnUse">
      <stop offset="0" stop-color="black"/>
      <stop offset="1" stop-color="#f9fdfc"/>
    </radialGradient>
    <radialGradient id="Obj_Gradient_2" xl:href="#Gradient_2" gradientTransform="translate(-93.8 51.246146) scale(46.03694)"/>
    <radialGradient id="Obj_Gradient_3" xl:href="#Gradient_2" gradientTransform="translate(253.2053 50.30275) scale(46.03694)"/>
    <radialGradient id="Obj_Gradient_4" xl:href="#Gradient_2" gradientTransform="translate(78.46239 -77.62263) scale(84.36943)"/>
    <radialGradient id="Obj_Gradient_5" xl:href="#Gradient_2" gradientTransform="translate(79.32968 324.9834) scale(135.94141)"/>
    <linearGradient x1="0" x2="1" id="Gradient_3" gradientUnits="userSpaceOnUse">
      <stop offset="0" stop-color="black"/>
      <stop offset="1" stop-color="#f9fdfc"/>
    </linearGradient>
    <linearGradient id="Obj_Gradient_6" xl:href="#Gradient_3" gradientTransform="translate(77.929625 -112) rotate(90) scale(25.755894)"/>
  </defs>
  <metadata> Produced by OmniGraffle 7.19.2\n2023-12-06 01:13:20 +0000</metadata>
  <g id="Canvas_175" stroke-opacity="1" fill-opacity="1" stroke-dasharray="none" fill="none" stroke="none">
    <title>Canvas 175</title>
    <g id="Canvas_175_Capa_1">
      <title>Capa 1</title>
      <g id="Graphic_18">
        <path d="M 17.005654 -111.40955 L 25.171106 -108.29184 C 26.029097 -107.96424 26.90594 -107.68833 27.796923 -107.46558 L 41.5141 -104.03629 C 42.67576 -103.74587 43.85832 -103.54662 45.051005 -103.44034 L 62.57715 -101.8786 C 63.165 -101.82622 63.75464 -101.79648 64.34478 -101.78946 L 79.823695 -101.60519 C 80.11404 -101.60173 80.40442 -101.60377 80.69469 -101.61131 L 95.118 -101.98594 C 95.47878 -101.99531 95.8393 -102.01317 96.19924 -102.03951 L 110.57053 -103.09107 C 111.56197 -103.16361 112.54766 -103.30036 113.5214 -103.50044 L 125.09436 -105.87845 C 126.13637 -106.09256 127.16226 -106.3787 128.16465 -106.73481 L 139.91664 -110.90986 C 141.00702 -111.29723 142.21021 -110.76646 142.65925 -109.7 L 142.65925 -109.7 C 143.1814 -108.4599 143.33338 -107.09515 143.09685 -105.77055 L 142.91637 -104.75986 C 142.61259 -103.0587 142.11806 -101.3972 141.44214 -99.80681 L 139.89892 -96.17569 C 139.34035 -94.86142 138.6606 -93.60202 137.86846 -92.41382 L 134.18268 -86.88515 C 133.43517 -85.76389 132.59057 -84.71049 131.65861 -83.73711 L 125.36354 -77.16226 C 124.49547 -76.25561 123.55463 -75.42154 122.55046 -74.66841 L 114.17555 -68.38723 C 113.29914 -67.729916 112.37688 -67.13606 111.41582 -66.6102 L 104.23062 -62.67867 C 102.91949 -61.961265 101.54156 -61.37336 100.11638 -60.9233 L 93.44347 -58.81607 C 91.72659 -58.2739 89.952 -57.935195 88.15613 -57.80692 L 81.269675 -57.31503 C 80.19738 -57.23844 79.12103 -57.23712 78.048545 -57.31108 L 69.61229 -57.89289 C 68.57811 -57.964216 67.54994 -58.10537 66.53481 -58.3154 L 59.3996 -59.79165 C 57.44765 -60.1955 55.556474 -60.85139 53.77362 -61.742815 L 49.11421 -64.07252 C 47.88007 -64.68959 46.703967 -65.41646 45.60012 -66.244345 L 39.918163 -70.50581 C 39.479027 -70.835165 39.051822 -71.18013 38.63737 -71.54005 L 32.88219 -76.53797 C 32.067903 -77.245115 31.304363 -78.008655 30.59722 -78.82294 L 26.191995 -83.89562 C 25.437892 -84.76398 24.749984 -85.68768 24.13406 -86.65895 L 20.400357 -92.54671 C 20.039791 -93.1153 19.704365 -93.69944 19.395049 -94.29745 L 17.774675 -97.43017 C 17.16553 -98.60785 16.659362 -99.836 16.261825 -101.10089 L 14.981586 -105.17438 C 14.766811 -105.85775 14.584079 -106.55079 14.433986 -107.25122 L 14.359248 -107.6 C 14.164585 -108.50843 14.271846 -109.45557 14.664727 -110.29746 L 14.759248 -110.5 C 15.153724 -111.34531 16.134195 -111.74229 17.005654 -111.40955 Z" fill="url(#Obj_Gradient)"/>
        <path d="M 17.005654 -111.40955 L 25.171106 -108.29184 C 26.029097 -107.96424 26.90594 -107.68833 27.796923 -107.46558 L 41.5141 -104.03629 C 42.67576 -103.74587 43.85832 -103.54662 45.051005 -103.44034 L 62.57715 -101.8786 C 63.165 -101.82622 63.75464 -101.79648 64.34478 -101.78946 L 79.823695 -101.60519 C 80.11404 -101.60173 80.40442 -101.60377 80.69469 -101.61131 L 95.118 -101.98594 C 95.47878 -101.99531 95.8393 -102.01317 96.19924 -102.03951 L 110.57053 -103.09107 C 111.56197 -103.16361 112.54766 -103.30036 113.5214 -103.50044 L 125.09436 -105.87845 C 126.13637 -106.09256 127.16226 -106.3787 128.16465 -106.73481 L 139.91664 -110.90986 C 141.00702 -111.29723 142.21021 -110.76646 142.65925 -109.7 L 142.65925 -109.7 C 143.1814 -108.4599 143.33338 -107.09515 143.09685 -105.77055 L 142.91637 -104.75986 C 142.61259 -103.0587 142.11806 -101.3972 141.44214 -99.80681 L 139.89892 -96.17569 C 139.34035 -94.86142 138.6606 -93.60202 137.86846 -92.41382 L 134.18268 -86.88515 C 133.43517 -85.76389 132.59057 -84.71049 131.65861 -83.73711 L 125.36354 -77.16226 C 124.49547 -76.25561 123.55463 -75.42154 122.55046 -74.66841 L 114.17555 -68.38723 C 113.29914 -67.729916 112.37688 -67.13606 111.41582 -66.6102 L 104.23062 -62.67867 C 102.91949 -61.961265 101.54156 -61.37336 100.11638 -60.9233 L 93.44347 -58.81607 C 91.72659 -58.2739 89.952 -57.935195 88.15613 -57.80692 L 81.269675 -57.31503 C 80.19738 -57.23844 79.12103 -57.23712 78.048545 -57.31108 L 69.61229 -57.89289 C 68.57811 -57.964216 67.54994 -58.10537 66.53481 -58.3154 L 59.3996 -59.79165 C 57.44765 -60.1955 55.556474 -60.85139 53.77362 -61.742815 L 49.11421 -64.07252 C 47.88007 -64.68959 46.703967 -65.41646 45.60012 -66.244345 L 39.918163 -70.50581 C 39.479027 -70.835165 39.051822 -71.18013 38.63737 -71.54005 L 32.88219 -76.53797 C 32.067903 -77.245115 31.304363 -78.008655 30.59722 -78.82294 L 26.191995 -83.89562 C 25.437892 -84.76398 24.749984 -85.68768 24.13406 -86.65895 L 20.400357 -92.54671 C 20.039791 -93.1153 19.704365 -93.69944 19.395049 -94.29745 L 17.774675 -97.43017 C 17.16553 -98.60785 16.659362 -99.836 16.261825 -101.10089 L 14.981586 -105.17438 C 14.766811 -105.85775 14.584079 -106.55079 14.433986 -107.25122 L 14.359248 -107.6 C 14.164585 -108.50843 14.271846 -109.45557 14.664727 -110.29746 L 14.759248 -110.5 C 15.153724 -111.34531 16.134195 -111.74229 17.005654 -111.40955 Z" stroke="#7f8080" stroke-linecap="round" stroke-linejoin="round" stroke-width="1"/>
      </g>
      <g id="Graphic_17">
        <path d="M -47.026545 325.2638 L -33.284304 327.55416 C -33.100928 327.58472 -32.917032 327.6121 -32.7327 327.63624 L -4.37906 331.35154 C -4.132532 331.38385 -3.8852846 331.4104 -3.637519 331.4312 L 26.60537 333.9677 C 26.862274 333.98923 27.119662 334.00456 27.377307 334.01367 L 66.30822 335.39 C 66.49658 335.39668 66.685045 335.4 66.87352 335.4 L 98.34084 335.4 C 98.50746 335.4 98.67407 335.3974 98.8406 335.3922 L 123.87539 334.60986 C 124.08563 334.6033 124.29573 334.59258 124.50555 334.57772 L 146.5533 333.0168 C 146.71161 333.0056 146.86975 332.99205 147.02766 332.97614 L 172.28815 330.4305 C 172.48989 330.41017 172.69122 330.386 172.89204 330.35803 L 196.68474 327.04265 C 196.88875 327.01422 197.0922 326.98186 197.29496 326.94558 L 206.49079 325.3 C 211.8179 324.34674 215.46876 319.3931 214.80234 314.02255 L 212.59475 296.23198 C 212.5921 296.21066 212.5895 296.18934 212.58695 296.168 L 209.02312 266.4695 C 209.00157 266.28985 208.98306 266.10985 208.9676 265.92958 L 206.6054 238.37037 C 206.59565 238.2568 206.58713 238.14312 206.57983 238.02936 L 205.1932 216.43772 C 205.1916 216.41258 205.18992 216.38744 205.18818 216.3623 L 203.59603 193.27599 C 203.59253 193.22533 203.58928 193.17466 203.58627 193.12398 L 202.4099 173.3218 C 202.39716 173.1073 202.38874 172.89255 202.38465 172.6777 L 201.99236 152.08285 C 201.9913 152.02762 201.98997 151.9724 201.98835 151.91718 L 201.39322 131.68283 C 201.3916 131.62761 201.39026 131.57239 201.3892 131.51715 L 200.99855 111.00761 C 200.99337 110.73592 200.99512 110.46413 201.0038 110.19253 L 201.58973 91.83292 C 201.59044 91.81097 201.59118 91.78903 201.59197 91.76709 L 202.38005 69.897785 C 202.3872 69.69928 202.39806 69.50093 202.4126 69.30283 L 203.97007 48.08221 C 203.98388 47.894086 203.99436 47.705734 204.0015 47.51724 L 204.75596 27.618373 C 204.77915 27.006628 204.83744 26.396718 204.93052 25.791652 L 207.66953 7.988134 C 207.7503 7.463036 207.8572 6.942288 207.9898 6.427825 L 212.61806 -11.529826 C 212.73316 -11.976399 212.8675 -12.417787 213.02073 -12.852753 L 218.74152 -29.092394 C 218.9076 -29.56387 219.0957 -30.027307 219.30517 -30.481174 L 224.83673 -42.466213 C 224.93942 -42.68871 225.0472 -42.908814 225.16 -43.126357 L 230.52223 -53.46778 C 230.56793 -53.555925 230.61446 -53.64364 230.6618 -53.730917 L 235.87777 -63.34788 C 236.61505 -64.70724 237.56468 -65.94013 238.69079 -67 L 238.69079 -67 C 239.36598 -67.63547 239.39817 -68.69797 238.7627 -69.37316 C 238.6382 -69.50544 238.49307 -69.61663 238.33295 -69.70241 L 235.1188 -71.42427 C 234.90016 -71.54141 234.6788 -71.65344 234.45494 -71.76029 L 226.60097 -75.50878 C 226.19436 -75.70284 225.77974 -75.87964 225.3582 -76.03871 L 215.68338 -79.68959 C 215.48833 -79.76319 215.29187 -79.83297 215.0941 -79.89889 L 202.39963 -84.13038 C 202.2604 -84.17679 202.12055 -84.22128 201.9801 -84.26384 L 189.09658 -88.16794 C 189.02605 -88.18931 188.95567 -88.21117 188.88544 -88.23352 L 176.38144 -92.21206 C 175.98782 -92.33731 175.5992 -92.47775 175.21643 -92.63307 L 163.24049 -97.49287 C 162.40883 -97.83036 161.60704 -98.23723 160.8436 -98.70917 L 151.22436 -104.65561 C 151.06865 -104.75186 150.91461 -104.85078 150.7623 -104.95232 L 145.8722 -108.21238 C 144.89081 -108.86665 144.0195 -109.67255 143.29078 -110.6 L 143.29078 -110.6 C 143.18518 -110.7344 142.99062 -110.75775 142.85621 -110.65215 C 142.75347 -110.57142 142.7125 -110.43487 142.75381 -110.31092 L 142.89078 -109.9 C 143.35003 -108.52225 143.4546 -107.05096 143.1948 -105.62211 L 142.79967 -103.44885 C 142.52845 -101.95719 142.0466 -100.51165 141.36858 -99.1556 L 139.83626 -96.09096 C 139.53956 -95.49756 139.20624 -94.92319 138.83823 -94.37117 L 135.63453 -89.56562 C 135.20593 -88.92272 134.73132 -88.31171 134.21443 -87.73739 L 129.65238 -82.66844 C 129.61132 -82.622815 129.56999 -82.57742 129.5284 -82.53227 L 123.53417 -76.02424 C 122.90643 -75.3427 122.22068 -74.71698 121.48465 -74.15413 L 116.46047 -70.31211 C 116.01432 -69.97094 115.55052 -69.6535 115.07099 -69.3611 L 108.58458 -65.40597 C 107.92292 -65.002524 107.23283 -64.64768 106.51975 -64.34424 L 99.40434 -61.316404 C 98.59667 -60.97272 97.76209 -60.696074 96.90905 -60.48928 L 92.82999 -59.500414 C 92.00516 -59.300454 91.16573 -59.16644 90.31963 -59.099645 L 84.61943 -58.64963 C 84.20049 -58.616555 83.78042 -58.6 83.36019 -58.6 L 76.32787 -58.6 C 75.57077 -58.6 74.81462 -58.65374 74.06513 -58.76081 L 66.11868 -59.896014 C 65.63367 -59.9653 65.1521 -60.05683 64.67549 -60.17031 L 58.714264 -61.58965 C 57.56878 -61.86238 56.4569 -62.260734 55.39883 -62.777466 L 49.118824 -65.844444 C 48.633774 -66.08133 48.16102 -66.34261 47.702383 -66.62728 L 43.49052 -69.24154 C 42.89135 -69.61344 42.317424 -70.02454 41.772495 -70.472165 L 37.32639 -74.12432 C 37.102693 -74.30807 36.884024 -74.49786 36.670626 -74.69348 L 32.868283 -78.17896 C 32.41699 -78.59264 31.98981 -79.03189 31.588852 -79.494535 L 27.470106 -84.24693 C 27.150724 -84.61545 26.848357 -84.99838 26.563952 -85.39451 L 22.134297 -91.56439 C 21.639405 -92.2537 21.200134 -92.9813 20.820642 -93.74028 L 18.244178 -98.89321 C 18.208582 -98.9644 18.173517 -99.03586 18.138986 -99.10758 L 16.890782 -101.7 C 16.040068 -103.46687 15.684547 -105.4314 15.862088 -107.38436 L 16.042293 -109.36661 C 16.066098 -109.62848 15.873116 -109.86006 15.611253 -109.88386 C 15.448858 -109.89862 15.290205 -109.82925 15.190782 -109.7 L 15.190782 -109.7 C 14.527336 -108.83752 13.747228 -108.07144 12.87285 -107.42375 L 8.976317 -104.53743 C 8.852634 -104.44582 8.727635 -104.35599 8.601359 -104.26798 L 3.9791086 -101.04641 C 2.7923725 -100.21929 1.4989518 -99.55692 .13420197 -99.07742 L -4.472924 -97.4587 C -4.963495 -97.28633 -5.445372 -97.09016 -5.91684 -96.87087 L -12.763621 -93.68632 C -13.459783 -93.36253 -14.178348 -93.08926 -14.913747 -92.86864 L -25.784136 -89.60752 C -25.800857 -89.60251 -25.81757 -89.59746 -25.834276 -89.59239 L -36.802363 -86.2628 C -36.94026 -86.22093 -37.077586 -86.17721 -37.2143 -86.13164 L -50.135536 -81.82456 C -50.18466 -81.80819 -50.23386 -81.79205 -50.283136 -81.77616 L -61.65054 -78.10925 C -62.28903 -77.90329 -62.91393 -77.65737 -63.52154 -77.37296 L -71.453505 -73.66012 C -71.823845 -73.48677 -72.1874 -73.29929 -72.54338 -73.09808 L -78.48949 -69.737235 C -79.74253 -69.029 -80.18417 -67.439075 -79.47594 -66.18604 C -79.39882 -66.0496 -79.30955 -65.9204 -79.20922 -65.8 L -78.34511 -64.76307 C -77.59016 -63.85713 -76.93769 -62.87051 -76.39957 -61.82118 L -73.32243 -55.82076 C -73.24696 -55.673596 -73.16921 -55.52761 -73.08922 -55.38285 L -69.13446 -48.22663 C -69.05097 -48.075553 -68.96993 -47.923133 -68.89137 -47.76943 L -64.78307 -39.731444 C -64.534 -39.244135 -64.3101 -38.744368 -64.11224 -38.234113 L -60.62947 -29.252235 C -60.61597 -29.21741 -60.602345 -29.182634 -60.5886 -29.147906 L -56.992276 -20.06246 C -56.87027 -19.754227 -56.75787 -19.442277 -56.65524 -19.12706 L -54.033404 -11.074284 C -54.01728 -11.02476 -54.0014 -10.975159 -53.98576 -10.925481 L -50.91371 -1.1672101 C -50.71092 -.52304844 -50.549114 .13330626 -50.429267 .7979154 L -48.443955 11.807372 C -48.4208 11.935787 -48.399213 12.06448 -48.379205 12.193423 L -46.673335 23.186805 C -46.6306 23.462223 -46.595065 23.73871 -46.56677 24.015984 L -45.67935 32.7127 C -45.63262 33.170688 -45.60567 33.63048 -45.59859 34.090793 L -45.41435 46.066414 C -45.41093 46.28878 -45.40287 46.511054 -45.390185 46.733086 L -44.61981 60.21465 C -44.61275 60.338214 -44.604255 60.46169 -44.59433 60.58506 L -43.26076 77.15943 C -43.22641 77.58631 -43.20922 78.01439 -43.20922 78.44264 L -43.20922 90.89242 C -43.20922 91.09746 -43.205277 91.30247 -43.197397 91.50735 L -42.617046 106.59649 C -42.61183 106.73216 -42.608337 106.86789 -42.606574 107.00365 L -42.414415 121.7999 C -42.41095 122.0666 -42.414157 122.33333 -42.42403 122.59986 L -42.998256 138.10401 C -43.005564 138.30132 -43.00922 138.49875 -43.00922 138.6962 L -43.00922 152.29243 C -43.00922 152.49746 -43.01316 152.70247 -43.02104 152.90736 L -43.60623 168.12236 C -43.608223 168.17412 -43.610465 168.22588 -43.61296 168.27762 L -44.40828 184.78055 C -44.408906 184.79352 -44.409547 184.80649 -44.410203 184.81945 L -45.20469 200.51062 C -45.20771 200.5702 -45.21106 200.62978 -45.214744 200.68933 L -46.403655 219.91007 C -46.407364 219.97003 -46.41141 220.02996 -46.415794 220.08987 L -48.19893 244.45942 C -48.20579 244.55314 -48.21347 244.6468 -48.22198 244.74038 L -50.00787 264.3852 C -50.00877 264.39507 -50.009676 264.40494 -50.01059 264.4148 L -51.781357 283.49972 C -51.79993 283.6999 -51.822274 283.8997 -51.848377 284.09903 L -53.80909 299.07175 C -53.9419 300.08594 -54.21104 301.07756 -54.60922 302.01973 L -54.60922 302.01973 C -55.006794 302.96048 -55.25546 303.9574 -55.346286 304.97465 L -56.10922 313.51973 C -56.616975 319.20676 -52.65851 324.32512 -47.026545 325.2638 Z" fill="black"/>
        <path d="M -47.026545 325.2638 L -33.284304 327.55416 C -33.100928 327.58472 -32.917032 327.6121 -32.7327 327.63624 L -4.37906 331.35154 C -4.132532 331.38385 -3.8852846 331.4104 -3.637519 331.4312 L 26.60537 333.9677 C 26.862274 333.98923 27.119662 334.00456 27.377307 334.01367 L 66.30822 335.39 C 66.49658 335.39668 66.685045 335.4 66.87352 335.4 L 98.34084 335.4 C 98.50746 335.4 98.67407 335.3974 98.8406 335.3922 L 123.87539 334.60986 C 124.08563 334.6033 124.29573 334.59258 124.50555 334.57772 L 146.5533 333.0168 C 146.71161 333.0056 146.86975 332.99205 147.02766 332.97614 L 172.28815 330.4305 C 172.48989 330.41017 172.69122 330.386 172.89204 330.35803 L 196.68474 327.04265 C 196.88875 327.01422 197.0922 326.98186 197.29496 326.94558 L 206.49079 325.3 C 211.8179 324.34674 215.46876 319.3931 214.80234 314.02255 L 212.59475 296.23198 C 212.5921 296.21066 212.5895 296.18934 212.58695 296.168 L 209.02312 266.4695 C 209.00157 266.28985 208.98306 266.10985 208.9676 265.92958 L 206.6054 238.37037 C 206.59565 238.2568 206.58713 238.14312 206.57983 238.02936 L 205.1932 216.43772 C 205.1916 216.41258 205.18992 216.38744 205.18818 216.3623 L 203.59603 193.27599 C 203.59253 193.22533 203.58928 193.17466 203.58627 193.12398 L 202.4099 173.3218 C 202.39716 173.1073 202.38874 172.89255 202.38465 172.6777 L 201.99236 152.08285 C 201.9913 152.02762 201.98997 151.9724 201.98835 151.91718 L 201.39322 131.68283 C 201.3916 131.62761 201.39026 131.57239 201.3892 131.51715 L 200.99855 111.00761 C 200.99337 110.73592 200.99512 110.46413 201.0038 110.19253 L 201.58973 91.83292 C 201.59044 91.81097 201.59118 91.78903 201.59197 91.76709 L 202.38005 69.897785 C 202.3872 69.69928 202.39806 69.50093 202.4126 69.30283 L 203.97007 48.08221 C 203.98388 47.894086 203.99436 47.705734 204.0015 47.51724 L 204.75596 27.618373 C 204.77915 27.006628 204.83744 26.396718 204.93052 25.791652 L 207.66953 7.988134 C 207.7503 7.463036 207.8572 6.942288 207.9898 6.427825 L 212.61806 -11.529826 C 212.73316 -11.976399 212.8675 -12.417787 213.02073 -12.852753 L 218.74152 -29.092394 C 218.9076 -29.56387 219.0957 -30.027307 219.30517 -30.481174 L 224.83673 -42.466213 C 224.93942 -42.68871 225.0472 -42.908814 225.16 -43.126357 L 230.52223 -53.46778 C 230.56793 -53.555925 230.61446 -53.64364 230.6618 -53.730917 L 235.87777 -63.34788 C 236.61505 -64.70724 237.56468 -65.94013 238.69079 -67 L 238.69079 -67 C 239.36598 -67.63547 239.39817 -68.69797 238.7627 -69.37316 C 238.6382 -69.50544 238.49307 -69.61663 238.33295 -69.70241 L 235.1188 -71.42427 C 234.90016 -71.54141 234.6788 -71.65344 234.45494 -71.76029 L 226.60097 -75.50878 C 226.19436 -75.70284 225.77974 -75.87964 225.3582 -76.03871 L 215.68338 -79.68959 C 215.48833 -79.76319 215.29187 -79.83297 215.0941 -79.89889 L 202.39963 -84.13038 C 202.2604 -84.17679 202.12055 -84.22128 201.9801 -84.26384 L 189.09658 -88.16794 C 189.02605 -88.18931 188.95567 -88.21117 188.88544 -88.23352 L 176.38144 -92.21206 C 175.98782 -92.33731 175.5992 -92.47775 175.21643 -92.63307 L 163.24049 -97.49287 C 162.40883 -97.83036 161.60704 -98.23723 160.8436 -98.70917 L 151.22436 -104.65561 C 151.06865 -104.75186 150.91461 -104.85078 150.7623 -104.95232 L 145.8722 -108.21238 C 144.89081 -108.86665 144.0195 -109.67255 143.29078 -110.6 L 143.29078 -110.6 C 143.18518 -110.7344 142.99062 -110.75775 142.85621 -110.65215 C 142.75347 -110.57142 142.7125 -110.43487 142.75381 -110.31092 L 142.89078 -109.9 C 143.35003 -108.52225 143.4546 -107.05096 143.1948 -105.62211 L 142.79967 -103.44885 C 142.52845 -101.95719 142.0466 -100.51165 141.36858 -99.1556 L 139.83626 -96.09096 C 139.53956 -95.49756 139.20624 -94.92319 138.83823 -94.37117 L 135.63453 -89.56562 C 135.20593 -88.92272 134.73132 -88.31171 134.21443 -87.73739 L 129.65238 -82.66844 C 129.61132 -82.622815 129.56999 -82.57742 129.5284 -82.53227 L 123.53417 -76.02424 C 122.90643 -75.3427 122.22068 -74.71698 121.48465 -74.15413 L 116.46047 -70.31211 C 116.01432 -69.97094 115.55052 -69.6535 115.07099 -69.3611 L 108.58458 -65.40597 C 107.92292 -65.002524 107.23283 -64.64768 106.51975 -64.34424 L 99.40434 -61.316404 C 98.59667 -60.97272 97.76209 -60.696074 96.90905 -60.48928 L 92.82999 -59.500414 C 92.00516 -59.300454 91.16573 -59.16644 90.31963 -59.099645 L 84.61943 -58.64963 C 84.20049 -58.616555 83.78042 -58.6 83.36019 -58.6 L 76.32787 -58.6 C 75.57077 -58.6 74.81462 -58.65374 74.06513 -58.76081 L 66.11868 -59.896014 C 65.63367 -59.9653 65.1521 -60.05683 64.67549 -60.17031 L 58.714264 -61.58965 C 57.56878 -61.86238 56.4569 -62.260734 55.39883 -62.777466 L 49.118824 -65.844444 C 48.633774 -66.08133 48.16102 -66.34261 47.702383 -66.62728 L 43.49052 -69.24154 C 42.89135 -69.61344 42.317424 -70.02454 41.772495 -70.472165 L 37.32639 -74.12432 C 37.102693 -74.30807 36.884024 -74.49786 36.670626 -74.69348 L 32.868283 -78.17896 C 32.41699 -78.59264 31.98981 -79.03189 31.588852 -79.494535 L 27.470106 -84.24693 C 27.150724 -84.61545 26.848357 -84.99838 26.563952 -85.39451 L 22.134297 -91.56439 C 21.639405 -92.2537 21.200134 -92.9813 20.820642 -93.74028 L 18.244178 -98.89321 C 18.208582 -98.9644 18.173517 -99.03586 18.138986 -99.10758 L 16.890782 -101.7 C 16.040068 -103.46687 15.684547 -105.4314 15.862088 -107.38436 L 16.042293 -109.36661 C 16.066098 -109.62848 15.873116 -109.86006 15.611253 -109.88386 C 15.448858 -109.89862 15.290205 -109.82925 15.190782 -109.7 L 15.190782 -109.7 C 14.527336 -108.83752 13.747228 -108.07144 12.87285 -107.42375 L 8.976317 -104.53743 C 8.852634 -104.44582 8.727635 -104.35599 8.601359 -104.26798 L 3.9791086 -101.04641 C 2.7923725 -100.21929 1.4989518 -99.55692 .13420197 -99.07742 L -4.472924 -97.4587 C -4.963495 -97.28633 -5.445372 -97.09016 -5.91684 -96.87087 L -12.763621 -93.68632 C -13.459783 -93.36253 -14.178348 -93.08926 -14.913747 -92.86864 L -25.784136 -89.60752 C -25.800857 -89.60251 -25.81757 -89.59746 -25.834276 -89.59239 L -36.802363 -86.2628 C -36.94026 -86.22093 -37.077586 -86.17721 -37.2143 -86.13164 L -50.135536 -81.82456 C -50.18466 -81.80819 -50.23386 -81.79205 -50.283136 -81.77616 L -61.65054 -78.10925 C -62.28903 -77.90329 -62.91393 -77.65737 -63.52154 -77.37296 L -71.453505 -73.66012 C -71.823845 -73.48677 -72.1874 -73.29929 -72.54338 -73.09808 L -78.48949 -69.737235 C -79.74253 -69.029 -80.18417 -67.439075 -79.47594 -66.18604 C -79.39882 -66.0496 -79.30955 -65.9204 -79.20922 -65.8 L -78.34511 -64.76307 C -77.59016 -63.85713 -76.93769 -62.87051 -76.39957 -61.82118 L -73.32243 -55.82076 C -73.24696 -55.673596 -73.16921 -55.52761 -73.08922 -55.38285 L -69.13446 -48.22663 C -69.05097 -48.075553 -68.96993 -47.923133 -68.89137 -47.76943 L -64.78307 -39.731444 C -64.534 -39.244135 -64.3101 -38.744368 -64.11224 -38.234113 L -60.62947 -29.252235 C -60.61597 -29.21741 -60.602345 -29.182634 -60.5886 -29.147906 L -56.992276 -20.06246 C -56.87027 -19.754227 -56.75787 -19.442277 -56.65524 -19.12706 L -54.033404 -11.074284 C -54.01728 -11.02476 -54.0014 -10.975159 -53.98576 -10.925481 L -50.91371 -1.1672101 C -50.71092 -.52304844 -50.549114 .13330626 -50.429267 .7979154 L -48.443955 11.807372 C -48.4208 11.935787 -48.399213 12.06448 -48.379205 12.193423 L -46.673335 23.186805 C -46.6306 23.462223 -46.595065 23.73871 -46.56677 24.015984 L -45.67935 32.7127 C -45.63262 33.170688 -45.60567 33.63048 -45.59859 34.090793 L -45.41435 46.066414 C -45.41093 46.28878 -45.40287 46.511054 -45.390185 46.733086 L -44.61981 60.21465 C -44.61275 60.338214 -44.604255 60.46169 -44.59433 60.58506 L -43.26076 77.15943 C -43.22641 77.58631 -43.20922 78.01439 -43.20922 78.44264 L -43.20922 90.89242 C -43.20922 91.09746 -43.205277 91.30247 -43.197397 91.50735 L -42.617046 106.59649 C -42.61183 106.73216 -42.608337 106.86789 -42.606574 107.00365 L -42.414415 121.7999 C -42.41095 122.0666 -42.414157 122.33333 -42.42403 122.59986 L -42.998256 138.10401 C -43.005564 138.30132 -43.00922 138.49875 -43.00922 138.6962 L -43.00922 152.29243 C -43.00922 152.49746 -43.01316 152.70247 -43.02104 152.90736 L -43.60623 168.12236 C -43.608223 168.17412 -43.610465 168.22588 -43.61296 168.27762 L -44.40828 184.78055 C -44.408906 184.79352 -44.409547 184.80649 -44.410203 184.81945 L -45.20469 200.51062 C -45.20771 200.5702 -45.21106 200.62978 -45.214744 200.68933 L -46.403655 219.91007 C -46.407364 219.97003 -46.41141 220.02996 -46.415794 220.08987 L -48.19893 244.45942 C -48.20579 244.55314 -48.21347 244.6468 -48.22198 244.74038 L -50.00787 264.3852 C -50.00877 264.39507 -50.009676 264.40494 -50.01059 264.4148 L -51.781357 283.49972 C -51.79993 283.6999 -51.822274 283.8997 -51.848377 284.09903 L -53.80909 299.07175 C -53.9419 300.08594 -54.21104 301.07756 -54.60922 302.01973 L -54.60922 302.01973 C -55.006794 302.96048 -55.25546 303.9574 -55.346286 304.97465 L -56.10922 313.51973 C -56.616975 319.20676 -52.65851 324.32512 -47.026545 325.2638 Z" stroke="#7f8080" stroke-linecap="round" stroke-linejoin="round" stroke-width="1"/>
      </g>
      <g id="Graphic_16">
        <path d="M -136 39.446146 L -129.8 43.846146 L -121.6 47.846146 L -113 51.446146 L -104 55.246146 L -93 59.246146 L -83.6 62.046146 L -74.6 64.646146 L -65.6 67.24615 L -60.2 68.64615 L -54.6 69.64615 L -52.2 63.846146 L -49.6 58.446146 L -47.4 54.446146 L -44.8 51.046146 L -44.6 42.046146 L -45.2 31.046145 L -47 20.246145 L -48.6 9.846145 L -51.2 -1.153855 L -53.6 -10.753855 L -56.4 -18.753855 L -59.6 -28.153855 L -62.4 -35.553856 L -66 -43.153856 L -70 -50.753856 L -74 -58.153856 L -76.6 -61.753856 L -80.2 -67.55386 L -85.6 -63.153856 L -90.4 -58.353856 L -95 -52.153856 L -99.4 -45.953856 L -104.2 -37.353856 L -109 -27.953855 L -113.8 -18.753855 L -117.4 -10.153855 L -121.4 -1.153855 L -124.6 7.046145 L -128.4 16.446145 L -131.2 24.446145 L -134.2 32.846145 Z" fill="black"/>
        <path d="M -136 39.446146 L -129.8 43.846146 L -121.6 47.846146 L -113 51.446146 L -104 55.246146 L -93 59.246146 L -83.6 62.046146 L -74.6 64.646146 L -65.6 67.24615 L -60.2 68.64615 L -54.6 69.64615 L -52.2 63.846146 L -49.6 58.446146 L -47.4 54.446146 L -44.8 51.046146 L -44.6 42.046146 L -45.2 31.046145 L -47 20.246145 L -48.6 9.846145 L -51.2 -1.153855 L -53.6 -10.753855 L -56.4 -18.753855 L -59.6 -28.153855 L -62.4 -35.553856 L -66 -43.153856 L -70 -50.753856 L -74 -58.153856 L -76.6 -61.753856 L -80.2 -67.55386 L -85.6 -63.153856 L -90.4 -58.353856 L -95 -52.153856 L -99.4 -45.953856 L -104.2 -37.353856 L -109 -27.953855 L -113.8 -18.753855 L -117.4 -10.153855 L -121.4 -1.153855 L -124.6 7.046145 L -128.4 16.446145 L -131.2 24.446145 L -134.2 32.846145 Z" stroke="#7f8080" stroke-linecap="round" stroke-linejoin="round" stroke-width="1"/>
      </g>
      <g id="Graphic_15">
        <path d="M 295.4053 38.50275 L 289.2053 42.90275 L 281.0053 46.90275 L 272.4053 50.50275 L 263.4053 54.30275 L 252.4053 58.30275 L 243.0053 61.10275 L 234.0053 63.70275 L 225.0053 66.30275 L 219.6053 67.70275 L 214.0053 68.70275 L 211.6053 62.90275 L 209.0053 57.50275 L 206.8053 53.50275 L 204.2053 50.10275 L 204.0053 41.10275 L 204.6053 30.10275 L 206.4053 19.30275 L 208.0053 8.902749 L 210.6053 -2.0972512 L 213.0053 -11.697251 L 215.8053 -19.697252 L 219.0053 -29.09725 L 221.8053 -36.49725 L 225.4053 -44.09725 L 229.4053 -51.69725 L 233.4053 -59.09725 L 236.0053 -62.69725 L 239.6053 -68.49725 L 245.0053 -64.09725 L 249.8053 -59.29725 L 254.4053 -53.09725 L 258.8053 -46.89725 L 263.6053 -38.29725 L 268.4053 -28.89725 L 273.2053 -19.697252 L 276.8053 -11.097251 L 280.8053 -2.0972512 L 284.0053 6.102749 L 287.8053 15.502749 L 290.6053 23.50275 L 293.6053 31.90275 Z" fill="black"/>
        <path d="M 295.4053 38.50275 L 289.2053 42.90275 L 281.0053 46.90275 L 272.4053 50.50275 L 263.4053 54.30275 L 252.4053 58.30275 L 243.0053 61.10275 L 234.0053 63.70275 L 225.0053 66.30275 L 219.6053 67.70275 L 214.0053 68.70275 L 211.6053 62.90275 L 209.0053 57.50275 L 206.8053 53.50275 L 204.2053 50.10275 L 204.0053 41.10275 L 204.6053 30.10275 L 206.4053 19.30275 L 208.0053 8.902749 L 210.6053 -2.0972512 L 213.0053 -11.697251 L 215.8053 -19.697252 L 219.0053 -29.09725 L 221.8053 -36.49725 L 225.4053 -44.09725 L 229.4053 -51.69725 L 233.4053 -59.09725 L 236.0053 -62.69725 L 239.6053 -68.49725 L 245.0053 -64.09725 L 249.8053 -59.29725 L 254.4053 -53.09725 L 258.8053 -46.89725 L 263.6053 -38.29725 L 268.4053 -28.89725 L 273.2053 -19.697252 L 276.8053 -11.097251 L 280.8053 -2.0972512 L 284.0053 6.102749 L 287.8053 15.502749 L 290.6053 23.50275 L 293.6053 31.90275 Z" stroke="#7f8080" stroke-linecap="round" stroke-linejoin="round" stroke-width="1"/>
      </g>
      <g id="Graphic_14">
        <path d="M -136 39.446146 L -129.8 43.846146 L -121.6 47.846146 L -113 51.446146 L -104 55.246146 L -93 59.246146 L -83.6 62.046146 L -74.6 64.646146 L -65.6 67.24615 L -60.2 68.64615 L -54.6 69.64615 L -51.6 63.246146 L -55.4 62.446146 L -60.2 61.246146 L -65.8 60.046146 L -71.8 58.246146 L -76.4 56.846146 L -80.6 55.646146 L -85.2 53.646146 L -89.8 52.046146 L -94.6 50.046146 L -98.6 48.646146 L -103.8 46.446146 L -108.4 44.846146 L -113.2 42.646146 L -118 40.846146 L -122 38.846146 L -126.4 36.646146 L -130.8 34.446146 L -134.2 32.846145 Z" fill="url(#Obj_Gradient_2)"/>
        <path d="M -136 39.446146 L -129.8 43.846146 L -121.6 47.846146 L -113 51.446146 L -104 55.246146 L -93 59.246146 L -83.6 62.046146 L -74.6 64.646146 L -65.6 67.24615 L -60.2 68.64615 L -54.6 69.64615 L -51.6 63.246146 L -55.4 62.446146 L -60.2 61.246146 L -65.8 60.046146 L -71.8 58.246146 L -76.4 56.846146 L -80.6 55.646146 L -85.2 53.646146 L -89.8 52.046146 L -94.6 50.046146 L -98.6 48.646146 L -103.8 46.446146 L -108.4 44.846146 L -113.2 42.646146 L -118 40.846146 L -122 38.846146 L -126.4 36.646146 L -130.8 34.446146 L -134.2 32.846145 Z" stroke="#7f8080" stroke-linecap="round" stroke-linejoin="round" stroke-width="1"/>
      </g>
      <g id="Graphic_13">
        <path d="M 295.4053 38.50275 L 289.2053 42.90275 L 281.0053 46.90275 L 272.4053 50.50275 L 263.4053 54.30275 L 252.4053 58.30275 L 243.0053 61.10275 L 234.0053 63.70275 L 225.0053 66.30275 L 219.6053 67.70275 L 214.0053 68.70275 L 211.0053 62.30275 L 214.8053 61.50275 L 219.6053 60.30275 L 225.2053 59.10275 L 231.2053 57.30275 L 235.8053 55.90275 L 240.0053 54.70275 L 244.6053 52.70275 L 249.2053 51.10275 L 254.0053 49.10275 L 258.0053 47.70275 L 263.2053 45.50275 L 267.8053 43.90275 L 272.6053 41.70275 L 277.4053 39.90275 L 281.4053 37.90275 L 285.8053 35.70275 L 290.2053 33.50275 L 293.6053 31.90275 Z" fill="url(#Obj_Gradient_3)"/>
        <path d="M 295.4053 38.50275 L 289.2053 42.90275 L 281.0053 46.90275 L 272.4053 50.50275 L 263.4053 54.30275 L 252.4053 58.30275 L 243.0053 61.10275 L 234.0053 63.70275 L 225.0053 66.30275 L 219.6053 67.70275 L 214.0053 68.70275 L 211.0053 62.30275 L 214.8053 61.50275 L 219.6053 60.30275 L 225.2053 59.10275 L 231.2053 57.30275 L 235.8053 55.90275 L 240.0053 54.70275 L 244.6053 52.70275 L 249.2053 51.10275 L 254.0053 49.10275 L 258.0053 47.70275 L 263.2053 45.50275 L 267.8053 43.90275 L 272.6053 41.70275 L 277.4053 39.90275 L 281.4053 37.90275 L 285.8053 35.70275 L 290.2053 33.50275 L 293.6053 31.90275 Z" stroke="#7f8080" stroke-linecap="round" stroke-linejoin="round" stroke-width="1"/>
      </g>
      <g id="Graphic_12">
        <path d="M 14.572121 -110.03621 L 9.84295 -105.98264 C 8.692603 -104.99662 7.447643 -104.12669 6.126213 -103.38552 L 3.599578 -101.96835 C 2.164406 -101.16338 1.583603 -99.39425 2.2623888 -97.89527 L 3.2800056 -95.64803 C 3.4015846 -95.37954 3.528313 -95.11342 3.660121 -94.8498 L 7.949377 -86.27129 C 8.291174 -85.5877 8.666832 -84.92157 9.074952 -84.27537 L 11.401344 -80.59192 C 11.84172 -79.89465 12.31928 -79.22158 12.831953 -78.57561 L 16.242638 -74.27815 C 16.788692 -73.590125 17.373712 -72.93394 17.994822 -72.31283 L 22.660865 -67.64679 C 23.061745 -67.24591 23.47731 -66.85999 23.90671 -66.48982 L 28.470235 -62.555744 C 28.864892 -62.21552 29.270997 -61.88881 29.687846 -61.57617 L 33.662786 -58.59497 C 34.3287 -58.09553 35.021233 -57.63262 35.73733 -57.20826 L 39.870394 -54.75904 C 39.99839 -54.68319 40.127117 -54.608586 40.25656 -54.535235 L 44.954107 -51.87329 C 45.6924 -51.45493 46.453276 -51.07774 47.23325 -50.743466 L 50.78307 -49.222117 C 51.36903 -48.97099 51.96518 -48.744334 52.569974 -48.542736 L 57.58808 -46.870034 C 58.835325 -46.454286 60.11592 -46.146244 61.415795 -45.949294 L 65.51464 -45.328256 C 65.879756 -45.272936 66.24615 -45.226417 66.6135 -45.18874 L 73.494605 -44.482985 C 73.73978 -44.45784 73.98534 -44.436636 74.2312 -44.41938 L 78.75835 -44.10169 C 79.29421 -44.064085 79.83122 -44.045266 80.3684 -44.045266 L 83.63046 -44.045264 C 84.58416 -44.045264 85.53693 -44.10458 86.48327 -44.222873 L 90.47198 -44.72146 C 91.13195 -44.80396 91.78802 -44.91504 92.43835 -45.0544 L 98.52039 -46.35769 C 99.41426 -46.549236 100.29592 -46.7939 101.16068 -47.09039 L 105.66952 -48.63628 C 106.46417 -48.90873 107.2433 -49.224514 108.0034 -49.58221 L 112.83677 -51.85674 C 113.38697 -52.115653 113.92668 -52.396286 114.45464 -52.697975 L 118.2225 -54.85104 C 118.9153 -55.24692 119.58701 -55.678585 120.23494 -56.14428 L 124.91106 -59.505246 C 125.41175 -59.86511 125.89776 -60.24497 126.36792 -60.64389 L 131.68877 -65.158555 C 132.07108 -65.48294 132.44269 -65.81974 132.80298 -66.16842 L 137.5022 -70.71604 C 138.14179 -71.335 138.74491 -71.990565 139.30852 -72.67942 L 143.1018 -77.31566 C 143.60852 -77.93497 144.08257 -78.58031 144.52201 -79.24904 L 148.1392 -84.75344 C 148.35462 -85.08127 148.56163 -85.41456 148.76002 -85.75298 L 151.28311 -90.05708 C 151.66906 -90.71546 152.022 -91.39265 152.34062 -92.08612 L 154.45932 -96.69739 C 154.99218 -97.85715 155.36334 -99.08456 155.5624 -100.34526 L 155.5624 -100.34526 C 155.7407 -101.47453 155.1614 -102.58797 154.13432 -103.0901 L 148.84088 -105.678 C 147.52642 -106.32063 146.29183 -107.11514 145.1624 -108.04526 L 144.29671 -108.75818 C 143.74282 -109.21432 143.25024 -109.74017 142.8312 -110.32263 L 142.8312 -110.32263 C 142.71792 -110.48009 142.49845 -110.5159 142.341 -110.40263 C 142.24974 -110.33697 142.19542 -110.2316 142.1949 -110.11919 L 142.1812 -107.22263 C 142.16878 -104.59737 141.63352 -102.00087 140.60666 -99.58473 L 139.60206 -97.22096 C 139.0435 -95.90669 138.36374 -94.64729 137.5716 -93.45909 L 133.88582 -87.93042 C 133.13831 -86.80915 132.2937 -85.75575 131.36175 -84.78238 L 125.06668 -78.20753 C 124.19861 -77.300875 123.25777 -76.4668 122.2536 -75.71367 L 113.8787 -69.432495 C 113.00228 -68.77518 112.08002 -68.181326 111.11896 -67.65546 L 103.93376 -63.72394 C 102.62263 -63.00653 101.2447 -62.41863 99.81952 -61.96857 L 93.14661 -59.861334 C 91.42973 -59.31916 89.65514 -58.98046 87.85927 -58.852185 L 80.972815 -58.360296 C 79.90052 -58.2837 78.82417 -58.282384 77.751685 -58.35635 L 69.31543 -58.93816 C 68.28125 -59.00948 67.25308 -59.15064 66.23795 -59.36067 L 59.10274 -60.836916 C 57.15079 -61.24077 55.259614 -61.89665 53.47676 -62.78808 L 48.81735 -65.117785 C 47.58321 -65.73485 46.407106 -66.46173 45.30326 -67.28961 L 39.621303 -71.55108 C 39.182167 -71.88043 38.75496 -72.2254 38.34051 -72.58532 L 32.58533 -77.58324 C 31.771043 -78.29038 31.007503 -79.05392 30.30036 -79.86821 L 25.895135 -84.94089 C 25.141032 -85.80925 24.453124 -86.73295 23.8372 -87.70422 L 20.103497 -93.59198 C 19.742931 -94.16056 19.407505 -94.7447 19.098188 -95.34272 L 17.477815 -98.47544 C 16.86867 -99.65312 16.362502 -100.88126 15.964965 -102.14615 L 14.684726 -106.21964 C 14.469951 -106.90302 14.287218 -107.59605 14.137126 -108.29649 L 13.911709 -109.34843 C 13.826635 -109.74544 14.052993 -110.1431 14.437797 -110.27263 L 14.437797 -110.27263 C 14.510292 -110.29704 14.588844 -110.25805 14.613249 -110.18556 C 14.631263 -110.13205 14.61499 -110.07296 14.572121 -110.03621 Z" fill="url(#Obj_Gradient_4)"/>
        <path d="M 14.572121 -110.03621 L 9.84295 -105.98264 C 8.692603 -104.99662 7.447643 -104.12669 6.126213 -103.38552 L 3.599578 -101.96835 C 2.164406 -101.16338 1.583603 -99.39425 2.2623888 -97.89527 L 3.2800056 -95.64803 C 3.4015846 -95.37954 3.528313 -95.11342 3.660121 -94.8498 L 7.949377 -86.27129 C 8.291174 -85.5877 8.666832 -84.92157 9.074952 -84.27537 L 11.401344 -80.59192 C 11.84172 -79.89465 12.31928 -79.22158 12.831953 -78.57561 L 16.242638 -74.27815 C 16.788692 -73.590125 17.373712 -72.93394 17.994822 -72.31283 L 22.660865 -67.64679 C 23.061745 -67.24591 23.47731 -66.85999 23.90671 -66.48982 L 28.470235 -62.555744 C 28.864892 -62.21552 29.270997 -61.88881 29.687846 -61.57617 L 33.662786 -58.59497 C 34.3287 -58.09553 35.021233 -57.63262 35.73733 -57.20826 L 39.870394 -54.75904 C 39.99839 -54.68319 40.127117 -54.608586 40.25656 -54.535235 L 44.954107 -51.87329 C 45.6924 -51.45493 46.453276 -51.07774 47.23325 -50.743466 L 50.78307 -49.222117 C 51.36903 -48.97099 51.96518 -48.744334 52.569974 -48.542736 L 57.58808 -46.870034 C 58.835325 -46.454286 60.11592 -46.146244 61.415795 -45.949294 L 65.51464 -45.328256 C 65.879756 -45.272936 66.24615 -45.226417 66.6135 -45.18874 L 73.494605 -44.482985 C 73.73978 -44.45784 73.98534 -44.436636 74.2312 -44.41938 L 78.75835 -44.10169 C 79.29421 -44.064085 79.83122 -44.045266 80.3684 -44.045266 L 83.63046 -44.045264 C 84.58416 -44.045264 85.53693 -44.10458 86.48327 -44.222873 L 90.47198 -44.72146 C 91.13195 -44.80396 91.78802 -44.91504 92.43835 -45.0544 L 98.52039 -46.35769 C 99.41426 -46.549236 100.29592 -46.7939 101.16068 -47.09039 L 105.66952 -48.63628 C 106.46417 -48.90873 107.2433 -49.224514 108.0034 -49.58221 L 112.83677 -51.85674 C 113.38697 -52.115653 113.92668 -52.396286 114.45464 -52.697975 L 118.2225 -54.85104 C 118.9153 -55.24692 119.58701 -55.678585 120.23494 -56.14428 L 124.91106 -59.505246 C 125.41175 -59.86511 125.89776 -60.24497 126.36792 -60.64389 L 131.68877 -65.158555 C 132.07108 -65.48294 132.44269 -65.81974 132.80298 -66.16842 L 137.5022 -70.71604 C 138.14179 -71.335 138.74491 -71.990565 139.30852 -72.67942 L 143.1018 -77.31566 C 143.60852 -77.93497 144.08257 -78.58031 144.52201 -79.24904 L 148.1392 -84.75344 C 148.35462 -85.08127 148.56163 -85.41456 148.76002 -85.75298 L 151.28311 -90.05708 C 151.66906 -90.71546 152.022 -91.39265 152.34062 -92.08612 L 154.45932 -96.69739 C 154.99218 -97.85715 155.36334 -99.08456 155.5624 -100.34526 L 155.5624 -100.34526 C 155.7407 -101.47453 155.1614 -102.58797 154.13432 -103.0901 L 148.84088 -105.678 C 147.52642 -106.32063 146.29183 -107.11514 145.1624 -108.04526 L 144.29671 -108.75818 C 143.74282 -109.21432 143.25024 -109.74017 142.8312 -110.32263 L 142.8312 -110.32263 C 142.71792 -110.48009 142.49845 -110.5159 142.341 -110.40263 C 142.24974 -110.33697 142.19542 -110.2316 142.1949 -110.11919 L 142.1812 -107.22263 C 142.16878 -104.59737 141.63352 -102.00087 140.60666 -99.58473 L 139.60206 -97.22096 C 139.0435 -95.90669 138.36374 -94.64729 137.5716 -93.45909 L 133.88582 -87.93042 C 133.13831 -86.80915 132.2937 -85.75575 131.36175 -84.78238 L 125.06668 -78.20753 C 124.19861 -77.300875 123.25777 -76.4668 122.2536 -75.71367 L 113.8787 -69.432495 C 113.00228 -68.77518 112.08002 -68.181326 111.11896 -67.65546 L 103.93376 -63.72394 C 102.62263 -63.00653 101.2447 -62.41863 99.81952 -61.96857 L 93.14661 -59.861334 C 91.42973 -59.31916 89.65514 -58.98046 87.85927 -58.852185 L 80.972815 -58.360296 C 79.90052 -58.2837 78.82417 -58.282384 77.751685 -58.35635 L 69.31543 -58.93816 C 68.28125 -59.00948 67.25308 -59.15064 66.23795 -59.36067 L 59.10274 -60.836916 C 57.15079 -61.24077 55.259614 -61.89665 53.47676 -62.78808 L 48.81735 -65.117785 C 47.58321 -65.73485 46.407106 -66.46173 45.30326 -67.28961 L 39.621303 -71.55108 C 39.182167 -71.88043 38.75496 -72.2254 38.34051 -72.58532 L 32.58533 -77.58324 C 31.771043 -78.29038 31.007503 -79.05392 30.30036 -79.86821 L 25.895135 -84.94089 C 25.141032 -85.80925 24.453124 -86.73295 23.8372 -87.70422 L 20.103497 -93.59198 C 19.742931 -94.16056 19.407505 -94.7447 19.098188 -95.34272 L 17.477815 -98.47544 C 16.86867 -99.65312 16.362502 -100.88126 15.964965 -102.14615 L 14.684726 -106.21964 C 14.469951 -106.90302 14.287218 -107.59605 14.137126 -108.29649 L 13.911709 -109.34843 C 13.826635 -109.74544 14.052993 -110.1431 14.437797 -110.27263 L 14.437797 -110.27263 C 14.510292 -110.29704 14.588844 -110.25805 14.613249 -110.18556 C 14.631263 -110.13205 14.61499 -110.07296 14.572121 -110.03621 Z" stroke="#7f8080" stroke-linecap="round" stroke-linejoin="round" stroke-width="1"/>
      </g>
      <g id="Graphic_11">
        <path d="M -56.186787 315.2 L -56.186787 315.2 C -56.25247 315.7255 -56.189645 316.25905 -56.0037 316.7549 L -55.352694 318.49092 C -55.17594 318.96227 -54.948853 319.41318 -54.67538 319.8358 L -53.707566 321.33153 C -53.16661 322.16756 -52.453506 322.87855 -51.61588 323.41702 L -50.53783 324.11005 C -50.237574 324.30307 -49.922994 324.47285 -49.596843 324.6179 L -48.27999 325.2035 C -47.68346 325.46876 -47.052754 325.64928 -46.406207 325.7398 L -37.395787 327.00126 C -37.385793 327.00265 -37.375797 327.00403 -37.365797 327.0054 L -25.6498 328.594 C -25.603798 328.60024 -25.557737 328.606 -25.511622 328.61134 L -15.228685 329.79783 C -15.19676 329.8015 -15.164809 329.80498 -15.132835 329.8082 L -1.4227692 331.1991 C -1.3947873 331.20193 -1.3667884 331.2046 -1.3387743 331.2071 L 9.766526 332.19865 C 9.801644 332.2018 9.836786 332.20466 9.871948 332.20726 L 20.558485 332.99886 C 20.598964 333.00185 20.639468 333.0045 20.679993 333.0068 L 31.187976 333.6016 C 31.208795 333.60276 31.22961 333.60404 31.250416 333.6054 L 43.293193 334.3951 C 43.377194 334.4006 43.46129 334.4046 43.54543 334.40707 L 56.99256 334.80257 C 57.01032 334.8031 57.028085 334.8037 57.045846 334.80434 L 67.68971 335.19856 C 67.77603 335.20176 67.86241 335.20335 67.94879 335.20335 L 78.55781 335.20335 C 78.59874 335.20335 78.63967 335.2037 78.68059 335.20443 L 89.76702 335.39893 C 89.93509 335.40188 90.10321 335.39877 90.27106 335.3896 L 100.89229 334.81028 C 100.97689 334.80566 101.06157 334.8026 101.14629 334.80104 L 111.91085 334.60532 C 111.98308 334.604 112.05529 334.60158 112.12745 334.59803 L 124.14607 334.00695 C 124.19483 334.00455 124.24355 334.00165 124.29225 333.99823 L 135.5323 333.20945 C 135.59023 333.2054 135.64812 333.2006 135.70594 333.1951 L 148.11651 332.01313 C 148.18497 332.0066 148.25352 332.0011 148.32214 331.9966 L 160.25416 331.21418 C 160.36418 331.20696 160.474 331.19715 160.58355 331.18475 L 170.9959 330.006 C 171.01144 330.00423 171.02697 330.00242 171.0425 330.00056 L 180.9902 328.80683 C 181.00954 328.8045 181.02886 328.8021 181.04818 328.79963 L 194.88394 327.0221 C 194.98115 327.0096 195.0781 326.99507 195.1747 326.9785 L 201.72819 325.85506 C 201.92915 325.8206 202.13153 325.79495 202.33473 325.77817 L 205.56706 325.5112 C 206.4563 325.43775 207.3233 325.19497 208.12135 324.79594 L 209.60765 324.0528 C 210.20824 323.7525 210.7625 323.36735 211.25338 322.9092 L 212.5885 321.6631 C 213.19532 321.0967 213.65073 320.38747 213.91322 319.6 L 214.20805 318.71552 C 214.27812 318.5053 214.33817 318.29187 214.388 318.07595 L 214.8577 316.04056 C 214.89293 315.88792 214.8595 315.72752 214.7662 315.6017 L 214.7662 315.6017 C 214.67587 315.4798 214.52523 315.4183 214.3754 315.44214 L 205.89555 316.7912 C 205.84466 316.7993 205.79385 316.80796 205.74315 316.8172 L 192.7584 319.17805 C 192.6656 319.1949 192.5725 319.2099 192.47911 319.223 L 181.24943 320.7991 C 181.22928 320.80194 181.20914 320.80486 181.18902 320.80786 L 168.06643 322.76645 C 167.90167 322.79105 167.73608 322.80975 167.56998 322.82253 L 154.84517 323.80136 C 154.82786 323.8027 154.81055 323.80396 154.79323 323.80516 L 140.45308 324.801 C 140.4305 324.80257 140.4079 324.80403 140.3853 324.80538 L 127.08205 325.5996 C 127.04016 325.6021 126.99824 325.60423 126.9563 325.60597 L 112.76485 326.1973 C 112.66776 326.20133 112.5706 326.20335 112.47344 326.20335 L 86.67753 326.20335 C 86.63865 326.20335 86.59976 326.20368 86.56088 326.20433 L 74.8025 326.4003 C 74.68032 326.40234 74.55812 326.40117 74.436005 326.3968 L 63.602405 326.0099 C 63.48029 326.00554 63.35809 326.00437 63.235914 326.0064 L 51.521274 326.20165 C 51.45323 326.2028 51.385176 326.20293 51.31713 326.20208 L 35.614845 326.0058 C 35.484443 326.00417 35.354113 325.9989 35.224007 325.99 L 20.91423 325.00986 C 20.850882 325.00552 20.787597 325.00032 20.724392 324.99426 L 6.233386 323.6047 C 6.2239315 323.6038 6.214479 323.6029 6.205028 323.60194 L -7.607008 322.22073 C -7.722849 322.20915 -7.838382 322.19468 -7.953501 322.17733 L -22.262653 320.02116 C -22.34141 320.0093 -22.420363 319.99877 -22.499479 319.9896 L -36.01941 318.42207 C -36.126987 318.4096 -36.23426 318.39463 -36.34114 318.37718 L -45.73323 316.84377 C -45.89822 316.81684 -46.062195 316.784 -46.224836 316.7453 L -55.302435 314.58654 C -55.690754 314.4942 -56.08041 314.73412 -56.17276 315.12244 C -56.17884 315.14802 -56.183525 315.1739 -56.186787 315.2 Z" fill="url(#Obj_Gradient_5)"/>
        <path d="M -56.186787 315.2 L -56.186787 315.2 C -56.25247 315.7255 -56.189645 316.25905 -56.0037 316.7549 L -55.352694 318.49092 C -55.17594 318.96227 -54.948853 319.41318 -54.67538 319.8358 L -53.707566 321.33153 C -53.16661 322.16756 -52.453506 322.87855 -51.61588 323.41702 L -50.53783 324.11005 C -50.237574 324.30307 -49.922994 324.47285 -49.596843 324.6179 L -48.27999 325.2035 C -47.68346 325.46876 -47.052754 325.64928 -46.406207 325.7398 L -37.395787 327.00126 C -37.385793 327.00265 -37.375797 327.00403 -37.365797 327.0054 L -25.6498 328.594 C -25.603798 328.60024 -25.557737 328.606 -25.511622 328.61134 L -15.228685 329.79783 C -15.19676 329.8015 -15.164809 329.80498 -15.132835 329.8082 L -1.4227692 331.1991 C -1.3947873 331.20193 -1.3667884 331.2046 -1.3387743 331.2071 L 9.766526 332.19865 C 9.801644 332.2018 9.836786 332.20466 9.871948 332.20726 L 20.558485 332.99886 C 20.598964 333.00185 20.639468 333.0045 20.679993 333.0068 L 31.187976 333.6016 C 31.208795 333.60276 31.22961 333.60404 31.250416 333.6054 L 43.293193 334.3951 C 43.377194 334.4006 43.46129 334.4046 43.54543 334.40707 L 56.99256 334.80257 C 57.01032 334.8031 57.028085 334.8037 57.045846 334.80434 L 67.68971 335.19856 C 67.77603 335.20176 67.86241 335.20335 67.94879 335.20335 L 78.55781 335.20335 C 78.59874 335.20335 78.63967 335.2037 78.68059 335.20443 L 89.76702 335.39893 C 89.93509 335.40188 90.10321 335.39877 90.27106 335.3896 L 100.89229 334.81028 C 100.97689 334.80566 101.06157 334.8026 101.14629 334.80104 L 111.91085 334.60532 C 111.98308 334.604 112.05529 334.60158 112.12745 334.59803 L 124.14607 334.00695 C 124.19483 334.00455 124.24355 334.00165 124.29225 333.99823 L 135.5323 333.20945 C 135.59023 333.2054 135.64812 333.2006 135.70594 333.1951 L 148.11651 332.01313 C 148.18497 332.0066 148.25352 332.0011 148.32214 331.9966 L 160.25416 331.21418 C 160.36418 331.20696 160.474 331.19715 160.58355 331.18475 L 170.9959 330.006 C 171.01144 330.00423 171.02697 330.00242 171.0425 330.00056 L 180.9902 328.80683 C 181.00954 328.8045 181.02886 328.8021 181.04818 328.79963 L 194.88394 327.0221 C 194.98115 327.0096 195.0781 326.99507 195.1747 326.9785 L 201.72819 325.85506 C 201.92915 325.8206 202.13153 325.79495 202.33473 325.77817 L 205.56706 325.5112 C 206.4563 325.43775 207.3233 325.19497 208.12135 324.79594 L 209.60765 324.0528 C 210.20824 323.7525 210.7625 323.36735 211.25338 322.9092 L 212.5885 321.6631 C 213.19532 321.0967 213.65073 320.38747 213.91322 319.6 L 214.20805 318.71552 C 214.27812 318.5053 214.33817 318.29187 214.388 318.07595 L 214.8577 316.04056 C 214.89293 315.88792 214.8595 315.72752 214.7662 315.6017 L 214.7662 315.6017 C 214.67587 315.4798 214.52523 315.4183 214.3754 315.44214 L 205.89555 316.7912 C 205.84466 316.7993 205.79385 316.80796 205.74315 316.8172 L 192.7584 319.17805 C 192.6656 319.1949 192.5725 319.2099 192.47911 319.223 L 181.24943 320.7991 C 181.22928 320.80194 181.20914 320.80486 181.18902 320.80786 L 168.06643 322.76645 C 167.90167 322.79105 167.73608 322.80975 167.56998 322.82253 L 154.84517 323.80136 C 154.82786 323.8027 154.81055 323.80396 154.79323 323.80516 L 140.45308 324.801 C 140.4305 324.80257 140.4079 324.80403 140.3853 324.80538 L 127.08205 325.5996 C 127.04016 325.6021 126.99824 325.60423 126.9563 325.60597 L 112.76485 326.1973 C 112.66776 326.20133 112.5706 326.20335 112.47344 326.20335 L 86.67753 326.20335 C 86.63865 326.20335 86.59976 326.20368 86.56088 326.20433 L 74.8025 326.4003 C 74.68032 326.40234 74.55812 326.40117 74.436005 326.3968 L 63.602405 326.0099 C 63.48029 326.00554 63.35809 326.00437 63.235914 326.0064 L 51.521274 326.20165 C 51.45323 326.2028 51.385176 326.20293 51.31713 326.20208 L 35.614845 326.0058 C 35.484443 326.00417 35.354113 325.9989 35.224007 325.99 L 20.91423 325.00986 C 20.850882 325.00552 20.787597 325.00032 20.724392 324.99426 L 6.233386 323.6047 C 6.2239315 323.6038 6.214479 323.6029 6.205028 323.60194 L -7.607008 322.22073 C -7.722849 322.20915 -7.838382 322.19468 -7.953501 322.17733 L -22.262653 320.02116 C -22.34141 320.0093 -22.420363 319.99877 -22.499479 319.9896 L -36.01941 318.42207 C -36.126987 318.4096 -36.23426 318.39463 -36.34114 318.37718 L -45.73323 316.84377 C -45.89822 316.81684 -46.062195 316.784 -46.224836 316.7453 L -55.302435 314.58654 C -55.690754 314.4942 -56.08041 314.73412 -56.17276 315.12244 C -56.17884 315.14802 -56.183525 315.1739 -56.186787 315.2 Z" stroke="#7f8080" stroke-linecap="round" stroke-linejoin="round" stroke-width="1"/>
      </g>
      <g id="Graphic_10">
        <path d="M -54.5 -12.5 L 214 -13.5 L 209.5 -.5 L 208 12 L 205.5 26.5 L 204 37.5 L 203.5 46.5 L -45 47.5 L -45 38.5 L -45.5 29 L -47 18 L -47 17 L -48.5 9.5 L -51.5 -2 L -52.5 -8 Z" fill="white"/>
        <path d="M -54.5 -12.5 L 214 -13.5 L 209.5 -.5 L 208 12 L 205.5 26.5 L 204 37.5 L 203.5 46.5 L -45 47.5 L -45 38.5 L -45.5 29 L -47 18 L -47 17 L -48.5 9.5 L -51.5 -2 L -52.5 -8 Z" stroke="#7f8080" stroke-linecap="round" stroke-linejoin="round" stroke-width="1"/>
      </g>
      <g id="Graphic_9">
        <path d="M -41.299625 219.96304 L 204.5 217 L 206 236.5 L 207.5 258 L 208.5 271.5 L 208 274 L -51.2 274.8 L -49.4 256.2 L -47.6 237.6 L -46.2 220 L -45.149813 219.96304 Z" fill="white"/>
        <path d="M -41.299625 219.96304 L 204.5 217 L 206 236.5 L 207.5 258 L 208.5 271.5 L 208 274 L -51.2 274.8 L -49.4 256.2 L -47.6 237.6 L -46.2 220 L -45.149813 219.96304 Z" stroke="#7f8080" stroke-linecap="round" stroke-linejoin="round" stroke-width="1"/>
      </g>
      <g id="Graphic_8">
        <path d="M -42.4 109.6 L 201.50607 108.30017 L 201.50607 125.99305 L 202.5 149.58356 L 202.5 160.5363 L -43 162.22133 L -43 140.4 L -42.6 122.4 Z" fill="white"/>
        <path d="M -42.4 109.6 L 201.50607 108.30017 L 201.50607 125.99305 L 202.5 149.58356 L 202.5 160.5363 L -43 162.22133 L -43 140.4 L -42.6 122.4 Z" stroke="#7f8080" stroke-linecap="round" stroke-linejoin="round" stroke-width="1"/>
      </g>
      <g id="Graphic_7">
        <path d="M 203 48 L 289 17 L 275 -16 L 266 -32 L 213 -13 Z" fill="white"/>
        <path d="M 203 48 L 289 17 L 275 -16 L 266 -32 L 213 -13 Z" stroke="#7f8080" stroke-linecap="round" stroke-linejoin="round" stroke-width="1"/>
      </g>
      <g id="Graphic_6">
        <path d="M -44.6 48 L -129 17 L -114 -17 L -107.6 -32 L -54.6 -13 L -47 18 Z" fill="white"/>
        <path d="M -44.6 48 L -129 17 L -114 -17 L -107.6 -32 L -54.6 -13 L -47 18 Z" stroke="#7f8080" stroke-linecap="round" stroke-linejoin="round" stroke-width="1"/>
      </g>
      <g id="Graphic_5">
        <path d="M -80 -67 L 20 -68 L 10 -82 L 5 -91 L 1 -100 L -20 -92 L -38 -86 L -59 -80 L -73 -74 L -75.6 -72.2 L -78.2 -70 Z" fill="white"/>
        <path d="M -80 -67 L 20 -68 L 10 -82 L 5 -91 L 1 -100 L -20 -92 L -38 -86 L -59 -80 L -73 -74 L -75.6 -72.2 L -78.2 -70 Z" stroke="#7f8080" stroke-linecap="round" stroke-linejoin="round" stroke-width="1"/>
      </g>
      <g id="Graphic_4">
        <path d="M 240 -68 L 136 -68 L 147 -82 L 152 -93 L 155.6 -101.4 L 179.21902 -92 L 197.21902 -86 L 218.21902 -80 L 232.21902 -74 Z" fill="white"/>
        <path d="M 240 -68 L 136 -68 L 147 -82 L 152 -93 L 155.6 -101.4 L 179.21902 -92 L 197.21902 -86 L 218.21902 -80 L 232.21902 -74 Z" stroke="#7f8080" stroke-linecap="round" stroke-linejoin="round" stroke-width="1"/>
      </g>
      <g id="Graphic_3">
        <path d="M 13.8 -110 L 14.6 -111 L 16.4 -112 L 19.459248 -110.84411 L 26.259248 -107.44411 L 31.259248 -105.64411 L 39.65925 -103.84411 L 48.05925 -102.84411 L 56.05925 -101.84411 L 63.65925 -101.64411 L 72.25925 -101.24411 L 83.85925 -101.44411 L 92.25925 -101.84411 L 101.65925 -102.44411 L 110.05925 -103.24411 L 119.25925 -104.64411 L 127.45925 -106.84411 L 133.25925 -108.64411 L 138.85925 -111.24411 L 141.65925 -110.04411 L 142.05925 -104.44411 L 139.25925 -96.44411 L 133.85925 -93.64411 L 123.25925 -90.44411 L 111.85925 -88.04411 L 100.65925 -87.24411 L 88.25925 -86.24411 L 77.85925 -86.24411 L 68.45925 -86.24411 L 56.85925 -86.84411 L 45.65925 -87.64411 L 35.059248 -89.84411 L 26.459248 -91.84411 L 20.259248 -94.64411 L 18.259248 -96.24411 L 15.059248 -103.84411 Z" fill="url(#Obj_Gradient_6)"/>
        <path d="M 13.8 -110 L 14.6 -111 L 16.4 -112 L 19.459248 -110.84411 L 26.259248 -107.44411 L 31.259248 -105.64411 L 39.65925 -103.84411 L 48.05925 -102.84411 L 56.05925 -101.84411 L 63.65925 -101.64411 L 72.25925 -101.24411 L 83.85925 -101.44411 L 92.25925 -101.84411 L 101.65925 -102.44411 L 110.05925 -103.24411 L 119.25925 -104.64411 L 127.45925 -106.84411 L 133.25925 -108.64411 L 138.85925 -111.24411 L 141.65925 -110.04411 L 142.05925 -104.44411 L 139.25925 -96.44411 L 133.85925 -93.64411 L 123.25925 -90.44411 L 111.85925 -88.04411 L 100.65925 -87.24411 L 88.25925 -86.24411 L 77.85925 -86.24411 L 68.45925 -86.24411 L 56.85925 -86.84411 L 45.65925 -87.64411 L 35.059248 -89.84411 L 26.459248 -91.84411 L 20.259248 -94.64411 L 18.259248 -96.24411 L 15.059248 -103.84411 Z" stroke="#7f8080" stroke-linecap="round" stroke-linejoin="round" stroke-width="1"/>
      </g>
    </g>
  </g>
</svg>
