<?xml version="1.0" encoding="UTF-8" standalone="no"?>
<!DOCTYPE svg PUBLIC "-//W3C//DTD SVG 1.1//EN" "http://www.w3.org/Graphics/SVG/1.1/DTD/svg11.dtd">
<svg xmlns:xl="http://www.w3.org/1999/xlink" xmlns:dc="http://purl.org/dc/elements/1.1/" xmlns="http://www.w3.org/2000/svg" version="1.1" viewBox="-128 -125 433 449" width="433" height="449">
  <defs>
    <radialGradient cx="0" cy="0" r="1" id="Gradient" gradientUnits="userSpaceOnUse">
      <stop offset="0" stop-color="white"/>
      <stop offset=".4338305" stop-color="#9b9a95"/>
      <stop offset="1" stop-color="#171605"/>
    </radialGradient>
    <radialGradient id="Obj_Gradient" xl:href="#Gradient" gradientTransform="translate(87.75925 -96.6) scale(70.26272)"/>
    <linearGradient x1="0" x2="1" id="Gradient_2" gradientUnits="userSpaceOnUse">
      <stop offset="0" stop-color="blue"/>
      <stop offset="1" stop-color="#ffd400"/>
    </linearGradient>
    <linearGradient id="Obj_Gradient_2" xl:href="#Gradient_2" gradientTransform="translate(89.05241 -125.88209) rotate(92) scale(72.51899)"/>
    <linearGradient x1="0" x2="1" id="Gradient_3" gradientUnits="userSpaceOnUse">
      <stop offset="0" stop-color="blue"/>
      <stop offset="1" stop-color="#ffd400"/>
    </linearGradient>
    <linearGradient id="Obj_Gradient_3" xl:href="#Gradient_3" gradientTransform="translate(87.05925 -123.24411) rotate(90) scale(25)"/>
  </defs>
  <metadata> Produced by OmniGraffle 7.19.2\n2023-12-06 01:13:20 +0000</metadata>
  <g id="Canvas_200" stroke-opacity="1" fill-opacity="1" stroke-dasharray="none" fill="none" stroke="none">
    <title>Canvas 200</title>
    <g id="Canvas_200_Layer_1">
      <title>Layer 1</title>
      <g id="Graphic_12">
        <path d="M 26.005654 -123.40955 L 34.171106 -120.29184 C 35.029097 -119.96424 35.90594 -119.68833 36.796923 -119.46558 L 50.5141 -116.03629 C 51.67576 -115.74587 52.85832 -115.54662 54.051005 -115.44034 L 71.57715 -113.8786 C 72.165 -113.82622 72.75464 -113.79648 73.34478 -113.78946 L 88.8237 -113.60519 C 89.11404 -113.60173 89.40442 -113.60377 89.69469 -113.61131 L 104.118 -113.98594 C 104.47878 -113.99531 104.8393 -114.01317 105.19924 -114.03951 L 119.57053 -115.09107 C 120.56197 -115.16361 121.54766 -115.30036 122.5214 -115.50044 L 134.09436 -117.87845 C 135.13637 -118.09256 136.16226 -118.3787 137.16465 -118.73481 L 148.91664 -122.90986 C 150.00702 -123.29723 151.21021 -122.76646 151.65925 -121.7 L 151.65925 -121.7 C 152.1814 -120.4599 152.33338 -119.09515 152.09685 -117.77055 L 151.91637 -116.75986 C 151.61259 -115.0587 151.11806 -113.3972 150.44214 -111.80681 L 148.89892 -108.17569 C 148.34035 -106.86142 147.6606 -105.60202 146.86846 -104.41382 L 143.18268 -98.88515 C 142.43517 -97.76389 141.59057 -96.71049 140.65861 -95.73711 L 134.36354 -89.16226 C 133.49547 -88.25561 132.55463 -87.42154 131.55046 -86.66841 L 123.17555 -80.38723 C 122.29914 -79.72992 121.37688 -79.13606 120.41582 -78.6102 L 113.23062 -74.67867 C 111.91949 -73.961265 110.54156 -73.37336 109.11638 -72.9233 L 102.44347 -70.81607 C 100.72659 -70.2739 98.952 -69.935195 97.15613 -69.80692 L 90.26968 -69.31503 C 89.19738 -69.23844 88.12103 -69.23712 87.04854 -69.31108 L 78.61229 -69.89289 C 77.57811 -69.964216 76.54994 -70.10537 75.53481 -70.3154 L 68.3996 -71.79165 C 66.44765 -72.1955 64.55647 -72.85139 62.77362 -73.742815 L 58.11421 -76.07252 C 56.88007 -76.68959 55.703967 -77.41646 54.60012 -78.24434 L 48.91816 -82.50581 C 48.479027 -82.83517 48.05182 -83.18013 47.63737 -83.54005 L 41.88219 -88.53797 C 41.067903 -89.24511 40.304363 -90.00865 39.59722 -90.82294 L 35.191995 -95.89562 C 34.437892 -96.76398 33.749984 -97.68768 33.13406 -98.65895 L 29.400357 -104.54671 C 29.03979 -105.1153 28.704365 -105.69944 28.39505 -106.29745 L 26.774675 -109.43017 C 26.16553 -110.60785 25.659362 -111.836 25.261825 -113.10089 L 23.981586 -117.17438 C 23.76681 -117.85775 23.584079 -118.55079 23.433986 -119.25122 L 23.359248 -119.6 C 23.164585 -120.50843 23.271846 -121.45557 23.664727 -122.29746 L 23.759248 -122.5 C 24.153724 -123.3453 25.134195 -123.7423 26.005654 -123.40955 Z" fill="url(#Obj_Gradient)"/>
        <path d="M 26.005654 -123.40955 L 34.171106 -120.29184 C 35.029097 -119.96424 35.90594 -119.68833 36.796923 -119.46558 L 50.5141 -116.03629 C 51.67576 -115.74587 52.85832 -115.54662 54.051005 -115.44034 L 71.57715 -113.8786 C 72.165 -113.82622 72.75464 -113.79648 73.34478 -113.78946 L 88.8237 -113.60519 C 89.11404 -113.60173 89.40442 -113.60377 89.69469 -113.61131 L 104.118 -113.98594 C 104.47878 -113.99531 104.8393 -114.01317 105.19924 -114.03951 L 119.57053 -115.09107 C 120.56197 -115.16361 121.54766 -115.30036 122.5214 -115.50044 L 134.09436 -117.87845 C 135.13637 -118.09256 136.16226 -118.3787 137.16465 -118.73481 L 148.91664 -122.90986 C 150.00702 -123.29723 151.21021 -122.76646 151.65925 -121.7 L 151.65925 -121.7 C 152.1814 -120.4599 152.33338 -119.09515 152.09685 -117.77055 L 151.91637 -116.75986 C 151.61259 -115.0587 151.11806 -113.3972 150.44214 -111.80681 L 148.89892 -108.17569 C 148.34035 -106.86142 147.6606 -105.60202 146.86846 -104.41382 L 143.18268 -98.88515 C 142.43517 -97.76389 141.59057 -96.71049 140.65861 -95.73711 L 134.36354 -89.16226 C 133.49547 -88.25561 132.55463 -87.42154 131.55046 -86.66841 L 123.17555 -80.38723 C 122.29914 -79.72992 121.37688 -79.13606 120.41582 -78.6102 L 113.23062 -74.67867 C 111.91949 -73.961265 110.54156 -73.37336 109.11638 -72.9233 L 102.44347 -70.81607 C 100.72659 -70.2739 98.952 -69.935195 97.15613 -69.80692 L 90.26968 -69.31503 C 89.19738 -69.23844 88.12103 -69.23712 87.04854 -69.31108 L 78.61229 -69.89289 C 77.57811 -69.964216 76.54994 -70.10537 75.53481 -70.3154 L 68.3996 -71.79165 C 66.44765 -72.1955 64.55647 -72.85139 62.77362 -73.742815 L 58.11421 -76.07252 C 56.88007 -76.68959 55.703967 -77.41646 54.60012 -78.24434 L 48.91816 -82.50581 C 48.479027 -82.83517 48.05182 -83.18013 47.63737 -83.54005 L 41.88219 -88.53797 C 41.067903 -89.24511 40.304363 -90.00865 39.59722 -90.82294 L 35.191995 -95.89562 C 34.437892 -96.76398 33.749984 -97.68768 33.13406 -98.65895 L 29.400357 -104.54671 C 29.03979 -105.1153 28.704365 -105.69944 28.39505 -106.29745 L 26.774675 -109.43017 C 26.16553 -110.60785 25.659362 -111.836 25.261825 -113.10089 L 23.981586 -117.17438 C 23.76681 -117.85775 23.584079 -118.55079 23.433986 -119.25122 L 23.359248 -119.6 C 23.164585 -120.50843 23.271846 -121.45557 23.664727 -122.29746 L 23.759248 -122.5 C 24.153724 -123.3453 25.134195 -123.7423 26.005654 -123.40955 Z" stroke="#7f8080" stroke-linecap="round" stroke-linejoin="round" stroke-width="1"/>
      </g>
      <g id="Graphic_11">
        <path d="M -38.026545 313.2638 L -24.284304 315.55416 C -24.100928 315.58472 -23.917032 315.6121 -23.732702 315.63624 L 4.62094 319.35154 C 4.867468 319.38385 5.1147154 319.4104 5.362481 319.4312 L 35.60537 321.9677 C 35.862274 321.98923 36.11966 322.00456 36.377307 322.01367 L 75.30822 323.39 C 75.49658 323.39668 75.685045 323.4 75.87352 323.4 L 107.34084 323.4 C 107.50746 323.4 107.67407 323.3974 107.8406 323.3922 L 132.87539 322.60986 C 133.08563 322.6033 133.29573 322.59258 133.50555 322.57772 L 155.5533 321.01682 C 155.71161 321.0056 155.86975 320.99205 156.02766 320.97614 L 181.28815 318.4305 C 181.48989 318.41017 181.69122 318.386 181.89204 318.35803 L 205.68474 315.04265 C 205.88875 315.01422 206.0922 314.98186 206.29496 314.94558 L 215.49079 313.3 C 220.8179 312.34674 224.46876 307.3931 223.80234 302.02255 L 221.59475 284.23198 C 221.5921 284.21066 221.5895 284.18934 221.58695 284.168 L 218.02312 254.4695 C 218.00157 254.28985 217.98306 254.10985 217.9676 253.92958 L 215.6054 226.37037 C 215.59565 226.2568 215.58713 226.14312 215.57983 226.02936 L 214.1932 204.43772 C 214.1916 204.41258 214.18992 204.38744 214.18818 204.3623 L 212.59603 181.27599 C 212.59253 181.22533 212.58928 181.17466 212.58627 181.12398 L 211.4099 161.3218 C 211.39716 161.1073 211.38874 160.89255 211.38465 160.6777 L 210.99236 140.08285 C 210.9913 140.02762 210.98997 139.9724 210.98835 139.91718 L 210.39322 119.68283 C 210.3916 119.62761 210.39026 119.57239 210.3892 119.51715 L 209.99855 99.00761 C 209.99337 98.73592 209.99512 98.46413 210.0038 98.19253 L 210.58973 79.83292 C 210.59044 79.81097 210.59118 79.78903 210.59197 79.76709 L 211.38005 57.897785 C 211.3872 57.69928 211.39806 57.50093 211.4126 57.302826 L 212.97007 36.08221 C 212.98388 35.894086 212.99436 35.705734 213.0015 35.51724 L 213.75596 15.618373 C 213.77915 15.006628 213.83744 14.396718 213.93052 13.791652 L 216.66953 -4.0118663 C 216.7503 -4.5369637 216.8572 -5.0577116 216.9898 -5.572175 L 221.61806 -23.529826 C 221.73316 -23.9764 221.8675 -24.417787 222.02073 -24.852753 L 227.74152 -41.092394 C 227.9076 -41.56387 228.0957 -42.027307 228.30517 -42.481174 L 233.83673 -54.46621 C 233.93942 -54.68871 234.0472 -54.908814 234.16 -55.12636 L 239.52223 -65.46778 C 239.56793 -65.555925 239.61446 -65.64364 239.6618 -65.73092 L 244.87777 -75.34788 C 245.61505 -76.70724 246.56468 -77.94013 247.6908 -79 L 247.6908 -79 C 248.36598 -79.63547 248.39817 -80.69797 247.7627 -81.37316 C 247.6382 -81.50544 247.49307 -81.61663 247.33295 -81.70241 L 244.1188 -83.42427 C 243.90016 -83.54141 243.6788 -83.65344 243.45494 -83.76029 L 235.60097 -87.50878 C 235.19436 -87.70284 234.77974 -87.87964 234.3582 -88.03871 L 224.68338 -91.68959 C 224.48833 -91.76319 224.29187 -91.83297 224.0941 -91.89889 L 211.39963 -96.13038 C 211.2604 -96.17679 211.12055 -96.22128 210.9801 -96.26384 L 198.09658 -100.16794 C 198.02605 -100.18931 197.95567 -100.21117 197.88544 -100.23352 L 185.38144 -104.21206 C 184.98782 -104.33731 184.5992 -104.47775 184.21643 -104.63307 L 172.24049 -109.49287 C 171.40883 -109.83036 170.60704 -110.23723 169.8436 -110.70917 L 160.22436 -116.65561 C 160.06865 -116.75186 159.91461 -116.85078 159.7623 -116.95232 L 154.8722 -120.21238 C 153.89081 -120.86665 153.0195 -121.67255 152.29078 -122.6 L 152.29078 -122.6 C 152.18518 -122.7344 151.99062 -122.75775 151.85621 -122.65215 C 151.75347 -122.57142 151.7125 -122.43487 151.75381 -122.31092 L 151.89078 -121.9 C 152.35003 -120.52225 152.4546 -119.05096 152.1948 -117.62211 L 151.79967 -115.44885 C 151.52845 -113.95719 151.0466 -112.51165 150.36858 -111.1556 L 148.83626 -108.09096 C 148.53956 -107.49756 148.20624 -106.92319 147.83823 -106.37117 L 144.63453 -101.56562 C 144.20593 -100.92272 143.73132 -100.31171 143.21443 -99.73739 L 138.65238 -94.66844 C 138.61132 -94.62281 138.56999 -94.57742 138.5284 -94.53227 L 132.53417 -88.02424 C 131.90643 -87.3427 131.22068 -86.71698 130.48465 -86.15413 L 125.46047 -82.31211 C 125.01432 -81.97094 124.55052 -81.6535 124.07099 -81.3611 L 117.58458 -77.40597 C 116.92292 -77.00252 116.23283 -76.64768 115.51975 -76.34424 L 108.40434 -73.3164 C 107.59667 -72.97272 106.76209 -72.696074 105.90905 -72.48928 L 101.83 -71.50041 C 101.00516 -71.300454 100.16573 -71.16644 99.31963 -71.099645 L 93.61943 -70.64963 C 93.20049 -70.616555 92.78042 -70.6 92.36019 -70.6 L 85.32787 -70.6 C 84.57077 -70.6 83.81462 -70.65374 83.06513 -70.76081 L 75.11868 -71.89601 C 74.63367 -71.9653 74.1521 -72.05683 73.67549 -72.17031 L 67.714264 -73.58965 C 66.56878 -73.86238 65.4569 -74.26073 64.39883 -74.77747 L 58.118824 -77.84444 C 57.633774 -78.08133 57.16102 -78.34261 56.702383 -78.62728 L 52.49052 -81.24154 C 51.89135 -81.61344 51.317424 -82.02454 50.772495 -82.47216 L 46.32639 -86.12432 C 46.10269 -86.30807 45.884024 -86.49786 45.670626 -86.69348 L 41.868283 -90.17896 C 41.41699 -90.59264 40.98981 -91.03189 40.58885 -91.49454 L 36.470106 -96.24693 C 36.150724 -96.61545 35.848357 -96.99838 35.56395 -97.39451 L 31.134297 -103.56439 C 30.639405 -104.2537 30.200134 -104.9813 29.820642 -105.74028 L 27.244178 -110.89321 C 27.20858 -110.9644 27.173517 -111.03586 27.138986 -111.10758 L 25.890782 -113.7 C 25.040068 -115.46687 24.684547 -117.4314 24.862088 -119.38436 L 25.042293 -121.36661 C 25.066098 -121.62848 24.873116 -121.86006 24.611253 -121.88386 C 24.448858 -121.89862 24.290205 -121.82925 24.190782 -121.7 L 24.190782 -121.7 C 23.527336 -120.83752 22.747228 -120.07144 21.87285 -119.42375 L 17.976317 -116.53743 C 17.852634 -116.44582 17.727635 -116.35599 17.60136 -116.26798 L 12.979109 -113.04641 C 11.792373 -112.21929 10.498952 -111.55692 9.134202 -111.07742 L 4.527076 -109.4587 C 4.036505 -109.28633 3.554628 -109.09016 3.08316 -108.87087 L -3.7636214 -105.68632 C -4.459783 -105.36253 -5.178348 -105.08926 -5.913747 -104.86864 L -16.784136 -101.60752 C -16.800857 -101.60251 -16.81757 -101.59746 -16.834276 -101.59239 L -27.802363 -98.2628 C -27.94026 -98.22093 -28.077586 -98.17721 -28.2143 -98.13164 L -41.135536 -93.82456 C -41.184657 -93.80819 -41.23386 -93.79205 -41.283136 -93.77616 L -52.65054 -90.10925 C -53.28903 -89.90329 -53.91393 -89.65737 -54.52154 -89.37296 L -62.453505 -85.66012 C -62.823845 -85.48677 -63.1874 -85.29929 -63.54338 -85.09808 L -69.48949 -81.73724 C -70.74253 -81.029 -71.18417 -79.439075 -70.47594 -78.18604 C -70.39882 -78.0496 -70.30955 -77.9204 -70.20922 -77.8 L -69.34511 -76.76307 C -68.59016 -75.85713 -67.93769 -74.87051 -67.39957 -73.82118 L -64.32243 -67.82076 C -64.24696 -67.673596 -64.16921 -67.52761 -64.08922 -67.38285 L -60.134464 -60.22663 C -60.05097 -60.07555 -59.96993 -59.92313 -59.89137 -59.76943 L -55.78307 -51.731444 C -55.534 -51.244135 -55.310096 -50.74437 -55.11224 -50.234113 L -51.629474 -41.252235 C -51.61597 -41.21741 -51.602345 -41.182634 -51.5886 -41.147906 L -47.992276 -32.06246 C -47.87027 -31.754227 -47.75787 -31.442277 -47.65524 -31.12706 L -45.033404 -23.074284 C -45.01728 -23.02476 -45.0014 -22.97516 -44.98576 -22.92548 L -41.91371 -13.16721 C -41.71092 -12.523048 -41.549114 -11.866694 -41.429267 -11.202085 L -39.443955 -.19262767 C -39.4208 -.0642128 -39.399213 .06448055 -39.379205 .1934235 L -37.673335 11.186805 C -37.6306 11.462223 -37.595065 11.73871 -37.56677 12.015984 L -36.67935 20.712699 C -36.63262 21.170688 -36.605673 21.63048 -36.59859 22.090793 L -36.41435 34.066414 C -36.41093 34.288782 -36.402873 34.511054 -36.390185 34.733086 L -35.61981 48.21465 C -35.61275 48.338214 -35.604255 48.461693 -35.59433 48.58506 L -34.26076 65.15943 C -34.226412 65.58631 -34.20922 66.01439 -34.20922 66.44264 L -34.20922 78.89242 C -34.20922 79.09746 -34.205277 79.30247 -34.197397 79.50735 L -33.617046 94.59649 C -33.611828 94.73216 -33.608337 94.86789 -33.606574 95.00365 L -33.414415 109.7999 C -33.41095 110.0666 -33.414157 110.33333 -33.42403 110.59986 L -33.998256 126.10401 C -34.005564 126.30132 -34.00922 126.49875 -34.00922 126.6962 L -34.00922 140.29243 C -34.00922 140.49746 -34.01316 140.70247 -34.02104 140.90736 L -34.60623 156.12236 C -34.608223 156.17412 -34.610465 156.22588 -34.61296 156.27762 L -35.40828 172.78055 C -35.408906 172.79352 -35.409547 172.80649 -35.410203 172.81945 L -36.204693 188.51062 C -36.20771 188.5702 -36.21106 188.62978 -36.214744 188.68933 L -37.403655 207.91007 C -37.407364 207.97003 -37.41141 208.02996 -37.415794 208.08987 L -39.19893 232.45942 C -39.20579 232.55314 -39.213473 232.6468 -39.22198 232.74038 L -41.00787 252.3852 C -41.00877 252.39507 -41.009676 252.40494 -41.01059 252.4148 L -42.781357 271.49972 C -42.79993 271.6999 -42.822274 271.8997 -42.848377 272.09903 L -44.80909 287.07175 C -44.9419 288.08594 -45.21104 289.07756 -45.60922 290.01973 L -45.60922 290.01973 C -46.006794 290.96048 -46.25546 291.9574 -46.346286 292.97465 L -47.10922 301.51973 C -47.616975 307.20676 -43.65851 312.32512 -38.026545 313.2638 Z" fill="yellow"/>
        <path d="M -38.026545 313.2638 L -24.284304 315.55416 C -24.100928 315.58472 -23.917032 315.6121 -23.732702 315.63624 L 4.62094 319.35154 C 4.867468 319.38385 5.1147154 319.4104 5.362481 319.4312 L 35.60537 321.9677 C 35.862274 321.98923 36.11966 322.00456 36.377307 322.01367 L 75.30822 323.39 C 75.49658 323.39668 75.685045 323.4 75.87352 323.4 L 107.34084 323.4 C 107.50746 323.4 107.67407 323.3974 107.8406 323.3922 L 132.87539 322.60986 C 133.08563 322.6033 133.29573 322.59258 133.50555 322.57772 L 155.5533 321.01682 C 155.71161 321.0056 155.86975 320.99205 156.02766 320.97614 L 181.28815 318.4305 C 181.48989 318.41017 181.69122 318.386 181.89204 318.35803 L 205.68474 315.04265 C 205.88875 315.01422 206.0922 314.98186 206.29496 314.94558 L 215.49079 313.3 C 220.8179 312.34674 224.46876 307.3931 223.80234 302.02255 L 221.59475 284.23198 C 221.5921 284.21066 221.5895 284.18934 221.58695 284.168 L 218.02312 254.4695 C 218.00157 254.28985 217.98306 254.10985 217.9676 253.92958 L 215.6054 226.37037 C 215.59565 226.2568 215.58713 226.14312 215.57983 226.02936 L 214.1932 204.43772 C 214.1916 204.41258 214.18992 204.38744 214.18818 204.3623 L 212.59603 181.27599 C 212.59253 181.22533 212.58928 181.17466 212.58627 181.12398 L 211.4099 161.3218 C 211.39716 161.1073 211.38874 160.89255 211.38465 160.6777 L 210.99236 140.08285 C 210.9913 140.02762 210.98997 139.9724 210.98835 139.91718 L 210.39322 119.68283 C 210.3916 119.62761 210.39026 119.57239 210.3892 119.51715 L 209.99855 99.00761 C 209.99337 98.73592 209.99512 98.46413 210.0038 98.19253 L 210.58973 79.83292 C 210.59044 79.81097 210.59118 79.78903 210.59197 79.76709 L 211.38005 57.897785 C 211.3872 57.69928 211.39806 57.50093 211.4126 57.302826 L 212.97007 36.08221 C 212.98388 35.894086 212.99436 35.705734 213.0015 35.51724 L 213.75596 15.618373 C 213.77915 15.006628 213.83744 14.396718 213.93052 13.791652 L 216.66953 -4.0118663 C 216.7503 -4.5369637 216.8572 -5.0577116 216.9898 -5.572175 L 221.61806 -23.529826 C 221.73316 -23.9764 221.8675 -24.417787 222.02073 -24.852753 L 227.74152 -41.092394 C 227.9076 -41.56387 228.0957 -42.027307 228.30517 -42.481174 L 233.83673 -54.46621 C 233.93942 -54.68871 234.0472 -54.908814 234.16 -55.12636 L 239.52223 -65.46778 C 239.56793 -65.555925 239.61446 -65.64364 239.6618 -65.73092 L 244.87777 -75.34788 C 245.61505 -76.70724 246.56468 -77.94013 247.6908 -79 L 247.6908 -79 C 248.36598 -79.63547 248.39817 -80.69797 247.7627 -81.37316 C 247.6382 -81.50544 247.49307 -81.61663 247.33295 -81.70241 L 244.1188 -83.42427 C 243.90016 -83.54141 243.6788 -83.65344 243.45494 -83.76029 L 235.60097 -87.50878 C 235.19436 -87.70284 234.77974 -87.87964 234.3582 -88.03871 L 224.68338 -91.68959 C 224.48833 -91.76319 224.29187 -91.83297 224.0941 -91.89889 L 211.39963 -96.13038 C 211.2604 -96.17679 211.12055 -96.22128 210.9801 -96.26384 L 198.09658 -100.16794 C 198.02605 -100.18931 197.95567 -100.21117 197.88544 -100.23352 L 185.38144 -104.21206 C 184.98782 -104.33731 184.5992 -104.47775 184.21643 -104.63307 L 172.24049 -109.49287 C 171.40883 -109.83036 170.60704 -110.23723 169.8436 -110.70917 L 160.22436 -116.65561 C 160.06865 -116.75186 159.91461 -116.85078 159.7623 -116.95232 L 154.8722 -120.21238 C 153.89081 -120.86665 153.0195 -121.67255 152.29078 -122.6 L 152.29078 -122.6 C 152.18518 -122.7344 151.99062 -122.75775 151.85621 -122.65215 C 151.75347 -122.57142 151.7125 -122.43487 151.75381 -122.31092 L 151.89078 -121.9 C 152.35003 -120.52225 152.4546 -119.05096 152.1948 -117.62211 L 151.79967 -115.44885 C 151.52845 -113.95719 151.0466 -112.51165 150.36858 -111.1556 L 148.83626 -108.09096 C 148.53956 -107.49756 148.20624 -106.92319 147.83823 -106.37117 L 144.63453 -101.56562 C 144.20593 -100.92272 143.73132 -100.31171 143.21443 -99.73739 L 138.65238 -94.66844 C 138.61132 -94.62281 138.56999 -94.57742 138.5284 -94.53227 L 132.53417 -88.02424 C 131.90643 -87.3427 131.22068 -86.71698 130.48465 -86.15413 L 125.46047 -82.31211 C 125.01432 -81.97094 124.55052 -81.6535 124.07099 -81.3611 L 117.58458 -77.40597 C 116.92292 -77.00252 116.23283 -76.64768 115.51975 -76.34424 L 108.40434 -73.3164 C 107.59667 -72.97272 106.76209 -72.696074 105.90905 -72.48928 L 101.83 -71.50041 C 101.00516 -71.300454 100.16573 -71.16644 99.31963 -71.099645 L 93.61943 -70.64963 C 93.20049 -70.616555 92.78042 -70.6 92.36019 -70.6 L 85.32787 -70.6 C 84.57077 -70.6 83.81462 -70.65374 83.06513 -70.76081 L 75.11868 -71.89601 C 74.63367 -71.9653 74.1521 -72.05683 73.67549 -72.17031 L 67.714264 -73.58965 C 66.56878 -73.86238 65.4569 -74.26073 64.39883 -74.77747 L 58.118824 -77.84444 C 57.633774 -78.08133 57.16102 -78.34261 56.702383 -78.62728 L 52.49052 -81.24154 C 51.89135 -81.61344 51.317424 -82.02454 50.772495 -82.47216 L 46.32639 -86.12432 C 46.10269 -86.30807 45.884024 -86.49786 45.670626 -86.69348 L 41.868283 -90.17896 C 41.41699 -90.59264 40.98981 -91.03189 40.58885 -91.49454 L 36.470106 -96.24693 C 36.150724 -96.61545 35.848357 -96.99838 35.56395 -97.39451 L 31.134297 -103.56439 C 30.639405 -104.2537 30.200134 -104.9813 29.820642 -105.74028 L 27.244178 -110.89321 C 27.20858 -110.9644 27.173517 -111.03586 27.138986 -111.10758 L 25.890782 -113.7 C 25.040068 -115.46687 24.684547 -117.4314 24.862088 -119.38436 L 25.042293 -121.36661 C 25.066098 -121.62848 24.873116 -121.86006 24.611253 -121.88386 C 24.448858 -121.89862 24.290205 -121.82925 24.190782 -121.7 L 24.190782 -121.7 C 23.527336 -120.83752 22.747228 -120.07144 21.87285 -119.42375 L 17.976317 -116.53743 C 17.852634 -116.44582 17.727635 -116.35599 17.60136 -116.26798 L 12.979109 -113.04641 C 11.792373 -112.21929 10.498952 -111.55692 9.134202 -111.07742 L 4.527076 -109.4587 C 4.036505 -109.28633 3.554628 -109.09016 3.08316 -108.87087 L -3.7636214 -105.68632 C -4.459783 -105.36253 -5.178348 -105.08926 -5.913747 -104.86864 L -16.784136 -101.60752 C -16.800857 -101.60251 -16.81757 -101.59746 -16.834276 -101.59239 L -27.802363 -98.2628 C -27.94026 -98.22093 -28.077586 -98.17721 -28.2143 -98.13164 L -41.135536 -93.82456 C -41.184657 -93.80819 -41.23386 -93.79205 -41.283136 -93.77616 L -52.65054 -90.10925 C -53.28903 -89.90329 -53.91393 -89.65737 -54.52154 -89.37296 L -62.453505 -85.66012 C -62.823845 -85.48677 -63.1874 -85.29929 -63.54338 -85.09808 L -69.48949 -81.73724 C -70.74253 -81.029 -71.18417 -79.439075 -70.47594 -78.18604 C -70.39882 -78.0496 -70.30955 -77.9204 -70.20922 -77.8 L -69.34511 -76.76307 C -68.59016 -75.85713 -67.93769 -74.87051 -67.39957 -73.82118 L -64.32243 -67.82076 C -64.24696 -67.673596 -64.16921 -67.52761 -64.08922 -67.38285 L -60.134464 -60.22663 C -60.05097 -60.07555 -59.96993 -59.92313 -59.89137 -59.76943 L -55.78307 -51.731444 C -55.534 -51.244135 -55.310096 -50.74437 -55.11224 -50.234113 L -51.629474 -41.252235 C -51.61597 -41.21741 -51.602345 -41.182634 -51.5886 -41.147906 L -47.992276 -32.06246 C -47.87027 -31.754227 -47.75787 -31.442277 -47.65524 -31.12706 L -45.033404 -23.074284 C -45.01728 -23.02476 -45.0014 -22.97516 -44.98576 -22.92548 L -41.91371 -13.16721 C -41.71092 -12.523048 -41.549114 -11.866694 -41.429267 -11.202085 L -39.443955 -.19262767 C -39.4208 -.0642128 -39.399213 .06448055 -39.379205 .1934235 L -37.673335 11.186805 C -37.6306 11.462223 -37.595065 11.73871 -37.56677 12.015984 L -36.67935 20.712699 C -36.63262 21.170688 -36.605673 21.63048 -36.59859 22.090793 L -36.41435 34.066414 C -36.41093 34.288782 -36.402873 34.511054 -36.390185 34.733086 L -35.61981 48.21465 C -35.61275 48.338214 -35.604255 48.461693 -35.59433 48.58506 L -34.26076 65.15943 C -34.226412 65.58631 -34.20922 66.01439 -34.20922 66.44264 L -34.20922 78.89242 C -34.20922 79.09746 -34.205277 79.30247 -34.197397 79.50735 L -33.617046 94.59649 C -33.611828 94.73216 -33.608337 94.86789 -33.606574 95.00365 L -33.414415 109.7999 C -33.41095 110.0666 -33.414157 110.33333 -33.42403 110.59986 L -33.998256 126.10401 C -34.005564 126.30132 -34.00922 126.49875 -34.00922 126.6962 L -34.00922 140.29243 C -34.00922 140.49746 -34.01316 140.70247 -34.02104 140.90736 L -34.60623 156.12236 C -34.608223 156.17412 -34.610465 156.22588 -34.61296 156.27762 L -35.40828 172.78055 C -35.408906 172.79352 -35.409547 172.80649 -35.410203 172.81945 L -36.204693 188.51062 C -36.20771 188.5702 -36.21106 188.62978 -36.214744 188.68933 L -37.403655 207.91007 C -37.407364 207.97003 -37.41141 208.02996 -37.415794 208.08987 L -39.19893 232.45942 C -39.20579 232.55314 -39.213473 232.6468 -39.22198 232.74038 L -41.00787 252.3852 C -41.00877 252.39507 -41.009676 252.40494 -41.01059 252.4148 L -42.781357 271.49972 C -42.79993 271.6999 -42.822274 271.8997 -42.848377 272.09903 L -44.80909 287.07175 C -44.9419 288.08594 -45.21104 289.07756 -45.60922 290.01973 L -45.60922 290.01973 C -46.006794 290.96048 -46.25546 291.9574 -46.346286 292.97465 L -47.10922 301.51973 C -47.616975 307.20676 -43.65851 312.32512 -38.026545 313.2638 Z" stroke="#7f8080" stroke-linecap="round" stroke-linejoin="round" stroke-width="1"/>
      </g>
      <g id="Graphic_10">
        <path d="M -127 27.446146 L -120.8 31.846146 L -112.6 35.846146 L -104 39.446146 L -95 43.246146 L -84 47.246146 L -74.6 50.046146 L -65.6 52.646146 L -56.6 55.246146 L -51.2 56.646146 L -45.6 57.646146 L -43.2 51.846146 L -40.6 46.446146 L -38.4 42.446146 L -35.8 39.046146 L -35.6 30.046146 L -36.2 19.046145 L -38 8.246145 L -39.6 -2.1538548 L -42.2 -13.153855 L -44.6 -22.753855 L -47.4 -30.753855 L -50.6 -40.153855 L -53.4 -47.553856 L -57 -55.153856 L -61 -62.753856 L -65 -70.15386 L -67.6 -73.75386 L -71.2 -79.55386 L -76.6 -75.15386 L -81.4 -70.35386 L -86 -64.153856 L -90.4 -57.953856 L -95.2 -49.353856 L -100 -39.953855 L -104.8 -30.753855 L -108.4 -22.153855 L -112.4 -13.153855 L -115.6 -4.953855 L -119.4 4.446145 L -122.2 12.446145 L -125.2 20.846145 Z" fill="yellow"/>
        <path d="M -127 27.446146 L -120.8 31.846146 L -112.6 35.846146 L -104 39.446146 L -95 43.246146 L -84 47.246146 L -74.6 50.046146 L -65.6 52.646146 L -56.6 55.246146 L -51.2 56.646146 L -45.6 57.646146 L -43.2 51.846146 L -40.6 46.446146 L -38.4 42.446146 L -35.8 39.046146 L -35.6 30.046146 L -36.2 19.046145 L -38 8.246145 L -39.6 -2.1538548 L -42.2 -13.153855 L -44.6 -22.753855 L -47.4 -30.753855 L -50.6 -40.153855 L -53.4 -47.553856 L -57 -55.153856 L -61 -62.753856 L -65 -70.15386 L -67.6 -73.75386 L -71.2 -79.55386 L -76.6 -75.15386 L -81.4 -70.35386 L -86 -64.153856 L -90.4 -57.953856 L -95.2 -49.353856 L -100 -39.953855 L -104.8 -30.753855 L -108.4 -22.153855 L -112.4 -13.153855 L -115.6 -4.953855 L -119.4 4.446145 L -122.2 12.446145 L -125.2 20.846145 Z" stroke="#7f8080" stroke-linecap="round" stroke-linejoin="round" stroke-width="1"/>
      </g>
      <g id="Graphic_9">
        <path d="M 304.4053 26.50275 L 298.2053 30.90275 L 290.0053 34.90275 L 281.4053 38.50275 L 272.4053 42.30275 L 261.4053 46.30275 L 252.0053 49.10275 L 243.0053 51.70275 L 234.0053 54.30275 L 228.6053 55.70275 L 223.0053 56.70275 L 220.6053 50.90275 L 218.0053 45.50275 L 215.8053 41.50275 L 213.2053 38.10275 L 213.0053 29.10275 L 213.6053 18.10275 L 215.4053 7.302749 L 217.0053 -3.097251 L 219.6053 -14.097251 L 222.0053 -23.69725 L 224.8053 -31.69725 L 228.0053 -41.09725 L 230.8053 -48.49725 L 234.4053 -56.09725 L 238.4053 -63.69725 L 242.4053 -71.09725 L 245.0053 -74.69725 L 248.6053 -80.49725 L 254.0053 -76.09725 L 258.8053 -71.29725 L 263.4053 -65.09725 L 267.8053 -58.89725 L 272.6053 -50.29725 L 277.4053 -40.89725 L 282.2053 -31.69725 L 285.8053 -23.09725 L 289.8053 -14.097251 L 293.0053 -5.897251 L 296.8053 3.502749 L 299.6053 11.502749 L 302.6053 19.90275 Z" fill="yellow"/>
        <path d="M 304.4053 26.50275 L 298.2053 30.90275 L 290.0053 34.90275 L 281.4053 38.50275 L 272.4053 42.30275 L 261.4053 46.30275 L 252.0053 49.10275 L 243.0053 51.70275 L 234.0053 54.30275 L 228.6053 55.70275 L 223.0053 56.70275 L 220.6053 50.90275 L 218.0053 45.50275 L 215.8053 41.50275 L 213.2053 38.10275 L 213.0053 29.10275 L 213.6053 18.10275 L 215.4053 7.302749 L 217.0053 -3.097251 L 219.6053 -14.097251 L 222.0053 -23.69725 L 224.8053 -31.69725 L 228.0053 -41.09725 L 230.8053 -48.49725 L 234.4053 -56.09725 L 238.4053 -63.69725 L 242.4053 -71.09725 L 245.0053 -74.69725 L 248.6053 -80.49725 L 254.0053 -76.09725 L 258.8053 -71.29725 L 263.4053 -65.09725 L 267.8053 -58.89725 L 272.6053 -50.29725 L 277.4053 -40.89725 L 282.2053 -31.69725 L 285.8053 -23.09725 L 289.8053 -14.097251 L 293.0053 -5.897251 L 296.8053 3.502749 L 299.6053 11.502749 L 302.6053 19.90275 Z" stroke="#7f8080" stroke-linecap="round" stroke-linejoin="round" stroke-width="1"/>
      </g>
      <g id="Graphic_8">
        <path d="M -127 27.446146 L -120.8 31.846146 L -112.6 35.846146 L -104 39.446146 L -95 43.246146 L -84 47.246146 L -74.6 50.046146 L -65.6 52.646146 L -56.6 55.246146 L -51.2 56.646146 L -45.6 57.646146 L -42.6 51.246146 L -46.4 50.446146 L -51.2 49.246146 L -56.8 48.046146 L -62.8 46.246146 L -67.4 44.846146 L -71.6 43.646146 L -76.2 41.646146 L -80.8 40.046146 L -85.6 38.046146 L -89.6 36.646146 L -94.8 34.446146 L -99.4 32.846146 L -104.2 30.646146 L -109 28.846146 L -113 26.846146 L -117.4 24.646146 L -121.8 22.446146 L -125.2 20.846145 Z" fill="blue"/>
        <path d="M -127 27.446146 L -120.8 31.846146 L -112.6 35.846146 L -104 39.446146 L -95 43.246146 L -84 47.246146 L -74.6 50.046146 L -65.6 52.646146 L -56.6 55.246146 L -51.2 56.646146 L -45.6 57.646146 L -42.6 51.246146 L -46.4 50.446146 L -51.2 49.246146 L -56.8 48.046146 L -62.8 46.246146 L -67.4 44.846146 L -71.6 43.646146 L -76.2 41.646146 L -80.8 40.046146 L -85.6 38.046146 L -89.6 36.646146 L -94.8 34.446146 L -99.4 32.846146 L -104.2 30.646146 L -109 28.846146 L -113 26.846146 L -117.4 24.646146 L -121.8 22.446146 L -125.2 20.846145 Z" stroke="#7f8080" stroke-linecap="round" stroke-linejoin="round" stroke-width="1"/>
      </g>
      <g id="Graphic_7">
        <path d="M 304.4053 26.50275 L 298.2053 30.90275 L 290.0053 34.90275 L 281.4053 38.50275 L 272.4053 42.30275 L 261.4053 46.30275 L 252.0053 49.10275 L 243.0053 51.70275 L 234.0053 54.30275 L 228.6053 55.70275 L 223.0053 56.70275 L 220.0053 50.30275 L 223.8053 49.50275 L 228.6053 48.30275 L 234.2053 47.10275 L 240.2053 45.30275 L 244.8053 43.90275 L 249.0053 42.70275 L 253.6053 40.70275 L 258.2053 39.10275 L 263.0053 37.10275 L 267.0053 35.70275 L 272.2053 33.50275 L 276.8053 31.90275 L 281.6053 29.70275 L 286.4053 27.90275 L 290.4053 25.90275 L 294.8053 23.70275 L 299.2053 21.50275 L 302.6053 19.90275 Z" fill="blue"/>
        <path d="M 304.4053 26.50275 L 298.2053 30.90275 L 290.0053 34.90275 L 281.4053 38.50275 L 272.4053 42.30275 L 261.4053 46.30275 L 252.0053 49.10275 L 243.0053 51.70275 L 234.0053 54.30275 L 228.6053 55.70275 L 223.0053 56.70275 L 220.0053 50.30275 L 223.8053 49.50275 L 228.6053 48.30275 L 234.2053 47.10275 L 240.2053 45.30275 L 244.8053 43.90275 L 249.0053 42.70275 L 253.6053 40.70275 L 258.2053 39.10275 L 263.0053 37.10275 L 267.0053 35.70275 L 272.2053 33.50275 L 276.8053 31.90275 L 281.6053 29.70275 L 286.4053 27.90275 L 290.4053 25.90275 L 294.8053 23.70275 L 299.2053 21.50275 L 302.6053 19.90275 Z" stroke="#7f8080" stroke-linecap="round" stroke-linejoin="round" stroke-width="1"/>
      </g>
      <g id="Graphic_6">
        <path d="M 23.57212 -122.03621 L 18.84295 -117.98264 C 17.692603 -116.99662 16.447643 -116.12669 15.126213 -115.38552 L 12.599578 -113.96835 C 11.164406 -113.16338 10.583603 -111.39425 11.262389 -109.89527 L 12.280006 -107.64803 C 12.401585 -107.37954 12.528313 -107.11342 12.660121 -106.8498 L 16.949377 -98.27129 C 17.291174 -97.5877 17.666832 -96.92157 18.074952 -96.27537 L 20.401344 -92.59192 C 20.84172 -91.89465 21.31928 -91.22158 21.831953 -90.57561 L 25.242638 -86.27815 C 25.788692 -85.59013 26.37371 -84.93394 26.994822 -84.31283 L 31.660865 -79.64679 C 32.061745 -79.24591 32.47731 -78.85999 32.90671 -78.48982 L 37.470235 -74.55574 C 37.86489 -74.21552 38.270997 -73.88881 38.687846 -73.57617 L 42.662786 -70.59497 C 43.3287 -70.09553 44.021233 -69.63262 44.73733 -69.20826 L 48.870394 -66.75904 C 48.99839 -66.68319 49.12712 -66.608586 49.25656 -66.535235 L 53.954107 -63.87329 C 54.6924 -63.45493 55.453276 -63.07774 56.23325 -62.74347 L 59.78307 -61.22212 C 60.36903 -60.97099 60.96518 -60.744334 61.56997 -60.54274 L 66.58808 -58.870034 C 67.835325 -58.454286 69.11592 -58.146244 70.415795 -57.949294 L 74.51464 -57.328256 C 74.87976 -57.272936 75.24615 -57.22642 75.6135 -57.18874 L 82.49461 -56.482985 C 82.73978 -56.45784 82.98534 -56.436636 83.2312 -56.41938 L 87.75835 -56.10169 C 88.29421 -56.064085 88.83122 -56.045266 89.3684 -56.045266 L 92.63046 -56.045264 C 93.58416 -56.045264 94.53693 -56.10458 95.48327 -56.22287 L 99.47198 -56.72146 C 100.13195 -56.80396 100.78802 -56.91504 101.43835 -57.0544 L 107.52039 -58.35769 C 108.41426 -58.549236 109.29592 -58.7939 110.16068 -59.09039 L 114.66952 -60.63628 C 115.46417 -60.90873 116.2433 -61.22451 117.0034 -61.58221 L 121.83677 -63.85674 C 122.38697 -64.11565 122.92668 -64.39629 123.45464 -64.697975 L 127.2225 -66.85104 C 127.9153 -67.24692 128.58701 -67.678585 129.23494 -68.14428 L 133.91106 -71.50525 C 134.41175 -71.86511 134.89776 -72.24497 135.36792 -72.64389 L 140.68877 -77.158555 C 141.07108 -77.48294 141.44269 -77.81974 141.80298 -78.16842 L 146.5022 -82.71604 C 147.14179 -83.335 147.74491 -83.99056 148.30852 -84.67942 L 152.1018 -89.31566 C 152.60852 -89.93497 153.08257 -90.58031 153.52201 -91.24904 L 157.1392 -96.75344 C 157.35462 -97.08127 157.56163 -97.41456 157.76002 -97.75298 L 160.28311 -102.05708 C 160.66906 -102.71546 161.022 -103.39265 161.34062 -104.08612 L 163.45932 -108.69739 C 163.99218 -109.85715 164.36334 -111.08456 164.5624 -112.34526 L 164.5624 -112.34526 C 164.7407 -113.47453 164.1614 -114.58797 163.13432 -115.0901 L 157.84088 -117.678 C 156.52642 -118.32063 155.29183 -119.11514 154.1624 -120.04526 L 153.75638 -120.37963 C 152.91205 -121.07496 152.28864 -122.00126 151.9624 -123.04526 L 151.9624 -123.04526 C 151.91573 -123.19458 151.75686 -123.2778 151.60754 -123.23114 C 151.49247 -123.19518 151.41277 -123.09031 151.40892 -122.96981 L 151.29968 -119.54689 C 151.20894 -116.70381 150.5916 -113.90224 149.479 -111.28433 L 148.60206 -109.22096 C 148.0435 -107.90669 147.36374 -106.64729 146.5716 -105.45909 L 142.88582 -99.93042 C 142.13831 -98.80915 141.2937 -97.75575 140.36175 -96.78238 L 134.06668 -90.20753 C 133.19861 -89.30087 132.25777 -88.4668 131.2536 -87.71367 L 122.8787 -81.43249 C 122.00228 -80.77518 121.08002 -80.18133 120.11896 -79.65546 L 112.93376 -75.72394 C 111.62263 -75.00653 110.2447 -74.41863 108.81952 -73.96857 L 102.1466 -71.86133 C 100.42973 -71.31916 98.65514 -70.98046 96.85927 -70.852185 L 89.97281 -70.360296 C 88.90052 -70.2837 87.82417 -70.28238 86.75168 -70.35635 L 78.31543 -70.93816 C 77.28125 -71.00948 76.25308 -71.15064 75.23795 -71.36067 L 68.10274 -72.83692 C 66.15079 -73.24077 64.25961 -73.89665 62.47676 -74.78808 L 57.81735 -77.117785 C 56.58321 -77.73485 55.407106 -78.46173 54.30326 -79.28961 L 48.6213 -83.55108 C 48.182167 -83.88043 47.75496 -84.2254 47.34051 -84.58532 L 41.58533 -89.58324 C 40.771043 -90.29038 40.007503 -91.05392 39.30036 -91.86821 L 34.895135 -96.94089 C 34.141032 -97.80925 33.453124 -98.73295 32.8372 -99.70422 L 29.103497 -105.59198 C 28.74293 -106.16056 28.407505 -106.7447 28.09819 -107.34272 L 26.477815 -110.47544 C 25.86867 -111.65312 25.362502 -112.88126 24.964965 -114.14615 L 23.684726 -118.21964 C 23.46995 -118.90302 23.287218 -119.59605 23.137126 -120.29649 L 22.91171 -121.34843 C 22.826635 -121.74544 23.052993 -122.1431 23.437797 -122.27263 L 23.437797 -122.27263 C 23.510292 -122.29704 23.588844 -122.25805 23.61325 -122.18556 C 23.631263 -122.13205 23.61499 -122.07296 23.57212 -122.03621 Z" fill="url(#Obj_Gradient_2)"/>
        <path d="M 23.57212 -122.03621 L 18.84295 -117.98264 C 17.692603 -116.99662 16.447643 -116.12669 15.126213 -115.38552 L 12.599578 -113.96835 C 11.164406 -113.16338 10.583603 -111.39425 11.262389 -109.89527 L 12.280006 -107.64803 C 12.401585 -107.37954 12.528313 -107.11342 12.660121 -106.8498 L 16.949377 -98.27129 C 17.291174 -97.5877 17.666832 -96.92157 18.074952 -96.27537 L 20.401344 -92.59192 C 20.84172 -91.89465 21.31928 -91.22158 21.831953 -90.57561 L 25.242638 -86.27815 C 25.788692 -85.59013 26.37371 -84.93394 26.994822 -84.31283 L 31.660865 -79.64679 C 32.061745 -79.24591 32.47731 -78.85999 32.90671 -78.48982 L 37.470235 -74.55574 C 37.86489 -74.21552 38.270997 -73.88881 38.687846 -73.57617 L 42.662786 -70.59497 C 43.3287 -70.09553 44.021233 -69.63262 44.73733 -69.20826 L 48.870394 -66.75904 C 48.99839 -66.68319 49.12712 -66.608586 49.25656 -66.535235 L 53.954107 -63.87329 C 54.6924 -63.45493 55.453276 -63.07774 56.23325 -62.74347 L 59.78307 -61.22212 C 60.36903 -60.97099 60.96518 -60.744334 61.56997 -60.54274 L 66.58808 -58.870034 C 67.835325 -58.454286 69.11592 -58.146244 70.415795 -57.949294 L 74.51464 -57.328256 C 74.87976 -57.272936 75.24615 -57.22642 75.6135 -57.18874 L 82.49461 -56.482985 C 82.73978 -56.45784 82.98534 -56.436636 83.2312 -56.41938 L 87.75835 -56.10169 C 88.29421 -56.064085 88.83122 -56.045266 89.3684 -56.045266 L 92.63046 -56.045264 C 93.58416 -56.045264 94.53693 -56.10458 95.48327 -56.22287 L 99.47198 -56.72146 C 100.13195 -56.80396 100.78802 -56.91504 101.43835 -57.0544 L 107.52039 -58.35769 C 108.41426 -58.549236 109.29592 -58.7939 110.16068 -59.09039 L 114.66952 -60.63628 C 115.46417 -60.90873 116.2433 -61.22451 117.0034 -61.58221 L 121.83677 -63.85674 C 122.38697 -64.11565 122.92668 -64.39629 123.45464 -64.697975 L 127.2225 -66.85104 C 127.9153 -67.24692 128.58701 -67.678585 129.23494 -68.14428 L 133.91106 -71.50525 C 134.41175 -71.86511 134.89776 -72.24497 135.36792 -72.64389 L 140.68877 -77.158555 C 141.07108 -77.48294 141.44269 -77.81974 141.80298 -78.16842 L 146.5022 -82.71604 C 147.14179 -83.335 147.74491 -83.99056 148.30852 -84.67942 L 152.1018 -89.31566 C 152.60852 -89.93497 153.08257 -90.58031 153.52201 -91.24904 L 157.1392 -96.75344 C 157.35462 -97.08127 157.56163 -97.41456 157.76002 -97.75298 L 160.28311 -102.05708 C 160.66906 -102.71546 161.022 -103.39265 161.34062 -104.08612 L 163.45932 -108.69739 C 163.99218 -109.85715 164.36334 -111.08456 164.5624 -112.34526 L 164.5624 -112.34526 C 164.7407 -113.47453 164.1614 -114.58797 163.13432 -115.0901 L 157.84088 -117.678 C 156.52642 -118.32063 155.29183 -119.11514 154.1624 -120.04526 L 153.75638 -120.37963 C 152.91205 -121.07496 152.28864 -122.00126 151.9624 -123.04526 L 151.9624 -123.04526 C 151.91573 -123.19458 151.75686 -123.2778 151.60754 -123.23114 C 151.49247 -123.19518 151.41277 -123.09031 151.40892 -122.96981 L 151.29968 -119.54689 C 151.20894 -116.70381 150.5916 -113.90224 149.479 -111.28433 L 148.60206 -109.22096 C 148.0435 -107.90669 147.36374 -106.64729 146.5716 -105.45909 L 142.88582 -99.93042 C 142.13831 -98.80915 141.2937 -97.75575 140.36175 -96.78238 L 134.06668 -90.20753 C 133.19861 -89.30087 132.25777 -88.4668 131.2536 -87.71367 L 122.8787 -81.43249 C 122.00228 -80.77518 121.08002 -80.18133 120.11896 -79.65546 L 112.93376 -75.72394 C 111.62263 -75.00653 110.2447 -74.41863 108.81952 -73.96857 L 102.1466 -71.86133 C 100.42973 -71.31916 98.65514 -70.98046 96.85927 -70.852185 L 89.97281 -70.360296 C 88.90052 -70.2837 87.82417 -70.28238 86.75168 -70.35635 L 78.31543 -70.93816 C 77.28125 -71.00948 76.25308 -71.15064 75.23795 -71.36067 L 68.10274 -72.83692 C 66.15079 -73.24077 64.25961 -73.89665 62.47676 -74.78808 L 57.81735 -77.117785 C 56.58321 -77.73485 55.407106 -78.46173 54.30326 -79.28961 L 48.6213 -83.55108 C 48.182167 -83.88043 47.75496 -84.2254 47.34051 -84.58532 L 41.58533 -89.58324 C 40.771043 -90.29038 40.007503 -91.05392 39.30036 -91.86821 L 34.895135 -96.94089 C 34.141032 -97.80925 33.453124 -98.73295 32.8372 -99.70422 L 29.103497 -105.59198 C 28.74293 -106.16056 28.407505 -106.7447 28.09819 -107.34272 L 26.477815 -110.47544 C 25.86867 -111.65312 25.362502 -112.88126 24.964965 -114.14615 L 23.684726 -118.21964 C 23.46995 -118.90302 23.287218 -119.59605 23.137126 -120.29649 L 22.91171 -121.34843 C 22.826635 -121.74544 23.052993 -122.1431 23.437797 -122.27263 L 23.437797 -122.27263 C 23.510292 -122.29704 23.588844 -122.25805 23.61325 -122.18556 C 23.631263 -122.13205 23.61499 -122.07296 23.57212 -122.03621 Z" stroke="#7f8080" stroke-linecap="round" stroke-linejoin="round" stroke-width="1"/>
      </g>
      <g id="Graphic_5">
        <path d="M 23.059248 -122.24411 L 28.459248 -122.84411 L 35.259248 -119.44411 L 40.25925 -117.64411 L 48.65925 -115.84411 L 57.05925 -114.84411 L 65.05925 -113.84411 L 72.65925 -113.64411 L 81.25925 -113.24411 L 92.85925 -113.44411 L 101.25925 -113.84411 L 110.65925 -114.44411 L 119.05925 -115.24411 L 128.25925 -116.64411 L 136.45925 -118.84411 L 142.25925 -120.64411 L 147.85925 -123.24411 L 150.65925 -122.04411 L 151.05925 -116.44411 L 148.25925 -108.44411 L 142.85925 -105.64411 L 132.25925 -102.44411 L 120.85925 -100.04411 L 109.65925 -99.24411 L 97.25925 -98.24411 L 86.85925 -98.24411 L 77.45925 -98.24411 L 65.85925 -98.84411 L 54.65925 -99.64411 L 44.05925 -101.84411 L 35.459248 -103.84411 L 29.259248 -106.64411 L 27.259248 -108.24411 L 24.059248 -115.84411 Z" fill="url(#Obj_Gradient_3)"/>
        <path d="M 23.059248 -122.24411 L 28.459248 -122.84411 L 35.259248 -119.44411 L 40.25925 -117.64411 L 48.65925 -115.84411 L 57.05925 -114.84411 L 65.05925 -113.84411 L 72.65925 -113.64411 L 81.25925 -113.24411 L 92.85925 -113.44411 L 101.25925 -113.84411 L 110.65925 -114.44411 L 119.05925 -115.24411 L 128.25925 -116.64411 L 136.45925 -118.84411 L 142.25925 -120.64411 L 147.85925 -123.24411 L 150.65925 -122.04411 L 151.05925 -116.44411 L 148.25925 -108.44411 L 142.85925 -105.64411 L 132.25925 -102.44411 L 120.85925 -100.04411 L 109.65925 -99.24411 L 97.25925 -98.24411 L 86.85925 -98.24411 L 77.45925 -98.24411 L 65.85925 -98.84411 L 54.65925 -99.64411 L 44.05925 -101.84411 L 35.459248 -103.84411 L 29.259248 -106.64411 L 27.259248 -108.24411 L 24.059248 -115.84411 Z" stroke="#7f8080" stroke-linecap="round" stroke-linejoin="round" stroke-width="1"/>
      </g>
      <g id="Graphic_4">
        <path d="M -47.186787 303.2 L -47.186787 303.2 C -47.25247 303.7255 -47.189645 304.25905 -47.0037 304.7549 L -46.352694 306.49092 C -46.17594 306.96227 -45.948853 307.41318 -45.67538 307.83582 L -44.707566 309.33153 C -44.16661 310.16756 -43.453506 310.87855 -42.61588 311.41702 L -41.53783 312.11005 C -41.237574 312.30307 -40.922994 312.47285 -40.596843 312.6179 L -39.27999 313.2035 C -38.68346 313.46876 -38.052754 313.64928 -37.406207 313.7398 L -28.395787 315.00126 C -28.385793 315.00265 -28.375797 315.00403 -28.365797 315.0054 L -16.649799 316.594 C -16.603798 316.60024 -16.557737 316.606 -16.511622 316.61134 L -6.2286855 317.79783 C -6.1967596 317.8015 -6.164809 317.80498 -6.132835 317.80822 L 7.577231 319.1991 C 7.605213 319.20193 7.633212 319.2046 7.661226 319.2071 L 18.766526 320.19865 C 18.801644 320.2018 18.836786 320.20466 18.871948 320.20726 L 29.558485 320.99886 C 29.598964 321.00185 29.639468 321.0045 29.679993 321.0068 L 40.187976 321.6016 C 40.208795 321.60276 40.22961 321.60404 40.250416 321.6054 L 52.293193 322.3951 C 52.377194 322.4006 52.46129 322.4046 52.54543 322.40707 L 65.99256 322.80257 C 66.01032 322.8031 66.028085 322.8037 66.045846 322.80434 L 76.68971 323.19856 C 76.77603 323.20176 76.86241 323.20335 76.94879 323.20335 L 87.55781 323.20335 C 87.59874 323.20335 87.63967 323.2037 87.68059 323.20443 L 98.76702 323.39893 C 98.93509 323.40188 99.10321 323.39877 99.27106 323.3896 L 109.89229 322.81028 C 109.97689 322.80566 110.06157 322.8026 110.14629 322.80104 L 120.91085 322.60532 C 120.98308 322.604 121.05529 322.60158 121.12745 322.59803 L 133.14607 322.00695 C 133.19483 322.00455 133.24355 322.00165 133.29225 321.99823 L 144.5323 321.20945 C 144.59023 321.2054 144.64812 321.2006 144.70594 321.1951 L 157.11651 320.01313 C 157.18497 320.0066 157.25352 320.0011 157.32214 319.9966 L 169.25416 319.21418 C 169.36418 319.20696 169.474 319.19715 169.58355 319.18475 L 179.9959 318.006 C 180.01144 318.00423 180.02697 318.00242 180.0425 318.00056 L 189.9902 316.80683 C 190.00954 316.8045 190.02886 316.8021 190.04818 316.79963 L 203.88394 315.0221 C 203.98115 315.0096 204.0781 314.99507 204.1747 314.9785 L 210.72819 313.85506 C 210.92915 313.8206 211.13153 313.79495 211.33473 313.77817 L 214.56706 313.5112 C 215.4563 313.43775 216.3233 313.19497 217.12135 312.79594 L 218.60765 312.0528 C 219.20824 311.7525 219.7625 311.36735 220.25338 310.9092 L 221.5885 309.66308 C 222.19532 309.0967 222.65073 308.38747 222.91322 307.6 L 223.20805 306.71552 C 223.27812 306.5053 223.33817 306.29187 223.388 306.07595 L 223.8577 304.04056 C 223.89293 303.88792 223.8595 303.72752 223.7662 303.60168 L 223.7662 303.60168 C 223.67587 303.4798 223.52523 303.4183 223.3754 303.44214 L 214.89555 304.7912 C 214.84466 304.7993 214.79385 304.80796 214.74315 304.81718 L 201.7584 307.17805 C 201.6656 307.1949 201.5725 307.2099 201.47911 307.223 L 190.24943 308.7991 C 190.22928 308.80194 190.20914 308.80486 190.18902 308.80786 L 177.0199 310.7734 C 176.88613 310.79337 176.75182 310.80945 176.61712 310.82163 L 166.10874 311.7721 C 165.90302 311.7907 165.69657 311.8002 165.49001 311.80053 L 164.05605 311.80295 C 163.8982 311.80322 163.7404 311.80883 163.58293 311.81976 L 149.45308 312.801 C 149.4305 312.80257 149.4079 312.80403 149.3853 312.80538 L 136.08205 313.5996 C 136.04016 313.6021 135.99824 313.60423 135.9563 313.60597 L 121.76485 314.1973 C 121.66776 314.20133 121.5706 314.20335 121.47344 314.20335 L 95.67753 314.20335 C 95.63865 314.20335 95.59976 314.20368 95.56088 314.20433 L 83.8025 314.4003 C 83.68032 314.40234 83.55812 314.40117 83.43601 314.3968 L 72.602405 314.0099 C 72.48029 314.00554 72.35809 314.00437 72.23591 314.0064 L 60.52127 314.20165 C 60.45323 314.2028 60.385176 314.20293 60.31713 314.20208 L 44.614845 314.0058 C 44.484443 314.00417 44.354113 313.9989 44.224007 313.99 L 29.91423 313.00986 C 29.850882 313.00552 29.787597 313.00032 29.724392 312.99426 L 15.233386 311.6047 C 15.223931 311.6038 15.214479 311.60288 15.205028 311.60194 L 1.3929923 310.22073 C 1.2771514 310.20915 1.1616176 310.19468 1.0464987 310.17733 L -13.262653 308.02116 C -13.34141 308.0093 -13.420363 307.99877 -13.499479 307.9896 L -27.01941 306.42207 C -27.126987 306.4096 -27.23426 306.39463 -27.34114 306.37718 L -36.73323 304.84377 C -36.89822 304.81684 -37.062195 304.784 -37.224836 304.7453 L -46.302435 302.58654 C -46.690754 302.4942 -47.08041 302.73412 -47.17276 303.12244 C -47.17884 303.14802 -47.183525 303.1739 -47.186787 303.2 Z" fill="yellow"/>
        <path d="M -47.186787 303.2 L -47.186787 303.2 C -47.25247 303.7255 -47.189645 304.25905 -47.0037 304.7549 L -46.352694 306.49092 C -46.17594 306.96227 -45.948853 307.41318 -45.67538 307.83582 L -44.707566 309.33153 C -44.16661 310.16756 -43.453506 310.87855 -42.61588 311.41702 L -41.53783 312.11005 C -41.237574 312.30307 -40.922994 312.47285 -40.596843 312.6179 L -39.27999 313.2035 C -38.68346 313.46876 -38.052754 313.64928 -37.406207 313.7398 L -28.395787 315.00126 C -28.385793 315.00265 -28.375797 315.00403 -28.365797 315.0054 L -16.649799 316.594 C -16.603798 316.60024 -16.557737 316.606 -16.511622 316.61134 L -6.2286855 317.79783 C -6.1967596 317.8015 -6.164809 317.80498 -6.132835 317.80822 L 7.577231 319.1991 C 7.605213 319.20193 7.633212 319.2046 7.661226 319.2071 L 18.766526 320.19865 C 18.801644 320.2018 18.836786 320.20466 18.871948 320.20726 L 29.558485 320.99886 C 29.598964 321.00185 29.639468 321.0045 29.679993 321.0068 L 40.187976 321.6016 C 40.208795 321.60276 40.22961 321.60404 40.250416 321.6054 L 52.293193 322.3951 C 52.377194 322.4006 52.46129 322.4046 52.54543 322.40707 L 65.99256 322.80257 C 66.01032 322.8031 66.028085 322.8037 66.045846 322.80434 L 76.68971 323.19856 C 76.77603 323.20176 76.86241 323.20335 76.94879 323.20335 L 87.55781 323.20335 C 87.59874 323.20335 87.63967 323.2037 87.68059 323.20443 L 98.76702 323.39893 C 98.93509 323.40188 99.10321 323.39877 99.27106 323.3896 L 109.89229 322.81028 C 109.97689 322.80566 110.06157 322.8026 110.14629 322.80104 L 120.91085 322.60532 C 120.98308 322.604 121.05529 322.60158 121.12745 322.59803 L 133.14607 322.00695 C 133.19483 322.00455 133.24355 322.00165 133.29225 321.99823 L 144.5323 321.20945 C 144.59023 321.2054 144.64812 321.2006 144.70594 321.1951 L 157.11651 320.01313 C 157.18497 320.0066 157.25352 320.0011 157.32214 319.9966 L 169.25416 319.21418 C 169.36418 319.20696 169.474 319.19715 169.58355 319.18475 L 179.9959 318.006 C 180.01144 318.00423 180.02697 318.00242 180.0425 318.00056 L 189.9902 316.80683 C 190.00954 316.8045 190.02886 316.8021 190.04818 316.79963 L 203.88394 315.0221 C 203.98115 315.0096 204.0781 314.99507 204.1747 314.9785 L 210.72819 313.85506 C 210.92915 313.8206 211.13153 313.79495 211.33473 313.77817 L 214.56706 313.5112 C 215.4563 313.43775 216.3233 313.19497 217.12135 312.79594 L 218.60765 312.0528 C 219.20824 311.7525 219.7625 311.36735 220.25338 310.9092 L 221.5885 309.66308 C 222.19532 309.0967 222.65073 308.38747 222.91322 307.6 L 223.20805 306.71552 C 223.27812 306.5053 223.33817 306.29187 223.388 306.07595 L 223.8577 304.04056 C 223.89293 303.88792 223.8595 303.72752 223.7662 303.60168 L 223.7662 303.60168 C 223.67587 303.4798 223.52523 303.4183 223.3754 303.44214 L 214.89555 304.7912 C 214.84466 304.7993 214.79385 304.80796 214.74315 304.81718 L 201.7584 307.17805 C 201.6656 307.1949 201.5725 307.2099 201.47911 307.223 L 190.24943 308.7991 C 190.22928 308.80194 190.20914 308.80486 190.18902 308.80786 L 177.0199 310.7734 C 176.88613 310.79337 176.75182 310.80945 176.61712 310.82163 L 166.10874 311.7721 C 165.90302 311.7907 165.69657 311.8002 165.49001 311.80053 L 164.05605 311.80295 C 163.8982 311.80322 163.7404 311.80883 163.58293 311.81976 L 149.45308 312.801 C 149.4305 312.80257 149.4079 312.80403 149.3853 312.80538 L 136.08205 313.5996 C 136.04016 313.6021 135.99824 313.60423 135.9563 313.60597 L 121.76485 314.1973 C 121.66776 314.20133 121.5706 314.20335 121.47344 314.20335 L 95.67753 314.20335 C 95.63865 314.20335 95.59976 314.20368 95.56088 314.20433 L 83.8025 314.4003 C 83.68032 314.40234 83.55812 314.40117 83.43601 314.3968 L 72.602405 314.0099 C 72.48029 314.00554 72.35809 314.00437 72.23591 314.0064 L 60.52127 314.20165 C 60.45323 314.2028 60.385176 314.20293 60.31713 314.20208 L 44.614845 314.0058 C 44.484443 314.00417 44.354113 313.9989 44.224007 313.99 L 29.91423 313.00986 C 29.850882 313.00552 29.787597 313.00032 29.724392 312.99426 L 15.233386 311.6047 C 15.223931 311.6038 15.214479 311.60288 15.205028 311.60194 L 1.3929923 310.22073 C 1.2771514 310.20915 1.1616176 310.19468 1.0464987 310.17733 L -13.262653 308.02116 C -13.34141 308.0093 -13.420363 307.99877 -13.499479 307.9896 L -27.01941 306.42207 C -27.126987 306.4096 -27.23426 306.39463 -27.34114 306.37718 L -36.73323 304.84377 C -36.89822 304.81684 -37.062195 304.784 -37.224836 304.7453 L -46.302435 302.58654 C -46.690754 302.4942 -47.08041 302.73412 -47.17276 303.12244 C -47.17884 303.14802 -47.183525 303.1739 -47.186787 303.2 Z" stroke="#7f8080" stroke-linecap="round" stroke-linejoin="round" stroke-width="1"/>
      </g>
      <g id="Graphic_3">
        <path d="M -35.6 33 L -35.6 40.5 L -35.1 51.5 L -34.6 66 L -34.1 80 L -33.6 95.5 L -33.2 110.2 L 210.4 110.6 L 209.9 101 L 209.9 90 L 210.9 76.5 L 210.9 62.5 L 212 50.6 L 213 39.4 L 213.4 33 L 213 33.2 Z" fill="blue"/>
        <path d="M -35.6 33 L -35.6 40.5 L -35.1 51.5 L -34.6 66 L -34.1 80 L -33.6 95.5 L -33.2 110.2 L 210.4 110.6 L 209.9 101 L 209.9 90 L 210.9 76.5 L 210.9 62.5 L 212 50.6 L 213 39.4 L 213.4 33 L 213 33.2 Z" stroke="#7f8080" stroke-linecap="round" stroke-linejoin="round" stroke-width="1"/>
      </g>
    </g>
  </g>
</svg>
