<?xml version="1.0" encoding="UTF-8" standalone="no"?>
<!DOCTYPE svg PUBLIC "-//W3C//DTD SVG 1.1//EN" "http://www.w3.org/Graphics/SVG/1.1/DTD/svg11.dtd">
<svg xmlns:xl="http://www.w3.org/1999/xlink" xmlns:dc="http://purl.org/dc/elements/1.1/" xmlns="http://www.w3.org/2000/svg" version="1.1" viewBox="-1403 -289 433 449" width="433" height="449">
  <defs>
    <radialGradient cx="0" cy="0" r="1" id="Gradient" gradientUnits="userSpaceOnUse">
      <stop offset="0" stop-color="#4cb237"/>
      <stop offset=".4338305" stop-color="#6a7a28"/>
      <stop offset="1" stop-color="#843918"/>
    </radialGradient>
    <radialGradient id="Obj_Gradient" xl:href="#Gradient" gradientTransform="translate(-1187.2408 -260.6) scale(70.26272)"/>
  </defs>
  <metadata> Produced by OmniGraffle 7.19.2\n2023-12-06 01:13:20 +0000</metadata>
  <g id="Canvas_152" stroke-opacity="1" fill-opacity="1" stroke-dasharray="none" fill="none" stroke="none">
    <title>Canvas 152</title>
    <g id="Canvas_152_Capa_1">
      <title>Capa 1</title>
      <g id="Graphic_14">
        <path d="M -1248.9943 -287.40955 L -1240.8289 -284.29184 C -1239.9709 -283.96424 -1239.094 -283.68833 -1238.2031 -283.46558 L -1224.4859 -280.0363 C -1223.3242 -279.74587 -1222.1417 -279.54662 -1220.949 -279.44034 L -1203.4228 -277.8786 C -1202.835 -277.82622 -1202.2454 -277.79648 -1201.6552 -277.78946 L -1186.1763 -277.6052 C -1185.886 -277.60173 -1185.5956 -277.60377 -1185.3053 -277.6113 L -1170.882 -277.98594 C -1170.5212 -277.9953 -1170.1607 -278.01317 -1169.8008 -278.0395 L -1155.4295 -279.09107 C -1154.438 -279.1636 -1153.4523 -279.30036 -1152.4786 -279.50044 L -1140.9056 -281.87845 C -1139.8636 -282.09256 -1138.8377 -282.3787 -1137.8353 -282.7348 L -1126.0834 -286.90986 C -1124.993 -287.29723 -1123.7898 -286.76646 -1123.3408 -285.7 L -1123.3408 -285.7 C -1122.8186 -284.4599 -1122.6666 -283.09515 -1122.9032 -281.77055 L -1123.0836 -280.75986 C -1123.3874 -279.0587 -1123.882 -277.3972 -1124.5579 -275.8068 L -1126.1011 -272.1757 C -1126.6596 -270.86142 -1127.3394 -269.60202 -1128.1315 -268.41382 L -1131.8173 -262.88515 C -1132.5648 -261.7639 -1133.4094 -260.7105 -1134.3414 -259.7371 L -1140.6365 -253.16226 C -1141.5045 -252.2556 -1142.4454 -251.42154 -1143.4495 -250.6684 L -1151.8244 -244.38723 C -1152.7009 -243.72992 -1153.6231 -243.13606 -1154.5842 -242.6102 L -1161.7694 -238.67867 C -1163.0805 -237.96126 -1164.4584 -237.37336 -1165.8836 -236.9233 L -1172.5565 -234.81607 C -1174.2734 -234.2739 -1176.048 -233.9352 -1177.8439 -233.80692 L -1184.7303 -233.31503 C -1185.8026 -233.23844 -1186.879 -233.23712 -1187.9515 -233.31108 L -1196.3877 -233.8929 C -1197.4219 -233.96422 -1198.45 -234.10537 -1199.4652 -234.3154 L -1206.6004 -235.79165 C -1208.5524 -236.1955 -1210.4435 -236.8514 -1212.2264 -237.74281 L -1216.8858 -240.07252 C -1218.12 -240.6896 -1219.296 -241.41646 -1220.3999 -242.24434 L -1226.0818 -246.5058 C -1226.521 -246.83517 -1226.9482 -247.18013 -1227.3626 -247.54005 L -1233.1178 -252.53797 C -1233.9321 -253.2451 -1234.6956 -254.00865 -1235.4028 -254.82294 L -1239.808 -259.89562 C -1240.5621 -260.764 -1241.25 -261.6877 -1241.866 -262.65895 L -1245.5996 -268.5467 C -1245.9602 -269.1153 -1246.2956 -269.69944 -1246.605 -270.29745 L -1248.2253 -273.43017 C -1248.8345 -274.60785 -1249.3406 -275.836 -1249.7382 -277.1009 L -1251.0184 -281.17438 C -1251.2332 -281.85775 -1251.4159 -282.5508 -1251.566 -283.25122 L -1251.6408 -283.6 C -1251.8354 -284.50843 -1251.7282 -285.45557 -1251.3353 -286.29746 L -1251.2408 -286.5 C -1250.8463 -287.3453 -1249.8658 -287.7423 -1248.9943 -287.40955 Z" fill="url(#Obj_Gradient)"/>
        <path d="M -1248.9943 -287.40955 L -1240.8289 -284.29184 C -1239.9709 -283.96424 -1239.094 -283.68833 -1238.2031 -283.46558 L -1224.4859 -280.0363 C -1223.3242 -279.74587 -1222.1417 -279.54662 -1220.949 -279.44034 L -1203.4228 -277.8786 C -1202.835 -277.82622 -1202.2454 -277.79648 -1201.6552 -277.78946 L -1186.1763 -277.6052 C -1185.886 -277.60173 -1185.5956 -277.60377 -1185.3053 -277.6113 L -1170.882 -277.98594 C -1170.5212 -277.9953 -1170.1607 -278.01317 -1169.8008 -278.0395 L -1155.4295 -279.09107 C -1154.438 -279.1636 -1153.4523 -279.30036 -1152.4786 -279.50044 L -1140.9056 -281.87845 C -1139.8636 -282.09256 -1138.8377 -282.3787 -1137.8353 -282.7348 L -1126.0834 -286.90986 C -1124.993 -287.29723 -1123.7898 -286.76646 -1123.3408 -285.7 L -1123.3408 -285.7 C -1122.8186 -284.4599 -1122.6666 -283.09515 -1122.9032 -281.77055 L -1123.0836 -280.75986 C -1123.3874 -279.0587 -1123.882 -277.3972 -1124.5579 -275.8068 L -1126.1011 -272.1757 C -1126.6596 -270.86142 -1127.3394 -269.60202 -1128.1315 -268.41382 L -1131.8173 -262.88515 C -1132.5648 -261.7639 -1133.4094 -260.7105 -1134.3414 -259.7371 L -1140.6365 -253.16226 C -1141.5045 -252.2556 -1142.4454 -251.42154 -1143.4495 -250.6684 L -1151.8244 -244.38723 C -1152.7009 -243.72992 -1153.6231 -243.13606 -1154.5842 -242.6102 L -1161.7694 -238.67867 C -1163.0805 -237.96126 -1164.4584 -237.37336 -1165.8836 -236.9233 L -1172.5565 -234.81607 C -1174.2734 -234.2739 -1176.048 -233.9352 -1177.8439 -233.80692 L -1184.7303 -233.31503 C -1185.8026 -233.23844 -1186.879 -233.23712 -1187.9515 -233.31108 L -1196.3877 -233.8929 C -1197.4219 -233.96422 -1198.45 -234.10537 -1199.4652 -234.3154 L -1206.6004 -235.79165 C -1208.5524 -236.1955 -1210.4435 -236.8514 -1212.2264 -237.74281 L -1216.8858 -240.07252 C -1218.12 -240.6896 -1219.296 -241.41646 -1220.3999 -242.24434 L -1226.0818 -246.5058 C -1226.521 -246.83517 -1226.9482 -247.18013 -1227.3626 -247.54005 L -1233.1178 -252.53797 C -1233.9321 -253.2451 -1234.6956 -254.00865 -1235.4028 -254.82294 L -1239.808 -259.89562 C -1240.5621 -260.764 -1241.25 -261.6877 -1241.866 -262.65895 L -1245.5996 -268.5467 C -1245.9602 -269.1153 -1246.2956 -269.69944 -1246.605 -270.29745 L -1248.2253 -273.43017 C -1248.8345 -274.60785 -1249.3406 -275.836 -1249.7382 -277.1009 L -1251.0184 -281.17438 C -1251.2332 -281.85775 -1251.4159 -282.5508 -1251.566 -283.25122 L -1251.6408 -283.6 C -1251.8354 -284.50843 -1251.7282 -285.45557 -1251.3353 -286.29746 L -1251.2408 -286.5 C -1250.8463 -287.3453 -1249.8658 -287.7423 -1248.9943 -287.40955 Z" stroke="#7f8080" stroke-linecap="round" stroke-linejoin="round" stroke-width="1"/>
      </g>
      <g id="Graphic_13">
        <path d="M -1313.0265 149.26379 L -1299.2843 151.55416 C -1299.101 151.58472 -1298.917 151.61209 -1298.7327 151.63624 L -1270.379 155.35154 C -1270.1325 155.38385 -1269.8853 155.4104 -1269.6375 155.43118 L -1239.3946 157.96768 C -1239.1377 157.98923 -1238.8803 158.00456 -1238.6227 158.01367 L -1199.6918 159.39002 C -1199.5034 159.39668 -1199.315 159.4 -1199.1265 159.4 L -1167.6592 159.4 C -1167.4925 159.4 -1167.326 159.3974 -1167.1594 159.3922 L -1142.1246 158.60986 C -1141.9144 158.6033 -1141.7043 158.59258 -1141.4945 158.57772 L -1119.4467 157.01682 C -1119.2884 157.00561 -1119.1302 156.99205 -1118.9723 156.97614 L -1093.7119 154.4305 C -1093.5101 154.41017 -1093.3088 154.38601 -1093.108 154.35803 L -1069.3153 151.04265 C -1069.1112 151.01422 -1068.9078 150.98186 -1068.705 150.94558 L -1059.5092 149.3 C -1054.1821 148.34674 -1050.5312 143.39309 -1051.1977 138.02255 L -1053.4052 120.23198 C -1053.4079 120.21066 -1053.4105 120.18934 -1053.413 120.16801 L -1056.9769 90.46949 C -1056.9984 90.28985 -1057.017 90.10985 -1057.0324 89.92958 L -1059.3946 62.37037 C -1059.4043 62.2568 -1059.4129 62.14312 -1059.4202 62.029365 L -1060.8068 40.43772 C -1060.8084 40.412577 -1060.8101 40.387436 -1060.8118 40.3623 L -1062.404 17.275987 C -1062.4075 17.225332 -1062.4107 17.174661 -1062.4137 17.123976 L -1063.5901 -2.6781924 C -1063.6028 -2.8927062 -1063.6113 -3.107455 -1063.6154 -3.322308 L -1064.0076 -23.917147 C -1064.0087 -23.97238 -1064.01 -24.027606 -1064.0117 -24.082825 L -1064.6068 -44.31717 C -1064.6084 -44.372386 -1064.6097 -44.427613 -1064.6108 -44.482846 L -1065.0015 -64.99239 C -1065.0066 -65.26408 -1065.0049 -65.535866 -1064.9962 -65.80747 L -1064.4103 -84.16708 C -1064.4096 -84.18903 -1064.4088 -84.21097 -1064.408 -84.23291 L -1063.62 -106.10221 C -1063.6128 -106.30072 -1063.602 -106.49907 -1063.5874 -106.69717 L -1062.0299 -127.91779 C -1062.0161 -128.10591 -1062.0056 -128.29427 -1061.9985 -128.48276 L -1061.244 -148.38163 C -1061.2208 -148.99337 -1061.1626 -149.60328 -1061.0695 -150.20835 L -1058.3305 -168.01187 C -1058.2497 -168.53696 -1058.1428 -169.05771 -1058.0102 -169.57217 L -1053.382 -187.52983 C -1053.2668 -187.9764 -1053.1325 -188.41779 -1052.9793 -188.85275 L -1047.2585 -205.0924 C -1047.0924 -205.56387 -1046.9043 -206.0273 -1046.6948 -206.48117 L -1041.1633 -218.46621 C -1041.0606 -218.6887 -1040.9528 -218.90881 -1040.84 -219.12636 L -1035.4778 -229.46778 C -1035.4321 -229.55593 -1035.3855 -229.64364 -1035.3382 -229.73092 L -1030.1222 -239.34788 C -1029.385 -240.70724 -1028.4353 -241.94013 -1027.3092 -243 L -1027.3092 -243 C -1026.634 -243.63547 -1026.6018 -244.69797 -1027.2373 -245.37316 C -1027.3618 -245.50544 -1027.5069 -245.61663 -1027.667 -245.7024 L -1030.8812 -247.42427 C -1031.0998 -247.5414 -1031.3212 -247.65344 -1031.545 -247.7603 L -1039.399 -251.50878 C -1039.8056 -251.70284 -1040.2203 -251.87964 -1040.6418 -252.0387 L -1050.3166 -255.6896 C -1050.5117 -255.7632 -1050.7081 -255.83297 -1050.9059 -255.8989 L -1063.6004 -260.1304 C -1063.7396 -260.1768 -1063.8794 -260.22128 -1064.0199 -260.26384 L -1076.9034 -264.16794 C -1076.974 -264.1893 -1077.0443 -264.21117 -1077.1146 -264.23352 L -1089.6186 -268.21206 C -1090.0122 -268.3373 -1090.4008 -268.47775 -1090.7836 -268.63307 L -1102.7595 -273.49287 C -1103.5912 -273.83036 -1104.393 -274.23723 -1105.1564 -274.70917 L -1114.7756 -280.6556 C -1114.9313 -280.75186 -1115.0854 -280.85078 -1115.2377 -280.95232 L -1120.1278 -284.2124 C -1121.1092 -284.86665 -1121.9805 -285.67255 -1122.7092 -286.6 L -1122.7092 -286.6 C -1122.8148 -286.7344 -1123.0094 -286.75775 -1123.1438 -286.65215 C -1123.2465 -286.57142 -1123.2875 -286.43487 -1123.2462 -286.31092 L -1123.1092 -285.9 C -1122.65 -284.52225 -1122.5454 -283.05096 -1122.8052 -281.6221 L -1123.2003 -279.44885 C -1123.4715 -277.9572 -1123.9534 -276.51165 -1124.6314 -275.1556 L -1126.1637 -272.09096 C -1126.4604 -271.49756 -1126.7938 -270.9232 -1127.1618 -270.37117 L -1130.3655 -265.56562 C -1130.7941 -264.92272 -1131.2687 -264.3117 -1131.7856 -263.7374 L -1136.3476 -258.66844 C -1136.3887 -258.6228 -1136.43 -258.57742 -1136.4716 -258.53227 L -1142.4658 -252.02424 C -1143.0936 -251.3427 -1143.7793 -250.71698 -1144.5154 -250.15413 L -1149.5395 -246.3121 C -1149.9857 -245.97094 -1150.4495 -245.6535 -1150.929 -245.3611 L -1157.4154 -241.40597 C -1158.0771 -241.00252 -1158.7672 -240.64768 -1159.4803 -240.34424 L -1166.5957 -237.3164 C -1167.4033 -236.97272 -1168.2379 -236.69607 -1169.091 -236.48928 L -1173.17 -235.5004 C -1173.9948 -235.30045 -1174.8343 -235.16644 -1175.6804 -235.09965 L -1181.3806 -234.64963 C -1181.7995 -234.61656 -1182.2196 -234.6 -1182.6398 -234.6 L -1189.6721 -234.6 C -1190.4292 -234.6 -1191.1854 -234.65374 -1191.9349 -234.7608 L -1199.8813 -235.89601 C -1200.3663 -235.9653 -1200.8479 -236.05683 -1201.3245 -236.1703 L -1207.2857 -237.58965 C -1208.4312 -237.86238 -1209.5431 -238.26073 -1210.6012 -238.77747 L -1216.8812 -241.84444 C -1217.3662 -242.08133 -1217.839 -242.3426 -1218.2976 -242.62728 L -1222.5095 -245.24154 C -1223.1086 -245.61344 -1223.6826 -246.02454 -1224.2275 -246.47216 L -1228.6736 -250.12432 C -1228.8973 -250.30807 -1229.116 -250.49786 -1229.3294 -250.69348 L -1233.1317 -254.17896 C -1233.583 -254.59264 -1234.0102 -255.0319 -1234.4111 -255.49454 L -1238.5299 -260.24693 C -1238.8493 -260.61545 -1239.1516 -260.99838 -1239.436 -261.3945 L -1243.8657 -267.5644 C -1244.3606 -268.2537 -1244.7999 -268.9813 -1245.1794 -269.74028 L -1247.7558 -274.8932 C -1247.7914 -274.9644 -1247.8265 -275.03586 -1247.861 -275.10758 L -1249.1092 -277.7 C -1249.96 -279.46687 -1250.3155 -281.4314 -1250.1379 -283.38436 L -1249.9577 -285.3666 C -1249.9339 -285.62848 -1250.1269 -285.86006 -1250.3887 -285.88386 C -1250.5511 -285.89862 -1250.7098 -285.82925 -1250.8092 -285.7 L -1250.8092 -285.7 C -1251.4727 -284.83752 -1252.2528 -284.07144 -1253.1271 -283.42375 L -1257.0237 -280.53743 C -1257.1474 -280.4458 -1257.2724 -280.356 -1257.3986 -280.26798 L -1262.0209 -277.0464 C -1263.2076 -276.2193 -1264.501 -275.55692 -1265.8658 -275.07742 L -1270.4729 -273.4587 C -1270.9635 -273.28633 -1271.4454 -273.09016 -1271.9168 -272.87087 L -1278.7636 -269.68632 C -1279.4598 -269.36253 -1280.1783 -269.08926 -1280.9137 -268.86864 L -1291.7841 -265.60752 C -1291.8009 -265.6025 -1291.8176 -265.59746 -1291.8343 -265.5924 L -1302.8024 -262.2628 C -1302.9403 -262.22093 -1303.0776 -262.1772 -1303.2143 -262.13164 L -1316.1355 -257.82456 C -1316.1847 -257.8082 -1316.2339 -257.79205 -1316.2831 -257.77616 L -1327.6505 -254.10925 C -1328.289 -253.9033 -1328.914 -253.65737 -1329.5215 -253.37296 L -1337.4535 -249.66012 C -1337.8238 -249.48677 -1338.1874 -249.2993 -1338.5434 -249.09808 L -1344.4895 -245.73724 C -1345.7425 -245.029 -1346.1842 -243.43907 -1345.476 -242.18604 C -1345.3988 -242.0496 -1345.3096 -241.9204 -1345.2092 -241.8 L -1344.3451 -240.76307 C -1343.5902 -239.85713 -1342.9377 -238.8705 -1342.3996 -237.82118 L -1339.3224 -231.82076 C -1339.247 -231.6736 -1339.1692 -231.5276 -1339.0892 -231.38285 L -1335.1345 -224.22663 C -1335.051 -224.07555 -1334.97 -223.92313 -1334.8914 -223.76943 L -1330.783 -215.73144 C -1330.534 -215.24413 -1330.3101 -214.74437 -1330.1122 -214.23411 L -1326.6295 -205.25224 C -1326.616 -205.2174 -1326.6023 -205.18263 -1326.5886 -205.1479 L -1322.9923 -196.06246 C -1322.8703 -195.75423 -1322.7579 -195.44228 -1322.6552 -195.12706 L -1320.0334 -187.07428 C -1320.0173 -187.02476 -1320.0014 -186.97516 -1319.9858 -186.92548 L -1316.9137 -177.1672 C -1316.7109 -176.52305 -1316.5491 -175.8667 -1316.4293 -175.20208 L -1314.444 -164.19263 C -1314.4208 -164.06421 -1314.3992 -163.93552 -1314.3792 -163.80658 L -1312.6733 -152.8132 C -1312.6306 -152.53778 -1312.595 -152.26129 -1312.5668 -151.98402 L -1311.6794 -143.2873 C -1311.6326 -142.82931 -1311.6057 -142.36952 -1311.5986 -141.9092 L -1311.4144 -129.93359 C -1311.411 -129.71122 -1311.4029 -129.48895 -1311.3902 -129.26691 L -1310.6198 -115.78535 C -1310.6127 -115.66179 -1310.6043 -115.53831 -1310.5943 -115.41494 L -1309.2608 -98.84057 C -1309.2264 -98.41369 -1309.2092 -97.98561 -1309.2092 -97.55736 L -1309.2092 -85.10758 C -1309.2092 -84.90254 -1309.2053 -84.69753 -1309.1974 -84.49265 L -1308.617 -69.40351 C -1308.6118 -69.26784 -1308.6083 -69.13211 -1308.6066 -68.99635 L -1308.4144 -54.2001 C -1308.411 -53.933405 -1308.4142 -53.66667 -1308.424 -53.400136 L -1308.9983 -37.89599 C -1309.0056 -37.698677 -1309.0092 -37.50125 -1309.0092 -37.3038 L -1309.0092 -23.707575 C -1309.0092 -23.50254 -1309.0132 -23.297527 -1309.021 -23.092645 L -1309.6062 -7.877642 C -1309.6082 -7.825878 -1309.6105 -7.774124 -1309.613 -7.722382 L -1310.4083 8.780553 C -1310.4089 8.793521 -1310.4095 8.806487 -1310.4102 8.819453 L -1311.2047 24.51062 C -1311.2077 24.57021 -1311.211 24.62978 -1311.2147 24.689333 L -1312.4037 43.910067 C -1312.4074 43.970025 -1312.4114 44.02996 -1312.4158 44.089874 L -1314.199 68.45942 C -1314.2058 68.55314 -1314.2135 68.6468 -1314.222 68.740385 L -1316.0079 88.3852 C -1316.0088 88.39507 -1316.0097 88.40494 -1316.0106 88.41481 L -1317.7814 107.49972 C -1317.8 107.69989 -1317.8223 107.8997 -1317.8484 108.09903 L -1319.8091 123.07175 C -1319.9419 124.08594 -1320.211 125.07756 -1320.6092 126.01973 L -1320.6092 126.01973 C -1321.0068 126.96048 -1321.2555 127.9574 -1321.3463 128.97465 L -1322.1092 137.51973 C -1322.617 143.20676 -1318.6585 148.32512 -1313.0265 149.26379 Z" fill="white"/>
        <path d="M -1313.0265 149.26379 L -1299.2843 151.55416 C -1299.101 151.58472 -1298.917 151.61209 -1298.7327 151.63624 L -1270.379 155.35154 C -1270.1325 155.38385 -1269.8853 155.4104 -1269.6375 155.43118 L -1239.3946 157.96768 C -1239.1377 157.98923 -1238.8803 158.00456 -1238.6227 158.01367 L -1199.6918 159.39002 C -1199.5034 159.39668 -1199.315 159.4 -1199.1265 159.4 L -1167.6592 159.4 C -1167.4925 159.4 -1167.326 159.3974 -1167.1594 159.3922 L -1142.1246 158.60986 C -1141.9144 158.6033 -1141.7043 158.59258 -1141.4945 158.57772 L -1119.4467 157.01682 C -1119.2884 157.00561 -1119.1302 156.99205 -1118.9723 156.97614 L -1093.7119 154.4305 C -1093.5101 154.41017 -1093.3088 154.38601 -1093.108 154.35803 L -1069.3153 151.04265 C -1069.1112 151.01422 -1068.9078 150.98186 -1068.705 150.94558 L -1059.5092 149.3 C -1054.1821 148.34674 -1050.5312 143.39309 -1051.1977 138.02255 L -1053.4052 120.23198 C -1053.4079 120.21066 -1053.4105 120.18934 -1053.413 120.16801 L -1056.9769 90.46949 C -1056.9984 90.28985 -1057.017 90.10985 -1057.0324 89.92958 L -1059.3946 62.37037 C -1059.4043 62.2568 -1059.4129 62.14312 -1059.4202 62.029365 L -1060.8068 40.43772 C -1060.8084 40.412577 -1060.8101 40.387436 -1060.8118 40.3623 L -1062.404 17.275987 C -1062.4075 17.225332 -1062.4107 17.174661 -1062.4137 17.123976 L -1063.5901 -2.6781924 C -1063.6028 -2.8927062 -1063.6113 -3.107455 -1063.6154 -3.322308 L -1064.0076 -23.917147 C -1064.0087 -23.97238 -1064.01 -24.027606 -1064.0117 -24.082825 L -1064.6068 -44.31717 C -1064.6084 -44.372386 -1064.6097 -44.427613 -1064.6108 -44.482846 L -1065.0015 -64.99239 C -1065.0066 -65.26408 -1065.0049 -65.535866 -1064.9962 -65.80747 L -1064.4103 -84.16708 C -1064.4096 -84.18903 -1064.4088 -84.21097 -1064.408 -84.23291 L -1063.62 -106.10221 C -1063.6128 -106.30072 -1063.602 -106.49907 -1063.5874 -106.69717 L -1062.0299 -127.91779 C -1062.0161 -128.10591 -1062.0056 -128.29427 -1061.9985 -128.48276 L -1061.244 -148.38163 C -1061.2208 -148.99337 -1061.1626 -149.60328 -1061.0695 -150.20835 L -1058.3305 -168.01187 C -1058.2497 -168.53696 -1058.1428 -169.05771 -1058.0102 -169.57217 L -1053.382 -187.52983 C -1053.2668 -187.9764 -1053.1325 -188.41779 -1052.9793 -188.85275 L -1047.2585 -205.0924 C -1047.0924 -205.56387 -1046.9043 -206.0273 -1046.6948 -206.48117 L -1041.1633 -218.46621 C -1041.0606 -218.6887 -1040.9528 -218.90881 -1040.84 -219.12636 L -1035.4778 -229.46778 C -1035.4321 -229.55593 -1035.3855 -229.64364 -1035.3382 -229.73092 L -1030.1222 -239.34788 C -1029.385 -240.70724 -1028.4353 -241.94013 -1027.3092 -243 L -1027.3092 -243 C -1026.634 -243.63547 -1026.6018 -244.69797 -1027.2373 -245.37316 C -1027.3618 -245.50544 -1027.5069 -245.61663 -1027.667 -245.7024 L -1030.8812 -247.42427 C -1031.0998 -247.5414 -1031.3212 -247.65344 -1031.545 -247.7603 L -1039.399 -251.50878 C -1039.8056 -251.70284 -1040.2203 -251.87964 -1040.6418 -252.0387 L -1050.3166 -255.6896 C -1050.5117 -255.7632 -1050.7081 -255.83297 -1050.9059 -255.8989 L -1063.6004 -260.1304 C -1063.7396 -260.1768 -1063.8794 -260.22128 -1064.0199 -260.26384 L -1076.9034 -264.16794 C -1076.974 -264.1893 -1077.0443 -264.21117 -1077.1146 -264.23352 L -1089.6186 -268.21206 C -1090.0122 -268.3373 -1090.4008 -268.47775 -1090.7836 -268.63307 L -1102.7595 -273.49287 C -1103.5912 -273.83036 -1104.393 -274.23723 -1105.1564 -274.70917 L -1114.7756 -280.6556 C -1114.9313 -280.75186 -1115.0854 -280.85078 -1115.2377 -280.95232 L -1120.1278 -284.2124 C -1121.1092 -284.86665 -1121.9805 -285.67255 -1122.7092 -286.6 L -1122.7092 -286.6 C -1122.8148 -286.7344 -1123.0094 -286.75775 -1123.1438 -286.65215 C -1123.2465 -286.57142 -1123.2875 -286.43487 -1123.2462 -286.31092 L -1123.1092 -285.9 C -1122.65 -284.52225 -1122.5454 -283.05096 -1122.8052 -281.6221 L -1123.2003 -279.44885 C -1123.4715 -277.9572 -1123.9534 -276.51165 -1124.6314 -275.1556 L -1126.1637 -272.09096 C -1126.4604 -271.49756 -1126.7938 -270.9232 -1127.1618 -270.37117 L -1130.3655 -265.56562 C -1130.7941 -264.92272 -1131.2687 -264.3117 -1131.7856 -263.7374 L -1136.3476 -258.66844 C -1136.3887 -258.6228 -1136.43 -258.57742 -1136.4716 -258.53227 L -1142.4658 -252.02424 C -1143.0936 -251.3427 -1143.7793 -250.71698 -1144.5154 -250.15413 L -1149.5395 -246.3121 C -1149.9857 -245.97094 -1150.4495 -245.6535 -1150.929 -245.3611 L -1157.4154 -241.40597 C -1158.0771 -241.00252 -1158.7672 -240.64768 -1159.4803 -240.34424 L -1166.5957 -237.3164 C -1167.4033 -236.97272 -1168.2379 -236.69607 -1169.091 -236.48928 L -1173.17 -235.5004 C -1173.9948 -235.30045 -1174.8343 -235.16644 -1175.6804 -235.09965 L -1181.3806 -234.64963 C -1181.7995 -234.61656 -1182.2196 -234.6 -1182.6398 -234.6 L -1189.6721 -234.6 C -1190.4292 -234.6 -1191.1854 -234.65374 -1191.9349 -234.7608 L -1199.8813 -235.89601 C -1200.3663 -235.9653 -1200.8479 -236.05683 -1201.3245 -236.1703 L -1207.2857 -237.58965 C -1208.4312 -237.86238 -1209.5431 -238.26073 -1210.6012 -238.77747 L -1216.8812 -241.84444 C -1217.3662 -242.08133 -1217.839 -242.3426 -1218.2976 -242.62728 L -1222.5095 -245.24154 C -1223.1086 -245.61344 -1223.6826 -246.02454 -1224.2275 -246.47216 L -1228.6736 -250.12432 C -1228.8973 -250.30807 -1229.116 -250.49786 -1229.3294 -250.69348 L -1233.1317 -254.17896 C -1233.583 -254.59264 -1234.0102 -255.0319 -1234.4111 -255.49454 L -1238.5299 -260.24693 C -1238.8493 -260.61545 -1239.1516 -260.99838 -1239.436 -261.3945 L -1243.8657 -267.5644 C -1244.3606 -268.2537 -1244.7999 -268.9813 -1245.1794 -269.74028 L -1247.7558 -274.8932 C -1247.7914 -274.9644 -1247.8265 -275.03586 -1247.861 -275.10758 L -1249.1092 -277.7 C -1249.96 -279.46687 -1250.3155 -281.4314 -1250.1379 -283.38436 L -1249.9577 -285.3666 C -1249.9339 -285.62848 -1250.1269 -285.86006 -1250.3887 -285.88386 C -1250.5511 -285.89862 -1250.7098 -285.82925 -1250.8092 -285.7 L -1250.8092 -285.7 C -1251.4727 -284.83752 -1252.2528 -284.07144 -1253.1271 -283.42375 L -1257.0237 -280.53743 C -1257.1474 -280.4458 -1257.2724 -280.356 -1257.3986 -280.26798 L -1262.0209 -277.0464 C -1263.2076 -276.2193 -1264.501 -275.55692 -1265.8658 -275.07742 L -1270.4729 -273.4587 C -1270.9635 -273.28633 -1271.4454 -273.09016 -1271.9168 -272.87087 L -1278.7636 -269.68632 C -1279.4598 -269.36253 -1280.1783 -269.08926 -1280.9137 -268.86864 L -1291.7841 -265.60752 C -1291.8009 -265.6025 -1291.8176 -265.59746 -1291.8343 -265.5924 L -1302.8024 -262.2628 C -1302.9403 -262.22093 -1303.0776 -262.1772 -1303.2143 -262.13164 L -1316.1355 -257.82456 C -1316.1847 -257.8082 -1316.2339 -257.79205 -1316.2831 -257.77616 L -1327.6505 -254.10925 C -1328.289 -253.9033 -1328.914 -253.65737 -1329.5215 -253.37296 L -1337.4535 -249.66012 C -1337.8238 -249.48677 -1338.1874 -249.2993 -1338.5434 -249.09808 L -1344.4895 -245.73724 C -1345.7425 -245.029 -1346.1842 -243.43907 -1345.476 -242.18604 C -1345.3988 -242.0496 -1345.3096 -241.9204 -1345.2092 -241.8 L -1344.3451 -240.76307 C -1343.5902 -239.85713 -1342.9377 -238.8705 -1342.3996 -237.82118 L -1339.3224 -231.82076 C -1339.247 -231.6736 -1339.1692 -231.5276 -1339.0892 -231.38285 L -1335.1345 -224.22663 C -1335.051 -224.07555 -1334.97 -223.92313 -1334.8914 -223.76943 L -1330.783 -215.73144 C -1330.534 -215.24413 -1330.3101 -214.74437 -1330.1122 -214.23411 L -1326.6295 -205.25224 C -1326.616 -205.2174 -1326.6023 -205.18263 -1326.5886 -205.1479 L -1322.9923 -196.06246 C -1322.8703 -195.75423 -1322.7579 -195.44228 -1322.6552 -195.12706 L -1320.0334 -187.07428 C -1320.0173 -187.02476 -1320.0014 -186.97516 -1319.9858 -186.92548 L -1316.9137 -177.1672 C -1316.7109 -176.52305 -1316.5491 -175.8667 -1316.4293 -175.20208 L -1314.444 -164.19263 C -1314.4208 -164.06421 -1314.3992 -163.93552 -1314.3792 -163.80658 L -1312.6733 -152.8132 C -1312.6306 -152.53778 -1312.595 -152.26129 -1312.5668 -151.98402 L -1311.6794 -143.2873 C -1311.6326 -142.82931 -1311.6057 -142.36952 -1311.5986 -141.9092 L -1311.4144 -129.93359 C -1311.411 -129.71122 -1311.4029 -129.48895 -1311.3902 -129.26691 L -1310.6198 -115.78535 C -1310.6127 -115.66179 -1310.6043 -115.53831 -1310.5943 -115.41494 L -1309.2608 -98.84057 C -1309.2264 -98.41369 -1309.2092 -97.98561 -1309.2092 -97.55736 L -1309.2092 -85.10758 C -1309.2092 -84.90254 -1309.2053 -84.69753 -1309.1974 -84.49265 L -1308.617 -69.40351 C -1308.6118 -69.26784 -1308.6083 -69.13211 -1308.6066 -68.99635 L -1308.4144 -54.2001 C -1308.411 -53.933405 -1308.4142 -53.66667 -1308.424 -53.400136 L -1308.9983 -37.89599 C -1309.0056 -37.698677 -1309.0092 -37.50125 -1309.0092 -37.3038 L -1309.0092 -23.707575 C -1309.0092 -23.50254 -1309.0132 -23.297527 -1309.021 -23.092645 L -1309.6062 -7.877642 C -1309.6082 -7.825878 -1309.6105 -7.774124 -1309.613 -7.722382 L -1310.4083 8.780553 C -1310.4089 8.793521 -1310.4095 8.806487 -1310.4102 8.819453 L -1311.2047 24.51062 C -1311.2077 24.57021 -1311.211 24.62978 -1311.2147 24.689333 L -1312.4037 43.910067 C -1312.4074 43.970025 -1312.4114 44.02996 -1312.4158 44.089874 L -1314.199 68.45942 C -1314.2058 68.55314 -1314.2135 68.6468 -1314.222 68.740385 L -1316.0079 88.3852 C -1316.0088 88.39507 -1316.0097 88.40494 -1316.0106 88.41481 L -1317.7814 107.49972 C -1317.8 107.69989 -1317.8223 107.8997 -1317.8484 108.09903 L -1319.8091 123.07175 C -1319.9419 124.08594 -1320.211 125.07756 -1320.6092 126.01973 L -1320.6092 126.01973 C -1321.0068 126.96048 -1321.2555 127.9574 -1321.3463 128.97465 L -1322.1092 137.51973 C -1322.617 143.20676 -1318.6585 148.32512 -1313.0265 149.26379 Z" stroke="#7f8080" stroke-linecap="round" stroke-linejoin="round" stroke-width="1"/>
      </g>
      <g id="Graphic_12">
        <path d="M -1402 -136.55385 L -1395.8 -132.15385 L -1387.6 -128.15385 L -1379 -124.55385 L -1370 -120.75385 L -1359 -116.75385 L -1349.6 -113.95385 L -1340.6 -111.35385 L -1331.6 -108.75385 L -1326.2 -107.35385 L -1320.6 -106.35385 L -1318.2 -112.15385 L -1315.6 -117.55385 L -1313.4 -121.55385 L -1310.8 -124.95385 L -1310.6 -133.95385 L -1311.2 -144.95385 L -1313 -155.75385 L -1314.6 -166.15385 L -1317.2 -177.15386 L -1319.6 -186.75386 L -1322.4 -194.75386 L -1325.6 -204.15386 L -1328.4 -211.55386 L -1332 -219.15386 L -1336 -226.75386 L -1340 -234.15386 L -1342.6 -237.75386 L -1346.2 -243.55386 L -1351.6 -239.15386 L -1356.4 -234.35386 L -1361 -228.15386 L -1365.4 -221.95386 L -1370.2 -213.35386 L -1375 -203.95386 L -1379.8 -194.75386 L -1383.4 -186.15386 L -1387.4 -177.15386 L -1390.6 -168.95385 L -1394.4 -159.55385 L -1397.2 -151.55385 L -1400.2 -143.15385 Z" fill="black"/>
        <path d="M -1402 -136.55385 L -1395.8 -132.15385 L -1387.6 -128.15385 L -1379 -124.55385 L -1370 -120.75385 L -1359 -116.75385 L -1349.6 -113.95385 L -1340.6 -111.35385 L -1331.6 -108.75385 L -1326.2 -107.35385 L -1320.6 -106.35385 L -1318.2 -112.15385 L -1315.6 -117.55385 L -1313.4 -121.55385 L -1310.8 -124.95385 L -1310.6 -133.95385 L -1311.2 -144.95385 L -1313 -155.75385 L -1314.6 -166.15385 L -1317.2 -177.15386 L -1319.6 -186.75386 L -1322.4 -194.75386 L -1325.6 -204.15386 L -1328.4 -211.55386 L -1332 -219.15386 L -1336 -226.75386 L -1340 -234.15386 L -1342.6 -237.75386 L -1346.2 -243.55386 L -1351.6 -239.15386 L -1356.4 -234.35386 L -1361 -228.15386 L -1365.4 -221.95386 L -1370.2 -213.35386 L -1375 -203.95386 L -1379.8 -194.75386 L -1383.4 -186.15386 L -1387.4 -177.15386 L -1390.6 -168.95385 L -1394.4 -159.55385 L -1397.2 -151.55385 L -1400.2 -143.15385 Z" stroke="#7f8080" stroke-linecap="round" stroke-linejoin="round" stroke-width="1"/>
      </g>
      <g id="Graphic_11">
        <path d="M -970.5947 -137.49725 L -976.7947 -133.09725 L -984.9947 -129.09725 L -993.5947 -125.49725 L -1002.5947 -121.69725 L -1013.5947 -117.69725 L -1022.9947 -114.89725 L -1031.9947 -112.29725 L -1040.9947 -109.69725 L -1046.3947 -108.29725 L -1051.9947 -107.29725 L -1054.3947 -113.09725 L -1056.9947 -118.49725 L -1059.1947 -122.49725 L -1061.7947 -125.89725 L -1061.9947 -134.89725 L -1061.3947 -145.89725 L -1059.5947 -156.69725 L -1057.9947 -167.09725 L -1055.3947 -178.09725 L -1052.9947 -187.69725 L -1050.1947 -195.69725 L -1046.9947 -205.09725 L -1044.1947 -212.49725 L -1040.5947 -220.09725 L -1036.5947 -227.69725 L -1032.5947 -235.09725 L -1029.9947 -238.69725 L -1026.3947 -244.49725 L -1020.9947 -240.09725 L -1016.1947 -235.29725 L -1011.5947 -229.09725 L -1007.1947 -222.89725 L -1002.3947 -214.29725 L -997.5947 -204.89725 L -992.7947 -195.69725 L -989.1947 -187.09725 L -985.1947 -178.09725 L -981.9947 -169.89725 L -978.1947 -160.49725 L -975.3947 -152.49725 L -972.3947 -144.09725 Z" fill="black"/>
        <path d="M -970.5947 -137.49725 L -976.7947 -133.09725 L -984.9947 -129.09725 L -993.5947 -125.49725 L -1002.5947 -121.69725 L -1013.5947 -117.69725 L -1022.9947 -114.89725 L -1031.9947 -112.29725 L -1040.9947 -109.69725 L -1046.3947 -108.29725 L -1051.9947 -107.29725 L -1054.3947 -113.09725 L -1056.9947 -118.49725 L -1059.1947 -122.49725 L -1061.7947 -125.89725 L -1061.9947 -134.89725 L -1061.3947 -145.89725 L -1059.5947 -156.69725 L -1057.9947 -167.09725 L -1055.3947 -178.09725 L -1052.9947 -187.69725 L -1050.1947 -195.69725 L -1046.9947 -205.09725 L -1044.1947 -212.49725 L -1040.5947 -220.09725 L -1036.5947 -227.69725 L -1032.5947 -235.09725 L -1029.9947 -238.69725 L -1026.3947 -244.49725 L -1020.9947 -240.09725 L -1016.1947 -235.29725 L -1011.5947 -229.09725 L -1007.1947 -222.89725 L -1002.3947 -214.29725 L -997.5947 -204.89725 L -992.7947 -195.69725 L -989.1947 -187.09725 L -985.1947 -178.09725 L -981.9947 -169.89725 L -978.1947 -160.49725 L -975.3947 -152.49725 L -972.3947 -144.09725 Z" stroke="#7f8080" stroke-linecap="round" stroke-linejoin="round" stroke-width="1"/>
      </g>
      <g id="Graphic_10">
        <path d="M -1402 -136.55385 L -1395.8 -132.15385 L -1387.6 -128.15385 L -1379 -124.55385 L -1370 -120.75385 L -1359 -116.75385 L -1349.6 -113.95385 L -1340.6 -111.35385 L -1331.6 -108.75385 L -1326.2 -107.35385 L -1320.6 -106.35385 L -1317.6 -112.75385 L -1321.4 -113.55385 L -1326.2 -114.75385 L -1331.8 -115.95385 L -1337.8 -117.75385 L -1342.4 -119.15385 L -1346.6 -120.35385 L -1351.2 -122.35385 L -1355.8 -123.95385 L -1360.6 -125.95385 L -1364.6 -127.35385 L -1369.8 -129.55385 L -1374.4 -131.15385 L -1379.2 -133.35385 L -1384 -135.15385 L -1388 -137.15385 L -1392.4 -139.35385 L -1396.8 -141.55385 L -1400.2 -143.15385 Z" fill="red"/>
        <path d="M -1402 -136.55385 L -1395.8 -132.15385 L -1387.6 -128.15385 L -1379 -124.55385 L -1370 -120.75385 L -1359 -116.75385 L -1349.6 -113.95385 L -1340.6 -111.35385 L -1331.6 -108.75385 L -1326.2 -107.35385 L -1320.6 -106.35385 L -1317.6 -112.75385 L -1321.4 -113.55385 L -1326.2 -114.75385 L -1331.8 -115.95385 L -1337.8 -117.75385 L -1342.4 -119.15385 L -1346.6 -120.35385 L -1351.2 -122.35385 L -1355.8 -123.95385 L -1360.6 -125.95385 L -1364.6 -127.35385 L -1369.8 -129.55385 L -1374.4 -131.15385 L -1379.2 -133.35385 L -1384 -135.15385 L -1388 -137.15385 L -1392.4 -139.35385 L -1396.8 -141.55385 L -1400.2 -143.15385 Z" stroke="#7f8080" stroke-linecap="round" stroke-linejoin="round" stroke-width="1"/>
      </g>
      <g id="Graphic_9">
        <path d="M -970.5947 -137.49725 L -976.7947 -133.09725 L -984.9947 -129.09725 L -993.5947 -125.49725 L -1002.5947 -121.69725 L -1013.5947 -117.69725 L -1022.9947 -114.89725 L -1031.9947 -112.29725 L -1040.9947 -109.69725 L -1046.3947 -108.29725 L -1051.9947 -107.29725 L -1054.9947 -113.69725 L -1051.1947 -114.49725 L -1046.3947 -115.69725 L -1040.7947 -116.89725 L -1034.7947 -118.69725 L -1030.1947 -120.09725 L -1025.9947 -121.29725 L -1021.3947 -123.29725 L -1016.7947 -124.89725 L -1011.9947 -126.89725 L -1007.9947 -128.29725 L -1002.7947 -130.49725 L -998.1947 -132.09725 L -993.3947 -134.29725 L -988.5947 -136.09725 L -984.5947 -138.09725 L -980.1947 -140.29725 L -975.7947 -142.49725 L -972.3947 -144.09725 Z" fill="red"/>
        <path d="M -970.5947 -137.49725 L -976.7947 -133.09725 L -984.9947 -129.09725 L -993.5947 -125.49725 L -1002.5947 -121.69725 L -1013.5947 -117.69725 L -1022.9947 -114.89725 L -1031.9947 -112.29725 L -1040.9947 -109.69725 L -1046.3947 -108.29725 L -1051.9947 -107.29725 L -1054.9947 -113.69725 L -1051.1947 -114.49725 L -1046.3947 -115.69725 L -1040.7947 -116.89725 L -1034.7947 -118.69725 L -1030.1947 -120.09725 L -1025.9947 -121.29725 L -1021.3947 -123.29725 L -1016.7947 -124.89725 L -1011.9947 -126.89725 L -1007.9947 -128.29725 L -1002.7947 -130.49725 L -998.1947 -132.09725 L -993.3947 -134.29725 L -988.5947 -136.09725 L -984.5947 -138.09725 L -980.1947 -140.29725 L -975.7947 -142.49725 L -972.3947 -144.09725 Z" stroke="#7f8080" stroke-linecap="round" stroke-linejoin="round" stroke-width="1"/>
      </g>
      <g id="Graphic_8">
        <path d="M -1251.4279 -286.0362 L -1256.157 -281.98264 C -1257.3074 -280.99662 -1258.5524 -280.1267 -1259.8738 -279.3855 L -1262.4004 -277.96835 C -1263.8356 -277.16338 -1264.4164 -275.39425 -1263.7376 -273.89527 L -1262.72 -271.64803 C -1262.5984 -271.37954 -1262.4717 -271.11342 -1262.3399 -270.8498 L -1258.0506 -262.2713 C -1257.7088 -261.5877 -1257.3332 -260.92157 -1256.925 -260.27537 L -1254.5987 -256.59192 C -1254.1583 -255.89465 -1253.6807 -255.22158 -1253.168 -254.5756 L -1249.7574 -250.27815 C -1249.2113 -249.59013 -1248.6263 -248.93394 -1248.0052 -248.31283 L -1243.3391 -243.6468 C -1242.9383 -243.2459 -1242.5227 -242.86 -1242.0933 -242.48982 L -1237.5298 -238.55574 C -1237.1351 -238.21552 -1236.729 -237.8888 -1236.3122 -237.57617 L -1232.3372 -234.59497 C -1231.6713 -234.09553 -1230.9788 -233.63262 -1230.2627 -233.20826 L -1226.1296 -230.75904 C -1226.0016 -230.6832 -1225.8729 -230.60859 -1225.7434 -230.53523 L -1221.0459 -227.8733 C -1220.3076 -227.45493 -1219.5467 -227.07774 -1218.7667 -226.74347 L -1215.217 -225.22212 C -1214.631 -224.971 -1214.0348 -224.74433 -1213.43 -224.54274 L -1208.4119 -222.87003 C -1207.1647 -222.45429 -1205.8841 -222.14624 -1204.5842 -221.9493 L -1200.4854 -221.32826 C -1200.1202 -221.27294 -1199.7539 -221.22642 -1199.3865 -221.18874 L -1192.5054 -220.48299 C -1192.2602 -220.45784 -1192.0147 -220.43664 -1191.7688 -220.41938 L -1187.2417 -220.1017 C -1186.7058 -220.06409 -1186.1688 -220.04527 -1185.6316 -220.04527 L -1182.3695 -220.04526 C -1181.4158 -220.04526 -1180.463 -220.10458 -1179.5167 -220.22287 L -1175.528 -220.72146 C -1174.868 -220.80396 -1174.212 -220.91504 -1173.5616 -221.0544 L -1167.4796 -222.3577 C -1166.5857 -222.54924 -1165.7041 -222.7939 -1164.8393 -223.0904 L -1160.3305 -224.63628 C -1159.5358 -224.90873 -1158.7567 -225.22451 -1157.9966 -225.5822 L -1153.1632 -227.85674 C -1152.613 -228.11565 -1152.0733 -228.39629 -1151.5454 -228.69798 L -1147.7775 -230.85104 C -1147.0847 -231.24692 -1146.413 -231.67858 -1145.765 -232.14428 L -1141.089 -235.50525 C -1140.5883 -235.8651 -1140.1022 -236.24497 -1139.6321 -236.6439 L -1134.3112 -241.15856 C -1133.9289 -241.48294 -1133.5573 -241.81974 -1133.197 -242.16842 L -1128.4978 -246.71604 C -1127.8582 -247.335 -1127.2551 -247.99056 -1126.6915 -248.67942 L -1122.8982 -253.31566 C -1122.3915 -253.93497 -1121.9174 -254.5803 -1121.478 -255.24904 L -1117.8608 -260.75344 C -1117.6454 -261.08127 -1117.4384 -261.41456 -1117.24 -261.75298 L -1114.7169 -266.05708 C -1114.331 -266.71546 -1113.978 -267.39265 -1113.6594 -268.08612 L -1111.5407 -272.6974 C -1111.0078 -273.85715 -1110.6367 -275.08456 -1110.4376 -276.34526 L -1110.4376 -276.34526 C -1110.2593 -277.47453 -1110.8386 -278.58797 -1111.8657 -279.0901 L -1117.1591 -281.678 C -1118.4736 -282.32063 -1119.7082 -283.11514 -1120.8376 -284.04526 L -1121.2436 -284.37963 C -1122.088 -285.07496 -1122.7114 -286.00126 -1123.0376 -287.04526 L -1123.0376 -287.04526 C -1123.0843 -287.19458 -1123.2431 -287.2778 -1123.3925 -287.23114 C -1123.5075 -287.19518 -1123.5872 -287.0903 -1123.5911 -286.9698 L -1123.7003 -283.5469 C -1123.791 -280.7038 -1124.4084 -277.90224 -1125.521 -275.28433 L -1126.398 -273.22096 C -1126.9565 -271.9067 -1127.6363 -270.6473 -1128.4284 -269.4591 L -1132.1142 -263.93042 C -1132.8617 -262.80915 -1133.7063 -261.75575 -1134.6382 -260.78238 L -1140.9333 -254.20753 C -1141.8014 -253.30087 -1142.7422 -252.4668 -1143.7464 -251.71367 L -1152.1213 -245.4325 C -1152.9977 -244.77518 -1153.92 -244.18133 -1154.881 -243.65546 L -1162.0662 -239.72394 C -1163.3774 -239.00653 -1164.7553 -238.41863 -1166.1805 -237.96857 L -1172.8534 -235.86133 C -1174.5703 -235.31916 -1176.3449 -234.98046 -1178.1407 -234.85219 L -1185.0272 -234.3603 C -1186.0995 -234.2837 -1187.1758 -234.28238 -1188.2483 -234.35635 L -1196.6846 -234.93816 C -1197.7187 -235.00948 -1198.7469 -235.15064 -1199.762 -235.36067 L -1206.8973 -236.83692 C -1208.8492 -237.24077 -1210.7404 -237.89665 -1212.5232 -238.78808 L -1217.1827 -241.11779 C -1218.4168 -241.73485 -1219.5929 -242.46173 -1220.6967 -243.2896 L -1226.3787 -247.55108 C -1226.8178 -247.88043 -1227.245 -248.2254 -1227.6595 -248.58532 L -1233.4147 -253.58324 C -1234.229 -254.29038 -1234.9925 -255.05392 -1235.6996 -255.8682 L -1240.1049 -260.9409 C -1240.859 -261.80925 -1241.5469 -262.73295 -1242.1628 -263.70422 L -1245.8965 -269.59198 C -1246.257 -270.16056 -1246.5925 -270.7447 -1246.9018 -271.34272 L -1248.5222 -274.47544 C -1249.1313 -275.65312 -1249.6375 -276.88126 -1250.035 -278.14615 L -1251.3153 -282.21964 C -1251.53 -282.90302 -1251.7128 -283.59605 -1251.8629 -284.2965 L -1252.0883 -285.34843 C -1252.1734 -285.74544 -1251.947 -286.1431 -1251.5622 -286.27263 L -1251.5622 -286.27263 C -1251.4897 -286.29704 -1251.4112 -286.25805 -1251.3868 -286.18556 C -1251.3687 -286.13205 -1251.385 -286.07296 -1251.4279 -286.0362 Z" fill="red"/>
        <path d="M -1251.4279 -286.0362 L -1256.157 -281.98264 C -1257.3074 -280.99662 -1258.5524 -280.1267 -1259.8738 -279.3855 L -1262.4004 -277.96835 C -1263.8356 -277.16338 -1264.4164 -275.39425 -1263.7376 -273.89527 L -1262.72 -271.64803 C -1262.5984 -271.37954 -1262.4717 -271.11342 -1262.3399 -270.8498 L -1258.0506 -262.2713 C -1257.7088 -261.5877 -1257.3332 -260.92157 -1256.925 -260.27537 L -1254.5987 -256.59192 C -1254.1583 -255.89465 -1253.6807 -255.22158 -1253.168 -254.5756 L -1249.7574 -250.27815 C -1249.2113 -249.59013 -1248.6263 -248.93394 -1248.0052 -248.31283 L -1243.3391 -243.6468 C -1242.9383 -243.2459 -1242.5227 -242.86 -1242.0933 -242.48982 L -1237.5298 -238.55574 C -1237.1351 -238.21552 -1236.729 -237.8888 -1236.3122 -237.57617 L -1232.3372 -234.59497 C -1231.6713 -234.09553 -1230.9788 -233.63262 -1230.2627 -233.20826 L -1226.1296 -230.75904 C -1226.0016 -230.6832 -1225.8729 -230.60859 -1225.7434 -230.53523 L -1221.0459 -227.8733 C -1220.3076 -227.45493 -1219.5467 -227.07774 -1218.7667 -226.74347 L -1215.217 -225.22212 C -1214.631 -224.971 -1214.0348 -224.74433 -1213.43 -224.54274 L -1208.4119 -222.87003 C -1207.1647 -222.45429 -1205.8841 -222.14624 -1204.5842 -221.9493 L -1200.4854 -221.32826 C -1200.1202 -221.27294 -1199.7539 -221.22642 -1199.3865 -221.18874 L -1192.5054 -220.48299 C -1192.2602 -220.45784 -1192.0147 -220.43664 -1191.7688 -220.41938 L -1187.2417 -220.1017 C -1186.7058 -220.06409 -1186.1688 -220.04527 -1185.6316 -220.04527 L -1182.3695 -220.04526 C -1181.4158 -220.04526 -1180.463 -220.10458 -1179.5167 -220.22287 L -1175.528 -220.72146 C -1174.868 -220.80396 -1174.212 -220.91504 -1173.5616 -221.0544 L -1167.4796 -222.3577 C -1166.5857 -222.54924 -1165.7041 -222.7939 -1164.8393 -223.0904 L -1160.3305 -224.63628 C -1159.5358 -224.90873 -1158.7567 -225.22451 -1157.9966 -225.5822 L -1153.1632 -227.85674 C -1152.613 -228.11565 -1152.0733 -228.39629 -1151.5454 -228.69798 L -1147.7775 -230.85104 C -1147.0847 -231.24692 -1146.413 -231.67858 -1145.765 -232.14428 L -1141.089 -235.50525 C -1140.5883 -235.8651 -1140.1022 -236.24497 -1139.6321 -236.6439 L -1134.3112 -241.15856 C -1133.9289 -241.48294 -1133.5573 -241.81974 -1133.197 -242.16842 L -1128.4978 -246.71604 C -1127.8582 -247.335 -1127.2551 -247.99056 -1126.6915 -248.67942 L -1122.8982 -253.31566 C -1122.3915 -253.93497 -1121.9174 -254.5803 -1121.478 -255.24904 L -1117.8608 -260.75344 C -1117.6454 -261.08127 -1117.4384 -261.41456 -1117.24 -261.75298 L -1114.7169 -266.05708 C -1114.331 -266.71546 -1113.978 -267.39265 -1113.6594 -268.08612 L -1111.5407 -272.6974 C -1111.0078 -273.85715 -1110.6367 -275.08456 -1110.4376 -276.34526 L -1110.4376 -276.34526 C -1110.2593 -277.47453 -1110.8386 -278.58797 -1111.8657 -279.0901 L -1117.1591 -281.678 C -1118.4736 -282.32063 -1119.7082 -283.11514 -1120.8376 -284.04526 L -1121.2436 -284.37963 C -1122.088 -285.07496 -1122.7114 -286.00126 -1123.0376 -287.04526 L -1123.0376 -287.04526 C -1123.0843 -287.19458 -1123.2431 -287.2778 -1123.3925 -287.23114 C -1123.5075 -287.19518 -1123.5872 -287.0903 -1123.5911 -286.9698 L -1123.7003 -283.5469 C -1123.791 -280.7038 -1124.4084 -277.90224 -1125.521 -275.28433 L -1126.398 -273.22096 C -1126.9565 -271.9067 -1127.6363 -270.6473 -1128.4284 -269.4591 L -1132.1142 -263.93042 C -1132.8617 -262.80915 -1133.7063 -261.75575 -1134.6382 -260.78238 L -1140.9333 -254.20753 C -1141.8014 -253.30087 -1142.7422 -252.4668 -1143.7464 -251.71367 L -1152.1213 -245.4325 C -1152.9977 -244.77518 -1153.92 -244.18133 -1154.881 -243.65546 L -1162.0662 -239.72394 C -1163.3774 -239.00653 -1164.7553 -238.41863 -1166.1805 -237.96857 L -1172.8534 -235.86133 C -1174.5703 -235.31916 -1176.3449 -234.98046 -1178.1407 -234.85219 L -1185.0272 -234.3603 C -1186.0995 -234.2837 -1187.1758 -234.28238 -1188.2483 -234.35635 L -1196.6846 -234.93816 C -1197.7187 -235.00948 -1198.7469 -235.15064 -1199.762 -235.36067 L -1206.8973 -236.83692 C -1208.8492 -237.24077 -1210.7404 -237.89665 -1212.5232 -238.78808 L -1217.1827 -241.11779 C -1218.4168 -241.73485 -1219.5929 -242.46173 -1220.6967 -243.2896 L -1226.3787 -247.55108 C -1226.8178 -247.88043 -1227.245 -248.2254 -1227.6595 -248.58532 L -1233.4147 -253.58324 C -1234.229 -254.29038 -1234.9925 -255.05392 -1235.6996 -255.8682 L -1240.1049 -260.9409 C -1240.859 -261.80925 -1241.5469 -262.73295 -1242.1628 -263.70422 L -1245.8965 -269.59198 C -1246.257 -270.16056 -1246.5925 -270.7447 -1246.9018 -271.34272 L -1248.5222 -274.47544 C -1249.1313 -275.65312 -1249.6375 -276.88126 -1250.035 -278.14615 L -1251.3153 -282.21964 C -1251.53 -282.90302 -1251.7128 -283.59605 -1251.8629 -284.2965 L -1252.0883 -285.34843 C -1252.1734 -285.74544 -1251.947 -286.1431 -1251.5622 -286.27263 L -1251.5622 -286.27263 C -1251.4897 -286.29704 -1251.4112 -286.25805 -1251.3868 -286.18556 C -1251.3687 -286.13205 -1251.385 -286.07296 -1251.4279 -286.0362 Z" stroke="#7f8080" stroke-linecap="round" stroke-linejoin="round" stroke-width="1"/>
      </g>
      <g id="Graphic_7">
        <path d="M -1251.9408 -286.2441 L -1246.5408 -286.8441 L -1239.7408 -283.4441 L -1234.7408 -281.6441 L -1226.3408 -279.8441 L -1217.9408 -278.8441 L -1209.9408 -277.8441 L -1202.3408 -277.6441 L -1193.7408 -277.2441 L -1182.1408 -277.4441 L -1173.7408 -277.8441 L -1164.3408 -278.4441 L -1155.9408 -279.2441 L -1146.7408 -280.6441 L -1138.5408 -282.8441 L -1132.7408 -284.6441 L -1127.1408 -287.2441 L -1124.3408 -286.0441 L -1123.9408 -280.4441 L -1126.7408 -272.4441 L -1132.1408 -269.6441 L -1142.7408 -266.4441 L -1154.1408 -264.0441 L -1165.3408 -263.2441 L -1177.7408 -262.2441 L -1188.1408 -262.2441 L -1197.5408 -262.2441 L -1209.1408 -262.8441 L -1220.3408 -263.6441 L -1230.9408 -265.8441 L -1239.5408 -267.8441 L -1245.7408 -270.6441 L -1247.7408 -272.2441 L -1250.9408 -279.8441 Z" fill="red"/>
        <path d="M -1251.9408 -286.2441 L -1246.5408 -286.8441 L -1239.7408 -283.4441 L -1234.7408 -281.6441 L -1226.3408 -279.8441 L -1217.9408 -278.8441 L -1209.9408 -277.8441 L -1202.3408 -277.6441 L -1193.7408 -277.2441 L -1182.1408 -277.4441 L -1173.7408 -277.8441 L -1164.3408 -278.4441 L -1155.9408 -279.2441 L -1146.7408 -280.6441 L -1138.5408 -282.8441 L -1132.7408 -284.6441 L -1127.1408 -287.2441 L -1124.3408 -286.0441 L -1123.9408 -280.4441 L -1126.7408 -272.4441 L -1132.1408 -269.6441 L -1142.7408 -266.4441 L -1154.1408 -264.0441 L -1165.3408 -263.2441 L -1177.7408 -262.2441 L -1188.1408 -262.2441 L -1197.5408 -262.2441 L -1209.1408 -262.8441 L -1220.3408 -263.6441 L -1230.9408 -265.8441 L -1239.5408 -267.8441 L -1245.7408 -270.6441 L -1247.7408 -272.2441 L -1250.9408 -279.8441 Z" stroke="#7f8080" stroke-linecap="round" stroke-linejoin="round" stroke-width="1"/>
      </g>
      <g id="Graphic_6">
        <path d="M -1322.1868 139.20001 L -1322.1868 139.20001 C -1322.2525 139.72549 -1322.1896 140.25905 -1322.0037 140.7549 L -1321.3527 142.49092 C -1321.176 142.96227 -1320.9489 143.41318 -1320.6754 143.83582 L -1319.7076 145.33153 C -1319.1666 146.16756 -1318.4535 146.87855 -1317.6159 147.41702 L -1316.5378 148.11005 C -1316.2376 148.30307 -1315.923 148.47285 -1315.5968 148.61789 L -1314.28 149.20349 C -1313.6835 149.46876 -1313.0528 149.64928 -1312.4062 149.7398 L -1303.3958 151.00126 C -1303.3858 151.00265 -1303.3758 151.00403 -1303.3658 151.00539 L -1291.6498 152.594 C -1291.6038 152.60024 -1291.5577 152.60601 -1291.5116 152.61134 L -1281.2287 153.79783 C -1281.1968 153.80151 -1281.1648 153.80498 -1281.1328 153.80822 L -1267.4228 155.1991 C -1267.3948 155.20193 -1267.3668 155.2046 -1267.3388 155.2071 L -1256.2335 156.19865 C -1256.1984 156.20179 -1256.1632 156.20466 -1256.128 156.20726 L -1245.4415 156.99886 C -1245.401 157.00185 -1245.3605 157.0045 -1245.32 157.0068 L -1234.812 157.60159 C -1234.7912 157.60276 -1234.7704 157.60404 -1234.7496 157.6054 L -1222.7068 158.3951 C -1222.6228 158.4006 -1222.5387 158.4046 -1222.4546 158.40707 L -1209.0074 158.80257 C -1208.9897 158.8031 -1208.9719 158.80368 -1208.9542 158.80434 L -1198.3103 159.19856 C -1198.224 159.20176 -1198.1376 159.20335 -1198.0512 159.20335 L -1187.4422 159.20335 C -1187.4013 159.20335 -1187.3603 159.20371 -1187.3194 159.20443 L -1176.233 159.39893 C -1176.0649 159.40188 -1175.8968 159.39877 -1175.729 159.38962 L -1165.1077 158.81028 C -1165.0231 158.80566 -1164.9384 158.80258 -1164.8537 158.80104 L -1154.0891 158.60532 C -1154.0169 158.60401 -1153.9447 158.60158 -1153.8726 158.59803 L -1141.8539 158.00695 C -1141.8052 158.00455 -1141.7564 158.00165 -1141.7078 157.99823 L -1130.4677 157.20945 C -1130.4098 157.20539 -1130.3519 157.2006 -1130.294 157.1951 L -1117.8835 156.01313 C -1117.815 156.00661 -1117.7465 156.0011 -1117.6779 155.9966 L -1105.7458 155.21418 C -1105.6358 155.20696 -1105.526 155.19715 -1105.4164 155.18475 L -1095.0041 154.006 C -1094.9886 154.00423 -1094.973 154.00242 -1094.9575 154.00056 L -1085.0098 152.80683 C -1084.9905 152.80451 -1084.9711 152.80211 -1084.9518 152.79963 L -1071.116 151.0221 C -1071.0188 151.0096 -1070.9219 150.99507 -1070.8253 150.97851 L -1064.2718 149.85506 C -1064.0708 149.8206 -1063.8685 149.79495 -1063.6653 149.77817 L -1060.433 149.5112 C -1059.5437 149.43775 -1058.6767 149.19497 -1057.8786 148.79594 L -1056.3924 148.0528 C -1055.7918 147.7525 -1055.2375 147.36735 -1054.7466 146.90919 L -1053.4115 145.66308 C -1052.8047 145.09672 -1052.3493 144.38747 -1052.0868 143.60001 L -1051.792 142.71552 C -1051.7219 142.5053 -1051.6618 142.29187 -1051.612 142.07595 L -1051.1423 140.04056 C -1051.1071 139.88792 -1051.1405 139.72752 -1051.2338 139.60168 L -1051.2338 139.60168 C -1051.3241 139.4798 -1051.4748 139.4183 -1051.6246 139.44214 L -1060.1045 140.79121 C -1060.1553 140.7993 -1060.2061 140.80796 -1060.2568 140.81718 L -1073.2416 143.17805 C -1073.3344 143.19492 -1073.4275 143.20991 -1073.5209 143.22302 L -1084.7506 144.79911 C -1084.7707 144.80194 -1084.7909 144.80486 -1084.811 144.80786 L -1097.9336 146.76645 C -1098.0983 146.79105 -1098.2639 146.80975 -1098.43 146.82253 L -1111.1548 147.80136 C -1111.1721 147.80269 -1111.1895 147.80396 -1111.2068 147.80516 L -1125.5469 148.801 C -1125.5695 148.80257 -1125.5921 148.80403 -1125.6147 148.80538 L -1138.918 149.5996 C -1138.9598 149.6021 -1139.0018 149.60423 -1139.0437 149.60597 L -1153.2352 150.19729 C -1153.3322 150.20133 -1153.4294 150.20335 -1153.5266 150.20335 L -1179.3225 150.20335 C -1179.3614 150.20335 -1179.4002 150.20368 -1179.4391 150.20433 L -1191.1975 150.4003 C -1191.3197 150.40234 -1191.4419 150.40117 -1191.564 150.39681 L -1202.3976 150.0099 C -1202.5197 150.00554 -1202.6419 150.00437 -1202.7641 150.0064 L -1214.4787 150.20165 C -1214.5468 150.20279 -1214.6148 150.20293 -1214.6829 150.20208 L -1230.3852 150.0058 C -1230.5156 150.00417 -1230.6459 149.9989 -1230.776 149.98998 L -1245.0858 149.00986 C -1245.1491 149.00552 -1245.2124 149.00032 -1245.2756 148.99426 L -1259.7666 147.60471 C -1259.776 147.6038 -1259.7855 147.60288 -1259.795 147.60194 L -1273.607 146.22073 C -1273.7228 146.20915 -1273.8384 146.19468 -1273.9535 146.17733 L -1288.2627 144.02116 C -1288.3414 144.00929 -1288.4204 143.99877 -1288.4995 143.9896 L -1302.0194 142.42207 C -1302.127 142.4096 -1302.2343 142.39463 -1302.3411 142.37718 L -1311.7332 140.84377 C -1311.8982 140.81684 -1312.0622 140.784 -1312.2248 140.74532 L -1321.3024 138.58654 C -1321.6908 138.49419 -1322.0804 138.73412 -1322.1728 139.12244 C -1322.1788 139.14802 -1322.1835 139.17392 -1322.1868 139.20001 Z" fill="red"/>
        <path d="M -1322.1868 139.20001 L -1322.1868 139.20001 C -1322.2525 139.72549 -1322.1896 140.25905 -1322.0037 140.7549 L -1321.3527 142.49092 C -1321.176 142.96227 -1320.9489 143.41318 -1320.6754 143.83582 L -1319.7076 145.33153 C -1319.1666 146.16756 -1318.4535 146.87855 -1317.6159 147.41702 L -1316.5378 148.11005 C -1316.2376 148.30307 -1315.923 148.47285 -1315.5968 148.61789 L -1314.28 149.20349 C -1313.6835 149.46876 -1313.0528 149.64928 -1312.4062 149.7398 L -1303.3958 151.00126 C -1303.3858 151.00265 -1303.3758 151.00403 -1303.3658 151.00539 L -1291.6498 152.594 C -1291.6038 152.60024 -1291.5577 152.60601 -1291.5116 152.61134 L -1281.2287 153.79783 C -1281.1968 153.80151 -1281.1648 153.80498 -1281.1328 153.80822 L -1267.4228 155.1991 C -1267.3948 155.20193 -1267.3668 155.2046 -1267.3388 155.2071 L -1256.2335 156.19865 C -1256.1984 156.20179 -1256.1632 156.20466 -1256.128 156.20726 L -1245.4415 156.99886 C -1245.401 157.00185 -1245.3605 157.0045 -1245.32 157.0068 L -1234.812 157.60159 C -1234.7912 157.60276 -1234.7704 157.60404 -1234.7496 157.6054 L -1222.7068 158.3951 C -1222.6228 158.4006 -1222.5387 158.4046 -1222.4546 158.40707 L -1209.0074 158.80257 C -1208.9897 158.8031 -1208.9719 158.80368 -1208.9542 158.80434 L -1198.3103 159.19856 C -1198.224 159.20176 -1198.1376 159.20335 -1198.0512 159.20335 L -1187.4422 159.20335 C -1187.4013 159.20335 -1187.3603 159.20371 -1187.3194 159.20443 L -1176.233 159.39893 C -1176.0649 159.40188 -1175.8968 159.39877 -1175.729 159.38962 L -1165.1077 158.81028 C -1165.0231 158.80566 -1164.9384 158.80258 -1164.8537 158.80104 L -1154.0891 158.60532 C -1154.0169 158.60401 -1153.9447 158.60158 -1153.8726 158.59803 L -1141.8539 158.00695 C -1141.8052 158.00455 -1141.7564 158.00165 -1141.7078 157.99823 L -1130.4677 157.20945 C -1130.4098 157.20539 -1130.3519 157.2006 -1130.294 157.1951 L -1117.8835 156.01313 C -1117.815 156.00661 -1117.7465 156.0011 -1117.6779 155.9966 L -1105.7458 155.21418 C -1105.6358 155.20696 -1105.526 155.19715 -1105.4164 155.18475 L -1095.0041 154.006 C -1094.9886 154.00423 -1094.973 154.00242 -1094.9575 154.00056 L -1085.0098 152.80683 C -1084.9905 152.80451 -1084.9711 152.80211 -1084.9518 152.79963 L -1071.116 151.0221 C -1071.0188 151.0096 -1070.9219 150.99507 -1070.8253 150.97851 L -1064.2718 149.85506 C -1064.0708 149.8206 -1063.8685 149.79495 -1063.6653 149.77817 L -1060.433 149.5112 C -1059.5437 149.43775 -1058.6767 149.19497 -1057.8786 148.79594 L -1056.3924 148.0528 C -1055.7918 147.7525 -1055.2375 147.36735 -1054.7466 146.90919 L -1053.4115 145.66308 C -1052.8047 145.09672 -1052.3493 144.38747 -1052.0868 143.60001 L -1051.792 142.71552 C -1051.7219 142.5053 -1051.6618 142.29187 -1051.612 142.07595 L -1051.1423 140.04056 C -1051.1071 139.88792 -1051.1405 139.72752 -1051.2338 139.60168 L -1051.2338 139.60168 C -1051.3241 139.4798 -1051.4748 139.4183 -1051.6246 139.44214 L -1060.1045 140.79121 C -1060.1553 140.7993 -1060.2061 140.80796 -1060.2568 140.81718 L -1073.2416 143.17805 C -1073.3344 143.19492 -1073.4275 143.20991 -1073.5209 143.22302 L -1084.7506 144.79911 C -1084.7707 144.80194 -1084.7909 144.80486 -1084.811 144.80786 L -1097.9336 146.76645 C -1098.0983 146.79105 -1098.2639 146.80975 -1098.43 146.82253 L -1111.1548 147.80136 C -1111.1721 147.80269 -1111.1895 147.80396 -1111.2068 147.80516 L -1125.5469 148.801 C -1125.5695 148.80257 -1125.5921 148.80403 -1125.6147 148.80538 L -1138.918 149.5996 C -1138.9598 149.6021 -1139.0018 149.60423 -1139.0437 149.60597 L -1153.2352 150.19729 C -1153.3322 150.20133 -1153.4294 150.20335 -1153.5266 150.20335 L -1179.3225 150.20335 C -1179.3614 150.20335 -1179.4002 150.20368 -1179.4391 150.20433 L -1191.1975 150.4003 C -1191.3197 150.40234 -1191.4419 150.40117 -1191.564 150.39681 L -1202.3976 150.0099 C -1202.5197 150.00554 -1202.6419 150.00437 -1202.7641 150.0064 L -1214.4787 150.20165 C -1214.5468 150.20279 -1214.6148 150.20293 -1214.6829 150.20208 L -1230.3852 150.0058 C -1230.5156 150.00417 -1230.6459 149.9989 -1230.776 149.98998 L -1245.0858 149.00986 C -1245.1491 149.00552 -1245.2124 149.00032 -1245.2756 148.99426 L -1259.7666 147.60471 C -1259.776 147.6038 -1259.7855 147.60288 -1259.795 147.60194 L -1273.607 146.22073 C -1273.7228 146.20915 -1273.8384 146.19468 -1273.9535 146.17733 L -1288.2627 144.02116 C -1288.3414 144.00929 -1288.4204 143.99877 -1288.4995 143.9896 L -1302.0194 142.42207 C -1302.127 142.4096 -1302.2343 142.39463 -1302.3411 142.37718 L -1311.7332 140.84377 C -1311.8982 140.81684 -1312.0622 140.784 -1312.2248 140.74532 L -1321.3024 138.58654 C -1321.6908 138.49419 -1322.0804 138.73412 -1322.1728 139.12244 C -1322.1788 139.14802 -1322.1835 139.17392 -1322.1868 139.20001 Z" stroke="#7f8080" stroke-linecap="round" stroke-linejoin="round" stroke-width="1"/>
      </g>
      <g id="Graphic_5">
        <path d="M -1060.6 43 L -1059.4 62.6 L -1057.4 84.8 L -1056.4 98.2 L -1316.8 98.4 L -1315.5 83 L -1314 66 L -1312.4 43 Z" fill="red"/>
        <path d="M -1060.6 43 L -1059.4 62.6 L -1057.4 84.8 L -1056.4 98.2 L -1316.8 98.4 L -1315.5 83 L -1314 66 L -1312.4 43 Z" stroke="#7f8080" stroke-linecap="round" stroke-linejoin="round" stroke-width="1"/>
      </g>
      <g id="Graphic_4">
        <path d="M -1308.4 -67.4 L -1065 -67.4 L -1064.4939 -50.00695 L -1063.5 -26.416443 L -1063.8 -12.2 L -1309.4 -12 L -1308.6 -35.6 L -1308.2 -53.6 Z" fill="red"/>
        <path d="M -1308.4 -67.4 L -1065 -67.4 L -1064.4939 -50.00695 L -1063.5 -26.416443 L -1063.8 -12.2 L -1309.4 -12 L -1308.6 -35.6 L -1308.2 -53.6 Z" stroke="#7f8080" stroke-linecap="round" stroke-linejoin="round" stroke-width="1"/>
      </g>
      <g id="Graphic_3">
        <path d="M -1320.8 -190.4 L -1052.2 -190.6 L -1055.8 -176 L -1058 -164 L -1060.5 -149.5 L -1062 -138.5 L -1062 -128.6 L -1311 -128.5 L -1311 -137.5 L -1311.5 -147 L -1313 -159 L -1314.5 -166.5 L -1317.5 -178 L -1318.5 -184 Z" fill="red"/>
        <path d="M -1320.8 -190.4 L -1052.2 -190.6 L -1055.8 -176 L -1058 -164 L -1060.5 -149.5 L -1062 -138.5 L -1062 -128.6 L -1311 -128.5 L -1311 -137.5 L -1311.5 -147 L -1313 -159 L -1314.5 -166.5 L -1317.5 -178 L -1318.5 -184 Z" stroke="#7f8080" stroke-linecap="round" stroke-linejoin="round" stroke-width="1"/>
      </g>
    </g>
  </g>
</svg>
