<?xml version="1.0" encoding="UTF-8" standalone="no"?>
<!DOCTYPE svg PUBLIC "-//W3C//DTD SVG 1.1//EN" "http://www.w3.org/Graphics/SVG/1.1/DTD/svg11.dtd">
<svg xmlns:xl="http://www.w3.org/1999/xlink" xmlns:dc="http://purl.org/dc/elements/1.1/" xmlns="http://www.w3.org/2000/svg" version="1.1" viewBox="-73 463 435 450" width="435" height="450">
  <defs>
    <radialGradient cx="0" cy="0" r="1" id="Gradient" gradientUnits="userSpaceOnUse">
      <stop offset="0" stop-color="#ff00fd"/>
      <stop offset=".4338305" stop-color="#a0289c"/>
      <stop offset="1" stop-color="#212121"/>
    </radialGradient>
    <radialGradient id="Obj_Gradient" xl:href="#Gradient" gradientTransform="translate(142.75925 491.4) scale(70.26272)"/>
    <radialGradient id="Obj_Gradient_2" xl:href="#Gradient" gradientTransform="translate(143.75925 492.4) scale(70.26272)"/>
  </defs>
  <metadata> Produced by OmniGraffle 7.19.2\n2023-12-06 01:13:20 +0000</metadata>
  <g id="Canvas_140" stroke-opacity="1" fill-opacity="1" stroke-dasharray="none" fill="none" stroke="none">
    <title>Canvas 140</title>
    <g id="Canvas_140_Layer_1">
      <title>Layer 1</title>
      <g id="Graphic_11">
        <path d="M 81.00565 464.59045 L 89.17111 467.70816 C 90.0291 468.03576 90.90594 468.3117 91.79692 468.5344 L 105.5141 471.9637 C 106.67576 472.2541 107.85832 472.4534 109.051 472.55966 L 126.57715 474.1214 C 127.165 474.1738 127.75464 474.2035 128.34478 474.21054 L 143.8237 474.3948 C 144.11404 474.39827 144.40442 474.39623 144.69469 474.3887 L 159.118 474.01406 C 159.47878 474.0047 159.8393 473.9868 160.19924 473.9605 L 174.57053 472.90893 C 175.56197 472.8364 176.54766 472.69964 177.5214 472.49956 L 189.09436 470.12155 C 190.13637 469.90744 191.16226 469.6213 192.16465 469.2652 L 203.91664 465.09014 C 205.00702 464.70277 206.21021 465.23354 206.65925 466.3 L 206.65925 466.3 C 207.1814 467.5401 207.33338 468.90485 207.09685 470.22945 L 206.91637 471.24014 C 206.6126 472.9413 206.11806 474.6028 205.44214 476.1932 L 203.89892 479.8243 C 203.34035 481.1386 202.6606 482.398 201.86846 483.5862 L 198.18268 489.11485 C 197.43517 490.2361 196.59057 491.2895 195.6586 492.2629 L 189.36354 498.83774 C 188.49547 499.7444 187.55463 500.57846 186.55046 501.3316 L 178.17555 507.6128 C 177.29914 508.2701 176.37688 508.86394 175.41582 509.3898 L 168.23062 513.3213 C 166.9195 514.03874 165.54156 514.62664 164.11638 515.0767 L 157.44347 517.18393 C 155.7266 517.7261 153.952 518.0648 152.15613 518.1931 L 145.26968 518.685 C 144.19738 518.76156 143.12103 518.7629 142.04854 518.6889 L 133.61229 518.1071 C 132.57811 518.0358 131.54994 517.8946 130.5348 517.6846 L 123.3996 516.20835 C 121.44765 515.8045 119.55647 515.1486 117.77362 514.2572 L 113.11421 511.9275 C 111.88007 511.3104 110.70397 510.58354 109.60012 509.75566 L 103.91816 505.4942 C 103.47903 505.16483 103.05182 504.81987 102.63737 504.45995 L 96.88219 499.462 C 96.0679 498.7549 95.30436 497.99135 94.59722 497.17706 L 90.192 492.1044 C 89.43789 491.236 88.74998 490.3123 88.13406 489.34105 L 84.40036 483.4533 C 84.03979 482.8847 83.70437 482.30056 83.39505 481.70255 L 81.774675 478.5698 C 81.16553 477.39215 80.65936 476.164 80.26183 474.8991 L 78.98159 470.8256 C 78.76681 470.14225 78.58408 469.4492 78.43399 468.7488 L 78.35925 468.4 C 78.164585 467.4916 78.27185 466.54443 78.66473 465.70254 L 78.75925 465.5 C 79.15372 464.6547 80.134195 464.2577 81.00565 464.59045 Z" fill="url(#Obj_Gradient)"/>
        <path d="M 81.00565 464.59045 L 89.17111 467.70816 C 90.0291 468.03576 90.90594 468.3117 91.79692 468.5344 L 105.5141 471.9637 C 106.67576 472.2541 107.85832 472.4534 109.051 472.55966 L 126.57715 474.1214 C 127.165 474.1738 127.75464 474.2035 128.34478 474.21054 L 143.8237 474.3948 C 144.11404 474.39827 144.40442 474.39623 144.69469 474.3887 L 159.118 474.01406 C 159.47878 474.0047 159.8393 473.9868 160.19924 473.9605 L 174.57053 472.90893 C 175.56197 472.8364 176.54766 472.69964 177.5214 472.49956 L 189.09436 470.12155 C 190.13637 469.90744 191.16226 469.6213 192.16465 469.2652 L 203.91664 465.09014 C 205.00702 464.70277 206.21021 465.23354 206.65925 466.3 L 206.65925 466.3 C 207.1814 467.5401 207.33338 468.90485 207.09685 470.22945 L 206.91637 471.24014 C 206.6126 472.9413 206.11806 474.6028 205.44214 476.1932 L 203.89892 479.8243 C 203.34035 481.1386 202.6606 482.398 201.86846 483.5862 L 198.18268 489.11485 C 197.43517 490.2361 196.59057 491.2895 195.6586 492.2629 L 189.36354 498.83774 C 188.49547 499.7444 187.55463 500.57846 186.55046 501.3316 L 178.17555 507.6128 C 177.29914 508.2701 176.37688 508.86394 175.41582 509.3898 L 168.23062 513.3213 C 166.9195 514.03874 165.54156 514.62664 164.11638 515.0767 L 157.44347 517.18393 C 155.7266 517.7261 153.952 518.0648 152.15613 518.1931 L 145.26968 518.685 C 144.19738 518.76156 143.12103 518.7629 142.04854 518.6889 L 133.61229 518.1071 C 132.57811 518.0358 131.54994 517.8946 130.5348 517.6846 L 123.3996 516.20835 C 121.44765 515.8045 119.55647 515.1486 117.77362 514.2572 L 113.11421 511.9275 C 111.88007 511.3104 110.70397 510.58354 109.60012 509.75566 L 103.91816 505.4942 C 103.47903 505.16483 103.05182 504.81987 102.63737 504.45995 L 96.88219 499.462 C 96.0679 498.7549 95.30436 497.99135 94.59722 497.17706 L 90.192 492.1044 C 89.43789 491.236 88.74998 490.3123 88.13406 489.34105 L 84.40036 483.4533 C 84.03979 482.8847 83.70437 482.30056 83.39505 481.70255 L 81.774675 478.5698 C 81.16553 477.39215 80.65936 476.164 80.26183 474.8991 L 78.98159 470.8256 C 78.76681 470.14225 78.58408 469.4492 78.43399 468.7488 L 78.35925 468.4 C 78.164585 467.4916 78.27185 466.54443 78.66473 465.70254 L 78.75925 465.5 C 79.15372 464.6547 80.134195 464.2577 81.00565 464.59045 Z" stroke="#7f8080" stroke-linecap="round" stroke-linejoin="round" stroke-width="1"/>
      </g>
      <g id="Graphic_10">
        <path d="M 16.973455 901.2638 L 30.715696 903.5542 C 30.899072 903.5847 31.082968 903.6121 31.2673 903.6362 L 59.62094 907.3515 C 59.86747 907.3838 60.114715 907.4104 60.36248 907.4312 L 90.60537 909.9677 C 90.86227 909.9892 91.11966 910.0046 91.37731 910.0137 L 130.30822 911.39 C 130.49658 911.3967 130.68504 911.4 130.87352 911.4 L 162.34084 911.4 C 162.50746 911.4 162.67407 911.3974 162.8406 911.3922 L 187.87539 910.6099 C 188.08563 910.6033 188.29573 910.5926 188.50555 910.5777 L 210.5533 909.0168 C 210.71161 909.0056 210.86975 908.992 211.02766 908.9761 L 236.28815 906.4305 C 236.4899 906.4102 236.69122 906.386 236.89204 906.358 L 260.68474 903.0427 C 260.88875 903.0142 261.0922 902.9819 261.29496 902.9456 L 270.4908 901.3 C 275.8179 900.3467 279.46876 895.3931 278.80234 890.0226 L 276.59475 872.232 C 276.5921 872.2107 276.5895 872.1893 276.58695 872.168 L 273.02312 842.4695 C 273.00157 842.2898 272.98306 842.1099 272.9676 841.9296 L 270.6054 814.3704 C 270.59565 814.2568 270.58713 814.1431 270.57983 814.0294 L 269.1932 792.4377 C 269.1916 792.4126 269.18992 792.3874 269.1882 792.3623 L 267.59603 769.276 C 267.59253 769.2253 267.58928 769.1747 267.58627 769.124 L 266.4099 749.3218 C 266.39716 749.1073 266.38874 748.89255 266.38465 748.6777 L 265.99236 728.08285 C 265.9913 728.0276 265.98997 727.9724 265.98835 727.9172 L 265.39322 707.6828 C 265.3916 707.6276 265.39026 707.5724 265.3892 707.51715 L 264.99855 687.0076 C 264.99337 686.7359 264.99512 686.4641 265.0038 686.1925 L 265.58973 667.8329 C 265.59044 667.811 265.59118 667.789 265.59197 667.7671 L 266.38005 645.8978 C 266.3872 645.6993 266.39806 645.5009 266.4126 645.3028 L 267.97007 624.0822 C 267.98388 623.8941 267.99436 623.7057 268.0015 623.51724 L 268.75596 603.6184 C 268.77915 603.0066 268.83744 602.3967 268.93052 601.79165 L 271.66953 583.9881 C 271.7503 583.46304 271.8572 582.9423 271.9898 582.4278 L 276.61806 564.4702 C 276.73316 564.0236 276.8675 563.5822 277.02073 563.14725 L 282.7415 546.9076 C 282.9076 546.4361 283.0957 545.9727 283.30517 545.5188 L 288.83673 533.5338 C 288.93942 533.3113 289.0472 533.0912 289.16 532.87364 L 294.52223 522.5322 C 294.56793 522.4441 294.61446 522.35636 294.6618 522.2691 L 299.87777 512.6521 C 300.61505 511.29276 301.56468 510.05987 302.6908 509 L 302.6908 509 C 303.36598 508.3645 303.39817 507.302 302.7627 506.62684 C 302.6382 506.49456 302.49307 506.38337 302.33295 506.2976 L 299.1188 504.5757 C 298.90016 504.4586 298.6788 504.34656 298.45494 504.2397 L 290.60097 500.4912 C 290.19436 500.29716 289.77974 500.12036 289.3582 499.9613 L 279.68338 496.3104 C 279.48833 496.2368 279.29187 496.16703 279.0941 496.1011 L 266.39963 491.8696 C 266.2604 491.8232 266.12055 491.7787 265.9801 491.73616 L 253.09658 487.83206 C 253.02605 487.8107 252.95567 487.7888 252.88544 487.7665 L 240.38144 483.78794 C 239.98782 483.6627 239.5992 483.52225 239.21643 483.36693 L 227.2405 478.5071 C 226.40883 478.16964 225.60704 477.7628 224.8436 477.29083 L 215.22436 471.3444 C 215.06865 471.24814 214.91461 471.1492 214.7623 471.0477 L 209.8722 467.7876 C 208.89081 467.13335 208.0195 466.32745 207.29078 465.4 L 207.29078 465.4 C 207.18518 465.2656 206.99062 465.24225 206.8562 465.34785 C 206.75347 465.4286 206.7125 465.5651 206.7538 465.6891 L 206.89078 466.1 C 207.35003 467.47775 207.4546 468.94904 207.1948 470.3779 L 206.79967 472.55115 C 206.52845 474.0428 206.0466 475.48835 205.36858 476.8444 L 203.83626 479.90904 C 203.53956 480.50244 203.20624 481.0768 202.83823 481.6288 L 199.63453 486.4344 C 199.20593 487.0773 198.73132 487.6883 198.21443 488.2626 L 193.65238 493.33156 C 193.61132 493.3772 193.57 493.4226 193.5284 493.46773 L 187.53417 499.97576 C 186.90643 500.6573 186.22068 501.283 185.48465 501.8459 L 180.46047 505.6879 C 180.01432 506.02906 179.55052 506.3465 179.07099 506.6389 L 172.58458 510.594 C 171.92292 510.9975 171.23283 511.3523 170.51975 511.65576 L 163.40434 514.6836 C 162.59667 515.0273 161.7621 515.3039 160.90905 515.5107 L 156.83 516.4996 C 156.00516 516.69955 155.16573 516.83356 154.31963 516.90035 L 148.61943 517.3504 C 148.2005 517.38344 147.78042 517.4 147.36019 517.4 L 140.32787 517.4 C 139.57077 517.4 138.81462 517.34626 138.06513 517.2392 L 130.11868 516.104 C 129.63367 516.0347 129.1521 515.9432 128.6755 515.8297 L 122.71426 514.41035 C 121.56878 514.1376 120.4569 513.73927 119.39883 513.22253 L 113.11882 510.15556 C 112.63377 509.9187 112.16102 509.6574 111.70238 509.3727 L 107.49052 506.75846 C 106.89135 506.38656 106.31742 505.97546 105.7725 505.52784 L 101.32639 501.8757 C 101.10269 501.6919 100.88402 501.50214 100.67063 501.3065 L 96.86828 497.82104 C 96.41699 497.40736 95.98981 496.9681 95.58885 496.50546 L 91.47011 491.75307 C 91.15072 491.38455 90.84836 491.0016 90.56395 490.6055 L 86.1343 484.4356 C 85.6394 483.7463 85.20013 483.0187 84.82064 482.2597 L 82.24418 477.1068 C 82.20858 477.0356 82.17352 476.96414 82.13899 476.8924 L 80.89078 474.3 C 80.04007 472.53313 79.68455 470.5686 79.86209 468.61564 L 80.04229 466.6334 C 80.0661 466.3715 79.87312 466.13994 79.61125 466.11614 C 79.44886 466.1014 79.290205 466.17075 79.19078 466.3 L 79.19078 466.3 C 78.52734 467.1625 77.74723 467.92856 76.87285 468.57625 L 72.97632 471.46257 C 72.85263 471.5542 72.727635 471.644 72.60136 471.732 L 67.97911 474.9536 C 66.79237 475.7807 65.49895 476.4431 64.1342 476.9226 L 59.527076 478.5413 C 59.036505 478.71367 58.55463 478.90984 58.08316 479.1291 L 51.23638 482.3137 C 50.54022 482.6375 49.82165 482.91074 49.08625 483.13136 L 38.215864 486.3925 C 38.199143 486.3975 38.18243 486.40254 38.165724 486.4076 L 27.197637 489.7372 C 27.05974 489.77907 26.922414 489.8228 26.785698 489.86836 L 13.864464 494.17544 C 13.815343 494.1918 13.766142 494.20795 13.716864 494.22384 L 2.3494575 497.89075 C 1.710972 498.0967 1.0860728 498.34263 .4784603 498.62704 L -7.453505 502.3399 C -7.823845 502.5132 -8.187403 502.7007 -8.543379 502.9019 L -14.489494 506.26276 C -15.742528 506.971 -16.184173 508.5609 -15.475937 509.81396 C -15.39882 509.9504 -15.309552 510.0796 -15.209219 510.2 L -14.345108 511.23693 C -13.590163 512.14287 -12.937686 513.1295 -12.399569 514.1788 L -9.322431 520.17924 C -9.246961 520.3264 -9.169213 520.4724 -9.089216 520.61715 L -5.1344636 527.77337 C -5.0509725 527.92445 -4.969932 528.07687 -4.891373 528.23057 L -.7830686 536.26856 C -.5339994 536.75587 -.3100964 537.25563 -.1122426 537.7659 L 3.3705264 546.74776 C 3.3840296 546.7826 3.3976547 546.81737 3.4114015 546.8521 L 7.007724 555.93754 C 7.129733 556.2458 7.242133 556.5577 7.344761 556.87294 L 9.966596 564.9257 C 9.982719 564.97524 9.998601 565.02484 10.014241 565.0745 L 13.086289 574.8328 C 13.28908 575.47695 13.450886 576.1333 13.570733 576.7979 L 15.556045 587.8074 C 15.579202 587.9358 15.600787 588.0645 15.620795 588.1934 L 17.326665 599.1868 C 17.369402 599.4622 17.404935 599.7387 17.433229 600.016 L 18.320649 608.7127 C 18.367382 609.1707 18.394327 609.6305 18.40141 610.0908 L 18.58565 622.0664 C 18.58907 622.2888 18.597127 622.51105 18.609815 622.7331 L 19.38019 636.21465 C 19.38725 636.3382 19.395745 636.4617 19.405671 636.58506 L 20.739241 653.1594 C 20.773588 653.5863 20.790782 654.0144 20.790782 654.44264 L 20.790782 666.8924 C 20.790782 667.09746 20.794723 667.3025 20.802603 667.50735 L 21.382954 682.5965 C 21.388172 682.7322 21.391663 682.8679 21.393426 683.00365 L 21.585585 697.7999 C 21.58905 698.0666 21.585843 698.3333 21.575972 698.5999 L 21.001744 714.104 C 20.994436 714.3013 20.990782 714.49875 20.990782 714.6962 L 20.990782 728.2924 C 20.990782 728.4975 20.98684 728.7025 20.97896 728.90736 L 20.393768 744.1224 C 20.391777 744.1741 20.389535 744.2259 20.38704 744.2776 L 19.59172 760.78055 C 19.591094 760.7935 19.590453 760.8065 19.589797 760.81945 L 18.795307 776.5106 C 18.79229 776.5702 18.78894 776.6298 18.785256 776.6893 L 17.596345 795.9101 C 17.592636 795.97 17.58859 796.03 17.584206 796.0899 L 15.801068 820.4594 C 15.79421 820.5531 15.786527 820.6468 15.77802 820.7404 L 13.992128 840.3852 C 13.99123 840.3951 13.990324 840.4049 13.989408 840.4148 L 12.218643 859.4997 C 12.20007 859.6999 12.177726 859.8997 12.151623 860.099 L 10.19091 875.0717 C 10.058099 876.0859 9.788958 877.0776 9.390781 878.0197 L 9.390781 878.0197 C 8.993206 878.9605 8.744538 879.9574 8.653714 880.9747 L 7.890781 889.5197 C 7.383025 895.2068 11.34149 900.3251 16.973455 901.2638 Z" fill="#ff00fd"/>
        <path d="M 16.973455 901.2638 L 30.715696 903.5542 C 30.899072 903.5847 31.082968 903.6121 31.2673 903.6362 L 59.62094 907.3515 C 59.86747 907.3838 60.114715 907.4104 60.36248 907.4312 L 90.60537 909.9677 C 90.86227 909.9892 91.11966 910.0046 91.37731 910.0137 L 130.30822 911.39 C 130.49658 911.3967 130.68504 911.4 130.87352 911.4 L 162.34084 911.4 C 162.50746 911.4 162.67407 911.3974 162.8406 911.3922 L 187.87539 910.6099 C 188.08563 910.6033 188.29573 910.5926 188.50555 910.5777 L 210.5533 909.0168 C 210.71161 909.0056 210.86975 908.992 211.02766 908.9761 L 236.28815 906.4305 C 236.4899 906.4102 236.69122 906.386 236.89204 906.358 L 260.68474 903.0427 C 260.88875 903.0142 261.0922 902.9819 261.29496 902.9456 L 270.4908 901.3 C 275.8179 900.3467 279.46876 895.3931 278.80234 890.0226 L 276.59475 872.232 C 276.5921 872.2107 276.5895 872.1893 276.58695 872.168 L 273.02312 842.4695 C 273.00157 842.2898 272.98306 842.1099 272.9676 841.9296 L 270.6054 814.3704 C 270.59565 814.2568 270.58713 814.1431 270.57983 814.0294 L 269.1932 792.4377 C 269.1916 792.4126 269.18992 792.3874 269.1882 792.3623 L 267.59603 769.276 C 267.59253 769.2253 267.58928 769.1747 267.58627 769.124 L 266.4099 749.3218 C 266.39716 749.1073 266.38874 748.89255 266.38465 748.6777 L 265.99236 728.08285 C 265.9913 728.0276 265.98997 727.9724 265.98835 727.9172 L 265.39322 707.6828 C 265.3916 707.6276 265.39026 707.5724 265.3892 707.51715 L 264.99855 687.0076 C 264.99337 686.7359 264.99512 686.4641 265.0038 686.1925 L 265.58973 667.8329 C 265.59044 667.811 265.59118 667.789 265.59197 667.7671 L 266.38005 645.8978 C 266.3872 645.6993 266.39806 645.5009 266.4126 645.3028 L 267.97007 624.0822 C 267.98388 623.8941 267.99436 623.7057 268.0015 623.51724 L 268.75596 603.6184 C 268.77915 603.0066 268.83744 602.3967 268.93052 601.79165 L 271.66953 583.9881 C 271.7503 583.46304 271.8572 582.9423 271.9898 582.4278 L 276.61806 564.4702 C 276.73316 564.0236 276.8675 563.5822 277.02073 563.14725 L 282.7415 546.9076 C 282.9076 546.4361 283.0957 545.9727 283.30517 545.5188 L 288.83673 533.5338 C 288.93942 533.3113 289.0472 533.0912 289.16 532.87364 L 294.52223 522.5322 C 294.56793 522.4441 294.61446 522.35636 294.6618 522.2691 L 299.87777 512.6521 C 300.61505 511.29276 301.56468 510.05987 302.6908 509 L 302.6908 509 C 303.36598 508.3645 303.39817 507.302 302.7627 506.62684 C 302.6382 506.49456 302.49307 506.38337 302.33295 506.2976 L 299.1188 504.5757 C 298.90016 504.4586 298.6788 504.34656 298.45494 504.2397 L 290.60097 500.4912 C 290.19436 500.29716 289.77974 500.12036 289.3582 499.9613 L 279.68338 496.3104 C 279.48833 496.2368 279.29187 496.16703 279.0941 496.1011 L 266.39963 491.8696 C 266.2604 491.8232 266.12055 491.7787 265.9801 491.73616 L 253.09658 487.83206 C 253.02605 487.8107 252.95567 487.7888 252.88544 487.7665 L 240.38144 483.78794 C 239.98782 483.6627 239.5992 483.52225 239.21643 483.36693 L 227.2405 478.5071 C 226.40883 478.16964 225.60704 477.7628 224.8436 477.29083 L 215.22436 471.3444 C 215.06865 471.24814 214.91461 471.1492 214.7623 471.0477 L 209.8722 467.7876 C 208.89081 467.13335 208.0195 466.32745 207.29078 465.4 L 207.29078 465.4 C 207.18518 465.2656 206.99062 465.24225 206.8562 465.34785 C 206.75347 465.4286 206.7125 465.5651 206.7538 465.6891 L 206.89078 466.1 C 207.35003 467.47775 207.4546 468.94904 207.1948 470.3779 L 206.79967 472.55115 C 206.52845 474.0428 206.0466 475.48835 205.36858 476.8444 L 203.83626 479.90904 C 203.53956 480.50244 203.20624 481.0768 202.83823 481.6288 L 199.63453 486.4344 C 199.20593 487.0773 198.73132 487.6883 198.21443 488.2626 L 193.65238 493.33156 C 193.61132 493.3772 193.57 493.4226 193.5284 493.46773 L 187.53417 499.97576 C 186.90643 500.6573 186.22068 501.283 185.48465 501.8459 L 180.46047 505.6879 C 180.01432 506.02906 179.55052 506.3465 179.07099 506.6389 L 172.58458 510.594 C 171.92292 510.9975 171.23283 511.3523 170.51975 511.65576 L 163.40434 514.6836 C 162.59667 515.0273 161.7621 515.3039 160.90905 515.5107 L 156.83 516.4996 C 156.00516 516.69955 155.16573 516.83356 154.31963 516.90035 L 148.61943 517.3504 C 148.2005 517.38344 147.78042 517.4 147.36019 517.4 L 140.32787 517.4 C 139.57077 517.4 138.81462 517.34626 138.06513 517.2392 L 130.11868 516.104 C 129.63367 516.0347 129.1521 515.9432 128.6755 515.8297 L 122.71426 514.41035 C 121.56878 514.1376 120.4569 513.73927 119.39883 513.22253 L 113.11882 510.15556 C 112.63377 509.9187 112.16102 509.6574 111.70238 509.3727 L 107.49052 506.75846 C 106.89135 506.38656 106.31742 505.97546 105.7725 505.52784 L 101.32639 501.8757 C 101.10269 501.6919 100.88402 501.50214 100.67063 501.3065 L 96.86828 497.82104 C 96.41699 497.40736 95.98981 496.9681 95.58885 496.50546 L 91.47011 491.75307 C 91.15072 491.38455 90.84836 491.0016 90.56395 490.6055 L 86.1343 484.4356 C 85.6394 483.7463 85.20013 483.0187 84.82064 482.2597 L 82.24418 477.1068 C 82.20858 477.0356 82.17352 476.96414 82.13899 476.8924 L 80.89078 474.3 C 80.04007 472.53313 79.68455 470.5686 79.86209 468.61564 L 80.04229 466.6334 C 80.0661 466.3715 79.87312 466.13994 79.61125 466.11614 C 79.44886 466.1014 79.290205 466.17075 79.19078 466.3 L 79.19078 466.3 C 78.52734 467.1625 77.74723 467.92856 76.87285 468.57625 L 72.97632 471.46257 C 72.85263 471.5542 72.727635 471.644 72.60136 471.732 L 67.97911 474.9536 C 66.79237 475.7807 65.49895 476.4431 64.1342 476.9226 L 59.527076 478.5413 C 59.036505 478.71367 58.55463 478.90984 58.08316 479.1291 L 51.23638 482.3137 C 50.54022 482.6375 49.82165 482.91074 49.08625 483.13136 L 38.215864 486.3925 C 38.199143 486.3975 38.18243 486.40254 38.165724 486.4076 L 27.197637 489.7372 C 27.05974 489.77907 26.922414 489.8228 26.785698 489.86836 L 13.864464 494.17544 C 13.815343 494.1918 13.766142 494.20795 13.716864 494.22384 L 2.3494575 497.89075 C 1.710972 498.0967 1.0860728 498.34263 .4784603 498.62704 L -7.453505 502.3399 C -7.823845 502.5132 -8.187403 502.7007 -8.543379 502.9019 L -14.489494 506.26276 C -15.742528 506.971 -16.184173 508.5609 -15.475937 509.81396 C -15.39882 509.9504 -15.309552 510.0796 -15.209219 510.2 L -14.345108 511.23693 C -13.590163 512.14287 -12.937686 513.1295 -12.399569 514.1788 L -9.322431 520.17924 C -9.246961 520.3264 -9.169213 520.4724 -9.089216 520.61715 L -5.1344636 527.77337 C -5.0509725 527.92445 -4.969932 528.07687 -4.891373 528.23057 L -.7830686 536.26856 C -.5339994 536.75587 -.3100964 537.25563 -.1122426 537.7659 L 3.3705264 546.74776 C 3.3840296 546.7826 3.3976547 546.81737 3.4114015 546.8521 L 7.007724 555.93754 C 7.129733 556.2458 7.242133 556.5577 7.344761 556.87294 L 9.966596 564.9257 C 9.982719 564.97524 9.998601 565.02484 10.014241 565.0745 L 13.086289 574.8328 C 13.28908 575.47695 13.450886 576.1333 13.570733 576.7979 L 15.556045 587.8074 C 15.579202 587.9358 15.600787 588.0645 15.620795 588.1934 L 17.326665 599.1868 C 17.369402 599.4622 17.404935 599.7387 17.433229 600.016 L 18.320649 608.7127 C 18.367382 609.1707 18.394327 609.6305 18.40141 610.0908 L 18.58565 622.0664 C 18.58907 622.2888 18.597127 622.51105 18.609815 622.7331 L 19.38019 636.21465 C 19.38725 636.3382 19.395745 636.4617 19.405671 636.58506 L 20.739241 653.1594 C 20.773588 653.5863 20.790782 654.0144 20.790782 654.44264 L 20.790782 666.8924 C 20.790782 667.09746 20.794723 667.3025 20.802603 667.50735 L 21.382954 682.5965 C 21.388172 682.7322 21.391663 682.8679 21.393426 683.00365 L 21.585585 697.7999 C 21.58905 698.0666 21.585843 698.3333 21.575972 698.5999 L 21.001744 714.104 C 20.994436 714.3013 20.990782 714.49875 20.990782 714.6962 L 20.990782 728.2924 C 20.990782 728.4975 20.98684 728.7025 20.97896 728.90736 L 20.393768 744.1224 C 20.391777 744.1741 20.389535 744.2259 20.38704 744.2776 L 19.59172 760.78055 C 19.591094 760.7935 19.590453 760.8065 19.589797 760.81945 L 18.795307 776.5106 C 18.79229 776.5702 18.78894 776.6298 18.785256 776.6893 L 17.596345 795.9101 C 17.592636 795.97 17.58859 796.03 17.584206 796.0899 L 15.801068 820.4594 C 15.79421 820.5531 15.786527 820.6468 15.77802 820.7404 L 13.992128 840.3852 C 13.99123 840.3951 13.990324 840.4049 13.989408 840.4148 L 12.218643 859.4997 C 12.20007 859.6999 12.177726 859.8997 12.151623 860.099 L 10.19091 875.0717 C 10.058099 876.0859 9.788958 877.0776 9.390781 878.0197 L 9.390781 878.0197 C 8.993206 878.9605 8.744538 879.9574 8.653714 880.9747 L 7.890781 889.5197 C 7.383025 895.2068 11.34149 900.3251 16.973455 901.2638 Z" stroke="#7f8080" stroke-linecap="round" stroke-linejoin="round" stroke-width="1"/>
      </g>
      <g id="Graphic_9">
        <path d="M -72 615.44615 L -65.8 619.84615 L -57.6 623.84615 L -49 627.44615 L -40 631.24615 L -29 635.24615 L -19.6 638.04615 L -10.599999 640.64615 L -1.599999 643.24615 L 3.800001 644.64615 L 9.400001 645.64615 L 11.800001 639.84615 L 14.400001 634.44615 L 16.600001 630.44615 L 19.200001 627.04615 L 19.400001 618.04615 L 18.800001 607.04615 L 17.000001 596.24615 L 15.400001 585.84615 L 12.800001 574.84614 L 10.400001 565.24614 L 7.600001 557.24614 L 4.400001 547.84614 L 1.6000011 540.44614 L -1.999999 532.84614 L -5.999999 525.24614 L -9.999999 517.84614 L -12.599999 514.24614 L -16.2 508.44614 L -21.6 512.84614 L -26.4 517.64614 L -31 523.84614 L -35.4 530.04614 L -40.2 538.64614 L -45 548.04614 L -49.8 557.24614 L -53.4 565.84614 L -57.4 574.84614 L -60.6 583.04615 L -64.4 592.44615 L -67.2 600.44615 L -70.2 608.84615 Z" fill="#ff00fd"/>
        <path d="M -72 615.44615 L -65.8 619.84615 L -57.6 623.84615 L -49 627.44615 L -40 631.24615 L -29 635.24615 L -19.6 638.04615 L -10.599999 640.64615 L -1.599999 643.24615 L 3.800001 644.64615 L 9.400001 645.64615 L 11.800001 639.84615 L 14.400001 634.44615 L 16.600001 630.44615 L 19.200001 627.04615 L 19.400001 618.04615 L 18.800001 607.04615 L 17.000001 596.24615 L 15.400001 585.84615 L 12.800001 574.84614 L 10.400001 565.24614 L 7.600001 557.24614 L 4.400001 547.84614 L 1.6000011 540.44614 L -1.999999 532.84614 L -5.999999 525.24614 L -9.999999 517.84614 L -12.599999 514.24614 L -16.2 508.44614 L -21.6 512.84614 L -26.4 517.64614 L -31 523.84614 L -35.4 530.04614 L -40.2 538.64614 L -45 548.04614 L -49.8 557.24614 L -53.4 565.84614 L -57.4 574.84614 L -60.6 583.04615 L -64.4 592.44615 L -67.2 600.44615 L -70.2 608.84615 Z" stroke="#7f8080" stroke-linecap="round" stroke-linejoin="round" stroke-width="1"/>
      </g>
      <g id="Graphic_8">
        <path d="M 359.4053 614.50275 L 353.2053 618.90275 L 345.0053 622.90275 L 336.4053 626.50275 L 327.4053 630.30275 L 316.4053 634.30275 L 307.0053 637.10275 L 298.0053 639.70275 L 289.0053 642.30275 L 283.6053 643.70275 L 278.0053 644.70275 L 275.6053 638.90275 L 273.0053 633.50275 L 270.8053 629.50275 L 268.2053 626.10275 L 268.0053 617.10275 L 268.6053 606.10275 L 270.4053 595.30275 L 272.0053 584.90275 L 274.6053 573.90275 L 277.0053 564.30275 L 279.8053 556.30275 L 283.0053 546.90275 L 285.8053 539.50275 L 289.4053 531.90275 L 293.4053 524.30275 L 297.4053 516.90275 L 300.0053 513.30275 L 303.6053 507.50275 L 309.0053 511.90275 L 313.8053 516.70275 L 318.4053 522.90275 L 322.8053 529.10275 L 327.6053 537.70275 L 332.4053 547.10275 L 337.2053 556.30275 L 340.8053 564.90275 L 344.8053 573.90275 L 348.0053 582.10275 L 351.8053 591.50275 L 354.6053 599.50275 L 357.6053 607.90275 Z" fill="#ff00fd"/>
        <path d="M 359.4053 614.50275 L 353.2053 618.90275 L 345.0053 622.90275 L 336.4053 626.50275 L 327.4053 630.30275 L 316.4053 634.30275 L 307.0053 637.10275 L 298.0053 639.70275 L 289.0053 642.30275 L 283.6053 643.70275 L 278.0053 644.70275 L 275.6053 638.90275 L 273.0053 633.50275 L 270.8053 629.50275 L 268.2053 626.10275 L 268.0053 617.10275 L 268.6053 606.10275 L 270.4053 595.30275 L 272.0053 584.90275 L 274.6053 573.90275 L 277.0053 564.30275 L 279.8053 556.30275 L 283.0053 546.90275 L 285.8053 539.50275 L 289.4053 531.90275 L 293.4053 524.30275 L 297.4053 516.90275 L 300.0053 513.30275 L 303.6053 507.50275 L 309.0053 511.90275 L 313.8053 516.70275 L 318.4053 522.90275 L 322.8053 529.10275 L 327.6053 537.70275 L 332.4053 547.10275 L 337.2053 556.30275 L 340.8053 564.90275 L 344.8053 573.90275 L 348.0053 582.10275 L 351.8053 591.50275 L 354.6053 599.50275 L 357.6053 607.90275 Z" stroke="#7f8080" stroke-linecap="round" stroke-linejoin="round" stroke-width="2"/>
      </g>
      <g id="Graphic_7">
        <path d="M -72 615.44615 L -65.8 619.84615 L -57.6 623.84615 L -49 627.44615 L -40 631.24615 L -29 635.24615 L -19.6 638.04615 L -10.599999 640.64615 L -1.599999 643.24615 L 3.800001 644.64615 L 9.400001 645.64615 L 12.400001 639.24615 L 8.600001 638.44615 L 3.800001 637.24615 L -1.799999 636.04615 L -7.799999 634.24615 L -12.399999 632.84615 L -16.6 631.64615 L -21.2 629.64615 L -25.8 628.04615 L -30.6 626.04615 L -34.6 624.64615 L -39.8 622.44615 L -44.4 620.84615 L -49.2 618.64615 L -54 616.84615 L -58 614.84615 L -62.4 612.64615 L -66.8 610.44615 L -70.2 608.84615 Z" fill="#ff00fd"/>
        <path d="M -72 615.44615 L -65.8 619.84615 L -57.6 623.84615 L -49 627.44615 L -40 631.24615 L -29 635.24615 L -19.6 638.04615 L -10.599999 640.64615 L -1.599999 643.24615 L 3.800001 644.64615 L 9.400001 645.64615 L 12.400001 639.24615 L 8.600001 638.44615 L 3.800001 637.24615 L -1.799999 636.04615 L -7.799999 634.24615 L -12.399999 632.84615 L -16.6 631.64615 L -21.2 629.64615 L -25.8 628.04615 L -30.6 626.04615 L -34.6 624.64615 L -39.8 622.44615 L -44.4 620.84615 L -49.2 618.64615 L -54 616.84615 L -58 614.84615 L -62.4 612.64615 L -66.8 610.44615 L -70.2 608.84615 Z" stroke="#7f8080" stroke-linecap="round" stroke-linejoin="round" stroke-width="1"/>
      </g>
      <g id="Graphic_6">
        <path d="M 359.4053 614.50275 L 353.2053 618.90275 L 345.0053 622.90275 L 336.4053 626.50275 L 327.4053 630.30275 L 316.4053 634.30275 L 307.0053 637.10275 L 298.0053 639.70275 L 289.0053 642.30275 L 283.6053 643.70275 L 278.0053 644.70275 L 275.0053 638.30275 L 278.8053 637.50275 L 283.6053 636.30275 L 289.2053 635.10275 L 295.2053 633.30275 L 299.8053 631.90275 L 304.0053 630.70275 L 308.6053 628.70275 L 313.2053 627.10275 L 318.0053 625.10275 L 322.0053 623.70275 L 327.2053 621.50275 L 331.8053 619.90275 L 336.6053 617.70275 L 341.4053 615.90275 L 345.4053 613.90275 L 349.8053 611.70275 L 354.2053 609.50275 L 357.6053 607.90275 Z" fill="#ff00fd"/>
        <path d="M 359.4053 614.50275 L 353.2053 618.90275 L 345.0053 622.90275 L 336.4053 626.50275 L 327.4053 630.30275 L 316.4053 634.30275 L 307.0053 637.10275 L 298.0053 639.70275 L 289.0053 642.30275 L 283.6053 643.70275 L 278.0053 644.70275 L 275.0053 638.30275 L 278.8053 637.50275 L 283.6053 636.30275 L 289.2053 635.10275 L 295.2053 633.30275 L 299.8053 631.90275 L 304.0053 630.70275 L 308.6053 628.70275 L 313.2053 627.10275 L 318.0053 625.10275 L 322.0053 623.70275 L 327.2053 621.50275 L 331.8053 619.90275 L 336.6053 617.70275 L 341.4053 615.90275 L 345.4053 613.90275 L 349.8053 611.70275 L 354.2053 609.50275 L 357.6053 607.90275 Z" stroke="#7f8080" stroke-linecap="round" stroke-linejoin="round" stroke-width="1"/>
      </g>
      <g id="Graphic_5">
        <path d="M 78.57212 465.9638 L 73.84295 470.01736 C 72.6926 471.0034 71.44764 471.8733 70.12621 472.6145 L 67.59958 474.03165 C 66.164406 474.8366 65.5836 476.60575 66.26239 478.10473 L 67.280006 480.35197 C 67.401585 480.62046 67.52831 480.8866 67.66012 481.1502 L 71.94938 489.7287 C 72.29117 490.4123 72.66683 491.07843 73.07495 491.7246 L 75.40134 495.4081 C 75.84172 496.10535 76.31928 496.7784 76.83195 497.4244 L 80.24264 501.72185 C 80.78869 502.4099 81.37371 503.06606 81.99482 503.68717 L 86.66087 508.3532 C 87.06175 508.7541 87.47731 509.14 87.90671 509.5102 L 92.47023 513.44426 C 92.86489 513.7845 93.271 514.1112 93.68785 514.4238 L 97.66279 517.40503 C 98.3287 517.90447 99.02123 518.3674 99.73733 518.79174 L 103.8704 521.24096 C 103.99839 521.3168 104.12712 521.3914 104.25656 521.46477 L 108.95411 524.1267 C 109.6924 524.5451 110.45328 524.92226 111.23325 525.25653 L 114.78307 526.7779 C 115.36903 527.029 115.96518 527.25567 116.56997 527.45726 L 121.58808 529.12997 C 122.83532 529.5457 124.11592 529.85376 125.4158 530.0507 L 129.51464 530.67174 C 129.87976 530.72706 130.24615 530.7736 130.6135 530.81126 L 137.4946 531.517 C 137.73978 531.54216 137.98534 531.56336 138.2312 531.5806 L 142.75835 531.8983 C 143.29421 531.9359 143.83122 531.95473 144.3684 531.95473 L 147.63046 531.95474 C 148.58416 531.95474 149.53693 531.8954 150.48327 531.7771 L 154.47198 531.27854 C 155.13195 531.19604 155.78802 531.08496 156.43835 530.9456 L 162.52039 529.6423 C 163.41426 529.45076 164.29592 529.2061 165.16068 528.9096 L 169.66952 527.3637 C 170.46417 527.09127 171.2433 526.7755 172.0034 526.4178 L 176.83677 524.14326 C 177.38697 523.88435 177.92668 523.6037 178.45464 523.302 L 182.2225 521.14896 C 182.9153 520.7531 183.58701 520.3214 184.23494 519.8557 L 188.91106 516.49475 C 189.41175 516.1349 189.89776 515.75503 190.36792 515.3561 L 195.68877 510.84144 C 196.07108 510.51706 196.44269 510.18026 196.80298 509.8316 L 201.5022 505.28396 C 202.1418 504.665 202.7449 504.00944 203.30852 503.3206 L 207.1018 498.68434 C 207.60852 498.065 208.08257 497.4197 208.52201 496.75096 L 212.1392 491.24656 C 212.35462 490.91873 212.56163 490.58544 212.76002 490.247 L 215.2831 485.9429 C 215.66906 485.28454 216.022 484.60735 216.34062 483.9139 L 218.45932 479.3026 C 218.99218 478.14285 219.36334 476.91544 219.5624 475.65474 L 219.5624 475.65474 C 219.7407 474.5255 219.1614 473.412 218.13432 472.9099 L 212.84088 470.322 C 211.52642 469.67937 210.29183 468.88486 209.1624 467.95474 L 208.75638 467.6204 C 207.91205 466.92504 207.28864 465.99874 206.9624 464.95474 L 206.9624 464.95474 C 206.91573 464.8054 206.75686 464.7222 206.60754 464.76886 C 206.49247 464.8048 206.41277 464.9097 206.40892 465.0302 L 206.29968 468.4531 C 206.20894 471.2962 205.5916 474.09776 204.479 476.71567 L 203.60206 478.77904 C 203.0435 480.0933 202.36374 481.3527 201.5716 482.5409 L 197.88582 488.0696 C 197.13831 489.19085 196.2937 490.24425 195.36175 491.2176 L 189.06668 497.7925 C 188.1986 498.6991 187.25777 499.5332 186.2536 500.2863 L 177.8787 506.5675 C 177.00228 507.2248 176.08002 507.8187 175.11896 508.34454 L 167.93376 512.27606 C 166.62263 512.99347 165.2447 513.5814 163.81952 514.03143 L 157.1466 516.13867 C 155.42973 516.68084 153.65514 517.01954 151.85927 517.1478 L 144.97281 517.6397 C 143.90052 517.7163 142.82417 517.7176 141.75168 517.64365 L 133.31543 517.06184 C 132.28125 516.9905 131.25308 516.84936 130.23795 516.63933 L 123.10274 515.1631 C 121.15079 514.75923 119.25961 514.10335 117.47676 513.2119 L 112.81735 510.8822 C 111.58321 510.26515 110.4071 509.5383 109.30326 508.7104 L 103.6213 504.4489 C 103.18217 504.11957 102.75496 503.7746 102.34051 503.4147 L 96.58533 498.41676 C 95.77104 497.7096 95.0075 496.9461 94.30036 496.1318 L 89.89513 491.0591 C 89.14103 490.19075 88.45312 489.26705 87.8372 488.2958 L 84.1035 482.408 C 83.74293 481.83944 83.40751 481.2553 83.09819 480.6573 L 81.477815 477.52456 C 80.86867 476.3469 80.3625 475.11874 79.964965 473.85385 L 78.68473 469.78036 C 78.46995 469.097 78.28722 468.40395 78.13713 467.7035 L 77.91171 466.65157 C 77.826635 466.25456 78.05299 465.8569 78.4378 465.72737 L 78.4378 465.72737 C 78.51029 465.70296 78.58884 465.74195 78.61325 465.81444 C 78.63126 465.86795 78.61499 465.92704 78.57212 465.9638 Z" fill="#ff00fd"/>
        <path d="M 78.57212 465.9638 L 73.84295 470.01736 C 72.6926 471.0034 71.44764 471.8733 70.12621 472.6145 L 67.59958 474.03165 C 66.164406 474.8366 65.5836 476.60575 66.26239 478.10473 L 67.280006 480.35197 C 67.401585 480.62046 67.52831 480.8866 67.66012 481.1502 L 71.94938 489.7287 C 72.29117 490.4123 72.66683 491.07843 73.07495 491.7246 L 75.40134 495.4081 C 75.84172 496.10535 76.31928 496.7784 76.83195 497.4244 L 80.24264 501.72185 C 80.78869 502.4099 81.37371 503.06606 81.99482 503.68717 L 86.66087 508.3532 C 87.06175 508.7541 87.47731 509.14 87.90671 509.5102 L 92.47023 513.44426 C 92.86489 513.7845 93.271 514.1112 93.68785 514.4238 L 97.66279 517.40503 C 98.3287 517.90447 99.02123 518.3674 99.73733 518.79174 L 103.8704 521.24096 C 103.99839 521.3168 104.12712 521.3914 104.25656 521.46477 L 108.95411 524.1267 C 109.6924 524.5451 110.45328 524.92226 111.23325 525.25653 L 114.78307 526.7779 C 115.36903 527.029 115.96518 527.25567 116.56997 527.45726 L 121.58808 529.12997 C 122.83532 529.5457 124.11592 529.85376 125.4158 530.0507 L 129.51464 530.67174 C 129.87976 530.72706 130.24615 530.7736 130.6135 530.81126 L 137.4946 531.517 C 137.73978 531.54216 137.98534 531.56336 138.2312 531.5806 L 142.75835 531.8983 C 143.29421 531.9359 143.83122 531.95473 144.3684 531.95473 L 147.63046 531.95474 C 148.58416 531.95474 149.53693 531.8954 150.48327 531.7771 L 154.47198 531.27854 C 155.13195 531.19604 155.78802 531.08496 156.43835 530.9456 L 162.52039 529.6423 C 163.41426 529.45076 164.29592 529.2061 165.16068 528.9096 L 169.66952 527.3637 C 170.46417 527.09127 171.2433 526.7755 172.0034 526.4178 L 176.83677 524.14326 C 177.38697 523.88435 177.92668 523.6037 178.45464 523.302 L 182.2225 521.14896 C 182.9153 520.7531 183.58701 520.3214 184.23494 519.8557 L 188.91106 516.49475 C 189.41175 516.1349 189.89776 515.75503 190.36792 515.3561 L 195.68877 510.84144 C 196.07108 510.51706 196.44269 510.18026 196.80298 509.8316 L 201.5022 505.28396 C 202.1418 504.665 202.7449 504.00944 203.30852 503.3206 L 207.1018 498.68434 C 207.60852 498.065 208.08257 497.4197 208.52201 496.75096 L 212.1392 491.24656 C 212.35462 490.91873 212.56163 490.58544 212.76002 490.247 L 215.2831 485.9429 C 215.66906 485.28454 216.022 484.60735 216.34062 483.9139 L 218.45932 479.3026 C 218.99218 478.14285 219.36334 476.91544 219.5624 475.65474 L 219.5624 475.65474 C 219.7407 474.5255 219.1614 473.412 218.13432 472.9099 L 212.84088 470.322 C 211.52642 469.67937 210.29183 468.88486 209.1624 467.95474 L 208.75638 467.6204 C 207.91205 466.92504 207.28864 465.99874 206.9624 464.95474 L 206.9624 464.95474 C 206.91573 464.8054 206.75686 464.7222 206.60754 464.76886 C 206.49247 464.8048 206.41277 464.9097 206.40892 465.0302 L 206.29968 468.4531 C 206.20894 471.2962 205.5916 474.09776 204.479 476.71567 L 203.60206 478.77904 C 203.0435 480.0933 202.36374 481.3527 201.5716 482.5409 L 197.88582 488.0696 C 197.13831 489.19085 196.2937 490.24425 195.36175 491.2176 L 189.06668 497.7925 C 188.1986 498.6991 187.25777 499.5332 186.2536 500.2863 L 177.8787 506.5675 C 177.00228 507.2248 176.08002 507.8187 175.11896 508.34454 L 167.93376 512.27606 C 166.62263 512.99347 165.2447 513.5814 163.81952 514.03143 L 157.1466 516.13867 C 155.42973 516.68084 153.65514 517.01954 151.85927 517.1478 L 144.97281 517.6397 C 143.90052 517.7163 142.82417 517.7176 141.75168 517.64365 L 133.31543 517.06184 C 132.28125 516.9905 131.25308 516.84936 130.23795 516.63933 L 123.10274 515.1631 C 121.15079 514.75923 119.25961 514.10335 117.47676 513.2119 L 112.81735 510.8822 C 111.58321 510.26515 110.4071 509.5383 109.30326 508.7104 L 103.6213 504.4489 C 103.18217 504.11957 102.75496 503.7746 102.34051 503.4147 L 96.58533 498.41676 C 95.77104 497.7096 95.0075 496.9461 94.30036 496.1318 L 89.89513 491.0591 C 89.14103 490.19075 88.45312 489.26705 87.8372 488.2958 L 84.1035 482.408 C 83.74293 481.83944 83.40751 481.2553 83.09819 480.6573 L 81.477815 477.52456 C 80.86867 476.3469 80.3625 475.11874 79.964965 473.85385 L 78.68473 469.78036 C 78.46995 469.097 78.28722 468.40395 78.13713 467.7035 L 77.91171 466.65157 C 77.826635 466.25456 78.05299 465.8569 78.4378 465.72737 L 78.4378 465.72737 C 78.51029 465.70296 78.58884 465.74195 78.61325 465.81444 C 78.63126 465.86795 78.61499 465.92704 78.57212 465.9638 Z" stroke="#7f8080" stroke-linecap="round" stroke-linejoin="round" stroke-width="1"/>
      </g>
      <g id="Graphic_4">
        <path d="M 78.05925 465.7559 L 83.45925 465.1559 L 90.25925 468.5559 L 95.25925 470.3559 L 103.65925 472.1559 L 112.05925 473.1559 L 120.05925 474.1559 L 127.65925 474.3559 L 136.25925 474.7559 L 147.85925 474.5559 L 156.25925 474.1559 L 165.65925 473.5559 L 174.05925 472.7559 L 183.25925 471.3559 L 191.45925 469.1559 L 197.25925 467.3559 L 202.85925 464.7559 L 205.65925 465.9559 L 206.05925 471.5559 L 203.25925 479.5559 L 197.85925 482.3559 L 187.25925 485.5559 L 175.85925 487.9559 L 164.65925 488.7559 L 152.25925 489.7559 L 141.85925 489.7559 L 132.45925 489.7559 L 120.85925 489.1559 L 109.65925 488.3559 L 99.05925 486.1559 L 90.45925 484.1559 L 84.25925 481.3559 L 82.25925 479.7559 L 79.05925 472.1559 Z" fill="#ff00fd"/>
        <path d="M 78.05925 465.7559 L 83.45925 465.1559 L 90.25925 468.5559 L 95.25925 470.3559 L 103.65925 472.1559 L 112.05925 473.1559 L 120.05925 474.1559 L 127.65925 474.3559 L 136.25925 474.7559 L 147.85925 474.5559 L 156.25925 474.1559 L 165.65925 473.5559 L 174.05925 472.7559 L 183.25925 471.3559 L 191.45925 469.1559 L 197.25925 467.3559 L 202.85925 464.7559 L 205.65925 465.9559 L 206.05925 471.5559 L 203.25925 479.5559 L 197.85925 482.3559 L 187.25925 485.5559 L 175.85925 487.9559 L 164.65925 488.7559 L 152.25925 489.7559 L 141.85925 489.7559 L 132.45925 489.7559 L 120.85925 489.1559 L 109.65925 488.3559 L 99.05925 486.1559 L 90.45925 484.1559 L 84.25925 481.3559 L 82.25925 479.7559 L 79.05925 472.1559 Z" stroke="#7f8080" stroke-linecap="round" stroke-linejoin="round" stroke-width="1"/>
      </g>
      <g id="Graphic_3">
        <path d="M 7.813213 891.2 L 7.813213 891.2 C 7.747529 891.7255 7.810355 892.2591 7.996298 892.7549 L 8.647306 894.4909 C 8.824062 894.9623 9.051147 895.4132 9.32462 895.8358 L 10.292434 897.3315 C 10.833392 898.1676 11.546494 898.8785 12.384121 899.417 L 13.46217 900.11 C 13.762426 900.3031 14.077006 900.4728 14.403157 900.6179 L 15.720011 901.2035 C 16.31654 901.4688 16.947246 901.6493 17.593793 901.7398 L 26.604213 903.0013 C 26.614207 903.0027 26.624203 903.004 26.634203 903.0054 L 38.3502 904.594 C 38.3962 904.6002 38.442263 904.606 38.48838 904.6113 L 48.771315 905.7978 C 48.80324 905.8015 48.83519 905.805 48.867165 905.8082 L 62.57723 907.1991 C 62.60521 907.2019 62.63321 907.2046 62.661226 907.2071 L 73.76653 908.1987 C 73.80164 908.2018 73.83679 908.2047 73.87195 908.2073 L 84.55848 908.9989 C 84.59896 909.0019 84.63947 909.0045 84.67999 909.0068 L 95.18798 909.6016 C 95.2088 909.6028 95.22961 909.604 95.25042 909.6054 L 107.29319 910.3951 C 107.3772 910.4006 107.46129 910.4046 107.54543 910.4071 L 120.99256 910.8026 C 121.01032 910.8031 121.02809 910.8037 121.04585 910.8043 L 131.68971 911.1986 C 131.77603 911.2018 131.8624 911.2034 131.94879 911.2034 L 142.5578 911.2034 C 142.59874 911.2034 142.63967 911.2037 142.6806 911.2044 L 153.76702 911.3989 C 153.93509 911.4019 154.10321 911.3988 154.27106 911.3896 L 164.89229 910.8103 C 164.9769 910.8057 165.06157 910.8026 165.14629 910.801 L 175.91085 910.6053 C 175.98308 910.604 176.0553 910.6016 176.12745 910.598 L 188.14607 910.007 C 188.19483 910.0046 188.24355 910.0016 188.29225 909.9982 L 199.5323 909.2095 C 199.59023 909.2054 199.64812 909.2006 199.70594 909.1951 L 212.11651 908.0131 C 212.18497 908.0066 212.25352 908.0011 212.32214 907.9966 L 224.25416 907.2142 C 224.36418 907.207 224.474 907.1972 224.58355 907.1847 L 234.9959 906.006 C 235.01144 906.0042 235.02697 906.0024 235.0425 906.0006 L 244.9902 904.8068 C 245.00954 904.8045 245.02886 904.8021 245.04818 904.7996 L 258.88394 903.0221 C 258.98115 903.0096 259.0781 902.9951 259.1747 902.9785 L 265.7282 901.8551 C 265.92915 901.8206 266.13153 901.795 266.33473 901.7782 L 269.56706 901.5112 C 270.4563 901.4377 271.3233 901.195 272.12135 900.7959 L 273.60765 900.0528 C 274.20824 899.7525 274.7625 899.3674 275.25338 898.9092 L 276.5885 897.6631 C 277.19532 897.0967 277.65073 896.3875 277.91322 895.6 L 278.20805 894.7155 C 278.27812 894.5053 278.33817 894.2919 278.388 894.0759 L 278.8577 892.0406 C 278.89293 891.8879 278.8595 891.7275 278.7662 891.6017 L 278.7662 891.6017 C 278.67587 891.4798 278.52523 891.4183 278.3754 891.4421 L 269.89555 892.7912 C 269.84466 892.7993 269.79385 892.808 269.74315 892.8172 L 256.7584 895.178 C 256.6656 895.1949 256.5725 895.2099 256.4791 895.223 L 245.24943 896.7991 C 245.22928 896.8019 245.20914 896.8049 245.18902 896.8079 L 232.06643 898.7665 C 231.90167 898.791 231.73608 898.8097 231.56998 898.8225 L 218.84517 899.8014 C 218.82786 899.8027 218.81055 899.804 218.79323 899.8052 L 204.45308 900.801 C 204.4305 900.8026 204.4079 900.804 204.3853 900.8054 L 191.08205 901.5996 C 191.04016 901.6021 190.99824 901.6042 190.9563 901.606 L 176.76485 902.1973 C 176.66776 902.2013 176.5706 902.2034 176.47344 902.2034 L 150.67753 902.2034 C 150.63865 902.2034 150.59976 902.2037 150.56088 902.2043 L 138.8025 902.4003 C 138.68032 902.4023 138.55812 902.4012 138.436 902.3968 L 127.6024 902.0099 C 127.4803 902.0055 127.35809 902.0044 127.23591 902.0064 L 115.52127 902.2017 C 115.45323 902.2028 115.38518 902.2029 115.31713 902.2021 L 99.61484 902.0058 C 99.48444 902.0042 99.35411 901.9989 99.22401 901.99 L 84.91423 901.0099 C 84.85088 901.0055 84.7876 901.0003 84.72439 900.9943 L 70.23339 899.6047 C 70.22393 899.6038 70.21448 899.6029 70.20503 899.6019 L 56.39299 898.2207 C 56.27715 898.2091 56.16162 898.1947 56.0465 898.1773 L 41.737347 896.0212 C 41.65859 896.0093 41.579637 895.9988 41.50052 895.9896 L 27.98059 894.4221 C 27.873013 894.4096 27.76574 894.3946 27.65886 894.3772 L 18.26677 892.8438 C 18.10178 892.8168 17.937805 892.784 17.775164 892.7453 L 8.697565 890.5865 C 8.309246 890.4942 7.919589 890.7341 7.827241 891.1224 C 7.821158 891.148 7.816475 891.1739 7.813213 891.2 Z" fill="#ff00fd"/>
        <path d="M 7.813213 891.2 L 7.813213 891.2 C 7.747529 891.7255 7.810355 892.2591 7.996298 892.7549 L 8.647306 894.4909 C 8.824062 894.9623 9.051147 895.4132 9.32462 895.8358 L 10.292434 897.3315 C 10.833392 898.1676 11.546494 898.8785 12.384121 899.417 L 13.46217 900.11 C 13.762426 900.3031 14.077006 900.4728 14.403157 900.6179 L 15.720011 901.2035 C 16.31654 901.4688 16.947246 901.6493 17.593793 901.7398 L 26.604213 903.0013 C 26.614207 903.0027 26.624203 903.004 26.634203 903.0054 L 38.3502 904.594 C 38.3962 904.6002 38.442263 904.606 38.48838 904.6113 L 48.771315 905.7978 C 48.80324 905.8015 48.83519 905.805 48.867165 905.8082 L 62.57723 907.1991 C 62.60521 907.2019 62.63321 907.2046 62.661226 907.2071 L 73.76653 908.1987 C 73.80164 908.2018 73.83679 908.2047 73.87195 908.2073 L 84.55848 908.9989 C 84.59896 909.0019 84.63947 909.0045 84.67999 909.0068 L 95.18798 909.6016 C 95.2088 909.6028 95.22961 909.604 95.25042 909.6054 L 107.29319 910.3951 C 107.3772 910.4006 107.46129 910.4046 107.54543 910.4071 L 120.99256 910.8026 C 121.01032 910.8031 121.02809 910.8037 121.04585 910.8043 L 131.68971 911.1986 C 131.77603 911.2018 131.8624 911.2034 131.94879 911.2034 L 142.5578 911.2034 C 142.59874 911.2034 142.63967 911.2037 142.6806 911.2044 L 153.76702 911.3989 C 153.93509 911.4019 154.10321 911.3988 154.27106 911.3896 L 164.89229 910.8103 C 164.9769 910.8057 165.06157 910.8026 165.14629 910.801 L 175.91085 910.6053 C 175.98308 910.604 176.0553 910.6016 176.12745 910.598 L 188.14607 910.007 C 188.19483 910.0046 188.24355 910.0016 188.29225 909.9982 L 199.5323 909.2095 C 199.59023 909.2054 199.64812 909.2006 199.70594 909.1951 L 212.11651 908.0131 C 212.18497 908.0066 212.25352 908.0011 212.32214 907.9966 L 224.25416 907.2142 C 224.36418 907.207 224.474 907.1972 224.58355 907.1847 L 234.9959 906.006 C 235.01144 906.0042 235.02697 906.0024 235.0425 906.0006 L 244.9902 904.8068 C 245.00954 904.8045 245.02886 904.8021 245.04818 904.7996 L 258.88394 903.0221 C 258.98115 903.0096 259.0781 902.9951 259.1747 902.9785 L 265.7282 901.8551 C 265.92915 901.8206 266.13153 901.795 266.33473 901.7782 L 269.56706 901.5112 C 270.4563 901.4377 271.3233 901.195 272.12135 900.7959 L 273.60765 900.0528 C 274.20824 899.7525 274.7625 899.3674 275.25338 898.9092 L 276.5885 897.6631 C 277.19532 897.0967 277.65073 896.3875 277.91322 895.6 L 278.20805 894.7155 C 278.27812 894.5053 278.33817 894.2919 278.388 894.0759 L 278.8577 892.0406 C 278.89293 891.8879 278.8595 891.7275 278.7662 891.6017 L 278.7662 891.6017 C 278.67587 891.4798 278.52523 891.4183 278.3754 891.4421 L 269.89555 892.7912 C 269.84466 892.7993 269.79385 892.808 269.74315 892.8172 L 256.7584 895.178 C 256.6656 895.1949 256.5725 895.2099 256.4791 895.223 L 245.24943 896.7991 C 245.22928 896.8019 245.20914 896.8049 245.18902 896.8079 L 232.06643 898.7665 C 231.90167 898.791 231.73608 898.8097 231.56998 898.8225 L 218.84517 899.8014 C 218.82786 899.8027 218.81055 899.804 218.79323 899.8052 L 204.45308 900.801 C 204.4305 900.8026 204.4079 900.804 204.3853 900.8054 L 191.08205 901.5996 C 191.04016 901.6021 190.99824 901.6042 190.9563 901.606 L 176.76485 902.1973 C 176.66776 902.2013 176.5706 902.2034 176.47344 902.2034 L 150.67753 902.2034 C 150.63865 902.2034 150.59976 902.2037 150.56088 902.2043 L 138.8025 902.4003 C 138.68032 902.4023 138.55812 902.4012 138.436 902.3968 L 127.6024 902.0099 C 127.4803 902.0055 127.35809 902.0044 127.23591 902.0064 L 115.52127 902.2017 C 115.45323 902.2028 115.38518 902.2029 115.31713 902.2021 L 99.61484 902.0058 C 99.48444 902.0042 99.35411 901.9989 99.22401 901.99 L 84.91423 901.0099 C 84.85088 901.0055 84.7876 901.0003 84.72439 900.9943 L 70.23339 899.6047 C 70.22393 899.6038 70.21448 899.6029 70.20503 899.6019 L 56.39299 898.2207 C 56.27715 898.2091 56.16162 898.1947 56.0465 898.1773 L 41.737347 896.0212 C 41.65859 896.0093 41.579637 895.9988 41.50052 895.9896 L 27.98059 894.4221 C 27.873013 894.4096 27.76574 894.3946 27.65886 894.3772 L 18.26677 892.8438 C 18.10178 892.8168 17.937805 892.784 17.775164 892.7453 L 8.697565 890.5865 C 8.309246 890.4942 7.919589 890.7341 7.827241 891.1224 C 7.821158 891.148 7.816475 891.1739 7.813213 891.2 Z" stroke="#7f8080" stroke-linecap="round" stroke-linejoin="round" stroke-width="1"/>
      </g>
      <g id="Graphic_2">
        <path d="M 150 644 L 303.18627 507.50275 L 291.2 527.6 L 284.36726 542.6 L 280.36726 554.4 L 276.8 563 L 274.2 572.2 L 270.4 590.8 L 267.8 606.4 L 267.96726 617 L 267.76726 625.2 L 152 732 L 20.186273 625.50275 L 19.2 609.4 L 17.4 595 L 14.6 578.2 L 11.186273 565.50275 L 5.8000006 549.6 L 1.1862733 537.50275 L -6.8 523 L -9.8 517.4 L -12.813727 513.50275 L -15.813727 507.50275 L -14.813727 509.50275 Z" fill="#ff00fd"/>
        <path d="M 150 644 L 303.18627 507.50275 L 291.2 527.6 L 284.36726 542.6 L 280.36726 554.4 L 276.8 563 L 274.2 572.2 L 270.4 590.8 L 267.8 606.4 L 267.96726 617 L 267.76726 625.2 L 152 732 L 20.186273 625.50275 L 19.2 609.4 L 17.4 595 L 14.6 578.2 L 11.186273 565.50275 L 5.8000006 549.6 L 1.1862733 537.50275 L -6.8 523 L -9.8 517.4 L -12.813727 513.50275 L -15.813727 507.50275 L -14.813727 509.50275 Z" stroke="#a5a5a5" stroke-linecap="round" stroke-linejoin="round" stroke-width=".5"/>
      </g>
      <g id="Graphic_21">
        <path d="M 82.00565 465.59045 L 90.17111 468.70816 C 91.0291 469.03576 91.90594 469.3117 92.79692 469.5344 L 106.5141 472.9637 C 107.67576 473.2541 108.85832 473.4534 110.051 473.55966 L 127.57715 475.1214 C 128.165 475.1738 128.75464 475.2035 129.34478 475.21054 L 144.8237 475.3948 C 145.11404 475.39827 145.40442 475.39623 145.69469 475.3887 L 160.118 475.01406 C 160.47878 475.0047 160.8393 474.9868 161.19924 474.9605 L 175.57053 473.90893 C 176.56197 473.8364 177.54766 473.69964 178.5214 473.49956 L 190.09436 471.12155 C 191.13637 470.90744 192.16226 470.6213 193.16465 470.2652 L 204.91664 466.09014 C 206.00702 465.70277 207.21021 466.23354 207.65925 467.3 L 207.65925 467.3 C 208.1814 468.5401 208.33338 469.90485 208.09685 471.22945 L 207.91637 472.24014 C 207.6126 473.9413 207.11806 475.6028 206.44214 477.1932 L 204.89892 480.8243 C 204.34035 482.1386 203.6606 483.398 202.86846 484.5862 L 199.18268 490.11485 C 198.43517 491.2361 197.59057 492.2895 196.6586 493.2629 L 190.36354 499.83774 C 189.49547 500.7444 188.55463 501.57846 187.55046 502.3316 L 179.17555 508.6128 C 178.29914 509.2701 177.37688 509.86394 176.41582 510.3898 L 169.23062 514.3213 C 167.9195 515.03874 166.54156 515.62664 165.11638 516.0767 L 158.44347 518.18393 C 156.7266 518.7261 154.952 519.0648 153.15613 519.1931 L 146.26968 519.685 C 145.19738 519.76156 144.12103 519.7629 143.04854 519.6889 L 134.61229 519.1071 C 133.57811 519.0358 132.54994 518.8946 131.5348 518.6846 L 124.3996 517.20835 C 122.44765 516.8045 120.55647 516.1486 118.77362 515.2572 L 114.11421 512.9275 C 112.88007 512.3104 111.70397 511.58354 110.60012 510.75566 L 104.91816 506.4942 C 104.47903 506.16483 104.05182 505.81987 103.63737 505.45995 L 97.88219 500.462 C 97.0679 499.7549 96.30436 498.99135 95.59722 498.17706 L 91.192 493.1044 C 90.43789 492.236 89.74998 491.3123 89.13406 490.34105 L 85.40036 484.4533 C 85.03979 483.8847 84.70437 483.30056 84.39505 482.70255 L 82.774675 479.5698 C 82.16553 478.39215 81.65936 477.164 81.26183 475.8991 L 79.98159 471.8256 C 79.76681 471.14225 79.58408 470.4492 79.43399 469.7488 L 79.35925 469.4 C 79.164585 468.4916 79.27185 467.54443 79.66473 466.70254 L 79.75925 466.5 C 80.15372 465.6547 81.1342 465.2577 82.00565 465.59045 Z" fill="url(#Obj_Gradient_2)"/>
        <path d="M 82.00565 465.59045 L 90.17111 468.70816 C 91.0291 469.03576 91.90594 469.3117 92.79692 469.5344 L 106.5141 472.9637 C 107.67576 473.2541 108.85832 473.4534 110.051 473.55966 L 127.57715 475.1214 C 128.165 475.1738 128.75464 475.2035 129.34478 475.21054 L 144.8237 475.3948 C 145.11404 475.39827 145.40442 475.39623 145.69469 475.3887 L 160.118 475.01406 C 160.47878 475.0047 160.8393 474.9868 161.19924 474.9605 L 175.57053 473.90893 C 176.56197 473.8364 177.54766 473.69964 178.5214 473.49956 L 190.09436 471.12155 C 191.13637 470.90744 192.16226 470.6213 193.16465 470.2652 L 204.91664 466.09014 C 206.00702 465.70277 207.21021 466.23354 207.65925 467.3 L 207.65925 467.3 C 208.1814 468.5401 208.33338 469.90485 208.09685 471.22945 L 207.91637 472.24014 C 207.6126 473.9413 207.11806 475.6028 206.44214 477.1932 L 204.89892 480.8243 C 204.34035 482.1386 203.6606 483.398 202.86846 484.5862 L 199.18268 490.11485 C 198.43517 491.2361 197.59057 492.2895 196.6586 493.2629 L 190.36354 499.83774 C 189.49547 500.7444 188.55463 501.57846 187.55046 502.3316 L 179.17555 508.6128 C 178.29914 509.2701 177.37688 509.86394 176.41582 510.3898 L 169.23062 514.3213 C 167.9195 515.03874 166.54156 515.62664 165.11638 516.0767 L 158.44347 518.18393 C 156.7266 518.7261 154.952 519.0648 153.15613 519.1931 L 146.26968 519.685 C 145.19738 519.76156 144.12103 519.7629 143.04854 519.6889 L 134.61229 519.1071 C 133.57811 519.0358 132.54994 518.8946 131.5348 518.6846 L 124.3996 517.20835 C 122.44765 516.8045 120.55647 516.1486 118.77362 515.2572 L 114.11421 512.9275 C 112.88007 512.3104 111.70397 511.58354 110.60012 510.75566 L 104.91816 506.4942 C 104.47903 506.16483 104.05182 505.81987 103.63737 505.45995 L 97.88219 500.462 C 97.0679 499.7549 96.30436 498.99135 95.59722 498.17706 L 91.192 493.1044 C 90.43789 492.236 89.74998 491.3123 89.13406 490.34105 L 85.40036 484.4533 C 85.03979 483.8847 84.70437 483.30056 84.39505 482.70255 L 82.774675 479.5698 C 82.16553 478.39215 81.65936 477.164 81.26183 475.8991 L 79.98159 471.8256 C 79.76681 471.14225 79.58408 470.4492 79.43399 469.7488 L 79.35925 469.4 C 79.164585 468.4916 79.27185 467.54443 79.66473 466.70254 L 79.75925 466.5 C 80.15372 465.6547 81.1342 465.2577 82.00565 465.59045 Z" stroke="#7f8080" stroke-linecap="round" stroke-linejoin="round" stroke-width="1"/>
      </g>
      <g id="Graphic_20">
        <path d="M 17.973455 902.2638 L 31.715696 904.5542 C 31.899072 904.5847 32.082968 904.6121 32.2673 904.6362 L 60.62094 908.3515 C 60.86747 908.3838 61.114715 908.4104 61.36248 908.4312 L 91.60537 910.9677 C 91.86227 910.9892 92.11966 911.0046 92.37731 911.0137 L 131.30822 912.39 C 131.49658 912.3967 131.68504 912.4 131.87352 912.4 L 163.34084 912.4 C 163.50746 912.4 163.67407 912.3974 163.8406 912.3922 L 188.87539 911.6099 C 189.08563 911.6033 189.29573 911.5926 189.50555 911.5777 L 211.5533 910.0168 C 211.71161 910.0056 211.86975 909.992 212.02766 909.9761 L 237.28815 907.4305 C 237.4899 907.4102 237.69122 907.386 237.89204 907.358 L 261.68474 904.0427 C 261.88875 904.0142 262.0922 903.9819 262.29496 903.9456 L 271.4908 902.3 C 276.8179 901.3467 280.46876 896.3931 279.80234 891.0226 L 277.59475 873.232 C 277.5921 873.2107 277.5895 873.1893 277.58695 873.168 L 274.02312 843.4695 C 274.00157 843.2898 273.98306 843.1099 273.9676 842.9296 L 271.6054 815.3704 C 271.59565 815.2568 271.58713 815.1431 271.57983 815.0294 L 270.1932 793.4377 C 270.1916 793.4126 270.18992 793.3874 270.1882 793.3623 L 268.59603 770.276 C 268.59253 770.2253 268.58928 770.1747 268.58627 770.124 L 267.4099 750.3218 C 267.39716 750.1073 267.38874 749.89255 267.38465 749.6777 L 266.99236 729.08285 C 266.9913 729.0276 266.98997 728.9724 266.98835 728.9172 L 266.39322 708.6828 C 266.3916 708.6276 266.39026 708.5724 266.3892 708.51715 L 265.99855 688.0076 C 265.99337 687.7359 265.99512 687.4641 266.0038 687.1925 L 266.58973 668.8329 C 266.59044 668.811 266.59118 668.789 266.59197 668.7671 L 267.38005 646.8978 C 267.3872 646.6993 267.39806 646.5009 267.4126 646.3028 L 268.97007 625.0822 C 268.98388 624.8941 268.99436 624.7057 269.0015 624.51724 L 269.75596 604.6184 C 269.77915 604.0066 269.83744 603.3967 269.93052 602.79165 L 272.66953 584.9881 C 272.7503 584.46304 272.8572 583.9423 272.9898 583.4278 L 277.61806 565.4702 C 277.73316 565.0236 277.8675 564.5822 278.02073 564.14725 L 283.7415 547.9076 C 283.9076 547.4361 284.0957 546.9727 284.30517 546.5188 L 289.83673 534.5338 C 289.93942 534.3113 290.0472 534.0912 290.16 533.87364 L 295.52223 523.5322 C 295.56793 523.4441 295.61446 523.35636 295.6618 523.2691 L 300.87777 513.6521 C 301.61505 512.29276 302.56468 511.05987 303.6908 510 L 303.6908 510 C 304.36598 509.3645 304.39817 508.302 303.7627 507.62684 C 303.6382 507.49456 303.49307 507.38337 303.33295 507.2976 L 300.1188 505.5757 C 299.90016 505.4586 299.6788 505.34656 299.45494 505.2397 L 291.60097 501.4912 C 291.19436 501.29716 290.77974 501.12036 290.3582 500.9613 L 280.68338 497.3104 C 280.48833 497.2368 280.29187 497.167 280.0941 497.1011 L 267.39963 492.8696 C 267.2604 492.8232 267.12055 492.7787 266.9801 492.73616 L 254.09658 488.83206 C 254.02605 488.8107 253.95567 488.7888 253.88544 488.7665 L 241.38144 484.78794 C 240.98782 484.6627 240.5992 484.52225 240.21643 484.36693 L 228.2405 479.5071 C 227.40883 479.16964 226.60704 478.7628 225.8436 478.29083 L 216.22436 472.3444 C 216.06865 472.24814 215.91461 472.1492 215.7623 472.0477 L 210.8722 468.7876 C 209.89081 468.13335 209.0195 467.32745 208.29078 466.4 L 208.29078 466.4 C 208.18518 466.2656 207.99062 466.24225 207.8562 466.34785 C 207.75347 466.4286 207.7125 466.5651 207.7538 466.6891 L 207.89078 467.1 C 208.35003 468.47775 208.4546 469.94904 208.1948 471.3779 L 207.79967 473.55115 C 207.52845 475.0428 207.0466 476.48835 206.36858 477.8444 L 204.83626 480.90904 C 204.53956 481.50244 204.20624 482.0768 203.83823 482.6288 L 200.63453 487.4344 C 200.20593 488.0773 199.73132 488.6883 199.21443 489.2626 L 194.65238 494.33156 C 194.61132 494.3772 194.57 494.4226 194.5284 494.46773 L 188.53417 500.97576 C 187.90643 501.6573 187.22068 502.283 186.48465 502.8459 L 181.46047 506.6879 C 181.01432 507.02906 180.55052 507.3465 180.07099 507.6389 L 173.58458 511.594 C 172.92292 511.9975 172.23283 512.3523 171.51975 512.65576 L 164.40434 515.6836 C 163.59667 516.0273 162.7621 516.3039 161.90905 516.5107 L 157.83 517.4996 C 157.00516 517.69955 156.16573 517.83356 155.31963 517.90035 L 149.61943 518.3504 C 149.2005 518.38344 148.78042 518.4 148.36019 518.4 L 141.32787 518.4 C 140.57077 518.4 139.81462 518.34626 139.06513 518.2392 L 131.11868 517.104 C 130.63367 517.0347 130.1521 516.9432 129.6755 516.8297 L 123.71426 515.41035 C 122.56878 515.1376 121.4569 514.73927 120.39883 514.22253 L 114.11882 511.15556 C 113.63377 510.9187 113.16102 510.6574 112.70238 510.3727 L 108.49052 507.75846 C 107.89135 507.38656 107.31742 506.97546 106.7725 506.52784 L 102.32639 502.8757 C 102.10269 502.6919 101.88402 502.50214 101.67063 502.3065 L 97.86828 498.82104 C 97.41699 498.40736 96.98981 497.9681 96.58885 497.50546 L 92.47011 492.75307 C 92.15072 492.38455 91.84836 492.0016 91.56395 491.6055 L 87.1343 485.4356 C 86.6394 484.7463 86.20013 484.0187 85.82064 483.2597 L 83.24418 478.1068 C 83.20858 478.0356 83.17352 477.96414 83.13899 477.8924 L 81.89078 475.3 C 81.04007 473.53313 80.68455 471.5686 80.86209 469.61564 L 81.04229 467.6334 C 81.0661 467.3715 80.87312 467.13994 80.61125 467.11614 C 80.44886 467.1014 80.2902 467.17075 80.19078 467.3 L 80.19078 467.3 C 79.52734 468.1625 78.74723 468.92856 77.87285 469.57625 L 73.97632 472.46257 C 73.85263 472.5542 73.727635 472.644 73.60136 472.732 L 68.97911 475.9536 C 67.79237 476.7807 66.49895 477.4431 65.1342 477.9226 L 60.527076 479.5413 C 60.036505 479.71367 59.55463 479.90984 59.08316 480.1291 L 52.23638 483.3137 C 51.54022 483.6375 50.82165 483.91074 50.08625 484.13136 L 39.215864 487.3925 C 39.199143 487.3975 39.18243 487.40254 39.165724 487.4076 L 28.197637 490.7372 C 28.05974 490.77907 27.922414 490.8228 27.7857 490.86836 L 14.864464 495.17544 C 14.815343 495.1918 14.766142 495.20795 14.716864 495.22384 L 3.3494575 498.89075 C 2.710972 499.0967 2.0860728 499.34263 1.4784603 499.62704 L -6.453505 503.3399 C -6.823845 503.5132 -7.187403 503.7007 -7.543379 503.9019 L -13.489494 507.26276 C -14.742528 507.971 -15.184173 509.5609 -14.475937 510.81396 C -14.39882 510.9504 -14.309552 511.0796 -14.209219 511.2 L -13.345108 512.23693 C -12.590163 513.14287 -11.937686 514.1295 -11.399569 515.1788 L -8.322431 521.17924 C -8.246961 521.3264 -8.169213 521.4724 -8.089216 521.61715 L -4.1344636 528.77337 C -4.0509725 528.92445 -3.969932 529.07687 -3.8913732 529.23057 L .21693138 537.26856 C .4660006 537.75587 .6899036 538.25563 .8877574 538.7659 L 4.3705264 547.74776 C 4.3840296 547.7826 4.397655 547.81737 4.4114015 547.8521 L 8.007724 556.93754 C 8.129733 557.2458 8.242133 557.5577 8.344761 557.87294 L 10.966596 565.9257 C 10.98272 565.97524 10.998601 566.02484 11.014241 566.0745 L 14.086289 575.8328 C 14.28908 576.47695 14.450886 577.1333 14.570733 577.7979 L 16.556045 588.8074 C 16.579202 588.9358 16.600787 589.0645 16.620795 589.1934 L 18.326665 600.1868 C 18.369402 600.4622 18.404935 600.7387 18.433229 601.016 L 19.320649 609.7127 C 19.367382 610.1707 19.394327 610.6305 19.40141 611.0908 L 19.58565 623.0664 C 19.58907 623.2888 19.597127 623.51105 19.609815 623.7331 L 20.38019 637.21465 C 20.38725 637.3382 20.395745 637.4617 20.405671 637.58506 L 21.739241 654.1594 C 21.773588 654.5863 21.790782 655.0144 21.790782 655.44264 L 21.790782 667.8924 C 21.790782 668.09746 21.794723 668.3025 21.802603 668.50735 L 22.382954 683.5965 C 22.388172 683.7322 22.391663 683.8679 22.393426 684.00365 L 22.585585 698.7999 C 22.58905 699.0666 22.585843 699.3333 22.575972 699.5999 L 22.001744 715.104 C 21.994436 715.3013 21.990782 715.49875 21.990782 715.6962 L 21.990782 729.2924 C 21.990782 729.4975 21.98684 729.7025 21.97896 729.90736 L 21.393768 745.1224 C 21.391777 745.1741 21.389535 745.2259 21.38704 745.2776 L 20.59172 761.78055 C 20.591094 761.7935 20.590453 761.8065 20.589797 761.81945 L 19.795307 777.5106 C 19.79229 777.5702 19.78894 777.6298 19.785256 777.6893 L 18.596345 796.9101 C 18.592636 796.97 18.58859 797.03 18.584206 797.0899 L 16.801068 821.4594 C 16.79421 821.5531 16.786527 821.6468 16.77802 821.7404 L 14.992128 841.3852 C 14.99123 841.3951 14.990324 841.4049 14.989408 841.4148 L 13.218643 860.4997 C 13.20007 860.6999 13.177726 860.8997 13.151623 861.099 L 11.19091 876.0717 C 11.058099 877.0859 10.788958 878.0776 10.390781 879.0197 L 10.390781 879.0197 C 9.993206 879.9605 9.744538 880.9574 9.653714 881.9747 L 8.890781 890.5197 C 8.383025 896.2068 12.34149 901.3251 17.973455 902.2638 Z" fill="#ff00fd"/>
        <path d="M 17.973455 902.2638 L 31.715696 904.5542 C 31.899072 904.5847 32.082968 904.6121 32.2673 904.6362 L 60.62094 908.3515 C 60.86747 908.3838 61.114715 908.4104 61.36248 908.4312 L 91.60537 910.9677 C 91.86227 910.9892 92.11966 911.0046 92.37731 911.0137 L 131.30822 912.39 C 131.49658 912.3967 131.68504 912.4 131.87352 912.4 L 163.34084 912.4 C 163.50746 912.4 163.67407 912.3974 163.8406 912.3922 L 188.87539 911.6099 C 189.08563 911.6033 189.29573 911.5926 189.50555 911.5777 L 211.5533 910.0168 C 211.71161 910.0056 211.86975 909.992 212.02766 909.9761 L 237.28815 907.4305 C 237.4899 907.4102 237.69122 907.386 237.89204 907.358 L 261.68474 904.0427 C 261.88875 904.0142 262.0922 903.9819 262.29496 903.9456 L 271.4908 902.3 C 276.8179 901.3467 280.46876 896.3931 279.80234 891.0226 L 277.59475 873.232 C 277.5921 873.2107 277.5895 873.1893 277.58695 873.168 L 274.02312 843.4695 C 274.00157 843.2898 273.98306 843.1099 273.9676 842.9296 L 271.6054 815.3704 C 271.59565 815.2568 271.58713 815.1431 271.57983 815.0294 L 270.1932 793.4377 C 270.1916 793.4126 270.18992 793.3874 270.1882 793.3623 L 268.59603 770.276 C 268.59253 770.2253 268.58928 770.1747 268.58627 770.124 L 267.4099 750.3218 C 267.39716 750.1073 267.38874 749.89255 267.38465 749.6777 L 266.99236 729.08285 C 266.9913 729.0276 266.98997 728.9724 266.98835 728.9172 L 266.39322 708.6828 C 266.3916 708.6276 266.39026 708.5724 266.3892 708.51715 L 265.99855 688.0076 C 265.99337 687.7359 265.99512 687.4641 266.0038 687.1925 L 266.58973 668.8329 C 266.59044 668.811 266.59118 668.789 266.59197 668.7671 L 267.38005 646.8978 C 267.3872 646.6993 267.39806 646.5009 267.4126 646.3028 L 268.97007 625.0822 C 268.98388 624.8941 268.99436 624.7057 269.0015 624.51724 L 269.75596 604.6184 C 269.77915 604.0066 269.83744 603.3967 269.93052 602.79165 L 272.66953 584.9881 C 272.7503 584.46304 272.8572 583.9423 272.9898 583.4278 L 277.61806 565.4702 C 277.73316 565.0236 277.8675 564.5822 278.02073 564.14725 L 283.7415 547.9076 C 283.9076 547.4361 284.0957 546.9727 284.30517 546.5188 L 289.83673 534.5338 C 289.93942 534.3113 290.0472 534.0912 290.16 533.87364 L 295.52223 523.5322 C 295.56793 523.4441 295.61446 523.35636 295.6618 523.2691 L 300.87777 513.6521 C 301.61505 512.29276 302.56468 511.05987 303.6908 510 L 303.6908 510 C 304.36598 509.3645 304.39817 508.302 303.7627 507.62684 C 303.6382 507.49456 303.49307 507.38337 303.33295 507.2976 L 300.1188 505.5757 C 299.90016 505.4586 299.6788 505.34656 299.45494 505.2397 L 291.60097 501.4912 C 291.19436 501.29716 290.77974 501.12036 290.3582 500.9613 L 280.68338 497.3104 C 280.48833 497.2368 280.29187 497.167 280.0941 497.1011 L 267.39963 492.8696 C 267.2604 492.8232 267.12055 492.7787 266.9801 492.73616 L 254.09658 488.83206 C 254.02605 488.8107 253.95567 488.7888 253.88544 488.7665 L 241.38144 484.78794 C 240.98782 484.6627 240.5992 484.52225 240.21643 484.36693 L 228.2405 479.5071 C 227.40883 479.16964 226.60704 478.7628 225.8436 478.29083 L 216.22436 472.3444 C 216.06865 472.24814 215.91461 472.1492 215.7623 472.0477 L 210.8722 468.7876 C 209.89081 468.13335 209.0195 467.32745 208.29078 466.4 L 208.29078 466.4 C 208.18518 466.2656 207.99062 466.24225 207.8562 466.34785 C 207.75347 466.4286 207.7125 466.5651 207.7538 466.6891 L 207.89078 467.1 C 208.35003 468.47775 208.4546 469.94904 208.1948 471.3779 L 207.79967 473.55115 C 207.52845 475.0428 207.0466 476.48835 206.36858 477.8444 L 204.83626 480.90904 C 204.53956 481.50244 204.20624 482.0768 203.83823 482.6288 L 200.63453 487.4344 C 200.20593 488.0773 199.73132 488.6883 199.21443 489.2626 L 194.65238 494.33156 C 194.61132 494.3772 194.57 494.4226 194.5284 494.46773 L 188.53417 500.97576 C 187.90643 501.6573 187.22068 502.283 186.48465 502.8459 L 181.46047 506.6879 C 181.01432 507.02906 180.55052 507.3465 180.07099 507.6389 L 173.58458 511.594 C 172.92292 511.9975 172.23283 512.3523 171.51975 512.65576 L 164.40434 515.6836 C 163.59667 516.0273 162.7621 516.3039 161.90905 516.5107 L 157.83 517.4996 C 157.00516 517.69955 156.16573 517.83356 155.31963 517.90035 L 149.61943 518.3504 C 149.2005 518.38344 148.78042 518.4 148.36019 518.4 L 141.32787 518.4 C 140.57077 518.4 139.81462 518.34626 139.06513 518.2392 L 131.11868 517.104 C 130.63367 517.0347 130.1521 516.9432 129.6755 516.8297 L 123.71426 515.41035 C 122.56878 515.1376 121.4569 514.73927 120.39883 514.22253 L 114.11882 511.15556 C 113.63377 510.9187 113.16102 510.6574 112.70238 510.3727 L 108.49052 507.75846 C 107.89135 507.38656 107.31742 506.97546 106.7725 506.52784 L 102.32639 502.8757 C 102.10269 502.6919 101.88402 502.50214 101.67063 502.3065 L 97.86828 498.82104 C 97.41699 498.40736 96.98981 497.9681 96.58885 497.50546 L 92.47011 492.75307 C 92.15072 492.38455 91.84836 492.0016 91.56395 491.6055 L 87.1343 485.4356 C 86.6394 484.7463 86.20013 484.0187 85.82064 483.2597 L 83.24418 478.1068 C 83.20858 478.0356 83.17352 477.96414 83.13899 477.8924 L 81.89078 475.3 C 81.04007 473.53313 80.68455 471.5686 80.86209 469.61564 L 81.04229 467.6334 C 81.0661 467.3715 80.87312 467.13994 80.61125 467.11614 C 80.44886 467.1014 80.2902 467.17075 80.19078 467.3 L 80.19078 467.3 C 79.52734 468.1625 78.74723 468.92856 77.87285 469.57625 L 73.97632 472.46257 C 73.85263 472.5542 73.727635 472.644 73.60136 472.732 L 68.97911 475.9536 C 67.79237 476.7807 66.49895 477.4431 65.1342 477.9226 L 60.527076 479.5413 C 60.036505 479.71367 59.55463 479.90984 59.08316 480.1291 L 52.23638 483.3137 C 51.54022 483.6375 50.82165 483.91074 50.08625 484.13136 L 39.215864 487.3925 C 39.199143 487.3975 39.18243 487.40254 39.165724 487.4076 L 28.197637 490.7372 C 28.05974 490.77907 27.922414 490.8228 27.7857 490.86836 L 14.864464 495.17544 C 14.815343 495.1918 14.766142 495.20795 14.716864 495.22384 L 3.3494575 498.89075 C 2.710972 499.0967 2.0860728 499.34263 1.4784603 499.62704 L -6.453505 503.3399 C -6.823845 503.5132 -7.187403 503.7007 -7.543379 503.9019 L -13.489494 507.26276 C -14.742528 507.971 -15.184173 509.5609 -14.475937 510.81396 C -14.39882 510.9504 -14.309552 511.0796 -14.209219 511.2 L -13.345108 512.23693 C -12.590163 513.14287 -11.937686 514.1295 -11.399569 515.1788 L -8.322431 521.17924 C -8.246961 521.3264 -8.169213 521.4724 -8.089216 521.61715 L -4.1344636 528.77337 C -4.0509725 528.92445 -3.969932 529.07687 -3.8913732 529.23057 L .21693138 537.26856 C .4660006 537.75587 .6899036 538.25563 .8877574 538.7659 L 4.3705264 547.74776 C 4.3840296 547.7826 4.397655 547.81737 4.4114015 547.8521 L 8.007724 556.93754 C 8.129733 557.2458 8.242133 557.5577 8.344761 557.87294 L 10.966596 565.9257 C 10.98272 565.97524 10.998601 566.02484 11.014241 566.0745 L 14.086289 575.8328 C 14.28908 576.47695 14.450886 577.1333 14.570733 577.7979 L 16.556045 588.8074 C 16.579202 588.9358 16.600787 589.0645 16.620795 589.1934 L 18.326665 600.1868 C 18.369402 600.4622 18.404935 600.7387 18.433229 601.016 L 19.320649 609.7127 C 19.367382 610.1707 19.394327 610.6305 19.40141 611.0908 L 19.58565 623.0664 C 19.58907 623.2888 19.597127 623.51105 19.609815 623.7331 L 20.38019 637.21465 C 20.38725 637.3382 20.395745 637.4617 20.405671 637.58506 L 21.739241 654.1594 C 21.773588 654.5863 21.790782 655.0144 21.790782 655.44264 L 21.790782 667.8924 C 21.790782 668.09746 21.794723 668.3025 21.802603 668.50735 L 22.382954 683.5965 C 22.388172 683.7322 22.391663 683.8679 22.393426 684.00365 L 22.585585 698.7999 C 22.58905 699.0666 22.585843 699.3333 22.575972 699.5999 L 22.001744 715.104 C 21.994436 715.3013 21.990782 715.49875 21.990782 715.6962 L 21.990782 729.2924 C 21.990782 729.4975 21.98684 729.7025 21.97896 729.90736 L 21.393768 745.1224 C 21.391777 745.1741 21.389535 745.2259 21.38704 745.2776 L 20.59172 761.78055 C 20.591094 761.7935 20.590453 761.8065 20.589797 761.81945 L 19.795307 777.5106 C 19.79229 777.5702 19.78894 777.6298 19.785256 777.6893 L 18.596345 796.9101 C 18.592636 796.97 18.58859 797.03 18.584206 797.0899 L 16.801068 821.4594 C 16.79421 821.5531 16.786527 821.6468 16.77802 821.7404 L 14.992128 841.3852 C 14.99123 841.3951 14.990324 841.4049 14.989408 841.4148 L 13.218643 860.4997 C 13.20007 860.6999 13.177726 860.8997 13.151623 861.099 L 11.19091 876.0717 C 11.058099 877.0859 10.788958 878.0776 10.390781 879.0197 L 10.390781 879.0197 C 9.993206 879.9605 9.744538 880.9574 9.653714 881.9747 L 8.890781 890.5197 C 8.383025 896.2068 12.34149 901.3251 17.973455 902.2638 Z" stroke="#7f8080" stroke-linecap="round" stroke-linejoin="round" stroke-width="1"/>
      </g>
      <g id="Graphic_19">
        <path d="M -71 616.44615 L -64.8 620.84615 L -56.6 624.84615 L -48 628.44615 L -39 632.24615 L -28 636.24615 L -18.6 639.04615 L -9.599999 641.64615 L -.59999895 644.24615 L 4.800001 645.64615 L 10.400001 646.64615 L 12.800001 640.84615 L 15.400001 635.44615 L 17.600001 631.44615 L 20.200001 628.04615 L 20.400001 619.04615 L 19.800001 608.04615 L 18.000001 597.24615 L 16.400001 586.84615 L 13.800001 575.84614 L 11.400001 566.24614 L 8.600001 558.24614 L 5.400001 548.84614 L 2.600001 541.44614 L -.999999 533.84614 L -4.999999 526.24614 L -8.999999 518.84614 L -11.599999 515.24614 L -15.2 509.44614 L -20.6 513.84614 L -25.4 518.64614 L -30 524.84614 L -34.4 531.04614 L -39.2 539.64614 L -44 549.04614 L -48.8 558.24614 L -52.4 566.84614 L -56.4 575.84614 L -59.6 584.04615 L -63.4 593.44615 L -66.2 601.44615 L -69.2 609.84615 Z" fill="white"/>
        <path d="M -71 616.44615 L -64.8 620.84615 L -56.6 624.84615 L -48 628.44615 L -39 632.24615 L -28 636.24615 L -18.6 639.04615 L -9.599999 641.64615 L -.59999895 644.24615 L 4.800001 645.64615 L 10.400001 646.64615 L 12.800001 640.84615 L 15.400001 635.44615 L 17.600001 631.44615 L 20.200001 628.04615 L 20.400001 619.04615 L 19.800001 608.04615 L 18.000001 597.24615 L 16.400001 586.84615 L 13.800001 575.84614 L 11.400001 566.24614 L 8.600001 558.24614 L 5.400001 548.84614 L 2.600001 541.44614 L -.999999 533.84614 L -4.999999 526.24614 L -8.999999 518.84614 L -11.599999 515.24614 L -15.2 509.44614 L -20.6 513.84614 L -25.4 518.64614 L -30 524.84614 L -34.4 531.04614 L -39.2 539.64614 L -44 549.04614 L -48.8 558.24614 L -52.4 566.84614 L -56.4 575.84614 L -59.6 584.04615 L -63.4 593.44615 L -66.2 601.44615 L -69.2 609.84615 Z" stroke="#7f8080" stroke-linecap="round" stroke-linejoin="round" stroke-width="1"/>
      </g>
      <g id="Graphic_18">
        <path d="M 360.4053 615.50275 L 354.2053 619.90275 L 346.0053 623.90275 L 337.4053 627.50275 L 328.4053 631.30275 L 317.4053 635.30275 L 308.0053 638.10275 L 299.0053 640.70275 L 290.0053 643.30275 L 284.6053 644.70275 L 279.0053 645.70275 L 276.6053 639.90275 L 274.0053 634.50275 L 271.8053 630.50275 L 269.2053 627.10275 L 269.0053 618.10275 L 269.6053 607.10275 L 271.4053 596.30275 L 273.0053 585.90275 L 275.6053 574.90275 L 278.0053 565.30275 L 280.8053 557.30275 L 284.0053 547.90275 L 286.8053 540.50275 L 290.4053 532.90275 L 294.4053 525.30275 L 298.4053 517.90275 L 301.0053 514.30275 L 304.6053 508.50275 L 310.0053 512.90275 L 314.8053 517.70275 L 319.4053 523.90275 L 323.8053 530.10275 L 328.6053 538.70275 L 333.4053 548.10275 L 338.2053 557.30275 L 341.8053 565.90275 L 345.8053 574.90275 L 349.0053 583.10275 L 352.8053 592.50275 L 355.6053 600.50275 L 358.6053 608.90275 Z" fill="white"/>
        <path d="M 360.4053 615.50275 L 354.2053 619.90275 L 346.0053 623.90275 L 337.4053 627.50275 L 328.4053 631.30275 L 317.4053 635.30275 L 308.0053 638.10275 L 299.0053 640.70275 L 290.0053 643.30275 L 284.6053 644.70275 L 279.0053 645.70275 L 276.6053 639.90275 L 274.0053 634.50275 L 271.8053 630.50275 L 269.2053 627.10275 L 269.0053 618.10275 L 269.6053 607.10275 L 271.4053 596.30275 L 273.0053 585.90275 L 275.6053 574.90275 L 278.0053 565.30275 L 280.8053 557.30275 L 284.0053 547.90275 L 286.8053 540.50275 L 290.4053 532.90275 L 294.4053 525.30275 L 298.4053 517.90275 L 301.0053 514.30275 L 304.6053 508.50275 L 310.0053 512.90275 L 314.8053 517.70275 L 319.4053 523.90275 L 323.8053 530.10275 L 328.6053 538.70275 L 333.4053 548.10275 L 338.2053 557.30275 L 341.8053 565.90275 L 345.8053 574.90275 L 349.0053 583.10275 L 352.8053 592.50275 L 355.6053 600.50275 L 358.6053 608.90275 Z" stroke="#7f8080" stroke-linecap="round" stroke-linejoin="round" stroke-width="2"/>
      </g>
      <g id="Graphic_17">
        <path d="M -71 616.44615 L -64.8 620.84615 L -56.6 624.84615 L -48 628.44615 L -39 632.24615 L -28 636.24615 L -18.6 639.04615 L -9.599999 641.64615 L -.59999895 644.24615 L 4.800001 645.64615 L 10.400001 646.64615 L 13.400001 640.24615 L 9.600001 639.44615 L 4.800001 638.24615 L -.799999 637.04615 L -6.799999 635.24615 L -11.399999 633.84615 L -15.6 632.64615 L -20.2 630.64615 L -24.8 629.04615 L -29.6 627.04615 L -33.6 625.64615 L -38.8 623.44615 L -43.4 621.84615 L -48.2 619.64615 L -53 617.84615 L -57 615.84615 L -61.4 613.64615 L -65.8 611.44615 L -69.2 609.84615 Z" fill="#ff00fd"/>
        <path d="M -71 616.44615 L -64.8 620.84615 L -56.6 624.84615 L -48 628.44615 L -39 632.24615 L -28 636.24615 L -18.6 639.04615 L -9.599999 641.64615 L -.59999895 644.24615 L 4.800001 645.64615 L 10.400001 646.64615 L 13.400001 640.24615 L 9.600001 639.44615 L 4.800001 638.24615 L -.799999 637.04615 L -6.799999 635.24615 L -11.399999 633.84615 L -15.6 632.64615 L -20.2 630.64615 L -24.8 629.04615 L -29.6 627.04615 L -33.6 625.64615 L -38.8 623.44615 L -43.4 621.84615 L -48.2 619.64615 L -53 617.84615 L -57 615.84615 L -61.4 613.64615 L -65.8 611.44615 L -69.2 609.84615 Z" stroke="#7f8080" stroke-linecap="round" stroke-linejoin="round" stroke-width="1"/>
      </g>
      <g id="Graphic_16">
        <path d="M 360.4053 615.50275 L 354.2053 619.90275 L 346.0053 623.90275 L 337.4053 627.50275 L 328.4053 631.30275 L 317.4053 635.30275 L 308.0053 638.10275 L 299.0053 640.70275 L 290.0053 643.30275 L 284.6053 644.70275 L 279.0053 645.70275 L 276.0053 639.30275 L 279.8053 638.50275 L 284.6053 637.30275 L 290.2053 636.10275 L 296.2053 634.30275 L 300.8053 632.90275 L 305.0053 631.70275 L 309.6053 629.70275 L 314.2053 628.10275 L 319.0053 626.10275 L 323.0053 624.70275 L 328.2053 622.50275 L 332.8053 620.90275 L 337.6053 618.70275 L 342.4053 616.90275 L 346.4053 614.90275 L 350.8053 612.70275 L 355.2053 610.50275 L 358.6053 608.90275 Z" fill="#ff00fd"/>
        <path d="M 360.4053 615.50275 L 354.2053 619.90275 L 346.0053 623.90275 L 337.4053 627.50275 L 328.4053 631.30275 L 317.4053 635.30275 L 308.0053 638.10275 L 299.0053 640.70275 L 290.0053 643.30275 L 284.6053 644.70275 L 279.0053 645.70275 L 276.0053 639.30275 L 279.8053 638.50275 L 284.6053 637.30275 L 290.2053 636.10275 L 296.2053 634.30275 L 300.8053 632.90275 L 305.0053 631.70275 L 309.6053 629.70275 L 314.2053 628.10275 L 319.0053 626.10275 L 323.0053 624.70275 L 328.2053 622.50275 L 332.8053 620.90275 L 337.6053 618.70275 L 342.4053 616.90275 L 346.4053 614.90275 L 350.8053 612.70275 L 355.2053 610.50275 L 358.6053 608.90275 Z" stroke="#7f8080" stroke-linecap="round" stroke-linejoin="round" stroke-width="1"/>
      </g>
      <g id="Graphic_15">
        <path d="M 79.57212 466.9638 L 74.84295 471.01736 C 73.6926 472.0034 72.44764 472.8733 71.12621 473.6145 L 68.59958 475.03165 C 67.16441 475.8366 66.5836 477.60575 67.26239 479.10473 L 68.280006 481.35197 C 68.401585 481.62046 68.52831 481.8866 68.66012 482.1502 L 72.94938 490.7287 C 73.29117 491.4123 73.66683 492.07843 74.07495 492.7246 L 76.40134 496.4081 C 76.84172 497.10535 77.31928 497.7784 77.83195 498.4244 L 81.24264 502.72185 C 81.78869 503.4099 82.37371 504.06606 82.99482 504.68717 L 87.66087 509.3532 C 88.06175 509.7541 88.47731 510.14 88.90671 510.5102 L 93.47023 514.44426 C 93.86489 514.7845 94.271 515.1112 94.68785 515.4238 L 98.66279 518.40503 C 99.3287 518.90447 100.02123 519.3674 100.73733 519.79174 L 104.8704 522.24096 C 104.99839 522.3168 105.12712 522.3914 105.25656 522.46477 L 109.95411 525.1267 C 110.6924 525.5451 111.45328 525.92226 112.23325 526.25653 L 115.78307 527.7779 C 116.36903 528.029 116.96518 528.25567 117.56997 528.45726 L 122.58808 530.12997 C 123.83532 530.5457 125.11592 530.85376 126.4158 531.0507 L 130.51464 531.67174 C 130.87976 531.72706 131.24615 531.7736 131.6135 531.81126 L 138.4946 532.517 C 138.73978 532.54216 138.98534 532.56336 139.2312 532.5806 L 143.75835 532.8983 C 144.29421 532.9359 144.83122 532.95473 145.3684 532.95473 L 148.63046 532.95474 C 149.58416 532.95474 150.53693 532.8954 151.48327 532.7771 L 155.47198 532.27854 C 156.13195 532.19604 156.78802 532.08496 157.43835 531.9456 L 163.52039 530.6423 C 164.41426 530.45076 165.29592 530.2061 166.16068 529.9096 L 170.66952 528.3637 C 171.46417 528.0913 172.2433 527.7755 173.0034 527.4178 L 177.83677 525.14326 C 178.38697 524.88435 178.92668 524.6037 179.45464 524.302 L 183.2225 522.14896 C 183.9153 521.7531 184.58701 521.3214 185.23494 520.8557 L 189.91106 517.49475 C 190.41175 517.1349 190.89776 516.75503 191.36792 516.3561 L 196.68877 511.84144 C 197.07108 511.51706 197.44269 511.18026 197.80298 510.8316 L 202.5022 506.28396 C 203.1418 505.665 203.7449 505.00944 204.30852 504.3206 L 208.1018 499.68434 C 208.60852 499.065 209.08257 498.4197 209.52201 497.75096 L 213.1392 492.24656 C 213.35462 491.91873 213.56163 491.58544 213.76002 491.247 L 216.2831 486.9429 C 216.66906 486.28454 217.022 485.60735 217.34062 484.9139 L 219.45932 480.3026 C 219.99218 479.14285 220.36334 477.91544 220.5624 476.65474 L 220.5624 476.65474 C 220.7407 475.5255 220.1614 474.412 219.13432 473.9099 L 213.84088 471.322 C 212.52642 470.67937 211.29183 469.88486 210.1624 468.95474 L 209.75638 468.6204 C 208.91205 467.92504 208.28864 466.99874 207.9624 465.95474 L 207.9624 465.95474 C 207.91573 465.8054 207.75686 465.7222 207.60754 465.76886 C 207.49247 465.8048 207.41277 465.9097 207.40892 466.0302 L 207.29968 469.4531 C 207.20894 472.2962 206.5916 475.09776 205.479 477.71567 L 204.60206 479.77904 C 204.0435 481.0933 203.36374 482.3527 202.5716 483.5409 L 198.88582 489.0696 C 198.13831 490.19085 197.2937 491.24425 196.36175 492.2176 L 190.06668 498.7925 C 189.1986 499.6991 188.25777 500.5332 187.2536 501.2863 L 178.8787 507.5675 C 178.00228 508.2248 177.08002 508.8187 176.11896 509.34454 L 168.93376 513.27606 C 167.62263 513.99347 166.2447 514.5814 164.81952 515.03143 L 158.1466 517.13867 C 156.42973 517.68084 154.65514 518.01954 152.85927 518.1478 L 145.97281 518.6397 C 144.90052 518.7163 143.82417 518.7176 142.75168 518.64365 L 134.31543 518.06184 C 133.28125 517.9905 132.25308 517.84936 131.23795 517.63933 L 124.10274 516.1631 C 122.15079 515.75923 120.25961 515.10335 118.47676 514.2119 L 113.81735 511.8822 C 112.58321 511.26515 111.4071 510.5383 110.30326 509.7104 L 104.6213 505.4489 C 104.18217 505.11957 103.75496 504.7746 103.34051 504.4147 L 97.58533 499.41676 C 96.77104 498.7096 96.0075 497.9461 95.30036 497.1318 L 90.89513 492.0591 C 90.14103 491.19075 89.45312 490.26705 88.8372 489.2958 L 85.1035 483.408 C 84.74293 482.83944 84.40751 482.2553 84.09819 481.6573 L 82.47781 478.52456 C 81.86867 477.3469 81.3625 476.11874 80.96497 474.85385 L 79.68473 470.78036 C 79.46995 470.097 79.28722 469.40395 79.13713 468.7035 L 78.91171 467.65157 C 78.82664 467.25456 79.05299 466.8569 79.4378 466.72737 L 79.4378 466.72737 C 79.51029 466.70296 79.58884 466.74195 79.61325 466.81444 C 79.63126 466.86795 79.61499 466.92704 79.57212 466.9638 Z" fill="#ff00fd"/>
        <path d="M 79.57212 466.9638 L 74.84295 471.01736 C 73.6926 472.0034 72.44764 472.8733 71.12621 473.6145 L 68.59958 475.03165 C 67.16441 475.8366 66.5836 477.60575 67.26239 479.10473 L 68.280006 481.35197 C 68.401585 481.62046 68.52831 481.8866 68.66012 482.1502 L 72.94938 490.7287 C 73.29117 491.4123 73.66683 492.07843 74.07495 492.7246 L 76.40134 496.4081 C 76.84172 497.10535 77.31928 497.7784 77.83195 498.4244 L 81.24264 502.72185 C 81.78869 503.4099 82.37371 504.06606 82.99482 504.68717 L 87.66087 509.3532 C 88.06175 509.7541 88.47731 510.14 88.90671 510.5102 L 93.47023 514.44426 C 93.86489 514.7845 94.271 515.1112 94.68785 515.4238 L 98.66279 518.40503 C 99.3287 518.90447 100.02123 519.3674 100.73733 519.79174 L 104.8704 522.24096 C 104.99839 522.3168 105.12712 522.3914 105.25656 522.46477 L 109.95411 525.1267 C 110.6924 525.5451 111.45328 525.92226 112.23325 526.25653 L 115.78307 527.7779 C 116.36903 528.029 116.96518 528.25567 117.56997 528.45726 L 122.58808 530.12997 C 123.83532 530.5457 125.11592 530.85376 126.4158 531.0507 L 130.51464 531.67174 C 130.87976 531.72706 131.24615 531.7736 131.6135 531.81126 L 138.4946 532.517 C 138.73978 532.54216 138.98534 532.56336 139.2312 532.5806 L 143.75835 532.8983 C 144.29421 532.9359 144.83122 532.95473 145.3684 532.95473 L 148.63046 532.95474 C 149.58416 532.95474 150.53693 532.8954 151.48327 532.7771 L 155.47198 532.27854 C 156.13195 532.19604 156.78802 532.08496 157.43835 531.9456 L 163.52039 530.6423 C 164.41426 530.45076 165.29592 530.2061 166.16068 529.9096 L 170.66952 528.3637 C 171.46417 528.0913 172.2433 527.7755 173.0034 527.4178 L 177.83677 525.14326 C 178.38697 524.88435 178.92668 524.6037 179.45464 524.302 L 183.2225 522.14896 C 183.9153 521.7531 184.58701 521.3214 185.23494 520.8557 L 189.91106 517.49475 C 190.41175 517.1349 190.89776 516.75503 191.36792 516.3561 L 196.68877 511.84144 C 197.07108 511.51706 197.44269 511.18026 197.80298 510.8316 L 202.5022 506.28396 C 203.1418 505.665 203.7449 505.00944 204.30852 504.3206 L 208.1018 499.68434 C 208.60852 499.065 209.08257 498.4197 209.52201 497.75096 L 213.1392 492.24656 C 213.35462 491.91873 213.56163 491.58544 213.76002 491.247 L 216.2831 486.9429 C 216.66906 486.28454 217.022 485.60735 217.34062 484.9139 L 219.45932 480.3026 C 219.99218 479.14285 220.36334 477.91544 220.5624 476.65474 L 220.5624 476.65474 C 220.7407 475.5255 220.1614 474.412 219.13432 473.9099 L 213.84088 471.322 C 212.52642 470.67937 211.29183 469.88486 210.1624 468.95474 L 209.75638 468.6204 C 208.91205 467.92504 208.28864 466.99874 207.9624 465.95474 L 207.9624 465.95474 C 207.91573 465.8054 207.75686 465.7222 207.60754 465.76886 C 207.49247 465.8048 207.41277 465.9097 207.40892 466.0302 L 207.29968 469.4531 C 207.20894 472.2962 206.5916 475.09776 205.479 477.71567 L 204.60206 479.77904 C 204.0435 481.0933 203.36374 482.3527 202.5716 483.5409 L 198.88582 489.0696 C 198.13831 490.19085 197.2937 491.24425 196.36175 492.2176 L 190.06668 498.7925 C 189.1986 499.6991 188.25777 500.5332 187.2536 501.2863 L 178.8787 507.5675 C 178.00228 508.2248 177.08002 508.8187 176.11896 509.34454 L 168.93376 513.27606 C 167.62263 513.99347 166.2447 514.5814 164.81952 515.03143 L 158.1466 517.13867 C 156.42973 517.68084 154.65514 518.01954 152.85927 518.1478 L 145.97281 518.6397 C 144.90052 518.7163 143.82417 518.7176 142.75168 518.64365 L 134.31543 518.06184 C 133.28125 517.9905 132.25308 517.84936 131.23795 517.63933 L 124.10274 516.1631 C 122.15079 515.75923 120.25961 515.10335 118.47676 514.2119 L 113.81735 511.8822 C 112.58321 511.26515 111.4071 510.5383 110.30326 509.7104 L 104.6213 505.4489 C 104.18217 505.11957 103.75496 504.7746 103.34051 504.4147 L 97.58533 499.41676 C 96.77104 498.7096 96.0075 497.9461 95.30036 497.1318 L 90.89513 492.0591 C 90.14103 491.19075 89.45312 490.26705 88.8372 489.2958 L 85.1035 483.408 C 84.74293 482.83944 84.40751 482.2553 84.09819 481.6573 L 82.47781 478.52456 C 81.86867 477.3469 81.3625 476.11874 80.96497 474.85385 L 79.68473 470.78036 C 79.46995 470.097 79.28722 469.40395 79.13713 468.7035 L 78.91171 467.65157 C 78.82664 467.25456 79.05299 466.8569 79.4378 466.72737 L 79.4378 466.72737 C 79.51029 466.70296 79.58884 466.74195 79.61325 466.81444 C 79.63126 466.86795 79.61499 466.92704 79.57212 466.9638 Z" stroke="#7f8080" stroke-linecap="round" stroke-linejoin="round" stroke-width="1"/>
      </g>
      <g id="Graphic_14">
        <path d="M 79.05925 466.7559 L 84.45925 466.1559 L 91.25925 469.5559 L 96.25925 471.3559 L 104.65925 473.1559 L 113.05925 474.1559 L 121.05925 475.1559 L 128.65925 475.3559 L 137.25925 475.7559 L 148.85925 475.5559 L 157.25925 475.1559 L 166.65925 474.5559 L 175.05925 473.7559 L 184.25925 472.3559 L 192.45925 470.1559 L 198.25925 468.3559 L 203.85925 465.7559 L 206.65925 466.9559 L 207.05925 472.5559 L 204.25925 480.5559 L 198.85925 483.3559 L 188.25925 486.5559 L 176.85925 488.9559 L 165.65925 489.7559 L 153.25925 490.7559 L 142.85925 490.7559 L 133.45925 490.7559 L 121.85925 490.1559 L 110.65925 489.3559 L 100.05925 487.1559 L 91.45925 485.1559 L 85.25925 482.3559 L 83.25925 480.7559 L 80.05925 473.1559 Z" fill="#ff00fd"/>
        <path d="M 79.05925 466.7559 L 84.45925 466.1559 L 91.25925 469.5559 L 96.25925 471.3559 L 104.65925 473.1559 L 113.05925 474.1559 L 121.05925 475.1559 L 128.65925 475.3559 L 137.25925 475.7559 L 148.85925 475.5559 L 157.25925 475.1559 L 166.65925 474.5559 L 175.05925 473.7559 L 184.25925 472.3559 L 192.45925 470.1559 L 198.25925 468.3559 L 203.85925 465.7559 L 206.65925 466.9559 L 207.05925 472.5559 L 204.25925 480.5559 L 198.85925 483.3559 L 188.25925 486.5559 L 176.85925 488.9559 L 165.65925 489.7559 L 153.25925 490.7559 L 142.85925 490.7559 L 133.45925 490.7559 L 121.85925 490.1559 L 110.65925 489.3559 L 100.05925 487.1559 L 91.45925 485.1559 L 85.25925 482.3559 L 83.25925 480.7559 L 80.05925 473.1559 Z" stroke="#7f8080" stroke-linecap="round" stroke-linejoin="round" stroke-width="1"/>
      </g>
      <g id="Graphic_13">
        <path d="M 8.813213 892.2 L 8.813213 892.2 C 8.747529 892.7255 8.810355 893.2591 8.996298 893.7549 L 9.647306 895.4909 C 9.824062 895.9623 10.051147 896.4132 10.32462 896.8358 L 11.292434 898.3315 C 11.833392 899.1676 12.546494 899.8785 13.384121 900.417 L 14.46217 901.11 C 14.762426 901.3031 15.077006 901.4728 15.403157 901.6179 L 16.720011 902.2035 C 17.31654 902.4688 17.947246 902.6493 18.593793 902.7398 L 27.604213 904.0013 C 27.614207 904.0027 27.624203 904.004 27.634203 904.0054 L 39.3502 905.594 C 39.3962 905.6002 39.442263 905.606 39.48838 905.6113 L 49.771315 906.7978 C 49.80324 906.8015 49.83519 906.805 49.867165 906.8082 L 63.57723 908.1991 C 63.60521 908.2019 63.63321 908.2046 63.661226 908.2071 L 74.76653 909.1987 C 74.80164 909.2018 74.83679 909.2047 74.87195 909.2073 L 85.55848 909.9989 C 85.59896 910.0019 85.63947 910.0045 85.67999 910.0068 L 96.18798 910.6016 C 96.2088 910.6028 96.22961 910.604 96.25042 910.6054 L 108.29319 911.3951 C 108.3772 911.4006 108.46129 911.4046 108.54543 911.4071 L 121.99256 911.8026 C 122.01032 911.8031 122.02809 911.8037 122.04585 911.8043 L 132.68971 912.1986 C 132.77603 912.2018 132.8624 912.2034 132.94879 912.2034 L 143.5578 912.2034 C 143.59874 912.2034 143.63967 912.2037 143.6806 912.2044 L 154.76702 912.3989 C 154.93509 912.4019 155.10321 912.3988 155.27106 912.3896 L 165.89229 911.8103 C 165.9769 911.8057 166.06157 911.8026 166.14629 911.801 L 176.91085 911.6053 C 176.98308 911.604 177.0553 911.6016 177.12745 911.598 L 189.14607 911.007 C 189.19483 911.0046 189.24355 911.0016 189.29225 910.9982 L 200.5323 910.2095 C 200.59023 910.2054 200.64812 910.2006 200.70594 910.1951 L 213.1165 909.0131 C 213.18497 909.0066 213.25352 909.0011 213.32214 908.9966 L 225.25416 908.2142 C 225.36418 908.207 225.474 908.1972 225.58355 908.1847 L 235.9959 907.006 C 236.01144 907.0042 236.02697 907.0024 236.0425 907.0006 L 245.9902 905.8068 C 246.00954 905.8045 246.02886 905.8021 246.04818 905.7996 L 259.88394 904.0221 C 259.98115 904.0096 260.0781 903.9951 260.1747 903.9785 L 266.7282 902.8551 C 266.92915 902.8206 267.13153 902.795 267.33473 902.7782 L 270.56706 902.5112 C 271.4563 902.4377 272.3233 902.195 273.12135 901.7959 L 274.60765 901.0528 C 275.20824 900.7525 275.7625 900.3674 276.25338 899.9092 L 277.5885 898.6631 C 278.19532 898.0967 278.65073 897.3875 278.91322 896.6 L 279.20805 895.7155 C 279.27812 895.5053 279.33817 895.2919 279.388 895.0759 L 279.8577 893.0406 C 279.89293 892.8879 279.8595 892.7275 279.7662 892.6017 L 279.7662 892.6017 C 279.67587 892.4798 279.52523 892.4183 279.3754 892.4421 L 270.89555 893.7912 C 270.84466 893.7993 270.79385 893.808 270.74315 893.8172 L 257.7584 896.178 C 257.6656 896.1949 257.5725 896.2099 257.4791 896.223 L 246.24943 897.7991 C 246.22928 897.8019 246.20914 897.8049 246.18902 897.8079 L 233.06643 899.7665 C 232.90167 899.791 232.73608 899.8097 232.56998 899.8225 L 219.84517 900.8014 C 219.82786 900.8027 219.81055 900.804 219.79323 900.8052 L 205.45308 901.801 C 205.4305 901.8026 205.4079 901.804 205.3853 901.8054 L 192.08205 902.5996 C 192.04016 902.6021 191.99824 902.6042 191.9563 902.606 L 177.76485 903.1973 C 177.66776 903.2013 177.5706 903.2034 177.47344 903.2034 L 151.67753 903.2034 C 151.63865 903.2034 151.59976 903.2037 151.56088 903.2043 L 139.8025 903.4003 C 139.68032 903.4023 139.55812 903.4012 139.436 903.3968 L 128.6024 903.0099 C 128.4803 903.0055 128.35809 903.0044 128.23591 903.0064 L 116.52127 903.2017 C 116.45323 903.2028 116.38518 903.2029 116.31713 903.2021 L 100.61484 903.0058 C 100.48444 903.0042 100.35411 902.9989 100.22401 902.99 L 85.91423 902.0099 C 85.85088 902.0055 85.7876 902.0003 85.72439 901.9943 L 71.23339 900.6047 C 71.22393 900.6038 71.21448 900.6029 71.20503 900.6019 L 57.39299 899.2207 C 57.27715 899.2091 57.16162 899.1947 57.0465 899.1773 L 42.737347 897.0212 C 42.65859 897.0093 42.579637 896.9988 42.50052 896.9896 L 28.98059 895.4221 C 28.873013 895.4096 28.76574 895.3946 28.65886 895.3772 L 19.26677 893.8438 C 19.10178 893.8168 18.937805 893.784 18.775164 893.7453 L 9.697565 891.5865 C 9.309246 891.4942 8.919589 891.7341 8.827241 892.1224 C 8.821158 892.148 8.816475 892.1739 8.813213 892.2 Z" fill="#ff00fd"/>
        <path d="M 8.813213 892.2 L 8.813213 892.2 C 8.747529 892.7255 8.810355 893.2591 8.996298 893.7549 L 9.647306 895.4909 C 9.824062 895.9623 10.051147 896.4132 10.32462 896.8358 L 11.292434 898.3315 C 11.833392 899.1676 12.546494 899.8785 13.384121 900.417 L 14.46217 901.11 C 14.762426 901.3031 15.077006 901.4728 15.403157 901.6179 L 16.720011 902.2035 C 17.31654 902.4688 17.947246 902.6493 18.593793 902.7398 L 27.604213 904.0013 C 27.614207 904.0027 27.624203 904.004 27.634203 904.0054 L 39.3502 905.594 C 39.3962 905.6002 39.442263 905.606 39.48838 905.6113 L 49.771315 906.7978 C 49.80324 906.8015 49.83519 906.805 49.867165 906.8082 L 63.57723 908.1991 C 63.60521 908.2019 63.63321 908.2046 63.661226 908.2071 L 74.76653 909.1987 C 74.80164 909.2018 74.83679 909.2047 74.87195 909.2073 L 85.55848 909.9989 C 85.59896 910.0019 85.63947 910.0045 85.67999 910.0068 L 96.18798 910.6016 C 96.2088 910.6028 96.22961 910.604 96.25042 910.6054 L 108.29319 911.3951 C 108.3772 911.4006 108.46129 911.4046 108.54543 911.4071 L 121.99256 911.8026 C 122.01032 911.8031 122.02809 911.8037 122.04585 911.8043 L 132.68971 912.1986 C 132.77603 912.2018 132.8624 912.2034 132.94879 912.2034 L 143.5578 912.2034 C 143.59874 912.2034 143.63967 912.2037 143.6806 912.2044 L 154.76702 912.3989 C 154.93509 912.4019 155.10321 912.3988 155.27106 912.3896 L 165.89229 911.8103 C 165.9769 911.8057 166.06157 911.8026 166.14629 911.801 L 176.91085 911.6053 C 176.98308 911.604 177.0553 911.6016 177.12745 911.598 L 189.14607 911.007 C 189.19483 911.0046 189.24355 911.0016 189.29225 910.9982 L 200.5323 910.2095 C 200.59023 910.2054 200.64812 910.2006 200.70594 910.1951 L 213.1165 909.0131 C 213.18497 909.0066 213.25352 909.0011 213.32214 908.9966 L 225.25416 908.2142 C 225.36418 908.207 225.474 908.1972 225.58355 908.1847 L 235.9959 907.006 C 236.01144 907.0042 236.02697 907.0024 236.0425 907.0006 L 245.9902 905.8068 C 246.00954 905.8045 246.02886 905.8021 246.04818 905.7996 L 259.88394 904.0221 C 259.98115 904.0096 260.0781 903.9951 260.1747 903.9785 L 266.7282 902.8551 C 266.92915 902.8206 267.13153 902.795 267.33473 902.7782 L 270.56706 902.5112 C 271.4563 902.4377 272.3233 902.195 273.12135 901.7959 L 274.60765 901.0528 C 275.20824 900.7525 275.7625 900.3674 276.25338 899.9092 L 277.5885 898.6631 C 278.19532 898.0967 278.65073 897.3875 278.91322 896.6 L 279.20805 895.7155 C 279.27812 895.5053 279.33817 895.2919 279.388 895.0759 L 279.8577 893.0406 C 279.89293 892.8879 279.8595 892.7275 279.7662 892.6017 L 279.7662 892.6017 C 279.67587 892.4798 279.52523 892.4183 279.3754 892.4421 L 270.89555 893.7912 C 270.84466 893.7993 270.79385 893.808 270.74315 893.8172 L 257.7584 896.178 C 257.6656 896.1949 257.5725 896.2099 257.4791 896.223 L 246.24943 897.7991 C 246.22928 897.8019 246.20914 897.8049 246.18902 897.8079 L 233.06643 899.7665 C 232.90167 899.791 232.73608 899.8097 232.56998 899.8225 L 219.84517 900.8014 C 219.82786 900.8027 219.81055 900.804 219.79323 900.8052 L 205.45308 901.801 C 205.4305 901.8026 205.4079 901.804 205.3853 901.8054 L 192.08205 902.5996 C 192.04016 902.6021 191.99824 902.6042 191.9563 902.606 L 177.76485 903.1973 C 177.66776 903.2013 177.5706 903.2034 177.47344 903.2034 L 151.67753 903.2034 C 151.63865 903.2034 151.59976 903.2037 151.56088 903.2043 L 139.8025 903.4003 C 139.68032 903.4023 139.55812 903.4012 139.436 903.3968 L 128.6024 903.0099 C 128.4803 903.0055 128.35809 903.0044 128.23591 903.0064 L 116.52127 903.2017 C 116.45323 903.2028 116.38518 903.2029 116.31713 903.2021 L 100.61484 903.0058 C 100.48444 903.0042 100.35411 902.9989 100.22401 902.99 L 85.91423 902.0099 C 85.85088 902.0055 85.7876 902.0003 85.72439 901.9943 L 71.23339 900.6047 C 71.22393 900.6038 71.21448 900.6029 71.20503 900.6019 L 57.39299 899.2207 C 57.27715 899.2091 57.16162 899.1947 57.0465 899.1773 L 42.737347 897.0212 C 42.65859 897.0093 42.579637 896.9988 42.50052 896.9896 L 28.98059 895.4221 C 28.873013 895.4096 28.76574 895.3946 28.65886 895.3772 L 19.26677 893.8438 C 19.10178 893.8168 18.937805 893.784 18.775164 893.7453 L 9.697565 891.5865 C 9.309246 891.4942 8.919589 891.7341 8.827241 892.1224 C 8.821158 892.148 8.816475 892.1739 8.813213 892.2 Z" stroke="#7f8080" stroke-linecap="round" stroke-linejoin="round" stroke-width="1"/>
      </g>
      <g id="Graphic_12">
        <path d="M 151 645 L 304.18627 508.50275 L 292.2 528.6 L 285.36726 543.6 L 281.36726 555.4 L 277.8 564 L 275.2 573.2 L 271.4 591.8 L 268.8 607.4 L 268.96726 618 L 268.76726 626.2 L 153 733 L 21.186273 626.50275 L 20.2 610.4 L 18.4 596 L 15.6 579.2 L 12.186273 566.50275 L 6.8000006 550.6 L 2.1862733 538.50275 L -5.7999996 524 L -8.8 518.4 L -11.813727 514.50275 L -14.813727 508.50275 L -13.813727 510.50275 Z" fill="white"/>
        <path d="M 151 645 L 304.18627 508.50275 L 292.2 528.6 L 285.36726 543.6 L 281.36726 555.4 L 277.8 564 L 275.2 573.2 L 271.4 591.8 L 268.8 607.4 L 268.96726 618 L 268.76726 626.2 L 153 733 L 21.186273 626.50275 L 20.2 610.4 L 18.4 596 L 15.6 579.2 L 12.186273 566.50275 L 6.8000006 550.6 L 2.1862733 538.50275 L -5.7999996 524 L -8.8 518.4 L -11.813727 514.50275 L -14.813727 508.50275 L -13.813727 510.50275 Z" stroke="#a5a5a5" stroke-linecap="round" stroke-linejoin="round" stroke-width=".5"/>
      </g>
    </g>
  </g>
</svg>
