<?xml version="1.0" encoding="UTF-8" standalone="no"?>
<!DOCTYPE svg PUBLIC "-//W3C//DTD SVG 1.1//EN" "http://www.w3.org/Graphics/SVG/1.1/DTD/svg11.dtd">
<svg xmlns:xl="http://www.w3.org/1999/xlink" xmlns:dc="http://purl.org/dc/elements/1.1/" xmlns="http://www.w3.org/2000/svg" version="1.1" viewBox="-39 -209 433 449" width="433" height="449">
  <defs>
    <radialGradient cx="0" cy="0" r="1" id="Gradient" gradientUnits="userSpaceOnUse">
      <stop offset="0" stop-color="#cbcbcb"/>
      <stop offset=".4338305" stop-color="#a9887c"/>
      <stop offset="1" stop-color="#843918"/>
    </radialGradient>
    <radialGradient id="Obj_Gradient" xl:href="#Gradient" gradientTransform="translate(176.75925 -180.6) scale(70.26272)"/>
    <radialGradient cx="0" cy="0" r="1" id="Gradient_2" gradientUnits="userSpaceOnUse">
      <stop offset="0" stop-color="#ededeb"/>
      <stop offset="1" stop-color="#e65dcd"/>
    </radialGradient>
    <radialGradient id="Obj_Gradient_2" xl:href="#Gradient_2" gradientTransform="translate(4.2000006 -44.753854) scale(46.03694)"/>
    <radialGradient id="Obj_Gradient_3" xl:href="#Gradient_2" gradientTransform="translate(351.2053 -45.69725) scale(46.03694)"/>
    <linearGradient x1="0" x2="1" id="Gradient_3" gradientUnits="userSpaceOnUse">
      <stop offset="0" stop-color="#ededeb"/>
      <stop offset="1" stop-color="#e65dcd"/>
    </linearGradient>
    <linearGradient id="Obj_Gradient_4" xl:href="#Gradient_3" gradientTransform="translate(176.05925 -207.2441) rotate(90) scale(25)"/>
    <radialGradient id="Obj_Gradient_5" xl:href="#Gradient_2" gradientTransform="translate(177.32968 228.98339) scale(135.94141)"/>
    <radialGradient id="Obj_Gradient_6" xl:href="#Gradient_2" gradientTransform="translate(176.78697 -173.64469) scale(83.83496)"/>
  </defs>
  <metadata> Produced by OmniGraffle 7.19.2\n2023-12-06 01:13:20 +0000</metadata>
  <g id="Canvas_164" stroke-opacity="1" fill-opacity="1" stroke-dasharray="none" fill="none" stroke="none">
    <title>Canvas 164</title>
    <g id="Canvas_164_Capa_1">
      <title>Capa 1</title>
      <g id="Graphic_23">
        <path d="M 115.00565 -207.40955 L 123.1711 -204.29184 C 124.0291 -203.96424 124.90594 -203.68833 125.79692 -203.46558 L 139.5141 -200.03629 C 140.67576 -199.74587 141.85832 -199.54662 143.051 -199.44034 L 160.57715 -197.8786 C 161.165 -197.82622 161.75464 -197.79648 162.34478 -197.78946 L 177.8237 -197.60519 C 178.11404 -197.60173 178.40442 -197.60377 178.69469 -197.6113 L 193.118 -197.98594 C 193.47878 -197.99531 193.8393 -198.01317 194.19924 -198.0395 L 208.57053 -199.09107 C 209.56197 -199.16361 210.54766 -199.30036 211.5214 -199.50044 L 223.09436 -201.87845 C 224.13637 -202.09256 225.16226 -202.3787 226.16465 -202.73481 L 237.91664 -206.90986 C 239.00702 -207.29723 240.21021 -206.76646 240.65925 -205.7 L 240.65925 -205.7 C 241.1814 -204.4599 241.33338 -203.09515 241.09685 -201.77055 L 240.91637 -200.75986 C 240.6126 -199.0587 240.11806 -197.3972 239.44214 -195.80681 L 237.89892 -192.1757 C 237.34035 -190.86142 236.6606 -189.60202 235.86846 -188.41382 L 232.18268 -182.88515 C 231.43517 -181.76389 230.59057 -180.71049 229.6586 -179.7371 L 223.36354 -173.16226 C 222.49547 -172.2556 221.55463 -171.42154 220.55046 -170.6684 L 212.17555 -164.38723 C 211.29914 -163.72992 210.37688 -163.13606 209.41582 -162.6102 L 202.23062 -158.67867 C 200.9195 -157.96126 199.54156 -157.37336 198.11638 -156.9233 L 191.44347 -154.81607 C 189.7266 -154.2739 187.952 -153.9352 186.15613 -153.80692 L 179.26968 -153.31503 C 178.19738 -153.23844 177.12103 -153.23712 176.04854 -153.31108 L 167.61229 -153.8929 C 166.57811 -153.96422 165.54994 -154.10537 164.5348 -154.3154 L 157.3996 -155.79165 C 155.44765 -156.1955 153.55647 -156.85139 151.77362 -157.74281 L 147.1142 -160.07252 C 145.88007 -160.68959 144.70397 -161.41646 143.60012 -162.24434 L 137.91816 -166.50581 C 137.47903 -166.83517 137.05182 -167.18013 136.63737 -167.54005 L 130.88219 -172.53797 C 130.0679 -173.24511 129.30436 -174.00865 128.59722 -174.82294 L 124.192 -179.89562 C 123.43789 -180.76398 122.74998 -181.68768 122.13406 -182.65895 L 118.40036 -188.54671 C 118.03979 -189.1153 117.70437 -189.69944 117.39505 -190.29745 L 115.77468 -193.43017 C 115.16553 -194.60785 114.65936 -195.836 114.26183 -197.1009 L 112.98159 -201.17438 C 112.76681 -201.85775 112.58408 -202.5508 112.43399 -203.25122 L 112.35925 -203.6 C 112.16458 -204.50843 112.27185 -205.45557 112.66473 -206.29746 L 112.75925 -206.5 C 113.15372 -207.3453 114.1342 -207.7423 115.00565 -207.40955 Z" fill="url(#Obj_Gradient)"/>
        <path d="M 115.00565 -207.40955 L 123.1711 -204.29184 C 124.0291 -203.96424 124.90594 -203.68833 125.79692 -203.46558 L 139.5141 -200.03629 C 140.67576 -199.74587 141.85832 -199.54662 143.051 -199.44034 L 160.57715 -197.8786 C 161.165 -197.82622 161.75464 -197.79648 162.34478 -197.78946 L 177.8237 -197.60519 C 178.11404 -197.60173 178.40442 -197.60377 178.69469 -197.6113 L 193.118 -197.98594 C 193.47878 -197.99531 193.8393 -198.01317 194.19924 -198.0395 L 208.57053 -199.09107 C 209.56197 -199.16361 210.54766 -199.30036 211.5214 -199.50044 L 223.09436 -201.87845 C 224.13637 -202.09256 225.16226 -202.3787 226.16465 -202.73481 L 237.91664 -206.90986 C 239.00702 -207.29723 240.21021 -206.76646 240.65925 -205.7 L 240.65925 -205.7 C 241.1814 -204.4599 241.33338 -203.09515 241.09685 -201.77055 L 240.91637 -200.75986 C 240.6126 -199.0587 240.11806 -197.3972 239.44214 -195.80681 L 237.89892 -192.1757 C 237.34035 -190.86142 236.6606 -189.60202 235.86846 -188.41382 L 232.18268 -182.88515 C 231.43517 -181.76389 230.59057 -180.71049 229.6586 -179.7371 L 223.36354 -173.16226 C 222.49547 -172.2556 221.55463 -171.42154 220.55046 -170.6684 L 212.17555 -164.38723 C 211.29914 -163.72992 210.37688 -163.13606 209.41582 -162.6102 L 202.23062 -158.67867 C 200.9195 -157.96126 199.54156 -157.37336 198.11638 -156.9233 L 191.44347 -154.81607 C 189.7266 -154.2739 187.952 -153.9352 186.15613 -153.80692 L 179.26968 -153.31503 C 178.19738 -153.23844 177.12103 -153.23712 176.04854 -153.31108 L 167.61229 -153.8929 C 166.57811 -153.96422 165.54994 -154.10537 164.5348 -154.3154 L 157.3996 -155.79165 C 155.44765 -156.1955 153.55647 -156.85139 151.77362 -157.74281 L 147.1142 -160.07252 C 145.88007 -160.68959 144.70397 -161.41646 143.60012 -162.24434 L 137.91816 -166.50581 C 137.47903 -166.83517 137.05182 -167.18013 136.63737 -167.54005 L 130.88219 -172.53797 C 130.0679 -173.24511 129.30436 -174.00865 128.59722 -174.82294 L 124.192 -179.89562 C 123.43789 -180.76398 122.74998 -181.68768 122.13406 -182.65895 L 118.40036 -188.54671 C 118.03979 -189.1153 117.70437 -189.69944 117.39505 -190.29745 L 115.77468 -193.43017 C 115.16553 -194.60785 114.65936 -195.836 114.26183 -197.1009 L 112.98159 -201.17438 C 112.76681 -201.85775 112.58408 -202.5508 112.43399 -203.25122 L 112.35925 -203.6 C 112.16458 -204.50843 112.27185 -205.45557 112.66473 -206.29746 L 112.75925 -206.5 C 113.15372 -207.3453 114.1342 -207.7423 115.00565 -207.40955 Z" stroke="#7f8080" stroke-linecap="round" stroke-linejoin="round" stroke-width="1"/>
      </g>
      <g id="Graphic_22">
        <path d="M 50.973455 229.26379 L 64.715696 231.55416 C 64.89907 231.58472 65.08297 231.61209 65.2673 231.63624 L 93.62094 235.35154 C 93.86747 235.38385 94.11472 235.4104 94.36248 235.43118 L 124.60537 237.96768 C 124.86227 237.98923 125.11966 238.00456 125.3773 238.01367 L 164.30822 239.39002 C 164.49658 239.39668 164.68504 239.4 164.87352 239.4 L 196.34084 239.4 C 196.50746 239.4 196.67407 239.3974 196.8406 239.3922 L 221.8754 238.60986 C 222.08563 238.6033 222.29573 238.59258 222.50555 238.57772 L 244.5533 237.01682 C 244.7116 237.0056 244.86975 236.99205 245.02766 236.97614 L 270.28815 234.4305 C 270.4899 234.41017 270.69122 234.386 270.89204 234.35803 L 294.68474 231.04265 C 294.88875 231.01422 295.0922 230.98186 295.29496 230.94558 L 304.4908 229.3 C 309.8179 228.34674 313.46876 223.3931 312.80234 218.02255 L 310.59475 200.23198 C 310.5921 200.21066 310.5895 200.18934 310.58695 200.16801 L 307.02312 170.46949 C 307.00157 170.28985 306.98306 170.10985 306.9676 169.92958 L 304.6054 142.37037 C 304.59565 142.2568 304.58713 142.14312 304.57983 142.02936 L 303.1932 120.43772 C 303.1916 120.41258 303.18992 120.38744 303.1882 120.3623 L 301.59603 97.27599 C 301.59253 97.22533 301.58928 97.17466 301.58627 97.12398 L 300.4099 77.32181 C 300.39716 77.10729 300.38874 76.892545 300.38465 76.67769 L 299.99236 56.082853 C 299.9913 56.02762 299.98997 55.972394 299.98835 55.917175 L 299.39322 35.682832 C 299.3916 35.627614 299.39026 35.572387 299.3892 35.517154 L 298.99855 15.007613 C 298.99337 14.735917 298.99512 14.464134 299.0038 14.192528 L 299.58973 -4.1670826 C 299.59044 -4.1890255 299.59118 -4.210967 299.59197 -4.2329067 L 300.38005 -26.102215 C 300.3872 -26.30072 300.39806 -26.499073 300.4126 -26.697174 L 301.97007 -47.91779 C 301.98388 -48.105914 301.99436 -48.294266 302.0015 -48.48276 L 302.75596 -68.38163 C 302.77915 -68.99337 302.83744 -69.60328 302.93052 -70.20835 L 305.66953 -88.01187 C 305.7503 -88.53696 305.8572 -89.05771 305.9898 -89.57217 L 310.61806 -107.52983 C 310.73316 -107.9764 310.8675 -108.41779 311.02073 -108.85275 L 316.7415 -125.0924 C 316.9076 -125.56387 317.0957 -126.0273 317.30517 -126.48117 L 322.83673 -138.46621 C 322.93942 -138.6887 323.0472 -138.90881 323.16 -139.12636 L 328.52223 -149.46778 C 328.56793 -149.55593 328.61446 -149.64364 328.6618 -149.73092 L 333.87777 -159.34788 C 334.61505 -160.70724 335.56468 -161.94013 336.6908 -163 L 336.6908 -163 C 337.36598 -163.63547 337.39817 -164.69797 336.7627 -165.37316 C 336.6382 -165.50544 336.49307 -165.61663 336.33295 -165.70241 L 333.1188 -167.42427 C 332.90016 -167.5414 332.6788 -167.65344 332.45494 -167.76029 L 324.60097 -171.50878 C 324.19436 -171.70284 323.77974 -171.87964 323.3582 -172.0387 L 313.68338 -175.68959 C 313.48833 -175.76319 313.29187 -175.83297 313.0941 -175.8989 L 300.39963 -180.13038 C 300.2604 -180.1768 300.12055 -180.22128 299.9801 -180.26384 L 287.09658 -184.16794 C 287.02605 -184.18931 286.95567 -184.21117 286.88544 -184.23352 L 274.38144 -188.21206 C 273.98782 -188.3373 273.5992 -188.47775 273.21643 -188.63307 L 261.2405 -193.49287 C 260.40883 -193.83036 259.60704 -194.23723 258.8436 -194.70917 L 249.22436 -200.6556 C 249.06865 -200.75186 248.9146 -200.85078 248.7623 -200.95232 L 243.8722 -204.21238 C 242.8908 -204.86665 242.0195 -205.67255 241.29078 -206.6 L 241.29078 -206.6 C 241.18518 -206.7344 240.99062 -206.75775 240.8562 -206.65215 C 240.75347 -206.57142 240.7125 -206.43487 240.7538 -206.31092 L 240.89078 -205.9 C 241.35003 -204.52225 241.4546 -203.05096 241.1948 -201.6221 L 240.79967 -199.44885 C 240.52845 -197.95719 240.0466 -196.51165 239.36858 -195.1556 L 237.83626 -192.09096 C 237.53956 -191.49756 237.20624 -190.9232 236.83823 -190.37117 L 233.63453 -185.56562 C 233.20593 -184.92272 232.73132 -184.3117 232.21443 -183.73739 L 227.65238 -178.66844 C 227.61132 -178.62281 227.57 -178.57742 227.5284 -178.53227 L 221.53417 -172.02424 C 220.90643 -171.3427 220.22068 -170.71698 219.48465 -170.15413 L 214.46047 -166.31211 C 214.01432 -165.97094 213.55052 -165.6535 213.071 -165.3611 L 206.58458 -161.40597 C 205.92292 -161.00252 205.23283 -160.64768 204.51975 -160.34424 L 197.40434 -157.3164 C 196.59667 -156.97272 195.7621 -156.69607 194.90905 -156.48928 L 190.83 -155.50041 C 190.00516 -155.30045 189.16573 -155.16644 188.31963 -155.09965 L 182.61943 -154.64963 C 182.2005 -154.61656 181.78042 -154.6 181.36019 -154.6 L 174.32787 -154.6 C 173.57077 -154.6 172.81462 -154.65374 172.06513 -154.7608 L 164.11868 -155.89601 C 163.63367 -155.9653 163.1521 -156.05683 162.6755 -156.1703 L 156.71426 -157.58965 C 155.56878 -157.86238 154.4569 -158.26073 153.39883 -158.77747 L 147.11882 -161.84444 C 146.63377 -162.08133 146.16102 -162.3426 145.70238 -162.62728 L 141.49052 -165.24154 C 140.89135 -165.61344 140.31742 -166.02454 139.7725 -166.47216 L 135.32639 -170.12432 C 135.1027 -170.30807 134.88402 -170.49786 134.67063 -170.69348 L 130.86828 -174.17896 C 130.41699 -174.59264 129.98981 -175.0319 129.58885 -175.49454 L 125.4701 -180.24693 C 125.15072 -180.61545 124.84836 -180.99838 124.56395 -181.39451 L 120.1343 -187.5644 C 119.6394 -188.2537 119.20013 -188.9813 118.82064 -189.74028 L 116.24418 -194.8932 C 116.20858 -194.9644 116.17352 -195.03586 116.13899 -195.10758 L 114.89078 -197.7 C 114.04007 -199.46687 113.68455 -201.4314 113.86209 -203.38436 L 114.04229 -205.36661 C 114.0661 -205.62848 113.87312 -205.86006 113.61125 -205.88386 C 113.44886 -205.89862 113.2902 -205.82925 113.19078 -205.7 L 113.19078 -205.7 C 112.52734 -204.83752 111.74723 -204.07144 110.87285 -203.42375 L 106.97632 -200.53743 C 106.85263 -200.44582 106.72763 -200.35599 106.60136 -200.26798 L 101.97911 -197.0464 C 100.79237 -196.2193 99.49895 -195.55692 98.1342 -195.07742 L 93.52708 -193.4587 C 93.0365 -193.28633 92.55463 -193.09016 92.08316 -192.87087 L 85.23638 -189.68632 C 84.54022 -189.36253 83.82165 -189.08926 83.08625 -188.86864 L 72.21586 -185.60752 C 72.19914 -185.6025 72.18243 -185.59746 72.165724 -185.5924 L 61.19764 -182.2628 C 61.05974 -182.22093 60.922414 -182.1772 60.7857 -182.13164 L 47.864464 -177.82456 C 47.81534 -177.80819 47.76614 -177.79205 47.716864 -177.77616 L 36.349458 -174.10925 C 35.71097 -173.90329 35.086073 -173.65737 34.47846 -173.37296 L 26.546495 -169.66012 C 26.176155 -169.48677 25.812597 -169.29929 25.45662 -169.09808 L 19.510506 -165.73724 C 18.257472 -165.029 17.815827 -163.43907 18.524063 -162.18604 C 18.60118 -162.0496 18.690448 -161.9204 18.79078 -161.8 L 19.654892 -160.76307 C 20.409837 -159.85713 21.062314 -158.87051 21.60043 -157.82118 L 24.67757 -151.82076 C 24.75304 -151.6736 24.830787 -151.5276 24.910784 -151.38285 L 28.865536 -144.22663 C 28.949027 -144.07555 29.030068 -143.92313 29.108627 -143.76943 L 33.21693 -135.73144 C 33.466 -135.24413 33.689904 -134.74437 33.887757 -134.23411 L 37.370526 -125.25224 C 37.38403 -125.21741 37.397655 -125.18263 37.4114 -125.1479 L 41.007724 -116.06246 C 41.129733 -115.75423 41.242133 -115.44228 41.34476 -115.12706 L 43.966596 -107.07428 C 43.98272 -107.02476 43.9986 -106.97516 44.01424 -106.92548 L 47.08629 -97.16721 C 47.28908 -96.52305 47.450886 -95.86669 47.570733 -95.20208 L 49.556045 -84.19263 C 49.5792 -84.06421 49.600787 -83.93552 49.620795 -83.80658 L 51.326665 -72.813195 C 51.3694 -72.53778 51.404935 -72.26129 51.43323 -71.98402 L 52.32065 -63.2873 C 52.36738 -62.82931 52.39433 -62.36952 52.40141 -61.90921 L 52.58565 -49.933586 C 52.58907 -49.71122 52.59713 -49.488946 52.609815 -49.266914 L 53.38019 -35.78535 C 53.38725 -35.661786 53.395745 -35.538307 53.40567 -35.41494 L 54.73924 -18.840567 C 54.77359 -18.413692 54.79078 -17.985611 54.79078 -17.557357 L 54.79078 -5.1075756 C 54.79078 -4.902542 54.79472 -4.6975276 54.8026 -4.4926456 L 55.382954 10.596492 C 55.38817 10.732161 55.39166 10.86789 55.393426 11.003648 L 55.585585 25.799903 C 55.58905 26.066595 55.585843 26.333332 55.57597 26.599864 L 55.001744 42.10401 C 54.994436 42.301323 54.99078 42.49875 54.99078 42.6962 L 54.99078 56.292425 C 54.99078 56.49746 54.98684 56.70247 54.97896 56.907355 L 54.39377 72.12236 C 54.39178 72.17412 54.389535 72.22588 54.38704 72.27762 L 53.59172 88.78055 C 53.591094 88.79352 53.590453 88.80649 53.589797 88.81945 L 52.79531 104.51062 C 52.79229 104.57021 52.78894 104.62978 52.785256 104.68933 L 51.596345 123.91007 C 51.592636 123.97003 51.58859 124.02996 51.584206 124.08987 L 49.80107 148.45942 C 49.79421 148.55314 49.78653 148.6468 49.77802 148.74038 L 47.99213 168.3852 C 47.99123 168.39507 47.990324 168.40494 47.98941 168.41481 L 46.218643 187.49972 C 46.20007 187.6999 46.177726 187.8997 46.151623 188.09903 L 44.19091 203.07175 C 44.0581 204.08594 43.78896 205.07756 43.39078 206.01973 L 43.39078 206.01973 C 42.993206 206.96048 42.74454 207.9574 42.653714 208.97465 L 41.89078 217.51973 C 41.383025 223.20676 45.34149 228.32512 50.973455 229.26379 Z" fill="white"/>
        <path d="M 50.973455 229.26379 L 64.715696 231.55416 C 64.89907 231.58472 65.08297 231.61209 65.2673 231.63624 L 93.62094 235.35154 C 93.86747 235.38385 94.11472 235.4104 94.36248 235.43118 L 124.60537 237.96768 C 124.86227 237.98923 125.11966 238.00456 125.3773 238.01367 L 164.30822 239.39002 C 164.49658 239.39668 164.68504 239.4 164.87352 239.4 L 196.34084 239.4 C 196.50746 239.4 196.67407 239.3974 196.8406 239.3922 L 221.8754 238.60986 C 222.08563 238.6033 222.29573 238.59258 222.50555 238.57772 L 244.5533 237.01682 C 244.7116 237.0056 244.86975 236.99205 245.02766 236.97614 L 270.28815 234.4305 C 270.4899 234.41017 270.69122 234.386 270.89204 234.35803 L 294.68474 231.04265 C 294.88875 231.01422 295.0922 230.98186 295.29496 230.94558 L 304.4908 229.3 C 309.8179 228.34674 313.46876 223.3931 312.80234 218.02255 L 310.59475 200.23198 C 310.5921 200.21066 310.5895 200.18934 310.58695 200.16801 L 307.02312 170.46949 C 307.00157 170.28985 306.98306 170.10985 306.9676 169.92958 L 304.6054 142.37037 C 304.59565 142.2568 304.58713 142.14312 304.57983 142.02936 L 303.1932 120.43772 C 303.1916 120.41258 303.18992 120.38744 303.1882 120.3623 L 301.59603 97.27599 C 301.59253 97.22533 301.58928 97.17466 301.58627 97.12398 L 300.4099 77.32181 C 300.39716 77.10729 300.38874 76.892545 300.38465 76.67769 L 299.99236 56.082853 C 299.9913 56.02762 299.98997 55.972394 299.98835 55.917175 L 299.39322 35.682832 C 299.3916 35.627614 299.39026 35.572387 299.3892 35.517154 L 298.99855 15.007613 C 298.99337 14.735917 298.99512 14.464134 299.0038 14.192528 L 299.58973 -4.1670826 C 299.59044 -4.1890255 299.59118 -4.210967 299.59197 -4.2329067 L 300.38005 -26.102215 C 300.3872 -26.30072 300.39806 -26.499073 300.4126 -26.697174 L 301.97007 -47.91779 C 301.98388 -48.105914 301.99436 -48.294266 302.0015 -48.48276 L 302.75596 -68.38163 C 302.77915 -68.99337 302.83744 -69.60328 302.93052 -70.20835 L 305.66953 -88.01187 C 305.7503 -88.53696 305.8572 -89.05771 305.9898 -89.57217 L 310.61806 -107.52983 C 310.73316 -107.9764 310.8675 -108.41779 311.02073 -108.85275 L 316.7415 -125.0924 C 316.9076 -125.56387 317.0957 -126.0273 317.30517 -126.48117 L 322.83673 -138.46621 C 322.93942 -138.6887 323.0472 -138.90881 323.16 -139.12636 L 328.52223 -149.46778 C 328.56793 -149.55593 328.61446 -149.64364 328.6618 -149.73092 L 333.87777 -159.34788 C 334.61505 -160.70724 335.56468 -161.94013 336.6908 -163 L 336.6908 -163 C 337.36598 -163.63547 337.39817 -164.69797 336.7627 -165.37316 C 336.6382 -165.50544 336.49307 -165.61663 336.33295 -165.70241 L 333.1188 -167.42427 C 332.90016 -167.5414 332.6788 -167.65344 332.45494 -167.76029 L 324.60097 -171.50878 C 324.19436 -171.70284 323.77974 -171.87964 323.3582 -172.0387 L 313.68338 -175.68959 C 313.48833 -175.76319 313.29187 -175.83297 313.0941 -175.8989 L 300.39963 -180.13038 C 300.2604 -180.1768 300.12055 -180.22128 299.9801 -180.26384 L 287.09658 -184.16794 C 287.02605 -184.18931 286.95567 -184.21117 286.88544 -184.23352 L 274.38144 -188.21206 C 273.98782 -188.3373 273.5992 -188.47775 273.21643 -188.63307 L 261.2405 -193.49287 C 260.40883 -193.83036 259.60704 -194.23723 258.8436 -194.70917 L 249.22436 -200.6556 C 249.06865 -200.75186 248.9146 -200.85078 248.7623 -200.95232 L 243.8722 -204.21238 C 242.8908 -204.86665 242.0195 -205.67255 241.29078 -206.6 L 241.29078 -206.6 C 241.18518 -206.7344 240.99062 -206.75775 240.8562 -206.65215 C 240.75347 -206.57142 240.7125 -206.43487 240.7538 -206.31092 L 240.89078 -205.9 C 241.35003 -204.52225 241.4546 -203.05096 241.1948 -201.6221 L 240.79967 -199.44885 C 240.52845 -197.95719 240.0466 -196.51165 239.36858 -195.1556 L 237.83626 -192.09096 C 237.53956 -191.49756 237.20624 -190.9232 236.83823 -190.37117 L 233.63453 -185.56562 C 233.20593 -184.92272 232.73132 -184.3117 232.21443 -183.73739 L 227.65238 -178.66844 C 227.61132 -178.62281 227.57 -178.57742 227.5284 -178.53227 L 221.53417 -172.02424 C 220.90643 -171.3427 220.22068 -170.71698 219.48465 -170.15413 L 214.46047 -166.31211 C 214.01432 -165.97094 213.55052 -165.6535 213.071 -165.3611 L 206.58458 -161.40597 C 205.92292 -161.00252 205.23283 -160.64768 204.51975 -160.34424 L 197.40434 -157.3164 C 196.59667 -156.97272 195.7621 -156.69607 194.90905 -156.48928 L 190.83 -155.50041 C 190.00516 -155.30045 189.16573 -155.16644 188.31963 -155.09965 L 182.61943 -154.64963 C 182.2005 -154.61656 181.78042 -154.6 181.36019 -154.6 L 174.32787 -154.6 C 173.57077 -154.6 172.81462 -154.65374 172.06513 -154.7608 L 164.11868 -155.89601 C 163.63367 -155.9653 163.1521 -156.05683 162.6755 -156.1703 L 156.71426 -157.58965 C 155.56878 -157.86238 154.4569 -158.26073 153.39883 -158.77747 L 147.11882 -161.84444 C 146.63377 -162.08133 146.16102 -162.3426 145.70238 -162.62728 L 141.49052 -165.24154 C 140.89135 -165.61344 140.31742 -166.02454 139.7725 -166.47216 L 135.32639 -170.12432 C 135.1027 -170.30807 134.88402 -170.49786 134.67063 -170.69348 L 130.86828 -174.17896 C 130.41699 -174.59264 129.98981 -175.0319 129.58885 -175.49454 L 125.4701 -180.24693 C 125.15072 -180.61545 124.84836 -180.99838 124.56395 -181.39451 L 120.1343 -187.5644 C 119.6394 -188.2537 119.20013 -188.9813 118.82064 -189.74028 L 116.24418 -194.8932 C 116.20858 -194.9644 116.17352 -195.03586 116.13899 -195.10758 L 114.89078 -197.7 C 114.04007 -199.46687 113.68455 -201.4314 113.86209 -203.38436 L 114.04229 -205.36661 C 114.0661 -205.62848 113.87312 -205.86006 113.61125 -205.88386 C 113.44886 -205.89862 113.2902 -205.82925 113.19078 -205.7 L 113.19078 -205.7 C 112.52734 -204.83752 111.74723 -204.07144 110.87285 -203.42375 L 106.97632 -200.53743 C 106.85263 -200.44582 106.72763 -200.35599 106.60136 -200.26798 L 101.97911 -197.0464 C 100.79237 -196.2193 99.49895 -195.55692 98.1342 -195.07742 L 93.52708 -193.4587 C 93.0365 -193.28633 92.55463 -193.09016 92.08316 -192.87087 L 85.23638 -189.68632 C 84.54022 -189.36253 83.82165 -189.08926 83.08625 -188.86864 L 72.21586 -185.60752 C 72.19914 -185.6025 72.18243 -185.59746 72.165724 -185.5924 L 61.19764 -182.2628 C 61.05974 -182.22093 60.922414 -182.1772 60.7857 -182.13164 L 47.864464 -177.82456 C 47.81534 -177.80819 47.76614 -177.79205 47.716864 -177.77616 L 36.349458 -174.10925 C 35.71097 -173.90329 35.086073 -173.65737 34.47846 -173.37296 L 26.546495 -169.66012 C 26.176155 -169.48677 25.812597 -169.29929 25.45662 -169.09808 L 19.510506 -165.73724 C 18.257472 -165.029 17.815827 -163.43907 18.524063 -162.18604 C 18.60118 -162.0496 18.690448 -161.9204 18.79078 -161.8 L 19.654892 -160.76307 C 20.409837 -159.85713 21.062314 -158.87051 21.60043 -157.82118 L 24.67757 -151.82076 C 24.75304 -151.6736 24.830787 -151.5276 24.910784 -151.38285 L 28.865536 -144.22663 C 28.949027 -144.07555 29.030068 -143.92313 29.108627 -143.76943 L 33.21693 -135.73144 C 33.466 -135.24413 33.689904 -134.74437 33.887757 -134.23411 L 37.370526 -125.25224 C 37.38403 -125.21741 37.397655 -125.18263 37.4114 -125.1479 L 41.007724 -116.06246 C 41.129733 -115.75423 41.242133 -115.44228 41.34476 -115.12706 L 43.966596 -107.07428 C 43.98272 -107.02476 43.9986 -106.97516 44.01424 -106.92548 L 47.08629 -97.16721 C 47.28908 -96.52305 47.450886 -95.86669 47.570733 -95.20208 L 49.556045 -84.19263 C 49.5792 -84.06421 49.600787 -83.93552 49.620795 -83.80658 L 51.326665 -72.813195 C 51.3694 -72.53778 51.404935 -72.26129 51.43323 -71.98402 L 52.32065 -63.2873 C 52.36738 -62.82931 52.39433 -62.36952 52.40141 -61.90921 L 52.58565 -49.933586 C 52.58907 -49.71122 52.59713 -49.488946 52.609815 -49.266914 L 53.38019 -35.78535 C 53.38725 -35.661786 53.395745 -35.538307 53.40567 -35.41494 L 54.73924 -18.840567 C 54.77359 -18.413692 54.79078 -17.985611 54.79078 -17.557357 L 54.79078 -5.1075756 C 54.79078 -4.902542 54.79472 -4.6975276 54.8026 -4.4926456 L 55.382954 10.596492 C 55.38817 10.732161 55.39166 10.86789 55.393426 11.003648 L 55.585585 25.799903 C 55.58905 26.066595 55.585843 26.333332 55.57597 26.599864 L 55.001744 42.10401 C 54.994436 42.301323 54.99078 42.49875 54.99078 42.6962 L 54.99078 56.292425 C 54.99078 56.49746 54.98684 56.70247 54.97896 56.907355 L 54.39377 72.12236 C 54.39178 72.17412 54.389535 72.22588 54.38704 72.27762 L 53.59172 88.78055 C 53.591094 88.79352 53.590453 88.80649 53.589797 88.81945 L 52.79531 104.51062 C 52.79229 104.57021 52.78894 104.62978 52.785256 104.68933 L 51.596345 123.91007 C 51.592636 123.97003 51.58859 124.02996 51.584206 124.08987 L 49.80107 148.45942 C 49.79421 148.55314 49.78653 148.6468 49.77802 148.74038 L 47.99213 168.3852 C 47.99123 168.39507 47.990324 168.40494 47.98941 168.41481 L 46.218643 187.49972 C 46.20007 187.6999 46.177726 187.8997 46.151623 188.09903 L 44.19091 203.07175 C 44.0581 204.08594 43.78896 205.07756 43.39078 206.01973 L 43.39078 206.01973 C 42.993206 206.96048 42.74454 207.9574 42.653714 208.97465 L 41.89078 217.51973 C 41.383025 223.20676 45.34149 228.32512 50.973455 229.26379 Z" stroke="#7f8080" stroke-linecap="round" stroke-linejoin="round" stroke-width="1"/>
      </g>
      <g id="Graphic_21">
        <path d="M -38 -56.553854 L -31.8 -52.153854 L -23.6 -48.153854 L -15 -44.553854 L -5.9999995 -40.753854 L 5.0000006 -36.753854 L 14.4 -33.953854 L 23.4 -31.353854 L 32.4 -28.753854 L 37.8 -27.353854 L 43.4 -26.353854 L 45.8 -32.153854 L 48.4 -37.553854 L 50.6 -41.553854 L 53.2 -44.953854 L 53.4 -53.953854 L 52.8 -64.953855 L 51 -75.753855 L 49.4 -86.15385 L 46.8 -97.15386 L 44.4 -106.75386 L 41.6 -114.75386 L 38.4 -124.15386 L 35.6 -131.55386 L 32 -139.15386 L 28 -146.75386 L 24 -154.15386 L 21.4 -157.75386 L 17.8 -163.55386 L 12.400001 -159.15386 L 7.600001 -154.35386 L 3.0000006 -148.15386 L -1.3999995 -141.95386 L -6.1999995 -133.35386 L -11 -123.95386 L -15.8 -114.75386 L -19.4 -106.15386 L -23.4 -97.15386 L -26.6 -88.95385 L -30.4 -79.553855 L -33.2 -71.553855 L -36.2 -63.153855 Z" fill="white"/>
        <path d="M -38 -56.553854 L -31.8 -52.153854 L -23.6 -48.153854 L -15 -44.553854 L -5.9999995 -40.753854 L 5.0000006 -36.753854 L 14.4 -33.953854 L 23.4 -31.353854 L 32.4 -28.753854 L 37.8 -27.353854 L 43.4 -26.353854 L 45.8 -32.153854 L 48.4 -37.553854 L 50.6 -41.553854 L 53.2 -44.953854 L 53.4 -53.953854 L 52.8 -64.953855 L 51 -75.753855 L 49.4 -86.15385 L 46.8 -97.15386 L 44.4 -106.75386 L 41.6 -114.75386 L 38.4 -124.15386 L 35.6 -131.55386 L 32 -139.15386 L 28 -146.75386 L 24 -154.15386 L 21.4 -157.75386 L 17.8 -163.55386 L 12.400001 -159.15386 L 7.600001 -154.35386 L 3.0000006 -148.15386 L -1.3999995 -141.95386 L -6.1999995 -133.35386 L -11 -123.95386 L -15.8 -114.75386 L -19.4 -106.15386 L -23.4 -97.15386 L -26.6 -88.95385 L -30.4 -79.553855 L -33.2 -71.553855 L -36.2 -63.153855 Z" stroke="#7f8080" stroke-linecap="round" stroke-linejoin="round" stroke-width="1"/>
      </g>
      <g id="Graphic_20">
        <path d="M 393.4053 -57.49725 L 387.2053 -53.09725 L 379.0053 -49.09725 L 370.4053 -45.49725 L 361.4053 -41.69725 L 350.4053 -37.69725 L 341.0053 -34.89725 L 332.0053 -32.29725 L 323.0053 -29.69725 L 317.6053 -28.29725 L 312.0053 -27.29725 L 309.6053 -33.09725 L 307.0053 -38.49725 L 304.8053 -42.49725 L 302.2053 -45.89725 L 302.0053 -54.89725 L 302.6053 -65.89725 L 304.4053 -76.69725 L 306.0053 -87.09725 L 308.6053 -98.09725 L 311.0053 -107.69725 L 313.8053 -115.69725 L 317.0053 -125.09725 L 319.8053 -132.49725 L 323.4053 -140.09725 L 327.4053 -147.69725 L 331.4053 -155.09725 L 334.0053 -158.69725 L 337.6053 -164.49725 L 343.0053 -160.09725 L 347.8053 -155.29725 L 352.4053 -149.09725 L 356.8053 -142.89725 L 361.6053 -134.29725 L 366.4053 -124.89725 L 371.2053 -115.69725 L 374.8053 -107.09725 L 378.8053 -98.09725 L 382.0053 -89.89725 L 385.8053 -80.49725 L 388.6053 -72.49725 L 391.6053 -64.09725 Z" fill="white"/>
        <path d="M 393.4053 -57.49725 L 387.2053 -53.09725 L 379.0053 -49.09725 L 370.4053 -45.49725 L 361.4053 -41.69725 L 350.4053 -37.69725 L 341.0053 -34.89725 L 332.0053 -32.29725 L 323.0053 -29.69725 L 317.6053 -28.29725 L 312.0053 -27.29725 L 309.6053 -33.09725 L 307.0053 -38.49725 L 304.8053 -42.49725 L 302.2053 -45.89725 L 302.0053 -54.89725 L 302.6053 -65.89725 L 304.4053 -76.69725 L 306.0053 -87.09725 L 308.6053 -98.09725 L 311.0053 -107.69725 L 313.8053 -115.69725 L 317.0053 -125.09725 L 319.8053 -132.49725 L 323.4053 -140.09725 L 327.4053 -147.69725 L 331.4053 -155.09725 L 334.0053 -158.69725 L 337.6053 -164.49725 L 343.0053 -160.09725 L 347.8053 -155.29725 L 352.4053 -149.09725 L 356.8053 -142.89725 L 361.6053 -134.29725 L 366.4053 -124.89725 L 371.2053 -115.69725 L 374.8053 -107.09725 L 378.8053 -98.09725 L 382.0053 -89.89725 L 385.8053 -80.49725 L 388.6053 -72.49725 L 391.6053 -64.09725 Z" stroke="#7f8080" stroke-linecap="round" stroke-linejoin="round" stroke-width="1"/>
      </g>
      <g id="Graphic_19">
        <path d="M -38 -56.553854 L -31.8 -52.153854 L -23.6 -48.153854 L -15 -44.553854 L -5.9999995 -40.753854 L 5.0000006 -36.753854 L 14.4 -33.953854 L 23.4 -31.353854 L 32.4 -28.753854 L 37.8 -27.353854 L 43.4 -26.353854 L 46.4 -32.753854 L 42.6 -33.553854 L 37.8 -34.753854 L 32.2 -35.953854 L 26.2 -37.753854 L 21.6 -39.153854 L 17.4 -40.353854 L 12.8 -42.353854 L 8.200001 -43.953854 L 3.4000006 -45.953854 L -.59999944 -47.353854 L -5.7999995 -49.553854 L -10.4 -51.153854 L -15.2 -53.353854 L -20 -55.153854 L -24 -57.153854 L -28.4 -59.353854 L -32.8 -61.553854 L -36.2 -63.153855 Z" fill="url(#Obj_Gradient_2)"/>
        <path d="M -38 -56.553854 L -31.8 -52.153854 L -23.6 -48.153854 L -15 -44.553854 L -5.9999995 -40.753854 L 5.0000006 -36.753854 L 14.4 -33.953854 L 23.4 -31.353854 L 32.4 -28.753854 L 37.8 -27.353854 L 43.4 -26.353854 L 46.4 -32.753854 L 42.6 -33.553854 L 37.8 -34.753854 L 32.2 -35.953854 L 26.2 -37.753854 L 21.6 -39.153854 L 17.4 -40.353854 L 12.8 -42.353854 L 8.200001 -43.953854 L 3.4000006 -45.953854 L -.59999944 -47.353854 L -5.7999995 -49.553854 L -10.4 -51.153854 L -15.2 -53.353854 L -20 -55.153854 L -24 -57.153854 L -28.4 -59.353854 L -32.8 -61.553854 L -36.2 -63.153855 Z" stroke="#7f8080" stroke-linecap="round" stroke-linejoin="round" stroke-width="1"/>
      </g>
      <g id="Graphic_18">
        <path d="M 393.4053 -57.49725 L 387.2053 -53.09725 L 379.0053 -49.09725 L 370.4053 -45.49725 L 361.4053 -41.69725 L 350.4053 -37.69725 L 341.0053 -34.89725 L 332.0053 -32.29725 L 323.0053 -29.69725 L 317.6053 -28.29725 L 312.0053 -27.29725 L 309.0053 -33.69725 L 312.8053 -34.49725 L 317.6053 -35.69725 L 323.2053 -36.89725 L 329.2053 -38.69725 L 333.8053 -40.09725 L 338.0053 -41.29725 L 342.6053 -43.29725 L 347.2053 -44.89725 L 352.0053 -46.89725 L 356.0053 -48.29725 L 361.2053 -50.49725 L 365.8053 -52.09725 L 370.6053 -54.29725 L 375.4053 -56.09725 L 379.4053 -58.09725 L 383.8053 -60.29725 L 388.2053 -62.49725 L 391.6053 -64.09725 Z" fill="url(#Obj_Gradient_3)"/>
        <path d="M 393.4053 -57.49725 L 387.2053 -53.09725 L 379.0053 -49.09725 L 370.4053 -45.49725 L 361.4053 -41.69725 L 350.4053 -37.69725 L 341.0053 -34.89725 L 332.0053 -32.29725 L 323.0053 -29.69725 L 317.6053 -28.29725 L 312.0053 -27.29725 L 309.0053 -33.69725 L 312.8053 -34.49725 L 317.6053 -35.69725 L 323.2053 -36.89725 L 329.2053 -38.69725 L 333.8053 -40.09725 L 338.0053 -41.29725 L 342.6053 -43.29725 L 347.2053 -44.89725 L 352.0053 -46.89725 L 356.0053 -48.29725 L 361.2053 -50.49725 L 365.8053 -52.09725 L 370.6053 -54.29725 L 375.4053 -56.09725 L 379.4053 -58.09725 L 383.8053 -60.29725 L 388.2053 -62.49725 L 391.6053 -64.09725 Z" stroke="#7f8080" stroke-linecap="round" stroke-linejoin="round" stroke-width="1"/>
      </g>
      <g id="Graphic_17">
        <path d="M 112.05925 -206.2441 L 117.45925 -206.8441 L 124.25925 -203.4441 L 129.25925 -201.6441 L 137.65925 -199.8441 L 146.05925 -198.8441 L 154.05925 -197.8441 L 161.65925 -197.6441 L 170.25925 -197.2441 L 181.85925 -197.4441 L 190.25925 -197.8441 L 199.65925 -198.4441 L 208.05925 -199.2441 L 217.25925 -200.6441 L 225.45925 -202.8441 L 231.25925 -204.6441 L 236.85925 -207.2441 L 239.65925 -206.0441 L 240.05925 -200.4441 L 237.25925 -192.4441 L 231.85925 -189.6441 L 221.25925 -186.4441 L 209.85925 -184.0441 L 198.65925 -183.2441 L 186.25925 -182.2441 L 175.85925 -182.2441 L 166.45925 -182.2441 L 154.85925 -182.8441 L 143.65925 -183.6441 L 133.05925 -185.8441 L 124.45925 -187.8441 L 118.25925 -190.6441 L 116.25925 -192.2441 L 113.05925 -199.8441 Z" fill="url(#Obj_Gradient_4)"/>
        <path d="M 112.05925 -206.2441 L 117.45925 -206.8441 L 124.25925 -203.4441 L 129.25925 -201.6441 L 137.65925 -199.8441 L 146.05925 -198.8441 L 154.05925 -197.8441 L 161.65925 -197.6441 L 170.25925 -197.2441 L 181.85925 -197.4441 L 190.25925 -197.8441 L 199.65925 -198.4441 L 208.05925 -199.2441 L 217.25925 -200.6441 L 225.45925 -202.8441 L 231.25925 -204.6441 L 236.85925 -207.2441 L 239.65925 -206.0441 L 240.05925 -200.4441 L 237.25925 -192.4441 L 231.85925 -189.6441 L 221.25925 -186.4441 L 209.85925 -184.0441 L 198.65925 -183.2441 L 186.25925 -182.2441 L 175.85925 -182.2441 L 166.45925 -182.2441 L 154.85925 -182.8441 L 143.65925 -183.6441 L 133.05925 -185.8441 L 124.45925 -187.8441 L 118.25925 -190.6441 L 116.25925 -192.2441 L 113.05925 -199.8441 Z" stroke="#7f8080" stroke-linecap="round" stroke-linejoin="round" stroke-width="1"/>
      </g>
      <g id="Graphic_16">
        <path d="M 41.813213 219.2 L 41.813213 219.2 C 41.74753 219.72549 41.810355 220.25905 41.9963 220.7549 L 42.647306 222.49092 C 42.82406 222.96227 43.051147 223.41318 43.32462 223.83582 L 44.292434 225.33153 C 44.83339 226.16756 45.546494 226.87855 46.38412 227.41702 L 47.46217 228.11005 C 47.762426 228.30307 48.077006 228.47285 48.403157 228.61789 L 49.72001 229.20349 C 50.31654 229.46876 50.947246 229.64928 51.59379 229.7398 L 60.60421 231.00126 C 60.61421 231.00265 60.6242 231.00403 60.6342 231.0054 L 72.3502 232.594 C 72.3962 232.60024 72.44226 232.60601 72.48838 232.61134 L 82.77131 233.79783 C 82.80324 233.8015 82.83519 233.80498 82.86716 233.80822 L 96.57723 235.1991 C 96.60521 235.20193 96.63321 235.2046 96.66123 235.2071 L 107.76653 236.19865 C 107.80164 236.2018 107.83679 236.20466 107.87195 236.20726 L 118.55848 236.99886 C 118.59896 237.00185 118.63947 237.0045 118.68 237.0068 L 129.18798 237.6016 C 129.2088 237.60276 129.22961 237.60404 129.25042 237.6054 L 141.2932 238.3951 C 141.3772 238.4006 141.46129 238.4046 141.54543 238.40707 L 154.99256 238.80257 C 155.01032 238.8031 155.02809 238.80368 155.04585 238.80434 L 165.6897 239.19856 C 165.77603 239.20176 165.8624 239.20335 165.9488 239.20335 L 176.5578 239.20335 C 176.59874 239.20335 176.63967 239.2037 176.6806 239.20443 L 187.76702 239.39893 C 187.93509 239.40188 188.1032 239.39877 188.27106 239.38962 L 198.8923 238.81028 C 198.9769 238.80566 199.06157 238.80258 199.1463 238.80104 L 209.91085 238.60532 C 209.98308 238.604 210.0553 238.60158 210.12745 238.59803 L 222.14607 238.00695 C 222.19483 238.00455 222.24355 238.00165 222.29225 237.99823 L 233.5323 237.20945 C 233.59023 237.2054 233.64812 237.2006 233.70594 237.1951 L 246.1165 236.01313 C 246.18497 236.00661 246.25352 236.0011 246.32214 235.9966 L 258.25416 235.21418 C 258.36418 235.20696 258.474 235.19715 258.58355 235.18475 L 268.9959 234.006 C 269.01144 234.00423 269.02697 234.00242 269.0425 234.00056 L 278.9902 232.80683 C 279.00954 232.80451 279.02886 232.8021 279.04818 232.79963 L 292.88394 231.0221 C 292.98115 231.0096 293.0781 230.99507 293.1747 230.9785 L 299.7282 229.85506 C 299.92915 229.8206 300.13153 229.79495 300.33473 229.77817 L 303.56706 229.5112 C 304.4563 229.43775 305.3233 229.19497 306.12135 228.79594 L 307.60765 228.0528 C 308.20824 227.7525 308.7625 227.36735 309.25338 226.9092 L 310.5885 225.66308 C 311.1953 225.09672 311.65073 224.38747 311.9132 223.6 L 312.20805 222.71552 C 312.27812 222.5053 312.33817 222.29187 312.388 222.07595 L 312.8577 220.04056 C 312.89293 219.88792 312.8595 219.72752 312.7662 219.60168 L 312.7662 219.60168 C 312.67587 219.4798 312.52523 219.4183 312.3754 219.44214 L 303.89555 220.7912 C 303.84466 220.7993 303.79385 220.80796 303.74315 220.81718 L 290.7584 223.17805 C 290.6656 223.19492 290.5725 223.2099 290.4791 223.22302 L 279.24943 224.7991 C 279.22928 224.80194 279.20914 224.80486 279.18902 224.80786 L 266.06643 226.76645 C 265.90167 226.79105 265.73608 226.80975 265.56998 226.82253 L 252.84517 227.80136 C 252.82786 227.8027 252.81055 227.80396 252.79323 227.80516 L 238.45308 228.801 C 238.4305 228.80257 238.4079 228.80403 238.3853 228.80538 L 225.08205 229.5996 C 225.04016 229.6021 224.99824 229.60423 224.9563 229.60597 L 210.76485 230.19729 C 210.66776 230.20133 210.5706 230.20335 210.47344 230.20335 L 184.67753 230.20335 C 184.63865 230.20335 184.59976 230.20368 184.56088 230.20433 L 172.8025 230.4003 C 172.68032 230.40234 172.55812 230.40117 172.436 230.3968 L 161.6024 230.0099 C 161.4803 230.00554 161.35809 230.00437 161.23591 230.0064 L 149.52127 230.20165 C 149.45323 230.2028 149.38518 230.20293 149.31713 230.20208 L 133.61484 230.0058 C 133.48444 230.00417 133.35411 229.9989 133.224 229.98998 L 118.91423 229.00986 C 118.85088 229.00552 118.7876 229.00032 118.72439 228.99426 L 104.23339 227.60471 C 104.22393 227.6038 104.21448 227.60288 104.20503 227.60194 L 90.39299 226.22073 C 90.27715 226.20915 90.16162 226.19468 90.0465 226.17733 L 75.73735 224.02116 C 75.65859 224.0093 75.57964 223.99877 75.50052 223.9896 L 61.98059 222.42207 C 61.87301 222.4096 61.76574 222.39463 61.65886 222.37718 L 52.26677 220.84377 C 52.10178 220.81684 51.937805 220.784 51.775164 220.74532 L 42.697565 218.58654 C 42.309246 218.4942 41.91959 218.73412 41.82724 219.12244 C 41.82116 219.14802 41.816475 219.17392 41.813213 219.2 Z" fill="url(#Obj_Gradient_5)"/>
        <path d="M 41.813213 219.2 L 41.813213 219.2 C 41.74753 219.72549 41.810355 220.25905 41.9963 220.7549 L 42.647306 222.49092 C 42.82406 222.96227 43.051147 223.41318 43.32462 223.83582 L 44.292434 225.33153 C 44.83339 226.16756 45.546494 226.87855 46.38412 227.41702 L 47.46217 228.11005 C 47.762426 228.30307 48.077006 228.47285 48.403157 228.61789 L 49.72001 229.20349 C 50.31654 229.46876 50.947246 229.64928 51.59379 229.7398 L 60.60421 231.00126 C 60.61421 231.00265 60.6242 231.00403 60.6342 231.0054 L 72.3502 232.594 C 72.3962 232.60024 72.44226 232.60601 72.48838 232.61134 L 82.77131 233.79783 C 82.80324 233.8015 82.83519 233.80498 82.86716 233.80822 L 96.57723 235.1991 C 96.60521 235.20193 96.63321 235.2046 96.66123 235.2071 L 107.76653 236.19865 C 107.80164 236.2018 107.83679 236.20466 107.87195 236.20726 L 118.55848 236.99886 C 118.59896 237.00185 118.63947 237.0045 118.68 237.0068 L 129.18798 237.6016 C 129.2088 237.60276 129.22961 237.60404 129.25042 237.6054 L 141.2932 238.3951 C 141.3772 238.4006 141.46129 238.4046 141.54543 238.40707 L 154.99256 238.80257 C 155.01032 238.8031 155.02809 238.80368 155.04585 238.80434 L 165.6897 239.19856 C 165.77603 239.20176 165.8624 239.20335 165.9488 239.20335 L 176.5578 239.20335 C 176.59874 239.20335 176.63967 239.2037 176.6806 239.20443 L 187.76702 239.39893 C 187.93509 239.40188 188.1032 239.39877 188.27106 239.38962 L 198.8923 238.81028 C 198.9769 238.80566 199.06157 238.80258 199.1463 238.80104 L 209.91085 238.60532 C 209.98308 238.604 210.0553 238.60158 210.12745 238.59803 L 222.14607 238.00695 C 222.19483 238.00455 222.24355 238.00165 222.29225 237.99823 L 233.5323 237.20945 C 233.59023 237.2054 233.64812 237.2006 233.70594 237.1951 L 246.1165 236.01313 C 246.18497 236.00661 246.25352 236.0011 246.32214 235.9966 L 258.25416 235.21418 C 258.36418 235.20696 258.474 235.19715 258.58355 235.18475 L 268.9959 234.006 C 269.01144 234.00423 269.02697 234.00242 269.0425 234.00056 L 278.9902 232.80683 C 279.00954 232.80451 279.02886 232.8021 279.04818 232.79963 L 292.88394 231.0221 C 292.98115 231.0096 293.0781 230.99507 293.1747 230.9785 L 299.7282 229.85506 C 299.92915 229.8206 300.13153 229.79495 300.33473 229.77817 L 303.56706 229.5112 C 304.4563 229.43775 305.3233 229.19497 306.12135 228.79594 L 307.60765 228.0528 C 308.20824 227.7525 308.7625 227.36735 309.25338 226.9092 L 310.5885 225.66308 C 311.1953 225.09672 311.65073 224.38747 311.9132 223.6 L 312.20805 222.71552 C 312.27812 222.5053 312.33817 222.29187 312.388 222.07595 L 312.8577 220.04056 C 312.89293 219.88792 312.8595 219.72752 312.7662 219.60168 L 312.7662 219.60168 C 312.67587 219.4798 312.52523 219.4183 312.3754 219.44214 L 303.89555 220.7912 C 303.84466 220.7993 303.79385 220.80796 303.74315 220.81718 L 290.7584 223.17805 C 290.6656 223.19492 290.5725 223.2099 290.4791 223.22302 L 279.24943 224.7991 C 279.22928 224.80194 279.20914 224.80486 279.18902 224.80786 L 266.06643 226.76645 C 265.90167 226.79105 265.73608 226.80975 265.56998 226.82253 L 252.84517 227.80136 C 252.82786 227.8027 252.81055 227.80396 252.79323 227.80516 L 238.45308 228.801 C 238.4305 228.80257 238.4079 228.80403 238.3853 228.80538 L 225.08205 229.5996 C 225.04016 229.6021 224.99824 229.60423 224.9563 229.60597 L 210.76485 230.19729 C 210.66776 230.20133 210.5706 230.20335 210.47344 230.20335 L 184.67753 230.20335 C 184.63865 230.20335 184.59976 230.20368 184.56088 230.20433 L 172.8025 230.4003 C 172.68032 230.40234 172.55812 230.40117 172.436 230.3968 L 161.6024 230.0099 C 161.4803 230.00554 161.35809 230.00437 161.23591 230.0064 L 149.52127 230.20165 C 149.45323 230.2028 149.38518 230.20293 149.31713 230.20208 L 133.61484 230.0058 C 133.48444 230.00417 133.35411 229.9989 133.224 229.98998 L 118.91423 229.00986 C 118.85088 229.00552 118.7876 229.00032 118.72439 228.99426 L 104.23339 227.60471 C 104.22393 227.6038 104.21448 227.60288 104.20503 227.60194 L 90.39299 226.22073 C 90.27715 226.20915 90.16162 226.19468 90.0465 226.17733 L 75.73735 224.02116 C 75.65859 224.0093 75.57964 223.99877 75.50052 223.9896 L 61.98059 222.42207 C 61.87301 222.4096 61.76574 222.39463 61.65886 222.37718 L 52.26677 220.84377 C 52.10178 220.81684 51.937805 220.784 51.775164 220.74532 L 42.697565 218.58654 C 42.309246 218.4942 41.91959 218.73412 41.82724 219.12244 C 41.82116 219.14802 41.816475 219.17392 41.813213 219.2 Z" stroke="#7f8080" stroke-linecap="round" stroke-linejoin="round" stroke-width="1"/>
      </g>
      <g id="Graphic_15">
        <path d="M 56.5 13.721328 L 299.50607 12.300173 L 299.50607 29.993052 L 300.5 53.58356 L 300.5 64.53629 L 55.4 63.6 L 54.8 44.4 L 55 27 Z" fill="white"/>
        <path d="M 56.5 13.721328 L 299.50607 12.300173 L 299.50607 29.993052 L 300.5 53.58356 L 300.5 64.53629 L 55.4 63.6 L 54.8 44.4 L 55 27 Z" stroke="#7f8080" stroke-linecap="round" stroke-linejoin="round" stroke-width="1"/>
      </g>
      <g id="Graphic_14">
        <path d="M 18 -163 L 118 -164 L 108 -178 L 103 -187 L 99 -196 L 78 -188 L 60 -182 L 39 -176 L 25 -170 Z" fill="white"/>
        <path d="M 18 -163 L 118 -164 L 108 -178 L 103 -187 L 99 -196 L 78 -188 L 60 -182 L 39 -176 L 25 -170 Z" stroke="#7f8080" stroke-linecap="round" stroke-linejoin="round" stroke-width="1"/>
      </g>
      <g id="Graphic_13">
        <path d="M 337.219 -163 L 234 -164 L 245 -178 L 250 -189 L 254 -196 L 277.219 -188 L 295.219 -182 L 316.219 -176 L 330.219 -170 Z" fill="white"/>
        <path d="M 337.219 -163 L 234 -164 L 245 -178 L 250 -189 L 254 -196 L 277.219 -188 L 295.219 -182 L 316.219 -176 L 330.219 -170 Z" stroke="#7f8080" stroke-linecap="round" stroke-linejoin="round" stroke-width="1"/>
      </g>
      <g id="Graphic_12">
        <path d="M 55 64.62195 L 300.4 64.9 L 300 59.7839 L 300.6 53.77805 L 55.5 53.5 L 55 60.72927 Z" fill="fuchsia"/>
        <path d="M 55 64.62195 L 300.4 64.9 L 300 59.7839 L 300.6 53.77805 L 55.5 53.5 L 55 60.72927 L 55 64.62195 M 55 64.62195 L 300.4 64.9 L 300 59.7839 L 300.6 53.77805 L 55.5 53.5 L 55 60.72927 L 55 64.62195" stroke="gray" stroke-linecap="round" stroke-linejoin="round" stroke-width="0"/>
      </g>
      <g id="Graphic_11">
        <path d="M 54.7 13.555185 L 300.1 13.833234 L 299.7 8.717136 L 300.3 2.711283 L 55.2 2.4332338 L 54.7 9.662502 Z" fill="fuchsia"/>
        <path d="M 54.7 13.555185 L 300.1 13.833234 L 299.7 8.717136 L 300.3 2.711283 L 55.2 2.4332338 L 54.7 9.662502 L 54.7 13.555185 M 54.7 13.555185 L 300.1 13.833234 L 299.7 8.717136 L 300.3 2.711283 L 55.2 2.4332338 L 54.7 9.662502 L 54.7 13.555185" stroke="gray" stroke-linecap="round" stroke-linejoin="round" stroke-width="0"/>
      </g>
      <g id="Graphic_10">
        <path d="M 51.4 121.2 L 302.55264 121.06848 L 304.05264 140.56848 L 305.55264 162.06848 L 306.55264 175.56848 L 306.05264 178.06848 L 47.4 178.4 L 48.852645 160.66848 L 50.452645 142.66848 L 51.452645 124.06848 Z" fill="white"/>
        <path d="M 51.4 121.2 L 302.55264 121.06848 L 304.05264 140.56848 L 305.55264 162.06848 L 306.55264 175.56848 L 306.05264 178.06848 L 47.4 178.4 L 48.852645 160.66848 L 50.452645 142.66848 L 51.452645 124.06848 Z" stroke="#7f8080" stroke-linecap="round" stroke-linejoin="round" stroke-width="1"/>
      </g>
      <g id="Graphic_9">
        <path d="M 51 121.2 L 304 120.76572 L 303.6 115.44572 L 303 109.90857 L 52.2 109.8 L 51.5 117.23714 Z" fill="fuchsia"/>
        <path d="M 50.89915 121.2002 L 304.0139 120.71447 M 303.94603 120.81715 L 303.55 115.41712 M 303.56344 115.57239 L 302.97107 109.83018 M 303.0996 109.90808 L 52.10765 109.81249 M 52.2077 109.77412 L 51.53762 117.28557 M 51.55833 117.1124 L 50.991376 121.26314 M 50.914776 121.18363 L 303.9541 120.6876 M 303.95642 120.8019 L 303.56683 115.48844 M 303.57645 115.55703 L 302.9894 109.89296 M 303.11522 109.89275 L 52.2199 109.79744 M 52.22394 109.75855 L 51.55896 117.20783 M 51.58278 117.09798 L 51.01698 121.18456" stroke="gray" stroke-linecap="round" stroke-linejoin="round" stroke-width=".25"/>
      </g>
      <g id="Graphic_8">
        <path d="M 46.4 178.4 L 46.6 173.98379 L 48 167 L 307 167 L 308.5 173.16216 L 309.6 178.2973 Z" fill="fuchsia"/>
        <path d="M 46.398446 178.46322 L 46.513075 173.80247 M 46.46045 174.1789 L 48.07972 166.77357 M 47.81757 166.96046 L 307.31357 167.04802 M 307.06216 166.84324 L 308.50924 173.277 M 308.47006 173.10184 L 309.61756 178.27489 M 309.67493 178.17452 L 46.30498 178.40008 M 46.41112 178.43151 L 46.52452 173.9238 M 46.469885 174.1429 L 48.06671 166.92854 M 47.84883 166.90449 L 307.13946 166.99475 M 307.1214 166.8057 L 308.54302 173.13576 M 308.51988 173.06647 L 309.6379 178.14082 M 309.7062 178.16756 L 46.431256 178.3751" stroke="#a5a5a5" stroke-linecap="round" stroke-linejoin="round" stroke-width=".5"/>
      </g>
      <g id="Graphic_7">
        <path d="M 45 -105 L 309.5 -105.5 L 311 -110 L 314.6 -116.6 L 40.8 -116.38491 L 44 -108.5 Z" fill="fuchsia"/>
        <path d="M 45 -105 L 309.5 -105.5 L 311 -110 L 314.6 -116.6 L 40.8 -116.38491 L 44 -108.5 L 45 -105 M 45 -105 L 309.5 -105.5 L 311 -110 L 314.6 -116.6 L 40.8 -116.38491 L 44 -108.5 L 45 -105" stroke="gray" stroke-linecap="round" stroke-linejoin="round" stroke-width="0"/>
      </g>
      <g id="Graphic_6">
        <path d="M 53.2 -50.70857 L 301.6 -50.6 L 302 -54.94286 L 302.6 -62 L 52.6 -61.89143 L 53 -54.50857 Z" fill="fuchsia"/>
        <path d="M 53.2 -50.70857 L 301.6 -50.6 L 302 -54.94286 L 302.6 -62 L 52.6 -61.89143 L 53 -54.50857 L 53.2 -50.70857 M 53.2 -50.70857 L 301.6 -50.6 L 302 -54.94286 L 302.6 -62 L 52.6 -61.89143 L 53 -54.50857 L 53.2 -50.70857" stroke="gray" stroke-linecap="round" stroke-linejoin="round" stroke-width="0"/>
      </g>
      <g id="Graphic_5">
        <path d="M 217.8 -161.21887 L 335 -161.5 L 337 -165.5 L 330.6 -171.17736 L 325.4 -172.38113 L 240.4 -172.6 L 229.4 -167.4566 Z" fill="fuchsia"/>
        <path d="M 217.8 -161.21887 L 335 -161.5 L 337 -165.5 L 330.6 -171.17736 L 325.4 -172.38113 L 240.4 -172.6 L 229.4 -167.4566 L 217.8 -161.21887 M 217.8 -161.21887 L 335 -161.5 L 337 -165.5 L 330.6 -171.17736 L 325.4 -172.38113 L 240.4 -172.6 L 229.4 -167.4566 L 217.8 -161.21887" stroke="gray" stroke-linecap="round" stroke-linejoin="round" stroke-width="0"/>
      </g>
      <g id="Graphic_4">
        <path d="M 20 -160.5 L 139.8 -161.10962 L 124 -167.79616 L 113 -172.4 L 30.8 -172.4 L 24.4 -170.86539 L 17.5 -165 Z" fill="fuchsia"/>
        <path d="M 20 -160.5 L 139.8 -161.10962 L 124 -167.79616 L 113 -172.4 L 30.8 -172.4 L 24.4 -170.86539 L 17.5 -165 L 20 -160.5 M 20 -160.5 L 139.8 -161.10962 L 124 -167.79616 L 113 -172.4 L 30.8 -172.4 L 24.4 -170.86539 L 17.5 -165 L 20 -160.5" stroke="gray" stroke-linecap="round" stroke-linejoin="round" stroke-width="0"/>
      </g>
      <g id="Graphic_3">
        <path d="M 112.57212 -206.0362 L 107.84295 -201.98264 C 106.6926 -200.99662 105.44764 -200.1267 104.12621 -199.38552 L 101.59958 -197.96835 C 100.16441 -197.16338 99.5836 -195.39425 100.26239 -193.89527 L 101.28 -191.64803 C 101.40158 -191.37954 101.52831 -191.11342 101.66012 -190.8498 L 105.94938 -182.2713 C 106.29117 -181.5877 106.66683 -180.92157 107.07495 -180.27537 L 109.40134 -176.59192 C 109.84172 -175.89465 110.31928 -175.22158 110.83195 -174.57561 L 114.24264 -170.27815 C 114.78869 -169.59013 115.37371 -168.93394 115.99482 -168.31283 L 120.66087 -163.6468 C 121.06175 -163.24591 121.47731 -162.85999 121.90671 -162.48982 L 126.47023 -158.55574 C 126.86489 -158.21552 127.271 -157.88881 127.68785 -157.57617 L 131.66279 -154.59497 C 132.3287 -154.09553 133.02123 -153.63262 133.73733 -153.20826 L 137.8704 -150.75904 C 137.99839 -150.68319 138.12712 -150.60859 138.25656 -150.53523 L 142.9541 -147.8733 C 143.6924 -147.45493 144.45328 -147.07774 145.23325 -146.74347 L 148.78307 -145.22212 C 149.36903 -144.97099 149.96518 -144.74433 150.56997 -144.54274 L 155.58808 -142.87003 C 156.83532 -142.45429 158.11592 -142.14624 159.4158 -141.9493 L 163.51464 -141.32826 C 163.87976 -141.27294 164.24615 -141.22642 164.6135 -141.18874 L 171.4946 -140.48299 C 171.73978 -140.45784 171.98534 -140.43664 172.2312 -140.41938 L 176.75835 -140.10169 C 177.2942 -140.06409 177.83122 -140.04527 178.3684 -140.04527 L 181.63046 -140.04526 C 182.58416 -140.04526 183.53693 -140.10458 184.48327 -140.22287 L 188.47198 -140.72146 C 189.13195 -140.80396 189.78802 -140.91504 190.43835 -141.0544 L 196.52039 -142.35769 C 197.41426 -142.54924 198.29592 -142.7939 199.16068 -143.09039 L 203.66952 -144.63628 C 204.46417 -144.90873 205.2433 -145.22451 206.0034 -145.5822 L 210.83677 -147.85674 C 211.38697 -148.11565 211.92668 -148.39629 212.45464 -148.69798 L 216.2225 -150.85104 C 216.9153 -151.24692 217.58701 -151.67858 218.23494 -152.14428 L 222.91106 -155.50525 C 223.41175 -155.86511 223.89776 -156.24497 224.36792 -156.64389 L 229.68877 -161.15856 C 230.07108 -161.48294 230.44269 -161.81974 230.80298 -162.16842 L 235.5022 -166.71604 C 236.1418 -167.335 236.7449 -167.99056 237.30852 -168.67942 L 241.1018 -173.31566 C 241.60852 -173.93497 242.08257 -174.58031 242.52201 -175.24904 L 246.1392 -180.75344 C 246.35462 -181.08127 246.56163 -181.41456 246.76002 -181.75298 L 249.2831 -186.05708 C 249.66906 -186.71546 250.022 -187.39265 250.34062 -188.08612 L 252.45932 -192.6974 C 252.99218 -193.85715 253.36334 -195.08456 253.5624 -196.34526 L 253.5624 -196.34526 C 253.7407 -197.47453 253.1614 -198.58797 252.13432 -199.0901 L 246.84088 -201.678 C 245.52642 -202.32063 244.29183 -203.11514 243.1624 -204.04526 L 242.75638 -204.37963 C 241.91205 -205.07496 241.28864 -206.00126 240.9624 -207.04526 L 240.9624 -207.04526 C 240.91573 -207.19458 240.75686 -207.2778 240.60754 -207.23114 C 240.49247 -207.19518 240.41277 -207.09031 240.40892 -206.9698 L 240.29968 -203.5469 C 240.20894 -200.70381 239.5916 -197.90224 238.479 -195.28433 L 237.60206 -193.22096 C 237.0435 -191.90669 236.36374 -190.6473 235.5716 -189.45909 L 231.88582 -183.93042 C 231.1383 -182.80915 230.2937 -181.75575 229.36175 -180.78238 L 223.06668 -174.20753 C 222.1986 -173.30087 221.25777 -172.4668 220.2536 -171.71367 L 211.8787 -165.4325 C 211.00228 -164.77518 210.08002 -164.18133 209.11896 -163.65546 L 201.93376 -159.72394 C 200.62263 -159.00653 199.2447 -158.41863 197.81952 -157.96857 L 191.1466 -155.86133 C 189.42973 -155.31916 187.65514 -154.98046 185.85927 -154.85219 L 178.97281 -154.3603 C 177.90052 -154.2837 176.82417 -154.28238 175.75168 -154.35635 L 167.31543 -154.93816 C 166.28125 -155.00948 165.25308 -155.15064 164.23795 -155.36067 L 157.10274 -156.83692 C 155.15079 -157.24077 153.25961 -157.89665 151.47676 -158.78808 L 146.81735 -161.11779 C 145.58321 -161.73485 144.4071 -162.46173 143.30326 -163.28961 L 137.6213 -167.55108 C 137.18217 -167.88043 136.75496 -168.2254 136.34051 -168.58532 L 130.58533 -173.58324 C 129.77104 -174.29038 129.0075 -175.05392 128.30036 -175.8682 L 123.89513 -180.9409 C 123.14103 -181.80925 122.45312 -182.73295 121.8372 -183.70422 L 118.1035 -189.59198 C 117.74293 -190.16056 117.4075 -190.7447 117.09819 -191.34272 L 115.47781 -194.47544 C 114.86867 -195.65312 114.3625 -196.88126 113.96497 -198.14615 L 112.68473 -202.21964 C 112.46995 -202.90302 112.28722 -203.59605 112.13713 -204.29649 L 111.91171 -205.34843 C 111.82664 -205.74544 112.05299 -206.1431 112.4378 -206.27263 L 112.4378 -206.27263 C 112.51029 -206.29704 112.58884 -206.25805 112.61325 -206.18556 C 112.63126 -206.13205 112.61499 -206.07296 112.57212 -206.0362 Z" fill="url(#Obj_Gradient_6)"/>
        <path d="M 112.57212 -206.0362 L 107.84295 -201.98264 C 106.6926 -200.99662 105.44764 -200.1267 104.12621 -199.38552 L 101.59958 -197.96835 C 100.16441 -197.16338 99.5836 -195.39425 100.26239 -193.89527 L 101.28 -191.64803 C 101.40158 -191.37954 101.52831 -191.11342 101.66012 -190.8498 L 105.94938 -182.2713 C 106.29117 -181.5877 106.66683 -180.92157 107.07495 -180.27537 L 109.40134 -176.59192 C 109.84172 -175.89465 110.31928 -175.22158 110.83195 -174.57561 L 114.24264 -170.27815 C 114.78869 -169.59013 115.37371 -168.93394 115.99482 -168.31283 L 120.66087 -163.6468 C 121.06175 -163.24591 121.47731 -162.85999 121.90671 -162.48982 L 126.47023 -158.55574 C 126.86489 -158.21552 127.271 -157.88881 127.68785 -157.57617 L 131.66279 -154.59497 C 132.3287 -154.09553 133.02123 -153.63262 133.73733 -153.20826 L 137.8704 -150.75904 C 137.99839 -150.68319 138.12712 -150.60859 138.25656 -150.53523 L 142.9541 -147.8733 C 143.6924 -147.45493 144.45328 -147.07774 145.23325 -146.74347 L 148.78307 -145.22212 C 149.36903 -144.97099 149.96518 -144.74433 150.56997 -144.54274 L 155.58808 -142.87003 C 156.83532 -142.45429 158.11592 -142.14624 159.4158 -141.9493 L 163.51464 -141.32826 C 163.87976 -141.27294 164.24615 -141.22642 164.6135 -141.18874 L 171.4946 -140.48299 C 171.73978 -140.45784 171.98534 -140.43664 172.2312 -140.41938 L 176.75835 -140.10169 C 177.2942 -140.06409 177.83122 -140.04527 178.3684 -140.04527 L 181.63046 -140.04526 C 182.58416 -140.04526 183.53693 -140.10458 184.48327 -140.22287 L 188.47198 -140.72146 C 189.13195 -140.80396 189.78802 -140.91504 190.43835 -141.0544 L 196.52039 -142.35769 C 197.41426 -142.54924 198.29592 -142.7939 199.16068 -143.09039 L 203.66952 -144.63628 C 204.46417 -144.90873 205.2433 -145.22451 206.0034 -145.5822 L 210.83677 -147.85674 C 211.38697 -148.11565 211.92668 -148.39629 212.45464 -148.69798 L 216.2225 -150.85104 C 216.9153 -151.24692 217.58701 -151.67858 218.23494 -152.14428 L 222.91106 -155.50525 C 223.41175 -155.86511 223.89776 -156.24497 224.36792 -156.64389 L 229.68877 -161.15856 C 230.07108 -161.48294 230.44269 -161.81974 230.80298 -162.16842 L 235.5022 -166.71604 C 236.1418 -167.335 236.7449 -167.99056 237.30852 -168.67942 L 241.1018 -173.31566 C 241.60852 -173.93497 242.08257 -174.58031 242.52201 -175.24904 L 246.1392 -180.75344 C 246.35462 -181.08127 246.56163 -181.41456 246.76002 -181.75298 L 249.2831 -186.05708 C 249.66906 -186.71546 250.022 -187.39265 250.34062 -188.08612 L 252.45932 -192.6974 C 252.99218 -193.85715 253.36334 -195.08456 253.5624 -196.34526 L 253.5624 -196.34526 C 253.7407 -197.47453 253.1614 -198.58797 252.13432 -199.0901 L 246.84088 -201.678 C 245.52642 -202.32063 244.29183 -203.11514 243.1624 -204.04526 L 242.75638 -204.37963 C 241.91205 -205.07496 241.28864 -206.00126 240.9624 -207.04526 L 240.9624 -207.04526 C 240.91573 -207.19458 240.75686 -207.2778 240.60754 -207.23114 C 240.49247 -207.19518 240.41277 -207.09031 240.40892 -206.9698 L 240.29968 -203.5469 C 240.20894 -200.70381 239.5916 -197.90224 238.479 -195.28433 L 237.60206 -193.22096 C 237.0435 -191.90669 236.36374 -190.6473 235.5716 -189.45909 L 231.88582 -183.93042 C 231.1383 -182.80915 230.2937 -181.75575 229.36175 -180.78238 L 223.06668 -174.20753 C 222.1986 -173.30087 221.25777 -172.4668 220.2536 -171.71367 L 211.8787 -165.4325 C 211.00228 -164.77518 210.08002 -164.18133 209.11896 -163.65546 L 201.93376 -159.72394 C 200.62263 -159.00653 199.2447 -158.41863 197.81952 -157.96857 L 191.1466 -155.86133 C 189.42973 -155.31916 187.65514 -154.98046 185.85927 -154.85219 L 178.97281 -154.3603 C 177.90052 -154.2837 176.82417 -154.28238 175.75168 -154.35635 L 167.31543 -154.93816 C 166.28125 -155.00948 165.25308 -155.15064 164.23795 -155.36067 L 157.10274 -156.83692 C 155.15079 -157.24077 153.25961 -157.89665 151.47676 -158.78808 L 146.81735 -161.11779 C 145.58321 -161.73485 144.4071 -162.46173 143.30326 -163.28961 L 137.6213 -167.55108 C 137.18217 -167.88043 136.75496 -168.2254 136.34051 -168.58532 L 130.58533 -173.58324 C 129.77104 -174.29038 129.0075 -175.05392 128.30036 -175.8682 L 123.89513 -180.9409 C 123.14103 -181.80925 122.45312 -182.73295 121.8372 -183.70422 L 118.1035 -189.59198 C 117.74293 -190.16056 117.4075 -190.7447 117.09819 -191.34272 L 115.47781 -194.47544 C 114.86867 -195.65312 114.3625 -196.88126 113.96497 -198.14615 L 112.68473 -202.21964 C 112.46995 -202.90302 112.28722 -203.59605 112.13713 -204.29649 L 111.91171 -205.34843 C 111.82664 -205.74544 112.05299 -206.1431 112.4378 -206.27263 L 112.4378 -206.27263 C 112.51029 -206.29704 112.58884 -206.25805 112.61325 -206.18556 C 112.63126 -206.13205 112.61499 -206.07296 112.57212 -206.0362 Z" stroke="#7f8080" stroke-linecap="round" stroke-linejoin="round" stroke-width="1"/>
      </g>
    </g>
  </g>
</svg>
