<?xml version="1.0" encoding="UTF-8" standalone="no"?>
<!DOCTYPE svg PUBLIC "-//W3C//DTD SVG 1.1//EN" "http://www.w3.org/Graphics/SVG/1.1/DTD/svg11.dtd">
<svg xmlns:xl="http://www.w3.org/1999/xlink" xmlns:dc="http://purl.org/dc/elements/1.1/" xmlns="http://www.w3.org/2000/svg" version="1.1" viewBox="-1039 -157 433 450" width="433" height="450">
  <defs>
    <radialGradient cx="0" cy="0" r="1" id="Gradient" gradientUnits="userSpaceOnUse">
      <stop offset="0" stop-color="#cbcbcb"/>
      <stop offset=".4338305" stop-color="#747a81"/>
      <stop offset="1" stop-color="#021224"/>
    </radialGradient>
    <radialGradient id="Obj_Gradient" xl:href="#Gradient" gradientTransform="translate(-823.2408 -128.6) scale(70.26272)"/>
  </defs>
  <metadata> Produced by OmniGraffle 7.19.2\n2023-12-06 01:13:20 +0000</metadata>
  <g id="En_T" stroke-opacity="1" fill-opacity="1" stroke-dasharray="none" fill="none" stroke="none">
    <title>En T</title>
    <g id="En_T_Capa_1">
      <title>Capa 1</title>
      <g id="Graphic_13">
        <path d="M -884.9943 -155.40955 L -876.8289 -152.29184 C -875.9709 -151.96424 -875.0941 -151.68833 -874.2031 -151.46558 L -860.4859 -148.03629 C -859.3242 -147.74587 -858.1417 -147.54662 -856.949 -147.44034 L -839.4228 -145.8786 C -838.835 -145.82622 -838.2454 -145.79648 -837.6552 -145.78946 L -822.1763 -145.60519 C -821.886 -145.60173 -821.5956 -145.60377 -821.3053 -145.61131 L -806.882 -145.98594 C -806.5212 -145.99531 -806.1607 -146.01317 -805.8008 -146.03951 L -791.4295 -147.09107 C -790.438 -147.16361 -789.4523 -147.30036 -788.4786 -147.50044 L -776.9056 -149.87845 C -775.8636 -150.09256 -774.8377 -150.3787 -773.83535 -150.73481 L -762.0834 -154.90986 C -760.993 -155.29723 -759.7898 -154.76646 -759.34075 -153.7 L -759.34075 -153.7 C -758.8186 -152.4599 -758.6666 -151.09515 -758.90315 -149.77055 L -759.0836 -148.75986 C -759.3874 -147.0587 -759.8819 -145.3972 -760.5579 -143.80681 L -762.1011 -140.17569 C -762.65965 -138.86142 -763.3394 -137.60202 -764.1315 -136.41382 L -767.8173 -130.88515 C -768.5648 -129.76389 -769.4094 -128.71049 -770.3414 -127.73711 L -776.6365 -121.16226 C -777.5045 -120.25561 -778.4454 -119.42154 -779.4495 -118.66841 L -787.8244 -112.38723 C -788.7009 -111.72992 -789.6231 -111.13606 -790.5842 -110.6102 L -797.7694 -106.67867 C -799.0805 -105.96126 -800.4584 -105.37336 -801.8836 -104.9233 L -808.5565 -102.81607 C -810.2734 -102.2739 -812.048 -101.9352 -813.8439 -101.80692 L -820.7303 -101.31503 C -821.8026 -101.23844 -822.879 -101.23712 -823.9515 -101.31108 L -832.3877 -101.89289 C -833.4219 -101.96422 -834.4501 -102.10537 -835.4652 -102.3154 L -842.6004 -103.79165 C -844.5524 -104.1955 -846.4435 -104.85139 -848.2264 -105.74281 L -852.8858 -108.07252 C -854.1199 -108.68959 -855.296 -109.41646 -856.3999 -110.24434 L -862.0818 -114.50581 C -862.521 -114.83517 -862.9482 -115.18013 -863.3626 -115.54005 L -869.1178 -120.53797 C -869.9321 -121.24511 -870.6956 -122.00865 -871.4028 -122.82294 L -875.808 -127.89562 C -876.5621 -128.76398 -877.25 -129.68768 -877.8659 -130.65895 L -881.5996 -136.54671 C -881.9602 -137.1153 -882.2956 -137.69944 -882.605 -138.29745 L -884.2253 -141.43017 C -884.8345 -142.60785 -885.3406 -143.836 -885.7382 -145.10089 L -887.0184 -149.17438 C -887.2332 -149.85775 -887.4159 -150.55079 -887.566 -151.25122 L -887.6408 -151.6 C -887.8354 -152.50843 -887.7282 -153.45557 -887.3353 -154.29746 L -887.2408 -154.5 C -886.8463 -155.3453 -885.8658 -155.7423 -884.9943 -155.40955 Z" fill="url(#Obj_Gradient)"/>
        <path d="M -884.9943 -155.40955 L -876.8289 -152.29184 C -875.9709 -151.96424 -875.0941 -151.68833 -874.2031 -151.46558 L -860.4859 -148.03629 C -859.3242 -147.74587 -858.1417 -147.54662 -856.949 -147.44034 L -839.4228 -145.8786 C -838.835 -145.82622 -838.2454 -145.79648 -837.6552 -145.78946 L -822.1763 -145.60519 C -821.886 -145.60173 -821.5956 -145.60377 -821.3053 -145.61131 L -806.882 -145.98594 C -806.5212 -145.99531 -806.1607 -146.01317 -805.8008 -146.03951 L -791.4295 -147.09107 C -790.438 -147.16361 -789.4523 -147.30036 -788.4786 -147.50044 L -776.9056 -149.87845 C -775.8636 -150.09256 -774.8377 -150.3787 -773.83535 -150.73481 L -762.0834 -154.90986 C -760.993 -155.29723 -759.7898 -154.76646 -759.34075 -153.7 L -759.34075 -153.7 C -758.8186 -152.4599 -758.6666 -151.09515 -758.90315 -149.77055 L -759.0836 -148.75986 C -759.3874 -147.0587 -759.8819 -145.3972 -760.5579 -143.80681 L -762.1011 -140.17569 C -762.65965 -138.86142 -763.3394 -137.60202 -764.1315 -136.41382 L -767.8173 -130.88515 C -768.5648 -129.76389 -769.4094 -128.71049 -770.3414 -127.73711 L -776.6365 -121.16226 C -777.5045 -120.25561 -778.4454 -119.42154 -779.4495 -118.66841 L -787.8244 -112.38723 C -788.7009 -111.72992 -789.6231 -111.13606 -790.5842 -110.6102 L -797.7694 -106.67867 C -799.0805 -105.96126 -800.4584 -105.37336 -801.8836 -104.9233 L -808.5565 -102.81607 C -810.2734 -102.2739 -812.048 -101.9352 -813.8439 -101.80692 L -820.7303 -101.31503 C -821.8026 -101.23844 -822.879 -101.23712 -823.9515 -101.31108 L -832.3877 -101.89289 C -833.4219 -101.96422 -834.4501 -102.10537 -835.4652 -102.3154 L -842.6004 -103.79165 C -844.5524 -104.1955 -846.4435 -104.85139 -848.2264 -105.74281 L -852.8858 -108.07252 C -854.1199 -108.68959 -855.296 -109.41646 -856.3999 -110.24434 L -862.0818 -114.50581 C -862.521 -114.83517 -862.9482 -115.18013 -863.3626 -115.54005 L -869.1178 -120.53797 C -869.9321 -121.24511 -870.6956 -122.00865 -871.4028 -122.82294 L -875.808 -127.89562 C -876.5621 -128.76398 -877.25 -129.68768 -877.8659 -130.65895 L -881.5996 -136.54671 C -881.9602 -137.1153 -882.2956 -137.69944 -882.605 -138.29745 L -884.2253 -141.43017 C -884.8345 -142.60785 -885.3406 -143.836 -885.7382 -145.10089 L -887.0184 -149.17438 C -887.2332 -149.85775 -887.4159 -150.55079 -887.566 -151.25122 L -887.6408 -151.6 C -887.8354 -152.50843 -887.7282 -153.45557 -887.3353 -154.29746 L -887.2408 -154.5 C -886.8463 -155.3453 -885.8658 -155.7423 -884.9943 -155.40955 Z" stroke="#7f8080" stroke-linecap="round" stroke-linejoin="round" stroke-width="1"/>
      </g>
      <g id="Graphic_12">
        <path d="M -950.6699 282.17293 L -936.9277 284.4633 C -936.7443 284.49387 -936.5604 284.52123 -936.3761 284.5454 L -908.0225 288.2607 C -907.7759 288.293 -907.5287 288.31955 -907.2809 288.34033 L -877.038 290.87683 C -876.7811 290.89837 -876.5237 290.9137 -876.2661 290.9228 L -837.3352 292.29916 C -837.1468 292.30582 -836.9584 292.30915 -836.7699 292.30915 L -805.30255 292.30915 C -805.1359 292.30915 -804.9693 292.30655 -804.8028 292.30134 L -779.768 291.519 C -779.5578 291.51244 -779.3477 291.50172 -779.13785 291.48687 L -757.0901 289.92596 C -756.9318 289.91476 -756.7736 289.9012 -756.6157 289.88528 L -731.35525 287.33965 C -731.1535 287.31932 -730.9522 287.29516 -730.75135 287.26717 L -706.95866 283.9518 C -706.75465 283.92337 -706.5512 283.891 -706.3484 283.85472 L -697.1526 282.20915 C -691.8255 281.25588 -688.1746 276.30223 -688.84105 270.9317 L -691.04864 253.14113 C -691.0513 253.1198 -691.0539 253.0985 -691.05645 253.07716 L -694.6203 223.37863 C -694.6418 223.199 -694.6603 223.019 -694.6758 222.83873 L -697.038 195.27952 C -697.04774 195.16594 -697.0563 195.05227 -697.0636 194.9385 L -698.4502 173.34687 C -698.4518 173.32172 -698.4535 173.29658 -698.4552 173.27144 L -700.0474 150.18513 C -700.0509 150.13448 -700.0541 150.0838 -700.0571 150.03312 L -701.2335 130.23095 C -701.2462 130.01644 -701.25466 129.80169 -701.25875 129.58684 L -701.651 108.992 C -701.6521 108.93677 -701.6534 108.88154 -701.65505 108.82632 L -702.2502 88.59198 C -702.2518 88.53676 -702.2531 88.48153 -702.2542 88.4263 L -702.64485 67.91676 C -702.65 67.64506 -702.6483 67.37328 -702.6396 67.10167 L -702.0537 48.74206 C -702.053 48.72012 -702.0522 48.69818 -702.0514 48.67624 L -701.26334 26.80693 C -701.2562 26.608425 -701.2453 26.41007 -701.2308 26.21197 L -699.6733 4.9913526 C -699.6595 4.80323 -699.649 4.614878 -699.6419 4.4263847 L -698.8874 -15.472483 C -698.86424 -16.084228 -698.806 -16.694138 -698.7129 -17.299204 L -695.9739 -35.102722 C -695.8931 -35.62782 -695.7862 -36.148567 -695.6536 -36.66303 L -691.0253 -54.62068 C -690.9102 -55.067255 -690.7759 -55.50864 -690.6227 -55.94361 L -684.9019 -72.18325 C -684.7358 -72.65473 -684.5477 -73.11816 -684.3382 -73.57203 L -678.8067 -85.55707 C -678.704 -85.77956 -678.5962 -85.99967 -678.4834 -86.21721 L -673.1212 -96.55864 C -673.0755 -96.64678 -673.02894 -96.7345 -672.9816 -96.82177 L -667.7656 -106.43873 C -667.02835 -107.79809 -666.0787 -109.03099 -664.9526 -110.09086 L -664.9526 -110.09086 C -664.2774 -110.72633 -664.2452 -111.78883 -664.8807 -112.46402 C -665.0052 -112.5963 -665.1503 -112.70749 -665.31045 -112.79327 L -668.5246 -114.51513 C -668.7432 -114.63226 -668.9646 -114.7443 -669.18845 -114.85114 L -677.0424 -118.59963 C -677.449 -118.7937 -677.86366 -118.9705 -678.2852 -119.12956 L -687.96 -122.78044 C -688.1551 -122.85404 -688.3515 -122.92383 -688.5493 -122.98975 L -701.2438 -127.22124 C -701.383 -127.26765 -701.52284 -127.31214 -701.6633 -127.3547 L -714.5468 -131.2588 C -714.61734 -131.28017 -714.6877 -131.30203 -714.75795 -131.32437 L -727.26195 -135.30292 C -727.6556 -135.42816 -728.0442 -135.5686 -728.427 -135.72393 L -740.4029 -140.58373 C -741.2346 -140.92122 -742.0364 -141.32808 -742.7998 -141.80002 L -752.419 -147.74647 C -752.5747 -147.84272 -752.7288 -147.94164 -752.8811 -148.04317 L -757.7712 -151.30324 C -758.7526 -151.9575 -759.6239 -152.7634 -760.3526 -153.69086 L -760.3526 -153.69086 C -760.4582 -153.82526 -760.6528 -153.8486 -760.7872 -153.743 C -760.8899 -153.66228 -760.9309 -153.52573 -760.8896 -153.40177 L -760.7526 -152.99086 C -760.2934 -151.6131 -760.1888 -150.14182 -760.4486 -148.71297 L -760.8437 -146.5397 C -761.1149 -145.04804 -761.5968 -143.6025 -762.2748 -142.24645 L -763.8071 -139.18182 C -764.1038 -138.58842 -764.43715 -138.01405 -764.8052 -137.46203 L -768.0089 -132.65647 C -768.4375 -132.01357 -768.9121 -131.40256 -769.429 -130.82824 L -773.991 -125.7593 C -774.0321 -125.71367 -774.0734 -125.66828 -774.115 -125.62312 L -780.1092 -119.1151 C -780.737 -118.43356 -781.4227 -117.80783 -782.15875 -117.24498 L -787.1829 -113.40297 C -787.6291 -113.0618 -788.0929 -112.74435 -788.5724 -112.45195 L -795.0588 -108.49683 C -795.7205 -108.09338 -796.4106 -107.73853 -797.12365 -107.4351 L -804.2391 -104.40726 C -805.0467 -104.06357 -805.8813 -103.78693 -806.7343 -103.58013 L -810.8134 -102.59127 C -811.6382 -102.39131 -812.4777 -102.2573 -813.3238 -102.1905 L -819.024 -101.74048 C -819.4429 -101.70741 -819.863 -101.69086 -820.2832 -101.69086 L -827.3155 -101.69086 C -828.0726 -101.69086 -828.8288 -101.74459 -829.5783 -101.85166 L -837.5247 -102.98687 C -838.0097 -103.05616 -838.4913 -103.14768 -838.9679 -103.26116 L -844.9291 -104.6805 C -846.0746 -104.95324 -847.1865 -105.35159 -848.2446 -105.86832 L -854.5246 -108.9353 C -855.0096 -109.17218 -855.4824 -109.43346 -855.941 -109.71814 L -860.1529 -112.3324 C -860.752 -112.7043 -861.326 -113.1154 -861.8709 -113.56302 L -866.317 -117.21518 C -866.5407 -117.39893 -866.7594 -117.58872 -866.9728 -117.78433 L -870.7751 -121.26981 C -871.2264 -121.6835 -871.6536 -122.12275 -872.0545 -122.58539 L -876.1733 -127.33779 C -876.4927 -127.7063 -876.795 -128.08923 -877.0794 -128.48537 L -881.5091 -134.65525 C -882.004 -135.34456 -882.4433 -136.07215 -882.8228 -136.83114 L -885.3992 -141.98406 C -885.4348 -142.05526 -885.4699 -142.12672 -885.5044 -142.19843 L -886.7526 -144.79086 C -887.6033 -146.55772 -887.9588 -148.52226 -887.7813 -150.47521 L -887.6011 -152.45747 C -887.5773 -152.71933 -887.7703 -152.95091 -888.0321 -152.97472 C -888.1945 -152.98948 -888.3532 -152.9201 -888.4526 -152.79086 L -888.4526 -152.79086 C -889.1161 -151.92838 -889.8962 -151.1623 -890.7705 -150.51461 L -894.6671 -147.62829 C -894.7908 -147.53667 -894.9158 -147.44684 -895.042 -147.35883 L -899.6643 -144.13726 C -900.851 -143.31015 -902.1444 -142.64778 -903.5092 -142.16827 L -908.1163 -140.54955 C -908.6069 -140.37719 -909.0888 -140.18102 -909.5602 -139.96173 L -916.407 -136.77718 C -917.1032 -136.45338 -917.8217 -136.18012 -918.5571 -135.9595 L -929.4275 -132.69838 C -929.4443 -132.69336 -929.461 -132.68832 -929.4777 -132.68325 L -940.4458 -129.35365 C -940.5837 -129.31179 -940.721 -129.26807 -940.8577 -129.2225 L -953.7789 -124.91542 C -953.828 -124.89904 -953.8773 -124.8829 -953.9265 -124.86701 L -965.2939 -121.2001 C -965.9324 -120.99414 -966.5573 -120.74823 -967.1649 -120.46381 L -975.0969 -116.75098 C -975.4672 -116.57763 -975.8308 -116.39014 -976.1868 -116.18894 L -982.1329 -112.82809 C -983.3859 -112.11985 -983.8276 -110.52993 -983.1193 -109.2769 C -983.0422 -109.14046 -982.953 -109.01125 -982.8526 -108.89086 L -981.9885 -107.85392 C -981.2336 -106.94799 -980.5811 -105.96137 -980.043 -104.91204 L -976.9658 -98.91162 C -976.8904 -98.76445 -976.8126 -98.61846 -976.7326 -98.47371 L -972.7779 -91.31749 C -972.6944 -91.16641 -972.6133 -91.01399 -972.5348 -90.86029 L -968.4265 -82.8223 C -968.1774 -82.33499 -967.9535 -81.83522 -967.7556 -81.32497 L -964.2729 -72.34309 C -964.2594 -72.30827 -964.2457 -72.27349 -964.232 -72.23876 L -960.6357 -63.153315 C -960.5137 -62.84508 -960.4013 -62.53313 -960.2986 -62.21792 L -957.6768 -54.16514 C -957.6607 -54.115616 -957.6448 -54.066015 -957.6292 -54.016337 L -954.5571 -44.258066 C -954.3543 -43.613904 -954.1925 -42.95755 -954.0727 -42.29294 L -952.0874 -31.283483 C -952.0642 -31.15507 -952.0426 -31.026375 -952.0226 -30.897432 L -950.3167 -19.90405 C -950.274 -19.628633 -950.2385 -19.352146 -950.2102 -19.074872 L -949.3227 -10.378157 C -949.276 -9.920168 -949.2491 -9.460376 -949.242 -9.000063 L -949.0577 2.9755587 C -949.0543 3.1979264 -949.0463 3.4201987 -949.0336 3.6422306 L -948.2632 17.123793 C -948.2561 17.247358 -948.2477 17.370837 -948.2377 17.494205 L -946.9042 34.068577 C -946.8698 34.49545 -946.8526 34.923533 -946.8526 35.351787 L -946.8526 47.80157 C -946.8526 48.0066 -946.8487 48.211617 -946.8408 48.4165 L -946.2604 63.50564 C -946.2552 63.641305 -946.2517 63.777034 -946.25 63.91279 L -946.0578 78.70905 C -946.0543 78.97574 -946.0576 79.24248 -946.0674 79.50901 L -946.6417 95.01316 C -946.649 95.21047 -946.6526 95.4079 -946.6526 95.60534 L -946.6526 109.20157 C -946.6526 109.4066 -946.6566 109.61162 -946.6644 109.8165 L -947.2496 125.0315 C -947.2516 125.08327 -947.2539 125.13502 -947.2564 125.18676 L -948.0517 141.6897 C -948.0523 141.70266 -948.0529 141.71563 -948.0536 141.7286 L -948.8481 157.41976 C -948.8511 157.47935 -948.8545 157.53893 -948.8581 157.59848 L -950.047 176.81921 C -950.0508 176.87917 -950.0548 176.9391 -950.0592 176.99902 L -951.8423 201.36857 C -951.8492 201.46229 -951.8569 201.55594 -951.8654 201.64953 L -953.6513 221.29434 C -953.6522 221.30421 -953.6531 221.31409 -953.654 221.32396 L -955.4248 240.40886 C -955.4433 240.60904 -955.4657 240.80884 -955.4918 241.00818 L -957.4525 255.9809 C -957.5853 256.9951 -957.8544 257.9867 -958.2526 258.92888 L -958.2526 258.92888 C -958.6502 259.86962 -958.8989 260.86654 -958.9897 261.8838 L -959.7526 270.42888 C -960.2604 276.1159 -956.3019 281.23427 -950.6699 282.17293 Z" fill="red"/>
        <path d="M -950.6699 282.17293 L -936.9277 284.4633 C -936.7443 284.49387 -936.5604 284.52123 -936.3761 284.5454 L -908.0225 288.2607 C -907.7759 288.293 -907.5287 288.31955 -907.2809 288.34033 L -877.038 290.87683 C -876.7811 290.89837 -876.5237 290.9137 -876.2661 290.9228 L -837.3352 292.29916 C -837.1468 292.30582 -836.9584 292.30915 -836.7699 292.30915 L -805.30255 292.30915 C -805.1359 292.30915 -804.9693 292.30655 -804.8028 292.30134 L -779.768 291.519 C -779.5578 291.51244 -779.3477 291.50172 -779.13785 291.48687 L -757.0901 289.92596 C -756.9318 289.91476 -756.7736 289.9012 -756.6157 289.88528 L -731.35525 287.33965 C -731.1535 287.31932 -730.9522 287.29516 -730.75135 287.26717 L -706.95866 283.9518 C -706.75465 283.92337 -706.5512 283.891 -706.3484 283.85472 L -697.1526 282.20915 C -691.8255 281.25588 -688.1746 276.30223 -688.84105 270.9317 L -691.04864 253.14113 C -691.0513 253.1198 -691.0539 253.0985 -691.05645 253.07716 L -694.6203 223.37863 C -694.6418 223.199 -694.6603 223.019 -694.6758 222.83873 L -697.038 195.27952 C -697.04774 195.16594 -697.0563 195.05227 -697.0636 194.9385 L -698.4502 173.34687 C -698.4518 173.32172 -698.4535 173.29658 -698.4552 173.27144 L -700.0474 150.18513 C -700.0509 150.13448 -700.0541 150.0838 -700.0571 150.03312 L -701.2335 130.23095 C -701.2462 130.01644 -701.25466 129.80169 -701.25875 129.58684 L -701.651 108.992 C -701.6521 108.93677 -701.6534 108.88154 -701.65505 108.82632 L -702.2502 88.59198 C -702.2518 88.53676 -702.2531 88.48153 -702.2542 88.4263 L -702.64485 67.91676 C -702.65 67.64506 -702.6483 67.37328 -702.6396 67.10167 L -702.0537 48.74206 C -702.053 48.72012 -702.0522 48.69818 -702.0514 48.67624 L -701.26334 26.80693 C -701.2562 26.608425 -701.2453 26.41007 -701.2308 26.21197 L -699.6733 4.9913526 C -699.6595 4.80323 -699.649 4.614878 -699.6419 4.4263847 L -698.8874 -15.472483 C -698.86424 -16.084228 -698.806 -16.694138 -698.7129 -17.299204 L -695.9739 -35.102722 C -695.8931 -35.62782 -695.7862 -36.148567 -695.6536 -36.66303 L -691.0253 -54.62068 C -690.9102 -55.067255 -690.7759 -55.50864 -690.6227 -55.94361 L -684.9019 -72.18325 C -684.7358 -72.65473 -684.5477 -73.11816 -684.3382 -73.57203 L -678.8067 -85.55707 C -678.704 -85.77956 -678.5962 -85.99967 -678.4834 -86.21721 L -673.1212 -96.55864 C -673.0755 -96.64678 -673.02894 -96.7345 -672.9816 -96.82177 L -667.7656 -106.43873 C -667.02835 -107.79809 -666.0787 -109.03099 -664.9526 -110.09086 L -664.9526 -110.09086 C -664.2774 -110.72633 -664.2452 -111.78883 -664.8807 -112.46402 C -665.0052 -112.5963 -665.1503 -112.70749 -665.31045 -112.79327 L -668.5246 -114.51513 C -668.7432 -114.63226 -668.9646 -114.7443 -669.18845 -114.85114 L -677.0424 -118.59963 C -677.449 -118.7937 -677.86366 -118.9705 -678.2852 -119.12956 L -687.96 -122.78044 C -688.1551 -122.85404 -688.3515 -122.92383 -688.5493 -122.98975 L -701.2438 -127.22124 C -701.383 -127.26765 -701.52284 -127.31214 -701.6633 -127.3547 L -714.5468 -131.2588 C -714.61734 -131.28017 -714.6877 -131.30203 -714.75795 -131.32437 L -727.26195 -135.30292 C -727.6556 -135.42816 -728.0442 -135.5686 -728.427 -135.72393 L -740.4029 -140.58373 C -741.2346 -140.92122 -742.0364 -141.32808 -742.7998 -141.80002 L -752.419 -147.74647 C -752.5747 -147.84272 -752.7288 -147.94164 -752.8811 -148.04317 L -757.7712 -151.30324 C -758.7526 -151.9575 -759.6239 -152.7634 -760.3526 -153.69086 L -760.3526 -153.69086 C -760.4582 -153.82526 -760.6528 -153.8486 -760.7872 -153.743 C -760.8899 -153.66228 -760.9309 -153.52573 -760.8896 -153.40177 L -760.7526 -152.99086 C -760.2934 -151.6131 -760.1888 -150.14182 -760.4486 -148.71297 L -760.8437 -146.5397 C -761.1149 -145.04804 -761.5968 -143.6025 -762.2748 -142.24645 L -763.8071 -139.18182 C -764.1038 -138.58842 -764.43715 -138.01405 -764.8052 -137.46203 L -768.0089 -132.65647 C -768.4375 -132.01357 -768.9121 -131.40256 -769.429 -130.82824 L -773.991 -125.7593 C -774.0321 -125.71367 -774.0734 -125.66828 -774.115 -125.62312 L -780.1092 -119.1151 C -780.737 -118.43356 -781.4227 -117.80783 -782.15875 -117.24498 L -787.1829 -113.40297 C -787.6291 -113.0618 -788.0929 -112.74435 -788.5724 -112.45195 L -795.0588 -108.49683 C -795.7205 -108.09338 -796.4106 -107.73853 -797.12365 -107.4351 L -804.2391 -104.40726 C -805.0467 -104.06357 -805.8813 -103.78693 -806.7343 -103.58013 L -810.8134 -102.59127 C -811.6382 -102.39131 -812.4777 -102.2573 -813.3238 -102.1905 L -819.024 -101.74048 C -819.4429 -101.70741 -819.863 -101.69086 -820.2832 -101.69086 L -827.3155 -101.69086 C -828.0726 -101.69086 -828.8288 -101.74459 -829.5783 -101.85166 L -837.5247 -102.98687 C -838.0097 -103.05616 -838.4913 -103.14768 -838.9679 -103.26116 L -844.9291 -104.6805 C -846.0746 -104.95324 -847.1865 -105.35159 -848.2446 -105.86832 L -854.5246 -108.9353 C -855.0096 -109.17218 -855.4824 -109.43346 -855.941 -109.71814 L -860.1529 -112.3324 C -860.752 -112.7043 -861.326 -113.1154 -861.8709 -113.56302 L -866.317 -117.21518 C -866.5407 -117.39893 -866.7594 -117.58872 -866.9728 -117.78433 L -870.7751 -121.26981 C -871.2264 -121.6835 -871.6536 -122.12275 -872.0545 -122.58539 L -876.1733 -127.33779 C -876.4927 -127.7063 -876.795 -128.08923 -877.0794 -128.48537 L -881.5091 -134.65525 C -882.004 -135.34456 -882.4433 -136.07215 -882.8228 -136.83114 L -885.3992 -141.98406 C -885.4348 -142.05526 -885.4699 -142.12672 -885.5044 -142.19843 L -886.7526 -144.79086 C -887.6033 -146.55772 -887.9588 -148.52226 -887.7813 -150.47521 L -887.6011 -152.45747 C -887.5773 -152.71933 -887.7703 -152.95091 -888.0321 -152.97472 C -888.1945 -152.98948 -888.3532 -152.9201 -888.4526 -152.79086 L -888.4526 -152.79086 C -889.1161 -151.92838 -889.8962 -151.1623 -890.7705 -150.51461 L -894.6671 -147.62829 C -894.7908 -147.53667 -894.9158 -147.44684 -895.042 -147.35883 L -899.6643 -144.13726 C -900.851 -143.31015 -902.1444 -142.64778 -903.5092 -142.16827 L -908.1163 -140.54955 C -908.6069 -140.37719 -909.0888 -140.18102 -909.5602 -139.96173 L -916.407 -136.77718 C -917.1032 -136.45338 -917.8217 -136.18012 -918.5571 -135.9595 L -929.4275 -132.69838 C -929.4443 -132.69336 -929.461 -132.68832 -929.4777 -132.68325 L -940.4458 -129.35365 C -940.5837 -129.31179 -940.721 -129.26807 -940.8577 -129.2225 L -953.7789 -124.91542 C -953.828 -124.89904 -953.8773 -124.8829 -953.9265 -124.86701 L -965.2939 -121.2001 C -965.9324 -120.99414 -966.5573 -120.74823 -967.1649 -120.46381 L -975.0969 -116.75098 C -975.4672 -116.57763 -975.8308 -116.39014 -976.1868 -116.18894 L -982.1329 -112.82809 C -983.3859 -112.11985 -983.8276 -110.52993 -983.1193 -109.2769 C -983.0422 -109.14046 -982.953 -109.01125 -982.8526 -108.89086 L -981.9885 -107.85392 C -981.2336 -106.94799 -980.5811 -105.96137 -980.043 -104.91204 L -976.9658 -98.91162 C -976.8904 -98.76445 -976.8126 -98.61846 -976.7326 -98.47371 L -972.7779 -91.31749 C -972.6944 -91.16641 -972.6133 -91.01399 -972.5348 -90.86029 L -968.4265 -82.8223 C -968.1774 -82.33499 -967.9535 -81.83522 -967.7556 -81.32497 L -964.2729 -72.34309 C -964.2594 -72.30827 -964.2457 -72.27349 -964.232 -72.23876 L -960.6357 -63.153315 C -960.5137 -62.84508 -960.4013 -62.53313 -960.2986 -62.21792 L -957.6768 -54.16514 C -957.6607 -54.115616 -957.6448 -54.066015 -957.6292 -54.016337 L -954.5571 -44.258066 C -954.3543 -43.613904 -954.1925 -42.95755 -954.0727 -42.29294 L -952.0874 -31.283483 C -952.0642 -31.15507 -952.0426 -31.026375 -952.0226 -30.897432 L -950.3167 -19.90405 C -950.274 -19.628633 -950.2385 -19.352146 -950.2102 -19.074872 L -949.3227 -10.378157 C -949.276 -9.920168 -949.2491 -9.460376 -949.242 -9.000063 L -949.0577 2.9755587 C -949.0543 3.1979264 -949.0463 3.4201987 -949.0336 3.6422306 L -948.2632 17.123793 C -948.2561 17.247358 -948.2477 17.370837 -948.2377 17.494205 L -946.9042 34.068577 C -946.8698 34.49545 -946.8526 34.923533 -946.8526 35.351787 L -946.8526 47.80157 C -946.8526 48.0066 -946.8487 48.211617 -946.8408 48.4165 L -946.2604 63.50564 C -946.2552 63.641305 -946.2517 63.777034 -946.25 63.91279 L -946.0578 78.70905 C -946.0543 78.97574 -946.0576 79.24248 -946.0674 79.50901 L -946.6417 95.01316 C -946.649 95.21047 -946.6526 95.4079 -946.6526 95.60534 L -946.6526 109.20157 C -946.6526 109.4066 -946.6566 109.61162 -946.6644 109.8165 L -947.2496 125.0315 C -947.2516 125.08327 -947.2539 125.13502 -947.2564 125.18676 L -948.0517 141.6897 C -948.0523 141.70266 -948.0529 141.71563 -948.0536 141.7286 L -948.8481 157.41976 C -948.8511 157.47935 -948.8545 157.53893 -948.8581 157.59848 L -950.047 176.81921 C -950.0508 176.87917 -950.0548 176.9391 -950.0592 176.99902 L -951.8423 201.36857 C -951.8492 201.46229 -951.8569 201.55594 -951.8654 201.64953 L -953.6513 221.29434 C -953.6522 221.30421 -953.6531 221.31409 -953.654 221.32396 L -955.4248 240.40886 C -955.4433 240.60904 -955.4657 240.80884 -955.4918 241.00818 L -957.4525 255.9809 C -957.5853 256.9951 -957.8544 257.9867 -958.2526 258.92888 L -958.2526 258.92888 C -958.6502 259.86962 -958.8989 260.86654 -958.9897 261.8838 L -959.7526 270.42888 C -960.2604 276.1159 -956.3019 281.23427 -950.6699 282.17293 Z" stroke="#7f8080" stroke-linecap="round" stroke-linejoin="round" stroke-width="1"/>
      </g>
      <g id="Graphic_11">
        <path d="M -1038 -4.5538544 L -1031.8 -.15385434 L -1023.6 3.8461457 L -1015 7.446146 L -1006 11.246146 L -995 15.246146 L -985.6 18.046146 L -976.6 20.646146 L -967.6 23.246146 L -962.2 24.646146 L -956.6 25.646146 L -954.2 19.846146 L -951.6 14.446146 L -949.4 10.446146 L -946.8 7.046146 L -946.6 -1.9538544 L -947.2 -12.953855 L -949 -23.753855 L -950.6 -34.153855 L -953.2 -45.153855 L -955.6 -54.753855 L -958.4 -62.753855 L -961.6 -72.153855 L -964.4 -79.55386 L -968 -87.15386 L -972 -94.75386 L -976 -102.15386 L -978.6 -105.75386 L -982.2 -111.55386 L -987.6 -107.15386 L -992.4 -102.35386 L -997 -96.15386 L -1001.4 -89.95386 L -1006.2 -81.35386 L -1011 -71.953855 L -1015.8 -62.753855 L -1019.4 -54.153855 L -1023.4 -45.153855 L -1026.6 -36.953855 L -1030.4 -27.553855 L -1033.2 -19.553855 L -1036.2 -11.153855 Z" fill="red"/>
        <path d="M -1038 -4.5538544 L -1031.8 -.15385434 L -1023.6 3.8461457 L -1015 7.446146 L -1006 11.246146 L -995 15.246146 L -985.6 18.046146 L -976.6 20.646146 L -967.6 23.246146 L -962.2 24.646146 L -956.6 25.646146 L -954.2 19.846146 L -951.6 14.446146 L -949.4 10.446146 L -946.8 7.046146 L -946.6 -1.9538544 L -947.2 -12.953855 L -949 -23.753855 L -950.6 -34.153855 L -953.2 -45.153855 L -955.6 -54.753855 L -958.4 -62.753855 L -961.6 -72.153855 L -964.4 -79.55386 L -968 -87.15386 L -972 -94.75386 L -976 -102.15386 L -978.6 -105.75386 L -982.2 -111.55386 L -987.6 -107.15386 L -992.4 -102.35386 L -997 -96.15386 L -1001.4 -89.95386 L -1006.2 -81.35386 L -1011 -71.953855 L -1015.8 -62.753855 L -1019.4 -54.153855 L -1023.4 -45.153855 L -1026.6 -36.953855 L -1030.4 -27.553855 L -1033.2 -19.553855 L -1036.2 -11.153855 Z" stroke="#7f8080" stroke-linecap="round" stroke-linejoin="round" stroke-width="1"/>
      </g>
      <g id="Graphic_10">
        <path d="M -606.5947 -5.4972506 L -612.7947 -1.0972506 L -620.9947 2.9027495 L -629.5947 6.5027495 L -638.5947 10.30275 L -649.5947 14.30275 L -658.9947 17.10275 L -667.9947 19.70275 L -676.9947 22.30275 L -682.3947 23.70275 L -687.9947 24.70275 L -690.3947 18.90275 L -692.9947 13.50275 L -695.1947 9.50275 L -697.7947 6.1027495 L -697.9947 -2.8972506 L -697.3947 -13.89725 L -695.5947 -24.69725 L -693.9947 -35.09725 L -694 -41 L -690 -57 L -686.5 -68 L -683.6 -75.8 L -680 -83.4 L -676.4 -90.8 L -672.2 -98.6 L -667.8 -105.8 L -665.8 -109.4 L -664.6 -112.8 L -656.9947 -108.09725 L -652.1947 -103.29725 L -647.5947 -97.09725 L -643.1947 -90.89725 L -638.3947 -82.29725 L -633.5947 -72.89725 L -628.7947 -63.69725 L -625.1947 -55.09725 L -621.1947 -46.09725 L -617.9947 -37.89725 L -614.1947 -28.49725 L -611.3947 -20.49725 L -608.3947 -12.097251 Z" fill="red"/>
        <path d="M -606.5947 -5.4972506 L -612.7947 -1.0972506 L -620.9947 2.9027495 L -629.5947 6.5027495 L -638.5947 10.30275 L -649.5947 14.30275 L -658.9947 17.10275 L -667.9947 19.70275 L -676.9947 22.30275 L -682.3947 23.70275 L -687.9947 24.70275 L -690.3947 18.90275 L -692.9947 13.50275 L -695.1947 9.50275 L -697.7947 6.1027495 L -697.9947 -2.8972506 L -697.3947 -13.89725 L -695.5947 -24.69725 L -693.9947 -35.09725 L -694 -41 L -690 -57 L -686.5 -68 L -683.6 -75.8 L -680 -83.4 L -676.4 -90.8 L -672.2 -98.6 L -667.8 -105.8 L -665.8 -109.4 L -664.6 -112.8 L -656.9947 -108.09725 L -652.1947 -103.29725 L -647.5947 -97.09725 L -643.1947 -90.89725 L -638.3947 -82.29725 L -633.5947 -72.89725 L -628.7947 -63.69725 L -625.1947 -55.09725 L -621.1947 -46.09725 L -617.9947 -37.89725 L -614.1947 -28.49725 L -611.3947 -20.49725 L -608.3947 -12.097251 Z" stroke="#7f8080" stroke-linecap="round" stroke-linejoin="round" stroke-width="1"/>
      </g>
      <g id="Graphic_9">
        <path d="M -1038 -4.5538544 L -1031.8 -.15385434 L -1023.6 3.8461457 L -1015 7.446146 L -1006 11.246146 L -995 15.246146 L -985.6 18.046146 L -976.6 20.646146 L -967.6 23.246146 L -962.2 24.646146 L -956.6 25.646146 L -953.6 19.246146 L -957.4 18.446146 L -962.2 17.246146 L -967.8 16.046146 L -973.8 14.246146 L -978.4 12.846146 L -982.6 11.646146 L -987.2 9.646146 L -991.8 8.046146 L -996.6 6.046146 L -1000.6 4.646146 L -1005.8 2.4461457 L -1010.4 .8461457 L -1015.2 -1.3538544 L -1020 -3.1538544 L -1024 -5.1538544 L -1028.4 -7.3538544 L -1032.8 -9.553854 L -1036.2 -11.153855 Z" fill="red"/>
        <path d="M -1038 -4.5538544 L -1031.8 -.15385434 L -1023.6 3.8461457 L -1015 7.446146 L -1006 11.246146 L -995 15.246146 L -985.6 18.046146 L -976.6 20.646146 L -967.6 23.246146 L -962.2 24.646146 L -956.6 25.646146 L -953.6 19.246146 L -957.4 18.446146 L -962.2 17.246146 L -967.8 16.046146 L -973.8 14.246146 L -978.4 12.846146 L -982.6 11.646146 L -987.2 9.646146 L -991.8 8.046146 L -996.6 6.046146 L -1000.6 4.646146 L -1005.8 2.4461457 L -1010.4 .8461457 L -1015.2 -1.3538544 L -1020 -3.1538544 L -1024 -5.1538544 L -1028.4 -7.3538544 L -1032.8 -9.553854 L -1036.2 -11.153855 Z" stroke="#7f8080" stroke-linecap="round" stroke-linejoin="round" stroke-width="1"/>
      </g>
      <g id="Graphic_8">
        <path d="M -606.5947 -5.4972506 L -612.7947 -1.0972506 L -620.9947 2.9027495 L -629.5947 6.5027495 L -638.5947 10.30275 L -649.5947 14.30275 L -658.9947 17.10275 L -667.9947 19.70275 L -676.9947 22.30275 L -682.3947 23.70275 L -687.9947 24.70275 L -690.9947 18.30275 L -687.1947 17.50275 L -682.3947 16.30275 L -676.7947 15.10275 L -670.7947 13.30275 L -666.1947 11.90275 L -661.9947 10.70275 L -657.3947 8.70275 L -652.7947 7.1027496 L -647.9947 5.1027495 L -643.9947 3.7027495 L -638.7947 1.5027495 L -634.1947 -.09725055 L -629.3947 -2.2972506 L -624.5947 -4.0972506 L -620.5947 -6.097251 L -616.1947 -8.297251 L -611.7947 -10.497251 L -608.3947 -12.097251 Z" fill="red"/>
        <path d="M -606.5947 -5.4972506 L -612.7947 -1.0972506 L -620.9947 2.9027495 L -629.5947 6.5027495 L -638.5947 10.30275 L -649.5947 14.30275 L -658.9947 17.10275 L -667.9947 19.70275 L -676.9947 22.30275 L -682.3947 23.70275 L -687.9947 24.70275 L -690.9947 18.30275 L -687.1947 17.50275 L -682.3947 16.30275 L -676.7947 15.10275 L -670.7947 13.30275 L -666.1947 11.90275 L -661.9947 10.70275 L -657.3947 8.70275 L -652.7947 7.1027496 L -647.9947 5.1027495 L -643.9947 3.7027495 L -638.7947 1.5027495 L -634.1947 -.09725055 L -629.3947 -2.2972506 L -624.5947 -4.0972506 L -620.5947 -6.097251 L -616.1947 -8.297251 L -611.7947 -10.497251 L -608.3947 -12.097251 Z" stroke="#7f8080" stroke-linecap="round" stroke-linejoin="round" stroke-width="1"/>
      </g>
      <g id="Graphic_7">
        <path d="M -887.4279 -154.03621 L -892.157 -149.98264 C -893.3074 -148.99662 -894.5524 -148.1267 -895.8738 -147.38552 L -898.4004 -145.96835 C -899.8356 -145.16338 -900.4164 -143.39425 -899.7376 -141.89527 L -898.72 -139.64803 C -898.5984 -139.37954 -898.4717 -139.11342 -898.3399 -138.8498 L -894.0506 -130.2713 C -893.7088 -129.5877 -893.3332 -128.92157 -892.925 -128.27537 L -890.5987 -124.59192 C -890.1583 -123.89465 -889.6807 -123.22158 -889.168 -122.57561 L -885.7574 -118.27815 C -885.2113 -117.59013 -884.6263 -116.93394 -884.0052 -116.31283 L -879.3391 -111.64679 C -878.9383 -111.24591 -878.5227 -110.85999 -878.0933 -110.48982 L -873.5298 -106.55574 C -873.1351 -106.21552 -872.729 -105.88881 -872.3122 -105.57617 L -868.3372 -102.59497 C -867.6713 -102.09553 -866.9788 -101.63262 -866.2627 -101.20826 L -862.1296 -98.75904 C -862.0016 -98.68319 -861.8729 -98.60859 -861.7434 -98.53523 L -857.0459 -95.87329 C -856.3076 -95.45493 -855.5467 -95.07774 -854.7667 -94.74347 L -851.2169 -93.22212 C -850.631 -92.97099 -850.0348 -92.74433 -849.43 -92.54274 L -844.4119 -90.87003 C -843.1647 -90.45429 -841.8841 -90.14624 -840.5842 -89.94929 L -836.4854 -89.32826 C -836.1202 -89.27294 -835.7539 -89.22642 -835.3865 -89.18874 L -828.5054 -88.48299 C -828.2602 -88.45784 -828.0147 -88.43664 -827.7688 -88.41938 L -823.2417 -88.10169 C -822.7058 -88.06409 -822.1688 -88.04527 -821.6316 -88.04527 L -818.3695 -88.04526 C -817.4158 -88.04526 -816.4631 -88.10458 -815.5167 -88.22287 L -811.528 -88.72146 C -810.8681 -88.80396 -810.212 -88.91504 -809.5616 -89.0544 L -803.4796 -90.35769 C -802.5857 -90.54924 -801.7041 -90.7939 -800.8393 -91.09039 L -796.3305 -92.63628 C -795.5358 -92.90873 -794.7567 -93.22451 -793.9966 -93.58221 L -789.1632 -95.85674 C -788.613 -96.11565 -788.0733 -96.39629 -787.5454 -96.69798 L -783.7775 -98.85104 C -783.0847 -99.24692 -782.413 -99.67858 -781.7651 -100.14428 L -777.0889 -103.50525 C -776.58825 -103.86511 -776.1022 -104.24497 -775.6321 -104.64389 L -770.3112 -109.15856 C -769.9289 -109.48294 -769.5573 -109.81974 -769.197 -110.16842 L -764.4978 -114.71604 C -763.8582 -115.335 -763.2551 -115.99056 -762.6915 -116.67942 L -758.8982 -121.31566 C -758.3915 -121.93497 -757.9174 -122.58031 -757.478 -123.24904 L -753.8608 -128.75344 C -753.6454 -129.08127 -753.4384 -129.41456 -753.24 -129.75298 L -750.7169 -134.05708 C -750.3309 -134.71546 -749.978 -135.39265 -749.6594 -136.08612 L -747.5407 -140.69739 C -747.0078 -141.85715 -746.6367 -143.08456 -746.4376 -144.34526 L -746.4376 -144.34526 C -746.2593 -145.47453 -746.8386 -146.58797 -747.8657 -147.0901 L -753.1591 -149.678 C -754.4736 -150.32063 -755.7082 -151.11514 -756.8376 -152.04526 L -757.2436 -152.37963 C -758.08795 -153.07496 -758.7114 -154.00126 -759.0376 -155.04526 L -759.0376 -155.04526 C -759.0843 -155.19458 -759.2431 -155.2778 -759.3925 -155.23114 C -759.5075 -155.19518 -759.5872 -155.09031 -759.5911 -154.96981 L -759.7003 -151.54689 C -759.7911 -148.70381 -760.4084 -145.90224 -761.521 -143.28433 L -762.3979 -141.22096 C -762.9565 -139.90669 -763.6363 -138.64729 -764.4284 -137.45909 L -768.1142 -131.93042 C -768.8617 -130.80915 -769.7063 -129.75575 -770.63825 -128.78238 L -776.9333 -122.20753 C -777.8014 -121.30087 -778.7422 -120.4668 -779.7464 -119.71367 L -788.1213 -113.4325 C -788.9977 -112.77518 -789.92 -112.18133 -790.881 -111.65546 L -798.0662 -107.72394 C -799.3774 -107.00653 -800.7553 -106.41863 -802.1805 -105.96857 L -808.8534 -103.86133 C -810.5703 -103.31916 -812.3449 -102.98046 -814.1407 -102.85219 L -821.0272 -102.3603 C -822.0995 -102.2837 -823.1758 -102.28238 -824.2483 -102.35635 L -832.6846 -102.93816 C -833.7187 -103.00948 -834.7469 -103.15064 -835.7621 -103.36067 L -842.8973 -104.83692 C -844.8492 -105.24077 -846.7404 -105.89665 -848.5232 -106.78808 L -853.1827 -109.11779 C -854.4168 -109.73485 -855.5929 -110.46173 -856.6967 -111.28961 L -862.3787 -115.55108 C -862.8178 -115.88043 -863.245 -116.2254 -863.6595 -116.58532 L -869.4147 -121.58324 C -870.229 -122.29038 -870.9925 -123.05392 -871.6996 -123.8682 L -876.1049 -128.94089 C -876.859 -129.80925 -877.5469 -130.73295 -878.1628 -131.70422 L -881.8965 -137.59198 C -882.2571 -138.16056 -882.5925 -138.7447 -882.9018 -139.34272 L -884.5222 -142.47544 C -885.1313 -143.65312 -885.6375 -144.88126 -886.035 -146.14615 L -887.3153 -150.21964 C -887.53 -150.90302 -887.7128 -151.59605 -887.8629 -152.29649 L -888.0883 -153.34843 C -888.1734 -153.74544 -887.947 -154.1431 -887.5622 -154.27263 L -887.5622 -154.27263 C -887.4897 -154.29704 -887.4112 -154.25805 -887.3868 -154.18556 C -887.3687 -154.13205 -887.385 -154.07296 -887.4279 -154.03621 Z" fill="red"/>
        <path d="M -887.4279 -154.03621 L -892.157 -149.98264 C -893.3074 -148.99662 -894.5524 -148.1267 -895.8738 -147.38552 L -898.4004 -145.96835 C -899.8356 -145.16338 -900.4164 -143.39425 -899.7376 -141.89527 L -898.72 -139.64803 C -898.5984 -139.37954 -898.4717 -139.11342 -898.3399 -138.8498 L -894.0506 -130.2713 C -893.7088 -129.5877 -893.3332 -128.92157 -892.925 -128.27537 L -890.5987 -124.59192 C -890.1583 -123.89465 -889.6807 -123.22158 -889.168 -122.57561 L -885.7574 -118.27815 C -885.2113 -117.59013 -884.6263 -116.93394 -884.0052 -116.31283 L -879.3391 -111.64679 C -878.9383 -111.24591 -878.5227 -110.85999 -878.0933 -110.48982 L -873.5298 -106.55574 C -873.1351 -106.21552 -872.729 -105.88881 -872.3122 -105.57617 L -868.3372 -102.59497 C -867.6713 -102.09553 -866.9788 -101.63262 -866.2627 -101.20826 L -862.1296 -98.75904 C -862.0016 -98.68319 -861.8729 -98.60859 -861.7434 -98.53523 L -857.0459 -95.87329 C -856.3076 -95.45493 -855.5467 -95.07774 -854.7667 -94.74347 L -851.2169 -93.22212 C -850.631 -92.97099 -850.0348 -92.74433 -849.43 -92.54274 L -844.4119 -90.87003 C -843.1647 -90.45429 -841.8841 -90.14624 -840.5842 -89.94929 L -836.4854 -89.32826 C -836.1202 -89.27294 -835.7539 -89.22642 -835.3865 -89.18874 L -828.5054 -88.48299 C -828.2602 -88.45784 -828.0147 -88.43664 -827.7688 -88.41938 L -823.2417 -88.10169 C -822.7058 -88.06409 -822.1688 -88.04527 -821.6316 -88.04527 L -818.3695 -88.04526 C -817.4158 -88.04526 -816.4631 -88.10458 -815.5167 -88.22287 L -811.528 -88.72146 C -810.8681 -88.80396 -810.212 -88.91504 -809.5616 -89.0544 L -803.4796 -90.35769 C -802.5857 -90.54924 -801.7041 -90.7939 -800.8393 -91.09039 L -796.3305 -92.63628 C -795.5358 -92.90873 -794.7567 -93.22451 -793.9966 -93.58221 L -789.1632 -95.85674 C -788.613 -96.11565 -788.0733 -96.39629 -787.5454 -96.69798 L -783.7775 -98.85104 C -783.0847 -99.24692 -782.413 -99.67858 -781.7651 -100.14428 L -777.0889 -103.50525 C -776.58825 -103.86511 -776.1022 -104.24497 -775.6321 -104.64389 L -770.3112 -109.15856 C -769.9289 -109.48294 -769.5573 -109.81974 -769.197 -110.16842 L -764.4978 -114.71604 C -763.8582 -115.335 -763.2551 -115.99056 -762.6915 -116.67942 L -758.8982 -121.31566 C -758.3915 -121.93497 -757.9174 -122.58031 -757.478 -123.24904 L -753.8608 -128.75344 C -753.6454 -129.08127 -753.4384 -129.41456 -753.24 -129.75298 L -750.7169 -134.05708 C -750.3309 -134.71546 -749.978 -135.39265 -749.6594 -136.08612 L -747.5407 -140.69739 C -747.0078 -141.85715 -746.6367 -143.08456 -746.4376 -144.34526 L -746.4376 -144.34526 C -746.2593 -145.47453 -746.8386 -146.58797 -747.8657 -147.0901 L -753.1591 -149.678 C -754.4736 -150.32063 -755.7082 -151.11514 -756.8376 -152.04526 L -757.2436 -152.37963 C -758.08795 -153.07496 -758.7114 -154.00126 -759.0376 -155.04526 L -759.0376 -155.04526 C -759.0843 -155.19458 -759.2431 -155.2778 -759.3925 -155.23114 C -759.5075 -155.19518 -759.5872 -155.09031 -759.5911 -154.96981 L -759.7003 -151.54689 C -759.7911 -148.70381 -760.4084 -145.90224 -761.521 -143.28433 L -762.3979 -141.22096 C -762.9565 -139.90669 -763.6363 -138.64729 -764.4284 -137.45909 L -768.1142 -131.93042 C -768.8617 -130.80915 -769.7063 -129.75575 -770.63825 -128.78238 L -776.9333 -122.20753 C -777.8014 -121.30087 -778.7422 -120.4668 -779.7464 -119.71367 L -788.1213 -113.4325 C -788.9977 -112.77518 -789.92 -112.18133 -790.881 -111.65546 L -798.0662 -107.72394 C -799.3774 -107.00653 -800.7553 -106.41863 -802.1805 -105.96857 L -808.8534 -103.86133 C -810.5703 -103.31916 -812.3449 -102.98046 -814.1407 -102.85219 L -821.0272 -102.3603 C -822.0995 -102.2837 -823.1758 -102.28238 -824.2483 -102.35635 L -832.6846 -102.93816 C -833.7187 -103.00948 -834.7469 -103.15064 -835.7621 -103.36067 L -842.8973 -104.83692 C -844.8492 -105.24077 -846.7404 -105.89665 -848.5232 -106.78808 L -853.1827 -109.11779 C -854.4168 -109.73485 -855.5929 -110.46173 -856.6967 -111.28961 L -862.3787 -115.55108 C -862.8178 -115.88043 -863.245 -116.2254 -863.6595 -116.58532 L -869.4147 -121.58324 C -870.229 -122.29038 -870.9925 -123.05392 -871.6996 -123.8682 L -876.1049 -128.94089 C -876.859 -129.80925 -877.5469 -130.73295 -878.1628 -131.70422 L -881.8965 -137.59198 C -882.2571 -138.16056 -882.5925 -138.7447 -882.9018 -139.34272 L -884.5222 -142.47544 C -885.1313 -143.65312 -885.6375 -144.88126 -886.035 -146.14615 L -887.3153 -150.21964 C -887.53 -150.90302 -887.7128 -151.59605 -887.8629 -152.29649 L -888.0883 -153.34843 C -888.1734 -153.74544 -887.947 -154.1431 -887.5622 -154.27263 L -887.5622 -154.27263 C -887.4897 -154.29704 -887.4112 -154.25805 -887.3868 -154.18556 C -887.3687 -154.13205 -887.385 -154.07296 -887.4279 -154.03621 Z" stroke="#7f8080" stroke-linecap="round" stroke-linejoin="round" stroke-width="1"/>
      </g>
      <g id="Graphic_6">
        <path d="M -887.9408 -154.2441 L -882.5408 -154.8441 L -875.7408 -151.4441 L -870.7408 -149.6441 L -862.3408 -147.8441 L -853.9408 -146.8441 L -845.9408 -145.8441 L -838.3408 -145.6441 L -829.7408 -145.2441 L -818.1408 -145.4441 L -809.74075 -145.8441 L -800.34075 -146.4441 L -791.94075 -147.2441 L -782.74075 -148.6441 L -774.54075 -150.8441 L -768.74075 -152.6441 L -763.14075 -155.2441 L -760.34075 -154.0441 L -759.94075 -148.4441 L -762.74075 -140.4441 L -768.14075 -137.6441 L -778.74075 -134.4441 L -790.14075 -132.0441 L -801.34075 -131.2441 L -813.74075 -130.2441 L -824.1408 -130.2441 L -833.5408 -130.2441 L -845.1408 -130.8441 L -856.3408 -131.6441 L -866.9408 -133.8441 L -875.5408 -135.8441 L -881.7408 -138.6441 L -883.7408 -140.2441 L -886.9408 -147.8441 Z" fill="#ff4040"/>
        <path d="M -887.9408 -154.2441 L -882.5408 -154.8441 L -875.7408 -151.4441 L -870.7408 -149.6441 L -862.3408 -147.8441 L -853.9408 -146.8441 L -845.9408 -145.8441 L -838.3408 -145.6441 L -829.7408 -145.2441 L -818.1408 -145.4441 L -809.74075 -145.8441 L -800.34075 -146.4441 L -791.94075 -147.2441 L -782.74075 -148.6441 L -774.54075 -150.8441 L -768.74075 -152.6441 L -763.14075 -155.2441 L -760.34075 -154.0441 L -759.94075 -148.4441 L -762.74075 -140.4441 L -768.14075 -137.6441 L -778.74075 -134.4441 L -790.14075 -132.0441 L -801.34075 -131.2441 L -813.74075 -130.2441 L -824.1408 -130.2441 L -833.5408 -130.2441 L -845.1408 -130.8441 L -856.3408 -131.6441 L -866.9408 -133.8441 L -875.5408 -135.8441 L -881.7408 -138.6441 L -883.7408 -140.2441 L -886.9408 -147.8441 Z" stroke="#7f8080" stroke-linecap="round" stroke-linejoin="round" stroke-width="1"/>
      </g>
      <g id="Graphic_5">
        <path d="M -764 -113.25 L -758 -122.25 L -750 -132.25 L -746 -143.25 L -736 -138 L -727 -134.25 L -718 -132.25 L -716.5 278 L -736 280.75 L -749 281.75 L -761.5 282 Z" fill="yellow"/>
        <path d="M -764 -113.25 L -758 -122.25 L -750 -132.25 L -746 -143.25 L -736 -138 L -727 -134.25 L -718 -132.25 L -716.5 278 L -736 280.75 L -749 281.75 L -761.5 282 Z" stroke="white" stroke-linecap="round" stroke-linejoin="round" stroke-width="1"/>
      </g>
      <g id="Graphic_4">
        <path d="M -952 -41.5 L -948 -21 L -947 -2 L -948 6 L -698.8 5 L -698 -12.8 L -695.4 -29.2 L -693.5 -42 Z" fill="yellow"/>
        <path d="M -952 -41.5 L -948 -21 L -947 -2 L -948 6 L -698.8 5 L -698 -12.8 L -695.4 -29.2 L -693.5 -42 Z" stroke="white" stroke-linecap="round" stroke-linejoin="round" stroke-width="1"/>
      </g>
      <g id="Graphic_3">
        <path d="M -958.1868 272.24713 L -958.1868 272.24713 C -958.2525 272.7726 -958.1896 273.30617 -958.0037 273.80202 L -957.3527 275.53804 C -957.1759 276.0094 -956.9489 276.4603 -956.6754 276.88294 L -955.7076 278.37865 C -955.1666 279.21468 -954.4535 279.92567 -953.6159 280.46414 L -952.5378 281.15717 C -952.2376 281.3502 -951.923 281.51997 -951.5968 281.665 L -950.28 282.2506 C -949.6835 282.51588 -949.0528 282.6964 -948.4062 282.7869 L -939.3958 284.04838 C -939.3858 284.04977 -939.3758 284.05115 -939.3658 284.0525 L -927.6498 285.64112 C -927.6038 285.64736 -927.5577 285.65314 -927.5116 285.65846 L -917.2287 286.84495 C -917.1968 286.84863 -917.1648 286.8521 -917.1328 286.85534 L -903.4228 288.2462 C -903.3948 288.24905 -903.3668 288.25173 -903.3388 288.25423 L -892.2335 289.24577 C -892.1984 289.2489 -892.1632 289.25178 -892.128 289.25438 L -881.4415 290.04598 C -881.401 290.04898 -881.3605 290.05162 -881.32 290.0539 L -870.812 290.6487 C -870.7912 290.6499 -870.7704 290.65116 -870.7496 290.65252 L -858.7068 291.4422 C -858.6228 291.44772 -858.5387 291.4517 -858.4546 291.4542 L -845.0074 291.8497 C -844.9897 291.8502 -844.9719 291.8508 -844.9542 291.85146 L -834.3103 292.24568 C -834.224 292.24888 -834.1376 292.25047 -834.0512 292.25047 L -823.4422 292.25047 C -823.4013 292.25047 -823.3603 292.25083 -823.3194 292.25155 L -812.233 292.44605 C -812.0649 292.449 -811.8968 292.4459 -811.7289 292.43674 L -801.1077 291.8574 C -801.0231 291.85278 -800.9384 291.8497 -800.8537 291.84816 L -790.08915 291.65244 C -790.0169 291.65113 -789.9447 291.6487 -789.8726 291.64515 L -777.8539 291.05407 C -777.8052 291.05167 -777.7564 291.04877 -777.70775 291.04535 L -766.4677 290.25657 C -766.4098 290.2525 -766.3519 290.24772 -766.2941 290.2422 L -753.8835 289.06025 C -753.815 289.05373 -753.7465 289.04822 -753.6779 289.04372 L -741.7458 288.2613 C -741.6358 288.2541 -741.526 288.24427 -741.41645 288.23187 L -731.0041 287.0531 C -730.9886 287.05135 -730.973 287.04954 -730.9575 287.04768 L -721.0098 285.85395 C -720.9905 285.85163 -720.9711 285.84923 -720.9518 285.84675 L -707.1161 284.0692 C -707.01885 284.05672 -706.9219 284.0422 -706.8253 284.02563 L -700.2718 282.90218 C -700.07085 282.86773 -699.8685 282.84207 -699.6653 282.8253 L -696.4329 282.5583 C -695.5437 282.48487 -694.6767 282.2421 -693.87865 281.84306 L -692.39235 281.0999 C -691.7918 280.79962 -691.2375 280.41447 -690.7466 279.9563 L -689.4115 278.7102 C -688.8047 278.14384 -688.3493 277.4346 -688.0868 276.64713 L -687.79195 275.76264 C -687.7219 275.55242 -687.6618 275.339 -687.612 275.12307 L -687.1423 273.08768 C -687.1071 272.93504 -687.1405 272.77464 -687.2338 272.6488 L -687.2338 272.6488 C -687.3241 272.52692 -687.4748 272.46543 -687.6246 272.48926 L -696.10445 273.83833 C -696.15534 273.84643 -696.20615 273.8551 -696.25685 273.8643 L -709.2416 276.22517 C -709.3344 276.24204 -709.4275 276.25703 -709.5209 276.27014 L -720.7506 277.84623 C -720.7707 277.84906 -720.79086 277.85198 -720.811 277.85498 L -733.9336 279.81357 C -734.0983 279.83817 -734.2639 279.85687 -734.43 279.86965 L -747.1548 280.84848 C -747.1721 280.8498 -747.18945 280.85108 -747.2068 280.85228 L -761.5469 281.84812 C -761.5695 281.8497 -761.5921 281.85115 -761.6147 281.8525 L -774.9179 282.64672 C -774.9598 282.64922 -775.0018 282.65135 -775.0437 282.6531 L -789.23515 283.2444 C -789.3322 283.24845 -789.4294 283.25047 -789.5266 283.25047 L -815.3225 283.25047 C -815.36135 283.25047 -815.4002 283.2508 -815.4391 283.25145 L -827.1975 283.44742 C -827.3197 283.44946 -827.4419 283.4483 -827.564 283.44393 L -838.3976 283.05702 C -838.5197 283.05266 -838.6419 283.0515 -838.7641 283.05353 L -850.4787 283.24877 C -850.5468 283.2499 -850.6148 283.25005 -850.6829 283.2492 L -866.3852 283.05292 C -866.5156 283.0513 -866.6459 283.046 -866.776 283.0371 L -881.0858 282.05698 C -881.1491 282.05264 -881.2124 282.04744 -881.2756 282.04138 L -895.7666 280.65183 C -895.7761 280.65093 -895.7855 280.65 -895.795 280.64906 L -909.607 279.26785 C -909.7228 279.25627 -909.8384 279.2418 -909.9535 279.22445 L -924.2627 277.06828 C -924.3414 277.0564 -924.4204 277.0459 -924.4995 277.0367 L -938.0194 275.4692 C -938.127 275.4567 -938.2343 275.44175 -938.3411 275.4243 L -947.7332 273.8909 C -947.8982 273.86396 -948.0622 273.83112 -948.2248 273.79244 L -957.3024 271.63366 C -957.6908 271.5413 -958.0804 271.78124 -958.1728 272.16956 C -958.1788 272.19514 -958.1835 272.22104 -958.1868 272.24713 Z" fill="red"/>
        <path d="M -958.1868 272.24713 L -958.1868 272.24713 C -958.2525 272.7726 -958.1896 273.30617 -958.0037 273.80202 L -957.3527 275.53804 C -957.1759 276.0094 -956.9489 276.4603 -956.6754 276.88294 L -955.7076 278.37865 C -955.1666 279.21468 -954.4535 279.92567 -953.6159 280.46414 L -952.5378 281.15717 C -952.2376 281.3502 -951.923 281.51997 -951.5968 281.665 L -950.28 282.2506 C -949.6835 282.51588 -949.0528 282.6964 -948.4062 282.7869 L -939.3958 284.04838 C -939.3858 284.04977 -939.3758 284.05115 -939.3658 284.0525 L -927.6498 285.64112 C -927.6038 285.64736 -927.5577 285.65314 -927.5116 285.65846 L -917.2287 286.84495 C -917.1968 286.84863 -917.1648 286.8521 -917.1328 286.85534 L -903.4228 288.2462 C -903.3948 288.24905 -903.3668 288.25173 -903.3388 288.25423 L -892.2335 289.24577 C -892.1984 289.2489 -892.1632 289.25178 -892.128 289.25438 L -881.4415 290.04598 C -881.401 290.04898 -881.3605 290.05162 -881.32 290.0539 L -870.812 290.6487 C -870.7912 290.6499 -870.7704 290.65116 -870.7496 290.65252 L -858.7068 291.4422 C -858.6228 291.44772 -858.5387 291.4517 -858.4546 291.4542 L -845.0074 291.8497 C -844.9897 291.8502 -844.9719 291.8508 -844.9542 291.85146 L -834.3103 292.24568 C -834.224 292.24888 -834.1376 292.25047 -834.0512 292.25047 L -823.4422 292.25047 C -823.4013 292.25047 -823.3603 292.25083 -823.3194 292.25155 L -812.233 292.44605 C -812.0649 292.449 -811.8968 292.4459 -811.7289 292.43674 L -801.1077 291.8574 C -801.0231 291.85278 -800.9384 291.8497 -800.8537 291.84816 L -790.08915 291.65244 C -790.0169 291.65113 -789.9447 291.6487 -789.8726 291.64515 L -777.8539 291.05407 C -777.8052 291.05167 -777.7564 291.04877 -777.70775 291.04535 L -766.4677 290.25657 C -766.4098 290.2525 -766.3519 290.24772 -766.2941 290.2422 L -753.8835 289.06025 C -753.815 289.05373 -753.7465 289.04822 -753.6779 289.04372 L -741.7458 288.2613 C -741.6358 288.2541 -741.526 288.24427 -741.41645 288.23187 L -731.0041 287.0531 C -730.9886 287.05135 -730.973 287.04954 -730.9575 287.04768 L -721.0098 285.85395 C -720.9905 285.85163 -720.9711 285.84923 -720.9518 285.84675 L -707.1161 284.0692 C -707.01885 284.05672 -706.9219 284.0422 -706.8253 284.02563 L -700.2718 282.90218 C -700.07085 282.86773 -699.8685 282.84207 -699.6653 282.8253 L -696.4329 282.5583 C -695.5437 282.48487 -694.6767 282.2421 -693.87865 281.84306 L -692.39235 281.0999 C -691.7918 280.79962 -691.2375 280.41447 -690.7466 279.9563 L -689.4115 278.7102 C -688.8047 278.14384 -688.3493 277.4346 -688.0868 276.64713 L -687.79195 275.76264 C -687.7219 275.55242 -687.6618 275.339 -687.612 275.12307 L -687.1423 273.08768 C -687.1071 272.93504 -687.1405 272.77464 -687.2338 272.6488 L -687.2338 272.6488 C -687.3241 272.52692 -687.4748 272.46543 -687.6246 272.48926 L -696.10445 273.83833 C -696.15534 273.84643 -696.20615 273.8551 -696.25685 273.8643 L -709.2416 276.22517 C -709.3344 276.24204 -709.4275 276.25703 -709.5209 276.27014 L -720.7506 277.84623 C -720.7707 277.84906 -720.79086 277.85198 -720.811 277.85498 L -733.9336 279.81357 C -734.0983 279.83817 -734.2639 279.85687 -734.43 279.86965 L -747.1548 280.84848 C -747.1721 280.8498 -747.18945 280.85108 -747.2068 280.85228 L -761.5469 281.84812 C -761.5695 281.8497 -761.5921 281.85115 -761.6147 281.8525 L -774.9179 282.64672 C -774.9598 282.64922 -775.0018 282.65135 -775.0437 282.6531 L -789.23515 283.2444 C -789.3322 283.24845 -789.4294 283.25047 -789.5266 283.25047 L -815.3225 283.25047 C -815.36135 283.25047 -815.4002 283.2508 -815.4391 283.25145 L -827.1975 283.44742 C -827.3197 283.44946 -827.4419 283.4483 -827.564 283.44393 L -838.3976 283.05702 C -838.5197 283.05266 -838.6419 283.0515 -838.7641 283.05353 L -850.4787 283.24877 C -850.5468 283.2499 -850.6148 283.25005 -850.6829 283.2492 L -866.3852 283.05292 C -866.5156 283.0513 -866.6459 283.046 -866.776 283.0371 L -881.0858 282.05698 C -881.1491 282.05264 -881.2124 282.04744 -881.2756 282.04138 L -895.7666 280.65183 C -895.7761 280.65093 -895.7855 280.65 -895.795 280.64906 L -909.607 279.26785 C -909.7228 279.25627 -909.8384 279.2418 -909.9535 279.22445 L -924.2627 277.06828 C -924.3414 277.0564 -924.4204 277.0459 -924.4995 277.0367 L -938.0194 275.4692 C -938.127 275.4567 -938.2343 275.44175 -938.3411 275.4243 L -947.7332 273.8909 C -947.8982 273.86396 -948.0622 273.83112 -948.2248 273.79244 L -957.3024 271.63366 C -957.6908 271.5413 -958.0804 271.78124 -958.1728 272.16956 C -958.1788 272.19514 -958.1835 272.22104 -958.1868 272.24713 Z" stroke="#7f8080" stroke-linecap="round" stroke-linejoin="round" stroke-width="1"/>
      </g>
    </g>
  </g>
</svg>
