<?xml version="1.0" encoding="UTF-8" standalone="no"?>
<!DOCTYPE svg PUBLIC "-//W3C//DTD SVG 1.1//EN" "http://www.w3.org/Graphics/SVG/1.1/DTD/svg11.dtd">
<svg xmlns="http://www.w3.org/2000/svg" xmlns:xl="http://www.w3.org/1999/xlink" version="1.1" viewBox="-1778.5 -504.5 432.4053 448.4" width="432.4053pt" height="448.4pt" xmlns:dc="http://purl.org/dc/elements/1.1/">
  <metadata> Produced by OmniGraffle 7.4.2 
    <dc:date>2018-03-14 20:09:56 +0000</dc:date>
  </metadata>
  <defs>
    <radialGradient cx="0" cy="0" r="1" id="Gradient" gradientUnits="userSpaceOnUse">
      <stop offset="0" stop-color="#cbcbcb"/>
      <stop offset="1" stop-color="#843918"/>
    </radialGradient>
    <radialGradient id="Obj_Gradient" xl:href="#Gradient" gradientTransform="translate(-1563.2408 -476.6) scale(70.26272)"/>
    <radialGradient cx="0" cy="0" r="1" id="Gradient_2" gradientUnits="userSpaceOnUse">
      <stop offset="0" stop-color="#ff4040"/>
      <stop offset="1" stop-color="#333"/>
    </radialGradient>
    <radialGradient id="Obj_Gradient_2" xl:href="#Gradient_2" gradientTransform="translate(-1735.8 -340.75385) scale(46.03694)"/>
    <radialGradient id="Obj_Gradient_3" xl:href="#Gradient_2" gradientTransform="translate(-1388.7947 -341.69725) scale(46.03694)"/>
    <linearGradient x1="0" x2="1" id="Gradient_3" gradientUnits="userSpaceOnUse">
      <stop offset="0" stop-color="#ff4040"/>
      <stop offset="1" stop-color="#333"/>
    </linearGradient>
    <linearGradient id="Obj_Gradient_4" xl:href="#Gradient_3" gradientTransform="translate(-1563.9408 -503.2441) rotate(90) scale(25)"/>
    <radialGradient id="Obj_Gradient_5" xl:href="#Gradient_2" gradientTransform="translate(-1563.213 -469.6447) scale(83.83496)"/>
    <radialGradient cx="0" cy="0" r="1" id="Gradient_4" gradientUnits="userSpaceOnUse">
      <stop offset="0" stop-color="#ea3f33"/>
      <stop offset="1" stop-color="#241209"/>
    </radialGradient>
    <radialGradient id="Obj_Gradient_6" xl:href="#Gradient_4" gradientTransform="translate(-1562.6703 -67.016614) scale(135.94141)"/>
  </defs>
  <g stroke="none" stroke-opacity="1" stroke-dasharray="none" fill="none" fill-opacity="1">
    <title>bologna</title>
    <rect fill="white" width="432.4053" height="448.4"/>
    <g>
      <title>Capa 1</title>
      <path d="M -1624.9943 -503.40955 L -1616.8289 -500.29184 C -1615.9709 -499.96424 -1615.094 -499.6883 -1614.203 -499.4656 L -1600.4859 -496.0363 C -1599.3242 -495.7459 -1598.1417 -495.5466 -1596.949 -495.44034 L -1579.4228 -493.8786 C -1578.835 -493.8262 -1578.2454 -493.7965 -1577.6552 -493.78946 L -1562.1763 -493.6052 C -1561.886 -493.6017 -1561.5956 -493.60377 -1561.3053 -493.6113 L -1546.882 -493.98594 C -1546.5212 -493.9953 -1546.1607 -494.0132 -1545.8008 -494.0395 L -1531.4295 -495.09107 C -1530.438 -495.1636 -1529.4523 -495.30036 -1528.4786 -495.50044 L -1516.9056 -497.87845 C -1515.8636 -498.09256 -1514.8377 -498.3787 -1513.8353 -498.7348 L -1502.0834 -502.90986 C -1500.993 -503.29723 -1499.7898 -502.76646 -1499.3408 -501.7 L -1499.3408 -501.7 C -1498.8186 -500.4599 -1498.6666 -499.09515 -1498.9032 -497.77055 L -1499.0836 -496.75986 C -1499.3874 -495.0587 -1499.882 -493.3972 -1500.5579 -491.8068 L -1502.101 -488.1757 C -1502.6596 -486.8614 -1503.3394 -485.602 -1504.1315 -484.4138 L -1507.8173 -478.88515 C -1508.5648 -477.7639 -1509.4094 -476.7105 -1510.3414 -475.7371 L -1516.6365 -469.16226 C -1517.5045 -468.2556 -1518.4454 -467.42154 -1519.4495 -466.6684 L -1527.8244 -460.38723 C -1528.7009 -459.7299 -1529.6231 -459.13606 -1530.5842 -458.6102 L -1537.7694 -454.67867 C -1539.0805 -453.96126 -1540.4584 -453.37336 -1541.8836 -452.9233 L -1548.5565 -450.81607 C -1550.2734 -450.2739 -1552.048 -449.9352 -1553.8439 -449.8069 L -1560.7303 -449.31503 C -1561.8026 -449.23844 -1562.879 -449.2371 -1563.9515 -449.3111 L -1572.3877 -449.8929 C -1573.4219 -449.9642 -1574.45 -450.1054 -1575.4652 -450.3154 L -1582.6004 -451.79165 C -1584.5524 -452.1955 -1586.4435 -452.8514 -1588.2264 -453.7428 L -1592.8858 -456.0725 C -1594.12 -456.6896 -1595.296 -457.41646 -1596.3999 -458.24434 L -1602.0818 -462.5058 C -1602.521 -462.83517 -1602.9482 -463.18013 -1603.3626 -463.54005 L -1609.1178 -468.53797 C -1609.9321 -469.2451 -1610.6956 -470.00865 -1611.4028 -470.82294 L -1615.808 -475.8956 C -1616.5621 -476.764 -1617.25 -477.6877 -1617.866 -478.65895 L -1621.5996 -484.5467 C -1621.9602 -485.1153 -1622.2956 -485.69944 -1622.605 -486.29745 L -1624.2253 -489.4302 C -1624.8345 -490.60785 -1625.3406 -491.836 -1625.7382 -493.1009 L -1627.0184 -497.1744 C -1627.2332 -497.85775 -1627.416 -498.5508 -1627.566 -499.2512 L -1627.6408 -499.6 C -1627.8354 -500.5084 -1627.7282 -501.45557 -1627.3353 -502.29746 L -1627.2408 -502.5 C -1626.8463 -503.3453 -1625.8658 -503.7423 -1624.9943 -503.40955 Z" fill="url(#Obj_Gradient)"/>
      <path d="M -1624.9943 -503.40955 L -1616.8289 -500.29184 C -1615.9709 -499.96424 -1615.094 -499.6883 -1614.203 -499.4656 L -1600.4859 -496.0363 C -1599.3242 -495.7459 -1598.1417 -495.5466 -1596.949 -495.44034 L -1579.4228 -493.8786 C -1578.835 -493.8262 -1578.2454 -493.7965 -1577.6552 -493.78946 L -1562.1763 -493.6052 C -1561.886 -493.6017 -1561.5956 -493.60377 -1561.3053 -493.6113 L -1546.882 -493.98594 C -1546.5212 -493.9953 -1546.1607 -494.0132 -1545.8008 -494.0395 L -1531.4295 -495.09107 C -1530.438 -495.1636 -1529.4523 -495.30036 -1528.4786 -495.50044 L -1516.9056 -497.87845 C -1515.8636 -498.09256 -1514.8377 -498.3787 -1513.8353 -498.7348 L -1502.0834 -502.90986 C -1500.993 -503.29723 -1499.7898 -502.76646 -1499.3408 -501.7 L -1499.3408 -501.7 C -1498.8186 -500.4599 -1498.6666 -499.09515 -1498.9032 -497.77055 L -1499.0836 -496.75986 C -1499.3874 -495.0587 -1499.882 -493.3972 -1500.5579 -491.8068 L -1502.101 -488.1757 C -1502.6596 -486.8614 -1503.3394 -485.602 -1504.1315 -484.4138 L -1507.8173 -478.88515 C -1508.5648 -477.7639 -1509.4094 -476.7105 -1510.3414 -475.7371 L -1516.6365 -469.16226 C -1517.5045 -468.2556 -1518.4454 -467.42154 -1519.4495 -466.6684 L -1527.8244 -460.38723 C -1528.7009 -459.7299 -1529.6231 -459.13606 -1530.5842 -458.6102 L -1537.7694 -454.67867 C -1539.0805 -453.96126 -1540.4584 -453.37336 -1541.8836 -452.9233 L -1548.5565 -450.81607 C -1550.2734 -450.2739 -1552.048 -449.9352 -1553.8439 -449.8069 L -1560.7303 -449.31503 C -1561.8026 -449.23844 -1562.879 -449.2371 -1563.9515 -449.3111 L -1572.3877 -449.8929 C -1573.4219 -449.9642 -1574.45 -450.1054 -1575.4652 -450.3154 L -1582.6004 -451.79165 C -1584.5524 -452.1955 -1586.4435 -452.8514 -1588.2264 -453.7428 L -1592.8858 -456.0725 C -1594.12 -456.6896 -1595.296 -457.41646 -1596.3999 -458.24434 L -1602.0818 -462.5058 C -1602.521 -462.83517 -1602.9482 -463.18013 -1603.3626 -463.54005 L -1609.1178 -468.53797 C -1609.9321 -469.2451 -1610.6956 -470.00865 -1611.4028 -470.82294 L -1615.808 -475.8956 C -1616.5621 -476.764 -1617.25 -477.6877 -1617.866 -478.65895 L -1621.5996 -484.5467 C -1621.9602 -485.1153 -1622.2956 -485.69944 -1622.605 -486.29745 L -1624.2253 -489.4302 C -1624.8345 -490.60785 -1625.3406 -491.836 -1625.7382 -493.1009 L -1627.0184 -497.1744 C -1627.2332 -497.85775 -1627.416 -498.5508 -1627.566 -499.2512 L -1627.6408 -499.6 C -1627.8354 -500.5084 -1627.7282 -501.45557 -1627.3353 -502.29746 L -1627.2408 -502.5 C -1626.8463 -503.3453 -1625.8658 -503.7423 -1624.9943 -503.40955 Z" stroke="#7f8080" stroke-linecap="round" stroke-linejoin="round" stroke-width="1"/>
      <path d="M -1689.0265 -66.736214 L -1675.2843 -64.44584 C -1675.101 -64.41528 -1674.917 -64.387914 -1674.7327 -64.36376 L -1646.379 -60.648455 C -1646.1325 -60.61615 -1645.8853 -60.5896 -1645.6375 -60.56882 L -1615.3946 -58.03232 C -1615.1377 -58.01077 -1614.8803 -57.99544 -1614.6227 -57.98633 L -1575.6918 -56.60998 C -1575.5034 -56.603324 -1575.315 -56.59999 -1575.1265 -56.59999 L -1543.6592 -56.59999 C -1543.4925 -56.59999 -1543.326 -56.602596 -1543.1594 -56.6078 L -1518.1246 -57.39014 C -1517.9144 -57.39671 -1517.7043 -57.40742 -1517.4945 -57.42228 L -1495.4467 -58.98318 C -1495.2884 -58.99439 -1495.1302 -59.00795 -1494.9723 -59.023865 L -1469.7119 -61.569495 C -1469.5101 -61.589825 -1469.3088 -61.61399 -1469.108 -61.64197 L -1445.3153 -64.95735 C -1445.1112 -64.985776 -1444.9078 -65.01814 -1444.705 -65.05442 L -1435.5092 -66.69999 C -1430.1821 -67.653265 -1426.5312 -72.60691 -1427.1977 -77.97745 L -1429.4052 -95.76802 C -1429.4079 -95.78934 -1429.4105 -95.81066 -1429.413 -95.83199 L -1432.9769 -125.53051 C -1432.9984 -125.71015 -1433.017 -125.89015 -1433.0324 -126.07042 L -1435.3946 -153.62963 C -1435.4043 -153.7432 -1435.4129 -153.85688 -1435.4202 -153.97064 L -1436.8068 -175.56228 C -1436.8084 -175.58742 -1436.81 -175.61256 -1436.8118 -175.6377 L -1438.404 -198.72401 C -1438.4075 -198.77467 -1438.4107 -198.82534 -1438.4137 -198.87602 L -1439.5901 -218.6782 C -1439.6028 -218.8927 -1439.6113 -219.10745 -1439.6154 -219.3223 L -1440.0076 -239.91715 C -1440.0087 -239.97238 -1440.01 -240.0276 -1440.0117 -240.08282 L -1440.6068 -260.31717 C -1440.6084 -260.3724 -1440.6097 -260.4276 -1440.6108 -260.48285 L -1441.0015 -280.9924 C -1441.0066 -281.26408 -1441.0049 -281.53587 -1440.9962 -281.80747 L -1440.4103 -300.1671 C -1440.4096 -300.18903 -1440.4088 -300.21097 -1440.408 -300.2329 L -1439.62 -322.1022 C -1439.6128 -322.3007 -1439.602 -322.49907 -1439.5874 -322.69717 L -1438.03 -343.9178 C -1438.0161 -344.1059 -1438.0056 -344.29427 -1437.9985 -344.48276 L -1437.244 -364.38163 C -1437.2208 -364.99337 -1437.1626 -365.6033 -1437.0695 -366.20835 L -1434.3305 -384.01187 C -1434.2497 -384.53696 -1434.1428 -385.0577 -1434.0102 -385.57217 L -1429.382 -403.52983 C -1429.2668 -403.9764 -1429.1325 -404.4178 -1428.9793 -404.85275 L -1423.2585 -421.0924 C -1423.0924 -421.56387 -1422.9043 -422.0273 -1422.6948 -422.48117 L -1417.1633 -434.4662 C -1417.0606 -434.6887 -1416.9528 -434.9088 -1416.84 -435.12636 L -1411.4778 -445.4678 C -1411.432 -445.5559 -1411.3855 -445.64364 -1411.3382 -445.7309 L -1406.1222 -455.3479 C -1405.385 -456.70724 -1404.4353 -457.94013 -1403.3092 -459 L -1403.3092 -459 C -1402.634 -459.63547 -1402.6018 -460.698 -1403.2373 -461.37316 C -1403.3618 -461.50544 -1403.507 -461.61663 -1403.667 -461.7024 L -1406.8812 -463.42427 C -1407.0998 -463.5414 -1407.3212 -463.65344 -1407.545 -463.7603 L -1415.399 -467.5088 C -1415.8056 -467.70284 -1416.2203 -467.87964 -1416.6418 -468.0387 L -1426.3166 -471.6896 C -1426.5117 -471.7632 -1426.7081 -471.83297 -1426.9059 -471.8989 L -1439.6004 -476.1304 C -1439.7396 -476.1768 -1439.8794 -476.2213 -1440.0199 -476.26384 L -1452.9034 -480.16794 C -1452.974 -480.1893 -1453.0443 -480.2112 -1453.1146 -480.2335 L -1465.6186 -484.21206 C -1466.0122 -484.3373 -1466.4008 -484.47775 -1466.7836 -484.63307 L -1478.7595 -489.4929 C -1479.5912 -489.83036 -1480.393 -490.2372 -1481.1564 -490.70917 L -1490.7756 -496.6556 C -1490.9313 -496.75186 -1491.0854 -496.8508 -1491.2377 -496.9523 L -1496.1278 -500.2124 C -1497.1092 -500.86665 -1497.9805 -501.67255 -1498.7092 -502.6 L -1498.7092 -502.6 C -1498.8148 -502.7344 -1499.0094 -502.75775 -1499.1438 -502.65215 C -1499.2465 -502.5714 -1499.2875 -502.4349 -1499.2462 -502.3109 L -1499.1092 -501.9 C -1498.65 -500.52225 -1498.5454 -499.05096 -1498.8052 -497.6221 L -1499.2003 -495.44885 C -1499.4715 -493.9572 -1499.9534 -492.51165 -1500.6314 -491.1556 L -1502.1637 -488.09096 C -1502.4604 -487.49756 -1502.7938 -486.9232 -1503.1618 -486.3712 L -1506.3655 -481.5656 C -1506.794 -480.9227 -1507.2687 -480.3117 -1507.7856 -479.7374 L -1512.3476 -474.66844 C -1512.3887 -474.6228 -1512.43 -474.5774 -1512.4716 -474.53227 L -1518.4658 -468.02424 C -1519.0936 -467.3427 -1519.7793 -466.717 -1520.5154 -466.15413 L -1525.5395 -462.3121 C -1525.9857 -461.97094 -1526.4495 -461.6535 -1526.929 -461.3611 L -1533.4154 -457.406 C -1534.077 -457.0025 -1534.7672 -456.6477 -1535.4803 -456.34424 L -1542.5957 -453.3164 C -1543.4033 -452.9727 -1544.2379 -452.6961 -1545.091 -452.4893 L -1549.17 -451.5004 C -1549.9948 -451.30045 -1550.8343 -451.16644 -1551.6804 -451.09965 L -1557.3806 -450.64963 C -1557.7995 -450.61656 -1558.2196 -450.6 -1558.6398 -450.6 L -1565.6721 -450.6 C -1566.4292 -450.6 -1567.1854 -450.65374 -1567.9349 -450.7608 L -1575.8813 -451.896 C -1576.3663 -451.9653 -1576.8479 -452.05683 -1577.3245 -452.1703 L -1583.2857 -453.58965 C -1584.4312 -453.8624 -1585.5431 -454.26073 -1586.6012 -454.77747 L -1592.8812 -457.84444 C -1593.3662 -458.08133 -1593.839 -458.3426 -1594.2976 -458.6273 L -1598.5095 -461.24154 C -1599.1086 -461.61344 -1599.6826 -462.02454 -1600.2275 -462.47216 L -1604.6736 -466.1243 C -1604.8973 -466.3081 -1605.116 -466.49786 -1605.3294 -466.6935 L -1609.1317 -470.17896 C -1609.583 -470.59264 -1610.0102 -471.0319 -1610.4111 -471.49454 L -1614.5299 -476.24693 C -1614.8493 -476.61545 -1615.1516 -476.9984 -1615.436 -477.3945 L -1619.8657 -483.5644 C -1620.3606 -484.2537 -1620.7999 -484.9813 -1621.1794 -485.7403 L -1623.7558 -490.8932 C -1623.7914 -490.9644 -1623.8265 -491.03586 -1623.861 -491.1076 L -1625.1092 -493.7 C -1625.96 -495.46687 -1626.3155 -497.4314 -1626.138 -499.38436 L -1625.9577 -501.3666 C -1625.9339 -501.6285 -1626.1269 -501.86006 -1626.3887 -501.88386 C -1626.5511 -501.8986 -1626.7098 -501.82925 -1626.8092 -501.7 L -1626.8092 -501.7 C -1627.4727 -500.8375 -1628.2528 -500.07144 -1629.1271 -499.42375 L -1633.0237 -496.53743 C -1633.1474 -496.4458 -1633.2724 -496.356 -1633.3986 -496.268 L -1638.0209 -493.0464 C -1639.2076 -492.2193 -1640.501 -491.5569 -1641.8658 -491.0774 L -1646.473 -489.4587 C -1646.9635 -489.28633 -1647.4454 -489.09016 -1647.9168 -488.8709 L -1654.7636 -485.6863 C -1655.4598 -485.3625 -1656.1783 -485.08926 -1656.9137 -484.86864 L -1667.7841 -481.6075 C -1667.8009 -481.6025 -1667.8176 -481.59746 -1667.8343 -481.5924 L -1678.8024 -478.2628 C -1678.9403 -478.22093 -1679.0776 -478.1772 -1679.2143 -478.13164 L -1692.1355 -473.82456 C -1692.1847 -473.8082 -1692.2339 -473.79205 -1692.2831 -473.77616 L -1703.6505 -470.10925 C -1704.289 -469.9033 -1704.914 -469.65737 -1705.5215 -469.37296 L -1713.4535 -465.6601 C -1713.8238 -465.48677 -1714.1874 -465.2993 -1714.5434 -465.0981 L -1720.4895 -461.73724 C -1721.7425 -461.029 -1722.1842 -459.4391 -1721.476 -458.18604 C -1721.3988 -458.0496 -1721.3096 -457.9204 -1721.2092 -457.8 L -1720.3451 -456.76307 C -1719.5902 -455.85713 -1718.9377 -454.8705 -1718.3996 -453.8212 L -1715.3224 -447.82076 C -1715.247 -447.6736 -1715.1692 -447.5276 -1715.0892 -447.38285 L -1711.1345 -440.22663 C -1711.051 -440.07555 -1710.97 -439.92313 -1710.8914 -439.76943 L -1706.783 -431.73144 C -1706.534 -431.24413 -1706.31 -430.74437 -1706.1122 -430.2341 L -1702.6295 -421.25224 C -1702.616 -421.2174 -1702.6023 -421.18263 -1702.5886 -421.1479 L -1698.9923 -412.06246 C -1698.8703 -411.75423 -1698.7579 -411.4423 -1698.6552 -411.12706 L -1696.0334 -403.0743 C -1696.0173 -403.02476 -1696.0014 -402.97516 -1695.9858 -402.9255 L -1692.9137 -393.1672 C -1692.711 -392.52305 -1692.5491 -391.8667 -1692.4293 -391.2021 L -1690.444 -380.19263 C -1690.4208 -380.0642 -1690.3992 -379.9355 -1690.3792 -379.80658 L -1688.6733 -368.8132 C -1688.6306 -368.53778 -1688.595 -368.2613 -1688.5668 -367.984 L -1687.6794 -359.2873 C -1687.6326 -358.8293 -1687.6057 -358.3695 -1687.5986 -357.9092 L -1687.4144 -345.9336 C -1687.411 -345.7112 -1687.4029 -345.48895 -1687.3902 -345.2669 L -1686.6198 -331.78535 C -1686.6127 -331.6618 -1686.6043 -331.5383 -1686.5943 -331.41494 L -1685.2608 -314.84057 C -1685.2264 -314.4137 -1685.2092 -313.9856 -1685.2092 -313.55736 L -1685.2092 -301.10758 C -1685.2092 -300.90254 -1685.2053 -300.69753 -1685.1974 -300.49265 L -1684.617 -285.4035 C -1684.6118 -285.26784 -1684.6083 -285.1321 -1684.6066 -284.99635 L -1684.4144 -270.2001 C -1684.411 -269.9334 -1684.4142 -269.66667 -1684.424 -269.40014 L -1684.9983 -253.896 C -1685.0056 -253.69868 -1685.0092 -253.50125 -1685.0092 -253.3038 L -1685.0092 -239.70757 C -1685.0092 -239.50254 -1685.0132 -239.29753 -1685.021 -239.09264 L -1685.6062 -223.87764 C -1685.6082 -223.82588 -1685.6105 -223.77412 -1685.613 -223.72238 L -1686.4083 -207.21945 C -1686.409 -207.20648 -1686.4095 -207.19351 -1686.4102 -207.18055 L -1687.2047 -191.48938 C -1687.2077 -191.4298 -1687.211 -191.37022 -1687.2147 -191.31067 L -1688.4037 -172.08993 C -1688.4074 -172.02997 -1688.4114 -171.97004 -1688.4158 -171.91013 L -1690.199 -147.54058 C -1690.2058 -147.44686 -1690.2135 -147.3532 -1690.222 -147.25962 L -1692.0079 -127.6148 C -1692.0088 -127.60493 -1692.0097 -127.59506 -1692.0106 -127.58519 L -1693.7814 -108.50028 C -1693.8 -108.30011 -1693.8223 -108.1003 -1693.8484 -107.90097 L -1695.809 -92.92825 C -1695.942 -91.91406 -1696.211 -90.92244 -1696.6092 -89.98027 L -1696.6092 -89.98027 C -1697.0068 -89.03952 -1697.2555 -88.04261 -1697.3463 -87.02535 L -1698.1092 -78.48027 C -1698.617 -72.79324 -1694.6585 -67.674875 -1689.0265 -66.736214 Z" fill="#000076"/>
      <path d="M -1689.0265 -66.736214 L -1675.2843 -64.44584 C -1675.101 -64.41528 -1674.917 -64.387914 -1674.7327 -64.36376 L -1646.379 -60.648455 C -1646.1325 -60.61615 -1645.8853 -60.5896 -1645.6375 -60.56882 L -1615.3946 -58.03232 C -1615.1377 -58.01077 -1614.8803 -57.99544 -1614.6227 -57.98633 L -1575.6918 -56.60998 C -1575.5034 -56.603324 -1575.315 -56.59999 -1575.1265 -56.59999 L -1543.6592 -56.59999 C -1543.4925 -56.59999 -1543.326 -56.602596 -1543.1594 -56.6078 L -1518.1246 -57.39014 C -1517.9144 -57.39671 -1517.7043 -57.40742 -1517.4945 -57.42228 L -1495.4467 -58.98318 C -1495.2884 -58.99439 -1495.1302 -59.00795 -1494.9723 -59.023865 L -1469.7119 -61.569495 C -1469.5101 -61.589825 -1469.3088 -61.61399 -1469.108 -61.64197 L -1445.3153 -64.95735 C -1445.1112 -64.985776 -1444.9078 -65.01814 -1444.705 -65.05442 L -1435.5092 -66.69999 C -1430.1821 -67.653265 -1426.5312 -72.60691 -1427.1977 -77.97745 L -1429.4052 -95.76802 C -1429.4079 -95.78934 -1429.4105 -95.81066 -1429.413 -95.83199 L -1432.9769 -125.53051 C -1432.9984 -125.71015 -1433.017 -125.89015 -1433.0324 -126.07042 L -1435.3946 -153.62963 C -1435.4043 -153.7432 -1435.4129 -153.85688 -1435.4202 -153.97064 L -1436.8068 -175.56228 C -1436.8084 -175.58742 -1436.81 -175.61256 -1436.8118 -175.6377 L -1438.404 -198.72401 C -1438.4075 -198.77467 -1438.4107 -198.82534 -1438.4137 -198.87602 L -1439.5901 -218.6782 C -1439.6028 -218.8927 -1439.6113 -219.10745 -1439.6154 -219.3223 L -1440.0076 -239.91715 C -1440.0087 -239.97238 -1440.01 -240.0276 -1440.0117 -240.08282 L -1440.6068 -260.31717 C -1440.6084 -260.3724 -1440.6097 -260.4276 -1440.6108 -260.48285 L -1441.0015 -280.9924 C -1441.0066 -281.26408 -1441.0049 -281.53587 -1440.9962 -281.80747 L -1440.4103 -300.1671 C -1440.4096 -300.18903 -1440.4088 -300.21097 -1440.408 -300.2329 L -1439.62 -322.1022 C -1439.6128 -322.3007 -1439.602 -322.49907 -1439.5874 -322.69717 L -1438.03 -343.9178 C -1438.0161 -344.1059 -1438.0056 -344.29427 -1437.9985 -344.48276 L -1437.244 -364.38163 C -1437.2208 -364.99337 -1437.1626 -365.6033 -1437.0695 -366.20835 L -1434.3305 -384.01187 C -1434.2497 -384.53696 -1434.1428 -385.0577 -1434.0102 -385.57217 L -1429.382 -403.52983 C -1429.2668 -403.9764 -1429.1325 -404.4178 -1428.9793 -404.85275 L -1423.2585 -421.0924 C -1423.0924 -421.56387 -1422.9043 -422.0273 -1422.6948 -422.48117 L -1417.1633 -434.4662 C -1417.0606 -434.6887 -1416.9528 -434.9088 -1416.84 -435.12636 L -1411.4778 -445.4678 C -1411.432 -445.5559 -1411.3855 -445.64364 -1411.3382 -445.7309 L -1406.1222 -455.3479 C -1405.385 -456.70724 -1404.4353 -457.94013 -1403.3092 -459 L -1403.3092 -459 C -1402.634 -459.63547 -1402.6018 -460.698 -1403.2373 -461.37316 C -1403.3618 -461.50544 -1403.507 -461.61663 -1403.667 -461.7024 L -1406.8812 -463.42427 C -1407.0998 -463.5414 -1407.3212 -463.65344 -1407.545 -463.7603 L -1415.399 -467.5088 C -1415.8056 -467.70284 -1416.2203 -467.87964 -1416.6418 -468.0387 L -1426.3166 -471.6896 C -1426.5117 -471.7632 -1426.7081 -471.83297 -1426.9059 -471.8989 L -1439.6004 -476.1304 C -1439.7396 -476.1768 -1439.8794 -476.2213 -1440.0199 -476.26384 L -1452.9034 -480.16794 C -1452.974 -480.1893 -1453.0443 -480.2112 -1453.1146 -480.2335 L -1465.6186 -484.21206 C -1466.0122 -484.3373 -1466.4008 -484.47775 -1466.7836 -484.63307 L -1478.7595 -489.4929 C -1479.5912 -489.83036 -1480.393 -490.2372 -1481.1564 -490.70917 L -1490.7756 -496.6556 C -1490.9313 -496.75186 -1491.0854 -496.8508 -1491.2377 -496.9523 L -1496.1278 -500.2124 C -1497.1092 -500.86665 -1497.9805 -501.67255 -1498.7092 -502.6 L -1498.7092 -502.6 C -1498.8148 -502.7344 -1499.0094 -502.75775 -1499.1438 -502.65215 C -1499.2465 -502.5714 -1499.2875 -502.4349 -1499.2462 -502.3109 L -1499.1092 -501.9 C -1498.65 -500.52225 -1498.5454 -499.05096 -1498.8052 -497.6221 L -1499.2003 -495.44885 C -1499.4715 -493.9572 -1499.9534 -492.51165 -1500.6314 -491.1556 L -1502.1637 -488.09096 C -1502.4604 -487.49756 -1502.7938 -486.9232 -1503.1618 -486.3712 L -1506.3655 -481.5656 C -1506.794 -480.9227 -1507.2687 -480.3117 -1507.7856 -479.7374 L -1512.3476 -474.66844 C -1512.3887 -474.6228 -1512.43 -474.5774 -1512.4716 -474.53227 L -1518.4658 -468.02424 C -1519.0936 -467.3427 -1519.7793 -466.717 -1520.5154 -466.15413 L -1525.5395 -462.3121 C -1525.9857 -461.97094 -1526.4495 -461.6535 -1526.929 -461.3611 L -1533.4154 -457.406 C -1534.077 -457.0025 -1534.7672 -456.6477 -1535.4803 -456.34424 L -1542.5957 -453.3164 C -1543.4033 -452.9727 -1544.2379 -452.6961 -1545.091 -452.4893 L -1549.17 -451.5004 C -1549.9948 -451.30045 -1550.8343 -451.16644 -1551.6804 -451.09965 L -1557.3806 -450.64963 C -1557.7995 -450.61656 -1558.2196 -450.6 -1558.6398 -450.6 L -1565.6721 -450.6 C -1566.4292 -450.6 -1567.1854 -450.65374 -1567.9349 -450.7608 L -1575.8813 -451.896 C -1576.3663 -451.9653 -1576.8479 -452.05683 -1577.3245 -452.1703 L -1583.2857 -453.58965 C -1584.4312 -453.8624 -1585.5431 -454.26073 -1586.6012 -454.77747 L -1592.8812 -457.84444 C -1593.3662 -458.08133 -1593.839 -458.3426 -1594.2976 -458.6273 L -1598.5095 -461.24154 C -1599.1086 -461.61344 -1599.6826 -462.02454 -1600.2275 -462.47216 L -1604.6736 -466.1243 C -1604.8973 -466.3081 -1605.116 -466.49786 -1605.3294 -466.6935 L -1609.1317 -470.17896 C -1609.583 -470.59264 -1610.0102 -471.0319 -1610.4111 -471.49454 L -1614.5299 -476.24693 C -1614.8493 -476.61545 -1615.1516 -476.9984 -1615.436 -477.3945 L -1619.8657 -483.5644 C -1620.3606 -484.2537 -1620.7999 -484.9813 -1621.1794 -485.7403 L -1623.7558 -490.8932 C -1623.7914 -490.9644 -1623.8265 -491.03586 -1623.861 -491.1076 L -1625.1092 -493.7 C -1625.96 -495.46687 -1626.3155 -497.4314 -1626.138 -499.38436 L -1625.9577 -501.3666 C -1625.9339 -501.6285 -1626.1269 -501.86006 -1626.3887 -501.88386 C -1626.5511 -501.8986 -1626.7098 -501.82925 -1626.8092 -501.7 L -1626.8092 -501.7 C -1627.4727 -500.8375 -1628.2528 -500.07144 -1629.1271 -499.42375 L -1633.0237 -496.53743 C -1633.1474 -496.4458 -1633.2724 -496.356 -1633.3986 -496.268 L -1638.0209 -493.0464 C -1639.2076 -492.2193 -1640.501 -491.5569 -1641.8658 -491.0774 L -1646.473 -489.4587 C -1646.9635 -489.28633 -1647.4454 -489.09016 -1647.9168 -488.8709 L -1654.7636 -485.6863 C -1655.4598 -485.3625 -1656.1783 -485.08926 -1656.9137 -484.86864 L -1667.7841 -481.6075 C -1667.8009 -481.6025 -1667.8176 -481.59746 -1667.8343 -481.5924 L -1678.8024 -478.2628 C -1678.9403 -478.22093 -1679.0776 -478.1772 -1679.2143 -478.13164 L -1692.1355 -473.82456 C -1692.1847 -473.8082 -1692.2339 -473.79205 -1692.2831 -473.77616 L -1703.6505 -470.10925 C -1704.289 -469.9033 -1704.914 -469.65737 -1705.5215 -469.37296 L -1713.4535 -465.6601 C -1713.8238 -465.48677 -1714.1874 -465.2993 -1714.5434 -465.0981 L -1720.4895 -461.73724 C -1721.7425 -461.029 -1722.1842 -459.4391 -1721.476 -458.18604 C -1721.3988 -458.0496 -1721.3096 -457.9204 -1721.2092 -457.8 L -1720.3451 -456.76307 C -1719.5902 -455.85713 -1718.9377 -454.8705 -1718.3996 -453.8212 L -1715.3224 -447.82076 C -1715.247 -447.6736 -1715.1692 -447.5276 -1715.0892 -447.38285 L -1711.1345 -440.22663 C -1711.051 -440.07555 -1710.97 -439.92313 -1710.8914 -439.76943 L -1706.783 -431.73144 C -1706.534 -431.24413 -1706.31 -430.74437 -1706.1122 -430.2341 L -1702.6295 -421.25224 C -1702.616 -421.2174 -1702.6023 -421.18263 -1702.5886 -421.1479 L -1698.9923 -412.06246 C -1698.8703 -411.75423 -1698.7579 -411.4423 -1698.6552 -411.12706 L -1696.0334 -403.0743 C -1696.0173 -403.02476 -1696.0014 -402.97516 -1695.9858 -402.9255 L -1692.9137 -393.1672 C -1692.711 -392.52305 -1692.5491 -391.8667 -1692.4293 -391.2021 L -1690.444 -380.19263 C -1690.4208 -380.0642 -1690.3992 -379.9355 -1690.3792 -379.80658 L -1688.6733 -368.8132 C -1688.6306 -368.53778 -1688.595 -368.2613 -1688.5668 -367.984 L -1687.6794 -359.2873 C -1687.6326 -358.8293 -1687.6057 -358.3695 -1687.5986 -357.9092 L -1687.4144 -345.9336 C -1687.411 -345.7112 -1687.4029 -345.48895 -1687.3902 -345.2669 L -1686.6198 -331.78535 C -1686.6127 -331.6618 -1686.6043 -331.5383 -1686.5943 -331.41494 L -1685.2608 -314.84057 C -1685.2264 -314.4137 -1685.2092 -313.9856 -1685.2092 -313.55736 L -1685.2092 -301.10758 C -1685.2092 -300.90254 -1685.2053 -300.69753 -1685.1974 -300.49265 L -1684.617 -285.4035 C -1684.6118 -285.26784 -1684.6083 -285.1321 -1684.6066 -284.99635 L -1684.4144 -270.2001 C -1684.411 -269.9334 -1684.4142 -269.66667 -1684.424 -269.40014 L -1684.9983 -253.896 C -1685.0056 -253.69868 -1685.0092 -253.50125 -1685.0092 -253.3038 L -1685.0092 -239.70757 C -1685.0092 -239.50254 -1685.0132 -239.29753 -1685.021 -239.09264 L -1685.6062 -223.87764 C -1685.6082 -223.82588 -1685.6105 -223.77412 -1685.613 -223.72238 L -1686.4083 -207.21945 C -1686.409 -207.20648 -1686.4095 -207.19351 -1686.4102 -207.18055 L -1687.2047 -191.48938 C -1687.2077 -191.4298 -1687.211 -191.37022 -1687.2147 -191.31067 L -1688.4037 -172.08993 C -1688.4074 -172.02997 -1688.4114 -171.97004 -1688.4158 -171.91013 L -1690.199 -147.54058 C -1690.2058 -147.44686 -1690.2135 -147.3532 -1690.222 -147.25962 L -1692.0079 -127.6148 C -1692.0088 -127.60493 -1692.0097 -127.59506 -1692.0106 -127.58519 L -1693.7814 -108.50028 C -1693.8 -108.30011 -1693.8223 -108.1003 -1693.8484 -107.90097 L -1695.809 -92.92825 C -1695.942 -91.91406 -1696.211 -90.92244 -1696.6092 -89.98027 L -1696.6092 -89.98027 C -1697.0068 -89.03952 -1697.2555 -88.04261 -1697.3463 -87.02535 L -1698.1092 -78.48027 C -1698.617 -72.79324 -1694.6585 -67.674875 -1689.0265 -66.736214 Z" stroke="#7f8080" stroke-linecap="round" stroke-linejoin="round" stroke-width="1"/>
      <path d="M -1778 -352.55385 L -1771.8 -348.15385 L -1763.6 -344.15385 L -1755 -340.55385 L -1746 -336.75385 L -1735 -332.75385 L -1725.6 -329.95385 L -1716.6 -327.35385 L -1707.6 -324.75385 L -1702.2 -323.35385 L -1696.6 -322.35385 L -1694.2 -328.15385 L -1691.6 -333.55385 L -1689.4 -337.55385 L -1686.8 -340.95385 L -1686.6 -349.95385 L -1687.2 -360.95385 L -1689 -371.75385 L -1690.6 -382.15385 L -1693.2 -393.15386 L -1695.6 -402.75386 L -1698.4 -410.75386 L -1701.6 -420.15386 L -1704.4 -427.55386 L -1708 -435.15386 L -1712 -442.75386 L -1716 -450.15386 L -1718.6 -453.75386 L -1722.2 -459.55386 L -1727.6 -455.15386 L -1732.4 -450.35386 L -1737 -444.15386 L -1741.4 -437.95386 L -1746.2 -429.35386 L -1751 -419.95386 L -1755.8 -410.75386 L -1759.4 -402.15386 L -1763.4 -393.15386 L -1766.6 -384.95385 L -1770.4 -375.55385 L -1773.2 -367.55385 L -1776.2 -359.15385 Z" fill="#ff4040"/>
      <path d="M -1778 -352.55385 L -1771.8 -348.15385 L -1763.6 -344.15385 L -1755 -340.55385 L -1746 -336.75385 L -1735 -332.75385 L -1725.6 -329.95385 L -1716.6 -327.35385 L -1707.6 -324.75385 L -1702.2 -323.35385 L -1696.6 -322.35385 L -1694.2 -328.15385 L -1691.6 -333.55385 L -1689.4 -337.55385 L -1686.8 -340.95385 L -1686.6 -349.95385 L -1687.2 -360.95385 L -1689 -371.75385 L -1690.6 -382.15385 L -1693.2 -393.15386 L -1695.6 -402.75386 L -1698.4 -410.75386 L -1701.6 -420.15386 L -1704.4 -427.55386 L -1708 -435.15386 L -1712 -442.75386 L -1716 -450.15386 L -1718.6 -453.75386 L -1722.2 -459.55386 L -1727.6 -455.15386 L -1732.4 -450.35386 L -1737 -444.15386 L -1741.4 -437.95386 L -1746.2 -429.35386 L -1751 -419.95386 L -1755.8 -410.75386 L -1759.4 -402.15386 L -1763.4 -393.15386 L -1766.6 -384.95385 L -1770.4 -375.55385 L -1773.2 -367.55385 L -1776.2 -359.15385 Z" stroke="#7f8080" stroke-linecap="round" stroke-linejoin="round" stroke-width="1"/>
      <path d="M -1346.5947 -353.49725 L -1352.7947 -349.09725 L -1360.9947 -345.09725 L -1369.5947 -341.49725 L -1378.5947 -337.69725 L -1389.5947 -333.69725 L -1398.9947 -330.89725 L -1407.9947 -328.29725 L -1416.9947 -325.69725 L -1422.3947 -324.29725 L -1427.9947 -323.29725 L -1430.3947 -329.09725 L -1432.9947 -334.49725 L -1435.1947 -338.49725 L -1437.7947 -341.89725 L -1437.9947 -350.89725 L -1437.3947 -361.89725 L -1435.5947 -372.69725 L -1433.9947 -383.09725 L -1431.3947 -394.09725 L -1428.9947 -403.69725 L -1426.1947 -411.69725 L -1422.9947 -421.09725 L -1420.1947 -428.49725 L -1416.5947 -436.09725 L -1412.5947 -443.69725 L -1408.5947 -451.09725 L -1405.9947 -454.69725 L -1402.3947 -460.49725 L -1396.9947 -456.09725 L -1392.1947 -451.29725 L -1387.5947 -445.09725 L -1383.1947 -438.89725 L -1378.3947 -430.29725 L -1373.5947 -420.89725 L -1368.7947 -411.69725 L -1365.1947 -403.09725 L -1361.1947 -394.09725 L -1357.9947 -385.89725 L -1354.1947 -376.49725 L -1351.3947 -368.49725 L -1348.3947 -360.09725 Z" fill="#00006d"/>
      <path d="M -1346.5947 -353.49725 L -1352.7947 -349.09725 L -1360.9947 -345.09725 L -1369.5947 -341.49725 L -1378.5947 -337.69725 L -1389.5947 -333.69725 L -1398.9947 -330.89725 L -1407.9947 -328.29725 L -1416.9947 -325.69725 L -1422.3947 -324.29725 L -1427.9947 -323.29725 L -1430.3947 -329.09725 L -1432.9947 -334.49725 L -1435.1947 -338.49725 L -1437.7947 -341.89725 L -1437.9947 -350.89725 L -1437.3947 -361.89725 L -1435.5947 -372.69725 L -1433.9947 -383.09725 L -1431.3947 -394.09725 L -1428.9947 -403.69725 L -1426.1947 -411.69725 L -1422.9947 -421.09725 L -1420.1947 -428.49725 L -1416.5947 -436.09725 L -1412.5947 -443.69725 L -1408.5947 -451.09725 L -1405.9947 -454.69725 L -1402.3947 -460.49725 L -1396.9947 -456.09725 L -1392.1947 -451.29725 L -1387.5947 -445.09725 L -1383.1947 -438.89725 L -1378.3947 -430.29725 L -1373.5947 -420.89725 L -1368.7947 -411.69725 L -1365.1947 -403.09725 L -1361.1947 -394.09725 L -1357.9947 -385.89725 L -1354.1947 -376.49725 L -1351.3947 -368.49725 L -1348.3947 -360.09725 Z" stroke="#7f8080" stroke-linecap="round" stroke-linejoin="round" stroke-width="1"/>
      <path d="M -1778 -352.55385 L -1771.8 -348.15385 L -1763.6 -344.15385 L -1755 -340.55385 L -1746 -336.75385 L -1735 -332.75385 L -1725.6 -329.95385 L -1716.6 -327.35385 L -1707.6 -324.75385 L -1702.2 -323.35385 L -1696.6 -322.35385 L -1693.6 -328.75385 L -1697.4 -329.55385 L -1702.2 -330.75385 L -1707.8 -331.95385 L -1713.8 -333.75385 L -1718.4 -335.15385 L -1722.6 -336.35385 L -1727.2 -338.35385 L -1731.8 -339.95385 L -1736.6 -341.95385 L -1740.6 -343.35385 L -1745.8 -345.55385 L -1750.4 -347.15385 L -1755.2 -349.35385 L -1760 -351.15385 L -1764 -353.15385 L -1768.4 -355.35385 L -1772.8 -357.55385 L -1776.2 -359.15385 Z" fill="url(#Obj_Gradient_2)"/>
      <path d="M -1778 -352.55385 L -1771.8 -348.15385 L -1763.6 -344.15385 L -1755 -340.55385 L -1746 -336.75385 L -1735 -332.75385 L -1725.6 -329.95385 L -1716.6 -327.35385 L -1707.6 -324.75385 L -1702.2 -323.35385 L -1696.6 -322.35385 L -1693.6 -328.75385 L -1697.4 -329.55385 L -1702.2 -330.75385 L -1707.8 -331.95385 L -1713.8 -333.75385 L -1718.4 -335.15385 L -1722.6 -336.35385 L -1727.2 -338.35385 L -1731.8 -339.95385 L -1736.6 -341.95385 L -1740.6 -343.35385 L -1745.8 -345.55385 L -1750.4 -347.15385 L -1755.2 -349.35385 L -1760 -351.15385 L -1764 -353.15385 L -1768.4 -355.35385 L -1772.8 -357.55385 L -1776.2 -359.15385 Z" stroke="#7f8080" stroke-linecap="round" stroke-linejoin="round" stroke-width="1"/>
      <path d="M -1346.5947 -353.49725 L -1352.7947 -349.09725 L -1360.9947 -345.09725 L -1369.5947 -341.49725 L -1378.5947 -337.69725 L -1389.5947 -333.69725 L -1398.9947 -330.89725 L -1407.9947 -328.29725 L -1416.9947 -325.69725 L -1422.3947 -324.29725 L -1427.9947 -323.29725 L -1430.9947 -329.69725 L -1427.1947 -330.49725 L -1422.3947 -331.69725 L -1416.7947 -332.89725 L -1410.7947 -334.69725 L -1406.1947 -336.09725 L -1401.9947 -337.29725 L -1397.3947 -339.29725 L -1392.7947 -340.89725 L -1387.9947 -342.89725 L -1383.9947 -344.29725 L -1378.7947 -346.49725 L -1374.1947 -348.09725 L -1369.3947 -350.29725 L -1364.5947 -352.09725 L -1360.5947 -354.09725 L -1356.1947 -356.29725 L -1351.7947 -358.49725 L -1348.3947 -360.09725 Z" fill="url(#Obj_Gradient_3)"/>
      <path d="M -1346.5947 -353.49725 L -1352.7947 -349.09725 L -1360.9947 -345.09725 L -1369.5947 -341.49725 L -1378.5947 -337.69725 L -1389.5947 -333.69725 L -1398.9947 -330.89725 L -1407.9947 -328.29725 L -1416.9947 -325.69725 L -1422.3947 -324.29725 L -1427.9947 -323.29725 L -1430.9947 -329.69725 L -1427.1947 -330.49725 L -1422.3947 -331.69725 L -1416.7947 -332.89725 L -1410.7947 -334.69725 L -1406.1947 -336.09725 L -1401.9947 -337.29725 L -1397.3947 -339.29725 L -1392.7947 -340.89725 L -1387.9947 -342.89725 L -1383.9947 -344.29725 L -1378.7947 -346.49725 L -1374.1947 -348.09725 L -1369.3947 -350.29725 L -1364.5947 -352.09725 L -1360.5947 -354.09725 L -1356.1947 -356.29725 L -1351.7947 -358.49725 L -1348.3947 -360.09725 Z" stroke="#7f8080" stroke-linecap="round" stroke-linejoin="round" stroke-width="1"/>
      <path d="M -1627.9408 -502.2441 L -1622.5408 -502.8441 L -1615.7408 -499.4441 L -1610.7408 -497.6441 L -1602.3408 -495.8441 L -1593.9408 -494.8441 L -1585.9408 -493.8441 L -1578.3408 -493.6441 L -1569.7408 -493.2441 L -1558.1408 -493.4441 L -1549.7408 -493.8441 L -1540.3408 -494.4441 L -1531.9408 -495.2441 L -1522.7408 -496.6441 L -1514.5408 -498.8441 L -1508.7408 -500.6441 L -1503.1408 -503.2441 L -1500.3408 -502.0441 L -1499.9408 -496.4441 L -1502.7408 -488.4441 L -1508.1408 -485.6441 L -1518.7408 -482.4441 L -1530.1408 -480.0441 L -1541.3408 -479.2441 L -1553.7408 -478.2441 L -1564.1408 -478.2441 L -1573.5408 -478.2441 L -1585.1408 -478.8441 L -1596.3408 -479.6441 L -1606.9408 -481.8441 L -1615.5408 -483.8441 L -1621.7408 -486.6441 L -1623.7408 -488.2441 L -1626.9408 -495.8441 Z" fill="url(#Obj_Gradient_4)"/>
      <path d="M -1627.9408 -502.2441 L -1622.5408 -502.8441 L -1615.7408 -499.4441 L -1610.7408 -497.6441 L -1602.3408 -495.8441 L -1593.9408 -494.8441 L -1585.9408 -493.8441 L -1578.3408 -493.6441 L -1569.7408 -493.2441 L -1558.1408 -493.4441 L -1549.7408 -493.8441 L -1540.3408 -494.4441 L -1531.9408 -495.2441 L -1522.7408 -496.6441 L -1514.5408 -498.8441 L -1508.7408 -500.6441 L -1503.1408 -503.2441 L -1500.3408 -502.0441 L -1499.9408 -496.4441 L -1502.7408 -488.4441 L -1508.1408 -485.6441 L -1518.7408 -482.4441 L -1530.1408 -480.0441 L -1541.3408 -479.2441 L -1553.7408 -478.2441 L -1564.1408 -478.2441 L -1573.5408 -478.2441 L -1585.1408 -478.8441 L -1596.3408 -479.6441 L -1606.9408 -481.8441 L -1615.5408 -483.8441 L -1621.7408 -486.6441 L -1623.7408 -488.2441 L -1626.9408 -495.8441 Z" stroke="#7f8080" stroke-linecap="round" stroke-linejoin="round" stroke-width="1"/>
      <path d="M -1688.1353 -66.59315 L -1676.3785 -64.45586 C -1676.1798 -64.41974 -1675.9805 -64.38738 -1675.7806 -64.35881 L -1649.8895 -60.658296 C -1649.6216 -60.62001 -1649.3528 -60.58852 -1649.0833 -60.56387 L -1621.4805 -58.0387 C -1621.2007 -58.0131 -1620.9202 -57.99488 -1620.6394 -57.98405 L -1585.0558 -56.611876 C -1584.8504 -56.603955 -1584.6448 -56.59999 -1584.4393 -56.59999 L -1570.0757 -56.59999 C -1562.2432 -56.59999 -1555.8937 -62.94947 -1555.8937 -70.78195 C -1555.8937 -70.94249 -1555.8965 -71.10302 -1555.902 -71.26347 L -1568.655 -446.65243 C -1568.7313 -448.9013 -1570.5765 -450.6849 -1572.8267 -450.6849 L -1575.6224 -450.6849 C -1576.4472 -450.6849 -1577.2708 -450.74867 -1578.0858 -450.87567 L -1585.0608 -451.9625 C -1585.5853 -452.04425 -1586.1054 -452.15203 -1586.6192 -452.28547 L -1591.7198 -453.6101 C -1592.9362 -453.926 -1594.1112 -454.38414 -1595.2204 -454.975 L -1600.6901 -457.8887 C -1601.1877 -458.15373 -1601.6709 -458.4449 -1602.1377 -458.7609 L -1605.8569 -461.2789 C -1606.4553 -461.68403 -1607.0256 -462.12926 -1607.5638 -462.6115 L -1611.5645 -466.196 C -1611.782 -466.3908 -1611.994 -466.59157 -1612.2005 -466.798 L -1615.6464 -470.2434 C -1616.0766 -470.6736 -1616.482 -471.128 -1616.8606 -471.6044 L -1620.616 -476.3309 C -1620.9123 -476.7038 -1621.1918 -477.08975 -1621.4537 -477.4876 L -1625.5246 -483.67245 C -1625.9715 -484.3513 -1626.366 -485.0632 -1626.7046 -485.802 L -1629.0832 -490.9909 C -1629.1146 -491.05937 -1629.1455 -491.12804 -1629.1759 -491.19693 L -1630.8728 -495.04125 C -1631.1954 -495.772 -1630.8645 -496.6259 -1630.1337 -496.9485 C -1630.0924 -496.96675 -1630.0501 -496.98307 -1630.0072 -496.9974 L -1630.0072 -496.9974 C -1629.605 -497.1315 -1629.1703 -496.9142 -1629.0362 -496.512 C -1628.9814 -496.3477 -1628.9838 -496.16964 -1629.043 -496.00684 L -1629.6586 -494.314 C -1630.1962 -492.83533 -1631.3122 -491.639 -1632.75 -491 L -1633.4008 -490.71074 C -1634.4552 -490.24213 -1635.5962 -490 -1636.75 -490 L -1638.5 -490 L -1641.25 -490 C -1643.0678 -490 -1644.87 -489.66536 -1646.5667 -489.0128 L -1649.7745 -487.77904 C -1650.2579 -487.5931 -1650.75 -487.4308 -1651.2491 -487.2926 L -1658.1182 -485.3909 C -1658.3555 -485.3252 -1658.5912 -485.25405 -1658.8251 -485.1775 L -1669.4514 -481.7003 C -1669.4692 -481.6945 -1669.487 -481.6886 -1669.5048 -481.68273 L -1679.5284 -478.3637 C -1679.675 -478.3151 -1679.821 -478.26444 -1679.9662 -478.21165 L -1691.7746 -473.9183 C -1691.8267 -473.89936 -1691.879 -473.8807 -1691.9313 -473.8623 L -1702.2128 -470.24467 C -1702.8859 -470.00784 -1703.5423 -469.72625 -1704.1778 -469.4018 L -1711.4443 -465.6918 C -1711.7103 -465.556 -1711.98 -465.4277 -1712.253 -465.307 L -1719.1075 -462.27813 C -1720.7473 -461.55356 -1721.567 -459.7007 -1721 -458 L -1720.821 -457.4632 C -1720.2772 -455.83174 -1719.474 -454.2986 -1718.4421 -452.92285 L -1714.8656 -448.1542 C -1714.2897 -447.3863 -1713.784 -446.5681 -1713.3548 -445.7096 L -1710.5745 -440.14906 C -1710.5248 -440.0497 -1710.4741 -439.95084 -1710.4224 -439.85253 L -1705.7429 -430.9615 C -1705.581 -430.6539 -1705.4292 -430.34114 -1705.2877 -430.0237 L -1701.6215 -421.799 C -1701.467 -421.45214 -1701.3247 -421.0999 -1701.1952 -420.74294 L -1698.0634 -412.11313 C -1697.9578 -411.8221 -1697.8607 -411.52806 -1697.772 -411.2314 L -1695.3582 -403.1443 C -1695.3443 -403.09786 -1695.3306 -403.05135 -1695.3172 -403.0048 L -1692.4798 -393.17373 C -1692.3065 -392.5733 -1692.1685 -391.96323 -1692.0665 -391.34665 L -1690.2316 -380.2475 C -1690.212 -380.12896 -1690.1937 -380.0102 -1690.1768 -379.89124 L -1688.6057 -368.8477 C -1688.5696 -368.59405 -1688.5397 -368.3396 -1688.5158 -368.0845 L -1687.6936 -359.29605 C -1687.6543 -358.87556 -1687.6316 -358.45368 -1687.6257 -358.0314 L -1687.4555 -345.96817 C -1687.4526 -345.76425 -1687.4459 -345.5604 -1687.4352 -345.35675 L -1686.7265 -331.82935 C -1686.7206 -331.71595 -1686.7134 -331.60262 -1686.705 -331.48937 L -1685.4772 -314.84323 C -1685.4483 -314.45154 -1685.4338 -314.05893 -1685.4338 -313.66618 L -1685.4338 -301.1346 C -1685.4338 -300.94663 -1685.4305 -300.75865 -1685.4239 -300.5708 L -1684.8902 -285.43587 C -1684.8858 -285.31146 -1684.8829 -285.187 -1684.8814 -285.06253 L -1684.7046 -270.21276 C -1684.7017 -269.96824 -1684.7044 -269.7237 -1684.7127 -269.4793 L -1685.2412 -253.91385 C -1685.2473 -253.73292 -1685.2504 -253.5519 -1685.2504 -253.37088 L -1685.2504 -239.7214 C -1685.2504 -239.5334 -1685.2537 -239.34542 -1685.2603 -239.15755 L -1685.798 -223.90724 C -1685.7998 -223.85976 -1685.8017 -223.8123 -1685.8038 -223.76483 L -1686.5334 -207.25029 C -1686.534 -207.2384 -1686.5345 -207.2265 -1686.535 -207.2146 L -1687.264 -191.51104 C -1687.2665 -191.45637 -1687.2694 -191.40172 -1687.2725 -191.34708 L -1688.3635 -172.1074 C -1688.3666 -172.05237 -1688.37 -171.99736 -1688.3737 -171.94237 L -1690.0101 -147.54864 C -1690.016 -147.46259 -1690.0224 -147.37658 -1690.0295 -147.29064 L -1691.6682 -127.6289 C -1691.669 -127.61983 -1691.6698 -127.61076 -1691.6705 -127.60169 L -1693.2965 -108.48715 C -1693.3121 -108.30314 -1693.331 -108.11941 -1693.353 -107.93605 L -1695.1558 -92.91953 C -1695.2764 -91.91546 -1695.5222 -90.93044 -1695.8876 -89.98746 L -1695.8876 -89.98746 C -1696.2525 -89.0457 -1696.4796 -88.05623 -1696.562 -87.04961 L -1697.263 -78.48498 C -1697.7314 -72.76354 -1693.7833 -67.619915 -1688.1353 -66.59315 Z" fill="#ff4040"/>
      <path d="M -1688.1353 -66.59315 L -1676.3785 -64.45586 C -1676.1798 -64.41974 -1675.9805 -64.38738 -1675.7806 -64.35881 L -1649.8895 -60.658296 C -1649.6216 -60.62001 -1649.3528 -60.58852 -1649.0833 -60.56387 L -1621.4805 -58.0387 C -1621.2007 -58.0131 -1620.9202 -57.99488 -1620.6394 -57.98405 L -1585.0558 -56.611876 C -1584.8504 -56.603955 -1584.6448 -56.59999 -1584.4393 -56.59999 L -1570.0757 -56.59999 C -1562.2432 -56.59999 -1555.8937 -62.94947 -1555.8937 -70.78195 C -1555.8937 -70.94249 -1555.8965 -71.10302 -1555.902 -71.26347 L -1568.655 -446.65243 C -1568.7313 -448.9013 -1570.5765 -450.6849 -1572.8267 -450.6849 L -1575.6224 -450.6849 C -1576.4472 -450.6849 -1577.2708 -450.74867 -1578.0858 -450.87567 L -1585.0608 -451.9625 C -1585.5853 -452.04425 -1586.1054 -452.15203 -1586.6192 -452.28547 L -1591.7198 -453.6101 C -1592.9362 -453.926 -1594.1112 -454.38414 -1595.2204 -454.975 L -1600.6901 -457.8887 C -1601.1877 -458.15373 -1601.6709 -458.4449 -1602.1377 -458.7609 L -1605.8569 -461.2789 C -1606.4553 -461.68403 -1607.0256 -462.12926 -1607.5638 -462.6115 L -1611.5645 -466.196 C -1611.782 -466.3908 -1611.994 -466.59157 -1612.2005 -466.798 L -1615.6464 -470.2434 C -1616.0766 -470.6736 -1616.482 -471.128 -1616.8606 -471.6044 L -1620.616 -476.3309 C -1620.9123 -476.7038 -1621.1918 -477.08975 -1621.4537 -477.4876 L -1625.5246 -483.67245 C -1625.9715 -484.3513 -1626.366 -485.0632 -1626.7046 -485.802 L -1629.0832 -490.9909 C -1629.1146 -491.05937 -1629.1455 -491.12804 -1629.1759 -491.19693 L -1630.8728 -495.04125 C -1631.1954 -495.772 -1630.8645 -496.6259 -1630.1337 -496.9485 C -1630.0924 -496.96675 -1630.0501 -496.98307 -1630.0072 -496.9974 L -1630.0072 -496.9974 C -1629.605 -497.1315 -1629.1703 -496.9142 -1629.0362 -496.512 C -1628.9814 -496.3477 -1628.9838 -496.16964 -1629.043 -496.00684 L -1629.6586 -494.314 C -1630.1962 -492.83533 -1631.3122 -491.639 -1632.75 -491 L -1633.4008 -490.71074 C -1634.4552 -490.24213 -1635.5962 -490 -1636.75 -490 L -1638.5 -490 L -1641.25 -490 C -1643.0678 -490 -1644.87 -489.66536 -1646.5667 -489.0128 L -1649.7745 -487.77904 C -1650.2579 -487.5931 -1650.75 -487.4308 -1651.2491 -487.2926 L -1658.1182 -485.3909 C -1658.3555 -485.3252 -1658.5912 -485.25405 -1658.8251 -485.1775 L -1669.4514 -481.7003 C -1669.4692 -481.6945 -1669.487 -481.6886 -1669.5048 -481.68273 L -1679.5284 -478.3637 C -1679.675 -478.3151 -1679.821 -478.26444 -1679.9662 -478.21165 L -1691.7746 -473.9183 C -1691.8267 -473.89936 -1691.879 -473.8807 -1691.9313 -473.8623 L -1702.2128 -470.24467 C -1702.8859 -470.00784 -1703.5423 -469.72625 -1704.1778 -469.4018 L -1711.4443 -465.6918 C -1711.7103 -465.556 -1711.98 -465.4277 -1712.253 -465.307 L -1719.1075 -462.27813 C -1720.7473 -461.55356 -1721.567 -459.7007 -1721 -458 L -1720.821 -457.4632 C -1720.2772 -455.83174 -1719.474 -454.2986 -1718.4421 -452.92285 L -1714.8656 -448.1542 C -1714.2897 -447.3863 -1713.784 -446.5681 -1713.3548 -445.7096 L -1710.5745 -440.14906 C -1710.5248 -440.0497 -1710.4741 -439.95084 -1710.4224 -439.85253 L -1705.7429 -430.9615 C -1705.581 -430.6539 -1705.4292 -430.34114 -1705.2877 -430.0237 L -1701.6215 -421.799 C -1701.467 -421.45214 -1701.3247 -421.0999 -1701.1952 -420.74294 L -1698.0634 -412.11313 C -1697.9578 -411.8221 -1697.8607 -411.52806 -1697.772 -411.2314 L -1695.3582 -403.1443 C -1695.3443 -403.09786 -1695.3306 -403.05135 -1695.3172 -403.0048 L -1692.4798 -393.17373 C -1692.3065 -392.5733 -1692.1685 -391.96323 -1692.0665 -391.34665 L -1690.2316 -380.2475 C -1690.212 -380.12896 -1690.1937 -380.0102 -1690.1768 -379.89124 L -1688.6057 -368.8477 C -1688.5696 -368.59405 -1688.5397 -368.3396 -1688.5158 -368.0845 L -1687.6936 -359.29605 C -1687.6543 -358.87556 -1687.6316 -358.45368 -1687.6257 -358.0314 L -1687.4555 -345.96817 C -1687.4526 -345.76425 -1687.4459 -345.5604 -1687.4352 -345.35675 L -1686.7265 -331.82935 C -1686.7206 -331.71595 -1686.7134 -331.60262 -1686.705 -331.48937 L -1685.4772 -314.84323 C -1685.4483 -314.45154 -1685.4338 -314.05893 -1685.4338 -313.66618 L -1685.4338 -301.1346 C -1685.4338 -300.94663 -1685.4305 -300.75865 -1685.4239 -300.5708 L -1684.8902 -285.43587 C -1684.8858 -285.31146 -1684.8829 -285.187 -1684.8814 -285.06253 L -1684.7046 -270.21276 C -1684.7017 -269.96824 -1684.7044 -269.7237 -1684.7127 -269.4793 L -1685.2412 -253.91385 C -1685.2473 -253.73292 -1685.2504 -253.5519 -1685.2504 -253.37088 L -1685.2504 -239.7214 C -1685.2504 -239.5334 -1685.2537 -239.34542 -1685.2603 -239.15755 L -1685.798 -223.90724 C -1685.7998 -223.85976 -1685.8017 -223.8123 -1685.8038 -223.76483 L -1686.5334 -207.25029 C -1686.534 -207.2384 -1686.5345 -207.2265 -1686.535 -207.2146 L -1687.264 -191.51104 C -1687.2665 -191.45637 -1687.2694 -191.40172 -1687.2725 -191.34708 L -1688.3635 -172.1074 C -1688.3666 -172.05237 -1688.37 -171.99736 -1688.3737 -171.94237 L -1690.0101 -147.54864 C -1690.016 -147.46259 -1690.0224 -147.37658 -1690.0295 -147.29064 L -1691.6682 -127.6289 C -1691.669 -127.61983 -1691.6698 -127.61076 -1691.6705 -127.60169 L -1693.2965 -108.48715 C -1693.3121 -108.30314 -1693.331 -108.11941 -1693.353 -107.93605 L -1695.1558 -92.91953 C -1695.2764 -91.91546 -1695.5222 -90.93044 -1695.8876 -89.98746 L -1695.8876 -89.98746 C -1696.2525 -89.0457 -1696.4796 -88.05623 -1696.562 -87.04961 L -1697.263 -78.48498 C -1697.7314 -72.76354 -1693.7833 -67.619915 -1688.1353 -66.59315 Z" stroke="#7f8080" stroke-linecap="round" stroke-linejoin="round" stroke-width="1"/>
      <path d="M -1627.4279 -502.0362 L -1632.157 -497.98264 C -1633.3074 -496.9966 -1634.5524 -496.1267 -1635.8738 -495.3855 L -1638.4004 -493.96835 C -1639.8356 -493.1634 -1640.4164 -491.39425 -1639.7376 -489.89527 L -1638.72 -487.64803 C -1638.5984 -487.37954 -1638.4717 -487.1134 -1638.3399 -486.8498 L -1636.5376 -483.24526 L -1634.0506 -478.2713 C -1633.7088 -477.5877 -1633.3332 -476.92157 -1632.925 -476.2754 L -1630.5987 -472.5919 C -1630.1583 -471.89465 -1629.6807 -471.2216 -1629.168 -470.5756 L -1625.7574 -466.27815 C -1625.2113 -465.5901 -1624.6263 -464.93394 -1624.0052 -464.31283 L -1619.3391 -459.6468 C -1618.9383 -459.2459 -1618.5227 -458.86 -1618.0933 -458.4898 L -1613.5298 -454.55574 C -1613.1351 -454.2155 -1612.729 -453.8888 -1612.3122 -453.5762 L -1608.3372 -450.59497 C -1607.6713 -450.09553 -1606.9788 -449.6326 -1606.2627 -449.20826 L -1602.1296 -446.75904 C -1602.0016 -446.6832 -1601.8729 -446.6086 -1601.7434 -446.53523 L -1597.0459 -443.8733 C -1596.3076 -443.45493 -1595.5467 -443.07774 -1594.7667 -442.74347 L -1591.217 -441.2221 C -1590.631 -440.971 -1590.0348 -440.74433 -1589.43 -440.54274 L -1584.412 -438.87003 C -1583.1647 -438.4543 -1581.884 -438.14624 -1580.5842 -437.9493 L -1576.4854 -437.32826 C -1576.1202 -437.27294 -1575.7539 -437.2264 -1575.3865 -437.18874 L -1568.5054 -436.483 C -1568.2602 -436.45784 -1568.0147 -436.43664 -1567.7688 -436.4194 L -1563.2417 -436.1017 C -1562.7058 -436.0641 -1562.1688 -436.04527 -1561.6316 -436.04527 L -1558.3695 -436.04526 C -1557.4158 -436.04526 -1556.463 -436.1046 -1555.5167 -436.22287 L -1551.528 -436.72146 C -1550.868 -436.80396 -1550.212 -436.91504 -1549.5616 -437.0544 L -1543.4796 -438.3577 C -1542.5857 -438.54924 -1541.704 -438.7939 -1540.8393 -439.0904 L -1536.3305 -440.6363 C -1535.5358 -440.90873 -1534.7567 -441.2245 -1533.9966 -441.5822 L -1529.1632 -443.85674 C -1528.613 -444.11565 -1528.0733 -444.3963 -1527.5454 -444.698 L -1523.7775 -446.85104 C -1523.0847 -447.2469 -1522.413 -447.6786 -1521.765 -448.1443 L -1517.089 -451.50525 C -1516.5883 -451.8651 -1516.1022 -452.24497 -1515.632 -452.6439 L -1510.3112 -457.15856 C -1509.929 -457.48294 -1509.5573 -457.81974 -1509.197 -458.1684 L -1504.4978 -462.71604 C -1503.8582 -463.335 -1503.255 -463.99056 -1502.6915 -464.6794 L -1498.8982 -469.31566 C -1498.3915 -469.935 -1497.9174 -470.5803 -1497.478 -471.24904 L -1493.8608 -476.75344 C -1493.6454 -477.08127 -1493.4384 -477.41456 -1493.24 -477.753 L -1490.7169 -482.0571 C -1490.331 -482.71546 -1489.978 -483.39265 -1489.6594 -484.0861 L -1487.5407 -488.6974 C -1487.0078 -489.85715 -1486.6367 -491.08456 -1486.4376 -492.34526 L -1486.4376 -492.34526 C -1486.2593 -493.4745 -1486.8386 -494.588 -1487.8657 -495.0901 L -1493.1591 -497.678 C -1494.4736 -498.3206 -1495.7082 -499.11514 -1496.8376 -500.04526 L -1497.2436 -500.3796 C -1498.088 -501.07496 -1498.7114 -502.00126 -1499.0376 -503.04526 L -1499.0376 -503.04526 C -1499.0843 -503.1946 -1499.2431 -503.2778 -1499.3925 -503.23114 C -1499.5075 -503.1952 -1499.5872 -503.0903 -1499.591 -502.9698 L -1499.7003 -499.5469 C -1499.791 -496.7038 -1500.4084 -493.90224 -1501.521 -491.28433 L -1502.398 -489.22096 C -1502.9565 -487.9067 -1503.6363 -486.6473 -1504.4284 -485.4591 L -1508.1142 -479.9304 C -1508.8617 -478.80915 -1509.7063 -477.75575 -1510.6382 -476.7824 L -1516.9333 -470.20753 C -1517.8014 -469.3009 -1518.7422 -468.4668 -1519.7464 -467.7137 L -1528.1213 -461.4325 C -1528.9977 -460.7752 -1529.92 -460.1813 -1530.881 -459.65546 L -1538.0662 -455.72394 C -1539.3774 -455.00653 -1540.7553 -454.41863 -1542.1805 -453.96857 L -1548.8534 -451.86133 C -1550.5703 -451.31916 -1552.3449 -450.98046 -1554.1407 -450.8522 L -1561.0272 -450.3603 C -1562.0995 -450.2837 -1563.1758 -450.2824 -1564.2483 -450.35635 L -1572.6846 -450.93816 C -1573.7187 -451.0095 -1574.747 -451.15064 -1575.762 -451.36067 L -1582.8973 -452.8369 C -1584.8492 -453.24077 -1586.7404 -453.89665 -1588.5232 -454.7881 L -1593.1827 -457.1178 C -1594.4168 -457.73485 -1595.5929 -458.4617 -1596.6967 -459.2896 L -1602.3787 -463.5511 C -1602.8178 -463.88043 -1603.245 -464.2254 -1603.6595 -464.5853 L -1609.4147 -469.58324 C -1610.229 -470.2904 -1610.9925 -471.0539 -1611.6996 -471.8682 L -1616.1049 -476.9409 C -1616.859 -477.80925 -1617.5469 -478.73295 -1618.1628 -479.7042 L -1621.8965 -485.592 C -1622.257 -486.16056 -1622.5925 -486.7447 -1622.9018 -487.3427 L -1624.5222 -490.47544 C -1625.1313 -491.6531 -1625.6375 -492.88126 -1626.035 -494.14615 L -1627.3153 -498.21964 C -1627.53 -498.903 -1627.7128 -499.59605 -1627.8629 -500.2965 L -1628.0883 -501.34843 C -1628.1734 -501.74544 -1627.947 -502.1431 -1627.5622 -502.27263 L -1627.5622 -502.27263 C -1627.4897 -502.29704 -1627.4112 -502.25805 -1627.3868 -502.18556 C -1627.3687 -502.13205 -1627.385 -502.07296 -1627.4279 -502.0362 Z" fill="url(#Obj_Gradient_5)"/>
      <path d="M -1627.4279 -502.0362 L -1632.157 -497.98264 C -1633.3074 -496.9966 -1634.5524 -496.1267 -1635.8738 -495.3855 L -1638.4004 -493.96835 C -1639.8356 -493.1634 -1640.4164 -491.39425 -1639.7376 -489.89527 L -1638.72 -487.64803 C -1638.5984 -487.37954 -1638.4717 -487.1134 -1638.3399 -486.8498 L -1636.5376 -483.24526 L -1634.0506 -478.2713 C -1633.7088 -477.5877 -1633.3332 -476.92157 -1632.925 -476.2754 L -1630.5987 -472.5919 C -1630.1583 -471.89465 -1629.6807 -471.2216 -1629.168 -470.5756 L -1625.7574 -466.27815 C -1625.2113 -465.5901 -1624.6263 -464.93394 -1624.0052 -464.31283 L -1619.3391 -459.6468 C -1618.9383 -459.2459 -1618.5227 -458.86 -1618.0933 -458.4898 L -1613.5298 -454.55574 C -1613.1351 -454.2155 -1612.729 -453.8888 -1612.3122 -453.5762 L -1608.3372 -450.59497 C -1607.6713 -450.09553 -1606.9788 -449.6326 -1606.2627 -449.20826 L -1602.1296 -446.75904 C -1602.0016 -446.6832 -1601.8729 -446.6086 -1601.7434 -446.53523 L -1597.0459 -443.8733 C -1596.3076 -443.45493 -1595.5467 -443.07774 -1594.7667 -442.74347 L -1591.217 -441.2221 C -1590.631 -440.971 -1590.0348 -440.74433 -1589.43 -440.54274 L -1584.412 -438.87003 C -1583.1647 -438.4543 -1581.884 -438.14624 -1580.5842 -437.9493 L -1576.4854 -437.32826 C -1576.1202 -437.27294 -1575.7539 -437.2264 -1575.3865 -437.18874 L -1568.5054 -436.483 C -1568.2602 -436.45784 -1568.0147 -436.43664 -1567.7688 -436.4194 L -1563.2417 -436.1017 C -1562.7058 -436.0641 -1562.1688 -436.04527 -1561.6316 -436.04527 L -1558.3695 -436.04526 C -1557.4158 -436.04526 -1556.463 -436.1046 -1555.5167 -436.22287 L -1551.528 -436.72146 C -1550.868 -436.80396 -1550.212 -436.91504 -1549.5616 -437.0544 L -1543.4796 -438.3577 C -1542.5857 -438.54924 -1541.704 -438.7939 -1540.8393 -439.0904 L -1536.3305 -440.6363 C -1535.5358 -440.90873 -1534.7567 -441.2245 -1533.9966 -441.5822 L -1529.1632 -443.85674 C -1528.613 -444.11565 -1528.0733 -444.3963 -1527.5454 -444.698 L -1523.7775 -446.85104 C -1523.0847 -447.2469 -1522.413 -447.6786 -1521.765 -448.1443 L -1517.089 -451.50525 C -1516.5883 -451.8651 -1516.1022 -452.24497 -1515.632 -452.6439 L -1510.3112 -457.15856 C -1509.929 -457.48294 -1509.5573 -457.81974 -1509.197 -458.1684 L -1504.4978 -462.71604 C -1503.8582 -463.335 -1503.255 -463.99056 -1502.6915 -464.6794 L -1498.8982 -469.31566 C -1498.3915 -469.935 -1497.9174 -470.5803 -1497.478 -471.24904 L -1493.8608 -476.75344 C -1493.6454 -477.08127 -1493.4384 -477.41456 -1493.24 -477.753 L -1490.7169 -482.0571 C -1490.331 -482.71546 -1489.978 -483.39265 -1489.6594 -484.0861 L -1487.5407 -488.6974 C -1487.0078 -489.85715 -1486.6367 -491.08456 -1486.4376 -492.34526 L -1486.4376 -492.34526 C -1486.2593 -493.4745 -1486.8386 -494.588 -1487.8657 -495.0901 L -1493.1591 -497.678 C -1494.4736 -498.3206 -1495.7082 -499.11514 -1496.8376 -500.04526 L -1497.2436 -500.3796 C -1498.088 -501.07496 -1498.7114 -502.00126 -1499.0376 -503.04526 L -1499.0376 -503.04526 C -1499.0843 -503.1946 -1499.2431 -503.2778 -1499.3925 -503.23114 C -1499.5075 -503.1952 -1499.5872 -503.0903 -1499.591 -502.9698 L -1499.7003 -499.5469 C -1499.791 -496.7038 -1500.4084 -493.90224 -1501.521 -491.28433 L -1502.398 -489.22096 C -1502.9565 -487.9067 -1503.6363 -486.6473 -1504.4284 -485.4591 L -1508.1142 -479.9304 C -1508.8617 -478.80915 -1509.7063 -477.75575 -1510.6382 -476.7824 L -1516.9333 -470.20753 C -1517.8014 -469.3009 -1518.7422 -468.4668 -1519.7464 -467.7137 L -1528.1213 -461.4325 C -1528.9977 -460.7752 -1529.92 -460.1813 -1530.881 -459.65546 L -1538.0662 -455.72394 C -1539.3774 -455.00653 -1540.7553 -454.41863 -1542.1805 -453.96857 L -1548.8534 -451.86133 C -1550.5703 -451.31916 -1552.3449 -450.98046 -1554.1407 -450.8522 L -1561.0272 -450.3603 C -1562.0995 -450.2837 -1563.1758 -450.2824 -1564.2483 -450.35635 L -1572.6846 -450.93816 C -1573.7187 -451.0095 -1574.747 -451.15064 -1575.762 -451.36067 L -1582.8973 -452.8369 C -1584.8492 -453.24077 -1586.7404 -453.89665 -1588.5232 -454.7881 L -1593.1827 -457.1178 C -1594.4168 -457.73485 -1595.5929 -458.4617 -1596.6967 -459.2896 L -1602.3787 -463.5511 C -1602.8178 -463.88043 -1603.245 -464.2254 -1603.6595 -464.5853 L -1609.4147 -469.58324 C -1610.229 -470.2904 -1610.9925 -471.0539 -1611.6996 -471.8682 L -1616.1049 -476.9409 C -1616.859 -477.80925 -1617.5469 -478.73295 -1618.1628 -479.7042 L -1621.8965 -485.592 C -1622.257 -486.16056 -1622.5925 -486.7447 -1622.9018 -487.3427 L -1624.5222 -490.47544 C -1625.1313 -491.6531 -1625.6375 -492.88126 -1626.035 -494.14615 L -1627.3153 -498.21964 C -1627.53 -498.903 -1627.7128 -499.59605 -1627.8629 -500.2965 L -1628.0883 -501.34843 C -1628.1734 -501.74544 -1627.947 -502.1431 -1627.5622 -502.27263 L -1627.5622 -502.27263 C -1627.4897 -502.29704 -1627.4112 -502.25805 -1627.3868 -502.18556 C -1627.3687 -502.13205 -1627.385 -502.07296 -1627.4279 -502.0362 Z" stroke="#7f8080" stroke-linecap="round" stroke-linejoin="round" stroke-width="1"/>
      <path d="M -1698.1868 -76.79999 L -1698.1868 -76.79999 C -1698.2525 -76.27451 -1698.1896 -75.74095 -1698.0037 -75.2451 L -1697.3527 -73.50908 C -1697.176 -73.03773 -1696.9489 -72.58682 -1696.6754 -72.16418 L -1695.7076 -70.66847 C -1695.1666 -69.83244 -1694.4535 -69.12145 -1693.6159 -68.58298 L -1692.5378 -67.88995 C -1692.2376 -67.696926 -1691.923 -67.52715 -1691.5968 -67.382115 L -1690.28 -66.796514 C -1689.6835 -66.53124 -1689.0528 -66.35072 -1688.4062 -66.2602 L -1679.3958 -64.998745 C -1679.3858 -64.997346 -1679.3758 -64.99597 -1679.3658 -64.99461 L -1667.6498 -63.406 C -1667.6038 -63.399765 -1667.5577 -63.393985 -1667.5116 -63.388664 L -1657.2287 -62.20217 C -1657.1968 -62.19849 -1657.1648 -62.195024 -1657.1328 -62.19178 L -1643.4228 -60.800904 C -1643.3948 -60.798065 -1643.3668 -60.795395 -1643.3388 -60.792894 L -1632.2335 -59.80135 C -1632.1984 -59.798214 -1632.1632 -59.795344 -1632.128 -59.79274 L -1621.4415 -59.001144 C -1621.401 -58.998145 -1621.3605 -58.9955 -1621.32 -58.993205 L -1610.812 -58.398414 C -1610.7912 -58.397235 -1610.7704 -58.395964 -1610.7496 -58.3946 L -1598.7068 -57.60491 C -1598.6228 -57.5994 -1598.5387 -57.59541 -1598.4546 -57.59293 L -1585.0074 -57.19743 C -1584.9897 -57.19691 -1584.972 -57.19632 -1584.9542 -57.19566 L -1574.3103 -56.80144 C -1574.224 -56.798245 -1574.1376 -56.796646 -1574.0512 -56.796646 L -1563.4422 -56.796646 C -1563.4013 -56.796646 -1563.3603 -56.79629 -1563.3194 -56.79557 L -1552.233 -56.60107 C -1552.065 -56.59812 -1551.8968 -56.60123 -1551.729 -56.610383 L -1541.1077 -57.18972 C -1541.0231 -57.19434 -1540.9384 -57.197416 -1540.8537 -57.19896 L -1530.0891 -57.394676 C -1530.017 -57.39599 -1529.9447 -57.39842 -1529.8726 -57.40197 L -1517.854 -57.99305 C -1517.8052 -57.99545 -1517.7564 -57.998355 -1517.7078 -58.00177 L -1506.4677 -58.79055 C -1506.4098 -58.79461 -1506.3519 -58.7994 -1506.294 -58.804906 L -1493.8835 -59.986866 C -1493.815 -59.993386 -1493.7465 -59.998896 -1493.6779 -60.003396 L -1481.7458 -60.78582 C -1481.6358 -60.79304 -1481.526 -60.80285 -1481.4164 -60.81525 L -1471.0041 -61.99401 C -1470.9886 -61.99577 -1470.973 -61.99758 -1470.9575 -61.99944 L -1461.0098 -63.193166 C -1460.9905 -63.195486 -1460.9711 -63.19789 -1460.9518 -63.20037 L -1447.116 -64.97791 C -1447.0188 -64.9904 -1446.9219 -65.00493 -1446.8253 -65.02149 L -1440.2718 -66.14494 C -1440.0708 -66.17939 -1439.8685 -66.20505 -1439.6653 -66.22183 L -1436.433 -66.488805 C -1435.5437 -66.56225 -1434.6767 -66.80503 -1433.8786 -67.20406 L -1432.3924 -67.94721 C -1431.7918 -68.2475 -1431.2375 -68.63265 -1430.7466 -69.09081 L -1429.4115 -70.33692 C -1428.8047 -70.903285 -1428.3493 -71.61253 -1428.0868 -72.39999 L -1427.792 -73.28448 C -1427.7219 -73.4947 -1427.6618 -73.70813 -1427.612 -73.924055 L -1427.1423 -75.95944 C -1427.107 -76.11208 -1427.1405 -76.27248 -1427.2338 -76.39832 L -1427.2338 -76.39832 C -1427.3241 -76.5202 -1427.4748 -76.581695 -1427.6246 -76.55786 L -1436.1045 -75.20879 C -1436.1553 -75.200695 -1436.2061 -75.19204 -1436.2568 -75.18282 L -1449.2416 -72.82195 C -1449.3344 -72.80508 -1449.4275 -72.79009 -1449.5209 -72.77698 L -1460.7506 -71.20089 C -1460.7707 -71.19806 -1460.7909 -71.195144 -1460.811 -71.19214 L -1473.9336 -69.233546 C -1474.0983 -69.20895 -1474.264 -69.19025 -1474.43 -69.177475 L -1487.1548 -68.19864 C -1487.1721 -68.19731 -1487.1895 -68.196045 -1487.2068 -68.19484 L -1501.547 -67.199 C -1501.5695 -67.19743 -1501.5921 -67.19597 -1501.6147 -67.19462 L -1514.918 -66.4004 C -1514.9598 -66.3979 -1515.0018 -66.39577 -1515.0437 -66.394025 L -1529.2352 -65.802715 C -1529.3322 -65.79867 -1529.4294 -65.79665 -1529.5266 -65.79665 L -1542.7808 -65.79665 L -1555.3225 -65.79665 C -1555.3614 -65.79665 -1555.4002 -65.79632 -1555.4391 -65.795674 L -1567.1975 -65.5997 C -1567.3197 -65.597665 -1567.4419 -65.59883 -1567.564 -65.60319 L -1578.3976 -65.9901 C -1578.5197 -65.994464 -1578.642 -65.99563 -1578.764 -65.99359 L -1590.4787 -65.79835 C -1590.5468 -65.79721 -1590.6148 -65.79707 -1590.6829 -65.79792 L -1606.3852 -65.9942 C -1606.5156 -65.99583 -1606.6459 -66.001104 -1606.776 -66.010016 L -1621.0858 -66.99014 C -1621.1491 -66.99448 -1621.2124 -66.99968 -1621.2756 -67.00574 L -1635.7666 -68.39529 C -1635.776 -68.39619 -1635.7855 -68.39712 -1635.795 -68.39806 L -1649.607 -69.77927 C -1649.7228 -69.79085 -1649.8384 -69.80532 -1649.9535 -69.82267 L -1664.2627 -71.97884 C -1664.3414 -71.99071 -1664.4204 -72.00123 -1664.4995 -72.01041 L -1678.0194 -73.577935 C -1678.127 -73.59041 -1678.2343 -73.605375 -1678.3411 -73.622825 L -1687.7332 -75.15623 C -1687.8982 -75.183165 -1688.0622 -75.216 -1688.2248 -75.25468 L -1697.3024 -77.41346 C -1697.6908 -77.50581 -1698.0804 -77.26588 -1698.1728 -76.87756 C -1698.1788 -76.85198 -1698.1835 -76.82608 -1698.1868 -76.79999 Z" fill="url(#Obj_Gradient_6)"/>
      <path d="M -1698.1868 -76.79999 L -1698.1868 -76.79999 C -1698.2525 -76.27451 -1698.1896 -75.74095 -1698.0037 -75.2451 L -1697.3527 -73.50908 C -1697.176 -73.03773 -1696.9489 -72.58682 -1696.6754 -72.16418 L -1695.7076 -70.66847 C -1695.1666 -69.83244 -1694.4535 -69.12145 -1693.6159 -68.58298 L -1692.5378 -67.88995 C -1692.2376 -67.696926 -1691.923 -67.52715 -1691.5968 -67.382115 L -1690.28 -66.796514 C -1689.6835 -66.53124 -1689.0528 -66.35072 -1688.4062 -66.2602 L -1679.3958 -64.998745 C -1679.3858 -64.997346 -1679.3758 -64.99597 -1679.3658 -64.99461 L -1667.6498 -63.406 C -1667.6038 -63.399765 -1667.5577 -63.393985 -1667.5116 -63.388664 L -1657.2287 -62.20217 C -1657.1968 -62.19849 -1657.1648 -62.195024 -1657.1328 -62.19178 L -1643.4228 -60.800904 C -1643.3948 -60.798065 -1643.3668 -60.795395 -1643.3388 -60.792894 L -1632.2335 -59.80135 C -1632.1984 -59.798214 -1632.1632 -59.795344 -1632.128 -59.79274 L -1621.4415 -59.001144 C -1621.401 -58.998145 -1621.3605 -58.9955 -1621.32 -58.993205 L -1610.812 -58.398414 C -1610.7912 -58.397235 -1610.7704 -58.395964 -1610.7496 -58.3946 L -1598.7068 -57.60491 C -1598.6228 -57.5994 -1598.5387 -57.59541 -1598.4546 -57.59293 L -1585.0074 -57.19743 C -1584.9897 -57.19691 -1584.972 -57.19632 -1584.9542 -57.19566 L -1574.3103 -56.80144 C -1574.224 -56.798245 -1574.1376 -56.796646 -1574.0512 -56.796646 L -1563.4422 -56.796646 C -1563.4013 -56.796646 -1563.3603 -56.79629 -1563.3194 -56.79557 L -1552.233 -56.60107 C -1552.065 -56.59812 -1551.8968 -56.60123 -1551.729 -56.610383 L -1541.1077 -57.18972 C -1541.0231 -57.19434 -1540.9384 -57.197416 -1540.8537 -57.19896 L -1530.0891 -57.394676 C -1530.017 -57.39599 -1529.9447 -57.39842 -1529.8726 -57.40197 L -1517.854 -57.99305 C -1517.8052 -57.99545 -1517.7564 -57.998355 -1517.7078 -58.00177 L -1506.4677 -58.79055 C -1506.4098 -58.79461 -1506.3519 -58.7994 -1506.294 -58.804906 L -1493.8835 -59.986866 C -1493.815 -59.993386 -1493.7465 -59.998896 -1493.6779 -60.003396 L -1481.7458 -60.78582 C -1481.6358 -60.79304 -1481.526 -60.80285 -1481.4164 -60.81525 L -1471.0041 -61.99401 C -1470.9886 -61.99577 -1470.973 -61.99758 -1470.9575 -61.99944 L -1461.0098 -63.193166 C -1460.9905 -63.195486 -1460.9711 -63.19789 -1460.9518 -63.20037 L -1447.116 -64.97791 C -1447.0188 -64.9904 -1446.9219 -65.00493 -1446.8253 -65.02149 L -1440.2718 -66.14494 C -1440.0708 -66.17939 -1439.8685 -66.20505 -1439.6653 -66.22183 L -1436.433 -66.488805 C -1435.5437 -66.56225 -1434.6767 -66.80503 -1433.8786 -67.20406 L -1432.3924 -67.94721 C -1431.7918 -68.2475 -1431.2375 -68.63265 -1430.7466 -69.09081 L -1429.4115 -70.33692 C -1428.8047 -70.903285 -1428.3493 -71.61253 -1428.0868 -72.39999 L -1427.792 -73.28448 C -1427.7219 -73.4947 -1427.6618 -73.70813 -1427.612 -73.924055 L -1427.1423 -75.95944 C -1427.107 -76.11208 -1427.1405 -76.27248 -1427.2338 -76.39832 L -1427.2338 -76.39832 C -1427.3241 -76.5202 -1427.4748 -76.581695 -1427.6246 -76.55786 L -1436.1045 -75.20879 C -1436.1553 -75.200695 -1436.2061 -75.19204 -1436.2568 -75.18282 L -1449.2416 -72.82195 C -1449.3344 -72.80508 -1449.4275 -72.79009 -1449.5209 -72.77698 L -1460.7506 -71.20089 C -1460.7707 -71.19806 -1460.7909 -71.195144 -1460.811 -71.19214 L -1473.9336 -69.233546 C -1474.0983 -69.20895 -1474.264 -69.19025 -1474.43 -69.177475 L -1487.1548 -68.19864 C -1487.1721 -68.19731 -1487.1895 -68.196045 -1487.2068 -68.19484 L -1501.547 -67.199 C -1501.5695 -67.19743 -1501.5921 -67.19597 -1501.6147 -67.19462 L -1514.918 -66.4004 C -1514.9598 -66.3979 -1515.0018 -66.39577 -1515.0437 -66.394025 L -1529.2352 -65.802715 C -1529.3322 -65.79867 -1529.4294 -65.79665 -1529.5266 -65.79665 L -1542.7808 -65.79665 L -1555.3225 -65.79665 C -1555.3614 -65.79665 -1555.4002 -65.79632 -1555.4391 -65.795674 L -1567.1975 -65.5997 C -1567.3197 -65.597665 -1567.4419 -65.59883 -1567.564 -65.60319 L -1578.3976 -65.9901 C -1578.5197 -65.994464 -1578.642 -65.99563 -1578.764 -65.99359 L -1590.4787 -65.79835 C -1590.5468 -65.79721 -1590.6148 -65.79707 -1590.6829 -65.79792 L -1606.3852 -65.9942 C -1606.5156 -65.99583 -1606.6459 -66.001104 -1606.776 -66.010016 L -1621.0858 -66.99014 C -1621.1491 -66.99448 -1621.2124 -66.99968 -1621.2756 -67.00574 L -1635.7666 -68.39529 C -1635.776 -68.39619 -1635.7855 -68.39712 -1635.795 -68.39806 L -1649.607 -69.77927 C -1649.7228 -69.79085 -1649.8384 -69.80532 -1649.9535 -69.82267 L -1664.2627 -71.97884 C -1664.3414 -71.99071 -1664.4204 -72.00123 -1664.4995 -72.01041 L -1678.0194 -73.577935 C -1678.127 -73.59041 -1678.2343 -73.605375 -1678.3411 -73.622825 L -1687.7332 -75.15623 C -1687.8982 -75.183165 -1688.0622 -75.216 -1688.2248 -75.25468 L -1697.3024 -77.41346 C -1697.6908 -77.50581 -1698.0804 -77.26588 -1698.1728 -76.87756 C -1698.1788 -76.85198 -1698.1835 -76.82608 -1698.1868 -76.79999 Z" stroke="#7f8080" stroke-linecap="round" stroke-linejoin="round" stroke-width="1"/>
      <path d="M -1555 -67 L -1527 -65 L -1499 -68 L -1479 -69 L -1496.5 -470.5 L -1496.5 -471 L -1506 -461.5 L -1518 -450.5 L -1531 -442 L -1541 -439 L -1556 -437 L -1561 -436 L -1567 -436 L -1569 -435 Z" fill="red"/>
      <path d="M -1555 -67 L -1527 -65 L -1499 -68 L -1479 -69 L -1496.5 -470.5 L -1496.5 -471 L -1506 -461.5 L -1518 -450.5 L -1531 -442 L -1541 -439 L -1556 -437 L -1561 -436 L -1567 -436 L -1569 -435 Z" stroke="#7f8080" stroke-linecap="round" stroke-linejoin="round" stroke-width="1"/>
      <path d="M -1616.5 -457 L -1606.5 -449.5 L -1598.5 -444 L -1587.5 -439.5 L -1575 -436.5 L -1568.5 -436 L -1556 -66.5 L -1575 -65.5 L -1594.5 -66 L -1617 -66 L -1624 -67 L -1632.5 -475 L -1625.5 -465.5 Z" fill="#000062"/>
      <path d="M -1616.5 -457 L -1606.5 -449.5 L -1598.5 -444 L -1587.5 -439.5 L -1575 -436.5 L -1568.5 -436 L -1556 -66.5 L -1575 -65.5 L -1594.5 -66 L -1617 -66 L -1624 -67 L -1632.5 -475 L -1625.5 -465.5 Z" stroke="#7f8080" stroke-linecap="round" stroke-linejoin="round" stroke-width="1"/>
    </g>
  </g>
</svg>
