<?xml version="1.0" encoding="UTF-8" standalone="no"?>
<!DOCTYPE svg PUBLIC "-//W3C//DTD SVG 1.1//EN" "http://www.w3.org/Graphics/SVG/1.1/DTD/svg11.dtd">
<svg xmlns="http://www.w3.org/2000/svg" xmlns:xl="http://www.w3.org/1999/xlink" version="1.1" viewBox="-1382.5 -414.5 432.4053 449.30915" width="432.4053pt" height="449.30915pt" xmlns:dc="http://purl.org/dc/elements/1.1/">
  <metadata> Produced by OmniGraffle 7.4.2 
    <dc:date>2018-03-14 20:09:56 +0000</dc:date>
  </metadata>
  <defs>
    <radialGradient cx="0" cy="0" r="1" id="Gradient" gradientUnits="userSpaceOnUse">
      <stop offset="0" stop-color="white"/>
      <stop offset="1" stop-color="#dadada"/>
    </radialGradient>
    <radialGradient id="Obj_Gradient" xl:href="#Gradient" gradientTransform="translate(-1167.2408 -386.6) scale(70.26272)"/>
  </defs>
  <g stroke="none" stroke-opacity="1" stroke-dasharray="none" fill="none" fill-opacity="1">
    <title>juventus</title>
    <rect fill="white" width="432.4053" height="449.30915"/>
    <g>
      <title>Capa 1</title>
      <path d="M -1228.9943 -413.40955 L -1220.8289 -410.29184 C -1219.9709 -409.96424 -1219.094 -409.68833 -1218.2031 -409.4656 L -1204.4859 -406.0363 C -1203.3242 -405.74587 -1202.1417 -405.5466 -1200.949 -405.44034 L -1183.4228 -403.8786 C -1182.835 -403.8262 -1182.2454 -403.7965 -1181.6552 -403.78946 L -1166.1763 -403.6052 C -1165.886 -403.60173 -1165.5956 -403.60377 -1165.3053 -403.6113 L -1150.882 -403.98594 C -1150.5212 -403.9953 -1150.1607 -404.01317 -1149.8008 -404.0395 L -1135.4295 -405.09107 C -1134.438 -405.1636 -1133.4523 -405.30036 -1132.4786 -405.50044 L -1120.9056 -407.87845 C -1119.8636 -408.09256 -1118.8377 -408.3787 -1117.8353 -408.7348 L -1106.0834 -412.90986 C -1104.993 -413.29723 -1103.7898 -412.76646 -1103.3408 -411.7 L -1103.3408 -411.7 C -1102.8186 -410.4599 -1102.6666 -409.09515 -1102.9032 -407.77055 L -1103.0836 -406.75986 C -1103.3874 -405.0587 -1103.882 -403.3972 -1104.5579 -401.8068 L -1106.1011 -398.1757 C -1106.6596 -396.8614 -1107.3394 -395.60202 -1108.1315 -394.4138 L -1111.8173 -388.88515 C -1112.5648 -387.7639 -1113.4094 -386.7105 -1114.3414 -385.7371 L -1120.6365 -379.16226 C -1121.5045 -378.2556 -1122.4454 -377.42154 -1123.4495 -376.6684 L -1131.8244 -370.38723 C -1132.7009 -369.7299 -1133.6231 -369.13606 -1134.5842 -368.6102 L -1141.7694 -364.67867 C -1143.0805 -363.96126 -1144.4584 -363.37336 -1145.8836 -362.9233 L -1152.5565 -360.81607 C -1154.2734 -360.2739 -1156.048 -359.9352 -1157.8439 -359.8069 L -1164.7303 -359.31503 C -1165.8026 -359.23844 -1166.879 -359.2371 -1167.9515 -359.3111 L -1176.3877 -359.8929 C -1177.4219 -359.9642 -1178.45 -360.10537 -1179.4652 -360.3154 L -1186.6004 -361.79165 C -1188.5524 -362.1955 -1190.4435 -362.8514 -1192.2264 -363.7428 L -1196.8858 -366.0725 C -1198.1199 -366.6896 -1199.296 -367.41646 -1200.3999 -368.24434 L -1206.0818 -372.5058 C -1206.521 -372.83517 -1206.9482 -373.18013 -1207.3626 -373.54005 L -1213.1178 -378.53797 C -1213.9321 -379.2451 -1214.6956 -380.00865 -1215.4028 -380.82294 L -1219.808 -385.89562 C -1220.5621 -386.764 -1221.25 -387.6877 -1221.866 -388.65895 L -1225.5996 -394.5467 C -1225.9602 -395.1153 -1226.2956 -395.69944 -1226.605 -396.29745 L -1228.2253 -399.43017 C -1228.8345 -400.60785 -1229.3406 -401.836 -1229.7382 -403.1009 L -1231.0184 -407.1744 C -1231.2332 -407.85775 -1231.4159 -408.5508 -1231.566 -409.2512 L -1231.6408 -409.6 C -1231.8354 -410.50843 -1231.7282 -411.45557 -1231.3353 -412.29746 L -1231.2408 -412.5 C -1230.8463 -413.3453 -1229.8658 -413.7423 -1228.9943 -413.40955 Z" fill="url(#Obj_Gradient)"/>
      <path d="M -1228.9943 -413.40955 L -1220.8289 -410.29184 C -1219.9709 -409.96424 -1219.094 -409.68833 -1218.2031 -409.4656 L -1204.4859 -406.0363 C -1203.3242 -405.74587 -1202.1417 -405.5466 -1200.949 -405.44034 L -1183.4228 -403.8786 C -1182.835 -403.8262 -1182.2454 -403.7965 -1181.6552 -403.78946 L -1166.1763 -403.6052 C -1165.886 -403.60173 -1165.5956 -403.60377 -1165.3053 -403.6113 L -1150.882 -403.98594 C -1150.5212 -403.9953 -1150.1607 -404.01317 -1149.8008 -404.0395 L -1135.4295 -405.09107 C -1134.438 -405.1636 -1133.4523 -405.30036 -1132.4786 -405.50044 L -1120.9056 -407.87845 C -1119.8636 -408.09256 -1118.8377 -408.3787 -1117.8353 -408.7348 L -1106.0834 -412.90986 C -1104.993 -413.29723 -1103.7898 -412.76646 -1103.3408 -411.7 L -1103.3408 -411.7 C -1102.8186 -410.4599 -1102.6666 -409.09515 -1102.9032 -407.77055 L -1103.0836 -406.75986 C -1103.3874 -405.0587 -1103.882 -403.3972 -1104.5579 -401.8068 L -1106.1011 -398.1757 C -1106.6596 -396.8614 -1107.3394 -395.60202 -1108.1315 -394.4138 L -1111.8173 -388.88515 C -1112.5648 -387.7639 -1113.4094 -386.7105 -1114.3414 -385.7371 L -1120.6365 -379.16226 C -1121.5045 -378.2556 -1122.4454 -377.42154 -1123.4495 -376.6684 L -1131.8244 -370.38723 C -1132.7009 -369.7299 -1133.6231 -369.13606 -1134.5842 -368.6102 L -1141.7694 -364.67867 C -1143.0805 -363.96126 -1144.4584 -363.37336 -1145.8836 -362.9233 L -1152.5565 -360.81607 C -1154.2734 -360.2739 -1156.048 -359.9352 -1157.8439 -359.8069 L -1164.7303 -359.31503 C -1165.8026 -359.23844 -1166.879 -359.2371 -1167.9515 -359.3111 L -1176.3877 -359.8929 C -1177.4219 -359.9642 -1178.45 -360.10537 -1179.4652 -360.3154 L -1186.6004 -361.79165 C -1188.5524 -362.1955 -1190.4435 -362.8514 -1192.2264 -363.7428 L -1196.8858 -366.0725 C -1198.1199 -366.6896 -1199.296 -367.41646 -1200.3999 -368.24434 L -1206.0818 -372.5058 C -1206.521 -372.83517 -1206.9482 -373.18013 -1207.3626 -373.54005 L -1213.1178 -378.53797 C -1213.9321 -379.2451 -1214.6956 -380.00865 -1215.4028 -380.82294 L -1219.808 -385.89562 C -1220.5621 -386.764 -1221.25 -387.6877 -1221.866 -388.65895 L -1225.5996 -394.5467 C -1225.9602 -395.1153 -1226.2956 -395.69944 -1226.605 -396.29745 L -1228.2253 -399.43017 C -1228.8345 -400.60785 -1229.3406 -401.836 -1229.7382 -403.1009 L -1231.0184 -407.1744 C -1231.2332 -407.85775 -1231.4159 -408.5508 -1231.566 -409.2512 L -1231.6408 -409.6 C -1231.8354 -410.50843 -1231.7282 -411.45557 -1231.3353 -412.29746 L -1231.2408 -412.5 C -1230.8463 -413.3453 -1229.8658 -413.7423 -1228.9943 -413.40955 Z" stroke="#7f8080" stroke-linecap="round" stroke-linejoin="round" stroke-width="1"/>
      <path d="M -1294.67 24.17293 L -1280.9277 26.463303 C -1280.7443 26.493866 -1280.5604 26.52123 -1280.3761 26.545384 L -1252.0225 30.26069 C -1251.776 30.292992 -1251.5287 30.319545 -1251.2809 30.340326 L -1221.038 32.876826 C -1220.7811 32.898373 -1220.5237 32.913707 -1220.2661 32.922816 L -1181.3352 34.29916 C -1181.1468 34.30582 -1180.9584 34.30915 -1180.7699 34.30915 L -1149.3026 34.30915 C -1149.136 34.30915 -1148.9693 34.30655 -1148.8028 34.301344 L -1123.768 33.519007 C -1123.5578 33.512437 -1123.3477 33.50172 -1123.1378 33.486867 L -1101.0901 31.925964 C -1100.9318 31.914756 -1100.7736 31.901193 -1100.6157 31.88528 L -1075.3552 29.33965 C -1075.1535 29.31932 -1074.9522 29.295155 -1074.7514 29.267172 L -1050.9587 25.951796 C -1050.7546 25.92337 -1050.5512 25.891004 -1050.3484 25.85472 L -1041.1526 24.20915 C -1035.8255 23.25588 -1032.1746 18.302233 -1032.841 12.931698 L -1035.0486 -4.858874 C -1035.0513 -4.880191 -1035.0539 -4.9015135 -1035.0564 -4.922841 L -1038.6203 -34.62137 C -1038.6418 -34.80101 -1038.6603 -34.981004 -1038.6758 -35.161274 L -1041.038 -62.72048 C -1041.0477 -62.83406 -1041.0563 -62.947734 -1041.0636 -63.06149 L -1042.4502 -84.65313 C -1042.4518 -84.67828 -1042.4535 -84.70342 -1042.4552 -84.72856 L -1044.0474 -107.81487 C -1044.0509 -107.86552 -1044.0541 -107.9162 -1044.0571 -107.96688 L -1045.2335 -127.76905 C -1045.2462 -127.98356 -1045.2547 -128.19831 -1045.2588 -128.41316 L -1045.651 -149.008 C -1045.6521 -149.06323 -1045.6534 -149.11846 -1045.655 -149.17368 L -1046.2502 -169.40802 C -1046.2518 -169.46324 -1046.2531 -169.51847 -1046.2542 -169.5737 L -1046.6448 -190.08324 C -1046.65 -190.35494 -1046.6483 -190.62672 -1046.6396 -190.89833 L -1046.0537 -209.25794 C -1046.053 -209.27988 -1046.0522 -209.30182 -1046.0514 -209.32376 L -1045.2633 -231.19307 C -1045.2562 -231.39158 -1045.2453 -231.58993 -1045.2308 -231.78803 L -1043.6733 -253.00865 C -1043.6595 -253.19677 -1043.649 -253.38512 -1043.6419 -253.57362 L -1042.8874 -273.47248 C -1042.8642 -274.08423 -1042.806 -274.69414 -1042.7129 -275.2992 L -1039.9739 -293.10272 C -1039.8931 -293.62782 -1039.7862 -294.14857 -1039.6536 -294.66303 L -1035.0253 -312.6207 C -1034.9102 -313.06725 -1034.7759 -313.50864 -1034.6227 -313.9436 L -1028.9019 -330.18325 C -1028.7358 -330.65473 -1028.5477 -331.11816 -1028.3382 -331.57203 L -1022.8067 -343.55707 C -1022.704 -343.77956 -1022.5962 -343.99967 -1022.4834 -344.2172 L -1017.1212 -354.55864 C -1017.0755 -354.6468 -1017.029 -354.7345 -1016.9816 -354.82177 L -1011.7656 -364.43873 C -1011.0283 -365.7981 -1010.0787 -367.031 -1008.9526 -368.09086 L -1008.9526 -368.09086 C -1008.2774 -368.72633 -1008.2452 -369.78883 -1008.8807 -370.464 C -1009.0052 -370.5963 -1009.1503 -370.7075 -1009.3104 -370.79327 L -1012.5246 -372.51513 C -1012.7432 -372.63226 -1012.9646 -372.7443 -1013.1885 -372.85114 L -1021.0424 -376.59963 C -1021.449 -376.7937 -1021.8637 -376.9705 -1022.2852 -377.12956 L -1031.96 -380.78044 C -1032.1551 -380.85404 -1032.3515 -380.92383 -1032.5493 -380.98975 L -1045.2438 -385.22124 C -1045.383 -385.26765 -1045.5228 -385.31214 -1045.6633 -385.3547 L -1058.5468 -389.2588 C -1058.6173 -389.28017 -1058.6877 -389.30203 -1058.758 -389.32437 L -1071.262 -393.3029 C -1071.6556 -393.42816 -1072.0442 -393.5686 -1072.427 -393.72393 L -1084.4029 -398.58373 C -1085.2346 -398.9212 -1086.0364 -399.3281 -1086.7998 -399.8 L -1096.419 -405.74647 C -1096.5747 -405.8427 -1096.7288 -405.94164 -1096.8811 -406.04317 L -1101.7712 -409.30324 C -1102.7526 -409.9575 -1103.6239 -410.7634 -1104.3526 -411.69086 L -1104.3526 -411.69086 C -1104.4582 -411.82526 -1104.6528 -411.8486 -1104.7872 -411.743 C -1104.8899 -411.6623 -1104.9309 -411.52573 -1104.8896 -411.40177 L -1104.7526 -410.99086 C -1104.2934 -409.6131 -1104.1888 -408.1418 -1104.4486 -406.71297 L -1104.8437 -404.5397 C -1105.115 -403.04804 -1105.5968 -401.6025 -1106.2748 -400.24645 L -1107.8071 -397.1818 C -1108.1038 -396.5884 -1108.4372 -396.01405 -1108.8052 -395.46203 L -1112.0089 -390.65647 C -1112.4375 -390.01357 -1112.9121 -389.40256 -1113.429 -388.82824 L -1117.991 -383.7593 C -1118.0321 -383.71367 -1118.0734 -383.6683 -1118.115 -383.62312 L -1124.1092 -377.1151 C -1124.737 -376.43356 -1125.4227 -375.80783 -1126.1588 -375.245 L -1131.1829 -371.40297 C -1131.6291 -371.0618 -1132.0929 -370.74435 -1132.5724 -370.45195 L -1139.0588 -366.49683 C -1139.7205 -366.0934 -1140.4106 -365.73853 -1141.1237 -365.4351 L -1148.239 -362.40726 C -1149.0467 -362.06357 -1149.8813 -361.78693 -1150.7343 -361.58013 L -1154.8134 -360.59127 C -1155.6382 -360.3913 -1156.4777 -360.2573 -1157.3238 -360.1905 L -1163.024 -359.7405 C -1163.4429 -359.7074 -1163.863 -359.69086 -1164.2832 -359.69086 L -1171.3155 -359.69086 C -1172.0726 -359.69086 -1172.8288 -359.7446 -1173.5783 -359.85166 L -1181.5247 -360.98687 C -1182.0097 -361.05616 -1182.4913 -361.1477 -1182.9679 -361.26116 L -1188.9291 -362.6805 C -1190.0746 -362.95324 -1191.1865 -363.3516 -1192.2446 -363.8683 L -1198.5246 -366.9353 C -1199.0096 -367.1722 -1199.4824 -367.43346 -1199.941 -367.71814 L -1204.1529 -370.3324 C -1204.752 -370.7043 -1205.326 -371.1154 -1205.8709 -371.563 L -1210.317 -375.2152 C -1210.5407 -375.39893 -1210.7594 -375.5887 -1210.9728 -375.78433 L -1214.7751 -379.2698 C -1215.2264 -379.6835 -1215.6536 -380.12275 -1216.0545 -380.5854 L -1220.1733 -385.3378 C -1220.4927 -385.7063 -1220.795 -386.08923 -1221.0794 -386.48537 L -1225.5091 -392.65525 C -1226.004 -393.34456 -1226.4433 -394.07215 -1226.8228 -394.83114 L -1229.3992 -399.98406 C -1229.4348 -400.05526 -1229.4699 -400.1267 -1229.5044 -400.19843 L -1230.7526 -402.79086 C -1231.6033 -404.55772 -1231.9588 -406.52226 -1231.7813 -408.4752 L -1231.6011 -410.45747 C -1231.5773 -410.71933 -1231.7703 -410.9509 -1232.0321 -410.9747 C -1232.1945 -410.9895 -1232.3532 -410.9201 -1232.4526 -410.79086 L -1232.4526 -410.79086 C -1233.116 -409.92838 -1233.8962 -409.1623 -1234.7705 -408.5146 L -1238.6671 -405.6283 C -1238.7908 -405.53667 -1238.9158 -405.44684 -1239.042 -405.35883 L -1243.6643 -402.13726 C -1244.851 -401.31015 -1246.1444 -400.6478 -1247.5092 -400.16827 L -1252.1163 -398.54955 C -1252.6069 -398.3772 -1253.0888 -398.181 -1253.5602 -397.96173 L -1260.407 -394.7772 C -1261.1032 -394.4534 -1261.8217 -394.1801 -1262.5571 -393.9595 L -1273.4275 -390.6984 C -1273.4443 -390.69336 -1273.461 -390.6883 -1273.4777 -390.68325 L -1284.4458 -387.35365 C -1284.5837 -387.3118 -1284.721 -387.26807 -1284.8577 -387.2225 L -1297.779 -382.9154 C -1297.828 -382.89904 -1297.8773 -382.8829 -1297.9265 -382.867 L -1309.294 -379.2001 C -1309.9324 -378.99414 -1310.5573 -378.74823 -1311.165 -378.4638 L -1319.0969 -374.75098 C -1319.4672 -374.57763 -1319.8308 -374.39014 -1320.1868 -374.18894 L -1326.1329 -370.8281 C -1327.386 -370.11985 -1327.8276 -368.52993 -1327.1193 -367.2769 C -1327.0422 -367.14046 -1326.953 -367.01125 -1326.8526 -366.89086 L -1325.9885 -365.85392 C -1325.2336 -364.948 -1324.5811 -363.96137 -1324.043 -362.91204 L -1320.9658 -356.9116 C -1320.8904 -356.76445 -1320.8126 -356.61846 -1320.7326 -356.4737 L -1316.7779 -349.3175 C -1316.6944 -349.1664 -1316.6133 -349.014 -1316.5348 -348.8603 L -1312.4265 -340.8223 C -1312.1774 -340.335 -1311.9535 -339.83522 -1311.7556 -339.32497 L -1308.2729 -330.3431 C -1308.2594 -330.30827 -1308.2457 -330.2735 -1308.232 -330.23876 L -1304.6357 -321.1533 C -1304.5137 -320.8451 -1304.4013 -320.53313 -1304.2986 -320.2179 L -1301.6768 -312.16514 C -1301.6607 -312.1156 -1301.6448 -312.066 -1301.6292 -312.01634 L -1298.5571 -302.25807 C -1298.3543 -301.6139 -1298.1925 -300.95755 -1298.0727 -300.29294 L -1296.0874 -289.2835 C -1296.0642 -289.15507 -1296.0426 -289.02638 -1296.0226 -288.89743 L -1294.3167 -277.90405 C -1294.274 -277.62863 -1294.2385 -277.35215 -1294.2102 -277.07487 L -1293.3227 -268.37816 C -1293.276 -267.92017 -1293.249 -267.46038 -1293.242 -267.00006 L -1293.0577 -255.02444 C -1293.0543 -254.80207 -1293.0463 -254.5798 -1293.0336 -254.35777 L -1292.2632 -240.8762 C -1292.2561 -240.75264 -1292.2477 -240.62916 -1292.2377 -240.5058 L -1290.9042 -223.93142 C -1290.8698 -223.50455 -1290.8526 -223.07647 -1290.8526 -222.6482 L -1290.8526 -210.19843 C -1290.8526 -209.9934 -1290.8487 -209.78838 -1290.8408 -209.5835 L -1290.2604 -194.49436 C -1290.2552 -194.3587 -1290.2517 -194.22297 -1290.25 -194.0872 L -1290.0578 -179.29095 C -1290.0543 -179.02426 -1290.0576 -178.75752 -1290.0674 -178.491 L -1290.6417 -162.98684 C -1290.649 -162.78953 -1290.6526 -162.5921 -1290.6526 -162.39466 L -1290.6526 -148.79843 C -1290.6526 -148.5934 -1290.6566 -148.38838 -1290.6644 -148.1835 L -1291.2496 -132.9685 C -1291.2516 -132.91673 -1291.2539 -132.86498 -1291.2564 -132.81324 L -1292.0517 -116.3103 C -1292.0523 -116.29734 -1292.053 -116.28437 -1292.0536 -116.2714 L -1292.8481 -100.58024 C -1292.8511 -100.52065 -1292.8545 -100.46107 -1292.8581 -100.40152 L -1294.047 -81.18079 C -1294.0508 -81.12083 -1294.0548 -81.06089 -1294.0592 -81.00098 L -1295.8423 -56.63143 C -1295.8492 -56.53771 -1295.8569 -56.444056 -1295.8654 -56.35047 L -1297.6513 -36.70566 C -1297.6522 -36.695786 -1297.653 -36.685915 -1297.654 -36.676044 L -1299.4248 -17.591138 C -1299.4433 -17.390964 -1299.4657 -17.191157 -1299.4918 -16.991825 L -1301.4525 -2.0191063 C -1301.5853 -1.0049123 -1301.8544 -.013293944 -1302.2526 .9288756 L -1302.2526 .9288756 C -1302.6502 1.8696217 -1302.8989 2.8665375 -1302.9897 3.8837987 L -1303.7526 12.428876 C -1304.2604 18.115905 -1300.3019 23.23427 -1294.67 24.17293 Z" fill="black"/>
      <path d="M -1294.67 24.17293 L -1280.9277 26.463303 C -1280.7443 26.493866 -1280.5604 26.52123 -1280.3761 26.545384 L -1252.0225 30.26069 C -1251.776 30.292992 -1251.5287 30.319545 -1251.2809 30.340326 L -1221.038 32.876826 C -1220.7811 32.898373 -1220.5237 32.913707 -1220.2661 32.922816 L -1181.3352 34.29916 C -1181.1468 34.30582 -1180.9584 34.30915 -1180.7699 34.30915 L -1149.3026 34.30915 C -1149.136 34.30915 -1148.9693 34.30655 -1148.8028 34.301344 L -1123.768 33.519007 C -1123.5578 33.512437 -1123.3477 33.50172 -1123.1378 33.486867 L -1101.0901 31.925964 C -1100.9318 31.914756 -1100.7736 31.901193 -1100.6157 31.88528 L -1075.3552 29.33965 C -1075.1535 29.31932 -1074.9522 29.295155 -1074.7514 29.267172 L -1050.9587 25.951796 C -1050.7546 25.92337 -1050.5512 25.891004 -1050.3484 25.85472 L -1041.1526 24.20915 C -1035.8255 23.25588 -1032.1746 18.302233 -1032.841 12.931698 L -1035.0486 -4.858874 C -1035.0513 -4.880191 -1035.0539 -4.9015135 -1035.0564 -4.922841 L -1038.6203 -34.62137 C -1038.6418 -34.80101 -1038.6603 -34.981004 -1038.6758 -35.161274 L -1041.038 -62.72048 C -1041.0477 -62.83406 -1041.0563 -62.947734 -1041.0636 -63.06149 L -1042.4502 -84.65313 C -1042.4518 -84.67828 -1042.4535 -84.70342 -1042.4552 -84.72856 L -1044.0474 -107.81487 C -1044.0509 -107.86552 -1044.0541 -107.9162 -1044.0571 -107.96688 L -1045.2335 -127.76905 C -1045.2462 -127.98356 -1045.2547 -128.19831 -1045.2588 -128.41316 L -1045.651 -149.008 C -1045.6521 -149.06323 -1045.6534 -149.11846 -1045.655 -149.17368 L -1046.2502 -169.40802 C -1046.2518 -169.46324 -1046.2531 -169.51847 -1046.2542 -169.5737 L -1046.6448 -190.08324 C -1046.65 -190.35494 -1046.6483 -190.62672 -1046.6396 -190.89833 L -1046.0537 -209.25794 C -1046.053 -209.27988 -1046.0522 -209.30182 -1046.0514 -209.32376 L -1045.2633 -231.19307 C -1045.2562 -231.39158 -1045.2453 -231.58993 -1045.2308 -231.78803 L -1043.6733 -253.00865 C -1043.6595 -253.19677 -1043.649 -253.38512 -1043.6419 -253.57362 L -1042.8874 -273.47248 C -1042.8642 -274.08423 -1042.806 -274.69414 -1042.7129 -275.2992 L -1039.9739 -293.10272 C -1039.8931 -293.62782 -1039.7862 -294.14857 -1039.6536 -294.66303 L -1035.0253 -312.6207 C -1034.9102 -313.06725 -1034.7759 -313.50864 -1034.6227 -313.9436 L -1028.9019 -330.18325 C -1028.7358 -330.65473 -1028.5477 -331.11816 -1028.3382 -331.57203 L -1022.8067 -343.55707 C -1022.704 -343.77956 -1022.5962 -343.99967 -1022.4834 -344.2172 L -1017.1212 -354.55864 C -1017.0755 -354.6468 -1017.029 -354.7345 -1016.9816 -354.82177 L -1011.7656 -364.43873 C -1011.0283 -365.7981 -1010.0787 -367.031 -1008.9526 -368.09086 L -1008.9526 -368.09086 C -1008.2774 -368.72633 -1008.2452 -369.78883 -1008.8807 -370.464 C -1009.0052 -370.5963 -1009.1503 -370.7075 -1009.3104 -370.79327 L -1012.5246 -372.51513 C -1012.7432 -372.63226 -1012.9646 -372.7443 -1013.1885 -372.85114 L -1021.0424 -376.59963 C -1021.449 -376.7937 -1021.8637 -376.9705 -1022.2852 -377.12956 L -1031.96 -380.78044 C -1032.1551 -380.85404 -1032.3515 -380.92383 -1032.5493 -380.98975 L -1045.2438 -385.22124 C -1045.383 -385.26765 -1045.5228 -385.31214 -1045.6633 -385.3547 L -1058.5468 -389.2588 C -1058.6173 -389.28017 -1058.6877 -389.30203 -1058.758 -389.32437 L -1071.262 -393.3029 C -1071.6556 -393.42816 -1072.0442 -393.5686 -1072.427 -393.72393 L -1084.4029 -398.58373 C -1085.2346 -398.9212 -1086.0364 -399.3281 -1086.7998 -399.8 L -1096.419 -405.74647 C -1096.5747 -405.8427 -1096.7288 -405.94164 -1096.8811 -406.04317 L -1101.7712 -409.30324 C -1102.7526 -409.9575 -1103.6239 -410.7634 -1104.3526 -411.69086 L -1104.3526 -411.69086 C -1104.4582 -411.82526 -1104.6528 -411.8486 -1104.7872 -411.743 C -1104.8899 -411.6623 -1104.9309 -411.52573 -1104.8896 -411.40177 L -1104.7526 -410.99086 C -1104.2934 -409.6131 -1104.1888 -408.1418 -1104.4486 -406.71297 L -1104.8437 -404.5397 C -1105.115 -403.04804 -1105.5968 -401.6025 -1106.2748 -400.24645 L -1107.8071 -397.1818 C -1108.1038 -396.5884 -1108.4372 -396.01405 -1108.8052 -395.46203 L -1112.0089 -390.65647 C -1112.4375 -390.01357 -1112.9121 -389.40256 -1113.429 -388.82824 L -1117.991 -383.7593 C -1118.0321 -383.71367 -1118.0734 -383.6683 -1118.115 -383.62312 L -1124.1092 -377.1151 C -1124.737 -376.43356 -1125.4227 -375.80783 -1126.1588 -375.245 L -1131.1829 -371.40297 C -1131.6291 -371.0618 -1132.0929 -370.74435 -1132.5724 -370.45195 L -1139.0588 -366.49683 C -1139.7205 -366.0934 -1140.4106 -365.73853 -1141.1237 -365.4351 L -1148.239 -362.40726 C -1149.0467 -362.06357 -1149.8813 -361.78693 -1150.7343 -361.58013 L -1154.8134 -360.59127 C -1155.6382 -360.3913 -1156.4777 -360.2573 -1157.3238 -360.1905 L -1163.024 -359.7405 C -1163.4429 -359.7074 -1163.863 -359.69086 -1164.2832 -359.69086 L -1171.3155 -359.69086 C -1172.0726 -359.69086 -1172.8288 -359.7446 -1173.5783 -359.85166 L -1181.5247 -360.98687 C -1182.0097 -361.05616 -1182.4913 -361.1477 -1182.9679 -361.26116 L -1188.9291 -362.6805 C -1190.0746 -362.95324 -1191.1865 -363.3516 -1192.2446 -363.8683 L -1198.5246 -366.9353 C -1199.0096 -367.1722 -1199.4824 -367.43346 -1199.941 -367.71814 L -1204.1529 -370.3324 C -1204.752 -370.7043 -1205.326 -371.1154 -1205.8709 -371.563 L -1210.317 -375.2152 C -1210.5407 -375.39893 -1210.7594 -375.5887 -1210.9728 -375.78433 L -1214.7751 -379.2698 C -1215.2264 -379.6835 -1215.6536 -380.12275 -1216.0545 -380.5854 L -1220.1733 -385.3378 C -1220.4927 -385.7063 -1220.795 -386.08923 -1221.0794 -386.48537 L -1225.5091 -392.65525 C -1226.004 -393.34456 -1226.4433 -394.07215 -1226.8228 -394.83114 L -1229.3992 -399.98406 C -1229.4348 -400.05526 -1229.4699 -400.1267 -1229.5044 -400.19843 L -1230.7526 -402.79086 C -1231.6033 -404.55772 -1231.9588 -406.52226 -1231.7813 -408.4752 L -1231.6011 -410.45747 C -1231.5773 -410.71933 -1231.7703 -410.9509 -1232.0321 -410.9747 C -1232.1945 -410.9895 -1232.3532 -410.9201 -1232.4526 -410.79086 L -1232.4526 -410.79086 C -1233.116 -409.92838 -1233.8962 -409.1623 -1234.7705 -408.5146 L -1238.6671 -405.6283 C -1238.7908 -405.53667 -1238.9158 -405.44684 -1239.042 -405.35883 L -1243.6643 -402.13726 C -1244.851 -401.31015 -1246.1444 -400.6478 -1247.5092 -400.16827 L -1252.1163 -398.54955 C -1252.6069 -398.3772 -1253.0888 -398.181 -1253.5602 -397.96173 L -1260.407 -394.7772 C -1261.1032 -394.4534 -1261.8217 -394.1801 -1262.5571 -393.9595 L -1273.4275 -390.6984 C -1273.4443 -390.69336 -1273.461 -390.6883 -1273.4777 -390.68325 L -1284.4458 -387.35365 C -1284.5837 -387.3118 -1284.721 -387.26807 -1284.8577 -387.2225 L -1297.779 -382.9154 C -1297.828 -382.89904 -1297.8773 -382.8829 -1297.9265 -382.867 L -1309.294 -379.2001 C -1309.9324 -378.99414 -1310.5573 -378.74823 -1311.165 -378.4638 L -1319.0969 -374.75098 C -1319.4672 -374.57763 -1319.8308 -374.39014 -1320.1868 -374.18894 L -1326.1329 -370.8281 C -1327.386 -370.11985 -1327.8276 -368.52993 -1327.1193 -367.2769 C -1327.0422 -367.14046 -1326.953 -367.01125 -1326.8526 -366.89086 L -1325.9885 -365.85392 C -1325.2336 -364.948 -1324.5811 -363.96137 -1324.043 -362.91204 L -1320.9658 -356.9116 C -1320.8904 -356.76445 -1320.8126 -356.61846 -1320.7326 -356.4737 L -1316.7779 -349.3175 C -1316.6944 -349.1664 -1316.6133 -349.014 -1316.5348 -348.8603 L -1312.4265 -340.8223 C -1312.1774 -340.335 -1311.9535 -339.83522 -1311.7556 -339.32497 L -1308.2729 -330.3431 C -1308.2594 -330.30827 -1308.2457 -330.2735 -1308.232 -330.23876 L -1304.6357 -321.1533 C -1304.5137 -320.8451 -1304.4013 -320.53313 -1304.2986 -320.2179 L -1301.6768 -312.16514 C -1301.6607 -312.1156 -1301.6448 -312.066 -1301.6292 -312.01634 L -1298.5571 -302.25807 C -1298.3543 -301.6139 -1298.1925 -300.95755 -1298.0727 -300.29294 L -1296.0874 -289.2835 C -1296.0642 -289.15507 -1296.0426 -289.02638 -1296.0226 -288.89743 L -1294.3167 -277.90405 C -1294.274 -277.62863 -1294.2385 -277.35215 -1294.2102 -277.07487 L -1293.3227 -268.37816 C -1293.276 -267.92017 -1293.249 -267.46038 -1293.242 -267.00006 L -1293.0577 -255.02444 C -1293.0543 -254.80207 -1293.0463 -254.5798 -1293.0336 -254.35777 L -1292.2632 -240.8762 C -1292.2561 -240.75264 -1292.2477 -240.62916 -1292.2377 -240.5058 L -1290.9042 -223.93142 C -1290.8698 -223.50455 -1290.8526 -223.07647 -1290.8526 -222.6482 L -1290.8526 -210.19843 C -1290.8526 -209.9934 -1290.8487 -209.78838 -1290.8408 -209.5835 L -1290.2604 -194.49436 C -1290.2552 -194.3587 -1290.2517 -194.22297 -1290.25 -194.0872 L -1290.0578 -179.29095 C -1290.0543 -179.02426 -1290.0576 -178.75752 -1290.0674 -178.491 L -1290.6417 -162.98684 C -1290.649 -162.78953 -1290.6526 -162.5921 -1290.6526 -162.39466 L -1290.6526 -148.79843 C -1290.6526 -148.5934 -1290.6566 -148.38838 -1290.6644 -148.1835 L -1291.2496 -132.9685 C -1291.2516 -132.91673 -1291.2539 -132.86498 -1291.2564 -132.81324 L -1292.0517 -116.3103 C -1292.0523 -116.29734 -1292.053 -116.28437 -1292.0536 -116.2714 L -1292.8481 -100.58024 C -1292.8511 -100.52065 -1292.8545 -100.46107 -1292.8581 -100.40152 L -1294.047 -81.18079 C -1294.0508 -81.12083 -1294.0548 -81.06089 -1294.0592 -81.00098 L -1295.8423 -56.63143 C -1295.8492 -56.53771 -1295.8569 -56.444056 -1295.8654 -56.35047 L -1297.6513 -36.70566 C -1297.6522 -36.695786 -1297.653 -36.685915 -1297.654 -36.676044 L -1299.4248 -17.591138 C -1299.4433 -17.390964 -1299.4657 -17.191157 -1299.4918 -16.991825 L -1301.4525 -2.0191063 C -1301.5853 -1.0049123 -1301.8544 -.013293944 -1302.2526 .9288756 L -1302.2526 .9288756 C -1302.6502 1.8696217 -1302.8989 2.8665375 -1302.9897 3.8837987 L -1303.7526 12.428876 C -1304.2604 18.115905 -1300.3019 23.23427 -1294.67 24.17293 Z" stroke="#7f8080" stroke-linecap="round" stroke-linejoin="round" stroke-width="1"/>
      <path d="M -1382 -262.55385 L -1375.8 -258.15385 L -1367.6 -254.15385 L -1359 -250.55385 L -1350 -246.75385 L -1339 -242.75385 L -1329.6 -239.95385 L -1320.6 -237.35385 L -1311.6 -234.75385 L -1306.2 -233.35385 L -1300.6 -232.35385 L -1298.2 -238.15385 L -1295.6 -243.55385 L -1293.4 -247.55385 L -1290.8 -250.95385 L -1290.6 -259.95385 L -1291.2 -270.95385 L -1293 -281.75385 L -1294.6 -292.15385 L -1297.2 -303.15386 L -1299.6 -312.75386 L -1302.4 -320.75386 L -1305.6 -330.15386 L -1308.4 -337.55386 L -1312 -345.15386 L -1316 -352.75386 L -1320 -360.15386 L -1322.6 -363.75386 L -1326.2 -369.55386 L -1331.6 -365.15386 L -1336.4 -360.35386 L -1341 -354.15386 L -1345.4 -347.95386 L -1350.2 -339.35386 L -1355 -329.95386 L -1359.8 -320.75386 L -1363.4 -312.15386 L -1367.4 -303.15386 L -1370.6 -294.95385 L -1374.4 -285.55385 L -1377.2 -277.55385 L -1380.2 -269.15385 Z" fill="black"/>
      <path d="M -1382 -262.55385 L -1375.8 -258.15385 L -1367.6 -254.15385 L -1359 -250.55385 L -1350 -246.75385 L -1339 -242.75385 L -1329.6 -239.95385 L -1320.6 -237.35385 L -1311.6 -234.75385 L -1306.2 -233.35385 L -1300.6 -232.35385 L -1298.2 -238.15385 L -1295.6 -243.55385 L -1293.4 -247.55385 L -1290.8 -250.95385 L -1290.6 -259.95385 L -1291.2 -270.95385 L -1293 -281.75385 L -1294.6 -292.15385 L -1297.2 -303.15386 L -1299.6 -312.75386 L -1302.4 -320.75386 L -1305.6 -330.15386 L -1308.4 -337.55386 L -1312 -345.15386 L -1316 -352.75386 L -1320 -360.15386 L -1322.6 -363.75386 L -1326.2 -369.55386 L -1331.6 -365.15386 L -1336.4 -360.35386 L -1341 -354.15386 L -1345.4 -347.95386 L -1350.2 -339.35386 L -1355 -329.95386 L -1359.8 -320.75386 L -1363.4 -312.15386 L -1367.4 -303.15386 L -1370.6 -294.95385 L -1374.4 -285.55385 L -1377.2 -277.55385 L -1380.2 -269.15385 Z" stroke="#7f8080" stroke-linecap="round" stroke-linejoin="round" stroke-width="1"/>
      <path d="M -950.5947 -263.49725 L -956.7947 -259.09725 L -964.9947 -255.09725 L -973.5947 -251.49725 L -982.5947 -247.69725 L -993.5947 -243.69725 L -1002.9947 -240.89725 L -1011.9947 -238.29725 L -1020.9947 -235.69725 L -1026.3947 -234.29725 L -1031.9947 -233.29725 L -1034.3947 -239.09725 L -1036.9947 -244.49725 L -1039.1947 -248.49725 L -1041.7947 -251.89725 L -1041.9947 -260.89725 L -1041.3947 -271.89725 L -1039.5947 -282.69725 L -1037.9947 -293.09725 L -1035.3947 -304.09725 L -1032.9947 -313.69725 L -1030.1947 -321.69725 L -1026.9947 -331.09725 L -1024.1947 -338.49725 L -1020.5947 -346.09725 L -1016.5947 -353.69725 L -1012.5947 -361.09725 L -1009.9947 -364.69725 L -1006.3947 -370.49725 L -1000.9947 -366.09725 L -996.1947 -361.29725 L -991.5947 -355.09725 L -987.1947 -348.89725 L -982.3947 -340.29725 L -977.5947 -330.89725 L -972.7947 -321.69725 L -969.1947 -313.09725 L -965.1947 -304.09725 L -961.9947 -295.89725 L -958.1947 -286.49725 L -955.3947 -278.49725 L -952.3947 -270.09725 Z" fill="black"/>
      <path d="M -950.5947 -263.49725 L -956.7947 -259.09725 L -964.9947 -255.09725 L -973.5947 -251.49725 L -982.5947 -247.69725 L -993.5947 -243.69725 L -1002.9947 -240.89725 L -1011.9947 -238.29725 L -1020.9947 -235.69725 L -1026.3947 -234.29725 L -1031.9947 -233.29725 L -1034.3947 -239.09725 L -1036.9947 -244.49725 L -1039.1947 -248.49725 L -1041.7947 -251.89725 L -1041.9947 -260.89725 L -1041.3947 -271.89725 L -1039.5947 -282.69725 L -1037.9947 -293.09725 L -1035.3947 -304.09725 L -1032.9947 -313.69725 L -1030.1947 -321.69725 L -1026.9947 -331.09725 L -1024.1947 -338.49725 L -1020.5947 -346.09725 L -1016.5947 -353.69725 L -1012.5947 -361.09725 L -1009.9947 -364.69725 L -1006.3947 -370.49725 L -1000.9947 -366.09725 L -996.1947 -361.29725 L -991.5947 -355.09725 L -987.1947 -348.89725 L -982.3947 -340.29725 L -977.5947 -330.89725 L -972.7947 -321.69725 L -969.1947 -313.09725 L -965.1947 -304.09725 L -961.9947 -295.89725 L -958.1947 -286.49725 L -955.3947 -278.49725 L -952.3947 -270.09725 Z" stroke="#7f8080" stroke-linecap="round" stroke-linejoin="round" stroke-width="1"/>
      <path d="M -1382 -262.55385 L -1375.8 -258.15385 L -1367.6 -254.15385 L -1359 -250.55385 L -1350 -246.75385 L -1339 -242.75385 L -1329.6 -239.95385 L -1320.6 -237.35385 L -1311.6 -234.75385 L -1306.2 -233.35385 L -1300.6 -232.35385 L -1297.6 -238.75385 L -1301.4 -239.55385 L -1306.2 -240.75385 L -1311.8 -241.95385 L -1317.8 -243.75385 L -1322.4 -245.15385 L -1326.6 -246.35385 L -1331.2 -248.35385 L -1335.8 -249.95385 L -1340.6 -251.95385 L -1344.6 -253.35385 L -1349.8 -255.55385 L -1354.4 -257.15385 L -1359.2 -259.35385 L -1364 -261.15385 L -1368 -263.15385 L -1372.4 -265.35385 L -1376.8 -267.55385 L -1380.2 -269.15385 Z" fill="black"/>
      <path d="M -1382 -262.55385 L -1375.8 -258.15385 L -1367.6 -254.15385 L -1359 -250.55385 L -1350 -246.75385 L -1339 -242.75385 L -1329.6 -239.95385 L -1320.6 -237.35385 L -1311.6 -234.75385 L -1306.2 -233.35385 L -1300.6 -232.35385 L -1297.6 -238.75385 L -1301.4 -239.55385 L -1306.2 -240.75385 L -1311.8 -241.95385 L -1317.8 -243.75385 L -1322.4 -245.15385 L -1326.6 -246.35385 L -1331.2 -248.35385 L -1335.8 -249.95385 L -1340.6 -251.95385 L -1344.6 -253.35385 L -1349.8 -255.55385 L -1354.4 -257.15385 L -1359.2 -259.35385 L -1364 -261.15385 L -1368 -263.15385 L -1372.4 -265.35385 L -1376.8 -267.55385 L -1380.2 -269.15385 Z" stroke="#7f8080" stroke-linecap="round" stroke-linejoin="round" stroke-width="1"/>
      <path d="M -950.5947 -263.49725 L -956.7947 -259.09725 L -964.9947 -255.09725 L -973.5947 -251.49725 L -982.5947 -247.69725 L -993.5947 -243.69725 L -1002.9947 -240.89725 L -1011.9947 -238.29725 L -1020.9947 -235.69725 L -1026.3947 -234.29725 L -1031.9947 -233.29725 L -1034.9947 -239.69725 L -1031.1947 -240.49725 L -1026.3947 -241.69725 L -1020.7947 -242.89725 L -1014.7947 -244.69725 L -1010.1947 -246.09725 L -1005.9947 -247.29725 L -1001.3947 -249.29725 L -996.7947 -250.89725 L -991.9947 -252.89725 L -987.9947 -254.29725 L -982.7947 -256.49725 L -978.1947 -258.09725 L -973.3947 -260.29725 L -968.5947 -262.09725 L -964.5947 -264.09725 L -960.1947 -266.29725 L -955.7947 -268.49725 L -952.3947 -270.09725 Z" fill="black"/>
      <path d="M -950.5947 -263.49725 L -956.7947 -259.09725 L -964.9947 -255.09725 L -973.5947 -251.49725 L -982.5947 -247.69725 L -993.5947 -243.69725 L -1002.9947 -240.89725 L -1011.9947 -238.29725 L -1020.9947 -235.69725 L -1026.3947 -234.29725 L -1031.9947 -233.29725 L -1034.9947 -239.69725 L -1031.1947 -240.49725 L -1026.3947 -241.69725 L -1020.7947 -242.89725 L -1014.7947 -244.69725 L -1010.1947 -246.09725 L -1005.9947 -247.29725 L -1001.3947 -249.29725 L -996.7947 -250.89725 L -991.9947 -252.89725 L -987.9947 -254.29725 L -982.7947 -256.49725 L -978.1947 -258.09725 L -973.3947 -260.29725 L -968.5947 -262.09725 L -964.5947 -264.09725 L -960.1947 -266.29725 L -955.7947 -268.49725 L -952.3947 -270.09725 Z" stroke="#7f8080" stroke-linecap="round" stroke-linejoin="round" stroke-width="1"/>
      <path d="M -1231.4279 -412.0362 L -1236.157 -407.98264 C -1237.3074 -406.99662 -1238.5524 -406.1267 -1239.8738 -405.3855 L -1242.4004 -403.96835 C -1243.8356 -403.1634 -1244.4164 -401.39425 -1243.7376 -399.89527 L -1242.72 -397.64803 C -1242.5984 -397.37954 -1242.4717 -397.1134 -1242.3399 -396.8498 L -1240.5376 -393.24526 L -1238.0506 -388.2713 C -1237.7088 -387.5877 -1237.3332 -386.92157 -1236.925 -386.27537 L -1234.5987 -382.5919 C -1234.1583 -381.89465 -1233.6807 -381.2216 -1233.168 -380.5756 L -1229.7574 -376.27815 C -1229.2113 -375.59013 -1228.6263 -374.93394 -1228.0052 -374.31283 L -1223.3391 -369.6468 C -1222.9383 -369.2459 -1222.5227 -368.86 -1222.0933 -368.4898 L -1217.5298 -364.55574 C -1217.1351 -364.21552 -1216.729 -363.8888 -1216.3122 -363.57617 L -1212.3372 -360.59497 C -1211.6713 -360.09553 -1210.9788 -359.6326 -1210.2627 -359.20826 L -1206.1296 -356.75904 C -1206.0016 -356.6832 -1205.8729 -356.6086 -1205.7434 -356.53523 L -1201.0459 -353.8733 C -1200.3076 -353.45493 -1199.5467 -353.07774 -1198.7667 -352.74347 L -1195.217 -351.2221 C -1194.631 -350.971 -1194.0348 -350.74433 -1193.43 -350.54274 L -1188.4119 -348.87003 C -1187.1647 -348.4543 -1185.8841 -348.14624 -1184.5842 -347.9493 L -1180.4854 -347.32826 C -1180.1202 -347.27294 -1179.7539 -347.2264 -1179.3865 -347.18874 L -1172.5054 -346.483 C -1172.2602 -346.45784 -1172.0147 -346.43664 -1171.7688 -346.4194 L -1167.2417 -346.1017 C -1166.7058 -346.0641 -1166.1688 -346.04527 -1165.6316 -346.04527 L -1162.3695 -346.04526 C -1161.4158 -346.04526 -1160.463 -346.1046 -1159.5167 -346.22287 L -1155.528 -346.72146 C -1154.868 -346.80396 -1154.212 -346.91504 -1153.5616 -347.0544 L -1147.4796 -348.3577 C -1146.5857 -348.54924 -1145.7041 -348.7939 -1144.8393 -349.0904 L -1140.3305 -350.6363 C -1139.5358 -350.90873 -1138.7567 -351.2245 -1137.9966 -351.5822 L -1133.1632 -353.85674 C -1132.613 -354.11565 -1132.0733 -354.3963 -1131.5454 -354.69798 L -1127.7775 -356.85104 C -1127.0847 -357.24692 -1126.413 -357.6786 -1125.765 -358.1443 L -1121.089 -361.50525 C -1120.5883 -361.8651 -1120.1022 -362.24497 -1119.6321 -362.6439 L -1114.3112 -367.15856 C -1113.9289 -367.48294 -1113.5573 -367.81974 -1113.197 -368.1684 L -1108.4978 -372.71604 C -1107.8582 -373.335 -1107.2551 -373.99056 -1106.6915 -374.67942 L -1102.8982 -379.31566 C -1102.3915 -379.93497 -1101.9174 -380.5803 -1101.478 -381.24904 L -1097.8608 -386.75344 C -1097.6454 -387.08127 -1097.4384 -387.41456 -1097.24 -387.753 L -1094.7169 -392.05708 C -1094.331 -392.71546 -1093.978 -393.39265 -1093.6594 -394.0861 L -1091.5407 -398.6974 C -1091.0078 -399.85715 -1090.6367 -401.08456 -1090.4376 -402.34526 L -1090.4376 -402.34526 C -1090.2593 -403.47453 -1090.8386 -404.58797 -1091.8657 -405.0901 L -1097.1591 -407.678 C -1098.4736 -408.32063 -1099.7082 -409.11514 -1100.8376 -410.04526 L -1101.2436 -410.37963 C -1102.088 -411.07496 -1102.7114 -412.00126 -1103.0376 -413.04526 L -1103.0376 -413.04526 C -1103.0843 -413.1946 -1103.2431 -413.2778 -1103.3925 -413.23114 C -1103.5075 -413.1952 -1103.5872 -413.0903 -1103.5911 -412.9698 L -1103.7003 -409.5469 C -1103.791 -406.7038 -1104.4084 -403.90224 -1105.521 -401.28433 L -1106.398 -399.22096 C -1106.9565 -397.9067 -1107.6363 -396.6473 -1108.4284 -395.4591 L -1112.1142 -389.9304 C -1112.8617 -388.80915 -1113.7063 -387.75575 -1114.6382 -386.78238 L -1120.9333 -380.20753 C -1121.8014 -379.30087 -1122.7422 -378.4668 -1123.7464 -377.71367 L -1132.1213 -371.4325 C -1132.9977 -370.7752 -1133.92 -370.18133 -1134.881 -369.65546 L -1142.0662 -365.72394 C -1143.3774 -365.00653 -1144.7553 -364.41863 -1146.1805 -363.96857 L -1152.8534 -361.86133 C -1154.5703 -361.31916 -1156.3449 -360.98046 -1158.1407 -360.8522 L -1165.0272 -360.3603 C -1166.0995 -360.2837 -1167.1758 -360.2824 -1168.2483 -360.35635 L -1176.6846 -360.93816 C -1177.7187 -361.0095 -1178.7469 -361.15064 -1179.762 -361.36067 L -1186.8973 -362.8369 C -1188.8492 -363.24077 -1190.7404 -363.89665 -1192.5232 -364.7881 L -1197.1827 -367.1178 C -1198.4168 -367.73485 -1199.5929 -368.46173 -1200.6967 -369.2896 L -1206.3787 -373.5511 C -1206.8178 -373.88043 -1207.245 -374.2254 -1207.6595 -374.5853 L -1213.4147 -379.58324 C -1214.229 -380.2904 -1214.9925 -381.0539 -1215.6996 -381.8682 L -1220.1049 -386.9409 C -1220.859 -387.80925 -1221.5469 -388.73295 -1222.1628 -389.7042 L -1225.8965 -395.592 C -1226.257 -396.16056 -1226.5925 -396.7447 -1226.9018 -397.3427 L -1228.5222 -400.47544 C -1229.1313 -401.6531 -1229.6375 -402.88126 -1230.035 -404.14615 L -1231.3153 -408.21964 C -1231.53 -408.903 -1231.7128 -409.59605 -1231.8629 -410.2965 L -1232.0883 -411.34843 C -1232.1734 -411.74544 -1231.947 -412.1431 -1231.5622 -412.27263 L -1231.5622 -412.27263 C -1231.4897 -412.29704 -1231.4112 -412.25805 -1231.3868 -412.18556 C -1231.3687 -412.13205 -1231.385 -412.07296 -1231.4279 -412.0362 Z" fill="black"/>
      <path d="M -1231.4279 -412.0362 L -1236.157 -407.98264 C -1237.3074 -406.99662 -1238.5524 -406.1267 -1239.8738 -405.3855 L -1242.4004 -403.96835 C -1243.8356 -403.1634 -1244.4164 -401.39425 -1243.7376 -399.89527 L -1242.72 -397.64803 C -1242.5984 -397.37954 -1242.4717 -397.1134 -1242.3399 -396.8498 L -1240.5376 -393.24526 L -1238.0506 -388.2713 C -1237.7088 -387.5877 -1237.3332 -386.92157 -1236.925 -386.27537 L -1234.5987 -382.5919 C -1234.1583 -381.89465 -1233.6807 -381.2216 -1233.168 -380.5756 L -1229.7574 -376.27815 C -1229.2113 -375.59013 -1228.6263 -374.93394 -1228.0052 -374.31283 L -1223.3391 -369.6468 C -1222.9383 -369.2459 -1222.5227 -368.86 -1222.0933 -368.4898 L -1217.5298 -364.55574 C -1217.1351 -364.21552 -1216.729 -363.8888 -1216.3122 -363.57617 L -1212.3372 -360.59497 C -1211.6713 -360.09553 -1210.9788 -359.6326 -1210.2627 -359.20826 L -1206.1296 -356.75904 C -1206.0016 -356.6832 -1205.8729 -356.6086 -1205.7434 -356.53523 L -1201.0459 -353.8733 C -1200.3076 -353.45493 -1199.5467 -353.07774 -1198.7667 -352.74347 L -1195.217 -351.2221 C -1194.631 -350.971 -1194.0348 -350.74433 -1193.43 -350.54274 L -1188.4119 -348.87003 C -1187.1647 -348.4543 -1185.8841 -348.14624 -1184.5842 -347.9493 L -1180.4854 -347.32826 C -1180.1202 -347.27294 -1179.7539 -347.2264 -1179.3865 -347.18874 L -1172.5054 -346.483 C -1172.2602 -346.45784 -1172.0147 -346.43664 -1171.7688 -346.4194 L -1167.2417 -346.1017 C -1166.7058 -346.0641 -1166.1688 -346.04527 -1165.6316 -346.04527 L -1162.3695 -346.04526 C -1161.4158 -346.04526 -1160.463 -346.1046 -1159.5167 -346.22287 L -1155.528 -346.72146 C -1154.868 -346.80396 -1154.212 -346.91504 -1153.5616 -347.0544 L -1147.4796 -348.3577 C -1146.5857 -348.54924 -1145.7041 -348.7939 -1144.8393 -349.0904 L -1140.3305 -350.6363 C -1139.5358 -350.90873 -1138.7567 -351.2245 -1137.9966 -351.5822 L -1133.1632 -353.85674 C -1132.613 -354.11565 -1132.0733 -354.3963 -1131.5454 -354.69798 L -1127.7775 -356.85104 C -1127.0847 -357.24692 -1126.413 -357.6786 -1125.765 -358.1443 L -1121.089 -361.50525 C -1120.5883 -361.8651 -1120.1022 -362.24497 -1119.6321 -362.6439 L -1114.3112 -367.15856 C -1113.9289 -367.48294 -1113.5573 -367.81974 -1113.197 -368.1684 L -1108.4978 -372.71604 C -1107.8582 -373.335 -1107.2551 -373.99056 -1106.6915 -374.67942 L -1102.8982 -379.31566 C -1102.3915 -379.93497 -1101.9174 -380.5803 -1101.478 -381.24904 L -1097.8608 -386.75344 C -1097.6454 -387.08127 -1097.4384 -387.41456 -1097.24 -387.753 L -1094.7169 -392.05708 C -1094.331 -392.71546 -1093.978 -393.39265 -1093.6594 -394.0861 L -1091.5407 -398.6974 C -1091.0078 -399.85715 -1090.6367 -401.08456 -1090.4376 -402.34526 L -1090.4376 -402.34526 C -1090.2593 -403.47453 -1090.8386 -404.58797 -1091.8657 -405.0901 L -1097.1591 -407.678 C -1098.4736 -408.32063 -1099.7082 -409.11514 -1100.8376 -410.04526 L -1101.2436 -410.37963 C -1102.088 -411.07496 -1102.7114 -412.00126 -1103.0376 -413.04526 L -1103.0376 -413.04526 C -1103.0843 -413.1946 -1103.2431 -413.2778 -1103.3925 -413.23114 C -1103.5075 -413.1952 -1103.5872 -413.0903 -1103.5911 -412.9698 L -1103.7003 -409.5469 C -1103.791 -406.7038 -1104.4084 -403.90224 -1105.521 -401.28433 L -1106.398 -399.22096 C -1106.9565 -397.9067 -1107.6363 -396.6473 -1108.4284 -395.4591 L -1112.1142 -389.9304 C -1112.8617 -388.80915 -1113.7063 -387.75575 -1114.6382 -386.78238 L -1120.9333 -380.20753 C -1121.8014 -379.30087 -1122.7422 -378.4668 -1123.7464 -377.71367 L -1132.1213 -371.4325 C -1132.9977 -370.7752 -1133.92 -370.18133 -1134.881 -369.65546 L -1142.0662 -365.72394 C -1143.3774 -365.00653 -1144.7553 -364.41863 -1146.1805 -363.96857 L -1152.8534 -361.86133 C -1154.5703 -361.31916 -1156.3449 -360.98046 -1158.1407 -360.8522 L -1165.0272 -360.3603 C -1166.0995 -360.2837 -1167.1758 -360.2824 -1168.2483 -360.35635 L -1176.6846 -360.93816 C -1177.7187 -361.0095 -1178.7469 -361.15064 -1179.762 -361.36067 L -1186.8973 -362.8369 C -1188.8492 -363.24077 -1190.7404 -363.89665 -1192.5232 -364.7881 L -1197.1827 -367.1178 C -1198.4168 -367.73485 -1199.5929 -368.46173 -1200.6967 -369.2896 L -1206.3787 -373.5511 C -1206.8178 -373.88043 -1207.245 -374.2254 -1207.6595 -374.5853 L -1213.4147 -379.58324 C -1214.229 -380.2904 -1214.9925 -381.0539 -1215.6996 -381.8682 L -1220.1049 -386.9409 C -1220.859 -387.80925 -1221.5469 -388.73295 -1222.1628 -389.7042 L -1225.8965 -395.592 C -1226.257 -396.16056 -1226.5925 -396.7447 -1226.9018 -397.3427 L -1228.5222 -400.47544 C -1229.1313 -401.6531 -1229.6375 -402.88126 -1230.035 -404.14615 L -1231.3153 -408.21964 C -1231.53 -408.903 -1231.7128 -409.59605 -1231.8629 -410.2965 L -1232.0883 -411.34843 C -1232.1734 -411.74544 -1231.947 -412.1431 -1231.5622 -412.27263 L -1231.5622 -412.27263 C -1231.4897 -412.29704 -1231.4112 -412.25805 -1231.3868 -412.18556 C -1231.3687 -412.13205 -1231.385 -412.07296 -1231.4279 -412.0362 Z" stroke="#7f8080" stroke-linecap="round" stroke-linejoin="round" stroke-width="1"/>
      <path d="M -1231.9408 -412.2441 L -1226.5408 -412.8441 L -1219.7408 -409.4441 L -1214.7408 -407.6441 L -1206.3408 -405.8441 L -1197.9408 -404.8441 L -1189.9408 -403.8441 L -1182.3408 -403.6441 L -1173.7408 -403.2441 L -1162.1408 -403.4441 L -1153.7408 -403.8441 L -1144.3408 -404.4441 L -1135.9408 -405.2441 L -1126.7408 -406.6441 L -1118.5408 -408.8441 L -1112.7408 -410.6441 L -1107.1408 -413.2441 L -1104.3408 -412.0441 L -1103.9408 -406.4441 L -1106.7408 -398.4441 L -1112.1408 -395.6441 L -1122.7408 -392.4441 L -1134.1408 -390.0441 L -1145.3408 -389.2441 L -1157.7408 -388.2441 L -1168.1408 -388.2441 L -1177.5408 -388.2441 L -1189.1408 -388.8441 L -1200.3408 -389.6441 L -1210.9408 -391.8441 L -1219.5408 -393.8441 L -1225.7408 -396.6441 L -1227.7408 -398.2441 L -1230.9408 -405.8441 Z" fill="black"/>
      <path d="M -1231.9408 -412.2441 L -1226.5408 -412.8441 L -1219.7408 -409.4441 L -1214.7408 -407.6441 L -1206.3408 -405.8441 L -1197.9408 -404.8441 L -1189.9408 -403.8441 L -1182.3408 -403.6441 L -1173.7408 -403.2441 L -1162.1408 -403.4441 L -1153.7408 -403.8441 L -1144.3408 -404.4441 L -1135.9408 -405.2441 L -1126.7408 -406.6441 L -1118.5408 -408.8441 L -1112.7408 -410.6441 L -1107.1408 -413.2441 L -1104.3408 -412.0441 L -1103.9408 -406.4441 L -1106.7408 -398.4441 L -1112.1408 -395.6441 L -1122.7408 -392.4441 L -1134.1408 -390.0441 L -1145.3408 -389.2441 L -1157.7408 -388.2441 L -1168.1408 -388.2441 L -1177.5408 -388.2441 L -1189.1408 -388.8441 L -1200.3408 -389.6441 L -1210.9408 -391.8441 L -1219.5408 -393.8441 L -1225.7408 -396.6441 L -1227.7408 -398.2441 L -1230.9408 -405.8441 Z" stroke="#7f8080" stroke-linecap="round" stroke-linejoin="round" stroke-width="1"/>
      <path d="M -1302.1868 13.200009 L -1302.1868 13.200009 C -1302.2525 13.725486 -1302.1896 14.259053 -1302.0037 14.754902 L -1301.3527 16.490924 C -1301.176 16.962272 -1300.9489 17.413179 -1300.6754 17.835818 L -1299.7076 19.33153 C -1299.1666 20.167557 -1298.4535 20.878546 -1297.6159 21.417021 L -1296.5378 22.110053 C -1296.2376 22.303074 -1295.923 22.472847 -1295.5968 22.617885 L -1294.28 23.203486 C -1293.6835 23.46876 -1293.0528 23.64928 -1292.4062 23.739796 L -1283.3958 25.001255 C -1283.3858 25.002654 -1283.3758 25.004032 -1283.3658 25.005388 L -1271.6498 26.593998 C -1271.6038 26.600235 -1271.5577 26.606015 -1271.5116 26.611336 L -1261.2287 27.797828 C -1261.1968 27.801512 -1261.1648 27.804976 -1261.1328 27.80822 L -1247.4228 29.199096 C -1247.3948 29.201935 -1247.3668 29.204605 -1247.3388 29.207106 L -1236.2335 30.19865 C -1236.1984 30.201786 -1236.1632 30.204656 -1236.128 30.20726 L -1225.4415 30.998856 C -1225.401 31.001855 -1225.3605 31.0045 -1225.32 31.006795 L -1214.812 31.601586 C -1214.7912 31.602765 -1214.7704 31.604036 -1214.7496 31.6054 L -1202.7068 32.39509 C -1202.6228 32.4006 -1202.5387 32.40459 -1202.4546 32.407067 L -1189.0074 32.80257 C -1188.9897 32.803093 -1188.9719 32.803683 -1188.9542 32.80434 L -1178.3103 33.198558 C -1178.224 33.201755 -1178.1376 33.203354 -1178.0512 33.203354 L -1167.4422 33.203354 C -1167.4013 33.203354 -1167.3603 33.203713 -1167.3194 33.20443 L -1156.233 33.39893 C -1156.0649 33.40188 -1155.8968 33.39877 -1155.729 33.389617 L -1145.1077 32.810277 C -1145.0231 32.80566 -1144.9384 32.802584 -1144.8537 32.801043 L -1134.0891 32.605324 C -1134.0169 32.60401 -1133.9447 32.60158 -1133.8726 32.59803 L -1121.8539 32.00695 C -1121.8052 32.004553 -1121.7564 32.001645 -1121.7078 31.99823 L -1110.4677 31.209453 C -1110.4098 31.205387 -1110.3519 31.2006 -1110.294 31.195094 L -1097.8835 30.013134 C -1097.815 30.006614 -1097.7465 30.001104 -1097.6779 29.996604 L -1085.7458 29.214176 C -1085.6358 29.206962 -1085.526 29.19715 -1085.4164 29.18475 L -1075.0041 28.005992 C -1074.9886 28.004233 -1074.973 28.002422 -1074.9575 28.00056 L -1065.0098 26.806834 C -1064.9905 26.804514 -1064.9711 26.802113 -1064.9518 26.799632 L -1051.116 25.022093 C -1051.0188 25.009603 -1050.9219 24.995073 -1050.8253 24.978513 L -1044.2718 23.855058 C -1044.0708 23.820607 -1043.8685 23.794953 -1043.6653 23.77817 L -1040.4329 23.511195 C -1039.5437 23.437748 -1038.6767 23.194972 -1037.8786 22.79594 L -1036.3924 22.052794 C -1035.7918 21.7525 -1035.2375 21.367352 -1034.7466 20.90919 L -1033.4115 19.66308 C -1032.8047 19.096715 -1032.3493 18.387474 -1032.0868 17.600009 L -1031.792 16.715523 C -1031.7219 16.505299 -1031.6618 16.291866 -1031.612 16.075945 L -1031.1423 14.040556 C -1031.1071 13.887924 -1031.1405 13.727524 -1031.2338 13.601681 L -1031.2338 13.601681 C -1031.3241 13.479802 -1031.4748 13.418305 -1031.6246 13.44214 L -1040.1045 14.791209 C -1040.1553 14.799305 -1040.2061 14.807963 -1040.2568 14.817182 L -1053.2416 17.178048 C -1053.3344 17.194917 -1053.4275 17.20991 -1053.5209 17.223016 L -1064.7506 18.799112 C -1064.7707 18.80194 -1064.7909 18.804856 -1064.811 18.80786 L -1077.9336 20.766454 C -1078.0983 20.791046 -1078.2639 20.809748 -1078.43 20.822525 L -1091.1548 21.801357 C -1091.1721 21.802688 -1091.1895 21.803955 -1091.2068 21.805158 L -1105.5469 22.801 C -1105.5695 22.80257 -1105.5921 22.804028 -1105.6147 22.805378 L -1118.918 23.599602 C -1118.9598 23.602103 -1119.0018 23.604228 -1119.0437 23.605975 L -1133.2352 24.197285 C -1133.3322 24.20133 -1133.4294 24.203354 -1133.5266 24.203354 L -1146.7808 24.203354 L -1159.3225 24.203354 C -1159.3614 24.203354 -1159.4002 24.203678 -1159.4391 24.204326 L -1171.1975 24.4003 C -1171.3197 24.402335 -1171.4419 24.401172 -1171.564 24.39681 L -1182.3976 24.009897 C -1182.5197 24.005536 -1182.6419 24.004372 -1182.7641 24.00641 L -1194.4787 24.201653 C -1194.5468 24.202787 -1194.6148 24.202929 -1194.6829 24.202078 L -1210.3852 24.0058 C -1210.5156 24.00417 -1210.6459 23.998896 -1210.776 23.989984 L -1225.0858 23.009862 C -1225.1491 23.005524 -1225.2124 23.000323 -1225.2756 22.994262 L -1239.7666 21.604714 C -1239.776 21.603807 -1239.7855 21.602881 -1239.795 21.601936 L -1253.607 20.220733 C -1253.7228 20.209149 -1253.8384 20.194676 -1253.9535 20.17733 L -1268.2627 18.021156 C -1268.3414 18.009289 -1268.4204 17.998766 -1268.4995 17.989594 L -1282.0194 16.422065 C -1282.127 16.409593 -1282.2343 16.394625 -1282.3411 16.377175 L -1291.7332 14.843773 C -1291.8982 14.816835 -1292.0622 14.783996 -1292.2248 14.745318 L -1301.3024 12.586538 C -1301.6908 12.494191 -1302.0804 12.734123 -1302.1728 13.122441 C -1302.1788 13.148023 -1302.1835 13.173917 -1302.1868 13.200009 Z" fill="black"/>
      <path d="M -1302.1868 13.200009 L -1302.1868 13.200009 C -1302.2525 13.725486 -1302.1896 14.259053 -1302.0037 14.754902 L -1301.3527 16.490924 C -1301.176 16.962272 -1300.9489 17.413179 -1300.6754 17.835818 L -1299.7076 19.33153 C -1299.1666 20.167557 -1298.4535 20.878546 -1297.6159 21.417021 L -1296.5378 22.110053 C -1296.2376 22.303074 -1295.923 22.472847 -1295.5968 22.617885 L -1294.28 23.203486 C -1293.6835 23.46876 -1293.0528 23.64928 -1292.4062 23.739796 L -1283.3958 25.001255 C -1283.3858 25.002654 -1283.3758 25.004032 -1283.3658 25.005388 L -1271.6498 26.593998 C -1271.6038 26.600235 -1271.5577 26.606015 -1271.5116 26.611336 L -1261.2287 27.797828 C -1261.1968 27.801512 -1261.1648 27.804976 -1261.1328 27.80822 L -1247.4228 29.199096 C -1247.3948 29.201935 -1247.3668 29.204605 -1247.3388 29.207106 L -1236.2335 30.19865 C -1236.1984 30.201786 -1236.1632 30.204656 -1236.128 30.20726 L -1225.4415 30.998856 C -1225.401 31.001855 -1225.3605 31.0045 -1225.32 31.006795 L -1214.812 31.601586 C -1214.7912 31.602765 -1214.7704 31.604036 -1214.7496 31.6054 L -1202.7068 32.39509 C -1202.6228 32.4006 -1202.5387 32.40459 -1202.4546 32.407067 L -1189.0074 32.80257 C -1188.9897 32.803093 -1188.9719 32.803683 -1188.9542 32.80434 L -1178.3103 33.198558 C -1178.224 33.201755 -1178.1376 33.203354 -1178.0512 33.203354 L -1167.4422 33.203354 C -1167.4013 33.203354 -1167.3603 33.203713 -1167.3194 33.20443 L -1156.233 33.39893 C -1156.0649 33.40188 -1155.8968 33.39877 -1155.729 33.389617 L -1145.1077 32.810277 C -1145.0231 32.80566 -1144.9384 32.802584 -1144.8537 32.801043 L -1134.0891 32.605324 C -1134.0169 32.60401 -1133.9447 32.60158 -1133.8726 32.59803 L -1121.8539 32.00695 C -1121.8052 32.004553 -1121.7564 32.001645 -1121.7078 31.99823 L -1110.4677 31.209453 C -1110.4098 31.205387 -1110.3519 31.2006 -1110.294 31.195094 L -1097.8835 30.013134 C -1097.815 30.006614 -1097.7465 30.001104 -1097.6779 29.996604 L -1085.7458 29.214176 C -1085.6358 29.206962 -1085.526 29.19715 -1085.4164 29.18475 L -1075.0041 28.005992 C -1074.9886 28.004233 -1074.973 28.002422 -1074.9575 28.00056 L -1065.0098 26.806834 C -1064.9905 26.804514 -1064.9711 26.802113 -1064.9518 26.799632 L -1051.116 25.022093 C -1051.0188 25.009603 -1050.9219 24.995073 -1050.8253 24.978513 L -1044.2718 23.855058 C -1044.0708 23.820607 -1043.8685 23.794953 -1043.6653 23.77817 L -1040.4329 23.511195 C -1039.5437 23.437748 -1038.6767 23.194972 -1037.8786 22.79594 L -1036.3924 22.052794 C -1035.7918 21.7525 -1035.2375 21.367352 -1034.7466 20.90919 L -1033.4115 19.66308 C -1032.8047 19.096715 -1032.3493 18.387474 -1032.0868 17.600009 L -1031.792 16.715523 C -1031.7219 16.505299 -1031.6618 16.291866 -1031.612 16.075945 L -1031.1423 14.040556 C -1031.1071 13.887924 -1031.1405 13.727524 -1031.2338 13.601681 L -1031.2338 13.601681 C -1031.3241 13.479802 -1031.4748 13.418305 -1031.6246 13.44214 L -1040.1045 14.791209 C -1040.1553 14.799305 -1040.2061 14.807963 -1040.2568 14.817182 L -1053.2416 17.178048 C -1053.3344 17.194917 -1053.4275 17.20991 -1053.5209 17.223016 L -1064.7506 18.799112 C -1064.7707 18.80194 -1064.7909 18.804856 -1064.811 18.80786 L -1077.9336 20.766454 C -1078.0983 20.791046 -1078.2639 20.809748 -1078.43 20.822525 L -1091.1548 21.801357 C -1091.1721 21.802688 -1091.1895 21.803955 -1091.2068 21.805158 L -1105.5469 22.801 C -1105.5695 22.80257 -1105.5921 22.804028 -1105.6147 22.805378 L -1118.918 23.599602 C -1118.9598 23.602103 -1119.0018 23.604228 -1119.0437 23.605975 L -1133.2352 24.197285 C -1133.3322 24.20133 -1133.4294 24.203354 -1133.5266 24.203354 L -1146.7808 24.203354 L -1159.3225 24.203354 C -1159.3614 24.203354 -1159.4002 24.203678 -1159.4391 24.204326 L -1171.1975 24.4003 C -1171.3197 24.402335 -1171.4419 24.401172 -1171.564 24.39681 L -1182.3976 24.009897 C -1182.5197 24.005536 -1182.6419 24.004372 -1182.7641 24.00641 L -1194.4787 24.201653 C -1194.5468 24.202787 -1194.6148 24.202929 -1194.6829 24.202078 L -1210.3852 24.0058 C -1210.5156 24.00417 -1210.6459 23.998896 -1210.776 23.989984 L -1225.0858 23.009862 C -1225.1491 23.005524 -1225.2124 23.000323 -1225.2756 22.994262 L -1239.7666 21.604714 C -1239.776 21.603807 -1239.7855 21.602881 -1239.795 21.601936 L -1253.607 20.220733 C -1253.7228 20.209149 -1253.8384 20.194676 -1253.9535 20.17733 L -1268.2627 18.021156 C -1268.3414 18.009289 -1268.4204 17.998766 -1268.4995 17.989594 L -1282.0194 16.422065 C -1282.127 16.409593 -1282.2343 16.394625 -1282.3411 16.377175 L -1291.7332 14.843773 C -1291.8982 14.816835 -1292.0622 14.783996 -1292.2248 14.745318 L -1301.3024 12.586538 C -1301.6908 12.494191 -1302.0804 12.734123 -1302.1728 13.122441 C -1302.1788 13.148023 -1302.1835 13.173917 -1302.1868 13.200009 Z" stroke="#7f8080" stroke-linecap="round" stroke-linejoin="round" stroke-width="1"/>
      <path d="M -1059.7271 18.837188 L -1048.527 17.83352 L -1035.2904 15.826186 L -1031.2176 13.818851 L -1036.3086 -17.29484 L -1039.3632 -44.393863 L -1041.3996 -71.492885 L -1044.4542 -98.59191 L -1045.4724 -126.6946 L -1045.4724 -155.80095 L -1046.4906 -179.88897 L -1046.4906 -217.02467 L -1044.4542 -250.1457 L -1041.3996 -281.2594 L -1039.3632 -296.3144 L -1034.2722 -312.37308 L -1030.1995 -326.42443 L -1026.1267 -339.4721 L -1017.9811 -353.52345 L -1011.872 -364.5638 L -1006.781 -371.58946 L -1015.9447 -376.6078 L -1029.1813 -381.62614 L -1042.4178 -385.6408 L -1061.7635 -390.65914 L -1065 19 Z" fill="white"/>
      <path d="M -1059.7271 18.837188 L -1048.527 17.83352 L -1035.2904 15.826186 L -1031.2176 13.818851 L -1036.3086 -17.29484 L -1039.3632 -44.393863 L -1041.3996 -71.492885 L -1044.4542 -98.59191 L -1045.4724 -126.6946 L -1045.4724 -155.80095 L -1046.4906 -179.88897 L -1046.4906 -217.02467 L -1044.4542 -250.1457 L -1041.3996 -281.2594 L -1039.3632 -296.3144 L -1034.2722 -312.37308 L -1030.1995 -326.42443 L -1026.1267 -339.4721 L -1017.9811 -353.52345 L -1011.872 -364.5638 L -1006.781 -371.58946 L -1015.9447 -376.6078 L -1029.1813 -381.62614 L -1042.4178 -385.6408 L -1061.7635 -390.65914 L -1065 19 Z" stroke="#7f8080" stroke-linecap="round" stroke-linejoin="round" stroke-width="1"/>
      <path d="M -1270.6583 17.8861 L -1274.972 17.461133 L -1285.972 16.461133 L -1298.972 14.461133 L -1302.972 12.461133 L -1297.972 -18.538867 L -1296.1583 -44.6139 L -1293.6583 -72.6139 L -1292.1583 -99.6139 L -1291.6583 -128.6139 L -1290.1583 -155.6139 L -1289.6583 -181.1139 L -1290.6583 -217.1139 L -1291.6583 -250.6139 L -1291.6583 -265.6139 L -1294.1583 -281.1139 L -1296.6583 -296.1139 L -1301.1583 -311.6139 L -1305.6583 -326.1139 L -1310.6583 -339.6139 L -1317.1583 -353.1139 L -1323.6583 -363.6139 L -1327.1583 -370.1139 L -1317.972 -376.53887 L -1304.972 -381.53887 L -1291.972 -385.53887 L -1273.6583 -391.1139 L -1268.1583 -392.6139 Z" fill="white"/>
      <path d="M -1270.6583 17.8861 L -1274.972 17.461133 L -1285.972 16.461133 L -1298.972 14.461133 L -1302.972 12.461133 L -1297.972 -18.538867 L -1296.1583 -44.6139 L -1293.6583 -72.6139 L -1292.1583 -99.6139 L -1291.6583 -128.6139 L -1290.1583 -155.6139 L -1289.6583 -181.1139 L -1290.6583 -217.1139 L -1291.6583 -250.6139 L -1291.6583 -265.6139 L -1294.1583 -281.1139 L -1296.6583 -296.1139 L -1301.1583 -311.6139 L -1305.6583 -326.1139 L -1310.6583 -339.6139 L -1317.1583 -353.1139 L -1323.6583 -363.6139 L -1327.1583 -370.1139 L -1317.972 -376.53887 L -1304.972 -381.53887 L -1291.972 -385.53887 L -1273.6583 -391.1139 L -1268.1583 -392.6139 Z" stroke="#7f8080" stroke-linecap="round" stroke-linejoin="round" stroke-width="1"/>
      <path d="M -1230.5 22 L -1225 23 L -1211 23.5 L -1190 23.5 L -1190 -350 L -1202 -354 L -1209 -358 L -1218 -364 L -1227 -372.5 Z" fill="white"/>
      <path d="M -1230.5 22 L -1225 23 L -1211 23.5 L -1190 23.5 L -1190 -350 L -1202 -354 L -1209 -358 L -1218 -364 L -1227 -372.5 Z" stroke="#7f8080" stroke-linecap="round" stroke-linejoin="round" stroke-width="1"/>
      <path d="M -1137 -351.5 L -1128 -356.5 L -1122 -361 L -1114 -367 L -1108 -373.5 L -1103.5 22.5 L -1120.5 23.5 L -1131.5 24 L -1138 24.5 L -1142 24 L -1141 24 L -1145 -348.5 Z" fill="white"/>
      <path d="M -1137 -351.5 L -1128 -356.5 L -1122 -361 L -1114 -367 L -1108 -373.5 L -1103.5 22.5 L -1120.5 23.5 L -1131.5 24 L -1138 24.5 L -1142 24 L -1141 24 L -1145 -348.5 Z" stroke="#7f8080" stroke-linecap="round" stroke-linejoin="round" stroke-width="1"/>
      <path d="M -1342.5009 -254.0991 L -1327.5009 -247.5991 L -1316.0009 -244.5991 L -1304.0009 -241.5991 L -1298.5009 -240.5991 L -1293.5009 -251.0991 L -1292.0009 -252.5991 L -1291.5009 -265.5991 L -1293.0009 -275.5991 L -1295.0009 -288.0991 L -1298.0009 -301.5991 L -1301.0009 -311.5991 L -1303.5009 -322.0991 L -1306.5009 -328.0991 L -1322.5009 -299.5991 L -1330.0009 -284.0991 L -1338.0009 -266.0991 Z" fill="white"/>
      <path d="M -1342.5009 -254.0991 L -1327.5009 -247.5991 L -1316.0009 -244.5991 L -1304.0009 -241.5991 L -1298.5009 -240.5991 L -1293.5009 -251.0991 L -1292.0009 -252.5991 L -1291.5009 -265.5991 L -1293.0009 -275.5991 L -1295.0009 -288.0991 L -1298.0009 -301.5991 L -1301.0009 -311.5991 L -1303.5009 -322.0991 L -1306.5009 -328.0991 L -1322.5009 -299.5991 L -1330.0009 -284.0991 L -1338.0009 -266.0991 Z" stroke="#7f8080" stroke-linecap="round" stroke-linejoin="round" stroke-width="1"/>
      <path d="M -991.8956 -254.00446 L -1006.8956 -247.50446 L -1018.3956 -244.50446 L -1030.3956 -241.50446 L -1035.8956 -240.50446 L -1040.8956 -251.00446 L -1042.3956 -252.50446 L -1042.8956 -265.50446 L -1041.3956 -275.50446 L -1039.3956 -288.00446 L -1038.4009 -302.00446 L -1034.4009 -313.00446 L -1031.4009 -323.50446 L -1028.4009 -329.50446 L -1011.8956 -299.50446 L -1004.3956 -284.00446 L -996.3956 -266.00446 Z" fill="white"/>
      <path d="M -991.8956 -254.00446 L -1006.8956 -247.50446 L -1018.3956 -244.50446 L -1030.3956 -241.50446 L -1035.8956 -240.50446 L -1040.8956 -251.00446 L -1042.3956 -252.50446 L -1042.8956 -265.50446 L -1041.3956 -275.50446 L -1039.3956 -288.00446 L -1038.4009 -302.00446 L -1034.4009 -313.00446 L -1031.4009 -323.50446 L -1028.4009 -329.50446 L -1011.8956 -299.50446 L -1004.3956 -284.00446 L -996.3956 -266.00446 Z" stroke="#7f8080" stroke-linecap="round" stroke-linejoin="round" stroke-width="1"/>
    </g>
  </g>
</svg>
