<?xml version="1.0" encoding="UTF-8" standalone="no"?>
<!DOCTYPE svg PUBLIC "-//W3C//DTD SVG 1.1//EN" "http://www.w3.org/Graphics/SVG/1.1/DTD/svg11.dtd">
<svg xmlns="http://www.w3.org/2000/svg" xmlns:xl="http://www.w3.org/1999/xlink" version="1.1" viewBox="-1050.5 -156.5 432.4053 448.4" width="432.4053pt" height="448.4pt" xmlns:dc="http://purl.org/dc/elements/1.1/">
  <metadata> Produced by OmniGraffle 7.4.2 
    <dc:date>2018-03-14 21:03:07 +0000</dc:date>
  </metadata>
  <defs>
    <radialGradient cx="0" cy="0" r="1" id="Gradient" gradientUnits="userSpaceOnUse">
      <stop offset="0" stop-color="white"/>
      <stop offset="1" stop-color="#171605"/>
    </radialGradient>
    <radialGradient id="Obj_Gradient" xl:href="#Gradient" gradientTransform="translate(-835.2408 -128.6) scale(70.26272)"/>
    <linearGradient x1="0" x2="1" id="Gradient_2" gradientUnits="userSpaceOnUse">
      <stop offset="0" stop-color="black"/>
      <stop offset="1" stop-color="#025fee"/>
    </linearGradient>
    <linearGradient id="Obj_Gradient_2" xl:href="#Gradient_2" gradientTransform="translate(-838.2383 -157.43387) rotate(89) scale(451.61824)"/>
  </defs>
  <g stroke="none" stroke-opacity="1" stroke-dasharray="none" fill="none" fill-opacity="1">
    <title>hoffenheim</title>
    <rect fill="white" width="432.4053" height="448.4"/>
    <g>
      <title>Capa 1</title>
      <path d="M -896.9943 -155.40955 L -888.8289 -152.29184 C -887.9709 -151.96424 -887.0941 -151.68833 -886.2031 -151.46558 L -872.4859 -148.03629 C -871.3242 -147.74587 -870.1417 -147.54662 -868.949 -147.44034 L -851.4228 -145.8786 C -850.835 -145.82622 -850.2454 -145.79648 -849.6552 -145.78946 L -834.1763 -145.60519 C -833.886 -145.60173 -833.5956 -145.60377 -833.3053 -145.61131 L -818.882 -145.98594 C -818.5212 -145.99531 -818.1607 -146.01317 -817.8008 -146.03951 L -803.4295 -147.09107 C -802.438 -147.16361 -801.4523 -147.30036 -800.4786 -147.50044 L -788.9056 -149.87845 C -787.8636 -150.09256 -786.8377 -150.3787 -785.83535 -150.73481 L -774.0834 -154.90986 C -772.993 -155.29723 -771.7898 -154.76646 -771.34075 -153.7 L -771.34075 -153.7 C -770.8186 -152.4599 -770.6666 -151.09515 -770.90315 -149.77055 L -771.0836 -148.75986 C -771.3874 -147.0587 -771.8819 -145.3972 -772.5579 -143.80681 L -774.1011 -140.17569 C -774.65965 -138.86142 -775.3394 -137.60202 -776.1315 -136.41382 L -779.8173 -130.88515 C -780.5648 -129.76389 -781.4094 -128.71049 -782.3414 -127.73711 L -788.6365 -121.16226 C -789.5045 -120.25561 -790.4454 -119.42154 -791.4495 -118.66841 L -799.8244 -112.38723 C -800.7009 -111.72992 -801.6231 -111.13606 -802.5842 -110.6102 L -809.7694 -106.67867 C -811.0805 -105.96126 -812.4584 -105.37336 -813.8836 -104.9233 L -820.5565 -102.81607 C -822.2734 -102.2739 -824.048 -101.9352 -825.8439 -101.80692 L -832.7303 -101.31503 C -833.8026 -101.23844 -834.879 -101.23712 -835.9515 -101.31108 L -844.3877 -101.89289 C -845.4219 -101.96422 -846.4501 -102.10537 -847.4652 -102.3154 L -854.6004 -103.79165 C -856.5524 -104.1955 -858.4435 -104.85139 -860.2264 -105.74281 L -864.8858 -108.07252 C -866.1199 -108.68959 -867.296 -109.41646 -868.3999 -110.24434 L -874.0818 -114.50581 C -874.521 -114.83517 -874.9482 -115.18013 -875.3626 -115.54005 L -881.1178 -120.53797 C -881.9321 -121.24511 -882.6956 -122.00865 -883.4028 -122.82294 L -887.808 -127.89562 C -888.5621 -128.76398 -889.25 -129.68768 -889.8659 -130.65895 L -893.5996 -136.54671 C -893.9602 -137.1153 -894.2956 -137.69944 -894.605 -138.29745 L -896.2253 -141.43017 C -896.8345 -142.60785 -897.3406 -143.836 -897.7382 -145.10089 L -899.0184 -149.17438 C -899.2332 -149.85775 -899.4159 -150.55079 -899.566 -151.25122 L -899.6408 -151.6 C -899.8354 -152.50843 -899.7282 -153.45557 -899.3353 -154.29746 L -899.2408 -154.5 C -898.8463 -155.3453 -897.8658 -155.7423 -896.9943 -155.40955 Z" fill="url(#Obj_Gradient)"/>
      <path d="M -896.9943 -155.40955 L -888.8289 -152.29184 C -887.9709 -151.96424 -887.0941 -151.68833 -886.2031 -151.46558 L -872.4859 -148.03629 C -871.3242 -147.74587 -870.1417 -147.54662 -868.949 -147.44034 L -851.4228 -145.8786 C -850.835 -145.82622 -850.2454 -145.79648 -849.6552 -145.78946 L -834.1763 -145.60519 C -833.886 -145.60173 -833.5956 -145.60377 -833.3053 -145.61131 L -818.882 -145.98594 C -818.5212 -145.99531 -818.1607 -146.01317 -817.8008 -146.03951 L -803.4295 -147.09107 C -802.438 -147.16361 -801.4523 -147.30036 -800.4786 -147.50044 L -788.9056 -149.87845 C -787.8636 -150.09256 -786.8377 -150.3787 -785.83535 -150.73481 L -774.0834 -154.90986 C -772.993 -155.29723 -771.7898 -154.76646 -771.34075 -153.7 L -771.34075 -153.7 C -770.8186 -152.4599 -770.6666 -151.09515 -770.90315 -149.77055 L -771.0836 -148.75986 C -771.3874 -147.0587 -771.8819 -145.3972 -772.5579 -143.80681 L -774.1011 -140.17569 C -774.65965 -138.86142 -775.3394 -137.60202 -776.1315 -136.41382 L -779.8173 -130.88515 C -780.5648 -129.76389 -781.4094 -128.71049 -782.3414 -127.73711 L -788.6365 -121.16226 C -789.5045 -120.25561 -790.4454 -119.42154 -791.4495 -118.66841 L -799.8244 -112.38723 C -800.7009 -111.72992 -801.6231 -111.13606 -802.5842 -110.6102 L -809.7694 -106.67867 C -811.0805 -105.96126 -812.4584 -105.37336 -813.8836 -104.9233 L -820.5565 -102.81607 C -822.2734 -102.2739 -824.048 -101.9352 -825.8439 -101.80692 L -832.7303 -101.31503 C -833.8026 -101.23844 -834.879 -101.23712 -835.9515 -101.31108 L -844.3877 -101.89289 C -845.4219 -101.96422 -846.4501 -102.10537 -847.4652 -102.3154 L -854.6004 -103.79165 C -856.5524 -104.1955 -858.4435 -104.85139 -860.2264 -105.74281 L -864.8858 -108.07252 C -866.1199 -108.68959 -867.296 -109.41646 -868.3999 -110.24434 L -874.0818 -114.50581 C -874.521 -114.83517 -874.9482 -115.18013 -875.3626 -115.54005 L -881.1178 -120.53797 C -881.9321 -121.24511 -882.6956 -122.00865 -883.4028 -122.82294 L -887.808 -127.89562 C -888.5621 -128.76398 -889.25 -129.68768 -889.8659 -130.65895 L -893.5996 -136.54671 C -893.9602 -137.1153 -894.2956 -137.69944 -894.605 -138.29745 L -896.2253 -141.43017 C -896.8345 -142.60785 -897.3406 -143.836 -897.7382 -145.10089 L -899.0184 -149.17438 C -899.2332 -149.85775 -899.4159 -150.55079 -899.566 -151.25122 L -899.6408 -151.6 C -899.8354 -152.50843 -899.7282 -153.45557 -899.3353 -154.29746 L -899.2408 -154.5 C -898.8463 -155.3453 -897.8658 -155.7423 -896.9943 -155.40955 Z" stroke="#7f8080" stroke-linecap="round" stroke-linejoin="round" stroke-width="1"/>
      <path d="M -961.0265 281.2638 L -947.2843 283.55416 C -947.1009 283.58472 -946.917 283.6121 -946.7327 283.63624 L -918.3791 287.35154 C -918.1325 287.38385 -917.8853 287.4104 -917.6375 287.43118 L -887.3946 289.96768 C -887.1377 289.98923 -886.8803 290.00456 -886.6227 290.01367 L -847.6918 291.39 C -847.5034 291.39668 -847.315 291.4 -847.1265 291.4 L -815.6592 291.4 C -815.4925 291.4 -815.3259 291.3974 -815.1594 291.3922 L -790.1246 290.60986 C -789.9144 290.6033 -789.7043 290.59258 -789.4945 290.57772 L -767.4467 289.01682 C -767.2884 289.0056 -767.13025 288.99205 -766.9723 288.97614 L -741.71185 286.4305 C -741.5101 286.41017 -741.3088 286.386 -741.108 286.35803 L -717.3153 283.04265 C -717.11125 283.01422 -716.9078 282.98186 -716.70504 282.94558 L -707.5092 281.3 C -702.1821 280.34674 -698.5312 275.3931 -699.19766 270.02255 L -701.40525 252.23198 C -701.4079 252.21066 -701.4105 252.18934 -701.41305 252.168 L -704.9769 222.4695 C -704.9984 222.28985 -705.01694 222.10985 -705.0324 221.92958 L -707.3946 194.37037 C -707.40435 194.2568 -707.4129 194.14312 -707.4202 194.02936 L -708.8068 172.43772 C -708.8084 172.41258 -708.8101 172.38744 -708.8118 172.3623 L -710.404 149.27599 C -710.4075 149.22533 -710.4107 149.17466 -710.4137 149.12398 L -711.5901 129.3218 C -711.6028 129.1073 -711.6113 128.89255 -711.61535 128.67769 L -712.0076 108.08285 C -712.0087 108.02762 -712.01 107.9724 -712.01165 107.91718 L -712.6068 87.68283 C -712.6084 87.62761 -712.6097 87.57239 -712.6108 87.51715 L -713.00145 67.00761 C -713.0066 66.73592 -713.0049 66.464134 -712.9962 66.19253 L -712.4103 47.83292 C -712.4096 47.810975 -712.4088 47.789033 -712.408 47.767093 L -711.61995 25.897785 C -711.6128 25.69928 -711.60194 25.500927 -711.5874 25.302826 L -710.0299 4.0822084 C -710.0161 3.8940858 -710.0056 3.7057337 -709.9985 3.5172405 L -709.244 -16.381627 C -709.22085 -16.993372 -709.1626 -17.603282 -709.0695 -18.208348 L -706.3305 -36.011866 C -706.2497 -36.536964 -706.1428 -37.05771 -706.0102 -37.572175 L -701.3819 -55.529826 C -701.26684 -55.9764 -701.1325 -56.41779 -700.9793 -56.852753 L -695.2585 -73.09239 C -695.0924 -73.56387 -694.9043 -74.02731 -694.6948 -74.48117 L -689.1633 -86.46621 C -689.0606 -86.68871 -688.9528 -86.90881 -688.84 -87.12636 L -683.4778 -97.46778 C -683.4321 -97.55593 -683.38554 -97.64364 -683.3382 -97.73092 L -678.1222 -107.34788 C -677.38495 -108.70724 -676.4353 -109.94013 -675.3092 -111 L -675.3092 -111 C -674.634 -111.63547 -674.6018 -112.69797 -675.2373 -113.37316 C -675.3618 -113.50544 -675.5069 -113.61663 -675.66705 -113.70241 L -678.8812 -115.42427 C -679.09984 -115.54141 -679.3212 -115.65344 -679.54506 -115.76029 L -687.399 -119.50878 C -687.8056 -119.70284 -688.2203 -119.87964 -688.6418 -120.0387 L -698.3166 -123.68959 C -698.5117 -123.76319 -698.7081 -123.83297 -698.9059 -123.8989 L -711.6004 -128.13038 C -711.7396 -128.1768 -711.87945 -128.22128 -712.0199 -128.26384 L -724.9034 -132.16794 C -724.97395 -132.18931 -725.0443 -132.21117 -725.1146 -132.23352 L -737.61856 -136.21206 C -738.0122 -136.3373 -738.4008 -136.47775 -738.7836 -136.63307 L -750.7595 -141.49287 C -751.5912 -141.83036 -752.393 -142.23723 -753.1564 -142.70917 L -762.7756 -148.65561 C -762.93135 -148.75186 -763.0854 -148.85078 -763.2377 -148.95232 L -768.1278 -152.21238 C -769.1092 -152.86665 -769.9805 -153.67255 -770.7092 -154.6 L -770.7092 -154.6 C -770.8148 -154.7344 -771.0094 -154.75775 -771.1438 -154.65215 C -771.2465 -154.57142 -771.2875 -154.43487 -771.2462 -154.31092 L -771.1092 -153.9 C -770.65 -152.52225 -770.5454 -151.05096 -770.8052 -149.62211 L -771.2003 -147.44885 C -771.4715 -145.95719 -771.9534 -144.51165 -772.6314 -143.1556 L -774.1637 -140.09096 C -774.4604 -139.49756 -774.7938 -138.92319 -775.1618 -138.37117 L -778.3655 -133.56562 C -778.7941 -132.92272 -779.2687 -132.3117 -779.7856 -131.73739 L -784.3476 -126.66844 C -784.3887 -126.62281 -784.43 -126.57742 -784.4716 -126.53227 L -790.4658 -120.02424 C -791.0936 -119.3427 -791.7793 -118.71698 -792.5154 -118.15413 L -797.5395 -114.31211 C -797.9857 -113.97094 -798.4495 -113.6535 -798.929 -113.3611 L -805.4154 -109.40597 C -806.0771 -109.00252 -806.7672 -108.64768 -807.4803 -108.34424 L -814.5957 -105.3164 C -815.4033 -104.97272 -816.2379 -104.69607 -817.0909 -104.48928 L -821.17 -103.50041 C -821.9948 -103.30045 -822.8343 -103.16644 -823.6804 -103.09965 L -829.3806 -102.64963 C -829.7995 -102.61656 -830.2196 -102.6 -830.6398 -102.6 L -837.6721 -102.6 C -838.4292 -102.6 -839.1854 -102.65374 -839.9349 -102.76081 L -847.8813 -103.89601 C -848.3663 -103.9653 -848.8479 -104.05683 -849.3245 -104.17031 L -855.2857 -105.58965 C -856.4312 -105.86238 -857.5431 -106.26073 -858.6012 -106.77747 L -864.8812 -109.84444 C -865.3662 -110.08133 -865.839 -110.34261 -866.2976 -110.62728 L -870.5095 -113.24154 C -871.1086 -113.61344 -871.6826 -114.02454 -872.2275 -114.47216 L -876.6736 -118.12432 C -876.8973 -118.30807 -877.116 -118.49786 -877.3294 -118.69348 L -881.1317 -122.17896 C -881.583 -122.59264 -882.0102 -123.03189 -882.4111 -123.49454 L -886.5299 -128.24693 C -886.8493 -128.61545 -887.1516 -128.99838 -887.436 -129.39451 L -891.8657 -135.56439 C -892.3606 -136.2537 -892.7999 -136.9813 -893.1794 -137.74028 L -895.7558 -142.8932 C -895.7914 -142.9644 -895.8265 -143.03586 -895.861 -143.10758 L -897.1092 -145.7 C -897.9599 -147.46687 -898.3155 -149.4314 -898.1379 -151.38436 L -897.9577 -153.36661 C -897.9339 -153.62848 -898.1269 -153.86006 -898.3887 -153.88386 C -898.5511 -153.89862 -898.7098 -153.82925 -898.8092 -153.7 L -898.8092 -153.7 C -899.4727 -152.83752 -900.2528 -152.07144 -901.1271 -151.42375 L -905.0237 -148.53743 C -905.1474 -148.44582 -905.2724 -148.35599 -905.3986 -148.26798 L -910.0209 -145.04641 C -911.2076 -144.21929 -912.501 -143.55692 -913.8658 -143.07742 L -918.4729 -141.4587 C -918.9635 -141.28633 -919.4454 -141.09016 -919.9168 -140.87087 L -926.7636 -137.68632 C -927.4598 -137.36253 -928.1783 -137.08926 -928.9137 -136.86864 L -939.7841 -133.60752 C -939.8009 -133.6025 -939.8176 -133.59746 -939.8343 -133.5924 L -950.8024 -130.2628 C -950.9403 -130.22093 -951.0776 -130.17721 -951.2143 -130.13164 L -964.1355 -125.82456 C -964.1847 -125.80819 -964.2339 -125.79205 -964.2831 -125.77616 L -975.6505 -122.10925 C -976.289 -121.90329 -976.9139 -121.65737 -977.5215 -121.37296 L -985.4535 -117.66012 C -985.8238 -117.48677 -986.1874 -117.29929 -986.5434 -117.09808 L -992.4895 -113.73724 C -993.7425 -113.029 -994.1842 -111.43907 -993.4759 -110.18604 C -993.3988 -110.0496 -993.3096 -109.9204 -993.2092 -109.8 L -992.3451 -108.76307 C -991.5902 -107.85713 -990.9377 -106.87051 -990.3996 -105.82118 L -987.3224 -99.82076 C -987.247 -99.6736 -987.1692 -99.52761 -987.0892 -99.38285 L -983.1345 -92.22663 C -983.051 -92.07555 -982.9699 -91.92313 -982.8914 -91.76943 L -978.7831 -83.73144 C -978.534 -83.24413 -978.3101 -82.74437 -978.1122 -82.23411 L -974.6295 -73.252235 C -974.616 -73.21741 -974.6023 -73.18263 -974.5886 -73.147906 L -970.9923 -64.06246 C -970.8703 -63.75423 -970.7579 -63.44228 -970.6552 -63.12706 L -968.0334 -55.074284 C -968.0173 -55.02476 -968.0014 -54.97516 -967.9858 -54.92548 L -964.9137 -45.16721 C -964.7109 -44.52305 -964.5491 -43.866694 -964.4293 -43.202085 L -962.444 -32.192628 C -962.4208 -32.064213 -962.3992 -31.93552 -962.3792 -31.806577 L -960.6733 -20.813195 C -960.6306 -20.537777 -960.5951 -20.26129 -960.5668 -19.984016 L -959.6794 -11.287301 C -959.6326 -10.829312 -959.6057 -10.36952 -959.5986 -9.909207 L -959.4144 2.0664145 C -959.4109 2.2887822 -959.4029 2.5110545 -959.3902 2.7330864 L -958.6198 16.214648 C -958.6127 16.338214 -958.6043 16.461693 -958.5943 16.585061 L -957.2608 33.159433 C -957.2264 33.586308 -957.2092 34.01439 -957.2092 34.442643 L -957.2092 46.892424 C -957.2092 47.09746 -957.2053 47.30247 -957.1974 47.507354 L -956.617 62.59649 C -956.6118 62.73216 -956.6083 62.86789 -956.6066 63.00365 L -956.4144 77.7999 C -956.411 78.066595 -956.4142 78.33333 -956.424 78.59986 L -956.9983 94.10401 C -957.0056 94.30132 -957.0092 94.49875 -957.0092 94.6962 L -957.0092 108.29243 C -957.0092 108.49746 -957.0132 108.70247 -957.021 108.90736 L -957.6062 124.12236 C -957.6082 124.17412 -957.6105 124.22588 -957.613 124.27762 L -958.4083 140.78055 C -958.4089 140.79352 -958.4095 140.80649 -958.4102 140.81945 L -959.2047 156.51062 C -959.2077 156.57021 -959.2111 156.62978 -959.2147 156.68933 L -960.4037 175.91007 C -960.4074 175.97003 -960.4114 176.02996 -960.4158 176.08987 L -962.1989 200.45942 C -962.2058 200.55314 -962.2135 200.6468 -962.222 200.74038 L -964.0079 220.3852 C -964.0088 220.39507 -964.0097 220.40494 -964.0106 220.4148 L -965.7814 239.49972 C -965.7999 239.6999 -965.8223 239.8997 -965.8484 240.09903 L -967.8091 255.07175 C -967.9419 256.08594 -968.211 257.07756 -968.6092 258.01973 L -968.6092 258.01973 C -969.0068 258.96048 -969.2555 259.9574 -969.3463 260.97465 L -970.1092 269.51973 C -970.617 275.20676 -966.6585 280.32512 -961.0265 281.2638 Z" fill="url(#Obj_Gradient_2)"/>
      <path d="M -961.0265 281.2638 L -947.2843 283.55416 C -947.1009 283.58472 -946.917 283.6121 -946.7327 283.63624 L -918.3791 287.35154 C -918.1325 287.38385 -917.8853 287.4104 -917.6375 287.43118 L -887.3946 289.96768 C -887.1377 289.98923 -886.8803 290.00456 -886.6227 290.01367 L -847.6918 291.39 C -847.5034 291.39668 -847.315 291.4 -847.1265 291.4 L -815.6592 291.4 C -815.4925 291.4 -815.3259 291.3974 -815.1594 291.3922 L -790.1246 290.60986 C -789.9144 290.6033 -789.7043 290.59258 -789.4945 290.57772 L -767.4467 289.01682 C -767.2884 289.0056 -767.13025 288.99205 -766.9723 288.97614 L -741.71185 286.4305 C -741.5101 286.41017 -741.3088 286.386 -741.108 286.35803 L -717.3153 283.04265 C -717.11125 283.01422 -716.9078 282.98186 -716.70504 282.94558 L -707.5092 281.3 C -702.1821 280.34674 -698.5312 275.3931 -699.19766 270.02255 L -701.40525 252.23198 C -701.4079 252.21066 -701.4105 252.18934 -701.41305 252.168 L -704.9769 222.4695 C -704.9984 222.28985 -705.01694 222.10985 -705.0324 221.92958 L -707.3946 194.37037 C -707.40435 194.2568 -707.4129 194.14312 -707.4202 194.02936 L -708.8068 172.43772 C -708.8084 172.41258 -708.8101 172.38744 -708.8118 172.3623 L -710.404 149.27599 C -710.4075 149.22533 -710.4107 149.17466 -710.4137 149.12398 L -711.5901 129.3218 C -711.6028 129.1073 -711.6113 128.89255 -711.61535 128.67769 L -712.0076 108.08285 C -712.0087 108.02762 -712.01 107.9724 -712.01165 107.91718 L -712.6068 87.68283 C -712.6084 87.62761 -712.6097 87.57239 -712.6108 87.51715 L -713.00145 67.00761 C -713.0066 66.73592 -713.0049 66.464134 -712.9962 66.19253 L -712.4103 47.83292 C -712.4096 47.810975 -712.4088 47.789033 -712.408 47.767093 L -711.61995 25.897785 C -711.6128 25.69928 -711.60194 25.500927 -711.5874 25.302826 L -710.0299 4.0822084 C -710.0161 3.8940858 -710.0056 3.7057337 -709.9985 3.5172405 L -709.244 -16.381627 C -709.22085 -16.993372 -709.1626 -17.603282 -709.0695 -18.208348 L -706.3305 -36.011866 C -706.2497 -36.536964 -706.1428 -37.05771 -706.0102 -37.572175 L -701.3819 -55.529826 C -701.26684 -55.9764 -701.1325 -56.41779 -700.9793 -56.852753 L -695.2585 -73.09239 C -695.0924 -73.56387 -694.9043 -74.02731 -694.6948 -74.48117 L -689.1633 -86.46621 C -689.0606 -86.68871 -688.9528 -86.90881 -688.84 -87.12636 L -683.4778 -97.46778 C -683.4321 -97.55593 -683.38554 -97.64364 -683.3382 -97.73092 L -678.1222 -107.34788 C -677.38495 -108.70724 -676.4353 -109.94013 -675.3092 -111 L -675.3092 -111 C -674.634 -111.63547 -674.6018 -112.69797 -675.2373 -113.37316 C -675.3618 -113.50544 -675.5069 -113.61663 -675.66705 -113.70241 L -678.8812 -115.42427 C -679.09984 -115.54141 -679.3212 -115.65344 -679.54506 -115.76029 L -687.399 -119.50878 C -687.8056 -119.70284 -688.2203 -119.87964 -688.6418 -120.0387 L -698.3166 -123.68959 C -698.5117 -123.76319 -698.7081 -123.83297 -698.9059 -123.8989 L -711.6004 -128.13038 C -711.7396 -128.1768 -711.87945 -128.22128 -712.0199 -128.26384 L -724.9034 -132.16794 C -724.97395 -132.18931 -725.0443 -132.21117 -725.1146 -132.23352 L -737.61856 -136.21206 C -738.0122 -136.3373 -738.4008 -136.47775 -738.7836 -136.63307 L -750.7595 -141.49287 C -751.5912 -141.83036 -752.393 -142.23723 -753.1564 -142.70917 L -762.7756 -148.65561 C -762.93135 -148.75186 -763.0854 -148.85078 -763.2377 -148.95232 L -768.1278 -152.21238 C -769.1092 -152.86665 -769.9805 -153.67255 -770.7092 -154.6 L -770.7092 -154.6 C -770.8148 -154.7344 -771.0094 -154.75775 -771.1438 -154.65215 C -771.2465 -154.57142 -771.2875 -154.43487 -771.2462 -154.31092 L -771.1092 -153.9 C -770.65 -152.52225 -770.5454 -151.05096 -770.8052 -149.62211 L -771.2003 -147.44885 C -771.4715 -145.95719 -771.9534 -144.51165 -772.6314 -143.1556 L -774.1637 -140.09096 C -774.4604 -139.49756 -774.7938 -138.92319 -775.1618 -138.37117 L -778.3655 -133.56562 C -778.7941 -132.92272 -779.2687 -132.3117 -779.7856 -131.73739 L -784.3476 -126.66844 C -784.3887 -126.62281 -784.43 -126.57742 -784.4716 -126.53227 L -790.4658 -120.02424 C -791.0936 -119.3427 -791.7793 -118.71698 -792.5154 -118.15413 L -797.5395 -114.31211 C -797.9857 -113.97094 -798.4495 -113.6535 -798.929 -113.3611 L -805.4154 -109.40597 C -806.0771 -109.00252 -806.7672 -108.64768 -807.4803 -108.34424 L -814.5957 -105.3164 C -815.4033 -104.97272 -816.2379 -104.69607 -817.0909 -104.48928 L -821.17 -103.50041 C -821.9948 -103.30045 -822.8343 -103.16644 -823.6804 -103.09965 L -829.3806 -102.64963 C -829.7995 -102.61656 -830.2196 -102.6 -830.6398 -102.6 L -837.6721 -102.6 C -838.4292 -102.6 -839.1854 -102.65374 -839.9349 -102.76081 L -847.8813 -103.89601 C -848.3663 -103.9653 -848.8479 -104.05683 -849.3245 -104.17031 L -855.2857 -105.58965 C -856.4312 -105.86238 -857.5431 -106.26073 -858.6012 -106.77747 L -864.8812 -109.84444 C -865.3662 -110.08133 -865.839 -110.34261 -866.2976 -110.62728 L -870.5095 -113.24154 C -871.1086 -113.61344 -871.6826 -114.02454 -872.2275 -114.47216 L -876.6736 -118.12432 C -876.8973 -118.30807 -877.116 -118.49786 -877.3294 -118.69348 L -881.1317 -122.17896 C -881.583 -122.59264 -882.0102 -123.03189 -882.4111 -123.49454 L -886.5299 -128.24693 C -886.8493 -128.61545 -887.1516 -128.99838 -887.436 -129.39451 L -891.8657 -135.56439 C -892.3606 -136.2537 -892.7999 -136.9813 -893.1794 -137.74028 L -895.7558 -142.8932 C -895.7914 -142.9644 -895.8265 -143.03586 -895.861 -143.10758 L -897.1092 -145.7 C -897.9599 -147.46687 -898.3155 -149.4314 -898.1379 -151.38436 L -897.9577 -153.36661 C -897.9339 -153.62848 -898.1269 -153.86006 -898.3887 -153.88386 C -898.5511 -153.89862 -898.7098 -153.82925 -898.8092 -153.7 L -898.8092 -153.7 C -899.4727 -152.83752 -900.2528 -152.07144 -901.1271 -151.42375 L -905.0237 -148.53743 C -905.1474 -148.44582 -905.2724 -148.35599 -905.3986 -148.26798 L -910.0209 -145.04641 C -911.2076 -144.21929 -912.501 -143.55692 -913.8658 -143.07742 L -918.4729 -141.4587 C -918.9635 -141.28633 -919.4454 -141.09016 -919.9168 -140.87087 L -926.7636 -137.68632 C -927.4598 -137.36253 -928.1783 -137.08926 -928.9137 -136.86864 L -939.7841 -133.60752 C -939.8009 -133.6025 -939.8176 -133.59746 -939.8343 -133.5924 L -950.8024 -130.2628 C -950.9403 -130.22093 -951.0776 -130.17721 -951.2143 -130.13164 L -964.1355 -125.82456 C -964.1847 -125.80819 -964.2339 -125.79205 -964.2831 -125.77616 L -975.6505 -122.10925 C -976.289 -121.90329 -976.9139 -121.65737 -977.5215 -121.37296 L -985.4535 -117.66012 C -985.8238 -117.48677 -986.1874 -117.29929 -986.5434 -117.09808 L -992.4895 -113.73724 C -993.7425 -113.029 -994.1842 -111.43907 -993.4759 -110.18604 C -993.3988 -110.0496 -993.3096 -109.9204 -993.2092 -109.8 L -992.3451 -108.76307 C -991.5902 -107.85713 -990.9377 -106.87051 -990.3996 -105.82118 L -987.3224 -99.82076 C -987.247 -99.6736 -987.1692 -99.52761 -987.0892 -99.38285 L -983.1345 -92.22663 C -983.051 -92.07555 -982.9699 -91.92313 -982.8914 -91.76943 L -978.7831 -83.73144 C -978.534 -83.24413 -978.3101 -82.74437 -978.1122 -82.23411 L -974.6295 -73.252235 C -974.616 -73.21741 -974.6023 -73.18263 -974.5886 -73.147906 L -970.9923 -64.06246 C -970.8703 -63.75423 -970.7579 -63.44228 -970.6552 -63.12706 L -968.0334 -55.074284 C -968.0173 -55.02476 -968.0014 -54.97516 -967.9858 -54.92548 L -964.9137 -45.16721 C -964.7109 -44.52305 -964.5491 -43.866694 -964.4293 -43.202085 L -962.444 -32.192628 C -962.4208 -32.064213 -962.3992 -31.93552 -962.3792 -31.806577 L -960.6733 -20.813195 C -960.6306 -20.537777 -960.5951 -20.26129 -960.5668 -19.984016 L -959.6794 -11.287301 C -959.6326 -10.829312 -959.6057 -10.36952 -959.5986 -9.909207 L -959.4144 2.0664145 C -959.4109 2.2887822 -959.4029 2.5110545 -959.3902 2.7330864 L -958.6198 16.214648 C -958.6127 16.338214 -958.6043 16.461693 -958.5943 16.585061 L -957.2608 33.159433 C -957.2264 33.586308 -957.2092 34.01439 -957.2092 34.442643 L -957.2092 46.892424 C -957.2092 47.09746 -957.2053 47.30247 -957.1974 47.507354 L -956.617 62.59649 C -956.6118 62.73216 -956.6083 62.86789 -956.6066 63.00365 L -956.4144 77.7999 C -956.411 78.066595 -956.4142 78.33333 -956.424 78.59986 L -956.9983 94.10401 C -957.0056 94.30132 -957.0092 94.49875 -957.0092 94.6962 L -957.0092 108.29243 C -957.0092 108.49746 -957.0132 108.70247 -957.021 108.90736 L -957.6062 124.12236 C -957.6082 124.17412 -957.6105 124.22588 -957.613 124.27762 L -958.4083 140.78055 C -958.4089 140.79352 -958.4095 140.80649 -958.4102 140.81945 L -959.2047 156.51062 C -959.2077 156.57021 -959.2111 156.62978 -959.2147 156.68933 L -960.4037 175.91007 C -960.4074 175.97003 -960.4114 176.02996 -960.4158 176.08987 L -962.1989 200.45942 C -962.2058 200.55314 -962.2135 200.6468 -962.222 200.74038 L -964.0079 220.3852 C -964.0088 220.39507 -964.0097 220.40494 -964.0106 220.4148 L -965.7814 239.49972 C -965.7999 239.6999 -965.8223 239.8997 -965.8484 240.09903 L -967.8091 255.07175 C -967.9419 256.08594 -968.211 257.07756 -968.6092 258.01973 L -968.6092 258.01973 C -969.0068 258.96048 -969.2555 259.9574 -969.3463 260.97465 L -970.1092 269.51973 C -970.617 275.20676 -966.6585 280.32512 -961.0265 281.2638 Z" stroke="#7f8080" stroke-linecap="round" stroke-linejoin="round" stroke-width="1"/>
      <path d="M -1050 -4.5538544 L -1043.8 -.15385434 L -1035.6 3.8461457 L -1027 7.446146 L -1018 11.246146 L -1007 15.246146 L -997.6 18.046146 L -988.6 20.646146 L -979.6 23.246146 L -974.2 24.646146 L -968.6 25.646146 L -966.2 19.846146 L -963.6 14.446146 L -961.4 10.446146 L -958.8 7.046146 L -958.6 -1.9538544 L -959.2 -12.953855 L -961 -23.753855 L -962.6 -34.153855 L -965.2 -45.153855 L -967.6 -54.753855 L -970.4 -62.753855 L -973.6 -72.153855 L -976.4 -79.55386 L -980 -87.15386 L -984 -94.75386 L -988 -102.15386 L -990.6 -105.75386 L -994.2 -111.55386 L -999.6 -107.15386 L -1004.4 -102.35386 L -1009 -96.15386 L -1013.4 -89.95386 L -1018.2 -81.35386 L -1023 -71.953855 L -1027.8 -62.753855 L -1031.4 -54.153855 L -1035.4 -45.153855 L -1038.6 -36.953855 L -1042.4 -27.553855 L -1045.2 -19.553855 L -1048.2 -11.153855 Z" fill="#00009b"/>
      <path d="M -1050 -4.5538544 L -1043.8 -.15385434 L -1035.6 3.8461457 L -1027 7.446146 L -1018 11.246146 L -1007 15.246146 L -997.6 18.046146 L -988.6 20.646146 L -979.6 23.246146 L -974.2 24.646146 L -968.6 25.646146 L -966.2 19.846146 L -963.6 14.446146 L -961.4 10.446146 L -958.8 7.046146 L -958.6 -1.9538544 L -959.2 -12.953855 L -961 -23.753855 L -962.6 -34.153855 L -965.2 -45.153855 L -967.6 -54.753855 L -970.4 -62.753855 L -973.6 -72.153855 L -976.4 -79.55386 L -980 -87.15386 L -984 -94.75386 L -988 -102.15386 L -990.6 -105.75386 L -994.2 -111.55386 L -999.6 -107.15386 L -1004.4 -102.35386 L -1009 -96.15386 L -1013.4 -89.95386 L -1018.2 -81.35386 L -1023 -71.953855 L -1027.8 -62.753855 L -1031.4 -54.153855 L -1035.4 -45.153855 L -1038.6 -36.953855 L -1042.4 -27.553855 L -1045.2 -19.553855 L -1048.2 -11.153855 Z" stroke="#7f8080" stroke-linecap="round" stroke-linejoin="round" stroke-width="1"/>
      <path d="M -618.5947 -5.4972506 L -624.7947 -1.0972506 L -632.9947 2.9027495 L -641.5947 6.5027495 L -650.5947 10.30275 L -661.5947 14.30275 L -670.9947 17.10275 L -679.9947 19.70275 L -688.9947 22.30275 L -694.3947 23.70275 L -699.9947 24.70275 L -702.3947 18.90275 L -704.9947 13.50275 L -707.1947 9.50275 L -709.7947 6.1027495 L -709.9947 -2.8972506 L -709.3947 -13.89725 L -707.5947 -24.69725 L -705.9947 -35.09725 L -703.3947 -46.09725 L -700.9947 -55.69725 L -698.1947 -63.69725 L -694.9947 -73.09725 L -692.1947 -80.49725 L -688.5947 -88.09725 L -684.5947 -95.69725 L -680.5947 -103.09725 L -677.9947 -106.69725 L -674.3947 -112.49725 L -668.9947 -108.09725 L -664.1947 -103.29725 L -659.5947 -97.09725 L -655.1947 -90.89725 L -650.3947 -82.29725 L -645.5947 -72.89725 L -640.7947 -63.69725 L -637.1947 -55.09725 L -633.1947 -46.09725 L -629.9947 -37.89725 L -626.1947 -28.49725 L -623.3947 -20.49725 L -620.3947 -12.097251 Z" fill="#000091"/>
      <path d="M -618.5947 -5.4972506 L -624.7947 -1.0972506 L -632.9947 2.9027495 L -641.5947 6.5027495 L -650.5947 10.30275 L -661.5947 14.30275 L -670.9947 17.10275 L -679.9947 19.70275 L -688.9947 22.30275 L -694.3947 23.70275 L -699.9947 24.70275 L -702.3947 18.90275 L -704.9947 13.50275 L -707.1947 9.50275 L -709.7947 6.1027495 L -709.9947 -2.8972506 L -709.3947 -13.89725 L -707.5947 -24.69725 L -705.9947 -35.09725 L -703.3947 -46.09725 L -700.9947 -55.69725 L -698.1947 -63.69725 L -694.9947 -73.09725 L -692.1947 -80.49725 L -688.5947 -88.09725 L -684.5947 -95.69725 L -680.5947 -103.09725 L -677.9947 -106.69725 L -674.3947 -112.49725 L -668.9947 -108.09725 L -664.1947 -103.29725 L -659.5947 -97.09725 L -655.1947 -90.89725 L -650.3947 -82.29725 L -645.5947 -72.89725 L -640.7947 -63.69725 L -637.1947 -55.09725 L -633.1947 -46.09725 L -629.9947 -37.89725 L -626.1947 -28.49725 L -623.3947 -20.49725 L -620.3947 -12.097251 Z" stroke="#7f8080" stroke-linecap="round" stroke-linejoin="round" stroke-width="1"/>
      <path d="M -1050 -4.5538544 L -1043.8 -.15385434 L -1035.6 3.8461457 L -1027 7.446146 L -1018 11.246146 L -1007 15.246146 L -997.6 18.046146 L -988.6 20.646146 L -979.6 23.246146 L -974.2 24.646146 L -968.6 25.646146 L -965.6 19.246146 L -969.4 18.446146 L -974.2 17.246146 L -979.8 16.046146 L -985.8 14.246146 L -990.4 12.846146 L -994.6 11.646146 L -999.2 9.646146 L -1003.8 8.046146 L -1008.6 6.046146 L -1012.6 4.646146 L -1017.8 2.4461457 L -1022.4 .8461457 L -1027.2 -1.3538544 L -1032 -3.1538544 L -1036 -5.1538544 L -1040.4 -7.3538544 L -1044.8 -9.553854 L -1048.2 -11.153855 Z" fill="black"/>
      <path d="M -1050 -4.5538544 L -1043.8 -.15385434 L -1035.6 3.8461457 L -1027 7.446146 L -1018 11.246146 L -1007 15.246146 L -997.6 18.046146 L -988.6 20.646146 L -979.6 23.246146 L -974.2 24.646146 L -968.6 25.646146 L -965.6 19.246146 L -969.4 18.446146 L -974.2 17.246146 L -979.8 16.046146 L -985.8 14.246146 L -990.4 12.846146 L -994.6 11.646146 L -999.2 9.646146 L -1003.8 8.046146 L -1008.6 6.046146 L -1012.6 4.646146 L -1017.8 2.4461457 L -1022.4 .8461457 L -1027.2 -1.3538544 L -1032 -3.1538544 L -1036 -5.1538544 L -1040.4 -7.3538544 L -1044.8 -9.553854 L -1048.2 -11.153855 Z" stroke="#7f8080" stroke-linecap="round" stroke-linejoin="round" stroke-width="1"/>
      <path d="M -618.5947 -5.4972506 L -624.7947 -1.0972506 L -632.9947 2.9027495 L -641.5947 6.5027495 L -650.5947 10.30275 L -661.5947 14.30275 L -670.9947 17.10275 L -679.9947 19.70275 L -688.9947 22.30275 L -694.3947 23.70275 L -699.9947 24.70275 L -702.9947 18.30275 L -699.1947 17.50275 L -694.3947 16.30275 L -688.7947 15.10275 L -682.7947 13.30275 L -678.1947 11.90275 L -673.9947 10.70275 L -669.3947 8.70275 L -664.7947 7.1027496 L -659.9947 5.1027495 L -655.9947 3.7027495 L -650.7947 1.5027495 L -646.1947 -.09725055 L -641.3947 -2.2972506 L -636.5947 -4.0972506 L -632.5947 -6.097251 L -628.1947 -8.297251 L -623.7947 -10.497251 L -620.3947 -12.097251 Z" fill="black"/>
      <path d="M -618.5947 -5.4972506 L -624.7947 -1.0972506 L -632.9947 2.9027495 L -641.5947 6.5027495 L -650.5947 10.30275 L -661.5947 14.30275 L -670.9947 17.10275 L -679.9947 19.70275 L -688.9947 22.30275 L -694.3947 23.70275 L -699.9947 24.70275 L -702.9947 18.30275 L -699.1947 17.50275 L -694.3947 16.30275 L -688.7947 15.10275 L -682.7947 13.30275 L -678.1947 11.90275 L -673.9947 10.70275 L -669.3947 8.70275 L -664.7947 7.1027496 L -659.9947 5.1027495 L -655.9947 3.7027495 L -650.7947 1.5027495 L -646.1947 -.09725055 L -641.3947 -2.2972506 L -636.5947 -4.0972506 L -632.5947 -6.097251 L -628.1947 -8.297251 L -623.7947 -10.497251 L -620.3947 -12.097251 Z" stroke="#7f8080" stroke-linecap="round" stroke-linejoin="round" stroke-width="1"/>
      <path d="M -899.4279 -154.03621 L -904.157 -149.98264 C -905.3074 -148.99662 -906.5524 -148.1267 -907.8738 -147.38552 L -910.4004 -145.96835 C -911.8356 -145.16338 -912.4164 -143.39425 -911.7376 -141.89527 L -910.72 -139.64803 C -910.5984 -139.37954 -910.4717 -139.11342 -910.3399 -138.8498 L -908.5376 -135.24526 L -906.0506 -130.2713 C -905.7088 -129.5877 -905.3332 -128.92157 -904.925 -128.27537 L -902.5987 -124.59192 C -902.1583 -123.89465 -901.6807 -123.22158 -901.168 -122.57561 L -897.7574 -118.27815 C -897.2113 -117.59013 -896.6263 -116.93394 -896.0052 -116.31283 L -891.3391 -111.64679 C -890.9383 -111.24591 -890.5227 -110.85999 -890.0933 -110.48982 L -885.5298 -106.55574 C -885.1351 -106.21552 -884.729 -105.88881 -884.3122 -105.57617 L -880.3372 -102.59497 C -879.6713 -102.09553 -878.9788 -101.63262 -878.2627 -101.20826 L -874.1296 -98.75904 C -874.0016 -98.68319 -873.8729 -98.60859 -873.7434 -98.53523 L -869.0459 -95.87329 C -868.3076 -95.45493 -867.5467 -95.07774 -866.7667 -94.74347 L -863.2169 -93.22212 C -862.631 -92.97099 -862.0348 -92.74433 -861.43 -92.54274 L -856.4119 -90.87003 C -855.1647 -90.45429 -853.8841 -90.14624 -852.5842 -89.94929 L -848.4854 -89.32826 C -848.1202 -89.27294 -847.7539 -89.22642 -847.3865 -89.18874 L -840.5054 -88.48299 C -840.2602 -88.45784 -840.0147 -88.43664 -839.7688 -88.41938 L -835.2417 -88.10169 C -834.7058 -88.06409 -834.1688 -88.04527 -833.6316 -88.04527 L -830.3695 -88.04526 C -829.4158 -88.04526 -828.4631 -88.10458 -827.5167 -88.22287 L -823.528 -88.72146 C -822.8681 -88.80396 -822.212 -88.91504 -821.5616 -89.0544 L -815.4796 -90.35769 C -814.5857 -90.54924 -813.7041 -90.7939 -812.8393 -91.09039 L -808.3305 -92.63628 C -807.5358 -92.90873 -806.7567 -93.22451 -805.9966 -93.58221 L -801.1632 -95.85674 C -800.613 -96.11565 -800.0733 -96.39629 -799.5454 -96.69798 L -795.7775 -98.85104 C -795.0847 -99.24692 -794.413 -99.67858 -793.7651 -100.14428 L -789.0889 -103.50525 C -788.58825 -103.86511 -788.1022 -104.24497 -787.6321 -104.64389 L -782.3112 -109.15856 C -781.9289 -109.48294 -781.5573 -109.81974 -781.197 -110.16842 L -776.4978 -114.71604 C -775.8582 -115.335 -775.2551 -115.99056 -774.6915 -116.67942 L -770.8982 -121.31566 C -770.3915 -121.93497 -769.9174 -122.58031 -769.478 -123.24904 L -765.8608 -128.75344 C -765.6454 -129.08127 -765.4384 -129.41456 -765.24 -129.75298 L -762.7169 -134.05708 C -762.3309 -134.71546 -761.978 -135.39265 -761.6594 -136.08612 L -759.5407 -140.69739 C -759.0078 -141.85715 -758.6367 -143.08456 -758.4376 -144.34526 L -758.4376 -144.34526 C -758.2593 -145.47453 -758.8386 -146.58797 -759.8657 -147.0901 L -765.1591 -149.678 C -766.4736 -150.32063 -767.7082 -151.11514 -768.8376 -152.04526 L -769.2436 -152.37963 C -770.08795 -153.07496 -770.7114 -154.00126 -771.0376 -155.04526 L -771.0376 -155.04526 C -771.0843 -155.19458 -771.2431 -155.2778 -771.3925 -155.23114 C -771.5075 -155.19518 -771.5872 -155.09031 -771.5911 -154.96981 L -771.7003 -151.54689 C -771.7911 -148.70381 -772.4084 -145.90224 -773.521 -143.28433 L -774.3979 -141.22096 C -774.9565 -139.90669 -775.6363 -138.64729 -776.4284 -137.45909 L -780.1142 -131.93042 C -780.8617 -130.80915 -781.7063 -129.75575 -782.63825 -128.78238 L -788.9333 -122.20753 C -789.8014 -121.30087 -790.7422 -120.4668 -791.7464 -119.71367 L -800.1213 -113.4325 C -800.9977 -112.77518 -801.92 -112.18133 -802.881 -111.65546 L -810.0662 -107.72394 C -811.3774 -107.00653 -812.7553 -106.41863 -814.1805 -105.96857 L -820.8534 -103.86133 C -822.5703 -103.31916 -824.3449 -102.98046 -826.1407 -102.85219 L -833.0272 -102.3603 C -834.0995 -102.2837 -835.1758 -102.28238 -836.2483 -102.35635 L -844.6846 -102.93816 C -845.7187 -103.00948 -846.7469 -103.15064 -847.7621 -103.36067 L -854.8973 -104.83692 C -856.8492 -105.24077 -858.7404 -105.89665 -860.5232 -106.78808 L -865.1827 -109.11779 C -866.4168 -109.73485 -867.5929 -110.46173 -868.6967 -111.28961 L -874.3787 -115.55108 C -874.8178 -115.88043 -875.245 -116.2254 -875.6595 -116.58532 L -881.4147 -121.58324 C -882.229 -122.29038 -882.9925 -123.05392 -883.6996 -123.8682 L -888.1049 -128.94089 C -888.859 -129.80925 -889.5469 -130.73295 -890.1628 -131.70422 L -893.8965 -137.59198 C -894.2571 -138.16056 -894.5925 -138.7447 -894.9018 -139.34272 L -896.5222 -142.47544 C -897.1313 -143.65312 -897.6375 -144.88126 -898.035 -146.14615 L -899.3153 -150.21964 C -899.53 -150.90302 -899.7128 -151.59605 -899.8629 -152.29649 L -900.0883 -153.34843 C -900.1734 -153.74544 -899.947 -154.1431 -899.5622 -154.27263 L -899.5622 -154.27263 C -899.4897 -154.29704 -899.4112 -154.25805 -899.3868 -154.18556 C -899.3687 -154.13205 -899.385 -154.07296 -899.4279 -154.03621 Z" fill="black"/>
      <path d="M -899.4279 -154.03621 L -904.157 -149.98264 C -905.3074 -148.99662 -906.5524 -148.1267 -907.8738 -147.38552 L -910.4004 -145.96835 C -911.8356 -145.16338 -912.4164 -143.39425 -911.7376 -141.89527 L -910.72 -139.64803 C -910.5984 -139.37954 -910.4717 -139.11342 -910.3399 -138.8498 L -908.5376 -135.24526 L -906.0506 -130.2713 C -905.7088 -129.5877 -905.3332 -128.92157 -904.925 -128.27537 L -902.5987 -124.59192 C -902.1583 -123.89465 -901.6807 -123.22158 -901.168 -122.57561 L -897.7574 -118.27815 C -897.2113 -117.59013 -896.6263 -116.93394 -896.0052 -116.31283 L -891.3391 -111.64679 C -890.9383 -111.24591 -890.5227 -110.85999 -890.0933 -110.48982 L -885.5298 -106.55574 C -885.1351 -106.21552 -884.729 -105.88881 -884.3122 -105.57617 L -880.3372 -102.59497 C -879.6713 -102.09553 -878.9788 -101.63262 -878.2627 -101.20826 L -874.1296 -98.75904 C -874.0016 -98.68319 -873.8729 -98.60859 -873.7434 -98.53523 L -869.0459 -95.87329 C -868.3076 -95.45493 -867.5467 -95.07774 -866.7667 -94.74347 L -863.2169 -93.22212 C -862.631 -92.97099 -862.0348 -92.74433 -861.43 -92.54274 L -856.4119 -90.87003 C -855.1647 -90.45429 -853.8841 -90.14624 -852.5842 -89.94929 L -848.4854 -89.32826 C -848.1202 -89.27294 -847.7539 -89.22642 -847.3865 -89.18874 L -840.5054 -88.48299 C -840.2602 -88.45784 -840.0147 -88.43664 -839.7688 -88.41938 L -835.2417 -88.10169 C -834.7058 -88.06409 -834.1688 -88.04527 -833.6316 -88.04527 L -830.3695 -88.04526 C -829.4158 -88.04526 -828.4631 -88.10458 -827.5167 -88.22287 L -823.528 -88.72146 C -822.8681 -88.80396 -822.212 -88.91504 -821.5616 -89.0544 L -815.4796 -90.35769 C -814.5857 -90.54924 -813.7041 -90.7939 -812.8393 -91.09039 L -808.3305 -92.63628 C -807.5358 -92.90873 -806.7567 -93.22451 -805.9966 -93.58221 L -801.1632 -95.85674 C -800.613 -96.11565 -800.0733 -96.39629 -799.5454 -96.69798 L -795.7775 -98.85104 C -795.0847 -99.24692 -794.413 -99.67858 -793.7651 -100.14428 L -789.0889 -103.50525 C -788.58825 -103.86511 -788.1022 -104.24497 -787.6321 -104.64389 L -782.3112 -109.15856 C -781.9289 -109.48294 -781.5573 -109.81974 -781.197 -110.16842 L -776.4978 -114.71604 C -775.8582 -115.335 -775.2551 -115.99056 -774.6915 -116.67942 L -770.8982 -121.31566 C -770.3915 -121.93497 -769.9174 -122.58031 -769.478 -123.24904 L -765.8608 -128.75344 C -765.6454 -129.08127 -765.4384 -129.41456 -765.24 -129.75298 L -762.7169 -134.05708 C -762.3309 -134.71546 -761.978 -135.39265 -761.6594 -136.08612 L -759.5407 -140.69739 C -759.0078 -141.85715 -758.6367 -143.08456 -758.4376 -144.34526 L -758.4376 -144.34526 C -758.2593 -145.47453 -758.8386 -146.58797 -759.8657 -147.0901 L -765.1591 -149.678 C -766.4736 -150.32063 -767.7082 -151.11514 -768.8376 -152.04526 L -769.2436 -152.37963 C -770.08795 -153.07496 -770.7114 -154.00126 -771.0376 -155.04526 L -771.0376 -155.04526 C -771.0843 -155.19458 -771.2431 -155.2778 -771.3925 -155.23114 C -771.5075 -155.19518 -771.5872 -155.09031 -771.5911 -154.96981 L -771.7003 -151.54689 C -771.7911 -148.70381 -772.4084 -145.90224 -773.521 -143.28433 L -774.3979 -141.22096 C -774.9565 -139.90669 -775.6363 -138.64729 -776.4284 -137.45909 L -780.1142 -131.93042 C -780.8617 -130.80915 -781.7063 -129.75575 -782.63825 -128.78238 L -788.9333 -122.20753 C -789.8014 -121.30087 -790.7422 -120.4668 -791.7464 -119.71367 L -800.1213 -113.4325 C -800.9977 -112.77518 -801.92 -112.18133 -802.881 -111.65546 L -810.0662 -107.72394 C -811.3774 -107.00653 -812.7553 -106.41863 -814.1805 -105.96857 L -820.8534 -103.86133 C -822.5703 -103.31916 -824.3449 -102.98046 -826.1407 -102.85219 L -833.0272 -102.3603 C -834.0995 -102.2837 -835.1758 -102.28238 -836.2483 -102.35635 L -844.6846 -102.93816 C -845.7187 -103.00948 -846.7469 -103.15064 -847.7621 -103.36067 L -854.8973 -104.83692 C -856.8492 -105.24077 -858.7404 -105.89665 -860.5232 -106.78808 L -865.1827 -109.11779 C -866.4168 -109.73485 -867.5929 -110.46173 -868.6967 -111.28961 L -874.3787 -115.55108 C -874.8178 -115.88043 -875.245 -116.2254 -875.6595 -116.58532 L -881.4147 -121.58324 C -882.229 -122.29038 -882.9925 -123.05392 -883.6996 -123.8682 L -888.1049 -128.94089 C -888.859 -129.80925 -889.5469 -130.73295 -890.1628 -131.70422 L -893.8965 -137.59198 C -894.2571 -138.16056 -894.5925 -138.7447 -894.9018 -139.34272 L -896.5222 -142.47544 C -897.1313 -143.65312 -897.6375 -144.88126 -898.035 -146.14615 L -899.3153 -150.21964 C -899.53 -150.90302 -899.7128 -151.59605 -899.8629 -152.29649 L -900.0883 -153.34843 C -900.1734 -153.74544 -899.947 -154.1431 -899.5622 -154.27263 L -899.5622 -154.27263 C -899.4897 -154.29704 -899.4112 -154.25805 -899.3868 -154.18556 C -899.3687 -154.13205 -899.385 -154.07296 -899.4279 -154.03621 Z" stroke="#7f8080" stroke-linecap="round" stroke-linejoin="round" stroke-width="1"/>
      <path d="M -899.9408 -154.2441 L -894.5408 -154.8441 L -887.7408 -151.4441 L -882.7408 -149.6441 L -874.3408 -147.8441 L -865.9408 -146.8441 L -857.9408 -145.8441 L -850.3408 -145.6441 L -841.7408 -145.2441 L -830.1408 -145.4441 L -821.7408 -145.8441 L -812.34075 -146.4441 L -803.94075 -147.2441 L -794.74075 -148.6441 L -786.54075 -150.8441 L -780.74075 -152.6441 L -775.14075 -155.2441 L -772.34075 -154.0441 L -771.94075 -148.4441 L -774.74075 -140.4441 L -780.14075 -137.6441 L -790.74075 -134.4441 L -802.14075 -132.0441 L -813.34075 -131.2441 L -825.7408 -130.2441 L -836.1408 -130.2441 L -845.5408 -130.2441 L -857.1408 -130.8441 L -868.3408 -131.6441 L -878.9408 -133.8441 L -887.5408 -135.8441 L -893.7408 -138.6441 L -895.7408 -140.2441 L -898.9408 -147.8441 Z" fill="black"/>
      <path d="M -899.9408 -154.2441 L -894.5408 -154.8441 L -887.7408 -151.4441 L -882.7408 -149.6441 L -874.3408 -147.8441 L -865.9408 -146.8441 L -857.9408 -145.8441 L -850.3408 -145.6441 L -841.7408 -145.2441 L -830.1408 -145.4441 L -821.7408 -145.8441 L -812.34075 -146.4441 L -803.94075 -147.2441 L -794.74075 -148.6441 L -786.54075 -150.8441 L -780.74075 -152.6441 L -775.14075 -155.2441 L -772.34075 -154.0441 L -771.94075 -148.4441 L -774.74075 -140.4441 L -780.14075 -137.6441 L -790.74075 -134.4441 L -802.14075 -132.0441 L -813.34075 -131.2441 L -825.7408 -130.2441 L -836.1408 -130.2441 L -845.5408 -130.2441 L -857.1408 -130.8441 L -868.3408 -131.6441 L -878.9408 -133.8441 L -887.5408 -135.8441 L -893.7408 -138.6441 L -895.7408 -140.2441 L -898.9408 -147.8441 Z" stroke="#7f8080" stroke-linecap="round" stroke-linejoin="round" stroke-width="1"/>
      <path d="M -970.1868 271.2 L -970.1868 271.2 C -970.2525 271.7255 -970.1896 272.25905 -970.0037 272.7549 L -969.3527 274.49092 C -969.1759 274.96227 -968.9489 275.41318 -968.6754 275.83582 L -967.7076 277.33153 C -967.1666 278.16756 -966.4535 278.87855 -965.6159 279.41702 L -964.5378 280.11005 C -964.2376 280.30307 -963.923 280.47285 -963.5968 280.6179 L -962.28 281.2035 C -961.6835 281.46876 -961.0528 281.64928 -960.4062 281.7398 L -951.3958 283.00126 C -951.3858 283.00265 -951.3758 283.00403 -951.3658 283.0054 L -939.6498 284.594 C -939.6038 284.60024 -939.5577 284.606 -939.5116 284.61134 L -929.2287 285.79783 C -929.1968 285.8015 -929.1648 285.80498 -929.1328 285.80822 L -915.4228 287.1991 C -915.3948 287.20193 -915.3668 287.2046 -915.3388 287.2071 L -904.2335 288.19865 C -904.1984 288.2018 -904.1632 288.20466 -904.128 288.20726 L -893.4415 288.99886 C -893.401 289.00185 -893.3605 289.0045 -893.32 289.0068 L -882.812 289.6016 C -882.7912 289.60276 -882.7704 289.60404 -882.7496 289.6054 L -870.7068 290.3951 C -870.6228 290.4006 -870.5387 290.4046 -870.4546 290.40707 L -857.0074 290.80257 C -856.9897 290.8031 -856.9719 290.8037 -856.9542 290.80434 L -846.3103 291.19856 C -846.224 291.20176 -846.1376 291.20335 -846.0512 291.20335 L -835.4422 291.20335 C -835.4013 291.20335 -835.3603 291.2037 -835.3194 291.20443 L -824.233 291.39893 C -824.0649 291.40188 -823.8968 291.39877 -823.7289 291.3896 L -813.1077 290.81028 C -813.0231 290.80566 -812.9384 290.8026 -812.8537 290.80104 L -802.08915 290.60532 C -802.0169 290.604 -801.9447 290.60158 -801.8726 290.59803 L -789.8539 290.00695 C -789.8052 290.00455 -789.7564 290.00165 -789.70775 289.99823 L -778.4677 289.20945 C -778.4098 289.2054 -778.3519 289.2006 -778.2941 289.1951 L -765.8835 288.01313 C -765.815 288.0066 -765.7465 288.0011 -765.6779 287.9966 L -753.7458 287.21418 C -753.6358 287.20696 -753.526 287.19715 -753.41645 287.18475 L -743.0041 286.006 C -742.9886 286.00423 -742.973 286.00242 -742.9575 286.00056 L -733.0098 284.80683 C -732.9905 284.8045 -732.9711 284.8021 -732.9518 284.79963 L -719.1161 283.0221 C -719.01885 283.0096 -718.9219 282.99507 -718.8253 282.9785 L -712.2718 281.85506 C -712.07085 281.8206 -711.8685 281.79495 -711.6653 281.77817 L -708.4329 281.5112 C -707.5437 281.43775 -706.6767 281.19497 -705.87865 280.79594 L -704.39235 280.0528 C -703.7918 279.7525 -703.2375 279.36735 -702.7466 278.9092 L -701.4115 277.66308 C -700.8047 277.0967 -700.3493 276.38747 -700.0868 275.6 L -699.79195 274.71552 C -699.7219 274.5053 -699.6618 274.29187 -699.612 274.07595 L -699.1423 272.04056 C -699.1071 271.88792 -699.1405 271.72752 -699.2338 271.60168 L -699.2338 271.60168 C -699.3241 271.4798 -699.4748 271.4183 -699.6246 271.44214 L -708.10445 272.7912 C -708.15534 272.7993 -708.20615 272.80796 -708.25685 272.81718 L -721.2416 275.17805 C -721.3344 275.19492 -721.4275 275.2099 -721.5209 275.223 L -732.7506 276.7991 C -732.7707 276.80194 -732.79086 276.80486 -732.811 276.80786 L -745.9801 278.7734 C -746.1139 278.79337 -746.2482 278.80945 -746.3829 278.82163 L -756.8913 279.77208 C -757.097 279.7907 -757.3034 279.80018 -757.51 279.80053 L -758.94395 279.80295 C -759.1018 279.80322 -759.2596 279.80883 -759.4171 279.81976 L -773.5469 280.801 C -773.5695 280.80257 -773.5921 280.80403 -773.6147 280.80538 L -786.9179 281.5996 C -786.9598 281.6021 -787.0018 281.60423 -787.0437 281.60597 L -801.23515 282.1973 C -801.3322 282.20133 -801.4294 282.20335 -801.5266 282.20335 L -814.7808 282.20335 L -827.3225 282.20335 C -827.3614 282.20335 -827.4002 282.20368 -827.4391 282.20433 L -839.1975 282.4003 C -839.3197 282.40234 -839.4419 282.40117 -839.564 282.3968 L -850.3976 282.0099 C -850.5197 282.00554 -850.6419 282.00437 -850.7641 282.0064 L -862.4787 282.20165 C -862.5468 282.2028 -862.6148 282.20293 -862.6829 282.20208 L -878.3852 282.0058 C -878.5156 282.00417 -878.6459 281.9989 -878.776 281.99 L -893.0858 281.00986 C -893.1491 281.00552 -893.2124 281.00032 -893.2756 280.99426 L -907.7666 279.6047 C -907.7761 279.6038 -907.7855 279.60288 -907.795 279.60194 L -921.607 278.22073 C -921.7228 278.20915 -921.8384 278.19468 -921.9535 278.17733 L -936.2627 276.02116 C -936.3414 276.0093 -936.4204 275.99877 -936.4995 275.9896 L -950.0194 274.42207 C -950.127 274.4096 -950.2343 274.39463 -950.3411 274.37718 L -959.7332 272.84377 C -959.8982 272.81684 -960.0622 272.784 -960.2248 272.74532 L -969.3024 270.58654 C -969.6908 270.4942 -970.0804 270.73412 -970.1728 271.12244 C -970.1788 271.14802 -970.1835 271.17392 -970.1868 271.2 Z" fill="blue"/>
      <path d="M -970.1868 271.2 L -970.1868 271.2 C -970.2525 271.7255 -970.1896 272.25905 -970.0037 272.7549 L -969.3527 274.49092 C -969.1759 274.96227 -968.9489 275.41318 -968.6754 275.83582 L -967.7076 277.33153 C -967.1666 278.16756 -966.4535 278.87855 -965.6159 279.41702 L -964.5378 280.11005 C -964.2376 280.30307 -963.923 280.47285 -963.5968 280.6179 L -962.28 281.2035 C -961.6835 281.46876 -961.0528 281.64928 -960.4062 281.7398 L -951.3958 283.00126 C -951.3858 283.00265 -951.3758 283.00403 -951.3658 283.0054 L -939.6498 284.594 C -939.6038 284.60024 -939.5577 284.606 -939.5116 284.61134 L -929.2287 285.79783 C -929.1968 285.8015 -929.1648 285.80498 -929.1328 285.80822 L -915.4228 287.1991 C -915.3948 287.20193 -915.3668 287.2046 -915.3388 287.2071 L -904.2335 288.19865 C -904.1984 288.2018 -904.1632 288.20466 -904.128 288.20726 L -893.4415 288.99886 C -893.401 289.00185 -893.3605 289.0045 -893.32 289.0068 L -882.812 289.6016 C -882.7912 289.60276 -882.7704 289.60404 -882.7496 289.6054 L -870.7068 290.3951 C -870.6228 290.4006 -870.5387 290.4046 -870.4546 290.40707 L -857.0074 290.80257 C -856.9897 290.8031 -856.9719 290.8037 -856.9542 290.80434 L -846.3103 291.19856 C -846.224 291.20176 -846.1376 291.20335 -846.0512 291.20335 L -835.4422 291.20335 C -835.4013 291.20335 -835.3603 291.2037 -835.3194 291.20443 L -824.233 291.39893 C -824.0649 291.40188 -823.8968 291.39877 -823.7289 291.3896 L -813.1077 290.81028 C -813.0231 290.80566 -812.9384 290.8026 -812.8537 290.80104 L -802.08915 290.60532 C -802.0169 290.604 -801.9447 290.60158 -801.8726 290.59803 L -789.8539 290.00695 C -789.8052 290.00455 -789.7564 290.00165 -789.70775 289.99823 L -778.4677 289.20945 C -778.4098 289.2054 -778.3519 289.2006 -778.2941 289.1951 L -765.8835 288.01313 C -765.815 288.0066 -765.7465 288.0011 -765.6779 287.9966 L -753.7458 287.21418 C -753.6358 287.20696 -753.526 287.19715 -753.41645 287.18475 L -743.0041 286.006 C -742.9886 286.00423 -742.973 286.00242 -742.9575 286.00056 L -733.0098 284.80683 C -732.9905 284.8045 -732.9711 284.8021 -732.9518 284.79963 L -719.1161 283.0221 C -719.01885 283.0096 -718.9219 282.99507 -718.8253 282.9785 L -712.2718 281.85506 C -712.07085 281.8206 -711.8685 281.79495 -711.6653 281.77817 L -708.4329 281.5112 C -707.5437 281.43775 -706.6767 281.19497 -705.87865 280.79594 L -704.39235 280.0528 C -703.7918 279.7525 -703.2375 279.36735 -702.7466 278.9092 L -701.4115 277.66308 C -700.8047 277.0967 -700.3493 276.38747 -700.0868 275.6 L -699.79195 274.71552 C -699.7219 274.5053 -699.6618 274.29187 -699.612 274.07595 L -699.1423 272.04056 C -699.1071 271.88792 -699.1405 271.72752 -699.2338 271.60168 L -699.2338 271.60168 C -699.3241 271.4798 -699.4748 271.4183 -699.6246 271.44214 L -708.10445 272.7912 C -708.15534 272.7993 -708.20615 272.80796 -708.25685 272.81718 L -721.2416 275.17805 C -721.3344 275.19492 -721.4275 275.2099 -721.5209 275.223 L -732.7506 276.7991 C -732.7707 276.80194 -732.79086 276.80486 -732.811 276.80786 L -745.9801 278.7734 C -746.1139 278.79337 -746.2482 278.80945 -746.3829 278.82163 L -756.8913 279.77208 C -757.097 279.7907 -757.3034 279.80018 -757.51 279.80053 L -758.94395 279.80295 C -759.1018 279.80322 -759.2596 279.80883 -759.4171 279.81976 L -773.5469 280.801 C -773.5695 280.80257 -773.5921 280.80403 -773.6147 280.80538 L -786.9179 281.5996 C -786.9598 281.6021 -787.0018 281.60423 -787.0437 281.60597 L -801.23515 282.1973 C -801.3322 282.20133 -801.4294 282.20335 -801.5266 282.20335 L -814.7808 282.20335 L -827.3225 282.20335 C -827.3614 282.20335 -827.4002 282.20368 -827.4391 282.20433 L -839.1975 282.4003 C -839.3197 282.40234 -839.4419 282.40117 -839.564 282.3968 L -850.3976 282.0099 C -850.5197 282.00554 -850.6419 282.00437 -850.7641 282.0064 L -862.4787 282.20165 C -862.5468 282.2028 -862.6148 282.20293 -862.6829 282.20208 L -878.3852 282.0058 C -878.5156 282.00417 -878.6459 281.9989 -878.776 281.99 L -893.0858 281.00986 C -893.1491 281.00552 -893.2124 281.00032 -893.2756 280.99426 L -907.7666 279.6047 C -907.7761 279.6038 -907.7855 279.60288 -907.795 279.60194 L -921.607 278.22073 C -921.7228 278.20915 -921.8384 278.19468 -921.9535 278.17733 L -936.2627 276.02116 C -936.3414 276.0093 -936.4204 275.99877 -936.4995 275.9896 L -950.0194 274.42207 C -950.127 274.4096 -950.2343 274.39463 -950.3411 274.37718 L -959.7332 272.84377 C -959.8982 272.81684 -960.0622 272.784 -960.2248 272.74532 L -969.3024 270.58654 C -969.6908 270.4942 -970.0804 270.73412 -970.1728 271.12244 C -970.1788 271.14802 -970.1835 271.17392 -970.1868 271.2 Z" stroke="#7f8080" stroke-linecap="round" stroke-linejoin="round" stroke-width="1"/>
    </g>
  </g>
</svg>
