<?xml version="1.0" encoding="UTF-8" standalone="no"?>
<!DOCTYPE svg PUBLIC "-//W3C//DTD SVG 1.1//EN" "http://www.w3.org/Graphics/SVG/1.1/DTD/svg11.dtd">
<svg xmlns="http://www.w3.org/2000/svg" xmlns:xl="http://www.w3.org/1999/xlink" version="1.1" viewBox="-96.5 -514.5 432.4053 448.4" width="432.4053pt" height="448.4pt" xmlns:dc="http://purl.org/dc/elements/1.1/">
  <metadata> Produced by OmniGraffle 7.4.2 
    <dc:date>2018-03-14 21:03:07 +0000</dc:date>
  </metadata>
  <defs>
    <radialGradient cx="0" cy="0" r="1" id="Gradient" gradientUnits="userSpaceOnUse">
      <stop offset="0" stop-color="white"/>
      <stop offset="1" stop-color="#171605"/>
    </radialGradient>
    <radialGradient id="Obj_Gradient" xl:href="#Gradient" gradientTransform="translate(118.75925 -486.6) scale(70.26272)"/>
    <linearGradient x1="0" x2="1" id="Gradient_2" gradientUnits="userSpaceOnUse">
      <stop offset="0" stop-color="#009051"/>
      <stop offset="1" stop-color="#333"/>
    </linearGradient>
    <linearGradient id="Obj_Gradient_2" xl:href="#Gradient_2" gradientTransform="translate(119.70264 -512.7183) rotate(90) scale(446.1183)"/>
    <linearGradient x1="0" x2="1" id="Gradient_3" gradientUnits="userSpaceOnUse">
      <stop offset="0" stop-color="white"/>
      <stop offset="1" stop-color="#ddf5d4"/>
    </linearGradient>
    <linearGradient id="Obj_Gradient_3" xl:href="#Gradient_3" gradientTransform="translate(118.05925 -513.2441) rotate(90) scale(25)"/>
    <linearGradient x1="0" x2="1" id="Gradient_4" gradientUnits="userSpaceOnUse">
      <stop offset="0" stop-color="white"/>
      <stop offset="1" stop-color="#333"/>
    </linearGradient>
    <linearGradient id="Obj_Gradient_4" xl:href="#Gradient_4" gradientTransform="translate(119.32968 -87.43323) rotate(90) scale(20.833242)"/>
  </defs>
  <g stroke="none" stroke-opacity="1" stroke-dasharray="none" fill="none" fill-opacity="1">
    <title>werderbremen</title>
    <rect fill="white" width="432.4053" height="448.4"/>
    <g>
      <title>Layer 1</title>
      <path d="M 57.005654 -513.40955 L 65.17111 -510.29184 C 66.0291 -509.96424 66.90594 -509.6883 67.79692 -509.4656 L 81.5141 -506.0363 C 82.67576 -505.7459 83.85832 -505.5466 85.051 -505.44034 L 102.57715 -503.8786 C 103.165 -503.8262 103.75464 -503.7965 104.34478 -503.78946 L 119.8237 -503.6052 C 120.11404 -503.6017 120.40442 -503.6038 120.69469 -503.6113 L 135.118 -503.98594 C 135.47878 -503.9953 135.8393 -504.0132 136.19924 -504.0395 L 150.57053 -505.09107 C 151.56197 -505.1636 152.54766 -505.30036 153.5214 -505.50044 L 165.09436 -507.87845 C 166.13637 -508.09256 167.16226 -508.3787 168.16465 -508.7348 L 179.91664 -512.90986 C 181.00702 -513.29723 182.21021 -512.76646 182.65925 -511.7 L 182.65925 -511.7 C 183.1814 -510.4599 183.33338 -509.09515 183.09685 -507.77055 L 182.91637 -506.75986 C 182.6126 -505.0587 182.11806 -503.3972 181.44214 -501.8068 L 179.89892 -498.1757 C 179.34035 -496.8614 178.6606 -495.602 177.86846 -494.4138 L 174.18268 -488.88515 C 173.43517 -487.7639 172.59057 -486.7105 171.65861 -485.7371 L 165.36354 -479.16226 C 164.49547 -478.2556 163.55463 -477.42154 162.55046 -476.6684 L 154.17555 -470.38723 C 153.29914 -469.7299 152.37688 -469.13606 151.41582 -468.6102 L 144.23062 -464.67867 C 142.9195 -463.96126 141.54156 -463.37336 140.11638 -462.9233 L 133.44347 -460.81607 C 131.7266 -460.2739 129.952 -459.9352 128.15613 -459.8069 L 121.26968 -459.31503 C 120.19738 -459.23844 119.12103 -459.2371 118.04854 -459.3111 L 109.61229 -459.8929 C 108.57811 -459.9642 107.54994 -460.1054 106.53481 -460.3154 L 99.3996 -461.79165 C 97.44765 -462.1955 95.55647 -462.8514 93.77362 -463.7428 L 89.11421 -466.0725 C 87.88007 -466.6896 86.70397 -467.41646 85.60012 -468.24434 L 79.91816 -472.5058 C 79.47903 -472.83517 79.05182 -473.18013 78.63737 -473.54005 L 72.88219 -478.538 C 72.0679 -479.2451 71.30436 -480.00865 70.59722 -480.82294 L 66.191995 -485.8956 C 65.43789 -486.764 64.749984 -487.6877 64.13406 -488.65895 L 60.40036 -494.5467 C 60.03979 -495.1153 59.704365 -495.69944 59.39505 -496.29745 L 57.774675 -499.4302 C 57.16553 -500.60785 56.65936 -501.836 56.261825 -503.1009 L 54.981586 -507.1744 C 54.76681 -507.85775 54.58408 -508.5508 54.433986 -509.2512 L 54.35925 -509.6 C 54.164585 -510.5084 54.271846 -511.45557 54.66473 -512.29746 L 54.75925 -512.5 C 55.153724 -513.3453 56.134195 -513.7423 57.005654 -513.40955 Z" fill="url(#Obj_Gradient)"/>
      <path d="M 57.005654 -513.40955 L 65.17111 -510.29184 C 66.0291 -509.96424 66.90594 -509.6883 67.79692 -509.4656 L 81.5141 -506.0363 C 82.67576 -505.7459 83.85832 -505.5466 85.051 -505.44034 L 102.57715 -503.8786 C 103.165 -503.8262 103.75464 -503.7965 104.34478 -503.78946 L 119.8237 -503.6052 C 120.11404 -503.6017 120.40442 -503.6038 120.69469 -503.6113 L 135.118 -503.98594 C 135.47878 -503.9953 135.8393 -504.0132 136.19924 -504.0395 L 150.57053 -505.09107 C 151.56197 -505.1636 152.54766 -505.30036 153.5214 -505.50044 L 165.09436 -507.87845 C 166.13637 -508.09256 167.16226 -508.3787 168.16465 -508.7348 L 179.91664 -512.90986 C 181.00702 -513.29723 182.21021 -512.76646 182.65925 -511.7 L 182.65925 -511.7 C 183.1814 -510.4599 183.33338 -509.09515 183.09685 -507.77055 L 182.91637 -506.75986 C 182.6126 -505.0587 182.11806 -503.3972 181.44214 -501.8068 L 179.89892 -498.1757 C 179.34035 -496.8614 178.6606 -495.602 177.86846 -494.4138 L 174.18268 -488.88515 C 173.43517 -487.7639 172.59057 -486.7105 171.65861 -485.7371 L 165.36354 -479.16226 C 164.49547 -478.2556 163.55463 -477.42154 162.55046 -476.6684 L 154.17555 -470.38723 C 153.29914 -469.7299 152.37688 -469.13606 151.41582 -468.6102 L 144.23062 -464.67867 C 142.9195 -463.96126 141.54156 -463.37336 140.11638 -462.9233 L 133.44347 -460.81607 C 131.7266 -460.2739 129.952 -459.9352 128.15613 -459.8069 L 121.26968 -459.31503 C 120.19738 -459.23844 119.12103 -459.2371 118.04854 -459.3111 L 109.61229 -459.8929 C 108.57811 -459.9642 107.54994 -460.1054 106.53481 -460.3154 L 99.3996 -461.79165 C 97.44765 -462.1955 95.55647 -462.8514 93.77362 -463.7428 L 89.11421 -466.0725 C 87.88007 -466.6896 86.70397 -467.41646 85.60012 -468.24434 L 79.91816 -472.5058 C 79.47903 -472.83517 79.05182 -473.18013 78.63737 -473.54005 L 72.88219 -478.538 C 72.0679 -479.2451 71.30436 -480.00865 70.59722 -480.82294 L 66.191995 -485.8956 C 65.43789 -486.764 64.749984 -487.6877 64.13406 -488.65895 L 60.40036 -494.5467 C 60.03979 -495.1153 59.704365 -495.69944 59.39505 -496.29745 L 57.774675 -499.4302 C 57.16553 -500.60785 56.65936 -501.836 56.261825 -503.1009 L 54.981586 -507.1744 C 54.76681 -507.85775 54.58408 -508.5508 54.433986 -509.2512 L 54.35925 -509.6 C 54.164585 -510.5084 54.271846 -511.45557 54.66473 -512.29746 L 54.75925 -512.5 C 55.153724 -513.3453 56.134195 -513.7423 57.005654 -513.40955 Z" stroke="#7f8080" stroke-linecap="round" stroke-linejoin="round" stroke-width="1"/>
      <path d="M -7.0265446 -76.73621 L 6.715696 -74.44584 C 6.8990725 -74.41528 7.082968 -74.38791 7.267298 -74.36376 L 35.62094 -70.648455 C 35.86747 -70.61615 36.114715 -70.5896 36.36248 -70.56882 L 66.60537 -68.03232 C 66.862274 -68.01077 67.11966 -67.99544 67.37731 -67.98633 L 106.30822 -66.60998 C 106.49658 -66.60332 106.68504 -66.59999 106.87352 -66.59999 L 138.34084 -66.59999 C 138.50746 -66.59999 138.67407 -66.602596 138.8406 -66.6078 L 163.87539 -67.39014 C 164.08563 -67.39671 164.29573 -67.40742 164.50555 -67.42228 L 186.5533 -68.98318 C 186.71161 -68.99439 186.86975 -69.00795 187.02766 -69.023865 L 212.28815 -71.569495 C 212.4899 -71.589825 212.69122 -71.61399 212.89204 -71.64197 L 236.68474 -74.95735 C 236.88875 -74.98578 237.0922 -75.01814 237.29496 -75.05442 L 246.49079 -76.69999 C 251.8179 -77.653265 255.46876 -82.60691 254.80234 -87.97745 L 252.59475 -105.76802 C 252.5921 -105.78934 252.5895 -105.81066 252.58695 -105.83199 L 249.02312 -135.53051 C 249.00157 -135.71015 248.98306 -135.89015 248.9676 -136.07042 L 246.6054 -163.62963 C 246.59565 -163.7432 246.58713 -163.85688 246.57983 -163.97064 L 245.1932 -185.56228 C 245.1916 -185.58742 245.18992 -185.61256 245.18818 -185.6377 L 243.59603 -208.72401 C 243.59253 -208.77467 243.58928 -208.82534 243.58627 -208.87602 L 242.4099 -228.6782 C 242.39716 -228.8927 242.38874 -229.10745 242.38465 -229.3223 L 241.99236 -249.91715 C 241.9913 -249.97238 241.98997 -250.0276 241.98835 -250.08282 L 241.39322 -270.31717 C 241.3916 -270.3724 241.39026 -270.4276 241.3892 -270.48285 L 240.99855 -290.9924 C 240.99337 -291.2641 240.99512 -291.53587 241.0038 -291.80747 L 241.58973 -310.1671 C 241.59044 -310.18903 241.59118 -310.21097 241.59197 -310.2329 L 242.38005 -332.1022 C 242.3872 -332.3007 242.39806 -332.49907 242.4126 -332.69717 L 243.97007 -353.9178 C 243.98388 -354.1059 243.99436 -354.29427 244.0015 -354.48276 L 244.75596 -374.38163 C 244.77915 -374.99337 244.83744 -375.6033 244.93052 -376.20835 L 247.66953 -394.01187 C 247.7503 -394.53696 247.8572 -395.0577 247.9898 -395.57217 L 252.61806 -413.52983 C 252.73316 -413.9764 252.8675 -414.4178 253.02073 -414.85275 L 258.74152 -431.0924 C 258.9076 -431.56387 259.0957 -432.0273 259.30517 -432.48117 L 264.83673 -444.4662 C 264.93942 -444.6887 265.0472 -444.9088 265.16 -445.12636 L 270.52223 -455.4678 C 270.56793 -455.5559 270.61446 -455.64364 270.6618 -455.7309 L 275.87777 -465.3479 C 276.61505 -466.70724 277.56468 -467.94013 278.6908 -469 L 278.6908 -469 C 279.36598 -469.63547 279.39817 -470.698 278.7627 -471.37316 C 278.6382 -471.50544 278.49307 -471.61663 278.33295 -471.7024 L 275.1188 -473.42427 C 274.90016 -473.5414 274.6788 -473.65344 274.45494 -473.7603 L 266.60097 -477.5088 C 266.19436 -477.70284 265.77974 -477.87964 265.3582 -478.0387 L 255.68338 -481.6896 C 255.48833 -481.7632 255.29187 -481.83297 255.0941 -481.8989 L 242.39963 -486.1304 C 242.2604 -486.1768 242.12055 -486.2213 241.9801 -486.26384 L 229.09658 -490.16794 C 229.02605 -490.1893 228.95567 -490.2112 228.88544 -490.2335 L 216.38144 -494.21206 C 215.98782 -494.3373 215.5992 -494.47775 215.21643 -494.63307 L 203.2405 -499.4929 C 202.40883 -499.83036 201.60704 -500.2372 200.8436 -500.70917 L 191.22436 -506.6556 C 191.06865 -506.75186 190.91461 -506.8508 190.7623 -506.9523 L 185.8722 -510.2124 C 184.89081 -510.86665 184.0195 -511.67255 183.29078 -512.6 L 183.29078 -512.6 C 183.18518 -512.7344 182.99062 -512.75775 182.85621 -512.65215 C 182.75347 -512.5714 182.7125 -512.4349 182.75381 -512.3109 L 182.89078 -511.9 C 183.35003 -510.52225 183.4546 -509.05096 183.1948 -507.6221 L 182.79967 -505.44885 C 182.52845 -503.9572 182.0466 -502.51165 181.36858 -501.1556 L 179.83626 -498.09096 C 179.53956 -497.49756 179.20624 -496.9232 178.83823 -496.3712 L 175.63453 -491.5656 C 175.20593 -490.9227 174.73132 -490.3117 174.21443 -489.7374 L 169.65238 -484.66844 C 169.61132 -484.6228 169.56999 -484.5774 169.5284 -484.53227 L 163.53417 -478.02424 C 162.90643 -477.3427 162.22068 -476.717 161.48465 -476.15413 L 156.46047 -472.3121 C 156.01432 -471.97094 155.55052 -471.6535 155.07099 -471.3611 L 148.58458 -467.406 C 147.92292 -467.0025 147.23283 -466.6477 146.51975 -466.34424 L 139.40434 -463.3164 C 138.59667 -462.9727 137.7621 -462.6961 136.90905 -462.4893 L 132.83 -461.5004 C 132.00516 -461.30045 131.16573 -461.16644 130.31963 -461.09965 L 124.61943 -460.64963 C 124.2005 -460.61656 123.78042 -460.6 123.36019 -460.6 L 116.32787 -460.6 C 115.57077 -460.6 114.81462 -460.65374 114.06513 -460.7608 L 106.11868 -461.896 C 105.63367 -461.9653 105.1521 -462.05683 104.67549 -462.1703 L 98.71426 -463.58965 C 97.56878 -463.8624 96.4569 -464.26073 95.39883 -464.77747 L 89.11882 -467.84444 C 88.63377 -468.08133 88.16102 -468.3426 87.70238 -468.6273 L 83.49052 -471.24154 C 82.89135 -471.61344 82.31742 -472.02454 81.77249 -472.47216 L 77.32639 -476.1243 C 77.10269 -476.3081 76.88402 -476.49786 76.67063 -476.6935 L 72.86828 -480.17896 C 72.41699 -480.59264 71.98981 -481.0319 71.58885 -481.49454 L 67.47011 -486.24693 C 67.150724 -486.61545 66.84836 -486.9984 66.56395 -487.3945 L 62.1343 -493.5644 C 61.639405 -494.2537 61.200134 -494.9813 60.82064 -495.7403 L 58.24418 -500.8932 C 58.20858 -500.9644 58.17352 -501.03586 58.138986 -501.1076 L 56.89078 -503.7 C 56.04007 -505.46687 55.684547 -507.4314 55.86209 -509.38436 L 56.04229 -511.3666 C 56.0661 -511.6285 55.873116 -511.86006 55.611253 -511.88386 C 55.44886 -511.8986 55.290205 -511.82925 55.19078 -511.7 L 55.19078 -511.7 C 54.527336 -510.8375 53.74723 -510.07144 52.87285 -509.42375 L 48.97632 -506.53743 C 48.852634 -506.4458 48.727635 -506.356 48.60136 -506.268 L 43.97911 -503.0464 C 42.79237 -502.2193 41.49895 -501.5569 40.1342 -501.0774 L 35.527076 -499.4587 C 35.036505 -499.28633 34.554628 -499.09016 34.08316 -498.8709 L 27.23638 -495.6863 C 26.540217 -495.3625 25.821652 -495.08926 25.086253 -494.86864 L 14.215864 -491.6075 C 14.199143 -491.6025 14.18243 -491.59746 14.165724 -491.5924 L 3.197637 -488.2628 C 3.0597397 -488.22093 2.9224143 -488.1772 2.7856984 -488.13164 L -10.135536 -483.82456 C -10.184657 -483.8082 -10.233858 -483.79205 -10.283136 -483.77616 L -21.650542 -480.10925 C -22.289028 -479.9033 -22.913927 -479.65737 -23.52154 -479.37296 L -31.453505 -475.6601 C -31.823845 -475.48677 -32.187403 -475.2993 -32.54338 -475.0981 L -38.489494 -471.73724 C -39.742528 -471.029 -40.184173 -469.4391 -39.475937 -468.18604 C -39.39882 -468.0496 -39.30955 -467.9204 -39.20922 -467.8 L -38.34511 -466.76307 C -37.590163 -465.85713 -36.937686 -464.8705 -36.39957 -463.8212 L -33.32243 -457.82076 C -33.24696 -457.6736 -33.169213 -457.5276 -33.089216 -457.38285 L -29.134464 -450.22663 C -29.050973 -450.07555 -28.969932 -449.92313 -28.891373 -449.76943 L -24.78307 -441.73144 C -24.534 -441.24413 -24.310096 -440.74437 -24.112243 -440.2341 L -20.629474 -431.25224 C -20.61597 -431.2174 -20.602345 -431.18263 -20.588598 -431.1479 L -16.992276 -422.06246 C -16.870267 -421.75423 -16.757867 -421.4423 -16.655239 -421.12706 L -14.033404 -413.0743 C -14.01728 -413.02476 -14.001399 -412.97516 -13.98576 -412.9255 L -10.913711 -403.1672 C -10.71092 -402.52305 -10.549114 -401.8667 -10.429267 -401.2021 L -8.443955 -390.19263 C -8.420798 -390.0642 -8.399213 -389.9355 -8.379205 -389.80658 L -6.673335 -378.8132 C -6.630598 -378.53778 -6.595065 -378.2613 -6.5667714 -377.984 L -5.6793515 -369.2873 C -5.632618 -368.8293 -5.6056727 -368.3695 -5.598591 -367.9092 L -5.4143506 -355.9336 C -5.4109296 -355.7112 -5.4028726 -355.48895 -5.390185 -355.2669 L -4.61981 -341.78535 C -4.612749 -341.6618 -4.604255 -341.5383 -4.5943287 -341.41494 L -3.2607585 -324.84057 C -3.2264123 -324.4137 -3.2092184 -323.9856 -3.2092184 -323.55736 L -3.2092184 -311.10758 C -3.2092184 -310.90254 -3.2052773 -310.69753 -3.1973972 -310.49265 L -2.6170458 -295.4035 C -2.6118278 -295.26784 -2.6083368 -295.1321 -2.6065737 -294.99635 L -2.4144145 -280.2001 C -2.410951 -279.9334 -2.4141565 -279.66667 -2.424028 -279.40014 L -2.9982558 -263.896 C -3.0055636 -263.69868 -3.0092184 -263.50125 -3.0092184 -263.3038 L -3.0092184 -249.70757 C -3.0092184 -249.50254 -3.0131596 -249.29753 -3.0210396 -249.09264 L -3.606232 -233.87764 C -3.608223 -233.82588 -3.6104653 -233.77412 -3.612959 -233.72238 L -4.408281 -217.21945 C -4.408906 -217.20648 -4.4095467 -217.1935 -4.410203 -217.18055 L -5.2046927 -201.48938 C -5.20771 -201.4298 -5.2110603 -201.37022 -5.214744 -201.31067 L -6.403655 -182.08993 C -6.407364 -182.02997 -6.4114105 -181.97004 -6.415794 -181.91013 L -8.198932 -157.54058 C -8.20579 -157.44686 -8.213473 -157.3532 -8.22198 -157.25962 L -10.007872 -137.6148 C -10.00877 -137.60493 -10.009676 -137.59506 -10.010592 -137.58519 L -11.781357 -118.50028 C -11.79993 -118.30011 -11.822274 -118.1003 -11.848377 -117.90097 L -13.80909 -102.92825 C -13.941901 -101.91406 -14.211042 -100.92244 -14.609219 -99.98027 L -14.609219 -99.98027 C -15.006794 -99.03952 -15.255462 -98.04261 -15.346286 -97.02535 L -16.109219 -88.48027 C -16.616975 -82.79324 -12.65851 -77.67488 -7.0265446 -76.73621 Z" fill="url(#Obj_Gradient_2)"/>
      <path d="M -7.0265446 -76.73621 L 6.715696 -74.44584 C 6.8990725 -74.41528 7.082968 -74.38791 7.267298 -74.36376 L 35.62094 -70.648455 C 35.86747 -70.61615 36.114715 -70.5896 36.36248 -70.56882 L 66.60537 -68.03232 C 66.862274 -68.01077 67.11966 -67.99544 67.37731 -67.98633 L 106.30822 -66.60998 C 106.49658 -66.60332 106.68504 -66.59999 106.87352 -66.59999 L 138.34084 -66.59999 C 138.50746 -66.59999 138.67407 -66.602596 138.8406 -66.6078 L 163.87539 -67.39014 C 164.08563 -67.39671 164.29573 -67.40742 164.50555 -67.42228 L 186.5533 -68.98318 C 186.71161 -68.99439 186.86975 -69.00795 187.02766 -69.023865 L 212.28815 -71.569495 C 212.4899 -71.589825 212.69122 -71.61399 212.89204 -71.64197 L 236.68474 -74.95735 C 236.88875 -74.98578 237.0922 -75.01814 237.29496 -75.05442 L 246.49079 -76.69999 C 251.8179 -77.653265 255.46876 -82.60691 254.80234 -87.97745 L 252.59475 -105.76802 C 252.5921 -105.78934 252.5895 -105.81066 252.58695 -105.83199 L 249.02312 -135.53051 C 249.00157 -135.71015 248.98306 -135.89015 248.9676 -136.07042 L 246.6054 -163.62963 C 246.59565 -163.7432 246.58713 -163.85688 246.57983 -163.97064 L 245.1932 -185.56228 C 245.1916 -185.58742 245.18992 -185.61256 245.18818 -185.6377 L 243.59603 -208.72401 C 243.59253 -208.77467 243.58928 -208.82534 243.58627 -208.87602 L 242.4099 -228.6782 C 242.39716 -228.8927 242.38874 -229.10745 242.38465 -229.3223 L 241.99236 -249.91715 C 241.9913 -249.97238 241.98997 -250.0276 241.98835 -250.08282 L 241.39322 -270.31717 C 241.3916 -270.3724 241.39026 -270.4276 241.3892 -270.48285 L 240.99855 -290.9924 C 240.99337 -291.2641 240.99512 -291.53587 241.0038 -291.80747 L 241.58973 -310.1671 C 241.59044 -310.18903 241.59118 -310.21097 241.59197 -310.2329 L 242.38005 -332.1022 C 242.3872 -332.3007 242.39806 -332.49907 242.4126 -332.69717 L 243.97007 -353.9178 C 243.98388 -354.1059 243.99436 -354.29427 244.0015 -354.48276 L 244.75596 -374.38163 C 244.77915 -374.99337 244.83744 -375.6033 244.93052 -376.20835 L 247.66953 -394.01187 C 247.7503 -394.53696 247.8572 -395.0577 247.9898 -395.57217 L 252.61806 -413.52983 C 252.73316 -413.9764 252.8675 -414.4178 253.02073 -414.85275 L 258.74152 -431.0924 C 258.9076 -431.56387 259.0957 -432.0273 259.30517 -432.48117 L 264.83673 -444.4662 C 264.93942 -444.6887 265.0472 -444.9088 265.16 -445.12636 L 270.52223 -455.4678 C 270.56793 -455.5559 270.61446 -455.64364 270.6618 -455.7309 L 275.87777 -465.3479 C 276.61505 -466.70724 277.56468 -467.94013 278.6908 -469 L 278.6908 -469 C 279.36598 -469.63547 279.39817 -470.698 278.7627 -471.37316 C 278.6382 -471.50544 278.49307 -471.61663 278.33295 -471.7024 L 275.1188 -473.42427 C 274.90016 -473.5414 274.6788 -473.65344 274.45494 -473.7603 L 266.60097 -477.5088 C 266.19436 -477.70284 265.77974 -477.87964 265.3582 -478.0387 L 255.68338 -481.6896 C 255.48833 -481.7632 255.29187 -481.83297 255.0941 -481.8989 L 242.39963 -486.1304 C 242.2604 -486.1768 242.12055 -486.2213 241.9801 -486.26384 L 229.09658 -490.16794 C 229.02605 -490.1893 228.95567 -490.2112 228.88544 -490.2335 L 216.38144 -494.21206 C 215.98782 -494.3373 215.5992 -494.47775 215.21643 -494.63307 L 203.2405 -499.4929 C 202.40883 -499.83036 201.60704 -500.2372 200.8436 -500.70917 L 191.22436 -506.6556 C 191.06865 -506.75186 190.91461 -506.8508 190.7623 -506.9523 L 185.8722 -510.2124 C 184.89081 -510.86665 184.0195 -511.67255 183.29078 -512.6 L 183.29078 -512.6 C 183.18518 -512.7344 182.99062 -512.75775 182.85621 -512.65215 C 182.75347 -512.5714 182.7125 -512.4349 182.75381 -512.3109 L 182.89078 -511.9 C 183.35003 -510.52225 183.4546 -509.05096 183.1948 -507.6221 L 182.79967 -505.44885 C 182.52845 -503.9572 182.0466 -502.51165 181.36858 -501.1556 L 179.83626 -498.09096 C 179.53956 -497.49756 179.20624 -496.9232 178.83823 -496.3712 L 175.63453 -491.5656 C 175.20593 -490.9227 174.73132 -490.3117 174.21443 -489.7374 L 169.65238 -484.66844 C 169.61132 -484.6228 169.56999 -484.5774 169.5284 -484.53227 L 163.53417 -478.02424 C 162.90643 -477.3427 162.22068 -476.717 161.48465 -476.15413 L 156.46047 -472.3121 C 156.01432 -471.97094 155.55052 -471.6535 155.07099 -471.3611 L 148.58458 -467.406 C 147.92292 -467.0025 147.23283 -466.6477 146.51975 -466.34424 L 139.40434 -463.3164 C 138.59667 -462.9727 137.7621 -462.6961 136.90905 -462.4893 L 132.83 -461.5004 C 132.00516 -461.30045 131.16573 -461.16644 130.31963 -461.09965 L 124.61943 -460.64963 C 124.2005 -460.61656 123.78042 -460.6 123.36019 -460.6 L 116.32787 -460.6 C 115.57077 -460.6 114.81462 -460.65374 114.06513 -460.7608 L 106.11868 -461.896 C 105.63367 -461.9653 105.1521 -462.05683 104.67549 -462.1703 L 98.71426 -463.58965 C 97.56878 -463.8624 96.4569 -464.26073 95.39883 -464.77747 L 89.11882 -467.84444 C 88.63377 -468.08133 88.16102 -468.3426 87.70238 -468.6273 L 83.49052 -471.24154 C 82.89135 -471.61344 82.31742 -472.02454 81.77249 -472.47216 L 77.32639 -476.1243 C 77.10269 -476.3081 76.88402 -476.49786 76.67063 -476.6935 L 72.86828 -480.17896 C 72.41699 -480.59264 71.98981 -481.0319 71.58885 -481.49454 L 67.47011 -486.24693 C 67.150724 -486.61545 66.84836 -486.9984 66.56395 -487.3945 L 62.1343 -493.5644 C 61.639405 -494.2537 61.200134 -494.9813 60.82064 -495.7403 L 58.24418 -500.8932 C 58.20858 -500.9644 58.17352 -501.03586 58.138986 -501.1076 L 56.89078 -503.7 C 56.04007 -505.46687 55.684547 -507.4314 55.86209 -509.38436 L 56.04229 -511.3666 C 56.0661 -511.6285 55.873116 -511.86006 55.611253 -511.88386 C 55.44886 -511.8986 55.290205 -511.82925 55.19078 -511.7 L 55.19078 -511.7 C 54.527336 -510.8375 53.74723 -510.07144 52.87285 -509.42375 L 48.97632 -506.53743 C 48.852634 -506.4458 48.727635 -506.356 48.60136 -506.268 L 43.97911 -503.0464 C 42.79237 -502.2193 41.49895 -501.5569 40.1342 -501.0774 L 35.527076 -499.4587 C 35.036505 -499.28633 34.554628 -499.09016 34.08316 -498.8709 L 27.23638 -495.6863 C 26.540217 -495.3625 25.821652 -495.08926 25.086253 -494.86864 L 14.215864 -491.6075 C 14.199143 -491.6025 14.18243 -491.59746 14.165724 -491.5924 L 3.197637 -488.2628 C 3.0597397 -488.22093 2.9224143 -488.1772 2.7856984 -488.13164 L -10.135536 -483.82456 C -10.184657 -483.8082 -10.233858 -483.79205 -10.283136 -483.77616 L -21.650542 -480.10925 C -22.289028 -479.9033 -22.913927 -479.65737 -23.52154 -479.37296 L -31.453505 -475.6601 C -31.823845 -475.48677 -32.187403 -475.2993 -32.54338 -475.0981 L -38.489494 -471.73724 C -39.742528 -471.029 -40.184173 -469.4391 -39.475937 -468.18604 C -39.39882 -468.0496 -39.30955 -467.9204 -39.20922 -467.8 L -38.34511 -466.76307 C -37.590163 -465.85713 -36.937686 -464.8705 -36.39957 -463.8212 L -33.32243 -457.82076 C -33.24696 -457.6736 -33.169213 -457.5276 -33.089216 -457.38285 L -29.134464 -450.22663 C -29.050973 -450.07555 -28.969932 -449.92313 -28.891373 -449.76943 L -24.78307 -441.73144 C -24.534 -441.24413 -24.310096 -440.74437 -24.112243 -440.2341 L -20.629474 -431.25224 C -20.61597 -431.2174 -20.602345 -431.18263 -20.588598 -431.1479 L -16.992276 -422.06246 C -16.870267 -421.75423 -16.757867 -421.4423 -16.655239 -421.12706 L -14.033404 -413.0743 C -14.01728 -413.02476 -14.001399 -412.97516 -13.98576 -412.9255 L -10.913711 -403.1672 C -10.71092 -402.52305 -10.549114 -401.8667 -10.429267 -401.2021 L -8.443955 -390.19263 C -8.420798 -390.0642 -8.399213 -389.9355 -8.379205 -389.80658 L -6.673335 -378.8132 C -6.630598 -378.53778 -6.595065 -378.2613 -6.5667714 -377.984 L -5.6793515 -369.2873 C -5.632618 -368.8293 -5.6056727 -368.3695 -5.598591 -367.9092 L -5.4143506 -355.9336 C -5.4109296 -355.7112 -5.4028726 -355.48895 -5.390185 -355.2669 L -4.61981 -341.78535 C -4.612749 -341.6618 -4.604255 -341.5383 -4.5943287 -341.41494 L -3.2607585 -324.84057 C -3.2264123 -324.4137 -3.2092184 -323.9856 -3.2092184 -323.55736 L -3.2092184 -311.10758 C -3.2092184 -310.90254 -3.2052773 -310.69753 -3.1973972 -310.49265 L -2.6170458 -295.4035 C -2.6118278 -295.26784 -2.6083368 -295.1321 -2.6065737 -294.99635 L -2.4144145 -280.2001 C -2.410951 -279.9334 -2.4141565 -279.66667 -2.424028 -279.40014 L -2.9982558 -263.896 C -3.0055636 -263.69868 -3.0092184 -263.50125 -3.0092184 -263.3038 L -3.0092184 -249.70757 C -3.0092184 -249.50254 -3.0131596 -249.29753 -3.0210396 -249.09264 L -3.606232 -233.87764 C -3.608223 -233.82588 -3.6104653 -233.77412 -3.612959 -233.72238 L -4.408281 -217.21945 C -4.408906 -217.20648 -4.4095467 -217.1935 -4.410203 -217.18055 L -5.2046927 -201.48938 C -5.20771 -201.4298 -5.2110603 -201.37022 -5.214744 -201.31067 L -6.403655 -182.08993 C -6.407364 -182.02997 -6.4114105 -181.97004 -6.415794 -181.91013 L -8.198932 -157.54058 C -8.20579 -157.44686 -8.213473 -157.3532 -8.22198 -157.25962 L -10.007872 -137.6148 C -10.00877 -137.60493 -10.009676 -137.59506 -10.010592 -137.58519 L -11.781357 -118.50028 C -11.79993 -118.30011 -11.822274 -118.1003 -11.848377 -117.90097 L -13.80909 -102.92825 C -13.941901 -101.91406 -14.211042 -100.92244 -14.609219 -99.98027 L -14.609219 -99.98027 C -15.006794 -99.03952 -15.255462 -98.04261 -15.346286 -97.02535 L -16.109219 -88.48027 C -16.616975 -82.79324 -12.65851 -77.67488 -7.0265446 -76.73621 Z" stroke="#7f8080" stroke-linecap="round" stroke-linejoin="round" stroke-width="1"/>
      <path d="M -96 -362.55385 L -89.8 -358.15385 L -81.6 -354.15385 L -73 -350.55385 L -64 -346.75385 L -53 -342.75385 L -43.6 -339.95385 L -34.6 -337.35385 L -25.6 -334.75385 L -20.2 -333.35385 L -14.599999 -332.35385 L -12.199999 -338.15385 L -9.599999 -343.55385 L -7.399999 -347.55385 L -4.7999986 -350.95385 L -4.5999986 -359.95385 L -5.1999986 -370.95385 L -6.999999 -381.75385 L -8.599999 -392.15385 L -11.199999 -403.15386 L -13.599999 -412.75386 L -16.399999 -420.75386 L -19.6 -430.15386 L -22.4 -437.55386 L -26 -445.15386 L -30 -452.75386 L -34 -460.15386 L -36.6 -463.75386 L -40.2 -469.55386 L -45.6 -465.15386 L -50.4 -460.35386 L -55 -454.15386 L -59.4 -447.95386 L -64.2 -439.35386 L -69 -429.95386 L -73.8 -420.75386 L -77.4 -412.15386 L -81.4 -403.15386 L -84.6 -394.95385 L -88.4 -385.55385 L -91.2 -377.55385 L -94.2 -369.15385 Z" fill="#037d39"/>
      <path d="M -96 -362.55385 L -89.8 -358.15385 L -81.6 -354.15385 L -73 -350.55385 L -64 -346.75385 L -53 -342.75385 L -43.6 -339.95385 L -34.6 -337.35385 L -25.6 -334.75385 L -20.2 -333.35385 L -14.599999 -332.35385 L -12.199999 -338.15385 L -9.599999 -343.55385 L -7.399999 -347.55385 L -4.7999986 -350.95385 L -4.5999986 -359.95385 L -5.1999986 -370.95385 L -6.999999 -381.75385 L -8.599999 -392.15385 L -11.199999 -403.15386 L -13.599999 -412.75386 L -16.399999 -420.75386 L -19.6 -430.15386 L -22.4 -437.55386 L -26 -445.15386 L -30 -452.75386 L -34 -460.15386 L -36.6 -463.75386 L -40.2 -469.55386 L -45.6 -465.15386 L -50.4 -460.35386 L -55 -454.15386 L -59.4 -447.95386 L -64.2 -439.35386 L -69 -429.95386 L -73.8 -420.75386 L -77.4 -412.15386 L -81.4 -403.15386 L -84.6 -394.95385 L -88.4 -385.55385 L -91.2 -377.55385 L -94.2 -369.15385 Z" stroke="#7f8080" stroke-linecap="round" stroke-linejoin="round" stroke-width="1"/>
      <path d="M 335.4053 -363.49725 L 329.2053 -359.09725 L 321.0053 -355.09725 L 312.4053 -351.49725 L 303.4053 -347.69725 L 292.4053 -343.69725 L 283.0053 -340.89725 L 274.0053 -338.29725 L 265.0053 -335.69725 L 259.6053 -334.29725 L 254.0053 -333.29725 L 251.6053 -339.09725 L 249.0053 -344.49725 L 246.8053 -348.49725 L 244.2053 -351.89725 L 244.0053 -360.89725 L 244.6053 -371.89725 L 246.4053 -382.69725 L 248.0053 -393.09725 L 250.6053 -404.09725 L 253.0053 -413.69725 L 255.8053 -421.69725 L 259.0053 -431.09725 L 261.8053 -438.49725 L 265.4053 -446.09725 L 269.4053 -453.69725 L 273.4053 -461.09725 L 276.0053 -464.69725 L 279.6053 -470.49725 L 285.0053 -466.09725 L 289.8053 -461.29725 L 294.4053 -455.09725 L 298.8053 -448.89725 L 303.6053 -440.29725 L 308.4053 -430.89725 L 313.2053 -421.69725 L 316.8053 -413.09725 L 320.8053 -404.09725 L 324.0053 -395.89725 L 327.8053 -386.49725 L 330.6053 -378.49725 L 333.6053 -370.09725 Z" fill="#017336"/>
      <path d="M 335.4053 -363.49725 L 329.2053 -359.09725 L 321.0053 -355.09725 L 312.4053 -351.49725 L 303.4053 -347.69725 L 292.4053 -343.69725 L 283.0053 -340.89725 L 274.0053 -338.29725 L 265.0053 -335.69725 L 259.6053 -334.29725 L 254.0053 -333.29725 L 251.6053 -339.09725 L 249.0053 -344.49725 L 246.8053 -348.49725 L 244.2053 -351.89725 L 244.0053 -360.89725 L 244.6053 -371.89725 L 246.4053 -382.69725 L 248.0053 -393.09725 L 250.6053 -404.09725 L 253.0053 -413.69725 L 255.8053 -421.69725 L 259.0053 -431.09725 L 261.8053 -438.49725 L 265.4053 -446.09725 L 269.4053 -453.69725 L 273.4053 -461.09725 L 276.0053 -464.69725 L 279.6053 -470.49725 L 285.0053 -466.09725 L 289.8053 -461.29725 L 294.4053 -455.09725 L 298.8053 -448.89725 L 303.6053 -440.29725 L 308.4053 -430.89725 L 313.2053 -421.69725 L 316.8053 -413.09725 L 320.8053 -404.09725 L 324.0053 -395.89725 L 327.8053 -386.49725 L 330.6053 -378.49725 L 333.6053 -370.09725 Z" stroke="#7f8080" stroke-linecap="round" stroke-linejoin="round" stroke-width="1"/>
      <path d="M -96 -362.55385 L -89.8 -358.15385 L -81.6 -354.15385 L -73 -350.55385 L -64 -346.75385 L -53 -342.75385 L -43.6 -339.95385 L -34.6 -337.35385 L -25.6 -334.75385 L -20.2 -333.35385 L -14.599999 -332.35385 L -11.599999 -338.75385 L -15.399999 -339.55385 L -20.2 -340.75385 L -25.8 -341.95385 L -31.8 -343.75385 L -36.4 -345.15385 L -40.6 -346.35385 L -45.2 -348.35385 L -49.8 -349.95385 L -54.6 -351.95385 L -58.6 -353.35385 L -63.8 -355.55385 L -68.4 -357.15385 L -73.2 -359.35385 L -78 -361.15385 L -82 -363.15385 L -86.4 -365.35385 L -90.8 -367.55385 L -94.2 -369.15385 Z" fill="white"/>
      <path d="M -96 -362.55385 L -89.8 -358.15385 L -81.6 -354.15385 L -73 -350.55385 L -64 -346.75385 L -53 -342.75385 L -43.6 -339.95385 L -34.6 -337.35385 L -25.6 -334.75385 L -20.2 -333.35385 L -14.599999 -332.35385 L -11.599999 -338.75385 L -15.399999 -339.55385 L -20.2 -340.75385 L -25.8 -341.95385 L -31.8 -343.75385 L -36.4 -345.15385 L -40.6 -346.35385 L -45.2 -348.35385 L -49.8 -349.95385 L -54.6 -351.95385 L -58.6 -353.35385 L -63.8 -355.55385 L -68.4 -357.15385 L -73.2 -359.35385 L -78 -361.15385 L -82 -363.15385 L -86.4 -365.35385 L -90.8 -367.55385 L -94.2 -369.15385 Z" stroke="#7f8080" stroke-linecap="round" stroke-linejoin="round" stroke-width="1"/>
      <path d="M 335.4053 -363.49725 L 329.2053 -359.09725 L 321.0053 -355.09725 L 312.4053 -351.49725 L 303.4053 -347.69725 L 292.4053 -343.69725 L 283.0053 -340.89725 L 274.0053 -338.29725 L 265.0053 -335.69725 L 259.6053 -334.29725 L 254.0053 -333.29725 L 251.0053 -339.69725 L 254.8053 -340.49725 L 259.6053 -341.69725 L 265.2053 -342.89725 L 271.2053 -344.69725 L 275.8053 -346.09725 L 280.0053 -347.29725 L 284.6053 -349.29725 L 289.2053 -350.89725 L 294.0053 -352.89725 L 298.0053 -354.29725 L 303.2053 -356.49725 L 307.8053 -358.09725 L 312.6053 -360.29725 L 317.4053 -362.09725 L 321.4053 -364.09725 L 325.8053 -366.29725 L 330.2053 -368.49725 L 333.6053 -370.09725 Z" fill="white"/>
      <path d="M 335.4053 -363.49725 L 329.2053 -359.09725 L 321.0053 -355.09725 L 312.4053 -351.49725 L 303.4053 -347.69725 L 292.4053 -343.69725 L 283.0053 -340.89725 L 274.0053 -338.29725 L 265.0053 -335.69725 L 259.6053 -334.29725 L 254.0053 -333.29725 L 251.0053 -339.69725 L 254.8053 -340.49725 L 259.6053 -341.69725 L 265.2053 -342.89725 L 271.2053 -344.69725 L 275.8053 -346.09725 L 280.0053 -347.29725 L 284.6053 -349.29725 L 289.2053 -350.89725 L 294.0053 -352.89725 L 298.0053 -354.29725 L 303.2053 -356.49725 L 307.8053 -358.09725 L 312.6053 -360.29725 L 317.4053 -362.09725 L 321.4053 -364.09725 L 325.8053 -366.29725 L 330.2053 -368.49725 L 333.6053 -370.09725 Z" stroke="#7f8080" stroke-linecap="round" stroke-linejoin="round" stroke-width="1"/>
      <path d="M 54.57212 -512.0362 L 49.84295 -507.98264 C 48.692603 -506.9966 47.44764 -506.1267 46.126213 -505.3855 L 43.59958 -503.96835 C 42.164406 -503.1634 41.583603 -501.39425 42.26239 -499.89527 L 43.280006 -497.64803 C 43.401585 -497.37954 43.528313 -497.1134 43.66012 -496.8498 L 45.46239 -493.24526 L 47.949377 -488.2713 C 48.291174 -487.5877 48.66683 -486.92157 49.07495 -486.2754 L 51.401344 -482.5919 C 51.84172 -481.89465 52.31928 -481.2216 52.83195 -480.5756 L 56.24264 -476.27815 C 56.78869 -475.5901 57.37371 -474.93394 57.99482 -474.31283 L 62.660865 -469.6468 C 63.061745 -469.2459 63.47731 -468.86 63.90671 -468.4898 L 68.470235 -464.55574 C 68.86489 -464.2155 69.271 -463.8888 69.68785 -463.5762 L 73.66279 -460.59497 C 74.3287 -460.09553 75.02123 -459.6326 75.73733 -459.20826 L 79.87039 -456.75904 C 79.99839 -456.6832 80.12712 -456.6086 80.25656 -456.53523 L 84.95411 -453.8733 C 85.6924 -453.45493 86.45328 -453.07774 87.23325 -452.74347 L 90.78307 -451.2221 C 91.36903 -450.971 91.96518 -450.74433 92.56997 -450.54274 L 97.58808 -448.87003 C 98.83532 -448.4543 100.11592 -448.14624 101.4158 -447.9493 L 105.51464 -447.32826 C 105.87976 -447.27294 106.24615 -447.2264 106.6135 -447.18874 L 113.4946 -446.483 C 113.73978 -446.45784 113.98534 -446.43664 114.2312 -446.4194 L 118.75835 -446.1017 C 119.29421 -446.0641 119.83122 -446.04527 120.3684 -446.04527 L 123.63046 -446.04526 C 124.58416 -446.04526 125.53693 -446.1046 126.48327 -446.22287 L 130.47198 -446.72146 C 131.13195 -446.80396 131.78802 -446.91504 132.43835 -447.0544 L 138.52039 -448.3577 C 139.41426 -448.54924 140.29592 -448.7939 141.16068 -449.0904 L 145.66952 -450.6363 C 146.46417 -450.90873 147.2433 -451.2245 148.0034 -451.5822 L 152.83677 -453.85674 C 153.38697 -454.11565 153.92668 -454.3963 154.45464 -454.698 L 158.2225 -456.85104 C 158.9153 -457.2469 159.58701 -457.6786 160.23494 -458.1443 L 164.91106 -461.50525 C 165.41175 -461.8651 165.89776 -462.24497 166.36792 -462.6439 L 171.68877 -467.15856 C 172.07108 -467.48294 172.44269 -467.81974 172.80298 -468.1684 L 177.5022 -472.71604 C 178.14179 -473.335 178.74491 -473.99056 179.30852 -474.6794 L 183.1018 -479.31566 C 183.60852 -479.935 184.08257 -480.5803 184.52201 -481.24904 L 188.1392 -486.75344 C 188.35462 -487.08127 188.56163 -487.41456 188.76002 -487.753 L 191.2831 -492.0571 C 191.66906 -492.71546 192.022 -493.39265 192.34062 -494.0861 L 194.45932 -498.6974 C 194.99218 -499.85715 195.36334 -501.08456 195.5624 -502.34526 L 195.5624 -502.34526 C 195.7407 -503.4745 195.1614 -504.588 194.13432 -505.0901 L 188.84088 -507.678 C 187.52642 -508.3206 186.29183 -509.11514 185.1624 -510.04526 L 184.75638 -510.3796 C 183.91205 -511.07496 183.28864 -512.00126 182.9624 -513.04526 L 182.9624 -513.04526 C 182.91573 -513.1946 182.75686 -513.2778 182.60754 -513.23114 C 182.49247 -513.1952 182.41277 -513.0903 182.40892 -512.9698 L 182.29968 -509.5469 C 182.20894 -506.7038 181.5916 -503.90224 180.479 -501.28433 L 179.60206 -499.22096 C 179.0435 -497.9067 178.36374 -496.6473 177.5716 -495.4591 L 173.88582 -489.9304 C 173.13831 -488.80915 172.2937 -487.75575 171.36175 -486.7824 L 165.06668 -480.20753 C 164.19861 -479.3009 163.25777 -478.4668 162.2536 -477.7137 L 153.8787 -471.4325 C 153.00228 -470.7752 152.08002 -470.1813 151.11896 -469.65546 L 143.93376 -465.72394 C 142.62263 -465.00653 141.2447 -464.41863 139.81952 -463.96857 L 133.1466 -461.86133 C 131.42973 -461.31916 129.65514 -460.98046 127.85927 -460.8522 L 120.97281 -460.3603 C 119.90052 -460.2837 118.82417 -460.2824 117.75168 -460.35635 L 109.31543 -460.93816 C 108.28125 -461.0095 107.25308 -461.15064 106.23795 -461.36067 L 99.10274 -462.8369 C 97.15079 -463.24077 95.25961 -463.89665 93.47676 -464.7881 L 88.81735 -467.1178 C 87.58321 -467.73485 86.40711 -468.4617 85.30326 -469.2896 L 79.6213 -473.5511 C 79.18217 -473.88043 78.75496 -474.2254 78.34051 -474.5853 L 72.58533 -479.58324 C 71.77104 -480.2904 71.0075 -481.0539 70.30036 -481.8682 L 65.895135 -486.9409 C 65.14103 -487.80925 64.453124 -488.73295 63.8372 -489.7042 L 60.1035 -495.592 C 59.74293 -496.16056 59.407505 -496.7447 59.09819 -497.3427 L 57.477815 -500.47544 C 56.86867 -501.6531 56.3625 -502.88126 55.964965 -504.14615 L 54.684726 -508.21964 C 54.46995 -508.903 54.28722 -509.59605 54.137126 -510.2965 L 53.91171 -511.34843 C 53.826635 -511.74544 54.05299 -512.1431 54.4378 -512.27263 L 54.4378 -512.27263 C 54.51029 -512.29704 54.588844 -512.25805 54.61325 -512.18556 C 54.63126 -512.13205 54.61499 -512.07296 54.57212 -512.0362 Z" fill="white"/>
      <path d="M 54.57212 -512.0362 L 49.84295 -507.98264 C 48.692603 -506.9966 47.44764 -506.1267 46.126213 -505.3855 L 43.59958 -503.96835 C 42.164406 -503.1634 41.583603 -501.39425 42.26239 -499.89527 L 43.280006 -497.64803 C 43.401585 -497.37954 43.528313 -497.1134 43.66012 -496.8498 L 45.46239 -493.24526 L 47.949377 -488.2713 C 48.291174 -487.5877 48.66683 -486.92157 49.07495 -486.2754 L 51.401344 -482.5919 C 51.84172 -481.89465 52.31928 -481.2216 52.83195 -480.5756 L 56.24264 -476.27815 C 56.78869 -475.5901 57.37371 -474.93394 57.99482 -474.31283 L 62.660865 -469.6468 C 63.061745 -469.2459 63.47731 -468.86 63.90671 -468.4898 L 68.470235 -464.55574 C 68.86489 -464.2155 69.271 -463.8888 69.68785 -463.5762 L 73.66279 -460.59497 C 74.3287 -460.09553 75.02123 -459.6326 75.73733 -459.20826 L 79.87039 -456.75904 C 79.99839 -456.6832 80.12712 -456.6086 80.25656 -456.53523 L 84.95411 -453.8733 C 85.6924 -453.45493 86.45328 -453.07774 87.23325 -452.74347 L 90.78307 -451.2221 C 91.36903 -450.971 91.96518 -450.74433 92.56997 -450.54274 L 97.58808 -448.87003 C 98.83532 -448.4543 100.11592 -448.14624 101.4158 -447.9493 L 105.51464 -447.32826 C 105.87976 -447.27294 106.24615 -447.2264 106.6135 -447.18874 L 113.4946 -446.483 C 113.73978 -446.45784 113.98534 -446.43664 114.2312 -446.4194 L 118.75835 -446.1017 C 119.29421 -446.0641 119.83122 -446.04527 120.3684 -446.04527 L 123.63046 -446.04526 C 124.58416 -446.04526 125.53693 -446.1046 126.48327 -446.22287 L 130.47198 -446.72146 C 131.13195 -446.80396 131.78802 -446.91504 132.43835 -447.0544 L 138.52039 -448.3577 C 139.41426 -448.54924 140.29592 -448.7939 141.16068 -449.0904 L 145.66952 -450.6363 C 146.46417 -450.90873 147.2433 -451.2245 148.0034 -451.5822 L 152.83677 -453.85674 C 153.38697 -454.11565 153.92668 -454.3963 154.45464 -454.698 L 158.2225 -456.85104 C 158.9153 -457.2469 159.58701 -457.6786 160.23494 -458.1443 L 164.91106 -461.50525 C 165.41175 -461.8651 165.89776 -462.24497 166.36792 -462.6439 L 171.68877 -467.15856 C 172.07108 -467.48294 172.44269 -467.81974 172.80298 -468.1684 L 177.5022 -472.71604 C 178.14179 -473.335 178.74491 -473.99056 179.30852 -474.6794 L 183.1018 -479.31566 C 183.60852 -479.935 184.08257 -480.5803 184.52201 -481.24904 L 188.1392 -486.75344 C 188.35462 -487.08127 188.56163 -487.41456 188.76002 -487.753 L 191.2831 -492.0571 C 191.66906 -492.71546 192.022 -493.39265 192.34062 -494.0861 L 194.45932 -498.6974 C 194.99218 -499.85715 195.36334 -501.08456 195.5624 -502.34526 L 195.5624 -502.34526 C 195.7407 -503.4745 195.1614 -504.588 194.13432 -505.0901 L 188.84088 -507.678 C 187.52642 -508.3206 186.29183 -509.11514 185.1624 -510.04526 L 184.75638 -510.3796 C 183.91205 -511.07496 183.28864 -512.00126 182.9624 -513.04526 L 182.9624 -513.04526 C 182.91573 -513.1946 182.75686 -513.2778 182.60754 -513.23114 C 182.49247 -513.1952 182.41277 -513.0903 182.40892 -512.9698 L 182.29968 -509.5469 C 182.20894 -506.7038 181.5916 -503.90224 180.479 -501.28433 L 179.60206 -499.22096 C 179.0435 -497.9067 178.36374 -496.6473 177.5716 -495.4591 L 173.88582 -489.9304 C 173.13831 -488.80915 172.2937 -487.75575 171.36175 -486.7824 L 165.06668 -480.20753 C 164.19861 -479.3009 163.25777 -478.4668 162.2536 -477.7137 L 153.8787 -471.4325 C 153.00228 -470.7752 152.08002 -470.1813 151.11896 -469.65546 L 143.93376 -465.72394 C 142.62263 -465.00653 141.2447 -464.41863 139.81952 -463.96857 L 133.1466 -461.86133 C 131.42973 -461.31916 129.65514 -460.98046 127.85927 -460.8522 L 120.97281 -460.3603 C 119.90052 -460.2837 118.82417 -460.2824 117.75168 -460.35635 L 109.31543 -460.93816 C 108.28125 -461.0095 107.25308 -461.15064 106.23795 -461.36067 L 99.10274 -462.8369 C 97.15079 -463.24077 95.25961 -463.89665 93.47676 -464.7881 L 88.81735 -467.1178 C 87.58321 -467.73485 86.40711 -468.4617 85.30326 -469.2896 L 79.6213 -473.5511 C 79.18217 -473.88043 78.75496 -474.2254 78.34051 -474.5853 L 72.58533 -479.58324 C 71.77104 -480.2904 71.0075 -481.0539 70.30036 -481.8682 L 65.895135 -486.9409 C 65.14103 -487.80925 64.453124 -488.73295 63.8372 -489.7042 L 60.1035 -495.592 C 59.74293 -496.16056 59.407505 -496.7447 59.09819 -497.3427 L 57.477815 -500.47544 C 56.86867 -501.6531 56.3625 -502.88126 55.964965 -504.14615 L 54.684726 -508.21964 C 54.46995 -508.903 54.28722 -509.59605 54.137126 -510.2965 L 53.91171 -511.34843 C 53.826635 -511.74544 54.05299 -512.1431 54.4378 -512.27263 L 54.4378 -512.27263 C 54.51029 -512.29704 54.588844 -512.25805 54.61325 -512.18556 C 54.63126 -512.13205 54.61499 -512.07296 54.57212 -512.0362 Z" stroke="#7f8080" stroke-linecap="round" stroke-linejoin="round" stroke-width="1"/>
      <path d="M 54.05925 -512.2441 L 59.45925 -512.8441 L 66.25925 -509.4441 L 71.25925 -507.6441 L 79.65925 -505.8441 L 88.05925 -504.8441 L 96.05925 -503.8441 L 103.65925 -503.6441 L 112.25925 -503.2441 L 123.85925 -503.4441 L 132.25925 -503.8441 L 141.65925 -504.4441 L 150.05925 -505.2441 L 159.25925 -506.6441 L 167.45925 -508.8441 L 173.25925 -510.6441 L 178.85925 -513.2441 L 181.65925 -512.0441 L 182.05925 -506.4441 L 179.25925 -498.4441 L 173.85925 -495.6441 L 163.25925 -492.4441 L 151.85925 -490.0441 L 140.65925 -489.2441 L 128.25925 -488.2441 L 117.85925 -488.2441 L 108.45925 -488.2441 L 96.85925 -488.8441 L 85.65925 -489.6441 L 75.05925 -491.8441 L 66.45925 -493.8441 L 60.25925 -496.6441 L 58.25925 -498.2441 L 55.05925 -505.8441 Z" fill="url(#Obj_Gradient_3)"/>
      <path d="M 54.05925 -512.2441 L 59.45925 -512.8441 L 66.25925 -509.4441 L 71.25925 -507.6441 L 79.65925 -505.8441 L 88.05925 -504.8441 L 96.05925 -503.8441 L 103.65925 -503.6441 L 112.25925 -503.2441 L 123.85925 -503.4441 L 132.25925 -503.8441 L 141.65925 -504.4441 L 150.05925 -505.2441 L 159.25925 -506.6441 L 167.45925 -508.8441 L 173.25925 -510.6441 L 178.85925 -513.2441 L 181.65925 -512.0441 L 182.05925 -506.4441 L 179.25925 -498.4441 L 173.85925 -495.6441 L 163.25925 -492.4441 L 151.85925 -490.0441 L 140.65925 -489.2441 L 128.25925 -488.2441 L 117.85925 -488.2441 L 108.45925 -488.2441 L 96.85925 -488.8441 L 85.65925 -489.6441 L 75.05925 -491.8441 L 66.45925 -493.8441 L 60.25925 -496.6441 L 58.25925 -498.2441 L 55.05925 -505.8441 Z" stroke="#7f8080" stroke-linecap="round" stroke-linejoin="round" stroke-width="1"/>
      <path d="M -16.186787 -86.79999 L -16.186787 -86.79999 C -16.252471 -86.27451 -16.189645 -85.74095 -16.003702 -85.2451 L -15.352694 -83.50908 C -15.175938 -83.03773 -14.948853 -82.58682 -14.67538 -82.16418 L -13.707566 -80.66847 C -13.166608 -79.83244 -12.453506 -79.12145 -11.615879 -78.58298 L -10.53783 -77.88995 C -10.237574 -77.69693 -9.922994 -77.52715 -9.596843 -77.382115 L -8.279989 -76.79651 C -7.68346 -76.53124 -7.0527545 -76.35072 -6.406207 -76.2602 L 2.6042134 -74.998745 C 2.6142068 -74.99735 2.6242033 -74.99597 2.6342026 -74.99461 L 14.350201 -73.406 C 14.396202 -73.399765 14.442263 -73.393985 14.488378 -73.388664 L 24.771315 -72.20217 C 24.80324 -72.19849 24.83519 -72.19502 24.867165 -72.19178 L 38.57723 -70.800904 C 38.605213 -70.798065 38.63321 -70.795395 38.661226 -70.79289 L 49.766526 -69.80135 C 49.801644 -69.79821 49.836786 -69.79534 49.87195 -69.79274 L 60.558485 -69.00114 C 60.598964 -68.998145 60.63947 -68.9955 60.67999 -68.993205 L 71.18798 -68.39841 C 71.208795 -68.397235 71.22961 -68.39596 71.25042 -68.3946 L 83.29319 -67.60491 C 83.37719 -67.5994 83.46129 -67.59541 83.54543 -67.59293 L 96.99256 -67.19743 C 97.01032 -67.19691 97.02809 -67.19632 97.04585 -67.19566 L 107.68971 -66.80144 C 107.77603 -66.798245 107.86241 -66.796646 107.94879 -66.796646 L 118.5578 -66.796646 C 118.59874 -66.796646 118.63967 -66.79629 118.6806 -66.79557 L 129.76702 -66.60107 C 129.93509 -66.59812 130.10321 -66.60123 130.27106 -66.61038 L 140.89229 -67.18972 C 140.9769 -67.19434 141.06157 -67.19742 141.14629 -67.19896 L 151.91085 -67.394676 C 151.98308 -67.39599 152.05529 -67.39842 152.12745 -67.40197 L 164.14607 -67.99305 C 164.19483 -67.99545 164.24355 -67.998355 164.29225 -68.00177 L 175.5323 -68.79055 C 175.59023 -68.79461 175.64812 -68.7994 175.70594 -68.80491 L 188.11651 -69.986866 C 188.18497 -69.993386 188.25352 -69.9989 188.32214 -70.0034 L 200.25416 -70.78582 C 200.36418 -70.79304 200.474 -70.80285 200.58355 -70.81525 L 210.9959 -71.99401 C 211.01144 -71.99577 211.02697 -71.99758 211.0425 -71.99944 L 220.9902 -73.19317 C 221.00954 -73.19549 221.02886 -73.19789 221.04818 -73.20037 L 234.88394 -74.97791 C 234.98115 -74.9904 235.0781 -75.00493 235.1747 -75.02149 L 241.7282 -76.14494 C 241.92915 -76.17939 242.13153 -76.20505 242.33473 -76.22183 L 245.56706 -76.488805 C 246.4563 -76.56225 247.3233 -76.80503 248.12135 -77.20406 L 249.60765 -77.94721 C 250.20824 -78.2475 250.7625 -78.63265 251.25338 -79.09081 L 252.5885 -80.33692 C 253.19532 -80.90328 253.65073 -81.61253 253.91322 -82.39999 L 254.20805 -83.28448 C 254.27812 -83.4947 254.33817 -83.70813 254.388 -83.92405 L 254.8577 -85.95944 C 254.89293 -86.11208 254.8595 -86.27248 254.7662 -86.39832 L 254.7662 -86.39832 C 254.67587 -86.5202 254.52523 -86.5817 254.3754 -86.55786 L 245.89555 -85.20879 C 245.84466 -85.20069 245.79385 -85.19204 245.74315 -85.18282 L 232.7584 -82.82195 C 232.6656 -82.80508 232.5725 -82.79009 232.4791 -82.77698 L 221.24943 -81.20089 C 221.22928 -81.19806 221.20914 -81.19514 221.18902 -81.19214 L 208.0199 -79.2266 C 207.88613 -79.206635 207.75182 -79.19055 207.61712 -79.17837 L 197.10874 -78.22792 C 196.90302 -78.20931 196.69657 -78.19982 196.49 -78.19947 L 195.05605 -78.19705 C 194.8982 -78.19678 194.7404 -78.19117 194.58293 -78.18024 L 180.45308 -77.199 C 180.4305 -77.19743 180.4079 -77.19597 180.3853 -77.19462 L 167.08205 -76.4004 C 167.04016 -76.3979 166.99824 -76.39577 166.9563 -76.394025 L 152.76485 -75.802715 C 152.66776 -75.79867 152.5706 -75.79665 152.47344 -75.79665 L 139.2192 -75.79665 L 126.67753 -75.79665 C 126.63865 -75.79665 126.59976 -75.79632 126.56088 -75.79567 L 114.8025 -75.5997 C 114.68032 -75.597665 114.55812 -75.59883 114.436 -75.60319 L 103.6024 -75.9901 C 103.48029 -75.99446 103.35809 -75.99563 103.23591 -75.99359 L 91.52127 -75.79835 C 91.45323 -75.79721 91.38518 -75.79707 91.31713 -75.79792 L 75.614845 -75.9942 C 75.48444 -75.99583 75.35411 -76.0011 75.22401 -76.01002 L 60.91423 -76.99014 C 60.85088 -76.99448 60.7876 -76.99968 60.72439 -77.00574 L 46.233386 -78.39529 C 46.22393 -78.39619 46.21448 -78.39712 46.20503 -78.39806 L 32.392992 -79.77927 C 32.27715 -79.79085 32.161618 -79.80532 32.0465 -79.82267 L 17.737347 -81.97884 C 17.65859 -81.99071 17.579637 -82.00123 17.500521 -82.01041 L 3.9805893 -83.57793 C 3.8730133 -83.59041 3.765741 -83.60537 3.6588597 -83.62282 L -5.733229 -85.15623 C -5.898221 -85.18316 -6.062195 -85.216 -6.224836 -85.25468 L -15.302435 -87.41346 C -15.690754 -87.50581 -16.080411 -87.26588 -16.172759 -86.87756 C -16.178842 -86.85198 -16.183525 -86.82608 -16.186787 -86.79999 Z" fill="url(#Obj_Gradient_4)"/>
      <path d="M -16.186787 -86.79999 L -16.186787 -86.79999 C -16.252471 -86.27451 -16.189645 -85.74095 -16.003702 -85.2451 L -15.352694 -83.50908 C -15.175938 -83.03773 -14.948853 -82.58682 -14.67538 -82.16418 L -13.707566 -80.66847 C -13.166608 -79.83244 -12.453506 -79.12145 -11.615879 -78.58298 L -10.53783 -77.88995 C -10.237574 -77.69693 -9.922994 -77.52715 -9.596843 -77.382115 L -8.279989 -76.79651 C -7.68346 -76.53124 -7.0527545 -76.35072 -6.406207 -76.2602 L 2.6042134 -74.998745 C 2.6142068 -74.99735 2.6242033 -74.99597 2.6342026 -74.99461 L 14.350201 -73.406 C 14.396202 -73.399765 14.442263 -73.393985 14.488378 -73.388664 L 24.771315 -72.20217 C 24.80324 -72.19849 24.83519 -72.19502 24.867165 -72.19178 L 38.57723 -70.800904 C 38.605213 -70.798065 38.63321 -70.795395 38.661226 -70.79289 L 49.766526 -69.80135 C 49.801644 -69.79821 49.836786 -69.79534 49.87195 -69.79274 L 60.558485 -69.00114 C 60.598964 -68.998145 60.63947 -68.9955 60.67999 -68.993205 L 71.18798 -68.39841 C 71.208795 -68.397235 71.22961 -68.39596 71.25042 -68.3946 L 83.29319 -67.60491 C 83.37719 -67.5994 83.46129 -67.59541 83.54543 -67.59293 L 96.99256 -67.19743 C 97.01032 -67.19691 97.02809 -67.19632 97.04585 -67.19566 L 107.68971 -66.80144 C 107.77603 -66.798245 107.86241 -66.796646 107.94879 -66.796646 L 118.5578 -66.796646 C 118.59874 -66.796646 118.63967 -66.79629 118.6806 -66.79557 L 129.76702 -66.60107 C 129.93509 -66.59812 130.10321 -66.60123 130.27106 -66.61038 L 140.89229 -67.18972 C 140.9769 -67.19434 141.06157 -67.19742 141.14629 -67.19896 L 151.91085 -67.394676 C 151.98308 -67.39599 152.05529 -67.39842 152.12745 -67.40197 L 164.14607 -67.99305 C 164.19483 -67.99545 164.24355 -67.998355 164.29225 -68.00177 L 175.5323 -68.79055 C 175.59023 -68.79461 175.64812 -68.7994 175.70594 -68.80491 L 188.11651 -69.986866 C 188.18497 -69.993386 188.25352 -69.9989 188.32214 -70.0034 L 200.25416 -70.78582 C 200.36418 -70.79304 200.474 -70.80285 200.58355 -70.81525 L 210.9959 -71.99401 C 211.01144 -71.99577 211.02697 -71.99758 211.0425 -71.99944 L 220.9902 -73.19317 C 221.00954 -73.19549 221.02886 -73.19789 221.04818 -73.20037 L 234.88394 -74.97791 C 234.98115 -74.9904 235.0781 -75.00493 235.1747 -75.02149 L 241.7282 -76.14494 C 241.92915 -76.17939 242.13153 -76.20505 242.33473 -76.22183 L 245.56706 -76.488805 C 246.4563 -76.56225 247.3233 -76.80503 248.12135 -77.20406 L 249.60765 -77.94721 C 250.20824 -78.2475 250.7625 -78.63265 251.25338 -79.09081 L 252.5885 -80.33692 C 253.19532 -80.90328 253.65073 -81.61253 253.91322 -82.39999 L 254.20805 -83.28448 C 254.27812 -83.4947 254.33817 -83.70813 254.388 -83.92405 L 254.8577 -85.95944 C 254.89293 -86.11208 254.8595 -86.27248 254.7662 -86.39832 L 254.7662 -86.39832 C 254.67587 -86.5202 254.52523 -86.5817 254.3754 -86.55786 L 245.89555 -85.20879 C 245.84466 -85.20069 245.79385 -85.19204 245.74315 -85.18282 L 232.7584 -82.82195 C 232.6656 -82.80508 232.5725 -82.79009 232.4791 -82.77698 L 221.24943 -81.20089 C 221.22928 -81.19806 221.20914 -81.19514 221.18902 -81.19214 L 208.0199 -79.2266 C 207.88613 -79.206635 207.75182 -79.19055 207.61712 -79.17837 L 197.10874 -78.22792 C 196.90302 -78.20931 196.69657 -78.19982 196.49 -78.19947 L 195.05605 -78.19705 C 194.8982 -78.19678 194.7404 -78.19117 194.58293 -78.18024 L 180.45308 -77.199 C 180.4305 -77.19743 180.4079 -77.19597 180.3853 -77.19462 L 167.08205 -76.4004 C 167.04016 -76.3979 166.99824 -76.39577 166.9563 -76.394025 L 152.76485 -75.802715 C 152.66776 -75.79867 152.5706 -75.79665 152.47344 -75.79665 L 139.2192 -75.79665 L 126.67753 -75.79665 C 126.63865 -75.79665 126.59976 -75.79632 126.56088 -75.79567 L 114.8025 -75.5997 C 114.68032 -75.597665 114.55812 -75.59883 114.436 -75.60319 L 103.6024 -75.9901 C 103.48029 -75.99446 103.35809 -75.99563 103.23591 -75.99359 L 91.52127 -75.79835 C 91.45323 -75.79721 91.38518 -75.79707 91.31713 -75.79792 L 75.614845 -75.9942 C 75.48444 -75.99583 75.35411 -76.0011 75.22401 -76.01002 L 60.91423 -76.99014 C 60.85088 -76.99448 60.7876 -76.99968 60.72439 -77.00574 L 46.233386 -78.39529 C 46.22393 -78.39619 46.21448 -78.39712 46.20503 -78.39806 L 32.392992 -79.77927 C 32.27715 -79.79085 32.161618 -79.80532 32.0465 -79.82267 L 17.737347 -81.97884 C 17.65859 -81.99071 17.579637 -82.00123 17.500521 -82.01041 L 3.9805893 -83.57793 C 3.8730133 -83.59041 3.765741 -83.60537 3.6588597 -83.62282 L -5.733229 -85.15623 C -5.898221 -85.18316 -6.062195 -85.216 -6.224836 -85.25468 L -15.302435 -87.41346 C -15.690754 -87.50581 -16.080411 -87.26588 -16.172759 -86.87756 C -16.178842 -86.85198 -16.183525 -86.82608 -16.186787 -86.79999 Z" stroke="#7f8080" stroke-linecap="round" stroke-linejoin="round" stroke-width="1"/>
    </g>
  </g>
</svg>
