<?xml version="1.0" encoding="UTF-8" standalone="no"?>
<!DOCTYPE svg PUBLIC "-//W3C//DTD SVG 1.1//EN" "http://www.w3.org/Graphics/SVG/1.1/DTD/svg11.dtd">
<svg xmlns="http://www.w3.org/2000/svg" xmlns:xl="http://www.w3.org/1999/xlink" version="1.1" viewBox="-57.5 -121.5 432.4053 448.4" width="432.4053pt" height="448.4pt" xmlns:dc="http://purl.org/dc/elements/1.1/">
  <metadata> Produced by OmniGraffle 7.6.1 
    <dc:date>2019-06-02 19:42:58 +0000</dc:date>
  </metadata>
  <defs>
    <radialGradient cx="0" cy="0" r="1" id="Gradient" gradientUnits="userSpaceOnUse">
      <stop offset="0" stop-color="white"/>
      <stop offset="1" stop-color="#171605"/>
    </radialGradient>
    <radialGradient id="Obj_Gradient" xl:href="#Gradient" gradientTransform="translate(157.75925 -93.6) scale(70.26272)"/>
    <linearGradient x1="0" x2="1" id="Gradient_2" gradientUnits="userSpaceOnUse">
      <stop offset="0" stop-color="#780000"/>
      <stop offset="1" stop-color="#290200"/>
    </linearGradient>
    <linearGradient id="Obj_Gradient_2" xl:href="#Gradient_2" gradientTransform="translate(158.70264 -119.7183) rotate(90) scale(446.1183)"/>
    <linearGradient x1="0" x2="1" id="Gradient_3" gradientUnits="userSpaceOnUse">
      <stop offset="0" stop-color="#64e2ff"/>
      <stop offset="1" stop-color="#a5a5a5"/>
    </linearGradient>
    <linearGradient id="Obj_Gradient_3" xl:href="#Gradient_3" gradientTransform="translate(159.05797 -126.7607) rotate(96) scale(38.24269)"/>
  </defs>
  <g stroke="none" stroke-opacity="1" stroke-dasharray="none" fill="none" fill-opacity="1">
    <title>aston</title>
    <g>
      <title>Layer 1</title>
      <path d="M 96.00565 -120.40955 L 104.17111 -117.29184 C 105.0291 -116.96424 105.90594 -116.68833 106.79692 -116.46558 L 120.5141 -113.03629 C 121.67576 -112.74587 122.85832 -112.54662 124.051 -112.44034 L 141.57715 -110.8786 C 142.165 -110.82622 142.75464 -110.79648 143.34478 -110.78946 L 158.8237 -110.60519 C 159.11404 -110.60173 159.40442 -110.60377 159.69469 -110.61131 L 174.118 -110.98594 C 174.47878 -110.99531 174.8393 -111.01317 175.19924 -111.03951 L 189.57053 -112.09107 C 190.56197 -112.16361 191.54766 -112.30036 192.5214 -112.50044 L 204.09436 -114.87845 C 205.13637 -115.09256 206.16226 -115.3787 207.16465 -115.73481 L 218.91664 -119.90986 C 220.00702 -120.29723 221.21021 -119.76646 221.65925 -118.7 L 221.65925 -118.7 C 222.1814 -117.4599 222.33338 -116.09515 222.09685 -114.77055 L 221.91637 -113.75986 C 221.6126 -112.0587 221.11806 -110.3972 220.44214 -108.80681 L 218.89892 -105.17569 C 218.34035 -103.86142 217.6606 -102.60202 216.86846 -101.41382 L 213.18268 -95.88515 C 212.43517 -94.76389 211.59057 -93.71049 210.6586 -92.73711 L 204.36354 -86.16226 C 203.49547 -85.25561 202.55463 -84.42154 201.55046 -83.66841 L 193.17555 -77.38723 C 192.29914 -76.72992 191.37688 -76.13606 190.41582 -75.6102 L 183.23062 -71.67867 C 181.9195 -70.961265 180.54156 -70.37336 179.11638 -69.9233 L 172.44347 -67.81607 C 170.7266 -67.2739 168.952 -66.935195 167.15613 -66.80692 L 160.26968 -66.31503 C 159.19738 -66.23844 158.12103 -66.23712 157.04854 -66.31108 L 148.61229 -66.89289 C 147.57811 -66.964216 146.54994 -67.10537 145.5348 -67.3154 L 138.3996 -68.79165 C 136.44765 -69.1955 134.55647 -69.85139 132.77362 -70.742815 L 128.11421 -73.07252 C 126.88007 -73.68959 125.70397 -74.41646 124.60012 -75.244345 L 118.91816 -79.50581 C 118.47903 -79.835165 118.05182 -80.18013 117.63737 -80.54005 L 111.88219 -85.53797 C 111.0679 -86.24511 110.30436 -87.00865 109.59722 -87.82294 L 105.192 -92.89562 C 104.43789 -93.76398 103.74998 -94.68768 103.13406 -95.65895 L 99.40036 -101.54671 C 99.03979 -102.1153 98.70437 -102.69944 98.39505 -103.29745 L 96.77468 -106.43017 C 96.16553 -107.60785 95.65936 -108.836 95.26183 -110.10089 L 93.98159 -114.17438 C 93.76681 -114.85775 93.58408 -115.55079 93.43399 -116.25122 L 93.35925 -116.6 C 93.16458 -117.50843 93.27185 -118.45557 93.66473 -119.29746 L 93.75925 -119.5 C 94.15372 -120.3453 95.1342 -120.74229 96.00565 -120.40955 Z" fill="url(#Obj_Gradient)"/>
      <path d="M 96.00565 -120.40955 L 104.17111 -117.29184 C 105.0291 -116.96424 105.90594 -116.68833 106.79692 -116.46558 L 120.5141 -113.03629 C 121.67576 -112.74587 122.85832 -112.54662 124.051 -112.44034 L 141.57715 -110.8786 C 142.165 -110.82622 142.75464 -110.79648 143.34478 -110.78946 L 158.8237 -110.60519 C 159.11404 -110.60173 159.40442 -110.60377 159.69469 -110.61131 L 174.118 -110.98594 C 174.47878 -110.99531 174.8393 -111.01317 175.19924 -111.03951 L 189.57053 -112.09107 C 190.56197 -112.16361 191.54766 -112.30036 192.5214 -112.50044 L 204.09436 -114.87845 C 205.13637 -115.09256 206.16226 -115.3787 207.16465 -115.73481 L 218.91664 -119.90986 C 220.00702 -120.29723 221.21021 -119.76646 221.65925 -118.7 L 221.65925 -118.7 C 222.1814 -117.4599 222.33338 -116.09515 222.09685 -114.77055 L 221.91637 -113.75986 C 221.6126 -112.0587 221.11806 -110.3972 220.44214 -108.80681 L 218.89892 -105.17569 C 218.34035 -103.86142 217.6606 -102.60202 216.86846 -101.41382 L 213.18268 -95.88515 C 212.43517 -94.76389 211.59057 -93.71049 210.6586 -92.73711 L 204.36354 -86.16226 C 203.49547 -85.25561 202.55463 -84.42154 201.55046 -83.66841 L 193.17555 -77.38723 C 192.29914 -76.72992 191.37688 -76.13606 190.41582 -75.6102 L 183.23062 -71.67867 C 181.9195 -70.961265 180.54156 -70.37336 179.11638 -69.9233 L 172.44347 -67.81607 C 170.7266 -67.2739 168.952 -66.935195 167.15613 -66.80692 L 160.26968 -66.31503 C 159.19738 -66.23844 158.12103 -66.23712 157.04854 -66.31108 L 148.61229 -66.89289 C 147.57811 -66.964216 146.54994 -67.10537 145.5348 -67.3154 L 138.3996 -68.79165 C 136.44765 -69.1955 134.55647 -69.85139 132.77362 -70.742815 L 128.11421 -73.07252 C 126.88007 -73.68959 125.70397 -74.41646 124.60012 -75.244345 L 118.91816 -79.50581 C 118.47903 -79.835165 118.05182 -80.18013 117.63737 -80.54005 L 111.88219 -85.53797 C 111.0679 -86.24511 110.30436 -87.00865 109.59722 -87.82294 L 105.192 -92.89562 C 104.43789 -93.76398 103.74998 -94.68768 103.13406 -95.65895 L 99.40036 -101.54671 C 99.03979 -102.1153 98.70437 -102.69944 98.39505 -103.29745 L 96.77468 -106.43017 C 96.16553 -107.60785 95.65936 -108.836 95.26183 -110.10089 L 93.98159 -114.17438 C 93.76681 -114.85775 93.58408 -115.55079 93.43399 -116.25122 L 93.35925 -116.6 C 93.16458 -117.50843 93.27185 -118.45557 93.66473 -119.29746 L 93.75925 -119.5 C 94.15372 -120.3453 95.1342 -120.74229 96.00565 -120.40955 Z" stroke="#7f8080" stroke-linecap="round" stroke-linejoin="round" stroke-width="1"/>
      <path d="M 31.973455 316.2638 L 45.715696 318.55416 C 45.89907 318.58472 46.08297 318.6121 46.2673 318.63624 L 74.62094 322.35154 C 74.86747 322.38385 75.114715 322.4104 75.36248 322.4312 L 105.60537 324.9677 C 105.86227 324.98923 106.11966 325.00456 106.37731 325.01367 L 145.30822 326.39 C 145.49658 326.39668 145.68504 326.4 145.87352 326.4 L 177.34084 326.4 C 177.50746 326.4 177.67407 326.3974 177.8406 326.3922 L 202.87539 325.60986 C 203.08563 325.6033 203.29573 325.59258 203.50555 325.57772 L 225.5533 324.01682 C 225.71161 324.0056 225.86975 323.99205 226.02766 323.97614 L 251.28815 321.4305 C 251.4899 321.41017 251.69122 321.386 251.89204 321.35803 L 275.68474 318.04265 C 275.88875 318.01422 276.0922 317.98186 276.29496 317.94558 L 285.4908 316.3 C 290.8179 315.34674 294.46876 310.3931 293.80234 305.02255 L 291.59475 287.23198 C 291.5921 287.21066 291.5895 287.18934 291.58695 287.168 L 288.02312 257.4695 C 288.00157 257.28985 287.98306 257.10985 287.9676 256.92958 L 285.6054 229.37037 C 285.59565 229.2568 285.58713 229.14312 285.57983 229.02936 L 284.1932 207.43772 C 284.1916 207.41258 284.18992 207.38744 284.1882 207.3623 L 282.59603 184.27599 C 282.59253 184.22533 282.58928 184.17466 282.58627 184.12398 L 281.4099 164.3218 C 281.39716 164.1073 281.38874 163.89255 281.38465 163.6777 L 280.99236 143.08285 C 280.9913 143.02762 280.98997 142.9724 280.98835 142.91718 L 280.39322 122.68283 C 280.3916 122.62761 280.39026 122.57239 280.3892 122.51715 L 279.99855 102.00761 C 279.99337 101.73592 279.99512 101.46413 280.0038 101.19253 L 280.58973 82.83292 C 280.59044 82.81097 280.59118 82.78903 280.59197 82.76709 L 281.38005 60.897785 C 281.3872 60.69928 281.39806 60.50093 281.4126 60.302826 L 282.97007 39.08221 C 282.98388 38.894086 282.99436 38.705734 283.0015 38.51724 L 283.75596 18.618373 C 283.77915 18.006628 283.83744 17.396718 283.93052 16.791652 L 286.66953 -1.0118663 C 286.7503 -1.5369637 286.8572 -2.0577116 286.9898 -2.5721747 L 291.61806 -20.529826 C 291.73316 -20.9764 291.8675 -21.417787 292.02073 -21.852753 L 297.7415 -38.092394 C 297.9076 -38.56387 298.0957 -39.027307 298.30517 -39.481174 L 303.83673 -51.466213 C 303.93942 -51.68871 304.0472 -51.908814 304.16 -52.12636 L 309.52223 -62.46778 C 309.56793 -62.555925 309.61446 -62.64364 309.6618 -62.73092 L 314.87777 -72.34788 C 315.61505 -73.70724 316.56468 -74.94013 317.6908 -76 L 317.6908 -76 C 318.36598 -76.63547 318.39817 -77.69797 317.7627 -78.37316 C 317.6382 -78.50544 317.49307 -78.61663 317.33295 -78.70241 L 314.1188 -80.42427 C 313.90016 -80.54141 313.6788 -80.65344 313.45494 -80.76029 L 305.60097 -84.50878 C 305.19436 -84.70284 304.77974 -84.87964 304.3582 -85.03871 L 294.68338 -88.68959 C 294.48833 -88.76319 294.29187 -88.83297 294.0941 -88.89889 L 281.39963 -93.13038 C 281.2604 -93.17679 281.12055 -93.22128 280.9801 -93.26384 L 268.09658 -97.16794 C 268.02605 -97.18931 267.95567 -97.21117 267.88544 -97.23352 L 255.38144 -101.21206 C 254.98782 -101.33731 254.5992 -101.47775 254.21643 -101.63307 L 242.2405 -106.49287 C 241.40883 -106.83036 240.60704 -107.23723 239.8436 -107.70917 L 230.22436 -113.65561 C 230.06865 -113.75186 229.9146 -113.85078 229.7623 -113.95232 L 224.8722 -117.21238 C 223.89081 -117.86665 223.0195 -118.67255 222.29078 -119.6 L 222.29078 -119.6 C 222.18518 -119.7344 221.99062 -119.75775 221.8562 -119.65215 C 221.75347 -119.57142 221.7125 -119.43487 221.7538 -119.31092 L 221.89078 -118.9 C 222.35003 -117.52225 222.4546 -116.05096 222.1948 -114.62211 L 221.79967 -112.44885 C 221.52845 -110.95719 221.0466 -109.51165 220.36858 -108.1556 L 218.83626 -105.09096 C 218.53956 -104.49756 218.20624 -103.92319 217.83823 -103.37117 L 214.63453 -98.56562 C 214.20593 -97.92272 213.73132 -97.31171 213.21443 -96.73739 L 208.65238 -91.66844 C 208.61132 -91.62281 208.57 -91.57742 208.5284 -91.53227 L 202.53417 -85.02424 C 201.90643 -84.3427 201.22068 -83.71698 200.48465 -83.15413 L 195.46047 -79.31211 C 195.01432 -78.97094 194.55052 -78.6535 194.07099 -78.3611 L 187.58458 -74.40597 C 186.92292 -74.00252 186.23283 -73.64768 185.51975 -73.34424 L 178.40434 -70.316404 C 177.59667 -69.97272 176.7621 -69.696074 175.90905 -69.48928 L 171.83 -68.50041 C 171.00516 -68.300454 170.16573 -68.16644 169.31963 -68.099645 L 163.61943 -67.64963 C 163.2005 -67.616555 162.78042 -67.6 162.36019 -67.6 L 155.32787 -67.6 C 154.57077 -67.6 153.81462 -67.65374 153.06513 -67.76081 L 145.11868 -68.89601 C 144.63367 -68.9653 144.1521 -69.05683 143.6755 -69.17031 L 137.71426 -70.58965 C 136.56878 -70.86238 135.4569 -71.26073 134.39883 -71.77747 L 128.11882 -74.84444 C 127.63377 -75.08133 127.16102 -75.34261 126.70238 -75.62728 L 122.49052 -78.24154 C 121.89135 -78.61344 121.31742 -79.02454 120.7725 -79.47216 L 116.32639 -83.12432 C 116.10269 -83.30807 115.88402 -83.49786 115.67063 -83.69348 L 111.86828 -87.17896 C 111.41699 -87.59264 110.98981 -88.03189 110.58885 -88.49454 L 106.4701 -93.24693 C 106.15072 -93.61545 105.84836 -93.99838 105.56395 -94.39451 L 101.1343 -100.56439 C 100.6394 -101.2537 100.20013 -101.9813 99.82064 -102.74028 L 97.24418 -107.89321 C 97.20858 -107.9644 97.17352 -108.03586 97.13899 -108.10758 L 95.89078 -110.7 C 95.04007 -112.46687 94.68455 -114.4314 94.86209 -116.38436 L 95.04229 -118.36661 C 95.0661 -118.62848 94.87312 -118.86006 94.61125 -118.88386 C 94.44886 -118.89862 94.2902 -118.82925 94.19078 -118.7 L 94.19078 -118.7 C 93.52734 -117.83752 92.74723 -117.07144 91.87285 -116.42375 L 87.97632 -113.53743 C 87.85263 -113.44582 87.72763 -113.35599 87.60136 -113.26798 L 82.97911 -110.04641 C 81.79237 -109.21929 80.49895 -108.55692 79.1342 -108.07742 L 74.52708 -106.4587 C 74.036505 -106.28633 73.55463 -106.09016 73.08316 -105.87087 L 66.23638 -102.68632 C 65.54022 -102.36253 64.82165 -102.08926 64.08625 -101.86864 L 53.215864 -98.60752 C 53.19914 -98.60251 53.18243 -98.59746 53.165724 -98.59239 L 42.197637 -95.2628 C 42.05974 -95.22093 41.922414 -95.17721 41.7857 -95.13164 L 28.864464 -90.82456 C 28.815343 -90.80819 28.766142 -90.79205 28.716864 -90.77616 L 17.349458 -87.10925 C 16.710972 -86.90329 16.086073 -86.65737 15.47846 -86.37296 L 7.546495 -82.66012 C 7.176155 -82.48677 6.812597 -82.29929 6.456621 -82.09808 L .5105063 -78.73724 C -.7425276 -78.029 -1.1841731 -76.439075 -.4759366 -75.18604 C -.39881915 -75.0496 -.30955157 -74.9204 -.20921898 -74.8 L .6548919 -73.76307 C 1.4098374 -72.85713 2.0623136 -71.87051 2.6004308 -70.82118 L 5.677569 -64.82076 C 5.753039 -64.673596 5.830787 -64.52761 5.910784 -64.38285 L 9.865536 -57.22663 C 9.949027 -57.07555 10.030068 -56.92313 10.108627 -56.76943 L 14.216931 -48.731444 C 14.466 -48.244135 14.689904 -47.74437 14.887757 -47.234113 L 18.370526 -38.252235 C 18.38403 -38.21741 18.397655 -38.182634 18.411402 -38.147906 L 22.007724 -29.06246 C 22.129733 -28.754227 22.242133 -28.442277 22.34476 -28.12706 L 24.966596 -20.074284 C 24.98272 -20.02476 24.9986 -19.97516 25.01424 -19.92548 L 28.08629 -10.16721 C 28.28908 -9.523048 28.450886 -8.866694 28.570733 -8.202085 L 30.556045 2.8073723 C 30.5792 2.9357872 30.600787 3.0644806 30.620795 3.1934235 L 32.326665 14.186805 C 32.369402 14.462223 32.404935 14.73871 32.43323 15.015984 L 33.32065 23.7127 C 33.367382 24.170688 33.394327 24.63048 33.40141 25.090793 L 33.58565 37.066414 C 33.58907 37.28878 33.597127 37.511054 33.609815 37.733086 L 34.38019 51.21465 C 34.38725 51.338214 34.395745 51.46169 34.40567 51.58506 L 35.73924 68.15943 C 35.773588 68.58631 35.79078 69.01439 35.79078 69.44264 L 35.79078 81.89242 C 35.79078 82.09746 35.794723 82.30247 35.802603 82.50735 L 36.382954 97.59649 C 36.388172 97.73216 36.391663 97.86789 36.393426 98.00365 L 36.585585 112.7999 C 36.58905 113.0666 36.585843 113.33333 36.57597 113.59986 L 36.001744 129.10401 C 35.994436 129.30132 35.99078 129.49875 35.99078 129.6962 L 35.99078 143.29243 C 35.99078 143.49746 35.98684 143.70247 35.97896 143.90736 L 35.39377 159.12236 C 35.391777 159.17412 35.389535 159.22588 35.38704 159.27762 L 34.59172 175.78055 C 34.591094 175.79352 34.590453 175.80649 34.589797 175.81945 L 33.795307 191.51062 C 33.79229 191.5702 33.78894 191.62978 33.785256 191.68933 L 32.596345 210.91007 C 32.592636 210.97003 32.58859 211.02996 32.584206 211.08987 L 30.801068 235.45942 C 30.79421 235.55314 30.786527 235.6468 30.77802 235.74038 L 28.992128 255.3852 C 28.99123 255.39507 28.990324 255.40494 28.989408 255.4148 L 27.218643 274.49972 C 27.20007 274.6999 27.177726 274.8997 27.151623 275.09903 L 25.19091 290.07175 C 25.0581 291.08594 24.788958 292.07756 24.39078 293.01973 L 24.39078 293.01973 C 23.993206 293.96048 23.744538 294.9574 23.653714 295.97465 L 22.89078 304.51973 C 22.383025 310.20676 26.34149 315.32512 31.973455 316.2638 Z" fill="url(#Obj_Gradient_2)"/>
      <path d="M 31.973455 316.2638 L 45.715696 318.55416 C 45.89907 318.58472 46.08297 318.6121 46.2673 318.63624 L 74.62094 322.35154 C 74.86747 322.38385 75.114715 322.4104 75.36248 322.4312 L 105.60537 324.9677 C 105.86227 324.98923 106.11966 325.00456 106.37731 325.01367 L 145.30822 326.39 C 145.49658 326.39668 145.68504 326.4 145.87352 326.4 L 177.34084 326.4 C 177.50746 326.4 177.67407 326.3974 177.8406 326.3922 L 202.87539 325.60986 C 203.08563 325.6033 203.29573 325.59258 203.50555 325.57772 L 225.5533 324.01682 C 225.71161 324.0056 225.86975 323.99205 226.02766 323.97614 L 251.28815 321.4305 C 251.4899 321.41017 251.69122 321.386 251.89204 321.35803 L 275.68474 318.04265 C 275.88875 318.01422 276.0922 317.98186 276.29496 317.94558 L 285.4908 316.3 C 290.8179 315.34674 294.46876 310.3931 293.80234 305.02255 L 291.59475 287.23198 C 291.5921 287.21066 291.5895 287.18934 291.58695 287.168 L 288.02312 257.4695 C 288.00157 257.28985 287.98306 257.10985 287.9676 256.92958 L 285.6054 229.37037 C 285.59565 229.2568 285.58713 229.14312 285.57983 229.02936 L 284.1932 207.43772 C 284.1916 207.41258 284.18992 207.38744 284.1882 207.3623 L 282.59603 184.27599 C 282.59253 184.22533 282.58928 184.17466 282.58627 184.12398 L 281.4099 164.3218 C 281.39716 164.1073 281.38874 163.89255 281.38465 163.6777 L 280.99236 143.08285 C 280.9913 143.02762 280.98997 142.9724 280.98835 142.91718 L 280.39322 122.68283 C 280.3916 122.62761 280.39026 122.57239 280.3892 122.51715 L 279.99855 102.00761 C 279.99337 101.73592 279.99512 101.46413 280.0038 101.19253 L 280.58973 82.83292 C 280.59044 82.81097 280.59118 82.78903 280.59197 82.76709 L 281.38005 60.897785 C 281.3872 60.69928 281.39806 60.50093 281.4126 60.302826 L 282.97007 39.08221 C 282.98388 38.894086 282.99436 38.705734 283.0015 38.51724 L 283.75596 18.618373 C 283.77915 18.006628 283.83744 17.396718 283.93052 16.791652 L 286.66953 -1.0118663 C 286.7503 -1.5369637 286.8572 -2.0577116 286.9898 -2.5721747 L 291.61806 -20.529826 C 291.73316 -20.9764 291.8675 -21.417787 292.02073 -21.852753 L 297.7415 -38.092394 C 297.9076 -38.56387 298.0957 -39.027307 298.30517 -39.481174 L 303.83673 -51.466213 C 303.93942 -51.68871 304.0472 -51.908814 304.16 -52.12636 L 309.52223 -62.46778 C 309.56793 -62.555925 309.61446 -62.64364 309.6618 -62.73092 L 314.87777 -72.34788 C 315.61505 -73.70724 316.56468 -74.94013 317.6908 -76 L 317.6908 -76 C 318.36598 -76.63547 318.39817 -77.69797 317.7627 -78.37316 C 317.6382 -78.50544 317.49307 -78.61663 317.33295 -78.70241 L 314.1188 -80.42427 C 313.90016 -80.54141 313.6788 -80.65344 313.45494 -80.76029 L 305.60097 -84.50878 C 305.19436 -84.70284 304.77974 -84.87964 304.3582 -85.03871 L 294.68338 -88.68959 C 294.48833 -88.76319 294.29187 -88.83297 294.0941 -88.89889 L 281.39963 -93.13038 C 281.2604 -93.17679 281.12055 -93.22128 280.9801 -93.26384 L 268.09658 -97.16794 C 268.02605 -97.18931 267.95567 -97.21117 267.88544 -97.23352 L 255.38144 -101.21206 C 254.98782 -101.33731 254.5992 -101.47775 254.21643 -101.63307 L 242.2405 -106.49287 C 241.40883 -106.83036 240.60704 -107.23723 239.8436 -107.70917 L 230.22436 -113.65561 C 230.06865 -113.75186 229.9146 -113.85078 229.7623 -113.95232 L 224.8722 -117.21238 C 223.89081 -117.86665 223.0195 -118.67255 222.29078 -119.6 L 222.29078 -119.6 C 222.18518 -119.7344 221.99062 -119.75775 221.8562 -119.65215 C 221.75347 -119.57142 221.7125 -119.43487 221.7538 -119.31092 L 221.89078 -118.9 C 222.35003 -117.52225 222.4546 -116.05096 222.1948 -114.62211 L 221.79967 -112.44885 C 221.52845 -110.95719 221.0466 -109.51165 220.36858 -108.1556 L 218.83626 -105.09096 C 218.53956 -104.49756 218.20624 -103.92319 217.83823 -103.37117 L 214.63453 -98.56562 C 214.20593 -97.92272 213.73132 -97.31171 213.21443 -96.73739 L 208.65238 -91.66844 C 208.61132 -91.62281 208.57 -91.57742 208.5284 -91.53227 L 202.53417 -85.02424 C 201.90643 -84.3427 201.22068 -83.71698 200.48465 -83.15413 L 195.46047 -79.31211 C 195.01432 -78.97094 194.55052 -78.6535 194.07099 -78.3611 L 187.58458 -74.40597 C 186.92292 -74.00252 186.23283 -73.64768 185.51975 -73.34424 L 178.40434 -70.316404 C 177.59667 -69.97272 176.7621 -69.696074 175.90905 -69.48928 L 171.83 -68.50041 C 171.00516 -68.300454 170.16573 -68.16644 169.31963 -68.099645 L 163.61943 -67.64963 C 163.2005 -67.616555 162.78042 -67.6 162.36019 -67.6 L 155.32787 -67.6 C 154.57077 -67.6 153.81462 -67.65374 153.06513 -67.76081 L 145.11868 -68.89601 C 144.63367 -68.9653 144.1521 -69.05683 143.6755 -69.17031 L 137.71426 -70.58965 C 136.56878 -70.86238 135.4569 -71.26073 134.39883 -71.77747 L 128.11882 -74.84444 C 127.63377 -75.08133 127.16102 -75.34261 126.70238 -75.62728 L 122.49052 -78.24154 C 121.89135 -78.61344 121.31742 -79.02454 120.7725 -79.47216 L 116.32639 -83.12432 C 116.10269 -83.30807 115.88402 -83.49786 115.67063 -83.69348 L 111.86828 -87.17896 C 111.41699 -87.59264 110.98981 -88.03189 110.58885 -88.49454 L 106.4701 -93.24693 C 106.15072 -93.61545 105.84836 -93.99838 105.56395 -94.39451 L 101.1343 -100.56439 C 100.6394 -101.2537 100.20013 -101.9813 99.82064 -102.74028 L 97.24418 -107.89321 C 97.20858 -107.9644 97.17352 -108.03586 97.13899 -108.10758 L 95.89078 -110.7 C 95.04007 -112.46687 94.68455 -114.4314 94.86209 -116.38436 L 95.04229 -118.36661 C 95.0661 -118.62848 94.87312 -118.86006 94.61125 -118.88386 C 94.44886 -118.89862 94.2902 -118.82925 94.19078 -118.7 L 94.19078 -118.7 C 93.52734 -117.83752 92.74723 -117.07144 91.87285 -116.42375 L 87.97632 -113.53743 C 87.85263 -113.44582 87.72763 -113.35599 87.60136 -113.26798 L 82.97911 -110.04641 C 81.79237 -109.21929 80.49895 -108.55692 79.1342 -108.07742 L 74.52708 -106.4587 C 74.036505 -106.28633 73.55463 -106.09016 73.08316 -105.87087 L 66.23638 -102.68632 C 65.54022 -102.36253 64.82165 -102.08926 64.08625 -101.86864 L 53.215864 -98.60752 C 53.19914 -98.60251 53.18243 -98.59746 53.165724 -98.59239 L 42.197637 -95.2628 C 42.05974 -95.22093 41.922414 -95.17721 41.7857 -95.13164 L 28.864464 -90.82456 C 28.815343 -90.80819 28.766142 -90.79205 28.716864 -90.77616 L 17.349458 -87.10925 C 16.710972 -86.90329 16.086073 -86.65737 15.47846 -86.37296 L 7.546495 -82.66012 C 7.176155 -82.48677 6.812597 -82.29929 6.456621 -82.09808 L .5105063 -78.73724 C -.7425276 -78.029 -1.1841731 -76.439075 -.4759366 -75.18604 C -.39881915 -75.0496 -.30955157 -74.9204 -.20921898 -74.8 L .6548919 -73.76307 C 1.4098374 -72.85713 2.0623136 -71.87051 2.6004308 -70.82118 L 5.677569 -64.82076 C 5.753039 -64.673596 5.830787 -64.52761 5.910784 -64.38285 L 9.865536 -57.22663 C 9.949027 -57.07555 10.030068 -56.92313 10.108627 -56.76943 L 14.216931 -48.731444 C 14.466 -48.244135 14.689904 -47.74437 14.887757 -47.234113 L 18.370526 -38.252235 C 18.38403 -38.21741 18.397655 -38.182634 18.411402 -38.147906 L 22.007724 -29.06246 C 22.129733 -28.754227 22.242133 -28.442277 22.34476 -28.12706 L 24.966596 -20.074284 C 24.98272 -20.02476 24.9986 -19.97516 25.01424 -19.92548 L 28.08629 -10.16721 C 28.28908 -9.523048 28.450886 -8.866694 28.570733 -8.202085 L 30.556045 2.8073723 C 30.5792 2.9357872 30.600787 3.0644806 30.620795 3.1934235 L 32.326665 14.186805 C 32.369402 14.462223 32.404935 14.73871 32.43323 15.015984 L 33.32065 23.7127 C 33.367382 24.170688 33.394327 24.63048 33.40141 25.090793 L 33.58565 37.066414 C 33.58907 37.28878 33.597127 37.511054 33.609815 37.733086 L 34.38019 51.21465 C 34.38725 51.338214 34.395745 51.46169 34.40567 51.58506 L 35.73924 68.15943 C 35.773588 68.58631 35.79078 69.01439 35.79078 69.44264 L 35.79078 81.89242 C 35.79078 82.09746 35.794723 82.30247 35.802603 82.50735 L 36.382954 97.59649 C 36.388172 97.73216 36.391663 97.86789 36.393426 98.00365 L 36.585585 112.7999 C 36.58905 113.0666 36.585843 113.33333 36.57597 113.59986 L 36.001744 129.10401 C 35.994436 129.30132 35.99078 129.49875 35.99078 129.6962 L 35.99078 143.29243 C 35.99078 143.49746 35.98684 143.70247 35.97896 143.90736 L 35.39377 159.12236 C 35.391777 159.17412 35.389535 159.22588 35.38704 159.27762 L 34.59172 175.78055 C 34.591094 175.79352 34.590453 175.80649 34.589797 175.81945 L 33.795307 191.51062 C 33.79229 191.5702 33.78894 191.62978 33.785256 191.68933 L 32.596345 210.91007 C 32.592636 210.97003 32.58859 211.02996 32.584206 211.08987 L 30.801068 235.45942 C 30.79421 235.55314 30.786527 235.6468 30.77802 235.74038 L 28.992128 255.3852 C 28.99123 255.39507 28.990324 255.40494 28.989408 255.4148 L 27.218643 274.49972 C 27.20007 274.6999 27.177726 274.8997 27.151623 275.09903 L 25.19091 290.07175 C 25.0581 291.08594 24.788958 292.07756 24.39078 293.01973 L 24.39078 293.01973 C 23.993206 293.96048 23.744538 294.9574 23.653714 295.97465 L 22.89078 304.51973 C 22.383025 310.20676 26.34149 315.32512 31.973455 316.2638 Z" stroke="#7f8080" stroke-linecap="round" stroke-linejoin="round" stroke-width="1"/>
      <path d="M -57 30.446146 L -50.8 34.846146 L -42.6 38.846146 L -34 42.446146 L -25 46.246146 L -14 50.246146 L -4.599999 53.046146 L 4.400001 55.646146 L 13.400001 58.246146 L 18.800001 59.646146 L 24.4 60.646146 L 26.8 54.846146 L 29.4 49.446146 L 31.6 45.446146 L 34.2 42.046146 L 34.4 33.046146 L 33.8 22.046145 L 32 11.246145 L 30.4 .8461452 L 27.8 -10.153855 L 25.4 -19.753855 L 22.6 -27.753855 L 19.4 -37.153855 L 16.600001 -44.553856 L 13.000001 -52.153856 L 9.000001 -59.753856 L 5.000001 -67.153856 L 2.400001 -70.75386 L -1.1999992 -76.55386 L -6.599999 -72.15386 L -11.399999 -67.353856 L -16 -61.153856 L -20.4 -54.953856 L -25.2 -46.353856 L -30 -36.953855 L -34.8 -27.753855 L -38.4 -19.153855 L -42.4 -10.153855 L -45.6 -1.953855 L -49.4 7.446145 L -52.2 15.446145 L -55.2 23.846145 Z" fill="#44d6ff"/>
      <path d="M -57 30.446146 L -50.8 34.846146 L -42.6 38.846146 L -34 42.446146 L -25 46.246146 L -14 50.246146 L -4.599999 53.046146 L 4.400001 55.646146 L 13.400001 58.246146 L 18.800001 59.646146 L 24.4 60.646146 L 26.8 54.846146 L 29.4 49.446146 L 31.6 45.446146 L 34.2 42.046146 L 34.4 33.046146 L 33.8 22.046145 L 32 11.246145 L 30.4 .8461452 L 27.8 -10.153855 L 25.4 -19.753855 L 22.6 -27.753855 L 19.4 -37.153855 L 16.600001 -44.553856 L 13.000001 -52.153856 L 9.000001 -59.753856 L 5.000001 -67.153856 L 2.400001 -70.75386 L -1.1999992 -76.55386 L -6.599999 -72.15386 L -11.399999 -67.353856 L -16 -61.153856 L -20.4 -54.953856 L -25.2 -46.353856 L -30 -36.953855 L -34.8 -27.753855 L -38.4 -19.153855 L -42.4 -10.153855 L -45.6 -1.953855 L -49.4 7.446145 L -52.2 15.446145 L -55.2 23.846145 Z" stroke="#7f8080" stroke-linecap="round" stroke-linejoin="round" stroke-width="1"/>
      <path d="M 374.4053 29.50275 L 368.2053 33.90275 L 360.0053 37.90275 L 351.4053 41.50275 L 342.4053 45.30275 L 331.4053 49.30275 L 322.0053 52.10275 L 313.0053 54.70275 L 304.0053 57.30275 L 298.6053 58.70275 L 293.0053 59.70275 L 290.6053 53.90275 L 288.0053 48.50275 L 285.8053 44.50275 L 283.2053 41.10275 L 283.0053 32.10275 L 283.6053 21.10275 L 285.4053 10.302749 L 287.0053 -.09725108 L 289.6053 -11.097251 L 292.0053 -20.697251 L 294.8053 -28.69725 L 298.0053 -38.09725 L 300.8053 -45.49725 L 304.4053 -53.09725 L 308.4053 -60.69725 L 312.4053 -68.09725 L 315.0053 -71.69725 L 318.6053 -77.49725 L 324.0053 -73.09725 L 328.8053 -68.29725 L 333.4053 -62.09725 L 337.8053 -55.89725 L 342.6053 -47.29725 L 347.4053 -37.89725 L 352.2053 -28.69725 L 355.8053 -20.097251 L 359.8053 -11.097251 L 363.0053 -2.897251 L 366.8053 6.502749 L 369.6053 14.50275 L 372.6053 22.90275 Z" fill="#57cdff"/>
      <path d="M 374.4053 29.50275 L 368.2053 33.90275 L 360.0053 37.90275 L 351.4053 41.50275 L 342.4053 45.30275 L 331.4053 49.30275 L 322.0053 52.10275 L 313.0053 54.70275 L 304.0053 57.30275 L 298.6053 58.70275 L 293.0053 59.70275 L 290.6053 53.90275 L 288.0053 48.50275 L 285.8053 44.50275 L 283.2053 41.10275 L 283.0053 32.10275 L 283.6053 21.10275 L 285.4053 10.302749 L 287.0053 -.09725108 L 289.6053 -11.097251 L 292.0053 -20.697251 L 294.8053 -28.69725 L 298.0053 -38.09725 L 300.8053 -45.49725 L 304.4053 -53.09725 L 308.4053 -60.69725 L 312.4053 -68.09725 L 315.0053 -71.69725 L 318.6053 -77.49725 L 324.0053 -73.09725 L 328.8053 -68.29725 L 333.4053 -62.09725 L 337.8053 -55.89725 L 342.6053 -47.29725 L 347.4053 -37.89725 L 352.2053 -28.69725 L 355.8053 -20.097251 L 359.8053 -11.097251 L 363.0053 -2.897251 L 366.8053 6.502749 L 369.6053 14.50275 L 372.6053 22.90275 Z" stroke="#7f8080" stroke-linecap="round" stroke-linejoin="round" stroke-width="1"/>
      <path d="M -57 30.446146 L -50.8 34.846146 L -42.6 38.846146 L -34 42.446146 L -25 46.246146 L -14 50.246146 L -4.599999 53.046146 L 4.400001 55.646146 L 13.400001 58.246146 L 18.800001 59.646146 L 24.4 60.646146 L 27.4 54.246146 L 23.6 53.446146 L 18.800001 52.246146 L 13.200001 51.046146 L 7.200001 49.246146 L 2.600001 47.846146 L -1.5999992 46.646146 L -6.199999 44.646146 L -10.799999 43.046146 L -15.6 41.046146 L -19.6 39.646146 L -24.8 37.446146 L -29.4 35.846146 L -34.2 33.646146 L -39 31.846146 L -43 29.846146 L -47.4 27.646146 L -51.8 25.446146 L -55.2 23.846145 Z" fill="#790001"/>
      <path d="M -57 30.446146 L -50.8 34.846146 L -42.6 38.846146 L -34 42.446146 L -25 46.246146 L -14 50.246146 L -4.599999 53.046146 L 4.400001 55.646146 L 13.400001 58.246146 L 18.800001 59.646146 L 24.4 60.646146 L 27.4 54.246146 L 23.6 53.446146 L 18.800001 52.246146 L 13.200001 51.046146 L 7.200001 49.246146 L 2.600001 47.846146 L -1.5999992 46.646146 L -6.199999 44.646146 L -10.799999 43.046146 L -15.6 41.046146 L -19.6 39.646146 L -24.8 37.446146 L -29.4 35.846146 L -34.2 33.646146 L -39 31.846146 L -43 29.846146 L -47.4 27.646146 L -51.8 25.446146 L -55.2 23.846145 Z" stroke="#7f8080" stroke-linecap="round" stroke-linejoin="round" stroke-width="1"/>
      <path d="M 374.4053 29.50275 L 368.2053 33.90275 L 360.0053 37.90275 L 351.4053 41.50275 L 342.4053 45.30275 L 331.4053 49.30275 L 322.0053 52.10275 L 313.0053 54.70275 L 304.0053 57.30275 L 298.6053 58.70275 L 293.0053 59.70275 L 290.0053 53.30275 L 293.8053 52.50275 L 298.6053 51.30275 L 304.2053 50.10275 L 310.2053 48.30275 L 314.8053 46.90275 L 319.0053 45.70275 L 323.6053 43.70275 L 328.2053 42.10275 L 333.0053 40.10275 L 337.0053 38.70275 L 342.2053 36.50275 L 346.8053 34.90275 L 351.6053 32.70275 L 356.4053 30.90275 L 360.4053 28.90275 L 364.8053 26.70275 L 369.2053 24.50275 L 372.6053 22.90275 Z" fill="#890000"/>
      <path d="M 374.4053 29.50275 L 368.2053 33.90275 L 360.0053 37.90275 L 351.4053 41.50275 L 342.4053 45.30275 L 331.4053 49.30275 L 322.0053 52.10275 L 313.0053 54.70275 L 304.0053 57.30275 L 298.6053 58.70275 L 293.0053 59.70275 L 290.0053 53.30275 L 293.8053 52.50275 L 298.6053 51.30275 L 304.2053 50.10275 L 310.2053 48.30275 L 314.8053 46.90275 L 319.0053 45.70275 L 323.6053 43.70275 L 328.2053 42.10275 L 333.0053 40.10275 L 337.0053 38.70275 L 342.2053 36.50275 L 346.8053 34.90275 L 351.6053 32.70275 L 356.4053 30.90275 L 360.4053 28.90275 L 364.8053 26.70275 L 369.2053 24.50275 L 372.6053 22.90275 Z" stroke="#7f8080" stroke-linecap="round" stroke-linejoin="round" stroke-width="1"/>
      <path d="M 93.57212 -119.03621 L 88.84295 -114.98264 C 87.6926 -113.99662 86.44764 -113.12669 85.12621 -112.38552 L 82.59958 -110.96835 C 81.16441 -110.16338 80.5836 -108.39425 81.26239 -106.89527 L 82.28001 -104.64803 C 82.40158 -104.37954 82.52831 -104.11342 82.66012 -103.8498 L 84.46239 -100.24526 L 86.94938 -95.27129 C 87.29117 -94.5877 87.66683 -93.92157 88.07495 -93.27537 L 90.40134 -89.59192 C 90.84172 -88.89465 91.31928 -88.22158 91.83195 -87.57561 L 95.24264 -83.27815 C 95.78869 -82.59013 96.37371 -81.93394 96.99482 -81.31283 L 101.66087 -76.64679 C 102.06175 -76.24591 102.47731 -75.85999 102.90671 -75.48982 L 107.47023 -71.55574 C 107.86489 -71.21552 108.271 -70.88881 108.68785 -70.57617 L 112.66279 -67.59497 C 113.3287 -67.09553 114.02123 -66.63262 114.73733 -66.20826 L 118.8704 -63.75904 C 118.99839 -63.68319 119.12712 -63.608586 119.25656 -63.535235 L 123.9541 -60.87329 C 124.6924 -60.45493 125.45328 -60.07774 126.23325 -59.74347 L 129.78307 -58.22212 C 130.36903 -57.97099 130.96518 -57.744334 131.56997 -57.542736 L 136.58808 -55.870034 C 137.83532 -55.454286 139.11592 -55.146244 140.4158 -54.949294 L 144.51464 -54.328256 C 144.87976 -54.272936 145.24615 -54.22642 145.6135 -54.18874 L 152.4946 -53.482985 C 152.73978 -53.45784 152.98534 -53.436636 153.2312 -53.41938 L 157.75835 -53.10169 C 158.2942 -53.064085 158.83122 -53.045266 159.3684 -53.045266 L 162.63046 -53.045264 C 163.58416 -53.045264 164.53693 -53.10458 165.48327 -53.22287 L 169.47198 -53.72146 C 170.13195 -53.80396 170.78802 -53.91504 171.43835 -54.0544 L 177.52039 -55.35769 C 178.41426 -55.549236 179.29592 -55.7939 180.16068 -56.09039 L 184.66952 -57.63628 C 185.46417 -57.90873 186.2433 -58.224514 187.0034 -58.58221 L 191.83677 -60.85674 C 192.38697 -61.11565 192.92668 -61.396286 193.45464 -61.697975 L 197.2225 -63.85104 C 197.9153 -64.24692 198.58701 -64.678585 199.23494 -65.14428 L 203.91106 -68.50525 C 204.41175 -68.86511 204.89776 -69.24497 205.36792 -69.64389 L 210.68877 -74.158555 C 211.07108 -74.48294 211.44269 -74.81974 211.80298 -75.16842 L 216.5022 -79.71604 C 217.1418 -80.335 217.7449 -80.99056 218.30852 -81.67942 L 222.1018 -86.31566 C 222.60852 -86.93497 223.08257 -87.58031 223.52201 -88.24904 L 227.1392 -93.75344 C 227.35462 -94.08127 227.56163 -94.41456 227.76002 -94.75298 L 230.2831 -99.05708 C 230.66906 -99.71546 231.022 -100.39265 231.34062 -101.08612 L 233.45932 -105.69739 C 233.99218 -106.85715 234.36334 -108.08456 234.5624 -109.34526 L 234.5624 -109.34526 C 234.7407 -110.47453 234.1614 -111.58797 233.13432 -112.0901 L 227.84088 -114.678 C 226.52642 -115.32063 225.29183 -116.11514 224.1624 -117.04526 L 223.75638 -117.37963 C 222.91205 -118.07496 222.28864 -119.00126 221.9624 -120.04526 L 221.9624 -120.04526 C 221.91573 -120.19458 221.75686 -120.2778 221.60754 -120.23114 C 221.49247 -120.19518 221.41277 -120.09031 221.40892 -119.96981 L 221.29968 -116.54689 C 221.20894 -113.70381 220.5916 -110.90224 219.479 -108.28433 L 218.60206 -106.22096 C 218.0435 -104.90669 217.36374 -103.64729 216.5716 -102.45909 L 212.88582 -96.93042 C 212.13831 -95.80915 211.2937 -94.75575 210.36175 -93.78238 L 204.06668 -87.20753 C 203.1986 -86.30087 202.25777 -85.4668 201.2536 -84.71367 L 192.8787 -78.43249 C 192.00228 -77.77518 191.08002 -77.18133 190.11896 -76.65546 L 182.93376 -72.72394 C 181.62263 -72.00653 180.2447 -71.41863 178.81952 -70.96857 L 172.1466 -68.86133 C 170.42973 -68.31916 168.65514 -67.98046 166.85927 -67.852185 L 159.97281 -67.360296 C 158.90052 -67.2837 157.82417 -67.28238 156.75168 -67.35635 L 148.31543 -67.93816 C 147.28125 -68.00948 146.25308 -68.15064 145.23795 -68.36067 L 138.10274 -69.83692 C 136.15079 -70.24077 134.25961 -70.89665 132.47676 -71.78808 L 127.81735 -74.117785 C 126.58321 -74.73485 125.4071 -75.46173 124.30326 -76.28961 L 118.6213 -80.55108 C 118.18217 -80.88043 117.75496 -81.2254 117.34051 -81.58532 L 111.58533 -86.58324 C 110.77104 -87.29038 110.0075 -88.05392 109.30036 -88.86821 L 104.89513 -93.94089 C 104.14103 -94.80925 103.45312 -95.73295 102.8372 -96.70422 L 99.1035 -102.59198 C 98.74293 -103.16056 98.4075 -103.7447 98.09819 -104.34272 L 96.47781 -107.47544 C 95.86867 -108.65312 95.3625 -109.88126 94.96497 -111.14615 L 93.68473 -115.21964 C 93.46995 -115.90302 93.28722 -116.59605 93.13713 -117.29649 L 92.91171 -118.34843 C 92.82664 -118.74544 93.05299 -119.1431 93.4378 -119.27263 L 93.4378 -119.27263 C 93.51029 -119.29704 93.58884 -119.25805 93.61325 -119.18556 C 93.63126 -119.13205 93.61499 -119.07296 93.57212 -119.03621 Z" fill="#800c03"/>
      <path d="M 93.57212 -119.03621 L 88.84295 -114.98264 C 87.6926 -113.99662 86.44764 -113.12669 85.12621 -112.38552 L 82.59958 -110.96835 C 81.16441 -110.16338 80.5836 -108.39425 81.26239 -106.89527 L 82.28001 -104.64803 C 82.40158 -104.37954 82.52831 -104.11342 82.66012 -103.8498 L 84.46239 -100.24526 L 86.94938 -95.27129 C 87.29117 -94.5877 87.66683 -93.92157 88.07495 -93.27537 L 90.40134 -89.59192 C 90.84172 -88.89465 91.31928 -88.22158 91.83195 -87.57561 L 95.24264 -83.27815 C 95.78869 -82.59013 96.37371 -81.93394 96.99482 -81.31283 L 101.66087 -76.64679 C 102.06175 -76.24591 102.47731 -75.85999 102.90671 -75.48982 L 107.47023 -71.55574 C 107.86489 -71.21552 108.271 -70.88881 108.68785 -70.57617 L 112.66279 -67.59497 C 113.3287 -67.09553 114.02123 -66.63262 114.73733 -66.20826 L 118.8704 -63.75904 C 118.99839 -63.68319 119.12712 -63.608586 119.25656 -63.535235 L 123.9541 -60.87329 C 124.6924 -60.45493 125.45328 -60.07774 126.23325 -59.74347 L 129.78307 -58.22212 C 130.36903 -57.97099 130.96518 -57.744334 131.56997 -57.542736 L 136.58808 -55.870034 C 137.83532 -55.454286 139.11592 -55.146244 140.4158 -54.949294 L 144.51464 -54.328256 C 144.87976 -54.272936 145.24615 -54.22642 145.6135 -54.18874 L 152.4946 -53.482985 C 152.73978 -53.45784 152.98534 -53.436636 153.2312 -53.41938 L 157.75835 -53.10169 C 158.2942 -53.064085 158.83122 -53.045266 159.3684 -53.045266 L 162.63046 -53.045264 C 163.58416 -53.045264 164.53693 -53.10458 165.48327 -53.22287 L 169.47198 -53.72146 C 170.13195 -53.80396 170.78802 -53.91504 171.43835 -54.0544 L 177.52039 -55.35769 C 178.41426 -55.549236 179.29592 -55.7939 180.16068 -56.09039 L 184.66952 -57.63628 C 185.46417 -57.90873 186.2433 -58.224514 187.0034 -58.58221 L 191.83677 -60.85674 C 192.38697 -61.11565 192.92668 -61.396286 193.45464 -61.697975 L 197.2225 -63.85104 C 197.9153 -64.24692 198.58701 -64.678585 199.23494 -65.14428 L 203.91106 -68.50525 C 204.41175 -68.86511 204.89776 -69.24497 205.36792 -69.64389 L 210.68877 -74.158555 C 211.07108 -74.48294 211.44269 -74.81974 211.80298 -75.16842 L 216.5022 -79.71604 C 217.1418 -80.335 217.7449 -80.99056 218.30852 -81.67942 L 222.1018 -86.31566 C 222.60852 -86.93497 223.08257 -87.58031 223.52201 -88.24904 L 227.1392 -93.75344 C 227.35462 -94.08127 227.56163 -94.41456 227.76002 -94.75298 L 230.2831 -99.05708 C 230.66906 -99.71546 231.022 -100.39265 231.34062 -101.08612 L 233.45932 -105.69739 C 233.99218 -106.85715 234.36334 -108.08456 234.5624 -109.34526 L 234.5624 -109.34526 C 234.7407 -110.47453 234.1614 -111.58797 233.13432 -112.0901 L 227.84088 -114.678 C 226.52642 -115.32063 225.29183 -116.11514 224.1624 -117.04526 L 223.75638 -117.37963 C 222.91205 -118.07496 222.28864 -119.00126 221.9624 -120.04526 L 221.9624 -120.04526 C 221.91573 -120.19458 221.75686 -120.2778 221.60754 -120.23114 C 221.49247 -120.19518 221.41277 -120.09031 221.40892 -119.96981 L 221.29968 -116.54689 C 221.20894 -113.70381 220.5916 -110.90224 219.479 -108.28433 L 218.60206 -106.22096 C 218.0435 -104.90669 217.36374 -103.64729 216.5716 -102.45909 L 212.88582 -96.93042 C 212.13831 -95.80915 211.2937 -94.75575 210.36175 -93.78238 L 204.06668 -87.20753 C 203.1986 -86.30087 202.25777 -85.4668 201.2536 -84.71367 L 192.8787 -78.43249 C 192.00228 -77.77518 191.08002 -77.18133 190.11896 -76.65546 L 182.93376 -72.72394 C 181.62263 -72.00653 180.2447 -71.41863 178.81952 -70.96857 L 172.1466 -68.86133 C 170.42973 -68.31916 168.65514 -67.98046 166.85927 -67.852185 L 159.97281 -67.360296 C 158.90052 -67.2837 157.82417 -67.28238 156.75168 -67.35635 L 148.31543 -67.93816 C 147.28125 -68.00948 146.25308 -68.15064 145.23795 -68.36067 L 138.10274 -69.83692 C 136.15079 -70.24077 134.25961 -70.89665 132.47676 -71.78808 L 127.81735 -74.117785 C 126.58321 -74.73485 125.4071 -75.46173 124.30326 -76.28961 L 118.6213 -80.55108 C 118.18217 -80.88043 117.75496 -81.2254 117.34051 -81.58532 L 111.58533 -86.58324 C 110.77104 -87.29038 110.0075 -88.05392 109.30036 -88.86821 L 104.89513 -93.94089 C 104.14103 -94.80925 103.45312 -95.73295 102.8372 -96.70422 L 99.1035 -102.59198 C 98.74293 -103.16056 98.4075 -103.7447 98.09819 -104.34272 L 96.47781 -107.47544 C 95.86867 -108.65312 95.3625 -109.88126 94.96497 -111.14615 L 93.68473 -115.21964 C 93.46995 -115.90302 93.28722 -116.59605 93.13713 -117.29649 L 92.91171 -118.34843 C 92.82664 -118.74544 93.05299 -119.1431 93.4378 -119.27263 L 93.4378 -119.27263 C 93.51029 -119.29704 93.58884 -119.25805 93.61325 -119.18556 C 93.63126 -119.13205 93.61499 -119.07296 93.57212 -119.03621 Z" stroke="#7f8080" stroke-linecap="round" stroke-linejoin="round" stroke-width="1"/>
      <path d="M 93.05925 -119.24411 L 98.45925 -119.84411 L 105.25925 -116.44411 L 110.25925 -114.64411 L 118.65925 -112.84411 L 127.05925 -111.84411 L 135.05925 -110.84411 L 142.65925 -110.64411 L 151.25925 -110.24411 L 162.85925 -110.44411 L 171.25925 -110.84411 L 180.65925 -111.44411 L 189.05925 -112.24411 L 198.25925 -113.64411 L 206.45925 -115.84411 L 212.25925 -117.64411 L 217.85925 -120.24411 L 220.65925 -119.04411 L 221.05925 -113.44411 L 218.25925 -105.44411 L 212.85925 -102.64411 L 202.25925 -99.44411 L 190.85925 -97.04411 L 179.65925 -96.24411 L 167.25925 -95.24411 L 156.85925 -95.24411 L 147.45925 -95.24411 L 135.85925 -95.84411 L 124.65925 -96.64411 L 114.05925 -98.84411 L 105.45925 -100.84411 L 99.25925 -103.64411 L 97.25925 -105.24411 L 94.05925 -112.84411 Z" fill="url(#Obj_Gradient_3)"/>
      <path d="M 93.05925 -119.24411 L 98.45925 -119.84411 L 105.25925 -116.44411 L 110.25925 -114.64411 L 118.65925 -112.84411 L 127.05925 -111.84411 L 135.05925 -110.84411 L 142.65925 -110.64411 L 151.25925 -110.24411 L 162.85925 -110.44411 L 171.25925 -110.84411 L 180.65925 -111.44411 L 189.05925 -112.24411 L 198.25925 -113.64411 L 206.45925 -115.84411 L 212.25925 -117.64411 L 217.85925 -120.24411 L 220.65925 -119.04411 L 221.05925 -113.44411 L 218.25925 -105.44411 L 212.85925 -102.64411 L 202.25925 -99.44411 L 190.85925 -97.04411 L 179.65925 -96.24411 L 167.25925 -95.24411 L 156.85925 -95.24411 L 147.45925 -95.24411 L 135.85925 -95.84411 L 124.65925 -96.64411 L 114.05925 -98.84411 L 105.45925 -100.84411 L 99.25925 -103.64411 L 97.25925 -105.24411 L 94.05925 -112.84411 Z" stroke="#7f8080" stroke-linecap="round" stroke-linejoin="round" stroke-width="1"/>
      <path d="M 22.813213 306.2 L 22.813213 306.2 C 22.74753 306.7255 22.810355 307.25905 22.996298 307.7549 L 23.647306 309.49092 C 23.824062 309.96227 24.051147 310.41318 24.32462 310.8358 L 25.292434 312.33153 C 25.833392 313.16756 26.546494 313.87855 27.38412 314.41702 L 28.46217 315.11005 C 28.762426 315.30307 29.077006 315.47285 29.403157 315.6179 L 30.72001 316.2035 C 31.31654 316.46876 31.947246 316.64928 32.593793 316.7398 L 41.604213 318.00126 C 41.614207 318.00265 41.624203 318.00403 41.634203 318.0054 L 53.3502 319.594 C 53.3962 319.60024 53.44226 319.606 53.48838 319.61134 L 63.771315 320.79783 C 63.80324 320.8015 63.83519 320.80498 63.867165 320.80822 L 77.57723 322.1991 C 77.60521 322.20193 77.63321 322.2046 77.66123 322.2071 L 88.76653 323.19865 C 88.80164 323.2018 88.83679 323.20466 88.87195 323.20726 L 99.55848 323.99886 C 99.59896 324.00185 99.63947 324.0045 99.67999 324.0068 L 110.18798 324.6016 C 110.2088 324.60276 110.22961 324.60404 110.25042 324.6054 L 122.2932 325.3951 C 122.3772 325.4006 122.46129 325.4046 122.54543 325.40707 L 135.99256 325.80257 C 136.01032 325.8031 136.02809 325.8037 136.04585 325.80434 L 146.6897 326.19856 C 146.77603 326.20176 146.8624 326.20335 146.94879 326.20335 L 157.5578 326.20335 C 157.59874 326.20335 157.63967 326.2037 157.6806 326.20443 L 168.76702 326.39893 C 168.93509 326.40188 169.10321 326.39877 169.27106 326.3896 L 179.8923 325.81028 C 179.9769 325.80566 180.06157 325.8026 180.1463 325.80104 L 190.91085 325.60532 C 190.98308 325.604 191.0553 325.60158 191.12745 325.59803 L 203.14607 325.00695 C 203.19483 325.00455 203.24355 325.00165 203.29225 324.99823 L 214.5323 324.20945 C 214.59023 324.2054 214.64812 324.2006 214.70594 324.1951 L 227.1165 323.01313 C 227.18497 323.0066 227.25352 323.0011 227.32214 322.9966 L 239.25416 322.21418 C 239.36418 322.20696 239.474 322.19715 239.58355 322.18475 L 249.9959 321.006 C 250.01144 321.00423 250.02697 321.00242 250.0425 321.00056 L 259.9902 319.80683 C 260.00954 319.8045 260.02886 319.8021 260.04818 319.79963 L 273.88394 318.0221 C 273.98115 318.0096 274.0781 317.99507 274.1747 317.9785 L 280.7282 316.85506 C 280.92915 316.8206 281.13153 316.79495 281.33473 316.77817 L 284.56706 316.5112 C 285.4563 316.43775 286.3233 316.19497 287.12135 315.79594 L 288.60765 315.0528 C 289.20824 314.7525 289.7625 314.36735 290.25338 313.9092 L 291.5885 312.66308 C 292.19532 312.0967 292.65073 311.38747 292.9132 310.6 L 293.20805 309.71552 C 293.27812 309.5053 293.33817 309.29187 293.388 309.07595 L 293.8577 307.04056 C 293.89293 306.88792 293.8595 306.72752 293.7662 306.60168 L 293.7662 306.60168 C 293.67587 306.4798 293.52523 306.4183 293.3754 306.44214 L 284.89555 307.7912 C 284.84466 307.7993 284.79385 307.80796 284.74315 307.81718 L 271.7584 310.17805 C 271.6656 310.1949 271.5725 310.2099 271.4791 310.223 L 260.24943 311.7991 C 260.22928 311.80194 260.20914 311.80486 260.18902 311.80786 L 247.0199 313.7734 C 246.88613 313.79337 246.75182 313.80945 246.61712 313.82163 L 236.10874 314.7721 C 235.90302 314.7907 235.69657 314.8002 235.49 314.80053 L 234.05605 314.80295 C 233.8982 314.80322 233.7404 314.80883 233.58293 314.81976 L 219.45308 315.801 C 219.4305 315.80257 219.4079 315.80403 219.3853 315.80538 L 206.08205 316.5996 C 206.04016 316.6021 205.99824 316.60423 205.9563 316.60597 L 191.76485 317.1973 C 191.66776 317.20133 191.5706 317.20335 191.47344 317.20335 L 178.2192 317.20335 L 165.67753 317.20335 C 165.63865 317.20335 165.59976 317.20368 165.56088 317.20433 L 153.8025 317.4003 C 153.68032 317.40234 153.55812 317.40117 153.436 317.3968 L 142.6024 317.0099 C 142.4803 317.00554 142.35809 317.00437 142.23591 317.0064 L 130.52127 317.20165 C 130.45323 317.2028 130.38518 317.20293 130.31713 317.20208 L 114.61484 317.0058 C 114.48444 317.00417 114.35411 316.9989 114.224 316.99 L 99.91423 316.00986 C 99.85088 316.00552 99.7876 316.00032 99.72439 315.99426 L 85.23339 314.6047 C 85.22393 314.6038 85.21448 314.6029 85.20503 314.60194 L 71.39299 313.22073 C 71.27715 313.20915 71.16162 313.19468 71.0465 313.17733 L 56.73735 311.02116 C 56.65859 311.0093 56.57964 310.99877 56.50052 310.9896 L 42.98059 309.42207 C 42.873013 309.4096 42.76574 309.39463 42.65886 309.37718 L 33.26677 307.84377 C 33.10178 307.81684 32.937805 307.784 32.775164 307.7453 L 23.697565 305.58654 C 23.309246 305.4942 22.91959 305.73412 22.827241 306.12244 C 22.821158 306.14802 22.816475 306.1739 22.813213 306.2 Z" fill="#520400"/>
      <path d="M 22.813213 306.2 L 22.813213 306.2 C 22.74753 306.7255 22.810355 307.25905 22.996298 307.7549 L 23.647306 309.49092 C 23.824062 309.96227 24.051147 310.41318 24.32462 310.8358 L 25.292434 312.33153 C 25.833392 313.16756 26.546494 313.87855 27.38412 314.41702 L 28.46217 315.11005 C 28.762426 315.30307 29.077006 315.47285 29.403157 315.6179 L 30.72001 316.2035 C 31.31654 316.46876 31.947246 316.64928 32.593793 316.7398 L 41.604213 318.00126 C 41.614207 318.00265 41.624203 318.00403 41.634203 318.0054 L 53.3502 319.594 C 53.3962 319.60024 53.44226 319.606 53.48838 319.61134 L 63.771315 320.79783 C 63.80324 320.8015 63.83519 320.80498 63.867165 320.80822 L 77.57723 322.1991 C 77.60521 322.20193 77.63321 322.2046 77.66123 322.2071 L 88.76653 323.19865 C 88.80164 323.2018 88.83679 323.20466 88.87195 323.20726 L 99.55848 323.99886 C 99.59896 324.00185 99.63947 324.0045 99.67999 324.0068 L 110.18798 324.6016 C 110.2088 324.60276 110.22961 324.60404 110.25042 324.6054 L 122.2932 325.3951 C 122.3772 325.4006 122.46129 325.4046 122.54543 325.40707 L 135.99256 325.80257 C 136.01032 325.8031 136.02809 325.8037 136.04585 325.80434 L 146.6897 326.19856 C 146.77603 326.20176 146.8624 326.20335 146.94879 326.20335 L 157.5578 326.20335 C 157.59874 326.20335 157.63967 326.2037 157.6806 326.20443 L 168.76702 326.39893 C 168.93509 326.40188 169.10321 326.39877 169.27106 326.3896 L 179.8923 325.81028 C 179.9769 325.80566 180.06157 325.8026 180.1463 325.80104 L 190.91085 325.60532 C 190.98308 325.604 191.0553 325.60158 191.12745 325.59803 L 203.14607 325.00695 C 203.19483 325.00455 203.24355 325.00165 203.29225 324.99823 L 214.5323 324.20945 C 214.59023 324.2054 214.64812 324.2006 214.70594 324.1951 L 227.1165 323.01313 C 227.18497 323.0066 227.25352 323.0011 227.32214 322.9966 L 239.25416 322.21418 C 239.36418 322.20696 239.474 322.19715 239.58355 322.18475 L 249.9959 321.006 C 250.01144 321.00423 250.02697 321.00242 250.0425 321.00056 L 259.9902 319.80683 C 260.00954 319.8045 260.02886 319.8021 260.04818 319.79963 L 273.88394 318.0221 C 273.98115 318.0096 274.0781 317.99507 274.1747 317.9785 L 280.7282 316.85506 C 280.92915 316.8206 281.13153 316.79495 281.33473 316.77817 L 284.56706 316.5112 C 285.4563 316.43775 286.3233 316.19497 287.12135 315.79594 L 288.60765 315.0528 C 289.20824 314.7525 289.7625 314.36735 290.25338 313.9092 L 291.5885 312.66308 C 292.19532 312.0967 292.65073 311.38747 292.9132 310.6 L 293.20805 309.71552 C 293.27812 309.5053 293.33817 309.29187 293.388 309.07595 L 293.8577 307.04056 C 293.89293 306.88792 293.8595 306.72752 293.7662 306.60168 L 293.7662 306.60168 C 293.67587 306.4798 293.52523 306.4183 293.3754 306.44214 L 284.89555 307.7912 C 284.84466 307.7993 284.79385 307.80796 284.74315 307.81718 L 271.7584 310.17805 C 271.6656 310.1949 271.5725 310.2099 271.4791 310.223 L 260.24943 311.7991 C 260.22928 311.80194 260.20914 311.80486 260.18902 311.80786 L 247.0199 313.7734 C 246.88613 313.79337 246.75182 313.80945 246.61712 313.82163 L 236.10874 314.7721 C 235.90302 314.7907 235.69657 314.8002 235.49 314.80053 L 234.05605 314.80295 C 233.8982 314.80322 233.7404 314.80883 233.58293 314.81976 L 219.45308 315.801 C 219.4305 315.80257 219.4079 315.80403 219.3853 315.80538 L 206.08205 316.5996 C 206.04016 316.6021 205.99824 316.60423 205.9563 316.60597 L 191.76485 317.1973 C 191.66776 317.20133 191.5706 317.20335 191.47344 317.20335 L 178.2192 317.20335 L 165.67753 317.20335 C 165.63865 317.20335 165.59976 317.20368 165.56088 317.20433 L 153.8025 317.4003 C 153.68032 317.40234 153.55812 317.40117 153.436 317.3968 L 142.6024 317.0099 C 142.4803 317.00554 142.35809 317.00437 142.23591 317.0064 L 130.52127 317.20165 C 130.45323 317.2028 130.38518 317.20293 130.31713 317.20208 L 114.61484 317.0058 C 114.48444 317.00417 114.35411 316.9989 114.224 316.99 L 99.91423 316.00986 C 99.85088 316.00552 99.7876 316.00032 99.72439 315.99426 L 85.23339 314.6047 C 85.22393 314.6038 85.21448 314.6029 85.20503 314.60194 L 71.39299 313.22073 C 71.27715 313.20915 71.16162 313.19468 71.0465 313.17733 L 56.73735 311.02116 C 56.65859 311.0093 56.57964 310.99877 56.50052 310.9896 L 42.98059 309.42207 C 42.873013 309.4096 42.76574 309.39463 42.65886 309.37718 L 33.26677 307.84377 C 33.10178 307.81684 32.937805 307.784 32.775164 307.7453 L 23.697565 305.58654 C 23.309246 305.4942 22.91959 305.73412 22.827241 306.12244 C 22.821158 306.14802 22.816475 306.1739 22.813213 306.2 Z" stroke="#7f8080" stroke-linecap="round" stroke-linejoin="round" stroke-width="1"/>
    </g>
  </g>
</svg>
