<?xml version="1.0" encoding="UTF-8" standalone="no"?>
<!DOCTYPE svg PUBLIC "-//W3C//DTD SVG 1.1//EN" "http://www.w3.org/Graphics/SVG/1.1/DTD/svg11.dtd">
<svg xmlns="http://www.w3.org/2000/svg" xmlns:xl="http://www.w3.org/1999/xlink" version="1.1" viewBox="-1130.5 -62.5 432.4053 449.30915" width="432.4053pt" height="449.30915pt" xmlns:dc="http://purl.org/dc/elements/1.1/">
  <metadata> Produced by OmniGraffle 7.4.2 
    <dc:date>2018-03-14 19:08:18 +0000</dc:date>
  </metadata>
  <defs>
    <radialGradient cx="0" cy="0" r="1" id="Gradient" gradientUnits="userSpaceOnUse">
      <stop offset="0" stop-color="#cbcbcb"/>
      <stop offset="1" stop-color="#2b1b0b"/>
    </radialGradient>
    <radialGradient id="Obj_Gradient" xl:href="#Gradient" gradientTransform="translate(-915.2408 -34.6) scale(70.26272)"/>
  </defs>
  <g stroke="none" stroke-opacity="1" stroke-dasharray="none" fill="none" fill-opacity="1">
    <title>bournemouth</title>
    <rect fill="white" width="432.4053" height="449.30915"/>
    <g>
      <title>Capa 1</title>
      <path d="M -976.9943 -61.409554 L -968.8289 -58.291836 C -967.9709 -57.96424 -967.0941 -57.68833 -966.2031 -57.46558 L -952.4859 -54.036287 C -951.3242 -53.74587 -950.1417 -53.54662 -948.949 -53.44034 L -931.4228 -51.8786 C -930.835 -51.82622 -930.2454 -51.796483 -929.6552 -51.78946 L -914.1763 -51.605185 C -913.886 -51.60173 -913.5956 -51.60377 -913.3053 -51.61131 L -898.882 -51.98594 C -898.5212 -51.99531 -898.1607 -52.013174 -897.8008 -52.03951 L -883.4295 -53.09107 C -882.438 -53.163613 -881.4523 -53.30036 -880.4786 -53.50044 L -868.9056 -55.87845 C -867.8636 -56.09256 -866.8377 -56.3787 -865.8353 -56.734814 L -854.0834 -60.909864 C -852.993 -61.29723 -851.7898 -60.76646 -851.3408 -59.7 L -851.3408 -59.7 C -850.8186 -58.459894 -850.6666 -57.095146 -850.9032 -55.77055 L -851.0836 -54.75986 C -851.3874 -53.058706 -851.8819 -51.397204 -852.5579 -49.80681 L -854.1011 -46.17569 C -854.6596 -44.86142 -855.3394 -43.602025 -856.1315 -42.41382 L -859.8173 -36.88515 C -860.5648 -35.763886 -861.4094 -34.710487 -862.3414 -33.73711 L -868.6365 -27.162263 C -869.5045 -26.25561 -870.4454 -25.421538 -871.4495 -24.668407 L -879.8244 -18.387229 C -880.7009 -17.729916 -881.6231 -17.13606 -882.5842 -16.610197 L -889.7694 -12.678672 C -891.0805 -11.961265 -892.4584 -11.373362 -893.8836 -10.923302 L -900.5565 -8.816068 C -902.2734 -8.273897 -904.048 -7.935195 -905.8439 -7.806919 L -912.7303 -7.31503 C -913.8026 -7.238437 -914.879 -7.237118 -915.9515 -7.311082 L -924.3877 -7.892893 C -925.4219 -7.964216 -926.4501 -8.105373 -927.4652 -8.315401 L -934.6004 -9.79165 C -936.5524 -10.195503 -938.4435 -10.851386 -940.2264 -11.742815 L -944.8858 -14.072519 C -946.1199 -14.689587 -947.296 -15.41646 -948.3999 -16.244345 L -954.0818 -20.505813 C -954.521 -20.835165 -954.9482 -21.180132 -955.3626 -21.540052 L -961.1178 -26.537972 C -961.9321 -27.245115 -962.6956 -28.008655 -963.4028 -28.82294 L -967.808 -33.895624 C -968.5621 -34.763985 -969.25 -35.687685 -969.8659 -36.65895 L -973.5996 -42.54671 C -973.9602 -43.115296 -974.2956 -43.69944 -974.605 -44.29745 L -976.2253 -47.430173 C -976.8345 -48.60785 -977.3406 -49.836 -977.7382 -51.10089 L -979.0184 -55.17438 C -979.2332 -55.85775 -979.4159 -56.55079 -979.566 -57.25122 L -979.6408 -57.6 C -979.8354 -58.508426 -979.7282 -59.45557 -979.3353 -60.29746 L -979.2408 -60.5 C -978.8463 -61.34531 -977.8658 -61.74229 -976.9943 -61.409554 Z" fill="url(#Obj_Gradient)"/>
      <path d="M -976.9943 -61.409554 L -968.8289 -58.291836 C -967.9709 -57.96424 -967.0941 -57.68833 -966.2031 -57.46558 L -952.4859 -54.036287 C -951.3242 -53.74587 -950.1417 -53.54662 -948.949 -53.44034 L -931.4228 -51.8786 C -930.835 -51.82622 -930.2454 -51.796483 -929.6552 -51.78946 L -914.1763 -51.605185 C -913.886 -51.60173 -913.5956 -51.60377 -913.3053 -51.61131 L -898.882 -51.98594 C -898.5212 -51.99531 -898.1607 -52.013174 -897.8008 -52.03951 L -883.4295 -53.09107 C -882.438 -53.163613 -881.4523 -53.30036 -880.4786 -53.50044 L -868.9056 -55.87845 C -867.8636 -56.09256 -866.8377 -56.3787 -865.8353 -56.734814 L -854.0834 -60.909864 C -852.993 -61.29723 -851.7898 -60.76646 -851.3408 -59.7 L -851.3408 -59.7 C -850.8186 -58.459894 -850.6666 -57.095146 -850.9032 -55.77055 L -851.0836 -54.75986 C -851.3874 -53.058706 -851.8819 -51.397204 -852.5579 -49.80681 L -854.1011 -46.17569 C -854.6596 -44.86142 -855.3394 -43.602025 -856.1315 -42.41382 L -859.8173 -36.88515 C -860.5648 -35.763886 -861.4094 -34.710487 -862.3414 -33.73711 L -868.6365 -27.162263 C -869.5045 -26.25561 -870.4454 -25.421538 -871.4495 -24.668407 L -879.8244 -18.387229 C -880.7009 -17.729916 -881.6231 -17.13606 -882.5842 -16.610197 L -889.7694 -12.678672 C -891.0805 -11.961265 -892.4584 -11.373362 -893.8836 -10.923302 L -900.5565 -8.816068 C -902.2734 -8.273897 -904.048 -7.935195 -905.8439 -7.806919 L -912.7303 -7.31503 C -913.8026 -7.238437 -914.879 -7.237118 -915.9515 -7.311082 L -924.3877 -7.892893 C -925.4219 -7.964216 -926.4501 -8.105373 -927.4652 -8.315401 L -934.6004 -9.79165 C -936.5524 -10.195503 -938.4435 -10.851386 -940.2264 -11.742815 L -944.8858 -14.072519 C -946.1199 -14.689587 -947.296 -15.41646 -948.3999 -16.244345 L -954.0818 -20.505813 C -954.521 -20.835165 -954.9482 -21.180132 -955.3626 -21.540052 L -961.1178 -26.537972 C -961.9321 -27.245115 -962.6956 -28.008655 -963.4028 -28.82294 L -967.808 -33.895624 C -968.5621 -34.763985 -969.25 -35.687685 -969.8659 -36.65895 L -973.5996 -42.54671 C -973.9602 -43.115296 -974.2956 -43.69944 -974.605 -44.29745 L -976.2253 -47.430173 C -976.8345 -48.60785 -977.3406 -49.836 -977.7382 -51.10089 L -979.0184 -55.17438 C -979.2332 -55.85775 -979.4159 -56.55079 -979.566 -57.25122 L -979.6408 -57.6 C -979.8354 -58.508426 -979.7282 -59.45557 -979.3353 -60.29746 L -979.2408 -60.5 C -978.8463 -61.34531 -977.8658 -61.74229 -976.9943 -61.409554 Z" stroke="#7f8080" stroke-linecap="round" stroke-linejoin="round" stroke-width="1"/>
      <path d="M -1042.67 376.17293 L -1028.9277 378.4633 C -1028.7443 378.49387 -1028.5604 378.52123 -1028.3761 378.5454 L -1000.0225 382.2607 C -999.7759 382.293 -999.5287 382.31955 -999.2809 382.34033 L -969.038 384.87683 C -968.7811 384.89837 -968.5237 384.9137 -968.2661 384.9228 L -929.3352 386.29916 C -929.1468 386.3058 -928.9584 386.30915 -928.7699 386.30915 L -897.3026 386.30915 C -897.1359 386.30915 -896.9693 386.30655 -896.8028 386.30134 L -871.768 385.519 C -871.5578 385.51244 -871.3477 385.5017 -871.1378 385.48687 L -849.0901 383.92596 C -848.9318 383.91476 -848.7736 383.9012 -848.6157 383.8853 L -823.3552 381.33965 C -823.1535 381.3193 -822.9522 381.29516 -822.7514 381.26717 L -798.9587 377.9518 C -798.7546 377.92337 -798.5512 377.891 -798.3484 377.8547 L -789.1526 376.20915 C -783.8255 375.2559 -780.1746 370.30223 -780.8411 364.9317 L -783.0486 347.14113 C -783.0513 347.1198 -783.0539 347.0985 -783.05645 347.07716 L -786.6203 317.37863 C -786.6418 317.199 -786.6603 317.019 -786.6758 316.83873 L -789.038 289.2795 C -789.0477 289.16594 -789.0563 289.05227 -789.0636 288.9385 L -790.4502 267.34687 C -790.4518 267.32172 -790.4535 267.29658 -790.4552 267.27144 L -792.0474 244.18513 C -792.0509 244.13448 -792.0541 244.0838 -792.0571 244.03312 L -793.2335 224.23095 C -793.2462 224.01644 -793.2547 223.8017 -793.25875 223.58684 L -793.651 202.992 C -793.6521 202.93677 -793.6534 202.88154 -793.655 202.82632 L -794.2502 182.59198 C -794.2518 182.53676 -794.2531 182.48153 -794.2542 182.4263 L -794.6448 161.91676 C -794.65 161.64506 -794.6483 161.37328 -794.6396 161.10167 L -794.0537 142.74206 C -794.053 142.72012 -794.0522 142.69818 -794.0514 142.67624 L -793.2633 120.80693 C -793.2562 120.60842 -793.2453 120.41007 -793.2308 120.21197 L -791.6733 98.99135 C -791.6595 98.80323 -791.649 98.61488 -791.6419 98.42638 L -790.8874 78.52752 C -790.8642 77.91577 -790.806 77.30586 -790.7129 76.7008 L -787.9739 58.89728 C -787.8931 58.37218 -787.7862 57.85143 -787.6536 57.33697 L -783.0253 39.37932 C -782.9102 38.932745 -782.7759 38.491357 -782.6227 38.05639 L -776.9019 21.81675 C -776.7358 21.345273 -776.5477 20.881838 -776.3382 20.42797 L -770.8067 8.442931 C -770.704 8.220437 -770.5962 8.0003305 -770.4834 7.782787 L -765.1212 -2.5586384 C -765.0755 -2.6467808 -765.0289 -2.734496 -764.9816 -2.8217724 L -759.7656 -12.438735 C -759.02835 -13.798092 -758.0787 -15.03099 -756.9526 -16.090855 L -756.9526 -16.090855 C -756.2774 -16.726328 -756.2452 -17.78883 -756.8807 -18.46402 C -757.0052 -18.596295 -757.1503 -18.70749 -757.31045 -18.793267 L -760.5246 -20.515126 C -760.7432 -20.632263 -760.9646 -20.7443 -761.18845 -20.851144 L -769.0424 -24.599632 C -769.449 -24.793694 -769.8637 -24.970495 -770.2852 -25.129563 L -779.96 -28.780444 C -780.1551 -28.854044 -780.3515 -28.923826 -780.5493 -28.98975 L -793.2438 -33.22124 C -793.383 -33.26765 -793.5228 -33.31214 -793.6633 -33.3547 L -806.5468 -37.258796 C -806.6173 -37.28017 -806.6877 -37.30203 -806.758 -37.324374 L -819.262 -41.30292 C -819.6556 -41.428163 -820.0442 -41.568604 -820.427 -41.723925 L -832.4029 -46.58373 C -833.2346 -46.921215 -834.0364 -47.32808 -834.7998 -47.80002 L -844.419 -53.746466 C -844.5747 -53.84272 -844.7288 -53.941636 -844.8811 -54.043175 L -849.7712 -57.30324 C -850.7526 -57.9575 -851.6239 -58.7634 -852.3526 -59.690856 L -852.3526 -59.690856 C -852.4582 -59.82526 -852.6528 -59.84861 -852.7872 -59.743005 C -852.8899 -59.66228 -852.9309 -59.52573 -852.8896 -59.40177 L -852.7526 -58.990856 C -852.2934 -57.613104 -852.1888 -56.14182 -852.4486 -54.71297 L -852.8437 -52.5397 C -853.1149 -51.04804 -853.5968 -49.602504 -854.2748 -48.24645 L -855.8071 -45.181816 C -856.1038 -44.588417 -856.4372 -44.014046 -856.8052 -43.46203 L -860.0089 -38.656474 C -860.4375 -38.013573 -860.9121 -37.402563 -861.429 -36.82824 L -865.991 -31.7593 C -866.0321 -31.71367 -866.0734 -31.668278 -866.115 -31.623124 L -872.1092 -25.115098 C -872.737 -24.433558 -873.4227 -23.807835 -874.1588 -23.244984 L -879.1829 -19.402968 C -879.6291 -19.061796 -880.0929 -18.744352 -880.5724 -18.451955 L -887.0588 -14.49683 C -887.7205 -14.09338 -888.4106 -13.738534 -889.1237 -13.435094 L -896.2391 -10.40726 C -897.0467 -10.063573 -897.8813 -9.78693 -898.7343 -9.580132 L -902.8134 -8.59127 C -903.6382 -8.39131 -904.4777 -8.257298 -905.3238 -8.190501 L -911.024 -7.740485 C -911.4429 -7.707411 -911.863 -7.690855 -912.2832 -7.690855 L -919.3155 -7.690855 C -920.0726 -7.690855 -920.8288 -7.744593 -921.5783 -7.851663 L -929.5247 -8.98687 C -930.0097 -9.056157 -930.4913 -9.147684 -930.9679 -9.261162 L -936.9291 -10.680502 C -938.0746 -10.953237 -939.1865 -11.35159 -940.2446 -11.868322 L -946.5246 -14.9353 C -947.0096 -15.172185 -947.4824 -15.433465 -947.941 -15.718138 L -952.1529 -18.332398 C -952.752 -18.704296 -953.326 -19.1154 -953.8709 -19.56302 L -958.317 -23.215179 C -958.5407 -23.39893 -958.7594 -23.588717 -958.9728 -23.784332 L -962.7751 -27.269813 C -963.2264 -27.6835 -963.6536 -28.12275 -964.0545 -28.58539 L -968.1733 -33.33779 C -968.4927 -33.706308 -968.795 -34.089234 -969.0794 -34.48537 L -973.5091 -40.655246 C -974.004 -41.34456 -974.4433 -42.07215 -974.8228 -42.831137 L -977.3992 -47.984064 C -977.4348 -48.05526 -977.4699 -48.126715 -977.5044 -48.19843 L -978.7526 -50.790856 C -979.6033 -52.557725 -979.9588 -54.52226 -979.7813 -56.475214 L -979.6011 -58.45747 C -979.5773 -58.71933 -979.7703 -58.95091 -980.0321 -58.97472 C -980.1945 -58.98948 -980.3532 -58.920105 -980.4526 -58.790856 L -980.4526 -58.790856 C -981.1161 -57.928375 -981.8962 -57.1623 -982.7705 -56.51461 L -986.6671 -53.62829 C -986.7908 -53.53667 -986.9158 -53.446844 -987.042 -53.358833 L -991.6643 -50.137265 C -992.851 -49.310146 -994.1444 -48.64778 -995.5092 -48.168273 L -1000.1163 -46.549553 C -1000.6069 -46.37719 -1001.0888 -46.181016 -1001.5602 -45.96173 L -1008.407 -42.77718 C -1009.1032 -42.453383 -1009.8217 -42.180116 -1010.5571 -41.959497 L -1021.4275 -38.69838 C -1021.4443 -38.693364 -1021.461 -38.68832 -1021.4777 -38.68325 L -1032.4458 -35.35365 C -1032.5837 -35.31179 -1032.721 -35.268066 -1032.8577 -35.222494 L -1045.7789 -30.915416 C -1045.828 -30.899042 -1045.8773 -30.882907 -1045.9265 -30.86701 L -1057.294 -27.200106 C -1057.9324 -26.994143 -1058.5573 -26.748226 -1059.1649 -26.46381 L -1067.0969 -22.750977 C -1067.4672 -22.577626 -1067.8308 -22.390142 -1068.1868 -22.188938 L -1074.1329 -18.828091 C -1075.3859 -18.119855 -1075.8276 -16.52993 -1075.1193 -15.276897 C -1075.0422 -15.140458 -1074.953 -15.011254 -1074.8526 -14.890855 L -1073.9885 -13.853922 C -1073.2336 -12.947987 -1072.5811 -11.961367 -1072.043 -10.912038 L -1068.9658 -4.911619 C -1068.8904 -4.764452 -1068.8126 -4.618464 -1068.7326 -4.4737074 L -1064.7779 2.6825118 C -1064.6944 2.8335908 -1064.6133 2.986011 -1064.5348 3.1397126 L -1060.4265 11.1777 C -1060.1774 11.665009 -1059.9535 12.164777 -1059.7556 12.675031 L -1056.2729 21.65691 C -1056.2594 21.691733 -1056.2457 21.72651 -1056.232 21.761239 L -1052.6357 30.846685 C -1052.5137 31.154918 -1052.4013 31.466868 -1052.2986 31.782083 L -1049.6768 39.83486 C -1049.6607 39.884384 -1049.6448 39.933985 -1049.6292 39.983663 L -1046.5571 49.741934 C -1046.3543 50.386096 -1046.1925 51.04245 -1046.0727 51.70706 L -1044.0874 62.71652 C -1044.0642 62.84493 -1044.0426 62.973625 -1044.0226 63.10257 L -1042.3167 74.09595 C -1042.274 74.37137 -1042.2385 74.64785 -1042.2102 74.92513 L -1041.3227 83.62184 C -1041.276 84.07983 -1041.2491 84.53962 -1041.242 84.99994 L -1041.0577 96.97556 C -1041.0543 97.19793 -1041.0463 97.4202 -1041.0336 97.64223 L -1040.2632 111.12379 C -1040.2561 111.24736 -1040.2477 111.37084 -1040.2377 111.4942 L -1038.9042 128.06858 C -1038.8698 128.49545 -1038.8526 128.92353 -1038.8526 129.35179 L -1038.8526 141.80157 C -1038.8526 142.0066 -1038.8487 142.21162 -1038.8408 142.4165 L -1038.2604 157.50564 C -1038.2552 157.6413 -1038.2517 157.77703 -1038.25 157.9128 L -1038.0578 172.70905 C -1038.0543 172.97574 -1038.0576 173.24248 -1038.0674 173.509 L -1038.6417 189.01316 C -1038.649 189.21047 -1038.6526 189.4079 -1038.6526 189.60534 L -1038.6526 203.20157 C -1038.6526 203.4066 -1038.6566 203.61162 -1038.6644 203.8165 L -1039.2496 219.0315 C -1039.2516 219.08327 -1039.2539 219.13502 -1039.2564 219.18676 L -1040.0517 235.6897 C -1040.0523 235.70266 -1040.053 235.71563 -1040.0536 235.7286 L -1040.8481 251.41976 C -1040.8511 251.47935 -1040.8545 251.53893 -1040.8581 251.59848 L -1042.047 270.8192 C -1042.0508 270.87917 -1042.0548 270.9391 -1042.0592 270.99902 L -1043.8423 295.36857 C -1043.8492 295.4623 -1043.8569 295.55594 -1043.8654 295.64953 L -1045.6513 315.29434 C -1045.6522 315.3042 -1045.6531 315.3141 -1045.654 315.32396 L -1047.4248 334.40886 C -1047.4433 334.60904 -1047.4657 334.80884 -1047.4918 335.00818 L -1049.4525 349.9809 C -1049.5853 350.9951 -1049.8544 351.9867 -1050.2526 352.92888 L -1050.2526 352.92888 C -1050.6502 353.86962 -1050.8989 354.86654 -1050.9897 355.8838 L -1051.7526 364.42888 C -1052.2604 370.1159 -1048.3019 375.23427 -1042.67 376.17293 Z" fill="red"/>
      <path d="M -1042.67 376.17293 L -1028.9277 378.4633 C -1028.7443 378.49387 -1028.5604 378.52123 -1028.3761 378.5454 L -1000.0225 382.2607 C -999.7759 382.293 -999.5287 382.31955 -999.2809 382.34033 L -969.038 384.87683 C -968.7811 384.89837 -968.5237 384.9137 -968.2661 384.9228 L -929.3352 386.29916 C -929.1468 386.3058 -928.9584 386.30915 -928.7699 386.30915 L -897.3026 386.30915 C -897.1359 386.30915 -896.9693 386.30655 -896.8028 386.30134 L -871.768 385.519 C -871.5578 385.51244 -871.3477 385.5017 -871.1378 385.48687 L -849.0901 383.92596 C -848.9318 383.91476 -848.7736 383.9012 -848.6157 383.8853 L -823.3552 381.33965 C -823.1535 381.3193 -822.9522 381.29516 -822.7514 381.26717 L -798.9587 377.9518 C -798.7546 377.92337 -798.5512 377.891 -798.3484 377.8547 L -789.1526 376.20915 C -783.8255 375.2559 -780.1746 370.30223 -780.8411 364.9317 L -783.0486 347.14113 C -783.0513 347.1198 -783.0539 347.0985 -783.05645 347.07716 L -786.6203 317.37863 C -786.6418 317.199 -786.6603 317.019 -786.6758 316.83873 L -789.038 289.2795 C -789.0477 289.16594 -789.0563 289.05227 -789.0636 288.9385 L -790.4502 267.34687 C -790.4518 267.32172 -790.4535 267.29658 -790.4552 267.27144 L -792.0474 244.18513 C -792.0509 244.13448 -792.0541 244.0838 -792.0571 244.03312 L -793.2335 224.23095 C -793.2462 224.01644 -793.2547 223.8017 -793.25875 223.58684 L -793.651 202.992 C -793.6521 202.93677 -793.6534 202.88154 -793.655 202.82632 L -794.2502 182.59198 C -794.2518 182.53676 -794.2531 182.48153 -794.2542 182.4263 L -794.6448 161.91676 C -794.65 161.64506 -794.6483 161.37328 -794.6396 161.10167 L -794.0537 142.74206 C -794.053 142.72012 -794.0522 142.69818 -794.0514 142.67624 L -793.2633 120.80693 C -793.2562 120.60842 -793.2453 120.41007 -793.2308 120.21197 L -791.6733 98.99135 C -791.6595 98.80323 -791.649 98.61488 -791.6419 98.42638 L -790.8874 78.52752 C -790.8642 77.91577 -790.806 77.30586 -790.7129 76.7008 L -787.9739 58.89728 C -787.8931 58.37218 -787.7862 57.85143 -787.6536 57.33697 L -783.0253 39.37932 C -782.9102 38.932745 -782.7759 38.491357 -782.6227 38.05639 L -776.9019 21.81675 C -776.7358 21.345273 -776.5477 20.881838 -776.3382 20.42797 L -770.8067 8.442931 C -770.704 8.220437 -770.5962 8.0003305 -770.4834 7.782787 L -765.1212 -2.5586384 C -765.0755 -2.6467808 -765.0289 -2.734496 -764.9816 -2.8217724 L -759.7656 -12.438735 C -759.02835 -13.798092 -758.0787 -15.03099 -756.9526 -16.090855 L -756.9526 -16.090855 C -756.2774 -16.726328 -756.2452 -17.78883 -756.8807 -18.46402 C -757.0052 -18.596295 -757.1503 -18.70749 -757.31045 -18.793267 L -760.5246 -20.515126 C -760.7432 -20.632263 -760.9646 -20.7443 -761.18845 -20.851144 L -769.0424 -24.599632 C -769.449 -24.793694 -769.8637 -24.970495 -770.2852 -25.129563 L -779.96 -28.780444 C -780.1551 -28.854044 -780.3515 -28.923826 -780.5493 -28.98975 L -793.2438 -33.22124 C -793.383 -33.26765 -793.5228 -33.31214 -793.6633 -33.3547 L -806.5468 -37.258796 C -806.6173 -37.28017 -806.6877 -37.30203 -806.758 -37.324374 L -819.262 -41.30292 C -819.6556 -41.428163 -820.0442 -41.568604 -820.427 -41.723925 L -832.4029 -46.58373 C -833.2346 -46.921215 -834.0364 -47.32808 -834.7998 -47.80002 L -844.419 -53.746466 C -844.5747 -53.84272 -844.7288 -53.941636 -844.8811 -54.043175 L -849.7712 -57.30324 C -850.7526 -57.9575 -851.6239 -58.7634 -852.3526 -59.690856 L -852.3526 -59.690856 C -852.4582 -59.82526 -852.6528 -59.84861 -852.7872 -59.743005 C -852.8899 -59.66228 -852.9309 -59.52573 -852.8896 -59.40177 L -852.7526 -58.990856 C -852.2934 -57.613104 -852.1888 -56.14182 -852.4486 -54.71297 L -852.8437 -52.5397 C -853.1149 -51.04804 -853.5968 -49.602504 -854.2748 -48.24645 L -855.8071 -45.181816 C -856.1038 -44.588417 -856.4372 -44.014046 -856.8052 -43.46203 L -860.0089 -38.656474 C -860.4375 -38.013573 -860.9121 -37.402563 -861.429 -36.82824 L -865.991 -31.7593 C -866.0321 -31.71367 -866.0734 -31.668278 -866.115 -31.623124 L -872.1092 -25.115098 C -872.737 -24.433558 -873.4227 -23.807835 -874.1588 -23.244984 L -879.1829 -19.402968 C -879.6291 -19.061796 -880.0929 -18.744352 -880.5724 -18.451955 L -887.0588 -14.49683 C -887.7205 -14.09338 -888.4106 -13.738534 -889.1237 -13.435094 L -896.2391 -10.40726 C -897.0467 -10.063573 -897.8813 -9.78693 -898.7343 -9.580132 L -902.8134 -8.59127 C -903.6382 -8.39131 -904.4777 -8.257298 -905.3238 -8.190501 L -911.024 -7.740485 C -911.4429 -7.707411 -911.863 -7.690855 -912.2832 -7.690855 L -919.3155 -7.690855 C -920.0726 -7.690855 -920.8288 -7.744593 -921.5783 -7.851663 L -929.5247 -8.98687 C -930.0097 -9.056157 -930.4913 -9.147684 -930.9679 -9.261162 L -936.9291 -10.680502 C -938.0746 -10.953237 -939.1865 -11.35159 -940.2446 -11.868322 L -946.5246 -14.9353 C -947.0096 -15.172185 -947.4824 -15.433465 -947.941 -15.718138 L -952.1529 -18.332398 C -952.752 -18.704296 -953.326 -19.1154 -953.8709 -19.56302 L -958.317 -23.215179 C -958.5407 -23.39893 -958.7594 -23.588717 -958.9728 -23.784332 L -962.7751 -27.269813 C -963.2264 -27.6835 -963.6536 -28.12275 -964.0545 -28.58539 L -968.1733 -33.33779 C -968.4927 -33.706308 -968.795 -34.089234 -969.0794 -34.48537 L -973.5091 -40.655246 C -974.004 -41.34456 -974.4433 -42.07215 -974.8228 -42.831137 L -977.3992 -47.984064 C -977.4348 -48.05526 -977.4699 -48.126715 -977.5044 -48.19843 L -978.7526 -50.790856 C -979.6033 -52.557725 -979.9588 -54.52226 -979.7813 -56.475214 L -979.6011 -58.45747 C -979.5773 -58.71933 -979.7703 -58.95091 -980.0321 -58.97472 C -980.1945 -58.98948 -980.3532 -58.920105 -980.4526 -58.790856 L -980.4526 -58.790856 C -981.1161 -57.928375 -981.8962 -57.1623 -982.7705 -56.51461 L -986.6671 -53.62829 C -986.7908 -53.53667 -986.9158 -53.446844 -987.042 -53.358833 L -991.6643 -50.137265 C -992.851 -49.310146 -994.1444 -48.64778 -995.5092 -48.168273 L -1000.1163 -46.549553 C -1000.6069 -46.37719 -1001.0888 -46.181016 -1001.5602 -45.96173 L -1008.407 -42.77718 C -1009.1032 -42.453383 -1009.8217 -42.180116 -1010.5571 -41.959497 L -1021.4275 -38.69838 C -1021.4443 -38.693364 -1021.461 -38.68832 -1021.4777 -38.68325 L -1032.4458 -35.35365 C -1032.5837 -35.31179 -1032.721 -35.268066 -1032.8577 -35.222494 L -1045.7789 -30.915416 C -1045.828 -30.899042 -1045.8773 -30.882907 -1045.9265 -30.86701 L -1057.294 -27.200106 C -1057.9324 -26.994143 -1058.5573 -26.748226 -1059.1649 -26.46381 L -1067.0969 -22.750977 C -1067.4672 -22.577626 -1067.8308 -22.390142 -1068.1868 -22.188938 L -1074.1329 -18.828091 C -1075.3859 -18.119855 -1075.8276 -16.52993 -1075.1193 -15.276897 C -1075.0422 -15.140458 -1074.953 -15.011254 -1074.8526 -14.890855 L -1073.9885 -13.853922 C -1073.2336 -12.947987 -1072.5811 -11.961367 -1072.043 -10.912038 L -1068.9658 -4.911619 C -1068.8904 -4.764452 -1068.8126 -4.618464 -1068.7326 -4.4737074 L -1064.7779 2.6825118 C -1064.6944 2.8335908 -1064.6133 2.986011 -1064.5348 3.1397126 L -1060.4265 11.1777 C -1060.1774 11.665009 -1059.9535 12.164777 -1059.7556 12.675031 L -1056.2729 21.65691 C -1056.2594 21.691733 -1056.2457 21.72651 -1056.232 21.761239 L -1052.6357 30.846685 C -1052.5137 31.154918 -1052.4013 31.466868 -1052.2986 31.782083 L -1049.6768 39.83486 C -1049.6607 39.884384 -1049.6448 39.933985 -1049.6292 39.983663 L -1046.5571 49.741934 C -1046.3543 50.386096 -1046.1925 51.04245 -1046.0727 51.70706 L -1044.0874 62.71652 C -1044.0642 62.84493 -1044.0426 62.973625 -1044.0226 63.10257 L -1042.3167 74.09595 C -1042.274 74.37137 -1042.2385 74.64785 -1042.2102 74.92513 L -1041.3227 83.62184 C -1041.276 84.07983 -1041.2491 84.53962 -1041.242 84.99994 L -1041.0577 96.97556 C -1041.0543 97.19793 -1041.0463 97.4202 -1041.0336 97.64223 L -1040.2632 111.12379 C -1040.2561 111.24736 -1040.2477 111.37084 -1040.2377 111.4942 L -1038.9042 128.06858 C -1038.8698 128.49545 -1038.8526 128.92353 -1038.8526 129.35179 L -1038.8526 141.80157 C -1038.8526 142.0066 -1038.8487 142.21162 -1038.8408 142.4165 L -1038.2604 157.50564 C -1038.2552 157.6413 -1038.2517 157.77703 -1038.25 157.9128 L -1038.0578 172.70905 C -1038.0543 172.97574 -1038.0576 173.24248 -1038.0674 173.509 L -1038.6417 189.01316 C -1038.649 189.21047 -1038.6526 189.4079 -1038.6526 189.60534 L -1038.6526 203.20157 C -1038.6526 203.4066 -1038.6566 203.61162 -1038.6644 203.8165 L -1039.2496 219.0315 C -1039.2516 219.08327 -1039.2539 219.13502 -1039.2564 219.18676 L -1040.0517 235.6897 C -1040.0523 235.70266 -1040.053 235.71563 -1040.0536 235.7286 L -1040.8481 251.41976 C -1040.8511 251.47935 -1040.8545 251.53893 -1040.8581 251.59848 L -1042.047 270.8192 C -1042.0508 270.87917 -1042.0548 270.9391 -1042.0592 270.99902 L -1043.8423 295.36857 C -1043.8492 295.4623 -1043.8569 295.55594 -1043.8654 295.64953 L -1045.6513 315.29434 C -1045.6522 315.3042 -1045.6531 315.3141 -1045.654 315.32396 L -1047.4248 334.40886 C -1047.4433 334.60904 -1047.4657 334.80884 -1047.4918 335.00818 L -1049.4525 349.9809 C -1049.5853 350.9951 -1049.8544 351.9867 -1050.2526 352.92888 L -1050.2526 352.92888 C -1050.6502 353.86962 -1050.8989 354.86654 -1050.9897 355.8838 L -1051.7526 364.42888 C -1052.2604 370.1159 -1048.3019 375.23427 -1042.67 376.17293 Z" stroke="#7f8080" stroke-linecap="round" stroke-linejoin="round" stroke-width="1"/>
      <path d="M -1130 89.44615 L -1123.8 93.84615 L -1115.6 97.84615 L -1107 101.44615 L -1098 105.24615 L -1087 109.24615 L -1077.6 112.04615 L -1068.6 114.64615 L -1059.6 117.24615 L -1054.2 118.64615 L -1048.6 119.64615 L -1046.2 113.84615 L -1043.6 108.44615 L -1041.4 104.44615 L -1038.8 101.04615 L -1038.6 92.04615 L -1039.2 81.04615 L -1041 70.246145 L -1042.6 59.846145 L -1045.2 48.846145 L -1047.6 39.246145 L -1050.4 31.246145 L -1053.6 21.846145 L -1056.4 14.446144 L -1060 6.846144 L -1064 -.75385575 L -1068 -8.153856 L -1070.6 -11.753856 L -1074.2 -17.553856 L -1079.6 -13.153856 L -1084.4 -8.353856 L -1089 -2.1538558 L -1093.4 4.0461443 L -1098.2 12.646144 L -1103 22.046145 L -1107.8 31.246145 L -1111.4 39.846145 L -1115.4 48.846145 L -1118.6 57.046145 L -1122.4 66.446145 L -1125.2 74.446145 L -1128.2 82.84615 Z" fill="red"/>
      <path d="M -1130 89.44615 L -1123.8 93.84615 L -1115.6 97.84615 L -1107 101.44615 L -1098 105.24615 L -1087 109.24615 L -1077.6 112.04615 L -1068.6 114.64615 L -1059.6 117.24615 L -1054.2 118.64615 L -1048.6 119.64615 L -1046.2 113.84615 L -1043.6 108.44615 L -1041.4 104.44615 L -1038.8 101.04615 L -1038.6 92.04615 L -1039.2 81.04615 L -1041 70.246145 L -1042.6 59.846145 L -1045.2 48.846145 L -1047.6 39.246145 L -1050.4 31.246145 L -1053.6 21.846145 L -1056.4 14.446144 L -1060 6.846144 L -1064 -.75385575 L -1068 -8.153856 L -1070.6 -11.753856 L -1074.2 -17.553856 L -1079.6 -13.153856 L -1084.4 -8.353856 L -1089 -2.1538558 L -1093.4 4.0461443 L -1098.2 12.646144 L -1103 22.046145 L -1107.8 31.246145 L -1111.4 39.846145 L -1115.4 48.846145 L -1118.6 57.046145 L -1122.4 66.446145 L -1125.2 74.446145 L -1128.2 82.84615 Z" stroke="#7f8080" stroke-linecap="round" stroke-linejoin="round" stroke-width="1"/>
      <path d="M -698.5947 88.50275 L -704.7947 92.90275 L -712.9947 96.90275 L -721.5947 100.50275 L -730.5947 104.30275 L -741.5947 108.30275 L -750.9947 111.10275 L -759.9947 113.70275 L -768.9947 116.30275 L -774.3947 117.70275 L -779.9947 118.70275 L -782.3947 112.90275 L -784.9947 107.50275 L -787.1947 103.50275 L -789.7947 100.10275 L -789.9947 91.10275 L -789.3947 80.10275 L -787.5947 69.30275 L -785.9947 58.90275 L -783.3947 47.90275 L -780.9947 38.30275 L -778.1947 30.30275 L -774.9947 20.902748 L -772.1947 13.502748 L -768.5947 5.902748 L -764.5947 -1.697252 L -760.5947 -9.097252 L -757.9947 -12.697252 L -754.3947 -18.497252 L -748.9947 -14.097252 L -744.1947 -9.297252 L -739.5947 -3.097252 L -735.1947 3.102748 L -730.3947 11.702748 L -725.5947 21.102748 L -720.7947 30.30275 L -717.1947 38.90275 L -713.1947 47.90275 L -709.9947 56.10275 L -706.1947 65.50275 L -703.3947 73.50275 L -700.3947 81.90275 Z" fill="red"/>
      <path d="M -698.5947 88.50275 L -704.7947 92.90275 L -712.9947 96.90275 L -721.5947 100.50275 L -730.5947 104.30275 L -741.5947 108.30275 L -750.9947 111.10275 L -759.9947 113.70275 L -768.9947 116.30275 L -774.3947 117.70275 L -779.9947 118.70275 L -782.3947 112.90275 L -784.9947 107.50275 L -787.1947 103.50275 L -789.7947 100.10275 L -789.9947 91.10275 L -789.3947 80.10275 L -787.5947 69.30275 L -785.9947 58.90275 L -783.3947 47.90275 L -780.9947 38.30275 L -778.1947 30.30275 L -774.9947 20.902748 L -772.1947 13.502748 L -768.5947 5.902748 L -764.5947 -1.697252 L -760.5947 -9.097252 L -757.9947 -12.697252 L -754.3947 -18.497252 L -748.9947 -14.097252 L -744.1947 -9.297252 L -739.5947 -3.097252 L -735.1947 3.102748 L -730.3947 11.702748 L -725.5947 21.102748 L -720.7947 30.30275 L -717.1947 38.90275 L -713.1947 47.90275 L -709.9947 56.10275 L -706.1947 65.50275 L -703.3947 73.50275 L -700.3947 81.90275 Z" stroke="#7f8080" stroke-linecap="round" stroke-linejoin="round" stroke-width="1"/>
      <path d="M -1130 89.44615 L -1123.8 93.84615 L -1115.6 97.84615 L -1107 101.44615 L -1098 105.24615 L -1087 109.24615 L -1077.6 112.04615 L -1068.6 114.64615 L -1059.6 117.24615 L -1054.2 118.64615 L -1048.6 119.64615 L -1045.6 113.24615 L -1049.4 112.44615 L -1054.2 111.24615 L -1059.8 110.04615 L -1065.8 108.24615 L -1070.4 106.84615 L -1074.6 105.64615 L -1079.2 103.64615 L -1083.8 102.04615 L -1088.6 100.04615 L -1092.6 98.64615 L -1097.8 96.44615 L -1102.4 94.84615 L -1107.2 92.64615 L -1112 90.84615 L -1116 88.84615 L -1120.4 86.64615 L -1124.8 84.44615 L -1128.2 82.84615 Z" fill="black"/>
      <path d="M -1130 89.44615 L -1123.8 93.84615 L -1115.6 97.84615 L -1107 101.44615 L -1098 105.24615 L -1087 109.24615 L -1077.6 112.04615 L -1068.6 114.64615 L -1059.6 117.24615 L -1054.2 118.64615 L -1048.6 119.64615 L -1045.6 113.24615 L -1049.4 112.44615 L -1054.2 111.24615 L -1059.8 110.04615 L -1065.8 108.24615 L -1070.4 106.84615 L -1074.6 105.64615 L -1079.2 103.64615 L -1083.8 102.04615 L -1088.6 100.04615 L -1092.6 98.64615 L -1097.8 96.44615 L -1102.4 94.84615 L -1107.2 92.64615 L -1112 90.84615 L -1116 88.84615 L -1120.4 86.64615 L -1124.8 84.44615 L -1128.2 82.84615 Z" stroke="#7f8080" stroke-linecap="round" stroke-linejoin="round" stroke-width="1"/>
      <path d="M -698.5947 88.50275 L -704.7947 92.90275 L -712.9947 96.90275 L -721.5947 100.50275 L -730.5947 104.30275 L -741.5947 108.30275 L -750.9947 111.10275 L -759.9947 113.70275 L -768.9947 116.30275 L -774.3947 117.70275 L -779.9947 118.70275 L -782.9947 112.30275 L -779.1947 111.50275 L -774.3947 110.30275 L -768.7947 109.10275 L -762.7947 107.30275 L -758.1947 105.90275 L -753.9947 104.70275 L -749.3947 102.70275 L -744.7947 101.10275 L -739.9947 99.10275 L -735.9947 97.70275 L -730.7947 95.50275 L -726.1947 93.90275 L -721.3947 91.70275 L -716.5947 89.90275 L -712.5947 87.90275 L -708.1947 85.70275 L -703.7947 83.50275 L -700.3947 81.90275 Z" fill="black"/>
      <path d="M -698.5947 88.50275 L -704.7947 92.90275 L -712.9947 96.90275 L -721.5947 100.50275 L -730.5947 104.30275 L -741.5947 108.30275 L -750.9947 111.10275 L -759.9947 113.70275 L -768.9947 116.30275 L -774.3947 117.70275 L -779.9947 118.70275 L -782.9947 112.30275 L -779.1947 111.50275 L -774.3947 110.30275 L -768.7947 109.10275 L -762.7947 107.30275 L -758.1947 105.90275 L -753.9947 104.70275 L -749.3947 102.70275 L -744.7947 101.10275 L -739.9947 99.10275 L -735.9947 97.70275 L -730.7947 95.50275 L -726.1947 93.90275 L -721.3947 91.70275 L -716.5947 89.90275 L -712.5947 87.90275 L -708.1947 85.70275 L -703.7947 83.50275 L -700.3947 81.90275 Z" stroke="#7f8080" stroke-linecap="round" stroke-linejoin="round" stroke-width="1"/>
      <path d="M -979.4279 -60.03621 L -984.157 -55.98264 C -985.3074 -54.996625 -986.5524 -54.12669 -987.8738 -53.385515 L -990.4004 -51.96835 C -991.8356 -51.16338 -992.4164 -49.39425 -991.7376 -47.895265 L -990.72 -45.64803 C -990.5984 -45.379545 -990.4717 -45.11342 -990.3399 -44.849804 L -988.5376 -41.245264 L -986.0506 -36.271293 C -985.7088 -35.5877 -985.3332 -34.921566 -984.925 -34.275375 L -982.5987 -30.59192 C -982.1583 -29.894655 -981.6807 -29.22158 -981.168 -28.575613 L -977.7574 -24.278153 C -977.2113 -23.590125 -976.6263 -22.933944 -976.0052 -22.312833 L -971.3391 -17.64679 C -970.9383 -17.24591 -970.5227 -16.859989 -970.0933 -16.489817 L -965.5298 -12.555744 C -965.1351 -12.215522 -964.729 -11.88881 -964.3122 -11.576173 L -960.3372 -8.594968 C -959.6713 -8.095533 -958.9788 -7.632617 -958.2627 -7.2082625 L -954.1296 -4.75904 C -954.0016 -4.683191 -953.8729 -4.608586 -953.7434 -4.535235 L -949.0459 -1.873292 C -948.3076 -1.4549271 -947.5467 -1.0777419 -946.7667 -.7434665 L -943.2169 .7778834 C -942.631 1.02901 -942.0348 1.2556658 -941.43 1.4572635 L -936.4119 3.1299657 C -935.1647 3.545714 -933.8841 3.8537556 -932.5842 4.0507064 L -928.4854 4.671744 C -928.1202 4.727064 -927.7539 4.773583 -927.3865 4.8112604 L -920.5054 5.5170146 C -920.2602 5.542161 -920.0147 5.5633645 -919.7688 5.5806175 L -915.2417 5.8983104 C -914.7058 5.9359146 -914.1688 5.954734 -913.6316 5.9547344 L -910.3695 5.954736 C -909.4158 5.954736 -908.4631 5.8954186 -907.5167 5.777127 L -903.528 5.2785374 C -902.8681 5.196042 -902.212 5.084959 -901.5616 4.945602 L -895.4796 3.642309 C -894.5857 3.4507642 -893.7041 3.2060972 -892.8393 2.9096103 L -888.3305 1.3637194 C -887.5358 1.0912685 -886.7567 .7754865 -885.9966 .4177928 L -881.1632 -1.8567373 C -880.613 -2.1156531 -880.0733 -2.3962863 -879.5454 -2.6979752 L -875.7775 -4.851042 C -875.0847 -5.2469217 -874.413 -5.678585 -873.7651 -6.1442806 L -869.0889 -9.505246 C -868.5883 -9.865112 -868.1022 -10.244967 -867.6321 -10.64389 L -862.3112 -15.158555 C -861.9289 -15.482941 -861.5573 -15.819741 -861.197 -16.168416 L -856.4978 -20.716044 C -855.8582 -21.335002 -855.2551 -21.990565 -854.6915 -22.679424 L -850.8982 -27.31566 C -850.3915 -27.934974 -849.9174 -28.58031 -849.478 -29.249036 L -845.8608 -34.753436 C -845.6454 -35.081268 -845.4384 -35.414558 -845.24 -35.75298 L -842.7169 -40.057076 C -842.3309 -40.71546 -841.978 -41.392646 -841.6594 -42.08612 L -839.5407 -46.69739 C -839.0078 -47.85715 -838.6367 -49.084564 -838.4376 -50.345265 L -838.4376 -50.345265 C -838.2593 -51.474526 -838.8386 -52.587974 -839.8657 -53.0901 L -845.1591 -55.678005 C -846.4736 -56.32063 -847.7082 -57.11514 -848.8376 -58.045265 L -849.2436 -58.379625 C -850.0879 -59.07496 -850.7114 -60.00126 -851.0376 -61.045265 L -851.0376 -61.045265 C -851.0843 -61.19458 -851.2431 -61.2778 -851.3925 -61.23114 C -851.5075 -61.19518 -851.5872 -61.090315 -851.5911 -60.96981 L -851.7003 -57.54689 C -851.7911 -54.703814 -852.4084 -51.902236 -853.521 -49.28433 L -854.3979 -47.22096 C -854.9565 -45.906686 -855.6363 -44.64729 -856.4284 -43.45909 L -860.1142 -37.930416 C -860.8617 -36.80915 -861.7063 -35.755752 -862.6382 -34.782376 L -868.9333 -28.20753 C -869.8014 -27.300875 -870.7422 -26.466804 -871.7464 -25.713673 L -880.1213 -19.432495 C -880.9977 -18.775182 -881.92 -18.181326 -882.881 -17.655463 L -890.0662 -13.723938 C -891.3774 -13.006531 -892.7553 -12.418628 -894.1805 -11.968568 L -900.8534 -9.861334 C -902.5703 -9.319163 -904.3449 -8.980461 -906.1407 -8.852185 L -913.0272 -8.360296 C -914.0995 -8.283703 -915.1758 -8.282384 -916.2483 -8.356348 L -924.6846 -8.938159 C -925.7187 -9.009482 -926.7469 -9.150639 -927.762 -9.360667 L -934.8973 -10.836916 C -936.8492 -11.240769 -938.7404 -11.896652 -940.5232 -12.78808 L -945.1827 -15.117785 C -946.4168 -15.734853 -947.5929 -16.461726 -948.6967 -17.28961 L -954.3787 -21.55108 C -954.8178 -21.88043 -955.245 -22.225398 -955.6595 -22.585317 L -961.4147 -27.583238 C -962.229 -28.29038 -962.9925 -29.05392 -963.6996 -29.868206 L -968.1049 -34.94089 C -968.859 -35.80925 -969.5469 -36.73295 -970.1628 -37.704217 L -973.8965 -43.59198 C -974.2571 -44.16056 -974.5925 -44.744705 -974.9018 -45.342717 L -976.5222 -48.47544 C -977.1313 -49.65312 -977.6375 -50.881264 -978.035 -52.146155 L -979.3153 -56.21964 C -979.53 -56.90302 -979.7128 -57.596055 -979.8629 -58.296485 L -980.0883 -59.34843 C -980.1734 -59.74544 -979.947 -60.143094 -979.5622 -60.27263 L -979.5622 -60.27263 C -979.4897 -60.29704 -979.4112 -60.25805 -979.3868 -60.18556 C -979.3687 -60.132046 -979.385 -60.07296 -979.4279 -60.03621 Z" fill="black"/>
      <path d="M -979.4279 -60.03621 L -984.157 -55.98264 C -985.3074 -54.996625 -986.5524 -54.12669 -987.8738 -53.385515 L -990.4004 -51.96835 C -991.8356 -51.16338 -992.4164 -49.39425 -991.7376 -47.895265 L -990.72 -45.64803 C -990.5984 -45.379545 -990.4717 -45.11342 -990.3399 -44.849804 L -988.5376 -41.245264 L -986.0506 -36.271293 C -985.7088 -35.5877 -985.3332 -34.921566 -984.925 -34.275375 L -982.5987 -30.59192 C -982.1583 -29.894655 -981.6807 -29.22158 -981.168 -28.575613 L -977.7574 -24.278153 C -977.2113 -23.590125 -976.6263 -22.933944 -976.0052 -22.312833 L -971.3391 -17.64679 C -970.9383 -17.24591 -970.5227 -16.859989 -970.0933 -16.489817 L -965.5298 -12.555744 C -965.1351 -12.215522 -964.729 -11.88881 -964.3122 -11.576173 L -960.3372 -8.594968 C -959.6713 -8.095533 -958.9788 -7.632617 -958.2627 -7.2082625 L -954.1296 -4.75904 C -954.0016 -4.683191 -953.8729 -4.608586 -953.7434 -4.535235 L -949.0459 -1.873292 C -948.3076 -1.4549271 -947.5467 -1.0777419 -946.7667 -.7434665 L -943.2169 .7778834 C -942.631 1.02901 -942.0348 1.2556658 -941.43 1.4572635 L -936.4119 3.1299657 C -935.1647 3.545714 -933.8841 3.8537556 -932.5842 4.0507064 L -928.4854 4.671744 C -928.1202 4.727064 -927.7539 4.773583 -927.3865 4.8112604 L -920.5054 5.5170146 C -920.2602 5.542161 -920.0147 5.5633645 -919.7688 5.5806175 L -915.2417 5.8983104 C -914.7058 5.9359146 -914.1688 5.954734 -913.6316 5.9547344 L -910.3695 5.954736 C -909.4158 5.954736 -908.4631 5.8954186 -907.5167 5.777127 L -903.528 5.2785374 C -902.8681 5.196042 -902.212 5.084959 -901.5616 4.945602 L -895.4796 3.642309 C -894.5857 3.4507642 -893.7041 3.2060972 -892.8393 2.9096103 L -888.3305 1.3637194 C -887.5358 1.0912685 -886.7567 .7754865 -885.9966 .4177928 L -881.1632 -1.8567373 C -880.613 -2.1156531 -880.0733 -2.3962863 -879.5454 -2.6979752 L -875.7775 -4.851042 C -875.0847 -5.2469217 -874.413 -5.678585 -873.7651 -6.1442806 L -869.0889 -9.505246 C -868.5883 -9.865112 -868.1022 -10.244967 -867.6321 -10.64389 L -862.3112 -15.158555 C -861.9289 -15.482941 -861.5573 -15.819741 -861.197 -16.168416 L -856.4978 -20.716044 C -855.8582 -21.335002 -855.2551 -21.990565 -854.6915 -22.679424 L -850.8982 -27.31566 C -850.3915 -27.934974 -849.9174 -28.58031 -849.478 -29.249036 L -845.8608 -34.753436 C -845.6454 -35.081268 -845.4384 -35.414558 -845.24 -35.75298 L -842.7169 -40.057076 C -842.3309 -40.71546 -841.978 -41.392646 -841.6594 -42.08612 L -839.5407 -46.69739 C -839.0078 -47.85715 -838.6367 -49.084564 -838.4376 -50.345265 L -838.4376 -50.345265 C -838.2593 -51.474526 -838.8386 -52.587974 -839.8657 -53.0901 L -845.1591 -55.678005 C -846.4736 -56.32063 -847.7082 -57.11514 -848.8376 -58.045265 L -849.2436 -58.379625 C -850.0879 -59.07496 -850.7114 -60.00126 -851.0376 -61.045265 L -851.0376 -61.045265 C -851.0843 -61.19458 -851.2431 -61.2778 -851.3925 -61.23114 C -851.5075 -61.19518 -851.5872 -61.090315 -851.5911 -60.96981 L -851.7003 -57.54689 C -851.7911 -54.703814 -852.4084 -51.902236 -853.521 -49.28433 L -854.3979 -47.22096 C -854.9565 -45.906686 -855.6363 -44.64729 -856.4284 -43.45909 L -860.1142 -37.930416 C -860.8617 -36.80915 -861.7063 -35.755752 -862.6382 -34.782376 L -868.9333 -28.20753 C -869.8014 -27.300875 -870.7422 -26.466804 -871.7464 -25.713673 L -880.1213 -19.432495 C -880.9977 -18.775182 -881.92 -18.181326 -882.881 -17.655463 L -890.0662 -13.723938 C -891.3774 -13.006531 -892.7553 -12.418628 -894.1805 -11.968568 L -900.8534 -9.861334 C -902.5703 -9.319163 -904.3449 -8.980461 -906.1407 -8.852185 L -913.0272 -8.360296 C -914.0995 -8.283703 -915.1758 -8.282384 -916.2483 -8.356348 L -924.6846 -8.938159 C -925.7187 -9.009482 -926.7469 -9.150639 -927.762 -9.360667 L -934.8973 -10.836916 C -936.8492 -11.240769 -938.7404 -11.896652 -940.5232 -12.78808 L -945.1827 -15.117785 C -946.4168 -15.734853 -947.5929 -16.461726 -948.6967 -17.28961 L -954.3787 -21.55108 C -954.8178 -21.88043 -955.245 -22.225398 -955.6595 -22.585317 L -961.4147 -27.583238 C -962.229 -28.29038 -962.9925 -29.05392 -963.6996 -29.868206 L -968.1049 -34.94089 C -968.859 -35.80925 -969.5469 -36.73295 -970.1628 -37.704217 L -973.8965 -43.59198 C -974.2571 -44.16056 -974.5925 -44.744705 -974.9018 -45.342717 L -976.5222 -48.47544 C -977.1313 -49.65312 -977.6375 -50.881264 -978.035 -52.146155 L -979.3153 -56.21964 C -979.53 -56.90302 -979.7128 -57.596055 -979.8629 -58.296485 L -980.0883 -59.34843 C -980.1734 -59.74544 -979.947 -60.143094 -979.5622 -60.27263 L -979.5622 -60.27263 C -979.4897 -60.29704 -979.4112 -60.25805 -979.3868 -60.18556 C -979.3687 -60.132046 -979.385 -60.07296 -979.4279 -60.03621 Z" stroke="#7f8080" stroke-linecap="round" stroke-linejoin="round" stroke-width="1"/>
      <path d="M -979.9408 -60.24411 L -974.5408 -60.84411 L -967.7408 -57.44411 L -962.7408 -55.64411 L -954.3408 -53.84411 L -945.9408 -52.84411 L -937.9408 -51.84411 L -930.3408 -51.64411 L -921.7408 -51.24411 L -910.1408 -51.44411 L -901.7408 -51.84411 L -892.3408 -52.44411 L -883.9408 -53.24411 L -874.7408 -54.64411 L -866.5408 -56.84411 L -860.7408 -58.64411 L -855.1408 -61.24411 L -852.3408 -60.04411 L -851.9408 -54.44411 L -854.7408 -46.44411 L -860.1408 -43.64411 L -870.7408 -40.444107 L -882.1408 -38.044107 L -893.3408 -37.244107 L -905.7408 -36.244107 L -916.1408 -36.244107 L -925.5408 -36.244107 L -937.1408 -36.844107 L -948.3408 -37.644107 L -958.9408 -39.844107 L -967.5408 -41.844107 L -973.7408 -44.64411 L -975.7408 -46.24411 L -978.9408 -53.84411 Z" fill="black"/>
      <path d="M -979.9408 -60.24411 L -974.5408 -60.84411 L -967.7408 -57.44411 L -962.7408 -55.64411 L -954.3408 -53.84411 L -945.9408 -52.84411 L -937.9408 -51.84411 L -930.3408 -51.64411 L -921.7408 -51.24411 L -910.1408 -51.44411 L -901.7408 -51.84411 L -892.3408 -52.44411 L -883.9408 -53.24411 L -874.7408 -54.64411 L -866.5408 -56.84411 L -860.7408 -58.64411 L -855.1408 -61.24411 L -852.3408 -60.04411 L -851.9408 -54.44411 L -854.7408 -46.44411 L -860.1408 -43.64411 L -870.7408 -40.444107 L -882.1408 -38.044107 L -893.3408 -37.244107 L -905.7408 -36.244107 L -916.1408 -36.244107 L -925.5408 -36.244107 L -937.1408 -36.844107 L -948.3408 -37.644107 L -958.9408 -39.844107 L -967.5408 -41.844107 L -973.7408 -44.64411 L -975.7408 -46.24411 L -978.9408 -53.84411 Z" stroke="#7f8080" stroke-linecap="round" stroke-linejoin="round" stroke-width="1"/>
      <path d="M -1050.1868 365.2 L -1050.1868 365.2 C -1050.2525 365.7255 -1050.1896 366.25905 -1050.0037 366.7549 L -1049.3527 368.49092 C -1049.176 368.96227 -1048.9489 369.4132 -1048.6754 369.8358 L -1047.7076 371.33153 C -1047.1666 372.16756 -1046.4535 372.87855 -1045.6159 373.417 L -1044.5378 374.11005 C -1044.2376 374.30307 -1043.923 374.47285 -1043.5968 374.6179 L -1042.28 375.2035 C -1041.6835 375.46876 -1041.0528 375.6493 -1040.4062 375.7398 L -1031.3958 377.00126 C -1031.3858 377.00265 -1031.3758 377.00403 -1031.3658 377.0054 L -1019.6498 378.594 C -1019.6038 378.60024 -1019.5577 378.606 -1019.5116 378.61134 L -1009.2287 379.79783 C -1009.1968 379.8015 -1009.1648 379.80498 -1009.1328 379.8082 L -995.4228 381.1991 C -995.3948 381.20193 -995.3668 381.2046 -995.3388 381.2071 L -984.2335 382.19865 C -984.1984 382.2018 -984.1632 382.20466 -984.128 382.20726 L -973.4415 382.99886 C -973.401 383.00185 -973.3605 383.0045 -973.32 383.0068 L -962.812 383.6016 C -962.7912 383.60276 -962.7704 383.60404 -962.7496 383.6054 L -950.7068 384.3951 C -950.6228 384.4006 -950.5387 384.4046 -950.4546 384.40707 L -937.0074 384.80257 C -936.9897 384.8031 -936.9719 384.8037 -936.9542 384.80434 L -926.3103 385.19856 C -926.224 385.20176 -926.1376 385.20335 -926.0512 385.20335 L -915.4422 385.20335 C -915.4013 385.20335 -915.3603 385.2037 -915.3194 385.20443 L -904.233 385.39893 C -904.0649 385.4019 -903.8968 385.39877 -903.7289 385.3896 L -893.1077 384.81028 C -893.0231 384.80566 -892.9384 384.8026 -892.8537 384.80104 L -882.0891 384.60532 C -882.0169 384.604 -881.9447 384.6016 -881.8726 384.59803 L -869.8539 384.00695 C -869.8052 384.00455 -869.7564 384.00165 -869.7078 383.99823 L -858.4677 383.20945 C -858.4098 383.2054 -858.3519 383.2006 -858.2941 383.1951 L -845.8835 382.01313 C -845.815 382.0066 -845.7465 382.0011 -845.6779 381.9966 L -833.7458 381.21418 C -833.6358 381.20696 -833.526 381.19715 -833.4164 381.18475 L -823.0041 380.006 C -822.9886 380.00423 -822.973 380.0024 -822.9575 380.00056 L -813.0098 378.80683 C -812.9905 378.8045 -812.9711 378.8021 -812.9518 378.79963 L -799.1161 377.0221 C -799.0188 377.0096 -798.9219 376.99507 -798.8253 376.9785 L -792.2718 375.85506 C -792.07085 375.8206 -791.8685 375.79495 -791.6653 375.77817 L -788.4329 375.5112 C -787.5437 375.43775 -786.6767 375.19497 -785.8786 374.79594 L -784.39235 374.0528 C -783.7918 373.7525 -783.2375 373.36735 -782.7466 372.9092 L -781.4115 371.6631 C -780.8047 371.0967 -780.3493 370.38747 -780.0868 369.6 L -779.792 368.71552 C -779.7219 368.5053 -779.6618 368.29187 -779.612 368.07595 L -779.1423 366.04056 C -779.1071 365.88792 -779.1405 365.72752 -779.2338 365.6017 L -779.2338 365.6017 C -779.3241 365.4798 -779.4748 365.4183 -779.6246 365.44214 L -788.1045 366.7912 C -788.1553 366.7993 -788.2061 366.80796 -788.2568 366.8172 L -801.2416 369.17805 C -801.3344 369.1949 -801.4275 369.2099 -801.5209 369.223 L -812.7506 370.7991 C -812.7707 370.80194 -812.7909 370.80486 -812.811 370.80786 L -825.9336 372.76645 C -826.0983 372.79105 -826.2639 372.80975 -826.43 372.82253 L -839.1548 373.80136 C -839.1721 373.8027 -839.1895 373.80396 -839.2068 373.80516 L -853.5469 374.801 C -853.5695 374.80257 -853.5921 374.80403 -853.6147 374.80538 L -866.9179 375.5996 C -866.9598 375.6021 -867.0018 375.60423 -867.0437 375.60597 L -881.2352 376.1973 C -881.3322 376.20133 -881.4294 376.20335 -881.5266 376.20335 L -894.7808 376.20335 L -907.3225 376.20335 C -907.3614 376.20335 -907.4002 376.2037 -907.4391 376.20433 L -919.1975 376.4003 C -919.3197 376.40234 -919.4419 376.40117 -919.564 376.3968 L -930.3976 376.0099 C -930.5197 376.00554 -930.6419 376.00437 -930.7641 376.0064 L -942.4787 376.20165 C -942.5468 376.2028 -942.6148 376.20293 -942.6829 376.2021 L -958.3852 376.0058 C -958.5156 376.00417 -958.6459 375.9989 -958.776 375.99 L -973.0858 375.00986 C -973.1491 375.00552 -973.2124 375.00032 -973.2756 374.99426 L -987.7666 373.6047 C -987.7761 373.6038 -987.7855 373.6029 -987.795 373.60194 L -1001.607 372.22073 C -1001.7228 372.20915 -1001.8384 372.19468 -1001.9535 372.17733 L -1016.2627 370.02116 C -1016.3414 370.0093 -1016.4204 369.99877 -1016.4995 369.9896 L -1030.0194 368.42207 C -1030.127 368.4096 -1030.2343 368.39463 -1030.3411 368.37718 L -1039.7332 366.84377 C -1039.8982 366.81684 -1040.0622 366.784 -1040.2248 366.7453 L -1049.3024 364.58654 C -1049.6908 364.4942 -1050.0804 364.73412 -1050.1728 365.12244 C -1050.1788 365.14802 -1050.1835 365.1739 -1050.1868 365.2 Z" fill="black"/>
      <path d="M -1050.1868 365.2 L -1050.1868 365.2 C -1050.2525 365.7255 -1050.1896 366.25905 -1050.0037 366.7549 L -1049.3527 368.49092 C -1049.176 368.96227 -1048.9489 369.4132 -1048.6754 369.8358 L -1047.7076 371.33153 C -1047.1666 372.16756 -1046.4535 372.87855 -1045.6159 373.417 L -1044.5378 374.11005 C -1044.2376 374.30307 -1043.923 374.47285 -1043.5968 374.6179 L -1042.28 375.2035 C -1041.6835 375.46876 -1041.0528 375.6493 -1040.4062 375.7398 L -1031.3958 377.00126 C -1031.3858 377.00265 -1031.3758 377.00403 -1031.3658 377.0054 L -1019.6498 378.594 C -1019.6038 378.60024 -1019.5577 378.606 -1019.5116 378.61134 L -1009.2287 379.79783 C -1009.1968 379.8015 -1009.1648 379.80498 -1009.1328 379.8082 L -995.4228 381.1991 C -995.3948 381.20193 -995.3668 381.2046 -995.3388 381.2071 L -984.2335 382.19865 C -984.1984 382.2018 -984.1632 382.20466 -984.128 382.20726 L -973.4415 382.99886 C -973.401 383.00185 -973.3605 383.0045 -973.32 383.0068 L -962.812 383.6016 C -962.7912 383.60276 -962.7704 383.60404 -962.7496 383.6054 L -950.7068 384.3951 C -950.6228 384.4006 -950.5387 384.4046 -950.4546 384.40707 L -937.0074 384.80257 C -936.9897 384.8031 -936.9719 384.8037 -936.9542 384.80434 L -926.3103 385.19856 C -926.224 385.20176 -926.1376 385.20335 -926.0512 385.20335 L -915.4422 385.20335 C -915.4013 385.20335 -915.3603 385.2037 -915.3194 385.20443 L -904.233 385.39893 C -904.0649 385.4019 -903.8968 385.39877 -903.7289 385.3896 L -893.1077 384.81028 C -893.0231 384.80566 -892.9384 384.8026 -892.8537 384.80104 L -882.0891 384.60532 C -882.0169 384.604 -881.9447 384.6016 -881.8726 384.59803 L -869.8539 384.00695 C -869.8052 384.00455 -869.7564 384.00165 -869.7078 383.99823 L -858.4677 383.20945 C -858.4098 383.2054 -858.3519 383.2006 -858.2941 383.1951 L -845.8835 382.01313 C -845.815 382.0066 -845.7465 382.0011 -845.6779 381.9966 L -833.7458 381.21418 C -833.6358 381.20696 -833.526 381.19715 -833.4164 381.18475 L -823.0041 380.006 C -822.9886 380.00423 -822.973 380.0024 -822.9575 380.00056 L -813.0098 378.80683 C -812.9905 378.8045 -812.9711 378.8021 -812.9518 378.79963 L -799.1161 377.0221 C -799.0188 377.0096 -798.9219 376.99507 -798.8253 376.9785 L -792.2718 375.85506 C -792.07085 375.8206 -791.8685 375.79495 -791.6653 375.77817 L -788.4329 375.5112 C -787.5437 375.43775 -786.6767 375.19497 -785.8786 374.79594 L -784.39235 374.0528 C -783.7918 373.7525 -783.2375 373.36735 -782.7466 372.9092 L -781.4115 371.6631 C -780.8047 371.0967 -780.3493 370.38747 -780.0868 369.6 L -779.792 368.71552 C -779.7219 368.5053 -779.6618 368.29187 -779.612 368.07595 L -779.1423 366.04056 C -779.1071 365.88792 -779.1405 365.72752 -779.2338 365.6017 L -779.2338 365.6017 C -779.3241 365.4798 -779.4748 365.4183 -779.6246 365.44214 L -788.1045 366.7912 C -788.1553 366.7993 -788.2061 366.80796 -788.2568 366.8172 L -801.2416 369.17805 C -801.3344 369.1949 -801.4275 369.2099 -801.5209 369.223 L -812.7506 370.7991 C -812.7707 370.80194 -812.7909 370.80486 -812.811 370.80786 L -825.9336 372.76645 C -826.0983 372.79105 -826.2639 372.80975 -826.43 372.82253 L -839.1548 373.80136 C -839.1721 373.8027 -839.1895 373.80396 -839.2068 373.80516 L -853.5469 374.801 C -853.5695 374.80257 -853.5921 374.80403 -853.6147 374.80538 L -866.9179 375.5996 C -866.9598 375.6021 -867.0018 375.60423 -867.0437 375.60597 L -881.2352 376.1973 C -881.3322 376.20133 -881.4294 376.20335 -881.5266 376.20335 L -894.7808 376.20335 L -907.3225 376.20335 C -907.3614 376.20335 -907.4002 376.2037 -907.4391 376.20433 L -919.1975 376.4003 C -919.3197 376.40234 -919.4419 376.40117 -919.564 376.3968 L -930.3976 376.0099 C -930.5197 376.00554 -930.6419 376.00437 -930.7641 376.0064 L -942.4787 376.20165 C -942.5468 376.2028 -942.6148 376.20293 -942.6829 376.2021 L -958.3852 376.0058 C -958.5156 376.00417 -958.6459 375.9989 -958.776 375.99 L -973.0858 375.00986 C -973.1491 375.00552 -973.2124 375.00032 -973.2756 374.99426 L -987.7666 373.6047 C -987.7761 373.6038 -987.7855 373.6029 -987.795 373.60194 L -1001.607 372.22073 C -1001.7228 372.20915 -1001.8384 372.19468 -1001.9535 372.17733 L -1016.2627 370.02116 C -1016.3414 370.0093 -1016.4204 369.99877 -1016.4995 369.9896 L -1030.0194 368.42207 C -1030.127 368.4096 -1030.2343 368.39463 -1030.3411 368.37718 L -1039.7332 366.84377 C -1039.8982 366.81684 -1040.0622 366.784 -1040.2248 366.7453 L -1049.3024 364.58654 C -1049.6908 364.4942 -1050.0804 364.73412 -1050.1728 365.12244 C -1050.1788 365.14802 -1050.1835 365.1739 -1050.1868 365.2 Z" stroke="#7f8080" stroke-linecap="round" stroke-linejoin="round" stroke-width="1"/>
      <path d="M -807.7271 370.8372 L -796.52695 369.8335 L -783.2904 367.8262 L -779.2176 365.81885 L -784.3086 334.70516 L -787.3632 307.60614 L -789.3996 280.5071 L -792.4542 253.4081 L -793.4724 225.3054 L -793.4724 196.19905 L -794.4906 172.11103 L -794.4906 134.97533 L -792.4542 101.8543 L -789.3996 70.74061 L -787.3632 55.6856 L -782.2722 39.62692 L -778.19945 25.575575 L -774.1267 12.527897 L -765.9811 -1.5234474 L -759.872 -12.56379 L -754.781 -19.589462 L -763.9447 -24.6078 L -777.1813 -29.626137 L -790.4178 -33.640807 L -809.7635 -38.659144 L -813 371 Z" fill="black"/>
      <path d="M -807.7271 370.8372 L -796.52695 369.8335 L -783.2904 367.8262 L -779.2176 365.81885 L -784.3086 334.70516 L -787.3632 307.60614 L -789.3996 280.5071 L -792.4542 253.4081 L -793.4724 225.3054 L -793.4724 196.19905 L -794.4906 172.11103 L -794.4906 134.97533 L -792.4542 101.8543 L -789.3996 70.74061 L -787.3632 55.6856 L -782.2722 39.62692 L -778.19945 25.575575 L -774.1267 12.527897 L -765.9811 -1.5234474 L -759.872 -12.56379 L -754.781 -19.589462 L -763.9447 -24.6078 L -777.1813 -29.626137 L -790.4178 -33.640807 L -809.7635 -38.659144 L -813 371 Z" stroke="#7f8080" stroke-linecap="round" stroke-linejoin="round" stroke-width="1"/>
      <path d="M -1018.6583 369.8861 L -1022.972 369.46113 L -1033.972 368.46113 L -1046.972 366.46113 L -1050.972 364.46113 L -1045.972 333.46113 L -1044.1583 307.3861 L -1041.6583 279.3861 L -1040.1583 252.3861 L -1039.6583 223.3861 L -1038.1583 196.3861 L -1037.6583 170.8861 L -1038.6583 134.8861 L -1039.6583 101.3861 L -1039.6583 86.3861 L -1042.1583 70.8861 L -1044.6583 55.8861 L -1049.1583 40.3861 L -1053.6583 25.8861 L -1058.6583 12.3861 L -1065.1583 -1.1138996 L -1071.6583 -11.6139 L -1075.1583 -18.1139 L -1065.972 -24.538867 L -1052.972 -29.538867 L -1039.972 -33.538867 L -1021.6583 -39.1139 L -1016.1583 -40.6139 Z" fill="black"/>
      <path d="M -1018.6583 369.8861 L -1022.972 369.46113 L -1033.972 368.46113 L -1046.972 366.46113 L -1050.972 364.46113 L -1045.972 333.46113 L -1044.1583 307.3861 L -1041.6583 279.3861 L -1040.1583 252.3861 L -1039.6583 223.3861 L -1038.1583 196.3861 L -1037.6583 170.8861 L -1038.6583 134.8861 L -1039.6583 101.3861 L -1039.6583 86.3861 L -1042.1583 70.8861 L -1044.6583 55.8861 L -1049.1583 40.3861 L -1053.6583 25.8861 L -1058.6583 12.3861 L -1065.1583 -1.1138996 L -1071.6583 -11.6139 L -1075.1583 -18.1139 L -1065.972 -24.538867 L -1052.972 -29.538867 L -1039.972 -33.538867 L -1021.6583 -39.1139 L -1016.1583 -40.6139 Z" stroke="#7f8080" stroke-linecap="round" stroke-linejoin="round" stroke-width="1"/>
      <path d="M -978.5 374 L -973 375 L -959 375.5 L -938 375.5 L -938 2 L -950 -2 L -957 -6 L -966 -12 L -975 -20.5 Z" fill="black"/>
      <path d="M -978.5 374 L -973 375 L -959 375.5 L -938 375.5 L -938 2 L -950 -2 L -957 -6 L -966 -12 L -975 -20.5 Z" stroke="#7f8080" stroke-linecap="round" stroke-linejoin="round" stroke-width="1"/>
      <path d="M -885 .5 L -876 -4.5 L -870 -9 L -862 -15 L -856 -21.5 L -851.5 374.5 L -868.5 375.5 L -879.5 376 L -886 376.5 L -890 376 L -889 376 L -893 3.5 Z" fill="black"/>
      <path d="M -885 .5 L -876 -4.5 L -870 -9 L -862 -15 L -856 -21.5 L -851.5 374.5 L -868.5 375.5 L -879.5 376 L -886 376.5 L -890 376 L -889 376 L -893 3.5 Z" stroke="#7f8080" stroke-linecap="round" stroke-linejoin="round" stroke-width="1"/>
    </g>
  </g>
</svg>
