<?xml version="1.0" encoding="UTF-8" standalone="no"?>
<!DOCTYPE svg PUBLIC "-//W3C//DTD SVG 1.1//EN" "http://www.w3.org/Graphics/SVG/1.1/DTD/svg11.dtd">
<svg xmlns="http://www.w3.org/2000/svg" xmlns:xl="http://www.w3.org/1999/xlink" version="1.1" viewBox="67.5 25.5 432.4053 448.4" width="432.4053pt" height="448.4pt" xmlns:dc="http://purl.org/dc/elements/1.1/">
  <metadata> Produced by OmniGraffle 7.6.1 
    <dc:date>2019-05-26 04:45:25 +0000</dc:date>
  </metadata>
  <defs>
    <radialGradient cx="0" cy="0" r="1" id="Gradient" gradientUnits="userSpaceOnUse">
      <stop offset="0" stop-color="#cbcbcb"/>
      <stop offset="1" stop-color="#0f74e9"/>
    </radialGradient>
    <radialGradient id="Obj_Gradient" xl:href="#Gradient" gradientTransform="translate(282.75925 53.4) scale(70.26272)"/>
    <linearGradient x1="0" x2="1" id="Gradient_2" gradientUnits="userSpaceOnUse">
      <stop offset="0" stop-color="blue"/>
      <stop offset="1" stop-color="#22268f"/>
    </linearGradient>
    <linearGradient id="Obj_Gradient_2" xl:href="#Gradient_2" gradientTransform="translate(283.70264 27.281705) rotate(90) scale(446.1183)"/>
    <linearGradient x1="0" x2="1" id="Gradient_3" gradientUnits="userSpaceOnUse">
      <stop offset="0" stop-color="blue"/>
      <stop offset="1" stop-color="#333"/>
    </linearGradient>
    <linearGradient id="Obj_Gradient_3" xl:href="#Gradient_3" gradientTransform="translate(113.7 70.44614) rotate(90) scale(137.2)"/>
    <linearGradient id="Obj_Gradient_4" xl:href="#Gradient_3" gradientTransform="translate(453.7053 69.50275) rotate(90) scale(137.2)"/>
    <radialGradient cx="0" cy="0" r="1" id="Gradient_4" gradientUnits="userSpaceOnUse">
      <stop offset="0" stop-color="white"/>
      <stop offset="1" stop-color="#18217e"/>
    </radialGradient>
    <radialGradient id="Obj_Gradient_5" xl:href="#Gradient_4" gradientTransform="translate(110.2 189.24615) scale(46.03694)"/>
    <radialGradient cx="0" cy="0" r="1" id="Gradient_5" gradientUnits="userSpaceOnUse">
      <stop offset="0" stop-color="white"/>
      <stop offset="1" stop-color="#172178"/>
    </radialGradient>
    <radialGradient id="Obj_Gradient_6" xl:href="#Gradient_5" gradientTransform="translate(457.2053 188.30275) scale(46.03694)"/>
    <radialGradient cx="0" cy="0" r="1" id="Gradient_6" gradientUnits="userSpaceOnUse">
      <stop offset="0" stop-color="white"/>
      <stop offset="1" stop-color="#272486"/>
    </radialGradient>
    <radialGradient id="Obj_Gradient_7" xl:href="#Gradient_6" gradientTransform="translate(283.32968 462.9834) scale(135.94141)"/>
  </defs>
  <g stroke="none" stroke-opacity="1" stroke-dasharray="none" fill="none" fill-opacity="1">
    <title>chelsea</title>
    <g>
      <title>Capa 1</title>
      <path d="M 221.00565 26.590446 L 229.1711 29.708164 C 230.0291 30.03576 230.90594 30.311673 231.79692 30.53442 L 245.5141 33.963713 C 246.67576 34.254128 247.85832 34.453383 249.051 34.55966 L 266.57715 36.121397 C 267.165 36.17378 267.75464 36.203517 268.34478 36.210542 L 283.8237 36.394815 C 284.11404 36.39827 284.40442 36.39623 284.6947 36.38869 L 299.118 36.01406 C 299.4788 36.004688 299.8393 35.986826 300.19924 35.96049 L 314.57053 34.90893 C 315.56197 34.836387 316.54766 34.699642 317.5214 34.49956 L 329.09436 32.12155 C 330.13637 31.907442 331.16226 31.6213 332.16465 31.265186 L 343.91664 27.090136 C 345.007 26.702767 346.2102 27.233542 346.65925 28.3 L 346.65925 28.3 C 347.1814 29.540106 347.3334 30.904854 347.09685 32.22945 L 346.91637 33.24014 C 346.6126 34.941294 346.11806 36.602796 345.44214 38.19319 L 343.8989 41.82431 C 343.34035 43.13858 342.6606 44.397975 341.86846 45.58618 L 338.1827 51.11485 C 337.43517 52.236114 336.59057 53.289513 335.6586 54.26289 L 329.36354 60.83774 C 328.49547 61.74439 327.55463 62.57846 326.55046 63.33159 L 318.17555 69.61277 C 317.29914 70.270084 316.37688 70.86394 315.4158 71.3898 L 308.2306 75.32133 C 306.9195 76.038735 305.54156 76.62664 304.11638 77.0767 L 297.44347 79.18393 C 295.7266 79.7261 293.952 80.0648 292.15613 80.19308 L 285.26968 80.68497 C 284.19738 80.76156 283.12103 80.76288 282.04854 80.68892 L 273.6123 80.10711 C 272.5781 80.03578 271.54994 79.89463 270.5348 79.6846 L 263.3996 78.20835 C 261.44765 77.8045 259.55647 77.14861 257.77362 76.257185 L 253.1142 73.92748 C 251.88007 73.31041 250.70397 72.58354 249.60012 71.755655 L 243.91816 67.49419 C 243.47903 67.164835 243.05182 66.81987 242.63737 66.45995 L 236.8822 61.46203 C 236.0679 60.754885 235.30436 59.991345 234.59722 59.17706 L 230.192 54.104376 C 229.4379 53.236015 228.74998 52.312315 228.13406 51.34105 L 224.40036 45.45329 C 224.0398 44.884704 223.70437 44.30056 223.39505 43.70255 L 221.77468 40.569827 C 221.16553 39.39215 220.65936 38.164 220.26183 36.89911 L 218.98159 32.825623 C 218.7668 32.142248 218.58408 31.44921 218.43399 30.74878 L 218.35925 30.4 C 218.16458 29.491574 218.27185 28.54443 218.66473 27.702543 L 218.75925 27.5 C 219.15372 26.654693 220.1342 26.257707 221.00565 26.590446 Z" fill="url(#Obj_Gradient)"/>
      <path d="M 221.00565 26.590446 L 229.1711 29.708164 C 230.0291 30.03576 230.90594 30.311673 231.79692 30.53442 L 245.5141 33.963713 C 246.67576 34.254128 247.85832 34.453383 249.051 34.55966 L 266.57715 36.121397 C 267.165 36.17378 267.75464 36.203517 268.34478 36.210542 L 283.8237 36.394815 C 284.11404 36.39827 284.40442 36.39623 284.6947 36.38869 L 299.118 36.01406 C 299.4788 36.004688 299.8393 35.986826 300.19924 35.96049 L 314.57053 34.90893 C 315.56197 34.836387 316.54766 34.699642 317.5214 34.49956 L 329.09436 32.12155 C 330.13637 31.907442 331.16226 31.6213 332.16465 31.265186 L 343.91664 27.090136 C 345.007 26.702767 346.2102 27.233542 346.65925 28.3 L 346.65925 28.3 C 347.1814 29.540106 347.3334 30.904854 347.09685 32.22945 L 346.91637 33.24014 C 346.6126 34.941294 346.11806 36.602796 345.44214 38.19319 L 343.8989 41.82431 C 343.34035 43.13858 342.6606 44.397975 341.86846 45.58618 L 338.1827 51.11485 C 337.43517 52.236114 336.59057 53.289513 335.6586 54.26289 L 329.36354 60.83774 C 328.49547 61.74439 327.55463 62.57846 326.55046 63.33159 L 318.17555 69.61277 C 317.29914 70.270084 316.37688 70.86394 315.4158 71.3898 L 308.2306 75.32133 C 306.9195 76.038735 305.54156 76.62664 304.11638 77.0767 L 297.44347 79.18393 C 295.7266 79.7261 293.952 80.0648 292.15613 80.19308 L 285.26968 80.68497 C 284.19738 80.76156 283.12103 80.76288 282.04854 80.68892 L 273.6123 80.10711 C 272.5781 80.03578 271.54994 79.89463 270.5348 79.6846 L 263.3996 78.20835 C 261.44765 77.8045 259.55647 77.14861 257.77362 76.257185 L 253.1142 73.92748 C 251.88007 73.31041 250.70397 72.58354 249.60012 71.755655 L 243.91816 67.49419 C 243.47903 67.164835 243.05182 66.81987 242.63737 66.45995 L 236.8822 61.46203 C 236.0679 60.754885 235.30436 59.991345 234.59722 59.17706 L 230.192 54.104376 C 229.4379 53.236015 228.74998 52.312315 228.13406 51.34105 L 224.40036 45.45329 C 224.0398 44.884704 223.70437 44.30056 223.39505 43.70255 L 221.77468 40.569827 C 221.16553 39.39215 220.65936 38.164 220.26183 36.89911 L 218.98159 32.825623 C 218.7668 32.142248 218.58408 31.44921 218.43399 30.74878 L 218.35925 30.4 C 218.16458 29.491574 218.27185 28.54443 218.66473 27.702543 L 218.75925 27.5 C 219.15372 26.654693 220.1342 26.257707 221.00565 26.590446 Z" stroke="#7f8080" stroke-linecap="round" stroke-linejoin="round" stroke-width="1"/>
      <path d="M 156.97346 463.2638 L 170.7157 465.55416 C 170.89907 465.5847 171.08297 465.6121 171.2673 465.63624 L 199.62094 469.35154 C 199.86747 469.38385 200.11472 469.4104 200.36248 469.4312 L 230.60537 471.9677 C 230.86227 471.98923 231.11966 472.00456 231.3773 472.01367 L 270.30822 473.39 C 270.49658 473.3967 270.68504 473.4 270.87352 473.4 L 302.34084 473.4 C 302.50746 473.4 302.67407 473.3974 302.8406 473.3922 L 327.8754 472.60986 C 328.08563 472.6033 328.29573 472.5926 328.50555 472.5777 L 350.5533 471.0168 C 350.7116 471.0056 350.86975 470.99205 351.02766 470.97614 L 376.28815 468.4305 C 376.4899 468.4102 376.69122 468.386 376.89204 468.358 L 400.68474 465.04265 C 400.88875 465.0142 401.0922 464.98186 401.29496 464.9456 L 410.4908 463.3 C 415.8179 462.34674 419.46876 457.3931 418.80234 452.02255 L 416.59475 434.232 C 416.5921 434.21066 416.5895 434.18934 416.58695 434.168 L 413.0231 404.4695 C 413.00157 404.28985 412.98306 404.10985 412.9676 403.9296 L 410.6054 376.37037 C 410.59565 376.2568 410.58713 376.1431 410.57983 376.02936 L 409.1932 354.43772 C 409.1916 354.41258 409.1899 354.38744 409.1882 354.3623 L 407.59603 331.276 C 407.59253 331.22533 407.5893 331.17466 407.58627 331.12398 L 406.4099 311.3218 C 406.39716 311.1073 406.38874 310.89255 406.38465 310.6777 L 405.99236 290.08285 C 405.9913 290.02762 405.98997 289.9724 405.98835 289.91718 L 405.3932 269.68283 C 405.3916 269.6276 405.39026 269.5724 405.3892 269.51715 L 404.99855 249.0076 C 404.99337 248.73592 404.9951 248.46413 405.0038 248.19253 L 405.58973 229.83292 C 405.59044 229.81097 405.5912 229.78903 405.59197 229.7671 L 406.38005 207.89779 C 406.3872 207.69928 406.39806 207.50093 406.4126 207.30283 L 407.97007 186.0822 C 407.9839 185.89409 407.99436 185.70573 408.0015 185.51724 L 408.75596 165.61837 C 408.77915 165.00663 408.83744 164.39672 408.9305 163.79165 L 411.66953 145.98813 C 411.7503 145.46304 411.8572 144.94229 411.9898 144.42783 L 416.61806 126.47017 C 416.73316 126.0236 416.8675 125.58221 417.02073 125.14725 L 422.7415 108.9076 C 422.9076 108.43613 423.0957 107.97269 423.30517 107.51883 L 428.83673 95.53379 C 428.9394 95.31129 429.0472 95.09119 429.16 94.87364 L 434.52223 84.53222 C 434.56793 84.44407 434.61446 84.35636 434.6618 84.26908 L 439.87777 74.65212 C 440.61505 73.29276 441.5647 72.05987 442.6908 71 L 442.6908 71 C 443.366 70.36453 443.39817 69.30203 442.7627 68.62684 C 442.6382 68.49456 442.49307 68.38337 442.33295 68.29759 L 439.1188 66.57573 C 438.90016 66.45859 438.6788 66.34656 438.45494 66.23971 L 430.60097 62.491224 C 430.19436 62.29716 429.77974 62.12036 429.3582 61.96129 L 419.6834 58.31041 C 419.48833 58.23681 419.29187 58.16703 419.0941 58.10111 L 406.39963 53.869615 C 406.2604 53.82321 406.12055 53.77872 405.9801 53.73616 L 393.0966 49.83206 C 393.02605 49.81069 392.95567 49.78883 392.88544 49.76648 L 380.38144 45.78794 C 379.9878 45.662693 379.5992 45.52225 379.21643 45.36693 L 367.2405 40.507127 C 366.40883 40.16964 365.60704 39.762775 364.8436 39.290834 L 355.22436 33.34439 C 355.06865 33.248137 354.9146 33.14922 354.7623 33.04768 L 349.8722 29.787616 C 348.8908 29.133353 348.0195 28.327453 347.2908 27.4 L 347.2908 27.4 C 347.1852 27.265596 346.9906 27.242248 346.8562 27.34785 C 346.75347 27.428576 346.7125 27.565127 346.7538 27.689083 L 346.8908 28.1 C 347.35003 29.47775 347.4546 30.949037 347.1948 32.37789 L 346.79967 34.551155 C 346.52845 36.042813 346.0466 37.48835 345.3686 38.844405 L 343.83626 41.90904 C 343.53956 42.50244 343.20624 43.07681 342.83823 43.628825 L 339.63453 48.43438 C 339.20593 49.077283 338.73132 49.68829 338.21443 50.262615 L 333.6524 55.331555 C 333.6113 55.377185 333.57 55.42258 333.5284 55.46773 L 327.53417 61.97576 C 326.90643 62.6573 326.22068 63.28302 325.48465 63.84587 L 320.46047 67.68789 C 320.01432 68.02906 319.55052 68.3465 319.071 68.6389 L 312.5846 72.59403 C 311.92292 72.99748 311.23283 73.35232 310.51975 73.65576 L 303.40434 76.6836 C 302.59667 77.02728 301.7621 77.30393 300.90905 77.51072 L 296.83 78.49959 C 296.00516 78.69955 295.16573 78.83356 294.31963 78.900355 L 288.61943 79.35037 C 288.2005 79.383445 287.78042 79.4 287.3602 79.4 L 280.32787 79.4 C 279.57077 79.4 278.81462 79.34626 278.06513 79.23919 L 270.11868 78.10399 C 269.63367 78.0347 269.1521 77.94317 268.6755 77.82969 L 262.71426 76.41035 C 261.56878 76.13762 260.4569 75.73927 259.39883 75.22253 L 253.11882 72.15556 C 252.63377 71.91867 252.16102 71.65739 251.70238 71.37272 L 247.49052 68.75846 C 246.89135 68.38656 246.31742 67.975456 245.7725 67.527835 L 241.3264 63.87568 C 241.1027 63.69193 240.88402 63.50214 240.67063 63.30652 L 236.86828 59.82104 C 236.417 59.407356 235.9898 58.96811 235.58885 58.505465 L 231.4701 53.753066 C 231.15072 53.38455 230.84836 53.00162 230.56395 52.605486 L 226.1343 46.43561 C 225.6394 45.746296 225.20013 45.018704 224.82064 44.25972 L 222.24418 39.10679 C 222.20858 39.0356 222.17352 38.96414 222.13899 38.892424 L 220.89078 36.3 C 220.04007 34.53313 219.68455 32.568594 219.8621 30.615642 L 220.0423 28.633386 C 220.0661 28.371524 219.87312 28.139945 219.61125 28.11614 C 219.44886 28.101376 219.2902 28.17075 219.19078 28.3 L 219.19078 28.3 C 218.52734 29.16248 217.74723 29.92856 216.87285 30.576246 L 212.97632 33.462567 C 212.85263 33.554184 212.72763 33.644012 212.60136 33.732022 L 207.9791 36.95359 C 206.79237 37.78071 205.49895 38.443076 204.1342 38.922582 L 199.52708 40.5413 C 199.0365 40.713665 198.55463 40.90984 198.08316 41.129127 L 191.23638 44.313676 C 190.54022 44.63747 189.82165 44.91074 189.08625 45.13136 L 178.21586 48.392476 C 178.19914 48.39749 178.18243 48.402536 178.16572 48.407607 L 167.19764 51.737205 C 167.05974 51.779067 166.92241 51.82279 166.7857 51.86836 L 153.86446 56.17544 C 153.81534 56.191813 153.76614 56.20795 153.71686 56.223845 L 142.34946 59.89075 C 141.71097 60.09671 141.08607 60.34263 140.47846 60.627044 L 132.5465 64.33988 C 132.17616 64.51323 131.8126 64.70071 131.45662 64.90192 L 125.5105 68.262765 C 124.25747 68.971 123.81583 70.560925 124.52406 71.81396 C 124.60118 71.9504 124.69045 72.0796 124.79078 72.2 L 125.65489 73.23693 C 126.40984 74.14287 127.06231 75.12949 127.60043 76.17882 L 130.67757 82.17924 C 130.75304 82.3264 130.83079 82.47239 130.91078 82.61715 L 134.86554 89.77337 C 134.94903 89.92445 135.03007 90.07687 135.10863 90.23057 L 139.21693 98.26856 C 139.466 98.75587 139.6899 99.25563 139.88776 99.76589 L 143.37053 108.74776 C 143.38403 108.78259 143.39765 108.81737 143.4114 108.8521 L 147.00772 117.93754 C 147.12973 118.24577 147.24213 118.55772 147.34476 118.87294 L 149.9666 126.92572 C 149.98272 126.97524 149.9986 127.02484 150.01424 127.07452 L 153.08629 136.83279 C 153.28908 137.47695 153.45089 138.1333 153.57073 138.79792 L 155.55605 149.80737 C 155.5792 149.93579 155.60079 150.06448 155.6208 150.19342 L 157.32666 161.1868 C 157.3694 161.46222 157.40494 161.73871 157.43323 162.01598 L 158.32065 170.7127 C 158.36738 171.17069 158.39433 171.63048 158.4014 172.0908 L 158.58565 184.06641 C 158.58907 184.28878 158.59713 184.51105 158.60981 184.73309 L 159.38019 198.21465 C 159.38725 198.33821 159.39575 198.4617 159.40567 198.58506 L 160.73924 215.15943 C 160.77359 215.5863 160.79078 216.0144 160.79078 216.44264 L 160.79078 228.89242 C 160.79078 229.09746 160.79472 229.30247 160.8026 229.50735 L 161.38295 244.5965 C 161.38817 244.73216 161.39166 244.8679 161.39343 245.00365 L 161.58559 259.7999 C 161.58905 260.0666 161.58584 260.33333 161.57597 260.59986 L 161.00174 276.104 C 160.99444 276.30132 160.99078 276.49875 160.99078 276.6962 L 160.99078 290.29243 C 160.99078 290.49746 160.98684 290.70247 160.97896 290.90736 L 160.39377 306.12236 C 160.39178 306.17412 160.38953 306.22588 160.38704 306.2776 L 159.59172 322.78055 C 159.5911 322.79352 159.59045 322.8065 159.5898 322.81945 L 158.7953 338.51062 C 158.79229 338.5702 158.78894 338.6298 158.78526 338.68933 L 157.59634 357.91007 C 157.59264 357.97003 157.58859 358.02996 157.5842 358.08987 L 155.80107 382.45942 C 155.79421 382.55314 155.78653 382.6468 155.77802 382.7404 L 153.99213 402.3852 C 153.99123 402.39507 153.99032 402.40494 153.9894 402.4148 L 152.21864 421.4997 C 152.20007 421.6999 152.17773 421.8997 152.15162 422.09903 L 150.19091 437.07175 C 150.0581 438.08594 149.78896 439.07756 149.39078 440.01973 L 149.39078 440.01973 C 148.9932 440.9605 148.74454 441.9574 148.65371 442.97465 L 147.89078 451.51973 C 147.38302 457.20676 151.34149 462.3251 156.97346 463.2638 Z" fill="url(#Obj_Gradient_2)"/>
      <path d="M 156.97346 463.2638 L 170.7157 465.55416 C 170.89907 465.5847 171.08297 465.6121 171.2673 465.63624 L 199.62094 469.35154 C 199.86747 469.38385 200.11472 469.4104 200.36248 469.4312 L 230.60537 471.9677 C 230.86227 471.98923 231.11966 472.00456 231.3773 472.01367 L 270.30822 473.39 C 270.49658 473.3967 270.68504 473.4 270.87352 473.4 L 302.34084 473.4 C 302.50746 473.4 302.67407 473.3974 302.8406 473.3922 L 327.8754 472.60986 C 328.08563 472.6033 328.29573 472.5926 328.50555 472.5777 L 350.5533 471.0168 C 350.7116 471.0056 350.86975 470.99205 351.02766 470.97614 L 376.28815 468.4305 C 376.4899 468.4102 376.69122 468.386 376.89204 468.358 L 400.68474 465.04265 C 400.88875 465.0142 401.0922 464.98186 401.29496 464.9456 L 410.4908 463.3 C 415.8179 462.34674 419.46876 457.3931 418.80234 452.02255 L 416.59475 434.232 C 416.5921 434.21066 416.5895 434.18934 416.58695 434.168 L 413.0231 404.4695 C 413.00157 404.28985 412.98306 404.10985 412.9676 403.9296 L 410.6054 376.37037 C 410.59565 376.2568 410.58713 376.1431 410.57983 376.02936 L 409.1932 354.43772 C 409.1916 354.41258 409.1899 354.38744 409.1882 354.3623 L 407.59603 331.276 C 407.59253 331.22533 407.5893 331.17466 407.58627 331.12398 L 406.4099 311.3218 C 406.39716 311.1073 406.38874 310.89255 406.38465 310.6777 L 405.99236 290.08285 C 405.9913 290.02762 405.98997 289.9724 405.98835 289.91718 L 405.3932 269.68283 C 405.3916 269.6276 405.39026 269.5724 405.3892 269.51715 L 404.99855 249.0076 C 404.99337 248.73592 404.9951 248.46413 405.0038 248.19253 L 405.58973 229.83292 C 405.59044 229.81097 405.5912 229.78903 405.59197 229.7671 L 406.38005 207.89779 C 406.3872 207.69928 406.39806 207.50093 406.4126 207.30283 L 407.97007 186.0822 C 407.9839 185.89409 407.99436 185.70573 408.0015 185.51724 L 408.75596 165.61837 C 408.77915 165.00663 408.83744 164.39672 408.9305 163.79165 L 411.66953 145.98813 C 411.7503 145.46304 411.8572 144.94229 411.9898 144.42783 L 416.61806 126.47017 C 416.73316 126.0236 416.8675 125.58221 417.02073 125.14725 L 422.7415 108.9076 C 422.9076 108.43613 423.0957 107.97269 423.30517 107.51883 L 428.83673 95.53379 C 428.9394 95.31129 429.0472 95.09119 429.16 94.87364 L 434.52223 84.53222 C 434.56793 84.44407 434.61446 84.35636 434.6618 84.26908 L 439.87777 74.65212 C 440.61505 73.29276 441.5647 72.05987 442.6908 71 L 442.6908 71 C 443.366 70.36453 443.39817 69.30203 442.7627 68.62684 C 442.6382 68.49456 442.49307 68.38337 442.33295 68.29759 L 439.1188 66.57573 C 438.90016 66.45859 438.6788 66.34656 438.45494 66.23971 L 430.60097 62.491224 C 430.19436 62.29716 429.77974 62.12036 429.3582 61.96129 L 419.6834 58.31041 C 419.48833 58.23681 419.29187 58.16703 419.0941 58.10111 L 406.39963 53.869615 C 406.2604 53.82321 406.12055 53.77872 405.9801 53.73616 L 393.0966 49.83206 C 393.02605 49.81069 392.95567 49.78883 392.88544 49.76648 L 380.38144 45.78794 C 379.9878 45.662693 379.5992 45.52225 379.21643 45.36693 L 367.2405 40.507127 C 366.40883 40.16964 365.60704 39.762775 364.8436 39.290834 L 355.22436 33.34439 C 355.06865 33.248137 354.9146 33.14922 354.7623 33.04768 L 349.8722 29.787616 C 348.8908 29.133353 348.0195 28.327453 347.2908 27.4 L 347.2908 27.4 C 347.1852 27.265596 346.9906 27.242248 346.8562 27.34785 C 346.75347 27.428576 346.7125 27.565127 346.7538 27.689083 L 346.8908 28.1 C 347.35003 29.47775 347.4546 30.949037 347.1948 32.37789 L 346.79967 34.551155 C 346.52845 36.042813 346.0466 37.48835 345.3686 38.844405 L 343.83626 41.90904 C 343.53956 42.50244 343.20624 43.07681 342.83823 43.628825 L 339.63453 48.43438 C 339.20593 49.077283 338.73132 49.68829 338.21443 50.262615 L 333.6524 55.331555 C 333.6113 55.377185 333.57 55.42258 333.5284 55.46773 L 327.53417 61.97576 C 326.90643 62.6573 326.22068 63.28302 325.48465 63.84587 L 320.46047 67.68789 C 320.01432 68.02906 319.55052 68.3465 319.071 68.6389 L 312.5846 72.59403 C 311.92292 72.99748 311.23283 73.35232 310.51975 73.65576 L 303.40434 76.6836 C 302.59667 77.02728 301.7621 77.30393 300.90905 77.51072 L 296.83 78.49959 C 296.00516 78.69955 295.16573 78.83356 294.31963 78.900355 L 288.61943 79.35037 C 288.2005 79.383445 287.78042 79.4 287.3602 79.4 L 280.32787 79.4 C 279.57077 79.4 278.81462 79.34626 278.06513 79.23919 L 270.11868 78.10399 C 269.63367 78.0347 269.1521 77.94317 268.6755 77.82969 L 262.71426 76.41035 C 261.56878 76.13762 260.4569 75.73927 259.39883 75.22253 L 253.11882 72.15556 C 252.63377 71.91867 252.16102 71.65739 251.70238 71.37272 L 247.49052 68.75846 C 246.89135 68.38656 246.31742 67.975456 245.7725 67.527835 L 241.3264 63.87568 C 241.1027 63.69193 240.88402 63.50214 240.67063 63.30652 L 236.86828 59.82104 C 236.417 59.407356 235.9898 58.96811 235.58885 58.505465 L 231.4701 53.753066 C 231.15072 53.38455 230.84836 53.00162 230.56395 52.605486 L 226.1343 46.43561 C 225.6394 45.746296 225.20013 45.018704 224.82064 44.25972 L 222.24418 39.10679 C 222.20858 39.0356 222.17352 38.96414 222.13899 38.892424 L 220.89078 36.3 C 220.04007 34.53313 219.68455 32.568594 219.8621 30.615642 L 220.0423 28.633386 C 220.0661 28.371524 219.87312 28.139945 219.61125 28.11614 C 219.44886 28.101376 219.2902 28.17075 219.19078 28.3 L 219.19078 28.3 C 218.52734 29.16248 217.74723 29.92856 216.87285 30.576246 L 212.97632 33.462567 C 212.85263 33.554184 212.72763 33.644012 212.60136 33.732022 L 207.9791 36.95359 C 206.79237 37.78071 205.49895 38.443076 204.1342 38.922582 L 199.52708 40.5413 C 199.0365 40.713665 198.55463 40.90984 198.08316 41.129127 L 191.23638 44.313676 C 190.54022 44.63747 189.82165 44.91074 189.08625 45.13136 L 178.21586 48.392476 C 178.19914 48.39749 178.18243 48.402536 178.16572 48.407607 L 167.19764 51.737205 C 167.05974 51.779067 166.92241 51.82279 166.7857 51.86836 L 153.86446 56.17544 C 153.81534 56.191813 153.76614 56.20795 153.71686 56.223845 L 142.34946 59.89075 C 141.71097 60.09671 141.08607 60.34263 140.47846 60.627044 L 132.5465 64.33988 C 132.17616 64.51323 131.8126 64.70071 131.45662 64.90192 L 125.5105 68.262765 C 124.25747 68.971 123.81583 70.560925 124.52406 71.81396 C 124.60118 71.9504 124.69045 72.0796 124.79078 72.2 L 125.65489 73.23693 C 126.40984 74.14287 127.06231 75.12949 127.60043 76.17882 L 130.67757 82.17924 C 130.75304 82.3264 130.83079 82.47239 130.91078 82.61715 L 134.86554 89.77337 C 134.94903 89.92445 135.03007 90.07687 135.10863 90.23057 L 139.21693 98.26856 C 139.466 98.75587 139.6899 99.25563 139.88776 99.76589 L 143.37053 108.74776 C 143.38403 108.78259 143.39765 108.81737 143.4114 108.8521 L 147.00772 117.93754 C 147.12973 118.24577 147.24213 118.55772 147.34476 118.87294 L 149.9666 126.92572 C 149.98272 126.97524 149.9986 127.02484 150.01424 127.07452 L 153.08629 136.83279 C 153.28908 137.47695 153.45089 138.1333 153.57073 138.79792 L 155.55605 149.80737 C 155.5792 149.93579 155.60079 150.06448 155.6208 150.19342 L 157.32666 161.1868 C 157.3694 161.46222 157.40494 161.73871 157.43323 162.01598 L 158.32065 170.7127 C 158.36738 171.17069 158.39433 171.63048 158.4014 172.0908 L 158.58565 184.06641 C 158.58907 184.28878 158.59713 184.51105 158.60981 184.73309 L 159.38019 198.21465 C 159.38725 198.33821 159.39575 198.4617 159.40567 198.58506 L 160.73924 215.15943 C 160.77359 215.5863 160.79078 216.0144 160.79078 216.44264 L 160.79078 228.89242 C 160.79078 229.09746 160.79472 229.30247 160.8026 229.50735 L 161.38295 244.5965 C 161.38817 244.73216 161.39166 244.8679 161.39343 245.00365 L 161.58559 259.7999 C 161.58905 260.0666 161.58584 260.33333 161.57597 260.59986 L 161.00174 276.104 C 160.99444 276.30132 160.99078 276.49875 160.99078 276.6962 L 160.99078 290.29243 C 160.99078 290.49746 160.98684 290.70247 160.97896 290.90736 L 160.39377 306.12236 C 160.39178 306.17412 160.38953 306.22588 160.38704 306.2776 L 159.59172 322.78055 C 159.5911 322.79352 159.59045 322.8065 159.5898 322.81945 L 158.7953 338.51062 C 158.79229 338.5702 158.78894 338.6298 158.78526 338.68933 L 157.59634 357.91007 C 157.59264 357.97003 157.58859 358.02996 157.5842 358.08987 L 155.80107 382.45942 C 155.79421 382.55314 155.78653 382.6468 155.77802 382.7404 L 153.99213 402.3852 C 153.99123 402.39507 153.99032 402.40494 153.9894 402.4148 L 152.21864 421.4997 C 152.20007 421.6999 152.17773 421.8997 152.15162 422.09903 L 150.19091 437.07175 C 150.0581 438.08594 149.78896 439.07756 149.39078 440.01973 L 149.39078 440.01973 C 148.9932 440.9605 148.74454 441.9574 148.65371 442.97465 L 147.89078 451.51973 C 147.38302 457.20676 151.34149 462.3251 156.97346 463.2638 Z" stroke="#7f8080" stroke-linecap="round" stroke-linejoin="round" stroke-width="1"/>
      <path d="M 68 177.44615 L 74.2 181.84615 L 82.4 185.84615 L 91 189.44615 L 100 193.24615 L 111 197.24615 L 120.4 200.04615 L 129.4 202.64615 L 138.4 205.24615 L 143.8 206.64615 L 149.4 207.64615 L 151.8 201.84615 L 154.4 196.44615 L 156.6 192.44615 L 159.2 189.04615 L 159.4 180.04615 L 158.8 169.04615 L 157 158.24615 L 155.4 147.84615 L 152.8 136.84614 L 150.4 127.24614 L 147.6 119.24614 L 144.4 109.84614 L 141.6 102.44614 L 138 94.84614 L 134 87.24614 L 130 79.84614 L 127.4 76.24614 L 123.8 70.44614 L 118.4 74.84614 L 113.6 79.64614 L 109 85.84614 L 104.6 92.04614 L 99.8 100.64614 L 95 110.04614 L 90.2 119.24614 L 86.6 127.84614 L 82.6 136.84614 L 79.4 145.04615 L 75.6 154.44615 L 72.8 162.44615 L 69.8 170.84615 Z" fill="url(#Obj_Gradient_3)"/>
      <path d="M 68 177.44615 L 74.2 181.84615 L 82.4 185.84615 L 91 189.44615 L 100 193.24615 L 111 197.24615 L 120.4 200.04615 L 129.4 202.64615 L 138.4 205.24615 L 143.8 206.64615 L 149.4 207.64615 L 151.8 201.84615 L 154.4 196.44615 L 156.6 192.44615 L 159.2 189.04615 L 159.4 180.04615 L 158.8 169.04615 L 157 158.24615 L 155.4 147.84615 L 152.8 136.84614 L 150.4 127.24614 L 147.6 119.24614 L 144.4 109.84614 L 141.6 102.44614 L 138 94.84614 L 134 87.24614 L 130 79.84614 L 127.4 76.24614 L 123.8 70.44614 L 118.4 74.84614 L 113.6 79.64614 L 109 85.84614 L 104.6 92.04614 L 99.8 100.64614 L 95 110.04614 L 90.2 119.24614 L 86.6 127.84614 L 82.6 136.84614 L 79.4 145.04615 L 75.6 154.44615 L 72.8 162.44615 L 69.8 170.84615 Z" stroke="#7f8080" stroke-linecap="round" stroke-linejoin="round" stroke-width="1"/>
      <path d="M 499.4053 176.50275 L 493.2053 180.90275 L 485.0053 184.90275 L 476.4053 188.50275 L 467.4053 192.30275 L 456.4053 196.30275 L 447.0053 199.10275 L 438.0053 201.70275 L 429.0053 204.30275 L 423.6053 205.70275 L 418.0053 206.70275 L 415.6053 200.90275 L 413.0053 195.50275 L 410.8053 191.50275 L 408.2053 188.10275 L 408.0053 179.10275 L 408.6053 168.10275 L 410.4053 157.30275 L 412.0053 146.90275 L 414.6053 135.90275 L 417.0053 126.30275 L 419.8053 118.30275 L 423.0053 108.90275 L 425.8053 101.50275 L 429.4053 93.90275 L 433.4053 86.30275 L 437.4053 78.90275 L 440.0053 75.30275 L 443.6053 69.50275 L 449.0053 73.90275 L 453.8053 78.70275 L 458.4053 84.90275 L 462.8053 91.10275 L 467.6053 99.70275 L 472.4053 109.10275 L 477.2053 118.30275 L 480.8053 126.90275 L 484.8053 135.90275 L 488.0053 144.10275 L 491.8053 153.50275 L 494.6053 161.50275 L 497.6053 169.90275 Z" fill="url(#Obj_Gradient_4)"/>
      <path d="M 499.4053 176.50275 L 493.2053 180.90275 L 485.0053 184.90275 L 476.4053 188.50275 L 467.4053 192.30275 L 456.4053 196.30275 L 447.0053 199.10275 L 438.0053 201.70275 L 429.0053 204.30275 L 423.6053 205.70275 L 418.0053 206.70275 L 415.6053 200.90275 L 413.0053 195.50275 L 410.8053 191.50275 L 408.2053 188.10275 L 408.0053 179.10275 L 408.6053 168.10275 L 410.4053 157.30275 L 412.0053 146.90275 L 414.6053 135.90275 L 417.0053 126.30275 L 419.8053 118.30275 L 423.0053 108.90275 L 425.8053 101.50275 L 429.4053 93.90275 L 433.4053 86.30275 L 437.4053 78.90275 L 440.0053 75.30275 L 443.6053 69.50275 L 449.0053 73.90275 L 453.8053 78.70275 L 458.4053 84.90275 L 462.8053 91.10275 L 467.6053 99.70275 L 472.4053 109.10275 L 477.2053 118.30275 L 480.8053 126.90275 L 484.8053 135.90275 L 488.0053 144.10275 L 491.8053 153.50275 L 494.6053 161.50275 L 497.6053 169.90275 Z" stroke="#7f8080" stroke-linecap="round" stroke-linejoin="round" stroke-width="1"/>
      <path d="M 68 177.44615 L 74.2 181.84615 L 82.4 185.84615 L 91 189.44615 L 100 193.24615 L 111 197.24615 L 120.4 200.04615 L 129.4 202.64615 L 138.4 205.24615 L 143.8 206.64615 L 149.4 207.64615 L 152.4 201.24615 L 148.6 200.44615 L 143.8 199.24615 L 138.2 198.04615 L 132.2 196.24615 L 127.6 194.84615 L 123.4 193.64615 L 118.8 191.64615 L 114.2 190.04615 L 109.4 188.04615 L 105.4 186.64615 L 100.2 184.44615 L 95.6 182.84615 L 90.8 180.64615 L 86 178.84615 L 82 176.84615 L 77.6 174.64615 L 73.2 172.44615 L 69.8 170.84615 Z" fill="url(#Obj_Gradient_5)"/>
      <path d="M 68 177.44615 L 74.2 181.84615 L 82.4 185.84615 L 91 189.44615 L 100 193.24615 L 111 197.24615 L 120.4 200.04615 L 129.4 202.64615 L 138.4 205.24615 L 143.8 206.64615 L 149.4 207.64615 L 152.4 201.24615 L 148.6 200.44615 L 143.8 199.24615 L 138.2 198.04615 L 132.2 196.24615 L 127.6 194.84615 L 123.4 193.64615 L 118.8 191.64615 L 114.2 190.04615 L 109.4 188.04615 L 105.4 186.64615 L 100.2 184.44615 L 95.6 182.84615 L 90.8 180.64615 L 86 178.84615 L 82 176.84615 L 77.6 174.64615 L 73.2 172.44615 L 69.8 170.84615 Z" stroke="#7f8080" stroke-linecap="round" stroke-linejoin="round" stroke-width="1"/>
      <path d="M 499.4053 176.50275 L 493.2053 180.90275 L 485.0053 184.90275 L 476.4053 188.50275 L 467.4053 192.30275 L 456.4053 196.30275 L 447.0053 199.10275 L 438.0053 201.70275 L 429.0053 204.30275 L 423.6053 205.70275 L 418.0053 206.70275 L 415.0053 200.30275 L 418.8053 199.50275 L 423.6053 198.30275 L 429.2053 197.10275 L 435.2053 195.30275 L 439.8053 193.90275 L 444.0053 192.70275 L 448.6053 190.70275 L 453.2053 189.10275 L 458.0053 187.10275 L 462.0053 185.70275 L 467.2053 183.50275 L 471.8053 181.90275 L 476.6053 179.70275 L 481.4053 177.90275 L 485.4053 175.90275 L 489.8053 173.70275 L 494.2053 171.50275 L 497.6053 169.90275 Z" fill="url(#Obj_Gradient_6)"/>
      <path d="M 499.4053 176.50275 L 493.2053 180.90275 L 485.0053 184.90275 L 476.4053 188.50275 L 467.4053 192.30275 L 456.4053 196.30275 L 447.0053 199.10275 L 438.0053 201.70275 L 429.0053 204.30275 L 423.6053 205.70275 L 418.0053 206.70275 L 415.0053 200.30275 L 418.8053 199.50275 L 423.6053 198.30275 L 429.2053 197.10275 L 435.2053 195.30275 L 439.8053 193.90275 L 444.0053 192.70275 L 448.6053 190.70275 L 453.2053 189.10275 L 458.0053 187.10275 L 462.0053 185.70275 L 467.2053 183.50275 L 471.8053 181.90275 L 476.6053 179.70275 L 481.4053 177.90275 L 485.4053 175.90275 L 489.8053 173.70275 L 494.2053 171.50275 L 497.6053 169.90275 Z" stroke="#7f8080" stroke-linecap="round" stroke-linejoin="round" stroke-width="1"/>
      <path d="M 218.57212 27.96379 L 213.84295 32.017363 C 212.6926 33.003375 211.44764 33.87331 210.12621 34.614485 L 207.59958 36.03165 C 206.1644 36.836623 205.5836 38.60575 206.2624 40.104735 L 207.28 42.35197 C 207.40158 42.620455 207.52831 42.88658 207.66012 43.150196 L 209.4624 46.754736 L 211.94938 51.72871 C 212.29117 52.4123 212.66683 53.078434 213.07495 53.724625 L 215.40134 57.40808 C 215.84172 58.105345 216.31928 58.77842 216.83195 59.42439 L 220.24264 63.72185 C 220.7887 64.409875 221.3737 65.06606 221.99482 65.68717 L 226.66087 70.35321 C 227.06175 70.75409 227.4773 71.14001 227.9067 71.51018 L 232.47023 75.44426 C 232.8649 75.78448 233.271 76.11119 233.68785 76.42383 L 237.6628 79.40503 C 238.3287 79.90447 239.02123 80.36738 239.73733 80.79174 L 243.8704 83.24096 C 243.9984 83.31681 244.12712 83.39141 244.25656 83.46477 L 248.9541 86.12671 C 249.6924 86.54507 250.45328 86.92226 251.23325 87.25653 L 254.78307 88.77788 C 255.36903 89.02901 255.96518 89.25567 256.56997 89.45726 L 261.58808 91.12997 C 262.83532 91.54571 264.11592 91.85376 265.4158 92.05071 L 269.51464 92.67174 C 269.87976 92.72706 270.24615 92.77358 270.6135 92.81126 L 277.4946 93.51701 C 277.73978 93.54216 277.98534 93.56336 278.2312 93.58062 L 282.75835 93.89831 C 283.2942 93.93591 283.83122 93.95473 284.3684 93.95473 L 287.63046 93.95474 C 288.58416 93.95474 289.53693 93.89542 290.48327 93.77713 L 294.472 93.27854 C 295.13195 93.19604 295.78802 93.08496 296.43835 92.9456 L 302.5204 91.64231 C 303.41426 91.45076 304.29592 91.2061 305.16068 90.90961 L 309.66952 89.36372 C 310.46417 89.09127 311.2433 88.77549 312.0034 88.41779 L 316.83677 86.14326 C 317.38697 85.88435 317.9267 85.60371 318.45464 85.30202 L 322.2225 83.14896 C 322.9153 82.75308 323.587 82.321415 324.23494 81.85572 L 328.91106 78.49475 C 329.41175 78.13489 329.89776 77.75503 330.3679 77.35611 L 335.68877 72.841445 C 336.0711 72.51706 336.4427 72.18026 336.803 71.83158 L 341.5022 67.28396 C 342.1418 66.665 342.7449 66.009435 343.30852 65.32058 L 347.1018 60.68434 C 347.6085 60.065026 348.08257 59.41969 348.522 58.750964 L 352.1392 53.246564 C 352.35462 52.91873 352.56163 52.58544 352.76 52.24702 L 355.2831 47.942924 C 355.66906 47.28454 356.022 46.607354 356.34062 45.91388 L 358.4593 41.30261 C 358.9922 40.14285 359.36334 38.915436 359.5624 37.654735 L 359.5624 37.654735 C 359.7407 36.525474 359.1614 35.412026 358.1343 34.909898 L 352.8409 32.321995 C 351.5264 31.67937 350.29183 30.88486 349.1624 29.954735 L 348.7564 29.620375 C 347.91205 28.925043 347.28864 27.998738 346.9624 26.954735 L 346.9624 26.954735 C 346.91573 26.80542 346.75686 26.7222 346.60754 26.768862 C 346.49247 26.804823 346.41277 26.909685 346.4089 27.030188 L 346.29968 30.45311 C 346.20894 33.296186 345.5916 36.097764 344.479 38.715667 L 343.60206 40.779043 C 343.0435 42.093314 342.36374 43.35271 341.5716 44.54091 L 337.88582 50.069584 C 337.1383 51.19085 336.2937 52.24425 335.36175 53.217624 L 329.0667 59.79247 C 328.1986 60.699125 327.25777 61.533196 326.2536 62.28633 L 317.8787 68.567505 C 317.00228 69.22482 316.08 69.81867 315.11896 70.34454 L 307.93376 74.27606 C 306.62263 74.99347 305.2447 75.58137 303.8195 76.03143 L 297.1466 78.13867 C 295.42973 78.68084 293.65514 79.01954 291.85927 79.147815 L 284.9728 79.6397 C 283.9005 79.7163 282.82417 79.71762 281.7517 79.64365 L 273.31543 79.06184 C 272.28125 78.99052 271.25308 78.84936 270.23795 78.63933 L 263.10274 77.16308 C 261.1508 76.75923 259.2596 76.10335 257.47676 75.21192 L 252.81735 72.882215 C 251.5832 72.26515 250.4071 71.53827 249.30326 70.71039 L 243.6213 66.44892 C 243.18217 66.11957 242.75496 65.7746 242.3405 65.41468 L 236.58533 60.41676 C 235.77104 59.70962 235.0075 58.94608 234.30036 58.131794 L 229.89513 53.05911 C 229.14103 52.19075 228.45312 51.26705 227.8372 50.295783 L 224.1035 44.40802 C 223.74293 43.83944 223.4075 43.255295 223.0982 42.657283 L 221.47781 39.52456 C 220.86867 38.34688 220.3625 37.118736 219.96497 35.853845 L 218.68473 31.780357 C 218.46995 31.09698 218.28722 30.403945 218.13713 29.703515 L 217.9117 28.651568 C 217.82664 28.254558 218.053 27.856906 218.4378 27.727367 L 218.4378 27.727367 C 218.5103 27.702963 218.58884 27.741948 218.61325 27.814442 C 218.63126 27.867954 218.615 27.927043 218.57212 27.96379 Z" fill="white"/>
      <path d="M 218.57212 27.96379 L 213.84295 32.017363 C 212.6926 33.003375 211.44764 33.87331 210.12621 34.614485 L 207.59958 36.03165 C 206.1644 36.836623 205.5836 38.60575 206.2624 40.104735 L 207.28 42.35197 C 207.40158 42.620455 207.52831 42.88658 207.66012 43.150196 L 209.4624 46.754736 L 211.94938 51.72871 C 212.29117 52.4123 212.66683 53.078434 213.07495 53.724625 L 215.40134 57.40808 C 215.84172 58.105345 216.31928 58.77842 216.83195 59.42439 L 220.24264 63.72185 C 220.7887 64.409875 221.3737 65.06606 221.99482 65.68717 L 226.66087 70.35321 C 227.06175 70.75409 227.4773 71.14001 227.9067 71.51018 L 232.47023 75.44426 C 232.8649 75.78448 233.271 76.11119 233.68785 76.42383 L 237.6628 79.40503 C 238.3287 79.90447 239.02123 80.36738 239.73733 80.79174 L 243.8704 83.24096 C 243.9984 83.31681 244.12712 83.39141 244.25656 83.46477 L 248.9541 86.12671 C 249.6924 86.54507 250.45328 86.92226 251.23325 87.25653 L 254.78307 88.77788 C 255.36903 89.02901 255.96518 89.25567 256.56997 89.45726 L 261.58808 91.12997 C 262.83532 91.54571 264.11592 91.85376 265.4158 92.05071 L 269.51464 92.67174 C 269.87976 92.72706 270.24615 92.77358 270.6135 92.81126 L 277.4946 93.51701 C 277.73978 93.54216 277.98534 93.56336 278.2312 93.58062 L 282.75835 93.89831 C 283.2942 93.93591 283.83122 93.95473 284.3684 93.95473 L 287.63046 93.95474 C 288.58416 93.95474 289.53693 93.89542 290.48327 93.77713 L 294.472 93.27854 C 295.13195 93.19604 295.78802 93.08496 296.43835 92.9456 L 302.5204 91.64231 C 303.41426 91.45076 304.29592 91.2061 305.16068 90.90961 L 309.66952 89.36372 C 310.46417 89.09127 311.2433 88.77549 312.0034 88.41779 L 316.83677 86.14326 C 317.38697 85.88435 317.9267 85.60371 318.45464 85.30202 L 322.2225 83.14896 C 322.9153 82.75308 323.587 82.321415 324.23494 81.85572 L 328.91106 78.49475 C 329.41175 78.13489 329.89776 77.75503 330.3679 77.35611 L 335.68877 72.841445 C 336.0711 72.51706 336.4427 72.18026 336.803 71.83158 L 341.5022 67.28396 C 342.1418 66.665 342.7449 66.009435 343.30852 65.32058 L 347.1018 60.68434 C 347.6085 60.065026 348.08257 59.41969 348.522 58.750964 L 352.1392 53.246564 C 352.35462 52.91873 352.56163 52.58544 352.76 52.24702 L 355.2831 47.942924 C 355.66906 47.28454 356.022 46.607354 356.34062 45.91388 L 358.4593 41.30261 C 358.9922 40.14285 359.36334 38.915436 359.5624 37.654735 L 359.5624 37.654735 C 359.7407 36.525474 359.1614 35.412026 358.1343 34.909898 L 352.8409 32.321995 C 351.5264 31.67937 350.29183 30.88486 349.1624 29.954735 L 348.7564 29.620375 C 347.91205 28.925043 347.28864 27.998738 346.9624 26.954735 L 346.9624 26.954735 C 346.91573 26.80542 346.75686 26.7222 346.60754 26.768862 C 346.49247 26.804823 346.41277 26.909685 346.4089 27.030188 L 346.29968 30.45311 C 346.20894 33.296186 345.5916 36.097764 344.479 38.715667 L 343.60206 40.779043 C 343.0435 42.093314 342.36374 43.35271 341.5716 44.54091 L 337.88582 50.069584 C 337.1383 51.19085 336.2937 52.24425 335.36175 53.217624 L 329.0667 59.79247 C 328.1986 60.699125 327.25777 61.533196 326.2536 62.28633 L 317.8787 68.567505 C 317.00228 69.22482 316.08 69.81867 315.11896 70.34454 L 307.93376 74.27606 C 306.62263 74.99347 305.2447 75.58137 303.8195 76.03143 L 297.1466 78.13867 C 295.42973 78.68084 293.65514 79.01954 291.85927 79.147815 L 284.9728 79.6397 C 283.9005 79.7163 282.82417 79.71762 281.7517 79.64365 L 273.31543 79.06184 C 272.28125 78.99052 271.25308 78.84936 270.23795 78.63933 L 263.10274 77.16308 C 261.1508 76.75923 259.2596 76.10335 257.47676 75.21192 L 252.81735 72.882215 C 251.5832 72.26515 250.4071 71.53827 249.30326 70.71039 L 243.6213 66.44892 C 243.18217 66.11957 242.75496 65.7746 242.3405 65.41468 L 236.58533 60.41676 C 235.77104 59.70962 235.0075 58.94608 234.30036 58.131794 L 229.89513 53.05911 C 229.14103 52.19075 228.45312 51.26705 227.8372 50.295783 L 224.1035 44.40802 C 223.74293 43.83944 223.4075 43.255295 223.0982 42.657283 L 221.47781 39.52456 C 220.86867 38.34688 220.3625 37.118736 219.96497 35.853845 L 218.68473 31.780357 C 218.46995 31.09698 218.28722 30.403945 218.13713 29.703515 L 217.9117 28.651568 C 217.82664 28.254558 218.053 27.856906 218.4378 27.727367 L 218.4378 27.727367 C 218.5103 27.702963 218.58884 27.741948 218.61325 27.814442 C 218.63126 27.867954 218.615 27.927043 218.57212 27.96379 Z" stroke="#7f8080" stroke-linecap="round" stroke-linejoin="round" stroke-width="1"/>
      <path d="M 218.05925 27.755892 L 223.45925 27.155892 L 230.25925 30.555892 L 235.25925 32.355892 L 243.65925 34.155892 L 252.05925 35.155892 L 260.05925 36.155892 L 267.65925 36.355892 L 276.25925 36.755892 L 287.85925 36.555892 L 296.25925 36.155892 L 305.65925 35.555892 L 314.05925 34.755892 L 323.25925 33.355892 L 331.45925 31.155892 L 337.25925 29.355892 L 342.85925 26.755892 L 345.65925 27.955892 L 346.05925 33.555892 L 343.25925 41.555893 L 337.85925 44.35589 L 327.25925 47.55589 L 315.85925 49.95589 L 304.65925 50.75589 L 292.25925 51.75589 L 281.85925 51.75589 L 272.45925 51.75589 L 260.85925 51.15589 L 249.65925 50.35589 L 239.05925 48.15589 L 230.45925 46.15589 L 224.25925 43.35589 L 222.25925 41.755893 L 219.05925 34.155892 Z" fill="white"/>
      <path d="M 218.05925 27.755892 L 223.45925 27.155892 L 230.25925 30.555892 L 235.25925 32.355892 L 243.65925 34.155892 L 252.05925 35.155892 L 260.05925 36.155892 L 267.65925 36.355892 L 276.25925 36.755892 L 287.85925 36.555892 L 296.25925 36.155892 L 305.65925 35.555892 L 314.05925 34.755892 L 323.25925 33.355892 L 331.45925 31.155892 L 337.25925 29.355892 L 342.85925 26.755892 L 345.65925 27.955892 L 346.05925 33.555892 L 343.25925 41.555893 L 337.85925 44.35589 L 327.25925 47.55589 L 315.85925 49.95589 L 304.65925 50.75589 L 292.25925 51.75589 L 281.85925 51.75589 L 272.45925 51.75589 L 260.85925 51.15589 L 249.65925 50.35589 L 239.05925 48.15589 L 230.45925 46.15589 L 224.25925 43.35589 L 222.25925 41.755893 L 219.05925 34.155892 Z" stroke="#7f8080" stroke-linecap="round" stroke-linejoin="round" stroke-width="1"/>
      <path d="M 147.81321 453.2 L 147.81321 453.2 C 147.74753 453.7255 147.81036 454.25905 147.9963 454.7549 L 148.6473 456.4909 C 148.82406 456.96227 149.05115 457.4132 149.32462 457.8358 L 150.29243 459.33153 C 150.8334 460.16756 151.5465 460.87855 152.38412 461.417 L 153.46217 462.11005 C 153.76243 462.3031 154.077 462.47285 154.40316 462.6179 L 155.72001 463.2035 C 156.31654 463.46876 156.94725 463.6493 157.5938 463.7398 L 166.60421 465.00126 C 166.6142 465.00265 166.6242 465.00403 166.6342 465.0054 L 178.3502 466.594 C 178.3962 466.60024 178.44226 466.606 178.48838 466.61134 L 188.77131 467.79783 C 188.80324 467.8015 188.8352 467.805 188.86716 467.8082 L 202.57723 469.1991 C 202.60521 469.20193 202.6332 469.2046 202.66123 469.2071 L 213.76653 470.19865 C 213.80164 470.2018 213.83679 470.20466 213.87195 470.20726 L 224.55848 470.99886 C 224.59896 471.00185 224.63947 471.0045 224.68 471.0068 L 235.18798 471.6016 C 235.2088 471.60276 235.2296 471.60404 235.25042 471.6054 L 247.2932 472.3951 C 247.3772 472.4006 247.4613 472.4046 247.54543 472.40707 L 260.99256 472.80257 C 261.01032 472.8031 261.0281 472.8037 261.04585 472.80434 L 271.6897 473.19856 C 271.77603 473.20176 271.8624 473.20335 271.9488 473.20335 L 282.5578 473.20335 C 282.59874 473.20335 282.63967 473.2037 282.6806 473.20443 L 293.76702 473.39893 C 293.9351 473.4019 294.1032 473.3988 294.27106 473.3896 L 304.8923 472.8103 C 304.9769 472.80566 305.06157 472.8026 305.1463 472.80104 L 315.91085 472.6053 C 315.9831 472.604 316.0553 472.6016 316.12745 472.59803 L 328.14607 472.00695 C 328.19483 472.00455 328.24355 472.00165 328.29225 471.99823 L 339.5323 471.20945 C 339.59023 471.2054 339.6481 471.2006 339.70594 471.1951 L 352.1165 470.01313 C 352.18497 470.0066 352.25352 470.0011 352.32214 469.9966 L 364.25416 469.2142 C 364.36418 469.20696 364.474 469.19715 364.58355 469.18475 L 374.9959 468.006 C 375.01144 468.00423 375.02697 468.0024 375.0425 468.00056 L 384.9902 466.80683 C 385.00954 466.8045 385.02886 466.8021 385.0482 466.79963 L 398.88394 465.0221 C 398.98115 465.0096 399.0781 464.9951 399.1747 464.9785 L 405.7282 463.85506 C 405.92915 463.8206 406.13153 463.79495 406.33473 463.77817 L 409.56706 463.5112 C 410.4563 463.43775 411.3233 463.19497 412.12135 462.79594 L 413.60765 462.0528 C 414.20824 461.7525 414.7625 461.36735 415.2534 460.9092 L 416.5885 459.6631 C 417.1953 459.0967 417.65073 458.3875 417.9132 457.6 L 418.20805 456.7155 C 418.2781 456.5053 418.33817 456.29187 418.388 456.07595 L 418.8577 454.04056 C 418.89293 453.8879 418.8595 453.7275 418.7662 453.6017 L 418.7662 453.6017 C 418.67587 453.4798 418.52523 453.4183 418.3754 453.44214 L 409.89555 454.7912 C 409.84466 454.7993 409.79385 454.80796 409.74315 454.8172 L 396.7584 457.17805 C 396.6656 457.1949 396.5725 457.2099 396.4791 457.223 L 385.24943 458.7991 C 385.2293 458.80194 385.20914 458.80486 385.189 458.80786 L 372.06643 460.76645 C 371.90167 460.79105 371.73608 460.80975 371.57 460.8225 L 358.84517 461.80136 C 358.82786 461.8027 358.81055 461.80396 358.79323 461.80516 L 344.4531 462.801 C 344.4305 462.80257 344.4079 462.80403 344.3853 462.8054 L 331.08205 463.5996 C 331.04016 463.6021 330.99824 463.6042 330.9563 463.606 L 316.76485 464.1973 C 316.66776 464.20133 316.5706 464.20335 316.47344 464.20335 L 303.2192 464.20335 L 290.67753 464.20335 C 290.63865 464.20335 290.59976 464.2037 290.5609 464.2043 L 278.8025 464.4003 C 278.68032 464.40234 278.55812 464.40117 278.436 464.3968 L 267.6024 464.0099 C 267.4803 464.00554 267.3581 464.0044 267.2359 464.0064 L 255.52127 464.20165 C 255.45323 464.2028 255.38518 464.20293 255.31713 464.2021 L 239.61484 464.0058 C 239.48444 464.00417 239.3541 463.9989 239.224 463.99 L 224.91423 463.00986 C 224.85088 463.0055 224.7876 463.0003 224.7244 462.99426 L 210.23339 461.6047 C 210.22393 461.6038 210.21448 461.6029 210.20503 461.60194 L 196.393 460.22073 C 196.27715 460.20915 196.16162 460.1947 196.0465 460.17733 L 181.73735 458.02116 C 181.6586 458.0093 181.57964 457.99877 181.50052 457.9896 L 167.98059 456.42207 C 167.87301 456.4096 167.76574 456.3946 167.65886 456.3772 L 158.26677 454.8438 C 158.10178 454.81684 157.9378 454.784 157.77516 454.7453 L 148.69756 452.58654 C 148.30925 452.4942 147.91959 452.7341 147.82724 453.12244 C 147.82116 453.148 147.81647 453.1739 147.81321 453.2 Z" fill="url(#Obj_Gradient_7)"/>
      <path d="M 147.81321 453.2 L 147.81321 453.2 C 147.74753 453.7255 147.81036 454.25905 147.9963 454.7549 L 148.6473 456.4909 C 148.82406 456.96227 149.05115 457.4132 149.32462 457.8358 L 150.29243 459.33153 C 150.8334 460.16756 151.5465 460.87855 152.38412 461.417 L 153.46217 462.11005 C 153.76243 462.3031 154.077 462.47285 154.40316 462.6179 L 155.72001 463.2035 C 156.31654 463.46876 156.94725 463.6493 157.5938 463.7398 L 166.60421 465.00126 C 166.6142 465.00265 166.6242 465.00403 166.6342 465.0054 L 178.3502 466.594 C 178.3962 466.60024 178.44226 466.606 178.48838 466.61134 L 188.77131 467.79783 C 188.80324 467.8015 188.8352 467.805 188.86716 467.8082 L 202.57723 469.1991 C 202.60521 469.20193 202.6332 469.2046 202.66123 469.2071 L 213.76653 470.19865 C 213.80164 470.2018 213.83679 470.20466 213.87195 470.20726 L 224.55848 470.99886 C 224.59896 471.00185 224.63947 471.0045 224.68 471.0068 L 235.18798 471.6016 C 235.2088 471.60276 235.2296 471.60404 235.25042 471.6054 L 247.2932 472.3951 C 247.3772 472.4006 247.4613 472.4046 247.54543 472.40707 L 260.99256 472.80257 C 261.01032 472.8031 261.0281 472.8037 261.04585 472.80434 L 271.6897 473.19856 C 271.77603 473.20176 271.8624 473.20335 271.9488 473.20335 L 282.5578 473.20335 C 282.59874 473.20335 282.63967 473.2037 282.6806 473.20443 L 293.76702 473.39893 C 293.9351 473.4019 294.1032 473.3988 294.27106 473.3896 L 304.8923 472.8103 C 304.9769 472.80566 305.06157 472.8026 305.1463 472.80104 L 315.91085 472.6053 C 315.9831 472.604 316.0553 472.6016 316.12745 472.59803 L 328.14607 472.00695 C 328.19483 472.00455 328.24355 472.00165 328.29225 471.99823 L 339.5323 471.20945 C 339.59023 471.2054 339.6481 471.2006 339.70594 471.1951 L 352.1165 470.01313 C 352.18497 470.0066 352.25352 470.0011 352.32214 469.9966 L 364.25416 469.2142 C 364.36418 469.20696 364.474 469.19715 364.58355 469.18475 L 374.9959 468.006 C 375.01144 468.00423 375.02697 468.0024 375.0425 468.00056 L 384.9902 466.80683 C 385.00954 466.8045 385.02886 466.8021 385.0482 466.79963 L 398.88394 465.0221 C 398.98115 465.0096 399.0781 464.9951 399.1747 464.9785 L 405.7282 463.85506 C 405.92915 463.8206 406.13153 463.79495 406.33473 463.77817 L 409.56706 463.5112 C 410.4563 463.43775 411.3233 463.19497 412.12135 462.79594 L 413.60765 462.0528 C 414.20824 461.7525 414.7625 461.36735 415.2534 460.9092 L 416.5885 459.6631 C 417.1953 459.0967 417.65073 458.3875 417.9132 457.6 L 418.20805 456.7155 C 418.2781 456.5053 418.33817 456.29187 418.388 456.07595 L 418.8577 454.04056 C 418.89293 453.8879 418.8595 453.7275 418.7662 453.6017 L 418.7662 453.6017 C 418.67587 453.4798 418.52523 453.4183 418.3754 453.44214 L 409.89555 454.7912 C 409.84466 454.7993 409.79385 454.80796 409.74315 454.8172 L 396.7584 457.17805 C 396.6656 457.1949 396.5725 457.2099 396.4791 457.223 L 385.24943 458.7991 C 385.2293 458.80194 385.20914 458.80486 385.189 458.80786 L 372.06643 460.76645 C 371.90167 460.79105 371.73608 460.80975 371.57 460.8225 L 358.84517 461.80136 C 358.82786 461.8027 358.81055 461.80396 358.79323 461.80516 L 344.4531 462.801 C 344.4305 462.80257 344.4079 462.80403 344.3853 462.8054 L 331.08205 463.5996 C 331.04016 463.6021 330.99824 463.6042 330.9563 463.606 L 316.76485 464.1973 C 316.66776 464.20133 316.5706 464.20335 316.47344 464.20335 L 303.2192 464.20335 L 290.67753 464.20335 C 290.63865 464.20335 290.59976 464.2037 290.5609 464.2043 L 278.8025 464.4003 C 278.68032 464.40234 278.55812 464.40117 278.436 464.3968 L 267.6024 464.0099 C 267.4803 464.00554 267.3581 464.0044 267.2359 464.0064 L 255.52127 464.20165 C 255.45323 464.2028 255.38518 464.20293 255.31713 464.2021 L 239.61484 464.0058 C 239.48444 464.00417 239.3541 463.9989 239.224 463.99 L 224.91423 463.00986 C 224.85088 463.0055 224.7876 463.0003 224.7244 462.99426 L 210.23339 461.6047 C 210.22393 461.6038 210.21448 461.6029 210.20503 461.60194 L 196.393 460.22073 C 196.27715 460.20915 196.16162 460.1947 196.0465 460.17733 L 181.73735 458.02116 C 181.6586 458.0093 181.57964 457.99877 181.50052 457.9896 L 167.98059 456.42207 C 167.87301 456.4096 167.76574 456.3946 167.65886 456.3772 L 158.26677 454.8438 C 158.10178 454.81684 157.9378 454.784 157.77516 454.7453 L 148.69756 452.58654 C 148.30925 452.4942 147.91959 452.7341 147.82724 453.12244 C 147.82116 453.148 147.81647 453.1739 147.81321 453.2 Z" stroke="#7f8080" stroke-linecap="round" stroke-linejoin="round" stroke-width="1"/>
    </g>
  </g>
</svg>
