<?xml version="1.0" encoding="UTF-8" standalone="no"?>
<!DOCTYPE svg PUBLIC "-//W3C//DTD SVG 1.1//EN" "http://www.w3.org/Graphics/SVG/1.1/DTD/svg11.dtd">
<svg xmlns="http://www.w3.org/2000/svg" xmlns:xl="http://www.w3.org/1999/xlink" version="1.1" viewBox="7.5 -10.5 432.4053 448.4" width="432.4053pt" height="448.4pt" xmlns:dc="http://purl.org/dc/elements/1.1/">
  <metadata> Produced by OmniGraffle 7.6.1 
    <dc:date>2019-05-26 04:46:29 +0000</dc:date>
  </metadata>
  <defs>
    <radialGradient cx="0" cy="0" r="1" id="Gradient" gradientUnits="userSpaceOnUse">
      <stop offset="0" stop-color="#cbcbcb"/>
      <stop offset="1" stop-color="#0f74e9"/>
    </radialGradient>
    <radialGradient id="Obj_Gradient" xl:href="#Gradient" gradientTransform="translate(222.75925 17.4) scale(70.26272)"/>
    <linearGradient x1="0" x2="1" id="Gradient_2" gradientUnits="userSpaceOnUse">
      <stop offset="0" stop-color="#00005c"/>
      <stop offset="1" stop-color="#22268f"/>
    </linearGradient>
    <linearGradient id="Obj_Gradient_2" xl:href="#Gradient_2" gradientTransform="translate(223.70264 -8.718295) rotate(90) scale(446.1183)"/>
    <linearGradient x1="0" x2="1" id="Gradient_3" gradientUnits="userSpaceOnUse">
      <stop offset="0" stop-color="#000079"/>
      <stop offset="1" stop-color="#333"/>
    </linearGradient>
    <linearGradient id="Obj_Gradient_3" xl:href="#Gradient_3" gradientTransform="translate(53.7 34.446144) rotate(90) scale(137.2)"/>
    <linearGradient id="Obj_Gradient_4" xl:href="#Gradient_3" gradientTransform="translate(393.7053 33.502748) rotate(90) scale(137.2)"/>
    <radialGradient cx="0" cy="0" r="1" id="Gradient_4" gradientUnits="userSpaceOnUse">
      <stop offset="0" stop-color="#3656ff"/>
      <stop offset="1" stop-color="#272486"/>
    </radialGradient>
    <radialGradient id="Obj_Gradient_5" xl:href="#Gradient_4" gradientTransform="translate(223.32968 426.9834) scale(135.94141)"/>
  </defs>
  <g stroke="none" stroke-opacity="1" stroke-dasharray="none" fill="none" fill-opacity="1">
    <title>everton</title>
    <g>
      <title>Capa 1</title>
      <path d="M 161.00565 -9.409554 L 169.1711 -6.291836 C 170.0291 -5.964239 170.90594 -5.688327 171.79692 -5.465581 L 185.5141 -2.0362866 C 186.67576 -1.7458722 187.85832 -1.5466171 189.051 -1.4403384 L 206.57715 .12139747 C 207.165 .17377985 207.75464 .20351676 208.34478 .21054217 L 223.8237 .394815 C 224.11404 .39827146 224.40442 .39622946 224.69469 .3886901 L 239.118 .014058585 C 239.47878 .0046875924 239.8393 -.013173956 240.19924 -.03951122 L 254.57053 -1.0910692 C 255.56197 -1.1636133 256.54766 -1.3003576 257.5214 -1.5004417 L 269.09436 -3.878448 C 270.13637 -4.092558 271.16226 -4.3787 272.16465 -4.734814 L 283.91664 -8.909864 C 285.007 -9.297233 286.2102 -8.766458 286.65925 -7.7 L 286.65925 -7.7 C 287.1814 -6.459894 287.33338 -5.095146 287.09685 -3.7705505 L 286.91637 -2.759862 C 286.6126 -1.0587061 286.11806 .60279556 285.44214 2.193188 L 283.89892 5.8243085 C 283.34035 7.13858 282.6606 8.397975 281.86846 9.586178 L 278.18268 15.11485 C 277.43517 16.236114 276.59057 17.289513 275.6586 18.26289 L 269.36354 24.837737 C 268.49547 25.74439 267.55463 26.578462 266.55046 27.331593 L 258.17555 33.61277 C 257.29914 34.270084 256.37688 34.86394 255.41582 35.389803 L 248.23062 39.32133 C 246.9195 40.038735 245.54156 40.62664 244.11638 41.0767 L 237.44347 43.18393 C 235.7266 43.726103 233.952 44.064805 232.15613 44.19308 L 225.26968 44.68497 C 224.19738 44.761563 223.12103 44.76288 222.04854 44.68892 L 213.61229 44.107107 C 212.5781 44.035784 211.54994 43.894627 210.5348 43.6846 L 203.3996 42.20835 C 201.44765 41.804497 199.55647 41.148614 197.77362 40.257185 L 193.1142 37.92748 C 191.88007 37.310413 190.70397 36.58354 189.60012 35.755655 L 183.91816 31.494187 C 183.47903 31.164835 183.05182 30.819868 182.63737 30.45995 L 176.88219 25.462028 C 176.0679 24.754885 175.30436 23.991345 174.59722 23.17706 L 170.192 18.104376 C 169.4379 17.236015 168.74998 16.312315 168.13406 15.34105 L 164.40036 9.453288 C 164.0398 8.884704 163.70437 8.300561 163.39505 7.702549 L 161.77468 4.5698265 C 161.16553 3.392148 160.65936 2.1640016 160.26183 .8991111 L 158.98159 -3.1743767 C 158.76681 -3.8577525 158.58408 -4.550789 158.43399 -5.2512194 L 158.35925 -5.6 C 158.16458 -6.508426 158.27185 -7.455569 158.66473 -8.297457 L 158.75925 -8.5 C 159.15372 -9.345307 160.1342 -9.742293 161.00565 -9.409554 Z" fill="url(#Obj_Gradient)"/>
      <path d="M 161.00565 -9.409554 L 169.1711 -6.291836 C 170.0291 -5.964239 170.90594 -5.688327 171.79692 -5.465581 L 185.5141 -2.0362866 C 186.67576 -1.7458722 187.85832 -1.5466171 189.051 -1.4403384 L 206.57715 .12139747 C 207.165 .17377985 207.75464 .20351676 208.34478 .21054217 L 223.8237 .394815 C 224.11404 .39827146 224.40442 .39622946 224.69469 .3886901 L 239.118 .014058585 C 239.47878 .0046875924 239.8393 -.013173956 240.19924 -.03951122 L 254.57053 -1.0910692 C 255.56197 -1.1636133 256.54766 -1.3003576 257.5214 -1.5004417 L 269.09436 -3.878448 C 270.13637 -4.092558 271.16226 -4.3787 272.16465 -4.734814 L 283.91664 -8.909864 C 285.007 -9.297233 286.2102 -8.766458 286.65925 -7.7 L 286.65925 -7.7 C 287.1814 -6.459894 287.33338 -5.095146 287.09685 -3.7705505 L 286.91637 -2.759862 C 286.6126 -1.0587061 286.11806 .60279556 285.44214 2.193188 L 283.89892 5.8243085 C 283.34035 7.13858 282.6606 8.397975 281.86846 9.586178 L 278.18268 15.11485 C 277.43517 16.236114 276.59057 17.289513 275.6586 18.26289 L 269.36354 24.837737 C 268.49547 25.74439 267.55463 26.578462 266.55046 27.331593 L 258.17555 33.61277 C 257.29914 34.270084 256.37688 34.86394 255.41582 35.389803 L 248.23062 39.32133 C 246.9195 40.038735 245.54156 40.62664 244.11638 41.0767 L 237.44347 43.18393 C 235.7266 43.726103 233.952 44.064805 232.15613 44.19308 L 225.26968 44.68497 C 224.19738 44.761563 223.12103 44.76288 222.04854 44.68892 L 213.61229 44.107107 C 212.5781 44.035784 211.54994 43.894627 210.5348 43.6846 L 203.3996 42.20835 C 201.44765 41.804497 199.55647 41.148614 197.77362 40.257185 L 193.1142 37.92748 C 191.88007 37.310413 190.70397 36.58354 189.60012 35.755655 L 183.91816 31.494187 C 183.47903 31.164835 183.05182 30.819868 182.63737 30.45995 L 176.88219 25.462028 C 176.0679 24.754885 175.30436 23.991345 174.59722 23.17706 L 170.192 18.104376 C 169.4379 17.236015 168.74998 16.312315 168.13406 15.34105 L 164.40036 9.453288 C 164.0398 8.884704 163.70437 8.300561 163.39505 7.702549 L 161.77468 4.5698265 C 161.16553 3.392148 160.65936 2.1640016 160.26183 .8991111 L 158.98159 -3.1743767 C 158.76681 -3.8577525 158.58408 -4.550789 158.43399 -5.2512194 L 158.35925 -5.6 C 158.16458 -6.508426 158.27185 -7.455569 158.66473 -8.297457 L 158.75925 -8.5 C 159.15372 -9.345307 160.1342 -9.742293 161.00565 -9.409554 Z" stroke="#7f8080" stroke-linecap="round" stroke-linejoin="round" stroke-width="1"/>
      <path d="M 96.97346 427.2638 L 110.7157 429.55416 C 110.89907 429.5847 111.08297 429.6121 111.2673 429.63624 L 139.62094 433.35154 C 139.86747 433.38385 140.11472 433.4104 140.36248 433.4312 L 170.60537 435.9677 C 170.86227 435.98923 171.11966 436.00456 171.3773 436.01367 L 210.30822 437.39 C 210.49658 437.3967 210.68504 437.4 210.87352 437.4 L 242.34084 437.4 C 242.50746 437.4 242.67407 437.3974 242.8406 437.3922 L 267.8754 436.60986 C 268.08563 436.6033 268.29573 436.5926 268.50555 436.5777 L 290.5533 435.0168 C 290.7116 435.0056 290.86975 434.99205 291.02766 434.97614 L 316.28815 432.4305 C 316.4899 432.4102 316.69122 432.386 316.89204 432.35803 L 340.68474 429.04265 C 340.88875 429.0142 341.0922 428.98186 341.29496 428.9456 L 350.4908 427.3 C 355.8179 426.34674 359.46876 421.3931 358.80234 416.02255 L 356.59475 398.232 C 356.5921 398.21066 356.5895 398.18934 356.58695 398.168 L 353.02312 368.4695 C 353.00157 368.28985 352.98306 368.10985 352.9676 367.9296 L 350.6054 340.37037 C 350.59565 340.2568 350.58713 340.14312 350.57983 340.02936 L 349.1932 318.43772 C 349.1916 318.41258 349.1899 318.38744 349.1882 318.3623 L 347.59603 295.276 C 347.59253 295.22533 347.5893 295.17466 347.58627 295.12398 L 346.4099 275.3218 C 346.39716 275.1073 346.38874 274.89255 346.38465 274.6777 L 345.99236 254.08285 C 345.9913 254.02762 345.98997 253.9724 345.98835 253.91718 L 345.39322 233.68283 C 345.3916 233.6276 345.39026 233.5724 345.3892 233.51715 L 344.99855 213.0076 C 344.99337 212.73592 344.99512 212.46413 345.0038 212.19253 L 345.58973 193.83292 C 345.59044 193.81097 345.5912 193.78903 345.59197 193.7671 L 346.38005 171.89779 C 346.3872 171.69928 346.39806 171.50093 346.4126 171.30283 L 347.97007 150.0822 C 347.9839 149.89409 347.99436 149.70573 348.0015 149.51724 L 348.75596 129.61837 C 348.77915 129.00663 348.83744 128.39672 348.93052 127.79165 L 351.66953 109.98813 C 351.7503 109.46304 351.8572 108.94229 351.9898 108.42783 L 356.61806 90.47017 C 356.73316 90.0236 356.8675 89.58221 357.02073 89.14725 L 362.7415 72.90761 C 362.9076 72.43613 363.0957 71.97269 363.30517 71.51883 L 368.83673 59.53379 C 368.9394 59.31129 369.0472 59.091186 369.16 58.87364 L 374.52223 48.53222 C 374.56793 48.444075 374.61446 48.35636 374.6618 48.269083 L 379.87777 38.65212 C 380.61505 37.292764 381.5647 36.059866 382.6908 35 L 382.6908 35 C 383.36598 34.36453 383.39817 33.302026 382.7627 32.626837 C 382.6382 32.49456 382.49307 32.383366 382.33295 32.29759 L 379.1188 30.57573 C 378.90016 30.458593 378.6788 30.346557 378.45494 30.239712 L 370.60097 26.491224 C 370.19436 26.29716 369.77974 26.12036 369.3582 25.961293 L 359.68338 22.310412 C 359.48833 22.236811 359.29187 22.16703 359.0941 22.101107 L 346.39963 17.869615 C 346.2604 17.823208 346.12055 17.778717 345.9801 17.736158 L 333.0966 13.83206 C 333.02605 13.810687 332.95567 13.788827 332.88544 13.766482 L 320.38144 9.787938 C 319.98782 9.662693 319.5992 9.522252 319.21643 9.366931 L 307.2405 4.5071267 C 306.40883 4.169641 305.60704 3.7627747 304.8436 3.2908343 L 295.22436 -2.6556106 C 295.06865 -2.751863 294.9146 -2.8507804 294.7623 -2.952319 L 289.8722 -6.212384 C 288.8908 -6.866647 288.0195 -7.672547 287.2908 -8.6 L 287.2908 -8.6 C 287.18518 -8.734404 286.9906 -8.757752 286.8562 -8.652149 C 286.75347 -8.571424 286.7125 -8.434873 286.7538 -8.310917 L 286.8908 -7.9 C 287.35003 -6.5222484 287.4546 -5.0509633 287.1948 -3.622111 L 286.79967 -1.4488453 C 286.52845 .04281293 286.0466 1.4883522 285.36858 2.844405 L 283.83626 5.90904 C 283.53956 6.502439 283.20624 7.07681 282.83823 7.6288255 L 279.63453 12.434382 C 279.20593 13.077283 278.73132 13.688293 278.21443 14.262615 L 273.6524 19.331555 C 273.61132 19.377185 273.57 19.422578 273.5284 19.467732 L 267.53417 25.975758 C 266.90643 26.657298 266.22068 27.28302 265.48465 27.84587 L 260.46047 31.687887 C 260.01432 32.02906 259.55052 32.346504 259.071 32.6389 L 252.58458 36.594026 C 251.92292 36.997476 251.23283 37.35232 250.51975 37.65576 L 243.40434 40.683596 C 242.59667 41.027283 241.7621 41.303926 240.90905 41.510723 L 236.83 42.499586 C 236.00516 42.699546 235.16573 42.83356 234.31963 42.900355 L 228.61943 43.35037 C 228.2005 43.383445 227.78042 43.4 227.36019 43.4 L 220.32787 43.4 C 219.57077 43.4 218.81462 43.346263 218.06513 43.239193 L 210.11868 42.103986 C 209.63367 42.0347 209.1521 41.94317 208.6755 41.829693 L 202.71426 40.410353 C 201.56878 40.13762 200.4569 39.739266 199.39883 39.222534 L 193.11882 36.155556 C 192.63377 35.91867 192.16102 35.65739 191.70238 35.37272 L 187.49052 32.75846 C 186.89135 32.38656 186.31742 31.975456 185.7725 31.527835 L 181.32639 27.875677 C 181.1027 27.691927 180.88402 27.50214 180.67063 27.306523 L 176.86828 23.821043 C 176.41699 23.407356 175.9898 22.968107 175.58885 22.505465 L 171.4701 17.753066 C 171.15072 17.384548 170.84836 17.001622 170.56395 16.605486 L 166.1343 10.43561 C 165.6394 9.746296 165.20013 9.018704 164.82064 8.259719 L 162.24418 3.1067915 C 162.20858 3.0355983 162.17352 2.9641404 162.13899 2.892424 L 160.89078 .30000015 C 160.04007 -1.4668689 159.68455 -3.4314062 159.86209 -5.384358 L 160.0423 -7.366614 C 160.0661 -7.628476 159.87312 -7.860055 159.61125 -7.883861 C 159.44886 -7.898624 159.2902 -7.829249 159.19078 -7.7 L 159.19078 -7.7 C 158.52734 -6.8375194 157.74723 -6.071441 156.87285 -5.423754 L 152.97632 -2.537433 C 152.85263 -2.4458157 152.72763 -2.355988 152.60136 -2.2679776 L 147.9791 .9535909 C 146.79237 1.78071 145.49895 2.4430757 144.1342 2.9225824 L 139.52708 4.5413023 C 139.0365 4.713665 138.55463 4.9098394 138.08316 5.129127 L 131.23638 8.313676 C 130.54022 8.637472 129.82165 8.910739 129.08625 9.131359 L 118.21586 12.392476 C 118.19914 12.397492 118.18243 12.402536 118.16572 12.407607 L 107.19764 15.737205 C 107.05974 15.779067 106.92241 15.82279 106.7857 15.868361 L 93.86446 20.17544 C 93.81534 20.191813 93.76614 20.207949 93.71686 20.223845 L 82.34946 23.89075 C 81.71097 24.096713 81.08607 24.34263 80.47846 24.627044 L 72.546495 28.33988 C 72.176155 28.51323 71.8126 28.700713 71.45662 28.901917 L 65.51051 32.262765 C 64.25747 32.971 63.81583 34.560925 64.52406 35.81396 C 64.60118 35.950397 64.69045 36.0796 64.79078 36.2 L 65.65489 37.236934 C 66.40984 38.14287 67.06231 39.12949 67.60043 40.17882 L 70.67757 46.179237 C 70.75304 46.326404 70.83079 46.47239 70.91078 46.61715 L 74.86554 53.77337 C 74.94903 53.924447 75.03007 54.07687 75.10863 54.23057 L 79.21693 62.268556 C 79.466 62.755865 79.6899 63.25563 79.88776 63.76589 L 83.37053 72.747765 C 83.38403 72.78259 83.39765 72.81737 83.4114 72.852094 L 87.00772 81.93754 C 87.12973 82.24577 87.24213 82.55772 87.34476 82.87294 L 89.9666 90.92572 C 89.98272 90.97524 89.9986 91.02484 90.01424 91.07452 L 93.08629 100.83279 C 93.28908 101.47695 93.45089 102.13331 93.57073 102.79792 L 95.55605 113.80737 C 95.5792 113.93579 95.60079 114.06448 95.6208 114.19342 L 97.32666 125.1868 C 97.3694 125.46222 97.40494 125.73871 97.43323 126.01598 L 98.32065 134.7127 C 98.36738 135.17069 98.39433 135.63048 98.40141 136.0908 L 98.58565 148.06641 C 98.58907 148.28878 98.59713 148.51105 98.60981 148.73309 L 99.38019 162.21465 C 99.38725 162.33821 99.39575 162.4617 99.40567 162.58506 L 100.73924 179.15943 C 100.77359 179.5863 100.79078 180.01439 100.79078 180.44264 L 100.79078 192.89242 C 100.79078 193.09746 100.79472 193.30247 100.8026 193.50735 L 101.38295 208.5965 C 101.38817 208.73216 101.39166 208.8679 101.39343 209.00365 L 101.58559 223.7999 C 101.58905 224.0666 101.58584 224.33333 101.57597 224.59986 L 101.00174 240.104 C 100.99444 240.30132 100.99078 240.49875 100.99078 240.6962 L 100.99078 254.29243 C 100.99078 254.49746 100.98684 254.70247 100.97896 254.90736 L 100.39377 270.12236 C 100.39178 270.17412 100.38953 270.22588 100.38704 270.27762 L 99.59172 286.78055 C 99.59109 286.79352 99.59045 286.8065 99.5898 286.81945 L 98.79531 302.51062 C 98.79229 302.5702 98.78894 302.62978 98.78526 302.68933 L 97.59634 321.91007 C 97.59264 321.97003 97.58859 322.02996 97.5842 322.08987 L 95.80107 346.45942 C 95.79421 346.55314 95.78653 346.6468 95.77802 346.7404 L 93.99213 366.3852 C 93.99123 366.39507 93.99032 366.40494 93.98941 366.4148 L 92.21864 385.4997 C 92.20007 385.6999 92.17773 385.8997 92.15162 386.09903 L 90.19091 401.07175 C 90.0581 402.08594 89.78896 403.07756 89.39078 404.01973 L 89.39078 404.01973 C 88.99321 404.9605 88.74454 405.9574 88.65371 406.97465 L 87.89078 415.51973 C 87.38302 421.20676 91.34149 426.3251 96.97346 427.2638 Z" fill="url(#Obj_Gradient_2)"/>
      <path d="M 96.97346 427.2638 L 110.7157 429.55416 C 110.89907 429.5847 111.08297 429.6121 111.2673 429.63624 L 139.62094 433.35154 C 139.86747 433.38385 140.11472 433.4104 140.36248 433.4312 L 170.60537 435.9677 C 170.86227 435.98923 171.11966 436.00456 171.3773 436.01367 L 210.30822 437.39 C 210.49658 437.3967 210.68504 437.4 210.87352 437.4 L 242.34084 437.4 C 242.50746 437.4 242.67407 437.3974 242.8406 437.3922 L 267.8754 436.60986 C 268.08563 436.6033 268.29573 436.5926 268.50555 436.5777 L 290.5533 435.0168 C 290.7116 435.0056 290.86975 434.99205 291.02766 434.97614 L 316.28815 432.4305 C 316.4899 432.4102 316.69122 432.386 316.89204 432.35803 L 340.68474 429.04265 C 340.88875 429.0142 341.0922 428.98186 341.29496 428.9456 L 350.4908 427.3 C 355.8179 426.34674 359.46876 421.3931 358.80234 416.02255 L 356.59475 398.232 C 356.5921 398.21066 356.5895 398.18934 356.58695 398.168 L 353.02312 368.4695 C 353.00157 368.28985 352.98306 368.10985 352.9676 367.9296 L 350.6054 340.37037 C 350.59565 340.2568 350.58713 340.14312 350.57983 340.02936 L 349.1932 318.43772 C 349.1916 318.41258 349.1899 318.38744 349.1882 318.3623 L 347.59603 295.276 C 347.59253 295.22533 347.5893 295.17466 347.58627 295.12398 L 346.4099 275.3218 C 346.39716 275.1073 346.38874 274.89255 346.38465 274.6777 L 345.99236 254.08285 C 345.9913 254.02762 345.98997 253.9724 345.98835 253.91718 L 345.39322 233.68283 C 345.3916 233.6276 345.39026 233.5724 345.3892 233.51715 L 344.99855 213.0076 C 344.99337 212.73592 344.99512 212.46413 345.0038 212.19253 L 345.58973 193.83292 C 345.59044 193.81097 345.5912 193.78903 345.59197 193.7671 L 346.38005 171.89779 C 346.3872 171.69928 346.39806 171.50093 346.4126 171.30283 L 347.97007 150.0822 C 347.9839 149.89409 347.99436 149.70573 348.0015 149.51724 L 348.75596 129.61837 C 348.77915 129.00663 348.83744 128.39672 348.93052 127.79165 L 351.66953 109.98813 C 351.7503 109.46304 351.8572 108.94229 351.9898 108.42783 L 356.61806 90.47017 C 356.73316 90.0236 356.8675 89.58221 357.02073 89.14725 L 362.7415 72.90761 C 362.9076 72.43613 363.0957 71.97269 363.30517 71.51883 L 368.83673 59.53379 C 368.9394 59.31129 369.0472 59.091186 369.16 58.87364 L 374.52223 48.53222 C 374.56793 48.444075 374.61446 48.35636 374.6618 48.269083 L 379.87777 38.65212 C 380.61505 37.292764 381.5647 36.059866 382.6908 35 L 382.6908 35 C 383.36598 34.36453 383.39817 33.302026 382.7627 32.626837 C 382.6382 32.49456 382.49307 32.383366 382.33295 32.29759 L 379.1188 30.57573 C 378.90016 30.458593 378.6788 30.346557 378.45494 30.239712 L 370.60097 26.491224 C 370.19436 26.29716 369.77974 26.12036 369.3582 25.961293 L 359.68338 22.310412 C 359.48833 22.236811 359.29187 22.16703 359.0941 22.101107 L 346.39963 17.869615 C 346.2604 17.823208 346.12055 17.778717 345.9801 17.736158 L 333.0966 13.83206 C 333.02605 13.810687 332.95567 13.788827 332.88544 13.766482 L 320.38144 9.787938 C 319.98782 9.662693 319.5992 9.522252 319.21643 9.366931 L 307.2405 4.5071267 C 306.40883 4.169641 305.60704 3.7627747 304.8436 3.2908343 L 295.22436 -2.6556106 C 295.06865 -2.751863 294.9146 -2.8507804 294.7623 -2.952319 L 289.8722 -6.212384 C 288.8908 -6.866647 288.0195 -7.672547 287.2908 -8.6 L 287.2908 -8.6 C 287.18518 -8.734404 286.9906 -8.757752 286.8562 -8.652149 C 286.75347 -8.571424 286.7125 -8.434873 286.7538 -8.310917 L 286.8908 -7.9 C 287.35003 -6.5222484 287.4546 -5.0509633 287.1948 -3.622111 L 286.79967 -1.4488453 C 286.52845 .04281293 286.0466 1.4883522 285.36858 2.844405 L 283.83626 5.90904 C 283.53956 6.502439 283.20624 7.07681 282.83823 7.6288255 L 279.63453 12.434382 C 279.20593 13.077283 278.73132 13.688293 278.21443 14.262615 L 273.6524 19.331555 C 273.61132 19.377185 273.57 19.422578 273.5284 19.467732 L 267.53417 25.975758 C 266.90643 26.657298 266.22068 27.28302 265.48465 27.84587 L 260.46047 31.687887 C 260.01432 32.02906 259.55052 32.346504 259.071 32.6389 L 252.58458 36.594026 C 251.92292 36.997476 251.23283 37.35232 250.51975 37.65576 L 243.40434 40.683596 C 242.59667 41.027283 241.7621 41.303926 240.90905 41.510723 L 236.83 42.499586 C 236.00516 42.699546 235.16573 42.83356 234.31963 42.900355 L 228.61943 43.35037 C 228.2005 43.383445 227.78042 43.4 227.36019 43.4 L 220.32787 43.4 C 219.57077 43.4 218.81462 43.346263 218.06513 43.239193 L 210.11868 42.103986 C 209.63367 42.0347 209.1521 41.94317 208.6755 41.829693 L 202.71426 40.410353 C 201.56878 40.13762 200.4569 39.739266 199.39883 39.222534 L 193.11882 36.155556 C 192.63377 35.91867 192.16102 35.65739 191.70238 35.37272 L 187.49052 32.75846 C 186.89135 32.38656 186.31742 31.975456 185.7725 31.527835 L 181.32639 27.875677 C 181.1027 27.691927 180.88402 27.50214 180.67063 27.306523 L 176.86828 23.821043 C 176.41699 23.407356 175.9898 22.968107 175.58885 22.505465 L 171.4701 17.753066 C 171.15072 17.384548 170.84836 17.001622 170.56395 16.605486 L 166.1343 10.43561 C 165.6394 9.746296 165.20013 9.018704 164.82064 8.259719 L 162.24418 3.1067915 C 162.20858 3.0355983 162.17352 2.9641404 162.13899 2.892424 L 160.89078 .30000015 C 160.04007 -1.4668689 159.68455 -3.4314062 159.86209 -5.384358 L 160.0423 -7.366614 C 160.0661 -7.628476 159.87312 -7.860055 159.61125 -7.883861 C 159.44886 -7.898624 159.2902 -7.829249 159.19078 -7.7 L 159.19078 -7.7 C 158.52734 -6.8375194 157.74723 -6.071441 156.87285 -5.423754 L 152.97632 -2.537433 C 152.85263 -2.4458157 152.72763 -2.355988 152.60136 -2.2679776 L 147.9791 .9535909 C 146.79237 1.78071 145.49895 2.4430757 144.1342 2.9225824 L 139.52708 4.5413023 C 139.0365 4.713665 138.55463 4.9098394 138.08316 5.129127 L 131.23638 8.313676 C 130.54022 8.637472 129.82165 8.910739 129.08625 9.131359 L 118.21586 12.392476 C 118.19914 12.397492 118.18243 12.402536 118.16572 12.407607 L 107.19764 15.737205 C 107.05974 15.779067 106.92241 15.82279 106.7857 15.868361 L 93.86446 20.17544 C 93.81534 20.191813 93.76614 20.207949 93.71686 20.223845 L 82.34946 23.89075 C 81.71097 24.096713 81.08607 24.34263 80.47846 24.627044 L 72.546495 28.33988 C 72.176155 28.51323 71.8126 28.700713 71.45662 28.901917 L 65.51051 32.262765 C 64.25747 32.971 63.81583 34.560925 64.52406 35.81396 C 64.60118 35.950397 64.69045 36.0796 64.79078 36.2 L 65.65489 37.236934 C 66.40984 38.14287 67.06231 39.12949 67.60043 40.17882 L 70.67757 46.179237 C 70.75304 46.326404 70.83079 46.47239 70.91078 46.61715 L 74.86554 53.77337 C 74.94903 53.924447 75.03007 54.07687 75.10863 54.23057 L 79.21693 62.268556 C 79.466 62.755865 79.6899 63.25563 79.88776 63.76589 L 83.37053 72.747765 C 83.38403 72.78259 83.39765 72.81737 83.4114 72.852094 L 87.00772 81.93754 C 87.12973 82.24577 87.24213 82.55772 87.34476 82.87294 L 89.9666 90.92572 C 89.98272 90.97524 89.9986 91.02484 90.01424 91.07452 L 93.08629 100.83279 C 93.28908 101.47695 93.45089 102.13331 93.57073 102.79792 L 95.55605 113.80737 C 95.5792 113.93579 95.60079 114.06448 95.6208 114.19342 L 97.32666 125.1868 C 97.3694 125.46222 97.40494 125.73871 97.43323 126.01598 L 98.32065 134.7127 C 98.36738 135.17069 98.39433 135.63048 98.40141 136.0908 L 98.58565 148.06641 C 98.58907 148.28878 98.59713 148.51105 98.60981 148.73309 L 99.38019 162.21465 C 99.38725 162.33821 99.39575 162.4617 99.40567 162.58506 L 100.73924 179.15943 C 100.77359 179.5863 100.79078 180.01439 100.79078 180.44264 L 100.79078 192.89242 C 100.79078 193.09746 100.79472 193.30247 100.8026 193.50735 L 101.38295 208.5965 C 101.38817 208.73216 101.39166 208.8679 101.39343 209.00365 L 101.58559 223.7999 C 101.58905 224.0666 101.58584 224.33333 101.57597 224.59986 L 101.00174 240.104 C 100.99444 240.30132 100.99078 240.49875 100.99078 240.6962 L 100.99078 254.29243 C 100.99078 254.49746 100.98684 254.70247 100.97896 254.90736 L 100.39377 270.12236 C 100.39178 270.17412 100.38953 270.22588 100.38704 270.27762 L 99.59172 286.78055 C 99.59109 286.79352 99.59045 286.8065 99.5898 286.81945 L 98.79531 302.51062 C 98.79229 302.5702 98.78894 302.62978 98.78526 302.68933 L 97.59634 321.91007 C 97.59264 321.97003 97.58859 322.02996 97.5842 322.08987 L 95.80107 346.45942 C 95.79421 346.55314 95.78653 346.6468 95.77802 346.7404 L 93.99213 366.3852 C 93.99123 366.39507 93.99032 366.40494 93.98941 366.4148 L 92.21864 385.4997 C 92.20007 385.6999 92.17773 385.8997 92.15162 386.09903 L 90.19091 401.07175 C 90.0581 402.08594 89.78896 403.07756 89.39078 404.01973 L 89.39078 404.01973 C 88.99321 404.9605 88.74454 405.9574 88.65371 406.97465 L 87.89078 415.51973 C 87.38302 421.20676 91.34149 426.3251 96.97346 427.2638 Z" stroke="#7f8080" stroke-linecap="round" stroke-linejoin="round" stroke-width="1"/>
      <path d="M 8 141.44615 L 14.2 145.84615 L 22.4 149.84615 L 31 153.44615 L 40 157.24615 L 51 161.24615 L 60.4 164.04615 L 69.4 166.64615 L 78.4 169.24615 L 83.8 170.64615 L 89.4 171.64615 L 91.8 165.84615 L 94.4 160.44615 L 96.6 156.44615 L 99.2 153.04615 L 99.4 144.04615 L 98.8 133.04615 L 97 122.24615 L 95.4 111.84615 L 92.8 100.84614 L 90.4 91.24614 L 87.6 83.24614 L 84.4 73.846145 L 81.6 66.446144 L 78 58.846144 L 74 51.246144 L 70 43.846144 L 67.4 40.246144 L 63.8 34.446144 L 58.4 38.846144 L 53.6 43.646144 L 49 49.846144 L 44.6 56.046144 L 39.8 64.646144 L 35 74.046145 L 30.2 83.24614 L 26.6 91.84614 L 22.6 100.84614 L 19.4 109.04615 L 15.6 118.44615 L 12.8 126.44615 L 9.8 134.84615 Z" fill="url(#Obj_Gradient_3)"/>
      <path d="M 8 141.44615 L 14.2 145.84615 L 22.4 149.84615 L 31 153.44615 L 40 157.24615 L 51 161.24615 L 60.4 164.04615 L 69.4 166.64615 L 78.4 169.24615 L 83.8 170.64615 L 89.4 171.64615 L 91.8 165.84615 L 94.4 160.44615 L 96.6 156.44615 L 99.2 153.04615 L 99.4 144.04615 L 98.8 133.04615 L 97 122.24615 L 95.4 111.84615 L 92.8 100.84614 L 90.4 91.24614 L 87.6 83.24614 L 84.4 73.846145 L 81.6 66.446144 L 78 58.846144 L 74 51.246144 L 70 43.846144 L 67.4 40.246144 L 63.8 34.446144 L 58.4 38.846144 L 53.6 43.646144 L 49 49.846144 L 44.6 56.046144 L 39.8 64.646144 L 35 74.046145 L 30.2 83.24614 L 26.6 91.84614 L 22.6 100.84614 L 19.4 109.04615 L 15.6 118.44615 L 12.8 126.44615 L 9.8 134.84615 Z" stroke="#7f8080" stroke-linecap="round" stroke-linejoin="round" stroke-width="1"/>
      <path d="M 439.4053 140.50275 L 433.2053 144.90275 L 425.0053 148.90275 L 416.4053 152.50275 L 407.4053 156.30275 L 396.4053 160.30275 L 387.0053 163.10275 L 378.0053 165.70275 L 369.0053 168.30275 L 363.6053 169.70275 L 358.0053 170.70275 L 355.6053 164.90275 L 353.0053 159.50275 L 350.8053 155.50275 L 348.2053 152.10275 L 348.0053 143.10275 L 348.6053 132.10275 L 350.4053 121.30275 L 352.0053 110.90275 L 354.6053 99.90275 L 357.0053 90.30275 L 359.8053 82.30275 L 363.0053 72.90275 L 365.8053 65.50275 L 369.4053 57.90275 L 373.4053 50.30275 L 377.4053 42.90275 L 380.0053 39.30275 L 383.6053 33.502748 L 389.0053 37.90275 L 393.8053 42.70275 L 398.4053 48.90275 L 402.8053 55.10275 L 407.6053 63.70275 L 412.4053 73.10275 L 417.2053 82.30275 L 420.8053 90.90275 L 424.8053 99.90275 L 428.0053 108.10275 L 431.8053 117.50275 L 434.6053 125.50275 L 437.6053 133.90275 Z" fill="url(#Obj_Gradient_4)"/>
      <path d="M 439.4053 140.50275 L 433.2053 144.90275 L 425.0053 148.90275 L 416.4053 152.50275 L 407.4053 156.30275 L 396.4053 160.30275 L 387.0053 163.10275 L 378.0053 165.70275 L 369.0053 168.30275 L 363.6053 169.70275 L 358.0053 170.70275 L 355.6053 164.90275 L 353.0053 159.50275 L 350.8053 155.50275 L 348.2053 152.10275 L 348.0053 143.10275 L 348.6053 132.10275 L 350.4053 121.30275 L 352.0053 110.90275 L 354.6053 99.90275 L 357.0053 90.30275 L 359.8053 82.30275 L 363.0053 72.90275 L 365.8053 65.50275 L 369.4053 57.90275 L 373.4053 50.30275 L 377.4053 42.90275 L 380.0053 39.30275 L 383.6053 33.502748 L 389.0053 37.90275 L 393.8053 42.70275 L 398.4053 48.90275 L 402.8053 55.10275 L 407.6053 63.70275 L 412.4053 73.10275 L 417.2053 82.30275 L 420.8053 90.90275 L 424.8053 99.90275 L 428.0053 108.10275 L 431.8053 117.50275 L 434.6053 125.50275 L 437.6053 133.90275 Z" stroke="#7f8080" stroke-linecap="round" stroke-linejoin="round" stroke-width="1"/>
      <path d="M 8 141.44615 L 14.2 145.84615 L 22.4 149.84615 L 31 153.44615 L 40 157.24615 L 51 161.24615 L 60.4 164.04615 L 69.4 166.64615 L 78.4 169.24615 L 83.8 170.64615 L 89.4 171.64615 L 92.4 165.24615 L 88.6 164.44615 L 83.8 163.24615 L 78.2 162.04615 L 72.2 160.24615 L 67.6 158.84615 L 63.4 157.64615 L 58.8 155.64615 L 54.2 154.04615 L 49.4 152.04615 L 45.4 150.64615 L 40.2 148.44615 L 35.6 146.84615 L 30.8 144.64615 L 26 142.84615 L 22 140.84615 L 17.6 138.64615 L 13.2 136.44615 L 9.8 134.84615 Z" fill="white"/>
      <path d="M 8 141.44615 L 14.2 145.84615 L 22.4 149.84615 L 31 153.44615 L 40 157.24615 L 51 161.24615 L 60.4 164.04615 L 69.4 166.64615 L 78.4 169.24615 L 83.8 170.64615 L 89.4 171.64615 L 92.4 165.24615 L 88.6 164.44615 L 83.8 163.24615 L 78.2 162.04615 L 72.2 160.24615 L 67.6 158.84615 L 63.4 157.64615 L 58.8 155.64615 L 54.2 154.04615 L 49.4 152.04615 L 45.4 150.64615 L 40.2 148.44615 L 35.6 146.84615 L 30.8 144.64615 L 26 142.84615 L 22 140.84615 L 17.6 138.64615 L 13.2 136.44615 L 9.8 134.84615 Z" stroke="#7f8080" stroke-linecap="round" stroke-linejoin="round" stroke-width="1"/>
      <path d="M 439.4053 140.50275 L 433.2053 144.90275 L 425.0053 148.90275 L 416.4053 152.50275 L 407.4053 156.30275 L 396.4053 160.30275 L 387.0053 163.10275 L 378.0053 165.70275 L 369.0053 168.30275 L 363.6053 169.70275 L 358.0053 170.70275 L 355.0053 164.30275 L 358.8053 163.50275 L 363.6053 162.30275 L 369.2053 161.10275 L 375.2053 159.30275 L 379.8053 157.90275 L 384.0053 156.70275 L 388.6053 154.70275 L 393.2053 153.10275 L 398.0053 151.10275 L 402.0053 149.70275 L 407.2053 147.50275 L 411.8053 145.90275 L 416.6053 143.70275 L 421.4053 141.90275 L 425.4053 139.90275 L 429.8053 137.70275 L 434.2053 135.50275 L 437.6053 133.90275 Z" fill="white"/>
      <path d="M 439.4053 140.50275 L 433.2053 144.90275 L 425.0053 148.90275 L 416.4053 152.50275 L 407.4053 156.30275 L 396.4053 160.30275 L 387.0053 163.10275 L 378.0053 165.70275 L 369.0053 168.30275 L 363.6053 169.70275 L 358.0053 170.70275 L 355.0053 164.30275 L 358.8053 163.50275 L 363.6053 162.30275 L 369.2053 161.10275 L 375.2053 159.30275 L 379.8053 157.90275 L 384.0053 156.70275 L 388.6053 154.70275 L 393.2053 153.10275 L 398.0053 151.10275 L 402.0053 149.70275 L 407.2053 147.50275 L 411.8053 145.90275 L 416.6053 143.70275 L 421.4053 141.90275 L 425.4053 139.90275 L 429.8053 137.70275 L 434.2053 135.50275 L 437.6053 133.90275 Z" stroke="#7f8080" stroke-linecap="round" stroke-linejoin="round" stroke-width="1"/>
      <path d="M 158.57212 -8.036211 L 153.84295 -3.982637 C 152.6926 -2.996625 151.44764 -2.1266915 150.12621 -1.385515 L 147.59958 .03164925 C 146.1644 .8366226 145.5836 2.6057518 146.26239 4.104735 L 147.28 6.3519685 C 147.40158 6.620455 147.52831 6.88658 147.66012 7.1501955 L 149.46239 10.754736 L 151.94938 15.728707 C 152.29117 16.412301 152.66683 17.078434 153.07495 17.724625 L 155.40134 21.408082 C 155.84172 22.105345 156.31928 22.77842 156.83195 23.424387 L 160.24264 27.721847 C 160.7887 28.409875 161.37371 29.066056 161.99482 29.687167 L 166.66087 34.35321 C 167.06175 34.75409 167.47731 35.14001 167.9067 35.510183 L 172.47023 39.444256 C 172.8649 39.78448 173.271 40.11119 173.68785 40.423827 L 177.66279 43.40503 C 178.3287 43.904467 179.02123 44.367383 179.73733 44.79174 L 183.8704 47.24096 C 183.9984 47.31681 184.12712 47.391414 184.25656 47.464765 L 188.9541 50.12671 C 189.6924 50.54507 190.45328 50.92226 191.23325 51.256534 L 194.78307 52.777883 C 195.36903 53.02901 195.96518 53.255666 196.56997 53.457264 L 201.58808 55.129966 C 202.83532 55.545714 204.11592 55.853756 205.4158 56.050706 L 209.51464 56.671744 C 209.87976 56.727064 210.24615 56.77358 210.6135 56.81126 L 217.4946 57.517015 C 217.73978 57.54216 217.98534 57.563364 218.2312 57.58062 L 222.75835 57.89831 C 223.2942 57.935915 223.83122 57.954734 224.3684 57.954734 L 227.63046 57.954736 C 228.58416 57.954736 229.53693 57.89542 230.48327 57.77713 L 234.47198 57.27854 C 235.13195 57.19604 235.78802 57.08496 236.43835 56.9456 L 242.5204 55.64231 C 243.41426 55.450764 244.29592 55.2061 245.16068 54.90961 L 249.66952 53.36372 C 250.46417 53.09127 251.2433 52.775486 252.0034 52.41779 L 256.83677 50.14326 C 257.38697 49.884347 257.92668 49.603714 258.45464 49.302025 L 262.2225 47.14896 C 262.9153 46.75308 263.587 46.321415 264.23494 45.85572 L 268.91106 42.494754 C 269.41175 42.13489 269.89776 41.755033 270.3679 41.35611 L 275.68877 36.841445 C 276.0711 36.51706 276.4427 36.18026 276.80298 35.831584 L 281.5022 31.283956 C 282.1418 30.664998 282.7449 30.009435 283.30852 29.320576 L 287.1018 24.684342 C 287.60852 24.065026 288.08257 23.41969 288.522 22.750964 L 292.1392 17.246564 C 292.35462 16.918732 292.56163 16.585442 292.76002 16.247021 L 295.2831 11.942924 C 295.66906 11.28454 296.022 10.607354 296.34062 9.91388 L 298.4593 5.3026103 C 298.99218 4.142849 299.36334 2.915436 299.5624 1.6547355 L 299.5624 1.6547355 C 299.7407 .5254737 299.1614 -.5879744 298.1343 -1.0901021 L 292.84088 -3.6780046 C 291.52642 -4.320629 290.29183 -5.1151383 289.1624 -6.045265 L 288.7564 -6.379625 C 287.91205 -7.0749565 287.28864 -8.001262 286.9624 -9.045265 L 286.9624 -9.045265 C 286.91573 -9.194581 286.75686 -9.2778 286.60754 -9.231138 C 286.49247 -9.195177 286.41277 -9.090315 286.40892 -8.969812 L 286.29968 -5.5468894 C 286.20894 -2.7038136 285.5916 .09776433 284.479 2.715667 L 283.60206 4.7790426 C 283.0435 6.093314 282.36374 7.352709 281.5716 8.540912 L 277.88582 14.069584 C 277.1383 15.190848 276.2937 16.244248 275.36175 17.217624 L 269.06668 23.79247 C 268.1986 24.699125 267.25777 25.533196 266.2536 26.286327 L 257.8787 32.567505 C 257.00228 33.22482 256.08002 33.818674 255.11896 34.344537 L 247.93376 38.27606 C 246.62263 38.99347 245.2447 39.58137 243.81952 40.03143 L 237.1466 42.138666 C 235.42973 42.680837 233.65514 43.01954 231.85927 43.147815 L 224.97281 43.639704 C 223.90052 43.716297 222.82417 43.717616 221.75168 43.64365 L 213.31543 43.06184 C 212.28125 42.99052 211.25308 42.84936 210.23795 42.639333 L 203.10274 41.163084 C 201.15079 40.75923 199.25961 40.103348 197.47676 39.21192 L 192.81735 36.882215 C 191.58321 36.265147 190.4071 35.538274 189.30326 34.71039 L 183.6213 30.44892 C 183.18217 30.11957 182.75496 29.774602 182.3405 29.414683 L 176.58533 24.416762 C 175.77104 23.70962 175.0075 22.94608 174.30036 22.131794 L 169.89513 17.05911 C 169.14103 16.19075 168.45312 15.26705 167.8372 14.295783 L 164.1035 8.408022 C 163.74293 7.839438 163.4075 7.2552955 163.09819 6.657283 L 161.47781 3.5245606 C 160.86867 2.346882 160.3625 1.1187357 159.96497 -.14615482 L 158.68473 -4.2196427 C 158.46995 -4.9030184 158.28722 -5.596055 158.13713 -6.296485 L 157.9117 -7.348432 C 157.82664 -7.745442 158.053 -8.143094 158.4378 -8.272633 L 158.4378 -8.272633 C 158.5103 -8.297037 158.58884 -8.258052 158.61325 -8.1855575 C 158.63126 -8.132046 158.61499 -8.072957 158.57212 -8.036211 Z" fill="white"/>
      <path d="M 158.57212 -8.036211 L 153.84295 -3.982637 C 152.6926 -2.996625 151.44764 -2.1266915 150.12621 -1.385515 L 147.59958 .03164925 C 146.1644 .8366226 145.5836 2.6057518 146.26239 4.104735 L 147.28 6.3519685 C 147.40158 6.620455 147.52831 6.88658 147.66012 7.1501955 L 149.46239 10.754736 L 151.94938 15.728707 C 152.29117 16.412301 152.66683 17.078434 153.07495 17.724625 L 155.40134 21.408082 C 155.84172 22.105345 156.31928 22.77842 156.83195 23.424387 L 160.24264 27.721847 C 160.7887 28.409875 161.37371 29.066056 161.99482 29.687167 L 166.66087 34.35321 C 167.06175 34.75409 167.47731 35.14001 167.9067 35.510183 L 172.47023 39.444256 C 172.8649 39.78448 173.271 40.11119 173.68785 40.423827 L 177.66279 43.40503 C 178.3287 43.904467 179.02123 44.367383 179.73733 44.79174 L 183.8704 47.24096 C 183.9984 47.31681 184.12712 47.391414 184.25656 47.464765 L 188.9541 50.12671 C 189.6924 50.54507 190.45328 50.92226 191.23325 51.256534 L 194.78307 52.777883 C 195.36903 53.02901 195.96518 53.255666 196.56997 53.457264 L 201.58808 55.129966 C 202.83532 55.545714 204.11592 55.853756 205.4158 56.050706 L 209.51464 56.671744 C 209.87976 56.727064 210.24615 56.77358 210.6135 56.81126 L 217.4946 57.517015 C 217.73978 57.54216 217.98534 57.563364 218.2312 57.58062 L 222.75835 57.89831 C 223.2942 57.935915 223.83122 57.954734 224.3684 57.954734 L 227.63046 57.954736 C 228.58416 57.954736 229.53693 57.89542 230.48327 57.77713 L 234.47198 57.27854 C 235.13195 57.19604 235.78802 57.08496 236.43835 56.9456 L 242.5204 55.64231 C 243.41426 55.450764 244.29592 55.2061 245.16068 54.90961 L 249.66952 53.36372 C 250.46417 53.09127 251.2433 52.775486 252.0034 52.41779 L 256.83677 50.14326 C 257.38697 49.884347 257.92668 49.603714 258.45464 49.302025 L 262.2225 47.14896 C 262.9153 46.75308 263.587 46.321415 264.23494 45.85572 L 268.91106 42.494754 C 269.41175 42.13489 269.89776 41.755033 270.3679 41.35611 L 275.68877 36.841445 C 276.0711 36.51706 276.4427 36.18026 276.80298 35.831584 L 281.5022 31.283956 C 282.1418 30.664998 282.7449 30.009435 283.30852 29.320576 L 287.1018 24.684342 C 287.60852 24.065026 288.08257 23.41969 288.522 22.750964 L 292.1392 17.246564 C 292.35462 16.918732 292.56163 16.585442 292.76002 16.247021 L 295.2831 11.942924 C 295.66906 11.28454 296.022 10.607354 296.34062 9.91388 L 298.4593 5.3026103 C 298.99218 4.142849 299.36334 2.915436 299.5624 1.6547355 L 299.5624 1.6547355 C 299.7407 .5254737 299.1614 -.5879744 298.1343 -1.0901021 L 292.84088 -3.6780046 C 291.52642 -4.320629 290.29183 -5.1151383 289.1624 -6.045265 L 288.7564 -6.379625 C 287.91205 -7.0749565 287.28864 -8.001262 286.9624 -9.045265 L 286.9624 -9.045265 C 286.91573 -9.194581 286.75686 -9.2778 286.60754 -9.231138 C 286.49247 -9.195177 286.41277 -9.090315 286.40892 -8.969812 L 286.29968 -5.5468894 C 286.20894 -2.7038136 285.5916 .09776433 284.479 2.715667 L 283.60206 4.7790426 C 283.0435 6.093314 282.36374 7.352709 281.5716 8.540912 L 277.88582 14.069584 C 277.1383 15.190848 276.2937 16.244248 275.36175 17.217624 L 269.06668 23.79247 C 268.1986 24.699125 267.25777 25.533196 266.2536 26.286327 L 257.8787 32.567505 C 257.00228 33.22482 256.08002 33.818674 255.11896 34.344537 L 247.93376 38.27606 C 246.62263 38.99347 245.2447 39.58137 243.81952 40.03143 L 237.1466 42.138666 C 235.42973 42.680837 233.65514 43.01954 231.85927 43.147815 L 224.97281 43.639704 C 223.90052 43.716297 222.82417 43.717616 221.75168 43.64365 L 213.31543 43.06184 C 212.28125 42.99052 211.25308 42.84936 210.23795 42.639333 L 203.10274 41.163084 C 201.15079 40.75923 199.25961 40.103348 197.47676 39.21192 L 192.81735 36.882215 C 191.58321 36.265147 190.4071 35.538274 189.30326 34.71039 L 183.6213 30.44892 C 183.18217 30.11957 182.75496 29.774602 182.3405 29.414683 L 176.58533 24.416762 C 175.77104 23.70962 175.0075 22.94608 174.30036 22.131794 L 169.89513 17.05911 C 169.14103 16.19075 168.45312 15.26705 167.8372 14.295783 L 164.1035 8.408022 C 163.74293 7.839438 163.4075 7.2552955 163.09819 6.657283 L 161.47781 3.5245606 C 160.86867 2.346882 160.3625 1.1187357 159.96497 -.14615482 L 158.68473 -4.2196427 C 158.46995 -4.9030184 158.28722 -5.596055 158.13713 -6.296485 L 157.9117 -7.348432 C 157.82664 -7.745442 158.053 -8.143094 158.4378 -8.272633 L 158.4378 -8.272633 C 158.5103 -8.297037 158.58884 -8.258052 158.61325 -8.1855575 C 158.63126 -8.132046 158.61499 -8.072957 158.57212 -8.036211 Z" stroke="#7f8080" stroke-linecap="round" stroke-linejoin="round" stroke-width="1"/>
      <path d="M 158.05925 -8.244108 L 163.45925 -8.844108 L 170.25925 -5.4441076 L 175.25925 -3.6441076 L 183.65925 -1.8441076 L 192.05925 -.8441076 L 200.05925 .15589246 L 207.65925 .35589246 L 216.25925 .7558925 L 227.85925 .5558925 L 236.25925 .15589246 L 245.65925 -.44410755 L 254.05925 -1.2441076 L 263.25925 -2.6441076 L 271.45925 -4.8441076 L 277.25925 -6.644108 L 282.85925 -9.244108 L 285.65925 -8.044108 L 286.05925 -2.4441076 L 283.25925 5.5558925 L 277.85925 8.355893 L 267.25925 11.555893 L 255.85925 13.955893 L 244.65925 14.755893 L 232.25925 15.755893 L 221.85925 15.755893 L 212.45925 15.755893 L 200.85925 15.155893 L 189.65925 14.355893 L 179.05925 12.155893 L 170.45925 10.155893 L 164.25925 7.355893 L 162.25925 5.7558925 L 159.05925 -1.8441076 Z" fill="white"/>
      <path d="M 158.05925 -8.244108 L 163.45925 -8.844108 L 170.25925 -5.4441076 L 175.25925 -3.6441076 L 183.65925 -1.8441076 L 192.05925 -.8441076 L 200.05925 .15589246 L 207.65925 .35589246 L 216.25925 .7558925 L 227.85925 .5558925 L 236.25925 .15589246 L 245.65925 -.44410755 L 254.05925 -1.2441076 L 263.25925 -2.6441076 L 271.45925 -4.8441076 L 277.25925 -6.644108 L 282.85925 -9.244108 L 285.65925 -8.044108 L 286.05925 -2.4441076 L 283.25925 5.5558925 L 277.85925 8.355893 L 267.25925 11.555893 L 255.85925 13.955893 L 244.65925 14.755893 L 232.25925 15.755893 L 221.85925 15.755893 L 212.45925 15.755893 L 200.85925 15.155893 L 189.65925 14.355893 L 179.05925 12.155893 L 170.45925 10.155893 L 164.25925 7.355893 L 162.25925 5.7558925 L 159.05925 -1.8441076 Z" stroke="#7f8080" stroke-linecap="round" stroke-linejoin="round" stroke-width="1"/>
      <path d="M 87.81321 417.2 L 87.81321 417.2 C 87.74753 417.7255 87.81036 418.25905 87.9963 418.7549 L 88.64731 420.4909 C 88.82406 420.96227 89.05115 421.4132 89.32462 421.8358 L 90.29243 423.33153 C 90.83339 424.16756 91.54649 424.87855 92.38412 425.417 L 93.46217 426.11005 C 93.76243 426.30307 94.07701 426.47285 94.40316 426.6179 L 95.72001 427.2035 C 96.31654 427.46876 96.94725 427.6493 97.59379 427.7398 L 106.60421 429.00126 C 106.61421 429.00265 106.6242 429.00403 106.6342 429.0054 L 118.3502 430.594 C 118.3962 430.60024 118.44226 430.606 118.48838 430.61134 L 128.77131 431.79783 C 128.80324 431.8015 128.83519 431.805 128.86716 431.8082 L 142.57723 433.1991 C 142.60521 433.20193 142.63321 433.2046 142.66123 433.2071 L 153.76653 434.19865 C 153.80164 434.2018 153.83679 434.20466 153.87195 434.20726 L 164.55848 434.99886 C 164.59896 435.00185 164.63947 435.0045 164.68 435.0068 L 175.18798 435.6016 C 175.2088 435.60276 175.2296 435.60404 175.25042 435.6054 L 187.2932 436.3951 C 187.3772 436.4006 187.46129 436.4046 187.54543 436.40707 L 200.99256 436.80257 C 201.01032 436.8031 201.02809 436.8037 201.04585 436.80434 L 211.6897 437.19856 C 211.77603 437.20176 211.8624 437.20335 211.9488 437.20335 L 222.5578 437.20335 C 222.59874 437.20335 222.63967 437.2037 222.6806 437.20443 L 233.76702 437.39893 C 233.9351 437.4019 234.1032 437.39877 234.27106 437.3896 L 244.8923 436.8103 C 244.9769 436.80566 245.06157 436.8026 245.1463 436.80104 L 255.91085 436.6053 C 255.98308 436.604 256.0553 436.6016 256.12745 436.59803 L 268.14607 436.00695 C 268.19483 436.00455 268.24355 436.00165 268.29225 435.99823 L 279.5323 435.20945 C 279.59023 435.2054 279.64812 435.2006 279.70594 435.1951 L 292.1165 434.01313 C 292.18497 434.0066 292.25352 434.0011 292.32214 433.9966 L 304.25416 433.2142 C 304.36418 433.20696 304.474 433.19715 304.58355 433.18475 L 314.9959 432.006 C 315.01144 432.00423 315.02697 432.0024 315.0425 432.00056 L 324.9902 430.80683 C 325.00954 430.8045 325.02886 430.8021 325.04818 430.79963 L 338.88394 429.0221 C 338.98115 429.0096 339.0781 428.99507 339.1747 428.9785 L 345.7282 427.85506 C 345.92915 427.8206 346.13153 427.79495 346.33473 427.77817 L 349.56706 427.5112 C 350.4563 427.43775 351.3233 427.19497 352.12135 426.79594 L 353.60765 426.0528 C 354.20824 425.7525 354.7625 425.36735 355.2534 424.9092 L 356.5885 423.6631 C 357.1953 423.0967 357.65073 422.38747 357.9132 421.6 L 358.20805 420.7155 C 358.2781 420.5053 358.33817 420.29187 358.388 420.07595 L 358.8577 418.04056 C 358.89293 417.8879 358.8595 417.7275 358.7662 417.6017 L 358.7662 417.6017 C 358.67587 417.4798 358.52523 417.4183 358.3754 417.44214 L 349.89555 418.7912 C 349.84466 418.7993 349.79385 418.80796 349.74315 418.8172 L 336.7584 421.17805 C 336.6656 421.1949 336.5725 421.2099 336.4791 421.223 L 325.24943 422.7991 C 325.2293 422.80194 325.20914 422.80486 325.18902 422.80786 L 312.06643 424.76645 C 311.90167 424.79105 311.73608 424.80975 311.56998 424.8225 L 298.84517 425.80136 C 298.82786 425.8027 298.81055 425.80396 298.79323 425.80516 L 284.4531 426.801 C 284.4305 426.80257 284.4079 426.80403 284.3853 426.8054 L 271.08205 427.5996 C 271.04016 427.6021 270.99824 427.60423 270.9563 427.606 L 256.76485 428.1973 C 256.66776 428.20133 256.5706 428.20335 256.47344 428.20335 L 243.2192 428.20335 L 230.67753 428.20335 C 230.63865 428.20335 230.59976 428.2037 230.56088 428.20433 L 218.8025 428.4003 C 218.68032 428.40234 218.55812 428.40117 218.436 428.3968 L 207.6024 428.0099 C 207.4803 428.00554 207.35809 428.00437 207.23591 428.0064 L 195.52127 428.20165 C 195.45323 428.2028 195.38518 428.20293 195.31713 428.2021 L 179.61484 428.0058 C 179.48444 428.00417 179.35411 427.9989 179.224 427.99 L 164.91423 427.00986 C 164.85088 427.0055 164.7876 427.0003 164.7244 426.99426 L 150.23339 425.6047 C 150.22393 425.6038 150.21448 425.6029 150.20503 425.60194 L 136.393 424.22073 C 136.27715 424.20915 136.16162 424.1947 136.0465 424.17733 L 121.73735 422.02116 C 121.65859 422.0093 121.57964 421.99877 121.50052 421.9896 L 107.98059 420.42207 C 107.87301 420.4096 107.76574 420.39463 107.65886 420.3772 L 98.26677 418.84377 C 98.10178 418.81684 97.9378 418.784 97.77516 418.7453 L 88.69756 416.58654 C 88.30925 416.4942 87.91959 416.7341 87.82724 417.12244 C 87.82116 417.148 87.81647 417.1739 87.81321 417.2 Z" fill="url(#Obj_Gradient_5)"/>
      <path d="M 87.81321 417.2 L 87.81321 417.2 C 87.74753 417.7255 87.81036 418.25905 87.9963 418.7549 L 88.64731 420.4909 C 88.82406 420.96227 89.05115 421.4132 89.32462 421.8358 L 90.29243 423.33153 C 90.83339 424.16756 91.54649 424.87855 92.38412 425.417 L 93.46217 426.11005 C 93.76243 426.30307 94.07701 426.47285 94.40316 426.6179 L 95.72001 427.2035 C 96.31654 427.46876 96.94725 427.6493 97.59379 427.7398 L 106.60421 429.00126 C 106.61421 429.00265 106.6242 429.00403 106.6342 429.0054 L 118.3502 430.594 C 118.3962 430.60024 118.44226 430.606 118.48838 430.61134 L 128.77131 431.79783 C 128.80324 431.8015 128.83519 431.805 128.86716 431.8082 L 142.57723 433.1991 C 142.60521 433.20193 142.63321 433.2046 142.66123 433.2071 L 153.76653 434.19865 C 153.80164 434.2018 153.83679 434.20466 153.87195 434.20726 L 164.55848 434.99886 C 164.59896 435.00185 164.63947 435.0045 164.68 435.0068 L 175.18798 435.6016 C 175.2088 435.60276 175.2296 435.60404 175.25042 435.6054 L 187.2932 436.3951 C 187.3772 436.4006 187.46129 436.4046 187.54543 436.40707 L 200.99256 436.80257 C 201.01032 436.8031 201.02809 436.8037 201.04585 436.80434 L 211.6897 437.19856 C 211.77603 437.20176 211.8624 437.20335 211.9488 437.20335 L 222.5578 437.20335 C 222.59874 437.20335 222.63967 437.2037 222.6806 437.20443 L 233.76702 437.39893 C 233.9351 437.4019 234.1032 437.39877 234.27106 437.3896 L 244.8923 436.8103 C 244.9769 436.80566 245.06157 436.8026 245.1463 436.80104 L 255.91085 436.6053 C 255.98308 436.604 256.0553 436.6016 256.12745 436.59803 L 268.14607 436.00695 C 268.19483 436.00455 268.24355 436.00165 268.29225 435.99823 L 279.5323 435.20945 C 279.59023 435.2054 279.64812 435.2006 279.70594 435.1951 L 292.1165 434.01313 C 292.18497 434.0066 292.25352 434.0011 292.32214 433.9966 L 304.25416 433.2142 C 304.36418 433.20696 304.474 433.19715 304.58355 433.18475 L 314.9959 432.006 C 315.01144 432.00423 315.02697 432.0024 315.0425 432.00056 L 324.9902 430.80683 C 325.00954 430.8045 325.02886 430.8021 325.04818 430.79963 L 338.88394 429.0221 C 338.98115 429.0096 339.0781 428.99507 339.1747 428.9785 L 345.7282 427.85506 C 345.92915 427.8206 346.13153 427.79495 346.33473 427.77817 L 349.56706 427.5112 C 350.4563 427.43775 351.3233 427.19497 352.12135 426.79594 L 353.60765 426.0528 C 354.20824 425.7525 354.7625 425.36735 355.2534 424.9092 L 356.5885 423.6631 C 357.1953 423.0967 357.65073 422.38747 357.9132 421.6 L 358.20805 420.7155 C 358.2781 420.5053 358.33817 420.29187 358.388 420.07595 L 358.8577 418.04056 C 358.89293 417.8879 358.8595 417.7275 358.7662 417.6017 L 358.7662 417.6017 C 358.67587 417.4798 358.52523 417.4183 358.3754 417.44214 L 349.89555 418.7912 C 349.84466 418.7993 349.79385 418.80796 349.74315 418.8172 L 336.7584 421.17805 C 336.6656 421.1949 336.5725 421.2099 336.4791 421.223 L 325.24943 422.7991 C 325.2293 422.80194 325.20914 422.80486 325.18902 422.80786 L 312.06643 424.76645 C 311.90167 424.79105 311.73608 424.80975 311.56998 424.8225 L 298.84517 425.80136 C 298.82786 425.8027 298.81055 425.80396 298.79323 425.80516 L 284.4531 426.801 C 284.4305 426.80257 284.4079 426.80403 284.3853 426.8054 L 271.08205 427.5996 C 271.04016 427.6021 270.99824 427.60423 270.9563 427.606 L 256.76485 428.1973 C 256.66776 428.20133 256.5706 428.20335 256.47344 428.20335 L 243.2192 428.20335 L 230.67753 428.20335 C 230.63865 428.20335 230.59976 428.2037 230.56088 428.20433 L 218.8025 428.4003 C 218.68032 428.40234 218.55812 428.40117 218.436 428.3968 L 207.6024 428.0099 C 207.4803 428.00554 207.35809 428.00437 207.23591 428.0064 L 195.52127 428.20165 C 195.45323 428.2028 195.38518 428.20293 195.31713 428.2021 L 179.61484 428.0058 C 179.48444 428.00417 179.35411 427.9989 179.224 427.99 L 164.91423 427.00986 C 164.85088 427.0055 164.7876 427.0003 164.7244 426.99426 L 150.23339 425.6047 C 150.22393 425.6038 150.21448 425.6029 150.20503 425.60194 L 136.393 424.22073 C 136.27715 424.20915 136.16162 424.1947 136.0465 424.17733 L 121.73735 422.02116 C 121.65859 422.0093 121.57964 421.99877 121.50052 421.9896 L 107.98059 420.42207 C 107.87301 420.4096 107.76574 420.39463 107.65886 420.3772 L 98.26677 418.84377 C 98.10178 418.81684 97.9378 418.784 97.77516 418.7453 L 88.69756 416.58654 C 88.30925 416.4942 87.91959 416.7341 87.82724 417.12244 C 87.82116 417.148 87.81647 417.1739 87.81321 417.2 Z" stroke="#7f8080" stroke-linecap="round" stroke-linejoin="round" stroke-width="1"/>
    </g>
  </g>
</svg>
