<?xml version="1.0" encoding="UTF-8" standalone="no"?>
<!DOCTYPE svg PUBLIC "-//W3C//DTD SVG 1.1//EN" "http://www.w3.org/Graphics/SVG/1.1/DTD/svg11.dtd">
<svg xmlns="http://www.w3.org/2000/svg" xmlns:xl="http://www.w3.org/1999/xlink" version="1.1" viewBox="49.5 23.541667 432.4053 449.30915" width="432.4053pt" height="449.30915pt" xmlns:dc="http://purl.org/dc/elements/1.1/">
  <metadata> Produced by OmniGraffle 7.6.1 
    <dc:date>2019-05-26 04:49:17 +0000</dc:date>
  </metadata>
  <defs>
    <radialGradient cx="0" cy="0" r="1" id="Gradient" gradientUnits="userSpaceOnUse">
      <stop offset="0" stop-color="#cbcbcb"/>
      <stop offset="1" stop-color="#021224"/>
    </radialGradient>
    <radialGradient id="Obj_Gradient" xl:href="#Gradient" gradientTransform="translate(264.75925 51.44167) scale(70.26272)"/>
    <linearGradient x1="0" x2="1" id="Gradient_2" gradientUnits="userSpaceOnUse">
      <stop offset="0" stop-color="#d61132"/>
      <stop offset="1" stop-color="#140303"/>
    </linearGradient>
    <linearGradient id="Obj_Gradient_2" xl:href="#Gradient_2" gradientTransform="translate(264.05925 26.232516) rotate(90) scale(446.1183)"/>
    <linearGradient x1="0" x2="1" id="Gradient_3" gradientUnits="userSpaceOnUse">
      <stop offset="0" stop-color="red"/>
      <stop offset="1" stop-color="#95191b"/>
    </linearGradient>
    <linearGradient id="Obj_Gradient_3" xl:href="#Gradient_3" gradientTransform="translate(95.7 68.48781) rotate(90) scale(137.2)"/>
    <linearGradient x1="0" x2="1" id="Gradient_4" gradientUnits="userSpaceOnUse">
      <stop offset="0" stop-color="red"/>
      <stop offset="1" stop-color="#9a1813"/>
    </linearGradient>
    <linearGradient id="Obj_Gradient_4" xl:href="#Gradient_4" gradientTransform="translate(434.63 68.61968) rotate(90) scale(137.2)"/>
    <radialGradient cx="0" cy="0" r="1" id="Gradient_5" gradientUnits="userSpaceOnUse">
      <stop offset="0" stop-color="red"/>
      <stop offset="1" stop-color="#333"/>
    </radialGradient>
    <radialGradient id="Obj_Gradient_5" xl:href="#Gradient_5" gradientTransform="translate(92.2 187.28781) scale(46.03694)"/>
    <radialGradient id="Obj_Gradient_6" xl:href="#Gradient_5" gradientTransform="translate(439.2053 186.34442) scale(46.03694)"/>
    <linearGradient x1="0" x2="1" id="Gradient_6" gradientUnits="userSpaceOnUse">
      <stop offset="0" stop-color="red"/>
      <stop offset="1" stop-color="#333"/>
    </linearGradient>
    <linearGradient id="Obj_Gradient_7" xl:href="#Gradient_6" gradientTransform="translate(264.78697 24.79756) rotate(90) scale(67.19884)"/>
    <linearGradient id="Obj_Gradient_8" xl:href="#Gradient_6" gradientTransform="translate(264.05925 24.79756) rotate(90) scale(25)"/>
    <radialGradient cx="0" cy="0" r="1" id="Gradient_7" gradientUnits="userSpaceOnUse">
      <stop offset="0" stop-color="#6a140b"/>
      <stop offset="1" stop-color="#0d081d"/>
    </radialGradient>
    <radialGradient id="Obj_Gradient_9" xl:href="#Gradient_7" gradientTransform="translate(264.2544 461.02505) scale(135.94141)"/>
  </defs>
  <g stroke="none" stroke-opacity="1" stroke-dasharray="none" fill="none" fill-opacity="1">
    <title>Rojo_01</title>
    <g>
      <title>Capa 1</title>
      <path d="M 203.00565 24.632113 L 211.1711 27.74983 C 212.0291 28.077427 212.90594 28.35334 213.79692 28.576086 L 227.5141 32.00538 C 228.67576 32.295794 229.85832 32.49505 231.051 32.60133 L 248.57715 34.163064 C 249.165 34.215447 249.75464 34.245183 250.34478 34.25221 L 265.8237 34.43648 C 266.11404 34.43994 266.40442 34.437896 266.6947 34.430357 L 281.118 34.055725 C 281.47878 34.046354 281.8393 34.028493 282.19924 34.002155 L 296.57053 32.950597 C 297.56197 32.878053 298.54766 32.74131 299.5214 32.541225 L 311.09436 30.16322 C 312.13637 29.94911 313.16226 29.662966 314.16465 29.306853 L 325.91664 25.131803 C 327.007 24.744434 328.2102 25.27521 328.65925 26.341667 L 328.65925 26.341667 C 329.1814 27.581772 329.3334 28.94652 329.09685 30.271116 L 328.91637 31.281805 C 328.6126 32.98296 328.11806 34.644462 327.44214 36.234855 L 325.8989 39.865975 C 325.34035 41.180247 324.6606 42.43964 323.86846 43.627845 L 320.1827 49.156517 C 319.43517 50.27778 318.59057 51.33118 317.6586 52.304557 L 311.36354 58.879404 C 310.49547 59.78606 309.55463 60.62013 308.55046 61.37326 L 300.17555 67.65444 C 299.29914 68.31175 298.37688 68.90561 297.4158 69.43147 L 290.2306 73.362995 C 288.9195 74.0804 287.54156 74.668305 286.11638 75.11836 L 279.44347 77.2256 C 277.7266 77.76777 275.952 78.10647 274.15613 78.23475 L 267.26968 78.72664 C 266.19738 78.80323 265.12103 78.80455 264.04854 78.73058 L 255.6123 78.14877 C 254.5781 78.07745 253.54994 77.93629 252.5348 77.72627 L 245.3996 76.25002 C 243.44765 75.84616 241.55647 75.19028 239.77362 74.29885 L 235.1142 71.96915 C 233.88007 71.35208 232.70397 70.62521 231.60012 69.79732 L 225.91816 65.53585 C 225.47903 65.2065 225.05182 64.861535 224.63737 64.501615 L 218.8822 59.503695 C 218.0679 58.79655 217.30436 58.03301 216.59722 57.218726 L 212.192 52.14604 C 211.4379 51.27768 210.74998 50.35398 210.13406 49.382716 L 206.40036 43.494955 C 206.0398 42.92637 205.70437 42.34223 205.39505 41.744215 L 203.77468 38.611493 C 203.16553 37.433815 202.65936 36.20567 202.26183 34.940778 L 200.98159 30.86729 C 200.7668 30.183914 200.58408 29.490878 200.43399 28.790447 L 200.35925 28.441667 C 200.16458 27.53324 200.27185 26.586098 200.66473 25.74421 L 200.75925 25.541667 C 201.15372 24.69636 202.1342 24.299374 203.00565 24.632113 Z" fill="url(#Obj_Gradient)"/>
      <path d="M 203.00565 24.632113 L 211.1711 27.74983 C 212.0291 28.077427 212.90594 28.35334 213.79692 28.576086 L 227.5141 32.00538 C 228.67576 32.295794 229.85832 32.49505 231.051 32.60133 L 248.57715 34.163064 C 249.165 34.215447 249.75464 34.245183 250.34478 34.25221 L 265.8237 34.43648 C 266.11404 34.43994 266.40442 34.437896 266.6947 34.430357 L 281.118 34.055725 C 281.47878 34.046354 281.8393 34.028493 282.19924 34.002155 L 296.57053 32.950597 C 297.56197 32.878053 298.54766 32.74131 299.5214 32.541225 L 311.09436 30.16322 C 312.13637 29.94911 313.16226 29.662966 314.16465 29.306853 L 325.91664 25.131803 C 327.007 24.744434 328.2102 25.27521 328.65925 26.341667 L 328.65925 26.341667 C 329.1814 27.581772 329.3334 28.94652 329.09685 30.271116 L 328.91637 31.281805 C 328.6126 32.98296 328.11806 34.644462 327.44214 36.234855 L 325.8989 39.865975 C 325.34035 41.180247 324.6606 42.43964 323.86846 43.627845 L 320.1827 49.156517 C 319.43517 50.27778 318.59057 51.33118 317.6586 52.304557 L 311.36354 58.879404 C 310.49547 59.78606 309.55463 60.62013 308.55046 61.37326 L 300.17555 67.65444 C 299.29914 68.31175 298.37688 68.90561 297.4158 69.43147 L 290.2306 73.362995 C 288.9195 74.0804 287.54156 74.668305 286.11638 75.11836 L 279.44347 77.2256 C 277.7266 77.76777 275.952 78.10647 274.15613 78.23475 L 267.26968 78.72664 C 266.19738 78.80323 265.12103 78.80455 264.04854 78.73058 L 255.6123 78.14877 C 254.5781 78.07745 253.54994 77.93629 252.5348 77.72627 L 245.3996 76.25002 C 243.44765 75.84616 241.55647 75.19028 239.77362 74.29885 L 235.1142 71.96915 C 233.88007 71.35208 232.70397 70.62521 231.60012 69.79732 L 225.91816 65.53585 C 225.47903 65.2065 225.05182 64.861535 224.63737 64.501615 L 218.8822 59.503695 C 218.0679 58.79655 217.30436 58.03301 216.59722 57.218726 L 212.192 52.14604 C 211.4379 51.27768 210.74998 50.35398 210.13406 49.382716 L 206.40036 43.494955 C 206.0398 42.92637 205.70437 42.34223 205.39505 41.744215 L 203.77468 38.611493 C 203.16553 37.433815 202.65936 36.20567 202.26183 34.940778 L 200.98159 30.86729 C 200.7668 30.183914 200.58408 29.490878 200.43399 28.790447 L 200.35925 28.441667 C 200.16458 27.53324 200.27185 26.586098 200.66473 25.74421 L 200.75925 25.541667 C 201.15372 24.69636 202.1342 24.299374 203.00565 24.632113 Z" stroke="#7f8080" stroke-linecap="round" stroke-linejoin="round" stroke-width="1"/>
      <path d="M 137.33006 462.2146 L 151.0723 464.50497 C 151.25568 464.53553 151.43957 464.5629 151.6239 464.58705 L 179.97754 468.30236 C 180.22407 468.33466 180.47132 468.3612 180.71908 468.382 L 210.96197 470.9185 C 211.21888 470.94004 211.47627 470.9554 211.7339 470.9645 L 250.66482 472.3408 C 250.85318 472.3475 251.04165 472.3508 251.23013 472.3508 L 282.69745 472.3508 C 282.86406 472.3508 283.03067 472.3482 283.1972 472.343 L 308.232 471.5607 C 308.44224 471.5541 308.65233 471.5434 308.86215 471.52853 L 330.9099 469.96763 C 331.0682 469.9564 331.22636 469.94286 331.38427 469.92695 L 356.64475 467.3813 C 356.8465 467.361 357.04783 467.3368 357.24865 467.30884 L 381.04134 463.99346 C 381.24535 463.96504 381.4488 463.93267 381.65156 463.8964 L 390.8474 462.2508 C 396.1745 461.29755 399.82536 456.3439 399.15895 450.97336 L 396.95136 433.1828 C 396.9487 433.1615 396.9461 433.14015 396.94355 433.1188 L 393.37973 403.4203 C 393.35817 403.24066 393.33966 403.06066 393.3242 402.8804 L 390.962 375.3212 C 390.95226 375.2076 390.94374 375.09393 390.93643 374.98018 L 389.5498 353.38853 C 389.5482 353.3634 389.5465 353.33825 389.5448 353.3131 L 387.95263 330.2268 C 387.94914 330.17614 387.9459 330.12547 387.94287 330.0748 L 386.7665 310.27262 C 386.75376 310.0581 386.74534 309.84336 386.74125 309.6285 L 386.34897 289.03366 C 386.3479 288.97843 386.34658 288.9232 386.34495 288.868 L 385.74983 268.63364 C 385.7482 268.57842 385.74686 268.5232 385.7458 268.46797 L 385.35515 247.95842 C 385.35 247.68673 385.35173 247.41494 385.3604 247.14334 L 385.94634 228.78373 C 385.94704 228.76179 385.9478 228.73984 385.94857 228.7179 L 386.73666 206.8486 C 386.7438 206.6501 386.75466 206.45174 386.7692 206.25364 L 388.32668 185.03302 C 388.3405 184.8449 388.35096 184.65654 388.3581 184.46805 L 389.11256 164.56918 C 389.13576 163.95744 389.19404 163.34753 389.28713 162.74246 L 392.02613 144.93894 C 392.1069 144.41385 392.2138 143.8931 392.3464 143.37864 L 396.97466 125.42098 C 397.08976 124.97441 397.2241 124.53302 397.37734 124.09806 L 403.0981 107.85842 C 403.2642 107.38694 403.4523 106.9235 403.6618 106.46964 L 409.19333 94.4846 C 409.296 94.2621 409.4038 94.042 409.5166 93.82445 L 414.87883 83.48303 C 414.92454 83.39489 414.97106 83.30717 415.0184 83.21989 L 420.2344 73.60293 C 420.97165 72.243575 421.9213 71.01068 423.0474 69.95081 L 423.0474 69.95081 C 423.7226 69.31534 423.7548 68.25284 423.1193 67.57765 C 422.9948 67.44537 422.84967 67.33418 422.68955 67.2484 L 419.4754 65.52654 C 419.25676 65.4094 419.0354 65.29737 418.81155 65.19052 L 410.95757 61.442035 C 410.55096 61.24797 410.13634 61.07117 409.7148 60.912104 L 400.04 57.26122 C 399.84494 57.18762 399.6485 57.11784 399.4507 57.05192 L 386.75623 52.820426 C 386.617 52.77402 386.47716 52.72953 386.3367 52.68697 L 373.4532 48.78287 C 373.38266 48.7615 373.31227 48.73964 373.24205 48.71729 L 360.73805 44.73875 C 360.34442 44.613504 359.9558 44.473063 359.57304 44.31774 L 347.5971 39.457938 C 346.76543 39.12045 345.96364 38.713586 345.2002 38.241645 L 335.58096 32.2952 C 335.42526 32.198948 335.2712 32.10003 335.1189 31.99849 L 330.2288 28.738427 C 329.2474 28.084164 328.3761 27.278264 327.6474 26.35081 L 327.6474 26.35081 C 327.5418 26.216406 327.34722 26.19306 327.2128 26.298662 C 327.11007 26.379387 327.0691 26.515938 327.1104 26.639893 L 327.2474 27.05081 C 327.70664 28.428562 327.8112 29.899848 327.5514 31.3287 L 327.15627 33.501966 C 326.88506 34.993624 326.4032 36.439163 325.7252 37.795216 L 324.19287 40.85985 C 323.89617 41.45325 323.56285 42.02762 323.19484 42.579636 L 319.99113 47.385193 C 319.56253 48.028094 319.08792 48.639104 318.57104 49.213425 L 314.009 54.282366 C 313.96792 54.327996 313.9266 54.37339 313.885 54.41854 L 307.89077 60.92657 C 307.26303 61.60811 306.5773 62.23383 305.84125 62.79668 L 300.81707 66.6387 C 300.37093 66.97987 299.90712 67.297314 299.4276 67.58971 L 292.9412 71.54484 C 292.27953 71.94829 291.58943 72.30313 290.87635 72.60657 L 283.76094 75.63441 C 282.95327 75.97809 282.1187 76.25474 281.26566 76.46153 L 277.1866 77.4504 C 276.36177 77.65036 275.52233 77.78437 274.67624 77.85117 L 268.97603 78.30118 C 268.5571 78.33426 268.13702 78.35081 267.7168 78.35081 L 260.68447 78.35081 C 259.92737 78.35081 259.17122 78.29707 258.42173 78.19 L 250.47528 77.0548 C 249.99027 76.98551 249.5087 76.89398 249.0321 76.7805 L 243.07087 75.36116 C 241.92538 75.08843 240.8135 74.69008 239.75543 74.173345 L 233.47543 71.10637 C 232.99038 70.86948 232.51763 70.6082 232.059 70.32353 L 227.84712 67.70927 C 227.24795 67.33737 226.67403 66.92627 226.1291 66.47865 L 221.683 62.82649 C 221.4593 62.64274 221.24063 62.45295 221.02723 62.257334 L 217.22489 58.77185 C 216.7736 58.358166 216.3464 57.91892 215.94546 57.456276 L 211.8267 52.703877 C 211.50733 52.33536 211.20496 51.95243 210.92056 51.556297 L 206.4909 45.38642 C 205.996 44.697107 205.55674 43.969515 205.17725 43.21053 L 202.60078 38.057602 C 202.56519 37.98641 202.53012 37.91495 202.4956 37.843235 L 201.24739 35.25081 C 200.39667 33.48394 200.04115 31.519405 200.2187 29.566453 L 200.3989 27.584197 C 200.4227 27.322335 200.22972 27.090756 199.96786 27.06695 C 199.80546 27.052187 199.6468 27.121562 199.54739 27.25081 L 199.54739 27.25081 C 198.88394 28.11329 198.10383 28.87937 197.22945 29.527057 L 193.33292 32.413378 C 193.20924 32.504995 193.08424 32.594823 192.95796 32.682833 L 188.33571 35.9044 C 187.14898 36.73152 185.85556 37.393887 184.4908 37.873393 L 179.88368 39.492113 C 179.3931 39.664476 178.91123 39.86065 178.43976 40.07994 L 171.59298 43.264487 C 170.89682 43.588283 170.17826 43.86155 169.44286 44.08217 L 158.57247 47.343287 C 158.55575 47.348303 158.53903 47.353347 158.52233 47.35842 L 147.55424 50.688016 C 147.41634 50.72988 147.27902 50.7736 147.1423 50.81917 L 134.22107 55.12625 C 134.17195 55.142624 134.12275 55.15876 134.07347 55.174656 L 122.70606 58.84156 C 122.06758 59.047524 121.44268 59.29344 120.83506 59.577855 L 112.9031 63.29069 C 112.53276 63.46404 112.1692 63.651524 111.81322 63.85273 L 105.86711 67.213575 C 104.61408 67.92181 104.17243 69.51174 104.88067 70.76477 C 104.95778 70.90121 105.04705 71.03041 105.14738 71.15081 L 106.0115 72.187745 C 106.76644 73.09368 107.41892 74.0803 107.95703 75.12963 L 111.03417 81.13005 C 111.10964 81.277215 111.18739 81.4232 111.26739 81.56796 L 115.22214 88.72418 C 115.30563 88.87526 115.38667 89.02768 115.46523 89.18138 L 119.57354 97.21937 C 119.8226 97.70668 120.04651 98.20644 120.24436 98.7167 L 123.72713 107.69858 C 123.74063 107.7334 123.75426 107.76818 123.768 107.8029 L 127.36433 116.88835 C 127.48634 117.19658 127.59874 117.50853 127.70136 117.82375 L 130.3232 125.87653 C 130.33932 125.92605 130.3552 125.97565 130.37084 126.02533 L 133.4429 135.7836 C 133.64568 136.42776 133.80749 137.08412 133.92734 137.74873 L 135.91265 148.75818 C 135.9358 148.8866 135.95739 149.0153 135.9774 149.14423 L 137.68327 160.13762 C 137.726 160.41303 137.76154 160.68952 137.78983 160.9668 L 138.67725 169.6635 C 138.72399 170.1215 138.75093 170.5813 138.75801 171.0416 L 138.94225 183.01723 C 138.94567 183.2396 138.95373 183.46187 138.96642 183.6839 L 139.7368 197.16546 C 139.74385 197.28902 139.75235 197.4125 139.76228 197.53587 L 141.09585 214.11024 C 141.13019 214.53712 141.14739 214.9652 141.14739 215.39345 L 141.14739 227.84324 C 141.14739 228.04827 141.15133 228.25328 141.1592 228.45817 L 141.73956 243.5473 C 141.74478 243.68297 141.74827 243.8187 141.75003 243.95446 L 141.94219 258.7507 C 141.94565 259.0174 141.94245 259.28414 141.93258 259.55067 L 141.35835 275.05482 C 141.35104 275.25213 141.34739 275.44956 141.34739 275.647 L 141.34739 289.24324 C 141.34739 289.44827 141.34344 289.6533 141.33556 289.85817 L 140.75037 305.07317 C 140.74838 305.12493 140.74614 305.1767 140.74364 305.22843 L 139.94832 321.73136 C 139.9477 321.74433 139.94706 321.7573 139.9464 321.77026 L 139.15191 337.46143 C 139.1489 337.52102 139.14554 337.5806 139.14186 337.64014 L 137.95295 356.86088 C 137.94924 356.92084 137.9452 356.98077 137.94081 357.0407 L 136.15767 381.41023 C 136.15081 381.50395 136.14313 381.5976 136.13462 381.6912 L 134.34873 401.336 C 134.34783 401.3459 134.34693 401.35575 134.34601 401.3656 L 132.57525 420.45053 C 132.55667 420.6507 132.53433 420.8505 132.50823 421.04984 L 130.54751 436.02256 C 130.4147 437.03675 130.14556 438.02837 129.74738 438.97054 L 129.74738 438.97054 C 129.34981 439.9113 129.10114 440.9082 129.01032 441.92547 L 128.24738 450.47054 C 127.73963 456.15757 131.6981 461.27594 137.33006 462.2146 Z" fill="url(#Obj_Gradient_2)"/>
      <path d="M 137.33006 462.2146 L 151.0723 464.50497 C 151.25568 464.53553 151.43957 464.5629 151.6239 464.58705 L 179.97754 468.30236 C 180.22407 468.33466 180.47132 468.3612 180.71908 468.382 L 210.96197 470.9185 C 211.21888 470.94004 211.47627 470.9554 211.7339 470.9645 L 250.66482 472.3408 C 250.85318 472.3475 251.04165 472.3508 251.23013 472.3508 L 282.69745 472.3508 C 282.86406 472.3508 283.03067 472.3482 283.1972 472.343 L 308.232 471.5607 C 308.44224 471.5541 308.65233 471.5434 308.86215 471.52853 L 330.9099 469.96763 C 331.0682 469.9564 331.22636 469.94286 331.38427 469.92695 L 356.64475 467.3813 C 356.8465 467.361 357.04783 467.3368 357.24865 467.30884 L 381.04134 463.99346 C 381.24535 463.96504 381.4488 463.93267 381.65156 463.8964 L 390.8474 462.2508 C 396.1745 461.29755 399.82536 456.3439 399.15895 450.97336 L 396.95136 433.1828 C 396.9487 433.1615 396.9461 433.14015 396.94355 433.1188 L 393.37973 403.4203 C 393.35817 403.24066 393.33966 403.06066 393.3242 402.8804 L 390.962 375.3212 C 390.95226 375.2076 390.94374 375.09393 390.93643 374.98018 L 389.5498 353.38853 C 389.5482 353.3634 389.5465 353.33825 389.5448 353.3131 L 387.95263 330.2268 C 387.94914 330.17614 387.9459 330.12547 387.94287 330.0748 L 386.7665 310.27262 C 386.75376 310.0581 386.74534 309.84336 386.74125 309.6285 L 386.34897 289.03366 C 386.3479 288.97843 386.34658 288.9232 386.34495 288.868 L 385.74983 268.63364 C 385.7482 268.57842 385.74686 268.5232 385.7458 268.46797 L 385.35515 247.95842 C 385.35 247.68673 385.35173 247.41494 385.3604 247.14334 L 385.94634 228.78373 C 385.94704 228.76179 385.9478 228.73984 385.94857 228.7179 L 386.73666 206.8486 C 386.7438 206.6501 386.75466 206.45174 386.7692 206.25364 L 388.32668 185.03302 C 388.3405 184.8449 388.35096 184.65654 388.3581 184.46805 L 389.11256 164.56918 C 389.13576 163.95744 389.19404 163.34753 389.28713 162.74246 L 392.02613 144.93894 C 392.1069 144.41385 392.2138 143.8931 392.3464 143.37864 L 396.97466 125.42098 C 397.08976 124.97441 397.2241 124.53302 397.37734 124.09806 L 403.0981 107.85842 C 403.2642 107.38694 403.4523 106.9235 403.6618 106.46964 L 409.19333 94.4846 C 409.296 94.2621 409.4038 94.042 409.5166 93.82445 L 414.87883 83.48303 C 414.92454 83.39489 414.97106 83.30717 415.0184 83.21989 L 420.2344 73.60293 C 420.97165 72.243575 421.9213 71.01068 423.0474 69.95081 L 423.0474 69.95081 C 423.7226 69.31534 423.7548 68.25284 423.1193 67.57765 C 422.9948 67.44537 422.84967 67.33418 422.68955 67.2484 L 419.4754 65.52654 C 419.25676 65.4094 419.0354 65.29737 418.81155 65.19052 L 410.95757 61.442035 C 410.55096 61.24797 410.13634 61.07117 409.7148 60.912104 L 400.04 57.26122 C 399.84494 57.18762 399.6485 57.11784 399.4507 57.05192 L 386.75623 52.820426 C 386.617 52.77402 386.47716 52.72953 386.3367 52.68697 L 373.4532 48.78287 C 373.38266 48.7615 373.31227 48.73964 373.24205 48.71729 L 360.73805 44.73875 C 360.34442 44.613504 359.9558 44.473063 359.57304 44.31774 L 347.5971 39.457938 C 346.76543 39.12045 345.96364 38.713586 345.2002 38.241645 L 335.58096 32.2952 C 335.42526 32.198948 335.2712 32.10003 335.1189 31.99849 L 330.2288 28.738427 C 329.2474 28.084164 328.3761 27.278264 327.6474 26.35081 L 327.6474 26.35081 C 327.5418 26.216406 327.34722 26.19306 327.2128 26.298662 C 327.11007 26.379387 327.0691 26.515938 327.1104 26.639893 L 327.2474 27.05081 C 327.70664 28.428562 327.8112 29.899848 327.5514 31.3287 L 327.15627 33.501966 C 326.88506 34.993624 326.4032 36.439163 325.7252 37.795216 L 324.19287 40.85985 C 323.89617 41.45325 323.56285 42.02762 323.19484 42.579636 L 319.99113 47.385193 C 319.56253 48.028094 319.08792 48.639104 318.57104 49.213425 L 314.009 54.282366 C 313.96792 54.327996 313.9266 54.37339 313.885 54.41854 L 307.89077 60.92657 C 307.26303 61.60811 306.5773 62.23383 305.84125 62.79668 L 300.81707 66.6387 C 300.37093 66.97987 299.90712 67.297314 299.4276 67.58971 L 292.9412 71.54484 C 292.27953 71.94829 291.58943 72.30313 290.87635 72.60657 L 283.76094 75.63441 C 282.95327 75.97809 282.1187 76.25474 281.26566 76.46153 L 277.1866 77.4504 C 276.36177 77.65036 275.52233 77.78437 274.67624 77.85117 L 268.97603 78.30118 C 268.5571 78.33426 268.13702 78.35081 267.7168 78.35081 L 260.68447 78.35081 C 259.92737 78.35081 259.17122 78.29707 258.42173 78.19 L 250.47528 77.0548 C 249.99027 76.98551 249.5087 76.89398 249.0321 76.7805 L 243.07087 75.36116 C 241.92538 75.08843 240.8135 74.69008 239.75543 74.173345 L 233.47543 71.10637 C 232.99038 70.86948 232.51763 70.6082 232.059 70.32353 L 227.84712 67.70927 C 227.24795 67.33737 226.67403 66.92627 226.1291 66.47865 L 221.683 62.82649 C 221.4593 62.64274 221.24063 62.45295 221.02723 62.257334 L 217.22489 58.77185 C 216.7736 58.358166 216.3464 57.91892 215.94546 57.456276 L 211.8267 52.703877 C 211.50733 52.33536 211.20496 51.95243 210.92056 51.556297 L 206.4909 45.38642 C 205.996 44.697107 205.55674 43.969515 205.17725 43.21053 L 202.60078 38.057602 C 202.56519 37.98641 202.53012 37.91495 202.4956 37.843235 L 201.24739 35.25081 C 200.39667 33.48394 200.04115 31.519405 200.2187 29.566453 L 200.3989 27.584197 C 200.4227 27.322335 200.22972 27.090756 199.96786 27.06695 C 199.80546 27.052187 199.6468 27.121562 199.54739 27.25081 L 199.54739 27.25081 C 198.88394 28.11329 198.10383 28.87937 197.22945 29.527057 L 193.33292 32.413378 C 193.20924 32.504995 193.08424 32.594823 192.95796 32.682833 L 188.33571 35.9044 C 187.14898 36.73152 185.85556 37.393887 184.4908 37.873393 L 179.88368 39.492113 C 179.3931 39.664476 178.91123 39.86065 178.43976 40.07994 L 171.59298 43.264487 C 170.89682 43.588283 170.17826 43.86155 169.44286 44.08217 L 158.57247 47.343287 C 158.55575 47.348303 158.53903 47.353347 158.52233 47.35842 L 147.55424 50.688016 C 147.41634 50.72988 147.27902 50.7736 147.1423 50.81917 L 134.22107 55.12625 C 134.17195 55.142624 134.12275 55.15876 134.07347 55.174656 L 122.70606 58.84156 C 122.06758 59.047524 121.44268 59.29344 120.83506 59.577855 L 112.9031 63.29069 C 112.53276 63.46404 112.1692 63.651524 111.81322 63.85273 L 105.86711 67.213575 C 104.61408 67.92181 104.17243 69.51174 104.88067 70.76477 C 104.95778 70.90121 105.04705 71.03041 105.14738 71.15081 L 106.0115 72.187745 C 106.76644 73.09368 107.41892 74.0803 107.95703 75.12963 L 111.03417 81.13005 C 111.10964 81.277215 111.18739 81.4232 111.26739 81.56796 L 115.22214 88.72418 C 115.30563 88.87526 115.38667 89.02768 115.46523 89.18138 L 119.57354 97.21937 C 119.8226 97.70668 120.04651 98.20644 120.24436 98.7167 L 123.72713 107.69858 C 123.74063 107.7334 123.75426 107.76818 123.768 107.8029 L 127.36433 116.88835 C 127.48634 117.19658 127.59874 117.50853 127.70136 117.82375 L 130.3232 125.87653 C 130.33932 125.92605 130.3552 125.97565 130.37084 126.02533 L 133.4429 135.7836 C 133.64568 136.42776 133.80749 137.08412 133.92734 137.74873 L 135.91265 148.75818 C 135.9358 148.8866 135.95739 149.0153 135.9774 149.14423 L 137.68327 160.13762 C 137.726 160.41303 137.76154 160.68952 137.78983 160.9668 L 138.67725 169.6635 C 138.72399 170.1215 138.75093 170.5813 138.75801 171.0416 L 138.94225 183.01723 C 138.94567 183.2396 138.95373 183.46187 138.96642 183.6839 L 139.7368 197.16546 C 139.74385 197.28902 139.75235 197.4125 139.76228 197.53587 L 141.09585 214.11024 C 141.13019 214.53712 141.14739 214.9652 141.14739 215.39345 L 141.14739 227.84324 C 141.14739 228.04827 141.15133 228.25328 141.1592 228.45817 L 141.73956 243.5473 C 141.74478 243.68297 141.74827 243.8187 141.75003 243.95446 L 141.94219 258.7507 C 141.94565 259.0174 141.94245 259.28414 141.93258 259.55067 L 141.35835 275.05482 C 141.35104 275.25213 141.34739 275.44956 141.34739 275.647 L 141.34739 289.24324 C 141.34739 289.44827 141.34344 289.6533 141.33556 289.85817 L 140.75037 305.07317 C 140.74838 305.12493 140.74614 305.1767 140.74364 305.22843 L 139.94832 321.73136 C 139.9477 321.74433 139.94706 321.7573 139.9464 321.77026 L 139.15191 337.46143 C 139.1489 337.52102 139.14554 337.5806 139.14186 337.64014 L 137.95295 356.86088 C 137.94924 356.92084 137.9452 356.98077 137.94081 357.0407 L 136.15767 381.41023 C 136.15081 381.50395 136.14313 381.5976 136.13462 381.6912 L 134.34873 401.336 C 134.34783 401.3459 134.34693 401.35575 134.34601 401.3656 L 132.57525 420.45053 C 132.55667 420.6507 132.53433 420.8505 132.50823 421.04984 L 130.54751 436.02256 C 130.4147 437.03675 130.14556 438.02837 129.74738 438.97054 L 129.74738 438.97054 C 129.34981 439.9113 129.10114 440.9082 129.01032 441.92547 L 128.24738 450.47054 C 127.73963 456.15757 131.6981 461.27594 137.33006 462.2146 Z" stroke="#7f8080" stroke-linecap="round" stroke-linejoin="round" stroke-width="1"/>
      <path d="M 50 175.48781 L 56.2 179.88781 L 64.4 183.88781 L 73 187.48781 L 82 191.28781 L 93 195.28781 L 102.4 198.08781 L 111.4 200.68781 L 120.4 203.28781 L 125.8 204.68781 L 131.4 205.68781 L 133.8 199.88781 L 136.4 194.48781 L 138.6 190.48781 L 141.2 187.08781 L 141.4 178.08781 L 140.8 167.08781 L 139 156.28781 L 137.4 145.88781 L 134.8 134.88781 L 132.4 125.28781 L 129.6 117.28781 L 126.4 107.88781 L 123.6 100.48781 L 120 92.88781 L 116 85.28781 L 112 77.88781 L 109.4 74.28781 L 105.8 68.48781 L 100.4 72.88781 L 95.6 77.68781 L 91 83.88781 L 86.6 90.08781 L 81.8 98.68781 L 77 108.08781 L 72.2 117.28781 L 68.6 125.88781 L 64.6 134.88781 L 61.4 143.08781 L 57.6 152.48781 L 54.8 160.48781 L 51.8 168.88781 Z" fill="url(#Obj_Gradient_3)"/>
      <path d="M 50 175.48781 L 56.2 179.88781 L 64.4 183.88781 L 73 187.48781 L 82 191.28781 L 93 195.28781 L 102.4 198.08781 L 111.4 200.68781 L 120.4 203.28781 L 125.8 204.68781 L 131.4 205.68781 L 133.8 199.88781 L 136.4 194.48781 L 138.6 190.48781 L 141.2 187.08781 L 141.4 178.08781 L 140.8 167.08781 L 139 156.28781 L 137.4 145.88781 L 134.8 134.88781 L 132.4 125.28781 L 129.6 117.28781 L 126.4 107.88781 L 123.6 100.48781 L 120 92.88781 L 116 85.28781 L 112 77.88781 L 109.4 74.28781 L 105.8 68.48781 L 100.4 72.88781 L 95.6 77.68781 L 91 83.88781 L 86.6 90.08781 L 81.8 98.68781 L 77 108.08781 L 72.2 117.28781 L 68.6 125.88781 L 64.6 134.88781 L 61.4 143.08781 L 57.6 152.48781 L 54.8 160.48781 L 51.8 168.88781 Z" stroke="#7f8080" stroke-linecap="round" stroke-linejoin="round" stroke-width="1"/>
      <path d="M 480.33 175.61968 L 474.13 180.01968 L 465.93 184.01968 L 457.33 187.61969 L 448.33 191.41969 L 437.33 195.41969 L 427.93 198.21969 L 418.93 200.81969 L 409.93 203.41969 L 404.53 204.81969 L 398.93 205.81969 L 396.53 200.01969 L 393.93 194.61969 L 391.73 190.61969 L 389.13 187.21969 L 388.93 178.21968 L 389.53 167.21968 L 391.33 156.41968 L 392.93 146.01968 L 395.53 135.01968 L 397.93 125.41968 L 400.73 117.41968 L 403.93 108.01968 L 406.73 100.61968 L 410.33 93.01968 L 414.33 85.41968 L 418.33 78.01968 L 420.93 74.41968 L 424.53 68.61968 L 429.93 73.01968 L 434.73 77.81968 L 439.33 84.01968 L 443.73 90.21968 L 448.53 98.81968 L 453.33 108.21968 L 458.13 117.41968 L 461.73 126.01968 L 465.73 135.01968 L 468.93 143.21968 L 472.73 152.61968 L 475.53 160.61968 L 478.53 169.01968 Z" fill="url(#Obj_Gradient_4)"/>
      <path d="M 480.33 175.61968 L 474.13 180.01968 L 465.93 184.01968 L 457.33 187.61969 L 448.33 191.41969 L 437.33 195.41969 L 427.93 198.21969 L 418.93 200.81969 L 409.93 203.41969 L 404.53 204.81969 L 398.93 205.81969 L 396.53 200.01969 L 393.93 194.61969 L 391.73 190.61969 L 389.13 187.21969 L 388.93 178.21968 L 389.53 167.21968 L 391.33 156.41968 L 392.93 146.01968 L 395.53 135.01968 L 397.93 125.41968 L 400.73 117.41968 L 403.93 108.01968 L 406.73 100.61968 L 410.33 93.01968 L 414.33 85.41968 L 418.33 78.01968 L 420.93 74.41968 L 424.53 68.61968 L 429.93 73.01968 L 434.73 77.81968 L 439.33 84.01968 L 443.73 90.21968 L 448.53 98.81968 L 453.33 108.21968 L 458.13 117.41968 L 461.73 126.01968 L 465.73 135.01968 L 468.93 143.21968 L 472.73 152.61968 L 475.53 160.61968 L 478.53 169.01968 Z" stroke="#7f8080" stroke-linecap="round" stroke-linejoin="round" stroke-width="1"/>
      <path d="M 50 175.48781 L 56.2 179.88781 L 64.4 183.88781 L 73 187.48781 L 82 191.28781 L 93 195.28781 L 102.4 198.08781 L 111.4 200.68781 L 120.4 203.28781 L 125.8 204.68781 L 131.4 205.68781 L 134.4 199.28781 L 130.6 198.48781 L 125.8 197.28781 L 120.2 196.08781 L 114.2 194.28781 L 109.6 192.88781 L 105.4 191.68781 L 100.8 189.68781 L 96.2 188.08781 L 91.4 186.08781 L 87.4 184.68781 L 82.2 182.48781 L 77.6 180.88781 L 72.8 178.68781 L 68 176.88781 L 64 174.88781 L 59.6 172.68781 L 55.2 170.48781 L 51.8 168.88781 Z" fill="url(#Obj_Gradient_5)"/>
      <path d="M 50 175.48781 L 56.2 179.88781 L 64.4 183.88781 L 73 187.48781 L 82 191.28781 L 93 195.28781 L 102.4 198.08781 L 111.4 200.68781 L 120.4 203.28781 L 125.8 204.68781 L 131.4 205.68781 L 134.4 199.28781 L 130.6 198.48781 L 125.8 197.28781 L 120.2 196.08781 L 114.2 194.28781 L 109.6 192.88781 L 105.4 191.68781 L 100.8 189.68781 L 96.2 188.08781 L 91.4 186.08781 L 87.4 184.68781 L 82.2 182.48781 L 77.6 180.88781 L 72.8 178.68781 L 68 176.88781 L 64 174.88781 L 59.6 172.68781 L 55.2 170.48781 L 51.8 168.88781 Z" stroke="#7f8080" stroke-linecap="round" stroke-linejoin="round" stroke-width="1"/>
      <path d="M 481.4053 174.54442 L 475.2053 178.94442 L 467.0053 182.94442 L 458.4053 186.54442 L 449.4053 190.34442 L 438.4053 194.34442 L 429.0053 197.14442 L 420.0053 199.74442 L 411.0053 202.34442 L 405.6053 203.74442 L 400.0053 204.74442 L 397.0053 198.34442 L 400.8053 197.54442 L 405.6053 196.34442 L 411.2053 195.14442 L 417.2053 193.34442 L 421.8053 191.94442 L 426.0053 190.74442 L 430.6053 188.74442 L 435.2053 187.14442 L 440.0053 185.14442 L 444.0053 183.74442 L 449.2053 181.54442 L 453.8053 179.94442 L 458.6053 177.74442 L 463.4053 175.94442 L 467.4053 173.94442 L 471.8053 171.74442 L 476.2053 169.54442 L 479.6053 167.94442 Z" fill="url(#Obj_Gradient_6)"/>
      <path d="M 481.4053 174.54442 L 475.2053 178.94442 L 467.0053 182.94442 L 458.4053 186.54442 L 449.4053 190.34442 L 438.4053 194.34442 L 429.0053 197.14442 L 420.0053 199.74442 L 411.0053 202.34442 L 405.6053 203.74442 L 400.0053 204.74442 L 397.0053 198.34442 L 400.8053 197.54442 L 405.6053 196.34442 L 411.2053 195.14442 L 417.2053 193.34442 L 421.8053 191.94442 L 426.0053 190.74442 L 430.6053 188.74442 L 435.2053 187.14442 L 440.0053 185.14442 L 444.0053 183.74442 L 449.2053 181.54442 L 453.8053 179.94442 L 458.6053 177.74442 L 463.4053 175.94442 L 467.4053 173.94442 L 471.8053 171.74442 L 476.2053 169.54442 L 479.6053 167.94442 Z" stroke="#7f8080" stroke-linecap="round" stroke-linejoin="round" stroke-width="1"/>
      <path d="M 200.57212 26.005455 L 195.84295 30.05903 C 194.6926 31.04504 193.44764 31.914975 192.12621 32.65615 L 189.59958 34.073316 C 188.1644 34.87829 187.5836 36.64742 188.2624 38.1464 L 189.28 40.393635 C 189.40158 40.66212 189.52831 40.928247 189.66012 41.19186 L 191.4624 44.7964 L 193.94938 49.770374 C 194.29117 50.45397 194.66683 51.1201 195.07495 51.76629 L 197.40134 55.44975 C 197.84172 56.14701 198.31928 56.820086 198.83195 57.466054 L 202.24264 61.763514 C 202.7887 62.45154 203.3737 63.10772 203.99482 63.72883 L 208.66087 68.39488 C 209.06175 68.79576 209.4773 69.18168 209.9067 69.55185 L 214.47023 73.48592 C 214.8649 73.826144 215.271 74.15286 215.68785 74.46549 L 219.66279 77.4467 C 220.3287 77.94613 221.02123 78.40905 221.73733 78.8334 L 225.8704 81.28263 C 225.9984 81.35848 226.12712 81.43308 226.25656 81.50643 L 230.9541 84.16837 C 231.6924 84.58674 232.45328 84.96392 233.23325 85.2982 L 236.78307 86.81955 C 237.36903 87.07068 237.96518 87.29733 238.56997 87.49893 L 243.58808 89.17163 C 244.83532 89.58738 246.11592 89.89542 247.4158 90.09237 L 251.51464 90.71341 C 251.87976 90.76873 252.24615 90.81525 252.6135 90.85293 L 259.4946 91.55868 C 259.73978 91.58383 259.98534 91.60503 260.2312 91.62228 L 264.75835 91.93998 C 265.2942 91.97758 265.83122 91.9964 266.3684 91.9964 L 269.63046 91.9964 C 270.58416 91.9964 271.53693 91.93709 272.48327 91.81879 L 276.47198 91.3202 C 277.13195 91.23771 277.78802 91.12663 278.43835 90.98727 L 284.5204 89.68398 C 285.41426 89.49243 286.29592 89.24776 287.16068 88.95128 L 291.66952 87.40539 C 292.46417 87.13294 293.2433 86.81715 294.0034 86.45946 L 298.83677 84.18493 C 299.38697 83.92601 299.92668 83.64538 300.45464 83.34369 L 304.2225 81.19062 C 304.9153 80.794745 305.587 80.36308 306.23494 79.89739 L 310.91106 76.53642 C 311.41175 76.17655 311.89776 75.7967 312.3679 75.39778 L 317.68877 70.88311 C 318.0711 70.558726 318.4427 70.221925 318.803 69.87325 L 323.5022 65.32562 C 324.1418 64.706664 324.7449 64.0511 325.30852 63.36224 L 329.1018 58.72601 C 329.6085 58.10669 330.08257 57.461356 330.522 56.79263 L 334.1392 51.28823 C 334.35462 50.9604 334.56163 50.62711 334.76 50.28869 L 337.2831 45.98459 C 337.66906 45.326206 338.022 44.64902 338.34062 43.955546 L 340.4593 39.344277 C 340.99218 38.184516 341.36334 36.957103 341.5624 35.6964 L 341.5624 35.6964 C 341.7407 34.56714 341.1614 33.453692 340.1343 32.951565 L 334.84088 30.363662 C 333.52642 29.721038 332.29183 28.92653 331.1624 27.996402 L 330.7564 27.66204 C 329.91205 26.96671 329.28864 26.040404 328.9624 24.996402 L 328.9624 24.996402 C 328.91573 24.847085 328.75686 24.763867 328.60754 24.810528 C 328.49247 24.84649 328.41277 24.951352 328.40892 25.071854 L 328.29968 28.494777 C 328.20894 31.337853 327.5916 34.13943 326.479 36.757334 L 325.60206 38.82071 C 325.0435 40.13498 324.36374 41.394376 323.5716 42.58258 L 319.88582 48.11125 C 319.1383 49.232515 318.2937 50.285914 317.36175 51.25929 L 311.0667 57.83414 C 310.1986 58.74079 309.25777 59.57486 308.2536 60.32799 L 299.8787 66.60917 C 299.00228 67.266485 298.08 67.86034 297.11896 68.3862 L 289.93376 72.31773 C 288.62263 73.03514 287.2447 73.62304 285.8195 74.0731 L 279.1466 76.18033 C 277.42973 76.7225 275.65514 77.061205 273.85927 77.18948 L 266.9728 77.68137 C 265.90052 77.75796 264.82417 77.75928 263.7517 77.68532 L 255.31543 77.10351 C 254.28125 77.032185 253.25308 76.89103 252.23795 76.681 L 245.10274 75.20475 C 243.1508 74.8009 241.2596 74.14501 239.47676 73.25359 L 234.81735 70.92388 C 233.5832 70.30681 232.4071 69.57994 231.30326 68.75206 L 225.6213 64.49059 C 225.18217 64.161236 224.75496 63.81627 224.3405 63.45635 L 218.58533 58.45843 C 217.77104 57.751286 217.0075 56.987746 216.30036 56.17346 L 211.89513 51.100777 C 211.14103 50.232416 210.45312 49.308716 209.8372 48.33745 L 206.1035 42.44969 C 205.74293 41.881105 205.4075 41.29696 205.0982 40.69895 L 203.47781 37.566227 C 202.86867 36.38855 202.3625 35.160402 201.96497 33.89551 L 200.68473 29.822024 C 200.46995 29.13865 200.28722 28.445612 200.13713 27.74518 L 199.9117 26.693235 C 199.82664 26.296224 200.053 25.898573 200.4378 25.769034 L 200.4378 25.769034 C 200.5103 25.74463 200.58884 25.783614 200.61325 25.85611 C 200.63126 25.90962 200.615 25.96871 200.57212 26.005455 Z" fill="url(#Obj_Gradient_7)"/>
      <path d="M 200.57212 26.005455 L 195.84295 30.05903 C 194.6926 31.04504 193.44764 31.914975 192.12621 32.65615 L 189.59958 34.073316 C 188.1644 34.87829 187.5836 36.64742 188.2624 38.1464 L 189.28 40.393635 C 189.40158 40.66212 189.52831 40.928247 189.66012 41.19186 L 191.4624 44.7964 L 193.94938 49.770374 C 194.29117 50.45397 194.66683 51.1201 195.07495 51.76629 L 197.40134 55.44975 C 197.84172 56.14701 198.31928 56.820086 198.83195 57.466054 L 202.24264 61.763514 C 202.7887 62.45154 203.3737 63.10772 203.99482 63.72883 L 208.66087 68.39488 C 209.06175 68.79576 209.4773 69.18168 209.9067 69.55185 L 214.47023 73.48592 C 214.8649 73.826144 215.271 74.15286 215.68785 74.46549 L 219.66279 77.4467 C 220.3287 77.94613 221.02123 78.40905 221.73733 78.8334 L 225.8704 81.28263 C 225.9984 81.35848 226.12712 81.43308 226.25656 81.50643 L 230.9541 84.16837 C 231.6924 84.58674 232.45328 84.96392 233.23325 85.2982 L 236.78307 86.81955 C 237.36903 87.07068 237.96518 87.29733 238.56997 87.49893 L 243.58808 89.17163 C 244.83532 89.58738 246.11592 89.89542 247.4158 90.09237 L 251.51464 90.71341 C 251.87976 90.76873 252.24615 90.81525 252.6135 90.85293 L 259.4946 91.55868 C 259.73978 91.58383 259.98534 91.60503 260.2312 91.62228 L 264.75835 91.93998 C 265.2942 91.97758 265.83122 91.9964 266.3684 91.9964 L 269.63046 91.9964 C 270.58416 91.9964 271.53693 91.93709 272.48327 91.81879 L 276.47198 91.3202 C 277.13195 91.23771 277.78802 91.12663 278.43835 90.98727 L 284.5204 89.68398 C 285.41426 89.49243 286.29592 89.24776 287.16068 88.95128 L 291.66952 87.40539 C 292.46417 87.13294 293.2433 86.81715 294.0034 86.45946 L 298.83677 84.18493 C 299.38697 83.92601 299.92668 83.64538 300.45464 83.34369 L 304.2225 81.19062 C 304.9153 80.794745 305.587 80.36308 306.23494 79.89739 L 310.91106 76.53642 C 311.41175 76.17655 311.89776 75.7967 312.3679 75.39778 L 317.68877 70.88311 C 318.0711 70.558726 318.4427 70.221925 318.803 69.87325 L 323.5022 65.32562 C 324.1418 64.706664 324.7449 64.0511 325.30852 63.36224 L 329.1018 58.72601 C 329.6085 58.10669 330.08257 57.461356 330.522 56.79263 L 334.1392 51.28823 C 334.35462 50.9604 334.56163 50.62711 334.76 50.28869 L 337.2831 45.98459 C 337.66906 45.326206 338.022 44.64902 338.34062 43.955546 L 340.4593 39.344277 C 340.99218 38.184516 341.36334 36.957103 341.5624 35.6964 L 341.5624 35.6964 C 341.7407 34.56714 341.1614 33.453692 340.1343 32.951565 L 334.84088 30.363662 C 333.52642 29.721038 332.29183 28.92653 331.1624 27.996402 L 330.7564 27.66204 C 329.91205 26.96671 329.28864 26.040404 328.9624 24.996402 L 328.9624 24.996402 C 328.91573 24.847085 328.75686 24.763867 328.60754 24.810528 C 328.49247 24.84649 328.41277 24.951352 328.40892 25.071854 L 328.29968 28.494777 C 328.20894 31.337853 327.5916 34.13943 326.479 36.757334 L 325.60206 38.82071 C 325.0435 40.13498 324.36374 41.394376 323.5716 42.58258 L 319.88582 48.11125 C 319.1383 49.232515 318.2937 50.285914 317.36175 51.25929 L 311.0667 57.83414 C 310.1986 58.74079 309.25777 59.57486 308.2536 60.32799 L 299.8787 66.60917 C 299.00228 67.266485 298.08 67.86034 297.11896 68.3862 L 289.93376 72.31773 C 288.62263 73.03514 287.2447 73.62304 285.8195 74.0731 L 279.1466 76.18033 C 277.42973 76.7225 275.65514 77.061205 273.85927 77.18948 L 266.9728 77.68137 C 265.90052 77.75796 264.82417 77.75928 263.7517 77.68532 L 255.31543 77.10351 C 254.28125 77.032185 253.25308 76.89103 252.23795 76.681 L 245.10274 75.20475 C 243.1508 74.8009 241.2596 74.14501 239.47676 73.25359 L 234.81735 70.92388 C 233.5832 70.30681 232.4071 69.57994 231.30326 68.75206 L 225.6213 64.49059 C 225.18217 64.161236 224.75496 63.81627 224.3405 63.45635 L 218.58533 58.45843 C 217.77104 57.751286 217.0075 56.987746 216.30036 56.17346 L 211.89513 51.100777 C 211.14103 50.232416 210.45312 49.308716 209.8372 48.33745 L 206.1035 42.44969 C 205.74293 41.881105 205.4075 41.29696 205.0982 40.69895 L 203.47781 37.566227 C 202.86867 36.38855 202.3625 35.160402 201.96497 33.89551 L 200.68473 29.822024 C 200.46995 29.13865 200.28722 28.445612 200.13713 27.74518 L 199.9117 26.693235 C 199.82664 26.296224 200.053 25.898573 200.4378 25.769034 L 200.4378 25.769034 C 200.5103 25.74463 200.58884 25.783614 200.61325 25.85611 C 200.63126 25.90962 200.615 25.96871 200.57212 26.005455 Z" stroke="#7f8080" stroke-linecap="round" stroke-linejoin="round" stroke-width="1"/>
      <path d="M 200.05925 25.79756 L 205.45925 25.19756 L 212.25925 28.59756 L 217.25925 30.39756 L 225.65925 32.19756 L 234.05925 33.19756 L 242.05925 34.19756 L 249.65925 34.39756 L 258.25925 34.79756 L 269.85925 34.59756 L 278.25925 34.19756 L 287.65925 33.59756 L 296.05925 32.79756 L 305.25925 31.39756 L 313.45925 29.19756 L 319.25925 27.39756 L 324.85925 24.79756 L 327.65925 25.99756 L 328.05925 31.59756 L 325.25925 39.59756 L 319.85925 42.39756 L 309.25925 45.59756 L 297.85925 47.99756 L 286.65925 48.79756 L 274.25925 49.79756 L 263.85925 49.79756 L 254.45925 49.79756 L 242.85925 49.19756 L 231.65925 48.39756 L 221.05925 46.19756 L 212.45925 44.19756 L 206.25925 41.39756 L 204.25925 39.79756 L 201.05925 32.19756 Z" fill="url(#Obj_Gradient_8)"/>
      <path d="M 200.05925 25.79756 L 205.45925 25.19756 L 212.25925 28.59756 L 217.25925 30.39756 L 225.65925 32.19756 L 234.05925 33.19756 L 242.05925 34.19756 L 249.65925 34.39756 L 258.25925 34.79756 L 269.85925 34.59756 L 278.25925 34.19756 L 287.65925 33.59756 L 296.05925 32.79756 L 305.25925 31.39756 L 313.45925 29.19756 L 319.25925 27.39756 L 324.85925 24.79756 L 327.65925 25.99756 L 328.05925 31.59756 L 325.25925 39.59756 L 319.85925 42.39756 L 309.25925 45.59756 L 297.85925 47.99756 L 286.65925 48.79756 L 274.25925 49.79756 L 263.85925 49.79756 L 254.45925 49.79756 L 242.85925 49.19756 L 231.65925 48.39756 L 221.05925 46.19756 L 212.45925 44.19756 L 206.25925 41.39756 L 204.25925 39.79756 L 201.05925 32.19756 Z" stroke="#7f8080" stroke-linecap="round" stroke-linejoin="round" stroke-width="1"/>
      <path d="M 128.73794 451.2417 L 128.73794 451.2417 C 128.67226 451.76715 128.73509 452.3007 128.92103 452.79657 L 129.57204 454.5326 C 129.7488 455.00394 129.97588 455.45485 130.24935 455.8775 L 131.21716 457.3732 C 131.75812 458.2092 132.47123 458.9202 133.30885 459.4587 L 134.3869 460.1517 C 134.68716 460.34474 135.00174 460.5145 135.32789 460.65955 L 136.64474 461.24515 C 137.24127 461.5104 137.87198 461.69095 138.51852 461.78146 L 147.52894 463.0429 C 147.53894 463.0443 147.54893 463.0457 147.55893 463.04705 L 159.27493 464.63566 C 159.32093 464.6419 159.367 464.6477 159.41311 464.653 L 169.69605 465.8395 C 169.72797 465.8432 169.75992 465.84664 169.7919 465.8499 L 183.50196 467.24076 C 183.52994 467.2436 183.55794 467.24627 183.58596 467.2488 L 194.69126 468.2403 C 194.72638 468.24345 194.76152 468.2463 194.79668 468.2489 L 205.48322 469.0405 C 205.5237 469.0435 205.5642 469.04617 205.60472 469.04846 L 216.1127 469.64325 C 216.13353 469.64443 216.15434 469.6457 216.17515 469.64707 L 228.21792 470.43676 C 228.30193 470.44227 228.38602 470.44626 228.47016 470.44873 L 241.9173 470.84424 C 241.93505 470.84476 241.95282 470.84535 241.97058 470.846 L 252.61444 471.2402 C 252.70076 471.2434 252.78714 471.245 252.87352 471.245 L 263.48254 471.245 C 263.52347 471.245 263.5644 471.2454 263.60533 471.2461 L 274.69175 471.4406 C 274.85982 471.44354 275.02794 471.44044 275.1958 471.4313 L 285.81702 470.85194 C 285.90162 470.84733 285.9863 470.84425 286.07102 470.8427 L 296.8356 470.647 C 296.9078 470.6457 296.98002 470.64325 297.05218 470.6397 L 309.0708 470.0486 C 309.11956 470.0462 309.1683 470.0433 309.21698 470.0399 L 320.45703 469.2511 C 320.51497 469.24705 320.57285 469.24227 320.63067 469.23676 L 333.04124 468.0548 C 333.1097 468.0483 333.17825 468.04277 333.24687 468.03827 L 345.1789 467.25584 C 345.2889 467.24863 345.39874 467.2388 345.5083 467.2264 L 355.92063 466.04766 C 355.93617 466.0459 355.9517 466.0441 355.96723 466.0422 L 365.91494 464.8485 C 365.93427 464.8462 365.9536 464.8438 365.9729 464.8413 L 379.80867 463.06376 C 379.9059 463.05127 380.00283 463.03674 380.09943 463.0202 L 386.6529 461.8967 C 386.8539 461.8623 387.05626 461.8366 387.25946 461.81984 L 390.4918 461.55286 C 391.38103 461.4794 392.248 461.23664 393.0461 460.8376 L 394.5324 460.09446 C 395.13297 459.79417 395.6872 459.409 396.1781 458.95086 L 397.51323 457.70475 C 398.12005 457.1384 398.57546 456.42914 398.83795 455.6417 L 399.1328 454.7572 C 399.20285 454.54697 399.2629 454.33353 399.31273 454.1176 L 399.78244 452.0822 C 399.81766 451.9296 399.7842 451.7692 399.69094 451.64335 L 399.69094 451.64335 C 399.6006 451.52147 399.44996 451.45997 399.30014 451.4838 L 390.8203 452.8329 C 390.7694 452.84097 390.7186 452.84963 390.6679 452.85885 L 377.68312 455.2197 C 377.59034 455.2366 377.49723 455.2516 377.40384 455.2647 L 366.17416 456.8408 C 366.154 456.8436 366.13388 456.8465 366.11375 456.8495 L 352.99116 458.8081 C 352.8264 458.8327 352.6608 458.8514 352.4947 458.8642 L 339.7699 459.843 C 339.7526 459.84435 339.7353 459.8456 339.71796 459.8468 L 325.3778 460.84267 C 325.35523 460.84424 325.33264 460.8457 325.31004 460.84704 L 312.0068 461.64127 C 311.9649 461.64377 311.92297 461.6459 311.88103 461.64764 L 297.68958 462.23895 C 297.5925 462.243 297.49534 462.245 297.39817 462.245 L 284.14394 462.245 L 271.60227 462.245 C 271.56338 462.245 271.5245 462.24534 271.4856 462.246 L 259.72723 462.44197 C 259.60505 462.444 259.48285 462.44284 259.36074 462.4385 L 248.52714 462.05156 C 248.40502 462.0472 248.28282 462.04604 248.16064 462.0481 L 236.446 462.2433 C 236.37796 462.24445 236.3099 462.2446 236.24186 462.24374 L 220.53958 462.04747 C 220.40917 462.04584 220.27884 462.04056 220.14874 462.03165 L 205.83896 461.05153 C 205.77561 461.0472 205.71233 461.042 205.64912 461.03593 L 191.15812 459.6464 C 191.14866 459.6455 191.1392 459.64455 191.12976 459.6436 L 177.31772 458.2624 C 177.20188 458.2508 177.08635 458.23634 176.97123 458.219 L 162.66208 456.0628 C 162.58332 456.05096 162.50437 456.04043 162.42525 456.03126 L 148.90532 454.46373 C 148.79774 454.45126 148.69047 454.4363 148.58359 454.41884 L 139.1915 452.88544 C 139.02651 452.8585 138.86254 452.82566 138.6999 452.787 L 129.6223 450.6282 C 129.23398 450.53586 128.84432 450.7758 128.75197 451.1641 C 128.74589 451.1897 128.7412 451.2156 128.73794 451.2417 Z" fill="url(#Obj_Gradient_9)"/>
      <path d="M 128.73794 451.2417 L 128.73794 451.2417 C 128.67226 451.76715 128.73509 452.3007 128.92103 452.79657 L 129.57204 454.5326 C 129.7488 455.00394 129.97588 455.45485 130.24935 455.8775 L 131.21716 457.3732 C 131.75812 458.2092 132.47123 458.9202 133.30885 459.4587 L 134.3869 460.1517 C 134.68716 460.34474 135.00174 460.5145 135.32789 460.65955 L 136.64474 461.24515 C 137.24127 461.5104 137.87198 461.69095 138.51852 461.78146 L 147.52894 463.0429 C 147.53894 463.0443 147.54893 463.0457 147.55893 463.04705 L 159.27493 464.63566 C 159.32093 464.6419 159.367 464.6477 159.41311 464.653 L 169.69605 465.8395 C 169.72797 465.8432 169.75992 465.84664 169.7919 465.8499 L 183.50196 467.24076 C 183.52994 467.2436 183.55794 467.24627 183.58596 467.2488 L 194.69126 468.2403 C 194.72638 468.24345 194.76152 468.2463 194.79668 468.2489 L 205.48322 469.0405 C 205.5237 469.0435 205.5642 469.04617 205.60472 469.04846 L 216.1127 469.64325 C 216.13353 469.64443 216.15434 469.6457 216.17515 469.64707 L 228.21792 470.43676 C 228.30193 470.44227 228.38602 470.44626 228.47016 470.44873 L 241.9173 470.84424 C 241.93505 470.84476 241.95282 470.84535 241.97058 470.846 L 252.61444 471.2402 C 252.70076 471.2434 252.78714 471.245 252.87352 471.245 L 263.48254 471.245 C 263.52347 471.245 263.5644 471.2454 263.60533 471.2461 L 274.69175 471.4406 C 274.85982 471.44354 275.02794 471.44044 275.1958 471.4313 L 285.81702 470.85194 C 285.90162 470.84733 285.9863 470.84425 286.07102 470.8427 L 296.8356 470.647 C 296.9078 470.6457 296.98002 470.64325 297.05218 470.6397 L 309.0708 470.0486 C 309.11956 470.0462 309.1683 470.0433 309.21698 470.0399 L 320.45703 469.2511 C 320.51497 469.24705 320.57285 469.24227 320.63067 469.23676 L 333.04124 468.0548 C 333.1097 468.0483 333.17825 468.04277 333.24687 468.03827 L 345.1789 467.25584 C 345.2889 467.24863 345.39874 467.2388 345.5083 467.2264 L 355.92063 466.04766 C 355.93617 466.0459 355.9517 466.0441 355.96723 466.0422 L 365.91494 464.8485 C 365.93427 464.8462 365.9536 464.8438 365.9729 464.8413 L 379.80867 463.06376 C 379.9059 463.05127 380.00283 463.03674 380.09943 463.0202 L 386.6529 461.8967 C 386.8539 461.8623 387.05626 461.8366 387.25946 461.81984 L 390.4918 461.55286 C 391.38103 461.4794 392.248 461.23664 393.0461 460.8376 L 394.5324 460.09446 C 395.13297 459.79417 395.6872 459.409 396.1781 458.95086 L 397.51323 457.70475 C 398.12005 457.1384 398.57546 456.42914 398.83795 455.6417 L 399.1328 454.7572 C 399.20285 454.54697 399.2629 454.33353 399.31273 454.1176 L 399.78244 452.0822 C 399.81766 451.9296 399.7842 451.7692 399.69094 451.64335 L 399.69094 451.64335 C 399.6006 451.52147 399.44996 451.45997 399.30014 451.4838 L 390.8203 452.8329 C 390.7694 452.84097 390.7186 452.84963 390.6679 452.85885 L 377.68312 455.2197 C 377.59034 455.2366 377.49723 455.2516 377.40384 455.2647 L 366.17416 456.8408 C 366.154 456.8436 366.13388 456.8465 366.11375 456.8495 L 352.99116 458.8081 C 352.8264 458.8327 352.6608 458.8514 352.4947 458.8642 L 339.7699 459.843 C 339.7526 459.84435 339.7353 459.8456 339.71796 459.8468 L 325.3778 460.84267 C 325.35523 460.84424 325.33264 460.8457 325.31004 460.84704 L 312.0068 461.64127 C 311.9649 461.64377 311.92297 461.6459 311.88103 461.64764 L 297.68958 462.23895 C 297.5925 462.243 297.49534 462.245 297.39817 462.245 L 284.14394 462.245 L 271.60227 462.245 C 271.56338 462.245 271.5245 462.24534 271.4856 462.246 L 259.72723 462.44197 C 259.60505 462.444 259.48285 462.44284 259.36074 462.4385 L 248.52714 462.05156 C 248.40502 462.0472 248.28282 462.04604 248.16064 462.0481 L 236.446 462.2433 C 236.37796 462.24445 236.3099 462.2446 236.24186 462.24374 L 220.53958 462.04747 C 220.40917 462.04584 220.27884 462.04056 220.14874 462.03165 L 205.83896 461.05153 C 205.77561 461.0472 205.71233 461.042 205.64912 461.03593 L 191.15812 459.6464 C 191.14866 459.6455 191.1392 459.64455 191.12976 459.6436 L 177.31772 458.2624 C 177.20188 458.2508 177.08635 458.23634 176.97123 458.219 L 162.66208 456.0628 C 162.58332 456.05096 162.50437 456.04043 162.42525 456.03126 L 148.90532 454.46373 C 148.79774 454.45126 148.69047 454.4363 148.58359 454.41884 L 139.1915 452.88544 C 139.02651 452.8585 138.86254 452.82566 138.6999 452.787 L 129.6223 450.6282 C 129.23398 450.53586 128.84432 450.7758 128.75197 451.1641 C 128.74589 451.1897 128.7412 451.2156 128.73794 451.2417 Z" stroke="#7f8080" stroke-linecap="round" stroke-linejoin="round" stroke-width="1"/>
    </g>
  </g>
</svg>
