<?xml version="1.0" encoding="UTF-8" standalone="no"?>
<!DOCTYPE svg PUBLIC "-//W3C//DTD SVG 1.1//EN" "http://www.w3.org/Graphics/SVG/1.1/DTD/svg11.dtd">
<svg xmlns="http://www.w3.org/2000/svg" xmlns:xl="http://www.w3.org/1999/xlink" version="1.1" viewBox="-184.5 -204.5 432.4053 448.4" width="432.4053pt" height="448.4pt" xmlns:dc="http://purl.org/dc/elements/1.1/">
  <metadata> Produced by OmniGraffle 7.6.1 
    <dc:date>2019-06-02 19:42:58 +0000</dc:date>
  </metadata>
  <defs>
    <radialGradient cx="0" cy="0" r="1" id="Gradient" gradientUnits="userSpaceOnUse">
      <stop offset="0" stop-color="#cbcbcb"/>
      <stop offset="1" stop-color="#010e1d"/>
    </radialGradient>
    <radialGradient id="Obj_Gradient" xl:href="#Gradient" gradientTransform="translate(30.75925 -176.6) scale(70.26272)"/>
  </defs>
  <g stroke="none" stroke-opacity="1" stroke-dasharray="none" fill="none" fill-opacity="1">
    <title>sheffield</title>
    <g>
      <title>Capa 1</title>
      <path d="M -30.994346 -203.40955 L -22.828894 -200.29184 C -21.970903 -199.96424 -21.09406 -199.68833 -20.203077 -199.46558 L -6.485899 -196.03629 C -5.3242413 -195.74587 -4.1416787 -195.54662 -2.9489955 -195.44034 L 14.577152 -193.8786 C 15.164998 -193.82622 15.754643 -193.79648 16.344778 -193.78946 L 31.823695 -193.60519 C 32.114038 -193.60173 32.40442 -193.60377 32.694686 -193.6113 L 47.118 -193.98594 C 47.47878 -193.99531 47.839295 -194.01317 48.19924 -194.0395 L 62.57053 -195.09107 C 63.56197 -195.16361 64.54766 -195.30036 65.5214 -195.50044 L 77.09436 -197.87845 C 78.13637 -198.09256 79.16226 -198.3787 80.16465 -198.73481 L 91.91664 -202.90986 C 93.00702 -203.29723 94.21021 -202.76646 94.65925 -201.7 L 94.65925 -201.7 C 95.1814 -200.4599 95.33338 -199.09515 95.09685 -197.77055 L 94.91637 -196.75986 C 94.61259 -195.0587 94.11806 -193.3972 93.44214 -191.80681 L 91.89892 -188.1757 C 91.34035 -186.86142 90.6606 -185.60202 89.86846 -184.41382 L 86.18268 -178.88515 C 85.43517 -177.76389 84.59057 -176.71049 83.65861 -175.7371 L 77.36354 -169.16226 C 76.49547 -168.2556 75.55463 -167.42154 74.55046 -166.6684 L 66.175555 -160.38723 C 65.29914 -159.72992 64.37688 -159.13606 63.41582 -158.6102 L 56.230617 -154.67867 C 54.91949 -153.96126 53.541565 -153.37336 52.116375 -152.9233 L 45.443466 -150.81607 C 43.726593 -150.2739 41.951997 -149.9352 40.156127 -149.80692 L 33.269675 -149.31503 C 32.197377 -149.23844 31.121028 -149.23712 30.048545 -149.31108 L 21.612287 -149.8929 C 20.57811 -149.96422 19.54994 -150.10537 18.534806 -150.3154 L 11.399601 -151.79165 C 9.447648 -152.1955 7.556474 -152.85139 5.7736175 -153.74281 L 1.1142084 -156.07252 C -.11992833 -156.68959 -1.2960335 -157.41646 -2.399879 -158.24434 L -8.081837 -162.50581 C -8.520973 -162.83517 -8.948178 -163.18013 -9.36263 -163.54005 L -15.117811 -168.53797 C -15.932097 -169.24511 -16.695637 -170.00865 -17.40278 -170.82294 L -21.808005 -175.89562 C -22.562108 -176.76398 -23.250016 -177.68768 -23.86594 -178.65895 L -27.599643 -184.54671 C -27.96021 -185.1153 -28.295635 -185.69944 -28.60495 -186.29745 L -30.225325 -189.43017 C -30.83447 -190.60785 -31.340638 -191.836 -31.738175 -193.1009 L -33.018414 -197.17438 C -33.23319 -197.85775 -33.41592 -198.5508 -33.566014 -199.25122 L -33.640752 -199.6 C -33.835415 -200.50843 -33.728154 -201.45557 -33.335273 -202.29746 L -33.240752 -202.5 C -32.846276 -203.3453 -31.865805 -203.7423 -30.994346 -203.40955 Z" fill="url(#Obj_Gradient)"/>
      <path d="M -30.994346 -203.40955 L -22.828894 -200.29184 C -21.970903 -199.96424 -21.09406 -199.68833 -20.203077 -199.46558 L -6.485899 -196.03629 C -5.3242413 -195.74587 -4.1416787 -195.54662 -2.9489955 -195.44034 L 14.577152 -193.8786 C 15.164998 -193.82622 15.754643 -193.79648 16.344778 -193.78946 L 31.823695 -193.60519 C 32.114038 -193.60173 32.40442 -193.60377 32.694686 -193.6113 L 47.118 -193.98594 C 47.47878 -193.99531 47.839295 -194.01317 48.19924 -194.0395 L 62.57053 -195.09107 C 63.56197 -195.16361 64.54766 -195.30036 65.5214 -195.50044 L 77.09436 -197.87845 C 78.13637 -198.09256 79.16226 -198.3787 80.16465 -198.73481 L 91.91664 -202.90986 C 93.00702 -203.29723 94.21021 -202.76646 94.65925 -201.7 L 94.65925 -201.7 C 95.1814 -200.4599 95.33338 -199.09515 95.09685 -197.77055 L 94.91637 -196.75986 C 94.61259 -195.0587 94.11806 -193.3972 93.44214 -191.80681 L 91.89892 -188.1757 C 91.34035 -186.86142 90.6606 -185.60202 89.86846 -184.41382 L 86.18268 -178.88515 C 85.43517 -177.76389 84.59057 -176.71049 83.65861 -175.7371 L 77.36354 -169.16226 C 76.49547 -168.2556 75.55463 -167.42154 74.55046 -166.6684 L 66.175555 -160.38723 C 65.29914 -159.72992 64.37688 -159.13606 63.41582 -158.6102 L 56.230617 -154.67867 C 54.91949 -153.96126 53.541565 -153.37336 52.116375 -152.9233 L 45.443466 -150.81607 C 43.726593 -150.2739 41.951997 -149.9352 40.156127 -149.80692 L 33.269675 -149.31503 C 32.197377 -149.23844 31.121028 -149.23712 30.048545 -149.31108 L 21.612287 -149.8929 C 20.57811 -149.96422 19.54994 -150.10537 18.534806 -150.3154 L 11.399601 -151.79165 C 9.447648 -152.1955 7.556474 -152.85139 5.7736175 -153.74281 L 1.1142084 -156.07252 C -.11992833 -156.68959 -1.2960335 -157.41646 -2.399879 -158.24434 L -8.081837 -162.50581 C -8.520973 -162.83517 -8.948178 -163.18013 -9.36263 -163.54005 L -15.117811 -168.53797 C -15.932097 -169.24511 -16.695637 -170.00865 -17.40278 -170.82294 L -21.808005 -175.89562 C -22.562108 -176.76398 -23.250016 -177.68768 -23.86594 -178.65895 L -27.599643 -184.54671 C -27.96021 -185.1153 -28.295635 -185.69944 -28.60495 -186.29745 L -30.225325 -189.43017 C -30.83447 -190.60785 -31.340638 -191.836 -31.738175 -193.1009 L -33.018414 -197.17438 C -33.23319 -197.85775 -33.41592 -198.5508 -33.566014 -199.25122 L -33.640752 -199.6 C -33.835415 -200.50843 -33.728154 -201.45557 -33.335273 -202.29746 L -33.240752 -202.5 C -32.846276 -203.3453 -31.865805 -203.7423 -30.994346 -203.40955 Z" stroke="#7f8080" stroke-linecap="round" stroke-linejoin="round" stroke-width="1"/>
      <path d="M -95.02654 233.26379 L -81.2843 235.55416 C -81.10093 235.58472 -80.91703 235.6121 -80.7327 235.63624 L -52.37906 239.35154 C -52.13253 239.38385 -51.885285 239.4104 -51.63752 239.43118 L -21.39463 241.96768 C -21.137726 241.98923 -20.880338 242.00456 -20.622693 242.01367 L 18.30822 243.39002 C 18.49658 243.39668 18.685045 243.4 18.873523 243.4 L 50.340845 243.4 C 50.50746 243.4 50.674066 243.3974 50.8406 243.3922 L 75.87539 242.60986 C 76.08563 242.6033 76.295725 242.59258 76.50555 242.57772 L 98.5533 241.01682 C 98.71161 241.0056 98.86975 240.99205 99.02766 240.97614 L 124.28815 238.4305 C 124.48989 238.41017 124.69122 238.386 124.89204 238.35803 L 148.68474 235.04265 C 148.88875 235.01422 149.0922 234.98186 149.29496 234.94558 L 158.49079 233.3 C 163.81789 232.34674 167.46876 227.3931 166.80234 222.02255 L 164.59475 204.23198 C 164.5921 204.21066 164.5895 204.18934 164.58695 204.16801 L 161.02312 174.46949 C 161.00157 174.28985 160.98306 174.10985 160.9676 173.92958 L 158.60539 146.37037 C 158.59565 146.2568 158.58713 146.14312 158.57983 146.02936 L 157.1932 124.43772 C 157.1916 124.41258 157.18992 124.38744 157.18818 124.3623 L 155.59603 101.27599 C 155.59253 101.22533 155.58928 101.17466 155.58627 101.12398 L 154.4099 81.32181 C 154.39716 81.10729 154.38874 80.892545 154.38465 80.67769 L 153.99236 60.08285 C 153.99131 60.02762 153.98997 59.972394 153.98835 59.917175 L 153.39322 39.68283 C 153.3916 39.627614 153.39026 39.572387 153.3892 39.517154 L 152.99855 19.007613 C 152.99337 18.735917 152.99512 18.464134 153.00379 18.192528 L 153.58973 -.1670826 C 153.59044 -.18902548 153.59118 -.2109669 153.59197 -.23290673 L 154.38005 -22.102215 C 154.3872 -22.30072 154.39806 -22.499073 154.4126 -22.697174 L 155.97007 -43.91779 C 155.98388 -44.105914 155.99436 -44.294266 156.0015 -44.48276 L 156.75596 -64.38163 C 156.77915 -64.99337 156.83744 -65.60328 156.93052 -66.20835 L 159.66953 -84.01187 C 159.75031 -84.53696 159.8572 -85.05771 159.9898 -85.57217 L 164.61806 -103.52983 C 164.73316 -103.9764 164.8675 -104.41779 165.02073 -104.85275 L 170.74152 -121.0924 C 170.9076 -121.56387 171.0957 -122.0273 171.30517 -122.48117 L 176.83673 -134.46621 C 176.93942 -134.6887 177.0472 -134.90881 177.16 -135.12636 L 182.52223 -145.46778 C 182.56793 -145.55593 182.61446 -145.64364 182.6618 -145.73092 L 187.87777 -155.34788 C 188.61505 -156.70724 189.56468 -157.94013 190.69079 -159 L 190.69079 -159 C 191.36598 -159.63547 191.39817 -160.69797 190.7627 -161.37316 C 190.6382 -161.50544 190.49307 -161.61663 190.33295 -161.70241 L 187.11881 -163.42427 C 186.90016 -163.5414 186.6788 -163.65344 186.45494 -163.76029 L 178.60097 -167.50878 C 178.19436 -167.70284 177.77974 -167.87964 177.3582 -168.0387 L 167.68338 -171.68959 C 167.48833 -171.76319 167.29187 -171.83297 167.0941 -171.8989 L 154.39963 -176.13038 C 154.2604 -176.1768 154.12055 -176.22128 153.9801 -176.26384 L 141.09658 -180.16794 C 141.02605 -180.18931 140.95567 -180.21117 140.88544 -180.23352 L 128.38144 -184.21206 C 127.98782 -184.3373 127.59919 -184.47775 127.21643 -184.63307 L 115.24049 -189.49287 C 114.40883 -189.83036 113.60704 -190.23723 112.8436 -190.70917 L 103.22436 -196.6556 C 103.06865 -196.75186 102.91461 -196.85078 102.7623 -196.95232 L 97.87221 -200.21238 C 96.89081 -200.86665 96.0195 -201.67255 95.29078 -202.6 L 95.29078 -202.6 C 95.18518 -202.7344 94.99062 -202.75775 94.85621 -202.65215 C 94.75347 -202.57142 94.71249 -202.43487 94.75381 -202.31092 L 94.89078 -201.9 C 95.35003 -200.52225 95.4546 -199.05096 95.1948 -197.6221 L 94.79967 -195.44885 C 94.52845 -193.95719 94.04661 -192.51165 93.36858 -191.1556 L 91.83626 -188.09096 C 91.53956 -187.49756 91.20624 -186.9232 90.83823 -186.37117 L 87.63453 -181.56562 C 87.20593 -180.92272 86.73132 -180.3117 86.21443 -179.73739 L 81.65238 -174.66844 C 81.61132 -174.62281 81.56999 -174.57742 81.5284 -174.53227 L 75.534165 -168.02424 C 74.90643 -167.3427 74.22068 -166.71698 73.484645 -166.15413 L 68.46047 -162.31211 C 68.01432 -161.97094 67.55052 -161.6535 67.07099 -161.3611 L 60.58458 -157.40597 C 59.922924 -157.00252 59.23283 -156.64768 58.519746 -156.34424 L 51.404335 -153.3164 C 50.59667 -152.97272 49.762094 -152.69607 48.909053 -152.48928 L 44.829994 -151.50041 C 44.00516 -151.30045 43.165726 -151.16644 42.319634 -151.09965 L 36.619425 -150.64963 C 36.200493 -150.61656 35.78042 -150.6 35.360186 -150.6 L 28.327868 -150.6 C 27.570766 -150.6 26.81462 -150.65374 26.065127 -150.7608 L 18.11868 -151.89601 C 17.633671 -151.9653 17.152101 -152.05683 16.675492 -152.1703 L 10.714264 -153.58965 C 9.568777 -153.86238 8.456898 -154.26073 7.398828 -154.77747 L 1.1188245 -157.84444 C .6337742 -158.08133 .1610226 -158.3426 -.2976165 -158.62728 L -4.50948 -161.24154 C -5.1086494 -161.61344 -5.682576 -162.02454 -6.227505 -162.47216 L -10.673611 -166.12432 C -10.897307 -166.30807 -11.115976 -166.49786 -11.329374 -166.69348 L -15.131717 -170.17896 C -15.583012 -170.59264 -16.010191 -171.0319 -16.411148 -171.49454 L -20.529894 -176.24693 C -20.849276 -176.61545 -21.151643 -176.99838 -21.436048 -177.39451 L -25.865703 -183.5644 C -26.360595 -184.2537 -26.799866 -184.9813 -27.179358 -185.74028 L -29.755822 -190.8932 C -29.79142 -190.9644 -29.826483 -191.03586 -29.861014 -191.10758 L -31.109218 -193.7 C -31.959932 -195.46687 -32.315453 -197.4314 -32.137912 -199.38436 L -31.957707 -201.36661 C -31.9339 -201.62848 -32.126884 -201.86006 -32.388747 -201.88386 C -32.55114 -201.89862 -32.709795 -201.82925 -32.809218 -201.7 L -32.809218 -201.7 C -33.472664 -200.83752 -34.252772 -200.07144 -35.12715 -199.42375 L -39.023683 -196.53743 C -39.147366 -196.44582 -39.272365 -196.35599 -39.39864 -196.26798 L -44.02089 -193.0464 C -45.20763 -192.2193 -46.50105 -191.55692 -47.8658 -191.07742 L -52.472924 -189.4587 C -52.963495 -189.28633 -53.44537 -189.09016 -53.91684 -188.87087 L -60.76362 -185.68632 C -61.45978 -185.36253 -62.17835 -185.08926 -62.91375 -184.86864 L -73.78414 -181.60752 C -73.80086 -181.6025 -73.81757 -181.59746 -73.834276 -181.5924 L -84.80236 -178.2628 C -84.94026 -178.22093 -85.07759 -178.1772 -85.2143 -178.13164 L -98.13554 -173.82456 C -98.18466 -173.80819 -98.23386 -173.79205 -98.28314 -173.77616 L -109.65054 -170.10925 C -110.28903 -169.90329 -110.91393 -169.65737 -111.52154 -169.37296 L -119.4535 -165.66012 C -119.82384 -165.48677 -120.1874 -165.29929 -120.54338 -165.09808 L -126.4895 -161.73724 C -127.74253 -161.029 -128.18417 -159.43907 -127.47594 -158.18604 C -127.39882 -158.0496 -127.30955 -157.9204 -127.20922 -157.8 L -126.34511 -156.76307 C -125.59016 -155.85713 -124.93769 -154.87051 -124.39957 -153.82118 L -121.32243 -147.82076 C -121.24696 -147.6736 -121.16921 -147.5276 -121.08922 -147.38285 L -117.13446 -140.22663 C -117.05097 -140.07555 -116.96993 -139.92313 -116.89137 -139.76943 L -112.78307 -131.73144 C -112.534 -131.24413 -112.3101 -130.74437 -112.11224 -130.23411 L -108.62947 -121.25224 C -108.61597 -121.21741 -108.60235 -121.18263 -108.5886 -121.1479 L -104.99228 -112.06246 C -104.87027 -111.75423 -104.75787 -111.44228 -104.65524 -111.12706 L -102.0334 -103.07428 C -102.01728 -103.02476 -102.0014 -102.97516 -101.98576 -102.92548 L -98.91371 -93.16721 C -98.71092 -92.52305 -98.54911 -91.86669 -98.42927 -91.20208 L -96.44395 -80.19263 C -96.4208 -80.06421 -96.39921 -79.93552 -96.3792 -79.80658 L -94.67334 -68.813195 C -94.6306 -68.53778 -94.59506 -68.26129 -94.56677 -67.98402 L -93.67935 -59.2873 C -93.63262 -58.82931 -93.60567 -58.36952 -93.59859 -57.90921 L -93.41435 -45.933586 C -93.41093 -45.71122 -93.40287 -45.488946 -93.39019 -45.266914 L -92.61981 -31.78535 C -92.61275 -31.661786 -92.60425 -31.538307 -92.59433 -31.41494 L -91.26076 -14.840567 C -91.22641 -14.413692 -91.20922 -13.985611 -91.20922 -13.557357 L -91.20922 -1.1075756 C -91.20922 -.9025421 -91.20528 -.6975276 -91.1974 -.4926456 L -90.61705 14.596492 C -90.61183 14.73216 -90.60834 14.86789 -90.60657 15.003648 L -90.41441 29.799903 C -90.41095 30.066595 -90.41416 30.333332 -90.42403 30.599864 L -90.99826 46.10401 C -91.00556 46.301323 -91.00922 46.49875 -91.00922 46.6962 L -91.00922 60.292425 C -91.00922 60.49746 -91.01316 60.70247 -91.02104 60.907355 L -91.60623 76.12236 C -91.60822 76.17412 -91.61047 76.22588 -91.61296 76.27762 L -92.40828 92.78055 C -92.40891 92.79352 -92.40955 92.80649 -92.4102 92.81945 L -93.20469 108.51062 C -93.20771 108.57021 -93.21106 108.62978 -93.21474 108.68933 L -94.40366 127.91007 C -94.40736 127.97003 -94.41141 128.02996 -94.41579 128.08987 L -96.19893 152.45942 C -96.20579 152.55314 -96.21347 152.6468 -96.22198 152.74038 L -98.00787 172.3852 C -98.00877 172.39507 -98.00968 172.40494 -98.01059 172.41481 L -99.78136 191.49972 C -99.79993 191.6999 -99.82227 191.8997 -99.84838 192.09903 L -101.80909 207.07175 C -101.9419 208.08594 -102.21104 209.07756 -102.60922 210.01973 L -102.60922 210.01973 C -103.0068 210.96048 -103.25546 211.9574 -103.34629 212.97465 L -104.10922 221.51973 C -104.61698 227.20676 -100.65851 232.32512 -95.02654 233.26379 Z" fill="white"/>
      <path d="M -95.02654 233.26379 L -81.2843 235.55416 C -81.10093 235.58472 -80.91703 235.6121 -80.7327 235.63624 L -52.37906 239.35154 C -52.13253 239.38385 -51.885285 239.4104 -51.63752 239.43118 L -21.39463 241.96768 C -21.137726 241.98923 -20.880338 242.00456 -20.622693 242.01367 L 18.30822 243.39002 C 18.49658 243.39668 18.685045 243.4 18.873523 243.4 L 50.340845 243.4 C 50.50746 243.4 50.674066 243.3974 50.8406 243.3922 L 75.87539 242.60986 C 76.08563 242.6033 76.295725 242.59258 76.50555 242.57772 L 98.5533 241.01682 C 98.71161 241.0056 98.86975 240.99205 99.02766 240.97614 L 124.28815 238.4305 C 124.48989 238.41017 124.69122 238.386 124.89204 238.35803 L 148.68474 235.04265 C 148.88875 235.01422 149.0922 234.98186 149.29496 234.94558 L 158.49079 233.3 C 163.81789 232.34674 167.46876 227.3931 166.80234 222.02255 L 164.59475 204.23198 C 164.5921 204.21066 164.5895 204.18934 164.58695 204.16801 L 161.02312 174.46949 C 161.00157 174.28985 160.98306 174.10985 160.9676 173.92958 L 158.60539 146.37037 C 158.59565 146.2568 158.58713 146.14312 158.57983 146.02936 L 157.1932 124.43772 C 157.1916 124.41258 157.18992 124.38744 157.18818 124.3623 L 155.59603 101.27599 C 155.59253 101.22533 155.58928 101.17466 155.58627 101.12398 L 154.4099 81.32181 C 154.39716 81.10729 154.38874 80.892545 154.38465 80.67769 L 153.99236 60.08285 C 153.99131 60.02762 153.98997 59.972394 153.98835 59.917175 L 153.39322 39.68283 C 153.3916 39.627614 153.39026 39.572387 153.3892 39.517154 L 152.99855 19.007613 C 152.99337 18.735917 152.99512 18.464134 153.00379 18.192528 L 153.58973 -.1670826 C 153.59044 -.18902548 153.59118 -.2109669 153.59197 -.23290673 L 154.38005 -22.102215 C 154.3872 -22.30072 154.39806 -22.499073 154.4126 -22.697174 L 155.97007 -43.91779 C 155.98388 -44.105914 155.99436 -44.294266 156.0015 -44.48276 L 156.75596 -64.38163 C 156.77915 -64.99337 156.83744 -65.60328 156.93052 -66.20835 L 159.66953 -84.01187 C 159.75031 -84.53696 159.8572 -85.05771 159.9898 -85.57217 L 164.61806 -103.52983 C 164.73316 -103.9764 164.8675 -104.41779 165.02073 -104.85275 L 170.74152 -121.0924 C 170.9076 -121.56387 171.0957 -122.0273 171.30517 -122.48117 L 176.83673 -134.46621 C 176.93942 -134.6887 177.0472 -134.90881 177.16 -135.12636 L 182.52223 -145.46778 C 182.56793 -145.55593 182.61446 -145.64364 182.6618 -145.73092 L 187.87777 -155.34788 C 188.61505 -156.70724 189.56468 -157.94013 190.69079 -159 L 190.69079 -159 C 191.36598 -159.63547 191.39817 -160.69797 190.7627 -161.37316 C 190.6382 -161.50544 190.49307 -161.61663 190.33295 -161.70241 L 187.11881 -163.42427 C 186.90016 -163.5414 186.6788 -163.65344 186.45494 -163.76029 L 178.60097 -167.50878 C 178.19436 -167.70284 177.77974 -167.87964 177.3582 -168.0387 L 167.68338 -171.68959 C 167.48833 -171.76319 167.29187 -171.83297 167.0941 -171.8989 L 154.39963 -176.13038 C 154.2604 -176.1768 154.12055 -176.22128 153.9801 -176.26384 L 141.09658 -180.16794 C 141.02605 -180.18931 140.95567 -180.21117 140.88544 -180.23352 L 128.38144 -184.21206 C 127.98782 -184.3373 127.59919 -184.47775 127.21643 -184.63307 L 115.24049 -189.49287 C 114.40883 -189.83036 113.60704 -190.23723 112.8436 -190.70917 L 103.22436 -196.6556 C 103.06865 -196.75186 102.91461 -196.85078 102.7623 -196.95232 L 97.87221 -200.21238 C 96.89081 -200.86665 96.0195 -201.67255 95.29078 -202.6 L 95.29078 -202.6 C 95.18518 -202.7344 94.99062 -202.75775 94.85621 -202.65215 C 94.75347 -202.57142 94.71249 -202.43487 94.75381 -202.31092 L 94.89078 -201.9 C 95.35003 -200.52225 95.4546 -199.05096 95.1948 -197.6221 L 94.79967 -195.44885 C 94.52845 -193.95719 94.04661 -192.51165 93.36858 -191.1556 L 91.83626 -188.09096 C 91.53956 -187.49756 91.20624 -186.9232 90.83823 -186.37117 L 87.63453 -181.56562 C 87.20593 -180.92272 86.73132 -180.3117 86.21443 -179.73739 L 81.65238 -174.66844 C 81.61132 -174.62281 81.56999 -174.57742 81.5284 -174.53227 L 75.534165 -168.02424 C 74.90643 -167.3427 74.22068 -166.71698 73.484645 -166.15413 L 68.46047 -162.31211 C 68.01432 -161.97094 67.55052 -161.6535 67.07099 -161.3611 L 60.58458 -157.40597 C 59.922924 -157.00252 59.23283 -156.64768 58.519746 -156.34424 L 51.404335 -153.3164 C 50.59667 -152.97272 49.762094 -152.69607 48.909053 -152.48928 L 44.829994 -151.50041 C 44.00516 -151.30045 43.165726 -151.16644 42.319634 -151.09965 L 36.619425 -150.64963 C 36.200493 -150.61656 35.78042 -150.6 35.360186 -150.6 L 28.327868 -150.6 C 27.570766 -150.6 26.81462 -150.65374 26.065127 -150.7608 L 18.11868 -151.89601 C 17.633671 -151.9653 17.152101 -152.05683 16.675492 -152.1703 L 10.714264 -153.58965 C 9.568777 -153.86238 8.456898 -154.26073 7.398828 -154.77747 L 1.1188245 -157.84444 C .6337742 -158.08133 .1610226 -158.3426 -.2976165 -158.62728 L -4.50948 -161.24154 C -5.1086494 -161.61344 -5.682576 -162.02454 -6.227505 -162.47216 L -10.673611 -166.12432 C -10.897307 -166.30807 -11.115976 -166.49786 -11.329374 -166.69348 L -15.131717 -170.17896 C -15.583012 -170.59264 -16.010191 -171.0319 -16.411148 -171.49454 L -20.529894 -176.24693 C -20.849276 -176.61545 -21.151643 -176.99838 -21.436048 -177.39451 L -25.865703 -183.5644 C -26.360595 -184.2537 -26.799866 -184.9813 -27.179358 -185.74028 L -29.755822 -190.8932 C -29.79142 -190.9644 -29.826483 -191.03586 -29.861014 -191.10758 L -31.109218 -193.7 C -31.959932 -195.46687 -32.315453 -197.4314 -32.137912 -199.38436 L -31.957707 -201.36661 C -31.9339 -201.62848 -32.126884 -201.86006 -32.388747 -201.88386 C -32.55114 -201.89862 -32.709795 -201.82925 -32.809218 -201.7 L -32.809218 -201.7 C -33.472664 -200.83752 -34.252772 -200.07144 -35.12715 -199.42375 L -39.023683 -196.53743 C -39.147366 -196.44582 -39.272365 -196.35599 -39.39864 -196.26798 L -44.02089 -193.0464 C -45.20763 -192.2193 -46.50105 -191.55692 -47.8658 -191.07742 L -52.472924 -189.4587 C -52.963495 -189.28633 -53.44537 -189.09016 -53.91684 -188.87087 L -60.76362 -185.68632 C -61.45978 -185.36253 -62.17835 -185.08926 -62.91375 -184.86864 L -73.78414 -181.60752 C -73.80086 -181.6025 -73.81757 -181.59746 -73.834276 -181.5924 L -84.80236 -178.2628 C -84.94026 -178.22093 -85.07759 -178.1772 -85.2143 -178.13164 L -98.13554 -173.82456 C -98.18466 -173.80819 -98.23386 -173.79205 -98.28314 -173.77616 L -109.65054 -170.10925 C -110.28903 -169.90329 -110.91393 -169.65737 -111.52154 -169.37296 L -119.4535 -165.66012 C -119.82384 -165.48677 -120.1874 -165.29929 -120.54338 -165.09808 L -126.4895 -161.73724 C -127.74253 -161.029 -128.18417 -159.43907 -127.47594 -158.18604 C -127.39882 -158.0496 -127.30955 -157.9204 -127.20922 -157.8 L -126.34511 -156.76307 C -125.59016 -155.85713 -124.93769 -154.87051 -124.39957 -153.82118 L -121.32243 -147.82076 C -121.24696 -147.6736 -121.16921 -147.5276 -121.08922 -147.38285 L -117.13446 -140.22663 C -117.05097 -140.07555 -116.96993 -139.92313 -116.89137 -139.76943 L -112.78307 -131.73144 C -112.534 -131.24413 -112.3101 -130.74437 -112.11224 -130.23411 L -108.62947 -121.25224 C -108.61597 -121.21741 -108.60235 -121.18263 -108.5886 -121.1479 L -104.99228 -112.06246 C -104.87027 -111.75423 -104.75787 -111.44228 -104.65524 -111.12706 L -102.0334 -103.07428 C -102.01728 -103.02476 -102.0014 -102.97516 -101.98576 -102.92548 L -98.91371 -93.16721 C -98.71092 -92.52305 -98.54911 -91.86669 -98.42927 -91.20208 L -96.44395 -80.19263 C -96.4208 -80.06421 -96.39921 -79.93552 -96.3792 -79.80658 L -94.67334 -68.813195 C -94.6306 -68.53778 -94.59506 -68.26129 -94.56677 -67.98402 L -93.67935 -59.2873 C -93.63262 -58.82931 -93.60567 -58.36952 -93.59859 -57.90921 L -93.41435 -45.933586 C -93.41093 -45.71122 -93.40287 -45.488946 -93.39019 -45.266914 L -92.61981 -31.78535 C -92.61275 -31.661786 -92.60425 -31.538307 -92.59433 -31.41494 L -91.26076 -14.840567 C -91.22641 -14.413692 -91.20922 -13.985611 -91.20922 -13.557357 L -91.20922 -1.1075756 C -91.20922 -.9025421 -91.20528 -.6975276 -91.1974 -.4926456 L -90.61705 14.596492 C -90.61183 14.73216 -90.60834 14.86789 -90.60657 15.003648 L -90.41441 29.799903 C -90.41095 30.066595 -90.41416 30.333332 -90.42403 30.599864 L -90.99826 46.10401 C -91.00556 46.301323 -91.00922 46.49875 -91.00922 46.6962 L -91.00922 60.292425 C -91.00922 60.49746 -91.01316 60.70247 -91.02104 60.907355 L -91.60623 76.12236 C -91.60822 76.17412 -91.61047 76.22588 -91.61296 76.27762 L -92.40828 92.78055 C -92.40891 92.79352 -92.40955 92.80649 -92.4102 92.81945 L -93.20469 108.51062 C -93.20771 108.57021 -93.21106 108.62978 -93.21474 108.68933 L -94.40366 127.91007 C -94.40736 127.97003 -94.41141 128.02996 -94.41579 128.08987 L -96.19893 152.45942 C -96.20579 152.55314 -96.21347 152.6468 -96.22198 152.74038 L -98.00787 172.3852 C -98.00877 172.39507 -98.00968 172.40494 -98.01059 172.41481 L -99.78136 191.49972 C -99.79993 191.6999 -99.82227 191.8997 -99.84838 192.09903 L -101.80909 207.07175 C -101.9419 208.08594 -102.21104 209.07756 -102.60922 210.01973 L -102.60922 210.01973 C -103.0068 210.96048 -103.25546 211.9574 -103.34629 212.97465 L -104.10922 221.51973 C -104.61698 227.20676 -100.65851 232.32512 -95.02654 233.26379 Z" stroke="#7f8080" stroke-linecap="round" stroke-linejoin="round" stroke-width="1"/>
      <path d="M -184 -52.553854 L -177.8 -48.153854 L -169.6 -44.153854 L -161 -40.553854 L -152 -36.753854 L -141 -32.753854 L -131.6 -29.953854 L -122.6 -27.353854 L -113.6 -24.753854 L -108.2 -23.353854 L -102.6 -22.353854 L -100.2 -28.153854 L -97.6 -33.553854 L -95.4 -37.553854 L -92.8 -40.953854 L -92.6 -49.953854 L -93.2 -60.953855 L -95 -71.753855 L -96.6 -82.15385 L -99.2 -93.15386 L -101.6 -102.75386 L -104.4 -110.75386 L -107.6 -120.15386 L -110.4 -127.55386 L -114 -135.15386 L -118 -142.75386 L -122 -150.15386 L -124.6 -153.75386 L -128.2 -159.55386 L -133.6 -155.15386 L -138.4 -150.35386 L -143 -144.15386 L -147.4 -137.95386 L -152.2 -129.35386 L -157 -119.95386 L -161.8 -110.75386 L -165.4 -102.15386 L -169.4 -93.15386 L -172.6 -84.95385 L -176.4 -75.553855 L -179.2 -67.553855 L -182.2 -59.153855 Z" fill="black"/>
      <path d="M -184 -52.553854 L -177.8 -48.153854 L -169.6 -44.153854 L -161 -40.553854 L -152 -36.753854 L -141 -32.753854 L -131.6 -29.953854 L -122.6 -27.353854 L -113.6 -24.753854 L -108.2 -23.353854 L -102.6 -22.353854 L -100.2 -28.153854 L -97.6 -33.553854 L -95.4 -37.553854 L -92.8 -40.953854 L -92.6 -49.953854 L -93.2 -60.953855 L -95 -71.753855 L -96.6 -82.15385 L -99.2 -93.15386 L -101.6 -102.75386 L -104.4 -110.75386 L -107.6 -120.15386 L -110.4 -127.55386 L -114 -135.15386 L -118 -142.75386 L -122 -150.15386 L -124.6 -153.75386 L -128.2 -159.55386 L -133.6 -155.15386 L -138.4 -150.35386 L -143 -144.15386 L -147.4 -137.95386 L -152.2 -129.35386 L -157 -119.95386 L -161.8 -110.75386 L -165.4 -102.15386 L -169.4 -93.15386 L -172.6 -84.95385 L -176.4 -75.553855 L -179.2 -67.553855 L -182.2 -59.153855 Z" stroke="#7f8080" stroke-linecap="round" stroke-linejoin="round" stroke-width="1"/>
      <path d="M 247.4053 -53.49725 L 241.2053 -49.09725 L 233.0053 -45.09725 L 224.4053 -41.49725 L 215.4053 -37.69725 L 204.4053 -33.69725 L 195.0053 -30.89725 L 186.00529 -28.29725 L 177.00529 -25.69725 L 171.60529 -24.29725 L 166.00529 -23.29725 L 163.60529 -29.09725 L 161.00529 -34.49725 L 158.80529 -38.49725 L 156.20529 -41.89725 L 156.00529 -50.89725 L 156.60529 -61.89725 L 158.40529 -72.69725 L 160.00529 -83.09725 L 162.60529 -94.09725 L 165.00529 -103.69725 L 167.80529 -111.69725 L 171.00529 -121.09725 L 173.80529 -128.49725 L 177.40529 -136.09725 L 181.40529 -143.69725 L 185.40529 -151.09725 L 188.00529 -154.69725 L 191.6053 -160.49725 L 197.0053 -156.09725 L 201.8053 -151.29725 L 206.4053 -145.09725 L 210.8053 -138.89725 L 215.6053 -130.29725 L 220.4053 -120.89725 L 225.2053 -111.69725 L 228.8053 -103.09725 L 232.8053 -94.09725 L 236.0053 -85.89725 L 239.8053 -76.49725 L 242.6053 -68.49725 L 245.6053 -60.09725 Z" fill="black"/>
      <path d="M 247.4053 -53.49725 L 241.2053 -49.09725 L 233.0053 -45.09725 L 224.4053 -41.49725 L 215.4053 -37.69725 L 204.4053 -33.69725 L 195.0053 -30.89725 L 186.00529 -28.29725 L 177.00529 -25.69725 L 171.60529 -24.29725 L 166.00529 -23.29725 L 163.60529 -29.09725 L 161.00529 -34.49725 L 158.80529 -38.49725 L 156.20529 -41.89725 L 156.00529 -50.89725 L 156.60529 -61.89725 L 158.40529 -72.69725 L 160.00529 -83.09725 L 162.60529 -94.09725 L 165.00529 -103.69725 L 167.80529 -111.69725 L 171.00529 -121.09725 L 173.80529 -128.49725 L 177.40529 -136.09725 L 181.40529 -143.69725 L 185.40529 -151.09725 L 188.00529 -154.69725 L 191.6053 -160.49725 L 197.0053 -156.09725 L 201.8053 -151.29725 L 206.4053 -145.09725 L 210.8053 -138.89725 L 215.6053 -130.29725 L 220.4053 -120.89725 L 225.2053 -111.69725 L 228.8053 -103.09725 L 232.8053 -94.09725 L 236.0053 -85.89725 L 239.8053 -76.49725 L 242.6053 -68.49725 L 245.6053 -60.09725 Z" stroke="#7f8080" stroke-linecap="round" stroke-linejoin="round" stroke-width="1"/>
      <path d="M -184 -52.553854 L -177.8 -48.153854 L -169.6 -44.153854 L -161 -40.553854 L -152 -36.753854 L -141 -32.753854 L -131.6 -29.953854 L -122.6 -27.353854 L -113.6 -24.753854 L -108.2 -23.353854 L -102.6 -22.353854 L -99.6 -28.753854 L -103.4 -29.553854 L -108.2 -30.753854 L -113.8 -31.953854 L -119.8 -33.753854 L -124.4 -35.153854 L -128.6 -36.353854 L -133.2 -38.353854 L -137.8 -39.953854 L -142.6 -41.953854 L -146.6 -43.353854 L -151.8 -45.553854 L -156.4 -47.153854 L -161.2 -49.353854 L -166 -51.153854 L -170 -53.153854 L -174.4 -55.353854 L -178.8 -57.553854 L -182.2 -59.153855 Z" fill="red"/>
      <path d="M -184 -52.553854 L -177.8 -48.153854 L -169.6 -44.153854 L -161 -40.553854 L -152 -36.753854 L -141 -32.753854 L -131.6 -29.953854 L -122.6 -27.353854 L -113.6 -24.753854 L -108.2 -23.353854 L -102.6 -22.353854 L -99.6 -28.753854 L -103.4 -29.553854 L -108.2 -30.753854 L -113.8 -31.953854 L -119.8 -33.753854 L -124.4 -35.153854 L -128.6 -36.353854 L -133.2 -38.353854 L -137.8 -39.953854 L -142.6 -41.953854 L -146.6 -43.353854 L -151.8 -45.553854 L -156.4 -47.153854 L -161.2 -49.353854 L -166 -51.153854 L -170 -53.153854 L -174.4 -55.353854 L -178.8 -57.553854 L -182.2 -59.153855 Z" stroke="#7f8080" stroke-linecap="round" stroke-linejoin="round" stroke-width="1"/>
      <path d="M 247.4053 -53.49725 L 241.2053 -49.09725 L 233.0053 -45.09725 L 224.4053 -41.49725 L 215.4053 -37.69725 L 204.4053 -33.69725 L 195.0053 -30.89725 L 186.00529 -28.29725 L 177.00529 -25.69725 L 171.60529 -24.29725 L 166.00529 -23.29725 L 163.00529 -29.69725 L 166.80529 -30.49725 L 171.60529 -31.69725 L 177.20529 -32.89725 L 183.20529 -34.69725 L 187.80529 -36.09725 L 192.0053 -37.29725 L 196.6053 -39.29725 L 201.2053 -40.89725 L 206.0053 -42.89725 L 210.0053 -44.29725 L 215.2053 -46.49725 L 219.8053 -48.09725 L 224.6053 -50.29725 L 229.4053 -52.09725 L 233.4053 -54.09725 L 237.8053 -56.29725 L 242.2053 -58.49725 L 245.6053 -60.09725 Z" fill="red"/>
      <path d="M 247.4053 -53.49725 L 241.2053 -49.09725 L 233.0053 -45.09725 L 224.4053 -41.49725 L 215.4053 -37.69725 L 204.4053 -33.69725 L 195.0053 -30.89725 L 186.00529 -28.29725 L 177.00529 -25.69725 L 171.60529 -24.29725 L 166.00529 -23.29725 L 163.00529 -29.69725 L 166.80529 -30.49725 L 171.60529 -31.69725 L 177.20529 -32.89725 L 183.20529 -34.69725 L 187.80529 -36.09725 L 192.0053 -37.29725 L 196.6053 -39.29725 L 201.2053 -40.89725 L 206.0053 -42.89725 L 210.0053 -44.29725 L 215.2053 -46.49725 L 219.8053 -48.09725 L 224.6053 -50.29725 L 229.4053 -52.09725 L 233.4053 -54.09725 L 237.8053 -56.29725 L 242.2053 -58.49725 L 245.6053 -60.09725 Z" stroke="#7f8080" stroke-linecap="round" stroke-linejoin="round" stroke-width="1"/>
      <path d="M -33.940752 -202.2441 L -28.540752 -202.8441 L -21.740752 -199.4441 L -16.740752 -197.6441 L -8.340752 -195.8441 L .059248076 -194.8441 L 8.059248 -193.8441 L 15.659248 -193.6441 L 24.259248 -193.2441 L 35.85925 -193.4441 L 44.25925 -193.8441 L 53.65925 -194.4441 L 62.05925 -195.2441 L 71.25925 -196.6441 L 79.45925 -198.8441 L 85.25925 -200.6441 L 90.85925 -203.2441 L 93.65925 -202.0441 L 94.05925 -196.4441 L 91.25925 -188.4441 L 85.85925 -185.6441 L 75.25925 -182.4441 L 63.85925 -180.0441 L 52.65925 -179.2441 L 40.25925 -178.2441 L 29.85925 -178.2441 L 20.459248 -178.2441 L 8.859248 -178.8441 L -2.340752 -179.6441 L -12.940752 -181.8441 L -21.540752 -183.8441 L -27.740752 -186.6441 L -29.740752 -188.2441 L -32.940752 -195.8441 Z" fill="black"/>
      <path d="M -33.940752 -202.2441 L -28.540752 -202.8441 L -21.740752 -199.4441 L -16.740752 -197.6441 L -8.340752 -195.8441 L .059248076 -194.8441 L 8.059248 -193.8441 L 15.659248 -193.6441 L 24.259248 -193.2441 L 35.85925 -193.4441 L 44.25925 -193.8441 L 53.65925 -194.4441 L 62.05925 -195.2441 L 71.25925 -196.6441 L 79.45925 -198.8441 L 85.25925 -200.6441 L 90.85925 -203.2441 L 93.65925 -202.0441 L 94.05925 -196.4441 L 91.25925 -188.4441 L 85.85925 -185.6441 L 75.25925 -182.4441 L 63.85925 -180.0441 L 52.65925 -179.2441 L 40.25925 -178.2441 L 29.85925 -178.2441 L 20.459248 -178.2441 L 8.859248 -178.8441 L -2.340752 -179.6441 L -12.940752 -181.8441 L -21.540752 -183.8441 L -27.740752 -186.6441 L -29.740752 -188.2441 L -32.940752 -195.8441 Z" stroke="#7f8080" stroke-linecap="round" stroke-linejoin="round" stroke-width="1"/>
      <path d="M 124.21902 228.34086 L 138.2 229.2 L 150.21902 226.34086 L 163.21902 224.34086 L 166.8 223.6 L 162.21902 191.34086 L 159.21902 164.34086 L 157.21902 137.34086 L 154.21902 110.34086 L 153.21902 82.34086 L 153.21902 53.340856 L 152.21902 29.340856 L 152.21902 -7.659144 L 154.21902 -40.659144 L 157.21902 -71.65914 L 159.21902 -86.65914 L 164.21902 -102.65914 L 168.21902 -116.65914 L 172.21902 -129.65914 L 180.21902 -143.65914 L 186.21902 -154.65914 L 191.21902 -161.65914 L 182.21902 -166.65914 L 169.21902 -171.65914 L 156.21902 -175.65914 L 137.21902 -180.65914 L 122.21902 -185.65914 Z" fill="red"/>
      <path d="M 124.21902 228.34086 L 138.2 229.2 L 150.21902 226.34086 L 163.21902 224.34086 L 166.8 223.6 L 162.21902 191.34086 L 159.21902 164.34086 L 157.21902 137.34086 L 154.21902 110.34086 L 153.21902 82.34086 L 153.21902 53.340856 L 152.21902 29.340856 L 152.21902 -7.659144 L 154.21902 -40.659144 L 157.21902 -71.65914 L 159.21902 -86.65914 L 164.21902 -102.65914 L 168.21902 -116.65914 L 172.21902 -129.65914 L 180.21902 -143.65914 L 186.21902 -154.65914 L 191.21902 -161.65914 L 182.21902 -166.65914 L 169.21902 -171.65914 L 156.21902 -175.65914 L 137.21902 -180.65914 L 122.21902 -185.65914 Z" stroke="#7f8080" stroke-linecap="round" stroke-linejoin="round" stroke-width="1"/>
      <path d="M -61 229 L -75.81373 227.07503 L -86.81373 226.07503 L -99.81373 224.07503 L -103.81373 222.07503 L -98.81373 191.07503 L -97 165 L -94.5 137 L -93 110 L -92.5 81 L -91 54 L -90.5 28.5 L -91.5 -7.5 L -92.5 -41 L -92.5 -56 L -95 -71.5 L -97.5 -86.5 L -102 -102 L -106.5 -116.5 L -111.5 -130 L -118 -143.5 L -124.5 -154 L -128 -160.5 L -118.81373 -166.92497 L -105.81373 -171.92497 L -92.81373 -175.92497 L -74.5 -181.5 L -63.5 -185 L -58.81373 -185.92497 Z" fill="red"/>
      <path d="M -61 229 L -75.81373 227.07503 L -86.81373 226.07503 L -99.81373 224.07503 L -103.81373 222.07503 L -98.81373 191.07503 L -97 165 L -94.5 137 L -93 110 L -92.5 81 L -91 54 L -90.5 28.5 L -91.5 -7.5 L -92.5 -41 L -92.5 -56 L -95 -71.5 L -97.5 -86.5 L -102 -102 L -106.5 -116.5 L -111.5 -130 L -118 -143.5 L -124.5 -154 L -128 -160.5 L -118.81373 -166.92497 L -105.81373 -171.92497 L -92.81373 -175.92497 L -74.5 -181.5 L -63.5 -185 L -58.81373 -185.92497 Z" stroke="#7f8080" stroke-linecap="round" stroke-linejoin="round" stroke-width="1"/>
      <path d="M -3 234 L 23.202645 235 L 44.202645 234 L 63.202645 234 L 75.202645 233 L 70.202645 -146 L 57.202645 -140 L 44.202645 -137 L 31.6 -136.2 L 21.6 -137.2 L 8.2 -139.8 L -2.7973552 -143 L -4.797355 -144 Z" fill="red"/>
      <path d="M -3 234 L 23.202645 235 L 44.202645 234 L 63.202645 234 L 75.202645 233 L 70.202645 -146 L 57.202645 -140 L 44.202645 -137 L 31.6 -136.2 L 21.6 -137.2 L 8.2 -139.8 L -2.7973552 -143 L -4.797355 -144 Z" stroke="#7f8080" stroke-linecap="round" stroke-linejoin="round" stroke-width="1"/>
      <path d="M 70.8 241.64615 L 81 240.84615 L 73.6 -159.55386 L 66 -152.15386 Z" fill="black"/>
      <path d="M 70.8 241.64615 L 81 240.84615 L 73.6 -159.55386 L 66 -152.15386 Z" stroke="gray" stroke-linecap="round" stroke-linejoin="round" stroke-width=".25"/>
      <path d="M -4.2 243.4 L 6 242.6 L -1.3999999 -157.8 L -9 -150.4 Z" fill="black"/>
      <path d="M -4.2 243.4 L 6 242.6 L -1.3999999 -157.8 L -9 -150.4 Z" stroke="gray" stroke-linecap="round" stroke-linejoin="round" stroke-width=".25"/>
      <path d="M 123.2 231.6 L 133.2 229.8 L 125.2 -185.4 L 116.6 -188.8 Z" fill="black"/>
      <path d="M 123.2 231.6 L 133.2 229.8 L 125.2 -185.4 L 116.6 -188.8 Z" stroke="gray" stroke-linecap="round" stroke-linejoin="round" stroke-width=".25"/>
      <path d="M -59.993525 235 L -49.793525 234.2 L -57.4 -187.4 L -64 -185 Z" fill="black"/>
      <path d="M -59.993525 235 L -49.793525 234.2 L -57.4 -187.4 L -64 -185 Z" stroke="gray" stroke-linecap="round" stroke-linejoin="round" stroke-width=".25"/>
      <path d="M -33.42788 -202.0362 L -38.15705 -197.98264 C -39.307397 -196.99662 -40.552357 -196.1267 -41.873787 -195.38552 L -44.40042 -193.96835 C -45.835594 -193.16338 -46.416397 -191.39425 -45.73761 -189.89527 L -44.719994 -187.64803 C -44.598415 -187.37954 -44.471687 -187.11342 -44.33988 -186.8498 L -42.53761 -183.24526 L -40.050623 -178.2713 C -39.708826 -177.5877 -39.33317 -176.92157 -38.925048 -176.27537 L -36.598656 -172.59192 C -36.15828 -171.89465 -35.68072 -171.22158 -35.168047 -170.57561 L -31.757362 -166.27815 C -31.21131 -165.59013 -30.62629 -164.93394 -30.005178 -164.31283 L -25.339135 -159.64679 C -24.938255 -159.24591 -24.52269 -158.85999 -24.09329 -158.48982 L -19.529765 -154.55574 C -19.135108 -154.21552 -18.729003 -153.88881 -18.312154 -153.57617 L -14.337214 -150.59497 C -13.671301 -150.09553 -12.978767 -149.63262 -12.262669 -149.20826 L -8.129606 -146.75904 C -8.0016105 -146.68319 -7.8728825 -146.60859 -7.74344 -146.53523 L -3.0458933 -143.8733 C -2.3076024 -143.45493 -1.5467239 -143.07774 -.766748 -142.74347 L 2.7830683 -141.22212 C 3.3690306 -140.97099 3.9651805 -140.74433 4.5699736 -140.54274 L 9.58808 -138.87003 C 10.835325 -138.45429 12.11592 -138.14624 13.415795 -137.9493 L 17.514642 -137.32826 C 17.879756 -137.27294 18.246149 -137.22642 18.613502 -137.18874 L 25.494605 -136.48299 C 25.73978 -136.45784 25.985344 -136.43664 26.2312 -136.41938 L 30.758346 -136.10169 C 31.29421 -136.06409 31.831224 -136.04527 32.368405 -136.04527 L 35.63046 -136.04526 C 36.58416 -136.04526 37.536933 -136.10458 38.483268 -136.22287 L 42.471983 -136.72146 C 43.131945 -136.80396 43.78802 -136.91504 44.438353 -137.0544 L 50.520386 -138.35769 C 51.41426 -138.54924 52.29592 -138.7939 53.160677 -139.09039 L 57.669525 -140.63628 C 58.46417 -140.90873 59.2433 -141.22451 60.0034 -141.5822 L 64.83677 -143.85674 C 65.38697 -144.11565 65.92668 -144.39629 66.45464 -144.69798 L 70.2225 -146.85104 C 70.91529 -147.24692 71.58701 -147.67858 72.23494 -148.14428 L 76.91106 -151.50525 C 77.41175 -151.86511 77.89776 -152.24497 78.36792 -152.64389 L 83.68877 -157.15856 C 84.07108 -157.48294 84.44269 -157.81974 84.80298 -158.16842 L 89.5022 -162.71604 C 90.14179 -163.335 90.74491 -163.99056 91.30852 -164.67942 L 95.10181 -169.31566 C 95.60852 -169.93497 96.08257 -170.58031 96.52201 -171.24904 L 100.13919 -176.75344 C 100.35462 -177.08127 100.56163 -177.41456 100.76002 -177.75298 L 103.28311 -182.05708 C 103.66906 -182.71546 104.022 -183.39265 104.34062 -184.08612 L 106.45932 -188.6974 C 106.99218 -189.85715 107.36334 -191.08456 107.56239 -192.34526 L 107.56239 -192.34526 C 107.7407 -193.47453 107.1614 -194.58797 106.13432 -195.0901 L 100.84088 -197.678 C 99.52642 -198.32063 98.29183 -199.11514 97.16239 -200.04526 L 96.75638 -200.37963 C 95.91205 -201.07496 95.28864 -202.00126 94.96239 -203.04526 L 94.96239 -203.04526 C 94.91573 -203.19458 94.75686 -203.2778 94.60754 -203.23114 C 94.49247 -203.19518 94.41277 -203.09031 94.40892 -202.96981 L 94.29968 -199.5469 C 94.20894 -196.70381 93.5916 -193.90224 92.47899 -191.28433 L 91.60206 -189.22096 C 91.04349 -187.90669 90.36374 -186.6473 89.5716 -185.45909 L 85.88582 -179.93042 C 85.13831 -178.80915 84.29371 -177.75575 83.36175 -176.78238 L 77.06668 -170.20753 C 76.19861 -169.30087 75.25777 -168.4668 74.2536 -167.71367 L 65.878695 -161.4325 C 65.00228 -160.77518 64.08002 -160.18133 63.11896 -159.65546 L 55.933756 -155.72394 C 54.62263 -155.00653 53.244704 -154.41863 51.819515 -153.96857 L 45.146606 -151.86133 C 43.429733 -151.31916 41.655136 -150.98046 39.859267 -150.85219 L 32.972815 -150.3603 C 31.900517 -150.2837 30.824168 -150.28238 29.751685 -150.35635 L 21.315427 -150.93816 C 20.28125 -151.00948 19.25308 -151.15064 18.237946 -151.36067 L 11.102741 -152.83692 C 9.150787 -153.24077 7.259614 -153.89665 5.4767574 -154.78808 L .81734825 -157.11779 C -.4167885 -157.73485 -1.5928936 -158.46173 -2.696739 -159.28961 L -8.378697 -163.55108 C -8.817833 -163.88043 -9.245038 -164.2254 -9.65949 -164.58532 L -15.414671 -169.58324 C -16.228957 -170.29038 -16.992497 -171.05392 -17.69964 -171.8682 L -22.104865 -176.9409 C -22.858968 -177.80925 -23.546876 -178.73295 -24.1628 -179.70422 L -27.896503 -185.59198 C -28.25707 -186.16056 -28.592495 -186.7447 -28.90181 -187.34272 L -30.522185 -190.47544 C -31.13133 -191.65312 -31.637498 -192.88126 -32.035035 -194.14615 L -33.315274 -198.21964 C -33.53005 -198.90302 -33.71278 -199.59605 -33.862874 -200.29649 L -34.08829 -201.34843 C -34.173365 -201.74544 -33.947007 -202.1431 -33.562203 -202.27263 L -33.562203 -202.27263 C -33.489708 -202.29704 -33.411156 -202.25805 -33.38675 -202.18556 C -33.368737 -202.13205 -33.38501 -202.07296 -33.42788 -202.0362 Z" fill="red"/>
      <path d="M -33.42788 -202.0362 L -38.15705 -197.98264 C -39.307397 -196.99662 -40.552357 -196.1267 -41.873787 -195.38552 L -44.40042 -193.96835 C -45.835594 -193.16338 -46.416397 -191.39425 -45.73761 -189.89527 L -44.719994 -187.64803 C -44.598415 -187.37954 -44.471687 -187.11342 -44.33988 -186.8498 L -42.53761 -183.24526 L -40.050623 -178.2713 C -39.708826 -177.5877 -39.33317 -176.92157 -38.925048 -176.27537 L -36.598656 -172.59192 C -36.15828 -171.89465 -35.68072 -171.22158 -35.168047 -170.57561 L -31.757362 -166.27815 C -31.21131 -165.59013 -30.62629 -164.93394 -30.005178 -164.31283 L -25.339135 -159.64679 C -24.938255 -159.24591 -24.52269 -158.85999 -24.09329 -158.48982 L -19.529765 -154.55574 C -19.135108 -154.21552 -18.729003 -153.88881 -18.312154 -153.57617 L -14.337214 -150.59497 C -13.671301 -150.09553 -12.978767 -149.63262 -12.262669 -149.20826 L -8.129606 -146.75904 C -8.0016105 -146.68319 -7.8728825 -146.60859 -7.74344 -146.53523 L -3.0458933 -143.8733 C -2.3076024 -143.45493 -1.5467239 -143.07774 -.766748 -142.74347 L 2.7830683 -141.22212 C 3.3690306 -140.97099 3.9651805 -140.74433 4.5699736 -140.54274 L 9.58808 -138.87003 C 10.835325 -138.45429 12.11592 -138.14624 13.415795 -137.9493 L 17.514642 -137.32826 C 17.879756 -137.27294 18.246149 -137.22642 18.613502 -137.18874 L 25.494605 -136.48299 C 25.73978 -136.45784 25.985344 -136.43664 26.2312 -136.41938 L 30.758346 -136.10169 C 31.29421 -136.06409 31.831224 -136.04527 32.368405 -136.04527 L 35.63046 -136.04526 C 36.58416 -136.04526 37.536933 -136.10458 38.483268 -136.22287 L 42.471983 -136.72146 C 43.131945 -136.80396 43.78802 -136.91504 44.438353 -137.0544 L 50.520386 -138.35769 C 51.41426 -138.54924 52.29592 -138.7939 53.160677 -139.09039 L 57.669525 -140.63628 C 58.46417 -140.90873 59.2433 -141.22451 60.0034 -141.5822 L 64.83677 -143.85674 C 65.38697 -144.11565 65.92668 -144.39629 66.45464 -144.69798 L 70.2225 -146.85104 C 70.91529 -147.24692 71.58701 -147.67858 72.23494 -148.14428 L 76.91106 -151.50525 C 77.41175 -151.86511 77.89776 -152.24497 78.36792 -152.64389 L 83.68877 -157.15856 C 84.07108 -157.48294 84.44269 -157.81974 84.80298 -158.16842 L 89.5022 -162.71604 C 90.14179 -163.335 90.74491 -163.99056 91.30852 -164.67942 L 95.10181 -169.31566 C 95.60852 -169.93497 96.08257 -170.58031 96.52201 -171.24904 L 100.13919 -176.75344 C 100.35462 -177.08127 100.56163 -177.41456 100.76002 -177.75298 L 103.28311 -182.05708 C 103.66906 -182.71546 104.022 -183.39265 104.34062 -184.08612 L 106.45932 -188.6974 C 106.99218 -189.85715 107.36334 -191.08456 107.56239 -192.34526 L 107.56239 -192.34526 C 107.7407 -193.47453 107.1614 -194.58797 106.13432 -195.0901 L 100.84088 -197.678 C 99.52642 -198.32063 98.29183 -199.11514 97.16239 -200.04526 L 96.75638 -200.37963 C 95.91205 -201.07496 95.28864 -202.00126 94.96239 -203.04526 L 94.96239 -203.04526 C 94.91573 -203.19458 94.75686 -203.2778 94.60754 -203.23114 C 94.49247 -203.19518 94.41277 -203.09031 94.40892 -202.96981 L 94.29968 -199.5469 C 94.20894 -196.70381 93.5916 -193.90224 92.47899 -191.28433 L 91.60206 -189.22096 C 91.04349 -187.90669 90.36374 -186.6473 89.5716 -185.45909 L 85.88582 -179.93042 C 85.13831 -178.80915 84.29371 -177.75575 83.36175 -176.78238 L 77.06668 -170.20753 C 76.19861 -169.30087 75.25777 -168.4668 74.2536 -167.71367 L 65.878695 -161.4325 C 65.00228 -160.77518 64.08002 -160.18133 63.11896 -159.65546 L 55.933756 -155.72394 C 54.62263 -155.00653 53.244704 -154.41863 51.819515 -153.96857 L 45.146606 -151.86133 C 43.429733 -151.31916 41.655136 -150.98046 39.859267 -150.85219 L 32.972815 -150.3603 C 31.900517 -150.2837 30.824168 -150.28238 29.751685 -150.35635 L 21.315427 -150.93816 C 20.28125 -151.00948 19.25308 -151.15064 18.237946 -151.36067 L 11.102741 -152.83692 C 9.150787 -153.24077 7.259614 -153.89665 5.4767574 -154.78808 L .81734825 -157.11779 C -.4167885 -157.73485 -1.5928936 -158.46173 -2.696739 -159.28961 L -8.378697 -163.55108 C -8.817833 -163.88043 -9.245038 -164.2254 -9.65949 -164.58532 L -15.414671 -169.58324 C -16.228957 -170.29038 -16.992497 -171.05392 -17.69964 -171.8682 L -22.104865 -176.9409 C -22.858968 -177.80925 -23.546876 -178.73295 -24.1628 -179.70422 L -27.896503 -185.59198 C -28.25707 -186.16056 -28.592495 -186.7447 -28.90181 -187.34272 L -30.522185 -190.47544 C -31.13133 -191.65312 -31.637498 -192.88126 -32.035035 -194.14615 L -33.315274 -198.21964 C -33.53005 -198.90302 -33.71278 -199.59605 -33.862874 -200.29649 L -34.08829 -201.34843 C -34.173365 -201.74544 -33.947007 -202.1431 -33.562203 -202.27263 L -33.562203 -202.27263 C -33.489708 -202.29704 -33.411156 -202.25805 -33.38675 -202.18556 C -33.368737 -202.13205 -33.38501 -202.07296 -33.42788 -202.0362 Z" stroke="#7f8080" stroke-linecap="round" stroke-linejoin="round" stroke-width="1"/>
      <path d="M -104.18679 223.2 L -104.18679 223.2 C -104.25247 223.72549 -104.18964 224.25905 -104.0037 224.7549 L -103.35269 226.49092 C -103.17594 226.96227 -102.94885 227.41318 -102.67538 227.83582 L -101.70757 229.33153 C -101.16661 230.16756 -100.45351 230.87855 -99.61588 231.41702 L -98.53783 232.11005 C -98.23757 232.30307 -97.923 232.47285 -97.59684 232.61789 L -96.27999 233.20349 C -95.68346 233.46876 -95.05275 233.64928 -94.40621 233.7398 L -85.39579 235.00126 C -85.38579 235.00265 -85.3758 235.00403 -85.3658 235.0054 L -73.6498 236.594 C -73.6038 236.60024 -73.55774 236.60601 -73.51162 236.61134 L -63.228685 237.79783 C -63.19676 237.8015 -63.16481 237.80498 -63.132835 237.80822 L -49.42277 239.1991 C -49.39479 239.20193 -49.36679 239.2046 -49.338774 239.2071 L -38.233474 240.19865 C -38.198356 240.2018 -38.163214 240.20466 -38.128052 240.20726 L -27.441515 240.99886 C -27.401036 241.00185 -27.360532 241.0045 -27.320007 241.0068 L -16.812024 241.6016 C -16.791205 241.60276 -16.770392 241.60404 -16.749584 241.6054 L -4.706807 242.3951 C -4.622806 242.4006 -4.5387125 242.4046 -4.4545675 242.40707 L 8.992557 242.80257 C 9.010322 242.8031 9.028085 242.80368 9.045846 242.80434 L 19.689709 243.19856 C 19.776032 243.20176 19.862408 243.20335 19.94879 243.20335 L 30.557807 243.20335 C 30.59874 243.20335 30.63967 243.2037 30.680595 243.20443 L 41.76702 243.39893 C 41.93509 243.40188 42.10321 243.39877 42.271057 243.38962 L 52.89229 242.81028 C 52.976893 242.80566 53.061574 242.80258 53.14629 242.80104 L 63.91085 242.60532 C 63.98308 242.604 64.05529 242.60158 64.12745 242.59803 L 76.14607 242.00695 C 76.19483 242.00455 76.243555 242.00165 76.29225 241.99823 L 87.5323 241.20945 C 87.59023 241.2054 87.64812 241.2006 87.70594 241.1951 L 100.11651 240.01313 C 100.18497 240.00661 100.25352 240.0011 100.32214 239.9966 L 112.25416 239.21418 C 112.36418 239.20696 112.474 239.19715 112.58355 239.18475 L 122.9959 238.006 C 123.01144 238.00423 123.02697 238.00242 123.0425 238.00056 L 132.9902 236.80683 C 133.00954 236.8045 133.02886 236.8021 133.04818 236.79963 L 146.88394 235.0221 C 146.98115 235.0096 147.0781 234.99507 147.1747 234.9785 L 153.72819 233.85506 C 153.92915 233.8206 154.13153 233.79495 154.33473 233.77817 L 157.56706 233.5112 C 158.4563 233.43775 159.3233 233.19497 160.12135 232.79594 L 161.60765 232.0528 C 162.20824 231.7525 162.7625 231.36735 163.25338 230.9092 L 164.5885 229.66308 C 165.19532 229.09672 165.65073 228.38747 165.91322 227.6 L 166.20805 226.71552 C 166.27812 226.5053 166.33817 226.29187 166.388 226.07595 L 166.8577 224.04056 C 166.89293 223.88792 166.85949 223.72752 166.76621 223.60168 L 166.76621 223.60168 C 166.67587 223.4798 166.52523 223.4183 166.3754 223.44214 L 157.89555 224.7912 C 157.84466 224.7993 157.79385 224.80796 157.74315 224.81718 L 144.7584 227.17805 C 144.66561 227.19492 144.5725 227.2099 144.47911 227.22302 L 133.24943 228.7991 C 133.22928 228.80194 133.20914 228.80486 133.18902 228.80786 L 120.06643 230.76645 C 119.90167 230.79105 119.73608 230.80975 119.56998 230.82253 L 106.84517 231.80136 C 106.82786 231.8027 106.81055 231.80396 106.79323 231.80516 L 92.45308 232.801 C 92.4305 232.80257 92.40791 232.80403 92.38531 232.80538 L 79.08205 233.5996 C 79.04016 233.6021 78.99824 233.60423 78.9563 233.60597 L 64.76485 234.19729 C 64.667764 234.20133 64.570605 234.20335 64.473436 234.20335 L 51.219206 234.20335 L 38.677535 234.20335 C 38.63865 234.20335 38.599764 234.20368 38.560884 234.20433 L 26.802496 234.4003 C 26.680323 234.40234 26.558118 234.40117 26.436005 234.3968 L 15.602405 234.0099 C 15.480293 234.00554 15.358087 234.00437 15.235914 234.0064 L 3.5212736 234.20165 C 3.4532314 234.2028 3.3851763 234.20293 3.31713 234.20208 L -12.385155 234.0058 C -12.515557 234.00417 -12.645887 233.9989 -12.775993 233.98998 L -27.08577 233.00986 C -27.149118 233.00552 -27.212403 233.00032 -27.275608 232.99426 L -41.766614 231.6047 C -41.77607 231.6038 -41.78552 231.60288 -41.79497 231.60194 L -55.60701 230.22073 C -55.72285 230.20915 -55.83838 230.19468 -55.9535 230.17733 L -70.26265 228.02116 C -70.34141 228.0093 -70.42036 227.99877 -70.49948 227.9896 L -84.01941 226.42207 C -84.12699 226.4096 -84.23426 226.39463 -84.34114 226.37718 L -93.73323 224.84377 C -93.89822 224.81684 -94.0622 224.784 -94.22484 224.74532 L -103.30244 222.58654 C -103.69075 222.4942 -104.08041 222.73412 -104.17276 223.12244 C -104.17884 223.14802 -104.18353 223.17392 -104.18679 223.2 Z" fill="black"/>
      <path d="M -104.18679 223.2 L -104.18679 223.2 C -104.25247 223.72549 -104.18964 224.25905 -104.0037 224.7549 L -103.35269 226.49092 C -103.17594 226.96227 -102.94885 227.41318 -102.67538 227.83582 L -101.70757 229.33153 C -101.16661 230.16756 -100.45351 230.87855 -99.61588 231.41702 L -98.53783 232.11005 C -98.23757 232.30307 -97.923 232.47285 -97.59684 232.61789 L -96.27999 233.20349 C -95.68346 233.46876 -95.05275 233.64928 -94.40621 233.7398 L -85.39579 235.00126 C -85.38579 235.00265 -85.3758 235.00403 -85.3658 235.0054 L -73.6498 236.594 C -73.6038 236.60024 -73.55774 236.60601 -73.51162 236.61134 L -63.228685 237.79783 C -63.19676 237.8015 -63.16481 237.80498 -63.132835 237.80822 L -49.42277 239.1991 C -49.39479 239.20193 -49.36679 239.2046 -49.338774 239.2071 L -38.233474 240.19865 C -38.198356 240.2018 -38.163214 240.20466 -38.128052 240.20726 L -27.441515 240.99886 C -27.401036 241.00185 -27.360532 241.0045 -27.320007 241.0068 L -16.812024 241.6016 C -16.791205 241.60276 -16.770392 241.60404 -16.749584 241.6054 L -4.706807 242.3951 C -4.622806 242.4006 -4.5387125 242.4046 -4.4545675 242.40707 L 8.992557 242.80257 C 9.010322 242.8031 9.028085 242.80368 9.045846 242.80434 L 19.689709 243.19856 C 19.776032 243.20176 19.862408 243.20335 19.94879 243.20335 L 30.557807 243.20335 C 30.59874 243.20335 30.63967 243.2037 30.680595 243.20443 L 41.76702 243.39893 C 41.93509 243.40188 42.10321 243.39877 42.271057 243.38962 L 52.89229 242.81028 C 52.976893 242.80566 53.061574 242.80258 53.14629 242.80104 L 63.91085 242.60532 C 63.98308 242.604 64.05529 242.60158 64.12745 242.59803 L 76.14607 242.00695 C 76.19483 242.00455 76.243555 242.00165 76.29225 241.99823 L 87.5323 241.20945 C 87.59023 241.2054 87.64812 241.2006 87.70594 241.1951 L 100.11651 240.01313 C 100.18497 240.00661 100.25352 240.0011 100.32214 239.9966 L 112.25416 239.21418 C 112.36418 239.20696 112.474 239.19715 112.58355 239.18475 L 122.9959 238.006 C 123.01144 238.00423 123.02697 238.00242 123.0425 238.00056 L 132.9902 236.80683 C 133.00954 236.8045 133.02886 236.8021 133.04818 236.79963 L 146.88394 235.0221 C 146.98115 235.0096 147.0781 234.99507 147.1747 234.9785 L 153.72819 233.85506 C 153.92915 233.8206 154.13153 233.79495 154.33473 233.77817 L 157.56706 233.5112 C 158.4563 233.43775 159.3233 233.19497 160.12135 232.79594 L 161.60765 232.0528 C 162.20824 231.7525 162.7625 231.36735 163.25338 230.9092 L 164.5885 229.66308 C 165.19532 229.09672 165.65073 228.38747 165.91322 227.6 L 166.20805 226.71552 C 166.27812 226.5053 166.33817 226.29187 166.388 226.07595 L 166.8577 224.04056 C 166.89293 223.88792 166.85949 223.72752 166.76621 223.60168 L 166.76621 223.60168 C 166.67587 223.4798 166.52523 223.4183 166.3754 223.44214 L 157.89555 224.7912 C 157.84466 224.7993 157.79385 224.80796 157.74315 224.81718 L 144.7584 227.17805 C 144.66561 227.19492 144.5725 227.2099 144.47911 227.22302 L 133.24943 228.7991 C 133.22928 228.80194 133.20914 228.80486 133.18902 228.80786 L 120.06643 230.76645 C 119.90167 230.79105 119.73608 230.80975 119.56998 230.82253 L 106.84517 231.80136 C 106.82786 231.8027 106.81055 231.80396 106.79323 231.80516 L 92.45308 232.801 C 92.4305 232.80257 92.40791 232.80403 92.38531 232.80538 L 79.08205 233.5996 C 79.04016 233.6021 78.99824 233.60423 78.9563 233.60597 L 64.76485 234.19729 C 64.667764 234.20133 64.570605 234.20335 64.473436 234.20335 L 51.219206 234.20335 L 38.677535 234.20335 C 38.63865 234.20335 38.599764 234.20368 38.560884 234.20433 L 26.802496 234.4003 C 26.680323 234.40234 26.558118 234.40117 26.436005 234.3968 L 15.602405 234.0099 C 15.480293 234.00554 15.358087 234.00437 15.235914 234.0064 L 3.5212736 234.20165 C 3.4532314 234.2028 3.3851763 234.20293 3.31713 234.20208 L -12.385155 234.0058 C -12.515557 234.00417 -12.645887 233.9989 -12.775993 233.98998 L -27.08577 233.00986 C -27.149118 233.00552 -27.212403 233.00032 -27.275608 232.99426 L -41.766614 231.6047 C -41.77607 231.6038 -41.78552 231.60288 -41.79497 231.60194 L -55.60701 230.22073 C -55.72285 230.20915 -55.83838 230.19468 -55.9535 230.17733 L -70.26265 228.02116 C -70.34141 228.0093 -70.42036 227.99877 -70.49948 227.9896 L -84.01941 226.42207 C -84.12699 226.4096 -84.23426 226.39463 -84.34114 226.37718 L -93.73323 224.84377 C -93.89822 224.81684 -94.0622 224.784 -94.22484 224.74532 L -103.30244 222.58654 C -103.69075 222.4942 -104.08041 222.73412 -104.17276 223.12244 C -104.17884 223.14802 -104.18353 223.17392 -104.18679 223.2 Z" stroke="#7f8080" stroke-linecap="round" stroke-linejoin="round" stroke-width="1"/>
    </g>
  </g>
</svg>
