<?xml version="1.0" encoding="UTF-8" standalone="no"?>
<!DOCTYPE svg PUBLIC "-//W3C//DTD SVG 1.1//EN" "http://www.w3.org/Graphics/SVG/1.1/DTD/svg11.dtd">
<svg xmlns:xl="http://www.w3.org/1999/xlink" xmlns:dc="http://purl.org/dc/elements/1.1/" xmlns="http://www.w3.org/2000/svg" version="1.1" viewBox="-157 247 435 450" width="435" height="450">
  <defs/>
  <metadata> Produced by OmniGraffle 7.19.2\n2023-12-06 01:13:20 +0000</metadata>
  <g id="Canvas_5" stroke-opacity="1" fill-opacity="1" stroke-dasharray="none" fill="none" stroke="none">
    <title>Canvas 5</title>
    <g id="Canvas_5_Layer_1">
      <title>Layer 1</title>
      <g id="Graphic_9">
        <path d="M -67.026545 684.5079 L -53.284304 686.7983 C -53.10093 686.8288 -52.91703 686.8562 -52.7327 686.88035 L -24.37906 690.59565 C -24.132532 690.62796 -23.885285 690.6545 -23.63752 690.6753 L 6.60537 693.2118 C 6.862274 693.2333 7.119662 693.2487 7.377307 693.2578 L 46.30822 694.6341 C 46.49658 694.6408 46.685045 694.6441 46.873523 694.6441 L 78.340845 694.6441 C 78.50746 694.6441 78.67407 694.6415 78.8406 694.6363 L 103.87539 693.854 C 104.08563 693.8474 104.29573 693.8367 104.50555 693.8218 L 126.5533 692.2609 C 126.71161 692.2497 126.86975 692.23616 127.02766 692.22024 L 152.28815 689.6746 C 152.48989 689.6543 152.69122 689.6301 152.89204 689.6021 L 176.68474 686.2868 C 176.88875 686.2583 177.0922 686.226 177.29496 686.1897 L 186.49079 684.5441 C 191.8179 683.59084 195.46876 678.6372 194.80234 673.2667 L 192.59475 655.4761 C 192.5921 655.4548 192.5895 655.43345 192.58695 655.4121 L 189.02312 625.7136 C 189.00157 625.53395 188.98306 625.35396 188.9676 625.1737 L 186.60539 597.6145 C 186.59565 597.5009 186.58713 597.3872 186.57983 597.2735 L 185.1932 575.6818 C 185.1916 575.6567 185.18992 575.63154 185.18818 575.6064 L 183.59603 552.5201 C 183.59253 552.46944 183.58928 552.4188 183.58627 552.3681 L 182.4099 532.5659 C 182.39716 532.3514 182.38874 532.13665 182.38465 531.9218 L 181.99236 511.32696 C 181.99131 511.2717 181.98997 511.2165 181.98835 511.1613 L 181.39322 490.92694 C 181.3916 490.8717 181.39026 490.8165 181.3892 490.76126 L 180.99855 470.2517 C 180.99337 469.98 180.99512 469.70824 181.0038 469.43664 L 181.58973 451.077 C 181.59044 451.0551 181.59118 451.03314 181.59197 451.0112 L 182.38005 429.1419 C 182.3872 428.9434 182.39806 428.74503 182.4126 428.54693 L 183.97007 407.3263 C 183.98388 407.1382 183.99436 406.94984 184.0015 406.76135 L 184.75596 386.8625 C 184.77915 386.25074 184.83744 385.64083 184.93052 385.03576 L 187.66953 367.23224 C 187.7503 366.70714 187.8572 366.1864 187.9898 365.67193 L 192.61806 347.7143 C 192.73316 347.2677 192.8675 346.82632 193.02073 346.39135 L 198.74152 330.1517 C 198.9076 329.68024 199.0957 329.2168 199.30517 328.76293 L 204.83673 316.7779 C 204.93942 316.5554 205.0472 316.3353 205.16 316.11775 L 210.52223 305.77633 C 210.56793 305.6882 210.61446 305.60047 210.6618 305.5132 L 215.87777 295.89623 C 216.61505 294.53687 217.56468 293.30397 218.69079 292.2441 L 218.69079 292.2441 C 219.36598 291.60864 219.39817 290.54613 218.7627 289.87094 C 218.6382 289.73867 218.49307 289.62747 218.33295 289.5417 L 215.1188 287.81984 C 214.90016 287.7027 214.6788 287.59066 214.45494 287.48382 L 206.60097 283.73533 C 206.19436 283.54127 205.77974 283.36447 205.3582 283.2054 L 195.68338 279.55452 C 195.48833 279.48092 195.29187 279.41114 195.0941 279.3452 L 182.39963 275.11372 C 182.2604 275.0673 182.12055 275.02283 181.9801 274.98027 L 169.09658 271.07617 C 169.02605 271.0548 168.95567 271.03293 168.88544 271.0106 L 156.38144 267.03205 C 155.98782 266.9068 155.5992 266.76636 155.21643 266.61104 L 143.24049 261.75123 C 142.40883 261.41375 141.60704 261.00688 140.8436 260.53494 L 131.22436 254.5885 C 131.06865 254.49224 130.91461 254.39333 130.7623 254.2918 L 125.87221 251.03172 C 124.89081 250.37746 124.0195 249.57156 123.29078 248.6441 L 123.29078 248.6441 C 123.18518 248.5097 122.99062 248.48636 122.85621 248.59196 C 122.75347 248.67268 122.7125 248.80923 122.75381 248.9332 L 122.89078 249.3441 C 123.35003 250.72186 123.4546 252.19314 123.1948 253.622 L 122.79967 255.79526 C 122.52845 257.28692 122.04661 258.73246 121.36858 260.0885 L 119.83626 263.15315 C 119.53956 263.74655 119.20624 264.32092 118.83823 264.87293 L 115.63453 269.6785 C 115.20593 270.3214 114.73132 270.9324 114.21443 271.50672 L 109.65238 276.57566 C 109.61132 276.6213 109.56999 276.6667 109.5284 276.71184 L 103.53417 283.21987 C 102.90643 283.9014 102.22068 284.52713 101.48465 285.08998 L 96.46047 288.932 C 96.01432 289.27317 95.55052 289.5906 95.07099 289.883 L 88.58458 293.83813 C 87.92292 294.2416 87.23283 294.59643 86.51975 294.89987 L 79.40434 297.9277 C 78.59667 298.2714 77.76209 298.54803 76.90905 298.75483 L 72.829994 299.7437 C 72.00516 299.94365 71.165726 300.07767 70.31963 300.14446 L 64.619425 300.59448 C 64.20049 300.62755 63.78042 300.6441 63.360186 300.6441 L 56.32787 300.6441 C 55.570766 300.6441 54.81462 300.59037 54.065127 300.4833 L 46.11868 299.3481 C 45.63367 299.2788 45.1521 299.18728 44.67549 299.0738 L 38.714264 297.65446 C 37.568777 297.38173 36.4569 296.98337 35.398828 296.46664 L 29.118824 293.39966 C 28.633774 293.16278 28.161023 292.9015 27.702383 292.61683 L 23.49052 290.00257 C 22.89135 289.63067 22.317424 289.21956 21.772495 288.77194 L 17.32639 285.1198 C 17.102693 284.93603 16.884024 284.74625 16.670626 284.55063 L 12.868283 281.06515 C 12.416988 280.65146 11.989809 280.2122 11.588852 279.74957 L 7.470106 274.99717 C 7.150724 274.62866 6.848357 274.24573 6.5639516 273.8496 L 2.1342972 267.67972 C 1.639405 266.9904 1.2001343 266.2628 .8206419 265.50383 L -1.7558219 260.3509 C -1.7914185 260.2797 -1.8264833 260.20825 -1.8610135 260.13653 L -3.1092175 257.5441 C -3.9599323 255.77724 -4.3154534 253.8127 -4.1379123 251.85975 L -3.957707 249.8775 C -3.9339016 249.61563 -4.1268845 249.38405 -4.3887466 249.36025 C -4.5511416 249.34548 -4.709795 249.41486 -4.8092176 249.5441 L -4.8092176 249.5441 C -5.472664 250.4066 -6.252772 251.17267 -7.127149 251.82035 L -11.023683 254.70667 C -11.147366 254.7983 -11.272365 254.88812 -11.398641 254.97613 L -16.020891 258.1977 C -17.207627 259.02482 -18.501048 259.68718 -19.865798 260.1667 L -24.472924 261.7854 C -24.963495 261.95777 -25.445372 262.15395 -25.91684 262.37323 L -32.76362 265.55778 C -33.459783 265.88158 -34.17835 266.15485 -34.913747 266.37547 L -45.784136 269.63658 C -45.80086 269.6416 -45.81757 269.64664 -45.834276 269.6517 L -56.80236 272.9813 C -56.94026 273.02317 -57.077586 273.0669 -57.2143 273.11247 L -70.13554 277.41955 C -70.18466 277.43592 -70.23386 277.45206 -70.28314 277.46795 L -81.65054 281.13486 C -82.28903 281.34082 -82.91393 281.58674 -83.52154 281.87115 L -91.4535 285.584 C -91.82384 285.75734 -92.1874 285.94482 -92.54338 286.14603 L -98.48949 289.50687 C -99.74253 290.2151 -100.18417 291.80503 -99.47594 293.05807 C -99.39882 293.1945 -99.30955 293.3237 -99.20922 293.4441 L -98.34511 294.48104 C -97.59016 295.38698 -96.93769 296.3736 -96.39957 297.42293 L -93.32243 303.42334 C -93.24696 303.5705 -93.16921 303.7165 -93.08922 303.86126 L -89.13446 311.01748 C -89.05097 311.16855 -88.96993 311.32097 -88.89137 311.47468 L -84.78307 319.51266 C -84.534 319.99997 -84.3101 320.49974 -84.11224 321.01 L -80.62947 329.99187 C -80.61597 330.0267 -80.60235 330.06147 -80.5886 330.0962 L -76.99228 339.18165 C -76.87027 339.4899 -76.75787 339.80183 -76.65524 340.11705 L -74.033404 348.16982 C -74.01728 348.21935 -74.0014 348.26895 -73.98576 348.31863 L -70.91371 358.0769 C -70.71092 358.72106 -70.549114 359.3774 -70.42927 360.04202 L -68.443955 371.0515 C -68.4208 371.1799 -68.39921 371.3086 -68.379205 371.43753 L -66.673335 382.4309 C -66.6306 382.70633 -66.595065 382.9828 -66.56677 383.2601 L -65.67935 391.9568 C -65.63262 392.4148 -65.60567 392.8746 -65.59859 393.3349 L -65.41435 405.3105 C -65.41093 405.5329 -65.40287 405.75516 -65.390185 405.9772 L -64.61981 419.45876 C -64.61275 419.5823 -64.604255 419.7058 -64.59433 419.82917 L -63.26076 436.40354 C -63.22641 436.8304 -63.20922 437.2585 -63.20922 437.68675 L -63.20922 450.13653 C -63.20922 450.34157 -63.20528 450.5466 -63.1974 450.75146 L -62.617046 465.8406 C -62.61183 465.97627 -62.60834 466.112 -62.60657 466.24776 L -62.414415 481.044 C -62.41095 481.3107 -62.41416 481.57744 -62.42403 481.844 L -62.998256 497.3481 C -63.00556 497.54543 -63.00922 497.74286 -63.00922 497.9403 L -63.00922 511.53653 C -63.00922 511.74157 -63.01316 511.9466 -63.02104 512.15146 L -63.60623 527.36647 C -63.60822 527.4182 -63.610465 527.47 -63.61296 527.5217 L -64.40828 544.02466 C -64.408906 544.0376 -64.40955 544.0506 -64.4102 544.06356 L -65.20469 559.7547 C -65.20771 559.8143 -65.21106 559.8739 -65.214744 559.93344 L -66.403655 579.1542 C -66.407364 579.2141 -66.41141 579.2741 -66.415794 579.334 L -68.19893 603.7035 C -68.20579 603.79725 -68.21347 603.8909 -68.22198 603.9845 L -70.00787 623.6293 C -70.00877 623.6392 -70.00968 623.64905 -70.01059 623.6589 L -71.78136 642.7438 C -71.79993 642.944 -71.82227 643.1438 -71.84838 643.34314 L -73.80909 658.31586 C -73.9419 659.33005 -74.21104 660.3217 -74.60922 661.2638 L -74.60922 661.2638 C -75.00679 662.2046 -75.25546 663.2015 -75.34629 664.2188 L -76.10922 672.7638 C -76.616975 678.4509 -72.65851 683.5692 -67.026545 684.5079 Z" fill="#ce434f"/>
        <path d="M -67.026545 684.5079 L -53.284304 686.7983 C -53.10093 686.8288 -52.91703 686.8562 -52.7327 686.88035 L -24.37906 690.59565 C -24.132532 690.62796 -23.885285 690.6545 -23.63752 690.6753 L 6.60537 693.2118 C 6.862274 693.2333 7.119662 693.2487 7.377307 693.2578 L 46.30822 694.6341 C 46.49658 694.6408 46.685045 694.6441 46.873523 694.6441 L 78.340845 694.6441 C 78.50746 694.6441 78.67407 694.6415 78.8406 694.6363 L 103.87539 693.854 C 104.08563 693.8474 104.29573 693.8367 104.50555 693.8218 L 126.5533 692.2609 C 126.71161 692.2497 126.86975 692.23616 127.02766 692.22024 L 152.28815 689.6746 C 152.48989 689.6543 152.69122 689.6301 152.89204 689.6021 L 176.68474 686.2868 C 176.88875 686.2583 177.0922 686.226 177.29496 686.1897 L 186.49079 684.5441 C 191.8179 683.59084 195.46876 678.6372 194.80234 673.2667 L 192.59475 655.4761 C 192.5921 655.4548 192.5895 655.43345 192.58695 655.4121 L 189.02312 625.7136 C 189.00157 625.53395 188.98306 625.35396 188.9676 625.1737 L 186.60539 597.6145 C 186.59565 597.5009 186.58713 597.3872 186.57983 597.2735 L 185.1932 575.6818 C 185.1916 575.6567 185.18992 575.63154 185.18818 575.6064 L 183.59603 552.5201 C 183.59253 552.46944 183.58928 552.4188 183.58627 552.3681 L 182.4099 532.5659 C 182.39716 532.3514 182.38874 532.13665 182.38465 531.9218 L 181.99236 511.32696 C 181.99131 511.2717 181.98997 511.2165 181.98835 511.1613 L 181.39322 490.92694 C 181.3916 490.8717 181.39026 490.8165 181.3892 490.76126 L 180.99855 470.2517 C 180.99337 469.98 180.99512 469.70824 181.0038 469.43664 L 181.58973 451.077 C 181.59044 451.0551 181.59118 451.03314 181.59197 451.0112 L 182.38005 429.1419 C 182.3872 428.9434 182.39806 428.74503 182.4126 428.54693 L 183.97007 407.3263 C 183.98388 407.1382 183.99436 406.94984 184.0015 406.76135 L 184.75596 386.8625 C 184.77915 386.25074 184.83744 385.64083 184.93052 385.03576 L 187.66953 367.23224 C 187.7503 366.70714 187.8572 366.1864 187.9898 365.67193 L 192.61806 347.7143 C 192.73316 347.2677 192.8675 346.82632 193.02073 346.39135 L 198.74152 330.1517 C 198.9076 329.68024 199.0957 329.2168 199.30517 328.76293 L 204.83673 316.7779 C 204.93942 316.5554 205.0472 316.3353 205.16 316.11775 L 210.52223 305.77633 C 210.56793 305.6882 210.61446 305.60047 210.6618 305.5132 L 215.87777 295.89623 C 216.61505 294.53687 217.56468 293.30397 218.69079 292.2441 L 218.69079 292.2441 C 219.36598 291.60864 219.39817 290.54613 218.7627 289.87094 C 218.6382 289.73867 218.49307 289.62747 218.33295 289.5417 L 215.1188 287.81984 C 214.90016 287.7027 214.6788 287.59066 214.45494 287.48382 L 206.60097 283.73533 C 206.19436 283.54127 205.77974 283.36447 205.3582 283.2054 L 195.68338 279.55452 C 195.48833 279.48092 195.29187 279.41114 195.0941 279.3452 L 182.39963 275.11372 C 182.2604 275.0673 182.12055 275.02283 181.9801 274.98027 L 169.09658 271.07617 C 169.02605 271.0548 168.95567 271.03293 168.88544 271.0106 L 156.38144 267.03205 C 155.98782 266.9068 155.5992 266.76636 155.21643 266.61104 L 143.24049 261.75123 C 142.40883 261.41375 141.60704 261.00688 140.8436 260.53494 L 131.22436 254.5885 C 131.06865 254.49224 130.91461 254.39333 130.7623 254.2918 L 125.87221 251.03172 C 124.89081 250.37746 124.0195 249.57156 123.29078 248.6441 L 123.29078 248.6441 C 123.18518 248.5097 122.99062 248.48636 122.85621 248.59196 C 122.75347 248.67268 122.7125 248.80923 122.75381 248.9332 L 122.89078 249.3441 C 123.35003 250.72186 123.4546 252.19314 123.1948 253.622 L 122.79967 255.79526 C 122.52845 257.28692 122.04661 258.73246 121.36858 260.0885 L 119.83626 263.15315 C 119.53956 263.74655 119.20624 264.32092 118.83823 264.87293 L 115.63453 269.6785 C 115.20593 270.3214 114.73132 270.9324 114.21443 271.50672 L 109.65238 276.57566 C 109.61132 276.6213 109.56999 276.6667 109.5284 276.71184 L 103.53417 283.21987 C 102.90643 283.9014 102.22068 284.52713 101.48465 285.08998 L 96.46047 288.932 C 96.01432 289.27317 95.55052 289.5906 95.07099 289.883 L 88.58458 293.83813 C 87.92292 294.2416 87.23283 294.59643 86.51975 294.89987 L 79.40434 297.9277 C 78.59667 298.2714 77.76209 298.54803 76.90905 298.75483 L 72.829994 299.7437 C 72.00516 299.94365 71.165726 300.07767 70.31963 300.14446 L 64.619425 300.59448 C 64.20049 300.62755 63.78042 300.6441 63.360186 300.6441 L 56.32787 300.6441 C 55.570766 300.6441 54.81462 300.59037 54.065127 300.4833 L 46.11868 299.3481 C 45.63367 299.2788 45.1521 299.18728 44.67549 299.0738 L 38.714264 297.65446 C 37.568777 297.38173 36.4569 296.98337 35.398828 296.46664 L 29.118824 293.39966 C 28.633774 293.16278 28.161023 292.9015 27.702383 292.61683 L 23.49052 290.00257 C 22.89135 289.63067 22.317424 289.21956 21.772495 288.77194 L 17.32639 285.1198 C 17.102693 284.93603 16.884024 284.74625 16.670626 284.55063 L 12.868283 281.06515 C 12.416988 280.65146 11.989809 280.2122 11.588852 279.74957 L 7.470106 274.99717 C 7.150724 274.62866 6.848357 274.24573 6.5639516 273.8496 L 2.1342972 267.67972 C 1.639405 266.9904 1.2001343 266.2628 .8206419 265.50383 L -1.7558219 260.3509 C -1.7914185 260.2797 -1.8264833 260.20825 -1.8610135 260.13653 L -3.1092175 257.5441 C -3.9599323 255.77724 -4.3154534 253.8127 -4.1379123 251.85975 L -3.957707 249.8775 C -3.9339016 249.61563 -4.1268845 249.38405 -4.3887466 249.36025 C -4.5511416 249.34548 -4.709795 249.41486 -4.8092176 249.5441 L -4.8092176 249.5441 C -5.472664 250.4066 -6.252772 251.17267 -7.127149 251.82035 L -11.023683 254.70667 C -11.147366 254.7983 -11.272365 254.88812 -11.398641 254.97613 L -16.020891 258.1977 C -17.207627 259.02482 -18.501048 259.68718 -19.865798 260.1667 L -24.472924 261.7854 C -24.963495 261.95777 -25.445372 262.15395 -25.91684 262.37323 L -32.76362 265.55778 C -33.459783 265.88158 -34.17835 266.15485 -34.913747 266.37547 L -45.784136 269.63658 C -45.80086 269.6416 -45.81757 269.64664 -45.834276 269.6517 L -56.80236 272.9813 C -56.94026 273.02317 -57.077586 273.0669 -57.2143 273.11247 L -70.13554 277.41955 C -70.18466 277.43592 -70.23386 277.45206 -70.28314 277.46795 L -81.65054 281.13486 C -82.28903 281.34082 -82.91393 281.58674 -83.52154 281.87115 L -91.4535 285.584 C -91.82384 285.75734 -92.1874 285.94482 -92.54338 286.14603 L -98.48949 289.50687 C -99.74253 290.2151 -100.18417 291.80503 -99.47594 293.05807 C -99.39882 293.1945 -99.30955 293.3237 -99.20922 293.4441 L -98.34511 294.48104 C -97.59016 295.38698 -96.93769 296.3736 -96.39957 297.42293 L -93.32243 303.42334 C -93.24696 303.5705 -93.16921 303.7165 -93.08922 303.86126 L -89.13446 311.01748 C -89.05097 311.16855 -88.96993 311.32097 -88.89137 311.47468 L -84.78307 319.51266 C -84.534 319.99997 -84.3101 320.49974 -84.11224 321.01 L -80.62947 329.99187 C -80.61597 330.0267 -80.60235 330.06147 -80.5886 330.0962 L -76.99228 339.18165 C -76.87027 339.4899 -76.75787 339.80183 -76.65524 340.11705 L -74.033404 348.16982 C -74.01728 348.21935 -74.0014 348.26895 -73.98576 348.31863 L -70.91371 358.0769 C -70.71092 358.72106 -70.549114 359.3774 -70.42927 360.04202 L -68.443955 371.0515 C -68.4208 371.1799 -68.39921 371.3086 -68.379205 371.43753 L -66.673335 382.4309 C -66.6306 382.70633 -66.595065 382.9828 -66.56677 383.2601 L -65.67935 391.9568 C -65.63262 392.4148 -65.60567 392.8746 -65.59859 393.3349 L -65.41435 405.3105 C -65.41093 405.5329 -65.40287 405.75516 -65.390185 405.9772 L -64.61981 419.45876 C -64.61275 419.5823 -64.604255 419.7058 -64.59433 419.82917 L -63.26076 436.40354 C -63.22641 436.8304 -63.20922 437.2585 -63.20922 437.68675 L -63.20922 450.13653 C -63.20922 450.34157 -63.20528 450.5466 -63.1974 450.75146 L -62.617046 465.8406 C -62.61183 465.97627 -62.60834 466.112 -62.60657 466.24776 L -62.414415 481.044 C -62.41095 481.3107 -62.41416 481.57744 -62.42403 481.844 L -62.998256 497.3481 C -63.00556 497.54543 -63.00922 497.74286 -63.00922 497.9403 L -63.00922 511.53653 C -63.00922 511.74157 -63.01316 511.9466 -63.02104 512.15146 L -63.60623 527.36647 C -63.60822 527.4182 -63.610465 527.47 -63.61296 527.5217 L -64.40828 544.02466 C -64.408906 544.0376 -64.40955 544.0506 -64.4102 544.06356 L -65.20469 559.7547 C -65.20771 559.8143 -65.21106 559.8739 -65.214744 559.93344 L -66.403655 579.1542 C -66.407364 579.2141 -66.41141 579.2741 -66.415794 579.334 L -68.19893 603.7035 C -68.20579 603.79725 -68.21347 603.8909 -68.22198 603.9845 L -70.00787 623.6293 C -70.00877 623.6392 -70.00968 623.64905 -70.01059 623.6589 L -71.78136 642.7438 C -71.79993 642.944 -71.82227 643.1438 -71.84838 643.34314 L -73.80909 658.31586 C -73.9419 659.33005 -74.21104 660.3217 -74.60922 661.2638 L -74.60922 661.2638 C -75.00679 662.2046 -75.25546 663.2015 -75.34629 664.2188 L -76.10922 672.7638 C -76.616975 678.4509 -72.65851 683.5692 -67.026545 684.5079 Z" stroke="#7f8080" stroke-linecap="round" stroke-linejoin="round" stroke-width="1"/>
      </g>
      <g id="Graphic_8">
        <path d="M -156 398.69025 L -149.8 403.09025 L -141.6 407.09025 L -133 410.69025 L -124 414.49025 L -113 418.49025 L -103.6 421.29025 L -94.6 423.89025 L -85.6 426.49025 L -80.2 427.89025 L -74.6 428.89025 L -72.2 423.09025 L -69.6 417.69025 L -67.4 413.69025 L -64.8 410.29025 L -64.6 401.29025 L -65.2 390.29025 L -67 379.49025 L -68.6 369.09025 L -71.2 358.09025 L -73.6 348.49025 L -76.4 340.49025 L -79.6 331.09025 L -82.4 323.69025 L -86 316.09025 L -90 308.49025 L -94 301.09025 L -96.6 297.49025 L -100.2 291.69025 L -105.6 296.09025 L -110.4 300.89025 L -115 307.09025 L -119.4 313.29025 L -124.2 321.89025 L -129 331.29025 L -133.8 340.49025 L -137.4 349.09025 L -141.4 358.09025 L -144.6 366.29025 L -148.4 375.69025 L -151.2 383.69025 L -154.2 392.09025 Z" fill="#ce434f"/>
        <path d="M -156 398.69025 L -149.8 403.09025 L -141.6 407.09025 L -133 410.69025 L -124 414.49025 L -113 418.49025 L -103.6 421.29025 L -94.6 423.89025 L -85.6 426.49025 L -80.2 427.89025 L -74.6 428.89025 L -72.2 423.09025 L -69.6 417.69025 L -67.4 413.69025 L -64.8 410.29025 L -64.6 401.29025 L -65.2 390.29025 L -67 379.49025 L -68.6 369.09025 L -71.2 358.09025 L -73.6 348.49025 L -76.4 340.49025 L -79.6 331.09025 L -82.4 323.69025 L -86 316.09025 L -90 308.49025 L -94 301.09025 L -96.6 297.49025 L -100.2 291.69025 L -105.6 296.09025 L -110.4 300.89025 L -115 307.09025 L -119.4 313.29025 L -124.2 321.89025 L -129 331.29025 L -133.8 340.49025 L -137.4 349.09025 L -141.4 358.09025 L -144.6 366.29025 L -148.4 375.69025 L -151.2 383.69025 L -154.2 392.09025 Z" stroke="#7f8080" stroke-linecap="round" stroke-linejoin="round" stroke-width="1"/>
      </g>
      <g id="Graphic_7">
        <path d="M 275.4053 397.74686 L 269.2053 402.14686 L 261.0053 406.14686 L 252.4053 409.74686 L 243.4053 413.54686 L 232.4053 417.54686 L 223.0053 420.34686 L 214.0053 422.94686 L 205.0053 425.54686 L 199.6053 426.94686 L 194.00529 427.94686 L 191.60529 422.14686 L 189.00529 416.74686 L 186.80529 412.74686 L 184.20529 409.34686 L 184.00529 400.34686 L 184.60529 389.34686 L 186.40529 378.54686 L 188.00529 368.14686 L 190.60529 357.14686 L 193.00529 347.54686 L 195.8053 339.54686 L 199.0053 330.14686 L 201.8053 322.74686 L 205.4053 315.14686 L 209.4053 307.54686 L 213.4053 300.14686 L 216.0053 296.54686 L 219.6053 290.74686 L 225.0053 295.14686 L 229.8053 299.94686 L 234.4053 306.14686 L 238.8053 312.34686 L 243.6053 320.94686 L 248.4053 330.34686 L 253.2053 339.54686 L 256.8053 348.14686 L 260.8053 357.14686 L 264.0053 365.34686 L 267.8053 374.74686 L 270.6053 382.74686 L 273.6053 391.14686 Z" fill="#ce434f"/>
        <path d="M 275.4053 397.74686 L 269.2053 402.14686 L 261.0053 406.14686 L 252.4053 409.74686 L 243.4053 413.54686 L 232.4053 417.54686 L 223.0053 420.34686 L 214.0053 422.94686 L 205.0053 425.54686 L 199.6053 426.94686 L 194.00529 427.94686 L 191.60529 422.14686 L 189.00529 416.74686 L 186.80529 412.74686 L 184.20529 409.34686 L 184.00529 400.34686 L 184.60529 389.34686 L 186.40529 378.54686 L 188.00529 368.14686 L 190.60529 357.14686 L 193.00529 347.54686 L 195.8053 339.54686 L 199.0053 330.14686 L 201.8053 322.74686 L 205.4053 315.14686 L 209.4053 307.54686 L 213.4053 300.14686 L 216.0053 296.54686 L 219.6053 290.74686 L 225.0053 295.14686 L 229.8053 299.94686 L 234.4053 306.14686 L 238.8053 312.34686 L 243.6053 320.94686 L 248.4053 330.34686 L 253.2053 339.54686 L 256.8053 348.14686 L 260.8053 357.14686 L 264.0053 365.34686 L 267.8053 374.74686 L 270.6053 382.74686 L 273.6053 391.14686 Z" stroke="#7f8080" stroke-linecap="round" stroke-linejoin="round" stroke-width="2"/>
      </g>
      <g id="Graphic_6">
        <path d="M -156 398.69025 L -149.8 403.09025 L -141.6 407.09025 L -133 410.69025 L -124 414.49025 L -113 418.49025 L -103.6 421.29025 L -94.6 423.89025 L -85.6 426.49025 L -80.2 427.89025 L -74.6 428.89025 L -71.6 422.49025 L -75.4 421.69025 L -80.2 420.49025 L -85.8 419.29025 L -91.8 417.49025 L -96.4 416.09025 L -100.6 414.89025 L -105.2 412.89025 L -109.8 411.29025 L -114.6 409.29025 L -118.6 407.89025 L -123.8 405.69025 L -128.4 404.09025 L -133.2 401.89025 L -138 400.09025 L -142 398.09025 L -146.4 395.89025 L -150.8 393.69025 L -154.2 392.09025 Z" fill="#ce434f"/>
        <path d="M -156 398.69025 L -149.8 403.09025 L -141.6 407.09025 L -133 410.69025 L -124 414.49025 L -113 418.49025 L -103.6 421.29025 L -94.6 423.89025 L -85.6 426.49025 L -80.2 427.89025 L -74.6 428.89025 L -71.6 422.49025 L -75.4 421.69025 L -80.2 420.49025 L -85.8 419.29025 L -91.8 417.49025 L -96.4 416.09025 L -100.6 414.89025 L -105.2 412.89025 L -109.8 411.29025 L -114.6 409.29025 L -118.6 407.89025 L -123.8 405.69025 L -128.4 404.09025 L -133.2 401.89025 L -138 400.09025 L -142 398.09025 L -146.4 395.89025 L -150.8 393.69025 L -154.2 392.09025 Z" stroke="#7f8080" stroke-linecap="round" stroke-linejoin="round" stroke-width="1"/>
      </g>
      <g id="Graphic_5">
        <path d="M 275.4053 397.74686 L 269.2053 402.14686 L 261.0053 406.14686 L 252.4053 409.74686 L 243.4053 413.54686 L 232.4053 417.54686 L 223.0053 420.34686 L 214.0053 422.94686 L 205.0053 425.54686 L 199.6053 426.94686 L 194.00529 427.94686 L 191.00529 421.54686 L 194.80529 420.74686 L 199.6053 419.54686 L 205.2053 418.34686 L 211.2053 416.54686 L 215.8053 415.14686 L 220.0053 413.94686 L 224.6053 411.94686 L 229.2053 410.34686 L 234.0053 408.34686 L 238.0053 406.94686 L 243.2053 404.74686 L 247.8053 403.14686 L 252.6053 400.94686 L 257.4053 399.14686 L 261.4053 397.14686 L 265.8053 394.94686 L 270.2053 392.74686 L 273.6053 391.14686 Z" fill="#ce434f"/>
        <path d="M 275.4053 397.74686 L 269.2053 402.14686 L 261.0053 406.14686 L 252.4053 409.74686 L 243.4053 413.54686 L 232.4053 417.54686 L 223.0053 420.34686 L 214.0053 422.94686 L 205.0053 425.54686 L 199.6053 426.94686 L 194.00529 427.94686 L 191.00529 421.54686 L 194.80529 420.74686 L 199.6053 419.54686 L 205.2053 418.34686 L 211.2053 416.54686 L 215.8053 415.14686 L 220.0053 413.94686 L 224.6053 411.94686 L 229.2053 410.34686 L 234.0053 408.34686 L 238.0053 406.94686 L 243.2053 404.74686 L 247.8053 403.14686 L 252.6053 400.94686 L 257.4053 399.14686 L 261.4053 397.14686 L 265.8053 394.94686 L 270.2053 392.74686 L 273.6053 391.14686 Z" stroke="#7f8080" stroke-linecap="round" stroke-linejoin="round" stroke-width="1"/>
      </g>
      <g id="Graphic_4">
        <path d="M -5.427879 249.2079 L -10.15705 253.26147 C -11.307397 254.24748 -12.552357 255.11742 -13.873787 255.8586 L -16.400422 257.27576 C -17.835594 258.08073 -18.416397 259.84986 -17.737611 261.34884 L -16.719994 263.59608 C -16.598415 263.86456 -16.471687 264.1307 -16.339879 264.3943 L -12.050623 272.9728 C -11.708826 273.6564 -11.333168 274.32254 -10.925048 274.96873 L -8.598656 278.6522 C -8.15828 279.34945 -7.68072 280.02253 -7.168047 280.6685 L -3.7573623 284.96595 C -3.2113083 285.65398 -2.6262885 286.31016 -2.0051778 286.93127 L 2.660865 291.59732 C 3.0617455 291.9982 3.477311 292.38412 3.9067097 292.7543 L 8.470235 296.68836 C 8.864892 297.0286 9.270997 297.3553 9.687846 297.66793 L 13.662786 300.64914 C 14.328699 301.14857 15.021233 301.6115 15.737331 302.03585 L 19.870394 304.48507 C 19.99839 304.5609 20.127117 304.63552 20.25656 304.70887 L 24.954107 307.3708 C 25.692398 307.78918 26.453276 308.16637 27.233252 308.50064 L 30.78307 310.022 C 31.36903 310.2731 31.96518 310.49977 32.569974 310.70137 L 37.58808 312.37407 C 38.835325 312.78982 40.11592 313.09786 41.415795 313.2948 L 45.51464 313.91585 C 45.879756 313.97117 46.24615 314.0177 46.6135 314.05537 L 53.494605 314.76112 C 53.73978 314.78627 53.985344 314.80747 54.2312 314.82473 L 58.758346 315.1424 C 59.29421 315.18002 59.831224 315.19884 60.368405 315.19884 L 63.63046 315.19884 C 64.58416 315.19884 65.53693 315.13953 66.48327 315.02123 L 70.47198 314.52265 C 71.131945 314.44015 71.78802 314.32907 72.43835 314.1897 L 78.52039 312.8864 C 79.41426 312.69487 80.29592 312.4502 81.16068 312.1537 L 85.66952 310.60783 C 86.46417 310.33538 87.2433 310.0196 88.0034 309.6619 L 92.83677 307.38737 C 93.38697 307.12845 93.92668 306.84782 94.45464 306.54613 L 98.2225 304.39307 C 98.91529 303.9972 99.58701 303.56552 100.23494 303.09983 L 104.91106 299.73886 C 105.41175 299.379 105.89776 298.99914 106.36792 298.60022 L 111.68877 294.08555 C 112.07108 293.76117 112.44269 293.42437 112.80298 293.0757 L 117.5022 288.52806 C 118.14179 287.9091 118.74491 287.25354 119.30852 286.5647 L 123.1018 281.92845 C 123.60852 281.30913 124.08257 280.6638 124.52201 279.99507 L 128.13919 274.49067 C 128.35462 274.16284 128.56163 273.82955 128.76002 273.49113 L 131.28311 269.18703 C 131.66906 268.52865 132.022 267.85146 132.34062 267.158 L 134.45932 262.54672 C 134.99218 261.38696 135.36334 260.15954 135.5624 258.89884 L 135.5624 258.89884 C 135.7407 257.76958 135.1614 256.65613 134.13432 256.154 L 128.84088 253.5661 C 127.52642 252.92348 126.29183 252.12897 125.1624 251.19884 L 124.75638 250.86448 C 123.91205 250.16915 123.28864 249.24285 122.9624 248.19884 L 122.9624 248.19884 C 122.91573 248.04953 122.75686 247.9663 122.60754 248.01297 C 122.49247 248.04893 122.41277 248.1538 122.40892 248.2743 L 122.29968 251.69722 C 122.20894 254.5403 121.5916 257.34187 120.479 259.95977 L 119.60206 262.02315 C 119.04349 263.33742 118.36374 264.59682 117.5716 265.78502 L 113.88582 271.3137 C 113.13831 272.43496 112.2937 273.48836 111.36175 274.46173 L 105.06668 281.03658 C 104.19861 281.94323 103.25777 282.7773 102.2536 283.53043 L 93.8787 289.8116 C 93.00228 290.46893 92.08002 291.06278 91.11896 291.58864 L 83.93376 295.52017 C 82.62263 296.23758 81.2447 296.82548 79.81952 297.27554 L 73.14661 299.38277 C 71.42973 299.92494 69.65514 300.26365 67.85927 300.39192 L 60.972815 300.8838 C 59.90052 300.9604 58.82417 300.96172 57.751685 300.88776 L 49.31543 300.30595 C 48.28125 300.23463 47.25308 300.09347 46.237946 299.88344 L 39.10274 298.4072 C 37.150787 298.00334 35.259614 297.34746 33.476757 296.45603 L 28.817348 294.12632 C 27.58321 293.50925 26.407106 292.78238 25.30326 291.9545 L 19.621303 287.69303 C 19.182167 287.36368 18.754962 287.0187 18.34051 286.6588 L 12.585329 281.66087 C 11.771043 280.95373 11.007503 280.1902 10.30036 279.3759 L 5.895135 274.30322 C 5.141032 273.43486 4.453124 272.51116 3.837199 271.5399 L .10349696 265.65213 C -.2570688 265.08355 -.5924947 264.4994 -.9018115 263.9014 L -2.522185 260.76867 C -3.1313293 259.591 -3.637498 258.36284 -4.035035 257.09795 L -5.315274 253.02446 C -5.530049 252.3411 -5.7127816 251.64805 -5.862874 250.94762 L -6.088291 249.89568 C -6.173365 249.49867 -5.947007 249.101 -5.5622025 248.97147 L -5.5622025 248.97147 C -5.489708 248.94707 -5.4111556 248.98606 -5.386751 249.05855 C -5.3687374 249.11206 -5.38501 249.17115 -5.427879 249.2079 Z" fill="#ce434f"/>
        <path d="M -5.427879 249.2079 L -10.15705 253.26147 C -11.307397 254.24748 -12.552357 255.11742 -13.873787 255.8586 L -16.400422 257.27576 C -17.835594 258.08073 -18.416397 259.84986 -17.737611 261.34884 L -16.719994 263.59608 C -16.598415 263.86456 -16.471687 264.1307 -16.339879 264.3943 L -12.050623 272.9728 C -11.708826 273.6564 -11.333168 274.32254 -10.925048 274.96873 L -8.598656 278.6522 C -8.15828 279.34945 -7.68072 280.02253 -7.168047 280.6685 L -3.7573623 284.96595 C -3.2113083 285.65398 -2.6262885 286.31016 -2.0051778 286.93127 L 2.660865 291.59732 C 3.0617455 291.9982 3.477311 292.38412 3.9067097 292.7543 L 8.470235 296.68836 C 8.864892 297.0286 9.270997 297.3553 9.687846 297.66793 L 13.662786 300.64914 C 14.328699 301.14857 15.021233 301.6115 15.737331 302.03585 L 19.870394 304.48507 C 19.99839 304.5609 20.127117 304.63552 20.25656 304.70887 L 24.954107 307.3708 C 25.692398 307.78918 26.453276 308.16637 27.233252 308.50064 L 30.78307 310.022 C 31.36903 310.2731 31.96518 310.49977 32.569974 310.70137 L 37.58808 312.37407 C 38.835325 312.78982 40.11592 313.09786 41.415795 313.2948 L 45.51464 313.91585 C 45.879756 313.97117 46.24615 314.0177 46.6135 314.05537 L 53.494605 314.76112 C 53.73978 314.78627 53.985344 314.80747 54.2312 314.82473 L 58.758346 315.1424 C 59.29421 315.18002 59.831224 315.19884 60.368405 315.19884 L 63.63046 315.19884 C 64.58416 315.19884 65.53693 315.13953 66.48327 315.02123 L 70.47198 314.52265 C 71.131945 314.44015 71.78802 314.32907 72.43835 314.1897 L 78.52039 312.8864 C 79.41426 312.69487 80.29592 312.4502 81.16068 312.1537 L 85.66952 310.60783 C 86.46417 310.33538 87.2433 310.0196 88.0034 309.6619 L 92.83677 307.38737 C 93.38697 307.12845 93.92668 306.84782 94.45464 306.54613 L 98.2225 304.39307 C 98.91529 303.9972 99.58701 303.56552 100.23494 303.09983 L 104.91106 299.73886 C 105.41175 299.379 105.89776 298.99914 106.36792 298.60022 L 111.68877 294.08555 C 112.07108 293.76117 112.44269 293.42437 112.80298 293.0757 L 117.5022 288.52806 C 118.14179 287.9091 118.74491 287.25354 119.30852 286.5647 L 123.1018 281.92845 C 123.60852 281.30913 124.08257 280.6638 124.52201 279.99507 L 128.13919 274.49067 C 128.35462 274.16284 128.56163 273.82955 128.76002 273.49113 L 131.28311 269.18703 C 131.66906 268.52865 132.022 267.85146 132.34062 267.158 L 134.45932 262.54672 C 134.99218 261.38696 135.36334 260.15954 135.5624 258.89884 L 135.5624 258.89884 C 135.7407 257.76958 135.1614 256.65613 134.13432 256.154 L 128.84088 253.5661 C 127.52642 252.92348 126.29183 252.12897 125.1624 251.19884 L 124.75638 250.86448 C 123.91205 250.16915 123.28864 249.24285 122.9624 248.19884 L 122.9624 248.19884 C 122.91573 248.04953 122.75686 247.9663 122.60754 248.01297 C 122.49247 248.04893 122.41277 248.1538 122.40892 248.2743 L 122.29968 251.69722 C 122.20894 254.5403 121.5916 257.34187 120.479 259.95977 L 119.60206 262.02315 C 119.04349 263.33742 118.36374 264.59682 117.5716 265.78502 L 113.88582 271.3137 C 113.13831 272.43496 112.2937 273.48836 111.36175 274.46173 L 105.06668 281.03658 C 104.19861 281.94323 103.25777 282.7773 102.2536 283.53043 L 93.8787 289.8116 C 93.00228 290.46893 92.08002 291.06278 91.11896 291.58864 L 83.93376 295.52017 C 82.62263 296.23758 81.2447 296.82548 79.81952 297.27554 L 73.14661 299.38277 C 71.42973 299.92494 69.65514 300.26365 67.85927 300.39192 L 60.972815 300.8838 C 59.90052 300.9604 58.82417 300.96172 57.751685 300.88776 L 49.31543 300.30595 C 48.28125 300.23463 47.25308 300.09347 46.237946 299.88344 L 39.10274 298.4072 C 37.150787 298.00334 35.259614 297.34746 33.476757 296.45603 L 28.817348 294.12632 C 27.58321 293.50925 26.407106 292.78238 25.30326 291.9545 L 19.621303 287.69303 C 19.182167 287.36368 18.754962 287.0187 18.34051 286.6588 L 12.585329 281.66087 C 11.771043 280.95373 11.007503 280.1902 10.30036 279.3759 L 5.895135 274.30322 C 5.141032 273.43486 4.453124 272.51116 3.837199 271.5399 L .10349696 265.65213 C -.2570688 265.08355 -.5924947 264.4994 -.9018115 263.9014 L -2.522185 260.76867 C -3.1313293 259.591 -3.637498 258.36284 -4.035035 257.09795 L -5.315274 253.02446 C -5.530049 252.3411 -5.7127816 251.64805 -5.862874 250.94762 L -6.088291 249.89568 C -6.173365 249.49867 -5.947007 249.101 -5.5622025 248.97147 L -5.5622025 248.97147 C -5.489708 248.94707 -5.4111556 248.98606 -5.386751 249.05855 C -5.3687374 249.11206 -5.38501 249.17115 -5.427879 249.2079 Z" stroke="#7f8080" stroke-linecap="round" stroke-linejoin="round" stroke-width="1"/>
      </g>
      <g id="Graphic_3">
        <path d="M -5.9407524 249 L -.54075235 248.4 L 6.259248 251.8 L 11.259248 253.6 L 19.659248 255.4 L 28.059248 256.4 L 36.05925 257.4 L 43.65925 257.6 L 52.25925 258 L 63.85925 257.8 L 72.25925 257.4 L 81.65925 256.8 L 90.05925 256 L 99.25925 254.6 L 107.45925 252.4 L 113.25925 250.6 L 118.85925 248 L 121.65925 249.2 L 122.05925 254.8 L 119.25925 262.8 L 113.85925 265.6 L 103.25925 268.8 L 91.85925 271.2 L 80.65925 272 L 68.25925 273 L 57.85925 273 L 48.45925 273 L 36.85925 272.4 L 25.659248 271.6 L 15.059248 269.4 L 6.459248 267.4 L .25924766 264.6 L -1.7407524 263 L -4.9407524 255.4 Z" fill="#ce434f"/>
        <path d="M -5.9407524 249 L -.54075235 248.4 L 6.259248 251.8 L 11.259248 253.6 L 19.659248 255.4 L 28.059248 256.4 L 36.05925 257.4 L 43.65925 257.6 L 52.25925 258 L 63.85925 257.8 L 72.25925 257.4 L 81.65925 256.8 L 90.05925 256 L 99.25925 254.6 L 107.45925 252.4 L 113.25925 250.6 L 118.85925 248 L 121.65925 249.2 L 122.05925 254.8 L 119.25925 262.8 L 113.85925 265.6 L 103.25925 268.8 L 91.85925 271.2 L 80.65925 272 L 68.25925 273 L 57.85925 273 L 48.45925 273 L 36.85925 272.4 L 25.659248 271.6 L 15.059248 269.4 L 6.459248 267.4 L .25924766 264.6 L -1.7407524 263 L -4.9407524 255.4 Z" stroke="#7f8080" stroke-linecap="round" stroke-linejoin="round" stroke-width="1"/>
      </g>
      <g id="Graphic_2">
        <path d="M -76.18679 674.4441 L -76.18679 674.4441 C -76.25247 674.9696 -76.189645 675.5032 -76.0037 675.999 L -75.35269 677.735 C -75.17594 678.2064 -74.94885 678.6573 -74.67538 679.0799 L -73.70757 680.5756 C -73.16661 681.4117 -72.45351 682.12265 -71.61588 682.6611 L -70.53783 683.3542 C -70.23757 683.5472 -69.922994 683.71695 -69.59684 683.862 L -68.27999 684.4476 C -67.68346 684.7129 -67.052754 684.8934 -66.40621 684.9839 L -57.395787 686.2454 C -57.38579 686.2468 -57.3758 686.2481 -57.3658 686.2495 L -45.6498 687.8381 C -45.6038 687.84434 -45.557737 687.8501 -45.51162 687.85544 L -35.228685 689.0419 C -35.19676 689.0456 -35.16481 689.0491 -35.132835 689.0523 L -21.42277 690.4432 C -21.394787 690.44604 -21.366788 690.4487 -21.338774 690.4512 L -10.233474 691.44276 C -10.198356 691.4459 -10.163214 691.4488 -10.128052 691.4514 L .55848464 692.243 C .5989637 692.246 .6394681 692.2486 .67999326 692.2509 L 11.187976 692.8457 C 11.208795 692.8469 11.229608 692.84814 11.250416 692.8495 L 23.293193 693.6392 C 23.377194 693.6447 23.461288 693.6487 23.545432 693.6512 L 36.992557 694.0467 C 37.010322 694.0472 37.028085 694.0478 37.045846 694.04845 L 47.68971 694.4427 C 47.77603 694.4459 47.86241 694.4475 47.94879 694.4475 L 58.557807 694.4475 C 58.59874 694.4475 58.63967 694.4478 58.680595 694.4485 L 69.76702 694.643 C 69.93509 694.646 70.10321 694.6429 70.27106 694.6337 L 80.89229 694.0544 C 80.97689 694.0498 81.06157 694.0467 81.14629 694.04515 L 91.91085 693.8494 C 91.98308 693.8481 92.05529 693.8457 92.12745 693.8421 L 104.14607 693.25106 C 104.19483 693.2487 104.24355 693.24575 104.29225 693.2423 L 115.5323 692.4536 C 115.59023 692.4495 115.64812 692.4447 115.70594 692.4392 L 128.11651 691.25724 C 128.18497 691.2507 128.25352 691.2452 128.32214 691.2407 L 140.25416 690.4583 C 140.36418 690.4511 140.474 690.44126 140.58355 690.42886 L 150.9959 689.2501 C 151.01144 689.2483 151.02697 689.2465 151.0425 689.2447 L 160.9902 688.05094 C 161.00954 688.0486 161.02886 688.0462 161.04818 688.0437 L 174.88394 686.2662 C 174.98115 686.2537 175.0781 686.2392 175.1747 686.2226 L 181.72819 685.0992 C 181.92915 685.0647 182.13153 685.0391 182.33473 685.0223 L 185.56706 684.7553 C 186.4563 684.68186 187.3233 684.4391 188.12135 684.04005 L 189.60765 683.2969 C 190.20824 682.9966 190.7625 682.6115 191.25338 682.1533 L 192.5885 680.9072 C 193.19532 680.3408 193.65073 679.6316 193.91322 678.8441 L 194.20805 677.9596 C 194.27812 677.7494 194.33817 677.536 194.388 677.32005 L 194.8577 675.2847 C 194.89293 675.132 194.8595 674.9716 194.76621 674.8458 L 194.76621 674.8458 C 194.67587 674.7239 194.52523 674.6624 194.3754 674.68625 L 185.89555 676.0353 C 185.84466 676.0434 185.79385 676.0521 185.74315 676.0613 L 172.7584 678.42216 C 172.66561 678.439 172.5725 678.454 172.47911 678.4671 L 161.24943 680.0432 C 161.22928 680.04605 161.20914 680.049 161.18902 680.052 L 148.06643 682.0106 C 147.90167 682.03515 147.73608 682.05386 147.56998 682.0666 L 134.84517 683.0455 C 134.82786 683.0468 134.81055 683.0481 134.79323 683.0493 L 120.45308 684.0451 C 120.4305 684.0467 120.4079 684.0481 120.38531 684.0495 L 107.08205 684.8437 C 107.04016 684.8462 106.99824 684.8483 106.9563 684.8501 L 92.76485 685.4414 C 92.66776 685.4454 92.5706 685.4475 92.47344 685.4475 L 66.677535 685.4475 C 66.63865 685.4475 66.599764 685.4478 66.560884 685.4484 L 54.802496 685.6444 C 54.680323 685.64644 54.55812 685.6453 54.436005 685.6409 L 43.602405 685.254 C 43.480293 685.24964 43.358087 685.2485 43.235914 685.2505 L 31.521274 685.4458 C 31.45323 685.4469 31.385176 685.447 31.31713 685.4462 L 15.614845 685.2499 C 15.484443 685.2483 15.354113 685.243 15.224007 685.2341 L .9142289 684.254 C .8508822 684.2496 .7875974 684.2444 .7243922 684.2384 L -13.766614 682.8488 C -13.776069 682.8479 -13.785521 682.847 -13.794972 682.84604 L -27.607008 681.4648 C -27.72285 681.45326 -27.838382 681.4388 -27.9535 681.4214 L -42.262653 679.2653 C -42.34141 679.2534 -42.420363 679.2429 -42.49948 679.2337 L -56.01941 677.6662 C -56.12699 677.6537 -56.23426 677.6387 -56.34114 677.6213 L -65.73323 676.0879 C -65.89822 676.06094 -66.062195 676.0281 -66.22484 675.9894 L -75.302435 673.83065 C -75.69075 673.7383 -76.08041 673.9782 -76.17276 674.36655 C -76.17884 674.3921 -76.183525 674.418 -76.18679 674.4441 Z" fill="#ce434f"/>
        <path d="M -76.18679 674.4441 L -76.18679 674.4441 C -76.25247 674.9696 -76.189645 675.5032 -76.0037 675.999 L -75.35269 677.735 C -75.17594 678.2064 -74.94885 678.6573 -74.67538 679.0799 L -73.70757 680.5756 C -73.16661 681.4117 -72.45351 682.12265 -71.61588 682.6611 L -70.53783 683.3542 C -70.23757 683.5472 -69.922994 683.71695 -69.59684 683.862 L -68.27999 684.4476 C -67.68346 684.7129 -67.052754 684.8934 -66.40621 684.9839 L -57.395787 686.2454 C -57.38579 686.2468 -57.3758 686.2481 -57.3658 686.2495 L -45.6498 687.8381 C -45.6038 687.84434 -45.557737 687.8501 -45.51162 687.85544 L -35.228685 689.0419 C -35.19676 689.0456 -35.16481 689.0491 -35.132835 689.0523 L -21.42277 690.4432 C -21.394787 690.44604 -21.366788 690.4487 -21.338774 690.4512 L -10.233474 691.44276 C -10.198356 691.4459 -10.163214 691.4488 -10.128052 691.4514 L .55848464 692.243 C .5989637 692.246 .6394681 692.2486 .67999326 692.2509 L 11.187976 692.8457 C 11.208795 692.8469 11.229608 692.84814 11.250416 692.8495 L 23.293193 693.6392 C 23.377194 693.6447 23.461288 693.6487 23.545432 693.6512 L 36.992557 694.0467 C 37.010322 694.0472 37.028085 694.0478 37.045846 694.04845 L 47.68971 694.4427 C 47.77603 694.4459 47.86241 694.4475 47.94879 694.4475 L 58.557807 694.4475 C 58.59874 694.4475 58.63967 694.4478 58.680595 694.4485 L 69.76702 694.643 C 69.93509 694.646 70.10321 694.6429 70.27106 694.6337 L 80.89229 694.0544 C 80.97689 694.0498 81.06157 694.0467 81.14629 694.04515 L 91.91085 693.8494 C 91.98308 693.8481 92.05529 693.8457 92.12745 693.8421 L 104.14607 693.25106 C 104.19483 693.2487 104.24355 693.24575 104.29225 693.2423 L 115.5323 692.4536 C 115.59023 692.4495 115.64812 692.4447 115.70594 692.4392 L 128.11651 691.25724 C 128.18497 691.2507 128.25352 691.2452 128.32214 691.2407 L 140.25416 690.4583 C 140.36418 690.4511 140.474 690.44126 140.58355 690.42886 L 150.9959 689.2501 C 151.01144 689.2483 151.02697 689.2465 151.0425 689.2447 L 160.9902 688.05094 C 161.00954 688.0486 161.02886 688.0462 161.04818 688.0437 L 174.88394 686.2662 C 174.98115 686.2537 175.0781 686.2392 175.1747 686.2226 L 181.72819 685.0992 C 181.92915 685.0647 182.13153 685.0391 182.33473 685.0223 L 185.56706 684.7553 C 186.4563 684.68186 187.3233 684.4391 188.12135 684.04005 L 189.60765 683.2969 C 190.20824 682.9966 190.7625 682.6115 191.25338 682.1533 L 192.5885 680.9072 C 193.19532 680.3408 193.65073 679.6316 193.91322 678.8441 L 194.20805 677.9596 C 194.27812 677.7494 194.33817 677.536 194.388 677.32005 L 194.8577 675.2847 C 194.89293 675.132 194.8595 674.9716 194.76621 674.8458 L 194.76621 674.8458 C 194.67587 674.7239 194.52523 674.6624 194.3754 674.68625 L 185.89555 676.0353 C 185.84466 676.0434 185.79385 676.0521 185.74315 676.0613 L 172.7584 678.42216 C 172.66561 678.439 172.5725 678.454 172.47911 678.4671 L 161.24943 680.0432 C 161.22928 680.04605 161.20914 680.049 161.18902 680.052 L 148.06643 682.0106 C 147.90167 682.03515 147.73608 682.05386 147.56998 682.0666 L 134.84517 683.0455 C 134.82786 683.0468 134.81055 683.0481 134.79323 683.0493 L 120.45308 684.0451 C 120.4305 684.0467 120.4079 684.0481 120.38531 684.0495 L 107.08205 684.8437 C 107.04016 684.8462 106.99824 684.8483 106.9563 684.8501 L 92.76485 685.4414 C 92.66776 685.4454 92.5706 685.4475 92.47344 685.4475 L 66.677535 685.4475 C 66.63865 685.4475 66.599764 685.4478 66.560884 685.4484 L 54.802496 685.6444 C 54.680323 685.64644 54.55812 685.6453 54.436005 685.6409 L 43.602405 685.254 C 43.480293 685.24964 43.358087 685.2485 43.235914 685.2505 L 31.521274 685.4458 C 31.45323 685.4469 31.385176 685.447 31.31713 685.4462 L 15.614845 685.2499 C 15.484443 685.2483 15.354113 685.243 15.224007 685.2341 L .9142289 684.254 C .8508822 684.2496 .7875974 684.2444 .7243922 684.2384 L -13.766614 682.8488 C -13.776069 682.8479 -13.785521 682.847 -13.794972 682.84604 L -27.607008 681.4648 C -27.72285 681.45326 -27.838382 681.4388 -27.9535 681.4214 L -42.262653 679.2653 C -42.34141 679.2534 -42.420363 679.2429 -42.49948 679.2337 L -56.01941 677.6662 C -56.12699 677.6537 -56.23426 677.6387 -56.34114 677.6213 L -65.73323 676.0879 C -65.89822 676.06094 -66.062195 676.0281 -66.22484 675.9894 L -75.302435 673.83065 C -75.69075 673.7383 -76.08041 673.9782 -76.17276 674.36655 C -76.17884 674.3921 -76.183525 674.418 -76.18679 674.4441 Z" stroke="#7f8080" stroke-linecap="round" stroke-linejoin="round" stroke-width="1"/>
      </g>
      <g id="Graphic_17">
        <path d="M -66.026545 685.5079 L -52.284304 687.7983 C -52.10093 687.8288 -51.91703 687.8562 -51.7327 687.88035 L -23.37906 691.59565 C -23.132532 691.62796 -22.885285 691.6545 -22.63752 691.6753 L 7.60537 694.2118 C 7.862274 694.2333 8.119662 694.2487 8.377307 694.2578 L 47.30822 695.6341 C 47.49658 695.6408 47.685045 695.6441 47.873523 695.6441 L 79.34084 695.6441 C 79.50746 695.6441 79.67407 695.6415 79.8406 695.6363 L 104.87539 694.854 C 105.08563 694.8474 105.29573 694.8367 105.50555 694.8218 L 127.5533 693.2609 C 127.71161 693.2497 127.86975 693.23616 128.02766 693.22024 L 153.28815 690.6746 C 153.48989 690.6543 153.69122 690.6301 153.89204 690.6021 L 177.68474 687.2868 C 177.88875 687.2583 178.0922 687.226 178.29496 687.1897 L 187.49079 685.5441 C 192.8179 684.59084 196.46876 679.6372 195.80234 674.2667 L 193.59475 656.4761 C 193.5921 656.4548 193.5895 656.43345 193.58695 656.4121 L 190.02312 626.7136 C 190.00157 626.53395 189.98306 626.35396 189.9676 626.1737 L 187.60539 598.6145 C 187.59565 598.5009 187.58713 598.3872 187.57983 598.2735 L 186.1932 576.6818 C 186.1916 576.6567 186.18992 576.63154 186.18818 576.6064 L 184.59603 553.5201 C 184.59253 553.46944 184.58928 553.4188 184.58627 553.3681 L 183.4099 533.5659 C 183.39716 533.3514 183.38874 533.13665 183.38465 532.9218 L 182.99236 512.32696 C 182.99131 512.2717 182.98997 512.2165 182.98835 512.1613 L 182.39322 491.92694 C 182.3916 491.8717 182.39026 491.8165 182.3892 491.76126 L 181.99855 471.2517 C 181.99337 470.98 181.99512 470.70824 182.0038 470.43664 L 182.58973 452.077 C 182.59044 452.0551 182.59118 452.03314 182.59197 452.0112 L 183.38005 430.1419 C 183.3872 429.9434 183.39806 429.74503 183.4126 429.54693 L 184.97007 408.3263 C 184.98388 408.1382 184.99436 407.94984 185.0015 407.76135 L 185.75596 387.8625 C 185.77915 387.25074 185.83744 386.64083 185.93052 386.03576 L 188.66953 368.23224 C 188.7503 367.70714 188.8572 367.1864 188.9898 366.67193 L 193.61806 348.7143 C 193.73316 348.2677 193.8675 347.82632 194.02073 347.39135 L 199.74152 331.1517 C 199.9076 330.68024 200.0957 330.2168 200.30517 329.76293 L 205.83673 317.7779 C 205.93942 317.5554 206.0472 317.3353 206.16 317.11775 L 211.52223 306.77633 C 211.56793 306.6882 211.61446 306.60047 211.6618 306.5132 L 216.87777 296.89623 C 217.61505 295.53687 218.56468 294.30397 219.69079 293.2441 L 219.69079 293.2441 C 220.36598 292.60864 220.39817 291.54613 219.7627 290.87094 C 219.6382 290.73867 219.49307 290.62747 219.33295 290.5417 L 216.1188 288.81984 C 215.90016 288.7027 215.6788 288.59066 215.45494 288.48382 L 207.60097 284.73533 C 207.19436 284.54127 206.77974 284.36447 206.3582 284.2054 L 196.68338 280.55452 C 196.48833 280.48092 196.29187 280.41114 196.0941 280.3452 L 183.39963 276.11372 C 183.2604 276.0673 183.12055 276.02283 182.9801 275.98027 L 170.09658 272.07617 C 170.02605 272.0548 169.95567 272.03293 169.88544 272.0106 L 157.38144 268.03205 C 156.98782 267.9068 156.5992 267.76636 156.21643 267.61104 L 144.24049 262.75123 C 143.40883 262.41375 142.60704 262.00688 141.8436 261.53494 L 132.22436 255.5885 C 132.06865 255.49224 131.91461 255.39333 131.7623 255.2918 L 126.87221 252.03172 C 125.89081 251.37746 125.0195 250.57156 124.29078 249.6441 L 124.29078 249.6441 C 124.18518 249.5097 123.99062 249.48636 123.85621 249.59196 C 123.75347 249.67268 123.7125 249.80923 123.75381 249.9332 L 123.89078 250.3441 C 124.35003 251.72186 124.4546 253.19314 124.1948 254.622 L 123.79967 256.79526 C 123.52845 258.28692 123.04661 259.73246 122.36858 261.0885 L 120.83626 264.15315 C 120.53956 264.74655 120.20624 265.32092 119.83823 265.87293 L 116.63453 270.6785 C 116.20593 271.3214 115.73132 271.9324 115.21443 272.50672 L 110.65238 277.57566 C 110.61132 277.6213 110.56999 277.6667 110.5284 277.71184 L 104.53417 284.21987 C 103.90643 284.9014 103.22068 285.52713 102.48465 286.08998 L 97.46047 289.932 C 97.01432 290.27317 96.55052 290.5906 96.07099 290.883 L 89.58458 294.83813 C 88.92292 295.2416 88.23283 295.59643 87.51975 295.89987 L 80.40434 298.9277 C 79.59667 299.2714 78.76209 299.54803 77.90905 299.75483 L 73.829994 300.7437 C 73.00516 300.94365 72.165726 301.07767 71.31963 301.14446 L 65.619425 301.59448 C 65.20049 301.62755 64.78042 301.6441 64.360186 301.6441 L 57.32787 301.6441 C 56.570766 301.6441 55.81462 301.59037 55.065127 301.4833 L 47.11868 300.3481 C 46.63367 300.2788 46.1521 300.18728 45.67549 300.0738 L 39.714264 298.65446 C 38.568777 298.38173 37.4569 297.98337 36.398828 297.46664 L 30.118824 294.39966 C 29.633774 294.16278 29.161023 293.9015 28.702383 293.61683 L 24.49052 291.00257 C 23.89135 290.63067 23.317424 290.21956 22.772495 289.77194 L 18.32639 286.1198 C 18.102693 285.93603 17.884024 285.74625 17.670626 285.55063 L 13.868283 282.06515 C 13.416988 281.65146 12.989809 281.2122 12.588852 280.74957 L 8.470106 275.99717 C 8.150724 275.62866 7.848357 275.24573 7.563952 274.8496 L 3.1342972 268.67972 C 2.639405 267.9904 2.2001343 267.2628 1.820642 266.50383 L -.7558219 261.3509 C -.7914185 261.2797 -.8264833 261.20825 -.8610135 261.13653 L -2.1092175 258.5441 C -2.9599323 256.77724 -3.3154534 254.8127 -3.1379123 252.85975 L -2.9577072 250.8775 C -2.9339016 250.61563 -3.1268845 250.38405 -3.3887466 250.36025 C -3.5511416 250.34548 -3.7097953 250.41486 -3.8092176 250.5441 L -3.8092176 250.5441 C -4.472664 251.4066 -5.252772 252.17267 -6.1271494 252.82035 L -10.023683 255.70667 C -10.147366 255.7983 -10.272365 255.88812 -10.398641 255.97613 L -15.020891 259.1977 C -16.207627 260.02482 -17.501048 260.68718 -18.865798 261.1667 L -23.472924 262.7854 C -23.963495 262.95777 -24.445372 263.15395 -24.91684 263.37323 L -31.76362 266.55778 C -32.459783 266.88158 -33.17835 267.15485 -33.913747 267.37547 L -44.784136 270.63658 C -44.80086 270.6416 -44.81757 270.64664 -44.834276 270.6517 L -55.80236 273.9813 C -55.94026 274.02317 -56.077586 274.0669 -56.2143 274.11247 L -69.13554 278.41955 C -69.18466 278.43592 -69.23386 278.45206 -69.28314 278.46795 L -80.65054 282.13486 C -81.28903 282.34082 -81.91393 282.58674 -82.52154 282.87115 L -90.4535 286.584 C -90.82384 286.75734 -91.1874 286.94482 -91.54338 287.14603 L -97.48949 290.50687 C -98.74253 291.2151 -99.18417 292.80503 -98.47594 294.05807 C -98.39882 294.1945 -98.30955 294.3237 -98.20922 294.4441 L -97.34511 295.48104 C -96.59016 296.38698 -95.93769 297.3736 -95.39957 298.42293 L -92.32243 304.42334 C -92.24696 304.5705 -92.16921 304.7165 -92.08922 304.86126 L -88.13446 312.01748 C -88.05097 312.16855 -87.96993 312.32097 -87.89137 312.47468 L -83.78307 320.51266 C -83.534 320.99997 -83.3101 321.49974 -83.11224 322.01 L -79.62947 330.99187 C -79.61597 331.0267 -79.602345 331.06147 -79.5886 331.0962 L -75.99228 340.18165 C -75.87027 340.4899 -75.75787 340.80183 -75.65524 341.11705 L -73.033404 349.16982 C -73.01728 349.21935 -73.0014 349.26895 -72.98576 349.31863 L -69.91371 359.0769 C -69.71092 359.72106 -69.549114 360.3774 -69.42927 361.04202 L -67.443955 372.0515 C -67.4208 372.1799 -67.39921 372.3086 -67.379205 372.43753 L -65.673335 383.4309 C -65.6306 383.70633 -65.595065 383.9828 -65.56677 384.2601 L -64.67935 392.9568 C -64.63262 393.4148 -64.60567 393.8746 -64.59859 394.3349 L -64.41435 406.3105 C -64.41093 406.5329 -64.40287 406.75516 -64.390185 406.9772 L -63.61981 420.45876 C -63.61275 420.5823 -63.604255 420.7058 -63.59433 420.82917 L -62.26076 437.40354 C -62.22641 437.8304 -62.20922 438.2585 -62.20922 438.68675 L -62.20922 451.13653 C -62.20922 451.34157 -62.20528 451.5466 -62.1974 451.75146 L -61.617046 466.8406 C -61.61183 466.97627 -61.60834 467.112 -61.606574 467.24776 L -61.414415 482.044 C -61.41095 482.3107 -61.41416 482.57744 -61.42403 482.844 L -61.998256 498.3481 C -62.00556 498.54543 -62.00922 498.74286 -62.00922 498.9403 L -62.00922 512.53653 C -62.00922 512.74157 -62.01316 512.9466 -62.02104 513.15146 L -62.60623 528.36647 C -62.60822 528.4182 -62.610465 528.47 -62.61296 528.5217 L -63.40828 545.02466 C -63.408906 545.0376 -63.40955 545.0506 -63.4102 545.06356 L -64.20469 560.7547 C -64.20771 560.8143 -64.21106 560.8739 -64.214744 560.93344 L -65.403655 580.1542 C -65.407364 580.2141 -65.41141 580.2741 -65.415794 580.334 L -67.19893 604.7035 C -67.20579 604.79725 -67.21347 604.8909 -67.22198 604.9845 L -69.00787 624.6293 C -69.00877 624.6392 -69.00968 624.64905 -69.01059 624.6589 L -70.78136 643.7438 C -70.79993 643.944 -70.82227 644.1438 -70.84838 644.34314 L -72.80909 659.31586 C -72.9419 660.33005 -73.21104 661.3217 -73.60922 662.2638 L -73.60922 662.2638 C -74.00679 663.2046 -74.25546 664.2015 -74.34629 665.2188 L -75.10922 673.7638 C -75.616975 679.4509 -71.65851 684.5692 -66.026545 685.5079 Z" fill="#ce434f"/>
        <path d="M -66.026545 685.5079 L -52.284304 687.7983 C -52.10093 687.8288 -51.91703 687.8562 -51.7327 687.88035 L -23.37906 691.59565 C -23.132532 691.62796 -22.885285 691.6545 -22.63752 691.6753 L 7.60537 694.2118 C 7.862274 694.2333 8.119662 694.2487 8.377307 694.2578 L 47.30822 695.6341 C 47.49658 695.6408 47.685045 695.6441 47.873523 695.6441 L 79.34084 695.6441 C 79.50746 695.6441 79.67407 695.6415 79.8406 695.6363 L 104.87539 694.854 C 105.08563 694.8474 105.29573 694.8367 105.50555 694.8218 L 127.5533 693.2609 C 127.71161 693.2497 127.86975 693.23616 128.02766 693.22024 L 153.28815 690.6746 C 153.48989 690.6543 153.69122 690.6301 153.89204 690.6021 L 177.68474 687.2868 C 177.88875 687.2583 178.0922 687.226 178.29496 687.1897 L 187.49079 685.5441 C 192.8179 684.59084 196.46876 679.6372 195.80234 674.2667 L 193.59475 656.4761 C 193.5921 656.4548 193.5895 656.43345 193.58695 656.4121 L 190.02312 626.7136 C 190.00157 626.53395 189.98306 626.35396 189.9676 626.1737 L 187.60539 598.6145 C 187.59565 598.5009 187.58713 598.3872 187.57983 598.2735 L 186.1932 576.6818 C 186.1916 576.6567 186.18992 576.63154 186.18818 576.6064 L 184.59603 553.5201 C 184.59253 553.46944 184.58928 553.4188 184.58627 553.3681 L 183.4099 533.5659 C 183.39716 533.3514 183.38874 533.13665 183.38465 532.9218 L 182.99236 512.32696 C 182.99131 512.2717 182.98997 512.2165 182.98835 512.1613 L 182.39322 491.92694 C 182.3916 491.8717 182.39026 491.8165 182.3892 491.76126 L 181.99855 471.2517 C 181.99337 470.98 181.99512 470.70824 182.0038 470.43664 L 182.58973 452.077 C 182.59044 452.0551 182.59118 452.03314 182.59197 452.0112 L 183.38005 430.1419 C 183.3872 429.9434 183.39806 429.74503 183.4126 429.54693 L 184.97007 408.3263 C 184.98388 408.1382 184.99436 407.94984 185.0015 407.76135 L 185.75596 387.8625 C 185.77915 387.25074 185.83744 386.64083 185.93052 386.03576 L 188.66953 368.23224 C 188.7503 367.70714 188.8572 367.1864 188.9898 366.67193 L 193.61806 348.7143 C 193.73316 348.2677 193.8675 347.82632 194.02073 347.39135 L 199.74152 331.1517 C 199.9076 330.68024 200.0957 330.2168 200.30517 329.76293 L 205.83673 317.7779 C 205.93942 317.5554 206.0472 317.3353 206.16 317.11775 L 211.52223 306.77633 C 211.56793 306.6882 211.61446 306.60047 211.6618 306.5132 L 216.87777 296.89623 C 217.61505 295.53687 218.56468 294.30397 219.69079 293.2441 L 219.69079 293.2441 C 220.36598 292.60864 220.39817 291.54613 219.7627 290.87094 C 219.6382 290.73867 219.49307 290.62747 219.33295 290.5417 L 216.1188 288.81984 C 215.90016 288.7027 215.6788 288.59066 215.45494 288.48382 L 207.60097 284.73533 C 207.19436 284.54127 206.77974 284.36447 206.3582 284.2054 L 196.68338 280.55452 C 196.48833 280.48092 196.29187 280.41114 196.0941 280.3452 L 183.39963 276.11372 C 183.2604 276.0673 183.12055 276.02283 182.9801 275.98027 L 170.09658 272.07617 C 170.02605 272.0548 169.95567 272.03293 169.88544 272.0106 L 157.38144 268.03205 C 156.98782 267.9068 156.5992 267.76636 156.21643 267.61104 L 144.24049 262.75123 C 143.40883 262.41375 142.60704 262.00688 141.8436 261.53494 L 132.22436 255.5885 C 132.06865 255.49224 131.91461 255.39333 131.7623 255.2918 L 126.87221 252.03172 C 125.89081 251.37746 125.0195 250.57156 124.29078 249.6441 L 124.29078 249.6441 C 124.18518 249.5097 123.99062 249.48636 123.85621 249.59196 C 123.75347 249.67268 123.7125 249.80923 123.75381 249.9332 L 123.89078 250.3441 C 124.35003 251.72186 124.4546 253.19314 124.1948 254.622 L 123.79967 256.79526 C 123.52845 258.28692 123.04661 259.73246 122.36858 261.0885 L 120.83626 264.15315 C 120.53956 264.74655 120.20624 265.32092 119.83823 265.87293 L 116.63453 270.6785 C 116.20593 271.3214 115.73132 271.9324 115.21443 272.50672 L 110.65238 277.57566 C 110.61132 277.6213 110.56999 277.6667 110.5284 277.71184 L 104.53417 284.21987 C 103.90643 284.9014 103.22068 285.52713 102.48465 286.08998 L 97.46047 289.932 C 97.01432 290.27317 96.55052 290.5906 96.07099 290.883 L 89.58458 294.83813 C 88.92292 295.2416 88.23283 295.59643 87.51975 295.89987 L 80.40434 298.9277 C 79.59667 299.2714 78.76209 299.54803 77.90905 299.75483 L 73.829994 300.7437 C 73.00516 300.94365 72.165726 301.07767 71.31963 301.14446 L 65.619425 301.59448 C 65.20049 301.62755 64.78042 301.6441 64.360186 301.6441 L 57.32787 301.6441 C 56.570766 301.6441 55.81462 301.59037 55.065127 301.4833 L 47.11868 300.3481 C 46.63367 300.2788 46.1521 300.18728 45.67549 300.0738 L 39.714264 298.65446 C 38.568777 298.38173 37.4569 297.98337 36.398828 297.46664 L 30.118824 294.39966 C 29.633774 294.16278 29.161023 293.9015 28.702383 293.61683 L 24.49052 291.00257 C 23.89135 290.63067 23.317424 290.21956 22.772495 289.77194 L 18.32639 286.1198 C 18.102693 285.93603 17.884024 285.74625 17.670626 285.55063 L 13.868283 282.06515 C 13.416988 281.65146 12.989809 281.2122 12.588852 280.74957 L 8.470106 275.99717 C 8.150724 275.62866 7.848357 275.24573 7.563952 274.8496 L 3.1342972 268.67972 C 2.639405 267.9904 2.2001343 267.2628 1.820642 266.50383 L -.7558219 261.3509 C -.7914185 261.2797 -.8264833 261.20825 -.8610135 261.13653 L -2.1092175 258.5441 C -2.9599323 256.77724 -3.3154534 254.8127 -3.1379123 252.85975 L -2.9577072 250.8775 C -2.9339016 250.61563 -3.1268845 250.38405 -3.3887466 250.36025 C -3.5511416 250.34548 -3.7097953 250.41486 -3.8092176 250.5441 L -3.8092176 250.5441 C -4.472664 251.4066 -5.252772 252.17267 -6.1271494 252.82035 L -10.023683 255.70667 C -10.147366 255.7983 -10.272365 255.88812 -10.398641 255.97613 L -15.020891 259.1977 C -16.207627 260.02482 -17.501048 260.68718 -18.865798 261.1667 L -23.472924 262.7854 C -23.963495 262.95777 -24.445372 263.15395 -24.91684 263.37323 L -31.76362 266.55778 C -32.459783 266.88158 -33.17835 267.15485 -33.913747 267.37547 L -44.784136 270.63658 C -44.80086 270.6416 -44.81757 270.64664 -44.834276 270.6517 L -55.80236 273.9813 C -55.94026 274.02317 -56.077586 274.0669 -56.2143 274.11247 L -69.13554 278.41955 C -69.18466 278.43592 -69.23386 278.45206 -69.28314 278.46795 L -80.65054 282.13486 C -81.28903 282.34082 -81.91393 282.58674 -82.52154 282.87115 L -90.4535 286.584 C -90.82384 286.75734 -91.1874 286.94482 -91.54338 287.14603 L -97.48949 290.50687 C -98.74253 291.2151 -99.18417 292.80503 -98.47594 294.05807 C -98.39882 294.1945 -98.30955 294.3237 -98.20922 294.4441 L -97.34511 295.48104 C -96.59016 296.38698 -95.93769 297.3736 -95.39957 298.42293 L -92.32243 304.42334 C -92.24696 304.5705 -92.16921 304.7165 -92.08922 304.86126 L -88.13446 312.01748 C -88.05097 312.16855 -87.96993 312.32097 -87.89137 312.47468 L -83.78307 320.51266 C -83.534 320.99997 -83.3101 321.49974 -83.11224 322.01 L -79.62947 330.99187 C -79.61597 331.0267 -79.602345 331.06147 -79.5886 331.0962 L -75.99228 340.18165 C -75.87027 340.4899 -75.75787 340.80183 -75.65524 341.11705 L -73.033404 349.16982 C -73.01728 349.21935 -73.0014 349.26895 -72.98576 349.31863 L -69.91371 359.0769 C -69.71092 359.72106 -69.549114 360.3774 -69.42927 361.04202 L -67.443955 372.0515 C -67.4208 372.1799 -67.39921 372.3086 -67.379205 372.43753 L -65.673335 383.4309 C -65.6306 383.70633 -65.595065 383.9828 -65.56677 384.2601 L -64.67935 392.9568 C -64.63262 393.4148 -64.60567 393.8746 -64.59859 394.3349 L -64.41435 406.3105 C -64.41093 406.5329 -64.40287 406.75516 -64.390185 406.9772 L -63.61981 420.45876 C -63.61275 420.5823 -63.604255 420.7058 -63.59433 420.82917 L -62.26076 437.40354 C -62.22641 437.8304 -62.20922 438.2585 -62.20922 438.68675 L -62.20922 451.13653 C -62.20922 451.34157 -62.20528 451.5466 -62.1974 451.75146 L -61.617046 466.8406 C -61.61183 466.97627 -61.60834 467.112 -61.606574 467.24776 L -61.414415 482.044 C -61.41095 482.3107 -61.41416 482.57744 -61.42403 482.844 L -61.998256 498.3481 C -62.00556 498.54543 -62.00922 498.74286 -62.00922 498.9403 L -62.00922 512.53653 C -62.00922 512.74157 -62.01316 512.9466 -62.02104 513.15146 L -62.60623 528.36647 C -62.60822 528.4182 -62.610465 528.47 -62.61296 528.5217 L -63.40828 545.02466 C -63.408906 545.0376 -63.40955 545.0506 -63.4102 545.06356 L -64.20469 560.7547 C -64.20771 560.8143 -64.21106 560.8739 -64.214744 560.93344 L -65.403655 580.1542 C -65.407364 580.2141 -65.41141 580.2741 -65.415794 580.334 L -67.19893 604.7035 C -67.20579 604.79725 -67.21347 604.8909 -67.22198 604.9845 L -69.00787 624.6293 C -69.00877 624.6392 -69.00968 624.64905 -69.01059 624.6589 L -70.78136 643.7438 C -70.79993 643.944 -70.82227 644.1438 -70.84838 644.34314 L -72.80909 659.31586 C -72.9419 660.33005 -73.21104 661.3217 -73.60922 662.2638 L -73.60922 662.2638 C -74.00679 663.2046 -74.25546 664.2015 -74.34629 665.2188 L -75.10922 673.7638 C -75.616975 679.4509 -71.65851 684.5692 -66.026545 685.5079 Z" stroke="#7f8080" stroke-linecap="round" stroke-linejoin="round" stroke-width="1"/>
      </g>
      <g id="Graphic_16">
        <path d="M -155 399.69025 L -148.8 404.09025 L -140.6 408.09025 L -132 411.69025 L -123 415.49025 L -112 419.49025 L -102.6 422.29025 L -93.6 424.89025 L -84.6 427.49025 L -79.2 428.89025 L -73.6 429.89025 L -71.2 424.09025 L -68.6 418.69025 L -66.4 414.69025 L -63.8 411.29025 L -63.6 402.29025 L -64.2 391.29025 L -66 380.49025 L -67.6 370.09025 L -70.2 359.09025 L -72.6 349.49025 L -75.4 341.49025 L -78.6 332.09025 L -81.4 324.69025 L -85 317.09025 L -89 309.49025 L -93 302.09025 L -95.6 298.49025 L -99.2 292.69025 L -104.6 297.09025 L -109.4 301.89025 L -114 308.09025 L -118.4 314.29025 L -123.2 322.89025 L -128 332.29025 L -132.8 341.49025 L -136.4 350.09025 L -140.4 359.09025 L -143.6 367.29025 L -147.4 376.69025 L -150.2 384.69025 L -153.2 393.09025 Z" fill="#ce434f"/>
        <path d="M -155 399.69025 L -148.8 404.09025 L -140.6 408.09025 L -132 411.69025 L -123 415.49025 L -112 419.49025 L -102.6 422.29025 L -93.6 424.89025 L -84.6 427.49025 L -79.2 428.89025 L -73.6 429.89025 L -71.2 424.09025 L -68.6 418.69025 L -66.4 414.69025 L -63.8 411.29025 L -63.6 402.29025 L -64.2 391.29025 L -66 380.49025 L -67.6 370.09025 L -70.2 359.09025 L -72.6 349.49025 L -75.4 341.49025 L -78.6 332.09025 L -81.4 324.69025 L -85 317.09025 L -89 309.49025 L -93 302.09025 L -95.6 298.49025 L -99.2 292.69025 L -104.6 297.09025 L -109.4 301.89025 L -114 308.09025 L -118.4 314.29025 L -123.2 322.89025 L -128 332.29025 L -132.8 341.49025 L -136.4 350.09025 L -140.4 359.09025 L -143.6 367.29025 L -147.4 376.69025 L -150.2 384.69025 L -153.2 393.09025 Z" stroke="#7f8080" stroke-linecap="round" stroke-linejoin="round" stroke-width="1"/>
      </g>
      <g id="Graphic_15">
        <path d="M 276.4053 398.74686 L 270.2053 403.14686 L 262.0053 407.14686 L 253.4053 410.74686 L 244.4053 414.54686 L 233.4053 418.54686 L 224.0053 421.34686 L 215.0053 423.94686 L 206.0053 426.54686 L 200.6053 427.94686 L 195.00529 428.94686 L 192.60529 423.14686 L 190.00529 417.74686 L 187.80529 413.74686 L 185.20529 410.34686 L 185.00529 401.34686 L 185.60529 390.34686 L 187.40529 379.54686 L 189.00529 369.14686 L 191.60529 358.14686 L 194.00529 348.54686 L 196.8053 340.54686 L 200.0053 331.14686 L 202.8053 323.74686 L 206.4053 316.14686 L 210.4053 308.54686 L 214.4053 301.14686 L 217.0053 297.54686 L 220.6053 291.74686 L 226.0053 296.14686 L 230.8053 300.94686 L 235.4053 307.14686 L 239.8053 313.34686 L 244.6053 321.94686 L 249.4053 331.34686 L 254.2053 340.54686 L 257.8053 349.14686 L 261.8053 358.14686 L 265.0053 366.34686 L 268.8053 375.74686 L 271.6053 383.74686 L 274.6053 392.14686 Z" fill="#ce434f"/>
        <path d="M 276.4053 398.74686 L 270.2053 403.14686 L 262.0053 407.14686 L 253.4053 410.74686 L 244.4053 414.54686 L 233.4053 418.54686 L 224.0053 421.34686 L 215.0053 423.94686 L 206.0053 426.54686 L 200.6053 427.94686 L 195.00529 428.94686 L 192.60529 423.14686 L 190.00529 417.74686 L 187.80529 413.74686 L 185.20529 410.34686 L 185.00529 401.34686 L 185.60529 390.34686 L 187.40529 379.54686 L 189.00529 369.14686 L 191.60529 358.14686 L 194.00529 348.54686 L 196.8053 340.54686 L 200.0053 331.14686 L 202.8053 323.74686 L 206.4053 316.14686 L 210.4053 308.54686 L 214.4053 301.14686 L 217.0053 297.54686 L 220.6053 291.74686 L 226.0053 296.14686 L 230.8053 300.94686 L 235.4053 307.14686 L 239.8053 313.34686 L 244.6053 321.94686 L 249.4053 331.34686 L 254.2053 340.54686 L 257.8053 349.14686 L 261.8053 358.14686 L 265.0053 366.34686 L 268.8053 375.74686 L 271.6053 383.74686 L 274.6053 392.14686 Z" stroke="#7f8080" stroke-linecap="round" stroke-linejoin="round" stroke-width="2"/>
      </g>
      <g id="Graphic_14">
        <path d="M -155 399.69025 L -148.8 404.09025 L -140.6 408.09025 L -132 411.69025 L -123 415.49025 L -112 419.49025 L -102.6 422.29025 L -93.6 424.89025 L -84.6 427.49025 L -79.2 428.89025 L -73.6 429.89025 L -70.6 423.49025 L -74.4 422.69025 L -79.2 421.49025 L -84.8 420.29025 L -90.8 418.49025 L -95.4 417.09025 L -99.6 415.89025 L -104.2 413.89025 L -108.8 412.29025 L -113.6 410.29025 L -117.6 408.89025 L -122.8 406.69025 L -127.4 405.09025 L -132.2 402.89025 L -137 401.09025 L -141 399.09025 L -145.4 396.89025 L -149.8 394.69025 L -153.2 393.09025 Z" fill="#ce434f"/>
        <path d="M -155 399.69025 L -148.8 404.09025 L -140.6 408.09025 L -132 411.69025 L -123 415.49025 L -112 419.49025 L -102.6 422.29025 L -93.6 424.89025 L -84.6 427.49025 L -79.2 428.89025 L -73.6 429.89025 L -70.6 423.49025 L -74.4 422.69025 L -79.2 421.49025 L -84.8 420.29025 L -90.8 418.49025 L -95.4 417.09025 L -99.6 415.89025 L -104.2 413.89025 L -108.8 412.29025 L -113.6 410.29025 L -117.6 408.89025 L -122.8 406.69025 L -127.4 405.09025 L -132.2 402.89025 L -137 401.09025 L -141 399.09025 L -145.4 396.89025 L -149.8 394.69025 L -153.2 393.09025 Z" stroke="#7f8080" stroke-linecap="round" stroke-linejoin="round" stroke-width="1"/>
      </g>
      <g id="Graphic_13">
        <path d="M 276.4053 398.74686 L 270.2053 403.14686 L 262.0053 407.14686 L 253.4053 410.74686 L 244.4053 414.54686 L 233.4053 418.54686 L 224.0053 421.34686 L 215.0053 423.94686 L 206.0053 426.54686 L 200.6053 427.94686 L 195.00529 428.94686 L 192.00529 422.54686 L 195.80529 421.74686 L 200.6053 420.54686 L 206.2053 419.34686 L 212.2053 417.54686 L 216.8053 416.14686 L 221.0053 414.94686 L 225.6053 412.94686 L 230.2053 411.34686 L 235.0053 409.34686 L 239.0053 407.94686 L 244.2053 405.74686 L 248.8053 404.14686 L 253.6053 401.94686 L 258.4053 400.14686 L 262.4053 398.14686 L 266.8053 395.94686 L 271.2053 393.74686 L 274.6053 392.14686 Z" fill="#ce434f"/>
        <path d="M 276.4053 398.74686 L 270.2053 403.14686 L 262.0053 407.14686 L 253.4053 410.74686 L 244.4053 414.54686 L 233.4053 418.54686 L 224.0053 421.34686 L 215.0053 423.94686 L 206.0053 426.54686 L 200.6053 427.94686 L 195.00529 428.94686 L 192.00529 422.54686 L 195.80529 421.74686 L 200.6053 420.54686 L 206.2053 419.34686 L 212.2053 417.54686 L 216.8053 416.14686 L 221.0053 414.94686 L 225.6053 412.94686 L 230.2053 411.34686 L 235.0053 409.34686 L 239.0053 407.94686 L 244.2053 405.74686 L 248.8053 404.14686 L 253.6053 401.94686 L 258.4053 400.14686 L 262.4053 398.14686 L 266.8053 395.94686 L 271.2053 393.74686 L 274.6053 392.14686 Z" stroke="#7f8080" stroke-linecap="round" stroke-linejoin="round" stroke-width="1"/>
      </g>
      <g id="Graphic_12">
        <path d="M -4.427879 250.2079 L -9.157049 254.26147 C -10.307397 255.24748 -11.552357 256.11742 -12.873787 256.8586 L -15.400422 258.27576 C -16.835594 259.08073 -17.416397 260.84986 -16.737611 262.34884 L -15.719994 264.59608 C -15.598415 264.86456 -15.471687 265.1307 -15.339879 265.3943 L -11.050623 273.9728 C -10.708826 274.6564 -10.333168 275.32254 -9.925048 275.96873 L -7.598656 279.6522 C -7.15828 280.34945 -6.68072 281.02253 -6.168047 281.6685 L -2.7573623 285.96595 C -2.2113083 286.65398 -1.6262885 287.31016 -1.0051778 287.93127 L 3.660865 292.5973 C 4.0617455 292.9982 4.477311 293.38412 4.90671 293.7543 L 9.470235 297.68836 C 9.864892 298.0286 10.270997 298.3553 10.687846 298.66793 L 14.662786 301.64914 C 15.328699 302.14857 16.021233 302.6115 16.737331 303.03585 L 20.870394 305.48507 C 20.99839 305.5609 21.127117 305.63552 21.25656 305.70887 L 25.954107 308.3708 C 26.692398 308.78918 27.453276 309.16637 28.233252 309.50064 L 31.78307 311.022 C 32.36903 311.2731 32.96518 311.49977 33.569974 311.70137 L 38.58808 313.37407 C 39.835325 313.78982 41.11592 314.09786 42.415795 314.2948 L 46.51464 314.91585 C 46.879756 314.97117 47.24615 315.0177 47.6135 315.05537 L 54.494605 315.76112 C 54.73978 315.78627 54.985344 315.80747 55.2312 315.82473 L 59.758346 316.1424 C 60.29421 316.18002 60.831224 316.19884 61.368405 316.19884 L 64.63046 316.19884 C 65.58416 316.19884 66.53693 316.13953 67.48327 316.02123 L 71.47198 315.52265 C 72.131945 315.44015 72.78802 315.32907 73.43835 315.1897 L 79.52039 313.8864 C 80.41426 313.69487 81.29592 313.4502 82.16068 313.1537 L 86.66952 311.60783 C 87.46417 311.33538 88.2433 311.0196 89.0034 310.6619 L 93.83677 308.38737 C 94.38697 308.12845 94.92668 307.84782 95.45464 307.54613 L 99.2225 305.39307 C 99.91529 304.9972 100.58701 304.56552 101.23494 304.09983 L 105.91106 300.73886 C 106.41175 300.379 106.89776 299.99914 107.36792 299.60022 L 112.68877 295.08555 C 113.07108 294.76117 113.44269 294.42437 113.80298 294.0757 L 118.5022 289.52806 C 119.14179 288.9091 119.74491 288.25354 120.30852 287.5647 L 124.1018 282.92845 C 124.60852 282.30913 125.08257 281.6638 125.52201 280.99507 L 129.13919 275.49067 C 129.35462 275.16284 129.56163 274.82955 129.76002 274.49113 L 132.28311 270.18703 C 132.66906 269.52865 133.022 268.85146 133.34062 268.158 L 135.45932 263.54672 C 135.99218 262.38696 136.36334 261.15954 136.5624 259.89884 L 136.5624 259.89884 C 136.7407 258.76958 136.1614 257.65613 135.13432 257.154 L 129.84088 254.5661 C 128.52642 253.92348 127.29183 253.12897 126.1624 252.19884 L 125.75638 251.86448 C 124.91205 251.16915 124.28864 250.24285 123.9624 249.19884 L 123.9624 249.19884 C 123.91573 249.04953 123.75686 248.9663 123.60754 249.01297 C 123.49247 249.04893 123.41277 249.1538 123.40892 249.2743 L 123.29968 252.69722 C 123.20894 255.5403 122.5916 258.34187 121.479 260.95977 L 120.60206 263.02315 C 120.04349 264.33742 119.36374 265.59682 118.5716 266.78502 L 114.88582 272.3137 C 114.13831 273.43496 113.2937 274.48836 112.36175 275.46173 L 106.06668 282.03658 C 105.19861 282.94323 104.25777 283.7773 103.2536 284.53043 L 94.8787 290.8116 C 94.00228 291.46893 93.08002 292.06278 92.11896 292.58864 L 84.93376 296.52017 C 83.62263 297.23758 82.2447 297.82548 80.81952 298.27554 L 74.14661 300.38277 C 72.42973 300.92494 70.65514 301.26365 68.85927 301.39192 L 61.972815 301.8838 C 60.90052 301.9604 59.82417 301.96172 58.751685 301.88776 L 50.31543 301.30595 C 49.28125 301.23463 48.25308 301.09347 47.237946 300.88344 L 40.10274 299.4072 C 38.150787 299.00334 36.259614 298.34746 34.476757 297.45603 L 29.81735 295.12632 C 28.58321 294.50925 27.407106 293.78238 26.30326 292.9545 L 20.621303 288.69303 C 20.182167 288.36368 19.754962 288.0187 19.34051 287.6588 L 13.585329 282.66087 C 12.771043 281.95373 12.007503 281.1902 11.30036 280.3759 L 6.895135 275.30322 C 6.141032 274.43486 5.453124 273.51116 4.837199 272.5399 L 1.103497 266.65213 C .7429312 266.08355 .40750533 265.4994 .09818847 264.9014 L -1.5221851 261.76867 C -2.1313293 260.591 -2.6374978 259.36284 -3.035035 258.09795 L -4.315274 254.02446 C -4.530049 253.3411 -4.7127816 252.64805 -4.862874 251.94762 L -5.088291 250.89568 C -5.1733646 250.49867 -4.947007 250.101 -4.5622025 249.97147 L -4.5622025 249.97147 C -4.489708 249.94707 -4.4111556 249.98606 -4.386751 250.05855 C -4.3687374 250.11206 -4.38501 250.17115 -4.427879 250.2079 Z" fill="#ce434f"/>
        <path d="M -4.427879 250.2079 L -9.157049 254.26147 C -10.307397 255.24748 -11.552357 256.11742 -12.873787 256.8586 L -15.400422 258.27576 C -16.835594 259.08073 -17.416397 260.84986 -16.737611 262.34884 L -15.719994 264.59608 C -15.598415 264.86456 -15.471687 265.1307 -15.339879 265.3943 L -11.050623 273.9728 C -10.708826 274.6564 -10.333168 275.32254 -9.925048 275.96873 L -7.598656 279.6522 C -7.15828 280.34945 -6.68072 281.02253 -6.168047 281.6685 L -2.7573623 285.96595 C -2.2113083 286.65398 -1.6262885 287.31016 -1.0051778 287.93127 L 3.660865 292.5973 C 4.0617455 292.9982 4.477311 293.38412 4.90671 293.7543 L 9.470235 297.68836 C 9.864892 298.0286 10.270997 298.3553 10.687846 298.66793 L 14.662786 301.64914 C 15.328699 302.14857 16.021233 302.6115 16.737331 303.03585 L 20.870394 305.48507 C 20.99839 305.5609 21.127117 305.63552 21.25656 305.70887 L 25.954107 308.3708 C 26.692398 308.78918 27.453276 309.16637 28.233252 309.50064 L 31.78307 311.022 C 32.36903 311.2731 32.96518 311.49977 33.569974 311.70137 L 38.58808 313.37407 C 39.835325 313.78982 41.11592 314.09786 42.415795 314.2948 L 46.51464 314.91585 C 46.879756 314.97117 47.24615 315.0177 47.6135 315.05537 L 54.494605 315.76112 C 54.73978 315.78627 54.985344 315.80747 55.2312 315.82473 L 59.758346 316.1424 C 60.29421 316.18002 60.831224 316.19884 61.368405 316.19884 L 64.63046 316.19884 C 65.58416 316.19884 66.53693 316.13953 67.48327 316.02123 L 71.47198 315.52265 C 72.131945 315.44015 72.78802 315.32907 73.43835 315.1897 L 79.52039 313.8864 C 80.41426 313.69487 81.29592 313.4502 82.16068 313.1537 L 86.66952 311.60783 C 87.46417 311.33538 88.2433 311.0196 89.0034 310.6619 L 93.83677 308.38737 C 94.38697 308.12845 94.92668 307.84782 95.45464 307.54613 L 99.2225 305.39307 C 99.91529 304.9972 100.58701 304.56552 101.23494 304.09983 L 105.91106 300.73886 C 106.41175 300.379 106.89776 299.99914 107.36792 299.60022 L 112.68877 295.08555 C 113.07108 294.76117 113.44269 294.42437 113.80298 294.0757 L 118.5022 289.52806 C 119.14179 288.9091 119.74491 288.25354 120.30852 287.5647 L 124.1018 282.92845 C 124.60852 282.30913 125.08257 281.6638 125.52201 280.99507 L 129.13919 275.49067 C 129.35462 275.16284 129.56163 274.82955 129.76002 274.49113 L 132.28311 270.18703 C 132.66906 269.52865 133.022 268.85146 133.34062 268.158 L 135.45932 263.54672 C 135.99218 262.38696 136.36334 261.15954 136.5624 259.89884 L 136.5624 259.89884 C 136.7407 258.76958 136.1614 257.65613 135.13432 257.154 L 129.84088 254.5661 C 128.52642 253.92348 127.29183 253.12897 126.1624 252.19884 L 125.75638 251.86448 C 124.91205 251.16915 124.28864 250.24285 123.9624 249.19884 L 123.9624 249.19884 C 123.91573 249.04953 123.75686 248.9663 123.60754 249.01297 C 123.49247 249.04893 123.41277 249.1538 123.40892 249.2743 L 123.29968 252.69722 C 123.20894 255.5403 122.5916 258.34187 121.479 260.95977 L 120.60206 263.02315 C 120.04349 264.33742 119.36374 265.59682 118.5716 266.78502 L 114.88582 272.3137 C 114.13831 273.43496 113.2937 274.48836 112.36175 275.46173 L 106.06668 282.03658 C 105.19861 282.94323 104.25777 283.7773 103.2536 284.53043 L 94.8787 290.8116 C 94.00228 291.46893 93.08002 292.06278 92.11896 292.58864 L 84.93376 296.52017 C 83.62263 297.23758 82.2447 297.82548 80.81952 298.27554 L 74.14661 300.38277 C 72.42973 300.92494 70.65514 301.26365 68.85927 301.39192 L 61.972815 301.8838 C 60.90052 301.9604 59.82417 301.96172 58.751685 301.88776 L 50.31543 301.30595 C 49.28125 301.23463 48.25308 301.09347 47.237946 300.88344 L 40.10274 299.4072 C 38.150787 299.00334 36.259614 298.34746 34.476757 297.45603 L 29.81735 295.12632 C 28.58321 294.50925 27.407106 293.78238 26.30326 292.9545 L 20.621303 288.69303 C 20.182167 288.36368 19.754962 288.0187 19.34051 287.6588 L 13.585329 282.66087 C 12.771043 281.95373 12.007503 281.1902 11.30036 280.3759 L 6.895135 275.30322 C 6.141032 274.43486 5.453124 273.51116 4.837199 272.5399 L 1.103497 266.65213 C .7429312 266.08355 .40750533 265.4994 .09818847 264.9014 L -1.5221851 261.76867 C -2.1313293 260.591 -2.6374978 259.36284 -3.035035 258.09795 L -4.315274 254.02446 C -4.530049 253.3411 -4.7127816 252.64805 -4.862874 251.94762 L -5.088291 250.89568 C -5.1733646 250.49867 -4.947007 250.101 -4.5622025 249.97147 L -4.5622025 249.97147 C -4.489708 249.94707 -4.4111556 249.98606 -4.386751 250.05855 C -4.3687374 250.11206 -4.38501 250.17115 -4.427879 250.2079 Z" stroke="#7f8080" stroke-linecap="round" stroke-linejoin="round" stroke-width="1"/>
      </g>
      <g id="Graphic_11">
        <path d="M -4.9407524 250 L .45924765 249.4 L 7.259248 252.8 L 12.259248 254.6 L 20.659248 256.4 L 29.059248 257.4 L 37.05925 258.4 L 44.65925 258.6 L 53.25925 259 L 64.85925 258.8 L 73.25925 258.4 L 82.65925 257.8 L 91.05925 257 L 100.25925 255.6 L 108.45925 253.4 L 114.25925 251.6 L 119.85925 249 L 122.65925 250.2 L 123.05925 255.8 L 120.25925 263.8 L 114.85925 266.6 L 104.25925 269.8 L 92.85925 272.2 L 81.65925 273 L 69.25925 274 L 58.85925 274 L 49.45925 274 L 37.85925 273.4 L 26.659248 272.6 L 16.059248 270.4 L 7.459248 268.4 L 1.2592477 265.6 L -.7407524 264 L -3.9407524 256.4 Z" fill="#ce434f"/>
        <path d="M -4.9407524 250 L .45924765 249.4 L 7.259248 252.8 L 12.259248 254.6 L 20.659248 256.4 L 29.059248 257.4 L 37.05925 258.4 L 44.65925 258.6 L 53.25925 259 L 64.85925 258.8 L 73.25925 258.4 L 82.65925 257.8 L 91.05925 257 L 100.25925 255.6 L 108.45925 253.4 L 114.25925 251.6 L 119.85925 249 L 122.65925 250.2 L 123.05925 255.8 L 120.25925 263.8 L 114.85925 266.6 L 104.25925 269.8 L 92.85925 272.2 L 81.65925 273 L 69.25925 274 L 58.85925 274 L 49.45925 274 L 37.85925 273.4 L 26.659248 272.6 L 16.059248 270.4 L 7.459248 268.4 L 1.2592477 265.6 L -.7407524 264 L -3.9407524 256.4 Z" stroke="#7f8080" stroke-linecap="round" stroke-linejoin="round" stroke-width="1"/>
      </g>
      <g id="Graphic_10">
        <path d="M -75.18679 675.4441 L -75.18679 675.4441 C -75.25247 675.9696 -75.189645 676.5032 -75.0037 676.999 L -74.35269 678.735 C -74.17594 679.2064 -73.94885 679.6573 -73.67538 680.0799 L -72.70757 681.5756 C -72.16661 682.4117 -71.45351 683.12265 -70.61588 683.6611 L -69.53783 684.3542 C -69.23757 684.5472 -68.922994 684.71695 -68.59684 684.862 L -67.27999 685.4476 C -66.68346 685.7129 -66.052754 685.8934 -65.40621 685.9839 L -56.395787 687.2454 C -56.38579 687.2468 -56.3758 687.2481 -56.3658 687.2495 L -44.6498 688.8381 C -44.6038 688.84434 -44.557737 688.8501 -44.51162 688.85544 L -34.228685 690.0419 C -34.19676 690.0456 -34.16481 690.0491 -34.132835 690.0523 L -20.42277 691.4432 C -20.394787 691.44604 -20.366788 691.4487 -20.338774 691.4512 L -9.233474 692.44276 C -9.198356 692.4459 -9.163214 692.4488 -9.128052 692.4514 L 1.5584846 693.243 C 1.5989637 693.246 1.6394681 693.2486 1.6799933 693.2509 L 12.187976 693.8457 C 12.208795 693.8469 12.229608 693.84814 12.250416 693.8495 L 24.293193 694.6392 C 24.377194 694.6447 24.461288 694.6487 24.545432 694.6512 L 37.992557 695.0467 C 38.010322 695.0472 38.028085 695.0478 38.045846 695.04845 L 48.68971 695.4427 C 48.77603 695.4459 48.86241 695.4475 48.94879 695.4475 L 59.55781 695.4475 C 59.59874 695.4475 59.63967 695.4478 59.680595 695.4485 L 70.76702 695.643 C 70.93509 695.646 71.10321 695.6429 71.27106 695.6337 L 81.89229 695.0544 C 81.97689 695.0498 82.06157 695.0467 82.14629 695.04515 L 92.91085 694.8494 C 92.98308 694.8481 93.05529 694.8457 93.12745 694.8421 L 105.14607 694.25106 C 105.19483 694.2487 105.24355 694.24575 105.29225 694.2423 L 116.5323 693.4536 C 116.59023 693.4495 116.64812 693.4447 116.70594 693.4392 L 129.11651 692.25724 C 129.18497 692.2507 129.25352 692.2452 129.32214 692.2407 L 141.25416 691.4583 C 141.36418 691.4511 141.474 691.44126 141.58355 691.42886 L 151.9959 690.2501 C 152.01144 690.2483 152.02697 690.2465 152.0425 690.2447 L 161.9902 689.05094 C 162.00954 689.0486 162.02886 689.0462 162.04818 689.0437 L 175.88394 687.2662 C 175.98115 687.2537 176.0781 687.2392 176.1747 687.2226 L 182.72819 686.0992 C 182.92915 686.0647 183.13153 686.0391 183.33473 686.0223 L 186.56706 685.7553 C 187.4563 685.68186 188.3233 685.4391 189.12135 685.04005 L 190.60765 684.2969 C 191.20824 683.9966 191.7625 683.6115 192.25338 683.1533 L 193.5885 681.9072 C 194.19532 681.3408 194.65073 680.6316 194.91322 679.8441 L 195.20805 678.9596 C 195.27812 678.7494 195.33817 678.536 195.388 678.32005 L 195.8577 676.2847 C 195.89293 676.132 195.8595 675.9716 195.76621 675.8458 L 195.76621 675.8458 C 195.67587 675.7239 195.52523 675.6624 195.3754 675.68625 L 186.89555 677.0353 C 186.84466 677.0434 186.79385 677.0521 186.74315 677.0613 L 173.7584 679.42216 C 173.66561 679.439 173.5725 679.454 173.47911 679.4671 L 162.24943 681.0432 C 162.22928 681.04605 162.20914 681.049 162.18902 681.052 L 149.06643 683.0106 C 148.90167 683.03515 148.73608 683.05386 148.56998 683.0666 L 135.84517 684.0455 C 135.82786 684.0468 135.81055 684.0481 135.79323 684.0493 L 121.45308 685.0451 C 121.4305 685.0467 121.4079 685.0481 121.38531 685.0495 L 108.08205 685.8437 C 108.04016 685.8462 107.99824 685.8483 107.9563 685.8501 L 93.76485 686.4414 C 93.66776 686.4454 93.5706 686.4475 93.47344 686.4475 L 67.677535 686.4475 C 67.63865 686.4475 67.599764 686.4478 67.560884 686.4484 L 55.802496 686.6444 C 55.68032 686.64644 55.55812 686.6453 55.436005 686.6409 L 44.602405 686.254 C 44.48029 686.24964 44.358087 686.2485 44.235914 686.2505 L 32.521274 686.4458 C 32.45323 686.4469 32.385176 686.447 32.31713 686.4462 L 16.614845 686.2499 C 16.484443 686.2483 16.354113 686.243 16.224007 686.2341 L 1.9142289 685.254 C 1.8508822 685.2496 1.7875974 685.2444 1.7243922 685.2384 L -12.766614 683.8488 C -12.776069 683.8479 -12.785521 683.847 -12.794972 683.84604 L -26.607008 682.4648 C -26.72285 682.45326 -26.838382 682.4388 -26.9535 682.4214 L -41.262653 680.2653 C -41.34141 680.2534 -41.420363 680.2429 -41.49948 680.2337 L -55.01941 678.6662 C -55.126987 678.6537 -55.23426 678.6387 -55.34114 678.6213 L -64.73323 677.0879 C -64.89822 677.06094 -65.062195 677.0281 -65.224836 676.9894 L -74.302435 674.83065 C -74.69075 674.7383 -75.08041 674.9782 -75.17276 675.36655 C -75.17884 675.3921 -75.183525 675.418 -75.18679 675.4441 Z" fill="#ce434f"/>
        <path d="M -75.18679 675.4441 L -75.18679 675.4441 C -75.25247 675.9696 -75.189645 676.5032 -75.0037 676.999 L -74.35269 678.735 C -74.17594 679.2064 -73.94885 679.6573 -73.67538 680.0799 L -72.70757 681.5756 C -72.16661 682.4117 -71.45351 683.12265 -70.61588 683.6611 L -69.53783 684.3542 C -69.23757 684.5472 -68.922994 684.71695 -68.59684 684.862 L -67.27999 685.4476 C -66.68346 685.7129 -66.052754 685.8934 -65.40621 685.9839 L -56.395787 687.2454 C -56.38579 687.2468 -56.3758 687.2481 -56.3658 687.2495 L -44.6498 688.8381 C -44.6038 688.84434 -44.557737 688.8501 -44.51162 688.85544 L -34.228685 690.0419 C -34.19676 690.0456 -34.16481 690.0491 -34.132835 690.0523 L -20.42277 691.4432 C -20.394787 691.44604 -20.366788 691.4487 -20.338774 691.4512 L -9.233474 692.44276 C -9.198356 692.4459 -9.163214 692.4488 -9.128052 692.4514 L 1.5584846 693.243 C 1.5989637 693.246 1.6394681 693.2486 1.6799933 693.2509 L 12.187976 693.8457 C 12.208795 693.8469 12.229608 693.84814 12.250416 693.8495 L 24.293193 694.6392 C 24.377194 694.6447 24.461288 694.6487 24.545432 694.6512 L 37.992557 695.0467 C 38.010322 695.0472 38.028085 695.0478 38.045846 695.04845 L 48.68971 695.4427 C 48.77603 695.4459 48.86241 695.4475 48.94879 695.4475 L 59.55781 695.4475 C 59.59874 695.4475 59.63967 695.4478 59.680595 695.4485 L 70.76702 695.643 C 70.93509 695.646 71.10321 695.6429 71.27106 695.6337 L 81.89229 695.0544 C 81.97689 695.0498 82.06157 695.0467 82.14629 695.04515 L 92.91085 694.8494 C 92.98308 694.8481 93.05529 694.8457 93.12745 694.8421 L 105.14607 694.25106 C 105.19483 694.2487 105.24355 694.24575 105.29225 694.2423 L 116.5323 693.4536 C 116.59023 693.4495 116.64812 693.4447 116.70594 693.4392 L 129.11651 692.25724 C 129.18497 692.2507 129.25352 692.2452 129.32214 692.2407 L 141.25416 691.4583 C 141.36418 691.4511 141.474 691.44126 141.58355 691.42886 L 151.9959 690.2501 C 152.01144 690.2483 152.02697 690.2465 152.0425 690.2447 L 161.9902 689.05094 C 162.00954 689.0486 162.02886 689.0462 162.04818 689.0437 L 175.88394 687.2662 C 175.98115 687.2537 176.0781 687.2392 176.1747 687.2226 L 182.72819 686.0992 C 182.92915 686.0647 183.13153 686.0391 183.33473 686.0223 L 186.56706 685.7553 C 187.4563 685.68186 188.3233 685.4391 189.12135 685.04005 L 190.60765 684.2969 C 191.20824 683.9966 191.7625 683.6115 192.25338 683.1533 L 193.5885 681.9072 C 194.19532 681.3408 194.65073 680.6316 194.91322 679.8441 L 195.20805 678.9596 C 195.27812 678.7494 195.33817 678.536 195.388 678.32005 L 195.8577 676.2847 C 195.89293 676.132 195.8595 675.9716 195.76621 675.8458 L 195.76621 675.8458 C 195.67587 675.7239 195.52523 675.6624 195.3754 675.68625 L 186.89555 677.0353 C 186.84466 677.0434 186.79385 677.0521 186.74315 677.0613 L 173.7584 679.42216 C 173.66561 679.439 173.5725 679.454 173.47911 679.4671 L 162.24943 681.0432 C 162.22928 681.04605 162.20914 681.049 162.18902 681.052 L 149.06643 683.0106 C 148.90167 683.03515 148.73608 683.05386 148.56998 683.0666 L 135.84517 684.0455 C 135.82786 684.0468 135.81055 684.0481 135.79323 684.0493 L 121.45308 685.0451 C 121.4305 685.0467 121.4079 685.0481 121.38531 685.0495 L 108.08205 685.8437 C 108.04016 685.8462 107.99824 685.8483 107.9563 685.8501 L 93.76485 686.4414 C 93.66776 686.4454 93.5706 686.4475 93.47344 686.4475 L 67.677535 686.4475 C 67.63865 686.4475 67.599764 686.4478 67.560884 686.4484 L 55.802496 686.6444 C 55.68032 686.64644 55.55812 686.6453 55.436005 686.6409 L 44.602405 686.254 C 44.48029 686.24964 44.358087 686.2485 44.235914 686.2505 L 32.521274 686.4458 C 32.45323 686.4469 32.385176 686.447 32.31713 686.4462 L 16.614845 686.2499 C 16.484443 686.2483 16.354113 686.243 16.224007 686.2341 L 1.9142289 685.254 C 1.8508822 685.2496 1.7875974 685.2444 1.7243922 685.2384 L -12.766614 683.8488 C -12.776069 683.8479 -12.785521 683.847 -12.794972 683.84604 L -26.607008 682.4648 C -26.72285 682.45326 -26.838382 682.4388 -26.9535 682.4214 L -41.262653 680.2653 C -41.34141 680.2534 -41.420363 680.2429 -41.49948 680.2337 L -55.01941 678.6662 C -55.126987 678.6537 -55.23426 678.6387 -55.34114 678.6213 L -64.73323 677.0879 C -64.89822 677.06094 -65.062195 677.0281 -65.224836 676.9894 L -74.302435 674.83065 C -74.69075 674.7383 -75.08041 674.9782 -75.17276 675.36655 C -75.17884 675.3921 -75.183525 675.418 -75.18679 675.4441 Z" stroke="#7f8080" stroke-linecap="round" stroke-linejoin="round" stroke-width="1"/>
      </g>
    </g>
  </g>
</svg>
