<?xml version="1.0" encoding="UTF-8" standalone="no"?>
<!DOCTYPE svg PUBLIC "-//W3C//DTD SVG 1.1//EN" "http://www.w3.org/Graphics/SVG/1.1/DTD/svg11.dtd">
<svg xmlns:xl="http://www.w3.org/1999/xlink" xmlns:dc="http://purl.org/dc/elements/1.1/" xmlns="http://www.w3.org/2000/svg" version="1.1" viewBox="-140 214 435 450" width="435" height="450">
  <defs>
    <radialGradient cx="0" cy="0" r="1" id="Gradient" gradientUnits="userSpaceOnUse">
      <stop offset="0" stop-color="#cbcbcb"/>
      <stop offset=".4338305" stop-color="#7f7f7f"/>
      <stop offset="1" stop-color="#212121"/>
    </radialGradient>
    <radialGradient id="Obj_Gradient" xl:href="#Gradient" gradientTransform="translate(75.75925 242.4) scale(70.26272)"/>
  </defs>
  <metadata> Produced by OmniGraffle 7.19.2\n2023-12-06 01:13:20 +0000</metadata>
  <g id="Canvas_22" stroke-opacity="1" fill-opacity="1" stroke-dasharray="none" fill="none" stroke="none">
    <title>Canvas 22</title>
    <g id="Canvas_22_Layer_1">
      <title>Layer 1</title>
      <g id="Graphic_35">
        <path d="M 14.005654 215.59045 L 22.171106 218.70816 C 23.029097 219.03576 23.90594 219.31167 24.796923 219.53442 L 38.5141 222.96371 C 39.67576 223.25413 40.85832 223.45338 42.051005 223.55966 L 59.57715 225.1214 C 60.165 225.17378 60.75464 225.20352 61.34478 225.21054 L 76.823695 225.39481 C 77.11404 225.39827 77.40442 225.39623 77.69469 225.3887 L 92.118 225.01406 C 92.47878 225.0047 92.8393 224.98683 93.19924 224.9605 L 107.57053 223.90893 C 108.56197 223.83639 109.54766 223.69964 110.5214 223.49956 L 122.09436 221.12155 C 123.13637 220.90744 124.16226 220.6213 125.16465 220.26519 L 136.91664 216.09014 C 138.00702 215.70277 139.21021 216.23354 139.65925 217.3 L 139.65925 217.3 C 140.1814 218.5401 140.33338 219.90485 140.09685 221.22945 L 139.91637 222.24014 C 139.61259 223.9413 139.11806 225.6028 138.44214 227.1932 L 136.89892 230.8243 C 136.34035 232.13858 135.6606 233.39798 134.86846 234.58618 L 131.18268 240.11485 C 130.43517 241.2361 129.59057 242.2895 128.65861 243.2629 L 122.36354 249.83774 C 121.49547 250.7444 120.55463 251.57846 119.55046 252.3316 L 111.17555 258.61277 C 110.29914 259.27008 109.37688 259.86394 108.41582 260.3898 L 101.23062 264.32133 C 99.91949 265.03874 98.54156 265.62664 97.11638 266.0767 L 90.44347 268.18393 C 88.72659 268.7261 86.952 269.0648 85.15613 269.19308 L 78.269675 269.68497 C 77.19738 269.76156 76.12103 269.76288 75.048545 269.68892 L 66.61229 269.1071 C 65.57811 269.0358 64.54994 268.89463 63.53481 268.6846 L 56.3996 267.20835 C 54.44765 266.8045 52.556474 266.1486 50.77362 265.2572 L 46.11421 262.92748 C 44.88007 262.3104 43.703967 261.58354 42.60012 260.75566 L 36.918163 256.4942 C 36.479027 256.16483 36.051822 255.81987 35.63737 255.45995 L 29.88219 250.46203 C 29.067903 249.7549 28.304363 248.99135 27.59722 248.17706 L 23.191995 243.10438 C 22.437892 242.23602 21.749984 241.31232 21.13406 240.34105 L 17.400357 234.4533 C 17.039791 233.8847 16.704365 233.30056 16.395049 232.70255 L 14.774675 229.56983 C 14.165531 228.39215 13.659362 227.164 13.261825 225.8991 L 11.981586 221.82562 C 11.766811 221.14225 11.584079 220.4492 11.433986 219.74878 L 11.359248 219.4 C 11.164585 218.49157 11.271846 217.54443 11.664727 216.70254 L 11.759248 216.5 C 12.153724 215.6547 13.134195 215.2577 14.005654 215.59045 Z" fill="url(#Obj_Gradient)"/>
        <path d="M 14.005654 215.59045 L 22.171106 218.70816 C 23.029097 219.03576 23.90594 219.31167 24.796923 219.53442 L 38.5141 222.96371 C 39.67576 223.25413 40.85832 223.45338 42.051005 223.55966 L 59.57715 225.1214 C 60.165 225.17378 60.75464 225.20352 61.34478 225.21054 L 76.823695 225.39481 C 77.11404 225.39827 77.40442 225.39623 77.69469 225.3887 L 92.118 225.01406 C 92.47878 225.0047 92.8393 224.98683 93.19924 224.9605 L 107.57053 223.90893 C 108.56197 223.83639 109.54766 223.69964 110.5214 223.49956 L 122.09436 221.12155 C 123.13637 220.90744 124.16226 220.6213 125.16465 220.26519 L 136.91664 216.09014 C 138.00702 215.70277 139.21021 216.23354 139.65925 217.3 L 139.65925 217.3 C 140.1814 218.5401 140.33338 219.90485 140.09685 221.22945 L 139.91637 222.24014 C 139.61259 223.9413 139.11806 225.6028 138.44214 227.1932 L 136.89892 230.8243 C 136.34035 232.13858 135.6606 233.39798 134.86846 234.58618 L 131.18268 240.11485 C 130.43517 241.2361 129.59057 242.2895 128.65861 243.2629 L 122.36354 249.83774 C 121.49547 250.7444 120.55463 251.57846 119.55046 252.3316 L 111.17555 258.61277 C 110.29914 259.27008 109.37688 259.86394 108.41582 260.3898 L 101.23062 264.32133 C 99.91949 265.03874 98.54156 265.62664 97.11638 266.0767 L 90.44347 268.18393 C 88.72659 268.7261 86.952 269.0648 85.15613 269.19308 L 78.269675 269.68497 C 77.19738 269.76156 76.12103 269.76288 75.048545 269.68892 L 66.61229 269.1071 C 65.57811 269.0358 64.54994 268.89463 63.53481 268.6846 L 56.3996 267.20835 C 54.44765 266.8045 52.556474 266.1486 50.77362 265.2572 L 46.11421 262.92748 C 44.88007 262.3104 43.703967 261.58354 42.60012 260.75566 L 36.918163 256.4942 C 36.479027 256.16483 36.051822 255.81987 35.63737 255.45995 L 29.88219 250.46203 C 29.067903 249.7549 28.304363 248.99135 27.59722 248.17706 L 23.191995 243.10438 C 22.437892 242.23602 21.749984 241.31232 21.13406 240.34105 L 17.400357 234.4533 C 17.039791 233.8847 16.704365 233.30056 16.395049 232.70255 L 14.774675 229.56983 C 14.165531 228.39215 13.659362 227.164 13.261825 225.8991 L 11.981586 221.82562 C 11.766811 221.14225 11.584079 220.4492 11.433986 219.74878 L 11.359248 219.4 C 11.164585 218.49157 11.271846 217.54443 11.664727 216.70254 L 11.759248 216.5 C 12.153724 215.6547 13.134195 215.2577 14.005654 215.59045 Z" stroke="#7f8080" stroke-linecap="round" stroke-linejoin="round" stroke-width="1"/>
      </g>
      <g id="Graphic_34">
        <path d="M -50.026545 652.2638 L -36.284304 654.55416 C -36.100928 654.5847 -35.91703 654.6121 -35.7327 654.63624 L -7.37906 658.35154 C -7.132532 658.38385 -6.885285 658.4104 -6.637519 658.4312 L 23.60537 660.9677 C 23.862274 660.9892 24.119662 661.0046 24.377307 661.0137 L 63.30822 662.39 C 63.49658 662.3967 63.685045 662.4 63.87352 662.4 L 95.34084 662.4 C 95.50746 662.4 95.67407 662.3974 95.8406 662.3922 L 120.87539 661.6099 C 121.08563 661.6033 121.29573 661.5926 121.50555 661.5777 L 143.5533 660.0168 C 143.71161 660.0056 143.86975 659.99205 144.02766 659.9761 L 169.28815 657.4305 C 169.48989 657.4102 169.69122 657.386 169.89204 657.358 L 193.68474 654.04265 C 193.88875 654.0142 194.0922 653.98186 194.29496 653.9456 L 203.49079 652.3 C 208.8179 651.3467 212.46876 646.3931 211.80234 641.02255 L 209.59475 623.232 C 209.5921 623.2107 209.5895 623.18934 209.58695 623.168 L 206.02312 593.4695 C 206.00157 593.28985 205.98306 593.10985 205.9676 592.9296 L 203.6054 565.3704 C 203.59565 565.2568 203.58713 565.1431 203.57983 565.02936 L 202.1932 543.4377 C 202.1916 543.4126 202.18992 543.38744 202.18818 543.3623 L 200.59603 520.276 C 200.59253 520.22533 200.58928 520.17466 200.58627 520.124 L 199.4099 500.3218 C 199.39716 500.1073 199.38874 499.89255 199.38465 499.6777 L 198.99236 479.08285 C 198.9913 479.0276 198.98997 478.9724 198.98835 478.9172 L 198.39322 458.68283 C 198.3916 458.6276 198.39026 458.5724 198.3892 458.51715 L 197.99855 438.0076 C 197.99337 437.7359 197.99512 437.46413 198.0038 437.19253 L 198.58973 418.8329 C 198.59044 418.81097 198.59118 418.78903 198.59197 418.7671 L 199.38005 396.8978 C 199.3872 396.6993 199.39806 396.50093 199.4126 396.30283 L 200.97007 375.0822 C 200.98388 374.8941 200.99436 374.70573 201.0015 374.51724 L 201.75596 354.61837 C 201.77915 354.00663 201.83744 353.3967 201.93052 352.79165 L 204.66953 334.98813 C 204.7503 334.46304 204.8572 333.9423 204.9898 333.42783 L 209.61806 315.47017 C 209.73316 315.0236 209.8675 314.5822 210.02073 314.14725 L 215.74152 297.9076 C 215.9076 297.43613 216.0957 296.9727 216.30517 296.51883 L 221.83673 284.5338 C 221.93942 284.3113 222.0472 284.0912 222.16 283.87364 L 227.52223 273.53222 C 227.56793 273.44407 227.61446 273.35636 227.6618 273.26908 L 232.87777 263.65212 C 233.61505 262.29276 234.56468 261.05987 235.69079 260 L 235.69079 260 C 236.36598 259.36453 236.39817 258.30203 235.7627 257.62684 C 235.6382 257.49456 235.49307 257.38337 235.33295 257.2976 L 232.1188 255.57573 C 231.90016 255.4586 231.6788 255.34656 231.45494 255.2397 L 223.60097 251.49122 C 223.19436 251.29716 222.77974 251.12036 222.3582 250.9613 L 212.68338 247.3104 C 212.48833 247.2368 212.29187 247.16703 212.0941 247.1011 L 199.39963 242.86962 C 199.2604 242.8232 199.12055 242.77872 198.9801 242.73616 L 186.09658 238.83206 C 186.02605 238.8107 185.95567 238.78883 185.88544 238.76648 L 173.38144 234.78794 C 172.98782 234.6627 172.5992 234.52225 172.21643 234.36693 L 160.24049 229.50713 C 159.40883 229.16964 158.60704 228.76277 157.8436 228.29083 L 148.22436 222.3444 C 148.06865 222.24814 147.91461 222.14922 147.7623 222.04768 L 142.8722 218.78762 C 141.89081 218.13335 141.0195 217.32745 140.29078 216.4 L 140.29078 216.4 C 140.18518 216.2656 139.99062 216.24225 139.85621 216.34785 C 139.75347 216.42858 139.7125 216.56513 139.75381 216.68908 L 139.89078 217.1 C 140.35003 218.47775 140.4546 219.94904 140.1948 221.3779 L 139.79967 223.55115 C 139.52845 225.0428 139.04661 226.48835 138.36858 227.8444 L 136.83626 230.90904 C 136.53956 231.50244 136.20624 232.0768 135.83823 232.62883 L 132.63453 237.43438 C 132.20593 238.07728 131.73132 238.6883 131.21443 239.26261 L 126.65238 244.33156 C 126.61132 244.37719 126.56999 244.42258 126.5284 244.46773 L 120.53417 250.97576 C 119.90643 251.6573 119.22068 252.28302 118.48465 252.84587 L 113.46047 256.6879 C 113.01432 257.02906 112.55052 257.3465 112.07099 257.6389 L 105.58458 261.59403 C 104.92292 261.99748 104.23283 262.35232 103.51975 262.65576 L 96.40434 265.6836 C 95.59667 266.02728 94.76209 266.30393 93.90905 266.51072 L 89.82999 267.4996 C 89.00516 267.69955 88.16573 267.83356 87.31963 267.90035 L 81.61943 268.35037 C 81.20049 268.38344 80.78042 268.4 80.36019 268.4 L 73.32787 268.4 C 72.57077 268.4 71.81462 268.34626 71.06513 268.2392 L 63.11868 267.104 C 62.63367 267.0347 62.1521 266.94317 61.67549 266.8297 L 55.714264 265.41035 C 54.56878 265.13762 53.4569 264.73927 52.39883 264.22253 L 46.118824 261.15556 C 45.633774 260.91867 45.16102 260.6574 44.702383 260.37272 L 40.49052 257.75846 C 39.89135 257.38656 39.317424 256.97546 38.772495 256.52784 L 34.32639 252.87568 C 34.102693 252.69193 33.884024 252.50214 33.670626 252.30652 L 29.868283 248.82104 C 29.416988 248.40736 28.98981 247.9681 28.588852 247.50546 L 24.470106 242.75307 C 24.150724 242.38455 23.848357 242.00162 23.563952 241.6055 L 19.134297 235.4356 C 18.639405 234.7463 18.200134 234.0187 17.820642 233.25972 L 15.244178 228.1068 C 15.208582 228.0356 15.173517 227.96414 15.138986 227.89242 L 13.890782 225.3 C 13.040068 223.53313 12.684547 221.5686 12.862088 219.61564 L 13.042293 217.63339 C 13.066098 217.37152 12.873116 217.13994 12.611253 217.11614 C 12.448858 217.10138 12.290205 217.17075 12.190782 217.3 L 12.190782 217.3 C 11.527336 218.16248 10.747228 218.92856 9.872851 219.57625 L 5.976317 222.46257 C 5.852634 222.55418 5.7276346 222.644 5.601359 222.73202 L .9791086 225.9536 C -.2076275 226.7807 -1.5010482 227.44308 -2.865798 227.92258 L -7.472924 229.5413 C -7.963495 229.71367 -8.445372 229.90984 -8.91684 230.12913 L -15.763621 233.31368 C -16.459783 233.63747 -17.178348 233.91074 -17.913747 234.13136 L -28.784136 237.39248 C -28.800857 237.3975 -28.81757 237.40254 -28.834276 237.4076 L -39.802363 240.7372 C -39.94026 240.77907 -40.077586 240.8228 -40.2143 240.86836 L -53.135536 245.17544 C -53.18466 245.1918 -53.23386 245.20795 -53.283136 245.22384 L -64.65054 248.89075 C -65.28903 249.0967 -65.91393 249.34263 -66.52154 249.62704 L -74.453505 253.33988 C -74.823845 253.51323 -75.1874 253.7007 -75.54338 253.90192 L -81.48949 257.26276 C -82.74253 257.971 -83.18417 259.56093 -82.47594 260.81396 C -82.39882 260.9504 -82.30955 261.0796 -82.20922 261.2 L -81.34511 262.23693 C -80.59016 263.14287 -79.93769 264.1295 -79.39957 265.17882 L -76.32243 271.17924 C -76.24696 271.3264 -76.16921 271.4724 -76.08922 271.61715 L -72.13446 278.77337 C -72.05097 278.92445 -71.96993 279.07687 -71.89137 279.23057 L -67.78307 287.26856 C -67.534 287.75587 -67.3101 288.25563 -67.11224 288.7659 L -63.62947 297.74776 C -63.61597 297.7826 -63.602345 297.81737 -63.5886 297.8521 L -59.992276 306.93754 C -59.87027 307.24577 -59.75787 307.55772 -59.65524 307.87294 L -57.033404 315.9257 C -57.01728 315.97524 -57.0014 316.02484 -56.98576 316.07452 L -53.91371 325.8328 C -53.71092 326.47695 -53.549114 327.1333 -53.42927 327.7979 L -51.443955 338.80737 C -51.4208 338.9358 -51.399213 339.0645 -51.379205 339.19342 L -49.673335 350.1868 C -49.6306 350.46222 -49.595065 350.7387 -49.56677 351.016 L -48.67935 359.7127 C -48.63262 360.1707 -48.60567 360.6305 -48.59859 361.0908 L -48.41435 373.0664 C -48.41093 373.2888 -48.40287 373.51105 -48.390185 373.7331 L -47.61981 387.21465 C -47.61275 387.3382 -47.604255 387.4617 -47.59433 387.58506 L -46.26076 404.15943 C -46.22641 404.5863 -46.20922 405.0144 -46.20922 405.44264 L -46.20922 417.8924 C -46.20922 418.09746 -46.20528 418.30247 -46.197397 418.50735 L -45.617046 433.5965 C -45.61183 433.73216 -45.608337 433.8679 -45.606574 434.00365 L -45.414415 448.7999 C -45.41095 449.0666 -45.414157 449.33333 -45.42403 449.59986 L -45.998256 465.104 C -46.005564 465.3013 -46.00922 465.49875 -46.00922 465.6962 L -46.00922 479.2924 C -46.00922 479.49746 -46.01316 479.7025 -46.02104 479.90736 L -46.60623 495.12236 C -46.608223 495.1741 -46.610465 495.2259 -46.61296 495.2776 L -47.40828 511.78055 C -47.408906 511.7935 -47.409547 511.8065 -47.410203 511.81945 L -48.20469 527.5106 C -48.20771 527.5702 -48.21106 527.6298 -48.214744 527.68933 L -49.403655 546.91007 C -49.407364 546.97 -49.41141 547.02996 -49.415794 547.0899 L -51.19893 571.4594 C -51.20579 571.55314 -51.21347 571.6468 -51.22198 571.7404 L -53.00787 591.3852 C -53.00877 591.3951 -53.009676 591.40494 -53.01059 591.4148 L -54.78136 610.4997 C -54.79993 610.6999 -54.822274 610.8997 -54.848377 611.099 L -56.80909 626.07175 C -56.9419 627.08594 -57.21104 628.07756 -57.60922 629.0197 L -57.60922 629.0197 C -58.006794 629.9605 -58.25546 630.9574 -58.346286 631.97465 L -59.10922 640.5197 C -59.616975 646.20676 -55.65851 651.3251 -50.026545 652.2638 Z" fill="#00ab00"/>
        <path d="M -50.026545 652.2638 L -36.284304 654.55416 C -36.100928 654.5847 -35.91703 654.6121 -35.7327 654.63624 L -7.37906 658.35154 C -7.132532 658.38385 -6.885285 658.4104 -6.637519 658.4312 L 23.60537 660.9677 C 23.862274 660.9892 24.119662 661.0046 24.377307 661.0137 L 63.30822 662.39 C 63.49658 662.3967 63.685045 662.4 63.87352 662.4 L 95.34084 662.4 C 95.50746 662.4 95.67407 662.3974 95.8406 662.3922 L 120.87539 661.6099 C 121.08563 661.6033 121.29573 661.5926 121.50555 661.5777 L 143.5533 660.0168 C 143.71161 660.0056 143.86975 659.99205 144.02766 659.9761 L 169.28815 657.4305 C 169.48989 657.4102 169.69122 657.386 169.89204 657.358 L 193.68474 654.04265 C 193.88875 654.0142 194.0922 653.98186 194.29496 653.9456 L 203.49079 652.3 C 208.8179 651.3467 212.46876 646.3931 211.80234 641.02255 L 209.59475 623.232 C 209.5921 623.2107 209.5895 623.18934 209.58695 623.168 L 206.02312 593.4695 C 206.00157 593.28985 205.98306 593.10985 205.9676 592.9296 L 203.6054 565.3704 C 203.59565 565.2568 203.58713 565.1431 203.57983 565.02936 L 202.1932 543.4377 C 202.1916 543.4126 202.18992 543.38744 202.18818 543.3623 L 200.59603 520.276 C 200.59253 520.22533 200.58928 520.17466 200.58627 520.124 L 199.4099 500.3218 C 199.39716 500.1073 199.38874 499.89255 199.38465 499.6777 L 198.99236 479.08285 C 198.9913 479.0276 198.98997 478.9724 198.98835 478.9172 L 198.39322 458.68283 C 198.3916 458.6276 198.39026 458.5724 198.3892 458.51715 L 197.99855 438.0076 C 197.99337 437.7359 197.99512 437.46413 198.0038 437.19253 L 198.58973 418.8329 C 198.59044 418.81097 198.59118 418.78903 198.59197 418.7671 L 199.38005 396.8978 C 199.3872 396.6993 199.39806 396.50093 199.4126 396.30283 L 200.97007 375.0822 C 200.98388 374.8941 200.99436 374.70573 201.0015 374.51724 L 201.75596 354.61837 C 201.77915 354.00663 201.83744 353.3967 201.93052 352.79165 L 204.66953 334.98813 C 204.7503 334.46304 204.8572 333.9423 204.9898 333.42783 L 209.61806 315.47017 C 209.73316 315.0236 209.8675 314.5822 210.02073 314.14725 L 215.74152 297.9076 C 215.9076 297.43613 216.0957 296.9727 216.30517 296.51883 L 221.83673 284.5338 C 221.93942 284.3113 222.0472 284.0912 222.16 283.87364 L 227.52223 273.53222 C 227.56793 273.44407 227.61446 273.35636 227.6618 273.26908 L 232.87777 263.65212 C 233.61505 262.29276 234.56468 261.05987 235.69079 260 L 235.69079 260 C 236.36598 259.36453 236.39817 258.30203 235.7627 257.62684 C 235.6382 257.49456 235.49307 257.38337 235.33295 257.2976 L 232.1188 255.57573 C 231.90016 255.4586 231.6788 255.34656 231.45494 255.2397 L 223.60097 251.49122 C 223.19436 251.29716 222.77974 251.12036 222.3582 250.9613 L 212.68338 247.3104 C 212.48833 247.2368 212.29187 247.16703 212.0941 247.1011 L 199.39963 242.86962 C 199.2604 242.8232 199.12055 242.77872 198.9801 242.73616 L 186.09658 238.83206 C 186.02605 238.8107 185.95567 238.78883 185.88544 238.76648 L 173.38144 234.78794 C 172.98782 234.6627 172.5992 234.52225 172.21643 234.36693 L 160.24049 229.50713 C 159.40883 229.16964 158.60704 228.76277 157.8436 228.29083 L 148.22436 222.3444 C 148.06865 222.24814 147.91461 222.14922 147.7623 222.04768 L 142.8722 218.78762 C 141.89081 218.13335 141.0195 217.32745 140.29078 216.4 L 140.29078 216.4 C 140.18518 216.2656 139.99062 216.24225 139.85621 216.34785 C 139.75347 216.42858 139.7125 216.56513 139.75381 216.68908 L 139.89078 217.1 C 140.35003 218.47775 140.4546 219.94904 140.1948 221.3779 L 139.79967 223.55115 C 139.52845 225.0428 139.04661 226.48835 138.36858 227.8444 L 136.83626 230.90904 C 136.53956 231.50244 136.20624 232.0768 135.83823 232.62883 L 132.63453 237.43438 C 132.20593 238.07728 131.73132 238.6883 131.21443 239.26261 L 126.65238 244.33156 C 126.61132 244.37719 126.56999 244.42258 126.5284 244.46773 L 120.53417 250.97576 C 119.90643 251.6573 119.22068 252.28302 118.48465 252.84587 L 113.46047 256.6879 C 113.01432 257.02906 112.55052 257.3465 112.07099 257.6389 L 105.58458 261.59403 C 104.92292 261.99748 104.23283 262.35232 103.51975 262.65576 L 96.40434 265.6836 C 95.59667 266.02728 94.76209 266.30393 93.90905 266.51072 L 89.82999 267.4996 C 89.00516 267.69955 88.16573 267.83356 87.31963 267.90035 L 81.61943 268.35037 C 81.20049 268.38344 80.78042 268.4 80.36019 268.4 L 73.32787 268.4 C 72.57077 268.4 71.81462 268.34626 71.06513 268.2392 L 63.11868 267.104 C 62.63367 267.0347 62.1521 266.94317 61.67549 266.8297 L 55.714264 265.41035 C 54.56878 265.13762 53.4569 264.73927 52.39883 264.22253 L 46.118824 261.15556 C 45.633774 260.91867 45.16102 260.6574 44.702383 260.37272 L 40.49052 257.75846 C 39.89135 257.38656 39.317424 256.97546 38.772495 256.52784 L 34.32639 252.87568 C 34.102693 252.69193 33.884024 252.50214 33.670626 252.30652 L 29.868283 248.82104 C 29.416988 248.40736 28.98981 247.9681 28.588852 247.50546 L 24.470106 242.75307 C 24.150724 242.38455 23.848357 242.00162 23.563952 241.6055 L 19.134297 235.4356 C 18.639405 234.7463 18.200134 234.0187 17.820642 233.25972 L 15.244178 228.1068 C 15.208582 228.0356 15.173517 227.96414 15.138986 227.89242 L 13.890782 225.3 C 13.040068 223.53313 12.684547 221.5686 12.862088 219.61564 L 13.042293 217.63339 C 13.066098 217.37152 12.873116 217.13994 12.611253 217.11614 C 12.448858 217.10138 12.290205 217.17075 12.190782 217.3 L 12.190782 217.3 C 11.527336 218.16248 10.747228 218.92856 9.872851 219.57625 L 5.976317 222.46257 C 5.852634 222.55418 5.7276346 222.644 5.601359 222.73202 L .9791086 225.9536 C -.2076275 226.7807 -1.5010482 227.44308 -2.865798 227.92258 L -7.472924 229.5413 C -7.963495 229.71367 -8.445372 229.90984 -8.91684 230.12913 L -15.763621 233.31368 C -16.459783 233.63747 -17.178348 233.91074 -17.913747 234.13136 L -28.784136 237.39248 C -28.800857 237.3975 -28.81757 237.40254 -28.834276 237.4076 L -39.802363 240.7372 C -39.94026 240.77907 -40.077586 240.8228 -40.2143 240.86836 L -53.135536 245.17544 C -53.18466 245.1918 -53.23386 245.20795 -53.283136 245.22384 L -64.65054 248.89075 C -65.28903 249.0967 -65.91393 249.34263 -66.52154 249.62704 L -74.453505 253.33988 C -74.823845 253.51323 -75.1874 253.7007 -75.54338 253.90192 L -81.48949 257.26276 C -82.74253 257.971 -83.18417 259.56093 -82.47594 260.81396 C -82.39882 260.9504 -82.30955 261.0796 -82.20922 261.2 L -81.34511 262.23693 C -80.59016 263.14287 -79.93769 264.1295 -79.39957 265.17882 L -76.32243 271.17924 C -76.24696 271.3264 -76.16921 271.4724 -76.08922 271.61715 L -72.13446 278.77337 C -72.05097 278.92445 -71.96993 279.07687 -71.89137 279.23057 L -67.78307 287.26856 C -67.534 287.75587 -67.3101 288.25563 -67.11224 288.7659 L -63.62947 297.74776 C -63.61597 297.7826 -63.602345 297.81737 -63.5886 297.8521 L -59.992276 306.93754 C -59.87027 307.24577 -59.75787 307.55772 -59.65524 307.87294 L -57.033404 315.9257 C -57.01728 315.97524 -57.0014 316.02484 -56.98576 316.07452 L -53.91371 325.8328 C -53.71092 326.47695 -53.549114 327.1333 -53.42927 327.7979 L -51.443955 338.80737 C -51.4208 338.9358 -51.399213 339.0645 -51.379205 339.19342 L -49.673335 350.1868 C -49.6306 350.46222 -49.595065 350.7387 -49.56677 351.016 L -48.67935 359.7127 C -48.63262 360.1707 -48.60567 360.6305 -48.59859 361.0908 L -48.41435 373.0664 C -48.41093 373.2888 -48.40287 373.51105 -48.390185 373.7331 L -47.61981 387.21465 C -47.61275 387.3382 -47.604255 387.4617 -47.59433 387.58506 L -46.26076 404.15943 C -46.22641 404.5863 -46.20922 405.0144 -46.20922 405.44264 L -46.20922 417.8924 C -46.20922 418.09746 -46.20528 418.30247 -46.197397 418.50735 L -45.617046 433.5965 C -45.61183 433.73216 -45.608337 433.8679 -45.606574 434.00365 L -45.414415 448.7999 C -45.41095 449.0666 -45.414157 449.33333 -45.42403 449.59986 L -45.998256 465.104 C -46.005564 465.3013 -46.00922 465.49875 -46.00922 465.6962 L -46.00922 479.2924 C -46.00922 479.49746 -46.01316 479.7025 -46.02104 479.90736 L -46.60623 495.12236 C -46.608223 495.1741 -46.610465 495.2259 -46.61296 495.2776 L -47.40828 511.78055 C -47.408906 511.7935 -47.409547 511.8065 -47.410203 511.81945 L -48.20469 527.5106 C -48.20771 527.5702 -48.21106 527.6298 -48.214744 527.68933 L -49.403655 546.91007 C -49.407364 546.97 -49.41141 547.02996 -49.415794 547.0899 L -51.19893 571.4594 C -51.20579 571.55314 -51.21347 571.6468 -51.22198 571.7404 L -53.00787 591.3852 C -53.00877 591.3951 -53.009676 591.40494 -53.01059 591.4148 L -54.78136 610.4997 C -54.79993 610.6999 -54.822274 610.8997 -54.848377 611.099 L -56.80909 626.07175 C -56.9419 627.08594 -57.21104 628.07756 -57.60922 629.0197 L -57.60922 629.0197 C -58.006794 629.9605 -58.25546 630.9574 -58.346286 631.97465 L -59.10922 640.5197 C -59.616975 646.20676 -55.65851 651.3251 -50.026545 652.2638 Z" stroke="#7f8080" stroke-linecap="round" stroke-linejoin="round" stroke-width="1"/>
      </g>
      <g id="Graphic_33">
        <path d="M -139 366.44615 L -132.8 370.84615 L -124.6 374.84615 L -116 378.44615 L -107 382.24615 L -96 386.24615 L -86.6 389.04615 L -77.6 391.64615 L -68.6 394.24615 L -63.2 395.64615 L -57.6 396.64615 L -55.2 390.84615 L -52.6 385.44615 L -50.4 381.44615 L -47.8 378.04615 L -47.6 369.04615 L -48.2 358.04615 L -50 347.24615 L -51.6 336.84615 L -54.2 325.84614 L -56.6 316.24614 L -59.4 308.24614 L -62.6 298.84614 L -65.4 291.44614 L -69 283.84614 L -73 276.24614 L -77 268.84614 L -79.6 265.24614 L -83.2 259.44614 L -88.6 263.84614 L -93.4 268.64614 L -98 274.84614 L -102.4 281.04614 L -107.2 289.64614 L -112 299.04614 L -116.8 308.24614 L -120.4 316.84614 L -124.4 325.84614 L -127.6 334.04615 L -131.4 343.44615 L -134.2 351.44615 L -137.2 359.84615 Z" fill="#00ab00"/>
        <path d="M -139 366.44615 L -132.8 370.84615 L -124.6 374.84615 L -116 378.44615 L -107 382.24615 L -96 386.24615 L -86.6 389.04615 L -77.6 391.64615 L -68.6 394.24615 L -63.2 395.64615 L -57.6 396.64615 L -55.2 390.84615 L -52.6 385.44615 L -50.4 381.44615 L -47.8 378.04615 L -47.6 369.04615 L -48.2 358.04615 L -50 347.24615 L -51.6 336.84615 L -54.2 325.84614 L -56.6 316.24614 L -59.4 308.24614 L -62.6 298.84614 L -65.4 291.44614 L -69 283.84614 L -73 276.24614 L -77 268.84614 L -79.6 265.24614 L -83.2 259.44614 L -88.6 263.84614 L -93.4 268.64614 L -98 274.84614 L -102.4 281.04614 L -107.2 289.64614 L -112 299.04614 L -116.8 308.24614 L -120.4 316.84614 L -124.4 325.84614 L -127.6 334.04615 L -131.4 343.44615 L -134.2 351.44615 L -137.2 359.84615 Z" stroke="#7f8080" stroke-linecap="round" stroke-linejoin="round" stroke-width="1"/>
      </g>
      <g id="Graphic_32">
        <path d="M 292.4053 365.50275 L 286.2053 369.90275 L 278.0053 373.90275 L 269.4053 377.50275 L 260.4053 381.30275 L 249.4053 385.30275 L 240.0053 388.10275 L 231.0053 390.70275 L 222.0053 393.30275 L 216.6053 394.70275 L 211.0053 395.70275 L 208.6053 389.90275 L 206.0053 384.50275 L 203.8053 380.50275 L 201.2053 377.10275 L 201.0053 368.10275 L 201.6053 357.10275 L 203.4053 346.30275 L 205.0053 335.90275 L 207.6053 324.90275 L 210.0053 315.30275 L 212.8053 307.30275 L 216.0053 297.90275 L 218.8053 290.50275 L 222.4053 282.90275 L 226.4053 275.30275 L 230.4053 267.90275 L 233.0053 264.30275 L 236.6053 258.50275 L 242.0053 262.90275 L 246.8053 267.70275 L 251.4053 273.90275 L 255.8053 280.10275 L 260.6053 288.70275 L 265.4053 298.10275 L 270.2053 307.30275 L 273.8053 315.90275 L 277.8053 324.90275 L 281.0053 333.10275 L 284.8053 342.50275 L 287.6053 350.50275 L 290.6053 358.90275 Z" fill="#00ab00"/>
        <path d="M 292.4053 365.50275 L 286.2053 369.90275 L 278.0053 373.90275 L 269.4053 377.50275 L 260.4053 381.30275 L 249.4053 385.30275 L 240.0053 388.10275 L 231.0053 390.70275 L 222.0053 393.30275 L 216.6053 394.70275 L 211.0053 395.70275 L 208.6053 389.90275 L 206.0053 384.50275 L 203.8053 380.50275 L 201.2053 377.10275 L 201.0053 368.10275 L 201.6053 357.10275 L 203.4053 346.30275 L 205.0053 335.90275 L 207.6053 324.90275 L 210.0053 315.30275 L 212.8053 307.30275 L 216.0053 297.90275 L 218.8053 290.50275 L 222.4053 282.90275 L 226.4053 275.30275 L 230.4053 267.90275 L 233.0053 264.30275 L 236.6053 258.50275 L 242.0053 262.90275 L 246.8053 267.70275 L 251.4053 273.90275 L 255.8053 280.10275 L 260.6053 288.70275 L 265.4053 298.10275 L 270.2053 307.30275 L 273.8053 315.90275 L 277.8053 324.90275 L 281.0053 333.10275 L 284.8053 342.50275 L 287.6053 350.50275 L 290.6053 358.90275 Z" stroke="#7f8080" stroke-linecap="round" stroke-linejoin="round" stroke-width="2"/>
      </g>
      <g id="Graphic_31">
        <path d="M -139 366.44615 L -132.8 370.84615 L -124.6 374.84615 L -116 378.44615 L -107 382.24615 L -96 386.24615 L -86.6 389.04615 L -77.6 391.64615 L -68.6 394.24615 L -63.2 395.64615 L -57.6 396.64615 L -54.6 390.24615 L -58.4 389.44615 L -63.2 388.24615 L -68.8 387.04615 L -74.8 385.24615 L -79.4 383.84615 L -83.6 382.64615 L -88.2 380.64615 L -92.8 379.04615 L -97.6 377.04615 L -101.6 375.64615 L -106.8 373.44615 L -111.4 371.84615 L -116.2 369.64615 L -121 367.84615 L -125 365.84615 L -129.4 363.64615 L -133.8 361.44615 L -137.2 359.84615 Z" fill="#00ab00"/>
        <path d="M -139 366.44615 L -132.8 370.84615 L -124.6 374.84615 L -116 378.44615 L -107 382.24615 L -96 386.24615 L -86.6 389.04615 L -77.6 391.64615 L -68.6 394.24615 L -63.2 395.64615 L -57.6 396.64615 L -54.6 390.24615 L -58.4 389.44615 L -63.2 388.24615 L -68.8 387.04615 L -74.8 385.24615 L -79.4 383.84615 L -83.6 382.64615 L -88.2 380.64615 L -92.8 379.04615 L -97.6 377.04615 L -101.6 375.64615 L -106.8 373.44615 L -111.4 371.84615 L -116.2 369.64615 L -121 367.84615 L -125 365.84615 L -129.4 363.64615 L -133.8 361.44615 L -137.2 359.84615 Z" stroke="#7f8080" stroke-linecap="round" stroke-linejoin="round" stroke-width="1"/>
      </g>
      <g id="Graphic_30">
        <path d="M 292.4053 365.50275 L 286.2053 369.90275 L 278.0053 373.90275 L 269.4053 377.50275 L 260.4053 381.30275 L 249.4053 385.30275 L 240.0053 388.10275 L 231.0053 390.70275 L 222.0053 393.30275 L 216.6053 394.70275 L 211.0053 395.70275 L 208.0053 389.30275 L 211.8053 388.50275 L 216.6053 387.30275 L 222.2053 386.10275 L 228.2053 384.30275 L 232.8053 382.90275 L 237.0053 381.70275 L 241.6053 379.70275 L 246.2053 378.10275 L 251.0053 376.10275 L 255.0053 374.70275 L 260.2053 372.50275 L 264.8053 370.90275 L 269.6053 368.70275 L 274.4053 366.90275 L 278.4053 364.90275 L 282.8053 362.70275 L 287.2053 360.50275 L 290.6053 358.90275 Z" fill="#00ab00"/>
        <path d="M 292.4053 365.50275 L 286.2053 369.90275 L 278.0053 373.90275 L 269.4053 377.50275 L 260.4053 381.30275 L 249.4053 385.30275 L 240.0053 388.10275 L 231.0053 390.70275 L 222.0053 393.30275 L 216.6053 394.70275 L 211.0053 395.70275 L 208.0053 389.30275 L 211.8053 388.50275 L 216.6053 387.30275 L 222.2053 386.10275 L 228.2053 384.30275 L 232.8053 382.90275 L 237.0053 381.70275 L 241.6053 379.70275 L 246.2053 378.10275 L 251.0053 376.10275 L 255.0053 374.70275 L 260.2053 372.50275 L 264.8053 370.90275 L 269.6053 368.70275 L 274.4053 366.90275 L 278.4053 364.90275 L 282.8053 362.70275 L 287.2053 360.50275 L 290.6053 358.90275 Z" stroke="#7f8080" stroke-linecap="round" stroke-linejoin="round" stroke-width="1"/>
      </g>
      <g id="Graphic_29">
        <path d="M 11.572121 216.9638 L 6.8429506 221.01736 C 5.692603 222.00338 4.447643 222.8733 3.1262133 223.61448 L .5995778 225.03165 C -.835594 225.83662 -1.416397 227.60575 -.7376112 229.10473 L .28000562 231.35197 C .40158463 231.62046 .52831316 231.88658 .660121 232.1502 L 4.949377 240.7287 C 5.291174 241.4123 5.666832 242.07843 6.0749524 242.72463 L 8.401344 246.40808 C 8.84172 247.10535 9.31928 247.77842 9.831953 248.4244 L 13.242638 252.72185 C 13.788692 253.40987 14.373712 254.06606 14.994822 254.68717 L 19.660865 259.3532 C 20.061745 259.7541 20.47731 260.14 20.90671 260.51018 L 25.470235 264.44426 C 25.864892 264.78448 26.270997 265.1112 26.687846 265.42383 L 30.662786 268.40503 C 31.3287 268.90447 32.021233 269.36738 32.73733 269.79174 L 36.870394 272.24096 C 36.99839 272.3168 37.127117 272.3914 37.25656 272.46477 L 41.954107 275.1267 C 42.6924 275.54507 43.453276 275.92226 44.23325 276.25653 L 47.78307 277.77788 C 48.36903 278.029 48.96518 278.25567 49.569974 278.45726 L 54.58808 280.12997 C 55.835325 280.5457 57.11592 280.85376 58.415795 281.0507 L 62.51464 281.67174 C 62.879756 281.72706 63.24615 281.77358 63.6135 281.81126 L 70.494605 282.517 C 70.73978 282.54216 70.985344 282.56336 71.2312 282.58062 L 75.75835 282.8983 C 76.29421 282.9359 76.83122 282.95473 77.368405 282.95473 L 80.63046 282.95474 C 81.58416 282.95474 82.53693 282.89542 83.48327 282.77713 L 87.47198 282.27854 C 88.13195 282.19604 88.78802 282.08496 89.43835 281.9456 L 95.52039 280.6423 C 96.41426 280.45076 97.29592 280.2061 98.16068 279.9096 L 102.66952 278.36372 C 103.46417 278.09127 104.2433 277.7755 105.0034 277.4178 L 109.83677 275.14326 C 110.38697 274.88435 110.92668 274.6037 111.45464 274.30202 L 115.2225 272.14896 C 115.9153 271.75308 116.58701 271.3214 117.23494 270.85572 L 121.91106 267.49475 C 122.41175 267.1349 122.89776 266.75503 123.36792 266.3561 L 128.68877 261.84144 C 129.07108 261.51706 129.44269 261.18026 129.80298 260.83158 L 134.5022 256.28396 C 135.14179 255.665 135.74491 255.00944 136.30852 254.32058 L 140.1018 249.68434 C 140.60852 249.06503 141.08257 248.4197 141.52201 247.75096 L 145.1392 242.24656 C 145.35462 241.91873 145.56163 241.58544 145.76002 241.24702 L 148.28311 236.94292 C 148.66906 236.28454 149.022 235.60735 149.34062 234.91388 L 151.45932 230.3026 C 151.99218 229.14285 152.36334 227.91544 152.5624 226.65474 L 152.5624 226.65474 C 152.7407 225.52547 152.1614 224.41203 151.13432 223.9099 L 145.84088 221.322 C 144.52642 220.67937 143.29183 219.88486 142.1624 218.95474 L 141.75638 218.62037 C 140.91205 217.92504 140.28864 216.99874 139.9624 215.95474 L 139.9624 215.95474 C 139.91573 215.80542 139.75686 215.7222 139.60754 215.76886 C 139.49247 215.80482 139.41277 215.90969 139.40892 216.0302 L 139.29968 219.4531 C 139.20894 222.29619 138.5916 225.09776 137.479 227.71567 L 136.60206 229.77904 C 136.0435 231.09331 135.36374 232.3527 134.5716 233.5409 L 130.88582 239.06958 C 130.13831 240.19085 129.2937 241.24425 128.36175 242.21762 L 122.06668 248.79247 C 121.19861 249.69913 120.25777 250.5332 119.2536 251.28633 L 110.8787 257.5675 C 110.00228 258.22482 109.08002 258.81867 108.11896 259.34454 L 100.93376 263.27606 C 99.62263 263.99347 98.2447 264.58137 96.81952 265.03143 L 90.14661 267.13867 C 88.42973 267.68084 86.65514 268.01954 84.85927 268.1478 L 77.972815 268.6397 C 76.90052 268.7163 75.82417 268.71762 74.751685 268.64365 L 66.31543 268.06184 C 65.28125 267.99052 64.25308 267.84936 63.23795 267.63933 L 56.10274 266.16308 C 54.15079 265.75923 52.259614 265.10335 50.47676 264.21192 L 45.81735 261.8822 C 44.58321 261.26515 43.407106 260.53827 42.30326 259.7104 L 36.621303 255.44892 C 36.182167 255.11957 35.754962 254.7746 35.34051 254.41468 L 29.58533 249.41676 C 28.771043 248.70962 28.007503 247.94608 27.30036 247.1318 L 22.895135 242.0591 C 22.141032 241.19075 21.453124 240.26705 20.8372 239.29578 L 17.103497 233.40802 C 16.742931 232.83944 16.407505 232.2553 16.098188 231.65728 L 14.477815 228.52456 C 13.86867 227.34688 13.362502 226.11874 12.964965 224.85385 L 11.684726 220.78036 C 11.469951 220.09698 11.287218 219.40395 11.137126 218.70351 L 10.911709 217.65157 C 10.826635 217.25456 11.052993 216.8569 11.437797 216.72737 L 11.437797 216.72737 C 11.510292 216.70296 11.588844 216.74195 11.613249 216.81444 C 11.631263 216.86795 11.61499 216.92704 11.572121 216.9638 Z" fill="#00ab00"/>
        <path d="M 11.572121 216.9638 L 6.8429506 221.01736 C 5.692603 222.00338 4.447643 222.8733 3.1262133 223.61448 L .5995778 225.03165 C -.835594 225.83662 -1.416397 227.60575 -.7376112 229.10473 L .28000562 231.35197 C .40158463 231.62046 .52831316 231.88658 .660121 232.1502 L 4.949377 240.7287 C 5.291174 241.4123 5.666832 242.07843 6.0749524 242.72463 L 8.401344 246.40808 C 8.84172 247.10535 9.31928 247.77842 9.831953 248.4244 L 13.242638 252.72185 C 13.788692 253.40987 14.373712 254.06606 14.994822 254.68717 L 19.660865 259.3532 C 20.061745 259.7541 20.47731 260.14 20.90671 260.51018 L 25.470235 264.44426 C 25.864892 264.78448 26.270997 265.1112 26.687846 265.42383 L 30.662786 268.40503 C 31.3287 268.90447 32.021233 269.36738 32.73733 269.79174 L 36.870394 272.24096 C 36.99839 272.3168 37.127117 272.3914 37.25656 272.46477 L 41.954107 275.1267 C 42.6924 275.54507 43.453276 275.92226 44.23325 276.25653 L 47.78307 277.77788 C 48.36903 278.029 48.96518 278.25567 49.569974 278.45726 L 54.58808 280.12997 C 55.835325 280.5457 57.11592 280.85376 58.415795 281.0507 L 62.51464 281.67174 C 62.879756 281.72706 63.24615 281.77358 63.6135 281.81126 L 70.494605 282.517 C 70.73978 282.54216 70.985344 282.56336 71.2312 282.58062 L 75.75835 282.8983 C 76.29421 282.9359 76.83122 282.95473 77.368405 282.95473 L 80.63046 282.95474 C 81.58416 282.95474 82.53693 282.89542 83.48327 282.77713 L 87.47198 282.27854 C 88.13195 282.19604 88.78802 282.08496 89.43835 281.9456 L 95.52039 280.6423 C 96.41426 280.45076 97.29592 280.2061 98.16068 279.9096 L 102.66952 278.36372 C 103.46417 278.09127 104.2433 277.7755 105.0034 277.4178 L 109.83677 275.14326 C 110.38697 274.88435 110.92668 274.6037 111.45464 274.30202 L 115.2225 272.14896 C 115.9153 271.75308 116.58701 271.3214 117.23494 270.85572 L 121.91106 267.49475 C 122.41175 267.1349 122.89776 266.75503 123.36792 266.3561 L 128.68877 261.84144 C 129.07108 261.51706 129.44269 261.18026 129.80298 260.83158 L 134.5022 256.28396 C 135.14179 255.665 135.74491 255.00944 136.30852 254.32058 L 140.1018 249.68434 C 140.60852 249.06503 141.08257 248.4197 141.52201 247.75096 L 145.1392 242.24656 C 145.35462 241.91873 145.56163 241.58544 145.76002 241.24702 L 148.28311 236.94292 C 148.66906 236.28454 149.022 235.60735 149.34062 234.91388 L 151.45932 230.3026 C 151.99218 229.14285 152.36334 227.91544 152.5624 226.65474 L 152.5624 226.65474 C 152.7407 225.52547 152.1614 224.41203 151.13432 223.9099 L 145.84088 221.322 C 144.52642 220.67937 143.29183 219.88486 142.1624 218.95474 L 141.75638 218.62037 C 140.91205 217.92504 140.28864 216.99874 139.9624 215.95474 L 139.9624 215.95474 C 139.91573 215.80542 139.75686 215.7222 139.60754 215.76886 C 139.49247 215.80482 139.41277 215.90969 139.40892 216.0302 L 139.29968 219.4531 C 139.20894 222.29619 138.5916 225.09776 137.479 227.71567 L 136.60206 229.77904 C 136.0435 231.09331 135.36374 232.3527 134.5716 233.5409 L 130.88582 239.06958 C 130.13831 240.19085 129.2937 241.24425 128.36175 242.21762 L 122.06668 248.79247 C 121.19861 249.69913 120.25777 250.5332 119.2536 251.28633 L 110.8787 257.5675 C 110.00228 258.22482 109.08002 258.81867 108.11896 259.34454 L 100.93376 263.27606 C 99.62263 263.99347 98.2447 264.58137 96.81952 265.03143 L 90.14661 267.13867 C 88.42973 267.68084 86.65514 268.01954 84.85927 268.1478 L 77.972815 268.6397 C 76.90052 268.7163 75.82417 268.71762 74.751685 268.64365 L 66.31543 268.06184 C 65.28125 267.99052 64.25308 267.84936 63.23795 267.63933 L 56.10274 266.16308 C 54.15079 265.75923 52.259614 265.10335 50.47676 264.21192 L 45.81735 261.8822 C 44.58321 261.26515 43.407106 260.53827 42.30326 259.7104 L 36.621303 255.44892 C 36.182167 255.11957 35.754962 254.7746 35.34051 254.41468 L 29.58533 249.41676 C 28.771043 248.70962 28.007503 247.94608 27.30036 247.1318 L 22.895135 242.0591 C 22.141032 241.19075 21.453124 240.26705 20.8372 239.29578 L 17.103497 233.40802 C 16.742931 232.83944 16.407505 232.2553 16.098188 231.65728 L 14.477815 228.52456 C 13.86867 227.34688 13.362502 226.11874 12.964965 224.85385 L 11.684726 220.78036 C 11.469951 220.09698 11.287218 219.40395 11.137126 218.70351 L 10.911709 217.65157 C 10.826635 217.25456 11.052993 216.8569 11.437797 216.72737 L 11.437797 216.72737 C 11.510292 216.70296 11.588844 216.74195 11.613249 216.81444 C 11.631263 216.86795 11.61499 216.92704 11.572121 216.9638 Z" stroke="#7f8080" stroke-linecap="round" stroke-linejoin="round" stroke-width="1"/>
      </g>
      <g id="Graphic_28">
        <path d="M 11.059248 216.7559 L 16.459248 216.1559 L 23.259248 219.5559 L 28.259248 221.3559 L 36.65925 223.1559 L 45.05925 224.1559 L 53.05925 225.1559 L 60.65925 225.3559 L 69.25925 225.7559 L 80.85925 225.5559 L 89.25925 225.1559 L 98.65925 224.5559 L 107.05925 223.7559 L 116.25925 222.3559 L 124.45925 220.1559 L 130.25925 218.3559 L 135.85925 215.7559 L 138.65925 216.9559 L 139.05925 222.5559 L 136.25925 230.5559 L 130.85925 233.3559 L 120.25925 236.5559 L 108.85925 238.9559 L 97.65925 239.7559 L 85.25925 240.7559 L 74.85925 240.7559 L 65.45925 240.7559 L 53.85925 240.1559 L 42.65925 239.3559 L 32.059248 237.1559 L 23.459248 235.1559 L 17.259248 232.3559 L 15.259248 230.7559 L 12.059248 223.1559 Z" fill="#00ab00"/>
        <path d="M 11.059248 216.7559 L 16.459248 216.1559 L 23.259248 219.5559 L 28.259248 221.3559 L 36.65925 223.1559 L 45.05925 224.1559 L 53.05925 225.1559 L 60.65925 225.3559 L 69.25925 225.7559 L 80.85925 225.5559 L 89.25925 225.1559 L 98.65925 224.5559 L 107.05925 223.7559 L 116.25925 222.3559 L 124.45925 220.1559 L 130.25925 218.3559 L 135.85925 215.7559 L 138.65925 216.9559 L 139.05925 222.5559 L 136.25925 230.5559 L 130.85925 233.3559 L 120.25925 236.5559 L 108.85925 238.9559 L 97.65925 239.7559 L 85.25925 240.7559 L 74.85925 240.7559 L 65.45925 240.7559 L 53.85925 240.1559 L 42.65925 239.3559 L 32.059248 237.1559 L 23.459248 235.1559 L 17.259248 232.3559 L 15.259248 230.7559 L 12.059248 223.1559 Z" stroke="#7f8080" stroke-linecap="round" stroke-linejoin="round" stroke-width="1"/>
      </g>
      <g id="Graphic_27">
        <path d="M -59.18679 642.2 L -59.18679 642.2 C -59.25247 642.7255 -59.189645 643.25905 -59.0037 643.7549 L -58.352694 645.4909 C -58.17594 645.9623 -57.94885 646.4132 -57.67538 646.8358 L -56.707566 648.3315 C -56.16661 649.16756 -55.453506 649.87855 -54.61588 650.417 L -53.53783 651.11005 C -53.237574 651.3031 -52.922994 651.47285 -52.59684 651.6179 L -51.27999 652.2035 C -50.68346 652.46876 -50.052754 652.6493 -49.40621 652.7398 L -40.395787 654.00126 C -40.385793 654.00265 -40.375797 654.004 -40.365797 654.0054 L -28.6498 655.594 C -28.603798 655.6002 -28.557737 655.606 -28.51162 655.6113 L -18.228685 656.7978 C -18.19676 656.8015 -18.164809 656.805 -18.132835 656.8082 L -4.422769 658.1991 C -4.3947873 658.2019 -4.3667884 658.2046 -4.3387743 658.2071 L 6.766526 659.19865 C 6.801644 659.2018 6.836786 659.20466 6.871948 659.2073 L 17.558485 659.99886 C 17.598964 660.00185 17.639468 660.0045 17.679993 660.0068 L 28.187976 660.6016 C 28.208795 660.6028 28.22961 660.604 28.250416 660.6054 L 40.293193 661.3951 C 40.377194 661.4006 40.461288 661.4046 40.545432 661.4071 L 53.99256 661.8026 C 54.01032 661.8031 54.028085 661.8037 54.045846 661.80434 L 64.68971 662.19856 C 64.77603 662.20176 64.86241 662.20335 64.94879 662.20335 L 75.55781 662.20335 C 75.59874 662.20335 75.63967 662.2037 75.680595 662.2044 L 86.76702 662.3989 C 86.93509 662.4019 87.10321 662.3988 87.27106 662.3896 L 97.89229 661.8103 C 97.97689 661.8057 98.06157 661.8026 98.14629 661.80104 L 108.91085 661.6053 C 108.98308 661.604 109.05529 661.6016 109.12745 661.598 L 121.14607 661.00695 C 121.19483 661.00455 121.24355 661.00165 121.29225 660.9982 L 132.5323 660.20945 C 132.59023 660.2054 132.64812 660.2006 132.70594 660.1951 L 145.11651 659.0131 C 145.18497 659.0066 145.25352 659.0011 145.32214 658.9966 L 157.25416 658.2142 C 157.36418 658.207 157.474 658.19715 157.58355 658.18475 L 167.9959 657.006 C 168.01144 657.0042 168.02697 657.0024 168.0425 657.00056 L 177.9902 655.8068 C 178.00954 655.8045 178.02886 655.8021 178.04818 655.7996 L 191.88394 654.0221 C 191.98115 654.0096 192.0781 653.9951 192.1747 653.9785 L 198.72819 652.85506 C 198.92915 652.8206 199.13153 652.79495 199.33473 652.7782 L 202.56706 652.5112 C 203.4563 652.43775 204.3233 652.195 205.12135 651.79594 L 206.60765 651.0528 C 207.20824 650.7525 207.7625 650.36735 208.25338 649.9092 L 209.5885 648.6631 C 210.19532 648.0967 210.65073 647.3875 210.91322 646.6 L 211.20805 645.7155 C 211.27812 645.5053 211.33817 645.2919 211.388 645.07595 L 211.8577 643.04056 C 211.89293 642.8879 211.8595 642.7275 211.7662 642.6017 L 211.7662 642.6017 C 211.67587 642.4798 211.52523 642.4183 211.3754 642.44214 L 202.89555 643.7912 C 202.84466 643.7993 202.79385 643.808 202.74315 643.8172 L 189.7584 646.17805 C 189.6656 646.1949 189.5725 646.2099 189.47911 646.223 L 178.24943 647.7991 C 178.22928 647.80194 178.20914 647.80486 178.18902 647.80786 L 165.06643 649.76645 C 164.90167 649.79105 164.73608 649.80975 164.56998 649.8225 L 151.84517 650.80136 C 151.82786 650.8027 151.81055 650.80396 151.79323 650.80516 L 137.45308 651.801 C 137.4305 651.8026 137.4079 651.804 137.3853 651.8054 L 124.08205 652.5996 C 124.04016 652.6021 123.99824 652.6042 123.9563 652.606 L 109.76485 653.1973 C 109.66776 653.2013 109.5706 653.20335 109.47344 653.20335 L 83.67753 653.20335 C 83.63865 653.20335 83.59976 653.2037 83.56088 653.2043 L 71.8025 653.4003 C 71.68032 653.4023 71.55812 653.4012 71.436005 653.3968 L 60.602405 653.0099 C 60.48029 653.0055 60.35809 653.0044 60.235914 653.0064 L 48.521274 653.20165 C 48.45323 653.2028 48.385176 653.2029 48.31713 653.2021 L 32.614845 653.0058 C 32.484443 653.0042 32.354113 652.9989 32.224007 652.99 L 17.914229 652.0099 C 17.850882 652.0055 17.787597 652.0003 17.724392 651.9943 L 3.233386 650.6047 C 3.2239315 650.6038 3.2144788 650.6029 3.205028 650.6019 L -10.607008 649.2207 C -10.722849 649.20915 -10.838382 649.1947 -10.953501 649.1773 L -25.262653 647.02116 C -25.34141 647.0093 -25.420363 646.9988 -25.49948 646.9896 L -39.01941 645.4221 C -39.126987 645.4096 -39.23426 645.3946 -39.34114 645.3772 L -48.73323 643.8438 C -48.89822 643.8168 -49.062195 643.784 -49.224836 643.7453 L -58.302435 641.58654 C -58.690754 641.4942 -59.08041 641.7341 -59.17276 642.12244 C -59.17884 642.148 -59.183525 642.1739 -59.18679 642.2 Z" fill="#00ab00"/>
        <path d="M -59.18679 642.2 L -59.18679 642.2 C -59.25247 642.7255 -59.189645 643.25905 -59.0037 643.7549 L -58.352694 645.4909 C -58.17594 645.9623 -57.94885 646.4132 -57.67538 646.8358 L -56.707566 648.3315 C -56.16661 649.16756 -55.453506 649.87855 -54.61588 650.417 L -53.53783 651.11005 C -53.237574 651.3031 -52.922994 651.47285 -52.59684 651.6179 L -51.27999 652.2035 C -50.68346 652.46876 -50.052754 652.6493 -49.40621 652.7398 L -40.395787 654.00126 C -40.385793 654.00265 -40.375797 654.004 -40.365797 654.0054 L -28.6498 655.594 C -28.603798 655.6002 -28.557737 655.606 -28.51162 655.6113 L -18.228685 656.7978 C -18.19676 656.8015 -18.164809 656.805 -18.132835 656.8082 L -4.422769 658.1991 C -4.3947873 658.2019 -4.3667884 658.2046 -4.3387743 658.2071 L 6.766526 659.19865 C 6.801644 659.2018 6.836786 659.20466 6.871948 659.2073 L 17.558485 659.99886 C 17.598964 660.00185 17.639468 660.0045 17.679993 660.0068 L 28.187976 660.6016 C 28.208795 660.6028 28.22961 660.604 28.250416 660.6054 L 40.293193 661.3951 C 40.377194 661.4006 40.461288 661.4046 40.545432 661.4071 L 53.99256 661.8026 C 54.01032 661.8031 54.028085 661.8037 54.045846 661.80434 L 64.68971 662.19856 C 64.77603 662.20176 64.86241 662.20335 64.94879 662.20335 L 75.55781 662.20335 C 75.59874 662.20335 75.63967 662.2037 75.680595 662.2044 L 86.76702 662.3989 C 86.93509 662.4019 87.10321 662.3988 87.27106 662.3896 L 97.89229 661.8103 C 97.97689 661.8057 98.06157 661.8026 98.14629 661.80104 L 108.91085 661.6053 C 108.98308 661.604 109.05529 661.6016 109.12745 661.598 L 121.14607 661.00695 C 121.19483 661.00455 121.24355 661.00165 121.29225 660.9982 L 132.5323 660.20945 C 132.59023 660.2054 132.64812 660.2006 132.70594 660.1951 L 145.11651 659.0131 C 145.18497 659.0066 145.25352 659.0011 145.32214 658.9966 L 157.25416 658.2142 C 157.36418 658.207 157.474 658.19715 157.58355 658.18475 L 167.9959 657.006 C 168.01144 657.0042 168.02697 657.0024 168.0425 657.00056 L 177.9902 655.8068 C 178.00954 655.8045 178.02886 655.8021 178.04818 655.7996 L 191.88394 654.0221 C 191.98115 654.0096 192.0781 653.9951 192.1747 653.9785 L 198.72819 652.85506 C 198.92915 652.8206 199.13153 652.79495 199.33473 652.7782 L 202.56706 652.5112 C 203.4563 652.43775 204.3233 652.195 205.12135 651.79594 L 206.60765 651.0528 C 207.20824 650.7525 207.7625 650.36735 208.25338 649.9092 L 209.5885 648.6631 C 210.19532 648.0967 210.65073 647.3875 210.91322 646.6 L 211.20805 645.7155 C 211.27812 645.5053 211.33817 645.2919 211.388 645.07595 L 211.8577 643.04056 C 211.89293 642.8879 211.8595 642.7275 211.7662 642.6017 L 211.7662 642.6017 C 211.67587 642.4798 211.52523 642.4183 211.3754 642.44214 L 202.89555 643.7912 C 202.84466 643.7993 202.79385 643.808 202.74315 643.8172 L 189.7584 646.17805 C 189.6656 646.1949 189.5725 646.2099 189.47911 646.223 L 178.24943 647.7991 C 178.22928 647.80194 178.20914 647.80486 178.18902 647.80786 L 165.06643 649.76645 C 164.90167 649.79105 164.73608 649.80975 164.56998 649.8225 L 151.84517 650.80136 C 151.82786 650.8027 151.81055 650.80396 151.79323 650.80516 L 137.45308 651.801 C 137.4305 651.8026 137.4079 651.804 137.3853 651.8054 L 124.08205 652.5996 C 124.04016 652.6021 123.99824 652.6042 123.9563 652.606 L 109.76485 653.1973 C 109.66776 653.2013 109.5706 653.20335 109.47344 653.20335 L 83.67753 653.20335 C 83.63865 653.20335 83.59976 653.2037 83.56088 653.2043 L 71.8025 653.4003 C 71.68032 653.4023 71.55812 653.4012 71.436005 653.3968 L 60.602405 653.0099 C 60.48029 653.0055 60.35809 653.0044 60.235914 653.0064 L 48.521274 653.20165 C 48.45323 653.2028 48.385176 653.2029 48.31713 653.2021 L 32.614845 653.0058 C 32.484443 653.0042 32.354113 652.9989 32.224007 652.99 L 17.914229 652.0099 C 17.850882 652.0055 17.787597 652.0003 17.724392 651.9943 L 3.233386 650.6047 C 3.2239315 650.6038 3.2144788 650.6029 3.205028 650.6019 L -10.607008 649.2207 C -10.722849 649.20915 -10.838382 649.1947 -10.953501 649.1773 L -25.262653 647.02116 C -25.34141 647.0093 -25.420363 646.9988 -25.49948 646.9896 L -39.01941 645.4221 C -39.126987 645.4096 -39.23426 645.3946 -39.34114 645.3772 L -48.73323 643.8438 C -48.89822 643.8168 -49.062195 643.784 -49.224836 643.7453 L -58.302435 641.58654 C -58.690754 641.4942 -59.08041 641.7341 -59.17276 642.12244 C -59.17884 642.148 -59.183525 642.1739 -59.18679 642.2 Z" stroke="#7f8080" stroke-linecap="round" stroke-linejoin="round" stroke-width="1"/>
      </g>
      <g id="Graphic_43">
        <path d="M -49.026545 653.2638 L -35.284304 655.55416 C -35.100928 655.5847 -34.917032 655.6121 -34.7327 655.63624 L -6.37906 659.35154 C -6.132532 659.38385 -5.8852846 659.4104 -5.637519 659.4312 L 24.60537 661.9677 C 24.862274 661.9892 25.119662 662.0046 25.377307 662.0137 L 64.30822 663.39 C 64.49658 663.3967 64.685045 663.4 64.87352 663.4 L 96.34084 663.4 C 96.50746 663.4 96.67407 663.3974 96.8406 663.3922 L 121.87539 662.6099 C 122.08563 662.6033 122.29573 662.5926 122.50555 662.5777 L 144.5533 661.0168 C 144.71161 661.0056 144.86975 660.99205 145.02766 660.9761 L 170.28815 658.4305 C 170.48989 658.4102 170.69122 658.386 170.89204 658.358 L 194.68474 655.04265 C 194.88875 655.0142 195.0922 654.98186 195.29496 654.9456 L 204.49079 653.3 C 209.8179 652.3467 213.46876 647.3931 212.80234 642.02255 L 210.59475 624.232 C 210.5921 624.2107 210.5895 624.18934 210.58695 624.168 L 207.02312 594.4695 C 207.00157 594.28985 206.98306 594.10985 206.9676 593.9296 L 204.6054 566.3704 C 204.59565 566.2568 204.58713 566.1431 204.57983 566.02936 L 203.1932 544.4377 C 203.1916 544.4126 203.18992 544.38744 203.18818 544.3623 L 201.59603 521.276 C 201.59253 521.22533 201.58928 521.17466 201.58627 521.124 L 200.4099 501.3218 C 200.39716 501.1073 200.38874 500.89255 200.38465 500.6777 L 199.99236 480.08285 C 199.9913 480.0276 199.98997 479.9724 199.98835 479.9172 L 199.39322 459.68283 C 199.3916 459.6276 199.39026 459.5724 199.3892 459.51715 L 198.99855 439.0076 C 198.99337 438.7359 198.99512 438.46413 199.0038 438.19253 L 199.58973 419.8329 C 199.59044 419.81097 199.59118 419.78903 199.59197 419.7671 L 200.38005 397.8978 C 200.3872 397.6993 200.39806 397.50093 200.4126 397.30283 L 201.97007 376.0822 C 201.98388 375.8941 201.99436 375.70573 202.0015 375.51724 L 202.75596 355.61837 C 202.77915 355.00663 202.83744 354.3967 202.93052 353.79165 L 205.66953 335.98813 C 205.7503 335.46304 205.8572 334.9423 205.9898 334.42783 L 210.61806 316.47017 C 210.73316 316.0236 210.8675 315.5822 211.02073 315.14725 L 216.74152 298.9076 C 216.9076 298.43613 217.0957 297.9727 217.30517 297.51883 L 222.83673 285.5338 C 222.93942 285.3113 223.0472 285.0912 223.16 284.87364 L 228.52223 274.53222 C 228.56793 274.44407 228.61446 274.35636 228.6618 274.26908 L 233.87777 264.65212 C 234.61505 263.29276 235.56468 262.05987 236.69079 261 L 236.69079 261 C 237.36598 260.36453 237.39817 259.30203 236.7627 258.62684 C 236.6382 258.49456 236.49307 258.38337 236.33295 258.2976 L 233.1188 256.57573 C 232.90016 256.4586 232.6788 256.34656 232.45494 256.2397 L 224.60097 252.49122 C 224.19436 252.29716 223.77974 252.12036 223.3582 251.9613 L 213.68338 248.3104 C 213.48833 248.2368 213.29187 248.16703 213.0941 248.1011 L 200.39963 243.86962 C 200.2604 243.8232 200.12055 243.77872 199.9801 243.73616 L 187.09658 239.83206 C 187.02605 239.8107 186.95567 239.78883 186.88544 239.76648 L 174.38144 235.78794 C 173.98782 235.6627 173.5992 235.52225 173.21643 235.36693 L 161.24049 230.50713 C 160.40883 230.16964 159.60704 229.76277 158.8436 229.29083 L 149.22436 223.3444 C 149.06865 223.24814 148.91461 223.14922 148.7623 223.04768 L 143.8722 219.78762 C 142.89081 219.13335 142.0195 218.32745 141.29078 217.4 L 141.29078 217.4 C 141.18518 217.2656 140.99062 217.24225 140.85621 217.34785 C 140.75347 217.42858 140.7125 217.56513 140.75381 217.68908 L 140.89078 218.1 C 141.35003 219.47775 141.4546 220.94904 141.1948 222.3779 L 140.79967 224.55115 C 140.52845 226.0428 140.0466 227.48835 139.36858 228.8444 L 137.83626 231.90904 C 137.53956 232.50244 137.20624 233.0768 136.83823 233.62883 L 133.63453 238.43438 C 133.20593 239.07728 132.73132 239.6883 132.21443 240.26261 L 127.65238 245.33156 C 127.61132 245.37719 127.56999 245.42258 127.5284 245.46773 L 121.53417 251.97576 C 120.90643 252.6573 120.22068 253.28302 119.48465 253.84587 L 114.46047 257.6879 C 114.01432 258.02906 113.55052 258.3465 113.07099 258.6389 L 106.58458 262.59403 C 105.92292 262.99748 105.23283 263.35232 104.51975 263.65576 L 97.40434 266.6836 C 96.59667 267.02728 95.76209 267.30393 94.90905 267.51072 L 90.82999 268.4996 C 90.00516 268.69955 89.16573 268.83356 88.31963 268.90035 L 82.61943 269.35037 C 82.20049 269.38344 81.78042 269.4 81.36019 269.4 L 74.32787 269.4 C 73.57077 269.4 72.81462 269.34626 72.06513 269.2392 L 64.11868 268.104 C 63.63367 268.0347 63.1521 267.94317 62.67549 267.8297 L 56.714264 266.41035 C 55.56878 266.13762 54.4569 265.73927 53.39883 265.22253 L 47.118824 262.15556 C 46.633774 261.91867 46.16102 261.6574 45.702383 261.37272 L 41.49052 258.75846 C 40.89135 258.38656 40.317424 257.97546 39.772495 257.52784 L 35.32639 253.87568 C 35.102693 253.69193 34.884024 253.50214 34.670626 253.30652 L 30.868283 249.82104 C 30.416988 249.40736 29.98981 248.9681 29.588852 248.50546 L 25.470106 243.75307 C 25.150724 243.38455 24.848357 243.00162 24.563952 242.6055 L 20.134297 236.4356 C 19.639405 235.7463 19.200134 235.0187 18.820642 234.25972 L 16.244178 229.1068 C 16.208582 229.0356 16.173517 228.96414 16.138986 228.89242 L 14.890782 226.3 C 14.040068 224.53313 13.684547 222.5686 13.862088 220.61564 L 14.042293 218.63339 C 14.066098 218.37152 13.873116 218.13994 13.611253 218.11614 C 13.448858 218.10138 13.290205 218.17075 13.190782 218.3 L 13.190782 218.3 C 12.527336 219.16248 11.747228 219.92856 10.87285 220.57625 L 6.976317 223.46257 C 6.852634 223.55418 6.727635 223.644 6.601359 223.73202 L 1.9791086 226.9536 C .7923725 227.7807 -.5010482 228.44308 -1.865798 228.92258 L -6.472924 230.5413 C -6.963495 230.71367 -7.445372 230.90984 -7.91684 231.12913 L -14.763621 234.31368 C -15.459783 234.63747 -16.178348 234.91074 -16.913747 235.13136 L -27.784136 238.39248 C -27.800857 238.3975 -27.81757 238.40254 -27.834276 238.4076 L -38.802363 241.7372 C -38.94026 241.77907 -39.077586 241.8228 -39.2143 241.86836 L -52.135536 246.17544 C -52.18466 246.1918 -52.23386 246.20795 -52.283136 246.22384 L -63.65054 249.89075 C -64.28903 250.0967 -64.91393 250.34263 -65.52154 250.62704 L -73.453505 254.33988 C -73.823845 254.51323 -74.1874 254.7007 -74.54338 254.90192 L -80.48949 258.26276 C -81.74253 258.971 -82.18417 260.56093 -81.47594 261.81396 C -81.39882 261.9504 -81.30955 262.0796 -81.20922 262.2 L -80.34511 263.23693 C -79.59016 264.14287 -78.93769 265.1295 -78.39957 266.17882 L -75.32243 272.17924 C -75.24696 272.3264 -75.16921 272.4724 -75.08922 272.61715 L -71.13446 279.77337 C -71.05097 279.92445 -70.96993 280.07687 -70.89137 280.23057 L -66.78307 288.26856 C -66.534 288.75587 -66.3101 289.25563 -66.11224 289.7659 L -62.62947 298.74776 C -62.61597 298.7826 -62.602345 298.81737 -62.5886 298.8521 L -58.992276 307.93754 C -58.87027 308.24577 -58.75787 308.55772 -58.65524 308.87294 L -56.033404 316.9257 C -56.01728 316.97524 -56.0014 317.02484 -55.98576 317.07452 L -52.91371 326.8328 C -52.71092 327.47695 -52.549114 328.1333 -52.42927 328.7979 L -50.443955 339.80737 C -50.4208 339.9358 -50.399213 340.0645 -50.379205 340.19342 L -48.673335 351.1868 C -48.6306 351.46222 -48.595065 351.7387 -48.56677 352.016 L -47.67935 360.7127 C -47.63262 361.1707 -47.60567 361.6305 -47.59859 362.0908 L -47.41435 374.0664 C -47.41093 374.2888 -47.40287 374.51105 -47.390185 374.7331 L -46.61981 388.21465 C -46.61275 388.3382 -46.604255 388.4617 -46.59433 388.58506 L -45.26076 405.15943 C -45.22641 405.5863 -45.20922 406.0144 -45.20922 406.44264 L -45.20922 418.8924 C -45.20922 419.09746 -45.20528 419.30247 -45.197397 419.50735 L -44.617046 434.5965 C -44.61183 434.73216 -44.608337 434.8679 -44.606574 435.00365 L -44.414415 449.7999 C -44.41095 450.0666 -44.414157 450.33333 -44.42403 450.59986 L -44.998256 466.104 C -45.005564 466.3013 -45.00922 466.49875 -45.00922 466.6962 L -45.00922 480.2924 C -45.00922 480.49746 -45.01316 480.7025 -45.02104 480.90736 L -45.60623 496.12236 C -45.608223 496.1741 -45.610465 496.2259 -45.61296 496.2776 L -46.40828 512.78055 C -46.408906 512.7935 -46.409547 512.8065 -46.410203 512.81945 L -47.20469 528.5106 C -47.20771 528.5702 -47.21106 528.6298 -47.214744 528.68933 L -48.403655 547.91007 C -48.407364 547.97 -48.41141 548.02996 -48.415794 548.0899 L -50.19893 572.4594 C -50.20579 572.55314 -50.21347 572.6468 -50.22198 572.7404 L -52.00787 592.3852 C -52.00877 592.3951 -52.009676 592.40494 -52.01059 592.4148 L -53.781357 611.4997 C -53.79993 611.6999 -53.822274 611.8997 -53.848377 612.099 L -55.80909 627.07175 C -55.9419 628.08594 -56.21104 629.07756 -56.60922 630.0197 L -56.60922 630.0197 C -57.006794 630.9605 -57.25546 631.9574 -57.346286 632.97465 L -58.10922 641.5197 C -58.616975 647.20676 -54.65851 652.3251 -49.026545 653.2638 Z" fill="#00ab00"/>
        <path d="M -49.026545 653.2638 L -35.284304 655.55416 C -35.100928 655.5847 -34.917032 655.6121 -34.7327 655.63624 L -6.37906 659.35154 C -6.132532 659.38385 -5.8852846 659.4104 -5.637519 659.4312 L 24.60537 661.9677 C 24.862274 661.9892 25.119662 662.0046 25.377307 662.0137 L 64.30822 663.39 C 64.49658 663.3967 64.685045 663.4 64.87352 663.4 L 96.34084 663.4 C 96.50746 663.4 96.67407 663.3974 96.8406 663.3922 L 121.87539 662.6099 C 122.08563 662.6033 122.29573 662.5926 122.50555 662.5777 L 144.5533 661.0168 C 144.71161 661.0056 144.86975 660.99205 145.02766 660.9761 L 170.28815 658.4305 C 170.48989 658.4102 170.69122 658.386 170.89204 658.358 L 194.68474 655.04265 C 194.88875 655.0142 195.0922 654.98186 195.29496 654.9456 L 204.49079 653.3 C 209.8179 652.3467 213.46876 647.3931 212.80234 642.02255 L 210.59475 624.232 C 210.5921 624.2107 210.5895 624.18934 210.58695 624.168 L 207.02312 594.4695 C 207.00157 594.28985 206.98306 594.10985 206.9676 593.9296 L 204.6054 566.3704 C 204.59565 566.2568 204.58713 566.1431 204.57983 566.02936 L 203.1932 544.4377 C 203.1916 544.4126 203.18992 544.38744 203.18818 544.3623 L 201.59603 521.276 C 201.59253 521.22533 201.58928 521.17466 201.58627 521.124 L 200.4099 501.3218 C 200.39716 501.1073 200.38874 500.89255 200.38465 500.6777 L 199.99236 480.08285 C 199.9913 480.0276 199.98997 479.9724 199.98835 479.9172 L 199.39322 459.68283 C 199.3916 459.6276 199.39026 459.5724 199.3892 459.51715 L 198.99855 439.0076 C 198.99337 438.7359 198.99512 438.46413 199.0038 438.19253 L 199.58973 419.8329 C 199.59044 419.81097 199.59118 419.78903 199.59197 419.7671 L 200.38005 397.8978 C 200.3872 397.6993 200.39806 397.50093 200.4126 397.30283 L 201.97007 376.0822 C 201.98388 375.8941 201.99436 375.70573 202.0015 375.51724 L 202.75596 355.61837 C 202.77915 355.00663 202.83744 354.3967 202.93052 353.79165 L 205.66953 335.98813 C 205.7503 335.46304 205.8572 334.9423 205.9898 334.42783 L 210.61806 316.47017 C 210.73316 316.0236 210.8675 315.5822 211.02073 315.14725 L 216.74152 298.9076 C 216.9076 298.43613 217.0957 297.9727 217.30517 297.51883 L 222.83673 285.5338 C 222.93942 285.3113 223.0472 285.0912 223.16 284.87364 L 228.52223 274.53222 C 228.56793 274.44407 228.61446 274.35636 228.6618 274.26908 L 233.87777 264.65212 C 234.61505 263.29276 235.56468 262.05987 236.69079 261 L 236.69079 261 C 237.36598 260.36453 237.39817 259.30203 236.7627 258.62684 C 236.6382 258.49456 236.49307 258.38337 236.33295 258.2976 L 233.1188 256.57573 C 232.90016 256.4586 232.6788 256.34656 232.45494 256.2397 L 224.60097 252.49122 C 224.19436 252.29716 223.77974 252.12036 223.3582 251.9613 L 213.68338 248.3104 C 213.48833 248.2368 213.29187 248.16703 213.0941 248.1011 L 200.39963 243.86962 C 200.2604 243.8232 200.12055 243.77872 199.9801 243.73616 L 187.09658 239.83206 C 187.02605 239.8107 186.95567 239.78883 186.88544 239.76648 L 174.38144 235.78794 C 173.98782 235.6627 173.5992 235.52225 173.21643 235.36693 L 161.24049 230.50713 C 160.40883 230.16964 159.60704 229.76277 158.8436 229.29083 L 149.22436 223.3444 C 149.06865 223.24814 148.91461 223.14922 148.7623 223.04768 L 143.8722 219.78762 C 142.89081 219.13335 142.0195 218.32745 141.29078 217.4 L 141.29078 217.4 C 141.18518 217.2656 140.99062 217.24225 140.85621 217.34785 C 140.75347 217.42858 140.7125 217.56513 140.75381 217.68908 L 140.89078 218.1 C 141.35003 219.47775 141.4546 220.94904 141.1948 222.3779 L 140.79967 224.55115 C 140.52845 226.0428 140.0466 227.48835 139.36858 228.8444 L 137.83626 231.90904 C 137.53956 232.50244 137.20624 233.0768 136.83823 233.62883 L 133.63453 238.43438 C 133.20593 239.07728 132.73132 239.6883 132.21443 240.26261 L 127.65238 245.33156 C 127.61132 245.37719 127.56999 245.42258 127.5284 245.46773 L 121.53417 251.97576 C 120.90643 252.6573 120.22068 253.28302 119.48465 253.84587 L 114.46047 257.6879 C 114.01432 258.02906 113.55052 258.3465 113.07099 258.6389 L 106.58458 262.59403 C 105.92292 262.99748 105.23283 263.35232 104.51975 263.65576 L 97.40434 266.6836 C 96.59667 267.02728 95.76209 267.30393 94.90905 267.51072 L 90.82999 268.4996 C 90.00516 268.69955 89.16573 268.83356 88.31963 268.90035 L 82.61943 269.35037 C 82.20049 269.38344 81.78042 269.4 81.36019 269.4 L 74.32787 269.4 C 73.57077 269.4 72.81462 269.34626 72.06513 269.2392 L 64.11868 268.104 C 63.63367 268.0347 63.1521 267.94317 62.67549 267.8297 L 56.714264 266.41035 C 55.56878 266.13762 54.4569 265.73927 53.39883 265.22253 L 47.118824 262.15556 C 46.633774 261.91867 46.16102 261.6574 45.702383 261.37272 L 41.49052 258.75846 C 40.89135 258.38656 40.317424 257.97546 39.772495 257.52784 L 35.32639 253.87568 C 35.102693 253.69193 34.884024 253.50214 34.670626 253.30652 L 30.868283 249.82104 C 30.416988 249.40736 29.98981 248.9681 29.588852 248.50546 L 25.470106 243.75307 C 25.150724 243.38455 24.848357 243.00162 24.563952 242.6055 L 20.134297 236.4356 C 19.639405 235.7463 19.200134 235.0187 18.820642 234.25972 L 16.244178 229.1068 C 16.208582 229.0356 16.173517 228.96414 16.138986 228.89242 L 14.890782 226.3 C 14.040068 224.53313 13.684547 222.5686 13.862088 220.61564 L 14.042293 218.63339 C 14.066098 218.37152 13.873116 218.13994 13.611253 218.11614 C 13.448858 218.10138 13.290205 218.17075 13.190782 218.3 L 13.190782 218.3 C 12.527336 219.16248 11.747228 219.92856 10.87285 220.57625 L 6.976317 223.46257 C 6.852634 223.55418 6.727635 223.644 6.601359 223.73202 L 1.9791086 226.9536 C .7923725 227.7807 -.5010482 228.44308 -1.865798 228.92258 L -6.472924 230.5413 C -6.963495 230.71367 -7.445372 230.90984 -7.91684 231.12913 L -14.763621 234.31368 C -15.459783 234.63747 -16.178348 234.91074 -16.913747 235.13136 L -27.784136 238.39248 C -27.800857 238.3975 -27.81757 238.40254 -27.834276 238.4076 L -38.802363 241.7372 C -38.94026 241.77907 -39.077586 241.8228 -39.2143 241.86836 L -52.135536 246.17544 C -52.18466 246.1918 -52.23386 246.20795 -52.283136 246.22384 L -63.65054 249.89075 C -64.28903 250.0967 -64.91393 250.34263 -65.52154 250.62704 L -73.453505 254.33988 C -73.823845 254.51323 -74.1874 254.7007 -74.54338 254.90192 L -80.48949 258.26276 C -81.74253 258.971 -82.18417 260.56093 -81.47594 261.81396 C -81.39882 261.9504 -81.30955 262.0796 -81.20922 262.2 L -80.34511 263.23693 C -79.59016 264.14287 -78.93769 265.1295 -78.39957 266.17882 L -75.32243 272.17924 C -75.24696 272.3264 -75.16921 272.4724 -75.08922 272.61715 L -71.13446 279.77337 C -71.05097 279.92445 -70.96993 280.07687 -70.89137 280.23057 L -66.78307 288.26856 C -66.534 288.75587 -66.3101 289.25563 -66.11224 289.7659 L -62.62947 298.74776 C -62.61597 298.7826 -62.602345 298.81737 -62.5886 298.8521 L -58.992276 307.93754 C -58.87027 308.24577 -58.75787 308.55772 -58.65524 308.87294 L -56.033404 316.9257 C -56.01728 316.97524 -56.0014 317.02484 -55.98576 317.07452 L -52.91371 326.8328 C -52.71092 327.47695 -52.549114 328.1333 -52.42927 328.7979 L -50.443955 339.80737 C -50.4208 339.9358 -50.399213 340.0645 -50.379205 340.19342 L -48.673335 351.1868 C -48.6306 351.46222 -48.595065 351.7387 -48.56677 352.016 L -47.67935 360.7127 C -47.63262 361.1707 -47.60567 361.6305 -47.59859 362.0908 L -47.41435 374.0664 C -47.41093 374.2888 -47.40287 374.51105 -47.390185 374.7331 L -46.61981 388.21465 C -46.61275 388.3382 -46.604255 388.4617 -46.59433 388.58506 L -45.26076 405.15943 C -45.22641 405.5863 -45.20922 406.0144 -45.20922 406.44264 L -45.20922 418.8924 C -45.20922 419.09746 -45.20528 419.30247 -45.197397 419.50735 L -44.617046 434.5965 C -44.61183 434.73216 -44.608337 434.8679 -44.606574 435.00365 L -44.414415 449.7999 C -44.41095 450.0666 -44.414157 450.33333 -44.42403 450.59986 L -44.998256 466.104 C -45.005564 466.3013 -45.00922 466.49875 -45.00922 466.6962 L -45.00922 480.2924 C -45.00922 480.49746 -45.01316 480.7025 -45.02104 480.90736 L -45.60623 496.12236 C -45.608223 496.1741 -45.610465 496.2259 -45.61296 496.2776 L -46.40828 512.78055 C -46.408906 512.7935 -46.409547 512.8065 -46.410203 512.81945 L -47.20469 528.5106 C -47.20771 528.5702 -47.21106 528.6298 -47.214744 528.68933 L -48.403655 547.91007 C -48.407364 547.97 -48.41141 548.02996 -48.415794 548.0899 L -50.19893 572.4594 C -50.20579 572.55314 -50.21347 572.6468 -50.22198 572.7404 L -52.00787 592.3852 C -52.00877 592.3951 -52.009676 592.40494 -52.01059 592.4148 L -53.781357 611.4997 C -53.79993 611.6999 -53.822274 611.8997 -53.848377 612.099 L -55.80909 627.07175 C -55.9419 628.08594 -56.21104 629.07756 -56.60922 630.0197 L -56.60922 630.0197 C -57.006794 630.9605 -57.25546 631.9574 -57.346286 632.97465 L -58.10922 641.5197 C -58.616975 647.20676 -54.65851 652.3251 -49.026545 653.2638 Z" stroke="#7f8080" stroke-linecap="round" stroke-linejoin="round" stroke-width="1"/>
      </g>
      <g id="Graphic_42">
        <path d="M -138 367.44615 L -131.8 371.84615 L -123.6 375.84615 L -115 379.44615 L -106 383.24615 L -95 387.24615 L -85.6 390.04615 L -76.6 392.64615 L -67.6 395.24615 L -62.2 396.64615 L -56.6 397.64615 L -54.2 391.84615 L -51.6 386.44615 L -49.4 382.44615 L -46.8 379.04615 L -46.6 370.04615 L -47.2 359.04615 L -49 348.24615 L -50.6 337.84615 L -53.2 326.84614 L -55.6 317.24614 L -58.4 309.24614 L -61.6 299.84614 L -64.4 292.44614 L -68 284.84614 L -72 277.24614 L -76 269.84614 L -78.6 266.24614 L -82.2 260.44614 L -87.6 264.84614 L -92.4 269.64614 L -97 275.84614 L -101.4 282.04614 L -106.2 290.64614 L -111 300.04614 L -115.8 309.24614 L -119.4 317.84614 L -123.4 326.84614 L -126.6 335.04615 L -130.4 344.44615 L -133.2 352.44615 L -136.2 360.84615 Z" fill="#00ab00"/>
        <path d="M -138 367.44615 L -131.8 371.84615 L -123.6 375.84615 L -115 379.44615 L -106 383.24615 L -95 387.24615 L -85.6 390.04615 L -76.6 392.64615 L -67.6 395.24615 L -62.2 396.64615 L -56.6 397.64615 L -54.2 391.84615 L -51.6 386.44615 L -49.4 382.44615 L -46.8 379.04615 L -46.6 370.04615 L -47.2 359.04615 L -49 348.24615 L -50.6 337.84615 L -53.2 326.84614 L -55.6 317.24614 L -58.4 309.24614 L -61.6 299.84614 L -64.4 292.44614 L -68 284.84614 L -72 277.24614 L -76 269.84614 L -78.6 266.24614 L -82.2 260.44614 L -87.6 264.84614 L -92.4 269.64614 L -97 275.84614 L -101.4 282.04614 L -106.2 290.64614 L -111 300.04614 L -115.8 309.24614 L -119.4 317.84614 L -123.4 326.84614 L -126.6 335.04615 L -130.4 344.44615 L -133.2 352.44615 L -136.2 360.84615 Z" stroke="#7f8080" stroke-linecap="round" stroke-linejoin="round" stroke-width="1"/>
      </g>
      <g id="Graphic_41">
        <path d="M 293.4053 366.50275 L 287.2053 370.90275 L 279.0053 374.90275 L 270.4053 378.50275 L 261.4053 382.30275 L 250.4053 386.30275 L 241.0053 389.10275 L 232.0053 391.70275 L 223.0053 394.30275 L 217.6053 395.70275 L 212.0053 396.70275 L 209.6053 390.90275 L 207.0053 385.50275 L 204.8053 381.50275 L 202.2053 378.10275 L 202.0053 369.10275 L 202.6053 358.10275 L 204.4053 347.30275 L 206.0053 336.90275 L 208.6053 325.90275 L 211.0053 316.30275 L 213.8053 308.30275 L 217.0053 298.90275 L 219.8053 291.50275 L 223.4053 283.90275 L 227.4053 276.30275 L 231.4053 268.90275 L 234.0053 265.30275 L 237.6053 259.50275 L 243.0053 263.90275 L 247.8053 268.70275 L 252.4053 274.90275 L 256.8053 281.10275 L 261.6053 289.70275 L 266.4053 299.10275 L 271.2053 308.30275 L 274.8053 316.90275 L 278.8053 325.90275 L 282.0053 334.10275 L 285.8053 343.50275 L 288.6053 351.50275 L 291.6053 359.90275 Z" fill="#00ab00"/>
        <path d="M 293.4053 366.50275 L 287.2053 370.90275 L 279.0053 374.90275 L 270.4053 378.50275 L 261.4053 382.30275 L 250.4053 386.30275 L 241.0053 389.10275 L 232.0053 391.70275 L 223.0053 394.30275 L 217.6053 395.70275 L 212.0053 396.70275 L 209.6053 390.90275 L 207.0053 385.50275 L 204.8053 381.50275 L 202.2053 378.10275 L 202.0053 369.10275 L 202.6053 358.10275 L 204.4053 347.30275 L 206.0053 336.90275 L 208.6053 325.90275 L 211.0053 316.30275 L 213.8053 308.30275 L 217.0053 298.90275 L 219.8053 291.50275 L 223.4053 283.90275 L 227.4053 276.30275 L 231.4053 268.90275 L 234.0053 265.30275 L 237.6053 259.50275 L 243.0053 263.90275 L 247.8053 268.70275 L 252.4053 274.90275 L 256.8053 281.10275 L 261.6053 289.70275 L 266.4053 299.10275 L 271.2053 308.30275 L 274.8053 316.90275 L 278.8053 325.90275 L 282.0053 334.10275 L 285.8053 343.50275 L 288.6053 351.50275 L 291.6053 359.90275 Z" stroke="#7f8080" stroke-linecap="round" stroke-linejoin="round" stroke-width="2"/>
      </g>
      <g id="Graphic_40">
        <path d="M -138 367.44615 L -131.8 371.84615 L -123.6 375.84615 L -115 379.44615 L -106 383.24615 L -95 387.24615 L -85.6 390.04615 L -76.6 392.64615 L -67.6 395.24615 L -62.2 396.64615 L -56.6 397.64615 L -53.6 391.24615 L -57.4 390.44615 L -62.2 389.24615 L -67.8 388.04615 L -73.8 386.24615 L -78.4 384.84615 L -82.6 383.64615 L -87.2 381.64615 L -91.8 380.04615 L -96.6 378.04615 L -100.6 376.64615 L -105.8 374.44615 L -110.4 372.84615 L -115.2 370.64615 L -120 368.84615 L -124 366.84615 L -128.4 364.64615 L -132.8 362.44615 L -136.2 360.84615 Z" fill="#00ab00"/>
        <path d="M -138 367.44615 L -131.8 371.84615 L -123.6 375.84615 L -115 379.44615 L -106 383.24615 L -95 387.24615 L -85.6 390.04615 L -76.6 392.64615 L -67.6 395.24615 L -62.2 396.64615 L -56.6 397.64615 L -53.6 391.24615 L -57.4 390.44615 L -62.2 389.24615 L -67.8 388.04615 L -73.8 386.24615 L -78.4 384.84615 L -82.6 383.64615 L -87.2 381.64615 L -91.8 380.04615 L -96.6 378.04615 L -100.6 376.64615 L -105.8 374.44615 L -110.4 372.84615 L -115.2 370.64615 L -120 368.84615 L -124 366.84615 L -128.4 364.64615 L -132.8 362.44615 L -136.2 360.84615 Z" stroke="#7f8080" stroke-linecap="round" stroke-linejoin="round" stroke-width="1"/>
      </g>
      <g id="Graphic_39">
        <path d="M 293.4053 366.50275 L 287.2053 370.90275 L 279.0053 374.90275 L 270.4053 378.50275 L 261.4053 382.30275 L 250.4053 386.30275 L 241.0053 389.10275 L 232.0053 391.70275 L 223.0053 394.30275 L 217.6053 395.70275 L 212.0053 396.70275 L 209.0053 390.30275 L 212.8053 389.50275 L 217.6053 388.30275 L 223.2053 387.10275 L 229.2053 385.30275 L 233.8053 383.90275 L 238.0053 382.70275 L 242.6053 380.70275 L 247.2053 379.10275 L 252.0053 377.10275 L 256.0053 375.70275 L 261.2053 373.50275 L 265.8053 371.90275 L 270.6053 369.70275 L 275.4053 367.90275 L 279.4053 365.90275 L 283.8053 363.70275 L 288.2053 361.50275 L 291.6053 359.90275 Z" fill="#00ab00"/>
        <path d="M 293.4053 366.50275 L 287.2053 370.90275 L 279.0053 374.90275 L 270.4053 378.50275 L 261.4053 382.30275 L 250.4053 386.30275 L 241.0053 389.10275 L 232.0053 391.70275 L 223.0053 394.30275 L 217.6053 395.70275 L 212.0053 396.70275 L 209.0053 390.30275 L 212.8053 389.50275 L 217.6053 388.30275 L 223.2053 387.10275 L 229.2053 385.30275 L 233.8053 383.90275 L 238.0053 382.70275 L 242.6053 380.70275 L 247.2053 379.10275 L 252.0053 377.10275 L 256.0053 375.70275 L 261.2053 373.50275 L 265.8053 371.90275 L 270.6053 369.70275 L 275.4053 367.90275 L 279.4053 365.90275 L 283.8053 363.70275 L 288.2053 361.50275 L 291.6053 359.90275 Z" stroke="#7f8080" stroke-linecap="round" stroke-linejoin="round" stroke-width="1"/>
      </g>
      <g id="Graphic_38">
        <path d="M 12.572121 217.9638 L 7.842951 222.01736 C 6.692603 223.00338 5.447643 223.8733 4.1262133 224.61448 L 1.5995778 226.03165 C .16440602 226.83662 -.41639693 228.60575 .26238884 230.10473 L 1.2800056 232.35197 C 1.4015846 232.62046 1.5283132 232.88658 1.660121 233.1502 L 5.949377 241.7287 C 6.291174 242.4123 6.666832 243.07843 7.074952 243.72463 L 9.401344 247.40808 C 9.84172 248.10535 10.31928 248.77842 10.831953 249.4244 L 14.242638 253.72185 C 14.788692 254.40987 15.373712 255.06606 15.994822 255.68717 L 20.660865 260.3532 C 21.061745 260.7541 21.47731 261.14 21.90671 261.51018 L 26.470235 265.44426 C 26.864892 265.78448 27.270997 266.1112 27.687846 266.42383 L 31.662786 269.40503 C 32.3287 269.90447 33.021233 270.36738 33.73733 270.79174 L 37.870394 273.24096 C 37.99839 273.3168 38.127117 273.3914 38.25656 273.46477 L 42.954107 276.1267 C 43.6924 276.54507 44.453276 276.92226 45.23325 277.25653 L 48.78307 278.77788 C 49.36903 279.029 49.96518 279.25567 50.569974 279.45726 L 55.58808 281.12997 C 56.835325 281.5457 58.11592 281.85376 59.415795 282.0507 L 63.51464 282.67174 C 63.879756 282.72706 64.24615 282.77358 64.6135 282.81126 L 71.494605 283.517 C 71.73978 283.54216 71.985344 283.56336 72.2312 283.58062 L 76.75835 283.8983 C 77.29421 283.9359 77.83122 283.95473 78.368405 283.95473 L 81.63046 283.95474 C 82.58416 283.95474 83.53693 283.89542 84.48327 283.77713 L 88.47198 283.27854 C 89.13195 283.19604 89.78802 283.08496 90.43835 282.9456 L 96.52039 281.6423 C 97.41426 281.45076 98.29592 281.2061 99.16068 280.9096 L 103.66952 279.36372 C 104.46417 279.09127 105.2433 278.7755 106.0034 278.4178 L 110.83677 276.14326 C 111.38697 275.88435 111.92668 275.6037 112.45464 275.30202 L 116.2225 273.14896 C 116.9153 272.75308 117.58701 272.3214 118.23494 271.85572 L 122.91106 268.49475 C 123.41175 268.1349 123.89776 267.75503 124.36792 267.3561 L 129.68877 262.84144 C 130.07108 262.51706 130.44269 262.18026 130.80298 261.83158 L 135.5022 257.28396 C 136.14179 256.665 136.74491 256.00944 137.30852 255.32058 L 141.1018 250.68434 C 141.60852 250.06503 142.08257 249.4197 142.52201 248.75096 L 146.1392 243.24656 C 146.35462 242.91873 146.56163 242.58544 146.76002 242.24702 L 149.28311 237.94292 C 149.66906 237.28454 150.022 236.60735 150.34062 235.91388 L 152.45932 231.3026 C 152.99218 230.14285 153.36334 228.91544 153.5624 227.65474 L 153.5624 227.65474 C 153.7407 226.52547 153.1614 225.41203 152.13432 224.9099 L 146.84088 222.322 C 145.52642 221.67937 144.29183 220.88486 143.1624 219.95474 L 142.75638 219.62037 C 141.91205 218.92504 141.28864 217.99874 140.9624 216.95474 L 140.9624 216.95474 C 140.91573 216.80542 140.75686 216.7222 140.60754 216.76886 C 140.49247 216.80482 140.41277 216.90969 140.40892 217.0302 L 140.29968 220.4531 C 140.20894 223.29619 139.5916 226.09776 138.479 228.71567 L 137.60206 230.77904 C 137.0435 232.09331 136.36374 233.3527 135.5716 234.5409 L 131.88582 240.06958 C 131.13831 241.19085 130.2937 242.24425 129.36175 243.21762 L 123.06668 249.79247 C 122.19861 250.69913 121.25777 251.5332 120.2536 252.28633 L 111.8787 258.5675 C 111.00228 259.22482 110.08002 259.81867 109.11896 260.34454 L 101.93376 264.27606 C 100.62263 264.99347 99.2447 265.58137 97.81952 266.03143 L 91.14661 268.13867 C 89.42973 268.68084 87.65514 269.01954 85.85927 269.1478 L 78.972815 269.6397 C 77.90052 269.7163 76.82417 269.71762 75.751685 269.64365 L 67.31543 269.06184 C 66.28125 268.99052 65.25308 268.84936 64.23795 268.63933 L 57.10274 267.16308 C 55.15079 266.75923 53.259614 266.10335 51.47676 265.21192 L 46.81735 262.8822 C 45.58321 262.26515 44.407106 261.53827 43.30326 260.7104 L 37.621303 256.44892 C 37.182167 256.11957 36.754962 255.7746 36.34051 255.41468 L 30.58533 250.41676 C 29.771043 249.70962 29.007503 248.94608 28.30036 248.1318 L 23.895135 243.0591 C 23.141032 242.19075 22.453124 241.26705 21.8372 240.29578 L 18.103497 234.40802 C 17.742931 233.83944 17.407505 233.2553 17.098188 232.65728 L 15.477815 229.52456 C 14.86867 228.34688 14.362502 227.11874 13.964965 225.85385 L 12.684726 221.78036 C 12.469951 221.09698 12.287218 220.40395 12.137126 219.70351 L 11.911709 218.65157 C 11.826635 218.25456 12.052993 217.8569 12.437797 217.72737 L 12.437797 217.72737 C 12.510292 217.70296 12.588844 217.74195 12.613249 217.81444 C 12.631263 217.86795 12.61499 217.92704 12.572121 217.9638 Z" fill="#00ab00"/>
        <path d="M 12.572121 217.9638 L 7.842951 222.01736 C 6.692603 223.00338 5.447643 223.8733 4.1262133 224.61448 L 1.5995778 226.03165 C .16440602 226.83662 -.41639693 228.60575 .26238884 230.10473 L 1.2800056 232.35197 C 1.4015846 232.62046 1.5283132 232.88658 1.660121 233.1502 L 5.949377 241.7287 C 6.291174 242.4123 6.666832 243.07843 7.074952 243.72463 L 9.401344 247.40808 C 9.84172 248.10535 10.31928 248.77842 10.831953 249.4244 L 14.242638 253.72185 C 14.788692 254.40987 15.373712 255.06606 15.994822 255.68717 L 20.660865 260.3532 C 21.061745 260.7541 21.47731 261.14 21.90671 261.51018 L 26.470235 265.44426 C 26.864892 265.78448 27.270997 266.1112 27.687846 266.42383 L 31.662786 269.40503 C 32.3287 269.90447 33.021233 270.36738 33.73733 270.79174 L 37.870394 273.24096 C 37.99839 273.3168 38.127117 273.3914 38.25656 273.46477 L 42.954107 276.1267 C 43.6924 276.54507 44.453276 276.92226 45.23325 277.25653 L 48.78307 278.77788 C 49.36903 279.029 49.96518 279.25567 50.569974 279.45726 L 55.58808 281.12997 C 56.835325 281.5457 58.11592 281.85376 59.415795 282.0507 L 63.51464 282.67174 C 63.879756 282.72706 64.24615 282.77358 64.6135 282.81126 L 71.494605 283.517 C 71.73978 283.54216 71.985344 283.56336 72.2312 283.58062 L 76.75835 283.8983 C 77.29421 283.9359 77.83122 283.95473 78.368405 283.95473 L 81.63046 283.95474 C 82.58416 283.95474 83.53693 283.89542 84.48327 283.77713 L 88.47198 283.27854 C 89.13195 283.19604 89.78802 283.08496 90.43835 282.9456 L 96.52039 281.6423 C 97.41426 281.45076 98.29592 281.2061 99.16068 280.9096 L 103.66952 279.36372 C 104.46417 279.09127 105.2433 278.7755 106.0034 278.4178 L 110.83677 276.14326 C 111.38697 275.88435 111.92668 275.6037 112.45464 275.30202 L 116.2225 273.14896 C 116.9153 272.75308 117.58701 272.3214 118.23494 271.85572 L 122.91106 268.49475 C 123.41175 268.1349 123.89776 267.75503 124.36792 267.3561 L 129.68877 262.84144 C 130.07108 262.51706 130.44269 262.18026 130.80298 261.83158 L 135.5022 257.28396 C 136.14179 256.665 136.74491 256.00944 137.30852 255.32058 L 141.1018 250.68434 C 141.60852 250.06503 142.08257 249.4197 142.52201 248.75096 L 146.1392 243.24656 C 146.35462 242.91873 146.56163 242.58544 146.76002 242.24702 L 149.28311 237.94292 C 149.66906 237.28454 150.022 236.60735 150.34062 235.91388 L 152.45932 231.3026 C 152.99218 230.14285 153.36334 228.91544 153.5624 227.65474 L 153.5624 227.65474 C 153.7407 226.52547 153.1614 225.41203 152.13432 224.9099 L 146.84088 222.322 C 145.52642 221.67937 144.29183 220.88486 143.1624 219.95474 L 142.75638 219.62037 C 141.91205 218.92504 141.28864 217.99874 140.9624 216.95474 L 140.9624 216.95474 C 140.91573 216.80542 140.75686 216.7222 140.60754 216.76886 C 140.49247 216.80482 140.41277 216.90969 140.40892 217.0302 L 140.29968 220.4531 C 140.20894 223.29619 139.5916 226.09776 138.479 228.71567 L 137.60206 230.77904 C 137.0435 232.09331 136.36374 233.3527 135.5716 234.5409 L 131.88582 240.06958 C 131.13831 241.19085 130.2937 242.24425 129.36175 243.21762 L 123.06668 249.79247 C 122.19861 250.69913 121.25777 251.5332 120.2536 252.28633 L 111.8787 258.5675 C 111.00228 259.22482 110.08002 259.81867 109.11896 260.34454 L 101.93376 264.27606 C 100.62263 264.99347 99.2447 265.58137 97.81952 266.03143 L 91.14661 268.13867 C 89.42973 268.68084 87.65514 269.01954 85.85927 269.1478 L 78.972815 269.6397 C 77.90052 269.7163 76.82417 269.71762 75.751685 269.64365 L 67.31543 269.06184 C 66.28125 268.99052 65.25308 268.84936 64.23795 268.63933 L 57.10274 267.16308 C 55.15079 266.75923 53.259614 266.10335 51.47676 265.21192 L 46.81735 262.8822 C 45.58321 262.26515 44.407106 261.53827 43.30326 260.7104 L 37.621303 256.44892 C 37.182167 256.11957 36.754962 255.7746 36.34051 255.41468 L 30.58533 250.41676 C 29.771043 249.70962 29.007503 248.94608 28.30036 248.1318 L 23.895135 243.0591 C 23.141032 242.19075 22.453124 241.26705 21.8372 240.29578 L 18.103497 234.40802 C 17.742931 233.83944 17.407505 233.2553 17.098188 232.65728 L 15.477815 229.52456 C 14.86867 228.34688 14.362502 227.11874 13.964965 225.85385 L 12.684726 221.78036 C 12.469951 221.09698 12.287218 220.40395 12.137126 219.70351 L 11.911709 218.65157 C 11.826635 218.25456 12.052993 217.8569 12.437797 217.72737 L 12.437797 217.72737 C 12.510292 217.70296 12.588844 217.74195 12.613249 217.81444 C 12.631263 217.86795 12.61499 217.92704 12.572121 217.9638 Z" stroke="#7f8080" stroke-linecap="round" stroke-linejoin="round" stroke-width="1"/>
      </g>
      <g id="Graphic_37">
        <path d="M 12.059248 217.7559 L 17.459248 217.1559 L 24.259248 220.5559 L 29.259248 222.3559 L 37.65925 224.1559 L 46.05925 225.1559 L 54.05925 226.1559 L 61.65925 226.3559 L 70.25925 226.7559 L 81.85925 226.5559 L 90.25925 226.1559 L 99.65925 225.5559 L 108.05925 224.7559 L 117.25925 223.3559 L 125.45925 221.1559 L 131.25925 219.3559 L 136.85925 216.7559 L 139.65925 217.9559 L 140.05925 223.5559 L 137.25925 231.5559 L 131.85925 234.3559 L 121.25925 237.5559 L 109.85925 239.9559 L 98.65925 240.7559 L 86.25925 241.7559 L 75.85925 241.7559 L 66.45925 241.7559 L 54.85925 241.1559 L 43.65925 240.3559 L 33.059248 238.1559 L 24.459248 236.1559 L 18.259248 233.3559 L 16.259248 231.7559 L 13.059248 224.1559 Z" fill="#00ab00"/>
        <path d="M 12.059248 217.7559 L 17.459248 217.1559 L 24.259248 220.5559 L 29.259248 222.3559 L 37.65925 224.1559 L 46.05925 225.1559 L 54.05925 226.1559 L 61.65925 226.3559 L 70.25925 226.7559 L 81.85925 226.5559 L 90.25925 226.1559 L 99.65925 225.5559 L 108.05925 224.7559 L 117.25925 223.3559 L 125.45925 221.1559 L 131.25925 219.3559 L 136.85925 216.7559 L 139.65925 217.9559 L 140.05925 223.5559 L 137.25925 231.5559 L 131.85925 234.3559 L 121.25925 237.5559 L 109.85925 239.9559 L 98.65925 240.7559 L 86.25925 241.7559 L 75.85925 241.7559 L 66.45925 241.7559 L 54.85925 241.1559 L 43.65925 240.3559 L 33.059248 238.1559 L 24.459248 236.1559 L 18.259248 233.3559 L 16.259248 231.7559 L 13.059248 224.1559 Z" stroke="#7f8080" stroke-linecap="round" stroke-linejoin="round" stroke-width="1"/>
      </g>
      <g id="Graphic_36">
        <path d="M -58.18679 643.2 L -58.18679 643.2 C -58.25247 643.7255 -58.189645 644.25905 -58.0037 644.7549 L -57.352694 646.4909 C -57.17594 646.9623 -56.94885 647.4132 -56.67538 647.8358 L -55.707566 649.3315 C -55.16661 650.16756 -54.453506 650.87855 -53.61588 651.417 L -52.53783 652.11005 C -52.237574 652.3031 -51.922994 652.47285 -51.596843 652.6179 L -50.27999 653.2035 C -49.68346 653.46876 -49.052754 653.6493 -48.40621 653.7398 L -39.395787 655.00126 C -39.385793 655.00265 -39.375797 655.004 -39.365797 655.0054 L -27.6498 656.594 C -27.603798 656.6002 -27.557737 656.606 -27.51162 656.6113 L -17.228685 657.7978 C -17.19676 657.8015 -17.164809 657.805 -17.132835 657.8082 L -3.4227692 659.1991 C -3.3947873 659.2019 -3.3667884 659.2046 -3.3387743 659.2071 L 7.766526 660.19865 C 7.801644 660.2018 7.836786 660.20466 7.871948 660.2073 L 18.558485 660.99886 C 18.598964 661.00185 18.639468 661.0045 18.679993 661.0068 L 29.187976 661.6016 C 29.208795 661.6028 29.22961 661.604 29.250416 661.6054 L 41.293193 662.3951 C 41.377194 662.4006 41.461288 662.4046 41.54543 662.4071 L 54.99256 662.8026 C 55.01032 662.8031 55.028085 662.8037 55.045846 662.80434 L 65.68971 663.19856 C 65.77603 663.20176 65.86241 663.20335 65.94879 663.20335 L 76.55781 663.20335 C 76.59874 663.20335 76.63967 663.2037 76.680595 663.2044 L 87.76702 663.3989 C 87.93509 663.4019 88.10321 663.3988 88.27106 663.3896 L 98.89229 662.8103 C 98.97689 662.8057 99.06157 662.8026 99.14629 662.80104 L 109.91085 662.6053 C 109.98308 662.604 110.05529 662.6016 110.12745 662.598 L 122.14607 662.00695 C 122.19483 662.00455 122.24355 662.00165 122.29225 661.9982 L 133.5323 661.20945 C 133.59023 661.2054 133.64812 661.2006 133.70594 661.1951 L 146.11651 660.0131 C 146.18497 660.0066 146.25352 660.0011 146.32214 659.9966 L 158.25416 659.2142 C 158.36418 659.207 158.474 659.19715 158.58355 659.18475 L 168.9959 658.006 C 169.01144 658.0042 169.02697 658.0024 169.0425 658.00056 L 178.9902 656.8068 C 179.00954 656.8045 179.02886 656.8021 179.04818 656.7996 L 192.88394 655.0221 C 192.98115 655.0096 193.0781 654.9951 193.1747 654.9785 L 199.72819 653.85506 C 199.92915 653.8206 200.13153 653.79495 200.33473 653.7782 L 203.56706 653.5112 C 204.4563 653.43775 205.3233 653.195 206.12135 652.79594 L 207.60765 652.0528 C 208.20824 651.7525 208.7625 651.36735 209.25338 650.9092 L 210.5885 649.6631 C 211.19532 649.0967 211.65073 648.3875 211.91322 647.6 L 212.20805 646.7155 C 212.27812 646.5053 212.33817 646.2919 212.388 646.07595 L 212.8577 644.04056 C 212.89293 643.8879 212.8595 643.7275 212.7662 643.6017 L 212.7662 643.6017 C 212.67587 643.4798 212.52523 643.4183 212.3754 643.44214 L 203.89555 644.7912 C 203.84466 644.7993 203.79385 644.808 203.74315 644.8172 L 190.7584 647.17805 C 190.6656 647.1949 190.5725 647.2099 190.47911 647.223 L 179.24943 648.7991 C 179.22928 648.80194 179.20914 648.80486 179.18902 648.80786 L 166.06643 650.76645 C 165.90167 650.79105 165.73608 650.80975 165.56998 650.8225 L 152.84517 651.80136 C 152.82786 651.8027 152.81055 651.80396 152.79323 651.80516 L 138.45308 652.801 C 138.4305 652.8026 138.4079 652.804 138.3853 652.8054 L 125.08205 653.5996 C 125.04016 653.6021 124.99824 653.6042 124.9563 653.606 L 110.76485 654.1973 C 110.66776 654.2013 110.5706 654.20335 110.47344 654.20335 L 84.67753 654.20335 C 84.63865 654.20335 84.59976 654.2037 84.56088 654.2043 L 72.8025 654.4003 C 72.68032 654.4023 72.55812 654.4012 72.436005 654.3968 L 61.602405 654.0099 C 61.48029 654.0055 61.35809 654.0044 61.235914 654.0064 L 49.521274 654.20165 C 49.45323 654.2028 49.385176 654.2029 49.31713 654.2021 L 33.614845 654.0058 C 33.484443 654.0042 33.354113 653.9989 33.224007 653.99 L 18.91423 653.0099 C 18.850882 653.0055 18.787597 653.0003 18.724392 652.9943 L 4.233386 651.6047 C 4.2239315 651.6038 4.214479 651.6029 4.205028 651.6019 L -9.607008 650.2207 C -9.722849 650.20915 -9.838382 650.1947 -9.953501 650.1773 L -24.262653 648.02116 C -24.34141 648.0093 -24.420363 647.9988 -24.49948 647.9896 L -38.01941 646.4221 C -38.126987 646.4096 -38.23426 646.3946 -38.34114 646.3772 L -47.73323 644.8438 C -47.89822 644.8168 -48.062195 644.784 -48.224836 644.7453 L -57.302435 642.58654 C -57.690754 642.4942 -58.08041 642.7341 -58.17276 643.12244 C -58.17884 643.148 -58.183525 643.1739 -58.18679 643.2 Z" fill="#00ab00"/>
        <path d="M -58.18679 643.2 L -58.18679 643.2 C -58.25247 643.7255 -58.189645 644.25905 -58.0037 644.7549 L -57.352694 646.4909 C -57.17594 646.9623 -56.94885 647.4132 -56.67538 647.8358 L -55.707566 649.3315 C -55.16661 650.16756 -54.453506 650.87855 -53.61588 651.417 L -52.53783 652.11005 C -52.237574 652.3031 -51.922994 652.47285 -51.596843 652.6179 L -50.27999 653.2035 C -49.68346 653.46876 -49.052754 653.6493 -48.40621 653.7398 L -39.395787 655.00126 C -39.385793 655.00265 -39.375797 655.004 -39.365797 655.0054 L -27.6498 656.594 C -27.603798 656.6002 -27.557737 656.606 -27.51162 656.6113 L -17.228685 657.7978 C -17.19676 657.8015 -17.164809 657.805 -17.132835 657.8082 L -3.4227692 659.1991 C -3.3947873 659.2019 -3.3667884 659.2046 -3.3387743 659.2071 L 7.766526 660.19865 C 7.801644 660.2018 7.836786 660.20466 7.871948 660.2073 L 18.558485 660.99886 C 18.598964 661.00185 18.639468 661.0045 18.679993 661.0068 L 29.187976 661.6016 C 29.208795 661.6028 29.22961 661.604 29.250416 661.6054 L 41.293193 662.3951 C 41.377194 662.4006 41.461288 662.4046 41.54543 662.4071 L 54.99256 662.8026 C 55.01032 662.8031 55.028085 662.8037 55.045846 662.80434 L 65.68971 663.19856 C 65.77603 663.20176 65.86241 663.20335 65.94879 663.20335 L 76.55781 663.20335 C 76.59874 663.20335 76.63967 663.2037 76.680595 663.2044 L 87.76702 663.3989 C 87.93509 663.4019 88.10321 663.3988 88.27106 663.3896 L 98.89229 662.8103 C 98.97689 662.8057 99.06157 662.8026 99.14629 662.80104 L 109.91085 662.6053 C 109.98308 662.604 110.05529 662.6016 110.12745 662.598 L 122.14607 662.00695 C 122.19483 662.00455 122.24355 662.00165 122.29225 661.9982 L 133.5323 661.20945 C 133.59023 661.2054 133.64812 661.2006 133.70594 661.1951 L 146.11651 660.0131 C 146.18497 660.0066 146.25352 660.0011 146.32214 659.9966 L 158.25416 659.2142 C 158.36418 659.207 158.474 659.19715 158.58355 659.18475 L 168.9959 658.006 C 169.01144 658.0042 169.02697 658.0024 169.0425 658.00056 L 178.9902 656.8068 C 179.00954 656.8045 179.02886 656.8021 179.04818 656.7996 L 192.88394 655.0221 C 192.98115 655.0096 193.0781 654.9951 193.1747 654.9785 L 199.72819 653.85506 C 199.92915 653.8206 200.13153 653.79495 200.33473 653.7782 L 203.56706 653.5112 C 204.4563 653.43775 205.3233 653.195 206.12135 652.79594 L 207.60765 652.0528 C 208.20824 651.7525 208.7625 651.36735 209.25338 650.9092 L 210.5885 649.6631 C 211.19532 649.0967 211.65073 648.3875 211.91322 647.6 L 212.20805 646.7155 C 212.27812 646.5053 212.33817 646.2919 212.388 646.07595 L 212.8577 644.04056 C 212.89293 643.8879 212.8595 643.7275 212.7662 643.6017 L 212.7662 643.6017 C 212.67587 643.4798 212.52523 643.4183 212.3754 643.44214 L 203.89555 644.7912 C 203.84466 644.7993 203.79385 644.808 203.74315 644.8172 L 190.7584 647.17805 C 190.6656 647.1949 190.5725 647.2099 190.47911 647.223 L 179.24943 648.7991 C 179.22928 648.80194 179.20914 648.80486 179.18902 648.80786 L 166.06643 650.76645 C 165.90167 650.79105 165.73608 650.80975 165.56998 650.8225 L 152.84517 651.80136 C 152.82786 651.8027 152.81055 651.80396 152.79323 651.80516 L 138.45308 652.801 C 138.4305 652.8026 138.4079 652.804 138.3853 652.8054 L 125.08205 653.5996 C 125.04016 653.6021 124.99824 653.6042 124.9563 653.606 L 110.76485 654.1973 C 110.66776 654.2013 110.5706 654.20335 110.47344 654.20335 L 84.67753 654.20335 C 84.63865 654.20335 84.59976 654.2037 84.56088 654.2043 L 72.8025 654.4003 C 72.68032 654.4023 72.55812 654.4012 72.436005 654.3968 L 61.602405 654.0099 C 61.48029 654.0055 61.35809 654.0044 61.235914 654.0064 L 49.521274 654.20165 C 49.45323 654.2028 49.385176 654.2029 49.31713 654.2021 L 33.614845 654.0058 C 33.484443 654.0042 33.354113 653.9989 33.224007 653.99 L 18.91423 653.0099 C 18.850882 653.0055 18.787597 653.0003 18.724392 652.9943 L 4.233386 651.6047 C 4.2239315 651.6038 4.214479 651.6029 4.205028 651.6019 L -9.607008 650.2207 C -9.722849 650.20915 -9.838382 650.1947 -9.953501 650.1773 L -24.262653 648.02116 C -24.34141 648.0093 -24.420363 647.9988 -24.49948 647.9896 L -38.01941 646.4221 C -38.126987 646.4096 -38.23426 646.3946 -38.34114 646.3772 L -47.73323 644.8438 C -47.89822 644.8168 -48.062195 644.784 -48.224836 644.7453 L -57.302435 642.58654 C -57.690754 642.4942 -58.08041 642.7341 -58.17276 643.12244 C -58.17884 643.148 -58.183525 643.1739 -58.18679 643.2 Z" stroke="#7f8080" stroke-linecap="round" stroke-linejoin="round" stroke-width="1"/>
      </g>
    </g>
  </g>
</svg>
