<?xml version="1.0" encoding="UTF-8" standalone="no"?>
<!DOCTYPE svg PUBLIC "-//W3C//DTD SVG 1.1//EN" "http://www.w3.org/Graphics/SVG/1.1/DTD/svg11.dtd">
<svg xmlns:xl="http://www.w3.org/1999/xlink" xmlns:dc="http://purl.org/dc/elements/1.1/" xmlns="http://www.w3.org/2000/svg" version="1.1" viewBox="67 25 433 449" width="433" height="449">
  <defs>
    <radialGradient cx="0" cy="0" r="1" id="Gradient" gradientUnits="userSpaceOnUse">
      <stop offset="0" stop-color="#cbcbcb"/>
      <stop offset=".4338305" stop-color="#747a80"/>
      <stop offset="1" stop-color="#021122"/>
    </radialGradient>
    <radialGradient id="Obj_Gradient" xl:href="#Gradient" gradientTransform="translate(282.75925 53.4) scale(70.26272)"/>
    <linearGradient x1="0" x2="1" id="Gradient_2" gradientUnits="userSpaceOnUse">
      <stop offset="0" stop-color="#00c100"/>
      <stop offset="1" stop-color="#dadada"/>
    </linearGradient>
    <linearGradient id="Obj_Gradient_2" xl:href="#Gradient_2" gradientTransform="translate(282.05925 26.755892) rotate(90) scale(25)"/>
  </defs>
  <metadata> Produced by OmniGraffle 7.19.2\n2023-12-06 01:13:20 +0000</metadata>
  <g id="Canvas_94" stroke-opacity="1" fill-opacity="1" stroke-dasharray="none" fill="none" stroke="none">
    <title>Canvas 94</title>
    <g id="Canvas_94_Capa_1">
      <title>Capa 1</title>
      <g id="Graphic_12">
        <path d="M 344.51284 26.590446 L 336.3474 29.708164 C 335.4894 30.03576 334.61256 30.311673 333.72157 30.53442 L 320.0044 33.963713 C 318.84274 34.254128 317.66018 34.453383 316.4675 34.55966 L 298.94135 36.121397 C 298.3535 36.17378 297.76385 36.203517 297.17372 36.210542 L 281.6948 36.394815 C 281.40446 36.39827 281.11408 36.39623 280.8238 36.38869 L 266.4005 36.01406 C 266.0397 36.004688 265.6792 35.986826 265.31926 35.96049 L 250.94797 34.90893 C 249.95653 34.836387 248.97084 34.699642 247.9971 34.49956 L 236.42413 32.12155 C 235.38213 31.907442 234.35624 31.6213 233.35385 31.265186 L 221.60185 27.090136 C 220.51148 26.702767 219.30828 27.233542 218.85925 28.3 L 218.85925 28.3 C 218.3371 29.540106 218.18511 30.904854 218.42165 32.22945 L 218.60213 33.24014 C 218.9059 34.941294 219.40044 36.602796 220.07635 38.19319 L 221.61958 41.82431 C 222.17814 43.13858 222.8579 44.397975 223.65003 45.58618 L 227.33581 51.11485 C 228.08332 52.236114 228.92793 53.289513 229.8599 54.26289 L 236.15495 60.83774 C 237.02303 61.74439 237.96386 62.57846 238.96804 63.33159 L 247.34294 69.61277 C 248.21936 70.270084 249.14162 70.86394 250.10268 71.3898 L 257.28788 75.32133 C 258.599 76.038735 259.97693 76.62664 261.40212 77.0767 L 268.07503 79.18393 C 269.7919 79.7261 271.5665 80.0648 273.36237 80.19308 L 280.24882 80.68497 C 281.32112 80.76156 282.39747 80.76288 283.46995 80.68892 L 291.9062 80.10711 C 292.9404 80.03578 293.96856 79.89463 294.9837 79.6846 L 302.1189 78.20835 C 304.07085 77.8045 305.96202 77.14861 307.74488 76.257185 L 312.4043 73.92748 C 313.63843 73.31041 314.81453 72.58354 315.91838 71.755655 L 321.60033 67.49419 C 322.03947 67.164835 322.46667 66.81987 322.88113 66.45995 L 328.6363 61.46203 C 329.4506 60.754885 330.21413 59.991345 330.92128 59.17706 L 335.3265 54.104376 C 336.0806 53.236015 336.7685 52.312315 337.38444 51.34105 L 341.11814 45.45329 C 341.4787 44.884704 341.81413 44.30056 342.12345 43.70255 L 343.74382 40.569827 C 344.35297 39.39215 344.85913 38.164 345.25667 36.89911 L 346.5369 32.825623 C 346.7517 32.142248 346.9344 31.44921 347.0845 30.74878 L 347.15925 30.4 C 347.3539 29.491574 347.24665 28.54443 346.85377 27.702543 L 346.75925 27.5 C 346.36477 26.654693 345.3843 26.257707 344.51284 26.590446 Z" fill="url(#Obj_Gradient)"/>
        <path d="M 344.51284 26.590446 L 336.3474 29.708164 C 335.4894 30.03576 334.61256 30.311673 333.72157 30.53442 L 320.0044 33.963713 C 318.84274 34.254128 317.66018 34.453383 316.4675 34.55966 L 298.94135 36.121397 C 298.3535 36.17378 297.76385 36.203517 297.17372 36.210542 L 281.6948 36.394815 C 281.40446 36.39827 281.11408 36.39623 280.8238 36.38869 L 266.4005 36.01406 C 266.0397 36.004688 265.6792 35.986826 265.31926 35.96049 L 250.94797 34.90893 C 249.95653 34.836387 248.97084 34.699642 247.9971 34.49956 L 236.42413 32.12155 C 235.38213 31.907442 234.35624 31.6213 233.35385 31.265186 L 221.60185 27.090136 C 220.51148 26.702767 219.30828 27.233542 218.85925 28.3 L 218.85925 28.3 C 218.3371 29.540106 218.18511 30.904854 218.42165 32.22945 L 218.60213 33.24014 C 218.9059 34.941294 219.40044 36.602796 220.07635 38.19319 L 221.61958 41.82431 C 222.17814 43.13858 222.8579 44.397975 223.65003 45.58618 L 227.33581 51.11485 C 228.08332 52.236114 228.92793 53.289513 229.8599 54.26289 L 236.15495 60.83774 C 237.02303 61.74439 237.96386 62.57846 238.96804 63.33159 L 247.34294 69.61277 C 248.21936 70.270084 249.14162 70.86394 250.10268 71.3898 L 257.28788 75.32133 C 258.599 76.038735 259.97693 76.62664 261.40212 77.0767 L 268.07503 79.18393 C 269.7919 79.7261 271.5665 80.0648 273.36237 80.19308 L 280.24882 80.68497 C 281.32112 80.76156 282.39747 80.76288 283.46995 80.68892 L 291.9062 80.10711 C 292.9404 80.03578 293.96856 79.89463 294.9837 79.6846 L 302.1189 78.20835 C 304.07085 77.8045 305.96202 77.14861 307.74488 76.257185 L 312.4043 73.92748 C 313.63843 73.31041 314.81453 72.58354 315.91838 71.755655 L 321.60033 67.49419 C 322.03947 67.164835 322.46667 66.81987 322.88113 66.45995 L 328.6363 61.46203 C 329.4506 60.754885 330.21413 59.991345 330.92128 59.17706 L 335.3265 54.104376 C 336.0806 53.236015 336.7685 52.312315 337.38444 51.34105 L 341.11814 45.45329 C 341.4787 44.884704 341.81413 44.30056 342.12345 43.70255 L 343.74382 40.569827 C 344.35297 39.39215 344.85913 38.164 345.25667 36.89911 L 346.5369 32.825623 C 346.7517 32.142248 346.9344 31.44921 347.0845 30.74878 L 347.15925 30.4 C 347.3539 29.491574 347.24665 28.54443 346.85377 27.702543 L 346.75925 27.5 C 346.36477 26.654693 345.3843 26.257707 344.51284 26.590446 Z" stroke="#7f8080" stroke-linecap="round" stroke-linejoin="round" stroke-width="1"/>
      </g>
      <g id="Graphic_11">
        <path d="M 410.43183 463.2638 L 396.6896 465.55416 C 396.5062 465.5847 396.3223 465.6121 396.138 465.63624 L 367.78435 469.35154 C 367.5378 469.38385 367.29057 469.4104 367.0428 469.4312 L 336.7999 471.9677 C 336.543 471.98923 336.28563 472.00456 336.028 472.01367 L 297.09707 473.39 C 296.9087 473.3967 296.72024 473.4 296.53177 473.4 L 265.06444 473.4 C 264.89783 473.4 264.73122 473.3974 264.5647 473.3922 L 239.5299 472.60986 C 239.31966 472.6033 239.10956 472.5926 238.89974 472.5777 L 216.852 471.0168 C 216.69368 471.0056 216.53554 470.99205 216.37763 470.97614 L 191.11714 468.4305 C 190.9154 468.4102 190.71407 468.386 190.51325 468.358 L 166.72055 465.04265 C 166.51654 465.0142 166.3131 464.98186 166.11033 464.9456 L 156.9145 463.3 C 151.5874 462.34674 147.93653 457.3931 148.60295 452.02255 L 150.81054 434.232 C 150.81318 434.21066 150.81578 434.18934 150.81834 434.168 L 154.38217 404.4695 C 154.40372 404.28985 154.42223 404.10985 154.43768 403.9296 L 156.7999 376.37037 C 156.80964 376.2568 156.81816 376.1431 156.82546 376.02936 L 158.21208 354.43772 C 158.2137 354.41258 158.21537 354.38744 158.2171 354.3623 L 159.80926 331.276 C 159.81276 331.22533 159.81601 331.17466 159.81902 331.12398 L 160.99539 311.3218 C 161.00813 311.1073 161.01655 310.89255 161.02064 310.6777 L 161.41293 290.08285 C 161.41398 290.02762 161.41532 289.9724 161.41694 289.91718 L 162.01207 269.68283 C 162.0137 269.6276 162.01503 269.5724 162.01608 269.51715 L 162.40674 249.0076 C 162.41192 248.73592 162.41017 248.46413 162.4015 248.19253 L 161.81555 229.83292 C 161.81485 229.81097 161.8141 229.78903 161.81332 229.7671 L 161.02524 207.89779 C 161.01808 207.69928 161.00723 207.50093 160.9927 207.30283 L 159.43522 186.0822 C 159.4214 185.89409 159.41093 185.70573 159.40378 185.51724 L 158.64933 165.61837 C 158.62614 165.00663 158.56785 164.39672 158.47477 163.79165 L 155.73576 145.98813 C 155.65498 145.46304 155.5481 144.94229 155.4155 144.42783 L 150.78723 126.47017 C 150.67213 126.0236 150.53778 125.58221 150.38456 125.14725 L 144.66377 108.9076 C 144.49769 108.43613 144.3096 107.97269 144.10012 107.51883 L 138.56856 95.53379 C 138.46587 95.31129 138.35808 95.09119 138.24528 94.87364 L 132.88306 84.53222 C 132.83736 84.44407 132.79083 84.35636 132.7435 84.26908 L 127.52752 74.65212 C 126.79024 73.29276 125.84061 72.05987 124.7145 71 L 124.7145 71 C 124.03931 70.36453 124.00712 69.30203 124.64259 68.62684 C 124.76708 68.49456 124.91222 68.38337 125.07234 68.29759 L 128.28648 66.57573 C 128.50513 66.45859 128.72648 66.34656 128.95035 66.23971 L 136.80432 62.491224 C 137.21093 62.29716 137.62555 62.12036 138.04708 61.96129 L 147.72191 58.31041 C 147.91696 58.23681 148.11342 58.16703 148.31119 58.10111 L 161.00566 53.869615 C 161.14488 53.82321 161.28474 53.77872 161.42519 53.73616 L 174.3087 49.83206 C 174.37924 49.81069 174.44962 49.78883 174.51985 49.76648 L 187.02384 45.78794 C 187.41747 45.662693 187.8061 45.52225 188.18886 45.36693 L 200.1648 40.507127 C 200.99646 40.16964 201.79825 39.762775 202.56169 39.290834 L 212.18093 33.34439 C 212.33664 33.248137 212.49068 33.14922 212.64298 33.04768 L 217.53308 29.787616 C 218.51448 29.133353 219.3858 28.327453 220.1145 27.4 L 220.1145 27.4 C 220.2201 27.265596 220.41467 27.242248 220.54908 27.34785 C 220.65182 27.428576 220.6928 27.565127 220.65148 27.689083 L 220.5145 28.1 C 220.05525 29.47775 219.9507 30.949037 220.21048 32.37789 L 220.60562 34.551155 C 220.87683 36.042813 221.35868 37.48835 222.0367 38.844405 L 223.56903 41.90904 C 223.86572 42.50244 224.19904 43.07681 224.56706 43.628825 L 227.77076 48.43438 C 228.19936 49.077283 228.67397 49.68829 229.19086 50.262615 L 233.7529 55.331555 C 233.79397 55.377185 233.8353 55.42258 233.8769 55.46773 L 239.87112 61.97576 C 240.49886 62.6573 241.1846 63.28302 241.92064 63.84587 L 246.94482 67.68789 C 247.39097 68.02906 247.85477 68.3465 248.3343 68.6389 L 254.8207 72.59403 C 255.48237 72.99748 256.17246 73.35232 256.88554 73.65576 L 264.00095 76.6836 C 264.80862 77.02728 265.6432 77.30393 266.49624 77.51072 L 270.5753 78.49959 C 271.40013 78.69955 272.23956 78.83356 273.08566 78.900355 L 278.78586 79.35037 C 279.2048 79.383445 279.62487 79.4 280.0451 79.4 L 287.07742 79.4 C 287.83452 79.4 288.59067 79.34626 289.34016 79.23919 L 297.2866 78.10399 C 297.77162 78.0347 298.2532 77.94317 298.7298 77.82969 L 304.69103 76.41035 C 305.8365 76.13762 306.9484 75.73927 308.00646 75.22253 L 314.28647 72.15556 C 314.7715 71.91867 315.24427 71.65739 315.7029 71.37272 L 319.91477 68.75846 C 320.51394 68.38656 321.08787 67.975456 321.6328 67.527835 L 326.0789 63.87568 C 326.3026 63.69193 326.52127 63.50214 326.73466 63.30652 L 330.537 59.82104 C 330.9883 59.407356 331.4155 58.96811 331.81644 58.505465 L 335.9352 53.753066 C 336.25457 53.38455 336.55693 53.00162 336.84134 52.605486 L 341.271 46.43561 C 341.7659 45.746296 342.20516 45.018704 342.58465 44.25972 L 345.1611 39.10679 C 345.1967 39.0356 345.23177 38.96414 345.2663 38.892424 L 346.5145 36.3 C 347.36522 34.53313 347.72074 32.568594 347.5432 30.615642 L 347.363 28.633386 C 347.3392 28.371524 347.53217 28.139945 347.79404 28.11614 C 347.95643 28.101376 348.1151 28.17075 348.2145 28.3 L 348.2145 28.3 C 348.87795 29.16248 349.65806 29.92856 350.53244 30.576246 L 354.42897 33.462567 C 354.55266 33.554184 354.67765 33.644012 354.80393 33.732022 L 359.4262 36.95359 C 360.6129 37.78071 361.90634 38.443076 363.2711 38.922582 L 367.8782 40.5413 C 368.3688 40.713665 368.85066 40.90984 369.32213 41.129127 L 376.1689 44.313676 C 376.86507 44.63747 377.58364 44.91074 378.31904 45.13136 L 389.18943 48.392476 C 389.20615 48.39749 389.22286 48.402536 389.23957 48.407607 L 400.20765 51.737205 C 400.34555 51.779067 400.48288 51.82279 400.6196 51.86836 L 413.54083 56.17544 C 413.58995 56.191813 413.63915 56.20795 413.68843 56.223845 L 425.05583 59.89075 C 425.6943 60.09671 426.3192 60.34263 426.92683 60.627044 L 434.8588 64.33988 C 435.22913 64.51323 435.5927 64.70071 435.94867 64.90192 L 441.8948 68.262765 C 443.1478 68.971 443.58946 70.560925 442.8812 71.81396 C 442.8041 71.9504 442.71484 72.0796 442.6145 72.2 L 441.7504 73.23693 C 440.99545 74.14287 440.343 75.12949 439.80486 76.17882 L 436.7277 82.17924 C 436.65225 82.3264 436.5745 82.47239 436.4945 82.61715 L 432.53975 89.77337 C 432.45626 89.92445 432.3752 90.07687 432.29666 90.23057 L 428.18836 98.26856 C 427.9393 98.75587 427.7154 99.25563 427.51753 99.76589 L 424.03476 108.74776 C 424.02126 108.78259 424.00763 108.81737 423.9939 108.8521 L 420.39757 117.93754 C 420.27556 118.24577 420.16316 118.55772 420.06053 118.87294 L 417.4387 126.92572 C 417.42257 126.97524 417.4067 127.02484 417.39105 127.07452 L 414.319 136.83279 C 414.1162 137.47695 413.9544 138.1333 413.83456 138.79792 L 411.84924 149.80737 C 411.8261 149.93579 411.8045 150.06448 411.7845 150.19342 L 410.07862 161.1868 C 410.0359 161.46222 410.00035 161.73871 409.97206 162.01598 L 409.08464 170.7127 C 409.0379 171.17069 409.01096 171.63048 409.0039 172.0908 L 408.81964 184.06641 C 408.8162 184.28878 408.80816 184.51105 408.79547 184.73309 L 408.0251 198.21465 C 408.01804 198.33821 408.00954 198.4617 407.9996 198.58506 L 406.66605 215.15943 C 406.6317 215.5863 406.6145 216.0144 406.6145 216.44264 L 406.6145 228.89242 C 406.6145 229.09746 406.61057 229.30247 406.6027 229.50735 L 406.02234 244.5965 C 406.0171 244.73216 406.01363 244.8679 406.01186 245.00365 L 405.8197 259.7999 C 405.81624 260.0666 405.81945 260.33333 405.8293 260.59986 L 406.40355 276.104 C 406.41085 276.30132 406.4145 276.49875 406.4145 276.6962 L 406.4145 290.29243 C 406.4145 290.49746 406.41845 290.70247 406.42633 290.90736 L 407.0115 306.12236 C 407.0135 306.17412 407.01575 306.22588 407.01825 306.2776 L 407.81357 322.78055 C 407.8142 322.79352 407.81484 322.8065 407.8155 322.81945 L 408.61 338.51062 C 408.613 338.5702 408.61635 338.6298 408.62003 338.68933 L 409.80894 357.91007 C 409.81265 357.97003 409.8167 358.02996 409.8211 358.08987 L 411.6042 382.45942 C 411.6111 382.55314 411.61876 382.6468 411.62727 382.7404 L 413.41316 402.3852 C 413.41406 402.39507 413.41497 402.40494 413.4159 402.4148 L 415.18665 421.4997 C 415.2052 421.6999 415.22756 421.8997 415.25367 422.09903 L 417.2144 437.07175 C 417.3472 438.08594 417.61633 439.07756 418.0145 440.01973 L 418.0145 440.01973 C 418.4121 440.9605 418.66075 441.9574 418.7516 442.97465 L 419.5145 451.51973 C 420.02226 457.20676 416.0638 462.3251 410.43183 463.2638 Z" fill="white"/>
        <path d="M 410.43183 463.2638 L 396.6896 465.55416 C 396.5062 465.5847 396.3223 465.6121 396.138 465.63624 L 367.78435 469.35154 C 367.5378 469.38385 367.29057 469.4104 367.0428 469.4312 L 336.7999 471.9677 C 336.543 471.98923 336.28563 472.00456 336.028 472.01367 L 297.09707 473.39 C 296.9087 473.3967 296.72024 473.4 296.53177 473.4 L 265.06444 473.4 C 264.89783 473.4 264.73122 473.3974 264.5647 473.3922 L 239.5299 472.60986 C 239.31966 472.6033 239.10956 472.5926 238.89974 472.5777 L 216.852 471.0168 C 216.69368 471.0056 216.53554 470.99205 216.37763 470.97614 L 191.11714 468.4305 C 190.9154 468.4102 190.71407 468.386 190.51325 468.358 L 166.72055 465.04265 C 166.51654 465.0142 166.3131 464.98186 166.11033 464.9456 L 156.9145 463.3 C 151.5874 462.34674 147.93653 457.3931 148.60295 452.02255 L 150.81054 434.232 C 150.81318 434.21066 150.81578 434.18934 150.81834 434.168 L 154.38217 404.4695 C 154.40372 404.28985 154.42223 404.10985 154.43768 403.9296 L 156.7999 376.37037 C 156.80964 376.2568 156.81816 376.1431 156.82546 376.02936 L 158.21208 354.43772 C 158.2137 354.41258 158.21537 354.38744 158.2171 354.3623 L 159.80926 331.276 C 159.81276 331.22533 159.81601 331.17466 159.81902 331.12398 L 160.99539 311.3218 C 161.00813 311.1073 161.01655 310.89255 161.02064 310.6777 L 161.41293 290.08285 C 161.41398 290.02762 161.41532 289.9724 161.41694 289.91718 L 162.01207 269.68283 C 162.0137 269.6276 162.01503 269.5724 162.01608 269.51715 L 162.40674 249.0076 C 162.41192 248.73592 162.41017 248.46413 162.4015 248.19253 L 161.81555 229.83292 C 161.81485 229.81097 161.8141 229.78903 161.81332 229.7671 L 161.02524 207.89779 C 161.01808 207.69928 161.00723 207.50093 160.9927 207.30283 L 159.43522 186.0822 C 159.4214 185.89409 159.41093 185.70573 159.40378 185.51724 L 158.64933 165.61837 C 158.62614 165.00663 158.56785 164.39672 158.47477 163.79165 L 155.73576 145.98813 C 155.65498 145.46304 155.5481 144.94229 155.4155 144.42783 L 150.78723 126.47017 C 150.67213 126.0236 150.53778 125.58221 150.38456 125.14725 L 144.66377 108.9076 C 144.49769 108.43613 144.3096 107.97269 144.10012 107.51883 L 138.56856 95.53379 C 138.46587 95.31129 138.35808 95.09119 138.24528 94.87364 L 132.88306 84.53222 C 132.83736 84.44407 132.79083 84.35636 132.7435 84.26908 L 127.52752 74.65212 C 126.79024 73.29276 125.84061 72.05987 124.7145 71 L 124.7145 71 C 124.03931 70.36453 124.00712 69.30203 124.64259 68.62684 C 124.76708 68.49456 124.91222 68.38337 125.07234 68.29759 L 128.28648 66.57573 C 128.50513 66.45859 128.72648 66.34656 128.95035 66.23971 L 136.80432 62.491224 C 137.21093 62.29716 137.62555 62.12036 138.04708 61.96129 L 147.72191 58.31041 C 147.91696 58.23681 148.11342 58.16703 148.31119 58.10111 L 161.00566 53.869615 C 161.14488 53.82321 161.28474 53.77872 161.42519 53.73616 L 174.3087 49.83206 C 174.37924 49.81069 174.44962 49.78883 174.51985 49.76648 L 187.02384 45.78794 C 187.41747 45.662693 187.8061 45.52225 188.18886 45.36693 L 200.1648 40.507127 C 200.99646 40.16964 201.79825 39.762775 202.56169 39.290834 L 212.18093 33.34439 C 212.33664 33.248137 212.49068 33.14922 212.64298 33.04768 L 217.53308 29.787616 C 218.51448 29.133353 219.3858 28.327453 220.1145 27.4 L 220.1145 27.4 C 220.2201 27.265596 220.41467 27.242248 220.54908 27.34785 C 220.65182 27.428576 220.6928 27.565127 220.65148 27.689083 L 220.5145 28.1 C 220.05525 29.47775 219.9507 30.949037 220.21048 32.37789 L 220.60562 34.551155 C 220.87683 36.042813 221.35868 37.48835 222.0367 38.844405 L 223.56903 41.90904 C 223.86572 42.50244 224.19904 43.07681 224.56706 43.628825 L 227.77076 48.43438 C 228.19936 49.077283 228.67397 49.68829 229.19086 50.262615 L 233.7529 55.331555 C 233.79397 55.377185 233.8353 55.42258 233.8769 55.46773 L 239.87112 61.97576 C 240.49886 62.6573 241.1846 63.28302 241.92064 63.84587 L 246.94482 67.68789 C 247.39097 68.02906 247.85477 68.3465 248.3343 68.6389 L 254.8207 72.59403 C 255.48237 72.99748 256.17246 73.35232 256.88554 73.65576 L 264.00095 76.6836 C 264.80862 77.02728 265.6432 77.30393 266.49624 77.51072 L 270.5753 78.49959 C 271.40013 78.69955 272.23956 78.83356 273.08566 78.900355 L 278.78586 79.35037 C 279.2048 79.383445 279.62487 79.4 280.0451 79.4 L 287.07742 79.4 C 287.83452 79.4 288.59067 79.34626 289.34016 79.23919 L 297.2866 78.10399 C 297.77162 78.0347 298.2532 77.94317 298.7298 77.82969 L 304.69103 76.41035 C 305.8365 76.13762 306.9484 75.73927 308.00646 75.22253 L 314.28647 72.15556 C 314.7715 71.91867 315.24427 71.65739 315.7029 71.37272 L 319.91477 68.75846 C 320.51394 68.38656 321.08787 67.975456 321.6328 67.527835 L 326.0789 63.87568 C 326.3026 63.69193 326.52127 63.50214 326.73466 63.30652 L 330.537 59.82104 C 330.9883 59.407356 331.4155 58.96811 331.81644 58.505465 L 335.9352 53.753066 C 336.25457 53.38455 336.55693 53.00162 336.84134 52.605486 L 341.271 46.43561 C 341.7659 45.746296 342.20516 45.018704 342.58465 44.25972 L 345.1611 39.10679 C 345.1967 39.0356 345.23177 38.96414 345.2663 38.892424 L 346.5145 36.3 C 347.36522 34.53313 347.72074 32.568594 347.5432 30.615642 L 347.363 28.633386 C 347.3392 28.371524 347.53217 28.139945 347.79404 28.11614 C 347.95643 28.101376 348.1151 28.17075 348.2145 28.3 L 348.2145 28.3 C 348.87795 29.16248 349.65806 29.92856 350.53244 30.576246 L 354.42897 33.462567 C 354.55266 33.554184 354.67765 33.644012 354.80393 33.732022 L 359.4262 36.95359 C 360.6129 37.78071 361.90634 38.443076 363.2711 38.922582 L 367.8782 40.5413 C 368.3688 40.713665 368.85066 40.90984 369.32213 41.129127 L 376.1689 44.313676 C 376.86507 44.63747 377.58364 44.91074 378.31904 45.13136 L 389.18943 48.392476 C 389.20615 48.39749 389.22286 48.402536 389.23957 48.407607 L 400.20765 51.737205 C 400.34555 51.779067 400.48288 51.82279 400.6196 51.86836 L 413.54083 56.17544 C 413.58995 56.191813 413.63915 56.20795 413.68843 56.223845 L 425.05583 59.89075 C 425.6943 60.09671 426.3192 60.34263 426.92683 60.627044 L 434.8588 64.33988 C 435.22913 64.51323 435.5927 64.70071 435.94867 64.90192 L 441.8948 68.262765 C 443.1478 68.971 443.58946 70.560925 442.8812 71.81396 C 442.8041 71.9504 442.71484 72.0796 442.6145 72.2 L 441.7504 73.23693 C 440.99545 74.14287 440.343 75.12949 439.80486 76.17882 L 436.7277 82.17924 C 436.65225 82.3264 436.5745 82.47239 436.4945 82.61715 L 432.53975 89.77337 C 432.45626 89.92445 432.3752 90.07687 432.29666 90.23057 L 428.18836 98.26856 C 427.9393 98.75587 427.7154 99.25563 427.51753 99.76589 L 424.03476 108.74776 C 424.02126 108.78259 424.00763 108.81737 423.9939 108.8521 L 420.39757 117.93754 C 420.27556 118.24577 420.16316 118.55772 420.06053 118.87294 L 417.4387 126.92572 C 417.42257 126.97524 417.4067 127.02484 417.39105 127.07452 L 414.319 136.83279 C 414.1162 137.47695 413.9544 138.1333 413.83456 138.79792 L 411.84924 149.80737 C 411.8261 149.93579 411.8045 150.06448 411.7845 150.19342 L 410.07862 161.1868 C 410.0359 161.46222 410.00035 161.73871 409.97206 162.01598 L 409.08464 170.7127 C 409.0379 171.17069 409.01096 171.63048 409.0039 172.0908 L 408.81964 184.06641 C 408.8162 184.28878 408.80816 184.51105 408.79547 184.73309 L 408.0251 198.21465 C 408.01804 198.33821 408.00954 198.4617 407.9996 198.58506 L 406.66605 215.15943 C 406.6317 215.5863 406.6145 216.0144 406.6145 216.44264 L 406.6145 228.89242 C 406.6145 229.09746 406.61057 229.30247 406.6027 229.50735 L 406.02234 244.5965 C 406.0171 244.73216 406.01363 244.8679 406.01186 245.00365 L 405.8197 259.7999 C 405.81624 260.0666 405.81945 260.33333 405.8293 260.59986 L 406.40355 276.104 C 406.41085 276.30132 406.4145 276.49875 406.4145 276.6962 L 406.4145 290.29243 C 406.4145 290.49746 406.41845 290.70247 406.42633 290.90736 L 407.0115 306.12236 C 407.0135 306.17412 407.01575 306.22588 407.01825 306.2776 L 407.81357 322.78055 C 407.8142 322.79352 407.81484 322.8065 407.8155 322.81945 L 408.61 338.51062 C 408.613 338.5702 408.61635 338.6298 408.62003 338.68933 L 409.80894 357.91007 C 409.81265 357.97003 409.8167 358.02996 409.8211 358.08987 L 411.6042 382.45942 C 411.6111 382.55314 411.61876 382.6468 411.62727 382.7404 L 413.41316 402.3852 C 413.41406 402.39507 413.41497 402.40494 413.4159 402.4148 L 415.18665 421.4997 C 415.2052 421.6999 415.22756 421.8997 415.25367 422.09903 L 417.2144 437.07175 C 417.3472 438.08594 417.61633 439.07756 418.0145 440.01973 L 418.0145 440.01973 C 418.4121 440.9605 418.66075 441.9574 418.7516 442.97465 L 419.5145 451.51973 C 420.02226 457.20676 416.0638 462.3251 410.43183 463.2638 Z" stroke="#7f8080" stroke-linecap="round" stroke-linejoin="round" stroke-width="1"/>
      </g>
      <g id="Graphic_10">
        <path d="M 68 177.44615 L 74.2 181.84615 L 82.4 185.84615 L 91 189.44615 L 100 193.24615 L 111 197.24615 L 120.4 200.04615 L 129.4 202.64615 L 138.4 205.24615 L 143.8 206.64615 L 149.4 207.64615 L 151.8 201.84615 L 154.4 196.44615 L 156.6 192.44615 L 159.2 189.04615 L 159.4 180.04615 L 158.8 169.04615 L 157 158.24615 L 155.4 147.84615 L 152.8 136.84614 L 150.4 127.24614 L 147.6 119.24614 L 144.4 109.84614 L 141.6 102.44614 L 138 94.84614 L 134 87.24614 L 130 79.84614 L 127.4 76.24614 L 123.8 70.44614 L 118.4 74.84614 L 113.6 79.64614 L 109 85.84614 L 104.6 92.04614 L 99.8 100.64614 L 95 110.04614 L 90.2 119.24614 L 86.6 127.84614 L 82.6 136.84614 L 79.4 145.04615 L 75.6 154.44615 L 72.8 162.44615 L 69.8 170.84615 Z" fill="white"/>
        <path d="M 68 177.44615 L 74.2 181.84615 L 82.4 185.84615 L 91 189.44615 L 100 193.24615 L 111 197.24615 L 120.4 200.04615 L 129.4 202.64615 L 138.4 205.24615 L 143.8 206.64615 L 149.4 207.64615 L 151.8 201.84615 L 154.4 196.44615 L 156.6 192.44615 L 159.2 189.04615 L 159.4 180.04615 L 158.8 169.04615 L 157 158.24615 L 155.4 147.84615 L 152.8 136.84614 L 150.4 127.24614 L 147.6 119.24614 L 144.4 109.84614 L 141.6 102.44614 L 138 94.84614 L 134 87.24614 L 130 79.84614 L 127.4 76.24614 L 123.8 70.44614 L 118.4 74.84614 L 113.6 79.64614 L 109 85.84614 L 104.6 92.04614 L 99.8 100.64614 L 95 110.04614 L 90.2 119.24614 L 86.6 127.84614 L 82.6 136.84614 L 79.4 145.04615 L 75.6 154.44615 L 72.8 162.44615 L 69.8 170.84615 Z" stroke="#7f8080" stroke-linecap="round" stroke-linejoin="round" stroke-width="1"/>
      </g>
      <g id="Graphic_9">
        <path d="M 499.4053 176.50275 L 493.2053 180.90275 L 485.0053 184.90275 L 476.4053 188.50275 L 467.4053 192.30275 L 456.4053 196.30275 L 447.0053 199.10275 L 438.0053 201.70275 L 429.0053 204.30275 L 423.6053 205.70275 L 418.0053 206.70275 L 415.6053 200.90275 L 413.0053 195.50275 L 410.8053 191.50275 L 408.2053 188.10275 L 408.0053 179.10275 L 408.6053 168.10275 L 410.4053 157.30275 L 412.0053 146.90275 L 414.6053 135.90275 L 417.0053 126.30275 L 419.8053 118.30275 L 423.0053 108.90275 L 425.8053 101.50275 L 429.4053 93.90275 L 433.4053 86.30275 L 437.4053 78.90275 L 440.0053 75.30275 L 443.6053 69.50275 L 449.0053 73.90275 L 453.8053 78.70275 L 458.4053 84.90275 L 462.8053 91.10275 L 467.6053 99.70275 L 472.4053 109.10275 L 477.2053 118.30275 L 480.8053 126.90275 L 484.8053 135.90275 L 488.0053 144.10275 L 491.8053 153.50275 L 494.6053 161.50275 L 497.6053 169.90275 Z" fill="white"/>
        <path d="M 499.4053 176.50275 L 493.2053 180.90275 L 485.0053 184.90275 L 476.4053 188.50275 L 467.4053 192.30275 L 456.4053 196.30275 L 447.0053 199.10275 L 438.0053 201.70275 L 429.0053 204.30275 L 423.6053 205.70275 L 418.0053 206.70275 L 415.6053 200.90275 L 413.0053 195.50275 L 410.8053 191.50275 L 408.2053 188.10275 L 408.0053 179.10275 L 408.6053 168.10275 L 410.4053 157.30275 L 412.0053 146.90275 L 414.6053 135.90275 L 417.0053 126.30275 L 419.8053 118.30275 L 423.0053 108.90275 L 425.8053 101.50275 L 429.4053 93.90275 L 433.4053 86.30275 L 437.4053 78.90275 L 440.0053 75.30275 L 443.6053 69.50275 L 449.0053 73.90275 L 453.8053 78.70275 L 458.4053 84.90275 L 462.8053 91.10275 L 467.6053 99.70275 L 472.4053 109.10275 L 477.2053 118.30275 L 480.8053 126.90275 L 484.8053 135.90275 L 488.0053 144.10275 L 491.8053 153.50275 L 494.6053 161.50275 L 497.6053 169.90275 Z" stroke="#7f8080" stroke-linecap="round" stroke-linejoin="round" stroke-width="1"/>
      </g>
      <g id="Graphic_8">
        <path d="M 68 177.44615 L 74.2 181.84615 L 82.4 185.84615 L 91 189.44615 L 100 193.24615 L 111 197.24615 L 120.4 200.04615 L 129.4 202.64615 L 138.4 205.24615 L 143.8 206.64615 L 149.4 207.64615 L 152.4 201.24615 L 148.6 200.44615 L 143.8 199.24615 L 138.2 198.04615 L 132.2 196.24615 L 127.6 194.84615 L 123.4 193.64615 L 118.8 191.64615 L 114.2 190.04615 L 109.4 188.04615 L 105.4 186.64615 L 100.2 184.44615 L 95.6 182.84615 L 90.8 180.64615 L 86 178.84615 L 82 176.84615 L 77.6 174.64615 L 73.2 172.44615 L 69.8 170.84615 Z" fill="#108f0e"/>
        <path d="M 68 177.44615 L 74.2 181.84615 L 82.4 185.84615 L 91 189.44615 L 100 193.24615 L 111 197.24615 L 120.4 200.04615 L 129.4 202.64615 L 138.4 205.24615 L 143.8 206.64615 L 149.4 207.64615 L 152.4 201.24615 L 148.6 200.44615 L 143.8 199.24615 L 138.2 198.04615 L 132.2 196.24615 L 127.6 194.84615 L 123.4 193.64615 L 118.8 191.64615 L 114.2 190.04615 L 109.4 188.04615 L 105.4 186.64615 L 100.2 184.44615 L 95.6 182.84615 L 90.8 180.64615 L 86 178.84615 L 82 176.84615 L 77.6 174.64615 L 73.2 172.44615 L 69.8 170.84615 Z" stroke="#7f8080" stroke-linecap="round" stroke-linejoin="round" stroke-width="1"/>
      </g>
      <g id="Graphic_7">
        <path d="M 499.4053 176.50275 L 493.2053 180.90275 L 485.0053 184.90275 L 476.4053 188.50275 L 467.4053 192.30275 L 456.4053 196.30275 L 447.0053 199.10275 L 438.0053 201.70275 L 429.0053 204.30275 L 423.6053 205.70275 L 418.0053 206.70275 L 415.0053 200.30275 L 418.8053 199.50275 L 423.6053 198.30275 L 429.2053 197.10275 L 435.2053 195.30275 L 439.8053 193.90275 L 444.0053 192.70275 L 448.6053 190.70275 L 453.2053 189.10275 L 458.0053 187.10275 L 462.0053 185.70275 L 467.2053 183.50275 L 471.8053 181.90275 L 476.6053 179.70275 L 481.4053 177.90275 L 485.4053 175.90275 L 489.8053 173.70275 L 494.2053 171.50275 L 497.6053 169.90275 Z" fill="#108f0e"/>
        <path d="M 499.4053 176.50275 L 493.2053 180.90275 L 485.0053 184.90275 L 476.4053 188.50275 L 467.4053 192.30275 L 456.4053 196.30275 L 447.0053 199.10275 L 438.0053 201.70275 L 429.0053 204.30275 L 423.6053 205.70275 L 418.0053 206.70275 L 415.0053 200.30275 L 418.8053 199.50275 L 423.6053 198.30275 L 429.2053 197.10275 L 435.2053 195.30275 L 439.8053 193.90275 L 444.0053 192.70275 L 448.6053 190.70275 L 453.2053 189.10275 L 458.0053 187.10275 L 462.0053 185.70275 L 467.2053 183.50275 L 471.8053 181.90275 L 476.6053 179.70275 L 481.4053 177.90275 L 485.4053 175.90275 L 489.8053 173.70275 L 494.2053 171.50275 L 497.6053 169.90275 Z" stroke="#7f8080" stroke-linecap="round" stroke-linejoin="round" stroke-width="1"/>
      </g>
      <g id="Graphic_6">
        <path d="M 347.00182 27.96379 L 351.731 32.017363 C 352.88134 33.003375 354.1263 33.87331 355.44773 34.614485 L 357.97436 36.03165 C 359.40954 36.836623 359.99034 38.60575 359.31155 40.104735 L 358.29394 42.35197 C 358.17236 42.620455 358.04563 42.88658 357.9138 43.150196 L 353.62456 51.72871 C 353.28277 52.4123 352.9071 53.078434 352.499 53.724625 L 350.1726 57.40808 C 349.73222 58.105345 349.25466 58.77842 348.742 59.42439 L 345.3313 63.72185 C 344.78525 64.409875 344.20023 65.06606 343.5791 65.68717 L 338.91308 70.35321 C 338.5122 70.75409 338.09663 71.14001 337.66723 71.51018 L 333.1037 75.44426 C 332.70905 75.78448 332.30295 76.11119 331.8861 76.42383 L 327.91116 79.40503 C 327.24524 79.90447 326.5527 80.36738 325.8366 80.79174 L 321.70355 83.24096 C 321.57555 83.31681 321.44682 83.39141 321.3174 83.46477 L 316.61983 86.12671 C 315.88154 86.54507 315.12067 86.92226 314.3407 87.25653 L 310.79087 88.77788 C 310.2049 89.02901 309.60876 89.25567 309.00397 89.45726 L 303.98586 91.12997 C 302.7386 91.54571 301.45802 91.85376 300.15815 92.05071 L 296.0593 92.67174 C 295.6942 92.72706 295.3278 92.77358 294.96044 92.81126 L 288.07934 93.51701 C 287.83416 93.54216 287.5886 93.56336 287.34274 93.58062 L 282.8156 93.89831 C 282.27973 93.93591 281.74272 93.95473 281.20554 93.95473 L 277.94348 93.95474 C 276.9898 93.95474 276.037 93.89542 275.09067 93.77713 L 271.10196 93.27854 C 270.442 93.19604 269.78592 93.08496 269.1356 92.9456 L 263.05356 91.64231 C 262.15968 91.45076 261.27802 91.2061 260.41327 90.90961 L 255.90442 89.36372 C 255.10977 89.09127 254.33064 88.77549 253.57054 88.41779 L 248.73717 86.14326 C 248.18697 85.88435 247.64726 85.60371 247.1193 85.30202 L 243.35144 83.14896 C 242.65865 82.75308 241.98693 82.321415 241.339 81.85572 L 236.66288 78.49475 C 236.1622 78.13489 235.67618 77.75503 235.20603 77.35611 L 229.88517 72.841445 C 229.50286 72.51706 229.13126 72.18026 228.77096 71.83158 L 224.07174 67.28396 C 223.43215 66.665 222.82903 66.009435 222.26542 65.32058 L 218.47214 60.68434 C 217.96542 60.065026 217.49138 59.41969 217.05193 58.750964 L 213.43475 53.246564 C 213.21932 52.91873 213.0123 52.58544 212.81392 52.24702 L 210.29083 47.942924 C 209.90488 47.28454 209.55194 46.607354 209.23332 45.91388 L 207.11463 41.30261 C 206.58176 40.14285 206.2106 38.915436 206.01155 37.654735 L 206.01155 37.654735 C 205.83324 36.525474 206.41255 35.412026 207.43963 34.909898 L 212.73306 32.321995 C 214.04752 31.67937 215.2821 30.88486 216.41155 29.954735 L 216.81756 29.620375 C 217.6619 28.925043 218.2853 27.998738 218.61155 26.954735 L 218.61155 26.954735 C 218.6582 26.80542 218.81708 26.7222 218.9664 26.768862 C 219.08147 26.804823 219.16118 26.909685 219.16502 27.030188 L 219.27426 30.45311 C 219.365 33.296186 219.98234 36.097764 221.09495 38.715667 L 221.97188 40.779043 C 222.53045 42.093314 223.2102 43.35271 224.00234 44.54091 L 227.68812 50.069584 C 228.43563 51.19085 229.28024 52.24425 230.2122 53.217624 L 236.50726 59.79247 C 237.37533 60.699125 238.31617 61.533196 239.32034 62.28633 L 247.69525 68.567505 C 248.57166 69.22482 249.49392 69.81867 250.45498 70.34454 L 257.6402 74.27606 C 258.9513 74.99347 260.32924 75.58137 261.75443 76.03143 L 268.42734 78.13867 C 270.1442 78.68084 271.9188 79.01954 273.71467 79.147815 L 280.60113 79.6397 C 281.67343 79.7163 282.74977 79.71762 283.82226 79.64365 L 292.2585 79.06184 C 293.2927 78.99052 294.32086 78.84936 295.336 78.63933 L 302.4712 77.16308 C 304.42315 76.75923 306.31433 76.10335 308.0972 75.21192 L 312.7566 72.882215 C 313.99073 72.26515 315.16684 71.53827 316.27068 70.71039 L 321.95264 66.44892 C 322.39177 66.11957 322.81898 65.7746 323.23343 65.41468 L 328.9886 60.41676 C 329.8029 59.70962 330.56644 58.94608 331.2736 58.131794 L 335.6788 53.05911 C 336.4329 52.19075 337.1208 51.26705 337.73674 50.295783 L 341.47044 44.40802 C 341.831 43.83944 342.16644 43.255295 342.47575 42.657283 L 344.09613 39.52456 C 344.70527 38.34688 345.21144 37.118736 345.60898 35.853845 L 346.8892 31.780357 C 347.104 31.09698 347.28672 30.403945 347.4368 29.703515 L 347.66223 28.651568 C 347.7473 28.254558 347.52095 27.856906 347.13614 27.727367 L 347.13614 27.727367 C 347.06365 27.702963 346.9851 27.741948 346.9607 27.814442 C 346.94268 27.867954 346.95895 27.927043 347.00182 27.96379 Z" fill="#108f0e"/>
        <path d="M 347.00182 27.96379 L 351.731 32.017363 C 352.88134 33.003375 354.1263 33.87331 355.44773 34.614485 L 357.97436 36.03165 C 359.40954 36.836623 359.99034 38.60575 359.31155 40.104735 L 358.29394 42.35197 C 358.17236 42.620455 358.04563 42.88658 357.9138 43.150196 L 353.62456 51.72871 C 353.28277 52.4123 352.9071 53.078434 352.499 53.724625 L 350.1726 57.40808 C 349.73222 58.105345 349.25466 58.77842 348.742 59.42439 L 345.3313 63.72185 C 344.78525 64.409875 344.20023 65.06606 343.5791 65.68717 L 338.91308 70.35321 C 338.5122 70.75409 338.09663 71.14001 337.66723 71.51018 L 333.1037 75.44426 C 332.70905 75.78448 332.30295 76.11119 331.8861 76.42383 L 327.91116 79.40503 C 327.24524 79.90447 326.5527 80.36738 325.8366 80.79174 L 321.70355 83.24096 C 321.57555 83.31681 321.44682 83.39141 321.3174 83.46477 L 316.61983 86.12671 C 315.88154 86.54507 315.12067 86.92226 314.3407 87.25653 L 310.79087 88.77788 C 310.2049 89.02901 309.60876 89.25567 309.00397 89.45726 L 303.98586 91.12997 C 302.7386 91.54571 301.45802 91.85376 300.15815 92.05071 L 296.0593 92.67174 C 295.6942 92.72706 295.3278 92.77358 294.96044 92.81126 L 288.07934 93.51701 C 287.83416 93.54216 287.5886 93.56336 287.34274 93.58062 L 282.8156 93.89831 C 282.27973 93.93591 281.74272 93.95473 281.20554 93.95473 L 277.94348 93.95474 C 276.9898 93.95474 276.037 93.89542 275.09067 93.77713 L 271.10196 93.27854 C 270.442 93.19604 269.78592 93.08496 269.1356 92.9456 L 263.05356 91.64231 C 262.15968 91.45076 261.27802 91.2061 260.41327 90.90961 L 255.90442 89.36372 C 255.10977 89.09127 254.33064 88.77549 253.57054 88.41779 L 248.73717 86.14326 C 248.18697 85.88435 247.64726 85.60371 247.1193 85.30202 L 243.35144 83.14896 C 242.65865 82.75308 241.98693 82.321415 241.339 81.85572 L 236.66288 78.49475 C 236.1622 78.13489 235.67618 77.75503 235.20603 77.35611 L 229.88517 72.841445 C 229.50286 72.51706 229.13126 72.18026 228.77096 71.83158 L 224.07174 67.28396 C 223.43215 66.665 222.82903 66.009435 222.26542 65.32058 L 218.47214 60.68434 C 217.96542 60.065026 217.49138 59.41969 217.05193 58.750964 L 213.43475 53.246564 C 213.21932 52.91873 213.0123 52.58544 212.81392 52.24702 L 210.29083 47.942924 C 209.90488 47.28454 209.55194 46.607354 209.23332 45.91388 L 207.11463 41.30261 C 206.58176 40.14285 206.2106 38.915436 206.01155 37.654735 L 206.01155 37.654735 C 205.83324 36.525474 206.41255 35.412026 207.43963 34.909898 L 212.73306 32.321995 C 214.04752 31.67937 215.2821 30.88486 216.41155 29.954735 L 216.81756 29.620375 C 217.6619 28.925043 218.2853 27.998738 218.61155 26.954735 L 218.61155 26.954735 C 218.6582 26.80542 218.81708 26.7222 218.9664 26.768862 C 219.08147 26.804823 219.16118 26.909685 219.16502 27.030188 L 219.27426 30.45311 C 219.365 33.296186 219.98234 36.097764 221.09495 38.715667 L 221.97188 40.779043 C 222.53045 42.093314 223.2102 43.35271 224.00234 44.54091 L 227.68812 50.069584 C 228.43563 51.19085 229.28024 52.24425 230.2122 53.217624 L 236.50726 59.79247 C 237.37533 60.699125 238.31617 61.533196 239.32034 62.28633 L 247.69525 68.567505 C 248.57166 69.22482 249.49392 69.81867 250.45498 70.34454 L 257.6402 74.27606 C 258.9513 74.99347 260.32924 75.58137 261.75443 76.03143 L 268.42734 78.13867 C 270.1442 78.68084 271.9188 79.01954 273.71467 79.147815 L 280.60113 79.6397 C 281.67343 79.7163 282.74977 79.71762 283.82226 79.64365 L 292.2585 79.06184 C 293.2927 78.99052 294.32086 78.84936 295.336 78.63933 L 302.4712 77.16308 C 304.42315 76.75923 306.31433 76.10335 308.0972 75.21192 L 312.7566 72.882215 C 313.99073 72.26515 315.16684 71.53827 316.27068 70.71039 L 321.95264 66.44892 C 322.39177 66.11957 322.81898 65.7746 323.23343 65.41468 L 328.9886 60.41676 C 329.8029 59.70962 330.56644 58.94608 331.2736 58.131794 L 335.6788 53.05911 C 336.4329 52.19075 337.1208 51.26705 337.73674 50.295783 L 341.47044 44.40802 C 341.831 43.83944 342.16644 43.255295 342.47575 42.657283 L 344.09613 39.52456 C 344.70527 38.34688 345.21144 37.118736 345.60898 35.853845 L 346.8892 31.780357 C 347.104 31.09698 347.28672 30.403945 347.4368 29.703515 L 347.66223 28.651568 C 347.7473 28.254558 347.52095 27.856906 347.13614 27.727367 L 347.13614 27.727367 C 347.06365 27.702963 346.9851 27.741948 346.9607 27.814442 C 346.94268 27.867954 346.95895 27.927043 347.00182 27.96379 Z" stroke="#7f8080" stroke-linecap="round" stroke-linejoin="round" stroke-width="1"/>
      </g>
      <g id="Graphic_5">
        <path d="M 346.05925 27.755892 L 340.65925 27.155892 L 333.85925 30.555892 L 328.85925 32.355892 L 320.45925 34.155892 L 312.05925 35.155892 L 304.05925 36.155892 L 296.45925 36.355892 L 287.85925 36.755892 L 276.25925 36.555892 L 267.85925 36.155892 L 258.45925 35.555892 L 250.05925 34.755892 L 240.85925 33.355892 L 232.65925 31.155892 L 226.85925 29.355892 L 221.25925 26.755892 L 218.45925 27.955892 L 218.05925 33.555892 L 220.85925 41.555893 L 226.25925 44.35589 L 236.85925 47.55589 L 248.25925 49.95589 L 259.45925 50.75589 L 271.85925 51.75589 L 282.25925 51.75589 L 291.65925 51.75589 L 303.25925 51.15589 L 314.45925 50.35589 L 325.05925 48.15589 L 333.65925 46.15589 L 339.85925 43.35589 L 341.85925 41.755893 L 345.05925 34.155892 Z" fill="url(#Obj_Gradient_2)"/>
        <path d="M 346.05925 27.755892 L 340.65925 27.155892 L 333.85925 30.555892 L 328.85925 32.355892 L 320.45925 34.155892 L 312.05925 35.155892 L 304.05925 36.155892 L 296.45925 36.355892 L 287.85925 36.755892 L 276.25925 36.555892 L 267.85925 36.155892 L 258.45925 35.555892 L 250.05925 34.755892 L 240.85925 33.355892 L 232.65925 31.155892 L 226.85925 29.355892 L 221.25925 26.755892 L 218.45925 27.955892 L 218.05925 33.555892 L 220.85925 41.555893 L 226.25925 44.35589 L 236.85925 47.55589 L 248.25925 49.95589 L 259.45925 50.75589 L 271.85925 51.75589 L 282.25925 51.75589 L 291.65925 51.75589 L 303.25925 51.15589 L 314.45925 50.35589 L 325.05925 48.15589 L 333.65925 46.15589 L 339.85925 43.35589 L 341.85925 41.755893 L 345.05925 34.155892 Z" stroke="#7f8080" stroke-linecap="round" stroke-linejoin="round" stroke-width="1"/>
      </g>
      <g id="Graphic_4">
        <path d="M 418.84614 453.2 L 418.84614 453.2 C 418.91183 453.7255 418.849 454.25905 418.66306 454.7549 L 418.01205 456.4909 C 417.8353 456.96227 417.6082 457.4132 417.33473 457.8358 L 416.3669 459.33153 C 415.82596 460.16756 415.11286 460.87855 414.27523 461.417 L 413.1972 462.11005 C 412.89693 462.3031 412.58235 462.47285 412.2562 462.6179 L 410.93934 463.2035 C 410.3428 463.46876 409.7121 463.6493 409.06556 463.7398 L 400.05514 465.00126 C 400.04515 465.00265 400.03515 465.00403 400.02515 465.0054 L 388.30915 466.594 C 388.26315 466.60024 388.2171 466.606 388.17098 466.61134 L 377.88804 467.79783 C 377.8561 467.8015 377.82416 467.805 377.7922 467.8082 L 364.08212 469.1991 C 364.05414 469.20193 364.02614 469.2046 363.99813 469.2071 L 352.89283 470.19865 C 352.8577 470.2018 352.82257 470.20466 352.7874 470.20726 L 342.10087 470.99886 C 342.0604 471.00185 342.0199 471.0045 341.97936 471.0068 L 331.47138 471.6016 C 331.45056 471.60276 331.42975 471.60404 331.40894 471.6054 L 319.36616 472.3951 C 319.28216 472.4006 319.19807 472.4046 319.11392 472.40707 L 305.6668 472.80257 C 305.64903 472.8031 305.63127 472.8037 305.6135 472.80434 L 294.96965 473.19856 C 294.88332 473.20176 294.79695 473.20335 294.71056 473.20335 L 284.10155 473.20335 C 284.0606 473.20335 284.0197 473.2037 283.97876 473.20443 L 272.89234 473.39893 C 272.72427 473.4019 272.55614 473.3988 272.3883 473.3896 L 261.76706 472.8103 C 261.68246 472.80566 261.59778 472.8026 261.51306 472.80104 L 250.7485 472.6053 C 250.67627 472.604 250.60406 472.6016 250.5319 472.59803 L 238.51328 472.00695 C 238.46453 472.00455 238.4158 472.00165 238.3671 471.99823 L 227.12706 471.20945 C 227.06912 471.2054 227.01124 471.2006 226.95342 471.1951 L 214.54284 470.01313 C 214.47438 470.0066 214.40583 470.0011 214.3372 469.9966 L 202.4052 469.2142 C 202.29518 469.20696 202.18535 469.19715 202.0758 469.18475 L 191.66345 468.006 C 191.64792 468.00423 191.63238 468.0024 191.61686 468.00056 L 181.66915 466.80683 C 181.64981 466.8045 181.6305 466.8021 181.61118 466.79963 L 167.77541 465.0221 C 167.6782 465.0096 167.58126 464.9951 167.48465 464.9785 L 160.93117 463.85506 C 160.7302 463.8206 160.52783 463.79495 160.32462 463.77817 L 157.0923 463.5112 C 156.20306 463.43775 155.33606 463.19497 154.538 462.79594 L 153.0517 462.0528 C 152.45112 461.7525 151.89686 461.36735 151.40597 460.9092 L 150.07086 459.6631 C 149.46404 459.0967 149.00862 458.3875 148.74614 457.6 L 148.4513 456.7155 C 148.38123 456.5053 148.32118 456.29187 148.27135 456.07595 L 147.80165 454.04056 C 147.76642 453.8879 147.79986 453.7275 147.89314 453.6017 L 147.89314 453.6017 C 147.98348 453.4798 148.13412 453.4183 148.28395 453.44214 L 156.7638 454.7912 C 156.8147 454.7993 156.8655 454.80796 156.9162 454.8172 L 169.90096 457.17805 C 169.99374 457.1949 170.08685 457.2099 170.18024 457.223 L 181.40992 458.7991 C 181.43007 458.80194 181.4502 458.80486 181.47033 458.80786 L 194.59292 460.76645 C 194.75769 460.79105 194.92328 460.80975 195.08938 460.8225 L 207.8142 461.80136 C 207.8315 461.8027 207.8488 461.80396 207.86612 461.80516 L 222.20627 462.801 C 222.22886 462.80257 222.25145 462.80403 222.27405 462.8054 L 235.5773 463.5996 C 235.6192 463.6021 235.66112 463.6042 235.70305 463.606 L 249.8945 464.1973 C 249.9916 464.20133 250.08875 464.20335 250.18592 464.20335 L 275.98182 464.20335 C 276.0207 464.20335 276.0596 464.2037 276.09847 464.2043 L 287.85686 464.4003 C 287.97903 464.40234 288.10124 464.40117 288.22335 464.3968 L 299.05695 464.0099 C 299.17906 464.00554 299.30127 464.0044 299.42344 464.0064 L 311.13808 464.20165 C 311.20612 464.2028 311.27418 464.20293 311.34222 464.2021 L 327.0445 464.0058 C 327.1749 464.00417 327.30524 463.9989 327.43535 463.99 L 341.74513 463.00986 C 341.80847 463.0055 341.87176 463.0003 341.93496 462.99426 L 356.42597 461.6047 C 356.43542 461.6038 356.44488 461.6029 356.45433 461.60194 L 370.26636 460.22073 C 370.3822 460.20915 370.49774 460.1947 370.61286 460.17733 L 384.922 458.02116 C 385.00076 458.0093 385.0797 457.99877 385.15883 457.9896 L 398.67876 456.42207 C 398.78634 456.4096 398.8936 456.3946 399.0005 456.3772 L 408.3926 454.8438 C 408.55757 454.81684 408.72155 454.784 408.8842 454.7453 L 417.9618 452.58654 C 418.3501 452.4942 418.73976 452.7341 418.8321 453.12244 C 418.8382 453.148 418.8429 453.1739 418.84614 453.2 Z" fill="white"/>
        <path d="M 418.84614 453.2 L 418.84614 453.2 C 418.91183 453.7255 418.849 454.25905 418.66306 454.7549 L 418.01205 456.4909 C 417.8353 456.96227 417.6082 457.4132 417.33473 457.8358 L 416.3669 459.33153 C 415.82596 460.16756 415.11286 460.87855 414.27523 461.417 L 413.1972 462.11005 C 412.89693 462.3031 412.58235 462.47285 412.2562 462.6179 L 410.93934 463.2035 C 410.3428 463.46876 409.7121 463.6493 409.06556 463.7398 L 400.05514 465.00126 C 400.04515 465.00265 400.03515 465.00403 400.02515 465.0054 L 388.30915 466.594 C 388.26315 466.60024 388.2171 466.606 388.17098 466.61134 L 377.88804 467.79783 C 377.8561 467.8015 377.82416 467.805 377.7922 467.8082 L 364.08212 469.1991 C 364.05414 469.20193 364.02614 469.2046 363.99813 469.2071 L 352.89283 470.19865 C 352.8577 470.2018 352.82257 470.20466 352.7874 470.20726 L 342.10087 470.99886 C 342.0604 471.00185 342.0199 471.0045 341.97936 471.0068 L 331.47138 471.6016 C 331.45056 471.60276 331.42975 471.60404 331.40894 471.6054 L 319.36616 472.3951 C 319.28216 472.4006 319.19807 472.4046 319.11392 472.40707 L 305.6668 472.80257 C 305.64903 472.8031 305.63127 472.8037 305.6135 472.80434 L 294.96965 473.19856 C 294.88332 473.20176 294.79695 473.20335 294.71056 473.20335 L 284.10155 473.20335 C 284.0606 473.20335 284.0197 473.2037 283.97876 473.20443 L 272.89234 473.39893 C 272.72427 473.4019 272.55614 473.3988 272.3883 473.3896 L 261.76706 472.8103 C 261.68246 472.80566 261.59778 472.8026 261.51306 472.80104 L 250.7485 472.6053 C 250.67627 472.604 250.60406 472.6016 250.5319 472.59803 L 238.51328 472.00695 C 238.46453 472.00455 238.4158 472.00165 238.3671 471.99823 L 227.12706 471.20945 C 227.06912 471.2054 227.01124 471.2006 226.95342 471.1951 L 214.54284 470.01313 C 214.47438 470.0066 214.40583 470.0011 214.3372 469.9966 L 202.4052 469.2142 C 202.29518 469.20696 202.18535 469.19715 202.0758 469.18475 L 191.66345 468.006 C 191.64792 468.00423 191.63238 468.0024 191.61686 468.00056 L 181.66915 466.80683 C 181.64981 466.8045 181.6305 466.8021 181.61118 466.79963 L 167.77541 465.0221 C 167.6782 465.0096 167.58126 464.9951 167.48465 464.9785 L 160.93117 463.85506 C 160.7302 463.8206 160.52783 463.79495 160.32462 463.77817 L 157.0923 463.5112 C 156.20306 463.43775 155.33606 463.19497 154.538 462.79594 L 153.0517 462.0528 C 152.45112 461.7525 151.89686 461.36735 151.40597 460.9092 L 150.07086 459.6631 C 149.46404 459.0967 149.00862 458.3875 148.74614 457.6 L 148.4513 456.7155 C 148.38123 456.5053 148.32118 456.29187 148.27135 456.07595 L 147.80165 454.04056 C 147.76642 453.8879 147.79986 453.7275 147.89314 453.6017 L 147.89314 453.6017 C 147.98348 453.4798 148.13412 453.4183 148.28395 453.44214 L 156.7638 454.7912 C 156.8147 454.7993 156.8655 454.80796 156.9162 454.8172 L 169.90096 457.17805 C 169.99374 457.1949 170.08685 457.2099 170.18024 457.223 L 181.40992 458.7991 C 181.43007 458.80194 181.4502 458.80486 181.47033 458.80786 L 194.59292 460.76645 C 194.75769 460.79105 194.92328 460.80975 195.08938 460.8225 L 207.8142 461.80136 C 207.8315 461.8027 207.8488 461.80396 207.86612 461.80516 L 222.20627 462.801 C 222.22886 462.80257 222.25145 462.80403 222.27405 462.8054 L 235.5773 463.5996 C 235.6192 463.6021 235.66112 463.6042 235.70305 463.606 L 249.8945 464.1973 C 249.9916 464.20133 250.08875 464.20335 250.18592 464.20335 L 275.98182 464.20335 C 276.0207 464.20335 276.0596 464.2037 276.09847 464.2043 L 287.85686 464.4003 C 287.97903 464.40234 288.10124 464.40117 288.22335 464.3968 L 299.05695 464.0099 C 299.17906 464.00554 299.30127 464.0044 299.42344 464.0064 L 311.13808 464.20165 C 311.20612 464.2028 311.27418 464.20293 311.34222 464.2021 L 327.0445 464.0058 C 327.1749 464.00417 327.30524 463.9989 327.43535 463.99 L 341.74513 463.00986 C 341.80847 463.0055 341.87176 463.0003 341.93496 462.99426 L 356.42597 461.6047 C 356.43542 461.6038 356.44488 461.6029 356.45433 461.60194 L 370.26636 460.22073 C 370.3822 460.20915 370.49774 460.1947 370.61286 460.17733 L 384.922 458.02116 C 385.00076 458.0093 385.0797 457.99877 385.15883 457.9896 L 398.67876 456.42207 C 398.78634 456.4096 398.8936 456.3946 399.0005 456.3772 L 408.3926 454.8438 C 408.55757 454.81684 408.72155 454.784 408.8842 454.7453 L 417.9618 452.58654 C 418.3501 452.4942 418.73976 452.7341 418.8321 453.12244 C 418.8382 453.148 418.8429 453.1739 418.84614 453.2 Z" stroke="#7f8080" stroke-linecap="round" stroke-linejoin="round" stroke-width="1"/>
      </g>
      <g id="Graphic_3">
        <path d="M 404 243 L 157 369 L 154 395 L 152 415 L 150 430 L 148 450 L 148 454 L 188 460 L 216 462 L 254 464 L 288 464 L 314 464 L 342 462 L 369 461 L 393 457 L 411 454 L 418 451 L 414 428 L 412 407 L 411 386 L 408 355 L 407 325 L 405 297 L 405 273 L 405 253.5 L 405 240 Z" fill="#108f0e"/>
        <path d="M 404 243 L 157 369 L 154 395 L 152 415 L 150 430 L 148 450 L 148 454 L 188 460 L 216 462 L 254 464 L 288 464 L 314 464 L 342 462 L 369 461 L 393 457 L 411 454 L 418 451 L 414 428 L 412 407 L 411 386 L 408 355 L 407 325 L 405 297 L 405 273 L 405 253.5 L 405 240 Z" stroke="#7f8080" stroke-linecap="round" stroke-linejoin="round" stroke-width="1"/>
      </g>
    </g>
  </g>
</svg>
