<?xml version="1.0" encoding="UTF-8" standalone="no"?>
<!DOCTYPE svg PUBLIC "-//W3C//DTD SVG 1.1//EN" "http://www.w3.org/Graphics/SVG/1.1/DTD/svg11.dtd">
<svg xmlns:xl="http://www.w3.org/1999/xlink" xmlns:dc="http://purl.org/dc/elements/1.1/" xmlns="http://www.w3.org/2000/svg" version="1.1" viewBox="-140 214 434 449" width="434" height="449">
  <defs>
    <radialGradient cx="0" cy="0" r="1" id="Gradient" gradientUnits="userSpaceOnUse">
      <stop offset="0" stop-color="#cbcbcb"/>
      <stop offset=".4338305" stop-color="#7f7f7f"/>
      <stop offset="1" stop-color="#212121"/>
    </radialGradient>
    <radialGradient id="Obj_Gradient" xl:href="#Gradient" gradientTransform="translate(75.75925 242.4) scale(70.26272)"/>
  </defs>
  <metadata> Produced by OmniGraffle 7.19.2\n2023-12-06 01:13:20 +0000</metadata>
  <g id="Canvas_9" stroke-opacity="1" fill-opacity="1" stroke-dasharray="none" fill="none" stroke="none">
    <title>Canvas 9</title>
    <g id="Canvas_9_Layer_1">
      <title>Layer 1</title>
      <g id="Graphic_35">
        <path d="M 14.005654 215.59045 L 22.171106 218.70816 C 23.029097 219.03576 23.90594 219.31167 24.796923 219.53442 L 38.5141 222.96371 C 39.67576 223.25413 40.85832 223.45338 42.051005 223.55966 L 59.57715 225.1214 C 60.165 225.17378 60.75464 225.20352 61.34478 225.21054 L 76.823695 225.39481 C 77.11404 225.39827 77.40442 225.39623 77.69469 225.3887 L 92.118 225.01406 C 92.47878 225.0047 92.8393 224.98683 93.19924 224.9605 L 107.57053 223.90893 C 108.56197 223.83639 109.54766 223.69964 110.5214 223.49956 L 122.09436 221.12155 C 123.13637 220.90744 124.16226 220.6213 125.16465 220.26519 L 136.91664 216.09014 C 138.00702 215.70277 139.21021 216.23354 139.65925 217.3 L 139.65925 217.3 C 140.1814 218.5401 140.33338 219.90485 140.09685 221.22945 L 139.91637 222.24014 C 139.61259 223.9413 139.11806 225.6028 138.44214 227.1932 L 136.89892 230.8243 C 136.34035 232.13858 135.6606 233.39798 134.86846 234.58618 L 131.18268 240.11485 C 130.43517 241.2361 129.59057 242.2895 128.65861 243.2629 L 122.36354 249.83774 C 121.49547 250.7444 120.55463 251.57846 119.55046 252.3316 L 111.17555 258.61277 C 110.29914 259.27008 109.37688 259.86394 108.41582 260.3898 L 101.23062 264.32133 C 99.91949 265.03874 98.54156 265.62664 97.11638 266.0767 L 90.44347 268.18393 C 88.72659 268.7261 86.952 269.0648 85.15613 269.19308 L 78.269675 269.68497 C 77.19738 269.76156 76.12103 269.76288 75.048545 269.68892 L 66.61229 269.1071 C 65.57811 269.0358 64.54994 268.89463 63.53481 268.6846 L 56.3996 267.20835 C 54.44765 266.8045 52.556474 266.1486 50.77362 265.2572 L 46.11421 262.92748 C 44.88007 262.3104 43.703967 261.58354 42.60012 260.75566 L 36.918163 256.4942 C 36.479027 256.16483 36.051822 255.81987 35.63737 255.45995 L 29.88219 250.46203 C 29.067903 249.7549 28.304363 248.99135 27.59722 248.17706 L 23.191995 243.10438 C 22.437892 242.23602 21.749984 241.31232 21.13406 240.34105 L 17.400357 234.4533 C 17.039791 233.8847 16.704365 233.30056 16.395049 232.70255 L 14.774675 229.56983 C 14.165531 228.39215 13.659362 227.164 13.261825 225.8991 L 11.981586 221.82562 C 11.766811 221.14225 11.584079 220.4492 11.433986 219.74878 L 11.359248 219.4 C 11.164585 218.49157 11.271846 217.54443 11.664727 216.70254 L 11.759248 216.5 C 12.153724 215.6547 13.134195 215.2577 14.005654 215.59045 Z" fill="url(#Obj_Gradient)"/>
        <path d="M 14.005654 215.59045 L 22.171106 218.70816 C 23.029097 219.03576 23.90594 219.31167 24.796923 219.53442 L 38.5141 222.96371 C 39.67576 223.25413 40.85832 223.45338 42.051005 223.55966 L 59.57715 225.1214 C 60.165 225.17378 60.75464 225.20352 61.34478 225.21054 L 76.823695 225.39481 C 77.11404 225.39827 77.40442 225.39623 77.69469 225.3887 L 92.118 225.01406 C 92.47878 225.0047 92.8393 224.98683 93.19924 224.9605 L 107.57053 223.90893 C 108.56197 223.83639 109.54766 223.69964 110.5214 223.49956 L 122.09436 221.12155 C 123.13637 220.90744 124.16226 220.6213 125.16465 220.26519 L 136.91664 216.09014 C 138.00702 215.70277 139.21021 216.23354 139.65925 217.3 L 139.65925 217.3 C 140.1814 218.5401 140.33338 219.90485 140.09685 221.22945 L 139.91637 222.24014 C 139.61259 223.9413 139.11806 225.6028 138.44214 227.1932 L 136.89892 230.8243 C 136.34035 232.13858 135.6606 233.39798 134.86846 234.58618 L 131.18268 240.11485 C 130.43517 241.2361 129.59057 242.2895 128.65861 243.2629 L 122.36354 249.83774 C 121.49547 250.7444 120.55463 251.57846 119.55046 252.3316 L 111.17555 258.61277 C 110.29914 259.27008 109.37688 259.86394 108.41582 260.3898 L 101.23062 264.32133 C 99.91949 265.03874 98.54156 265.62664 97.11638 266.0767 L 90.44347 268.18393 C 88.72659 268.7261 86.952 269.0648 85.15613 269.19308 L 78.269675 269.68497 C 77.19738 269.76156 76.12103 269.76288 75.048545 269.68892 L 66.61229 269.1071 C 65.57811 269.0358 64.54994 268.89463 63.53481 268.6846 L 56.3996 267.20835 C 54.44765 266.8045 52.556474 266.1486 50.77362 265.2572 L 46.11421 262.92748 C 44.88007 262.3104 43.703967 261.58354 42.60012 260.75566 L 36.918163 256.4942 C 36.479027 256.16483 36.051822 255.81987 35.63737 255.45995 L 29.88219 250.46203 C 29.067903 249.7549 28.304363 248.99135 27.59722 248.17706 L 23.191995 243.10438 C 22.437892 242.23602 21.749984 241.31232 21.13406 240.34105 L 17.400357 234.4533 C 17.039791 233.8847 16.704365 233.30056 16.395049 232.70255 L 14.774675 229.56983 C 14.165531 228.39215 13.659362 227.164 13.261825 225.8991 L 11.981586 221.82562 C 11.766811 221.14225 11.584079 220.4492 11.433986 219.74878 L 11.359248 219.4 C 11.164585 218.49157 11.271846 217.54443 11.664727 216.70254 L 11.759248 216.5 C 12.153724 215.6547 13.134195 215.2577 14.005654 215.59045 Z" stroke="#7f8080" stroke-linecap="round" stroke-linejoin="round" stroke-width="1"/>
      </g>
      <g id="Graphic_34">
        <path d="M -50.026545 652.2638 L -36.284304 654.55416 C -36.100928 654.5847 -35.91703 654.6121 -35.7327 654.63624 L -7.37906 658.35154 C -7.132532 658.38385 -6.885285 658.4104 -6.637519 658.4312 L 23.60537 660.9677 C 23.862274 660.9892 24.119662 661.0046 24.377307 661.0137 L 63.30822 662.39 C 63.49658 662.3967 63.685045 662.4 63.87352 662.4 L 95.34084 662.4 C 95.50746 662.4 95.67407 662.3974 95.8406 662.3922 L 120.87539 661.6099 C 121.08563 661.6033 121.29573 661.5926 121.50555 661.5777 L 143.5533 660.0168 C 143.71161 660.0056 143.86975 659.99205 144.02766 659.9761 L 169.28815 657.4305 C 169.48989 657.4102 169.69122 657.386 169.89204 657.358 L 193.68474 654.04265 C 193.88875 654.0142 194.0922 653.98186 194.29496 653.9456 L 203.49079 652.3 C 208.8179 651.3467 212.46876 646.3931 211.80234 641.02255 L 209.59475 623.232 C 209.5921 623.2107 209.5895 623.18934 209.58695 623.168 L 206.02312 593.4695 C 206.00157 593.28985 205.98306 593.10985 205.9676 592.9296 L 203.6054 565.3704 C 203.59565 565.2568 203.58713 565.1431 203.57983 565.02936 L 202.1932 543.4377 C 202.1916 543.4126 202.18992 543.38744 202.18818 543.3623 L 200.59603 520.276 C 200.59253 520.22533 200.58928 520.17466 200.58627 520.124 L 199.4099 500.3218 C 199.39716 500.1073 199.38874 499.89255 199.38465 499.6777 L 198.99236 479.08285 C 198.9913 479.0276 198.98997 478.9724 198.98835 478.9172 L 198.39322 458.68283 C 198.3916 458.6276 198.39026 458.5724 198.3892 458.51715 L 197.99855 438.0076 C 197.99337 437.7359 197.99512 437.46413 198.0038 437.19253 L 198.58973 418.8329 C 198.59044 418.81097 198.59118 418.78903 198.59197 418.7671 L 199.38005 396.8978 C 199.3872 396.6993 199.39806 396.50093 199.4126 396.30283 L 200.97007 375.0822 C 200.98388 374.8941 200.99436 374.70573 201.0015 374.51724 L 201.75596 354.61837 C 201.77915 354.00663 201.83744 353.3967 201.93052 352.79165 L 204.66953 334.98813 C 204.7503 334.46304 204.8572 333.9423 204.9898 333.42783 L 209.61806 315.47017 C 209.73316 315.0236 209.8675 314.5822 210.02073 314.14725 L 215.74152 297.9076 C 215.9076 297.43613 216.0957 296.9727 216.30517 296.51883 L 221.83673 284.5338 C 221.93942 284.3113 222.0472 284.0912 222.16 283.87364 L 227.52223 273.53222 C 227.56793 273.44407 227.61446 273.35636 227.6618 273.26908 L 232.87777 263.65212 C 233.61505 262.29276 234.56468 261.05987 235.69079 260 L 235.69079 260 C 236.36598 259.36453 236.39817 258.30203 235.7627 257.62684 C 235.6382 257.49456 235.49307 257.38337 235.33295 257.2976 L 232.1188 255.57573 C 231.90016 255.4586 231.6788 255.34656 231.45494 255.2397 L 223.60097 251.49122 C 223.19436 251.29716 222.77974 251.12036 222.3582 250.9613 L 212.68338 247.3104 C 212.48833 247.2368 212.29187 247.16703 212.0941 247.1011 L 199.39963 242.86962 C 199.2604 242.8232 199.12055 242.77872 198.9801 242.73616 L 186.09658 238.83206 C 186.02605 238.8107 185.95567 238.78883 185.88544 238.76648 L 173.38144 234.78794 C 172.98782 234.6627 172.5992 234.52225 172.21643 234.36693 L 160.24049 229.50713 C 159.40883 229.16964 158.60704 228.76277 157.8436 228.29083 L 148.22436 222.3444 C 148.06865 222.24814 147.91461 222.14922 147.7623 222.04768 L 142.8722 218.78762 C 141.89081 218.13335 141.0195 217.32745 140.29078 216.4 L 140.29078 216.4 C 140.18518 216.2656 139.99062 216.24225 139.85621 216.34785 C 139.75347 216.42858 139.7125 216.56513 139.75381 216.68908 L 139.89078 217.1 C 140.35003 218.47775 140.4546 219.94904 140.1948 221.3779 L 139.79967 223.55115 C 139.52845 225.0428 139.04661 226.48835 138.36858 227.8444 L 136.83626 230.90904 C 136.53956 231.50244 136.20624 232.0768 135.83823 232.62883 L 132.63453 237.43438 C 132.20593 238.07728 131.73132 238.6883 131.21443 239.26261 L 126.65238 244.33156 C 126.61132 244.37719 126.56999 244.42258 126.5284 244.46773 L 120.53417 250.97576 C 119.90643 251.6573 119.22068 252.28302 118.48465 252.84587 L 113.46047 256.6879 C 113.01432 257.02906 112.55052 257.3465 112.07099 257.6389 L 105.58458 261.59403 C 104.92292 261.99748 104.23283 262.35232 103.51975 262.65576 L 96.40434 265.6836 C 95.59667 266.02728 94.76209 266.30393 93.90905 266.51072 L 89.82999 267.4996 C 89.00516 267.69955 88.16573 267.83356 87.31963 267.90035 L 81.61943 268.35037 C 81.20049 268.38344 80.78042 268.4 80.36019 268.4 L 73.32787 268.4 C 72.57077 268.4 71.81462 268.34626 71.06513 268.2392 L 63.11868 267.104 C 62.63367 267.0347 62.1521 266.94317 61.67549 266.8297 L 55.714264 265.41035 C 54.56878 265.13762 53.4569 264.73927 52.39883 264.22253 L 46.118824 261.15556 C 45.633774 260.91867 45.16102 260.6574 44.702383 260.37272 L 40.49052 257.75846 C 39.89135 257.38656 39.317424 256.97546 38.772495 256.52784 L 34.32639 252.87568 C 34.102693 252.69193 33.884024 252.50214 33.670626 252.30652 L 29.868283 248.82104 C 29.416988 248.40736 28.98981 247.9681 28.588852 247.50546 L 24.470106 242.75307 C 24.150724 242.38455 23.848357 242.00162 23.563952 241.6055 L 19.134297 235.4356 C 18.639405 234.7463 18.200134 234.0187 17.820642 233.25972 L 15.244178 228.1068 C 15.208582 228.0356 15.173517 227.96414 15.138986 227.89242 L 13.890782 225.3 C 13.040068 223.53313 12.684547 221.5686 12.862088 219.61564 L 13.042293 217.63339 C 13.066098 217.37152 12.873116 217.13994 12.611253 217.11614 C 12.448858 217.10138 12.290205 217.17075 12.190782 217.3 L 12.190782 217.3 C 11.527336 218.16248 10.747228 218.92856 9.872851 219.57625 L 5.976317 222.46257 C 5.852634 222.55418 5.7276346 222.644 5.601359 222.73202 L .9791086 225.9536 C -.2076275 226.7807 -1.5010482 227.44308 -2.865798 227.92258 L -7.472924 229.5413 C -7.963495 229.71367 -8.445372 229.90984 -8.91684 230.12913 L -15.763621 233.31368 C -16.459783 233.63747 -17.178348 233.91074 -17.913747 234.13136 L -28.784136 237.39248 C -28.800857 237.3975 -28.81757 237.40254 -28.834276 237.4076 L -39.802363 240.7372 C -39.94026 240.77907 -40.077586 240.8228 -40.2143 240.86836 L -53.135536 245.17544 C -53.18466 245.1918 -53.23386 245.20795 -53.283136 245.22384 L -64.65054 248.89075 C -65.28903 249.0967 -65.91393 249.34263 -66.52154 249.62704 L -74.453505 253.33988 C -74.823845 253.51323 -75.1874 253.7007 -75.54338 253.90192 L -81.48949 257.26276 C -82.74253 257.971 -83.18417 259.56093 -82.47594 260.81396 C -82.39882 260.9504 -82.30955 261.0796 -82.20922 261.2 L -81.34511 262.23693 C -80.59016 263.14287 -79.93769 264.1295 -79.39957 265.17882 L -76.32243 271.17924 C -76.24696 271.3264 -76.16921 271.4724 -76.08922 271.61715 L -72.13446 278.77337 C -72.05097 278.92445 -71.96993 279.07687 -71.89137 279.23057 L -67.78307 287.26856 C -67.534 287.75587 -67.3101 288.25563 -67.11224 288.7659 L -63.62947 297.74776 C -63.61597 297.7826 -63.602345 297.81737 -63.5886 297.8521 L -59.992276 306.93754 C -59.87027 307.24577 -59.75787 307.55772 -59.65524 307.87294 L -57.033404 315.9257 C -57.01728 315.97524 -57.0014 316.02484 -56.98576 316.07452 L -53.91371 325.8328 C -53.71092 326.47695 -53.549114 327.1333 -53.42927 327.7979 L -51.443955 338.80737 C -51.4208 338.9358 -51.399213 339.0645 -51.379205 339.19342 L -49.673335 350.1868 C -49.6306 350.46222 -49.595065 350.7387 -49.56677 351.016 L -48.67935 359.7127 C -48.63262 360.1707 -48.60567 360.6305 -48.59859 361.0908 L -48.41435 373.0664 C -48.41093 373.2888 -48.40287 373.51105 -48.390185 373.7331 L -47.61981 387.21465 C -47.61275 387.3382 -47.604255 387.4617 -47.59433 387.58506 L -46.26076 404.15943 C -46.22641 404.5863 -46.20922 405.0144 -46.20922 405.44264 L -46.20922 417.8924 C -46.20922 418.09746 -46.20528 418.30247 -46.197397 418.50735 L -45.617046 433.5965 C -45.61183 433.73216 -45.608337 433.8679 -45.606574 434.00365 L -45.414415 448.7999 C -45.41095 449.0666 -45.414157 449.33333 -45.42403 449.59986 L -45.998256 465.104 C -46.005564 465.3013 -46.00922 465.49875 -46.00922 465.6962 L -46.00922 479.2924 C -46.00922 479.49746 -46.01316 479.7025 -46.02104 479.90736 L -46.60623 495.12236 C -46.608223 495.1741 -46.610465 495.2259 -46.61296 495.2776 L -47.40828 511.78055 C -47.408906 511.7935 -47.409547 511.8065 -47.410203 511.81945 L -48.20469 527.5106 C -48.20771 527.5702 -48.21106 527.6298 -48.214744 527.68933 L -49.403655 546.91007 C -49.407364 546.97 -49.41141 547.02996 -49.415794 547.0899 L -51.19893 571.4594 C -51.20579 571.55314 -51.21347 571.6468 -51.22198 571.7404 L -53.00787 591.3852 C -53.00877 591.3951 -53.009676 591.40494 -53.01059 591.4148 L -54.78136 610.4997 C -54.79993 610.6999 -54.822274 610.8997 -54.848377 611.099 L -56.80909 626.07175 C -56.9419 627.08594 -57.21104 628.07756 -57.60922 629.0197 L -57.60922 629.0197 C -58.006794 629.9605 -58.25546 630.9574 -58.346286 631.97465 L -59.10922 640.5197 C -59.616975 646.20676 -55.65851 651.3251 -50.026545 652.2638 Z" fill="#ffd800"/>
        <path d="M -50.026545 652.2638 L -36.284304 654.55416 C -36.100928 654.5847 -35.91703 654.6121 -35.7327 654.63624 L -7.37906 658.35154 C -7.132532 658.38385 -6.885285 658.4104 -6.637519 658.4312 L 23.60537 660.9677 C 23.862274 660.9892 24.119662 661.0046 24.377307 661.0137 L 63.30822 662.39 C 63.49658 662.3967 63.685045 662.4 63.87352 662.4 L 95.34084 662.4 C 95.50746 662.4 95.67407 662.3974 95.8406 662.3922 L 120.87539 661.6099 C 121.08563 661.6033 121.29573 661.5926 121.50555 661.5777 L 143.5533 660.0168 C 143.71161 660.0056 143.86975 659.99205 144.02766 659.9761 L 169.28815 657.4305 C 169.48989 657.4102 169.69122 657.386 169.89204 657.358 L 193.68474 654.04265 C 193.88875 654.0142 194.0922 653.98186 194.29496 653.9456 L 203.49079 652.3 C 208.8179 651.3467 212.46876 646.3931 211.80234 641.02255 L 209.59475 623.232 C 209.5921 623.2107 209.5895 623.18934 209.58695 623.168 L 206.02312 593.4695 C 206.00157 593.28985 205.98306 593.10985 205.9676 592.9296 L 203.6054 565.3704 C 203.59565 565.2568 203.58713 565.1431 203.57983 565.02936 L 202.1932 543.4377 C 202.1916 543.4126 202.18992 543.38744 202.18818 543.3623 L 200.59603 520.276 C 200.59253 520.22533 200.58928 520.17466 200.58627 520.124 L 199.4099 500.3218 C 199.39716 500.1073 199.38874 499.89255 199.38465 499.6777 L 198.99236 479.08285 C 198.9913 479.0276 198.98997 478.9724 198.98835 478.9172 L 198.39322 458.68283 C 198.3916 458.6276 198.39026 458.5724 198.3892 458.51715 L 197.99855 438.0076 C 197.99337 437.7359 197.99512 437.46413 198.0038 437.19253 L 198.58973 418.8329 C 198.59044 418.81097 198.59118 418.78903 198.59197 418.7671 L 199.38005 396.8978 C 199.3872 396.6993 199.39806 396.50093 199.4126 396.30283 L 200.97007 375.0822 C 200.98388 374.8941 200.99436 374.70573 201.0015 374.51724 L 201.75596 354.61837 C 201.77915 354.00663 201.83744 353.3967 201.93052 352.79165 L 204.66953 334.98813 C 204.7503 334.46304 204.8572 333.9423 204.9898 333.42783 L 209.61806 315.47017 C 209.73316 315.0236 209.8675 314.5822 210.02073 314.14725 L 215.74152 297.9076 C 215.9076 297.43613 216.0957 296.9727 216.30517 296.51883 L 221.83673 284.5338 C 221.93942 284.3113 222.0472 284.0912 222.16 283.87364 L 227.52223 273.53222 C 227.56793 273.44407 227.61446 273.35636 227.6618 273.26908 L 232.87777 263.65212 C 233.61505 262.29276 234.56468 261.05987 235.69079 260 L 235.69079 260 C 236.36598 259.36453 236.39817 258.30203 235.7627 257.62684 C 235.6382 257.49456 235.49307 257.38337 235.33295 257.2976 L 232.1188 255.57573 C 231.90016 255.4586 231.6788 255.34656 231.45494 255.2397 L 223.60097 251.49122 C 223.19436 251.29716 222.77974 251.12036 222.3582 250.9613 L 212.68338 247.3104 C 212.48833 247.2368 212.29187 247.16703 212.0941 247.1011 L 199.39963 242.86962 C 199.2604 242.8232 199.12055 242.77872 198.9801 242.73616 L 186.09658 238.83206 C 186.02605 238.8107 185.95567 238.78883 185.88544 238.76648 L 173.38144 234.78794 C 172.98782 234.6627 172.5992 234.52225 172.21643 234.36693 L 160.24049 229.50713 C 159.40883 229.16964 158.60704 228.76277 157.8436 228.29083 L 148.22436 222.3444 C 148.06865 222.24814 147.91461 222.14922 147.7623 222.04768 L 142.8722 218.78762 C 141.89081 218.13335 141.0195 217.32745 140.29078 216.4 L 140.29078 216.4 C 140.18518 216.2656 139.99062 216.24225 139.85621 216.34785 C 139.75347 216.42858 139.7125 216.56513 139.75381 216.68908 L 139.89078 217.1 C 140.35003 218.47775 140.4546 219.94904 140.1948 221.3779 L 139.79967 223.55115 C 139.52845 225.0428 139.04661 226.48835 138.36858 227.8444 L 136.83626 230.90904 C 136.53956 231.50244 136.20624 232.0768 135.83823 232.62883 L 132.63453 237.43438 C 132.20593 238.07728 131.73132 238.6883 131.21443 239.26261 L 126.65238 244.33156 C 126.61132 244.37719 126.56999 244.42258 126.5284 244.46773 L 120.53417 250.97576 C 119.90643 251.6573 119.22068 252.28302 118.48465 252.84587 L 113.46047 256.6879 C 113.01432 257.02906 112.55052 257.3465 112.07099 257.6389 L 105.58458 261.59403 C 104.92292 261.99748 104.23283 262.35232 103.51975 262.65576 L 96.40434 265.6836 C 95.59667 266.02728 94.76209 266.30393 93.90905 266.51072 L 89.82999 267.4996 C 89.00516 267.69955 88.16573 267.83356 87.31963 267.90035 L 81.61943 268.35037 C 81.20049 268.38344 80.78042 268.4 80.36019 268.4 L 73.32787 268.4 C 72.57077 268.4 71.81462 268.34626 71.06513 268.2392 L 63.11868 267.104 C 62.63367 267.0347 62.1521 266.94317 61.67549 266.8297 L 55.714264 265.41035 C 54.56878 265.13762 53.4569 264.73927 52.39883 264.22253 L 46.118824 261.15556 C 45.633774 260.91867 45.16102 260.6574 44.702383 260.37272 L 40.49052 257.75846 C 39.89135 257.38656 39.317424 256.97546 38.772495 256.52784 L 34.32639 252.87568 C 34.102693 252.69193 33.884024 252.50214 33.670626 252.30652 L 29.868283 248.82104 C 29.416988 248.40736 28.98981 247.9681 28.588852 247.50546 L 24.470106 242.75307 C 24.150724 242.38455 23.848357 242.00162 23.563952 241.6055 L 19.134297 235.4356 C 18.639405 234.7463 18.200134 234.0187 17.820642 233.25972 L 15.244178 228.1068 C 15.208582 228.0356 15.173517 227.96414 15.138986 227.89242 L 13.890782 225.3 C 13.040068 223.53313 12.684547 221.5686 12.862088 219.61564 L 13.042293 217.63339 C 13.066098 217.37152 12.873116 217.13994 12.611253 217.11614 C 12.448858 217.10138 12.290205 217.17075 12.190782 217.3 L 12.190782 217.3 C 11.527336 218.16248 10.747228 218.92856 9.872851 219.57625 L 5.976317 222.46257 C 5.852634 222.55418 5.7276346 222.644 5.601359 222.73202 L .9791086 225.9536 C -.2076275 226.7807 -1.5010482 227.44308 -2.865798 227.92258 L -7.472924 229.5413 C -7.963495 229.71367 -8.445372 229.90984 -8.91684 230.12913 L -15.763621 233.31368 C -16.459783 233.63747 -17.178348 233.91074 -17.913747 234.13136 L -28.784136 237.39248 C -28.800857 237.3975 -28.81757 237.40254 -28.834276 237.4076 L -39.802363 240.7372 C -39.94026 240.77907 -40.077586 240.8228 -40.2143 240.86836 L -53.135536 245.17544 C -53.18466 245.1918 -53.23386 245.20795 -53.283136 245.22384 L -64.65054 248.89075 C -65.28903 249.0967 -65.91393 249.34263 -66.52154 249.62704 L -74.453505 253.33988 C -74.823845 253.51323 -75.1874 253.7007 -75.54338 253.90192 L -81.48949 257.26276 C -82.74253 257.971 -83.18417 259.56093 -82.47594 260.81396 C -82.39882 260.9504 -82.30955 261.0796 -82.20922 261.2 L -81.34511 262.23693 C -80.59016 263.14287 -79.93769 264.1295 -79.39957 265.17882 L -76.32243 271.17924 C -76.24696 271.3264 -76.16921 271.4724 -76.08922 271.61715 L -72.13446 278.77337 C -72.05097 278.92445 -71.96993 279.07687 -71.89137 279.23057 L -67.78307 287.26856 C -67.534 287.75587 -67.3101 288.25563 -67.11224 288.7659 L -63.62947 297.74776 C -63.61597 297.7826 -63.602345 297.81737 -63.5886 297.8521 L -59.992276 306.93754 C -59.87027 307.24577 -59.75787 307.55772 -59.65524 307.87294 L -57.033404 315.9257 C -57.01728 315.97524 -57.0014 316.02484 -56.98576 316.07452 L -53.91371 325.8328 C -53.71092 326.47695 -53.549114 327.1333 -53.42927 327.7979 L -51.443955 338.80737 C -51.4208 338.9358 -51.399213 339.0645 -51.379205 339.19342 L -49.673335 350.1868 C -49.6306 350.46222 -49.595065 350.7387 -49.56677 351.016 L -48.67935 359.7127 C -48.63262 360.1707 -48.60567 360.6305 -48.59859 361.0908 L -48.41435 373.0664 C -48.41093 373.2888 -48.40287 373.51105 -48.390185 373.7331 L -47.61981 387.21465 C -47.61275 387.3382 -47.604255 387.4617 -47.59433 387.58506 L -46.26076 404.15943 C -46.22641 404.5863 -46.20922 405.0144 -46.20922 405.44264 L -46.20922 417.8924 C -46.20922 418.09746 -46.20528 418.30247 -46.197397 418.50735 L -45.617046 433.5965 C -45.61183 433.73216 -45.608337 433.8679 -45.606574 434.00365 L -45.414415 448.7999 C -45.41095 449.0666 -45.414157 449.33333 -45.42403 449.59986 L -45.998256 465.104 C -46.005564 465.3013 -46.00922 465.49875 -46.00922 465.6962 L -46.00922 479.2924 C -46.00922 479.49746 -46.01316 479.7025 -46.02104 479.90736 L -46.60623 495.12236 C -46.608223 495.1741 -46.610465 495.2259 -46.61296 495.2776 L -47.40828 511.78055 C -47.408906 511.7935 -47.409547 511.8065 -47.410203 511.81945 L -48.20469 527.5106 C -48.20771 527.5702 -48.21106 527.6298 -48.214744 527.68933 L -49.403655 546.91007 C -49.407364 546.97 -49.41141 547.02996 -49.415794 547.0899 L -51.19893 571.4594 C -51.20579 571.55314 -51.21347 571.6468 -51.22198 571.7404 L -53.00787 591.3852 C -53.00877 591.3951 -53.009676 591.40494 -53.01059 591.4148 L -54.78136 610.4997 C -54.79993 610.6999 -54.822274 610.8997 -54.848377 611.099 L -56.80909 626.07175 C -56.9419 627.08594 -57.21104 628.07756 -57.60922 629.0197 L -57.60922 629.0197 C -58.006794 629.9605 -58.25546 630.9574 -58.346286 631.97465 L -59.10922 640.5197 C -59.616975 646.20676 -55.65851 651.3251 -50.026545 652.2638 Z" stroke="#7f8080" stroke-linecap="round" stroke-linejoin="round" stroke-width="1"/>
      </g>
      <g id="Graphic_33">
        <path d="M -139 366.44615 L -132.8 370.84615 L -124.6 374.84615 L -116 378.44615 L -107 382.24615 L -96 386.24615 L -86.6 389.04615 L -77.6 391.64615 L -68.6 394.24615 L -63.2 395.64615 L -57.6 396.64615 L -55.2 390.84615 L -52.6 385.44615 L -50.4 381.44615 L -47.8 378.04615 L -47.6 369.04615 L -48.2 358.04615 L -50 347.24615 L -51.6 336.84615 L -54.2 325.84614 L -56.6 316.24614 L -59.4 308.24614 L -62.6 298.84614 L -65.4 291.44614 L -69 283.84614 L -73 276.24614 L -77 268.84614 L -79.6 265.24614 L -83.2 259.44614 L -88.6 263.84614 L -93.4 268.64614 L -98 274.84614 L -102.4 281.04614 L -107.2 289.64614 L -112 299.04614 L -116.8 308.24614 L -120.4 316.84614 L -124.4 325.84614 L -127.6 334.04615 L -131.4 343.44615 L -134.2 351.44615 L -137.2 359.84615 Z" fill="#ffd800"/>
        <path d="M -139 366.44615 L -132.8 370.84615 L -124.6 374.84615 L -116 378.44615 L -107 382.24615 L -96 386.24615 L -86.6 389.04615 L -77.6 391.64615 L -68.6 394.24615 L -63.2 395.64615 L -57.6 396.64615 L -55.2 390.84615 L -52.6 385.44615 L -50.4 381.44615 L -47.8 378.04615 L -47.6 369.04615 L -48.2 358.04615 L -50 347.24615 L -51.6 336.84615 L -54.2 325.84614 L -56.6 316.24614 L -59.4 308.24614 L -62.6 298.84614 L -65.4 291.44614 L -69 283.84614 L -73 276.24614 L -77 268.84614 L -79.6 265.24614 L -83.2 259.44614 L -88.6 263.84614 L -93.4 268.64614 L -98 274.84614 L -102.4 281.04614 L -107.2 289.64614 L -112 299.04614 L -116.8 308.24614 L -120.4 316.84614 L -124.4 325.84614 L -127.6 334.04615 L -131.4 343.44615 L -134.2 351.44615 L -137.2 359.84615 Z" stroke="#7f8080" stroke-linecap="round" stroke-linejoin="round" stroke-width="1"/>
      </g>
      <g id="Graphic_32">
        <path d="M 292.4053 365.50275 L 286.2053 369.90275 L 278.0053 373.90275 L 269.4053 377.50275 L 260.4053 381.30275 L 249.4053 385.30275 L 240.0053 388.10275 L 231.0053 390.70275 L 222.0053 393.30275 L 216.6053 394.70275 L 211.0053 395.70275 L 208.6053 389.90275 L 206.0053 384.50275 L 203.8053 380.50275 L 201.2053 377.10275 L 201.0053 368.10275 L 201.6053 357.10275 L 203.4053 346.30275 L 205.0053 335.90275 L 207.6053 324.90275 L 210.0053 315.30275 L 212.8053 307.30275 L 216.0053 297.90275 L 218.8053 290.50275 L 222.4053 282.90275 L 226.4053 275.30275 L 230.4053 267.90275 L 233.0053 264.30275 L 236.6053 258.50275 L 242.0053 262.90275 L 246.8053 267.70275 L 251.4053 273.90275 L 255.8053 280.10275 L 260.6053 288.70275 L 265.4053 298.10275 L 270.2053 307.30275 L 273.8053 315.90275 L 277.8053 324.90275 L 281.0053 333.10275 L 284.8053 342.50275 L 287.6053 350.50275 L 290.6053 358.90275 Z" fill="#ffd800"/>
        <path d="M 292.4053 365.50275 L 286.2053 369.90275 L 278.0053 373.90275 L 269.4053 377.50275 L 260.4053 381.30275 L 249.4053 385.30275 L 240.0053 388.10275 L 231.0053 390.70275 L 222.0053 393.30275 L 216.6053 394.70275 L 211.0053 395.70275 L 208.6053 389.90275 L 206.0053 384.50275 L 203.8053 380.50275 L 201.2053 377.10275 L 201.0053 368.10275 L 201.6053 357.10275 L 203.4053 346.30275 L 205.0053 335.90275 L 207.6053 324.90275 L 210.0053 315.30275 L 212.8053 307.30275 L 216.0053 297.90275 L 218.8053 290.50275 L 222.4053 282.90275 L 226.4053 275.30275 L 230.4053 267.90275 L 233.0053 264.30275 L 236.6053 258.50275 L 242.0053 262.90275 L 246.8053 267.70275 L 251.4053 273.90275 L 255.8053 280.10275 L 260.6053 288.70275 L 265.4053 298.10275 L 270.2053 307.30275 L 273.8053 315.90275 L 277.8053 324.90275 L 281.0053 333.10275 L 284.8053 342.50275 L 287.6053 350.50275 L 290.6053 358.90275 Z" stroke="#7f8080" stroke-linecap="round" stroke-linejoin="round" stroke-width="2"/>
      </g>
      <g id="Graphic_31">
        <path d="M -139 366.44615 L -132.8 370.84615 L -124.6 374.84615 L -116 378.44615 L -107 382.24615 L -96 386.24615 L -86.6 389.04615 L -77.6 391.64615 L -68.6 394.24615 L -63.2 395.64615 L -57.6 396.64615 L -54.6 390.24615 L -58.4 389.44615 L -63.2 388.24615 L -68.8 387.04615 L -74.8 385.24615 L -79.4 383.84615 L -83.6 382.64615 L -88.2 380.64615 L -92.8 379.04615 L -97.6 377.04615 L -101.6 375.64615 L -106.8 373.44615 L -111.4 371.84615 L -116.2 369.64615 L -121 367.84615 L -125 365.84615 L -129.4 363.64615 L -133.8 361.44615 L -137.2 359.84615 Z" fill="#ffd800"/>
        <path d="M -139 366.44615 L -132.8 370.84615 L -124.6 374.84615 L -116 378.44615 L -107 382.24615 L -96 386.24615 L -86.6 389.04615 L -77.6 391.64615 L -68.6 394.24615 L -63.2 395.64615 L -57.6 396.64615 L -54.6 390.24615 L -58.4 389.44615 L -63.2 388.24615 L -68.8 387.04615 L -74.8 385.24615 L -79.4 383.84615 L -83.6 382.64615 L -88.2 380.64615 L -92.8 379.04615 L -97.6 377.04615 L -101.6 375.64615 L -106.8 373.44615 L -111.4 371.84615 L -116.2 369.64615 L -121 367.84615 L -125 365.84615 L -129.4 363.64615 L -133.8 361.44615 L -137.2 359.84615 Z" stroke="#7f8080" stroke-linecap="round" stroke-linejoin="round" stroke-width="1"/>
      </g>
      <g id="Graphic_30">
        <path d="M 292.4053 365.50275 L 286.2053 369.90275 L 278.0053 373.90275 L 269.4053 377.50275 L 260.4053 381.30275 L 249.4053 385.30275 L 240.0053 388.10275 L 231.0053 390.70275 L 222.0053 393.30275 L 216.6053 394.70275 L 211.0053 395.70275 L 208.0053 389.30275 L 211.8053 388.50275 L 216.6053 387.30275 L 222.2053 386.10275 L 228.2053 384.30275 L 232.8053 382.90275 L 237.0053 381.70275 L 241.6053 379.70275 L 246.2053 378.10275 L 251.0053 376.10275 L 255.0053 374.70275 L 260.2053 372.50275 L 264.8053 370.90275 L 269.6053 368.70275 L 274.4053 366.90275 L 278.4053 364.90275 L 282.8053 362.70275 L 287.2053 360.50275 L 290.6053 358.90275 Z" fill="#ffd800"/>
        <path d="M 292.4053 365.50275 L 286.2053 369.90275 L 278.0053 373.90275 L 269.4053 377.50275 L 260.4053 381.30275 L 249.4053 385.30275 L 240.0053 388.10275 L 231.0053 390.70275 L 222.0053 393.30275 L 216.6053 394.70275 L 211.0053 395.70275 L 208.0053 389.30275 L 211.8053 388.50275 L 216.6053 387.30275 L 222.2053 386.10275 L 228.2053 384.30275 L 232.8053 382.90275 L 237.0053 381.70275 L 241.6053 379.70275 L 246.2053 378.10275 L 251.0053 376.10275 L 255.0053 374.70275 L 260.2053 372.50275 L 264.8053 370.90275 L 269.6053 368.70275 L 274.4053 366.90275 L 278.4053 364.90275 L 282.8053 362.70275 L 287.2053 360.50275 L 290.6053 358.90275 Z" stroke="#7f8080" stroke-linecap="round" stroke-linejoin="round" stroke-width="1"/>
      </g>
      <g id="Graphic_29">
        <path d="M 11.572121 216.9638 L 6.8429506 221.01736 C 5.692603 222.00338 4.447643 222.8733 3.1262133 223.61448 L .5995778 225.03165 C -.835594 225.83662 -1.416397 227.60575 -.7376112 229.10473 L .28000562 231.35197 C .40158463 231.62046 .52831316 231.88658 .660121 232.1502 L 4.949377 240.7287 C 5.291174 241.4123 5.666832 242.07843 6.0749524 242.72463 L 8.401344 246.40808 C 8.84172 247.10535 9.31928 247.77842 9.831953 248.4244 L 13.242638 252.72185 C 13.788692 253.40987 14.373712 254.06606 14.994822 254.68717 L 19.660865 259.3532 C 20.061745 259.7541 20.47731 260.14 20.90671 260.51018 L 25.470235 264.44426 C 25.864892 264.78448 26.270997 265.1112 26.687846 265.42383 L 30.662786 268.40503 C 31.3287 268.90447 32.021233 269.36738 32.73733 269.79174 L 36.870394 272.24096 C 36.99839 272.3168 37.127117 272.3914 37.25656 272.46477 L 41.954107 275.1267 C 42.6924 275.54507 43.453276 275.92226 44.23325 276.25653 L 47.78307 277.77788 C 48.36903 278.029 48.96518 278.25567 49.569974 278.45726 L 54.58808 280.12997 C 55.835325 280.5457 57.11592 280.85376 58.415795 281.0507 L 62.51464 281.67174 C 62.879756 281.72706 63.24615 281.77358 63.6135 281.81126 L 70.494605 282.517 C 70.73978 282.54216 70.985344 282.56336 71.2312 282.58062 L 75.75835 282.8983 C 76.29421 282.9359 76.83122 282.95473 77.368405 282.95473 L 80.63046 282.95474 C 81.58416 282.95474 82.53693 282.89542 83.48327 282.77713 L 87.47198 282.27854 C 88.13195 282.19604 88.78802 282.08496 89.43835 281.9456 L 95.52039 280.6423 C 96.41426 280.45076 97.29592 280.2061 98.16068 279.9096 L 102.66952 278.36372 C 103.46417 278.09127 104.2433 277.7755 105.0034 277.4178 L 109.83677 275.14326 C 110.38697 274.88435 110.92668 274.6037 111.45464 274.30202 L 115.2225 272.14896 C 115.9153 271.75308 116.58701 271.3214 117.23494 270.85572 L 121.91106 267.49475 C 122.41175 267.1349 122.89776 266.75503 123.36792 266.3561 L 128.68877 261.84144 C 129.07108 261.51706 129.44269 261.18026 129.80298 260.83158 L 134.5022 256.28396 C 135.14179 255.665 135.74491 255.00944 136.30852 254.32058 L 140.1018 249.68434 C 140.60852 249.06503 141.08257 248.4197 141.52201 247.75096 L 145.1392 242.24656 C 145.35462 241.91873 145.56163 241.58544 145.76002 241.24702 L 148.28311 236.94292 C 148.66906 236.28454 149.022 235.60735 149.34062 234.91388 L 151.45932 230.3026 C 151.99218 229.14285 152.36334 227.91544 152.5624 226.65474 L 152.5624 226.65474 C 152.7407 225.52547 152.1614 224.41203 151.13432 223.9099 L 145.84088 221.322 C 144.52642 220.67937 143.29183 219.88486 142.1624 218.95474 L 141.75638 218.62037 C 140.91205 217.92504 140.28864 216.99874 139.9624 215.95474 L 139.9624 215.95474 C 139.91573 215.80542 139.75686 215.7222 139.60754 215.76886 C 139.49247 215.80482 139.41277 215.90969 139.40892 216.0302 L 139.29968 219.4531 C 139.20894 222.29619 138.5916 225.09776 137.479 227.71567 L 136.60206 229.77904 C 136.0435 231.09331 135.36374 232.3527 134.5716 233.5409 L 130.88582 239.06958 C 130.13831 240.19085 129.2937 241.24425 128.36175 242.21762 L 122.06668 248.79247 C 121.19861 249.69913 120.25777 250.5332 119.2536 251.28633 L 110.8787 257.5675 C 110.00228 258.22482 109.08002 258.81867 108.11896 259.34454 L 100.93376 263.27606 C 99.62263 263.99347 98.2447 264.58137 96.81952 265.03143 L 90.14661 267.13867 C 88.42973 267.68084 86.65514 268.01954 84.85927 268.1478 L 77.972815 268.6397 C 76.90052 268.7163 75.82417 268.71762 74.751685 268.64365 L 66.31543 268.06184 C 65.28125 267.99052 64.25308 267.84936 63.23795 267.63933 L 56.10274 266.16308 C 54.15079 265.75923 52.259614 265.10335 50.47676 264.21192 L 45.81735 261.8822 C 44.58321 261.26515 43.407106 260.53827 42.30326 259.7104 L 36.621303 255.44892 C 36.182167 255.11957 35.754962 254.7746 35.34051 254.41468 L 29.58533 249.41676 C 28.771043 248.70962 28.007503 247.94608 27.30036 247.1318 L 22.895135 242.0591 C 22.141032 241.19075 21.453124 240.26705 20.8372 239.29578 L 17.103497 233.40802 C 16.742931 232.83944 16.407505 232.2553 16.098188 231.65728 L 14.477815 228.52456 C 13.86867 227.34688 13.362502 226.11874 12.964965 224.85385 L 11.684726 220.78036 C 11.469951 220.09698 11.287218 219.40395 11.137126 218.70351 L 10.911709 217.65157 C 10.826635 217.25456 11.052993 216.8569 11.437797 216.72737 L 11.437797 216.72737 C 11.510292 216.70296 11.588844 216.74195 11.613249 216.81444 C 11.631263 216.86795 11.61499 216.92704 11.572121 216.9638 Z" fill="#ffd800"/>
        <path d="M 11.572121 216.9638 L 6.8429506 221.01736 C 5.692603 222.00338 4.447643 222.8733 3.1262133 223.61448 L .5995778 225.03165 C -.835594 225.83662 -1.416397 227.60575 -.7376112 229.10473 L .28000562 231.35197 C .40158463 231.62046 .52831316 231.88658 .660121 232.1502 L 4.949377 240.7287 C 5.291174 241.4123 5.666832 242.07843 6.0749524 242.72463 L 8.401344 246.40808 C 8.84172 247.10535 9.31928 247.77842 9.831953 248.4244 L 13.242638 252.72185 C 13.788692 253.40987 14.373712 254.06606 14.994822 254.68717 L 19.660865 259.3532 C 20.061745 259.7541 20.47731 260.14 20.90671 260.51018 L 25.470235 264.44426 C 25.864892 264.78448 26.270997 265.1112 26.687846 265.42383 L 30.662786 268.40503 C 31.3287 268.90447 32.021233 269.36738 32.73733 269.79174 L 36.870394 272.24096 C 36.99839 272.3168 37.127117 272.3914 37.25656 272.46477 L 41.954107 275.1267 C 42.6924 275.54507 43.453276 275.92226 44.23325 276.25653 L 47.78307 277.77788 C 48.36903 278.029 48.96518 278.25567 49.569974 278.45726 L 54.58808 280.12997 C 55.835325 280.5457 57.11592 280.85376 58.415795 281.0507 L 62.51464 281.67174 C 62.879756 281.72706 63.24615 281.77358 63.6135 281.81126 L 70.494605 282.517 C 70.73978 282.54216 70.985344 282.56336 71.2312 282.58062 L 75.75835 282.8983 C 76.29421 282.9359 76.83122 282.95473 77.368405 282.95473 L 80.63046 282.95474 C 81.58416 282.95474 82.53693 282.89542 83.48327 282.77713 L 87.47198 282.27854 C 88.13195 282.19604 88.78802 282.08496 89.43835 281.9456 L 95.52039 280.6423 C 96.41426 280.45076 97.29592 280.2061 98.16068 279.9096 L 102.66952 278.36372 C 103.46417 278.09127 104.2433 277.7755 105.0034 277.4178 L 109.83677 275.14326 C 110.38697 274.88435 110.92668 274.6037 111.45464 274.30202 L 115.2225 272.14896 C 115.9153 271.75308 116.58701 271.3214 117.23494 270.85572 L 121.91106 267.49475 C 122.41175 267.1349 122.89776 266.75503 123.36792 266.3561 L 128.68877 261.84144 C 129.07108 261.51706 129.44269 261.18026 129.80298 260.83158 L 134.5022 256.28396 C 135.14179 255.665 135.74491 255.00944 136.30852 254.32058 L 140.1018 249.68434 C 140.60852 249.06503 141.08257 248.4197 141.52201 247.75096 L 145.1392 242.24656 C 145.35462 241.91873 145.56163 241.58544 145.76002 241.24702 L 148.28311 236.94292 C 148.66906 236.28454 149.022 235.60735 149.34062 234.91388 L 151.45932 230.3026 C 151.99218 229.14285 152.36334 227.91544 152.5624 226.65474 L 152.5624 226.65474 C 152.7407 225.52547 152.1614 224.41203 151.13432 223.9099 L 145.84088 221.322 C 144.52642 220.67937 143.29183 219.88486 142.1624 218.95474 L 141.75638 218.62037 C 140.91205 217.92504 140.28864 216.99874 139.9624 215.95474 L 139.9624 215.95474 C 139.91573 215.80542 139.75686 215.7222 139.60754 215.76886 C 139.49247 215.80482 139.41277 215.90969 139.40892 216.0302 L 139.29968 219.4531 C 139.20894 222.29619 138.5916 225.09776 137.479 227.71567 L 136.60206 229.77904 C 136.0435 231.09331 135.36374 232.3527 134.5716 233.5409 L 130.88582 239.06958 C 130.13831 240.19085 129.2937 241.24425 128.36175 242.21762 L 122.06668 248.79247 C 121.19861 249.69913 120.25777 250.5332 119.2536 251.28633 L 110.8787 257.5675 C 110.00228 258.22482 109.08002 258.81867 108.11896 259.34454 L 100.93376 263.27606 C 99.62263 263.99347 98.2447 264.58137 96.81952 265.03143 L 90.14661 267.13867 C 88.42973 267.68084 86.65514 268.01954 84.85927 268.1478 L 77.972815 268.6397 C 76.90052 268.7163 75.82417 268.71762 74.751685 268.64365 L 66.31543 268.06184 C 65.28125 267.99052 64.25308 267.84936 63.23795 267.63933 L 56.10274 266.16308 C 54.15079 265.75923 52.259614 265.10335 50.47676 264.21192 L 45.81735 261.8822 C 44.58321 261.26515 43.407106 260.53827 42.30326 259.7104 L 36.621303 255.44892 C 36.182167 255.11957 35.754962 254.7746 35.34051 254.41468 L 29.58533 249.41676 C 28.771043 248.70962 28.007503 247.94608 27.30036 247.1318 L 22.895135 242.0591 C 22.141032 241.19075 21.453124 240.26705 20.8372 239.29578 L 17.103497 233.40802 C 16.742931 232.83944 16.407505 232.2553 16.098188 231.65728 L 14.477815 228.52456 C 13.86867 227.34688 13.362502 226.11874 12.964965 224.85385 L 11.684726 220.78036 C 11.469951 220.09698 11.287218 219.40395 11.137126 218.70351 L 10.911709 217.65157 C 10.826635 217.25456 11.052993 216.8569 11.437797 216.72737 L 11.437797 216.72737 C 11.510292 216.70296 11.588844 216.74195 11.613249 216.81444 C 11.631263 216.86795 11.61499 216.92704 11.572121 216.9638 Z" stroke="#7f8080" stroke-linecap="round" stroke-linejoin="round" stroke-width="1"/>
      </g>
      <g id="Graphic_28">
        <path d="M 11.059248 216.7559 L 16.459248 216.1559 L 23.259248 219.5559 L 28.259248 221.3559 L 36.65925 223.1559 L 45.05925 224.1559 L 53.05925 225.1559 L 60.65925 225.3559 L 69.25925 225.7559 L 80.85925 225.5559 L 89.25925 225.1559 L 98.65925 224.5559 L 107.05925 223.7559 L 116.25925 222.3559 L 124.45925 220.1559 L 130.25925 218.3559 L 135.85925 215.7559 L 138.65925 216.9559 L 139.05925 222.5559 L 136.25925 230.5559 L 130.85925 233.3559 L 120.25925 236.5559 L 108.85925 238.9559 L 97.65925 239.7559 L 85.25925 240.7559 L 74.85925 240.7559 L 65.45925 240.7559 L 53.85925 240.1559 L 42.65925 239.3559 L 32.059248 237.1559 L 23.459248 235.1559 L 17.259248 232.3559 L 15.259248 230.7559 L 12.059248 223.1559 Z" fill="#ffd800"/>
        <path d="M 11.059248 216.7559 L 16.459248 216.1559 L 23.259248 219.5559 L 28.259248 221.3559 L 36.65925 223.1559 L 45.05925 224.1559 L 53.05925 225.1559 L 60.65925 225.3559 L 69.25925 225.7559 L 80.85925 225.5559 L 89.25925 225.1559 L 98.65925 224.5559 L 107.05925 223.7559 L 116.25925 222.3559 L 124.45925 220.1559 L 130.25925 218.3559 L 135.85925 215.7559 L 138.65925 216.9559 L 139.05925 222.5559 L 136.25925 230.5559 L 130.85925 233.3559 L 120.25925 236.5559 L 108.85925 238.9559 L 97.65925 239.7559 L 85.25925 240.7559 L 74.85925 240.7559 L 65.45925 240.7559 L 53.85925 240.1559 L 42.65925 239.3559 L 32.059248 237.1559 L 23.459248 235.1559 L 17.259248 232.3559 L 15.259248 230.7559 L 12.059248 223.1559 Z" stroke="#7f8080" stroke-linecap="round" stroke-linejoin="round" stroke-width="1"/>
      </g>
      <g id="Graphic_27">
        <path d="M -59.18679 642.2 L -59.18679 642.2 C -59.25247 642.7255 -59.189645 643.25905 -59.0037 643.7549 L -58.352694 645.4909 C -58.17594 645.9623 -57.94885 646.4132 -57.67538 646.8358 L -56.707566 648.3315 C -56.16661 649.16756 -55.453506 649.87855 -54.61588 650.417 L -53.53783 651.11005 C -53.237574 651.3031 -52.922994 651.47285 -52.59684 651.6179 L -51.27999 652.2035 C -50.68346 652.46876 -50.052754 652.6493 -49.40621 652.7398 L -40.395787 654.00126 C -40.385793 654.00265 -40.375797 654.004 -40.365797 654.0054 L -28.6498 655.594 C -28.603798 655.6002 -28.557737 655.606 -28.51162 655.6113 L -18.228685 656.7978 C -18.19676 656.8015 -18.164809 656.805 -18.132835 656.8082 L -4.422769 658.1991 C -4.3947873 658.2019 -4.3667884 658.2046 -4.3387743 658.2071 L 6.766526 659.19865 C 6.801644 659.2018 6.836786 659.20466 6.871948 659.2073 L 17.558485 659.99886 C 17.598964 660.00185 17.639468 660.0045 17.679993 660.0068 L 28.187976 660.6016 C 28.208795 660.6028 28.22961 660.604 28.250416 660.6054 L 40.293193 661.3951 C 40.377194 661.4006 40.461288 661.4046 40.545432 661.4071 L 53.99256 661.8026 C 54.01032 661.8031 54.028085 661.8037 54.045846 661.80434 L 64.68971 662.19856 C 64.77603 662.20176 64.86241 662.20335 64.94879 662.20335 L 75.55781 662.20335 C 75.59874 662.20335 75.63967 662.2037 75.680595 662.2044 L 86.76702 662.3989 C 86.93509 662.4019 87.10321 662.3988 87.27106 662.3896 L 97.89229 661.8103 C 97.97689 661.8057 98.06157 661.8026 98.14629 661.80104 L 108.91085 661.6053 C 108.98308 661.604 109.05529 661.6016 109.12745 661.598 L 121.14607 661.00695 C 121.19483 661.00455 121.24355 661.00165 121.29225 660.9982 L 132.5323 660.20945 C 132.59023 660.2054 132.64812 660.2006 132.70594 660.1951 L 145.11651 659.0131 C 145.18497 659.0066 145.25352 659.0011 145.32214 658.9966 L 157.25416 658.2142 C 157.36418 658.207 157.474 658.19715 157.58355 658.18475 L 167.9959 657.006 C 168.01144 657.0042 168.02697 657.0024 168.0425 657.00056 L 177.9902 655.8068 C 178.00954 655.8045 178.02886 655.8021 178.04818 655.7996 L 191.88394 654.0221 C 191.98115 654.0096 192.0781 653.9951 192.1747 653.9785 L 198.72819 652.85506 C 198.92915 652.8206 199.13153 652.79495 199.33473 652.7782 L 202.56706 652.5112 C 203.4563 652.43775 204.3233 652.195 205.12135 651.79594 L 206.60765 651.0528 C 207.20824 650.7525 207.7625 650.36735 208.25338 649.9092 L 209.5885 648.6631 C 210.19532 648.0967 210.65073 647.3875 210.91322 646.6 L 211.20805 645.7155 C 211.27812 645.5053 211.33817 645.2919 211.388 645.07595 L 211.8577 643.04056 C 211.89293 642.8879 211.8595 642.7275 211.7662 642.6017 L 211.7662 642.6017 C 211.67587 642.4798 211.52523 642.4183 211.3754 642.44214 L 202.89555 643.7912 C 202.84466 643.7993 202.79385 643.808 202.74315 643.8172 L 189.7584 646.17805 C 189.6656 646.1949 189.5725 646.2099 189.47911 646.223 L 178.24943 647.7991 C 178.22928 647.80194 178.20914 647.80486 178.18902 647.80786 L 165.06643 649.76645 C 164.90167 649.79105 164.73608 649.80975 164.56998 649.8225 L 151.84517 650.80136 C 151.82786 650.8027 151.81055 650.80396 151.79323 650.80516 L 137.45308 651.801 C 137.4305 651.8026 137.4079 651.804 137.3853 651.8054 L 124.08205 652.5996 C 124.04016 652.6021 123.99824 652.6042 123.9563 652.606 L 109.76485 653.1973 C 109.66776 653.2013 109.5706 653.20335 109.47344 653.20335 L 83.67753 653.20335 C 83.63865 653.20335 83.59976 653.2037 83.56088 653.2043 L 71.8025 653.4003 C 71.68032 653.4023 71.55812 653.4012 71.436005 653.3968 L 60.602405 653.0099 C 60.48029 653.0055 60.35809 653.0044 60.235914 653.0064 L 48.521274 653.20165 C 48.45323 653.2028 48.385176 653.2029 48.31713 653.2021 L 32.614845 653.0058 C 32.484443 653.0042 32.354113 652.9989 32.224007 652.99 L 17.914229 652.0099 C 17.850882 652.0055 17.787597 652.0003 17.724392 651.9943 L 3.233386 650.6047 C 3.2239315 650.6038 3.2144788 650.6029 3.205028 650.6019 L -10.607008 649.2207 C -10.722849 649.20915 -10.838382 649.1947 -10.953501 649.1773 L -25.262653 647.02116 C -25.34141 647.0093 -25.420363 646.9988 -25.49948 646.9896 L -39.01941 645.4221 C -39.126987 645.4096 -39.23426 645.3946 -39.34114 645.3772 L -48.73323 643.8438 C -48.89822 643.8168 -49.062195 643.784 -49.224836 643.7453 L -58.302435 641.58654 C -58.690754 641.4942 -59.08041 641.7341 -59.17276 642.12244 C -59.17884 642.148 -59.183525 642.1739 -59.18679 642.2 Z" fill="#ffd800"/>
        <path d="M -59.18679 642.2 L -59.18679 642.2 C -59.25247 642.7255 -59.189645 643.25905 -59.0037 643.7549 L -58.352694 645.4909 C -58.17594 645.9623 -57.94885 646.4132 -57.67538 646.8358 L -56.707566 648.3315 C -56.16661 649.16756 -55.453506 649.87855 -54.61588 650.417 L -53.53783 651.11005 C -53.237574 651.3031 -52.922994 651.47285 -52.59684 651.6179 L -51.27999 652.2035 C -50.68346 652.46876 -50.052754 652.6493 -49.40621 652.7398 L -40.395787 654.00126 C -40.385793 654.00265 -40.375797 654.004 -40.365797 654.0054 L -28.6498 655.594 C -28.603798 655.6002 -28.557737 655.606 -28.51162 655.6113 L -18.228685 656.7978 C -18.19676 656.8015 -18.164809 656.805 -18.132835 656.8082 L -4.422769 658.1991 C -4.3947873 658.2019 -4.3667884 658.2046 -4.3387743 658.2071 L 6.766526 659.19865 C 6.801644 659.2018 6.836786 659.20466 6.871948 659.2073 L 17.558485 659.99886 C 17.598964 660.00185 17.639468 660.0045 17.679993 660.0068 L 28.187976 660.6016 C 28.208795 660.6028 28.22961 660.604 28.250416 660.6054 L 40.293193 661.3951 C 40.377194 661.4006 40.461288 661.4046 40.545432 661.4071 L 53.99256 661.8026 C 54.01032 661.8031 54.028085 661.8037 54.045846 661.80434 L 64.68971 662.19856 C 64.77603 662.20176 64.86241 662.20335 64.94879 662.20335 L 75.55781 662.20335 C 75.59874 662.20335 75.63967 662.2037 75.680595 662.2044 L 86.76702 662.3989 C 86.93509 662.4019 87.10321 662.3988 87.27106 662.3896 L 97.89229 661.8103 C 97.97689 661.8057 98.06157 661.8026 98.14629 661.80104 L 108.91085 661.6053 C 108.98308 661.604 109.05529 661.6016 109.12745 661.598 L 121.14607 661.00695 C 121.19483 661.00455 121.24355 661.00165 121.29225 660.9982 L 132.5323 660.20945 C 132.59023 660.2054 132.64812 660.2006 132.70594 660.1951 L 145.11651 659.0131 C 145.18497 659.0066 145.25352 659.0011 145.32214 658.9966 L 157.25416 658.2142 C 157.36418 658.207 157.474 658.19715 157.58355 658.18475 L 167.9959 657.006 C 168.01144 657.0042 168.02697 657.0024 168.0425 657.00056 L 177.9902 655.8068 C 178.00954 655.8045 178.02886 655.8021 178.04818 655.7996 L 191.88394 654.0221 C 191.98115 654.0096 192.0781 653.9951 192.1747 653.9785 L 198.72819 652.85506 C 198.92915 652.8206 199.13153 652.79495 199.33473 652.7782 L 202.56706 652.5112 C 203.4563 652.43775 204.3233 652.195 205.12135 651.79594 L 206.60765 651.0528 C 207.20824 650.7525 207.7625 650.36735 208.25338 649.9092 L 209.5885 648.6631 C 210.19532 648.0967 210.65073 647.3875 210.91322 646.6 L 211.20805 645.7155 C 211.27812 645.5053 211.33817 645.2919 211.388 645.07595 L 211.8577 643.04056 C 211.89293 642.8879 211.8595 642.7275 211.7662 642.6017 L 211.7662 642.6017 C 211.67587 642.4798 211.52523 642.4183 211.3754 642.44214 L 202.89555 643.7912 C 202.84466 643.7993 202.79385 643.808 202.74315 643.8172 L 189.7584 646.17805 C 189.6656 646.1949 189.5725 646.2099 189.47911 646.223 L 178.24943 647.7991 C 178.22928 647.80194 178.20914 647.80486 178.18902 647.80786 L 165.06643 649.76645 C 164.90167 649.79105 164.73608 649.80975 164.56998 649.8225 L 151.84517 650.80136 C 151.82786 650.8027 151.81055 650.80396 151.79323 650.80516 L 137.45308 651.801 C 137.4305 651.8026 137.4079 651.804 137.3853 651.8054 L 124.08205 652.5996 C 124.04016 652.6021 123.99824 652.6042 123.9563 652.606 L 109.76485 653.1973 C 109.66776 653.2013 109.5706 653.20335 109.47344 653.20335 L 83.67753 653.20335 C 83.63865 653.20335 83.59976 653.2037 83.56088 653.2043 L 71.8025 653.4003 C 71.68032 653.4023 71.55812 653.4012 71.436005 653.3968 L 60.602405 653.0099 C 60.48029 653.0055 60.35809 653.0044 60.235914 653.0064 L 48.521274 653.20165 C 48.45323 653.2028 48.385176 653.2029 48.31713 653.2021 L 32.614845 653.0058 C 32.484443 653.0042 32.354113 652.9989 32.224007 652.99 L 17.914229 652.0099 C 17.850882 652.0055 17.787597 652.0003 17.724392 651.9943 L 3.233386 650.6047 C 3.2239315 650.6038 3.2144788 650.6029 3.205028 650.6019 L -10.607008 649.2207 C -10.722849 649.20915 -10.838382 649.1947 -10.953501 649.1773 L -25.262653 647.02116 C -25.34141 647.0093 -25.420363 646.9988 -25.49948 646.9896 L -39.01941 645.4221 C -39.126987 645.4096 -39.23426 645.3946 -39.34114 645.3772 L -48.73323 643.8438 C -48.89822 643.8168 -49.062195 643.784 -49.224836 643.7453 L -58.302435 641.58654 C -58.690754 641.4942 -59.08041 641.7341 -59.17276 642.12244 C -59.17884 642.148 -59.183525 642.1739 -59.18679 642.2 Z" stroke="#7f8080" stroke-linecap="round" stroke-linejoin="round" stroke-width="1"/>
      </g>
    </g>
  </g>
</svg>
