<?xml version="1.0" encoding="UTF-8" standalone="no"?>
<!DOCTYPE svg PUBLIC "-//W3C//DTD SVG 1.1//EN" "http://www.w3.org/Graphics/SVG/1.1/DTD/svg11.dtd">
<svg xmlns:xl="http://www.w3.org/1999/xlink" xmlns:dc="http://purl.org/dc/elements/1.1/" xmlns="http://www.w3.org/2000/svg" version="1.1" viewBox="555 643 433 449" width="433" height="449">
  <defs>
    <radialGradient cx="0" cy="0" r="1" id="Gradient" gradientUnits="userSpaceOnUse">
      <stop offset="0" stop-color="#9e0907"/>
      <stop offset=".4338305" stop-color="#65110f"/>
      <stop offset="1" stop-color="#1e1c15"/>
    </radialGradient>
    <radialGradient id="Obj_Gradient" xl:href="#Gradient" gradientTransform="translate(800.44315 654.0987) scale(87.33024)"/>
  </defs>
  <metadata> Produced by OmniGraffle 7.19.2\n2023-12-06 01:13:20 +0000</metadata>
  <g id="Canvas_228" stroke-opacity="1" fill-opacity="1" stroke-dasharray="none" fill="none" stroke="none">
    <title>Canvas 228</title>
    <g id="Canvas_228_Capa_1">
      <title>Capa 1</title>
      <g id="Graphic_13">
        <path d="M 709.00565 644.59045 L 717.1711 647.7082 C 718.0291 648.03576 718.9059 648.3117 719.7969 648.5344 L 733.5141 651.9637 C 734.6758 652.2541 735.8583 652.4534 737.051 652.5597 L 754.57715 654.1214 C 755.165 654.1738 755.7546 654.2035 756.3448 654.21054 L 771.8237 654.3948 C 772.114 654.3983 772.4044 654.3962 772.6947 654.3887 L 787.118 654.01406 C 787.4788 654.0047 787.8393 653.9868 788.1992 653.9605 L 802.5705 652.9089 C 803.562 652.8364 804.5477 652.69964 805.5214 652.49956 L 817.0944 650.12155 C 818.1364 649.90744 819.1623 649.6213 820.1647 649.2652 L 831.9166 645.0901 C 833.007 644.7028 834.2102 645.23354 834.6592 646.3 L 834.6592 646.3 C 835.1814 647.5401 835.3334 648.90485 835.0968 650.22945 L 834.9164 651.2401 C 834.6126 652.9413 834.1181 654.6028 833.4421 656.1932 L 831.8989 659.8243 C 831.3404 661.1386 830.6606 662.398 829.8685 663.5862 L 826.1827 669.11485 C 825.4352 670.2361 824.5906 671.2895 823.6586 672.2629 L 817.3635 678.8377 C 816.4955 679.7444 815.5546 680.5785 814.5505 681.3316 L 806.1756 687.6128 C 805.2991 688.2701 804.3769 688.8639 803.4158 689.3898 L 796.2306 693.3213 C 794.9195 694.0387 793.5416 694.6266 792.1164 695.0767 L 785.4435 697.1839 C 783.7266 697.7261 781.952 698.0648 780.1561 698.1931 L 773.2697 698.685 C 772.1974 698.7616 771.121 698.7629 770.0485 698.6889 L 761.6123 698.1071 C 760.5781 698.0358 759.5499 697.8946 758.5348 697.6846 L 751.3996 696.20835 C 749.44765 695.8045 747.5565 695.1486 745.7736 694.2572 L 741.1142 691.9275 C 739.8801 691.3104 738.704 690.5835 737.6001 689.75566 L 731.9182 685.4942 C 731.479 685.1648 731.0518 684.8199 730.6374 684.45995 L 724.8822 679.462 C 724.0679 678.7549 723.3044 677.99135 722.5972 677.17706 L 718.192 672.1044 C 717.4379 671.236 716.75 670.3123 716.1341 669.34105 L 712.40036 663.4533 C 712.0398 662.8847 711.7044 662.3006 711.39505 661.70255 L 709.7747 658.5698 C 709.1655 657.39215 708.6594 656.164 708.2618 654.8991 L 706.9816 650.8256 C 706.7668 650.14225 706.5841 649.4492 706.434 648.7488 L 706.35925 648.4 C 706.1646 647.4916 706.27185 646.5444 706.6647 645.70254 L 706.75925 645.5 C 707.1537 644.6547 708.1342 644.2577 709.00565 644.59045 Z" fill="url(#Obj_Gradient)"/>
        <path d="M 709.00565 644.59045 L 717.1711 647.7082 C 718.0291 648.03576 718.9059 648.3117 719.7969 648.5344 L 733.5141 651.9637 C 734.6758 652.2541 735.8583 652.4534 737.051 652.5597 L 754.57715 654.1214 C 755.165 654.1738 755.7546 654.2035 756.3448 654.21054 L 771.8237 654.3948 C 772.114 654.3983 772.4044 654.3962 772.6947 654.3887 L 787.118 654.01406 C 787.4788 654.0047 787.8393 653.9868 788.1992 653.9605 L 802.5705 652.9089 C 803.562 652.8364 804.5477 652.69964 805.5214 652.49956 L 817.0944 650.12155 C 818.1364 649.90744 819.1623 649.6213 820.1647 649.2652 L 831.9166 645.0901 C 833.007 644.7028 834.2102 645.23354 834.6592 646.3 L 834.6592 646.3 C 835.1814 647.5401 835.3334 648.90485 835.0968 650.22945 L 834.9164 651.2401 C 834.6126 652.9413 834.1181 654.6028 833.4421 656.1932 L 831.8989 659.8243 C 831.3404 661.1386 830.6606 662.398 829.8685 663.5862 L 826.1827 669.11485 C 825.4352 670.2361 824.5906 671.2895 823.6586 672.2629 L 817.3635 678.8377 C 816.4955 679.7444 815.5546 680.5785 814.5505 681.3316 L 806.1756 687.6128 C 805.2991 688.2701 804.3769 688.8639 803.4158 689.3898 L 796.2306 693.3213 C 794.9195 694.0387 793.5416 694.6266 792.1164 695.0767 L 785.4435 697.1839 C 783.7266 697.7261 781.952 698.0648 780.1561 698.1931 L 773.2697 698.685 C 772.1974 698.7616 771.121 698.7629 770.0485 698.6889 L 761.6123 698.1071 C 760.5781 698.0358 759.5499 697.8946 758.5348 697.6846 L 751.3996 696.20835 C 749.44765 695.8045 747.5565 695.1486 745.7736 694.2572 L 741.1142 691.9275 C 739.8801 691.3104 738.704 690.5835 737.6001 689.75566 L 731.9182 685.4942 C 731.479 685.1648 731.0518 684.8199 730.6374 684.45995 L 724.8822 679.462 C 724.0679 678.7549 723.3044 677.99135 722.5972 677.17706 L 718.192 672.1044 C 717.4379 671.236 716.75 670.3123 716.1341 669.34105 L 712.40036 663.4533 C 712.0398 662.8847 711.7044 662.3006 711.39505 661.70255 L 709.7747 658.5698 C 709.1655 657.39215 708.6594 656.164 708.2618 654.8991 L 706.9816 650.8256 C 706.7668 650.14225 706.5841 649.4492 706.434 648.7488 L 706.35925 648.4 C 706.1646 647.4916 706.27185 646.5444 706.6647 645.70254 L 706.75925 645.5 C 707.1537 644.6547 708.1342 644.2577 709.00565 644.59045 Z" stroke="#7f8080" stroke-linecap="round" stroke-linejoin="round" stroke-width="1"/>
      </g>
      <g id="Graphic_12">
        <path d="M 644.97346 1081.2638 L 658.7157 1083.5542 C 658.8991 1083.5847 659.083 1083.6121 659.2673 1083.6362 L 687.6209 1087.3515 C 687.8675 1087.3838 688.1147 1087.4104 688.3625 1087.4312 L 718.6054 1089.9677 C 718.8623 1089.9892 719.1197 1090.0046 719.3773 1090.0137 L 758.3082 1091.39 C 758.4966 1091.3967 758.685 1091.4 758.8735 1091.4 L 790.3408 1091.4 C 790.5075 1091.4 790.6741 1091.3974 790.8406 1091.3922 L 815.8754 1090.6099 C 816.0856 1090.6033 816.2957 1090.5926 816.5055 1090.5777 L 838.5533 1089.0168 C 838.7116 1089.0056 838.8698 1088.992 839.0277 1088.9761 L 864.2881 1086.4305 C 864.4899 1086.4102 864.6912 1086.386 864.892 1086.358 L 888.6847 1083.0427 C 888.8888 1083.0142 889.0922 1082.9819 889.295 1082.9456 L 898.4908 1081.3 C 903.8179 1080.3467 907.4688 1075.3931 906.8023 1070.0226 L 904.5948 1052.232 C 904.5921 1052.2107 904.5895 1052.1893 904.587 1052.168 L 901.0231 1022.4695 C 901.0016 1022.2898 900.9831 1022.1099 900.9676 1021.9296 L 898.6054 994.3704 C 898.5957 994.2568 898.5871 994.1431 898.5798 994.0294 L 897.1932 972.4377 C 897.1916 972.4126 897.1899 972.3874 897.1882 972.3623 L 895.596 949.276 C 895.5925 949.2253 895.5893 949.1747 895.5863 949.124 L 894.4099 929.3218 C 894.3972 929.1073 894.3887 928.8925 894.3846 928.6777 L 893.9924 908.0829 C 893.9913 908.0276 893.99 907.9724 893.9883 907.9172 L 893.3932 887.6828 C 893.3916 887.6276 893.3903 887.5724 893.3892 887.5172 L 892.9985 867.0076 C 892.9934 866.7359 892.9951 866.4641 893.0038 866.1925 L 893.5897 847.8329 C 893.5904 847.811 893.5912 847.789 893.592 847.7671 L 894.3801 825.8978 C 894.3872 825.6993 894.3981 825.5009 894.4126 825.3028 L 895.9701 804.0822 C 895.9839 803.8941 895.9944 803.7057 896.0015 803.5172 L 896.756 783.6184 C 896.7792 783.0066 896.8374 782.3967 896.9305 781.79165 L 899.6695 763.9881 C 899.7503 763.463 899.8572 762.9423 899.9898 762.4278 L 904.6181 744.4702 C 904.7332 744.0236 904.8675 743.5822 905.0207 743.14725 L 910.7415 726.9076 C 910.9076 726.4361 911.0957 725.9727 911.3052 725.5188 L 916.8367 713.5338 C 916.9394 713.3113 917.0472 713.0912 917.16 712.87364 L 922.5222 702.5322 C 922.5679 702.4441 922.6145 702.3564 922.6618 702.2691 L 927.8778 692.6521 C 928.615 691.2928 929.5647 690.0599 930.6908 689 L 930.6908 689 C 931.366 688.3645 931.3982 687.302 930.7627 686.6268 C 930.6382 686.4946 930.4931 686.3834 930.333 686.2976 L 927.1188 684.5757 C 926.9002 684.4586 926.6788 684.34656 926.4549 684.2397 L 918.601 680.4912 C 918.1944 680.2972 917.7797 680.1204 917.3582 679.9613 L 907.6834 676.3104 C 907.4883 676.2368 907.2919 676.167 907.0941 676.1011 L 894.3996 671.8696 C 894.2604 671.8232 894.1206 671.7787 893.9801 671.73616 L 881.0966 667.83206 C 881.026 667.8107 880.9557 667.7888 880.8854 667.7665 L 868.3814 663.7879 C 867.9878 663.6627 867.5992 663.52225 867.2164 663.3669 L 855.2405 658.5071 C 854.4088 658.16964 853.607 657.7628 852.8436 657.2908 L 843.2244 651.3444 C 843.0687 651.2481 842.9146 651.1492 842.7623 651.0477 L 837.8722 647.7876 C 836.8908 647.13335 836.0195 646.32745 835.2908 645.4 L 835.2908 645.4 C 835.1852 645.2656 834.9906 645.24225 834.8562 645.34785 C 834.7535 645.4286 834.7125 645.5651 834.7538 645.6891 L 834.8908 646.1 C 835.35 647.47775 835.4546 648.949 835.1948 650.3779 L 834.7997 652.55115 C 834.5285 654.0428 834.0466 655.48835 833.3686 656.8444 L 831.8363 659.90904 C 831.5396 660.5024 831.2062 661.0768 830.8382 661.6288 L 827.6345 666.4344 C 827.2059 667.0773 826.7313 667.6883 826.2144 668.2626 L 821.6524 673.33156 C 821.6113 673.3772 821.57 673.4226 821.5284 673.4677 L 815.5342 679.97576 C 814.9064 680.6573 814.2207 681.283 813.4846 681.8459 L 808.4605 685.6879 C 808.0143 686.0291 807.5505 686.3465 807.071 686.6389 L 800.5846 690.594 C 799.9229 690.9975 799.2328 691.3523 798.5197 691.6558 L 791.4043 694.6836 C 790.5967 695.0273 789.7621 695.3039 788.9091 695.5107 L 784.83 696.4996 C 784.0052 696.69955 783.1657 696.83356 782.3196 696.90035 L 776.6194 697.3504 C 776.2005 697.38344 775.7804 697.4 775.3602 697.4 L 768.3279 697.4 C 767.5708 697.4 766.8146 697.3463 766.0651 697.2392 L 758.1187 696.104 C 757.6337 696.0347 757.1521 695.9432 756.6755 695.8297 L 750.7143 694.41035 C 749.5688 694.1376 748.4569 693.7393 747.3988 693.2225 L 741.1188 690.15556 C 740.6338 689.9187 740.161 689.6574 739.7024 689.3727 L 735.4905 686.75846 C 734.89135 686.3866 734.3174 685.97546 733.7725 685.5278 L 729.3264 681.8757 C 729.1027 681.6919 728.884 681.5021 728.6706 681.3065 L 724.8683 677.82104 C 724.417 677.40736 723.9898 676.9681 723.58885 676.5055 L 719.4701 671.7531 C 719.1507 671.38455 718.84836 671.0016 718.56395 670.6055 L 714.1343 664.4356 C 713.6394 663.7463 713.2001 663.0187 712.8206 662.2597 L 710.2442 657.1068 C 710.2086 657.0356 710.1735 656.96414 710.139 656.8924 L 708.8908 654.3 C 708.0401 652.5331 707.68455 650.5686 707.8621 648.61564 L 708.0423 646.6334 C 708.0661 646.3715 707.8731 646.13994 707.61125 646.11614 C 707.4489 646.1014 707.2902 646.17075 707.1908 646.3 L 707.1908 646.3 C 706.5273 647.1625 705.7472 647.92856 704.87285 648.57625 L 700.9763 651.4626 C 700.8526 651.5542 700.7276 651.644 700.6014 651.732 L 695.9791 654.9536 C 694.7924 655.7807 693.49895 656.4431 692.1342 656.9226 L 687.5271 658.5413 C 687.0365 658.7137 686.5546 658.90984 686.0832 659.1291 L 679.2364 662.3137 C 678.5402 662.6375 677.82165 662.9107 677.08625 663.13136 L 666.2159 666.3925 C 666.19914 666.3975 666.1824 666.4025 666.1657 666.4076 L 655.1976 669.7372 C 655.05974 669.7791 654.9224 669.8228 654.7857 669.8684 L 641.8645 674.1754 C 641.81534 674.1918 641.76614 674.20795 641.7169 674.22384 L 630.34946 677.89075 C 629.711 678.0967 629.0861 678.3426 628.47846 678.62704 L 620.5465 682.3399 C 620.17616 682.5132 619.8126 682.7007 619.4566 682.9019 L 613.5105 686.2628 C 612.2575 686.971 611.8158 688.5609 612.52406 689.814 C 612.6012 689.9504 612.69045 690.0796 612.7908 690.2 L 613.6549 691.2369 C 614.40984 692.1429 615.0623 693.1295 615.6004 694.1788 L 618.6776 700.1792 C 618.75304 700.3264 618.8308 700.4724 618.9108 700.61715 L 622.8655 707.7734 C 622.949 707.92445 623.0301 708.0769 623.1086 708.2306 L 627.2169 716.26856 C 627.466 716.7559 627.6899 717.2556 627.88776 717.7659 L 631.3705 726.7478 C 631.384 726.7826 631.39765 726.8174 631.4114 726.8521 L 635.0077 735.9375 C 635.1297 736.2458 635.2421 736.5577 635.34476 736.8729 L 637.9666 744.9257 C 637.9827 744.9752 637.9986 745.0248 638.01424 745.0745 L 641.0863 754.8328 C 641.2891 755.47695 641.4509 756.1333 641.5707 756.7979 L 643.55605 767.8074 C 643.5792 767.9358 643.6008 768.0645 643.6208 768.1934 L 645.3267 779.1868 C 645.3694 779.4622 645.4049 779.7387 645.4332 780.016 L 646.32065 788.7127 C 646.3674 789.1707 646.3943 789.6305 646.4014 790.0908 L 646.58565 802.0664 C 646.5891 802.2888 646.5971 802.5111 646.6098 802.7331 L 647.3802 816.2146 C 647.38725 816.3382 647.39575 816.4617 647.4057 816.5851 L 648.73924 833.1594 C 648.7736 833.5863 648.7908 834.0144 648.7908 834.4426 L 648.7908 846.8924 C 648.7908 847.0975 648.7947 847.3025 648.8026 847.5074 L 649.38295 862.5965 C 649.3882 862.7322 649.3917 862.8679 649.3934 863.0036 L 649.5856 877.7999 C 649.58905 878.0666 649.58584 878.3333 649.576 878.5999 L 649.00174 894.104 C 648.9944 894.3013 648.9908 894.4988 648.9908 894.6962 L 648.9908 908.2924 C 648.9908 908.4975 648.98684 908.7025 648.97896 908.9074 L 648.3938 924.1224 C 648.3918 924.1741 648.3895 924.2259 648.38704 924.2776 L 647.5917 940.7806 C 647.5911 940.7935 647.59045 940.8065 647.5898 940.8195 L 646.7953 956.5106 C 646.7923 956.5702 646.78894 956.6298 646.78526 956.6893 L 645.59634 975.9101 C 645.5926 975.97 645.5886 976.03 645.5842 976.0899 L 643.8011 1000.4594 C 643.7942 1000.5531 643.7865 1000.6468 643.778 1000.7404 L 641.9921 1020.3852 C 641.9912 1020.3951 641.9903 1020.405 641.9894 1020.4148 L 640.21864 1039.4997 C 640.2001 1039.6999 640.1777 1039.8997 640.1516 1040.099 L 638.1909 1055.0717 C 638.0581 1056.086 637.78896 1057.0776 637.3908 1058.0197 L 637.3908 1058.0197 C 636.9932 1058.9605 636.7445 1059.9574 636.6537 1060.9747 L 635.8908 1069.5197 C 635.383 1075.2068 639.3415 1080.3251 644.97346 1081.2638 Z" fill="white"/>
        <path d="M 644.97346 1081.2638 L 658.7157 1083.5542 C 658.8991 1083.5847 659.083 1083.6121 659.2673 1083.6362 L 687.6209 1087.3515 C 687.8675 1087.3838 688.1147 1087.4104 688.3625 1087.4312 L 718.6054 1089.9677 C 718.8623 1089.9892 719.1197 1090.0046 719.3773 1090.0137 L 758.3082 1091.39 C 758.4966 1091.3967 758.685 1091.4 758.8735 1091.4 L 790.3408 1091.4 C 790.5075 1091.4 790.6741 1091.3974 790.8406 1091.3922 L 815.8754 1090.6099 C 816.0856 1090.6033 816.2957 1090.5926 816.5055 1090.5777 L 838.5533 1089.0168 C 838.7116 1089.0056 838.8698 1088.992 839.0277 1088.9761 L 864.2881 1086.4305 C 864.4899 1086.4102 864.6912 1086.386 864.892 1086.358 L 888.6847 1083.0427 C 888.8888 1083.0142 889.0922 1082.9819 889.295 1082.9456 L 898.4908 1081.3 C 903.8179 1080.3467 907.4688 1075.3931 906.8023 1070.0226 L 904.5948 1052.232 C 904.5921 1052.2107 904.5895 1052.1893 904.587 1052.168 L 901.0231 1022.4695 C 901.0016 1022.2898 900.9831 1022.1099 900.9676 1021.9296 L 898.6054 994.3704 C 898.5957 994.2568 898.5871 994.1431 898.5798 994.0294 L 897.1932 972.4377 C 897.1916 972.4126 897.1899 972.3874 897.1882 972.3623 L 895.596 949.276 C 895.5925 949.2253 895.5893 949.1747 895.5863 949.124 L 894.4099 929.3218 C 894.3972 929.1073 894.3887 928.8925 894.3846 928.6777 L 893.9924 908.0829 C 893.9913 908.0276 893.99 907.9724 893.9883 907.9172 L 893.3932 887.6828 C 893.3916 887.6276 893.3903 887.5724 893.3892 887.5172 L 892.9985 867.0076 C 892.9934 866.7359 892.9951 866.4641 893.0038 866.1925 L 893.5897 847.8329 C 893.5904 847.811 893.5912 847.789 893.592 847.7671 L 894.3801 825.8978 C 894.3872 825.6993 894.3981 825.5009 894.4126 825.3028 L 895.9701 804.0822 C 895.9839 803.8941 895.9944 803.7057 896.0015 803.5172 L 896.756 783.6184 C 896.7792 783.0066 896.8374 782.3967 896.9305 781.79165 L 899.6695 763.9881 C 899.7503 763.463 899.8572 762.9423 899.9898 762.4278 L 904.6181 744.4702 C 904.7332 744.0236 904.8675 743.5822 905.0207 743.14725 L 910.7415 726.9076 C 910.9076 726.4361 911.0957 725.9727 911.3052 725.5188 L 916.8367 713.5338 C 916.9394 713.3113 917.0472 713.0912 917.16 712.87364 L 922.5222 702.5322 C 922.5679 702.4441 922.6145 702.3564 922.6618 702.2691 L 927.8778 692.6521 C 928.615 691.2928 929.5647 690.0599 930.6908 689 L 930.6908 689 C 931.366 688.3645 931.3982 687.302 930.7627 686.6268 C 930.6382 686.4946 930.4931 686.3834 930.333 686.2976 L 927.1188 684.5757 C 926.9002 684.4586 926.6788 684.34656 926.4549 684.2397 L 918.601 680.4912 C 918.1944 680.2972 917.7797 680.1204 917.3582 679.9613 L 907.6834 676.3104 C 907.4883 676.2368 907.2919 676.167 907.0941 676.1011 L 894.3996 671.8696 C 894.2604 671.8232 894.1206 671.7787 893.9801 671.73616 L 881.0966 667.83206 C 881.026 667.8107 880.9557 667.7888 880.8854 667.7665 L 868.3814 663.7879 C 867.9878 663.6627 867.5992 663.52225 867.2164 663.3669 L 855.2405 658.5071 C 854.4088 658.16964 853.607 657.7628 852.8436 657.2908 L 843.2244 651.3444 C 843.0687 651.2481 842.9146 651.1492 842.7623 651.0477 L 837.8722 647.7876 C 836.8908 647.13335 836.0195 646.32745 835.2908 645.4 L 835.2908 645.4 C 835.1852 645.2656 834.9906 645.24225 834.8562 645.34785 C 834.7535 645.4286 834.7125 645.5651 834.7538 645.6891 L 834.8908 646.1 C 835.35 647.47775 835.4546 648.949 835.1948 650.3779 L 834.7997 652.55115 C 834.5285 654.0428 834.0466 655.48835 833.3686 656.8444 L 831.8363 659.90904 C 831.5396 660.5024 831.2062 661.0768 830.8382 661.6288 L 827.6345 666.4344 C 827.2059 667.0773 826.7313 667.6883 826.2144 668.2626 L 821.6524 673.33156 C 821.6113 673.3772 821.57 673.4226 821.5284 673.4677 L 815.5342 679.97576 C 814.9064 680.6573 814.2207 681.283 813.4846 681.8459 L 808.4605 685.6879 C 808.0143 686.0291 807.5505 686.3465 807.071 686.6389 L 800.5846 690.594 C 799.9229 690.9975 799.2328 691.3523 798.5197 691.6558 L 791.4043 694.6836 C 790.5967 695.0273 789.7621 695.3039 788.9091 695.5107 L 784.83 696.4996 C 784.0052 696.69955 783.1657 696.83356 782.3196 696.90035 L 776.6194 697.3504 C 776.2005 697.38344 775.7804 697.4 775.3602 697.4 L 768.3279 697.4 C 767.5708 697.4 766.8146 697.3463 766.0651 697.2392 L 758.1187 696.104 C 757.6337 696.0347 757.1521 695.9432 756.6755 695.8297 L 750.7143 694.41035 C 749.5688 694.1376 748.4569 693.7393 747.3988 693.2225 L 741.1188 690.15556 C 740.6338 689.9187 740.161 689.6574 739.7024 689.3727 L 735.4905 686.75846 C 734.89135 686.3866 734.3174 685.97546 733.7725 685.5278 L 729.3264 681.8757 C 729.1027 681.6919 728.884 681.5021 728.6706 681.3065 L 724.8683 677.82104 C 724.417 677.40736 723.9898 676.9681 723.58885 676.5055 L 719.4701 671.7531 C 719.1507 671.38455 718.84836 671.0016 718.56395 670.6055 L 714.1343 664.4356 C 713.6394 663.7463 713.2001 663.0187 712.8206 662.2597 L 710.2442 657.1068 C 710.2086 657.0356 710.1735 656.96414 710.139 656.8924 L 708.8908 654.3 C 708.0401 652.5331 707.68455 650.5686 707.8621 648.61564 L 708.0423 646.6334 C 708.0661 646.3715 707.8731 646.13994 707.61125 646.11614 C 707.4489 646.1014 707.2902 646.17075 707.1908 646.3 L 707.1908 646.3 C 706.5273 647.1625 705.7472 647.92856 704.87285 648.57625 L 700.9763 651.4626 C 700.8526 651.5542 700.7276 651.644 700.6014 651.732 L 695.9791 654.9536 C 694.7924 655.7807 693.49895 656.4431 692.1342 656.9226 L 687.5271 658.5413 C 687.0365 658.7137 686.5546 658.90984 686.0832 659.1291 L 679.2364 662.3137 C 678.5402 662.6375 677.82165 662.9107 677.08625 663.13136 L 666.2159 666.3925 C 666.19914 666.3975 666.1824 666.4025 666.1657 666.4076 L 655.1976 669.7372 C 655.05974 669.7791 654.9224 669.8228 654.7857 669.8684 L 641.8645 674.1754 C 641.81534 674.1918 641.76614 674.20795 641.7169 674.22384 L 630.34946 677.89075 C 629.711 678.0967 629.0861 678.3426 628.47846 678.62704 L 620.5465 682.3399 C 620.17616 682.5132 619.8126 682.7007 619.4566 682.9019 L 613.5105 686.2628 C 612.2575 686.971 611.8158 688.5609 612.52406 689.814 C 612.6012 689.9504 612.69045 690.0796 612.7908 690.2 L 613.6549 691.2369 C 614.40984 692.1429 615.0623 693.1295 615.6004 694.1788 L 618.6776 700.1792 C 618.75304 700.3264 618.8308 700.4724 618.9108 700.61715 L 622.8655 707.7734 C 622.949 707.92445 623.0301 708.0769 623.1086 708.2306 L 627.2169 716.26856 C 627.466 716.7559 627.6899 717.2556 627.88776 717.7659 L 631.3705 726.7478 C 631.384 726.7826 631.39765 726.8174 631.4114 726.8521 L 635.0077 735.9375 C 635.1297 736.2458 635.2421 736.5577 635.34476 736.8729 L 637.9666 744.9257 C 637.9827 744.9752 637.9986 745.0248 638.01424 745.0745 L 641.0863 754.8328 C 641.2891 755.47695 641.4509 756.1333 641.5707 756.7979 L 643.55605 767.8074 C 643.5792 767.9358 643.6008 768.0645 643.6208 768.1934 L 645.3267 779.1868 C 645.3694 779.4622 645.4049 779.7387 645.4332 780.016 L 646.32065 788.7127 C 646.3674 789.1707 646.3943 789.6305 646.4014 790.0908 L 646.58565 802.0664 C 646.5891 802.2888 646.5971 802.5111 646.6098 802.7331 L 647.3802 816.2146 C 647.38725 816.3382 647.39575 816.4617 647.4057 816.5851 L 648.73924 833.1594 C 648.7736 833.5863 648.7908 834.0144 648.7908 834.4426 L 648.7908 846.8924 C 648.7908 847.0975 648.7947 847.3025 648.8026 847.5074 L 649.38295 862.5965 C 649.3882 862.7322 649.3917 862.8679 649.3934 863.0036 L 649.5856 877.7999 C 649.58905 878.0666 649.58584 878.3333 649.576 878.5999 L 649.00174 894.104 C 648.9944 894.3013 648.9908 894.4988 648.9908 894.6962 L 648.9908 908.2924 C 648.9908 908.4975 648.98684 908.7025 648.97896 908.9074 L 648.3938 924.1224 C 648.3918 924.1741 648.3895 924.2259 648.38704 924.2776 L 647.5917 940.7806 C 647.5911 940.7935 647.59045 940.8065 647.5898 940.8195 L 646.7953 956.5106 C 646.7923 956.5702 646.78894 956.6298 646.78526 956.6893 L 645.59634 975.9101 C 645.5926 975.97 645.5886 976.03 645.5842 976.0899 L 643.8011 1000.4594 C 643.7942 1000.5531 643.7865 1000.6468 643.778 1000.7404 L 641.9921 1020.3852 C 641.9912 1020.3951 641.9903 1020.405 641.9894 1020.4148 L 640.21864 1039.4997 C 640.2001 1039.6999 640.1777 1039.8997 640.1516 1040.099 L 638.1909 1055.0717 C 638.0581 1056.086 637.78896 1057.0776 637.3908 1058.0197 L 637.3908 1058.0197 C 636.9932 1058.9605 636.7445 1059.9574 636.6537 1060.9747 L 635.8908 1069.5197 C 635.383 1075.2068 639.3415 1080.3251 644.97346 1081.2638 Z" stroke="#7f8080" stroke-linecap="round" stroke-linejoin="round" stroke-width="1"/>
      </g>
      <g id="Graphic_11">
        <path d="M 556 795.4461 L 562.2 799.8461 L 570.4 803.8461 L 579 807.4461 L 588 811.2461 L 599 815.2461 L 608.4 818.0461 L 617.4 820.6461 L 626.4 823.2461 L 631.8 824.6461 L 637.4 825.6461 L 639.8 819.8461 L 642.4 814.4461 L 644.6 810.4461 L 647.2 807.0461 L 647.4 798.0461 L 646.8 787.0461 L 645 776.2461 L 643.4 765.8461 L 640.8 754.8461 L 638.4 745.24614 L 635.6 737.24614 L 632.4 727.84614 L 629.6 720.44614 L 626 712.84614 L 623 708 L 618 697.84614 L 615.4 694.24614 L 611.8 688.44614 L 606.4 692.84614 L 601.6 697.64614 L 597 703.84614 L 592.6 710.04614 L 587.8 718.64614 L 583 728.04614 L 578.2 737.24614 L 574.6 745.84614 L 570.6 754.8461 L 567.4 763.0461 L 563.6 772.4461 L 560.8 780.4461 L 557.8 788.8461 Z" fill="white"/>
        <path d="M 556 795.4461 L 562.2 799.8461 L 570.4 803.8461 L 579 807.4461 L 588 811.2461 L 599 815.2461 L 608.4 818.0461 L 617.4 820.6461 L 626.4 823.2461 L 631.8 824.6461 L 637.4 825.6461 L 639.8 819.8461 L 642.4 814.4461 L 644.6 810.4461 L 647.2 807.0461 L 647.4 798.0461 L 646.8 787.0461 L 645 776.2461 L 643.4 765.8461 L 640.8 754.8461 L 638.4 745.24614 L 635.6 737.24614 L 632.4 727.84614 L 629.6 720.44614 L 626 712.84614 L 623 708 L 618 697.84614 L 615.4 694.24614 L 611.8 688.44614 L 606.4 692.84614 L 601.6 697.64614 L 597 703.84614 L 592.6 710.04614 L 587.8 718.64614 L 583 728.04614 L 578.2 737.24614 L 574.6 745.84614 L 570.6 754.8461 L 567.4 763.0461 L 563.6 772.4461 L 560.8 780.4461 L 557.8 788.8461 Z" stroke="#7f8080" stroke-linecap="round" stroke-linejoin="round" stroke-width="1"/>
      </g>
      <g id="Graphic_10">
        <path d="M 987.4053 794.50275 L 981.2053 798.90275 L 973.0053 802.90275 L 964.4053 806.50275 L 955.4053 810.30275 L 944.4053 814.30275 L 935.0053 817.10275 L 926.0053 819.70275 L 917.0053 822.30275 L 911.6053 823.70275 L 906.0053 824.70275 L 903.6053 818.90275 L 901.0053 813.50275 L 898.8053 809.50275 L 896.2053 806.10275 L 896.0053 797.10275 L 896.6053 786.10275 L 898.4053 775.30275 L 900.0053 764.90275 L 902.6053 753.90275 L 905.0053 744.30275 L 907.8053 736.30275 L 911.0053 726.90275 L 913.8053 719.50275 L 917.4053 711.90275 L 921.4053 704.30275 L 925.4053 696.90275 L 928.0053 693.30275 L 931.6053 687.50275 L 937.0053 691.90275 L 941.8053 696.70275 L 946.4053 702.90275 L 950.8053 709.10275 L 955.6053 717.70275 L 960.4053 727.10275 L 965.2053 736.30275 L 968.8053 744.90275 L 972.8053 753.90275 L 976.0053 762.10275 L 979.8053 771.50275 L 982.6053 779.50275 L 985.6053 787.90275 Z" fill="white"/>
        <path d="M 987.4053 794.50275 L 981.2053 798.90275 L 973.0053 802.90275 L 964.4053 806.50275 L 955.4053 810.30275 L 944.4053 814.30275 L 935.0053 817.10275 L 926.0053 819.70275 L 917.0053 822.30275 L 911.6053 823.70275 L 906.0053 824.70275 L 903.6053 818.90275 L 901.0053 813.50275 L 898.8053 809.50275 L 896.2053 806.10275 L 896.0053 797.10275 L 896.6053 786.10275 L 898.4053 775.30275 L 900.0053 764.90275 L 902.6053 753.90275 L 905.0053 744.30275 L 907.8053 736.30275 L 911.0053 726.90275 L 913.8053 719.50275 L 917.4053 711.90275 L 921.4053 704.30275 L 925.4053 696.90275 L 928.0053 693.30275 L 931.6053 687.50275 L 937.0053 691.90275 L 941.8053 696.70275 L 946.4053 702.90275 L 950.8053 709.10275 L 955.6053 717.70275 L 960.4053 727.10275 L 965.2053 736.30275 L 968.8053 744.90275 L 972.8053 753.90275 L 976.0053 762.10275 L 979.8053 771.50275 L 982.6053 779.50275 L 985.6053 787.90275 Z" stroke="#7f8080" stroke-linecap="round" stroke-linejoin="round" stroke-width="1"/>
      </g>
      <g id="Graphic_9">
        <path d="M 706.5721 645.9638 L 701.84295 650.0174 C 700.6926 651.0034 699.44764 651.8733 698.1262 652.6145 L 695.5996 654.03165 C 694.1644 654.8366 693.5836 656.60575 694.2624 658.1047 L 695.28 660.352 C 695.4016 660.62046 695.5283 660.8866 695.6601 661.1502 L 699.9494 669.7287 C 700.2912 670.4123 700.6668 671.0784 701.07495 671.7246 L 703.40134 675.4081 C 703.8417 676.10535 704.3193 676.7784 704.83195 677.4244 L 708.2426 681.72185 C 708.7887 682.4099 709.3737 683.06606 709.9948 683.6872 L 714.6609 688.3532 C 715.06175 688.7541 715.4773 689.14 715.9067 689.5102 L 720.4702 693.44426 C 720.8649 693.7845 721.271 694.1112 721.68785 694.4238 L 725.6628 697.405 C 726.3287 697.9045 727.0212 698.3674 727.7373 698.7917 L 731.8704 701.241 C 731.9984 701.3168 732.1271 701.3914 732.2566 701.4648 L 736.9541 704.1267 C 737.6924 704.5451 738.4533 704.9223 739.23325 705.2565 L 742.7831 706.7779 C 743.369 707.029 743.9652 707.2557 744.57 707.4573 L 749.5881 709.13 C 750.8353 709.5457 752.1159 709.85376 753.4158 710.0507 L 757.5146 710.67174 C 757.8798 710.7271 758.24615 710.7736 758.6135 710.8113 L 765.4946 711.517 C 765.7398 711.5422 765.9853 711.5634 766.2312 711.5806 L 770.75835 711.8983 C 771.2942 711.9359 771.8312 711.9547 772.3684 711.9547 L 775.6305 711.9547 C 776.5842 711.9547 777.5369 711.8954 778.4833 711.7771 L 782.472 711.2785 C 783.1319 711.196 783.788 711.085 784.4384 710.9456 L 790.5204 709.6423 C 791.4143 709.4508 792.2959 709.2061 793.1607 708.9096 L 797.6695 707.3637 C 798.4642 707.0913 799.2433 706.7755 800.0034 706.4178 L 804.8368 704.1433 C 805.387 703.88435 805.9267 703.6037 806.4546 703.302 L 810.2225 701.14896 C 810.9153 700.7531 811.587 700.3214 812.2349 699.8557 L 816.9111 696.49475 C 817.4117 696.1349 817.8978 695.755 818.3679 695.3561 L 823.6888 690.84144 C 824.0711 690.5171 824.4427 690.18026 824.803 689.8316 L 829.5022 685.28396 C 830.1418 684.665 830.7449 684.0094 831.3085 683.3206 L 835.1018 678.68434 C 835.6085 678.065 836.0826 677.4197 836.522 676.751 L 840.1392 671.2466 C 840.3546 670.9187 840.5616 670.58544 840.76 670.247 L 843.2831 665.9429 C 843.6691 665.28454 844.022 664.60735 844.3406 663.9139 L 846.4593 659.3026 C 846.9922 658.14285 847.3633 656.9154 847.5624 655.6547 L 847.5624 655.6547 C 847.7407 654.5255 847.1614 653.412 846.1343 652.9099 L 840.8409 650.322 C 839.5264 649.6794 838.2918 648.8849 837.1624 647.9547 L 836.7564 647.6204 C 835.9121 646.92504 835.2886 645.9987 834.9624 644.9547 L 834.9624 644.9547 C 834.9157 644.8054 834.7569 644.7222 834.6075 644.7689 C 834.4925 644.8048 834.4128 644.9097 834.4089 645.0302 L 834.2997 648.4531 C 834.2089 651.2962 833.5916 654.0978 832.479 656.7157 L 831.6021 658.77904 C 831.0435 660.0933 830.3637 661.3527 829.5716 662.5409 L 825.8858 668.0696 C 825.1383 669.19085 824.2937 670.24425 823.36175 671.2176 L 817.0667 677.7925 C 816.1986 678.6991 815.2578 679.5332 814.2536 680.2863 L 805.8787 686.5675 C 805.0023 687.2248 804.08 687.8187 803.119 688.3445 L 795.9338 692.2761 C 794.6226 692.9935 793.2447 693.5814 791.8195 694.0314 L 785.1466 696.1387 C 783.4297 696.6808 781.6551 697.0195 779.8593 697.1478 L 772.9728 697.6397 C 771.9005 697.7163 770.8242 697.7176 769.7517 697.64365 L 761.3154 697.0618 C 760.28125 696.9905 759.2531 696.8494 758.23795 696.6393 L 751.1027 695.1631 C 749.1508 694.7592 747.2596 694.10335 745.4768 693.2119 L 740.81735 690.8822 C 739.5832 690.26515 738.4071 689.5383 737.3033 688.7104 L 731.6213 684.4489 C 731.1822 684.1196 730.755 683.7746 730.3405 683.4147 L 724.5853 678.4168 C 723.771 677.7096 723.0075 676.9461 722.3004 676.1318 L 717.8951 671.0591 C 717.141 670.19075 716.4531 669.26705 715.8372 668.2958 L 712.1035 662.408 C 711.7429 661.8394 711.4075 661.2553 711.0982 660.6573 L 709.4778 657.52456 C 708.8687 656.3469 708.3625 655.1187 707.965 653.85385 L 706.6847 649.78036 C 706.46995 649.097 706.2872 648.40395 706.1371 647.7035 L 705.9117 646.6516 C 705.8266 646.25456 706.053 645.8569 706.4378 645.7274 L 706.4378 645.7274 C 706.5103 645.703 706.58884 645.74195 706.61325 645.81444 C 706.6313 645.86795 706.615 645.92704 706.5721 645.9638 Z" fill="#9e0907"/>
        <path d="M 706.5721 645.9638 L 701.84295 650.0174 C 700.6926 651.0034 699.44764 651.8733 698.1262 652.6145 L 695.5996 654.03165 C 694.1644 654.8366 693.5836 656.60575 694.2624 658.1047 L 695.28 660.352 C 695.4016 660.62046 695.5283 660.8866 695.6601 661.1502 L 699.9494 669.7287 C 700.2912 670.4123 700.6668 671.0784 701.07495 671.7246 L 703.40134 675.4081 C 703.8417 676.10535 704.3193 676.7784 704.83195 677.4244 L 708.2426 681.72185 C 708.7887 682.4099 709.3737 683.06606 709.9948 683.6872 L 714.6609 688.3532 C 715.06175 688.7541 715.4773 689.14 715.9067 689.5102 L 720.4702 693.44426 C 720.8649 693.7845 721.271 694.1112 721.68785 694.4238 L 725.6628 697.405 C 726.3287 697.9045 727.0212 698.3674 727.7373 698.7917 L 731.8704 701.241 C 731.9984 701.3168 732.1271 701.3914 732.2566 701.4648 L 736.9541 704.1267 C 737.6924 704.5451 738.4533 704.9223 739.23325 705.2565 L 742.7831 706.7779 C 743.369 707.029 743.9652 707.2557 744.57 707.4573 L 749.5881 709.13 C 750.8353 709.5457 752.1159 709.85376 753.4158 710.0507 L 757.5146 710.67174 C 757.8798 710.7271 758.24615 710.7736 758.6135 710.8113 L 765.4946 711.517 C 765.7398 711.5422 765.9853 711.5634 766.2312 711.5806 L 770.75835 711.8983 C 771.2942 711.9359 771.8312 711.9547 772.3684 711.9547 L 775.6305 711.9547 C 776.5842 711.9547 777.5369 711.8954 778.4833 711.7771 L 782.472 711.2785 C 783.1319 711.196 783.788 711.085 784.4384 710.9456 L 790.5204 709.6423 C 791.4143 709.4508 792.2959 709.2061 793.1607 708.9096 L 797.6695 707.3637 C 798.4642 707.0913 799.2433 706.7755 800.0034 706.4178 L 804.8368 704.1433 C 805.387 703.88435 805.9267 703.6037 806.4546 703.302 L 810.2225 701.14896 C 810.9153 700.7531 811.587 700.3214 812.2349 699.8557 L 816.9111 696.49475 C 817.4117 696.1349 817.8978 695.755 818.3679 695.3561 L 823.6888 690.84144 C 824.0711 690.5171 824.4427 690.18026 824.803 689.8316 L 829.5022 685.28396 C 830.1418 684.665 830.7449 684.0094 831.3085 683.3206 L 835.1018 678.68434 C 835.6085 678.065 836.0826 677.4197 836.522 676.751 L 840.1392 671.2466 C 840.3546 670.9187 840.5616 670.58544 840.76 670.247 L 843.2831 665.9429 C 843.6691 665.28454 844.022 664.60735 844.3406 663.9139 L 846.4593 659.3026 C 846.9922 658.14285 847.3633 656.9154 847.5624 655.6547 L 847.5624 655.6547 C 847.7407 654.5255 847.1614 653.412 846.1343 652.9099 L 840.8409 650.322 C 839.5264 649.6794 838.2918 648.8849 837.1624 647.9547 L 836.7564 647.6204 C 835.9121 646.92504 835.2886 645.9987 834.9624 644.9547 L 834.9624 644.9547 C 834.9157 644.8054 834.7569 644.7222 834.6075 644.7689 C 834.4925 644.8048 834.4128 644.9097 834.4089 645.0302 L 834.2997 648.4531 C 834.2089 651.2962 833.5916 654.0978 832.479 656.7157 L 831.6021 658.77904 C 831.0435 660.0933 830.3637 661.3527 829.5716 662.5409 L 825.8858 668.0696 C 825.1383 669.19085 824.2937 670.24425 823.36175 671.2176 L 817.0667 677.7925 C 816.1986 678.6991 815.2578 679.5332 814.2536 680.2863 L 805.8787 686.5675 C 805.0023 687.2248 804.08 687.8187 803.119 688.3445 L 795.9338 692.2761 C 794.6226 692.9935 793.2447 693.5814 791.8195 694.0314 L 785.1466 696.1387 C 783.4297 696.6808 781.6551 697.0195 779.8593 697.1478 L 772.9728 697.6397 C 771.9005 697.7163 770.8242 697.7176 769.7517 697.64365 L 761.3154 697.0618 C 760.28125 696.9905 759.2531 696.8494 758.23795 696.6393 L 751.1027 695.1631 C 749.1508 694.7592 747.2596 694.10335 745.4768 693.2119 L 740.81735 690.8822 C 739.5832 690.26515 738.4071 689.5383 737.3033 688.7104 L 731.6213 684.4489 C 731.1822 684.1196 730.755 683.7746 730.3405 683.4147 L 724.5853 678.4168 C 723.771 677.7096 723.0075 676.9461 722.3004 676.1318 L 717.8951 671.0591 C 717.141 670.19075 716.4531 669.26705 715.8372 668.2958 L 712.1035 662.408 C 711.7429 661.8394 711.4075 661.2553 711.0982 660.6573 L 709.4778 657.52456 C 708.8687 656.3469 708.3625 655.1187 707.965 653.85385 L 706.6847 649.78036 C 706.46995 649.097 706.2872 648.40395 706.1371 647.7035 L 705.9117 646.6516 C 705.8266 646.25456 706.053 645.8569 706.4378 645.7274 L 706.4378 645.7274 C 706.5103 645.703 706.58884 645.74195 706.61325 645.81444 C 706.6313 645.86795 706.615 645.92704 706.5721 645.9638 Z" stroke="#7f8080" stroke-linecap="round" stroke-linejoin="round" stroke-width="1"/>
      </g>
      <g id="Graphic_8">
        <path d="M 706.05925 645.7559 L 711.45925 645.1559 L 718.25925 648.5559 L 723.25925 650.3559 L 731.65925 652.1559 L 740.05925 653.1559 L 748.05925 654.1559 L 755.65925 654.3559 L 764.25925 654.7559 L 775.85925 654.5559 L 784.25925 654.1559 L 793.65925 653.5559 L 802.05925 652.7559 L 811.25925 651.3559 L 819.45925 649.1559 L 825.25925 647.3559 L 830.8592 644.7559 L 833.6592 645.9559 L 834.0592 651.5559 L 831.2592 659.5559 L 825.85925 662.3559 L 815.25925 665.5559 L 803.85925 667.9559 L 792.65925 668.7559 L 780.25925 669.7559 L 769.85925 669.7559 L 760.45925 669.7559 L 748.85925 669.1559 L 737.65925 668.3559 L 727.05925 666.1559 L 718.45925 664.1559 L 712.25925 661.3559 L 710.25925 659.7559 L 707.05925 652.1559 Z" fill="#9e0907"/>
        <path d="M 706.05925 645.7559 L 711.45925 645.1559 L 718.25925 648.5559 L 723.25925 650.3559 L 731.65925 652.1559 L 740.05925 653.1559 L 748.05925 654.1559 L 755.65925 654.3559 L 764.25925 654.7559 L 775.85925 654.5559 L 784.25925 654.1559 L 793.65925 653.5559 L 802.05925 652.7559 L 811.25925 651.3559 L 819.45925 649.1559 L 825.25925 647.3559 L 830.8592 644.7559 L 833.6592 645.9559 L 834.0592 651.5559 L 831.2592 659.5559 L 825.85925 662.3559 L 815.25925 665.5559 L 803.85925 667.9559 L 792.65925 668.7559 L 780.25925 669.7559 L 769.85925 669.7559 L 760.45925 669.7559 L 748.85925 669.1559 L 737.65925 668.3559 L 727.05925 666.1559 L 718.45925 664.1559 L 712.25925 661.3559 L 710.25925 659.7559 L 707.05925 652.1559 Z" stroke="#7f8080" stroke-linecap="round" stroke-linejoin="round" stroke-width="1"/>
      </g>
      <g id="Graphic_7">
        <path d="M 635.8132 1071.2 L 635.8132 1071.2 C 635.7475 1071.7255 635.81036 1072.259 635.9963 1072.7549 L 636.6473 1074.4909 C 636.8241 1074.9623 637.05115 1075.4132 637.3246 1075.8358 L 638.2924 1077.3315 C 638.8334 1078.1676 639.5465 1078.8785 640.3841 1079.417 L 641.4622 1080.11 C 641.7624 1080.3031 642.077 1080.4728 642.40316 1080.6179 L 643.72 1081.2035 C 644.31654 1081.4688 644.94725 1081.6493 645.5938 1081.7398 L 654.6042 1083.0013 C 654.6142 1083.0027 654.6242 1083.004 654.6342 1083.0054 L 666.3502 1084.594 C 666.3962 1084.6002 666.4423 1084.606 666.4884 1084.6113 L 676.7713 1085.7978 C 676.80324 1085.8015 676.8352 1085.805 676.8672 1085.8082 L 690.5772 1087.1991 C 690.6052 1087.2019 690.6332 1087.2046 690.6612 1087.2071 L 701.7665 1088.1987 C 701.80164 1088.2018 701.8368 1088.2047 701.87195 1088.2073 L 712.5585 1088.9989 C 712.599 1089.0019 712.6395 1089.0045 712.68 1089.0068 L 723.188 1089.6016 C 723.2088 1089.6028 723.2296 1089.604 723.2504 1089.6054 L 735.2932 1090.3951 C 735.3772 1090.4006 735.4613 1090.4046 735.5454 1090.4071 L 748.9926 1090.8026 C 749.0103 1090.8031 749.0281 1090.8037 749.04585 1090.8043 L 759.6897 1091.1986 C 759.776 1091.2018 759.8624 1091.2034 759.9488 1091.2034 L 770.5578 1091.2034 C 770.5987 1091.2034 770.6397 1091.2037 770.6806 1091.2044 L 781.767 1091.3989 C 781.9351 1091.4019 782.1032 1091.3988 782.2711 1091.3896 L 792.8923 1090.8103 C 792.9769 1090.8057 793.0616 1090.8026 793.1463 1090.801 L 803.91085 1090.6053 C 803.9831 1090.604 804.0553 1090.6016 804.1274 1090.598 L 816.1461 1090.007 C 816.1948 1090.0046 816.2436 1090.0016 816.2922 1089.9982 L 827.5323 1089.2095 C 827.5902 1089.2054 827.6481 1089.2006 827.7059 1089.1951 L 840.1165 1088.0131 C 840.185 1088.0066 840.2535 1088.0011 840.3221 1087.9966 L 852.2542 1087.2142 C 852.3642 1087.207 852.474 1087.1972 852.5836 1087.1847 L 862.9959 1086.006 C 863.0114 1086.0042 863.027 1086.0024 863.0425 1086.0006 L 872.9902 1084.8068 C 873.0095 1084.8045 873.0289 1084.8021 873.0482 1084.7996 L 886.8839 1083.0221 C 886.9812 1083.0096 887.0781 1082.9951 887.1747 1082.9785 L 893.7282 1081.855 C 893.9292 1081.8206 894.1315 1081.795 894.3347 1081.7782 L 897.5671 1081.5112 C 898.4563 1081.4377 899.3233 1081.195 900.1214 1080.796 L 901.6076 1080.0528 C 902.2082 1079.7525 902.7625 1079.3674 903.2534 1078.9092 L 904.5885 1077.6631 C 905.1953 1077.0967 905.6507 1076.3875 905.9132 1075.6 L 906.208 1074.7155 C 906.2781 1074.5053 906.3382 1074.2919 906.388 1074.076 L 906.8577 1072.0406 C 906.8929 1071.8879 906.8595 1071.7275 906.7662 1071.6017 L 906.7662 1071.6017 C 906.6759 1071.4798 906.5252 1071.4183 906.3754 1071.4421 L 897.8955 1072.7912 C 897.8447 1072.7993 897.7939 1072.808 897.7432 1072.8172 L 884.7584 1075.178 C 884.6656 1075.1949 884.5725 1075.2099 884.4791 1075.223 L 873.2494 1076.7991 C 873.2293 1076.802 873.2091 1076.8049 873.189 1076.8079 L 860.0664 1078.7665 C 859.9017 1078.791 859.7361 1078.8097 859.57 1078.8225 L 846.8452 1079.8014 C 846.8279 1079.8027 846.8105 1079.804 846.7932 1079.8052 L 832.4531 1080.801 C 832.4305 1080.8026 832.4079 1080.804 832.3853 1080.8054 L 819.0821 1081.5996 C 819.0402 1081.6021 818.9982 1081.6042 818.9563 1081.606 L 804.76485 1082.1973 C 804.6678 1082.2013 804.5706 1082.2034 804.4734 1082.2034 L 778.6775 1082.2034 C 778.63865 1082.2034 778.5998 1082.2037 778.5609 1082.2043 L 766.8025 1082.4003 C 766.6803 1082.4023 766.5581 1082.4012 766.436 1082.3968 L 755.6024 1082.0099 C 755.4803 1082.0055 755.3581 1082.0044 755.2359 1082.0064 L 743.5213 1082.2017 C 743.4532 1082.2028 743.3852 1082.2029 743.3171 1082.2021 L 727.61484 1082.0058 C 727.48444 1082.0042 727.3541 1081.9989 727.224 1081.99 L 712.9142 1081.0099 C 712.8509 1081.0055 712.7876 1081.0003 712.7244 1080.9943 L 698.2334 1079.6047 C 698.2239 1079.6038 698.2145 1079.6029 698.205 1079.602 L 684.393 1078.2207 C 684.27715 1078.2091 684.1616 1078.1947 684.0465 1078.1773 L 669.73735 1076.0212 C 669.6586 1076.0093 669.5796 1075.9988 669.5005 1075.9896 L 655.9806 1074.4221 C 655.873 1074.4096 655.76574 1074.3946 655.65886 1074.3772 L 646.2668 1072.8438 C 646.1018 1072.8168 645.9378 1072.784 645.7752 1072.7453 L 636.6976 1070.5865 C 636.30925 1070.4942 635.9196 1070.7341 635.82724 1071.1224 C 635.82116 1071.148 635.8165 1071.1739 635.8132 1071.2 Z" fill="#9e0907"/>
        <path d="M 635.8132 1071.2 L 635.8132 1071.2 C 635.7475 1071.7255 635.81036 1072.259 635.9963 1072.7549 L 636.6473 1074.4909 C 636.8241 1074.9623 637.05115 1075.4132 637.3246 1075.8358 L 638.2924 1077.3315 C 638.8334 1078.1676 639.5465 1078.8785 640.3841 1079.417 L 641.4622 1080.11 C 641.7624 1080.3031 642.077 1080.4728 642.40316 1080.6179 L 643.72 1081.2035 C 644.31654 1081.4688 644.94725 1081.6493 645.5938 1081.7398 L 654.6042 1083.0013 C 654.6142 1083.0027 654.6242 1083.004 654.6342 1083.0054 L 666.3502 1084.594 C 666.3962 1084.6002 666.4423 1084.606 666.4884 1084.6113 L 676.7713 1085.7978 C 676.80324 1085.8015 676.8352 1085.805 676.8672 1085.8082 L 690.5772 1087.1991 C 690.6052 1087.2019 690.6332 1087.2046 690.6612 1087.2071 L 701.7665 1088.1987 C 701.80164 1088.2018 701.8368 1088.2047 701.87195 1088.2073 L 712.5585 1088.9989 C 712.599 1089.0019 712.6395 1089.0045 712.68 1089.0068 L 723.188 1089.6016 C 723.2088 1089.6028 723.2296 1089.604 723.2504 1089.6054 L 735.2932 1090.3951 C 735.3772 1090.4006 735.4613 1090.4046 735.5454 1090.4071 L 748.9926 1090.8026 C 749.0103 1090.8031 749.0281 1090.8037 749.04585 1090.8043 L 759.6897 1091.1986 C 759.776 1091.2018 759.8624 1091.2034 759.9488 1091.2034 L 770.5578 1091.2034 C 770.5987 1091.2034 770.6397 1091.2037 770.6806 1091.2044 L 781.767 1091.3989 C 781.9351 1091.4019 782.1032 1091.3988 782.2711 1091.3896 L 792.8923 1090.8103 C 792.9769 1090.8057 793.0616 1090.8026 793.1463 1090.801 L 803.91085 1090.6053 C 803.9831 1090.604 804.0553 1090.6016 804.1274 1090.598 L 816.1461 1090.007 C 816.1948 1090.0046 816.2436 1090.0016 816.2922 1089.9982 L 827.5323 1089.2095 C 827.5902 1089.2054 827.6481 1089.2006 827.7059 1089.1951 L 840.1165 1088.0131 C 840.185 1088.0066 840.2535 1088.0011 840.3221 1087.9966 L 852.2542 1087.2142 C 852.3642 1087.207 852.474 1087.1972 852.5836 1087.1847 L 862.9959 1086.006 C 863.0114 1086.0042 863.027 1086.0024 863.0425 1086.0006 L 872.9902 1084.8068 C 873.0095 1084.8045 873.0289 1084.8021 873.0482 1084.7996 L 886.8839 1083.0221 C 886.9812 1083.0096 887.0781 1082.9951 887.1747 1082.9785 L 893.7282 1081.855 C 893.9292 1081.8206 894.1315 1081.795 894.3347 1081.7782 L 897.5671 1081.5112 C 898.4563 1081.4377 899.3233 1081.195 900.1214 1080.796 L 901.6076 1080.0528 C 902.2082 1079.7525 902.7625 1079.3674 903.2534 1078.9092 L 904.5885 1077.6631 C 905.1953 1077.0967 905.6507 1076.3875 905.9132 1075.6 L 906.208 1074.7155 C 906.2781 1074.5053 906.3382 1074.2919 906.388 1074.076 L 906.8577 1072.0406 C 906.8929 1071.8879 906.8595 1071.7275 906.7662 1071.6017 L 906.7662 1071.6017 C 906.6759 1071.4798 906.5252 1071.4183 906.3754 1071.4421 L 897.8955 1072.7912 C 897.8447 1072.7993 897.7939 1072.808 897.7432 1072.8172 L 884.7584 1075.178 C 884.6656 1075.1949 884.5725 1075.2099 884.4791 1075.223 L 873.2494 1076.7991 C 873.2293 1076.802 873.2091 1076.8049 873.189 1076.8079 L 860.0664 1078.7665 C 859.9017 1078.791 859.7361 1078.8097 859.57 1078.8225 L 846.8452 1079.8014 C 846.8279 1079.8027 846.8105 1079.804 846.7932 1079.8052 L 832.4531 1080.801 C 832.4305 1080.8026 832.4079 1080.804 832.3853 1080.8054 L 819.0821 1081.5996 C 819.0402 1081.6021 818.9982 1081.6042 818.9563 1081.606 L 804.76485 1082.1973 C 804.6678 1082.2013 804.5706 1082.2034 804.4734 1082.2034 L 778.6775 1082.2034 C 778.63865 1082.2034 778.5998 1082.2037 778.5609 1082.2043 L 766.8025 1082.4003 C 766.6803 1082.4023 766.5581 1082.4012 766.436 1082.3968 L 755.6024 1082.0099 C 755.4803 1082.0055 755.3581 1082.0044 755.2359 1082.0064 L 743.5213 1082.2017 C 743.4532 1082.2028 743.3852 1082.2029 743.3171 1082.2021 L 727.61484 1082.0058 C 727.48444 1082.0042 727.3541 1081.9989 727.224 1081.99 L 712.9142 1081.0099 C 712.8509 1081.0055 712.7876 1081.0003 712.7244 1080.9943 L 698.2334 1079.6047 C 698.2239 1079.6038 698.2145 1079.6029 698.205 1079.602 L 684.393 1078.2207 C 684.27715 1078.2091 684.1616 1078.1947 684.0465 1078.1773 L 669.73735 1076.0212 C 669.6586 1076.0093 669.5796 1075.9988 669.5005 1075.9896 L 655.9806 1074.4221 C 655.873 1074.4096 655.76574 1074.3946 655.65886 1074.3772 L 646.2668 1072.8438 C 646.1018 1072.8168 645.9378 1072.784 645.7752 1072.7453 L 636.6976 1070.5865 C 636.30925 1070.4942 635.9196 1070.7341 635.82724 1071.1224 C 635.82116 1071.148 635.8165 1071.1739 635.8132 1071.2 Z" stroke="#7f8080" stroke-linecap="round" stroke-linejoin="round" stroke-width="1"/>
      </g>
      <g id="Graphic_6">
        <path d="M 557.4 790.4 L 564 773 L 570 758 L 576 742 L 583 728 L 591 712 L 600 699 L 614 686 L 631 678 L 647 672 L 664 667 L 677 662 L 694 656 L 696.5 664.5 L 701 671.5 L 683 678 L 666 683 L 651 689 L 635 695 L 621 704 L 613 712 L 605 723.5 L 598.5 734.5 L 591 749.5 L 583.5 765 L 577 781.5 L 572.5 796.5 L 568 795 Z" fill="#9e0907"/>
        <path d="M 557.4 790.4 L 564 773 L 570 758 L 576 742 L 583 728 L 591 712 L 600 699 L 614 686 L 631 678 L 647 672 L 664 667 L 677 662 L 694 656 L 696.5 664.5 L 701 671.5 L 683 678 L 666 683 L 651 689 L 635 695 L 621 704 L 613 712 L 605 723.5 L 598.5 734.5 L 591 749.5 L 583.5 765 L 577 781.5 L 572.5 796.5 L 568 795 Z" stroke="#7f8080" stroke-linecap="round" stroke-linejoin="round" stroke-width="1"/>
      </g>
      <g id="Graphic_5">
        <path d="M 986 788.6 L 979.8 771 L 973.5 756.5 L 966.5 740.5 L 959.5 724.5 L 950.5185 710 L 941.5185 697 L 927.5185 684 L 910.5185 676 L 894.5185 670 L 877.5185 665 L 864.5185 660 L 847.5185 654 L 845.0185 662.5 L 840.5185 669.5 L 858.5185 676 L 875.5185 681 L 890.5185 687 L 906.5185 693 L 920.5185 702 L 928.5185 710 L 936.5185 721.5 L 943.0185 732.5 L 950.5185 747.5 L 958.0185 763 L 964.5185 779.5 L 970.2 797.2 L 975.6 794.8 Z" fill="#9e0907"/>
        <path d="M 986 788.6 L 979.8 771 L 973.5 756.5 L 966.5 740.5 L 959.5 724.5 L 950.5185 710 L 941.5185 697 L 927.5185 684 L 910.5185 676 L 894.5185 670 L 877.5185 665 L 864.5185 660 L 847.5185 654 L 845.0185 662.5 L 840.5185 669.5 L 858.5185 676 L 875.5185 681 L 890.5185 687 L 906.5185 693 L 920.5185 702 L 928.5185 710 L 936.5185 721.5 L 943.0185 732.5 L 950.5185 747.5 L 958.0185 763 L 964.5185 779.5 L 970.2 797.2 L 975.6 794.8 Z" stroke="#7f8080" stroke-linecap="round" stroke-linejoin="round" stroke-width="1"/>
      </g>
      <g id="Graphic_4">
        <path d="M 987.4053 794.50275 L 981.2053 798.90275 L 973.0053 802.90275 L 964.4053 806.50275 L 955.4053 810.30275 L 944.4053 814.30275 L 935.0053 817.10275 L 926.0053 819.70275 L 917.0053 822.30275 L 911.6053 823.70275 L 906.0053 824.70275 L 903.0053 818.30275 L 906.8053 817.50275 L 911.6053 816.30275 L 917.2053 815.10275 L 923.2053 813.30275 L 927.8053 811.90275 L 932.0053 810.70275 L 936.6053 808.70275 L 941.2053 807.10275 L 946.0053 805.10275 L 950.0053 803.70275 L 955.2053 801.50275 L 959.8053 799.90275 L 964.6053 797.70275 L 969.4053 795.90275 L 973.4053 793.90275 L 977.8053 791.70275 L 982.2053 789.50275 L 985.6053 787.90275 Z" fill="#9e0907"/>
        <path d="M 987.4053 794.50275 L 981.2053 798.90275 L 973.0053 802.90275 L 964.4053 806.50275 L 955.4053 810.30275 L 944.4053 814.30275 L 935.0053 817.10275 L 926.0053 819.70275 L 917.0053 822.30275 L 911.6053 823.70275 L 906.0053 824.70275 L 903.0053 818.30275 L 906.8053 817.50275 L 911.6053 816.30275 L 917.2053 815.10275 L 923.2053 813.30275 L 927.8053 811.90275 L 932.0053 810.70275 L 936.6053 808.70275 L 941.2053 807.10275 L 946.0053 805.10275 L 950.0053 803.70275 L 955.2053 801.50275 L 959.8053 799.90275 L 964.6053 797.70275 L 969.4053 795.90275 L 973.4053 793.90275 L 977.8053 791.70275 L 982.2053 789.50275 L 985.6053 787.90275 Z" stroke="#7f8080" stroke-linecap="round" stroke-linejoin="round" stroke-width="1"/>
      </g>
      <g id="Graphic_3">
        <path d="M 556 795.4461 L 562.2 799.8461 L 570.4 803.8461 L 579 807.4461 L 588 811.2461 L 599 815.2461 L 608.4 818.0461 L 617.4 820.6461 L 626.4 823.2461 L 631.8 824.6461 L 637.4 825.6461 L 640.4 819.2461 L 636.6 818.4461 L 631.8 817.2461 L 626.2 816.0461 L 620.2 814.2461 L 615.6 812.8461 L 611.4 811.6461 L 606.8 809.6461 L 602.2 808.0461 L 597.4 806.0461 L 593.4 804.6461 L 588.2 802.4461 L 583.6 800.8461 L 578.8 798.6461 L 574 796.8461 L 566.2 793.4 L 561.2 790.4461 L 557.8 788.8461 Z" fill="#9e0907"/>
        <path d="M 556 795.4461 L 562.2 799.8461 L 570.4 803.8461 L 579 807.4461 L 588 811.2461 L 599 815.2461 L 608.4 818.0461 L 617.4 820.6461 L 626.4 823.2461 L 631.8 824.6461 L 637.4 825.6461 L 640.4 819.2461 L 636.6 818.4461 L 631.8 817.2461 L 626.2 816.0461 L 620.2 814.2461 L 615.6 812.8461 L 611.4 811.6461 L 606.8 809.6461 L 602.2 808.0461 L 597.4 806.0461 L 593.4 804.6461 L 588.2 802.4461 L 583.6 800.8461 L 578.8 798.6461 L 574 796.8461 L 566.2 793.4 L 561.2 790.4461 L 557.8 788.8461 Z" stroke="#7f8080" stroke-linecap="round" stroke-linejoin="round" stroke-width="1"/>
      </g>
    </g>
  </g>
</svg>
