<?xml version="1.0" encoding="UTF-8" standalone="no"?>
<!DOCTYPE svg PUBLIC "-//W3C//DTD SVG 1.1//EN" "http://www.w3.org/Graphics/SVG/1.1/DTD/svg11.dtd">
<svg xmlns:xl="http://www.w3.org/1999/xlink" xmlns:dc="http://purl.org/dc/elements/1.1/" xmlns="http://www.w3.org/2000/svg" version="1.1" viewBox="-1149 -668 434 449" width="434" height="449">
  <defs>
    <radialGradient cx="0" cy="0" r="1" id="Gradient" gradientUnits="userSpaceOnUse">
      <stop offset="0" stop-color="#cbcbcb"/>
      <stop offset=".4338305" stop-color="#a9887c"/>
      <stop offset="1" stop-color="#843918"/>
    </radialGradient>
    <radialGradient id="Obj_Gradient" xl:href="#Gradient" gradientTransform="translate(-932.8623 -639.6964) scale(70.26272)"/>
    <radialGradient cx="0" cy="0" r="1" id="Gradient_2" gradientUnits="userSpaceOnUse">
      <stop offset="0" stop-color="#00e800"/>
      <stop offset="1" stop-color="#333"/>
    </radialGradient>
    <radialGradient id="Obj_Gradient_2" xl:href="#Gradient_2" gradientTransform="translate(-1105.4216 -503.85025) scale(46.03694)"/>
    <radialGradient id="Obj_Gradient_3" xl:href="#Gradient_2" gradientTransform="translate(-758.4163 -504.79365) scale(46.03694)"/>
    <linearGradient x1="0" x2="1" id="Gradient_3" gradientUnits="userSpaceOnUse">
      <stop offset="0" stop-color="#00e800"/>
      <stop offset="1" stop-color="#333"/>
    </linearGradient>
    <linearGradient id="Obj_Gradient_4" xl:href="#Gradient_3" gradientTransform="translate(-933.5623 -666.3405) rotate(90) scale(25)"/>
    <radialGradient id="Obj_Gradient_5" xl:href="#Gradient_2" gradientTransform="translate(-932.8346 -632.7411) scale(83.83496)"/>
    <radialGradient cx="0" cy="0" r="1" id="Gradient_4" gradientUnits="userSpaceOnUse">
      <stop offset="0" stop-color="#00e800"/>
      <stop offset="1" stop-color="#241209"/>
    </radialGradient>
    <radialGradient id="Obj_Gradient_6" xl:href="#Gradient_4" gradientTransform="translate(-932.2919 -230.11301) scale(135.94141)"/>
  </defs>
  <metadata> Produced by OmniGraffle 7.19.2\n2023-12-06 01:13:20 +0000</metadata>
  <g id="Canvas_63" stroke-opacity="1" fill-opacity="1" stroke-dasharray="none" fill="none" stroke="none">
    <title>Canvas 63</title>
    <g id="Canvas_63_Capa_1">
      <title>Capa 1</title>
      <g id="Graphic_12">
        <path d="M -994.6159 -666.50595 L -986.4505 -663.3882 C -985.5925 -663.0606 -984.7156 -662.7847 -983.8246 -662.562 L -970.1075 -659.1327 C -968.9458 -658.8423 -967.7632 -658.643 -966.5706 -658.5367 L -949.0444 -656.975 C -948.4566 -656.9226 -947.8669 -656.8929 -947.2768 -656.88586 L -931.7979 -656.7016 C -931.5075 -656.6981 -931.2171 -656.7002 -930.9269 -656.7077 L -916.5036 -657.08234 C -916.1428 -657.0917 -915.7823 -657.1096 -915.4223 -657.1359 L -901.051 -658.1875 C -900.0596 -658.26 -899.0739 -658.39676 -898.1002 -658.59684 L -886.5272 -660.97485 C -885.4852 -661.18896 -884.4593 -661.4751 -883.4569 -661.8312 L -871.7049 -666.0063 C -870.6145 -666.3936 -869.4113 -665.86286 -868.9623 -664.7964 L -868.9623 -664.7964 C -868.4402 -663.5563 -868.2882 -662.19155 -868.5247 -660.86695 L -868.7052 -659.8563 C -869.009 -658.1551 -869.5035 -656.4936 -870.1794 -654.9032 L -871.7226 -651.2721 C -872.2812 -649.9578 -872.961 -648.6984 -873.7531 -647.5102 L -877.4389 -641.98155 C -878.1864 -640.8603 -879.031 -639.8069 -879.963 -638.8335 L -886.258 -632.2587 C -887.1261 -631.352 -888.0669 -630.51794 -889.0711 -629.7648 L -897.446 -623.4836 C -898.3224 -622.8263 -899.2447 -622.23246 -900.2057 -621.7066 L -907.391 -617.7751 C -908.7021 -617.0577 -910.08 -616.46976 -911.5052 -616.0197 L -918.1781 -613.9125 C -919.895 -613.3703 -921.6696 -613.0316 -923.4654 -612.9033 L -930.3519 -612.4114 C -931.4242 -612.33484 -932.5005 -612.3335 -933.573 -612.4075 L -942.0093 -612.9893 C -943.0435 -613.0606 -944.0716 -613.2018 -945.0868 -613.4118 L -952.222 -614.88805 C -954.1739 -615.2919 -956.0651 -615.9478 -957.848 -616.8392 L -962.5074 -619.1689 C -963.7415 -619.786 -964.9176 -620.51286 -966.0214 -621.34074 L -971.7034 -625.6022 C -972.1425 -625.9316 -972.5697 -626.2765 -972.9842 -626.63645 L -978.7394 -631.6344 C -979.5537 -632.3415 -980.3172 -633.10505 -981.0243 -633.91934 L -985.4296 -638.992 C -986.1837 -639.8604 -986.8716 -640.7841 -987.4875 -641.75535 L -991.2212 -647.6431 C -991.5818 -648.2117 -991.9172 -648.7958 -992.2265 -649.39385 L -993.8469 -652.5266 C -994.456 -653.70425 -994.9622 -654.9324 -995.3597 -656.1973 L -996.64 -660.2708 C -996.8548 -660.95415 -997.0375 -661.6472 -997.1876 -662.3476 L -997.2623 -662.6964 C -997.457 -663.6048 -997.3497 -664.552 -996.9568 -665.39386 L -996.8623 -665.5964 C -996.4678 -666.4417 -995.4874 -666.8387 -994.6159 -666.50595 Z" fill="url(#Obj_Gradient)"/>
        <path d="M -994.6159 -666.50595 L -986.4505 -663.3882 C -985.5925 -663.0606 -984.7156 -662.7847 -983.8246 -662.562 L -970.1075 -659.1327 C -968.9458 -658.8423 -967.7632 -658.643 -966.5706 -658.5367 L -949.0444 -656.975 C -948.4566 -656.9226 -947.8669 -656.8929 -947.2768 -656.88586 L -931.7979 -656.7016 C -931.5075 -656.6981 -931.2171 -656.7002 -930.9269 -656.7077 L -916.5036 -657.08234 C -916.1428 -657.0917 -915.7823 -657.1096 -915.4223 -657.1359 L -901.051 -658.1875 C -900.0596 -658.26 -899.0739 -658.39676 -898.1002 -658.59684 L -886.5272 -660.97485 C -885.4852 -661.18896 -884.4593 -661.4751 -883.4569 -661.8312 L -871.7049 -666.0063 C -870.6145 -666.3936 -869.4113 -665.86286 -868.9623 -664.7964 L -868.9623 -664.7964 C -868.4402 -663.5563 -868.2882 -662.19155 -868.5247 -660.86695 L -868.7052 -659.8563 C -869.009 -658.1551 -869.5035 -656.4936 -870.1794 -654.9032 L -871.7226 -651.2721 C -872.2812 -649.9578 -872.961 -648.6984 -873.7531 -647.5102 L -877.4389 -641.98155 C -878.1864 -640.8603 -879.031 -639.8069 -879.963 -638.8335 L -886.258 -632.2587 C -887.1261 -631.352 -888.0669 -630.51794 -889.0711 -629.7648 L -897.446 -623.4836 C -898.3224 -622.8263 -899.2447 -622.23246 -900.2057 -621.7066 L -907.391 -617.7751 C -908.7021 -617.0577 -910.08 -616.46976 -911.5052 -616.0197 L -918.1781 -613.9125 C -919.895 -613.3703 -921.6696 -613.0316 -923.4654 -612.9033 L -930.3519 -612.4114 C -931.4242 -612.33484 -932.5005 -612.3335 -933.573 -612.4075 L -942.0093 -612.9893 C -943.0435 -613.0606 -944.0716 -613.2018 -945.0868 -613.4118 L -952.222 -614.88805 C -954.1739 -615.2919 -956.0651 -615.9478 -957.848 -616.8392 L -962.5074 -619.1689 C -963.7415 -619.786 -964.9176 -620.51286 -966.0214 -621.34074 L -971.7034 -625.6022 C -972.1425 -625.9316 -972.5697 -626.2765 -972.9842 -626.63645 L -978.7394 -631.6344 C -979.5537 -632.3415 -980.3172 -633.10505 -981.0243 -633.91934 L -985.4296 -638.992 C -986.1837 -639.8604 -986.8716 -640.7841 -987.4875 -641.75535 L -991.2212 -647.6431 C -991.5818 -648.2117 -991.9172 -648.7958 -992.2265 -649.39385 L -993.8469 -652.5266 C -994.456 -653.70425 -994.9622 -654.9324 -995.3597 -656.1973 L -996.64 -660.2708 C -996.8548 -660.95415 -997.0375 -661.6472 -997.1876 -662.3476 L -997.2623 -662.6964 C -997.457 -663.6048 -997.3497 -664.552 -996.9568 -665.39386 L -996.8623 -665.5964 C -996.4678 -666.4417 -995.4874 -666.8387 -994.6159 -666.50595 Z" stroke="#7f8080" stroke-linecap="round" stroke-linejoin="round" stroke-width="1"/>
      </g>
      <g id="Graphic_11">
        <path d="M -1058.6481 -229.83261 L -1044.9059 -227.54224 C -1044.7225 -227.51168 -1044.5386 -227.48431 -1044.3543 -227.46016 L -1016.0006 -223.74486 C -1015.7541 -223.71255 -1015.5068 -223.686 -1015.2591 -223.66522 L -985.0162 -221.12872 C -984.7593 -221.10717 -984.5019 -221.09184 -984.2443 -221.08273 L -945.3133 -219.70638 C -945.125 -219.69972 -944.9365 -219.6964 -944.748 -219.6964 L -913.2807 -219.6964 C -913.1141 -219.6964 -912.9475 -219.699 -912.781 -219.7042 L -887.7462 -220.48654 C -887.5359 -220.4931 -887.3258 -220.50382 -887.116 -220.51868 L -865.0683 -222.07958 C -864.91 -222.0908 -864.7518 -222.10435 -864.5939 -222.12026 L -839.3334 -224.6659 C -839.1317 -224.68623 -838.9303 -224.7104 -838.7295 -224.73837 L -814.9368 -228.05375 C -814.7328 -228.08218 -814.5294 -228.11454 -814.3266 -228.15082 L -805.1308 -229.7964 C -799.8037 -230.74966 -796.1528 -235.7033 -796.8192 -241.07385 L -799.0268 -258.86442 C -799.0295 -258.88574 -799.0321 -258.90706 -799.0346 -258.9284 L -802.5984 -288.6269 C -802.62 -288.80655 -802.6385 -288.98655 -802.654 -289.16682 L -805.0162 -316.72603 C -805.0259 -316.8396 -805.0344 -316.95328 -805.0417 -317.06703 L -806.4284 -338.65868 C -806.43 -338.68382 -806.4316 -338.70896 -806.4334 -338.7341 L -808.0255 -361.8204 C -808.029 -361.87107 -808.0323 -361.92174 -808.0353 -361.97242 L -809.2117 -381.7746 C -809.2244 -381.9891 -809.2328 -382.20385 -809.2369 -382.4187 L -809.6292 -403.01355 C -809.6303 -403.0688 -809.6316 -403.124 -809.6332 -403.17922 L -810.2283 -423.41357 C -810.23 -423.4688 -810.2313 -423.524 -810.2324 -423.57925 L -810.623 -444.0888 C -810.6282 -444.3605 -810.6264 -444.63227 -810.6178 -444.90387 L -810.0318 -463.2635 C -810.0311 -463.2854 -810.0304 -463.30737 -810.0296 -463.3293 L -809.2415 -485.1986 C -809.2344 -485.3971 -809.2235 -485.5955 -809.209 -485.7936 L -807.6515 -507.0142 C -807.6377 -507.2023 -807.6272 -507.39067 -807.6201 -507.57916 L -806.8656 -527.478 C -806.8424 -528.0898 -806.7841 -528.6997 -806.691 -529.30475 L -803.952 -547.10827 C -803.8713 -547.63336 -803.7644 -548.1541 -803.6318 -548.6686 L -799.0035 -566.6262 C -798.8884 -567.0728 -798.7541 -567.5142 -798.6008 -567.94915 L -792.88005 -584.1888 C -792.714 -584.6603 -792.5259 -585.1237 -792.3164 -585.5776 L -786.7848 -597.5626 C -786.6821 -597.7851 -786.5744 -598.0052 -786.4616 -598.22276 L -781.0993 -608.5642 C -781.0536 -608.6523 -781.0071 -608.74004 -780.9598 -608.8273 L -775.7438 -618.4443 C -775.0065 -619.8036 -774.0569 -621.0365 -772.9308 -622.0964 L -772.9308 -622.0964 C -772.2556 -622.7319 -772.2234 -623.7944 -772.8589 -624.4696 C -772.9834 -624.60184 -773.1285 -624.713 -773.2886 -624.7988 L -776.50275 -626.5207 C -776.7214 -626.6378 -776.9428 -626.74984 -777.1666 -626.8567 L -785.0206 -630.6052 C -785.4272 -630.79924 -785.8418 -630.97604 -786.2634 -631.1351 L -795.9382 -634.786 C -796.1332 -634.8596 -796.3297 -634.9294 -796.5275 -634.9953 L -809.2219 -639.2268 C -809.3612 -639.2732 -809.501 -639.3177 -809.6415 -639.36024 L -822.525 -643.26434 C -822.5955 -643.2857 -822.6659 -643.3076 -822.7361 -643.3299 L -835.2401 -647.3085 C -835.6337 -647.4337 -836.0224 -647.57415 -836.4051 -647.7295 L -848.3811 -652.5893 C -849.2127 -652.92676 -850.0145 -653.3336 -850.778 -653.8056 L -860.3972 -659.752 C -860.5529 -659.8483 -860.707 -659.9472 -860.8593 -660.0487 L -865.7494 -663.3088 C -866.7307 -663.96305 -867.6021 -664.76895 -868.3308 -665.6964 L -868.3308 -665.6964 C -868.4364 -665.8308 -868.6309 -665.85415 -868.7654 -665.74855 C -868.8681 -665.6678 -868.9091 -665.5313 -868.8678 -665.4073 L -868.7308 -664.9964 C -868.2715 -663.61865 -868.167 -662.1474 -868.4268 -660.7185 L -868.8219 -658.54525 C -869.0931 -657.0536 -869.575 -655.60805 -870.253 -654.252 L -871.7853 -651.18736 C -872.082 -650.59396 -872.4153 -650.0196 -872.7833 -649.4676 L -875.987 -644.662 C -876.4156 -644.0191 -876.8902 -643.4081 -877.4071 -642.8338 L -881.9692 -637.76484 C -882.0102 -637.7192 -882.0516 -637.6738 -882.0932 -637.6287 L -888.0874 -631.12064 C -888.7151 -630.4391 -889.4009 -629.8134 -890.1369 -629.2505 L -895.1611 -625.4085 C -895.6072 -625.06734 -896.071 -624.7499 -896.5506 -624.4575 L -903.037 -620.5024 C -903.6986 -620.0989 -904.3887 -619.7441 -905.1018 -619.44064 L -912.2172 -616.4128 C -913.0249 -616.0691 -913.8595 -615.7925 -914.7125 -615.5857 L -918.7916 -614.5968 C -919.6164 -614.39685 -920.4558 -614.26284 -921.3019 -614.19605 L -927.0021 -613.746 C -927.4211 -613.71295 -927.8411 -613.6964 -928.2614 -613.6964 L -935.2937 -613.6964 C -936.0508 -613.6964 -936.807 -613.75014 -937.5564 -613.8572 L -945.5029 -614.9924 C -945.9879 -615.0617 -946.4695 -615.1532 -946.9461 -615.2667 L -952.9073 -616.68605 C -954.0528 -616.9588 -955.1647 -617.3571 -956.2227 -617.8739 L -962.5027 -620.94084 C -962.9878 -621.1777 -963.4605 -621.439 -963.9192 -621.7237 L -968.131 -624.33794 C -968.7302 -624.70984 -969.3041 -625.12094 -969.8491 -625.5686 L -974.2952 -629.2207 C -974.5189 -629.4045 -974.7375 -629.59426 -974.9509 -629.7899 L -978.7533 -633.27536 C -979.2046 -633.68904 -979.6318 -634.1283 -980.0327 -634.5909 L -984.1515 -639.3433 C -984.4708 -639.71185 -984.7732 -640.0948 -985.0576 -640.4909 L -989.4873 -646.6608 C -989.9822 -647.3501 -990.4214 -648.0777 -990.8009 -648.8367 L -993.3774 -653.9896 C -993.413 -654.0608 -993.448 -654.13226 -993.4826 -654.204 L -994.7308 -656.7964 C -995.5815 -658.5633 -995.937 -660.5278 -995.7595 -662.48076 L -995.5793 -664.463 C -995.5555 -664.7249 -995.7484 -664.95645 -996.0103 -664.9803 C -996.1727 -664.995 -996.3314 -664.92565 -996.4308 -664.7964 L -996.4308 -664.7964 C -997.0942 -663.9339 -997.8743 -663.16784 -998.7487 -662.52015 L -1002.6452 -659.6338 C -1002.7689 -659.5422 -1002.8939 -659.4524 -1003.0202 -659.3644 L -1007.6425 -656.1428 C -1008.8292 -655.3157 -1010.1226 -654.6533 -1011.4874 -654.1738 L -1016.0945 -652.5551 C -1016.585 -652.3827 -1017.0669 -652.18656 -1017.5384 -651.9673 L -1024.3852 -648.7827 C -1025.0813 -648.4589 -1025.7999 -648.18566 -1026.5353 -647.96504 L -1037.4057 -644.7039 C -1037.4224 -644.6989 -1037.4391 -644.6939 -1037.4558 -644.6888 L -1048.4239 -641.3592 C -1048.5618 -641.3173 -1048.6991 -641.2736 -1048.8359 -641.22804 L -1061.7571 -636.92096 C -1061.8062 -636.9046 -1061.8554 -636.88845 -1061.9047 -636.87255 L -1073.2721 -633.20565 C -1073.9106 -632.9997 -1074.5355 -632.7538 -1075.1431 -632.46936 L -1083.0751 -628.7565 C -1083.4454 -628.5832 -1083.809 -628.3957 -1084.165 -628.1945 L -1090.111 -624.8336 C -1091.3641 -624.1254 -1091.8057 -622.5355 -1091.0975 -621.28244 C -1091.0204 -621.146 -1090.9311 -621.0168 -1090.8308 -620.8964 L -1089.9667 -619.8595 C -1089.2117 -618.9535 -1088.5593 -617.9669 -1088.0211 -616.9176 L -1084.944 -610.91716 C -1084.8685 -610.77 -1084.7908 -610.624 -1084.7108 -610.47925 L -1080.756 -603.323 C -1080.6725 -603.17195 -1080.5915 -603.0195 -1080.513 -602.8658 L -1076.4046 -594.82784 C -1076.1556 -594.3405 -1075.9317 -593.8408 -1075.7338 -593.3305 L -1072.251 -584.34863 C -1072.2375 -584.3138 -1072.2239 -584.279 -1072.2102 -584.2443 L -1068.6138 -575.15886 C -1068.4918 -574.8506 -1068.3794 -574.5387 -1068.2768 -574.22346 L -1065.655 -566.1707 C -1065.6388 -566.12116 -1065.623 -566.07156 -1065.6073 -566.0219 L -1062.5353 -556.2636 C -1062.3325 -555.61945 -1062.1707 -554.9631 -1062.0508 -554.2985 L -1060.0655 -543.289 C -1060.0424 -543.1606 -1060.0208 -543.0319 -1060.0008 -542.903 L -1058.2949 -531.9096 C -1058.2522 -531.6342 -1058.2166 -531.3577 -1058.1883 -531.0804 L -1057.3009 -522.3837 C -1057.2542 -521.9257 -1057.2272 -521.4659 -1057.2202 -521.0056 L -1057.0359 -509.03 C -1057.0325 -508.8076 -1057.0244 -508.58535 -1057.0117 -508.3633 L -1056.2414 -494.88175 C -1056.2343 -494.7582 -1056.2258 -494.6347 -1056.2159 -494.51134 L -1054.8823 -477.93697 C -1054.848 -477.5101 -1054.8308 -477.082 -1054.8308 -476.65376 L -1054.8308 -464.204 C -1054.8308 -463.99894 -1054.8268 -463.7939 -1054.819 -463.58905 L -1054.2386 -448.4999 C -1054.2334 -448.36424 -1054.2299 -448.2285 -1054.2281 -448.09275 L -1054.036 -433.2965 C -1054.0325 -433.0298 -1054.0357 -432.76307 -1054.0456 -432.49654 L -1054.6198 -416.9924 C -1054.6271 -416.7951 -1054.6308 -416.59765 -1054.6308 -416.4002 L -1054.6308 -402.80397 C -1054.6308 -402.59894 -1054.6347 -402.39393 -1054.6426 -402.18904 L -1055.2278 -386.97404 C -1055.2298 -386.9223 -1055.232 -386.87052 -1055.2345 -386.8188 L -1056.0298 -370.31585 C -1056.0305 -370.3029 -1056.0311 -370.2899 -1056.0318 -370.27695 L -1056.8263 -354.5858 C -1056.8293 -354.5262 -1056.8326 -354.4666 -1056.8363 -354.40707 L -1058.0252 -335.18633 C -1058.0289 -335.12637 -1058.033 -335.06644 -1058.0374 -335.00653 L -1059.8205 -310.63698 C -1059.8274 -310.54326 -1059.835 -310.4496 -1059.8435 -310.356 L -1061.6294 -290.7112 C -1061.6303 -290.70133 -1061.6312 -290.69146 -1061.6322 -290.6816 L -1063.4029 -271.59668 C -1063.4215 -271.3965 -1063.4438 -271.1967 -1063.47 -270.99737 L -1065.4307 -256.02465 C -1065.5635 -255.01046 -1065.8326 -254.01884 -1066.2308 -253.07667 L -1066.2308 -253.07667 C -1066.6284 -252.13592 -1066.877 -251.139 -1066.9679 -250.12175 L -1067.7308 -241.57667 C -1068.2385 -235.88964 -1064.2801 -230.77128 -1058.6481 -229.83261 Z" fill="#007100"/>
        <path d="M -1058.6481 -229.83261 L -1044.9059 -227.54224 C -1044.7225 -227.51168 -1044.5386 -227.48431 -1044.3543 -227.46016 L -1016.0006 -223.74486 C -1015.7541 -223.71255 -1015.5068 -223.686 -1015.2591 -223.66522 L -985.0162 -221.12872 C -984.7593 -221.10717 -984.5019 -221.09184 -984.2443 -221.08273 L -945.3133 -219.70638 C -945.125 -219.69972 -944.9365 -219.6964 -944.748 -219.6964 L -913.2807 -219.6964 C -913.1141 -219.6964 -912.9475 -219.699 -912.781 -219.7042 L -887.7462 -220.48654 C -887.5359 -220.4931 -887.3258 -220.50382 -887.116 -220.51868 L -865.0683 -222.07958 C -864.91 -222.0908 -864.7518 -222.10435 -864.5939 -222.12026 L -839.3334 -224.6659 C -839.1317 -224.68623 -838.9303 -224.7104 -838.7295 -224.73837 L -814.9368 -228.05375 C -814.7328 -228.08218 -814.5294 -228.11454 -814.3266 -228.15082 L -805.1308 -229.7964 C -799.8037 -230.74966 -796.1528 -235.7033 -796.8192 -241.07385 L -799.0268 -258.86442 C -799.0295 -258.88574 -799.0321 -258.90706 -799.0346 -258.9284 L -802.5984 -288.6269 C -802.62 -288.80655 -802.6385 -288.98655 -802.654 -289.16682 L -805.0162 -316.72603 C -805.0259 -316.8396 -805.0344 -316.95328 -805.0417 -317.06703 L -806.4284 -338.65868 C -806.43 -338.68382 -806.4316 -338.70896 -806.4334 -338.7341 L -808.0255 -361.8204 C -808.029 -361.87107 -808.0323 -361.92174 -808.0353 -361.97242 L -809.2117 -381.7746 C -809.2244 -381.9891 -809.2328 -382.20385 -809.2369 -382.4187 L -809.6292 -403.01355 C -809.6303 -403.0688 -809.6316 -403.124 -809.6332 -403.17922 L -810.2283 -423.41357 C -810.23 -423.4688 -810.2313 -423.524 -810.2324 -423.57925 L -810.623 -444.0888 C -810.6282 -444.3605 -810.6264 -444.63227 -810.6178 -444.90387 L -810.0318 -463.2635 C -810.0311 -463.2854 -810.0304 -463.30737 -810.0296 -463.3293 L -809.2415 -485.1986 C -809.2344 -485.3971 -809.2235 -485.5955 -809.209 -485.7936 L -807.6515 -507.0142 C -807.6377 -507.2023 -807.6272 -507.39067 -807.6201 -507.57916 L -806.8656 -527.478 C -806.8424 -528.0898 -806.7841 -528.6997 -806.691 -529.30475 L -803.952 -547.10827 C -803.8713 -547.63336 -803.7644 -548.1541 -803.6318 -548.6686 L -799.0035 -566.6262 C -798.8884 -567.0728 -798.7541 -567.5142 -798.6008 -567.94915 L -792.88005 -584.1888 C -792.714 -584.6603 -792.5259 -585.1237 -792.3164 -585.5776 L -786.7848 -597.5626 C -786.6821 -597.7851 -786.5744 -598.0052 -786.4616 -598.22276 L -781.0993 -608.5642 C -781.0536 -608.6523 -781.0071 -608.74004 -780.9598 -608.8273 L -775.7438 -618.4443 C -775.0065 -619.8036 -774.0569 -621.0365 -772.9308 -622.0964 L -772.9308 -622.0964 C -772.2556 -622.7319 -772.2234 -623.7944 -772.8589 -624.4696 C -772.9834 -624.60184 -773.1285 -624.713 -773.2886 -624.7988 L -776.50275 -626.5207 C -776.7214 -626.6378 -776.9428 -626.74984 -777.1666 -626.8567 L -785.0206 -630.6052 C -785.4272 -630.79924 -785.8418 -630.97604 -786.2634 -631.1351 L -795.9382 -634.786 C -796.1332 -634.8596 -796.3297 -634.9294 -796.5275 -634.9953 L -809.2219 -639.2268 C -809.3612 -639.2732 -809.501 -639.3177 -809.6415 -639.36024 L -822.525 -643.26434 C -822.5955 -643.2857 -822.6659 -643.3076 -822.7361 -643.3299 L -835.2401 -647.3085 C -835.6337 -647.4337 -836.0224 -647.57415 -836.4051 -647.7295 L -848.3811 -652.5893 C -849.2127 -652.92676 -850.0145 -653.3336 -850.778 -653.8056 L -860.3972 -659.752 C -860.5529 -659.8483 -860.707 -659.9472 -860.8593 -660.0487 L -865.7494 -663.3088 C -866.7307 -663.96305 -867.6021 -664.76895 -868.3308 -665.6964 L -868.3308 -665.6964 C -868.4364 -665.8308 -868.6309 -665.85415 -868.7654 -665.74855 C -868.8681 -665.6678 -868.9091 -665.5313 -868.8678 -665.4073 L -868.7308 -664.9964 C -868.2715 -663.61865 -868.167 -662.1474 -868.4268 -660.7185 L -868.8219 -658.54525 C -869.0931 -657.0536 -869.575 -655.60805 -870.253 -654.252 L -871.7853 -651.18736 C -872.082 -650.59396 -872.4153 -650.0196 -872.7833 -649.4676 L -875.987 -644.662 C -876.4156 -644.0191 -876.8902 -643.4081 -877.4071 -642.8338 L -881.9692 -637.76484 C -882.0102 -637.7192 -882.0516 -637.6738 -882.0932 -637.6287 L -888.0874 -631.12064 C -888.7151 -630.4391 -889.4009 -629.8134 -890.1369 -629.2505 L -895.1611 -625.4085 C -895.6072 -625.06734 -896.071 -624.7499 -896.5506 -624.4575 L -903.037 -620.5024 C -903.6986 -620.0989 -904.3887 -619.7441 -905.1018 -619.44064 L -912.2172 -616.4128 C -913.0249 -616.0691 -913.8595 -615.7925 -914.7125 -615.5857 L -918.7916 -614.5968 C -919.6164 -614.39685 -920.4558 -614.26284 -921.3019 -614.19605 L -927.0021 -613.746 C -927.4211 -613.71295 -927.8411 -613.6964 -928.2614 -613.6964 L -935.2937 -613.6964 C -936.0508 -613.6964 -936.807 -613.75014 -937.5564 -613.8572 L -945.5029 -614.9924 C -945.9879 -615.0617 -946.4695 -615.1532 -946.9461 -615.2667 L -952.9073 -616.68605 C -954.0528 -616.9588 -955.1647 -617.3571 -956.2227 -617.8739 L -962.5027 -620.94084 C -962.9878 -621.1777 -963.4605 -621.439 -963.9192 -621.7237 L -968.131 -624.33794 C -968.7302 -624.70984 -969.3041 -625.12094 -969.8491 -625.5686 L -974.2952 -629.2207 C -974.5189 -629.4045 -974.7375 -629.59426 -974.9509 -629.7899 L -978.7533 -633.27536 C -979.2046 -633.68904 -979.6318 -634.1283 -980.0327 -634.5909 L -984.1515 -639.3433 C -984.4708 -639.71185 -984.7732 -640.0948 -985.0576 -640.4909 L -989.4873 -646.6608 C -989.9822 -647.3501 -990.4214 -648.0777 -990.8009 -648.8367 L -993.3774 -653.9896 C -993.413 -654.0608 -993.448 -654.13226 -993.4826 -654.204 L -994.7308 -656.7964 C -995.5815 -658.5633 -995.937 -660.5278 -995.7595 -662.48076 L -995.5793 -664.463 C -995.5555 -664.7249 -995.7484 -664.95645 -996.0103 -664.9803 C -996.1727 -664.995 -996.3314 -664.92565 -996.4308 -664.7964 L -996.4308 -664.7964 C -997.0942 -663.9339 -997.8743 -663.16784 -998.7487 -662.52015 L -1002.6452 -659.6338 C -1002.7689 -659.5422 -1002.8939 -659.4524 -1003.0202 -659.3644 L -1007.6425 -656.1428 C -1008.8292 -655.3157 -1010.1226 -654.6533 -1011.4874 -654.1738 L -1016.0945 -652.5551 C -1016.585 -652.3827 -1017.0669 -652.18656 -1017.5384 -651.9673 L -1024.3852 -648.7827 C -1025.0813 -648.4589 -1025.7999 -648.18566 -1026.5353 -647.96504 L -1037.4057 -644.7039 C -1037.4224 -644.6989 -1037.4391 -644.6939 -1037.4558 -644.6888 L -1048.4239 -641.3592 C -1048.5618 -641.3173 -1048.6991 -641.2736 -1048.8359 -641.22804 L -1061.7571 -636.92096 C -1061.8062 -636.9046 -1061.8554 -636.88845 -1061.9047 -636.87255 L -1073.2721 -633.20565 C -1073.9106 -632.9997 -1074.5355 -632.7538 -1075.1431 -632.46936 L -1083.0751 -628.7565 C -1083.4454 -628.5832 -1083.809 -628.3957 -1084.165 -628.1945 L -1090.111 -624.8336 C -1091.3641 -624.1254 -1091.8057 -622.5355 -1091.0975 -621.28244 C -1091.0204 -621.146 -1090.9311 -621.0168 -1090.8308 -620.8964 L -1089.9667 -619.8595 C -1089.2117 -618.9535 -1088.5593 -617.9669 -1088.0211 -616.9176 L -1084.944 -610.91716 C -1084.8685 -610.77 -1084.7908 -610.624 -1084.7108 -610.47925 L -1080.756 -603.323 C -1080.6725 -603.17195 -1080.5915 -603.0195 -1080.513 -602.8658 L -1076.4046 -594.82784 C -1076.1556 -594.3405 -1075.9317 -593.8408 -1075.7338 -593.3305 L -1072.251 -584.34863 C -1072.2375 -584.3138 -1072.2239 -584.279 -1072.2102 -584.2443 L -1068.6138 -575.15886 C -1068.4918 -574.8506 -1068.3794 -574.5387 -1068.2768 -574.22346 L -1065.655 -566.1707 C -1065.6388 -566.12116 -1065.623 -566.07156 -1065.6073 -566.0219 L -1062.5353 -556.2636 C -1062.3325 -555.61945 -1062.1707 -554.9631 -1062.0508 -554.2985 L -1060.0655 -543.289 C -1060.0424 -543.1606 -1060.0208 -543.0319 -1060.0008 -542.903 L -1058.2949 -531.9096 C -1058.2522 -531.6342 -1058.2166 -531.3577 -1058.1883 -531.0804 L -1057.3009 -522.3837 C -1057.2542 -521.9257 -1057.2272 -521.4659 -1057.2202 -521.0056 L -1057.0359 -509.03 C -1057.0325 -508.8076 -1057.0244 -508.58535 -1057.0117 -508.3633 L -1056.2414 -494.88175 C -1056.2343 -494.7582 -1056.2258 -494.6347 -1056.2159 -494.51134 L -1054.8823 -477.93697 C -1054.848 -477.5101 -1054.8308 -477.082 -1054.8308 -476.65376 L -1054.8308 -464.204 C -1054.8308 -463.99894 -1054.8268 -463.7939 -1054.819 -463.58905 L -1054.2386 -448.4999 C -1054.2334 -448.36424 -1054.2299 -448.2285 -1054.2281 -448.09275 L -1054.036 -433.2965 C -1054.0325 -433.0298 -1054.0357 -432.76307 -1054.0456 -432.49654 L -1054.6198 -416.9924 C -1054.6271 -416.7951 -1054.6308 -416.59765 -1054.6308 -416.4002 L -1054.6308 -402.80397 C -1054.6308 -402.59894 -1054.6347 -402.39393 -1054.6426 -402.18904 L -1055.2278 -386.97404 C -1055.2298 -386.9223 -1055.232 -386.87052 -1055.2345 -386.8188 L -1056.0298 -370.31585 C -1056.0305 -370.3029 -1056.0311 -370.2899 -1056.0318 -370.27695 L -1056.8263 -354.5858 C -1056.8293 -354.5262 -1056.8326 -354.4666 -1056.8363 -354.40707 L -1058.0252 -335.18633 C -1058.0289 -335.12637 -1058.033 -335.06644 -1058.0374 -335.00653 L -1059.8205 -310.63698 C -1059.8274 -310.54326 -1059.835 -310.4496 -1059.8435 -310.356 L -1061.6294 -290.7112 C -1061.6303 -290.70133 -1061.6312 -290.69146 -1061.6322 -290.6816 L -1063.4029 -271.59668 C -1063.4215 -271.3965 -1063.4438 -271.1967 -1063.47 -270.99737 L -1065.4307 -256.02465 C -1065.5635 -255.01046 -1065.8326 -254.01884 -1066.2308 -253.07667 L -1066.2308 -253.07667 C -1066.6284 -252.13592 -1066.877 -251.139 -1066.9679 -250.12175 L -1067.7308 -241.57667 C -1068.2385 -235.88964 -1064.2801 -230.77128 -1058.6481 -229.83261 Z" stroke="#7f8080" stroke-linecap="round" stroke-linejoin="round" stroke-width="1"/>
      </g>
      <g id="Graphic_10">
        <path d="M -1147.6216 -515.65025 L -1141.4216 -511.25025 L -1133.2216 -507.25025 L -1124.6216 -503.65025 L -1115.6216 -499.85025 L -1104.6216 -495.85025 L -1095.2216 -493.05025 L -1086.2216 -490.45025 L -1077.2216 -487.85025 L -1071.8216 -486.45025 L -1066.2216 -485.45025 L -1063.8216 -491.25025 L -1061.2216 -496.65025 L -1059.0216 -500.65025 L -1056.4216 -504.05025 L -1056.2216 -513.05025 L -1056.8216 -524.05025 L -1058.6216 -534.85025 L -1060.2216 -545.25025 L -1062.8216 -556.25025 L -1065.2216 -565.85025 L -1068.0216 -573.85026 L -1071.2216 -583.25026 L -1074.0216 -590.65026 L -1077.6216 -598.25026 L -1081.6216 -605.85026 L -1085.6216 -613.25026 L -1088.2216 -616.85026 L -1091.8216 -622.65026 L -1097.2216 -618.25026 L -1102.0216 -613.45026 L -1106.6216 -607.25026 L -1111.0216 -601.05026 L -1115.8216 -592.45026 L -1120.6216 -583.05026 L -1125.4216 -573.85026 L -1129.0216 -565.25025 L -1133.0216 -556.25025 L -1136.2216 -548.05025 L -1140.0216 -538.65025 L -1142.8216 -530.65025 L -1145.8216 -522.25025 Z" fill="white"/>
        <path d="M -1147.6216 -515.65025 L -1141.4216 -511.25025 L -1133.2216 -507.25025 L -1124.6216 -503.65025 L -1115.6216 -499.85025 L -1104.6216 -495.85025 L -1095.2216 -493.05025 L -1086.2216 -490.45025 L -1077.2216 -487.85025 L -1071.8216 -486.45025 L -1066.2216 -485.45025 L -1063.8216 -491.25025 L -1061.2216 -496.65025 L -1059.0216 -500.65025 L -1056.4216 -504.05025 L -1056.2216 -513.05025 L -1056.8216 -524.05025 L -1058.6216 -534.85025 L -1060.2216 -545.25025 L -1062.8216 -556.25025 L -1065.2216 -565.85025 L -1068.0216 -573.85026 L -1071.2216 -583.25026 L -1074.0216 -590.65026 L -1077.6216 -598.25026 L -1081.6216 -605.85026 L -1085.6216 -613.25026 L -1088.2216 -616.85026 L -1091.8216 -622.65026 L -1097.2216 -618.25026 L -1102.0216 -613.45026 L -1106.6216 -607.25026 L -1111.0216 -601.05026 L -1115.8216 -592.45026 L -1120.6216 -583.05026 L -1125.4216 -573.85026 L -1129.0216 -565.25025 L -1133.0216 -556.25025 L -1136.2216 -548.05025 L -1140.0216 -538.65025 L -1142.8216 -530.65025 L -1145.8216 -522.25025 Z" stroke="#7f8080" stroke-linecap="round" stroke-linejoin="round" stroke-width="1"/>
      </g>
      <g id="Graphic_9">
        <path d="M -716.2163 -516.59365 L -722.4163 -512.19365 L -730.6163 -508.19365 L -739.2163 -504.59365 L -748.2163 -500.79365 L -759.2163 -496.79365 L -768.6163 -493.99365 L -777.6163 -491.39365 L -786.6163 -488.79365 L -792.0163 -487.39365 L -797.6163 -486.39365 L -800.0163 -492.19365 L -802.6163 -497.59365 L -804.8163 -501.59365 L -807.4163 -504.99365 L -807.6163 -513.99365 L -807.0163 -524.99365 L -805.2163 -535.79365 L -803.6163 -546.19365 L -801.0163 -557.19365 L -798.6163 -566.79365 L -795.8163 -574.79365 L -792.6163 -584.19365 L -789.8163 -591.59365 L -786.2163 -599.19365 L -782.2163 -606.79365 L -778.2163 -614.19365 L -775.6163 -617.79365 L -772.0163 -623.59365 L -766.6163 -619.19365 L -761.8163 -614.39365 L -757.2163 -608.19365 L -752.8163 -601.99365 L -748.0163 -593.39365 L -743.2163 -583.99365 L -738.4163 -574.79365 L -734.8163 -566.19365 L -730.8163 -557.19365 L -727.6163 -548.99365 L -723.8163 -539.59365 L -721.0163 -531.59365 L -718.0163 -523.19365 Z" fill="#007100"/>
        <path d="M -716.2163 -516.59365 L -722.4163 -512.19365 L -730.6163 -508.19365 L -739.2163 -504.59365 L -748.2163 -500.79365 L -759.2163 -496.79365 L -768.6163 -493.99365 L -777.6163 -491.39365 L -786.6163 -488.79365 L -792.0163 -487.39365 L -797.6163 -486.39365 L -800.0163 -492.19365 L -802.6163 -497.59365 L -804.8163 -501.59365 L -807.4163 -504.99365 L -807.6163 -513.99365 L -807.0163 -524.99365 L -805.2163 -535.79365 L -803.6163 -546.19365 L -801.0163 -557.19365 L -798.6163 -566.79365 L -795.8163 -574.79365 L -792.6163 -584.19365 L -789.8163 -591.59365 L -786.2163 -599.19365 L -782.2163 -606.79365 L -778.2163 -614.19365 L -775.6163 -617.79365 L -772.0163 -623.59365 L -766.6163 -619.19365 L -761.8163 -614.39365 L -757.2163 -608.19365 L -752.8163 -601.99365 L -748.0163 -593.39365 L -743.2163 -583.99365 L -738.4163 -574.79365 L -734.8163 -566.19365 L -730.8163 -557.19365 L -727.6163 -548.99365 L -723.8163 -539.59365 L -721.0163 -531.59365 L -718.0163 -523.19365 Z" stroke="#7f8080" stroke-linecap="round" stroke-linejoin="round" stroke-width="1"/>
      </g>
      <g id="Graphic_8">
        <path d="M -1147.6216 -515.65025 L -1141.4216 -511.25025 L -1133.2216 -507.25025 L -1124.6216 -503.65025 L -1115.6216 -499.85025 L -1104.6216 -495.85025 L -1095.2216 -493.05025 L -1086.2216 -490.45025 L -1077.2216 -487.85025 L -1071.8216 -486.45025 L -1066.2216 -485.45025 L -1063.2216 -491.85025 L -1067.0216 -492.65025 L -1071.8216 -493.85025 L -1077.4216 -495.05025 L -1083.4216 -496.85025 L -1088.0216 -498.25025 L -1092.2216 -499.45025 L -1096.8216 -501.45025 L -1101.4216 -503.05025 L -1106.2216 -505.05025 L -1110.2216 -506.45025 L -1115.4216 -508.65025 L -1120.0216 -510.25025 L -1124.8216 -512.45025 L -1129.6216 -514.25025 L -1133.6216 -516.25025 L -1138.0216 -518.45025 L -1142.4216 -520.65025 L -1145.8216 -522.25025 Z" fill="url(#Obj_Gradient_2)"/>
        <path d="M -1147.6216 -515.65025 L -1141.4216 -511.25025 L -1133.2216 -507.25025 L -1124.6216 -503.65025 L -1115.6216 -499.85025 L -1104.6216 -495.85025 L -1095.2216 -493.05025 L -1086.2216 -490.45025 L -1077.2216 -487.85025 L -1071.8216 -486.45025 L -1066.2216 -485.45025 L -1063.2216 -491.85025 L -1067.0216 -492.65025 L -1071.8216 -493.85025 L -1077.4216 -495.05025 L -1083.4216 -496.85025 L -1088.0216 -498.25025 L -1092.2216 -499.45025 L -1096.8216 -501.45025 L -1101.4216 -503.05025 L -1106.2216 -505.05025 L -1110.2216 -506.45025 L -1115.4216 -508.65025 L -1120.0216 -510.25025 L -1124.8216 -512.45025 L -1129.6216 -514.25025 L -1133.6216 -516.25025 L -1138.0216 -518.45025 L -1142.4216 -520.65025 L -1145.8216 -522.25025 Z" stroke="#7f8080" stroke-linecap="round" stroke-linejoin="round" stroke-width="1"/>
      </g>
      <g id="Graphic_7">
        <path d="M -716.2163 -516.59365 L -722.4163 -512.19365 L -730.6163 -508.19365 L -739.2163 -504.59365 L -748.2163 -500.79365 L -759.2163 -496.79365 L -768.6163 -493.99365 L -777.6163 -491.39365 L -786.6163 -488.79365 L -792.0163 -487.39365 L -797.6163 -486.39365 L -800.6163 -492.79365 L -796.8163 -493.59365 L -792.0163 -494.79365 L -786.4163 -495.99365 L -780.4163 -497.79365 L -775.8163 -499.19365 L -771.6163 -500.39365 L -767.0163 -502.39365 L -762.4163 -503.99365 L -757.6163 -505.99365 L -753.6163 -507.39365 L -748.4163 -509.59365 L -743.8163 -511.19365 L -739.0163 -513.39365 L -734.2163 -515.19365 L -730.2163 -517.19365 L -725.8163 -519.39365 L -721.4163 -521.59365 L -718.0163 -523.19365 Z" fill="url(#Obj_Gradient_3)"/>
        <path d="M -716.2163 -516.59365 L -722.4163 -512.19365 L -730.6163 -508.19365 L -739.2163 -504.59365 L -748.2163 -500.79365 L -759.2163 -496.79365 L -768.6163 -493.99365 L -777.6163 -491.39365 L -786.6163 -488.79365 L -792.0163 -487.39365 L -797.6163 -486.39365 L -800.6163 -492.79365 L -796.8163 -493.59365 L -792.0163 -494.79365 L -786.4163 -495.99365 L -780.4163 -497.79365 L -775.8163 -499.19365 L -771.6163 -500.39365 L -767.0163 -502.39365 L -762.4163 -503.99365 L -757.6163 -505.99365 L -753.6163 -507.39365 L -748.4163 -509.59365 L -743.8163 -511.19365 L -739.0163 -513.39365 L -734.2163 -515.19365 L -730.2163 -517.19365 L -725.8163 -519.39365 L -721.4163 -521.59365 L -718.0163 -523.19365 Z" stroke="#7f8080" stroke-linecap="round" stroke-linejoin="round" stroke-width="1"/>
      </g>
      <g id="Graphic_6">
        <path d="M -997.5623 -665.3405 L -992.1623 -665.9405 L -985.3623 -662.5405 L -980.3623 -660.7405 L -971.9623 -658.9405 L -963.5623 -657.9405 L -955.5623 -656.9405 L -947.9623 -656.7405 L -939.3623 -656.3405 L -927.7623 -656.5405 L -919.3623 -656.9405 L -909.9623 -657.5405 L -901.5623 -658.3405 L -892.3623 -659.7405 L -884.1623 -661.9405 L -878.3623 -663.7405 L -872.7623 -666.3405 L -869.9623 -665.1405 L -869.5623 -659.5405 L -872.3623 -651.5405 L -877.7623 -648.7405 L -888.3623 -645.5405 L -899.7623 -643.1405 L -910.9623 -642.3405 L -923.3623 -641.3405 L -933.7623 -641.3405 L -943.1623 -641.3405 L -954.7623 -641.9405 L -965.9623 -642.7405 L -976.5623 -644.9405 L -985.1623 -646.9405 L -991.3623 -649.7405 L -993.3623 -651.3405 L -996.5623 -658.9405 Z" fill="url(#Obj_Gradient_4)"/>
        <path d="M -997.5623 -665.3405 L -992.1623 -665.9405 L -985.3623 -662.5405 L -980.3623 -660.7405 L -971.9623 -658.9405 L -963.5623 -657.9405 L -955.5623 -656.9405 L -947.9623 -656.7405 L -939.3623 -656.3405 L -927.7623 -656.5405 L -919.3623 -656.9405 L -909.9623 -657.5405 L -901.5623 -658.3405 L -892.3623 -659.7405 L -884.1623 -661.9405 L -878.3623 -663.7405 L -872.7623 -666.3405 L -869.9623 -665.1405 L -869.5623 -659.5405 L -872.3623 -651.5405 L -877.7623 -648.7405 L -888.3623 -645.5405 L -899.7623 -643.1405 L -910.9623 -642.3405 L -923.3623 -641.3405 L -933.7623 -641.3405 L -943.1623 -641.3405 L -954.7623 -641.9405 L -965.9623 -642.7405 L -976.5623 -644.9405 L -985.1623 -646.9405 L -991.3623 -649.7405 L -993.3623 -651.3405 L -996.5623 -658.9405 Z" stroke="#7f8080" stroke-linecap="round" stroke-linejoin="round" stroke-width="1"/>
      </g>
      <g id="Graphic_5">
        <path d="M -1057.5706 -230.28955 L -1045.8138 -228.15225 C -1045.6151 -228.11613 -1045.4158 -228.08378 -1045.2158 -228.0552 L -1019.3247 -224.3547 C -1019.0569 -224.3164 -1018.788 -224.28492 -1018.5186 -224.26026 L -990.9158 -221.7351 C -990.636 -221.7095 -990.3555 -221.69127 -990.0747 -221.68044 L -954.6751 -220.31537 C -954.3471 -220.30272 -954.0187 -220.30017 -953.6905 -220.30772 L -938.1225 -220.66597 C -937.2427 -220.68622 -936.3628 -220.63385 -935.4916 -220.5094 L -933.3006 -220.1964 C -931.6284 -219.9575 -930.0792 -221.11943 -929.8403 -222.7916 C -929.8195 -222.93745 -929.8092 -223.0846 -929.8096 -223.23192 L -930.791 -609.4361 C -930.7965 -611.6037 -932.3734 -613.4473 -934.5139 -613.78884 L -936.9747 -614.18145 C -937.8084 -614.3145 -938.6513 -614.3813 -939.4955 -614.3813 L -945.0577 -614.3813 C -945.8825 -614.3813 -946.7061 -614.4451 -947.5211 -614.57206 L -954.4961 -615.6589 C -955.0206 -615.74064 -955.5407 -615.8484 -956.0545 -615.98186 L -961.1551 -617.3065 C -962.3715 -617.6224 -963.5465 -618.0805 -964.6557 -618.6714 L -970.1254 -621.5851 C -970.623 -621.8501 -971.1062 -622.1413 -971.573 -622.4573 L -975.2922 -624.9753 C -975.8906 -625.3804 -976.4609 -625.82565 -976.9991 -626.3079 L -980.9998 -629.8924 C -981.2172 -630.0872 -981.4293 -630.288 -981.6358 -630.4944 L -985.0817 -633.9398 C -985.5119 -634.37 -985.9173 -634.8244 -986.2958 -635.3008 L -990.0513 -640.0273 C -990.3476 -640.4002 -990.6271 -640.78614 -990.889 -641.184 L -994.9599 -647.36884 C -995.4068 -648.0477 -995.8012 -648.7596 -996.1399 -649.4984 L -998.5185 -654.6873 C -998.5499 -654.75576 -998.5807 -654.8244 -998.6112 -654.8933 L -1000.3081 -658.73765 C -1000.6307 -659.4684 -1000.2998 -660.3223 -999.569 -660.6449 C -999.5276 -660.66314 -999.4854 -660.6795 -999.4425 -660.6938 L -999.4425 -660.6938 C -999.0403 -660.8279 -998.6056 -660.6106 -998.4715 -660.2084 C -998.4167 -660.0441 -998.419 -659.866 -998.4783 -659.7032 L -999.0938 -658.0104 C -999.6315 -656.5317 -1000.7475 -655.3354 -1002.1853 -654.6964 L -1002.1853 -654.6964 C -1003.6688 -654.0371 -1005.2741 -653.6964 -1006.8975 -653.6964 L -1010.4644 -653.6964 C -1012.4282 -653.6964 -1014.3752 -653.3349 -1016.2081 -652.6299 L -1019.2098 -651.4754 C -1019.6932 -651.2895 -1020.1853 -651.1272 -1020.6844 -650.989 L -1027.5535 -649.0873 C -1027.7907 -649.0216 -1028.0264 -648.95044 -1028.2604 -648.8739 L -1038.8866 -645.3967 C -1038.9045 -645.3909 -1038.9223 -645.385 -1038.94 -645.3791 L -1048.9637 -642.0601 C -1049.1104 -642.0115 -1049.2563 -641.9608 -1049.4015 -641.90804 L -1061.2099 -637.6147 C -1061.262 -637.59576 -1061.3142 -637.5771 -1061.3665 -637.5587 L -1071.6481 -633.94106 C -1072.3212 -633.7042 -1072.9776 -633.42265 -1073.6131 -633.0982 L -1080.8796 -629.3882 C -1081.1455 -629.2524 -1081.4152 -629.1241 -1081.6883 -629.0034 L -1088.5428 -625.9745 C -1090.1826 -625.24995 -1091.0022 -623.3971 -1090.4353 -621.6964 L -1090.2564 -621.1596 C -1089.7125 -619.5281 -1088.9093 -617.995 -1087.8774 -616.61924 L -1084.3009 -611.8506 C -1083.725 -611.0827 -1083.2194 -610.2645 -1082.7901 -609.406 L -1080.0098 -603.84545 C -1079.9601 -603.7461 -1079.9094 -603.6472 -1079.8577 -603.5489 L -1075.1782 -594.6579 C -1075.0163 -594.3503 -1074.8645 -594.03754 -1074.723 -593.7201 L -1071.0568 -585.4954 C -1070.9022 -585.14854 -1070.76 -584.7963 -1070.6305 -584.4393 L -1067.4987 -575.8095 C -1067.3931 -575.5185 -1067.296 -575.22445 -1067.2074 -574.9278 L -1064.7935 -566.8407 C -1064.7796 -566.79425 -1064.766 -566.74774 -1064.7525 -566.7012 L -1061.915 -556.8701 C -1061.7417 -556.2697 -1061.6038 -555.6596 -1061.5018 -555.04305 L -1059.6669 -543.9439 C -1059.6473 -543.82535 -1059.629 -543.7066 -1059.6121 -543.5876 L -1058.041 -532.5441 C -1058.0049 -532.29045 -1057.975 -532.036 -1057.9511 -531.7809 L -1057.1289 -522.99244 C -1057.0896 -522.57195 -1057.0669 -522.1501 -1057.061 -521.7278 L -1056.8908 -509.66456 C -1056.8879 -509.46064 -1056.8812 -509.2568 -1056.8705 -509.05314 L -1056.1618 -495.52575 C -1056.1559 -495.41235 -1056.1487 -495.299 -1056.1404 -495.18577 L -1054.9125 -478.5396 C -1054.8836 -478.14793 -1054.8691 -477.7553 -1054.8691 -477.36257 L -1054.8691 -464.831 C -1054.8691 -464.643 -1054.8658 -464.45505 -1054.8592 -464.2672 L -1054.3255 -449.13226 C -1054.3211 -449.00786 -1054.3182 -448.8834 -1054.3167 -448.7589 L -1054.1399 -433.90915 C -1054.137 -433.66463 -1054.1397 -433.4201 -1054.148 -433.1757 L -1054.6765 -417.61024 C -1054.6826 -417.4293 -1054.6857 -417.2483 -1054.6857 -417.06727 L -1054.6857 -403.4178 C -1054.6857 -403.2298 -1054.689 -403.0418 -1054.6956 -402.85395 L -1055.2334 -387.60363 C -1055.235 -387.55615 -1055.237 -387.5087 -1055.239 -387.46122 L -1055.9687 -370.9467 C -1055.9692 -370.9348 -1055.9698 -370.9229 -1055.9703 -370.911 L -1056.6993 -355.20744 C -1056.7018 -355.15277 -1056.7046 -355.0981 -1056.7077 -355.04347 L -1057.7988 -335.8038 C -1057.8019 -335.74877 -1057.8053 -335.69376 -1057.809 -335.63877 L -1059.4454 -311.24503 C -1059.4512 -311.15898 -1059.4577 -311.07298 -1059.4648 -310.98703 L -1061.1035 -291.3253 C -1061.1043 -291.31622 -1061.105 -291.30715 -1061.1058 -291.2981 L -1062.7318 -272.18354 C -1062.7474 -271.99953 -1062.7663 -271.8158 -1062.7883 -271.63245 L -1064.5911 -256.61592 C -1064.7117 -255.61185 -1064.9575 -254.62683 -1065.3229 -253.68385 L -1065.3229 -253.68385 C -1065.6877 -252.7421 -1065.9149 -251.75262 -1065.9973 -250.746 L -1066.6984 -242.18138 C -1067.1667 -236.45993 -1063.2186 -231.3163 -1057.5706 -230.28955 Z" fill="white"/>
        <path d="M -1057.5706 -230.28955 L -1045.8138 -228.15225 C -1045.6151 -228.11613 -1045.4158 -228.08378 -1045.2158 -228.0552 L -1019.3247 -224.3547 C -1019.0569 -224.3164 -1018.788 -224.28492 -1018.5186 -224.26026 L -990.9158 -221.7351 C -990.636 -221.7095 -990.3555 -221.69127 -990.0747 -221.68044 L -954.6751 -220.31537 C -954.3471 -220.30272 -954.0187 -220.30017 -953.6905 -220.30772 L -938.1225 -220.66597 C -937.2427 -220.68622 -936.3628 -220.63385 -935.4916 -220.5094 L -933.3006 -220.1964 C -931.6284 -219.9575 -930.0792 -221.11943 -929.8403 -222.7916 C -929.8195 -222.93745 -929.8092 -223.0846 -929.8096 -223.23192 L -930.791 -609.4361 C -930.7965 -611.6037 -932.3734 -613.4473 -934.5139 -613.78884 L -936.9747 -614.18145 C -937.8084 -614.3145 -938.6513 -614.3813 -939.4955 -614.3813 L -945.0577 -614.3813 C -945.8825 -614.3813 -946.7061 -614.4451 -947.5211 -614.57206 L -954.4961 -615.6589 C -955.0206 -615.74064 -955.5407 -615.8484 -956.0545 -615.98186 L -961.1551 -617.3065 C -962.3715 -617.6224 -963.5465 -618.0805 -964.6557 -618.6714 L -970.1254 -621.5851 C -970.623 -621.8501 -971.1062 -622.1413 -971.573 -622.4573 L -975.2922 -624.9753 C -975.8906 -625.3804 -976.4609 -625.82565 -976.9991 -626.3079 L -980.9998 -629.8924 C -981.2172 -630.0872 -981.4293 -630.288 -981.6358 -630.4944 L -985.0817 -633.9398 C -985.5119 -634.37 -985.9173 -634.8244 -986.2958 -635.3008 L -990.0513 -640.0273 C -990.3476 -640.4002 -990.6271 -640.78614 -990.889 -641.184 L -994.9599 -647.36884 C -995.4068 -648.0477 -995.8012 -648.7596 -996.1399 -649.4984 L -998.5185 -654.6873 C -998.5499 -654.75576 -998.5807 -654.8244 -998.6112 -654.8933 L -1000.3081 -658.73765 C -1000.6307 -659.4684 -1000.2998 -660.3223 -999.569 -660.6449 C -999.5276 -660.66314 -999.4854 -660.6795 -999.4425 -660.6938 L -999.4425 -660.6938 C -999.0403 -660.8279 -998.6056 -660.6106 -998.4715 -660.2084 C -998.4167 -660.0441 -998.419 -659.866 -998.4783 -659.7032 L -999.0938 -658.0104 C -999.6315 -656.5317 -1000.7475 -655.3354 -1002.1853 -654.6964 L -1002.1853 -654.6964 C -1003.6688 -654.0371 -1005.2741 -653.6964 -1006.8975 -653.6964 L -1010.4644 -653.6964 C -1012.4282 -653.6964 -1014.3752 -653.3349 -1016.2081 -652.6299 L -1019.2098 -651.4754 C -1019.6932 -651.2895 -1020.1853 -651.1272 -1020.6844 -650.989 L -1027.5535 -649.0873 C -1027.7907 -649.0216 -1028.0264 -648.95044 -1028.2604 -648.8739 L -1038.8866 -645.3967 C -1038.9045 -645.3909 -1038.9223 -645.385 -1038.94 -645.3791 L -1048.9637 -642.0601 C -1049.1104 -642.0115 -1049.2563 -641.9608 -1049.4015 -641.90804 L -1061.2099 -637.6147 C -1061.262 -637.59576 -1061.3142 -637.5771 -1061.3665 -637.5587 L -1071.6481 -633.94106 C -1072.3212 -633.7042 -1072.9776 -633.42265 -1073.6131 -633.0982 L -1080.8796 -629.3882 C -1081.1455 -629.2524 -1081.4152 -629.1241 -1081.6883 -629.0034 L -1088.5428 -625.9745 C -1090.1826 -625.24995 -1091.0022 -623.3971 -1090.4353 -621.6964 L -1090.2564 -621.1596 C -1089.7125 -619.5281 -1088.9093 -617.995 -1087.8774 -616.61924 L -1084.3009 -611.8506 C -1083.725 -611.0827 -1083.2194 -610.2645 -1082.7901 -609.406 L -1080.0098 -603.84545 C -1079.9601 -603.7461 -1079.9094 -603.6472 -1079.8577 -603.5489 L -1075.1782 -594.6579 C -1075.0163 -594.3503 -1074.8645 -594.03754 -1074.723 -593.7201 L -1071.0568 -585.4954 C -1070.9022 -585.14854 -1070.76 -584.7963 -1070.6305 -584.4393 L -1067.4987 -575.8095 C -1067.3931 -575.5185 -1067.296 -575.22445 -1067.2074 -574.9278 L -1064.7935 -566.8407 C -1064.7796 -566.79425 -1064.766 -566.74774 -1064.7525 -566.7012 L -1061.915 -556.8701 C -1061.7417 -556.2697 -1061.6038 -555.6596 -1061.5018 -555.04305 L -1059.6669 -543.9439 C -1059.6473 -543.82535 -1059.629 -543.7066 -1059.6121 -543.5876 L -1058.041 -532.5441 C -1058.0049 -532.29045 -1057.975 -532.036 -1057.9511 -531.7809 L -1057.1289 -522.99244 C -1057.0896 -522.57195 -1057.0669 -522.1501 -1057.061 -521.7278 L -1056.8908 -509.66456 C -1056.8879 -509.46064 -1056.8812 -509.2568 -1056.8705 -509.05314 L -1056.1618 -495.52575 C -1056.1559 -495.41235 -1056.1487 -495.299 -1056.1404 -495.18577 L -1054.9125 -478.5396 C -1054.8836 -478.14793 -1054.8691 -477.7553 -1054.8691 -477.36257 L -1054.8691 -464.831 C -1054.8691 -464.643 -1054.8658 -464.45505 -1054.8592 -464.2672 L -1054.3255 -449.13226 C -1054.3211 -449.00786 -1054.3182 -448.8834 -1054.3167 -448.7589 L -1054.1399 -433.90915 C -1054.137 -433.66463 -1054.1397 -433.4201 -1054.148 -433.1757 L -1054.6765 -417.61024 C -1054.6826 -417.4293 -1054.6857 -417.2483 -1054.6857 -417.06727 L -1054.6857 -403.4178 C -1054.6857 -403.2298 -1054.689 -403.0418 -1054.6956 -402.85395 L -1055.2334 -387.60363 C -1055.235 -387.55615 -1055.237 -387.5087 -1055.239 -387.46122 L -1055.9687 -370.9467 C -1055.9692 -370.9348 -1055.9698 -370.9229 -1055.9703 -370.911 L -1056.6993 -355.20744 C -1056.7018 -355.15277 -1056.7046 -355.0981 -1056.7077 -355.04347 L -1057.7988 -335.8038 C -1057.8019 -335.74877 -1057.8053 -335.69376 -1057.809 -335.63877 L -1059.4454 -311.24503 C -1059.4512 -311.15898 -1059.4577 -311.07298 -1059.4648 -310.98703 L -1061.1035 -291.3253 C -1061.1043 -291.31622 -1061.105 -291.30715 -1061.1058 -291.2981 L -1062.7318 -272.18354 C -1062.7474 -271.99953 -1062.7663 -271.8158 -1062.7883 -271.63245 L -1064.5911 -256.61592 C -1064.7117 -255.61185 -1064.9575 -254.62683 -1065.3229 -253.68385 L -1065.3229 -253.68385 C -1065.6877 -252.7421 -1065.9149 -251.75262 -1065.9973 -250.746 L -1066.6984 -242.18138 C -1067.1667 -236.45993 -1063.2186 -231.3163 -1057.5706 -230.28955 Z" stroke="#7f8080" stroke-linecap="round" stroke-linejoin="round" stroke-width="1"/>
      </g>
      <g id="Graphic_4">
        <path d="M -997.0494 -665.1326 L -1001.7786 -661.079 C -1002.929 -660.093 -1004.1739 -659.2231 -1005.4954 -658.4819 L -1008.022 -657.06475 C -1009.4572 -656.2598 -1010.038 -654.49065 -1009.3592 -652.9917 L -1008.3416 -650.7444 C -1008.22 -650.47594 -1008.0933 -650.2098 -1007.9614 -649.9462 L -1003.6722 -641.3677 C -1003.3304 -640.6841 -1002.9547 -640.018 -1002.5466 -639.3718 L -1000.2202 -635.6883 C -999.7798 -634.99105 -999.3023 -634.318 -998.7896 -633.672 L -995.3789 -629.37455 C -994.8329 -628.6865 -994.2479 -628.03034 -993.6267 -627.4092 L -988.9607 -622.7432 C -988.5598 -622.3423 -988.1443 -621.9564 -987.7149 -621.5862 L -983.1513 -617.65214 C -982.7567 -617.3119 -982.3506 -616.9852 -981.9337 -616.6726 L -977.9588 -613.6914 C -977.2929 -613.1919 -976.6003 -612.729 -975.8842 -612.30466 L -971.7512 -609.85544 C -971.6232 -609.7796 -971.4944 -609.705 -971.365 -609.6316 L -966.6675 -606.9697 C -965.9292 -606.5513 -965.1683 -606.17414 -964.3883 -605.8399 L -960.8385 -604.3185 C -960.2525 -604.0674 -959.6564 -603.8407 -959.0516 -603.63914 L -954.0335 -601.9664 C -952.7862 -601.5507 -951.5056 -601.24264 -950.2058 -601.0457 L -946.1069 -600.42466 C -945.7418 -600.3693 -945.3754 -600.3228 -945.0081 -600.28514 L -938.127 -599.5794 C -937.8818 -599.55424 -937.6362 -599.533 -937.3904 -599.5158 L -932.8632 -599.1981 C -932.3274 -599.1605 -931.7903 -599.1417 -931.2532 -599.1417 L -927.9911 -599.14166 C -927.0374 -599.14166 -926.0846 -599.201 -925.1383 -599.3193 L -921.1496 -599.81786 C -920.4896 -599.90036 -919.8335 -600.01144 -919.1832 -600.1508 L -913.1012 -601.4541 C -912.2073 -601.6456 -911.3256 -601.8903 -910.4609 -602.1868 L -905.952 -603.7327 C -905.1574 -604.0051 -904.3783 -604.3209 -903.6182 -604.6786 L -898.7848 -606.95314 C -898.2346 -607.21205 -897.6949 -607.4927 -897.1669 -607.7944 L -893.3991 -609.94744 C -892.7063 -610.3433 -892.0346 -610.775 -891.3866 -611.2407 L -886.7105 -614.60165 C -886.2098 -614.9615 -885.7238 -615.3414 -885.2536 -615.7403 L -879.9328 -620.25496 C -879.5505 -620.57934 -879.1789 -620.91614 -878.8186 -621.2648 L -874.1194 -625.81244 C -873.4798 -626.4314 -872.8767 -627.087 -872.313 -627.7758 L -868.5198 -632.41206 C -868.013 -633.0314 -867.539 -633.6767 -867.0995 -634.3454 L -863.4824 -639.8498 C -863.2669 -640.1777 -863.0599 -640.51096 -862.8615 -640.8494 L -860.3385 -645.1535 C -859.9525 -645.81186 -859.5996 -646.48905 -859.2809 -647.1825 L -857.1622 -651.7938 C -856.6294 -652.95355 -856.2582 -654.181 -856.0592 -655.4417 L -856.0592 -655.4417 C -855.8809 -656.5709 -856.4602 -657.6844 -857.4872 -658.1865 L -862.7807 -660.7744 C -864.0951 -661.417 -865.3297 -662.2115 -866.4592 -663.1417 L -866.8652 -663.476 C -867.7095 -664.17136 -868.3329 -665.0977 -868.6592 -666.1417 L -868.6592 -666.1417 C -868.7058 -666.291 -868.8647 -666.3742 -869.014 -666.3275 C -869.1291 -666.2916 -869.2088 -666.1867 -869.2126 -666.0662 L -869.3219 -662.6433 C -869.4126 -659.8002 -870.03 -656.9986 -871.1426 -654.3807 L -872.0195 -652.31736 C -872.5781 -651.0031 -873.2578 -649.7437 -874.05 -648.5555 L -877.7357 -643.0268 C -878.4833 -641.90555 -879.3279 -640.85215 -880.2598 -639.8788 L -886.5549 -633.3039 C -887.423 -632.3973 -888.3638 -631.5632 -889.368 -630.8101 L -897.7429 -624.5289 C -898.6193 -623.8716 -899.5415 -623.2777 -900.5026 -622.75186 L -907.6878 -618.82034 C -908.9989 -618.1029 -910.3769 -617.515 -911.802 -617.065 L -918.475 -614.9577 C -920.1918 -614.41556 -921.9664 -614.07686 -923.7623 -613.9486 L -930.6487 -613.4567 C -931.721 -613.3801 -932.7974 -613.3788 -933.8699 -613.45275 L -942.3061 -614.03456 C -943.3403 -614.1059 -944.3685 -614.24704 -945.3836 -614.4571 L -952.5188 -615.9333 C -954.4708 -616.3372 -956.362 -616.99305 -958.1448 -617.8845 L -962.8042 -620.2142 C -964.0384 -620.83125 -965.2145 -621.5581 -966.3183 -622.386 L -972.0003 -626.6475 C -972.4394 -626.9768 -972.8666 -627.3218 -973.281 -627.6817 L -979.0362 -632.6796 C -979.8505 -633.3868 -980.6141 -634.1503 -981.3212 -634.9646 L -985.7264 -640.0373 C -986.4805 -640.90565 -987.1684 -641.82935 -987.7844 -642.8006 L -991.5181 -648.6884 C -991.8786 -649.257 -992.214 -649.8411 -992.5234 -650.4391 L -994.1437 -653.57184 C -994.7529 -654.7495 -995.2591 -655.9777 -995.6566 -657.24255 L -996.9368 -661.31604 C -997.1516 -661.9994 -997.3343 -662.69245 -997.4844 -663.3929 L -997.7099 -664.4448 C -997.7949 -664.84184 -997.5686 -665.2395 -997.1838 -665.369 L -997.1838 -665.369 C -997.1113 -665.3934 -997.0327 -665.35445 -997.0083 -665.28196 C -996.9903 -665.22845 -997.0066 -665.16936 -997.0494 -665.1326 Z" fill="url(#Obj_Gradient_5)"/>
        <path d="M -997.0494 -665.1326 L -1001.7786 -661.079 C -1002.929 -660.093 -1004.1739 -659.2231 -1005.4954 -658.4819 L -1008.022 -657.06475 C -1009.4572 -656.2598 -1010.038 -654.49065 -1009.3592 -652.9917 L -1008.3416 -650.7444 C -1008.22 -650.47594 -1008.0933 -650.2098 -1007.9614 -649.9462 L -1003.6722 -641.3677 C -1003.3304 -640.6841 -1002.9547 -640.018 -1002.5466 -639.3718 L -1000.2202 -635.6883 C -999.7798 -634.99105 -999.3023 -634.318 -998.7896 -633.672 L -995.3789 -629.37455 C -994.8329 -628.6865 -994.2479 -628.03034 -993.6267 -627.4092 L -988.9607 -622.7432 C -988.5598 -622.3423 -988.1443 -621.9564 -987.7149 -621.5862 L -983.1513 -617.65214 C -982.7567 -617.3119 -982.3506 -616.9852 -981.9337 -616.6726 L -977.9588 -613.6914 C -977.2929 -613.1919 -976.6003 -612.729 -975.8842 -612.30466 L -971.7512 -609.85544 C -971.6232 -609.7796 -971.4944 -609.705 -971.365 -609.6316 L -966.6675 -606.9697 C -965.9292 -606.5513 -965.1683 -606.17414 -964.3883 -605.8399 L -960.8385 -604.3185 C -960.2525 -604.0674 -959.6564 -603.8407 -959.0516 -603.63914 L -954.0335 -601.9664 C -952.7862 -601.5507 -951.5056 -601.24264 -950.2058 -601.0457 L -946.1069 -600.42466 C -945.7418 -600.3693 -945.3754 -600.3228 -945.0081 -600.28514 L -938.127 -599.5794 C -937.8818 -599.55424 -937.6362 -599.533 -937.3904 -599.5158 L -932.8632 -599.1981 C -932.3274 -599.1605 -931.7903 -599.1417 -931.2532 -599.1417 L -927.9911 -599.14166 C -927.0374 -599.14166 -926.0846 -599.201 -925.1383 -599.3193 L -921.1496 -599.81786 C -920.4896 -599.90036 -919.8335 -600.01144 -919.1832 -600.1508 L -913.1012 -601.4541 C -912.2073 -601.6456 -911.3256 -601.8903 -910.4609 -602.1868 L -905.952 -603.7327 C -905.1574 -604.0051 -904.3783 -604.3209 -903.6182 -604.6786 L -898.7848 -606.95314 C -898.2346 -607.21205 -897.6949 -607.4927 -897.1669 -607.7944 L -893.3991 -609.94744 C -892.7063 -610.3433 -892.0346 -610.775 -891.3866 -611.2407 L -886.7105 -614.60165 C -886.2098 -614.9615 -885.7238 -615.3414 -885.2536 -615.7403 L -879.9328 -620.25496 C -879.5505 -620.57934 -879.1789 -620.91614 -878.8186 -621.2648 L -874.1194 -625.81244 C -873.4798 -626.4314 -872.8767 -627.087 -872.313 -627.7758 L -868.5198 -632.41206 C -868.013 -633.0314 -867.539 -633.6767 -867.0995 -634.3454 L -863.4824 -639.8498 C -863.2669 -640.1777 -863.0599 -640.51096 -862.8615 -640.8494 L -860.3385 -645.1535 C -859.9525 -645.81186 -859.5996 -646.48905 -859.2809 -647.1825 L -857.1622 -651.7938 C -856.6294 -652.95355 -856.2582 -654.181 -856.0592 -655.4417 L -856.0592 -655.4417 C -855.8809 -656.5709 -856.4602 -657.6844 -857.4872 -658.1865 L -862.7807 -660.7744 C -864.0951 -661.417 -865.3297 -662.2115 -866.4592 -663.1417 L -866.8652 -663.476 C -867.7095 -664.17136 -868.3329 -665.0977 -868.6592 -666.1417 L -868.6592 -666.1417 C -868.7058 -666.291 -868.8647 -666.3742 -869.014 -666.3275 C -869.1291 -666.2916 -869.2088 -666.1867 -869.2126 -666.0662 L -869.3219 -662.6433 C -869.4126 -659.8002 -870.03 -656.9986 -871.1426 -654.3807 L -872.0195 -652.31736 C -872.5781 -651.0031 -873.2578 -649.7437 -874.05 -648.5555 L -877.7357 -643.0268 C -878.4833 -641.90555 -879.3279 -640.85215 -880.2598 -639.8788 L -886.5549 -633.3039 C -887.423 -632.3973 -888.3638 -631.5632 -889.368 -630.8101 L -897.7429 -624.5289 C -898.6193 -623.8716 -899.5415 -623.2777 -900.5026 -622.75186 L -907.6878 -618.82034 C -908.9989 -618.1029 -910.3769 -617.515 -911.802 -617.065 L -918.475 -614.9577 C -920.1918 -614.41556 -921.9664 -614.07686 -923.7623 -613.9486 L -930.6487 -613.4567 C -931.721 -613.3801 -932.7974 -613.3788 -933.8699 -613.45275 L -942.3061 -614.03456 C -943.3403 -614.1059 -944.3685 -614.24704 -945.3836 -614.4571 L -952.5188 -615.9333 C -954.4708 -616.3372 -956.362 -616.99305 -958.1448 -617.8845 L -962.8042 -620.2142 C -964.0384 -620.83125 -965.2145 -621.5581 -966.3183 -622.386 L -972.0003 -626.6475 C -972.4394 -626.9768 -972.8666 -627.3218 -973.281 -627.6817 L -979.0362 -632.6796 C -979.8505 -633.3868 -980.6141 -634.1503 -981.3212 -634.9646 L -985.7264 -640.0373 C -986.4805 -640.90565 -987.1684 -641.82935 -987.7844 -642.8006 L -991.5181 -648.6884 C -991.8786 -649.257 -992.214 -649.8411 -992.5234 -650.4391 L -994.1437 -653.57184 C -994.7529 -654.7495 -995.2591 -655.9777 -995.6566 -657.24255 L -996.9368 -661.31604 C -997.1516 -661.9994 -997.3343 -662.69245 -997.4844 -663.3929 L -997.7099 -664.4448 C -997.7949 -664.84184 -997.5686 -665.2395 -997.1838 -665.369 L -997.1838 -665.369 C -997.1113 -665.3934 -997.0327 -665.35445 -997.0083 -665.28196 C -996.9903 -665.22845 -997.0066 -665.16936 -997.0494 -665.1326 Z" stroke="#7f8080" stroke-linecap="round" stroke-linejoin="round" stroke-width="1"/>
      </g>
      <g id="Graphic_3">
        <path d="M -1067.8084 -239.8964 L -1067.8084 -239.8964 C -1067.874 -239.3709 -1067.8112 -238.83735 -1067.6253 -238.3415 L -1066.9743 -236.60548 C -1066.7975 -236.13413 -1066.5704 -235.68322 -1066.297 -235.26058 L -1065.3291 -233.76487 C -1064.7882 -232.92884 -1064.0751 -232.21785 -1063.2374 -231.67938 L -1062.1594 -230.98635 C -1061.8591 -230.79333 -1061.5446 -230.62355 -1061.2184 -230.47851 L -1059.9016 -229.89291 C -1059.305 -229.62764 -1058.6743 -229.44712 -1058.0278 -229.3566 L -1049.0174 -228.09514 C -1049.0074 -228.09375 -1048.9974 -228.09237 -1048.9874 -228.091 L -1037.2714 -226.5024 C -1037.2254 -226.49616 -1037.1793 -226.49039 -1037.1332 -226.48506 L -1026.8502 -225.29857 C -1026.8183 -225.2949 -1026.7864 -225.29142 -1026.7544 -225.28818 L -1013.0443 -223.8973 C -1013.0164 -223.89447 -1012.9884 -223.8918 -1012.9603 -223.8893 L -1001.855 -222.89775 C -1001.8199 -222.89461 -1001.7848 -222.89174 -1001.7496 -222.88914 L -991.0631 -222.09754 C -991.0226 -222.09455 -990.9821 -222.0919 -990.9416 -222.0896 L -980.4336 -221.49481 C -980.4128 -221.49363 -980.392 -221.49236 -980.3711 -221.491 L -968.3284 -220.7013 C -968.2444 -220.6958 -968.1603 -220.6918 -968.0761 -220.68933 L -954.629 -220.29383 C -954.6112 -220.2933 -954.5935 -220.29272 -954.5757 -220.29206 L -943.9319 -219.89784 C -943.8455 -219.89464 -943.7592 -219.89305 -943.6728 -219.89305 L -933.0638 -219.89305 C -933.0228 -219.89305 -932.9819 -219.89269 -932.941 -219.89197 L -921.8545 -219.69747 C -921.6865 -219.69452 -921.5184 -219.69763 -921.3505 -219.70678 L -910.7293 -220.28612 C -910.6447 -220.29074 -910.56 -220.29382 -910.4753 -220.29536 L -899.7107 -220.49108 C -899.6385 -220.4924 -899.5663 -220.49482 -899.4941 -220.49837 L -887.4755 -221.08945 C -887.4267 -221.09185 -887.378 -221.09475 -887.3293 -221.09817 L -876.0893 -221.88695 C -876.0313 -221.891 -875.9734 -221.8958 -875.9156 -221.9013 L -863.505 -223.08327 C -863.4366 -223.08979 -863.368 -223.0953 -863.2994 -223.0998 L -851.3674 -223.88222 C -851.2574 -223.88944 -851.1476 -223.89925 -851.038 -223.91165 L -840.6257 -225.0904 C -840.6101 -225.09217 -840.5946 -225.09398 -840.5791 -225.09584 L -830.6314 -226.28957 C -830.612 -226.29189 -830.5927 -226.29429 -830.5734 -226.29677 L -816.7376 -228.0743 C -816.6404 -228.0868 -816.5435 -228.10133 -816.4469 -228.1179 L -809.8934 -229.24134 C -809.6924 -229.2758 -809.49 -229.30145 -809.2868 -229.31823 L -806.0545 -229.5852 C -805.1653 -229.65865 -804.2983 -229.90143 -803.5002 -230.30046 L -802.0139 -231.0436 C -801.4133 -231.3439 -800.8591 -231.72905 -800.3682 -232.1872 L -799.0331 -233.43332 C -798.4262 -233.99968 -797.9708 -234.70893 -797.7083 -235.4964 L -797.4135 -236.38088 C -797.3434 -236.5911 -797.2834 -236.80453 -797.2336 -237.02045 L -796.7639 -239.05584 C -796.7286 -239.20848 -796.7621 -239.36888 -796.85535 -239.49472 L -796.85535 -239.49472 C -796.9457 -239.6166 -797.0963 -239.6781 -797.2462 -239.65426 L -805.726 -238.3052 C -805.7769 -238.2971 -805.8277 -238.28844 -805.8784 -238.27922 L -818.8632 -235.91835 C -818.956 -235.90148 -819.0491 -235.8865 -819.14245 -235.87338 L -830.3721 -234.2973 C -830.3923 -234.29446 -830.4124 -234.29154 -830.4325 -234.28854 L -843.5551 -232.32995 C -843.7199 -232.30535 -843.8855 -232.28665 -844.0516 -232.27387 L -856.7764 -231.29504 C -856.7937 -231.2937 -856.811 -231.29244 -856.8283 -231.29124 L -871.1685 -230.2954 C -871.1911 -230.29383 -871.2137 -230.29237 -871.2363 -230.29102 L -884.5395 -229.4968 C -884.5814 -229.4943 -884.6233 -229.49217 -884.6653 -229.49042 L -898.8567 -228.89911 C -898.9538 -228.89507 -899.051 -228.89305 -899.1481 -228.89305 L -924.944 -228.89305 C -924.9829 -228.89305 -925.0218 -228.89272 -925.0607 -228.89207 L -936.8191 -228.6961 C -936.9412 -228.69406 -937.0634 -228.69523 -937.1856 -228.6996 L -948.0192 -229.0865 C -948.1413 -229.09086 -948.2635 -229.09203 -948.3856 -229.09 L -960.1003 -228.89475 C -960.1683 -228.8936 -960.2364 -228.89347 -960.3044 -228.89432 L -976.0067 -229.0906 C -976.1371 -229.09223 -976.2675 -229.0975 -976.3976 -229.10642 L -990.7073 -230.08654 C -990.7707 -230.09088 -990.834 -230.09608 -990.8972 -230.10214 L -1005.3882 -231.49169 C -1005.3976 -231.4926 -1005.4071 -231.49352 -1005.4165 -231.49446 L -1019.2286 -232.87567 C -1019.3444 -232.88725 -1019.46 -232.90172 -1019.5751 -232.91907 L -1033.8842 -235.07524 C -1033.963 -235.0871 -1034.0419 -235.09763 -1034.121 -235.1068 L -1047.641 -236.67433 C -1047.7486 -236.6868 -1047.8558 -236.70177 -1047.9627 -236.71922 L -1057.3548 -238.25263 C -1057.5198 -238.27956 -1057.6838 -238.3124 -1057.8464 -238.35108 L -1066.924 -240.50986 C -1067.3123 -240.6022 -1067.702 -240.36228 -1067.7943 -239.97396 C -1067.8004 -239.94838 -1067.8051 -239.92248 -1067.8084 -239.8964 Z" fill="url(#Obj_Gradient_6)"/>
        <path d="M -1067.8084 -239.8964 L -1067.8084 -239.8964 C -1067.874 -239.3709 -1067.8112 -238.83735 -1067.6253 -238.3415 L -1066.9743 -236.60548 C -1066.7975 -236.13413 -1066.5704 -235.68322 -1066.297 -235.26058 L -1065.3291 -233.76487 C -1064.7882 -232.92884 -1064.0751 -232.21785 -1063.2374 -231.67938 L -1062.1594 -230.98635 C -1061.8591 -230.79333 -1061.5446 -230.62355 -1061.2184 -230.47851 L -1059.9016 -229.89291 C -1059.305 -229.62764 -1058.6743 -229.44712 -1058.0278 -229.3566 L -1049.0174 -228.09514 C -1049.0074 -228.09375 -1048.9974 -228.09237 -1048.9874 -228.091 L -1037.2714 -226.5024 C -1037.2254 -226.49616 -1037.1793 -226.49039 -1037.1332 -226.48506 L -1026.8502 -225.29857 C -1026.8183 -225.2949 -1026.7864 -225.29142 -1026.7544 -225.28818 L -1013.0443 -223.8973 C -1013.0164 -223.89447 -1012.9884 -223.8918 -1012.9603 -223.8893 L -1001.855 -222.89775 C -1001.8199 -222.89461 -1001.7848 -222.89174 -1001.7496 -222.88914 L -991.0631 -222.09754 C -991.0226 -222.09455 -990.9821 -222.0919 -990.9416 -222.0896 L -980.4336 -221.49481 C -980.4128 -221.49363 -980.392 -221.49236 -980.3711 -221.491 L -968.3284 -220.7013 C -968.2444 -220.6958 -968.1603 -220.6918 -968.0761 -220.68933 L -954.629 -220.29383 C -954.6112 -220.2933 -954.5935 -220.29272 -954.5757 -220.29206 L -943.9319 -219.89784 C -943.8455 -219.89464 -943.7592 -219.89305 -943.6728 -219.89305 L -933.0638 -219.89305 C -933.0228 -219.89305 -932.9819 -219.89269 -932.941 -219.89197 L -921.8545 -219.69747 C -921.6865 -219.69452 -921.5184 -219.69763 -921.3505 -219.70678 L -910.7293 -220.28612 C -910.6447 -220.29074 -910.56 -220.29382 -910.4753 -220.29536 L -899.7107 -220.49108 C -899.6385 -220.4924 -899.5663 -220.49482 -899.4941 -220.49837 L -887.4755 -221.08945 C -887.4267 -221.09185 -887.378 -221.09475 -887.3293 -221.09817 L -876.0893 -221.88695 C -876.0313 -221.891 -875.9734 -221.8958 -875.9156 -221.9013 L -863.505 -223.08327 C -863.4366 -223.08979 -863.368 -223.0953 -863.2994 -223.0998 L -851.3674 -223.88222 C -851.2574 -223.88944 -851.1476 -223.89925 -851.038 -223.91165 L -840.6257 -225.0904 C -840.6101 -225.09217 -840.5946 -225.09398 -840.5791 -225.09584 L -830.6314 -226.28957 C -830.612 -226.29189 -830.5927 -226.29429 -830.5734 -226.29677 L -816.7376 -228.0743 C -816.6404 -228.0868 -816.5435 -228.10133 -816.4469 -228.1179 L -809.8934 -229.24134 C -809.6924 -229.2758 -809.49 -229.30145 -809.2868 -229.31823 L -806.0545 -229.5852 C -805.1653 -229.65865 -804.2983 -229.90143 -803.5002 -230.30046 L -802.0139 -231.0436 C -801.4133 -231.3439 -800.8591 -231.72905 -800.3682 -232.1872 L -799.0331 -233.43332 C -798.4262 -233.99968 -797.9708 -234.70893 -797.7083 -235.4964 L -797.4135 -236.38088 C -797.3434 -236.5911 -797.2834 -236.80453 -797.2336 -237.02045 L -796.7639 -239.05584 C -796.7286 -239.20848 -796.7621 -239.36888 -796.85535 -239.49472 L -796.85535 -239.49472 C -796.9457 -239.6166 -797.0963 -239.6781 -797.2462 -239.65426 L -805.726 -238.3052 C -805.7769 -238.2971 -805.8277 -238.28844 -805.8784 -238.27922 L -818.8632 -235.91835 C -818.956 -235.90148 -819.0491 -235.8865 -819.14245 -235.87338 L -830.3721 -234.2973 C -830.3923 -234.29446 -830.4124 -234.29154 -830.4325 -234.28854 L -843.5551 -232.32995 C -843.7199 -232.30535 -843.8855 -232.28665 -844.0516 -232.27387 L -856.7764 -231.29504 C -856.7937 -231.2937 -856.811 -231.29244 -856.8283 -231.29124 L -871.1685 -230.2954 C -871.1911 -230.29383 -871.2137 -230.29237 -871.2363 -230.29102 L -884.5395 -229.4968 C -884.5814 -229.4943 -884.6233 -229.49217 -884.6653 -229.49042 L -898.8567 -228.89911 C -898.9538 -228.89507 -899.051 -228.89305 -899.1481 -228.89305 L -924.944 -228.89305 C -924.9829 -228.89305 -925.0218 -228.89272 -925.0607 -228.89207 L -936.8191 -228.6961 C -936.9412 -228.69406 -937.0634 -228.69523 -937.1856 -228.6996 L -948.0192 -229.0865 C -948.1413 -229.09086 -948.2635 -229.09203 -948.3856 -229.09 L -960.1003 -228.89475 C -960.1683 -228.8936 -960.2364 -228.89347 -960.3044 -228.89432 L -976.0067 -229.0906 C -976.1371 -229.09223 -976.2675 -229.0975 -976.3976 -229.10642 L -990.7073 -230.08654 C -990.7707 -230.09088 -990.834 -230.09608 -990.8972 -230.10214 L -1005.3882 -231.49169 C -1005.3976 -231.4926 -1005.4071 -231.49352 -1005.4165 -231.49446 L -1019.2286 -232.87567 C -1019.3444 -232.88725 -1019.46 -232.90172 -1019.5751 -232.91907 L -1033.8842 -235.07524 C -1033.963 -235.0871 -1034.0419 -235.09763 -1034.121 -235.1068 L -1047.641 -236.67433 C -1047.7486 -236.6868 -1047.8558 -236.70177 -1047.9627 -236.71922 L -1057.3548 -238.25263 C -1057.5198 -238.27956 -1057.6838 -238.3124 -1057.8464 -238.35108 L -1066.924 -240.50986 C -1067.3123 -240.6022 -1067.702 -240.36228 -1067.7943 -239.97396 C -1067.8004 -239.94838 -1067.8051 -239.92248 -1067.8084 -239.8964 Z" stroke="#7f8080" stroke-linecap="round" stroke-linejoin="round" stroke-width="1"/>
      </g>
    </g>
  </g>
</svg>
