<?xml version="1.0" encoding="UTF-8" standalone="no"?>
<!DOCTYPE svg PUBLIC "-//W3C//DTD SVG 1.1//EN" "http://www.w3.org/Graphics/SVG/1.1/DTD/svg11.dtd">
<svg xmlns:xl="http://www.w3.org/1999/xlink" xmlns:dc="http://purl.org/dc/elements/1.1/" xmlns="http://www.w3.org/2000/svg" version="1.1" viewBox="1029 846 433 449" width="433" height="449">
  <defs>
    <radialGradient cx="0" cy="0" r="1" id="Gradient" gradientUnits="userSpaceOnUse">
      <stop offset="0" stop-color="#cbcbcb"/>
      <stop offset=".4338305" stop-color="#737373"/>
      <stop offset="1" stop-color="black"/>
    </radialGradient>
    <radialGradient id="Obj_Gradient" xl:href="#Gradient" gradientTransform="translate(1244.354 874.5) scale(70.26272)"/>
  </defs>
  <metadata> Produced by OmniGraffle 7.19.2\n2023-12-06 01:13:20 +0000</metadata>
  <g id="Canvas_248" stroke-opacity="1" fill-opacity="1" stroke-dasharray="none" fill="none" stroke="none">
    <title>Canvas 248</title>
    <g id="Canvas_248_Capa_1">
      <title>Capa 1</title>
      <g id="Graphic_13">
        <path d="M 1182.6004 847.6904 L 1190.7658 850.8082 C 1191.6238 851.1358 1192.5006 851.4117 1193.3916 851.6344 L 1207.1088 855.0637 C 1208.2705 855.3541 1209.453 855.5534 1210.6457 855.6597 L 1228.1719 857.2214 C 1228.7597 857.2738 1229.3494 857.3035 1229.9395 857.3105 L 1245.4184 857.4948 C 1245.7087 857.4983 1245.9991 857.4962 1246.2894 857.4887 L 1260.7127 857.1141 C 1261.0735 857.1047 1261.434 857.0868 1261.794 857.0605 L 1276.1652 856.0089 C 1277.1567 855.9364 1278.1424 855.7996 1279.1161 855.5996 L 1290.689 853.2215 C 1291.731 853.0074 1292.757 852.7213 1293.7594 852.3652 L 1305.5114 848.1901 C 1306.6017 847.8028 1307.805 848.3335 1308.254 849.4 L 1308.254 849.4 C 1308.7761 850.6401 1308.9281 852.0048 1308.6916 853.3294 L 1308.5111 854.3401 C 1308.2073 856.0413 1307.7128 857.7028 1307.0369 859.2932 L 1305.4936 862.9243 C 1304.935 864.2386 1304.2553 865.498 1303.4632 866.6862 L 1299.7774 872.2148 C 1299.0299 873.3361 1298.1853 874.3895 1297.2533 875.3629 L 1290.9583 881.9377 C 1290.0902 882.8444 1289.1493 883.6785 1288.1452 884.4316 L 1279.7703 890.7128 C 1278.8938 891.3701 1277.9716 891.9639 1277.0105 892.4898 L 1269.8253 896.4213 C 1268.5142 897.1387 1267.1363 897.7266 1265.7111 898.1767 L 1259.0382 900.2839 C 1257.3213 900.8261 1255.5467 901.1648 1253.7508 901.2931 L 1246.8644 901.785 C 1245.7921 901.8616 1244.7157 901.8629 1243.6433 901.7889 L 1235.207 901.2071 C 1234.1728 901.1358 1233.1447 900.9946 1232.1295 900.7846 L 1224.9943 899.3083 C 1223.0424 898.9045 1221.1512 898.2486 1219.3683 897.3572 L 1214.7089 895.0275 C 1213.4748 894.4104 1212.2987 893.6835 1211.1948 892.8556 L 1205.5129 888.5942 C 1205.0737 888.2648 1204.6465 887.9199 1204.2321 887.5599 L 1198.4769 882.562 C 1197.6626 881.8549 1196.8991 881.0913 1196.192 880.2771 L 1191.7867 875.2044 C 1191.0326 874.336 1190.3447 873.4123 1189.7288 872.441 L 1185.995 866.5533 C 1185.6345 865.9847 1185.2991 865.4006 1184.9898 864.8025 L 1183.3694 861.6698 C 1182.7602 860.4921 1182.2541 859.264 1181.8565 857.9991 L 1180.5763 853.9256 C 1180.3615 853.2422 1180.1788 852.5492 1180.0287 851.8488 L 1179.954 851.5 C 1179.7593 850.5916 1179.8666 849.6444 1180.2594 848.8025 L 1180.354 848.6 C 1180.7484 847.7547 1181.7289 847.3577 1182.6004 847.6904 Z" fill="url(#Obj_Gradient)"/>
        <path d="M 1182.6004 847.6904 L 1190.7658 850.8082 C 1191.6238 851.1358 1192.5006 851.4117 1193.3916 851.6344 L 1207.1088 855.0637 C 1208.2705 855.3541 1209.453 855.5534 1210.6457 855.6597 L 1228.1719 857.2214 C 1228.7597 857.2738 1229.3494 857.3035 1229.9395 857.3105 L 1245.4184 857.4948 C 1245.7087 857.4983 1245.9991 857.4962 1246.2894 857.4887 L 1260.7127 857.1141 C 1261.0735 857.1047 1261.434 857.0868 1261.794 857.0605 L 1276.1652 856.0089 C 1277.1567 855.9364 1278.1424 855.7996 1279.1161 855.5996 L 1290.689 853.2215 C 1291.731 853.0074 1292.757 852.7213 1293.7594 852.3652 L 1305.5114 848.1901 C 1306.6017 847.8028 1307.805 848.3335 1308.254 849.4 L 1308.254 849.4 C 1308.7761 850.6401 1308.9281 852.0048 1308.6916 853.3294 L 1308.5111 854.3401 C 1308.2073 856.0413 1307.7128 857.7028 1307.0369 859.2932 L 1305.4936 862.9243 C 1304.935 864.2386 1304.2553 865.498 1303.4632 866.6862 L 1299.7774 872.2148 C 1299.0299 873.3361 1298.1853 874.3895 1297.2533 875.3629 L 1290.9583 881.9377 C 1290.0902 882.8444 1289.1493 883.6785 1288.1452 884.4316 L 1279.7703 890.7128 C 1278.8938 891.3701 1277.9716 891.9639 1277.0105 892.4898 L 1269.8253 896.4213 C 1268.5142 897.1387 1267.1363 897.7266 1265.7111 898.1767 L 1259.0382 900.2839 C 1257.3213 900.8261 1255.5467 901.1648 1253.7508 901.2931 L 1246.8644 901.785 C 1245.7921 901.8616 1244.7157 901.8629 1243.6433 901.7889 L 1235.207 901.2071 C 1234.1728 901.1358 1233.1447 900.9946 1232.1295 900.7846 L 1224.9943 899.3083 C 1223.0424 898.9045 1221.1512 898.2486 1219.3683 897.3572 L 1214.7089 895.0275 C 1213.4748 894.4104 1212.2987 893.6835 1211.1948 892.8556 L 1205.5129 888.5942 C 1205.0737 888.2648 1204.6465 887.9199 1204.2321 887.5599 L 1198.4769 882.562 C 1197.6626 881.8549 1196.8991 881.0913 1196.192 880.2771 L 1191.7867 875.2044 C 1191.0326 874.336 1190.3447 873.4123 1189.7288 872.441 L 1185.995 866.5533 C 1185.6345 865.9847 1185.2991 865.4006 1184.9898 864.8025 L 1183.3694 861.6698 C 1182.7602 860.4921 1182.2541 859.264 1181.8565 857.9991 L 1180.5763 853.9256 C 1180.3615 853.2422 1180.1788 852.5492 1180.0287 851.8488 L 1179.954 851.5 C 1179.7593 850.5916 1179.8666 849.6444 1180.2594 848.8025 L 1180.354 848.6 C 1180.7484 847.7547 1181.7289 847.3577 1182.6004 847.6904 Z" stroke="#7f8080" stroke-linecap="round" stroke-linejoin="round" stroke-width="1"/>
      </g>
      <g id="Graphic_12">
        <path d="M 1118.5682 1284.3638 L 1132.3104 1286.6542 C 1132.4938 1286.6847 1132.6777 1286.7121 1132.862 1286.7362 L 1161.2157 1290.4515 C 1161.4622 1290.4838 1161.7094 1290.5104 1161.9572 1290.5312 L 1192.2001 1293.0677 C 1192.457 1293.0892 1192.7144 1293.1046 1192.972 1293.1137 L 1231.903 1294.49 C 1232.0913 1294.4967 1232.2798 1294.5 1232.4682 1294.5 L 1263.9356 1294.5 C 1264.1022 1294.5 1264.2688 1294.4974 1264.4353 1294.4922 L 1289.4701 1293.7099 C 1289.6803 1293.7033 1289.8904 1293.6926 1290.1003 1293.6777 L 1312.148 1292.1168 C 1312.3063 1292.1056 1312.4645 1292.092 1312.6224 1292.0761 L 1337.8829 1289.5305 C 1338.0846 1289.5102 1338.286 1289.486 1338.4868 1289.458 L 1362.2795 1286.1426 C 1362.4835 1286.1142 1362.6869 1286.0819 1362.8897 1286.0456 L 1372.0855 1284.4 C 1377.4126 1283.4467 1381.0635 1278.4931 1380.397 1273.1225 L 1378.1895 1255.332 C 1378.1868 1255.3107 1378.1842 1255.2893 1378.1817 1255.268 L 1374.6178 1225.5695 C 1374.5963 1225.3898 1374.5778 1225.2098 1374.5623 1225.0296 L 1372.2001 1197.4704 C 1372.1904 1197.3568 1372.1818 1197.2431 1372.1745 1197.1294 L 1370.7879 1175.5377 C 1370.7863 1175.5126 1370.7846 1175.4874 1370.7829 1175.4623 L 1369.1907 1152.376 C 1369.1872 1152.3253 1369.184 1152.2747 1369.181 1152.224 L 1368.0046 1132.4218 C 1367.9919 1132.2073 1367.9834 1131.9925 1367.9794 1131.7777 L 1367.587 1111.1828 C 1367.586 1111.1276 1367.5847 1111.0724 1367.583 1111.0172 L 1366.988 1090.7828 C 1366.9863 1090.7276 1366.985 1090.6724 1366.9839 1090.6171 L 1366.5933 1070.1076 C 1366.5881 1069.8359 1366.5898 1069.5641 1366.5985 1069.2925 L 1367.1844 1050.9329 C 1367.1851 1050.911 1367.1859 1050.889 1367.1867 1050.8671 L 1367.9748 1028.9978 C 1367.9819 1028.7993 1367.9928 1028.6009 1368.0073 1028.4028 L 1369.5648 1007.1822 C 1369.5786 1006.9941 1369.589 1006.8057 1369.5962 1006.6172 L 1370.3507 986.7184 C 1370.3739 986.1066 1370.4321 985.4967 1370.5252 984.8916 L 1373.2642 967.0881 C 1373.345 966.563 1373.4519 966.0423 1373.5845 965.5278 L 1378.2128 947.5702 C 1378.3279 947.1236 1378.4622 946.6822 1378.6154 946.2472 L 1384.3362 930.0076 C 1384.5023 929.5361 1384.6904 929.0727 1384.8999 928.6188 L 1390.4314 916.6338 C 1390.5341 916.4113 1390.642 916.1912 1390.7547 915.9736 L 1396.117 905.6322 C 1396.1626 905.5441 1396.2092 905.4564 1396.2565 905.3691 L 1401.4725 895.7521 C 1402.2098 894.3928 1403.1594 893.1599 1404.2855 892.1 L 1404.2855 892.1 C 1404.9607 891.4645 1404.9929 890.402 1404.3574 889.7268 C 1404.2329 889.5946 1404.0878 889.4834 1403.9277 889.3976 L 1400.7135 887.6757 C 1400.4949 887.5586 1400.2735 887.4466 1400.0497 887.3397 L 1392.1957 883.5912 C 1391.789 883.3972 1391.3744 883.2204 1390.953 883.0613 L 1381.2781 879.4104 C 1381.083 879.3368 1380.8866 879.267 1380.6888 879.2011 L 1367.9943 874.9696 C 1367.8551 874.9232 1367.7153 874.8787 1367.5748 874.8362 L 1354.6913 870.9321 C 1354.6208 870.9107 1354.5504 870.8888 1354.4802 870.8665 L 1341.9762 866.8879 C 1341.5825 866.7627 1341.1939 866.6222 1340.8111 866.4669 L 1328.8352 861.6071 C 1328.0035 861.2696 1327.2017 860.8628 1326.4383 860.3908 L 1316.819 854.4444 C 1316.6634 854.3481 1316.5093 854.2492 1316.357 854.1477 L 1311.4669 850.8876 C 1310.4855 850.2333 1309.6142 849.4274 1308.8855 848.5 L 1308.8855 848.5 C 1308.7799 848.3656 1308.5853 848.3422 1308.451 848.4478 C 1308.3482 848.5286 1308.3072 848.6651 1308.3485 848.7891 L 1308.4855 849.2 C 1308.9447 850.5777 1309.0493 852.049 1308.7895 853.4779 L 1308.3944 855.6511 C 1308.1232 857.1428 1307.6413 858.5883 1306.9633 859.9444 L 1305.431 863.009 C 1305.1343 863.6024 1304.801 864.1768 1304.433 864.7288 L 1301.2292 869.5344 C 1300.8006 870.1773 1300.326 870.7883 1299.8091 871.3626 L 1295.2471 876.4315 C 1295.206 876.4772 1295.1647 876.5226 1295.1231 876.5677 L 1289.1289 883.0758 C 1288.5011 883.7573 1287.8154 884.383 1287.0794 884.9459 L 1282.0552 888.7879 C 1281.609 889.129 1281.1452 889.4465 1280.6657 889.7389 L 1274.1793 893.694 C 1273.5176 894.0975 1272.8275 894.4523 1272.1145 894.7558 L 1264.999 897.7836 C 1264.1914 898.1273 1263.3568 898.4039 1262.5038 898.6107 L 1258.4247 899.5996 C 1257.5999 899.7995 1256.7604 899.9336 1255.9143 900.0003 L 1250.2141 900.4504 C 1249.7952 900.4834 1249.3751 900.5 1248.9549 900.5 L 1241.9226 900.5 C 1241.1655 900.5 1240.4093 900.4463 1239.6598 900.3392 L 1231.7134 899.204 C 1231.2284 899.1347 1230.7468 899.0432 1230.2702 898.9297 L 1224.309 897.5103 C 1223.1635 897.2376 1222.0516 896.8393 1220.9935 896.3225 L 1214.7135 893.2555 C 1214.2285 893.0187 1213.7557 892.7574 1213.2971 892.4727 L 1209.0852 889.8585 C 1208.486 889.4866 1207.9121 889.0754 1207.3672 888.6278 L 1202.9211 884.9757 C 1202.6974 884.7919 1202.4787 884.6021 1202.2653 884.4065 L 1198.463 880.921 C 1198.0117 880.5073 1197.5845 880.0681 1197.1836 879.6055 L 1193.0648 874.8531 C 1192.7454 874.4845 1192.443 874.1016 1192.1587 873.7055 L 1187.729 867.5356 C 1187.2341 866.8463 1186.7948 866.1187 1186.4154 865.3597 L 1183.8389 860.2068 C 1183.8033 860.1356 1183.7682 860.0641 1183.7337 859.9924 L 1182.4855 857.4 C 1181.6348 855.6331 1181.2793 853.6686 1181.4568 851.7156 L 1181.637 849.7334 C 1181.6608 849.4715 1181.4678 849.2399 1181.206 849.2161 C 1181.0436 849.2014 1180.8849 849.2707 1180.7855 849.4 L 1180.7855 849.4 C 1180.122 850.2625 1179.342 851.0286 1178.4676 851.6762 L 1174.571 854.5626 C 1174.4473 854.6542 1174.3223 854.744 1174.196 854.832 L 1169.5738 858.0536 C 1168.3871 858.8807 1167.0937 859.5431 1165.7289 860.0226 L 1161.1218 861.6413 C 1160.6312 861.8137 1160.1493 862.0098 1159.6779 862.2291 L 1152.8311 865.4137 C 1152.1349 865.7375 1151.4164 866.0107 1150.681 866.2314 L 1139.8106 869.4925 C 1139.7939 869.4975 1139.7771 869.5025 1139.7604 869.5076 L 1128.7923 872.8372 C 1128.6545 872.8791 1128.5171 872.9228 1128.3804 872.9684 L 1115.4592 877.2754 C 1115.41 877.2918 1115.3609 877.3079 1115.3116 877.3238 L 1103.9442 880.9907 C 1103.3057 881.1967 1102.6808 881.4426 1102.0732 881.727 L 1094.1412 885.4399 C 1093.7709 885.6132 1093.4073 885.8007 1093.0513 886.0019 L 1087.1052 889.3628 C 1085.8522 890.071 1085.4105 891.6609 1086.1188 892.914 C 1086.1959 893.0504 1086.2852 893.1796 1086.3855 893.3 L 1087.2496 894.3369 C 1088.0045 895.2429 1088.657 896.2295 1089.1951 897.2788 L 1092.2723 903.2792 C 1092.3477 903.4264 1092.4255 903.5724 1092.5055 903.7171 L 1096.4602 910.8734 C 1096.5437 911.0244 1096.6248 911.1769 1096.7033 911.3306 L 1100.8116 919.3685 C 1101.0607 919.8559 1101.2846 920.3556 1101.4825 920.8659 L 1104.9652 929.8478 C 1104.9787 929.8826 1104.9924 929.9174 1105.0061 929.9521 L 1108.6024 939.0375 C 1108.7244 939.3458 1108.8368 939.6577 1108.9395 939.9729 L 1111.5613 948.0257 C 1111.5774 948.0752 1111.5933 948.1248 1111.609 948.1745 L 1114.681 957.9328 C 1114.8838 958.577 1115.0456 959.2333 1115.1654 959.8979 L 1117.1508 970.9074 C 1117.1739 971.0358 1117.1955 971.1645 1117.2155 971.2934 L 1118.9214 982.2868 C 1118.9641 982.5622 1118.9996 982.8387 1119.028 983.116 L 1119.9154 991.8127 C 1119.9621 992.2707 1119.989 992.7305 1119.9961 993.1908 L 1120.1804 1005.1664 C 1120.1838 1005.3888 1120.1918 1005.611 1120.2045 1005.8331 L 1120.9749 1019.3146 C 1120.982 1019.4382 1120.9905 1019.5617 1121.0004 1019.685 L 1122.334 1036.2594 C 1122.3683 1036.6863 1122.3855 1037.1144 1122.3855 1037.5426 L 1122.3855 1049.9924 C 1122.3855 1050.1975 1122.3894 1050.4025 1122.3973 1050.6073 L 1122.9777 1065.6965 C 1122.9829 1065.8322 1122.9864 1065.9679 1122.9881 1066.1036 L 1123.1803 1080.8999 C 1123.1838 1081.1666 1123.1806 1081.4333 1123.1707 1081.6999 L 1122.5965 1097.204 C 1122.5891 1097.4013 1122.5855 1097.5987 1122.5855 1097.7962 L 1122.5855 1111.3924 C 1122.5855 1111.5975 1122.5816 1111.8025 1122.5737 1112.0073 L 1121.9885 1127.2224 C 1121.9865 1127.2741 1121.9842 1127.3259 1121.9818 1127.3776 L 1121.1864 1143.8805 C 1121.1858 1143.8935 1121.1852 1143.9065 1121.1845 1143.9194 L 1120.39 1159.6106 C 1120.387 1159.6702 1120.3837 1159.7298 1120.38 1159.7893 L 1119.191 1179.01 C 1119.1873 1179.07 1119.1833 1179.13 1119.1789 1179.1899 L 1117.3958 1203.5594 C 1117.3889 1203.6531 1117.3812 1203.7468 1117.3727 1203.8404 L 1115.5868 1223.4852 C 1115.586 1223.495 1115.585 1223.505 1115.5841 1223.5148 L 1113.8134 1242.5997 C 1113.7948 1242.7999 1113.7724 1242.9997 1113.7463 1243.199 L 1111.7856 1258.1717 C 1111.6528 1259.186 1111.3837 1260.1776 1110.9855 1261.1197 L 1110.9855 1261.1197 C 1110.5879 1262.0605 1110.3392 1263.0574 1110.2484 1264.0746 L 1109.4855 1272.6197 C 1108.9777 1278.3068 1112.9362 1283.4251 1118.5682 1284.3638 Z" fill="#6100ff"/>
        <path d="M 1118.5682 1284.3638 L 1132.3104 1286.6542 C 1132.4938 1286.6847 1132.6777 1286.7121 1132.862 1286.7362 L 1161.2157 1290.4515 C 1161.4622 1290.4838 1161.7094 1290.5104 1161.9572 1290.5312 L 1192.2001 1293.0677 C 1192.457 1293.0892 1192.7144 1293.1046 1192.972 1293.1137 L 1231.903 1294.49 C 1232.0913 1294.4967 1232.2798 1294.5 1232.4682 1294.5 L 1263.9356 1294.5 C 1264.1022 1294.5 1264.2688 1294.4974 1264.4353 1294.4922 L 1289.4701 1293.7099 C 1289.6803 1293.7033 1289.8904 1293.6926 1290.1003 1293.6777 L 1312.148 1292.1168 C 1312.3063 1292.1056 1312.4645 1292.092 1312.6224 1292.0761 L 1337.8829 1289.5305 C 1338.0846 1289.5102 1338.286 1289.486 1338.4868 1289.458 L 1362.2795 1286.1426 C 1362.4835 1286.1142 1362.6869 1286.0819 1362.8897 1286.0456 L 1372.0855 1284.4 C 1377.4126 1283.4467 1381.0635 1278.4931 1380.397 1273.1225 L 1378.1895 1255.332 C 1378.1868 1255.3107 1378.1842 1255.2893 1378.1817 1255.268 L 1374.6178 1225.5695 C 1374.5963 1225.3898 1374.5778 1225.2098 1374.5623 1225.0296 L 1372.2001 1197.4704 C 1372.1904 1197.3568 1372.1818 1197.2431 1372.1745 1197.1294 L 1370.7879 1175.5377 C 1370.7863 1175.5126 1370.7846 1175.4874 1370.7829 1175.4623 L 1369.1907 1152.376 C 1369.1872 1152.3253 1369.184 1152.2747 1369.181 1152.224 L 1368.0046 1132.4218 C 1367.9919 1132.2073 1367.9834 1131.9925 1367.9794 1131.7777 L 1367.587 1111.1828 C 1367.586 1111.1276 1367.5847 1111.0724 1367.583 1111.0172 L 1366.988 1090.7828 C 1366.9863 1090.7276 1366.985 1090.6724 1366.9839 1090.6171 L 1366.5933 1070.1076 C 1366.5881 1069.8359 1366.5898 1069.5641 1366.5985 1069.2925 L 1367.1844 1050.9329 C 1367.1851 1050.911 1367.1859 1050.889 1367.1867 1050.8671 L 1367.9748 1028.9978 C 1367.9819 1028.7993 1367.9928 1028.6009 1368.0073 1028.4028 L 1369.5648 1007.1822 C 1369.5786 1006.9941 1369.589 1006.8057 1369.5962 1006.6172 L 1370.3507 986.7184 C 1370.3739 986.1066 1370.4321 985.4967 1370.5252 984.8916 L 1373.2642 967.0881 C 1373.345 966.563 1373.4519 966.0423 1373.5845 965.5278 L 1378.2128 947.5702 C 1378.3279 947.1236 1378.4622 946.6822 1378.6154 946.2472 L 1384.3362 930.0076 C 1384.5023 929.5361 1384.6904 929.0727 1384.8999 928.6188 L 1390.4314 916.6338 C 1390.5341 916.4113 1390.642 916.1912 1390.7547 915.9736 L 1396.117 905.6322 C 1396.1626 905.5441 1396.2092 905.4564 1396.2565 905.3691 L 1401.4725 895.7521 C 1402.2098 894.3928 1403.1594 893.1599 1404.2855 892.1 L 1404.2855 892.1 C 1404.9607 891.4645 1404.9929 890.402 1404.3574 889.7268 C 1404.2329 889.5946 1404.0878 889.4834 1403.9277 889.3976 L 1400.7135 887.6757 C 1400.4949 887.5586 1400.2735 887.4466 1400.0497 887.3397 L 1392.1957 883.5912 C 1391.789 883.3972 1391.3744 883.2204 1390.953 883.0613 L 1381.2781 879.4104 C 1381.083 879.3368 1380.8866 879.267 1380.6888 879.2011 L 1367.9943 874.9696 C 1367.8551 874.9232 1367.7153 874.8787 1367.5748 874.8362 L 1354.6913 870.9321 C 1354.6208 870.9107 1354.5504 870.8888 1354.4802 870.8665 L 1341.9762 866.8879 C 1341.5825 866.7627 1341.1939 866.6222 1340.8111 866.4669 L 1328.8352 861.6071 C 1328.0035 861.2696 1327.2017 860.8628 1326.4383 860.3908 L 1316.819 854.4444 C 1316.6634 854.3481 1316.5093 854.2492 1316.357 854.1477 L 1311.4669 850.8876 C 1310.4855 850.2333 1309.6142 849.4274 1308.8855 848.5 L 1308.8855 848.5 C 1308.7799 848.3656 1308.5853 848.3422 1308.451 848.4478 C 1308.3482 848.5286 1308.3072 848.6651 1308.3485 848.7891 L 1308.4855 849.2 C 1308.9447 850.5777 1309.0493 852.049 1308.7895 853.4779 L 1308.3944 855.6511 C 1308.1232 857.1428 1307.6413 858.5883 1306.9633 859.9444 L 1305.431 863.009 C 1305.1343 863.6024 1304.801 864.1768 1304.433 864.7288 L 1301.2292 869.5344 C 1300.8006 870.1773 1300.326 870.7883 1299.8091 871.3626 L 1295.2471 876.4315 C 1295.206 876.4772 1295.1647 876.5226 1295.1231 876.5677 L 1289.1289 883.0758 C 1288.5011 883.7573 1287.8154 884.383 1287.0794 884.9459 L 1282.0552 888.7879 C 1281.609 889.129 1281.1452 889.4465 1280.6657 889.7389 L 1274.1793 893.694 C 1273.5176 894.0975 1272.8275 894.4523 1272.1145 894.7558 L 1264.999 897.7836 C 1264.1914 898.1273 1263.3568 898.4039 1262.5038 898.6107 L 1258.4247 899.5996 C 1257.5999 899.7995 1256.7604 899.9336 1255.9143 900.0003 L 1250.2141 900.4504 C 1249.7952 900.4834 1249.3751 900.5 1248.9549 900.5 L 1241.9226 900.5 C 1241.1655 900.5 1240.4093 900.4463 1239.6598 900.3392 L 1231.7134 899.204 C 1231.2284 899.1347 1230.7468 899.0432 1230.2702 898.9297 L 1224.309 897.5103 C 1223.1635 897.2376 1222.0516 896.8393 1220.9935 896.3225 L 1214.7135 893.2555 C 1214.2285 893.0187 1213.7557 892.7574 1213.2971 892.4727 L 1209.0852 889.8585 C 1208.486 889.4866 1207.9121 889.0754 1207.3672 888.6278 L 1202.9211 884.9757 C 1202.6974 884.7919 1202.4787 884.6021 1202.2653 884.4065 L 1198.463 880.921 C 1198.0117 880.5073 1197.5845 880.0681 1197.1836 879.6055 L 1193.0648 874.8531 C 1192.7454 874.4845 1192.443 874.1016 1192.1587 873.7055 L 1187.729 867.5356 C 1187.2341 866.8463 1186.7948 866.1187 1186.4154 865.3597 L 1183.8389 860.2068 C 1183.8033 860.1356 1183.7682 860.0641 1183.7337 859.9924 L 1182.4855 857.4 C 1181.6348 855.6331 1181.2793 853.6686 1181.4568 851.7156 L 1181.637 849.7334 C 1181.6608 849.4715 1181.4678 849.2399 1181.206 849.2161 C 1181.0436 849.2014 1180.8849 849.2707 1180.7855 849.4 L 1180.7855 849.4 C 1180.122 850.2625 1179.342 851.0286 1178.4676 851.6762 L 1174.571 854.5626 C 1174.4473 854.6542 1174.3223 854.744 1174.196 854.832 L 1169.5738 858.0536 C 1168.3871 858.8807 1167.0937 859.5431 1165.7289 860.0226 L 1161.1218 861.6413 C 1160.6312 861.8137 1160.1493 862.0098 1159.6779 862.2291 L 1152.8311 865.4137 C 1152.1349 865.7375 1151.4164 866.0107 1150.681 866.2314 L 1139.8106 869.4925 C 1139.7939 869.4975 1139.7771 869.5025 1139.7604 869.5076 L 1128.7923 872.8372 C 1128.6545 872.8791 1128.5171 872.9228 1128.3804 872.9684 L 1115.4592 877.2754 C 1115.41 877.2918 1115.3609 877.3079 1115.3116 877.3238 L 1103.9442 880.9907 C 1103.3057 881.1967 1102.6808 881.4426 1102.0732 881.727 L 1094.1412 885.4399 C 1093.7709 885.6132 1093.4073 885.8007 1093.0513 886.0019 L 1087.1052 889.3628 C 1085.8522 890.071 1085.4105 891.6609 1086.1188 892.914 C 1086.1959 893.0504 1086.2852 893.1796 1086.3855 893.3 L 1087.2496 894.3369 C 1088.0045 895.2429 1088.657 896.2295 1089.1951 897.2788 L 1092.2723 903.2792 C 1092.3477 903.4264 1092.4255 903.5724 1092.5055 903.7171 L 1096.4602 910.8734 C 1096.5437 911.0244 1096.6248 911.1769 1096.7033 911.3306 L 1100.8116 919.3685 C 1101.0607 919.8559 1101.2846 920.3556 1101.4825 920.8659 L 1104.9652 929.8478 C 1104.9787 929.8826 1104.9924 929.9174 1105.0061 929.9521 L 1108.6024 939.0375 C 1108.7244 939.3458 1108.8368 939.6577 1108.9395 939.9729 L 1111.5613 948.0257 C 1111.5774 948.0752 1111.5933 948.1248 1111.609 948.1745 L 1114.681 957.9328 C 1114.8838 958.577 1115.0456 959.2333 1115.1654 959.8979 L 1117.1508 970.9074 C 1117.1739 971.0358 1117.1955 971.1645 1117.2155 971.2934 L 1118.9214 982.2868 C 1118.9641 982.5622 1118.9996 982.8387 1119.028 983.116 L 1119.9154 991.8127 C 1119.9621 992.2707 1119.989 992.7305 1119.9961 993.1908 L 1120.1804 1005.1664 C 1120.1838 1005.3888 1120.1918 1005.611 1120.2045 1005.8331 L 1120.9749 1019.3146 C 1120.982 1019.4382 1120.9905 1019.5617 1121.0004 1019.685 L 1122.334 1036.2594 C 1122.3683 1036.6863 1122.3855 1037.1144 1122.3855 1037.5426 L 1122.3855 1049.9924 C 1122.3855 1050.1975 1122.3894 1050.4025 1122.3973 1050.6073 L 1122.9777 1065.6965 C 1122.9829 1065.8322 1122.9864 1065.9679 1122.9881 1066.1036 L 1123.1803 1080.8999 C 1123.1838 1081.1666 1123.1806 1081.4333 1123.1707 1081.6999 L 1122.5965 1097.204 C 1122.5891 1097.4013 1122.5855 1097.5987 1122.5855 1097.7962 L 1122.5855 1111.3924 C 1122.5855 1111.5975 1122.5816 1111.8025 1122.5737 1112.0073 L 1121.9885 1127.2224 C 1121.9865 1127.2741 1121.9842 1127.3259 1121.9818 1127.3776 L 1121.1864 1143.8805 C 1121.1858 1143.8935 1121.1852 1143.9065 1121.1845 1143.9194 L 1120.39 1159.6106 C 1120.387 1159.6702 1120.3837 1159.7298 1120.38 1159.7893 L 1119.191 1179.01 C 1119.1873 1179.07 1119.1833 1179.13 1119.1789 1179.1899 L 1117.3958 1203.5594 C 1117.3889 1203.6531 1117.3812 1203.7468 1117.3727 1203.8404 L 1115.5868 1223.4852 C 1115.586 1223.495 1115.585 1223.505 1115.5841 1223.5148 L 1113.8134 1242.5997 C 1113.7948 1242.7999 1113.7724 1242.9997 1113.7463 1243.199 L 1111.7856 1258.1717 C 1111.6528 1259.186 1111.3837 1260.1776 1110.9855 1261.1197 L 1110.9855 1261.1197 C 1110.5879 1262.0605 1110.3392 1263.0574 1110.2484 1264.0746 L 1109.4855 1272.6197 C 1108.9777 1278.3068 1112.9362 1283.4251 1118.5682 1284.3638 Z" stroke="#7f8080" stroke-linecap="round" stroke-linejoin="round" stroke-width="1"/>
      </g>
      <g id="Graphic_11">
        <path d="M 1029.5947 998.5461 L 1035.7947 1002.9461 L 1043.9947 1006.9461 L 1052.5947 1010.5461 L 1061.5947 1014.3461 L 1072.5947 1018.3461 L 1081.9947 1021.1461 L 1090.9947 1023.7461 L 1099.9947 1026.3461 L 1105.3947 1027.7461 L 1110.9947 1028.7461 L 1113.3947 1022.9461 L 1115.9947 1017.5461 L 1118.1947 1013.5461 L 1120.7947 1010.1461 L 1120.9947 1001.1461 L 1120.3947 990.1461 L 1118.5947 979.3461 L 1116.9947 968.9461 L 1114.3947 957.9461 L 1111.9947 948.3461 L 1109.1947 940.3461 L 1105.9947 930.9461 L 1103.1947 923.5461 L 1099.5947 915.9461 L 1095.5947 908.3461 L 1091.5947 900.9461 L 1088.9947 897.3461 L 1085.3947 891.5461 L 1079.9947 895.9461 L 1075.1947 900.7461 L 1070.5947 906.9461 L 1066.1947 913.1461 L 1061.3947 921.7461 L 1056.5947 931.1461 L 1051.7947 940.3461 L 1048.1947 948.9461 L 1044.1947 957.9461 L 1040.9947 966.1461 L 1037.1947 975.5461 L 1034.3947 983.5461 L 1031.3947 991.9461 Z" fill="#6100ff"/>
        <path d="M 1029.5947 998.5461 L 1035.7947 1002.9461 L 1043.9947 1006.9461 L 1052.5947 1010.5461 L 1061.5947 1014.3461 L 1072.5947 1018.3461 L 1081.9947 1021.1461 L 1090.9947 1023.7461 L 1099.9947 1026.3461 L 1105.3947 1027.7461 L 1110.9947 1028.7461 L 1113.3947 1022.9461 L 1115.9947 1017.5461 L 1118.1947 1013.5461 L 1120.7947 1010.1461 L 1120.9947 1001.1461 L 1120.3947 990.1461 L 1118.5947 979.3461 L 1116.9947 968.9461 L 1114.3947 957.9461 L 1111.9947 948.3461 L 1109.1947 940.3461 L 1105.9947 930.9461 L 1103.1947 923.5461 L 1099.5947 915.9461 L 1095.5947 908.3461 L 1091.5947 900.9461 L 1088.9947 897.3461 L 1085.3947 891.5461 L 1079.9947 895.9461 L 1075.1947 900.7461 L 1070.5947 906.9461 L 1066.1947 913.1461 L 1061.3947 921.7461 L 1056.5947 931.1461 L 1051.7947 940.3461 L 1048.1947 948.9461 L 1044.1947 957.9461 L 1040.9947 966.1461 L 1037.1947 975.5461 L 1034.3947 983.5461 L 1031.3947 991.9461 Z" stroke="#7f8080" stroke-linecap="round" stroke-linejoin="round" stroke-width="1"/>
      </g>
      <g id="Graphic_10">
        <path d="M 1461 997.6027 L 1454.8 1002.0027 L 1446.6 1006.0027 L 1438 1009.6027 L 1429 1013.4027 L 1418 1017.4027 L 1408.6 1020.2027 L 1399.6 1022.8027 L 1390.6 1025.4027 L 1385.2 1026.8027 L 1379.6 1027.8027 L 1377.2 1022.0027 L 1374.6 1016.6027 L 1372.4 1012.6027 L 1369.8 1009.2027 L 1369.6 1000.2027 L 1370.2 989.2027 L 1372 978.4027 L 1373.6 968.0027 L 1376.2 957.0027 L 1378.6 947.4027 L 1381.4 939.4027 L 1384.6 930.0027 L 1387.4 922.6027 L 1391 915.0027 L 1395 907.4027 L 1399 900.0027 L 1401.6 896.4027 L 1405.2 890.6027 L 1410.6 895.0027 L 1415.4 899.8027 L 1420 906.0027 L 1424.4 912.2027 L 1429.2 920.8027 L 1434 930.2027 L 1438.8 939.4027 L 1442.4 948.0027 L 1446.4 957.0027 L 1449.6 965.2027 L 1453.4 974.6027 L 1456.2 982.6027 L 1459.2 991.0027 Z" fill="#6100ff"/>
        <path d="M 1461 997.6027 L 1454.8 1002.0027 L 1446.6 1006.0027 L 1438 1009.6027 L 1429 1013.4027 L 1418 1017.4027 L 1408.6 1020.2027 L 1399.6 1022.8027 L 1390.6 1025.4027 L 1385.2 1026.8027 L 1379.6 1027.8027 L 1377.2 1022.0027 L 1374.6 1016.6027 L 1372.4 1012.6027 L 1369.8 1009.2027 L 1369.6 1000.2027 L 1370.2 989.2027 L 1372 978.4027 L 1373.6 968.0027 L 1376.2 957.0027 L 1378.6 947.4027 L 1381.4 939.4027 L 1384.6 930.0027 L 1387.4 922.6027 L 1391 915.0027 L 1395 907.4027 L 1399 900.0027 L 1401.6 896.4027 L 1405.2 890.6027 L 1410.6 895.0027 L 1415.4 899.8027 L 1420 906.0027 L 1424.4 912.2027 L 1429.2 920.8027 L 1434 930.2027 L 1438.8 939.4027 L 1442.4 948.0027 L 1446.4 957.0027 L 1449.6 965.2027 L 1453.4 974.6027 L 1456.2 982.6027 L 1459.2 991.0027 Z" stroke="#7f8080" stroke-linecap="round" stroke-linejoin="round" stroke-width="1"/>
      </g>
      <g id="Graphic_9">
        <path d="M 1029.5947 998.5461 L 1035.7947 1002.9461 L 1043.9947 1006.9461 L 1052.5947 1010.5461 L 1061.5947 1014.3461 L 1072.5947 1018.3461 L 1081.9947 1021.1461 L 1090.9947 1023.7461 L 1099.9947 1026.3461 L 1105.3947 1027.7461 L 1110.9947 1028.7461 L 1113.9947 1022.3461 L 1110.1947 1021.5461 L 1105.3947 1020.3461 L 1099.7947 1019.1461 L 1093.7947 1017.3461 L 1089.1947 1015.9461 L 1084.9947 1014.7461 L 1080.3947 1012.7461 L 1075.7947 1011.1461 L 1070.9947 1009.1461 L 1066.9947 1007.7461 L 1061.7947 1005.5461 L 1057.1947 1003.9461 L 1052.3947 1001.7461 L 1047.5947 999.9461 L 1043.5947 997.9461 L 1039.1947 995.7461 L 1034.7947 993.5461 L 1031.3947 991.9461 Z" fill="white"/>
        <path d="M 1029.5947 998.5461 L 1035.7947 1002.9461 L 1043.9947 1006.9461 L 1052.5947 1010.5461 L 1061.5947 1014.3461 L 1072.5947 1018.3461 L 1081.9947 1021.1461 L 1090.9947 1023.7461 L 1099.9947 1026.3461 L 1105.3947 1027.7461 L 1110.9947 1028.7461 L 1113.9947 1022.3461 L 1110.1947 1021.5461 L 1105.3947 1020.3461 L 1099.7947 1019.1461 L 1093.7947 1017.3461 L 1089.1947 1015.9461 L 1084.9947 1014.7461 L 1080.3947 1012.7461 L 1075.7947 1011.1461 L 1070.9947 1009.1461 L 1066.9947 1007.7461 L 1061.7947 1005.5461 L 1057.1947 1003.9461 L 1052.3947 1001.7461 L 1047.5947 999.9461 L 1043.5947 997.9461 L 1039.1947 995.7461 L 1034.7947 993.5461 L 1031.3947 991.9461 Z" stroke="#7f8080" stroke-linecap="round" stroke-linejoin="round" stroke-width="1"/>
      </g>
      <g id="Graphic_8">
        <path d="M 1461 997.6027 L 1454.8 1002.0027 L 1446.6 1006.0027 L 1438 1009.6027 L 1429 1013.4027 L 1418 1017.4027 L 1408.6 1020.2027 L 1399.6 1022.8027 L 1390.6 1025.4027 L 1385.2 1026.8027 L 1379.6 1027.8027 L 1376.6 1021.4027 L 1380.4 1020.6027 L 1385.2 1019.4027 L 1390.8 1018.2027 L 1396.8 1016.4027 L 1401.4 1015.0027 L 1405.6 1013.8027 L 1410.2 1011.8027 L 1414.8 1010.2027 L 1419.6 1008.2027 L 1423.6 1006.8027 L 1428.8 1004.6027 L 1433.4 1003.0027 L 1438.2 1000.8027 L 1443 999.0027 L 1447 997.0027 L 1451.4 994.8027 L 1455.8 992.6027 L 1459.2 991.0027 Z" fill="white"/>
        <path d="M 1461 997.6027 L 1454.8 1002.0027 L 1446.6 1006.0027 L 1438 1009.6027 L 1429 1013.4027 L 1418 1017.4027 L 1408.6 1020.2027 L 1399.6 1022.8027 L 1390.6 1025.4027 L 1385.2 1026.8027 L 1379.6 1027.8027 L 1376.6 1021.4027 L 1380.4 1020.6027 L 1385.2 1019.4027 L 1390.8 1018.2027 L 1396.8 1016.4027 L 1401.4 1015.0027 L 1405.6 1013.8027 L 1410.2 1011.8027 L 1414.8 1010.2027 L 1419.6 1008.2027 L 1423.6 1006.8027 L 1428.8 1004.6027 L 1433.4 1003.0027 L 1438.2 1000.8027 L 1443 999.0027 L 1447 997.0027 L 1451.4 994.8027 L 1455.8 992.6027 L 1459.2 991.0027 Z" stroke="#7f8080" stroke-linecap="round" stroke-linejoin="round" stroke-width="1"/>
      </g>
      <g id="Graphic_7">
        <path d="M 1180.1668 849.0638 L 1175.4377 853.1174 C 1174.2873 854.1034 1173.0424 854.9733 1171.7209 855.7145 L 1169.1943 857.1316 C 1167.7591 857.9366 1167.1783 859.7057 1167.8571 861.2047 L 1168.8747 863.452 C 1168.9963 863.7204 1169.123 863.9866 1169.2548 864.2502 L 1173.5441 872.8287 C 1173.8859 873.5123 1174.2615 874.1784 1174.6697 874.8246 L 1176.996 878.5081 C 1177.4364 879.2053 1177.914 879.8784 1178.4267 880.5244 L 1181.8373 884.8218 C 1182.3834 885.5099 1182.9684 886.166 1183.5895 886.7872 L 1188.2556 891.4532 C 1188.6565 891.8541 1189.072 892.24 1189.5014 892.6102 L 1194.065 896.5442 C 1194.4596 896.8845 1194.8657 897.2112 1195.2826 897.5238 L 1199.2575 900.505 C 1199.9234 901.0045 1200.616 901.4674 1201.332 901.8917 L 1205.4651 904.341 C 1205.5931 904.4168 1205.7218 904.4914 1205.8513 904.5648 L 1210.5488 907.2267 C 1211.2871 907.6451 1212.048 908.0223 1212.828 908.3565 L 1216.3778 909.8779 C 1216.9637 910.129 1217.5599 910.3557 1218.1647 910.5573 L 1223.1828 912.23 C 1224.43 912.6457 1225.7106 912.9537 1227.0105 913.1507 L 1231.1094 913.7717 C 1231.4745 913.8271 1231.8409 913.8736 1232.2082 913.9113 L 1239.0893 914.617 C 1239.3345 914.6422 1239.58 914.6634 1239.8259 914.6806 L 1244.353 914.9983 C 1244.8889 915.0359 1245.426 915.0547 1245.9631 915.0547 L 1249.2252 915.0547 C 1250.1789 915.0547 1251.1316 914.9954 1252.078 914.8771 L 1256.0667 914.3785 C 1256.7267 914.296 1257.3827 914.185 1258.033 914.0456 L 1264.1151 912.7423 C 1265.009 912.5508 1265.8906 912.3061 1266.7554 912.0096 L 1271.2642 910.4637 C 1272.0589 910.1913 1272.838 909.8755 1273.5981 909.5178 L 1278.4315 907.2433 C 1278.9817 906.9843 1279.5214 906.7037 1280.0493 906.402 L 1283.8172 904.249 C 1284.51 903.8531 1285.1817 903.4214 1285.8296 902.9557 L 1290.5058 899.5947 C 1291.0065 899.2349 1291.4925 898.855 1291.9626 898.4561 L 1297.2835 893.9414 C 1297.6658 893.617 1298.0374 893.2803 1298.3977 892.9316 L 1303.0969 888.384 C 1303.7365 887.765 1304.3396 887.1094 1304.9032 886.4206 L 1308.6965 881.7843 C 1309.2032 881.165 1309.6773 880.5197 1310.1167 879.851 L 1313.7339 874.3466 C 1313.9493 874.0187 1314.1563 873.6854 1314.3547 873.347 L 1316.8778 869.0429 C 1317.2638 868.3845 1317.6167 867.7073 1317.9353 867.0139 L 1320.054 862.4026 C 1320.5869 861.2428 1320.958 860.0154 1321.1571 858.7547 L 1321.1571 858.7547 C 1321.3354 857.6255 1320.7561 856.512 1319.729 856.0099 L 1314.4356 853.422 C 1313.1211 852.7794 1311.8865 851.9849 1310.7571 851.0547 L 1310.3511 850.7204 C 1309.5068 850.025 1308.8834 849.0987 1308.5571 848.0547 L 1308.5571 848.0547 C 1308.5104 847.9054 1308.3516 847.8222 1308.2023 847.8689 C 1308.0872 847.9048 1308.0075 848.0097 1308.0036 848.1302 L 1307.8944 851.5531 C 1307.8036 854.3962 1307.1863 857.1978 1306.0737 859.8157 L 1305.1968 861.879 C 1304.6382 863.1933 1303.9584 864.4527 1303.1663 865.6409 L 1299.4805 871.1696 C 1298.733 872.2908 1297.8884 873.3442 1296.9565 874.3176 L 1290.6614 880.8925 C 1289.7933 881.7991 1288.8525 882.6332 1287.8483 883.3863 L 1279.4734 889.6675 C 1278.597 890.3248 1277.6747 890.9187 1276.7137 891.4445 L 1269.5285 895.3761 C 1268.2173 896.0935 1266.8394 896.6814 1265.4142 897.1314 L 1258.7413 899.2387 C 1257.0244 899.7808 1255.2498 900.1195 1253.454 900.2478 L 1246.5675 900.7397 C 1245.4952 900.8163 1244.4189 900.8176 1243.3464 900.7436 L 1234.9101 900.1618 C 1233.876 900.0905 1232.8478 899.9494 1231.8327 899.7393 L 1224.6975 898.2631 C 1222.7455 897.8592 1220.8543 897.2033 1219.0715 896.3119 L 1214.412 893.9822 C 1213.1779 893.3651 1212.0018 892.6383 1210.898 891.8104 L 1205.216 887.5489 C 1204.7769 887.2196 1204.3497 886.8746 1203.9352 886.5147 L 1198.18 881.5168 C 1197.3658 880.8096 1196.6022 880.0461 1195.895 879.2318 L 1191.4898 874.1591 C 1190.7357 873.2907 1190.0478 872.367 1189.4319 871.3958 L 1185.6982 865.508 C 1185.3376 864.9394 1185.0022 864.3553 1184.6929 863.7573 L 1183.0725 860.6246 C 1182.4634 859.4469 1181.9572 858.2187 1181.5597 856.9538 L 1180.2794 852.8804 C 1180.0647 852.197 1179.8819 851.5039 1179.7318 850.8035 L 1179.5064 849.7516 C 1179.4213 849.3546 1179.6477 848.9569 1180.0325 848.8274 L 1180.0325 848.8274 C 1180.105 848.803 1180.1836 848.8419 1180.208 848.9144 C 1180.226 848.9679 1180.2097 849.027 1180.1668 849.0638 Z" fill="#6100ff"/>
        <path d="M 1180.1668 849.0638 L 1175.4377 853.1174 C 1174.2873 854.1034 1173.0424 854.9733 1171.7209 855.7145 L 1169.1943 857.1316 C 1167.7591 857.9366 1167.1783 859.7057 1167.8571 861.2047 L 1168.8747 863.452 C 1168.9963 863.7204 1169.123 863.9866 1169.2548 864.2502 L 1173.5441 872.8287 C 1173.8859 873.5123 1174.2615 874.1784 1174.6697 874.8246 L 1176.996 878.5081 C 1177.4364 879.2053 1177.914 879.8784 1178.4267 880.5244 L 1181.8373 884.8218 C 1182.3834 885.5099 1182.9684 886.166 1183.5895 886.7872 L 1188.2556 891.4532 C 1188.6565 891.8541 1189.072 892.24 1189.5014 892.6102 L 1194.065 896.5442 C 1194.4596 896.8845 1194.8657 897.2112 1195.2826 897.5238 L 1199.2575 900.505 C 1199.9234 901.0045 1200.616 901.4674 1201.332 901.8917 L 1205.4651 904.341 C 1205.5931 904.4168 1205.7218 904.4914 1205.8513 904.5648 L 1210.5488 907.2267 C 1211.2871 907.6451 1212.048 908.0223 1212.828 908.3565 L 1216.3778 909.8779 C 1216.9637 910.129 1217.5599 910.3557 1218.1647 910.5573 L 1223.1828 912.23 C 1224.43 912.6457 1225.7106 912.9537 1227.0105 913.1507 L 1231.1094 913.7717 C 1231.4745 913.8271 1231.8409 913.8736 1232.2082 913.9113 L 1239.0893 914.617 C 1239.3345 914.6422 1239.58 914.6634 1239.8259 914.6806 L 1244.353 914.9983 C 1244.8889 915.0359 1245.426 915.0547 1245.9631 915.0547 L 1249.2252 915.0547 C 1250.1789 915.0547 1251.1316 914.9954 1252.078 914.8771 L 1256.0667 914.3785 C 1256.7267 914.296 1257.3827 914.185 1258.033 914.0456 L 1264.1151 912.7423 C 1265.009 912.5508 1265.8906 912.3061 1266.7554 912.0096 L 1271.2642 910.4637 C 1272.0589 910.1913 1272.838 909.8755 1273.5981 909.5178 L 1278.4315 907.2433 C 1278.9817 906.9843 1279.5214 906.7037 1280.0493 906.402 L 1283.8172 904.249 C 1284.51 903.8531 1285.1817 903.4214 1285.8296 902.9557 L 1290.5058 899.5947 C 1291.0065 899.2349 1291.4925 898.855 1291.9626 898.4561 L 1297.2835 893.9414 C 1297.6658 893.617 1298.0374 893.2803 1298.3977 892.9316 L 1303.0969 888.384 C 1303.7365 887.765 1304.3396 887.1094 1304.9032 886.4206 L 1308.6965 881.7843 C 1309.2032 881.165 1309.6773 880.5197 1310.1167 879.851 L 1313.7339 874.3466 C 1313.9493 874.0187 1314.1563 873.6854 1314.3547 873.347 L 1316.8778 869.0429 C 1317.2638 868.3845 1317.6167 867.7073 1317.9353 867.0139 L 1320.054 862.4026 C 1320.5869 861.2428 1320.958 860.0154 1321.1571 858.7547 L 1321.1571 858.7547 C 1321.3354 857.6255 1320.7561 856.512 1319.729 856.0099 L 1314.4356 853.422 C 1313.1211 852.7794 1311.8865 851.9849 1310.7571 851.0547 L 1310.3511 850.7204 C 1309.5068 850.025 1308.8834 849.0987 1308.5571 848.0547 L 1308.5571 848.0547 C 1308.5104 847.9054 1308.3516 847.8222 1308.2023 847.8689 C 1308.0872 847.9048 1308.0075 848.0097 1308.0036 848.1302 L 1307.8944 851.5531 C 1307.8036 854.3962 1307.1863 857.1978 1306.0737 859.8157 L 1305.1968 861.879 C 1304.6382 863.1933 1303.9584 864.4527 1303.1663 865.6409 L 1299.4805 871.1696 C 1298.733 872.2908 1297.8884 873.3442 1296.9565 874.3176 L 1290.6614 880.8925 C 1289.7933 881.7991 1288.8525 882.6332 1287.8483 883.3863 L 1279.4734 889.6675 C 1278.597 890.3248 1277.6747 890.9187 1276.7137 891.4445 L 1269.5285 895.3761 C 1268.2173 896.0935 1266.8394 896.6814 1265.4142 897.1314 L 1258.7413 899.2387 C 1257.0244 899.7808 1255.2498 900.1195 1253.454 900.2478 L 1246.5675 900.7397 C 1245.4952 900.8163 1244.4189 900.8176 1243.3464 900.7436 L 1234.9101 900.1618 C 1233.876 900.0905 1232.8478 899.9494 1231.8327 899.7393 L 1224.6975 898.2631 C 1222.7455 897.8592 1220.8543 897.2033 1219.0715 896.3119 L 1214.412 893.9822 C 1213.1779 893.3651 1212.0018 892.6383 1210.898 891.8104 L 1205.216 887.5489 C 1204.7769 887.2196 1204.3497 886.8746 1203.9352 886.5147 L 1198.18 881.5168 C 1197.3658 880.8096 1196.6022 880.0461 1195.895 879.2318 L 1191.4898 874.1591 C 1190.7357 873.2907 1190.0478 872.367 1189.4319 871.3958 L 1185.6982 865.508 C 1185.3376 864.9394 1185.0022 864.3553 1184.6929 863.7573 L 1183.0725 860.6246 C 1182.4634 859.4469 1181.9572 858.2187 1181.5597 856.9538 L 1180.2794 852.8804 C 1180.0647 852.197 1179.8819 851.5039 1179.7318 850.8035 L 1179.5064 849.7516 C 1179.4213 849.3546 1179.6477 848.9569 1180.0325 848.8274 L 1180.0325 848.8274 C 1180.105 848.803 1180.1836 848.8419 1180.208 848.9144 C 1180.226 848.9679 1180.2097 849.027 1180.1668 849.0638 Z" stroke="#7f8080" stroke-linecap="round" stroke-linejoin="round" stroke-width="1"/>
      </g>
      <g id="Graphic_6">
        <path d="M 1179.654 848.8559 L 1185.054 848.2559 L 1191.854 851.6559 L 1196.854 853.4559 L 1205.254 855.2559 L 1213.654 856.2559 L 1221.654 857.2559 L 1229.254 857.4559 L 1237.854 857.8559 L 1249.454 857.6559 L 1257.854 857.2559 L 1267.254 856.6559 L 1275.654 855.8559 L 1284.854 854.4559 L 1293.054 852.2559 L 1298.854 850.4559 L 1304.454 847.8559 L 1307.254 849.0559 L 1307.654 854.6559 L 1304.854 862.6559 L 1299.454 865.4559 L 1288.854 868.6559 L 1277.454 871.0559 L 1266.254 871.8559 L 1253.854 872.8559 L 1243.454 872.8559 L 1234.054 872.8559 L 1222.454 872.2559 L 1211.254 871.4559 L 1200.654 869.2559 L 1192.054 867.2559 L 1185.854 864.4559 L 1183.854 862.8559 L 1180.654 855.2559 Z" fill="#6100ff"/>
        <path d="M 1179.654 848.8559 L 1185.054 848.2559 L 1191.854 851.6559 L 1196.854 853.4559 L 1205.254 855.2559 L 1213.654 856.2559 L 1221.654 857.2559 L 1229.254 857.4559 L 1237.854 857.8559 L 1249.454 857.6559 L 1257.854 857.2559 L 1267.254 856.6559 L 1275.654 855.8559 L 1284.854 854.4559 L 1293.054 852.2559 L 1298.854 850.4559 L 1304.454 847.8559 L 1307.254 849.0559 L 1307.654 854.6559 L 1304.854 862.6559 L 1299.454 865.4559 L 1288.854 868.6559 L 1277.454 871.0559 L 1266.254 871.8559 L 1253.854 872.8559 L 1243.454 872.8559 L 1234.054 872.8559 L 1222.454 872.2559 L 1211.254 871.4559 L 1200.654 869.2559 L 1192.054 867.2559 L 1185.854 864.4559 L 1183.854 862.8559 L 1180.654 855.2559 Z" stroke="#7f8080" stroke-linecap="round" stroke-linejoin="round" stroke-width="1"/>
      </g>
      <g id="Graphic_5">
        <path d="M 1109.4079 1274.3 L 1109.4079 1274.3 C 1109.3422 1274.8255 1109.405 1275.359 1109.591 1275.8549 L 1110.242 1277.5909 C 1110.4188 1278.0623 1110.6459 1278.5132 1110.9193 1278.9358 L 1111.8871 1280.4315 C 1112.4281 1281.2676 1113.1412 1281.9785 1113.9788 1282.517 L 1115.0569 1283.21 C 1115.3571 1283.403 1115.6717 1283.5728 1115.9979 1283.7179 L 1117.3147 1284.3035 C 1117.9113 1284.5688 1118.542 1284.7493 1119.1885 1284.8398 L 1128.1989 1286.1012 C 1128.2089 1286.1026 1128.2189 1286.104 1128.2289 1286.1054 L 1139.9449 1287.694 C 1139.9909 1287.7002 1140.037 1287.706 1140.0831 1287.7113 L 1150.366 1288.8978 C 1150.398 1288.9015 1150.4299 1288.905 1150.4619 1288.9082 L 1164.172 1290.2991 C 1164.1999 1290.302 1164.2279 1290.3046 1164.256 1290.3071 L 1175.3612 1291.2986 C 1175.3964 1291.3018 1175.4315 1291.3046 1175.4667 1291.3073 L 1186.1532 1292.0988 C 1186.1937 1292.1018 1186.2342 1292.1045 1186.2747 1292.1068 L 1196.7827 1292.7016 C 1196.8035 1292.7028 1196.8243 1292.704 1196.8451 1292.7054 L 1208.8879 1293.4951 C 1208.9719 1293.5006 1209.056 1293.5046 1209.1401 1293.507 L 1222.5873 1293.9026 C 1222.605 1293.9031 1222.6228 1293.9037 1222.6406 1293.9043 L 1233.2844 1294.2986 C 1233.3707 1294.3017 1233.4571 1294.3033 1233.5435 1294.3033 L 1244.1525 1294.3033 C 1244.1934 1294.3033 1244.2344 1294.3037 1244.2753 1294.3044 L 1255.3617 1294.499 C 1255.5298 1294.5019 1255.6979 1294.4988 1255.8658 1294.4896 L 1266.487 1293.9103 C 1266.5716 1293.9057 1266.6563 1293.9026 1266.741 1293.901 L 1277.5056 1293.7053 C 1277.5778 1293.704 1277.65 1293.7016 1277.7222 1293.698 L 1289.7408 1293.107 C 1289.7895 1293.1045 1289.8383 1293.1016 1289.887 1293.0982 L 1301.127 1292.3094 C 1301.185 1292.3054 1301.2428 1292.3006 1301.3006 1292.2951 L 1313.7112 1291.1131 C 1313.7797 1291.1066 1313.8482 1291.1011 1313.9169 1291.0966 L 1325.8489 1290.3142 C 1325.9589 1290.307 1326.0687 1290.2971 1326.1783 1290.2847 L 1336.5906 1289.106 C 1336.6061 1289.1042 1336.6217 1289.1024 1336.6372 1289.1006 L 1346.5849 1287.9068 C 1346.6043 1287.9045 1346.6236 1287.9021 1346.6429 1287.8996 L 1360.4787 1286.1221 C 1360.5759 1286.1096 1360.6728 1286.095 1360.7694 1286.0785 L 1367.3229 1284.955 C 1367.5239 1284.9206 1367.7262 1284.895 1367.9294 1284.8782 L 1371.1618 1284.6112 C 1372.051 1284.5377 1372.918 1284.295 1373.716 1283.896 L 1375.2024 1283.1528 C 1375.803 1282.8525 1376.3572 1282.4673 1376.8481 1282.0092 L 1378.1832 1280.763 C 1378.79 1280.1967 1379.2454 1279.4875 1379.508 1278.7 L 1379.8028 1277.8155 C 1379.8728 1277.6053 1379.9329 1277.3919 1379.9827 1277.176 L 1380.4524 1275.1405 C 1380.4876 1274.9879 1380.4542 1274.8275 1380.361 1274.7017 L 1380.361 1274.7017 C 1380.2706 1274.5798 1380.12 1274.5183 1379.9701 1274.5421 L 1371.4903 1275.8912 C 1371.4394 1275.8993 1371.3886 1275.908 1371.3379 1275.9172 L 1358.3531 1278.278 C 1358.2603 1278.2949 1358.1672 1278.3099 1358.0738 1278.323 L 1346.8441 1279.8991 C 1346.824 1279.902 1346.8039 1279.9048 1346.7837 1279.9079 L 1333.6611 1281.8664 C 1333.4964 1281.891 1333.3308 1281.9097 1333.1647 1281.9225 L 1320.4399 1282.9014 C 1320.4226 1282.9027 1320.4053 1282.904 1320.388 1282.9052 L 1306.0478 1283.901 C 1306.0252 1283.9026 1306.0026 1283.904 1305.98 1283.9054 L 1292.6768 1284.6996 C 1292.6349 1284.7021 1292.593 1284.7042 1292.551 1284.706 L 1278.3596 1285.2973 C 1278.2625 1285.3013 1278.1653 1285.3033 1278.0681 1285.3033 L 1252.2722 1285.3033 C 1252.2334 1285.3033 1252.1945 1285.3037 1252.1556 1285.3043 L 1240.3972 1285.5003 C 1240.275 1285.5023 1240.1528 1285.5012 1240.0307 1285.4968 L 1229.1971 1285.1099 C 1229.075 1285.1055 1228.9528 1285.1044 1228.8306 1285.1064 L 1217.116 1285.3016 C 1217.048 1285.3028 1216.9799 1285.3029 1216.9118 1285.302 L 1201.2096 1285.1058 C 1201.0792 1285.1042 1200.9488 1285.0989 1200.8187 1285.09 L 1186.509 1284.1099 C 1186.4456 1284.1055 1186.3823 1284.1003 1186.3191 1284.0943 L 1171.8281 1282.7047 C 1171.8186 1282.7038 1171.8092 1282.7029 1171.7997 1282.702 L 1157.9877 1281.3207 C 1157.8719 1281.3091 1157.7563 1281.2947 1157.6412 1281.2773 L 1143.332 1279.1211 C 1143.2533 1279.1093 1143.1743 1279.0988 1143.0952 1279.0896 L 1129.5753 1277.522 C 1129.4677 1277.5096 1129.3605 1277.4946 1129.2536 1277.4772 L 1119.8615 1275.9438 C 1119.6965 1275.9168 1119.5325 1275.884 1119.3699 1275.8453 L 1110.2923 1273.6865 C 1109.904 1273.5942 1109.5143 1273.8341 1109.422 1274.2224 C 1109.4159 1274.248 1109.4112 1274.2739 1109.4079 1274.3 Z" fill="#6100ff"/>
        <path d="M 1109.4079 1274.3 L 1109.4079 1274.3 C 1109.3422 1274.8255 1109.405 1275.359 1109.591 1275.8549 L 1110.242 1277.5909 C 1110.4188 1278.0623 1110.6459 1278.5132 1110.9193 1278.9358 L 1111.8871 1280.4315 C 1112.4281 1281.2676 1113.1412 1281.9785 1113.9788 1282.517 L 1115.0569 1283.21 C 1115.3571 1283.403 1115.6717 1283.5728 1115.9979 1283.7179 L 1117.3147 1284.3035 C 1117.9113 1284.5688 1118.542 1284.7493 1119.1885 1284.8398 L 1128.1989 1286.1012 C 1128.2089 1286.1026 1128.2189 1286.104 1128.2289 1286.1054 L 1139.9449 1287.694 C 1139.9909 1287.7002 1140.037 1287.706 1140.0831 1287.7113 L 1150.366 1288.8978 C 1150.398 1288.9015 1150.4299 1288.905 1150.4619 1288.9082 L 1164.172 1290.2991 C 1164.1999 1290.302 1164.2279 1290.3046 1164.256 1290.3071 L 1175.3612 1291.2986 C 1175.3964 1291.3018 1175.4315 1291.3046 1175.4667 1291.3073 L 1186.1532 1292.0988 C 1186.1937 1292.1018 1186.2342 1292.1045 1186.2747 1292.1068 L 1196.7827 1292.7016 C 1196.8035 1292.7028 1196.8243 1292.704 1196.8451 1292.7054 L 1208.8879 1293.4951 C 1208.9719 1293.5006 1209.056 1293.5046 1209.1401 1293.507 L 1222.5873 1293.9026 C 1222.605 1293.9031 1222.6228 1293.9037 1222.6406 1293.9043 L 1233.2844 1294.2986 C 1233.3707 1294.3017 1233.4571 1294.3033 1233.5435 1294.3033 L 1244.1525 1294.3033 C 1244.1934 1294.3033 1244.2344 1294.3037 1244.2753 1294.3044 L 1255.3617 1294.499 C 1255.5298 1294.5019 1255.6979 1294.4988 1255.8658 1294.4896 L 1266.487 1293.9103 C 1266.5716 1293.9057 1266.6563 1293.9026 1266.741 1293.901 L 1277.5056 1293.7053 C 1277.5778 1293.704 1277.65 1293.7016 1277.7222 1293.698 L 1289.7408 1293.107 C 1289.7895 1293.1045 1289.8383 1293.1016 1289.887 1293.0982 L 1301.127 1292.3094 C 1301.185 1292.3054 1301.2428 1292.3006 1301.3006 1292.2951 L 1313.7112 1291.1131 C 1313.7797 1291.1066 1313.8482 1291.1011 1313.9169 1291.0966 L 1325.8489 1290.3142 C 1325.9589 1290.307 1326.0687 1290.2971 1326.1783 1290.2847 L 1336.5906 1289.106 C 1336.6061 1289.1042 1336.6217 1289.1024 1336.6372 1289.1006 L 1346.5849 1287.9068 C 1346.6043 1287.9045 1346.6236 1287.9021 1346.6429 1287.8996 L 1360.4787 1286.1221 C 1360.5759 1286.1096 1360.6728 1286.095 1360.7694 1286.0785 L 1367.3229 1284.955 C 1367.5239 1284.9206 1367.7262 1284.895 1367.9294 1284.8782 L 1371.1618 1284.6112 C 1372.051 1284.5377 1372.918 1284.295 1373.716 1283.896 L 1375.2024 1283.1528 C 1375.803 1282.8525 1376.3572 1282.4673 1376.8481 1282.0092 L 1378.1832 1280.763 C 1378.79 1280.1967 1379.2454 1279.4875 1379.508 1278.7 L 1379.8028 1277.8155 C 1379.8728 1277.6053 1379.9329 1277.3919 1379.9827 1277.176 L 1380.4524 1275.1405 C 1380.4876 1274.9879 1380.4542 1274.8275 1380.361 1274.7017 L 1380.361 1274.7017 C 1380.2706 1274.5798 1380.12 1274.5183 1379.9701 1274.5421 L 1371.4903 1275.8912 C 1371.4394 1275.8993 1371.3886 1275.908 1371.3379 1275.9172 L 1358.3531 1278.278 C 1358.2603 1278.2949 1358.1672 1278.3099 1358.0738 1278.323 L 1346.8441 1279.8991 C 1346.824 1279.902 1346.8039 1279.9048 1346.7837 1279.9079 L 1333.6611 1281.8664 C 1333.4964 1281.891 1333.3308 1281.9097 1333.1647 1281.9225 L 1320.4399 1282.9014 C 1320.4226 1282.9027 1320.4053 1282.904 1320.388 1282.9052 L 1306.0478 1283.901 C 1306.0252 1283.9026 1306.0026 1283.904 1305.98 1283.9054 L 1292.6768 1284.6996 C 1292.6349 1284.7021 1292.593 1284.7042 1292.551 1284.706 L 1278.3596 1285.2973 C 1278.2625 1285.3013 1278.1653 1285.3033 1278.0681 1285.3033 L 1252.2722 1285.3033 C 1252.2334 1285.3033 1252.1945 1285.3037 1252.1556 1285.3043 L 1240.3972 1285.5003 C 1240.275 1285.5023 1240.1528 1285.5012 1240.0307 1285.4968 L 1229.1971 1285.1099 C 1229.075 1285.1055 1228.9528 1285.1044 1228.8306 1285.1064 L 1217.116 1285.3016 C 1217.048 1285.3028 1216.9799 1285.3029 1216.9118 1285.302 L 1201.2096 1285.1058 C 1201.0792 1285.1042 1200.9488 1285.0989 1200.8187 1285.09 L 1186.509 1284.1099 C 1186.4456 1284.1055 1186.3823 1284.1003 1186.3191 1284.0943 L 1171.8281 1282.7047 C 1171.8186 1282.7038 1171.8092 1282.7029 1171.7997 1282.702 L 1157.9877 1281.3207 C 1157.8719 1281.3091 1157.7563 1281.2947 1157.6412 1281.2773 L 1143.332 1279.1211 C 1143.2533 1279.1093 1143.1743 1279.0988 1143.0952 1279.0896 L 1129.5753 1277.522 C 1129.4677 1277.5096 1129.3605 1277.4946 1129.2536 1277.4772 L 1119.8615 1275.9438 C 1119.6965 1275.9168 1119.5325 1275.884 1119.3699 1275.8453 L 1110.2923 1273.6865 C 1109.904 1273.5942 1109.5143 1273.8341 1109.422 1274.2224 C 1109.4159 1274.248 1109.4112 1274.2739 1109.4079 1274.3 Z" stroke="#7f8080" stroke-linecap="round" stroke-linejoin="round" stroke-width="1"/>
      </g>
      <g id="Graphic_4">
        <path d="M 1121.8232 1008.0591 L 1121.8232 1008.0591 C 1121.9994 1007.3717 1122.3944 1006.7603 1122.9485 1006.317 L 1123.3447 1006 C 1124.1749 1005.3358 1124.9205 1004.5723 1125.5647 1003.7266 L 1126.7292 1002.1979 C 1127.2765 1001.4794 1127.762 1000.7158 1128.1804 999.9154 L 1129.3958 997.5907 C 1129.5319 997.3303 1129.6608 997.0662 1129.7824 996.7987 L 1130.6 995 C 1131.2628 993.5418 1131.7002 991.9914 1131.8971 990.4017 L 1132.5053 985.4922 C 1132.5362 985.2429 1132.5612 984.9929 1132.5803 984.7424 L 1133.0483 978.6077 C 1133.0792 978.2027 1133.0947 977.7967 1133.0947 977.3905 L 1133.0947 968.6304 C 1133.0947 968.2103 1133.0782 967.7904 1133.0451 967.3716 L 1132.645 962.301 C 1132.5828 961.5135 1132.4624 960.7317 1132.2848 959.962 L 1129.6072 948.3588 C 1129.5701 948.1984 1129.5306 948.0386 1129.4887 947.8793 L 1126.3162 935.841 C 1126.2388 935.5471 1126.153 935.2554 1126.0589 934.9664 L 1121.6452 921.4055 C 1121.5828 921.214 1121.5168 921.0236 1121.4473 920.8346 L 1117.33 909.6397 C 1117.1732 909.2134 1116.9983 908.794 1116.8059 908.3826 L 1111.4196 896.8695 C 1111.2733 896.5566 1111.1168 896.2485 1110.9505 895.9458 L 1106.6492 888.1162 C 1105.9212 886.7909 1105.0089 885.5755 1103.9397 884.5062 L 1103.5516 884.1182 C 1102.3636 882.9301 1100.5384 882.6585 1099.056 883.4492 L 1087.1755 889.7854 C 1086.7619 890.006 1086.3831 890.2867 1086.0516 890.6182 L 1086.0516 890.6182 C 1085.7565 890.9133 1085.6959 891.3695 1085.9036 891.7314 L 1091.7654 901.944 C 1091.832 902.0601 1091.9001 902.1754 1091.9697 902.2898 L 1097.8673 911.9923 C 1098.3227 912.7416 1098.7158 913.5271 1099.0426 914.3408 L 1102.5257 923.0149 C 1102.5752 923.1383 1102.6232 923.2623 1102.6697 923.3869 L 1106.8717 934.6558 C 1106.9572 934.8852 1107.0375 935.1166 1107.1124 935.3498 L 1112.2518 951.3389 C 1112.3506 951.6462 1112.44 951.9565 1112.52 952.2692 L 1115.4463 963.7067 C 1115.5165 963.981 1115.5794 964.2571 1115.6349 964.5347 L 1118.4499 978.6093 C 1118.5177 978.9485 1118.5745 979.2897 1118.6202 979.6326 L 1120.4818 993.5947 C 1120.5283 993.9436 1120.5633 994.2939 1120.5867 994.6451 L 1121.4789 1008.0273 C 1121.4853 1008.1237 1121.5687 1008.1967 1121.6652 1008.1903 C 1121.7407 1008.1853 1121.8044 1008.1323 1121.8232 1008.0591 Z" fill="white"/>
        <path d="M 1121.8232 1008.0591 L 1121.8232 1008.0591 C 1121.9994 1007.3717 1122.3944 1006.7603 1122.9485 1006.317 L 1123.3447 1006 C 1124.1749 1005.3358 1124.9205 1004.5723 1125.5647 1003.7266 L 1126.7292 1002.1979 C 1127.2765 1001.4794 1127.762 1000.7158 1128.1804 999.9154 L 1129.3958 997.5907 C 1129.5319 997.3303 1129.6608 997.0662 1129.7824 996.7987 L 1130.6 995 C 1131.2628 993.5418 1131.7002 991.9914 1131.8971 990.4017 L 1132.5053 985.4922 C 1132.5362 985.2429 1132.5612 984.9929 1132.5803 984.7424 L 1133.0483 978.6077 C 1133.0792 978.2027 1133.0947 977.7967 1133.0947 977.3905 L 1133.0947 968.6304 C 1133.0947 968.2103 1133.0782 967.7904 1133.0451 967.3716 L 1132.645 962.301 C 1132.5828 961.5135 1132.4624 960.7317 1132.2848 959.962 L 1129.6072 948.3588 C 1129.5701 948.1984 1129.5306 948.0386 1129.4887 947.8793 L 1126.3162 935.841 C 1126.2388 935.5471 1126.153 935.2554 1126.0589 934.9664 L 1121.6452 921.4055 C 1121.5828 921.214 1121.5168 921.0236 1121.4473 920.8346 L 1117.33 909.6397 C 1117.1732 909.2134 1116.9983 908.794 1116.8059 908.3826 L 1111.4196 896.8695 C 1111.2733 896.5566 1111.1168 896.2485 1110.9505 895.9458 L 1106.6492 888.1162 C 1105.9212 886.7909 1105.0089 885.5755 1103.9397 884.5062 L 1103.5516 884.1182 C 1102.3636 882.9301 1100.5384 882.6585 1099.056 883.4492 L 1087.1755 889.7854 C 1086.7619 890.006 1086.3831 890.2867 1086.0516 890.6182 L 1086.0516 890.6182 C 1085.7565 890.9133 1085.6959 891.3695 1085.9036 891.7314 L 1091.7654 901.944 C 1091.832 902.0601 1091.9001 902.1754 1091.9697 902.2898 L 1097.8673 911.9923 C 1098.3227 912.7416 1098.7158 913.5271 1099.0426 914.3408 L 1102.5257 923.0149 C 1102.5752 923.1383 1102.6232 923.2623 1102.6697 923.3869 L 1106.8717 934.6558 C 1106.9572 934.8852 1107.0375 935.1166 1107.1124 935.3498 L 1112.2518 951.3389 C 1112.3506 951.6462 1112.44 951.9565 1112.52 952.2692 L 1115.4463 963.7067 C 1115.5165 963.981 1115.5794 964.2571 1115.6349 964.5347 L 1118.4499 978.6093 C 1118.5177 978.9485 1118.5745 979.2897 1118.6202 979.6326 L 1120.4818 993.5947 C 1120.5283 993.9436 1120.5633 994.2939 1120.5867 994.6451 L 1121.4789 1008.0273 C 1121.4853 1008.1237 1121.5687 1008.1967 1121.6652 1008.1903 C 1121.7407 1008.1853 1121.8044 1008.1323 1121.8232 1008.0591 Z" stroke="#7f8080" stroke-linecap="round" stroke-linejoin="round" stroke-width="1"/>
      </g>
      <g id="Graphic_3">
        <path d="M 1369.0649 1008.8516 L 1364.8365 1003.3965 C 1363.6686 1001.8897 1362.7793 1000.1864 1362.2107 998.3668 L 1358.6845 987.0829 C 1358.2769 985.7784 1358.038 984.4272 1357.9738 983.062 L 1357.6124 975.3756 C 1357.6006 975.1252 1357.5947 974.8746 1357.5947 974.624 L 1357.5947 969.0151 C 1357.5947 968.6718 1357.6058 968.3286 1357.6278 967.9859 L 1358.0195 961.9092 C 1358.0535 961.3822 1358.1136 960.8571 1358.1995 960.336 L 1360.0886 948.876 C 1360.1628 948.4256 1360.2563 947.9785 1360.3688 947.536 L 1363.0803 936.8711 C 1363.16 936.5571 1363.2494 936.2456 1363.3482 935.9371 L 1366.2677 926.8137 C 1366.3559 926.538 1366.4516 926.2647 1366.5546 925.9942 L 1369.5758 918.0637 C 1369.592 918.0212 1369.6083 917.9788 1369.6248 917.9365 L 1372.9536 909.4175 C 1373.0315 909.218 1373.1135 909.02 1373.1994 908.8238 L 1378.1285 897.5649 C 1378.4389 896.8559 1378.8003 896.1704 1379.21 895.5137 L 1384.1023 887.6704 C 1384.7457 886.6389 1385.5045 885.6842 1386.3641 884.8246 L 1387.0705 884.1182 C 1388.2647 882.924 1390.0894 882.6289 1391.5991 883.3856 L 1401.412 888.3043 C 1402.3326 888.7657 1403.1823 889.3567 1403.9353 890.0591 L 1403.9353 890.0591 C 1404.584 890.6643 1404.681 891.6576 1404.1615 892.3768 L 1399.3302 899.0663 C 1398.8246 899.7664 1398.3765 900.5063 1397.9903 901.2787 L 1392.2953 912.6686 C 1392.1455 912.9682 1392.0051 913.2725 1391.8744 913.581 L 1388.226 922.1901 C 1388.1385 922.3967 1388.0553 922.6051 1387.9765 922.8151 L 1383.6228 934.4251 C 1383.604 934.475 1383.5856 934.5251 1383.5674 934.5752 L 1378.0294 949.8045 C 1377.74 950.6002 1377.5143 951.4177 1377.3543 952.2492 L 1375.0816 964.0608 C 1375.0742 964.0991 1375.0667 964.1373 1375.059 964.1754 L 1372.1723 978.6093 C 1372.1045 978.9485 1372.0477 979.2897 1372.002 979.6326 L 1370.1806 993.2925 C 1370.1073 993.8426 1370.0626 994.3961 1370.0468 994.9508 L 1369.8065 1003.3719 C 1369.8022 1003.524 1369.8 1003.6761 1369.8 1003.8282 L 1369.8 1007.4 L 1369.8 1008.6 C 1369.8 1008.8268 1369.6162 1009.0106 1369.3894 1009.0106 C 1369.2624 1009.0106 1369.1426 1008.9519 1369.0649 1008.8516 Z" fill="white"/>
        <path d="M 1369.0649 1008.8516 L 1364.8365 1003.3965 C 1363.6686 1001.8897 1362.7793 1000.1864 1362.2107 998.3668 L 1358.6845 987.0829 C 1358.2769 985.7784 1358.038 984.4272 1357.9738 983.062 L 1357.6124 975.3756 C 1357.6006 975.1252 1357.5947 974.8746 1357.5947 974.624 L 1357.5947 969.0151 C 1357.5947 968.6718 1357.6058 968.3286 1357.6278 967.9859 L 1358.0195 961.9092 C 1358.0535 961.3822 1358.1136 960.8571 1358.1995 960.336 L 1360.0886 948.876 C 1360.1628 948.4256 1360.2563 947.9785 1360.3688 947.536 L 1363.0803 936.8711 C 1363.16 936.5571 1363.2494 936.2456 1363.3482 935.9371 L 1366.2677 926.8137 C 1366.3559 926.538 1366.4516 926.2647 1366.5546 925.9942 L 1369.5758 918.0637 C 1369.592 918.0212 1369.6083 917.9788 1369.6248 917.9365 L 1372.9536 909.4175 C 1373.0315 909.218 1373.1135 909.02 1373.1994 908.8238 L 1378.1285 897.5649 C 1378.4389 896.8559 1378.8003 896.1704 1379.21 895.5137 L 1384.1023 887.6704 C 1384.7457 886.6389 1385.5045 885.6842 1386.3641 884.8246 L 1387.0705 884.1182 C 1388.2647 882.924 1390.0894 882.6289 1391.5991 883.3856 L 1401.412 888.3043 C 1402.3326 888.7657 1403.1823 889.3567 1403.9353 890.0591 L 1403.9353 890.0591 C 1404.584 890.6643 1404.681 891.6576 1404.1615 892.3768 L 1399.3302 899.0663 C 1398.8246 899.7664 1398.3765 900.5063 1397.9903 901.2787 L 1392.2953 912.6686 C 1392.1455 912.9682 1392.0051 913.2725 1391.8744 913.581 L 1388.226 922.1901 C 1388.1385 922.3967 1388.0553 922.6051 1387.9765 922.8151 L 1383.6228 934.4251 C 1383.604 934.475 1383.5856 934.5251 1383.5674 934.5752 L 1378.0294 949.8045 C 1377.74 950.6002 1377.5143 951.4177 1377.3543 952.2492 L 1375.0816 964.0608 C 1375.0742 964.0991 1375.0667 964.1373 1375.059 964.1754 L 1372.1723 978.6093 C 1372.1045 978.9485 1372.0477 979.2897 1372.002 979.6326 L 1370.1806 993.2925 C 1370.1073 993.8426 1370.0626 994.3961 1370.0468 994.9508 L 1369.8065 1003.3719 C 1369.8022 1003.524 1369.8 1003.6761 1369.8 1003.8282 L 1369.8 1007.4 L 1369.8 1008.6 C 1369.8 1008.8268 1369.6162 1009.0106 1369.3894 1009.0106 C 1369.2624 1009.0106 1369.1426 1008.9519 1369.0649 1008.8516 Z" stroke="#7f8080" stroke-linecap="round" stroke-linejoin="round" stroke-width="1"/>
      </g>
    </g>
  </g>
</svg>
