<?xml version="1.0" encoding="UTF-8" standalone="no"?>
<!DOCTYPE svg PUBLIC "-//W3C//DTD SVG 1.1//EN" "http://www.w3.org/Graphics/SVG/1.1/DTD/svg11.dtd">
<svg xmlns:xl="http://www.w3.org/1999/xlink" xmlns:dc="http://purl.org/dc/elements/1.1/" xmlns="http://www.w3.org/2000/svg" version="1.1" viewBox="-136 218 434 449" width="434" height="449">
  <defs/>
  <metadata> Produced by OmniGraffle 7.19.2\n2023-12-06 01:13:20 +0000</metadata>
  <g id="Lizo-Rojo2" stroke-opacity="1" fill-opacity="1" stroke-dasharray="none" fill="none" stroke="none">
    <title>Lizo-Rojo2</title>
    <g id="Lizo-Rojo2_Layer_1">
      <title>Layer 1</title>
      <g id="Graphic_9">
        <path d="M -46.026545 655.5079 L -32.284304 657.7983 C -32.100928 657.8288 -31.917032 657.8562 -31.7327 657.88035 L -3.37906 661.59565 C -3.132532 661.62796 -2.8852846 661.6545 -2.637519 661.6753 L 27.60537 664.2118 C 27.862274 664.2333 28.119662 664.2487 28.377307 664.2578 L 67.30822 665.6341 C 67.49658 665.6408 67.685045 665.6441 67.87352 665.6441 L 99.34084 665.6441 C 99.50746 665.6441 99.67407 665.6415 99.8406 665.6363 L 124.87539 664.854 C 125.08563 664.8474 125.29573 664.8367 125.50555 664.8218 L 147.5533 663.2609 C 147.71161 663.2497 147.86975 663.23616 148.02766 663.22024 L 173.28815 660.6746 C 173.48989 660.6543 173.69122 660.6301 173.89204 660.6021 L 197.68474 657.28676 C 197.88875 657.2583 198.0922 657.226 198.29496 657.1897 L 207.49079 655.5441 C 212.8179 654.59084 216.46876 649.6372 215.80234 644.26666 L 213.59475 626.4761 C 213.5921 626.4548 213.5895 626.43345 213.58695 626.4121 L 210.02312 596.7136 C 210.00157 596.53395 209.98306 596.35396 209.9676 596.1737 L 207.6054 568.6145 C 207.59565 568.5009 207.58713 568.3872 207.57983 568.2735 L 206.1932 546.6818 C 206.1916 546.6567 206.18992 546.63154 206.18818 546.6064 L 204.59603 523.5201 C 204.59253 523.46944 204.58928 523.4188 204.58627 523.3681 L 203.4099 503.5659 C 203.39716 503.3514 203.38874 503.13665 203.38465 502.9218 L 202.99236 482.32696 C 202.9913 482.2717 202.98997 482.2165 202.98835 482.1613 L 202.39322 461.92694 C 202.3916 461.8717 202.39026 461.8165 202.3892 461.76126 L 201.99855 441.2517 C 201.99337 440.98 201.99512 440.70824 202.0038 440.43664 L 202.58973 422.077 C 202.59044 422.0551 202.59118 422.03314 202.59197 422.0112 L 203.38005 400.1419 C 203.3872 399.9434 203.39806 399.74503 203.4126 399.54693 L 204.97007 378.3263 C 204.98388 378.1382 204.99436 377.94984 205.0015 377.76135 L 205.75596 357.8625 C 205.77915 357.25074 205.83744 356.64083 205.93052 356.03576 L 208.66953 338.23224 C 208.7503 337.70714 208.8572 337.1864 208.9898 336.67193 L 213.61806 318.7143 C 213.73316 318.2677 213.8675 317.82632 214.02073 317.39135 L 219.74152 301.1517 C 219.9076 300.68024 220.0957 300.2168 220.30517 299.76293 L 225.83673 287.7779 C 225.93942 287.5554 226.0472 287.3353 226.16 287.11775 L 231.52223 276.77633 C 231.56793 276.68818 231.61446 276.60047 231.6618 276.5132 L 236.87777 266.89623 C 237.61505 265.53687 238.56468 264.30397 239.6908 263.2441 L 239.6908 263.2441 C 240.36598 262.60864 240.39817 261.54613 239.7627 260.87094 C 239.6382 260.73867 239.49307 260.62747 239.33295 260.5417 L 236.1188 258.81984 C 235.90016 258.7027 235.6788 258.59066 235.45494 258.48382 L 227.60097 254.73533 C 227.19436 254.54127 226.77974 254.36447 226.3582 254.2054 L 216.68338 250.55452 C 216.48833 250.48092 216.29187 250.41114 216.0941 250.3452 L 203.39963 246.11372 C 203.2604 246.06732 203.12055 246.02283 202.9801 245.98027 L 190.09658 242.07617 C 190.02605 242.0548 189.95567 242.03293 189.88544 242.0106 L 177.38144 238.03205 C 176.98782 237.9068 176.5992 237.76636 176.21643 237.61104 L 164.24049 232.75123 C 163.40883 232.41375 162.60704 232.00688 161.8436 231.53494 L 152.22436 225.5885 C 152.06865 225.49224 151.91461 225.39333 151.7623 225.2918 L 146.8722 222.03172 C 145.89081 221.37746 145.0195 220.57156 144.29078 219.6441 L 144.29078 219.6441 C 144.18518 219.5097 143.99062 219.48636 143.85621 219.59196 C 143.75347 219.67268 143.7125 219.80923 143.75381 219.9332 L 143.89078 220.3441 C 144.35003 221.72186 144.4546 223.19314 144.1948 224.622 L 143.79967 226.79526 C 143.52845 228.28692 143.0466 229.73246 142.36858 231.0885 L 140.83626 234.15315 C 140.53956 234.74655 140.20624 235.32092 139.83823 235.87293 L 136.63453 240.6785 C 136.20593 241.3214 135.73132 241.9324 135.21443 242.50672 L 130.65238 247.57566 C 130.61132 247.6213 130.56999 247.6667 130.5284 247.71184 L 124.53417 254.21987 C 123.90643 254.9014 123.22068 255.52713 122.48465 256.08998 L 117.46047 259.932 C 117.01432 260.27317 116.55052 260.5906 116.07099 260.883 L 109.58458 264.83813 C 108.92292 265.24158 108.23283 265.59643 107.51975 265.89987 L 100.40434 268.9277 C 99.59667 269.2714 98.76209 269.54803 97.90905 269.75483 L 93.83 270.7437 C 93.00516 270.94365 92.16573 271.07767 91.31963 271.14446 L 85.61943 271.59448 C 85.20049 271.62755 84.78042 271.6441 84.36019 271.6441 L 77.32787 271.6441 C 76.57077 271.6441 75.81462 271.59037 75.06513 271.4833 L 67.11868 270.3481 C 66.63367 270.2788 66.1521 270.18728 65.67549 270.0738 L 59.714264 268.65446 C 58.56878 268.38173 57.4569 267.98337 56.39883 267.46664 L 50.118824 264.39966 C 49.633774 264.16278 49.16102 263.9015 48.702383 263.61683 L 44.49052 261.00257 C 43.89135 260.63067 43.317424 260.21956 42.772495 259.77194 L 38.32639 256.1198 C 38.102693 255.93603 37.884024 255.74625 37.670626 255.55063 L 33.868283 252.06515 C 33.41699 251.65146 32.98981 251.21222 32.58885 250.74957 L 28.470106 245.99717 C 28.150724 245.62866 27.848357 245.24573 27.56395 244.8496 L 23.134297 238.67972 C 22.639405 237.9904 22.200134 237.2628 21.820642 236.50383 L 19.244178 231.3509 C 19.208582 231.2797 19.173517 231.20825 19.138986 231.13653 L 17.890782 228.5441 C 17.040068 226.77724 16.684547 224.8127 16.862088 222.85975 L 17.042293 220.8775 C 17.066098 220.61563 16.873116 220.38405 16.611253 220.36025 C 16.448858 220.34548 16.290205 220.41486 16.190782 220.5441 L 16.190782 220.5441 C 15.527336 221.4066 14.747228 222.17267 13.87285 222.82035 L 9.976317 225.70667 C 9.852634 225.7983 9.727635 225.88812 9.601359 225.97613 L 4.9791086 229.1977 C 3.7923725 230.02482 2.4989518 230.68718 1.134202 231.1667 L -3.472924 232.7854 C -3.963495 232.95777 -4.445372 233.15395 -4.91684 233.37323 L -11.763621 236.55778 C -12.459783 236.88158 -13.178348 237.15485 -13.913747 237.37547 L -24.784136 240.63658 C -24.800857 240.6416 -24.81757 240.64664 -24.834276 240.65171 L -35.802363 243.9813 C -35.94026 244.02317 -36.077586 244.0669 -36.2143 244.11247 L -49.135536 248.41955 C -49.18466 248.43592 -49.23386 248.45206 -49.283136 248.46795 L -60.65054 252.13486 C -61.28903 252.34082 -61.91393 252.58674 -62.52154 252.87115 L -70.453505 256.584 C -70.823845 256.75734 -71.1874 256.94482 -71.54338 257.14603 L -77.48949 260.50687 C -78.74253 261.2151 -79.18417 262.80503 -78.47594 264.05807 C -78.39882 264.1945 -78.30955 264.3237 -78.20922 264.4441 L -77.34511 265.48104 C -76.59016 266.38698 -75.93769 267.3736 -75.39957 268.42293 L -72.32243 274.42334 C -72.24696 274.5705 -72.16921 274.7165 -72.08922 274.86126 L -68.13446 282.01748 C -68.05097 282.16855 -67.96993 282.32097 -67.89137 282.47468 L -63.78307 290.51266 C -63.534 290.99997 -63.3101 291.49974 -63.11224 292.01 L -59.629474 300.99187 C -59.61597 301.0267 -59.602345 301.06147 -59.5886 301.0962 L -55.992276 310.18165 C -55.87027 310.48988 -55.75787 310.80183 -55.65524 311.11705 L -53.033404 319.16982 C -53.01728 319.21935 -53.0014 319.26895 -52.98576 319.31863 L -49.91371 329.0769 C -49.71092 329.72106 -49.549114 330.3774 -49.429267 331.04202 L -47.443955 342.0515 C -47.4208 342.1799 -47.399213 342.3086 -47.379205 342.43753 L -45.673335 353.4309 C -45.6306 353.70633 -45.595065 353.9828 -45.56677 354.2601 L -44.67935 362.9568 C -44.63262 363.4148 -44.605673 363.8746 -44.59859 364.3349 L -44.41435 376.3105 C -44.41093 376.5329 -44.40287 376.75516 -44.390185 376.9772 L -43.61981 390.45876 C -43.61275 390.5823 -43.604255 390.7058 -43.59433 390.82917 L -42.26076 407.40354 C -42.22641 407.8304 -42.20922 408.2585 -42.20922 408.68675 L -42.20922 421.13653 C -42.20922 421.34157 -42.205277 421.5466 -42.197397 421.75146 L -41.617046 436.8406 C -41.61183 436.97627 -41.608337 437.112 -41.606574 437.24776 L -41.414415 452.044 C -41.41095 452.3107 -41.414157 452.57744 -41.42403 452.84397 L -41.998256 468.3481 C -42.005564 468.54543 -42.00922 468.74286 -42.00922 468.9403 L -42.00922 482.53653 C -42.00922 482.74157 -42.01316 482.9466 -42.02104 483.15146 L -42.60623 498.36647 C -42.608223 498.4182 -42.610465 498.47 -42.61296 498.5217 L -43.40828 515.02466 C -43.408906 515.0376 -43.409547 515.0506 -43.410203 515.06356 L -44.204693 530.7547 C -44.20771 530.8143 -44.21106 530.8739 -44.214744 530.93344 L -45.403655 550.1542 C -45.407364 550.21413 -45.41141 550.2741 -45.415794 550.334 L -47.19893 574.7035 C -47.20579 574.79725 -47.21347 574.8909 -47.22198 574.9845 L -49.00787 594.6293 C -49.00877 594.6392 -49.009676 594.64905 -49.01059 594.6589 L -50.781357 613.7438 C -50.79993 613.944 -50.822274 614.1438 -50.848377 614.34314 L -52.80909 629.31586 C -52.9419 630.33005 -53.21104 631.3217 -53.60922 632.26384 L -53.60922 632.26384 C -54.006794 633.2046 -54.25546 634.2015 -54.346286 635.2188 L -55.10922 643.76384 C -55.616975 649.4509 -51.65851 654.5692 -46.026545 655.5079 Z" fill="#ff0048"/>
        <path d="M -46.026545 655.5079 L -32.284304 657.7983 C -32.100928 657.8288 -31.917032 657.8562 -31.7327 657.88035 L -3.37906 661.59565 C -3.132532 661.62796 -2.8852846 661.6545 -2.637519 661.6753 L 27.60537 664.2118 C 27.862274 664.2333 28.119662 664.2487 28.377307 664.2578 L 67.30822 665.6341 C 67.49658 665.6408 67.685045 665.6441 67.87352 665.6441 L 99.34084 665.6441 C 99.50746 665.6441 99.67407 665.6415 99.8406 665.6363 L 124.87539 664.854 C 125.08563 664.8474 125.29573 664.8367 125.50555 664.8218 L 147.5533 663.2609 C 147.71161 663.2497 147.86975 663.23616 148.02766 663.22024 L 173.28815 660.6746 C 173.48989 660.6543 173.69122 660.6301 173.89204 660.6021 L 197.68474 657.28676 C 197.88875 657.2583 198.0922 657.226 198.29496 657.1897 L 207.49079 655.5441 C 212.8179 654.59084 216.46876 649.6372 215.80234 644.26666 L 213.59475 626.4761 C 213.5921 626.4548 213.5895 626.43345 213.58695 626.4121 L 210.02312 596.7136 C 210.00157 596.53395 209.98306 596.35396 209.9676 596.1737 L 207.6054 568.6145 C 207.59565 568.5009 207.58713 568.3872 207.57983 568.2735 L 206.1932 546.6818 C 206.1916 546.6567 206.18992 546.63154 206.18818 546.6064 L 204.59603 523.5201 C 204.59253 523.46944 204.58928 523.4188 204.58627 523.3681 L 203.4099 503.5659 C 203.39716 503.3514 203.38874 503.13665 203.38465 502.9218 L 202.99236 482.32696 C 202.9913 482.2717 202.98997 482.2165 202.98835 482.1613 L 202.39322 461.92694 C 202.3916 461.8717 202.39026 461.8165 202.3892 461.76126 L 201.99855 441.2517 C 201.99337 440.98 201.99512 440.70824 202.0038 440.43664 L 202.58973 422.077 C 202.59044 422.0551 202.59118 422.03314 202.59197 422.0112 L 203.38005 400.1419 C 203.3872 399.9434 203.39806 399.74503 203.4126 399.54693 L 204.97007 378.3263 C 204.98388 378.1382 204.99436 377.94984 205.0015 377.76135 L 205.75596 357.8625 C 205.77915 357.25074 205.83744 356.64083 205.93052 356.03576 L 208.66953 338.23224 C 208.7503 337.70714 208.8572 337.1864 208.9898 336.67193 L 213.61806 318.7143 C 213.73316 318.2677 213.8675 317.82632 214.02073 317.39135 L 219.74152 301.1517 C 219.9076 300.68024 220.0957 300.2168 220.30517 299.76293 L 225.83673 287.7779 C 225.93942 287.5554 226.0472 287.3353 226.16 287.11775 L 231.52223 276.77633 C 231.56793 276.68818 231.61446 276.60047 231.6618 276.5132 L 236.87777 266.89623 C 237.61505 265.53687 238.56468 264.30397 239.6908 263.2441 L 239.6908 263.2441 C 240.36598 262.60864 240.39817 261.54613 239.7627 260.87094 C 239.6382 260.73867 239.49307 260.62747 239.33295 260.5417 L 236.1188 258.81984 C 235.90016 258.7027 235.6788 258.59066 235.45494 258.48382 L 227.60097 254.73533 C 227.19436 254.54127 226.77974 254.36447 226.3582 254.2054 L 216.68338 250.55452 C 216.48833 250.48092 216.29187 250.41114 216.0941 250.3452 L 203.39963 246.11372 C 203.2604 246.06732 203.12055 246.02283 202.9801 245.98027 L 190.09658 242.07617 C 190.02605 242.0548 189.95567 242.03293 189.88544 242.0106 L 177.38144 238.03205 C 176.98782 237.9068 176.5992 237.76636 176.21643 237.61104 L 164.24049 232.75123 C 163.40883 232.41375 162.60704 232.00688 161.8436 231.53494 L 152.22436 225.5885 C 152.06865 225.49224 151.91461 225.39333 151.7623 225.2918 L 146.8722 222.03172 C 145.89081 221.37746 145.0195 220.57156 144.29078 219.6441 L 144.29078 219.6441 C 144.18518 219.5097 143.99062 219.48636 143.85621 219.59196 C 143.75347 219.67268 143.7125 219.80923 143.75381 219.9332 L 143.89078 220.3441 C 144.35003 221.72186 144.4546 223.19314 144.1948 224.622 L 143.79967 226.79526 C 143.52845 228.28692 143.0466 229.73246 142.36858 231.0885 L 140.83626 234.15315 C 140.53956 234.74655 140.20624 235.32092 139.83823 235.87293 L 136.63453 240.6785 C 136.20593 241.3214 135.73132 241.9324 135.21443 242.50672 L 130.65238 247.57566 C 130.61132 247.6213 130.56999 247.6667 130.5284 247.71184 L 124.53417 254.21987 C 123.90643 254.9014 123.22068 255.52713 122.48465 256.08998 L 117.46047 259.932 C 117.01432 260.27317 116.55052 260.5906 116.07099 260.883 L 109.58458 264.83813 C 108.92292 265.24158 108.23283 265.59643 107.51975 265.89987 L 100.40434 268.9277 C 99.59667 269.2714 98.76209 269.54803 97.90905 269.75483 L 93.83 270.7437 C 93.00516 270.94365 92.16573 271.07767 91.31963 271.14446 L 85.61943 271.59448 C 85.20049 271.62755 84.78042 271.6441 84.36019 271.6441 L 77.32787 271.6441 C 76.57077 271.6441 75.81462 271.59037 75.06513 271.4833 L 67.11868 270.3481 C 66.63367 270.2788 66.1521 270.18728 65.67549 270.0738 L 59.714264 268.65446 C 58.56878 268.38173 57.4569 267.98337 56.39883 267.46664 L 50.118824 264.39966 C 49.633774 264.16278 49.16102 263.9015 48.702383 263.61683 L 44.49052 261.00257 C 43.89135 260.63067 43.317424 260.21956 42.772495 259.77194 L 38.32639 256.1198 C 38.102693 255.93603 37.884024 255.74625 37.670626 255.55063 L 33.868283 252.06515 C 33.41699 251.65146 32.98981 251.21222 32.58885 250.74957 L 28.470106 245.99717 C 28.150724 245.62866 27.848357 245.24573 27.56395 244.8496 L 23.134297 238.67972 C 22.639405 237.9904 22.200134 237.2628 21.820642 236.50383 L 19.244178 231.3509 C 19.208582 231.2797 19.173517 231.20825 19.138986 231.13653 L 17.890782 228.5441 C 17.040068 226.77724 16.684547 224.8127 16.862088 222.85975 L 17.042293 220.8775 C 17.066098 220.61563 16.873116 220.38405 16.611253 220.36025 C 16.448858 220.34548 16.290205 220.41486 16.190782 220.5441 L 16.190782 220.5441 C 15.527336 221.4066 14.747228 222.17267 13.87285 222.82035 L 9.976317 225.70667 C 9.852634 225.7983 9.727635 225.88812 9.601359 225.97613 L 4.9791086 229.1977 C 3.7923725 230.02482 2.4989518 230.68718 1.134202 231.1667 L -3.472924 232.7854 C -3.963495 232.95777 -4.445372 233.15395 -4.91684 233.37323 L -11.763621 236.55778 C -12.459783 236.88158 -13.178348 237.15485 -13.913747 237.37547 L -24.784136 240.63658 C -24.800857 240.6416 -24.81757 240.64664 -24.834276 240.65171 L -35.802363 243.9813 C -35.94026 244.02317 -36.077586 244.0669 -36.2143 244.11247 L -49.135536 248.41955 C -49.18466 248.43592 -49.23386 248.45206 -49.283136 248.46795 L -60.65054 252.13486 C -61.28903 252.34082 -61.91393 252.58674 -62.52154 252.87115 L -70.453505 256.584 C -70.823845 256.75734 -71.1874 256.94482 -71.54338 257.14603 L -77.48949 260.50687 C -78.74253 261.2151 -79.18417 262.80503 -78.47594 264.05807 C -78.39882 264.1945 -78.30955 264.3237 -78.20922 264.4441 L -77.34511 265.48104 C -76.59016 266.38698 -75.93769 267.3736 -75.39957 268.42293 L -72.32243 274.42334 C -72.24696 274.5705 -72.16921 274.7165 -72.08922 274.86126 L -68.13446 282.01748 C -68.05097 282.16855 -67.96993 282.32097 -67.89137 282.47468 L -63.78307 290.51266 C -63.534 290.99997 -63.3101 291.49974 -63.11224 292.01 L -59.629474 300.99187 C -59.61597 301.0267 -59.602345 301.06147 -59.5886 301.0962 L -55.992276 310.18165 C -55.87027 310.48988 -55.75787 310.80183 -55.65524 311.11705 L -53.033404 319.16982 C -53.01728 319.21935 -53.0014 319.26895 -52.98576 319.31863 L -49.91371 329.0769 C -49.71092 329.72106 -49.549114 330.3774 -49.429267 331.04202 L -47.443955 342.0515 C -47.4208 342.1799 -47.399213 342.3086 -47.379205 342.43753 L -45.673335 353.4309 C -45.6306 353.70633 -45.595065 353.9828 -45.56677 354.2601 L -44.67935 362.9568 C -44.63262 363.4148 -44.605673 363.8746 -44.59859 364.3349 L -44.41435 376.3105 C -44.41093 376.5329 -44.40287 376.75516 -44.390185 376.9772 L -43.61981 390.45876 C -43.61275 390.5823 -43.604255 390.7058 -43.59433 390.82917 L -42.26076 407.40354 C -42.22641 407.8304 -42.20922 408.2585 -42.20922 408.68675 L -42.20922 421.13653 C -42.20922 421.34157 -42.205277 421.5466 -42.197397 421.75146 L -41.617046 436.8406 C -41.61183 436.97627 -41.608337 437.112 -41.606574 437.24776 L -41.414415 452.044 C -41.41095 452.3107 -41.414157 452.57744 -41.42403 452.84397 L -41.998256 468.3481 C -42.005564 468.54543 -42.00922 468.74286 -42.00922 468.9403 L -42.00922 482.53653 C -42.00922 482.74157 -42.01316 482.9466 -42.02104 483.15146 L -42.60623 498.36647 C -42.608223 498.4182 -42.610465 498.47 -42.61296 498.5217 L -43.40828 515.02466 C -43.408906 515.0376 -43.409547 515.0506 -43.410203 515.06356 L -44.204693 530.7547 C -44.20771 530.8143 -44.21106 530.8739 -44.214744 530.93344 L -45.403655 550.1542 C -45.407364 550.21413 -45.41141 550.2741 -45.415794 550.334 L -47.19893 574.7035 C -47.20579 574.79725 -47.21347 574.8909 -47.22198 574.9845 L -49.00787 594.6293 C -49.00877 594.6392 -49.009676 594.64905 -49.01059 594.6589 L -50.781357 613.7438 C -50.79993 613.944 -50.822274 614.1438 -50.848377 614.34314 L -52.80909 629.31586 C -52.9419 630.33005 -53.21104 631.3217 -53.60922 632.26384 L -53.60922 632.26384 C -54.006794 633.2046 -54.25546 634.2015 -54.346286 635.2188 L -55.10922 643.76384 C -55.616975 649.4509 -51.65851 654.5692 -46.026545 655.5079 Z" stroke="#7f8080" stroke-linecap="round" stroke-linejoin="round" stroke-width="1"/>
      </g>
      <g id="Graphic_8">
        <path d="M -135 369.69025 L -128.8 374.09025 L -120.6 378.09025 L -112 381.69025 L -103 385.49025 L -92 389.49025 L -82.6 392.29025 L -73.6 394.89025 L -64.6 397.49025 L -59.2 398.89025 L -53.6 399.89025 L -51.2 394.09025 L -48.6 388.69025 L -46.4 384.69025 L -43.8 381.29025 L -43.6 372.29025 L -44.2 361.29025 L -46 350.49025 L -47.6 340.09025 L -50.2 329.09025 L -52.6 319.49025 L -55.4 311.49025 L -58.6 302.09025 L -61.4 294.69025 L -65 287.09025 L -69 279.49025 L -73 272.09025 L -75.6 268.49025 L -79.2 262.69025 L -84.6 267.09025 L -89.4 271.89025 L -94 278.09025 L -98.4 284.29025 L -103.2 292.89025 L -108 302.29025 L -112.8 311.49025 L -116.4 320.09025 L -120.4 329.09025 L -123.6 337.29025 L -127.4 346.69025 L -130.2 354.69025 L -133.2 363.09025 Z" fill="#ff0048"/>
        <path d="M -135 369.69025 L -128.8 374.09025 L -120.6 378.09025 L -112 381.69025 L -103 385.49025 L -92 389.49025 L -82.6 392.29025 L -73.6 394.89025 L -64.6 397.49025 L -59.2 398.89025 L -53.6 399.89025 L -51.2 394.09025 L -48.6 388.69025 L -46.4 384.69025 L -43.8 381.29025 L -43.6 372.29025 L -44.2 361.29025 L -46 350.49025 L -47.6 340.09025 L -50.2 329.09025 L -52.6 319.49025 L -55.4 311.49025 L -58.6 302.09025 L -61.4 294.69025 L -65 287.09025 L -69 279.49025 L -73 272.09025 L -75.6 268.49025 L -79.2 262.69025 L -84.6 267.09025 L -89.4 271.89025 L -94 278.09025 L -98.4 284.29025 L -103.2 292.89025 L -108 302.29025 L -112.8 311.49025 L -116.4 320.09025 L -120.4 329.09025 L -123.6 337.29025 L -127.4 346.69025 L -130.2 354.69025 L -133.2 363.09025 Z" stroke="#7f8080" stroke-linecap="round" stroke-linejoin="round" stroke-width="1"/>
      </g>
      <g id="Graphic_7">
        <path d="M 296.4053 368.74686 L 290.2053 373.14686 L 282.0053 377.14686 L 273.4053 380.74686 L 264.4053 384.54686 L 253.4053 388.54686 L 244.0053 391.34686 L 235.0053 393.94686 L 226.0053 396.54686 L 220.6053 397.94686 L 215.0053 398.94686 L 212.6053 393.14686 L 210.0053 387.74686 L 207.8053 383.74686 L 205.2053 380.34686 L 205.0053 371.34686 L 205.6053 360.34686 L 207.4053 349.54686 L 209.0053 339.14686 L 211.6053 328.14686 L 214.0053 318.54686 L 216.8053 310.54686 L 220.0053 301.14686 L 222.8053 293.74686 L 226.4053 286.14686 L 230.4053 278.54686 L 234.4053 271.14686 L 237.0053 267.54686 L 240.6053 261.74686 L 246.0053 266.14686 L 250.8053 270.94686 L 255.4053 277.14686 L 259.8053 283.34686 L 264.6053 291.94686 L 269.4053 301.34686 L 274.2053 310.54686 L 277.8053 319.14686 L 281.8053 328.14686 L 285.0053 336.34686 L 288.8053 345.74686 L 291.6053 353.74686 L 294.6053 362.14686 Z" fill="#ff0048"/>
        <path d="M 296.4053 368.74686 L 290.2053 373.14686 L 282.0053 377.14686 L 273.4053 380.74686 L 264.4053 384.54686 L 253.4053 388.54686 L 244.0053 391.34686 L 235.0053 393.94686 L 226.0053 396.54686 L 220.6053 397.94686 L 215.0053 398.94686 L 212.6053 393.14686 L 210.0053 387.74686 L 207.8053 383.74686 L 205.2053 380.34686 L 205.0053 371.34686 L 205.6053 360.34686 L 207.4053 349.54686 L 209.0053 339.14686 L 211.6053 328.14686 L 214.0053 318.54686 L 216.8053 310.54686 L 220.0053 301.14686 L 222.8053 293.74686 L 226.4053 286.14686 L 230.4053 278.54686 L 234.4053 271.14686 L 237.0053 267.54686 L 240.6053 261.74686 L 246.0053 266.14686 L 250.8053 270.94686 L 255.4053 277.14686 L 259.8053 283.34686 L 264.6053 291.94686 L 269.4053 301.34686 L 274.2053 310.54686 L 277.8053 319.14686 L 281.8053 328.14686 L 285.0053 336.34686 L 288.8053 345.74686 L 291.6053 353.74686 L 294.6053 362.14686 Z" stroke="#7f8080" stroke-linecap="round" stroke-linejoin="round" stroke-width="2"/>
      </g>
      <g id="Graphic_6">
        <path d="M -135 369.69025 L -128.8 374.09025 L -120.6 378.09025 L -112 381.69025 L -103 385.49025 L -92 389.49025 L -82.6 392.29025 L -73.6 394.89025 L -64.6 397.49025 L -59.2 398.89025 L -53.6 399.89025 L -50.6 393.49025 L -54.4 392.69025 L -59.2 391.49025 L -64.8 390.29025 L -70.8 388.49025 L -75.4 387.09025 L -79.6 385.89025 L -84.2 383.89025 L -88.8 382.29025 L -93.6 380.29025 L -97.6 378.89025 L -102.8 376.69025 L -107.4 375.09025 L -112.2 372.89025 L -117 371.09025 L -121 369.09025 L -125.4 366.89025 L -129.8 364.69025 L -133.2 363.09025 Z" fill="#ff0048"/>
        <path d="M -135 369.69025 L -128.8 374.09025 L -120.6 378.09025 L -112 381.69025 L -103 385.49025 L -92 389.49025 L -82.6 392.29025 L -73.6 394.89025 L -64.6 397.49025 L -59.2 398.89025 L -53.6 399.89025 L -50.6 393.49025 L -54.4 392.69025 L -59.2 391.49025 L -64.8 390.29025 L -70.8 388.49025 L -75.4 387.09025 L -79.6 385.89025 L -84.2 383.89025 L -88.8 382.29025 L -93.6 380.29025 L -97.6 378.89025 L -102.8 376.69025 L -107.4 375.09025 L -112.2 372.89025 L -117 371.09025 L -121 369.09025 L -125.4 366.89025 L -129.8 364.69025 L -133.2 363.09025 Z" stroke="#7f8080" stroke-linecap="round" stroke-linejoin="round" stroke-width="1"/>
      </g>
      <g id="Graphic_5">
        <path d="M 296.4053 368.74686 L 290.2053 373.14686 L 282.0053 377.14686 L 273.4053 380.74686 L 264.4053 384.54686 L 253.4053 388.54686 L 244.0053 391.34686 L 235.0053 393.94686 L 226.0053 396.54686 L 220.6053 397.94686 L 215.0053 398.94686 L 212.0053 392.54686 L 215.8053 391.74686 L 220.6053 390.54686 L 226.2053 389.34686 L 232.2053 387.54686 L 236.8053 386.14686 L 241.0053 384.94686 L 245.6053 382.94686 L 250.2053 381.34686 L 255.0053 379.34686 L 259.0053 377.94686 L 264.2053 375.74686 L 268.8053 374.14686 L 273.6053 371.94686 L 278.4053 370.14686 L 282.4053 368.14686 L 286.8053 365.94686 L 291.2053 363.74686 L 294.6053 362.14686 Z" fill="#ff0048"/>
        <path d="M 296.4053 368.74686 L 290.2053 373.14686 L 282.0053 377.14686 L 273.4053 380.74686 L 264.4053 384.54686 L 253.4053 388.54686 L 244.0053 391.34686 L 235.0053 393.94686 L 226.0053 396.54686 L 220.6053 397.94686 L 215.0053 398.94686 L 212.0053 392.54686 L 215.8053 391.74686 L 220.6053 390.54686 L 226.2053 389.34686 L 232.2053 387.54686 L 236.8053 386.14686 L 241.0053 384.94686 L 245.6053 382.94686 L 250.2053 381.34686 L 255.0053 379.34686 L 259.0053 377.94686 L 264.2053 375.74686 L 268.8053 374.14686 L 273.6053 371.94686 L 278.4053 370.14686 L 282.4053 368.14686 L 286.8053 365.94686 L 291.2053 363.74686 L 294.6053 362.14686 Z" stroke="#7f8080" stroke-linecap="round" stroke-linejoin="round" stroke-width="1"/>
      </g>
      <g id="Graphic_4">
        <path d="M 15.57212 220.2079 L 10.84295 224.26147 C 9.692603 225.24748 8.447643 226.11742 7.126213 226.8586 L 4.599578 228.27576 C 3.164406 229.08073 2.583603 230.84986 3.262389 232.34884 L 4.2800056 234.59608 C 4.4015846 234.86456 4.528313 235.1307 4.660121 235.3943 L 8.949377 243.97282 C 9.291174 244.6564 9.666832 245.32254 10.074952 245.96873 L 12.401344 249.6522 C 12.84172 250.34945 13.31928 251.02253 13.831953 251.6685 L 17.242638 255.96595 C 17.788692 256.65398 18.373712 257.31016 18.994822 257.93127 L 23.660865 262.59732 C 24.061745 262.9982 24.47731 263.38412 24.90671 263.7543 L 29.470235 267.68836 C 29.864892 268.0286 30.270997 268.3553 30.687846 268.66793 L 34.662786 271.64914 C 35.3287 272.14857 36.021233 272.6115 36.73733 273.03585 L 40.870394 275.48507 C 40.99839 275.56092 41.127117 275.63552 41.25656 275.70887 L 45.954107 278.3708 C 46.6924 278.78918 47.453276 279.16637 48.23325 279.50064 L 51.78307 281.022 C 52.36903 281.27312 52.96518 281.49977 53.569974 281.70137 L 58.58808 283.37407 C 59.835325 283.78982 61.11592 284.09786 62.415795 284.2948 L 66.51464 284.91585 C 66.879756 284.97117 67.24615 285.0177 67.6135 285.05537 L 74.494605 285.76112 C 74.73978 285.78627 74.98534 285.80747 75.2312 285.82473 L 79.75835 286.14242 C 80.29421 286.18002 80.83122 286.19884 81.3684 286.19884 L 84.63046 286.19884 C 85.58416 286.19884 86.53693 286.13953 87.48327 286.02123 L 91.47198 285.52265 C 92.13195 285.44015 92.78802 285.32907 93.43835 285.1897 L 99.52039 283.8864 C 100.41426 283.69487 101.29592 283.4502 102.16068 283.15372 L 106.66952 281.60783 C 107.46417 281.33538 108.2433 281.0196 109.0034 280.6619 L 113.83677 278.38737 C 114.38697 278.12845 114.92668 277.84782 115.45464 277.54613 L 119.2225 275.39307 C 119.9153 274.9972 120.58701 274.56552 121.23494 274.09983 L 125.91106 270.73886 C 126.41175 270.379 126.89776 269.99914 127.36792 269.60022 L 132.68877 265.08555 C 133.07108 264.76117 133.44269 264.42437 133.80298 264.0757 L 138.5022 259.52806 C 139.14179 258.9091 139.74491 258.25354 140.30852 257.56468 L 144.1018 252.92845 C 144.60852 252.30913 145.08257 251.6638 145.52201 250.99507 L 149.1392 245.49067 C 149.35462 245.16284 149.56163 244.82955 149.76002 244.49113 L 152.28311 240.18703 C 152.66906 239.52865 153.022 238.85146 153.34062 238.158 L 155.45932 233.54672 C 155.99218 232.38696 156.36334 231.15954 156.5624 229.89884 L 156.5624 229.89884 C 156.7407 228.76958 156.1614 227.65613 155.13432 227.154 L 149.84088 224.5661 C 148.52642 223.92348 147.29183 223.12897 146.1624 222.19884 L 145.75638 221.86448 C 144.91205 221.16915 144.28864 220.24285 143.9624 219.19884 L 143.9624 219.19884 C 143.91573 219.04953 143.75686 218.9663 143.60754 219.01297 C 143.49247 219.04893 143.41277 219.1538 143.40892 219.2743 L 143.29968 222.69722 C 143.20894 225.5403 142.5916 228.34187 141.479 230.95977 L 140.60206 233.02315 C 140.0435 234.33742 139.36374 235.59682 138.5716 236.78502 L 134.88582 242.3137 C 134.13831 243.43496 133.2937 244.48836 132.36175 245.46173 L 126.06668 252.03658 C 125.19861 252.94323 124.25777 253.7773 123.2536 254.53043 L 114.8787 260.8116 C 114.00228 261.46893 113.08002 262.06278 112.11896 262.58864 L 104.93376 266.52017 C 103.62263 267.23758 102.2447 267.82548 100.81952 268.27554 L 94.14661 270.38277 C 92.42973 270.92494 90.65514 271.26365 88.85927 271.39192 L 81.972815 271.8838 C 80.90052 271.9604 79.82417 271.96172 78.751685 271.88776 L 70.31543 271.30595 C 69.28125 271.23463 68.25308 271.09347 67.23795 270.88344 L 60.10274 269.4072 C 58.15079 269.00334 56.259614 268.34746 54.47676 267.45603 L 49.81735 265.12632 C 48.58321 264.50925 47.407106 263.78238 46.30326 262.9545 L 40.621303 258.69303 C 40.182167 258.36368 39.75496 258.0187 39.34051 257.6588 L 33.58533 252.66087 C 32.771043 251.95373 32.007503 251.1902 31.30036 250.3759 L 26.895135 245.30322 C 26.141032 244.43486 25.453124 243.51116 24.8372 242.5399 L 21.103497 236.65213 C 20.74293 236.08355 20.407505 235.4994 20.098188 234.9014 L 18.477815 231.76867 C 17.86867 230.591 17.362502 229.36284 16.964965 228.09795 L 15.684726 224.02446 C 15.46995 223.3411 15.287218 222.64805 15.137126 221.94762 L 14.911709 220.89568 C 14.826635 220.49867 15.052993 220.10101 15.437797 219.97147 L 15.437797 219.97147 C 15.510292 219.94707 15.588844 219.98606 15.613249 220.05855 C 15.631263 220.11206 15.61499 220.17115 15.57212 220.2079 Z" fill="#ff0048"/>
        <path d="M 15.57212 220.2079 L 10.84295 224.26147 C 9.692603 225.24748 8.447643 226.11742 7.126213 226.8586 L 4.599578 228.27576 C 3.164406 229.08073 2.583603 230.84986 3.262389 232.34884 L 4.2800056 234.59608 C 4.4015846 234.86456 4.528313 235.1307 4.660121 235.3943 L 8.949377 243.97282 C 9.291174 244.6564 9.666832 245.32254 10.074952 245.96873 L 12.401344 249.6522 C 12.84172 250.34945 13.31928 251.02253 13.831953 251.6685 L 17.242638 255.96595 C 17.788692 256.65398 18.373712 257.31016 18.994822 257.93127 L 23.660865 262.59732 C 24.061745 262.9982 24.47731 263.38412 24.90671 263.7543 L 29.470235 267.68836 C 29.864892 268.0286 30.270997 268.3553 30.687846 268.66793 L 34.662786 271.64914 C 35.3287 272.14857 36.021233 272.6115 36.73733 273.03585 L 40.870394 275.48507 C 40.99839 275.56092 41.127117 275.63552 41.25656 275.70887 L 45.954107 278.3708 C 46.6924 278.78918 47.453276 279.16637 48.23325 279.50064 L 51.78307 281.022 C 52.36903 281.27312 52.96518 281.49977 53.569974 281.70137 L 58.58808 283.37407 C 59.835325 283.78982 61.11592 284.09786 62.415795 284.2948 L 66.51464 284.91585 C 66.879756 284.97117 67.24615 285.0177 67.6135 285.05537 L 74.494605 285.76112 C 74.73978 285.78627 74.98534 285.80747 75.2312 285.82473 L 79.75835 286.14242 C 80.29421 286.18002 80.83122 286.19884 81.3684 286.19884 L 84.63046 286.19884 C 85.58416 286.19884 86.53693 286.13953 87.48327 286.02123 L 91.47198 285.52265 C 92.13195 285.44015 92.78802 285.32907 93.43835 285.1897 L 99.52039 283.8864 C 100.41426 283.69487 101.29592 283.4502 102.16068 283.15372 L 106.66952 281.60783 C 107.46417 281.33538 108.2433 281.0196 109.0034 280.6619 L 113.83677 278.38737 C 114.38697 278.12845 114.92668 277.84782 115.45464 277.54613 L 119.2225 275.39307 C 119.9153 274.9972 120.58701 274.56552 121.23494 274.09983 L 125.91106 270.73886 C 126.41175 270.379 126.89776 269.99914 127.36792 269.60022 L 132.68877 265.08555 C 133.07108 264.76117 133.44269 264.42437 133.80298 264.0757 L 138.5022 259.52806 C 139.14179 258.9091 139.74491 258.25354 140.30852 257.56468 L 144.1018 252.92845 C 144.60852 252.30913 145.08257 251.6638 145.52201 250.99507 L 149.1392 245.49067 C 149.35462 245.16284 149.56163 244.82955 149.76002 244.49113 L 152.28311 240.18703 C 152.66906 239.52865 153.022 238.85146 153.34062 238.158 L 155.45932 233.54672 C 155.99218 232.38696 156.36334 231.15954 156.5624 229.89884 L 156.5624 229.89884 C 156.7407 228.76958 156.1614 227.65613 155.13432 227.154 L 149.84088 224.5661 C 148.52642 223.92348 147.29183 223.12897 146.1624 222.19884 L 145.75638 221.86448 C 144.91205 221.16915 144.28864 220.24285 143.9624 219.19884 L 143.9624 219.19884 C 143.91573 219.04953 143.75686 218.9663 143.60754 219.01297 C 143.49247 219.04893 143.41277 219.1538 143.40892 219.2743 L 143.29968 222.69722 C 143.20894 225.5403 142.5916 228.34187 141.479 230.95977 L 140.60206 233.02315 C 140.0435 234.33742 139.36374 235.59682 138.5716 236.78502 L 134.88582 242.3137 C 134.13831 243.43496 133.2937 244.48836 132.36175 245.46173 L 126.06668 252.03658 C 125.19861 252.94323 124.25777 253.7773 123.2536 254.53043 L 114.8787 260.8116 C 114.00228 261.46893 113.08002 262.06278 112.11896 262.58864 L 104.93376 266.52017 C 103.62263 267.23758 102.2447 267.82548 100.81952 268.27554 L 94.14661 270.38277 C 92.42973 270.92494 90.65514 271.26365 88.85927 271.39192 L 81.972815 271.8838 C 80.90052 271.9604 79.82417 271.96172 78.751685 271.88776 L 70.31543 271.30595 C 69.28125 271.23463 68.25308 271.09347 67.23795 270.88344 L 60.10274 269.4072 C 58.15079 269.00334 56.259614 268.34746 54.47676 267.45603 L 49.81735 265.12632 C 48.58321 264.50925 47.407106 263.78238 46.30326 262.9545 L 40.621303 258.69303 C 40.182167 258.36368 39.75496 258.0187 39.34051 257.6588 L 33.58533 252.66087 C 32.771043 251.95373 32.007503 251.1902 31.30036 250.3759 L 26.895135 245.30322 C 26.141032 244.43486 25.453124 243.51116 24.8372 242.5399 L 21.103497 236.65213 C 20.74293 236.08355 20.407505 235.4994 20.098188 234.9014 L 18.477815 231.76867 C 17.86867 230.591 17.362502 229.36284 16.964965 228.09795 L 15.684726 224.02446 C 15.46995 223.3411 15.287218 222.64805 15.137126 221.94762 L 14.911709 220.89568 C 14.826635 220.49867 15.052993 220.10101 15.437797 219.97147 L 15.437797 219.97147 C 15.510292 219.94707 15.588844 219.98606 15.613249 220.05855 C 15.631263 220.11206 15.61499 220.17115 15.57212 220.2079 Z" stroke="#7f8080" stroke-linecap="round" stroke-linejoin="round" stroke-width="1"/>
      </g>
      <g id="Graphic_3">
        <path d="M 15.059248 220 L 20.459248 219.4 L 27.259248 222.8 L 32.259248 224.6 L 40.65925 226.4 L 49.05925 227.4 L 57.05925 228.4 L 64.65925 228.6 L 73.25925 229 L 84.85925 228.8 L 93.25925 228.4 L 102.65925 227.8 L 111.05925 227 L 120.25925 225.6 L 128.45925 223.4 L 134.25925 221.6 L 139.85925 219 L 142.65925 220.2 L 143.05925 225.8 L 140.25925 233.8 L 134.85925 236.6 L 124.25925 239.8 L 112.85925 242.2 L 101.65925 243 L 89.25925 244 L 78.85925 244 L 69.45925 244 L 57.85925 243.4 L 46.65925 242.6 L 36.05925 240.4 L 27.459248 238.4 L 21.259248 235.6 L 19.259248 234 L 16.059248 226.4 Z" fill="#ff0048"/>
        <path d="M 15.059248 220 L 20.459248 219.4 L 27.259248 222.8 L 32.259248 224.6 L 40.65925 226.4 L 49.05925 227.4 L 57.05925 228.4 L 64.65925 228.6 L 73.25925 229 L 84.85925 228.8 L 93.25925 228.4 L 102.65925 227.8 L 111.05925 227 L 120.25925 225.6 L 128.45925 223.4 L 134.25925 221.6 L 139.85925 219 L 142.65925 220.2 L 143.05925 225.8 L 140.25925 233.8 L 134.85925 236.6 L 124.25925 239.8 L 112.85925 242.2 L 101.65925 243 L 89.25925 244 L 78.85925 244 L 69.45925 244 L 57.85925 243.4 L 46.65925 242.6 L 36.05925 240.4 L 27.459248 238.4 L 21.259248 235.6 L 19.259248 234 L 16.059248 226.4 Z" stroke="#7f8080" stroke-linecap="round" stroke-linejoin="round" stroke-width="1"/>
      </g>
      <g id="Graphic_2">
        <path d="M -55.186787 645.4441 L -55.186787 645.4441 C -55.25247 645.9696 -55.189645 646.50316 -55.0037 646.999 L -54.352694 648.735 C -54.17594 649.2064 -53.948853 649.6573 -53.67538 650.0799 L -52.707566 651.5756 C -52.16661 652.4117 -51.453506 653.12265 -50.61588 653.6611 L -49.53783 654.35416 C -49.237574 654.5472 -48.922994 654.71695 -48.596843 654.862 L -47.27999 655.4476 C -46.68346 655.7129 -46.052754 655.8934 -45.406207 655.9839 L -36.395787 657.2454 C -36.385793 657.2468 -36.375797 657.24814 -36.365797 657.2495 L -24.649799 658.8381 C -24.603798 658.84434 -24.557737 658.8501 -24.511622 658.85544 L -14.228685 660.0419 C -14.19676 660.0456 -14.164809 660.0491 -14.132835 660.0523 L -.42276924 661.4432 C -.39478727 661.44604 -.36678845 661.4487 -.3387743 661.4512 L 10.766526 662.44276 C 10.801644 662.4459 10.836786 662.4488 10.871948 662.4514 L 21.558485 663.243 C 21.598964 663.246 21.639468 663.2486 21.679993 663.2509 L 32.187976 663.8457 C 32.208795 663.8469 32.22961 663.84814 32.250416 663.8495 L 44.293193 664.6392 C 44.377194 664.6447 44.46129 664.6487 44.54543 664.6512 L 57.99256 665.0467 C 58.01032 665.0472 58.028085 665.0478 58.045846 665.04845 L 68.68971 665.4427 C 68.77603 665.4459 68.86241 665.4475 68.94879 665.4475 L 79.55781 665.4475 C 79.59874 665.4475 79.63967 665.4478 79.68059 665.4485 L 90.76702 665.643 C 90.93509 665.646 91.10321 665.6429 91.27106 665.6337 L 101.89229 665.0544 C 101.97689 665.0498 102.06157 665.0467 102.14629 665.04515 L 112.91085 664.8494 C 112.98308 664.8481 113.05529 664.8457 113.12745 664.8421 L 125.14607 664.25106 C 125.19483 664.2487 125.24355 664.24575 125.29225 664.2423 L 136.5323 663.4536 C 136.59023 663.4495 136.64812 663.4447 136.70594 663.4392 L 149.11651 662.25724 C 149.18497 662.2507 149.25352 662.2452 149.32214 662.2407 L 161.25416 661.4583 C 161.36418 661.4511 161.474 661.44126 161.58355 661.42886 L 171.9959 660.2501 C 172.01144 660.24834 172.02697 660.2465 172.0425 660.2447 L 181.9902 659.05094 C 182.00954 659.0486 182.02886 659.0462 182.04818 659.04374 L 195.88394 657.2662 C 195.98115 657.2537 196.0781 657.2392 196.1747 657.2226 L 202.72819 656.0992 C 202.92915 656.0647 203.13153 656.03906 203.33473 656.0223 L 206.56706 655.7553 C 207.4563 655.68186 208.3233 655.4391 209.12135 655.04005 L 210.60765 654.2969 C 211.20824 653.9966 211.7625 653.61146 212.25338 653.1533 L 213.5885 651.9072 C 214.19532 651.3408 214.65073 650.6316 214.91322 649.8441 L 215.20805 648.9596 C 215.27812 648.7494 215.33817 648.536 215.388 648.32005 L 215.8577 646.2847 C 215.89293 646.132 215.8595 645.9716 215.7662 645.8458 L 215.7662 645.8458 C 215.67587 645.7239 215.52523 645.6624 215.3754 645.68625 L 206.89555 647.0353 C 206.84466 647.0434 206.79385 647.0521 206.74315 647.0613 L 193.7584 649.42216 C 193.6656 649.439 193.5725 649.454 193.47911 649.4671 L 182.24943 651.0432 C 182.22928 651.04605 182.20914 651.049 182.18902 651.052 L 169.06643 653.0106 C 168.90167 653.03515 168.73608 653.05386 168.56998 653.0666 L 155.84517 654.0455 C 155.82786 654.0468 155.81055 654.0481 155.79323 654.0493 L 141.45308 655.0451 C 141.4305 655.0467 141.4079 655.0481 141.3853 655.0495 L 128.08205 655.8437 C 128.04016 655.8462 127.99824 655.8483 127.9563 655.8501 L 113.76485 656.4414 C 113.66776 656.4454 113.5706 656.4475 113.47344 656.4475 L 87.67753 656.4475 C 87.63865 656.4475 87.59976 656.4478 87.56088 656.4484 L 75.8025 656.6444 C 75.68032 656.64644 75.55812 656.6453 75.436005 656.6409 L 64.602405 656.254 C 64.48029 656.24964 64.35809 656.2485 64.23591 656.2505 L 52.521274 656.44576 C 52.45323 656.4469 52.385176 656.447 52.31713 656.4462 L 36.614845 656.2499 C 36.484443 656.2483 36.354113 656.243 36.224007 656.2341 L 21.91423 655.254 C 21.850882 655.2496 21.787597 655.2444 21.724392 655.2384 L 7.233386 653.8488 C 7.2239315 653.8479 7.214479 653.847 7.205028 653.84604 L -6.607008 652.46484 C -6.7228486 652.45326 -6.838382 652.4388 -6.953501 652.4214 L -21.262653 650.2653 C -21.34141 650.2534 -21.420363 650.2429 -21.499479 650.2337 L -35.01941 648.6662 C -35.126987 648.6537 -35.23426 648.6387 -35.34114 648.6213 L -44.73323 647.0879 C -44.89822 647.06094 -45.062195 647.0281 -45.224836 646.9894 L -54.302435 644.83065 C -54.690754 644.7383 -55.08041 644.9782 -55.17276 645.36655 C -55.17884 645.3921 -55.183525 645.418 -55.186787 645.4441 Z" fill="#ff0048"/>
        <path d="M -55.186787 645.4441 L -55.186787 645.4441 C -55.25247 645.9696 -55.189645 646.50316 -55.0037 646.999 L -54.352694 648.735 C -54.17594 649.2064 -53.948853 649.6573 -53.67538 650.0799 L -52.707566 651.5756 C -52.16661 652.4117 -51.453506 653.12265 -50.61588 653.6611 L -49.53783 654.35416 C -49.237574 654.5472 -48.922994 654.71695 -48.596843 654.862 L -47.27999 655.4476 C -46.68346 655.7129 -46.052754 655.8934 -45.406207 655.9839 L -36.395787 657.2454 C -36.385793 657.2468 -36.375797 657.24814 -36.365797 657.2495 L -24.649799 658.8381 C -24.603798 658.84434 -24.557737 658.8501 -24.511622 658.85544 L -14.228685 660.0419 C -14.19676 660.0456 -14.164809 660.0491 -14.132835 660.0523 L -.42276924 661.4432 C -.39478727 661.44604 -.36678845 661.4487 -.3387743 661.4512 L 10.766526 662.44276 C 10.801644 662.4459 10.836786 662.4488 10.871948 662.4514 L 21.558485 663.243 C 21.598964 663.246 21.639468 663.2486 21.679993 663.2509 L 32.187976 663.8457 C 32.208795 663.8469 32.22961 663.84814 32.250416 663.8495 L 44.293193 664.6392 C 44.377194 664.6447 44.46129 664.6487 44.54543 664.6512 L 57.99256 665.0467 C 58.01032 665.0472 58.028085 665.0478 58.045846 665.04845 L 68.68971 665.4427 C 68.77603 665.4459 68.86241 665.4475 68.94879 665.4475 L 79.55781 665.4475 C 79.59874 665.4475 79.63967 665.4478 79.68059 665.4485 L 90.76702 665.643 C 90.93509 665.646 91.10321 665.6429 91.27106 665.6337 L 101.89229 665.0544 C 101.97689 665.0498 102.06157 665.0467 102.14629 665.04515 L 112.91085 664.8494 C 112.98308 664.8481 113.05529 664.8457 113.12745 664.8421 L 125.14607 664.25106 C 125.19483 664.2487 125.24355 664.24575 125.29225 664.2423 L 136.5323 663.4536 C 136.59023 663.4495 136.64812 663.4447 136.70594 663.4392 L 149.11651 662.25724 C 149.18497 662.2507 149.25352 662.2452 149.32214 662.2407 L 161.25416 661.4583 C 161.36418 661.4511 161.474 661.44126 161.58355 661.42886 L 171.9959 660.2501 C 172.01144 660.24834 172.02697 660.2465 172.0425 660.2447 L 181.9902 659.05094 C 182.00954 659.0486 182.02886 659.0462 182.04818 659.04374 L 195.88394 657.2662 C 195.98115 657.2537 196.0781 657.2392 196.1747 657.2226 L 202.72819 656.0992 C 202.92915 656.0647 203.13153 656.03906 203.33473 656.0223 L 206.56706 655.7553 C 207.4563 655.68186 208.3233 655.4391 209.12135 655.04005 L 210.60765 654.2969 C 211.20824 653.9966 211.7625 653.61146 212.25338 653.1533 L 213.5885 651.9072 C 214.19532 651.3408 214.65073 650.6316 214.91322 649.8441 L 215.20805 648.9596 C 215.27812 648.7494 215.33817 648.536 215.388 648.32005 L 215.8577 646.2847 C 215.89293 646.132 215.8595 645.9716 215.7662 645.8458 L 215.7662 645.8458 C 215.67587 645.7239 215.52523 645.6624 215.3754 645.68625 L 206.89555 647.0353 C 206.84466 647.0434 206.79385 647.0521 206.74315 647.0613 L 193.7584 649.42216 C 193.6656 649.439 193.5725 649.454 193.47911 649.4671 L 182.24943 651.0432 C 182.22928 651.04605 182.20914 651.049 182.18902 651.052 L 169.06643 653.0106 C 168.90167 653.03515 168.73608 653.05386 168.56998 653.0666 L 155.84517 654.0455 C 155.82786 654.0468 155.81055 654.0481 155.79323 654.0493 L 141.45308 655.0451 C 141.4305 655.0467 141.4079 655.0481 141.3853 655.0495 L 128.08205 655.8437 C 128.04016 655.8462 127.99824 655.8483 127.9563 655.8501 L 113.76485 656.4414 C 113.66776 656.4454 113.5706 656.4475 113.47344 656.4475 L 87.67753 656.4475 C 87.63865 656.4475 87.59976 656.4478 87.56088 656.4484 L 75.8025 656.6444 C 75.68032 656.64644 75.55812 656.6453 75.436005 656.6409 L 64.602405 656.254 C 64.48029 656.24964 64.35809 656.2485 64.23591 656.2505 L 52.521274 656.44576 C 52.45323 656.4469 52.385176 656.447 52.31713 656.4462 L 36.614845 656.2499 C 36.484443 656.2483 36.354113 656.243 36.224007 656.2341 L 21.91423 655.254 C 21.850882 655.2496 21.787597 655.2444 21.724392 655.2384 L 7.233386 653.8488 C 7.2239315 653.8479 7.214479 653.847 7.205028 653.84604 L -6.607008 652.46484 C -6.7228486 652.45326 -6.838382 652.4388 -6.953501 652.4214 L -21.262653 650.2653 C -21.34141 650.2534 -21.420363 650.2429 -21.499479 650.2337 L -35.01941 648.6662 C -35.126987 648.6537 -35.23426 648.6387 -35.34114 648.6213 L -44.73323 647.0879 C -44.89822 647.06094 -45.062195 647.0281 -45.224836 646.9894 L -54.302435 644.83065 C -54.690754 644.7383 -55.08041 644.9782 -55.17276 645.36655 C -55.17884 645.3921 -55.183525 645.418 -55.186787 645.4441 Z" stroke="#7f8080" stroke-linecap="round" stroke-linejoin="round" stroke-width="1"/>
      </g>
    </g>
  </g>
</svg>
