<?xml version="1.0" encoding="UTF-8" standalone="no"?>
<!DOCTYPE svg PUBLIC "-//W3C//DTD SVG 1.1//EN" "http://www.w3.org/Graphics/SVG/1.1/DTD/svg11.dtd">
<svg xmlns="http://www.w3.org/2000/svg" xmlns:xl="http://www.w3.org/1999/xlink" version="1.1" viewBox="524.5 737.5 432.9053 448.4" width="432.9053pt" height="448.4pt" xmlns:dc="http://purl.org/dc/elements/1.1/">
  <metadata> Produced by OmniGraffle 7.4.2 
    <dc:date>2018-03-15 05:39:37 +0000</dc:date>
  </metadata>
  <defs>
    <radialGradient cx="0" cy="0" r="1" id="Gradient" gradientUnits="userSpaceOnUse">
      <stop offset="0" stop-color="#cbcbcb"/>
      <stop offset="1" stop-color="#212121"/>
    </radialGradient>
    <radialGradient id="Obj_Gradient" xl:href="#Gradient" gradientTransform="translate(739.75925 765.4) scale(70.26272)"/>
  </defs>
  <g stroke="none" stroke-opacity="1" stroke-dasharray="none" fill="none" fill-opacity="1">
    <title>australia</title>
    <rect fill="white" width="432.9053" height="448.4"/>
    <g>
      <title>Capa 1</title>
      <path d="M 678.00565 738.59045 L 686.1711 741.7082 C 687.0291 742.0358 687.9059 742.3117 688.7969 742.5344 L 702.5141 745.9637 C 703.6758 746.2541 704.8583 746.4534 706.051 746.5597 L 723.57715 748.1214 C 724.165 748.1738 724.75464 748.2035 725.3448 748.2105 L 740.8237 748.3948 C 741.114 748.3983 741.4044 748.3962 741.6947 748.3887 L 756.118 748.0141 C 756.4788 748.0047 756.8393 747.9868 757.1992 747.9605 L 771.5705 746.9089 C 772.562 746.8364 773.5477 746.6996 774.5214 746.4996 L 786.0944 744.12155 C 787.1364 743.9074 788.1623 743.6213 789.16465 743.2652 L 800.9166 739.0901 C 802.007 738.7028 803.2102 739.2335 803.65925 740.3 L 803.65925 740.3 C 804.1814 741.5401 804.3334 742.90485 804.0968 744.22945 L 803.9164 745.2401 C 803.6126 746.9413 803.1181 748.6028 802.4421 750.1932 L 800.8989 753.8243 C 800.3404 755.1386 799.6606 756.398 798.8685 757.5862 L 795.1827 763.11485 C 794.4352 764.2361 793.5906 765.2895 792.6586 766.2629 L 786.3635 772.8377 C 785.4955 773.7444 784.5546 774.5785 783.5505 775.3316 L 775.1756 781.6128 C 774.2991 782.2701 773.3769 782.8639 772.4158 783.3898 L 765.2306 787.3213 C 763.9195 788.0387 762.5416 788.6266 761.1164 789.0767 L 754.4435 791.1839 C 752.7266 791.7261 750.952 792.0648 749.1561 792.1931 L 742.2697 792.685 C 741.1974 792.7616 740.121 792.7629 739.04854 792.6889 L 730.6123 792.1071 C 729.5781 792.0358 728.5499 791.8946 727.5348 791.6846 L 720.3996 790.20835 C 718.44765 789.8045 716.5565 789.1486 714.7736 788.2572 L 710.1142 785.9275 C 708.8801 785.3104 707.704 784.5835 706.6001 783.7557 L 700.9182 779.4942 C 700.479 779.1648 700.0518 778.8199 699.6374 778.45995 L 693.8822 773.462 C 693.0679 772.7549 692.3044 771.9913 691.5972 771.1771 L 687.192 766.1044 C 686.4379 765.236 685.75 764.3123 685.1341 763.34105 L 681.40036 757.4533 C 681.0398 756.8847 680.7044 756.3006 680.39505 755.70255 L 678.7747 752.5698 C 678.1655 751.39215 677.6594 750.164 677.2618 748.8991 L 675.9816 744.8256 C 675.7668 744.14225 675.5841 743.4492 675.434 742.7488 L 675.35925 742.4 C 675.1646 741.4916 675.27185 740.5444 675.6647 739.7025 L 675.75925 739.5 C 676.1537 738.6547 677.1342 738.2577 678.00565 738.59045 Z" fill="url(#Obj_Gradient)"/>
      <path d="M 678.00565 738.59045 L 686.1711 741.7082 C 687.0291 742.0358 687.9059 742.3117 688.7969 742.5344 L 702.5141 745.9637 C 703.6758 746.2541 704.8583 746.4534 706.051 746.5597 L 723.57715 748.1214 C 724.165 748.1738 724.75464 748.2035 725.3448 748.2105 L 740.8237 748.3948 C 741.114 748.3983 741.4044 748.3962 741.6947 748.3887 L 756.118 748.0141 C 756.4788 748.0047 756.8393 747.9868 757.1992 747.9605 L 771.5705 746.9089 C 772.562 746.8364 773.5477 746.6996 774.5214 746.4996 L 786.0944 744.12155 C 787.1364 743.9074 788.1623 743.6213 789.16465 743.2652 L 800.9166 739.0901 C 802.007 738.7028 803.2102 739.2335 803.65925 740.3 L 803.65925 740.3 C 804.1814 741.5401 804.3334 742.90485 804.0968 744.22945 L 803.9164 745.2401 C 803.6126 746.9413 803.1181 748.6028 802.4421 750.1932 L 800.8989 753.8243 C 800.3404 755.1386 799.6606 756.398 798.8685 757.5862 L 795.1827 763.11485 C 794.4352 764.2361 793.5906 765.2895 792.6586 766.2629 L 786.3635 772.8377 C 785.4955 773.7444 784.5546 774.5785 783.5505 775.3316 L 775.1756 781.6128 C 774.2991 782.2701 773.3769 782.8639 772.4158 783.3898 L 765.2306 787.3213 C 763.9195 788.0387 762.5416 788.6266 761.1164 789.0767 L 754.4435 791.1839 C 752.7266 791.7261 750.952 792.0648 749.1561 792.1931 L 742.2697 792.685 C 741.1974 792.7616 740.121 792.7629 739.04854 792.6889 L 730.6123 792.1071 C 729.5781 792.0358 728.5499 791.8946 727.5348 791.6846 L 720.3996 790.20835 C 718.44765 789.8045 716.5565 789.1486 714.7736 788.2572 L 710.1142 785.9275 C 708.8801 785.3104 707.704 784.5835 706.6001 783.7557 L 700.9182 779.4942 C 700.479 779.1648 700.0518 778.8199 699.6374 778.45995 L 693.8822 773.462 C 693.0679 772.7549 692.3044 771.9913 691.5972 771.1771 L 687.192 766.1044 C 686.4379 765.236 685.75 764.3123 685.1341 763.34105 L 681.40036 757.4533 C 681.0398 756.8847 680.7044 756.3006 680.39505 755.70255 L 678.7747 752.5698 C 678.1655 751.39215 677.6594 750.164 677.2618 748.8991 L 675.9816 744.8256 C 675.7668 744.14225 675.5841 743.4492 675.434 742.7488 L 675.35925 742.4 C 675.1646 741.4916 675.27185 740.5444 675.6647 739.7025 L 675.75925 739.5 C 676.1537 738.6547 677.1342 738.2577 678.00565 738.59045 Z" stroke="#7f8080" stroke-linecap="round" stroke-linejoin="round" stroke-width="1"/>
      <path d="M 613.97346 1175.2638 L 627.7157 1177.5542 C 627.8991 1177.5847 628.083 1177.6121 628.2673 1177.6362 L 656.62094 1181.3515 C 656.8675 1181.3838 657.1147 1181.4104 657.3625 1181.4312 L 687.6054 1183.9677 C 687.8623 1183.9892 688.1197 1184.0046 688.3773 1184.0137 L 727.3082 1185.39 C 727.4966 1185.3967 727.68504 1185.4 727.8735 1185.4 L 759.3408 1185.4 C 759.5075 1185.4 759.6741 1185.3974 759.8406 1185.3922 L 784.8754 1184.6099 C 785.0856 1184.6033 785.2957 1184.5926 785.5055 1184.5777 L 807.5533 1183.0168 C 807.7116 1183.0056 807.8698 1182.992 808.0277 1182.9761 L 833.2881 1180.4305 C 833.4899 1180.4102 833.6912 1180.386 833.892 1180.358 L 857.6847 1177.0427 C 857.8888 1177.0142 858.0922 1176.9819 858.295 1176.9456 L 867.4908 1175.3 C 872.8179 1174.3467 876.4688 1169.3931 875.8023 1164.0226 L 873.5948 1146.232 C 873.5921 1146.2107 873.5895 1146.1893 873.5869 1146.168 L 870.0231 1116.4695 C 870.0016 1116.2898 869.9831 1116.1099 869.9676 1115.9296 L 867.6054 1088.3704 C 867.5957 1088.2568 867.5871 1088.1431 867.5798 1088.0294 L 866.1932 1066.4377 C 866.1916 1066.4126 866.1899 1066.3874 866.1882 1066.3623 L 864.596 1043.276 C 864.5925 1043.2253 864.5893 1043.1747 864.5863 1043.124 L 863.4099 1023.3218 C 863.3972 1023.1073 863.3887 1022.8925 863.3846 1022.6777 L 862.9924 1002.0829 C 862.9913 1002.0276 862.99 1001.9724 862.9883 1001.9172 L 862.3932 981.6828 C 862.3916 981.6276 862.3903 981.5724 862.3892 981.5172 L 861.9985 961.0076 C 861.9934 960.7359 861.9951 960.4641 862.0038 960.1925 L 862.5897 941.8329 C 862.5904 941.811 862.5912 941.789 862.592 941.7671 L 863.3801 919.8978 C 863.3872 919.6993 863.3981 919.5009 863.4126 919.3028 L 864.9701 898.0822 C 864.9839 897.8941 864.9944 897.7057 865.0015 897.5172 L 865.756 877.6184 C 865.7792 877.0066 865.8374 876.3967 865.9305 875.7917 L 868.6695 857.9881 C 868.7503 857.463 868.8572 856.9423 868.9898 856.4278 L 873.6181 838.4702 C 873.7332 838.0236 873.8675 837.5822 874.0207 837.1472 L 879.7415 820.9076 C 879.9076 820.4361 880.0957 819.9727 880.3052 819.5188 L 885.8367 807.5338 C 885.9394 807.3113 886.0472 807.0912 886.16 806.8736 L 891.5222 796.5322 C 891.5679 796.4441 891.6145 796.3564 891.6618 796.2691 L 896.8778 786.6521 C 897.615 785.2928 898.5647 784.0599 899.6908 783 L 899.6908 783 C 900.366 782.3645 900.3982 781.302 899.7627 780.6268 C 899.6382 780.4946 899.4931 780.3834 899.333 780.2976 L 896.1188 778.5757 C 895.9002 778.4586 895.6788 778.3466 895.4549 778.2397 L 887.601 774.4912 C 887.1944 774.2972 886.7797 774.1204 886.3582 773.9613 L 876.6834 770.3104 C 876.4883 770.2368 876.2919 770.167 876.0941 770.1011 L 863.3996 765.8696 C 863.2604 765.8232 863.1206 765.7787 862.9801 765.7362 L 850.0966 761.8321 C 850.0261 761.8107 849.9557 761.7888 849.8854 761.7665 L 837.3814 757.7879 C 836.9878 757.6627 836.5992 757.52225 836.2164 757.3669 L 824.2405 752.5071 C 823.4088 752.1696 822.607 751.7628 821.8436 751.2908 L 812.2244 745.3444 C 812.0687 745.2481 811.9146 745.1492 811.7623 745.0477 L 806.8722 741.7876 C 805.8908 741.13335 805.0195 740.32745 804.2908 739.4 L 804.2908 739.4 C 804.1852 739.2656 803.9906 739.24225 803.8562 739.34785 C 803.7535 739.4286 803.7125 739.5651 803.7538 739.6891 L 803.8908 740.1 C 804.35 741.47775 804.4546 742.949 804.1948 744.3779 L 803.7997 746.55115 C 803.5285 748.0428 803.0466 749.48835 802.3686 750.8444 L 800.8363 753.909 C 800.5396 754.5024 800.2062 755.0768 799.8382 755.6288 L 796.6345 760.4344 C 796.2059 761.0773 795.7313 761.6883 795.2144 762.2626 L 790.6524 767.3316 C 790.6113 767.3772 790.57 767.4226 790.5284 767.4677 L 784.5342 773.9758 C 783.9064 774.6573 783.2207 775.283 782.4846 775.8459 L 777.4605 779.6879 C 777.0143 780.0291 776.5505 780.3465 776.071 780.6389 L 769.5846 784.594 C 768.9229 784.9975 768.2328 785.3523 767.51975 785.6558 L 760.4043 788.6836 C 759.5967 789.0273 758.7621 789.3039 757.90905 789.5107 L 753.83 790.4996 C 753.0052 790.6995 752.1657 790.8336 751.3196 790.9004 L 745.6194 791.3504 C 745.2005 791.3834 744.7804 791.4 744.3602 791.4 L 737.3279 791.4 C 736.5708 791.4 735.8146 791.3463 735.0651 791.2392 L 727.1187 790.104 C 726.6337 790.0347 726.1521 789.9432 725.6755 789.8297 L 719.7143 788.4104 C 718.5688 788.1376 717.4569 787.7393 716.3988 787.2225 L 710.1188 784.1556 C 709.6338 783.9187 709.161 783.6574 708.7024 783.3727 L 704.4905 780.7585 C 703.89135 780.3866 703.3174 779.9755 702.7725 779.5278 L 698.3264 775.8757 C 698.1027 775.6919 697.884 775.5021 697.6706 775.3065 L 693.8683 771.821 C 693.417 771.4074 692.9898 770.9681 692.58885 770.5055 L 688.4701 765.7531 C 688.1507 765.38455 687.84836 765.0016 687.56395 764.6055 L 683.1343 758.4356 C 682.6394 757.7463 682.2001 757.0187 681.82064 756.2597 L 679.2442 751.1068 C 679.2086 751.0356 679.1735 750.9641 679.139 750.8924 L 677.8908 748.3 C 677.0401 746.5331 676.68455 744.5686 676.8621 742.6156 L 677.0423 740.6334 C 677.0661 740.3715 676.8731 740.13994 676.61125 740.1161 C 676.44886 740.1014 676.2902 740.17075 676.1908 740.3 L 676.1908 740.3 C 675.5273 741.1625 674.7472 741.9286 673.87285 742.57625 L 669.9763 745.4626 C 669.8526 745.5542 669.7276 745.644 669.60136 745.732 L 664.9791 748.9536 C 663.7924 749.7807 662.49895 750.4431 661.1342 750.9226 L 656.5271 752.5413 C 656.0365 752.7137 655.5546 752.9098 655.08316 753.1291 L 648.2364 756.3137 C 647.5402 756.6375 646.82165 756.9107 646.08625 757.1314 L 635.2159 760.3925 C 635.19914 760.3975 635.1824 760.4025 635.1657 760.4076 L 624.1976 763.7372 C 624.05974 763.7791 623.9224 763.8228 623.7857 763.8684 L 610.8645 768.1754 C 610.81534 768.1918 610.76614 768.20795 610.7169 768.2238 L 599.34946 771.89075 C 598.711 772.0967 598.0861 772.3426 597.47846 772.627 L 589.5465 776.3399 C 589.17616 776.5132 588.8126 776.7007 588.4566 776.9019 L 582.5105 780.2628 C 581.2575 780.971 580.8158 782.5609 581.52406 783.814 C 581.6012 783.9504 581.69045 784.0796 581.7908 784.2 L 582.6549 785.2369 C 583.40984 786.1429 584.0623 787.1295 584.6004 788.1788 L 587.6776 794.1792 C 587.75304 794.3264 587.8308 794.4724 587.9108 794.61715 L 591.86554 801.7734 C 591.949 801.9244 592.0301 802.0769 592.1086 802.2306 L 596.2169 810.2686 C 596.466 810.7559 596.6899 811.2556 596.88776 811.7659 L 600.3705 820.7478 C 600.384 820.7826 600.39765 820.8174 600.4114 820.8521 L 604.0077 829.9375 C 604.1297 830.2458 604.2421 830.5577 604.34476 830.8729 L 606.9666 838.9257 C 606.9827 838.9752 606.9986 839.0248 607.01424 839.0745 L 610.0863 848.8328 C 610.2891 849.477 610.4509 850.1333 610.5707 850.7979 L 612.55605 861.8074 C 612.5792 861.9358 612.6008 862.0645 612.6208 862.1934 L 614.3267 873.1868 C 614.3694 873.4622 614.4049 873.7387 614.4332 874.016 L 615.32065 882.7127 C 615.3674 883.1707 615.3943 883.6305 615.4014 884.0908 L 615.58565 896.0664 C 615.5891 896.2888 615.5971 896.5111 615.6098 896.7331 L 616.3802 910.2146 C 616.38725 910.3382 616.39575 910.4617 616.4057 910.5851 L 617.73924 927.1594 C 617.7736 927.5863 617.7908 928.0144 617.7908 928.4426 L 617.7908 940.8924 C 617.7908 941.0975 617.7947 941.3025 617.8026 941.5074 L 618.38295 956.5965 C 618.3882 956.7322 618.3917 956.8679 618.3934 957.0036 L 618.5856 971.7999 C 618.58905 972.0666 618.58584 972.3333 618.576 972.5999 L 618.00174 988.104 C 617.9944 988.3013 617.9908 988.4988 617.9908 988.6962 L 617.9908 1002.2924 C 617.9908 1002.4975 617.98684 1002.7025 617.97896 1002.9074 L 617.3938 1018.1224 C 617.3918 1018.1741 617.3895 1018.2259 617.38704 1018.2776 L 616.5917 1034.7806 C 616.5911 1034.7935 616.59045 1034.8065 616.5898 1034.8195 L 615.7953 1050.5106 C 615.7923 1050.5702 615.78894 1050.6298 615.78526 1050.6893 L 614.59634 1069.9101 C 614.5926 1069.97 614.5886 1070.03 614.5842 1070.0899 L 612.8011 1094.4594 C 612.7942 1094.5531 612.7865 1094.6468 612.778 1094.7404 L 610.9921 1114.3852 C 610.9912 1114.3951 610.9903 1114.405 610.9894 1114.4148 L 609.21864 1133.4997 C 609.2001 1133.6999 609.1777 1133.8997 609.1516 1134.099 L 607.1909 1149.0717 C 607.0581 1150.086 606.78896 1151.0776 606.3908 1152.0197 L 606.3908 1152.0197 C 605.9932 1152.9605 605.74454 1153.9574 605.6537 1154.9747 L 604.8908 1163.5197 C 604.383 1169.2068 608.3415 1174.3251 613.97346 1175.2638 Z" fill="#005d00"/>
      <path d="M 613.97346 1175.2638 L 627.7157 1177.5542 C 627.8991 1177.5847 628.083 1177.6121 628.2673 1177.6362 L 656.62094 1181.3515 C 656.8675 1181.3838 657.1147 1181.4104 657.3625 1181.4312 L 687.6054 1183.9677 C 687.8623 1183.9892 688.1197 1184.0046 688.3773 1184.0137 L 727.3082 1185.39 C 727.4966 1185.3967 727.68504 1185.4 727.8735 1185.4 L 759.3408 1185.4 C 759.5075 1185.4 759.6741 1185.3974 759.8406 1185.3922 L 784.8754 1184.6099 C 785.0856 1184.6033 785.2957 1184.5926 785.5055 1184.5777 L 807.5533 1183.0168 C 807.7116 1183.0056 807.8698 1182.992 808.0277 1182.9761 L 833.2881 1180.4305 C 833.4899 1180.4102 833.6912 1180.386 833.892 1180.358 L 857.6847 1177.0427 C 857.8888 1177.0142 858.0922 1176.9819 858.295 1176.9456 L 867.4908 1175.3 C 872.8179 1174.3467 876.4688 1169.3931 875.8023 1164.0226 L 873.5948 1146.232 C 873.5921 1146.2107 873.5895 1146.1893 873.5869 1146.168 L 870.0231 1116.4695 C 870.0016 1116.2898 869.9831 1116.1099 869.9676 1115.9296 L 867.6054 1088.3704 C 867.5957 1088.2568 867.5871 1088.1431 867.5798 1088.0294 L 866.1932 1066.4377 C 866.1916 1066.4126 866.1899 1066.3874 866.1882 1066.3623 L 864.596 1043.276 C 864.5925 1043.2253 864.5893 1043.1747 864.5863 1043.124 L 863.4099 1023.3218 C 863.3972 1023.1073 863.3887 1022.8925 863.3846 1022.6777 L 862.9924 1002.0829 C 862.9913 1002.0276 862.99 1001.9724 862.9883 1001.9172 L 862.3932 981.6828 C 862.3916 981.6276 862.3903 981.5724 862.3892 981.5172 L 861.9985 961.0076 C 861.9934 960.7359 861.9951 960.4641 862.0038 960.1925 L 862.5897 941.8329 C 862.5904 941.811 862.5912 941.789 862.592 941.7671 L 863.3801 919.8978 C 863.3872 919.6993 863.3981 919.5009 863.4126 919.3028 L 864.9701 898.0822 C 864.9839 897.8941 864.9944 897.7057 865.0015 897.5172 L 865.756 877.6184 C 865.7792 877.0066 865.8374 876.3967 865.9305 875.7917 L 868.6695 857.9881 C 868.7503 857.463 868.8572 856.9423 868.9898 856.4278 L 873.6181 838.4702 C 873.7332 838.0236 873.8675 837.5822 874.0207 837.1472 L 879.7415 820.9076 C 879.9076 820.4361 880.0957 819.9727 880.3052 819.5188 L 885.8367 807.5338 C 885.9394 807.3113 886.0472 807.0912 886.16 806.8736 L 891.5222 796.5322 C 891.5679 796.4441 891.6145 796.3564 891.6618 796.2691 L 896.8778 786.6521 C 897.615 785.2928 898.5647 784.0599 899.6908 783 L 899.6908 783 C 900.366 782.3645 900.3982 781.302 899.7627 780.6268 C 899.6382 780.4946 899.4931 780.3834 899.333 780.2976 L 896.1188 778.5757 C 895.9002 778.4586 895.6788 778.3466 895.4549 778.2397 L 887.601 774.4912 C 887.1944 774.2972 886.7797 774.1204 886.3582 773.9613 L 876.6834 770.3104 C 876.4883 770.2368 876.2919 770.167 876.0941 770.1011 L 863.3996 765.8696 C 863.2604 765.8232 863.1206 765.7787 862.9801 765.7362 L 850.0966 761.8321 C 850.0261 761.8107 849.9557 761.7888 849.8854 761.7665 L 837.3814 757.7879 C 836.9878 757.6627 836.5992 757.52225 836.2164 757.3669 L 824.2405 752.5071 C 823.4088 752.1696 822.607 751.7628 821.8436 751.2908 L 812.2244 745.3444 C 812.0687 745.2481 811.9146 745.1492 811.7623 745.0477 L 806.8722 741.7876 C 805.8908 741.13335 805.0195 740.32745 804.2908 739.4 L 804.2908 739.4 C 804.1852 739.2656 803.9906 739.24225 803.8562 739.34785 C 803.7535 739.4286 803.7125 739.5651 803.7538 739.6891 L 803.8908 740.1 C 804.35 741.47775 804.4546 742.949 804.1948 744.3779 L 803.7997 746.55115 C 803.5285 748.0428 803.0466 749.48835 802.3686 750.8444 L 800.8363 753.909 C 800.5396 754.5024 800.2062 755.0768 799.8382 755.6288 L 796.6345 760.4344 C 796.2059 761.0773 795.7313 761.6883 795.2144 762.2626 L 790.6524 767.3316 C 790.6113 767.3772 790.57 767.4226 790.5284 767.4677 L 784.5342 773.9758 C 783.9064 774.6573 783.2207 775.283 782.4846 775.8459 L 777.4605 779.6879 C 777.0143 780.0291 776.5505 780.3465 776.071 780.6389 L 769.5846 784.594 C 768.9229 784.9975 768.2328 785.3523 767.51975 785.6558 L 760.4043 788.6836 C 759.5967 789.0273 758.7621 789.3039 757.90905 789.5107 L 753.83 790.4996 C 753.0052 790.6995 752.1657 790.8336 751.3196 790.9004 L 745.6194 791.3504 C 745.2005 791.3834 744.7804 791.4 744.3602 791.4 L 737.3279 791.4 C 736.5708 791.4 735.8146 791.3463 735.0651 791.2392 L 727.1187 790.104 C 726.6337 790.0347 726.1521 789.9432 725.6755 789.8297 L 719.7143 788.4104 C 718.5688 788.1376 717.4569 787.7393 716.3988 787.2225 L 710.1188 784.1556 C 709.6338 783.9187 709.161 783.6574 708.7024 783.3727 L 704.4905 780.7585 C 703.89135 780.3866 703.3174 779.9755 702.7725 779.5278 L 698.3264 775.8757 C 698.1027 775.6919 697.884 775.5021 697.6706 775.3065 L 693.8683 771.821 C 693.417 771.4074 692.9898 770.9681 692.58885 770.5055 L 688.4701 765.7531 C 688.1507 765.38455 687.84836 765.0016 687.56395 764.6055 L 683.1343 758.4356 C 682.6394 757.7463 682.2001 757.0187 681.82064 756.2597 L 679.2442 751.1068 C 679.2086 751.0356 679.1735 750.9641 679.139 750.8924 L 677.8908 748.3 C 677.0401 746.5331 676.68455 744.5686 676.8621 742.6156 L 677.0423 740.6334 C 677.0661 740.3715 676.8731 740.13994 676.61125 740.1161 C 676.44886 740.1014 676.2902 740.17075 676.1908 740.3 L 676.1908 740.3 C 675.5273 741.1625 674.7472 741.9286 673.87285 742.57625 L 669.9763 745.4626 C 669.8526 745.5542 669.7276 745.644 669.60136 745.732 L 664.9791 748.9536 C 663.7924 749.7807 662.49895 750.4431 661.1342 750.9226 L 656.5271 752.5413 C 656.0365 752.7137 655.5546 752.9098 655.08316 753.1291 L 648.2364 756.3137 C 647.5402 756.6375 646.82165 756.9107 646.08625 757.1314 L 635.2159 760.3925 C 635.19914 760.3975 635.1824 760.4025 635.1657 760.4076 L 624.1976 763.7372 C 624.05974 763.7791 623.9224 763.8228 623.7857 763.8684 L 610.8645 768.1754 C 610.81534 768.1918 610.76614 768.20795 610.7169 768.2238 L 599.34946 771.89075 C 598.711 772.0967 598.0861 772.3426 597.47846 772.627 L 589.5465 776.3399 C 589.17616 776.5132 588.8126 776.7007 588.4566 776.9019 L 582.5105 780.2628 C 581.2575 780.971 580.8158 782.5609 581.52406 783.814 C 581.6012 783.9504 581.69045 784.0796 581.7908 784.2 L 582.6549 785.2369 C 583.40984 786.1429 584.0623 787.1295 584.6004 788.1788 L 587.6776 794.1792 C 587.75304 794.3264 587.8308 794.4724 587.9108 794.61715 L 591.86554 801.7734 C 591.949 801.9244 592.0301 802.0769 592.1086 802.2306 L 596.2169 810.2686 C 596.466 810.7559 596.6899 811.2556 596.88776 811.7659 L 600.3705 820.7478 C 600.384 820.7826 600.39765 820.8174 600.4114 820.8521 L 604.0077 829.9375 C 604.1297 830.2458 604.2421 830.5577 604.34476 830.8729 L 606.9666 838.9257 C 606.9827 838.9752 606.9986 839.0248 607.01424 839.0745 L 610.0863 848.8328 C 610.2891 849.477 610.4509 850.1333 610.5707 850.7979 L 612.55605 861.8074 C 612.5792 861.9358 612.6008 862.0645 612.6208 862.1934 L 614.3267 873.1868 C 614.3694 873.4622 614.4049 873.7387 614.4332 874.016 L 615.32065 882.7127 C 615.3674 883.1707 615.3943 883.6305 615.4014 884.0908 L 615.58565 896.0664 C 615.5891 896.2888 615.5971 896.5111 615.6098 896.7331 L 616.3802 910.2146 C 616.38725 910.3382 616.39575 910.4617 616.4057 910.5851 L 617.73924 927.1594 C 617.7736 927.5863 617.7908 928.0144 617.7908 928.4426 L 617.7908 940.8924 C 617.7908 941.0975 617.7947 941.3025 617.8026 941.5074 L 618.38295 956.5965 C 618.3882 956.7322 618.3917 956.8679 618.3934 957.0036 L 618.5856 971.7999 C 618.58905 972.0666 618.58584 972.3333 618.576 972.5999 L 618.00174 988.104 C 617.9944 988.3013 617.9908 988.4988 617.9908 988.6962 L 617.9908 1002.2924 C 617.9908 1002.4975 617.98684 1002.7025 617.97896 1002.9074 L 617.3938 1018.1224 C 617.3918 1018.1741 617.3895 1018.2259 617.38704 1018.2776 L 616.5917 1034.7806 C 616.5911 1034.7935 616.59045 1034.8065 616.5898 1034.8195 L 615.7953 1050.5106 C 615.7923 1050.5702 615.78894 1050.6298 615.78526 1050.6893 L 614.59634 1069.9101 C 614.5926 1069.97 614.5886 1070.03 614.5842 1070.0899 L 612.8011 1094.4594 C 612.7942 1094.5531 612.7865 1094.6468 612.778 1094.7404 L 610.9921 1114.3852 C 610.9912 1114.3951 610.9903 1114.405 610.9894 1114.4148 L 609.21864 1133.4997 C 609.2001 1133.6999 609.1777 1133.8997 609.1516 1134.099 L 607.1909 1149.0717 C 607.0581 1150.086 606.78896 1151.0776 606.3908 1152.0197 L 606.3908 1152.0197 C 605.9932 1152.9605 605.74454 1153.9574 605.6537 1154.9747 L 604.8908 1163.5197 C 604.383 1169.2068 608.3415 1174.3251 613.97346 1175.2638 Z" stroke="#7f8080" stroke-linecap="round" stroke-linejoin="round" stroke-width="1"/>
      <path d="M 525 889.4461 L 531.2 893.8461 L 539.4 897.8461 L 548 901.4461 L 557 905.2461 L 568 909.2461 L 577.4 912.0461 L 586.4 914.6461 L 595.4 917.2461 L 600.8 918.6461 L 606.4 919.6461 L 608.8 913.8461 L 611.4 908.4461 L 613.6 904.4461 L 616.2 901.0461 L 616.4 892.0461 L 615.8 881.0461 L 614 870.2461 L 612.4 859.8461 L 609.8 848.8461 L 607.4 839.2461 L 604.6 831.2461 L 601.4 821.8461 L 598.6 814.4461 L 595 806.8461 L 591 799.2461 L 587 791.8461 L 584.4 788.2461 L 580.8 782.4461 L 575.4 786.8461 L 570.6 791.6461 L 566 797.8461 L 561.6 804.0461 L 556.8 812.6461 L 552 822.0461 L 547.2 831.2461 L 543.6 839.8461 L 539.6 848.8461 L 536.4 857.0461 L 532.6 866.4461 L 529.8 874.4461 L 526.8 882.8461 Z" fill="#006000"/>
      <path d="M 525 889.4461 L 531.2 893.8461 L 539.4 897.8461 L 548 901.4461 L 557 905.2461 L 568 909.2461 L 577.4 912.0461 L 586.4 914.6461 L 595.4 917.2461 L 600.8 918.6461 L 606.4 919.6461 L 608.8 913.8461 L 611.4 908.4461 L 613.6 904.4461 L 616.2 901.0461 L 616.4 892.0461 L 615.8 881.0461 L 614 870.2461 L 612.4 859.8461 L 609.8 848.8461 L 607.4 839.2461 L 604.6 831.2461 L 601.4 821.8461 L 598.6 814.4461 L 595 806.8461 L 591 799.2461 L 587 791.8461 L 584.4 788.2461 L 580.8 782.4461 L 575.4 786.8461 L 570.6 791.6461 L 566 797.8461 L 561.6 804.0461 L 556.8 812.6461 L 552 822.0461 L 547.2 831.2461 L 543.6 839.8461 L 539.6 848.8461 L 536.4 857.0461 L 532.6 866.4461 L 529.8 874.4461 L 526.8 882.8461 Z" stroke="#7f8080" stroke-linecap="round" stroke-linejoin="round" stroke-width="1"/>
      <path d="M 956.4053 888.5027 L 950.2053 892.9027 L 942.0053 896.9027 L 933.4053 900.5027 L 924.4053 904.3027 L 913.4053 908.3027 L 904.0053 911.1027 L 895.0053 913.7027 L 886.0053 916.3027 L 880.6053 917.7027 L 875.0053 918.7027 L 872.6053 912.9027 L 870.0053 907.5027 L 867.8053 903.5027 L 865.2053 900.1027 L 865.0053 891.1027 L 865.6053 880.1027 L 867.4053 869.3027 L 869.0053 858.9027 L 871.6053 847.9027 L 874.0053 838.3027 L 876.8053 830.3027 L 880.0053 820.9027 L 882.8053 813.5027 L 886.4053 805.90275 L 890.4053 798.30275 L 894.4053 790.90275 L 897.0053 787.30275 L 900.6053 781.50275 L 906.0053 785.90275 L 910.8053 790.70275 L 915.4053 796.90275 L 919.8053 803.10275 L 924.6053 811.7027 L 929.4053 821.1027 L 934.2053 830.3027 L 937.8053 838.9027 L 941.8053 847.9027 L 945.0053 856.1027 L 948.8053 865.5027 L 951.6053 873.5027 L 954.6053 881.9027 Z" fill="#006900"/>
      <path d="M 956.4053 888.5027 L 950.2053 892.9027 L 942.0053 896.9027 L 933.4053 900.5027 L 924.4053 904.3027 L 913.4053 908.3027 L 904.0053 911.1027 L 895.0053 913.7027 L 886.0053 916.3027 L 880.6053 917.7027 L 875.0053 918.7027 L 872.6053 912.9027 L 870.0053 907.5027 L 867.8053 903.5027 L 865.2053 900.1027 L 865.0053 891.1027 L 865.6053 880.1027 L 867.4053 869.3027 L 869.0053 858.9027 L 871.6053 847.9027 L 874.0053 838.3027 L 876.8053 830.3027 L 880.0053 820.9027 L 882.8053 813.5027 L 886.4053 805.90275 L 890.4053 798.30275 L 894.4053 790.90275 L 897.0053 787.30275 L 900.6053 781.50275 L 906.0053 785.90275 L 910.8053 790.70275 L 915.4053 796.90275 L 919.8053 803.10275 L 924.6053 811.7027 L 929.4053 821.1027 L 934.2053 830.3027 L 937.8053 838.9027 L 941.8053 847.9027 L 945.0053 856.1027 L 948.8053 865.5027 L 951.6053 873.5027 L 954.6053 881.9027 Z" stroke="#7f8080" stroke-linecap="round" stroke-linejoin="round" stroke-width="2"/>
      <path d="M 525 889.4461 L 531.2 893.8461 L 539.4 897.8461 L 548 901.4461 L 557 905.2461 L 568 909.2461 L 577.4 912.0461 L 586.4 914.6461 L 595.4 917.2461 L 600.8 918.6461 L 606.4 919.6461 L 609.4 913.2461 L 605.6 912.4461 L 600.8 911.2461 L 595.2 910.0461 L 589.2 908.2461 L 584.6 906.8461 L 580.4 905.6461 L 575.8 903.6461 L 571.2 902.0461 L 566.4 900.0461 L 562.4 898.6461 L 557.2 896.4461 L 552.6 894.8461 L 547.8 892.6461 L 543 890.8461 L 539 888.8461 L 534.6 886.6461 L 530.2 884.4461 L 526.8 882.8461 Z" fill="yellow"/>
      <path d="M 525 889.4461 L 531.2 893.8461 L 539.4 897.8461 L 548 901.4461 L 557 905.2461 L 568 909.2461 L 577.4 912.0461 L 586.4 914.6461 L 595.4 917.2461 L 600.8 918.6461 L 606.4 919.6461 L 609.4 913.2461 L 605.6 912.4461 L 600.8 911.2461 L 595.2 910.0461 L 589.2 908.2461 L 584.6 906.8461 L 580.4 905.6461 L 575.8 903.6461 L 571.2 902.0461 L 566.4 900.0461 L 562.4 898.6461 L 557.2 896.4461 L 552.6 894.8461 L 547.8 892.6461 L 543 890.8461 L 539 888.8461 L 534.6 886.6461 L 530.2 884.4461 L 526.8 882.8461 Z" stroke="#7f8080" stroke-linecap="round" stroke-linejoin="round" stroke-width="1"/>
      <path d="M 956.4053 888.5027 L 950.2053 892.9027 L 942.0053 896.9027 L 933.4053 900.5027 L 924.4053 904.3027 L 913.4053 908.3027 L 904.0053 911.1027 L 895.0053 913.7027 L 886.0053 916.3027 L 880.6053 917.7027 L 875.0053 918.7027 L 872.0053 912.3027 L 875.8053 911.5027 L 880.6053 910.3027 L 886.2053 909.1027 L 892.2053 907.3027 L 896.8053 905.9027 L 901.0053 904.7027 L 905.6053 902.7027 L 910.2053 901.1027 L 915.0053 899.1027 L 919.0053 897.7027 L 924.2053 895.5027 L 928.8053 893.9027 L 933.6053 891.7027 L 938.4053 889.9027 L 942.4053 887.9027 L 946.8053 885.7027 L 951.2053 883.5027 L 954.6053 881.9027 Z" fill="yellow"/>
      <path d="M 956.4053 888.5027 L 950.2053 892.9027 L 942.0053 896.9027 L 933.4053 900.5027 L 924.4053 904.3027 L 913.4053 908.3027 L 904.0053 911.1027 L 895.0053 913.7027 L 886.0053 916.3027 L 880.6053 917.7027 L 875.0053 918.7027 L 872.0053 912.3027 L 875.8053 911.5027 L 880.6053 910.3027 L 886.2053 909.1027 L 892.2053 907.3027 L 896.8053 905.9027 L 901.0053 904.7027 L 905.6053 902.7027 L 910.2053 901.1027 L 915.0053 899.1027 L 919.0053 897.7027 L 924.2053 895.5027 L 928.8053 893.9027 L 933.6053 891.7027 L 938.4053 889.9027 L 942.4053 887.9027 L 946.8053 885.7027 L 951.2053 883.5027 L 954.6053 881.9027 Z" stroke="#7f8080" stroke-linecap="round" stroke-linejoin="round" stroke-width="1"/>
      <path d="M 675.5721 739.9638 L 670.84295 744.0174 C 669.6926 745.0034 668.44764 745.8733 667.1262 746.6145 L 664.5996 748.03165 C 663.1644 748.8366 662.5836 750.60575 663.2624 752.1047 L 664.28 754.352 C 664.4016 754.6205 664.5283 754.8866 664.6601 755.1502 L 666.4624 758.7547 L 668.9494 763.7287 C 669.2912 764.4123 669.6668 765.0784 670.07495 765.7246 L 672.40134 769.4081 C 672.8417 770.1053 673.3193 770.7784 673.83195 771.4244 L 677.2426 775.72185 C 677.7887 776.4099 678.3737 777.0661 678.9948 777.6872 L 683.6609 782.3532 C 684.06175 782.7541 684.4773 783.14 684.9067 783.5102 L 689.4702 787.4443 C 689.8649 787.7845 690.271 788.1112 690.68785 788.4238 L 694.6628 791.405 C 695.3287 791.9045 696.0212 792.3674 696.7373 792.7917 L 700.8704 795.241 C 700.9984 795.3168 701.1271 795.3914 701.2566 795.4648 L 705.9541 798.1267 C 706.6924 798.5451 707.4533 798.9223 708.23325 799.2565 L 711.7831 800.7779 C 712.369 801.029 712.9652 801.2557 713.57 801.4573 L 718.5881 803.13 C 719.8353 803.5457 721.1159 803.8538 722.4158 804.0507 L 726.5146 804.6717 C 726.87976 804.7271 727.24615 804.7736 727.6135 804.8113 L 734.4946 805.517 C 734.7398 805.5422 734.98534 805.5634 735.2312 805.5806 L 739.75835 805.8983 C 740.2942 805.9359 740.8312 805.9547 741.3684 805.9547 L 744.6305 805.9547 C 745.5842 805.9547 746.5369 805.8954 747.4833 805.7771 L 751.472 805.2785 C 752.13195 805.196 752.788 805.085 753.43835 804.9456 L 759.5204 803.6423 C 760.4143 803.4508 761.2959 803.2061 762.1607 802.9096 L 766.6695 801.3637 C 767.4642 801.0913 768.2433 800.7755 769.0034 800.4178 L 773.8368 798.1433 C 774.387 797.8843 774.9267 797.6037 775.4546 797.302 L 779.2225 795.149 C 779.9153 794.7531 780.587 794.3214 781.2349 793.8557 L 785.9111 790.4948 C 786.41175 790.1349 786.8978 789.755 787.3679 789.3561 L 792.6888 784.8414 C 793.0711 784.5171 793.4427 784.1803 793.803 783.8316 L 798.5022 779.284 C 799.1418 778.665 799.7449 778.0094 800.3085 777.3206 L 804.1018 772.6843 C 804.6085 772.065 805.0826 771.4197 805.522 770.751 L 809.1392 765.2466 C 809.3546 764.9187 809.5616 764.5854 809.76 764.247 L 812.2831 759.9429 C 812.6691 759.2845 813.022 758.60735 813.3406 757.9139 L 815.4593 753.3026 C 815.9922 752.14285 816.3633 750.9154 816.5624 749.6547 L 816.5624 749.6547 C 816.7407 748.5255 816.1614 747.412 815.1343 746.9099 L 809.8409 744.322 C 808.5264 743.6794 807.2918 742.8849 806.1624 741.9547 L 805.7564 741.6204 C 804.9121 740.925 804.2886 739.9987 803.9624 738.9547 L 803.9624 738.9547 C 803.9157 738.8054 803.7569 738.7222 803.6075 738.7689 C 803.4925 738.8048 803.4128 738.9097 803.4089 739.0302 L 803.2997 742.4531 C 803.2089 745.2962 802.5916 748.0978 801.479 750.7157 L 800.6021 752.779 C 800.0435 754.0933 799.3637 755.3527 798.5716 756.5409 L 794.8858 762.0696 C 794.1383 763.19085 793.2937 764.24425 792.36175 765.2176 L 786.0667 771.7925 C 785.1986 772.6991 784.2578 773.5332 783.2536 774.2863 L 774.8787 780.5675 C 774.0023 781.2248 773.08 781.8187 772.119 782.3445 L 764.9338 786.2761 C 763.6226 786.9935 762.2447 787.5814 760.8195 788.0314 L 754.1466 790.1387 C 752.4297 790.6808 750.6551 791.0195 748.8593 791.1478 L 741.9728 791.6397 C 740.9005 791.7163 739.8242 791.7176 738.7517 791.64365 L 730.3154 791.0618 C 729.28125 790.9905 728.2531 790.8494 727.23795 790.6393 L 720.1027 789.1631 C 718.1508 788.7592 716.2596 788.10335 714.47676 787.2119 L 709.81735 784.8822 C 708.5832 784.2651 707.4071 783.5383 706.3033 782.7104 L 700.6213 778.4489 C 700.1822 778.1196 699.755 777.7746 699.3405 777.4147 L 693.5853 772.4168 C 692.77104 771.7096 692.0075 770.9461 691.3004 770.1318 L 686.8951 765.0591 C 686.141 764.19075 685.4531 763.26705 684.8372 762.2958 L 681.1035 756.408 C 680.7429 755.8394 680.4075 755.2553 680.0982 754.6573 L 678.4778 751.5246 C 677.8687 750.3469 677.3625 749.1187 676.965 747.85385 L 675.6847 743.7804 C 675.46995 743.097 675.2872 742.40395 675.1371 741.7035 L 674.9117 740.6516 C 674.8266 740.2546 675.053 739.8569 675.4378 739.7274 L 675.4378 739.7274 C 675.5103 739.703 675.58884 739.74195 675.61325 739.8144 C 675.6313 739.86795 675.615 739.927 675.5721 739.9638 Z" fill="yellow"/>
      <path d="M 675.5721 739.9638 L 670.84295 744.0174 C 669.6926 745.0034 668.44764 745.8733 667.1262 746.6145 L 664.5996 748.03165 C 663.1644 748.8366 662.5836 750.60575 663.2624 752.1047 L 664.28 754.352 C 664.4016 754.6205 664.5283 754.8866 664.6601 755.1502 L 666.4624 758.7547 L 668.9494 763.7287 C 669.2912 764.4123 669.6668 765.0784 670.07495 765.7246 L 672.40134 769.4081 C 672.8417 770.1053 673.3193 770.7784 673.83195 771.4244 L 677.2426 775.72185 C 677.7887 776.4099 678.3737 777.0661 678.9948 777.6872 L 683.6609 782.3532 C 684.06175 782.7541 684.4773 783.14 684.9067 783.5102 L 689.4702 787.4443 C 689.8649 787.7845 690.271 788.1112 690.68785 788.4238 L 694.6628 791.405 C 695.3287 791.9045 696.0212 792.3674 696.7373 792.7917 L 700.8704 795.241 C 700.9984 795.3168 701.1271 795.3914 701.2566 795.4648 L 705.9541 798.1267 C 706.6924 798.5451 707.4533 798.9223 708.23325 799.2565 L 711.7831 800.7779 C 712.369 801.029 712.9652 801.2557 713.57 801.4573 L 718.5881 803.13 C 719.8353 803.5457 721.1159 803.8538 722.4158 804.0507 L 726.5146 804.6717 C 726.87976 804.7271 727.24615 804.7736 727.6135 804.8113 L 734.4946 805.517 C 734.7398 805.5422 734.98534 805.5634 735.2312 805.5806 L 739.75835 805.8983 C 740.2942 805.9359 740.8312 805.9547 741.3684 805.9547 L 744.6305 805.9547 C 745.5842 805.9547 746.5369 805.8954 747.4833 805.7771 L 751.472 805.2785 C 752.13195 805.196 752.788 805.085 753.43835 804.9456 L 759.5204 803.6423 C 760.4143 803.4508 761.2959 803.2061 762.1607 802.9096 L 766.6695 801.3637 C 767.4642 801.0913 768.2433 800.7755 769.0034 800.4178 L 773.8368 798.1433 C 774.387 797.8843 774.9267 797.6037 775.4546 797.302 L 779.2225 795.149 C 779.9153 794.7531 780.587 794.3214 781.2349 793.8557 L 785.9111 790.4948 C 786.41175 790.1349 786.8978 789.755 787.3679 789.3561 L 792.6888 784.8414 C 793.0711 784.5171 793.4427 784.1803 793.803 783.8316 L 798.5022 779.284 C 799.1418 778.665 799.7449 778.0094 800.3085 777.3206 L 804.1018 772.6843 C 804.6085 772.065 805.0826 771.4197 805.522 770.751 L 809.1392 765.2466 C 809.3546 764.9187 809.5616 764.5854 809.76 764.247 L 812.2831 759.9429 C 812.6691 759.2845 813.022 758.60735 813.3406 757.9139 L 815.4593 753.3026 C 815.9922 752.14285 816.3633 750.9154 816.5624 749.6547 L 816.5624 749.6547 C 816.7407 748.5255 816.1614 747.412 815.1343 746.9099 L 809.8409 744.322 C 808.5264 743.6794 807.2918 742.8849 806.1624 741.9547 L 805.7564 741.6204 C 804.9121 740.925 804.2886 739.9987 803.9624 738.9547 L 803.9624 738.9547 C 803.9157 738.8054 803.7569 738.7222 803.6075 738.7689 C 803.4925 738.8048 803.4128 738.9097 803.4089 739.0302 L 803.2997 742.4531 C 803.2089 745.2962 802.5916 748.0978 801.479 750.7157 L 800.6021 752.779 C 800.0435 754.0933 799.3637 755.3527 798.5716 756.5409 L 794.8858 762.0696 C 794.1383 763.19085 793.2937 764.24425 792.36175 765.2176 L 786.0667 771.7925 C 785.1986 772.6991 784.2578 773.5332 783.2536 774.2863 L 774.8787 780.5675 C 774.0023 781.2248 773.08 781.8187 772.119 782.3445 L 764.9338 786.2761 C 763.6226 786.9935 762.2447 787.5814 760.8195 788.0314 L 754.1466 790.1387 C 752.4297 790.6808 750.6551 791.0195 748.8593 791.1478 L 741.9728 791.6397 C 740.9005 791.7163 739.8242 791.7176 738.7517 791.64365 L 730.3154 791.0618 C 729.28125 790.9905 728.2531 790.8494 727.23795 790.6393 L 720.1027 789.1631 C 718.1508 788.7592 716.2596 788.10335 714.47676 787.2119 L 709.81735 784.8822 C 708.5832 784.2651 707.4071 783.5383 706.3033 782.7104 L 700.6213 778.4489 C 700.1822 778.1196 699.755 777.7746 699.3405 777.4147 L 693.5853 772.4168 C 692.77104 771.7096 692.0075 770.9461 691.3004 770.1318 L 686.8951 765.0591 C 686.141 764.19075 685.4531 763.26705 684.8372 762.2958 L 681.1035 756.408 C 680.7429 755.8394 680.4075 755.2553 680.0982 754.6573 L 678.4778 751.5246 C 677.8687 750.3469 677.3625 749.1187 676.965 747.85385 L 675.6847 743.7804 C 675.46995 743.097 675.2872 742.40395 675.1371 741.7035 L 674.9117 740.6516 C 674.8266 740.2546 675.053 739.8569 675.4378 739.7274 L 675.4378 739.7274 C 675.5103 739.703 675.58884 739.74195 675.61325 739.8144 C 675.6313 739.86795 675.615 739.927 675.5721 739.9638 Z" stroke="#7f8080" stroke-linecap="round" stroke-linejoin="round" stroke-width="1"/>
      <path d="M 675.05925 739.7559 L 680.45925 739.1559 L 687.25925 742.5559 L 692.25925 744.3559 L 700.65925 746.1559 L 709.05925 747.1559 L 717.05925 748.1559 L 724.65925 748.3559 L 733.25925 748.7559 L 744.85925 748.5559 L 753.25925 748.1559 L 762.65925 747.5559 L 771.05925 746.7559 L 780.25925 745.3559 L 788.45925 743.1559 L 794.25925 741.3559 L 799.85925 738.7559 L 802.65925 739.9559 L 803.05925 745.5559 L 800.25925 753.5559 L 794.85925 756.3559 L 784.25925 759.5559 L 772.85925 761.9559 L 761.65925 762.7559 L 749.25925 763.7559 L 738.85925 763.7559 L 729.45925 763.7559 L 717.85925 763.1559 L 706.65925 762.3559 L 696.05925 760.1559 L 687.45925 758.1559 L 681.25925 755.3559 L 679.25925 753.7559 L 676.05925 746.1559 Z" fill="yellow"/>
      <path d="M 675.05925 739.7559 L 680.45925 739.1559 L 687.25925 742.5559 L 692.25925 744.3559 L 700.65925 746.1559 L 709.05925 747.1559 L 717.05925 748.1559 L 724.65925 748.3559 L 733.25925 748.7559 L 744.85925 748.5559 L 753.25925 748.1559 L 762.65925 747.5559 L 771.05925 746.7559 L 780.25925 745.3559 L 788.45925 743.1559 L 794.25925 741.3559 L 799.85925 738.7559 L 802.65925 739.9559 L 803.05925 745.5559 L 800.25925 753.5559 L 794.85925 756.3559 L 784.25925 759.5559 L 772.85925 761.9559 L 761.65925 762.7559 L 749.25925 763.7559 L 738.85925 763.7559 L 729.45925 763.7559 L 717.85925 763.1559 L 706.65925 762.3559 L 696.05925 760.1559 L 687.45925 758.1559 L 681.25925 755.3559 L 679.25925 753.7559 L 676.05925 746.1559 Z" stroke="#7f8080" stroke-linecap="round" stroke-linejoin="round" stroke-width="1"/>
      <path d="M 604.8132 1165.2 L 604.8132 1165.2 C 604.7475 1165.7255 604.81036 1166.259 604.9963 1166.7549 L 605.6473 1168.4909 C 605.82406 1168.9623 606.05115 1169.4132 606.3246 1169.8358 L 607.2924 1171.3315 C 607.8334 1172.1676 608.5465 1172.8785 609.3841 1173.417 L 610.4622 1174.11 C 610.7624 1174.3031 611.077 1174.4728 611.40316 1174.6179 L 612.72 1175.2035 C 613.31654 1175.4688 613.94725 1175.6493 614.5938 1175.7398 L 623.6042 1177.0013 C 623.6142 1177.0027 623.6242 1177.004 623.6342 1177.0054 L 635.3502 1178.594 C 635.3962 1178.6002 635.4423 1178.606 635.4884 1178.6113 L 645.7713 1179.7978 C 645.80324 1179.8015 645.8352 1179.805 645.8672 1179.8082 L 659.5772 1181.1991 C 659.6052 1181.202 659.6332 1181.2046 659.6612 1181.2071 L 670.7665 1182.1987 C 670.80164 1182.2018 670.8368 1182.2047 670.87195 1182.2073 L 681.5585 1182.9989 C 681.599 1183.0019 681.6395 1183.0045 681.68 1183.0068 L 692.188 1183.6016 C 692.2088 1183.6028 692.2296 1183.604 692.2504 1183.6054 L 704.2932 1184.3951 C 704.3772 1184.4006 704.4613 1184.4046 704.5454 1184.407 L 717.9926 1184.8026 C 718.0103 1184.8031 718.0281 1184.8037 718.04585 1184.8043 L 728.6897 1185.1986 C 728.776 1185.2018 728.8624 1185.2034 728.9488 1185.2034 L 739.5578 1185.2034 C 739.5987 1185.2034 739.6397 1185.2037 739.6806 1185.2044 L 750.767 1185.399 C 750.9351 1185.4019 751.1032 1185.3988 751.2711 1185.3896 L 761.8923 1184.8103 C 761.9769 1184.8057 762.0616 1184.8026 762.1463 1184.801 L 772.91085 1184.6053 C 772.9831 1184.604 773.0553 1184.6016 773.12745 1184.598 L 785.1461 1184.007 C 785.1948 1184.0046 785.2436 1184.0016 785.29225 1183.9982 L 796.5323 1183.2095 C 796.5902 1183.2054 796.6481 1183.2006 796.7059 1183.1951 L 809.1165 1182.0131 C 809.185 1182.0066 809.2535 1182.0011 809.3221 1181.9966 L 821.2542 1181.2142 C 821.3642 1181.207 821.474 1181.1972 821.5836 1181.1847 L 831.9959 1180.006 C 832.0114 1180.0042 832.027 1180.0024 832.0425 1180.0006 L 841.9902 1178.8068 C 842.0095 1178.8045 842.0289 1178.8021 842.0482 1178.7996 L 855.8839 1177.0221 C 855.9812 1177.0096 856.0781 1176.9951 856.1747 1176.9785 L 862.7282 1175.855 C 862.9292 1175.8206 863.1315 1175.795 863.3347 1175.7782 L 866.5671 1175.5112 C 867.4563 1175.4377 868.3233 1175.195 869.1214 1174.796 L 870.6076 1174.0528 C 871.2082 1173.7525 871.7625 1173.3674 872.2534 1172.9092 L 873.5885 1171.6631 C 874.1953 1171.0967 874.6507 1170.3875 874.9132 1169.6 L 875.208 1168.7155 C 875.2781 1168.5053 875.3382 1168.2919 875.388 1168.076 L 875.8577 1166.0406 C 875.8929 1165.8879 875.8595 1165.7275 875.7662 1165.6017 L 875.7662 1165.6017 C 875.6759 1165.4798 875.5252 1165.4183 875.3754 1165.4421 L 866.8955 1166.7912 C 866.8447 1166.7993 866.7939 1166.808 866.7432 1166.8172 L 853.7584 1169.178 C 853.6656 1169.1949 853.5725 1169.2099 853.4791 1169.223 L 842.2494 1170.7991 C 842.2293 1170.802 842.2091 1170.8049 842.189 1170.8079 L 829.0664 1172.7665 C 828.9017 1172.791 828.7361 1172.8097 828.57 1172.8225 L 815.8452 1173.8014 C 815.8279 1173.8027 815.8105 1173.804 815.7932 1173.8052 L 801.4531 1174.801 C 801.4305 1174.8026 801.4079 1174.804 801.3853 1174.8054 L 788.0821 1175.5996 C 788.0402 1175.6021 787.9982 1175.6042 787.9563 1175.606 L 773.76485 1176.1973 C 773.6678 1176.2013 773.5706 1176.2034 773.4734 1176.2034 L 760.2192 1176.2034 L 747.6775 1176.2034 C 747.63865 1176.2034 747.5998 1176.2037 747.5609 1176.2043 L 735.8025 1176.4003 C 735.6803 1176.4023 735.5581 1176.4012 735.436 1176.3968 L 724.6024 1176.0099 C 724.4803 1176.0055 724.3581 1176.0044 724.2359 1176.0064 L 712.5213 1176.2017 C 712.4532 1176.2028 712.3852 1176.2029 712.3171 1176.2021 L 696.61484 1176.0058 C 696.48444 1176.0042 696.3541 1175.9989 696.224 1175.99 L 681.9142 1175.0099 C 681.8509 1175.0055 681.7876 1175.0003 681.7244 1174.9943 L 667.2334 1173.6047 C 667.2239 1173.6038 667.2145 1173.6029 667.205 1173.602 L 653.393 1172.2207 C 653.27715 1172.2091 653.1616 1172.1947 653.0465 1172.1773 L 638.73735 1170.0212 C 638.6586 1170.0093 638.5796 1169.9988 638.5005 1169.9896 L 624.9806 1168.422 C 624.873 1168.4096 624.76574 1168.3946 624.65886 1168.3772 L 615.2668 1166.8438 C 615.1018 1166.8168 614.9378 1166.784 614.7752 1166.7453 L 605.6976 1164.5865 C 605.30925 1164.4942 604.9196 1164.7341 604.82724 1165.1224 C 604.82116 1165.148 604.8165 1165.1739 604.8132 1165.2 Z" fill="#006700"/>
      <path d="M 604.8132 1165.2 L 604.8132 1165.2 C 604.7475 1165.7255 604.81036 1166.259 604.9963 1166.7549 L 605.6473 1168.4909 C 605.82406 1168.9623 606.05115 1169.4132 606.3246 1169.8358 L 607.2924 1171.3315 C 607.8334 1172.1676 608.5465 1172.8785 609.3841 1173.417 L 610.4622 1174.11 C 610.7624 1174.3031 611.077 1174.4728 611.40316 1174.6179 L 612.72 1175.2035 C 613.31654 1175.4688 613.94725 1175.6493 614.5938 1175.7398 L 623.6042 1177.0013 C 623.6142 1177.0027 623.6242 1177.004 623.6342 1177.0054 L 635.3502 1178.594 C 635.3962 1178.6002 635.4423 1178.606 635.4884 1178.6113 L 645.7713 1179.7978 C 645.80324 1179.8015 645.8352 1179.805 645.8672 1179.8082 L 659.5772 1181.1991 C 659.6052 1181.202 659.6332 1181.2046 659.6612 1181.2071 L 670.7665 1182.1987 C 670.80164 1182.2018 670.8368 1182.2047 670.87195 1182.2073 L 681.5585 1182.9989 C 681.599 1183.0019 681.6395 1183.0045 681.68 1183.0068 L 692.188 1183.6016 C 692.2088 1183.6028 692.2296 1183.604 692.2504 1183.6054 L 704.2932 1184.3951 C 704.3772 1184.4006 704.4613 1184.4046 704.5454 1184.407 L 717.9926 1184.8026 C 718.0103 1184.8031 718.0281 1184.8037 718.04585 1184.8043 L 728.6897 1185.1986 C 728.776 1185.2018 728.8624 1185.2034 728.9488 1185.2034 L 739.5578 1185.2034 C 739.5987 1185.2034 739.6397 1185.2037 739.6806 1185.2044 L 750.767 1185.399 C 750.9351 1185.4019 751.1032 1185.3988 751.2711 1185.3896 L 761.8923 1184.8103 C 761.9769 1184.8057 762.0616 1184.8026 762.1463 1184.801 L 772.91085 1184.6053 C 772.9831 1184.604 773.0553 1184.6016 773.12745 1184.598 L 785.1461 1184.007 C 785.1948 1184.0046 785.2436 1184.0016 785.29225 1183.9982 L 796.5323 1183.2095 C 796.5902 1183.2054 796.6481 1183.2006 796.7059 1183.1951 L 809.1165 1182.0131 C 809.185 1182.0066 809.2535 1182.0011 809.3221 1181.9966 L 821.2542 1181.2142 C 821.3642 1181.207 821.474 1181.1972 821.5836 1181.1847 L 831.9959 1180.006 C 832.0114 1180.0042 832.027 1180.0024 832.0425 1180.0006 L 841.9902 1178.8068 C 842.0095 1178.8045 842.0289 1178.8021 842.0482 1178.7996 L 855.8839 1177.0221 C 855.9812 1177.0096 856.0781 1176.9951 856.1747 1176.9785 L 862.7282 1175.855 C 862.9292 1175.8206 863.1315 1175.795 863.3347 1175.7782 L 866.5671 1175.5112 C 867.4563 1175.4377 868.3233 1175.195 869.1214 1174.796 L 870.6076 1174.0528 C 871.2082 1173.7525 871.7625 1173.3674 872.2534 1172.9092 L 873.5885 1171.6631 C 874.1953 1171.0967 874.6507 1170.3875 874.9132 1169.6 L 875.208 1168.7155 C 875.2781 1168.5053 875.3382 1168.2919 875.388 1168.076 L 875.8577 1166.0406 C 875.8929 1165.8879 875.8595 1165.7275 875.7662 1165.6017 L 875.7662 1165.6017 C 875.6759 1165.4798 875.5252 1165.4183 875.3754 1165.4421 L 866.8955 1166.7912 C 866.8447 1166.7993 866.7939 1166.808 866.7432 1166.8172 L 853.7584 1169.178 C 853.6656 1169.1949 853.5725 1169.2099 853.4791 1169.223 L 842.2494 1170.7991 C 842.2293 1170.802 842.2091 1170.8049 842.189 1170.8079 L 829.0664 1172.7665 C 828.9017 1172.791 828.7361 1172.8097 828.57 1172.8225 L 815.8452 1173.8014 C 815.8279 1173.8027 815.8105 1173.804 815.7932 1173.8052 L 801.4531 1174.801 C 801.4305 1174.8026 801.4079 1174.804 801.3853 1174.8054 L 788.0821 1175.5996 C 788.0402 1175.6021 787.9982 1175.6042 787.9563 1175.606 L 773.76485 1176.1973 C 773.6678 1176.2013 773.5706 1176.2034 773.4734 1176.2034 L 760.2192 1176.2034 L 747.6775 1176.2034 C 747.63865 1176.2034 747.5998 1176.2037 747.5609 1176.2043 L 735.8025 1176.4003 C 735.6803 1176.4023 735.5581 1176.4012 735.436 1176.3968 L 724.6024 1176.0099 C 724.4803 1176.0055 724.3581 1176.0044 724.2359 1176.0064 L 712.5213 1176.2017 C 712.4532 1176.2028 712.3852 1176.2029 712.3171 1176.2021 L 696.61484 1176.0058 C 696.48444 1176.0042 696.3541 1175.9989 696.224 1175.99 L 681.9142 1175.0099 C 681.8509 1175.0055 681.7876 1175.0003 681.7244 1174.9943 L 667.2334 1173.6047 C 667.2239 1173.6038 667.2145 1173.6029 667.205 1173.602 L 653.393 1172.2207 C 653.27715 1172.2091 653.1616 1172.1947 653.0465 1172.1773 L 638.73735 1170.0212 C 638.6586 1170.0093 638.5796 1169.9988 638.5005 1169.9896 L 624.9806 1168.422 C 624.873 1168.4096 624.76574 1168.3946 624.65886 1168.3772 L 615.2668 1166.8438 C 615.1018 1166.8168 614.9378 1166.784 614.7752 1166.7453 L 605.6976 1164.5865 C 605.30925 1164.4942 604.9196 1164.7341 604.82724 1165.1224 C 604.82116 1165.148 604.8165 1165.1739 604.8132 1165.2 Z" stroke="#7f8080" stroke-linecap="round" stroke-linejoin="round" stroke-width="1"/>
      <path d="M 749 870 L 900.219 782.4461 L 888.2327 802.5434 L 881.4 817.5434 L 877.4 829.3434 L 873.8327 837.9434 L 871.2327 847.1434 L 867.4327 865.7434 L 864.8327 881.3434 L 865 891.9434 L 864.5 906 L 750.5 972.5 L 617.5 906 L 616.23274 884.3434 L 614.43274 869.9434 L 611.63274 853.1434 L 608.219 840.4461 L 602.83274 824.5434 L 598.219 812.4461 L 590.23274 797.9434 L 587.23274 792.3434 L 584.219 788.4461 L 581.219 782.4461 L 582.219 784.4461 Z" fill="yellow"/>
      <path d="M 749 870 L 900.219 782.4461 L 888.2327 802.5434 L 881.4 817.5434 L 877.4 829.3434 L 873.8327 837.9434 L 871.2327 847.1434 L 867.4327 865.7434 L 864.8327 881.3434 L 865 891.9434 L 864.5 906 L 750.5 972.5 L 617.5 906 L 616.23274 884.3434 L 614.43274 869.9434 L 611.63274 853.1434 L 608.219 840.4461 L 602.83274 824.5434 L 598.219 812.4461 L 590.23274 797.9434 L 587.23274 792.3434 L 584.219 788.4461 L 581.219 782.4461 L 582.219 784.4461 Z" stroke="#a5a5a5" stroke-linecap="round" stroke-linejoin="round" stroke-width=".5"/>
      <path d="M 607 840.5 L 610 851.5 L 613.5 865.5 L 615.5 878.5 L 616.5 879 L 750.5 941 L 866.5 877 L 868 869.5 L 869.5 860.5 L 871 852 L 873.5 841.5 L 749 907 Z" fill="#2d6a10"/>
      <path d="M 607 840.5 L 610 851.5 L 613.5 865.5 L 615.5 878.5 L 616.5 879 L 750.5 941 L 866.5 877 L 868 869.5 L 869.5 860.5 L 871 852 L 873.5 841.5 L 749 907 Z" stroke="#7f8080" stroke-linecap="round" stroke-linejoin="round" stroke-width="1"/>
    </g>
  </g>
</svg>
