<?xml version="1.0" encoding="UTF-8" standalone="no"?>
<!DOCTYPE svg PUBLIC "-//W3C//DTD SVG 1.1//EN" "http://www.w3.org/Graphics/SVG/1.1/DTD/svg11.dtd">
<svg xmlns="http://www.w3.org/2000/svg" xmlns:xl="http://www.w3.org/1999/xlink" version="1.1" viewBox="-125.5 -150.5 432.4053 448.4" width="432.4053pt" height="448.4pt" xmlns:dc="http://purl.org/dc/elements/1.1/">
  <metadata> Produced by OmniGraffle 7.6.1 
    <dc:date>2019-06-07 18:10:57 +0000</dc:date>
  </metadata>
  <defs>
    <radialGradient cx="0" cy="0" r="1" id="Gradient" gradientUnits="userSpaceOnUse">
      <stop offset="0" stop-color="#cbcbcb"/>
      <stop offset="1" stop-color="black"/>
    </radialGradient>
    <radialGradient id="Obj_Gradient" xl:href="#Gradient" gradientTransform="translate(89.75925 -122.6) scale(70.26272)"/>
    <linearGradient x1="0" x2="1" id="Gradient_2" gradientUnits="userSpaceOnUse">
      <stop offset="0" stop-color="yellow"/>
      <stop offset="1" stop-color="#333"/>
    </linearGradient>
    <linearGradient id="Obj_Gradient_2" xl:href="#Gradient_2" gradientTransform="translate(89.05925 -149.2441) rotate(90) scale(25)"/>
    <linearGradient x1="0" x2="1" id="Gradient_3" gradientUnits="userSpaceOnUse">
      <stop offset="0" stop-color="red"/>
      <stop offset="1" stop-color="#ba1200"/>
    </linearGradient>
    <linearGradient id="Obj_Gradient_3" xl:href="#Gradient_3" gradientTransform="translate(78.87141 -124.2441) rotate(90) scale(410.0441)"/>
  </defs>
  <g stroke="none" stroke-opacity="1" stroke-dasharray="none" fill="none" fill-opacity="1">
    <title>bulgaria</title>
    <g>
      <title>Layer 1</title>
      <path d="M 28.005654 -149.40955 L 36.171106 -146.29184 C 37.029097 -145.96424 37.90594 -145.68833 38.796923 -145.46558 L 52.5141 -142.03629 C 53.67576 -141.74587 54.85832 -141.54662 56.051005 -141.44034 L 73.57715 -139.8786 C 74.165 -139.82622 74.75464 -139.79648 75.34478 -139.78946 L 90.8237 -139.60519 C 91.11404 -139.60173 91.40442 -139.60377 91.69469 -139.61131 L 106.118 -139.98594 C 106.47878 -139.99531 106.8393 -140.01317 107.19924 -140.03951 L 121.57053 -141.09107 C 122.56197 -141.16361 123.54766 -141.30036 124.5214 -141.50044 L 136.09436 -143.87845 C 137.13637 -144.09256 138.16226 -144.3787 139.16465 -144.73481 L 150.91664 -148.90986 C 152.00702 -149.29723 153.21021 -148.76646 153.65925 -147.7 L 153.65925 -147.7 C 154.1814 -146.4599 154.33338 -145.09515 154.09685 -143.77055 L 153.91637 -142.75986 C 153.61259 -141.0587 153.11806 -139.3972 152.44214 -137.80681 L 150.89892 -134.17569 C 150.34035 -132.86142 149.6606 -131.60202 148.86846 -130.41382 L 145.18268 -124.88515 C 144.43517 -123.76389 143.59057 -122.71049 142.65861 -121.73711 L 136.36354 -115.16226 C 135.49547 -114.25561 134.55463 -113.42154 133.55046 -112.66841 L 125.17555 -106.38723 C 124.29914 -105.72992 123.37688 -105.13606 122.41582 -104.6102 L 115.23062 -100.67867 C 113.91949 -99.96126 112.54156 -99.37336 111.11638 -98.9233 L 104.44347 -96.81607 C 102.72659 -96.2739 100.952 -95.9352 99.15613 -95.80692 L 92.26968 -95.31503 C 91.19738 -95.23844 90.12103 -95.23712 89.04854 -95.31108 L 80.61229 -95.89289 C 79.57811 -95.96422 78.54994 -96.10537 77.53481 -96.3154 L 70.3996 -97.79165 C 68.44765 -98.1955 66.55647 -98.85139 64.77362 -99.74281 L 60.11421 -102.07252 C 58.88007 -102.68959 57.703967 -103.41646 56.60012 -104.24434 L 50.91816 -108.50581 C 50.479027 -108.83517 50.05182 -109.18013 49.63737 -109.54005 L 43.88219 -114.53797 C 43.067903 -115.24511 42.304363 -116.00865 41.59722 -116.82294 L 37.191995 -121.89562 C 36.437892 -122.76398 35.749984 -123.68768 35.13406 -124.65895 L 31.400357 -130.54671 C 31.03979 -131.1153 30.704365 -131.69944 30.39505 -132.29745 L 28.774675 -135.43017 C 28.16553 -136.60785 27.659362 -137.836 27.261825 -139.10089 L 25.981586 -143.17438 C 25.76681 -143.85775 25.58408 -144.55079 25.433986 -145.25122 L 25.359248 -145.6 C 25.164585 -146.50843 25.271846 -147.45557 25.664727 -148.29746 L 25.759248 -148.5 C 26.153724 -149.3453 27.134195 -149.7423 28.005654 -149.40955 Z" fill="url(#Obj_Gradient)"/>
      <path d="M 28.005654 -149.40955 L 36.171106 -146.29184 C 37.029097 -145.96424 37.90594 -145.68833 38.796923 -145.46558 L 52.5141 -142.03629 C 53.67576 -141.74587 54.85832 -141.54662 56.051005 -141.44034 L 73.57715 -139.8786 C 74.165 -139.82622 74.75464 -139.79648 75.34478 -139.78946 L 90.8237 -139.60519 C 91.11404 -139.60173 91.40442 -139.60377 91.69469 -139.61131 L 106.118 -139.98594 C 106.47878 -139.99531 106.8393 -140.01317 107.19924 -140.03951 L 121.57053 -141.09107 C 122.56197 -141.16361 123.54766 -141.30036 124.5214 -141.50044 L 136.09436 -143.87845 C 137.13637 -144.09256 138.16226 -144.3787 139.16465 -144.73481 L 150.91664 -148.90986 C 152.00702 -149.29723 153.21021 -148.76646 153.65925 -147.7 L 153.65925 -147.7 C 154.1814 -146.4599 154.33338 -145.09515 154.09685 -143.77055 L 153.91637 -142.75986 C 153.61259 -141.0587 153.11806 -139.3972 152.44214 -137.80681 L 150.89892 -134.17569 C 150.34035 -132.86142 149.6606 -131.60202 148.86846 -130.41382 L 145.18268 -124.88515 C 144.43517 -123.76389 143.59057 -122.71049 142.65861 -121.73711 L 136.36354 -115.16226 C 135.49547 -114.25561 134.55463 -113.42154 133.55046 -112.66841 L 125.17555 -106.38723 C 124.29914 -105.72992 123.37688 -105.13606 122.41582 -104.6102 L 115.23062 -100.67867 C 113.91949 -99.96126 112.54156 -99.37336 111.11638 -98.9233 L 104.44347 -96.81607 C 102.72659 -96.2739 100.952 -95.9352 99.15613 -95.80692 L 92.26968 -95.31503 C 91.19738 -95.23844 90.12103 -95.23712 89.04854 -95.31108 L 80.61229 -95.89289 C 79.57811 -95.96422 78.54994 -96.10537 77.53481 -96.3154 L 70.3996 -97.79165 C 68.44765 -98.1955 66.55647 -98.85139 64.77362 -99.74281 L 60.11421 -102.07252 C 58.88007 -102.68959 57.703967 -103.41646 56.60012 -104.24434 L 50.91816 -108.50581 C 50.479027 -108.83517 50.05182 -109.18013 49.63737 -109.54005 L 43.88219 -114.53797 C 43.067903 -115.24511 42.304363 -116.00865 41.59722 -116.82294 L 37.191995 -121.89562 C 36.437892 -122.76398 35.749984 -123.68768 35.13406 -124.65895 L 31.400357 -130.54671 C 31.03979 -131.1153 30.704365 -131.69944 30.39505 -132.29745 L 28.774675 -135.43017 C 28.16553 -136.60785 27.659362 -137.836 27.261825 -139.10089 L 25.981586 -143.17438 C 25.76681 -143.85775 25.58408 -144.55079 25.433986 -145.25122 L 25.359248 -145.6 C 25.164585 -146.50843 25.271846 -147.45557 25.664727 -148.29746 L 25.759248 -148.5 C 26.153724 -149.3453 27.134195 -149.7423 28.005654 -149.40955 Z" stroke="#7f8080" stroke-linecap="round" stroke-linejoin="round" stroke-width="1"/>
      <path d="M -36.026545 287.2638 L -22.284304 289.55416 C -22.100928 289.58472 -21.917032 289.6121 -21.732702 289.63624 L 6.62094 293.35154 C 6.867468 293.38385 7.114715 293.4104 7.362481 293.43118 L 37.60537 295.96768 C 37.862274 295.98923 38.11966 296.00456 38.377307 296.01367 L 77.30822 297.39 C 77.49658 297.39668 77.68504 297.4 77.87352 297.4 L 109.34084 297.4 C 109.50746 297.4 109.67407 297.3974 109.8406 297.3922 L 134.87539 296.60986 C 135.08563 296.6033 135.29573 296.59258 135.50555 296.57772 L 157.5533 295.01682 C 157.71161 295.0056 157.86975 294.99205 158.02766 294.97614 L 183.28815 292.4305 C 183.48989 292.41017 183.69122 292.386 183.89204 292.35803 L 207.68474 289.04265 C 207.88875 289.01422 208.0922 288.98186 208.29496 288.94558 L 217.49079 287.3 C 222.8179 286.34674 226.46876 281.3931 225.80234 276.02255 L 223.59475 258.23198 C 223.5921 258.21066 223.5895 258.18934 223.58695 258.168 L 220.02312 228.4695 C 220.00157 228.28985 219.98306 228.10985 219.9676 227.92958 L 217.6054 200.37037 C 217.59565 200.2568 217.58713 200.14312 217.57983 200.02936 L 216.1932 178.43772 C 216.1916 178.41258 216.18992 178.38744 216.18818 178.3623 L 214.59603 155.27599 C 214.59253 155.22533 214.58928 155.17466 214.58627 155.12398 L 213.4099 135.3218 C 213.39716 135.1073 213.38874 134.89255 213.38465 134.6777 L 212.99236 114.08285 C 212.9913 114.02762 212.98997 113.9724 212.98835 113.91718 L 212.39322 93.68283 C 212.3916 93.62761 212.39026 93.57239 212.3892 93.51715 L 211.99855 73.00761 C 211.99337 72.73592 211.99512 72.46413 212.0038 72.19253 L 212.58973 53.83292 C 212.59044 53.810975 212.59118 53.78903 212.59197 53.767093 L 213.38005 31.897785 C 213.3872 31.69928 213.39806 31.500927 213.4126 31.302826 L 214.97007 10.082208 C 214.98388 9.894086 214.99436 9.705734 215.0015 9.51724 L 215.75596 -10.381627 C 215.77915 -10.993372 215.83744 -11.603282 215.93052 -12.208348 L 218.66953 -30.011866 C 218.7503 -30.536964 218.8572 -31.05771 218.9898 -31.572175 L 223.61806 -49.529826 C 223.73316 -49.9764 223.8675 -50.417787 224.02073 -50.852753 L 229.74152 -67.092394 C 229.9076 -67.56387 230.0957 -68.02731 230.30517 -68.48117 L 235.83673 -80.46621 C 235.93942 -80.68871 236.0472 -80.90881 236.16 -81.12636 L 241.52223 -91.46778 C 241.56793 -91.55593 241.61446 -91.64364 241.6618 -91.73092 L 246.87777 -101.34788 C 247.61505 -102.70724 248.56468 -103.94013 249.6908 -105 L 249.6908 -105 C 250.36598 -105.63547 250.39817 -106.69797 249.7627 -107.37316 C 249.6382 -107.50544 249.49307 -107.61663 249.33295 -107.70241 L 246.1188 -109.42427 C 245.90016 -109.54141 245.6788 -109.65344 245.45494 -109.76029 L 237.60097 -113.50878 C 237.19436 -113.70284 236.77974 -113.87964 236.3582 -114.03871 L 226.68338 -117.68959 C 226.48833 -117.76319 226.29187 -117.83297 226.0941 -117.8989 L 213.39963 -122.13038 C 213.2604 -122.17679 213.12055 -122.22128 212.9801 -122.26384 L 200.09658 -126.16794 C 200.02605 -126.18931 199.95567 -126.21117 199.88544 -126.23352 L 187.38144 -130.21206 C 186.98782 -130.3373 186.5992 -130.47775 186.21643 -130.63307 L 174.24049 -135.49287 C 173.40883 -135.83036 172.60704 -136.23723 171.8436 -136.70917 L 162.22436 -142.65561 C 162.06865 -142.75186 161.91461 -142.85078 161.7623 -142.95232 L 156.8722 -146.21238 C 155.89081 -146.86665 155.0195 -147.67255 154.29078 -148.6 L 154.29078 -148.6 C 154.18518 -148.7344 153.99062 -148.75775 153.85621 -148.65215 C 153.75347 -148.57142 153.7125 -148.43487 153.75381 -148.31092 L 153.89078 -147.9 C 154.35003 -146.52225 154.4546 -145.05096 154.1948 -143.62211 L 153.79967 -141.44885 C 153.52845 -139.95719 153.0466 -138.51165 152.36858 -137.1556 L 150.83626 -134.09096 C 150.53956 -133.49756 150.20624 -132.92319 149.83823 -132.37117 L 146.63453 -127.56562 C 146.20593 -126.92272 145.73132 -126.3117 145.21443 -125.73739 L 140.65238 -120.66844 C 140.61132 -120.62281 140.56999 -120.57742 140.5284 -120.53227 L 134.53417 -114.02424 C 133.90643 -113.3427 133.22068 -112.71698 132.48465 -112.15413 L 127.46047 -108.31211 C 127.01432 -107.97094 126.55052 -107.6535 126.07099 -107.3611 L 119.58458 -103.40597 C 118.92292 -103.00252 118.23283 -102.64768 117.51975 -102.34424 L 110.40434 -99.3164 C 109.59667 -98.97272 108.7621 -98.69607 107.90905 -98.48928 L 103.83 -97.50041 C 103.00516 -97.30045 102.16573 -97.16644 101.31963 -97.09965 L 95.61943 -96.64963 C 95.20049 -96.61656 94.78042 -96.6 94.36019 -96.6 L 87.32787 -96.6 C 86.57077 -96.6 85.81462 -96.65374 85.06513 -96.76081 L 77.11868 -97.89601 C 76.63367 -97.9653 76.1521 -98.05683 75.67549 -98.17031 L 69.71426 -99.58965 C 68.56878 -99.86238 67.4569 -100.26073 66.39883 -100.77747 L 60.118824 -103.84444 C 59.633774 -104.08133 59.16102 -104.34261 58.70238 -104.62728 L 54.49052 -107.24154 C 53.89135 -107.61344 53.317424 -108.02454 52.772495 -108.47216 L 48.32639 -112.12432 C 48.10269 -112.30807 47.884024 -112.49786 47.670626 -112.69348 L 43.868283 -116.17896 C 43.41699 -116.59264 42.98981 -117.03189 42.58885 -117.49454 L 38.470106 -122.24693 C 38.150724 -122.61545 37.848357 -122.99838 37.56395 -123.39451 L 33.134297 -129.56439 C 32.639405 -130.2537 32.200134 -130.9813 31.82064 -131.74028 L 29.244178 -136.89321 C 29.20858 -136.9644 29.173517 -137.03586 29.138986 -137.10758 L 27.890782 -139.7 C 27.040068 -141.46687 26.684547 -143.4314 26.862088 -145.38436 L 27.042293 -147.36661 C 27.0661 -147.62848 26.873116 -147.86006 26.611253 -147.88386 C 26.448858 -147.89862 26.290205 -147.82925 26.190782 -147.7 L 26.190782 -147.7 C 25.527336 -146.83752 24.747228 -146.07144 23.87285 -145.42375 L 19.976317 -142.53743 C 19.852634 -142.44582 19.727635 -142.35599 19.60136 -142.26798 L 14.979109 -139.04641 C 13.792373 -138.21929 12.498952 -137.55692 11.134202 -137.07742 L 6.527076 -135.4587 C 6.036505 -135.28633 5.554628 -135.09016 5.08316 -134.87087 L -1.7636214 -131.68632 C -2.459783 -131.36253 -3.178348 -131.08926 -3.913747 -130.86864 L -14.784136 -127.60752 C -14.800857 -127.60251 -14.81757 -127.59746 -14.834276 -127.5924 L -25.802363 -124.2628 C -25.94026 -124.22093 -26.077586 -124.17721 -26.214302 -124.13164 L -39.135536 -119.82456 C -39.184657 -119.80819 -39.23386 -119.79205 -39.283136 -119.77616 L -50.65054 -116.10925 C -51.28903 -115.90329 -51.91393 -115.65737 -52.52154 -115.37296 L -60.453505 -111.66012 C -60.823845 -111.48677 -61.1874 -111.29929 -61.54338 -111.09808 L -67.48949 -107.73724 C -68.74253 -107.029 -69.18417 -105.43907 -68.47594 -104.18604 C -68.39882 -104.0496 -68.30955 -103.9204 -68.20922 -103.8 L -67.34511 -102.76307 C -66.59016 -101.85713 -65.93769 -100.87051 -65.39957 -99.82118 L -62.32243 -93.82076 C -62.24696 -93.6736 -62.16921 -93.52761 -62.089216 -93.38285 L -58.134464 -86.22663 C -58.05097 -86.07555 -57.96993 -85.92313 -57.89137 -85.76943 L -53.78307 -77.73144 C -53.534 -77.244135 -53.310096 -76.74437 -53.11224 -76.23411 L -49.629474 -67.252235 C -49.61597 -67.21741 -49.602345 -67.182634 -49.5886 -67.147906 L -45.992276 -58.06246 C -45.870267 -57.75423 -45.75787 -57.442277 -45.65524 -57.12706 L -43.033404 -49.074284 C -43.01728 -49.02476 -43.0014 -48.97516 -42.98576 -48.92548 L -39.91371 -39.16721 C -39.71092 -38.52305 -39.549114 -37.866694 -39.429267 -37.202085 L -37.443955 -26.192628 C -37.4208 -26.064213 -37.399213 -25.93552 -37.379205 -25.806577 L -35.673335 -14.813195 C -35.6306 -14.537777 -35.595065 -14.26129 -35.56677 -13.984016 L -34.67935 -5.2873014 C -34.632618 -4.8293124 -34.605673 -4.36952 -34.59859 -3.909207 L -34.41435 8.066414 C -34.41093 8.288782 -34.402873 8.511054 -34.390185 8.733086 L -33.61981 22.214648 C -33.61275 22.338214 -33.604255 22.461693 -33.59433 22.58506 L -32.26076 39.159433 C -32.226412 39.586308 -32.20922 40.01439 -32.20922 40.442643 L -32.20922 52.892424 C -32.20922 53.09746 -32.205277 53.30247 -32.197397 53.507354 L -31.617046 68.59649 C -31.611828 68.73216 -31.608337 68.86789 -31.606574 69.00365 L -31.414415 83.7999 C -31.41095 84.06659 -31.414157 84.33333 -31.424028 84.59986 L -31.998256 100.10401 C -32.005564 100.30132 -32.00922 100.49875 -32.00922 100.6962 L -32.00922 114.29243 C -32.00922 114.49746 -32.01316 114.70247 -32.02104 114.90736 L -32.606232 130.12236 C -32.608223 130.17412 -32.610465 130.22588 -32.61296 130.27762 L -33.40828 146.78055 C -33.408906 146.79352 -33.409547 146.80649 -33.410203 146.81945 L -34.204693 162.51062 C -34.20771 162.5702 -34.21106 162.62978 -34.214744 162.68933 L -35.403655 181.91007 C -35.407364 181.97003 -35.41141 182.02996 -35.415794 182.08987 L -37.19893 206.45942 C -37.20579 206.55314 -37.213473 206.6468 -37.22198 206.74038 L -39.00787 226.3852 C -39.00877 226.39507 -39.009676 226.40494 -39.01059 226.4148 L -40.781357 245.49972 C -40.79993 245.6999 -40.822274 245.8997 -40.848377 246.09903 L -42.80909 261.07175 C -42.9419 262.08594 -43.21104 263.07756 -43.60922 264.01973 L -43.60922 264.01973 C -44.006794 264.96048 -44.25546 265.9574 -44.346286 266.97465 L -45.10922 275.51973 C -45.616975 281.20676 -41.65851 286.32512 -36.026545 287.2638 Z" fill="#00751a"/>
      <path d="M -36.026545 287.2638 L -22.284304 289.55416 C -22.100928 289.58472 -21.917032 289.6121 -21.732702 289.63624 L 6.62094 293.35154 C 6.867468 293.38385 7.114715 293.4104 7.362481 293.43118 L 37.60537 295.96768 C 37.862274 295.98923 38.11966 296.00456 38.377307 296.01367 L 77.30822 297.39 C 77.49658 297.39668 77.68504 297.4 77.87352 297.4 L 109.34084 297.4 C 109.50746 297.4 109.67407 297.3974 109.8406 297.3922 L 134.87539 296.60986 C 135.08563 296.6033 135.29573 296.59258 135.50555 296.57772 L 157.5533 295.01682 C 157.71161 295.0056 157.86975 294.99205 158.02766 294.97614 L 183.28815 292.4305 C 183.48989 292.41017 183.69122 292.386 183.89204 292.35803 L 207.68474 289.04265 C 207.88875 289.01422 208.0922 288.98186 208.29496 288.94558 L 217.49079 287.3 C 222.8179 286.34674 226.46876 281.3931 225.80234 276.02255 L 223.59475 258.23198 C 223.5921 258.21066 223.5895 258.18934 223.58695 258.168 L 220.02312 228.4695 C 220.00157 228.28985 219.98306 228.10985 219.9676 227.92958 L 217.6054 200.37037 C 217.59565 200.2568 217.58713 200.14312 217.57983 200.02936 L 216.1932 178.43772 C 216.1916 178.41258 216.18992 178.38744 216.18818 178.3623 L 214.59603 155.27599 C 214.59253 155.22533 214.58928 155.17466 214.58627 155.12398 L 213.4099 135.3218 C 213.39716 135.1073 213.38874 134.89255 213.38465 134.6777 L 212.99236 114.08285 C 212.9913 114.02762 212.98997 113.9724 212.98835 113.91718 L 212.39322 93.68283 C 212.3916 93.62761 212.39026 93.57239 212.3892 93.51715 L 211.99855 73.00761 C 211.99337 72.73592 211.99512 72.46413 212.0038 72.19253 L 212.58973 53.83292 C 212.59044 53.810975 212.59118 53.78903 212.59197 53.767093 L 213.38005 31.897785 C 213.3872 31.69928 213.39806 31.500927 213.4126 31.302826 L 214.97007 10.082208 C 214.98388 9.894086 214.99436 9.705734 215.0015 9.51724 L 215.75596 -10.381627 C 215.77915 -10.993372 215.83744 -11.603282 215.93052 -12.208348 L 218.66953 -30.011866 C 218.7503 -30.536964 218.8572 -31.05771 218.9898 -31.572175 L 223.61806 -49.529826 C 223.73316 -49.9764 223.8675 -50.417787 224.02073 -50.852753 L 229.74152 -67.092394 C 229.9076 -67.56387 230.0957 -68.02731 230.30517 -68.48117 L 235.83673 -80.46621 C 235.93942 -80.68871 236.0472 -80.90881 236.16 -81.12636 L 241.52223 -91.46778 C 241.56793 -91.55593 241.61446 -91.64364 241.6618 -91.73092 L 246.87777 -101.34788 C 247.61505 -102.70724 248.56468 -103.94013 249.6908 -105 L 249.6908 -105 C 250.36598 -105.63547 250.39817 -106.69797 249.7627 -107.37316 C 249.6382 -107.50544 249.49307 -107.61663 249.33295 -107.70241 L 246.1188 -109.42427 C 245.90016 -109.54141 245.6788 -109.65344 245.45494 -109.76029 L 237.60097 -113.50878 C 237.19436 -113.70284 236.77974 -113.87964 236.3582 -114.03871 L 226.68338 -117.68959 C 226.48833 -117.76319 226.29187 -117.83297 226.0941 -117.8989 L 213.39963 -122.13038 C 213.2604 -122.17679 213.12055 -122.22128 212.9801 -122.26384 L 200.09658 -126.16794 C 200.02605 -126.18931 199.95567 -126.21117 199.88544 -126.23352 L 187.38144 -130.21206 C 186.98782 -130.3373 186.5992 -130.47775 186.21643 -130.63307 L 174.24049 -135.49287 C 173.40883 -135.83036 172.60704 -136.23723 171.8436 -136.70917 L 162.22436 -142.65561 C 162.06865 -142.75186 161.91461 -142.85078 161.7623 -142.95232 L 156.8722 -146.21238 C 155.89081 -146.86665 155.0195 -147.67255 154.29078 -148.6 L 154.29078 -148.6 C 154.18518 -148.7344 153.99062 -148.75775 153.85621 -148.65215 C 153.75347 -148.57142 153.7125 -148.43487 153.75381 -148.31092 L 153.89078 -147.9 C 154.35003 -146.52225 154.4546 -145.05096 154.1948 -143.62211 L 153.79967 -141.44885 C 153.52845 -139.95719 153.0466 -138.51165 152.36858 -137.1556 L 150.83626 -134.09096 C 150.53956 -133.49756 150.20624 -132.92319 149.83823 -132.37117 L 146.63453 -127.56562 C 146.20593 -126.92272 145.73132 -126.3117 145.21443 -125.73739 L 140.65238 -120.66844 C 140.61132 -120.62281 140.56999 -120.57742 140.5284 -120.53227 L 134.53417 -114.02424 C 133.90643 -113.3427 133.22068 -112.71698 132.48465 -112.15413 L 127.46047 -108.31211 C 127.01432 -107.97094 126.55052 -107.6535 126.07099 -107.3611 L 119.58458 -103.40597 C 118.92292 -103.00252 118.23283 -102.64768 117.51975 -102.34424 L 110.40434 -99.3164 C 109.59667 -98.97272 108.7621 -98.69607 107.90905 -98.48928 L 103.83 -97.50041 C 103.00516 -97.30045 102.16573 -97.16644 101.31963 -97.09965 L 95.61943 -96.64963 C 95.20049 -96.61656 94.78042 -96.6 94.36019 -96.6 L 87.32787 -96.6 C 86.57077 -96.6 85.81462 -96.65374 85.06513 -96.76081 L 77.11868 -97.89601 C 76.63367 -97.9653 76.1521 -98.05683 75.67549 -98.17031 L 69.71426 -99.58965 C 68.56878 -99.86238 67.4569 -100.26073 66.39883 -100.77747 L 60.118824 -103.84444 C 59.633774 -104.08133 59.16102 -104.34261 58.70238 -104.62728 L 54.49052 -107.24154 C 53.89135 -107.61344 53.317424 -108.02454 52.772495 -108.47216 L 48.32639 -112.12432 C 48.10269 -112.30807 47.884024 -112.49786 47.670626 -112.69348 L 43.868283 -116.17896 C 43.41699 -116.59264 42.98981 -117.03189 42.58885 -117.49454 L 38.470106 -122.24693 C 38.150724 -122.61545 37.848357 -122.99838 37.56395 -123.39451 L 33.134297 -129.56439 C 32.639405 -130.2537 32.200134 -130.9813 31.82064 -131.74028 L 29.244178 -136.89321 C 29.20858 -136.9644 29.173517 -137.03586 29.138986 -137.10758 L 27.890782 -139.7 C 27.040068 -141.46687 26.684547 -143.4314 26.862088 -145.38436 L 27.042293 -147.36661 C 27.0661 -147.62848 26.873116 -147.86006 26.611253 -147.88386 C 26.448858 -147.89862 26.290205 -147.82925 26.190782 -147.7 L 26.190782 -147.7 C 25.527336 -146.83752 24.747228 -146.07144 23.87285 -145.42375 L 19.976317 -142.53743 C 19.852634 -142.44582 19.727635 -142.35599 19.60136 -142.26798 L 14.979109 -139.04641 C 13.792373 -138.21929 12.498952 -137.55692 11.134202 -137.07742 L 6.527076 -135.4587 C 6.036505 -135.28633 5.554628 -135.09016 5.08316 -134.87087 L -1.7636214 -131.68632 C -2.459783 -131.36253 -3.178348 -131.08926 -3.913747 -130.86864 L -14.784136 -127.60752 C -14.800857 -127.60251 -14.81757 -127.59746 -14.834276 -127.5924 L -25.802363 -124.2628 C -25.94026 -124.22093 -26.077586 -124.17721 -26.214302 -124.13164 L -39.135536 -119.82456 C -39.184657 -119.80819 -39.23386 -119.79205 -39.283136 -119.77616 L -50.65054 -116.10925 C -51.28903 -115.90329 -51.91393 -115.65737 -52.52154 -115.37296 L -60.453505 -111.66012 C -60.823845 -111.48677 -61.1874 -111.29929 -61.54338 -111.09808 L -67.48949 -107.73724 C -68.74253 -107.029 -69.18417 -105.43907 -68.47594 -104.18604 C -68.39882 -104.0496 -68.30955 -103.9204 -68.20922 -103.8 L -67.34511 -102.76307 C -66.59016 -101.85713 -65.93769 -100.87051 -65.39957 -99.82118 L -62.32243 -93.82076 C -62.24696 -93.6736 -62.16921 -93.52761 -62.089216 -93.38285 L -58.134464 -86.22663 C -58.05097 -86.07555 -57.96993 -85.92313 -57.89137 -85.76943 L -53.78307 -77.73144 C -53.534 -77.244135 -53.310096 -76.74437 -53.11224 -76.23411 L -49.629474 -67.252235 C -49.61597 -67.21741 -49.602345 -67.182634 -49.5886 -67.147906 L -45.992276 -58.06246 C -45.870267 -57.75423 -45.75787 -57.442277 -45.65524 -57.12706 L -43.033404 -49.074284 C -43.01728 -49.02476 -43.0014 -48.97516 -42.98576 -48.92548 L -39.91371 -39.16721 C -39.71092 -38.52305 -39.549114 -37.866694 -39.429267 -37.202085 L -37.443955 -26.192628 C -37.4208 -26.064213 -37.399213 -25.93552 -37.379205 -25.806577 L -35.673335 -14.813195 C -35.6306 -14.537777 -35.595065 -14.26129 -35.56677 -13.984016 L -34.67935 -5.2873014 C -34.632618 -4.8293124 -34.605673 -4.36952 -34.59859 -3.909207 L -34.41435 8.066414 C -34.41093 8.288782 -34.402873 8.511054 -34.390185 8.733086 L -33.61981 22.214648 C -33.61275 22.338214 -33.604255 22.461693 -33.59433 22.58506 L -32.26076 39.159433 C -32.226412 39.586308 -32.20922 40.01439 -32.20922 40.442643 L -32.20922 52.892424 C -32.20922 53.09746 -32.205277 53.30247 -32.197397 53.507354 L -31.617046 68.59649 C -31.611828 68.73216 -31.608337 68.86789 -31.606574 69.00365 L -31.414415 83.7999 C -31.41095 84.06659 -31.414157 84.33333 -31.424028 84.59986 L -31.998256 100.10401 C -32.005564 100.30132 -32.00922 100.49875 -32.00922 100.6962 L -32.00922 114.29243 C -32.00922 114.49746 -32.01316 114.70247 -32.02104 114.90736 L -32.606232 130.12236 C -32.608223 130.17412 -32.610465 130.22588 -32.61296 130.27762 L -33.40828 146.78055 C -33.408906 146.79352 -33.409547 146.80649 -33.410203 146.81945 L -34.204693 162.51062 C -34.20771 162.5702 -34.21106 162.62978 -34.214744 162.68933 L -35.403655 181.91007 C -35.407364 181.97003 -35.41141 182.02996 -35.415794 182.08987 L -37.19893 206.45942 C -37.20579 206.55314 -37.213473 206.6468 -37.22198 206.74038 L -39.00787 226.3852 C -39.00877 226.39507 -39.009676 226.40494 -39.01059 226.4148 L -40.781357 245.49972 C -40.79993 245.6999 -40.822274 245.8997 -40.848377 246.09903 L -42.80909 261.07175 C -42.9419 262.08594 -43.21104 263.07756 -43.60922 264.01973 L -43.60922 264.01973 C -44.006794 264.96048 -44.25546 265.9574 -44.346286 266.97465 L -45.10922 275.51973 C -45.616975 281.20676 -41.65851 286.32512 -36.026545 287.2638 Z" stroke="#7f8080" stroke-linecap="round" stroke-linejoin="round" stroke-width="1"/>
      <path d="M -125 1.4461456 L -118.8 5.846146 L -110.6 9.846146 L -102 13.446146 L -93 17.246146 L -82 21.246146 L -72.6 24.046146 L -63.6 26.646146 L -54.6 29.246146 L -49.2 30.646146 L -43.6 31.646146 L -41.2 25.846146 L -38.6 20.446146 L -36.4 16.446146 L -33.8 13.046146 L -33.6 4.0461456 L -34.2 -6.9538545 L -36 -17.753855 L -37.6 -28.153855 L -40.2 -39.153855 L -42.6 -48.753855 L -45.4 -56.753855 L -48.6 -66.153855 L -51.4 -73.553856 L -55 -81.15386 L -59 -88.75386 L -63 -96.15386 L -65.6 -99.75386 L -69.2 -105.55386 L -74.6 -101.15386 L -79.4 -96.35386 L -84 -90.15386 L -88.4 -83.95386 L -93.2 -75.35386 L -98 -65.953855 L -102.8 -56.753855 L -106.4 -48.153855 L -110.4 -39.153855 L -113.6 -30.953855 L -117.4 -21.553855 L -120.2 -13.553855 L -123.2 -5.1538545 Z" fill="#005d0c"/>
      <path d="M -125 1.4461456 L -118.8 5.846146 L -110.6 9.846146 L -102 13.446146 L -93 17.246146 L -82 21.246146 L -72.6 24.046146 L -63.6 26.646146 L -54.6 29.246146 L -49.2 30.646146 L -43.6 31.646146 L -41.2 25.846146 L -38.6 20.446146 L -36.4 16.446146 L -33.8 13.046146 L -33.6 4.0461456 L -34.2 -6.9538545 L -36 -17.753855 L -37.6 -28.153855 L -40.2 -39.153855 L -42.6 -48.753855 L -45.4 -56.753855 L -48.6 -66.153855 L -51.4 -73.553856 L -55 -81.15386 L -59 -88.75386 L -63 -96.15386 L -65.6 -99.75386 L -69.2 -105.55386 L -74.6 -101.15386 L -79.4 -96.35386 L -84 -90.15386 L -88.4 -83.95386 L -93.2 -75.35386 L -98 -65.953855 L -102.8 -56.753855 L -106.4 -48.153855 L -110.4 -39.153855 L -113.6 -30.953855 L -117.4 -21.553855 L -120.2 -13.553855 L -123.2 -5.1538545 Z" stroke="#7f8080" stroke-linecap="round" stroke-linejoin="round" stroke-width="1"/>
      <path d="M 306.4053 .50274937 L 300.2053 4.9027494 L 292.0053 8.90275 L 283.4053 12.50275 L 274.4053 16.30275 L 263.4053 20.30275 L 254.0053 23.10275 L 245.0053 25.70275 L 236.0053 28.30275 L 230.6053 29.70275 L 225.0053 30.70275 L 222.6053 24.90275 L 220.0053 19.50275 L 217.8053 15.50275 L 215.2053 12.10275 L 215.0053 3.1027494 L 215.6053 -7.897251 L 217.4053 -18.69725 L 219.0053 -29.09725 L 221.6053 -40.09725 L 224.0053 -49.69725 L 226.8053 -57.69725 L 230.0053 -67.09725 L 232.8053 -74.49725 L 236.4053 -82.09725 L 240.4053 -89.69725 L 244.4053 -97.09725 L 247.0053 -100.69725 L 250.6053 -106.49725 L 256.0053 -102.09725 L 260.8053 -97.29725 L 265.4053 -91.09725 L 269.8053 -84.89725 L 274.6053 -76.29725 L 279.4053 -66.89725 L 284.2053 -57.69725 L 287.8053 -49.09725 L 291.8053 -40.09725 L 295.0053 -31.89725 L 298.8053 -22.49725 L 301.6053 -14.49725 L 304.6053 -6.097251 Z" fill="#006119"/>
      <path d="M 306.4053 .50274937 L 300.2053 4.9027494 L 292.0053 8.90275 L 283.4053 12.50275 L 274.4053 16.30275 L 263.4053 20.30275 L 254.0053 23.10275 L 245.0053 25.70275 L 236.0053 28.30275 L 230.6053 29.70275 L 225.0053 30.70275 L 222.6053 24.90275 L 220.0053 19.50275 L 217.8053 15.50275 L 215.2053 12.10275 L 215.0053 3.1027494 L 215.6053 -7.897251 L 217.4053 -18.69725 L 219.0053 -29.09725 L 221.6053 -40.09725 L 224.0053 -49.69725 L 226.8053 -57.69725 L 230.0053 -67.09725 L 232.8053 -74.49725 L 236.4053 -82.09725 L 240.4053 -89.69725 L 244.4053 -97.09725 L 247.0053 -100.69725 L 250.6053 -106.49725 L 256.0053 -102.09725 L 260.8053 -97.29725 L 265.4053 -91.09725 L 269.8053 -84.89725 L 274.6053 -76.29725 L 279.4053 -66.89725 L 284.2053 -57.69725 L 287.8053 -49.09725 L 291.8053 -40.09725 L 295.0053 -31.89725 L 298.8053 -22.49725 L 301.6053 -14.49725 L 304.6053 -6.097251 Z" stroke="#7f8080" stroke-linecap="round" stroke-linejoin="round" stroke-width="1"/>
      <path d="M -125 1.4461456 L -118.8 5.846146 L -110.6 9.846146 L -102 13.446146 L -93 17.246146 L -82 21.246146 L -72.6 24.046146 L -63.6 26.646146 L -54.6 29.246146 L -49.2 30.646146 L -43.6 31.646146 L -40.6 25.246146 L -44.4 24.446146 L -49.2 23.246146 L -54.8 22.046146 L -60.8 20.246146 L -65.4 18.846146 L -69.6 17.646146 L -74.2 15.646146 L -78.8 14.046146 L -83.6 12.046146 L -87.6 10.646146 L -92.8 8.446146 L -97.4 6.846146 L -102.2 4.6461456 L -107 2.8461456 L -111 .8461456 L -115.4 -1.3538544 L -119.8 -3.5538545 L -123.2 -5.1538545 Z" fill="yellow"/>
      <path d="M -125 1.4461456 L -118.8 5.846146 L -110.6 9.846146 L -102 13.446146 L -93 17.246146 L -82 21.246146 L -72.6 24.046146 L -63.6 26.646146 L -54.6 29.246146 L -49.2 30.646146 L -43.6 31.646146 L -40.6 25.246146 L -44.4 24.446146 L -49.2 23.246146 L -54.8 22.046146 L -60.8 20.246146 L -65.4 18.846146 L -69.6 17.646146 L -74.2 15.646146 L -78.8 14.046146 L -83.6 12.046146 L -87.6 10.646146 L -92.8 8.446146 L -97.4 6.846146 L -102.2 4.6461456 L -107 2.8461456 L -111 .8461456 L -115.4 -1.3538544 L -119.8 -3.5538545 L -123.2 -5.1538545 Z" stroke="#7f8080" stroke-linecap="round" stroke-linejoin="round" stroke-width="1"/>
      <path d="M 306.4053 .50274937 L 300.2053 4.9027494 L 292.0053 8.90275 L 283.4053 12.50275 L 274.4053 16.30275 L 263.4053 20.30275 L 254.0053 23.10275 L 245.0053 25.70275 L 236.0053 28.30275 L 230.6053 29.70275 L 225.0053 30.70275 L 222.0053 24.30275 L 225.8053 23.50275 L 230.6053 22.30275 L 236.2053 21.10275 L 242.2053 19.30275 L 246.8053 17.90275 L 251.0053 16.70275 L 255.6053 14.70275 L 260.2053 13.10275 L 265.0053 11.10275 L 269.0053 9.70275 L 274.2053 7.5027495 L 278.8053 5.9027494 L 283.6053 3.7027494 L 288.4053 1.9027494 L 292.4053 -.09725064 L 296.8053 -2.2972507 L 301.2053 -4.4972507 L 304.6053 -6.097251 Z" fill="yellow"/>
      <path d="M 306.4053 .50274937 L 300.2053 4.9027494 L 292.0053 8.90275 L 283.4053 12.50275 L 274.4053 16.30275 L 263.4053 20.30275 L 254.0053 23.10275 L 245.0053 25.70275 L 236.0053 28.30275 L 230.6053 29.70275 L 225.0053 30.70275 L 222.0053 24.30275 L 225.8053 23.50275 L 230.6053 22.30275 L 236.2053 21.10275 L 242.2053 19.30275 L 246.8053 17.90275 L 251.0053 16.70275 L 255.6053 14.70275 L 260.2053 13.10275 L 265.0053 11.10275 L 269.0053 9.70275 L 274.2053 7.5027495 L 278.8053 5.9027494 L 283.6053 3.7027494 L 288.4053 1.9027494 L 292.4053 -.09725064 L 296.8053 -2.2972507 L 301.2053 -4.4972507 L 304.6053 -6.097251 Z" stroke="#7f8080" stroke-linecap="round" stroke-linejoin="round" stroke-width="1"/>
      <path d="M 25.57212 -148.03621 L 20.84295 -143.98264 C 19.692603 -142.99662 18.447643 -142.12669 17.126213 -141.38552 L 14.599578 -139.96835 C 13.164406 -139.16338 12.583603 -137.39425 13.262389 -135.89527 L 14.280006 -133.64803 C 14.401585 -133.37954 14.528313 -133.11342 14.660121 -132.8498 L 16.462391 -129.24526 L 18.949377 -124.27129 C 19.291174 -123.5877 19.666832 -122.92157 20.074952 -122.27537 L 22.401344 -118.59192 C 22.84172 -117.89465 23.31928 -117.22158 23.831953 -116.57561 L 27.242638 -112.27815 C 27.78869 -111.59013 28.37371 -110.93394 28.994822 -110.31283 L 33.660865 -105.64679 C 34.061745 -105.24591 34.47731 -104.85999 34.90671 -104.48982 L 39.470235 -100.55574 C 39.86489 -100.21552 40.270997 -99.88881 40.687846 -99.57617 L 44.662786 -96.59497 C 45.3287 -96.09553 46.02123 -95.63262 46.73733 -95.20826 L 50.870394 -92.75904 C 50.99839 -92.68319 51.12712 -92.60859 51.25656 -92.53523 L 55.95411 -89.87329 C 56.6924 -89.45493 57.453276 -89.07774 58.23325 -88.74347 L 61.78307 -87.22212 C 62.36903 -86.97099 62.96518 -86.74433 63.56997 -86.54274 L 68.58808 -84.87003 C 69.835325 -84.45429 71.11592 -84.14624 72.415795 -83.94929 L 76.51464 -83.32826 C 76.87976 -83.27294 77.24615 -83.22642 77.6135 -83.18874 L 84.49461 -82.48299 C 84.73978 -82.45784 84.98534 -82.43664 85.2312 -82.41938 L 89.75835 -82.10169 C 90.29421 -82.06409 90.83122 -82.04527 91.3684 -82.04527 L 94.63046 -82.04526 C 95.58416 -82.04526 96.53693 -82.10458 97.48327 -82.22287 L 101.47198 -82.72146 C 102.13195 -82.80396 102.78802 -82.91504 103.43835 -83.0544 L 109.52039 -84.35769 C 110.41426 -84.54924 111.29592 -84.7939 112.16068 -85.09039 L 116.66952 -86.63628 C 117.46417 -86.90873 118.2433 -87.22451 119.0034 -87.58221 L 123.83677 -89.85674 C 124.38697 -90.11565 124.92668 -90.39629 125.45464 -90.69798 L 129.2225 -92.85104 C 129.9153 -93.24692 130.58701 -93.67858 131.23494 -94.14428 L 135.91106 -97.50525 C 136.41175 -97.86511 136.89776 -98.24497 137.36792 -98.64389 L 142.68877 -103.15856 C 143.07108 -103.48294 143.44269 -103.81974 143.80298 -104.16842 L 148.5022 -108.71604 C 149.14179 -109.335 149.74491 -109.99056 150.30852 -110.67942 L 154.1018 -115.31566 C 154.60852 -115.93497 155.08257 -116.58031 155.52201 -117.24904 L 159.1392 -122.75344 C 159.35462 -123.08127 159.56163 -123.41456 159.76002 -123.75298 L 162.28311 -128.05708 C 162.66906 -128.71546 163.022 -129.39265 163.34062 -130.08612 L 165.45932 -134.69739 C 165.99218 -135.85715 166.36334 -137.08456 166.5624 -138.34526 L 166.5624 -138.34526 C 166.7407 -139.47453 166.1614 -140.58797 165.13432 -141.0901 L 159.84088 -143.678 C 158.52642 -144.32063 157.29183 -145.11514 156.1624 -146.04526 L 155.75638 -146.37963 C 154.91205 -147.07496 154.28864 -148.00126 153.9624 -149.04526 L 153.9624 -149.04526 C 153.91573 -149.19458 153.75686 -149.2778 153.60754 -149.23114 C 153.49247 -149.19518 153.41277 -149.09031 153.40892 -148.96981 L 153.29968 -145.54689 C 153.20894 -142.70381 152.5916 -139.90224 151.479 -137.28433 L 150.60206 -135.22096 C 150.0435 -133.90669 149.36374 -132.64729 148.5716 -131.45909 L 144.88582 -125.93042 C 144.13831 -124.80915 143.2937 -123.75575 142.36175 -122.78238 L 136.06668 -116.20753 C 135.19861 -115.30087 134.25777 -114.4668 133.2536 -113.71367 L 124.8787 -107.4325 C 124.00228 -106.77518 123.08002 -106.18133 122.11896 -105.65546 L 114.93376 -101.72394 C 113.62263 -101.00653 112.2447 -100.41863 110.81952 -99.96857 L 104.1466 -97.86133 C 102.42973 -97.31916 100.65514 -96.98046 98.85927 -96.85219 L 91.97281 -96.3603 C 90.90052 -96.2837 89.82417 -96.28238 88.75168 -96.35635 L 80.31543 -96.93816 C 79.28125 -97.00948 78.25308 -97.15064 77.23795 -97.36067 L 70.10274 -98.83692 C 68.15079 -99.24077 66.25961 -99.89665 64.47676 -100.78808 L 59.81735 -103.11779 C 58.58321 -103.73485 57.407106 -104.46173 56.30326 -105.28961 L 50.6213 -109.55108 C 50.182167 -109.88043 49.75496 -110.2254 49.34051 -110.58532 L 43.58533 -115.58324 C 42.771043 -116.29038 42.007503 -117.05392 41.30036 -117.8682 L 36.895135 -122.94089 C 36.14103 -123.80925 35.453124 -124.73295 34.8372 -125.70422 L 31.103497 -131.59198 C 30.74293 -132.16056 30.407505 -132.7447 30.09819 -133.34272 L 28.477815 -136.47544 C 27.86867 -137.65312 27.362502 -138.88126 26.964965 -140.14615 L 25.684726 -144.21964 C 25.46995 -144.90302 25.287218 -145.59605 25.137126 -146.29649 L 24.91171 -147.34843 C 24.826635 -147.74544 25.052993 -148.1431 25.437797 -148.27263 L 25.437797 -148.27263 C 25.510292 -148.29704 25.588844 -148.25805 25.61325 -148.18556 C 25.631263 -148.13205 25.61499 -148.07296 25.57212 -148.03621 Z" fill="yellow"/>
      <path d="M 25.57212 -148.03621 L 20.84295 -143.98264 C 19.692603 -142.99662 18.447643 -142.12669 17.126213 -141.38552 L 14.599578 -139.96835 C 13.164406 -139.16338 12.583603 -137.39425 13.262389 -135.89527 L 14.280006 -133.64803 C 14.401585 -133.37954 14.528313 -133.11342 14.660121 -132.8498 L 16.462391 -129.24526 L 18.949377 -124.27129 C 19.291174 -123.5877 19.666832 -122.92157 20.074952 -122.27537 L 22.401344 -118.59192 C 22.84172 -117.89465 23.31928 -117.22158 23.831953 -116.57561 L 27.242638 -112.27815 C 27.78869 -111.59013 28.37371 -110.93394 28.994822 -110.31283 L 33.660865 -105.64679 C 34.061745 -105.24591 34.47731 -104.85999 34.90671 -104.48982 L 39.470235 -100.55574 C 39.86489 -100.21552 40.270997 -99.88881 40.687846 -99.57617 L 44.662786 -96.59497 C 45.3287 -96.09553 46.02123 -95.63262 46.73733 -95.20826 L 50.870394 -92.75904 C 50.99839 -92.68319 51.12712 -92.60859 51.25656 -92.53523 L 55.95411 -89.87329 C 56.6924 -89.45493 57.453276 -89.07774 58.23325 -88.74347 L 61.78307 -87.22212 C 62.36903 -86.97099 62.96518 -86.74433 63.56997 -86.54274 L 68.58808 -84.87003 C 69.835325 -84.45429 71.11592 -84.14624 72.415795 -83.94929 L 76.51464 -83.32826 C 76.87976 -83.27294 77.24615 -83.22642 77.6135 -83.18874 L 84.49461 -82.48299 C 84.73978 -82.45784 84.98534 -82.43664 85.2312 -82.41938 L 89.75835 -82.10169 C 90.29421 -82.06409 90.83122 -82.04527 91.3684 -82.04527 L 94.63046 -82.04526 C 95.58416 -82.04526 96.53693 -82.10458 97.48327 -82.22287 L 101.47198 -82.72146 C 102.13195 -82.80396 102.78802 -82.91504 103.43835 -83.0544 L 109.52039 -84.35769 C 110.41426 -84.54924 111.29592 -84.7939 112.16068 -85.09039 L 116.66952 -86.63628 C 117.46417 -86.90873 118.2433 -87.22451 119.0034 -87.58221 L 123.83677 -89.85674 C 124.38697 -90.11565 124.92668 -90.39629 125.45464 -90.69798 L 129.2225 -92.85104 C 129.9153 -93.24692 130.58701 -93.67858 131.23494 -94.14428 L 135.91106 -97.50525 C 136.41175 -97.86511 136.89776 -98.24497 137.36792 -98.64389 L 142.68877 -103.15856 C 143.07108 -103.48294 143.44269 -103.81974 143.80298 -104.16842 L 148.5022 -108.71604 C 149.14179 -109.335 149.74491 -109.99056 150.30852 -110.67942 L 154.1018 -115.31566 C 154.60852 -115.93497 155.08257 -116.58031 155.52201 -117.24904 L 159.1392 -122.75344 C 159.35462 -123.08127 159.56163 -123.41456 159.76002 -123.75298 L 162.28311 -128.05708 C 162.66906 -128.71546 163.022 -129.39265 163.34062 -130.08612 L 165.45932 -134.69739 C 165.99218 -135.85715 166.36334 -137.08456 166.5624 -138.34526 L 166.5624 -138.34526 C 166.7407 -139.47453 166.1614 -140.58797 165.13432 -141.0901 L 159.84088 -143.678 C 158.52642 -144.32063 157.29183 -145.11514 156.1624 -146.04526 L 155.75638 -146.37963 C 154.91205 -147.07496 154.28864 -148.00126 153.9624 -149.04526 L 153.9624 -149.04526 C 153.91573 -149.19458 153.75686 -149.2778 153.60754 -149.23114 C 153.49247 -149.19518 153.41277 -149.09031 153.40892 -148.96981 L 153.29968 -145.54689 C 153.20894 -142.70381 152.5916 -139.90224 151.479 -137.28433 L 150.60206 -135.22096 C 150.0435 -133.90669 149.36374 -132.64729 148.5716 -131.45909 L 144.88582 -125.93042 C 144.13831 -124.80915 143.2937 -123.75575 142.36175 -122.78238 L 136.06668 -116.20753 C 135.19861 -115.30087 134.25777 -114.4668 133.2536 -113.71367 L 124.8787 -107.4325 C 124.00228 -106.77518 123.08002 -106.18133 122.11896 -105.65546 L 114.93376 -101.72394 C 113.62263 -101.00653 112.2447 -100.41863 110.81952 -99.96857 L 104.1466 -97.86133 C 102.42973 -97.31916 100.65514 -96.98046 98.85927 -96.85219 L 91.97281 -96.3603 C 90.90052 -96.2837 89.82417 -96.28238 88.75168 -96.35635 L 80.31543 -96.93816 C 79.28125 -97.00948 78.25308 -97.15064 77.23795 -97.36067 L 70.10274 -98.83692 C 68.15079 -99.24077 66.25961 -99.89665 64.47676 -100.78808 L 59.81735 -103.11779 C 58.58321 -103.73485 57.407106 -104.46173 56.30326 -105.28961 L 50.6213 -109.55108 C 50.182167 -109.88043 49.75496 -110.2254 49.34051 -110.58532 L 43.58533 -115.58324 C 42.771043 -116.29038 42.007503 -117.05392 41.30036 -117.8682 L 36.895135 -122.94089 C 36.14103 -123.80925 35.453124 -124.73295 34.8372 -125.70422 L 31.103497 -131.59198 C 30.74293 -132.16056 30.407505 -132.7447 30.09819 -133.34272 L 28.477815 -136.47544 C 27.86867 -137.65312 27.362502 -138.88126 26.964965 -140.14615 L 25.684726 -144.21964 C 25.46995 -144.90302 25.287218 -145.59605 25.137126 -146.29649 L 24.91171 -147.34843 C 24.826635 -147.74544 25.052993 -148.1431 25.437797 -148.27263 L 25.437797 -148.27263 C 25.510292 -148.29704 25.588844 -148.25805 25.61325 -148.18556 C 25.631263 -148.13205 25.61499 -148.07296 25.57212 -148.03621 Z" stroke="#7f8080" stroke-linecap="round" stroke-linejoin="round" stroke-width="1"/>
      <path d="M 25.059248 -148.2441 L 30.459248 -148.8441 L 37.259248 -145.4441 L 42.25925 -143.6441 L 50.65925 -141.8441 L 59.05925 -140.8441 L 67.05925 -139.8441 L 74.65925 -139.6441 L 83.25925 -139.2441 L 94.85925 -139.4441 L 103.25925 -139.8441 L 112.65925 -140.4441 L 121.05925 -141.2441 L 130.25925 -142.6441 L 138.45925 -144.8441 L 144.25925 -146.6441 L 149.85925 -149.2441 L 152.65925 -148.0441 L 153.05925 -142.4441 L 150.25925 -134.4441 L 144.85925 -131.6441 L 134.25925 -128.4441 L 122.85925 -126.0441 L 111.65925 -125.2441 L 99.25925 -124.2441 L 88.85925 -124.2441 L 79.45925 -124.2441 L 67.85925 -124.8441 L 56.65925 -125.6441 L 46.05925 -127.8441 L 37.459248 -129.8441 L 31.259248 -132.6441 L 29.259248 -134.2441 L 26.059248 -141.8441 Z" fill="url(#Obj_Gradient_2)"/>
      <path d="M 25.059248 -148.2441 L 30.459248 -148.8441 L 37.259248 -145.4441 L 42.25925 -143.6441 L 50.65925 -141.8441 L 59.05925 -140.8441 L 67.05925 -139.8441 L 74.65925 -139.6441 L 83.25925 -139.2441 L 94.85925 -139.4441 L 103.25925 -139.8441 L 112.65925 -140.4441 L 121.05925 -141.2441 L 130.25925 -142.6441 L 138.45925 -144.8441 L 144.25925 -146.6441 L 149.85925 -149.2441 L 152.65925 -148.0441 L 153.05925 -142.4441 L 150.25925 -134.4441 L 144.85925 -131.6441 L 134.25925 -128.4441 L 122.85925 -126.0441 L 111.65925 -125.2441 L 99.25925 -124.2441 L 88.85925 -124.2441 L 79.45925 -124.2441 L 67.85925 -124.8441 L 56.65925 -125.6441 L 46.05925 -127.8441 L 37.459248 -129.8441 L 31.259248 -132.6441 L 29.259248 -134.2441 L 26.059248 -141.8441 Z" stroke="#7f8080" stroke-linecap="round" stroke-linejoin="round" stroke-width="1"/>
      <path d="M -45.186787 277.2 L -45.186787 277.2 C -45.25247 277.7255 -45.189645 278.25905 -45.0037 278.7549 L -44.352694 280.49092 C -44.17594 280.96227 -43.948853 281.41318 -43.67538 281.83582 L -42.707566 283.33153 C -42.16661 284.16756 -41.453506 284.87855 -40.61588 285.41702 L -39.53783 286.11005 C -39.237574 286.30307 -38.922994 286.47285 -38.596843 286.6179 L -37.27999 287.2035 C -36.68346 287.46876 -36.052754 287.64928 -35.406207 287.7398 L -26.395787 289.00126 C -26.385793 289.00265 -26.375797 289.00403 -26.365797 289.0054 L -14.649799 290.594 C -14.603798 290.60024 -14.557737 290.606 -14.511622 290.61134 L -4.2286855 291.79783 C -4.1967596 291.8015 -4.164809 291.80498 -4.132835 291.80822 L 9.577231 293.1991 C 9.605213 293.20193 9.633212 293.2046 9.661226 293.2071 L 20.766526 294.19865 C 20.801644 294.2018 20.836786 294.20466 20.871948 294.20726 L 31.558485 294.99886 C 31.598964 295.00185 31.63947 295.0045 31.679993 295.0068 L 42.187976 295.6016 C 42.208795 295.60276 42.22961 295.60404 42.250416 295.6054 L 54.29319 296.3951 C 54.377194 296.4006 54.46129 296.4046 54.54543 296.40707 L 67.99256 296.80257 C 68.01032 296.8031 68.028085 296.8037 68.045846 296.80434 L 78.68971 297.19856 C 78.77603 297.20176 78.86241 297.20335 78.94879 297.20335 L 89.55781 297.20335 C 89.59874 297.20335 89.63967 297.2037 89.68059 297.20443 L 100.76702 297.39893 C 100.93509 297.40188 101.10321 297.39877 101.27106 297.3896 L 111.89229 296.81028 C 111.97689 296.80566 112.06157 296.8026 112.14629 296.80104 L 122.91085 296.60532 C 122.98308 296.604 123.05529 296.60158 123.12745 296.59803 L 135.14607 296.00695 C 135.19483 296.00455 135.24355 296.00165 135.29225 295.99823 L 146.5323 295.20945 C 146.59023 295.2054 146.64812 295.2006 146.70594 295.1951 L 159.11651 294.01313 C 159.18497 294.0066 159.25352 294.0011 159.32214 293.9966 L 171.25416 293.21418 C 171.36418 293.20696 171.474 293.19715 171.58355 293.18475 L 181.9959 292.006 C 182.01144 292.00423 182.02697 292.00242 182.0425 292.00056 L 191.9902 290.80683 C 192.00954 290.8045 192.02886 290.8021 192.04818 290.79963 L 205.88394 289.0221 C 205.98115 289.0096 206.0781 288.99507 206.1747 288.9785 L 212.72819 287.85506 C 212.92915 287.8206 213.13153 287.79495 213.33473 287.77817 L 216.56706 287.5112 C 217.4563 287.43775 218.3233 287.19497 219.12135 286.79594 L 220.60765 286.0528 C 221.20824 285.7525 221.7625 285.36735 222.25338 284.9092 L 223.5885 283.66308 C 224.19532 283.0967 224.65073 282.38747 224.91322 281.6 L 225.20805 280.71552 C 225.27812 280.5053 225.33817 280.29187 225.388 280.07595 L 225.8577 278.04056 C 225.89293 277.88792 225.8595 277.72752 225.7662 277.60168 L 225.7662 277.60168 C 225.67587 277.4798 225.52523 277.4183 225.3754 277.44214 L 216.89555 278.7912 C 216.84466 278.7993 216.79385 278.80796 216.74315 278.81718 L 203.7584 281.17805 C 203.6656 281.1949 203.5725 281.2099 203.47911 281.223 L 192.24943 282.7991 C 192.22928 282.80194 192.20914 282.80486 192.18902 282.80786 L 179.06643 284.76645 C 178.90167 284.79105 178.73608 284.80975 178.56998 284.82253 L 165.84517 285.80136 C 165.82786 285.8027 165.81055 285.80396 165.79323 285.80516 L 151.45308 286.801 C 151.4305 286.80257 151.4079 286.80403 151.3853 286.80538 L 138.08205 287.5996 C 138.04016 287.6021 137.99824 287.60423 137.9563 287.60597 L 123.76485 288.1973 C 123.66776 288.20133 123.5706 288.20335 123.47344 288.20335 L 110.2192 288.20335 L 97.67753 288.20335 C 97.63865 288.20335 97.59976 288.20368 97.56088 288.20433 L 85.8025 288.4003 C 85.68032 288.40234 85.55812 288.40117 85.43601 288.3968 L 74.602405 288.0099 C 74.48029 288.00554 74.35809 288.00437 74.23591 288.0064 L 62.52127 288.20165 C 62.45323 288.2028 62.38518 288.20293 62.31713 288.20208 L 46.614845 288.0058 C 46.484443 288.00417 46.354113 287.9989 46.224007 287.99 L 31.91423 287.00986 C 31.850882 287.00552 31.787597 287.00032 31.724392 286.99426 L 17.233386 285.6047 C 17.223931 285.6038 17.214479 285.60288 17.205028 285.60194 L 3.3929923 284.22073 C 3.2771514 284.20915 3.1616176 284.19468 3.0464987 284.17733 L -11.262653 282.02116 C -11.341409 282.0093 -11.420363 281.99877 -11.499479 281.9896 L -25.01941 280.42207 C -25.126987 280.4096 -25.23426 280.39463 -25.34114 280.37718 L -34.73323 278.84377 C -34.89822 278.81684 -35.062195 278.784 -35.224836 278.74532 L -44.302435 276.58654 C -44.690754 276.4942 -45.08041 276.73412 -45.17276 277.12244 C -45.17884 277.14802 -45.183525 277.17392 -45.186787 277.2 Z" fill="yellow"/>
      <path d="M -45.186787 277.2 L -45.186787 277.2 C -45.25247 277.7255 -45.189645 278.25905 -45.0037 278.7549 L -44.352694 280.49092 C -44.17594 280.96227 -43.948853 281.41318 -43.67538 281.83582 L -42.707566 283.33153 C -42.16661 284.16756 -41.453506 284.87855 -40.61588 285.41702 L -39.53783 286.11005 C -39.237574 286.30307 -38.922994 286.47285 -38.596843 286.6179 L -37.27999 287.2035 C -36.68346 287.46876 -36.052754 287.64928 -35.406207 287.7398 L -26.395787 289.00126 C -26.385793 289.00265 -26.375797 289.00403 -26.365797 289.0054 L -14.649799 290.594 C -14.603798 290.60024 -14.557737 290.606 -14.511622 290.61134 L -4.2286855 291.79783 C -4.1967596 291.8015 -4.164809 291.80498 -4.132835 291.80822 L 9.577231 293.1991 C 9.605213 293.20193 9.633212 293.2046 9.661226 293.2071 L 20.766526 294.19865 C 20.801644 294.2018 20.836786 294.20466 20.871948 294.20726 L 31.558485 294.99886 C 31.598964 295.00185 31.63947 295.0045 31.679993 295.0068 L 42.187976 295.6016 C 42.208795 295.60276 42.22961 295.60404 42.250416 295.6054 L 54.29319 296.3951 C 54.377194 296.4006 54.46129 296.4046 54.54543 296.40707 L 67.99256 296.80257 C 68.01032 296.8031 68.028085 296.8037 68.045846 296.80434 L 78.68971 297.19856 C 78.77603 297.20176 78.86241 297.20335 78.94879 297.20335 L 89.55781 297.20335 C 89.59874 297.20335 89.63967 297.2037 89.68059 297.20443 L 100.76702 297.39893 C 100.93509 297.40188 101.10321 297.39877 101.27106 297.3896 L 111.89229 296.81028 C 111.97689 296.80566 112.06157 296.8026 112.14629 296.80104 L 122.91085 296.60532 C 122.98308 296.604 123.05529 296.60158 123.12745 296.59803 L 135.14607 296.00695 C 135.19483 296.00455 135.24355 296.00165 135.29225 295.99823 L 146.5323 295.20945 C 146.59023 295.2054 146.64812 295.2006 146.70594 295.1951 L 159.11651 294.01313 C 159.18497 294.0066 159.25352 294.0011 159.32214 293.9966 L 171.25416 293.21418 C 171.36418 293.20696 171.474 293.19715 171.58355 293.18475 L 181.9959 292.006 C 182.01144 292.00423 182.02697 292.00242 182.0425 292.00056 L 191.9902 290.80683 C 192.00954 290.8045 192.02886 290.8021 192.04818 290.79963 L 205.88394 289.0221 C 205.98115 289.0096 206.0781 288.99507 206.1747 288.9785 L 212.72819 287.85506 C 212.92915 287.8206 213.13153 287.79495 213.33473 287.77817 L 216.56706 287.5112 C 217.4563 287.43775 218.3233 287.19497 219.12135 286.79594 L 220.60765 286.0528 C 221.20824 285.7525 221.7625 285.36735 222.25338 284.9092 L 223.5885 283.66308 C 224.19532 283.0967 224.65073 282.38747 224.91322 281.6 L 225.20805 280.71552 C 225.27812 280.5053 225.33817 280.29187 225.388 280.07595 L 225.8577 278.04056 C 225.89293 277.88792 225.8595 277.72752 225.7662 277.60168 L 225.7662 277.60168 C 225.67587 277.4798 225.52523 277.4183 225.3754 277.44214 L 216.89555 278.7912 C 216.84466 278.7993 216.79385 278.80796 216.74315 278.81718 L 203.7584 281.17805 C 203.6656 281.1949 203.5725 281.2099 203.47911 281.223 L 192.24943 282.7991 C 192.22928 282.80194 192.20914 282.80486 192.18902 282.80786 L 179.06643 284.76645 C 178.90167 284.79105 178.73608 284.80975 178.56998 284.82253 L 165.84517 285.80136 C 165.82786 285.8027 165.81055 285.80396 165.79323 285.80516 L 151.45308 286.801 C 151.4305 286.80257 151.4079 286.80403 151.3853 286.80538 L 138.08205 287.5996 C 138.04016 287.6021 137.99824 287.60423 137.9563 287.60597 L 123.76485 288.1973 C 123.66776 288.20133 123.5706 288.20335 123.47344 288.20335 L 110.2192 288.20335 L 97.67753 288.20335 C 97.63865 288.20335 97.59976 288.20368 97.56088 288.20433 L 85.8025 288.4003 C 85.68032 288.40234 85.55812 288.40117 85.43601 288.3968 L 74.602405 288.0099 C 74.48029 288.00554 74.35809 288.00437 74.23591 288.0064 L 62.52127 288.20165 C 62.45323 288.2028 62.38518 288.20293 62.31713 288.20208 L 46.614845 288.0058 C 46.484443 288.00417 46.354113 287.9989 46.224007 287.99 L 31.91423 287.00986 C 31.850882 287.00552 31.787597 287.00032 31.724392 286.99426 L 17.233386 285.6047 C 17.223931 285.6038 17.214479 285.60288 17.205028 285.60194 L 3.3929923 284.22073 C 3.2771514 284.20915 3.1616176 284.19468 3.0464987 284.17733 L -11.262653 282.02116 C -11.341409 282.0093 -11.420363 281.99877 -11.499479 281.9896 L -25.01941 280.42207 C -25.126987 280.4096 -25.23426 280.39463 -25.34114 280.37718 L -34.73323 278.84377 C -34.89822 278.81684 -35.062195 278.784 -35.224836 278.74532 L -44.302435 276.58654 C -44.690754 276.4942 -45.08041 276.73412 -45.17276 277.12244 C -45.17884 277.14802 -45.183525 277.17392 -45.186787 277.2 Z" stroke="#7f8080" stroke-linecap="round" stroke-linejoin="round" stroke-width="1"/>
      <path d="M -68.12859 -106.2 L -56.12859 -113.24411 L -46.32859 -117 L -46.12859 -117 L -36.31486 -120.6 L -23.528589 -124.2 L -22.12859 -124.2441 L 225.8714 276.7559 L 211.8714 279.7559 L 199.48514 281.8 L 195.08514 282.6 L 181.28514 284.6 L 169.28514 285.8 L 160.28514 285.8 L 158.87141 285.7559 Z" fill="url(#Obj_Gradient_3)"/>
      <path d="M -68.12859 -106.2 L -56.12859 -113.24411 L -46.32859 -117 L -46.12859 -117 L -36.31486 -120.6 L -23.528589 -124.2 L -22.12859 -124.2441 L 225.8714 276.7559 L 211.8714 279.7559 L 199.48514 281.8 L 195.08514 282.6 L 181.28514 284.6 L 169.28514 285.8 L 160.28514 285.8 L 158.87141 285.7559 Z" stroke="white" stroke-linecap="round" stroke-linejoin="round" stroke-width="0"/>
    </g>
  </g>
</svg>
