<?xml version="1.0" encoding="UTF-8" standalone="no"?>
<!DOCTYPE svg PUBLIC "-//W3C//DTD SVG 1.1//EN" "http://www.w3.org/Graphics/SVG/1.1/DTD/svg11.dtd">
<svg xmlns="http://www.w3.org/2000/svg" xmlns:xl="http://www.w3.org/1999/xlink" version="1.1" viewBox="-170.5 -192.5 432.4053 449.30915" width="432.4053pt" height="449.30915pt" xmlns:dc="http://purl.org/dc/elements/1.1/">
  <metadata> Produced by OmniGraffle 7.6.1 
    <dc:date>2019-06-07 17:26:59 +0000</dc:date>
  </metadata>
  <defs>
    <radialGradient cx="0" cy="0" r="1" id="Gradient" gradientUnits="userSpaceOnUse">
      <stop offset="0" stop-color="#cbcbcb"/>
      <stop offset="1" stop-color="#021224"/>
    </radialGradient>
    <radialGradient id="Obj_Gradient" xl:href="#Gradient" gradientTransform="translate(44.75925 -164.6) scale(70.26272)"/>
  </defs>
  <g stroke="none" stroke-opacity="1" stroke-dasharray="none" fill="none" fill-opacity="1">
    <title>cuba</title>
    <g>
      <title>Capa 1</title>
      <path d="M -16.994346 -191.40955 L -8.828894 -188.29184 C -7.970903 -187.96424 -7.094061 -187.68833 -6.203077 -187.46558 L 7.514101 -184.03629 C 8.675759 -183.74587 9.858321 -183.54662 11.051005 -183.44034 L 28.57715 -181.8786 C 29.164998 -181.82622 29.754643 -181.79648 30.344778 -181.78946 L 45.823695 -181.60519 C 46.11404 -181.60173 46.40442 -181.60377 46.694686 -181.6113 L 61.118 -181.98594 C 61.47878 -181.99531 61.839295 -182.01317 62.19924 -182.03951 L 76.57053 -183.09107 C 77.56197 -183.16361 78.54766 -183.30036 79.5214 -183.50044 L 91.09436 -185.87845 C 92.13637 -186.09256 93.16226 -186.3787 94.16465 -186.73481 L 105.91664 -190.90986 C 107.00702 -191.29723 108.21021 -190.76646 108.65925 -189.7 L 108.65925 -189.7 C 109.1814 -188.4599 109.33338 -187.09515 109.09685 -185.77055 L 108.91637 -184.75986 C 108.61259 -183.0587 108.11806 -181.3972 107.44214 -179.80681 L 105.89892 -176.1757 C 105.34035 -174.86142 104.6606 -173.60202 103.86846 -172.41382 L 100.18268 -166.88515 C 99.43517 -165.76389 98.59057 -164.71049 97.65861 -163.73711 L 91.36354 -157.16226 C 90.49547 -156.2556 89.55463 -155.42154 88.55046 -154.6684 L 80.175555 -148.38723 C 79.29914 -147.72992 78.37688 -147.13606 77.41582 -146.6102 L 70.23062 -142.67867 C 68.91949 -141.96126 67.541565 -141.37336 66.116375 -140.9233 L 59.443466 -138.81607 C 57.72659 -138.2739 55.951997 -137.9352 54.15613 -137.80692 L 47.269675 -137.31503 C 46.197377 -137.23844 45.12103 -137.23712 44.048545 -137.31108 L 35.612287 -137.8929 C 34.57811 -137.96422 33.54994 -138.10537 32.534806 -138.3154 L 25.3996 -139.79165 C 23.447648 -140.1955 21.556474 -140.85139 19.773618 -141.74281 L 15.114208 -144.07252 C 13.880072 -144.68959 12.703967 -145.41646 11.600121 -146.24434 L 5.918163 -150.50581 C 5.479027 -150.83517 5.0518224 -151.18013 4.63737 -151.54005 L -1.1178112 -156.53797 C -1.9320969 -157.24511 -2.695637 -158.00865 -3.40278 -158.82294 L -7.808005 -163.89562 C -8.562108 -164.76398 -9.250016 -165.68768 -9.865941 -166.65895 L -13.599643 -172.54671 C -13.960209 -173.1153 -14.295635 -173.69944 -14.604951 -174.29745 L -16.225325 -177.43017 C -16.83447 -178.60785 -17.340638 -179.836 -17.738175 -181.10089 L -19.018414 -185.17438 C -19.23319 -185.85775 -19.415921 -186.55079 -19.566014 -187.25122 L -19.640752 -187.6 C -19.835415 -188.50843 -19.728154 -189.45557 -19.335273 -190.29746 L -19.240752 -190.5 C -18.846276 -191.3453 -17.865805 -191.7423 -16.994346 -191.40955 Z" fill="url(#Obj_Gradient)"/>
      <path d="M -16.994346 -191.40955 L -8.828894 -188.29184 C -7.970903 -187.96424 -7.094061 -187.68833 -6.203077 -187.46558 L 7.514101 -184.03629 C 8.675759 -183.74587 9.858321 -183.54662 11.051005 -183.44034 L 28.57715 -181.8786 C 29.164998 -181.82622 29.754643 -181.79648 30.344778 -181.78946 L 45.823695 -181.60519 C 46.11404 -181.60173 46.40442 -181.60377 46.694686 -181.6113 L 61.118 -181.98594 C 61.47878 -181.99531 61.839295 -182.01317 62.19924 -182.03951 L 76.57053 -183.09107 C 77.56197 -183.16361 78.54766 -183.30036 79.5214 -183.50044 L 91.09436 -185.87845 C 92.13637 -186.09256 93.16226 -186.3787 94.16465 -186.73481 L 105.91664 -190.90986 C 107.00702 -191.29723 108.21021 -190.76646 108.65925 -189.7 L 108.65925 -189.7 C 109.1814 -188.4599 109.33338 -187.09515 109.09685 -185.77055 L 108.91637 -184.75986 C 108.61259 -183.0587 108.11806 -181.3972 107.44214 -179.80681 L 105.89892 -176.1757 C 105.34035 -174.86142 104.6606 -173.60202 103.86846 -172.41382 L 100.18268 -166.88515 C 99.43517 -165.76389 98.59057 -164.71049 97.65861 -163.73711 L 91.36354 -157.16226 C 90.49547 -156.2556 89.55463 -155.42154 88.55046 -154.6684 L 80.175555 -148.38723 C 79.29914 -147.72992 78.37688 -147.13606 77.41582 -146.6102 L 70.23062 -142.67867 C 68.91949 -141.96126 67.541565 -141.37336 66.116375 -140.9233 L 59.443466 -138.81607 C 57.72659 -138.2739 55.951997 -137.9352 54.15613 -137.80692 L 47.269675 -137.31503 C 46.197377 -137.23844 45.12103 -137.23712 44.048545 -137.31108 L 35.612287 -137.8929 C 34.57811 -137.96422 33.54994 -138.10537 32.534806 -138.3154 L 25.3996 -139.79165 C 23.447648 -140.1955 21.556474 -140.85139 19.773618 -141.74281 L 15.114208 -144.07252 C 13.880072 -144.68959 12.703967 -145.41646 11.600121 -146.24434 L 5.918163 -150.50581 C 5.479027 -150.83517 5.0518224 -151.18013 4.63737 -151.54005 L -1.1178112 -156.53797 C -1.9320969 -157.24511 -2.695637 -158.00865 -3.40278 -158.82294 L -7.808005 -163.89562 C -8.562108 -164.76398 -9.250016 -165.68768 -9.865941 -166.65895 L -13.599643 -172.54671 C -13.960209 -173.1153 -14.295635 -173.69944 -14.604951 -174.29745 L -16.225325 -177.43017 C -16.83447 -178.60785 -17.340638 -179.836 -17.738175 -181.10089 L -19.018414 -185.17438 C -19.23319 -185.85775 -19.415921 -186.55079 -19.566014 -187.25122 L -19.640752 -187.6 C -19.835415 -188.50843 -19.728154 -189.45557 -19.335273 -190.29746 L -19.240752 -190.5 C -18.846276 -191.3453 -17.865805 -191.7423 -16.994346 -191.40955 Z" stroke="#7f8080" stroke-linecap="round" stroke-linejoin="round" stroke-width="1"/>
      <path d="M -82.66994 246.17293 L -68.9277 248.4633 C -68.74432 248.49387 -68.56043 248.52123 -68.3761 248.54538 L -40.022456 252.2607 C -39.77593 252.293 -39.52868 252.31955 -39.280915 252.34033 L -9.038026 254.87683 C -8.781122 254.89837 -8.523735 254.9137 -8.266089 254.92282 L 30.664824 256.29916 C 30.853184 256.30582 31.04165 256.30915 31.230127 256.30915 L 62.69745 256.30915 C 62.864064 256.30915 63.03067 256.30655 63.197204 256.30134 L 88.23199 255.519 C 88.44224 255.51244 88.65233 255.50172 88.86215 255.48687 L 110.9099 253.92596 C 111.06822 253.91476 111.22636 253.9012 111.38427 253.88528 L 136.64475 251.33965 C 136.84649 251.31932 137.04783 251.29516 137.24865 251.26717 L 161.04134 247.9518 C 161.24535 247.92337 161.4488 247.891 161.65156 247.85472 L 170.84739 246.20915 C 176.1745 245.25588 179.82536 240.30223 179.15895 234.9317 L 176.95136 217.14113 C 176.94871 217.1198 176.9461 217.09849 176.94355 217.07716 L 173.37973 187.37863 C 173.35817 187.199 173.33966 187.019 173.3242 186.83873 L 170.962 159.27952 C 170.95226 159.16594 170.94374 159.05227 170.93643 158.9385 L 169.54981 137.34687 C 169.5482 137.32172 169.54652 137.29658 169.54479 137.27144 L 167.95263 114.18513 C 167.94914 114.13448 167.94588 114.0838 167.94287 114.03312 L 166.7665 94.23095 C 166.75376 94.01644 166.74534 93.80169 166.74125 93.58684 L 166.34897 72.992 C 166.34792 72.936765 166.34658 72.88154 166.34495 72.82632 L 165.74983 52.591977 C 165.7482 52.53676 165.74686 52.48153 165.74581 52.4263 L 165.35515 31.916757 C 165.34998 31.64506 165.35173 31.37328 165.3604 31.10167 L 165.94634 12.742062 C 165.94704 12.720119 165.94778 12.698177 165.94857 12.676237 L 166.73666 -9.19307 C 166.74381 -9.391575 166.75466 -9.589929 166.7692 -9.78803 L 168.32668 -31.008647 C 168.34048 -31.19677 168.35096 -31.385122 168.3581 -31.573615 L 169.11256 -51.47248 C 169.13576 -52.08423 169.19404 -52.69414 169.28713 -53.299204 L 172.02613 -71.10272 C 172.10691 -71.62782 172.2138 -72.14857 172.3464 -72.66303 L 176.97466 -90.62068 C 177.08976 -91.06725 177.2241 -91.50864 177.37734 -91.94361 L 183.09812 -108.18325 C 183.2642 -108.65473 183.4523 -109.11816 183.66178 -109.57203 L 189.19333 -121.55707 C 189.29602 -121.77956 189.40381 -121.99967 189.51661 -122.21721 L 194.87883 -132.55864 C 194.92454 -132.64678 194.97106 -132.7345 195.0184 -132.82177 L 200.23437 -142.43873 C 200.97165 -143.7981 201.92128 -145.03099 203.0474 -146.09086 L 203.0474 -146.09086 C 203.72258 -146.72633 203.75478 -147.78883 203.1193 -148.46402 C 202.9948 -148.5963 202.84967 -148.70749 202.68955 -148.79327 L 199.47542 -150.51513 C 199.25676 -150.63226 199.0354 -150.7443 198.81155 -150.85114 L 190.95757 -154.59963 C 190.55096 -154.7937 190.13634 -154.9705 189.71481 -155.12956 L 180.03998 -158.78044 C 179.84494 -158.85404 179.64848 -158.92383 179.4507 -158.98975 L 166.75623 -163.22124 C 166.61701 -163.26765 166.47716 -163.31214 166.3367 -163.3547 L 153.45319 -167.2588 C 153.38266 -167.28017 153.31227 -167.30203 153.24205 -167.32437 L 140.73805 -171.30292 C 140.34442 -171.42816 139.9558 -171.5686 139.57304 -171.72393 L 127.5971 -176.58373 C 126.76543 -176.92122 125.96364 -177.32808 125.20021 -177.80002 L 115.58096 -183.74647 C 115.42526 -183.84272 115.27122 -183.94164 115.11891 -184.04317 L 110.22881 -187.30324 C 109.24742 -187.9575 108.3761 -188.7634 107.64739 -189.69086 L 107.64739 -189.69086 C 107.54178 -189.82526 107.34722 -189.8486 107.21282 -189.743 C 107.11007 -189.66228 107.0691 -189.52573 107.11042 -189.40177 L 107.24739 -188.99086 C 107.70664 -187.6131 107.8112 -186.14182 107.55141 -184.71297 L 107.15627 -182.5397 C 106.88506 -181.04804 106.40321 -179.6025 105.72519 -178.24645 L 104.19287 -175.18182 C 103.89617 -174.58842 103.56285 -174.01405 103.19484 -173.46203 L 99.99113 -168.65647 C 99.56253 -168.01357 99.08792 -167.40256 98.57104 -166.82824 L 94.00899 -161.7593 C 93.96792 -161.71367 93.92659 -161.66828 93.885 -161.62312 L 87.89077 -155.1151 C 87.26303 -154.43356 86.57728 -153.80783 85.84125 -153.24498 L 80.81707 -149.40297 C 80.37093 -149.0618 79.90712 -148.74435 79.42759 -148.45195 L 72.94119 -144.49683 C 72.27953 -144.09338 71.58943 -143.73853 70.87635 -143.4351 L 63.76094 -140.40726 C 62.953274 -140.06357 62.1187 -139.78693 61.26566 -139.58013 L 57.1866 -138.59127 C 56.361765 -138.39131 55.52233 -138.2573 54.67624 -138.1905 L 48.97603 -137.74048 C 48.5571 -137.70741 48.137025 -137.69086 47.71679 -137.69086 L 40.68447 -137.69086 C 39.92737 -137.69086 39.171223 -137.7446 38.42173 -137.85166 L 30.475283 -138.98687 C 29.990275 -139.05616 29.508705 -139.14768 29.032096 -139.26116 L 23.070868 -140.6805 C 21.92538 -140.95324 20.813502 -141.35159 19.755431 -141.86832 L 13.475428 -144.9353 C 12.990378 -145.17218 12.517626 -145.43346 12.058987 -145.71814 L 7.847124 -148.3324 C 7.247954 -148.7043 6.674028 -149.1154 6.1290986 -149.56302 L 1.682993 -153.21518 C 1.4592965 -153.39893 1.2406282 -153.58872 1.0272296 -153.78433 L -2.775113 -157.26981 C -3.226408 -157.6835 -3.6535876 -158.12275 -4.0545443 -158.5854 L -8.17329 -163.33779 C -8.492672 -163.7063 -8.795039 -164.08923 -9.079445 -164.48537 L -13.509099 -170.65525 C -14.003991 -171.34456 -14.443262 -172.07215 -14.822754 -172.83114 L -17.399218 -177.98406 C -17.434815 -178.05526 -17.46988 -178.12672 -17.50441 -178.19843 L -18.752614 -180.79086 C -19.603329 -182.55772 -19.95885 -184.52226 -19.781309 -186.47521 L -19.601103 -188.45747 C -19.577298 -188.71933 -19.77028 -188.9509 -20.032143 -188.97472 C -20.194538 -188.98948 -20.353192 -188.9201 -20.452614 -188.79086 L -20.452614 -188.79086 C -21.11606 -187.92838 -21.896168 -187.1623 -22.770546 -186.5146 L -26.66708 -183.62829 C -26.790763 -183.53667 -26.91576 -183.44684 -27.042037 -183.35883 L -31.664288 -180.13726 C -32.851024 -179.31015 -34.144444 -178.64778 -35.509194 -178.16827 L -40.11632 -176.54955 C -40.60689 -176.3772 -41.08877 -176.18102 -41.560236 -175.96173 L -48.40702 -172.77718 C -49.10318 -172.45338 -49.821744 -172.18012 -50.557143 -171.9595 L -61.42753 -168.69838 C -61.444254 -168.69336 -61.46097 -168.68832 -61.47767 -168.68325 L -72.44576 -165.35365 C -72.58366 -165.31179 -72.72098 -165.26807 -72.8577 -165.2225 L -85.77893 -160.91542 C -85.82805 -160.89904 -85.87725 -160.8829 -85.92653 -160.86701 L -97.29394 -157.2001 C -97.93242 -156.99414 -98.55732 -156.74823 -99.16494 -156.46381 L -107.0969 -152.75098 C -107.46724 -152.57763 -107.8308 -152.39014 -108.18678 -152.18894 L -114.13289 -148.8281 C -115.38592 -148.11985 -115.82757 -146.52993 -115.11933 -145.2769 C -115.04222 -145.14046 -114.95295 -145.01125 -114.85262 -144.89086 L -113.9885 -143.85392 C -113.23356 -142.94799 -112.58108 -141.96137 -112.04297 -140.91204 L -108.96583 -134.91162 C -108.89036 -134.76445 -108.81261 -134.61846 -108.73261 -134.4737 L -104.77786 -127.31749 C -104.69437 -127.16641 -104.61333 -127.01399 -104.53477 -126.86029 L -100.42646 -118.8223 C -100.1774 -118.33499 -99.95349 -117.83522 -99.75564 -117.32497 L -96.27287 -108.34309 C -96.25937 -108.30827 -96.24574 -108.27349 -96.232 -108.23876 L -92.63567 -99.15332 C -92.51366 -98.84508 -92.40126 -98.53313 -92.29864 -98.21792 L -89.6768 -90.16514 C -89.66068 -90.11562 -89.6448 -90.06601 -89.62916 -90.01634 L -86.55711 -80.25807 C -86.35432 -79.6139 -86.19251 -78.95755 -86.07266 -78.29294 L -84.08735 -67.28348 C -84.06419 -67.15507 -84.04261 -67.026375 -84.0226 -66.89743 L -82.31673 -55.90405 C -82.27399 -55.62863 -82.23846 -55.352146 -82.21017 -55.07487 L -81.32275 -46.378157 C -81.27601 -45.92017 -81.24907 -45.460376 -81.24199 -45.000063 L -81.05775 -33.02444 C -81.05433 -32.802074 -81.04627 -32.5798 -81.03358 -32.35777 L -80.26321 -18.876207 C -80.25615 -18.752642 -80.24765 -18.629163 -80.237725 -18.505795 L -78.904155 -1.9314226 C -78.86981 -1.5045483 -78.85261 -1.0764671 -78.85261 -.6482132 L -78.85261 11.801569 C -78.85261 12.006602 -78.84867 12.211617 -78.84079 12.416499 L -78.26044 27.505636 C -78.25522 27.641305 -78.25173 27.777034 -78.24997 27.912792 L -78.05781 42.709047 C -78.05435 42.97574 -78.05755 43.242476 -78.06742 43.50901 L -78.64165 59.013156 C -78.64896 59.21047 -78.65261 59.407896 -78.65261 59.60534 L -78.65261 73.20157 C -78.65261 73.4066 -78.65656 73.61162 -78.66444 73.8165 L -79.24963 89.0315 C -79.25162 89.08327 -79.25386 89.13502 -79.256355 89.18676 L -80.05168 105.6897 C -80.0523 105.70266 -80.05294 105.71563 -80.0536 105.7286 L -80.84809 121.41976 C -80.85111 121.47935 -80.85446 121.53893 -80.85814 121.59848 L -82.04705 140.81921 C -82.05076 140.87917 -82.05481 140.9391 -82.05919 140.99902 L -83.84233 165.36857 C -83.84919 165.46229 -83.85687 165.55594 -83.86538 165.64953 L -85.65127 185.29434 C -85.65217 185.30421 -85.65307 185.31409 -85.65399 185.32396 L -87.42475 204.40886 C -87.44333 204.60904 -87.46567 204.80884 -87.49177 205.00818 L -89.45249 219.9809 C -89.5853 220.9951 -89.85444 221.9867 -90.25262 222.92888 L -90.25262 222.92888 C -90.65019 223.86962 -90.89886 224.86654 -90.98968 225.8838 L -91.75262 234.42888 C -92.26037 240.1159 -88.30191 245.23427 -82.66994 246.17293 Z" fill="#0000af"/>
      <path d="M -82.66994 246.17293 L -68.9277 248.4633 C -68.74432 248.49387 -68.56043 248.52123 -68.3761 248.54538 L -40.022456 252.2607 C -39.77593 252.293 -39.52868 252.31955 -39.280915 252.34033 L -9.038026 254.87683 C -8.781122 254.89837 -8.523735 254.9137 -8.266089 254.92282 L 30.664824 256.29916 C 30.853184 256.30582 31.04165 256.30915 31.230127 256.30915 L 62.69745 256.30915 C 62.864064 256.30915 63.03067 256.30655 63.197204 256.30134 L 88.23199 255.519 C 88.44224 255.51244 88.65233 255.50172 88.86215 255.48687 L 110.9099 253.92596 C 111.06822 253.91476 111.22636 253.9012 111.38427 253.88528 L 136.64475 251.33965 C 136.84649 251.31932 137.04783 251.29516 137.24865 251.26717 L 161.04134 247.9518 C 161.24535 247.92337 161.4488 247.891 161.65156 247.85472 L 170.84739 246.20915 C 176.1745 245.25588 179.82536 240.30223 179.15895 234.9317 L 176.95136 217.14113 C 176.94871 217.1198 176.9461 217.09849 176.94355 217.07716 L 173.37973 187.37863 C 173.35817 187.199 173.33966 187.019 173.3242 186.83873 L 170.962 159.27952 C 170.95226 159.16594 170.94374 159.05227 170.93643 158.9385 L 169.54981 137.34687 C 169.5482 137.32172 169.54652 137.29658 169.54479 137.27144 L 167.95263 114.18513 C 167.94914 114.13448 167.94588 114.0838 167.94287 114.03312 L 166.7665 94.23095 C 166.75376 94.01644 166.74534 93.80169 166.74125 93.58684 L 166.34897 72.992 C 166.34792 72.936765 166.34658 72.88154 166.34495 72.82632 L 165.74983 52.591977 C 165.7482 52.53676 165.74686 52.48153 165.74581 52.4263 L 165.35515 31.916757 C 165.34998 31.64506 165.35173 31.37328 165.3604 31.10167 L 165.94634 12.742062 C 165.94704 12.720119 165.94778 12.698177 165.94857 12.676237 L 166.73666 -9.19307 C 166.74381 -9.391575 166.75466 -9.589929 166.7692 -9.78803 L 168.32668 -31.008647 C 168.34048 -31.19677 168.35096 -31.385122 168.3581 -31.573615 L 169.11256 -51.47248 C 169.13576 -52.08423 169.19404 -52.69414 169.28713 -53.299204 L 172.02613 -71.10272 C 172.10691 -71.62782 172.2138 -72.14857 172.3464 -72.66303 L 176.97466 -90.62068 C 177.08976 -91.06725 177.2241 -91.50864 177.37734 -91.94361 L 183.09812 -108.18325 C 183.2642 -108.65473 183.4523 -109.11816 183.66178 -109.57203 L 189.19333 -121.55707 C 189.29602 -121.77956 189.40381 -121.99967 189.51661 -122.21721 L 194.87883 -132.55864 C 194.92454 -132.64678 194.97106 -132.7345 195.0184 -132.82177 L 200.23437 -142.43873 C 200.97165 -143.7981 201.92128 -145.03099 203.0474 -146.09086 L 203.0474 -146.09086 C 203.72258 -146.72633 203.75478 -147.78883 203.1193 -148.46402 C 202.9948 -148.5963 202.84967 -148.70749 202.68955 -148.79327 L 199.47542 -150.51513 C 199.25676 -150.63226 199.0354 -150.7443 198.81155 -150.85114 L 190.95757 -154.59963 C 190.55096 -154.7937 190.13634 -154.9705 189.71481 -155.12956 L 180.03998 -158.78044 C 179.84494 -158.85404 179.64848 -158.92383 179.4507 -158.98975 L 166.75623 -163.22124 C 166.61701 -163.26765 166.47716 -163.31214 166.3367 -163.3547 L 153.45319 -167.2588 C 153.38266 -167.28017 153.31227 -167.30203 153.24205 -167.32437 L 140.73805 -171.30292 C 140.34442 -171.42816 139.9558 -171.5686 139.57304 -171.72393 L 127.5971 -176.58373 C 126.76543 -176.92122 125.96364 -177.32808 125.20021 -177.80002 L 115.58096 -183.74647 C 115.42526 -183.84272 115.27122 -183.94164 115.11891 -184.04317 L 110.22881 -187.30324 C 109.24742 -187.9575 108.3761 -188.7634 107.64739 -189.69086 L 107.64739 -189.69086 C 107.54178 -189.82526 107.34722 -189.8486 107.21282 -189.743 C 107.11007 -189.66228 107.0691 -189.52573 107.11042 -189.40177 L 107.24739 -188.99086 C 107.70664 -187.6131 107.8112 -186.14182 107.55141 -184.71297 L 107.15627 -182.5397 C 106.88506 -181.04804 106.40321 -179.6025 105.72519 -178.24645 L 104.19287 -175.18182 C 103.89617 -174.58842 103.56285 -174.01405 103.19484 -173.46203 L 99.99113 -168.65647 C 99.56253 -168.01357 99.08792 -167.40256 98.57104 -166.82824 L 94.00899 -161.7593 C 93.96792 -161.71367 93.92659 -161.66828 93.885 -161.62312 L 87.89077 -155.1151 C 87.26303 -154.43356 86.57728 -153.80783 85.84125 -153.24498 L 80.81707 -149.40297 C 80.37093 -149.0618 79.90712 -148.74435 79.42759 -148.45195 L 72.94119 -144.49683 C 72.27953 -144.09338 71.58943 -143.73853 70.87635 -143.4351 L 63.76094 -140.40726 C 62.953274 -140.06357 62.1187 -139.78693 61.26566 -139.58013 L 57.1866 -138.59127 C 56.361765 -138.39131 55.52233 -138.2573 54.67624 -138.1905 L 48.97603 -137.74048 C 48.5571 -137.70741 48.137025 -137.69086 47.71679 -137.69086 L 40.68447 -137.69086 C 39.92737 -137.69086 39.171223 -137.7446 38.42173 -137.85166 L 30.475283 -138.98687 C 29.990275 -139.05616 29.508705 -139.14768 29.032096 -139.26116 L 23.070868 -140.6805 C 21.92538 -140.95324 20.813502 -141.35159 19.755431 -141.86832 L 13.475428 -144.9353 C 12.990378 -145.17218 12.517626 -145.43346 12.058987 -145.71814 L 7.847124 -148.3324 C 7.247954 -148.7043 6.674028 -149.1154 6.1290986 -149.56302 L 1.682993 -153.21518 C 1.4592965 -153.39893 1.2406282 -153.58872 1.0272296 -153.78433 L -2.775113 -157.26981 C -3.226408 -157.6835 -3.6535876 -158.12275 -4.0545443 -158.5854 L -8.17329 -163.33779 C -8.492672 -163.7063 -8.795039 -164.08923 -9.079445 -164.48537 L -13.509099 -170.65525 C -14.003991 -171.34456 -14.443262 -172.07215 -14.822754 -172.83114 L -17.399218 -177.98406 C -17.434815 -178.05526 -17.46988 -178.12672 -17.50441 -178.19843 L -18.752614 -180.79086 C -19.603329 -182.55772 -19.95885 -184.52226 -19.781309 -186.47521 L -19.601103 -188.45747 C -19.577298 -188.71933 -19.77028 -188.9509 -20.032143 -188.97472 C -20.194538 -188.98948 -20.353192 -188.9201 -20.452614 -188.79086 L -20.452614 -188.79086 C -21.11606 -187.92838 -21.896168 -187.1623 -22.770546 -186.5146 L -26.66708 -183.62829 C -26.790763 -183.53667 -26.91576 -183.44684 -27.042037 -183.35883 L -31.664288 -180.13726 C -32.851024 -179.31015 -34.144444 -178.64778 -35.509194 -178.16827 L -40.11632 -176.54955 C -40.60689 -176.3772 -41.08877 -176.18102 -41.560236 -175.96173 L -48.40702 -172.77718 C -49.10318 -172.45338 -49.821744 -172.18012 -50.557143 -171.9595 L -61.42753 -168.69838 C -61.444254 -168.69336 -61.46097 -168.68832 -61.47767 -168.68325 L -72.44576 -165.35365 C -72.58366 -165.31179 -72.72098 -165.26807 -72.8577 -165.2225 L -85.77893 -160.91542 C -85.82805 -160.89904 -85.87725 -160.8829 -85.92653 -160.86701 L -97.29394 -157.2001 C -97.93242 -156.99414 -98.55732 -156.74823 -99.16494 -156.46381 L -107.0969 -152.75098 C -107.46724 -152.57763 -107.8308 -152.39014 -108.18678 -152.18894 L -114.13289 -148.8281 C -115.38592 -148.11985 -115.82757 -146.52993 -115.11933 -145.2769 C -115.04222 -145.14046 -114.95295 -145.01125 -114.85262 -144.89086 L -113.9885 -143.85392 C -113.23356 -142.94799 -112.58108 -141.96137 -112.04297 -140.91204 L -108.96583 -134.91162 C -108.89036 -134.76445 -108.81261 -134.61846 -108.73261 -134.4737 L -104.77786 -127.31749 C -104.69437 -127.16641 -104.61333 -127.01399 -104.53477 -126.86029 L -100.42646 -118.8223 C -100.1774 -118.33499 -99.95349 -117.83522 -99.75564 -117.32497 L -96.27287 -108.34309 C -96.25937 -108.30827 -96.24574 -108.27349 -96.232 -108.23876 L -92.63567 -99.15332 C -92.51366 -98.84508 -92.40126 -98.53313 -92.29864 -98.21792 L -89.6768 -90.16514 C -89.66068 -90.11562 -89.6448 -90.06601 -89.62916 -90.01634 L -86.55711 -80.25807 C -86.35432 -79.6139 -86.19251 -78.95755 -86.07266 -78.29294 L -84.08735 -67.28348 C -84.06419 -67.15507 -84.04261 -67.026375 -84.0226 -66.89743 L -82.31673 -55.90405 C -82.27399 -55.62863 -82.23846 -55.352146 -82.21017 -55.07487 L -81.32275 -46.378157 C -81.27601 -45.92017 -81.24907 -45.460376 -81.24199 -45.000063 L -81.05775 -33.02444 C -81.05433 -32.802074 -81.04627 -32.5798 -81.03358 -32.35777 L -80.26321 -18.876207 C -80.25615 -18.752642 -80.24765 -18.629163 -80.237725 -18.505795 L -78.904155 -1.9314226 C -78.86981 -1.5045483 -78.85261 -1.0764671 -78.85261 -.6482132 L -78.85261 11.801569 C -78.85261 12.006602 -78.84867 12.211617 -78.84079 12.416499 L -78.26044 27.505636 C -78.25522 27.641305 -78.25173 27.777034 -78.24997 27.912792 L -78.05781 42.709047 C -78.05435 42.97574 -78.05755 43.242476 -78.06742 43.50901 L -78.64165 59.013156 C -78.64896 59.21047 -78.65261 59.407896 -78.65261 59.60534 L -78.65261 73.20157 C -78.65261 73.4066 -78.65656 73.61162 -78.66444 73.8165 L -79.24963 89.0315 C -79.25162 89.08327 -79.25386 89.13502 -79.256355 89.18676 L -80.05168 105.6897 C -80.0523 105.70266 -80.05294 105.71563 -80.0536 105.7286 L -80.84809 121.41976 C -80.85111 121.47935 -80.85446 121.53893 -80.85814 121.59848 L -82.04705 140.81921 C -82.05076 140.87917 -82.05481 140.9391 -82.05919 140.99902 L -83.84233 165.36857 C -83.84919 165.46229 -83.85687 165.55594 -83.86538 165.64953 L -85.65127 185.29434 C -85.65217 185.30421 -85.65307 185.31409 -85.65399 185.32396 L -87.42475 204.40886 C -87.44333 204.60904 -87.46567 204.80884 -87.49177 205.00818 L -89.45249 219.9809 C -89.5853 220.9951 -89.85444 221.9867 -90.25262 222.92888 L -90.25262 222.92888 C -90.65019 223.86962 -90.89886 224.86654 -90.98968 225.8838 L -91.75262 234.42888 C -92.26037 240.1159 -88.30191 245.23427 -82.66994 246.17293 Z" stroke="#7f8080" stroke-linecap="round" stroke-linejoin="round" stroke-width="1"/>
      <path d="M -170 -40.553854 L -163.8 -36.153854 L -155.6 -32.153854 L -147 -28.553854 L -138 -24.753854 L -127 -20.753854 L -117.6 -17.953854 L -108.6 -15.353854 L -99.6 -12.753854 L -94.2 -11.353854 L -88.6 -10.353854 L -86.2 -16.153854 L -83.6 -21.553854 L -81.4 -25.553854 L -78.8 -28.953854 L -78.6 -37.953854 L -79.2 -48.953855 L -81 -59.753855 L -82.6 -70.153855 L -85.2 -81.153855 L -87.6 -90.75386 L -90.4 -98.75386 L -93.6 -108.15386 L -96.4 -115.55386 L -100 -123.15386 L -104 -130.75386 L -108 -138.15386 L -110.6 -141.75386 L -114.2 -147.55386 L -119.6 -143.15386 L -124.4 -138.35386 L -129 -132.15386 L -133.4 -125.95386 L -138.2 -117.35386 L -143 -107.95386 L -147.8 -98.75386 L -151.4 -90.15386 L -155.4 -81.153855 L -158.6 -72.953855 L -162.4 -63.553855 L -165.2 -55.553855 L -168.2 -47.153855 Z" fill="#0000a3"/>
      <path d="M -170 -40.553854 L -163.8 -36.153854 L -155.6 -32.153854 L -147 -28.553854 L -138 -24.753854 L -127 -20.753854 L -117.6 -17.953854 L -108.6 -15.353854 L -99.6 -12.753854 L -94.2 -11.353854 L -88.6 -10.353854 L -86.2 -16.153854 L -83.6 -21.553854 L -81.4 -25.553854 L -78.8 -28.953854 L -78.6 -37.953854 L -79.2 -48.953855 L -81 -59.753855 L -82.6 -70.153855 L -85.2 -81.153855 L -87.6 -90.75386 L -90.4 -98.75386 L -93.6 -108.15386 L -96.4 -115.55386 L -100 -123.15386 L -104 -130.75386 L -108 -138.15386 L -110.6 -141.75386 L -114.2 -147.55386 L -119.6 -143.15386 L -124.4 -138.35386 L -129 -132.15386 L -133.4 -125.95386 L -138.2 -117.35386 L -143 -107.95386 L -147.8 -98.75386 L -151.4 -90.15386 L -155.4 -81.153855 L -158.6 -72.953855 L -162.4 -63.553855 L -165.2 -55.553855 L -168.2 -47.153855 Z" stroke="#7f8080" stroke-linecap="round" stroke-linejoin="round" stroke-width="1"/>
      <path d="M -170 -40.553854 L -163.8 -36.153854 L -155.6 -32.153854 L -147 -28.553854 L -138 -24.753854 L -127 -20.753854 L -117.6 -17.953854 L -108.6 -15.353854 L -99.6 -12.753854 L -94.2 -11.353854 L -88.6 -10.353854 L -85.6 -16.753854 L -89.4 -17.553854 L -94.2 -18.753854 L -99.8 -19.953854 L -105.8 -21.753854 L -110.4 -23.153854 L -114.6 -24.353854 L -119.2 -26.353854 L -123.8 -27.953854 L -128.6 -29.953854 L -132.6 -31.353854 L -137.8 -33.553854 L -142.4 -35.153854 L -147.2 -37.353854 L -152 -39.153854 L -156 -41.153854 L -160.4 -43.353854 L -164.8 -45.553854 L -168.2 -47.153855 Z" fill="white"/>
      <path d="M -170 -40.553854 L -163.8 -36.153854 L -155.6 -32.153854 L -147 -28.553854 L -138 -24.753854 L -127 -20.753854 L -117.6 -17.953854 L -108.6 -15.353854 L -99.6 -12.753854 L -94.2 -11.353854 L -88.6 -10.353854 L -85.6 -16.753854 L -89.4 -17.553854 L -94.2 -18.753854 L -99.8 -19.953854 L -105.8 -21.753854 L -110.4 -23.153854 L -114.6 -24.353854 L -119.2 -26.353854 L -123.8 -27.953854 L -128.6 -29.953854 L -132.6 -31.353854 L -137.8 -33.553854 L -142.4 -35.153854 L -147.2 -37.353854 L -152 -39.153854 L -156 -41.153854 L -160.4 -43.353854 L -164.8 -45.553854 L -168.2 -47.153855 Z" stroke="#7f8080" stroke-linecap="round" stroke-linejoin="round" stroke-width="1"/>
      <path d="M -19.940752 -190.2441 L -14.540752 -190.8441 L -7.740752 -187.4441 L -2.7407522 -185.6441 L 5.659248 -183.8441 L 14.059248 -182.8441 L 22.059248 -181.8441 L 29.65925 -181.6441 L 38.25925 -181.2441 L 49.85925 -181.4441 L 58.25925 -181.8441 L 67.65925 -182.4441 L 76.05925 -183.2441 L 85.25925 -184.6441 L 93.45925 -186.8441 L 99.25925 -188.6441 L 104.85925 -191.2441 L 107.65925 -190.0441 L 108.05925 -184.4441 L 105.25925 -176.4441 L 99.85925 -173.6441 L 89.25925 -170.4441 L 77.85925 -168.0441 L 66.65925 -167.2441 L 54.25925 -166.2441 L 43.85925 -166.2441 L 34.45925 -166.2441 L 22.859248 -166.8441 L 11.659248 -167.6441 L 1.0592479 -169.8441 L -7.540752 -171.8441 L -13.740752 -174.6441 L -15.740752 -176.2441 L -18.940752 -183.8441 Z" fill="#ccc"/>
      <path d="M -19.940752 -190.2441 L -14.540752 -190.8441 L -7.740752 -187.4441 L -2.7407522 -185.6441 L 5.659248 -183.8441 L 14.059248 -182.8441 L 22.059248 -181.8441 L 29.65925 -181.6441 L 38.25925 -181.2441 L 49.85925 -181.4441 L 58.25925 -181.8441 L 67.65925 -182.4441 L 76.05925 -183.2441 L 85.25925 -184.6441 L 93.45925 -186.8441 L 99.25925 -188.6441 L 104.85925 -191.2441 L 107.65925 -190.0441 L 108.05925 -184.4441 L 105.25925 -176.4441 L 99.85925 -173.6441 L 89.25925 -170.4441 L 77.85925 -168.0441 L 66.65925 -167.2441 L 54.25925 -166.2441 L 43.85925 -166.2441 L 34.45925 -166.2441 L 22.859248 -166.8441 L 11.659248 -167.6441 L 1.0592479 -169.8441 L -7.540752 -171.8441 L -13.740752 -174.6441 L -15.740752 -176.2441 L -18.940752 -183.8441 Z" stroke="#7f8080" stroke-linecap="round" stroke-linejoin="round" stroke-width="1"/>
      <path d="M -90.18679 235.2 L -90.18679 235.2 C -90.25247 235.72549 -90.18964 236.25905 -90.0037 236.7549 L -89.35269 238.49092 C -89.17594 238.96227 -88.94885 239.41318 -88.67538 239.83582 L -87.70757 241.33153 C -87.16661 242.16756 -86.45351 242.87855 -85.61588 243.41702 L -84.53783 244.11005 C -84.23757 244.30307 -83.92299 244.47285 -83.59684 244.61789 L -82.27999 245.2035 C -81.68346 245.46876 -81.05275 245.64928 -80.40621 245.7398 L -71.39579 247.00126 C -71.38579 247.00265 -71.3758 247.00403 -71.3658 247.0054 L -59.6498 248.594 C -59.6038 248.60024 -59.55774 248.606 -59.51162 248.61134 L -49.228685 249.79783 C -49.19676 249.8015 -49.16481 249.80498 -49.132835 249.80822 L -35.42277 251.1991 C -35.394787 251.20193 -35.36679 251.2046 -35.338774 251.2071 L -24.233474 252.19865 C -24.198356 252.2018 -24.163214 252.20466 -24.128052 252.20726 L -13.441515 252.99886 C -13.401036 253.00185 -13.360532 253.0045 -13.320007 253.0068 L -2.8120237 253.6016 C -2.791205 253.60276 -2.7703916 253.60404 -2.7495842 253.6054 L 9.293193 254.3951 C 9.377194 254.4006 9.461288 254.4046 9.545432 254.40707 L 22.992557 254.80257 C 23.010322 254.8031 23.028085 254.80368 23.045846 254.80434 L 33.68971 255.19856 C 33.776032 255.20176 33.862408 255.20335 33.94879 255.20335 L 44.557807 255.20335 C 44.59874 255.20335 44.63967 255.2037 44.680595 255.20443 L 55.76702 255.39893 C 55.93509 255.40188 56.10321 255.39877 56.27106 255.38962 L 66.89229 254.81028 C 66.97689 254.80566 67.06157 254.80258 67.14629 254.80104 L 77.91085 254.60532 C 77.98308 254.604 78.05529 254.60158 78.12745 254.59803 L 90.14607 254.00695 C 90.19483 254.00455 90.24355 254.00165 90.29225 253.99823 L 101.5323 253.20945 C 101.59023 253.2054 101.64812 253.2006 101.70594 253.1951 L 114.11651 252.01313 C 114.18497 252.0066 114.25352 252.0011 114.32214 251.9966 L 126.25416 251.21418 C 126.36418 251.20696 126.474 251.19715 126.58355 251.18475 L 136.9959 250.006 C 137.01144 250.00423 137.02697 250.00242 137.0425 250.00056 L 146.9902 248.80683 C 147.00954 248.8045 147.02886 248.8021 147.04818 248.79963 L 160.88394 247.0221 C 160.98115 247.0096 161.0781 246.99507 161.1747 246.9785 L 167.72819 245.85506 C 167.92915 245.8206 168.13153 245.79495 168.33473 245.77817 L 171.56706 245.5112 C 172.4563 245.43775 173.3233 245.19497 174.12135 244.79594 L 175.60765 244.0528 C 176.20824 243.7525 176.7625 243.36735 177.25338 242.9092 L 178.5885 241.66308 C 179.19532 241.09672 179.65073 240.38747 179.91322 239.6 L 180.20805 238.71552 C 180.27812 238.5053 180.33817 238.29187 180.388 238.07595 L 180.8577 236.04056 C 180.89293 235.88792 180.8595 235.72752 180.76621 235.60168 L 180.76621 235.60168 C 180.67587 235.4798 180.52523 235.4183 180.3754 235.44214 L 171.89555 236.7912 C 171.84466 236.7993 171.79385 236.80796 171.74315 236.81718 L 158.7584 239.17805 C 158.66561 239.19492 158.5725 239.2099 158.47911 239.22302 L 147.24943 240.7991 C 147.22928 240.80194 147.20914 240.80486 147.18902 240.80786 L 134.06643 242.76645 C 133.90167 242.79105 133.73608 242.80975 133.56998 242.82253 L 120.84517 243.80136 C 120.82786 243.8027 120.81055 243.80396 120.79323 243.80516 L 106.45308 244.801 C 106.4305 244.80257 106.40791 244.80403 106.38531 244.80538 L 93.08205 245.5996 C 93.04016 245.6021 92.99824 245.60423 92.9563 245.60597 L 78.76485 246.1973 C 78.66776 246.20133 78.570605 246.20335 78.47344 246.20335 L 65.219206 246.20335 L 52.677535 246.20335 C 52.63865 246.20335 52.599764 246.20368 52.560884 246.20433 L 40.802496 246.4003 C 40.680323 246.40234 40.55812 246.40117 40.436005 246.3968 L 29.602405 246.0099 C 29.480293 246.00554 29.358087 246.00437 29.235914 246.0064 L 17.521274 246.20165 C 17.453231 246.2028 17.385176 246.20293 17.31713 246.20208 L 1.6148448 246.0058 C 1.4844435 246.00417 1.3541132 245.9989 1.2240066 245.98998 L -13.085771 245.00986 C -13.149118 245.00552 -13.212403 245.00032 -13.275608 244.99426 L -27.766614 243.6047 C -27.77607 243.6038 -27.78552 243.60288 -27.794972 243.60194 L -41.60701 242.22073 C -41.72285 242.20915 -41.83838 242.19468 -41.9535 242.17733 L -56.26265 240.02116 C -56.34141 240.0093 -56.42036 239.99877 -56.49948 239.9896 L -70.01941 238.42207 C -70.12699 238.4096 -70.23426 238.39463 -70.34114 238.37718 L -79.73323 236.84377 C -79.89822 236.81684 -80.0622 236.784 -80.22484 236.74532 L -89.30244 234.58654 C -89.69075 234.4942 -90.08041 234.73412 -90.17276 235.12244 C -90.17884 235.14802 -90.18353 235.17392 -90.18679 235.2 Z" fill="white"/>
      <path d="M -90.18679 235.2 L -90.18679 235.2 C -90.25247 235.72549 -90.18964 236.25905 -90.0037 236.7549 L -89.35269 238.49092 C -89.17594 238.96227 -88.94885 239.41318 -88.67538 239.83582 L -87.70757 241.33153 C -87.16661 242.16756 -86.45351 242.87855 -85.61588 243.41702 L -84.53783 244.11005 C -84.23757 244.30307 -83.92299 244.47285 -83.59684 244.61789 L -82.27999 245.2035 C -81.68346 245.46876 -81.05275 245.64928 -80.40621 245.7398 L -71.39579 247.00126 C -71.38579 247.00265 -71.3758 247.00403 -71.3658 247.0054 L -59.6498 248.594 C -59.6038 248.60024 -59.55774 248.606 -59.51162 248.61134 L -49.228685 249.79783 C -49.19676 249.8015 -49.16481 249.80498 -49.132835 249.80822 L -35.42277 251.1991 C -35.394787 251.20193 -35.36679 251.2046 -35.338774 251.2071 L -24.233474 252.19865 C -24.198356 252.2018 -24.163214 252.20466 -24.128052 252.20726 L -13.441515 252.99886 C -13.401036 253.00185 -13.360532 253.0045 -13.320007 253.0068 L -2.8120237 253.6016 C -2.791205 253.60276 -2.7703916 253.60404 -2.7495842 253.6054 L 9.293193 254.3951 C 9.377194 254.4006 9.461288 254.4046 9.545432 254.40707 L 22.992557 254.80257 C 23.010322 254.8031 23.028085 254.80368 23.045846 254.80434 L 33.68971 255.19856 C 33.776032 255.20176 33.862408 255.20335 33.94879 255.20335 L 44.557807 255.20335 C 44.59874 255.20335 44.63967 255.2037 44.680595 255.20443 L 55.76702 255.39893 C 55.93509 255.40188 56.10321 255.39877 56.27106 255.38962 L 66.89229 254.81028 C 66.97689 254.80566 67.06157 254.80258 67.14629 254.80104 L 77.91085 254.60532 C 77.98308 254.604 78.05529 254.60158 78.12745 254.59803 L 90.14607 254.00695 C 90.19483 254.00455 90.24355 254.00165 90.29225 253.99823 L 101.5323 253.20945 C 101.59023 253.2054 101.64812 253.2006 101.70594 253.1951 L 114.11651 252.01313 C 114.18497 252.0066 114.25352 252.0011 114.32214 251.9966 L 126.25416 251.21418 C 126.36418 251.20696 126.474 251.19715 126.58355 251.18475 L 136.9959 250.006 C 137.01144 250.00423 137.02697 250.00242 137.0425 250.00056 L 146.9902 248.80683 C 147.00954 248.8045 147.02886 248.8021 147.04818 248.79963 L 160.88394 247.0221 C 160.98115 247.0096 161.0781 246.99507 161.1747 246.9785 L 167.72819 245.85506 C 167.92915 245.8206 168.13153 245.79495 168.33473 245.77817 L 171.56706 245.5112 C 172.4563 245.43775 173.3233 245.19497 174.12135 244.79594 L 175.60765 244.0528 C 176.20824 243.7525 176.7625 243.36735 177.25338 242.9092 L 178.5885 241.66308 C 179.19532 241.09672 179.65073 240.38747 179.91322 239.6 L 180.20805 238.71552 C 180.27812 238.5053 180.33817 238.29187 180.388 238.07595 L 180.8577 236.04056 C 180.89293 235.88792 180.8595 235.72752 180.76621 235.60168 L 180.76621 235.60168 C 180.67587 235.4798 180.52523 235.4183 180.3754 235.44214 L 171.89555 236.7912 C 171.84466 236.7993 171.79385 236.80796 171.74315 236.81718 L 158.7584 239.17805 C 158.66561 239.19492 158.5725 239.2099 158.47911 239.22302 L 147.24943 240.7991 C 147.22928 240.80194 147.20914 240.80486 147.18902 240.80786 L 134.06643 242.76645 C 133.90167 242.79105 133.73608 242.80975 133.56998 242.82253 L 120.84517 243.80136 C 120.82786 243.8027 120.81055 243.80396 120.79323 243.80516 L 106.45308 244.801 C 106.4305 244.80257 106.40791 244.80403 106.38531 244.80538 L 93.08205 245.5996 C 93.04016 245.6021 92.99824 245.60423 92.9563 245.60597 L 78.76485 246.1973 C 78.66776 246.20133 78.570605 246.20335 78.47344 246.20335 L 65.219206 246.20335 L 52.677535 246.20335 C 52.63865 246.20335 52.599764 246.20368 52.560884 246.20433 L 40.802496 246.4003 C 40.680323 246.40234 40.55812 246.40117 40.436005 246.3968 L 29.602405 246.0099 C 29.480293 246.00554 29.358087 246.00437 29.235914 246.0064 L 17.521274 246.20165 C 17.453231 246.2028 17.385176 246.20293 17.31713 246.20208 L 1.6148448 246.0058 C 1.4844435 246.00417 1.3541132 245.9989 1.2240066 245.98998 L -13.085771 245.00986 C -13.149118 245.00552 -13.212403 245.00032 -13.275608 244.99426 L -27.766614 243.6047 C -27.77607 243.6038 -27.78552 243.60288 -27.794972 243.60194 L -41.60701 242.22073 C -41.72285 242.20915 -41.83838 242.19468 -41.9535 242.17733 L -56.26265 240.02116 C -56.34141 240.0093 -56.42036 239.99877 -56.49948 239.9896 L -70.01941 238.42207 C -70.12699 238.4096 -70.23426 238.39463 -70.34114 238.37718 L -79.73323 236.84377 C -79.89822 236.81684 -80.0622 236.784 -80.22484 236.74532 L -89.30244 234.58654 C -89.69075 234.4942 -90.08041 234.73412 -90.17276 235.12244 C -90.17884 235.14802 -90.18353 235.17392 -90.18679 235.2 Z" stroke="#7f8080" stroke-linecap="round" stroke-linejoin="round" stroke-width="1"/>
      <path d="M 152.27291 240.8372 L 163.47305 239.83352 L 176.70958 237.8262 L 180.78235 235.81885 L 175.69138 204.70516 L 172.6368 177.60614 L 170.60041 150.50711 L 167.54583 123.4081 L 166.52763 95.3054 L 166.52763 66.19905 L 165.50944 42.111027 L 165.50944 4.97533 L 169.5 -31.5 L 176.5 -59.5 L 177.5 -74.5 L 181.5 -89 L 187 -102.5 L 192 -112 L 198 -129.5 L 202.5 -140 L 206.5 -148 L 196.05527 -154.6078 L 182.81874 -159.62614 L 169.58222 -163.6408 L 150.23653 -168.65914 L 147 241 Z" fill="white"/>
      <path d="M 152.27291 240.8372 L 163.47305 239.83352 L 176.70958 237.8262 L 180.78235 235.81885 L 175.69138 204.70516 L 172.6368 177.60614 L 170.60041 150.50711 L 167.54583 123.4081 L 166.52763 95.3054 L 166.52763 66.19905 L 165.50944 42.111027 L 165.50944 4.97533 L 169.5 -31.5 L 176.5 -59.5 L 177.5 -74.5 L 181.5 -89 L 187 -102.5 L 192 -112 L 198 -129.5 L 202.5 -140 L 206.5 -148 L 196.05527 -154.6078 L 182.81874 -159.62614 L 169.58222 -163.6408 L 150.23653 -168.65914 L 147 241 Z" stroke="#7f8080" stroke-linecap="round" stroke-linejoin="round" stroke-width="1"/>
      <path d="M -58.6583 239.8861 L -62.97203 239.46113 L -73.97203 238.46113 L -86.97203 236.46113 L -90.97203 234.46113 L -85.97203 203.46113 L -84.1583 177.3861 L -81.6583 149.3861 L -80.1583 122.3861 L -79.6583 93.3861 L -78.1583 66.3861 L -77.6583 40.8861 L -78.6583 4.8861004 L -79.6583 -28.6139 L -79.6583 -43.6139 L -82.1583 -59.1139 L -84.6583 -74.1139 L -89.1583 -89.6139 L -93.6583 -104.1139 L -98.6583 -117.6139 L -105.1583 -131.1139 L -111.6583 -141.6139 L -115.1583 -148.1139 L -105.97203 -154.53887 L -92.97203 -159.53887 L -79.97203 -163.53887 L -61.6583 -169.1139 L -56.1583 -170.6139 Z" fill="white"/>
      <path d="M -58.6583 239.8861 L -62.97203 239.46113 L -73.97203 238.46113 L -86.97203 236.46113 L -90.97203 234.46113 L -85.97203 203.46113 L -84.1583 177.3861 L -81.6583 149.3861 L -80.1583 122.3861 L -79.6583 93.3861 L -78.1583 66.3861 L -77.6583 40.8861 L -78.6583 4.8861004 L -79.6583 -28.6139 L -79.6583 -43.6139 L -82.1583 -59.1139 L -84.6583 -74.1139 L -89.1583 -89.6139 L -93.6583 -104.1139 L -98.6583 -117.6139 L -105.1583 -131.1139 L -111.6583 -141.6139 L -115.1583 -148.1139 L -105.97203 -154.53887 L -92.97203 -159.53887 L -79.97203 -163.53887 L -61.6583 -169.1139 L -56.1583 -170.6139 Z" stroke="#7f8080" stroke-linecap="round" stroke-linejoin="round" stroke-width="1"/>
      <path d="M -18.5 244 L -13 245 L 1 245.5 L 22 245.5 L 22 -128 L 10 -132 L 3 -136 L -6 -142 L -15 -150.5 Z" fill="white"/>
      <path d="M -18.5 244 L -13 245 L 1 245.5 L 22 245.5 L 22 -128 L 10 -132 L 3 -136 L -6 -142 L -15 -150.5 Z" stroke="#7f8080" stroke-linecap="round" stroke-linejoin="round" stroke-width="1"/>
      <path d="M 75 -129.5 L 84 -134.5 L 90 -139 L 98 -145 L 104 -151.5 L 108.5 244.5 L 91.5 245.5 L 80.5 246 L 74 246.5 L 70 246 L 71 246 L 67 -126.5 Z" fill="white"/>
      <path d="M 75 -129.5 L 84 -134.5 L 90 -139 L 98 -145 L 104 -151.5 L 108.5 244.5 L 91.5 245.5 L 80.5 246 L 74 246.5 L 70 246 L 71 246 L 67 -126.5 Z" stroke="#7f8080" stroke-linecap="round" stroke-linejoin="round" stroke-width="1"/>
      <path d="M 204.62766 -149.2138 L 200.19392 -151.58902 C 200.18026 -151.59634 200.16642 -151.60334 200.15243 -151.61002 L 191.41156 -155.7818 C 191.38615 -155.79393 191.36023 -155.80498 191.33389 -155.81492 L 180.7917 -159.7931 C 180.77952 -159.7977 180.76724 -159.80206 180.75488 -159.80618 L 167.58647 -164.19565 C 167.57777 -164.19855 167.56903 -164.20133 167.56025 -164.20399 L 154.38003 -168.198 C 154.37563 -168.19933 154.37123 -168.2007 154.36684 -168.2021 L 141.21034 -172.38825 C 141.18574 -172.39608 141.16145 -172.40486 141.13752 -172.41457 L 127.45153 -177.9683 C 127.39955 -177.9894 127.34944 -178.01483 127.30172 -178.04432 L 116.38802 -184.79098 C 116.37829 -184.797 116.36866 -184.80317 116.35914 -184.80952 L 109.90634 -189.11139 C 109.81829 -189.1701 109.74011 -189.2424 109.67472 -189.32561 L 108.67342 -190.6 C 108.56782 -190.7344 108.37325 -190.75775 108.23885 -190.65215 C 108.13611 -190.57142 108.09513 -190.43487 108.13645 -190.31092 L 108.8924 -188.04305 C 108.94556 -187.8836 108.95766 -187.7133 108.92759 -187.54794 L 107.79898 -181.34055 C 107.78203 -181.24732 107.75191 -181.15698 107.70953 -181.07222 L 104.80126 -175.25568 C 104.78272 -175.2186 104.76189 -175.1827 104.73889 -175.1482 L 100.41365 -168.66035 C 100.38687 -168.62017 100.3572 -168.58198 100.3249 -168.54609 L 94.97727 -162.60428 C 94.9747 -162.60143 94.97212 -162.59859 94.96952 -162.59577 L 88.03238 -155.06401 C 87.99315 -155.02142 87.95029 -154.98231 87.90429 -154.94713 L 81.21528 -149.832 C 81.18739 -149.81068 81.1584 -149.79084 81.12843 -149.77257 L 73.03553 -144.83787 C 72.99418 -144.81266 72.95105 -144.79048 72.90648 -144.77151 L 63.64927 -140.83227 C 63.59879 -140.8108 63.54663 -140.7935 63.49331 -140.78058 L 57.05087 -139.21878 C 56.99932 -139.20628 56.946854 -139.1979 56.89397 -139.19373 L 49.41271 -138.6031 C 49.386527 -138.60103 49.36027 -138.6 49.33401 -138.6 L 40.644488 -138.6 C 40.59717 -138.6 40.54991 -138.60336 40.503066 -138.61005 L 30.818913 -139.9935 C 30.7886 -139.99783 30.758502 -140.00355 30.728714 -140.01064 L 22.481137 -141.97435 C 22.409544 -141.9914 22.340052 -142.0163 22.273922 -142.04859 L 13.818922 -146.17778 C 13.788606 -146.19258 13.75906 -146.20891 13.730394 -146.2267 L 8.029653 -149.7651 C 7.992205 -149.78834 7.956334 -149.81403 7.922276 -149.84201 L 2.3943945 -154.38277 C 2.3804135 -154.39425 2.3667468 -154.40612 2.3534093 -154.41834 L -2.3842371 -158.76118 C -2.412443 -158.78704 -2.4391418 -158.8145 -2.4642016 -158.8434 L -7.596623 -164.76543 C -7.616585 -164.78847 -7.635483 -164.8124 -7.653258 -164.83716 L -13.180111 -172.53527 C -13.211042 -172.57836 -13.238497 -172.62383 -13.262215 -172.67127 L -16.423244 -178.99333 C -16.425469 -178.99777 -16.42766 -179.00224 -16.429818 -179.00672 L -18.906663 -184.15094 C -18.985137 -184.31392 -19.017932 -184.49514 -19.001555 -184.6753 L -18.57507 -189.36661 C -18.551265 -189.62848 -18.744248 -189.86006 -19.00611 -189.88386 C -19.168505 -189.89862 -19.32716 -189.82925 -19.426581 -189.7 L -20.34142 -188.5107 C -20.39792 -188.43726 -20.464355 -188.37202 -20.538817 -188.31686 L -25.814985 -184.4086 C -25.822716 -184.40286 -25.830528 -184.39725 -25.83842 -184.39175 L -32.31481 -179.8779 C -32.388982 -179.8262 -32.46982 -179.7848 -32.555118 -179.75484 L -39.780563 -177.21617 C -39.811224 -177.2054 -39.84134 -177.19313 -39.87081 -177.17943 L -48.36123 -173.2304 C -48.40474 -173.21016 -48.44965 -173.19308 -48.495615 -173.1793 L -60.425014 -169.60047 C -60.42606 -169.60016 -60.427104 -169.59984 -60.42815 -169.59952 L -71.61365 -166.20392 C -71.62227 -166.2013 -71.630855 -166.19858 -71.6394 -166.19573 L -84.79728 -161.80977 C -84.81681 -161.80326 -84.83654 -161.79735 -84.85643 -161.79206 L -94.54817 -159.2138 C -94.5827 -159.2046 -94.61671 -159.19358 -94.65006 -159.18075 L -104.90316 -155.23725 C -104.96755 -155.21248 -105.0292 -155.18112 -105.08713 -155.14367 L -114.81223 -148.85584 C -115.27602 -148.55597 -115.4089 -147.9369 -115.10904 -147.47312 C -115.07503 -147.42052 -115.03615 -147.37123 -114.99292 -147.3259 L 45.768595 21.23312 C 46.149766 21.632778 46.782753 21.647766 47.18241 21.266595 C 47.1964 21.253252 47.210003 21.239506 47.223197 21.225374 L 204.8864 -147.6499 C 205.2633 -148.05359 205.24156 -148.68638 204.83787 -149.06327 C 204.7746 -149.12233 204.70395 -149.17293 204.62766 -149.2138 Z" fill="red"/>
      <path d="M 204.62766 -149.2138 L 200.19392 -151.58902 C 200.18026 -151.59634 200.16642 -151.60334 200.15243 -151.61002 L 191.41156 -155.7818 C 191.38615 -155.79393 191.36023 -155.80498 191.33389 -155.81492 L 180.7917 -159.7931 C 180.77952 -159.7977 180.76724 -159.80206 180.75488 -159.80618 L 167.58647 -164.19565 C 167.57777 -164.19855 167.56903 -164.20133 167.56025 -164.20399 L 154.38003 -168.198 C 154.37563 -168.19933 154.37123 -168.2007 154.36684 -168.2021 L 141.21034 -172.38825 C 141.18574 -172.39608 141.16145 -172.40486 141.13752 -172.41457 L 127.45153 -177.9683 C 127.39955 -177.9894 127.34944 -178.01483 127.30172 -178.04432 L 116.38802 -184.79098 C 116.37829 -184.797 116.36866 -184.80317 116.35914 -184.80952 L 109.90634 -189.11139 C 109.81829 -189.1701 109.74011 -189.2424 109.67472 -189.32561 L 108.67342 -190.6 C 108.56782 -190.7344 108.37325 -190.75775 108.23885 -190.65215 C 108.13611 -190.57142 108.09513 -190.43487 108.13645 -190.31092 L 108.8924 -188.04305 C 108.94556 -187.8836 108.95766 -187.7133 108.92759 -187.54794 L 107.79898 -181.34055 C 107.78203 -181.24732 107.75191 -181.15698 107.70953 -181.07222 L 104.80126 -175.25568 C 104.78272 -175.2186 104.76189 -175.1827 104.73889 -175.1482 L 100.41365 -168.66035 C 100.38687 -168.62017 100.3572 -168.58198 100.3249 -168.54609 L 94.97727 -162.60428 C 94.9747 -162.60143 94.97212 -162.59859 94.96952 -162.59577 L 88.03238 -155.06401 C 87.99315 -155.02142 87.95029 -154.98231 87.90429 -154.94713 L 81.21528 -149.832 C 81.18739 -149.81068 81.1584 -149.79084 81.12843 -149.77257 L 73.03553 -144.83787 C 72.99418 -144.81266 72.95105 -144.79048 72.90648 -144.77151 L 63.64927 -140.83227 C 63.59879 -140.8108 63.54663 -140.7935 63.49331 -140.78058 L 57.05087 -139.21878 C 56.99932 -139.20628 56.946854 -139.1979 56.89397 -139.19373 L 49.41271 -138.6031 C 49.386527 -138.60103 49.36027 -138.6 49.33401 -138.6 L 40.644488 -138.6 C 40.59717 -138.6 40.54991 -138.60336 40.503066 -138.61005 L 30.818913 -139.9935 C 30.7886 -139.99783 30.758502 -140.00355 30.728714 -140.01064 L 22.481137 -141.97435 C 22.409544 -141.9914 22.340052 -142.0163 22.273922 -142.04859 L 13.818922 -146.17778 C 13.788606 -146.19258 13.75906 -146.20891 13.730394 -146.2267 L 8.029653 -149.7651 C 7.992205 -149.78834 7.956334 -149.81403 7.922276 -149.84201 L 2.3943945 -154.38277 C 2.3804135 -154.39425 2.3667468 -154.40612 2.3534093 -154.41834 L -2.3842371 -158.76118 C -2.412443 -158.78704 -2.4391418 -158.8145 -2.4642016 -158.8434 L -7.596623 -164.76543 C -7.616585 -164.78847 -7.635483 -164.8124 -7.653258 -164.83716 L -13.180111 -172.53527 C -13.211042 -172.57836 -13.238497 -172.62383 -13.262215 -172.67127 L -16.423244 -178.99333 C -16.425469 -178.99777 -16.42766 -179.00224 -16.429818 -179.00672 L -18.906663 -184.15094 C -18.985137 -184.31392 -19.017932 -184.49514 -19.001555 -184.6753 L -18.57507 -189.36661 C -18.551265 -189.62848 -18.744248 -189.86006 -19.00611 -189.88386 C -19.168505 -189.89862 -19.32716 -189.82925 -19.426581 -189.7 L -20.34142 -188.5107 C -20.39792 -188.43726 -20.464355 -188.37202 -20.538817 -188.31686 L -25.814985 -184.4086 C -25.822716 -184.40286 -25.830528 -184.39725 -25.83842 -184.39175 L -32.31481 -179.8779 C -32.388982 -179.8262 -32.46982 -179.7848 -32.555118 -179.75484 L -39.780563 -177.21617 C -39.811224 -177.2054 -39.84134 -177.19313 -39.87081 -177.17943 L -48.36123 -173.2304 C -48.40474 -173.21016 -48.44965 -173.19308 -48.495615 -173.1793 L -60.425014 -169.60047 C -60.42606 -169.60016 -60.427104 -169.59984 -60.42815 -169.59952 L -71.61365 -166.20392 C -71.62227 -166.2013 -71.630855 -166.19858 -71.6394 -166.19573 L -84.79728 -161.80977 C -84.81681 -161.80326 -84.83654 -161.79735 -84.85643 -161.79206 L -94.54817 -159.2138 C -94.5827 -159.2046 -94.61671 -159.19358 -94.65006 -159.18075 L -104.90316 -155.23725 C -104.96755 -155.21248 -105.0292 -155.18112 -105.08713 -155.14367 L -114.81223 -148.85584 C -115.27602 -148.55597 -115.4089 -147.9369 -115.10904 -147.47312 C -115.07503 -147.42052 -115.03615 -147.37123 -114.99292 -147.3259 L 45.768595 21.23312 C 46.149766 21.632778 46.782753 21.647766 47.18241 21.266595 C 47.1964 21.253252 47.210003 21.239506 47.223197 21.225374 L 204.8864 -147.6499 C 205.2633 -148.05359 205.24156 -148.68638 204.83787 -149.06327 C 204.7746 -149.12233 204.70395 -149.17293 204.62766 -149.2138 Z" stroke="#7f8080" stroke-linecap="round" stroke-linejoin="round" stroke-width="1"/>
      <path d="M -19.42788 -190.03621 L -24.15705 -185.98264 C -25.307397 -184.99662 -26.552357 -184.1267 -27.873787 -183.38552 L -30.400422 -181.96835 C -31.835594 -181.16338 -32.416397 -179.39425 -31.73761 -177.89527 L -30.719994 -175.64803 C -30.598415 -175.37954 -30.471687 -175.11342 -30.33988 -174.8498 L -28.53761 -171.24526 L -26.050623 -166.2713 C -25.708826 -165.5877 -25.333168 -164.92157 -24.925048 -164.27537 L -22.598656 -160.59192 C -22.15828 -159.89465 -21.68072 -159.22158 -21.168047 -158.57561 L -17.757362 -154.27815 C -17.211308 -153.59013 -16.626288 -152.93394 -16.005178 -152.31283 L -11.339135 -147.64679 C -10.938255 -147.24591 -10.522689 -146.85999 -10.09329 -146.48982 L -5.5297655 -142.55574 C -5.135108 -142.21552 -4.7290034 -141.88881 -4.312154 -141.57617 L -.33721373 -138.59497 C .32869875 -138.09553 1.0212327 -137.63262 1.7373313 -137.20826 L 5.8703945 -134.75904 C 5.9983895 -134.68319 6.1271175 -134.60859 6.25656 -134.53523 L 10.954107 -131.87329 C 11.692398 -131.45493 12.453276 -131.07774 13.233252 -130.74347 L 16.783068 -129.22212 C 17.36903 -128.97099 17.96518 -128.74433 18.569974 -128.54274 L 23.58808 -126.87003 C 24.835325 -126.45429 26.11592 -126.14624 27.415795 -125.9493 L 31.514642 -125.32826 C 31.879756 -125.27294 32.24615 -125.22642 32.613502 -125.18874 L 39.494605 -124.48299 C 39.73978 -124.45784 39.985344 -124.43664 40.2312 -124.41938 L 44.758346 -124.10169 C 45.29421 -124.06409 45.831224 -124.04527 46.368405 -124.04527 L 49.63046 -124.04526 C 50.58416 -124.04526 51.536933 -124.10458 52.48327 -124.22287 L 56.47198 -124.72146 C 57.131945 -124.80396 57.78802 -124.91504 58.43835 -125.0544 L 64.52039 -126.35769 C 65.41426 -126.54924 66.29592 -126.7939 67.16068 -127.09039 L 71.669525 -128.63628 C 72.46417 -128.90873 73.2433 -129.22451 74.0034 -129.5822 L 78.83677 -131.85674 C 79.38697 -132.11565 79.92668 -132.39629 80.45464 -132.69798 L 84.2225 -134.85104 C 84.91529 -135.24692 85.58701 -135.67858 86.23494 -136.14428 L 90.91106 -139.50525 C 91.41175 -139.86511 91.89776 -140.24497 92.36792 -140.64389 L 97.68877 -145.15856 C 98.07108 -145.48294 98.44269 -145.81974 98.80298 -146.16842 L 103.5022 -150.71604 C 104.14179 -151.335 104.74491 -151.99056 105.30852 -152.67942 L 109.10181 -157.31566 C 109.60852 -157.93497 110.08257 -158.58031 110.52201 -159.24904 L 114.13919 -164.75344 C 114.35462 -165.08127 114.56163 -165.41456 114.76002 -165.75298 L 117.28311 -170.05708 C 117.66906 -170.71546 118.022 -171.39265 118.34062 -172.08612 L 120.45932 -176.6974 C 120.99218 -177.85715 121.36334 -179.08456 121.5624 -180.34526 L 121.5624 -180.34526 C 121.7407 -181.47453 121.1614 -182.58797 120.13432 -183.0901 L 114.84088 -185.678 C 113.52642 -186.32063 112.29183 -187.11514 111.16239 -188.04526 L 110.75638 -188.37963 C 109.91205 -189.07496 109.28864 -190.00126 108.96239 -191.04526 L 108.96239 -191.04526 C 108.91573 -191.19458 108.75686 -191.2778 108.60754 -191.23114 C 108.49247 -191.19518 108.41277 -191.09031 108.40892 -190.96981 L 108.29968 -187.5469 C 108.20894 -184.70381 107.5916 -181.90224 106.47899 -179.28433 L 105.60206 -177.22096 C 105.04349 -175.90669 104.36374 -174.6473 103.5716 -173.45909 L 99.88582 -167.93042 C 99.13831 -166.80915 98.29371 -165.75575 97.36175 -164.78238 L 91.06668 -158.20753 C 90.19861 -157.30087 89.25777 -156.4668 88.2536 -155.71367 L 79.87869 -149.4325 C 79.00228 -148.77518 78.08002 -148.18133 77.11896 -147.65546 L 69.93376 -143.72394 C 68.62263 -143.00653 67.244704 -142.41863 65.819515 -141.96857 L 59.146606 -139.86133 C 57.42973 -139.31916 55.655136 -138.98046 53.859267 -138.85219 L 46.972815 -138.3603 C 45.900517 -138.2837 44.82417 -138.28238 43.751685 -138.35635 L 35.315427 -138.93816 C 34.28125 -139.00948 33.25308 -139.15064 32.237946 -139.36067 L 25.10274 -140.83692 C 23.150787 -141.24077 21.259614 -141.89665 19.476757 -142.78808 L 14.817348 -145.11779 C 13.583212 -145.73485 12.407106 -146.46173 11.303261 -147.28961 L 5.621303 -151.55108 C 5.182167 -151.88043 4.754962 -152.2254 4.3405096 -152.58532 L -1.4146714 -157.58324 C -2.228957 -158.29038 -2.9924972 -159.05392 -3.69964 -159.8682 L -8.104865 -164.94089 C -8.858968 -165.80925 -9.546876 -166.73295 -10.162801 -167.70422 L -13.896503 -173.59198 C -14.257069 -174.16056 -14.592495 -174.7447 -14.901812 -175.34272 L -16.522185 -178.47544 C -17.13133 -179.65312 -17.637498 -180.88126 -18.035035 -182.14615 L -19.315274 -186.21964 C -19.53005 -186.90302 -19.712782 -187.59605 -19.862874 -188.29649 L -20.08829 -189.34843 C -20.173365 -189.74544 -19.947007 -190.1431 -19.562203 -190.27263 L -19.562203 -190.27263 C -19.489708 -190.29704 -19.411156 -190.25805 -19.386751 -190.18556 C -19.368737 -190.13205 -19.38501 -190.07296 -19.42788 -190.03621 Z" fill="white"/>
      <path d="M -19.42788 -190.03621 L -24.15705 -185.98264 C -25.307397 -184.99662 -26.552357 -184.1267 -27.873787 -183.38552 L -30.400422 -181.96835 C -31.835594 -181.16338 -32.416397 -179.39425 -31.73761 -177.89527 L -30.719994 -175.64803 C -30.598415 -175.37954 -30.471687 -175.11342 -30.33988 -174.8498 L -28.53761 -171.24526 L -26.050623 -166.2713 C -25.708826 -165.5877 -25.333168 -164.92157 -24.925048 -164.27537 L -22.598656 -160.59192 C -22.15828 -159.89465 -21.68072 -159.22158 -21.168047 -158.57561 L -17.757362 -154.27815 C -17.211308 -153.59013 -16.626288 -152.93394 -16.005178 -152.31283 L -11.339135 -147.64679 C -10.938255 -147.24591 -10.522689 -146.85999 -10.09329 -146.48982 L -5.5297655 -142.55574 C -5.135108 -142.21552 -4.7290034 -141.88881 -4.312154 -141.57617 L -.33721373 -138.59497 C .32869875 -138.09553 1.0212327 -137.63262 1.7373313 -137.20826 L 5.8703945 -134.75904 C 5.9983895 -134.68319 6.1271175 -134.60859 6.25656 -134.53523 L 10.954107 -131.87329 C 11.692398 -131.45493 12.453276 -131.07774 13.233252 -130.74347 L 16.783068 -129.22212 C 17.36903 -128.97099 17.96518 -128.74433 18.569974 -128.54274 L 23.58808 -126.87003 C 24.835325 -126.45429 26.11592 -126.14624 27.415795 -125.9493 L 31.514642 -125.32826 C 31.879756 -125.27294 32.24615 -125.22642 32.613502 -125.18874 L 39.494605 -124.48299 C 39.73978 -124.45784 39.985344 -124.43664 40.2312 -124.41938 L 44.758346 -124.10169 C 45.29421 -124.06409 45.831224 -124.04527 46.368405 -124.04527 L 49.63046 -124.04526 C 50.58416 -124.04526 51.536933 -124.10458 52.48327 -124.22287 L 56.47198 -124.72146 C 57.131945 -124.80396 57.78802 -124.91504 58.43835 -125.0544 L 64.52039 -126.35769 C 65.41426 -126.54924 66.29592 -126.7939 67.16068 -127.09039 L 71.669525 -128.63628 C 72.46417 -128.90873 73.2433 -129.22451 74.0034 -129.5822 L 78.83677 -131.85674 C 79.38697 -132.11565 79.92668 -132.39629 80.45464 -132.69798 L 84.2225 -134.85104 C 84.91529 -135.24692 85.58701 -135.67858 86.23494 -136.14428 L 90.91106 -139.50525 C 91.41175 -139.86511 91.89776 -140.24497 92.36792 -140.64389 L 97.68877 -145.15856 C 98.07108 -145.48294 98.44269 -145.81974 98.80298 -146.16842 L 103.5022 -150.71604 C 104.14179 -151.335 104.74491 -151.99056 105.30852 -152.67942 L 109.10181 -157.31566 C 109.60852 -157.93497 110.08257 -158.58031 110.52201 -159.24904 L 114.13919 -164.75344 C 114.35462 -165.08127 114.56163 -165.41456 114.76002 -165.75298 L 117.28311 -170.05708 C 117.66906 -170.71546 118.022 -171.39265 118.34062 -172.08612 L 120.45932 -176.6974 C 120.99218 -177.85715 121.36334 -179.08456 121.5624 -180.34526 L 121.5624 -180.34526 C 121.7407 -181.47453 121.1614 -182.58797 120.13432 -183.0901 L 114.84088 -185.678 C 113.52642 -186.32063 112.29183 -187.11514 111.16239 -188.04526 L 110.75638 -188.37963 C 109.91205 -189.07496 109.28864 -190.00126 108.96239 -191.04526 L 108.96239 -191.04526 C 108.91573 -191.19458 108.75686 -191.2778 108.60754 -191.23114 C 108.49247 -191.19518 108.41277 -191.09031 108.40892 -190.96981 L 108.29968 -187.5469 C 108.20894 -184.70381 107.5916 -181.90224 106.47899 -179.28433 L 105.60206 -177.22096 C 105.04349 -175.90669 104.36374 -174.6473 103.5716 -173.45909 L 99.88582 -167.93042 C 99.13831 -166.80915 98.29371 -165.75575 97.36175 -164.78238 L 91.06668 -158.20753 C 90.19861 -157.30087 89.25777 -156.4668 88.2536 -155.71367 L 79.87869 -149.4325 C 79.00228 -148.77518 78.08002 -148.18133 77.11896 -147.65546 L 69.93376 -143.72394 C 68.62263 -143.00653 67.244704 -142.41863 65.819515 -141.96857 L 59.146606 -139.86133 C 57.42973 -139.31916 55.655136 -138.98046 53.859267 -138.85219 L 46.972815 -138.3603 C 45.900517 -138.2837 44.82417 -138.28238 43.751685 -138.35635 L 35.315427 -138.93816 C 34.28125 -139.00948 33.25308 -139.15064 32.237946 -139.36067 L 25.10274 -140.83692 C 23.150787 -141.24077 21.259614 -141.89665 19.476757 -142.78808 L 14.817348 -145.11779 C 13.583212 -145.73485 12.407106 -146.46173 11.303261 -147.28961 L 5.621303 -151.55108 C 5.182167 -151.88043 4.754962 -152.2254 4.3405096 -152.58532 L -1.4146714 -157.58324 C -2.228957 -158.29038 -2.9924972 -159.05392 -3.69964 -159.8682 L -8.104865 -164.94089 C -8.858968 -165.80925 -9.546876 -166.73295 -10.162801 -167.70422 L -13.896503 -173.59198 C -14.257069 -174.16056 -14.592495 -174.7447 -14.901812 -175.34272 L -16.522185 -178.47544 C -17.13133 -179.65312 -17.637498 -180.88126 -18.035035 -182.14615 L -19.315274 -186.21964 C -19.53005 -186.90302 -19.712782 -187.59605 -19.862874 -188.29649 L -20.08829 -189.34843 C -20.173365 -189.74544 -19.947007 -190.1431 -19.562203 -190.27263 L -19.562203 -190.27263 C -19.489708 -190.29704 -19.411156 -190.25805 -19.386751 -190.18556 C -19.368737 -190.13205 -19.38501 -190.07296 -19.42788 -190.03621 Z" stroke="#7f8080" stroke-linecap="round" stroke-linejoin="round" stroke-width="1"/>
      <path d="M 261.4053 -40.553854 L 255.2053 -36.153854 L 247.0053 -32.153854 L 238.4053 -28.553854 L 229.4053 -24.753854 L 218.4053 -20.753854 L 209.0053 -17.953854 L 200.0053 -15.353854 L 191.00529 -12.753854 L 185.60529 -11.353854 L 180.00529 -10.353854 L 177.60529 -16.153854 L 175.00529 -21.553854 L 172.80529 -25.553854 L 170.20529 -28.953854 L 170.00529 -37.953854 L 170.60529 -48.953855 L 172.40529 -59.753855 L 174.00529 -70.153855 L 176.60529 -81.153855 L 179.00529 -90.75386 L 181.80529 -98.75386 L 185.00529 -108.15386 L 187.80529 -115.55386 L 191.40529 -123.15386 L 195.4053 -130.75386 L 199.4053 -138.15386 L 202.0053 -141.75386 L 205.6053 -147.55386 L 211.0053 -143.15386 L 215.8053 -138.35386 L 220.4053 -132.15386 L 224.8053 -125.95386 L 229.6053 -117.35386 L 234.4053 -107.95386 L 239.2053 -98.75386 L 242.8053 -90.15386 L 246.8053 -81.153855 L 250.0053 -72.953855 L 253.8053 -63.553855 L 256.6053 -55.553855 L 259.6053 -47.153855 Z" fill="#0000a6"/>
      <path d="M 261.4053 -40.553854 L 255.2053 -36.153854 L 247.0053 -32.153854 L 238.4053 -28.553854 L 229.4053 -24.753854 L 218.4053 -20.753854 L 209.0053 -17.953854 L 200.0053 -15.353854 L 191.00529 -12.753854 L 185.60529 -11.353854 L 180.00529 -10.353854 L 177.60529 -16.153854 L 175.00529 -21.553854 L 172.80529 -25.553854 L 170.20529 -28.953854 L 170.00529 -37.953854 L 170.60529 -48.953855 L 172.40529 -59.753855 L 174.00529 -70.153855 L 176.60529 -81.153855 L 179.00529 -90.75386 L 181.80529 -98.75386 L 185.00529 -108.15386 L 187.80529 -115.55386 L 191.40529 -123.15386 L 195.4053 -130.75386 L 199.4053 -138.15386 L 202.0053 -141.75386 L 205.6053 -147.55386 L 211.0053 -143.15386 L 215.8053 -138.35386 L 220.4053 -132.15386 L 224.8053 -125.95386 L 229.6053 -117.35386 L 234.4053 -107.95386 L 239.2053 -98.75386 L 242.8053 -90.15386 L 246.8053 -81.153855 L 250.0053 -72.953855 L 253.8053 -63.553855 L 256.6053 -55.553855 L 259.6053 -47.153855 Z" stroke="#7f8080" stroke-linecap="round" stroke-linejoin="round" stroke-width="1"/>
      <path d="M 261.4053 -41.49725 L 255.2053 -37.09725 L 247.0053 -33.09725 L 238.4053 -29.49725 L 229.4053 -25.69725 L 218.4053 -21.69725 L 209.0053 -18.89725 L 200.0053 -16.29725 L 191.00529 -13.69725 L 185.60529 -12.29725 L 180.00529 -11.29725 L 177.00529 -17.69725 L 180.80529 -18.49725 L 185.60529 -19.69725 L 191.20529 -20.89725 L 197.2053 -22.69725 L 201.8053 -24.09725 L 206.0053 -25.29725 L 210.6053 -27.29725 L 215.2053 -28.89725 L 220.0053 -30.89725 L 224.0053 -32.29725 L 229.2053 -34.49725 L 233.8053 -36.09725 L 238.6053 -38.29725 L 243.4053 -40.09725 L 247.4053 -42.09725 L 251.8053 -44.29725 L 256.2053 -46.49725 L 259.6053 -48.09725 Z" fill="white"/>
      <path d="M 261.4053 -41.49725 L 255.2053 -37.09725 L 247.0053 -33.09725 L 238.4053 -29.49725 L 229.4053 -25.69725 L 218.4053 -21.69725 L 209.0053 -18.89725 L 200.0053 -16.29725 L 191.00529 -13.69725 L 185.60529 -12.29725 L 180.00529 -11.29725 L 177.00529 -17.69725 L 180.80529 -18.49725 L 185.60529 -19.69725 L 191.20529 -20.89725 L 197.2053 -22.69725 L 201.8053 -24.09725 L 206.0053 -25.29725 L 210.6053 -27.29725 L 215.2053 -28.89725 L 220.0053 -30.89725 L 224.0053 -32.29725 L 229.2053 -34.49725 L 233.8053 -36.09725 L 238.6053 -38.29725 L 243.4053 -40.09725 L 247.4053 -42.09725 L 251.8053 -44.29725 L 256.2053 -46.49725 L 259.6053 -48.09725 Z" stroke="#7f8080" stroke-linecap="round" stroke-linejoin="round" stroke-width="1"/>
      <path d="M 45.45855 -98.29371 L 52.91699 -77.23436 L 77.053 -77.23436 L 57.526556 -64.21897 L 64.984996 -43.15963 L 45.45855 -56.17502 L 25.932103 -43.15963 L 33.390542 -64.21897 L 13.864095 -77.23436 L 38.00011 -77.23436 Z" fill="white"/>
      <path d="M 45.45855 -98.29371 L 52.91699 -77.23436 L 77.053 -77.23436 L 57.526556 -64.21897 L 64.984996 -43.15963 L 45.45855 -56.17502 L 25.932103 -43.15963 L 33.390542 -64.21897 L 13.864095 -77.23436 L 38.00011 -77.23436 Z" stroke="#a5a5a5" stroke-linecap="round" stroke-linejoin="round" stroke-width="1"/>
    </g>
  </g>
</svg>
