<?xml version="1.0" encoding="UTF-8" standalone="no"?>
<!DOCTYPE svg PUBLIC "-//W3C//DTD SVG 1.1//EN" "http://www.w3.org/Graphics/SVG/1.1/DTD/svg11.dtd">
<svg xmlns="http://www.w3.org/2000/svg" xmlns:xl="http://www.w3.org/1999/xlink" version="1.1" viewBox="-1174.5 -404.5 432.4053 448.4" width="432.4053pt" height="448.4pt" xmlns:dc="http://purl.org/dc/elements/1.1/">
  <metadata> Produced by OmniGraffle 7.4.2 
    <dc:date>2018-03-15 05:39:37 +0000</dc:date>
  </metadata>
  <defs>
    <radialGradient cx="0" cy="0" r="1" id="Gradient" gradientUnits="userSpaceOnUse">
      <stop offset="0" stop-color="#cbcbcb"/>
      <stop offset="1" stop-color="#843918"/>
    </radialGradient>
    <radialGradient id="Obj_Gradient" xl:href="#Gradient" gradientTransform="translate(-959.2408 -376.6) scale(70.26272)"/>
    <radialGradient cx="0" cy="0" r="1" id="Gradient_2" gradientUnits="userSpaceOnUse">
      <stop offset="0" stop-color="#333"/>
      <stop offset="1" stop-color="#6d1b1b"/>
    </radialGradient>
    <radialGradient id="Obj_Gradient_2" xl:href="#Gradient_2" gradientTransform="translate(-1131.8 -240.75385) scale(46.03694)"/>
    <radialGradient cx="0" cy="0" r="1" id="Gradient_3" gradientUnits="userSpaceOnUse">
      <stop offset="0" stop-color="#333"/>
      <stop offset="1" stop-color="#9b2626"/>
    </radialGradient>
    <radialGradient id="Obj_Gradient_3" xl:href="#Gradient_3" gradientTransform="translate(-784.7947 -241.69725) scale(46.03694)"/>
    <linearGradient x1="0" x2="1" id="Gradient_4" gradientUnits="userSpaceOnUse">
      <stop offset="0" stop-color="#9a2626"/>
      <stop offset="1" stop-color="#333"/>
    </linearGradient>
    <linearGradient id="Obj_Gradient_4" xl:href="#Gradient_4" gradientTransform="translate(-959.9408 -403.2441) rotate(90) scale(25)"/>
    <radialGradient cx="0" cy="0" r="1" id="Gradient_5" gradientUnits="userSpaceOnUse">
      <stop offset="0" stop-color="#8f2323"/>
      <stop offset="1" stop-color="#333"/>
    </radialGradient>
    <radialGradient id="Obj_Gradient_5" xl:href="#Gradient_5" gradientTransform="translate(-959.213 -369.6447) scale(83.83496)"/>
    <radialGradient cx="0" cy="0" r="1" id="Gradient_6" gradientUnits="userSpaceOnUse">
      <stop offset="0" stop-color="#581712"/>
      <stop offset="1" stop-color="#241209"/>
    </radialGradient>
    <radialGradient id="Obj_Gradient_6" xl:href="#Gradient_6" gradientTransform="translate(-958.6703 32.983386) scale(135.94141)"/>
  </defs>
  <g stroke="none" stroke-opacity="1" stroke-dasharray="none" fill="none" fill-opacity="1">
    <title>dinamarca</title>
    <rect fill="white" width="432.4053" height="448.4"/>
    <g>
      <title>Capa 1</title>
      <path d="M -1020.9943 -403.40955 L -1012.8289 -400.29184 C -1011.9709 -399.96424 -1011.0941 -399.68833 -1010.2031 -399.4656 L -996.4859 -396.0363 C -995.3242 -395.74587 -994.1417 -395.5466 -992.949 -395.44034 L -975.4228 -393.8786 C -974.835 -393.8262 -974.2454 -393.7965 -973.6552 -393.78946 L -958.1763 -393.6052 C -957.886 -393.60173 -957.5956 -393.60377 -957.3053 -393.6113 L -942.882 -393.98594 C -942.5212 -393.9953 -942.1607 -394.01317 -941.8008 -394.0395 L -927.4295 -395.09107 C -926.438 -395.1636 -925.4523 -395.30036 -924.4786 -395.50044 L -912.9056 -397.87845 C -911.8636 -398.09256 -910.8377 -398.3787 -909.8353 -398.7348 L -898.0834 -402.90986 C -896.993 -403.29723 -895.7898 -402.76646 -895.3408 -401.7 L -895.3408 -401.7 C -894.8186 -400.4599 -894.6666 -399.09515 -894.9032 -397.77055 L -895.0836 -396.75986 C -895.3874 -395.0587 -895.8819 -393.3972 -896.5579 -391.8068 L -898.1011 -388.1757 C -898.6596 -386.8614 -899.3394 -385.60202 -900.1315 -384.4138 L -903.8173 -378.88515 C -904.5648 -377.7639 -905.4094 -376.7105 -906.3414 -375.7371 L -912.6365 -369.16226 C -913.5045 -368.2556 -914.4454 -367.42154 -915.4495 -366.6684 L -923.8244 -360.38723 C -924.7009 -359.7299 -925.6231 -359.13606 -926.5842 -358.6102 L -933.7694 -354.67867 C -935.0805 -353.96126 -936.4584 -353.37336 -937.8836 -352.9233 L -944.5565 -350.81607 C -946.2734 -350.2739 -948.048 -349.9352 -949.8439 -349.8069 L -956.7303 -349.31503 C -957.8026 -349.23844 -958.879 -349.2371 -959.9515 -349.3111 L -968.3877 -349.8929 C -969.4219 -349.9642 -970.4501 -350.10537 -971.4652 -350.3154 L -978.6004 -351.79165 C -980.5524 -352.1955 -982.4435 -352.8514 -984.2264 -353.7428 L -988.8858 -356.0725 C -990.1199 -356.6896 -991.296 -357.41646 -992.3999 -358.24434 L -998.0818 -362.5058 C -998.521 -362.83517 -998.9482 -363.18013 -999.3626 -363.54005 L -1005.1178 -368.53797 C -1005.9321 -369.2451 -1006.6956 -370.00865 -1007.4028 -370.82294 L -1011.808 -375.89562 C -1012.5621 -376.764 -1013.25 -377.6877 -1013.866 -378.65895 L -1017.5996 -384.5467 C -1017.9602 -385.1153 -1018.2956 -385.69944 -1018.605 -386.29745 L -1020.2253 -389.43017 C -1020.8345 -390.60785 -1021.3406 -391.836 -1021.7382 -393.1009 L -1023.0184 -397.1744 C -1023.2332 -397.85775 -1023.4159 -398.5508 -1023.566 -399.2512 L -1023.6408 -399.6 C -1023.8354 -400.50843 -1023.7282 -401.45557 -1023.3353 -402.29746 L -1023.2408 -402.5 C -1022.8463 -403.3453 -1021.8658 -403.7423 -1020.9943 -403.40955 Z" fill="url(#Obj_Gradient)"/>
      <path d="M -1020.9943 -403.40955 L -1012.8289 -400.29184 C -1011.9709 -399.96424 -1011.0941 -399.68833 -1010.2031 -399.4656 L -996.4859 -396.0363 C -995.3242 -395.74587 -994.1417 -395.5466 -992.949 -395.44034 L -975.4228 -393.8786 C -974.835 -393.8262 -974.2454 -393.7965 -973.6552 -393.78946 L -958.1763 -393.6052 C -957.886 -393.60173 -957.5956 -393.60377 -957.3053 -393.6113 L -942.882 -393.98594 C -942.5212 -393.9953 -942.1607 -394.01317 -941.8008 -394.0395 L -927.4295 -395.09107 C -926.438 -395.1636 -925.4523 -395.30036 -924.4786 -395.50044 L -912.9056 -397.87845 C -911.8636 -398.09256 -910.8377 -398.3787 -909.8353 -398.7348 L -898.0834 -402.90986 C -896.993 -403.29723 -895.7898 -402.76646 -895.3408 -401.7 L -895.3408 -401.7 C -894.8186 -400.4599 -894.6666 -399.09515 -894.9032 -397.77055 L -895.0836 -396.75986 C -895.3874 -395.0587 -895.8819 -393.3972 -896.5579 -391.8068 L -898.1011 -388.1757 C -898.6596 -386.8614 -899.3394 -385.60202 -900.1315 -384.4138 L -903.8173 -378.88515 C -904.5648 -377.7639 -905.4094 -376.7105 -906.3414 -375.7371 L -912.6365 -369.16226 C -913.5045 -368.2556 -914.4454 -367.42154 -915.4495 -366.6684 L -923.8244 -360.38723 C -924.7009 -359.7299 -925.6231 -359.13606 -926.5842 -358.6102 L -933.7694 -354.67867 C -935.0805 -353.96126 -936.4584 -353.37336 -937.8836 -352.9233 L -944.5565 -350.81607 C -946.2734 -350.2739 -948.048 -349.9352 -949.8439 -349.8069 L -956.7303 -349.31503 C -957.8026 -349.23844 -958.879 -349.2371 -959.9515 -349.3111 L -968.3877 -349.8929 C -969.4219 -349.9642 -970.4501 -350.10537 -971.4652 -350.3154 L -978.6004 -351.79165 C -980.5524 -352.1955 -982.4435 -352.8514 -984.2264 -353.7428 L -988.8858 -356.0725 C -990.1199 -356.6896 -991.296 -357.41646 -992.3999 -358.24434 L -998.0818 -362.5058 C -998.521 -362.83517 -998.9482 -363.18013 -999.3626 -363.54005 L -1005.1178 -368.53797 C -1005.9321 -369.2451 -1006.6956 -370.00865 -1007.4028 -370.82294 L -1011.808 -375.89562 C -1012.5621 -376.764 -1013.25 -377.6877 -1013.866 -378.65895 L -1017.5996 -384.5467 C -1017.9602 -385.1153 -1018.2956 -385.69944 -1018.605 -386.29745 L -1020.2253 -389.43017 C -1020.8345 -390.60785 -1021.3406 -391.836 -1021.7382 -393.1009 L -1023.0184 -397.1744 C -1023.2332 -397.85775 -1023.4159 -398.5508 -1023.566 -399.2512 L -1023.6408 -399.6 C -1023.8354 -400.50843 -1023.7282 -401.45557 -1023.3353 -402.29746 L -1023.2408 -402.5 C -1022.8463 -403.3453 -1021.8658 -403.7423 -1020.9943 -403.40955 Z" stroke="#7f8080" stroke-linecap="round" stroke-linejoin="round" stroke-width="1"/>
      <path d="M -1085.0265 33.263786 L -1071.2843 35.55416 C -1071.1009 35.58472 -1070.917 35.612086 -1070.7327 35.63624 L -1042.379 39.351545 C -1042.1325 39.38385 -1041.8853 39.4104 -1041.6375 39.43118 L -1011.3946 41.96768 C -1011.1377 41.98923 -1010.8803 42.004563 -1010.6227 42.01367 L -971.6918 43.390017 C -971.5034 43.396676 -971.315 43.400007 -971.1265 43.400007 L -939.6592 43.400007 C -939.4925 43.400007 -939.3259 43.397404 -939.1594 43.3922 L -914.1246 42.609863 C -913.9144 42.603293 -913.7043 42.592577 -913.4945 42.577723 L -891.4467 41.01682 C -891.2884 41.00561 -891.1302 40.99205 -890.9723 40.976135 L -865.7119 38.430505 C -865.5101 38.410175 -865.3088 38.38601 -865.108 38.35803 L -841.3153 35.042652 C -841.1112 35.014224 -840.9078 34.98186 -840.705 34.945576 L -831.5092 33.300007 C -826.1821 32.346735 -822.5312 27.39309 -823.1977 22.022553 L -825.4052 4.2319817 C -825.4079 4.2106646 -825.4105 4.1893423 -825.4131 4.168015 L -828.9769 -25.530513 C -828.9984 -25.710154 -829.0169 -25.89015 -829.0324 -26.070418 L -831.3946 -53.62963 C -831.4043 -53.7432 -831.4129 -53.85688 -831.4202 -53.970635 L -832.8068 -75.56228 C -832.8084 -75.58742 -832.8101 -75.61256 -832.8118 -75.6377 L -834.404 -98.72401 C -834.4075 -98.77467 -834.4107 -98.82534 -834.4137 -98.87602 L -835.5901 -118.67819 C -835.6028 -118.8927 -835.6113 -119.10745 -835.6154 -119.32231 L -836.0076 -139.91715 C -836.0087 -139.97238 -836.01 -140.0276 -836.0117 -140.08282 L -836.6068 -160.31717 C -836.6084 -160.37239 -836.6097 -160.42761 -836.6108 -160.48285 L -837.0015 -180.99239 C -837.0066 -181.26408 -837.0049 -181.53587 -836.9962 -181.80747 L -836.4103 -200.16708 C -836.4096 -200.18903 -836.4088 -200.21097 -836.408 -200.2329 L -835.6199 -222.10221 C -835.6128 -222.30072 -835.6019 -222.49907 -835.5874 -222.69717 L -834.0299 -243.9178 C -834.0161 -244.1059 -834.0056 -244.29427 -833.9985 -244.48276 L -833.244 -264.38163 C -833.2208 -264.99337 -833.1626 -265.60328 -833.0695 -266.20835 L -830.3305 -284.01187 C -830.2497 -284.53696 -830.1428 -285.0577 -830.0102 -285.57217 L -825.3819 -303.52983 C -825.2668 -303.9764 -825.1325 -304.4178 -824.9793 -304.85275 L -819.2585 -321.0924 C -819.0924 -321.56387 -818.9043 -322.0273 -818.6948 -322.48117 L -813.1633 -334.4662 C -813.0606 -334.6887 -812.9528 -334.9088 -812.84 -335.12636 L -807.4778 -345.4678 C -807.4321 -345.55593 -807.3855 -345.64364 -807.3382 -345.7309 L -802.1222 -355.34788 C -801.38495 -356.70724 -800.4353 -357.94013 -799.3092 -359 L -799.3092 -359 C -798.634 -359.63547 -798.6018 -360.69797 -799.2373 -361.37316 C -799.3618 -361.50544 -799.5069 -361.61663 -799.66705 -361.7024 L -802.8812 -363.42427 C -803.0998 -363.5414 -803.3212 -363.65344 -803.5451 -363.7603 L -811.399 -367.50878 C -811.8056 -367.70284 -812.2203 -367.87964 -812.6418 -368.0387 L -822.3166 -371.6896 C -822.5117 -371.7632 -822.7081 -371.83297 -822.9059 -371.8989 L -835.6004 -376.1304 C -835.7396 -376.1768 -835.8794 -376.2213 -836.0199 -376.26384 L -848.9034 -380.16794 C -848.9739 -380.1893 -849.0443 -380.21117 -849.1146 -380.2335 L -861.6186 -384.21206 C -862.0122 -384.3373 -862.4008 -384.47775 -862.7836 -384.63307 L -874.7595 -389.49287 C -875.5912 -389.83036 -876.393 -390.23723 -877.1564 -390.70917 L -886.7756 -396.6556 C -886.9313 -396.75186 -887.0854 -396.8508 -887.2377 -396.9523 L -892.1278 -400.2124 C -893.1092 -400.86665 -893.9805 -401.67255 -894.7092 -402.6 L -894.7092 -402.6 C -894.8148 -402.7344 -895.0094 -402.75775 -895.1438 -402.65215 C -895.2465 -402.5714 -895.2875 -402.43487 -895.2462 -402.3109 L -895.1092 -401.9 C -894.65 -400.52225 -894.5454 -399.05096 -894.8052 -397.6221 L -895.2003 -395.44885 C -895.4715 -393.9572 -895.9534 -392.51165 -896.6314 -391.1556 L -898.1637 -388.09096 C -898.4604 -387.49756 -898.7938 -386.9232 -899.1618 -386.37117 L -902.3655 -381.5656 C -902.7941 -380.9227 -903.2687 -380.3117 -903.7856 -379.7374 L -908.3476 -374.66844 C -908.3887 -374.6228 -908.43 -374.5774 -908.4716 -374.53227 L -914.4658 -368.02424 C -915.0936 -367.3427 -915.7793 -366.717 -916.5154 -366.15413 L -921.5395 -362.3121 C -921.9857 -361.97094 -922.4495 -361.6535 -922.929 -361.3611 L -929.4154 -357.40597 C -930.0771 -357.00252 -930.7672 -356.64768 -931.4803 -356.34424 L -938.5957 -353.3164 C -939.4033 -352.9727 -940.2379 -352.69607 -941.091 -352.48928 L -945.17 -351.5004 C -945.9948 -351.30045 -946.8343 -351.16644 -947.6804 -351.09965 L -953.3806 -350.64963 C -953.7995 -350.61656 -954.2196 -350.6 -954.6398 -350.6 L -961.6721 -350.6 C -962.4292 -350.6 -963.1854 -350.65374 -963.9349 -350.7608 L -971.8813 -351.896 C -972.3663 -351.9653 -972.8479 -352.05683 -973.3245 -352.1703 L -979.2857 -353.58965 C -980.4312 -353.8624 -981.5431 -354.26073 -982.6012 -354.77747 L -988.8812 -357.84444 C -989.3662 -358.08133 -989.839 -358.3426 -990.2976 -358.6273 L -994.5095 -361.24154 C -995.1086 -361.61344 -995.6826 -362.02454 -996.2275 -362.47216 L -1000.6736 -366.12432 C -1000.8973 -366.30807 -1001.116 -366.49786 -1001.3294 -366.69348 L -1005.1317 -370.17896 C -1005.583 -370.59264 -1006.0102 -371.0319 -1006.4111 -371.49454 L -1010.5299 -376.24693 C -1010.8493 -376.61545 -1011.1516 -376.9984 -1011.436 -377.3945 L -1015.8657 -383.5644 C -1016.3606 -384.2537 -1016.7999 -384.9813 -1017.1794 -385.7403 L -1019.7558 -390.8932 C -1019.7914 -390.9644 -1019.8265 -391.03586 -1019.861 -391.10758 L -1021.1092 -393.7 C -1021.9599 -395.46687 -1022.3155 -397.4314 -1022.1379 -399.38436 L -1021.9577 -401.3666 C -1021.9339 -401.62848 -1022.1269 -401.86006 -1022.3887 -401.88386 C -1022.5511 -401.89862 -1022.7098 -401.82925 -1022.8092 -401.7 L -1022.8092 -401.7 C -1023.4727 -400.8375 -1024.2528 -400.07144 -1025.1271 -399.42375 L -1029.0237 -396.53743 C -1029.1474 -396.4458 -1029.2724 -396.356 -1029.3986 -396.268 L -1034.0209 -393.0464 C -1035.2076 -392.2193 -1036.501 -391.55692 -1037.8658 -391.0774 L -1042.4729 -389.4587 C -1042.9635 -389.28633 -1043.4454 -389.09016 -1043.9168 -388.87087 L -1050.7636 -385.68632 C -1051.4598 -385.36253 -1052.1783 -385.08926 -1052.9137 -384.86864 L -1063.7841 -381.60752 C -1063.8009 -381.6025 -1063.8176 -381.59746 -1063.8343 -381.5924 L -1074.8024 -378.2628 C -1074.9403 -378.22093 -1075.0776 -378.1772 -1075.2143 -378.13164 L -1088.1355 -373.82456 C -1088.1847 -373.8082 -1088.2339 -373.79205 -1088.2831 -373.77616 L -1099.6505 -370.10925 C -1100.289 -369.9033 -1100.9139 -369.65737 -1101.5215 -369.37296 L -1109.4535 -365.6601 C -1109.8238 -365.48677 -1110.1874 -365.2993 -1110.5434 -365.0981 L -1116.4895 -361.73724 C -1117.7425 -361.029 -1118.1842 -359.43907 -1117.476 -358.18604 C -1117.3988 -358.0496 -1117.3096 -357.9204 -1117.2092 -357.8 L -1116.3451 -356.76307 C -1115.5902 -355.85713 -1114.9377 -354.8705 -1114.3996 -353.8212 L -1111.3224 -347.82076 C -1111.247 -347.6736 -1111.1692 -347.5276 -1111.0892 -347.38285 L -1107.1345 -340.22663 C -1107.051 -340.07555 -1106.9699 -339.92313 -1106.8914 -339.76943 L -1102.7831 -331.73144 C -1102.534 -331.24413 -1102.3101 -330.74437 -1102.1122 -330.2341 L -1098.6295 -321.25224 C -1098.616 -321.2174 -1098.6023 -321.18263 -1098.5886 -321.1479 L -1094.9923 -312.06246 C -1094.8703 -311.75423 -1094.7579 -311.44228 -1094.6552 -311.12706 L -1092.0334 -303.0743 C -1092.0173 -303.02476 -1092.0014 -302.97516 -1091.9858 -302.92548 L -1088.9137 -293.1672 C -1088.7109 -292.52305 -1088.5491 -291.8667 -1088.4293 -291.2021 L -1086.444 -280.19263 C -1086.4208 -280.0642 -1086.3992 -279.93552 -1086.3792 -279.80658 L -1084.6733 -268.8132 C -1084.6306 -268.53778 -1084.595 -268.2613 -1084.5668 -267.98402 L -1083.6794 -259.2873 C -1083.6326 -258.8293 -1083.6057 -258.36952 -1083.5986 -257.9092 L -1083.4144 -245.9336 C -1083.4109 -245.71122 -1083.4029 -245.48895 -1083.3902 -245.2669 L -1082.6198 -231.78535 C -1082.6127 -231.6618 -1082.6043 -231.5383 -1082.5943 -231.41494 L -1081.2608 -214.84057 C -1081.2264 -214.4137 -1081.2092 -213.9856 -1081.2092 -213.55736 L -1081.2092 -201.10758 C -1081.2092 -200.90254 -1081.2053 -200.69753 -1081.1974 -200.49265 L -1080.617 -185.4035 C -1080.6118 -185.26784 -1080.6083 -185.1321 -1080.6066 -184.99635 L -1080.4144 -170.2001 C -1080.411 -169.9334 -1080.4142 -169.66667 -1080.424 -169.40014 L -1080.9983 -153.89599 C -1081.0056 -153.69868 -1081.0092 -153.50125 -1081.0092 -153.3038 L -1081.0092 -139.70757 C -1081.0092 -139.50254 -1081.0132 -139.29753 -1081.021 -139.09264 L -1081.6062 -123.87764 C -1081.6082 -123.82588 -1081.6105 -123.77412 -1081.613 -123.72238 L -1082.4083 -107.21945 C -1082.4089 -107.20648 -1082.4095 -107.19351 -1082.4102 -107.18055 L -1083.2047 -91.48938 C -1083.2077 -91.42979 -1083.211 -91.37022 -1083.2147 -91.31067 L -1084.4037 -72.08993 C -1084.4074 -72.029975 -1084.4114 -71.97004 -1084.4158 -71.910126 L -1086.1989 -47.540577 C -1086.2058 -47.44686 -1086.2135 -47.3532 -1086.222 -47.259615 L -1088.0079 -27.614803 C -1088.0088 -27.60493 -1088.0097 -27.59506 -1088.0106 -27.585188 L -1089.7814 -8.500283 C -1089.7999 -8.300108 -1089.8223 -8.100301 -1089.8484 -7.900969 L -1091.8091 7.0717495 C -1091.9419 8.0859435 -1092.211 9.077562 -1092.6092 10.019731 L -1092.6092 10.019731 C -1093.0068 10.960477 -1093.2555 11.957393 -1093.3463 12.974655 L -1094.1092 21.519732 C -1094.617 27.20676 -1090.6585 32.325125 -1085.0265 33.263786 Z" fill="#650c00"/>
      <path d="M -1085.0265 33.263786 L -1071.2843 35.55416 C -1071.1009 35.58472 -1070.917 35.612086 -1070.7327 35.63624 L -1042.379 39.351545 C -1042.1325 39.38385 -1041.8853 39.4104 -1041.6375 39.43118 L -1011.3946 41.96768 C -1011.1377 41.98923 -1010.8803 42.004563 -1010.6227 42.01367 L -971.6918 43.390017 C -971.5034 43.396676 -971.315 43.400007 -971.1265 43.400007 L -939.6592 43.400007 C -939.4925 43.400007 -939.3259 43.397404 -939.1594 43.3922 L -914.1246 42.609863 C -913.9144 42.603293 -913.7043 42.592577 -913.4945 42.577723 L -891.4467 41.01682 C -891.2884 41.00561 -891.1302 40.99205 -890.9723 40.976135 L -865.7119 38.430505 C -865.5101 38.410175 -865.3088 38.38601 -865.108 38.35803 L -841.3153 35.042652 C -841.1112 35.014224 -840.9078 34.98186 -840.705 34.945576 L -831.5092 33.300007 C -826.1821 32.346735 -822.5312 27.39309 -823.1977 22.022553 L -825.4052 4.2319817 C -825.4079 4.2106646 -825.4105 4.1893423 -825.4131 4.168015 L -828.9769 -25.530513 C -828.9984 -25.710154 -829.0169 -25.89015 -829.0324 -26.070418 L -831.3946 -53.62963 C -831.4043 -53.7432 -831.4129 -53.85688 -831.4202 -53.970635 L -832.8068 -75.56228 C -832.8084 -75.58742 -832.8101 -75.61256 -832.8118 -75.6377 L -834.404 -98.72401 C -834.4075 -98.77467 -834.4107 -98.82534 -834.4137 -98.87602 L -835.5901 -118.67819 C -835.6028 -118.8927 -835.6113 -119.10745 -835.6154 -119.32231 L -836.0076 -139.91715 C -836.0087 -139.97238 -836.01 -140.0276 -836.0117 -140.08282 L -836.6068 -160.31717 C -836.6084 -160.37239 -836.6097 -160.42761 -836.6108 -160.48285 L -837.0015 -180.99239 C -837.0066 -181.26408 -837.0049 -181.53587 -836.9962 -181.80747 L -836.4103 -200.16708 C -836.4096 -200.18903 -836.4088 -200.21097 -836.408 -200.2329 L -835.6199 -222.10221 C -835.6128 -222.30072 -835.6019 -222.49907 -835.5874 -222.69717 L -834.0299 -243.9178 C -834.0161 -244.1059 -834.0056 -244.29427 -833.9985 -244.48276 L -833.244 -264.38163 C -833.2208 -264.99337 -833.1626 -265.60328 -833.0695 -266.20835 L -830.3305 -284.01187 C -830.2497 -284.53696 -830.1428 -285.0577 -830.0102 -285.57217 L -825.3819 -303.52983 C -825.2668 -303.9764 -825.1325 -304.4178 -824.9793 -304.85275 L -819.2585 -321.0924 C -819.0924 -321.56387 -818.9043 -322.0273 -818.6948 -322.48117 L -813.1633 -334.4662 C -813.0606 -334.6887 -812.9528 -334.9088 -812.84 -335.12636 L -807.4778 -345.4678 C -807.4321 -345.55593 -807.3855 -345.64364 -807.3382 -345.7309 L -802.1222 -355.34788 C -801.38495 -356.70724 -800.4353 -357.94013 -799.3092 -359 L -799.3092 -359 C -798.634 -359.63547 -798.6018 -360.69797 -799.2373 -361.37316 C -799.3618 -361.50544 -799.5069 -361.61663 -799.66705 -361.7024 L -802.8812 -363.42427 C -803.0998 -363.5414 -803.3212 -363.65344 -803.5451 -363.7603 L -811.399 -367.50878 C -811.8056 -367.70284 -812.2203 -367.87964 -812.6418 -368.0387 L -822.3166 -371.6896 C -822.5117 -371.7632 -822.7081 -371.83297 -822.9059 -371.8989 L -835.6004 -376.1304 C -835.7396 -376.1768 -835.8794 -376.2213 -836.0199 -376.26384 L -848.9034 -380.16794 C -848.9739 -380.1893 -849.0443 -380.21117 -849.1146 -380.2335 L -861.6186 -384.21206 C -862.0122 -384.3373 -862.4008 -384.47775 -862.7836 -384.63307 L -874.7595 -389.49287 C -875.5912 -389.83036 -876.393 -390.23723 -877.1564 -390.70917 L -886.7756 -396.6556 C -886.9313 -396.75186 -887.0854 -396.8508 -887.2377 -396.9523 L -892.1278 -400.2124 C -893.1092 -400.86665 -893.9805 -401.67255 -894.7092 -402.6 L -894.7092 -402.6 C -894.8148 -402.7344 -895.0094 -402.75775 -895.1438 -402.65215 C -895.2465 -402.5714 -895.2875 -402.43487 -895.2462 -402.3109 L -895.1092 -401.9 C -894.65 -400.52225 -894.5454 -399.05096 -894.8052 -397.6221 L -895.2003 -395.44885 C -895.4715 -393.9572 -895.9534 -392.51165 -896.6314 -391.1556 L -898.1637 -388.09096 C -898.4604 -387.49756 -898.7938 -386.9232 -899.1618 -386.37117 L -902.3655 -381.5656 C -902.7941 -380.9227 -903.2687 -380.3117 -903.7856 -379.7374 L -908.3476 -374.66844 C -908.3887 -374.6228 -908.43 -374.5774 -908.4716 -374.53227 L -914.4658 -368.02424 C -915.0936 -367.3427 -915.7793 -366.717 -916.5154 -366.15413 L -921.5395 -362.3121 C -921.9857 -361.97094 -922.4495 -361.6535 -922.929 -361.3611 L -929.4154 -357.40597 C -930.0771 -357.00252 -930.7672 -356.64768 -931.4803 -356.34424 L -938.5957 -353.3164 C -939.4033 -352.9727 -940.2379 -352.69607 -941.091 -352.48928 L -945.17 -351.5004 C -945.9948 -351.30045 -946.8343 -351.16644 -947.6804 -351.09965 L -953.3806 -350.64963 C -953.7995 -350.61656 -954.2196 -350.6 -954.6398 -350.6 L -961.6721 -350.6 C -962.4292 -350.6 -963.1854 -350.65374 -963.9349 -350.7608 L -971.8813 -351.896 C -972.3663 -351.9653 -972.8479 -352.05683 -973.3245 -352.1703 L -979.2857 -353.58965 C -980.4312 -353.8624 -981.5431 -354.26073 -982.6012 -354.77747 L -988.8812 -357.84444 C -989.3662 -358.08133 -989.839 -358.3426 -990.2976 -358.6273 L -994.5095 -361.24154 C -995.1086 -361.61344 -995.6826 -362.02454 -996.2275 -362.47216 L -1000.6736 -366.12432 C -1000.8973 -366.30807 -1001.116 -366.49786 -1001.3294 -366.69348 L -1005.1317 -370.17896 C -1005.583 -370.59264 -1006.0102 -371.0319 -1006.4111 -371.49454 L -1010.5299 -376.24693 C -1010.8493 -376.61545 -1011.1516 -376.9984 -1011.436 -377.3945 L -1015.8657 -383.5644 C -1016.3606 -384.2537 -1016.7999 -384.9813 -1017.1794 -385.7403 L -1019.7558 -390.8932 C -1019.7914 -390.9644 -1019.8265 -391.03586 -1019.861 -391.10758 L -1021.1092 -393.7 C -1021.9599 -395.46687 -1022.3155 -397.4314 -1022.1379 -399.38436 L -1021.9577 -401.3666 C -1021.9339 -401.62848 -1022.1269 -401.86006 -1022.3887 -401.88386 C -1022.5511 -401.89862 -1022.7098 -401.82925 -1022.8092 -401.7 L -1022.8092 -401.7 C -1023.4727 -400.8375 -1024.2528 -400.07144 -1025.1271 -399.42375 L -1029.0237 -396.53743 C -1029.1474 -396.4458 -1029.2724 -396.356 -1029.3986 -396.268 L -1034.0209 -393.0464 C -1035.2076 -392.2193 -1036.501 -391.55692 -1037.8658 -391.0774 L -1042.4729 -389.4587 C -1042.9635 -389.28633 -1043.4454 -389.09016 -1043.9168 -388.87087 L -1050.7636 -385.68632 C -1051.4598 -385.36253 -1052.1783 -385.08926 -1052.9137 -384.86864 L -1063.7841 -381.60752 C -1063.8009 -381.6025 -1063.8176 -381.59746 -1063.8343 -381.5924 L -1074.8024 -378.2628 C -1074.9403 -378.22093 -1075.0776 -378.1772 -1075.2143 -378.13164 L -1088.1355 -373.82456 C -1088.1847 -373.8082 -1088.2339 -373.79205 -1088.2831 -373.77616 L -1099.6505 -370.10925 C -1100.289 -369.9033 -1100.9139 -369.65737 -1101.5215 -369.37296 L -1109.4535 -365.6601 C -1109.8238 -365.48677 -1110.1874 -365.2993 -1110.5434 -365.0981 L -1116.4895 -361.73724 C -1117.7425 -361.029 -1118.1842 -359.43907 -1117.476 -358.18604 C -1117.3988 -358.0496 -1117.3096 -357.9204 -1117.2092 -357.8 L -1116.3451 -356.76307 C -1115.5902 -355.85713 -1114.9377 -354.8705 -1114.3996 -353.8212 L -1111.3224 -347.82076 C -1111.247 -347.6736 -1111.1692 -347.5276 -1111.0892 -347.38285 L -1107.1345 -340.22663 C -1107.051 -340.07555 -1106.9699 -339.92313 -1106.8914 -339.76943 L -1102.7831 -331.73144 C -1102.534 -331.24413 -1102.3101 -330.74437 -1102.1122 -330.2341 L -1098.6295 -321.25224 C -1098.616 -321.2174 -1098.6023 -321.18263 -1098.5886 -321.1479 L -1094.9923 -312.06246 C -1094.8703 -311.75423 -1094.7579 -311.44228 -1094.6552 -311.12706 L -1092.0334 -303.0743 C -1092.0173 -303.02476 -1092.0014 -302.97516 -1091.9858 -302.92548 L -1088.9137 -293.1672 C -1088.7109 -292.52305 -1088.5491 -291.8667 -1088.4293 -291.2021 L -1086.444 -280.19263 C -1086.4208 -280.0642 -1086.3992 -279.93552 -1086.3792 -279.80658 L -1084.6733 -268.8132 C -1084.6306 -268.53778 -1084.595 -268.2613 -1084.5668 -267.98402 L -1083.6794 -259.2873 C -1083.6326 -258.8293 -1083.6057 -258.36952 -1083.5986 -257.9092 L -1083.4144 -245.9336 C -1083.4109 -245.71122 -1083.4029 -245.48895 -1083.3902 -245.2669 L -1082.6198 -231.78535 C -1082.6127 -231.6618 -1082.6043 -231.5383 -1082.5943 -231.41494 L -1081.2608 -214.84057 C -1081.2264 -214.4137 -1081.2092 -213.9856 -1081.2092 -213.55736 L -1081.2092 -201.10758 C -1081.2092 -200.90254 -1081.2053 -200.69753 -1081.1974 -200.49265 L -1080.617 -185.4035 C -1080.6118 -185.26784 -1080.6083 -185.1321 -1080.6066 -184.99635 L -1080.4144 -170.2001 C -1080.411 -169.9334 -1080.4142 -169.66667 -1080.424 -169.40014 L -1080.9983 -153.89599 C -1081.0056 -153.69868 -1081.0092 -153.50125 -1081.0092 -153.3038 L -1081.0092 -139.70757 C -1081.0092 -139.50254 -1081.0132 -139.29753 -1081.021 -139.09264 L -1081.6062 -123.87764 C -1081.6082 -123.82588 -1081.6105 -123.77412 -1081.613 -123.72238 L -1082.4083 -107.21945 C -1082.4089 -107.20648 -1082.4095 -107.19351 -1082.4102 -107.18055 L -1083.2047 -91.48938 C -1083.2077 -91.42979 -1083.211 -91.37022 -1083.2147 -91.31067 L -1084.4037 -72.08993 C -1084.4074 -72.029975 -1084.4114 -71.97004 -1084.4158 -71.910126 L -1086.1989 -47.540577 C -1086.2058 -47.44686 -1086.2135 -47.3532 -1086.222 -47.259615 L -1088.0079 -27.614803 C -1088.0088 -27.60493 -1088.0097 -27.59506 -1088.0106 -27.585188 L -1089.7814 -8.500283 C -1089.7999 -8.300108 -1089.8223 -8.100301 -1089.8484 -7.900969 L -1091.8091 7.0717495 C -1091.9419 8.0859435 -1092.211 9.077562 -1092.6092 10.019731 L -1092.6092 10.019731 C -1093.0068 10.960477 -1093.2555 11.957393 -1093.3463 12.974655 L -1094.1092 21.519732 C -1094.617 27.20676 -1090.6585 32.325125 -1085.0265 33.263786 Z" stroke="#7f8080" stroke-linecap="round" stroke-linejoin="round" stroke-width="1"/>
      <path d="M -1174 -252.55385 L -1167.8 -248.15385 L -1159.6 -244.15385 L -1151 -240.55385 L -1142 -236.75385 L -1131 -232.75385 L -1121.6 -229.95385 L -1112.6 -227.35385 L -1103.6 -224.75385 L -1098.2 -223.35385 L -1092.6 -222.35385 L -1090.2 -228.15385 L -1087.6 -233.55385 L -1085.4 -237.55385 L -1082.8 -240.95385 L -1082.6 -249.95385 L -1083.2 -260.95385 L -1085 -271.75385 L -1086.6 -282.15385 L -1089.2 -293.15386 L -1091.6 -302.75386 L -1094.4 -310.75386 L -1097.6 -320.15386 L -1100.4 -327.55386 L -1104 -335.15386 L -1108 -342.75386 L -1112 -350.15386 L -1114.6 -353.75386 L -1118.2 -359.55386 L -1123.6 -355.15386 L -1128.4 -350.35386 L -1133 -344.15386 L -1137.4 -337.95386 L -1142.2 -329.35386 L -1147 -319.95386 L -1151.8 -310.75386 L -1155.4 -302.15386 L -1159.4 -293.15386 L -1162.6 -284.95385 L -1166.4 -275.55385 L -1169.2 -267.55385 L -1172.2 -259.15385 Z" fill="#400700"/>
      <path d="M -1174 -252.55385 L -1167.8 -248.15385 L -1159.6 -244.15385 L -1151 -240.55385 L -1142 -236.75385 L -1131 -232.75385 L -1121.6 -229.95385 L -1112.6 -227.35385 L -1103.6 -224.75385 L -1098.2 -223.35385 L -1092.6 -222.35385 L -1090.2 -228.15385 L -1087.6 -233.55385 L -1085.4 -237.55385 L -1082.8 -240.95385 L -1082.6 -249.95385 L -1083.2 -260.95385 L -1085 -271.75385 L -1086.6 -282.15385 L -1089.2 -293.15386 L -1091.6 -302.75386 L -1094.4 -310.75386 L -1097.6 -320.15386 L -1100.4 -327.55386 L -1104 -335.15386 L -1108 -342.75386 L -1112 -350.15386 L -1114.6 -353.75386 L -1118.2 -359.55386 L -1123.6 -355.15386 L -1128.4 -350.35386 L -1133 -344.15386 L -1137.4 -337.95386 L -1142.2 -329.35386 L -1147 -319.95386 L -1151.8 -310.75386 L -1155.4 -302.15386 L -1159.4 -293.15386 L -1162.6 -284.95385 L -1166.4 -275.55385 L -1169.2 -267.55385 L -1172.2 -259.15385 Z" stroke="#7f8080" stroke-linecap="round" stroke-linejoin="round" stroke-width="1"/>
      <path d="M -742.5947 -253.49725 L -748.7947 -249.09725 L -756.9947 -245.09725 L -765.5947 -241.49725 L -774.5947 -237.69725 L -785.5947 -233.69725 L -794.9947 -230.89725 L -803.9947 -228.29725 L -812.9947 -225.69725 L -818.3947 -224.29725 L -823.9947 -223.29725 L -826.3947 -229.09725 L -828.9947 -234.49725 L -831.1947 -238.49725 L -833.7947 -241.89725 L -833.9947 -250.89725 L -833.3947 -261.89725 L -831.5947 -272.69725 L -829.9947 -283.09725 L -827.3947 -294.09725 L -824.9947 -303.69725 L -822.1947 -311.69725 L -818.9947 -321.09725 L -816.1947 -328.49725 L -812.5947 -336.09725 L -808.5947 -343.69725 L -804.5947 -351.09725 L -801.9947 -354.69725 L -798.3947 -360.49725 L -792.9947 -356.09725 L -788.1947 -351.29725 L -783.5947 -345.09725 L -779.1947 -338.89725 L -774.3947 -330.29725 L -769.5947 -320.89725 L -764.7947 -311.69725 L -761.1947 -303.09725 L -757.1947 -294.09725 L -753.9947 -285.89725 L -750.1947 -276.49725 L -747.3947 -268.49725 L -744.3947 -260.09725 Z" fill="#510900"/>
      <path d="M -742.5947 -253.49725 L -748.7947 -249.09725 L -756.9947 -245.09725 L -765.5947 -241.49725 L -774.5947 -237.69725 L -785.5947 -233.69725 L -794.9947 -230.89725 L -803.9947 -228.29725 L -812.9947 -225.69725 L -818.3947 -224.29725 L -823.9947 -223.29725 L -826.3947 -229.09725 L -828.9947 -234.49725 L -831.1947 -238.49725 L -833.7947 -241.89725 L -833.9947 -250.89725 L -833.3947 -261.89725 L -831.5947 -272.69725 L -829.9947 -283.09725 L -827.3947 -294.09725 L -824.9947 -303.69725 L -822.1947 -311.69725 L -818.9947 -321.09725 L -816.1947 -328.49725 L -812.5947 -336.09725 L -808.5947 -343.69725 L -804.5947 -351.09725 L -801.9947 -354.69725 L -798.3947 -360.49725 L -792.9947 -356.09725 L -788.1947 -351.29725 L -783.5947 -345.09725 L -779.1947 -338.89725 L -774.3947 -330.29725 L -769.5947 -320.89725 L -764.7947 -311.69725 L -761.1947 -303.09725 L -757.1947 -294.09725 L -753.9947 -285.89725 L -750.1947 -276.49725 L -747.3947 -268.49725 L -744.3947 -260.09725 Z" stroke="#7f8080" stroke-linecap="round" stroke-linejoin="round" stroke-width="1"/>
      <path d="M -1174 -252.55385 L -1167.8 -248.15385 L -1159.6 -244.15385 L -1151 -240.55385 L -1142 -236.75385 L -1131 -232.75385 L -1121.6 -229.95385 L -1112.6 -227.35385 L -1103.6 -224.75385 L -1098.2 -223.35385 L -1092.6 -222.35385 L -1089.6 -228.75385 L -1093.4 -229.55385 L -1098.2 -230.75385 L -1103.8 -231.95385 L -1109.8 -233.75385 L -1114.4 -235.15385 L -1118.6 -236.35385 L -1123.2 -238.35385 L -1127.8 -239.95385 L -1132.6 -241.95385 L -1136.6 -243.35385 L -1141.8 -245.55385 L -1146.4 -247.15385 L -1151.2 -249.35385 L -1156 -251.15385 L -1160 -253.15385 L -1164.4 -255.35385 L -1168.8 -257.55385 L -1172.2 -259.15385 Z" fill="url(#Obj_Gradient_2)"/>
      <path d="M -1174 -252.55385 L -1167.8 -248.15385 L -1159.6 -244.15385 L -1151 -240.55385 L -1142 -236.75385 L -1131 -232.75385 L -1121.6 -229.95385 L -1112.6 -227.35385 L -1103.6 -224.75385 L -1098.2 -223.35385 L -1092.6 -222.35385 L -1089.6 -228.75385 L -1093.4 -229.55385 L -1098.2 -230.75385 L -1103.8 -231.95385 L -1109.8 -233.75385 L -1114.4 -235.15385 L -1118.6 -236.35385 L -1123.2 -238.35385 L -1127.8 -239.95385 L -1132.6 -241.95385 L -1136.6 -243.35385 L -1141.8 -245.55385 L -1146.4 -247.15385 L -1151.2 -249.35385 L -1156 -251.15385 L -1160 -253.15385 L -1164.4 -255.35385 L -1168.8 -257.55385 L -1172.2 -259.15385 Z" stroke="#7f8080" stroke-linecap="round" stroke-linejoin="round" stroke-width="1"/>
      <path d="M -742.5947 -253.49725 L -748.7947 -249.09725 L -756.9947 -245.09725 L -765.5947 -241.49725 L -774.5947 -237.69725 L -785.5947 -233.69725 L -794.9947 -230.89725 L -803.9947 -228.29725 L -812.9947 -225.69725 L -818.3947 -224.29725 L -823.9947 -223.29725 L -826.9947 -229.69725 L -823.1947 -230.49725 L -818.3947 -231.69725 L -812.7947 -232.89725 L -806.7947 -234.69725 L -802.1947 -236.09725 L -797.9947 -237.29725 L -793.3947 -239.29725 L -788.7947 -240.89725 L -783.9947 -242.89725 L -779.9947 -244.29725 L -774.7947 -246.49725 L -770.1947 -248.09725 L -765.3947 -250.29725 L -760.5947 -252.09725 L -756.5947 -254.09725 L -752.1947 -256.29725 L -747.7947 -258.49725 L -744.3947 -260.09725 Z" fill="url(#Obj_Gradient_3)"/>
      <path d="M -742.5947 -253.49725 L -748.7947 -249.09725 L -756.9947 -245.09725 L -765.5947 -241.49725 L -774.5947 -237.69725 L -785.5947 -233.69725 L -794.9947 -230.89725 L -803.9947 -228.29725 L -812.9947 -225.69725 L -818.3947 -224.29725 L -823.9947 -223.29725 L -826.9947 -229.69725 L -823.1947 -230.49725 L -818.3947 -231.69725 L -812.7947 -232.89725 L -806.7947 -234.69725 L -802.1947 -236.09725 L -797.9947 -237.29725 L -793.3947 -239.29725 L -788.7947 -240.89725 L -783.9947 -242.89725 L -779.9947 -244.29725 L -774.7947 -246.49725 L -770.1947 -248.09725 L -765.3947 -250.29725 L -760.5947 -252.09725 L -756.5947 -254.09725 L -752.1947 -256.29725 L -747.7947 -258.49725 L -744.3947 -260.09725 Z" stroke="#7f8080" stroke-linecap="round" stroke-linejoin="round" stroke-width="1"/>
      <path d="M -1023.9408 -402.2441 L -1018.5408 -402.8441 L -1011.7408 -399.4441 L -1006.7408 -397.6441 L -998.3408 -395.8441 L -989.9408 -394.8441 L -981.9408 -393.8441 L -974.3408 -393.6441 L -965.7408 -393.2441 L -954.1408 -393.4441 L -945.7408 -393.8441 L -936.3408 -394.4441 L -927.9408 -395.2441 L -918.7408 -396.6441 L -910.5408 -398.8441 L -904.7408 -400.6441 L -899.1408 -403.2441 L -896.3408 -402.0441 L -895.9408 -396.4441 L -898.7408 -388.4441 L -904.1408 -385.6441 L -914.7408 -382.4441 L -926.1408 -380.0441 L -937.3408 -379.2441 L -949.7408 -378.2441 L -960.1408 -378.2441 L -969.5408 -378.2441 L -981.1408 -378.8441 L -992.3408 -379.6441 L -1002.9408 -381.8441 L -1011.5408 -383.8441 L -1017.7408 -386.6441 L -1019.7408 -388.2441 L -1022.9408 -395.8441 Z" fill="url(#Obj_Gradient_4)"/>
      <path d="M -1023.9408 -402.2441 L -1018.5408 -402.8441 L -1011.7408 -399.4441 L -1006.7408 -397.6441 L -998.3408 -395.8441 L -989.9408 -394.8441 L -981.9408 -393.8441 L -974.3408 -393.6441 L -965.7408 -393.2441 L -954.1408 -393.4441 L -945.7408 -393.8441 L -936.3408 -394.4441 L -927.9408 -395.2441 L -918.7408 -396.6441 L -910.5408 -398.8441 L -904.7408 -400.6441 L -899.1408 -403.2441 L -896.3408 -402.0441 L -895.9408 -396.4441 L -898.7408 -388.4441 L -904.1408 -385.6441 L -914.7408 -382.4441 L -926.1408 -380.0441 L -937.3408 -379.2441 L -949.7408 -378.2441 L -960.1408 -378.2441 L -969.5408 -378.2441 L -981.1408 -378.8441 L -992.3408 -379.6441 L -1002.9408 -381.8441 L -1011.5408 -383.8441 L -1017.7408 -386.6441 L -1019.7408 -388.2441 L -1022.9408 -395.8441 Z" stroke="#7f8080" stroke-linecap="round" stroke-linejoin="round" stroke-width="1"/>
      <path d="M -1084.1353 33.406847 L -1072.3785 35.54414 C -1072.1798 35.58026 -1071.9805 35.612616 -1071.7806 35.64119 L -1045.8895 39.341704 C -1045.6216 39.37999 -1045.3528 39.411477 -1045.0833 39.43613 L -1017.4805 41.9613 C -1017.2007 41.9869 -1016.9202 42.00512 -1016.6394 42.01595 L -981.0558 43.388124 C -980.8504 43.396045 -980.6448 43.400007 -980.4393 43.400007 L -966.0757 43.400007 C -958.2432 43.400007 -951.8937 37.05053 -951.8937 29.21805 C -951.8937 29.05751 -951.8965 28.89698 -951.9019 28.73653 L -964.6549 -346.65243 C -964.7313 -348.9013 -966.5765 -350.6849 -968.8267 -350.6849 L -971.6224 -350.6849 C -972.4472 -350.6849 -973.2708 -350.74867 -974.0858 -350.87567 L -981.0608 -351.96252 C -981.5853 -352.04425 -982.1054 -352.15203 -982.6192 -352.28547 L -987.7198 -353.6101 C -988.9362 -353.92602 -990.1112 -354.38414 -991.2204 -354.975 L -996.6901 -357.8887 C -997.1877 -358.15373 -997.6709 -358.4449 -998.1377 -358.76093 L -1001.8569 -361.27888 C -1002.4553 -361.68403 -1003.0256 -362.12926 -1003.5638 -362.6115 L -1007.5645 -366.196 C -1007.782 -366.39083 -1007.994 -366.59157 -1008.2005 -366.798 L -1011.6464 -370.2434 C -1012.0766 -370.6736 -1012.482 -371.128 -1012.8606 -371.6044 L -1016.616 -376.3309 C -1016.9123 -376.7038 -1017.1918 -377.08975 -1017.4537 -377.48757 L -1021.5246 -383.67245 C -1021.9715 -384.3513 -1022.3659 -385.06323 -1022.7046 -385.802 L -1025.0832 -390.9909 C -1025.1146 -391.05937 -1025.1455 -391.12804 -1025.1759 -391.19693 L -1026.8728 -395.04125 C -1027.1954 -395.772 -1026.8645 -396.6259 -1026.1337 -396.9485 C -1026.0924 -396.96675 -1026.0501 -396.98307 -1026.0072 -396.9974 L -1026.0072 -396.9974 C -1025.605 -397.1315 -1025.1703 -396.9142 -1025.0362 -396.512 C -1024.9814 -396.3477 -1024.9838 -396.16964 -1025.043 -396.00684 L -1025.6586 -394.31397 C -1026.1962 -392.83533 -1027.3122 -391.639 -1028.75 -391 L -1029.4008 -390.71074 C -1030.4552 -390.24213 -1031.5962 -390 -1032.75 -390 L -1034.5 -390 L -1037.25 -390 C -1039.0678 -390 -1040.8701 -389.66536 -1042.5667 -389.0128 L -1045.7745 -387.77904 C -1046.2579 -387.5931 -1046.75 -387.4308 -1047.2491 -387.2926 L -1054.1182 -385.3909 C -1054.3555 -385.3252 -1054.5912 -385.25405 -1054.8251 -385.1775 L -1065.4514 -381.7003 C -1065.4692 -381.6945 -1065.487 -381.68862 -1065.5048 -381.68273 L -1075.5284 -378.3637 C -1075.6751 -378.31512 -1075.821 -378.26444 -1075.9662 -378.21165 L -1087.7746 -373.9183 C -1087.8267 -373.89936 -1087.879 -373.8807 -1087.9313 -373.8623 L -1098.2128 -370.24467 C -1098.8859 -370.00784 -1099.5423 -369.72625 -1100.1778 -369.4018 L -1107.4443 -365.69178 C -1107.7103 -365.556 -1107.9799 -365.4277 -1108.253 -365.30702 L -1115.1075 -362.27813 C -1116.7473 -361.55356 -1117.5669 -359.7007 -1117 -358 L -1116.8211 -357.4632 C -1116.2772 -355.83174 -1115.474 -354.2986 -1114.4421 -352.92285 L -1110.8656 -348.15418 C -1110.2897 -347.3863 -1109.784 -346.56812 -1109.3548 -345.7096 L -1106.5745 -340.14906 C -1106.5248 -340.0497 -1106.4741 -339.95084 -1106.4224 -339.85253 L -1101.7429 -330.9615 C -1101.581 -330.6539 -1101.4292 -330.34114 -1101.2877 -330.0237 L -1097.6215 -321.799 C -1097.4669 -321.45214 -1097.3247 -321.0999 -1097.1952 -320.74294 L -1094.0634 -312.11313 C -1093.9578 -311.8221 -1093.8607 -311.52806 -1093.7721 -311.2314 L -1091.3582 -303.1443 C -1091.3443 -303.09786 -1091.3306 -303.05135 -1091.3172 -303.0048 L -1088.4798 -293.17373 C -1088.3065 -292.5733 -1088.1685 -291.96323 -1088.0665 -291.34665 L -1086.2316 -280.2475 C -1086.212 -280.12896 -1086.1937 -280.0102 -1086.1768 -279.89124 L -1084.6057 -268.8477 C -1084.5696 -268.59405 -1084.5397 -268.33958 -1084.5158 -268.0845 L -1083.6936 -259.29605 C -1083.6543 -258.87556 -1083.6316 -258.45368 -1083.6257 -258.0314 L -1083.4555 -245.96817 C -1083.4526 -245.76425 -1083.4459 -245.5604 -1083.4352 -245.35675 L -1082.7265 -231.82935 C -1082.7206 -231.71595 -1082.7134 -231.60262 -1082.7051 -231.48937 L -1081.4772 -214.84323 C -1081.4483 -214.45154 -1081.4338 -214.05893 -1081.4338 -213.66618 L -1081.4338 -201.13462 C -1081.4338 -200.94663 -1081.4305 -200.75865 -1081.4239 -200.57078 L -1080.8902 -185.43587 C -1080.8858 -185.31146 -1080.8829 -185.187 -1080.8814 -185.06253 L -1080.7046 -170.21276 C -1080.7017 -169.96824 -1080.7044 -169.72369 -1080.7127 -169.4793 L -1081.2412 -153.91385 C -1081.2473 -153.73292 -1081.2504 -153.5519 -1081.2504 -153.37088 L -1081.2504 -139.72139 C -1081.2504 -139.5334 -1081.2537 -139.34542 -1081.2603 -139.15755 L -1081.7981 -123.90724 C -1081.7998 -123.85976 -1081.8017 -123.81229 -1081.8038 -123.76483 L -1082.5334 -107.25029 C -1082.534 -107.23839 -1082.5345 -107.2265 -1082.535 -107.2146 L -1083.264 -91.51104 C -1083.2665 -91.45637 -1083.2694 -91.40172 -1083.2725 -91.34708 L -1084.3635 -72.1074 C -1084.3666 -72.05237 -1084.37 -71.99736 -1084.3737 -71.94237 L -1086.0101 -47.548637 C -1086.0159 -47.462586 -1086.0224 -47.376583 -1086.0295 -47.29064 L -1087.6682 -27.628896 C -1087.669 -27.619827 -1087.6698 -27.610758 -1087.6705 -27.60169 L -1089.2965 -8.487147 C -1089.3121 -8.303137 -1089.331 -8.119412 -1089.353 -7.936055 L -1091.1558 7.080472 C -1091.2764 8.084543 -1091.5222 9.069564 -1091.8876 10.012539 L -1091.8876 10.012539 C -1092.2525 10.954303 -1092.4796 11.943772 -1092.562 12.950388 L -1093.263 21.515017 C -1093.7314 27.23646 -1089.7833 32.380085 -1084.1353 33.406847 Z" fill="#890000"/>
      <path d="M -1084.1353 33.406847 L -1072.3785 35.54414 C -1072.1798 35.58026 -1071.9805 35.612616 -1071.7806 35.64119 L -1045.8895 39.341704 C -1045.6216 39.37999 -1045.3528 39.411477 -1045.0833 39.43613 L -1017.4805 41.9613 C -1017.2007 41.9869 -1016.9202 42.00512 -1016.6394 42.01595 L -981.0558 43.388124 C -980.8504 43.396045 -980.6448 43.400007 -980.4393 43.400007 L -966.0757 43.400007 C -958.2432 43.400007 -951.8937 37.05053 -951.8937 29.21805 C -951.8937 29.05751 -951.8965 28.89698 -951.9019 28.73653 L -964.6549 -346.65243 C -964.7313 -348.9013 -966.5765 -350.6849 -968.8267 -350.6849 L -971.6224 -350.6849 C -972.4472 -350.6849 -973.2708 -350.74867 -974.0858 -350.87567 L -981.0608 -351.96252 C -981.5853 -352.04425 -982.1054 -352.15203 -982.6192 -352.28547 L -987.7198 -353.6101 C -988.9362 -353.92602 -990.1112 -354.38414 -991.2204 -354.975 L -996.6901 -357.8887 C -997.1877 -358.15373 -997.6709 -358.4449 -998.1377 -358.76093 L -1001.8569 -361.27888 C -1002.4553 -361.68403 -1003.0256 -362.12926 -1003.5638 -362.6115 L -1007.5645 -366.196 C -1007.782 -366.39083 -1007.994 -366.59157 -1008.2005 -366.798 L -1011.6464 -370.2434 C -1012.0766 -370.6736 -1012.482 -371.128 -1012.8606 -371.6044 L -1016.616 -376.3309 C -1016.9123 -376.7038 -1017.1918 -377.08975 -1017.4537 -377.48757 L -1021.5246 -383.67245 C -1021.9715 -384.3513 -1022.3659 -385.06323 -1022.7046 -385.802 L -1025.0832 -390.9909 C -1025.1146 -391.05937 -1025.1455 -391.12804 -1025.1759 -391.19693 L -1026.8728 -395.04125 C -1027.1954 -395.772 -1026.8645 -396.6259 -1026.1337 -396.9485 C -1026.0924 -396.96675 -1026.0501 -396.98307 -1026.0072 -396.9974 L -1026.0072 -396.9974 C -1025.605 -397.1315 -1025.1703 -396.9142 -1025.0362 -396.512 C -1024.9814 -396.3477 -1024.9838 -396.16964 -1025.043 -396.00684 L -1025.6586 -394.31397 C -1026.1962 -392.83533 -1027.3122 -391.639 -1028.75 -391 L -1029.4008 -390.71074 C -1030.4552 -390.24213 -1031.5962 -390 -1032.75 -390 L -1034.5 -390 L -1037.25 -390 C -1039.0678 -390 -1040.8701 -389.66536 -1042.5667 -389.0128 L -1045.7745 -387.77904 C -1046.2579 -387.5931 -1046.75 -387.4308 -1047.2491 -387.2926 L -1054.1182 -385.3909 C -1054.3555 -385.3252 -1054.5912 -385.25405 -1054.8251 -385.1775 L -1065.4514 -381.7003 C -1065.4692 -381.6945 -1065.487 -381.68862 -1065.5048 -381.68273 L -1075.5284 -378.3637 C -1075.6751 -378.31512 -1075.821 -378.26444 -1075.9662 -378.21165 L -1087.7746 -373.9183 C -1087.8267 -373.89936 -1087.879 -373.8807 -1087.9313 -373.8623 L -1098.2128 -370.24467 C -1098.8859 -370.00784 -1099.5423 -369.72625 -1100.1778 -369.4018 L -1107.4443 -365.69178 C -1107.7103 -365.556 -1107.9799 -365.4277 -1108.253 -365.30702 L -1115.1075 -362.27813 C -1116.7473 -361.55356 -1117.5669 -359.7007 -1117 -358 L -1116.8211 -357.4632 C -1116.2772 -355.83174 -1115.474 -354.2986 -1114.4421 -352.92285 L -1110.8656 -348.15418 C -1110.2897 -347.3863 -1109.784 -346.56812 -1109.3548 -345.7096 L -1106.5745 -340.14906 C -1106.5248 -340.0497 -1106.4741 -339.95084 -1106.4224 -339.85253 L -1101.7429 -330.9615 C -1101.581 -330.6539 -1101.4292 -330.34114 -1101.2877 -330.0237 L -1097.6215 -321.799 C -1097.4669 -321.45214 -1097.3247 -321.0999 -1097.1952 -320.74294 L -1094.0634 -312.11313 C -1093.9578 -311.8221 -1093.8607 -311.52806 -1093.7721 -311.2314 L -1091.3582 -303.1443 C -1091.3443 -303.09786 -1091.3306 -303.05135 -1091.3172 -303.0048 L -1088.4798 -293.17373 C -1088.3065 -292.5733 -1088.1685 -291.96323 -1088.0665 -291.34665 L -1086.2316 -280.2475 C -1086.212 -280.12896 -1086.1937 -280.0102 -1086.1768 -279.89124 L -1084.6057 -268.8477 C -1084.5696 -268.59405 -1084.5397 -268.33958 -1084.5158 -268.0845 L -1083.6936 -259.29605 C -1083.6543 -258.87556 -1083.6316 -258.45368 -1083.6257 -258.0314 L -1083.4555 -245.96817 C -1083.4526 -245.76425 -1083.4459 -245.5604 -1083.4352 -245.35675 L -1082.7265 -231.82935 C -1082.7206 -231.71595 -1082.7134 -231.60262 -1082.7051 -231.48937 L -1081.4772 -214.84323 C -1081.4483 -214.45154 -1081.4338 -214.05893 -1081.4338 -213.66618 L -1081.4338 -201.13462 C -1081.4338 -200.94663 -1081.4305 -200.75865 -1081.4239 -200.57078 L -1080.8902 -185.43587 C -1080.8858 -185.31146 -1080.8829 -185.187 -1080.8814 -185.06253 L -1080.7046 -170.21276 C -1080.7017 -169.96824 -1080.7044 -169.72369 -1080.7127 -169.4793 L -1081.2412 -153.91385 C -1081.2473 -153.73292 -1081.2504 -153.5519 -1081.2504 -153.37088 L -1081.2504 -139.72139 C -1081.2504 -139.5334 -1081.2537 -139.34542 -1081.2603 -139.15755 L -1081.7981 -123.90724 C -1081.7998 -123.85976 -1081.8017 -123.81229 -1081.8038 -123.76483 L -1082.5334 -107.25029 C -1082.534 -107.23839 -1082.5345 -107.2265 -1082.535 -107.2146 L -1083.264 -91.51104 C -1083.2665 -91.45637 -1083.2694 -91.40172 -1083.2725 -91.34708 L -1084.3635 -72.1074 C -1084.3666 -72.05237 -1084.37 -71.99736 -1084.3737 -71.94237 L -1086.0101 -47.548637 C -1086.0159 -47.462586 -1086.0224 -47.376583 -1086.0295 -47.29064 L -1087.6682 -27.628896 C -1087.669 -27.619827 -1087.6698 -27.610758 -1087.6705 -27.60169 L -1089.2965 -8.487147 C -1089.3121 -8.303137 -1089.331 -8.119412 -1089.353 -7.936055 L -1091.1558 7.080472 C -1091.2764 8.084543 -1091.5222 9.069564 -1091.8876 10.012539 L -1091.8876 10.012539 C -1092.2525 10.954303 -1092.4796 11.943772 -1092.562 12.950388 L -1093.263 21.515017 C -1093.7314 27.23646 -1089.7833 32.380085 -1084.1353 33.406847 Z" stroke="#7f8080" stroke-linecap="round" stroke-linejoin="round" stroke-width="1"/>
      <path d="M -1023.4279 -402.0362 L -1028.157 -397.98264 C -1029.3074 -396.99662 -1030.5524 -396.1267 -1031.8738 -395.3855 L -1034.4004 -393.96835 C -1035.8356 -393.1634 -1036.4164 -391.39425 -1035.7376 -389.89527 L -1034.72 -387.64803 C -1034.5984 -387.37954 -1034.4717 -387.1134 -1034.3399 -386.8498 L -1032.5376 -383.24526 L -1030.0506 -378.2713 C -1029.7088 -377.5877 -1029.3332 -376.92157 -1028.925 -376.27537 L -1026.5987 -372.5919 C -1026.1583 -371.89465 -1025.6807 -371.2216 -1025.168 -370.5756 L -1021.7574 -366.27815 C -1021.2113 -365.59013 -1020.6263 -364.93394 -1020.0052 -364.31283 L -1015.3391 -359.6468 C -1014.9383 -359.2459 -1014.5227 -358.86 -1014.0933 -358.4898 L -1009.5298 -354.55574 C -1009.1351 -354.21552 -1008.729 -353.8888 -1008.3122 -353.57617 L -1004.3372 -350.59497 C -1003.6713 -350.09553 -1002.9788 -349.6326 -1002.2627 -349.20826 L -998.1296 -346.75904 C -998.0016 -346.6832 -997.8729 -346.6086 -997.7434 -346.53523 L -993.0459 -343.8733 C -992.3076 -343.45493 -991.5467 -343.07774 -990.7667 -342.74347 L -987.2169 -341.2221 C -986.631 -340.971 -986.0348 -340.74433 -985.43 -340.54274 L -980.4119 -338.87003 C -979.1647 -338.4543 -977.8841 -338.14624 -976.5842 -337.9493 L -972.4854 -337.32826 C -972.1202 -337.27294 -971.7539 -337.2264 -971.3865 -337.18874 L -964.5054 -336.483 C -964.2602 -336.45784 -964.0147 -336.43664 -963.7688 -336.4194 L -959.2417 -336.1017 C -958.7058 -336.0641 -958.1688 -336.04527 -957.6316 -336.04527 L -954.3695 -336.04526 C -953.4158 -336.04526 -952.4631 -336.1046 -951.5167 -336.22287 L -947.528 -336.72146 C -946.868 -336.80396 -946.212 -336.91504 -945.5616 -337.0544 L -939.4796 -338.3577 C -938.5857 -338.54924 -937.7041 -338.7939 -936.8393 -339.0904 L -932.3305 -340.6363 C -931.5358 -340.90873 -930.7567 -341.2245 -929.9966 -341.5822 L -925.1632 -343.85674 C -924.613 -344.11565 -924.0733 -344.3963 -923.5454 -344.69798 L -919.7775 -346.85104 C -919.0847 -347.24692 -918.413 -347.6786 -917.7651 -348.1443 L -913.0889 -351.50525 C -912.5883 -351.8651 -912.1022 -352.24497 -911.6321 -352.6439 L -906.3112 -357.15856 C -905.9289 -357.48294 -905.5573 -357.81974 -905.197 -358.1684 L -900.4978 -362.71604 C -899.8582 -363.335 -899.2551 -363.99056 -898.6915 -364.67942 L -894.8982 -369.31566 C -894.3915 -369.93497 -893.9174 -370.5803 -893.478 -371.24904 L -889.8608 -376.75344 C -889.6454 -377.08127 -889.4384 -377.41456 -889.24 -377.753 L -886.7169 -382.05708 C -886.3309 -382.71546 -885.978 -383.39265 -885.6594 -384.0861 L -883.5407 -388.6974 C -883.0078 -389.85715 -882.6367 -391.08456 -882.4376 -392.34526 L -882.4376 -392.34526 C -882.2593 -393.47453 -882.8386 -394.58797 -883.8657 -395.0901 L -889.1591 -397.678 C -890.4736 -398.32063 -891.7082 -399.11514 -892.8376 -400.04526 L -893.2436 -400.37963 C -894.088 -401.07496 -894.7114 -402.00126 -895.0376 -403.04526 L -895.0376 -403.04526 C -895.0843 -403.1946 -895.2431 -403.2778 -895.3925 -403.23114 C -895.5075 -403.1952 -895.5872 -403.0903 -895.5911 -402.9698 L -895.7003 -399.5469 C -895.7911 -396.7038 -896.4084 -393.90224 -897.521 -391.28433 L -898.3979 -389.22096 C -898.9565 -387.9067 -899.6363 -386.6473 -900.4284 -385.4591 L -904.1142 -379.9304 C -904.8617 -378.80915 -905.7063 -377.75575 -906.6382 -376.78238 L -912.9333 -370.20753 C -913.8014 -369.30087 -914.7422 -368.4668 -915.7464 -367.71367 L -924.1213 -361.4325 C -924.9977 -360.7752 -925.92 -360.18133 -926.881 -359.65546 L -934.0662 -355.72394 C -935.3774 -355.00653 -936.7553 -354.41863 -938.1805 -353.96857 L -944.8534 -351.86133 C -946.5703 -351.31916 -948.3449 -350.98046 -950.1407 -350.8522 L -957.0272 -350.3603 C -958.0995 -350.2837 -959.1758 -350.2824 -960.2483 -350.35635 L -968.6846 -350.93816 C -969.7187 -351.0095 -970.7469 -351.15064 -971.762 -351.36067 L -978.8973 -352.8369 C -980.8492 -353.24077 -982.7404 -353.89665 -984.5232 -354.7881 L -989.1827 -357.1178 C -990.4168 -357.73485 -991.5929 -358.46173 -992.6967 -359.2896 L -998.3787 -363.5511 C -998.8178 -363.88043 -999.245 -364.2254 -999.6595 -364.5853 L -1005.4147 -369.58324 C -1006.229 -370.2904 -1006.9925 -371.0539 -1007.6996 -371.8682 L -1012.1049 -376.9409 C -1012.859 -377.80925 -1013.5469 -378.73295 -1014.1628 -379.7042 L -1017.8965 -385.592 C -1018.2571 -386.16056 -1018.5925 -386.7447 -1018.9018 -387.3427 L -1020.5222 -390.47544 C -1021.1313 -391.6531 -1021.6375 -392.88126 -1022.035 -394.14615 L -1023.3153 -398.21964 C -1023.53 -398.903 -1023.7128 -399.59605 -1023.8629 -400.2965 L -1024.0883 -401.34843 C -1024.1734 -401.74544 -1023.947 -402.1431 -1023.5622 -402.27263 L -1023.5622 -402.27263 C -1023.4897 -402.29704 -1023.4112 -402.25805 -1023.3868 -402.18556 C -1023.3687 -402.13205 -1023.385 -402.07296 -1023.4279 -402.0362 Z" fill="url(#Obj_Gradient_5)"/>
      <path d="M -1023.4279 -402.0362 L -1028.157 -397.98264 C -1029.3074 -396.99662 -1030.5524 -396.1267 -1031.8738 -395.3855 L -1034.4004 -393.96835 C -1035.8356 -393.1634 -1036.4164 -391.39425 -1035.7376 -389.89527 L -1034.72 -387.64803 C -1034.5984 -387.37954 -1034.4717 -387.1134 -1034.3399 -386.8498 L -1032.5376 -383.24526 L -1030.0506 -378.2713 C -1029.7088 -377.5877 -1029.3332 -376.92157 -1028.925 -376.27537 L -1026.5987 -372.5919 C -1026.1583 -371.89465 -1025.6807 -371.2216 -1025.168 -370.5756 L -1021.7574 -366.27815 C -1021.2113 -365.59013 -1020.6263 -364.93394 -1020.0052 -364.31283 L -1015.3391 -359.6468 C -1014.9383 -359.2459 -1014.5227 -358.86 -1014.0933 -358.4898 L -1009.5298 -354.55574 C -1009.1351 -354.21552 -1008.729 -353.8888 -1008.3122 -353.57617 L -1004.3372 -350.59497 C -1003.6713 -350.09553 -1002.9788 -349.6326 -1002.2627 -349.20826 L -998.1296 -346.75904 C -998.0016 -346.6832 -997.8729 -346.6086 -997.7434 -346.53523 L -993.0459 -343.8733 C -992.3076 -343.45493 -991.5467 -343.07774 -990.7667 -342.74347 L -987.2169 -341.2221 C -986.631 -340.971 -986.0348 -340.74433 -985.43 -340.54274 L -980.4119 -338.87003 C -979.1647 -338.4543 -977.8841 -338.14624 -976.5842 -337.9493 L -972.4854 -337.32826 C -972.1202 -337.27294 -971.7539 -337.2264 -971.3865 -337.18874 L -964.5054 -336.483 C -964.2602 -336.45784 -964.0147 -336.43664 -963.7688 -336.4194 L -959.2417 -336.1017 C -958.7058 -336.0641 -958.1688 -336.04527 -957.6316 -336.04527 L -954.3695 -336.04526 C -953.4158 -336.04526 -952.4631 -336.1046 -951.5167 -336.22287 L -947.528 -336.72146 C -946.868 -336.80396 -946.212 -336.91504 -945.5616 -337.0544 L -939.4796 -338.3577 C -938.5857 -338.54924 -937.7041 -338.7939 -936.8393 -339.0904 L -932.3305 -340.6363 C -931.5358 -340.90873 -930.7567 -341.2245 -929.9966 -341.5822 L -925.1632 -343.85674 C -924.613 -344.11565 -924.0733 -344.3963 -923.5454 -344.69798 L -919.7775 -346.85104 C -919.0847 -347.24692 -918.413 -347.6786 -917.7651 -348.1443 L -913.0889 -351.50525 C -912.5883 -351.8651 -912.1022 -352.24497 -911.6321 -352.6439 L -906.3112 -357.15856 C -905.9289 -357.48294 -905.5573 -357.81974 -905.197 -358.1684 L -900.4978 -362.71604 C -899.8582 -363.335 -899.2551 -363.99056 -898.6915 -364.67942 L -894.8982 -369.31566 C -894.3915 -369.93497 -893.9174 -370.5803 -893.478 -371.24904 L -889.8608 -376.75344 C -889.6454 -377.08127 -889.4384 -377.41456 -889.24 -377.753 L -886.7169 -382.05708 C -886.3309 -382.71546 -885.978 -383.39265 -885.6594 -384.0861 L -883.5407 -388.6974 C -883.0078 -389.85715 -882.6367 -391.08456 -882.4376 -392.34526 L -882.4376 -392.34526 C -882.2593 -393.47453 -882.8386 -394.58797 -883.8657 -395.0901 L -889.1591 -397.678 C -890.4736 -398.32063 -891.7082 -399.11514 -892.8376 -400.04526 L -893.2436 -400.37963 C -894.088 -401.07496 -894.7114 -402.00126 -895.0376 -403.04526 L -895.0376 -403.04526 C -895.0843 -403.1946 -895.2431 -403.2778 -895.3925 -403.23114 C -895.5075 -403.1952 -895.5872 -403.0903 -895.5911 -402.9698 L -895.7003 -399.5469 C -895.7911 -396.7038 -896.4084 -393.90224 -897.521 -391.28433 L -898.3979 -389.22096 C -898.9565 -387.9067 -899.6363 -386.6473 -900.4284 -385.4591 L -904.1142 -379.9304 C -904.8617 -378.80915 -905.7063 -377.75575 -906.6382 -376.78238 L -912.9333 -370.20753 C -913.8014 -369.30087 -914.7422 -368.4668 -915.7464 -367.71367 L -924.1213 -361.4325 C -924.9977 -360.7752 -925.92 -360.18133 -926.881 -359.65546 L -934.0662 -355.72394 C -935.3774 -355.00653 -936.7553 -354.41863 -938.1805 -353.96857 L -944.8534 -351.86133 C -946.5703 -351.31916 -948.3449 -350.98046 -950.1407 -350.8522 L -957.0272 -350.3603 C -958.0995 -350.2837 -959.1758 -350.2824 -960.2483 -350.35635 L -968.6846 -350.93816 C -969.7187 -351.0095 -970.7469 -351.15064 -971.762 -351.36067 L -978.8973 -352.8369 C -980.8492 -353.24077 -982.7404 -353.89665 -984.5232 -354.7881 L -989.1827 -357.1178 C -990.4168 -357.73485 -991.5929 -358.46173 -992.6967 -359.2896 L -998.3787 -363.5511 C -998.8178 -363.88043 -999.245 -364.2254 -999.6595 -364.5853 L -1005.4147 -369.58324 C -1006.229 -370.2904 -1006.9925 -371.0539 -1007.6996 -371.8682 L -1012.1049 -376.9409 C -1012.859 -377.80925 -1013.5469 -378.73295 -1014.1628 -379.7042 L -1017.8965 -385.592 C -1018.2571 -386.16056 -1018.5925 -386.7447 -1018.9018 -387.3427 L -1020.5222 -390.47544 C -1021.1313 -391.6531 -1021.6375 -392.88126 -1022.035 -394.14615 L -1023.3153 -398.21964 C -1023.53 -398.903 -1023.7128 -399.59605 -1023.8629 -400.2965 L -1024.0883 -401.34843 C -1024.1734 -401.74544 -1023.947 -402.1431 -1023.5622 -402.27263 L -1023.5622 -402.27263 C -1023.4897 -402.29704 -1023.4112 -402.25805 -1023.3868 -402.18556 C -1023.3687 -402.13205 -1023.385 -402.07296 -1023.4279 -402.0362 Z" stroke="#7f8080" stroke-linecap="round" stroke-linejoin="round" stroke-width="1"/>
      <path d="M -1094.1868 23.20001 L -1094.1868 23.20001 C -1094.2525 23.725486 -1094.1896 24.259053 -1094.0037 24.754902 L -1093.3527 26.490924 C -1093.176 26.962272 -1092.9489 27.41318 -1092.6754 27.83582 L -1091.7076 29.33153 C -1091.1666 30.167557 -1090.4535 30.878546 -1089.6159 31.41702 L -1088.5378 32.110053 C -1088.2376 32.303074 -1087.923 32.472847 -1087.5968 32.617885 L -1086.28 33.203486 C -1085.6835 33.46876 -1085.0528 33.64928 -1084.4062 33.739796 L -1075.3958 35.001255 C -1075.3858 35.002654 -1075.3758 35.00403 -1075.3658 35.005388 L -1063.6498 36.593998 C -1063.6038 36.600235 -1063.5577 36.606015 -1063.5116 36.611336 L -1053.2287 37.79783 C -1053.1968 37.80151 -1053.1648 37.804976 -1053.1328 37.80822 L -1039.4228 39.199096 C -1039.3948 39.201935 -1039.3668 39.204605 -1039.3388 39.207106 L -1028.2335 40.19865 C -1028.1984 40.201786 -1028.1632 40.204656 -1028.128 40.20726 L -1017.4415 40.998856 C -1017.401 41.001855 -1017.3605 41.0045 -1017.32 41.006795 L -1006.812 41.601586 C -1006.7912 41.602765 -1006.7704 41.604036 -1006.7496 41.6054 L -994.7068 42.39509 C -994.6228 42.4006 -994.5387 42.40459 -994.4546 42.407067 L -981.0074 42.80257 C -980.9897 42.803093 -980.9719 42.803683 -980.9542 42.80434 L -970.3103 43.19856 C -970.224 43.201755 -970.1376 43.203354 -970.0512 43.203354 L -959.4422 43.203354 C -959.4013 43.203354 -959.3603 43.203713 -959.3194 43.20443 L -948.233 43.39893 C -948.0649 43.40188 -947.8968 43.39877 -947.7289 43.389617 L -937.1077 42.810277 C -937.0231 42.80566 -936.9384 42.802584 -936.8537 42.801043 L -926.0891 42.605324 C -926.0169 42.60401 -925.9447 42.60158 -925.8726 42.59803 L -913.8539 42.00695 C -913.8052 42.004553 -913.7564 42.001645 -913.7078 41.99823 L -902.4677 41.209453 C -902.4098 41.205387 -902.3519 41.2006 -902.2941 41.195094 L -889.8835 40.013134 C -889.815 40.006614 -889.7465 40.001104 -889.6779 39.996604 L -877.7458 39.214176 C -877.6358 39.206962 -877.526 39.19715 -877.4164 39.18475 L -867.0041 38.005992 C -866.9886 38.004233 -866.973 38.002422 -866.9575 38.00056 L -857.0098 36.806834 C -856.9905 36.804514 -856.9711 36.802113 -856.9518 36.79963 L -843.1161 35.022093 C -843.0188 35.009603 -842.9219 34.995073 -842.8253 34.978513 L -836.2718 33.855058 C -836.0708 33.820607 -835.8685 33.794953 -835.6653 33.77817 L -832.4329 33.511195 C -831.5437 33.43775 -830.6767 33.194972 -829.8786 32.79594 L -828.3924 32.052794 C -827.7918 31.7525 -827.2375 31.367352 -826.7466 30.90919 L -825.4115 29.66308 C -824.8047 29.096715 -824.3493 28.387474 -824.0868 27.60001 L -823.792 26.715523 C -823.7219 26.5053 -823.6618 26.291866 -823.612 26.075945 L -823.1423 24.040556 C -823.1071 23.887924 -823.1405 23.727524 -823.2338 23.60168 L -823.2338 23.60168 C -823.3241 23.479802 -823.4748 23.418305 -823.6246 23.44214 L -832.1045 24.79121 C -832.1553 24.799305 -832.2061 24.807963 -832.2568 24.817182 L -845.2416 27.178048 C -845.3344 27.194917 -845.4275 27.20991 -845.5209 27.223016 L -856.7506 28.799112 C -856.7707 28.80194 -856.7909 28.804856 -856.811 28.80786 L -869.9336 30.766454 C -870.0983 30.791046 -870.2639 30.80975 -870.43 30.822525 L -883.1548 31.801357 C -883.1721 31.80269 -883.1895 31.803955 -883.2068 31.805158 L -897.5469 32.801 C -897.5695 32.80257 -897.5921 32.80403 -897.6147 32.805378 L -910.918 33.5996 C -910.9598 33.602103 -911.0018 33.604228 -911.0437 33.605975 L -925.2352 34.197285 C -925.3322 34.20133 -925.4294 34.203354 -925.5266 34.203354 L -938.7808 34.203354 L -951.3225 34.203354 C -951.3614 34.203354 -951.4002 34.203678 -951.4391 34.204326 L -963.1975 34.4003 C -963.3197 34.402335 -963.4419 34.401172 -963.564 34.39681 L -974.3976 34.009897 C -974.5197 34.005536 -974.6419 34.004372 -974.7641 34.00641 L -986.4787 34.201653 C -986.5468 34.202787 -986.6148 34.20293 -986.6829 34.202078 L -1002.3852 34.0058 C -1002.5156 34.00417 -1002.6459 33.998896 -1002.776 33.989984 L -1017.0858 33.009862 C -1017.1491 33.005524 -1017.2124 33.000323 -1017.2756 32.994262 L -1031.7666 31.604714 C -1031.7761 31.603807 -1031.7855 31.60288 -1031.795 31.601936 L -1045.607 30.220733 C -1045.7228 30.20915 -1045.8384 30.194676 -1045.9535 30.17733 L -1060.2627 28.021156 C -1060.3414 28.00929 -1060.4204 27.998766 -1060.4995 27.989594 L -1074.0194 26.422065 C -1074.127 26.409593 -1074.2343 26.394625 -1074.3411 26.377175 L -1083.7332 24.843773 C -1083.8982 24.816835 -1084.0622 24.783996 -1084.2248 24.745318 L -1093.3024 22.586538 C -1093.6908 22.49419 -1094.0804 22.734123 -1094.1728 23.122441 C -1094.1788 23.148023 -1094.1835 23.173917 -1094.1868 23.20001 Z" fill="url(#Obj_Gradient_6)"/>
      <path d="M -1094.1868 23.20001 L -1094.1868 23.20001 C -1094.2525 23.725486 -1094.1896 24.259053 -1094.0037 24.754902 L -1093.3527 26.490924 C -1093.176 26.962272 -1092.9489 27.41318 -1092.6754 27.83582 L -1091.7076 29.33153 C -1091.1666 30.167557 -1090.4535 30.878546 -1089.6159 31.41702 L -1088.5378 32.110053 C -1088.2376 32.303074 -1087.923 32.472847 -1087.5968 32.617885 L -1086.28 33.203486 C -1085.6835 33.46876 -1085.0528 33.64928 -1084.4062 33.739796 L -1075.3958 35.001255 C -1075.3858 35.002654 -1075.3758 35.00403 -1075.3658 35.005388 L -1063.6498 36.593998 C -1063.6038 36.600235 -1063.5577 36.606015 -1063.5116 36.611336 L -1053.2287 37.79783 C -1053.1968 37.80151 -1053.1648 37.804976 -1053.1328 37.80822 L -1039.4228 39.199096 C -1039.3948 39.201935 -1039.3668 39.204605 -1039.3388 39.207106 L -1028.2335 40.19865 C -1028.1984 40.201786 -1028.1632 40.204656 -1028.128 40.20726 L -1017.4415 40.998856 C -1017.401 41.001855 -1017.3605 41.0045 -1017.32 41.006795 L -1006.812 41.601586 C -1006.7912 41.602765 -1006.7704 41.604036 -1006.7496 41.6054 L -994.7068 42.39509 C -994.6228 42.4006 -994.5387 42.40459 -994.4546 42.407067 L -981.0074 42.80257 C -980.9897 42.803093 -980.9719 42.803683 -980.9542 42.80434 L -970.3103 43.19856 C -970.224 43.201755 -970.1376 43.203354 -970.0512 43.203354 L -959.4422 43.203354 C -959.4013 43.203354 -959.3603 43.203713 -959.3194 43.20443 L -948.233 43.39893 C -948.0649 43.40188 -947.8968 43.39877 -947.7289 43.389617 L -937.1077 42.810277 C -937.0231 42.80566 -936.9384 42.802584 -936.8537 42.801043 L -926.0891 42.605324 C -926.0169 42.60401 -925.9447 42.60158 -925.8726 42.59803 L -913.8539 42.00695 C -913.8052 42.004553 -913.7564 42.001645 -913.7078 41.99823 L -902.4677 41.209453 C -902.4098 41.205387 -902.3519 41.2006 -902.2941 41.195094 L -889.8835 40.013134 C -889.815 40.006614 -889.7465 40.001104 -889.6779 39.996604 L -877.7458 39.214176 C -877.6358 39.206962 -877.526 39.19715 -877.4164 39.18475 L -867.0041 38.005992 C -866.9886 38.004233 -866.973 38.002422 -866.9575 38.00056 L -857.0098 36.806834 C -856.9905 36.804514 -856.9711 36.802113 -856.9518 36.79963 L -843.1161 35.022093 C -843.0188 35.009603 -842.9219 34.995073 -842.8253 34.978513 L -836.2718 33.855058 C -836.0708 33.820607 -835.8685 33.794953 -835.6653 33.77817 L -832.4329 33.511195 C -831.5437 33.43775 -830.6767 33.194972 -829.8786 32.79594 L -828.3924 32.052794 C -827.7918 31.7525 -827.2375 31.367352 -826.7466 30.90919 L -825.4115 29.66308 C -824.8047 29.096715 -824.3493 28.387474 -824.0868 27.60001 L -823.792 26.715523 C -823.7219 26.5053 -823.6618 26.291866 -823.612 26.075945 L -823.1423 24.040556 C -823.1071 23.887924 -823.1405 23.727524 -823.2338 23.60168 L -823.2338 23.60168 C -823.3241 23.479802 -823.4748 23.418305 -823.6246 23.44214 L -832.1045 24.79121 C -832.1553 24.799305 -832.2061 24.807963 -832.2568 24.817182 L -845.2416 27.178048 C -845.3344 27.194917 -845.4275 27.20991 -845.5209 27.223016 L -856.7506 28.799112 C -856.7707 28.80194 -856.7909 28.804856 -856.811 28.80786 L -869.9336 30.766454 C -870.0983 30.791046 -870.2639 30.80975 -870.43 30.822525 L -883.1548 31.801357 C -883.1721 31.80269 -883.1895 31.803955 -883.2068 31.805158 L -897.5469 32.801 C -897.5695 32.80257 -897.5921 32.80403 -897.6147 32.805378 L -910.918 33.5996 C -910.9598 33.602103 -911.0018 33.604228 -911.0437 33.605975 L -925.2352 34.197285 C -925.3322 34.20133 -925.4294 34.203354 -925.5266 34.203354 L -938.7808 34.203354 L -951.3225 34.203354 C -951.3614 34.203354 -951.4002 34.203678 -951.4391 34.204326 L -963.1975 34.4003 C -963.3197 34.402335 -963.4419 34.401172 -963.564 34.39681 L -974.3976 34.009897 C -974.5197 34.005536 -974.6419 34.004372 -974.7641 34.00641 L -986.4787 34.201653 C -986.5468 34.202787 -986.6148 34.20293 -986.6829 34.202078 L -1002.3852 34.0058 C -1002.5156 34.00417 -1002.6459 33.998896 -1002.776 33.989984 L -1017.0858 33.009862 C -1017.1491 33.005524 -1017.2124 33.000323 -1017.2756 32.994262 L -1031.7666 31.604714 C -1031.7761 31.603807 -1031.7855 31.60288 -1031.795 31.601936 L -1045.607 30.220733 C -1045.7228 30.20915 -1045.8384 30.194676 -1045.9535 30.17733 L -1060.2627 28.021156 C -1060.3414 28.00929 -1060.4204 27.998766 -1060.4995 27.989594 L -1074.0194 26.422065 C -1074.127 26.409593 -1074.2343 26.394625 -1074.3411 26.377175 L -1083.7332 24.843773 C -1083.8982 24.816835 -1084.0622 24.783996 -1084.2248 24.745318 L -1093.3024 22.586538 C -1093.6908 22.49419 -1094.0804 22.734123 -1094.1728 23.122441 C -1094.1788 23.148023 -1094.1835 23.173917 -1094.1868 23.20001 Z" stroke="#7f8080" stroke-linecap="round" stroke-linejoin="round" stroke-width="1"/>
    </g>
  </g>
</svg>
