<?xml version="1.0" encoding="UTF-8" standalone="no"?>
<!DOCTYPE svg PUBLIC "-//W3C//DTD SVG 1.1//EN" "http://www.w3.org/Graphics/SVG/1.1/DTD/svg11.dtd">
<svg xmlns="http://www.w3.org/2000/svg" xmlns:xl="http://www.w3.org/1999/xlink" version="1.1" viewBox="-238.5 183.5 432.4053 448.4" width="432.4053pt" height="448.4pt" xmlns:dc="http://purl.org/dc/elements/1.1/">
  <metadata> Produced by OmniGraffle 7.6.1 
    <dc:date>2019-06-07 18:39:07 +0000</dc:date>
  </metadata>
  <defs>
    <radialGradient cx="0" cy="0" r="1" id="Gradient" gradientUnits="userSpaceOnUse">
      <stop offset="0" stop-color="white"/>
      <stop offset="1" stop-color="#171605"/>
    </radialGradient>
    <radialGradient id="Obj_Gradient" xl:href="#Gradient" gradientTransform="translate(-23.240751 211.4) scale(70.26272)"/>
    <linearGradient x1="0" x2="1" id="Gradient_2" gradientUnits="userSpaceOnUse">
      <stop offset="0" stop-color="red"/>
      <stop offset="1" stop-color="#68bc36"/>
    </linearGradient>
    <linearGradient id="Obj_Gradient_2" xl:href="#Gradient_2" gradientTransform="translate(-195.8 328.84615) rotate(90) scale(36.8)"/>
    <linearGradient id="Obj_Gradient_3" xl:href="#Gradient_2" gradientTransform="translate(151.20529 327.90275) rotate(90) scale(36.8)"/>
    <linearGradient id="Obj_Gradient_4" xl:href="#Gradient_2" gradientTransform="translate(-23.21303 184.2864) rotate(90) scale(67.19884)"/>
    <linearGradient id="Obj_Gradient_5" xl:href="#Gradient_2" gradientTransform="translate(-23.940751 184.7559) rotate(90) scale(25)"/>
    <linearGradient x1="0" x2="1" id="Gradient_3" gradientUnits="userSpaceOnUse">
      <stop offset="0" stop-color="#008a00"/>
      <stop offset="1" stop-color="#bc0d0d"/>
    </linearGradient>
    <linearGradient id="Obj_Gradient_6" xl:href="#Gradient_3" gradientTransform="translate(-22.670323 610.5668) rotate(90) scale(20.833242)"/>
  </defs>
  <g stroke="none" stroke-opacity="1" stroke-dasharray="none" fill="none" fill-opacity="1">
    <title>hungria</title>
    <g>
      <title>Capa 1</title>
      <path d="M -84.99435 184.59045 L -76.82889 187.70816 C -75.9709 188.03576 -75.09406 188.31167 -74.20308 188.53442 L -60.4859 191.96371 C -59.32424 192.25413 -58.14168 192.45338 -56.948995 192.55966 L -39.42285 194.1214 C -38.835 194.17378 -38.245357 194.20352 -37.655222 194.21054 L -22.176305 194.39481 C -21.885962 194.39827 -21.59558 194.39623 -21.305314 194.3887 L -6.882001 194.01406 C -6.521218 194.00469 -6.160705 193.98683 -5.8007625 193.9605 L 8.57053 192.90893 C 9.561967 192.83639 10.547657 192.69964 11.5214 192.49956 L 23.094364 190.12155 C 24.136366 189.90744 25.162258 189.6213 26.16465 189.26519 L 37.916645 185.09014 C 39.007016 184.70277 40.210215 185.23354 40.65925 186.3 L 40.65925 186.3 C 41.1814 187.5401 41.333383 188.90485 41.09685 190.22945 L 40.91637 191.24014 C 40.61259 192.9413 40.11806 194.6028 39.442145 196.19319 L 37.89892 199.8243 C 37.340353 201.13858 36.6606 202.39798 35.868464 203.58618 L 32.182683 209.11485 C 31.435173 210.23611 30.590567 211.28951 29.65861 212.2629 L 23.363544 218.83774 C 22.49547 219.7444 21.554634 220.57846 20.55046 221.3316 L 12.175555 227.61277 C 11.299138 228.27008 10.376877 228.86394 9.415817 229.3898 L 2.2306165 233.32133 C .919493 234.03874 -.4584354 234.62664 -1.8836246 235.0767 L -8.556534 237.18393 C -10.273407 237.7261 -12.048003 238.0648 -13.843873 238.19308 L -20.730325 238.68497 C -21.802623 238.76156 -22.878972 238.76288 -23.951455 238.68892 L -32.387713 238.1071 C -33.42189 238.03578 -34.45006 237.89463 -35.465194 237.6846 L -42.6004 236.20835 C -44.55235 235.8045 -46.443526 235.1486 -48.22638 234.25719 L -52.88579 231.92748 C -54.11993 231.3104 -55.296033 230.58354 -56.39988 229.75566 L -62.08184 225.4942 C -62.52097 225.16483 -62.94818 224.81987 -63.36263 224.45995 L -69.11781 219.46203 C -69.9321 218.75489 -70.69564 217.99135 -71.40278 217.17706 L -75.808005 212.10438 C -76.56211 211.23602 -77.25002 210.31232 -77.86594 209.34105 L -81.59964 203.4533 C -81.96021 202.8847 -82.29563 202.30056 -82.60495 201.70255 L -84.22532 198.56983 C -84.83447 197.39215 -85.34064 196.164 -85.73817 194.8991 L -87.01841 190.82562 C -87.23319 190.14225 -87.41592 189.4492 -87.56601 188.74878 L -87.64075 188.4 C -87.83542 187.49157 -87.72815 186.54443 -87.33527 185.70254 L -87.24075 185.5 C -86.84628 184.6547 -85.8658 184.2577 -84.99435 184.59045 Z" fill="url(#Obj_Gradient)"/>
      <path d="M -84.99435 184.59045 L -76.82889 187.70816 C -75.9709 188.03576 -75.09406 188.31167 -74.20308 188.53442 L -60.4859 191.96371 C -59.32424 192.25413 -58.14168 192.45338 -56.948995 192.55966 L -39.42285 194.1214 C -38.835 194.17378 -38.245357 194.20352 -37.655222 194.21054 L -22.176305 194.39481 C -21.885962 194.39827 -21.59558 194.39623 -21.305314 194.3887 L -6.882001 194.01406 C -6.521218 194.00469 -6.160705 193.98683 -5.8007625 193.9605 L 8.57053 192.90893 C 9.561967 192.83639 10.547657 192.69964 11.5214 192.49956 L 23.094364 190.12155 C 24.136366 189.90744 25.162258 189.6213 26.16465 189.26519 L 37.916645 185.09014 C 39.007016 184.70277 40.210215 185.23354 40.65925 186.3 L 40.65925 186.3 C 41.1814 187.5401 41.333383 188.90485 41.09685 190.22945 L 40.91637 191.24014 C 40.61259 192.9413 40.11806 194.6028 39.442145 196.19319 L 37.89892 199.8243 C 37.340353 201.13858 36.6606 202.39798 35.868464 203.58618 L 32.182683 209.11485 C 31.435173 210.23611 30.590567 211.28951 29.65861 212.2629 L 23.363544 218.83774 C 22.49547 219.7444 21.554634 220.57846 20.55046 221.3316 L 12.175555 227.61277 C 11.299138 228.27008 10.376877 228.86394 9.415817 229.3898 L 2.2306165 233.32133 C .919493 234.03874 -.4584354 234.62664 -1.8836246 235.0767 L -8.556534 237.18393 C -10.273407 237.7261 -12.048003 238.0648 -13.843873 238.19308 L -20.730325 238.68497 C -21.802623 238.76156 -22.878972 238.76288 -23.951455 238.68892 L -32.387713 238.1071 C -33.42189 238.03578 -34.45006 237.89463 -35.465194 237.6846 L -42.6004 236.20835 C -44.55235 235.8045 -46.443526 235.1486 -48.22638 234.25719 L -52.88579 231.92748 C -54.11993 231.3104 -55.296033 230.58354 -56.39988 229.75566 L -62.08184 225.4942 C -62.52097 225.16483 -62.94818 224.81987 -63.36263 224.45995 L -69.11781 219.46203 C -69.9321 218.75489 -70.69564 217.99135 -71.40278 217.17706 L -75.808005 212.10438 C -76.56211 211.23602 -77.25002 210.31232 -77.86594 209.34105 L -81.59964 203.4533 C -81.96021 202.8847 -82.29563 202.30056 -82.60495 201.70255 L -84.22532 198.56983 C -84.83447 197.39215 -85.34064 196.164 -85.73817 194.8991 L -87.01841 190.82562 C -87.23319 190.14225 -87.41592 189.4492 -87.56601 188.74878 L -87.64075 188.4 C -87.83542 187.49157 -87.72815 186.54443 -87.33527 185.70254 L -87.24075 185.5 C -86.84628 184.6547 -85.8658 184.2577 -84.99435 184.59045 Z" stroke="#7f8080" stroke-linecap="round" stroke-linejoin="round" stroke-width="1"/>
      <path d="M -149.02654 621.2638 L -135.2843 623.55416 C -135.10093 623.5847 -134.91703 623.6121 -134.7327 623.63624 L -106.37906 627.35154 C -106.13253 627.38385 -105.88528 627.4104 -105.63752 627.4312 L -75.39463 629.9677 C -75.13773 629.9892 -74.88034 630.0046 -74.62269 630.0137 L -35.69178 631.39 C -35.50342 631.3967 -35.314955 631.4 -35.126477 631.4 L -3.6591553 631.4 C -3.4925395 631.4 -3.325934 631.3974 -3.1593993 631.3922 L 21.875388 630.6099 C 22.085631 630.6033 22.295725 630.5926 22.505547 630.5777 L 44.5533 629.0168 C 44.711614 629.0056 44.86975 628.99205 45.027663 628.9761 L 70.28815 626.4305 C 70.48989 626.4102 70.69122 626.386 70.89204 626.358 L 94.68474 623.04265 C 94.88875 623.0142 95.09219 622.98186 95.29496 622.9456 L 104.49079 621.3 C 109.81789 620.3467 113.46876 615.3931 112.80234 610.02255 L 110.59475 592.232 C 110.59211 592.21066 110.5895 592.18934 110.58695 592.168 L 107.02312 562.4695 C 107.00157 562.28985 106.98306 562.10985 106.9676 561.9296 L 104.60539 534.3704 C 104.59565 534.2568 104.58713 534.1431 104.57983 534.02936 L 103.19321 512.4377 C 103.19159 512.4126 103.18992 512.38744 103.18818 512.3623 L 101.59603 489.276 C 101.59253 489.22533 101.58928 489.17466 101.58627 489.124 L 100.4099 469.3218 C 100.39716 469.1073 100.38874 468.89255 100.38465 468.6777 L 99.99236 448.08285 C 99.99131 448.0276 99.98997 447.9724 99.98835 447.9172 L 99.39322 427.68283 C 99.3916 427.6276 99.39026 427.5724 99.38921 427.51715 L 98.99855 407.0076 C 98.99337 406.7359 98.99512 406.46413 99.00379 406.19253 L 99.58973 387.8329 C 99.59044 387.81097 99.59118 387.78903 99.59197 387.7671 L 100.38005 365.8978 C 100.38721 365.6993 100.39806 365.50093 100.4126 365.30283 L 101.97007 344.0822 C 101.98388 343.8941 101.99436 343.70573 102.0015 343.51724 L 102.75596 323.61837 C 102.77915 323.00663 102.83744 322.3967 102.93052 321.79165 L 105.66953 303.98813 C 105.75031 303.46304 105.8572 302.9423 105.98979 302.42783 L 110.61806 284.47017 C 110.73316 284.0236 110.8675 283.5822 111.02073 283.14725 L 116.74152 266.9076 C 116.9076 266.43613 117.0957 265.9727 117.30517 265.51883 L 122.83673 253.5338 C 122.93942 253.3113 123.04721 253.0912 123.16001 252.87364 L 128.52223 242.53222 C 128.56793 242.44407 128.61446 242.35636 128.66179 242.26908 L 133.87777 232.65212 C 134.61505 231.29276 135.56468 230.05987 136.69079 229 L 136.69079 229 C 137.36598 228.36453 137.39817 227.30203 136.7627 226.62684 C 136.6382 226.49456 136.49307 226.38337 136.33295 226.2976 L 133.11881 224.57573 C 132.90016 224.4586 132.67881 224.34656 132.45494 224.2397 L 124.60097 220.49122 C 124.19436 220.29716 123.77974 220.12036 123.35821 219.9613 L 113.68338 216.3104 C 113.48833 216.2368 113.29187 216.16703 113.0941 216.1011 L 100.39963 211.86962 C 100.26041 211.8232 100.12055 211.77872 99.9801 211.73616 L 87.09658 207.83206 C 87.02605 207.81069 86.95567 207.78883 86.88544 207.76648 L 74.381445 203.78794 C 73.98782 203.6627 73.59919 203.52225 73.216435 203.36693 L 61.24049 198.50713 C 60.40883 198.16964 59.60704 197.76277 58.843604 197.29083 L 49.224355 191.3444 C 49.06865 191.24814 48.914614 191.14922 48.762306 191.04768 L 43.87221 187.78762 C 42.890814 187.13335 42.0195 186.32745 41.290784 185.4 L 41.290784 185.4 C 41.18518 185.2656 40.990616 185.24225 40.85621 185.34785 C 40.75347 185.42858 40.712493 185.56513 40.75381 185.68908 L 40.890784 186.1 C 41.350035 187.47775 41.454596 188.94904 41.194805 190.3779 L 40.799665 192.55115 C 40.528455 194.04281 40.04661 195.48835 39.36858 196.8444 L 37.836264 199.90904 C 37.539565 200.50244 37.206245 201.0768 36.838234 201.62883 L 33.63453 206.43438 C 33.20593 207.07728 32.73132 207.6883 32.21443 208.26261 L 27.652385 213.33156 C 27.611318 213.37719 27.56999 213.42258 27.5284 213.46773 L 21.534165 219.97576 C 20.90643 220.6573 20.22068 221.28302 19.484645 221.84587 L 14.46047 225.6879 C 14.014322 226.02906 13.55052 226.3465 13.070988 226.6389 L 6.584582 230.59403 C 5.922924 230.99748 5.232829 231.35232 4.519746 231.65576 L -2.5956647 234.6836 C -3.4033295 235.02728 -4.2379064 235.30393 -5.090947 235.51072 L -9.170006 236.4996 C -9.994839 236.69955 -10.834274 236.83356 -11.680366 236.90035 L -17.380575 237.35037 C -17.799507 237.38344 -18.21958 237.4 -18.639814 237.4 L -25.672132 237.4 C -26.429234 237.4 -27.18538 237.34626 -27.934873 237.2392 L -35.88132 236.10399 C -36.36633 236.0347 -36.8479 235.94317 -37.324508 235.8297 L -43.285736 234.41035 C -44.431223 234.13762 -45.5431 233.73927 -46.60117 233.22253 L -52.881176 230.15556 C -53.366226 229.91867 -53.83898 229.6574 -54.297617 229.37272 L -58.50948 226.75846 C -59.10865 226.38656 -59.682576 225.97546 -60.227505 225.52784 L -64.67361 221.87568 C -64.89731 221.69193 -65.115976 221.50214 -65.329374 221.30652 L -69.13172 217.82104 C -69.58301 217.40736 -70.01019 216.9681 -70.41115 216.50546 L -74.52989 211.75307 C -74.84928 211.38455 -75.15164 211.00162 -75.43605 210.60549 L -79.8657 204.4356 C -80.360595 203.7463 -80.79987 203.0187 -81.17936 202.25972 L -83.75582 197.1068 C -83.79142 197.0356 -83.82648 196.96414 -83.86101 196.89242 L -85.10922 194.3 C -85.95993 192.53313 -86.31545 190.5686 -86.13791 188.61564 L -85.95771 186.63339 C -85.9339 186.37152 -86.12688 186.13994 -86.38875 186.11614 C -86.55114 186.10138 -86.7098 186.17075 -86.80922 186.3 L -86.80922 186.3 C -87.47266 187.16248 -88.25277 187.92856 -89.12715 188.57625 L -93.02368 191.46257 C -93.14737 191.55418 -93.27237 191.64401 -93.39864 191.73202 L -98.02089 194.9536 C -99.20763 195.7807 -100.50105 196.44308 -101.8658 196.92258 L -106.47292 198.5413 C -106.9635 198.71367 -107.44537 198.90984 -107.91684 199.12913 L -114.76362 202.31368 C -115.45978 202.63747 -116.17835 202.91074 -116.91375 203.13136 L -127.78414 206.39248 C -127.80086 206.3975 -127.81757 206.40254 -127.83428 206.4076 L -138.80236 209.7372 C -138.94026 209.77907 -139.07759 209.8228 -139.2143 209.86836 L -152.13554 214.17544 C -152.18466 214.19181 -152.23386 214.20795 -152.28314 214.22384 L -163.65054 217.89075 C -164.28903 218.09671 -164.91393 218.34263 -165.52154 218.62704 L -173.4535 222.33988 C -173.82384 222.51323 -174.1874 222.70071 -174.54338 222.90192 L -180.4895 226.26276 C -181.74253 226.971 -182.18417 228.56093 -181.47594 229.81396 C -181.39882 229.9504 -181.30955 230.0796 -181.20922 230.2 L -180.3451 231.23693 C -179.59016 232.14287 -178.93769 233.1295 -178.39957 234.17882 L -175.32243 240.17924 C -175.24696 240.3264 -175.16921 240.4724 -175.08922 240.61715 L -171.13446 247.77337 C -171.05097 247.92445 -170.96993 248.07687 -170.89137 248.23057 L -166.78307 256.26856 C -166.534 256.75587 -166.3101 257.25563 -166.11224 257.7659 L -162.62947 266.74776 C -162.61597 266.7826 -162.60235 266.81737 -162.5886 266.8521 L -158.99228 275.93754 C -158.87027 276.24577 -158.75787 276.55772 -158.65524 276.87294 L -156.0334 284.9257 C -156.01728 284.97524 -156.0014 285.02484 -155.98576 285.07452 L -152.91371 294.8328 C -152.71092 295.47695 -152.54911 296.1333 -152.42927 296.7979 L -150.44395 307.80737 C -150.4208 307.9358 -150.39921 308.06448 -150.3792 308.19342 L -148.67334 319.1868 C -148.6306 319.46222 -148.59506 319.7387 -148.56677 320.016 L -147.67935 328.7127 C -147.63262 329.1707 -147.60567 329.63048 -147.59859 330.0908 L -147.41435 342.0664 C -147.41093 342.2888 -147.40287 342.51105 -147.39019 342.7331 L -146.61981 356.21465 C -146.61275 356.3382 -146.60425 356.4617 -146.59433 356.58506 L -145.26076 373.15943 C -145.22641 373.5863 -145.20922 374.0144 -145.20922 374.44264 L -145.20922 386.89242 C -145.20922 387.09746 -145.20528 387.30247 -145.1974 387.50735 L -144.61705 402.5965 C -144.61183 402.73216 -144.60834 402.8679 -144.60657 403.00365 L -144.41441 417.7999 C -144.41095 418.0666 -144.41416 418.33333 -144.42403 418.59986 L -144.99826 434.104 C -145.00556 434.3013 -145.00922 434.49875 -145.00922 434.6962 L -145.00922 448.2924 C -145.00922 448.49746 -145.01316 448.7025 -145.02104 448.90736 L -145.60623 464.12236 C -145.60822 464.1741 -145.61047 464.2259 -145.61296 464.2776 L -146.40828 480.78055 C -146.4089 480.7935 -146.40955 480.8065 -146.4102 480.81945 L -147.2047 496.5106 C -147.20771 496.5702 -147.21106 496.6298 -147.21474 496.68933 L -148.40366 515.91007 C -148.40736 515.97 -148.41141 516.02996 -148.4158 516.0899 L -150.19893 540.4594 C -150.20579 540.55314 -150.21347 540.6468 -150.22198 540.7404 L -152.00787 560.3852 C -152.00877 560.3951 -152.00968 560.40494 -152.0106 560.4148 L -153.78136 579.4997 C -153.79993 579.6999 -153.82227 579.8997 -153.84838 580.099 L -155.80909 595.07175 C -155.9419 596.08594 -156.21104 597.07756 -156.60922 598.0197 L -156.60922 598.0197 C -157.0068 598.9605 -157.25546 599.9574 -157.34629 600.97465 L -158.10922 609.5197 C -158.61698 615.20676 -154.65851 620.3251 -149.02654 621.2638 Z" fill="white"/>
      <path d="M -149.02654 621.2638 L -135.2843 623.55416 C -135.10093 623.5847 -134.91703 623.6121 -134.7327 623.63624 L -106.37906 627.35154 C -106.13253 627.38385 -105.88528 627.4104 -105.63752 627.4312 L -75.39463 629.9677 C -75.13773 629.9892 -74.88034 630.0046 -74.62269 630.0137 L -35.69178 631.39 C -35.50342 631.3967 -35.314955 631.4 -35.126477 631.4 L -3.6591553 631.4 C -3.4925395 631.4 -3.325934 631.3974 -3.1593993 631.3922 L 21.875388 630.6099 C 22.085631 630.6033 22.295725 630.5926 22.505547 630.5777 L 44.5533 629.0168 C 44.711614 629.0056 44.86975 628.99205 45.027663 628.9761 L 70.28815 626.4305 C 70.48989 626.4102 70.69122 626.386 70.89204 626.358 L 94.68474 623.04265 C 94.88875 623.0142 95.09219 622.98186 95.29496 622.9456 L 104.49079 621.3 C 109.81789 620.3467 113.46876 615.3931 112.80234 610.02255 L 110.59475 592.232 C 110.59211 592.21066 110.5895 592.18934 110.58695 592.168 L 107.02312 562.4695 C 107.00157 562.28985 106.98306 562.10985 106.9676 561.9296 L 104.60539 534.3704 C 104.59565 534.2568 104.58713 534.1431 104.57983 534.02936 L 103.19321 512.4377 C 103.19159 512.4126 103.18992 512.38744 103.18818 512.3623 L 101.59603 489.276 C 101.59253 489.22533 101.58928 489.17466 101.58627 489.124 L 100.4099 469.3218 C 100.39716 469.1073 100.38874 468.89255 100.38465 468.6777 L 99.99236 448.08285 C 99.99131 448.0276 99.98997 447.9724 99.98835 447.9172 L 99.39322 427.68283 C 99.3916 427.6276 99.39026 427.5724 99.38921 427.51715 L 98.99855 407.0076 C 98.99337 406.7359 98.99512 406.46413 99.00379 406.19253 L 99.58973 387.8329 C 99.59044 387.81097 99.59118 387.78903 99.59197 387.7671 L 100.38005 365.8978 C 100.38721 365.6993 100.39806 365.50093 100.4126 365.30283 L 101.97007 344.0822 C 101.98388 343.8941 101.99436 343.70573 102.0015 343.51724 L 102.75596 323.61837 C 102.77915 323.00663 102.83744 322.3967 102.93052 321.79165 L 105.66953 303.98813 C 105.75031 303.46304 105.8572 302.9423 105.98979 302.42783 L 110.61806 284.47017 C 110.73316 284.0236 110.8675 283.5822 111.02073 283.14725 L 116.74152 266.9076 C 116.9076 266.43613 117.0957 265.9727 117.30517 265.51883 L 122.83673 253.5338 C 122.93942 253.3113 123.04721 253.0912 123.16001 252.87364 L 128.52223 242.53222 C 128.56793 242.44407 128.61446 242.35636 128.66179 242.26908 L 133.87777 232.65212 C 134.61505 231.29276 135.56468 230.05987 136.69079 229 L 136.69079 229 C 137.36598 228.36453 137.39817 227.30203 136.7627 226.62684 C 136.6382 226.49456 136.49307 226.38337 136.33295 226.2976 L 133.11881 224.57573 C 132.90016 224.4586 132.67881 224.34656 132.45494 224.2397 L 124.60097 220.49122 C 124.19436 220.29716 123.77974 220.12036 123.35821 219.9613 L 113.68338 216.3104 C 113.48833 216.2368 113.29187 216.16703 113.0941 216.1011 L 100.39963 211.86962 C 100.26041 211.8232 100.12055 211.77872 99.9801 211.73616 L 87.09658 207.83206 C 87.02605 207.81069 86.95567 207.78883 86.88544 207.76648 L 74.381445 203.78794 C 73.98782 203.6627 73.59919 203.52225 73.216435 203.36693 L 61.24049 198.50713 C 60.40883 198.16964 59.60704 197.76277 58.843604 197.29083 L 49.224355 191.3444 C 49.06865 191.24814 48.914614 191.14922 48.762306 191.04768 L 43.87221 187.78762 C 42.890814 187.13335 42.0195 186.32745 41.290784 185.4 L 41.290784 185.4 C 41.18518 185.2656 40.990616 185.24225 40.85621 185.34785 C 40.75347 185.42858 40.712493 185.56513 40.75381 185.68908 L 40.890784 186.1 C 41.350035 187.47775 41.454596 188.94904 41.194805 190.3779 L 40.799665 192.55115 C 40.528455 194.04281 40.04661 195.48835 39.36858 196.8444 L 37.836264 199.90904 C 37.539565 200.50244 37.206245 201.0768 36.838234 201.62883 L 33.63453 206.43438 C 33.20593 207.07728 32.73132 207.6883 32.21443 208.26261 L 27.652385 213.33156 C 27.611318 213.37719 27.56999 213.42258 27.5284 213.46773 L 21.534165 219.97576 C 20.90643 220.6573 20.22068 221.28302 19.484645 221.84587 L 14.46047 225.6879 C 14.014322 226.02906 13.55052 226.3465 13.070988 226.6389 L 6.584582 230.59403 C 5.922924 230.99748 5.232829 231.35232 4.519746 231.65576 L -2.5956647 234.6836 C -3.4033295 235.02728 -4.2379064 235.30393 -5.090947 235.51072 L -9.170006 236.4996 C -9.994839 236.69955 -10.834274 236.83356 -11.680366 236.90035 L -17.380575 237.35037 C -17.799507 237.38344 -18.21958 237.4 -18.639814 237.4 L -25.672132 237.4 C -26.429234 237.4 -27.18538 237.34626 -27.934873 237.2392 L -35.88132 236.10399 C -36.36633 236.0347 -36.8479 235.94317 -37.324508 235.8297 L -43.285736 234.41035 C -44.431223 234.13762 -45.5431 233.73927 -46.60117 233.22253 L -52.881176 230.15556 C -53.366226 229.91867 -53.83898 229.6574 -54.297617 229.37272 L -58.50948 226.75846 C -59.10865 226.38656 -59.682576 225.97546 -60.227505 225.52784 L -64.67361 221.87568 C -64.89731 221.69193 -65.115976 221.50214 -65.329374 221.30652 L -69.13172 217.82104 C -69.58301 217.40736 -70.01019 216.9681 -70.41115 216.50546 L -74.52989 211.75307 C -74.84928 211.38455 -75.15164 211.00162 -75.43605 210.60549 L -79.8657 204.4356 C -80.360595 203.7463 -80.79987 203.0187 -81.17936 202.25972 L -83.75582 197.1068 C -83.79142 197.0356 -83.82648 196.96414 -83.86101 196.89242 L -85.10922 194.3 C -85.95993 192.53313 -86.31545 190.5686 -86.13791 188.61564 L -85.95771 186.63339 C -85.9339 186.37152 -86.12688 186.13994 -86.38875 186.11614 C -86.55114 186.10138 -86.7098 186.17075 -86.80922 186.3 L -86.80922 186.3 C -87.47266 187.16248 -88.25277 187.92856 -89.12715 188.57625 L -93.02368 191.46257 C -93.14737 191.55418 -93.27237 191.64401 -93.39864 191.73202 L -98.02089 194.9536 C -99.20763 195.7807 -100.50105 196.44308 -101.8658 196.92258 L -106.47292 198.5413 C -106.9635 198.71367 -107.44537 198.90984 -107.91684 199.12913 L -114.76362 202.31368 C -115.45978 202.63747 -116.17835 202.91074 -116.91375 203.13136 L -127.78414 206.39248 C -127.80086 206.3975 -127.81757 206.40254 -127.83428 206.4076 L -138.80236 209.7372 C -138.94026 209.77907 -139.07759 209.8228 -139.2143 209.86836 L -152.13554 214.17544 C -152.18466 214.19181 -152.23386 214.20795 -152.28314 214.22384 L -163.65054 217.89075 C -164.28903 218.09671 -164.91393 218.34263 -165.52154 218.62704 L -173.4535 222.33988 C -173.82384 222.51323 -174.1874 222.70071 -174.54338 222.90192 L -180.4895 226.26276 C -181.74253 226.971 -182.18417 228.56093 -181.47594 229.81396 C -181.39882 229.9504 -181.30955 230.0796 -181.20922 230.2 L -180.3451 231.23693 C -179.59016 232.14287 -178.93769 233.1295 -178.39957 234.17882 L -175.32243 240.17924 C -175.24696 240.3264 -175.16921 240.4724 -175.08922 240.61715 L -171.13446 247.77337 C -171.05097 247.92445 -170.96993 248.07687 -170.89137 248.23057 L -166.78307 256.26856 C -166.534 256.75587 -166.3101 257.25563 -166.11224 257.7659 L -162.62947 266.74776 C -162.61597 266.7826 -162.60235 266.81737 -162.5886 266.8521 L -158.99228 275.93754 C -158.87027 276.24577 -158.75787 276.55772 -158.65524 276.87294 L -156.0334 284.9257 C -156.01728 284.97524 -156.0014 285.02484 -155.98576 285.07452 L -152.91371 294.8328 C -152.71092 295.47695 -152.54911 296.1333 -152.42927 296.7979 L -150.44395 307.80737 C -150.4208 307.9358 -150.39921 308.06448 -150.3792 308.19342 L -148.67334 319.1868 C -148.6306 319.46222 -148.59506 319.7387 -148.56677 320.016 L -147.67935 328.7127 C -147.63262 329.1707 -147.60567 329.63048 -147.59859 330.0908 L -147.41435 342.0664 C -147.41093 342.2888 -147.40287 342.51105 -147.39019 342.7331 L -146.61981 356.21465 C -146.61275 356.3382 -146.60425 356.4617 -146.59433 356.58506 L -145.26076 373.15943 C -145.22641 373.5863 -145.20922 374.0144 -145.20922 374.44264 L -145.20922 386.89242 C -145.20922 387.09746 -145.20528 387.30247 -145.1974 387.50735 L -144.61705 402.5965 C -144.61183 402.73216 -144.60834 402.8679 -144.60657 403.00365 L -144.41441 417.7999 C -144.41095 418.0666 -144.41416 418.33333 -144.42403 418.59986 L -144.99826 434.104 C -145.00556 434.3013 -145.00922 434.49875 -145.00922 434.6962 L -145.00922 448.2924 C -145.00922 448.49746 -145.01316 448.7025 -145.02104 448.90736 L -145.60623 464.12236 C -145.60822 464.1741 -145.61047 464.2259 -145.61296 464.2776 L -146.40828 480.78055 C -146.4089 480.7935 -146.40955 480.8065 -146.4102 480.81945 L -147.2047 496.5106 C -147.20771 496.5702 -147.21106 496.6298 -147.21474 496.68933 L -148.40366 515.91007 C -148.40736 515.97 -148.41141 516.02996 -148.4158 516.0899 L -150.19893 540.4594 C -150.20579 540.55314 -150.21347 540.6468 -150.22198 540.7404 L -152.00787 560.3852 C -152.00877 560.3951 -152.00968 560.40494 -152.0106 560.4148 L -153.78136 579.4997 C -153.79993 579.6999 -153.82227 579.8997 -153.84838 580.099 L -155.80909 595.07175 C -155.9419 596.08594 -156.21104 597.07756 -156.60922 598.0197 L -156.60922 598.0197 C -157.0068 598.9605 -157.25546 599.9574 -157.34629 600.97465 L -158.10922 609.5197 C -158.61698 615.20676 -154.65851 620.3251 -149.02654 621.2638 Z" stroke="black" stroke-linecap="round" stroke-linejoin="round" stroke-width="1"/>
      <path d="M -238 335.44615 L -231.8 339.84615 L -223.6 343.84615 L -215 347.44615 L -206 351.24615 L -195 355.24615 L -185.6 358.04615 L -176.6 360.64615 L -167.6 363.24615 L -162.2 364.64615 L -156.6 365.64615 L -154.2 359.84615 L -151.6 354.44615 L -149.4 350.44615 L -146.8 347.04615 L -146.6 338.04615 L -147.2 327.04615 L -149 316.24615 L -150.6 305.84615 L -153.2 294.84614 L -155.6 285.24614 L -158.4 277.24614 L -161.6 267.84614 L -164.4 260.44614 L -168 252.84614 L -172 245.24614 L -176 237.84614 L -178.6 234.24614 L -182.2 228.44614 L -187.6 232.84614 L -192.4 237.64614 L -197 243.84614 L -201.4 250.04614 L -206.2 258.64614 L -211 268.04614 L -215.8 277.24614 L -219.4 285.84614 L -223.4 294.84614 L -226.6 303.04615 L -230.4 312.44615 L -233.2 320.44615 L -236.2 328.84615 Z" fill="white"/>
      <path d="M -238 335.44615 L -231.8 339.84615 L -223.6 343.84615 L -215 347.44615 L -206 351.24615 L -195 355.24615 L -185.6 358.04615 L -176.6 360.64615 L -167.6 363.24615 L -162.2 364.64615 L -156.6 365.64615 L -154.2 359.84615 L -151.6 354.44615 L -149.4 350.44615 L -146.8 347.04615 L -146.6 338.04615 L -147.2 327.04615 L -149 316.24615 L -150.6 305.84615 L -153.2 294.84614 L -155.6 285.24614 L -158.4 277.24614 L -161.6 267.84614 L -164.4 260.44614 L -168 252.84614 L -172 245.24614 L -176 237.84614 L -178.6 234.24614 L -182.2 228.44614 L -187.6 232.84614 L -192.4 237.64614 L -197 243.84614 L -201.4 250.04614 L -206.2 258.64614 L -211 268.04614 L -215.8 277.24614 L -219.4 285.84614 L -223.4 294.84614 L -226.6 303.04615 L -230.4 312.44615 L -233.2 320.44615 L -236.2 328.84615 Z" stroke="black" stroke-linecap="round" stroke-linejoin="round" stroke-width="1"/>
      <path d="M 193.4053 334.50275 L 187.2053 338.90275 L 179.00529 342.90275 L 170.40529 346.50275 L 161.40529 350.30275 L 150.40529 354.30275 L 141.00529 357.10275 L 132.00529 359.70275 L 123.00529 362.30275 L 117.60529 363.70275 L 112.00529 364.70275 L 109.60529 358.90275 L 107.00529 353.50275 L 104.80529 349.50275 L 102.20529 346.10275 L 102.00529 337.10275 L 102.60529 326.10275 L 104.40529 315.30275 L 106.00529 304.90275 L 108.60529 293.90275 L 111.00529 284.30275 L 113.80529 276.30275 L 117.00529 266.90275 L 119.80529 259.50275 L 123.40529 251.90275 L 127.40529 244.30275 L 131.40529 236.90275 L 134.00529 233.30275 L 137.60529 227.50275 L 143.00529 231.90275 L 147.80529 236.70275 L 152.40529 242.90275 L 156.80529 249.10275 L 161.60529 257.70275 L 166.40529 267.10275 L 171.20529 276.30275 L 174.80529 284.90275 L 178.80529 293.90275 L 182.0053 302.10275 L 185.8053 311.50275 L 188.6053 319.50275 L 191.6053 327.90275 Z" fill="white"/>
      <path d="M 193.4053 334.50275 L 187.2053 338.90275 L 179.00529 342.90275 L 170.40529 346.50275 L 161.40529 350.30275 L 150.40529 354.30275 L 141.00529 357.10275 L 132.00529 359.70275 L 123.00529 362.30275 L 117.60529 363.70275 L 112.00529 364.70275 L 109.60529 358.90275 L 107.00529 353.50275 L 104.80529 349.50275 L 102.20529 346.10275 L 102.00529 337.10275 L 102.60529 326.10275 L 104.40529 315.30275 L 106.00529 304.90275 L 108.60529 293.90275 L 111.00529 284.30275 L 113.80529 276.30275 L 117.00529 266.90275 L 119.80529 259.50275 L 123.40529 251.90275 L 127.40529 244.30275 L 131.40529 236.90275 L 134.00529 233.30275 L 137.60529 227.50275 L 143.00529 231.90275 L 147.80529 236.70275 L 152.40529 242.90275 L 156.80529 249.10275 L 161.60529 257.70275 L 166.40529 267.10275 L 171.20529 276.30275 L 174.80529 284.90275 L 178.80529 293.90275 L 182.0053 302.10275 L 185.8053 311.50275 L 188.6053 319.50275 L 191.6053 327.90275 Z" stroke="black" stroke-linecap="round" stroke-linejoin="round" stroke-width="1"/>
      <path d="M -238 335.44615 L -231.8 339.84615 L -223.6 343.84615 L -215 347.44615 L -206 351.24615 L -195 355.24615 L -185.6 358.04615 L -176.6 360.64615 L -167.6 363.24615 L -162.2 364.64615 L -156.6 365.64615 L -153.6 359.24615 L -157.4 358.44615 L -162.2 357.24615 L -167.8 356.04615 L -173.8 354.24615 L -178.4 352.84615 L -182.6 351.64615 L -187.2 349.64615 L -191.8 348.04615 L -196.6 346.04615 L -200.6 344.64615 L -205.8 342.44615 L -210.4 340.84615 L -215.2 338.64615 L -220 336.84615 L -224 334.84615 L -228.4 332.64615 L -232.8 330.44615 L -236.2 328.84615 Z" fill="url(#Obj_Gradient_2)"/>
      <path d="M -238 335.44615 L -231.8 339.84615 L -223.6 343.84615 L -215 347.44615 L -206 351.24615 L -195 355.24615 L -185.6 358.04615 L -176.6 360.64615 L -167.6 363.24615 L -162.2 364.64615 L -156.6 365.64615 L -153.6 359.24615 L -157.4 358.44615 L -162.2 357.24615 L -167.8 356.04615 L -173.8 354.24615 L -178.4 352.84615 L -182.6 351.64615 L -187.2 349.64615 L -191.8 348.04615 L -196.6 346.04615 L -200.6 344.64615 L -205.8 342.44615 L -210.4 340.84615 L -215.2 338.64615 L -220 336.84615 L -224 334.84615 L -228.4 332.64615 L -232.8 330.44615 L -236.2 328.84615 Z" stroke="#666" stroke-linecap="round" stroke-linejoin="round" stroke-width="1"/>
      <path d="M 193.4053 334.50275 L 187.2053 338.90275 L 179.00529 342.90275 L 170.40529 346.50275 L 161.40529 350.30275 L 150.40529 354.30275 L 141.00529 357.10275 L 132.00529 359.70275 L 123.00529 362.30275 L 117.60529 363.70275 L 112.00529 364.70275 L 109.00529 358.30275 L 112.80529 357.50275 L 117.60529 356.30275 L 123.20529 355.10275 L 129.20529 353.30275 L 133.80529 351.90275 L 138.00529 350.70275 L 142.60529 348.70275 L 147.20529 347.10275 L 152.00529 345.10275 L 156.00529 343.70275 L 161.20529 341.50275 L 165.80529 339.90275 L 170.60529 337.70275 L 175.40529 335.90275 L 179.4053 333.90275 L 183.8053 331.70275 L 188.2053 329.50275 L 191.6053 327.90275 Z" fill="url(#Obj_Gradient_3)"/>
      <path d="M 193.4053 334.50275 L 187.2053 338.90275 L 179.00529 342.90275 L 170.40529 346.50275 L 161.40529 350.30275 L 150.40529 354.30275 L 141.00529 357.10275 L 132.00529 359.70275 L 123.00529 362.30275 L 117.60529 363.70275 L 112.00529 364.70275 L 109.00529 358.30275 L 112.80529 357.50275 L 117.60529 356.30275 L 123.20529 355.10275 L 129.20529 353.30275 L 133.80529 351.90275 L 138.00529 350.70275 L 142.60529 348.70275 L 147.20529 347.10275 L 152.00529 345.10275 L 156.00529 343.70275 L 161.20529 341.50275 L 165.80529 339.90275 L 170.60529 337.70275 L 175.40529 335.90275 L 179.4053 333.90275 L 183.8053 331.70275 L 188.2053 329.50275 L 191.6053 327.90275 Z" stroke="#666" stroke-linecap="round" stroke-linejoin="round" stroke-width="1"/>
      <path d="M -87.42788 185.4943 L -92.15705 189.54788 C -93.3074 190.5339 -94.55236 191.40382 -95.87379 192.145 L -98.40042 193.56217 C -99.83559 194.36714 -100.4164 196.13627 -99.73761 197.63525 L -98.72 199.88248 C -98.59842 200.15097 -98.47169 200.4171 -98.33988 200.6807 L -96.53761 204.28525 L -94.05062 209.25922 C -93.70883 209.94282 -93.33317 210.60895 -92.92505 211.25514 L -90.59866 214.9386 C -90.15828 215.63586 -89.68072 216.30894 -89.16805 216.9549 L -85.75736 221.25236 C -85.21131 221.9404 -84.62629 222.59657 -84.00518 223.21768 L -79.339135 227.88373 C -78.93825 228.2846 -78.52269 228.67053 -78.09329 229.0407 L -73.529765 232.97477 C -73.13511 233.315 -72.729 233.6417 -72.31215 233.95434 L -68.33721 236.93555 C -67.6713 237.43498 -66.97877 237.8979 -66.26267 238.32225 L -62.129606 240.77148 C -62.00161 240.84733 -61.87288 240.92193 -61.74344 240.99528 L -57.04589 243.65722 C -56.3076 244.0756 -55.546724 244.45277 -54.76675 244.78705 L -51.21693 246.3084 C -50.63097 246.55953 -50.03482 246.78618 -49.430026 246.98778 L -44.41192 248.66048 C -43.164675 249.07623 -41.88408 249.38427 -40.584205 249.58122 L -36.485358 250.20226 C -36.120244 250.25758 -35.75385 250.3041 -35.3865 250.34178 L -28.505395 251.04753 C -28.26022 251.07268 -28.014656 251.09388 -27.7688 251.11113 L -23.241654 251.42883 C -22.70579 251.46643 -22.168776 251.48525 -21.631595 251.48525 L -18.36954 251.48525 C -17.415842 251.48525 -16.463067 251.42594 -15.516732 251.30764 L -11.528017 250.80905 C -10.868055 250.72656 -10.211981 250.61548 -9.561647 250.47612 L -3.479614 249.17283 C -2.585738 248.98128 -1.704077 248.7366 -.8393234 248.44013 L 3.669525 246.89424 C 4.4641733 246.62178 5.243298 246.306 6.003397 245.9483 L 10.836774 243.67378 C 11.38697 243.41486 11.926682 243.13423 12.454637 242.83254 L 16.222504 240.67947 C 16.915294 240.2836 17.587013 239.85193 18.234938 239.38624 L 22.911064 236.02527 C 23.411747 235.6654 23.897757 235.28555 24.367916 234.88663 L 29.688772 230.37196 C 30.071084 230.04758 30.442686 229.71078 30.802983 229.3621 L 35.5022 224.81447 C 36.14179 224.19551 36.74491 223.53995 37.308524 222.8511 L 41.101807 218.21486 C 41.60852 217.59554 42.082566 216.9502 42.522015 216.28148 L 46.13919 210.77708 C 46.354624 210.44925 46.561634 210.11596 46.76002 209.77754 L 49.28311 205.47344 C 49.66906 204.81506 50.022 204.13787 50.340624 203.4444 L 52.459316 198.83313 C 52.99218 197.67337 53.363335 196.44595 53.562393 195.18525 L 53.562393 195.18525 C 53.7407 194.056 53.161396 192.94254 52.134316 192.44041 L 46.84088 189.85251 C 45.52642 189.20989 44.29183 188.41538 43.162393 187.48525 L 42.756384 187.1509 C 41.912053 186.45556 41.288644 185.52925 40.962393 184.48525 L 40.962393 184.48525 C 40.91573 184.33594 40.75686 184.25272 40.607544 184.29938 C 40.49247 184.33534 40.412766 184.4402 40.40892 184.5607 L 40.299677 187.98363 C 40.20894 190.8267 39.5916 193.62828 38.478993 196.24618 L 37.60206 198.30956 C 37.043493 199.62383 36.36374 200.88323 35.571604 202.07143 L 31.885823 207.6001 C 31.138313 208.72136 30.293706 209.77476 29.36175 210.74814 L 23.066684 217.323 C 22.19861 218.22964 21.257774 219.0637 20.2536 219.81684 L 11.878695 226.09802 C 11.002277 226.75533 10.080017 227.3492 9.118957 227.87505 L 1.9337563 231.80658 C .6226328 232.52399 -.7552956 233.1119 -2.1804847 233.56195 L -8.853394 235.66918 C -10.570267 236.21135 -12.344864 236.55006 -14.140733 236.67833 L -21.027185 237.17022 C -22.099483 237.2468 -23.175832 237.24813 -24.248315 237.17417 L -32.684573 236.59236 C -33.71875 236.52103 -34.74692 236.37988 -35.762054 236.16985 L -42.89726 234.6936 C -44.84921 234.28975 -46.740386 233.63386 -48.52324 232.74244 L -53.18265 230.41273 C -54.41679 229.79566 -55.592894 229.0688 -56.69674 228.2409 L -62.3787 223.97944 C -62.81783 223.65009 -63.24504 223.30512 -63.65949 222.9452 L -69.41467 217.94728 C -70.22896 217.24014 -70.9925 216.4766 -71.69964 215.6623 L -76.104865 210.58963 C -76.85897 209.72127 -77.54688 208.79757 -78.1628 207.8263 L -81.8965 201.93854 C -82.25707 201.36995 -82.59249 200.7858 -82.90181 200.1878 L -84.52219 197.05508 C -85.13133 195.8774 -85.6375 194.64925 -86.03503 193.38436 L -87.31527 189.31087 C -87.53005 188.6275 -87.71278 187.93446 -87.86287 187.23403 L -88.08829 186.18208 C -88.17336 185.78507 -87.94701 185.38742 -87.5622 185.25788 L -87.5622 185.25788 C -87.48971 185.23348 -87.41116 185.27246 -87.38675 185.34496 C -87.36874 185.39847 -87.38501 185.45756 -87.42788 185.4943 Z" fill="url(#Obj_Gradient_4)"/>
      <path d="M -87.42788 185.4943 L -92.15705 189.54788 C -93.3074 190.5339 -94.55236 191.40382 -95.87379 192.145 L -98.40042 193.56217 C -99.83559 194.36714 -100.4164 196.13627 -99.73761 197.63525 L -98.72 199.88248 C -98.59842 200.15097 -98.47169 200.4171 -98.33988 200.6807 L -96.53761 204.28525 L -94.05062 209.25922 C -93.70883 209.94282 -93.33317 210.60895 -92.92505 211.25514 L -90.59866 214.9386 C -90.15828 215.63586 -89.68072 216.30894 -89.16805 216.9549 L -85.75736 221.25236 C -85.21131 221.9404 -84.62629 222.59657 -84.00518 223.21768 L -79.339135 227.88373 C -78.93825 228.2846 -78.52269 228.67053 -78.09329 229.0407 L -73.529765 232.97477 C -73.13511 233.315 -72.729 233.6417 -72.31215 233.95434 L -68.33721 236.93555 C -67.6713 237.43498 -66.97877 237.8979 -66.26267 238.32225 L -62.129606 240.77148 C -62.00161 240.84733 -61.87288 240.92193 -61.74344 240.99528 L -57.04589 243.65722 C -56.3076 244.0756 -55.546724 244.45277 -54.76675 244.78705 L -51.21693 246.3084 C -50.63097 246.55953 -50.03482 246.78618 -49.430026 246.98778 L -44.41192 248.66048 C -43.164675 249.07623 -41.88408 249.38427 -40.584205 249.58122 L -36.485358 250.20226 C -36.120244 250.25758 -35.75385 250.3041 -35.3865 250.34178 L -28.505395 251.04753 C -28.26022 251.07268 -28.014656 251.09388 -27.7688 251.11113 L -23.241654 251.42883 C -22.70579 251.46643 -22.168776 251.48525 -21.631595 251.48525 L -18.36954 251.48525 C -17.415842 251.48525 -16.463067 251.42594 -15.516732 251.30764 L -11.528017 250.80905 C -10.868055 250.72656 -10.211981 250.61548 -9.561647 250.47612 L -3.479614 249.17283 C -2.585738 248.98128 -1.704077 248.7366 -.8393234 248.44013 L 3.669525 246.89424 C 4.4641733 246.62178 5.243298 246.306 6.003397 245.9483 L 10.836774 243.67378 C 11.38697 243.41486 11.926682 243.13423 12.454637 242.83254 L 16.222504 240.67947 C 16.915294 240.2836 17.587013 239.85193 18.234938 239.38624 L 22.911064 236.02527 C 23.411747 235.6654 23.897757 235.28555 24.367916 234.88663 L 29.688772 230.37196 C 30.071084 230.04758 30.442686 229.71078 30.802983 229.3621 L 35.5022 224.81447 C 36.14179 224.19551 36.74491 223.53995 37.308524 222.8511 L 41.101807 218.21486 C 41.60852 217.59554 42.082566 216.9502 42.522015 216.28148 L 46.13919 210.77708 C 46.354624 210.44925 46.561634 210.11596 46.76002 209.77754 L 49.28311 205.47344 C 49.66906 204.81506 50.022 204.13787 50.340624 203.4444 L 52.459316 198.83313 C 52.99218 197.67337 53.363335 196.44595 53.562393 195.18525 L 53.562393 195.18525 C 53.7407 194.056 53.161396 192.94254 52.134316 192.44041 L 46.84088 189.85251 C 45.52642 189.20989 44.29183 188.41538 43.162393 187.48525 L 42.756384 187.1509 C 41.912053 186.45556 41.288644 185.52925 40.962393 184.48525 L 40.962393 184.48525 C 40.91573 184.33594 40.75686 184.25272 40.607544 184.29938 C 40.49247 184.33534 40.412766 184.4402 40.40892 184.5607 L 40.299677 187.98363 C 40.20894 190.8267 39.5916 193.62828 38.478993 196.24618 L 37.60206 198.30956 C 37.043493 199.62383 36.36374 200.88323 35.571604 202.07143 L 31.885823 207.6001 C 31.138313 208.72136 30.293706 209.77476 29.36175 210.74814 L 23.066684 217.323 C 22.19861 218.22964 21.257774 219.0637 20.2536 219.81684 L 11.878695 226.09802 C 11.002277 226.75533 10.080017 227.3492 9.118957 227.87505 L 1.9337563 231.80658 C .6226328 232.52399 -.7552956 233.1119 -2.1804847 233.56195 L -8.853394 235.66918 C -10.570267 236.21135 -12.344864 236.55006 -14.140733 236.67833 L -21.027185 237.17022 C -22.099483 237.2468 -23.175832 237.24813 -24.248315 237.17417 L -32.684573 236.59236 C -33.71875 236.52103 -34.74692 236.37988 -35.762054 236.16985 L -42.89726 234.6936 C -44.84921 234.28975 -46.740386 233.63386 -48.52324 232.74244 L -53.18265 230.41273 C -54.41679 229.79566 -55.592894 229.0688 -56.69674 228.2409 L -62.3787 223.97944 C -62.81783 223.65009 -63.24504 223.30512 -63.65949 222.9452 L -69.41467 217.94728 C -70.22896 217.24014 -70.9925 216.4766 -71.69964 215.6623 L -76.104865 210.58963 C -76.85897 209.72127 -77.54688 208.79757 -78.1628 207.8263 L -81.8965 201.93854 C -82.25707 201.36995 -82.59249 200.7858 -82.90181 200.1878 L -84.52219 197.05508 C -85.13133 195.8774 -85.6375 194.64925 -86.03503 193.38436 L -87.31527 189.31087 C -87.53005 188.6275 -87.71278 187.93446 -87.86287 187.23403 L -88.08829 186.18208 C -88.17336 185.78507 -87.94701 185.38742 -87.5622 185.25788 L -87.5622 185.25788 C -87.48971 185.23348 -87.41116 185.27246 -87.38675 185.34496 C -87.36874 185.39847 -87.38501 185.45756 -87.42788 185.4943 Z" stroke="#666" stroke-linecap="round" stroke-linejoin="round" stroke-width="1"/>
      <path d="M -87.94075 185.7559 L -82.54075 185.1559 L -75.74075 188.5559 L -70.74075 190.3559 L -62.34075 192.1559 L -53.94075 193.1559 L -45.94075 194.1559 L -38.34075 194.3559 L -29.74075 194.7559 L -18.140751 194.5559 L -9.740751 194.1559 L -.34075113 193.5559 L 8.059249 192.7559 L 17.25925 191.3559 L 25.45925 189.1559 L 31.25925 187.3559 L 36.85925 184.7559 L 39.65925 185.9559 L 40.05925 191.5559 L 37.25925 199.5559 L 31.85925 202.3559 L 21.25925 205.5559 L 9.859249 207.9559 L -1.3407511 208.7559 L -13.740751 209.7559 L -24.140751 209.7559 L -33.54075 209.7559 L -45.14075 209.1559 L -56.34075 208.3559 L -66.94075 206.1559 L -75.54075 204.1559 L -81.74075 201.3559 L -83.74075 199.7559 L -86.94075 192.1559 Z" fill="url(#Obj_Gradient_5)"/>
      <path d="M -87.94075 185.7559 L -82.54075 185.1559 L -75.74075 188.5559 L -70.74075 190.3559 L -62.34075 192.1559 L -53.94075 193.1559 L -45.94075 194.1559 L -38.34075 194.3559 L -29.74075 194.7559 L -18.140751 194.5559 L -9.740751 194.1559 L -.34075113 193.5559 L 8.059249 192.7559 L 17.25925 191.3559 L 25.45925 189.1559 L 31.25925 187.3559 L 36.85925 184.7559 L 39.65925 185.9559 L 40.05925 191.5559 L 37.25925 199.5559 L 31.85925 202.3559 L 21.25925 205.5559 L 9.859249 207.9559 L -1.3407511 208.7559 L -13.740751 209.7559 L -24.140751 209.7559 L -33.54075 209.7559 L -45.14075 209.1559 L -56.34075 208.3559 L -66.94075 206.1559 L -75.54075 204.1559 L -81.74075 201.3559 L -83.74075 199.7559 L -86.94075 192.1559 Z" stroke="#666" stroke-linecap="round" stroke-linejoin="round" stroke-width="1"/>
      <path d="M -158.18679 611.2 L -158.18679 611.2 C -158.25247 611.7255 -158.18964 612.25905 -158.0037 612.7549 L -157.3527 614.4909 C -157.17594 614.9623 -156.94885 615.4132 -156.67538 615.8358 L -155.70757 617.3315 C -155.1666 618.16756 -154.4535 618.87855 -153.61588 619.417 L -152.53783 620.11005 C -152.23757 620.3031 -151.923 620.47285 -151.59684 620.6179 L -150.27999 621.2035 C -149.68346 621.46876 -149.05275 621.6493 -148.4062 621.7398 L -139.39579 623.00126 C -139.3858 623.00265 -139.3758 623.004 -139.3658 623.0054 L -127.6498 624.594 C -127.6038 624.6002 -127.55774 624.606 -127.51162 624.6113 L -117.22869 625.7978 C -117.19676 625.8015 -117.16481 625.805 -117.13284 625.8082 L -103.42277 627.1991 C -103.39479 627.2019 -103.36679 627.2046 -103.33877 627.2071 L -92.23347 628.19865 C -92.19836 628.2018 -92.16321 628.20466 -92.12805 628.20726 L -81.44152 628.99886 C -81.40104 629.00185 -81.36053 629.0045 -81.32001 629.0068 L -70.81202 629.6016 C -70.791205 629.6028 -70.77039 629.604 -70.74958 629.6054 L -58.70681 630.3951 C -58.622806 630.4006 -58.53871 630.4046 -58.45457 630.4071 L -45.00744 630.8026 C -44.98968 630.8031 -44.971915 630.8037 -44.954154 630.80434 L -34.31029 631.19856 C -34.223968 631.20176 -34.137592 631.20335 -34.05121 631.20335 L -23.442193 631.20335 C -23.401262 631.20335 -23.36033 631.2037 -23.319405 631.2044 L -12.232982 631.3989 C -12.064912 631.4019 -11.89679 631.3988 -11.728943 631.3896 L -1.1077104 630.8103 C -1.0231067 630.80566 -.9384262 630.8026 -.8537107 630.80104 L 9.910852 630.6053 C 9.983083 630.604 10.05529 630.6016 10.127447 630.598 L 22.146072 630.00695 C 22.194827 630.00455 22.243555 630.00165 22.292248 629.9982 L 33.532296 629.20945 C 33.590234 629.2054 33.64812 629.2006 33.705937 629.1951 L 46.11651 628.0131 C 46.18497 628.0066 46.25352 628.0011 46.322144 627.9966 L 58.254164 627.2142 C 58.36418 627.20696 58.474004 627.19715 58.583554 627.18475 L 68.9959 626.006 C 69.01144 626.0042 69.02697 626.0024 69.042494 626.00056 L 78.99021 624.8068 C 79.00954 624.8045 79.02886 624.8021 79.04818 624.7996 L 92.88394 623.0221 C 92.98115 623.0096 93.0781 622.9951 93.1747 622.9785 L 99.72819 621.85506 C 99.92915 621.8206 100.13153 621.79495 100.33473 621.7782 L 103.56706 621.5112 C 104.4563 621.43775 105.32329 621.195 106.12135 620.79594 L 107.60765 620.0528 C 108.20824 619.7525 108.76249 619.36735 109.25338 618.9092 L 110.5885 617.6631 C 111.19532 617.0967 111.65073 616.3875 111.91322 615.6 L 112.20805 614.7155 C 112.27812 614.5053 112.33817 614.2919 112.388 614.07595 L 112.8577 612.04056 C 112.89293 611.8879 112.85949 611.7275 112.76621 611.6017 L 112.76621 611.6017 C 112.67587 611.4798 112.52523 611.4183 112.3754 611.44214 L 103.89555 612.7912 C 103.84466 612.7993 103.79385 612.80796 103.74315 612.8172 L 90.75839 615.17805 C 90.66561 615.1949 90.5725 615.2099 90.47911 615.223 L 79.24943 616.7991 C 79.22928 616.80194 79.209145 616.80486 79.18902 616.80786 L 66.019895 618.7734 C 65.88613 618.7934 65.75182 618.80945 65.61712 618.8216 L 55.10874 619.7721 C 54.90302 619.7907 54.69657 619.8002 54.49001 619.8005 L 53.05605 619.80295 C 52.8982 619.8032 52.740404 619.8088 52.58293 619.81976 L 38.453083 620.801 C 38.4305 620.8026 38.407907 620.804 38.38531 620.8054 L 25.082054 621.5996 C 25.040156 621.6021 24.998237 621.6042 24.9563 621.606 L 10.76485 622.1973 C 10.667764 622.2013 10.570605 622.20335 10.473436 622.20335 L -2.7807944 622.20335 L -15.322465 622.20335 C -15.36135 622.20335 -15.400236 622.2037 -15.439116 622.2043 L -27.197504 622.4003 C -27.319677 622.4023 -27.441882 622.4012 -27.563995 622.3968 L -38.397595 622.0099 C -38.519707 622.0055 -38.641913 622.0044 -38.764086 622.0064 L -50.478726 622.20165 C -50.54677 622.2028 -50.614824 622.2029 -50.68287 622.2021 L -66.385155 622.0058 C -66.51556 622.0042 -66.64589 621.9989 -66.77599 621.99 L -81.08577 621.00986 C -81.14912 621.0055 -81.2124 621.0003 -81.27561 620.99426 L -95.76661 619.6047 C -95.77607 619.6038 -95.78552 619.6029 -95.79497 619.6019 L -109.60701 618.2207 C -109.72285 618.20915 -109.83838 618.1947 -109.9535 618.1773 L -124.26265 616.02116 C -124.34141 616.0093 -124.42036 615.9988 -124.49948 615.9896 L -138.01941 614.4221 C -138.12699 614.4096 -138.23426 614.3946 -138.34114 614.3772 L -147.73323 612.8438 C -147.89822 612.8168 -148.0622 612.784 -148.22484 612.7453 L -157.30244 610.58654 C -157.69075 610.4942 -158.08041 610.7341 -158.17276 611.12244 C -158.17884 611.148 -158.18353 611.1739 -158.18679 611.2 Z" fill="url(#Obj_Gradient_6)"/>
      <path d="M -158.18679 611.2 L -158.18679 611.2 C -158.25247 611.7255 -158.18964 612.25905 -158.0037 612.7549 L -157.3527 614.4909 C -157.17594 614.9623 -156.94885 615.4132 -156.67538 615.8358 L -155.70757 617.3315 C -155.1666 618.16756 -154.4535 618.87855 -153.61588 619.417 L -152.53783 620.11005 C -152.23757 620.3031 -151.923 620.47285 -151.59684 620.6179 L -150.27999 621.2035 C -149.68346 621.46876 -149.05275 621.6493 -148.4062 621.7398 L -139.39579 623.00126 C -139.3858 623.00265 -139.3758 623.004 -139.3658 623.0054 L -127.6498 624.594 C -127.6038 624.6002 -127.55774 624.606 -127.51162 624.6113 L -117.22869 625.7978 C -117.19676 625.8015 -117.16481 625.805 -117.13284 625.8082 L -103.42277 627.1991 C -103.39479 627.2019 -103.36679 627.2046 -103.33877 627.2071 L -92.23347 628.19865 C -92.19836 628.2018 -92.16321 628.20466 -92.12805 628.20726 L -81.44152 628.99886 C -81.40104 629.00185 -81.36053 629.0045 -81.32001 629.0068 L -70.81202 629.6016 C -70.791205 629.6028 -70.77039 629.604 -70.74958 629.6054 L -58.70681 630.3951 C -58.622806 630.4006 -58.53871 630.4046 -58.45457 630.4071 L -45.00744 630.8026 C -44.98968 630.8031 -44.971915 630.8037 -44.954154 630.80434 L -34.31029 631.19856 C -34.223968 631.20176 -34.137592 631.20335 -34.05121 631.20335 L -23.442193 631.20335 C -23.401262 631.20335 -23.36033 631.2037 -23.319405 631.2044 L -12.232982 631.3989 C -12.064912 631.4019 -11.89679 631.3988 -11.728943 631.3896 L -1.1077104 630.8103 C -1.0231067 630.80566 -.9384262 630.8026 -.8537107 630.80104 L 9.910852 630.6053 C 9.983083 630.604 10.05529 630.6016 10.127447 630.598 L 22.146072 630.00695 C 22.194827 630.00455 22.243555 630.00165 22.292248 629.9982 L 33.532296 629.20945 C 33.590234 629.2054 33.64812 629.2006 33.705937 629.1951 L 46.11651 628.0131 C 46.18497 628.0066 46.25352 628.0011 46.322144 627.9966 L 58.254164 627.2142 C 58.36418 627.20696 58.474004 627.19715 58.583554 627.18475 L 68.9959 626.006 C 69.01144 626.0042 69.02697 626.0024 69.042494 626.00056 L 78.99021 624.8068 C 79.00954 624.8045 79.02886 624.8021 79.04818 624.7996 L 92.88394 623.0221 C 92.98115 623.0096 93.0781 622.9951 93.1747 622.9785 L 99.72819 621.85506 C 99.92915 621.8206 100.13153 621.79495 100.33473 621.7782 L 103.56706 621.5112 C 104.4563 621.43775 105.32329 621.195 106.12135 620.79594 L 107.60765 620.0528 C 108.20824 619.7525 108.76249 619.36735 109.25338 618.9092 L 110.5885 617.6631 C 111.19532 617.0967 111.65073 616.3875 111.91322 615.6 L 112.20805 614.7155 C 112.27812 614.5053 112.33817 614.2919 112.388 614.07595 L 112.8577 612.04056 C 112.89293 611.8879 112.85949 611.7275 112.76621 611.6017 L 112.76621 611.6017 C 112.67587 611.4798 112.52523 611.4183 112.3754 611.44214 L 103.89555 612.7912 C 103.84466 612.7993 103.79385 612.80796 103.74315 612.8172 L 90.75839 615.17805 C 90.66561 615.1949 90.5725 615.2099 90.47911 615.223 L 79.24943 616.7991 C 79.22928 616.80194 79.209145 616.80486 79.18902 616.80786 L 66.019895 618.7734 C 65.88613 618.7934 65.75182 618.80945 65.61712 618.8216 L 55.10874 619.7721 C 54.90302 619.7907 54.69657 619.8002 54.49001 619.8005 L 53.05605 619.80295 C 52.8982 619.8032 52.740404 619.8088 52.58293 619.81976 L 38.453083 620.801 C 38.4305 620.8026 38.407907 620.804 38.38531 620.8054 L 25.082054 621.5996 C 25.040156 621.6021 24.998237 621.6042 24.9563 621.606 L 10.76485 622.1973 C 10.667764 622.2013 10.570605 622.20335 10.473436 622.20335 L -2.7807944 622.20335 L -15.322465 622.20335 C -15.36135 622.20335 -15.400236 622.2037 -15.439116 622.2043 L -27.197504 622.4003 C -27.319677 622.4023 -27.441882 622.4012 -27.563995 622.3968 L -38.397595 622.0099 C -38.519707 622.0055 -38.641913 622.0044 -38.764086 622.0064 L -50.478726 622.20165 C -50.54677 622.2028 -50.614824 622.2029 -50.68287 622.2021 L -66.385155 622.0058 C -66.51556 622.0042 -66.64589 621.9989 -66.77599 621.99 L -81.08577 621.00986 C -81.14912 621.0055 -81.2124 621.0003 -81.27561 620.99426 L -95.76661 619.6047 C -95.77607 619.6038 -95.78552 619.6029 -95.79497 619.6019 L -109.60701 618.2207 C -109.72285 618.20915 -109.83838 618.1947 -109.9535 618.1773 L -124.26265 616.02116 C -124.34141 616.0093 -124.42036 615.9988 -124.49948 615.9896 L -138.01941 614.4221 C -138.12699 614.4096 -138.23426 614.3946 -138.34114 614.3772 L -147.73323 612.8438 C -147.89822 612.8168 -148.0622 612.784 -148.22484 612.7453 L -157.30244 610.58654 C -157.69075 610.4942 -158.08041 610.7341 -158.17276 611.12244 C -158.17884 611.148 -158.18353 611.1739 -158.18679 611.2 Z" stroke="#666" stroke-linecap="round" stroke-linejoin="round" stroke-width="1"/>
      <path d="M -146.6 341 L -146.6 348.5 L -146.1 359.5 L -145.6 374 L -145.1 388 L -144.6 403.5 L -144.00002 416.8 L 99.19998 419.8 L 98.9 409 L 99.39998 398.2 L 99.9 384.5 L 99.5 369.5 L 100.4 358 L 100.9 347 L 102.4 342 Z" fill="white"/>
      <path d="M -146.6 341 L -146.6 348.5 L -146.1 359.5 L -145.6 374 L -145.1 388 L -144.6 403.5 L -144.00002 416.8 L 99.19998 419.8 L 98.9 409 L 99.39998 398.2 L 99.9 384.5 L 99.5 369.5 L 100.4 358 L 100.9 347 L 102.4 342 Z" stroke="#7f8080" stroke-linecap="round" stroke-linejoin="round" stroke-width="1"/>
      <path d="M -144.5 428 L -145.02502 410.7 L -145.22502 396.7 L 99.17498 396.5 L 99.37498 408.3 L 99.425 417.6 L 99.17498 427.3 L 99.925 427.1 Z" fill="#080"/>
      <path d="M -144.5 428 L -145.02502 410.7 L -145.22502 396.7 L 99.17498 396.5 L 99.37498 408.3 L 99.425 417.6 L 99.17498 427.3 L 99.925 427.1 Z" stroke="#7f8080" stroke-linecap="round" stroke-linejoin="round" stroke-width="1"/>
      <path d="M -146.80002 341.2 L 101.5 340 L 99.9 355.5 L 99 369.5 L -145.5 370.5 L -147.00002 353.8 L -147.20002 348.2 Z" fill="red"/>
      <path d="M -146.80002 341.2 L 101.5 340 L 99.9 355.5 L 99 369.5 L -145.5 370.5 L -147.00002 353.8 L -147.20002 348.2 Z" stroke="#7f8080" stroke-linecap="round" stroke-linejoin="round" stroke-width="1"/>
    </g>
  </g>
</svg>
