<?xml version="1.0" encoding="UTF-8" standalone="no"?>
<!DOCTYPE svg PUBLIC "-//W3C//DTD SVG 1.1//EN" "http://www.w3.org/Graphics/SVG/1.1/DTD/svg11.dtd">
<svg xmlns="http://www.w3.org/2000/svg" xmlns:xl="http://www.w3.org/1999/xlink" version="1.1" viewBox="-932.5 -97.5 432.4053 449.30915" width="432.4053pt" height="449.30915pt" xmlns:dc="http://purl.org/dc/elements/1.1/">
  <metadata> Produced by OmniGraffle 7.6.1 
    <dc:date>2019-05-26 05:25:34 +0000</dc:date>
  </metadata>
  <defs>
    <radialGradient cx="0" cy="0" r="1" id="Gradient" gradientUnits="userSpaceOnUse">
      <stop offset="0" stop-color="#cbcbcb"/>
      <stop offset="1" stop-color="#021224"/>
    </radialGradient>
    <radialGradient id="Obj_Gradient" xl:href="#Gradient" gradientTransform="translate(-717.24075 -69.6) scale(70.26272)"/>
  </defs>
  <g stroke="none" stroke-opacity="1" stroke-dasharray="none" fill="none" fill-opacity="1">
    <title>islandia</title>
    <g>
      <title>Capa 1</title>
      <path d="M -778.9943 -96.40955 L -770.8289 -93.29184 C -769.9709 -92.96424 -769.0941 -92.68833 -768.2031 -92.46558 L -754.4859 -89.03629 C -753.3242 -88.74587 -752.1417 -88.54662 -750.949 -88.44034 L -733.42285 -86.8786 C -732.835 -86.82622 -732.2454 -86.79648 -731.6552 -86.78946 L -716.1763 -86.60519 C -715.886 -86.60173 -715.5956 -86.60377 -715.3053 -86.61131 L -700.882 -86.98594 C -700.5212 -86.99531 -700.1607 -87.01317 -699.8008 -87.03951 L -685.4295 -88.09107 C -684.438 -88.16361 -683.45234 -88.30036 -682.4786 -88.50044 L -670.9056 -90.87845 C -669.8636 -91.09256 -668.83774 -91.3787 -667.83535 -91.73481 L -656.08336 -95.90986 C -654.993 -96.29723 -653.7898 -95.76646 -653.34075 -94.7 L -653.34075 -94.7 C -652.8186 -93.45989 -652.6666 -92.09515 -652.90315 -90.77055 L -653.0836 -89.75986 C -653.3874 -88.05871 -653.8819 -86.3972 -654.55786 -84.80681 L -656.1011 -81.17569 C -656.65965 -79.86142 -657.3394 -78.602025 -658.1315 -77.41382 L -661.8173 -71.88515 C -662.5648 -70.763886 -663.4094 -69.71049 -664.3414 -68.73711 L -670.63646 -62.16226 C -671.5045 -61.25561 -672.4454 -60.42154 -673.44954 -59.66841 L -681.82445 -53.38723 C -682.7009 -52.729916 -683.6231 -52.13606 -684.5842 -51.6102 L -691.7694 -47.67867 C -693.0805 -46.961265 -694.4584 -46.37336 -695.8836 -45.9233 L -702.5565 -43.81607 C -704.2734 -43.273897 -706.048 -42.935195 -707.8439 -42.80692 L -714.7303 -42.31503 C -715.8026 -42.238437 -716.879 -42.23712 -717.95146 -42.31108 L -726.3877 -42.892893 C -727.4219 -42.964216 -728.4501 -43.105373 -729.4652 -43.3154 L -736.6004 -44.79165 C -738.55235 -45.195503 -740.4435 -45.851386 -742.2264 -46.742815 L -746.8858 -49.07252 C -748.1199 -49.68959 -749.296 -50.41646 -750.3999 -51.244345 L -756.0818 -55.50581 C -756.521 -55.835165 -756.9482 -56.18013 -757.3626 -56.54005 L -763.1178 -61.53797 C -763.9321 -62.245115 -764.6956 -63.008655 -765.4028 -63.82294 L -769.808 -68.89562 C -770.5621 -69.763985 -771.25 -70.687685 -771.8659 -71.65895 L -775.5996 -77.54671 C -775.9602 -78.1153 -776.2956 -78.69944 -776.60495 -79.29745 L -778.2253 -82.43017 C -778.8345 -83.60785 -779.3406 -84.836 -779.7382 -86.10089 L -781.0184 -90.17438 C -781.2332 -90.85775 -781.4159 -91.55079 -781.566 -92.25122 L -781.64075 -92.6 C -781.8354 -93.50843 -781.7282 -94.45557 -781.3353 -95.29746 L -781.24075 -95.5 C -780.8463 -96.34531 -779.8658 -96.74229 -778.9943 -96.40955 Z" fill="url(#Obj_Gradient)"/>
      <path d="M -778.9943 -96.40955 L -770.8289 -93.29184 C -769.9709 -92.96424 -769.0941 -92.68833 -768.2031 -92.46558 L -754.4859 -89.03629 C -753.3242 -88.74587 -752.1417 -88.54662 -750.949 -88.44034 L -733.42285 -86.8786 C -732.835 -86.82622 -732.2454 -86.79648 -731.6552 -86.78946 L -716.1763 -86.60519 C -715.886 -86.60173 -715.5956 -86.60377 -715.3053 -86.61131 L -700.882 -86.98594 C -700.5212 -86.99531 -700.1607 -87.01317 -699.8008 -87.03951 L -685.4295 -88.09107 C -684.438 -88.16361 -683.45234 -88.30036 -682.4786 -88.50044 L -670.9056 -90.87845 C -669.8636 -91.09256 -668.83774 -91.3787 -667.83535 -91.73481 L -656.08336 -95.90986 C -654.993 -96.29723 -653.7898 -95.76646 -653.34075 -94.7 L -653.34075 -94.7 C -652.8186 -93.45989 -652.6666 -92.09515 -652.90315 -90.77055 L -653.0836 -89.75986 C -653.3874 -88.05871 -653.8819 -86.3972 -654.55786 -84.80681 L -656.1011 -81.17569 C -656.65965 -79.86142 -657.3394 -78.602025 -658.1315 -77.41382 L -661.8173 -71.88515 C -662.5648 -70.763886 -663.4094 -69.71049 -664.3414 -68.73711 L -670.63646 -62.16226 C -671.5045 -61.25561 -672.4454 -60.42154 -673.44954 -59.66841 L -681.82445 -53.38723 C -682.7009 -52.729916 -683.6231 -52.13606 -684.5842 -51.6102 L -691.7694 -47.67867 C -693.0805 -46.961265 -694.4584 -46.37336 -695.8836 -45.9233 L -702.5565 -43.81607 C -704.2734 -43.273897 -706.048 -42.935195 -707.8439 -42.80692 L -714.7303 -42.31503 C -715.8026 -42.238437 -716.879 -42.23712 -717.95146 -42.31108 L -726.3877 -42.892893 C -727.4219 -42.964216 -728.4501 -43.105373 -729.4652 -43.3154 L -736.6004 -44.79165 C -738.55235 -45.195503 -740.4435 -45.851386 -742.2264 -46.742815 L -746.8858 -49.07252 C -748.1199 -49.68959 -749.296 -50.41646 -750.3999 -51.244345 L -756.0818 -55.50581 C -756.521 -55.835165 -756.9482 -56.18013 -757.3626 -56.54005 L -763.1178 -61.53797 C -763.9321 -62.245115 -764.6956 -63.008655 -765.4028 -63.82294 L -769.808 -68.89562 C -770.5621 -69.763985 -771.25 -70.687685 -771.8659 -71.65895 L -775.5996 -77.54671 C -775.9602 -78.1153 -776.2956 -78.69944 -776.60495 -79.29745 L -778.2253 -82.43017 C -778.8345 -83.60785 -779.3406 -84.836 -779.7382 -86.10089 L -781.0184 -90.17438 C -781.2332 -90.85775 -781.4159 -91.55079 -781.566 -92.25122 L -781.64075 -92.6 C -781.8354 -93.50843 -781.7282 -94.45557 -781.3353 -95.29746 L -781.24075 -95.5 C -780.8463 -96.34531 -779.8658 -96.74229 -778.9943 -96.40955 Z" stroke="#7f8080" stroke-linecap="round" stroke-linejoin="round" stroke-width="1"/>
      <path d="M -844.6699 341.17293 L -830.9277 343.4633 C -830.7443 343.49387 -830.5604 343.52123 -830.3761 343.5454 L -802.0225 347.2607 C -801.7759 347.293 -801.5287 347.31955 -801.2809 347.34033 L -771.038 349.87683 C -770.7811 349.89837 -770.5237 349.9137 -770.2661 349.9228 L -731.3352 351.29916 C -731.1468 351.3058 -730.95835 351.30915 -730.7699 351.30915 L -699.30255 351.30915 C -699.1359 351.30915 -698.9693 351.30655 -698.8028 351.30134 L -673.768 350.519 C -673.5578 350.51244 -673.3477 350.50172 -673.13785 350.48687 L -651.0901 348.92596 C -650.9318 348.91476 -650.77364 348.9012 -650.6157 348.8853 L -625.35525 346.33965 C -625.1535 346.3193 -624.9522 346.29516 -624.75135 346.26717 L -600.95866 342.9518 C -600.75465 342.92337 -600.5512 342.891 -600.34844 342.8547 L -591.1526 341.20915 C -585.8255 340.25588 -582.17464 335.30223 -582.84105 329.9317 L -585.04864 312.14113 C -585.0513 312.1198 -585.0539 312.0985 -585.05645 312.07716 L -588.6203 282.37863 C -588.6418 282.199 -588.66034 282.019 -588.6758 281.83873 L -591.038 254.27952 C -591.04774 254.16594 -591.05626 254.05227 -591.0636 253.9385 L -592.4502 232.34687 C -592.4518 232.32172 -592.4535 232.29658 -592.4552 232.27144 L -594.0474 209.18513 C -594.05086 209.13448 -594.0541 209.0838 -594.0571 209.03312 L -595.2335 189.23095 C -595.24624 189.01644 -595.25466 188.8017 -595.25875 188.58684 L -595.651 167.992 C -595.6521 167.93677 -595.6534 167.88154 -595.65505 167.82632 L -596.2502 147.59198 C -596.2518 147.53676 -596.25314 147.48153 -596.2542 147.4263 L -596.64485 126.91676 C -596.65 126.64506 -596.6483 126.37328 -596.6396 126.10167 L -596.05366 107.74206 C -596.05296 107.72012 -596.0522 107.69818 -596.0514 107.67624 L -595.26334 85.80693 C -595.2562 85.60842 -595.24534 85.41007 -595.2308 85.21197 L -593.6733 63.99135 C -593.6595 63.80323 -593.64904 63.61488 -593.6419 63.426385 L -592.88744 43.527517 C -592.86424 42.91577 -592.80596 42.30586 -592.7129 41.700796 L -589.9739 23.897278 C -589.8931 23.37218 -589.7862 22.851433 -589.6536 22.33697 L -585.02534 4.379318 C -584.91024 3.9327453 -584.7759 3.4913573 -584.62266 3.0563907 L -578.9019 -13.18325 C -578.7358 -13.654727 -578.5477 -14.118162 -578.3382 -14.57203 L -572.80667 -26.55707 C -572.704 -26.779563 -572.5962 -26.99967 -572.4834 -27.217213 L -567.1212 -37.55864 C -567.07546 -37.64678 -567.02894 -37.734496 -566.9816 -37.821772 L -561.7656 -47.438735 C -561.02835 -48.79809 -560.0787 -50.03099 -558.9526 -51.090855 L -558.9526 -51.090855 C -558.2774 -51.72633 -558.2452 -52.78883 -558.8807 -53.46402 C -559.0052 -53.596295 -559.1503 -53.70749 -559.31045 -53.79327 L -562.5246 -55.515126 C -562.74324 -55.63226 -562.9646 -55.7443 -563.18845 -55.851144 L -571.0424 -59.59963 C -571.44904 -59.793694 -571.86366 -59.970495 -572.2852 -60.12956 L -581.96 -63.780444 C -582.15506 -63.854044 -582.3515 -63.92383 -582.5493 -63.98975 L -595.2438 -68.22124 C -595.383 -68.26765 -595.52284 -68.31214 -595.6633 -68.3547 L -608.5468 -72.2588 C -608.61734 -72.28017 -608.6877 -72.30203 -608.75795 -72.32437 L -621.26195 -76.30292 C -621.6556 -76.42816 -622.0442 -76.5686 -622.42696 -76.723925 L -634.4029 -81.58373 C -635.2346 -81.921215 -636.03636 -82.32808 -636.7998 -82.80002 L -646.41904 -88.74647 C -646.57474 -88.84272 -646.7288 -88.94164 -646.8811 -89.04317 L -651.7712 -92.30324 C -652.7526 -92.9575 -653.6239 -93.7634 -654.3526 -94.69086 L -654.3526 -94.69086 C -654.4582 -94.82526 -654.6528 -94.84861 -654.7872 -94.743 C -654.8899 -94.66228 -654.9309 -94.52573 -654.8896 -94.40177 L -654.7526 -93.99086 C -654.2934 -92.6131 -654.1888 -91.14182 -654.4486 -89.71297 L -654.8437 -87.5397 C -655.11494 -86.04804 -655.5968 -84.6025 -656.2748 -83.24645 L -657.8071 -80.18182 C -658.1038 -79.58842 -658.43715 -79.01405 -658.8052 -78.46203 L -662.0089 -73.65647 C -662.4375 -73.01357 -662.9121 -72.40256 -663.429 -71.82824 L -667.991 -66.7593 C -668.0321 -66.71367 -668.0734 -66.66828 -668.115 -66.62312 L -674.1092 -60.1151 C -674.737 -59.43356 -675.4227 -58.807835 -676.15875 -58.244984 L -681.1829 -54.40297 C -681.6291 -54.061796 -682.0929 -53.74435 -682.5724 -53.451955 L -689.0588 -49.49683 C -689.7205 -49.09338 -690.4106 -48.738534 -691.12365 -48.435094 L -698.2391 -45.40726 C -699.0467 -45.063573 -699.8813 -44.78693 -700.73434 -44.58013 L -704.8134 -43.59127 C -705.6382 -43.39131 -706.4777 -43.2573 -707.3238 -43.1905 L -713.024 -42.740485 C -713.4429 -42.70741 -713.863 -42.690855 -714.2832 -42.690855 L -721.3155 -42.690855 C -722.0726 -42.690855 -722.8288 -42.744593 -723.5783 -42.851663 L -731.5247 -43.98687 C -732.0097 -44.056157 -732.4913 -44.147684 -732.9679 -44.26116 L -738.9291 -45.6805 C -740.0746 -45.95324 -741.1865 -46.35159 -742.2446 -46.86832 L -748.5246 -49.9353 C -749.0096 -50.172185 -749.4824 -50.433465 -749.941 -50.71814 L -754.1529 -53.3324 C -754.75205 -53.704296 -755.326 -54.1154 -755.8709 -54.56302 L -760.317 -58.21518 C -760.5407 -58.39893 -760.7594 -58.58872 -760.9728 -58.78433 L -764.7751 -62.26981 C -765.2264 -62.6835 -765.6536 -63.12275 -766.0545 -63.58539 L -770.1733 -68.33779 C -770.4927 -68.70631 -770.795 -69.08923 -771.0794 -69.48537 L -775.5091 -75.65525 C -776.004 -76.34456 -776.4433 -77.07215 -776.8228 -77.83114 L -779.3992 -82.98406 C -779.4348 -83.05526 -779.4699 -83.12672 -779.5044 -83.19843 L -780.7526 -85.79086 C -781.6033 -87.55772 -781.95885 -89.52226 -781.7813 -91.47521 L -781.6011 -93.45747 C -781.5773 -93.71933 -781.7703 -93.95091 -782.0321 -93.97472 C -782.1945 -93.98948 -782.3532 -93.9201 -782.4526 -93.79086 L -782.4526 -93.79086 C -783.1161 -92.92838 -783.8962 -92.1623 -784.7705 -91.51461 L -788.6671 -88.62829 C -788.7908 -88.53667 -788.9158 -88.44684 -789.042 -88.35883 L -793.6643 -85.13726 C -794.851 -84.31015 -796.1444 -83.64778 -797.5092 -83.16827 L -802.1163 -81.54955 C -802.6069 -81.37719 -803.0888 -81.18102 -803.5602 -80.96173 L -810.407 -77.77718 C -811.1032 -77.45338 -811.8217 -77.18012 -812.5571 -76.9595 L -823.4275 -73.69838 C -823.4443 -73.69336 -823.461 -73.68832 -823.4777 -73.68325 L -834.4458 -70.35365 C -834.5837 -70.31179 -834.721 -70.26807 -834.8577 -70.222494 L -847.7789 -65.91542 C -847.8281 -65.89904 -847.8773 -65.88291 -847.9265 -65.86701 L -859.2939 -62.200106 C -859.9324 -61.99414 -860.5573 -61.748226 -861.1649 -61.46381 L -869.0969 -57.75098 C -869.4672 -57.577626 -869.8308 -57.39014 -870.1868 -57.18894 L -876.1329 -53.82809 C -877.3859 -53.119855 -877.8276 -51.52993 -877.1193 -50.276897 C -877.0422 -50.14046 -876.953 -50.011254 -876.8526 -49.890855 L -875.9885 -48.85392 C -875.2336 -47.94799 -874.5811 -46.961367 -874.043 -45.91204 L -870.9658 -39.91162 C -870.8904 -39.76445 -870.8126 -39.618464 -870.7326 -39.473707 L -866.7779 -32.31749 C -866.6944 -32.16641 -866.6133 -32.01399 -866.5348 -31.860287 L -862.4265 -23.8223 C -862.1774 -23.33499 -861.9535 -22.835223 -861.7556 -22.32497 L -858.2729 -13.343091 C -858.2594 -13.308267 -858.2457 -13.27349 -858.232 -13.238761 L -854.6357 -4.153315 C -854.5137 -3.8450824 -854.4013 -3.5331324 -854.2986 -3.2179167 L -851.6768 4.8348606 C -851.6607 4.884384 -851.6448 4.933985 -851.6292 4.9836634 L -848.5571 14.741934 C -848.3543 15.386096 -848.1925 16.04245 -848.0727 16.70706 L -846.0874 27.716517 C -846.0642 27.84493 -846.0426 27.973625 -846.0226 28.102568 L -844.3167 39.09595 C -844.274 39.371367 -844.2385 39.647854 -844.2102 39.92513 L -843.3227 48.62184 C -843.276 49.07983 -843.2491 49.539624 -843.242 49.99994 L -843.0577 61.97556 C -843.0543 62.19793 -843.0463 62.4202 -843.0336 62.64223 L -842.2632 76.12379 C -842.2561 76.24736 -842.2477 76.37084 -842.2377 76.494205 L -840.9042 93.06858 C -840.8698 93.49545 -840.8526 93.92353 -840.8526 94.35179 L -840.8526 106.80157 C -840.8526 107.0066 -840.8487 107.21162 -840.8408 107.4165 L -840.2604 122.50564 C -840.2552 122.6413 -840.2517 122.77703 -840.25 122.91279 L -840.0578 137.70905 C -840.0543 137.97574 -840.0576 138.24248 -840.0674 138.509 L -840.6417 154.01316 C -840.649 154.21047 -840.6526 154.4079 -840.6526 154.60534 L -840.6526 168.20157 C -840.6526 168.4066 -840.6566 168.61162 -840.6644 168.8165 L -841.2496 184.0315 C -841.2516 184.08327 -841.2539 184.13502 -841.2564 184.18676 L -842.0517 200.6897 C -842.0523 200.70266 -842.0529 200.71563 -842.0536 200.7286 L -842.8481 216.41976 C -842.8511 216.47935 -842.8545 216.53893 -842.8581 216.59848 L -844.0471 235.8192 C -844.0508 235.87917 -844.0548 235.9391 -844.0592 235.99902 L -845.8423 260.36857 C -845.8492 260.4623 -845.8569 260.55594 -845.8654 260.64953 L -847.6513 280.29434 C -847.6522 280.3042 -847.6531 280.3141 -847.654 280.32396 L -849.4248 299.40886 C -849.4433 299.60904 -849.4657 299.80884 -849.4918 300.00818 L -851.4525 314.9809 C -851.5853 315.9951 -851.8544 316.9867 -852.2526 317.92888 L -852.2526 317.92888 C -852.6502 318.86962 -852.8989 319.86654 -852.9897 320.8838 L -853.7526 329.42888 C -854.2604 335.1159 -850.3019 340.23427 -844.6699 341.17293 Z" fill="#0000b7"/>
      <path d="M -844.6699 341.17293 L -830.9277 343.4633 C -830.7443 343.49387 -830.5604 343.52123 -830.3761 343.5454 L -802.0225 347.2607 C -801.7759 347.293 -801.5287 347.31955 -801.2809 347.34033 L -771.038 349.87683 C -770.7811 349.89837 -770.5237 349.9137 -770.2661 349.9228 L -731.3352 351.29916 C -731.1468 351.3058 -730.95835 351.30915 -730.7699 351.30915 L -699.30255 351.30915 C -699.1359 351.30915 -698.9693 351.30655 -698.8028 351.30134 L -673.768 350.519 C -673.5578 350.51244 -673.3477 350.50172 -673.13785 350.48687 L -651.0901 348.92596 C -650.9318 348.91476 -650.77364 348.9012 -650.6157 348.8853 L -625.35525 346.33965 C -625.1535 346.3193 -624.9522 346.29516 -624.75135 346.26717 L -600.95866 342.9518 C -600.75465 342.92337 -600.5512 342.891 -600.34844 342.8547 L -591.1526 341.20915 C -585.8255 340.25588 -582.17464 335.30223 -582.84105 329.9317 L -585.04864 312.14113 C -585.0513 312.1198 -585.0539 312.0985 -585.05645 312.07716 L -588.6203 282.37863 C -588.6418 282.199 -588.66034 282.019 -588.6758 281.83873 L -591.038 254.27952 C -591.04774 254.16594 -591.05626 254.05227 -591.0636 253.9385 L -592.4502 232.34687 C -592.4518 232.32172 -592.4535 232.29658 -592.4552 232.27144 L -594.0474 209.18513 C -594.05086 209.13448 -594.0541 209.0838 -594.0571 209.03312 L -595.2335 189.23095 C -595.24624 189.01644 -595.25466 188.8017 -595.25875 188.58684 L -595.651 167.992 C -595.6521 167.93677 -595.6534 167.88154 -595.65505 167.82632 L -596.2502 147.59198 C -596.2518 147.53676 -596.25314 147.48153 -596.2542 147.4263 L -596.64485 126.91676 C -596.65 126.64506 -596.6483 126.37328 -596.6396 126.10167 L -596.05366 107.74206 C -596.05296 107.72012 -596.0522 107.69818 -596.0514 107.67624 L -595.26334 85.80693 C -595.2562 85.60842 -595.24534 85.41007 -595.2308 85.21197 L -593.6733 63.99135 C -593.6595 63.80323 -593.64904 63.61488 -593.6419 63.426385 L -592.88744 43.527517 C -592.86424 42.91577 -592.80596 42.30586 -592.7129 41.700796 L -589.9739 23.897278 C -589.8931 23.37218 -589.7862 22.851433 -589.6536 22.33697 L -585.02534 4.379318 C -584.91024 3.9327453 -584.7759 3.4913573 -584.62266 3.0563907 L -578.9019 -13.18325 C -578.7358 -13.654727 -578.5477 -14.118162 -578.3382 -14.57203 L -572.80667 -26.55707 C -572.704 -26.779563 -572.5962 -26.99967 -572.4834 -27.217213 L -567.1212 -37.55864 C -567.07546 -37.64678 -567.02894 -37.734496 -566.9816 -37.821772 L -561.7656 -47.438735 C -561.02835 -48.79809 -560.0787 -50.03099 -558.9526 -51.090855 L -558.9526 -51.090855 C -558.2774 -51.72633 -558.2452 -52.78883 -558.8807 -53.46402 C -559.0052 -53.596295 -559.1503 -53.70749 -559.31045 -53.79327 L -562.5246 -55.515126 C -562.74324 -55.63226 -562.9646 -55.7443 -563.18845 -55.851144 L -571.0424 -59.59963 C -571.44904 -59.793694 -571.86366 -59.970495 -572.2852 -60.12956 L -581.96 -63.780444 C -582.15506 -63.854044 -582.3515 -63.92383 -582.5493 -63.98975 L -595.2438 -68.22124 C -595.383 -68.26765 -595.52284 -68.31214 -595.6633 -68.3547 L -608.5468 -72.2588 C -608.61734 -72.28017 -608.6877 -72.30203 -608.75795 -72.32437 L -621.26195 -76.30292 C -621.6556 -76.42816 -622.0442 -76.5686 -622.42696 -76.723925 L -634.4029 -81.58373 C -635.2346 -81.921215 -636.03636 -82.32808 -636.7998 -82.80002 L -646.41904 -88.74647 C -646.57474 -88.84272 -646.7288 -88.94164 -646.8811 -89.04317 L -651.7712 -92.30324 C -652.7526 -92.9575 -653.6239 -93.7634 -654.3526 -94.69086 L -654.3526 -94.69086 C -654.4582 -94.82526 -654.6528 -94.84861 -654.7872 -94.743 C -654.8899 -94.66228 -654.9309 -94.52573 -654.8896 -94.40177 L -654.7526 -93.99086 C -654.2934 -92.6131 -654.1888 -91.14182 -654.4486 -89.71297 L -654.8437 -87.5397 C -655.11494 -86.04804 -655.5968 -84.6025 -656.2748 -83.24645 L -657.8071 -80.18182 C -658.1038 -79.58842 -658.43715 -79.01405 -658.8052 -78.46203 L -662.0089 -73.65647 C -662.4375 -73.01357 -662.9121 -72.40256 -663.429 -71.82824 L -667.991 -66.7593 C -668.0321 -66.71367 -668.0734 -66.66828 -668.115 -66.62312 L -674.1092 -60.1151 C -674.737 -59.43356 -675.4227 -58.807835 -676.15875 -58.244984 L -681.1829 -54.40297 C -681.6291 -54.061796 -682.0929 -53.74435 -682.5724 -53.451955 L -689.0588 -49.49683 C -689.7205 -49.09338 -690.4106 -48.738534 -691.12365 -48.435094 L -698.2391 -45.40726 C -699.0467 -45.063573 -699.8813 -44.78693 -700.73434 -44.58013 L -704.8134 -43.59127 C -705.6382 -43.39131 -706.4777 -43.2573 -707.3238 -43.1905 L -713.024 -42.740485 C -713.4429 -42.70741 -713.863 -42.690855 -714.2832 -42.690855 L -721.3155 -42.690855 C -722.0726 -42.690855 -722.8288 -42.744593 -723.5783 -42.851663 L -731.5247 -43.98687 C -732.0097 -44.056157 -732.4913 -44.147684 -732.9679 -44.26116 L -738.9291 -45.6805 C -740.0746 -45.95324 -741.1865 -46.35159 -742.2446 -46.86832 L -748.5246 -49.9353 C -749.0096 -50.172185 -749.4824 -50.433465 -749.941 -50.71814 L -754.1529 -53.3324 C -754.75205 -53.704296 -755.326 -54.1154 -755.8709 -54.56302 L -760.317 -58.21518 C -760.5407 -58.39893 -760.7594 -58.58872 -760.9728 -58.78433 L -764.7751 -62.26981 C -765.2264 -62.6835 -765.6536 -63.12275 -766.0545 -63.58539 L -770.1733 -68.33779 C -770.4927 -68.70631 -770.795 -69.08923 -771.0794 -69.48537 L -775.5091 -75.65525 C -776.004 -76.34456 -776.4433 -77.07215 -776.8228 -77.83114 L -779.3992 -82.98406 C -779.4348 -83.05526 -779.4699 -83.12672 -779.5044 -83.19843 L -780.7526 -85.79086 C -781.6033 -87.55772 -781.95885 -89.52226 -781.7813 -91.47521 L -781.6011 -93.45747 C -781.5773 -93.71933 -781.7703 -93.95091 -782.0321 -93.97472 C -782.1945 -93.98948 -782.3532 -93.9201 -782.4526 -93.79086 L -782.4526 -93.79086 C -783.1161 -92.92838 -783.8962 -92.1623 -784.7705 -91.51461 L -788.6671 -88.62829 C -788.7908 -88.53667 -788.9158 -88.44684 -789.042 -88.35883 L -793.6643 -85.13726 C -794.851 -84.31015 -796.1444 -83.64778 -797.5092 -83.16827 L -802.1163 -81.54955 C -802.6069 -81.37719 -803.0888 -81.18102 -803.5602 -80.96173 L -810.407 -77.77718 C -811.1032 -77.45338 -811.8217 -77.18012 -812.5571 -76.9595 L -823.4275 -73.69838 C -823.4443 -73.69336 -823.461 -73.68832 -823.4777 -73.68325 L -834.4458 -70.35365 C -834.5837 -70.31179 -834.721 -70.26807 -834.8577 -70.222494 L -847.7789 -65.91542 C -847.8281 -65.89904 -847.8773 -65.88291 -847.9265 -65.86701 L -859.2939 -62.200106 C -859.9324 -61.99414 -860.5573 -61.748226 -861.1649 -61.46381 L -869.0969 -57.75098 C -869.4672 -57.577626 -869.8308 -57.39014 -870.1868 -57.18894 L -876.1329 -53.82809 C -877.3859 -53.119855 -877.8276 -51.52993 -877.1193 -50.276897 C -877.0422 -50.14046 -876.953 -50.011254 -876.8526 -49.890855 L -875.9885 -48.85392 C -875.2336 -47.94799 -874.5811 -46.961367 -874.043 -45.91204 L -870.9658 -39.91162 C -870.8904 -39.76445 -870.8126 -39.618464 -870.7326 -39.473707 L -866.7779 -32.31749 C -866.6944 -32.16641 -866.6133 -32.01399 -866.5348 -31.860287 L -862.4265 -23.8223 C -862.1774 -23.33499 -861.9535 -22.835223 -861.7556 -22.32497 L -858.2729 -13.343091 C -858.2594 -13.308267 -858.2457 -13.27349 -858.232 -13.238761 L -854.6357 -4.153315 C -854.5137 -3.8450824 -854.4013 -3.5331324 -854.2986 -3.2179167 L -851.6768 4.8348606 C -851.6607 4.884384 -851.6448 4.933985 -851.6292 4.9836634 L -848.5571 14.741934 C -848.3543 15.386096 -848.1925 16.04245 -848.0727 16.70706 L -846.0874 27.716517 C -846.0642 27.84493 -846.0426 27.973625 -846.0226 28.102568 L -844.3167 39.09595 C -844.274 39.371367 -844.2385 39.647854 -844.2102 39.92513 L -843.3227 48.62184 C -843.276 49.07983 -843.2491 49.539624 -843.242 49.99994 L -843.0577 61.97556 C -843.0543 62.19793 -843.0463 62.4202 -843.0336 62.64223 L -842.2632 76.12379 C -842.2561 76.24736 -842.2477 76.37084 -842.2377 76.494205 L -840.9042 93.06858 C -840.8698 93.49545 -840.8526 93.92353 -840.8526 94.35179 L -840.8526 106.80157 C -840.8526 107.0066 -840.8487 107.21162 -840.8408 107.4165 L -840.2604 122.50564 C -840.2552 122.6413 -840.2517 122.77703 -840.25 122.91279 L -840.0578 137.70905 C -840.0543 137.97574 -840.0576 138.24248 -840.0674 138.509 L -840.6417 154.01316 C -840.649 154.21047 -840.6526 154.4079 -840.6526 154.60534 L -840.6526 168.20157 C -840.6526 168.4066 -840.6566 168.61162 -840.6644 168.8165 L -841.2496 184.0315 C -841.2516 184.08327 -841.2539 184.13502 -841.2564 184.18676 L -842.0517 200.6897 C -842.0523 200.70266 -842.0529 200.71563 -842.0536 200.7286 L -842.8481 216.41976 C -842.8511 216.47935 -842.8545 216.53893 -842.8581 216.59848 L -844.0471 235.8192 C -844.0508 235.87917 -844.0548 235.9391 -844.0592 235.99902 L -845.8423 260.36857 C -845.8492 260.4623 -845.8569 260.55594 -845.8654 260.64953 L -847.6513 280.29434 C -847.6522 280.3042 -847.6531 280.3141 -847.654 280.32396 L -849.4248 299.40886 C -849.4433 299.60904 -849.4657 299.80884 -849.4918 300.00818 L -851.4525 314.9809 C -851.5853 315.9951 -851.8544 316.9867 -852.2526 317.92888 L -852.2526 317.92888 C -852.6502 318.86962 -852.8989 319.86654 -852.9897 320.8838 L -853.7526 329.42888 C -854.2604 335.1159 -850.3019 340.23427 -844.6699 341.17293 Z" stroke="#7f8080" stroke-linecap="round" stroke-linejoin="round" stroke-width="1"/>
      <path d="M -932 54.446146 L -925.8 58.846146 L -917.6 62.846146 L -909 66.446146 L -900 70.24615 L -889 74.24615 L -879.6 77.04615 L -870.6 79.64615 L -861.6 82.24615 L -856.2 83.64615 L -850.6 84.64615 L -848.2 78.84615 L -845.6 73.44615 L -843.4 69.446146 L -840.8 66.046146 L -840.6 57.046146 L -841.2 46.046145 L -843 35.246145 L -844.6 24.846145 L -847.2 13.846145 L -849.6 4.246145 L -852.4 -3.7538553 L -855.6 -13.153855 L -858.4 -20.553856 L -862 -28.153856 L -866 -35.753856 L -870 -43.153856 L -872.6 -46.753856 L -876.2 -52.553856 L -881.6 -48.153856 L -886.4 -43.353856 L -891 -37.153856 L -895.4 -30.953856 L -900.2 -22.353856 L -905 -12.953855 L -909.8 -3.7538553 L -913.4 4.846145 L -917.4 13.846145 L -920.6 22.046145 L -924.4 31.446145 L -927.2 39.446145 L -930.2 47.846145 Z" fill="#0000a4"/>
      <path d="M -932 54.446146 L -925.8 58.846146 L -917.6 62.846146 L -909 66.446146 L -900 70.24615 L -889 74.24615 L -879.6 77.04615 L -870.6 79.64615 L -861.6 82.24615 L -856.2 83.64615 L -850.6 84.64615 L -848.2 78.84615 L -845.6 73.44615 L -843.4 69.446146 L -840.8 66.046146 L -840.6 57.046146 L -841.2 46.046145 L -843 35.246145 L -844.6 24.846145 L -847.2 13.846145 L -849.6 4.246145 L -852.4 -3.7538553 L -855.6 -13.153855 L -858.4 -20.553856 L -862 -28.153856 L -866 -35.753856 L -870 -43.153856 L -872.6 -46.753856 L -876.2 -52.553856 L -881.6 -48.153856 L -886.4 -43.353856 L -891 -37.153856 L -895.4 -30.953856 L -900.2 -22.353856 L -905 -12.953855 L -909.8 -3.7538553 L -913.4 4.846145 L -917.4 13.846145 L -920.6 22.046145 L -924.4 31.446145 L -927.2 39.446145 L -930.2 47.846145 Z" stroke="#7f8080" stroke-linecap="round" stroke-linejoin="round" stroke-width="1"/>
      <path d="M -500.5947 53.50275 L -506.7947 57.90275 L -514.9947 61.90275 L -523.5947 65.50275 L -532.5947 69.30275 L -543.5947 73.30275 L -552.9947 76.10275 L -561.9947 78.70275 L -570.9947 81.30275 L -576.3947 82.70275 L -581.9947 83.70275 L -584.3947 77.90275 L -586.9947 72.50275 L -589.1947 68.50275 L -591.7947 65.10275 L -591.9947 56.10275 L -591.3947 45.10275 L -589.5947 34.30275 L -587.9947 23.90275 L -588 18 L -582.9947 3.3027486 L -580.1947 -4.6972515 L -576.9947 -14.097252 L -574.1947 -21.497252 L -570.5947 -29.097252 L -566.5947 -36.69725 L -562.5947 -44.09725 L -559.9947 -47.69725 L -556.3947 -53.49725 L -550.9947 -49.09725 L -546.1947 -44.29725 L -541.5947 -38.09725 L -537.1947 -31.897252 L -532.3947 -23.297252 L -527.5947 -13.897252 L -522.7947 -4.6972515 L -519.1947 3.9027486 L -515.1947 12.902749 L -511.9947 21.10275 L -508.1947 30.50275 L -505.3947 38.50275 L -502.3947 46.90275 Z" fill="#0000b9"/>
      <path d="M -500.5947 53.50275 L -506.7947 57.90275 L -514.9947 61.90275 L -523.5947 65.50275 L -532.5947 69.30275 L -543.5947 73.30275 L -552.9947 76.10275 L -561.9947 78.70275 L -570.9947 81.30275 L -576.3947 82.70275 L -581.9947 83.70275 L -584.3947 77.90275 L -586.9947 72.50275 L -589.1947 68.50275 L -591.7947 65.10275 L -591.9947 56.10275 L -591.3947 45.10275 L -589.5947 34.30275 L -587.9947 23.90275 L -588 18 L -582.9947 3.3027486 L -580.1947 -4.6972515 L -576.9947 -14.097252 L -574.1947 -21.497252 L -570.5947 -29.097252 L -566.5947 -36.69725 L -562.5947 -44.09725 L -559.9947 -47.69725 L -556.3947 -53.49725 L -550.9947 -49.09725 L -546.1947 -44.29725 L -541.5947 -38.09725 L -537.1947 -31.897252 L -532.3947 -23.297252 L -527.5947 -13.897252 L -522.7947 -4.6972515 L -519.1947 3.9027486 L -515.1947 12.902749 L -511.9947 21.10275 L -508.1947 30.50275 L -505.3947 38.50275 L -502.3947 46.90275 Z" stroke="#7f8080" stroke-linecap="round" stroke-linejoin="round" stroke-width="1"/>
      <path d="M -932 54.446146 L -925.8 58.846146 L -917.6 62.846146 L -909 66.446146 L -900 70.24615 L -889 74.24615 L -879.6 77.04615 L -870.6 79.64615 L -861.6 82.24615 L -856.2 83.64615 L -850.6 84.64615 L -847.6 78.24615 L -851.4 77.44615 L -856.2 76.24615 L -861.8 75.04615 L -867.8 73.24615 L -872.4 71.84615 L -876.6 70.64615 L -881.2 68.646146 L -885.8 67.046146 L -890.6 65.046146 L -894.6 63.646146 L -899.8 61.446146 L -904.4 59.846146 L -909.2 57.646146 L -914 55.846146 L -918 53.846146 L -922.4 51.646146 L -926.8 49.446146 L -930.2 47.846145 Z" fill="#0000ad"/>
      <path d="M -932 54.446146 L -925.8 58.846146 L -917.6 62.846146 L -909 66.446146 L -900 70.24615 L -889 74.24615 L -879.6 77.04615 L -870.6 79.64615 L -861.6 82.24615 L -856.2 83.64615 L -850.6 84.64615 L -847.6 78.24615 L -851.4 77.44615 L -856.2 76.24615 L -861.8 75.04615 L -867.8 73.24615 L -872.4 71.84615 L -876.6 70.64615 L -881.2 68.646146 L -885.8 67.046146 L -890.6 65.046146 L -894.6 63.646146 L -899.8 61.446146 L -904.4 59.846146 L -909.2 57.646146 L -914 55.846146 L -918 53.846146 L -922.4 51.646146 L -926.8 49.446146 L -930.2 47.846145 Z" stroke="#7f8080" stroke-linecap="round" stroke-linejoin="round" stroke-width="1"/>
      <path d="M -500.5947 53.50275 L -506.7947 57.90275 L -514.9947 61.90275 L -523.5947 65.50275 L -532.5947 69.30275 L -543.5947 73.30275 L -552.9947 76.10275 L -561.9947 78.70275 L -570.9947 81.30275 L -576.3947 82.70275 L -581.9947 83.70275 L -584.9947 77.30275 L -581.1947 76.50275 L -576.3947 75.30275 L -570.7947 74.10275 L -564.7947 72.30275 L -560.1947 70.90275 L -555.9947 69.70275 L -551.3947 67.70275 L -546.7947 66.10275 L -541.9947 64.10275 L -537.9947 62.70275 L -532.7947 60.50275 L -528.1947 58.90275 L -523.3947 56.70275 L -518.5947 54.90275 L -514.5947 52.90275 L -510.1947 50.70275 L -505.7947 48.50275 L -502.3947 46.90275 Z" fill="#00009f"/>
      <path d="M -500.5947 53.50275 L -506.7947 57.90275 L -514.9947 61.90275 L -523.5947 65.50275 L -532.5947 69.30275 L -543.5947 73.30275 L -552.9947 76.10275 L -561.9947 78.70275 L -570.9947 81.30275 L -576.3947 82.70275 L -581.9947 83.70275 L -584.9947 77.30275 L -581.1947 76.50275 L -576.3947 75.30275 L -570.7947 74.10275 L -564.7947 72.30275 L -560.1947 70.90275 L -555.9947 69.70275 L -551.3947 67.70275 L -546.7947 66.10275 L -541.9947 64.10275 L -537.9947 62.70275 L -532.7947 60.50275 L -528.1947 58.90275 L -523.3947 56.70275 L -518.5947 54.90275 L -514.5947 52.90275 L -510.1947 50.70275 L -505.7947 48.50275 L -502.3947 46.90275 Z" stroke="#7f8080" stroke-linecap="round" stroke-linejoin="round" stroke-width="1"/>
      <path d="M -781.4279 -95.03621 L -786.15705 -90.98264 C -787.3074 -89.99662 -788.5524 -89.12669 -789.8738 -88.38552 L -792.4004 -86.96835 C -793.8356 -86.16338 -794.4164 -84.39425 -793.7376 -82.89527 L -792.72 -80.64803 C -792.5984 -80.379545 -792.4717 -80.11342 -792.3399 -79.8498 L -790.5376 -76.24526 L -788.0506 -71.27129 C -787.7088 -70.5877 -787.3332 -69.92157 -786.92505 -69.275375 L -784.5987 -65.59192 C -784.1583 -64.894655 -783.6807 -64.22158 -783.16805 -63.57561 L -779.7574 -59.27815 C -779.2113 -58.590125 -778.6263 -57.933944 -778.0052 -57.31283 L -773.3391 -52.64679 C -772.9383 -52.24591 -772.5227 -51.85999 -772.0933 -51.48982 L -767.5298 -47.555744 C -767.1351 -47.21552 -766.729 -46.88881 -766.31215 -46.576173 L -762.3372 -43.59497 C -761.6713 -43.095533 -760.9788 -42.632617 -760.2627 -42.208263 L -756.1296 -39.75904 C -756.0016 -39.68319 -755.8729 -39.608586 -755.7434 -39.535235 L -751.0459 -36.87329 C -750.3076 -36.454927 -749.5467 -36.07774 -748.76675 -35.743466 L -745.2169 -34.222117 C -744.631 -33.97099 -744.0348 -33.744334 -743.43 -33.542736 L -738.4119 -31.870034 C -737.1647 -31.454286 -735.8841 -31.146244 -734.5842 -30.949294 L -730.4854 -30.328256 C -730.12024 -30.272936 -729.75385 -30.226417 -729.3865 -30.18874 L -722.5054 -29.482985 C -722.2602 -29.45784 -722.01466 -29.436636 -721.7688 -29.419382 L -717.24165 -29.10169 C -716.7058 -29.064085 -716.1688 -29.045266 -715.6316 -29.045266 L -712.3695 -29.045264 C -711.4158 -29.045264 -710.4631 -29.10458 -709.5167 -29.222873 L -705.528 -29.721463 C -704.86805 -29.803958 -704.212 -29.91504 -703.56165 -30.0544 L -697.4796 -31.35769 C -696.5857 -31.549236 -695.7041 -31.793903 -694.8393 -32.09039 L -690.3305 -33.63628 C -689.5358 -33.90873 -688.7567 -34.224514 -687.9966 -34.582207 L -683.1632 -36.856737 C -682.613 -37.115653 -682.0733 -37.396286 -681.5454 -37.697975 L -677.7775 -39.85104 C -677.0847 -40.24692 -676.413 -40.678585 -675.7651 -41.14428 L -671.0889 -44.505246 C -670.58825 -44.86511 -670.10224 -45.244967 -669.6321 -45.64389 L -664.3112 -50.158555 C -663.9289 -50.48294 -663.5573 -50.81974 -663.197 -51.168416 L -658.4978 -55.716044 C -657.8582 -56.335 -657.2551 -56.990565 -656.6915 -57.679424 L -652.8982 -62.31566 C -652.3915 -62.93497 -651.9174 -63.58031 -651.478 -64.24904 L -647.8608 -69.753436 C -647.6454 -70.08127 -647.4384 -70.41456 -647.24 -70.75298 L -644.7169 -75.05708 C -644.33094 -75.71546 -643.978 -76.39265 -643.6594 -77.08612 L -641.5407 -81.69739 C -641.0078 -82.85715 -640.6367 -84.08456 -640.4376 -85.34526 L -640.4376 -85.34526 C -640.2593 -86.47453 -640.8386 -87.58797 -641.8657 -88.0901 L -647.1591 -90.678 C -648.4736 -91.32063 -649.7082 -92.11514 -650.8376 -93.04526 L -651.2436 -93.37963 C -652.08795 -94.07496 -652.71136 -95.00126 -653.0376 -96.04526 L -653.0376 -96.04526 C -653.0843 -96.19458 -653.24314 -96.2778 -653.39246 -96.23114 C -653.5075 -96.19518 -653.5872 -96.09031 -653.5911 -95.96981 L -653.7003 -92.54689 C -653.79106 -89.70381 -654.4084 -86.90224 -655.521 -84.28433 L -656.39794 -82.22096 C -656.9565 -80.90669 -657.63626 -79.64729 -658.4284 -78.45909 L -662.1142 -72.93042 C -662.8617 -71.80915 -663.7063 -70.75575 -664.63825 -69.78238 L -670.9333 -63.20753 C -671.8014 -62.300875 -672.7422 -61.466804 -673.7464 -60.71367 L -682.1213 -54.432495 C -682.9977 -53.77518 -683.92 -53.181326 -684.88104 -52.65546 L -692.06624 -48.72394 C -693.3774 -48.00653 -694.7553 -47.41863 -696.1805 -46.96857 L -702.8534 -44.861334 C -704.5703 -44.319163 -706.3449 -43.98046 -708.1407 -43.852185 L -715.0272 -43.360296 C -716.0995 -43.283703 -717.1758 -43.282384 -718.2483 -43.35635 L -726.6846 -43.93816 C -727.71875 -44.00948 -728.7469 -44.15064 -729.76205 -44.360667 L -736.8973 -45.836916 C -738.8492 -46.24077 -740.7404 -46.89665 -742.5232 -47.78808 L -747.18265 -50.117785 C -748.4168 -50.734853 -749.5929 -51.461726 -750.6967 -52.28961 L -756.3787 -56.55108 C -756.8178 -56.88043 -757.245 -57.2254 -757.6595 -57.58532 L -763.4147 -62.58324 C -764.229 -63.29038 -764.9925 -64.05392 -765.6996 -64.86821 L -770.1049 -69.94089 C -770.859 -70.80925 -771.5469 -71.73295 -772.1628 -72.70422 L -775.8965 -78.59198 C -776.2571 -79.16056 -776.5925 -79.7447 -776.9018 -80.34272 L -778.5222 -83.47544 C -779.1313 -84.65312 -779.6375 -85.88126 -780.035 -87.14615 L -781.3153 -91.21964 C -781.53005 -91.90302 -781.7128 -92.59605 -781.8629 -93.29649 L -782.0883 -94.34843 C -782.1734 -94.74544 -781.947 -95.14309 -781.5622 -95.27263 L -781.5622 -95.27263 C -781.4897 -95.29704 -781.4112 -95.25805 -781.38675 -95.18556 C -781.3687 -95.13205 -781.385 -95.07296 -781.4279 -95.03621 Z" fill="#0000c1"/>
      <path d="M -781.4279 -95.03621 L -786.15705 -90.98264 C -787.3074 -89.99662 -788.5524 -89.12669 -789.8738 -88.38552 L -792.4004 -86.96835 C -793.8356 -86.16338 -794.4164 -84.39425 -793.7376 -82.89527 L -792.72 -80.64803 C -792.5984 -80.379545 -792.4717 -80.11342 -792.3399 -79.8498 L -790.5376 -76.24526 L -788.0506 -71.27129 C -787.7088 -70.5877 -787.3332 -69.92157 -786.92505 -69.275375 L -784.5987 -65.59192 C -784.1583 -64.894655 -783.6807 -64.22158 -783.16805 -63.57561 L -779.7574 -59.27815 C -779.2113 -58.590125 -778.6263 -57.933944 -778.0052 -57.31283 L -773.3391 -52.64679 C -772.9383 -52.24591 -772.5227 -51.85999 -772.0933 -51.48982 L -767.5298 -47.555744 C -767.1351 -47.21552 -766.729 -46.88881 -766.31215 -46.576173 L -762.3372 -43.59497 C -761.6713 -43.095533 -760.9788 -42.632617 -760.2627 -42.208263 L -756.1296 -39.75904 C -756.0016 -39.68319 -755.8729 -39.608586 -755.7434 -39.535235 L -751.0459 -36.87329 C -750.3076 -36.454927 -749.5467 -36.07774 -748.76675 -35.743466 L -745.2169 -34.222117 C -744.631 -33.97099 -744.0348 -33.744334 -743.43 -33.542736 L -738.4119 -31.870034 C -737.1647 -31.454286 -735.8841 -31.146244 -734.5842 -30.949294 L -730.4854 -30.328256 C -730.12024 -30.272936 -729.75385 -30.226417 -729.3865 -30.18874 L -722.5054 -29.482985 C -722.2602 -29.45784 -722.01466 -29.436636 -721.7688 -29.419382 L -717.24165 -29.10169 C -716.7058 -29.064085 -716.1688 -29.045266 -715.6316 -29.045266 L -712.3695 -29.045264 C -711.4158 -29.045264 -710.4631 -29.10458 -709.5167 -29.222873 L -705.528 -29.721463 C -704.86805 -29.803958 -704.212 -29.91504 -703.56165 -30.0544 L -697.4796 -31.35769 C -696.5857 -31.549236 -695.7041 -31.793903 -694.8393 -32.09039 L -690.3305 -33.63628 C -689.5358 -33.90873 -688.7567 -34.224514 -687.9966 -34.582207 L -683.1632 -36.856737 C -682.613 -37.115653 -682.0733 -37.396286 -681.5454 -37.697975 L -677.7775 -39.85104 C -677.0847 -40.24692 -676.413 -40.678585 -675.7651 -41.14428 L -671.0889 -44.505246 C -670.58825 -44.86511 -670.10224 -45.244967 -669.6321 -45.64389 L -664.3112 -50.158555 C -663.9289 -50.48294 -663.5573 -50.81974 -663.197 -51.168416 L -658.4978 -55.716044 C -657.8582 -56.335 -657.2551 -56.990565 -656.6915 -57.679424 L -652.8982 -62.31566 C -652.3915 -62.93497 -651.9174 -63.58031 -651.478 -64.24904 L -647.8608 -69.753436 C -647.6454 -70.08127 -647.4384 -70.41456 -647.24 -70.75298 L -644.7169 -75.05708 C -644.33094 -75.71546 -643.978 -76.39265 -643.6594 -77.08612 L -641.5407 -81.69739 C -641.0078 -82.85715 -640.6367 -84.08456 -640.4376 -85.34526 L -640.4376 -85.34526 C -640.2593 -86.47453 -640.8386 -87.58797 -641.8657 -88.0901 L -647.1591 -90.678 C -648.4736 -91.32063 -649.7082 -92.11514 -650.8376 -93.04526 L -651.2436 -93.37963 C -652.08795 -94.07496 -652.71136 -95.00126 -653.0376 -96.04526 L -653.0376 -96.04526 C -653.0843 -96.19458 -653.24314 -96.2778 -653.39246 -96.23114 C -653.5075 -96.19518 -653.5872 -96.09031 -653.5911 -95.96981 L -653.7003 -92.54689 C -653.79106 -89.70381 -654.4084 -86.90224 -655.521 -84.28433 L -656.39794 -82.22096 C -656.9565 -80.90669 -657.63626 -79.64729 -658.4284 -78.45909 L -662.1142 -72.93042 C -662.8617 -71.80915 -663.7063 -70.75575 -664.63825 -69.78238 L -670.9333 -63.20753 C -671.8014 -62.300875 -672.7422 -61.466804 -673.7464 -60.71367 L -682.1213 -54.432495 C -682.9977 -53.77518 -683.92 -53.181326 -684.88104 -52.65546 L -692.06624 -48.72394 C -693.3774 -48.00653 -694.7553 -47.41863 -696.1805 -46.96857 L -702.8534 -44.861334 C -704.5703 -44.319163 -706.3449 -43.98046 -708.1407 -43.852185 L -715.0272 -43.360296 C -716.0995 -43.283703 -717.1758 -43.282384 -718.2483 -43.35635 L -726.6846 -43.93816 C -727.71875 -44.00948 -728.7469 -44.15064 -729.76205 -44.360667 L -736.8973 -45.836916 C -738.8492 -46.24077 -740.7404 -46.89665 -742.5232 -47.78808 L -747.18265 -50.117785 C -748.4168 -50.734853 -749.5929 -51.461726 -750.6967 -52.28961 L -756.3787 -56.55108 C -756.8178 -56.88043 -757.245 -57.2254 -757.6595 -57.58532 L -763.4147 -62.58324 C -764.229 -63.29038 -764.9925 -64.05392 -765.6996 -64.86821 L -770.1049 -69.94089 C -770.859 -70.80925 -771.5469 -71.73295 -772.1628 -72.70422 L -775.8965 -78.59198 C -776.2571 -79.16056 -776.5925 -79.7447 -776.9018 -80.34272 L -778.5222 -83.47544 C -779.1313 -84.65312 -779.6375 -85.88126 -780.035 -87.14615 L -781.3153 -91.21964 C -781.53005 -91.90302 -781.7128 -92.59605 -781.8629 -93.29649 L -782.0883 -94.34843 C -782.1734 -94.74544 -781.947 -95.14309 -781.5622 -95.27263 L -781.5622 -95.27263 C -781.4897 -95.29704 -781.4112 -95.25805 -781.38675 -95.18556 C -781.3687 -95.13205 -781.385 -95.07296 -781.4279 -95.03621 Z" stroke="#7f8080" stroke-linecap="round" stroke-linejoin="round" stroke-width="1"/>
      <path d="M -781.94075 -95.24411 L -776.54075 -95.84411 L -769.74075 -92.44411 L -764.74075 -90.64411 L -756.34075 -88.84411 L -747.94075 -87.84411 L -739.94075 -86.84411 L -732.34075 -86.64411 L -723.74075 -86.24411 L -712.14075 -86.44411 L -703.74075 -86.84411 L -694.34075 -87.44411 L -685.94075 -88.24411 L -676.74075 -89.64411 L -668.54075 -91.84411 L -662.74075 -93.64411 L -657.14075 -96.24411 L -654.34075 -95.04411 L -653.94075 -89.44411 L -656.74075 -81.44411 L -662.14075 -78.64411 L -672.74075 -75.44411 L -684.14075 -73.04411 L -695.34075 -72.24411 L -707.74075 -71.24411 L -718.14075 -71.24411 L -727.54075 -71.24411 L -739.14075 -71.84411 L -750.34075 -72.64411 L -760.94075 -74.84411 L -769.54075 -76.84411 L -775.74075 -79.64411 L -777.74075 -81.24411 L -780.94075 -88.84411 Z" fill="#0000a5"/>
      <path d="M -781.94075 -95.24411 L -776.54075 -95.84411 L -769.74075 -92.44411 L -764.74075 -90.64411 L -756.34075 -88.84411 L -747.94075 -87.84411 L -739.94075 -86.84411 L -732.34075 -86.64411 L -723.74075 -86.24411 L -712.14075 -86.44411 L -703.74075 -86.84411 L -694.34075 -87.44411 L -685.94075 -88.24411 L -676.74075 -89.64411 L -668.54075 -91.84411 L -662.74075 -93.64411 L -657.14075 -96.24411 L -654.34075 -95.04411 L -653.94075 -89.44411 L -656.74075 -81.44411 L -662.14075 -78.64411 L -672.74075 -75.44411 L -684.14075 -73.04411 L -695.34075 -72.24411 L -707.74075 -71.24411 L -718.14075 -71.24411 L -727.54075 -71.24411 L -739.14075 -71.84411 L -750.34075 -72.64411 L -760.94075 -74.84411 L -769.54075 -76.84411 L -775.74075 -79.64411 L -777.74075 -81.24411 L -780.94075 -88.84411 Z" stroke="#7f8080" stroke-linecap="round" stroke-linejoin="round" stroke-width="1"/>
      <path d="M -852.9444 330.2 L -852.9444 330.2 C -853.01 330.7255 -852.9472 331.25905 -852.7613 331.7549 L -852.1103 333.49092 C -851.9335 333.96227 -851.7064 334.41318 -851.433 334.8358 L -850.4651 336.33153 C -849.9242 337.16756 -849.2111 337.87855 -848.3735 338.41702 L -847.2954 339.11005 C -846.9951 339.30307 -846.6806 339.47285 -846.3544 339.6179 L -845.0376 340.2035 C -844.441 340.46876 -843.8103 340.6493 -843.1638 340.7398 L -834.1534 342.00126 C -834.1434 342.00265 -834.1334 342.00403 -834.1234 342.0054 L -822.4074 343.594 C -822.3614 343.60024 -822.3153 343.606 -822.2692 343.61134 L -811.9863 344.79783 C -811.9543 344.8015 -811.9224 344.80498 -811.8904 344.8082 L -798.1803 346.1991 C -798.1524 346.20193 -798.1244 346.2046 -798.09635 346.2071 L -786.99105 347.19865 C -786.9559 347.2018 -786.9208 347.20466 -786.8856 347.20726 L -776.1991 347.99886 C -776.1586 348.00185 -776.1181 348.0045 -776.0776 348.0068 L -765.5696 348.6016 C -765.5488 348.60276 -765.528 348.60404 -765.5072 348.6054 L -753.4644 349.3951 C -753.3804 349.4006 -753.2963 349.4046 -753.2121 349.40707 L -739.765 349.80257 C -739.74725 349.8031 -739.7295 349.8037 -739.7117 349.80434 L -729.0679 350.19856 C -728.98154 350.20176 -728.8952 350.20335 -728.8088 350.20335 L -718.1998 350.20335 C -718.1588 350.20335 -718.1179 350.2037 -718.077 350.20443 L -706.9906 350.39893 C -706.8225 350.40188 -706.6544 350.39877 -706.4865 350.3896 L -695.8653 349.81028 C -695.7807 349.80566 -695.696 349.8026 -695.6113 349.80104 L -684.8467 349.60532 C -684.7745 349.604 -684.7023 349.6016 -684.6301 349.59803 L -672.6115 349.00695 C -672.56275 349.00455 -672.514 349.00165 -672.4653 348.99823 L -661.2253 348.20945 C -661.16734 348.2054 -661.10946 348.2006 -661.0516 348.1951 L -648.6411 347.01313 C -648.5726 347.0066 -648.50405 347.0011 -648.4354 346.9966 L -636.5034 346.21418 C -636.3934 346.20696 -636.2836 346.19715 -636.174 346.18475 L -625.7617 345.006 C -625.74614 345.00423 -625.7306 345.00242 -625.7151 345.00056 L -615.7674 343.80683 C -615.748 343.8045 -615.7287 343.8021 -615.7094 343.79963 L -601.8736 342.0221 C -601.7764 342.0096 -601.6795 341.99507 -601.5829 341.9785 L -595.0294 340.85506 C -594.8284 340.8206 -594.62605 340.79495 -594.42285 340.77817 L -591.1905 340.5112 C -590.3013 340.43775 -589.4343 340.19497 -588.6362 339.79594 L -587.1499 339.0528 C -586.54934 338.7525 -585.9951 338.36735 -585.5042 337.9092 L -584.1691 336.6631 C -583.56226 336.0967 -583.10685 335.38747 -582.84436 334.6 L -582.5495 333.71552 C -582.47945 333.5053 -582.4194 333.29187 -582.3696 333.07595 L -581.8999 331.04056 C -581.86465 330.88792 -581.8981 330.72752 -581.99136 330.6017 L -581.99136 330.6017 C -582.0817 330.4798 -582.23235 330.4183 -582.3822 330.44214 L -590.862 331.7912 C -590.9129 331.7993 -590.9637 331.80796 -591.0144 331.8172 L -603.9992 334.17805 C -604.092 334.1949 -604.1851 334.2099 -604.27846 334.223 L -615.50815 335.7991 C -615.5283 335.80194 -615.5484 335.80486 -615.56855 335.80786 L -628.69114 337.76645 C -628.8559 337.79105 -629.0215 337.80975 -629.1876 337.82253 L -641.9124 338.80136 C -641.9297 338.8027 -641.947 338.80396 -641.96434 338.80516 L -656.3045 339.801 C -656.3271 339.80257 -656.3497 339.80403 -656.3723 339.80538 L -669.6755 340.5996 C -669.7174 340.6021 -669.7593 340.60423 -669.8013 340.60597 L -683.9927 341.1973 C -684.0898 341.20133 -684.187 341.20335 -684.2841 341.20335 L -697.5384 341.20335 L -710.08 341.20335 C -710.1189 341.20335 -710.1578 341.20368 -710.1967 341.20433 L -721.9551 341.4003 C -722.07725 341.40234 -722.1995 341.40117 -722.3216 341.3968 L -733.1552 341.0099 C -733.2773 341.00554 -733.3995 341.00437 -733.5217 341.0064 L -745.2363 341.20165 C -745.3043 341.2028 -745.3724 341.20293 -745.44045 341.20208 L -761.1427 341.0058 C -761.2731 341.00417 -761.4035 340.9989 -761.5336 340.99 L -775.84335 340.00986 C -775.9067 340.00552 -775.97 340.00032 -776.0332 339.99426 L -790.5242 338.6047 C -790.5336 338.6038 -790.5431 338.6029 -790.55255 338.60194 L -804.3646 337.22073 C -804.4804 337.20915 -804.596 337.19468 -804.7111 337.17733 L -819.0202 335.02116 C -819.099 335.0093 -819.1779 334.99877 -819.2571 334.9896 L -832.777 333.42207 C -832.8846 333.4096 -832.9918 333.39463 -833.0987 333.37718 L -842.4908 331.84377 C -842.6558 331.81684 -842.8198 331.784 -842.9824 331.7453 L -852.06 329.58654 C -852.4483 329.4942 -852.838 329.73412 -852.9303 330.12244 C -852.9364 330.14802 -852.9411 330.1739 -852.9444 330.2 Z" fill="#0000a8"/>
      <path d="M -852.9444 330.2 L -852.9444 330.2 C -853.01 330.7255 -852.9472 331.25905 -852.7613 331.7549 L -852.1103 333.49092 C -851.9335 333.96227 -851.7064 334.41318 -851.433 334.8358 L -850.4651 336.33153 C -849.9242 337.16756 -849.2111 337.87855 -848.3735 338.41702 L -847.2954 339.11005 C -846.9951 339.30307 -846.6806 339.47285 -846.3544 339.6179 L -845.0376 340.2035 C -844.441 340.46876 -843.8103 340.6493 -843.1638 340.7398 L -834.1534 342.00126 C -834.1434 342.00265 -834.1334 342.00403 -834.1234 342.0054 L -822.4074 343.594 C -822.3614 343.60024 -822.3153 343.606 -822.2692 343.61134 L -811.9863 344.79783 C -811.9543 344.8015 -811.9224 344.80498 -811.8904 344.8082 L -798.1803 346.1991 C -798.1524 346.20193 -798.1244 346.2046 -798.09635 346.2071 L -786.99105 347.19865 C -786.9559 347.2018 -786.9208 347.20466 -786.8856 347.20726 L -776.1991 347.99886 C -776.1586 348.00185 -776.1181 348.0045 -776.0776 348.0068 L -765.5696 348.6016 C -765.5488 348.60276 -765.528 348.60404 -765.5072 348.6054 L -753.4644 349.3951 C -753.3804 349.4006 -753.2963 349.4046 -753.2121 349.40707 L -739.765 349.80257 C -739.74725 349.8031 -739.7295 349.8037 -739.7117 349.80434 L -729.0679 350.19856 C -728.98154 350.20176 -728.8952 350.20335 -728.8088 350.20335 L -718.1998 350.20335 C -718.1588 350.20335 -718.1179 350.2037 -718.077 350.20443 L -706.9906 350.39893 C -706.8225 350.40188 -706.6544 350.39877 -706.4865 350.3896 L -695.8653 349.81028 C -695.7807 349.80566 -695.696 349.8026 -695.6113 349.80104 L -684.8467 349.60532 C -684.7745 349.604 -684.7023 349.6016 -684.6301 349.59803 L -672.6115 349.00695 C -672.56275 349.00455 -672.514 349.00165 -672.4653 348.99823 L -661.2253 348.20945 C -661.16734 348.2054 -661.10946 348.2006 -661.0516 348.1951 L -648.6411 347.01313 C -648.5726 347.0066 -648.50405 347.0011 -648.4354 346.9966 L -636.5034 346.21418 C -636.3934 346.20696 -636.2836 346.19715 -636.174 346.18475 L -625.7617 345.006 C -625.74614 345.00423 -625.7306 345.00242 -625.7151 345.00056 L -615.7674 343.80683 C -615.748 343.8045 -615.7287 343.8021 -615.7094 343.79963 L -601.8736 342.0221 C -601.7764 342.0096 -601.6795 341.99507 -601.5829 341.9785 L -595.0294 340.85506 C -594.8284 340.8206 -594.62605 340.79495 -594.42285 340.77817 L -591.1905 340.5112 C -590.3013 340.43775 -589.4343 340.19497 -588.6362 339.79594 L -587.1499 339.0528 C -586.54934 338.7525 -585.9951 338.36735 -585.5042 337.9092 L -584.1691 336.6631 C -583.56226 336.0967 -583.10685 335.38747 -582.84436 334.6 L -582.5495 333.71552 C -582.47945 333.5053 -582.4194 333.29187 -582.3696 333.07595 L -581.8999 331.04056 C -581.86465 330.88792 -581.8981 330.72752 -581.99136 330.6017 L -581.99136 330.6017 C -582.0817 330.4798 -582.23235 330.4183 -582.3822 330.44214 L -590.862 331.7912 C -590.9129 331.7993 -590.9637 331.80796 -591.0144 331.8172 L -603.9992 334.17805 C -604.092 334.1949 -604.1851 334.2099 -604.27846 334.223 L -615.50815 335.7991 C -615.5283 335.80194 -615.5484 335.80486 -615.56855 335.80786 L -628.69114 337.76645 C -628.8559 337.79105 -629.0215 337.80975 -629.1876 337.82253 L -641.9124 338.80136 C -641.9297 338.8027 -641.947 338.80396 -641.96434 338.80516 L -656.3045 339.801 C -656.3271 339.80257 -656.3497 339.80403 -656.3723 339.80538 L -669.6755 340.5996 C -669.7174 340.6021 -669.7593 340.60423 -669.8013 340.60597 L -683.9927 341.1973 C -684.0898 341.20133 -684.187 341.20335 -684.2841 341.20335 L -697.5384 341.20335 L -710.08 341.20335 C -710.1189 341.20335 -710.1578 341.20368 -710.1967 341.20433 L -721.9551 341.4003 C -722.07725 341.40234 -722.1995 341.40117 -722.3216 341.3968 L -733.1552 341.0099 C -733.2773 341.00554 -733.3995 341.00437 -733.5217 341.0064 L -745.2363 341.20165 C -745.3043 341.2028 -745.3724 341.20293 -745.44045 341.20208 L -761.1427 341.0058 C -761.2731 341.00417 -761.4035 340.9989 -761.5336 340.99 L -775.84335 340.00986 C -775.9067 340.00552 -775.97 340.00032 -776.0332 339.99426 L -790.5242 338.6047 C -790.5336 338.6038 -790.5431 338.6029 -790.55255 338.60194 L -804.3646 337.22073 C -804.4804 337.20915 -804.596 337.19468 -804.7111 337.17733 L -819.0202 335.02116 C -819.099 335.0093 -819.1779 334.99877 -819.2571 334.9896 L -832.777 333.42207 C -832.8846 333.4096 -832.9918 333.39463 -833.0987 333.37718 L -842.4908 331.84377 C -842.6558 331.81684 -842.8198 331.784 -842.9824 331.7453 L -852.06 329.58654 C -852.4483 329.4942 -852.838 329.73412 -852.9303 330.12244 C -852.9364 330.14802 -852.9411 330.1739 -852.9444 330.2 Z" stroke="#7f8080" stroke-linecap="round" stroke-linejoin="round" stroke-width="1"/>
      <path d="M -658 -54.25 L -652 -63.25 L -644 -73.25 L -640 -84.25 L -630 -79 L -621 -75.25 L -612 -73.25 L -616 336 L -631 338 L -643 339.5 L -654 339.5 Z" fill="red"/>
      <path d="M -658 -54.25 L -652 -63.25 L -644 -73.25 L -640 -84.25 L -630 -79 L -621 -75.25 L -612 -73.25 L -616 336 L -631 338 L -643 339.5 L -654 339.5 Z" stroke="#a5a5a5" stroke-linecap="round" stroke-linejoin="round" stroke-width="1"/>
    </g>
  </g>
</svg>
