<?xml version="1.0" encoding="UTF-8" standalone="no"?>
<!DOCTYPE svg PUBLIC "-//W3C//DTD SVG 1.1//EN" "http://www.w3.org/Graphics/SVG/1.1/DTD/svg11.dtd">
<svg xmlns="http://www.w3.org/2000/svg" xmlns:xl="http://www.w3.org/1999/xlink" version="1.1" viewBox="483.5 647.5 432.9053 448.4" width="432.9053pt" height="448.4pt" xmlns:dc="http://purl.org/dc/elements/1.1/">
  <metadata> Produced by OmniGraffle 7.4.2 
    <dc:date>2018-03-15 05:39:37 +0000</dc:date>
  </metadata>
  <defs>
    <radialGradient cx="0" cy="0" r="1" id="Gradient" gradientUnits="userSpaceOnUse">
      <stop offset="0" stop-color="#cbcbcb"/>
      <stop offset="1" stop-color="#212121"/>
    </radialGradient>
    <radialGradient id="Obj_Gradient" xl:href="#Gradient" gradientTransform="translate(698.75925 675.4) scale(70.26272)"/>
    <linearGradient x1="0" x2="1" id="Gradient_2" gradientUnits="userSpaceOnUse">
      <stop offset="0" stop-color="#011893"/>
      <stop offset="1" stop-color="#011b88"/>
    </linearGradient>
    <linearGradient id="Obj_Gradient_2" xl:href="#Gradient_2" gradientTransform="translate(699.70264 649.2817) rotate(90) scale(446.1183)"/>
    <radialGradient cx="0" cy="0" r="1" id="Gradient_3" gradientUnits="userSpaceOnUse">
      <stop offset="0" stop-color="blue"/>
      <stop offset="1" stop-color="#333"/>
    </radialGradient>
    <radialGradient id="Obj_Gradient_3" xl:href="#Gradient_3" gradientTransform="translate(526.2 811.2461) scale(46.03694)"/>
    <radialGradient id="Obj_Gradient_4" xl:href="#Gradient_3" gradientTransform="translate(873.2053 810.30275) scale(46.03694)"/>
    <radialGradient cx="0" cy="0" r="1" id="Gradient_4" gradientUnits="userSpaceOnUse">
      <stop offset="0" stop-color="#011893"/>
      <stop offset="1" stop-color="#241209"/>
    </radialGradient>
    <radialGradient id="Obj_Gradient_5" xl:href="#Gradient_4" gradientTransform="translate(699.3297 1084.9834) scale(135.94141)"/>
  </defs>
  <g stroke="none" stroke-opacity="1" stroke-dasharray="none" fill="none" fill-opacity="1">
    <title>japon</title>
    <rect fill="white" width="432.9053" height="448.4"/>
    <g>
      <title>Capa 1</title>
      <path d="M 637.00565 648.59045 L 645.1711 651.7082 C 646.0291 652.03576 646.90594 652.3117 647.7969 652.5344 L 661.5141 655.9637 C 662.67576 656.2541 663.8583 656.4534 665.051 656.5597 L 682.57715 658.1214 C 683.165 658.1738 683.75464 658.2035 684.3448 658.21054 L 699.8237 658.3948 C 700.114 658.3983 700.4044 658.3962 700.6947 658.3887 L 715.118 658.01406 C 715.4788 658.0047 715.8393 657.9868 716.1992 657.9605 L 730.5705 656.9089 C 731.562 656.8364 732.5477 656.69964 733.5214 656.49956 L 745.0944 654.12155 C 746.1364 653.90744 747.1623 653.6213 748.16465 653.2652 L 759.9166 649.0901 C 761.007 648.7028 762.2102 649.23354 762.65925 650.3 L 762.65925 650.3 C 763.1814 651.5401 763.3334 652.90485 763.09685 654.22945 L 762.9164 655.2401 C 762.6126 656.9413 762.1181 658.6028 761.4421 660.1932 L 759.8989 663.8243 C 759.34035 665.1386 758.6606 666.398 757.8685 667.5862 L 754.1827 673.11485 C 753.4352 674.2361 752.5906 675.2895 751.6586 676.2629 L 745.3635 682.8377 C 744.4955 683.7444 743.5546 684.5785 742.5505 685.3316 L 734.17555 691.6128 C 733.2991 692.2701 732.3769 692.8639 731.4158 693.3898 L 724.2306 697.3213 C 722.9195 698.0387 721.5416 698.6266 720.1164 699.0767 L 713.4435 701.1839 C 711.7266 701.7261 709.952 702.0648 708.1561 702.1931 L 701.2697 702.685 C 700.1974 702.7616 699.121 702.7629 698.04854 702.6889 L 689.6123 702.1071 C 688.5781 702.0358 687.5499 701.8946 686.5348 701.6846 L 679.3996 700.20835 C 677.44765 699.8045 675.5565 699.1486 673.7736 698.2572 L 669.1142 695.9275 C 667.8801 695.3104 666.704 694.5835 665.6001 693.75566 L 659.9182 689.4942 C 659.479 689.1648 659.0518 688.8199 658.6374 688.45995 L 652.8822 683.462 C 652.0679 682.7549 651.3044 681.99135 650.5972 681.1771 L 646.192 676.1044 C 645.4379 675.236 644.75 674.3123 644.13406 673.34105 L 640.40036 667.4533 C 640.0398 666.8847 639.7044 666.3006 639.39505 665.70255 L 637.7747 662.5698 C 637.1655 661.39215 636.6594 660.164 636.2618 658.8991 L 634.9816 654.8256 C 634.7668 654.14225 634.5841 653.4492 634.434 652.7488 L 634.35925 652.4 C 634.1646 651.4916 634.27185 650.5444 634.6647 649.70254 L 634.75925 649.5 C 635.1537 648.6547 636.1342 648.2577 637.00565 648.59045 Z" fill="url(#Obj_Gradient)"/>
      <path d="M 637.00565 648.59045 L 645.1711 651.7082 C 646.0291 652.03576 646.90594 652.3117 647.7969 652.5344 L 661.5141 655.9637 C 662.67576 656.2541 663.8583 656.4534 665.051 656.5597 L 682.57715 658.1214 C 683.165 658.1738 683.75464 658.2035 684.3448 658.21054 L 699.8237 658.3948 C 700.114 658.3983 700.4044 658.3962 700.6947 658.3887 L 715.118 658.01406 C 715.4788 658.0047 715.8393 657.9868 716.1992 657.9605 L 730.5705 656.9089 C 731.562 656.8364 732.5477 656.69964 733.5214 656.49956 L 745.0944 654.12155 C 746.1364 653.90744 747.1623 653.6213 748.16465 653.2652 L 759.9166 649.0901 C 761.007 648.7028 762.2102 649.23354 762.65925 650.3 L 762.65925 650.3 C 763.1814 651.5401 763.3334 652.90485 763.09685 654.22945 L 762.9164 655.2401 C 762.6126 656.9413 762.1181 658.6028 761.4421 660.1932 L 759.8989 663.8243 C 759.34035 665.1386 758.6606 666.398 757.8685 667.5862 L 754.1827 673.11485 C 753.4352 674.2361 752.5906 675.2895 751.6586 676.2629 L 745.3635 682.8377 C 744.4955 683.7444 743.5546 684.5785 742.5505 685.3316 L 734.17555 691.6128 C 733.2991 692.2701 732.3769 692.8639 731.4158 693.3898 L 724.2306 697.3213 C 722.9195 698.0387 721.5416 698.6266 720.1164 699.0767 L 713.4435 701.1839 C 711.7266 701.7261 709.952 702.0648 708.1561 702.1931 L 701.2697 702.685 C 700.1974 702.7616 699.121 702.7629 698.04854 702.6889 L 689.6123 702.1071 C 688.5781 702.0358 687.5499 701.8946 686.5348 701.6846 L 679.3996 700.20835 C 677.44765 699.8045 675.5565 699.1486 673.7736 698.2572 L 669.1142 695.9275 C 667.8801 695.3104 666.704 694.5835 665.6001 693.75566 L 659.9182 689.4942 C 659.479 689.1648 659.0518 688.8199 658.6374 688.45995 L 652.8822 683.462 C 652.0679 682.7549 651.3044 681.99135 650.5972 681.1771 L 646.192 676.1044 C 645.4379 675.236 644.75 674.3123 644.13406 673.34105 L 640.40036 667.4533 C 640.0398 666.8847 639.7044 666.3006 639.39505 665.70255 L 637.7747 662.5698 C 637.1655 661.39215 636.6594 660.164 636.2618 658.8991 L 634.9816 654.8256 C 634.7668 654.14225 634.5841 653.4492 634.434 652.7488 L 634.35925 652.4 C 634.1646 651.4916 634.27185 650.5444 634.6647 649.70254 L 634.75925 649.5 C 635.1537 648.6547 636.1342 648.2577 637.00565 648.59045 Z" stroke="#7f8080" stroke-linecap="round" stroke-linejoin="round" stroke-width="1"/>
      <path d="M 572.97346 1085.2638 L 586.7157 1087.5542 C 586.8991 1087.5847 587.083 1087.6121 587.2673 1087.6362 L 615.62094 1091.3515 C 615.8675 1091.3838 616.1147 1091.4104 616.3625 1091.4312 L 646.6054 1093.9677 C 646.8623 1093.9892 647.1197 1094.0046 647.3773 1094.0137 L 686.3082 1095.39 C 686.4966 1095.3967 686.68504 1095.4 686.8735 1095.4 L 718.34084 1095.4 C 718.5075 1095.4 718.6741 1095.3974 718.8406 1095.3922 L 743.8754 1094.6099 C 744.0856 1094.6033 744.2957 1094.5926 744.50555 1094.5777 L 766.5533 1093.0168 C 766.7116 1093.0056 766.86975 1092.992 767.0277 1092.9761 L 792.28815 1090.4305 C 792.4899 1090.4102 792.6912 1090.386 792.892 1090.358 L 816.6847 1087.0427 C 816.88875 1087.0142 817.0922 1086.9819 817.295 1086.9456 L 826.4908 1085.3 C 831.8179 1084.3467 835.4688 1079.3931 834.8023 1074.0226 L 832.5948 1056.232 C 832.5921 1056.2107 832.5895 1056.1893 832.5869 1056.168 L 829.0231 1026.4695 C 829.0016 1026.2898 828.9831 1026.1099 828.9676 1025.9296 L 826.6054 998.3704 C 826.5957 998.2568 826.5871 998.1431 826.5798 998.0294 L 825.1932 976.4377 C 825.1916 976.4126 825.1899 976.3874 825.1882 976.3623 L 823.596 953.276 C 823.5925 953.2253 823.5893 953.1747 823.5863 953.124 L 822.4099 933.3218 C 822.3972 933.1073 822.3887 932.8925 822.3846 932.6777 L 821.9924 912.0829 C 821.9913 912.0276 821.99 911.9724 821.98835 911.9172 L 821.3932 891.6828 C 821.3916 891.6276 821.3903 891.5724 821.3892 891.5172 L 820.99855 871.0076 C 820.9934 870.7359 820.9951 870.4641 821.0038 870.1925 L 821.5897 851.8329 C 821.5904 851.811 821.5912 851.789 821.592 851.7671 L 822.3801 829.8978 C 822.3872 829.6993 822.3981 829.5009 822.4126 829.3028 L 823.9701 808.0822 C 823.9839 807.8941 823.9944 807.7057 824.0015 807.5172 L 824.756 787.6184 C 824.7792 787.0066 824.8374 786.3967 824.9305 785.79165 L 827.6695 767.9881 C 827.7503 767.463 827.8572 766.9423 827.9898 766.4278 L 832.6181 748.4702 C 832.7332 748.0236 832.8675 747.5822 833.0207 747.14725 L 838.7415 730.9076 C 838.9076 730.4361 839.0957 729.9727 839.3052 729.5188 L 844.8367 717.5338 C 844.9394 717.3113 845.0472 717.0912 845.16 716.87364 L 850.5222 706.5322 C 850.5679 706.4441 850.6145 706.3564 850.6618 706.2691 L 855.8778 696.6521 C 856.615 695.2928 857.5647 694.0599 858.6908 693 L 858.6908 693 C 859.366 692.3645 859.3982 691.302 858.7627 690.6268 C 858.6382 690.4946 858.4931 690.3834 858.333 690.2976 L 855.1188 688.5757 C 854.9002 688.4586 854.6788 688.34656 854.4549 688.2397 L 846.601 684.4912 C 846.1944 684.2972 845.7797 684.1204 845.3582 683.9613 L 835.6834 680.3104 C 835.4883 680.2368 835.2919 680.167 835.0941 680.1011 L 822.3996 675.8696 C 822.2604 675.8232 822.1206 675.7787 821.9801 675.73616 L 809.0966 671.83206 C 809.02605 671.8107 808.9557 671.7888 808.8854 671.7665 L 796.3814 667.7879 C 795.9878 667.6627 795.5992 667.52225 795.2164 667.3669 L 783.2405 662.5071 C 782.4088 662.16964 781.607 661.7628 780.8436 661.2908 L 771.2244 655.3444 C 771.06865 655.2481 770.9146 655.1492 770.7623 655.0477 L 765.8722 651.7876 C 764.8908 651.13335 764.0195 650.32745 763.2908 649.4 L 763.2908 649.4 C 763.1852 649.2656 762.9906 649.24225 762.8562 649.34785 C 762.7535 649.4286 762.7125 649.5651 762.7538 649.6891 L 762.8908 650.1 C 763.35 651.47775 763.4546 652.949 763.1948 654.3779 L 762.7997 656.55115 C 762.5285 658.0428 762.0466 659.48835 761.3686 660.8444 L 759.8363 663.90904 C 759.5396 664.5024 759.2062 665.0768 758.8382 665.6288 L 755.6345 670.4344 C 755.2059 671.0773 754.7313 671.6883 754.2144 672.2626 L 749.6524 677.33156 C 749.6113 677.3772 749.57 677.4226 749.5284 677.4677 L 743.5342 683.97576 C 742.9064 684.6573 742.2207 685.283 741.48465 685.8459 L 736.4605 689.6879 C 736.0143 690.0291 735.5505 690.3465 735.071 690.6389 L 728.5846 694.594 C 727.9229 694.9975 727.2328 695.3523 726.51975 695.6558 L 719.4043 698.6836 C 718.5967 699.0273 717.7621 699.3039 716.90905 699.5107 L 712.83 700.4996 C 712.0052 700.69955 711.1657 700.83356 710.3196 700.90035 L 704.6194 701.3504 C 704.2005 701.38344 703.7804 701.4 703.3602 701.4 L 696.3279 701.4 C 695.5708 701.4 694.8146 701.3463 694.0651 701.2392 L 686.1187 700.104 C 685.6337 700.0347 685.1521 699.9432 684.6755 699.8297 L 678.7143 698.41035 C 677.5688 698.1376 676.4569 697.7393 675.3988 697.2225 L 669.1188 694.15556 C 668.6338 693.9187 668.161 693.6574 667.7024 693.3727 L 663.4905 690.75846 C 662.89135 690.3866 662.3174 689.97546 661.7725 689.5278 L 657.3264 685.8757 C 657.1027 685.6919 656.884 685.5021 656.6706 685.3065 L 652.8683 681.82104 C 652.417 681.40736 651.9898 680.9681 651.58885 680.5055 L 647.4701 675.7531 C 647.1507 675.38455 646.84836 675.0016 646.56395 674.6055 L 642.1343 668.4356 C 641.6394 667.7463 641.2001 667.0187 640.82064 666.2597 L 638.2442 661.1068 C 638.2086 661.0356 638.1735 660.96414 638.139 660.8924 L 636.8908 658.3 C 636.0401 656.5331 635.68455 654.5686 635.8621 652.61564 L 636.0423 650.6334 C 636.0661 650.3715 635.8731 650.13994 635.61125 650.11614 C 635.44886 650.1014 635.2902 650.17075 635.1908 650.3 L 635.1908 650.3 C 634.5273 651.1625 633.7472 651.92856 632.87285 652.57625 L 628.9763 655.4626 C 628.8526 655.5542 628.7276 655.644 628.60136 655.732 L 623.9791 658.9536 C 622.7924 659.7807 621.49895 660.4431 620.1342 660.9226 L 615.5271 662.5413 C 615.0365 662.7137 614.5546 662.9098 614.08316 663.1291 L 607.2364 666.3137 C 606.5402 666.6375 605.82165 666.9107 605.08625 667.13136 L 594.21586 670.3925 C 594.19914 670.3975 594.1824 670.4025 594.1657 670.4076 L 583.19764 673.7372 C 583.05974 673.7791 582.9224 673.8228 582.7857 673.8684 L 569.86446 678.1754 C 569.81534 678.1918 569.76614 678.20795 569.71686 678.22384 L 558.34946 681.89075 C 557.711 682.0967 557.0861 682.3426 556.47846 682.62704 L 548.5465 686.3399 C 548.17616 686.5132 547.8126 686.7007 547.4566 686.9019 L 541.5105 690.2628 C 540.2575 690.971 539.8158 692.5609 540.52406 693.814 C 540.6012 693.9504 540.69045 694.0796 540.7908 694.2 L 541.6549 695.2369 C 542.40984 696.1429 543.0623 697.1295 543.6004 698.1788 L 546.6776 704.1792 C 546.75304 704.3264 546.8308 704.4724 546.9108 704.61715 L 550.86554 711.7734 C 550.949 711.92445 551.0301 712.0769 551.1086 712.2306 L 555.2169 720.26856 C 555.466 720.7559 555.6899 721.2556 555.88776 721.7659 L 559.3705 730.7478 C 559.384 730.7826 559.39765 730.8174 559.4114 730.8521 L 563.0077 739.9375 C 563.1297 740.2458 563.2421 740.5577 563.34476 740.8729 L 565.9666 748.9257 C 565.9827 748.9752 565.9986 749.0248 566.01424 749.0745 L 569.0863 758.8328 C 569.2891 759.47695 569.4509 760.1333 569.5707 760.7979 L 571.55605 771.8074 C 571.5792 771.9358 571.6008 772.0645 571.6208 772.1934 L 573.32666 783.1868 C 573.3694 783.4622 573.40494 783.7387 573.4332 784.016 L 574.32065 792.7127 C 574.3674 793.1707 574.3943 793.6305 574.4014 794.0908 L 574.58565 806.0664 C 574.5891 806.2888 574.5971 806.5111 574.6098 806.7331 L 575.3802 820.2146 C 575.38725 820.3382 575.39575 820.4617 575.4057 820.5851 L 576.73924 837.1594 C 576.7736 837.5863 576.7908 838.0144 576.7908 838.4426 L 576.7908 850.8924 C 576.7908 851.0975 576.7947 851.3025 576.8026 851.5074 L 577.38295 866.5965 C 577.3882 866.7322 577.39166 866.8679 577.3934 867.0036 L 577.5856 881.7999 C 577.58905 882.0666 577.58584 882.3333 577.576 882.5999 L 577.00174 898.104 C 576.99444 898.3013 576.9908 898.4988 576.9908 898.6962 L 576.9908 912.2924 C 576.9908 912.4975 576.98684 912.7025 576.97896 912.9074 L 576.3938 928.1224 C 576.3918 928.1741 576.38953 928.2259 576.38704 928.2776 L 575.5917 944.7806 C 575.5911 944.7935 575.59045 944.8065 575.5898 944.8195 L 574.7953 960.5106 C 574.7923 960.5702 574.78894 960.6298 574.78526 960.6893 L 573.59634 979.9101 C 573.59264 979.97 573.5886 980.03 573.5842 980.0899 L 571.8011 1004.4594 C 571.7942 1004.5531 571.7865 1004.6468 571.778 1004.7404 L 569.9921 1024.3852 C 569.9912 1024.3951 569.9903 1024.405 569.9894 1024.4148 L 568.21864 1043.4997 C 568.2001 1043.6999 568.1777 1043.8997 568.1516 1044.099 L 566.1909 1059.0717 C 566.0581 1060.086 565.78896 1061.0776 565.3908 1062.0197 L 565.3908 1062.0197 C 564.9932 1062.9605 564.74454 1063.9574 564.6537 1064.9747 L 563.8908 1073.5197 C 563.383 1079.2068 567.3415 1084.3251 572.97346 1085.2638 Z" fill="url(#Obj_Gradient_2)"/>
      <path d="M 572.97346 1085.2638 L 586.7157 1087.5542 C 586.8991 1087.5847 587.083 1087.6121 587.2673 1087.6362 L 615.62094 1091.3515 C 615.8675 1091.3838 616.1147 1091.4104 616.3625 1091.4312 L 646.6054 1093.9677 C 646.8623 1093.9892 647.1197 1094.0046 647.3773 1094.0137 L 686.3082 1095.39 C 686.4966 1095.3967 686.68504 1095.4 686.8735 1095.4 L 718.34084 1095.4 C 718.5075 1095.4 718.6741 1095.3974 718.8406 1095.3922 L 743.8754 1094.6099 C 744.0856 1094.6033 744.2957 1094.5926 744.50555 1094.5777 L 766.5533 1093.0168 C 766.7116 1093.0056 766.86975 1092.992 767.0277 1092.9761 L 792.28815 1090.4305 C 792.4899 1090.4102 792.6912 1090.386 792.892 1090.358 L 816.6847 1087.0427 C 816.88875 1087.0142 817.0922 1086.9819 817.295 1086.9456 L 826.4908 1085.3 C 831.8179 1084.3467 835.4688 1079.3931 834.8023 1074.0226 L 832.5948 1056.232 C 832.5921 1056.2107 832.5895 1056.1893 832.5869 1056.168 L 829.0231 1026.4695 C 829.0016 1026.2898 828.9831 1026.1099 828.9676 1025.9296 L 826.6054 998.3704 C 826.5957 998.2568 826.5871 998.1431 826.5798 998.0294 L 825.1932 976.4377 C 825.1916 976.4126 825.1899 976.3874 825.1882 976.3623 L 823.596 953.276 C 823.5925 953.2253 823.5893 953.1747 823.5863 953.124 L 822.4099 933.3218 C 822.3972 933.1073 822.3887 932.8925 822.3846 932.6777 L 821.9924 912.0829 C 821.9913 912.0276 821.99 911.9724 821.98835 911.9172 L 821.3932 891.6828 C 821.3916 891.6276 821.3903 891.5724 821.3892 891.5172 L 820.99855 871.0076 C 820.9934 870.7359 820.9951 870.4641 821.0038 870.1925 L 821.5897 851.8329 C 821.5904 851.811 821.5912 851.789 821.592 851.7671 L 822.3801 829.8978 C 822.3872 829.6993 822.3981 829.5009 822.4126 829.3028 L 823.9701 808.0822 C 823.9839 807.8941 823.9944 807.7057 824.0015 807.5172 L 824.756 787.6184 C 824.7792 787.0066 824.8374 786.3967 824.9305 785.79165 L 827.6695 767.9881 C 827.7503 767.463 827.8572 766.9423 827.9898 766.4278 L 832.6181 748.4702 C 832.7332 748.0236 832.8675 747.5822 833.0207 747.14725 L 838.7415 730.9076 C 838.9076 730.4361 839.0957 729.9727 839.3052 729.5188 L 844.8367 717.5338 C 844.9394 717.3113 845.0472 717.0912 845.16 716.87364 L 850.5222 706.5322 C 850.5679 706.4441 850.6145 706.3564 850.6618 706.2691 L 855.8778 696.6521 C 856.615 695.2928 857.5647 694.0599 858.6908 693 L 858.6908 693 C 859.366 692.3645 859.3982 691.302 858.7627 690.6268 C 858.6382 690.4946 858.4931 690.3834 858.333 690.2976 L 855.1188 688.5757 C 854.9002 688.4586 854.6788 688.34656 854.4549 688.2397 L 846.601 684.4912 C 846.1944 684.2972 845.7797 684.1204 845.3582 683.9613 L 835.6834 680.3104 C 835.4883 680.2368 835.2919 680.167 835.0941 680.1011 L 822.3996 675.8696 C 822.2604 675.8232 822.1206 675.7787 821.9801 675.73616 L 809.0966 671.83206 C 809.02605 671.8107 808.9557 671.7888 808.8854 671.7665 L 796.3814 667.7879 C 795.9878 667.6627 795.5992 667.52225 795.2164 667.3669 L 783.2405 662.5071 C 782.4088 662.16964 781.607 661.7628 780.8436 661.2908 L 771.2244 655.3444 C 771.06865 655.2481 770.9146 655.1492 770.7623 655.0477 L 765.8722 651.7876 C 764.8908 651.13335 764.0195 650.32745 763.2908 649.4 L 763.2908 649.4 C 763.1852 649.2656 762.9906 649.24225 762.8562 649.34785 C 762.7535 649.4286 762.7125 649.5651 762.7538 649.6891 L 762.8908 650.1 C 763.35 651.47775 763.4546 652.949 763.1948 654.3779 L 762.7997 656.55115 C 762.5285 658.0428 762.0466 659.48835 761.3686 660.8444 L 759.8363 663.90904 C 759.5396 664.5024 759.2062 665.0768 758.8382 665.6288 L 755.6345 670.4344 C 755.2059 671.0773 754.7313 671.6883 754.2144 672.2626 L 749.6524 677.33156 C 749.6113 677.3772 749.57 677.4226 749.5284 677.4677 L 743.5342 683.97576 C 742.9064 684.6573 742.2207 685.283 741.48465 685.8459 L 736.4605 689.6879 C 736.0143 690.0291 735.5505 690.3465 735.071 690.6389 L 728.5846 694.594 C 727.9229 694.9975 727.2328 695.3523 726.51975 695.6558 L 719.4043 698.6836 C 718.5967 699.0273 717.7621 699.3039 716.90905 699.5107 L 712.83 700.4996 C 712.0052 700.69955 711.1657 700.83356 710.3196 700.90035 L 704.6194 701.3504 C 704.2005 701.38344 703.7804 701.4 703.3602 701.4 L 696.3279 701.4 C 695.5708 701.4 694.8146 701.3463 694.0651 701.2392 L 686.1187 700.104 C 685.6337 700.0347 685.1521 699.9432 684.6755 699.8297 L 678.7143 698.41035 C 677.5688 698.1376 676.4569 697.7393 675.3988 697.2225 L 669.1188 694.15556 C 668.6338 693.9187 668.161 693.6574 667.7024 693.3727 L 663.4905 690.75846 C 662.89135 690.3866 662.3174 689.97546 661.7725 689.5278 L 657.3264 685.8757 C 657.1027 685.6919 656.884 685.5021 656.6706 685.3065 L 652.8683 681.82104 C 652.417 681.40736 651.9898 680.9681 651.58885 680.5055 L 647.4701 675.7531 C 647.1507 675.38455 646.84836 675.0016 646.56395 674.6055 L 642.1343 668.4356 C 641.6394 667.7463 641.2001 667.0187 640.82064 666.2597 L 638.2442 661.1068 C 638.2086 661.0356 638.1735 660.96414 638.139 660.8924 L 636.8908 658.3 C 636.0401 656.5331 635.68455 654.5686 635.8621 652.61564 L 636.0423 650.6334 C 636.0661 650.3715 635.8731 650.13994 635.61125 650.11614 C 635.44886 650.1014 635.2902 650.17075 635.1908 650.3 L 635.1908 650.3 C 634.5273 651.1625 633.7472 651.92856 632.87285 652.57625 L 628.9763 655.4626 C 628.8526 655.5542 628.7276 655.644 628.60136 655.732 L 623.9791 658.9536 C 622.7924 659.7807 621.49895 660.4431 620.1342 660.9226 L 615.5271 662.5413 C 615.0365 662.7137 614.5546 662.9098 614.08316 663.1291 L 607.2364 666.3137 C 606.5402 666.6375 605.82165 666.9107 605.08625 667.13136 L 594.21586 670.3925 C 594.19914 670.3975 594.1824 670.4025 594.1657 670.4076 L 583.19764 673.7372 C 583.05974 673.7791 582.9224 673.8228 582.7857 673.8684 L 569.86446 678.1754 C 569.81534 678.1918 569.76614 678.20795 569.71686 678.22384 L 558.34946 681.89075 C 557.711 682.0967 557.0861 682.3426 556.47846 682.62704 L 548.5465 686.3399 C 548.17616 686.5132 547.8126 686.7007 547.4566 686.9019 L 541.5105 690.2628 C 540.2575 690.971 539.8158 692.5609 540.52406 693.814 C 540.6012 693.9504 540.69045 694.0796 540.7908 694.2 L 541.6549 695.2369 C 542.40984 696.1429 543.0623 697.1295 543.6004 698.1788 L 546.6776 704.1792 C 546.75304 704.3264 546.8308 704.4724 546.9108 704.61715 L 550.86554 711.7734 C 550.949 711.92445 551.0301 712.0769 551.1086 712.2306 L 555.2169 720.26856 C 555.466 720.7559 555.6899 721.2556 555.88776 721.7659 L 559.3705 730.7478 C 559.384 730.7826 559.39765 730.8174 559.4114 730.8521 L 563.0077 739.9375 C 563.1297 740.2458 563.2421 740.5577 563.34476 740.8729 L 565.9666 748.9257 C 565.9827 748.9752 565.9986 749.0248 566.01424 749.0745 L 569.0863 758.8328 C 569.2891 759.47695 569.4509 760.1333 569.5707 760.7979 L 571.55605 771.8074 C 571.5792 771.9358 571.6008 772.0645 571.6208 772.1934 L 573.32666 783.1868 C 573.3694 783.4622 573.40494 783.7387 573.4332 784.016 L 574.32065 792.7127 C 574.3674 793.1707 574.3943 793.6305 574.4014 794.0908 L 574.58565 806.0664 C 574.5891 806.2888 574.5971 806.5111 574.6098 806.7331 L 575.3802 820.2146 C 575.38725 820.3382 575.39575 820.4617 575.4057 820.5851 L 576.73924 837.1594 C 576.7736 837.5863 576.7908 838.0144 576.7908 838.4426 L 576.7908 850.8924 C 576.7908 851.0975 576.7947 851.3025 576.8026 851.5074 L 577.38295 866.5965 C 577.3882 866.7322 577.39166 866.8679 577.3934 867.0036 L 577.5856 881.7999 C 577.58905 882.0666 577.58584 882.3333 577.576 882.5999 L 577.00174 898.104 C 576.99444 898.3013 576.9908 898.4988 576.9908 898.6962 L 576.9908 912.2924 C 576.9908 912.4975 576.98684 912.7025 576.97896 912.9074 L 576.3938 928.1224 C 576.3918 928.1741 576.38953 928.2259 576.38704 928.2776 L 575.5917 944.7806 C 575.5911 944.7935 575.59045 944.8065 575.5898 944.8195 L 574.7953 960.5106 C 574.7923 960.5702 574.78894 960.6298 574.78526 960.6893 L 573.59634 979.9101 C 573.59264 979.97 573.5886 980.03 573.5842 980.0899 L 571.8011 1004.4594 C 571.7942 1004.5531 571.7865 1004.6468 571.778 1004.7404 L 569.9921 1024.3852 C 569.9912 1024.3951 569.9903 1024.405 569.9894 1024.4148 L 568.21864 1043.4997 C 568.2001 1043.6999 568.1777 1043.8997 568.1516 1044.099 L 566.1909 1059.0717 C 566.0581 1060.086 565.78896 1061.0776 565.3908 1062.0197 L 565.3908 1062.0197 C 564.9932 1062.9605 564.74454 1063.9574 564.6537 1064.9747 L 563.8908 1073.5197 C 563.383 1079.2068 567.3415 1084.3251 572.97346 1085.2638 Z" stroke="#7f8080" stroke-linecap="round" stroke-linejoin="round" stroke-width="1"/>
      <path d="M 484 799.4461 L 490.2 803.8461 L 498.4 807.8461 L 507 811.4461 L 516 815.2461 L 527 819.2461 L 536.4 822.0461 L 545.4 824.6461 L 554.4 827.2461 L 559.8 828.6461 L 565.4 829.6461 L 567.8 823.8461 L 570.4 818.4461 L 572.6 814.4461 L 575.2 811.0461 L 575.4 802.0461 L 574.8 791.0461 L 573 780.2461 L 571.4 769.8461 L 568.8 758.8461 L 566.4 749.24614 L 563.6 741.24614 L 560.4 731.84614 L 557.6 724.44614 L 554 716.84614 L 550 709.24614 L 546 701.84614 L 543.4 698.24614 L 539.8 692.44614 L 534.4 696.84614 L 529.6 701.64614 L 525 707.84614 L 520.6 714.04614 L 515.8 722.64614 L 511 732.04614 L 506.2 741.24614 L 502.6 749.84614 L 498.6 758.8461 L 495.4 767.0461 L 491.6 776.4461 L 488.8 784.4461 L 485.8 792.8461 Z" fill="#001cae"/>
      <path d="M 484 799.4461 L 490.2 803.8461 L 498.4 807.8461 L 507 811.4461 L 516 815.2461 L 527 819.2461 L 536.4 822.0461 L 545.4 824.6461 L 554.4 827.2461 L 559.8 828.6461 L 565.4 829.6461 L 567.8 823.8461 L 570.4 818.4461 L 572.6 814.4461 L 575.2 811.0461 L 575.4 802.0461 L 574.8 791.0461 L 573 780.2461 L 571.4 769.8461 L 568.8 758.8461 L 566.4 749.24614 L 563.6 741.24614 L 560.4 731.84614 L 557.6 724.44614 L 554 716.84614 L 550 709.24614 L 546 701.84614 L 543.4 698.24614 L 539.8 692.44614 L 534.4 696.84614 L 529.6 701.64614 L 525 707.84614 L 520.6 714.04614 L 515.8 722.64614 L 511 732.04614 L 506.2 741.24614 L 502.6 749.84614 L 498.6 758.8461 L 495.4 767.0461 L 491.6 776.4461 L 488.8 784.4461 L 485.8 792.8461 Z" stroke="#7f8080" stroke-linecap="round" stroke-linejoin="round" stroke-width="1"/>
      <path d="M 915.4053 798.50275 L 909.2053 802.90275 L 901.0053 806.90275 L 892.4053 810.50275 L 883.4053 814.30275 L 872.4053 818.30275 L 863.0053 821.10275 L 854.0053 823.70275 L 845.0053 826.30275 L 839.6053 827.70275 L 834.0053 828.70275 L 831.6053 822.90275 L 829.0053 817.50275 L 826.8053 813.50275 L 824.2053 810.10275 L 824.0053 801.10275 L 824.6053 790.10275 L 826.4053 779.30275 L 828.0053 768.90275 L 830.6053 757.90275 L 833.0053 748.30275 L 835.8053 740.30275 L 839.0053 730.90275 L 841.8053 723.50275 L 845.4053 715.90275 L 849.4053 708.30275 L 853.4053 700.90275 L 856.0053 697.30275 L 859.6053 691.50275 L 865.0053 695.90275 L 869.8053 700.70275 L 874.4053 706.90275 L 878.8053 713.10275 L 883.6053 721.70275 L 888.4053 731.10275 L 893.2053 740.30275 L 896.8053 748.90275 L 900.8053 757.90275 L 904.0053 766.10275 L 907.8053 775.50275 L 910.6053 783.50275 L 913.6053 791.90275 Z" fill="#051dae"/>
      <path d="M 915.4053 798.50275 L 909.2053 802.90275 L 901.0053 806.90275 L 892.4053 810.50275 L 883.4053 814.30275 L 872.4053 818.30275 L 863.0053 821.10275 L 854.0053 823.70275 L 845.0053 826.30275 L 839.6053 827.70275 L 834.0053 828.70275 L 831.6053 822.90275 L 829.0053 817.50275 L 826.8053 813.50275 L 824.2053 810.10275 L 824.0053 801.10275 L 824.6053 790.10275 L 826.4053 779.30275 L 828.0053 768.90275 L 830.6053 757.90275 L 833.0053 748.30275 L 835.8053 740.30275 L 839.0053 730.90275 L 841.8053 723.50275 L 845.4053 715.90275 L 849.4053 708.30275 L 853.4053 700.90275 L 856.0053 697.30275 L 859.6053 691.50275 L 865.0053 695.90275 L 869.8053 700.70275 L 874.4053 706.90275 L 878.8053 713.10275 L 883.6053 721.70275 L 888.4053 731.10275 L 893.2053 740.30275 L 896.8053 748.90275 L 900.8053 757.90275 L 904.0053 766.10275 L 907.8053 775.50275 L 910.6053 783.50275 L 913.6053 791.90275 Z" stroke="#7f8080" stroke-linecap="round" stroke-linejoin="round" stroke-width="2"/>
      <path d="M 484 799.4461 L 490.2 803.8461 L 498.4 807.8461 L 507 811.4461 L 516 815.2461 L 527 819.2461 L 536.4 822.0461 L 545.4 824.6461 L 554.4 827.2461 L 559.8 828.6461 L 565.4 829.6461 L 568.4 823.2461 L 564.6 822.4461 L 559.8 821.2461 L 554.2 820.0461 L 548.2 818.2461 L 543.6 816.8461 L 539.4 815.6461 L 534.8 813.6461 L 530.2 812.0461 L 525.4 810.0461 L 521.4 808.6461 L 516.2 806.4461 L 511.6 804.8461 L 506.8 802.6461 L 502 800.8461 L 498 798.8461 L 493.6 796.6461 L 489.2 794.4461 L 485.8 792.8461 Z" fill="url(#Obj_Gradient_3)"/>
      <path d="M 484 799.4461 L 490.2 803.8461 L 498.4 807.8461 L 507 811.4461 L 516 815.2461 L 527 819.2461 L 536.4 822.0461 L 545.4 824.6461 L 554.4 827.2461 L 559.8 828.6461 L 565.4 829.6461 L 568.4 823.2461 L 564.6 822.4461 L 559.8 821.2461 L 554.2 820.0461 L 548.2 818.2461 L 543.6 816.8461 L 539.4 815.6461 L 534.8 813.6461 L 530.2 812.0461 L 525.4 810.0461 L 521.4 808.6461 L 516.2 806.4461 L 511.6 804.8461 L 506.8 802.6461 L 502 800.8461 L 498 798.8461 L 493.6 796.6461 L 489.2 794.4461 L 485.8 792.8461 Z" stroke="#7f8080" stroke-linecap="round" stroke-linejoin="round" stroke-width="1"/>
      <path d="M 915.4053 798.50275 L 909.2053 802.90275 L 901.0053 806.90275 L 892.4053 810.50275 L 883.4053 814.30275 L 872.4053 818.30275 L 863.0053 821.10275 L 854.0053 823.70275 L 845.0053 826.30275 L 839.6053 827.70275 L 834.0053 828.70275 L 831.0053 822.30275 L 834.8053 821.50275 L 839.6053 820.30275 L 845.2053 819.10275 L 851.2053 817.30275 L 855.8053 815.90275 L 860.0053 814.70275 L 864.6053 812.70275 L 869.2053 811.10275 L 874.0053 809.10275 L 878.0053 807.70275 L 883.2053 805.50275 L 887.8053 803.90275 L 892.6053 801.70275 L 897.4053 799.90275 L 901.4053 797.90275 L 905.8053 795.70275 L 910.2053 793.50275 L 913.6053 791.90275 Z" fill="url(#Obj_Gradient_4)"/>
      <path d="M 915.4053 798.50275 L 909.2053 802.90275 L 901.0053 806.90275 L 892.4053 810.50275 L 883.4053 814.30275 L 872.4053 818.30275 L 863.0053 821.10275 L 854.0053 823.70275 L 845.0053 826.30275 L 839.6053 827.70275 L 834.0053 828.70275 L 831.0053 822.30275 L 834.8053 821.50275 L 839.6053 820.30275 L 845.2053 819.10275 L 851.2053 817.30275 L 855.8053 815.90275 L 860.0053 814.70275 L 864.6053 812.70275 L 869.2053 811.10275 L 874.0053 809.10275 L 878.0053 807.70275 L 883.2053 805.50275 L 887.8053 803.90275 L 892.6053 801.70275 L 897.4053 799.90275 L 901.4053 797.90275 L 905.8053 795.70275 L 910.2053 793.50275 L 913.6053 791.90275 Z" stroke="#7f8080" stroke-linecap="round" stroke-linejoin="round" stroke-width="1"/>
      <path d="M 634.5721 649.9638 L 629.84295 654.0174 C 628.6926 655.0034 627.44764 655.8733 626.1262 656.6145 L 623.5996 658.03165 C 622.1644 658.8366 621.5836 660.60575 622.2624 662.1047 L 623.28 664.352 C 623.4016 664.62046 623.5283 664.8866 623.6601 665.1502 L 625.4624 668.7547 L 627.9494 673.7287 C 628.2912 674.4123 628.6668 675.0784 629.07495 675.7246 L 631.40134 679.4081 C 631.8417 680.10535 632.3193 680.7784 632.83195 681.4244 L 636.2426 685.72185 C 636.7887 686.4099 637.3737 687.06606 637.9948 687.6872 L 642.6609 692.3532 C 643.06175 692.7541 643.4773 693.14 643.9067 693.5102 L 648.4702 697.44426 C 648.8649 697.7845 649.271 698.1112 649.68785 698.4238 L 653.6628 701.405 C 654.3287 701.9045 655.0212 702.3674 655.7373 702.7917 L 659.8704 705.241 C 659.9984 705.3168 660.1271 705.3914 660.25656 705.4648 L 664.9541 708.1267 C 665.6924 708.5451 666.4533 708.9223 667.23325 709.2565 L 670.7831 710.7779 C 671.369 711.029 671.9652 711.2557 672.57 711.4573 L 677.5881 713.13 C 678.8353 713.5457 680.1159 713.85376 681.4158 714.0507 L 685.51464 714.67174 C 685.87976 714.7271 686.24615 714.7736 686.6135 714.8113 L 693.4946 715.517 C 693.7398 715.5422 693.98534 715.5634 694.2312 715.5806 L 698.75835 715.8983 C 699.2942 715.9359 699.8312 715.9547 700.3684 715.9547 L 703.6305 715.9547 C 704.58416 715.9547 705.5369 715.8954 706.4833 715.7771 L 710.472 715.2785 C 711.13195 715.196 711.788 715.085 712.43835 714.9456 L 718.5204 713.6423 C 719.4143 713.4508 720.2959 713.2061 721.1607 712.9096 L 725.6695 711.3637 C 726.4642 711.0913 727.2433 710.7755 728.0034 710.4178 L 732.8368 708.1433 C 733.387 707.88435 733.9267 707.6037 734.4546 707.302 L 738.2225 705.149 C 738.9153 704.7531 739.587 704.3214 740.2349 703.8557 L 744.9111 700.49475 C 745.41175 700.1349 745.8978 699.755 746.3679 699.3561 L 751.6888 694.84144 C 752.0711 694.5171 752.4427 694.1803 752.803 693.8316 L 757.5022 689.28396 C 758.1418 688.665 758.7449 688.0094 759.3085 687.3206 L 763.1018 682.68434 C 763.6085 682.065 764.0826 681.4197 764.522 680.751 L 768.1392 675.2466 C 768.3546 674.9187 768.5616 674.58544 768.76 674.247 L 771.2831 669.9429 C 771.6691 669.2845 772.022 668.60735 772.3406 667.9139 L 774.4593 663.3026 C 774.9922 662.14285 775.3633 660.9154 775.5624 659.6547 L 775.5624 659.6547 C 775.7407 658.5255 775.1614 657.412 774.1343 656.9099 L 768.8409 654.322 C 767.5264 653.6794 766.2918 652.8849 765.1624 651.9547 L 764.7564 651.6204 C 763.91205 650.92504 763.2886 649.9987 762.9624 648.9547 L 762.9624 648.9547 C 762.9157 648.8054 762.7569 648.7222 762.6075 648.7689 C 762.4925 648.8048 762.4128 648.9097 762.4089 649.0302 L 762.2997 652.4531 C 762.2089 655.2962 761.5916 658.0978 760.479 660.7157 L 759.6021 662.77904 C 759.0435 664.0933 758.3637 665.3527 757.5716 666.5409 L 753.8858 672.0696 C 753.1383 673.19085 752.2937 674.24425 751.36175 675.2176 L 745.0667 681.7925 C 744.1986 682.6991 743.2578 683.5332 742.2536 684.2863 L 733.8787 690.5675 C 733.0023 691.2248 732.08 691.8187 731.119 692.3445 L 723.93376 696.2761 C 722.6226 696.9935 721.2447 697.5814 719.8195 698.0314 L 713.1466 700.1387 C 711.4297 700.6808 709.6551 701.0195 707.8593 701.1478 L 700.9728 701.6397 C 699.9005 701.7163 698.8242 701.7176 697.7517 701.64365 L 689.3154 701.0618 C 688.28125 700.9905 687.2531 700.8494 686.23795 700.6393 L 679.10274 699.1631 C 677.1508 698.7592 675.2596 698.10335 673.47676 697.2119 L 668.81735 694.8822 C 667.5832 694.26515 666.4071 693.5383 665.3033 692.7104 L 659.6213 688.4489 C 659.1822 688.1196 658.755 687.7746 658.3405 687.4147 L 652.5853 682.4168 C 651.77104 681.7096 651.0075 680.9461 650.30036 680.1318 L 645.8951 675.0591 C 645.141 674.19075 644.4531 673.26705 643.8372 672.2958 L 640.1035 666.408 C 639.7429 665.8394 639.4075 665.2553 639.0982 664.6573 L 637.4778 661.5246 C 636.8687 660.3469 636.3625 659.1187 635.965 657.85385 L 634.6847 653.78036 C 634.46995 653.097 634.2872 652.40395 634.1371 651.7035 L 633.9117 650.6516 C 633.8266 650.25456 634.053 649.8569 634.4378 649.7274 L 634.4378 649.7274 C 634.5103 649.703 634.58884 649.74195 634.61325 649.81444 C 634.6313 649.86795 634.615 649.92704 634.5721 649.9638 Z" fill="white"/>
      <path d="M 634.5721 649.9638 L 629.84295 654.0174 C 628.6926 655.0034 627.44764 655.8733 626.1262 656.6145 L 623.5996 658.03165 C 622.1644 658.8366 621.5836 660.60575 622.2624 662.1047 L 623.28 664.352 C 623.4016 664.62046 623.5283 664.8866 623.6601 665.1502 L 625.4624 668.7547 L 627.9494 673.7287 C 628.2912 674.4123 628.6668 675.0784 629.07495 675.7246 L 631.40134 679.4081 C 631.8417 680.10535 632.3193 680.7784 632.83195 681.4244 L 636.2426 685.72185 C 636.7887 686.4099 637.3737 687.06606 637.9948 687.6872 L 642.6609 692.3532 C 643.06175 692.7541 643.4773 693.14 643.9067 693.5102 L 648.4702 697.44426 C 648.8649 697.7845 649.271 698.1112 649.68785 698.4238 L 653.6628 701.405 C 654.3287 701.9045 655.0212 702.3674 655.7373 702.7917 L 659.8704 705.241 C 659.9984 705.3168 660.1271 705.3914 660.25656 705.4648 L 664.9541 708.1267 C 665.6924 708.5451 666.4533 708.9223 667.23325 709.2565 L 670.7831 710.7779 C 671.369 711.029 671.9652 711.2557 672.57 711.4573 L 677.5881 713.13 C 678.8353 713.5457 680.1159 713.85376 681.4158 714.0507 L 685.51464 714.67174 C 685.87976 714.7271 686.24615 714.7736 686.6135 714.8113 L 693.4946 715.517 C 693.7398 715.5422 693.98534 715.5634 694.2312 715.5806 L 698.75835 715.8983 C 699.2942 715.9359 699.8312 715.9547 700.3684 715.9547 L 703.6305 715.9547 C 704.58416 715.9547 705.5369 715.8954 706.4833 715.7771 L 710.472 715.2785 C 711.13195 715.196 711.788 715.085 712.43835 714.9456 L 718.5204 713.6423 C 719.4143 713.4508 720.2959 713.2061 721.1607 712.9096 L 725.6695 711.3637 C 726.4642 711.0913 727.2433 710.7755 728.0034 710.4178 L 732.8368 708.1433 C 733.387 707.88435 733.9267 707.6037 734.4546 707.302 L 738.2225 705.149 C 738.9153 704.7531 739.587 704.3214 740.2349 703.8557 L 744.9111 700.49475 C 745.41175 700.1349 745.8978 699.755 746.3679 699.3561 L 751.6888 694.84144 C 752.0711 694.5171 752.4427 694.1803 752.803 693.8316 L 757.5022 689.28396 C 758.1418 688.665 758.7449 688.0094 759.3085 687.3206 L 763.1018 682.68434 C 763.6085 682.065 764.0826 681.4197 764.522 680.751 L 768.1392 675.2466 C 768.3546 674.9187 768.5616 674.58544 768.76 674.247 L 771.2831 669.9429 C 771.6691 669.2845 772.022 668.60735 772.3406 667.9139 L 774.4593 663.3026 C 774.9922 662.14285 775.3633 660.9154 775.5624 659.6547 L 775.5624 659.6547 C 775.7407 658.5255 775.1614 657.412 774.1343 656.9099 L 768.8409 654.322 C 767.5264 653.6794 766.2918 652.8849 765.1624 651.9547 L 764.7564 651.6204 C 763.91205 650.92504 763.2886 649.9987 762.9624 648.9547 L 762.9624 648.9547 C 762.9157 648.8054 762.7569 648.7222 762.6075 648.7689 C 762.4925 648.8048 762.4128 648.9097 762.4089 649.0302 L 762.2997 652.4531 C 762.2089 655.2962 761.5916 658.0978 760.479 660.7157 L 759.6021 662.77904 C 759.0435 664.0933 758.3637 665.3527 757.5716 666.5409 L 753.8858 672.0696 C 753.1383 673.19085 752.2937 674.24425 751.36175 675.2176 L 745.0667 681.7925 C 744.1986 682.6991 743.2578 683.5332 742.2536 684.2863 L 733.8787 690.5675 C 733.0023 691.2248 732.08 691.8187 731.119 692.3445 L 723.93376 696.2761 C 722.6226 696.9935 721.2447 697.5814 719.8195 698.0314 L 713.1466 700.1387 C 711.4297 700.6808 709.6551 701.0195 707.8593 701.1478 L 700.9728 701.6397 C 699.9005 701.7163 698.8242 701.7176 697.7517 701.64365 L 689.3154 701.0618 C 688.28125 700.9905 687.2531 700.8494 686.23795 700.6393 L 679.10274 699.1631 C 677.1508 698.7592 675.2596 698.10335 673.47676 697.2119 L 668.81735 694.8822 C 667.5832 694.26515 666.4071 693.5383 665.3033 692.7104 L 659.6213 688.4489 C 659.1822 688.1196 658.755 687.7746 658.3405 687.4147 L 652.5853 682.4168 C 651.77104 681.7096 651.0075 680.9461 650.30036 680.1318 L 645.8951 675.0591 C 645.141 674.19075 644.4531 673.26705 643.8372 672.2958 L 640.1035 666.408 C 639.7429 665.8394 639.4075 665.2553 639.0982 664.6573 L 637.4778 661.5246 C 636.8687 660.3469 636.3625 659.1187 635.965 657.85385 L 634.6847 653.78036 C 634.46995 653.097 634.2872 652.40395 634.1371 651.7035 L 633.9117 650.6516 C 633.8266 650.25456 634.053 649.8569 634.4378 649.7274 L 634.4378 649.7274 C 634.5103 649.703 634.58884 649.74195 634.61325 649.81444 C 634.6313 649.86795 634.615 649.92704 634.5721 649.9638 Z" stroke="#7f8080" stroke-linecap="round" stroke-linejoin="round" stroke-width="1"/>
      <path d="M 634.05925 649.7559 L 639.45925 649.1559 L 646.25925 652.5559 L 651.25925 654.3559 L 659.65925 656.1559 L 668.05925 657.1559 L 676.05925 658.1559 L 683.65925 658.3559 L 692.25925 658.7559 L 703.85925 658.5559 L 712.25925 658.1559 L 721.65925 657.5559 L 730.05925 656.7559 L 739.25925 655.3559 L 747.45925 653.1559 L 753.25925 651.3559 L 758.85925 648.7559 L 761.65925 649.9559 L 762.05925 655.5559 L 759.25925 663.5559 L 753.85925 666.3559 L 743.25925 669.5559 L 731.85925 671.9559 L 720.65925 672.7559 L 708.25925 673.7559 L 697.85925 673.7559 L 688.45925 673.7559 L 676.85925 673.1559 L 665.65925 672.3559 L 655.05925 670.1559 L 646.45925 668.1559 L 640.25925 665.3559 L 638.25925 663.7559 L 635.05925 656.1559 Z" fill="white"/>
      <path d="M 634.05925 649.7559 L 639.45925 649.1559 L 646.25925 652.5559 L 651.25925 654.3559 L 659.65925 656.1559 L 668.05925 657.1559 L 676.05925 658.1559 L 683.65925 658.3559 L 692.25925 658.7559 L 703.85925 658.5559 L 712.25925 658.1559 L 721.65925 657.5559 L 730.05925 656.7559 L 739.25925 655.3559 L 747.45925 653.1559 L 753.25925 651.3559 L 758.85925 648.7559 L 761.65925 649.9559 L 762.05925 655.5559 L 759.25925 663.5559 L 753.85925 666.3559 L 743.25925 669.5559 L 731.85925 671.9559 L 720.65925 672.7559 L 708.25925 673.7559 L 697.85925 673.7559 L 688.45925 673.7559 L 676.85925 673.1559 L 665.65925 672.3559 L 655.05925 670.1559 L 646.45925 668.1559 L 640.25925 665.3559 L 638.25925 663.7559 L 635.05925 656.1559 Z" stroke="#7f8080" stroke-linecap="round" stroke-linejoin="round" stroke-width="1"/>
      <path d="M 563.8132 1075.2 L 563.8132 1075.2 C 563.7475 1075.7255 563.81036 1076.259 563.9963 1076.7549 L 564.6473 1078.4909 C 564.82406 1078.9623 565.05115 1079.4132 565.3246 1079.8358 L 566.2924 1081.3315 C 566.8334 1082.1676 567.5465 1082.8785 568.3841 1083.417 L 569.4622 1084.11 C 569.7624 1084.3031 570.077 1084.4728 570.40316 1084.6179 L 571.72 1085.2035 C 572.31654 1085.4688 572.94725 1085.6493 573.5938 1085.7398 L 582.6042 1087.0013 C 582.6142 1087.0027 582.6242 1087.004 582.6342 1087.0054 L 594.3502 1088.594 C 594.3962 1088.6002 594.44226 1088.606 594.4884 1088.6113 L 604.7713 1089.7978 C 604.80324 1089.8015 604.8352 1089.805 604.8672 1089.8082 L 618.5772 1091.1991 C 618.6052 1091.2019 618.6332 1091.2046 618.6612 1091.2071 L 629.7665 1092.1987 C 629.80164 1092.2018 629.8368 1092.2047 629.87195 1092.2073 L 640.5585 1092.9989 C 640.599 1093.0019 640.6395 1093.0045 640.68 1093.0068 L 651.188 1093.6016 C 651.2088 1093.6028 651.2296 1093.604 651.2504 1093.6054 L 663.2932 1094.3951 C 663.3772 1094.4006 663.4613 1094.4046 663.5454 1094.4071 L 676.99256 1094.8026 C 677.0103 1094.8031 677.0281 1094.8037 677.04585 1094.8043 L 687.6897 1095.1986 C 687.776 1095.2018 687.8624 1095.2034 687.9488 1095.2034 L 698.5578 1095.2034 C 698.5987 1095.2034 698.6397 1095.2037 698.6806 1095.2044 L 709.767 1095.3989 C 709.9351 1095.4019 710.1032 1095.3988 710.27106 1095.3896 L 720.8923 1094.8103 C 720.9769 1094.8057 721.0616 1094.8026 721.1463 1094.801 L 731.91085 1094.6053 C 731.9831 1094.604 732.0553 1094.6016 732.12745 1094.598 L 744.1461 1094.007 C 744.1948 1094.0046 744.24355 1094.0016 744.29225 1093.9982 L 755.5323 1093.2095 C 755.5902 1093.2054 755.6481 1093.2006 755.7059 1093.1951 L 768.1165 1092.0131 C 768.185 1092.0066 768.2535 1092.0011 768.3221 1091.9966 L 780.2542 1091.2142 C 780.3642 1091.207 780.474 1091.1972 780.5836 1091.1847 L 790.9959 1090.006 C 791.0114 1090.0042 791.027 1090.0024 791.0425 1090.0006 L 800.9902 1088.8068 C 801.0095 1088.8045 801.0289 1088.8021 801.0482 1088.7996 L 814.8839 1087.0221 C 814.9812 1087.0096 815.0781 1086.9951 815.1747 1086.9785 L 821.7282 1085.855 C 821.9292 1085.8206 822.1315 1085.795 822.3347 1085.7782 L 825.5671 1085.5112 C 826.4563 1085.4377 827.3233 1085.195 828.1214 1084.796 L 829.6076 1084.0528 C 830.2082 1083.7525 830.7625 1083.3674 831.2534 1082.9092 L 832.5885 1081.6631 C 833.1953 1081.0967 833.6507 1080.3875 833.9132 1079.6 L 834.208 1078.7155 C 834.2781 1078.5053 834.3382 1078.2919 834.388 1078.076 L 834.8577 1076.0406 C 834.8929 1075.8879 834.8595 1075.7275 834.7662 1075.6017 L 834.7662 1075.6017 C 834.6759 1075.4798 834.5252 1075.4183 834.3754 1075.4421 L 825.8955 1076.7912 C 825.8447 1076.7993 825.7939 1076.808 825.7432 1076.8172 L 812.7584 1079.178 C 812.6656 1079.1949 812.5725 1079.2099 812.4791 1079.223 L 801.2494 1080.7991 C 801.2293 1080.802 801.2091 1080.8049 801.189 1080.8079 L 788.0664 1082.7665 C 787.9017 1082.791 787.7361 1082.8097 787.57 1082.8225 L 774.8452 1083.8014 C 774.8279 1083.8027 774.81055 1083.804 774.7932 1083.8052 L 760.4531 1084.801 C 760.4305 1084.8026 760.4079 1084.804 760.3853 1084.8054 L 747.08205 1085.5996 C 747.0402 1085.6021 746.9982 1085.6042 746.9563 1085.606 L 732.76485 1086.1973 C 732.6678 1086.2013 732.5706 1086.2034 732.4734 1086.2034 L 719.2192 1086.2034 L 706.6775 1086.2034 C 706.63865 1086.2034 706.5998 1086.2037 706.5609 1086.2043 L 694.8025 1086.4003 C 694.6803 1086.4023 694.5581 1086.4012 694.436 1086.3968 L 683.6024 1086.0099 C 683.4803 1086.0055 683.3581 1086.0044 683.2359 1086.0064 L 671.5213 1086.2017 C 671.4532 1086.2028 671.3852 1086.2029 671.3171 1086.2021 L 655.61484 1086.0058 C 655.48444 1086.0042 655.3541 1085.9989 655.224 1085.99 L 640.9142 1085.0099 C 640.8509 1085.0055 640.7876 1085.0003 640.7244 1084.9943 L 626.2334 1083.6047 C 626.2239 1083.6038 626.2145 1083.6029 626.205 1083.602 L 612.393 1082.2207 C 612.27715 1082.2091 612.1616 1082.1947 612.0465 1082.1773 L 597.73735 1080.0212 C 597.6586 1080.0093 597.57964 1079.9988 597.5005 1079.9896 L 583.9806 1078.4221 C 583.873 1078.4096 583.76574 1078.3946 583.65886 1078.3772 L 574.2668 1076.8438 C 574.1018 1076.8168 573.9378 1076.784 573.77516 1076.7453 L 564.69756 1074.5865 C 564.30925 1074.4942 563.9196 1074.7341 563.82724 1075.1224 C 563.82116 1075.148 563.8165 1075.1739 563.8132 1075.2 Z" fill="url(#Obj_Gradient_5)"/>
      <path d="M 563.8132 1075.2 L 563.8132 1075.2 C 563.7475 1075.7255 563.81036 1076.259 563.9963 1076.7549 L 564.6473 1078.4909 C 564.82406 1078.9623 565.05115 1079.4132 565.3246 1079.8358 L 566.2924 1081.3315 C 566.8334 1082.1676 567.5465 1082.8785 568.3841 1083.417 L 569.4622 1084.11 C 569.7624 1084.3031 570.077 1084.4728 570.40316 1084.6179 L 571.72 1085.2035 C 572.31654 1085.4688 572.94725 1085.6493 573.5938 1085.7398 L 582.6042 1087.0013 C 582.6142 1087.0027 582.6242 1087.004 582.6342 1087.0054 L 594.3502 1088.594 C 594.3962 1088.6002 594.44226 1088.606 594.4884 1088.6113 L 604.7713 1089.7978 C 604.80324 1089.8015 604.8352 1089.805 604.8672 1089.8082 L 618.5772 1091.1991 C 618.6052 1091.2019 618.6332 1091.2046 618.6612 1091.2071 L 629.7665 1092.1987 C 629.80164 1092.2018 629.8368 1092.2047 629.87195 1092.2073 L 640.5585 1092.9989 C 640.599 1093.0019 640.6395 1093.0045 640.68 1093.0068 L 651.188 1093.6016 C 651.2088 1093.6028 651.2296 1093.604 651.2504 1093.6054 L 663.2932 1094.3951 C 663.3772 1094.4006 663.4613 1094.4046 663.5454 1094.4071 L 676.99256 1094.8026 C 677.0103 1094.8031 677.0281 1094.8037 677.04585 1094.8043 L 687.6897 1095.1986 C 687.776 1095.2018 687.8624 1095.2034 687.9488 1095.2034 L 698.5578 1095.2034 C 698.5987 1095.2034 698.6397 1095.2037 698.6806 1095.2044 L 709.767 1095.3989 C 709.9351 1095.4019 710.1032 1095.3988 710.27106 1095.3896 L 720.8923 1094.8103 C 720.9769 1094.8057 721.0616 1094.8026 721.1463 1094.801 L 731.91085 1094.6053 C 731.9831 1094.604 732.0553 1094.6016 732.12745 1094.598 L 744.1461 1094.007 C 744.1948 1094.0046 744.24355 1094.0016 744.29225 1093.9982 L 755.5323 1093.2095 C 755.5902 1093.2054 755.6481 1093.2006 755.7059 1093.1951 L 768.1165 1092.0131 C 768.185 1092.0066 768.2535 1092.0011 768.3221 1091.9966 L 780.2542 1091.2142 C 780.3642 1091.207 780.474 1091.1972 780.5836 1091.1847 L 790.9959 1090.006 C 791.0114 1090.0042 791.027 1090.0024 791.0425 1090.0006 L 800.9902 1088.8068 C 801.0095 1088.8045 801.0289 1088.8021 801.0482 1088.7996 L 814.8839 1087.0221 C 814.9812 1087.0096 815.0781 1086.9951 815.1747 1086.9785 L 821.7282 1085.855 C 821.9292 1085.8206 822.1315 1085.795 822.3347 1085.7782 L 825.5671 1085.5112 C 826.4563 1085.4377 827.3233 1085.195 828.1214 1084.796 L 829.6076 1084.0528 C 830.2082 1083.7525 830.7625 1083.3674 831.2534 1082.9092 L 832.5885 1081.6631 C 833.1953 1081.0967 833.6507 1080.3875 833.9132 1079.6 L 834.208 1078.7155 C 834.2781 1078.5053 834.3382 1078.2919 834.388 1078.076 L 834.8577 1076.0406 C 834.8929 1075.8879 834.8595 1075.7275 834.7662 1075.6017 L 834.7662 1075.6017 C 834.6759 1075.4798 834.5252 1075.4183 834.3754 1075.4421 L 825.8955 1076.7912 C 825.8447 1076.7993 825.7939 1076.808 825.7432 1076.8172 L 812.7584 1079.178 C 812.6656 1079.1949 812.5725 1079.2099 812.4791 1079.223 L 801.2494 1080.7991 C 801.2293 1080.802 801.2091 1080.8049 801.189 1080.8079 L 788.0664 1082.7665 C 787.9017 1082.791 787.7361 1082.8097 787.57 1082.8225 L 774.8452 1083.8014 C 774.8279 1083.8027 774.81055 1083.804 774.7932 1083.8052 L 760.4531 1084.801 C 760.4305 1084.8026 760.4079 1084.804 760.3853 1084.8054 L 747.08205 1085.5996 C 747.0402 1085.6021 746.9982 1085.6042 746.9563 1085.606 L 732.76485 1086.1973 C 732.6678 1086.2013 732.5706 1086.2034 732.4734 1086.2034 L 719.2192 1086.2034 L 706.6775 1086.2034 C 706.63865 1086.2034 706.5998 1086.2037 706.5609 1086.2043 L 694.8025 1086.4003 C 694.6803 1086.4023 694.5581 1086.4012 694.436 1086.3968 L 683.6024 1086.0099 C 683.4803 1086.0055 683.3581 1086.0044 683.2359 1086.0064 L 671.5213 1086.2017 C 671.4532 1086.2028 671.3852 1086.2029 671.3171 1086.2021 L 655.61484 1086.0058 C 655.48444 1086.0042 655.3541 1085.9989 655.224 1085.99 L 640.9142 1085.0099 C 640.8509 1085.0055 640.7876 1085.0003 640.7244 1084.9943 L 626.2334 1083.6047 C 626.2239 1083.6038 626.2145 1083.6029 626.205 1083.602 L 612.393 1082.2207 C 612.27715 1082.2091 612.1616 1082.1947 612.0465 1082.1773 L 597.73735 1080.0212 C 597.6586 1080.0093 597.57964 1079.9988 597.5005 1079.9896 L 583.9806 1078.4221 C 583.873 1078.4096 583.76574 1078.3946 583.65886 1078.3772 L 574.2668 1076.8438 C 574.1018 1076.8168 573.9378 1076.784 573.77516 1076.7453 L 564.69756 1074.5865 C 564.30925 1074.4942 563.9196 1074.7341 563.82724 1075.1224 C 563.82116 1075.148 563.8165 1075.1739 563.8132 1075.2 Z" stroke="#7f8080" stroke-linecap="round" stroke-linejoin="round" stroke-width="1"/>
    </g>
  </g>
</svg>
