<?xml version="1.0" encoding="UTF-8" standalone="no"?>
<!DOCTYPE svg PUBLIC "-//W3C//DTD SVG 1.1//EN" "http://www.w3.org/Graphics/SVG/1.1/DTD/svg11.dtd">
<svg xmlns="http://www.w3.org/2000/svg" xmlns:xl="http://www.w3.org/1999/xlink" version="1.1" viewBox="-390.5 -296.5 432.4053 449.30915" width="432.4053pt" height="449.30915pt" xmlns:dc="http://purl.org/dc/elements/1.1/">
  <metadata> Produced by OmniGraffle 7.6.1 
    <dc:date>2019-06-07 18:10:57 +0000</dc:date>
  </metadata>
  <defs>
    <radialGradient cx="0" cy="0" r="1" id="Gradient" gradientUnits="userSpaceOnUse">
      <stop offset="0" stop-color="#cbcbcb"/>
      <stop offset="1" stop-color="#021224"/>
    </radialGradient>
    <radialGradient id="Obj_Gradient" xl:href="#Gradient" gradientTransform="translate(-175.24075 -268.6) scale(70.26272)"/>
  </defs>
  <g stroke="none" stroke-opacity="1" stroke-dasharray="none" fill="none" fill-opacity="1">
    <title>Letonia</title>
    <g>
      <title>Capa 1</title>
      <path d="M -236.99435 -295.40955 L -228.8289 -292.29184 C -227.9709 -291.96424 -227.09406 -291.68833 -226.20308 -291.46558 L -212.4859 -288.0363 C -211.32424 -287.74587 -210.14168 -287.5466 -208.949 -287.44034 L -191.42285 -285.8786 C -190.835 -285.82622 -190.24536 -285.7965 -189.65522 -285.78946 L -174.1763 -285.6052 C -173.88596 -285.60173 -173.59558 -285.60377 -173.30531 -285.6113 L -158.882 -285.98594 C -158.52122 -285.9953 -158.1607 -286.01317 -157.80076 -286.0395 L -143.42947 -287.09107 C -142.43803 -287.1636 -141.45234 -287.30036 -140.4786 -287.50044 L -128.90564 -289.87845 C -127.86363 -290.09256 -126.83774 -290.3787 -125.83535 -290.7348 L -114.08336 -294.90986 C -112.99298 -295.29723 -111.78979 -294.76646 -111.34075 -293.7 L -111.34075 -293.7 C -110.8186 -292.4599 -110.66662 -291.09515 -110.90315 -289.77055 L -111.08363 -288.75986 C -111.38741 -287.0587 -111.88194 -285.3972 -112.55786 -283.8068 L -114.10108 -280.1757 C -114.65965 -278.86142 -115.3394 -277.60202 -116.13154 -276.41382 L -119.81732 -270.88515 C -120.56483 -269.7639 -121.40943 -268.7105 -122.34139 -267.7371 L -128.63646 -261.16226 C -129.50453 -260.2556 -130.44537 -259.42154 -131.44954 -258.6684 L -139.82445 -252.38723 C -140.70086 -251.72992 -141.62312 -251.13606 -142.58418 -250.6102 L -149.76938 -246.67867 C -151.0805 -245.96126 -152.45844 -245.37336 -153.88362 -244.9233 L -160.55653 -242.81607 C -162.2734 -242.2739 -164.048 -241.9352 -165.84387 -241.80692 L -172.73032 -241.31503 C -173.80262 -241.23844 -174.87897 -241.23712 -175.95146 -241.31108 L -184.38771 -241.8929 C -185.42189 -241.96422 -186.45006 -242.10537 -187.4652 -242.3154 L -194.6004 -243.79165 C -196.55235 -244.1955 -198.44353 -244.8514 -200.22638 -245.7428 L -204.8858 -248.07252 C -206.11993 -248.6896 -207.29603 -249.41646 -208.39988 -250.24434 L -214.08184 -254.5058 C -214.52097 -254.83517 -214.94818 -255.18013 -215.36263 -255.54005 L -221.1178 -260.53797 C -221.9321 -261.2451 -222.69564 -262.00865 -223.40278 -262.82294 L -227.808 -267.89562 C -228.5621 -268.764 -229.25002 -269.6877 -229.86594 -270.65895 L -233.59964 -276.5467 C -233.9602 -277.1153 -234.29563 -277.69944 -234.60495 -278.29745 L -236.22532 -281.43017 C -236.83447 -282.60785 -237.34064 -283.836 -237.73817 -285.1009 L -239.0184 -289.17438 C -239.2332 -289.85775 -239.41592 -290.5508 -239.566 -291.25122 L -239.64075 -291.6 C -239.83542 -292.50843 -239.72815 -293.45557 -239.33527 -294.29746 L -239.24075 -294.5 C -238.84628 -295.3453 -237.8658 -295.7423 -236.99435 -295.40955 Z" fill="url(#Obj_Gradient)"/>
      <path d="M -236.99435 -295.40955 L -228.8289 -292.29184 C -227.9709 -291.96424 -227.09406 -291.68833 -226.20308 -291.46558 L -212.4859 -288.0363 C -211.32424 -287.74587 -210.14168 -287.5466 -208.949 -287.44034 L -191.42285 -285.8786 C -190.835 -285.82622 -190.24536 -285.7965 -189.65522 -285.78946 L -174.1763 -285.6052 C -173.88596 -285.60173 -173.59558 -285.60377 -173.30531 -285.6113 L -158.882 -285.98594 C -158.52122 -285.9953 -158.1607 -286.01317 -157.80076 -286.0395 L -143.42947 -287.09107 C -142.43803 -287.1636 -141.45234 -287.30036 -140.4786 -287.50044 L -128.90564 -289.87845 C -127.86363 -290.09256 -126.83774 -290.3787 -125.83535 -290.7348 L -114.08336 -294.90986 C -112.99298 -295.29723 -111.78979 -294.76646 -111.34075 -293.7 L -111.34075 -293.7 C -110.8186 -292.4599 -110.66662 -291.09515 -110.90315 -289.77055 L -111.08363 -288.75986 C -111.38741 -287.0587 -111.88194 -285.3972 -112.55786 -283.8068 L -114.10108 -280.1757 C -114.65965 -278.86142 -115.3394 -277.60202 -116.13154 -276.41382 L -119.81732 -270.88515 C -120.56483 -269.7639 -121.40943 -268.7105 -122.34139 -267.7371 L -128.63646 -261.16226 C -129.50453 -260.2556 -130.44537 -259.42154 -131.44954 -258.6684 L -139.82445 -252.38723 C -140.70086 -251.72992 -141.62312 -251.13606 -142.58418 -250.6102 L -149.76938 -246.67867 C -151.0805 -245.96126 -152.45844 -245.37336 -153.88362 -244.9233 L -160.55653 -242.81607 C -162.2734 -242.2739 -164.048 -241.9352 -165.84387 -241.80692 L -172.73032 -241.31503 C -173.80262 -241.23844 -174.87897 -241.23712 -175.95146 -241.31108 L -184.38771 -241.8929 C -185.42189 -241.96422 -186.45006 -242.10537 -187.4652 -242.3154 L -194.6004 -243.79165 C -196.55235 -244.1955 -198.44353 -244.8514 -200.22638 -245.7428 L -204.8858 -248.07252 C -206.11993 -248.6896 -207.29603 -249.41646 -208.39988 -250.24434 L -214.08184 -254.5058 C -214.52097 -254.83517 -214.94818 -255.18013 -215.36263 -255.54005 L -221.1178 -260.53797 C -221.9321 -261.2451 -222.69564 -262.00865 -223.40278 -262.82294 L -227.808 -267.89562 C -228.5621 -268.764 -229.25002 -269.6877 -229.86594 -270.65895 L -233.59964 -276.5467 C -233.9602 -277.1153 -234.29563 -277.69944 -234.60495 -278.29745 L -236.22532 -281.43017 C -236.83447 -282.60785 -237.34064 -283.836 -237.73817 -285.1009 L -239.0184 -289.17438 C -239.2332 -289.85775 -239.41592 -290.5508 -239.566 -291.25122 L -239.64075 -291.6 C -239.83542 -292.50843 -239.72815 -293.45557 -239.33527 -294.29746 L -239.24075 -294.5 C -238.84628 -295.3453 -237.8658 -295.7423 -236.99435 -295.40955 Z" stroke="#7f8080" stroke-linecap="round" stroke-linejoin="round" stroke-width="1"/>
      <path d="M -302.66994 142.17293 L -288.9277 144.4633 C -288.74432 144.49387 -288.56043 144.52123 -288.3761 144.54538 L -260.02246 148.26069 C -259.77593 148.293 -259.52868 148.31955 -259.2809 148.34033 L -229.03803 150.87683 C -228.78112 150.89837 -228.52373 150.9137 -228.2661 150.92282 L -189.33518 152.29916 C -189.14682 152.30582 -188.95835 152.30915 -188.76987 152.30915 L -157.30255 152.30915 C -157.13594 152.30915 -156.96933 152.30655 -156.8028 152.30134 L -131.76801 151.519 C -131.55776 151.51244 -131.34767 151.50172 -131.13785 151.48687 L -109.0901 149.92596 C -108.93178 149.91476 -108.77364 149.9012 -108.61573 149.88528 L -83.35525 147.33965 C -83.15351 147.31932 -82.95217 147.29516 -82.75135 147.26717 L -58.958656 143.9518 C -58.754645 143.92337 -58.5512 143.891 -58.34844 143.85472 L -49.15261 142.20915 C -43.825507 141.25588 -40.174637 136.30223 -40.841054 130.9317 L -43.048643 113.14113 C -43.05129 113.11981 -43.05389 113.09849 -43.05645 113.07716 L -46.620273 83.37863 C -46.64183 83.19899 -46.66034 83.019 -46.67579 82.83873 L -49.03801 55.279517 C -49.047743 55.16594 -49.056264 55.052266 -49.06357 54.93851 L -50.45019 33.346866 C -50.451804 33.32172 -50.45348 33.29658 -50.45521 33.271444 L -52.04737 10.185131 C -52.050864 10.134476 -52.054117 10.083806 -52.05713 10.03312 L -53.233494 -9.769048 C -53.24624 -9.983562 -53.25466 -10.198311 -53.25875 -10.413164 L -53.65103 -31.008002 C -53.652085 -31.063235 -53.65342 -31.11846 -53.65505 -31.17368 L -54.250175 -51.408023 C -54.2518 -51.46324 -54.25314 -51.51847 -54.25419 -51.5737 L -54.64485 -72.08324 C -54.65002 -72.35494 -54.648275 -72.62672 -54.639606 -72.89833 L -54.05366 -91.25794 C -54.05296 -91.27988 -54.052216 -91.30182 -54.051425 -91.32376 L -53.26334 -113.19307 C -53.25619 -113.39158 -53.24534 -113.58993 -53.2308 -113.78803 L -51.673323 -135.00865 C -51.659516 -135.19677 -51.649037 -135.38512 -51.64189 -135.57362 L -50.88744 -155.47248 C -50.864244 -156.08423 -50.80596 -156.69414 -50.71287 -157.2992 L -47.97387 -175.10272 C -47.893086 -175.62782 -47.7862 -176.14857 -47.653604 -176.66303 L -43.025336 -194.62068 C -42.91024 -195.06725 -42.77589 -195.50864 -42.622663 -195.9436 L -36.90188 -212.18325 C -36.73579 -212.65473 -36.5477 -213.11816 -36.338222 -213.57203 L -30.806666 -225.55707 C -30.703976 -225.77956 -30.59619 -225.99967 -30.483388 -226.2172 L -25.121167 -236.55864 C -25.075464 -236.64678 -25.02894 -236.7345 -24.981605 -236.82177 L -19.765625 -246.43873 C -19.028346 -247.7981 -18.078718 -249.031 -16.95261 -250.09086 L -16.95261 -250.09086 C -16.27742 -250.72633 -16.245224 -251.78883 -16.880696 -252.46402 C -17.005191 -252.5963 -17.150328 -252.7075 -17.310446 -252.79327 L -20.524584 -254.51513 C -20.743239 -254.63226 -20.964588 -254.7443 -21.188453 -254.85114 L -29.04243 -258.59963 C -29.449035 -258.7937 -29.863657 -258.9705 -30.285186 -259.12956 L -39.96002 -262.78044 C -40.15506 -262.85404 -40.351524 -262.92383 -40.54929 -262.98975 L -53.243766 -267.22124 C -53.38299 -267.26765 -53.522845 -267.31214 -53.66329 -267.3547 L -66.546815 -271.2588 C -66.617345 -271.28017 -66.68773 -271.30203 -66.757955 -271.32437 L -79.26195 -275.30292 C -79.65558 -275.42816 -80.044205 -275.5686 -80.42696 -275.72393 L -92.40291 -280.58373 C -93.23457 -280.9212 -94.03636 -281.32808 -94.79979 -281.80002 L -104.41904 -287.74647 C -104.57474 -287.84272 -104.72878 -287.94164 -104.88109 -288.04317 L -109.77119 -291.30324 C -110.75258 -291.9575 -111.6239 -292.7634 -112.35261 -293.69086 L -112.35261 -293.69086 C -112.45822 -293.82526 -112.65278 -293.8486 -112.78718 -293.743 C -112.88993 -293.66228 -112.9309 -293.52573 -112.88958 -293.40177 L -112.75261 -292.99086 C -112.29336 -291.6131 -112.1888 -290.14182 -112.44859 -288.71297 L -112.84373 -286.5397 C -113.11494 -285.04804 -113.59679 -283.6025 -114.27481 -282.24645 L -115.80713 -279.1818 C -116.10383 -278.58842 -116.43715 -278.01405 -116.80516 -277.46203 L -120.00887 -272.65647 C -120.43747 -272.01357 -120.91208 -271.40256 -121.42896 -270.82824 L -125.99101 -265.7593 C -126.03208 -265.71367 -126.0734 -265.66828 -126.115 -265.62312 L -132.10923 -259.1151 C -132.73697 -258.43356 -133.42272 -257.80783 -134.15875 -257.24498 L -139.18293 -253.40297 C -139.62907 -253.0618 -140.09288 -252.74435 -140.57241 -252.45195 L -147.05881 -248.49683 C -147.72047 -248.09338 -148.41057 -247.73853 -149.12365 -247.4351 L -156.23906 -244.40726 C -157.04673 -244.06357 -157.8813 -243.78693 -158.73434 -243.58013 L -162.8134 -242.59127 C -163.63823 -242.3913 -164.47767 -242.2573 -165.32376 -242.1905 L -171.02397 -241.74048 C -171.4429 -241.7074 -171.86298 -241.69086 -172.28321 -241.69086 L -179.31553 -241.69086 C -180.07263 -241.69086 -180.82878 -241.7446 -181.57827 -241.85166 L -189.52472 -242.98687 C -190.00973 -243.05616 -190.4913 -243.14768 -190.9679 -243.26116 L -196.92913 -244.6805 C -198.07462 -244.95324 -199.1865 -245.3516 -200.24457 -245.86832 L -206.52457 -248.9353 C -207.00962 -249.17218 -207.48237 -249.43346 -207.94101 -249.71814 L -212.15288 -252.3324 C -212.75205 -252.7043 -213.32597 -253.1154 -213.8709 -253.56302 L -218.317 -257.21518 C -218.5407 -257.39893 -218.75937 -257.58872 -218.97277 -257.78433 L -222.7751 -261.2698 C -223.2264 -261.6835 -223.6536 -262.12275 -224.05454 -262.5854 L -228.1733 -267.3378 C -228.49267 -267.7063 -228.79504 -268.08923 -229.07944 -268.48537 L -233.5091 -274.65525 C -234.004 -275.34456 -234.44326 -276.07215 -234.82275 -276.83114 L -237.39922 -281.98406 C -237.43481 -282.05526 -237.46988 -282.1267 -237.5044 -282.19843 L -238.7526 -284.79086 C -239.60333 -286.55772 -239.95885 -288.52226 -239.7813 -290.4752 L -239.6011 -292.45747 C -239.5773 -292.71933 -239.77028 -292.9509 -240.03214 -292.9747 C -240.19454 -292.98948 -240.3532 -292.9201 -240.4526 -292.79086 L -240.4526 -292.79086 C -241.11606 -291.92838 -241.89617 -291.1623 -242.77055 -290.5146 L -246.66708 -287.6283 C -246.79076 -287.53667 -246.91576 -287.44684 -247.04204 -287.35883 L -251.6643 -284.13726 C -252.85102 -283.31015 -254.14444 -282.64778 -255.5092 -282.16827 L -260.11632 -280.54955 C -260.6069 -280.3772 -261.08877 -280.181 -261.56024 -279.96173 L -268.40702 -276.77718 C -269.10318 -276.45338 -269.82174 -276.18012 -270.55714 -275.9595 L -281.42753 -272.69838 C -281.44425 -272.69336 -281.46097 -272.68832 -281.47767 -272.68325 L -292.44576 -269.35365 C -292.58366 -269.3118 -292.72098 -269.26807 -292.8577 -269.2225 L -305.77893 -264.91542 C -305.82805 -264.89904 -305.87725 -264.8829 -305.92653 -264.867 L -317.29394 -261.2001 C -317.93242 -260.99414 -318.55732 -260.74823 -319.16494 -260.4638 L -327.0969 -256.75098 C -327.46724 -256.57763 -327.8308 -256.39014 -328.18678 -256.18894 L -334.1329 -252.8281 C -335.38592 -252.11985 -335.82757 -250.52993 -335.11933 -249.2769 C -335.0422 -249.14046 -334.95295 -249.01125 -334.8526 -248.89086 L -333.9885 -247.85392 C -333.23356 -246.948 -332.5811 -245.96137 -332.04297 -244.91204 L -328.96583 -238.91162 C -328.89036 -238.76445 -328.8126 -238.61846 -328.7326 -238.4737 L -324.77786 -231.3175 C -324.69437 -231.1664 -324.61333 -231.014 -324.53477 -230.8603 L -320.42646 -222.8223 C -320.1774 -222.335 -319.9535 -221.83522 -319.75564 -221.32497 L -316.27287 -212.3431 C -316.25937 -212.30827 -316.24574 -212.2735 -316.232 -212.23876 L -312.63567 -203.15332 C -312.51366 -202.84508 -312.40126 -202.53313 -312.29864 -202.21792 L -309.6768 -194.16514 C -309.66068 -194.11562 -309.6448 -194.06601 -309.62916 -194.01634 L -306.5571 -184.25807 C -306.3543 -183.6139 -306.1925 -182.95755 -306.07266 -182.29294 L -304.08735 -171.28348 C -304.0642 -171.15507 -304.0426 -171.02638 -304.0226 -170.89743 L -302.31673 -159.90405 C -302.274 -159.62863 -302.23846 -159.35215 -302.21017 -159.07487 L -301.32275 -150.37816 C -301.276 -149.92017 -301.24907 -149.46038 -301.242 -149.00006 L -301.05775 -137.02444 C -301.05433 -136.80207 -301.04627 -136.5798 -301.03358 -136.35777 L -300.2632 -122.87621 C -300.25615 -122.75264 -300.24765 -122.62916 -300.23772 -122.5058 L -298.90415 -105.93142 C -298.8698 -105.50455 -298.8526 -105.07647 -298.8526 -104.64821 L -298.8526 -92.19843 C -298.8526 -91.9934 -298.84867 -91.78838 -298.8408 -91.5835 L -298.26044 -76.49436 C -298.25522 -76.358695 -298.25173 -76.22297 -298.24997 -76.08721 L -298.0578 -61.29095 C -298.05435 -61.02426 -298.05755 -60.757524 -298.06742 -60.49099 L -298.64165 -44.986844 C -298.64896 -44.789533 -298.6526 -44.592104 -298.6526 -44.394657 L -298.6526 -30.79843 C -298.6526 -30.593397 -298.65656 -30.388382 -298.66444 -30.1835 L -299.24963 -14.968498 C -299.25162 -14.916734 -299.25386 -14.86498 -299.25636 -14.813238 L -300.05168 1.6896976 C -300.0523 1.702665 -300.05294 1.7156315 -300.0536 1.7285973 L -300.8481 17.419764 C -300.8511 17.479354 -300.85446 17.538925 -300.85814 17.598477 L -302.04705 36.81921 C -302.05076 36.87917 -302.0548 36.939106 -302.0592 36.99902 L -303.84233 61.36857 C -303.8492 61.46229 -303.85687 61.555944 -303.86538 61.64953 L -305.65127 81.29434 C -305.65217 81.30421 -305.65307 81.31409 -305.654 81.32396 L -307.42475 100.40886 C -307.44333 100.60904 -307.46567 100.80884 -307.49177 101.00818 L -309.4525 115.9809 C -309.5853 116.99509 -309.85444 117.9867 -310.2526 118.92888 L -310.2526 118.92888 C -310.6502 119.86962 -310.89886 120.86654 -310.9897 121.8838 L -311.7526 130.42888 C -312.26037 136.1159 -308.3019 141.23427 -302.66994 142.17293 Z" fill="#750000"/>
      <path d="M -302.66994 142.17293 L -288.9277 144.4633 C -288.74432 144.49387 -288.56043 144.52123 -288.3761 144.54538 L -260.02246 148.26069 C -259.77593 148.293 -259.52868 148.31955 -259.2809 148.34033 L -229.03803 150.87683 C -228.78112 150.89837 -228.52373 150.9137 -228.2661 150.92282 L -189.33518 152.29916 C -189.14682 152.30582 -188.95835 152.30915 -188.76987 152.30915 L -157.30255 152.30915 C -157.13594 152.30915 -156.96933 152.30655 -156.8028 152.30134 L -131.76801 151.519 C -131.55776 151.51244 -131.34767 151.50172 -131.13785 151.48687 L -109.0901 149.92596 C -108.93178 149.91476 -108.77364 149.9012 -108.61573 149.88528 L -83.35525 147.33965 C -83.15351 147.31932 -82.95217 147.29516 -82.75135 147.26717 L -58.958656 143.9518 C -58.754645 143.92337 -58.5512 143.891 -58.34844 143.85472 L -49.15261 142.20915 C -43.825507 141.25588 -40.174637 136.30223 -40.841054 130.9317 L -43.048643 113.14113 C -43.05129 113.11981 -43.05389 113.09849 -43.05645 113.07716 L -46.620273 83.37863 C -46.64183 83.19899 -46.66034 83.019 -46.67579 82.83873 L -49.03801 55.279517 C -49.047743 55.16594 -49.056264 55.052266 -49.06357 54.93851 L -50.45019 33.346866 C -50.451804 33.32172 -50.45348 33.29658 -50.45521 33.271444 L -52.04737 10.185131 C -52.050864 10.134476 -52.054117 10.083806 -52.05713 10.03312 L -53.233494 -9.769048 C -53.24624 -9.983562 -53.25466 -10.198311 -53.25875 -10.413164 L -53.65103 -31.008002 C -53.652085 -31.063235 -53.65342 -31.11846 -53.65505 -31.17368 L -54.250175 -51.408023 C -54.2518 -51.46324 -54.25314 -51.51847 -54.25419 -51.5737 L -54.64485 -72.08324 C -54.65002 -72.35494 -54.648275 -72.62672 -54.639606 -72.89833 L -54.05366 -91.25794 C -54.05296 -91.27988 -54.052216 -91.30182 -54.051425 -91.32376 L -53.26334 -113.19307 C -53.25619 -113.39158 -53.24534 -113.58993 -53.2308 -113.78803 L -51.673323 -135.00865 C -51.659516 -135.19677 -51.649037 -135.38512 -51.64189 -135.57362 L -50.88744 -155.47248 C -50.864244 -156.08423 -50.80596 -156.69414 -50.71287 -157.2992 L -47.97387 -175.10272 C -47.893086 -175.62782 -47.7862 -176.14857 -47.653604 -176.66303 L -43.025336 -194.62068 C -42.91024 -195.06725 -42.77589 -195.50864 -42.622663 -195.9436 L -36.90188 -212.18325 C -36.73579 -212.65473 -36.5477 -213.11816 -36.338222 -213.57203 L -30.806666 -225.55707 C -30.703976 -225.77956 -30.59619 -225.99967 -30.483388 -226.2172 L -25.121167 -236.55864 C -25.075464 -236.64678 -25.02894 -236.7345 -24.981605 -236.82177 L -19.765625 -246.43873 C -19.028346 -247.7981 -18.078718 -249.031 -16.95261 -250.09086 L -16.95261 -250.09086 C -16.27742 -250.72633 -16.245224 -251.78883 -16.880696 -252.46402 C -17.005191 -252.5963 -17.150328 -252.7075 -17.310446 -252.79327 L -20.524584 -254.51513 C -20.743239 -254.63226 -20.964588 -254.7443 -21.188453 -254.85114 L -29.04243 -258.59963 C -29.449035 -258.7937 -29.863657 -258.9705 -30.285186 -259.12956 L -39.96002 -262.78044 C -40.15506 -262.85404 -40.351524 -262.92383 -40.54929 -262.98975 L -53.243766 -267.22124 C -53.38299 -267.26765 -53.522845 -267.31214 -53.66329 -267.3547 L -66.546815 -271.2588 C -66.617345 -271.28017 -66.68773 -271.30203 -66.757955 -271.32437 L -79.26195 -275.30292 C -79.65558 -275.42816 -80.044205 -275.5686 -80.42696 -275.72393 L -92.40291 -280.58373 C -93.23457 -280.9212 -94.03636 -281.32808 -94.79979 -281.80002 L -104.41904 -287.74647 C -104.57474 -287.84272 -104.72878 -287.94164 -104.88109 -288.04317 L -109.77119 -291.30324 C -110.75258 -291.9575 -111.6239 -292.7634 -112.35261 -293.69086 L -112.35261 -293.69086 C -112.45822 -293.82526 -112.65278 -293.8486 -112.78718 -293.743 C -112.88993 -293.66228 -112.9309 -293.52573 -112.88958 -293.40177 L -112.75261 -292.99086 C -112.29336 -291.6131 -112.1888 -290.14182 -112.44859 -288.71297 L -112.84373 -286.5397 C -113.11494 -285.04804 -113.59679 -283.6025 -114.27481 -282.24645 L -115.80713 -279.1818 C -116.10383 -278.58842 -116.43715 -278.01405 -116.80516 -277.46203 L -120.00887 -272.65647 C -120.43747 -272.01357 -120.91208 -271.40256 -121.42896 -270.82824 L -125.99101 -265.7593 C -126.03208 -265.71367 -126.0734 -265.66828 -126.115 -265.62312 L -132.10923 -259.1151 C -132.73697 -258.43356 -133.42272 -257.80783 -134.15875 -257.24498 L -139.18293 -253.40297 C -139.62907 -253.0618 -140.09288 -252.74435 -140.57241 -252.45195 L -147.05881 -248.49683 C -147.72047 -248.09338 -148.41057 -247.73853 -149.12365 -247.4351 L -156.23906 -244.40726 C -157.04673 -244.06357 -157.8813 -243.78693 -158.73434 -243.58013 L -162.8134 -242.59127 C -163.63823 -242.3913 -164.47767 -242.2573 -165.32376 -242.1905 L -171.02397 -241.74048 C -171.4429 -241.7074 -171.86298 -241.69086 -172.28321 -241.69086 L -179.31553 -241.69086 C -180.07263 -241.69086 -180.82878 -241.7446 -181.57827 -241.85166 L -189.52472 -242.98687 C -190.00973 -243.05616 -190.4913 -243.14768 -190.9679 -243.26116 L -196.92913 -244.6805 C -198.07462 -244.95324 -199.1865 -245.3516 -200.24457 -245.86832 L -206.52457 -248.9353 C -207.00962 -249.17218 -207.48237 -249.43346 -207.94101 -249.71814 L -212.15288 -252.3324 C -212.75205 -252.7043 -213.32597 -253.1154 -213.8709 -253.56302 L -218.317 -257.21518 C -218.5407 -257.39893 -218.75937 -257.58872 -218.97277 -257.78433 L -222.7751 -261.2698 C -223.2264 -261.6835 -223.6536 -262.12275 -224.05454 -262.5854 L -228.1733 -267.3378 C -228.49267 -267.7063 -228.79504 -268.08923 -229.07944 -268.48537 L -233.5091 -274.65525 C -234.004 -275.34456 -234.44326 -276.07215 -234.82275 -276.83114 L -237.39922 -281.98406 C -237.43481 -282.05526 -237.46988 -282.1267 -237.5044 -282.19843 L -238.7526 -284.79086 C -239.60333 -286.55772 -239.95885 -288.52226 -239.7813 -290.4752 L -239.6011 -292.45747 C -239.5773 -292.71933 -239.77028 -292.9509 -240.03214 -292.9747 C -240.19454 -292.98948 -240.3532 -292.9201 -240.4526 -292.79086 L -240.4526 -292.79086 C -241.11606 -291.92838 -241.89617 -291.1623 -242.77055 -290.5146 L -246.66708 -287.6283 C -246.79076 -287.53667 -246.91576 -287.44684 -247.04204 -287.35883 L -251.6643 -284.13726 C -252.85102 -283.31015 -254.14444 -282.64778 -255.5092 -282.16827 L -260.11632 -280.54955 C -260.6069 -280.3772 -261.08877 -280.181 -261.56024 -279.96173 L -268.40702 -276.77718 C -269.10318 -276.45338 -269.82174 -276.18012 -270.55714 -275.9595 L -281.42753 -272.69838 C -281.44425 -272.69336 -281.46097 -272.68832 -281.47767 -272.68325 L -292.44576 -269.35365 C -292.58366 -269.3118 -292.72098 -269.26807 -292.8577 -269.2225 L -305.77893 -264.91542 C -305.82805 -264.89904 -305.87725 -264.8829 -305.92653 -264.867 L -317.29394 -261.2001 C -317.93242 -260.99414 -318.55732 -260.74823 -319.16494 -260.4638 L -327.0969 -256.75098 C -327.46724 -256.57763 -327.8308 -256.39014 -328.18678 -256.18894 L -334.1329 -252.8281 C -335.38592 -252.11985 -335.82757 -250.52993 -335.11933 -249.2769 C -335.0422 -249.14046 -334.95295 -249.01125 -334.8526 -248.89086 L -333.9885 -247.85392 C -333.23356 -246.948 -332.5811 -245.96137 -332.04297 -244.91204 L -328.96583 -238.91162 C -328.89036 -238.76445 -328.8126 -238.61846 -328.7326 -238.4737 L -324.77786 -231.3175 C -324.69437 -231.1664 -324.61333 -231.014 -324.53477 -230.8603 L -320.42646 -222.8223 C -320.1774 -222.335 -319.9535 -221.83522 -319.75564 -221.32497 L -316.27287 -212.3431 C -316.25937 -212.30827 -316.24574 -212.2735 -316.232 -212.23876 L -312.63567 -203.15332 C -312.51366 -202.84508 -312.40126 -202.53313 -312.29864 -202.21792 L -309.6768 -194.16514 C -309.66068 -194.11562 -309.6448 -194.06601 -309.62916 -194.01634 L -306.5571 -184.25807 C -306.3543 -183.6139 -306.1925 -182.95755 -306.07266 -182.29294 L -304.08735 -171.28348 C -304.0642 -171.15507 -304.0426 -171.02638 -304.0226 -170.89743 L -302.31673 -159.90405 C -302.274 -159.62863 -302.23846 -159.35215 -302.21017 -159.07487 L -301.32275 -150.37816 C -301.276 -149.92017 -301.24907 -149.46038 -301.242 -149.00006 L -301.05775 -137.02444 C -301.05433 -136.80207 -301.04627 -136.5798 -301.03358 -136.35777 L -300.2632 -122.87621 C -300.25615 -122.75264 -300.24765 -122.62916 -300.23772 -122.5058 L -298.90415 -105.93142 C -298.8698 -105.50455 -298.8526 -105.07647 -298.8526 -104.64821 L -298.8526 -92.19843 C -298.8526 -91.9934 -298.84867 -91.78838 -298.8408 -91.5835 L -298.26044 -76.49436 C -298.25522 -76.358695 -298.25173 -76.22297 -298.24997 -76.08721 L -298.0578 -61.29095 C -298.05435 -61.02426 -298.05755 -60.757524 -298.06742 -60.49099 L -298.64165 -44.986844 C -298.64896 -44.789533 -298.6526 -44.592104 -298.6526 -44.394657 L -298.6526 -30.79843 C -298.6526 -30.593397 -298.65656 -30.388382 -298.66444 -30.1835 L -299.24963 -14.968498 C -299.25162 -14.916734 -299.25386 -14.86498 -299.25636 -14.813238 L -300.05168 1.6896976 C -300.0523 1.702665 -300.05294 1.7156315 -300.0536 1.7285973 L -300.8481 17.419764 C -300.8511 17.479354 -300.85446 17.538925 -300.85814 17.598477 L -302.04705 36.81921 C -302.05076 36.87917 -302.0548 36.939106 -302.0592 36.99902 L -303.84233 61.36857 C -303.8492 61.46229 -303.85687 61.555944 -303.86538 61.64953 L -305.65127 81.29434 C -305.65217 81.30421 -305.65307 81.31409 -305.654 81.32396 L -307.42475 100.40886 C -307.44333 100.60904 -307.46567 100.80884 -307.49177 101.00818 L -309.4525 115.9809 C -309.5853 116.99509 -309.85444 117.9867 -310.2526 118.92888 L -310.2526 118.92888 C -310.6502 119.86962 -310.89886 120.86654 -310.9897 121.8838 L -311.7526 130.42888 C -312.26037 136.1159 -308.3019 141.23427 -302.66994 142.17293 Z" stroke="#7f8080" stroke-linecap="round" stroke-linejoin="round" stroke-width="1"/>
      <path d="M -390 -144.55385 L -383.8 -140.15385 L -375.6 -136.15385 L -367 -132.55385 L -358 -128.75385 L -347 -124.75385 L -337.6 -121.95385 L -328.6 -119.35385 L -319.6 -116.75385 L -314.2 -115.35385 L -308.6 -114.35385 L -306.2 -120.15385 L -303.6 -125.55385 L -301.4 -129.55385 L -298.8 -132.95385 L -298.6 -141.95385 L -299.2 -152.95385 L -301 -163.75385 L -302.6 -174.15385 L -305.2 -185.15386 L -307.6 -194.75386 L -310.4 -202.75386 L -313.6 -212.15386 L -316.4 -219.55386 L -320 -227.15386 L -324 -234.75386 L -328 -242.15386 L -330.6 -245.75386 L -334.2 -251.55386 L -339.6 -247.15386 L -344.4 -242.35386 L -349 -236.15386 L -353.4 -229.95386 L -358.2 -221.35386 L -363 -211.95386 L -367.8 -202.75386 L -371.4 -194.15386 L -375.4 -185.15386 L -378.6 -176.95385 L -382.4 -167.55385 L -385.2 -159.55385 L -388.2 -151.15385 Z" fill="#761223"/>
      <path d="M -390 -144.55385 L -383.8 -140.15385 L -375.6 -136.15385 L -367 -132.55385 L -358 -128.75385 L -347 -124.75385 L -337.6 -121.95385 L -328.6 -119.35385 L -319.6 -116.75385 L -314.2 -115.35385 L -308.6 -114.35385 L -306.2 -120.15385 L -303.6 -125.55385 L -301.4 -129.55385 L -298.8 -132.95385 L -298.6 -141.95385 L -299.2 -152.95385 L -301 -163.75385 L -302.6 -174.15385 L -305.2 -185.15386 L -307.6 -194.75386 L -310.4 -202.75386 L -313.6 -212.15386 L -316.4 -219.55386 L -320 -227.15386 L -324 -234.75386 L -328 -242.15386 L -330.6 -245.75386 L -334.2 -251.55386 L -339.6 -247.15386 L -344.4 -242.35386 L -349 -236.15386 L -353.4 -229.95386 L -358.2 -221.35386 L -363 -211.95386 L -367.8 -202.75386 L -371.4 -194.15386 L -375.4 -185.15386 L -378.6 -176.95385 L -382.4 -167.55385 L -385.2 -159.55385 L -388.2 -151.15385 Z" stroke="#7f8080" stroke-linecap="round" stroke-linejoin="round" stroke-width="1"/>
      <path d="M 40.40529 -144.49725 L 34.20529 -140.09725 L 26.00529 -136.09725 L 17.40529 -132.49725 L 8.405289 -128.69725 L -2.594711 -124.69725 L -11.994711 -121.89725 L -20.994711 -119.29725 L -29.99471 -116.69725 L -35.39471 -115.29725 L -40.99471 -114.29725 L -43.39471 -120.09725 L -45.99471 -125.49725 L -48.19471 -129.49725 L -50.79471 -132.89725 L -50.99471 -141.89725 L -50.39471 -152.89725 L -48.59471 -163.69725 L -46.99471 -174.09725 L -44.39471 -185.09725 L -41.99471 -194.69725 L -39.19471 -202.69725 L -35.99471 -212.09725 L -33.19471 -219.49725 L -29.59471 -227.09725 L -25.59471 -234.69725 L -21.594711 -242.09725 L -18.994711 -245.69725 L -15.394711 -251.49725 L -9.994711 -247.09725 L -5.194711 -242.29725 L -.5947111 -236.09725 L 3.805289 -229.89725 L 8.605289 -221.29725 L 13.405289 -211.89725 L 18.20529 -202.69725 L 21.80529 -194.09725 L 25.80529 -185.09725 L 29.00529 -176.89725 L 32.80529 -167.49725 L 35.60529 -159.49725 L 38.60529 -151.09725 Z" fill="#6d0000"/>
      <path d="M 40.40529 -144.49725 L 34.20529 -140.09725 L 26.00529 -136.09725 L 17.40529 -132.49725 L 8.405289 -128.69725 L -2.594711 -124.69725 L -11.994711 -121.89725 L -20.994711 -119.29725 L -29.99471 -116.69725 L -35.39471 -115.29725 L -40.99471 -114.29725 L -43.39471 -120.09725 L -45.99471 -125.49725 L -48.19471 -129.49725 L -50.79471 -132.89725 L -50.99471 -141.89725 L -50.39471 -152.89725 L -48.59471 -163.69725 L -46.99471 -174.09725 L -44.39471 -185.09725 L -41.99471 -194.69725 L -39.19471 -202.69725 L -35.99471 -212.09725 L -33.19471 -219.49725 L -29.59471 -227.09725 L -25.59471 -234.69725 L -21.594711 -242.09725 L -18.994711 -245.69725 L -15.394711 -251.49725 L -9.994711 -247.09725 L -5.194711 -242.29725 L -.5947111 -236.09725 L 3.805289 -229.89725 L 8.605289 -221.29725 L 13.405289 -211.89725 L 18.20529 -202.69725 L 21.80529 -194.09725 L 25.80529 -185.09725 L 29.00529 -176.89725 L 32.80529 -167.49725 L 35.60529 -159.49725 L 38.60529 -151.09725 Z" stroke="#7f8080" stroke-linecap="round" stroke-linejoin="round" stroke-width="1"/>
      <path d="M -390 -144.55385 L -383.8 -140.15385 L -375.6 -136.15385 L -367 -132.55385 L -358 -128.75385 L -347 -124.75385 L -337.6 -121.95385 L -328.6 -119.35385 L -319.6 -116.75385 L -314.2 -115.35385 L -308.6 -114.35385 L -305.6 -120.75385 L -309.4 -121.55385 L -314.2 -122.75385 L -319.8 -123.95385 L -325.8 -125.75385 L -330.4 -127.15385 L -334.6 -128.35385 L -339.2 -130.35385 L -343.8 -131.95385 L -348.6 -133.95385 L -352.6 -135.35385 L -357.8 -137.55385 L -362.4 -139.15385 L -367.2 -141.35385 L -372 -143.15385 L -376 -145.15385 L -380.4 -147.35385 L -384.8 -149.55385 L -388.2 -151.15385 Z" fill="black"/>
      <path d="M -390 -144.55385 L -383.8 -140.15385 L -375.6 -136.15385 L -367 -132.55385 L -358 -128.75385 L -347 -124.75385 L -337.6 -121.95385 L -328.6 -119.35385 L -319.6 -116.75385 L -314.2 -115.35385 L -308.6 -114.35385 L -305.6 -120.75385 L -309.4 -121.55385 L -314.2 -122.75385 L -319.8 -123.95385 L -325.8 -125.75385 L -330.4 -127.15385 L -334.6 -128.35385 L -339.2 -130.35385 L -343.8 -131.95385 L -348.6 -133.95385 L -352.6 -135.35385 L -357.8 -137.55385 L -362.4 -139.15385 L -367.2 -141.35385 L -372 -143.15385 L -376 -145.15385 L -380.4 -147.35385 L -384.8 -149.55385 L -388.2 -151.15385 Z" stroke="#7f8080" stroke-linecap="round" stroke-linejoin="round" stroke-width="1"/>
      <path d="M 41.40529 -145.49725 L 35.20529 -141.09725 L 27.00529 -137.09725 L 18.40529 -133.49725 L 9.405289 -129.69725 L -1.5947111 -125.69725 L -10.994711 -122.89725 L -19.994711 -120.29725 L -28.99471 -117.69725 L -34.39471 -116.29725 L -39.99471 -115.29725 L -42.99471 -121.69725 L -39.19471 -122.49725 L -34.39471 -123.69725 L -28.79471 -124.89725 L -22.794711 -126.69725 L -18.194711 -128.09725 L -13.994711 -129.29725 L -9.394711 -131.29725 L -4.794711 -132.89725 L .005288902 -134.89725 L 4.005289 -136.29725 L 9.205289 -138.49725 L 13.805289 -140.09725 L 18.60529 -142.29725 L 23.40529 -144.09725 L 27.40529 -146.09725 L 31.80529 -148.29725 L 36.20529 -150.49725 L 39.60529 -152.09725 Z" fill="black"/>
      <path d="M 41.40529 -145.49725 L 35.20529 -141.09725 L 27.00529 -137.09725 L 18.40529 -133.49725 L 9.405289 -129.69725 L -1.5947111 -125.69725 L -10.994711 -122.89725 L -19.994711 -120.29725 L -28.99471 -117.69725 L -34.39471 -116.29725 L -39.99471 -115.29725 L -42.99471 -121.69725 L -39.19471 -122.49725 L -34.39471 -123.69725 L -28.79471 -124.89725 L -22.794711 -126.69725 L -18.194711 -128.09725 L -13.994711 -129.29725 L -9.394711 -131.29725 L -4.794711 -132.89725 L .005288902 -134.89725 L 4.005289 -136.29725 L 9.205289 -138.49725 L 13.805289 -140.09725 L 18.60529 -142.29725 L 23.40529 -144.09725 L 27.40529 -146.09725 L 31.80529 -148.29725 L 36.20529 -150.49725 L 39.60529 -152.09725 Z" stroke="#7f8080" stroke-linecap="round" stroke-linejoin="round" stroke-width="1"/>
      <path d="M -239.42788 -294.0362 L -244.15705 -289.98264 C -245.3074 -288.99662 -246.55236 -288.1267 -247.8738 -287.3855 L -250.40042 -285.96835 C -251.8356 -285.16338 -252.4164 -283.39425 -251.7376 -281.89527 L -250.72 -279.64803 C -250.59842 -279.37954 -250.4717 -279.11342 -250.33988 -278.8498 L -248.5376 -275.24526 L -246.05062 -270.2713 C -245.70883 -269.5877 -245.33317 -268.92157 -244.92505 -268.27537 L -242.59866 -264.59192 C -242.15828 -263.89465 -241.68072 -263.22158 -241.16805 -262.5756 L -237.75736 -258.27815 C -237.2113 -257.59013 -236.6263 -256.93394 -236.00518 -256.31283 L -231.33913 -251.6468 C -230.93825 -251.2459 -230.5227 -250.86 -230.0933 -250.48982 L -225.52977 -246.55574 C -225.1351 -246.21552 -224.729 -245.8888 -224.31215 -245.57617 L -220.33721 -242.59497 C -219.6713 -242.09553 -218.97877 -241.63262 -218.26267 -241.20826 L -214.1296 -238.75904 C -214.0016 -238.6832 -213.87288 -238.6086 -213.74344 -238.53523 L -209.0459 -235.8733 C -208.3076 -235.45493 -207.54672 -235.07774 -206.76675 -234.74347 L -203.21693 -233.22212 C -202.63097 -232.971 -202.03482 -232.74433 -201.43003 -232.54274 L -196.41192 -230.87003 C -195.16468 -230.45429 -193.88408 -230.14624 -192.5842 -229.9493 L -188.48536 -229.32826 C -188.12024 -229.27294 -187.75385 -229.22642 -187.3865 -229.18874 L -180.5054 -228.48299 C -180.26022 -228.45784 -180.01466 -228.43664 -179.7688 -228.41938 L -175.24165 -228.1017 C -174.7058 -228.06409 -174.16878 -228.04527 -173.6316 -228.04527 L -170.36954 -228.04526 C -169.41584 -228.04526 -168.46307 -228.10458 -167.51673 -228.22287 L -163.52802 -228.72146 C -162.86805 -228.80396 -162.21198 -228.91504 -161.56165 -229.0544 L -155.47961 -230.3577 C -154.58574 -230.54924 -153.70408 -230.7939 -152.83932 -231.0904 L -148.33048 -232.63628 C -147.53583 -232.90873 -146.7567 -233.2245 -145.9966 -233.5822 L -141.16323 -235.85674 C -140.61303 -236.11565 -140.07332 -236.3963 -139.54536 -236.69798 L -135.7775 -238.85104 C -135.0847 -239.24692 -134.41299 -239.67858 -133.76506 -240.14428 L -129.08894 -243.50525 C -128.58825 -243.8651 -128.10224 -244.24497 -127.63208 -244.6439 L -122.31123 -249.15856 C -121.92892 -249.48294 -121.55731 -249.81974 -121.19702 -250.16842 L -116.4978 -254.71604 C -115.85821 -255.335 -115.25509 -255.99056 -114.69148 -256.67942 L -110.8982 -261.31566 C -110.39148 -261.93497 -109.91743 -262.5803 -109.47799 -263.24904 L -105.86081 -268.75344 C -105.64538 -269.08127 -105.43837 -269.41456 -105.23998 -269.75298 L -102.71689 -274.05708 C -102.33094 -274.71546 -101.978 -275.39265 -101.65938 -276.08612 L -99.54068 -280.6974 C -99.00782 -281.85715 -98.63666 -283.08456 -98.43761 -284.34526 L -98.43761 -284.34526 C -98.2593 -285.47453 -98.8386 -286.58797 -99.86568 -287.0901 L -105.15912 -289.678 C -106.47358 -290.32063 -107.70817 -291.11514 -108.83761 -292.04526 L -109.24362 -292.37963 C -110.08795 -293.07496 -110.71136 -294.00126 -111.03761 -295.04526 L -111.03761 -295.04526 C -111.08427 -295.19458 -111.24314 -295.2778 -111.39246 -295.23114 C -111.50753 -295.19518 -111.58723 -295.0903 -111.59108 -294.9698 L -111.70032 -291.5469 C -111.79106 -288.7038 -112.4084 -285.90224 -113.52101 -283.28433 L -114.39794 -281.22096 C -114.95651 -279.9067 -115.63626 -278.6473 -116.4284 -277.4591 L -120.11418 -271.9304 C -120.86169 -270.80915 -121.7063 -269.75575 -122.63825 -268.78238 L -128.93332 -262.20753 C -129.80139 -261.30087 -130.74223 -260.4668 -131.7464 -259.71367 L -140.1213 -253.4325 C -140.99772 -252.77518 -141.91998 -252.18133 -142.88104 -251.65546 L -150.06624 -247.72394 C -151.37737 -247.00653 -152.7553 -246.41863 -154.18048 -245.96857 L -160.8534 -243.86133 C -162.57027 -243.31916 -164.34486 -242.98046 -166.14073 -242.85219 L -173.02719 -242.3603 C -174.09948 -242.2837 -175.17583 -242.28238 -176.24832 -242.35635 L -184.68457 -242.93816 C -185.71875 -243.00948 -186.74692 -243.15064 -187.76205 -243.36067 L -194.89726 -244.83692 C -196.84921 -245.24077 -198.74039 -245.89665 -200.52324 -246.78808 L -205.18265 -249.11779 C -206.4168 -249.73485 -207.5929 -250.46173 -208.69674 -251.2896 L -214.3787 -255.55108 C -214.81783 -255.88043 -215.24504 -256.2254 -215.6595 -256.58532 L -221.41467 -261.58324 C -222.22896 -262.29038 -222.9925 -263.05392 -223.69964 -263.8682 L -228.10487 -268.9409 C -228.85897 -269.80925 -229.54688 -270.73295 -230.1628 -271.70422 L -233.8965 -277.59198 C -234.25707 -278.16056 -234.5925 -278.7447 -234.9018 -279.34272 L -236.52219 -282.47544 C -237.13133 -283.65312 -237.6375 -284.88126 -238.03503 -286.14615 L -239.31527 -290.21964 C -239.53005 -290.90302 -239.71278 -291.59605 -239.86287 -292.2965 L -240.0883 -293.34843 C -240.17336 -293.74544 -239.947 -294.1431 -239.5622 -294.27263 L -239.5622 -294.27263 C -239.4897 -294.29704 -239.41116 -294.25805 -239.38675 -294.18556 C -239.36874 -294.13205 -239.385 -294.07296 -239.42788 -294.0362 Z" fill="black"/>
      <path d="M -239.42788 -294.0362 L -244.15705 -289.98264 C -245.3074 -288.99662 -246.55236 -288.1267 -247.8738 -287.3855 L -250.40042 -285.96835 C -251.8356 -285.16338 -252.4164 -283.39425 -251.7376 -281.89527 L -250.72 -279.64803 C -250.59842 -279.37954 -250.4717 -279.11342 -250.33988 -278.8498 L -248.5376 -275.24526 L -246.05062 -270.2713 C -245.70883 -269.5877 -245.33317 -268.92157 -244.92505 -268.27537 L -242.59866 -264.59192 C -242.15828 -263.89465 -241.68072 -263.22158 -241.16805 -262.5756 L -237.75736 -258.27815 C -237.2113 -257.59013 -236.6263 -256.93394 -236.00518 -256.31283 L -231.33913 -251.6468 C -230.93825 -251.2459 -230.5227 -250.86 -230.0933 -250.48982 L -225.52977 -246.55574 C -225.1351 -246.21552 -224.729 -245.8888 -224.31215 -245.57617 L -220.33721 -242.59497 C -219.6713 -242.09553 -218.97877 -241.63262 -218.26267 -241.20826 L -214.1296 -238.75904 C -214.0016 -238.6832 -213.87288 -238.6086 -213.74344 -238.53523 L -209.0459 -235.8733 C -208.3076 -235.45493 -207.54672 -235.07774 -206.76675 -234.74347 L -203.21693 -233.22212 C -202.63097 -232.971 -202.03482 -232.74433 -201.43003 -232.54274 L -196.41192 -230.87003 C -195.16468 -230.45429 -193.88408 -230.14624 -192.5842 -229.9493 L -188.48536 -229.32826 C -188.12024 -229.27294 -187.75385 -229.22642 -187.3865 -229.18874 L -180.5054 -228.48299 C -180.26022 -228.45784 -180.01466 -228.43664 -179.7688 -228.41938 L -175.24165 -228.1017 C -174.7058 -228.06409 -174.16878 -228.04527 -173.6316 -228.04527 L -170.36954 -228.04526 C -169.41584 -228.04526 -168.46307 -228.10458 -167.51673 -228.22287 L -163.52802 -228.72146 C -162.86805 -228.80396 -162.21198 -228.91504 -161.56165 -229.0544 L -155.47961 -230.3577 C -154.58574 -230.54924 -153.70408 -230.7939 -152.83932 -231.0904 L -148.33048 -232.63628 C -147.53583 -232.90873 -146.7567 -233.2245 -145.9966 -233.5822 L -141.16323 -235.85674 C -140.61303 -236.11565 -140.07332 -236.3963 -139.54536 -236.69798 L -135.7775 -238.85104 C -135.0847 -239.24692 -134.41299 -239.67858 -133.76506 -240.14428 L -129.08894 -243.50525 C -128.58825 -243.8651 -128.10224 -244.24497 -127.63208 -244.6439 L -122.31123 -249.15856 C -121.92892 -249.48294 -121.55731 -249.81974 -121.19702 -250.16842 L -116.4978 -254.71604 C -115.85821 -255.335 -115.25509 -255.99056 -114.69148 -256.67942 L -110.8982 -261.31566 C -110.39148 -261.93497 -109.91743 -262.5803 -109.47799 -263.24904 L -105.86081 -268.75344 C -105.64538 -269.08127 -105.43837 -269.41456 -105.23998 -269.75298 L -102.71689 -274.05708 C -102.33094 -274.71546 -101.978 -275.39265 -101.65938 -276.08612 L -99.54068 -280.6974 C -99.00782 -281.85715 -98.63666 -283.08456 -98.43761 -284.34526 L -98.43761 -284.34526 C -98.2593 -285.47453 -98.8386 -286.58797 -99.86568 -287.0901 L -105.15912 -289.678 C -106.47358 -290.32063 -107.70817 -291.11514 -108.83761 -292.04526 L -109.24362 -292.37963 C -110.08795 -293.07496 -110.71136 -294.00126 -111.03761 -295.04526 L -111.03761 -295.04526 C -111.08427 -295.19458 -111.24314 -295.2778 -111.39246 -295.23114 C -111.50753 -295.19518 -111.58723 -295.0903 -111.59108 -294.9698 L -111.70032 -291.5469 C -111.79106 -288.7038 -112.4084 -285.90224 -113.52101 -283.28433 L -114.39794 -281.22096 C -114.95651 -279.9067 -115.63626 -278.6473 -116.4284 -277.4591 L -120.11418 -271.9304 C -120.86169 -270.80915 -121.7063 -269.75575 -122.63825 -268.78238 L -128.93332 -262.20753 C -129.80139 -261.30087 -130.74223 -260.4668 -131.7464 -259.71367 L -140.1213 -253.4325 C -140.99772 -252.77518 -141.91998 -252.18133 -142.88104 -251.65546 L -150.06624 -247.72394 C -151.37737 -247.00653 -152.7553 -246.41863 -154.18048 -245.96857 L -160.8534 -243.86133 C -162.57027 -243.31916 -164.34486 -242.98046 -166.14073 -242.85219 L -173.02719 -242.3603 C -174.09948 -242.2837 -175.17583 -242.28238 -176.24832 -242.35635 L -184.68457 -242.93816 C -185.71875 -243.00948 -186.74692 -243.15064 -187.76205 -243.36067 L -194.89726 -244.83692 C -196.84921 -245.24077 -198.74039 -245.89665 -200.52324 -246.78808 L -205.18265 -249.11779 C -206.4168 -249.73485 -207.5929 -250.46173 -208.69674 -251.2896 L -214.3787 -255.55108 C -214.81783 -255.88043 -215.24504 -256.2254 -215.6595 -256.58532 L -221.41467 -261.58324 C -222.22896 -262.29038 -222.9925 -263.05392 -223.69964 -263.8682 L -228.10487 -268.9409 C -228.85897 -269.80925 -229.54688 -270.73295 -230.1628 -271.70422 L -233.8965 -277.59198 C -234.25707 -278.16056 -234.5925 -278.7447 -234.9018 -279.34272 L -236.52219 -282.47544 C -237.13133 -283.65312 -237.6375 -284.88126 -238.03503 -286.14615 L -239.31527 -290.21964 C -239.53005 -290.90302 -239.71278 -291.59605 -239.86287 -292.2965 L -240.0883 -293.34843 C -240.17336 -293.74544 -239.947 -294.1431 -239.5622 -294.27263 L -239.5622 -294.27263 C -239.4897 -294.29704 -239.41116 -294.25805 -239.38675 -294.18556 C -239.36874 -294.13205 -239.385 -294.07296 -239.42788 -294.0362 Z" stroke="#7f8080" stroke-linecap="round" stroke-linejoin="round" stroke-width="1"/>
      <path d="M -311.1868 131.20001 L -311.1868 131.20001 C -311.25247 131.72549 -311.18964 132.25905 -311.0037 132.7549 L -310.3527 134.49092 C -310.17594 134.96227 -309.94885 135.41318 -309.67538 135.83582 L -308.70757 137.33153 C -308.1666 138.16756 -307.4535 138.87855 -306.61588 139.41702 L -305.53783 140.11005 C -305.23757 140.30307 -304.923 140.47285 -304.59684 140.61789 L -303.28 141.20349 C -302.68346 141.46876 -302.05275 141.64928 -301.4062 141.7398 L -292.3958 143.00126 C -292.3858 143.00265 -292.3758 143.00403 -292.3658 143.00539 L -280.6498 144.594 C -280.6038 144.60024 -280.55774 144.60601 -280.51162 144.61134 L -270.2287 145.79783 C -270.19676 145.80151 -270.1648 145.80498 -270.13284 145.80822 L -256.42277 147.1991 C -256.3948 147.20193 -256.3668 147.2046 -256.33877 147.2071 L -245.23347 148.19865 C -245.19836 148.20179 -245.1632 148.20466 -245.12805 148.20726 L -234.44152 148.99886 C -234.40104 149.00185 -234.36053 149.0045 -234.32 149.0068 L -223.81202 149.60159 C -223.7912 149.60276 -223.7704 149.60404 -223.74958 149.6054 L -211.7068 150.39509 C -211.6228 150.4006 -211.5387 150.4046 -211.45457 150.40707 L -198.00744 150.80257 C -197.98968 150.8031 -197.97191 150.80368 -197.95415 150.80434 L -187.3103 151.19856 C -187.22397 151.20176 -187.1376 151.20335 -187.0512 151.20335 L -176.4422 151.20335 C -176.40126 151.20335 -176.36033 151.20371 -176.3194 151.20443 L -165.23298 151.39893 C -165.06491 151.40188 -164.89679 151.39877 -164.72894 151.38962 L -154.10771 150.81028 C -154.0231 150.80566 -153.93843 150.80258 -153.85371 150.80104 L -143.08915 150.60532 C -143.01692 150.60401 -142.94471 150.60158 -142.87255 150.59803 L -130.85393 150.00695 C -130.80517 150.00455 -130.75645 150.00165 -130.70775 149.99823 L -119.4677 149.20945 C -119.40977 149.20539 -119.35188 149.2006 -119.29406 149.1951 L -106.88349 148.01313 C -106.81503 148.00661 -106.74648 148.0011 -106.67786 147.9966 L -94.74584 147.21418 C -94.63582 147.20696 -94.526 147.19715 -94.41645 147.18475 L -84.0041 146.006 C -83.98856 146.00423 -83.97303 146.00242 -83.95751 146.00056 L -74.00979 144.80683 C -73.99046 144.80451 -73.97114 144.80211 -73.95182 144.79963 L -60.11606 143.0221 C -60.018845 143.0096 -59.921905 142.99507 -59.8253 142.97851 L -53.271814 141.85506 C -53.07085 141.8206 -52.868474 141.79495 -52.66527 141.77817 L -49.43294 141.5112 C -48.543703 141.43775 -47.67671 141.19497 -46.878645 140.79594 L -45.39235 140.0528 C -44.791764 139.7525 -44.23751 139.36735 -43.74662 138.90919 L -42.4115 137.66308 C -41.80468 137.09672 -41.34927 136.38747 -41.086783 135.60001 L -40.791954 134.71552 C -40.72188 134.5053 -40.661826 134.29187 -40.612 134.07595 L -40.142293 132.04056 C -40.10707 131.88792 -40.14051 131.72752 -40.23379 131.60168 L -40.23379 131.60168 C -40.324127 131.4798 -40.47477 131.4183 -40.624596 131.44214 L -49.104453 132.79121 C -49.155345 132.7993 -49.206145 132.80796 -49.256846 132.81718 L -62.24161 135.17805 C -62.33439 135.19492 -62.4275 135.20991 -62.520886 135.22302 L -73.75057 136.79911 C -73.77072 136.80194 -73.790855 136.80486 -73.81098 136.80786 L -86.93357 138.76645 C -87.09833 138.79105 -87.26392 138.80975 -87.43002 138.82253 L -100.15483 139.80136 C -100.17214 139.80269 -100.18945 139.80396 -100.20677 139.80516 L -114.54692 140.801 C -114.5695 140.80257 -114.5921 140.80403 -114.61469 140.80538 L -127.91795 141.5996 C -127.95984 141.6021 -128.00176 141.60423 -128.0437 141.60597 L -142.23515 142.19729 C -142.33224 142.20133 -142.4294 142.20335 -142.52656 142.20335 L -155.7808 142.20335 L -168.32247 142.20335 C -168.36135 142.20335 -168.40024 142.20368 -168.43912 142.20433 L -180.1975 142.4003 C -180.31968 142.40234 -180.44188 142.40117 -180.564 142.39681 L -191.3976 142.0099 C -191.5197 142.00554 -191.64191 142.00437 -191.76409 142.00641 L -203.47873 142.20165 C -203.54677 142.20279 -203.61482 142.20293 -203.68287 142.20208 L -219.38516 142.0058 C -219.51556 142.00417 -219.64589 141.9989 -219.776 141.98998 L -234.08577 141.00986 C -234.14912 141.00552 -234.2124 141.00032 -234.2756 140.99426 L -248.7666 139.60471 C -248.77607 139.6038 -248.78552 139.60288 -248.79497 139.60194 L -262.607 138.22073 C -262.72285 138.20915 -262.83838 138.19468 -262.9535 138.17733 L -277.26265 136.02116 C -277.3414 136.00929 -277.42036 135.99877 -277.49948 135.9896 L -291.0194 134.42207 C -291.127 134.4096 -291.23426 134.39463 -291.34114 134.37718 L -300.73323 132.84377 C -300.89822 132.81684 -301.0622 132.784 -301.22484 132.74532 L -310.30244 130.58654 C -310.69075 130.49419 -311.0804 130.73412 -311.17276 131.12244 C -311.17884 131.14802 -311.18353 131.17392 -311.1868 131.20001 Z" fill="black"/>
      <path d="M -311.1868 131.20001 L -311.1868 131.20001 C -311.25247 131.72549 -311.18964 132.25905 -311.0037 132.7549 L -310.3527 134.49092 C -310.17594 134.96227 -309.94885 135.41318 -309.67538 135.83582 L -308.70757 137.33153 C -308.1666 138.16756 -307.4535 138.87855 -306.61588 139.41702 L -305.53783 140.11005 C -305.23757 140.30307 -304.923 140.47285 -304.59684 140.61789 L -303.28 141.20349 C -302.68346 141.46876 -302.05275 141.64928 -301.4062 141.7398 L -292.3958 143.00126 C -292.3858 143.00265 -292.3758 143.00403 -292.3658 143.00539 L -280.6498 144.594 C -280.6038 144.60024 -280.55774 144.60601 -280.51162 144.61134 L -270.2287 145.79783 C -270.19676 145.80151 -270.1648 145.80498 -270.13284 145.80822 L -256.42277 147.1991 C -256.3948 147.20193 -256.3668 147.2046 -256.33877 147.2071 L -245.23347 148.19865 C -245.19836 148.20179 -245.1632 148.20466 -245.12805 148.20726 L -234.44152 148.99886 C -234.40104 149.00185 -234.36053 149.0045 -234.32 149.0068 L -223.81202 149.60159 C -223.7912 149.60276 -223.7704 149.60404 -223.74958 149.6054 L -211.7068 150.39509 C -211.6228 150.4006 -211.5387 150.4046 -211.45457 150.40707 L -198.00744 150.80257 C -197.98968 150.8031 -197.97191 150.80368 -197.95415 150.80434 L -187.3103 151.19856 C -187.22397 151.20176 -187.1376 151.20335 -187.0512 151.20335 L -176.4422 151.20335 C -176.40126 151.20335 -176.36033 151.20371 -176.3194 151.20443 L -165.23298 151.39893 C -165.06491 151.40188 -164.89679 151.39877 -164.72894 151.38962 L -154.10771 150.81028 C -154.0231 150.80566 -153.93843 150.80258 -153.85371 150.80104 L -143.08915 150.60532 C -143.01692 150.60401 -142.94471 150.60158 -142.87255 150.59803 L -130.85393 150.00695 C -130.80517 150.00455 -130.75645 150.00165 -130.70775 149.99823 L -119.4677 149.20945 C -119.40977 149.20539 -119.35188 149.2006 -119.29406 149.1951 L -106.88349 148.01313 C -106.81503 148.00661 -106.74648 148.0011 -106.67786 147.9966 L -94.74584 147.21418 C -94.63582 147.20696 -94.526 147.19715 -94.41645 147.18475 L -84.0041 146.006 C -83.98856 146.00423 -83.97303 146.00242 -83.95751 146.00056 L -74.00979 144.80683 C -73.99046 144.80451 -73.97114 144.80211 -73.95182 144.79963 L -60.11606 143.0221 C -60.018845 143.0096 -59.921905 142.99507 -59.8253 142.97851 L -53.271814 141.85506 C -53.07085 141.8206 -52.868474 141.79495 -52.66527 141.77817 L -49.43294 141.5112 C -48.543703 141.43775 -47.67671 141.19497 -46.878645 140.79594 L -45.39235 140.0528 C -44.791764 139.7525 -44.23751 139.36735 -43.74662 138.90919 L -42.4115 137.66308 C -41.80468 137.09672 -41.34927 136.38747 -41.086783 135.60001 L -40.791954 134.71552 C -40.72188 134.5053 -40.661826 134.29187 -40.612 134.07595 L -40.142293 132.04056 C -40.10707 131.88792 -40.14051 131.72752 -40.23379 131.60168 L -40.23379 131.60168 C -40.324127 131.4798 -40.47477 131.4183 -40.624596 131.44214 L -49.104453 132.79121 C -49.155345 132.7993 -49.206145 132.80796 -49.256846 132.81718 L -62.24161 135.17805 C -62.33439 135.19492 -62.4275 135.20991 -62.520886 135.22302 L -73.75057 136.79911 C -73.77072 136.80194 -73.790855 136.80486 -73.81098 136.80786 L -86.93357 138.76645 C -87.09833 138.79105 -87.26392 138.80975 -87.43002 138.82253 L -100.15483 139.80136 C -100.17214 139.80269 -100.18945 139.80396 -100.20677 139.80516 L -114.54692 140.801 C -114.5695 140.80257 -114.5921 140.80403 -114.61469 140.80538 L -127.91795 141.5996 C -127.95984 141.6021 -128.00176 141.60423 -128.0437 141.60597 L -142.23515 142.19729 C -142.33224 142.20133 -142.4294 142.20335 -142.52656 142.20335 L -155.7808 142.20335 L -168.32247 142.20335 C -168.36135 142.20335 -168.40024 142.20368 -168.43912 142.20433 L -180.1975 142.4003 C -180.31968 142.40234 -180.44188 142.40117 -180.564 142.39681 L -191.3976 142.0099 C -191.5197 142.00554 -191.64191 142.00437 -191.76409 142.00641 L -203.47873 142.20165 C -203.54677 142.20279 -203.61482 142.20293 -203.68287 142.20208 L -219.38516 142.0058 C -219.51556 142.00417 -219.64589 141.9989 -219.776 141.98998 L -234.08577 141.00986 C -234.14912 141.00552 -234.2124 141.00032 -234.2756 140.99426 L -248.7666 139.60471 C -248.77607 139.6038 -248.78552 139.60288 -248.79497 139.60194 L -262.607 138.22073 C -262.72285 138.20915 -262.83838 138.19468 -262.9535 138.17733 L -277.26265 136.02116 C -277.3414 136.00929 -277.42036 135.99877 -277.49948 135.9896 L -291.0194 134.42207 C -291.127 134.4096 -291.23426 134.39463 -291.34114 134.37718 L -300.73323 132.84377 C -300.89822 132.81684 -301.0622 132.784 -301.22484 132.74532 L -310.30244 130.58654 C -310.69075 130.49419 -311.0804 130.73412 -311.17276 131.12244 C -311.17884 131.14802 -311.18353 131.17392 -311.1868 131.20001 Z" stroke="#7f8080" stroke-linecap="round" stroke-linejoin="round" stroke-width="1"/>
      <path d="M -239.54075 -293.80915 L -234.14075 -294.40915 L -227.34075 -291.00915 L -222.34075 -289.20915 L -213.94075 -287.40915 L -205.54075 -286.40915 L -197.54075 -285.40915 L -189.94075 -285.20915 L -181.34075 -284.80915 L -169.74075 -285.00915 L -161.34075 -285.40915 L -151.94075 -286.00915 L -143.54075 -286.80915 L -134.34075 -288.20915 L -126.14075 -290.40915 L -120.34075 -292.20915 L -114.74075 -294.80915 L -111.94075 -293.60915 L -111.54075 -288.00915 L -114.34075 -280.00915 L -119.74075 -277.20915 L -130.34075 -274.00915 L -141.74075 -271.60915 L -152.94075 -270.80915 L -165.34075 -269.80915 L -175.74075 -269.80915 L -185.14075 -269.80915 L -196.74075 -270.40915 L -207.94075 -271.20915 L -218.54075 -273.40915 L -227.14075 -275.40915 L -233.34075 -278.20915 L -235.34075 -279.80915 L -238.54075 -287.40915 Z" fill="black"/>
      <path d="M -239.54075 -293.80915 L -234.14075 -294.40915 L -227.34075 -291.00915 L -222.34075 -289.20915 L -213.94075 -287.40915 L -205.54075 -286.40915 L -197.54075 -285.40915 L -189.94075 -285.20915 L -181.34075 -284.80915 L -169.74075 -285.00915 L -161.34075 -285.40915 L -151.94075 -286.00915 L -143.54075 -286.80915 L -134.34075 -288.20915 L -126.14075 -290.40915 L -120.34075 -292.20915 L -114.74075 -294.80915 L -111.94075 -293.60915 L -111.54075 -288.00915 L -114.34075 -280.00915 L -119.74075 -277.20915 L -130.34075 -274.00915 L -141.74075 -271.60915 L -152.94075 -270.80915 L -165.34075 -269.80915 L -175.74075 -269.80915 L -185.14075 -269.80915 L -196.74075 -270.40915 L -207.94075 -271.20915 L -218.54075 -273.40915 L -227.14075 -275.40915 L -233.34075 -278.20915 L -235.34075 -279.80915 L -238.54075 -287.40915 Z" stroke="#7f8080" stroke-linecap="round" stroke-linejoin="round" stroke-width="1"/>
    </g>
  </g>
</svg>
