<?xml version="1.0" encoding="UTF-8" standalone="no"?>
<!DOCTYPE svg PUBLIC "-//W3C//DTD SVG 1.1//EN" "http://www.w3.org/Graphics/SVG/1.1/DTD/svg11.dtd">
<svg xmlns="http://www.w3.org/2000/svg" xmlns:xl="http://www.w3.org/1999/xlink" version="1.1" viewBox="504.5 409.5 432.4053 448.4" width="432.4053pt" height="448.4pt" xmlns:dc="http://purl.org/dc/elements/1.1/">
  <metadata> Produced by OmniGraffle 7.4.2 
    <dc:date>2018-03-15 05:39:37 +0000</dc:date>
  </metadata>
  <defs>
    <radialGradient cx="0" cy="0" r="1" id="Gradient" gradientUnits="userSpaceOnUse">
      <stop offset="0" stop-color="#cbcbcb"/>
      <stop offset="1" stop-color="black"/>
    </radialGradient>
    <radialGradient id="Obj_Gradient" xl:href="#Gradient" gradientTransform="translate(719.75925 437.4) scale(70.26272)"/>
    <linearGradient x1="0" x2="1" id="Gradient_2" gradientUnits="userSpaceOnUse">
      <stop offset="0" stop-color="#d30000"/>
      <stop offset="1" stop-color="#65100c"/>
    </linearGradient>
    <linearGradient id="Obj_Gradient_2" xl:href="#Gradient_2" gradientTransform="translate(720.70264 411.2817) rotate(90) scale(446.1183)"/>
  </defs>
  <g stroke="none" stroke-opacity="1" stroke-dasharray="none" fill="none" fill-opacity="1">
    <title>marruecos</title>
    <rect fill="white" width="432.4053" height="448.4"/>
    <g>
      <title>Capa 1</title>
      <path d="M 658.00565 410.59045 L 666.1711 413.70816 C 667.0291 414.03576 667.9059 414.31167 668.7969 414.5344 L 682.5141 417.9637 C 683.67576 418.25413 684.8583 418.4534 686.051 418.55966 L 703.57715 420.1214 C 704.165 420.1738 704.75464 420.2035 705.3448 420.21054 L 720.8237 420.3948 C 721.114 420.39827 721.4044 420.39623 721.6947 420.3887 L 736.118 420.01406 C 736.4788 420.0047 736.8393 419.98683 737.1992 419.9605 L 751.5705 418.90893 C 752.562 418.8364 753.5477 418.69964 754.5214 418.49956 L 766.0944 416.12155 C 767.1364 415.90744 768.1623 415.6213 769.16465 415.2652 L 780.9166 411.09014 C 782.007 410.70277 783.2102 411.23354 783.65925 412.3 L 783.65925 412.3 C 784.1814 413.5401 784.3334 414.90485 784.09685 416.22945 L 783.9164 417.24014 C 783.6126 418.9413 783.1181 420.6028 782.4421 422.1932 L 780.8989 425.8243 C 780.34035 427.1386 779.6606 428.398 778.8685 429.5862 L 775.1827 435.11485 C 774.4352 436.2361 773.5906 437.2895 772.6586 438.2629 L 766.3635 444.83774 C 765.4955 445.7444 764.5546 446.57846 763.5505 447.3316 L 755.17555 453.61277 C 754.2991 454.2701 753.3769 454.86394 752.4158 455.3898 L 745.2306 459.32133 C 743.9195 460.03874 742.5416 460.62664 741.1164 461.0767 L 734.4435 463.18393 C 732.7266 463.7261 730.952 464.0648 729.1561 464.1931 L 722.2697 464.68497 C 721.1974 464.76156 720.121 464.7629 719.04854 464.6889 L 710.6123 464.1071 C 709.5781 464.0358 708.5499 463.8946 707.5348 463.6846 L 700.3996 462.20835 C 698.44765 461.8045 696.5565 461.1486 694.7736 460.2572 L 690.1142 457.9275 C 688.8801 457.3104 687.704 456.58354 686.6001 455.75566 L 680.9182 451.4942 C 680.479 451.16483 680.0518 450.81987 679.6374 450.45995 L 673.8822 445.46203 C 673.0679 444.7549 672.3044 443.99135 671.5972 443.17706 L 667.192 438.1044 C 666.4379 437.236 665.75 436.3123 665.13406 435.34105 L 661.40036 429.4533 C 661.0398 428.8847 660.7044 428.30056 660.39505 427.70255 L 658.7747 424.56983 C 658.1655 423.39215 657.6594 422.164 657.2618 420.8991 L 655.9816 416.8256 C 655.7668 416.14225 655.5841 415.4492 655.434 414.7488 L 655.35925 414.4 C 655.1646 413.49157 655.27185 412.54443 655.6647 411.70254 L 655.75925 411.5 C 656.1537 410.6547 657.1342 410.2577 658.00565 410.59045 Z" fill="url(#Obj_Gradient)"/>
      <path d="M 658.00565 410.59045 L 666.1711 413.70816 C 667.0291 414.03576 667.9059 414.31167 668.7969 414.5344 L 682.5141 417.9637 C 683.67576 418.25413 684.8583 418.4534 686.051 418.55966 L 703.57715 420.1214 C 704.165 420.1738 704.75464 420.2035 705.3448 420.21054 L 720.8237 420.3948 C 721.114 420.39827 721.4044 420.39623 721.6947 420.3887 L 736.118 420.01406 C 736.4788 420.0047 736.8393 419.98683 737.1992 419.9605 L 751.5705 418.90893 C 752.562 418.8364 753.5477 418.69964 754.5214 418.49956 L 766.0944 416.12155 C 767.1364 415.90744 768.1623 415.6213 769.16465 415.2652 L 780.9166 411.09014 C 782.007 410.70277 783.2102 411.23354 783.65925 412.3 L 783.65925 412.3 C 784.1814 413.5401 784.3334 414.90485 784.09685 416.22945 L 783.9164 417.24014 C 783.6126 418.9413 783.1181 420.6028 782.4421 422.1932 L 780.8989 425.8243 C 780.34035 427.1386 779.6606 428.398 778.8685 429.5862 L 775.1827 435.11485 C 774.4352 436.2361 773.5906 437.2895 772.6586 438.2629 L 766.3635 444.83774 C 765.4955 445.7444 764.5546 446.57846 763.5505 447.3316 L 755.17555 453.61277 C 754.2991 454.2701 753.3769 454.86394 752.4158 455.3898 L 745.2306 459.32133 C 743.9195 460.03874 742.5416 460.62664 741.1164 461.0767 L 734.4435 463.18393 C 732.7266 463.7261 730.952 464.0648 729.1561 464.1931 L 722.2697 464.68497 C 721.1974 464.76156 720.121 464.7629 719.04854 464.6889 L 710.6123 464.1071 C 709.5781 464.0358 708.5499 463.8946 707.5348 463.6846 L 700.3996 462.20835 C 698.44765 461.8045 696.5565 461.1486 694.7736 460.2572 L 690.1142 457.9275 C 688.8801 457.3104 687.704 456.58354 686.6001 455.75566 L 680.9182 451.4942 C 680.479 451.16483 680.0518 450.81987 679.6374 450.45995 L 673.8822 445.46203 C 673.0679 444.7549 672.3044 443.99135 671.5972 443.17706 L 667.192 438.1044 C 666.4379 437.236 665.75 436.3123 665.13406 435.34105 L 661.40036 429.4533 C 661.0398 428.8847 660.7044 428.30056 660.39505 427.70255 L 658.7747 424.56983 C 658.1655 423.39215 657.6594 422.164 657.2618 420.8991 L 655.9816 416.8256 C 655.7668 416.14225 655.5841 415.4492 655.434 414.7488 L 655.35925 414.4 C 655.1646 413.49157 655.27185 412.54443 655.6647 411.70254 L 655.75925 411.5 C 656.1537 410.6547 657.1342 410.2577 658.00565 410.59045 Z" stroke="#7f8080" stroke-linecap="round" stroke-linejoin="round" stroke-width="1"/>
      <path d="M 593.97346 847.2638 L 607.7157 849.5542 C 607.8991 849.5847 608.083 849.6121 608.2673 849.6362 L 636.62094 853.3515 C 636.8675 853.3838 637.1147 853.4104 637.3625 853.4312 L 667.6054 855.9677 C 667.8623 855.9892 668.1197 856.0046 668.3773 856.0137 L 707.3082 857.39 C 707.4966 857.3967 707.68504 857.4 707.8735 857.4 L 739.34084 857.4 C 739.5075 857.4 739.6741 857.3974 739.8406 857.3922 L 764.8754 856.6099 C 765.0856 856.6033 765.2957 856.5926 765.50555 856.5777 L 787.5533 855.0168 C 787.7116 855.0056 787.86975 854.992 788.0277 854.9761 L 813.2881 852.4305 C 813.4899 852.4102 813.6912 852.386 813.892 852.358 L 837.6847 849.0427 C 837.8888 849.0142 838.0922 848.9819 838.295 848.9456 L 847.4908 847.3 C 852.8179 846.3467 856.4688 841.3931 855.8023 836.0226 L 853.5948 818.232 C 853.5921 818.2107 853.5895 818.1893 853.5869 818.168 L 850.0231 788.4695 C 850.0016 788.2898 849.9831 788.10985 849.9676 787.9296 L 847.6054 760.3704 C 847.5957 760.2568 847.5871 760.1431 847.5798 760.0294 L 846.1932 738.4377 C 846.1916 738.4126 846.1899 738.3874 846.1882 738.3623 L 844.596 715.276 C 844.5925 715.2253 844.5893 715.1747 844.5863 715.124 L 843.4099 695.3218 C 843.3972 695.1073 843.3887 694.89255 843.3846 694.6777 L 842.9924 674.08285 C 842.9913 674.0276 842.99 673.9724 842.9883 673.9172 L 842.3932 653.6828 C 842.3916 653.6276 842.3903 653.5724 842.3892 653.51715 L 841.9985 633.0076 C 841.9934 632.7359 841.9951 632.4641 842.0038 632.1925 L 842.5897 613.8329 C 842.5904 613.811 842.5912 613.789 842.592 613.7671 L 843.3801 591.8978 C 843.3872 591.6993 843.3981 591.5009 843.4126 591.3028 L 844.9701 570.0822 C 844.9839 569.8941 844.9944 569.7057 845.0015 569.51724 L 845.756 549.6184 C 845.7792 549.0066 845.8374 548.3967 845.9305 547.79165 L 848.6695 529.98813 C 848.7503 529.46304 848.8572 528.9423 848.9898 528.4278 L 853.6181 510.4702 C 853.7332 510.0236 853.8675 509.5822 854.0207 509.14725 L 859.7415 492.9076 C 859.9076 492.4361 860.0957 491.9727 860.3052 491.5188 L 865.8367 479.5338 C 865.9394 479.3113 866.0472 479.0912 866.16 478.87364 L 871.5222 468.5322 C 871.5679 468.4441 871.6145 468.35636 871.6618 468.2691 L 876.8778 458.6521 C 877.615 457.29276 878.5647 456.05987 879.6908 455 L 879.6908 455 C 880.366 454.36453 880.3982 453.302 879.7627 452.62684 C 879.6382 452.49456 879.4931 452.38337 879.333 452.2976 L 876.1188 450.57573 C 875.9002 450.4586 875.6788 450.34656 875.4549 450.2397 L 867.601 446.4912 C 867.1944 446.29716 866.7797 446.12036 866.3582 445.9613 L 856.6834 442.3104 C 856.4883 442.2368 856.2919 442.16703 856.0941 442.1011 L 843.3996 437.8696 C 843.2604 437.8232 843.1206 437.7787 842.9801 437.73616 L 830.0966 433.83206 C 830.0261 433.8107 829.9557 433.78883 829.8854 433.7665 L 817.3814 429.78794 C 816.9878 429.6627 816.5992 429.52225 816.2164 429.36693 L 804.2405 424.50713 C 803.4088 424.16964 802.607 423.7628 801.8436 423.29083 L 792.2244 417.3444 C 792.0687 417.24814 791.9146 417.1492 791.7623 417.0477 L 786.8722 413.7876 C 785.8908 413.13335 785.0195 412.32745 784.2908 411.4 L 784.2908 411.4 C 784.1852 411.2656 783.9906 411.24225 783.8562 411.34785 C 783.7535 411.4286 783.7125 411.56513 783.7538 411.6891 L 783.8908 412.1 C 784.35 413.47775 784.4546 414.94904 784.1948 416.3779 L 783.7997 418.55115 C 783.5285 420.0428 783.0466 421.48835 782.3686 422.8444 L 780.8363 425.90904 C 780.5396 426.50244 780.2062 427.0768 779.8382 427.62883 L 776.6345 432.4344 C 776.2059 433.0773 775.7313 433.6883 775.2144 434.2626 L 770.6524 439.33156 C 770.6113 439.3772 770.57 439.4226 770.5284 439.46773 L 764.5342 445.97576 C 763.9064 446.6573 763.2207 447.283 762.4846 447.84587 L 757.4605 451.6879 C 757.0143 452.02906 756.5505 452.3465 756.071 452.6389 L 749.5846 456.594 C 748.9229 456.9975 748.2328 457.3523 747.51975 457.65576 L 740.4043 460.6836 C 739.5967 461.0273 738.7621 461.3039 737.90905 461.5107 L 733.83 462.4996 C 733.0052 462.69955 732.1657 462.83356 731.3196 462.90035 L 725.6194 463.35037 C 725.2005 463.38344 724.7804 463.4 724.3602 463.4 L 717.3279 463.4 C 716.5708 463.4 715.8146 463.34626 715.0651 463.2392 L 707.1187 462.104 C 706.6337 462.0347 706.1521 461.94317 705.6755 461.8297 L 699.7143 460.41035 C 698.5688 460.1376 697.4569 459.73927 696.3988 459.22253 L 690.1188 456.15556 C 689.6338 455.91867 689.161 455.6574 688.7024 455.3727 L 684.4905 452.75846 C 683.89135 452.38656 683.3174 451.97546 682.7725 451.52784 L 678.3264 447.8757 C 678.1027 447.6919 677.884 447.50214 677.6706 447.3065 L 673.8683 443.82104 C 673.417 443.40736 672.9898 442.9681 672.58885 442.50546 L 668.4701 437.75307 C 668.1507 437.38455 667.84836 437.0016 667.56395 436.6055 L 663.1343 430.4356 C 662.6394 429.7463 662.2001 429.0187 661.82064 428.2597 L 659.2442 423.1068 C 659.2086 423.0356 659.1735 422.96414 659.139 422.8924 L 657.8908 420.3 C 657.0401 418.53313 656.68455 416.5686 656.8621 414.61564 L 657.0423 412.6334 C 657.0661 412.3715 656.8731 412.13994 656.61125 412.11614 C 656.44886 412.1014 656.2902 412.17075 656.1908 412.3 L 656.1908 412.3 C 655.5273 413.1625 654.7472 413.92856 653.87285 414.57625 L 649.9763 417.46257 C 649.8526 417.5542 649.7276 417.644 649.60136 417.732 L 644.9791 420.9536 C 643.7924 421.7807 642.49895 422.4431 641.1342 422.9226 L 636.5271 424.5413 C 636.0365 424.71367 635.5546 424.90984 635.08316 425.12913 L 628.2364 428.3137 C 627.5402 428.63747 626.82165 428.91074 626.08625 429.13136 L 615.2159 432.3925 C 615.19914 432.3975 615.1824 432.40254 615.1657 432.4076 L 604.19764 435.7372 C 604.05974 435.77907 603.9224 435.8228 603.7857 435.86836 L 590.86446 440.17544 C 590.81534 440.1918 590.76614 440.20795 590.71686 440.22384 L 579.34946 443.89075 C 578.711 444.0967 578.0861 444.34263 577.47846 444.62704 L 569.5465 448.3399 C 569.17616 448.51323 568.8126 448.7007 568.4566 448.9019 L 562.5105 452.26276 C 561.2575 452.971 560.8158 454.5609 561.52406 455.81396 C 561.6012 455.9504 561.69045 456.0796 561.7908 456.2 L 562.6549 457.23693 C 563.40984 458.14287 564.0623 459.1295 564.6004 460.1788 L 567.6776 466.17924 C 567.75304 466.3264 567.8308 466.4724 567.9108 466.61715 L 571.86554 473.77337 C 571.949 473.92445 572.0301 474.07687 572.1086 474.23057 L 576.2169 482.26856 C 576.466 482.75587 576.6899 483.25563 576.88776 483.7659 L 580.3705 492.74776 C 580.384 492.7826 580.39765 492.81737 580.4114 492.8521 L 584.0077 501.93754 C 584.1297 502.2458 584.2421 502.5577 584.34476 502.87294 L 586.9666 510.9257 C 586.9827 510.97524 586.9986 511.02484 587.01424 511.0745 L 590.0863 520.8328 C 590.2891 521.47695 590.4509 522.1333 590.5707 522.7979 L 592.55605 533.8074 C 592.5792 533.9358 592.6008 534.0645 592.6208 534.1934 L 594.3267 545.1868 C 594.3694 545.4622 594.4049 545.7387 594.4332 546.016 L 595.32065 554.7127 C 595.3674 555.1707 595.3943 555.6305 595.4014 556.0908 L 595.58565 568.0664 C 595.5891 568.2888 595.5971 568.51105 595.6098 568.7331 L 596.3802 582.21465 C 596.38725 582.3382 596.39575 582.4617 596.4057 582.58506 L 597.73924 599.1594 C 597.7736 599.5863 597.7908 600.0144 597.7908 600.44264 L 597.7908 612.8924 C 597.7908 613.09746 597.7947 613.3025 597.8026 613.50735 L 598.38295 628.5965 C 598.3882 628.73216 598.39166 628.8679 598.3934 629.00365 L 598.5856 643.7999 C 598.58905 644.0666 598.58584 644.3333 598.576 644.5999 L 598.00174 660.104 C 597.99444 660.3013 597.9908 660.49875 597.9908 660.6962 L 597.9908 674.2924 C 597.9908 674.49746 597.98684 674.7025 597.97896 674.90736 L 597.3938 690.12236 C 597.3918 690.1741 597.3895 690.2259 597.38704 690.2776 L 596.5917 706.78055 C 596.5911 706.7935 596.59045 706.8065 596.5898 706.81945 L 595.7953 722.5106 C 595.7923 722.5702 595.78894 722.6298 595.78526 722.6893 L 594.59634 741.9101 C 594.59264 741.97 594.5886 742.03 594.5842 742.0899 L 592.8011 766.4594 C 592.7942 766.5531 592.7865 766.6468 592.778 766.7404 L 590.9921 786.3852 C 590.9912 786.3951 590.9903 786.4049 590.9894 786.4148 L 589.21864 805.4997 C 589.2001 805.6999 589.1777 805.8997 589.1516 806.099 L 587.1909 821.07175 C 587.0581 822.0859 586.78896 823.0776 586.3908 824.0197 L 586.3908 824.0197 C 585.9932 824.9605 585.74454 825.9574 585.6537 826.9747 L 584.8908 835.5197 C 584.383 841.2068 588.3415 846.3251 593.97346 847.2638 Z" fill="url(#Obj_Gradient_2)"/>
      <path d="M 593.97346 847.2638 L 607.7157 849.5542 C 607.8991 849.5847 608.083 849.6121 608.2673 849.6362 L 636.62094 853.3515 C 636.8675 853.3838 637.1147 853.4104 637.3625 853.4312 L 667.6054 855.9677 C 667.8623 855.9892 668.1197 856.0046 668.3773 856.0137 L 707.3082 857.39 C 707.4966 857.3967 707.68504 857.4 707.8735 857.4 L 739.34084 857.4 C 739.5075 857.4 739.6741 857.3974 739.8406 857.3922 L 764.8754 856.6099 C 765.0856 856.6033 765.2957 856.5926 765.50555 856.5777 L 787.5533 855.0168 C 787.7116 855.0056 787.86975 854.992 788.0277 854.9761 L 813.2881 852.4305 C 813.4899 852.4102 813.6912 852.386 813.892 852.358 L 837.6847 849.0427 C 837.8888 849.0142 838.0922 848.9819 838.295 848.9456 L 847.4908 847.3 C 852.8179 846.3467 856.4688 841.3931 855.8023 836.0226 L 853.5948 818.232 C 853.5921 818.2107 853.5895 818.1893 853.5869 818.168 L 850.0231 788.4695 C 850.0016 788.2898 849.9831 788.10985 849.9676 787.9296 L 847.6054 760.3704 C 847.5957 760.2568 847.5871 760.1431 847.5798 760.0294 L 846.1932 738.4377 C 846.1916 738.4126 846.1899 738.3874 846.1882 738.3623 L 844.596 715.276 C 844.5925 715.2253 844.5893 715.1747 844.5863 715.124 L 843.4099 695.3218 C 843.3972 695.1073 843.3887 694.89255 843.3846 694.6777 L 842.9924 674.08285 C 842.9913 674.0276 842.99 673.9724 842.9883 673.9172 L 842.3932 653.6828 C 842.3916 653.6276 842.3903 653.5724 842.3892 653.51715 L 841.9985 633.0076 C 841.9934 632.7359 841.9951 632.4641 842.0038 632.1925 L 842.5897 613.8329 C 842.5904 613.811 842.5912 613.789 842.592 613.7671 L 843.3801 591.8978 C 843.3872 591.6993 843.3981 591.5009 843.4126 591.3028 L 844.9701 570.0822 C 844.9839 569.8941 844.9944 569.7057 845.0015 569.51724 L 845.756 549.6184 C 845.7792 549.0066 845.8374 548.3967 845.9305 547.79165 L 848.6695 529.98813 C 848.7503 529.46304 848.8572 528.9423 848.9898 528.4278 L 853.6181 510.4702 C 853.7332 510.0236 853.8675 509.5822 854.0207 509.14725 L 859.7415 492.9076 C 859.9076 492.4361 860.0957 491.9727 860.3052 491.5188 L 865.8367 479.5338 C 865.9394 479.3113 866.0472 479.0912 866.16 478.87364 L 871.5222 468.5322 C 871.5679 468.4441 871.6145 468.35636 871.6618 468.2691 L 876.8778 458.6521 C 877.615 457.29276 878.5647 456.05987 879.6908 455 L 879.6908 455 C 880.366 454.36453 880.3982 453.302 879.7627 452.62684 C 879.6382 452.49456 879.4931 452.38337 879.333 452.2976 L 876.1188 450.57573 C 875.9002 450.4586 875.6788 450.34656 875.4549 450.2397 L 867.601 446.4912 C 867.1944 446.29716 866.7797 446.12036 866.3582 445.9613 L 856.6834 442.3104 C 856.4883 442.2368 856.2919 442.16703 856.0941 442.1011 L 843.3996 437.8696 C 843.2604 437.8232 843.1206 437.7787 842.9801 437.73616 L 830.0966 433.83206 C 830.0261 433.8107 829.9557 433.78883 829.8854 433.7665 L 817.3814 429.78794 C 816.9878 429.6627 816.5992 429.52225 816.2164 429.36693 L 804.2405 424.50713 C 803.4088 424.16964 802.607 423.7628 801.8436 423.29083 L 792.2244 417.3444 C 792.0687 417.24814 791.9146 417.1492 791.7623 417.0477 L 786.8722 413.7876 C 785.8908 413.13335 785.0195 412.32745 784.2908 411.4 L 784.2908 411.4 C 784.1852 411.2656 783.9906 411.24225 783.8562 411.34785 C 783.7535 411.4286 783.7125 411.56513 783.7538 411.6891 L 783.8908 412.1 C 784.35 413.47775 784.4546 414.94904 784.1948 416.3779 L 783.7997 418.55115 C 783.5285 420.0428 783.0466 421.48835 782.3686 422.8444 L 780.8363 425.90904 C 780.5396 426.50244 780.2062 427.0768 779.8382 427.62883 L 776.6345 432.4344 C 776.2059 433.0773 775.7313 433.6883 775.2144 434.2626 L 770.6524 439.33156 C 770.6113 439.3772 770.57 439.4226 770.5284 439.46773 L 764.5342 445.97576 C 763.9064 446.6573 763.2207 447.283 762.4846 447.84587 L 757.4605 451.6879 C 757.0143 452.02906 756.5505 452.3465 756.071 452.6389 L 749.5846 456.594 C 748.9229 456.9975 748.2328 457.3523 747.51975 457.65576 L 740.4043 460.6836 C 739.5967 461.0273 738.7621 461.3039 737.90905 461.5107 L 733.83 462.4996 C 733.0052 462.69955 732.1657 462.83356 731.3196 462.90035 L 725.6194 463.35037 C 725.2005 463.38344 724.7804 463.4 724.3602 463.4 L 717.3279 463.4 C 716.5708 463.4 715.8146 463.34626 715.0651 463.2392 L 707.1187 462.104 C 706.6337 462.0347 706.1521 461.94317 705.6755 461.8297 L 699.7143 460.41035 C 698.5688 460.1376 697.4569 459.73927 696.3988 459.22253 L 690.1188 456.15556 C 689.6338 455.91867 689.161 455.6574 688.7024 455.3727 L 684.4905 452.75846 C 683.89135 452.38656 683.3174 451.97546 682.7725 451.52784 L 678.3264 447.8757 C 678.1027 447.6919 677.884 447.50214 677.6706 447.3065 L 673.8683 443.82104 C 673.417 443.40736 672.9898 442.9681 672.58885 442.50546 L 668.4701 437.75307 C 668.1507 437.38455 667.84836 437.0016 667.56395 436.6055 L 663.1343 430.4356 C 662.6394 429.7463 662.2001 429.0187 661.82064 428.2597 L 659.2442 423.1068 C 659.2086 423.0356 659.1735 422.96414 659.139 422.8924 L 657.8908 420.3 C 657.0401 418.53313 656.68455 416.5686 656.8621 414.61564 L 657.0423 412.6334 C 657.0661 412.3715 656.8731 412.13994 656.61125 412.11614 C 656.44886 412.1014 656.2902 412.17075 656.1908 412.3 L 656.1908 412.3 C 655.5273 413.1625 654.7472 413.92856 653.87285 414.57625 L 649.9763 417.46257 C 649.8526 417.5542 649.7276 417.644 649.60136 417.732 L 644.9791 420.9536 C 643.7924 421.7807 642.49895 422.4431 641.1342 422.9226 L 636.5271 424.5413 C 636.0365 424.71367 635.5546 424.90984 635.08316 425.12913 L 628.2364 428.3137 C 627.5402 428.63747 626.82165 428.91074 626.08625 429.13136 L 615.2159 432.3925 C 615.19914 432.3975 615.1824 432.40254 615.1657 432.4076 L 604.19764 435.7372 C 604.05974 435.77907 603.9224 435.8228 603.7857 435.86836 L 590.86446 440.17544 C 590.81534 440.1918 590.76614 440.20795 590.71686 440.22384 L 579.34946 443.89075 C 578.711 444.0967 578.0861 444.34263 577.47846 444.62704 L 569.5465 448.3399 C 569.17616 448.51323 568.8126 448.7007 568.4566 448.9019 L 562.5105 452.26276 C 561.2575 452.971 560.8158 454.5609 561.52406 455.81396 C 561.6012 455.9504 561.69045 456.0796 561.7908 456.2 L 562.6549 457.23693 C 563.40984 458.14287 564.0623 459.1295 564.6004 460.1788 L 567.6776 466.17924 C 567.75304 466.3264 567.8308 466.4724 567.9108 466.61715 L 571.86554 473.77337 C 571.949 473.92445 572.0301 474.07687 572.1086 474.23057 L 576.2169 482.26856 C 576.466 482.75587 576.6899 483.25563 576.88776 483.7659 L 580.3705 492.74776 C 580.384 492.7826 580.39765 492.81737 580.4114 492.8521 L 584.0077 501.93754 C 584.1297 502.2458 584.2421 502.5577 584.34476 502.87294 L 586.9666 510.9257 C 586.9827 510.97524 586.9986 511.02484 587.01424 511.0745 L 590.0863 520.8328 C 590.2891 521.47695 590.4509 522.1333 590.5707 522.7979 L 592.55605 533.8074 C 592.5792 533.9358 592.6008 534.0645 592.6208 534.1934 L 594.3267 545.1868 C 594.3694 545.4622 594.4049 545.7387 594.4332 546.016 L 595.32065 554.7127 C 595.3674 555.1707 595.3943 555.6305 595.4014 556.0908 L 595.58565 568.0664 C 595.5891 568.2888 595.5971 568.51105 595.6098 568.7331 L 596.3802 582.21465 C 596.38725 582.3382 596.39575 582.4617 596.4057 582.58506 L 597.73924 599.1594 C 597.7736 599.5863 597.7908 600.0144 597.7908 600.44264 L 597.7908 612.8924 C 597.7908 613.09746 597.7947 613.3025 597.8026 613.50735 L 598.38295 628.5965 C 598.3882 628.73216 598.39166 628.8679 598.3934 629.00365 L 598.5856 643.7999 C 598.58905 644.0666 598.58584 644.3333 598.576 644.5999 L 598.00174 660.104 C 597.99444 660.3013 597.9908 660.49875 597.9908 660.6962 L 597.9908 674.2924 C 597.9908 674.49746 597.98684 674.7025 597.97896 674.90736 L 597.3938 690.12236 C 597.3918 690.1741 597.3895 690.2259 597.38704 690.2776 L 596.5917 706.78055 C 596.5911 706.7935 596.59045 706.8065 596.5898 706.81945 L 595.7953 722.5106 C 595.7923 722.5702 595.78894 722.6298 595.78526 722.6893 L 594.59634 741.9101 C 594.59264 741.97 594.5886 742.03 594.5842 742.0899 L 592.8011 766.4594 C 592.7942 766.5531 592.7865 766.6468 592.778 766.7404 L 590.9921 786.3852 C 590.9912 786.3951 590.9903 786.4049 590.9894 786.4148 L 589.21864 805.4997 C 589.2001 805.6999 589.1777 805.8997 589.1516 806.099 L 587.1909 821.07175 C 587.0581 822.0859 586.78896 823.0776 586.3908 824.0197 L 586.3908 824.0197 C 585.9932 824.9605 585.74454 825.9574 585.6537 826.9747 L 584.8908 835.5197 C 584.383 841.2068 588.3415 846.3251 593.97346 847.2638 Z" stroke="#7f8080" stroke-linecap="round" stroke-linejoin="round" stroke-width="1"/>
      <path d="M 505 561.44615 L 511.2 565.84615 L 519.4 569.84615 L 528 573.44615 L 537 577.24615 L 548 581.24615 L 557.4 584.04615 L 566.4 586.64615 L 575.4 589.24615 L 580.8 590.64615 L 586.4 591.64615 L 588.8 585.84615 L 591.4 580.44615 L 593.6 576.44615 L 596.2 573.04615 L 596.4 564.04615 L 595.8 553.04615 L 594 542.24615 L 592.4 531.84615 L 589.8 520.84614 L 587.4 511.24614 L 584.6 503.24614 L 581.4 493.84614 L 578.6 486.44614 L 575 478.84614 L 571 471.24614 L 567 463.84614 L 564.4 460.24614 L 560.8 454.44614 L 555.4 458.84614 L 550.6 463.64614 L 546 469.84614 L 541.6 476.04614 L 536.8 484.64614 L 532 494.04614 L 527.2 503.24614 L 523.6 511.84614 L 519.6 520.84614 L 516.4 529.04615 L 512.6 538.44615 L 509.8 546.44615 L 506.8 554.84615 Z" fill="#005d0c"/>
      <path d="M 505 561.44615 L 511.2 565.84615 L 519.4 569.84615 L 528 573.44615 L 537 577.24615 L 548 581.24615 L 557.4 584.04615 L 566.4 586.64615 L 575.4 589.24615 L 580.8 590.64615 L 586.4 591.64615 L 588.8 585.84615 L 591.4 580.44615 L 593.6 576.44615 L 596.2 573.04615 L 596.4 564.04615 L 595.8 553.04615 L 594 542.24615 L 592.4 531.84615 L 589.8 520.84614 L 587.4 511.24614 L 584.6 503.24614 L 581.4 493.84614 L 578.6 486.44614 L 575 478.84614 L 571 471.24614 L 567 463.84614 L 564.4 460.24614 L 560.8 454.44614 L 555.4 458.84614 L 550.6 463.64614 L 546 469.84614 L 541.6 476.04614 L 536.8 484.64614 L 532 494.04614 L 527.2 503.24614 L 523.6 511.84614 L 519.6 520.84614 L 516.4 529.04615 L 512.6 538.44615 L 509.8 546.44615 L 506.8 554.84615 Z" stroke="#7f8080" stroke-linecap="round" stroke-linejoin="round" stroke-width="1"/>
      <path d="M 936.4053 560.50275 L 930.2053 564.90275 L 922.0053 568.90275 L 913.4053 572.50275 L 904.4053 576.30275 L 893.4053 580.30275 L 884.0053 583.10275 L 875.0053 585.70275 L 866.0053 588.30275 L 860.6053 589.70275 L 855.0053 590.70275 L 852.6053 584.90275 L 850.0053 579.50275 L 847.8053 575.50275 L 845.2053 572.10275 L 845.0053 563.10275 L 845.6053 552.10275 L 847.4053 541.30275 L 849.0053 530.90275 L 851.6053 519.90275 L 854.0053 510.30275 L 856.8053 502.30275 L 860.0053 492.90275 L 862.8053 485.50275 L 866.4053 477.90275 L 870.4053 470.30275 L 874.4053 462.90275 L 877.0053 459.30275 L 880.6053 453.50275 L 886.0053 457.90275 L 890.8053 462.70275 L 895.4053 468.90275 L 899.8053 475.10275 L 904.6053 483.70275 L 909.4053 493.10275 L 914.2053 502.30275 L 917.8053 510.90275 L 921.8053 519.90275 L 925.0053 528.10275 L 928.8053 537.50275 L 931.6053 545.50275 L 934.6053 553.90275 Z" fill="#006119"/>
      <path d="M 936.4053 560.50275 L 930.2053 564.90275 L 922.0053 568.90275 L 913.4053 572.50275 L 904.4053 576.30275 L 893.4053 580.30275 L 884.0053 583.10275 L 875.0053 585.70275 L 866.0053 588.30275 L 860.6053 589.70275 L 855.0053 590.70275 L 852.6053 584.90275 L 850.0053 579.50275 L 847.8053 575.50275 L 845.2053 572.10275 L 845.0053 563.10275 L 845.6053 552.10275 L 847.4053 541.30275 L 849.0053 530.90275 L 851.6053 519.90275 L 854.0053 510.30275 L 856.8053 502.30275 L 860.0053 492.90275 L 862.8053 485.50275 L 866.4053 477.90275 L 870.4053 470.30275 L 874.4053 462.90275 L 877.0053 459.30275 L 880.6053 453.50275 L 886.0053 457.90275 L 890.8053 462.70275 L 895.4053 468.90275 L 899.8053 475.10275 L 904.6053 483.70275 L 909.4053 493.10275 L 914.2053 502.30275 L 917.8053 510.90275 L 921.8053 519.90275 L 925.0053 528.10275 L 928.8053 537.50275 L 931.6053 545.50275 L 934.6053 553.90275 Z" stroke="#7f8080" stroke-linecap="round" stroke-linejoin="round" stroke-width="1"/>
      <path d="M 505 561.44615 L 511.2 565.84615 L 519.4 569.84615 L 528 573.44615 L 537 577.24615 L 548 581.24615 L 557.4 584.04615 L 566.4 586.64615 L 575.4 589.24615 L 580.8 590.64615 L 586.4 591.64615 L 589.4 585.24615 L 585.6 584.44615 L 580.8 583.24615 L 575.2 582.04615 L 569.2 580.24615 L 564.6 578.84615 L 560.4 577.64615 L 555.8 575.64615 L 551.2 574.04615 L 546.4 572.04615 L 542.4 570.64615 L 537.2 568.44615 L 532.6 566.84615 L 527.8 564.64615 L 523 562.84615 L 519 560.84615 L 514.6 558.64615 L 510.2 556.44615 L 506.8 554.84615 Z" fill="#106303"/>
      <path d="M 505 561.44615 L 511.2 565.84615 L 519.4 569.84615 L 528 573.44615 L 537 577.24615 L 548 581.24615 L 557.4 584.04615 L 566.4 586.64615 L 575.4 589.24615 L 580.8 590.64615 L 586.4 591.64615 L 589.4 585.24615 L 585.6 584.44615 L 580.8 583.24615 L 575.2 582.04615 L 569.2 580.24615 L 564.6 578.84615 L 560.4 577.64615 L 555.8 575.64615 L 551.2 574.04615 L 546.4 572.04615 L 542.4 570.64615 L 537.2 568.44615 L 532.6 566.84615 L 527.8 564.64615 L 523 562.84615 L 519 560.84615 L 514.6 558.64615 L 510.2 556.44615 L 506.8 554.84615 Z" stroke="#7f8080" stroke-linecap="round" stroke-linejoin="round" stroke-width="1"/>
      <path d="M 936.4053 560.50275 L 930.2053 564.90275 L 922.0053 568.90275 L 913.4053 572.50275 L 904.4053 576.30275 L 893.4053 580.30275 L 884.0053 583.10275 L 875.0053 585.70275 L 866.0053 588.30275 L 860.6053 589.70275 L 855.0053 590.70275 L 852.0053 584.30275 L 855.8053 583.50275 L 860.6053 582.30275 L 866.2053 581.10275 L 872.2053 579.30275 L 876.8053 577.90275 L 881.0053 576.70275 L 885.6053 574.70275 L 890.2053 573.10275 L 895.0053 571.10275 L 899.0053 569.70275 L 904.2053 567.50275 L 908.8053 565.90275 L 913.6053 563.70275 L 918.4053 561.90275 L 922.4053 559.90275 L 926.8053 557.70275 L 931.2053 555.50275 L 934.6053 553.90275 Z" fill="#085f03"/>
      <path d="M 936.4053 560.50275 L 930.2053 564.90275 L 922.0053 568.90275 L 913.4053 572.50275 L 904.4053 576.30275 L 893.4053 580.30275 L 884.0053 583.10275 L 875.0053 585.70275 L 866.0053 588.30275 L 860.6053 589.70275 L 855.0053 590.70275 L 852.0053 584.30275 L 855.8053 583.50275 L 860.6053 582.30275 L 866.2053 581.10275 L 872.2053 579.30275 L 876.8053 577.90275 L 881.0053 576.70275 L 885.6053 574.70275 L 890.2053 573.10275 L 895.0053 571.10275 L 899.0053 569.70275 L 904.2053 567.50275 L 908.8053 565.90275 L 913.6053 563.70275 L 918.4053 561.90275 L 922.4053 559.90275 L 926.8053 557.70275 L 931.2053 555.50275 L 934.6053 553.90275 Z" stroke="#7f8080" stroke-linecap="round" stroke-linejoin="round" stroke-width="1"/>
      <path d="M 655.5721 411.9638 L 650.84295 416.01736 C 649.6926 417.00338 648.44764 417.8733 647.1262 418.6145 L 644.5996 420.03165 C 643.1644 420.8366 642.5836 422.60575 643.2624 424.10473 L 644.28 426.35197 C 644.4016 426.62046 644.5283 426.8866 644.6601 427.1502 L 646.4624 430.75474 L 648.9494 435.7287 C 649.2912 436.4123 649.6668 437.07843 650.07495 437.7246 L 652.40134 441.4081 C 652.8417 442.10535 653.3193 442.7784 653.83195 443.4244 L 657.2426 447.72185 C 657.7887 448.4099 658.3737 449.06606 658.9948 449.68717 L 663.6609 454.3532 C 664.06175 454.7541 664.4773 455.14 664.9067 455.5102 L 669.4702 459.44426 C 669.8649 459.7845 670.271 460.1112 670.68785 460.4238 L 674.6628 463.40503 C 675.3287 463.90447 676.0212 464.3674 676.7373 464.79174 L 680.8704 467.24096 C 680.9984 467.3168 681.1271 467.3914 681.2566 467.46477 L 685.9541 470.1267 C 686.6924 470.5451 687.4533 470.92226 688.23325 471.25653 L 691.7831 472.7779 C 692.369 473.029 692.9652 473.25567 693.57 473.45726 L 698.5881 475.12997 C 699.8353 475.5457 701.1159 475.85376 702.4158 476.0507 L 706.51464 476.67174 C 706.87976 476.72706 707.24615 476.7736 707.6135 476.81126 L 714.4946 477.517 C 714.7398 477.54216 714.98534 477.56336 715.2312 477.5806 L 719.75835 477.8983 C 720.2942 477.9359 720.8312 477.95473 721.3684 477.95473 L 724.6305 477.95474 C 725.5842 477.95474 726.5369 477.8954 727.4833 477.7771 L 731.472 477.27854 C 732.13195 477.19604 732.788 477.08496 733.43835 476.9456 L 739.5204 475.6423 C 740.4143 475.45076 741.2959 475.2061 742.1607 474.9096 L 746.6695 473.3637 C 747.4642 473.09127 748.2433 472.7755 749.0034 472.4178 L 753.8368 470.14326 C 754.387 469.88435 754.9267 469.6037 755.4546 469.302 L 759.2225 467.14896 C 759.9153 466.7531 760.587 466.3214 761.2349 465.8557 L 765.9111 462.49475 C 766.41175 462.1349 766.8978 461.75503 767.3679 461.3561 L 772.6888 456.84144 C 773.0711 456.51706 773.4427 456.18026 773.803 455.8316 L 778.5022 451.28396 C 779.1418 450.665 779.7449 450.00944 780.3085 449.3206 L 784.1018 444.68434 C 784.6085 444.065 785.0826 443.4197 785.522 442.75096 L 789.1392 437.24656 C 789.3546 436.91873 789.5616 436.58544 789.76 436.247 L 792.2831 431.9429 C 792.6691 431.28454 793.022 430.60735 793.3406 429.9139 L 795.4593 425.3026 C 795.9922 424.14285 796.3633 422.91544 796.5624 421.65474 L 796.5624 421.65474 C 796.7407 420.52547 796.1614 419.41203 795.1343 418.9099 L 789.8409 416.322 C 788.5264 415.67937 787.2918 414.88486 786.1624 413.95474 L 785.7564 413.62037 C 784.91205 412.92504 784.2886 411.99874 783.9624 410.95474 L 783.9624 410.95474 C 783.9157 410.8054 783.7569 410.7222 783.6075 410.76886 C 783.4925 410.8048 783.4128 410.9097 783.4089 411.0302 L 783.2997 414.4531 C 783.2089 417.2962 782.5916 420.09776 781.479 422.71567 L 780.6021 424.77904 C 780.0435 426.0933 779.3637 427.3527 778.5716 428.5409 L 774.8858 434.0696 C 774.1383 435.19085 773.2937 436.24425 772.36175 437.2176 L 766.0667 443.79247 C 765.1986 444.6991 764.2578 445.5332 763.2536 446.28633 L 754.8787 452.5675 C 754.0023 453.2248 753.08 453.8187 752.119 454.34454 L 744.9338 458.27606 C 743.6226 458.99347 742.2447 459.58137 740.8195 460.03143 L 734.1466 462.13867 C 732.4297 462.68084 730.6551 463.01954 728.8593 463.1478 L 721.9728 463.6397 C 720.9005 463.7163 719.8242 463.7176 718.7517 463.64365 L 710.3154 463.06184 C 709.28125 462.9905 708.2531 462.84936 707.23795 462.63933 L 700.1027 461.1631 C 698.1508 460.75923 696.2596 460.10335 694.47676 459.2119 L 689.81735 456.8822 C 688.5832 456.26515 687.4071 455.5383 686.3033 454.7104 L 680.6213 450.4489 C 680.1822 450.11957 679.755 449.7746 679.3405 449.4147 L 673.5853 444.41676 C 672.77104 443.7096 672.0075 442.9461 671.3004 442.1318 L 666.8951 437.0591 C 666.141 436.19075 665.4531 435.26705 664.8372 434.2958 L 661.1035 428.408 C 660.7429 427.83944 660.4075 427.2553 660.0982 426.6573 L 658.4778 423.52456 C 657.8687 422.3469 657.3625 421.11874 656.965 419.85385 L 655.6847 415.78036 C 655.46995 415.097 655.2872 414.40395 655.1371 413.7035 L 654.9117 412.65157 C 654.8266 412.25456 655.053 411.8569 655.4378 411.72737 L 655.4378 411.72737 C 655.5103 411.70296 655.58884 411.74195 655.61325 411.81444 C 655.6313 411.86795 655.615 411.92704 655.5721 411.9638 Z" fill="red"/>
      <path d="M 655.5721 411.9638 L 650.84295 416.01736 C 649.6926 417.00338 648.44764 417.8733 647.1262 418.6145 L 644.5996 420.03165 C 643.1644 420.8366 642.5836 422.60575 643.2624 424.10473 L 644.28 426.35197 C 644.4016 426.62046 644.5283 426.8866 644.6601 427.1502 L 646.4624 430.75474 L 648.9494 435.7287 C 649.2912 436.4123 649.6668 437.07843 650.07495 437.7246 L 652.40134 441.4081 C 652.8417 442.10535 653.3193 442.7784 653.83195 443.4244 L 657.2426 447.72185 C 657.7887 448.4099 658.3737 449.06606 658.9948 449.68717 L 663.6609 454.3532 C 664.06175 454.7541 664.4773 455.14 664.9067 455.5102 L 669.4702 459.44426 C 669.8649 459.7845 670.271 460.1112 670.68785 460.4238 L 674.6628 463.40503 C 675.3287 463.90447 676.0212 464.3674 676.7373 464.79174 L 680.8704 467.24096 C 680.9984 467.3168 681.1271 467.3914 681.2566 467.46477 L 685.9541 470.1267 C 686.6924 470.5451 687.4533 470.92226 688.23325 471.25653 L 691.7831 472.7779 C 692.369 473.029 692.9652 473.25567 693.57 473.45726 L 698.5881 475.12997 C 699.8353 475.5457 701.1159 475.85376 702.4158 476.0507 L 706.51464 476.67174 C 706.87976 476.72706 707.24615 476.7736 707.6135 476.81126 L 714.4946 477.517 C 714.7398 477.54216 714.98534 477.56336 715.2312 477.5806 L 719.75835 477.8983 C 720.2942 477.9359 720.8312 477.95473 721.3684 477.95473 L 724.6305 477.95474 C 725.5842 477.95474 726.5369 477.8954 727.4833 477.7771 L 731.472 477.27854 C 732.13195 477.19604 732.788 477.08496 733.43835 476.9456 L 739.5204 475.6423 C 740.4143 475.45076 741.2959 475.2061 742.1607 474.9096 L 746.6695 473.3637 C 747.4642 473.09127 748.2433 472.7755 749.0034 472.4178 L 753.8368 470.14326 C 754.387 469.88435 754.9267 469.6037 755.4546 469.302 L 759.2225 467.14896 C 759.9153 466.7531 760.587 466.3214 761.2349 465.8557 L 765.9111 462.49475 C 766.41175 462.1349 766.8978 461.75503 767.3679 461.3561 L 772.6888 456.84144 C 773.0711 456.51706 773.4427 456.18026 773.803 455.8316 L 778.5022 451.28396 C 779.1418 450.665 779.7449 450.00944 780.3085 449.3206 L 784.1018 444.68434 C 784.6085 444.065 785.0826 443.4197 785.522 442.75096 L 789.1392 437.24656 C 789.3546 436.91873 789.5616 436.58544 789.76 436.247 L 792.2831 431.9429 C 792.6691 431.28454 793.022 430.60735 793.3406 429.9139 L 795.4593 425.3026 C 795.9922 424.14285 796.3633 422.91544 796.5624 421.65474 L 796.5624 421.65474 C 796.7407 420.52547 796.1614 419.41203 795.1343 418.9099 L 789.8409 416.322 C 788.5264 415.67937 787.2918 414.88486 786.1624 413.95474 L 785.7564 413.62037 C 784.91205 412.92504 784.2886 411.99874 783.9624 410.95474 L 783.9624 410.95474 C 783.9157 410.8054 783.7569 410.7222 783.6075 410.76886 C 783.4925 410.8048 783.4128 410.9097 783.4089 411.0302 L 783.2997 414.4531 C 783.2089 417.2962 782.5916 420.09776 781.479 422.71567 L 780.6021 424.77904 C 780.0435 426.0933 779.3637 427.3527 778.5716 428.5409 L 774.8858 434.0696 C 774.1383 435.19085 773.2937 436.24425 772.36175 437.2176 L 766.0667 443.79247 C 765.1986 444.6991 764.2578 445.5332 763.2536 446.28633 L 754.8787 452.5675 C 754.0023 453.2248 753.08 453.8187 752.119 454.34454 L 744.9338 458.27606 C 743.6226 458.99347 742.2447 459.58137 740.8195 460.03143 L 734.1466 462.13867 C 732.4297 462.68084 730.6551 463.01954 728.8593 463.1478 L 721.9728 463.6397 C 720.9005 463.7163 719.8242 463.7176 718.7517 463.64365 L 710.3154 463.06184 C 709.28125 462.9905 708.2531 462.84936 707.23795 462.63933 L 700.1027 461.1631 C 698.1508 460.75923 696.2596 460.10335 694.47676 459.2119 L 689.81735 456.8822 C 688.5832 456.26515 687.4071 455.5383 686.3033 454.7104 L 680.6213 450.4489 C 680.1822 450.11957 679.755 449.7746 679.3405 449.4147 L 673.5853 444.41676 C 672.77104 443.7096 672.0075 442.9461 671.3004 442.1318 L 666.8951 437.0591 C 666.141 436.19075 665.4531 435.26705 664.8372 434.2958 L 661.1035 428.408 C 660.7429 427.83944 660.4075 427.2553 660.0982 426.6573 L 658.4778 423.52456 C 657.8687 422.3469 657.3625 421.11874 656.965 419.85385 L 655.6847 415.78036 C 655.46995 415.097 655.2872 414.40395 655.1371 413.7035 L 654.9117 412.65157 C 654.8266 412.25456 655.053 411.8569 655.4378 411.72737 L 655.4378 411.72737 C 655.5103 411.70296 655.58884 411.74195 655.61325 411.81444 C 655.6313 411.86795 655.615 411.92704 655.5721 411.9638 Z" stroke="#7f8080" stroke-linecap="round" stroke-linejoin="round" stroke-width="1"/>
      <path d="M 655.05925 411.7559 L 660.45925 411.1559 L 667.25925 414.5559 L 672.25925 416.3559 L 680.65925 418.1559 L 689.05925 419.1559 L 697.05925 420.1559 L 704.65925 420.3559 L 713.25925 420.7559 L 724.85925 420.5559 L 733.25925 420.1559 L 742.65925 419.5559 L 751.05925 418.7559 L 760.25925 417.3559 L 768.45925 415.1559 L 774.25925 413.3559 L 779.85925 410.7559 L 782.65925 411.9559 L 783.05925 417.5559 L 780.25925 425.5559 L 774.85925 428.3559 L 764.25925 431.5559 L 752.85925 433.9559 L 741.65925 434.7559 L 729.25925 435.7559 L 718.85925 435.7559 L 709.45925 435.7559 L 697.85925 435.1559 L 686.65925 434.3559 L 676.05925 432.1559 L 667.45925 430.1559 L 661.25925 427.3559 L 659.25925 425.7559 L 656.05925 418.1559 Z" fill="red"/>
      <path d="M 655.05925 411.7559 L 660.45925 411.1559 L 667.25925 414.5559 L 672.25925 416.3559 L 680.65925 418.1559 L 689.05925 419.1559 L 697.05925 420.1559 L 704.65925 420.3559 L 713.25925 420.7559 L 724.85925 420.5559 L 733.25925 420.1559 L 742.65925 419.5559 L 751.05925 418.7559 L 760.25925 417.3559 L 768.45925 415.1559 L 774.25925 413.3559 L 779.85925 410.7559 L 782.65925 411.9559 L 783.05925 417.5559 L 780.25925 425.5559 L 774.85925 428.3559 L 764.25925 431.5559 L 752.85925 433.9559 L 741.65925 434.7559 L 729.25925 435.7559 L 718.85925 435.7559 L 709.45925 435.7559 L 697.85925 435.1559 L 686.65925 434.3559 L 676.05925 432.1559 L 667.45925 430.1559 L 661.25925 427.3559 L 659.25925 425.7559 L 656.05925 418.1559 Z" stroke="#7f8080" stroke-linecap="round" stroke-linejoin="round" stroke-width="1"/>
      <path d="M 584.8132 837.2 L 584.8132 837.2 C 584.7475 837.7255 584.81036 838.2591 584.9963 838.7549 L 585.6473 840.4909 C 585.82406 840.9623 586.05115 841.4132 586.3246 841.8358 L 587.2924 843.3315 C 587.8334 844.1676 588.5465 844.8785 589.3841 845.417 L 590.4622 846.1101 C 590.7624 846.3031 591.077 846.4728 591.40316 846.6179 L 592.72 847.2035 C 593.31654 847.4688 593.94725 847.6493 594.5938 847.7398 L 603.6042 849.0013 C 603.6142 849.0027 603.6242 849.004 603.6342 849.0054 L 615.3502 850.594 C 615.3962 850.6002 615.44226 850.606 615.4884 850.6113 L 625.7713 851.7978 C 625.80324 851.8015 625.8352 851.805 625.8672 851.8082 L 639.5772 853.1991 C 639.6052 853.2019 639.6332 853.2046 639.6612 853.2071 L 650.7665 854.1987 C 650.80164 854.2018 650.8368 854.2047 650.87195 854.2073 L 661.5585 854.9989 C 661.599 855.0019 661.6395 855.0045 661.68 855.0068 L 672.188 855.6016 C 672.2088 855.6028 672.2296 855.604 672.2504 855.6054 L 684.2932 856.3951 C 684.3772 856.4006 684.4613 856.4046 684.5454 856.4071 L 697.99256 856.8026 C 698.0103 856.8031 698.0281 856.8037 698.04585 856.8043 L 708.6897 857.1986 C 708.776 857.2018 708.8624 857.2034 708.9488 857.2034 L 719.5578 857.2034 C 719.5987 857.2034 719.6397 857.2037 719.6806 857.2044 L 730.767 857.3989 C 730.9351 857.4019 731.1032 857.3988 731.2711 857.3896 L 741.8923 856.8103 C 741.9769 856.8057 742.0616 856.8026 742.1463 856.801 L 752.91085 856.6053 C 752.9831 856.604 753.0553 856.6016 753.12745 856.598 L 765.1461 856.007 C 765.1948 856.0046 765.2436 856.0016 765.29225 855.9982 L 776.5323 855.2095 C 776.5902 855.2054 776.6481 855.2006 776.7059 855.1951 L 789.1165 854.0131 C 789.185 854.0066 789.2535 854.0011 789.3221 853.9966 L 801.2542 853.2142 C 801.3642 853.207 801.474 853.1972 801.5836 853.1847 L 811.9959 852.006 C 812.0114 852.0042 812.027 852.0024 812.0425 852.0006 L 821.9902 850.8068 C 822.0095 850.8045 822.0289 850.8021 822.0482 850.7996 L 835.8839 849.0221 C 835.9812 849.0096 836.0781 848.9951 836.1747 848.9785 L 842.7282 847.8551 C 842.9292 847.8206 843.1315 847.795 843.3347 847.7782 L 846.5671 847.5112 C 847.4563 847.4377 848.3233 847.195 849.1214 846.7959 L 850.6076 846.0528 C 851.2082 845.7525 851.7625 845.3674 852.2534 844.9092 L 853.5885 843.6631 C 854.1953 843.0967 854.6507 842.3875 854.9132 841.6 L 855.208 840.7155 C 855.2781 840.5053 855.3382 840.2919 855.388 840.0759 L 855.8577 838.0406 C 855.8929 837.8879 855.8595 837.7275 855.7662 837.6017 L 855.7662 837.6017 C 855.6759 837.4798 855.5252 837.4183 855.3754 837.4421 L 846.8955 838.7912 C 846.8447 838.7993 846.7939 838.808 846.7432 838.8172 L 833.7584 841.178 C 833.6656 841.1949 833.5725 841.2099 833.4791 841.223 L 822.2494 842.7991 C 822.2293 842.8019 822.2091 842.8049 822.189 842.8079 L 809.0664 844.7665 C 808.9017 844.791 808.7361 844.8097 808.57 844.8225 L 795.8452 845.8014 C 795.8279 845.8027 795.81055 845.804 795.7932 845.8052 L 781.4531 846.801 C 781.4305 846.8026 781.4079 846.804 781.3853 846.8054 L 768.0821 847.5996 C 768.0402 847.6021 767.9982 847.6042 767.9563 847.606 L 753.76485 848.1973 C 753.6678 848.2013 753.5706 848.2034 753.4734 848.2034 L 740.2192 848.2034 L 727.6775 848.2034 C 727.63865 848.2034 727.5998 848.2037 727.5609 848.2043 L 715.8025 848.4003 C 715.6803 848.4023 715.5581 848.4012 715.436 848.3968 L 704.6024 848.0099 C 704.4803 848.0055 704.3581 848.0044 704.2359 848.0064 L 692.5213 848.2017 C 692.4532 848.2028 692.3852 848.2029 692.3171 848.2021 L 676.61484 848.0058 C 676.48444 848.0042 676.3541 847.9989 676.224 847.99 L 661.9142 847.0099 C 661.8509 847.0055 661.7876 847.0003 661.7244 846.9943 L 647.2334 845.6047 C 647.2239 845.6038 647.2145 845.6029 647.205 845.6019 L 633.393 844.2207 C 633.27715 844.2091 633.1616 844.1947 633.0465 844.1773 L 618.73735 842.0212 C 618.6586 842.0093 618.57964 841.9988 618.5005 841.9896 L 604.9806 840.4221 C 604.873 840.4096 604.76574 840.3946 604.65886 840.3772 L 595.2668 838.8438 C 595.1018 838.8168 594.9378 838.784 594.77516 838.7453 L 585.69756 836.5865 C 585.30925 836.4942 584.9196 836.7341 584.82724 837.1224 C 584.82116 837.148 584.8165 837.1739 584.8132 837.2 Z" fill="#820c0a"/>
      <path d="M 584.8132 837.2 L 584.8132 837.2 C 584.7475 837.7255 584.81036 838.2591 584.9963 838.7549 L 585.6473 840.4909 C 585.82406 840.9623 586.05115 841.4132 586.3246 841.8358 L 587.2924 843.3315 C 587.8334 844.1676 588.5465 844.8785 589.3841 845.417 L 590.4622 846.1101 C 590.7624 846.3031 591.077 846.4728 591.40316 846.6179 L 592.72 847.2035 C 593.31654 847.4688 593.94725 847.6493 594.5938 847.7398 L 603.6042 849.0013 C 603.6142 849.0027 603.6242 849.004 603.6342 849.0054 L 615.3502 850.594 C 615.3962 850.6002 615.44226 850.606 615.4884 850.6113 L 625.7713 851.7978 C 625.80324 851.8015 625.8352 851.805 625.8672 851.8082 L 639.5772 853.1991 C 639.6052 853.2019 639.6332 853.2046 639.6612 853.2071 L 650.7665 854.1987 C 650.80164 854.2018 650.8368 854.2047 650.87195 854.2073 L 661.5585 854.9989 C 661.599 855.0019 661.6395 855.0045 661.68 855.0068 L 672.188 855.6016 C 672.2088 855.6028 672.2296 855.604 672.2504 855.6054 L 684.2932 856.3951 C 684.3772 856.4006 684.4613 856.4046 684.5454 856.4071 L 697.99256 856.8026 C 698.0103 856.8031 698.0281 856.8037 698.04585 856.8043 L 708.6897 857.1986 C 708.776 857.2018 708.8624 857.2034 708.9488 857.2034 L 719.5578 857.2034 C 719.5987 857.2034 719.6397 857.2037 719.6806 857.2044 L 730.767 857.3989 C 730.9351 857.4019 731.1032 857.3988 731.2711 857.3896 L 741.8923 856.8103 C 741.9769 856.8057 742.0616 856.8026 742.1463 856.801 L 752.91085 856.6053 C 752.9831 856.604 753.0553 856.6016 753.12745 856.598 L 765.1461 856.007 C 765.1948 856.0046 765.2436 856.0016 765.29225 855.9982 L 776.5323 855.2095 C 776.5902 855.2054 776.6481 855.2006 776.7059 855.1951 L 789.1165 854.0131 C 789.185 854.0066 789.2535 854.0011 789.3221 853.9966 L 801.2542 853.2142 C 801.3642 853.207 801.474 853.1972 801.5836 853.1847 L 811.9959 852.006 C 812.0114 852.0042 812.027 852.0024 812.0425 852.0006 L 821.9902 850.8068 C 822.0095 850.8045 822.0289 850.8021 822.0482 850.7996 L 835.8839 849.0221 C 835.9812 849.0096 836.0781 848.9951 836.1747 848.9785 L 842.7282 847.8551 C 842.9292 847.8206 843.1315 847.795 843.3347 847.7782 L 846.5671 847.5112 C 847.4563 847.4377 848.3233 847.195 849.1214 846.7959 L 850.6076 846.0528 C 851.2082 845.7525 851.7625 845.3674 852.2534 844.9092 L 853.5885 843.6631 C 854.1953 843.0967 854.6507 842.3875 854.9132 841.6 L 855.208 840.7155 C 855.2781 840.5053 855.3382 840.2919 855.388 840.0759 L 855.8577 838.0406 C 855.8929 837.8879 855.8595 837.7275 855.7662 837.6017 L 855.7662 837.6017 C 855.6759 837.4798 855.5252 837.4183 855.3754 837.4421 L 846.8955 838.7912 C 846.8447 838.7993 846.7939 838.808 846.7432 838.8172 L 833.7584 841.178 C 833.6656 841.1949 833.5725 841.2099 833.4791 841.223 L 822.2494 842.7991 C 822.2293 842.8019 822.2091 842.8049 822.189 842.8079 L 809.0664 844.7665 C 808.9017 844.791 808.7361 844.8097 808.57 844.8225 L 795.8452 845.8014 C 795.8279 845.8027 795.81055 845.804 795.7932 845.8052 L 781.4531 846.801 C 781.4305 846.8026 781.4079 846.804 781.3853 846.8054 L 768.0821 847.5996 C 768.0402 847.6021 767.9982 847.6042 767.9563 847.606 L 753.76485 848.1973 C 753.6678 848.2013 753.5706 848.2034 753.4734 848.2034 L 740.2192 848.2034 L 727.6775 848.2034 C 727.63865 848.2034 727.5998 848.2037 727.5609 848.2043 L 715.8025 848.4003 C 715.6803 848.4023 715.5581 848.4012 715.436 848.3968 L 704.6024 848.0099 C 704.4803 848.0055 704.3581 848.0044 704.2359 848.0064 L 692.5213 848.2017 C 692.4532 848.2028 692.3852 848.2029 692.3171 848.2021 L 676.61484 848.0058 C 676.48444 848.0042 676.3541 847.9989 676.224 847.99 L 661.9142 847.0099 C 661.8509 847.0055 661.7876 847.0003 661.7244 846.9943 L 647.2334 845.6047 C 647.2239 845.6038 647.2145 845.6029 647.205 845.6019 L 633.393 844.2207 C 633.27715 844.2091 633.1616 844.1947 633.0465 844.1773 L 618.73735 842.0212 C 618.6586 842.0093 618.57964 841.9988 618.5005 841.9896 L 604.9806 840.4221 C 604.873 840.4096 604.76574 840.3946 604.65886 840.3772 L 595.2668 838.8438 C 595.1018 838.8168 594.9378 838.784 594.77516 838.7453 L 585.69756 836.5865 C 585.30925 836.4942 584.9196 836.7341 584.82724 837.1224 C 584.82116 837.148 584.8165 837.1739 584.8132 837.2 Z" stroke="#7f8080" stroke-linecap="round" stroke-linejoin="round" stroke-width="1"/>
    </g>
  </g>
</svg>
