<?xml version="1.0" encoding="UTF-8" standalone="no"?>
<!DOCTYPE svg PUBLIC "-//W3C//DTD SVG 1.1//EN" "http://www.w3.org/Graphics/SVG/1.1/DTD/svg11.dtd">
<svg xmlns="http://www.w3.org/2000/svg" xmlns:xl="http://www.w3.org/1999/xlink" version="1.1" viewBox="491.5 317.5 432.4053 448.4" width="432.4053pt" height="448.4pt" xmlns:dc="http://purl.org/dc/elements/1.1/">
  <metadata> Produced by OmniGraffle 7.4.2 
    <dc:date>2018-03-15 05:39:37 +0000</dc:date>
  </metadata>
  <defs>
    <radialGradient cx="0" cy="0" r="1" id="Gradient" gradientUnits="userSpaceOnUse">
      <stop offset="0" stop-color="#cbcbcb"/>
      <stop offset="1" stop-color="black"/>
    </radialGradient>
    <radialGradient id="Obj_Gradient" xl:href="#Gradient" gradientTransform="translate(706.75925 345.4) scale(70.26272)"/>
    <linearGradient x1="0" x2="1" id="Gradient_2" gradientUnits="userSpaceOnUse">
      <stop offset="0" stop-color="#00751a"/>
      <stop offset="1" stop-color="#333"/>
    </linearGradient>
    <linearGradient id="Obj_Gradient_2" xl:href="#Gradient_2" gradientTransform="translate(707.70264 319.2817) rotate(90) scale(446.1183)"/>
  </defs>
  <g stroke="none" stroke-opacity="1" stroke-dasharray="none" fill="none" fill-opacity="1">
    <title>nigeria</title>
    <rect fill="white" width="432.4053" height="448.4"/>
    <g>
      <title>Capa 1</title>
      <path d="M 645.00565 318.59045 L 653.1711 321.70816 C 654.0291 322.03576 654.90594 322.31167 655.7969 322.5344 L 669.5141 325.9637 C 670.67576 326.25413 671.8583 326.4534 673.051 326.55966 L 690.57715 328.1214 C 691.165 328.17378 691.75464 328.2035 692.3448 328.21054 L 707.8237 328.3948 C 708.114 328.39827 708.4044 328.39623 708.6947 328.3887 L 723.118 328.01406 C 723.4788 328.0047 723.8393 327.98683 724.1992 327.9605 L 738.5705 326.90893 C 739.562 326.8364 740.5477 326.69964 741.5214 326.49956 L 753.0944 324.12155 C 754.1364 323.90744 755.1623 323.6213 756.16465 323.2652 L 767.9166 319.09014 C 769.007 318.70277 770.2102 319.23354 770.65925 320.3 L 770.65925 320.3 C 771.1814 321.5401 771.3334 322.90485 771.09685 324.22945 L 770.9164 325.24014 C 770.6126 326.9413 770.1181 328.6028 769.4421 330.1932 L 767.8989 333.8243 C 767.34035 335.1386 766.6606 336.39798 765.8685 337.58618 L 762.1827 343.11485 C 761.4352 344.2361 760.5906 345.2895 759.6586 346.2629 L 753.3635 352.83774 C 752.4955 353.7444 751.5546 354.57846 750.5505 355.3316 L 742.17555 361.61277 C 741.2991 362.2701 740.3769 362.86394 739.4158 363.3898 L 732.2306 367.32133 C 730.9195 368.03874 729.5416 368.62664 728.1164 369.0767 L 721.4435 371.18393 C 719.7266 371.7261 717.952 372.0648 716.1561 372.1931 L 709.2697 372.68497 C 708.1974 372.76156 707.121 372.7629 706.04854 372.6889 L 697.6123 372.1071 C 696.5781 372.0358 695.5499 371.89463 694.5348 371.6846 L 687.3996 370.20835 C 685.44765 369.8045 683.5565 369.1486 681.7736 368.2572 L 677.1142 365.9275 C 675.8801 365.3104 674.704 364.58354 673.6001 363.75566 L 667.9182 359.4942 C 667.479 359.16483 667.0518 358.81987 666.6374 358.45995 L 660.8822 353.46203 C 660.0679 352.7549 659.3044 351.99135 658.5972 351.17706 L 654.192 346.10438 C 653.4379 345.236 652.75 344.3123 652.13406 343.34105 L 648.40036 337.4533 C 648.0398 336.8847 647.7044 336.30056 647.39505 335.70255 L 645.7747 332.56983 C 645.1655 331.39215 644.6594 330.164 644.2618 328.8991 L 642.9816 324.82562 C 642.7668 324.14225 642.5841 323.4492 642.434 322.74878 L 642.35925 322.4 C 642.1646 321.49157 642.27185 320.54443 642.6647 319.70254 L 642.75925 319.5 C 643.1537 318.6547 644.1342 318.2577 645.00565 318.59045 Z" fill="url(#Obj_Gradient)"/>
      <path d="M 645.00565 318.59045 L 653.1711 321.70816 C 654.0291 322.03576 654.90594 322.31167 655.7969 322.5344 L 669.5141 325.9637 C 670.67576 326.25413 671.8583 326.4534 673.051 326.55966 L 690.57715 328.1214 C 691.165 328.17378 691.75464 328.2035 692.3448 328.21054 L 707.8237 328.3948 C 708.114 328.39827 708.4044 328.39623 708.6947 328.3887 L 723.118 328.01406 C 723.4788 328.0047 723.8393 327.98683 724.1992 327.9605 L 738.5705 326.90893 C 739.562 326.8364 740.5477 326.69964 741.5214 326.49956 L 753.0944 324.12155 C 754.1364 323.90744 755.1623 323.6213 756.16465 323.2652 L 767.9166 319.09014 C 769.007 318.70277 770.2102 319.23354 770.65925 320.3 L 770.65925 320.3 C 771.1814 321.5401 771.3334 322.90485 771.09685 324.22945 L 770.9164 325.24014 C 770.6126 326.9413 770.1181 328.6028 769.4421 330.1932 L 767.8989 333.8243 C 767.34035 335.1386 766.6606 336.39798 765.8685 337.58618 L 762.1827 343.11485 C 761.4352 344.2361 760.5906 345.2895 759.6586 346.2629 L 753.3635 352.83774 C 752.4955 353.7444 751.5546 354.57846 750.5505 355.3316 L 742.17555 361.61277 C 741.2991 362.2701 740.3769 362.86394 739.4158 363.3898 L 732.2306 367.32133 C 730.9195 368.03874 729.5416 368.62664 728.1164 369.0767 L 721.4435 371.18393 C 719.7266 371.7261 717.952 372.0648 716.1561 372.1931 L 709.2697 372.68497 C 708.1974 372.76156 707.121 372.7629 706.04854 372.6889 L 697.6123 372.1071 C 696.5781 372.0358 695.5499 371.89463 694.5348 371.6846 L 687.3996 370.20835 C 685.44765 369.8045 683.5565 369.1486 681.7736 368.2572 L 677.1142 365.9275 C 675.8801 365.3104 674.704 364.58354 673.6001 363.75566 L 667.9182 359.4942 C 667.479 359.16483 667.0518 358.81987 666.6374 358.45995 L 660.8822 353.46203 C 660.0679 352.7549 659.3044 351.99135 658.5972 351.17706 L 654.192 346.10438 C 653.4379 345.236 652.75 344.3123 652.13406 343.34105 L 648.40036 337.4533 C 648.0398 336.8847 647.7044 336.30056 647.39505 335.70255 L 645.7747 332.56983 C 645.1655 331.39215 644.6594 330.164 644.2618 328.8991 L 642.9816 324.82562 C 642.7668 324.14225 642.5841 323.4492 642.434 322.74878 L 642.35925 322.4 C 642.1646 321.49157 642.27185 320.54443 642.6647 319.70254 L 642.75925 319.5 C 643.1537 318.6547 644.1342 318.2577 645.00565 318.59045 Z" stroke="#7f8080" stroke-linecap="round" stroke-linejoin="round" stroke-width="1"/>
      <path d="M 580.97346 755.2638 L 594.7157 757.5542 C 594.8991 757.5847 595.083 757.6121 595.2673 757.6362 L 623.62094 761.3515 C 623.8675 761.38385 624.1147 761.4104 624.3625 761.4312 L 654.6054 763.9677 C 654.8623 763.9892 655.1197 764.0046 655.3773 764.0137 L 694.3082 765.39 C 694.4966 765.3967 694.68504 765.4 694.8735 765.4 L 726.34084 765.4 C 726.5075 765.4 726.6741 765.3974 726.8406 765.3922 L 751.8754 764.6099 C 752.0856 764.6033 752.2957 764.5926 752.50555 764.5777 L 774.5533 763.0168 C 774.7116 763.0056 774.86975 762.99205 775.0277 762.9761 L 800.28815 760.4305 C 800.4899 760.4102 800.6912 760.386 800.892 760.358 L 824.6847 757.04265 C 824.8888 757.0142 825.0922 756.9819 825.295 756.9456 L 834.4908 755.3 C 839.8179 754.3467 843.4688 749.3931 842.8023 744.02255 L 840.5948 726.232 C 840.5921 726.2107 840.5895 726.1893 840.5869 726.168 L 837.0231 696.4695 C 837.0016 696.28985 836.9831 696.10985 836.9676 695.9296 L 834.6054 668.3704 C 834.5957 668.2568 834.5871 668.1431 834.5798 668.0294 L 833.1932 646.4377 C 833.1916 646.4126 833.1899 646.3874 833.1882 646.3623 L 831.596 623.276 C 831.5925 623.2253 831.5893 623.17466 831.5863 623.124 L 830.4099 603.3218 C 830.3972 603.1073 830.3887 602.89255 830.3846 602.6777 L 829.9924 582.08285 C 829.9913 582.0276 829.99 581.9724 829.9883 581.9172 L 829.3932 561.6828 C 829.3916 561.6276 829.3903 561.5724 829.3892 561.51715 L 828.9985 541.0076 C 828.9934 540.7359 828.9951 540.46413 829.0038 540.1925 L 829.5897 521.8329 C 829.5904 521.811 829.5912 521.78903 829.592 521.7671 L 830.3801 499.8978 C 830.3872 499.6993 830.3981 499.5009 830.4126 499.3028 L 831.9701 478.0822 C 831.9839 477.8941 831.9944 477.70573 832.0015 477.51724 L 832.756 457.6184 C 832.7792 457.00663 832.8374 456.3967 832.9305 455.79165 L 835.6695 437.98813 C 835.7503 437.46304 835.8572 436.9423 835.9898 436.4278 L 840.6181 418.47017 C 840.7332 418.0236 840.8675 417.5822 841.0207 417.14725 L 846.7415 400.9076 C 846.9076 400.43613 847.0957 399.9727 847.3052 399.51883 L 852.8367 387.5338 C 852.9394 387.3113 853.0472 387.0912 853.16 386.87364 L 858.5222 376.5322 C 858.5679 376.44407 858.6145 376.35636 858.6618 376.2691 L 863.8778 366.6521 C 864.615 365.29276 865.5647 364.05987 866.6908 363 L 866.6908 363 C 867.366 362.36453 867.3982 361.30203 866.7627 360.62684 C 866.6382 360.49456 866.4931 360.38337 866.333 360.2976 L 863.1188 358.57573 C 862.9002 358.4586 862.6788 358.34656 862.4549 358.2397 L 854.601 354.49122 C 854.1944 354.29716 853.7797 354.12036 853.3582 353.9613 L 843.6834 350.3104 C 843.4883 350.2368 843.2919 350.16703 843.0941 350.1011 L 830.3996 345.8696 C 830.2604 345.8232 830.1206 345.7787 829.9801 345.73616 L 817.0966 341.83206 C 817.0261 341.8107 816.9557 341.78883 816.8854 341.7665 L 804.3814 337.78794 C 803.9878 337.6627 803.5992 337.52225 803.2164 337.36693 L 791.2405 332.50713 C 790.4088 332.16964 789.607 331.76277 788.8436 331.29083 L 779.2244 325.3444 C 779.06865 325.24814 778.9146 325.14922 778.7623 325.0477 L 773.8722 321.7876 C 772.8908 321.13335 772.0195 320.32745 771.2908 319.4 L 771.2908 319.4 C 771.1852 319.2656 770.9906 319.24225 770.8562 319.34785 C 770.7535 319.42858 770.7125 319.56513 770.7538 319.6891 L 770.8908 320.1 C 771.35 321.47775 771.4546 322.94904 771.1948 324.3779 L 770.7997 326.55115 C 770.5285 328.0428 770.0466 329.48835 769.3686 330.8444 L 767.8363 333.90904 C 767.5396 334.50244 767.2062 335.0768 766.8382 335.62883 L 763.6345 340.4344 C 763.2059 341.0773 762.7313 341.6883 762.2144 342.2626 L 757.6524 347.33156 C 757.6113 347.3772 757.57 347.42258 757.5284 347.46773 L 751.5342 353.97576 C 750.9064 354.6573 750.2207 355.28302 749.48465 355.84587 L 744.4605 359.6879 C 744.0143 360.02906 743.5505 360.3465 743.071 360.6389 L 736.5846 364.59403 C 735.9229 364.99748 735.2328 365.35232 734.51975 365.65576 L 727.4043 368.6836 C 726.5967 369.0273 725.7621 369.30393 724.90905 369.51072 L 720.83 370.4996 C 720.0052 370.69955 719.1657 370.83356 718.3196 370.90035 L 712.6194 371.35037 C 712.2005 371.38344 711.7804 371.4 711.3602 371.4 L 704.3279 371.4 C 703.5708 371.4 702.8146 371.34626 702.0651 371.2392 L 694.1187 370.104 C 693.6337 370.0347 693.1521 369.94317 692.6755 369.8297 L 686.7143 368.41035 C 685.5688 368.1376 684.4569 367.73927 683.3988 367.22253 L 677.1188 364.15556 C 676.6338 363.91867 676.161 363.6574 675.7024 363.3727 L 671.4905 360.75846 C 670.89135 360.38656 670.3174 359.97546 669.7725 359.52784 L 665.3264 355.87568 C 665.1027 355.69193 664.884 355.50214 664.6706 355.30652 L 660.8683 351.82104 C 660.417 351.40736 659.9898 350.9681 659.58885 350.50546 L 655.4701 345.75307 C 655.1507 345.38455 654.84836 345.00162 654.56395 344.6055 L 650.1343 338.4356 C 649.6394 337.7463 649.2001 337.0187 648.82064 336.2597 L 646.2442 331.1068 C 646.2086 331.0356 646.1735 330.96414 646.139 330.89242 L 644.8908 328.3 C 644.0401 326.53313 643.68455 324.5686 643.8621 322.61564 L 644.0423 320.6334 C 644.0661 320.37152 643.8731 320.13994 643.61125 320.11614 C 643.44886 320.10138 643.2902 320.17075 643.1908 320.3 L 643.1908 320.3 C 642.5273 321.16248 641.7472 321.92856 640.87285 322.57625 L 636.9763 325.46257 C 636.8526 325.5542 636.7276 325.644 636.60136 325.73202 L 631.9791 328.9536 C 630.7924 329.7807 629.49895 330.44308 628.1342 330.9226 L 623.5271 332.5413 C 623.0365 332.71367 622.5546 332.90984 622.08316 333.12913 L 615.2364 336.31368 C 614.5402 336.63747 613.82165 336.91074 613.08625 337.13136 L 602.21586 340.39248 C 602.19914 340.3975 602.1824 340.40254 602.1657 340.4076 L 591.19764 343.7372 C 591.05974 343.77907 590.9224 343.8228 590.7857 343.86836 L 577.86446 348.17544 C 577.81534 348.1918 577.76614 348.20795 577.71686 348.22384 L 566.34946 351.89075 C 565.711 352.0967 565.0861 352.34263 564.47846 352.62704 L 556.5465 356.3399 C 556.17616 356.51323 555.8126 356.7007 555.4566 356.9019 L 549.5105 360.26276 C 548.2575 360.971 547.8158 362.56093 548.52406 363.81396 C 548.6012 363.9504 548.69045 364.0796 548.7908 364.2 L 549.6549 365.23693 C 550.40984 366.14287 551.0623 367.1295 551.6004 368.1788 L 554.6776 374.17924 C 554.75304 374.3264 554.8308 374.4724 554.9108 374.61715 L 558.86554 381.77337 C 558.949 381.92445 559.0301 382.07687 559.1086 382.23057 L 563.2169 390.26856 C 563.466 390.75587 563.6899 391.25563 563.88776 391.7659 L 567.3705 400.74776 C 567.384 400.7826 567.39765 400.81737 567.4114 400.8521 L 571.0077 409.93754 C 571.1297 410.24577 571.2421 410.5577 571.34476 410.87294 L 573.9666 418.9257 C 573.9827 418.97524 573.9986 419.02484 574.01424 419.0745 L 577.0863 428.8328 C 577.2891 429.47695 577.4509 430.1333 577.5707 430.7979 L 579.55605 441.80737 C 579.5792 441.9358 579.6008 442.0645 579.6208 442.1934 L 581.32666 453.1868 C 581.3694 453.4622 581.40494 453.7387 581.4332 454.016 L 582.32065 462.7127 C 582.3674 463.1707 582.3943 463.6305 582.4014 464.0908 L 582.58565 476.0664 C 582.5891 476.2888 582.5971 476.51105 582.6098 476.7331 L 583.3802 490.21465 C 583.38725 490.3382 583.39575 490.4617 583.4057 490.58506 L 584.73924 507.15943 C 584.7736 507.5863 584.7908 508.0144 584.7908 508.44264 L 584.7908 520.8924 C 584.7908 521.09746 584.7947 521.3025 584.8026 521.50735 L 585.38295 536.5965 C 585.3882 536.73216 585.39166 536.8679 585.3934 537.00365 L 585.5856 551.7999 C 585.58905 552.0666 585.58584 552.3333 585.576 552.59986 L 585.00174 568.104 C 584.99444 568.3013 584.9908 568.49875 584.9908 568.6962 L 584.9908 582.2924 C 584.9908 582.49746 584.98684 582.7025 584.97896 582.90736 L 584.3938 598.12236 C 584.3918 598.1741 584.3895 598.2259 584.38704 598.2776 L 583.5917 614.78055 C 583.5911 614.7935 583.59045 614.8065 583.5898 614.81945 L 582.7953 630.5106 C 582.7923 630.5702 582.78894 630.6298 582.78526 630.6893 L 581.59634 649.9101 C 581.59264 649.97 581.5886 650.03 581.5842 650.0899 L 579.8011 674.4594 C 579.7942 674.55314 579.7865 674.6468 579.778 674.7404 L 577.9921 694.3852 C 577.9912 694.3951 577.9903 694.4049 577.9894 694.4148 L 576.21864 713.4997 C 576.2001 713.6999 576.1777 713.8997 576.1516 714.099 L 574.1909 729.07175 C 574.0581 730.08594 573.78896 731.0776 573.3908 732.0197 L 573.3908 732.0197 C 572.9932 732.9605 572.74454 733.9574 572.6537 734.97465 L 571.8908 743.5197 C 571.383 749.2068 575.3415 754.3251 580.97346 755.2638 Z" fill="url(#Obj_Gradient_2)"/>
      <path d="M 580.97346 755.2638 L 594.7157 757.5542 C 594.8991 757.5847 595.083 757.6121 595.2673 757.6362 L 623.62094 761.3515 C 623.8675 761.38385 624.1147 761.4104 624.3625 761.4312 L 654.6054 763.9677 C 654.8623 763.9892 655.1197 764.0046 655.3773 764.0137 L 694.3082 765.39 C 694.4966 765.3967 694.68504 765.4 694.8735 765.4 L 726.34084 765.4 C 726.5075 765.4 726.6741 765.3974 726.8406 765.3922 L 751.8754 764.6099 C 752.0856 764.6033 752.2957 764.5926 752.50555 764.5777 L 774.5533 763.0168 C 774.7116 763.0056 774.86975 762.99205 775.0277 762.9761 L 800.28815 760.4305 C 800.4899 760.4102 800.6912 760.386 800.892 760.358 L 824.6847 757.04265 C 824.8888 757.0142 825.0922 756.9819 825.295 756.9456 L 834.4908 755.3 C 839.8179 754.3467 843.4688 749.3931 842.8023 744.02255 L 840.5948 726.232 C 840.5921 726.2107 840.5895 726.1893 840.5869 726.168 L 837.0231 696.4695 C 837.0016 696.28985 836.9831 696.10985 836.9676 695.9296 L 834.6054 668.3704 C 834.5957 668.2568 834.5871 668.1431 834.5798 668.0294 L 833.1932 646.4377 C 833.1916 646.4126 833.1899 646.3874 833.1882 646.3623 L 831.596 623.276 C 831.5925 623.2253 831.5893 623.17466 831.5863 623.124 L 830.4099 603.3218 C 830.3972 603.1073 830.3887 602.89255 830.3846 602.6777 L 829.9924 582.08285 C 829.9913 582.0276 829.99 581.9724 829.9883 581.9172 L 829.3932 561.6828 C 829.3916 561.6276 829.3903 561.5724 829.3892 561.51715 L 828.9985 541.0076 C 828.9934 540.7359 828.9951 540.46413 829.0038 540.1925 L 829.5897 521.8329 C 829.5904 521.811 829.5912 521.78903 829.592 521.7671 L 830.3801 499.8978 C 830.3872 499.6993 830.3981 499.5009 830.4126 499.3028 L 831.9701 478.0822 C 831.9839 477.8941 831.9944 477.70573 832.0015 477.51724 L 832.756 457.6184 C 832.7792 457.00663 832.8374 456.3967 832.9305 455.79165 L 835.6695 437.98813 C 835.7503 437.46304 835.8572 436.9423 835.9898 436.4278 L 840.6181 418.47017 C 840.7332 418.0236 840.8675 417.5822 841.0207 417.14725 L 846.7415 400.9076 C 846.9076 400.43613 847.0957 399.9727 847.3052 399.51883 L 852.8367 387.5338 C 852.9394 387.3113 853.0472 387.0912 853.16 386.87364 L 858.5222 376.5322 C 858.5679 376.44407 858.6145 376.35636 858.6618 376.2691 L 863.8778 366.6521 C 864.615 365.29276 865.5647 364.05987 866.6908 363 L 866.6908 363 C 867.366 362.36453 867.3982 361.30203 866.7627 360.62684 C 866.6382 360.49456 866.4931 360.38337 866.333 360.2976 L 863.1188 358.57573 C 862.9002 358.4586 862.6788 358.34656 862.4549 358.2397 L 854.601 354.49122 C 854.1944 354.29716 853.7797 354.12036 853.3582 353.9613 L 843.6834 350.3104 C 843.4883 350.2368 843.2919 350.16703 843.0941 350.1011 L 830.3996 345.8696 C 830.2604 345.8232 830.1206 345.7787 829.9801 345.73616 L 817.0966 341.83206 C 817.0261 341.8107 816.9557 341.78883 816.8854 341.7665 L 804.3814 337.78794 C 803.9878 337.6627 803.5992 337.52225 803.2164 337.36693 L 791.2405 332.50713 C 790.4088 332.16964 789.607 331.76277 788.8436 331.29083 L 779.2244 325.3444 C 779.06865 325.24814 778.9146 325.14922 778.7623 325.0477 L 773.8722 321.7876 C 772.8908 321.13335 772.0195 320.32745 771.2908 319.4 L 771.2908 319.4 C 771.1852 319.2656 770.9906 319.24225 770.8562 319.34785 C 770.7535 319.42858 770.7125 319.56513 770.7538 319.6891 L 770.8908 320.1 C 771.35 321.47775 771.4546 322.94904 771.1948 324.3779 L 770.7997 326.55115 C 770.5285 328.0428 770.0466 329.48835 769.3686 330.8444 L 767.8363 333.90904 C 767.5396 334.50244 767.2062 335.0768 766.8382 335.62883 L 763.6345 340.4344 C 763.2059 341.0773 762.7313 341.6883 762.2144 342.2626 L 757.6524 347.33156 C 757.6113 347.3772 757.57 347.42258 757.5284 347.46773 L 751.5342 353.97576 C 750.9064 354.6573 750.2207 355.28302 749.48465 355.84587 L 744.4605 359.6879 C 744.0143 360.02906 743.5505 360.3465 743.071 360.6389 L 736.5846 364.59403 C 735.9229 364.99748 735.2328 365.35232 734.51975 365.65576 L 727.4043 368.6836 C 726.5967 369.0273 725.7621 369.30393 724.90905 369.51072 L 720.83 370.4996 C 720.0052 370.69955 719.1657 370.83356 718.3196 370.90035 L 712.6194 371.35037 C 712.2005 371.38344 711.7804 371.4 711.3602 371.4 L 704.3279 371.4 C 703.5708 371.4 702.8146 371.34626 702.0651 371.2392 L 694.1187 370.104 C 693.6337 370.0347 693.1521 369.94317 692.6755 369.8297 L 686.7143 368.41035 C 685.5688 368.1376 684.4569 367.73927 683.3988 367.22253 L 677.1188 364.15556 C 676.6338 363.91867 676.161 363.6574 675.7024 363.3727 L 671.4905 360.75846 C 670.89135 360.38656 670.3174 359.97546 669.7725 359.52784 L 665.3264 355.87568 C 665.1027 355.69193 664.884 355.50214 664.6706 355.30652 L 660.8683 351.82104 C 660.417 351.40736 659.9898 350.9681 659.58885 350.50546 L 655.4701 345.75307 C 655.1507 345.38455 654.84836 345.00162 654.56395 344.6055 L 650.1343 338.4356 C 649.6394 337.7463 649.2001 337.0187 648.82064 336.2597 L 646.2442 331.1068 C 646.2086 331.0356 646.1735 330.96414 646.139 330.89242 L 644.8908 328.3 C 644.0401 326.53313 643.68455 324.5686 643.8621 322.61564 L 644.0423 320.6334 C 644.0661 320.37152 643.8731 320.13994 643.61125 320.11614 C 643.44886 320.10138 643.2902 320.17075 643.1908 320.3 L 643.1908 320.3 C 642.5273 321.16248 641.7472 321.92856 640.87285 322.57625 L 636.9763 325.46257 C 636.8526 325.5542 636.7276 325.644 636.60136 325.73202 L 631.9791 328.9536 C 630.7924 329.7807 629.49895 330.44308 628.1342 330.9226 L 623.5271 332.5413 C 623.0365 332.71367 622.5546 332.90984 622.08316 333.12913 L 615.2364 336.31368 C 614.5402 336.63747 613.82165 336.91074 613.08625 337.13136 L 602.21586 340.39248 C 602.19914 340.3975 602.1824 340.40254 602.1657 340.4076 L 591.19764 343.7372 C 591.05974 343.77907 590.9224 343.8228 590.7857 343.86836 L 577.86446 348.17544 C 577.81534 348.1918 577.76614 348.20795 577.71686 348.22384 L 566.34946 351.89075 C 565.711 352.0967 565.0861 352.34263 564.47846 352.62704 L 556.5465 356.3399 C 556.17616 356.51323 555.8126 356.7007 555.4566 356.9019 L 549.5105 360.26276 C 548.2575 360.971 547.8158 362.56093 548.52406 363.81396 C 548.6012 363.9504 548.69045 364.0796 548.7908 364.2 L 549.6549 365.23693 C 550.40984 366.14287 551.0623 367.1295 551.6004 368.1788 L 554.6776 374.17924 C 554.75304 374.3264 554.8308 374.4724 554.9108 374.61715 L 558.86554 381.77337 C 558.949 381.92445 559.0301 382.07687 559.1086 382.23057 L 563.2169 390.26856 C 563.466 390.75587 563.6899 391.25563 563.88776 391.7659 L 567.3705 400.74776 C 567.384 400.7826 567.39765 400.81737 567.4114 400.8521 L 571.0077 409.93754 C 571.1297 410.24577 571.2421 410.5577 571.34476 410.87294 L 573.9666 418.9257 C 573.9827 418.97524 573.9986 419.02484 574.01424 419.0745 L 577.0863 428.8328 C 577.2891 429.47695 577.4509 430.1333 577.5707 430.7979 L 579.55605 441.80737 C 579.5792 441.9358 579.6008 442.0645 579.6208 442.1934 L 581.32666 453.1868 C 581.3694 453.4622 581.40494 453.7387 581.4332 454.016 L 582.32065 462.7127 C 582.3674 463.1707 582.3943 463.6305 582.4014 464.0908 L 582.58565 476.0664 C 582.5891 476.2888 582.5971 476.51105 582.6098 476.7331 L 583.3802 490.21465 C 583.38725 490.3382 583.39575 490.4617 583.4057 490.58506 L 584.73924 507.15943 C 584.7736 507.5863 584.7908 508.0144 584.7908 508.44264 L 584.7908 520.8924 C 584.7908 521.09746 584.7947 521.3025 584.8026 521.50735 L 585.38295 536.5965 C 585.3882 536.73216 585.39166 536.8679 585.3934 537.00365 L 585.5856 551.7999 C 585.58905 552.0666 585.58584 552.3333 585.576 552.59986 L 585.00174 568.104 C 584.99444 568.3013 584.9908 568.49875 584.9908 568.6962 L 584.9908 582.2924 C 584.9908 582.49746 584.98684 582.7025 584.97896 582.90736 L 584.3938 598.12236 C 584.3918 598.1741 584.3895 598.2259 584.38704 598.2776 L 583.5917 614.78055 C 583.5911 614.7935 583.59045 614.8065 583.5898 614.81945 L 582.7953 630.5106 C 582.7923 630.5702 582.78894 630.6298 582.78526 630.6893 L 581.59634 649.9101 C 581.59264 649.97 581.5886 650.03 581.5842 650.0899 L 579.8011 674.4594 C 579.7942 674.55314 579.7865 674.6468 579.778 674.7404 L 577.9921 694.3852 C 577.9912 694.3951 577.9903 694.4049 577.9894 694.4148 L 576.21864 713.4997 C 576.2001 713.6999 576.1777 713.8997 576.1516 714.099 L 574.1909 729.07175 C 574.0581 730.08594 573.78896 731.0776 573.3908 732.0197 L 573.3908 732.0197 C 572.9932 732.9605 572.74454 733.9574 572.6537 734.97465 L 571.8908 743.5197 C 571.383 749.2068 575.3415 754.3251 580.97346 755.2638 Z" stroke="#7f8080" stroke-linecap="round" stroke-linejoin="round" stroke-width="1"/>
      <path d="M 492 469.44615 L 498.2 473.84615 L 506.4 477.84615 L 515 481.44615 L 524 485.24615 L 535 489.24615 L 544.4 492.04615 L 553.4 494.64615 L 562.4 497.24615 L 567.8 498.64615 L 573.4 499.64615 L 575.8 493.84615 L 578.4 488.44615 L 580.6 484.44615 L 583.2 481.04615 L 583.4 472.04615 L 582.8 461.04615 L 581 450.24615 L 579.4 439.84615 L 576.8 428.84614 L 574.4 419.24614 L 571.6 411.24614 L 568.4 401.84614 L 565.6 394.44614 L 562 386.84614 L 558 379.24614 L 554 371.84614 L 551.4 368.24614 L 547.8 362.44614 L 542.4 366.84614 L 537.6 371.64614 L 533 377.84614 L 528.6 384.04614 L 523.8 392.64614 L 519 402.04614 L 514.2 411.24614 L 510.6 419.84614 L 506.6 428.84614 L 503.4 437.04615 L 499.6 446.44615 L 496.8 454.44615 L 493.8 462.84615 Z" fill="#002a05"/>
      <path d="M 492 469.44615 L 498.2 473.84615 L 506.4 477.84615 L 515 481.44615 L 524 485.24615 L 535 489.24615 L 544.4 492.04615 L 553.4 494.64615 L 562.4 497.24615 L 567.8 498.64615 L 573.4 499.64615 L 575.8 493.84615 L 578.4 488.44615 L 580.6 484.44615 L 583.2 481.04615 L 583.4 472.04615 L 582.8 461.04615 L 581 450.24615 L 579.4 439.84615 L 576.8 428.84614 L 574.4 419.24614 L 571.6 411.24614 L 568.4 401.84614 L 565.6 394.44614 L 562 386.84614 L 558 379.24614 L 554 371.84614 L 551.4 368.24614 L 547.8 362.44614 L 542.4 366.84614 L 537.6 371.64614 L 533 377.84614 L 528.6 384.04614 L 523.8 392.64614 L 519 402.04614 L 514.2 411.24614 L 510.6 419.84614 L 506.6 428.84614 L 503.4 437.04615 L 499.6 446.44615 L 496.8 454.44615 L 493.8 462.84615 Z" stroke="#7f8080" stroke-linecap="round" stroke-linejoin="round" stroke-width="1"/>
      <path d="M 923.4053 468.50275 L 917.2053 472.90275 L 909.0053 476.90275 L 900.4053 480.50275 L 891.4053 484.30275 L 880.4053 488.30275 L 871.0053 491.10275 L 862.0053 493.70275 L 853.0053 496.30275 L 847.6053 497.70275 L 842.0053 498.70275 L 839.6053 492.90275 L 837.0053 487.50275 L 834.8053 483.50275 L 832.2053 480.10275 L 832.0053 471.10275 L 832.6053 460.10275 L 834.4053 449.30275 L 836.0053 438.90275 L 838.6053 427.90275 L 841.0053 418.30275 L 843.8053 410.30275 L 847.0053 400.90275 L 849.8053 393.50275 L 853.4053 385.90275 L 857.4053 378.30275 L 861.4053 370.90275 L 864.0053 367.30275 L 867.6053 361.50275 L 873.0053 365.90275 L 877.8053 370.70275 L 882.4053 376.90275 L 886.8053 383.10275 L 891.6053 391.70275 L 896.4053 401.10275 L 901.2053 410.30275 L 904.8053 418.90275 L 908.8053 427.90275 L 912.0053 436.10275 L 915.8053 445.50275 L 918.6053 453.50275 L 921.6053 461.90275 Z" fill="#003d10"/>
      <path d="M 923.4053 468.50275 L 917.2053 472.90275 L 909.0053 476.90275 L 900.4053 480.50275 L 891.4053 484.30275 L 880.4053 488.30275 L 871.0053 491.10275 L 862.0053 493.70275 L 853.0053 496.30275 L 847.6053 497.70275 L 842.0053 498.70275 L 839.6053 492.90275 L 837.0053 487.50275 L 834.8053 483.50275 L 832.2053 480.10275 L 832.0053 471.10275 L 832.6053 460.10275 L 834.4053 449.30275 L 836.0053 438.90275 L 838.6053 427.90275 L 841.0053 418.30275 L 843.8053 410.30275 L 847.0053 400.90275 L 849.8053 393.50275 L 853.4053 385.90275 L 857.4053 378.30275 L 861.4053 370.90275 L 864.0053 367.30275 L 867.6053 361.50275 L 873.0053 365.90275 L 877.8053 370.70275 L 882.4053 376.90275 L 886.8053 383.10275 L 891.6053 391.70275 L 896.4053 401.10275 L 901.2053 410.30275 L 904.8053 418.90275 L 908.8053 427.90275 L 912.0053 436.10275 L 915.8053 445.50275 L 918.6053 453.50275 L 921.6053 461.90275 Z" stroke="#7f8080" stroke-linecap="round" stroke-linejoin="round" stroke-width="1"/>
      <path d="M 492 469.44615 L 498.2 473.84615 L 506.4 477.84615 L 515 481.44615 L 524 485.24615 L 535 489.24615 L 544.4 492.04615 L 553.4 494.64615 L 562.4 497.24615 L 567.8 498.64615 L 573.4 499.64615 L 576.4 493.24615 L 572.6 492.44615 L 567.8 491.24615 L 562.2 490.04615 L 556.2 488.24615 L 551.6 486.84615 L 547.4 485.64615 L 542.8 483.64615 L 538.2 482.04615 L 533.4 480.04615 L 529.4 478.64615 L 524.2 476.44615 L 519.6 474.84615 L 514.8 472.64615 L 510 470.84615 L 506 468.84615 L 501.6 466.64615 L 497.2 464.44615 L 493.8 462.84615 Z" fill="#004100"/>
      <path d="M 492 469.44615 L 498.2 473.84615 L 506.4 477.84615 L 515 481.44615 L 524 485.24615 L 535 489.24615 L 544.4 492.04615 L 553.4 494.64615 L 562.4 497.24615 L 567.8 498.64615 L 573.4 499.64615 L 576.4 493.24615 L 572.6 492.44615 L 567.8 491.24615 L 562.2 490.04615 L 556.2 488.24615 L 551.6 486.84615 L 547.4 485.64615 L 542.8 483.64615 L 538.2 482.04615 L 533.4 480.04615 L 529.4 478.64615 L 524.2 476.44615 L 519.6 474.84615 L 514.8 472.64615 L 510 470.84615 L 506 468.84615 L 501.6 466.64615 L 497.2 464.44615 L 493.8 462.84615 Z" stroke="#7f8080" stroke-linecap="round" stroke-linejoin="round" stroke-width="1"/>
      <path d="M 923.4053 468.50275 L 917.2053 472.90275 L 909.0053 476.90275 L 900.4053 480.50275 L 891.4053 484.30275 L 880.4053 488.30275 L 871.0053 491.10275 L 862.0053 493.70275 L 853.0053 496.30275 L 847.6053 497.70275 L 842.0053 498.70275 L 839.0053 492.30275 L 842.8053 491.50275 L 847.6053 490.30275 L 853.2053 489.10275 L 859.2053 487.30275 L 863.8053 485.90275 L 868.0053 484.70275 L 872.6053 482.70275 L 877.2053 481.10275 L 882.0053 479.10275 L 886.0053 477.70275 L 891.2053 475.50275 L 895.8053 473.90275 L 900.6053 471.70275 L 905.4053 469.90275 L 909.4053 467.90275 L 913.8053 465.70275 L 918.2053 463.50275 L 921.6053 461.90275 Z" fill="#004b00"/>
      <path d="M 923.4053 468.50275 L 917.2053 472.90275 L 909.0053 476.90275 L 900.4053 480.50275 L 891.4053 484.30275 L 880.4053 488.30275 L 871.0053 491.10275 L 862.0053 493.70275 L 853.0053 496.30275 L 847.6053 497.70275 L 842.0053 498.70275 L 839.0053 492.30275 L 842.8053 491.50275 L 847.6053 490.30275 L 853.2053 489.10275 L 859.2053 487.30275 L 863.8053 485.90275 L 868.0053 484.70275 L 872.6053 482.70275 L 877.2053 481.10275 L 882.0053 479.10275 L 886.0053 477.70275 L 891.2053 475.50275 L 895.8053 473.90275 L 900.6053 471.70275 L 905.4053 469.90275 L 909.4053 467.90275 L 913.8053 465.70275 L 918.2053 463.50275 L 921.6053 461.90275 Z" stroke="#7f8080" stroke-linecap="round" stroke-linejoin="round" stroke-width="1"/>
      <path d="M 642.5721 319.9638 L 637.84295 324.01736 C 636.6926 325.00338 635.44764 325.8733 634.1262 326.6145 L 631.5996 328.03165 C 630.1644 328.83662 629.5836 330.60575 630.2624 332.10473 L 631.28 334.35197 C 631.4016 334.62046 631.5283 334.88658 631.6601 335.1502 L 633.4624 338.75474 L 635.9494 343.7287 C 636.2912 344.4123 636.6668 345.07843 637.07495 345.72463 L 639.40134 349.4081 C 639.8417 350.10535 640.3193 350.7784 640.83195 351.4244 L 644.2426 355.72185 C 644.7887 356.40987 645.3737 357.06606 645.9948 357.68717 L 650.6609 362.3532 C 651.06175 362.7541 651.4773 363.14 651.9067 363.5102 L 656.4702 367.44426 C 656.8649 367.78448 657.271 368.1112 657.68785 368.42383 L 661.6628 371.40503 C 662.3287 371.90447 663.0212 372.3674 663.7373 372.79174 L 667.8704 375.24096 C 667.9984 375.3168 668.1271 375.3914 668.2566 375.46477 L 672.9541 378.1267 C 673.6924 378.54507 674.4533 378.92226 675.23325 379.25653 L 678.7831 380.7779 C 679.369 381.029 679.9652 381.25567 680.57 381.45726 L 685.5881 383.12997 C 686.8353 383.5457 688.1159 383.85376 689.4158 384.0507 L 693.51464 384.67174 C 693.87976 384.72706 694.24615 384.7736 694.6135 384.81126 L 701.4946 385.517 C 701.7398 385.54216 701.98534 385.56336 702.2312 385.5806 L 706.75835 385.8983 C 707.2942 385.9359 707.8312 385.95473 708.3684 385.95473 L 711.6305 385.95474 C 712.5842 385.95474 713.5369 385.8954 714.4833 385.77713 L 718.472 385.27854 C 719.13195 385.19604 719.788 385.08496 720.43835 384.9456 L 726.5204 383.6423 C 727.4143 383.45076 728.2959 383.2061 729.1607 382.9096 L 733.6695 381.3637 C 734.4642 381.09127 735.2433 380.7755 736.0034 380.4178 L 740.8368 378.14326 C 741.387 377.88435 741.9267 377.6037 742.4546 377.30202 L 746.2225 375.14896 C 746.9153 374.7531 747.587 374.3214 748.2349 373.8557 L 752.9111 370.49475 C 753.41175 370.1349 753.8978 369.75503 754.3679 369.3561 L 759.6888 364.84144 C 760.0711 364.51706 760.4427 364.18026 760.803 363.8316 L 765.5022 359.28396 C 766.1418 358.665 766.7449 358.00944 767.3085 357.32058 L 771.1018 352.68434 C 771.6085 352.06503 772.0826 351.4197 772.522 350.75096 L 776.1392 345.24656 C 776.3546 344.91873 776.5616 344.58544 776.76 344.24702 L 779.2831 339.94292 C 779.6691 339.28454 780.022 338.60735 780.3406 337.91388 L 782.4593 333.3026 C 782.9922 332.14285 783.3633 330.91544 783.5624 329.65474 L 783.5624 329.65474 C 783.7407 328.52547 783.1614 327.41203 782.1343 326.9099 L 776.8409 324.322 C 775.5264 323.67937 774.2918 322.88486 773.1624 321.95474 L 772.7564 321.62037 C 771.91205 320.92504 771.2886 319.99874 770.9624 318.95474 L 770.9624 318.95474 C 770.9157 318.8054 770.7569 318.7222 770.6075 318.76886 C 770.4925 318.80482 770.4128 318.9097 770.4089 319.0302 L 770.2997 322.4531 C 770.2089 325.2962 769.5916 328.09776 768.479 330.71567 L 767.6021 332.77904 C 767.0435 334.0933 766.3637 335.3527 765.5716 336.5409 L 761.8858 342.0696 C 761.1383 343.19085 760.2937 344.24425 759.36175 345.21762 L 753.0667 351.79247 C 752.1986 352.69913 751.2578 353.5332 750.2536 354.28633 L 741.8787 360.5675 C 741.0023 361.2248 740.08 361.81867 739.119 362.34454 L 731.93376 366.27606 C 730.6226 366.99347 729.2447 367.58137 727.8195 368.03143 L 721.1466 370.13867 C 719.4297 370.68084 717.6551 371.01954 715.8593 371.1478 L 708.9728 371.6397 C 707.9005 371.7163 706.8242 371.7176 705.7517 371.64365 L 697.3154 371.06184 C 696.28125 370.9905 695.2531 370.84936 694.23795 370.63933 L 687.10274 369.1631 C 685.1508 368.75923 683.2596 368.10335 681.47676 367.2119 L 676.81735 364.8822 C 675.5832 364.26515 674.4071 363.53827 673.3033 362.7104 L 667.6213 358.4489 C 667.1822 358.11957 666.755 357.7746 666.3405 357.4147 L 660.5853 352.41676 C 659.77104 351.7096 659.0075 350.9461 658.30036 350.1318 L 653.8951 345.0591 C 653.141 344.19075 652.4531 343.26705 651.8372 342.2958 L 648.1035 336.40802 C 647.7429 335.83944 647.4075 335.2553 647.0982 334.6573 L 645.4778 331.52456 C 644.8687 330.3469 644.3625 329.11874 643.965 327.85385 L 642.6847 323.78036 C 642.46995 323.097 642.2872 322.40395 642.1371 321.7035 L 641.9117 320.65157 C 641.8266 320.25456 642.053 319.8569 642.4378 319.72737 L 642.4378 319.72737 C 642.5103 319.70296 642.58884 319.74195 642.61325 319.81444 C 642.6313 319.86795 642.615 319.92704 642.5721 319.9638 Z" fill="#00680b"/>
      <path d="M 642.5721 319.9638 L 637.84295 324.01736 C 636.6926 325.00338 635.44764 325.8733 634.1262 326.6145 L 631.5996 328.03165 C 630.1644 328.83662 629.5836 330.60575 630.2624 332.10473 L 631.28 334.35197 C 631.4016 334.62046 631.5283 334.88658 631.6601 335.1502 L 633.4624 338.75474 L 635.9494 343.7287 C 636.2912 344.4123 636.6668 345.07843 637.07495 345.72463 L 639.40134 349.4081 C 639.8417 350.10535 640.3193 350.7784 640.83195 351.4244 L 644.2426 355.72185 C 644.7887 356.40987 645.3737 357.06606 645.9948 357.68717 L 650.6609 362.3532 C 651.06175 362.7541 651.4773 363.14 651.9067 363.5102 L 656.4702 367.44426 C 656.8649 367.78448 657.271 368.1112 657.68785 368.42383 L 661.6628 371.40503 C 662.3287 371.90447 663.0212 372.3674 663.7373 372.79174 L 667.8704 375.24096 C 667.9984 375.3168 668.1271 375.3914 668.2566 375.46477 L 672.9541 378.1267 C 673.6924 378.54507 674.4533 378.92226 675.23325 379.25653 L 678.7831 380.7779 C 679.369 381.029 679.9652 381.25567 680.57 381.45726 L 685.5881 383.12997 C 686.8353 383.5457 688.1159 383.85376 689.4158 384.0507 L 693.51464 384.67174 C 693.87976 384.72706 694.24615 384.7736 694.6135 384.81126 L 701.4946 385.517 C 701.7398 385.54216 701.98534 385.56336 702.2312 385.5806 L 706.75835 385.8983 C 707.2942 385.9359 707.8312 385.95473 708.3684 385.95473 L 711.6305 385.95474 C 712.5842 385.95474 713.5369 385.8954 714.4833 385.77713 L 718.472 385.27854 C 719.13195 385.19604 719.788 385.08496 720.43835 384.9456 L 726.5204 383.6423 C 727.4143 383.45076 728.2959 383.2061 729.1607 382.9096 L 733.6695 381.3637 C 734.4642 381.09127 735.2433 380.7755 736.0034 380.4178 L 740.8368 378.14326 C 741.387 377.88435 741.9267 377.6037 742.4546 377.30202 L 746.2225 375.14896 C 746.9153 374.7531 747.587 374.3214 748.2349 373.8557 L 752.9111 370.49475 C 753.41175 370.1349 753.8978 369.75503 754.3679 369.3561 L 759.6888 364.84144 C 760.0711 364.51706 760.4427 364.18026 760.803 363.8316 L 765.5022 359.28396 C 766.1418 358.665 766.7449 358.00944 767.3085 357.32058 L 771.1018 352.68434 C 771.6085 352.06503 772.0826 351.4197 772.522 350.75096 L 776.1392 345.24656 C 776.3546 344.91873 776.5616 344.58544 776.76 344.24702 L 779.2831 339.94292 C 779.6691 339.28454 780.022 338.60735 780.3406 337.91388 L 782.4593 333.3026 C 782.9922 332.14285 783.3633 330.91544 783.5624 329.65474 L 783.5624 329.65474 C 783.7407 328.52547 783.1614 327.41203 782.1343 326.9099 L 776.8409 324.322 C 775.5264 323.67937 774.2918 322.88486 773.1624 321.95474 L 772.7564 321.62037 C 771.91205 320.92504 771.2886 319.99874 770.9624 318.95474 L 770.9624 318.95474 C 770.9157 318.8054 770.7569 318.7222 770.6075 318.76886 C 770.4925 318.80482 770.4128 318.9097 770.4089 319.0302 L 770.2997 322.4531 C 770.2089 325.2962 769.5916 328.09776 768.479 330.71567 L 767.6021 332.77904 C 767.0435 334.0933 766.3637 335.3527 765.5716 336.5409 L 761.8858 342.0696 C 761.1383 343.19085 760.2937 344.24425 759.36175 345.21762 L 753.0667 351.79247 C 752.1986 352.69913 751.2578 353.5332 750.2536 354.28633 L 741.8787 360.5675 C 741.0023 361.2248 740.08 361.81867 739.119 362.34454 L 731.93376 366.27606 C 730.6226 366.99347 729.2447 367.58137 727.8195 368.03143 L 721.1466 370.13867 C 719.4297 370.68084 717.6551 371.01954 715.8593 371.1478 L 708.9728 371.6397 C 707.9005 371.7163 706.8242 371.7176 705.7517 371.64365 L 697.3154 371.06184 C 696.28125 370.9905 695.2531 370.84936 694.23795 370.63933 L 687.10274 369.1631 C 685.1508 368.75923 683.2596 368.10335 681.47676 367.2119 L 676.81735 364.8822 C 675.5832 364.26515 674.4071 363.53827 673.3033 362.7104 L 667.6213 358.4489 C 667.1822 358.11957 666.755 357.7746 666.3405 357.4147 L 660.5853 352.41676 C 659.77104 351.7096 659.0075 350.9461 658.30036 350.1318 L 653.8951 345.0591 C 653.141 344.19075 652.4531 343.26705 651.8372 342.2958 L 648.1035 336.40802 C 647.7429 335.83944 647.4075 335.2553 647.0982 334.6573 L 645.4778 331.52456 C 644.8687 330.3469 644.3625 329.11874 643.965 327.85385 L 642.6847 323.78036 C 642.46995 323.097 642.2872 322.40395 642.1371 321.7035 L 641.9117 320.65157 C 641.8266 320.25456 642.053 319.8569 642.4378 319.72737 L 642.4378 319.72737 C 642.5103 319.70296 642.58884 319.74195 642.61325 319.81444 C 642.6313 319.86795 642.615 319.92704 642.5721 319.9638 Z" stroke="#7f8080" stroke-linecap="round" stroke-linejoin="round" stroke-width="1"/>
      <path d="M 642.05925 319.7559 L 647.45925 319.1559 L 654.25925 322.5559 L 659.25925 324.3559 L 667.65925 326.1559 L 676.05925 327.1559 L 684.05925 328.1559 L 691.65925 328.3559 L 700.25925 328.7559 L 711.85925 328.5559 L 720.25925 328.1559 L 729.65925 327.5559 L 738.05925 326.7559 L 747.25925 325.3559 L 755.45925 323.1559 L 761.25925 321.3559 L 766.85925 318.7559 L 769.65925 319.9559 L 770.05925 325.5559 L 767.25925 333.5559 L 761.85925 336.3559 L 751.25925 339.5559 L 739.85925 341.9559 L 728.65925 342.7559 L 716.25925 343.7559 L 705.85925 343.7559 L 696.45925 343.7559 L 684.85925 343.1559 L 673.65925 342.3559 L 663.05925 340.1559 L 654.45925 338.1559 L 648.25925 335.3559 L 646.25925 333.7559 L 643.05925 326.1559 Z" fill="#02880b"/>
      <path d="M 642.05925 319.7559 L 647.45925 319.1559 L 654.25925 322.5559 L 659.25925 324.3559 L 667.65925 326.1559 L 676.05925 327.1559 L 684.05925 328.1559 L 691.65925 328.3559 L 700.25925 328.7559 L 711.85925 328.5559 L 720.25925 328.1559 L 729.65925 327.5559 L 738.05925 326.7559 L 747.25925 325.3559 L 755.45925 323.1559 L 761.25925 321.3559 L 766.85925 318.7559 L 769.65925 319.9559 L 770.05925 325.5559 L 767.25925 333.5559 L 761.85925 336.3559 L 751.25925 339.5559 L 739.85925 341.9559 L 728.65925 342.7559 L 716.25925 343.7559 L 705.85925 343.7559 L 696.45925 343.7559 L 684.85925 343.1559 L 673.65925 342.3559 L 663.05925 340.1559 L 654.45925 338.1559 L 648.25925 335.3559 L 646.25925 333.7559 L 643.05925 326.1559 Z" stroke="#7f8080" stroke-linecap="round" stroke-linejoin="round" stroke-width="1"/>
      <path d="M 571.8132 745.2 L 571.8132 745.2 C 571.7475 745.7255 571.81036 746.25905 571.9963 746.7549 L 572.6473 748.4909 C 572.82406 748.9623 573.05115 749.4132 573.3246 749.8358 L 574.2924 751.3315 C 574.8334 752.1676 575.5465 752.87855 576.3841 753.417 L 577.4622 754.11005 C 577.7624 754.3031 578.077 754.47285 578.40316 754.6179 L 579.72 755.2035 C 580.31654 755.4688 580.94725 755.6493 581.5938 755.7398 L 590.6042 757.0013 C 590.6142 757.00265 590.6242 757.004 590.6342 757.0054 L 602.3502 758.594 C 602.3962 758.6002 602.44226 758.606 602.4884 758.6113 L 612.7713 759.7978 C 612.80324 759.8015 612.8352 759.805 612.8672 759.8082 L 626.5772 761.1991 C 626.6052 761.2019 626.6332 761.2046 626.6612 761.2071 L 637.7665 762.19865 C 637.80164 762.2018 637.8368 762.2047 637.87195 762.2073 L 648.5585 762.9989 C 648.599 763.0019 648.6395 763.0045 648.68 763.0068 L 659.188 763.6016 C 659.2088 763.6028 659.2296 763.604 659.2504 763.6054 L 671.2932 764.3951 C 671.3772 764.4006 671.4613 764.4046 671.5454 764.4071 L 684.99256 764.8026 C 685.0103 764.8031 685.0281 764.8037 685.04585 764.8043 L 695.6897 765.1986 C 695.776 765.2018 695.8624 765.20335 695.9488 765.20335 L 706.5578 765.20335 C 706.5987 765.20335 706.6397 765.2037 706.6806 765.2044 L 717.767 765.3989 C 717.9351 765.4019 718.1032 765.3988 718.2711 765.3896 L 728.8923 764.8103 C 728.9769 764.8057 729.0616 764.8026 729.1463 764.801 L 739.91085 764.6053 C 739.9831 764.604 740.0553 764.6016 740.12745 764.598 L 752.1461 764.00695 C 752.1948 764.00455 752.24355 764.0016 752.29225 763.9982 L 763.5323 763.20945 C 763.5902 763.2054 763.6481 763.2006 763.7059 763.1951 L 776.1165 762.0131 C 776.185 762.0066 776.2535 762.0011 776.3221 761.9966 L 788.2542 761.2142 C 788.3642 761.207 788.474 761.19715 788.5836 761.18475 L 798.9959 760.006 C 799.0114 760.0042 799.027 760.0024 799.0425 760.0006 L 808.9902 758.8068 C 809.0095 758.8045 809.0289 758.8021 809.0482 758.7996 L 822.8839 757.0221 C 822.9812 757.0096 823.0781 756.9951 823.1747 756.9785 L 829.7282 755.8551 C 829.9292 755.8206 830.1315 755.79495 830.3347 755.7782 L 833.5671 755.5112 C 834.4563 755.43775 835.3233 755.195 836.1214 754.7959 L 837.6076 754.0528 C 838.2082 753.7525 838.7625 753.36735 839.2534 752.9092 L 840.5885 751.6631 C 841.1953 751.0967 841.6507 750.3875 841.9132 749.6 L 842.208 748.7155 C 842.2781 748.5053 842.3382 748.2919 842.388 748.07595 L 842.8577 746.0406 C 842.8929 745.8879 842.8595 745.7275 842.7662 745.6017 L 842.7662 745.6017 C 842.6759 745.4798 842.5252 745.4183 842.3754 745.4421 L 833.8955 746.7912 C 833.8447 746.7993 833.7939 746.808 833.7432 746.8172 L 820.7584 749.17805 C 820.6656 749.1949 820.5725 749.2099 820.4791 749.223 L 809.2494 750.7991 C 809.2293 750.8019 809.2091 750.8049 809.189 750.8079 L 796.0664 752.76645 C 795.9017 752.79105 795.7361 752.80975 795.57 752.8225 L 782.8452 753.8014 C 782.8279 753.8027 782.81055 753.80396 782.7932 753.8052 L 768.4531 754.801 C 768.4305 754.8026 768.4079 754.804 768.3853 754.8054 L 755.08205 755.5996 C 755.0402 755.6021 754.9982 755.6042 754.9563 755.606 L 740.76485 756.1973 C 740.6678 756.2013 740.5706 756.20335 740.4734 756.20335 L 727.2192 756.20335 L 714.6775 756.20335 C 714.63865 756.20335 714.5998 756.2037 714.5609 756.2043 L 702.8025 756.4003 C 702.6803 756.4023 702.5581 756.4012 702.436 756.3968 L 691.6024 756.0099 C 691.4803 756.0055 691.3581 756.0044 691.2359 756.0064 L 679.5213 756.20165 C 679.4532 756.2028 679.3852 756.2029 679.3171 756.2021 L 663.61484 756.0058 C 663.48444 756.0042 663.3541 755.9989 663.224 755.99 L 648.9142 755.0099 C 648.8509 755.0055 648.7876 755.0003 648.7244 754.9943 L 634.2334 753.6047 C 634.2239 753.6038 634.2145 753.6029 634.205 753.6019 L 620.393 752.2207 C 620.27715 752.20915 620.1616 752.1947 620.0465 752.1773 L 605.73735 750.0212 C 605.6586 750.0093 605.57964 749.9988 605.5005 749.9896 L 591.9806 748.4221 C 591.873 748.4096 591.76574 748.3946 591.65886 748.3772 L 582.2668 746.8438 C 582.1018 746.8168 581.9378 746.784 581.77516 746.7453 L 572.69756 744.5865 C 572.30925 744.4942 571.9196 744.7341 571.82724 745.1224 C 571.82116 745.148 571.8165 745.1739 571.8132 745.2 Z" fill="#006b1e"/>
      <path d="M 571.8132 745.2 L 571.8132 745.2 C 571.7475 745.7255 571.81036 746.25905 571.9963 746.7549 L 572.6473 748.4909 C 572.82406 748.9623 573.05115 749.4132 573.3246 749.8358 L 574.2924 751.3315 C 574.8334 752.1676 575.5465 752.87855 576.3841 753.417 L 577.4622 754.11005 C 577.7624 754.3031 578.077 754.47285 578.40316 754.6179 L 579.72 755.2035 C 580.31654 755.4688 580.94725 755.6493 581.5938 755.7398 L 590.6042 757.0013 C 590.6142 757.00265 590.6242 757.004 590.6342 757.0054 L 602.3502 758.594 C 602.3962 758.6002 602.44226 758.606 602.4884 758.6113 L 612.7713 759.7978 C 612.80324 759.8015 612.8352 759.805 612.8672 759.8082 L 626.5772 761.1991 C 626.6052 761.2019 626.6332 761.2046 626.6612 761.2071 L 637.7665 762.19865 C 637.80164 762.2018 637.8368 762.2047 637.87195 762.2073 L 648.5585 762.9989 C 648.599 763.0019 648.6395 763.0045 648.68 763.0068 L 659.188 763.6016 C 659.2088 763.6028 659.2296 763.604 659.2504 763.6054 L 671.2932 764.3951 C 671.3772 764.4006 671.4613 764.4046 671.5454 764.4071 L 684.99256 764.8026 C 685.0103 764.8031 685.0281 764.8037 685.04585 764.8043 L 695.6897 765.1986 C 695.776 765.2018 695.8624 765.20335 695.9488 765.20335 L 706.5578 765.20335 C 706.5987 765.20335 706.6397 765.2037 706.6806 765.2044 L 717.767 765.3989 C 717.9351 765.4019 718.1032 765.3988 718.2711 765.3896 L 728.8923 764.8103 C 728.9769 764.8057 729.0616 764.8026 729.1463 764.801 L 739.91085 764.6053 C 739.9831 764.604 740.0553 764.6016 740.12745 764.598 L 752.1461 764.00695 C 752.1948 764.00455 752.24355 764.0016 752.29225 763.9982 L 763.5323 763.20945 C 763.5902 763.2054 763.6481 763.2006 763.7059 763.1951 L 776.1165 762.0131 C 776.185 762.0066 776.2535 762.0011 776.3221 761.9966 L 788.2542 761.2142 C 788.3642 761.207 788.474 761.19715 788.5836 761.18475 L 798.9959 760.006 C 799.0114 760.0042 799.027 760.0024 799.0425 760.0006 L 808.9902 758.8068 C 809.0095 758.8045 809.0289 758.8021 809.0482 758.7996 L 822.8839 757.0221 C 822.9812 757.0096 823.0781 756.9951 823.1747 756.9785 L 829.7282 755.8551 C 829.9292 755.8206 830.1315 755.79495 830.3347 755.7782 L 833.5671 755.5112 C 834.4563 755.43775 835.3233 755.195 836.1214 754.7959 L 837.6076 754.0528 C 838.2082 753.7525 838.7625 753.36735 839.2534 752.9092 L 840.5885 751.6631 C 841.1953 751.0967 841.6507 750.3875 841.9132 749.6 L 842.208 748.7155 C 842.2781 748.5053 842.3382 748.2919 842.388 748.07595 L 842.8577 746.0406 C 842.8929 745.8879 842.8595 745.7275 842.7662 745.6017 L 842.7662 745.6017 C 842.6759 745.4798 842.5252 745.4183 842.3754 745.4421 L 833.8955 746.7912 C 833.8447 746.7993 833.7939 746.808 833.7432 746.8172 L 820.7584 749.17805 C 820.6656 749.1949 820.5725 749.2099 820.4791 749.223 L 809.2494 750.7991 C 809.2293 750.8019 809.2091 750.8049 809.189 750.8079 L 796.0664 752.76645 C 795.9017 752.79105 795.7361 752.80975 795.57 752.8225 L 782.8452 753.8014 C 782.8279 753.8027 782.81055 753.80396 782.7932 753.8052 L 768.4531 754.801 C 768.4305 754.8026 768.4079 754.804 768.3853 754.8054 L 755.08205 755.5996 C 755.0402 755.6021 754.9982 755.6042 754.9563 755.606 L 740.76485 756.1973 C 740.6678 756.2013 740.5706 756.20335 740.4734 756.20335 L 727.2192 756.20335 L 714.6775 756.20335 C 714.63865 756.20335 714.5998 756.2037 714.5609 756.2043 L 702.8025 756.4003 C 702.6803 756.4023 702.5581 756.4012 702.436 756.3968 L 691.6024 756.0099 C 691.4803 756.0055 691.3581 756.0044 691.2359 756.0064 L 679.5213 756.20165 C 679.4532 756.2028 679.3852 756.2029 679.3171 756.2021 L 663.61484 756.0058 C 663.48444 756.0042 663.3541 755.9989 663.224 755.99 L 648.9142 755.0099 C 648.8509 755.0055 648.7876 755.0003 648.7244 754.9943 L 634.2334 753.6047 C 634.2239 753.6038 634.2145 753.6029 634.205 753.6019 L 620.393 752.2207 C 620.27715 752.20915 620.1616 752.1947 620.0465 752.1773 L 605.73735 750.0212 C 605.6586 750.0093 605.57964 749.9988 605.5005 749.9896 L 591.9806 748.4221 C 591.873 748.4096 591.76574 748.3946 591.65886 748.3772 L 582.2668 746.8438 C 582.1018 746.8168 581.9378 746.784 581.77516 746.7453 L 572.69756 744.5865 C 572.30925 744.4942 571.9196 744.7341 571.82724 745.1224 C 571.82116 745.148 571.8165 745.1739 571.8132 745.2 Z" stroke="#7f8080" stroke-linecap="round" stroke-linejoin="round" stroke-width="1"/>
    </g>
  </g>
</svg>
