<?xml version="1.0" encoding="UTF-8" standalone="no"?>
<!DOCTYPE svg PUBLIC "-//W3C//DTD SVG 1.1//EN" "http://www.w3.org/Graphics/SVG/1.1/DTD/svg11.dtd">
<svg xmlns="http://www.w3.org/2000/svg" xmlns:xl="http://www.w3.org/1999/xlink" version="1.1" viewBox="-52.5 151.5 432.4053 448.4" width="432.4053pt" height="448.4pt" xmlns:dc="http://purl.org/dc/elements/1.1/">
  <metadata> Produced by OmniGraffle 7.6.1 
    <dc:date>2019-05-26 05:25:34 +0000</dc:date>
  </metadata>
  <defs>
    <radialGradient cx="0" cy="0" r="1" id="Gradient" gradientUnits="userSpaceOnUse">
      <stop offset="0" stop-color="#cbcbcb"/>
      <stop offset="1" stop-color="#212121"/>
    </radialGradient>
    <radialGradient id="Obj_Gradient" xl:href="#Gradient" gradientTransform="translate(162.75925 179.4) scale(70.26272)"/>
    <linearGradient x1="0" x2="1" id="Gradient_2" gradientUnits="userSpaceOnUse">
      <stop offset="0" stop-color="red"/>
      <stop offset="1" stop-color="#330b06"/>
    </linearGradient>
    <linearGradient id="Obj_Gradient_2" xl:href="#Gradient_2" gradientTransform="translate(163.70264 153.2817) rotate(90) scale(446.1183)"/>
  </defs>
  <g stroke="none" stroke-opacity="1" stroke-dasharray="none" fill="none" fill-opacity="1">
    <title>panama</title>
    <g>
      <title>Capa 1</title>
      <path d="M 101.00565 152.59045 L 109.1711 155.70816 C 110.0291 156.03576 110.90594 156.31167 111.79692 156.53442 L 125.5141 159.96371 C 126.67576 160.25413 127.85832 160.45338 129.051 160.55966 L 146.57715 162.1214 C 147.165 162.17378 147.75464 162.20352 148.34478 162.21054 L 163.8237 162.39481 C 164.11404 162.39827 164.40442 162.39623 164.69469 162.38869 L 179.118 162.01406 C 179.47878 162.00469 179.8393 161.98683 180.19924 161.96049 L 194.57053 160.90893 C 195.56197 160.83639 196.54766 160.69964 197.5214 160.49956 L 209.09436 158.12155 C 210.13637 157.90744 211.16226 157.6213 212.16465 157.26519 L 223.91664 153.09014 C 225.00702 152.70277 226.21021 153.23354 226.65925 154.3 L 226.65925 154.3 C 227.1814 155.5401 227.33338 156.90485 227.09685 158.22945 L 226.91637 159.24014 C 226.6126 160.9413 226.11806 162.6028 225.44214 164.19319 L 223.89892 167.8243 C 223.34035 169.13858 222.6606 170.39798 221.86846 171.58618 L 218.18268 177.11485 C 217.43517 178.23611 216.59057 179.28951 215.6586 180.2629 L 209.36354 186.83774 C 208.49547 187.7444 207.55463 188.57846 206.55046 189.3316 L 198.17555 195.61277 C 197.29914 196.27008 196.37688 196.86394 195.41582 197.3898 L 188.23062 201.32133 C 186.9195 202.03874 185.54156 202.62664 184.11638 203.0767 L 177.44347 205.18393 C 175.7266 205.7261 173.952 206.0648 172.15613 206.19308 L 165.26968 206.68497 C 164.19738 206.76156 163.12103 206.76288 162.04854 206.68892 L 153.61229 206.1071 C 152.57811 206.03578 151.54994 205.89463 150.5348 205.6846 L 143.3996 204.20835 C 141.44765 203.8045 139.55647 203.14861 137.77362 202.25719 L 133.11421 199.92748 C 131.88007 199.31041 130.70397 198.58354 129.60012 197.75566 L 123.91816 193.49419 C 123.47903 193.16483 123.05182 192.81987 122.63737 192.45995 L 116.88219 187.46203 C 116.0679 186.75489 115.30436 185.99135 114.59722 185.17706 L 110.192 180.10438 C 109.43789 179.23602 108.74998 178.31232 108.13406 177.34105 L 104.40036 171.45329 C 104.03979 170.8847 103.70437 170.30056 103.39505 169.70255 L 101.77468 166.56983 C 101.16553 165.39215 100.65936 164.164 100.26183 162.89911 L 98.98159 158.82562 C 98.76681 158.14225 98.58408 157.44921 98.43399 156.74878 L 98.35925 156.4 C 98.16458 155.49157 98.27185 154.54443 98.66473 153.70254 L 98.75925 153.5 C 99.15372 152.6547 100.1342 152.2577 101.00565 152.59045 Z" fill="url(#Obj_Gradient)"/>
      <path d="M 101.00565 152.59045 L 109.1711 155.70816 C 110.0291 156.03576 110.90594 156.31167 111.79692 156.53442 L 125.5141 159.96371 C 126.67576 160.25413 127.85832 160.45338 129.051 160.55966 L 146.57715 162.1214 C 147.165 162.17378 147.75464 162.20352 148.34478 162.21054 L 163.8237 162.39481 C 164.11404 162.39827 164.40442 162.39623 164.69469 162.38869 L 179.118 162.01406 C 179.47878 162.00469 179.8393 161.98683 180.19924 161.96049 L 194.57053 160.90893 C 195.56197 160.83639 196.54766 160.69964 197.5214 160.49956 L 209.09436 158.12155 C 210.13637 157.90744 211.16226 157.6213 212.16465 157.26519 L 223.91664 153.09014 C 225.00702 152.70277 226.21021 153.23354 226.65925 154.3 L 226.65925 154.3 C 227.1814 155.5401 227.33338 156.90485 227.09685 158.22945 L 226.91637 159.24014 C 226.6126 160.9413 226.11806 162.6028 225.44214 164.19319 L 223.89892 167.8243 C 223.34035 169.13858 222.6606 170.39798 221.86846 171.58618 L 218.18268 177.11485 C 217.43517 178.23611 216.59057 179.28951 215.6586 180.2629 L 209.36354 186.83774 C 208.49547 187.7444 207.55463 188.57846 206.55046 189.3316 L 198.17555 195.61277 C 197.29914 196.27008 196.37688 196.86394 195.41582 197.3898 L 188.23062 201.32133 C 186.9195 202.03874 185.54156 202.62664 184.11638 203.0767 L 177.44347 205.18393 C 175.7266 205.7261 173.952 206.0648 172.15613 206.19308 L 165.26968 206.68497 C 164.19738 206.76156 163.12103 206.76288 162.04854 206.68892 L 153.61229 206.1071 C 152.57811 206.03578 151.54994 205.89463 150.5348 205.6846 L 143.3996 204.20835 C 141.44765 203.8045 139.55647 203.14861 137.77362 202.25719 L 133.11421 199.92748 C 131.88007 199.31041 130.70397 198.58354 129.60012 197.75566 L 123.91816 193.49419 C 123.47903 193.16483 123.05182 192.81987 122.63737 192.45995 L 116.88219 187.46203 C 116.0679 186.75489 115.30436 185.99135 114.59722 185.17706 L 110.192 180.10438 C 109.43789 179.23602 108.74998 178.31232 108.13406 177.34105 L 104.40036 171.45329 C 104.03979 170.8847 103.70437 170.30056 103.39505 169.70255 L 101.77468 166.56983 C 101.16553 165.39215 100.65936 164.164 100.26183 162.89911 L 98.98159 158.82562 C 98.76681 158.14225 98.58408 157.44921 98.43399 156.74878 L 98.35925 156.4 C 98.16458 155.49157 98.27185 154.54443 98.66473 153.70254 L 98.75925 153.5 C 99.15372 152.6547 100.1342 152.2577 101.00565 152.59045 Z" stroke="#7f8080" stroke-linecap="round" stroke-linejoin="round" stroke-width="1"/>
      <path d="M 36.973455 589.2638 L 50.715696 591.55416 C 50.89907 591.5847 51.08297 591.6121 51.2673 591.63624 L 79.62094 595.35154 C 79.86747 595.38385 80.11472 595.4104 80.36248 595.4312 L 110.60537 597.9677 C 110.86227 597.9892 111.11966 598.00456 111.37731 598.0137 L 150.30822 599.39 C 150.49658 599.3967 150.68504 599.4 150.87352 599.4 L 182.34084 599.4 C 182.50746 599.4 182.67407 599.3974 182.8406 599.3922 L 207.87539 598.60986 C 208.08563 598.6033 208.29573 598.5926 208.50555 598.5777 L 230.5533 597.0168 C 230.71161 597.0056 230.86975 596.99205 231.02766 596.9761 L 256.28815 594.4305 C 256.4899 594.4102 256.69122 594.386 256.89204 594.358 L 280.68474 591.04265 C 280.88875 591.0142 281.0922 590.98186 281.29496 590.9456 L 290.4908 589.3 C 295.8179 588.34674 299.46876 583.3931 298.80234 578.02255 L 296.59475 560.232 C 296.5921 560.21066 296.5895 560.18934 296.58695 560.168 L 293.02312 530.4695 C 293.00157 530.28985 292.98306 530.10985 292.9676 529.9296 L 290.6054 502.3704 C 290.59565 502.2568 290.58713 502.1431 290.57983 502.02936 L 289.1932 480.4377 C 289.1916 480.4126 289.18992 480.38744 289.1882 480.3623 L 287.59603 457.276 C 287.59253 457.22533 287.58928 457.17466 287.58627 457.124 L 286.4099 437.3218 C 286.39716 437.1073 286.38874 436.89255 286.38465 436.6777 L 285.99236 416.08285 C 285.9913 416.0276 285.98997 415.9724 285.98835 415.9172 L 285.39322 395.68283 C 285.3916 395.6276 285.39026 395.5724 285.3892 395.51715 L 284.99855 375.0076 C 284.99337 374.7359 284.99512 374.46413 285.0038 374.19253 L 285.58973 355.8329 C 285.59044 355.81097 285.59118 355.78903 285.59197 355.7671 L 286.38005 333.8978 C 286.3872 333.6993 286.39806 333.50093 286.4126 333.30283 L 287.97007 312.0822 C 287.98388 311.8941 287.99436 311.70573 288.0015 311.51724 L 288.75596 291.61837 C 288.77915 291.00663 288.83744 290.39672 288.93052 289.79165 L 291.66953 271.98813 C 291.7503 271.46304 291.8572 270.9423 291.9898 270.42783 L 296.61806 252.47017 C 296.73316 252.0236 296.8675 251.5822 297.02073 251.14725 L 302.7415 234.9076 C 302.9076 234.43613 303.0957 233.9727 303.30517 233.51883 L 308.83673 221.5338 C 308.93942 221.3113 309.0472 221.09119 309.16 220.87364 L 314.52223 210.53222 C 314.56793 210.44407 314.61446 210.35636 314.6618 210.26908 L 319.87777 200.65212 C 320.61505 199.29276 321.56468 198.05987 322.6908 197 L 322.6908 197 C 323.36598 196.36453 323.39817 195.30203 322.7627 194.62684 C 322.6382 194.49456 322.49307 194.38337 322.33295 194.2976 L 319.1188 192.57573 C 318.90016 192.4586 318.6788 192.34656 318.45494 192.23971 L 310.60097 188.49122 C 310.19436 188.29716 309.77974 188.12036 309.3582 187.9613 L 299.68338 184.31041 C 299.48833 184.23681 299.29187 184.16703 299.0941 184.1011 L 286.39963 179.86962 C 286.2604 179.8232 286.12055 179.77872 285.9801 179.73616 L 273.09658 175.83206 C 273.02605 175.81069 272.95567 175.78883 272.88544 175.76648 L 260.38144 171.78794 C 259.98782 171.6627 259.5992 171.52225 259.21643 171.36693 L 247.2405 166.50713 C 246.40883 166.16964 245.60704 165.76277 244.8436 165.29083 L 235.22436 159.34439 C 235.06865 159.24814 234.9146 159.14922 234.7623 159.04768 L 229.8722 155.78762 C 228.89081 155.13335 228.0195 154.32745 227.29078 153.4 L 227.29078 153.4 C 227.18518 153.2656 226.99062 153.24225 226.8562 153.34785 C 226.75347 153.42858 226.7125 153.56513 226.7538 153.68908 L 226.89078 154.1 C 227.35003 155.47775 227.4546 156.94904 227.1948 158.37789 L 226.79967 160.55115 C 226.52845 162.04281 226.0466 163.48835 225.36858 164.8444 L 223.83626 167.90904 C 223.53956 168.50244 223.20624 169.0768 222.83823 169.62883 L 219.63453 174.43438 C 219.20593 175.07728 218.73132 175.6883 218.21443 176.26261 L 213.65238 181.33156 C 213.61132 181.37719 213.57 181.42258 213.5284 181.46773 L 207.53417 187.97576 C 206.90643 188.6573 206.22068 189.28302 205.48465 189.84587 L 200.46047 193.68789 C 200.01432 194.02906 199.55052 194.3465 199.07099 194.6389 L 192.58458 198.59403 C 191.92292 198.99748 191.23283 199.35232 190.51975 199.65576 L 183.40434 202.6836 C 182.59667 203.02728 181.7621 203.30393 180.90905 203.51072 L 176.83 204.49959 C 176.00516 204.69955 175.16573 204.83356 174.31963 204.90035 L 168.61943 205.35037 C 168.2005 205.38344 167.78042 205.4 167.36019 205.4 L 160.32787 205.4 C 159.57077 205.4 158.81462 205.34626 158.06513 205.2392 L 150.11868 204.10399 C 149.63367 204.0347 149.1521 203.94317 148.6755 203.8297 L 142.71426 202.41035 C 141.56878 202.13762 140.4569 201.73927 139.39883 201.22253 L 133.11882 198.15556 C 132.63377 197.91867 132.16102 197.6574 131.70238 197.37272 L 127.49052 194.75846 C 126.89135 194.38656 126.31742 193.97546 125.7725 193.52784 L 121.32639 189.87568 C 121.10269 189.69193 120.88402 189.50214 120.67063 189.30652 L 116.86828 185.82104 C 116.41699 185.40736 115.98981 184.9681 115.58885 184.50546 L 111.4701 179.75307 C 111.15072 179.38455 110.84836 179.00162 110.56395 178.60549 L 106.1343 172.4356 C 105.6394 171.7463 105.20013 171.0187 104.82064 170.25972 L 102.24418 165.1068 C 102.20858 165.0356 102.17352 164.96414 102.13899 164.89242 L 100.89078 162.3 C 100.04007 160.53313 99.68455 158.5686 99.86209 156.61564 L 100.04229 154.63339 C 100.0661 154.37152 99.87312 154.13994 99.61125 154.11614 C 99.44886 154.10138 99.2902 154.17075 99.19078 154.3 L 99.19078 154.3 C 98.52734 155.16248 97.74723 155.92856 96.87285 156.57625 L 92.97632 159.46257 C 92.85263 159.55418 92.72763 159.64401 92.60136 159.73202 L 87.97911 162.9536 C 86.79237 163.78071 85.49895 164.44308 84.1342 164.92258 L 79.52708 166.5413 C 79.036505 166.71367 78.55463 166.90984 78.08316 167.12913 L 71.23638 170.31368 C 70.54022 170.63747 69.82165 170.91074 69.08625 171.13136 L 58.215864 174.39248 C 58.19914 174.3975 58.18243 174.40254 58.165724 174.4076 L 47.197637 177.7372 C 47.05974 177.77907 46.922414 177.8228 46.7857 177.86836 L 33.864464 182.17544 C 33.815343 182.19181 33.766142 182.20795 33.716864 182.22384 L 22.349458 185.89075 C 21.710972 186.09671 21.086073 186.34263 20.47846 186.62704 L 12.546495 190.33988 C 12.176155 190.51323 11.812597 190.70071 11.45662 190.90192 L 5.510506 194.26276 C 4.2574724 194.971 3.815827 196.56093 4.5240634 197.81396 C 4.601181 197.9504 4.6904484 198.0796 4.790781 198.2 L 5.654892 199.23693 C 6.4098374 200.14287 7.062314 201.1295 7.600431 202.17882 L 10.677569 208.17924 C 10.753039 208.3264 10.830787 208.4724 10.910784 208.61715 L 14.865536 215.77337 C 14.949027 215.92445 15.030068 216.07687 15.108627 216.23057 L 19.216931 224.26856 C 19.466 224.75587 19.689904 225.25563 19.887757 225.7659 L 23.370526 234.74776 C 23.38403 234.7826 23.397655 234.81737 23.411402 234.8521 L 27.007724 243.93754 C 27.129733 244.24577 27.242133 244.55772 27.34476 244.87294 L 29.966596 252.92572 C 29.98272 252.97524 29.9986 253.02484 30.01424 253.07452 L 33.08629 262.8328 C 33.28908 263.47695 33.450886 264.1333 33.570733 264.7979 L 35.556045 275.80737 C 35.5792 275.9358 35.600787 276.06448 35.620795 276.19342 L 37.326665 287.1868 C 37.3694 287.46222 37.404935 287.7387 37.43323 288.016 L 38.32065 296.7127 C 38.36738 297.1707 38.394327 297.63048 38.40141 298.0908 L 38.58565 310.0664 C 38.58907 310.2888 38.597127 310.51105 38.609815 310.7331 L 39.38019 324.21465 C 39.38725 324.3382 39.395745 324.4617 39.40567 324.58506 L 40.73924 341.15943 C 40.77359 341.5863 40.79078 342.0144 40.79078 342.44264 L 40.79078 354.89242 C 40.79078 355.09746 40.794723 355.30247 40.802603 355.50735 L 41.382954 370.5965 C 41.38817 370.73216 41.391663 370.8679 41.393426 371.00365 L 41.585585 385.7999 C 41.58905 386.0666 41.585843 386.33333 41.57597 386.59986 L 41.001744 402.104 C 40.994436 402.3013 40.99078 402.49875 40.99078 402.6962 L 40.99078 416.29243 C 40.99078 416.49746 40.98684 416.70247 40.97896 416.90736 L 40.39377 432.12236 C 40.391777 432.1741 40.389535 432.2259 40.38704 432.2776 L 39.59172 448.78055 C 39.591094 448.7935 39.590453 448.8065 39.589797 448.81945 L 38.795307 464.5106 C 38.79229 464.5702 38.78894 464.6298 38.785256 464.68933 L 37.596345 483.91007 C 37.592636 483.97 37.58859 484.02996 37.584206 484.0899 L 35.80107 508.4594 C 35.79421 508.55314 35.786527 508.6468 35.77802 508.7404 L 33.992128 528.3852 C 33.99123 528.3951 33.990324 528.40494 33.989408 528.4148 L 32.218643 547.4997 C 32.20007 547.6999 32.177726 547.8997 32.151623 548.099 L 30.19091 563.07175 C 30.0581 564.08594 29.788958 565.07756 29.39078 566.0197 L 29.39078 566.0197 C 28.993206 566.9605 28.744538 567.9574 28.653714 568.97465 L 27.89078 577.5197 C 27.383025 583.20676 31.34149 588.3251 36.973455 589.2638 Z" fill="url(#Obj_Gradient_2)"/>
      <path d="M 36.973455 589.2638 L 50.715696 591.55416 C 50.89907 591.5847 51.08297 591.6121 51.2673 591.63624 L 79.62094 595.35154 C 79.86747 595.38385 80.11472 595.4104 80.36248 595.4312 L 110.60537 597.9677 C 110.86227 597.9892 111.11966 598.00456 111.37731 598.0137 L 150.30822 599.39 C 150.49658 599.3967 150.68504 599.4 150.87352 599.4 L 182.34084 599.4 C 182.50746 599.4 182.67407 599.3974 182.8406 599.3922 L 207.87539 598.60986 C 208.08563 598.6033 208.29573 598.5926 208.50555 598.5777 L 230.5533 597.0168 C 230.71161 597.0056 230.86975 596.99205 231.02766 596.9761 L 256.28815 594.4305 C 256.4899 594.4102 256.69122 594.386 256.89204 594.358 L 280.68474 591.04265 C 280.88875 591.0142 281.0922 590.98186 281.29496 590.9456 L 290.4908 589.3 C 295.8179 588.34674 299.46876 583.3931 298.80234 578.02255 L 296.59475 560.232 C 296.5921 560.21066 296.5895 560.18934 296.58695 560.168 L 293.02312 530.4695 C 293.00157 530.28985 292.98306 530.10985 292.9676 529.9296 L 290.6054 502.3704 C 290.59565 502.2568 290.58713 502.1431 290.57983 502.02936 L 289.1932 480.4377 C 289.1916 480.4126 289.18992 480.38744 289.1882 480.3623 L 287.59603 457.276 C 287.59253 457.22533 287.58928 457.17466 287.58627 457.124 L 286.4099 437.3218 C 286.39716 437.1073 286.38874 436.89255 286.38465 436.6777 L 285.99236 416.08285 C 285.9913 416.0276 285.98997 415.9724 285.98835 415.9172 L 285.39322 395.68283 C 285.3916 395.6276 285.39026 395.5724 285.3892 395.51715 L 284.99855 375.0076 C 284.99337 374.7359 284.99512 374.46413 285.0038 374.19253 L 285.58973 355.8329 C 285.59044 355.81097 285.59118 355.78903 285.59197 355.7671 L 286.38005 333.8978 C 286.3872 333.6993 286.39806 333.50093 286.4126 333.30283 L 287.97007 312.0822 C 287.98388 311.8941 287.99436 311.70573 288.0015 311.51724 L 288.75596 291.61837 C 288.77915 291.00663 288.83744 290.39672 288.93052 289.79165 L 291.66953 271.98813 C 291.7503 271.46304 291.8572 270.9423 291.9898 270.42783 L 296.61806 252.47017 C 296.73316 252.0236 296.8675 251.5822 297.02073 251.14725 L 302.7415 234.9076 C 302.9076 234.43613 303.0957 233.9727 303.30517 233.51883 L 308.83673 221.5338 C 308.93942 221.3113 309.0472 221.09119 309.16 220.87364 L 314.52223 210.53222 C 314.56793 210.44407 314.61446 210.35636 314.6618 210.26908 L 319.87777 200.65212 C 320.61505 199.29276 321.56468 198.05987 322.6908 197 L 322.6908 197 C 323.36598 196.36453 323.39817 195.30203 322.7627 194.62684 C 322.6382 194.49456 322.49307 194.38337 322.33295 194.2976 L 319.1188 192.57573 C 318.90016 192.4586 318.6788 192.34656 318.45494 192.23971 L 310.60097 188.49122 C 310.19436 188.29716 309.77974 188.12036 309.3582 187.9613 L 299.68338 184.31041 C 299.48833 184.23681 299.29187 184.16703 299.0941 184.1011 L 286.39963 179.86962 C 286.2604 179.8232 286.12055 179.77872 285.9801 179.73616 L 273.09658 175.83206 C 273.02605 175.81069 272.95567 175.78883 272.88544 175.76648 L 260.38144 171.78794 C 259.98782 171.6627 259.5992 171.52225 259.21643 171.36693 L 247.2405 166.50713 C 246.40883 166.16964 245.60704 165.76277 244.8436 165.29083 L 235.22436 159.34439 C 235.06865 159.24814 234.9146 159.14922 234.7623 159.04768 L 229.8722 155.78762 C 228.89081 155.13335 228.0195 154.32745 227.29078 153.4 L 227.29078 153.4 C 227.18518 153.2656 226.99062 153.24225 226.8562 153.34785 C 226.75347 153.42858 226.7125 153.56513 226.7538 153.68908 L 226.89078 154.1 C 227.35003 155.47775 227.4546 156.94904 227.1948 158.37789 L 226.79967 160.55115 C 226.52845 162.04281 226.0466 163.48835 225.36858 164.8444 L 223.83626 167.90904 C 223.53956 168.50244 223.20624 169.0768 222.83823 169.62883 L 219.63453 174.43438 C 219.20593 175.07728 218.73132 175.6883 218.21443 176.26261 L 213.65238 181.33156 C 213.61132 181.37719 213.57 181.42258 213.5284 181.46773 L 207.53417 187.97576 C 206.90643 188.6573 206.22068 189.28302 205.48465 189.84587 L 200.46047 193.68789 C 200.01432 194.02906 199.55052 194.3465 199.07099 194.6389 L 192.58458 198.59403 C 191.92292 198.99748 191.23283 199.35232 190.51975 199.65576 L 183.40434 202.6836 C 182.59667 203.02728 181.7621 203.30393 180.90905 203.51072 L 176.83 204.49959 C 176.00516 204.69955 175.16573 204.83356 174.31963 204.90035 L 168.61943 205.35037 C 168.2005 205.38344 167.78042 205.4 167.36019 205.4 L 160.32787 205.4 C 159.57077 205.4 158.81462 205.34626 158.06513 205.2392 L 150.11868 204.10399 C 149.63367 204.0347 149.1521 203.94317 148.6755 203.8297 L 142.71426 202.41035 C 141.56878 202.13762 140.4569 201.73927 139.39883 201.22253 L 133.11882 198.15556 C 132.63377 197.91867 132.16102 197.6574 131.70238 197.37272 L 127.49052 194.75846 C 126.89135 194.38656 126.31742 193.97546 125.7725 193.52784 L 121.32639 189.87568 C 121.10269 189.69193 120.88402 189.50214 120.67063 189.30652 L 116.86828 185.82104 C 116.41699 185.40736 115.98981 184.9681 115.58885 184.50546 L 111.4701 179.75307 C 111.15072 179.38455 110.84836 179.00162 110.56395 178.60549 L 106.1343 172.4356 C 105.6394 171.7463 105.20013 171.0187 104.82064 170.25972 L 102.24418 165.1068 C 102.20858 165.0356 102.17352 164.96414 102.13899 164.89242 L 100.89078 162.3 C 100.04007 160.53313 99.68455 158.5686 99.86209 156.61564 L 100.04229 154.63339 C 100.0661 154.37152 99.87312 154.13994 99.61125 154.11614 C 99.44886 154.10138 99.2902 154.17075 99.19078 154.3 L 99.19078 154.3 C 98.52734 155.16248 97.74723 155.92856 96.87285 156.57625 L 92.97632 159.46257 C 92.85263 159.55418 92.72763 159.64401 92.60136 159.73202 L 87.97911 162.9536 C 86.79237 163.78071 85.49895 164.44308 84.1342 164.92258 L 79.52708 166.5413 C 79.036505 166.71367 78.55463 166.90984 78.08316 167.12913 L 71.23638 170.31368 C 70.54022 170.63747 69.82165 170.91074 69.08625 171.13136 L 58.215864 174.39248 C 58.19914 174.3975 58.18243 174.40254 58.165724 174.4076 L 47.197637 177.7372 C 47.05974 177.77907 46.922414 177.8228 46.7857 177.86836 L 33.864464 182.17544 C 33.815343 182.19181 33.766142 182.20795 33.716864 182.22384 L 22.349458 185.89075 C 21.710972 186.09671 21.086073 186.34263 20.47846 186.62704 L 12.546495 190.33988 C 12.176155 190.51323 11.812597 190.70071 11.45662 190.90192 L 5.510506 194.26276 C 4.2574724 194.971 3.815827 196.56093 4.5240634 197.81396 C 4.601181 197.9504 4.6904484 198.0796 4.790781 198.2 L 5.654892 199.23693 C 6.4098374 200.14287 7.062314 201.1295 7.600431 202.17882 L 10.677569 208.17924 C 10.753039 208.3264 10.830787 208.4724 10.910784 208.61715 L 14.865536 215.77337 C 14.949027 215.92445 15.030068 216.07687 15.108627 216.23057 L 19.216931 224.26856 C 19.466 224.75587 19.689904 225.25563 19.887757 225.7659 L 23.370526 234.74776 C 23.38403 234.7826 23.397655 234.81737 23.411402 234.8521 L 27.007724 243.93754 C 27.129733 244.24577 27.242133 244.55772 27.34476 244.87294 L 29.966596 252.92572 C 29.98272 252.97524 29.9986 253.02484 30.01424 253.07452 L 33.08629 262.8328 C 33.28908 263.47695 33.450886 264.1333 33.570733 264.7979 L 35.556045 275.80737 C 35.5792 275.9358 35.600787 276.06448 35.620795 276.19342 L 37.326665 287.1868 C 37.3694 287.46222 37.404935 287.7387 37.43323 288.016 L 38.32065 296.7127 C 38.36738 297.1707 38.394327 297.63048 38.40141 298.0908 L 38.58565 310.0664 C 38.58907 310.2888 38.597127 310.51105 38.609815 310.7331 L 39.38019 324.21465 C 39.38725 324.3382 39.395745 324.4617 39.40567 324.58506 L 40.73924 341.15943 C 40.77359 341.5863 40.79078 342.0144 40.79078 342.44264 L 40.79078 354.89242 C 40.79078 355.09746 40.794723 355.30247 40.802603 355.50735 L 41.382954 370.5965 C 41.38817 370.73216 41.391663 370.8679 41.393426 371.00365 L 41.585585 385.7999 C 41.58905 386.0666 41.585843 386.33333 41.57597 386.59986 L 41.001744 402.104 C 40.994436 402.3013 40.99078 402.49875 40.99078 402.6962 L 40.99078 416.29243 C 40.99078 416.49746 40.98684 416.70247 40.97896 416.90736 L 40.39377 432.12236 C 40.391777 432.1741 40.389535 432.2259 40.38704 432.2776 L 39.59172 448.78055 C 39.591094 448.7935 39.590453 448.8065 39.589797 448.81945 L 38.795307 464.5106 C 38.79229 464.5702 38.78894 464.6298 38.785256 464.68933 L 37.596345 483.91007 C 37.592636 483.97 37.58859 484.02996 37.584206 484.0899 L 35.80107 508.4594 C 35.79421 508.55314 35.786527 508.6468 35.77802 508.7404 L 33.992128 528.3852 C 33.99123 528.3951 33.990324 528.40494 33.989408 528.4148 L 32.218643 547.4997 C 32.20007 547.6999 32.177726 547.8997 32.151623 548.099 L 30.19091 563.07175 C 30.0581 564.08594 29.788958 565.07756 29.39078 566.0197 L 29.39078 566.0197 C 28.993206 566.9605 28.744538 567.9574 28.653714 568.97465 L 27.89078 577.5197 C 27.383025 583.20676 31.34149 588.3251 36.973455 589.2638 Z" stroke="#7f8080" stroke-linecap="round" stroke-linejoin="round" stroke-width="1"/>
      <path d="M -52 303.44615 L -45.8 307.84615 L -37.6 311.84615 L -29 315.44615 L -20 319.24615 L -8.999999 323.24615 L .4000008 326.04615 L 9.400001 328.64615 L 18.4 331.24615 L 23.8 332.64615 L 29.4 333.64615 L 31.8 327.84615 L 34.4 322.44615 L 36.6 318.44615 L 39.2 315.04615 L 39.4 306.04615 L 38.8 295.04615 L 37 284.24615 L 35.4 273.84615 L 32.8 262.84614 L 30.4 253.24614 L 27.6 245.24614 L 24.4 235.84614 L 21.6 228.44614 L 18 220.84614 L 14.000001 213.24614 L 10.000001 205.84614 L 7.400001 202.24614 L 3.800001 196.44614 L -1.5999992 200.84614 L -6.399999 205.64614 L -11 211.84614 L -15.4 218.04614 L -20.2 226.64614 L -25 236.04614 L -29.8 245.24614 L -33.4 253.84614 L -37.4 262.84614 L -40.6 271.04615 L -44.4 280.44615 L -47.2 288.44615 L -50.2 296.84615 Z" fill="#000060"/>
      <path d="M -52 303.44615 L -45.8 307.84615 L -37.6 311.84615 L -29 315.44615 L -20 319.24615 L -8.999999 323.24615 L .4000008 326.04615 L 9.400001 328.64615 L 18.4 331.24615 L 23.8 332.64615 L 29.4 333.64615 L 31.8 327.84615 L 34.4 322.44615 L 36.6 318.44615 L 39.2 315.04615 L 39.4 306.04615 L 38.8 295.04615 L 37 284.24615 L 35.4 273.84615 L 32.8 262.84614 L 30.4 253.24614 L 27.6 245.24614 L 24.4 235.84614 L 21.6 228.44614 L 18 220.84614 L 14.000001 213.24614 L 10.000001 205.84614 L 7.400001 202.24614 L 3.800001 196.44614 L -1.5999992 200.84614 L -6.399999 205.64614 L -11 211.84614 L -15.4 218.04614 L -20.2 226.64614 L -25 236.04614 L -29.8 245.24614 L -33.4 253.84614 L -37.4 262.84614 L -40.6 271.04615 L -44.4 280.44615 L -47.2 288.44615 L -50.2 296.84615 Z" stroke="#7f8080" stroke-linecap="round" stroke-linejoin="round" stroke-width="1"/>
      <path d="M 379.4053 302.50275 L 373.2053 306.90275 L 365.0053 310.90275 L 356.4053 314.50275 L 347.4053 318.30275 L 336.4053 322.30275 L 327.0053 325.10275 L 318.0053 327.70275 L 309.0053 330.30275 L 303.6053 331.70275 L 298.0053 332.70275 L 295.6053 326.90275 L 293.0053 321.50275 L 290.8053 317.50275 L 288.2053 314.10275 L 288.0053 305.10275 L 288.6053 294.10275 L 290.4053 283.30275 L 292.0053 272.90275 L 294.6053 261.90275 L 297.0053 252.30275 L 299.8053 244.30275 L 303.0053 234.90275 L 305.8053 227.50275 L 309.4053 219.90275 L 313.4053 212.30275 L 317.4053 204.90275 L 320.0053 201.30275 L 323.6053 195.50275 L 329.0053 199.90275 L 333.8053 204.70275 L 338.4053 210.90275 L 342.8053 217.10275 L 347.6053 225.70275 L 352.4053 235.10275 L 357.2053 244.30275 L 360.8053 252.90275 L 364.8053 261.90275 L 368.0053 270.10275 L 371.8053 279.50275 L 374.6053 287.50275 L 377.6053 295.90275 Z" fill="#000081"/>
      <path d="M 379.4053 302.50275 L 373.2053 306.90275 L 365.0053 310.90275 L 356.4053 314.50275 L 347.4053 318.30275 L 336.4053 322.30275 L 327.0053 325.10275 L 318.0053 327.70275 L 309.0053 330.30275 L 303.6053 331.70275 L 298.0053 332.70275 L 295.6053 326.90275 L 293.0053 321.50275 L 290.8053 317.50275 L 288.2053 314.10275 L 288.0053 305.10275 L 288.6053 294.10275 L 290.4053 283.30275 L 292.0053 272.90275 L 294.6053 261.90275 L 297.0053 252.30275 L 299.8053 244.30275 L 303.0053 234.90275 L 305.8053 227.50275 L 309.4053 219.90275 L 313.4053 212.30275 L 317.4053 204.90275 L 320.0053 201.30275 L 323.6053 195.50275 L 329.0053 199.90275 L 333.8053 204.70275 L 338.4053 210.90275 L 342.8053 217.10275 L 347.6053 225.70275 L 352.4053 235.10275 L 357.2053 244.30275 L 360.8053 252.90275 L 364.8053 261.90275 L 368.0053 270.10275 L 371.8053 279.50275 L 374.6053 287.50275 L 377.6053 295.90275 Z" stroke="#7f8080" stroke-linecap="round" stroke-linejoin="round" stroke-width="1"/>
      <path d="M -52 303.44615 L -45.8 307.84615 L -37.6 311.84615 L -29 315.44615 L -20 319.24615 L -8.999999 323.24615 L .4000008 326.04615 L 9.400001 328.64615 L 18.4 331.24615 L 23.8 332.64615 L 29.4 333.64615 L 32.4 327.24615 L 28.6 326.44615 L 23.8 325.24615 L 18.2 324.04615 L 12.200001 322.24615 L 7.600001 320.84615 L 3.400001 319.64615 L -1.1999992 317.64615 L -5.799999 316.04615 L -10.6 314.04615 L -14.6 312.64615 L -19.8 310.44615 L -24.4 308.84615 L -29.2 306.64615 L -34 304.84615 L -38 302.84615 L -42.4 300.64615 L -46.8 298.44615 L -50.2 296.84615 Z" fill="#00005c"/>
      <path d="M -52 303.44615 L -45.8 307.84615 L -37.6 311.84615 L -29 315.44615 L -20 319.24615 L -8.999999 323.24615 L .4000008 326.04615 L 9.400001 328.64615 L 18.4 331.24615 L 23.8 332.64615 L 29.4 333.64615 L 32.4 327.24615 L 28.6 326.44615 L 23.8 325.24615 L 18.2 324.04615 L 12.200001 322.24615 L 7.600001 320.84615 L 3.400001 319.64615 L -1.1999992 317.64615 L -5.799999 316.04615 L -10.6 314.04615 L -14.6 312.64615 L -19.8 310.44615 L -24.4 308.84615 L -29.2 306.64615 L -34 304.84615 L -38 302.84615 L -42.4 300.64615 L -46.8 298.44615 L -50.2 296.84615 Z" stroke="#7f8080" stroke-linecap="round" stroke-linejoin="round" stroke-width="1"/>
      <path d="M 379.4053 302.50275 L 373.2053 306.90275 L 365.0053 310.90275 L 356.4053 314.50275 L 347.4053 318.30275 L 336.4053 322.30275 L 327.0053 325.10275 L 318.0053 327.70275 L 309.0053 330.30275 L 303.6053 331.70275 L 298.0053 332.70275 L 295.0053 326.30275 L 298.8053 325.50275 L 303.6053 324.30275 L 309.2053 323.10275 L 315.2053 321.30275 L 319.8053 319.90275 L 324.0053 318.70275 L 328.6053 316.70275 L 333.2053 315.10275 L 338.0053 313.10275 L 342.0053 311.70275 L 347.2053 309.50275 L 351.8053 307.90275 L 356.6053 305.70275 L 361.4053 303.90275 L 365.4053 301.90275 L 369.8053 299.70275 L 374.2053 297.50275 L 377.6053 295.90275 Z" fill="#000085"/>
      <path d="M 379.4053 302.50275 L 373.2053 306.90275 L 365.0053 310.90275 L 356.4053 314.50275 L 347.4053 318.30275 L 336.4053 322.30275 L 327.0053 325.10275 L 318.0053 327.70275 L 309.0053 330.30275 L 303.6053 331.70275 L 298.0053 332.70275 L 295.0053 326.30275 L 298.8053 325.50275 L 303.6053 324.30275 L 309.2053 323.10275 L 315.2053 321.30275 L 319.8053 319.90275 L 324.0053 318.70275 L 328.6053 316.70275 L 333.2053 315.10275 L 338.0053 313.10275 L 342.0053 311.70275 L 347.2053 309.50275 L 351.8053 307.90275 L 356.6053 305.70275 L 361.4053 303.90275 L 365.4053 301.90275 L 369.8053 299.70275 L 374.2053 297.50275 L 377.6053 295.90275 Z" stroke="#7f8080" stroke-linecap="round" stroke-linejoin="round" stroke-width="1"/>
      <path d="M 98.57212 153.96379 L 93.84295 158.01736 C 92.6926 159.00338 91.44764 159.8733 90.12621 160.61448 L 87.59958 162.03165 C 86.16441 162.83662 85.5836 164.60575 86.26239 166.10473 L 87.28001 168.35197 C 87.40158 168.62046 87.52831 168.88658 87.66012 169.1502 L 89.46239 172.75474 L 91.94938 177.7287 C 92.29117 178.4123 92.66683 179.07843 93.07495 179.72463 L 95.40134 183.40808 C 95.84172 184.10535 96.31928 184.77842 96.83195 185.42439 L 100.24264 189.72185 C 100.78869 190.40987 101.37371 191.06606 101.99482 191.68717 L 106.66087 196.3532 C 107.06175 196.7541 107.47731 197.14 107.90671 197.51018 L 112.47023 201.44426 C 112.86489 201.78448 113.271 202.1112 113.68785 202.42383 L 117.66279 205.40503 C 118.3287 205.90447 119.02123 206.36738 119.73733 206.79174 L 123.8704 209.24096 C 123.99839 209.3168 124.12712 209.39141 124.25656 209.46477 L 128.9541 212.1267 C 129.6924 212.54507 130.45328 212.92226 131.23325 213.25653 L 134.78307 214.77788 C 135.36903 215.029 135.96518 215.25567 136.56997 215.45726 L 141.58808 217.12997 C 142.83532 217.54571 144.11592 217.85376 145.4158 218.0507 L 149.51464 218.67174 C 149.87976 218.72706 150.24615 218.77358 150.6135 218.81126 L 157.4946 219.51701 C 157.73978 219.54216 157.98534 219.56336 158.2312 219.58062 L 162.75835 219.8983 C 163.2942 219.93591 163.83122 219.95473 164.3684 219.95473 L 167.63046 219.95474 C 168.58416 219.95474 169.53693 219.89542 170.48327 219.77713 L 174.47198 219.27854 C 175.13195 219.19604 175.78802 219.08496 176.43835 218.9456 L 182.52039 217.6423 C 183.41426 217.45076 184.29592 217.2061 185.16068 216.9096 L 189.66952 215.36372 C 190.46417 215.09127 191.2433 214.77549 192.0034 214.4178 L 196.83677 212.14326 C 197.38697 211.88435 197.92668 211.60371 198.45464 211.30202 L 202.2225 209.14896 C 202.9153 208.75308 203.58701 208.32142 204.23494 207.85572 L 208.91106 204.49475 C 209.41175 204.13489 209.89776 203.75503 210.36792 203.3561 L 215.68877 198.84144 C 216.07108 198.51706 216.44269 198.18026 216.80298 197.83158 L 221.5022 193.28396 C 222.1418 192.665 222.7449 192.00944 223.30852 191.32058 L 227.1018 186.68434 C 227.60852 186.06503 228.08257 185.4197 228.52201 184.75096 L 232.1392 179.24656 C 232.35462 178.91873 232.56163 178.58544 232.76002 178.24702 L 235.2831 173.94292 C 235.66906 173.28454 236.022 172.60735 236.34062 171.91388 L 238.45932 167.30261 C 238.99218 166.14285 239.36334 164.91544 239.5624 163.65474 L 239.5624 163.65474 C 239.7407 162.52547 239.1614 161.41203 238.13432 160.9099 L 232.84088 158.322 C 231.52642 157.67937 230.29183 156.88486 229.1624 155.95474 L 228.75638 155.62037 C 227.91205 154.92504 227.28864 153.99874 226.9624 152.95474 L 226.9624 152.95474 C 226.91573 152.80542 226.75686 152.7222 226.60754 152.76886 C 226.49247 152.80482 226.41277 152.90969 226.40892 153.03019 L 226.29968 156.45311 C 226.20894 159.29619 225.5916 162.09776 224.479 164.71567 L 223.60206 166.77904 C 223.0435 168.09331 222.36374 169.3527 221.5716 170.54091 L 217.88582 176.06958 C 217.13831 177.19085 216.2937 178.24425 215.36175 179.21762 L 209.06668 185.79247 C 208.1986 186.69913 207.25777 187.5332 206.2536 188.28633 L 197.8787 194.5675 C 197.00228 195.22482 196.08002 195.81867 195.11896 196.34454 L 187.93376 200.27606 C 186.62263 200.99347 185.2447 201.58137 183.81952 202.03143 L 177.1466 204.13867 C 175.42973 204.68084 173.65514 205.01954 171.85927 205.14781 L 164.97281 205.6397 C 163.90052 205.7163 162.82417 205.71762 161.75168 205.64365 L 153.31543 205.06184 C 152.28125 204.99052 151.25308 204.84936 150.23795 204.63933 L 143.10274 203.16308 C 141.15079 202.75923 139.25961 202.10335 137.47676 201.21192 L 132.81735 198.88221 C 131.58321 198.26515 130.4071 197.53827 129.30326 196.7104 L 123.6213 192.44892 C 123.18217 192.11957 122.75496 191.7746 122.34051 191.41468 L 116.58533 186.41676 C 115.77104 185.70962 115.0075 184.94608 114.30036 184.1318 L 109.89513 179.0591 C 109.14103 178.19075 108.45312 177.26705 107.8372 176.29578 L 104.1035 170.40802 C 103.74293 169.83944 103.4075 169.2553 103.09819 168.65728 L 101.47781 165.52456 C 100.86867 164.34688 100.3625 163.11874 99.96497 161.85385 L 98.68473 157.78036 C 98.46995 157.09698 98.28722 156.40395 98.13713 155.70351 L 97.91171 154.65157 C 97.82664 154.25456 98.05299 153.8569 98.4378 153.72737 L 98.4378 153.72737 C 98.51029 153.70296 98.58884 153.74195 98.61325 153.81444 C 98.63126 153.86795 98.61499 153.92704 98.57212 153.96379 Z" fill="#000087"/>
      <path d="M 98.57212 153.96379 L 93.84295 158.01736 C 92.6926 159.00338 91.44764 159.8733 90.12621 160.61448 L 87.59958 162.03165 C 86.16441 162.83662 85.5836 164.60575 86.26239 166.10473 L 87.28001 168.35197 C 87.40158 168.62046 87.52831 168.88658 87.66012 169.1502 L 89.46239 172.75474 L 91.94938 177.7287 C 92.29117 178.4123 92.66683 179.07843 93.07495 179.72463 L 95.40134 183.40808 C 95.84172 184.10535 96.31928 184.77842 96.83195 185.42439 L 100.24264 189.72185 C 100.78869 190.40987 101.37371 191.06606 101.99482 191.68717 L 106.66087 196.3532 C 107.06175 196.7541 107.47731 197.14 107.90671 197.51018 L 112.47023 201.44426 C 112.86489 201.78448 113.271 202.1112 113.68785 202.42383 L 117.66279 205.40503 C 118.3287 205.90447 119.02123 206.36738 119.73733 206.79174 L 123.8704 209.24096 C 123.99839 209.3168 124.12712 209.39141 124.25656 209.46477 L 128.9541 212.1267 C 129.6924 212.54507 130.45328 212.92226 131.23325 213.25653 L 134.78307 214.77788 C 135.36903 215.029 135.96518 215.25567 136.56997 215.45726 L 141.58808 217.12997 C 142.83532 217.54571 144.11592 217.85376 145.4158 218.0507 L 149.51464 218.67174 C 149.87976 218.72706 150.24615 218.77358 150.6135 218.81126 L 157.4946 219.51701 C 157.73978 219.54216 157.98534 219.56336 158.2312 219.58062 L 162.75835 219.8983 C 163.2942 219.93591 163.83122 219.95473 164.3684 219.95473 L 167.63046 219.95474 C 168.58416 219.95474 169.53693 219.89542 170.48327 219.77713 L 174.47198 219.27854 C 175.13195 219.19604 175.78802 219.08496 176.43835 218.9456 L 182.52039 217.6423 C 183.41426 217.45076 184.29592 217.2061 185.16068 216.9096 L 189.66952 215.36372 C 190.46417 215.09127 191.2433 214.77549 192.0034 214.4178 L 196.83677 212.14326 C 197.38697 211.88435 197.92668 211.60371 198.45464 211.30202 L 202.2225 209.14896 C 202.9153 208.75308 203.58701 208.32142 204.23494 207.85572 L 208.91106 204.49475 C 209.41175 204.13489 209.89776 203.75503 210.36792 203.3561 L 215.68877 198.84144 C 216.07108 198.51706 216.44269 198.18026 216.80298 197.83158 L 221.5022 193.28396 C 222.1418 192.665 222.7449 192.00944 223.30852 191.32058 L 227.1018 186.68434 C 227.60852 186.06503 228.08257 185.4197 228.52201 184.75096 L 232.1392 179.24656 C 232.35462 178.91873 232.56163 178.58544 232.76002 178.24702 L 235.2831 173.94292 C 235.66906 173.28454 236.022 172.60735 236.34062 171.91388 L 238.45932 167.30261 C 238.99218 166.14285 239.36334 164.91544 239.5624 163.65474 L 239.5624 163.65474 C 239.7407 162.52547 239.1614 161.41203 238.13432 160.9099 L 232.84088 158.322 C 231.52642 157.67937 230.29183 156.88486 229.1624 155.95474 L 228.75638 155.62037 C 227.91205 154.92504 227.28864 153.99874 226.9624 152.95474 L 226.9624 152.95474 C 226.91573 152.80542 226.75686 152.7222 226.60754 152.76886 C 226.49247 152.80482 226.41277 152.90969 226.40892 153.03019 L 226.29968 156.45311 C 226.20894 159.29619 225.5916 162.09776 224.479 164.71567 L 223.60206 166.77904 C 223.0435 168.09331 222.36374 169.3527 221.5716 170.54091 L 217.88582 176.06958 C 217.13831 177.19085 216.2937 178.24425 215.36175 179.21762 L 209.06668 185.79247 C 208.1986 186.69913 207.25777 187.5332 206.2536 188.28633 L 197.8787 194.5675 C 197.00228 195.22482 196.08002 195.81867 195.11896 196.34454 L 187.93376 200.27606 C 186.62263 200.99347 185.2447 201.58137 183.81952 202.03143 L 177.1466 204.13867 C 175.42973 204.68084 173.65514 205.01954 171.85927 205.14781 L 164.97281 205.6397 C 163.90052 205.7163 162.82417 205.71762 161.75168 205.64365 L 153.31543 205.06184 C 152.28125 204.99052 151.25308 204.84936 150.23795 204.63933 L 143.10274 203.16308 C 141.15079 202.75923 139.25961 202.10335 137.47676 201.21192 L 132.81735 198.88221 C 131.58321 198.26515 130.4071 197.53827 129.30326 196.7104 L 123.6213 192.44892 C 123.18217 192.11957 122.75496 191.7746 122.34051 191.41468 L 116.58533 186.41676 C 115.77104 185.70962 115.0075 184.94608 114.30036 184.1318 L 109.89513 179.0591 C 109.14103 178.19075 108.45312 177.26705 107.8372 176.29578 L 104.1035 170.40802 C 103.74293 169.83944 103.4075 169.2553 103.09819 168.65728 L 101.47781 165.52456 C 100.86867 164.34688 100.3625 163.11874 99.96497 161.85385 L 98.68473 157.78036 C 98.46995 157.09698 98.28722 156.40395 98.13713 155.70351 L 97.91171 154.65157 C 97.82664 154.25456 98.05299 153.8569 98.4378 153.72737 L 98.4378 153.72737 C 98.51029 153.70296 98.58884 153.74195 98.61325 153.81444 C 98.63126 153.86795 98.61499 153.92704 98.57212 153.96379 Z" stroke="#7f8080" stroke-linecap="round" stroke-linejoin="round" stroke-width="1"/>
      <path d="M 98.05925 153.7559 L 103.45925 153.1559 L 110.25925 156.5559 L 115.25925 158.3559 L 123.65925 160.1559 L 132.05925 161.1559 L 140.05925 162.1559 L 147.65925 162.3559 L 156.25925 162.7559 L 167.85925 162.5559 L 176.25925 162.1559 L 185.65925 161.5559 L 194.05925 160.7559 L 203.25925 159.3559 L 211.45925 157.1559 L 217.25925 155.3559 L 222.85925 152.7559 L 225.65925 153.9559 L 226.05925 159.5559 L 223.25925 167.5559 L 217.85925 170.3559 L 207.25925 173.5559 L 195.85925 175.9559 L 184.65925 176.7559 L 172.25925 177.7559 L 161.85925 177.7559 L 152.45925 177.7559 L 140.85925 177.1559 L 129.65925 176.3559 L 119.05925 174.1559 L 110.45925 172.1559 L 104.25925 169.3559 L 102.25925 167.7559 L 99.05925 160.1559 Z" fill="#000067"/>
      <path d="M 98.05925 153.7559 L 103.45925 153.1559 L 110.25925 156.5559 L 115.25925 158.3559 L 123.65925 160.1559 L 132.05925 161.1559 L 140.05925 162.1559 L 147.65925 162.3559 L 156.25925 162.7559 L 167.85925 162.5559 L 176.25925 162.1559 L 185.65925 161.5559 L 194.05925 160.7559 L 203.25925 159.3559 L 211.45925 157.1559 L 217.25925 155.3559 L 222.85925 152.7559 L 225.65925 153.9559 L 226.05925 159.5559 L 223.25925 167.5559 L 217.85925 170.3559 L 207.25925 173.5559 L 195.85925 175.9559 L 184.65925 176.7559 L 172.25925 177.7559 L 161.85925 177.7559 L 152.45925 177.7559 L 140.85925 177.1559 L 129.65925 176.3559 L 119.05925 174.1559 L 110.45925 172.1559 L 104.25925 169.3559 L 102.25925 167.7559 L 99.05925 160.1559 Z" stroke="#7f8080" stroke-linecap="round" stroke-linejoin="round" stroke-width="1"/>
      <path d="M 27.813213 579.2 L 27.813213 579.2 C 27.74753 579.7255 27.810355 580.25905 27.996298 580.7549 L 28.647306 582.4909 C 28.824062 582.9623 29.051147 583.4132 29.32462 583.8358 L 30.292434 585.3315 C 30.83339 586.16756 31.546494 586.87855 32.38412 587.417 L 33.46217 588.11005 C 33.762426 588.3031 34.077006 588.47285 34.403157 588.6179 L 35.72001 589.2035 C 36.31654 589.46876 36.947246 589.6493 37.593793 589.7398 L 46.604213 591.00126 C 46.614207 591.00265 46.624203 591.004 46.6342 591.0054 L 58.3502 592.594 C 58.3962 592.6002 58.44226 592.606 58.48838 592.61134 L 68.771315 593.7978 C 68.80324 593.8015 68.83519 593.805 68.867165 593.8082 L 82.57723 595.1991 C 82.60521 595.2019 82.63321 595.2046 82.66123 595.2071 L 93.76653 596.19865 C 93.80164 596.2018 93.83679 596.20466 93.87195 596.20726 L 104.55848 596.99886 C 104.59896 597.00185 104.63947 597.0045 104.67999 597.0068 L 115.18798 597.6016 C 115.2088 597.6028 115.22961 597.60404 115.25042 597.6054 L 127.2932 598.3951 C 127.3772 598.4006 127.46129 598.4046 127.54543 598.4071 L 140.99256 598.8026 C 141.01032 598.8031 141.02809 598.8037 141.04585 598.80434 L 151.6897 599.19856 C 151.77603 599.20176 151.8624 599.20335 151.94879 599.20335 L 162.5578 599.20335 C 162.59874 599.20335 162.63967 599.2037 162.6806 599.2044 L 173.76702 599.3989 C 173.93509 599.4019 174.10321 599.3988 174.27106 599.3896 L 184.8923 598.8103 C 184.9769 598.80566 185.06157 598.8026 185.1463 598.80104 L 195.91085 598.6053 C 195.98308 598.604 196.0553 598.6016 196.12745 598.598 L 208.14607 598.00695 C 208.19483 598.00455 208.24355 598.00165 208.29225 597.9982 L 219.5323 597.20945 C 219.59023 597.2054 219.64812 597.2006 219.70594 597.1951 L 232.1165 596.0131 C 232.18497 596.0066 232.25352 596.0011 232.32214 595.9966 L 244.25416 595.2142 C 244.36418 595.20696 244.474 595.19715 244.58355 595.18475 L 254.9959 594.006 C 255.01144 594.0042 255.02697 594.0024 255.0425 594.00056 L 264.9902 592.8068 C 265.00954 592.8045 265.02886 592.8021 265.04818 592.7996 L 278.88394 591.0221 C 278.98115 591.0096 279.0781 590.9951 279.1747 590.9785 L 285.7282 589.85506 C 285.92915 589.8206 286.13153 589.79495 286.33473 589.7782 L 289.56706 589.5112 C 290.4563 589.43775 291.3233 589.195 292.12135 588.79594 L 293.60765 588.0528 C 294.20824 587.7525 294.7625 587.36735 295.25338 586.9092 L 296.5885 585.6631 C 297.1953 585.0967 297.65073 584.3875 297.9132 583.6 L 298.20805 582.7155 C 298.27812 582.5053 298.33817 582.2919 298.388 582.07595 L 298.8577 580.04056 C 298.89293 579.8879 298.8595 579.7275 298.7662 579.6017 L 298.7662 579.6017 C 298.67587 579.4798 298.52523 579.4183 298.3754 579.44214 L 289.89555 580.7912 C 289.84466 580.7993 289.79385 580.80796 289.74315 580.8172 L 276.7584 583.17805 C 276.6656 583.1949 276.5725 583.2099 276.4791 583.223 L 265.24943 584.7991 C 265.22928 584.80194 265.20914 584.80486 265.18902 584.80786 L 252.0199 586.7734 C 251.88613 586.7934 251.75182 586.80945 251.61712 586.8216 L 241.10874 587.7721 C 240.90302 587.7907 240.69657 587.8002 240.49 587.8005 L 239.05605 587.80295 C 238.8982 587.8032 238.7404 587.8088 238.58293 587.81976 L 224.45308 588.801 C 224.4305 588.8026 224.4079 588.804 224.3853 588.8054 L 211.08205 589.5996 C 211.04016 589.6021 210.99824 589.6042 210.9563 589.606 L 196.76485 590.1973 C 196.66776 590.2013 196.5706 590.20335 196.47344 590.20335 L 183.2192 590.20335 L 170.67753 590.20335 C 170.63865 590.20335 170.59976 590.2037 170.56088 590.2043 L 158.8025 590.4003 C 158.68032 590.40234 158.55812 590.4012 158.436 590.3968 L 147.6024 590.0099 C 147.4803 590.00554 147.35809 590.0044 147.23591 590.0064 L 135.52127 590.20165 C 135.45323 590.2028 135.38518 590.2029 135.31713 590.2021 L 119.61484 590.0058 C 119.48444 590.0042 119.35411 589.9989 119.224 589.99 L 104.91423 589.00986 C 104.85088 589.0055 104.7876 589.0003 104.72439 588.99426 L 90.23339 587.6047 C 90.22393 587.6038 90.21448 587.6029 90.20503 587.60194 L 76.39299 586.2207 C 76.27715 586.20915 76.16162 586.1947 76.0465 586.1773 L 61.73735 584.02116 C 61.65859 584.0093 61.57964 583.9988 61.50052 583.9896 L 47.98059 582.42207 C 47.873013 582.4096 47.76574 582.3946 47.65886 582.3772 L 38.26677 580.8438 C 38.10178 580.81684 37.937805 580.784 37.775164 580.7453 L 28.697565 578.58654 C 28.309246 578.4942 27.91959 578.7341 27.82724 579.12244 C 27.821158 579.148 27.816475 579.1739 27.813213 579.2 Z" fill="red"/>
      <path d="M 27.813213 579.2 L 27.813213 579.2 C 27.74753 579.7255 27.810355 580.25905 27.996298 580.7549 L 28.647306 582.4909 C 28.824062 582.9623 29.051147 583.4132 29.32462 583.8358 L 30.292434 585.3315 C 30.83339 586.16756 31.546494 586.87855 32.38412 587.417 L 33.46217 588.11005 C 33.762426 588.3031 34.077006 588.47285 34.403157 588.6179 L 35.72001 589.2035 C 36.31654 589.46876 36.947246 589.6493 37.593793 589.7398 L 46.604213 591.00126 C 46.614207 591.00265 46.624203 591.004 46.6342 591.0054 L 58.3502 592.594 C 58.3962 592.6002 58.44226 592.606 58.48838 592.61134 L 68.771315 593.7978 C 68.80324 593.8015 68.83519 593.805 68.867165 593.8082 L 82.57723 595.1991 C 82.60521 595.2019 82.63321 595.2046 82.66123 595.2071 L 93.76653 596.19865 C 93.80164 596.2018 93.83679 596.20466 93.87195 596.20726 L 104.55848 596.99886 C 104.59896 597.00185 104.63947 597.0045 104.67999 597.0068 L 115.18798 597.6016 C 115.2088 597.6028 115.22961 597.60404 115.25042 597.6054 L 127.2932 598.3951 C 127.3772 598.4006 127.46129 598.4046 127.54543 598.4071 L 140.99256 598.8026 C 141.01032 598.8031 141.02809 598.8037 141.04585 598.80434 L 151.6897 599.19856 C 151.77603 599.20176 151.8624 599.20335 151.94879 599.20335 L 162.5578 599.20335 C 162.59874 599.20335 162.63967 599.2037 162.6806 599.2044 L 173.76702 599.3989 C 173.93509 599.4019 174.10321 599.3988 174.27106 599.3896 L 184.8923 598.8103 C 184.9769 598.80566 185.06157 598.8026 185.1463 598.80104 L 195.91085 598.6053 C 195.98308 598.604 196.0553 598.6016 196.12745 598.598 L 208.14607 598.00695 C 208.19483 598.00455 208.24355 598.00165 208.29225 597.9982 L 219.5323 597.20945 C 219.59023 597.2054 219.64812 597.2006 219.70594 597.1951 L 232.1165 596.0131 C 232.18497 596.0066 232.25352 596.0011 232.32214 595.9966 L 244.25416 595.2142 C 244.36418 595.20696 244.474 595.19715 244.58355 595.18475 L 254.9959 594.006 C 255.01144 594.0042 255.02697 594.0024 255.0425 594.00056 L 264.9902 592.8068 C 265.00954 592.8045 265.02886 592.8021 265.04818 592.7996 L 278.88394 591.0221 C 278.98115 591.0096 279.0781 590.9951 279.1747 590.9785 L 285.7282 589.85506 C 285.92915 589.8206 286.13153 589.79495 286.33473 589.7782 L 289.56706 589.5112 C 290.4563 589.43775 291.3233 589.195 292.12135 588.79594 L 293.60765 588.0528 C 294.20824 587.7525 294.7625 587.36735 295.25338 586.9092 L 296.5885 585.6631 C 297.1953 585.0967 297.65073 584.3875 297.9132 583.6 L 298.20805 582.7155 C 298.27812 582.5053 298.33817 582.2919 298.388 582.07595 L 298.8577 580.04056 C 298.89293 579.8879 298.8595 579.7275 298.7662 579.6017 L 298.7662 579.6017 C 298.67587 579.4798 298.52523 579.4183 298.3754 579.44214 L 289.89555 580.7912 C 289.84466 580.7993 289.79385 580.80796 289.74315 580.8172 L 276.7584 583.17805 C 276.6656 583.1949 276.5725 583.2099 276.4791 583.223 L 265.24943 584.7991 C 265.22928 584.80194 265.20914 584.80486 265.18902 584.80786 L 252.0199 586.7734 C 251.88613 586.7934 251.75182 586.80945 251.61712 586.8216 L 241.10874 587.7721 C 240.90302 587.7907 240.69657 587.8002 240.49 587.8005 L 239.05605 587.80295 C 238.8982 587.8032 238.7404 587.8088 238.58293 587.81976 L 224.45308 588.801 C 224.4305 588.8026 224.4079 588.804 224.3853 588.8054 L 211.08205 589.5996 C 211.04016 589.6021 210.99824 589.6042 210.9563 589.606 L 196.76485 590.1973 C 196.66776 590.2013 196.5706 590.20335 196.47344 590.20335 L 183.2192 590.20335 L 170.67753 590.20335 C 170.63865 590.20335 170.59976 590.2037 170.56088 590.2043 L 158.8025 590.4003 C 158.68032 590.40234 158.55812 590.4012 158.436 590.3968 L 147.6024 590.0099 C 147.4803 590.00554 147.35809 590.0044 147.23591 590.0064 L 135.52127 590.20165 C 135.45323 590.2028 135.38518 590.2029 135.31713 590.2021 L 119.61484 590.0058 C 119.48444 590.0042 119.35411 589.9989 119.224 589.99 L 104.91423 589.00986 C 104.85088 589.0055 104.7876 589.0003 104.72439 588.99426 L 90.23339 587.6047 C 90.22393 587.6038 90.21448 587.6029 90.20503 587.60194 L 76.39299 586.2207 C 76.27715 586.20915 76.16162 586.1947 76.0465 586.1773 L 61.73735 584.02116 C 61.65859 584.0093 61.57964 583.9988 61.50052 583.9896 L 47.98059 582.42207 C 47.873013 582.4096 47.76574 582.3946 47.65886 582.3772 L 38.26677 580.8438 C 38.10178 580.81684 37.937805 580.784 37.775164 580.7453 L 28.697565 578.58654 C 28.309246 578.4942 27.91959 578.7341 27.82724 579.12244 C 27.821158 579.148 27.816475 579.1739 27.813213 579.2 Z" stroke="#7f8080" stroke-linecap="round" stroke-linejoin="round" stroke-width="1"/>
    </g>
  </g>
</svg>
