<?xml version="1.0" encoding="UTF-8" standalone="no"?>
<!DOCTYPE svg PUBLIC "-//W3C//DTD SVG 1.1//EN" "http://www.w3.org/Graphics/SVG/1.1/DTD/svg11.dtd">
<svg xmlns="http://www.w3.org/2000/svg" xmlns:xl="http://www.w3.org/1999/xlink" version="1.1" viewBox="16.5 23.255892 432.4053 448.6441" width="432.4053pt" height="448.6441pt" xmlns:dc="http://purl.org/dc/elements/1.1/">
  <metadata> Produced by OmniGraffle 7.6.1 
    <dc:date>2019-06-07 16:57:23 +0000</dc:date>
  </metadata>
  <defs>
    <radialGradient cx="0" cy="0" r="1" id="Gradient" gradientUnits="userSpaceOnUse">
      <stop offset="0" stop-color="#c1c1c1"/>
      <stop offset="1" stop-color="#1e1c15"/>
    </radialGradient>
    <radialGradient id="Obj_Gradient" xl:href="#Gradient" gradientTransform="translate(261.44315 34.098713) scale(87.33024)"/>
    <linearGradient x1="0" x2="1" id="Gradient_2" gradientUnits="userSpaceOnUse">
      <stop offset="0" stop-color="#ff4040"/>
      <stop offset="1" stop-color="#941100"/>
    </linearGradient>
    <linearGradient id="Obj_Gradient_2" xl:href="#Gradient_2" gradientTransform="translate(231.78697 23.755892) rotate(90) scale(67.19884)"/>
    <linearGradient x1="0" x2="1" id="Gradient_3" gradientUnits="userSpaceOnUse">
      <stop offset="0" stop-color="#ff4040"/>
      <stop offset="1" stop-color="#333"/>
    </linearGradient>
    <linearGradient id="Obj_Gradient_3" xl:href="#Gradient_3" gradientTransform="translate(231.05925 23.755892) rotate(90) scale(25)"/>
  </defs>
  <g stroke="none" stroke-opacity="1" stroke-dasharray="none" fill="none" fill-opacity="1">
    <title>polonia</title>
    <g>
      <title>Layer 1</title>
      <path d="M 170.00565 24.590446 L 178.1711 27.708164 C 179.0291 28.03576 179.90594 28.311673 180.79692 28.53442 L 194.5141 31.963713 C 195.67576 32.254128 196.85832 32.453383 198.051 32.55966 L 215.57715 34.121397 C 216.165 34.17378 216.75464 34.203517 217.34478 34.210542 L 232.8237 34.394815 C 233.11404 34.39827 233.40442 34.39623 233.6947 34.38869 L 248.118 34.01406 C 248.47878 34.004688 248.8393 33.986826 249.19924 33.96049 L 263.57053 32.90893 C 264.56197 32.836387 265.54766 32.699642 266.5214 32.49956 L 278.09436 30.121552 C 279.13637 29.907442 280.16226 29.6213 281.16465 29.265186 L 292.91664 25.090136 C 294.007 24.702767 295.2102 25.233542 295.65925 26.3 L 295.65925 26.3 C 296.1814 27.540106 296.3334 28.904854 296.09685 30.22945 L 295.91637 31.240138 C 295.6126 32.941294 295.11806 34.602796 294.44214 36.19319 L 292.89892 39.82431 C 292.34035 41.13858 291.6606 42.397975 290.86846 43.58618 L 287.1827 49.11485 C 286.43517 50.236114 285.59057 51.289513 284.6586 52.26289 L 278.36354 58.83774 C 277.49547 59.74439 276.55463 60.57846 275.55046 61.33159 L 267.17555 67.61277 C 266.29914 68.270084 265.37688 68.86394 264.41582 69.3898 L 257.23062 73.32133 C 255.9195 74.038735 254.54156 74.62664 253.11638 75.0767 L 246.44347 77.18393 C 244.7266 77.7261 242.952 78.0648 241.15613 78.19308 L 234.26968 78.68497 C 233.19738 78.76156 232.12103 78.76288 231.04854 78.68892 L 222.6123 78.10711 C 221.5781 78.03578 220.54994 77.89463 219.5348 77.6846 L 212.3996 76.20835 C 210.44765 75.8045 208.55647 75.14861 206.77362 74.257185 L 202.1142 71.92748 C 200.88007 71.31041 199.70397 70.58354 198.60012 69.755655 L 192.91816 65.49419 C 192.47903 65.164835 192.05182 64.81987 191.63737 64.45995 L 185.88219 59.46203 C 185.0679 58.754885 184.30436 57.991345 183.59722 57.17706 L 179.192 52.104376 C 178.4379 51.236015 177.74998 50.312315 177.13406 49.34105 L 173.40036 43.45329 C 173.0398 42.884704 172.70437 42.30056 172.39505 41.70255 L 170.77468 38.569827 C 170.16553 37.39215 169.65936 36.164 169.26183 34.89911 L 167.98159 30.825623 C 167.76681 30.142248 167.58408 29.44921 167.43399 28.74878 L 167.35925 28.4 C 167.16458 27.491574 167.27185 26.54443 167.66473 25.702543 L 167.75925 25.5 C 168.15372 24.654693 169.1342 24.257707 170.00565 24.590446 Z" fill="url(#Obj_Gradient)"/>
      <path d="M 170.00565 24.590446 L 178.1711 27.708164 C 179.0291 28.03576 179.90594 28.311673 180.79692 28.53442 L 194.5141 31.963713 C 195.67576 32.254128 196.85832 32.453383 198.051 32.55966 L 215.57715 34.121397 C 216.165 34.17378 216.75464 34.203517 217.34478 34.210542 L 232.8237 34.394815 C 233.11404 34.39827 233.40442 34.39623 233.6947 34.38869 L 248.118 34.01406 C 248.47878 34.004688 248.8393 33.986826 249.19924 33.96049 L 263.57053 32.90893 C 264.56197 32.836387 265.54766 32.699642 266.5214 32.49956 L 278.09436 30.121552 C 279.13637 29.907442 280.16226 29.6213 281.16465 29.265186 L 292.91664 25.090136 C 294.007 24.702767 295.2102 25.233542 295.65925 26.3 L 295.65925 26.3 C 296.1814 27.540106 296.3334 28.904854 296.09685 30.22945 L 295.91637 31.240138 C 295.6126 32.941294 295.11806 34.602796 294.44214 36.19319 L 292.89892 39.82431 C 292.34035 41.13858 291.6606 42.397975 290.86846 43.58618 L 287.1827 49.11485 C 286.43517 50.236114 285.59057 51.289513 284.6586 52.26289 L 278.36354 58.83774 C 277.49547 59.74439 276.55463 60.57846 275.55046 61.33159 L 267.17555 67.61277 C 266.29914 68.270084 265.37688 68.86394 264.41582 69.3898 L 257.23062 73.32133 C 255.9195 74.038735 254.54156 74.62664 253.11638 75.0767 L 246.44347 77.18393 C 244.7266 77.7261 242.952 78.0648 241.15613 78.19308 L 234.26968 78.68497 C 233.19738 78.76156 232.12103 78.76288 231.04854 78.68892 L 222.6123 78.10711 C 221.5781 78.03578 220.54994 77.89463 219.5348 77.6846 L 212.3996 76.20835 C 210.44765 75.8045 208.55647 75.14861 206.77362 74.257185 L 202.1142 71.92748 C 200.88007 71.31041 199.70397 70.58354 198.60012 69.755655 L 192.91816 65.49419 C 192.47903 65.164835 192.05182 64.81987 191.63737 64.45995 L 185.88219 59.46203 C 185.0679 58.754885 184.30436 57.991345 183.59722 57.17706 L 179.192 52.104376 C 178.4379 51.236015 177.74998 50.312315 177.13406 49.34105 L 173.40036 43.45329 C 173.0398 42.884704 172.70437 42.30056 172.39505 41.70255 L 170.77468 38.569827 C 170.16553 37.39215 169.65936 36.164 169.26183 34.89911 L 167.98159 30.825623 C 167.76681 30.142248 167.58408 29.44921 167.43399 28.74878 L 167.35925 28.4 C 167.16458 27.491574 167.27185 26.54443 167.66473 25.702543 L 167.75925 25.5 C 168.15372 24.654693 169.1342 24.257707 170.00565 24.590446 Z" stroke="black" stroke-linecap="round" stroke-linejoin="round" stroke-width="1"/>
      <path d="M 105.97346 461.2638 L 119.7157 463.55416 C 119.89907 463.5847 120.08297 463.6121 120.2673 463.63624 L 148.62094 467.35154 C 148.86747 467.38385 149.11472 467.4104 149.36248 467.4312 L 179.60537 469.9677 C 179.86227 469.98923 180.11966 470.00456 180.3773 470.01367 L 219.30822 471.39 C 219.49658 471.3967 219.68504 471.4 219.87352 471.4 L 251.34084 471.4 C 251.50746 471.4 251.67407 471.3974 251.8406 471.3922 L 276.8754 470.60986 C 277.08563 470.6033 277.29573 470.5926 277.50555 470.5777 L 299.5533 469.0168 C 299.7116 469.0056 299.86975 468.99205 300.02766 468.97614 L 325.28815 466.4305 C 325.4899 466.4102 325.69122 466.386 325.89204 466.35803 L 349.68474 463.04265 C 349.88875 463.0142 350.0922 462.98186 350.29496 462.9456 L 359.4908 461.3 C 364.8179 460.34674 368.46876 455.3931 367.80234 450.02255 L 365.59475 432.232 C 365.5921 432.21066 365.5895 432.18934 365.58695 432.168 L 362.02312 402.4695 C 362.00157 402.28985 361.98306 402.10985 361.9676 401.9296 L 359.6054 374.37037 C 359.59565 374.2568 359.58713 374.1431 359.57983 374.02936 L 358.1932 352.43772 C 358.1916 352.41258 358.1899 352.38744 358.1882 352.3623 L 356.59603 329.276 C 356.59253 329.22533 356.5893 329.17466 356.58627 329.12398 L 355.4099 309.3218 C 355.39716 309.1073 355.38874 308.89255 355.38465 308.6777 L 354.99236 288.08285 C 354.9913 288.02762 354.98997 287.9724 354.98835 287.91718 L 354.39322 267.68283 C 354.3916 267.6276 354.39026 267.5724 354.3892 267.51715 L 353.99855 247.0076 C 353.99337 246.73592 353.99512 246.46413 354.0038 246.19253 L 354.58973 227.83292 C 354.59044 227.81097 354.5912 227.78903 354.59197 227.7671 L 355.38005 205.89779 C 355.3872 205.69928 355.39806 205.50093 355.4126 205.30283 L 356.97007 184.0822 C 356.9839 183.89409 356.99436 183.70573 357.0015 183.51724 L 357.75596 163.61837 C 357.77915 163.00663 357.83744 162.39672 357.93052 161.79165 L 360.66953 143.98813 C 360.7503 143.46304 360.8572 142.94229 360.9898 142.42783 L 365.61806 124.47017 C 365.73316 124.0236 365.8675 123.58221 366.02073 123.14725 L 371.7415 106.9076 C 371.9076 106.43613 372.0957 105.97269 372.30517 105.51883 L 377.83673 93.53379 C 377.9394 93.31129 378.0472 93.09119 378.16 92.87364 L 383.52223 82.53222 C 383.56793 82.444075 383.61446 82.35636 383.6618 82.26908 L 388.87777 72.65212 C 389.61505 71.29276 390.5647 70.05987 391.6908 69 L 391.6908 69 C 392.36598 68.36453 392.39817 67.30203 391.7627 66.62684 C 391.6382 66.49456 391.49307 66.38337 391.33295 66.29759 L 388.1188 64.57573 C 387.90016 64.45859 387.6788 64.34656 387.45494 64.23971 L 379.60097 60.491224 C 379.19436 60.29716 378.77974 60.12036 378.3582 59.96129 L 368.68338 56.31041 C 368.48833 56.23681 368.29187 56.16703 368.0941 56.10111 L 355.39963 51.869615 C 355.2604 51.82321 355.12055 51.77872 354.9801 51.73616 L 342.0966 47.83206 C 342.02605 47.810687 341.95567 47.78883 341.88544 47.76648 L 329.38144 43.78794 C 328.9878 43.662693 328.5992 43.52225 328.21643 43.36693 L 316.2405 38.507127 C 315.40883 38.16964 314.60704 37.762775 313.8436 37.290834 L 304.22436 31.34439 C 304.06865 31.248137 303.9146 31.14922 303.7623 31.04768 L 298.8722 27.787616 C 297.8908 27.133353 297.0195 26.327453 296.2908 25.4 L 296.2908 25.4 C 296.18518 25.265596 295.9906 25.242248 295.8562 25.34785 C 295.75347 25.428576 295.7125 25.565127 295.7538 25.689083 L 295.8908 26.1 C 296.35003 27.47775 296.4546 28.949037 296.1948 30.37789 L 295.79967 32.551155 C 295.52845 34.042813 295.0466 35.488352 294.36858 36.844405 L 292.83626 39.90904 C 292.53956 40.50244 292.20624 41.07681 291.83823 41.628825 L 288.63453 46.43438 C 288.20593 47.077283 287.73132 47.68829 287.21443 48.262615 L 282.6524 53.331555 C 282.61132 53.377185 282.57 53.42258 282.5284 53.46773 L 276.53417 59.97576 C 275.90643 60.6573 275.22068 61.28302 274.48465 61.84587 L 269.46047 65.68789 C 269.01432 66.02906 268.55052 66.3465 268.071 66.6389 L 261.58458 70.59403 C 260.92292 70.99748 260.23283 71.35232 259.51975 71.65576 L 252.40434 74.6836 C 251.59667 75.02728 250.7621 75.30393 249.90905 75.51072 L 245.83 76.49959 C 245.00516 76.69955 244.16573 76.83356 243.31963 76.900355 L 237.61943 77.35037 C 237.2005 77.383445 236.78042 77.4 236.36019 77.4 L 229.32787 77.4 C 228.57077 77.4 227.81462 77.34626 227.06513 77.23919 L 219.11868 76.10399 C 218.63367 76.0347 218.1521 75.94317 217.6755 75.82969 L 211.71426 74.41035 C 210.56878 74.13762 209.4569 73.73927 208.39883 73.22253 L 202.11882 70.15556 C 201.63377 69.91867 201.16102 69.65739 200.70238 69.37272 L 196.49052 66.75846 C 195.89135 66.38656 195.31742 65.975456 194.7725 65.527835 L 190.3264 61.87568 C 190.1027 61.69193 189.88402 61.50214 189.67063 61.30652 L 185.86828 57.82104 C 185.41699 57.407356 184.9898 56.96811 184.58885 56.505465 L 180.4701 51.753066 C 180.15072 51.38455 179.84836 51.00162 179.56395 50.605486 L 175.1343 44.43561 C 174.6394 43.746296 174.20013 43.018704 173.82064 42.25972 L 171.24418 37.10679 C 171.20858 37.0356 171.17352 36.96414 171.13899 36.892424 L 169.89078 34.3 C 169.04007 32.53313 168.68455 30.568594 168.86209 28.615642 L 169.0423 26.633386 C 169.0661 26.371524 168.87312 26.139945 168.61125 26.11614 C 168.44886 26.101376 168.2902 26.17075 168.19078 26.3 L 168.19078 26.3 C 167.52734 27.16248 166.74723 27.92856 165.87285 28.576246 L 161.97632 31.462567 C 161.85263 31.554184 161.72763 31.644012 161.60136 31.732022 L 156.9791 34.95359 C 155.79237 35.78071 154.49895 36.443076 153.1342 36.922582 L 148.52708 38.541302 C 148.0365 38.713665 147.55463 38.90984 147.08316 39.129127 L 140.23638 42.313676 C 139.54022 42.63747 138.82165 42.91074 138.08625 43.13136 L 127.21586 46.392476 C 127.19914 46.39749 127.18243 46.402536 127.16572 46.407607 L 116.19764 49.737205 C 116.05974 49.779067 115.92241 49.82279 115.7857 49.86836 L 102.86446 54.17544 C 102.81534 54.191813 102.76614 54.20795 102.71686 54.223845 L 91.34946 57.89075 C 90.71097 58.09671 90.08607 58.34263 89.47846 58.627044 L 81.546495 62.33988 C 81.17616 62.51323 80.8126 62.70071 80.45662 62.90192 L 74.51051 66.262765 C 73.25747 66.971 72.81583 68.560925 73.52406 69.81396 C 73.60118 69.9504 73.69045 70.0796 73.79078 70.2 L 74.65489 71.23693 C 75.40984 72.14287 76.06231 73.12949 76.60043 74.17882 L 79.67757 80.17924 C 79.75304 80.3264 79.83079 80.47239 79.91078 80.61715 L 83.86554 87.77337 C 83.94903 87.92445 84.03007 88.07687 84.10863 88.23057 L 88.21693 96.26856 C 88.466 96.75587 88.6899 97.25563 88.88776 97.76589 L 92.37053 106.74776 C 92.38403 106.78259 92.39765 106.81737 92.4114 106.8521 L 96.00772 115.93754 C 96.12973 116.24577 96.24213 116.55772 96.34476 116.87294 L 98.9666 124.92572 C 98.98272 124.97524 98.9986 125.02484 99.01424 125.07452 L 102.08629 134.83279 C 102.28908 135.47695 102.45089 136.1333 102.57073 136.79792 L 104.55605 147.80737 C 104.5792 147.93579 104.60079 148.06448 104.6208 148.19342 L 106.32666 159.1868 C 106.3694 159.46222 106.40494 159.73871 106.43323 160.01598 L 107.32065 168.7127 C 107.36738 169.17069 107.39433 169.63048 107.40141 170.0908 L 107.58565 182.06641 C 107.58907 182.28878 107.59713 182.51105 107.60981 182.73309 L 108.38019 196.21465 C 108.38725 196.33821 108.39575 196.4617 108.40567 196.58506 L 109.73924 213.15943 C 109.77359 213.5863 109.79078 214.0144 109.79078 214.44264 L 109.79078 226.89242 C 109.79078 227.09746 109.79472 227.30247 109.8026 227.50735 L 110.38295 242.5965 C 110.38817 242.73216 110.39166 242.8679 110.39343 243.00365 L 110.58559 257.7999 C 110.58905 258.0666 110.58584 258.33333 110.57597 258.59986 L 110.00174 274.104 C 109.99444 274.30132 109.99078 274.49875 109.99078 274.6962 L 109.99078 288.29243 C 109.99078 288.49746 109.98684 288.70247 109.97896 288.90736 L 109.39377 304.12236 C 109.39178 304.17412 109.38953 304.22588 109.38704 304.2776 L 108.59172 320.78055 C 108.5911 320.79352 108.59045 320.8065 108.5898 320.81945 L 107.79531 336.51062 C 107.79229 336.5702 107.78894 336.6298 107.78526 336.68933 L 106.59634 355.91007 C 106.59264 355.97003 106.58859 356.02996 106.5842 356.08987 L 104.80107 380.45942 C 104.79421 380.55314 104.78653 380.6468 104.77802 380.7404 L 102.99213 400.3852 C 102.99123 400.39507 102.99032 400.40494 102.98941 400.4148 L 101.21864 419.4997 C 101.20007 419.6999 101.17773 419.8997 101.15162 420.09903 L 99.19091 435.07175 C 99.0581 436.08594 98.78896 437.07756 98.39078 438.01973 L 98.39078 438.01973 C 97.9932 438.9605 97.74454 439.9574 97.65371 440.97465 L 96.89078 449.51973 C 96.38302 455.20676 100.34149 460.3251 105.97346 461.2638 Z" fill="white"/>
      <path d="M 105.97346 461.2638 L 119.7157 463.55416 C 119.89907 463.5847 120.08297 463.6121 120.2673 463.63624 L 148.62094 467.35154 C 148.86747 467.38385 149.11472 467.4104 149.36248 467.4312 L 179.60537 469.9677 C 179.86227 469.98923 180.11966 470.00456 180.3773 470.01367 L 219.30822 471.39 C 219.49658 471.3967 219.68504 471.4 219.87352 471.4 L 251.34084 471.4 C 251.50746 471.4 251.67407 471.3974 251.8406 471.3922 L 276.8754 470.60986 C 277.08563 470.6033 277.29573 470.5926 277.50555 470.5777 L 299.5533 469.0168 C 299.7116 469.0056 299.86975 468.99205 300.02766 468.97614 L 325.28815 466.4305 C 325.4899 466.4102 325.69122 466.386 325.89204 466.35803 L 349.68474 463.04265 C 349.88875 463.0142 350.0922 462.98186 350.29496 462.9456 L 359.4908 461.3 C 364.8179 460.34674 368.46876 455.3931 367.80234 450.02255 L 365.59475 432.232 C 365.5921 432.21066 365.5895 432.18934 365.58695 432.168 L 362.02312 402.4695 C 362.00157 402.28985 361.98306 402.10985 361.9676 401.9296 L 359.6054 374.37037 C 359.59565 374.2568 359.58713 374.1431 359.57983 374.02936 L 358.1932 352.43772 C 358.1916 352.41258 358.1899 352.38744 358.1882 352.3623 L 356.59603 329.276 C 356.59253 329.22533 356.5893 329.17466 356.58627 329.12398 L 355.4099 309.3218 C 355.39716 309.1073 355.38874 308.89255 355.38465 308.6777 L 354.99236 288.08285 C 354.9913 288.02762 354.98997 287.9724 354.98835 287.91718 L 354.39322 267.68283 C 354.3916 267.6276 354.39026 267.5724 354.3892 267.51715 L 353.99855 247.0076 C 353.99337 246.73592 353.99512 246.46413 354.0038 246.19253 L 354.58973 227.83292 C 354.59044 227.81097 354.5912 227.78903 354.59197 227.7671 L 355.38005 205.89779 C 355.3872 205.69928 355.39806 205.50093 355.4126 205.30283 L 356.97007 184.0822 C 356.9839 183.89409 356.99436 183.70573 357.0015 183.51724 L 357.75596 163.61837 C 357.77915 163.00663 357.83744 162.39672 357.93052 161.79165 L 360.66953 143.98813 C 360.7503 143.46304 360.8572 142.94229 360.9898 142.42783 L 365.61806 124.47017 C 365.73316 124.0236 365.8675 123.58221 366.02073 123.14725 L 371.7415 106.9076 C 371.9076 106.43613 372.0957 105.97269 372.30517 105.51883 L 377.83673 93.53379 C 377.9394 93.31129 378.0472 93.09119 378.16 92.87364 L 383.52223 82.53222 C 383.56793 82.444075 383.61446 82.35636 383.6618 82.26908 L 388.87777 72.65212 C 389.61505 71.29276 390.5647 70.05987 391.6908 69 L 391.6908 69 C 392.36598 68.36453 392.39817 67.30203 391.7627 66.62684 C 391.6382 66.49456 391.49307 66.38337 391.33295 66.29759 L 388.1188 64.57573 C 387.90016 64.45859 387.6788 64.34656 387.45494 64.23971 L 379.60097 60.491224 C 379.19436 60.29716 378.77974 60.12036 378.3582 59.96129 L 368.68338 56.31041 C 368.48833 56.23681 368.29187 56.16703 368.0941 56.10111 L 355.39963 51.869615 C 355.2604 51.82321 355.12055 51.77872 354.9801 51.73616 L 342.0966 47.83206 C 342.02605 47.810687 341.95567 47.78883 341.88544 47.76648 L 329.38144 43.78794 C 328.9878 43.662693 328.5992 43.52225 328.21643 43.36693 L 316.2405 38.507127 C 315.40883 38.16964 314.60704 37.762775 313.8436 37.290834 L 304.22436 31.34439 C 304.06865 31.248137 303.9146 31.14922 303.7623 31.04768 L 298.8722 27.787616 C 297.8908 27.133353 297.0195 26.327453 296.2908 25.4 L 296.2908 25.4 C 296.18518 25.265596 295.9906 25.242248 295.8562 25.34785 C 295.75347 25.428576 295.7125 25.565127 295.7538 25.689083 L 295.8908 26.1 C 296.35003 27.47775 296.4546 28.949037 296.1948 30.37789 L 295.79967 32.551155 C 295.52845 34.042813 295.0466 35.488352 294.36858 36.844405 L 292.83626 39.90904 C 292.53956 40.50244 292.20624 41.07681 291.83823 41.628825 L 288.63453 46.43438 C 288.20593 47.077283 287.73132 47.68829 287.21443 48.262615 L 282.6524 53.331555 C 282.61132 53.377185 282.57 53.42258 282.5284 53.46773 L 276.53417 59.97576 C 275.90643 60.6573 275.22068 61.28302 274.48465 61.84587 L 269.46047 65.68789 C 269.01432 66.02906 268.55052 66.3465 268.071 66.6389 L 261.58458 70.59403 C 260.92292 70.99748 260.23283 71.35232 259.51975 71.65576 L 252.40434 74.6836 C 251.59667 75.02728 250.7621 75.30393 249.90905 75.51072 L 245.83 76.49959 C 245.00516 76.69955 244.16573 76.83356 243.31963 76.900355 L 237.61943 77.35037 C 237.2005 77.383445 236.78042 77.4 236.36019 77.4 L 229.32787 77.4 C 228.57077 77.4 227.81462 77.34626 227.06513 77.23919 L 219.11868 76.10399 C 218.63367 76.0347 218.1521 75.94317 217.6755 75.82969 L 211.71426 74.41035 C 210.56878 74.13762 209.4569 73.73927 208.39883 73.22253 L 202.11882 70.15556 C 201.63377 69.91867 201.16102 69.65739 200.70238 69.37272 L 196.49052 66.75846 C 195.89135 66.38656 195.31742 65.975456 194.7725 65.527835 L 190.3264 61.87568 C 190.1027 61.69193 189.88402 61.50214 189.67063 61.30652 L 185.86828 57.82104 C 185.41699 57.407356 184.9898 56.96811 184.58885 56.505465 L 180.4701 51.753066 C 180.15072 51.38455 179.84836 51.00162 179.56395 50.605486 L 175.1343 44.43561 C 174.6394 43.746296 174.20013 43.018704 173.82064 42.25972 L 171.24418 37.10679 C 171.20858 37.0356 171.17352 36.96414 171.13899 36.892424 L 169.89078 34.3 C 169.04007 32.53313 168.68455 30.568594 168.86209 28.615642 L 169.0423 26.633386 C 169.0661 26.371524 168.87312 26.139945 168.61125 26.11614 C 168.44886 26.101376 168.2902 26.17075 168.19078 26.3 L 168.19078 26.3 C 167.52734 27.16248 166.74723 27.92856 165.87285 28.576246 L 161.97632 31.462567 C 161.85263 31.554184 161.72763 31.644012 161.60136 31.732022 L 156.9791 34.95359 C 155.79237 35.78071 154.49895 36.443076 153.1342 36.922582 L 148.52708 38.541302 C 148.0365 38.713665 147.55463 38.90984 147.08316 39.129127 L 140.23638 42.313676 C 139.54022 42.63747 138.82165 42.91074 138.08625 43.13136 L 127.21586 46.392476 C 127.19914 46.39749 127.18243 46.402536 127.16572 46.407607 L 116.19764 49.737205 C 116.05974 49.779067 115.92241 49.82279 115.7857 49.86836 L 102.86446 54.17544 C 102.81534 54.191813 102.76614 54.20795 102.71686 54.223845 L 91.34946 57.89075 C 90.71097 58.09671 90.08607 58.34263 89.47846 58.627044 L 81.546495 62.33988 C 81.17616 62.51323 80.8126 62.70071 80.45662 62.90192 L 74.51051 66.262765 C 73.25747 66.971 72.81583 68.560925 73.52406 69.81396 C 73.60118 69.9504 73.69045 70.0796 73.79078 70.2 L 74.65489 71.23693 C 75.40984 72.14287 76.06231 73.12949 76.60043 74.17882 L 79.67757 80.17924 C 79.75304 80.3264 79.83079 80.47239 79.91078 80.61715 L 83.86554 87.77337 C 83.94903 87.92445 84.03007 88.07687 84.10863 88.23057 L 88.21693 96.26856 C 88.466 96.75587 88.6899 97.25563 88.88776 97.76589 L 92.37053 106.74776 C 92.38403 106.78259 92.39765 106.81737 92.4114 106.8521 L 96.00772 115.93754 C 96.12973 116.24577 96.24213 116.55772 96.34476 116.87294 L 98.9666 124.92572 C 98.98272 124.97524 98.9986 125.02484 99.01424 125.07452 L 102.08629 134.83279 C 102.28908 135.47695 102.45089 136.1333 102.57073 136.79792 L 104.55605 147.80737 C 104.5792 147.93579 104.60079 148.06448 104.6208 148.19342 L 106.32666 159.1868 C 106.3694 159.46222 106.40494 159.73871 106.43323 160.01598 L 107.32065 168.7127 C 107.36738 169.17069 107.39433 169.63048 107.40141 170.0908 L 107.58565 182.06641 C 107.58907 182.28878 107.59713 182.51105 107.60981 182.73309 L 108.38019 196.21465 C 108.38725 196.33821 108.39575 196.4617 108.40567 196.58506 L 109.73924 213.15943 C 109.77359 213.5863 109.79078 214.0144 109.79078 214.44264 L 109.79078 226.89242 C 109.79078 227.09746 109.79472 227.30247 109.8026 227.50735 L 110.38295 242.5965 C 110.38817 242.73216 110.39166 242.8679 110.39343 243.00365 L 110.58559 257.7999 C 110.58905 258.0666 110.58584 258.33333 110.57597 258.59986 L 110.00174 274.104 C 109.99444 274.30132 109.99078 274.49875 109.99078 274.6962 L 109.99078 288.29243 C 109.99078 288.49746 109.98684 288.70247 109.97896 288.90736 L 109.39377 304.12236 C 109.39178 304.17412 109.38953 304.22588 109.38704 304.2776 L 108.59172 320.78055 C 108.5911 320.79352 108.59045 320.8065 108.5898 320.81945 L 107.79531 336.51062 C 107.79229 336.5702 107.78894 336.6298 107.78526 336.68933 L 106.59634 355.91007 C 106.59264 355.97003 106.58859 356.02996 106.5842 356.08987 L 104.80107 380.45942 C 104.79421 380.55314 104.78653 380.6468 104.77802 380.7404 L 102.99213 400.3852 C 102.99123 400.39507 102.99032 400.40494 102.98941 400.4148 L 101.21864 419.4997 C 101.20007 419.6999 101.17773 419.8997 101.15162 420.09903 L 99.19091 435.07175 C 99.0581 436.08594 98.78896 437.07756 98.39078 438.01973 L 98.39078 438.01973 C 97.9932 438.9605 97.74454 439.9574 97.65371 440.97465 L 96.89078 449.51973 C 96.38302 455.20676 100.34149 460.3251 105.97346 461.2638 Z" stroke="black" stroke-linecap="round" stroke-linejoin="round" stroke-width="1"/>
      <path d="M 17 175.44615 L 23.2 179.84615 L 31.4 183.84615 L 40 187.44615 L 49 191.24615 L 60 195.24615 L 69.4 198.04615 L 78.4 200.64615 L 87.4 203.24615 L 92.8 204.64615 L 98.4 205.64615 L 100.8 199.84615 L 103.4 194.44615 L 105.6 190.44615 L 108.2 187.04615 L 108.4 178.04615 L 107.8 167.04615 L 106 156.24615 L 104.4 145.84615 L 101.8 134.84614 L 99.4 125.24614 L 96.6 117.24614 L 93.4 107.84614 L 90.6 100.44614 L 87 92.84614 L 83 85.24614 L 79 77.84614 L 76.4 74.24614 L 72.8 68.44614 L 67.4 72.84614 L 62.6 77.64614 L 58 83.84614 L 53.6 90.04614 L 48.8 98.64614 L 44 108.04614 L 39.2 117.24614 L 35.6 125.84614 L 31.6 134.84614 L 28.4 143.04615 L 24.6 152.44615 L 21.8 160.44615 L 18.8 168.84615 Z" fill="white"/>
      <path d="M 17 175.44615 L 23.2 179.84615 L 31.4 183.84615 L 40 187.44615 L 49 191.24615 L 60 195.24615 L 69.4 198.04615 L 78.4 200.64615 L 87.4 203.24615 L 92.8 204.64615 L 98.4 205.64615 L 100.8 199.84615 L 103.4 194.44615 L 105.6 190.44615 L 108.2 187.04615 L 108.4 178.04615 L 107.8 167.04615 L 106 156.24615 L 104.4 145.84615 L 101.8 134.84614 L 99.4 125.24614 L 96.6 117.24614 L 93.4 107.84614 L 90.6 100.44614 L 87 92.84614 L 83 85.24614 L 79 77.84614 L 76.4 74.24614 L 72.8 68.44614 L 67.4 72.84614 L 62.6 77.64614 L 58 83.84614 L 53.6 90.04614 L 48.8 98.64614 L 44 108.04614 L 39.2 117.24614 L 35.6 125.84614 L 31.6 134.84614 L 28.4 143.04615 L 24.6 152.44615 L 21.8 160.44615 L 18.8 168.84615 Z" stroke="black" stroke-linecap="round" stroke-linejoin="round" stroke-width="1"/>
      <path d="M 448.4053 174.50275 L 442.2053 178.90275 L 434.0053 182.90275 L 425.4053 186.50275 L 416.4053 190.30275 L 405.4053 194.30275 L 396.0053 197.10275 L 387.0053 199.70275 L 378.0053 202.30275 L 372.6053 203.70275 L 367.0053 204.70275 L 364.6053 198.90275 L 362.0053 193.50275 L 359.8053 189.50275 L 357.2053 186.10275 L 357.0053 177.10275 L 357.6053 166.10275 L 359.4053 155.30275 L 361.0053 144.90275 L 363.6053 133.90275 L 366.0053 124.30275 L 368.8053 116.30275 L 372.0053 106.90275 L 374.8053 99.50275 L 378.4053 91.90275 L 382.4053 84.30275 L 386.4053 76.90275 L 389.0053 73.30275 L 392.6053 67.50275 L 398.0053 71.90275 L 402.8053 76.70275 L 407.4053 82.90275 L 411.8053 89.10275 L 416.6053 97.70275 L 421.4053 107.10275 L 426.2053 116.30275 L 429.8053 124.90275 L 433.8053 133.90275 L 437.0053 142.10275 L 440.8053 151.50275 L 443.6053 159.50275 L 446.6053 167.90275 Z" fill="white"/>
      <path d="M 448.4053 174.50275 L 442.2053 178.90275 L 434.0053 182.90275 L 425.4053 186.50275 L 416.4053 190.30275 L 405.4053 194.30275 L 396.0053 197.10275 L 387.0053 199.70275 L 378.0053 202.30275 L 372.6053 203.70275 L 367.0053 204.70275 L 364.6053 198.90275 L 362.0053 193.50275 L 359.8053 189.50275 L 357.2053 186.10275 L 357.0053 177.10275 L 357.6053 166.10275 L 359.4053 155.30275 L 361.0053 144.90275 L 363.6053 133.90275 L 366.0053 124.30275 L 368.8053 116.30275 L 372.0053 106.90275 L 374.8053 99.50275 L 378.4053 91.90275 L 382.4053 84.30275 L 386.4053 76.90275 L 389.0053 73.30275 L 392.6053 67.50275 L 398.0053 71.90275 L 402.8053 76.70275 L 407.4053 82.90275 L 411.8053 89.10275 L 416.6053 97.70275 L 421.4053 107.10275 L 426.2053 116.30275 L 429.8053 124.90275 L 433.8053 133.90275 L 437.0053 142.10275 L 440.8053 151.50275 L 443.6053 159.50275 L 446.6053 167.90275 Z" stroke="black" stroke-linecap="round" stroke-linejoin="round" stroke-width="1"/>
      <path d="M 17 175.44615 L 23.2 179.84615 L 31.4 183.84615 L 40 187.44615 L 49 191.24615 L 60 195.24615 L 69.4 198.04615 L 78.4 200.64615 L 87.4 203.24615 L 92.8 204.64615 L 98.4 205.64615 L 101.4 199.24615 L 97.6 198.44615 L 92.8 197.24615 L 87.2 196.04615 L 81.2 194.24615 L 76.6 192.84615 L 72.4 191.64615 L 67.8 189.64615 L 63.2 188.04615 L 58.4 186.04615 L 54.4 184.64615 L 49.2 182.44615 L 44.6 180.84615 L 39.8 178.64615 L 35 176.84615 L 31 174.84615 L 26.6 172.64615 L 22.2 170.44615 L 18.8 168.84615 Z" fill="white"/>
      <path d="M 17 175.44615 L 23.2 179.84615 L 31.4 183.84615 L 40 187.44615 L 49 191.24615 L 60 195.24615 L 69.4 198.04615 L 78.4 200.64615 L 87.4 203.24615 L 92.8 204.64615 L 98.4 205.64615 L 101.4 199.24615 L 97.6 198.44615 L 92.8 197.24615 L 87.2 196.04615 L 81.2 194.24615 L 76.6 192.84615 L 72.4 191.64615 L 67.8 189.64615 L 63.2 188.04615 L 58.4 186.04615 L 54.4 184.64615 L 49.2 182.44615 L 44.6 180.84615 L 39.8 178.64615 L 35 176.84615 L 31 174.84615 L 26.6 172.64615 L 22.2 170.44615 L 18.8 168.84615 Z" stroke="black" stroke-linecap="round" stroke-linejoin="round" stroke-width="1"/>
      <path d="M 448.4053 174.50275 L 442.2053 178.90275 L 434.0053 182.90275 L 425.4053 186.50275 L 416.4053 190.30275 L 405.4053 194.30275 L 396.0053 197.10275 L 387.0053 199.70275 L 378.0053 202.30275 L 372.6053 203.70275 L 367.0053 204.70275 L 364.0053 198.30275 L 367.8053 197.50275 L 372.6053 196.30275 L 378.2053 195.10275 L 384.2053 193.30275 L 388.8053 191.90275 L 393.0053 190.70275 L 397.6053 188.70275 L 402.2053 187.10275 L 407.0053 185.10275 L 411.0053 183.70275 L 416.2053 181.50275 L 420.8053 179.90275 L 425.6053 177.70275 L 430.4053 175.90275 L 434.4053 173.90275 L 438.8053 171.70275 L 443.2053 169.50275 L 446.6053 167.90275 Z" fill="white"/>
      <path d="M 448.4053 174.50275 L 442.2053 178.90275 L 434.0053 182.90275 L 425.4053 186.50275 L 416.4053 190.30275 L 405.4053 194.30275 L 396.0053 197.10275 L 387.0053 199.70275 L 378.0053 202.30275 L 372.6053 203.70275 L 367.0053 204.70275 L 364.0053 198.30275 L 367.8053 197.50275 L 372.6053 196.30275 L 378.2053 195.10275 L 384.2053 193.30275 L 388.8053 191.90275 L 393.0053 190.70275 L 397.6053 188.70275 L 402.2053 187.10275 L 407.0053 185.10275 L 411.0053 183.70275 L 416.2053 181.50275 L 420.8053 179.90275 L 425.6053 177.70275 L 430.4053 175.90275 L 434.4053 173.90275 L 438.8053 171.70275 L 443.2053 169.50275 L 446.6053 167.90275 Z" stroke="black" stroke-linecap="round" stroke-linejoin="round" stroke-width="1"/>
      <path d="M 167.57212 24.96379 L 162.84295 29.017363 C 161.6926 30.003375 160.44764 30.87331 159.12621 31.614485 L 156.59958 33.03165 C 155.1644 33.836623 154.5836 35.60575 155.26239 37.104735 L 156.28 39.35197 C 156.40158 39.620455 156.52831 39.88658 156.66012 40.150196 L 158.4624 43.754736 L 160.94938 48.72871 C 161.29117 49.4123 161.66683 50.078434 162.07495 50.724625 L 164.40134 54.40808 C 164.84172 55.105345 165.31928 55.77842 165.83195 56.42439 L 169.24264 60.72185 C 169.7887 61.409875 170.37371 62.066056 170.99482 62.68717 L 175.66087 67.35321 C 176.06175 67.75409 176.47731 68.14001 176.9067 68.51018 L 181.47023 72.44426 C 181.8649 72.78448 182.271 73.11119 182.68785 73.42383 L 186.66279 76.40503 C 187.3287 76.90447 188.02123 77.36738 188.73733 77.79174 L 192.8704 80.24096 C 192.9984 80.31681 193.12712 80.39141 193.25656 80.464765 L 197.9541 83.12671 C 198.6924 83.54507 199.45328 83.92226 200.23325 84.25653 L 203.78307 85.77788 C 204.36903 86.02901 204.96518 86.25567 205.56997 86.45726 L 210.58808 88.12997 C 211.83532 88.54571 213.11592 88.85376 214.4158 89.05071 L 218.51464 89.67174 C 218.87976 89.72706 219.24615 89.77358 219.6135 89.81126 L 226.4946 90.51701 C 226.73978 90.54216 226.98534 90.56336 227.2312 90.58062 L 231.75835 90.89831 C 232.2942 90.93591 232.83122 90.95473 233.3684 90.95473 L 236.63046 90.95474 C 237.58416 90.95474 238.53693 90.89542 239.48327 90.77713 L 243.47198 90.27854 C 244.13195 90.19604 244.78802 90.08496 245.43835 89.9456 L 251.5204 88.64231 C 252.41426 88.45076 253.29592 88.2061 254.16068 87.90961 L 258.66952 86.36372 C 259.46417 86.09127 260.2433 85.77549 261.0034 85.41779 L 265.83677 83.14326 C 266.38697 82.88435 266.92668 82.60371 267.45464 82.30202 L 271.2225 80.14896 C 271.9153 79.75308 272.587 79.321415 273.23494 78.85572 L 277.91106 75.49475 C 278.41175 75.13489 278.89776 74.75503 279.3679 74.35611 L 284.68877 69.841445 C 285.0711 69.51706 285.4427 69.18026 285.803 68.83158 L 290.5022 64.28396 C 291.1418 63.665 291.7449 63.009435 292.30852 62.320576 L 296.1018 57.68434 C 296.60852 57.065026 297.08257 56.41969 297.522 55.750964 L 301.1392 50.246564 C 301.35462 49.91873 301.56163 49.58544 301.76002 49.24702 L 304.2831 44.942924 C 304.66906 44.28454 305.022 43.607354 305.34062 42.91388 L 307.4593 38.30261 C 307.99218 37.14285 308.36334 35.915436 308.5624 34.654735 L 308.5624 34.654735 C 308.7407 33.525474 308.1614 32.412026 307.1343 31.909898 L 301.84088 29.321995 C 300.52642 28.67937 299.29183 27.88486 298.1624 26.954735 L 297.7564 26.620375 C 296.91205 25.925043 296.28864 24.998738 295.9624 23.954735 L 295.9624 23.954735 C 295.91573 23.80542 295.75686 23.7222 295.60754 23.768862 C 295.49247 23.804823 295.41277 23.909685 295.40892 24.030188 L 295.29968 27.45311 C 295.20894 30.296186 294.5916 33.097764 293.479 35.715667 L 292.60206 37.779043 C 292.0435 39.093314 291.36374 40.35271 290.5716 41.54091 L 286.88582 47.069584 C 286.1383 48.19085 285.2937 49.24425 284.36175 50.217624 L 278.0667 56.79247 C 277.1986 57.699125 276.25777 58.533196 275.2536 59.28633 L 266.8787 65.567505 C 266.00228 66.22482 265.08002 66.818674 264.11896 67.34454 L 256.93376 71.27606 C 255.62263 71.99347 254.2447 72.58137 252.81952 73.03143 L 246.1466 75.13867 C 244.42973 75.68084 242.65514 76.01954 240.85927 76.147815 L 233.97281 76.6397 C 232.90052 76.7163 231.82417 76.71762 230.75168 76.64365 L 222.31543 76.06184 C 221.28125 75.99052 220.25308 75.84936 219.23795 75.63933 L 212.10274 74.16308 C 210.15079 73.75923 208.25961 73.10335 206.47676 72.21192 L 201.81735 69.882215 C 200.5832 69.26515 199.4071 68.53827 198.30326 67.71039 L 192.6213 63.44892 C 192.18217 63.11957 191.75496 62.7746 191.3405 62.41468 L 185.58533 57.41676 C 184.77104 56.70962 184.0075 55.94608 183.30036 55.131794 L 178.89513 50.05911 C 178.14103 49.19075 177.45312 48.26705 176.8372 47.295783 L 173.1035 41.40802 C 172.74293 40.83944 172.4075 40.255295 172.09819 39.657283 L 170.47781 36.52456 C 169.86867 35.34688 169.3625 34.118736 168.96497 32.853845 L 167.68473 28.780357 C 167.46995 28.09698 167.28722 27.403945 167.13713 26.703515 L 166.9117 25.651568 C 166.82664 25.254558 167.053 24.856906 167.4378 24.727367 L 167.4378 24.727367 C 167.5103 24.702963 167.58884 24.741948 167.61325 24.814442 C 167.63126 24.867954 167.615 24.927043 167.57212 24.96379 Z" fill="url(#Obj_Gradient_2)"/>
      <path d="M 167.57212 24.96379 L 162.84295 29.017363 C 161.6926 30.003375 160.44764 30.87331 159.12621 31.614485 L 156.59958 33.03165 C 155.1644 33.836623 154.5836 35.60575 155.26239 37.104735 L 156.28 39.35197 C 156.40158 39.620455 156.52831 39.88658 156.66012 40.150196 L 158.4624 43.754736 L 160.94938 48.72871 C 161.29117 49.4123 161.66683 50.078434 162.07495 50.724625 L 164.40134 54.40808 C 164.84172 55.105345 165.31928 55.77842 165.83195 56.42439 L 169.24264 60.72185 C 169.7887 61.409875 170.37371 62.066056 170.99482 62.68717 L 175.66087 67.35321 C 176.06175 67.75409 176.47731 68.14001 176.9067 68.51018 L 181.47023 72.44426 C 181.8649 72.78448 182.271 73.11119 182.68785 73.42383 L 186.66279 76.40503 C 187.3287 76.90447 188.02123 77.36738 188.73733 77.79174 L 192.8704 80.24096 C 192.9984 80.31681 193.12712 80.39141 193.25656 80.464765 L 197.9541 83.12671 C 198.6924 83.54507 199.45328 83.92226 200.23325 84.25653 L 203.78307 85.77788 C 204.36903 86.02901 204.96518 86.25567 205.56997 86.45726 L 210.58808 88.12997 C 211.83532 88.54571 213.11592 88.85376 214.4158 89.05071 L 218.51464 89.67174 C 218.87976 89.72706 219.24615 89.77358 219.6135 89.81126 L 226.4946 90.51701 C 226.73978 90.54216 226.98534 90.56336 227.2312 90.58062 L 231.75835 90.89831 C 232.2942 90.93591 232.83122 90.95473 233.3684 90.95473 L 236.63046 90.95474 C 237.58416 90.95474 238.53693 90.89542 239.48327 90.77713 L 243.47198 90.27854 C 244.13195 90.19604 244.78802 90.08496 245.43835 89.9456 L 251.5204 88.64231 C 252.41426 88.45076 253.29592 88.2061 254.16068 87.90961 L 258.66952 86.36372 C 259.46417 86.09127 260.2433 85.77549 261.0034 85.41779 L 265.83677 83.14326 C 266.38697 82.88435 266.92668 82.60371 267.45464 82.30202 L 271.2225 80.14896 C 271.9153 79.75308 272.587 79.321415 273.23494 78.85572 L 277.91106 75.49475 C 278.41175 75.13489 278.89776 74.75503 279.3679 74.35611 L 284.68877 69.841445 C 285.0711 69.51706 285.4427 69.18026 285.803 68.83158 L 290.5022 64.28396 C 291.1418 63.665 291.7449 63.009435 292.30852 62.320576 L 296.1018 57.68434 C 296.60852 57.065026 297.08257 56.41969 297.522 55.750964 L 301.1392 50.246564 C 301.35462 49.91873 301.56163 49.58544 301.76002 49.24702 L 304.2831 44.942924 C 304.66906 44.28454 305.022 43.607354 305.34062 42.91388 L 307.4593 38.30261 C 307.99218 37.14285 308.36334 35.915436 308.5624 34.654735 L 308.5624 34.654735 C 308.7407 33.525474 308.1614 32.412026 307.1343 31.909898 L 301.84088 29.321995 C 300.52642 28.67937 299.29183 27.88486 298.1624 26.954735 L 297.7564 26.620375 C 296.91205 25.925043 296.28864 24.998738 295.9624 23.954735 L 295.9624 23.954735 C 295.91573 23.80542 295.75686 23.7222 295.60754 23.768862 C 295.49247 23.804823 295.41277 23.909685 295.40892 24.030188 L 295.29968 27.45311 C 295.20894 30.296186 294.5916 33.097764 293.479 35.715667 L 292.60206 37.779043 C 292.0435 39.093314 291.36374 40.35271 290.5716 41.54091 L 286.88582 47.069584 C 286.1383 48.19085 285.2937 49.24425 284.36175 50.217624 L 278.0667 56.79247 C 277.1986 57.699125 276.25777 58.533196 275.2536 59.28633 L 266.8787 65.567505 C 266.00228 66.22482 265.08002 66.818674 264.11896 67.34454 L 256.93376 71.27606 C 255.62263 71.99347 254.2447 72.58137 252.81952 73.03143 L 246.1466 75.13867 C 244.42973 75.68084 242.65514 76.01954 240.85927 76.147815 L 233.97281 76.6397 C 232.90052 76.7163 231.82417 76.71762 230.75168 76.64365 L 222.31543 76.06184 C 221.28125 75.99052 220.25308 75.84936 219.23795 75.63933 L 212.10274 74.16308 C 210.15079 73.75923 208.25961 73.10335 206.47676 72.21192 L 201.81735 69.882215 C 200.5832 69.26515 199.4071 68.53827 198.30326 67.71039 L 192.6213 63.44892 C 192.18217 63.11957 191.75496 62.7746 191.3405 62.41468 L 185.58533 57.41676 C 184.77104 56.70962 184.0075 55.94608 183.30036 55.131794 L 178.89513 50.05911 C 178.14103 49.19075 177.45312 48.26705 176.8372 47.295783 L 173.1035 41.40802 C 172.74293 40.83944 172.4075 40.255295 172.09819 39.657283 L 170.47781 36.52456 C 169.86867 35.34688 169.3625 34.118736 168.96497 32.853845 L 167.68473 28.780357 C 167.46995 28.09698 167.28722 27.403945 167.13713 26.703515 L 166.9117 25.651568 C 166.82664 25.254558 167.053 24.856906 167.4378 24.727367 L 167.4378 24.727367 C 167.5103 24.702963 167.58884 24.741948 167.61325 24.814442 C 167.63126 24.867954 167.615 24.927043 167.57212 24.96379 Z" stroke="#a5a5a5" stroke-linecap="round" stroke-linejoin="round" stroke-width="1"/>
      <path d="M 167.05925 24.755892 L 172.45925 24.155892 L 179.25925 27.555892 L 184.25925 29.355892 L 192.65925 31.155892 L 201.05925 32.155892 L 209.05925 33.155892 L 216.65925 33.355892 L 225.25925 33.755892 L 236.85925 33.555892 L 245.25925 33.155892 L 254.65925 32.555892 L 263.05925 31.755892 L 272.25925 30.355892 L 280.45925 28.155892 L 286.25925 26.355892 L 291.85925 23.755892 L 294.65925 24.955892 L 295.05925 30.555892 L 292.25925 38.555893 L 286.85925 41.355893 L 276.25925 44.55589 L 264.85925 46.95589 L 253.65925 47.75589 L 241.25925 48.75589 L 230.85925 48.75589 L 221.45925 48.75589 L 209.85925 48.15589 L 198.65925 47.35589 L 188.05925 45.15589 L 179.45925 43.155893 L 173.25925 40.355893 L 171.25925 38.755893 L 168.05925 31.155892 Z" fill="url(#Obj_Gradient_3)"/>
      <path d="M 167.05925 24.755892 L 172.45925 24.155892 L 179.25925 27.555892 L 184.25925 29.355892 L 192.65925 31.155892 L 201.05925 32.155892 L 209.05925 33.155892 L 216.65925 33.355892 L 225.25925 33.755892 L 236.85925 33.555892 L 245.25925 33.155892 L 254.65925 32.555892 L 263.05925 31.755892 L 272.25925 30.355892 L 280.45925 28.155892 L 286.25925 26.355892 L 291.85925 23.755892 L 294.65925 24.955892 L 295.05925 30.555892 L 292.25925 38.555893 L 286.85925 41.355893 L 276.25925 44.55589 L 264.85925 46.95589 L 253.65925 47.75589 L 241.25925 48.75589 L 230.85925 48.75589 L 221.45925 48.75589 L 209.85925 48.15589 L 198.65925 47.35589 L 188.05925 45.15589 L 179.45925 43.155893 L 173.25925 40.355893 L 171.25925 38.755893 L 168.05925 31.155892 Z" stroke="#a5a5a5" stroke-linecap="round" stroke-linejoin="round" stroke-width="1"/>
      <path d="M 96.81321 451.2 L 96.81321 451.2 C 96.74753 451.7255 96.81036 452.25905 96.9963 452.7549 L 97.64731 454.4909 C 97.82406 454.96227 98.05115 455.4132 98.32462 455.8358 L 99.29243 457.33153 C 99.83339 458.16756 100.54649 458.87855 101.38412 459.417 L 102.46217 460.11005 C 102.76243 460.3031 103.077 460.47285 103.40316 460.6179 L 104.72001 461.2035 C 105.31654 461.46876 105.94725 461.6493 106.59379 461.7398 L 115.60421 463.00126 C 115.6142 463.00265 115.6242 463.00403 115.6342 463.0054 L 127.3502 464.594 C 127.3962 464.60024 127.44226 464.606 127.48838 464.61134 L 137.77131 465.79783 C 137.80324 465.8015 137.83519 465.805 137.86716 465.8082 L 151.57723 467.1991 C 151.60521 467.20193 151.63321 467.2046 151.66123 467.2071 L 162.76653 468.19865 C 162.80164 468.2018 162.83679 468.20466 162.87195 468.20726 L 173.55848 468.99886 C 173.59896 469.00185 173.63947 469.0045 173.68 469.0068 L 184.18798 469.6016 C 184.2088 469.60276 184.2296 469.60404 184.25042 469.6054 L 196.2932 470.3951 C 196.3772 470.4006 196.46129 470.4046 196.54543 470.40707 L 209.99256 470.80257 C 210.01032 470.8031 210.02809 470.8037 210.04585 470.80434 L 220.6897 471.19856 C 220.77603 471.20176 220.8624 471.20335 220.9488 471.20335 L 231.5578 471.20335 C 231.59874 471.20335 231.63967 471.2037 231.6806 471.20443 L 242.76702 471.39893 C 242.9351 471.4019 243.1032 471.3988 243.27106 471.3896 L 253.8923 470.8103 C 253.9769 470.80566 254.06157 470.8026 254.1463 470.80104 L 264.91085 470.6053 C 264.98308 470.604 265.0553 470.6016 265.12745 470.59803 L 277.14607 470.00695 C 277.19483 470.00455 277.24355 470.00165 277.29225 469.99823 L 288.5323 469.20945 C 288.59023 469.2054 288.64812 469.2006 288.70594 469.1951 L 301.1165 468.01313 C 301.18497 468.0066 301.25352 468.0011 301.32214 467.9966 L 313.25416 467.2142 C 313.36418 467.20696 313.474 467.19715 313.58355 467.18475 L 323.9959 466.006 C 324.01144 466.00423 324.02697 466.0024 324.0425 466.00056 L 333.9902 464.80683 C 334.00954 464.8045 334.02886 464.8021 334.04818 464.79963 L 347.88394 463.0221 C 347.98115 463.0096 348.0781 462.9951 348.1747 462.9785 L 354.7282 461.85506 C 354.92915 461.8206 355.13153 461.79495 355.33473 461.77817 L 358.56706 461.5112 C 359.4563 461.43775 360.3233 461.19497 361.12135 460.79594 L 362.60765 460.0528 C 363.20824 459.7525 363.7625 459.36735 364.2534 458.9092 L 365.5885 457.6631 C 366.1953 457.0967 366.65073 456.3875 366.9132 455.6 L 367.20805 454.7155 C 367.2781 454.5053 367.33817 454.29187 367.388 454.07595 L 367.8577 452.04056 C 367.89293 451.8879 367.8595 451.7275 367.7662 451.6017 L 367.7662 451.6017 C 367.67587 451.4798 367.52523 451.4183 367.3754 451.44214 L 358.89555 452.7912 C 358.84466 452.7993 358.79385 452.80796 358.74315 452.8172 L 345.7584 455.17805 C 345.6656 455.1949 345.5725 455.2099 345.4791 455.223 L 334.24943 456.7991 C 334.2293 456.80194 334.20914 456.80486 334.18902 456.80786 L 321.06643 458.76645 C 320.90167 458.79105 320.73608 458.80975 320.56998 458.8225 L 307.84517 459.80136 C 307.82786 459.8027 307.81055 459.80396 307.79323 459.80516 L 293.4531 460.801 C 293.4305 460.80257 293.4079 460.80403 293.3853 460.8054 L 280.08205 461.5996 C 280.04016 461.6021 279.99824 461.60423 279.9563 461.606 L 265.76485 462.1973 C 265.66776 462.20133 265.5706 462.20335 265.47344 462.20335 L 252.2192 462.20335 L 239.67753 462.20335 C 239.63865 462.20335 239.59976 462.2037 239.56088 462.2043 L 227.8025 462.4003 C 227.68032 462.40234 227.55812 462.40117 227.436 462.3968 L 216.6024 462.0099 C 216.4803 462.00554 216.35809 462.0044 216.23591 462.0064 L 204.52127 462.20165 C 204.45323 462.2028 204.38518 462.20293 204.31713 462.2021 L 188.61484 462.0058 C 188.48444 462.00417 188.35411 461.9989 188.224 461.99 L 173.91423 461.00986 C 173.85088 461.0055 173.7876 461.0003 173.7244 460.99426 L 159.23339 459.6047 C 159.22393 459.6038 159.21448 459.6029 159.20503 459.60194 L 145.393 458.22073 C 145.27715 458.20915 145.16162 458.1947 145.0465 458.17733 L 130.73735 456.02116 C 130.65859 456.0093 130.57964 455.99877 130.50052 455.9896 L 116.98059 454.42207 C 116.87301 454.4096 116.76574 454.3946 116.65886 454.3772 L 107.26677 452.84377 C 107.10178 452.81684 106.9378 452.784 106.77516 452.7453 L 97.69756 450.58654 C 97.30925 450.4942 96.91959 450.7341 96.82724 451.12244 C 96.82116 451.148 96.81647 451.1739 96.81321 451.2 Z" fill="white"/>
      <path d="M 96.81321 451.2 L 96.81321 451.2 C 96.74753 451.7255 96.81036 452.25905 96.9963 452.7549 L 97.64731 454.4909 C 97.82406 454.96227 98.05115 455.4132 98.32462 455.8358 L 99.29243 457.33153 C 99.83339 458.16756 100.54649 458.87855 101.38412 459.417 L 102.46217 460.11005 C 102.76243 460.3031 103.077 460.47285 103.40316 460.6179 L 104.72001 461.2035 C 105.31654 461.46876 105.94725 461.6493 106.59379 461.7398 L 115.60421 463.00126 C 115.6142 463.00265 115.6242 463.00403 115.6342 463.0054 L 127.3502 464.594 C 127.3962 464.60024 127.44226 464.606 127.48838 464.61134 L 137.77131 465.79783 C 137.80324 465.8015 137.83519 465.805 137.86716 465.8082 L 151.57723 467.1991 C 151.60521 467.20193 151.63321 467.2046 151.66123 467.2071 L 162.76653 468.19865 C 162.80164 468.2018 162.83679 468.20466 162.87195 468.20726 L 173.55848 468.99886 C 173.59896 469.00185 173.63947 469.0045 173.68 469.0068 L 184.18798 469.6016 C 184.2088 469.60276 184.2296 469.60404 184.25042 469.6054 L 196.2932 470.3951 C 196.3772 470.4006 196.46129 470.4046 196.54543 470.40707 L 209.99256 470.80257 C 210.01032 470.8031 210.02809 470.8037 210.04585 470.80434 L 220.6897 471.19856 C 220.77603 471.20176 220.8624 471.20335 220.9488 471.20335 L 231.5578 471.20335 C 231.59874 471.20335 231.63967 471.2037 231.6806 471.20443 L 242.76702 471.39893 C 242.9351 471.4019 243.1032 471.3988 243.27106 471.3896 L 253.8923 470.8103 C 253.9769 470.80566 254.06157 470.8026 254.1463 470.80104 L 264.91085 470.6053 C 264.98308 470.604 265.0553 470.6016 265.12745 470.59803 L 277.14607 470.00695 C 277.19483 470.00455 277.24355 470.00165 277.29225 469.99823 L 288.5323 469.20945 C 288.59023 469.2054 288.64812 469.2006 288.70594 469.1951 L 301.1165 468.01313 C 301.18497 468.0066 301.25352 468.0011 301.32214 467.9966 L 313.25416 467.2142 C 313.36418 467.20696 313.474 467.19715 313.58355 467.18475 L 323.9959 466.006 C 324.01144 466.00423 324.02697 466.0024 324.0425 466.00056 L 333.9902 464.80683 C 334.00954 464.8045 334.02886 464.8021 334.04818 464.79963 L 347.88394 463.0221 C 347.98115 463.0096 348.0781 462.9951 348.1747 462.9785 L 354.7282 461.85506 C 354.92915 461.8206 355.13153 461.79495 355.33473 461.77817 L 358.56706 461.5112 C 359.4563 461.43775 360.3233 461.19497 361.12135 460.79594 L 362.60765 460.0528 C 363.20824 459.7525 363.7625 459.36735 364.2534 458.9092 L 365.5885 457.6631 C 366.1953 457.0967 366.65073 456.3875 366.9132 455.6 L 367.20805 454.7155 C 367.2781 454.5053 367.33817 454.29187 367.388 454.07595 L 367.8577 452.04056 C 367.89293 451.8879 367.8595 451.7275 367.7662 451.6017 L 367.7662 451.6017 C 367.67587 451.4798 367.52523 451.4183 367.3754 451.44214 L 358.89555 452.7912 C 358.84466 452.7993 358.79385 452.80796 358.74315 452.8172 L 345.7584 455.17805 C 345.6656 455.1949 345.5725 455.2099 345.4791 455.223 L 334.24943 456.7991 C 334.2293 456.80194 334.20914 456.80486 334.18902 456.80786 L 321.06643 458.76645 C 320.90167 458.79105 320.73608 458.80975 320.56998 458.8225 L 307.84517 459.80136 C 307.82786 459.8027 307.81055 459.80396 307.79323 459.80516 L 293.4531 460.801 C 293.4305 460.80257 293.4079 460.80403 293.3853 460.8054 L 280.08205 461.5996 C 280.04016 461.6021 279.99824 461.60423 279.9563 461.606 L 265.76485 462.1973 C 265.66776 462.20133 265.5706 462.20335 265.47344 462.20335 L 252.2192 462.20335 L 239.67753 462.20335 C 239.63865 462.20335 239.59976 462.2037 239.56088 462.2043 L 227.8025 462.4003 C 227.68032 462.40234 227.55812 462.40117 227.436 462.3968 L 216.6024 462.0099 C 216.4803 462.00554 216.35809 462.0044 216.23591 462.0064 L 204.52127 462.20165 C 204.45323 462.2028 204.38518 462.20293 204.31713 462.2021 L 188.61484 462.0058 C 188.48444 462.00417 188.35411 461.9989 188.224 461.99 L 173.91423 461.00986 C 173.85088 461.0055 173.7876 461.0003 173.7244 460.99426 L 159.23339 459.6047 C 159.22393 459.6038 159.21448 459.6029 159.20503 459.60194 L 145.393 458.22073 C 145.27715 458.20915 145.16162 458.1947 145.0465 458.17733 L 130.73735 456.02116 C 130.65859 456.0093 130.57964 455.99877 130.50052 455.9896 L 116.98059 454.42207 C 116.87301 454.4096 116.76574 454.3946 116.65886 454.3772 L 107.26677 452.84377 C 107.10178 452.81684 106.9378 452.784 106.77516 452.7453 L 97.69756 450.58654 C 97.30925 450.4942 96.91959 450.7341 96.82724 451.12244 C 96.82116 451.148 96.81647 451.1739 96.81321 451.2 Z" stroke="black" stroke-linecap="round" stroke-linejoin="round" stroke-width="1"/>
    </g>
  </g>
</svg>
