<?xml version="1.0" encoding="UTF-8" standalone="no"?>
<!DOCTYPE svg PUBLIC "-//W3C//DTD SVG 1.1//EN" "http://www.w3.org/Graphics/SVG/1.1/DTD/svg11.dtd">
<svg xmlns="http://www.w3.org/2000/svg" xmlns:xl="http://www.w3.org/1999/xlink" version="1.1" viewBox="543.5 405.5 432.4053 448.4" width="432.4053pt" height="448.4pt" xmlns:dc="http://purl.org/dc/elements/1.1/">
  <metadata> Produced by OmniGraffle 7.4.2 
    <dc:date>2018-03-15 05:39:37 +0000</dc:date>
  </metadata>
  <defs>
    <radialGradient cx="0" cy="0" r="1" id="Gradient" gradientUnits="userSpaceOnUse">
      <stop offset="0" stop-color="#cbcbcb"/>
      <stop offset="1" stop-color="black"/>
    </radialGradient>
    <radialGradient id="Obj_Gradient" xl:href="#Gradient" gradientTransform="translate(758.75925 433.4) scale(70.26272)"/>
  </defs>
  <g stroke="none" stroke-opacity="1" stroke-dasharray="none" fill="none" fill-opacity="1">
    <title>senegal</title>
    <rect fill="white" width="432.4053" height="448.4"/>
    <g>
      <title>Capa 1</title>
      <path d="M 697.00565 406.59045 L 705.1711 409.70816 C 706.0291 410.03576 706.9059 410.31167 707.7969 410.5344 L 721.5141 413.9637 C 722.6758 414.25413 723.8583 414.4534 725.051 414.55966 L 742.57715 416.1214 C 743.165 416.1738 743.7546 416.2035 744.3448 416.21054 L 759.8237 416.3948 C 760.114 416.39827 760.4044 416.39623 760.6947 416.3887 L 775.118 416.01406 C 775.4788 416.0047 775.8393 415.98683 776.1992 415.9605 L 790.5705 414.90893 C 791.562 414.8364 792.5477 414.69964 793.5214 414.49956 L 805.0944 412.12155 C 806.1364 411.90744 807.1623 411.6213 808.16465 411.2652 L 819.9166 407.09014 C 821.007 406.70277 822.2102 407.23354 822.65925 408.3 L 822.65925 408.3 C 823.1814 409.5401 823.3334 410.90485 823.0968 412.22945 L 822.9164 413.24014 C 822.6126 414.9413 822.1181 416.6028 821.4421 418.1932 L 819.8989 421.8243 C 819.3404 423.1386 818.6606 424.398 817.8685 425.5862 L 814.1827 431.11485 C 813.4352 432.2361 812.5906 433.2895 811.6586 434.2629 L 805.3635 440.83774 C 804.4955 441.7444 803.5546 442.57846 802.5505 443.3316 L 794.1756 449.61277 C 793.2991 450.2701 792.3769 450.86394 791.4158 451.3898 L 784.2306 455.32133 C 782.9195 456.03874 781.5416 456.62664 780.1164 457.0767 L 773.4435 459.18393 C 771.7266 459.7261 769.952 460.0648 768.1561 460.1931 L 761.2697 460.68497 C 760.1974 460.76156 759.121 460.7629 758.0485 460.6889 L 749.6123 460.1071 C 748.5781 460.0358 747.5499 459.8946 746.5348 459.6846 L 739.3996 458.20835 C 737.44765 457.8045 735.5565 457.1486 733.7736 456.2572 L 729.1142 453.9275 C 727.8801 453.3104 726.704 452.58354 725.6001 451.75566 L 719.9182 447.4942 C 719.479 447.16483 719.0518 446.81987 718.6374 446.45995 L 712.8822 441.46203 C 712.0679 440.7549 711.3044 439.99135 710.5972 439.17706 L 706.192 434.1044 C 705.4379 433.236 704.75 432.3123 704.1341 431.34105 L 700.40036 425.4533 C 700.0398 424.8847 699.7044 424.30056 699.39505 423.70255 L 697.7747 420.56983 C 697.1655 419.39215 696.6594 418.164 696.2618 416.8991 L 694.9816 412.8256 C 694.7668 412.14225 694.5841 411.4492 694.434 410.7488 L 694.35925 410.4 C 694.1646 409.49157 694.27185 408.54443 694.6647 407.70254 L 694.75925 407.5 C 695.1537 406.6547 696.1342 406.2577 697.00565 406.59045 Z" fill="url(#Obj_Gradient)"/>
      <path d="M 697.00565 406.59045 L 705.1711 409.70816 C 706.0291 410.03576 706.9059 410.31167 707.7969 410.5344 L 721.5141 413.9637 C 722.6758 414.25413 723.8583 414.4534 725.051 414.55966 L 742.57715 416.1214 C 743.165 416.1738 743.7546 416.2035 744.3448 416.21054 L 759.8237 416.3948 C 760.114 416.39827 760.4044 416.39623 760.6947 416.3887 L 775.118 416.01406 C 775.4788 416.0047 775.8393 415.98683 776.1992 415.9605 L 790.5705 414.90893 C 791.562 414.8364 792.5477 414.69964 793.5214 414.49956 L 805.0944 412.12155 C 806.1364 411.90744 807.1623 411.6213 808.16465 411.2652 L 819.9166 407.09014 C 821.007 406.70277 822.2102 407.23354 822.65925 408.3 L 822.65925 408.3 C 823.1814 409.5401 823.3334 410.90485 823.0968 412.22945 L 822.9164 413.24014 C 822.6126 414.9413 822.1181 416.6028 821.4421 418.1932 L 819.8989 421.8243 C 819.3404 423.1386 818.6606 424.398 817.8685 425.5862 L 814.1827 431.11485 C 813.4352 432.2361 812.5906 433.2895 811.6586 434.2629 L 805.3635 440.83774 C 804.4955 441.7444 803.5546 442.57846 802.5505 443.3316 L 794.1756 449.61277 C 793.2991 450.2701 792.3769 450.86394 791.4158 451.3898 L 784.2306 455.32133 C 782.9195 456.03874 781.5416 456.62664 780.1164 457.0767 L 773.4435 459.18393 C 771.7266 459.7261 769.952 460.0648 768.1561 460.1931 L 761.2697 460.68497 C 760.1974 460.76156 759.121 460.7629 758.0485 460.6889 L 749.6123 460.1071 C 748.5781 460.0358 747.5499 459.8946 746.5348 459.6846 L 739.3996 458.20835 C 737.44765 457.8045 735.5565 457.1486 733.7736 456.2572 L 729.1142 453.9275 C 727.8801 453.3104 726.704 452.58354 725.6001 451.75566 L 719.9182 447.4942 C 719.479 447.16483 719.0518 446.81987 718.6374 446.45995 L 712.8822 441.46203 C 712.0679 440.7549 711.3044 439.99135 710.5972 439.17706 L 706.192 434.1044 C 705.4379 433.236 704.75 432.3123 704.1341 431.34105 L 700.40036 425.4533 C 700.0398 424.8847 699.7044 424.30056 699.39505 423.70255 L 697.7747 420.56983 C 697.1655 419.39215 696.6594 418.164 696.2618 416.8991 L 694.9816 412.8256 C 694.7668 412.14225 694.5841 411.4492 694.434 410.7488 L 694.35925 410.4 C 694.1646 409.49157 694.27185 408.54443 694.6647 407.70254 L 694.75925 407.5 C 695.1537 406.6547 696.1342 406.2577 697.00565 406.59045 Z" stroke="#7f8080" stroke-linecap="round" stroke-linejoin="round" stroke-width="1"/>
      <path d="M 632.97346 843.2638 L 646.7157 845.5542 C 646.8991 845.5847 647.083 845.6121 647.2673 845.6362 L 675.6209 849.3515 C 675.8675 849.3838 676.1147 849.4104 676.3625 849.4312 L 706.6054 851.9677 C 706.8623 851.9892 707.1197 852.0046 707.3773 852.0137 L 746.3082 853.39 C 746.4966 853.3967 746.68504 853.4 746.8735 853.4 L 778.3408 853.4 C 778.5075 853.4 778.6741 853.3974 778.8406 853.3922 L 803.8754 852.6099 C 804.0856 852.6033 804.2957 852.5926 804.5055 852.5777 L 826.5533 851.0168 C 826.7116 851.0056 826.8698 850.992 827.0277 850.9761 L 852.2881 848.4305 C 852.4899 848.4102 852.6912 848.386 852.892 848.358 L 876.6847 845.0427 C 876.8888 845.0142 877.0922 844.9819 877.295 844.9456 L 886.4908 843.3 C 891.8179 842.3467 895.4688 837.3931 894.8023 832.0226 L 892.5948 814.232 C 892.5921 814.2107 892.5895 814.1893 892.5869 814.168 L 889.0231 784.4695 C 889.0016 784.2898 888.9831 784.10985 888.9676 783.9296 L 886.6054 756.3704 C 886.5957 756.2568 886.5871 756.1431 886.5798 756.0294 L 885.1932 734.4377 C 885.1916 734.4126 885.1899 734.3874 885.1882 734.3623 L 883.596 711.276 C 883.5925 711.2253 883.5893 711.1747 883.5863 711.124 L 882.4099 691.3218 C 882.3972 691.1073 882.3887 690.89255 882.3846 690.6777 L 881.9924 670.08285 C 881.9913 670.0276 881.99 669.9724 881.9883 669.9172 L 881.3932 649.6828 C 881.3916 649.6276 881.3903 649.5724 881.3892 649.51715 L 880.9985 629.0076 C 880.9934 628.7359 880.9951 628.4641 881.0038 628.1925 L 881.5897 609.8329 C 881.5904 609.811 881.5912 609.789 881.592 609.7671 L 882.3801 587.8978 C 882.3872 587.6993 882.3981 587.5009 882.4126 587.3028 L 883.9701 566.0822 C 883.9839 565.8941 883.9944 565.7057 884.0015 565.51724 L 884.756 545.6184 C 884.7792 545.0066 884.8374 544.3967 884.9305 543.79165 L 887.6695 525.98813 C 887.7503 525.46304 887.8572 524.9423 887.9898 524.4278 L 892.6181 506.4702 C 892.7332 506.0236 892.8675 505.5822 893.0207 505.14725 L 898.7415 488.9076 C 898.9076 488.4361 899.0957 487.9727 899.3052 487.5188 L 904.8367 475.5338 C 904.9394 475.3113 905.0472 475.0912 905.16 474.87364 L 910.5222 464.5322 C 910.5679 464.4441 910.6145 464.35636 910.6618 464.2691 L 915.8778 454.6521 C 916.615 453.29276 917.5647 452.05987 918.6908 451 L 918.6908 451 C 919.366 450.36453 919.3982 449.302 918.7627 448.62684 C 918.6382 448.49456 918.4931 448.38337 918.333 448.2976 L 915.1188 446.57573 C 914.9002 446.4586 914.6788 446.34656 914.4549 446.2397 L 906.601 442.4912 C 906.1944 442.29716 905.7797 442.12036 905.3582 441.9613 L 895.6834 438.3104 C 895.4883 438.2368 895.2919 438.16703 895.0941 438.1011 L 882.3996 433.8696 C 882.2604 433.8232 882.1206 433.7787 881.9801 433.73616 L 869.0966 429.83206 C 869.026 429.8107 868.9557 429.78883 868.8854 429.7665 L 856.3814 425.78794 C 855.9878 425.6627 855.5992 425.52225 855.2164 425.36693 L 843.2405 420.50713 C 842.4088 420.16964 841.607 419.76277 840.8436 419.29083 L 831.2244 413.3444 C 831.0687 413.24814 830.9146 413.1492 830.7623 413.0477 L 825.8722 409.7876 C 824.8908 409.13335 824.0195 408.32745 823.2908 407.4 L 823.2908 407.4 C 823.1852 407.2656 822.9906 407.24225 822.8562 407.34785 C 822.7535 407.4286 822.7125 407.56513 822.7538 407.6891 L 822.8908 408.1 C 823.35 409.47775 823.4546 410.94904 823.1948 412.3779 L 822.7997 414.55115 C 822.5285 416.0428 822.0466 417.48835 821.3686 418.8444 L 819.8363 421.90904 C 819.5396 422.50244 819.2062 423.0768 818.8382 423.62883 L 815.6345 428.4344 C 815.2059 429.0773 814.7313 429.6883 814.2144 430.2626 L 809.6524 435.33156 C 809.6113 435.3772 809.57 435.4226 809.5284 435.46773 L 803.5342 441.97576 C 802.9064 442.6573 802.2207 443.283 801.4846 443.84587 L 796.4605 447.6879 C 796.0143 448.02906 795.5505 448.3465 795.071 448.6389 L 788.5846 452.594 C 787.9229 452.9975 787.2328 453.3523 786.5197 453.65576 L 779.4043 456.6836 C 778.5967 457.0273 777.7621 457.3039 776.90905 457.5107 L 772.83 458.4996 C 772.0052 458.69955 771.1657 458.83356 770.3196 458.90035 L 764.6194 459.35037 C 764.2005 459.38344 763.7804 459.4 763.3602 459.4 L 756.3279 459.4 C 755.5708 459.4 754.8146 459.34626 754.0651 459.2392 L 746.1187 458.104 C 745.6337 458.0347 745.1521 457.94317 744.6755 457.8297 L 738.7143 456.41035 C 737.5688 456.1376 736.4569 455.73927 735.3988 455.22253 L 729.1188 452.15556 C 728.6338 451.91867 728.161 451.6574 727.7024 451.3727 L 723.4905 448.75846 C 722.89135 448.38656 722.3174 447.97546 721.7725 447.52784 L 717.3264 443.8757 C 717.1027 443.69193 716.884 443.50214 716.6706 443.3065 L 712.8683 439.82104 C 712.417 439.40736 711.9898 438.9681 711.58885 438.50546 L 707.4701 433.75307 C 707.1507 433.38455 706.84836 433.0016 706.56395 432.6055 L 702.1343 426.4356 C 701.6394 425.7463 701.2001 425.0187 700.82064 424.2597 L 698.2442 419.1068 C 698.2086 419.0356 698.1735 418.96414 698.139 418.8924 L 696.8908 416.3 C 696.0401 414.53313 695.68455 412.5686 695.8621 410.61564 L 696.0423 408.6334 C 696.0661 408.3715 695.8731 408.13994 695.61125 408.11614 C 695.44886 408.1014 695.2902 408.17075 695.1908 408.3 L 695.1908 408.3 C 694.5273 409.1625 693.7472 409.92856 692.87285 410.57625 L 688.9763 413.46257 C 688.8526 413.5542 688.7276 413.644 688.6014 413.732 L 683.9791 416.9536 C 682.7924 417.7807 681.49895 418.4431 680.1342 418.9226 L 675.5271 420.5413 C 675.0365 420.71367 674.5546 420.90984 674.0832 421.12913 L 667.2364 424.3137 C 666.5402 424.63747 665.82165 424.91074 665.08625 425.13136 L 654.2159 428.3925 C 654.19914 428.3975 654.1824 428.40254 654.1657 428.4076 L 643.1976 431.7372 C 643.05974 431.77907 642.9224 431.8228 642.7857 431.86836 L 629.8645 436.17544 C 629.81534 436.1918 629.76614 436.20795 629.7169 436.22384 L 618.34946 439.89075 C 617.711 440.0967 617.0861 440.34263 616.47846 440.62704 L 608.5465 444.3399 C 608.17616 444.51323 607.8126 444.7007 607.4566 444.9019 L 601.5105 448.26276 C 600.2575 448.971 599.8158 450.5609 600.52406 451.81396 C 600.6012 451.9504 600.69045 452.0796 600.7908 452.2 L 601.6549 453.23693 C 602.40984 454.14287 603.0623 455.1295 603.6004 456.1788 L 606.6776 462.17924 C 606.75304 462.3264 606.8308 462.4724 606.9108 462.61715 L 610.86554 469.77337 C 610.949 469.92445 611.0301 470.07687 611.1086 470.23057 L 615.2169 478.26856 C 615.466 478.75587 615.6899 479.25563 615.88776 479.7659 L 619.3705 488.74776 C 619.384 488.7826 619.39765 488.81737 619.4114 488.8521 L 623.0077 497.93754 C 623.1297 498.2458 623.2421 498.5577 623.34476 498.87294 L 625.9666 506.9257 C 625.9827 506.97524 625.9986 507.02484 626.01424 507.0745 L 629.0863 516.8328 C 629.2891 517.47695 629.4509 518.1333 629.5707 518.7979 L 631.55605 529.8074 C 631.5792 529.9358 631.6008 530.0645 631.6208 530.1934 L 633.3267 541.1868 C 633.3694 541.4622 633.4049 541.7387 633.4332 542.016 L 634.32065 550.7127 C 634.3674 551.1707 634.3943 551.6305 634.4014 552.0908 L 634.58565 564.0664 C 634.5891 564.2888 634.5971 564.51105 634.6098 564.7331 L 635.3802 578.21465 C 635.38725 578.3382 635.39575 578.4617 635.4057 578.58506 L 636.73924 595.1594 C 636.7736 595.5863 636.7908 596.0144 636.7908 596.44264 L 636.7908 608.8924 C 636.7908 609.09746 636.7947 609.3025 636.8026 609.50735 L 637.38295 624.5965 C 637.3882 624.73216 637.3917 624.8679 637.3934 625.00365 L 637.5856 639.7999 C 637.58905 640.0666 637.58584 640.3333 637.576 640.5999 L 637.00174 656.104 C 636.9944 656.3013 636.9908 656.49875 636.9908 656.6962 L 636.9908 670.2924 C 636.9908 670.49746 636.98684 670.7025 636.97896 670.90736 L 636.3938 686.12236 C 636.3918 686.1741 636.3895 686.2259 636.38704 686.2776 L 635.5917 702.78055 C 635.5911 702.7935 635.59045 702.8065 635.5898 702.81945 L 634.7953 718.5106 C 634.7923 718.5702 634.78894 718.6298 634.78526 718.6893 L 633.59634 737.9101 C 633.5926 737.97 633.5886 738.03 633.5842 738.0899 L 631.8011 762.4594 C 631.7942 762.5531 631.7865 762.6468 631.778 762.7404 L 629.9921 782.3852 C 629.9912 782.3951 629.9903 782.4049 629.9894 782.4148 L 628.21864 801.4997 C 628.2001 801.6999 628.1777 801.8997 628.1516 802.099 L 626.1909 817.07175 C 626.0581 818.0859 625.78896 819.0776 625.3908 820.0197 L 625.3908 820.0197 C 624.9932 820.9605 624.74454 821.9574 624.6537 822.9747 L 623.8908 831.5197 C 623.383 837.2068 627.3415 842.3251 632.97346 843.2638 Z" fill="#00751a"/>
      <path d="M 632.97346 843.2638 L 646.7157 845.5542 C 646.8991 845.5847 647.083 845.6121 647.2673 845.6362 L 675.6209 849.3515 C 675.8675 849.3838 676.1147 849.4104 676.3625 849.4312 L 706.6054 851.9677 C 706.8623 851.9892 707.1197 852.0046 707.3773 852.0137 L 746.3082 853.39 C 746.4966 853.3967 746.68504 853.4 746.8735 853.4 L 778.3408 853.4 C 778.5075 853.4 778.6741 853.3974 778.8406 853.3922 L 803.8754 852.6099 C 804.0856 852.6033 804.2957 852.5926 804.5055 852.5777 L 826.5533 851.0168 C 826.7116 851.0056 826.8698 850.992 827.0277 850.9761 L 852.2881 848.4305 C 852.4899 848.4102 852.6912 848.386 852.892 848.358 L 876.6847 845.0427 C 876.8888 845.0142 877.0922 844.9819 877.295 844.9456 L 886.4908 843.3 C 891.8179 842.3467 895.4688 837.3931 894.8023 832.0226 L 892.5948 814.232 C 892.5921 814.2107 892.5895 814.1893 892.5869 814.168 L 889.0231 784.4695 C 889.0016 784.2898 888.9831 784.10985 888.9676 783.9296 L 886.6054 756.3704 C 886.5957 756.2568 886.5871 756.1431 886.5798 756.0294 L 885.1932 734.4377 C 885.1916 734.4126 885.1899 734.3874 885.1882 734.3623 L 883.596 711.276 C 883.5925 711.2253 883.5893 711.1747 883.5863 711.124 L 882.4099 691.3218 C 882.3972 691.1073 882.3887 690.89255 882.3846 690.6777 L 881.9924 670.08285 C 881.9913 670.0276 881.99 669.9724 881.9883 669.9172 L 881.3932 649.6828 C 881.3916 649.6276 881.3903 649.5724 881.3892 649.51715 L 880.9985 629.0076 C 880.9934 628.7359 880.9951 628.4641 881.0038 628.1925 L 881.5897 609.8329 C 881.5904 609.811 881.5912 609.789 881.592 609.7671 L 882.3801 587.8978 C 882.3872 587.6993 882.3981 587.5009 882.4126 587.3028 L 883.9701 566.0822 C 883.9839 565.8941 883.9944 565.7057 884.0015 565.51724 L 884.756 545.6184 C 884.7792 545.0066 884.8374 544.3967 884.9305 543.79165 L 887.6695 525.98813 C 887.7503 525.46304 887.8572 524.9423 887.9898 524.4278 L 892.6181 506.4702 C 892.7332 506.0236 892.8675 505.5822 893.0207 505.14725 L 898.7415 488.9076 C 898.9076 488.4361 899.0957 487.9727 899.3052 487.5188 L 904.8367 475.5338 C 904.9394 475.3113 905.0472 475.0912 905.16 474.87364 L 910.5222 464.5322 C 910.5679 464.4441 910.6145 464.35636 910.6618 464.2691 L 915.8778 454.6521 C 916.615 453.29276 917.5647 452.05987 918.6908 451 L 918.6908 451 C 919.366 450.36453 919.3982 449.302 918.7627 448.62684 C 918.6382 448.49456 918.4931 448.38337 918.333 448.2976 L 915.1188 446.57573 C 914.9002 446.4586 914.6788 446.34656 914.4549 446.2397 L 906.601 442.4912 C 906.1944 442.29716 905.7797 442.12036 905.3582 441.9613 L 895.6834 438.3104 C 895.4883 438.2368 895.2919 438.16703 895.0941 438.1011 L 882.3996 433.8696 C 882.2604 433.8232 882.1206 433.7787 881.9801 433.73616 L 869.0966 429.83206 C 869.026 429.8107 868.9557 429.78883 868.8854 429.7665 L 856.3814 425.78794 C 855.9878 425.6627 855.5992 425.52225 855.2164 425.36693 L 843.2405 420.50713 C 842.4088 420.16964 841.607 419.76277 840.8436 419.29083 L 831.2244 413.3444 C 831.0687 413.24814 830.9146 413.1492 830.7623 413.0477 L 825.8722 409.7876 C 824.8908 409.13335 824.0195 408.32745 823.2908 407.4 L 823.2908 407.4 C 823.1852 407.2656 822.9906 407.24225 822.8562 407.34785 C 822.7535 407.4286 822.7125 407.56513 822.7538 407.6891 L 822.8908 408.1 C 823.35 409.47775 823.4546 410.94904 823.1948 412.3779 L 822.7997 414.55115 C 822.5285 416.0428 822.0466 417.48835 821.3686 418.8444 L 819.8363 421.90904 C 819.5396 422.50244 819.2062 423.0768 818.8382 423.62883 L 815.6345 428.4344 C 815.2059 429.0773 814.7313 429.6883 814.2144 430.2626 L 809.6524 435.33156 C 809.6113 435.3772 809.57 435.4226 809.5284 435.46773 L 803.5342 441.97576 C 802.9064 442.6573 802.2207 443.283 801.4846 443.84587 L 796.4605 447.6879 C 796.0143 448.02906 795.5505 448.3465 795.071 448.6389 L 788.5846 452.594 C 787.9229 452.9975 787.2328 453.3523 786.5197 453.65576 L 779.4043 456.6836 C 778.5967 457.0273 777.7621 457.3039 776.90905 457.5107 L 772.83 458.4996 C 772.0052 458.69955 771.1657 458.83356 770.3196 458.90035 L 764.6194 459.35037 C 764.2005 459.38344 763.7804 459.4 763.3602 459.4 L 756.3279 459.4 C 755.5708 459.4 754.8146 459.34626 754.0651 459.2392 L 746.1187 458.104 C 745.6337 458.0347 745.1521 457.94317 744.6755 457.8297 L 738.7143 456.41035 C 737.5688 456.1376 736.4569 455.73927 735.3988 455.22253 L 729.1188 452.15556 C 728.6338 451.91867 728.161 451.6574 727.7024 451.3727 L 723.4905 448.75846 C 722.89135 448.38656 722.3174 447.97546 721.7725 447.52784 L 717.3264 443.8757 C 717.1027 443.69193 716.884 443.50214 716.6706 443.3065 L 712.8683 439.82104 C 712.417 439.40736 711.9898 438.9681 711.58885 438.50546 L 707.4701 433.75307 C 707.1507 433.38455 706.84836 433.0016 706.56395 432.6055 L 702.1343 426.4356 C 701.6394 425.7463 701.2001 425.0187 700.82064 424.2597 L 698.2442 419.1068 C 698.2086 419.0356 698.1735 418.96414 698.139 418.8924 L 696.8908 416.3 C 696.0401 414.53313 695.68455 412.5686 695.8621 410.61564 L 696.0423 408.6334 C 696.0661 408.3715 695.8731 408.13994 695.61125 408.11614 C 695.44886 408.1014 695.2902 408.17075 695.1908 408.3 L 695.1908 408.3 C 694.5273 409.1625 693.7472 409.92856 692.87285 410.57625 L 688.9763 413.46257 C 688.8526 413.5542 688.7276 413.644 688.6014 413.732 L 683.9791 416.9536 C 682.7924 417.7807 681.49895 418.4431 680.1342 418.9226 L 675.5271 420.5413 C 675.0365 420.71367 674.5546 420.90984 674.0832 421.12913 L 667.2364 424.3137 C 666.5402 424.63747 665.82165 424.91074 665.08625 425.13136 L 654.2159 428.3925 C 654.19914 428.3975 654.1824 428.40254 654.1657 428.4076 L 643.1976 431.7372 C 643.05974 431.77907 642.9224 431.8228 642.7857 431.86836 L 629.8645 436.17544 C 629.81534 436.1918 629.76614 436.20795 629.7169 436.22384 L 618.34946 439.89075 C 617.711 440.0967 617.0861 440.34263 616.47846 440.62704 L 608.5465 444.3399 C 608.17616 444.51323 607.8126 444.7007 607.4566 444.9019 L 601.5105 448.26276 C 600.2575 448.971 599.8158 450.5609 600.52406 451.81396 C 600.6012 451.9504 600.69045 452.0796 600.7908 452.2 L 601.6549 453.23693 C 602.40984 454.14287 603.0623 455.1295 603.6004 456.1788 L 606.6776 462.17924 C 606.75304 462.3264 606.8308 462.4724 606.9108 462.61715 L 610.86554 469.77337 C 610.949 469.92445 611.0301 470.07687 611.1086 470.23057 L 615.2169 478.26856 C 615.466 478.75587 615.6899 479.25563 615.88776 479.7659 L 619.3705 488.74776 C 619.384 488.7826 619.39765 488.81737 619.4114 488.8521 L 623.0077 497.93754 C 623.1297 498.2458 623.2421 498.5577 623.34476 498.87294 L 625.9666 506.9257 C 625.9827 506.97524 625.9986 507.02484 626.01424 507.0745 L 629.0863 516.8328 C 629.2891 517.47695 629.4509 518.1333 629.5707 518.7979 L 631.55605 529.8074 C 631.5792 529.9358 631.6008 530.0645 631.6208 530.1934 L 633.3267 541.1868 C 633.3694 541.4622 633.4049 541.7387 633.4332 542.016 L 634.32065 550.7127 C 634.3674 551.1707 634.3943 551.6305 634.4014 552.0908 L 634.58565 564.0664 C 634.5891 564.2888 634.5971 564.51105 634.6098 564.7331 L 635.3802 578.21465 C 635.38725 578.3382 635.39575 578.4617 635.4057 578.58506 L 636.73924 595.1594 C 636.7736 595.5863 636.7908 596.0144 636.7908 596.44264 L 636.7908 608.8924 C 636.7908 609.09746 636.7947 609.3025 636.8026 609.50735 L 637.38295 624.5965 C 637.3882 624.73216 637.3917 624.8679 637.3934 625.00365 L 637.5856 639.7999 C 637.58905 640.0666 637.58584 640.3333 637.576 640.5999 L 637.00174 656.104 C 636.9944 656.3013 636.9908 656.49875 636.9908 656.6962 L 636.9908 670.2924 C 636.9908 670.49746 636.98684 670.7025 636.97896 670.90736 L 636.3938 686.12236 C 636.3918 686.1741 636.3895 686.2259 636.38704 686.2776 L 635.5917 702.78055 C 635.5911 702.7935 635.59045 702.8065 635.5898 702.81945 L 634.7953 718.5106 C 634.7923 718.5702 634.78894 718.6298 634.78526 718.6893 L 633.59634 737.9101 C 633.5926 737.97 633.5886 738.03 633.5842 738.0899 L 631.8011 762.4594 C 631.7942 762.5531 631.7865 762.6468 631.778 762.7404 L 629.9921 782.3852 C 629.9912 782.3951 629.9903 782.4049 629.9894 782.4148 L 628.21864 801.4997 C 628.2001 801.6999 628.1777 801.8997 628.1516 802.099 L 626.1909 817.07175 C 626.0581 818.0859 625.78896 819.0776 625.3908 820.0197 L 625.3908 820.0197 C 624.9932 820.9605 624.74454 821.9574 624.6537 822.9747 L 623.8908 831.5197 C 623.383 837.2068 627.3415 842.3251 632.97346 843.2638 Z" stroke="#7f8080" stroke-linecap="round" stroke-linejoin="round" stroke-width="1"/>
      <path d="M 544 557.44615 L 550.2 561.84615 L 558.4 565.84615 L 567 569.44615 L 576 573.24615 L 587 577.24615 L 596.4 580.04615 L 605.4 582.64615 L 614.4 585.24615 L 619.8 586.64615 L 625.4 587.64615 L 627.8 581.84615 L 630.4 576.44615 L 632.6 572.44615 L 635.2 569.04615 L 635.4 560.04615 L 634.8 549.04615 L 633 538.24615 L 631.4 527.84615 L 628.8 516.84614 L 626.4 507.24614 L 623.6 499.24614 L 620.4 489.84614 L 617.6 482.44614 L 614 474.84614 L 610 467.24614 L 606 459.84614 L 603.4 456.24614 L 599.8 450.44614 L 594.4 454.84614 L 589.6 459.64614 L 585 465.84614 L 580.6 472.04614 L 575.8 480.64614 L 571 490.04614 L 566.2 499.24614 L 562.6 507.84614 L 558.6 516.84614 L 555.4 525.04615 L 551.6 534.44615 L 548.8 542.44615 L 545.8 550.84615 Z" fill="#005d0c"/>
      <path d="M 544 557.44615 L 550.2 561.84615 L 558.4 565.84615 L 567 569.44615 L 576 573.24615 L 587 577.24615 L 596.4 580.04615 L 605.4 582.64615 L 614.4 585.24615 L 619.8 586.64615 L 625.4 587.64615 L 627.8 581.84615 L 630.4 576.44615 L 632.6 572.44615 L 635.2 569.04615 L 635.4 560.04615 L 634.8 549.04615 L 633 538.24615 L 631.4 527.84615 L 628.8 516.84614 L 626.4 507.24614 L 623.6 499.24614 L 620.4 489.84614 L 617.6 482.44614 L 614 474.84614 L 610 467.24614 L 606 459.84614 L 603.4 456.24614 L 599.8 450.44614 L 594.4 454.84614 L 589.6 459.64614 L 585 465.84614 L 580.6 472.04614 L 575.8 480.64614 L 571 490.04614 L 566.2 499.24614 L 562.6 507.84614 L 558.6 516.84614 L 555.4 525.04615 L 551.6 534.44615 L 548.8 542.44615 L 545.8 550.84615 Z" stroke="#7f8080" stroke-linecap="round" stroke-linejoin="round" stroke-width="1"/>
      <path d="M 975.4053 556.50275 L 969.2053 560.90275 L 961.0053 564.90275 L 952.4053 568.50275 L 943.4053 572.30275 L 932.4053 576.30275 L 923.0053 579.10275 L 914.0053 581.70275 L 905.0053 584.30275 L 899.6053 585.70275 L 894.0053 586.70275 L 891.6053 580.90275 L 889.0053 575.50275 L 886.8053 571.50275 L 884.2053 568.10275 L 884.0053 559.10275 L 884.6053 548.10275 L 886.4053 537.30275 L 888.0053 526.90275 L 890.6053 515.90275 L 893.0053 506.30275 L 895.8053 498.30275 L 899.0053 488.90275 L 901.8053 481.50275 L 905.4053 473.90275 L 909.4053 466.30275 L 913.4053 458.90275 L 916.0053 455.30275 L 919.6053 449.50275 L 925.0053 453.90275 L 929.8053 458.70275 L 934.4053 464.90275 L 938.8053 471.10275 L 943.6053 479.70275 L 948.4053 489.10275 L 953.2053 498.30275 L 956.8053 506.90275 L 960.8053 515.90275 L 964.0053 524.10275 L 967.8053 533.50275 L 970.6053 541.50275 L 973.6053 549.90275 Z" fill="#006119"/>
      <path d="M 975.4053 556.50275 L 969.2053 560.90275 L 961.0053 564.90275 L 952.4053 568.50275 L 943.4053 572.30275 L 932.4053 576.30275 L 923.0053 579.10275 L 914.0053 581.70275 L 905.0053 584.30275 L 899.6053 585.70275 L 894.0053 586.70275 L 891.6053 580.90275 L 889.0053 575.50275 L 886.8053 571.50275 L 884.2053 568.10275 L 884.0053 559.10275 L 884.6053 548.10275 L 886.4053 537.30275 L 888.0053 526.90275 L 890.6053 515.90275 L 893.0053 506.30275 L 895.8053 498.30275 L 899.0053 488.90275 L 901.8053 481.50275 L 905.4053 473.90275 L 909.4053 466.30275 L 913.4053 458.90275 L 916.0053 455.30275 L 919.6053 449.50275 L 925.0053 453.90275 L 929.8053 458.70275 L 934.4053 464.90275 L 938.8053 471.10275 L 943.6053 479.70275 L 948.4053 489.10275 L 953.2053 498.30275 L 956.8053 506.90275 L 960.8053 515.90275 L 964.0053 524.10275 L 967.8053 533.50275 L 970.6053 541.50275 L 973.6053 549.90275 Z" stroke="#7f8080" stroke-linecap="round" stroke-linejoin="round" stroke-width="1"/>
      <path d="M 544 557.44615 L 550.2 561.84615 L 558.4 565.84615 L 567 569.44615 L 576 573.24615 L 587 577.24615 L 596.4 580.04615 L 605.4 582.64615 L 614.4 585.24615 L 619.8 586.64615 L 625.4 587.64615 L 628.4 581.24615 L 624.6 580.44615 L 619.8 579.24615 L 614.2 578.04615 L 608.2 576.24615 L 603.6 574.84615 L 599.4 573.64615 L 594.8 571.64615 L 590.2 570.04615 L 585.4 568.04615 L 581.4 566.64615 L 576.2 564.44615 L 571.6 562.84615 L 566.8 560.64615 L 562 558.84615 L 558 556.84615 L 553.6 554.64615 L 549.2 552.44615 L 545.8 550.84615 Z" fill="yellow"/>
      <path d="M 544 557.44615 L 550.2 561.84615 L 558.4 565.84615 L 567 569.44615 L 576 573.24615 L 587 577.24615 L 596.4 580.04615 L 605.4 582.64615 L 614.4 585.24615 L 619.8 586.64615 L 625.4 587.64615 L 628.4 581.24615 L 624.6 580.44615 L 619.8 579.24615 L 614.2 578.04615 L 608.2 576.24615 L 603.6 574.84615 L 599.4 573.64615 L 594.8 571.64615 L 590.2 570.04615 L 585.4 568.04615 L 581.4 566.64615 L 576.2 564.44615 L 571.6 562.84615 L 566.8 560.64615 L 562 558.84615 L 558 556.84615 L 553.6 554.64615 L 549.2 552.44615 L 545.8 550.84615 Z" stroke="#7f8080" stroke-linecap="round" stroke-linejoin="round" stroke-width="1"/>
      <path d="M 975.4053 556.50275 L 969.2053 560.90275 L 961.0053 564.90275 L 952.4053 568.50275 L 943.4053 572.30275 L 932.4053 576.30275 L 923.0053 579.10275 L 914.0053 581.70275 L 905.0053 584.30275 L 899.6053 585.70275 L 894.0053 586.70275 L 891.0053 580.30275 L 894.8053 579.50275 L 899.6053 578.30275 L 905.2053 577.10275 L 911.2053 575.30275 L 915.8053 573.90275 L 920.0053 572.70275 L 924.6053 570.70275 L 929.2053 569.10275 L 934.0053 567.10275 L 938.0053 565.70275 L 943.2053 563.50275 L 947.8053 561.90275 L 952.6053 559.70275 L 957.4053 557.90275 L 961.4053 555.90275 L 965.8053 553.70275 L 970.2053 551.50275 L 973.6053 549.90275 Z" fill="yellow"/>
      <path d="M 975.4053 556.50275 L 969.2053 560.90275 L 961.0053 564.90275 L 952.4053 568.50275 L 943.4053 572.30275 L 932.4053 576.30275 L 923.0053 579.10275 L 914.0053 581.70275 L 905.0053 584.30275 L 899.6053 585.70275 L 894.0053 586.70275 L 891.0053 580.30275 L 894.8053 579.50275 L 899.6053 578.30275 L 905.2053 577.10275 L 911.2053 575.30275 L 915.8053 573.90275 L 920.0053 572.70275 L 924.6053 570.70275 L 929.2053 569.10275 L 934.0053 567.10275 L 938.0053 565.70275 L 943.2053 563.50275 L 947.8053 561.90275 L 952.6053 559.70275 L 957.4053 557.90275 L 961.4053 555.90275 L 965.8053 553.70275 L 970.2053 551.50275 L 973.6053 549.90275 Z" stroke="#7f8080" stroke-linecap="round" stroke-linejoin="round" stroke-width="1"/>
      <path d="M 694.5721 407.9638 L 689.84295 412.01736 C 688.6926 413.00338 687.44764 413.8733 686.1262 414.6145 L 683.5996 416.03165 C 682.1644 416.8366 681.5836 418.60575 682.2624 420.10473 L 683.28 422.35197 C 683.4016 422.62046 683.5283 422.8866 683.6601 423.1502 L 685.4624 426.75474 L 687.9494 431.7287 C 688.2912 432.4123 688.6668 433.07843 689.07495 433.7246 L 691.40134 437.4081 C 691.8417 438.10535 692.3193 438.7784 692.83195 439.4244 L 696.2426 443.72185 C 696.7887 444.4099 697.3737 445.06606 697.9948 445.68717 L 702.6609 450.3532 C 703.06175 450.7541 703.4773 451.14 703.9067 451.5102 L 708.4702 455.44426 C 708.8649 455.7845 709.271 456.1112 709.68785 456.4238 L 713.6628 459.40503 C 714.3287 459.90447 715.0212 460.3674 715.7373 460.79174 L 719.8704 463.24096 C 719.9984 463.3168 720.1271 463.3914 720.2566 463.46477 L 724.9541 466.1267 C 725.6924 466.5451 726.4533 466.92226 727.23325 467.25653 L 730.7831 468.7779 C 731.369 469.029 731.9652 469.25567 732.57 469.45726 L 737.5881 471.12997 C 738.8353 471.5457 740.1159 471.85376 741.4158 472.0507 L 745.5146 472.67174 C 745.8798 472.72706 746.24615 472.7736 746.6135 472.81126 L 753.4946 473.517 C 753.7398 473.54216 753.9853 473.56336 754.2312 473.5806 L 758.75835 473.8983 C 759.2942 473.9359 759.8312 473.95473 760.3684 473.95473 L 763.6305 473.95474 C 764.5842 473.95474 765.5369 473.8954 766.4833 473.7771 L 770.472 473.27854 C 771.1319 473.19604 771.788 473.08496 772.43835 472.9456 L 778.5204 471.6423 C 779.4143 471.45076 780.2959 471.2061 781.1607 470.9096 L 785.6695 469.3637 C 786.4642 469.09127 787.2433 468.7755 788.0034 468.4178 L 792.8368 466.14326 C 793.387 465.88435 793.9267 465.6037 794.4546 465.302 L 798.2225 463.14896 C 798.9153 462.7531 799.587 462.3214 800.2349 461.8557 L 804.9111 458.49475 C 805.4117 458.1349 805.8978 457.75503 806.3679 457.3561 L 811.6888 452.84144 C 812.0711 452.51706 812.4427 452.18026 812.803 451.8316 L 817.5022 447.28396 C 818.1418 446.665 818.7449 446.00944 819.3085 445.3206 L 823.1018 440.68434 C 823.6085 440.06503 824.0826 439.4197 824.522 438.75096 L 828.1392 433.24656 C 828.3546 432.91873 828.5616 432.58544 828.76 432.247 L 831.2831 427.9429 C 831.6691 427.28454 832.022 426.60735 832.3406 425.9139 L 834.4593 421.3026 C 834.9922 420.14285 835.3633 418.91544 835.5624 417.65474 L 835.5624 417.65474 C 835.7407 416.52547 835.1614 415.41203 834.1343 414.9099 L 828.8409 412.322 C 827.5264 411.67937 826.2918 410.88486 825.1624 409.95474 L 824.7564 409.62037 C 823.9121 408.92504 823.2886 407.99874 822.9624 406.95474 L 822.9624 406.95474 C 822.9157 406.8054 822.7569 406.7222 822.6075 406.76886 C 822.4925 406.8048 822.4128 406.9097 822.4089 407.0302 L 822.2997 410.4531 C 822.2089 413.2962 821.5916 416.09776 820.479 418.71567 L 819.6021 420.77904 C 819.0435 422.0933 818.3637 423.3527 817.5716 424.5409 L 813.8858 430.0696 C 813.1383 431.19085 812.2937 432.24425 811.36175 433.2176 L 805.0667 439.79247 C 804.1986 440.6991 803.2578 441.5332 802.2536 442.28633 L 793.8787 448.5675 C 793.0023 449.2248 792.08 449.8187 791.119 450.34454 L 783.9338 454.27606 C 782.6226 454.99347 781.2447 455.58137 779.8195 456.03143 L 773.1466 458.13867 C 771.4297 458.68084 769.6551 459.01954 767.8593 459.1478 L 760.9728 459.6397 C 759.9005 459.7163 758.8242 459.7176 757.7517 459.64365 L 749.3154 459.06184 C 748.28125 458.9905 747.2531 458.84936 746.23795 458.63933 L 739.1027 457.1631 C 737.1508 456.75923 735.2596 456.10335 733.4768 455.2119 L 728.81735 452.8822 C 727.5832 452.26515 726.4071 451.5383 725.3033 450.7104 L 719.6213 446.4489 C 719.1822 446.11957 718.755 445.7746 718.3405 445.4147 L 712.5853 440.41676 C 711.77104 439.7096 711.0075 438.9461 710.3004 438.1318 L 705.8951 433.0591 C 705.141 432.19075 704.4531 431.26705 703.8372 430.2958 L 700.1035 424.408 C 699.7429 423.83944 699.4075 423.2553 699.0982 422.6573 L 697.4778 419.52456 C 696.8687 418.3469 696.3625 417.11874 695.965 415.85385 L 694.6847 411.78036 C 694.46995 411.097 694.2872 410.40395 694.1371 409.7035 L 693.9117 408.65157 C 693.8266 408.25456 694.053 407.8569 694.4378 407.72737 L 694.4378 407.72737 C 694.5103 407.70296 694.58884 407.74195 694.61325 407.81444 C 694.6313 407.86795 694.615 407.92704 694.5721 407.9638 Z" fill="yellow"/>
      <path d="M 694.5721 407.9638 L 689.84295 412.01736 C 688.6926 413.00338 687.44764 413.8733 686.1262 414.6145 L 683.5996 416.03165 C 682.1644 416.8366 681.5836 418.60575 682.2624 420.10473 L 683.28 422.35197 C 683.4016 422.62046 683.5283 422.8866 683.6601 423.1502 L 685.4624 426.75474 L 687.9494 431.7287 C 688.2912 432.4123 688.6668 433.07843 689.07495 433.7246 L 691.40134 437.4081 C 691.8417 438.10535 692.3193 438.7784 692.83195 439.4244 L 696.2426 443.72185 C 696.7887 444.4099 697.3737 445.06606 697.9948 445.68717 L 702.6609 450.3532 C 703.06175 450.7541 703.4773 451.14 703.9067 451.5102 L 708.4702 455.44426 C 708.8649 455.7845 709.271 456.1112 709.68785 456.4238 L 713.6628 459.40503 C 714.3287 459.90447 715.0212 460.3674 715.7373 460.79174 L 719.8704 463.24096 C 719.9984 463.3168 720.1271 463.3914 720.2566 463.46477 L 724.9541 466.1267 C 725.6924 466.5451 726.4533 466.92226 727.23325 467.25653 L 730.7831 468.7779 C 731.369 469.029 731.9652 469.25567 732.57 469.45726 L 737.5881 471.12997 C 738.8353 471.5457 740.1159 471.85376 741.4158 472.0507 L 745.5146 472.67174 C 745.8798 472.72706 746.24615 472.7736 746.6135 472.81126 L 753.4946 473.517 C 753.7398 473.54216 753.9853 473.56336 754.2312 473.5806 L 758.75835 473.8983 C 759.2942 473.9359 759.8312 473.95473 760.3684 473.95473 L 763.6305 473.95474 C 764.5842 473.95474 765.5369 473.8954 766.4833 473.7771 L 770.472 473.27854 C 771.1319 473.19604 771.788 473.08496 772.43835 472.9456 L 778.5204 471.6423 C 779.4143 471.45076 780.2959 471.2061 781.1607 470.9096 L 785.6695 469.3637 C 786.4642 469.09127 787.2433 468.7755 788.0034 468.4178 L 792.8368 466.14326 C 793.387 465.88435 793.9267 465.6037 794.4546 465.302 L 798.2225 463.14896 C 798.9153 462.7531 799.587 462.3214 800.2349 461.8557 L 804.9111 458.49475 C 805.4117 458.1349 805.8978 457.75503 806.3679 457.3561 L 811.6888 452.84144 C 812.0711 452.51706 812.4427 452.18026 812.803 451.8316 L 817.5022 447.28396 C 818.1418 446.665 818.7449 446.00944 819.3085 445.3206 L 823.1018 440.68434 C 823.6085 440.06503 824.0826 439.4197 824.522 438.75096 L 828.1392 433.24656 C 828.3546 432.91873 828.5616 432.58544 828.76 432.247 L 831.2831 427.9429 C 831.6691 427.28454 832.022 426.60735 832.3406 425.9139 L 834.4593 421.3026 C 834.9922 420.14285 835.3633 418.91544 835.5624 417.65474 L 835.5624 417.65474 C 835.7407 416.52547 835.1614 415.41203 834.1343 414.9099 L 828.8409 412.322 C 827.5264 411.67937 826.2918 410.88486 825.1624 409.95474 L 824.7564 409.62037 C 823.9121 408.92504 823.2886 407.99874 822.9624 406.95474 L 822.9624 406.95474 C 822.9157 406.8054 822.7569 406.7222 822.6075 406.76886 C 822.4925 406.8048 822.4128 406.9097 822.4089 407.0302 L 822.2997 410.4531 C 822.2089 413.2962 821.5916 416.09776 820.479 418.71567 L 819.6021 420.77904 C 819.0435 422.0933 818.3637 423.3527 817.5716 424.5409 L 813.8858 430.0696 C 813.1383 431.19085 812.2937 432.24425 811.36175 433.2176 L 805.0667 439.79247 C 804.1986 440.6991 803.2578 441.5332 802.2536 442.28633 L 793.8787 448.5675 C 793.0023 449.2248 792.08 449.8187 791.119 450.34454 L 783.9338 454.27606 C 782.6226 454.99347 781.2447 455.58137 779.8195 456.03143 L 773.1466 458.13867 C 771.4297 458.68084 769.6551 459.01954 767.8593 459.1478 L 760.9728 459.6397 C 759.9005 459.7163 758.8242 459.7176 757.7517 459.64365 L 749.3154 459.06184 C 748.28125 458.9905 747.2531 458.84936 746.23795 458.63933 L 739.1027 457.1631 C 737.1508 456.75923 735.2596 456.10335 733.4768 455.2119 L 728.81735 452.8822 C 727.5832 452.26515 726.4071 451.5383 725.3033 450.7104 L 719.6213 446.4489 C 719.1822 446.11957 718.755 445.7746 718.3405 445.4147 L 712.5853 440.41676 C 711.77104 439.7096 711.0075 438.9461 710.3004 438.1318 L 705.8951 433.0591 C 705.141 432.19075 704.4531 431.26705 703.8372 430.2958 L 700.1035 424.408 C 699.7429 423.83944 699.4075 423.2553 699.0982 422.6573 L 697.4778 419.52456 C 696.8687 418.3469 696.3625 417.11874 695.965 415.85385 L 694.6847 411.78036 C 694.46995 411.097 694.2872 410.40395 694.1371 409.7035 L 693.9117 408.65157 C 693.8266 408.25456 694.053 407.8569 694.4378 407.72737 L 694.4378 407.72737 C 694.5103 407.70296 694.58884 407.74195 694.61325 407.81444 C 694.6313 407.86795 694.615 407.92704 694.5721 407.9638 Z" stroke="#7f8080" stroke-linecap="round" stroke-linejoin="round" stroke-width="1"/>
      <path d="M 694.05925 407.7559 L 699.45925 407.1559 L 706.25925 410.5559 L 711.25925 412.3559 L 719.65925 414.1559 L 728.05925 415.1559 L 736.05925 416.1559 L 743.65925 416.3559 L 752.25925 416.7559 L 763.85925 416.5559 L 772.25925 416.1559 L 781.65925 415.5559 L 790.05925 414.7559 L 799.25925 413.3559 L 807.45925 411.1559 L 813.25925 409.3559 L 818.85925 406.7559 L 821.65925 407.9559 L 822.05925 413.5559 L 819.25925 421.5559 L 813.85925 424.3559 L 803.25925 427.5559 L 791.85925 429.9559 L 780.65925 430.7559 L 768.25925 431.7559 L 757.85925 431.7559 L 748.45925 431.7559 L 736.85925 431.1559 L 725.65925 430.3559 L 715.05925 428.1559 L 706.45925 426.1559 L 700.25925 423.3559 L 698.25925 421.7559 L 695.05925 414.1559 Z" fill="yellow"/>
      <path d="M 694.05925 407.7559 L 699.45925 407.1559 L 706.25925 410.5559 L 711.25925 412.3559 L 719.65925 414.1559 L 728.05925 415.1559 L 736.05925 416.1559 L 743.65925 416.3559 L 752.25925 416.7559 L 763.85925 416.5559 L 772.25925 416.1559 L 781.65925 415.5559 L 790.05925 414.7559 L 799.25925 413.3559 L 807.45925 411.1559 L 813.25925 409.3559 L 818.85925 406.7559 L 821.65925 407.9559 L 822.05925 413.5559 L 819.25925 421.5559 L 813.85925 424.3559 L 803.25925 427.5559 L 791.85925 429.9559 L 780.65925 430.7559 L 768.25925 431.7559 L 757.85925 431.7559 L 748.45925 431.7559 L 736.85925 431.1559 L 725.65925 430.3559 L 715.05925 428.1559 L 706.45925 426.1559 L 700.25925 423.3559 L 698.25925 421.7559 L 695.05925 414.1559 Z" stroke="#7f8080" stroke-linecap="round" stroke-linejoin="round" stroke-width="1"/>
      <path d="M 623.8132 833.2 L 623.8132 833.2 C 623.7475 833.7255 623.81036 834.2591 623.9963 834.7549 L 624.6473 836.4909 C 624.82406 836.9623 625.05115 837.4132 625.3246 837.8358 L 626.2924 839.3315 C 626.8334 840.1676 627.5465 840.8785 628.3841 841.417 L 629.4622 842.1101 C 629.7624 842.3031 630.077 842.4728 630.40316 842.6179 L 631.72 843.2035 C 632.31654 843.4688 632.94725 843.6493 633.5938 843.7398 L 642.6042 845.0013 C 642.6142 845.0027 642.6242 845.004 642.6342 845.0054 L 654.3502 846.594 C 654.3962 846.6002 654.4423 846.606 654.4884 846.6113 L 664.7713 847.7978 C 664.80324 847.8015 664.8352 847.805 664.8672 847.8082 L 678.5772 849.1991 C 678.6052 849.2019 678.6332 849.2046 678.6612 849.2071 L 689.7665 850.1987 C 689.80164 850.2018 689.8368 850.2047 689.87195 850.2073 L 700.5585 850.9989 C 700.599 851.0019 700.6395 851.0045 700.68 851.0068 L 711.188 851.6016 C 711.2088 851.6028 711.2296 851.604 711.2504 851.6054 L 723.2932 852.3951 C 723.3772 852.4006 723.4613 852.4046 723.5454 852.4071 L 736.9926 852.8026 C 737.0103 852.8031 737.0281 852.8037 737.04585 852.8043 L 747.6897 853.1986 C 747.776 853.2018 747.8624 853.2034 747.9488 853.2034 L 758.5578 853.2034 C 758.5987 853.2034 758.6397 853.2037 758.6806 853.2044 L 769.767 853.3989 C 769.9351 853.4019 770.1032 853.3988 770.2711 853.3896 L 780.8923 852.8103 C 780.9769 852.8057 781.0616 852.8026 781.1463 852.801 L 791.91085 852.6053 C 791.9831 852.604 792.0553 852.6016 792.1274 852.598 L 804.1461 852.007 C 804.1948 852.0046 804.2436 852.0016 804.29225 851.9982 L 815.5323 851.2095 C 815.5902 851.2054 815.6481 851.2006 815.7059 851.1951 L 828.1165 850.0131 C 828.185 850.0066 828.2535 850.0011 828.3221 849.9966 L 840.2542 849.2142 C 840.3642 849.207 840.474 849.1972 840.5836 849.1847 L 850.9959 848.006 C 851.0114 848.0042 851.027 848.0024 851.0425 848.0006 L 860.9902 846.8068 C 861.0095 846.8045 861.0289 846.8021 861.0482 846.7996 L 874.8839 845.0221 C 874.9812 845.0096 875.0781 844.9951 875.1747 844.9785 L 881.7282 843.8551 C 881.9292 843.8206 882.1315 843.795 882.3347 843.7782 L 885.5671 843.5112 C 886.4563 843.4377 887.3233 843.195 888.1214 842.7959 L 889.6076 842.0528 C 890.2082 841.7525 890.7625 841.3674 891.2534 840.9092 L 892.5885 839.6631 C 893.1953 839.0967 893.6507 838.3875 893.9132 837.6 L 894.208 836.7155 C 894.2781 836.5053 894.3382 836.2919 894.388 836.0759 L 894.8577 834.0406 C 894.8929 833.8879 894.8595 833.7275 894.7662 833.6017 L 894.7662 833.6017 C 894.6759 833.4798 894.5252 833.4183 894.3754 833.4421 L 885.8955 834.7912 C 885.8447 834.7993 885.7939 834.808 885.7432 834.8172 L 872.7584 837.178 C 872.6656 837.1949 872.5725 837.2099 872.4791 837.223 L 861.2494 838.7991 C 861.2293 838.8019 861.2091 838.8049 861.189 838.8079 L 848.0664 840.7665 C 847.9017 840.791 847.7361 840.8097 847.57 840.8225 L 834.8452 841.8014 C 834.8279 841.8027 834.8105 841.804 834.7932 841.8052 L 820.4531 842.801 C 820.4305 842.8026 820.4079 842.804 820.3853 842.8054 L 807.0821 843.5996 C 807.0402 843.6021 806.9982 843.6042 806.9563 843.606 L 792.76485 844.1973 C 792.6678 844.2013 792.5706 844.2034 792.4734 844.2034 L 779.2192 844.2034 L 766.6775 844.2034 C 766.63865 844.2034 766.5998 844.2037 766.5609 844.2043 L 754.8025 844.4003 C 754.6803 844.4023 754.5581 844.4012 754.436 844.3968 L 743.6024 844.0099 C 743.4803 844.0055 743.3581 844.0044 743.2359 844.0064 L 731.5213 844.2017 C 731.4532 844.2028 731.3852 844.2029 731.3171 844.2021 L 715.61484 844.0058 C 715.48444 844.0042 715.3541 843.9989 715.224 843.99 L 700.9142 843.0099 C 700.8509 843.0055 700.7876 843.0003 700.7244 842.9943 L 686.2334 841.6047 C 686.2239 841.6038 686.2145 841.6029 686.205 841.6019 L 672.393 840.2207 C 672.27715 840.2091 672.1616 840.1947 672.0465 840.1773 L 657.73735 838.0212 C 657.6586 838.0093 657.5796 837.9988 657.5005 837.9896 L 643.9806 836.4221 C 643.873 836.4096 643.76574 836.3946 643.65886 836.3772 L 634.2668 834.8438 C 634.1018 834.8168 633.9378 834.784 633.7752 834.7453 L 624.6976 832.5865 C 624.30925 832.4942 623.9196 832.7341 623.82724 833.1224 C 623.82116 833.148 623.8165 833.1739 623.8132 833.2 Z" fill="yellow"/>
      <path d="M 623.8132 833.2 L 623.8132 833.2 C 623.7475 833.7255 623.81036 834.2591 623.9963 834.7549 L 624.6473 836.4909 C 624.82406 836.9623 625.05115 837.4132 625.3246 837.8358 L 626.2924 839.3315 C 626.8334 840.1676 627.5465 840.8785 628.3841 841.417 L 629.4622 842.1101 C 629.7624 842.3031 630.077 842.4728 630.40316 842.6179 L 631.72 843.2035 C 632.31654 843.4688 632.94725 843.6493 633.5938 843.7398 L 642.6042 845.0013 C 642.6142 845.0027 642.6242 845.004 642.6342 845.0054 L 654.3502 846.594 C 654.3962 846.6002 654.4423 846.606 654.4884 846.6113 L 664.7713 847.7978 C 664.80324 847.8015 664.8352 847.805 664.8672 847.8082 L 678.5772 849.1991 C 678.6052 849.2019 678.6332 849.2046 678.6612 849.2071 L 689.7665 850.1987 C 689.80164 850.2018 689.8368 850.2047 689.87195 850.2073 L 700.5585 850.9989 C 700.599 851.0019 700.6395 851.0045 700.68 851.0068 L 711.188 851.6016 C 711.2088 851.6028 711.2296 851.604 711.2504 851.6054 L 723.2932 852.3951 C 723.3772 852.4006 723.4613 852.4046 723.5454 852.4071 L 736.9926 852.8026 C 737.0103 852.8031 737.0281 852.8037 737.04585 852.8043 L 747.6897 853.1986 C 747.776 853.2018 747.8624 853.2034 747.9488 853.2034 L 758.5578 853.2034 C 758.5987 853.2034 758.6397 853.2037 758.6806 853.2044 L 769.767 853.3989 C 769.9351 853.4019 770.1032 853.3988 770.2711 853.3896 L 780.8923 852.8103 C 780.9769 852.8057 781.0616 852.8026 781.1463 852.801 L 791.91085 852.6053 C 791.9831 852.604 792.0553 852.6016 792.1274 852.598 L 804.1461 852.007 C 804.1948 852.0046 804.2436 852.0016 804.29225 851.9982 L 815.5323 851.2095 C 815.5902 851.2054 815.6481 851.2006 815.7059 851.1951 L 828.1165 850.0131 C 828.185 850.0066 828.2535 850.0011 828.3221 849.9966 L 840.2542 849.2142 C 840.3642 849.207 840.474 849.1972 840.5836 849.1847 L 850.9959 848.006 C 851.0114 848.0042 851.027 848.0024 851.0425 848.0006 L 860.9902 846.8068 C 861.0095 846.8045 861.0289 846.8021 861.0482 846.7996 L 874.8839 845.0221 C 874.9812 845.0096 875.0781 844.9951 875.1747 844.9785 L 881.7282 843.8551 C 881.9292 843.8206 882.1315 843.795 882.3347 843.7782 L 885.5671 843.5112 C 886.4563 843.4377 887.3233 843.195 888.1214 842.7959 L 889.6076 842.0528 C 890.2082 841.7525 890.7625 841.3674 891.2534 840.9092 L 892.5885 839.6631 C 893.1953 839.0967 893.6507 838.3875 893.9132 837.6 L 894.208 836.7155 C 894.2781 836.5053 894.3382 836.2919 894.388 836.0759 L 894.8577 834.0406 C 894.8929 833.8879 894.8595 833.7275 894.7662 833.6017 L 894.7662 833.6017 C 894.6759 833.4798 894.5252 833.4183 894.3754 833.4421 L 885.8955 834.7912 C 885.8447 834.7993 885.7939 834.808 885.7432 834.8172 L 872.7584 837.178 C 872.6656 837.1949 872.5725 837.2099 872.4791 837.223 L 861.2494 838.7991 C 861.2293 838.8019 861.2091 838.8049 861.189 838.8079 L 848.0664 840.7665 C 847.9017 840.791 847.7361 840.8097 847.57 840.8225 L 834.8452 841.8014 C 834.8279 841.8027 834.8105 841.804 834.7932 841.8052 L 820.4531 842.801 C 820.4305 842.8026 820.4079 842.804 820.3853 842.8054 L 807.0821 843.5996 C 807.0402 843.6021 806.9982 843.6042 806.9563 843.606 L 792.76485 844.1973 C 792.6678 844.2013 792.5706 844.2034 792.4734 844.2034 L 779.2192 844.2034 L 766.6775 844.2034 C 766.63865 844.2034 766.5998 844.2037 766.5609 844.2043 L 754.8025 844.4003 C 754.6803 844.4023 754.5581 844.4012 754.436 844.3968 L 743.6024 844.0099 C 743.4803 844.0055 743.3581 844.0044 743.2359 844.0064 L 731.5213 844.2017 C 731.4532 844.2028 731.3852 844.2029 731.3171 844.2021 L 715.61484 844.0058 C 715.48444 844.0042 715.3541 843.9989 715.224 843.99 L 700.9142 843.0099 C 700.8509 843.0055 700.7876 843.0003 700.7244 842.9943 L 686.2334 841.6047 C 686.2239 841.6038 686.2145 841.6029 686.205 841.6019 L 672.393 840.2207 C 672.27715 840.2091 672.1616 840.1947 672.0465 840.1773 L 657.73735 838.0212 C 657.6586 838.0093 657.5796 837.9988 657.5005 837.9896 L 643.9806 836.4221 C 643.873 836.4096 643.76574 836.3946 643.65886 836.3772 L 634.2668 834.8438 C 634.1018 834.8168 633.9378 834.784 633.7752 834.7453 L 624.6976 832.5865 C 624.30925 832.4942 623.9196 832.7341 623.82724 833.1224 C 623.82116 833.148 623.8165 833.1739 623.8132 833.2 Z" stroke="#7f8080" stroke-linecap="round" stroke-linejoin="round" stroke-width="1"/>
    </g>
  </g>
</svg>
