<?xml version="1.0" encoding="UTF-8" standalone="no"?>
<!DOCTYPE svg PUBLIC "-//W3C//DTD SVG 1.1//EN" "http://www.w3.org/Graphics/SVG/1.1/DTD/svg11.dtd">
<svg xmlns="http://www.w3.org/2000/svg" xmlns:xl="http://www.w3.org/1999/xlink" version="1.1" viewBox="144.5 482.5 432.4053 448.4" width="432.4053pt" height="448.4pt" xmlns:dc="http://purl.org/dc/elements/1.1/">
  <metadata> Produced by OmniGraffle 7.4.2 
    <dc:date>2018-03-15 05:51:29 +0000</dc:date>
  </metadata>
  <defs>
    <radialGradient cx="0" cy="0" r="1" id="Gradient" gradientUnits="userSpaceOnUse">
      <stop offset="0" stop-color="#c1c1c1"/>
      <stop offset="1" stop-color="#1e1c15"/>
    </radialGradient>
    <radialGradient id="Obj_Gradient" xl:href="#Gradient" gradientTransform="translate(389.44315 493.0987) scale(87.33024)"/>
  </defs>
  <g stroke="none" stroke-opacity="1" stroke-dasharray="none" fill="none" fill-opacity="1">
    <title>Canvas 1</title>
    <rect fill="white" width="432.4053" height="448.4"/>
    <g>
      <title>Layer 1</title>
      <path d="M 298.00565 483.59045 L 306.1711 486.70816 C 307.0291 487.03576 307.90594 487.3117 308.79692 487.5344 L 322.5141 490.9637 C 323.67576 491.2541 324.85832 491.4534 326.051 491.55966 L 343.57715 493.1214 C 344.165 493.1738 344.75464 493.2035 345.34478 493.21054 L 360.8237 493.3948 C 361.11404 493.3983 361.4044 493.39623 361.6947 493.3887 L 376.118 493.01406 C 376.4788 493.0047 376.8393 492.9868 377.19924 492.9605 L 391.57053 491.90893 C 392.56197 491.8364 393.54766 491.69964 394.5214 491.49956 L 406.09436 489.12155 C 407.13637 488.90744 408.16226 488.6213 409.16465 488.2652 L 420.91664 484.09014 C 422.007 483.70277 423.2102 484.23354 423.65925 485.3 L 423.65925 485.3 C 424.1814 486.5401 424.3334 487.90485 424.09685 489.22945 L 423.91637 490.24014 C 423.6126 491.9413 423.11806 493.6028 422.44214 495.1932 L 420.8989 498.8243 C 420.34035 500.1386 419.6606 501.398 418.86846 502.5862 L 415.1827 508.11485 C 414.43517 509.2361 413.59057 510.2895 412.6586 511.2629 L 406.36354 517.83774 C 405.49547 518.7444 404.55463 519.57846 403.55046 520.3316 L 395.17555 526.6128 C 394.29914 527.2701 393.3769 527.86394 392.4158 528.3898 L 385.2306 532.3213 C 383.9195 533.03874 382.54156 533.62664 381.11638 534.0767 L 374.44347 536.18393 C 372.7266 536.7261 370.952 537.0648 369.15613 537.1931 L 362.26968 537.685 C 361.19738 537.76156 360.12103 537.7629 359.04854 537.6889 L 350.6123 537.1071 C 349.5781 537.0358 348.54994 536.8946 347.5348 536.6846 L 340.3996 535.20835 C 338.44765 534.8045 336.55647 534.1486 334.7736 533.2572 L 330.1142 530.9275 C 328.88007 530.3104 327.70397 529.58354 326.60012 528.75566 L 320.91816 524.4942 C 320.47903 524.16483 320.05182 523.81987 319.63737 523.45995 L 313.8822 518.462 C 313.0679 517.7549 312.30436 516.99135 311.59722 516.17706 L 307.192 511.1044 C 306.4379 510.236 305.75 509.3123 305.13406 508.34105 L 301.40036 502.4533 C 301.0398 501.8847 300.70437 501.30056 300.39505 500.70255 L 298.77468 497.5698 C 298.16553 496.39215 297.65936 495.164 297.26183 493.8991 L 295.9816 489.8256 C 295.7668 489.14225 295.58408 488.4492 295.434 487.7488 L 295.35925 487.4 C 295.1646 486.4916 295.27185 485.54443 295.66473 484.70254 L 295.75925 484.5 C 296.15372 483.6547 297.1342 483.2577 298.00565 483.59045 Z" fill="url(#Obj_Gradient)"/>
      <path d="M 298.00565 483.59045 L 306.1711 486.70816 C 307.0291 487.03576 307.90594 487.3117 308.79692 487.5344 L 322.5141 490.9637 C 323.67576 491.2541 324.85832 491.4534 326.051 491.55966 L 343.57715 493.1214 C 344.165 493.1738 344.75464 493.2035 345.34478 493.21054 L 360.8237 493.3948 C 361.11404 493.3983 361.4044 493.39623 361.6947 493.3887 L 376.118 493.01406 C 376.4788 493.0047 376.8393 492.9868 377.19924 492.9605 L 391.57053 491.90893 C 392.56197 491.8364 393.54766 491.69964 394.5214 491.49956 L 406.09436 489.12155 C 407.13637 488.90744 408.16226 488.6213 409.16465 488.2652 L 420.91664 484.09014 C 422.007 483.70277 423.2102 484.23354 423.65925 485.3 L 423.65925 485.3 C 424.1814 486.5401 424.3334 487.90485 424.09685 489.22945 L 423.91637 490.24014 C 423.6126 491.9413 423.11806 493.6028 422.44214 495.1932 L 420.8989 498.8243 C 420.34035 500.1386 419.6606 501.398 418.86846 502.5862 L 415.1827 508.11485 C 414.43517 509.2361 413.59057 510.2895 412.6586 511.2629 L 406.36354 517.83774 C 405.49547 518.7444 404.55463 519.57846 403.55046 520.3316 L 395.17555 526.6128 C 394.29914 527.2701 393.3769 527.86394 392.4158 528.3898 L 385.2306 532.3213 C 383.9195 533.03874 382.54156 533.62664 381.11638 534.0767 L 374.44347 536.18393 C 372.7266 536.7261 370.952 537.0648 369.15613 537.1931 L 362.26968 537.685 C 361.19738 537.76156 360.12103 537.7629 359.04854 537.6889 L 350.6123 537.1071 C 349.5781 537.0358 348.54994 536.8946 347.5348 536.6846 L 340.3996 535.20835 C 338.44765 534.8045 336.55647 534.1486 334.7736 533.2572 L 330.1142 530.9275 C 328.88007 530.3104 327.70397 529.58354 326.60012 528.75566 L 320.91816 524.4942 C 320.47903 524.16483 320.05182 523.81987 319.63737 523.45995 L 313.8822 518.462 C 313.0679 517.7549 312.30436 516.99135 311.59722 516.17706 L 307.192 511.1044 C 306.4379 510.236 305.75 509.3123 305.13406 508.34105 L 301.40036 502.4533 C 301.0398 501.8847 300.70437 501.30056 300.39505 500.70255 L 298.77468 497.5698 C 298.16553 496.39215 297.65936 495.164 297.26183 493.8991 L 295.9816 489.8256 C 295.7668 489.14225 295.58408 488.4492 295.434 487.7488 L 295.35925 487.4 C 295.1646 486.4916 295.27185 485.54443 295.66473 484.70254 L 295.75925 484.5 C 296.15372 483.6547 297.1342 483.2577 298.00565 483.59045 Z" stroke="#7f8080" stroke-linecap="round" stroke-linejoin="round" stroke-width="1"/>
      <path d="M 233.97346 920.2638 L 247.7157 922.5542 C 247.89907 922.5847 248.08297 922.6121 248.2673 922.6362 L 276.62094 926.3515 C 276.86747 926.3838 277.1147 926.4104 277.36248 926.4312 L 307.60537 928.9677 C 307.86227 928.9892 308.11966 929.0046 308.3773 929.0137 L 347.3082 930.39 C 347.4966 930.3967 347.68504 930.4 347.87352 930.4 L 379.34084 930.4 C 379.50746 930.4 379.67407 930.3974 379.8406 930.3922 L 404.8754 929.6099 C 405.08563 929.6033 405.29573 929.5926 405.50555 929.5777 L 427.5533 928.0168 C 427.7116 928.0056 427.86975 927.992 428.02766 927.9761 L 453.28815 925.4305 C 453.4899 925.4102 453.6912 925.386 453.89204 925.358 L 477.68474 922.0427 C 477.88875 922.0142 478.0922 921.9819 478.29496 921.9456 L 487.4908 920.3 C 492.8179 919.3467 496.46876 914.3931 495.80234 909.0226 L 493.59475 891.232 C 493.5921 891.2107 493.5895 891.1893 493.58695 891.168 L 490.0231 861.4695 C 490.00157 861.2898 489.98306 861.1099 489.9676 860.9296 L 487.6054 833.3704 C 487.59565 833.2568 487.58713 833.1431 487.5798 833.0294 L 486.1932 811.4377 C 486.1916 811.4126 486.1899 811.3874 486.1882 811.3623 L 484.596 788.276 C 484.59253 788.2253 484.5893 788.1747 484.58627 788.124 L 483.4099 768.3218 C 483.39716 768.1073 483.38874 767.8925 483.38465 767.6777 L 482.99236 747.08285 C 482.9913 747.0276 482.99 746.9724 482.98835 746.9172 L 482.3932 726.6828 C 482.3916 726.6276 482.39026 726.5724 482.3892 726.51715 L 481.99855 706.0076 C 481.9934 705.7359 481.9951 705.4641 482.0038 705.1925 L 482.58973 686.8329 C 482.59044 686.811 482.5912 686.789 482.59197 686.7671 L 483.38005 664.8978 C 483.3872 664.6993 483.39806 664.5009 483.4126 664.3028 L 484.9701 643.0822 C 484.9839 642.8941 484.99436 642.7057 485.0015 642.51724 L 485.75596 622.6184 C 485.77915 622.0066 485.83744 621.3967 485.9305 620.79165 L 488.6695 602.9881 C 488.7503 602.46304 488.8572 601.9423 488.9898 601.4278 L 493.61806 583.4702 C 493.73316 583.0236 493.8675 582.5822 494.02073 582.14725 L 499.7415 565.9076 C 499.9076 565.4361 500.0957 564.9727 500.3052 564.5188 L 505.83673 552.5338 C 505.9394 552.3113 506.0472 552.0912 506.16 551.87364 L 511.5222 541.5322 C 511.56793 541.4441 511.61446 541.35636 511.6618 541.2691 L 516.8778 531.6521 C 517.61505 530.29276 518.5647 529.05987 519.6908 528 L 519.6908 528 C 520.366 527.3645 520.3982 526.302 519.7627 525.62684 C 519.6382 525.49456 519.49307 525.38337 519.33295 525.2976 L 516.1188 523.5757 C 515.90016 523.4586 515.6788 523.34656 515.45494 523.2397 L 507.60097 519.4912 C 507.19436 519.29716 506.77974 519.12036 506.3582 518.9613 L 496.6834 515.3104 C 496.48833 515.2368 496.2919 515.167 496.0941 515.1011 L 483.39963 510.8696 C 483.2604 510.8232 483.12055 510.7787 482.9801 510.73616 L 470.0966 506.83206 C 470.02605 506.8107 469.95567 506.7888 469.88544 506.7665 L 457.38144 502.78794 C 456.9878 502.6627 456.5992 502.52225 456.21643 502.36693 L 444.2405 497.5071 C 443.40883 497.16964 442.60704 496.7628 441.8436 496.29083 L 432.22436 490.3444 C 432.06865 490.24814 431.9146 490.1492 431.7623 490.0477 L 426.8722 486.7876 C 425.8908 486.13335 425.0195 485.32745 424.2908 484.4 L 424.2908 484.4 C 424.1852 484.2656 423.9906 484.24225 423.8562 484.34785 C 423.75347 484.4286 423.7125 484.5651 423.7538 484.6891 L 423.8908 485.1 C 424.35003 486.47775 424.4546 487.94904 424.1948 489.3779 L 423.79967 491.55115 C 423.52845 493.0428 423.0466 494.48835 422.3686 495.8444 L 420.83626 498.90904 C 420.53956 499.50244 420.20624 500.0768 419.83823 500.6288 L 416.63453 505.4344 C 416.20593 506.0773 415.7313 506.6883 415.21443 507.2626 L 410.6524 512.33156 C 410.6113 512.3772 410.57 512.4226 410.5284 512.46773 L 404.53417 518.97576 C 403.90643 519.6573 403.2207 520.283 402.48465 520.8459 L 397.46047 524.6879 C 397.0143 525.02906 396.5505 525.3465 396.071 525.6389 L 389.5846 529.594 C 388.92292 529.9975 388.23283 530.3523 387.51975 530.65576 L 380.40434 533.6836 C 379.59667 534.0273 378.7621 534.3039 377.90905 534.5107 L 373.83 535.4996 C 373.00516 535.69955 372.16573 535.83356 371.31963 535.90035 L 365.61943 536.3504 C 365.2005 536.38344 364.7804 536.4 364.3602 536.4 L 357.32787 536.4 C 356.57077 536.4 355.8146 536.34626 355.06513 536.2392 L 347.11868 535.104 C 346.63367 535.0347 346.1521 534.9432 345.6755 534.8297 L 339.71426 533.41035 C 338.56878 533.1376 337.4569 532.73927 336.39883 532.22253 L 330.11882 529.15556 C 329.63377 528.9187 329.16102 528.6574 328.7024 528.3727 L 324.49052 525.75846 C 323.89135 525.38656 323.31742 524.97546 322.7725 524.52784 L 318.3264 520.8757 C 318.1027 520.6919 317.88402 520.50214 317.67063 520.3065 L 313.8683 516.82104 C 313.417 516.40736 312.9898 515.9681 312.58885 515.50546 L 308.4701 510.75307 C 308.15072 510.38455 307.84836 510.0016 307.56395 509.6055 L 303.1343 503.4356 C 302.6394 502.7463 302.20013 502.0187 301.82064 501.2597 L 299.24418 496.1068 C 299.20858 496.0356 299.1735 495.96414 299.139 495.8924 L 297.8908 493.3 C 297.04007 491.53313 296.68455 489.5686 296.8621 487.61564 L 297.0423 485.6334 C 297.0661 485.3715 296.8731 485.13994 296.61125 485.11614 C 296.44886 485.1014 296.2902 485.17075 296.1908 485.3 L 296.1908 485.3 C 295.52734 486.1625 294.74723 486.92856 293.87285 487.57625 L 289.9763 490.46257 C 289.85263 490.5542 289.72763 490.644 289.60136 490.732 L 284.9791 493.9536 C 283.79237 494.7807 282.49895 495.4431 281.1342 495.9226 L 276.52708 497.5413 C 276.0365 497.71367 275.55463 497.90984 275.08316 498.1291 L 268.23638 501.3137 C 267.54022 501.6375 266.82165 501.91074 266.08625 502.13136 L 255.21586 505.3925 C 255.19914 505.3975 255.18243 505.40254 255.16572 505.4076 L 244.19764 508.7372 C 244.05974 508.77907 243.9224 508.8228 243.7857 508.86836 L 230.86446 513.17544 C 230.81534 513.1918 230.76614 513.20795 230.71686 513.22384 L 219.34946 516.89075 C 218.71097 517.0967 218.08607 517.3426 217.47846 517.62704 L 209.5465 521.3399 C 209.17616 521.5132 208.8126 521.7007 208.45662 521.9019 L 202.5105 525.26276 C 201.25747 525.971 200.81583 527.5609 201.52406 528.81396 C 201.60118 528.9504 201.69045 529.0796 201.79078 529.2 L 202.6549 530.23693 C 203.40984 531.1429 204.06231 532.1295 204.60043 533.1788 L 207.67757 539.17924 C 207.75304 539.3264 207.83079 539.4724 207.91078 539.61715 L 211.86554 546.7734 C 211.94903 546.92445 212.03007 547.07687 212.10863 547.2306 L 216.21693 555.26856 C 216.466 555.75587 216.6899 556.2556 216.88776 556.7659 L 220.37053 565.74776 C 220.38403 565.7826 220.39765 565.81737 220.4114 565.8521 L 224.00772 574.93754 C 224.12973 575.2458 224.24213 575.5577 224.34476 575.87294 L 226.9666 583.9257 C 226.98272 583.97524 226.9986 584.02484 227.01424 584.0745 L 230.0863 593.8328 C 230.28908 594.47695 230.45089 595.1333 230.57073 595.7979 L 232.55605 606.8074 C 232.5792 606.9358 232.6008 607.0645 232.6208 607.1934 L 234.32666 618.1868 C 234.3694 618.4622 234.40494 618.7387 234.43323 619.016 L 235.32065 627.7127 C 235.36738 628.1707 235.39433 628.6305 235.4014 629.0908 L 235.58565 641.0664 C 235.58907 641.2888 235.59713 641.51105 235.60981 641.7331 L 236.3802 655.21465 C 236.38725 655.3382 236.39575 655.4617 236.40567 655.5851 L 237.73924 672.1594 C 237.7736 672.5863 237.79078 673.0144 237.79078 673.44264 L 237.79078 685.8924 C 237.79078 686.09746 237.79472 686.3025 237.8026 686.50735 L 238.38295 701.5965 C 238.38817 701.7322 238.39166 701.8679 238.39343 702.00365 L 238.58559 716.7999 C 238.58905 717.0666 238.58584 717.3333 238.57597 717.5999 L 238.00174 733.104 C 237.99444 733.3013 237.99078 733.49875 237.99078 733.6962 L 237.99078 747.2924 C 237.99078 747.4975 237.98684 747.7025 237.97896 747.90736 L 237.39377 763.1224 C 237.39178 763.1741 237.38953 763.2259 237.38704 763.2776 L 236.59172 779.78055 C 236.5911 779.7935 236.59045 779.8065 236.5898 779.81945 L 235.7953 795.5106 C 235.7923 795.5702 235.78894 795.6298 235.78526 795.6893 L 234.59634 814.9101 C 234.59264 814.97 234.5886 815.03 234.5842 815.0899 L 232.80107 839.4594 C 232.7942 839.5531 232.78653 839.6468 232.77802 839.7404 L 230.99213 859.3852 C 230.99123 859.3951 230.99032 859.4049 230.9894 859.4148 L 229.21864 878.4997 C 229.20007 878.6999 229.17773 878.8997 229.15162 879.099 L 227.1909 894.0717 C 227.0581 895.0859 226.78896 896.0776 226.39078 897.0197 L 226.39078 897.0197 C 225.9932 897.9605 225.74454 898.9574 225.65371 899.9747 L 224.89078 908.5197 C 224.38302 914.2068 228.3415 919.3251 233.97346 920.2638 Z" fill="red"/>
      <path d="M 233.97346 920.2638 L 247.7157 922.5542 C 247.89907 922.5847 248.08297 922.6121 248.2673 922.6362 L 276.62094 926.3515 C 276.86747 926.3838 277.1147 926.4104 277.36248 926.4312 L 307.60537 928.9677 C 307.86227 928.9892 308.11966 929.0046 308.3773 929.0137 L 347.3082 930.39 C 347.4966 930.3967 347.68504 930.4 347.87352 930.4 L 379.34084 930.4 C 379.50746 930.4 379.67407 930.3974 379.8406 930.3922 L 404.8754 929.6099 C 405.08563 929.6033 405.29573 929.5926 405.50555 929.5777 L 427.5533 928.0168 C 427.7116 928.0056 427.86975 927.992 428.02766 927.9761 L 453.28815 925.4305 C 453.4899 925.4102 453.6912 925.386 453.89204 925.358 L 477.68474 922.0427 C 477.88875 922.0142 478.0922 921.9819 478.29496 921.9456 L 487.4908 920.3 C 492.8179 919.3467 496.46876 914.3931 495.80234 909.0226 L 493.59475 891.232 C 493.5921 891.2107 493.5895 891.1893 493.58695 891.168 L 490.0231 861.4695 C 490.00157 861.2898 489.98306 861.1099 489.9676 860.9296 L 487.6054 833.3704 C 487.59565 833.2568 487.58713 833.1431 487.5798 833.0294 L 486.1932 811.4377 C 486.1916 811.4126 486.1899 811.3874 486.1882 811.3623 L 484.596 788.276 C 484.59253 788.2253 484.5893 788.1747 484.58627 788.124 L 483.4099 768.3218 C 483.39716 768.1073 483.38874 767.8925 483.38465 767.6777 L 482.99236 747.08285 C 482.9913 747.0276 482.99 746.9724 482.98835 746.9172 L 482.3932 726.6828 C 482.3916 726.6276 482.39026 726.5724 482.3892 726.51715 L 481.99855 706.0076 C 481.9934 705.7359 481.9951 705.4641 482.0038 705.1925 L 482.58973 686.8329 C 482.59044 686.811 482.5912 686.789 482.59197 686.7671 L 483.38005 664.8978 C 483.3872 664.6993 483.39806 664.5009 483.4126 664.3028 L 484.9701 643.0822 C 484.9839 642.8941 484.99436 642.7057 485.0015 642.51724 L 485.75596 622.6184 C 485.77915 622.0066 485.83744 621.3967 485.9305 620.79165 L 488.6695 602.9881 C 488.7503 602.46304 488.8572 601.9423 488.9898 601.4278 L 493.61806 583.4702 C 493.73316 583.0236 493.8675 582.5822 494.02073 582.14725 L 499.7415 565.9076 C 499.9076 565.4361 500.0957 564.9727 500.3052 564.5188 L 505.83673 552.5338 C 505.9394 552.3113 506.0472 552.0912 506.16 551.87364 L 511.5222 541.5322 C 511.56793 541.4441 511.61446 541.35636 511.6618 541.2691 L 516.8778 531.6521 C 517.61505 530.29276 518.5647 529.05987 519.6908 528 L 519.6908 528 C 520.366 527.3645 520.3982 526.302 519.7627 525.62684 C 519.6382 525.49456 519.49307 525.38337 519.33295 525.2976 L 516.1188 523.5757 C 515.90016 523.4586 515.6788 523.34656 515.45494 523.2397 L 507.60097 519.4912 C 507.19436 519.29716 506.77974 519.12036 506.3582 518.9613 L 496.6834 515.3104 C 496.48833 515.2368 496.2919 515.167 496.0941 515.1011 L 483.39963 510.8696 C 483.2604 510.8232 483.12055 510.7787 482.9801 510.73616 L 470.0966 506.83206 C 470.02605 506.8107 469.95567 506.7888 469.88544 506.7665 L 457.38144 502.78794 C 456.9878 502.6627 456.5992 502.52225 456.21643 502.36693 L 444.2405 497.5071 C 443.40883 497.16964 442.60704 496.7628 441.8436 496.29083 L 432.22436 490.3444 C 432.06865 490.24814 431.9146 490.1492 431.7623 490.0477 L 426.8722 486.7876 C 425.8908 486.13335 425.0195 485.32745 424.2908 484.4 L 424.2908 484.4 C 424.1852 484.2656 423.9906 484.24225 423.8562 484.34785 C 423.75347 484.4286 423.7125 484.5651 423.7538 484.6891 L 423.8908 485.1 C 424.35003 486.47775 424.4546 487.94904 424.1948 489.3779 L 423.79967 491.55115 C 423.52845 493.0428 423.0466 494.48835 422.3686 495.8444 L 420.83626 498.90904 C 420.53956 499.50244 420.20624 500.0768 419.83823 500.6288 L 416.63453 505.4344 C 416.20593 506.0773 415.7313 506.6883 415.21443 507.2626 L 410.6524 512.33156 C 410.6113 512.3772 410.57 512.4226 410.5284 512.46773 L 404.53417 518.97576 C 403.90643 519.6573 403.2207 520.283 402.48465 520.8459 L 397.46047 524.6879 C 397.0143 525.02906 396.5505 525.3465 396.071 525.6389 L 389.5846 529.594 C 388.92292 529.9975 388.23283 530.3523 387.51975 530.65576 L 380.40434 533.6836 C 379.59667 534.0273 378.7621 534.3039 377.90905 534.5107 L 373.83 535.4996 C 373.00516 535.69955 372.16573 535.83356 371.31963 535.90035 L 365.61943 536.3504 C 365.2005 536.38344 364.7804 536.4 364.3602 536.4 L 357.32787 536.4 C 356.57077 536.4 355.8146 536.34626 355.06513 536.2392 L 347.11868 535.104 C 346.63367 535.0347 346.1521 534.9432 345.6755 534.8297 L 339.71426 533.41035 C 338.56878 533.1376 337.4569 532.73927 336.39883 532.22253 L 330.11882 529.15556 C 329.63377 528.9187 329.16102 528.6574 328.7024 528.3727 L 324.49052 525.75846 C 323.89135 525.38656 323.31742 524.97546 322.7725 524.52784 L 318.3264 520.8757 C 318.1027 520.6919 317.88402 520.50214 317.67063 520.3065 L 313.8683 516.82104 C 313.417 516.40736 312.9898 515.9681 312.58885 515.50546 L 308.4701 510.75307 C 308.15072 510.38455 307.84836 510.0016 307.56395 509.6055 L 303.1343 503.4356 C 302.6394 502.7463 302.20013 502.0187 301.82064 501.2597 L 299.24418 496.1068 C 299.20858 496.0356 299.1735 495.96414 299.139 495.8924 L 297.8908 493.3 C 297.04007 491.53313 296.68455 489.5686 296.8621 487.61564 L 297.0423 485.6334 C 297.0661 485.3715 296.8731 485.13994 296.61125 485.11614 C 296.44886 485.1014 296.2902 485.17075 296.1908 485.3 L 296.1908 485.3 C 295.52734 486.1625 294.74723 486.92856 293.87285 487.57625 L 289.9763 490.46257 C 289.85263 490.5542 289.72763 490.644 289.60136 490.732 L 284.9791 493.9536 C 283.79237 494.7807 282.49895 495.4431 281.1342 495.9226 L 276.52708 497.5413 C 276.0365 497.71367 275.55463 497.90984 275.08316 498.1291 L 268.23638 501.3137 C 267.54022 501.6375 266.82165 501.91074 266.08625 502.13136 L 255.21586 505.3925 C 255.19914 505.3975 255.18243 505.40254 255.16572 505.4076 L 244.19764 508.7372 C 244.05974 508.77907 243.9224 508.8228 243.7857 508.86836 L 230.86446 513.17544 C 230.81534 513.1918 230.76614 513.20795 230.71686 513.22384 L 219.34946 516.89075 C 218.71097 517.0967 218.08607 517.3426 217.47846 517.62704 L 209.5465 521.3399 C 209.17616 521.5132 208.8126 521.7007 208.45662 521.9019 L 202.5105 525.26276 C 201.25747 525.971 200.81583 527.5609 201.52406 528.81396 C 201.60118 528.9504 201.69045 529.0796 201.79078 529.2 L 202.6549 530.23693 C 203.40984 531.1429 204.06231 532.1295 204.60043 533.1788 L 207.67757 539.17924 C 207.75304 539.3264 207.83079 539.4724 207.91078 539.61715 L 211.86554 546.7734 C 211.94903 546.92445 212.03007 547.07687 212.10863 547.2306 L 216.21693 555.26856 C 216.466 555.75587 216.6899 556.2556 216.88776 556.7659 L 220.37053 565.74776 C 220.38403 565.7826 220.39765 565.81737 220.4114 565.8521 L 224.00772 574.93754 C 224.12973 575.2458 224.24213 575.5577 224.34476 575.87294 L 226.9666 583.9257 C 226.98272 583.97524 226.9986 584.02484 227.01424 584.0745 L 230.0863 593.8328 C 230.28908 594.47695 230.45089 595.1333 230.57073 595.7979 L 232.55605 606.8074 C 232.5792 606.9358 232.6008 607.0645 232.6208 607.1934 L 234.32666 618.1868 C 234.3694 618.4622 234.40494 618.7387 234.43323 619.016 L 235.32065 627.7127 C 235.36738 628.1707 235.39433 628.6305 235.4014 629.0908 L 235.58565 641.0664 C 235.58907 641.2888 235.59713 641.51105 235.60981 641.7331 L 236.3802 655.21465 C 236.38725 655.3382 236.39575 655.4617 236.40567 655.5851 L 237.73924 672.1594 C 237.7736 672.5863 237.79078 673.0144 237.79078 673.44264 L 237.79078 685.8924 C 237.79078 686.09746 237.79472 686.3025 237.8026 686.50735 L 238.38295 701.5965 C 238.38817 701.7322 238.39166 701.8679 238.39343 702.00365 L 238.58559 716.7999 C 238.58905 717.0666 238.58584 717.3333 238.57597 717.5999 L 238.00174 733.104 C 237.99444 733.3013 237.99078 733.49875 237.99078 733.6962 L 237.99078 747.2924 C 237.99078 747.4975 237.98684 747.7025 237.97896 747.90736 L 237.39377 763.1224 C 237.39178 763.1741 237.38953 763.2259 237.38704 763.2776 L 236.59172 779.78055 C 236.5911 779.7935 236.59045 779.8065 236.5898 779.81945 L 235.7953 795.5106 C 235.7923 795.5702 235.78894 795.6298 235.78526 795.6893 L 234.59634 814.9101 C 234.59264 814.97 234.5886 815.03 234.5842 815.0899 L 232.80107 839.4594 C 232.7942 839.5531 232.78653 839.6468 232.77802 839.7404 L 230.99213 859.3852 C 230.99123 859.3951 230.99032 859.4049 230.9894 859.4148 L 229.21864 878.4997 C 229.20007 878.6999 229.17773 878.8997 229.15162 879.099 L 227.1909 894.0717 C 227.0581 895.0859 226.78896 896.0776 226.39078 897.0197 L 226.39078 897.0197 C 225.9932 897.9605 225.74454 898.9574 225.65371 899.9747 L 224.89078 908.5197 C 224.38302 914.2068 228.3415 919.3251 233.97346 920.2638 Z" stroke="#7f8080" stroke-linecap="round" stroke-linejoin="round" stroke-width="1"/>
      <path d="M 145 634.44615 L 151.2 638.84615 L 159.4 642.84615 L 168 646.44615 L 177 650.24615 L 188 654.24615 L 197.4 657.04615 L 206.4 659.64615 L 215.4 662.24615 L 220.8 663.64615 L 226.4 664.64615 L 228.8 658.84615 L 231.4 653.44615 L 233.6 649.44615 L 236.2 646.04615 L 236.4 637.04615 L 235.8 626.04615 L 234 615.24615 L 232.4 604.84615 L 229.8 593.84614 L 227.4 584.24614 L 224.6 576.24614 L 221.4 566.84614 L 218.6 559.44614 L 215 551.84614 L 212 547 L 207 536.84614 L 204.4 533.24614 L 200.8 527.44614 L 195.4 531.84614 L 190.6 536.64614 L 186 542.84614 L 181.6 549.04614 L 176.8 557.64614 L 172 567.04614 L 167.2 576.24614 L 163.6 584.84614 L 159.6 593.84614 L 156.4 602.04615 L 152.6 611.44615 L 149.8 619.44615 L 146.8 627.84615 Z" fill="red"/>
      <path d="M 145 634.44615 L 151.2 638.84615 L 159.4 642.84615 L 168 646.44615 L 177 650.24615 L 188 654.24615 L 197.4 657.04615 L 206.4 659.64615 L 215.4 662.24615 L 220.8 663.64615 L 226.4 664.64615 L 228.8 658.84615 L 231.4 653.44615 L 233.6 649.44615 L 236.2 646.04615 L 236.4 637.04615 L 235.8 626.04615 L 234 615.24615 L 232.4 604.84615 L 229.8 593.84614 L 227.4 584.24614 L 224.6 576.24614 L 221.4 566.84614 L 218.6 559.44614 L 215 551.84614 L 212 547 L 207 536.84614 L 204.4 533.24614 L 200.8 527.44614 L 195.4 531.84614 L 190.6 536.64614 L 186 542.84614 L 181.6 549.04614 L 176.8 557.64614 L 172 567.04614 L 167.2 576.24614 L 163.6 584.84614 L 159.6 593.84614 L 156.4 602.04615 L 152.6 611.44615 L 149.8 619.44615 L 146.8 627.84615 Z" stroke="#7f8080" stroke-linecap="round" stroke-linejoin="round" stroke-width="1"/>
      <path d="M 576.4053 633.50275 L 570.2053 637.90275 L 562.0053 641.90275 L 553.4053 645.50275 L 544.4053 649.30275 L 533.4053 653.30275 L 524.0053 656.10275 L 515.0053 658.70275 L 506.0053 661.30275 L 500.6053 662.70275 L 495.0053 663.70275 L 492.6053 657.90275 L 490.0053 652.50275 L 487.8053 648.50275 L 485.2053 645.10275 L 485.0053 636.10275 L 485.6053 625.10275 L 487.4053 614.30275 L 489.0053 603.90275 L 491.6053 592.90275 L 494.0053 583.30275 L 496.8053 575.30275 L 500.0053 565.90275 L 502.8053 558.50275 L 506.4053 550.90275 L 510.4053 543.30275 L 514.4053 535.90275 L 517.0053 532.30275 L 520.6053 526.50275 L 526.0053 530.90275 L 530.8053 535.70275 L 535.4053 541.90275 L 539.8053 548.10275 L 544.6053 556.70275 L 549.4053 566.10275 L 554.2053 575.30275 L 557.8053 583.90275 L 561.8053 592.90275 L 565.0053 601.10275 L 568.8053 610.50275 L 571.6053 618.50275 L 574.6053 626.90275 Z" fill="red"/>
      <path d="M 576.4053 633.50275 L 570.2053 637.90275 L 562.0053 641.90275 L 553.4053 645.50275 L 544.4053 649.30275 L 533.4053 653.30275 L 524.0053 656.10275 L 515.0053 658.70275 L 506.0053 661.30275 L 500.6053 662.70275 L 495.0053 663.70275 L 492.6053 657.90275 L 490.0053 652.50275 L 487.8053 648.50275 L 485.2053 645.10275 L 485.0053 636.10275 L 485.6053 625.10275 L 487.4053 614.30275 L 489.0053 603.90275 L 491.6053 592.90275 L 494.0053 583.30275 L 496.8053 575.30275 L 500.0053 565.90275 L 502.8053 558.50275 L 506.4053 550.90275 L 510.4053 543.30275 L 514.4053 535.90275 L 517.0053 532.30275 L 520.6053 526.50275 L 526.0053 530.90275 L 530.8053 535.70275 L 535.4053 541.90275 L 539.8053 548.10275 L 544.6053 556.70275 L 549.4053 566.10275 L 554.2053 575.30275 L 557.8053 583.90275 L 561.8053 592.90275 L 565.0053 601.10275 L 568.8053 610.50275 L 571.6053 618.50275 L 574.6053 626.90275 Z" stroke="#7f8080" stroke-linecap="round" stroke-linejoin="round" stroke-width="1"/>
      <path d="M 145 634.44615 L 151.2 638.84615 L 159.4 642.84615 L 168 646.44615 L 177 650.24615 L 188 654.24615 L 197.4 657.04615 L 206.4 659.64615 L 215.4 662.24615 L 220.8 663.64615 L 226.4 664.64615 L 229.4 658.24615 L 225.6 657.44615 L 220.8 656.24615 L 215.2 655.04615 L 209.2 653.24615 L 204.6 651.84615 L 200.4 650.64615 L 195.8 648.64615 L 191.2 647.04615 L 186.4 645.04615 L 182.4 643.64615 L 177.2 641.44615 L 172.6 639.84615 L 167.8 637.64615 L 163 635.84615 L 165 637.5 L 154.6 631.64615 L 150.2 629.44615 L 146.8 627.84615 Z" fill="white"/>
      <path d="M 145 634.44615 L 151.2 638.84615 L 159.4 642.84615 L 168 646.44615 L 177 650.24615 L 188 654.24615 L 197.4 657.04615 L 206.4 659.64615 L 215.4 662.24615 L 220.8 663.64615 L 226.4 664.64615 L 229.4 658.24615 L 225.6 657.44615 L 220.8 656.24615 L 215.2 655.04615 L 209.2 653.24615 L 204.6 651.84615 L 200.4 650.64615 L 195.8 648.64615 L 191.2 647.04615 L 186.4 645.04615 L 182.4 643.64615 L 177.2 641.44615 L 172.6 639.84615 L 167.8 637.64615 L 163 635.84615 L 165 637.5 L 154.6 631.64615 L 150.2 629.44615 L 146.8 627.84615 Z" stroke="#7f8080" stroke-linecap="round" stroke-linejoin="round" stroke-width="1"/>
      <path d="M 576.4053 633.50275 L 570.2053 637.90275 L 562.0053 641.90275 L 553.4053 645.50275 L 544.4053 649.30275 L 533.4053 653.30275 L 524.0053 656.10275 L 515.0053 658.70275 L 506.0053 661.30275 L 500.6053 662.70275 L 495.0053 663.70275 L 492.0053 657.30275 L 495.8053 656.50275 L 500.6053 655.30275 L 506.2053 654.10275 L 512.2053 652.30275 L 516.8053 650.90275 L 521.0053 649.70275 L 525.6053 647.70275 L 530.2053 646.10275 L 535.0053 644.10275 L 539.0053 642.70275 L 544.2053 640.50275 L 548.8053 638.90275 L 553.6053 636.70275 L 558.4053 634.90275 L 562.4053 632.90275 L 566.8053 630.70275 L 571.2053 628.50275 L 574.6053 626.90275 Z" fill="white"/>
      <path d="M 576.4053 633.50275 L 570.2053 637.90275 L 562.0053 641.90275 L 553.4053 645.50275 L 544.4053 649.30275 L 533.4053 653.30275 L 524.0053 656.10275 L 515.0053 658.70275 L 506.0053 661.30275 L 500.6053 662.70275 L 495.0053 663.70275 L 492.0053 657.30275 L 495.8053 656.50275 L 500.6053 655.30275 L 506.2053 654.10275 L 512.2053 652.30275 L 516.8053 650.90275 L 521.0053 649.70275 L 525.6053 647.70275 L 530.2053 646.10275 L 535.0053 644.10275 L 539.0053 642.70275 L 544.2053 640.50275 L 548.8053 638.90275 L 553.6053 636.70275 L 558.4053 634.90275 L 562.4053 632.90275 L 566.8053 630.70275 L 571.2053 628.50275 L 574.6053 626.90275 Z" stroke="#7f8080" stroke-linecap="round" stroke-linejoin="round" stroke-width="1"/>
      <path d="M 295.57212 484.9638 L 290.84295 489.01736 C 289.6926 490.0034 288.44764 490.8733 287.1262 491.6145 L 284.59958 493.03165 C 283.1644 493.8366 282.5836 495.60575 283.2624 497.10473 L 284.28 499.35197 C 284.4016 499.62046 284.5283 499.8866 284.66012 500.1502 L 286.4624 503.75474 L 288.94938 508.7287 C 289.29117 509.4123 289.66683 510.07843 290.07495 510.7246 L 292.40134 514.4081 C 292.84172 515.10535 293.31928 515.7784 293.83195 516.4244 L 297.24264 520.72185 C 297.7887 521.4099 298.3737 522.06606 298.99482 522.68717 L 303.66087 527.3532 C 304.06175 527.7541 304.4773 528.14 304.9067 528.5102 L 309.47023 532.44426 C 309.8649 532.7845 310.271 533.1112 310.68785 533.4238 L 314.6628 536.40503 C 315.3287 536.90447 316.02123 537.3674 316.73733 537.79174 L 320.8704 540.24096 C 320.9984 540.3168 321.1271 540.3914 321.25656 540.46477 L 325.9541 543.1267 C 326.6924 543.5451 327.45328 543.92226 328.23325 544.25653 L 331.78307 545.7779 C 332.36903 546.029 332.9652 546.25567 333.56997 546.45726 L 338.5881 548.12997 C 339.83532 548.5457 341.1159 548.85376 342.4158 549.0507 L 346.51464 549.67174 C 346.87976 549.72706 347.24615 549.7736 347.6135 549.81126 L 354.4946 550.517 C 354.7398 550.54216 354.98534 550.56336 355.2312 550.5806 L 359.75835 550.8983 C 360.2942 550.9359 360.83122 550.95473 361.3684 550.95473 L 364.63046 550.95474 C 365.58416 550.95474 366.53693 550.8954 367.48327 550.7771 L 371.472 550.27854 C 372.13195 550.19604 372.788 550.08496 373.43835 549.9456 L 379.5204 548.6423 C 380.41426 548.45076 381.29592 548.2061 382.16068 547.9096 L 386.66952 546.3637 C 387.46417 546.0913 388.2433 545.7755 389.0034 545.4178 L 393.83677 543.14326 C 394.38697 542.88435 394.9267 542.6037 395.45464 542.302 L 399.2225 540.14896 C 399.9153 539.7531 400.587 539.3214 401.23494 538.8557 L 405.91106 535.49475 C 406.41175 535.1349 406.89776 534.75503 407.3679 534.3561 L 412.68877 529.84144 C 413.0711 529.51706 413.4427 529.18026 413.803 528.8316 L 418.5022 524.28396 C 419.1418 523.665 419.7449 523.00944 420.3085 522.3206 L 424.1018 517.68434 C 424.6085 517.065 425.08257 516.4197 425.522 515.75096 L 429.1392 510.24656 C 429.3546 509.91873 429.56163 509.58544 429.76 509.247 L 432.2831 504.9429 C 432.66906 504.28454 433.022 503.60735 433.3406 502.9139 L 435.4593 498.3026 C 435.9922 497.14285 436.36334 495.91544 436.5624 494.65474 L 436.5624 494.65474 C 436.7407 493.5255 436.1614 492.412 435.1343 491.9099 L 429.8409 489.322 C 428.5264 488.6794 427.29183 487.88486 426.1624 486.95474 L 425.7564 486.6204 C 424.91205 485.92504 424.28864 484.99874 423.9624 483.95474 L 423.9624 483.95474 C 423.91573 483.8054 423.75686 483.7222 423.60754 483.76886 C 423.49247 483.8048 423.41277 483.9097 423.4089 484.0302 L 423.2997 487.4531 C 423.20894 490.2962 422.5916 493.09776 421.479 495.71567 L 420.60206 497.77904 C 420.0435 499.0933 419.36374 500.3527 418.5716 501.5409 L 414.8858 507.0696 C 414.1383 508.19085 413.2937 509.24425 412.36175 510.2176 L 406.0667 516.7925 C 405.1986 517.6991 404.25777 518.5332 403.2536 519.2863 L 394.8787 525.5675 C 394.0023 526.2248 393.08 526.8187 392.11896 527.34454 L 384.93376 531.27606 C 383.62263 531.9935 382.2447 532.5814 380.8195 533.0314 L 374.1466 535.13867 C 372.42973 535.68084 370.65514 536.01954 368.85927 536.1478 L 361.9728 536.6397 C 360.9005 536.7163 359.82417 536.7176 358.7517 536.64365 L 350.31543 536.06184 C 349.28125 535.9905 348.2531 535.84936 347.23795 535.63933 L 340.10274 534.1631 C 338.1508 533.7592 336.2596 533.10335 334.47676 532.2119 L 329.81735 529.8822 C 328.5832 529.26515 327.4071 528.5383 326.30326 527.7104 L 320.6213 523.4489 C 320.18217 523.1196 319.75496 522.7746 319.3405 522.4147 L 313.58533 517.41676 C 312.77104 516.7096 312.0075 515.9461 311.30036 515.1318 L 306.89513 510.0591 C 306.14103 509.19075 305.45312 508.26705 304.8372 507.2958 L 301.1035 501.408 C 300.74293 500.83944 300.4075 500.2553 300.0982 499.6573 L 298.4778 496.52456 C 297.86867 495.3469 297.3625 494.11874 296.96497 492.85385 L 295.68473 488.78036 C 295.46995 488.097 295.28722 487.40395 295.13713 486.7035 L 294.9117 485.65157 C 294.82664 485.25456 295.053 484.8569 295.4378 484.72737 L 295.4378 484.72737 C 295.5103 484.70296 295.58884 484.74195 295.61325 484.81444 C 295.63126 484.86795 295.615 484.92704 295.57212 484.9638 Z" fill="white"/>
      <path d="M 295.57212 484.9638 L 290.84295 489.01736 C 289.6926 490.0034 288.44764 490.8733 287.1262 491.6145 L 284.59958 493.03165 C 283.1644 493.8366 282.5836 495.60575 283.2624 497.10473 L 284.28 499.35197 C 284.4016 499.62046 284.5283 499.8866 284.66012 500.1502 L 286.4624 503.75474 L 288.94938 508.7287 C 289.29117 509.4123 289.66683 510.07843 290.07495 510.7246 L 292.40134 514.4081 C 292.84172 515.10535 293.31928 515.7784 293.83195 516.4244 L 297.24264 520.72185 C 297.7887 521.4099 298.3737 522.06606 298.99482 522.68717 L 303.66087 527.3532 C 304.06175 527.7541 304.4773 528.14 304.9067 528.5102 L 309.47023 532.44426 C 309.8649 532.7845 310.271 533.1112 310.68785 533.4238 L 314.6628 536.40503 C 315.3287 536.90447 316.02123 537.3674 316.73733 537.79174 L 320.8704 540.24096 C 320.9984 540.3168 321.1271 540.3914 321.25656 540.46477 L 325.9541 543.1267 C 326.6924 543.5451 327.45328 543.92226 328.23325 544.25653 L 331.78307 545.7779 C 332.36903 546.029 332.9652 546.25567 333.56997 546.45726 L 338.5881 548.12997 C 339.83532 548.5457 341.1159 548.85376 342.4158 549.0507 L 346.51464 549.67174 C 346.87976 549.72706 347.24615 549.7736 347.6135 549.81126 L 354.4946 550.517 C 354.7398 550.54216 354.98534 550.56336 355.2312 550.5806 L 359.75835 550.8983 C 360.2942 550.9359 360.83122 550.95473 361.3684 550.95473 L 364.63046 550.95474 C 365.58416 550.95474 366.53693 550.8954 367.48327 550.7771 L 371.472 550.27854 C 372.13195 550.19604 372.788 550.08496 373.43835 549.9456 L 379.5204 548.6423 C 380.41426 548.45076 381.29592 548.2061 382.16068 547.9096 L 386.66952 546.3637 C 387.46417 546.0913 388.2433 545.7755 389.0034 545.4178 L 393.83677 543.14326 C 394.38697 542.88435 394.9267 542.6037 395.45464 542.302 L 399.2225 540.14896 C 399.9153 539.7531 400.587 539.3214 401.23494 538.8557 L 405.91106 535.49475 C 406.41175 535.1349 406.89776 534.75503 407.3679 534.3561 L 412.68877 529.84144 C 413.0711 529.51706 413.4427 529.18026 413.803 528.8316 L 418.5022 524.28396 C 419.1418 523.665 419.7449 523.00944 420.3085 522.3206 L 424.1018 517.68434 C 424.6085 517.065 425.08257 516.4197 425.522 515.75096 L 429.1392 510.24656 C 429.3546 509.91873 429.56163 509.58544 429.76 509.247 L 432.2831 504.9429 C 432.66906 504.28454 433.022 503.60735 433.3406 502.9139 L 435.4593 498.3026 C 435.9922 497.14285 436.36334 495.91544 436.5624 494.65474 L 436.5624 494.65474 C 436.7407 493.5255 436.1614 492.412 435.1343 491.9099 L 429.8409 489.322 C 428.5264 488.6794 427.29183 487.88486 426.1624 486.95474 L 425.7564 486.6204 C 424.91205 485.92504 424.28864 484.99874 423.9624 483.95474 L 423.9624 483.95474 C 423.91573 483.8054 423.75686 483.7222 423.60754 483.76886 C 423.49247 483.8048 423.41277 483.9097 423.4089 484.0302 L 423.2997 487.4531 C 423.20894 490.2962 422.5916 493.09776 421.479 495.71567 L 420.60206 497.77904 C 420.0435 499.0933 419.36374 500.3527 418.5716 501.5409 L 414.8858 507.0696 C 414.1383 508.19085 413.2937 509.24425 412.36175 510.2176 L 406.0667 516.7925 C 405.1986 517.6991 404.25777 518.5332 403.2536 519.2863 L 394.8787 525.5675 C 394.0023 526.2248 393.08 526.8187 392.11896 527.34454 L 384.93376 531.27606 C 383.62263 531.9935 382.2447 532.5814 380.8195 533.0314 L 374.1466 535.13867 C 372.42973 535.68084 370.65514 536.01954 368.85927 536.1478 L 361.9728 536.6397 C 360.9005 536.7163 359.82417 536.7176 358.7517 536.64365 L 350.31543 536.06184 C 349.28125 535.9905 348.2531 535.84936 347.23795 535.63933 L 340.10274 534.1631 C 338.1508 533.7592 336.2596 533.10335 334.47676 532.2119 L 329.81735 529.8822 C 328.5832 529.26515 327.4071 528.5383 326.30326 527.7104 L 320.6213 523.4489 C 320.18217 523.1196 319.75496 522.7746 319.3405 522.4147 L 313.58533 517.41676 C 312.77104 516.7096 312.0075 515.9461 311.30036 515.1318 L 306.89513 510.0591 C 306.14103 509.19075 305.45312 508.26705 304.8372 507.2958 L 301.1035 501.408 C 300.74293 500.83944 300.4075 500.2553 300.0982 499.6573 L 298.4778 496.52456 C 297.86867 495.3469 297.3625 494.11874 296.96497 492.85385 L 295.68473 488.78036 C 295.46995 488.097 295.28722 487.40395 295.13713 486.7035 L 294.9117 485.65157 C 294.82664 485.25456 295.053 484.8569 295.4378 484.72737 L 295.4378 484.72737 C 295.5103 484.70296 295.58884 484.74195 295.61325 484.81444 C 295.63126 484.86795 295.615 484.92704 295.57212 484.9638 Z" stroke="#7f8080" stroke-linecap="round" stroke-linejoin="round" stroke-width="1"/>
      <path d="M 295.05925 484.7559 L 300.45925 484.1559 L 307.25925 487.5559 L 312.25925 489.3559 L 320.65925 491.1559 L 329.05925 492.1559 L 337.05925 493.1559 L 344.65925 493.3559 L 353.25925 493.7559 L 364.85925 493.5559 L 373.25925 493.1559 L 382.65925 492.5559 L 391.05925 491.7559 L 400.25925 490.3559 L 408.45925 488.1559 L 414.25925 486.3559 L 419.85925 483.7559 L 422.65925 484.9559 L 423.05925 490.5559 L 420.25925 498.5559 L 414.85925 501.3559 L 404.25925 504.5559 L 392.85925 506.9559 L 381.65925 507.7559 L 369.25925 508.7559 L 358.85925 508.7559 L 349.45925 508.7559 L 337.85925 508.1559 L 326.65925 507.3559 L 316.05925 505.1559 L 307.45925 503.1559 L 301.25925 500.3559 L 299.25925 498.7559 L 296.05925 491.1559 Z" fill="white"/>
      <path d="M 295.05925 484.7559 L 300.45925 484.1559 L 307.25925 487.5559 L 312.25925 489.3559 L 320.65925 491.1559 L 329.05925 492.1559 L 337.05925 493.1559 L 344.65925 493.3559 L 353.25925 493.7559 L 364.85925 493.5559 L 373.25925 493.1559 L 382.65925 492.5559 L 391.05925 491.7559 L 400.25925 490.3559 L 408.45925 488.1559 L 414.25925 486.3559 L 419.85925 483.7559 L 422.65925 484.9559 L 423.05925 490.5559 L 420.25925 498.5559 L 414.85925 501.3559 L 404.25925 504.5559 L 392.85925 506.9559 L 381.65925 507.7559 L 369.25925 508.7559 L 358.85925 508.7559 L 349.45925 508.7559 L 337.85925 508.1559 L 326.65925 507.3559 L 316.05925 505.1559 L 307.45925 503.1559 L 301.25925 500.3559 L 299.25925 498.7559 L 296.05925 491.1559 Z" stroke="#7f8080" stroke-linecap="round" stroke-linejoin="round" stroke-width="1"/>
      <path d="M 224.8132 910.2 L 224.8132 910.2 C 224.74753 910.7255 224.81036 911.259 224.9963 911.7549 L 225.6473 913.4909 C 225.82406 913.9623 226.05115 914.4132 226.32462 914.8358 L 227.29243 916.3315 C 227.8334 917.1676 228.5465 917.8785 229.38412 918.417 L 230.46217 919.11 C 230.76243 919.3031 231.077 919.4728 231.40316 919.6179 L 232.72 920.2035 C 233.31654 920.4688 233.94725 920.6493 234.5938 920.7398 L 243.6042 922.0013 C 243.6142 922.0027 243.6242 922.004 243.6342 922.0054 L 255.3502 923.594 C 255.3962 923.6002 255.44226 923.606 255.48838 923.6113 L 265.7713 924.7978 C 265.80324 924.8015 265.8352 924.805 265.86716 924.8082 L 279.57723 926.1991 C 279.6052 926.2019 279.6332 926.2046 279.66123 926.2071 L 290.76653 927.1987 C 290.80164 927.2018 290.8368 927.2047 290.87195 927.2073 L 301.5585 927.9989 C 301.59896 928.0019 301.63947 928.0045 301.68 928.0068 L 312.18798 928.6016 C 312.2088 928.6028 312.2296 928.604 312.2504 928.6054 L 324.2932 929.3951 C 324.3772 929.4006 324.4613 929.4046 324.54543 929.4071 L 337.99256 929.8026 C 338.01032 929.8031 338.0281 929.8037 338.04585 929.8043 L 348.6897 930.1986 C 348.77603 930.2018 348.8624 930.2034 348.9488 930.2034 L 359.5578 930.2034 C 359.59874 930.2034 359.63967 930.2037 359.6806 930.2044 L 370.767 930.3989 C 370.9351 930.4019 371.1032 930.3988 371.27106 930.3896 L 381.8923 929.8103 C 381.9769 929.8057 382.06157 929.8026 382.1463 929.801 L 392.91085 929.6053 C 392.9831 929.604 393.0553 929.6016 393.12745 929.598 L 405.14607 929.007 C 405.19483 929.0046 405.24355 929.0016 405.29225 928.9982 L 416.5323 928.2095 C 416.59023 928.2054 416.6481 928.2006 416.70594 928.1951 L 429.1165 927.0131 C 429.18497 927.0066 429.2535 927.0011 429.32214 926.9966 L 441.25416 926.2142 C 441.3642 926.207 441.474 926.1972 441.58355 926.1847 L 451.9959 925.006 C 452.01144 925.0042 452.02697 925.0024 452.0425 925.0006 L 461.9902 923.8068 C 462.00954 923.8045 462.02886 923.8021 462.0482 923.7996 L 475.88394 922.0221 C 475.98115 922.0096 476.0781 921.9951 476.1747 921.9785 L 482.7282 920.8551 C 482.92915 920.8206 483.1315 920.795 483.33473 920.7782 L 486.56706 920.5112 C 487.4563 920.4377 488.3233 920.195 489.12135 919.7959 L 490.60765 919.0528 C 491.20824 918.7525 491.7625 918.3674 492.2534 917.9092 L 493.5885 916.6631 C 494.1953 916.0967 494.6507 915.3875 494.9132 914.6 L 495.20805 913.7155 C 495.2781 913.5053 495.3382 913.2919 495.388 913.0759 L 495.8577 911.0406 C 495.8929 910.8879 495.8595 910.7275 495.7662 910.6017 L 495.7662 910.6017 C 495.6759 910.4798 495.5252 910.4183 495.3754 910.4421 L 486.89555 911.7912 C 486.84466 911.7993 486.79385 911.808 486.74315 911.8172 L 473.7584 914.178 C 473.6656 914.1949 473.5725 914.2099 473.4791 914.223 L 462.24943 915.7991 C 462.2293 915.8019 462.20914 915.8049 462.189 915.8079 L 449.06643 917.7665 C 448.90167 917.791 448.7361 917.8097 448.57 917.8225 L 435.84517 918.8014 C 435.82786 918.8027 435.81055 918.804 435.79323 918.8052 L 421.4531 919.801 C 421.4305 919.8026 421.4079 919.804 421.3853 919.8054 L 408.08205 920.5996 C 408.04016 920.6021 407.99824 920.6042 407.9563 920.606 L 393.76485 921.1973 C 393.66776 921.2013 393.5706 921.2034 393.47344 921.2034 L 380.2192 921.2034 L 367.67753 921.2034 C 367.63865 921.2034 367.59976 921.2037 367.5609 921.2043 L 355.8025 921.4003 C 355.68032 921.4023 355.5581 921.4012 355.436 921.3968 L 344.6024 921.0099 C 344.4803 921.0055 344.3581 921.0044 344.2359 921.0064 L 332.52127 921.2017 C 332.45323 921.2028 332.38518 921.2029 332.31713 921.2021 L 316.61484 921.0058 C 316.48444 921.0042 316.3541 920.9989 316.224 920.99 L 301.91423 920.0099 C 301.8509 920.0055 301.7876 920.0003 301.7244 919.9943 L 287.2334 918.6047 C 287.22393 918.6038 287.21448 918.6029 287.20503 918.6019 L 273.393 917.2207 C 273.27715 917.2091 273.16162 917.1947 273.0465 917.1773 L 258.73735 915.0212 C 258.6586 915.0093 258.57964 914.9988 258.50052 914.9896 L 244.9806 913.4221 C 244.873 913.4096 244.76574 913.3946 244.65886 913.3772 L 235.26677 911.8438 C 235.10178 911.8168 234.9378 911.784 234.77516 911.7453 L 225.69756 909.5865 C 225.30925 909.4942 224.9196 909.7341 224.82724 910.1224 C 224.82116 910.148 224.81647 910.1739 224.8132 910.2 Z" fill="white"/>
      <path d="M 224.8132 910.2 L 224.8132 910.2 C 224.74753 910.7255 224.81036 911.259 224.9963 911.7549 L 225.6473 913.4909 C 225.82406 913.9623 226.05115 914.4132 226.32462 914.8358 L 227.29243 916.3315 C 227.8334 917.1676 228.5465 917.8785 229.38412 918.417 L 230.46217 919.11 C 230.76243 919.3031 231.077 919.4728 231.40316 919.6179 L 232.72 920.2035 C 233.31654 920.4688 233.94725 920.6493 234.5938 920.7398 L 243.6042 922.0013 C 243.6142 922.0027 243.6242 922.004 243.6342 922.0054 L 255.3502 923.594 C 255.3962 923.6002 255.44226 923.606 255.48838 923.6113 L 265.7713 924.7978 C 265.80324 924.8015 265.8352 924.805 265.86716 924.8082 L 279.57723 926.1991 C 279.6052 926.2019 279.6332 926.2046 279.66123 926.2071 L 290.76653 927.1987 C 290.80164 927.2018 290.8368 927.2047 290.87195 927.2073 L 301.5585 927.9989 C 301.59896 928.0019 301.63947 928.0045 301.68 928.0068 L 312.18798 928.6016 C 312.2088 928.6028 312.2296 928.604 312.2504 928.6054 L 324.2932 929.3951 C 324.3772 929.4006 324.4613 929.4046 324.54543 929.4071 L 337.99256 929.8026 C 338.01032 929.8031 338.0281 929.8037 338.04585 929.8043 L 348.6897 930.1986 C 348.77603 930.2018 348.8624 930.2034 348.9488 930.2034 L 359.5578 930.2034 C 359.59874 930.2034 359.63967 930.2037 359.6806 930.2044 L 370.767 930.3989 C 370.9351 930.4019 371.1032 930.3988 371.27106 930.3896 L 381.8923 929.8103 C 381.9769 929.8057 382.06157 929.8026 382.1463 929.801 L 392.91085 929.6053 C 392.9831 929.604 393.0553 929.6016 393.12745 929.598 L 405.14607 929.007 C 405.19483 929.0046 405.24355 929.0016 405.29225 928.9982 L 416.5323 928.2095 C 416.59023 928.2054 416.6481 928.2006 416.70594 928.1951 L 429.1165 927.0131 C 429.18497 927.0066 429.2535 927.0011 429.32214 926.9966 L 441.25416 926.2142 C 441.3642 926.207 441.474 926.1972 441.58355 926.1847 L 451.9959 925.006 C 452.01144 925.0042 452.02697 925.0024 452.0425 925.0006 L 461.9902 923.8068 C 462.00954 923.8045 462.02886 923.8021 462.0482 923.7996 L 475.88394 922.0221 C 475.98115 922.0096 476.0781 921.9951 476.1747 921.9785 L 482.7282 920.8551 C 482.92915 920.8206 483.1315 920.795 483.33473 920.7782 L 486.56706 920.5112 C 487.4563 920.4377 488.3233 920.195 489.12135 919.7959 L 490.60765 919.0528 C 491.20824 918.7525 491.7625 918.3674 492.2534 917.9092 L 493.5885 916.6631 C 494.1953 916.0967 494.6507 915.3875 494.9132 914.6 L 495.20805 913.7155 C 495.2781 913.5053 495.3382 913.2919 495.388 913.0759 L 495.8577 911.0406 C 495.8929 910.8879 495.8595 910.7275 495.7662 910.6017 L 495.7662 910.6017 C 495.6759 910.4798 495.5252 910.4183 495.3754 910.4421 L 486.89555 911.7912 C 486.84466 911.7993 486.79385 911.808 486.74315 911.8172 L 473.7584 914.178 C 473.6656 914.1949 473.5725 914.2099 473.4791 914.223 L 462.24943 915.7991 C 462.2293 915.8019 462.20914 915.8049 462.189 915.8079 L 449.06643 917.7665 C 448.90167 917.791 448.7361 917.8097 448.57 917.8225 L 435.84517 918.8014 C 435.82786 918.8027 435.81055 918.804 435.79323 918.8052 L 421.4531 919.801 C 421.4305 919.8026 421.4079 919.804 421.3853 919.8054 L 408.08205 920.5996 C 408.04016 920.6021 407.99824 920.6042 407.9563 920.606 L 393.76485 921.1973 C 393.66776 921.2013 393.5706 921.2034 393.47344 921.2034 L 380.2192 921.2034 L 367.67753 921.2034 C 367.63865 921.2034 367.59976 921.2037 367.5609 921.2043 L 355.8025 921.4003 C 355.68032 921.4023 355.5581 921.4012 355.436 921.3968 L 344.6024 921.0099 C 344.4803 921.0055 344.3581 921.0044 344.2359 921.0064 L 332.52127 921.2017 C 332.45323 921.2028 332.38518 921.2029 332.31713 921.2021 L 316.61484 921.0058 C 316.48444 921.0042 316.3541 920.9989 316.224 920.99 L 301.91423 920.0099 C 301.8509 920.0055 301.7876 920.0003 301.7244 919.9943 L 287.2334 918.6047 C 287.22393 918.6038 287.21448 918.6029 287.20503 918.6019 L 273.393 917.2207 C 273.27715 917.2091 273.16162 917.1947 273.0465 917.1773 L 258.73735 915.0212 C 258.6586 915.0093 258.57964 914.9988 258.50052 914.9896 L 244.9806 913.4221 C 244.873 913.4096 244.76574 913.3946 244.65886 913.3772 L 235.26677 911.8438 C 235.10178 911.8168 234.9378 911.784 234.77516 911.7453 L 225.69756 909.5865 C 225.30925 909.4942 224.9196 909.7341 224.82724 910.1224 C 224.82116 910.148 224.81647 910.1739 224.8132 910.2 Z" stroke="#7f8080" stroke-linecap="round" stroke-linejoin="round" stroke-width="1"/>
      <path d="M 147 627 L 153 612 L 159 597 L 165 581 L 172 567 L 180 551 L 189 538 L 203 525 L 220 517 L 236 511 L 253 506 L 266 501 L 283 495 L 285.5 503.5 L 290 510.5 L 272 517 L 255 522 L 240 528 L 224 534 L 210 543 L 202 551 L 194 562.5 L 187.5 573.5 L 180 588.5 L 172.5 604 L 166 620.5 L 161.5 635.5 L 157 634 Z" fill="white"/>
      <path d="M 147 627 L 153 612 L 159 597 L 165 581 L 172 567 L 180 551 L 189 538 L 203 525 L 220 517 L 236 511 L 253 506 L 266 501 L 283 495 L 285.5 503.5 L 290 510.5 L 272 517 L 255 522 L 240 528 L 224 534 L 210 543 L 202 551 L 194 562.5 L 187.5 573.5 L 180 588.5 L 172.5 604 L 166 620.5 L 161.5 635.5 L 157 634 Z" stroke="#7f8080" stroke-linecap="round" stroke-linejoin="round" stroke-width="1"/>
      <path d="M 574.5 626.5 L 568 610.5 L 562.5 595.5 L 555.5 579.5 L 548.5 563.5 L 539.5185 549 L 530.5185 536 L 516.5185 523 L 499.5185 515 L 483.5185 509 L 466.5185 504 L 453.5185 499 L 436.5185 493 L 434.0185 501.5 L 429.5185 508.5 L 447.5185 515 L 464.5185 520 L 479.5185 526 L 495.5185 532 L 509.5185 541 L 517.5185 549 L 525.5185 560.5 L 532.0185 571.5 L 539.5185 586.5 L 547.0185 602 L 553.5185 618.5 L 558.0185 633.5 L 562.5185 632 Z" fill="white"/>
      <path d="M 574.5 626.5 L 568 610.5 L 562.5 595.5 L 555.5 579.5 L 548.5 563.5 L 539.5185 549 L 530.5185 536 L 516.5185 523 L 499.5185 515 L 483.5185 509 L 466.5185 504 L 453.5185 499 L 436.5185 493 L 434.0185 501.5 L 429.5185 508.5 L 447.5185 515 L 464.5185 520 L 479.5185 526 L 495.5185 532 L 509.5185 541 L 517.5185 549 L 525.5185 560.5 L 532.0185 571.5 L 539.5185 586.5 L 547.0185 602 L 553.5185 618.5 L 558.0185 633.5 L 562.5185 632 Z" stroke="#7f8080" stroke-linecap="round" stroke-linejoin="round" stroke-width="1"/>
    </g>
  </g>
</svg>
