<?xml version="1.0" encoding="UTF-8" standalone="no"?>
<!DOCTYPE svg PUBLIC "-//W3C//DTD SVG 1.1//EN" "http://www.w3.org/Graphics/SVG/1.1/DTD/svg11.dtd">
<svg xmlns="http://www.w3.org/2000/svg" xmlns:xl="http://www.w3.org/1999/xlink" version="1.1" viewBox="503.5 547.5 432.4053 448.4" width="432.4053pt" height="448.4pt" xmlns:dc="http://purl.org/dc/elements/1.1/">
  <metadata> Produced by OmniGraffle 7.6.1 
    <dc:date>2019-06-07 16:57:23 +0000</dc:date>
  </metadata>
  <defs>
    <radialGradient cx="0" cy="0" r="1" id="Gradient" gradientUnits="userSpaceOnUse">
      <stop offset="0" stop-color="#cbcbcb"/>
      <stop offset="1" stop-color="black"/>
    </radialGradient>
    <radialGradient id="Obj_Gradient" xl:href="#Gradient" gradientTransform="translate(718.75925 575.4) scale(70.26272)"/>
  </defs>
  <g stroke="none" stroke-opacity="1" stroke-dasharray="none" fill="none" fill-opacity="1">
    <title>tunez</title>
    <g>
      <title>Capa 1</title>
      <path d="M 657.00565 548.59045 L 665.1711 551.70816 C 666.0291 552.03576 666.9059 552.3117 667.7969 552.5344 L 681.5141 555.9637 C 682.67576 556.2541 683.8583 556.4534 685.051 556.55966 L 702.57715 558.1214 C 703.165 558.1738 703.75464 558.2035 704.3448 558.21054 L 719.8237 558.3948 C 720.114 558.3983 720.4044 558.3962 720.6947 558.3887 L 735.118 558.01406 C 735.4788 558.0047 735.8393 557.9868 736.1992 557.9605 L 750.5705 556.9089 C 751.562 556.8364 752.5477 556.69964 753.5214 556.49956 L 765.0944 554.12155 C 766.1364 553.90744 767.1623 553.6213 768.16465 553.2652 L 779.9166 549.09014 C 781.007 548.70277 782.2102 549.23354 782.65925 550.3 L 782.65925 550.3 C 783.1814 551.5401 783.3334 552.90485 783.09685 554.22945 L 782.9164 555.24014 C 782.6126 556.9413 782.1181 558.6028 781.4421 560.1932 L 779.8989 563.8243 C 779.34035 565.1386 778.6606 566.398 777.8685 567.5862 L 774.1827 573.11485 C 773.4352 574.2361 772.5906 575.2895 771.6586 576.2629 L 765.3635 582.83774 C 764.4955 583.7444 763.5546 584.57846 762.5505 585.3316 L 754.17555 591.6128 C 753.2991 592.2701 752.3769 592.86394 751.4158 593.3898 L 744.2306 597.3213 C 742.9195 598.0387 741.5416 598.62664 740.1164 599.0767 L 733.4435 601.1839 C 731.7266 601.7261 729.952 602.0648 728.1561 602.1931 L 721.2697 602.685 C 720.1974 602.76156 719.121 602.7629 718.04854 602.6889 L 709.6123 602.1071 C 708.5781 602.0358 707.5499 601.8946 706.5348 601.6846 L 699.3996 600.20835 C 697.44765 599.8045 695.5565 599.1486 693.7736 598.2572 L 689.1142 595.9275 C 687.8801 595.3104 686.704 594.58354 685.6001 593.75566 L 679.9182 589.4942 C 679.479 589.1648 679.0518 588.8199 678.6374 588.45995 L 672.8822 583.462 C 672.0679 582.7549 671.3044 581.99135 670.5972 581.17706 L 666.192 576.1044 C 665.4379 575.236 664.75 574.3123 664.13406 573.34105 L 660.40036 567.4533 C 660.0398 566.8847 659.7044 566.30056 659.39505 565.70255 L 657.7747 562.5698 C 657.1655 561.39215 656.6594 560.164 656.2618 558.8991 L 654.9816 554.8256 C 654.7668 554.14225 654.5841 553.4492 654.434 552.7488 L 654.35925 552.4 C 654.1646 551.4916 654.27185 550.5444 654.6647 549.70254 L 654.75925 549.5 C 655.1537 548.6547 656.1342 548.2577 657.00565 548.59045 Z" fill="url(#Obj_Gradient)"/>
      <path d="M 657.00565 548.59045 L 665.1711 551.70816 C 666.0291 552.03576 666.9059 552.3117 667.7969 552.5344 L 681.5141 555.9637 C 682.67576 556.2541 683.8583 556.4534 685.051 556.55966 L 702.57715 558.1214 C 703.165 558.1738 703.75464 558.2035 704.3448 558.21054 L 719.8237 558.3948 C 720.114 558.3983 720.4044 558.3962 720.6947 558.3887 L 735.118 558.01406 C 735.4788 558.0047 735.8393 557.9868 736.1992 557.9605 L 750.5705 556.9089 C 751.562 556.8364 752.5477 556.69964 753.5214 556.49956 L 765.0944 554.12155 C 766.1364 553.90744 767.1623 553.6213 768.16465 553.2652 L 779.9166 549.09014 C 781.007 548.70277 782.2102 549.23354 782.65925 550.3 L 782.65925 550.3 C 783.1814 551.5401 783.3334 552.90485 783.09685 554.22945 L 782.9164 555.24014 C 782.6126 556.9413 782.1181 558.6028 781.4421 560.1932 L 779.8989 563.8243 C 779.34035 565.1386 778.6606 566.398 777.8685 567.5862 L 774.1827 573.11485 C 773.4352 574.2361 772.5906 575.2895 771.6586 576.2629 L 765.3635 582.83774 C 764.4955 583.7444 763.5546 584.57846 762.5505 585.3316 L 754.17555 591.6128 C 753.2991 592.2701 752.3769 592.86394 751.4158 593.3898 L 744.2306 597.3213 C 742.9195 598.0387 741.5416 598.62664 740.1164 599.0767 L 733.4435 601.1839 C 731.7266 601.7261 729.952 602.0648 728.1561 602.1931 L 721.2697 602.685 C 720.1974 602.76156 719.121 602.7629 718.04854 602.6889 L 709.6123 602.1071 C 708.5781 602.0358 707.5499 601.8946 706.5348 601.6846 L 699.3996 600.20835 C 697.44765 599.8045 695.5565 599.1486 693.7736 598.2572 L 689.1142 595.9275 C 687.8801 595.3104 686.704 594.58354 685.6001 593.75566 L 679.9182 589.4942 C 679.479 589.1648 679.0518 588.8199 678.6374 588.45995 L 672.8822 583.462 C 672.0679 582.7549 671.3044 581.99135 670.5972 581.17706 L 666.192 576.1044 C 665.4379 575.236 664.75 574.3123 664.13406 573.34105 L 660.40036 567.4533 C 660.0398 566.8847 659.7044 566.30056 659.39505 565.70255 L 657.7747 562.5698 C 657.1655 561.39215 656.6594 560.164 656.2618 558.8991 L 654.9816 554.8256 C 654.7668 554.14225 654.5841 553.4492 654.434 552.7488 L 654.35925 552.4 C 654.1646 551.4916 654.27185 550.5444 654.6647 549.70254 L 654.75925 549.5 C 655.1537 548.6547 656.1342 548.2577 657.00565 548.59045 Z" stroke="#7f8080" stroke-linecap="round" stroke-linejoin="round" stroke-width="1"/>
      <path d="M 592.97346 985.2638 L 606.7157 987.5542 C 606.8991 987.5847 607.083 987.6121 607.2673 987.6362 L 635.62094 991.3515 C 635.8675 991.3838 636.1147 991.4104 636.3625 991.4312 L 666.6054 993.9677 C 666.8623 993.9892 667.1197 994.0046 667.3773 994.0137 L 706.3082 995.39 C 706.4966 995.3967 706.68504 995.4 706.8735 995.4 L 738.34084 995.4 C 738.5075 995.4 738.6741 995.3974 738.8406 995.3922 L 763.8754 994.6099 C 764.0856 994.6033 764.2957 994.5926 764.50555 994.5777 L 786.5533 993.0168 C 786.7116 993.0056 786.86975 992.992 787.0277 992.9761 L 812.2881 990.4305 C 812.4899 990.4102 812.6912 990.386 812.892 990.358 L 836.6847 987.0427 C 836.8888 987.0142 837.0922 986.9819 837.295 986.9456 L 846.4908 985.3 C 851.8179 984.3467 855.4688 979.3931 854.8023 974.0226 L 852.5948 956.232 C 852.5921 956.2107 852.5895 956.1893 852.5869 956.168 L 849.0231 926.4695 C 849.0016 926.2898 848.9831 926.1099 848.9676 925.9296 L 846.6054 898.3704 C 846.5957 898.2568 846.5871 898.1431 846.5798 898.0294 L 845.1932 876.4377 C 845.1916 876.4126 845.1899 876.3874 845.1882 876.3623 L 843.596 853.276 C 843.5925 853.2253 843.5893 853.1747 843.5863 853.124 L 842.4099 833.3218 C 842.3972 833.1073 842.3887 832.8925 842.3846 832.6777 L 841.9924 812.0829 C 841.9913 812.0276 841.99 811.9724 841.9883 811.9172 L 841.3932 791.6828 C 841.3916 791.6276 841.3903 791.5724 841.3892 791.5172 L 840.9985 771.0076 C 840.9934 770.7359 840.9951 770.4641 841.0038 770.1925 L 841.5897 751.8329 C 841.5904 751.811 841.5912 751.789 841.592 751.7671 L 842.3801 729.8978 C 842.3872 729.6993 842.3981 729.5009 842.4126 729.3028 L 843.9701 708.0822 C 843.9839 707.8941 843.9944 707.7057 844.0015 707.5172 L 844.756 687.6184 C 844.7792 687.0066 844.8374 686.3967 844.9305 685.79165 L 847.6695 667.9881 C 847.7503 667.463 847.8572 666.9423 847.9898 666.4278 L 852.6181 648.4702 C 852.7332 648.0236 852.8675 647.5822 853.0207 647.14725 L 858.7415 630.9076 C 858.9076 630.4361 859.0957 629.9727 859.3052 629.5188 L 864.8367 617.5338 C 864.9394 617.3113 865.0472 617.0912 865.16 616.87364 L 870.5222 606.5322 C 870.5679 606.4441 870.6145 606.35636 870.6618 606.2691 L 875.8778 596.6521 C 876.615 595.29276 877.5647 594.0599 878.6908 593 L 878.6908 593 C 879.366 592.3645 879.3982 591.302 878.7627 590.62684 C 878.6382 590.49456 878.4931 590.3834 878.333 590.2976 L 875.1188 588.5757 C 874.9002 588.4586 874.6788 588.34656 874.4549 588.2397 L 866.601 584.4912 C 866.1944 584.29716 865.7797 584.12036 865.3582 583.9613 L 855.6834 580.3104 C 855.4883 580.2368 855.2919 580.167 855.0941 580.1011 L 842.3996 575.8696 C 842.2604 575.8232 842.1206 575.7787 841.9801 575.73616 L 829.0966 571.83206 C 829.0261 571.8107 828.9557 571.7888 828.8854 571.7665 L 816.3814 567.78794 C 815.9878 567.6627 815.5992 567.52225 815.2164 567.3669 L 803.2405 562.5071 C 802.4088 562.16964 801.607 561.7628 800.8436 561.29083 L 791.2244 555.3444 C 791.0687 555.24814 790.9146 555.1492 790.7623 555.0477 L 785.8722 551.7876 C 784.8908 551.13335 784.0195 550.32745 783.2908 549.4 L 783.2908 549.4 C 783.1852 549.2656 782.9906 549.24225 782.8562 549.34785 C 782.7535 549.4286 782.7125 549.5651 782.7538 549.6891 L 782.8908 550.1 C 783.35 551.47775 783.4546 552.94904 783.1948 554.3779 L 782.7997 556.55115 C 782.5285 558.0428 782.0466 559.48835 781.3686 560.8444 L 779.8363 563.90904 C 779.5396 564.50244 779.2062 565.0768 778.8382 565.6288 L 775.6345 570.4344 C 775.2059 571.0773 774.7313 571.6883 774.2144 572.2626 L 769.6524 577.33156 C 769.6113 577.3772 769.57 577.4226 769.5284 577.4677 L 763.5342 583.97576 C 762.9064 584.6573 762.2207 585.283 761.4846 585.8459 L 756.4605 589.6879 C 756.0143 590.02906 755.5505 590.3465 755.071 590.6389 L 748.5846 594.594 C 747.9229 594.9975 747.2328 595.3523 746.51975 595.65576 L 739.4043 598.6836 C 738.5967 599.0273 737.7621 599.3039 736.90905 599.5107 L 732.83 600.4996 C 732.0052 600.69955 731.1657 600.83356 730.3196 600.90035 L 724.6194 601.3504 C 724.2005 601.38344 723.7804 601.4 723.3602 601.4 L 716.3279 601.4 C 715.5708 601.4 714.8146 601.34626 714.0651 601.2392 L 706.1187 600.104 C 705.6337 600.0347 705.1521 599.9432 704.6755 599.8297 L 698.7143 598.41035 C 697.5688 598.1376 696.4569 597.7393 695.3988 597.2225 L 689.1188 594.15556 C 688.6338 593.9187 688.161 593.6574 687.7024 593.3727 L 683.4905 590.75846 C 682.89135 590.38656 682.3174 589.97546 681.7725 589.52784 L 677.3264 585.8757 C 677.1027 585.6919 676.884 585.50214 676.6706 585.3065 L 672.8683 581.82104 C 672.417 581.40736 671.9898 580.9681 671.58885 580.50546 L 667.4701 575.7531 C 667.1507 575.38455 666.84836 575.0016 666.56395 574.6055 L 662.1343 568.4356 C 661.6394 567.7463 661.2001 567.0187 660.82064 566.2597 L 658.2442 561.1068 C 658.2086 561.0356 658.1735 560.96414 658.139 560.8924 L 656.8908 558.3 C 656.0401 556.5331 655.68455 554.5686 655.8621 552.61564 L 656.0423 550.6334 C 656.0661 550.3715 655.8731 550.13994 655.61125 550.11614 C 655.44886 550.1014 655.2902 550.17075 655.1908 550.3 L 655.1908 550.3 C 654.5273 551.1625 653.7472 551.92856 652.87285 552.57625 L 648.9763 555.46257 C 648.8526 555.5542 648.7276 555.644 648.60136 555.732 L 643.9791 558.9536 C 642.7924 559.7807 641.49895 560.4431 640.1342 560.9226 L 635.5271 562.5413 C 635.0365 562.71367 634.5546 562.90984 634.08316 563.1291 L 627.2364 566.3137 C 626.5402 566.6375 625.82165 566.91074 625.08625 567.13136 L 614.2159 570.3925 C 614.19914 570.3975 614.1824 570.40254 614.1657 570.4076 L 603.19764 573.7372 C 603.05974 573.7791 602.9224 573.8228 602.7857 573.86836 L 589.86446 578.17544 C 589.81534 578.1918 589.76614 578.20795 589.71686 578.22384 L 578.34946 581.89075 C 577.711 582.0967 577.0861 582.3426 576.47846 582.62704 L 568.5465 586.3399 C 568.17616 586.5132 567.8126 586.7007 567.4566 586.9019 L 561.5105 590.26276 C 560.2575 590.971 559.8158 592.5609 560.52406 593.81396 C 560.6012 593.9504 560.69045 594.0796 560.7908 594.2 L 561.6549 595.2369 C 562.40984 596.1429 563.0623 597.1295 563.6004 598.1788 L 566.6776 604.17924 C 566.75304 604.3264 566.8308 604.4724 566.9108 604.61715 L 570.86554 611.7734 C 570.949 611.92445 571.0301 612.0769 571.1086 612.2306 L 575.2169 620.26856 C 575.466 620.7559 575.6899 621.2556 575.88776 621.7659 L 579.3705 630.7478 C 579.384 630.7826 579.39765 630.8174 579.4114 630.8521 L 583.0077 639.93754 C 583.1297 640.2458 583.2421 640.5577 583.34476 640.87294 L 585.9666 648.9257 C 585.9827 648.97524 585.9986 649.02484 586.01424 649.0745 L 589.0863 658.8328 C 589.2891 659.47695 589.4509 660.1333 589.5707 660.7979 L 591.55605 671.8074 C 591.5792 671.9358 591.6008 672.0645 591.6208 672.1934 L 593.3267 683.1868 C 593.3694 683.4622 593.4049 683.7387 593.4332 684.016 L 594.32065 692.7127 C 594.3674 693.1707 594.3943 693.6305 594.4014 694.0908 L 594.58565 706.0664 C 594.5891 706.2888 594.5971 706.51105 594.6098 706.7331 L 595.3802 720.21465 C 595.38725 720.3382 595.39575 720.4617 595.4057 720.5851 L 596.73924 737.1594 C 596.7736 737.5863 596.7908 738.0144 596.7908 738.4426 L 596.7908 750.8924 C 596.7908 751.0975 596.7947 751.3025 596.8026 751.50735 L 597.38295 766.5965 C 597.3882 766.7322 597.39166 766.8679 597.3934 767.00365 L 597.5856 781.7999 C 597.58905 782.0666 597.58584 782.3333 597.576 782.5999 L 597.00174 798.104 C 596.99444 798.3013 596.9908 798.49875 596.9908 798.6962 L 596.9908 812.2924 C 596.9908 812.4975 596.98684 812.7025 596.97896 812.9074 L 596.3938 828.1224 C 596.3918 828.1741 596.3895 828.2259 596.38704 828.2776 L 595.5917 844.7806 C 595.5911 844.7935 595.59045 844.8065 595.5898 844.8195 L 594.7953 860.5106 C 594.7923 860.5702 594.78894 860.6298 594.78526 860.6893 L 593.59634 879.9101 C 593.59264 879.97 593.5886 880.03 593.5842 880.0899 L 591.8011 904.4594 C 591.7942 904.5531 591.7865 904.6468 591.778 904.7404 L 589.9921 924.3852 C 589.9912 924.3951 589.9903 924.4049 589.9894 924.4148 L 588.21864 943.4997 C 588.2001 943.6999 588.1777 943.8997 588.1516 944.099 L 586.1909 959.0717 C 586.0581 960.086 585.78896 961.0776 585.3908 962.0197 L 585.3908 962.0197 C 584.9932 962.9605 584.74454 963.9574 584.6537 964.9747 L 583.8908 973.5197 C 583.383 979.2068 587.3415 984.3251 592.97346 985.2638 Z" fill="white"/>
      <path d="M 592.97346 985.2638 L 606.7157 987.5542 C 606.8991 987.5847 607.083 987.6121 607.2673 987.6362 L 635.62094 991.3515 C 635.8675 991.3838 636.1147 991.4104 636.3625 991.4312 L 666.6054 993.9677 C 666.8623 993.9892 667.1197 994.0046 667.3773 994.0137 L 706.3082 995.39 C 706.4966 995.3967 706.68504 995.4 706.8735 995.4 L 738.34084 995.4 C 738.5075 995.4 738.6741 995.3974 738.8406 995.3922 L 763.8754 994.6099 C 764.0856 994.6033 764.2957 994.5926 764.50555 994.5777 L 786.5533 993.0168 C 786.7116 993.0056 786.86975 992.992 787.0277 992.9761 L 812.2881 990.4305 C 812.4899 990.4102 812.6912 990.386 812.892 990.358 L 836.6847 987.0427 C 836.8888 987.0142 837.0922 986.9819 837.295 986.9456 L 846.4908 985.3 C 851.8179 984.3467 855.4688 979.3931 854.8023 974.0226 L 852.5948 956.232 C 852.5921 956.2107 852.5895 956.1893 852.5869 956.168 L 849.0231 926.4695 C 849.0016 926.2898 848.9831 926.1099 848.9676 925.9296 L 846.6054 898.3704 C 846.5957 898.2568 846.5871 898.1431 846.5798 898.0294 L 845.1932 876.4377 C 845.1916 876.4126 845.1899 876.3874 845.1882 876.3623 L 843.596 853.276 C 843.5925 853.2253 843.5893 853.1747 843.5863 853.124 L 842.4099 833.3218 C 842.3972 833.1073 842.3887 832.8925 842.3846 832.6777 L 841.9924 812.0829 C 841.9913 812.0276 841.99 811.9724 841.9883 811.9172 L 841.3932 791.6828 C 841.3916 791.6276 841.3903 791.5724 841.3892 791.5172 L 840.9985 771.0076 C 840.9934 770.7359 840.9951 770.4641 841.0038 770.1925 L 841.5897 751.8329 C 841.5904 751.811 841.5912 751.789 841.592 751.7671 L 842.3801 729.8978 C 842.3872 729.6993 842.3981 729.5009 842.4126 729.3028 L 843.9701 708.0822 C 843.9839 707.8941 843.9944 707.7057 844.0015 707.5172 L 844.756 687.6184 C 844.7792 687.0066 844.8374 686.3967 844.9305 685.79165 L 847.6695 667.9881 C 847.7503 667.463 847.8572 666.9423 847.9898 666.4278 L 852.6181 648.4702 C 852.7332 648.0236 852.8675 647.5822 853.0207 647.14725 L 858.7415 630.9076 C 858.9076 630.4361 859.0957 629.9727 859.3052 629.5188 L 864.8367 617.5338 C 864.9394 617.3113 865.0472 617.0912 865.16 616.87364 L 870.5222 606.5322 C 870.5679 606.4441 870.6145 606.35636 870.6618 606.2691 L 875.8778 596.6521 C 876.615 595.29276 877.5647 594.0599 878.6908 593 L 878.6908 593 C 879.366 592.3645 879.3982 591.302 878.7627 590.62684 C 878.6382 590.49456 878.4931 590.3834 878.333 590.2976 L 875.1188 588.5757 C 874.9002 588.4586 874.6788 588.34656 874.4549 588.2397 L 866.601 584.4912 C 866.1944 584.29716 865.7797 584.12036 865.3582 583.9613 L 855.6834 580.3104 C 855.4883 580.2368 855.2919 580.167 855.0941 580.1011 L 842.3996 575.8696 C 842.2604 575.8232 842.1206 575.7787 841.9801 575.73616 L 829.0966 571.83206 C 829.0261 571.8107 828.9557 571.7888 828.8854 571.7665 L 816.3814 567.78794 C 815.9878 567.6627 815.5992 567.52225 815.2164 567.3669 L 803.2405 562.5071 C 802.4088 562.16964 801.607 561.7628 800.8436 561.29083 L 791.2244 555.3444 C 791.0687 555.24814 790.9146 555.1492 790.7623 555.0477 L 785.8722 551.7876 C 784.8908 551.13335 784.0195 550.32745 783.2908 549.4 L 783.2908 549.4 C 783.1852 549.2656 782.9906 549.24225 782.8562 549.34785 C 782.7535 549.4286 782.7125 549.5651 782.7538 549.6891 L 782.8908 550.1 C 783.35 551.47775 783.4546 552.94904 783.1948 554.3779 L 782.7997 556.55115 C 782.5285 558.0428 782.0466 559.48835 781.3686 560.8444 L 779.8363 563.90904 C 779.5396 564.50244 779.2062 565.0768 778.8382 565.6288 L 775.6345 570.4344 C 775.2059 571.0773 774.7313 571.6883 774.2144 572.2626 L 769.6524 577.33156 C 769.6113 577.3772 769.57 577.4226 769.5284 577.4677 L 763.5342 583.97576 C 762.9064 584.6573 762.2207 585.283 761.4846 585.8459 L 756.4605 589.6879 C 756.0143 590.02906 755.5505 590.3465 755.071 590.6389 L 748.5846 594.594 C 747.9229 594.9975 747.2328 595.3523 746.51975 595.65576 L 739.4043 598.6836 C 738.5967 599.0273 737.7621 599.3039 736.90905 599.5107 L 732.83 600.4996 C 732.0052 600.69955 731.1657 600.83356 730.3196 600.90035 L 724.6194 601.3504 C 724.2005 601.38344 723.7804 601.4 723.3602 601.4 L 716.3279 601.4 C 715.5708 601.4 714.8146 601.34626 714.0651 601.2392 L 706.1187 600.104 C 705.6337 600.0347 705.1521 599.9432 704.6755 599.8297 L 698.7143 598.41035 C 697.5688 598.1376 696.4569 597.7393 695.3988 597.2225 L 689.1188 594.15556 C 688.6338 593.9187 688.161 593.6574 687.7024 593.3727 L 683.4905 590.75846 C 682.89135 590.38656 682.3174 589.97546 681.7725 589.52784 L 677.3264 585.8757 C 677.1027 585.6919 676.884 585.50214 676.6706 585.3065 L 672.8683 581.82104 C 672.417 581.40736 671.9898 580.9681 671.58885 580.50546 L 667.4701 575.7531 C 667.1507 575.38455 666.84836 575.0016 666.56395 574.6055 L 662.1343 568.4356 C 661.6394 567.7463 661.2001 567.0187 660.82064 566.2597 L 658.2442 561.1068 C 658.2086 561.0356 658.1735 560.96414 658.139 560.8924 L 656.8908 558.3 C 656.0401 556.5331 655.68455 554.5686 655.8621 552.61564 L 656.0423 550.6334 C 656.0661 550.3715 655.8731 550.13994 655.61125 550.11614 C 655.44886 550.1014 655.2902 550.17075 655.1908 550.3 L 655.1908 550.3 C 654.5273 551.1625 653.7472 551.92856 652.87285 552.57625 L 648.9763 555.46257 C 648.8526 555.5542 648.7276 555.644 648.60136 555.732 L 643.9791 558.9536 C 642.7924 559.7807 641.49895 560.4431 640.1342 560.9226 L 635.5271 562.5413 C 635.0365 562.71367 634.5546 562.90984 634.08316 563.1291 L 627.2364 566.3137 C 626.5402 566.6375 625.82165 566.91074 625.08625 567.13136 L 614.2159 570.3925 C 614.19914 570.3975 614.1824 570.40254 614.1657 570.4076 L 603.19764 573.7372 C 603.05974 573.7791 602.9224 573.8228 602.7857 573.86836 L 589.86446 578.17544 C 589.81534 578.1918 589.76614 578.20795 589.71686 578.22384 L 578.34946 581.89075 C 577.711 582.0967 577.0861 582.3426 576.47846 582.62704 L 568.5465 586.3399 C 568.17616 586.5132 567.8126 586.7007 567.4566 586.9019 L 561.5105 590.26276 C 560.2575 590.971 559.8158 592.5609 560.52406 593.81396 C 560.6012 593.9504 560.69045 594.0796 560.7908 594.2 L 561.6549 595.2369 C 562.40984 596.1429 563.0623 597.1295 563.6004 598.1788 L 566.6776 604.17924 C 566.75304 604.3264 566.8308 604.4724 566.9108 604.61715 L 570.86554 611.7734 C 570.949 611.92445 571.0301 612.0769 571.1086 612.2306 L 575.2169 620.26856 C 575.466 620.7559 575.6899 621.2556 575.88776 621.7659 L 579.3705 630.7478 C 579.384 630.7826 579.39765 630.8174 579.4114 630.8521 L 583.0077 639.93754 C 583.1297 640.2458 583.2421 640.5577 583.34476 640.87294 L 585.9666 648.9257 C 585.9827 648.97524 585.9986 649.02484 586.01424 649.0745 L 589.0863 658.8328 C 589.2891 659.47695 589.4509 660.1333 589.5707 660.7979 L 591.55605 671.8074 C 591.5792 671.9358 591.6008 672.0645 591.6208 672.1934 L 593.3267 683.1868 C 593.3694 683.4622 593.4049 683.7387 593.4332 684.016 L 594.32065 692.7127 C 594.3674 693.1707 594.3943 693.6305 594.4014 694.0908 L 594.58565 706.0664 C 594.5891 706.2888 594.5971 706.51105 594.6098 706.7331 L 595.3802 720.21465 C 595.38725 720.3382 595.39575 720.4617 595.4057 720.5851 L 596.73924 737.1594 C 596.7736 737.5863 596.7908 738.0144 596.7908 738.4426 L 596.7908 750.8924 C 596.7908 751.0975 596.7947 751.3025 596.8026 751.50735 L 597.38295 766.5965 C 597.3882 766.7322 597.39166 766.8679 597.3934 767.00365 L 597.5856 781.7999 C 597.58905 782.0666 597.58584 782.3333 597.576 782.5999 L 597.00174 798.104 C 596.99444 798.3013 596.9908 798.49875 596.9908 798.6962 L 596.9908 812.2924 C 596.9908 812.4975 596.98684 812.7025 596.97896 812.9074 L 596.3938 828.1224 C 596.3918 828.1741 596.3895 828.2259 596.38704 828.2776 L 595.5917 844.7806 C 595.5911 844.7935 595.59045 844.8065 595.5898 844.8195 L 594.7953 860.5106 C 594.7923 860.5702 594.78894 860.6298 594.78526 860.6893 L 593.59634 879.9101 C 593.59264 879.97 593.5886 880.03 593.5842 880.0899 L 591.8011 904.4594 C 591.7942 904.5531 591.7865 904.6468 591.778 904.7404 L 589.9921 924.3852 C 589.9912 924.3951 589.9903 924.4049 589.9894 924.4148 L 588.21864 943.4997 C 588.2001 943.6999 588.1777 943.8997 588.1516 944.099 L 586.1909 959.0717 C 586.0581 960.086 585.78896 961.0776 585.3908 962.0197 L 585.3908 962.0197 C 584.9932 962.9605 584.74454 963.9574 584.6537 964.9747 L 583.8908 973.5197 C 583.383 979.2068 587.3415 984.3251 592.97346 985.2638 Z" stroke="black" stroke-linecap="round" stroke-linejoin="round" stroke-width="1"/>
      <path d="M 504 699.44615 L 510.2 703.84615 L 518.4 707.84615 L 527 711.44615 L 536 715.24615 L 547 719.24615 L 556.4 722.04615 L 565.4 724.64615 L 574.4 727.24615 L 579.8 728.64615 L 585.4 729.64615 L 587.8 723.84615 L 590.4 718.44615 L 592.6 714.44615 L 595.2 711.04615 L 595.4 702.04615 L 594.8 691.04615 L 593 680.24615 L 591.4 669.84615 L 588.8 658.84614 L 586.4 649.24614 L 583.6 641.24614 L 580.4 631.84614 L 577.6 624.44614 L 574 616.84614 L 570 609.24614 L 566 601.84614 L 563.4 598.24614 L 559.8 592.44614 L 554.4 596.84614 L 549.6 601.64614 L 545 607.84614 L 540.6 614.04614 L 535.8 622.64614 L 531 632.04614 L 526.2 641.24614 L 522.6 649.84614 L 518.6 658.84614 L 515.4 667.04615 L 511.6 676.44615 L 508.8 684.44615 L 505.8 692.84615 Z" fill="white"/>
      <path d="M 504 699.44615 L 510.2 703.84615 L 518.4 707.84615 L 527 711.44615 L 536 715.24615 L 547 719.24615 L 556.4 722.04615 L 565.4 724.64615 L 574.4 727.24615 L 579.8 728.64615 L 585.4 729.64615 L 587.8 723.84615 L 590.4 718.44615 L 592.6 714.44615 L 595.2 711.04615 L 595.4 702.04615 L 594.8 691.04615 L 593 680.24615 L 591.4 669.84615 L 588.8 658.84614 L 586.4 649.24614 L 583.6 641.24614 L 580.4 631.84614 L 577.6 624.44614 L 574 616.84614 L 570 609.24614 L 566 601.84614 L 563.4 598.24614 L 559.8 592.44614 L 554.4 596.84614 L 549.6 601.64614 L 545 607.84614 L 540.6 614.04614 L 535.8 622.64614 L 531 632.04614 L 526.2 641.24614 L 522.6 649.84614 L 518.6 658.84614 L 515.4 667.04615 L 511.6 676.44615 L 508.8 684.44615 L 505.8 692.84615 Z" stroke="black" stroke-linecap="round" stroke-linejoin="round" stroke-width="1"/>
      <path d="M 935.4053 698.50275 L 929.2053 702.90275 L 921.0053 706.90275 L 912.4053 710.50275 L 903.4053 714.30275 L 892.4053 718.30275 L 883.0053 721.10275 L 874.0053 723.70275 L 865.0053 726.30275 L 859.6053 727.70275 L 854.0053 728.70275 L 851.6053 722.90275 L 849.0053 717.50275 L 846.8053 713.50275 L 844.2053 710.10275 L 844.0053 701.10275 L 844.6053 690.10275 L 846.4053 679.30275 L 848.0053 668.90275 L 850.6053 657.90275 L 853.0053 648.30275 L 855.8053 640.30275 L 859.0053 630.90275 L 861.8053 623.50275 L 865.4053 615.90275 L 869.4053 608.30275 L 873.4053 600.90275 L 876.0053 597.30275 L 879.6053 591.50275 L 885.0053 595.90275 L 889.8053 600.70275 L 894.4053 606.90275 L 898.8053 613.10275 L 903.6053 621.70275 L 908.4053 631.10275 L 913.2053 640.30275 L 916.8053 648.90275 L 920.8053 657.90275 L 924.0053 666.10275 L 927.8053 675.50275 L 930.6053 683.50275 L 933.6053 691.90275 Z" fill="white"/>
      <path d="M 935.4053 698.50275 L 929.2053 702.90275 L 921.0053 706.90275 L 912.4053 710.50275 L 903.4053 714.30275 L 892.4053 718.30275 L 883.0053 721.10275 L 874.0053 723.70275 L 865.0053 726.30275 L 859.6053 727.70275 L 854.0053 728.70275 L 851.6053 722.90275 L 849.0053 717.50275 L 846.8053 713.50275 L 844.2053 710.10275 L 844.0053 701.10275 L 844.6053 690.10275 L 846.4053 679.30275 L 848.0053 668.90275 L 850.6053 657.90275 L 853.0053 648.30275 L 855.8053 640.30275 L 859.0053 630.90275 L 861.8053 623.50275 L 865.4053 615.90275 L 869.4053 608.30275 L 873.4053 600.90275 L 876.0053 597.30275 L 879.6053 591.50275 L 885.0053 595.90275 L 889.8053 600.70275 L 894.4053 606.90275 L 898.8053 613.10275 L 903.6053 621.70275 L 908.4053 631.10275 L 913.2053 640.30275 L 916.8053 648.90275 L 920.8053 657.90275 L 924.0053 666.10275 L 927.8053 675.50275 L 930.6053 683.50275 L 933.6053 691.90275 Z" stroke="black" stroke-linecap="round" stroke-linejoin="round" stroke-width="1"/>
      <path d="M 504 699.44615 L 510.2 703.84615 L 518.4 707.84615 L 527 711.44615 L 536 715.24615 L 547 719.24615 L 556.4 722.04615 L 565.4 724.64615 L 574.4 727.24615 L 579.8 728.64615 L 585.4 729.64615 L 588.4 723.24615 L 584.6 722.44615 L 579.8 721.24615 L 574.2 720.04615 L 568.2 718.24615 L 563.6 716.84615 L 559.4 715.64615 L 554.8 713.64615 L 550.2 712.04615 L 545.4 710.04615 L 541.4 708.64615 L 536.2 706.44615 L 531.6 704.84615 L 526.8 702.64615 L 522 700.84615 L 518 698.84615 L 513.6 696.64615 L 509.2 694.44615 L 505.8 692.84615 Z" fill="white"/>
      <path d="M 504 699.44615 L 510.2 703.84615 L 518.4 707.84615 L 527 711.44615 L 536 715.24615 L 547 719.24615 L 556.4 722.04615 L 565.4 724.64615 L 574.4 727.24615 L 579.8 728.64615 L 585.4 729.64615 L 588.4 723.24615 L 584.6 722.44615 L 579.8 721.24615 L 574.2 720.04615 L 568.2 718.24615 L 563.6 716.84615 L 559.4 715.64615 L 554.8 713.64615 L 550.2 712.04615 L 545.4 710.04615 L 541.4 708.64615 L 536.2 706.44615 L 531.6 704.84615 L 526.8 702.64615 L 522 700.84615 L 518 698.84615 L 513.6 696.64615 L 509.2 694.44615 L 505.8 692.84615 Z" stroke="black" stroke-linecap="round" stroke-linejoin="round" stroke-width="1"/>
      <path d="M 935.4053 698.50275 L 929.2053 702.90275 L 921.0053 706.90275 L 912.4053 710.50275 L 903.4053 714.30275 L 892.4053 718.30275 L 883.0053 721.10275 L 874.0053 723.70275 L 865.0053 726.30275 L 859.6053 727.70275 L 854.0053 728.70275 L 851.0053 722.30275 L 854.8053 721.50275 L 859.6053 720.30275 L 865.2053 719.10275 L 871.2053 717.30275 L 875.8053 715.90275 L 880.0053 714.70275 L 884.6053 712.70275 L 889.2053 711.10275 L 894.0053 709.10275 L 898.0053 707.70275 L 903.2053 705.50275 L 907.8053 703.90275 L 912.6053 701.70275 L 917.4053 699.90275 L 921.4053 697.90275 L 925.8053 695.70275 L 930.2053 693.50275 L 933.6053 691.90275 Z" fill="white"/>
      <path d="M 935.4053 698.50275 L 929.2053 702.90275 L 921.0053 706.90275 L 912.4053 710.50275 L 903.4053 714.30275 L 892.4053 718.30275 L 883.0053 721.10275 L 874.0053 723.70275 L 865.0053 726.30275 L 859.6053 727.70275 L 854.0053 728.70275 L 851.0053 722.30275 L 854.8053 721.50275 L 859.6053 720.30275 L 865.2053 719.10275 L 871.2053 717.30275 L 875.8053 715.90275 L 880.0053 714.70275 L 884.6053 712.70275 L 889.2053 711.10275 L 894.0053 709.10275 L 898.0053 707.70275 L 903.2053 705.50275 L 907.8053 703.90275 L 912.6053 701.70275 L 917.4053 699.90275 L 921.4053 697.90275 L 925.8053 695.70275 L 930.2053 693.50275 L 933.6053 691.90275 Z" stroke="black" stroke-linecap="round" stroke-linejoin="round" stroke-width="1"/>
      <path d="M 654.5721 549.9638 L 649.84295 554.01736 C 648.6926 555.0034 647.44764 555.8733 646.1262 556.6145 L 643.5996 558.03165 C 642.1644 558.8366 641.5836 560.60575 642.2624 562.10473 L 643.28 564.352 C 643.4016 564.62046 643.5283 564.8866 643.6601 565.1502 L 645.4624 568.75474 L 647.9494 573.7287 C 648.2912 574.4123 648.6668 575.0784 649.07495 575.7246 L 651.40134 579.4081 C 651.8417 580.10535 652.3193 580.7784 652.83195 581.4244 L 656.2426 585.72185 C 656.7887 586.4099 657.3737 587.06606 657.9948 587.6872 L 662.6609 592.3532 C 663.06175 592.7541 663.4773 593.14 663.9067 593.5102 L 668.4702 597.44426 C 668.8649 597.7845 669.271 598.1112 669.68785 598.4238 L 673.6628 601.405 C 674.3287 601.9045 675.0212 602.3674 675.7373 602.79174 L 679.8704 605.24096 C 679.9984 605.3168 680.1271 605.3914 680.2566 605.4648 L 684.9541 608.1267 C 685.6924 608.5451 686.4533 608.92226 687.23325 609.2565 L 690.7831 610.7779 C 691.369 611.029 691.9652 611.2557 692.57 611.45726 L 697.5881 613.13 C 698.8353 613.5457 700.1159 613.85376 701.4158 614.0507 L 705.51464 614.67174 C 705.87976 614.7271 706.24615 614.7736 706.6135 614.81126 L 713.4946 615.517 C 713.7398 615.54216 713.98534 615.5634 714.2312 615.5806 L 718.75835 615.8983 C 719.2942 615.9359 719.8312 615.9547 720.3684 615.9547 L 723.6305 615.9547 C 724.5842 615.9547 725.5369 615.8954 726.4833 615.7771 L 730.472 615.27854 C 731.13195 615.19604 731.788 615.08496 732.43835 614.9456 L 738.5204 613.6423 C 739.4143 613.4508 740.2959 613.2061 741.1607 612.9096 L 745.6695 611.3637 C 746.4642 611.0913 747.2433 610.7755 748.0034 610.4178 L 752.8368 608.14326 C 753.387 607.88435 753.9267 607.6037 754.4546 607.302 L 758.2225 605.14896 C 758.9153 604.7531 759.587 604.3214 760.2349 603.8557 L 764.9111 600.49475 C 765.41175 600.1349 765.8978 599.755 766.3679 599.3561 L 771.6888 594.84144 C 772.0711 594.51706 772.4427 594.18026 772.803 593.8316 L 777.5022 589.28396 C 778.1418 588.665 778.7449 588.00944 779.3085 587.3206 L 783.1018 582.68434 C 783.6085 582.065 784.0826 581.4197 784.522 580.75096 L 788.1392 575.24656 C 788.3546 574.9187 788.5616 574.58544 788.76 574.247 L 791.2831 569.9429 C 791.6691 569.28454 792.022 568.60735 792.3406 567.9139 L 794.4593 563.3026 C 794.9922 562.14285 795.3633 560.91544 795.5624 559.65474 L 795.5624 559.65474 C 795.7407 558.5255 795.1614 557.412 794.1343 556.9099 L 788.8409 554.322 C 787.5264 553.6794 786.2918 552.88486 785.1624 551.95474 L 784.7564 551.6204 C 783.91205 550.92504 783.2886 549.99874 782.9624 548.95474 L 782.9624 548.95474 C 782.9157 548.8054 782.7569 548.7222 782.6075 548.76886 C 782.4925 548.8048 782.4128 548.9097 782.4089 549.0302 L 782.2997 552.4531 C 782.2089 555.2962 781.5916 558.09776 780.479 560.7157 L 779.6021 562.77904 C 779.0435 564.0933 778.3637 565.3527 777.5716 566.5409 L 773.8858 572.0696 C 773.1383 573.19085 772.2937 574.24425 771.36175 575.2176 L 765.0667 581.7925 C 764.1986 582.6991 763.2578 583.5332 762.2536 584.2863 L 753.8787 590.5675 C 753.0023 591.2248 752.08 591.8187 751.119 592.34454 L 743.9338 596.27606 C 742.6226 596.9935 741.2447 597.5814 739.8195 598.0314 L 733.1466 600.1387 C 731.4297 600.68084 729.6551 601.01954 727.8593 601.1478 L 720.9728 601.6397 C 719.9005 601.7163 718.8242 601.7176 717.7517 601.64365 L 709.3154 601.06184 C 708.28125 600.9905 707.2531 600.84936 706.23795 600.6393 L 699.1027 599.1631 C 697.1508 598.7592 695.2596 598.10335 693.47676 597.2119 L 688.81735 594.8822 C 687.5832 594.26515 686.4071 593.5383 685.3033 592.7104 L 679.6213 588.4489 C 679.1822 588.1196 678.755 587.7746 678.3405 587.4147 L 672.5853 582.41676 C 671.77104 581.7096 671.0075 580.9461 670.30036 580.1318 L 665.8951 575.0591 C 665.141 574.19075 664.4531 573.26705 663.8372 572.2958 L 660.1035 566.408 C 659.7429 565.83944 659.4075 565.2553 659.0982 564.6573 L 657.4778 561.52456 C 656.8687 560.3469 656.3625 559.11874 655.965 557.85385 L 654.6847 553.78036 C 654.46995 553.097 654.2872 552.40395 654.1371 551.7035 L 653.9117 550.6516 C 653.8266 550.25456 654.053 549.8569 654.4378 549.72737 L 654.4378 549.72737 C 654.5103 549.70296 654.58884 549.74195 654.61325 549.81444 C 654.6313 549.86795 654.615 549.92704 654.5721 549.9638 Z" fill="red"/>
      <path d="M 654.5721 549.9638 L 649.84295 554.01736 C 648.6926 555.0034 647.44764 555.8733 646.1262 556.6145 L 643.5996 558.03165 C 642.1644 558.8366 641.5836 560.60575 642.2624 562.10473 L 643.28 564.352 C 643.4016 564.62046 643.5283 564.8866 643.6601 565.1502 L 645.4624 568.75474 L 647.9494 573.7287 C 648.2912 574.4123 648.6668 575.0784 649.07495 575.7246 L 651.40134 579.4081 C 651.8417 580.10535 652.3193 580.7784 652.83195 581.4244 L 656.2426 585.72185 C 656.7887 586.4099 657.3737 587.06606 657.9948 587.6872 L 662.6609 592.3532 C 663.06175 592.7541 663.4773 593.14 663.9067 593.5102 L 668.4702 597.44426 C 668.8649 597.7845 669.271 598.1112 669.68785 598.4238 L 673.6628 601.405 C 674.3287 601.9045 675.0212 602.3674 675.7373 602.79174 L 679.8704 605.24096 C 679.9984 605.3168 680.1271 605.3914 680.2566 605.4648 L 684.9541 608.1267 C 685.6924 608.5451 686.4533 608.92226 687.23325 609.2565 L 690.7831 610.7779 C 691.369 611.029 691.9652 611.2557 692.57 611.45726 L 697.5881 613.13 C 698.8353 613.5457 700.1159 613.85376 701.4158 614.0507 L 705.51464 614.67174 C 705.87976 614.7271 706.24615 614.7736 706.6135 614.81126 L 713.4946 615.517 C 713.7398 615.54216 713.98534 615.5634 714.2312 615.5806 L 718.75835 615.8983 C 719.2942 615.9359 719.8312 615.9547 720.3684 615.9547 L 723.6305 615.9547 C 724.5842 615.9547 725.5369 615.8954 726.4833 615.7771 L 730.472 615.27854 C 731.13195 615.19604 731.788 615.08496 732.43835 614.9456 L 738.5204 613.6423 C 739.4143 613.4508 740.2959 613.2061 741.1607 612.9096 L 745.6695 611.3637 C 746.4642 611.0913 747.2433 610.7755 748.0034 610.4178 L 752.8368 608.14326 C 753.387 607.88435 753.9267 607.6037 754.4546 607.302 L 758.2225 605.14896 C 758.9153 604.7531 759.587 604.3214 760.2349 603.8557 L 764.9111 600.49475 C 765.41175 600.1349 765.8978 599.755 766.3679 599.3561 L 771.6888 594.84144 C 772.0711 594.51706 772.4427 594.18026 772.803 593.8316 L 777.5022 589.28396 C 778.1418 588.665 778.7449 588.00944 779.3085 587.3206 L 783.1018 582.68434 C 783.6085 582.065 784.0826 581.4197 784.522 580.75096 L 788.1392 575.24656 C 788.3546 574.9187 788.5616 574.58544 788.76 574.247 L 791.2831 569.9429 C 791.6691 569.28454 792.022 568.60735 792.3406 567.9139 L 794.4593 563.3026 C 794.9922 562.14285 795.3633 560.91544 795.5624 559.65474 L 795.5624 559.65474 C 795.7407 558.5255 795.1614 557.412 794.1343 556.9099 L 788.8409 554.322 C 787.5264 553.6794 786.2918 552.88486 785.1624 551.95474 L 784.7564 551.6204 C 783.91205 550.92504 783.2886 549.99874 782.9624 548.95474 L 782.9624 548.95474 C 782.9157 548.8054 782.7569 548.7222 782.6075 548.76886 C 782.4925 548.8048 782.4128 548.9097 782.4089 549.0302 L 782.2997 552.4531 C 782.2089 555.2962 781.5916 558.09776 780.479 560.7157 L 779.6021 562.77904 C 779.0435 564.0933 778.3637 565.3527 777.5716 566.5409 L 773.8858 572.0696 C 773.1383 573.19085 772.2937 574.24425 771.36175 575.2176 L 765.0667 581.7925 C 764.1986 582.6991 763.2578 583.5332 762.2536 584.2863 L 753.8787 590.5675 C 753.0023 591.2248 752.08 591.8187 751.119 592.34454 L 743.9338 596.27606 C 742.6226 596.9935 741.2447 597.5814 739.8195 598.0314 L 733.1466 600.1387 C 731.4297 600.68084 729.6551 601.01954 727.8593 601.1478 L 720.9728 601.6397 C 719.9005 601.7163 718.8242 601.7176 717.7517 601.64365 L 709.3154 601.06184 C 708.28125 600.9905 707.2531 600.84936 706.23795 600.6393 L 699.1027 599.1631 C 697.1508 598.7592 695.2596 598.10335 693.47676 597.2119 L 688.81735 594.8822 C 687.5832 594.26515 686.4071 593.5383 685.3033 592.7104 L 679.6213 588.4489 C 679.1822 588.1196 678.755 587.7746 678.3405 587.4147 L 672.5853 582.41676 C 671.77104 581.7096 671.0075 580.9461 670.30036 580.1318 L 665.8951 575.0591 C 665.141 574.19075 664.4531 573.26705 663.8372 572.2958 L 660.1035 566.408 C 659.7429 565.83944 659.4075 565.2553 659.0982 564.6573 L 657.4778 561.52456 C 656.8687 560.3469 656.3625 559.11874 655.965 557.85385 L 654.6847 553.78036 C 654.46995 553.097 654.2872 552.40395 654.1371 551.7035 L 653.9117 550.6516 C 653.8266 550.25456 654.053 549.8569 654.4378 549.72737 L 654.4378 549.72737 C 654.5103 549.70296 654.58884 549.74195 654.61325 549.81444 C 654.6313 549.86795 654.615 549.92704 654.5721 549.9638 Z" stroke="#7f8080" stroke-linecap="round" stroke-linejoin="round" stroke-width="1"/>
      <path d="M 654.05925 549.7559 L 659.45925 549.1559 L 666.25925 552.5559 L 671.25925 554.3559 L 679.65925 556.1559 L 688.05925 557.1559 L 696.05925 558.1559 L 703.65925 558.3559 L 712.25925 558.7559 L 723.85925 558.5559 L 732.25925 558.1559 L 741.65925 557.5559 L 750.05925 556.7559 L 759.25925 555.3559 L 767.45925 553.1559 L 773.25925 551.3559 L 778.85925 548.7559 L 781.65925 549.9559 L 782.05925 555.5559 L 779.25925 563.5559 L 773.85925 566.3559 L 763.25925 569.5559 L 751.85925 571.9559 L 740.65925 572.7559 L 728.25925 573.7559 L 717.85925 573.7559 L 708.45925 573.7559 L 696.85925 573.1559 L 685.65925 572.3559 L 675.05925 570.1559 L 666.45925 568.1559 L 660.25925 565.3559 L 658.25925 563.7559 L 655.05925 556.1559 Z" fill="red"/>
      <path d="M 654.05925 549.7559 L 659.45925 549.1559 L 666.25925 552.5559 L 671.25925 554.3559 L 679.65925 556.1559 L 688.05925 557.1559 L 696.05925 558.1559 L 703.65925 558.3559 L 712.25925 558.7559 L 723.85925 558.5559 L 732.25925 558.1559 L 741.65925 557.5559 L 750.05925 556.7559 L 759.25925 555.3559 L 767.45925 553.1559 L 773.25925 551.3559 L 778.85925 548.7559 L 781.65925 549.9559 L 782.05925 555.5559 L 779.25925 563.5559 L 773.85925 566.3559 L 763.25925 569.5559 L 751.85925 571.9559 L 740.65925 572.7559 L 728.25925 573.7559 L 717.85925 573.7559 L 708.45925 573.7559 L 696.85925 573.1559 L 685.65925 572.3559 L 675.05925 570.1559 L 666.45925 568.1559 L 660.25925 565.3559 L 658.25925 563.7559 L 655.05925 556.1559 Z" stroke="#7f8080" stroke-linecap="round" stroke-linejoin="round" stroke-width="1"/>
      <path d="M 583.8132 975.2 L 583.8132 975.2 C 583.7475 975.7255 583.81036 976.259 583.9963 976.7549 L 584.6473 978.4909 C 584.82406 978.9623 585.05115 979.4132 585.3246 979.8358 L 586.2924 981.3315 C 586.8334 982.1676 587.5465 982.8785 588.3841 983.417 L 589.4622 984.11 C 589.7624 984.3031 590.077 984.4728 590.40316 984.6179 L 591.72 985.2035 C 592.31654 985.4688 592.94725 985.6493 593.5938 985.7398 L 602.6042 987.0013 C 602.6142 987.0027 602.6242 987.004 602.6342 987.0054 L 614.3502 988.594 C 614.3962 988.6002 614.44226 988.606 614.4884 988.6113 L 624.7713 989.7978 C 624.80324 989.8015 624.8352 989.805 624.8672 989.8082 L 638.5772 991.1991 C 638.6052 991.2019 638.6332 991.2046 638.6612 991.2071 L 649.7665 992.1987 C 649.80164 992.2018 649.8368 992.2047 649.87195 992.2073 L 660.5585 992.9989 C 660.599 993.0019 660.6395 993.0045 660.68 993.0068 L 671.188 993.6016 C 671.2088 993.6028 671.2296 993.604 671.2504 993.6054 L 683.2932 994.3951 C 683.3772 994.4006 683.4613 994.4046 683.5454 994.4071 L 696.99256 994.8026 C 697.0103 994.8031 697.0281 994.8037 697.04585 994.8043 L 707.6897 995.1986 C 707.776 995.2018 707.8624 995.2034 707.9488 995.2034 L 718.5578 995.2034 C 718.5987 995.2034 718.6397 995.2037 718.6806 995.2044 L 729.767 995.3989 C 729.9351 995.4019 730.1032 995.3988 730.2711 995.3896 L 740.8923 994.8103 C 740.9769 994.8057 741.0616 994.8026 741.1463 994.801 L 751.91085 994.6053 C 751.9831 994.604 752.0553 994.6016 752.12745 994.598 L 764.1461 994.007 C 764.1948 994.0046 764.2436 994.0016 764.29225 993.9982 L 775.5323 993.2095 C 775.5902 993.2054 775.6481 993.2006 775.7059 993.1951 L 788.1165 992.0131 C 788.185 992.0066 788.2535 992.0011 788.3221 991.9966 L 800.2542 991.2142 C 800.3642 991.207 800.474 991.1972 800.5836 991.1847 L 810.9959 990.006 C 811.0114 990.0042 811.027 990.0024 811.0425 990.0006 L 820.9902 988.8068 C 821.0095 988.8045 821.0289 988.8021 821.0482 988.7996 L 834.8839 987.0221 C 834.9812 987.0096 835.0781 986.9951 835.1747 986.9785 L 841.7282 985.855 C 841.9292 985.8206 842.1315 985.795 842.3347 985.7782 L 845.5671 985.5112 C 846.4563 985.4377 847.3233 985.195 848.1214 984.7959 L 849.6076 984.0528 C 850.2082 983.7525 850.7625 983.3674 851.2534 982.9092 L 852.5885 981.6631 C 853.1953 981.0967 853.6507 980.3875 853.9132 979.6 L 854.208 978.7155 C 854.2781 978.5053 854.3382 978.2919 854.388 978.076 L 854.8577 976.0406 C 854.8929 975.8879 854.8595 975.7275 854.7662 975.6017 L 854.7662 975.6017 C 854.6759 975.4798 854.5252 975.4183 854.3754 975.4421 L 845.8955 976.7912 C 845.8447 976.7993 845.7939 976.808 845.7432 976.8172 L 832.7584 979.178 C 832.6656 979.1949 832.5725 979.2099 832.4791 979.223 L 821.2494 980.7991 C 821.2293 980.8019 821.2091 980.8049 821.189 980.8079 L 808.0664 982.7665 C 807.9017 982.791 807.7361 982.8097 807.57 982.8225 L 794.8452 983.8014 C 794.8279 983.8027 794.81055 983.804 794.7932 983.8052 L 780.4531 984.801 C 780.4305 984.8026 780.4079 984.804 780.3853 984.8054 L 767.08205 985.5996 C 767.0402 985.6021 766.9982 985.6042 766.9563 985.606 L 752.76485 986.1973 C 752.6678 986.2013 752.5706 986.2034 752.4734 986.2034 L 739.2192 986.2034 L 726.6775 986.2034 C 726.63865 986.2034 726.5998 986.2037 726.5609 986.2043 L 714.8025 986.4003 C 714.6803 986.4023 714.5581 986.4012 714.436 986.3968 L 703.6024 986.0099 C 703.4803 986.0055 703.3581 986.0044 703.2359 986.0064 L 691.5213 986.2017 C 691.4532 986.2028 691.3852 986.2029 691.3171 986.2021 L 675.61484 986.0058 C 675.48444 986.0042 675.3541 985.9989 675.224 985.99 L 660.9142 985.0099 C 660.8509 985.0055 660.7876 985.0003 660.7244 984.9943 L 646.2334 983.6047 C 646.2239 983.6038 646.2145 983.6029 646.205 983.6019 L 632.393 982.2207 C 632.27715 982.2091 632.1616 982.1947 632.0465 982.1773 L 617.73735 980.0212 C 617.6586 980.0093 617.57964 979.9988 617.5005 979.9896 L 603.9806 978.4221 C 603.873 978.4096 603.76574 978.3946 603.65886 978.3772 L 594.2668 976.8438 C 594.1018 976.8168 593.9378 976.784 593.77516 976.7453 L 584.69756 974.5865 C 584.30925 974.4942 583.9196 974.7341 583.82724 975.1224 C 583.82116 975.148 583.8165 975.1739 583.8132 975.2 Z" fill="white"/>
      <path d="M 583.8132 975.2 L 583.8132 975.2 C 583.7475 975.7255 583.81036 976.259 583.9963 976.7549 L 584.6473 978.4909 C 584.82406 978.9623 585.05115 979.4132 585.3246 979.8358 L 586.2924 981.3315 C 586.8334 982.1676 587.5465 982.8785 588.3841 983.417 L 589.4622 984.11 C 589.7624 984.3031 590.077 984.4728 590.40316 984.6179 L 591.72 985.2035 C 592.31654 985.4688 592.94725 985.6493 593.5938 985.7398 L 602.6042 987.0013 C 602.6142 987.0027 602.6242 987.004 602.6342 987.0054 L 614.3502 988.594 C 614.3962 988.6002 614.44226 988.606 614.4884 988.6113 L 624.7713 989.7978 C 624.80324 989.8015 624.8352 989.805 624.8672 989.8082 L 638.5772 991.1991 C 638.6052 991.2019 638.6332 991.2046 638.6612 991.2071 L 649.7665 992.1987 C 649.80164 992.2018 649.8368 992.2047 649.87195 992.2073 L 660.5585 992.9989 C 660.599 993.0019 660.6395 993.0045 660.68 993.0068 L 671.188 993.6016 C 671.2088 993.6028 671.2296 993.604 671.2504 993.6054 L 683.2932 994.3951 C 683.3772 994.4006 683.4613 994.4046 683.5454 994.4071 L 696.99256 994.8026 C 697.0103 994.8031 697.0281 994.8037 697.04585 994.8043 L 707.6897 995.1986 C 707.776 995.2018 707.8624 995.2034 707.9488 995.2034 L 718.5578 995.2034 C 718.5987 995.2034 718.6397 995.2037 718.6806 995.2044 L 729.767 995.3989 C 729.9351 995.4019 730.1032 995.3988 730.2711 995.3896 L 740.8923 994.8103 C 740.9769 994.8057 741.0616 994.8026 741.1463 994.801 L 751.91085 994.6053 C 751.9831 994.604 752.0553 994.6016 752.12745 994.598 L 764.1461 994.007 C 764.1948 994.0046 764.2436 994.0016 764.29225 993.9982 L 775.5323 993.2095 C 775.5902 993.2054 775.6481 993.2006 775.7059 993.1951 L 788.1165 992.0131 C 788.185 992.0066 788.2535 992.0011 788.3221 991.9966 L 800.2542 991.2142 C 800.3642 991.207 800.474 991.1972 800.5836 991.1847 L 810.9959 990.006 C 811.0114 990.0042 811.027 990.0024 811.0425 990.0006 L 820.9902 988.8068 C 821.0095 988.8045 821.0289 988.8021 821.0482 988.7996 L 834.8839 987.0221 C 834.9812 987.0096 835.0781 986.9951 835.1747 986.9785 L 841.7282 985.855 C 841.9292 985.8206 842.1315 985.795 842.3347 985.7782 L 845.5671 985.5112 C 846.4563 985.4377 847.3233 985.195 848.1214 984.7959 L 849.6076 984.0528 C 850.2082 983.7525 850.7625 983.3674 851.2534 982.9092 L 852.5885 981.6631 C 853.1953 981.0967 853.6507 980.3875 853.9132 979.6 L 854.208 978.7155 C 854.2781 978.5053 854.3382 978.2919 854.388 978.076 L 854.8577 976.0406 C 854.8929 975.8879 854.8595 975.7275 854.7662 975.6017 L 854.7662 975.6017 C 854.6759 975.4798 854.5252 975.4183 854.3754 975.4421 L 845.8955 976.7912 C 845.8447 976.7993 845.7939 976.808 845.7432 976.8172 L 832.7584 979.178 C 832.6656 979.1949 832.5725 979.2099 832.4791 979.223 L 821.2494 980.7991 C 821.2293 980.8019 821.2091 980.8049 821.189 980.8079 L 808.0664 982.7665 C 807.9017 982.791 807.7361 982.8097 807.57 982.8225 L 794.8452 983.8014 C 794.8279 983.8027 794.81055 983.804 794.7932 983.8052 L 780.4531 984.801 C 780.4305 984.8026 780.4079 984.804 780.3853 984.8054 L 767.08205 985.5996 C 767.0402 985.6021 766.9982 985.6042 766.9563 985.606 L 752.76485 986.1973 C 752.6678 986.2013 752.5706 986.2034 752.4734 986.2034 L 739.2192 986.2034 L 726.6775 986.2034 C 726.63865 986.2034 726.5998 986.2037 726.5609 986.2043 L 714.8025 986.4003 C 714.6803 986.4023 714.5581 986.4012 714.436 986.3968 L 703.6024 986.0099 C 703.4803 986.0055 703.3581 986.0044 703.2359 986.0064 L 691.5213 986.2017 C 691.4532 986.2028 691.3852 986.2029 691.3171 986.2021 L 675.61484 986.0058 C 675.48444 986.0042 675.3541 985.9989 675.224 985.99 L 660.9142 985.0099 C 660.8509 985.0055 660.7876 985.0003 660.7244 984.9943 L 646.2334 983.6047 C 646.2239 983.6038 646.2145 983.6029 646.205 983.6019 L 632.393 982.2207 C 632.27715 982.2091 632.1616 982.1947 632.0465 982.1773 L 617.73735 980.0212 C 617.6586 980.0093 617.57964 979.9988 617.5005 979.9896 L 603.9806 978.4221 C 603.873 978.4096 603.76574 978.3946 603.65886 978.3772 L 594.2668 976.8438 C 594.1018 976.8168 593.9378 976.784 593.77516 976.7453 L 584.69756 974.5865 C 584.30925 974.4942 583.9196 974.7341 583.82724 975.1224 C 583.82116 975.148 583.8165 975.1739 583.8132 975.2 Z" stroke="black" stroke-linecap="round" stroke-linejoin="round" stroke-width="1"/>
      <path d="M 846 977 L 855 976 L 853 959 L 849 928 L 846 898 L 845 861 L 842 835 L 842 805 L 841 779 L 841 753 L 843 729 L 843 710 L 845 692 L 848 670 L 853 650 L 858 634 L 866 615 L 873 601 L 878 591 L 867 584 L 854 580 L 848 595 L 843 610 L 837 633 L 834 650 L 830 669 L 827 694 L 825 711 L 824 730 L 824 754 L 824 781 L 825 806 L 826 837 L 828 863 L 831 899 L 833 930 L 837 961 L 837 978 Z" fill="red"/>
      <path d="M 846 977 L 855 976 L 853 959 L 849 928 L 846 898 L 845 861 L 842 835 L 842 805 L 841 779 L 841 753 L 843 729 L 843 710 L 845 692 L 848 670 L 853 650 L 858 634 L 866 615 L 873 601 L 878 591 L 867 584 L 854 580 L 848 595 L 843 610 L 837 633 L 834 650 L 830 669 L 827 694 L 825 711 L 824 730 L 824 754 L 824 781 L 825 806 L 826 837 L 828 863 L 831 899 L 833 930 L 837 961 L 837 978 Z" stroke="#7f8080" stroke-linecap="round" stroke-linejoin="round" stroke-width="1"/>
      <path d="M 592.1863 977 L 583.1863 976 L 585.1863 959 L 589.1863 928 L 592.1863 898 L 593.1863 861 L 596.1863 835 L 596.1863 805 L 597.1863 779 L 597.1863 753 L 595.1863 729 L 595.1863 710 L 593.1863 692 L 590.1863 670 L 585.1863 650 L 580.1863 634 L 572.1863 615 L 565.1863 601 L 560.1863 591 L 571.1863 584 L 584.1863 580 L 590.1863 595 L 595.1863 610 L 601.1863 633 L 604.1863 650 L 608.1863 669 L 611.1863 694 L 613.1863 711 L 614.1863 730 L 614.1863 754 L 614.1863 781 L 613.1863 806 L 612.1863 837 L 610.1863 863 L 607.1863 899 L 605.1863 930 L 601.1863 961 L 601.1863 978 Z" fill="red"/>
      <path d="M 592.1863 977 L 583.1863 976 L 585.1863 959 L 589.1863 928 L 592.1863 898 L 593.1863 861 L 596.1863 835 L 596.1863 805 L 597.1863 779 L 597.1863 753 L 595.1863 729 L 595.1863 710 L 593.1863 692 L 590.1863 670 L 585.1863 650 L 580.1863 634 L 572.1863 615 L 565.1863 601 L 560.1863 591 L 571.1863 584 L 584.1863 580 L 590.1863 595 L 595.1863 610 L 601.1863 633 L 604.1863 650 L 608.1863 669 L 611.1863 694 L 613.1863 711 L 614.1863 730 L 614.1863 754 L 614.1863 781 L 613.1863 806 L 612.1863 837 L 610.1863 863 L 607.1863 899 L 605.1863 930 L 601.1863 961 L 601.1863 978 Z" stroke="#7f8080" stroke-linecap="round" stroke-linejoin="round" stroke-width="1"/>
    </g>
  </g>
</svg>
