<?xml version="1.0" encoding="UTF-8" standalone="no"?>
<!DOCTYPE svg PUBLIC "-//W3C//DTD SVG 1.1//EN" "http://www.w3.org/Graphics/SVG/1.1/DTD/svg11.dtd">
<svg xmlns="http://www.w3.org/2000/svg" xmlns:xl="http://www.w3.org/1999/xlink" version="1.1" viewBox="-689.5 169.5 432.4053 448.4" width="432.4053pt" height="448.4pt" xmlns:dc="http://purl.org/dc/elements/1.1/">
  <metadata> Produced by OmniGraffle 7.6.1 
    <dc:date>2020-02-17 21:18:49 +0000</dc:date>
  </metadata>
  <defs>
    <radialGradient cx="0" cy="0" r="1" id="Gradient" gradientUnits="userSpaceOnUse">
      <stop offset="0" stop-color="white"/>
      <stop offset="1" stop-color="#a5a5a5"/>
    </radialGradient>
    <radialGradient id="Obj_Gradient" xl:href="#Gradient" gradientTransform="translate(-474.24075 197.4) scale(70.26272)"/>
  </defs>
  <g stroke="none" stroke-opacity="1" stroke-dasharray="none" fill="none" fill-opacity="1">
    <title>Arsenal</title>
    <rect fill="white" width="432.4053" height="448.4"/>
    <g>
      <title>Capa 1</title>
      <path d="M -535.99435 170.59045 L -527.8289 173.70816 C -526.9709 174.03576 -526.09406 174.31167 -525.2031 174.53442 L -511.4859 177.96371 C -510.32424 178.25413 -509.1417 178.45338 -507.949 178.55966 L -490.42285 180.1214 C -489.835 180.17378 -489.24536 180.20352 -488.6552 180.21054 L -473.1763 180.39481 C -472.88596 180.39827 -472.5956 180.39623 -472.3053 180.3887 L -457.882 180.01406 C -457.5212 180.00469 -457.1607 179.98683 -456.80076 179.96049 L -442.42947 178.90893 C -441.43803 178.83639 -440.45234 178.69964 -439.4786 178.49956 L -427.90564 176.12155 C -426.86363 175.90744 -425.83774 175.6213 -424.83535 175.26519 L -413.08336 171.09014 C -411.993 170.70277 -410.7898 171.23354 -410.34075 172.3 L -410.34075 172.3 C -409.8186 173.5401 -409.6666 174.90485 -409.90315 176.22945 L -410.08363 177.24014 C -410.3874 178.9413 -410.88194 180.6028 -411.55786 182.19319 L -413.1011 185.8243 C -413.65965 187.13858 -414.3394 188.39798 -415.13154 189.58618 L -418.8173 195.11485 C -419.56483 196.23611 -420.40943 197.28951 -421.3414 198.2629 L -427.63646 204.83774 C -428.50453 205.7444 -429.44537 206.57846 -430.44954 207.3316 L -438.82445 213.61277 C -439.70086 214.27008 -440.6231 214.86394 -441.5842 215.3898 L -448.7694 219.32133 C -450.0805 220.03874 -451.45844 220.62664 -452.8836 221.0767 L -459.55653 223.18393 C -461.2734 223.7261 -463.048 224.0648 -464.8439 224.19308 L -471.7303 224.68497 C -472.8026 224.76156 -473.879 224.76288 -474.95146 224.68892 L -483.3877 224.1071 C -484.4219 224.03578 -485.45006 223.89463 -486.4652 223.6846 L -493.6004 222.20835 C -495.55235 221.8045 -497.4435 221.14861 -499.2264 220.25719 L -503.8858 217.92748 C -505.1199 217.3104 -506.29603 216.58354 -507.3999 215.75566 L -513.08184 211.49419 C -513.521 211.16483 -513.9482 210.81987 -514.3626 210.45995 L -520.1178 205.46203 C -520.9321 204.75489 -521.69564 203.99135 -522.4028 203.17706 L -526.808 198.10438 C -527.5621 197.23602 -528.25 196.31232 -528.86594 195.34105 L -532.59964 189.45329 C -532.9602 188.8847 -533.29563 188.30056 -533.60495 187.70255 L -535.2253 184.56983 C -535.8345 183.39215 -536.34064 182.164 -536.7382 180.89911 L -538.0184 176.82562 C -538.2332 176.14225 -538.4159 175.44921 -538.566 174.74878 L -538.64075 174.4 C -538.8354 173.49157 -538.72815 172.54443 -538.3353 171.70254 L -538.24075 171.5 C -537.8463 170.6547 -536.8658 170.2577 -535.99435 170.59045 Z" fill="url(#Obj_Gradient)"/>
      <path d="M -535.99435 170.59045 L -527.8289 173.70816 C -526.9709 174.03576 -526.09406 174.31167 -525.2031 174.53442 L -511.4859 177.96371 C -510.32424 178.25413 -509.1417 178.45338 -507.949 178.55966 L -490.42285 180.1214 C -489.835 180.17378 -489.24536 180.20352 -488.6552 180.21054 L -473.1763 180.39481 C -472.88596 180.39827 -472.5956 180.39623 -472.3053 180.3887 L -457.882 180.01406 C -457.5212 180.00469 -457.1607 179.98683 -456.80076 179.96049 L -442.42947 178.90893 C -441.43803 178.83639 -440.45234 178.69964 -439.4786 178.49956 L -427.90564 176.12155 C -426.86363 175.90744 -425.83774 175.6213 -424.83535 175.26519 L -413.08336 171.09014 C -411.993 170.70277 -410.7898 171.23354 -410.34075 172.3 L -410.34075 172.3 C -409.8186 173.5401 -409.6666 174.90485 -409.90315 176.22945 L -410.08363 177.24014 C -410.3874 178.9413 -410.88194 180.6028 -411.55786 182.19319 L -413.1011 185.8243 C -413.65965 187.13858 -414.3394 188.39798 -415.13154 189.58618 L -418.8173 195.11485 C -419.56483 196.23611 -420.40943 197.28951 -421.3414 198.2629 L -427.63646 204.83774 C -428.50453 205.7444 -429.44537 206.57846 -430.44954 207.3316 L -438.82445 213.61277 C -439.70086 214.27008 -440.6231 214.86394 -441.5842 215.3898 L -448.7694 219.32133 C -450.0805 220.03874 -451.45844 220.62664 -452.8836 221.0767 L -459.55653 223.18393 C -461.2734 223.7261 -463.048 224.0648 -464.8439 224.19308 L -471.7303 224.68497 C -472.8026 224.76156 -473.879 224.76288 -474.95146 224.68892 L -483.3877 224.1071 C -484.4219 224.03578 -485.45006 223.89463 -486.4652 223.6846 L -493.6004 222.20835 C -495.55235 221.8045 -497.4435 221.14861 -499.2264 220.25719 L -503.8858 217.92748 C -505.1199 217.3104 -506.29603 216.58354 -507.3999 215.75566 L -513.08184 211.49419 C -513.521 211.16483 -513.9482 210.81987 -514.3626 210.45995 L -520.1178 205.46203 C -520.9321 204.75489 -521.69564 203.99135 -522.4028 203.17706 L -526.808 198.10438 C -527.5621 197.23602 -528.25 196.31232 -528.86594 195.34105 L -532.59964 189.45329 C -532.9602 188.8847 -533.29563 188.30056 -533.60495 187.70255 L -535.2253 184.56983 C -535.8345 183.39215 -536.34064 182.164 -536.7382 180.89911 L -538.0184 176.82562 C -538.2332 176.14225 -538.4159 175.44921 -538.566 174.74878 L -538.64075 174.4 C -538.8354 173.49157 -538.72815 172.54443 -538.3353 171.70254 L -538.24075 171.5 C -537.8463 170.6547 -536.8658 170.2577 -535.99435 170.59045 Z" stroke="#7f8080" stroke-linecap="round" stroke-linejoin="round" stroke-width="1"/>
      <path d="M -600.02654 607.2638 L -586.2843 609.55416 C -586.1009 609.5847 -585.917 609.6121 -585.7327 609.63624 L -557.37906 613.35154 C -557.1325 613.38385 -556.8853 613.4104 -556.6375 613.4312 L -526.3946 615.9677 C -526.1377 615.9892 -525.88034 616.00456 -525.6227 616.0137 L -486.6918 617.39 C -486.5034 617.3967 -486.31496 617.4 -486.1265 617.4 L -454.65916 617.4 C -454.49254 617.4 -454.32593 617.3974 -454.1594 617.3922 L -429.1246 616.60986 C -428.91437 616.6033 -428.7043 616.5926 -428.49445 616.5777 L -406.4467 615.0168 C -406.2884 615.0056 -406.13025 614.99205 -405.97234 614.9761 L -380.71185 612.4305 C -380.5101 612.4102 -380.3088 612.386 -380.10796 612.358 L -356.31526 609.04265 C -356.11125 609.0142 -355.9078 608.98186 -355.70504 608.9456 L -346.5092 607.3 C -341.1821 606.3467 -337.53124 601.3931 -338.19766 596.02255 L -340.40525 578.232 C -340.4079 578.21066 -340.4105 578.18934 -340.41305 578.168 L -343.97688 548.4695 C -343.99843 548.28985 -344.01694 548.10985 -344.0324 547.9296 L -346.3946 520.3704 C -346.40435 520.2568 -346.41287 520.1431 -346.42017 520.02936 L -347.8068 498.4377 C -347.8084 498.4126 -347.8101 498.38744 -347.8118 498.3623 L -349.40397 475.276 C -349.40747 475.22533 -349.4107 475.17466 -349.41373 475.124 L -350.5901 455.3218 C -350.60284 455.1073 -350.61126 454.89255 -350.61535 454.6777 L -351.00764 434.08285 C -351.0087 434.0276 -351.01003 433.9724 -351.01165 433.9172 L -351.60678 413.68283 C -351.6084 413.6276 -351.60974 413.5724 -351.6108 413.51715 L -352.00145 393.0076 C -352.00663 392.7359 -352.00488 392.46413 -351.9962 392.19253 L -351.41027 373.8329 C -351.40956 373.81097 -351.4088 373.78903 -351.40803 373.7671 L -350.61995 351.8978 C -350.6128 351.6993 -350.60194 351.50093 -350.5874 351.30283 L -349.02993 330.0822 C -349.0161 329.8941 -349.00564 329.70573 -348.9985 329.51724 L -348.24404 309.61837 C -348.22085 309.00663 -348.16256 308.3967 -348.06948 307.79165 L -345.33047 289.98813 C -345.2497 289.46304 -345.1428 288.9423 -345.0102 288.42783 L -340.38194 270.47017 C -340.26684 270.0236 -340.1325 269.5822 -339.97927 269.14725 L -334.2585 252.9076 C -334.0924 252.43613 -333.9043 251.9727 -333.69483 251.51883 L -328.16327 239.5338 C -328.06058 239.3113 -327.9528 239.0912 -327.84 238.87364 L -322.47777 228.53222 C -322.43207 228.44407 -322.38554 228.35636 -322.3382 228.26908 L -317.12223 218.65212 C -316.38495 217.29276 -315.43532 216.05987 -314.3092 215 L -314.3092 215 C -313.63402 214.36453 -313.60183 213.30203 -314.2373 212.62684 C -314.3618 212.49456 -314.50693 212.38337 -314.66705 212.2976 L -317.8812 210.57573 C -318.09984 210.4586 -318.3212 210.34656 -318.54506 210.2397 L -326.39903 206.49122 C -326.80564 206.29716 -327.22026 206.12036 -327.6418 205.9613 L -337.31662 202.3104 C -337.51167 202.2368 -337.70813 202.16703 -337.9059 202.1011 L -350.60037 197.86962 C -350.7396 197.8232 -350.87945 197.77872 -351.0199 197.73616 L -363.9034 193.83206 C -363.97395 193.81069 -364.04433 193.78883 -364.11456 193.76648 L -376.61856 189.78794 C -377.0122 189.6627 -377.4008 189.52225 -377.78357 189.36693 L -389.7595 184.50713 C -390.59117 184.16964 -391.39296 183.76277 -392.1564 183.29083 L -401.77564 177.34439 C -401.93135 177.24814 -402.0854 177.14922 -402.2377 177.04768 L -407.1278 173.78762 C -408.1092 173.13335 -408.9805 172.32745 -409.7092 171.4 L -409.7092 171.4 C -409.8148 171.2656 -410.0094 171.24225 -410.1438 171.34785 C -410.24653 171.42858 -410.2875 171.56513 -410.2462 171.68908 L -410.1092 172.1 C -409.64997 173.47775 -409.5454 174.94904 -409.8052 176.37789 L -410.20033 178.55115 C -410.47155 180.04281 -410.9534 181.48835 -411.6314 182.8444 L -413.16374 185.90904 C -413.46044 186.50244 -413.79376 187.0768 -414.16177 187.62883 L -417.36547 192.43438 C -417.79407 193.07728 -418.2687 193.6883 -418.78557 194.26261 L -423.3476 199.33156 C -423.3887 199.37719 -423.43 199.42258 -423.4716 199.46773 L -429.46583 205.97576 C -430.09357 206.6573 -430.7793 207.28302 -431.51535 207.84587 L -436.53953 211.68789 C -436.9857 212.02906 -437.4495 212.3465 -437.929 212.6389 L -444.4154 216.59403 C -445.0771 216.99748 -445.76717 217.35232 -446.48025 217.65576 L -453.59566 220.6836 C -454.40333 221.02728 -455.2379 221.30393 -456.09095 221.51072 L -460.17 222.49959 C -460.99484 222.69955 -461.8343 222.83356 -462.68037 222.90035 L -468.3806 223.35037 C -468.7995 223.38344 -469.2196 223.4 -469.6398 223.4 L -476.67213 223.4 C -477.42923 223.4 -478.1854 223.34626 -478.9349 223.2392 L -486.8813 222.10399 C -487.3663 222.0347 -487.8479 221.94317 -488.3245 221.8297 L -494.28574 220.41035 C -495.4312 220.13762 -496.5431 219.73927 -497.6012 219.22253 L -503.8812 216.15556 C -504.3662 215.91867 -504.839 215.6574 -505.2976 215.37272 L -509.5095 212.75846 C -510.10865 212.38656 -510.6826 211.97546 -511.2275 211.52784 L -515.6736 207.87568 C -515.8973 207.69193 -516.116 207.50214 -516.3294 207.30652 L -520.1317 203.82104 C -520.583 203.40736 -521.0102 202.9681 -521.41115 202.50546 L -525.5299 197.75307 C -525.8493 197.38455 -526.15164 197.00162 -526.43605 196.60549 L -530.8657 190.4356 C -531.3606 189.7463 -531.79987 189.0187 -532.17936 188.25972 L -534.7558 183.1068 C -534.7914 183.0356 -534.8265 182.96414 -534.861 182.89242 L -536.1092 180.3 C -536.95993 178.53313 -537.31545 176.5686 -537.1379 174.61564 L -536.9577 172.63339 C -536.9339 172.37152 -537.1269 172.13994 -537.38875 172.11614 C -537.55114 172.10138 -537.7098 172.17075 -537.8092 172.3 L -537.8092 172.3 C -538.47266 173.16248 -539.2528 173.92856 -540.12715 174.57625 L -544.0237 177.46257 C -544.14737 177.55418 -544.27237 177.64401 -544.39864 177.73202 L -549.0209 180.9536 C -550.2076 181.7807 -551.50105 182.44308 -552.8658 182.92258 L -557.4729 184.5413 C -557.9635 184.71367 -558.4454 184.90984 -558.91684 185.12913 L -565.7636 188.31368 C -566.4598 188.63747 -567.17835 188.91074 -567.91375 189.13136 L -578.78414 192.39248 C -578.80086 192.3975 -578.8176 192.40254 -578.8343 192.4076 L -589.80236 195.7372 C -589.94026 195.77907 -590.0776 195.8228 -590.2143 195.86836 L -603.13554 200.17544 C -603.18466 200.19181 -603.23386 200.20795 -603.2831 200.22384 L -614.65054 203.89075 C -615.289 204.09671 -615.9139 204.34263 -616.52154 204.62704 L -624.4535 208.33988 C -624.82384 208.51323 -625.1874 208.70071 -625.5434 208.90192 L -631.4895 212.26276 C -632.7425 212.971 -633.1842 214.56093 -632.4759 215.81396 C -632.3988 215.9504 -632.30955 216.0796 -632.2092 216.2 L -631.3451 217.23693 C -630.5902 218.14287 -629.9377 219.1295 -629.3996 220.17882 L -626.3224 226.17924 C -626.24696 226.3264 -626.1692 226.4724 -626.0892 226.61715 L -622.1345 233.77337 C -622.051 233.92445 -621.9699 234.07687 -621.8914 234.23057 L -617.7831 242.26856 C -617.534 242.75587 -617.3101 243.25563 -617.11224 243.7659 L -613.6295 252.74776 C -613.616 252.7826 -613.60235 252.81737 -613.5886 252.8521 L -609.9923 261.93754 C -609.8703 262.24577 -609.7579 262.55772 -609.65524 262.87294 L -607.0334 270.92572 C -607.0173 270.97524 -607.0014 271.02484 -606.98576 271.07452 L -603.9137 280.8328 C -603.7109 281.47695 -603.5491 282.1333 -603.4293 282.7979 L -601.44395 293.80737 C -601.4208 293.9358 -601.3992 294.06448 -601.3792 294.19342 L -599.6733 305.1868 C -599.6306 305.46222 -599.5951 305.7387 -599.5668 306.016 L -598.67935 314.7127 C -598.6326 315.1707 -598.6057 315.63048 -598.5986 316.0908 L -598.41435 328.0664 C -598.4109 328.2888 -598.4029 328.51105 -598.3902 328.7331 L -597.6198 342.21465 C -597.61275 342.3382 -597.60425 342.4617 -597.5943 342.58506 L -596.26076 359.15943 C -596.2264 359.5863 -596.2092 360.0144 -596.2092 360.44264 L -596.2092 372.89242 C -596.2092 373.09746 -596.2053 373.30247 -596.1974 373.50735 L -595.61705 388.5965 C -595.6118 388.73216 -595.60834 388.8679 -595.6066 389.00365 L -595.4144 403.7999 C -595.41095 404.0666 -595.41416 404.33333 -595.424 404.59986 L -595.99826 420.104 C -596.00556 420.3013 -596.0092 420.49875 -596.0092 420.6962 L -596.0092 434.2924 C -596.0092 434.49746 -596.01316 434.70247 -596.02104 434.90736 L -596.6062 450.12236 C -596.6082 450.1741 -596.6105 450.2259 -596.61296 450.2776 L -597.4083 466.78055 C -597.4089 466.7935 -597.40955 466.8065 -597.4102 466.81945 L -598.2047 482.5106 C -598.2077 482.5702 -598.21106 482.6298 -598.21474 482.68933 L -599.40366 501.91007 C -599.40736 501.97 -599.4114 502.02996 -599.4158 502.0899 L -601.1989 526.4594 C -601.2058 526.55314 -601.2135 526.6468 -601.222 526.7404 L -603.0079 546.3852 C -603.0088 546.3951 -603.0097 546.40494 -603.0106 546.4148 L -604.78136 565.4997 C -604.7999 565.6999 -604.8223 565.8997 -604.8484 566.099 L -606.8091 581.07175 C -606.9419 582.08594 -607.21104 583.07756 -607.6092 584.0197 L -607.6092 584.0197 C -608.0068 584.9605 -608.25546 585.9574 -608.3463 586.97465 L -609.1092 595.5197 C -609.617 601.20676 -605.6585 606.3251 -600.02654 607.2638 Z" fill="#20ceff"/>
      <path d="M -600.02654 607.2638 L -586.2843 609.55416 C -586.1009 609.5847 -585.917 609.6121 -585.7327 609.63624 L -557.37906 613.35154 C -557.1325 613.38385 -556.8853 613.4104 -556.6375 613.4312 L -526.3946 615.9677 C -526.1377 615.9892 -525.88034 616.00456 -525.6227 616.0137 L -486.6918 617.39 C -486.5034 617.3967 -486.31496 617.4 -486.1265 617.4 L -454.65916 617.4 C -454.49254 617.4 -454.32593 617.3974 -454.1594 617.3922 L -429.1246 616.60986 C -428.91437 616.6033 -428.7043 616.5926 -428.49445 616.5777 L -406.4467 615.0168 C -406.2884 615.0056 -406.13025 614.99205 -405.97234 614.9761 L -380.71185 612.4305 C -380.5101 612.4102 -380.3088 612.386 -380.10796 612.358 L -356.31526 609.04265 C -356.11125 609.0142 -355.9078 608.98186 -355.70504 608.9456 L -346.5092 607.3 C -341.1821 606.3467 -337.53124 601.3931 -338.19766 596.02255 L -340.40525 578.232 C -340.4079 578.21066 -340.4105 578.18934 -340.41305 578.168 L -343.97688 548.4695 C -343.99843 548.28985 -344.01694 548.10985 -344.0324 547.9296 L -346.3946 520.3704 C -346.40435 520.2568 -346.41287 520.1431 -346.42017 520.02936 L -347.8068 498.4377 C -347.8084 498.4126 -347.8101 498.38744 -347.8118 498.3623 L -349.40397 475.276 C -349.40747 475.22533 -349.4107 475.17466 -349.41373 475.124 L -350.5901 455.3218 C -350.60284 455.1073 -350.61126 454.89255 -350.61535 454.6777 L -351.00764 434.08285 C -351.0087 434.0276 -351.01003 433.9724 -351.01165 433.9172 L -351.60678 413.68283 C -351.6084 413.6276 -351.60974 413.5724 -351.6108 413.51715 L -352.00145 393.0076 C -352.00663 392.7359 -352.00488 392.46413 -351.9962 392.19253 L -351.41027 373.8329 C -351.40956 373.81097 -351.4088 373.78903 -351.40803 373.7671 L -350.61995 351.8978 C -350.6128 351.6993 -350.60194 351.50093 -350.5874 351.30283 L -349.02993 330.0822 C -349.0161 329.8941 -349.00564 329.70573 -348.9985 329.51724 L -348.24404 309.61837 C -348.22085 309.00663 -348.16256 308.3967 -348.06948 307.79165 L -345.33047 289.98813 C -345.2497 289.46304 -345.1428 288.9423 -345.0102 288.42783 L -340.38194 270.47017 C -340.26684 270.0236 -340.1325 269.5822 -339.97927 269.14725 L -334.2585 252.9076 C -334.0924 252.43613 -333.9043 251.9727 -333.69483 251.51883 L -328.16327 239.5338 C -328.06058 239.3113 -327.9528 239.0912 -327.84 238.87364 L -322.47777 228.53222 C -322.43207 228.44407 -322.38554 228.35636 -322.3382 228.26908 L -317.12223 218.65212 C -316.38495 217.29276 -315.43532 216.05987 -314.3092 215 L -314.3092 215 C -313.63402 214.36453 -313.60183 213.30203 -314.2373 212.62684 C -314.3618 212.49456 -314.50693 212.38337 -314.66705 212.2976 L -317.8812 210.57573 C -318.09984 210.4586 -318.3212 210.34656 -318.54506 210.2397 L -326.39903 206.49122 C -326.80564 206.29716 -327.22026 206.12036 -327.6418 205.9613 L -337.31662 202.3104 C -337.51167 202.2368 -337.70813 202.16703 -337.9059 202.1011 L -350.60037 197.86962 C -350.7396 197.8232 -350.87945 197.77872 -351.0199 197.73616 L -363.9034 193.83206 C -363.97395 193.81069 -364.04433 193.78883 -364.11456 193.76648 L -376.61856 189.78794 C -377.0122 189.6627 -377.4008 189.52225 -377.78357 189.36693 L -389.7595 184.50713 C -390.59117 184.16964 -391.39296 183.76277 -392.1564 183.29083 L -401.77564 177.34439 C -401.93135 177.24814 -402.0854 177.14922 -402.2377 177.04768 L -407.1278 173.78762 C -408.1092 173.13335 -408.9805 172.32745 -409.7092 171.4 L -409.7092 171.4 C -409.8148 171.2656 -410.0094 171.24225 -410.1438 171.34785 C -410.24653 171.42858 -410.2875 171.56513 -410.2462 171.68908 L -410.1092 172.1 C -409.64997 173.47775 -409.5454 174.94904 -409.8052 176.37789 L -410.20033 178.55115 C -410.47155 180.04281 -410.9534 181.48835 -411.6314 182.8444 L -413.16374 185.90904 C -413.46044 186.50244 -413.79376 187.0768 -414.16177 187.62883 L -417.36547 192.43438 C -417.79407 193.07728 -418.2687 193.6883 -418.78557 194.26261 L -423.3476 199.33156 C -423.3887 199.37719 -423.43 199.42258 -423.4716 199.46773 L -429.46583 205.97576 C -430.09357 206.6573 -430.7793 207.28302 -431.51535 207.84587 L -436.53953 211.68789 C -436.9857 212.02906 -437.4495 212.3465 -437.929 212.6389 L -444.4154 216.59403 C -445.0771 216.99748 -445.76717 217.35232 -446.48025 217.65576 L -453.59566 220.6836 C -454.40333 221.02728 -455.2379 221.30393 -456.09095 221.51072 L -460.17 222.49959 C -460.99484 222.69955 -461.8343 222.83356 -462.68037 222.90035 L -468.3806 223.35037 C -468.7995 223.38344 -469.2196 223.4 -469.6398 223.4 L -476.67213 223.4 C -477.42923 223.4 -478.1854 223.34626 -478.9349 223.2392 L -486.8813 222.10399 C -487.3663 222.0347 -487.8479 221.94317 -488.3245 221.8297 L -494.28574 220.41035 C -495.4312 220.13762 -496.5431 219.73927 -497.6012 219.22253 L -503.8812 216.15556 C -504.3662 215.91867 -504.839 215.6574 -505.2976 215.37272 L -509.5095 212.75846 C -510.10865 212.38656 -510.6826 211.97546 -511.2275 211.52784 L -515.6736 207.87568 C -515.8973 207.69193 -516.116 207.50214 -516.3294 207.30652 L -520.1317 203.82104 C -520.583 203.40736 -521.0102 202.9681 -521.41115 202.50546 L -525.5299 197.75307 C -525.8493 197.38455 -526.15164 197.00162 -526.43605 196.60549 L -530.8657 190.4356 C -531.3606 189.7463 -531.79987 189.0187 -532.17936 188.25972 L -534.7558 183.1068 C -534.7914 183.0356 -534.8265 182.96414 -534.861 182.89242 L -536.1092 180.3 C -536.95993 178.53313 -537.31545 176.5686 -537.1379 174.61564 L -536.9577 172.63339 C -536.9339 172.37152 -537.1269 172.13994 -537.38875 172.11614 C -537.55114 172.10138 -537.7098 172.17075 -537.8092 172.3 L -537.8092 172.3 C -538.47266 173.16248 -539.2528 173.92856 -540.12715 174.57625 L -544.0237 177.46257 C -544.14737 177.55418 -544.27237 177.64401 -544.39864 177.73202 L -549.0209 180.9536 C -550.2076 181.7807 -551.50105 182.44308 -552.8658 182.92258 L -557.4729 184.5413 C -557.9635 184.71367 -558.4454 184.90984 -558.91684 185.12913 L -565.7636 188.31368 C -566.4598 188.63747 -567.17835 188.91074 -567.91375 189.13136 L -578.78414 192.39248 C -578.80086 192.3975 -578.8176 192.40254 -578.8343 192.4076 L -589.80236 195.7372 C -589.94026 195.77907 -590.0776 195.8228 -590.2143 195.86836 L -603.13554 200.17544 C -603.18466 200.19181 -603.23386 200.20795 -603.2831 200.22384 L -614.65054 203.89075 C -615.289 204.09671 -615.9139 204.34263 -616.52154 204.62704 L -624.4535 208.33988 C -624.82384 208.51323 -625.1874 208.70071 -625.5434 208.90192 L -631.4895 212.26276 C -632.7425 212.971 -633.1842 214.56093 -632.4759 215.81396 C -632.3988 215.9504 -632.30955 216.0796 -632.2092 216.2 L -631.3451 217.23693 C -630.5902 218.14287 -629.9377 219.1295 -629.3996 220.17882 L -626.3224 226.17924 C -626.24696 226.3264 -626.1692 226.4724 -626.0892 226.61715 L -622.1345 233.77337 C -622.051 233.92445 -621.9699 234.07687 -621.8914 234.23057 L -617.7831 242.26856 C -617.534 242.75587 -617.3101 243.25563 -617.11224 243.7659 L -613.6295 252.74776 C -613.616 252.7826 -613.60235 252.81737 -613.5886 252.8521 L -609.9923 261.93754 C -609.8703 262.24577 -609.7579 262.55772 -609.65524 262.87294 L -607.0334 270.92572 C -607.0173 270.97524 -607.0014 271.02484 -606.98576 271.07452 L -603.9137 280.8328 C -603.7109 281.47695 -603.5491 282.1333 -603.4293 282.7979 L -601.44395 293.80737 C -601.4208 293.9358 -601.3992 294.06448 -601.3792 294.19342 L -599.6733 305.1868 C -599.6306 305.46222 -599.5951 305.7387 -599.5668 306.016 L -598.67935 314.7127 C -598.6326 315.1707 -598.6057 315.63048 -598.5986 316.0908 L -598.41435 328.0664 C -598.4109 328.2888 -598.4029 328.51105 -598.3902 328.7331 L -597.6198 342.21465 C -597.61275 342.3382 -597.60425 342.4617 -597.5943 342.58506 L -596.26076 359.15943 C -596.2264 359.5863 -596.2092 360.0144 -596.2092 360.44264 L -596.2092 372.89242 C -596.2092 373.09746 -596.2053 373.30247 -596.1974 373.50735 L -595.61705 388.5965 C -595.6118 388.73216 -595.60834 388.8679 -595.6066 389.00365 L -595.4144 403.7999 C -595.41095 404.0666 -595.41416 404.33333 -595.424 404.59986 L -595.99826 420.104 C -596.00556 420.3013 -596.0092 420.49875 -596.0092 420.6962 L -596.0092 434.2924 C -596.0092 434.49746 -596.01316 434.70247 -596.02104 434.90736 L -596.6062 450.12236 C -596.6082 450.1741 -596.6105 450.2259 -596.61296 450.2776 L -597.4083 466.78055 C -597.4089 466.7935 -597.40955 466.8065 -597.4102 466.81945 L -598.2047 482.5106 C -598.2077 482.5702 -598.21106 482.6298 -598.21474 482.68933 L -599.40366 501.91007 C -599.40736 501.97 -599.4114 502.02996 -599.4158 502.0899 L -601.1989 526.4594 C -601.2058 526.55314 -601.2135 526.6468 -601.222 526.7404 L -603.0079 546.3852 C -603.0088 546.3951 -603.0097 546.40494 -603.0106 546.4148 L -604.78136 565.4997 C -604.7999 565.6999 -604.8223 565.8997 -604.8484 566.099 L -606.8091 581.07175 C -606.9419 582.08594 -607.21104 583.07756 -607.6092 584.0197 L -607.6092 584.0197 C -608.0068 584.9605 -608.25546 585.9574 -608.3463 586.97465 L -609.1092 595.5197 C -609.617 601.20676 -605.6585 606.3251 -600.02654 607.2638 Z" stroke="#7f8080" stroke-linecap="round" stroke-linejoin="round" stroke-width="1"/>
      <path d="M -689 321.44615 L -682.8 325.84615 L -674.6 329.84615 L -666 333.44615 L -657 337.24615 L -646 341.24615 L -636.6 344.04615 L -627.6 346.64615 L -618.6 349.24615 L -613.2 350.64615 L -607.6 351.64615 L -605.2 345.84615 L -602.6 340.44615 L -600.4 336.44615 L -597.8 333.04615 L -597.6 324.04615 L -598.2 313.04615 L -600 302.24615 L -601.6 291.84615 L -604.2 280.84614 L -606.6 271.24614 L -609.4 263.24614 L -612.6 253.84614 L -615.4 246.44614 L -619 238.84614 L -623 231.24614 L -627 223.84614 L -629.6 220.24614 L -633.2 214.44614 L -638.6 218.84614 L -643.4 223.64614 L -648 229.84614 L -652.4 236.04614 L -657.2 244.64614 L -662 254.04614 L -666.8 263.24614 L -670.4 271.84614 L -674.4 280.84614 L -677.6 289.04615 L -681.4 298.44615 L -684.2 306.44615 L -687.2 314.84615 Z" fill="#00c8f7"/>
      <path d="M -689 321.44615 L -682.8 325.84615 L -674.6 329.84615 L -666 333.44615 L -657 337.24615 L -646 341.24615 L -636.6 344.04615 L -627.6 346.64615 L -618.6 349.24615 L -613.2 350.64615 L -607.6 351.64615 L -605.2 345.84615 L -602.6 340.44615 L -600.4 336.44615 L -597.8 333.04615 L -597.6 324.04615 L -598.2 313.04615 L -600 302.24615 L -601.6 291.84615 L -604.2 280.84614 L -606.6 271.24614 L -609.4 263.24614 L -612.6 253.84614 L -615.4 246.44614 L -619 238.84614 L -623 231.24614 L -627 223.84614 L -629.6 220.24614 L -633.2 214.44614 L -638.6 218.84614 L -643.4 223.64614 L -648 229.84614 L -652.4 236.04614 L -657.2 244.64614 L -662 254.04614 L -666.8 263.24614 L -670.4 271.84614 L -674.4 280.84614 L -677.6 289.04615 L -681.4 298.44615 L -684.2 306.44615 L -687.2 314.84615 Z" stroke="#7f8080" stroke-linecap="round" stroke-linejoin="round" stroke-width="1"/>
      <path d="M -257.5947 320.50275 L -263.7947 324.90275 L -271.9947 328.90275 L -280.5947 332.50275 L -289.5947 336.30275 L -300.5947 340.30275 L -309.9947 343.10275 L -318.9947 345.70275 L -327.9947 348.30275 L -333.3947 349.70275 L -338.9947 350.70275 L -341.3947 344.90275 L -343.9947 339.50275 L -346.1947 335.50275 L -348.7947 332.10275 L -348.9947 323.10275 L -348.3947 312.10275 L -346.5947 301.30275 L -344.9947 290.90275 L -342.3947 279.90275 L -339.9947 270.30275 L -337.1947 262.30275 L -333.9947 252.90275 L -331.1947 245.50275 L -327.5947 237.90275 L -323.5947 230.30275 L -319.5947 222.90275 L -316.9947 219.30275 L -313.3947 213.50275 L -307.9947 217.90275 L -303.1947 222.70275 L -298.5947 228.90275 L -294.1947 235.10275 L -289.3947 243.70275 L -284.5947 253.10275 L -279.7947 262.30275 L -276.1947 270.90275 L -272.1947 279.90275 L -268.9947 288.10275 L -265.1947 297.50275 L -262.3947 305.50275 L -259.3947 313.90275 Z" fill="#0cf"/>
      <path d="M -257.5947 320.50275 L -263.7947 324.90275 L -271.9947 328.90275 L -280.5947 332.50275 L -289.5947 336.30275 L -300.5947 340.30275 L -309.9947 343.10275 L -318.9947 345.70275 L -327.9947 348.30275 L -333.3947 349.70275 L -338.9947 350.70275 L -341.3947 344.90275 L -343.9947 339.50275 L -346.1947 335.50275 L -348.7947 332.10275 L -348.9947 323.10275 L -348.3947 312.10275 L -346.5947 301.30275 L -344.9947 290.90275 L -342.3947 279.90275 L -339.9947 270.30275 L -337.1947 262.30275 L -333.9947 252.90275 L -331.1947 245.50275 L -327.5947 237.90275 L -323.5947 230.30275 L -319.5947 222.90275 L -316.9947 219.30275 L -313.3947 213.50275 L -307.9947 217.90275 L -303.1947 222.70275 L -298.5947 228.90275 L -294.1947 235.10275 L -289.3947 243.70275 L -284.5947 253.10275 L -279.7947 262.30275 L -276.1947 270.90275 L -272.1947 279.90275 L -268.9947 288.10275 L -265.1947 297.50275 L -262.3947 305.50275 L -259.3947 313.90275 Z" stroke="#7f8080" stroke-linecap="round" stroke-linejoin="round" stroke-width="1"/>
      <path d="M -689 321.44615 L -682.8 325.84615 L -674.6 329.84615 L -666 333.44615 L -657 337.24615 L -646 341.24615 L -636.6 344.04615 L -627.6 346.64615 L -618.6 349.24615 L -613.2 350.64615 L -607.6 351.64615 L -604.6 345.24615 L -608.4 344.44615 L -613.2 343.24615 L -618.8 342.04615 L -624.8 340.24615 L -629.4 338.84615 L -633.6 337.64615 L -638.2 335.64615 L -642.8 334.04615 L -647.6 332.04615 L -651.6 330.64615 L -656.8 328.44615 L -661.4 326.84615 L -666.2 324.64615 L -671 322.84615 L -675 320.84615 L -679.4 318.64615 L -683.8 316.44615 L -687.2 314.84615 Z" fill="red"/>
      <path d="M -689 321.44615 L -682.8 325.84615 L -674.6 329.84615 L -666 333.44615 L -657 337.24615 L -646 341.24615 L -636.6 344.04615 L -627.6 346.64615 L -618.6 349.24615 L -613.2 350.64615 L -607.6 351.64615 L -604.6 345.24615 L -608.4 344.44615 L -613.2 343.24615 L -618.8 342.04615 L -624.8 340.24615 L -629.4 338.84615 L -633.6 337.64615 L -638.2 335.64615 L -642.8 334.04615 L -647.6 332.04615 L -651.6 330.64615 L -656.8 328.44615 L -661.4 326.84615 L -666.2 324.64615 L -671 322.84615 L -675 320.84615 L -679.4 318.64615 L -683.8 316.44615 L -687.2 314.84615 Z" stroke="#7f8080" stroke-linecap="round" stroke-linejoin="round" stroke-width="1"/>
      <path d="M -257.5947 320.50275 L -263.7947 324.90275 L -271.9947 328.90275 L -280.5947 332.50275 L -289.5947 336.30275 L -300.5947 340.30275 L -309.9947 343.10275 L -318.9947 345.70275 L -327.9947 348.30275 L -333.3947 349.70275 L -338.9947 350.70275 L -341.9947 344.30275 L -338.1947 343.50275 L -333.3947 342.30275 L -327.7947 341.10275 L -321.7947 339.30275 L -317.1947 337.90275 L -312.9947 336.70275 L -308.3947 334.70275 L -303.7947 333.10275 L -298.9947 331.10275 L -294.9947 329.70275 L -289.7947 327.50275 L -285.1947 325.90275 L -280.3947 323.70275 L -275.5947 321.90275 L -271.5947 319.90275 L -267.1947 317.70275 L -262.7947 315.50275 L -259.3947 313.90275 Z" fill="red"/>
      <path d="M -257.5947 320.50275 L -263.7947 324.90275 L -271.9947 328.90275 L -280.5947 332.50275 L -289.5947 336.30275 L -300.5947 340.30275 L -309.9947 343.10275 L -318.9947 345.70275 L -327.9947 348.30275 L -333.3947 349.70275 L -338.9947 350.70275 L -341.9947 344.30275 L -338.1947 343.50275 L -333.3947 342.30275 L -327.7947 341.10275 L -321.7947 339.30275 L -317.1947 337.90275 L -312.9947 336.70275 L -308.3947 334.70275 L -303.7947 333.10275 L -298.9947 331.10275 L -294.9947 329.70275 L -289.7947 327.50275 L -285.1947 325.90275 L -280.3947 323.70275 L -275.5947 321.90275 L -271.5947 319.90275 L -267.1947 317.70275 L -262.7947 315.50275 L -259.3947 313.90275 Z" stroke="#7f8080" stroke-linecap="round" stroke-linejoin="round" stroke-width="1"/>
      <path d="M -538.4279 171.96379 L -543.15705 176.01736 C -544.3074 177.00338 -545.55236 177.8733 -546.8738 178.61448 L -549.4004 180.03165 C -550.8356 180.83662 -551.4164 182.60575 -550.7376 184.10473 L -549.72 186.35197 C -549.5984 186.62046 -549.4717 186.88658 -549.3399 187.1502 L -547.5376 190.75474 L -545.0506 195.7287 C -544.7088 196.4123 -544.3332 197.07843 -543.92505 197.72463 L -541.59866 201.40808 C -541.1583 202.10535 -540.6807 202.77842 -540.16805 203.42439 L -536.75736 207.72185 C -536.2113 208.40987 -535.6263 209.06606 -535.0052 209.68717 L -530.33913 214.3532 C -529.93825 214.7541 -529.5227 215.14 -529.0933 215.51018 L -524.52977 219.44426 C -524.1351 219.78448 -523.729 220.1112 -523.31215 220.42383 L -519.3372 223.40503 C -518.6713 223.90447 -517.97877 224.36738 -517.26267 224.79174 L -513.1296 227.24096 C -513.0016 227.3168 -512.8729 227.39141 -512.74344 227.46477 L -508.0459 230.1267 C -507.3076 230.54507 -506.5467 230.92226 -505.76675 231.25653 L -502.21693 232.77788 C -501.63097 233.029 -501.0348 233.25567 -500.43 233.45726 L -495.4119 235.12997 C -494.1647 235.5457 -492.8841 235.85376 -491.5842 236.0507 L -487.48536 236.67174 C -487.12024 236.72706 -486.75385 236.77358 -486.3865 236.81126 L -479.5054 237.51701 C -479.2602 237.54216 -479.01466 237.56336 -478.7688 237.58062 L -474.24165 237.8983 C -473.7058 237.93591 -473.1688 237.95473 -472.6316 237.95473 L -469.36954 237.95474 C -468.41584 237.95474 -467.46307 237.89542 -466.51673 237.77713 L -462.528 237.27854 C -461.86805 237.19604 -461.212 237.08496 -460.56165 236.9456 L -454.4796 235.6423 C -453.58574 235.45076 -452.7041 235.2061 -451.8393 234.9096 L -447.3305 233.36372 C -446.53583 233.09127 -445.7567 232.7755 -444.9966 232.4178 L -440.16323 230.14326 C -439.61303 229.88435 -439.0733 229.60371 -438.54536 229.30202 L -434.7775 227.14896 C -434.0847 226.75308 -433.413 226.32142 -432.76506 225.85572 L -428.08894 222.49475 C -427.58825 222.1349 -427.10224 221.75503 -426.6321 221.3561 L -421.31123 216.84144 C -420.9289 216.51706 -420.5573 216.18026 -420.197 215.83158 L -415.4978 211.28396 C -414.8582 210.665 -414.2551 210.00944 -413.6915 209.32058 L -409.8982 204.68434 C -409.3915 204.06503 -408.91743 203.4197 -408.478 202.75096 L -404.8608 197.24656 C -404.6454 196.91873 -404.43837 196.58544 -404.24 196.24702 L -401.7169 191.94292 C -401.33094 191.28454 -400.978 190.60735 -400.65938 189.91388 L -398.5407 185.3026 C -398.0078 184.14285 -397.63666 182.91544 -397.4376 181.65474 L -397.4376 181.65474 C -397.2593 180.52547 -397.8386 179.41203 -398.8657 178.9099 L -404.1591 176.322 C -405.4736 175.67937 -406.70817 174.88486 -407.8376 173.95474 L -408.2436 173.62037 C -409.08795 172.92504 -409.71136 171.99874 -410.0376 170.95474 L -410.0376 170.95474 C -410.08427 170.80542 -410.24314 170.7222 -410.39246 170.76886 C -410.50753 170.80482 -410.58723 170.90969 -410.5911 171.03019 L -410.7003 174.45311 C -410.79106 177.29619 -411.4084 180.09776 -412.521 182.71567 L -413.39794 184.77904 C -413.9565 186.09331 -414.63626 187.3527 -415.4284 188.54091 L -419.1142 194.06958 C -419.8617 195.19085 -420.7063 196.24425 -421.63825 197.21762 L -427.9333 203.79247 C -428.8014 204.69913 -429.74223 205.5332 -430.7464 206.28633 L -439.1213 212.5675 C -439.9977 213.22482 -440.92 213.81867 -441.88104 214.34454 L -449.06624 218.27606 C -450.37737 218.99347 -451.7553 219.58137 -453.1805 220.03143 L -459.8534 222.13867 C -461.57027 222.68084 -463.34486 223.01954 -465.14073 223.14781 L -472.0272 223.6397 C -473.0995 223.7163 -474.17583 223.71762 -475.2483 223.64365 L -483.6846 223.06184 C -484.71875 222.99052 -485.7469 222.84936 -486.76205 222.63933 L -493.89726 221.16308 C -495.8492 220.75923 -497.7404 220.10335 -499.52324 219.21192 L -504.18265 216.88221 C -505.4168 216.26515 -506.5929 215.53827 -507.69674 214.7104 L -513.3787 210.44892 C -513.81783 210.11957 -514.24504 209.7746 -514.6595 209.41468 L -520.4147 204.41676 C -521.22896 203.70962 -521.9925 202.94608 -522.69964 202.1318 L -527.10487 197.0591 C -527.85897 196.19075 -528.5469 195.26705 -529.1628 194.29578 L -532.8965 188.40802 C -533.2571 187.83944 -533.5925 187.2553 -533.9018 186.65728 L -535.5222 183.52456 C -536.1313 182.34688 -536.6375 181.11874 -537.03503 179.85385 L -538.3153 175.78036 C -538.53005 175.09698 -538.7128 174.40395 -538.8629 173.70351 L -539.0883 172.65157 C -539.17336 172.25456 -538.947 171.8569 -538.5622 171.72737 L -538.5622 171.72737 C -538.4897 171.70296 -538.41116 171.74195 -538.38675 171.81444 C -538.36874 171.86795 -538.385 171.92704 -538.4279 171.96379 Z" fill="red"/>
      <path d="M -538.4279 171.96379 L -543.15705 176.01736 C -544.3074 177.00338 -545.55236 177.8733 -546.8738 178.61448 L -549.4004 180.03165 C -550.8356 180.83662 -551.4164 182.60575 -550.7376 184.10473 L -549.72 186.35197 C -549.5984 186.62046 -549.4717 186.88658 -549.3399 187.1502 L -547.5376 190.75474 L -545.0506 195.7287 C -544.7088 196.4123 -544.3332 197.07843 -543.92505 197.72463 L -541.59866 201.40808 C -541.1583 202.10535 -540.6807 202.77842 -540.16805 203.42439 L -536.75736 207.72185 C -536.2113 208.40987 -535.6263 209.06606 -535.0052 209.68717 L -530.33913 214.3532 C -529.93825 214.7541 -529.5227 215.14 -529.0933 215.51018 L -524.52977 219.44426 C -524.1351 219.78448 -523.729 220.1112 -523.31215 220.42383 L -519.3372 223.40503 C -518.6713 223.90447 -517.97877 224.36738 -517.26267 224.79174 L -513.1296 227.24096 C -513.0016 227.3168 -512.8729 227.39141 -512.74344 227.46477 L -508.0459 230.1267 C -507.3076 230.54507 -506.5467 230.92226 -505.76675 231.25653 L -502.21693 232.77788 C -501.63097 233.029 -501.0348 233.25567 -500.43 233.45726 L -495.4119 235.12997 C -494.1647 235.5457 -492.8841 235.85376 -491.5842 236.0507 L -487.48536 236.67174 C -487.12024 236.72706 -486.75385 236.77358 -486.3865 236.81126 L -479.5054 237.51701 C -479.2602 237.54216 -479.01466 237.56336 -478.7688 237.58062 L -474.24165 237.8983 C -473.7058 237.93591 -473.1688 237.95473 -472.6316 237.95473 L -469.36954 237.95474 C -468.41584 237.95474 -467.46307 237.89542 -466.51673 237.77713 L -462.528 237.27854 C -461.86805 237.19604 -461.212 237.08496 -460.56165 236.9456 L -454.4796 235.6423 C -453.58574 235.45076 -452.7041 235.2061 -451.8393 234.9096 L -447.3305 233.36372 C -446.53583 233.09127 -445.7567 232.7755 -444.9966 232.4178 L -440.16323 230.14326 C -439.61303 229.88435 -439.0733 229.60371 -438.54536 229.30202 L -434.7775 227.14896 C -434.0847 226.75308 -433.413 226.32142 -432.76506 225.85572 L -428.08894 222.49475 C -427.58825 222.1349 -427.10224 221.75503 -426.6321 221.3561 L -421.31123 216.84144 C -420.9289 216.51706 -420.5573 216.18026 -420.197 215.83158 L -415.4978 211.28396 C -414.8582 210.665 -414.2551 210.00944 -413.6915 209.32058 L -409.8982 204.68434 C -409.3915 204.06503 -408.91743 203.4197 -408.478 202.75096 L -404.8608 197.24656 C -404.6454 196.91873 -404.43837 196.58544 -404.24 196.24702 L -401.7169 191.94292 C -401.33094 191.28454 -400.978 190.60735 -400.65938 189.91388 L -398.5407 185.3026 C -398.0078 184.14285 -397.63666 182.91544 -397.4376 181.65474 L -397.4376 181.65474 C -397.2593 180.52547 -397.8386 179.41203 -398.8657 178.9099 L -404.1591 176.322 C -405.4736 175.67937 -406.70817 174.88486 -407.8376 173.95474 L -408.2436 173.62037 C -409.08795 172.92504 -409.71136 171.99874 -410.0376 170.95474 L -410.0376 170.95474 C -410.08427 170.80542 -410.24314 170.7222 -410.39246 170.76886 C -410.50753 170.80482 -410.58723 170.90969 -410.5911 171.03019 L -410.7003 174.45311 C -410.79106 177.29619 -411.4084 180.09776 -412.521 182.71567 L -413.39794 184.77904 C -413.9565 186.09331 -414.63626 187.3527 -415.4284 188.54091 L -419.1142 194.06958 C -419.8617 195.19085 -420.7063 196.24425 -421.63825 197.21762 L -427.9333 203.79247 C -428.8014 204.69913 -429.74223 205.5332 -430.7464 206.28633 L -439.1213 212.5675 C -439.9977 213.22482 -440.92 213.81867 -441.88104 214.34454 L -449.06624 218.27606 C -450.37737 218.99347 -451.7553 219.58137 -453.1805 220.03143 L -459.8534 222.13867 C -461.57027 222.68084 -463.34486 223.01954 -465.14073 223.14781 L -472.0272 223.6397 C -473.0995 223.7163 -474.17583 223.71762 -475.2483 223.64365 L -483.6846 223.06184 C -484.71875 222.99052 -485.7469 222.84936 -486.76205 222.63933 L -493.89726 221.16308 C -495.8492 220.75923 -497.7404 220.10335 -499.52324 219.21192 L -504.18265 216.88221 C -505.4168 216.26515 -506.5929 215.53827 -507.69674 214.7104 L -513.3787 210.44892 C -513.81783 210.11957 -514.24504 209.7746 -514.6595 209.41468 L -520.4147 204.41676 C -521.22896 203.70962 -521.9925 202.94608 -522.69964 202.1318 L -527.10487 197.0591 C -527.85897 196.19075 -528.5469 195.26705 -529.1628 194.29578 L -532.8965 188.40802 C -533.2571 187.83944 -533.5925 187.2553 -533.9018 186.65728 L -535.5222 183.52456 C -536.1313 182.34688 -536.6375 181.11874 -537.03503 179.85385 L -538.3153 175.78036 C -538.53005 175.09698 -538.7128 174.40395 -538.8629 173.70351 L -539.0883 172.65157 C -539.17336 172.25456 -538.947 171.8569 -538.5622 171.72737 L -538.5622 171.72737 C -538.4897 171.70296 -538.41116 171.74195 -538.38675 171.81444 C -538.36874 171.86795 -538.385 171.92704 -538.4279 171.96379 Z" stroke="#7f8080" stroke-linecap="round" stroke-linejoin="round" stroke-width="1"/>
      <path d="M -538.94075 171.7559 L -533.54075 171.1559 L -526.74075 174.5559 L -521.74075 176.3559 L -513.34075 178.1559 L -504.94075 179.1559 L -496.94075 180.1559 L -489.34075 180.3559 L -480.74075 180.7559 L -469.14075 180.5559 L -460.74075 180.1559 L -451.34075 179.5559 L -442.94075 178.7559 L -433.74075 177.3559 L -425.54075 175.1559 L -419.74075 173.3559 L -414.14075 170.7559 L -411.34075 171.9559 L -410.94075 177.5559 L -413.74075 185.5559 L -419.14075 188.3559 L -429.74075 191.5559 L -441.14075 193.9559 L -452.34075 194.7559 L -464.74075 195.7559 L -475.14075 195.7559 L -484.54075 195.7559 L -496.14075 195.1559 L -507.34075 194.3559 L -517.94075 192.1559 L -526.54075 190.1559 L -532.74075 187.3559 L -534.74075 185.7559 L -537.94075 178.1559 Z" fill="red"/>
      <path d="M -538.94075 171.7559 L -533.54075 171.1559 L -526.74075 174.5559 L -521.74075 176.3559 L -513.34075 178.1559 L -504.94075 179.1559 L -496.94075 180.1559 L -489.34075 180.3559 L -480.74075 180.7559 L -469.14075 180.5559 L -460.74075 180.1559 L -451.34075 179.5559 L -442.94075 178.7559 L -433.74075 177.3559 L -425.54075 175.1559 L -419.74075 173.3559 L -414.14075 170.7559 L -411.34075 171.9559 L -410.94075 177.5559 L -413.74075 185.5559 L -419.14075 188.3559 L -429.74075 191.5559 L -441.14075 193.9559 L -452.34075 194.7559 L -464.74075 195.7559 L -475.14075 195.7559 L -484.54075 195.7559 L -496.14075 195.1559 L -507.34075 194.3559 L -517.94075 192.1559 L -526.54075 190.1559 L -532.74075 187.3559 L -534.74075 185.7559 L -537.94075 178.1559 Z" stroke="#7f8080" stroke-linecap="round" stroke-linejoin="round" stroke-width="1"/>
      <path d="M -609.1868 597.2 L -609.1868 597.2 C -609.2525 597.7255 -609.18964 598.25905 -609.0037 598.7549 L -608.3527 600.4909 C -608.17594 600.9623 -607.94885 601.4132 -607.6754 601.8358 L -606.7076 603.3315 C -606.1666 604.16756 -605.4535 604.87855 -604.6159 605.417 L -603.5378 606.11005 C -603.2376 606.3031 -602.923 606.47285 -602.59684 606.6179 L -601.28 607.2035 C -600.68346 607.46876 -600.05275 607.6493 -599.4062 607.7398 L -590.3958 609.00126 C -590.3858 609.00265 -590.3758 609.004 -590.3658 609.0054 L -578.6498 610.594 C -578.6038 610.6002 -578.55774 610.606 -578.5116 610.6113 L -568.2287 611.7978 C -568.19676 611.8015 -568.1648 611.805 -568.13284 611.8082 L -554.4228 613.1991 C -554.3948 613.2019 -554.3668 613.2046 -554.3388 613.2071 L -543.2335 614.19865 C -543.19836 614.2018 -543.1632 614.20466 -543.12805 614.20726 L -532.4415 614.99886 C -532.40104 615.00185 -532.36053 615.0045 -532.32 615.0068 L -521.812 615.6016 C -521.7912 615.6028 -521.7704 615.604 -521.7496 615.6054 L -509.7068 616.3951 C -509.6228 616.4006 -509.5387 616.4046 -509.45457 616.4071 L -496.00744 616.8026 C -495.9897 616.8031 -495.9719 616.8037 -495.95415 616.80434 L -485.3103 617.19856 C -485.22397 617.20176 -485.1376 617.20335 -485.0512 617.20335 L -474.4422 617.20335 C -474.40126 617.20335 -474.36033 617.2037 -474.3194 617.2044 L -463.233 617.3989 C -463.0649 617.4019 -462.8968 617.3988 -462.72894 617.3896 L -452.1077 616.8103 C -452.0231 616.80566 -451.9384 616.8026 -451.8537 616.80104 L -441.08915 616.6053 C -441.0169 616.604 -440.9447 616.6016 -440.87255 616.598 L -428.85393 616.00695 C -428.80517 616.00455 -428.75645 616.00165 -428.70775 615.9982 L -417.4677 615.20945 C -417.40977 615.2054 -417.3519 615.2006 -417.29406 615.1951 L -404.8835 614.0131 C -404.81503 614.0066 -404.7465 614.0011 -404.67786 613.9966 L -392.74584 613.2142 C -392.6358 613.20696 -392.526 613.19715 -392.41645 613.18475 L -382.0041 612.006 C -381.98856 612.0042 -381.97303 612.0024 -381.9575 612.00056 L -372.0098 610.8068 C -371.99046 610.8045 -371.97114 610.8021 -371.95182 610.7996 L -358.11606 609.0221 C -358.01885 609.0096 -357.9219 608.9951 -357.8253 608.9785 L -351.2718 607.85506 C -351.07085 607.8206 -350.86847 607.79495 -350.66527 607.7782 L -347.43294 607.5112 C -346.5437 607.43775 -345.6767 607.195 -344.87865 606.79594 L -343.39235 606.0528 C -342.79176 605.7525 -342.2375 605.36735 -341.7466 604.9092 L -340.4115 603.6631 C -339.8047 603.0967 -339.34927 602.3875 -339.0868 601.6 L -338.79195 600.7155 C -338.72188 600.5053 -338.66183 600.2919 -338.612 600.07595 L -338.1423 598.04056 C -338.10707 597.8879 -338.1405 597.7275 -338.2338 597.6017 L -338.2338 597.6017 C -338.32413 597.4798 -338.47477 597.4183 -338.6246 597.44214 L -347.10445 598.7912 C -347.15534 598.7993 -347.20615 598.80796 -347.25685 598.8172 L -360.2416 601.17805 C -360.3344 601.1949 -360.4275 601.2099 -360.5209 601.223 L -371.75057 602.7991 C -371.7707 602.80194 -371.79086 602.80486 -371.811 602.80786 L -384.9801 604.7734 C -385.11387 604.7934 -385.2482 604.80945 -385.3829 604.8216 L -395.89126 605.7721 C -396.097 605.7907 -396.30343 605.8002 -396.51 605.8005 L -397.94395 605.80295 C -398.1018 605.8032 -398.2596 605.8088 -398.41707 605.81976 L -412.5469 606.801 C -412.5695 606.8026 -412.5921 606.804 -412.6147 606.8054 L -425.91795 607.5996 C -425.95984 607.6021 -426.00176 607.6042 -426.0437 607.606 L -440.23515 608.1973 C -440.33224 608.2013 -440.4294 608.20335 -440.52656 608.20335 L -453.7808 608.20335 L -466.32247 608.20335 C -466.36135 608.20335 -466.40024 608.2037 -466.4391 608.2043 L -478.1975 608.4003 C -478.3197 608.4023 -478.4419 608.4012 -478.564 608.3968 L -489.3976 608.0099 C -489.5197 608.0055 -489.6419 608.0044 -489.7641 608.0064 L -501.4787 608.20165 C -501.54677 608.2028 -501.6148 608.2029 -501.68287 608.2021 L -517.38516 608.0058 C -517.51556 608.0042 -517.6459 607.9989 -517.776 607.99 L -532.0858 607.00986 C -532.1491 607.0055 -532.2124 607.0003 -532.2756 606.99426 L -546.7666 605.6047 C -546.7761 605.6038 -546.7855 605.6029 -546.795 605.60194 L -560.607 604.2207 C -560.72285 604.20915 -560.8384 604.1947 -560.9535 604.1773 L -575.26265 602.02116 C -575.3414 602.0093 -575.42036 601.9988 -575.4995 601.9896 L -589.0194 600.4221 C -589.127 600.4096 -589.23426 600.3946 -589.34114 600.3772 L -598.7332 598.8438 C -598.8982 598.8168 -599.0622 598.784 -599.22484 598.7453 L -608.3024 596.58654 C -608.69075 596.4942 -609.0804 596.7341 -609.17276 597.12244 C -609.17884 597.148 -609.1835 597.1739 -609.1868 597.2 Z" fill="red"/>
      <path d="M -609.1868 597.2 L -609.1868 597.2 C -609.2525 597.7255 -609.18964 598.25905 -609.0037 598.7549 L -608.3527 600.4909 C -608.17594 600.9623 -607.94885 601.4132 -607.6754 601.8358 L -606.7076 603.3315 C -606.1666 604.16756 -605.4535 604.87855 -604.6159 605.417 L -603.5378 606.11005 C -603.2376 606.3031 -602.923 606.47285 -602.59684 606.6179 L -601.28 607.2035 C -600.68346 607.46876 -600.05275 607.6493 -599.4062 607.7398 L -590.3958 609.00126 C -590.3858 609.00265 -590.3758 609.004 -590.3658 609.0054 L -578.6498 610.594 C -578.6038 610.6002 -578.55774 610.606 -578.5116 610.6113 L -568.2287 611.7978 C -568.19676 611.8015 -568.1648 611.805 -568.13284 611.8082 L -554.4228 613.1991 C -554.3948 613.2019 -554.3668 613.2046 -554.3388 613.2071 L -543.2335 614.19865 C -543.19836 614.2018 -543.1632 614.20466 -543.12805 614.20726 L -532.4415 614.99886 C -532.40104 615.00185 -532.36053 615.0045 -532.32 615.0068 L -521.812 615.6016 C -521.7912 615.6028 -521.7704 615.604 -521.7496 615.6054 L -509.7068 616.3951 C -509.6228 616.4006 -509.5387 616.4046 -509.45457 616.4071 L -496.00744 616.8026 C -495.9897 616.8031 -495.9719 616.8037 -495.95415 616.80434 L -485.3103 617.19856 C -485.22397 617.20176 -485.1376 617.20335 -485.0512 617.20335 L -474.4422 617.20335 C -474.40126 617.20335 -474.36033 617.2037 -474.3194 617.2044 L -463.233 617.3989 C -463.0649 617.4019 -462.8968 617.3988 -462.72894 617.3896 L -452.1077 616.8103 C -452.0231 616.80566 -451.9384 616.8026 -451.8537 616.80104 L -441.08915 616.6053 C -441.0169 616.604 -440.9447 616.6016 -440.87255 616.598 L -428.85393 616.00695 C -428.80517 616.00455 -428.75645 616.00165 -428.70775 615.9982 L -417.4677 615.20945 C -417.40977 615.2054 -417.3519 615.2006 -417.29406 615.1951 L -404.8835 614.0131 C -404.81503 614.0066 -404.7465 614.0011 -404.67786 613.9966 L -392.74584 613.2142 C -392.6358 613.20696 -392.526 613.19715 -392.41645 613.18475 L -382.0041 612.006 C -381.98856 612.0042 -381.97303 612.0024 -381.9575 612.00056 L -372.0098 610.8068 C -371.99046 610.8045 -371.97114 610.8021 -371.95182 610.7996 L -358.11606 609.0221 C -358.01885 609.0096 -357.9219 608.9951 -357.8253 608.9785 L -351.2718 607.85506 C -351.07085 607.8206 -350.86847 607.79495 -350.66527 607.7782 L -347.43294 607.5112 C -346.5437 607.43775 -345.6767 607.195 -344.87865 606.79594 L -343.39235 606.0528 C -342.79176 605.7525 -342.2375 605.36735 -341.7466 604.9092 L -340.4115 603.6631 C -339.8047 603.0967 -339.34927 602.3875 -339.0868 601.6 L -338.79195 600.7155 C -338.72188 600.5053 -338.66183 600.2919 -338.612 600.07595 L -338.1423 598.04056 C -338.10707 597.8879 -338.1405 597.7275 -338.2338 597.6017 L -338.2338 597.6017 C -338.32413 597.4798 -338.47477 597.4183 -338.6246 597.44214 L -347.10445 598.7912 C -347.15534 598.7993 -347.20615 598.80796 -347.25685 598.8172 L -360.2416 601.17805 C -360.3344 601.1949 -360.4275 601.2099 -360.5209 601.223 L -371.75057 602.7991 C -371.7707 602.80194 -371.79086 602.80486 -371.811 602.80786 L -384.9801 604.7734 C -385.11387 604.7934 -385.2482 604.80945 -385.3829 604.8216 L -395.89126 605.7721 C -396.097 605.7907 -396.30343 605.8002 -396.51 605.8005 L -397.94395 605.80295 C -398.1018 605.8032 -398.2596 605.8088 -398.41707 605.81976 L -412.5469 606.801 C -412.5695 606.8026 -412.5921 606.804 -412.6147 606.8054 L -425.91795 607.5996 C -425.95984 607.6021 -426.00176 607.6042 -426.0437 607.606 L -440.23515 608.1973 C -440.33224 608.2013 -440.4294 608.20335 -440.52656 608.20335 L -453.7808 608.20335 L -466.32247 608.20335 C -466.36135 608.20335 -466.40024 608.2037 -466.4391 608.2043 L -478.1975 608.4003 C -478.3197 608.4023 -478.4419 608.4012 -478.564 608.3968 L -489.3976 608.0099 C -489.5197 608.0055 -489.6419 608.0044 -489.7641 608.0064 L -501.4787 608.20165 C -501.54677 608.2028 -501.6148 608.2029 -501.68287 608.2021 L -517.38516 608.0058 C -517.51556 608.0042 -517.6459 607.9989 -517.776 607.99 L -532.0858 607.00986 C -532.1491 607.0055 -532.2124 607.0003 -532.2756 606.99426 L -546.7666 605.6047 C -546.7761 605.6038 -546.7855 605.6029 -546.795 605.60194 L -560.607 604.2207 C -560.72285 604.20915 -560.8384 604.1947 -560.9535 604.1773 L -575.26265 602.02116 C -575.3414 602.0093 -575.42036 601.9988 -575.4995 601.9896 L -589.0194 600.4221 C -589.127 600.4096 -589.23426 600.3946 -589.34114 600.3772 L -598.7332 598.8438 C -598.8982 598.8168 -599.0622 598.784 -599.22484 598.7453 L -608.3024 596.58654 C -608.69075 596.4942 -609.0804 596.7341 -609.17276 597.12244 C -609.17884 597.148 -609.1835 597.1739 -609.1868 597.2 Z" stroke="#7f8080" stroke-linecap="round" stroke-linejoin="round" stroke-width="1"/>
      <path d="M -313.781 212.8 L -325.781 205.7559 L -335.581 202 L -335.781 202 L -345.5947 198.4 L -358.381 194.8 L -359.781 194.7559 L -607.781 595.7559 L -593.781 598.7559 L -581.3947 600.8 L -576.9947 601.6 L -563.1947 603.6 L -551.1947 604.8 L -542.1947 604.8 L -540.781 604.7559 Z" fill="#d60000"/>
      <path d="M -313.781 212.8 L -325.781 205.7559 L -335.581 202 L -335.781 202 L -345.5947 198.4 L -358.381 194.8 L -359.781 194.7559 L -607.781 595.7559 L -593.781 598.7559 L -581.3947 600.8 L -576.9947 601.6 L -563.1947 603.6 L -551.1947 604.8 L -542.1947 604.8 L -540.781 604.7559 Z" stroke="white" stroke-linecap="round" stroke-linejoin="round" stroke-width="0"/>
    </g>
  </g>
</svg>
