<?xml version="1.0" encoding="UTF-8" standalone="no"?>
<!DOCTYPE svg PUBLIC "-//W3C//DTD SVG 1.1//EN" "http://www.w3.org/Graphics/SVG/1.1/DTD/svg11.dtd">
<svg xmlns="http://www.w3.org/2000/svg" xmlns:xl="http://www.w3.org/1999/xlink" version="1.1" viewBox="236.79736 105.8 432.4053 448.4" width="432.4053pt" height="448.4pt" xmlns:dc="http://purl.org/dc/elements/1.1/">
  <metadata> Produced by OmniGraffle 7.6.1 
    <dc:date>2020-11-09 19:31:15 +0000</dc:date>
  </metadata>
  <defs>
    <radialGradient cx="0" cy="0" r="1" id="Gradient" gradientUnits="userSpaceOnUse">
      <stop offset="0" stop-color="#cbcbcb"/>
      <stop offset="1" stop-color="#010f1f"/>
    </radialGradient>
    <radialGradient id="Obj_Gradient" xl:href="#Gradient" gradientTransform="translate(452.0566 133.7) scale(70.26272)"/>
    <linearGradient x1="0" x2="1" id="Gradient_2" gradientUnits="userSpaceOnUse">
      <stop offset="0" stop-color="yellow"/>
      <stop offset="1" stop-color="#f5e042"/>
    </linearGradient>
    <linearGradient id="Obj_Gradient_2" xl:href="#Gradient_2" gradientTransform="translate(453 107.5817) rotate(90) scale(446.1183)"/>
    <linearGradient x1="0" x2="1" id="Gradient_3" gradientUnits="userSpaceOnUse">
      <stop offset="0" stop-color="yellow"/>
      <stop offset="1" stop-color="#d2d2d2"/>
    </linearGradient>
    <linearGradient id="Obj_Gradient_3" xl:href="#Gradient_3" gradientTransform="translate(279.49736 251.14614) rotate(90) scale(36.8)"/>
    <linearGradient x1="0" x2="1" id="Gradient_4" gradientUnits="userSpaceOnUse">
      <stop offset="0" stop-color="yellow"/>
      <stop offset="1" stop-color="#c5c5c5"/>
    </linearGradient>
    <linearGradient id="Obj_Gradient_4" xl:href="#Gradient_4" gradientTransform="translate(626.50264 250.20275) rotate(90) scale(36.8)"/>
    <radialGradient cx="0" cy="0" r="1" id="Gradient_5" gradientUnits="userSpaceOnUse">
      <stop offset="0" stop-color="#3779fb"/>
      <stop offset="1" stop-color="#0e1560"/>
    </radialGradient>
    <radialGradient id="Obj_Gradient_5" xl:href="#Gradient_5" gradientTransform="translate(452.0843 140.65531) scale(83.83496)"/>
    <linearGradient x1="0" x2="1" id="Gradient_6" gradientUnits="userSpaceOnUse">
      <stop offset="0" stop-color="#2f67d5"/>
      <stop offset="1" stop-color="#00008d"/>
    </linearGradient>
    <linearGradient id="Obj_Gradient_6" xl:href="#Gradient_6" gradientTransform="translate(451.3566 107.05589) rotate(90) scale(25)"/>
    <radialGradient cx="0" cy="0" r="1" id="Gradient_7" gradientUnits="userSpaceOnUse">
      <stop offset="0" stop-color="#181606"/>
      <stop offset="1" stop-color="#0f0073"/>
    </radialGradient>
    <radialGradient id="Obj_Gradient_7" xl:href="#Gradient_7" gradientTransform="translate(452.62703 543.2834) scale(135.94141)"/>
    <linearGradient x1="0" x2="1" id="Gradient_8" gradientUnits="userSpaceOnUse">
      <stop offset="0" stop-color="#0000b0"/>
      <stop offset="1" stop-color="black"/>
    </linearGradient>
    <linearGradient id="Obj_Gradient_8" xl:href="#Gradient_8" gradientTransform="translate(578.0164 124.64085) rotate(90) scale(414)"/>
    <linearGradient x1="0" x2="1" id="Gradient_9" gradientUnits="userSpaceOnUse">
      <stop offset="0" stop-color="#0000ab"/>
      <stop offset="1" stop-color="#080808"/>
    </linearGradient>
    <linearGradient id="Obj_Gradient_9" xl:href="#Gradient_9" gradientTransform="translate(327.8905 124.37503) rotate(90) scale(414.92497)"/>
  </defs>
  <g stroke="none" stroke-opacity="1" stroke-dasharray="none" fill="none" fill-opacity="1">
    <title>Canvas 1</title>
    <g>
      <title>Layer 1</title>
      <path d="M 390.303 106.89044 L 398.46846 110.00816 C 399.32645 110.33576 400.2033 110.61167 401.0943 110.83442 L 414.81146 114.26371 C 415.9731 114.55412 417.1557 114.75338 418.34836 114.85966 L 435.8745 116.4214 C 436.46235 116.47378 437.052 116.50351 437.64213 116.51054 L 453.12105 116.69481 C 453.4114 116.69827 453.7018 116.69623 453.99204 116.68869 L 468.41535 116.31406 C 468.77614 116.30468 469.13665 116.28682 469.4966 116.26049 L 483.8679 115.20893 C 484.8593 115.13638 485.845 114.99964 486.81875 114.79955 L 498.3917 112.42155 C 499.4337 112.20744 500.4596 111.9213 501.462 111.56518 L 513.214 107.39013 C 514.3044 107.00276 515.5076 107.53354 515.9566 108.6 L 515.9566 108.6 C 516.47875 109.8401 516.63074 111.20485 516.3942 112.52945 L 516.2137 113.54013 C 515.90995 115.24129 515.4154 116.90279 514.7395 118.49318 L 513.1963 122.1243 C 512.6377 123.43858 511.95795 124.69797 511.1658 125.88617 L 507.48004 131.41485 C 506.7325 132.53611 505.8879 133.58951 504.95597 134.56289 L 498.6609 141.13773 C 497.7928 142.04439 496.852 142.87846 495.8478 143.63159 L 487.4729 149.91277 C 486.5965 150.57008 485.67423 151.16394 484.7132 151.6898 L 477.528 155.62132 C 476.21685 156.33873 474.8389 156.92663 473.41373 157.3767 L 466.7408 159.48393 C 465.02395 160.0261 463.24935 160.3648 461.4535 160.49308 L 454.56703 160.98497 C 453.49473 161.06156 452.4184 161.06288 451.3459 160.98891 L 442.90964 160.4071 C 441.87547 160.33578 440.8473 160.19462 439.83216 159.9846 L 432.69696 158.50835 C 430.745 158.1045 428.85383 157.44861 427.07097 156.55718 L 422.41156 154.22748 C 421.17743 153.61041 420.0013 152.88354 418.8975 152.05565 L 413.2155 147.79418 C 412.7764 147.46483 412.3492 147.11986 411.93472 146.75995 L 406.17954 141.76202 C 405.36526 141.05488 404.6017 140.29134 403.89458 139.47706 L 399.48935 134.40437 C 398.73525 133.53601 398.04734 132.61231 397.4314 131.64105 L 393.6977 125.75328 C 393.33715 125.1847 393.0017 124.60056 392.6924 124.00255 L 391.07203 120.86982 C 390.4629 119.69214 389.9567 118.464 389.5592 117.19911 L 388.27894 113.12562 C 388.06417 112.44224 387.88143 111.74921 387.73134 111.04878 L 387.6566 110.7 C 387.46194 109.79157 387.5692 108.84443 387.9621 108.00254 L 388.0566 107.8 C 388.4511 106.95469 389.43155 106.5577 390.303 106.89044 Z" fill="url(#Obj_Gradient)"/>
      <path d="M 390.303 106.89044 L 398.46846 110.00816 C 399.32645 110.33576 400.2033 110.61167 401.0943 110.83442 L 414.81146 114.26371 C 415.9731 114.55412 417.1557 114.75338 418.34836 114.85966 L 435.8745 116.4214 C 436.46235 116.47378 437.052 116.50351 437.64213 116.51054 L 453.12105 116.69481 C 453.4114 116.69827 453.7018 116.69623 453.99204 116.68869 L 468.41535 116.31406 C 468.77614 116.30468 469.13665 116.28682 469.4966 116.26049 L 483.8679 115.20893 C 484.8593 115.13638 485.845 114.99964 486.81875 114.79955 L 498.3917 112.42155 C 499.4337 112.20744 500.4596 111.9213 501.462 111.56518 L 513.214 107.39013 C 514.3044 107.00276 515.5076 107.53354 515.9566 108.6 L 515.9566 108.6 C 516.47875 109.8401 516.63074 111.20485 516.3942 112.52945 L 516.2137 113.54013 C 515.90995 115.24129 515.4154 116.90279 514.7395 118.49318 L 513.1963 122.1243 C 512.6377 123.43858 511.95795 124.69797 511.1658 125.88617 L 507.48004 131.41485 C 506.7325 132.53611 505.8879 133.58951 504.95597 134.56289 L 498.6609 141.13773 C 497.7928 142.04439 496.852 142.87846 495.8478 143.63159 L 487.4729 149.91277 C 486.5965 150.57008 485.67423 151.16394 484.7132 151.6898 L 477.528 155.62132 C 476.21685 156.33873 474.8389 156.92663 473.41373 157.3767 L 466.7408 159.48393 C 465.02395 160.0261 463.24935 160.3648 461.4535 160.49308 L 454.56703 160.98497 C 453.49473 161.06156 452.4184 161.06288 451.3459 160.98891 L 442.90964 160.4071 C 441.87547 160.33578 440.8473 160.19462 439.83216 159.9846 L 432.69696 158.50835 C 430.745 158.1045 428.85383 157.44861 427.07097 156.55718 L 422.41156 154.22748 C 421.17743 153.61041 420.0013 152.88354 418.8975 152.05565 L 413.2155 147.79418 C 412.7764 147.46483 412.3492 147.11986 411.93472 146.75995 L 406.17954 141.76202 C 405.36526 141.05488 404.6017 140.29134 403.89458 139.47706 L 399.48935 134.40437 C 398.73525 133.53601 398.04734 132.61231 397.4314 131.64105 L 393.6977 125.75328 C 393.33715 125.1847 393.0017 124.60056 392.6924 124.00255 L 391.07203 120.86982 C 390.4629 119.69214 389.9567 118.464 389.5592 117.19911 L 388.27894 113.12562 C 388.06417 112.44224 387.88143 111.74921 387.73134 111.04878 L 387.6566 110.7 C 387.46194 109.79157 387.5692 108.84443 387.9621 108.00254 L 388.0566 107.8 C 388.4511 106.95469 389.43155 106.5577 390.303 106.89044 Z" stroke="#7f8080" stroke-linecap="round" stroke-linejoin="round" stroke-width="1"/>
      <path d="M 326.2708 543.5638 L 340.01305 545.85416 C 340.19643 545.8847 340.38032 545.9121 340.56465 545.93624 L 368.9183 549.65154 C 369.16482 549.68384 369.41207 549.7104 369.65984 549.7312 L 399.90273 552.2677 C 400.15963 552.2892 400.417 552.30456 400.67466 552.3137 L 439.6056 553.69 C 439.79394 553.6967 439.9824 553.7 440.1709 553.7 L 471.6382 553.7 C 471.8048 553.7 471.9714 553.6974 472.13796 553.6922 L 497.17274 552.90986 C 497.383 552.9033 497.5931 552.8926 497.8029 552.8777 L 519.85066 551.3168 C 520.009 551.3056 520.1671 551.29205 520.325 551.2761 L 545.5855 548.7305 C 545.78724 548.7102 545.9886 548.686 546.1894 548.658 L 569.9821 545.34265 C 570.1861 545.3142 570.38955 545.28186 570.5923 545.2456 L 579.78814 543.6 C 585.11524 542.6467 588.7661 537.6931 588.0997 532.32255 L 585.8921 514.532 C 585.88946 514.51066 585.88686 514.48934 585.8843 514.468 L 582.3205 484.7695 C 582.2989 484.58984 582.2804 484.40985 582.26496 484.2296 L 579.90274 456.67037 C 579.893 456.5568 579.8845 456.4431 579.8772 456.32936 L 578.49056 434.7377 C 578.48895 434.71257 578.4873 434.68743 578.48554 434.6623 L 576.8934 411.576 C 576.8899 411.52533 576.88663 411.47466 576.8836 411.42397 L 575.70726 391.6218 C 575.6945 391.4073 575.6861 391.19254 575.682 390.9777 L 575.2897 370.38285 C 575.2887 370.3276 575.2873 370.2724 575.2857 370.21717 L 574.6906 349.98283 C 574.68895 349.9276 574.6876 349.8724 574.68656 349.81715 L 574.2959 329.3076 C 574.2907 329.0359 574.2925 328.76413 574.30114 328.49252 L 574.8871 310.1329 C 574.8878 310.11097 574.88854 310.08903 574.8893 310.0671 L 575.6774 288.19778 C 575.68456 287.99928 575.6954 287.80092 575.70995 287.60282 L 577.2674 266.3822 C 577.28124 266.19408 577.2917 266.00573 577.29886 265.81724 L 578.0533 245.91837 C 578.0765 245.30662 578.1348 244.6967 578.2279 244.09165 L 580.9669 226.28813 C 581.0477 225.76303 581.15455 225.24229 581.28715 224.72782 L 585.9154 206.77017 C 586.0305 206.3236 586.16486 205.8822 586.3181 205.44724 L 592.0389 189.2076 C 592.20496 188.73613 592.39305 188.2727 592.6025 187.81882 L 598.1341 175.83378 C 598.2368 175.61129 598.34456 175.39118 598.45736 175.17364 L 603.8196 164.83221 C 603.8653 164.74407 603.9118 164.65636 603.95915 164.56908 L 609.1751 154.95212 C 609.9124 153.59276 610.862 152.35986 611.98814 151.3 L 611.98814 151.3 C 612.6633 150.66452 612.6955 149.60202 612.06006 148.92683 C 611.93556 148.79456 611.7904 148.68336 611.6303 148.59759 L 608.4162 146.87573 C 608.1975 146.75859 607.97616 146.64655 607.7523 146.53971 L 599.8983 142.79122 C 599.4917 142.59716 599.0771 142.42036 598.6556 142.26129 L 588.9807 138.61041 C 588.7857 138.5368 588.5892 138.46703 588.39146 138.4011 L 575.697 134.16961 C 575.55776 134.1232 575.4179 134.07871 575.27746 134.03615 L 562.39394 130.13206 C 562.3234 130.11068 562.253 130.08882 562.1828 130.06648 L 549.6788 126.08793 C 549.2852 125.96269 548.89655 125.82225 548.5138 125.66693 L 536.53784 120.80712 C 535.7062 120.46964 534.9044 120.06277 534.14096 119.59083 L 524.5217 113.64439 C 524.366 113.54813 524.212 113.44922 524.05966 113.34768 L 519.16956 110.08761 C 518.1882 109.43335 517.31685 108.62745 516.58814 107.7 L 516.58814 107.7 C 516.48254 107.56559 516.288 107.54224 516.15357 107.64785 C 516.0508 107.72857 516.00985 107.86512 516.05117 107.98908 L 516.18814 108.4 C 516.6474 109.77775 516.75195 111.24903 516.49216 112.67789 L 516.097 114.85115 C 515.8258 116.34281 515.34396 117.78835 514.66594 119.1444 L 513.1336 122.20904 C 512.8369 122.80244 512.5036 123.3768 512.1356 123.92882 L 508.9319 128.73438 C 508.5033 129.37728 508.0287 129.98829 507.5118 130.56261 L 502.94974 135.63155 C 502.9087 135.67718 502.86734 135.72257 502.82576 135.76773 L 496.8315 142.27575 C 496.2038 142.9573 495.51804 143.58302 494.782 144.14587 L 489.7578 147.98788 C 489.3117 148.32906 488.8479 148.6465 488.36834 148.9389 L 481.88194 152.89402 C 481.2203 153.29747 480.5302 153.65232 479.8171 153.95576 L 472.7017 156.9836 C 471.894 157.32728 471.05945 157.60392 470.2064 157.81072 L 466.12735 158.79958 C 465.3025 158.99954 464.4631 159.13355 463.617 159.20035 L 457.9168 159.65037 C 457.49785 159.68344 457.0778 159.7 456.65754 159.7 L 449.6252 159.7 C 448.8681 159.7 448.112 159.64626 447.3625 159.53919 L 439.41603 158.40398 C 438.93103 158.3347 438.44946 158.24317 437.97285 158.12969 L 432.0116 156.71035 C 430.86613 156.43762 429.75425 156.03926 428.6962 155.52253 L 422.4162 152.45555 C 421.93113 152.21867 421.4584 151.95739 420.99974 151.67271 L 416.78788 149.05845 C 416.1887 148.68656 415.6148 148.27545 415.06985 147.82783 L 410.62374 144.17567 C 410.40005 143.99192 410.1814 143.80214 409.968 143.60652 L 406.16564 140.12104 C 405.71434 139.70735 405.28716 139.2681 404.8862 138.80546 L 400.76746 134.05306 C 400.4481 133.68454 400.1457 133.30162 399.8613 132.90548 L 395.43165 126.7356 C 394.93676 126.0463 394.4975 125.3187 394.118 124.55972 L 391.54153 119.40679 C 391.50594 119.3356 391.47087 119.26414 391.43634 119.19242 L 390.18814 116.6 C 389.3374 114.83313 388.9819 112.86859 389.15944 110.91564 L 389.33965 108.93338 C 389.36345 108.67152 389.17047 108.43994 388.9086 108.41614 C 388.7462 108.40137 388.58756 108.47075 388.48814 108.6 L 388.48814 108.6 C 387.8247 109.46248 387.0446 110.22856 386.1702 110.87624 L 382.27367 113.76256 C 382.15 113.85418 382.025 113.94401 381.8987 114.03202 L 377.27646 117.25359 C 376.08973 118.0807 374.7963 118.74307 373.43156 119.22258 L 368.82443 120.8413 C 368.33386 121.01366 367.852 121.20984 367.3805 121.42912 L 360.53373 124.61367 C 359.83757 124.93747 359.119 125.21074 358.3836 125.43136 L 347.5132 128.69247 C 347.4965 128.69749 347.4798 128.70253 347.4631 128.7076 L 336.495 132.0372 C 336.3571 132.07906 336.21977 132.12279 336.08305 132.16836 L 323.1618 136.47544 C 323.1127 136.49181 323.0635 136.50795 323.01422 136.52384 L 311.6468 140.19075 C 311.00833 140.39671 310.38343 140.64263 309.7758 140.92704 L 301.84385 144.63988 C 301.4735 144.81323 301.10995 145.00071 300.75398 145.20191 L 294.80786 148.56276 C 293.55483 149.271 293.11318 150.86092 293.82142 152.11396 C 293.89854 152.2504 293.9878 152.3796 294.08814 152.5 L 294.95225 153.53693 C 295.7072 154.44287 296.35967 155.42949 296.8978 156.47881 L 299.97492 162.47923 C 300.0504 162.6264 300.12814 162.77239 300.20814 162.91715 L 304.1629 170.07336 C 304.2464 170.22444 304.32742 170.37686 304.406 170.53057 L 308.5143 178.56855 C 308.76336 179.05586 308.98726 179.55563 309.1851 180.06588 L 312.6679 189.04776 C 312.6814 189.08259 312.695 189.11736 312.70876 189.1521 L 316.30508 198.23754 C 316.4271 198.54577 316.5395 198.85772 316.6421 199.17294 L 319.26395 207.22571 C 319.28007 207.27524 319.29596 207.32484 319.3116 207.37452 L 322.38364 217.13279 C 322.58644 217.77695 322.74824 218.4333 322.8681 219.0979 L 324.8534 230.10737 C 324.87656 230.23578 324.89814 230.36448 324.91815 230.49342 L 326.62402 241.4868 C 326.66676 241.76222 326.7023 242.0387 326.7306 242.31598 L 327.618 251.0127 C 327.66474 251.47068 327.6917 251.93048 327.69876 252.3908 L 327.883 264.3664 C 327.88643 264.58878 327.8945 264.81105 327.90717 265.03308 L 328.67755 278.51465 C 328.6846 278.6382 328.6931 278.7617 328.70303 278.88506 L 330.0366 295.45943 C 330.07094 295.8863 330.08814 296.3144 330.08814 296.74264 L 330.08814 309.19242 C 330.08814 309.39745 330.09208 309.60247 330.09996 309.80735 L 330.6803 324.8965 C 330.68553 325.03216 330.689 325.1679 330.6908 325.30364 L 330.88294 340.0999 C 330.8864 340.3666 330.8832 340.63333 330.87333 340.89986 L 330.2991 356.404 C 330.2918 356.6013 330.28814 356.79875 330.28814 356.9962 L 330.28814 370.5924 C 330.28814 370.79746 330.2842 371.00247 330.2763 371.20735 L 329.69112 386.42235 C 329.68913 386.4741 329.6869 386.52587 329.6844 386.5776 L 328.88907 403.08055 C 328.88845 403.0935 328.8878 403.1065 328.88715 403.11945 L 328.09266 418.8106 C 328.08965 418.8702 328.0863 418.9298 328.0826 418.98933 L 326.8937 438.21006 C 326.89 438.27 326.88594 438.32996 326.88156 438.38987 L 325.09842 462.7594 C 325.09157 462.85314 325.0839 462.9468 325.07537 463.0404 L 323.2895 482.6852 C 323.2886 482.69507 323.28768 482.70494 323.28676 482.7148 L 321.516 501.7997 C 321.49743 501.9999 321.4751 502.1997 321.44898 502.399 L 319.48827 517.37175 C 319.35545 518.38594 319.0863 519.37756 318.68814 520.3197 L 318.68814 520.3197 C 318.29056 521.2605 318.0419 522.2574 317.95107 523.27465 L 317.18814 531.8197 C 316.68038 537.50676 320.63885 542.6251 326.2708 543.5638 Z" fill="url(#Obj_Gradient_2)"/>
      <path d="M 326.2708 543.5638 L 340.01305 545.85416 C 340.19643 545.8847 340.38032 545.9121 340.56465 545.93624 L 368.9183 549.65154 C 369.16482 549.68384 369.41207 549.7104 369.65984 549.7312 L 399.90273 552.2677 C 400.15963 552.2892 400.417 552.30456 400.67466 552.3137 L 439.6056 553.69 C 439.79394 553.6967 439.9824 553.7 440.1709 553.7 L 471.6382 553.7 C 471.8048 553.7 471.9714 553.6974 472.13796 553.6922 L 497.17274 552.90986 C 497.383 552.9033 497.5931 552.8926 497.8029 552.8777 L 519.85066 551.3168 C 520.009 551.3056 520.1671 551.29205 520.325 551.2761 L 545.5855 548.7305 C 545.78724 548.7102 545.9886 548.686 546.1894 548.658 L 569.9821 545.34265 C 570.1861 545.3142 570.38955 545.28186 570.5923 545.2456 L 579.78814 543.6 C 585.11524 542.6467 588.7661 537.6931 588.0997 532.32255 L 585.8921 514.532 C 585.88946 514.51066 585.88686 514.48934 585.8843 514.468 L 582.3205 484.7695 C 582.2989 484.58984 582.2804 484.40985 582.26496 484.2296 L 579.90274 456.67037 C 579.893 456.5568 579.8845 456.4431 579.8772 456.32936 L 578.49056 434.7377 C 578.48895 434.71257 578.4873 434.68743 578.48554 434.6623 L 576.8934 411.576 C 576.8899 411.52533 576.88663 411.47466 576.8836 411.42397 L 575.70726 391.6218 C 575.6945 391.4073 575.6861 391.19254 575.682 390.9777 L 575.2897 370.38285 C 575.2887 370.3276 575.2873 370.2724 575.2857 370.21717 L 574.6906 349.98283 C 574.68895 349.9276 574.6876 349.8724 574.68656 349.81715 L 574.2959 329.3076 C 574.2907 329.0359 574.2925 328.76413 574.30114 328.49252 L 574.8871 310.1329 C 574.8878 310.11097 574.88854 310.08903 574.8893 310.0671 L 575.6774 288.19778 C 575.68456 287.99928 575.6954 287.80092 575.70995 287.60282 L 577.2674 266.3822 C 577.28124 266.19408 577.2917 266.00573 577.29886 265.81724 L 578.0533 245.91837 C 578.0765 245.30662 578.1348 244.6967 578.2279 244.09165 L 580.9669 226.28813 C 581.0477 225.76303 581.15455 225.24229 581.28715 224.72782 L 585.9154 206.77017 C 586.0305 206.3236 586.16486 205.8822 586.3181 205.44724 L 592.0389 189.2076 C 592.20496 188.73613 592.39305 188.2727 592.6025 187.81882 L 598.1341 175.83378 C 598.2368 175.61129 598.34456 175.39118 598.45736 175.17364 L 603.8196 164.83221 C 603.8653 164.74407 603.9118 164.65636 603.95915 164.56908 L 609.1751 154.95212 C 609.9124 153.59276 610.862 152.35986 611.98814 151.3 L 611.98814 151.3 C 612.6633 150.66452 612.6955 149.60202 612.06006 148.92683 C 611.93556 148.79456 611.7904 148.68336 611.6303 148.59759 L 608.4162 146.87573 C 608.1975 146.75859 607.97616 146.64655 607.7523 146.53971 L 599.8983 142.79122 C 599.4917 142.59716 599.0771 142.42036 598.6556 142.26129 L 588.9807 138.61041 C 588.7857 138.5368 588.5892 138.46703 588.39146 138.4011 L 575.697 134.16961 C 575.55776 134.1232 575.4179 134.07871 575.27746 134.03615 L 562.39394 130.13206 C 562.3234 130.11068 562.253 130.08882 562.1828 130.06648 L 549.6788 126.08793 C 549.2852 125.96269 548.89655 125.82225 548.5138 125.66693 L 536.53784 120.80712 C 535.7062 120.46964 534.9044 120.06277 534.14096 119.59083 L 524.5217 113.64439 C 524.366 113.54813 524.212 113.44922 524.05966 113.34768 L 519.16956 110.08761 C 518.1882 109.43335 517.31685 108.62745 516.58814 107.7 L 516.58814 107.7 C 516.48254 107.56559 516.288 107.54224 516.15357 107.64785 C 516.0508 107.72857 516.00985 107.86512 516.05117 107.98908 L 516.18814 108.4 C 516.6474 109.77775 516.75195 111.24903 516.49216 112.67789 L 516.097 114.85115 C 515.8258 116.34281 515.34396 117.78835 514.66594 119.1444 L 513.1336 122.20904 C 512.8369 122.80244 512.5036 123.3768 512.1356 123.92882 L 508.9319 128.73438 C 508.5033 129.37728 508.0287 129.98829 507.5118 130.56261 L 502.94974 135.63155 C 502.9087 135.67718 502.86734 135.72257 502.82576 135.76773 L 496.8315 142.27575 C 496.2038 142.9573 495.51804 143.58302 494.782 144.14587 L 489.7578 147.98788 C 489.3117 148.32906 488.8479 148.6465 488.36834 148.9389 L 481.88194 152.89402 C 481.2203 153.29747 480.5302 153.65232 479.8171 153.95576 L 472.7017 156.9836 C 471.894 157.32728 471.05945 157.60392 470.2064 157.81072 L 466.12735 158.79958 C 465.3025 158.99954 464.4631 159.13355 463.617 159.20035 L 457.9168 159.65037 C 457.49785 159.68344 457.0778 159.7 456.65754 159.7 L 449.6252 159.7 C 448.8681 159.7 448.112 159.64626 447.3625 159.53919 L 439.41603 158.40398 C 438.93103 158.3347 438.44946 158.24317 437.97285 158.12969 L 432.0116 156.71035 C 430.86613 156.43762 429.75425 156.03926 428.6962 155.52253 L 422.4162 152.45555 C 421.93113 152.21867 421.4584 151.95739 420.99974 151.67271 L 416.78788 149.05845 C 416.1887 148.68656 415.6148 148.27545 415.06985 147.82783 L 410.62374 144.17567 C 410.40005 143.99192 410.1814 143.80214 409.968 143.60652 L 406.16564 140.12104 C 405.71434 139.70735 405.28716 139.2681 404.8862 138.80546 L 400.76746 134.05306 C 400.4481 133.68454 400.1457 133.30162 399.8613 132.90548 L 395.43165 126.7356 C 394.93676 126.0463 394.4975 125.3187 394.118 124.55972 L 391.54153 119.40679 C 391.50594 119.3356 391.47087 119.26414 391.43634 119.19242 L 390.18814 116.6 C 389.3374 114.83313 388.9819 112.86859 389.15944 110.91564 L 389.33965 108.93338 C 389.36345 108.67152 389.17047 108.43994 388.9086 108.41614 C 388.7462 108.40137 388.58756 108.47075 388.48814 108.6 L 388.48814 108.6 C 387.8247 109.46248 387.0446 110.22856 386.1702 110.87624 L 382.27367 113.76256 C 382.15 113.85418 382.025 113.94401 381.8987 114.03202 L 377.27646 117.25359 C 376.08973 118.0807 374.7963 118.74307 373.43156 119.22258 L 368.82443 120.8413 C 368.33386 121.01366 367.852 121.20984 367.3805 121.42912 L 360.53373 124.61367 C 359.83757 124.93747 359.119 125.21074 358.3836 125.43136 L 347.5132 128.69247 C 347.4965 128.69749 347.4798 128.70253 347.4631 128.7076 L 336.495 132.0372 C 336.3571 132.07906 336.21977 132.12279 336.08305 132.16836 L 323.1618 136.47544 C 323.1127 136.49181 323.0635 136.50795 323.01422 136.52384 L 311.6468 140.19075 C 311.00833 140.39671 310.38343 140.64263 309.7758 140.92704 L 301.84385 144.63988 C 301.4735 144.81323 301.10995 145.00071 300.75398 145.20191 L 294.80786 148.56276 C 293.55483 149.271 293.11318 150.86092 293.82142 152.11396 C 293.89854 152.2504 293.9878 152.3796 294.08814 152.5 L 294.95225 153.53693 C 295.7072 154.44287 296.35967 155.42949 296.8978 156.47881 L 299.97492 162.47923 C 300.0504 162.6264 300.12814 162.77239 300.20814 162.91715 L 304.1629 170.07336 C 304.2464 170.22444 304.32742 170.37686 304.406 170.53057 L 308.5143 178.56855 C 308.76336 179.05586 308.98726 179.55563 309.1851 180.06588 L 312.6679 189.04776 C 312.6814 189.08259 312.695 189.11736 312.70876 189.1521 L 316.30508 198.23754 C 316.4271 198.54577 316.5395 198.85772 316.6421 199.17294 L 319.26395 207.22571 C 319.28007 207.27524 319.29596 207.32484 319.3116 207.37452 L 322.38364 217.13279 C 322.58644 217.77695 322.74824 218.4333 322.8681 219.0979 L 324.8534 230.10737 C 324.87656 230.23578 324.89814 230.36448 324.91815 230.49342 L 326.62402 241.4868 C 326.66676 241.76222 326.7023 242.0387 326.7306 242.31598 L 327.618 251.0127 C 327.66474 251.47068 327.6917 251.93048 327.69876 252.3908 L 327.883 264.3664 C 327.88643 264.58878 327.8945 264.81105 327.90717 265.03308 L 328.67755 278.51465 C 328.6846 278.6382 328.6931 278.7617 328.70303 278.88506 L 330.0366 295.45943 C 330.07094 295.8863 330.08814 296.3144 330.08814 296.74264 L 330.08814 309.19242 C 330.08814 309.39745 330.09208 309.60247 330.09996 309.80735 L 330.6803 324.8965 C 330.68553 325.03216 330.689 325.1679 330.6908 325.30364 L 330.88294 340.0999 C 330.8864 340.3666 330.8832 340.63333 330.87333 340.89986 L 330.2991 356.404 C 330.2918 356.6013 330.28814 356.79875 330.28814 356.9962 L 330.28814 370.5924 C 330.28814 370.79746 330.2842 371.00247 330.2763 371.20735 L 329.69112 386.42235 C 329.68913 386.4741 329.6869 386.52587 329.6844 386.5776 L 328.88907 403.08055 C 328.88845 403.0935 328.8878 403.1065 328.88715 403.11945 L 328.09266 418.8106 C 328.08965 418.8702 328.0863 418.9298 328.0826 418.98933 L 326.8937 438.21006 C 326.89 438.27 326.88594 438.32996 326.88156 438.38987 L 325.09842 462.7594 C 325.09157 462.85314 325.0839 462.9468 325.07537 463.0404 L 323.2895 482.6852 C 323.2886 482.69507 323.28768 482.70494 323.28676 482.7148 L 321.516 501.7997 C 321.49743 501.9999 321.4751 502.1997 321.44898 502.399 L 319.48827 517.37175 C 319.35545 518.38594 319.0863 519.37756 318.68814 520.3197 L 318.68814 520.3197 C 318.29056 521.2605 318.0419 522.2574 317.95107 523.27465 L 317.18814 531.8197 C 316.68038 537.50676 320.63885 542.6251 326.2708 543.5638 Z" stroke="#7f8080" stroke-linecap="round" stroke-linejoin="round" stroke-width="1"/>
      <path d="M 237.29736 257.74614 L 243.49736 262.14614 L 251.69736 266.14614 L 260.29736 269.74614 L 269.29736 273.54614 L 280.29736 277.54614 L 289.69736 280.34614 L 298.69736 282.94614 L 307.69736 285.54614 L 313.09736 286.94614 L 318.69736 287.94614 L 321.09736 282.14614 L 323.69736 276.74614 L 325.89736 272.74614 L 328.49736 269.34614 L 328.69736 260.34614 L 328.09736 249.34614 L 326.29736 238.54614 L 324.69736 228.14614 L 322.09736 217.14614 L 319.69736 207.54614 L 316.89736 199.54614 L 313.69736 190.14614 L 310.89736 182.74614 L 307.29736 175.14614 L 303.29736 167.54614 L 299.29736 160.14614 L 296.69736 156.54614 L 293.09736 150.74614 L 287.69736 155.14614 L 282.89736 159.94614 L 278.29736 166.14614 L 273.89736 172.34614 L 269.09736 180.94614 L 264.29736 190.34614 L 259.49736 199.54614 L 255.89736 208.14614 L 251.89736 217.14614 L 248.69736 225.34614 L 244.89736 234.74614 L 242.09736 242.74614 L 239.09736 251.14614 Z" fill="#00007d"/>
      <path d="M 237.29736 257.74614 L 243.49736 262.14614 L 251.69736 266.14614 L 260.29736 269.74614 L 269.29736 273.54614 L 280.29736 277.54614 L 289.69736 280.34614 L 298.69736 282.94614 L 307.69736 285.54614 L 313.09736 286.94614 L 318.69736 287.94614 L 321.09736 282.14614 L 323.69736 276.74614 L 325.89736 272.74614 L 328.49736 269.34614 L 328.69736 260.34614 L 328.09736 249.34614 L 326.29736 238.54614 L 324.69736 228.14614 L 322.09736 217.14614 L 319.69736 207.54614 L 316.89736 199.54614 L 313.69736 190.14614 L 310.89736 182.74614 L 307.29736 175.14614 L 303.29736 167.54614 L 299.29736 160.14614 L 296.69736 156.54614 L 293.09736 150.74614 L 287.69736 155.14614 L 282.89736 159.94614 L 278.29736 166.14614 L 273.89736 172.34614 L 269.09736 180.94614 L 264.29736 190.34614 L 259.49736 199.54614 L 255.89736 208.14614 L 251.89736 217.14614 L 248.69736 225.34614 L 244.89736 234.74614 L 242.09736 242.74614 L 239.09736 251.14614 Z" stroke="#7f8080" stroke-linecap="round" stroke-linejoin="round" stroke-width="1"/>
      <path d="M 668.70264 256.80275 L 662.50264 261.20275 L 654.30264 265.20275 L 645.70264 268.80275 L 636.70264 272.60275 L 625.70264 276.60275 L 616.30264 279.40275 L 607.30264 282.00275 L 598.30264 284.60275 L 592.90264 286.00275 L 587.30264 287.00275 L 584.90264 281.20275 L 582.30264 275.80275 L 580.10264 271.80275 L 577.50264 268.40275 L 577.30264 259.40275 L 577.90264 248.40275 L 579.70264 237.60275 L 581.30264 227.20275 L 583.90264 216.20275 L 586.30264 206.60275 L 589.10264 198.60275 L 592.30264 189.20275 L 595.10264 181.80274 L 598.70264 174.20274 L 602.70264 166.60274 L 606.70264 159.20274 L 609.30264 155.60274 L 612.90264 149.80274 L 618.30264 154.20274 L 623.10264 159.00274 L 627.70264 165.20274 L 632.10264 171.40274 L 636.90264 180.00274 L 641.70264 189.40275 L 646.50264 198.60275 L 650.10264 207.20275 L 654.10264 216.20275 L 657.30264 224.40275 L 661.10264 233.80275 L 663.90264 241.80275 L 666.90264 250.20275 Z" fill="#000079"/>
      <path d="M 668.70264 256.80275 L 662.50264 261.20275 L 654.30264 265.20275 L 645.70264 268.80275 L 636.70264 272.60275 L 625.70264 276.60275 L 616.30264 279.40275 L 607.30264 282.00275 L 598.30264 284.60275 L 592.90264 286.00275 L 587.30264 287.00275 L 584.90264 281.20275 L 582.30264 275.80275 L 580.10264 271.80275 L 577.50264 268.40275 L 577.30264 259.40275 L 577.90264 248.40275 L 579.70264 237.60275 L 581.30264 227.20275 L 583.90264 216.20275 L 586.30264 206.60275 L 589.10264 198.60275 L 592.30264 189.20275 L 595.10264 181.80274 L 598.70264 174.20274 L 602.70264 166.60274 L 606.70264 159.20274 L 609.30264 155.60274 L 612.90264 149.80274 L 618.30264 154.20274 L 623.10264 159.00274 L 627.70264 165.20274 L 632.10264 171.40274 L 636.90264 180.00274 L 641.70264 189.40275 L 646.50264 198.60275 L 650.10264 207.20275 L 654.10264 216.20275 L 657.30264 224.40275 L 661.10264 233.80275 L 663.90264 241.80275 L 666.90264 250.20275 Z" stroke="#7f8080" stroke-linecap="round" stroke-linejoin="round" stroke-width="1"/>
      <path d="M 237.29736 257.74614 L 243.49736 262.14614 L 251.69736 266.14614 L 260.29736 269.74614 L 269.29736 273.54614 L 280.29736 277.54614 L 289.69736 280.34614 L 298.69736 282.94614 L 307.69736 285.54614 L 313.09736 286.94614 L 318.69736 287.94614 L 321.69736 281.54614 L 317.89736 280.74614 L 313.09736 279.54614 L 307.49736 278.34614 L 301.49736 276.54614 L 296.89736 275.14614 L 292.69736 273.94614 L 288.09736 271.94614 L 283.49736 270.34614 L 278.69736 268.34614 L 274.69736 266.94614 L 269.49736 264.74614 L 264.89736 263.14614 L 260.09736 260.94614 L 255.29736 259.14614 L 251.29736 257.14614 L 246.89736 254.94614 L 242.49736 252.74614 L 239.09736 251.14614 Z" fill="url(#Obj_Gradient_3)"/>
      <path d="M 237.29736 257.74614 L 243.49736 262.14614 L 251.69736 266.14614 L 260.29736 269.74614 L 269.29736 273.54614 L 280.29736 277.54614 L 289.69736 280.34614 L 298.69736 282.94614 L 307.69736 285.54614 L 313.09736 286.94614 L 318.69736 287.94614 L 321.69736 281.54614 L 317.89736 280.74614 L 313.09736 279.54614 L 307.49736 278.34614 L 301.49736 276.54614 L 296.89736 275.14614 L 292.69736 273.94614 L 288.09736 271.94614 L 283.49736 270.34614 L 278.69736 268.34614 L 274.69736 266.94614 L 269.49736 264.74614 L 264.89736 263.14614 L 260.09736 260.94614 L 255.29736 259.14614 L 251.29736 257.14614 L 246.89736 254.94614 L 242.49736 252.74614 L 239.09736 251.14614 Z" stroke="#7f8080" stroke-linecap="round" stroke-linejoin="round" stroke-width="1"/>
      <path d="M 668.70264 256.80275 L 662.50264 261.20275 L 654.30264 265.20275 L 645.70264 268.80275 L 636.70264 272.60275 L 625.70264 276.60275 L 616.30264 279.40275 L 607.30264 282.00275 L 598.30264 284.60275 L 592.90264 286.00275 L 587.30264 287.00275 L 584.30264 280.60275 L 588.10264 279.80275 L 592.90264 278.60275 L 598.50264 277.40275 L 604.50264 275.60275 L 609.10264 274.20275 L 613.30264 273.00275 L 617.90264 271.00275 L 622.50264 269.40275 L 627.30264 267.40275 L 631.30264 266.00275 L 636.50264 263.80275 L 641.10264 262.20275 L 645.90264 260.00275 L 650.70264 258.20275 L 654.70264 256.20275 L 659.10264 254.00275 L 663.50264 251.80275 L 666.90264 250.20275 Z" fill="url(#Obj_Gradient_4)"/>
      <path d="M 668.70264 256.80275 L 662.50264 261.20275 L 654.30264 265.20275 L 645.70264 268.80275 L 636.70264 272.60275 L 625.70264 276.60275 L 616.30264 279.40275 L 607.30264 282.00275 L 598.30264 284.60275 L 592.90264 286.00275 L 587.30264 287.00275 L 584.30264 280.60275 L 588.10264 279.80275 L 592.90264 278.60275 L 598.50264 277.40275 L 604.50264 275.60275 L 609.10264 274.20275 L 613.30264 273.00275 L 617.90264 271.00275 L 622.50264 269.40275 L 627.30264 267.40275 L 631.30264 266.00275 L 636.50264 263.80275 L 641.10264 262.20275 L 645.90264 260.00275 L 650.70264 258.20275 L 654.70264 256.20275 L 659.10264 254.00275 L 663.50264 251.80275 L 666.90264 250.20275 Z" stroke="#7f8080" stroke-linecap="round" stroke-linejoin="round" stroke-width="1"/>
      <path d="M 387.86948 108.26379 L 383.1403 112.31736 C 381.98996 113.30337 380.745 114.1733 379.42357 114.91448 L 376.89693 116.33165 C 375.46176 117.13662 374.88096 118.90575 375.55974 120.40473 L 376.57736 122.65197 C 376.69894 122.92045 376.82567 123.18658 376.95748 123.45019 L 378.75975 127.05473 L 381.24673 132.0287 C 381.58853 132.7123 381.9642 133.37843 382.3723 134.02462 L 384.6987 137.70808 C 385.13908 138.40534 385.61664 139.07842 386.1293 139.72438 L 389.54 144.02184 C 390.08605 144.70987 390.67107 145.36605 391.2922 145.98716 L 395.9582 150.6532 C 396.3591 151.05409 396.77467 151.44 397.20406 151.81018 L 401.7676 155.74425 C 402.16225 156.08447 402.56835 156.41119 402.9852 156.72382 L 406.96014 159.70503 C 407.62605 160.20446 408.3186 160.66738 409.0347 161.09173 L 413.16775 163.54096 C 413.29574 163.6168 413.42447 163.69141 413.5539 163.76476 L 418.25146 166.4267 C 418.98975 166.84507 419.75063 167.22225 420.5306 167.55653 L 424.0804 169.07788 C 424.6664 169.329 425.26254 169.55566 425.86733 169.75726 L 430.88544 171.42996 C 432.1327 171.84571 433.4133 172.15375 434.71315 172.3507 L 438.812 172.97174 C 439.1771 173.02706 439.5435 173.07358 439.91086 173.11126 L 446.79196 173.81701 C 447.03714 173.84216 447.2827 173.86336 447.52856 173.88061 L 452.0557 174.1983 C 452.59156 174.23591 453.1286 174.25473 453.66576 174.25473 L 456.9278 174.25473 C 457.8815 174.25473 458.8343 174.19542 459.7806 174.07712 L 463.76934 173.57853 C 464.4293 173.49604 465.0854 173.38496 465.7357 173.2456 L 471.81774 171.9423 C 472.7116 171.75076 473.5933 171.5061 474.45803 171.2096 L 478.9669 169.66372 C 479.7615 169.39127 480.54065 169.07548 481.30075 168.71779 L 486.1341 166.44326 C 486.6843 166.18434 487.22404 165.90371 487.752 165.60202 L 491.51986 163.44895 C 492.21265 163.05307 492.88437 162.62141 493.5323 162.15572 L 498.2084 158.79475 C 498.7091 158.43488 499.1951 158.05503 499.6653 157.6561 L 504.9861 153.14144 C 505.36844 152.81706 505.74004 152.48026 506.10034 152.13158 L 510.79955 147.58395 C 511.43914 146.965 512.04227 146.30943 512.6059 145.62057 L 516.39916 140.98434 C 516.9059 140.36502 517.3799 139.71969 517.8194 139.05096 L 521.43655 133.54656 C 521.652 133.21873 521.859 132.88544 522.0574 132.54702 L 524.58047 128.24292 C 524.9664 127.58454 525.31936 126.90735 525.638 126.21388 L 527.7567 121.6026 C 528.28953 120.44285 528.6607 119.21543 528.85975 117.95473 L 528.85975 117.95473 C 529.03805 116.82547 528.45875 115.71202 527.4317 115.2099 L 522.13823 112.62199 C 520.8238 111.97937 519.5892 111.18486 518.45975 110.25473 L 518.05374 109.92037 C 517.2094 109.22504 516.586 108.29873 516.25975 107.25473 L 516.25975 107.25473 C 516.2131 107.10542 516.0542 107.0222 515.9049 107.06886 C 515.7898 107.10482 515.7101 107.20968 515.7063 107.33018 L 515.59703 110.75311 C 515.5063 113.59618 514.88896 116.39776 513.77635 119.01566 L 512.8994 121.07904 C 512.34085 122.39331 511.6611 123.6527 510.86896 124.84091 L 507.1832 130.36958 C 506.43567 131.49084 505.59106 132.54424 504.6591 133.51762 L 498.36404 140.09247 C 497.49597 140.99912 496.5551 141.8332 495.55095 142.58632 L 487.17605 148.8675 C 486.29963 149.52482 485.3774 150.11867 484.4163 150.64453 L 477.2311 154.57606 C 475.92 155.29347 474.54206 155.88137 473.11687 156.33143 L 466.44396 158.43866 C 464.7271 158.98083 462.9525 159.31954 461.1566 159.44781 L 454.27017 159.9397 C 453.19787 160.0163 452.1215 160.01761 451.04904 159.94365 L 442.6128 159.36184 C 441.5786 159.29052 440.55043 159.14936 439.5353 158.93933 L 432.4001 157.46308 C 430.44814 157.05923 428.55697 156.40334 426.7741 155.51192 L 422.1147 153.18221 C 420.88057 152.56514 419.70446 151.83827 418.6006 151.01039 L 412.91866 146.74892 C 412.4795 146.41957 412.0523 146.0746 411.63786 145.71468 L 405.8827 140.71676 C 405.0684 140.00962 404.30486 139.24608 403.5977 138.43179 L 399.1925 133.3591 C 398.4384 132.49075 397.7505 131.56705 397.13455 130.59578 L 393.40085 124.70802 C 393.0403 124.13943 392.70486 123.55529 392.39554 122.95728 L 390.77517 119.82456 C 390.16603 118.64688 389.65986 117.41873 389.2623 116.15384 L 387.9821 112.08035 C 387.7673 111.39698 387.58457 110.70394 387.4345 110.00351 L 387.20906 108.95156 C 387.124 108.55455 387.35035 108.1569 387.73515 108.02736 L 387.73515 108.02736 C 387.80765 108.00296 387.8862 108.04194 387.9106 108.11444 C 387.9286 108.16795 387.91235 108.22704 387.86948 108.26379 Z" fill="url(#Obj_Gradient_5)"/>
      <path d="M 387.86948 108.26379 L 383.1403 112.31736 C 381.98996 113.30337 380.745 114.1733 379.42357 114.91448 L 376.89693 116.33165 C 375.46176 117.13662 374.88096 118.90575 375.55974 120.40473 L 376.57736 122.65197 C 376.69894 122.92045 376.82567 123.18658 376.95748 123.45019 L 378.75975 127.05473 L 381.24673 132.0287 C 381.58853 132.7123 381.9642 133.37843 382.3723 134.02462 L 384.6987 137.70808 C 385.13908 138.40534 385.61664 139.07842 386.1293 139.72438 L 389.54 144.02184 C 390.08605 144.70987 390.67107 145.36605 391.2922 145.98716 L 395.9582 150.6532 C 396.3591 151.05409 396.77467 151.44 397.20406 151.81018 L 401.7676 155.74425 C 402.16225 156.08447 402.56835 156.41119 402.9852 156.72382 L 406.96014 159.70503 C 407.62605 160.20446 408.3186 160.66738 409.0347 161.09173 L 413.16775 163.54096 C 413.29574 163.6168 413.42447 163.69141 413.5539 163.76476 L 418.25146 166.4267 C 418.98975 166.84507 419.75063 167.22225 420.5306 167.55653 L 424.0804 169.07788 C 424.6664 169.329 425.26254 169.55566 425.86733 169.75726 L 430.88544 171.42996 C 432.1327 171.84571 433.4133 172.15375 434.71315 172.3507 L 438.812 172.97174 C 439.1771 173.02706 439.5435 173.07358 439.91086 173.11126 L 446.79196 173.81701 C 447.03714 173.84216 447.2827 173.86336 447.52856 173.88061 L 452.0557 174.1983 C 452.59156 174.23591 453.1286 174.25473 453.66576 174.25473 L 456.9278 174.25473 C 457.8815 174.25473 458.8343 174.19542 459.7806 174.07712 L 463.76934 173.57853 C 464.4293 173.49604 465.0854 173.38496 465.7357 173.2456 L 471.81774 171.9423 C 472.7116 171.75076 473.5933 171.5061 474.45803 171.2096 L 478.9669 169.66372 C 479.7615 169.39127 480.54065 169.07548 481.30075 168.71779 L 486.1341 166.44326 C 486.6843 166.18434 487.22404 165.90371 487.752 165.60202 L 491.51986 163.44895 C 492.21265 163.05307 492.88437 162.62141 493.5323 162.15572 L 498.2084 158.79475 C 498.7091 158.43488 499.1951 158.05503 499.6653 157.6561 L 504.9861 153.14144 C 505.36844 152.81706 505.74004 152.48026 506.10034 152.13158 L 510.79955 147.58395 C 511.43914 146.965 512.04227 146.30943 512.6059 145.62057 L 516.39916 140.98434 C 516.9059 140.36502 517.3799 139.71969 517.8194 139.05096 L 521.43655 133.54656 C 521.652 133.21873 521.859 132.88544 522.0574 132.54702 L 524.58047 128.24292 C 524.9664 127.58454 525.31936 126.90735 525.638 126.21388 L 527.7567 121.6026 C 528.28953 120.44285 528.6607 119.21543 528.85975 117.95473 L 528.85975 117.95473 C 529.03805 116.82547 528.45875 115.71202 527.4317 115.2099 L 522.13823 112.62199 C 520.8238 111.97937 519.5892 111.18486 518.45975 110.25473 L 518.05374 109.92037 C 517.2094 109.22504 516.586 108.29873 516.25975 107.25473 L 516.25975 107.25473 C 516.2131 107.10542 516.0542 107.0222 515.9049 107.06886 C 515.7898 107.10482 515.7101 107.20968 515.7063 107.33018 L 515.59703 110.75311 C 515.5063 113.59618 514.88896 116.39776 513.77635 119.01566 L 512.8994 121.07904 C 512.34085 122.39331 511.6611 123.6527 510.86896 124.84091 L 507.1832 130.36958 C 506.43567 131.49084 505.59106 132.54424 504.6591 133.51762 L 498.36404 140.09247 C 497.49597 140.99912 496.5551 141.8332 495.55095 142.58632 L 487.17605 148.8675 C 486.29963 149.52482 485.3774 150.11867 484.4163 150.64453 L 477.2311 154.57606 C 475.92 155.29347 474.54206 155.88137 473.11687 156.33143 L 466.44396 158.43866 C 464.7271 158.98083 462.9525 159.31954 461.1566 159.44781 L 454.27017 159.9397 C 453.19787 160.0163 452.1215 160.01761 451.04904 159.94365 L 442.6128 159.36184 C 441.5786 159.29052 440.55043 159.14936 439.5353 158.93933 L 432.4001 157.46308 C 430.44814 157.05923 428.55697 156.40334 426.7741 155.51192 L 422.1147 153.18221 C 420.88057 152.56514 419.70446 151.83827 418.6006 151.01039 L 412.91866 146.74892 C 412.4795 146.41957 412.0523 146.0746 411.63786 145.71468 L 405.8827 140.71676 C 405.0684 140.00962 404.30486 139.24608 403.5977 138.43179 L 399.1925 133.3591 C 398.4384 132.49075 397.7505 131.56705 397.13455 130.59578 L 393.40085 124.70802 C 393.0403 124.13943 392.70486 123.55529 392.39554 122.95728 L 390.77517 119.82456 C 390.16603 118.64688 389.65986 117.41873 389.2623 116.15384 L 387.9821 112.08035 C 387.7673 111.39698 387.58457 110.70394 387.4345 110.00351 L 387.20906 108.95156 C 387.124 108.55455 387.35035 108.1569 387.73515 108.02736 L 387.73515 108.02736 C 387.80765 108.00296 387.8862 108.04194 387.9106 108.11444 C 387.9286 108.16795 387.91235 108.22704 387.86948 108.26379 Z" stroke="#7f8080" stroke-linecap="round" stroke-linejoin="round" stroke-width="1"/>
      <path d="M 387.3566 108.05589 L 392.7566 107.45589 L 399.5566 110.85589 L 404.5566 112.65589 L 412.9566 114.45589 L 421.3566 115.45589 L 429.3566 116.45589 L 436.9566 116.65589 L 445.5566 117.05589 L 457.1566 116.85589 L 465.5566 116.45589 L 474.9566 115.85589 L 483.3566 115.05589 L 492.5566 113.65589 L 500.7566 111.45589 L 506.5566 109.65589 L 512.1566 107.05589 L 514.9566 108.25589 L 515.3566 113.85589 L 512.5566 121.85589 L 507.1566 124.65589 L 496.5566 127.85589 L 485.1566 130.25589 L 473.9566 131.05589 L 461.5566 132.05589 L 451.1566 132.05589 L 441.7566 132.05589 L 430.1566 131.45589 L 418.9566 130.65589 L 408.3566 128.45589 L 399.7566 126.45589 L 393.5566 123.65589 L 391.5566 122.05589 L 388.3566 114.45589 Z" fill="url(#Obj_Gradient_6)"/>
      <path d="M 387.3566 108.05589 L 392.7566 107.45589 L 399.5566 110.85589 L 404.5566 112.65589 L 412.9566 114.45589 L 421.3566 115.45589 L 429.3566 116.45589 L 436.9566 116.65589 L 445.5566 117.05589 L 457.1566 116.85589 L 465.5566 116.45589 L 474.9566 115.85589 L 483.3566 115.05589 L 492.5566 113.65589 L 500.7566 111.45589 L 506.5566 109.65589 L 512.1566 107.05589 L 514.9566 108.25589 L 515.3566 113.85589 L 512.5566 121.85589 L 507.1566 124.65589 L 496.5566 127.85589 L 485.1566 130.25589 L 473.9566 131.05589 L 461.5566 132.05589 L 451.1566 132.05589 L 441.7566 132.05589 L 430.1566 131.45589 L 418.9566 130.65589 L 408.3566 128.45589 L 399.7566 126.45589 L 393.5566 123.65589 L 391.5566 122.05589 L 388.3566 114.45589 Z" stroke="#7f8080" stroke-linecap="round" stroke-linejoin="round" stroke-width="1"/>
      <path d="M 317.11057 533.5 L 317.11057 533.5 C 317.0449 534.0255 317.1077 534.55905 317.29365 535.0549 L 317.94466 536.7909 C 318.1214 537.2623 318.3485 537.7132 318.62197 538.1358 L 319.5898 539.6315 C 320.13075 540.46755 320.84385 541.17854 321.68148 541.717 L 322.75953 542.41005 C 323.0598 542.6031 323.37436 542.77284 323.7005 542.9179 L 325.01737 543.5035 C 325.6139 543.76876 326.2446 543.9493 326.89115 544.0398 L 335.90157 545.30125 C 335.91156 545.30265 335.92156 545.304 335.93156 545.3054 L 347.64756 546.894 C 347.69356 546.9002 347.7396 546.906 347.78573 546.9113 L 358.06867 548.0978 C 358.1006 548.1015 358.13255 548.105 358.1645 548.1082 L 371.8746 549.4991 C 371.90257 549.5019 371.93057 549.5046 371.9586 549.5071 L 383.0639 550.49865 C 383.099 550.5018 383.13414 550.50465 383.1693 550.50726 L 393.85584 551.29885 C 393.8963 551.30185 393.9368 551.3045 393.97735 551.3068 L 404.48533 551.9016 C 404.50615 551.90276 404.52696 551.904 404.54777 551.9054 L 416.59055 552.6951 C 416.67455 552.7006 416.75864 552.7046 416.8428 552.70706 L 430.2899 553.10257 C 430.3077 553.1031 430.32544 553.1037 430.3432 553.10434 L 440.98706 553.49855 C 441.0734 553.50175 441.15976 553.50335 441.24615 553.50335 L 451.85516 553.50335 C 451.8961 553.50335 451.937 553.5037 451.97795 553.5044 L 463.0644 553.6989 C 463.23244 553.7019 463.40057 553.6988 463.5684 553.6896 L 474.18964 553.1103 C 474.27425 553.10566 474.35893 553.1026 474.44364 553.10104 L 485.2082 552.9053 C 485.28044 552.904 485.35265 552.9016 485.4248 552.898 L 497.4434 552.30695 C 497.4922 552.30455 497.5409 552.30164 497.5896 552.2982 L 508.82965 551.50945 C 508.8876 551.5054 508.9455 551.5006 509.0033 551.4951 L 521.41387 550.3131 C 521.4823 550.3066 521.5509 550.3011 521.6195 550.2966 L 533.5515 549.5142 C 533.66153 549.50696 533.77136 549.49715 533.8809 549.48475 L 544.29326 548.306 C 544.3088 548.3042 544.3243 548.3024 544.33985 548.30056 L 554.28756 547.1068 C 554.3069 547.1045 554.3262 547.1021 554.3455 547.0996 L 568.1813 545.3221 C 568.2785 545.3096 568.37545 545.2951 568.47205 545.2785 L 575.02554 544.15505 C 575.2265 544.1206 575.4289 544.09495 575.6321 544.07817 L 578.8644 543.8112 C 579.75365 543.73775 580.62065 543.495 581.4187 543.09594 L 582.905 542.3528 C 583.5056 542.0525 584.05985 541.66735 584.55074 541.2092 L 585.88585 539.9631 C 586.4927 539.3967 586.9481 538.6875 587.2106 537.9 L 587.5054 537.0155 C 587.5755 536.8053 587.6355 536.59186 587.68536 536.37594 L 588.15506 534.34055 C 588.1903 534.1879 588.15685 534.0275 588.0636 533.9017 L 588.0636 533.9017 C 587.9732 533.7798 587.8226 533.7183 587.67276 533.74214 L 579.1929 535.0912 C 579.142 535.0993 579.0912 535.10796 579.0405 535.1172 L 566.05575 537.47804 C 565.963 537.4949 565.86985 537.5099 565.7765 537.523 L 554.5468 539.0991 C 554.52664 539.10194 554.5065 539.10485 554.4864 539.10786 L 541.3638 541.06645 C 541.199 541.09104 541.03343 541.10975 540.86733 541.1225 L 528.1425 542.10135 C 528.1252 542.1027 528.1079 542.10395 528.0906 542.10515 L 513.75044 543.101 C 513.72785 543.10257 513.70526 543.104 513.68266 543.1054 L 500.3794 543.8996 C 500.3375 543.9021 500.2956 543.9042 500.25366 543.906 L 486.0622 544.4973 C 485.9651 544.5013 485.86796 544.50335 485.7708 544.50335 L 472.51656 544.50335 L 459.9749 544.50335 C 459.936 544.50335 459.8971 544.5037 459.85824 544.5043 L 448.09985 544.7003 C 447.9777 544.7023 447.85547 544.7012 447.73336 544.6968 L 436.89976 544.3099 C 436.77765 544.3055 436.65544 544.3044 436.53327 544.3064 L 424.81863 544.50165 C 424.7506 544.5028 424.68253 544.5029 424.6145 544.5021 L 408.9122 544.3058 C 408.7818 544.30417 408.65147 544.2989 408.52136 544.29 L 394.2116 543.30986 C 394.14824 543.3055 394.08495 543.3003 394.02175 543.29426 L 379.53074 541.9047 C 379.5213 541.9038 379.51183 541.9029 379.5024 541.90193 L 365.69035 540.5207 C 365.5745 540.50915 365.45897 540.4947 365.34385 540.4773 L 351.0347 538.32115 C 350.95595 538.3093 350.877 538.29876 350.79788 538.2896 L 337.27794 536.72206 C 337.17037 536.7096 337.0631 536.6946 336.9562 536.6772 L 327.56413 535.1438 C 327.39913 535.11683 327.23516 535.084 327.0725 535.0453 L 317.99492 532.88654 C 317.6066 532.7942 317.21694 533.0341 317.1246 533.42244 C 317.1185 533.448 317.11383 533.4739 317.11057 533.5 Z" fill="url(#Obj_Gradient_7)"/>
      <path d="M 317.11057 533.5 L 317.11057 533.5 C 317.0449 534.0255 317.1077 534.55905 317.29365 535.0549 L 317.94466 536.7909 C 318.1214 537.2623 318.3485 537.7132 318.62197 538.1358 L 319.5898 539.6315 C 320.13075 540.46755 320.84385 541.17854 321.68148 541.717 L 322.75953 542.41005 C 323.0598 542.6031 323.37436 542.77284 323.7005 542.9179 L 325.01737 543.5035 C 325.6139 543.76876 326.2446 543.9493 326.89115 544.0398 L 335.90157 545.30125 C 335.91156 545.30265 335.92156 545.304 335.93156 545.3054 L 347.64756 546.894 C 347.69356 546.9002 347.7396 546.906 347.78573 546.9113 L 358.06867 548.0978 C 358.1006 548.1015 358.13255 548.105 358.1645 548.1082 L 371.8746 549.4991 C 371.90257 549.5019 371.93057 549.5046 371.9586 549.5071 L 383.0639 550.49865 C 383.099 550.5018 383.13414 550.50465 383.1693 550.50726 L 393.85584 551.29885 C 393.8963 551.30185 393.9368 551.3045 393.97735 551.3068 L 404.48533 551.9016 C 404.50615 551.90276 404.52696 551.904 404.54777 551.9054 L 416.59055 552.6951 C 416.67455 552.7006 416.75864 552.7046 416.8428 552.70706 L 430.2899 553.10257 C 430.3077 553.1031 430.32544 553.1037 430.3432 553.10434 L 440.98706 553.49855 C 441.0734 553.50175 441.15976 553.50335 441.24615 553.50335 L 451.85516 553.50335 C 451.8961 553.50335 451.937 553.5037 451.97795 553.5044 L 463.0644 553.6989 C 463.23244 553.7019 463.40057 553.6988 463.5684 553.6896 L 474.18964 553.1103 C 474.27425 553.10566 474.35893 553.1026 474.44364 553.10104 L 485.2082 552.9053 C 485.28044 552.904 485.35265 552.9016 485.4248 552.898 L 497.4434 552.30695 C 497.4922 552.30455 497.5409 552.30164 497.5896 552.2982 L 508.82965 551.50945 C 508.8876 551.5054 508.9455 551.5006 509.0033 551.4951 L 521.41387 550.3131 C 521.4823 550.3066 521.5509 550.3011 521.6195 550.2966 L 533.5515 549.5142 C 533.66153 549.50696 533.77136 549.49715 533.8809 549.48475 L 544.29326 548.306 C 544.3088 548.3042 544.3243 548.3024 544.33985 548.30056 L 554.28756 547.1068 C 554.3069 547.1045 554.3262 547.1021 554.3455 547.0996 L 568.1813 545.3221 C 568.2785 545.3096 568.37545 545.2951 568.47205 545.2785 L 575.02554 544.15505 C 575.2265 544.1206 575.4289 544.09495 575.6321 544.07817 L 578.8644 543.8112 C 579.75365 543.73775 580.62065 543.495 581.4187 543.09594 L 582.905 542.3528 C 583.5056 542.0525 584.05985 541.66735 584.55074 541.2092 L 585.88585 539.9631 C 586.4927 539.3967 586.9481 538.6875 587.2106 537.9 L 587.5054 537.0155 C 587.5755 536.8053 587.6355 536.59186 587.68536 536.37594 L 588.15506 534.34055 C 588.1903 534.1879 588.15685 534.0275 588.0636 533.9017 L 588.0636 533.9017 C 587.9732 533.7798 587.8226 533.7183 587.67276 533.74214 L 579.1929 535.0912 C 579.142 535.0993 579.0912 535.10796 579.0405 535.1172 L 566.05575 537.47804 C 565.963 537.4949 565.86985 537.5099 565.7765 537.523 L 554.5468 539.0991 C 554.52664 539.10194 554.5065 539.10485 554.4864 539.10786 L 541.3638 541.06645 C 541.199 541.09104 541.03343 541.10975 540.86733 541.1225 L 528.1425 542.10135 C 528.1252 542.1027 528.1079 542.10395 528.0906 542.10515 L 513.75044 543.101 C 513.72785 543.10257 513.70526 543.104 513.68266 543.1054 L 500.3794 543.8996 C 500.3375 543.9021 500.2956 543.9042 500.25366 543.906 L 486.0622 544.4973 C 485.9651 544.5013 485.86796 544.50335 485.7708 544.50335 L 472.51656 544.50335 L 459.9749 544.50335 C 459.936 544.50335 459.8971 544.5037 459.85824 544.5043 L 448.09985 544.7003 C 447.9777 544.7023 447.85547 544.7012 447.73336 544.6968 L 436.89976 544.3099 C 436.77765 544.3055 436.65544 544.3044 436.53327 544.3064 L 424.81863 544.50165 C 424.7506 544.5028 424.68253 544.5029 424.6145 544.5021 L 408.9122 544.3058 C 408.7818 544.30417 408.65147 544.2989 408.52136 544.29 L 394.2116 543.30986 C 394.14824 543.3055 394.08495 543.3003 394.02175 543.29426 L 379.53074 541.9047 C 379.5213 541.9038 379.51183 541.9029 379.5024 541.90193 L 365.69035 540.5207 C 365.5745 540.50915 365.45897 540.4947 365.34385 540.4773 L 351.0347 538.32115 C 350.95595 538.3093 350.877 538.29876 350.79788 538.2896 L 337.27794 536.72206 C 337.17037 536.7096 337.0631 536.6946 336.9562 536.6772 L 327.56413 535.1438 C 327.39913 535.11683 327.23516 535.084 327.0725 535.0453 L 317.99492 532.88654 C 317.6066 532.7942 317.21694 533.0341 317.1246 533.42244 C 317.1185 533.448 317.11383 533.4739 317.11057 533.5 Z" stroke="#7f8080" stroke-linecap="round" stroke-linejoin="round" stroke-width="1"/>
      <path d="M 545.5164 538.64085 L 560.5164 537.64085 L 571.5164 536.64085 L 584.5164 534.64085 L 588.5164 532.64085 L 583.5164 501.64085 L 580.5164 474.64085 L 578.5164 447.64085 L 577.79736 421.3 L 575.79736 392.8 L 574.5164 363.64085 L 573.5164 339.64085 L 574.29736 303.8 L 576.79736 268.8 L 579.29736 239.8 L 581.79736 223.8 L 585.5164 207.64085 L 589.5164 193.64085 L 595.29736 181.3 L 601.5164 166.64085 L 607.79736 155.8 L 612.5164 148.64085 L 603.5164 143.64085 L 590.5164 138.64085 L 577.5164 134.64085 L 558.5164 129.64085 L 543.5164 124.64085 Z" fill="url(#Obj_Gradient_8)"/>
      <path d="M 545.5164 538.64085 L 560.5164 537.64085 L 571.5164 536.64085 L 584.5164 534.64085 L 588.5164 532.64085 L 583.5164 501.64085 L 580.5164 474.64085 L 578.5164 447.64085 L 577.79736 421.3 L 575.79736 392.8 L 574.5164 363.64085 L 573.5164 339.64085 L 574.29736 303.8 L 576.79736 268.8 L 579.29736 239.8 L 581.79736 223.8 L 585.5164 207.64085 L 589.5164 193.64085 L 595.29736 181.3 L 601.5164 166.64085 L 607.79736 155.8 L 612.5164 148.64085 L 603.5164 143.64085 L 590.5164 138.64085 L 577.5164 134.64085 L 558.5164 129.64085 L 543.5164 124.64085 Z" stroke="#7f8080" stroke-linecap="round" stroke-linejoin="round" stroke-width="1"/>
      <path d="M 360.29736 539.3 L 345.48363 537.375 L 334.48363 536.375 L 321.48363 534.375 L 317.48363 532.375 L 322.48363 501.375 L 324.29736 475.3 L 326.79736 447.3 L 328.29736 420.3 L 328.79736 391.3 L 330.29736 364.3 L 330.79736 338.8 L 329.79736 302.8 L 328.79736 269.3 L 328.79736 254.3 L 326.29736 238.8 L 323.79736 223.8 L 319.29736 208.3 L 314.79736 193.8 L 309.79736 180.3 L 303.29736 166.8 L 296.79736 156.3 L 293.29736 149.8 L 302.48363 143.37503 L 315.48363 138.37503 L 328.48363 134.37503 L 346.79736 128.8 L 357.79736 125.3 L 362.48363 124.37503 Z" fill="url(#Obj_Gradient_9)"/>
      <path d="M 360.29736 539.3 L 345.48363 537.375 L 334.48363 536.375 L 321.48363 534.375 L 317.48363 532.375 L 322.48363 501.375 L 324.29736 475.3 L 326.79736 447.3 L 328.29736 420.3 L 328.79736 391.3 L 330.29736 364.3 L 330.79736 338.8 L 329.79736 302.8 L 328.79736 269.3 L 328.79736 254.3 L 326.29736 238.8 L 323.79736 223.8 L 319.29736 208.3 L 314.79736 193.8 L 309.79736 180.3 L 303.29736 166.8 L 296.79736 156.3 L 293.29736 149.8 L 302.48363 143.37503 L 315.48363 138.37503 L 328.48363 134.37503 L 346.79736 128.8 L 357.79736 125.3 L 362.48363 124.37503 Z" stroke="#7f8080" stroke-linecap="round" stroke-linejoin="round" stroke-width="1"/>
    </g>
  </g>
</svg>
