<?xml version="1.0" encoding="UTF-8" standalone="no"?>
<!DOCTYPE svg PUBLIC "-//W3C//DTD SVG 1.1//EN" "http://www.w3.org/Graphics/SVG/1.1/DTD/svg11.dtd">
<svg xmlns="http://www.w3.org/2000/svg" xmlns:xl="http://www.w3.org/1999/xlink" version="1.1" viewBox="-86.5 -462.5 432.4053 448.40335" width="432.4053pt" height="448.40335pt" xmlns:dc="http://purl.org/dc/elements/1.1/">
  <metadata> Produced by OmniGraffle 7.6.1 
    <dc:date>2019-05-26 06:31:20 +0000</dc:date>
  </metadata>
  <defs>
    <radialGradient cx="0" cy="0" r="1" id="Gradient" gradientUnits="userSpaceOnUse">
      <stop offset="0" stop-color="white"/>
      <stop offset="1" stop-color="#171605"/>
    </radialGradient>
    <radialGradient id="Obj_Gradient" xl:href="#Gradient" gradientTransform="translate(128.75925 -434.6) scale(70.26272)"/>
    <linearGradient x1="0" x2="1" id="Gradient_2" gradientUnits="userSpaceOnUse">
      <stop offset="0" stop-color="#000098"/>
      <stop offset="1" stop-color="#a5a5a5"/>
    </linearGradient>
    <linearGradient id="Obj_Gradient_2" xl:href="#Gradient_2" gradientTransform="translate(128.78697 -461.2441) rotate(90) scale(67.19884)"/>
  </defs>
  <g stroke="none" stroke-opacity="1" stroke-dasharray="none" fill="none" fill-opacity="1">
    <title>club_nacional</title>
    <g>
      <title>Capa 1</title>
      <path d="M 67.005654 -461.40955 L 75.17111 -458.29184 C 76.0291 -457.96424 76.90594 -457.6883 77.79692 -457.4656 L 91.5141 -454.0363 C 92.67576 -453.74587 93.85832 -453.5466 95.051 -453.44034 L 112.57715 -451.8786 C 113.165 -451.8262 113.75464 -451.7965 114.34478 -451.78946 L 129.8237 -451.6052 C 130.11404 -451.60173 130.40442 -451.60377 130.69469 -451.6113 L 145.118 -451.98594 C 145.47878 -451.9953 145.8393 -452.0132 146.19924 -452.0395 L 160.57053 -453.09107 C 161.56197 -453.1636 162.54766 -453.30036 163.5214 -453.50044 L 175.09436 -455.87845 C 176.13637 -456.09256 177.16226 -456.3787 178.16465 -456.7348 L 189.91664 -460.90986 C 191.00702 -461.29723 192.21021 -460.76646 192.65925 -459.7 L 192.65925 -459.7 C 193.1814 -458.4599 193.33338 -457.09515 193.09685 -455.77055 L 192.91637 -454.75986 C 192.6126 -453.0587 192.11806 -451.3972 191.44214 -449.8068 L 189.89892 -446.1757 C 189.34035 -444.8614 188.6606 -443.602 187.86846 -442.4138 L 184.18268 -436.88515 C 183.43517 -435.7639 182.59057 -434.7105 181.6586 -433.7371 L 175.36354 -427.16226 C 174.49547 -426.2556 173.55463 -425.42154 172.55046 -424.6684 L 164.17555 -418.38723 C 163.29914 -417.7299 162.37688 -417.13606 161.41582 -416.6102 L 154.23062 -412.67867 C 152.9195 -411.96126 151.54156 -411.37336 150.11638 -410.9233 L 143.44347 -408.81607 C 141.7266 -408.2739 139.952 -407.9352 138.15613 -407.8069 L 131.26968 -407.31503 C 130.19738 -407.23844 129.12103 -407.2371 128.04854 -407.3111 L 119.61229 -407.8929 C 118.57811 -407.9642 117.54994 -408.10537 116.5348 -408.3154 L 109.3996 -409.79165 C 107.44765 -410.1955 105.55647 -410.8514 103.77362 -411.7428 L 99.11421 -414.0725 C 97.88007 -414.6896 96.70397 -415.41646 95.60012 -416.24434 L 89.91816 -420.5058 C 89.47903 -420.83517 89.05182 -421.18013 88.63737 -421.54005 L 82.88219 -426.53797 C 82.0679 -427.2451 81.30436 -428.00865 80.59722 -428.82294 L 76.191995 -433.8956 C 75.43789 -434.764 74.74998 -435.6877 74.13406 -436.65895 L 70.40036 -442.5467 C 70.03979 -443.1153 69.704365 -443.69944 69.39505 -444.29745 L 67.774675 -447.4302 C 67.16553 -448.60785 66.65936 -449.836 66.261825 -451.1009 L 64.98159 -455.1744 C 64.76681 -455.85775 64.58408 -456.5508 64.43399 -457.2512 L 64.35925 -457.6 C 64.164585 -458.5084 64.27185 -459.45557 64.66473 -460.29746 L 64.75925 -460.5 C 65.153724 -461.3453 66.134195 -461.7423 67.005654 -461.40955 Z" fill="url(#Obj_Gradient)"/>
      <path d="M 67.005654 -461.40955 L 75.17111 -458.29184 C 76.0291 -457.96424 76.90594 -457.6883 77.79692 -457.4656 L 91.5141 -454.0363 C 92.67576 -453.74587 93.85832 -453.5466 95.051 -453.44034 L 112.57715 -451.8786 C 113.165 -451.8262 113.75464 -451.7965 114.34478 -451.78946 L 129.8237 -451.6052 C 130.11404 -451.60173 130.40442 -451.60377 130.69469 -451.6113 L 145.118 -451.98594 C 145.47878 -451.9953 145.8393 -452.0132 146.19924 -452.0395 L 160.57053 -453.09107 C 161.56197 -453.1636 162.54766 -453.30036 163.5214 -453.50044 L 175.09436 -455.87845 C 176.13637 -456.09256 177.16226 -456.3787 178.16465 -456.7348 L 189.91664 -460.90986 C 191.00702 -461.29723 192.21021 -460.76646 192.65925 -459.7 L 192.65925 -459.7 C 193.1814 -458.4599 193.33338 -457.09515 193.09685 -455.77055 L 192.91637 -454.75986 C 192.6126 -453.0587 192.11806 -451.3972 191.44214 -449.8068 L 189.89892 -446.1757 C 189.34035 -444.8614 188.6606 -443.602 187.86846 -442.4138 L 184.18268 -436.88515 C 183.43517 -435.7639 182.59057 -434.7105 181.6586 -433.7371 L 175.36354 -427.16226 C 174.49547 -426.2556 173.55463 -425.42154 172.55046 -424.6684 L 164.17555 -418.38723 C 163.29914 -417.7299 162.37688 -417.13606 161.41582 -416.6102 L 154.23062 -412.67867 C 152.9195 -411.96126 151.54156 -411.37336 150.11638 -410.9233 L 143.44347 -408.81607 C 141.7266 -408.2739 139.952 -407.9352 138.15613 -407.8069 L 131.26968 -407.31503 C 130.19738 -407.23844 129.12103 -407.2371 128.04854 -407.3111 L 119.61229 -407.8929 C 118.57811 -407.9642 117.54994 -408.10537 116.5348 -408.3154 L 109.3996 -409.79165 C 107.44765 -410.1955 105.55647 -410.8514 103.77362 -411.7428 L 99.11421 -414.0725 C 97.88007 -414.6896 96.70397 -415.41646 95.60012 -416.24434 L 89.91816 -420.5058 C 89.47903 -420.83517 89.05182 -421.18013 88.63737 -421.54005 L 82.88219 -426.53797 C 82.0679 -427.2451 81.30436 -428.00865 80.59722 -428.82294 L 76.191995 -433.8956 C 75.43789 -434.764 74.74998 -435.6877 74.13406 -436.65895 L 70.40036 -442.5467 C 70.03979 -443.1153 69.704365 -443.69944 69.39505 -444.29745 L 67.774675 -447.4302 C 67.16553 -448.60785 66.65936 -449.836 66.261825 -451.1009 L 64.98159 -455.1744 C 64.76681 -455.85775 64.58408 -456.5508 64.43399 -457.2512 L 64.35925 -457.6 C 64.164585 -458.5084 64.27185 -459.45557 64.66473 -460.29746 L 64.75925 -460.5 C 65.153724 -461.3453 66.134195 -461.7423 67.005654 -461.40955 Z" stroke="#7f8080" stroke-linecap="round" stroke-linejoin="round" stroke-width="1"/>
      <path d="M 2.9734554 -24.736214 L 16.715696 -22.44584 C 16.899072 -22.415278 17.082968 -22.387914 17.267298 -22.36376 L 45.62094 -18.648455 C 45.86747 -18.616152 46.114715 -18.5896 46.36248 -18.568819 L 76.60537 -16.032318 C 76.86227 -16.010771 77.11966 -15.995437 77.37731 -15.986328 L 116.30822 -14.609983 C 116.49658 -14.603324 116.68504 -14.599993 116.87352 -14.599993 L 148.34084 -14.599993 C 148.50746 -14.599993 148.67407 -14.602596 148.8406 -14.6078 L 173.87539 -15.390137 C 174.08563 -15.396707 174.29573 -15.407423 174.50555 -15.422277 L 196.5533 -16.98318 C 196.71161 -16.994388 196.86975 -17.007951 197.02766 -17.023865 L 222.28815 -19.569495 C 222.4899 -19.589825 222.69122 -19.61399 222.89204 -19.641972 L 246.68474 -22.957348 C 246.88875 -22.985776 247.0922 -23.01814 247.29496 -23.054424 L 256.4908 -24.699993 C 261.8179 -25.653265 265.46876 -30.60691 264.80234 -35.977447 L 262.59475 -53.76802 C 262.5921 -53.789335 262.5895 -53.81066 262.58695 -53.831985 L 259.02312 -83.53051 C 259.00157 -83.71015 258.98306 -83.89015 258.9676 -84.07042 L 256.6054 -111.62963 C 256.59565 -111.7432 256.58713 -111.85688 256.57983 -111.97064 L 255.1932 -133.56228 C 255.1916 -133.58742 255.18992 -133.61256 255.1882 -133.6377 L 253.59603 -156.72401 C 253.59253 -156.77467 253.58928 -156.82534 253.58627 -156.87602 L 252.4099 -176.6782 C 252.39716 -176.8927 252.38874 -177.10745 252.38465 -177.3223 L 251.99236 -197.91715 C 251.9913 -197.97238 251.98997 -198.0276 251.98835 -198.08282 L 251.39322 -218.31717 C 251.3916 -218.37239 251.39026 -218.42761 251.3892 -218.48285 L 250.99855 -238.9924 C 250.99337 -239.26408 250.99512 -239.53587 251.0038 -239.80747 L 251.58973 -258.16708 C 251.59044 -258.18903 251.59118 -258.21097 251.59197 -258.2329 L 252.38005 -280.1022 C 252.3872 -280.30072 252.39806 -280.49907 252.4126 -280.69717 L 253.97007 -301.9178 C 253.98388 -302.1059 253.99436 -302.29427 254.0015 -302.48276 L 254.75596 -322.38163 C 254.77915 -322.99337 254.83744 -323.6033 254.93052 -324.20835 L 257.66953 -342.01187 C 257.7503 -342.53696 257.8572 -343.0577 257.9898 -343.57217 L 262.61806 -361.52983 C 262.73316 -361.9764 262.8675 -362.4178 263.02073 -362.85275 L 268.7415 -379.0924 C 268.9076 -379.56387 269.0957 -380.0273 269.30517 -380.48117 L 274.83673 -392.4662 C 274.93942 -392.6887 275.0472 -392.9088 275.16 -393.12636 L 280.52223 -403.4678 C 280.56793 -403.55593 280.61446 -403.64364 280.6618 -403.7309 L 285.87777 -413.3479 C 286.61505 -414.70724 287.56468 -415.94013 288.6908 -417 L 288.6908 -417 C 289.36598 -417.63547 289.39817 -418.69797 288.7627 -419.37316 C 288.6382 -419.50544 288.49307 -419.61663 288.33295 -419.7024 L 285.1188 -421.42427 C 284.90016 -421.5414 284.6788 -421.65344 284.45494 -421.7603 L 276.60097 -425.5088 C 276.19436 -425.70284 275.77974 -425.87964 275.3582 -426.0387 L 265.68338 -429.6896 C 265.48833 -429.7632 265.29187 -429.83297 265.0941 -429.8989 L 252.39963 -434.1304 C 252.2604 -434.1768 252.12055 -434.2213 251.9801 -434.26384 L 239.09658 -438.16794 C 239.02605 -438.1893 238.95567 -438.21117 238.88544 -438.2335 L 226.38144 -442.21206 C 225.98782 -442.3373 225.5992 -442.47775 225.21643 -442.63307 L 213.2405 -447.49287 C 212.40883 -447.83036 211.60704 -448.2372 210.8436 -448.70917 L 201.22436 -454.6556 C 201.06865 -454.75186 200.91461 -454.8508 200.7623 -454.9523 L 195.8722 -458.2124 C 194.89081 -458.86665 194.0195 -459.67255 193.29078 -460.6 L 193.29078 -460.6 C 193.18518 -460.7344 192.99062 -460.75775 192.85621 -460.65215 C 192.75347 -460.5714 192.7125 -460.4349 192.75381 -460.3109 L 192.89078 -459.9 C 193.35003 -458.52225 193.4546 -457.05096 193.1948 -455.6221 L 192.79967 -453.44885 C 192.52845 -451.9572 192.0466 -450.51165 191.36858 -449.1556 L 189.83626 -446.09096 C 189.53956 -445.49756 189.20624 -444.9232 188.83823 -444.3712 L 185.63453 -439.5656 C 185.20593 -438.9227 184.73132 -438.3117 184.21443 -437.7374 L 179.65238 -432.66844 C 179.61132 -432.6228 179.56999 -432.5774 179.5284 -432.53227 L 173.53417 -426.02424 C 172.90643 -425.3427 172.22068 -424.717 171.48465 -424.15413 L 166.46047 -420.3121 C 166.01432 -419.97094 165.55052 -419.6535 165.07099 -419.3611 L 158.58458 -415.40597 C 157.92292 -415.0025 157.23283 -414.6477 156.51975 -414.34424 L 149.40434 -411.3164 C 148.59667 -410.9727 147.7621 -410.69607 146.90905 -410.4893 L 142.83 -409.5004 C 142.00516 -409.30045 141.16573 -409.16644 140.31963 -409.09965 L 134.61943 -408.64963 C 134.2005 -408.61656 133.78042 -408.6 133.36019 -408.6 L 126.32787 -408.6 C 125.57077 -408.6 124.81462 -408.65374 124.06513 -408.7608 L 116.11868 -409.896 C 115.63367 -409.9653 115.1521 -410.05683 114.67549 -410.1703 L 108.71426 -411.58965 C 107.56878 -411.8624 106.4569 -412.26073 105.39883 -412.77747 L 99.11882 -415.84444 C 98.63377 -416.08133 98.16102 -416.3426 97.70238 -416.6273 L 93.49052 -419.24154 C 92.89135 -419.61344 92.31742 -420.02454 91.7725 -420.47216 L 87.32639 -424.1243 C 87.10269 -424.30807 86.88402 -424.49786 86.67063 -424.6935 L 82.86828 -428.17896 C 82.41699 -428.59264 81.98981 -429.0319 81.58885 -429.49454 L 77.47011 -434.24693 C 77.15072 -434.61545 76.84836 -434.9984 76.56395 -435.3945 L 72.1343 -441.5644 C 71.639405 -442.2537 71.200134 -442.9813 70.82064 -443.7403 L 68.24418 -448.8932 C 68.20858 -448.9644 68.17352 -449.03586 68.13899 -449.1076 L 66.89078 -451.7 C 66.04007 -453.46687 65.68455 -455.4314 65.86209 -457.38436 L 66.04229 -459.3666 C 66.0661 -459.6285 65.873116 -459.86006 65.61125 -459.88386 C 65.44886 -459.8986 65.290205 -459.82925 65.19078 -459.7 L 65.19078 -459.7 C 64.527336 -458.8375 63.74723 -458.07144 62.87285 -457.42375 L 58.97632 -454.53743 C 58.852634 -454.4458 58.727635 -454.356 58.60136 -454.268 L 53.97911 -451.0464 C 52.79237 -450.2193 51.49895 -449.5569 50.1342 -449.0774 L 45.527076 -447.4587 C 45.036505 -447.28633 44.55463 -447.09016 44.08316 -446.87087 L 37.23638 -443.6863 C 36.540217 -443.36253 35.82165 -443.08926 35.086253 -442.86864 L 24.215864 -439.6075 C 24.199143 -439.6025 24.18243 -439.59746 24.165724 -439.5924 L 13.197637 -436.2628 C 13.05974 -436.22093 12.922414 -436.1772 12.785698 -436.13164 L -.13553615 -431.82456 C -.18465746 -431.8082 -.23385796 -431.79205 -.28313592 -431.77616 L -11.650542 -428.10925 C -12.289028 -427.9033 -12.913927 -427.65737 -13.52154 -427.37296 L -21.453505 -423.6601 C -21.823845 -423.48677 -22.187403 -423.2993 -22.54338 -423.0981 L -28.489494 -419.73724 C -29.742528 -419.029 -30.184173 -417.43907 -29.475937 -416.18604 C -29.39882 -416.0496 -29.30955 -415.9204 -29.20922 -415.8 L -28.345108 -414.76307 C -27.590163 -413.85713 -26.937686 -412.8705 -26.39957 -411.8212 L -23.32243 -405.82076 C -23.24696 -405.6736 -23.169213 -405.5276 -23.089216 -405.38285 L -19.134464 -398.22663 C -19.050973 -398.07555 -18.969932 -397.92313 -18.891373 -397.76943 L -14.783069 -389.73144 C -14.534 -389.24413 -14.310096 -388.74437 -14.112243 -388.2341 L -10.629474 -379.25224 C -10.61597 -379.2174 -10.602345 -379.18263 -10.588598 -379.1479 L -6.992276 -370.06246 C -6.870267 -369.75423 -6.757867 -369.44228 -6.655239 -369.12706 L -4.0334044 -361.0743 C -4.0172806 -361.02476 -4.0013988 -360.97516 -3.9857593 -360.9255 L -.9137112 -351.1672 C -.7109195 -350.52305 -.54911445 -349.8667 -.4292669 -349.2021 L 1.556045 -338.19263 C 1.5792018 -338.0642 1.6007868 -337.9355 1.6207952 -337.80658 L 3.3266648 -326.8132 C 3.369402 -326.53778 3.4049354 -326.2613 3.4332286 -325.984 L 4.3206485 -317.2873 C 4.367382 -316.8293 4.3943273 -316.36952 4.401409 -315.9092 L 4.5856494 -303.9336 C 4.5890704 -303.7112 4.5971274 -303.48895 4.609815 -303.2669 L 5.38019 -289.78535 C 5.387251 -289.6618 5.395745 -289.5383 5.405671 -289.41494 L 6.7392415 -272.84057 C 6.773588 -272.4137 6.7907816 -271.9856 6.7907816 -271.55736 L 6.7907816 -259.10758 C 6.7907816 -258.90254 6.794723 -258.69753 6.802603 -258.49265 L 7.382954 -243.4035 C 7.388172 -243.26784 7.391663 -243.1321 7.393426 -242.99635 L 7.5855855 -228.2001 C 7.589049 -227.9334 7.5858435 -227.66667 7.575972 -227.40014 L 7.001744 -211.896 C 6.994436 -211.69868 6.9907816 -211.50125 6.9907816 -211.3038 L 6.9907816 -197.70757 C 6.9907816 -197.50254 6.9868404 -197.29753 6.97896 -197.09264 L 6.393768 -181.87764 C 6.391777 -181.82588 6.389535 -181.77412 6.387041 -181.72238 L 5.591719 -165.21945 C 5.591094 -165.20648 5.590453 -165.19351 5.589797 -165.18055 L 4.7953073 -149.48938 C 4.79229 -149.42979 4.7889397 -149.37022 4.785256 -149.31067 L 3.5963447 -130.08993 C 3.592636 -130.02997 3.5885895 -129.97004 3.5842057 -129.91013 L 1.801068 -105.54058 C 1.7942105 -105.44686 1.7865274 -105.3532 1.7780197 -105.25962 L -.007872291 -85.6148 C -.008769794 -85.60493 -.009676473 -85.59506 -.010592325 -85.58519 L -1.7813568 -66.50028 C -1.7999297 -66.30011 -1.8222736 -66.1003 -1.8483766 -65.90097 L -3.8090898 -50.92825 C -3.941901 -49.914056 -4.211042 -48.92244 -4.609219 -47.98027 L -4.609219 -47.98027 C -5.006794 -47.03952 -5.255462 -46.042607 -5.3462865 -45.025345 L -6.109219 -36.48027 C -6.616975 -30.79324 -2.65851 -25.674875 2.9734554 -24.736214 Z" fill="white"/>
      <path d="M 2.9734554 -24.736214 L 16.715696 -22.44584 C 16.899072 -22.415278 17.082968 -22.387914 17.267298 -22.36376 L 45.62094 -18.648455 C 45.86747 -18.616152 46.114715 -18.5896 46.36248 -18.568819 L 76.60537 -16.032318 C 76.86227 -16.010771 77.11966 -15.995437 77.37731 -15.986328 L 116.30822 -14.609983 C 116.49658 -14.603324 116.68504 -14.599993 116.87352 -14.599993 L 148.34084 -14.599993 C 148.50746 -14.599993 148.67407 -14.602596 148.8406 -14.6078 L 173.87539 -15.390137 C 174.08563 -15.396707 174.29573 -15.407423 174.50555 -15.422277 L 196.5533 -16.98318 C 196.71161 -16.994388 196.86975 -17.007951 197.02766 -17.023865 L 222.28815 -19.569495 C 222.4899 -19.589825 222.69122 -19.61399 222.89204 -19.641972 L 246.68474 -22.957348 C 246.88875 -22.985776 247.0922 -23.01814 247.29496 -23.054424 L 256.4908 -24.699993 C 261.8179 -25.653265 265.46876 -30.60691 264.80234 -35.977447 L 262.59475 -53.76802 C 262.5921 -53.789335 262.5895 -53.81066 262.58695 -53.831985 L 259.02312 -83.53051 C 259.00157 -83.71015 258.98306 -83.89015 258.9676 -84.07042 L 256.6054 -111.62963 C 256.59565 -111.7432 256.58713 -111.85688 256.57983 -111.97064 L 255.1932 -133.56228 C 255.1916 -133.58742 255.18992 -133.61256 255.1882 -133.6377 L 253.59603 -156.72401 C 253.59253 -156.77467 253.58928 -156.82534 253.58627 -156.87602 L 252.4099 -176.6782 C 252.39716 -176.8927 252.38874 -177.10745 252.38465 -177.3223 L 251.99236 -197.91715 C 251.9913 -197.97238 251.98997 -198.0276 251.98835 -198.08282 L 251.39322 -218.31717 C 251.3916 -218.37239 251.39026 -218.42761 251.3892 -218.48285 L 250.99855 -238.9924 C 250.99337 -239.26408 250.99512 -239.53587 251.0038 -239.80747 L 251.58973 -258.16708 C 251.59044 -258.18903 251.59118 -258.21097 251.59197 -258.2329 L 252.38005 -280.1022 C 252.3872 -280.30072 252.39806 -280.49907 252.4126 -280.69717 L 253.97007 -301.9178 C 253.98388 -302.1059 253.99436 -302.29427 254.0015 -302.48276 L 254.75596 -322.38163 C 254.77915 -322.99337 254.83744 -323.6033 254.93052 -324.20835 L 257.66953 -342.01187 C 257.7503 -342.53696 257.8572 -343.0577 257.9898 -343.57217 L 262.61806 -361.52983 C 262.73316 -361.9764 262.8675 -362.4178 263.02073 -362.85275 L 268.7415 -379.0924 C 268.9076 -379.56387 269.0957 -380.0273 269.30517 -380.48117 L 274.83673 -392.4662 C 274.93942 -392.6887 275.0472 -392.9088 275.16 -393.12636 L 280.52223 -403.4678 C 280.56793 -403.55593 280.61446 -403.64364 280.6618 -403.7309 L 285.87777 -413.3479 C 286.61505 -414.70724 287.56468 -415.94013 288.6908 -417 L 288.6908 -417 C 289.36598 -417.63547 289.39817 -418.69797 288.7627 -419.37316 C 288.6382 -419.50544 288.49307 -419.61663 288.33295 -419.7024 L 285.1188 -421.42427 C 284.90016 -421.5414 284.6788 -421.65344 284.45494 -421.7603 L 276.60097 -425.5088 C 276.19436 -425.70284 275.77974 -425.87964 275.3582 -426.0387 L 265.68338 -429.6896 C 265.48833 -429.7632 265.29187 -429.83297 265.0941 -429.8989 L 252.39963 -434.1304 C 252.2604 -434.1768 252.12055 -434.2213 251.9801 -434.26384 L 239.09658 -438.16794 C 239.02605 -438.1893 238.95567 -438.21117 238.88544 -438.2335 L 226.38144 -442.21206 C 225.98782 -442.3373 225.5992 -442.47775 225.21643 -442.63307 L 213.2405 -447.49287 C 212.40883 -447.83036 211.60704 -448.2372 210.8436 -448.70917 L 201.22436 -454.6556 C 201.06865 -454.75186 200.91461 -454.8508 200.7623 -454.9523 L 195.8722 -458.2124 C 194.89081 -458.86665 194.0195 -459.67255 193.29078 -460.6 L 193.29078 -460.6 C 193.18518 -460.7344 192.99062 -460.75775 192.85621 -460.65215 C 192.75347 -460.5714 192.7125 -460.4349 192.75381 -460.3109 L 192.89078 -459.9 C 193.35003 -458.52225 193.4546 -457.05096 193.1948 -455.6221 L 192.79967 -453.44885 C 192.52845 -451.9572 192.0466 -450.51165 191.36858 -449.1556 L 189.83626 -446.09096 C 189.53956 -445.49756 189.20624 -444.9232 188.83823 -444.3712 L 185.63453 -439.5656 C 185.20593 -438.9227 184.73132 -438.3117 184.21443 -437.7374 L 179.65238 -432.66844 C 179.61132 -432.6228 179.56999 -432.5774 179.5284 -432.53227 L 173.53417 -426.02424 C 172.90643 -425.3427 172.22068 -424.717 171.48465 -424.15413 L 166.46047 -420.3121 C 166.01432 -419.97094 165.55052 -419.6535 165.07099 -419.3611 L 158.58458 -415.40597 C 157.92292 -415.0025 157.23283 -414.6477 156.51975 -414.34424 L 149.40434 -411.3164 C 148.59667 -410.9727 147.7621 -410.69607 146.90905 -410.4893 L 142.83 -409.5004 C 142.00516 -409.30045 141.16573 -409.16644 140.31963 -409.09965 L 134.61943 -408.64963 C 134.2005 -408.61656 133.78042 -408.6 133.36019 -408.6 L 126.32787 -408.6 C 125.57077 -408.6 124.81462 -408.65374 124.06513 -408.7608 L 116.11868 -409.896 C 115.63367 -409.9653 115.1521 -410.05683 114.67549 -410.1703 L 108.71426 -411.58965 C 107.56878 -411.8624 106.4569 -412.26073 105.39883 -412.77747 L 99.11882 -415.84444 C 98.63377 -416.08133 98.16102 -416.3426 97.70238 -416.6273 L 93.49052 -419.24154 C 92.89135 -419.61344 92.31742 -420.02454 91.7725 -420.47216 L 87.32639 -424.1243 C 87.10269 -424.30807 86.88402 -424.49786 86.67063 -424.6935 L 82.86828 -428.17896 C 82.41699 -428.59264 81.98981 -429.0319 81.58885 -429.49454 L 77.47011 -434.24693 C 77.15072 -434.61545 76.84836 -434.9984 76.56395 -435.3945 L 72.1343 -441.5644 C 71.639405 -442.2537 71.200134 -442.9813 70.82064 -443.7403 L 68.24418 -448.8932 C 68.20858 -448.9644 68.17352 -449.03586 68.13899 -449.1076 L 66.89078 -451.7 C 66.04007 -453.46687 65.68455 -455.4314 65.86209 -457.38436 L 66.04229 -459.3666 C 66.0661 -459.6285 65.873116 -459.86006 65.61125 -459.88386 C 65.44886 -459.8986 65.290205 -459.82925 65.19078 -459.7 L 65.19078 -459.7 C 64.527336 -458.8375 63.74723 -458.07144 62.87285 -457.42375 L 58.97632 -454.53743 C 58.852634 -454.4458 58.727635 -454.356 58.60136 -454.268 L 53.97911 -451.0464 C 52.79237 -450.2193 51.49895 -449.5569 50.1342 -449.0774 L 45.527076 -447.4587 C 45.036505 -447.28633 44.55463 -447.09016 44.08316 -446.87087 L 37.23638 -443.6863 C 36.540217 -443.36253 35.82165 -443.08926 35.086253 -442.86864 L 24.215864 -439.6075 C 24.199143 -439.6025 24.18243 -439.59746 24.165724 -439.5924 L 13.197637 -436.2628 C 13.05974 -436.22093 12.922414 -436.1772 12.785698 -436.13164 L -.13553615 -431.82456 C -.18465746 -431.8082 -.23385796 -431.79205 -.28313592 -431.77616 L -11.650542 -428.10925 C -12.289028 -427.9033 -12.913927 -427.65737 -13.52154 -427.37296 L -21.453505 -423.6601 C -21.823845 -423.48677 -22.187403 -423.2993 -22.54338 -423.0981 L -28.489494 -419.73724 C -29.742528 -419.029 -30.184173 -417.43907 -29.475937 -416.18604 C -29.39882 -416.0496 -29.30955 -415.9204 -29.20922 -415.8 L -28.345108 -414.76307 C -27.590163 -413.85713 -26.937686 -412.8705 -26.39957 -411.8212 L -23.32243 -405.82076 C -23.24696 -405.6736 -23.169213 -405.5276 -23.089216 -405.38285 L -19.134464 -398.22663 C -19.050973 -398.07555 -18.969932 -397.92313 -18.891373 -397.76943 L -14.783069 -389.73144 C -14.534 -389.24413 -14.310096 -388.74437 -14.112243 -388.2341 L -10.629474 -379.25224 C -10.61597 -379.2174 -10.602345 -379.18263 -10.588598 -379.1479 L -6.992276 -370.06246 C -6.870267 -369.75423 -6.757867 -369.44228 -6.655239 -369.12706 L -4.0334044 -361.0743 C -4.0172806 -361.02476 -4.0013988 -360.97516 -3.9857593 -360.9255 L -.9137112 -351.1672 C -.7109195 -350.52305 -.54911445 -349.8667 -.4292669 -349.2021 L 1.556045 -338.19263 C 1.5792018 -338.0642 1.6007868 -337.9355 1.6207952 -337.80658 L 3.3266648 -326.8132 C 3.369402 -326.53778 3.4049354 -326.2613 3.4332286 -325.984 L 4.3206485 -317.2873 C 4.367382 -316.8293 4.3943273 -316.36952 4.401409 -315.9092 L 4.5856494 -303.9336 C 4.5890704 -303.7112 4.5971274 -303.48895 4.609815 -303.2669 L 5.38019 -289.78535 C 5.387251 -289.6618 5.395745 -289.5383 5.405671 -289.41494 L 6.7392415 -272.84057 C 6.773588 -272.4137 6.7907816 -271.9856 6.7907816 -271.55736 L 6.7907816 -259.10758 C 6.7907816 -258.90254 6.794723 -258.69753 6.802603 -258.49265 L 7.382954 -243.4035 C 7.388172 -243.26784 7.391663 -243.1321 7.393426 -242.99635 L 7.5855855 -228.2001 C 7.589049 -227.9334 7.5858435 -227.66667 7.575972 -227.40014 L 7.001744 -211.896 C 6.994436 -211.69868 6.9907816 -211.50125 6.9907816 -211.3038 L 6.9907816 -197.70757 C 6.9907816 -197.50254 6.9868404 -197.29753 6.97896 -197.09264 L 6.393768 -181.87764 C 6.391777 -181.82588 6.389535 -181.77412 6.387041 -181.72238 L 5.591719 -165.21945 C 5.591094 -165.20648 5.590453 -165.19351 5.589797 -165.18055 L 4.7953073 -149.48938 C 4.79229 -149.42979 4.7889397 -149.37022 4.785256 -149.31067 L 3.5963447 -130.08993 C 3.592636 -130.02997 3.5885895 -129.97004 3.5842057 -129.91013 L 1.801068 -105.54058 C 1.7942105 -105.44686 1.7865274 -105.3532 1.7780197 -105.25962 L -.007872291 -85.6148 C -.008769794 -85.60493 -.009676473 -85.59506 -.010592325 -85.58519 L -1.7813568 -66.50028 C -1.7999297 -66.30011 -1.8222736 -66.1003 -1.8483766 -65.90097 L -3.8090898 -50.92825 C -3.941901 -49.914056 -4.211042 -48.92244 -4.609219 -47.98027 L -4.609219 -47.98027 C -5.006794 -47.03952 -5.255462 -46.042607 -5.3462865 -45.025345 L -6.109219 -36.48027 C -6.616975 -30.79324 -2.65851 -25.674875 2.9734554 -24.736214 Z" stroke="#7f8080" stroke-linecap="round" stroke-linejoin="round" stroke-width="1"/>
      <path d="M -86 -310.55385 L -79.8 -306.15385 L -71.6 -302.15385 L -63 -298.55385 L -54 -294.75385 L -43 -290.75385 L -33.6 -287.95385 L -24.6 -285.35385 L -15.599999 -282.75385 L -10.199999 -281.35385 L -4.599999 -280.35385 L -2.1999988 -286.15385 L .4000013 -291.55385 L 2.6000013 -295.55385 L 5.2000014 -298.95385 L 5.4000014 -307.95385 L 4.8000014 -318.95385 L 3.0000013 -329.75385 L 1.4000013 -340.15385 L -1.1999987 -351.15386 L -3.5999988 -360.75386 L -6.399999 -368.75386 L -9.599999 -378.15386 L -12.399999 -385.55386 L -15.999999 -393.15386 L -20 -400.75386 L -24 -408.15386 L -26.6 -411.75386 L -30.2 -417.55386 L -35.6 -413.15386 L -40.4 -408.35386 L -45 -402.15386 L -49.4 -395.95386 L -54.2 -387.35386 L -59 -377.95386 L -63.8 -368.75386 L -67.4 -360.15386 L -71.4 -351.15386 L -74.6 -342.95385 L -78.4 -333.55385 L -81.2 -325.55385 L -84.2 -317.15385 Z" fill="white"/>
      <path d="M -86 -310.55385 L -79.8 -306.15385 L -71.6 -302.15385 L -63 -298.55385 L -54 -294.75385 L -43 -290.75385 L -33.6 -287.95385 L -24.6 -285.35385 L -15.599999 -282.75385 L -10.199999 -281.35385 L -4.599999 -280.35385 L -2.1999988 -286.15385 L .4000013 -291.55385 L 2.6000013 -295.55385 L 5.2000014 -298.95385 L 5.4000014 -307.95385 L 4.8000014 -318.95385 L 3.0000013 -329.75385 L 1.4000013 -340.15385 L -1.1999987 -351.15386 L -3.5999988 -360.75386 L -6.399999 -368.75386 L -9.599999 -378.15386 L -12.399999 -385.55386 L -15.999999 -393.15386 L -20 -400.75386 L -24 -408.15386 L -26.6 -411.75386 L -30.2 -417.55386 L -35.6 -413.15386 L -40.4 -408.35386 L -45 -402.15386 L -49.4 -395.95386 L -54.2 -387.35386 L -59 -377.95386 L -63.8 -368.75386 L -67.4 -360.15386 L -71.4 -351.15386 L -74.6 -342.95385 L -78.4 -333.55385 L -81.2 -325.55385 L -84.2 -317.15385 Z" stroke="#7f8080" stroke-linecap="round" stroke-linejoin="round" stroke-width="1"/>
      <path d="M 345.4053 -311.49725 L 339.2053 -307.09725 L 331.0053 -303.09725 L 322.4053 -299.49725 L 313.4053 -295.69725 L 302.4053 -291.69725 L 293.0053 -288.89725 L 284.0053 -286.29725 L 275.0053 -283.69725 L 269.6053 -282.29725 L 264.0053 -281.29725 L 261.6053 -287.09725 L 259.0053 -292.49725 L 256.8053 -296.49725 L 254.2053 -299.89725 L 254.0053 -308.89725 L 254.6053 -319.89725 L 256.4053 -330.69725 L 258.0053 -341.09725 L 260.6053 -352.09725 L 263.0053 -361.69725 L 265.8053 -369.69725 L 269.0053 -379.09725 L 271.8053 -386.49725 L 275.4053 -394.09725 L 279.4053 -401.69725 L 283.4053 -409.09725 L 286.0053 -412.69725 L 289.6053 -418.49725 L 295.0053 -414.09725 L 299.8053 -409.29725 L 304.4053 -403.09725 L 308.8053 -396.89725 L 313.6053 -388.29725 L 318.4053 -378.89725 L 323.2053 -369.69725 L 326.8053 -361.09725 L 330.8053 -352.09725 L 334.0053 -343.89725 L 337.8053 -334.49725 L 340.6053 -326.49725 L 343.6053 -318.09725 Z" fill="white"/>
      <path d="M 345.4053 -311.49725 L 339.2053 -307.09725 L 331.0053 -303.09725 L 322.4053 -299.49725 L 313.4053 -295.69725 L 302.4053 -291.69725 L 293.0053 -288.89725 L 284.0053 -286.29725 L 275.0053 -283.69725 L 269.6053 -282.29725 L 264.0053 -281.29725 L 261.6053 -287.09725 L 259.0053 -292.49725 L 256.8053 -296.49725 L 254.2053 -299.89725 L 254.0053 -308.89725 L 254.6053 -319.89725 L 256.4053 -330.69725 L 258.0053 -341.09725 L 260.6053 -352.09725 L 263.0053 -361.69725 L 265.8053 -369.69725 L 269.0053 -379.09725 L 271.8053 -386.49725 L 275.4053 -394.09725 L 279.4053 -401.69725 L 283.4053 -409.09725 L 286.0053 -412.69725 L 289.6053 -418.49725 L 295.0053 -414.09725 L 299.8053 -409.29725 L 304.4053 -403.09725 L 308.8053 -396.89725 L 313.6053 -388.29725 L 318.4053 -378.89725 L 323.2053 -369.69725 L 326.8053 -361.09725 L 330.8053 -352.09725 L 334.0053 -343.89725 L 337.8053 -334.49725 L 340.6053 -326.49725 L 343.6053 -318.09725 Z" stroke="#7f8080" stroke-linecap="round" stroke-linejoin="round" stroke-width="1"/>
      <path d="M 64.57212 -460.0362 L 59.84295 -455.98264 C 58.6926 -454.9966 57.44764 -454.1267 56.12621 -453.3855 L 53.59958 -451.96835 C 52.164406 -451.1634 51.5836 -449.39425 52.26239 -447.89527 L 53.280006 -445.64803 C 53.401585 -445.37954 53.52831 -445.1134 53.66012 -444.8498 L 55.46239 -441.24526 L 57.94938 -436.2713 C 58.291174 -435.5877 58.66683 -434.92157 59.07495 -434.2754 L 61.40134 -430.5919 C 61.84172 -429.89465 62.31928 -429.2216 62.83195 -428.5756 L 66.24264 -424.27815 C 66.78869 -423.59013 67.37371 -422.93394 67.99482 -422.31283 L 72.660865 -417.6468 C 73.061745 -417.2459 73.47731 -416.86 73.90671 -416.4898 L 78.47023 -412.55574 C 78.86489 -412.2155 79.271 -411.8888 79.68785 -411.57617 L 83.66279 -408.59497 C 84.3287 -408.09553 85.02123 -407.6326 85.73733 -407.20826 L 89.87039 -404.75904 C 89.99839 -404.6832 90.12712 -404.6086 90.25656 -404.53523 L 94.95411 -401.8733 C 95.6924 -401.45493 96.45328 -401.07774 97.23325 -400.74347 L 100.78307 -399.2221 C 101.36903 -398.971 101.96518 -398.74433 102.56997 -398.54274 L 107.58808 -396.87003 C 108.83532 -396.4543 110.11592 -396.14624 111.4158 -395.9493 L 115.51464 -395.32826 C 115.87976 -395.27294 116.24615 -395.2264 116.6135 -395.18874 L 123.4946 -394.483 C 123.73978 -394.45784 123.98534 -394.43664 124.2312 -394.4194 L 128.75835 -394.1017 C 129.29421 -394.0641 129.83122 -394.04527 130.3684 -394.04527 L 133.63046 -394.04526 C 134.58416 -394.04526 135.53693 -394.1046 136.48327 -394.22287 L 140.47198 -394.72146 C 141.13195 -394.80396 141.78802 -394.91504 142.43835 -395.0544 L 148.52039 -396.3577 C 149.41426 -396.54924 150.29592 -396.7939 151.16068 -397.0904 L 155.66952 -398.6363 C 156.46417 -398.90873 157.2433 -399.2245 158.0034 -399.5822 L 162.83677 -401.85674 C 163.38697 -402.11565 163.92668 -402.3963 164.45464 -402.69798 L 168.2225 -404.85104 C 168.9153 -405.2469 169.58701 -405.6786 170.23494 -406.1443 L 174.91106 -409.50525 C 175.41175 -409.8651 175.89776 -410.24497 176.36792 -410.6439 L 181.68877 -415.15856 C 182.07108 -415.48294 182.44269 -415.81974 182.80298 -416.1684 L 187.5022 -420.71604 C 188.1418 -421.335 188.74491 -421.99056 189.30852 -422.6794 L 193.1018 -427.31566 C 193.60852 -427.93497 194.08257 -428.5803 194.52201 -429.24904 L 198.1392 -434.75344 C 198.35462 -435.08127 198.56163 -435.41456 198.76002 -435.753 L 201.2831 -440.0571 C 201.66906 -440.71546 202.022 -441.39265 202.34062 -442.0861 L 204.45932 -446.6974 C 204.99218 -447.85715 205.36334 -449.08456 205.5624 -450.34526 L 205.5624 -450.34526 C 205.7407 -451.4745 205.1614 -452.588 204.13432 -453.0901 L 198.84088 -455.678 C 197.52642 -456.32063 196.29183 -457.11514 195.1624 -458.04526 L 194.75638 -458.3796 C 193.91205 -459.07496 193.28864 -460.00126 192.9624 -461.04526 L 192.9624 -461.04526 C 192.91573 -461.1946 192.75686 -461.2778 192.60754 -461.23114 C 192.49247 -461.1952 192.41277 -461.0903 192.40892 -460.9698 L 192.29968 -457.5469 C 192.20894 -454.7038 191.5916 -451.90224 190.479 -449.28433 L 189.60206 -447.22096 C 189.0435 -445.9067 188.36374 -444.6473 187.5716 -443.4591 L 183.88582 -437.9304 C 183.13831 -436.80915 182.2937 -435.75575 181.36175 -434.7824 L 175.06668 -428.20753 C 174.19861 -427.3009 173.25777 -426.4668 172.2536 -425.71367 L 163.8787 -419.4325 C 163.00228 -418.7752 162.08002 -418.18133 161.11896 -417.65546 L 153.93376 -413.72394 C 152.62263 -413.00653 151.2447 -412.41863 149.81952 -411.96857 L 143.1466 -409.86133 C 141.42973 -409.31916 139.65514 -408.98046 137.85927 -408.8522 L 130.97281 -408.3603 C 129.90052 -408.2837 128.82417 -408.2824 127.75168 -408.35635 L 119.31543 -408.93816 C 118.28125 -409.0095 117.25308 -409.15064 116.23795 -409.36067 L 109.10274 -410.8369 C 107.15079 -411.24077 105.25961 -411.89665 103.47676 -412.7881 L 98.81735 -415.1178 C 97.58321 -415.73485 96.40711 -416.46173 95.30326 -417.2896 L 89.6213 -421.5511 C 89.18217 -421.88043 88.75496 -422.2254 88.34051 -422.5853 L 82.58533 -427.58324 C 81.77104 -428.2904 81.0075 -429.0539 80.30036 -429.8682 L 75.895135 -434.9409 C 75.14103 -435.80925 74.45312 -436.73295 73.8372 -437.7042 L 70.1035 -443.592 C 69.74293 -444.16056 69.407505 -444.7447 69.09819 -445.3427 L 67.477815 -448.47544 C 66.86867 -449.6531 66.3625 -450.88126 65.964965 -452.14615 L 64.684726 -456.21964 C 64.46995 -456.903 64.28722 -457.59605 64.137126 -458.2965 L 63.91171 -459.34843 C 63.826635 -459.74544 64.05299 -460.1431 64.4378 -460.27263 L 64.4378 -460.27263 C 64.51029 -460.29704 64.588844 -460.25805 64.61325 -460.18556 C 64.63126 -460.13205 64.61499 -460.07296 64.57212 -460.0362 Z" fill="url(#Obj_Gradient_2)"/>
      <path d="M 64.57212 -460.0362 L 59.84295 -455.98264 C 58.6926 -454.9966 57.44764 -454.1267 56.12621 -453.3855 L 53.59958 -451.96835 C 52.164406 -451.1634 51.5836 -449.39425 52.26239 -447.89527 L 53.280006 -445.64803 C 53.401585 -445.37954 53.52831 -445.1134 53.66012 -444.8498 L 55.46239 -441.24526 L 57.94938 -436.2713 C 58.291174 -435.5877 58.66683 -434.92157 59.07495 -434.2754 L 61.40134 -430.5919 C 61.84172 -429.89465 62.31928 -429.2216 62.83195 -428.5756 L 66.24264 -424.27815 C 66.78869 -423.59013 67.37371 -422.93394 67.99482 -422.31283 L 72.660865 -417.6468 C 73.061745 -417.2459 73.47731 -416.86 73.90671 -416.4898 L 78.47023 -412.55574 C 78.86489 -412.2155 79.271 -411.8888 79.68785 -411.57617 L 83.66279 -408.59497 C 84.3287 -408.09553 85.02123 -407.6326 85.73733 -407.20826 L 89.87039 -404.75904 C 89.99839 -404.6832 90.12712 -404.6086 90.25656 -404.53523 L 94.95411 -401.8733 C 95.6924 -401.45493 96.45328 -401.07774 97.23325 -400.74347 L 100.78307 -399.2221 C 101.36903 -398.971 101.96518 -398.74433 102.56997 -398.54274 L 107.58808 -396.87003 C 108.83532 -396.4543 110.11592 -396.14624 111.4158 -395.9493 L 115.51464 -395.32826 C 115.87976 -395.27294 116.24615 -395.2264 116.6135 -395.18874 L 123.4946 -394.483 C 123.73978 -394.45784 123.98534 -394.43664 124.2312 -394.4194 L 128.75835 -394.1017 C 129.29421 -394.0641 129.83122 -394.04527 130.3684 -394.04527 L 133.63046 -394.04526 C 134.58416 -394.04526 135.53693 -394.1046 136.48327 -394.22287 L 140.47198 -394.72146 C 141.13195 -394.80396 141.78802 -394.91504 142.43835 -395.0544 L 148.52039 -396.3577 C 149.41426 -396.54924 150.29592 -396.7939 151.16068 -397.0904 L 155.66952 -398.6363 C 156.46417 -398.90873 157.2433 -399.2245 158.0034 -399.5822 L 162.83677 -401.85674 C 163.38697 -402.11565 163.92668 -402.3963 164.45464 -402.69798 L 168.2225 -404.85104 C 168.9153 -405.2469 169.58701 -405.6786 170.23494 -406.1443 L 174.91106 -409.50525 C 175.41175 -409.8651 175.89776 -410.24497 176.36792 -410.6439 L 181.68877 -415.15856 C 182.07108 -415.48294 182.44269 -415.81974 182.80298 -416.1684 L 187.5022 -420.71604 C 188.1418 -421.335 188.74491 -421.99056 189.30852 -422.6794 L 193.1018 -427.31566 C 193.60852 -427.93497 194.08257 -428.5803 194.52201 -429.24904 L 198.1392 -434.75344 C 198.35462 -435.08127 198.56163 -435.41456 198.76002 -435.753 L 201.2831 -440.0571 C 201.66906 -440.71546 202.022 -441.39265 202.34062 -442.0861 L 204.45932 -446.6974 C 204.99218 -447.85715 205.36334 -449.08456 205.5624 -450.34526 L 205.5624 -450.34526 C 205.7407 -451.4745 205.1614 -452.588 204.13432 -453.0901 L 198.84088 -455.678 C 197.52642 -456.32063 196.29183 -457.11514 195.1624 -458.04526 L 194.75638 -458.3796 C 193.91205 -459.07496 193.28864 -460.00126 192.9624 -461.04526 L 192.9624 -461.04526 C 192.91573 -461.1946 192.75686 -461.2778 192.60754 -461.23114 C 192.49247 -461.1952 192.41277 -461.0903 192.40892 -460.9698 L 192.29968 -457.5469 C 192.20894 -454.7038 191.5916 -451.90224 190.479 -449.28433 L 189.60206 -447.22096 C 189.0435 -445.9067 188.36374 -444.6473 187.5716 -443.4591 L 183.88582 -437.9304 C 183.13831 -436.80915 182.2937 -435.75575 181.36175 -434.7824 L 175.06668 -428.20753 C 174.19861 -427.3009 173.25777 -426.4668 172.2536 -425.71367 L 163.8787 -419.4325 C 163.00228 -418.7752 162.08002 -418.18133 161.11896 -417.65546 L 153.93376 -413.72394 C 152.62263 -413.00653 151.2447 -412.41863 149.81952 -411.96857 L 143.1466 -409.86133 C 141.42973 -409.31916 139.65514 -408.98046 137.85927 -408.8522 L 130.97281 -408.3603 C 129.90052 -408.2837 128.82417 -408.2824 127.75168 -408.35635 L 119.31543 -408.93816 C 118.28125 -409.0095 117.25308 -409.15064 116.23795 -409.36067 L 109.10274 -410.8369 C 107.15079 -411.24077 105.25961 -411.89665 103.47676 -412.7881 L 98.81735 -415.1178 C 97.58321 -415.73485 96.40711 -416.46173 95.30326 -417.2896 L 89.6213 -421.5511 C 89.18217 -421.88043 88.75496 -422.2254 88.34051 -422.5853 L 82.58533 -427.58324 C 81.77104 -428.2904 81.0075 -429.0539 80.30036 -429.8682 L 75.895135 -434.9409 C 75.14103 -435.80925 74.45312 -436.73295 73.8372 -437.7042 L 70.1035 -443.592 C 69.74293 -444.16056 69.407505 -444.7447 69.09819 -445.3427 L 67.477815 -448.47544 C 66.86867 -449.6531 66.3625 -450.88126 65.964965 -452.14615 L 64.684726 -456.21964 C 64.46995 -456.903 64.28722 -457.59605 64.137126 -458.2965 L 63.91171 -459.34843 C 63.826635 -459.74544 64.05299 -460.1431 64.4378 -460.27263 L 64.4378 -460.27263 C 64.51029 -460.29704 64.588844 -460.25805 64.61325 -460.18556 C 64.63126 -460.13205 64.61499 -460.07296 64.57212 -460.0362 Z" stroke="#7f8080" stroke-linecap="round" stroke-linejoin="round" stroke-width="1"/>
      <path d="M 64.05925 -460.2441 L 69.45925 -460.8441 L 76.25925 -457.4441 L 81.25925 -455.6441 L 89.65925 -453.8441 L 98.05925 -452.8441 L 106.05925 -451.8441 L 113.65925 -451.6441 L 122.25925 -451.2441 L 133.85925 -451.4441 L 142.25925 -451.8441 L 151.65925 -452.4441 L 160.05925 -453.2441 L 169.25925 -454.6441 L 177.45925 -456.8441 L 183.25925 -458.6441 L 188.85925 -461.2441 L 191.65925 -460.0441 L 192.05925 -454.4441 L 189.25925 -446.4441 L 183.85925 -443.6441 L 173.25925 -440.4441 L 161.85925 -438.0441 L 150.65925 -437.2441 L 138.25925 -436.2441 L 127.85925 -436.2441 L 118.45925 -436.2441 L 106.85925 -436.8441 L 95.65925 -437.6441 L 85.05925 -439.8441 L 76.45925 -441.8441 L 70.25925 -444.6441 L 68.25925 -446.2441 L 65.05925 -453.8441 Z" fill="#0000c8"/>
      <path d="M 64.05925 -460.2441 L 69.45925 -460.8441 L 76.25925 -457.4441 L 81.25925 -455.6441 L 89.65925 -453.8441 L 98.05925 -452.8441 L 106.05925 -451.8441 L 113.65925 -451.6441 L 122.25925 -451.2441 L 133.85925 -451.4441 L 142.25925 -451.8441 L 151.65925 -452.4441 L 160.05925 -453.2441 L 169.25925 -454.6441 L 177.45925 -456.8441 L 183.25925 -458.6441 L 188.85925 -461.2441 L 191.65925 -460.0441 L 192.05925 -454.4441 L 189.25925 -446.4441 L 183.85925 -443.6441 L 173.25925 -440.4441 L 161.85925 -438.0441 L 150.65925 -437.2441 L 138.25925 -436.2441 L 127.85925 -436.2441 L 118.45925 -436.2441 L 106.85925 -436.8441 L 95.65925 -437.6441 L 85.05925 -439.8441 L 76.45925 -441.8441 L 70.25925 -444.6441 L 68.25925 -446.2441 L 65.05925 -453.8441 Z" stroke="#7f8080" stroke-linecap="round" stroke-linejoin="round" stroke-width="1"/>
      <path d="M 342.6958 -318.4 L 336.4958 -314 L 328.2958 -310 L 319.6958 -306.4 L 310.6958 -302.6 L 299.6958 -298.6 L 290.2958 -295.8 L 281.2958 -293.2 L 272.2958 -290.6 L 266.8958 -289.2 L 261.2958 -288.2 L 258.2958 -294.6 L 262.0958 -295.4 L 266.8958 -296.6 L 272.4958 -297.8 L 278.4958 -299.6 L 283.0958 -301 L 287.2958 -302.2 L 291.8958 -304.2 L 296.4958 -305.8 L 301.2958 -307.8 L 305.2958 -309.2 L 310.4958 -311.4 L 315.0958 -313 L 319.8958 -315.2 L 324.6958 -317 L 328.6958 -319 L 333.0958 -321.2 L 337.4958 -323.4 L 340.8958 -325 Z" fill="blue"/>
      <path d="M 342.6958 -318.4 L 336.4958 -314 L 328.2958 -310 L 319.6958 -306.4 L 310.6958 -302.6 L 299.6958 -298.6 L 290.2958 -295.8 L 281.2958 -293.2 L 272.2958 -290.6 L 266.8958 -289.2 L 261.2958 -288.2 L 258.2958 -294.6 L 262.0958 -295.4 L 266.8958 -296.6 L 272.4958 -297.8 L 278.4958 -299.6 L 283.0958 -301 L 287.2958 -302.2 L 291.8958 -304.2 L 296.4958 -305.8 L 301.2958 -307.8 L 305.2958 -309.2 L 310.4958 -311.4 L 315.0958 -313 L 319.8958 -315.2 L 324.6958 -317 L 328.6958 -319 L 333.0958 -321.2 L 337.4958 -323.4 L 340.8958 -325 Z" stroke="#7f8080" stroke-linecap="round" stroke-linejoin="round" stroke-width=".5"/>
      <path d="M -83.29051 -317.4 L -77.09051 -313 L -68.89051 -309 L -60.29051 -305.4 L -51.290513 -301.6 L -40.290513 -297.6 L -30.890513 -294.8 L -21.890513 -292.2 L -12.890513 -289.6 L -7.490513 -288.2 L -1.8905126 -287.2 L 1.1094875 -293.6 L -2.6905126 -294.4 L -7.490513 -295.6 L -13.090513 -296.8 L -19.090513 -298.6 L -23.690513 -300 L -27.890513 -301.2 L -32.490513 -303.2 L -37.090513 -304.8 L -41.890513 -306.8 L -45.890513 -308.2 L -51.090513 -310.4 L -55.690513 -312 L -60.49051 -314.2 L -65.29051 -316 L -69.29051 -318 L -73.69051 -320.2 L -78.09051 -322.4 L -81.49051 -324 Z" fill="blue"/>
      <path d="M -83.29051 -317.4 L -77.09051 -313 L -68.89051 -309 L -60.29051 -305.4 L -51.290513 -301.6 L -40.290513 -297.6 L -30.890513 -294.8 L -21.890513 -292.2 L -12.890513 -289.6 L -7.490513 -288.2 L -1.8905126 -287.2 L 1.1094875 -293.6 L -2.6905126 -294.4 L -7.490513 -295.6 L -13.090513 -296.8 L -19.090513 -298.6 L -23.690513 -300 L -27.890513 -301.2 L -32.490513 -303.2 L -37.090513 -304.8 L -41.890513 -306.8 L -45.890513 -308.2 L -51.090513 -310.4 L -55.690513 -312 L -60.49051 -314.2 L -65.29051 -316 L -69.29051 -318 L -73.69051 -320.2 L -78.09051 -322.4 L -81.49051 -324 Z" stroke="#7f8080" stroke-linecap="round" stroke-linejoin="round" stroke-width="1"/>
      <path d="M -5.813819 -43.67347 L -5.874418 -43.188674 C -5.900672 -42.978645 -5.917386 -42.767534 -5.9245084 -42.55599 L -6.129012 -36.48232 C -6.17288 -35.17946 -5.512336 -33.953773 -4.4 -33.27401 L -4.1743885 -33.13614 C -3.2290582 -32.558436 -2.0234029 -32.633394 -1.1569094 -33.32374 L -.871941 -33.55078 C -.16028968 -34.11776 .8077782 -34.241516 1.6391763 -33.871796 L 2.092979 -33.66999 C 2.6895074 -33.404717 3.3202133 -33.224198 3.9667606 -33.13368 L 12.977181 -31.872222 C 12.987175 -31.870823 12.997171 -31.869446 13.00717 -31.86809 L 24.243046 -30.34458 C 24.608558 -30.29502 24.96958 -30.216647 25.322742 -30.110193 L 33.99544 -27.49596 C 34.2649 -27.414735 34.539017 -27.349835 34.816293 -27.301613 L 47.847525 -25.035312 C 48.082355 -24.994472 48.31912 -24.965653 48.55689 -24.948967 L 59.46521 -24.18347 C 59.55506 -24.177165 59.64478 -24.169126 59.73432 -24.159358 L 70.4742 -22.987735 C 70.55806 -22.978587 70.64175 -22.967924 70.72522 -22.95575 L 79.90481 -21.61706 C 80.10151 -21.588374 80.29935 -21.56808 80.49779 -21.556233 L 93.14188 -20.801362 C 93.44697 -20.783148 93.75292 -20.784934 94.05777 -20.80671 L 107.2302 -21.747597 C 107.47656 -21.765195 107.72182 -21.795818 107.96494 -21.83934 L 117.5803 -23.560592 C 117.98742 -23.63347 118.40019 -23.670124 118.81377 -23.670124 L 128.93077 -23.670124 C 128.9717 -23.670124 129.01264 -23.669765 129.05356 -23.669047 L 139.75634 -23.481279 C 140.17936 -23.473857 140.60083 -23.4281 141.01559 -23.34457 L 150.29763 -21.475188 C 150.6321 -21.407827 150.97104 -21.36501 151.31175 -21.347077 L 161.73427 -20.798524 C 162.04441 -20.7822 162.3553 -20.786536 162.66487 -20.8115 L 174.49955 -21.76591 C 174.56651 -21.77131 174.63356 -21.775747 174.70065 -21.779218 L 185.65712 -22.345932 C 186.0185 -22.364623 186.37788 -22.41131 186.73204 -22.485568 L 197.9942 -24.84699 C 198.39728 -24.931506 198.80703 -24.980285 199.21869 -24.99276 L 211.36108 -25.36071 C 211.6534 -25.36957 211.9449 -25.39674 212.23383 -25.442062 L 221.43572 -26.885496 C 221.81128 -26.94441 222.18143 -27.033818 222.54248 -27.152837 L 229.8731 -29.569365 C 230.87293 -29.898957 231.93423 -29.998788 232.97798 -29.861427 L 244.40363 -28.35778 C 245.3253 -28.236483 246.26192 -28.29999 247.1588 -28.54459 L 252.05832 -29.880825 C 252.28596 -29.94291 252.5166 -29.993445 252.74935 -30.032236 L 257.01183 -30.74265 C 257.13726 -30.763554 257.26323 -30.781037 257.3896 -30.79508 L 259 -30.97401 C 260.1803 -31.105157 261.30737 -31.536415 262.27374 -32.22668 L 262.9 -32.67401 C 264.18836 -33.594264 264.85058 -35.16019 264.6134 -36.725588 L 264.079 -40.25267 C 264.0264 -40.59974 264 -40.950274 264 -41.301306 L 264 -42.27401 C 264 -42.94115 263.45918 -43.48197 262.79204 -43.48197 C 262.70545 -43.48197 262.6191 -43.47266 262.5345 -43.454197 L 256.3119 -42.09625 C 256.2321 -42.078834 256.15198 -42.062816 256.07162 -42.048204 L 243.13136 -39.69543 C 243.03858 -39.67856 242.94547 -39.66357 242.85208 -39.65046 L 231.6224 -38.074366 C 231.60225 -38.07154 231.5821 -38.06862 231.562 -38.06562 L 218.39286 -36.100077 C 218.2591 -36.080113 218.12478 -36.06403 217.9901 -36.051846 L 207.4817 -35.101395 C 207.27599 -35.082788 207.06954 -35.073296 206.86298 -35.072947 L 205.42902 -35.070524 C 205.27117 -35.070257 205.11337 -35.06465 204.9559 -35.053716 L 190.82605 -34.072476 C 190.80347 -34.07091 190.78087 -34.06945 190.75828 -34.0681 L 177.45502 -33.273876 C 177.41312 -33.271375 177.3712 -33.26925 177.32927 -33.267503 L 163.13782 -32.676192 C 163.04073 -32.672147 162.94357 -32.670124 162.8464 -32.670124 L 149.59217 -32.670124 L 137.0505 -32.670124 C 137.01162 -32.670124 136.97273 -32.6698 136.93385 -32.66915 L 125.17546 -32.47318 C 125.05329 -32.471142 124.93109 -32.472305 124.80897 -32.476667 L 113.97537 -32.86358 C 113.85326 -32.867942 113.73105 -32.869105 113.60888 -32.86707 L 101.89424 -32.671825 C 101.8262 -32.67069 101.75814 -32.67055 101.6901 -32.6714 L 85.98781 -32.86768 C 85.85741 -32.86931 85.72708 -32.874582 85.59697 -32.883493 L 71.2872 -33.863615 C 71.22385 -33.867954 71.160565 -33.873155 71.09736 -33.879215 L 56.606354 -35.268764 C 56.5969 -35.26967 56.587447 -35.270596 56.577996 -35.27154 L 42.76596 -36.652745 C 42.65012 -36.66433 42.534585 -36.6788 42.419466 -36.69615 L 28.110315 -38.85232 C 28.03156 -38.86419 27.952605 -38.87471 27.87349 -38.883884 L 14.353557 -40.451412 C 14.245981 -40.463885 14.138709 -40.478852 14.031828 -40.496302 L 4.639739 -42.029705 C 4.474747 -42.05664 4.3107725 -42.08948 4.1481317 -42.12816 L -4.9294676 -44.28694 C -5.317786 -44.379287 -5.707443 -44.139355 -5.799791 -43.751036 C -5.805874 -43.725455 -5.810557 -43.69956 -5.813819 -43.67347 Z" fill="blue"/>
      <path d="M -5.813819 -43.67347 L -5.874418 -43.188674 C -5.900672 -42.978645 -5.917386 -42.767534 -5.9245084 -42.55599 L -6.129012 -36.48232 C -6.17288 -35.17946 -5.512336 -33.953773 -4.4 -33.27401 L -4.1743885 -33.13614 C -3.2290582 -32.558436 -2.0234029 -32.633394 -1.1569094 -33.32374 L -.871941 -33.55078 C -.16028968 -34.11776 .8077782 -34.241516 1.6391763 -33.871796 L 2.092979 -33.66999 C 2.6895074 -33.404717 3.3202133 -33.224198 3.9667606 -33.13368 L 12.977181 -31.872222 C 12.987175 -31.870823 12.997171 -31.869446 13.00717 -31.86809 L 24.243046 -30.34458 C 24.608558 -30.29502 24.96958 -30.216647 25.322742 -30.110193 L 33.99544 -27.49596 C 34.2649 -27.414735 34.539017 -27.349835 34.816293 -27.301613 L 47.847525 -25.035312 C 48.082355 -24.994472 48.31912 -24.965653 48.55689 -24.948967 L 59.46521 -24.18347 C 59.55506 -24.177165 59.64478 -24.169126 59.73432 -24.159358 L 70.4742 -22.987735 C 70.55806 -22.978587 70.64175 -22.967924 70.72522 -22.95575 L 79.90481 -21.61706 C 80.10151 -21.588374 80.29935 -21.56808 80.49779 -21.556233 L 93.14188 -20.801362 C 93.44697 -20.783148 93.75292 -20.784934 94.05777 -20.80671 L 107.2302 -21.747597 C 107.47656 -21.765195 107.72182 -21.795818 107.96494 -21.83934 L 117.5803 -23.560592 C 117.98742 -23.63347 118.40019 -23.670124 118.81377 -23.670124 L 128.93077 -23.670124 C 128.9717 -23.670124 129.01264 -23.669765 129.05356 -23.669047 L 139.75634 -23.481279 C 140.17936 -23.473857 140.60083 -23.4281 141.01559 -23.34457 L 150.29763 -21.475188 C 150.6321 -21.407827 150.97104 -21.36501 151.31175 -21.347077 L 161.73427 -20.798524 C 162.04441 -20.7822 162.3553 -20.786536 162.66487 -20.8115 L 174.49955 -21.76591 C 174.56651 -21.77131 174.63356 -21.775747 174.70065 -21.779218 L 185.65712 -22.345932 C 186.0185 -22.364623 186.37788 -22.41131 186.73204 -22.485568 L 197.9942 -24.84699 C 198.39728 -24.931506 198.80703 -24.980285 199.21869 -24.99276 L 211.36108 -25.36071 C 211.6534 -25.36957 211.9449 -25.39674 212.23383 -25.442062 L 221.43572 -26.885496 C 221.81128 -26.94441 222.18143 -27.033818 222.54248 -27.152837 L 229.8731 -29.569365 C 230.87293 -29.898957 231.93423 -29.998788 232.97798 -29.861427 L 244.40363 -28.35778 C 245.3253 -28.236483 246.26192 -28.29999 247.1588 -28.54459 L 252.05832 -29.880825 C 252.28596 -29.94291 252.5166 -29.993445 252.74935 -30.032236 L 257.01183 -30.74265 C 257.13726 -30.763554 257.26323 -30.781037 257.3896 -30.79508 L 259 -30.97401 C 260.1803 -31.105157 261.30737 -31.536415 262.27374 -32.22668 L 262.9 -32.67401 C 264.18836 -33.594264 264.85058 -35.16019 264.6134 -36.725588 L 264.079 -40.25267 C 264.0264 -40.59974 264 -40.950274 264 -41.301306 L 264 -42.27401 C 264 -42.94115 263.45918 -43.48197 262.79204 -43.48197 C 262.70545 -43.48197 262.6191 -43.47266 262.5345 -43.454197 L 256.3119 -42.09625 C 256.2321 -42.078834 256.15198 -42.062816 256.07162 -42.048204 L 243.13136 -39.69543 C 243.03858 -39.67856 242.94547 -39.66357 242.85208 -39.65046 L 231.6224 -38.074366 C 231.60225 -38.07154 231.5821 -38.06862 231.562 -38.06562 L 218.39286 -36.100077 C 218.2591 -36.080113 218.12478 -36.06403 217.9901 -36.051846 L 207.4817 -35.101395 C 207.27599 -35.082788 207.06954 -35.073296 206.86298 -35.072947 L 205.42902 -35.070524 C 205.27117 -35.070257 205.11337 -35.06465 204.9559 -35.053716 L 190.82605 -34.072476 C 190.80347 -34.07091 190.78087 -34.06945 190.75828 -34.0681 L 177.45502 -33.273876 C 177.41312 -33.271375 177.3712 -33.26925 177.32927 -33.267503 L 163.13782 -32.676192 C 163.04073 -32.672147 162.94357 -32.670124 162.8464 -32.670124 L 149.59217 -32.670124 L 137.0505 -32.670124 C 137.01162 -32.670124 136.97273 -32.6698 136.93385 -32.66915 L 125.17546 -32.47318 C 125.05329 -32.471142 124.93109 -32.472305 124.80897 -32.476667 L 113.97537 -32.86358 C 113.85326 -32.867942 113.73105 -32.869105 113.60888 -32.86707 L 101.89424 -32.671825 C 101.8262 -32.67069 101.75814 -32.67055 101.6901 -32.6714 L 85.98781 -32.86768 C 85.85741 -32.86931 85.72708 -32.874582 85.59697 -32.883493 L 71.2872 -33.863615 C 71.22385 -33.867954 71.160565 -33.873155 71.09736 -33.879215 L 56.606354 -35.268764 C 56.5969 -35.26967 56.587447 -35.270596 56.577996 -35.27154 L 42.76596 -36.652745 C 42.65012 -36.66433 42.534585 -36.6788 42.419466 -36.69615 L 28.110315 -38.85232 C 28.03156 -38.86419 27.952605 -38.87471 27.87349 -38.883884 L 14.353557 -40.451412 C 14.245981 -40.463885 14.138709 -40.478852 14.031828 -40.496302 L 4.639739 -42.029705 C 4.474747 -42.05664 4.3107725 -42.08948 4.1481317 -42.12816 L -4.9294676 -44.28694 C -5.317786 -44.379287 -5.707443 -44.139355 -5.799791 -43.751036 C -5.805874 -43.725455 -5.810557 -43.69956 -5.813819 -43.67347 Z" stroke="#7f8080" stroke-linecap="round" stroke-linejoin="round" stroke-width="1"/>
      <path d="M -6.1867866 -34.79999 L -6.1867866 -34.79999 C -6.252471 -34.274514 -6.189645 -33.740947 -6.003702 -33.2451 L -5.3526936 -31.509076 C -5.175938 -31.037728 -4.9488533 -30.58682 -4.6753805 -30.16418 L -3.7075665 -28.66847 C -3.1666084 -27.832443 -2.4535061 -27.121454 -1.6158785 -26.58298 L -.53782965 -25.889947 C -.23757403 -25.696926 .07700569 -25.527153 .4031569 -25.382115 L 1.7200111 -24.796514 C 2.3165396 -24.53124 2.9472455 -24.35072 3.593793 -24.260204 L 12.604213 -22.998745 C 12.614207 -22.997346 12.624203 -22.995968 12.634203 -22.994612 L 24.350201 -21.406002 C 24.396202 -21.399765 24.442263 -21.393985 24.488378 -21.388664 L 34.771315 -20.202172 C 34.80324 -20.198488 34.83519 -20.195024 34.867165 -20.19178 L 48.57723 -18.800904 C 48.60521 -18.798065 48.63321 -18.795395 48.661226 -18.792894 L 59.766526 -17.80135 C 59.801644 -17.798214 59.836786 -17.795344 59.87195 -17.79274 L 70.558485 -17.001144 C 70.59896 -16.998145 70.63947 -16.9955 70.67999 -16.993205 L 81.18798 -16.398414 C 81.208795 -16.397235 81.22961 -16.395964 81.25042 -16.3946 L 93.29319 -15.604909 C 93.37719 -15.5994 93.46129 -15.595408 93.54543 -15.592933 L 106.99256 -15.19743 C 107.01032 -15.196907 107.02809 -15.196317 107.04585 -15.19566 L 117.68971 -14.801442 C 117.77603 -14.798245 117.86241 -14.796646 117.94879 -14.796646 L 128.5578 -14.796646 C 128.59874 -14.796646 128.63967 -14.796287 128.6806 -14.795569 L 139.76702 -14.60107 C 139.93509 -14.598122 140.10321 -14.601228 140.27106 -14.610383 L 150.89229 -15.189723 C 150.9769 -15.194338 151.06157 -15.197416 151.14629 -15.198957 L 161.91085 -15.394676 C 161.98308 -15.39599 162.0553 -15.39842 162.12745 -15.40197 L 174.14607 -15.99305 C 174.19483 -15.995447 174.24355 -15.998355 174.29225 -16.001772 L 185.5323 -16.790547 C 185.59023 -16.794613 185.64812 -16.7994 185.70594 -16.804906 L 198.11651 -17.986866 C 198.18497 -17.993386 198.25352 -17.998896 198.32214 -18.003396 L 210.25416 -18.785824 C 210.36418 -18.793038 210.474 -18.80285 210.58355 -18.815251 L 220.9959 -19.994008 C 221.01144 -19.995767 221.02697 -19.997578 221.0425 -19.99944 L 230.9902 -21.193166 C 231.00954 -21.195486 231.02886 -21.197887 231.04818 -21.200368 L 244.88394 -22.977907 C 244.98115 -22.990397 245.0781 -23.004927 245.1747 -23.021487 L 251.7282 -24.144942 C 251.92915 -24.179393 252.13153 -24.205047 252.33473 -24.22183 L 255.56706 -24.488805 C 256.4563 -24.562252 257.3233 -24.805028 258.12135 -25.20406 L 259.60765 -25.947206 C 260.20824 -26.2475 260.7625 -26.632648 261.25338 -27.09081 L 262.5885 -28.33692 C 263.19532 -28.903285 263.65073 -29.612526 263.91322 -30.39999 L 264.20805 -31.284477 C 264.27812 -31.4947 264.33817 -31.708134 264.388 -31.924055 L 264.8577 -33.959444 C 264.89293 -34.112076 264.8595 -34.272476 264.7662 -34.39832 L 264.7662 -34.39832 C 264.67587 -34.520198 264.52523 -34.581695 264.3754 -34.55786 L 255.89555 -33.20879 C 255.84466 -33.200695 255.79385 -33.192037 255.74315 -33.18282 L 242.7584 -30.821952 C 242.6656 -30.805083 242.5725 -30.79009 242.4791 -30.776984 L 231.24943 -29.200888 C 231.22928 -29.19806 231.20914 -29.195144 231.18902 -29.19214 L 218.0199 -27.2266 C 217.88613 -27.206635 217.75182 -27.19055 217.61712 -27.178368 L 207.10874 -26.227917 C 206.90302 -26.20931 206.69657 -26.199818 206.49 -26.19947 L 205.05605 -26.197046 C 204.8982 -26.19678 204.7404 -26.191174 204.58293 -26.180238 L 190.43597 -25.19781 C 190.4248 -25.197034 190.41362 -25.19623 190.40245 -25.195402 L 177.16091 -24.21195 C 177.05365 -24.203985 176.94622 -24.198492 176.83871 -24.195476 L 162.71732 -23.799398 C 162.65191 -23.797563 162.58649 -23.796646 162.52106 -23.796646 L 149.2192 -23.796646 L 136.67753 -23.796646 C 136.63865 -23.796646 136.59976 -23.796322 136.56088 -23.795674 L 124.8025 -23.5997 C 124.68032 -23.597665 124.55812 -23.598828 124.436 -23.60319 L 113.6024 -23.990103 C 113.48029 -23.994464 113.35809 -23.995628 113.23591 -23.99359 L 101.52127 -23.798347 C 101.45323 -23.797213 101.38518 -23.797071 101.31713 -23.797922 L 85.61484 -23.9942 C 85.48444 -23.99583 85.35411 -24.001104 85.22401 -24.010016 L 70.91423 -24.990138 C 70.85088 -24.994476 70.7876 -24.999677 70.72439 -25.005738 L 56.233386 -26.395286 C 56.22393 -26.396193 56.21448 -26.39712 56.20503 -26.398064 L 42.39299 -27.779267 C 42.27715 -27.79085 42.16162 -27.805324 42.0465 -27.82267 L 27.737347 -29.978844 C 27.65859 -29.99071 27.579637 -30.001234 27.50052 -30.010406 L 13.98059 -31.577935 C 13.873013 -31.590407 13.765741 -31.605375 13.65886 -31.622825 L 4.266771 -33.156227 C 4.101779 -33.183165 3.9378047 -33.216004 3.775164 -33.254682 L -5.3024354 -35.41346 C -5.690754 -35.50581 -6.080411 -35.265877 -6.1727585 -34.87756 C -6.178842 -34.851977 -6.183525 -34.826083 -6.1867866 -34.79999 Z" fill="red"/>
      <path d="M -6.1867866 -34.79999 L -6.1867866 -34.79999 C -6.252471 -34.274514 -6.189645 -33.740947 -6.003702 -33.2451 L -5.3526936 -31.509076 C -5.175938 -31.037728 -4.9488533 -30.58682 -4.6753805 -30.16418 L -3.7075665 -28.66847 C -3.1666084 -27.832443 -2.4535061 -27.121454 -1.6158785 -26.58298 L -.53782965 -25.889947 C -.23757403 -25.696926 .07700569 -25.527153 .4031569 -25.382115 L 1.7200111 -24.796514 C 2.3165396 -24.53124 2.9472455 -24.35072 3.593793 -24.260204 L 12.604213 -22.998745 C 12.614207 -22.997346 12.624203 -22.995968 12.634203 -22.994612 L 24.350201 -21.406002 C 24.396202 -21.399765 24.442263 -21.393985 24.488378 -21.388664 L 34.771315 -20.202172 C 34.80324 -20.198488 34.83519 -20.195024 34.867165 -20.19178 L 48.57723 -18.800904 C 48.60521 -18.798065 48.63321 -18.795395 48.661226 -18.792894 L 59.766526 -17.80135 C 59.801644 -17.798214 59.836786 -17.795344 59.87195 -17.79274 L 70.558485 -17.001144 C 70.59896 -16.998145 70.63947 -16.9955 70.67999 -16.993205 L 81.18798 -16.398414 C 81.208795 -16.397235 81.22961 -16.395964 81.25042 -16.3946 L 93.29319 -15.604909 C 93.37719 -15.5994 93.46129 -15.595408 93.54543 -15.592933 L 106.99256 -15.19743 C 107.01032 -15.196907 107.02809 -15.196317 107.04585 -15.19566 L 117.68971 -14.801442 C 117.77603 -14.798245 117.86241 -14.796646 117.94879 -14.796646 L 128.5578 -14.796646 C 128.59874 -14.796646 128.63967 -14.796287 128.6806 -14.795569 L 139.76702 -14.60107 C 139.93509 -14.598122 140.10321 -14.601228 140.27106 -14.610383 L 150.89229 -15.189723 C 150.9769 -15.194338 151.06157 -15.197416 151.14629 -15.198957 L 161.91085 -15.394676 C 161.98308 -15.39599 162.0553 -15.39842 162.12745 -15.40197 L 174.14607 -15.99305 C 174.19483 -15.995447 174.24355 -15.998355 174.29225 -16.001772 L 185.5323 -16.790547 C 185.59023 -16.794613 185.64812 -16.7994 185.70594 -16.804906 L 198.11651 -17.986866 C 198.18497 -17.993386 198.25352 -17.998896 198.32214 -18.003396 L 210.25416 -18.785824 C 210.36418 -18.793038 210.474 -18.80285 210.58355 -18.815251 L 220.9959 -19.994008 C 221.01144 -19.995767 221.02697 -19.997578 221.0425 -19.99944 L 230.9902 -21.193166 C 231.00954 -21.195486 231.02886 -21.197887 231.04818 -21.200368 L 244.88394 -22.977907 C 244.98115 -22.990397 245.0781 -23.004927 245.1747 -23.021487 L 251.7282 -24.144942 C 251.92915 -24.179393 252.13153 -24.205047 252.33473 -24.22183 L 255.56706 -24.488805 C 256.4563 -24.562252 257.3233 -24.805028 258.12135 -25.20406 L 259.60765 -25.947206 C 260.20824 -26.2475 260.7625 -26.632648 261.25338 -27.09081 L 262.5885 -28.33692 C 263.19532 -28.903285 263.65073 -29.612526 263.91322 -30.39999 L 264.20805 -31.284477 C 264.27812 -31.4947 264.33817 -31.708134 264.388 -31.924055 L 264.8577 -33.959444 C 264.89293 -34.112076 264.8595 -34.272476 264.7662 -34.39832 L 264.7662 -34.39832 C 264.67587 -34.520198 264.52523 -34.581695 264.3754 -34.55786 L 255.89555 -33.20879 C 255.84466 -33.200695 255.79385 -33.192037 255.74315 -33.18282 L 242.7584 -30.821952 C 242.6656 -30.805083 242.5725 -30.79009 242.4791 -30.776984 L 231.24943 -29.200888 C 231.22928 -29.19806 231.20914 -29.195144 231.18902 -29.19214 L 218.0199 -27.2266 C 217.88613 -27.206635 217.75182 -27.19055 217.61712 -27.178368 L 207.10874 -26.227917 C 206.90302 -26.20931 206.69657 -26.199818 206.49 -26.19947 L 205.05605 -26.197046 C 204.8982 -26.19678 204.7404 -26.191174 204.58293 -26.180238 L 190.43597 -25.19781 C 190.4248 -25.197034 190.41362 -25.19623 190.40245 -25.195402 L 177.16091 -24.21195 C 177.05365 -24.203985 176.94622 -24.198492 176.83871 -24.195476 L 162.71732 -23.799398 C 162.65191 -23.797563 162.58649 -23.796646 162.52106 -23.796646 L 149.2192 -23.796646 L 136.67753 -23.796646 C 136.63865 -23.796646 136.59976 -23.796322 136.56088 -23.795674 L 124.8025 -23.5997 C 124.68032 -23.597665 124.55812 -23.598828 124.436 -23.60319 L 113.6024 -23.990103 C 113.48029 -23.994464 113.35809 -23.995628 113.23591 -23.99359 L 101.52127 -23.798347 C 101.45323 -23.797213 101.38518 -23.797071 101.31713 -23.797922 L 85.61484 -23.9942 C 85.48444 -23.99583 85.35411 -24.001104 85.22401 -24.010016 L 70.91423 -24.990138 C 70.85088 -24.994476 70.7876 -24.999677 70.72439 -25.005738 L 56.233386 -26.395286 C 56.22393 -26.396193 56.21448 -26.39712 56.20503 -26.398064 L 42.39299 -27.779267 C 42.27715 -27.79085 42.16162 -27.805324 42.0465 -27.82267 L 27.737347 -29.978844 C 27.65859 -29.99071 27.579637 -30.001234 27.50052 -30.010406 L 13.98059 -31.577935 C 13.873013 -31.590407 13.765741 -31.605375 13.65886 -31.622825 L 4.266771 -33.156227 C 4.101779 -33.183165 3.9378047 -33.216004 3.775164 -33.254682 L -5.3024354 -35.41346 C -5.690754 -35.50581 -6.080411 -35.265877 -6.1727585 -34.87756 C -6.178842 -34.851977 -6.183525 -34.826083 -6.1867866 -34.79999 Z" stroke="#7f8080" stroke-linecap="round" stroke-linejoin="round" stroke-width="1"/>
      <path d="M -86 -310.55385 L -79.8 -306.15385 L -71.6 -302.15385 L -63 -298.55385 L -54 -294.75385 L -43 -290.75385 L -33.6 -287.95385 L -24.6 -285.35385 L -15.599999 -282.75385 L -10.199999 -281.35385 L -4.599999 -280.35385 L -1.5999987 -286.75385 L -5.399999 -287.55385 L -10.199999 -288.75385 L -15.799999 -289.95385 L -21.8 -291.75385 L -26.4 -293.15385 L -30.6 -294.35385 L -35.2 -296.35385 L -39.8 -297.95385 L -44.6 -299.95385 L -48.6 -301.35385 L -53.8 -303.55385 L -58.4 -305.15385 L -63.2 -307.35385 L -68 -309.15385 L -72 -311.15385 L -76.4 -313.35385 L -80.8 -315.55385 L -84.2 -317.15385 Z" fill="red"/>
      <path d="M -86 -310.55385 L -79.8 -306.15385 L -71.6 -302.15385 L -63 -298.55385 L -54 -294.75385 L -43 -290.75385 L -33.6 -287.95385 L -24.6 -285.35385 L -15.599999 -282.75385 L -10.199999 -281.35385 L -4.599999 -280.35385 L -1.5999987 -286.75385 L -5.399999 -287.55385 L -10.199999 -288.75385 L -15.799999 -289.95385 L -21.8 -291.75385 L -26.4 -293.15385 L -30.6 -294.35385 L -35.2 -296.35385 L -39.8 -297.95385 L -44.6 -299.95385 L -48.6 -301.35385 L -53.8 -303.55385 L -58.4 -305.15385 L -63.2 -307.35385 L -68 -309.15385 L -72 -311.15385 L -76.4 -313.35385 L -80.8 -315.55385 L -84.2 -317.15385 Z" stroke="#7f8080" stroke-linecap="round" stroke-linejoin="round" stroke-width="1"/>
      <path d="M 345.4053 -311.49725 L 339.2053 -307.09725 L 331.0053 -303.09725 L 322.4053 -299.49725 L 313.4053 -295.69725 L 302.4053 -291.69725 L 293.0053 -288.89725 L 284.0053 -286.29725 L 275.0053 -283.69725 L 269.6053 -282.29725 L 264.0053 -281.29725 L 261.0053 -287.69725 L 264.8053 -288.49725 L 269.6053 -289.69725 L 275.2053 -290.89725 L 281.2053 -292.69725 L 285.8053 -294.09725 L 290.0053 -295.29725 L 294.6053 -297.29725 L 299.2053 -298.89725 L 304.0053 -300.89725 L 308.0053 -302.29725 L 313.2053 -304.49725 L 317.8053 -306.09725 L 322.6053 -308.29725 L 327.4053 -310.09725 L 331.4053 -312.09725 L 335.8053 -314.29725 L 340.2053 -316.49725 L 343.6053 -318.09725 Z" fill="red"/>
      <path d="M 345.4053 -311.49725 L 339.2053 -307.09725 L 331.0053 -303.09725 L 322.4053 -299.49725 L 313.4053 -295.69725 L 302.4053 -291.69725 L 293.0053 -288.89725 L 284.0053 -286.29725 L 275.0053 -283.69725 L 269.6053 -282.29725 L 264.0053 -281.29725 L 261.0053 -287.69725 L 264.8053 -288.49725 L 269.6053 -289.69725 L 275.2053 -290.89725 L 281.2053 -292.69725 L 285.8053 -294.09725 L 290.0053 -295.29725 L 294.6053 -297.29725 L 299.2053 -298.89725 L 304.0053 -300.89725 L 308.0053 -302.29725 L 313.2053 -304.49725 L 317.8053 -306.09725 L 322.6053 -308.29725 L 327.4053 -310.09725 L 331.4053 -312.09725 L 335.8053 -314.29725 L 340.2053 -316.49725 L 343.6053 -318.09725 Z" stroke="#7f8080" stroke-linecap="round" stroke-linejoin="round" stroke-width="1"/>
    </g>
  </g>
</svg>
