<?xml version="1.0" encoding="UTF-8" standalone="no"?>
<!DOCTYPE svg PUBLIC "-//W3C//DTD SVG 1.1//EN" "http://www.w3.org/Graphics/SVG/1.1/DTD/svg11.dtd">
<svg xmlns="http://www.w3.org/2000/svg" xmlns:xl="http://www.w3.org/1999/xlink" version="1.1" viewBox="-148.5 241.5 432.4053 448.4" width="432.4053pt" height="448.4pt" xmlns:dc="http://purl.org/dc/elements/1.1/">
  <metadata> Produced by OmniGraffle 7.6.1 
    <dc:date>2020-02-17 21:12:38 +0000</dc:date>
  </metadata>
  <defs>
    <radialGradient cx="0" cy="0" r="1" id="Gradient" gradientUnits="userSpaceOnUse">
      <stop offset="0" stop-color="white"/>
      <stop offset="1" stop-color="#a5a5a5"/>
    </radialGradient>
    <radialGradient id="Obj_Gradient" xl:href="#Gradient" gradientTransform="translate(66.75925 269.4) scale(70.26272)"/>
  </defs>
  <g stroke="none" stroke-opacity="1" stroke-dasharray="none" fill="none" fill-opacity="1">
    <title>VascoDaGama</title>
    <g>
      <title>Capa 1</title>
      <path d="M 5.005654 242.59045 L 13.171106 245.70816 C 14.029097 246.03576 14.90594 246.31167 15.796923 246.53442 L 29.5141 249.9637 C 30.67576 250.25413 31.85832 250.45338 33.051005 250.55966 L 50.57715 252.1214 C 51.165 252.17378 51.754643 252.20352 52.34478 252.21054 L 67.823695 252.3948 C 68.11404 252.39827 68.40442 252.39623 68.69469 252.3887 L 83.118 252.01406 C 83.47878 252.0047 83.83929 251.98683 84.19924 251.9605 L 98.57053 250.90893 C 99.56197 250.8364 100.54766 250.69964 101.5214 250.49956 L 113.09436 248.12155 C 114.13637 247.90744 115.16226 247.6213 116.16465 247.2652 L 127.91664 243.09014 C 129.00702 242.70277 130.21021 243.23354 130.65925 244.3 L 130.65925 244.3 C 131.1814 245.5401 131.33338 246.90485 131.09685 248.22945 L 130.91637 249.24014 C 130.61259 250.9413 130.11806 252.6028 129.44214 254.1932 L 127.89892 257.8243 C 127.34035 259.13858 126.6606 260.39798 125.86846 261.58618 L 122.18268 267.11485 C 121.43517 268.2361 120.59057 269.2895 119.65861 270.2629 L 113.36354 276.83774 C 112.49547 277.7444 111.55463 278.57846 110.55046 279.3316 L 102.17555 285.61277 C 101.29914 286.2701 100.37688 286.86394 99.41582 287.3898 L 92.23062 291.32133 C 90.91949 292.03874 89.54156 292.62664 88.11638 293.0767 L 81.44347 295.18393 C 79.72659 295.7261 77.952 296.0648 76.15613 296.19308 L 69.269675 296.68497 C 68.19738 296.76156 67.12103 296.76288 66.048545 296.68892 L 57.61229 296.1071 C 56.57811 296.0358 55.54994 295.89463 54.534806 295.6846 L 47.3996 294.20835 C 45.44765 293.8045 43.556474 293.1486 41.77362 292.2572 L 37.11421 289.92748 C 35.88007 289.3104 34.703967 288.58354 33.60012 287.75566 L 27.918163 283.4942 C 27.479027 283.16483 27.051822 282.81987 26.63737 282.45995 L 20.88219 277.46203 C 20.067903 276.7549 19.304363 275.99135 18.59722 275.17706 L 14.191995 270.10438 C 13.437892 269.236 12.749984 268.3123 12.13406 267.34105 L 8.400357 261.4533 C 8.039791 260.8847 7.7043655 260.30056 7.395049 259.70255 L 5.774675 256.56983 C 5.165531 255.39215 4.6593623 254.164 4.2618253 252.8991 L 2.9815863 248.82562 C 2.766811 248.14225 2.5840785 247.4492 2.4339863 246.74878 L 2.3592476 246.4 C 2.164585 245.49157 2.2718463 244.54443 2.6647274 243.70254 L 2.7592476 243.5 C 3.1537242 242.6547 4.134195 242.2577 5.005654 242.59045 Z" fill="url(#Obj_Gradient)"/>
      <path d="M 5.005654 242.59045 L 13.171106 245.70816 C 14.029097 246.03576 14.90594 246.31167 15.796923 246.53442 L 29.5141 249.9637 C 30.67576 250.25413 31.85832 250.45338 33.051005 250.55966 L 50.57715 252.1214 C 51.165 252.17378 51.754643 252.20352 52.34478 252.21054 L 67.823695 252.3948 C 68.11404 252.39827 68.40442 252.39623 68.69469 252.3887 L 83.118 252.01406 C 83.47878 252.0047 83.83929 251.98683 84.19924 251.9605 L 98.57053 250.90893 C 99.56197 250.8364 100.54766 250.69964 101.5214 250.49956 L 113.09436 248.12155 C 114.13637 247.90744 115.16226 247.6213 116.16465 247.2652 L 127.91664 243.09014 C 129.00702 242.70277 130.21021 243.23354 130.65925 244.3 L 130.65925 244.3 C 131.1814 245.5401 131.33338 246.90485 131.09685 248.22945 L 130.91637 249.24014 C 130.61259 250.9413 130.11806 252.6028 129.44214 254.1932 L 127.89892 257.8243 C 127.34035 259.13858 126.6606 260.39798 125.86846 261.58618 L 122.18268 267.11485 C 121.43517 268.2361 120.59057 269.2895 119.65861 270.2629 L 113.36354 276.83774 C 112.49547 277.7444 111.55463 278.57846 110.55046 279.3316 L 102.17555 285.61277 C 101.29914 286.2701 100.37688 286.86394 99.41582 287.3898 L 92.23062 291.32133 C 90.91949 292.03874 89.54156 292.62664 88.11638 293.0767 L 81.44347 295.18393 C 79.72659 295.7261 77.952 296.0648 76.15613 296.19308 L 69.269675 296.68497 C 68.19738 296.76156 67.12103 296.76288 66.048545 296.68892 L 57.61229 296.1071 C 56.57811 296.0358 55.54994 295.89463 54.534806 295.6846 L 47.3996 294.20835 C 45.44765 293.8045 43.556474 293.1486 41.77362 292.2572 L 37.11421 289.92748 C 35.88007 289.3104 34.703967 288.58354 33.60012 287.75566 L 27.918163 283.4942 C 27.479027 283.16483 27.051822 282.81987 26.63737 282.45995 L 20.88219 277.46203 C 20.067903 276.7549 19.304363 275.99135 18.59722 275.17706 L 14.191995 270.10438 C 13.437892 269.236 12.749984 268.3123 12.13406 267.34105 L 8.400357 261.4533 C 8.039791 260.8847 7.7043655 260.30056 7.395049 259.70255 L 5.774675 256.56983 C 5.165531 255.39215 4.6593623 254.164 4.2618253 252.8991 L 2.9815863 248.82562 C 2.766811 248.14225 2.5840785 247.4492 2.4339863 246.74878 L 2.3592476 246.4 C 2.164585 245.49157 2.2718463 244.54443 2.6647274 243.70254 L 2.7592476 243.5 C 3.1537242 242.6547 4.134195 242.2577 5.005654 242.59045 Z" stroke="#7f8080" stroke-linecap="round" stroke-linejoin="round" stroke-width="1"/>
      <path d="M -59.026545 679.2638 L -45.284304 681.55416 C -45.10093 681.5847 -44.91703 681.6121 -44.7327 681.6362 L -16.37906 685.35154 C -16.132532 685.38385 -15.885285 685.4104 -15.63752 685.4312 L 14.60537 687.9677 C 14.862274 687.9892 15.119662 688.0046 15.377307 688.0137 L 54.30822 689.39 C 54.49658 689.3967 54.685045 689.4 54.87352 689.4 L 86.34084 689.4 C 86.50746 689.4 86.67407 689.3974 86.8406 689.3922 L 111.87539 688.6099 C 112.08563 688.6033 112.29573 688.5926 112.50555 688.5777 L 134.5533 687.0168 C 134.71161 687.0056 134.86975 686.99205 135.02766 686.9761 L 160.28815 684.4305 C 160.48989 684.4102 160.69122 684.386 160.89204 684.358 L 184.68474 681.04265 C 184.88875 681.0142 185.0922 680.9819 185.29496 680.9456 L 194.49079 679.3 C 199.8179 678.3467 203.46876 673.3931 202.80234 668.02255 L 200.59475 650.232 C 200.5921 650.2107 200.5895 650.18934 200.58695 650.168 L 197.02312 620.4695 C 197.00157 620.28985 196.98306 620.10985 196.9676 619.9296 L 194.60539 592.3704 C 194.59565 592.2568 194.58713 592.1431 194.57983 592.0294 L 193.1932 570.4377 C 193.1916 570.4126 193.18992 570.38744 193.18818 570.3623 L 191.59603 547.276 C 191.59253 547.2253 191.58928 547.17466 191.58627 547.124 L 190.4099 527.3218 C 190.39716 527.1073 190.38874 526.89255 190.38465 526.6777 L 189.99236 506.08285 C 189.9913 506.0276 189.98997 505.9724 189.98835 505.9172 L 189.39322 485.68283 C 189.3916 485.6276 189.39026 485.5724 189.3892 485.51715 L 188.99855 465.0076 C 188.99337 464.7359 188.99512 464.46413 189.0038 464.1925 L 189.58973 445.8329 C 189.59044 445.811 189.59118 445.78903 189.59197 445.7671 L 190.38005 423.8978 C 190.3872 423.6993 190.39806 423.50093 190.4126 423.30283 L 191.97007 402.0822 C 191.98388 401.8941 191.99436 401.70573 192.0015 401.51724 L 192.75596 381.61837 C 192.77915 381.00663 192.83744 380.3967 192.93052 379.79165 L 195.66953 361.98813 C 195.7503 361.46304 195.8572 360.9423 195.9898 360.42783 L 200.61806 342.47017 C 200.73316 342.0236 200.8675 341.5822 201.02073 341.14725 L 206.74152 324.9076 C 206.9076 324.43613 207.0957 323.9727 207.30517 323.51883 L 212.83673 311.5338 C 212.93942 311.3113 213.0472 311.0912 213.16 310.87364 L 218.52223 300.5322 C 218.56793 300.44407 218.61446 300.35636 218.6618 300.2691 L 223.87777 290.65212 C 224.61505 289.29276 225.56468 288.05987 226.69079 287 L 226.69079 287 C 227.36598 286.36453 227.39817 285.30203 226.7627 284.62684 C 226.6382 284.49456 226.49307 284.38337 226.33295 284.2976 L 223.1188 282.57573 C 222.90016 282.4586 222.6788 282.34656 222.45494 282.2397 L 214.60097 278.49122 C 214.19436 278.29716 213.77974 278.12036 213.3582 277.9613 L 203.68338 274.3104 C 203.48833 274.2368 203.29187 274.16703 203.0941 274.1011 L 190.39963 269.8696 C 190.2604 269.8232 190.12055 269.77872 189.9801 269.73616 L 177.09658 265.83206 C 177.02605 265.8107 176.95567 265.78883 176.88544 265.76648 L 164.38144 261.78794 C 163.98782 261.6627 163.5992 261.52225 163.21643 261.36693 L 151.24049 256.50713 C 150.40883 256.16964 149.60704 255.76277 148.8436 255.29083 L 139.22436 249.3444 C 139.06865 249.24814 138.91461 249.14922 138.7623 249.04768 L 133.8722 245.78762 C 132.89081 245.13335 132.0195 244.32745 131.29078 243.4 L 131.29078 243.4 C 131.18518 243.2656 130.99062 243.24225 130.85621 243.34785 C 130.75347 243.42858 130.7125 243.56513 130.75381 243.68908 L 130.89078 244.1 C 131.35003 245.47775 131.4546 246.94904 131.1948 248.3779 L 130.79967 250.55115 C 130.52845 252.0428 130.04661 253.48835 129.36858 254.8444 L 127.83626 257.90904 C 127.53956 258.50244 127.20624 259.0768 126.83823 259.62883 L 123.63453 264.43438 C 123.20593 265.07728 122.73132 265.6883 122.21443 266.2626 L 117.65238 271.33156 C 117.61132 271.3772 117.56999 271.42258 117.5284 271.46773 L 111.53417 277.97576 C 110.90643 278.6573 110.22068 279.28302 109.48465 279.84587 L 104.46047 283.6879 C 104.01432 284.02906 103.55052 284.3465 103.07099 284.6389 L 96.58458 288.59403 C 95.92292 288.99748 95.23283 289.35232 94.51975 289.65576 L 87.40434 292.6836 C 86.59667 293.0273 85.76209 293.30393 84.90905 293.51072 L 80.82999 294.4996 C 80.00516 294.69955 79.16573 294.83356 78.31963 294.90035 L 72.619425 295.35037 C 72.20049 295.38344 71.78042 295.4 71.360186 295.4 L 64.32787 295.4 C 63.57077 295.4 62.81462 295.34626 62.06513 295.2392 L 54.11868 294.104 C 53.63367 294.0347 53.1521 293.94317 52.67549 293.8297 L 46.714264 292.41035 C 45.568777 292.13762 44.4569 291.73927 43.39883 291.22253 L 37.118824 288.15556 C 36.633774 287.91867 36.161023 287.6574 35.702383 287.37272 L 31.49052 284.75846 C 30.89135 284.38656 30.317424 283.97546 29.772495 283.52784 L 25.32639 279.87568 C 25.102693 279.69193 24.884024 279.50214 24.670626 279.30652 L 20.868283 275.82104 C 20.416988 275.40736 19.989809 274.9681 19.588852 274.50546 L 15.470106 269.75307 C 15.150724 269.38455 14.848357 269.00162 14.563952 268.6055 L 10.134297 262.4356 C 9.639405 261.7463 9.200134 261.0187 8.820642 260.25972 L 6.244178 255.1068 C 6.2085815 255.0356 6.173517 254.96414 6.1389865 254.89242 L 4.8907825 252.3 C 4.0400677 250.53313 3.6845466 248.5686 3.8620877 246.61564 L 4.042293 244.6334 C 4.0660984 244.37152 3.8731155 244.13994 3.6112534 244.11614 C 3.4488584 244.10138 3.2902047 244.17075 3.1907824 244.3 L 3.1907824 244.3 C 2.527336 245.16248 1.747228 245.92856 .8728506 246.57625 L -3.0236828 249.46257 C -3.1473663 249.55418 -3.2723654 249.644 -3.398641 249.73202 L -8.020891 252.9536 C -9.207627 253.7807 -10.501048 254.44308 -11.865798 254.92258 L -16.472924 256.5413 C -16.963495 256.71367 -17.445372 256.90984 -17.91684 257.12913 L -24.76362 260.31368 C -25.459783 260.63747 -26.178348 260.91074 -26.913747 261.13136 L -37.784136 264.39248 C -37.800857 264.3975 -37.81757 264.40254 -37.834276 264.4076 L -48.802363 267.7372 C -48.94026 267.77907 -49.077586 267.8228 -49.2143 267.86836 L -62.135536 272.17544 C -62.18466 272.1918 -62.23386 272.20795 -62.283136 272.22384 L -73.65054 275.89075 C -74.28903 276.0967 -74.91393 276.34263 -75.52154 276.62704 L -83.4535 280.33988 C -83.82384 280.51323 -84.1874 280.7007 -84.54338 280.90192 L -90.48949 284.26276 C -91.74253 284.971 -92.18417 286.56093 -91.47594 287.81396 C -91.39882 287.9504 -91.30955 288.0796 -91.20922 288.2 L -90.34511 289.23693 C -89.59016 290.14287 -88.93769 291.1295 -88.39957 292.17882 L -85.32243 298.17924 C -85.24696 298.3264 -85.16921 298.4724 -85.08922 298.61715 L -81.13446 305.77337 C -81.05097 305.92445 -80.96993 306.07687 -80.89137 306.23057 L -76.78307 314.26856 C -76.534 314.75587 -76.3101 315.25563 -76.11224 315.7659 L -72.62947 324.74776 C -72.61597 324.7826 -72.602345 324.81737 -72.5886 324.8521 L -68.99228 333.93754 C -68.87027 334.24577 -68.75787 334.55772 -68.65524 334.87294 L -66.033404 342.9257 C -66.01728 342.97524 -66.0014 343.02484 -65.98576 343.0745 L -62.91371 352.8328 C -62.71092 353.47695 -62.549114 354.1333 -62.42927 354.7979 L -60.443955 365.80737 C -60.4208 365.9358 -60.39921 366.0645 -60.379205 366.19342 L -58.673335 377.1868 C -58.6306 377.46222 -58.595065 377.7387 -58.56677 378.016 L -57.67935 386.7127 C -57.63262 387.1707 -57.60567 387.6305 -57.59859 388.0908 L -57.41435 400.0664 C -57.41093 400.2888 -57.40287 400.51105 -57.390185 400.7331 L -56.61981 414.21465 C -56.61275 414.3382 -56.604255 414.4617 -56.59433 414.58506 L -55.26076 431.15943 C -55.22641 431.5863 -55.20922 432.0144 -55.20922 432.44264 L -55.20922 444.8924 C -55.20922 445.09746 -55.20528 445.30247 -55.1974 445.50735 L -54.617046 460.5965 C -54.61183 460.73216 -54.60834 460.8679 -54.606574 461.00365 L -54.414415 475.7999 C -54.41095 476.0666 -54.414157 476.33333 -54.42403 476.59986 L -54.998256 492.104 C -55.005564 492.3013 -55.00922 492.49875 -55.00922 492.6962 L -55.00922 506.2924 C -55.00922 506.49746 -55.01316 506.7025 -55.02104 506.90736 L -55.60623 522.12236 C -55.60822 522.1741 -55.610465 522.2259 -55.61296 522.2776 L -56.40828 538.78055 C -56.408906 538.7935 -56.40955 538.8065 -56.4102 538.81945 L -57.20469 554.5106 C -57.20771 554.5702 -57.21106 554.6298 -57.214744 554.6893 L -58.403655 573.9101 C -58.407364 573.97 -58.41141 574.02996 -58.415794 574.0899 L -60.19893 598.4594 C -60.20579 598.55314 -60.21347 598.6468 -60.22198 598.7404 L -62.00787 618.3852 C -62.00877 618.3951 -62.00968 618.40494 -62.01059 618.4148 L -63.78136 637.4997 C -63.79993 637.6999 -63.82227 637.8997 -63.84838 638.099 L -65.80909 653.07175 C -65.9419 654.08594 -66.21104 655.0776 -66.60922 656.0197 L -66.60922 656.0197 C -67.006794 656.9605 -67.25546 657.9574 -67.34629 658.97465 L -68.10922 667.5197 C -68.616975 673.2068 -64.65851 678.3251 -59.026545 679.2638 Z" fill="black"/>
      <path d="M -59.026545 679.2638 L -45.284304 681.55416 C -45.10093 681.5847 -44.91703 681.6121 -44.7327 681.6362 L -16.37906 685.35154 C -16.132532 685.38385 -15.885285 685.4104 -15.63752 685.4312 L 14.60537 687.9677 C 14.862274 687.9892 15.119662 688.0046 15.377307 688.0137 L 54.30822 689.39 C 54.49658 689.3967 54.685045 689.4 54.87352 689.4 L 86.34084 689.4 C 86.50746 689.4 86.67407 689.3974 86.8406 689.3922 L 111.87539 688.6099 C 112.08563 688.6033 112.29573 688.5926 112.50555 688.5777 L 134.5533 687.0168 C 134.71161 687.0056 134.86975 686.99205 135.02766 686.9761 L 160.28815 684.4305 C 160.48989 684.4102 160.69122 684.386 160.89204 684.358 L 184.68474 681.04265 C 184.88875 681.0142 185.0922 680.9819 185.29496 680.9456 L 194.49079 679.3 C 199.8179 678.3467 203.46876 673.3931 202.80234 668.02255 L 200.59475 650.232 C 200.5921 650.2107 200.5895 650.18934 200.58695 650.168 L 197.02312 620.4695 C 197.00157 620.28985 196.98306 620.10985 196.9676 619.9296 L 194.60539 592.3704 C 194.59565 592.2568 194.58713 592.1431 194.57983 592.0294 L 193.1932 570.4377 C 193.1916 570.4126 193.18992 570.38744 193.18818 570.3623 L 191.59603 547.276 C 191.59253 547.2253 191.58928 547.17466 191.58627 547.124 L 190.4099 527.3218 C 190.39716 527.1073 190.38874 526.89255 190.38465 526.6777 L 189.99236 506.08285 C 189.9913 506.0276 189.98997 505.9724 189.98835 505.9172 L 189.39322 485.68283 C 189.3916 485.6276 189.39026 485.5724 189.3892 485.51715 L 188.99855 465.0076 C 188.99337 464.7359 188.99512 464.46413 189.0038 464.1925 L 189.58973 445.8329 C 189.59044 445.811 189.59118 445.78903 189.59197 445.7671 L 190.38005 423.8978 C 190.3872 423.6993 190.39806 423.50093 190.4126 423.30283 L 191.97007 402.0822 C 191.98388 401.8941 191.99436 401.70573 192.0015 401.51724 L 192.75596 381.61837 C 192.77915 381.00663 192.83744 380.3967 192.93052 379.79165 L 195.66953 361.98813 C 195.7503 361.46304 195.8572 360.9423 195.9898 360.42783 L 200.61806 342.47017 C 200.73316 342.0236 200.8675 341.5822 201.02073 341.14725 L 206.74152 324.9076 C 206.9076 324.43613 207.0957 323.9727 207.30517 323.51883 L 212.83673 311.5338 C 212.93942 311.3113 213.0472 311.0912 213.16 310.87364 L 218.52223 300.5322 C 218.56793 300.44407 218.61446 300.35636 218.6618 300.2691 L 223.87777 290.65212 C 224.61505 289.29276 225.56468 288.05987 226.69079 287 L 226.69079 287 C 227.36598 286.36453 227.39817 285.30203 226.7627 284.62684 C 226.6382 284.49456 226.49307 284.38337 226.33295 284.2976 L 223.1188 282.57573 C 222.90016 282.4586 222.6788 282.34656 222.45494 282.2397 L 214.60097 278.49122 C 214.19436 278.29716 213.77974 278.12036 213.3582 277.9613 L 203.68338 274.3104 C 203.48833 274.2368 203.29187 274.16703 203.0941 274.1011 L 190.39963 269.8696 C 190.2604 269.8232 190.12055 269.77872 189.9801 269.73616 L 177.09658 265.83206 C 177.02605 265.8107 176.95567 265.78883 176.88544 265.76648 L 164.38144 261.78794 C 163.98782 261.6627 163.5992 261.52225 163.21643 261.36693 L 151.24049 256.50713 C 150.40883 256.16964 149.60704 255.76277 148.8436 255.29083 L 139.22436 249.3444 C 139.06865 249.24814 138.91461 249.14922 138.7623 249.04768 L 133.8722 245.78762 C 132.89081 245.13335 132.0195 244.32745 131.29078 243.4 L 131.29078 243.4 C 131.18518 243.2656 130.99062 243.24225 130.85621 243.34785 C 130.75347 243.42858 130.7125 243.56513 130.75381 243.68908 L 130.89078 244.1 C 131.35003 245.47775 131.4546 246.94904 131.1948 248.3779 L 130.79967 250.55115 C 130.52845 252.0428 130.04661 253.48835 129.36858 254.8444 L 127.83626 257.90904 C 127.53956 258.50244 127.20624 259.0768 126.83823 259.62883 L 123.63453 264.43438 C 123.20593 265.07728 122.73132 265.6883 122.21443 266.2626 L 117.65238 271.33156 C 117.61132 271.3772 117.56999 271.42258 117.5284 271.46773 L 111.53417 277.97576 C 110.90643 278.6573 110.22068 279.28302 109.48465 279.84587 L 104.46047 283.6879 C 104.01432 284.02906 103.55052 284.3465 103.07099 284.6389 L 96.58458 288.59403 C 95.92292 288.99748 95.23283 289.35232 94.51975 289.65576 L 87.40434 292.6836 C 86.59667 293.0273 85.76209 293.30393 84.90905 293.51072 L 80.82999 294.4996 C 80.00516 294.69955 79.16573 294.83356 78.31963 294.90035 L 72.619425 295.35037 C 72.20049 295.38344 71.78042 295.4 71.360186 295.4 L 64.32787 295.4 C 63.57077 295.4 62.81462 295.34626 62.06513 295.2392 L 54.11868 294.104 C 53.63367 294.0347 53.1521 293.94317 52.67549 293.8297 L 46.714264 292.41035 C 45.568777 292.13762 44.4569 291.73927 43.39883 291.22253 L 37.118824 288.15556 C 36.633774 287.91867 36.161023 287.6574 35.702383 287.37272 L 31.49052 284.75846 C 30.89135 284.38656 30.317424 283.97546 29.772495 283.52784 L 25.32639 279.87568 C 25.102693 279.69193 24.884024 279.50214 24.670626 279.30652 L 20.868283 275.82104 C 20.416988 275.40736 19.989809 274.9681 19.588852 274.50546 L 15.470106 269.75307 C 15.150724 269.38455 14.848357 269.00162 14.563952 268.6055 L 10.134297 262.4356 C 9.639405 261.7463 9.200134 261.0187 8.820642 260.25972 L 6.244178 255.1068 C 6.2085815 255.0356 6.173517 254.96414 6.1389865 254.89242 L 4.8907825 252.3 C 4.0400677 250.53313 3.6845466 248.5686 3.8620877 246.61564 L 4.042293 244.6334 C 4.0660984 244.37152 3.8731155 244.13994 3.6112534 244.11614 C 3.4488584 244.10138 3.2902047 244.17075 3.1907824 244.3 L 3.1907824 244.3 C 2.527336 245.16248 1.747228 245.92856 .8728506 246.57625 L -3.0236828 249.46257 C -3.1473663 249.55418 -3.2723654 249.644 -3.398641 249.73202 L -8.020891 252.9536 C -9.207627 253.7807 -10.501048 254.44308 -11.865798 254.92258 L -16.472924 256.5413 C -16.963495 256.71367 -17.445372 256.90984 -17.91684 257.12913 L -24.76362 260.31368 C -25.459783 260.63747 -26.178348 260.91074 -26.913747 261.13136 L -37.784136 264.39248 C -37.800857 264.3975 -37.81757 264.40254 -37.834276 264.4076 L -48.802363 267.7372 C -48.94026 267.77907 -49.077586 267.8228 -49.2143 267.86836 L -62.135536 272.17544 C -62.18466 272.1918 -62.23386 272.20795 -62.283136 272.22384 L -73.65054 275.89075 C -74.28903 276.0967 -74.91393 276.34263 -75.52154 276.62704 L -83.4535 280.33988 C -83.82384 280.51323 -84.1874 280.7007 -84.54338 280.90192 L -90.48949 284.26276 C -91.74253 284.971 -92.18417 286.56093 -91.47594 287.81396 C -91.39882 287.9504 -91.30955 288.0796 -91.20922 288.2 L -90.34511 289.23693 C -89.59016 290.14287 -88.93769 291.1295 -88.39957 292.17882 L -85.32243 298.17924 C -85.24696 298.3264 -85.16921 298.4724 -85.08922 298.61715 L -81.13446 305.77337 C -81.05097 305.92445 -80.96993 306.07687 -80.89137 306.23057 L -76.78307 314.26856 C -76.534 314.75587 -76.3101 315.25563 -76.11224 315.7659 L -72.62947 324.74776 C -72.61597 324.7826 -72.602345 324.81737 -72.5886 324.8521 L -68.99228 333.93754 C -68.87027 334.24577 -68.75787 334.55772 -68.65524 334.87294 L -66.033404 342.9257 C -66.01728 342.97524 -66.0014 343.02484 -65.98576 343.0745 L -62.91371 352.8328 C -62.71092 353.47695 -62.549114 354.1333 -62.42927 354.7979 L -60.443955 365.80737 C -60.4208 365.9358 -60.39921 366.0645 -60.379205 366.19342 L -58.673335 377.1868 C -58.6306 377.46222 -58.595065 377.7387 -58.56677 378.016 L -57.67935 386.7127 C -57.63262 387.1707 -57.60567 387.6305 -57.59859 388.0908 L -57.41435 400.0664 C -57.41093 400.2888 -57.40287 400.51105 -57.390185 400.7331 L -56.61981 414.21465 C -56.61275 414.3382 -56.604255 414.4617 -56.59433 414.58506 L -55.26076 431.15943 C -55.22641 431.5863 -55.20922 432.0144 -55.20922 432.44264 L -55.20922 444.8924 C -55.20922 445.09746 -55.20528 445.30247 -55.1974 445.50735 L -54.617046 460.5965 C -54.61183 460.73216 -54.60834 460.8679 -54.606574 461.00365 L -54.414415 475.7999 C -54.41095 476.0666 -54.414157 476.33333 -54.42403 476.59986 L -54.998256 492.104 C -55.005564 492.3013 -55.00922 492.49875 -55.00922 492.6962 L -55.00922 506.2924 C -55.00922 506.49746 -55.01316 506.7025 -55.02104 506.90736 L -55.60623 522.12236 C -55.60822 522.1741 -55.610465 522.2259 -55.61296 522.2776 L -56.40828 538.78055 C -56.408906 538.7935 -56.40955 538.8065 -56.4102 538.81945 L -57.20469 554.5106 C -57.20771 554.5702 -57.21106 554.6298 -57.214744 554.6893 L -58.403655 573.9101 C -58.407364 573.97 -58.41141 574.02996 -58.415794 574.0899 L -60.19893 598.4594 C -60.20579 598.55314 -60.21347 598.6468 -60.22198 598.7404 L -62.00787 618.3852 C -62.00877 618.3951 -62.00968 618.40494 -62.01059 618.4148 L -63.78136 637.4997 C -63.79993 637.6999 -63.82227 637.8997 -63.84838 638.099 L -65.80909 653.07175 C -65.9419 654.08594 -66.21104 655.0776 -66.60922 656.0197 L -66.60922 656.0197 C -67.006794 656.9605 -67.25546 657.9574 -67.34629 658.97465 L -68.10922 667.5197 C -68.616975 673.2068 -64.65851 678.3251 -59.026545 679.2638 Z" stroke="#7f8080" stroke-linecap="round" stroke-linejoin="round" stroke-width="1"/>
      <path d="M -148 393.44615 L -141.8 397.84615 L -133.6 401.84615 L -125 405.44615 L -116 409.24615 L -105 413.24615 L -95.6 416.04615 L -86.6 418.64615 L -77.6 421.24615 L -72.2 422.64615 L -66.6 423.64615 L -64.2 417.84615 L -61.6 412.44615 L -59.4 408.44615 L -56.8 405.04615 L -56.6 396.04615 L -57.2 385.04615 L -59 374.24615 L -60.6 363.84615 L -63.2 352.84614 L -65.6 343.24614 L -68.4 335.24614 L -71.6 325.84614 L -74.4 318.44614 L -78 310.84614 L -82 303.24614 L -86 295.84614 L -88.6 292.24614 L -92.2 286.44614 L -97.6 290.84614 L -102.4 295.64614 L -107 301.84614 L -111.4 308.04614 L -116.2 316.64614 L -121 326.04614 L -125.8 335.24614 L -129.4 343.84614 L -133.4 352.84614 L -136.6 361.04615 L -140.4 370.44615 L -143.2 378.44615 L -146.2 386.84615 Z" fill="black"/>
      <path d="M -148 393.44615 L -141.8 397.84615 L -133.6 401.84615 L -125 405.44615 L -116 409.24615 L -105 413.24615 L -95.6 416.04615 L -86.6 418.64615 L -77.6 421.24615 L -72.2 422.64615 L -66.6 423.64615 L -64.2 417.84615 L -61.6 412.44615 L -59.4 408.44615 L -56.8 405.04615 L -56.6 396.04615 L -57.2 385.04615 L -59 374.24615 L -60.6 363.84615 L -63.2 352.84614 L -65.6 343.24614 L -68.4 335.24614 L -71.6 325.84614 L -74.4 318.44614 L -78 310.84614 L -82 303.24614 L -86 295.84614 L -88.6 292.24614 L -92.2 286.44614 L -97.6 290.84614 L -102.4 295.64614 L -107 301.84614 L -111.4 308.04614 L -116.2 316.64614 L -121 326.04614 L -125.8 335.24614 L -129.4 343.84614 L -133.4 352.84614 L -136.6 361.04615 L -140.4 370.44615 L -143.2 378.44615 L -146.2 386.84615 Z" stroke="#7f8080" stroke-linecap="round" stroke-linejoin="round" stroke-width="1"/>
      <path d="M 283.4053 392.50275 L 277.2053 396.90275 L 269.0053 400.90275 L 260.4053 404.50275 L 251.4053 408.30275 L 240.4053 412.30275 L 231.0053 415.10275 L 222.0053 417.70275 L 213.0053 420.30275 L 207.6053 421.70275 L 202.0053 422.70275 L 199.6053 416.90275 L 197.00529 411.50275 L 194.80529 407.50275 L 192.20529 404.10275 L 192.00529 395.10275 L 192.60529 384.10275 L 194.40529 373.30275 L 196.00529 362.90275 L 198.6053 351.90275 L 201.0053 342.30275 L 203.8053 334.30275 L 207.0053 324.90275 L 209.8053 317.50275 L 213.4053 309.90275 L 217.4053 302.30275 L 221.4053 294.90275 L 224.0053 291.30275 L 227.6053 285.50275 L 233.0053 289.90275 L 237.8053 294.70275 L 242.4053 300.90275 L 246.8053 307.10275 L 251.6053 315.70275 L 256.4053 325.10275 L 261.2053 334.30275 L 264.8053 342.90275 L 268.8053 351.90275 L 272.0053 360.10275 L 275.8053 369.50275 L 278.6053 377.50275 L 281.6053 385.90275 Z" fill="black"/>
      <path d="M 283.4053 392.50275 L 277.2053 396.90275 L 269.0053 400.90275 L 260.4053 404.50275 L 251.4053 408.30275 L 240.4053 412.30275 L 231.0053 415.10275 L 222.0053 417.70275 L 213.0053 420.30275 L 207.6053 421.70275 L 202.0053 422.70275 L 199.6053 416.90275 L 197.00529 411.50275 L 194.80529 407.50275 L 192.20529 404.10275 L 192.00529 395.10275 L 192.60529 384.10275 L 194.40529 373.30275 L 196.00529 362.90275 L 198.6053 351.90275 L 201.0053 342.30275 L 203.8053 334.30275 L 207.0053 324.90275 L 209.8053 317.50275 L 213.4053 309.90275 L 217.4053 302.30275 L 221.4053 294.90275 L 224.0053 291.30275 L 227.6053 285.50275 L 233.0053 289.90275 L 237.8053 294.70275 L 242.4053 300.90275 L 246.8053 307.10275 L 251.6053 315.70275 L 256.4053 325.10275 L 261.2053 334.30275 L 264.8053 342.90275 L 268.8053 351.90275 L 272.0053 360.10275 L 275.8053 369.50275 L 278.6053 377.50275 L 281.6053 385.90275 Z" stroke="#7f8080" stroke-linecap="round" stroke-linejoin="round" stroke-width="1"/>
      <path d="M -148 393.44615 L -141.8 397.84615 L -133.6 401.84615 L -125 405.44615 L -116 409.24615 L -105 413.24615 L -95.6 416.04615 L -86.6 418.64615 L -77.6 421.24615 L -72.2 422.64615 L -66.6 423.64615 L -63.6 417.24615 L -67.4 416.44615 L -72.2 415.24615 L -77.8 414.04615 L -83.8 412.24615 L -88.4 410.84615 L -92.6 409.64615 L -97.2 407.64615 L -101.8 406.04615 L -106.6 404.04615 L -110.6 402.64615 L -115.8 400.44615 L -120.4 398.84615 L -125.2 396.64615 L -130 394.84615 L -134 392.84615 L -138.4 390.64615 L -142.8 388.44615 L -146.2 386.84615 Z" fill="white"/>
      <path d="M -148 393.44615 L -141.8 397.84615 L -133.6 401.84615 L -125 405.44615 L -116 409.24615 L -105 413.24615 L -95.6 416.04615 L -86.6 418.64615 L -77.6 421.24615 L -72.2 422.64615 L -66.6 423.64615 L -63.6 417.24615 L -67.4 416.44615 L -72.2 415.24615 L -77.8 414.04615 L -83.8 412.24615 L -88.4 410.84615 L -92.6 409.64615 L -97.2 407.64615 L -101.8 406.04615 L -106.6 404.04615 L -110.6 402.64615 L -115.8 400.44615 L -120.4 398.84615 L -125.2 396.64615 L -130 394.84615 L -134 392.84615 L -138.4 390.64615 L -142.8 388.44615 L -146.2 386.84615 Z" stroke="#7f8080" stroke-linecap="round" stroke-linejoin="round" stroke-width="1"/>
      <path d="M 283.4053 392.50275 L 277.2053 396.90275 L 269.0053 400.90275 L 260.4053 404.50275 L 251.4053 408.30275 L 240.4053 412.30275 L 231.0053 415.10275 L 222.0053 417.70275 L 213.0053 420.30275 L 207.6053 421.70275 L 202.0053 422.70275 L 199.0053 416.30275 L 202.8053 415.50275 L 207.6053 414.30275 L 213.2053 413.10275 L 219.2053 411.30275 L 223.8053 409.90275 L 228.0053 408.70275 L 232.6053 406.70275 L 237.2053 405.10275 L 242.0053 403.10275 L 246.0053 401.70275 L 251.2053 399.50275 L 255.8053 397.90275 L 260.6053 395.70275 L 265.4053 393.90275 L 269.4053 391.90275 L 273.8053 389.70275 L 278.2053 387.50275 L 281.6053 385.90275 Z" fill="white"/>
      <path d="M 283.4053 392.50275 L 277.2053 396.90275 L 269.0053 400.90275 L 260.4053 404.50275 L 251.4053 408.30275 L 240.4053 412.30275 L 231.0053 415.10275 L 222.0053 417.70275 L 213.0053 420.30275 L 207.6053 421.70275 L 202.0053 422.70275 L 199.0053 416.30275 L 202.8053 415.50275 L 207.6053 414.30275 L 213.2053 413.10275 L 219.2053 411.30275 L 223.8053 409.90275 L 228.0053 408.70275 L 232.6053 406.70275 L 237.2053 405.10275 L 242.0053 403.10275 L 246.0053 401.70275 L 251.2053 399.50275 L 255.8053 397.90275 L 260.6053 395.70275 L 265.4053 393.90275 L 269.4053 391.90275 L 273.8053 389.70275 L 278.2053 387.50275 L 281.6053 385.90275 Z" stroke="#7f8080" stroke-linecap="round" stroke-linejoin="round" stroke-width="1"/>
      <path d="M 2.572121 243.9638 L -2.1570494 248.01736 C -3.3073967 249.00338 -4.552357 249.8733 -5.873787 250.61448 L -8.400422 252.03165 C -9.835594 252.83662 -10.416397 254.60575 -9.737611 256.10473 L -8.719994 258.35197 C -8.598415 258.62046 -8.471687 258.88658 -8.339879 259.1502 L -6.537609 262.75474 L -4.050623 267.7287 C -3.708826 268.4123 -3.333168 269.07843 -2.9250476 269.72463 L -.5986564 273.40808 C -.1582797 274.10535 .31927984 274.77842 .8319531 275.4244 L 4.2426377 279.72185 C 4.7886917 280.40987 5.3737115 281.06606 5.994822 281.68717 L 10.660865 286.3532 C 11.061745 286.7541 11.477311 287.14 11.90671 287.5102 L 16.470235 291.44426 C 16.864892 291.78448 17.270997 292.1112 17.687846 292.42383 L 21.662786 295.40503 C 22.3287 295.90447 23.021233 296.3674 23.73733 296.79174 L 27.870394 299.24096 C 27.99839 299.3168 28.127117 299.3914 28.25656 299.46477 L 32.954107 302.1267 C 33.692398 302.54507 34.453276 302.92226 35.23325 303.25653 L 38.78307 304.7779 C 39.36903 305.029 39.96518 305.25567 40.569974 305.45726 L 45.58808 307.12997 C 46.835325 307.5457 48.11592 307.85376 49.415795 308.0507 L 53.51464 308.67174 C 53.879756 308.72706 54.24615 308.7736 54.6135 308.81126 L 61.494605 309.517 C 61.73978 309.54216 61.985344 309.56336 62.2312 309.5806 L 66.758346 309.8983 C 67.29421 309.9359 67.831224 309.95473 68.368405 309.95473 L 71.63046 309.95474 C 72.58416 309.95474 73.53693 309.89542 74.48327 309.77713 L 78.47198 309.27854 C 79.13195 309.19604 79.78802 309.08496 80.43835 308.9456 L 86.52039 307.6423 C 87.41426 307.45076 88.29592 307.2061 89.16068 306.9096 L 93.66952 305.36372 C 94.46417 305.09127 95.2433 304.7755 96.0034 304.4178 L 100.83677 302.14326 C 101.38697 301.88435 101.92668 301.6037 102.45464 301.30202 L 106.2225 299.14896 C 106.9153 298.75308 107.58701 298.3214 108.23494 297.85572 L 112.91106 294.49475 C 113.41175 294.1349 113.89776 293.75503 114.36792 293.3561 L 119.68877 288.84144 C 120.07108 288.51706 120.44269 288.18026 120.80298 287.8316 L 125.5022 283.28396 C 126.14179 282.665 126.74491 282.00944 127.30852 281.32058 L 131.1018 276.68434 C 131.60852 276.06503 132.08257 275.4197 132.52201 274.75096 L 136.13919 269.24656 C 136.35462 268.91873 136.56163 268.58544 136.76002 268.24702 L 139.28311 263.94292 C 139.66906 263.28454 140.022 262.60735 140.34062 261.91388 L 142.45932 257.3026 C 142.99218 256.14285 143.36334 254.91544 143.5624 253.65474 L 143.5624 253.65474 C 143.7407 252.52547 143.1614 251.41203 142.13432 250.9099 L 136.84088 248.322 C 135.52642 247.67937 134.29183 246.88486 133.1624 245.95474 L 132.75638 245.62037 C 131.91205 244.92504 131.28864 243.99874 130.9624 242.95474 L 130.9624 242.95474 C 130.91573 242.80542 130.75686 242.7222 130.60754 242.76886 C 130.49247 242.80482 130.41277 242.90969 130.40892 243.0302 L 130.29968 246.4531 C 130.20894 249.2962 129.5916 252.09776 128.479 254.71567 L 127.60206 256.77904 C 127.0435 258.0933 126.36374 259.3527 125.5716 260.5409 L 121.88582 266.06958 C 121.13831 267.19085 120.2937 268.24425 119.36175 269.21762 L 113.06668 275.79247 C 112.19861 276.69913 111.25777 277.5332 110.2536 278.28633 L 101.8787 284.5675 C 101.00228 285.22482 100.08002 285.81867 99.11896 286.34454 L 91.93376 290.27606 C 90.62263 290.99347 89.2447 291.58137 87.81952 292.03143 L 81.14661 294.13867 C 79.42973 294.68084 77.65514 295.01954 75.85927 295.1478 L 68.972815 295.6397 C 67.90052 295.7163 66.82417 295.7176 65.751685 295.64365 L 57.31543 295.06184 C 56.28125 294.99052 55.25308 294.84936 54.237946 294.63933 L 47.10274 293.1631 C 45.15079 292.75923 43.259614 292.10335 41.476757 291.21192 L 36.81735 288.8822 C 35.58321 288.26515 34.407106 287.53827 33.30326 286.7104 L 27.621303 282.44892 C 27.182167 282.11957 26.754962 281.7746 26.34051 281.41468 L 20.585329 276.41676 C 19.771043 275.70962 19.007503 274.94608 18.30036 274.1318 L 13.895135 269.0591 C 13.141032 268.19075 12.453124 267.26705 11.837199 266.29578 L 8.103497 260.40802 C 7.742931 259.83944 7.407505 259.2553 7.0981885 258.65728 L 5.477815 255.52456 C 4.868671 254.34688 4.362502 253.11874 3.964965 251.85385 L 2.684726 247.78036 C 2.469951 247.09698 2.2872184 246.40395 2.137126 245.7035 L 1.911709 244.65157 C 1.8266354 244.25456 2.0529932 243.8569 2.4377975 243.72737 L 2.4377975 243.72737 C 2.5102922 243.70296 2.5888444 243.74195 2.6132488 243.81444 C 2.6312626 243.86795 2.6149902 243.92704 2.572121 243.9638 Z" fill="white"/>
      <path d="M 2.572121 243.9638 L -2.1570494 248.01736 C -3.3073967 249.00338 -4.552357 249.8733 -5.873787 250.61448 L -8.400422 252.03165 C -9.835594 252.83662 -10.416397 254.60575 -9.737611 256.10473 L -8.719994 258.35197 C -8.598415 258.62046 -8.471687 258.88658 -8.339879 259.1502 L -6.537609 262.75474 L -4.050623 267.7287 C -3.708826 268.4123 -3.333168 269.07843 -2.9250476 269.72463 L -.5986564 273.40808 C -.1582797 274.10535 .31927984 274.77842 .8319531 275.4244 L 4.2426377 279.72185 C 4.7886917 280.40987 5.3737115 281.06606 5.994822 281.68717 L 10.660865 286.3532 C 11.061745 286.7541 11.477311 287.14 11.90671 287.5102 L 16.470235 291.44426 C 16.864892 291.78448 17.270997 292.1112 17.687846 292.42383 L 21.662786 295.40503 C 22.3287 295.90447 23.021233 296.3674 23.73733 296.79174 L 27.870394 299.24096 C 27.99839 299.3168 28.127117 299.3914 28.25656 299.46477 L 32.954107 302.1267 C 33.692398 302.54507 34.453276 302.92226 35.23325 303.25653 L 38.78307 304.7779 C 39.36903 305.029 39.96518 305.25567 40.569974 305.45726 L 45.58808 307.12997 C 46.835325 307.5457 48.11592 307.85376 49.415795 308.0507 L 53.51464 308.67174 C 53.879756 308.72706 54.24615 308.7736 54.6135 308.81126 L 61.494605 309.517 C 61.73978 309.54216 61.985344 309.56336 62.2312 309.5806 L 66.758346 309.8983 C 67.29421 309.9359 67.831224 309.95473 68.368405 309.95473 L 71.63046 309.95474 C 72.58416 309.95474 73.53693 309.89542 74.48327 309.77713 L 78.47198 309.27854 C 79.13195 309.19604 79.78802 309.08496 80.43835 308.9456 L 86.52039 307.6423 C 87.41426 307.45076 88.29592 307.2061 89.16068 306.9096 L 93.66952 305.36372 C 94.46417 305.09127 95.2433 304.7755 96.0034 304.4178 L 100.83677 302.14326 C 101.38697 301.88435 101.92668 301.6037 102.45464 301.30202 L 106.2225 299.14896 C 106.9153 298.75308 107.58701 298.3214 108.23494 297.85572 L 112.91106 294.49475 C 113.41175 294.1349 113.89776 293.75503 114.36792 293.3561 L 119.68877 288.84144 C 120.07108 288.51706 120.44269 288.18026 120.80298 287.8316 L 125.5022 283.28396 C 126.14179 282.665 126.74491 282.00944 127.30852 281.32058 L 131.1018 276.68434 C 131.60852 276.06503 132.08257 275.4197 132.52201 274.75096 L 136.13919 269.24656 C 136.35462 268.91873 136.56163 268.58544 136.76002 268.24702 L 139.28311 263.94292 C 139.66906 263.28454 140.022 262.60735 140.34062 261.91388 L 142.45932 257.3026 C 142.99218 256.14285 143.36334 254.91544 143.5624 253.65474 L 143.5624 253.65474 C 143.7407 252.52547 143.1614 251.41203 142.13432 250.9099 L 136.84088 248.322 C 135.52642 247.67937 134.29183 246.88486 133.1624 245.95474 L 132.75638 245.62037 C 131.91205 244.92504 131.28864 243.99874 130.9624 242.95474 L 130.9624 242.95474 C 130.91573 242.80542 130.75686 242.7222 130.60754 242.76886 C 130.49247 242.80482 130.41277 242.90969 130.40892 243.0302 L 130.29968 246.4531 C 130.20894 249.2962 129.5916 252.09776 128.479 254.71567 L 127.60206 256.77904 C 127.0435 258.0933 126.36374 259.3527 125.5716 260.5409 L 121.88582 266.06958 C 121.13831 267.19085 120.2937 268.24425 119.36175 269.21762 L 113.06668 275.79247 C 112.19861 276.69913 111.25777 277.5332 110.2536 278.28633 L 101.8787 284.5675 C 101.00228 285.22482 100.08002 285.81867 99.11896 286.34454 L 91.93376 290.27606 C 90.62263 290.99347 89.2447 291.58137 87.81952 292.03143 L 81.14661 294.13867 C 79.42973 294.68084 77.65514 295.01954 75.85927 295.1478 L 68.972815 295.6397 C 67.90052 295.7163 66.82417 295.7176 65.751685 295.64365 L 57.31543 295.06184 C 56.28125 294.99052 55.25308 294.84936 54.237946 294.63933 L 47.10274 293.1631 C 45.15079 292.75923 43.259614 292.10335 41.476757 291.21192 L 36.81735 288.8822 C 35.58321 288.26515 34.407106 287.53827 33.30326 286.7104 L 27.621303 282.44892 C 27.182167 282.11957 26.754962 281.7746 26.34051 281.41468 L 20.585329 276.41676 C 19.771043 275.70962 19.007503 274.94608 18.30036 274.1318 L 13.895135 269.0591 C 13.141032 268.19075 12.453124 267.26705 11.837199 266.29578 L 8.103497 260.40802 C 7.742931 259.83944 7.407505 259.2553 7.0981885 258.65728 L 5.477815 255.52456 C 4.868671 254.34688 4.362502 253.11874 3.964965 251.85385 L 2.684726 247.78036 C 2.469951 247.09698 2.2872184 246.40395 2.137126 245.7035 L 1.911709 244.65157 C 1.8266354 244.25456 2.0529932 243.8569 2.4377975 243.72737 L 2.4377975 243.72737 C 2.5102922 243.70296 2.5888444 243.74195 2.6132488 243.81444 C 2.6312626 243.86795 2.6149902 243.92704 2.572121 243.9638 Z" stroke="#7f8080" stroke-linecap="round" stroke-linejoin="round" stroke-width="1"/>
      <path d="M 2.0592476 243.7559 L 7.459248 243.1559 L 14.259248 246.5559 L 19.259248 248.3559 L 27.659248 250.1559 L 36.05925 251.1559 L 44.05925 252.1559 L 51.65925 252.3559 L 60.25925 252.7559 L 71.85925 252.5559 L 80.25925 252.1559 L 89.65925 251.5559 L 98.05925 250.7559 L 107.25925 249.3559 L 115.45925 247.1559 L 121.25925 245.3559 L 126.85925 242.7559 L 129.65925 243.9559 L 130.05925 249.5559 L 127.25925 257.5559 L 121.85925 260.3559 L 111.25925 263.5559 L 99.85925 265.9559 L 88.65925 266.7559 L 76.25925 267.7559 L 65.85925 267.7559 L 56.45925 267.7559 L 44.85925 267.1559 L 33.65925 266.3559 L 23.059248 264.1559 L 14.459248 262.1559 L 8.259248 259.3559 L 6.259248 257.7559 L 3.0592476 250.1559 Z" fill="white"/>
      <path d="M 2.0592476 243.7559 L 7.459248 243.1559 L 14.259248 246.5559 L 19.259248 248.3559 L 27.659248 250.1559 L 36.05925 251.1559 L 44.05925 252.1559 L 51.65925 252.3559 L 60.25925 252.7559 L 71.85925 252.5559 L 80.25925 252.1559 L 89.65925 251.5559 L 98.05925 250.7559 L 107.25925 249.3559 L 115.45925 247.1559 L 121.25925 245.3559 L 126.85925 242.7559 L 129.65925 243.9559 L 130.05925 249.5559 L 127.25925 257.5559 L 121.85925 260.3559 L 111.25925 263.5559 L 99.85925 265.9559 L 88.65925 266.7559 L 76.25925 267.7559 L 65.85925 267.7559 L 56.45925 267.7559 L 44.85925 267.1559 L 33.65925 266.3559 L 23.059248 264.1559 L 14.459248 262.1559 L 8.259248 259.3559 L 6.259248 257.7559 L 3.0592476 250.1559 Z" stroke="#7f8080" stroke-linecap="round" stroke-linejoin="round" stroke-width="1"/>
      <path d="M -68.18679 669.2 L -68.18679 669.2 C -68.25247 669.7255 -68.189645 670.25905 -68.0037 670.7549 L -67.35269 672.4909 C -67.17594 672.9623 -66.94885 673.4132 -66.67538 673.8358 L -65.70757 675.3315 C -65.16661 676.16756 -64.453506 676.87855 -63.61588 677.417 L -62.53783 678.11005 C -62.237574 678.3031 -61.922994 678.47285 -61.59684 678.6179 L -60.27999 679.2035 C -59.68346 679.4688 -59.052754 679.6493 -58.40621 679.7398 L -49.395787 681.00126 C -49.385793 681.00265 -49.375797 681.004 -49.3658 681.0054 L -37.6498 682.594 C -37.6038 682.6002 -37.557737 682.606 -37.51162 682.6113 L -27.228685 683.7978 C -27.19676 683.8015 -27.16481 683.805 -27.132835 683.8082 L -13.42277 685.1991 C -13.394787 685.2019 -13.366788 685.2046 -13.338774 685.2071 L -2.233474 686.19865 C -2.1983557 686.2018 -2.163214 686.20466 -2.1280523 686.2073 L 8.558485 686.99886 C 8.598964 687.00185 8.639468 687.0045 8.679993 687.0068 L 19.187976 687.6016 C 19.208795 687.6028 19.229608 687.604 19.250416 687.6054 L 31.293193 688.3951 C 31.377194 688.4006 31.461288 688.4046 31.545432 688.4071 L 44.99256 688.8026 C 45.01032 688.8031 45.028085 688.8037 45.045846 688.8043 L 55.68971 689.19856 C 55.77603 689.20176 55.86241 689.20335 55.94879 689.20335 L 66.55781 689.20335 C 66.59874 689.20335 66.63967 689.2037 66.680595 689.2044 L 77.76702 689.3989 C 77.93509 689.4019 78.10321 689.3988 78.27106 689.3896 L 88.89229 688.8103 C 88.97689 688.8057 89.06157 688.8026 89.14629 688.80104 L 99.91085 688.6053 C 99.98308 688.604 100.05529 688.6016 100.12745 688.598 L 112.14607 688.00695 C 112.19483 688.00455 112.24355 688.00165 112.29225 687.9982 L 123.5323 687.20945 C 123.59023 687.2054 123.64812 687.2006 123.70594 687.1951 L 136.11651 686.0131 C 136.18497 686.0066 136.25352 686.0011 136.32214 685.9966 L 148.25416 685.2142 C 148.36418 685.207 148.474 685.19715 148.58355 685.18475 L 158.9959 684.006 C 159.01144 684.0042 159.02697 684.0024 159.0425 684.0006 L 168.9902 682.8068 C 169.00954 682.8045 169.02886 682.8021 169.04818 682.7996 L 182.88394 681.0221 C 182.98115 681.0096 183.0781 680.9951 183.1747 680.9785 L 189.72819 679.85506 C 189.92915 679.8206 190.13153 679.79495 190.33473 679.7782 L 193.56706 679.5112 C 194.4563 679.43775 195.3233 679.195 196.12135 678.7959 L 197.60765 678.0528 C 198.20824 677.7525 198.7625 677.36735 199.25338 676.9092 L 200.5885 675.6631 C 201.19532 675.0967 201.65073 674.3875 201.91322 673.6 L 202.20805 672.7155 C 202.27812 672.5053 202.33817 672.2919 202.388 672.07595 L 202.8577 670.04056 C 202.89293 669.8879 202.8595 669.7275 202.76621 669.6017 L 202.76621 669.6017 C 202.67587 669.4798 202.52523 669.4183 202.3754 669.44214 L 193.89555 670.7912 C 193.84466 670.7993 193.79385 670.808 193.74315 670.8172 L 180.7584 673.17805 C 180.66561 673.1949 180.5725 673.2099 180.47911 673.223 L 169.24943 674.7991 C 169.22928 674.8019 169.20914 674.80486 169.18902 674.80786 L 156.0199 676.7734 C 155.88613 676.7934 155.75182 676.80945 155.61712 676.8216 L 145.10874 677.7721 C 144.90302 677.7907 144.69657 677.8002 144.49001 677.8005 L 143.05605 677.80295 C 142.8982 677.8032 142.7404 677.8088 142.58293 677.8198 L 128.45308 678.801 C 128.4305 678.8026 128.4079 678.804 128.38531 678.8054 L 115.08205 679.5996 C 115.04016 679.6021 114.99824 679.6042 114.9563 679.606 L 100.76485 680.1973 C 100.66776 680.2013 100.5706 680.20335 100.47344 680.20335 L 87.21921 680.20335 L 74.677535 680.20335 C 74.63865 680.20335 74.59976 680.2037 74.56088 680.2043 L 62.8025 680.4003 C 62.68032 680.4023 62.55812 680.4012 62.436005 680.3968 L 51.602405 680.0099 C 51.48029 680.0055 51.35809 680.0044 51.235914 680.0064 L 39.521274 680.20165 C 39.45323 680.2028 39.385176 680.2029 39.31713 680.2021 L 23.614845 680.0058 C 23.484443 680.0042 23.354113 679.9989 23.224007 679.99 L 8.914229 679.0099 C 8.850882 679.0055 8.787597 679.0003 8.724392 678.9943 L -5.766614 677.6047 C -5.7760685 677.6038 -5.785521 677.6029 -5.794972 677.6019 L -19.607008 676.2207 C -19.722849 676.20915 -19.838382 676.1947 -19.953501 676.1773 L -34.262653 674.02116 C -34.34141 674.0093 -34.420363 673.9988 -34.49948 673.9896 L -48.01941 672.4221 C -48.126987 672.4096 -48.23426 672.3946 -48.34114 672.3772 L -57.73323 670.8438 C -57.89822 670.8168 -58.062195 670.784 -58.224836 670.7453 L -67.302435 668.5865 C -67.690754 668.4942 -68.08041 668.7341 -68.17276 669.12244 C -68.17884 669.148 -68.183525 669.1739 -68.18679 669.2 Z" fill="white"/>
      <path d="M -68.18679 669.2 L -68.18679 669.2 C -68.25247 669.7255 -68.189645 670.25905 -68.0037 670.7549 L -67.35269 672.4909 C -67.17594 672.9623 -66.94885 673.4132 -66.67538 673.8358 L -65.70757 675.3315 C -65.16661 676.16756 -64.453506 676.87855 -63.61588 677.417 L -62.53783 678.11005 C -62.237574 678.3031 -61.922994 678.47285 -61.59684 678.6179 L -60.27999 679.2035 C -59.68346 679.4688 -59.052754 679.6493 -58.40621 679.7398 L -49.395787 681.00126 C -49.385793 681.00265 -49.375797 681.004 -49.3658 681.0054 L -37.6498 682.594 C -37.6038 682.6002 -37.557737 682.606 -37.51162 682.6113 L -27.228685 683.7978 C -27.19676 683.8015 -27.16481 683.805 -27.132835 683.8082 L -13.42277 685.1991 C -13.394787 685.2019 -13.366788 685.2046 -13.338774 685.2071 L -2.233474 686.19865 C -2.1983557 686.2018 -2.163214 686.20466 -2.1280523 686.2073 L 8.558485 686.99886 C 8.598964 687.00185 8.639468 687.0045 8.679993 687.0068 L 19.187976 687.6016 C 19.208795 687.6028 19.229608 687.604 19.250416 687.6054 L 31.293193 688.3951 C 31.377194 688.4006 31.461288 688.4046 31.545432 688.4071 L 44.99256 688.8026 C 45.01032 688.8031 45.028085 688.8037 45.045846 688.8043 L 55.68971 689.19856 C 55.77603 689.20176 55.86241 689.20335 55.94879 689.20335 L 66.55781 689.20335 C 66.59874 689.20335 66.63967 689.2037 66.680595 689.2044 L 77.76702 689.3989 C 77.93509 689.4019 78.10321 689.3988 78.27106 689.3896 L 88.89229 688.8103 C 88.97689 688.8057 89.06157 688.8026 89.14629 688.80104 L 99.91085 688.6053 C 99.98308 688.604 100.05529 688.6016 100.12745 688.598 L 112.14607 688.00695 C 112.19483 688.00455 112.24355 688.00165 112.29225 687.9982 L 123.5323 687.20945 C 123.59023 687.2054 123.64812 687.2006 123.70594 687.1951 L 136.11651 686.0131 C 136.18497 686.0066 136.25352 686.0011 136.32214 685.9966 L 148.25416 685.2142 C 148.36418 685.207 148.474 685.19715 148.58355 685.18475 L 158.9959 684.006 C 159.01144 684.0042 159.02697 684.0024 159.0425 684.0006 L 168.9902 682.8068 C 169.00954 682.8045 169.02886 682.8021 169.04818 682.7996 L 182.88394 681.0221 C 182.98115 681.0096 183.0781 680.9951 183.1747 680.9785 L 189.72819 679.85506 C 189.92915 679.8206 190.13153 679.79495 190.33473 679.7782 L 193.56706 679.5112 C 194.4563 679.43775 195.3233 679.195 196.12135 678.7959 L 197.60765 678.0528 C 198.20824 677.7525 198.7625 677.36735 199.25338 676.9092 L 200.5885 675.6631 C 201.19532 675.0967 201.65073 674.3875 201.91322 673.6 L 202.20805 672.7155 C 202.27812 672.5053 202.33817 672.2919 202.388 672.07595 L 202.8577 670.04056 C 202.89293 669.8879 202.8595 669.7275 202.76621 669.6017 L 202.76621 669.6017 C 202.67587 669.4798 202.52523 669.4183 202.3754 669.44214 L 193.89555 670.7912 C 193.84466 670.7993 193.79385 670.808 193.74315 670.8172 L 180.7584 673.17805 C 180.66561 673.1949 180.5725 673.2099 180.47911 673.223 L 169.24943 674.7991 C 169.22928 674.8019 169.20914 674.80486 169.18902 674.80786 L 156.0199 676.7734 C 155.88613 676.7934 155.75182 676.80945 155.61712 676.8216 L 145.10874 677.7721 C 144.90302 677.7907 144.69657 677.8002 144.49001 677.8005 L 143.05605 677.80295 C 142.8982 677.8032 142.7404 677.8088 142.58293 677.8198 L 128.45308 678.801 C 128.4305 678.8026 128.4079 678.804 128.38531 678.8054 L 115.08205 679.5996 C 115.04016 679.6021 114.99824 679.6042 114.9563 679.606 L 100.76485 680.1973 C 100.66776 680.2013 100.5706 680.20335 100.47344 680.20335 L 87.21921 680.20335 L 74.677535 680.20335 C 74.63865 680.20335 74.59976 680.2037 74.56088 680.2043 L 62.8025 680.4003 C 62.68032 680.4023 62.55812 680.4012 62.436005 680.3968 L 51.602405 680.0099 C 51.48029 680.0055 51.35809 680.0044 51.235914 680.0064 L 39.521274 680.20165 C 39.45323 680.2028 39.385176 680.2029 39.31713 680.2021 L 23.614845 680.0058 C 23.484443 680.0042 23.354113 679.9989 23.224007 679.99 L 8.914229 679.0099 C 8.850882 679.0055 8.787597 679.0003 8.724392 678.9943 L -5.766614 677.6047 C -5.7760685 677.6038 -5.785521 677.6029 -5.794972 677.6019 L -19.607008 676.2207 C -19.722849 676.20915 -19.838382 676.1947 -19.953501 676.1773 L -34.262653 674.02116 C -34.34141 674.0093 -34.420363 673.9988 -34.49948 673.9896 L -48.01941 672.4221 C -48.126987 672.4096 -48.23426 672.3946 -48.34114 672.3772 L -57.73323 670.8438 C -57.89822 670.8168 -58.062195 670.784 -58.224836 670.7453 L -67.302435 668.5865 C -67.690754 668.4942 -68.08041 668.7341 -68.17276 669.12244 C -68.17884 669.148 -68.183525 669.1739 -68.18679 669.2 Z" stroke="#7f8080" stroke-linecap="round" stroke-linejoin="round" stroke-width="1"/>
      <path d="M 227.21902 284.8 L 215.21902 277.7559 L 205.41902 274 L 205.21902 274 L 195.40529 270.4 L 182.61902 266.8 L 181.21902 266.7559 L -66.78098 667.7559 L -52.780984 670.7559 L -40.394716 672.8 L -35.994716 673.6 L -22.194716 675.6 L -10.194716 676.8 L -1.1947156 676.8 L .21901621 676.7559 Z" fill="white"/>
      <path d="M 227.21902 284.8 L 215.21902 277.7559 L 205.41902 274 L 205.21902 274 L 195.40529 270.4 L 182.61902 266.8 L 181.21902 266.7559 L -66.78098 667.7559 L -52.780984 670.7559 L -40.394716 672.8 L -35.994716 673.6 L -22.194716 675.6 L -10.194716 676.8 L -1.1947156 676.8 L .21901621 676.7559 Z" stroke="white" stroke-linecap="round" stroke-linejoin="round" stroke-width="0"/>
    </g>
  </g>
</svg>
