<?xml version="1.0" encoding="UTF-8" standalone="no"?>
<!DOCTYPE svg PUBLIC "-//W3C//DTD SVG 1.1//EN" "http://www.w3.org/Graphics/SVG/1.1/DTD/svg11.dtd">
<svg xmlns="http://www.w3.org/2000/svg" xmlns:xl="http://www.w3.org/1999/xlink" version="1.1" viewBox="64.5 -729.5 432.4053 449.30915" width="432.4053pt" height="449.30915pt" xmlns:dc="http://purl.org/dc/elements/1.1/">
  <metadata> Produced by OmniGraffle 7.6.1 
    <dc:date>2020-12-11 17:41:13 +0000</dc:date>
  </metadata>
  <defs>
    <radialGradient cx="0" cy="0" r="1" id="Gradient" gradientUnits="userSpaceOnUse">
      <stop offset="0" stop-color="white"/>
      <stop offset="1" stop-color="#2a2a2a"/>
    </radialGradient>
    <radialGradient id="Obj_Gradient" xl:href="#Gradient" gradientTransform="translate(279.75925 -701.6) scale(70.26272)"/>
  </defs>
  <g stroke="none" stroke-opacity="1" stroke-dasharray="none" fill="none" fill-opacity="1">
    <title>rayaRBN</title>
    <g>
      <title>Capa 1</title>
      <path d="M 218.00565 -728.40955 L 226.1711 -725.2918 C 227.0291 -724.9642 227.90594 -724.6883 228.79692 -724.4656 L 242.5141 -721.0363 C 243.67576 -720.7459 244.85832 -720.5466 246.051 -720.4403 L 263.57715 -718.8786 C 264.165 -718.8262 264.75464 -718.7965 265.34478 -718.7895 L 280.8237 -718.6052 C 281.11404 -718.6017 281.40442 -718.6038 281.6947 -718.6113 L 296.118 -718.9859 C 296.47878 -718.9953 296.8393 -719.0132 297.19924 -719.0395 L 311.57053 -720.0911 C 312.56197 -720.1636 313.54766 -720.3004 314.5214 -720.5004 L 326.09436 -722.87845 C 327.13637 -723.0926 328.16226 -723.3787 329.16465 -723.7348 L 340.91664 -727.9099 C 342.007 -728.2972 343.2102 -727.7665 343.65925 -726.7 L 343.65925 -726.7 C 344.1814 -725.4599 344.3334 -724.09515 344.09685 -722.77055 L 343.91637 -721.7599 C 343.6126 -720.0587 343.11806 -718.3972 342.44214 -716.8068 L 340.8989 -713.1757 C 340.34035 -711.8614 339.6606 -710.602 338.86846 -709.4138 L 335.1827 -703.88515 C 334.43517 -702.7639 333.59057 -701.7105 332.6586 -700.7371 L 326.36354 -694.1623 C 325.49547 -693.2556 324.55463 -692.4215 323.55046 -691.6684 L 315.17555 -685.3872 C 314.29914 -684.7299 313.37688 -684.1361 312.4158 -683.6102 L 305.2306 -679.6787 C 303.9195 -678.9613 302.54156 -678.3734 301.11638 -677.9233 L 294.44347 -675.8161 C 292.7266 -675.2739 290.952 -674.9352 289.15613 -674.8069 L 282.26968 -674.315 C 281.19738 -674.2384 280.12103 -674.2371 279.04854 -674.3111 L 270.6123 -674.8929 C 269.5781 -674.9642 268.54994 -675.1054 267.5348 -675.3154 L 260.3996 -676.79165 C 258.44765 -677.1955 256.55647 -677.8514 254.77362 -678.7428 L 250.1142 -681.0725 C 248.88007 -681.6896 247.70397 -682.4165 246.60012 -683.24434 L 240.91816 -687.5058 C 240.47903 -687.8352 240.05182 -688.1801 239.63737 -688.54005 L 233.8822 -693.538 C 233.0679 -694.2451 232.30436 -695.00865 231.59722 -695.8229 L 227.192 -700.8956 C 226.4379 -701.764 225.74998 -702.6877 225.13406 -703.65895 L 221.40036 -709.5467 C 221.0398 -710.1153 220.70437 -710.6994 220.39505 -711.29745 L 218.77468 -714.4302 C 218.16553 -715.60785 217.65936 -716.836 217.26183 -718.1009 L 215.98159 -722.1744 C 215.7668 -722.85775 215.58408 -723.5508 215.43399 -724.2512 L 215.35925 -724.6 C 215.16458 -725.5084 215.27185 -726.4556 215.66473 -727.2975 L 215.75925 -727.5 C 216.15372 -728.3453 217.1342 -728.7423 218.00565 -728.40955 Z" fill="url(#Obj_Gradient)"/>
      <path d="M 218.00565 -728.40955 L 226.1711 -725.2918 C 227.0291 -724.9642 227.90594 -724.6883 228.79692 -724.4656 L 242.5141 -721.0363 C 243.67576 -720.7459 244.85832 -720.5466 246.051 -720.4403 L 263.57715 -718.8786 C 264.165 -718.8262 264.75464 -718.7965 265.34478 -718.7895 L 280.8237 -718.6052 C 281.11404 -718.6017 281.40442 -718.6038 281.6947 -718.6113 L 296.118 -718.9859 C 296.47878 -718.9953 296.8393 -719.0132 297.19924 -719.0395 L 311.57053 -720.0911 C 312.56197 -720.1636 313.54766 -720.3004 314.5214 -720.5004 L 326.09436 -722.87845 C 327.13637 -723.0926 328.16226 -723.3787 329.16465 -723.7348 L 340.91664 -727.9099 C 342.007 -728.2972 343.2102 -727.7665 343.65925 -726.7 L 343.65925 -726.7 C 344.1814 -725.4599 344.3334 -724.09515 344.09685 -722.77055 L 343.91637 -721.7599 C 343.6126 -720.0587 343.11806 -718.3972 342.44214 -716.8068 L 340.8989 -713.1757 C 340.34035 -711.8614 339.6606 -710.602 338.86846 -709.4138 L 335.1827 -703.88515 C 334.43517 -702.7639 333.59057 -701.7105 332.6586 -700.7371 L 326.36354 -694.1623 C 325.49547 -693.2556 324.55463 -692.4215 323.55046 -691.6684 L 315.17555 -685.3872 C 314.29914 -684.7299 313.37688 -684.1361 312.4158 -683.6102 L 305.2306 -679.6787 C 303.9195 -678.9613 302.54156 -678.3734 301.11638 -677.9233 L 294.44347 -675.8161 C 292.7266 -675.2739 290.952 -674.9352 289.15613 -674.8069 L 282.26968 -674.315 C 281.19738 -674.2384 280.12103 -674.2371 279.04854 -674.3111 L 270.6123 -674.8929 C 269.5781 -674.9642 268.54994 -675.1054 267.5348 -675.3154 L 260.3996 -676.79165 C 258.44765 -677.1955 256.55647 -677.8514 254.77362 -678.7428 L 250.1142 -681.0725 C 248.88007 -681.6896 247.70397 -682.4165 246.60012 -683.24434 L 240.91816 -687.5058 C 240.47903 -687.8352 240.05182 -688.1801 239.63737 -688.54005 L 233.8822 -693.538 C 233.0679 -694.2451 232.30436 -695.00865 231.59722 -695.8229 L 227.192 -700.8956 C 226.4379 -701.764 225.74998 -702.6877 225.13406 -703.65895 L 221.40036 -709.5467 C 221.0398 -710.1153 220.70437 -710.6994 220.39505 -711.29745 L 218.77468 -714.4302 C 218.16553 -715.60785 217.65936 -716.836 217.26183 -718.1009 L 215.98159 -722.1744 C 215.7668 -722.85775 215.58408 -723.5508 215.43399 -724.2512 L 215.35925 -724.6 C 215.16458 -725.5084 215.27185 -726.4556 215.66473 -727.2975 L 215.75925 -727.5 C 216.15372 -728.3453 217.1342 -728.7423 218.00565 -728.40955 Z" stroke="#7f8080" stroke-linecap="round" stroke-linejoin="round" stroke-width="1"/>
      <path d="M 152.33006 -290.82707 L 166.0723 -288.5367 C 166.25568 -288.50613 166.43957 -288.47877 166.6239 -288.4546 L 194.97754 -284.7393 C 195.22407 -284.707 195.47132 -284.68045 195.71908 -284.65967 L 225.96197 -282.12317 C 226.21888 -282.10163 226.47627 -282.0863 226.7339 -282.0772 L 265.66482 -280.70084 C 265.8532 -280.69418 266.04165 -280.69085 266.23013 -280.69085 L 297.69745 -280.69085 C 297.86406 -280.69085 298.03067 -280.69345 298.1972 -280.69866 L 323.232 -281.481 C 323.44224 -281.48756 323.65233 -281.49828 323.86215 -281.51313 L 345.9099 -283.07404 C 346.0682 -283.08524 346.22636 -283.0988 346.38427 -283.11472 L 371.64475 -285.66035 C 371.8465 -285.68068 372.04783 -285.70484 372.24865 -285.73283 L 396.04134 -289.0482 C 396.24535 -289.07663 396.4488 -289.109 396.65156 -289.14528 L 405.8474 -290.79085 C 411.1745 -291.74412 414.82536 -296.69777 414.15895 -302.0683 L 411.95136 -319.85887 C 411.9487 -319.8802 411.9461 -319.9015 411.94355 -319.92284 L 408.37973 -349.62137 C 408.35817 -349.801 408.33966 -349.981 408.3242 -350.16127 L 405.962 -377.7205 C 405.95226 -377.83406 405.94374 -377.94773 405.93643 -378.0615 L 404.5498 -399.65313 C 404.5482 -399.6783 404.5465 -399.7034 404.5448 -399.72856 L 402.95263 -422.81487 C 402.94914 -422.8655 402.9459 -422.9162 402.94287 -422.9669 L 401.7665 -442.76905 C 401.75376 -442.98356 401.74534 -443.1983 401.74125 -443.41316 L 401.34897 -464.008 C 401.3479 -464.06323 401.3466 -464.11846 401.34495 -464.1737 L 400.74983 -484.408 C 400.7482 -484.46324 400.74686 -484.51847 400.7458 -484.5737 L 400.35515 -505.08324 C 400.35 -505.35494 400.35173 -505.6267 400.3604 -505.8983 L 400.94634 -524.25794 C 400.94704 -524.2799 400.9478 -524.3018 400.94857 -524.32376 L 401.73666 -546.1931 C 401.7438 -546.3916 401.75466 -546.5899 401.7692 -546.788 L 403.3267 -568.00865 C 403.3405 -568.1968 403.35096 -568.3851 403.3581 -568.5736 L 404.11256 -588.4725 C 404.13576 -589.0842 404.19404 -589.69414 404.28713 -590.2992 L 407.02613 -608.1027 C 407.1069 -608.6278 407.2138 -609.1486 407.3464 -609.663 L 411.97466 -627.6207 C 412.08976 -628.06725 412.2241 -628.50864 412.37734 -628.9436 L 418.0981 -645.18325 C 418.2642 -645.6547 418.4523 -646.1182 418.6618 -646.572 L 424.19333 -658.5571 C 424.296 -658.7796 424.4038 -658.9997 424.5166 -659.2172 L 429.87883 -669.5586 C 429.92454 -669.6468 429.97106 -669.7345 430.0184 -669.8218 L 435.2344 -679.4387 C 435.97165 -680.7981 436.9213 -682.031 438.0474 -683.09086 L 438.0474 -683.09086 C 438.7226 -683.7263 438.7548 -684.7888 438.1193 -685.464 C 437.9948 -685.5963 437.84967 -685.7075 437.68955 -685.7933 L 434.4754 -687.5151 C 434.25676 -687.6323 434.0354 -687.7443 433.81155 -687.85114 L 425.95757 -691.5996 C 425.55096 -691.7937 425.13634 -691.9705 424.7148 -692.1296 L 415.04 -695.78044 C 414.84494 -695.85404 414.6485 -695.9238 414.4507 -695.98975 L 401.75623 -700.2212 C 401.617 -700.26765 401.47716 -700.3121 401.3367 -700.3547 L 388.4532 -704.2588 C 388.38266 -704.2802 388.31227 -704.302 388.24205 -704.3244 L 375.73805 -708.3029 C 375.34442 -708.4282 374.9558 -708.5686 374.57304 -708.7239 L 362.5971 -713.5837 C 361.76543 -713.9212 360.96364 -714.3281 360.2002 -714.8 L 350.58096 -720.7465 C 350.42526 -720.8427 350.2712 -720.9416 350.1189 -721.0432 L 345.2288 -724.3032 C 344.2474 -724.9575 343.3761 -725.7634 342.6474 -726.69086 L 342.6474 -726.69086 C 342.5418 -726.8253 342.3472 -726.8486 342.2128 -726.743 C 342.11007 -726.6623 342.0691 -726.5257 342.1104 -726.4018 L 342.2474 -725.99086 C 342.70664 -724.6131 342.8112 -723.1418 342.5514 -721.713 L 342.15627 -719.5397 C 341.88506 -718.04804 341.4032 -716.6025 340.7252 -715.24645 L 339.19287 -712.1818 C 338.89617 -711.5884 338.56285 -711.01405 338.19484 -710.462 L 334.99113 -705.6565 C 334.56253 -705.0136 334.08792 -704.4026 333.57104 -703.8282 L 329.009 -698.7593 C 328.96792 -698.7137 328.9266 -698.6683 328.885 -698.6231 L 322.89077 -692.1151 C 322.26303 -691.43356 321.5773 -690.8078 320.84125 -690.245 L 315.81707 -686.403 C 315.37093 -686.0618 314.90712 -685.74435 314.4276 -685.45195 L 307.9412 -681.4968 C 307.27953 -681.0934 306.58943 -680.7385 305.87635 -680.4351 L 298.76094 -677.4073 C 297.95327 -677.0636 297.1187 -676.7869 296.26566 -676.5801 L 292.1866 -675.5913 C 291.36177 -675.3913 290.52233 -675.2573 289.67624 -675.1905 L 283.97603 -674.7405 C 283.5571 -674.7074 283.13702 -674.69086 282.7168 -674.69086 L 275.68447 -674.69086 C 274.92737 -674.69086 274.17122 -674.7446 273.42173 -674.8517 L 265.47528 -675.9869 C 264.99027 -676.05616 264.5087 -676.1477 264.0321 -676.2612 L 258.07087 -677.6805 C 256.92538 -677.9532 255.8135 -678.3516 254.75543 -678.8683 L 248.47543 -681.9353 C 247.99038 -682.1722 247.51763 -682.4335 247.059 -682.7181 L 242.84712 -685.3324 C 242.24795 -685.7043 241.67403 -686.1154 241.1291 -686.563 L 236.683 -690.2152 C 236.4593 -690.3989 236.24063 -690.5887 236.02723 -690.7843 L 232.2249 -694.2698 C 231.7736 -694.6835 231.3464 -695.12275 230.94546 -695.5854 L 226.8267 -700.3378 C 226.50733 -700.7063 226.20496 -701.0892 225.92056 -701.4854 L 221.4909 -707.65525 C 220.996 -708.3446 220.55674 -709.07215 220.17725 -709.8311 L 217.60078 -714.9841 C 217.56519 -715.0553 217.53012 -715.1267 217.4956 -715.1984 L 216.24739 -717.79086 C 215.39667 -719.5577 215.04115 -721.5223 215.2187 -723.4752 L 215.3989 -725.4575 C 215.4227 -725.7193 215.22972 -725.9509 214.96786 -725.9747 C 214.80546 -725.9895 214.6468 -725.9201 214.54739 -725.79086 L 214.54739 -725.79086 C 213.88394 -724.9284 213.10383 -724.1623 212.22945 -723.5146 L 208.33292 -720.6283 C 208.20924 -720.5367 208.08424 -720.44684 207.95796 -720.3588 L 203.33571 -717.1373 C 202.14898 -716.31015 200.85556 -715.6478 199.4908 -715.1683 L 194.88368 -713.54955 C 194.3931 -713.3772 193.91123 -713.181 193.43976 -712.9617 L 186.59298 -709.7772 C 185.89682 -709.4534 185.17826 -709.1801 184.44286 -708.9595 L 173.57247 -705.6984 C 173.55575 -705.6934 173.53903 -705.6883 173.52233 -705.68325 L 162.55424 -702.35365 C 162.41634 -702.3118 162.27902 -702.2681 162.1423 -702.2225 L 149.22107 -697.9154 C 149.17195 -697.89904 149.12275 -697.8829 149.07347 -697.867 L 137.70606 -694.2001 C 137.06758 -693.99414 136.44268 -693.7482 135.83506 -693.4638 L 127.9031 -689.751 C 127.53276 -689.5776 127.1692 -689.39014 126.81322 -689.1889 L 120.86711 -685.8281 C 119.61408 -685.11985 119.17243 -683.5299 119.88067 -682.2769 C 119.95778 -682.14046 120.04705 -682.01125 120.14738 -681.89086 L 121.0115 -680.8539 C 121.76644 -679.948 122.41892 -678.9614 122.95703 -677.912 L 126.03417 -671.9116 C 126.10964 -671.76445 126.18739 -671.6185 126.26739 -671.4737 L 130.22214 -664.3175 C 130.30563 -664.1664 130.38667 -664.014 130.46523 -663.8603 L 134.57354 -655.8223 C 134.8226 -655.335 135.0465 -654.8352 135.24436 -654.325 L 138.72713 -645.3431 C 138.74063 -645.3083 138.75426 -645.2735 138.768 -645.23876 L 142.36433 -636.1533 C 142.48634 -635.8451 142.59874 -635.5331 142.70136 -635.2179 L 145.3232 -627.16514 C 145.33932 -627.1156 145.3552 -627.066 145.37084 -627.0163 L 148.4429 -617.2581 C 148.64568 -616.6139 148.80749 -615.95755 148.92734 -615.29294 L 150.91265 -604.2835 C 150.9358 -604.1551 150.95739 -604.0264 150.9774 -603.8974 L 152.68327 -592.90405 C 152.726 -592.6286 152.76154 -592.35215 152.78983 -592.0749 L 153.67725 -583.37816 C 153.72399 -582.9202 153.75093 -582.4604 153.75801 -582.00006 L 153.94225 -570.02444 C 153.94567 -569.8021 153.95373 -569.5798 153.96642 -569.3578 L 154.7368 -555.8762 C 154.74385 -555.75264 154.75235 -555.62916 154.76228 -555.5058 L 156.09585 -538.9314 C 156.1302 -538.50455 156.14739 -538.07647 156.14739 -537.6482 L 156.14739 -525.19843 C 156.14739 -524.9934 156.15133 -524.7884 156.1592 -524.5835 L 156.73956 -509.49436 C 156.74478 -509.3587 156.74827 -509.22297 156.75003 -509.0872 L 156.94219 -494.29095 C 156.94565 -494.02426 156.94245 -493.7575 156.93258 -493.491 L 156.35835 -477.98684 C 156.35104 -477.78953 156.34739 -477.5921 156.34739 -477.39466 L 156.34739 -463.79843 C 156.34739 -463.5934 156.34344 -463.3884 156.33556 -463.1835 L 155.75037 -447.9685 C 155.74838 -447.91673 155.74614 -447.865 155.74364 -447.81324 L 154.94832 -431.3103 C 154.9477 -431.29734 154.94706 -431.28437 154.9464 -431.2714 L 154.15191 -415.58024 C 154.1489 -415.52065 154.14554 -415.46107 154.14186 -415.4015 L 152.95295 -396.1808 C 152.94924 -396.12083 152.9452 -396.0609 152.94081 -396.001 L 151.15767 -371.63143 C 151.15081 -371.5377 151.14313 -371.44406 151.13462 -371.35047 L 149.34873 -351.70566 C 149.34783 -351.6958 149.34693 -351.6859 149.34601 -351.67604 L 147.57525 -332.59114 C 147.55667 -332.39096 147.53433 -332.19116 147.50823 -331.99182 L 145.54751 -317.0191 C 145.4147 -316.0049 145.14556 -315.0133 144.74738 -314.07112 L 144.74738 -314.07112 C 144.34981 -313.13038 144.10114 -312.13346 144.01032 -311.1162 L 143.24738 -302.57112 C 142.73963 -296.8841 146.6981 -291.76573 152.33006 -290.82707 Z" fill="black"/>
      <path d="M 152.33006 -290.82707 L 166.0723 -288.5367 C 166.25568 -288.50613 166.43957 -288.47877 166.6239 -288.4546 L 194.97754 -284.7393 C 195.22407 -284.707 195.47132 -284.68045 195.71908 -284.65967 L 225.96197 -282.12317 C 226.21888 -282.10163 226.47627 -282.0863 226.7339 -282.0772 L 265.66482 -280.70084 C 265.8532 -280.69418 266.04165 -280.69085 266.23013 -280.69085 L 297.69745 -280.69085 C 297.86406 -280.69085 298.03067 -280.69345 298.1972 -280.69866 L 323.232 -281.481 C 323.44224 -281.48756 323.65233 -281.49828 323.86215 -281.51313 L 345.9099 -283.07404 C 346.0682 -283.08524 346.22636 -283.0988 346.38427 -283.11472 L 371.64475 -285.66035 C 371.8465 -285.68068 372.04783 -285.70484 372.24865 -285.73283 L 396.04134 -289.0482 C 396.24535 -289.07663 396.4488 -289.109 396.65156 -289.14528 L 405.8474 -290.79085 C 411.1745 -291.74412 414.82536 -296.69777 414.15895 -302.0683 L 411.95136 -319.85887 C 411.9487 -319.8802 411.9461 -319.9015 411.94355 -319.92284 L 408.37973 -349.62137 C 408.35817 -349.801 408.33966 -349.981 408.3242 -350.16127 L 405.962 -377.7205 C 405.95226 -377.83406 405.94374 -377.94773 405.93643 -378.0615 L 404.5498 -399.65313 C 404.5482 -399.6783 404.5465 -399.7034 404.5448 -399.72856 L 402.95263 -422.81487 C 402.94914 -422.8655 402.9459 -422.9162 402.94287 -422.9669 L 401.7665 -442.76905 C 401.75376 -442.98356 401.74534 -443.1983 401.74125 -443.41316 L 401.34897 -464.008 C 401.3479 -464.06323 401.3466 -464.11846 401.34495 -464.1737 L 400.74983 -484.408 C 400.7482 -484.46324 400.74686 -484.51847 400.7458 -484.5737 L 400.35515 -505.08324 C 400.35 -505.35494 400.35173 -505.6267 400.3604 -505.8983 L 400.94634 -524.25794 C 400.94704 -524.2799 400.9478 -524.3018 400.94857 -524.32376 L 401.73666 -546.1931 C 401.7438 -546.3916 401.75466 -546.5899 401.7692 -546.788 L 403.3267 -568.00865 C 403.3405 -568.1968 403.35096 -568.3851 403.3581 -568.5736 L 404.11256 -588.4725 C 404.13576 -589.0842 404.19404 -589.69414 404.28713 -590.2992 L 407.02613 -608.1027 C 407.1069 -608.6278 407.2138 -609.1486 407.3464 -609.663 L 411.97466 -627.6207 C 412.08976 -628.06725 412.2241 -628.50864 412.37734 -628.9436 L 418.0981 -645.18325 C 418.2642 -645.6547 418.4523 -646.1182 418.6618 -646.572 L 424.19333 -658.5571 C 424.296 -658.7796 424.4038 -658.9997 424.5166 -659.2172 L 429.87883 -669.5586 C 429.92454 -669.6468 429.97106 -669.7345 430.0184 -669.8218 L 435.2344 -679.4387 C 435.97165 -680.7981 436.9213 -682.031 438.0474 -683.09086 L 438.0474 -683.09086 C 438.7226 -683.7263 438.7548 -684.7888 438.1193 -685.464 C 437.9948 -685.5963 437.84967 -685.7075 437.68955 -685.7933 L 434.4754 -687.5151 C 434.25676 -687.6323 434.0354 -687.7443 433.81155 -687.85114 L 425.95757 -691.5996 C 425.55096 -691.7937 425.13634 -691.9705 424.7148 -692.1296 L 415.04 -695.78044 C 414.84494 -695.85404 414.6485 -695.9238 414.4507 -695.98975 L 401.75623 -700.2212 C 401.617 -700.26765 401.47716 -700.3121 401.3367 -700.3547 L 388.4532 -704.2588 C 388.38266 -704.2802 388.31227 -704.302 388.24205 -704.3244 L 375.73805 -708.3029 C 375.34442 -708.4282 374.9558 -708.5686 374.57304 -708.7239 L 362.5971 -713.5837 C 361.76543 -713.9212 360.96364 -714.3281 360.2002 -714.8 L 350.58096 -720.7465 C 350.42526 -720.8427 350.2712 -720.9416 350.1189 -721.0432 L 345.2288 -724.3032 C 344.2474 -724.9575 343.3761 -725.7634 342.6474 -726.69086 L 342.6474 -726.69086 C 342.5418 -726.8253 342.3472 -726.8486 342.2128 -726.743 C 342.11007 -726.6623 342.0691 -726.5257 342.1104 -726.4018 L 342.2474 -725.99086 C 342.70664 -724.6131 342.8112 -723.1418 342.5514 -721.713 L 342.15627 -719.5397 C 341.88506 -718.04804 341.4032 -716.6025 340.7252 -715.24645 L 339.19287 -712.1818 C 338.89617 -711.5884 338.56285 -711.01405 338.19484 -710.462 L 334.99113 -705.6565 C 334.56253 -705.0136 334.08792 -704.4026 333.57104 -703.8282 L 329.009 -698.7593 C 328.96792 -698.7137 328.9266 -698.6683 328.885 -698.6231 L 322.89077 -692.1151 C 322.26303 -691.43356 321.5773 -690.8078 320.84125 -690.245 L 315.81707 -686.403 C 315.37093 -686.0618 314.90712 -685.74435 314.4276 -685.45195 L 307.9412 -681.4968 C 307.27953 -681.0934 306.58943 -680.7385 305.87635 -680.4351 L 298.76094 -677.4073 C 297.95327 -677.0636 297.1187 -676.7869 296.26566 -676.5801 L 292.1866 -675.5913 C 291.36177 -675.3913 290.52233 -675.2573 289.67624 -675.1905 L 283.97603 -674.7405 C 283.5571 -674.7074 283.13702 -674.69086 282.7168 -674.69086 L 275.68447 -674.69086 C 274.92737 -674.69086 274.17122 -674.7446 273.42173 -674.8517 L 265.47528 -675.9869 C 264.99027 -676.05616 264.5087 -676.1477 264.0321 -676.2612 L 258.07087 -677.6805 C 256.92538 -677.9532 255.8135 -678.3516 254.75543 -678.8683 L 248.47543 -681.9353 C 247.99038 -682.1722 247.51763 -682.4335 247.059 -682.7181 L 242.84712 -685.3324 C 242.24795 -685.7043 241.67403 -686.1154 241.1291 -686.563 L 236.683 -690.2152 C 236.4593 -690.3989 236.24063 -690.5887 236.02723 -690.7843 L 232.2249 -694.2698 C 231.7736 -694.6835 231.3464 -695.12275 230.94546 -695.5854 L 226.8267 -700.3378 C 226.50733 -700.7063 226.20496 -701.0892 225.92056 -701.4854 L 221.4909 -707.65525 C 220.996 -708.3446 220.55674 -709.07215 220.17725 -709.8311 L 217.60078 -714.9841 C 217.56519 -715.0553 217.53012 -715.1267 217.4956 -715.1984 L 216.24739 -717.79086 C 215.39667 -719.5577 215.04115 -721.5223 215.2187 -723.4752 L 215.3989 -725.4575 C 215.4227 -725.7193 215.22972 -725.9509 214.96786 -725.9747 C 214.80546 -725.9895 214.6468 -725.9201 214.54739 -725.79086 L 214.54739 -725.79086 C 213.88394 -724.9284 213.10383 -724.1623 212.22945 -723.5146 L 208.33292 -720.6283 C 208.20924 -720.5367 208.08424 -720.44684 207.95796 -720.3588 L 203.33571 -717.1373 C 202.14898 -716.31015 200.85556 -715.6478 199.4908 -715.1683 L 194.88368 -713.54955 C 194.3931 -713.3772 193.91123 -713.181 193.43976 -712.9617 L 186.59298 -709.7772 C 185.89682 -709.4534 185.17826 -709.1801 184.44286 -708.9595 L 173.57247 -705.6984 C 173.55575 -705.6934 173.53903 -705.6883 173.52233 -705.68325 L 162.55424 -702.35365 C 162.41634 -702.3118 162.27902 -702.2681 162.1423 -702.2225 L 149.22107 -697.9154 C 149.17195 -697.89904 149.12275 -697.8829 149.07347 -697.867 L 137.70606 -694.2001 C 137.06758 -693.99414 136.44268 -693.7482 135.83506 -693.4638 L 127.9031 -689.751 C 127.53276 -689.5776 127.1692 -689.39014 126.81322 -689.1889 L 120.86711 -685.8281 C 119.61408 -685.11985 119.17243 -683.5299 119.88067 -682.2769 C 119.95778 -682.14046 120.04705 -682.01125 120.14738 -681.89086 L 121.0115 -680.8539 C 121.76644 -679.948 122.41892 -678.9614 122.95703 -677.912 L 126.03417 -671.9116 C 126.10964 -671.76445 126.18739 -671.6185 126.26739 -671.4737 L 130.22214 -664.3175 C 130.30563 -664.1664 130.38667 -664.014 130.46523 -663.8603 L 134.57354 -655.8223 C 134.8226 -655.335 135.0465 -654.8352 135.24436 -654.325 L 138.72713 -645.3431 C 138.74063 -645.3083 138.75426 -645.2735 138.768 -645.23876 L 142.36433 -636.1533 C 142.48634 -635.8451 142.59874 -635.5331 142.70136 -635.2179 L 145.3232 -627.16514 C 145.33932 -627.1156 145.3552 -627.066 145.37084 -627.0163 L 148.4429 -617.2581 C 148.64568 -616.6139 148.80749 -615.95755 148.92734 -615.29294 L 150.91265 -604.2835 C 150.9358 -604.1551 150.95739 -604.0264 150.9774 -603.8974 L 152.68327 -592.90405 C 152.726 -592.6286 152.76154 -592.35215 152.78983 -592.0749 L 153.67725 -583.37816 C 153.72399 -582.9202 153.75093 -582.4604 153.75801 -582.00006 L 153.94225 -570.02444 C 153.94567 -569.8021 153.95373 -569.5798 153.96642 -569.3578 L 154.7368 -555.8762 C 154.74385 -555.75264 154.75235 -555.62916 154.76228 -555.5058 L 156.09585 -538.9314 C 156.1302 -538.50455 156.14739 -538.07647 156.14739 -537.6482 L 156.14739 -525.19843 C 156.14739 -524.9934 156.15133 -524.7884 156.1592 -524.5835 L 156.73956 -509.49436 C 156.74478 -509.3587 156.74827 -509.22297 156.75003 -509.0872 L 156.94219 -494.29095 C 156.94565 -494.02426 156.94245 -493.7575 156.93258 -493.491 L 156.35835 -477.98684 C 156.35104 -477.78953 156.34739 -477.5921 156.34739 -477.39466 L 156.34739 -463.79843 C 156.34739 -463.5934 156.34344 -463.3884 156.33556 -463.1835 L 155.75037 -447.9685 C 155.74838 -447.91673 155.74614 -447.865 155.74364 -447.81324 L 154.94832 -431.3103 C 154.9477 -431.29734 154.94706 -431.28437 154.9464 -431.2714 L 154.15191 -415.58024 C 154.1489 -415.52065 154.14554 -415.46107 154.14186 -415.4015 L 152.95295 -396.1808 C 152.94924 -396.12083 152.9452 -396.0609 152.94081 -396.001 L 151.15767 -371.63143 C 151.15081 -371.5377 151.14313 -371.44406 151.13462 -371.35047 L 149.34873 -351.70566 C 149.34783 -351.6958 149.34693 -351.6859 149.34601 -351.67604 L 147.57525 -332.59114 C 147.55667 -332.39096 147.53433 -332.19116 147.50823 -331.99182 L 145.54751 -317.0191 C 145.4147 -316.0049 145.14556 -315.0133 144.74738 -314.07112 L 144.74738 -314.07112 C 144.34981 -313.13038 144.10114 -312.13346 144.01032 -311.1162 L 143.24738 -302.57112 C 142.73963 -296.8841 146.6981 -291.76573 152.33006 -290.82707 Z" stroke="#7f8080" stroke-linecap="round" stroke-linejoin="round" stroke-width="1"/>
      <path d="M 65 -577.55385 L 71.2 -573.15385 L 79.4 -569.15385 L 88 -565.55385 L 97 -561.75385 L 108 -557.75385 L 117.4 -554.95385 L 126.4 -552.35385 L 135.4 -549.75385 L 140.8 -548.35385 L 146.4 -547.35385 L 148.8 -553.15385 L 151.4 -558.55385 L 153.6 -562.55385 L 156.2 -565.95385 L 156.4 -574.95385 L 155.8 -585.95385 L 154 -596.75385 L 152.4 -607.15385 L 149.8 -618.15386 L 147.4 -627.75386 L 144.6 -635.75386 L 141.4 -645.15386 L 138.6 -652.55386 L 135 -660.15386 L 131 -667.75386 L 127 -675.15386 L 124.4 -678.75386 L 120.8 -684.55386 L 115.4 -680.15386 L 110.6 -675.35386 L 106 -669.15386 L 101.6 -662.95386 L 96.8 -654.35386 L 92 -644.95386 L 87.2 -635.75386 L 83.6 -627.15386 L 79.6 -618.15386 L 76.4 -609.95385 L 72.6 -600.55385 L 69.8 -592.55385 L 66.8 -584.15385 Z" fill="black"/>
      <path d="M 65 -577.55385 L 71.2 -573.15385 L 79.4 -569.15385 L 88 -565.55385 L 97 -561.75385 L 108 -557.75385 L 117.4 -554.95385 L 126.4 -552.35385 L 135.4 -549.75385 L 140.8 -548.35385 L 146.4 -547.35385 L 148.8 -553.15385 L 151.4 -558.55385 L 153.6 -562.55385 L 156.2 -565.95385 L 156.4 -574.95385 L 155.8 -585.95385 L 154 -596.75385 L 152.4 -607.15385 L 149.8 -618.15386 L 147.4 -627.75386 L 144.6 -635.75386 L 141.4 -645.15386 L 138.6 -652.55386 L 135 -660.15386 L 131 -667.75386 L 127 -675.15386 L 124.4 -678.75386 L 120.8 -684.55386 L 115.4 -680.15386 L 110.6 -675.35386 L 106 -669.15386 L 101.6 -662.95386 L 96.8 -654.35386 L 92 -644.95386 L 87.2 -635.75386 L 83.6 -627.15386 L 79.6 -618.15386 L 76.4 -609.95385 L 72.6 -600.55385 L 69.8 -592.55385 L 66.8 -584.15385 Z" stroke="#7f8080" stroke-linecap="round" stroke-linejoin="round" stroke-width="1"/>
      <path d="M 496.4053 -578.49725 L 490.2053 -574.09725 L 482.0053 -570.09725 L 473.4053 -566.49725 L 464.4053 -562.69725 L 453.4053 -558.69725 L 444.0053 -555.89725 L 435.0053 -553.29725 L 426.0053 -550.69725 L 420.6053 -549.29725 L 415.0053 -548.29725 L 412.6053 -554.09725 L 410.0053 -559.49725 L 407.8053 -563.49725 L 405.2053 -566.89725 L 405.0053 -575.89725 L 405.6053 -586.89725 L 407.4053 -597.69725 L 409.0053 -608.09725 L 411.6053 -619.09725 L 414.0053 -628.69725 L 416.8053 -636.69725 L 420.0053 -646.09725 L 422.8053 -653.49725 L 426.4053 -661.09725 L 430.4053 -668.69725 L 434.4053 -676.09725 L 437.0053 -679.69725 L 440.6053 -685.49725 L 446.0053 -681.09725 L 450.8053 -676.29725 L 455.4053 -670.09725 L 459.8053 -663.89725 L 464.6053 -655.29725 L 469.4053 -645.89725 L 474.2053 -636.69725 L 477.8053 -628.09725 L 481.8053 -619.09725 L 485.0053 -610.89725 L 488.8053 -601.49725 L 491.6053 -593.49725 L 494.6053 -585.09725 Z" fill="black"/>
      <path d="M 496.4053 -578.49725 L 490.2053 -574.09725 L 482.0053 -570.09725 L 473.4053 -566.49725 L 464.4053 -562.69725 L 453.4053 -558.69725 L 444.0053 -555.89725 L 435.0053 -553.29725 L 426.0053 -550.69725 L 420.6053 -549.29725 L 415.0053 -548.29725 L 412.6053 -554.09725 L 410.0053 -559.49725 L 407.8053 -563.49725 L 405.2053 -566.89725 L 405.0053 -575.89725 L 405.6053 -586.89725 L 407.4053 -597.69725 L 409.0053 -608.09725 L 411.6053 -619.09725 L 414.0053 -628.69725 L 416.8053 -636.69725 L 420.0053 -646.09725 L 422.8053 -653.49725 L 426.4053 -661.09725 L 430.4053 -668.69725 L 434.4053 -676.09725 L 437.0053 -679.69725 L 440.6053 -685.49725 L 446.0053 -681.09725 L 450.8053 -676.29725 L 455.4053 -670.09725 L 459.8053 -663.89725 L 464.6053 -655.29725 L 469.4053 -645.89725 L 474.2053 -636.69725 L 477.8053 -628.09725 L 481.8053 -619.09725 L 485.0053 -610.89725 L 488.8053 -601.49725 L 491.6053 -593.49725 L 494.6053 -585.09725 Z" stroke="#7f8080" stroke-linecap="round" stroke-linejoin="round" stroke-width="1"/>
      <path d="M 216.5 -287.52083 L 222 -286.50694 L 236 -286 L 257 -286 L 257 -664.6875 L 245 -668.74306 L 238 -672.7986 L 229 -678.88194 L 220 -687.5 Z" fill="white"/>
      <path d="M 216.5 -287.52083 L 222 -286.50694 L 236 -286 L 257 -286 L 257 -664.6875 L 245 -668.74306 L 238 -672.7986 L 229 -678.88194 L 220 -687.5 Z" stroke="#7f8080" stroke-linecap="round" stroke-linejoin="round" stroke-width="1"/>
      <path d="M 310 -666.25126 L 319 -671.3078 L 325 -675.8587 L 333 -681.9265 L 339 -688.5 L 340 -288.52827 L 326.5 -287.0113 L 315.5 -286.50565 L 309 -286 L 304 -286.50565 L 302 -663.2173 Z" fill="white"/>
      <path d="M 310 -666.25126 L 319 -671.3078 L 325 -675.8587 L 333 -681.9265 L 339 -688.5 L 340 -288.52827 L 326.5 -287.0113 L 315.5 -286.50565 L 309 -286 L 304 -286.50565 L 302 -663.2173 Z" stroke="#7f8080" stroke-linecap="round" stroke-linejoin="round" stroke-width="1"/>
      <path d="M 456.0053 -567.43995 L 441.0053 -560.93995 L 429.5053 -557.93995 L 417.5053 -554.93995 L 412.0053 -553.93995 L 407.0053 -564.43995 L 401.4 -571.29086 L 405.0053 -578.93995 L 406.5053 -588.93995 L 404 -603.89086 L 409.5 -615.43995 L 413.5 -626.43995 L 416.5 -636.93995 L 419.5 -642.93995 L 436.0053 -612.93995 L 443.5053 -597.43995 L 451.5053 -579.43995 Z" fill="white"/>
      <path d="M 456.0053 -567.43995 L 441.0053 -560.93995 L 429.5053 -557.93995 L 417.5053 -554.93995 L 412.0053 -553.93995 L 407.0053 -564.43995 L 401.4 -571.29086 L 405.0053 -578.93995 L 406.5053 -588.93995 L 404 -603.89086 L 409.5 -615.43995 L 413.5 -626.43995 L 416.5 -636.93995 L 419.5 -642.93995 L 436.0053 -612.93995 L 443.5053 -597.43995 L 451.5053 -579.43995 Z" stroke="#7f8080" stroke-linecap="round" stroke-linejoin="round" stroke-width="1"/>
      <path d="M 104 -567.09086 L 148 -551.59086 L 154.4 -565.8453 L 155.9 -567.3453 L 156.4 -580.3453 L 154.9 -590.3453 L 152.9 -602.8453 L 149.9 -616.3453 L 146.9 -626.3453 L 144.4 -636.8453 L 141.4 -642.8453 L 125.4 -614.3453 L 117.9 -598.8453 L 109.9 -580.8453 Z" fill="white"/>
      <path d="M 104 -567.09086 L 148 -551.59086 L 154.4 -565.8453 L 155.9 -567.3453 L 156.4 -580.3453 L 154.9 -590.3453 L 152.9 -602.8453 L 149.9 -616.3453 L 146.9 -626.3453 L 144.4 -636.8453 L 141.4 -642.8453 L 125.4 -614.3453 L 117.9 -598.8453 L 109.9 -580.8453 Z" stroke="#7f8080" stroke-linecap="round" stroke-linejoin="round" stroke-width="1"/>
      <path d="M 176.3417 -297.1139 L 172.02797 -297.53887 L 161.02797 -298.53887 L 148.02797 -300.53887 L 144.02797 -302.53887 L 149.02797 -333.53887 L 150.8417 -359.6139 L 153.3417 -387.6139 L 154.8417 -414.6139 L 155.3417 -443.6139 L 156.8417 -470.6139 L 157.3417 -496.1139 L 156.3417 -532.1139 L 155.3417 -565.6139 L 155.3417 -580.6139 L 152.8417 -596.1139 L 150.3417 -611.1139 L 145.8417 -626.6139 L 141.3417 -641.1139 L 136.3417 -654.6139 L 129.8417 -668.1139 L 123.3417 -678.6139 L 119.8417 -685.1139 L 129.02797 -691.5389 L 142.02797 -696.5389 L 155.02797 -700.5389 L 173.3417 -706.1139 L 178.8417 -707.6139 Z" fill="white"/>
      <path d="M 176.3417 -297.1139 L 172.02797 -297.53887 L 161.02797 -298.53887 L 148.02797 -300.53887 L 144.02797 -302.53887 L 149.02797 -333.53887 L 150.8417 -359.6139 L 153.3417 -387.6139 L 154.8417 -414.6139 L 155.3417 -443.6139 L 156.8417 -470.6139 L 157.3417 -496.1139 L 156.3417 -532.1139 L 155.3417 -565.6139 L 155.3417 -580.6139 L 152.8417 -596.1139 L 150.3417 -611.1139 L 145.8417 -626.6139 L 141.3417 -641.1139 L 136.3417 -654.6139 L 129.8417 -668.1139 L 123.3417 -678.6139 L 119.8417 -685.1139 L 129.02797 -691.5389 L 142.02797 -696.5389 L 155.02797 -700.5389 L 173.3417 -706.1139 L 178.8417 -707.6139 Z" stroke="#7f8080" stroke-linecap="round" stroke-linejoin="round" stroke-width="1"/>
      <path d="M 387.2729 -296.1628 L 398.47305 -297.16648 L 411.7096 -299.1738 L 415.78235 -301.18115 L 410.6914 -332.29484 L 407.6368 -359.39386 L 405.6004 -386.4929 L 402.54583 -413.5919 L 401.52763 -441.6946 L 401.52763 -470.80095 L 400.50944 -494.889 L 400.50944 -532.0247 L 404.5 -568.5 L 407 -597 L 409.5 -612 L 413.5 -627 L 418.5 -641 L 423 -654.5 L 429.5 -668 L 436.5 -679.5 L 440.219 -686.5895 L 431.05527 -691.6078 L 417.81874 -696.6261 L 404.5822 -700.6408 L 385.23653 -705.65914 L 382 -296 Z" fill="white"/>
      <path d="M 387.2729 -296.1628 L 398.47305 -297.16648 L 411.7096 -299.1738 L 415.78235 -301.18115 L 410.6914 -332.29484 L 407.6368 -359.39386 L 405.6004 -386.4929 L 402.54583 -413.5919 L 401.52763 -441.6946 L 401.52763 -470.80095 L 400.50944 -494.889 L 400.50944 -532.0247 L 404.5 -568.5 L 407 -597 L 409.5 -612 L 413.5 -627 L 418.5 -641 L 423 -654.5 L 429.5 -668 L 436.5 -679.5 L 440.219 -686.5895 L 431.05527 -691.6078 L 417.81874 -696.6261 L 404.5822 -700.6408 L 385.23653 -705.65914 L 382 -296 Z" stroke="#7f8080" stroke-linecap="round" stroke-linejoin="round" stroke-width="1"/>
      <path d="M 215.25 -728 L 220.65 -728.6 L 227.45 -725.2 L 232.45 -723.4 L 240.85 -721.6 L 249.25 -720.6 L 257.25 -719.6 L 264.85 -719.4 L 273.45 -719 L 285.05 -719.2 L 293.45 -719.6 L 302.85 -720.2 L 311.25 -721 L 320.45 -722.4 L 328.65 -724.6 L 334.45 -726.4 L 340.05 -729 L 342.85 -727.8 L 343.25 -722.2 L 340.45 -714.2 L 335.05 -711.4 L 324.45 -708.2 L 313.05 -705.8 L 301.85 -705 L 289.45 -704 L 279.05 -704 L 269.65 -704 L 258.05 -704.6 L 246.85 -705.4 L 236.25 -707.6 L 227.65 -709.6 L 221.45 -712.4 L 219.45 -714 L 216.25 -721.6 Z" fill="#840000"/>
      <path d="M 215.25 -728 L 220.65 -728.6 L 227.45 -725.2 L 232.45 -723.4 L 240.85 -721.6 L 249.25 -720.6 L 257.25 -719.6 L 264.85 -719.4 L 273.45 -719 L 285.05 -719.2 L 293.45 -719.6 L 302.85 -720.2 L 311.25 -721 L 320.45 -722.4 L 328.65 -724.6 L 334.45 -726.4 L 340.05 -729 L 342.85 -727.8 L 343.25 -722.2 L 340.45 -714.2 L 335.05 -711.4 L 324.45 -708.2 L 313.05 -705.8 L 301.85 -705 L 289.45 -704 L 279.05 -704 L 269.65 -704 L 258.05 -704.6 L 246.85 -705.4 L 236.25 -707.6 L 227.65 -709.6 L 221.45 -712.4 L 219.45 -714 L 216.25 -721.6 Z" stroke="#7f8080" stroke-linecap="round" stroke-linejoin="round" stroke-width="1"/>
      <rect x="257" y="-667" width="46" height="381" fill="red"/>
      <rect x="257" y="-667" width="46" height="381" stroke="#a5a5a5" stroke-linecap="round" stroke-linejoin="round" stroke-width="1"/>
      <path d="M 215.57212 -727.0362 L 210.84295 -722.9826 C 209.6926 -721.9966 208.44764 -721.1267 207.12621 -720.3855 L 204.59958 -718.96835 C 203.1644 -718.1634 202.5836 -716.39425 203.2624 -714.8953 L 204.28 -712.648 C 204.40158 -712.37954 204.52831 -712.1134 204.66012 -711.8498 L 206.4624 -708.2453 L 208.94938 -703.2713 C 209.29117 -702.5877 209.66683 -701.9216 210.07495 -701.2754 L 212.40134 -697.5919 C 212.84172 -696.89465 213.31928 -696.2216 213.83195 -695.5756 L 217.24264 -691.27815 C 217.7887 -690.5901 218.3737 -689.93394 218.99482 -689.3128 L 223.66087 -684.6468 C 224.06175 -684.2459 224.4773 -683.86 224.9067 -683.4898 L 229.47023 -679.55574 C 229.8649 -679.2155 230.271 -678.8888 230.68785 -678.5762 L 234.6628 -675.595 C 235.3287 -675.0955 236.02123 -674.6326 236.73733 -674.2083 L 240.8704 -671.759 C 240.9984 -671.6832 241.12712 -671.6086 241.25656 -671.5352 L 245.9541 -668.8733 C 246.6924 -668.4549 247.45328 -668.07774 248.23325 -667.7435 L 251.78307 -666.2221 C 252.36903 -665.971 252.96518 -665.7443 253.56997 -665.5427 L 258.58808 -663.87 C 259.83532 -663.4543 261.11592 -663.14624 262.4158 -662.9493 L 266.51464 -662.32826 C 266.87976 -662.2729 267.24615 -662.2264 267.6135 -662.18874 L 274.4946 -661.483 C 274.73978 -661.4578 274.98534 -661.4366 275.2312 -661.4194 L 279.75835 -661.1017 C 280.2942 -661.0641 280.83122 -661.0453 281.3684 -661.0453 L 284.63046 -661.0453 C 285.58416 -661.0453 286.53693 -661.1046 287.48327 -661.2229 L 291.472 -661.7215 C 292.13195 -661.80396 292.78802 -661.91504 293.43835 -662.0544 L 299.5204 -663.3577 C 300.41426 -663.5492 301.29592 -663.7939 302.16068 -664.0904 L 306.66952 -665.6363 C 307.46417 -665.9087 308.2433 -666.2245 309.0034 -666.5822 L 313.83677 -668.8567 C 314.38697 -669.11565 314.9267 -669.3963 315.45464 -669.698 L 319.2225 -671.85104 C 319.9153 -672.2469 320.587 -672.6786 321.23494 -673.1443 L 325.91106 -676.50525 C 326.41175 -676.8651 326.89776 -677.245 327.3679 -677.6439 L 332.68877 -682.15856 C 333.0711 -682.48294 333.4427 -682.81974 333.803 -683.1684 L 338.5022 -687.71604 C 339.1418 -688.335 339.7449 -688.9906 340.30852 -689.6794 L 344.1018 -694.31566 C 344.6085 -694.935 345.08257 -695.5803 345.522 -696.249 L 349.1392 -701.7534 C 349.35462 -702.0813 349.56163 -702.41456 349.76 -702.753 L 352.2831 -707.0571 C 352.66906 -707.7155 353.022 -708.39265 353.34062 -709.0861 L 355.4593 -713.6974 C 355.9922 -714.85715 356.36334 -716.0846 356.5624 -717.3453 L 356.5624 -717.3453 C 356.7407 -718.4745 356.1614 -719.588 355.1343 -720.0901 L 349.8409 -722.678 C 348.5264 -723.3206 347.29183 -724.1151 346.1624 -725.0453 L 345.7564 -725.3796 C 344.91205 -726.07496 344.28864 -727.0013 343.9624 -728.0453 L 343.9624 -728.0453 C 343.91573 -728.1946 343.75686 -728.2778 343.60754 -728.2311 C 343.49247 -728.1952 343.41277 -728.0903 343.40892 -727.9698 L 343.29968 -724.5469 C 343.20894 -721.7038 342.5916 -718.9022 341.479 -716.2843 L 340.60206 -714.22096 C 340.0435 -712.9067 339.36374 -711.6473 338.5716 -710.4591 L 334.88582 -704.9304 C 334.1383 -703.80915 333.2937 -702.75575 332.36175 -701.7824 L 326.0667 -695.2075 C 325.1986 -694.3009 324.25777 -693.4668 323.2536 -692.7137 L 314.8787 -686.4325 C 314.00228 -685.7752 313.08 -685.1813 312.11896 -684.6555 L 304.93376 -680.7239 C 303.62263 -680.0065 302.2447 -679.4186 300.8195 -678.9686 L 294.1466 -676.8613 C 292.42973 -676.3192 290.65514 -675.9805 288.85927 -675.8522 L 281.9728 -675.3603 C 280.9005 -675.2837 279.82417 -675.2824 278.7517 -675.35635 L 270.31543 -675.93816 C 269.28125 -676.0095 268.25308 -676.1506 267.23795 -676.3607 L 260.10274 -677.8369 C 258.1508 -678.2408 256.2596 -678.89665 254.47676 -679.7881 L 249.81735 -682.1178 C 248.5832 -682.73485 247.4071 -683.4617 246.30326 -684.2896 L 240.6213 -688.5511 C 240.18217 -688.8804 239.75496 -689.2254 239.3405 -689.5853 L 233.58533 -694.5832 C 232.77104 -695.2904 232.0075 -696.0539 231.30036 -696.8682 L 226.89513 -701.9409 C 226.14103 -702.80925 225.45312 -703.73295 224.8372 -704.7042 L 221.1035 -710.592 C 220.74293 -711.1606 220.4075 -711.7447 220.0982 -712.3427 L 218.47781 -715.4754 C 217.86867 -716.6531 217.3625 -717.8813 216.96497 -719.14615 L 215.68473 -723.2196 C 215.46995 -723.903 215.28722 -724.59605 215.13713 -725.2965 L 214.9117 -726.3484 C 214.82664 -726.7454 215.053 -727.1431 215.4378 -727.2726 L 215.4378 -727.2726 C 215.5103 -727.297 215.58884 -727.25805 215.61325 -727.1856 C 215.63126 -727.13205 215.615 -727.07296 215.57212 -727.0362 Z" fill="red"/>
      <path d="M 215.57212 -727.0362 L 210.84295 -722.9826 C 209.6926 -721.9966 208.44764 -721.1267 207.12621 -720.3855 L 204.59958 -718.96835 C 203.1644 -718.1634 202.5836 -716.39425 203.2624 -714.8953 L 204.28 -712.648 C 204.40158 -712.37954 204.52831 -712.1134 204.66012 -711.8498 L 206.4624 -708.2453 L 208.94938 -703.2713 C 209.29117 -702.5877 209.66683 -701.9216 210.07495 -701.2754 L 212.40134 -697.5919 C 212.84172 -696.89465 213.31928 -696.2216 213.83195 -695.5756 L 217.24264 -691.27815 C 217.7887 -690.5901 218.3737 -689.93394 218.99482 -689.3128 L 223.66087 -684.6468 C 224.06175 -684.2459 224.4773 -683.86 224.9067 -683.4898 L 229.47023 -679.55574 C 229.8649 -679.2155 230.271 -678.8888 230.68785 -678.5762 L 234.6628 -675.595 C 235.3287 -675.0955 236.02123 -674.6326 236.73733 -674.2083 L 240.8704 -671.759 C 240.9984 -671.6832 241.12712 -671.6086 241.25656 -671.5352 L 245.9541 -668.8733 C 246.6924 -668.4549 247.45328 -668.07774 248.23325 -667.7435 L 251.78307 -666.2221 C 252.36903 -665.971 252.96518 -665.7443 253.56997 -665.5427 L 258.58808 -663.87 C 259.83532 -663.4543 261.11592 -663.14624 262.4158 -662.9493 L 266.51464 -662.32826 C 266.87976 -662.2729 267.24615 -662.2264 267.6135 -662.18874 L 274.4946 -661.483 C 274.73978 -661.4578 274.98534 -661.4366 275.2312 -661.4194 L 279.75835 -661.1017 C 280.2942 -661.0641 280.83122 -661.0453 281.3684 -661.0453 L 284.63046 -661.0453 C 285.58416 -661.0453 286.53693 -661.1046 287.48327 -661.2229 L 291.472 -661.7215 C 292.13195 -661.80396 292.78802 -661.91504 293.43835 -662.0544 L 299.5204 -663.3577 C 300.41426 -663.5492 301.29592 -663.7939 302.16068 -664.0904 L 306.66952 -665.6363 C 307.46417 -665.9087 308.2433 -666.2245 309.0034 -666.5822 L 313.83677 -668.8567 C 314.38697 -669.11565 314.9267 -669.3963 315.45464 -669.698 L 319.2225 -671.85104 C 319.9153 -672.2469 320.587 -672.6786 321.23494 -673.1443 L 325.91106 -676.50525 C 326.41175 -676.8651 326.89776 -677.245 327.3679 -677.6439 L 332.68877 -682.15856 C 333.0711 -682.48294 333.4427 -682.81974 333.803 -683.1684 L 338.5022 -687.71604 C 339.1418 -688.335 339.7449 -688.9906 340.30852 -689.6794 L 344.1018 -694.31566 C 344.6085 -694.935 345.08257 -695.5803 345.522 -696.249 L 349.1392 -701.7534 C 349.35462 -702.0813 349.56163 -702.41456 349.76 -702.753 L 352.2831 -707.0571 C 352.66906 -707.7155 353.022 -708.39265 353.34062 -709.0861 L 355.4593 -713.6974 C 355.9922 -714.85715 356.36334 -716.0846 356.5624 -717.3453 L 356.5624 -717.3453 C 356.7407 -718.4745 356.1614 -719.588 355.1343 -720.0901 L 349.8409 -722.678 C 348.5264 -723.3206 347.29183 -724.1151 346.1624 -725.0453 L 345.7564 -725.3796 C 344.91205 -726.07496 344.28864 -727.0013 343.9624 -728.0453 L 343.9624 -728.0453 C 343.91573 -728.1946 343.75686 -728.2778 343.60754 -728.2311 C 343.49247 -728.1952 343.41277 -728.0903 343.40892 -727.9698 L 343.29968 -724.5469 C 343.20894 -721.7038 342.5916 -718.9022 341.479 -716.2843 L 340.60206 -714.22096 C 340.0435 -712.9067 339.36374 -711.6473 338.5716 -710.4591 L 334.88582 -704.9304 C 334.1383 -703.80915 333.2937 -702.75575 332.36175 -701.7824 L 326.0667 -695.2075 C 325.1986 -694.3009 324.25777 -693.4668 323.2536 -692.7137 L 314.8787 -686.4325 C 314.00228 -685.7752 313.08 -685.1813 312.11896 -684.6555 L 304.93376 -680.7239 C 303.62263 -680.0065 302.2447 -679.4186 300.8195 -678.9686 L 294.1466 -676.8613 C 292.42973 -676.3192 290.65514 -675.9805 288.85927 -675.8522 L 281.9728 -675.3603 C 280.9005 -675.2837 279.82417 -675.2824 278.7517 -675.35635 L 270.31543 -675.93816 C 269.28125 -676.0095 268.25308 -676.1506 267.23795 -676.3607 L 260.10274 -677.8369 C 258.1508 -678.2408 256.2596 -678.89665 254.47676 -679.7881 L 249.81735 -682.1178 C 248.5832 -682.73485 247.4071 -683.4617 246.30326 -684.2896 L 240.6213 -688.5511 C 240.18217 -688.8804 239.75496 -689.2254 239.3405 -689.5853 L 233.58533 -694.5832 C 232.77104 -695.2904 232.0075 -696.0539 231.30036 -696.8682 L 226.89513 -701.9409 C 226.14103 -702.80925 225.45312 -703.73295 224.8372 -704.7042 L 221.1035 -710.592 C 220.74293 -711.1606 220.4075 -711.7447 220.0982 -712.3427 L 218.47781 -715.4754 C 217.86867 -716.6531 217.3625 -717.8813 216.96497 -719.14615 L 215.68473 -723.2196 C 215.46995 -723.903 215.28722 -724.59605 215.13713 -725.2965 L 214.9117 -726.3484 C 214.82664 -726.7454 215.053 -727.1431 215.4378 -727.2726 L 215.4378 -727.2726 C 215.5103 -727.297 215.58884 -727.25805 215.61325 -727.1856 C 215.63126 -727.13205 215.615 -727.07296 215.57212 -727.0362 Z" stroke="#7f8080" stroke-linecap="round" stroke-linejoin="round" stroke-width="1"/>
      <path d="M 144.81321 -301.26236 L 144.81321 -301.26236 C 144.74753 -300.73688 144.81036 -300.2033 144.9963 -299.70746 L 145.6473 -297.97144 C 145.82406 -297.5001 146.05115 -297.0492 146.32462 -296.62655 L 147.29243 -295.13083 C 147.8334 -294.2948 148.5465 -293.58382 149.38412 -293.04534 L 150.46217 -292.3523 C 150.76243 -292.1593 151.077 -291.98952 151.40316 -291.84448 L 152.72001 -291.25888 C 153.31654 -290.9936 153.94725 -290.8131 154.5938 -290.72257 L 163.60421 -289.4611 C 163.6142 -289.4597 163.6242 -289.45833 163.6342 -289.45698 L 175.3502 -287.86837 C 175.3962 -287.86213 175.44226 -287.85635 175.48838 -287.85103 L 185.77131 -286.66454 C 185.80324 -286.66085 185.8352 -286.6574 185.86716 -286.65415 L 199.57723 -285.26327 C 199.60521 -285.26043 199.6332 -285.25776 199.66123 -285.25526 L 210.76653 -284.2637 C 210.80164 -284.26058 210.83679 -284.2577 210.87195 -284.2551 L 221.55848 -283.4635 C 221.59896 -283.4605 221.63947 -283.45786 221.68 -283.45557 L 232.18798 -282.86078 C 232.2088 -282.8596 232.2296 -282.85833 232.25042 -282.85696 L 244.2932 -282.06727 C 244.3772 -282.06177 244.4613 -282.05777 244.54543 -282.0553 L 257.99256 -281.6598 C 258.01032 -281.65927 258.0281 -281.65868 258.04585 -281.65802 L 268.6897 -281.2638 C 268.77603 -281.2606 268.8624 -281.259 268.9488 -281.259 L 279.5578 -281.259 C 279.59874 -281.259 279.63967 -281.25865 279.6806 -281.25793 L 290.76702 -281.06344 C 290.9351 -281.0605 291.1032 -281.0636 291.27106 -281.07275 L 301.8923 -281.6521 C 301.9769 -281.6567 302.06157 -281.65978 302.1463 -281.66132 L 312.91085 -281.85704 C 312.9831 -281.85835 313.0553 -281.8608 313.12745 -281.86433 L 325.14607 -282.4554 C 325.19483 -282.4578 325.24355 -282.46072 325.29225 -282.46414 L 336.5323 -283.2529 C 336.59023 -283.25698 336.6481 -283.26177 336.70594 -283.26727 L 349.1165 -284.44923 C 349.18497 -284.45575 349.25352 -284.46126 349.32214 -284.46576 L 361.25416 -285.2482 C 361.36418 -285.2554 361.474 -285.2652 361.58355 -285.27762 L 371.9959 -286.45637 C 372.01144 -286.45813 372.02697 -286.45994 372.0425 -286.4618 L 381.9902 -287.65553 C 382.00954 -287.65785 382.02886 -287.66025 382.0482 -287.66273 L 395.88394 -289.44027 C 395.98115 -289.45276 396.0781 -289.4673 396.1747 -289.48385 L 402.7282 -290.6073 C 402.92915 -290.64176 403.13153 -290.6674 403.33473 -290.6842 L 406.56706 -290.95117 C 407.4563 -291.0246 408.3233 -291.2674 409.12135 -291.66643 L 410.60765 -292.40957 C 411.20824 -292.70987 411.7625 -293.095 412.2534 -293.55318 L 413.5885 -294.7993 C 414.1953 -295.36565 414.65073 -296.0749 414.9132 -296.86236 L 415.20805 -297.74684 C 415.2781 -297.95707 415.33817 -298.1705 415.388 -298.38642 L 415.8577 -300.4218 C 415.89293 -300.57444 415.8595 -300.73484 415.7662 -300.8607 L 415.7662 -300.8607 C 415.67587 -300.98256 415.52523 -301.04406 415.3754 -301.02023 L 406.89555 -299.67116 C 406.84466 -299.66306 406.79385 -299.6544 406.74315 -299.6452 L 393.7584 -297.28432 C 393.6656 -297.26745 393.5725 -297.25246 393.4791 -297.23935 L 382.24943 -295.66325 C 382.2293 -295.66043 382.20914 -295.6575 382.189 -295.6545 L 369.06643 -293.6959 C 368.90167 -293.67132 368.73608 -293.6526 368.57 -293.63984 L 355.84517 -292.661 C 355.82786 -292.65968 355.81055 -292.6584 355.79323 -292.6572 L 341.4531 -291.66136 C 341.4305 -291.6598 341.4079 -291.65834 341.3853 -291.657 L 328.08205 -290.86276 C 328.04016 -290.86026 327.99824 -290.85814 327.9563 -290.8564 L 313.76485 -290.26508 C 313.66776 -290.26103 313.5706 -290.259 313.47344 -290.259 L 300.2192 -290.259 L 287.67753 -290.259 C 287.63865 -290.259 287.59976 -290.2587 287.5609 -290.25804 L 275.8025 -290.06207 C 275.68032 -290.06003 275.55812 -290.0612 275.436 -290.06555 L 264.6024 -290.45247 C 264.4803 -290.45683 264.3581 -290.458 264.2359 -290.45596 L 252.52127 -290.2607 C 252.45323 -290.25958 252.38518 -290.25944 252.31713 -290.2603 L 236.61484 -290.45657 C 236.48444 -290.4582 236.3541 -290.46347 236.224 -290.47238 L 221.91423 -291.4525 C 221.85088 -291.45684 221.7876 -291.46204 221.7244 -291.4681 L 207.23339 -292.85765 C 207.22393 -292.85856 207.21448 -292.8595 207.20503 -292.86043 L 193.393 -294.24163 C 193.27715 -294.2532 193.16162 -294.2677 193.0465 -294.28504 L 178.73735 -296.4412 C 178.6586 -296.45308 178.57964 -296.4636 178.50052 -296.47277 L 164.98059 -298.0403 C 164.87301 -298.05277 164.76574 -298.06774 164.65886 -298.0852 L 155.26677 -299.6186 C 155.10178 -299.64553 154.9378 -299.67837 154.77516 -299.71705 L 145.69756 -301.87583 C 145.30925 -301.96817 144.91959 -301.72824 144.82724 -301.33992 C 144.82116 -301.31434 144.81647 -301.28845 144.81321 -301.26236 Z" fill="red"/>
      <path d="M 144.81321 -301.26236 L 144.81321 -301.26236 C 144.74753 -300.73688 144.81036 -300.2033 144.9963 -299.70746 L 145.6473 -297.97144 C 145.82406 -297.5001 146.05115 -297.0492 146.32462 -296.62655 L 147.29243 -295.13083 C 147.8334 -294.2948 148.5465 -293.58382 149.38412 -293.04534 L 150.46217 -292.3523 C 150.76243 -292.1593 151.077 -291.98952 151.40316 -291.84448 L 152.72001 -291.25888 C 153.31654 -290.9936 153.94725 -290.8131 154.5938 -290.72257 L 163.60421 -289.4611 C 163.6142 -289.4597 163.6242 -289.45833 163.6342 -289.45698 L 175.3502 -287.86837 C 175.3962 -287.86213 175.44226 -287.85635 175.48838 -287.85103 L 185.77131 -286.66454 C 185.80324 -286.66085 185.8352 -286.6574 185.86716 -286.65415 L 199.57723 -285.26327 C 199.60521 -285.26043 199.6332 -285.25776 199.66123 -285.25526 L 210.76653 -284.2637 C 210.80164 -284.26058 210.83679 -284.2577 210.87195 -284.2551 L 221.55848 -283.4635 C 221.59896 -283.4605 221.63947 -283.45786 221.68 -283.45557 L 232.18798 -282.86078 C 232.2088 -282.8596 232.2296 -282.85833 232.25042 -282.85696 L 244.2932 -282.06727 C 244.3772 -282.06177 244.4613 -282.05777 244.54543 -282.0553 L 257.99256 -281.6598 C 258.01032 -281.65927 258.0281 -281.65868 258.04585 -281.65802 L 268.6897 -281.2638 C 268.77603 -281.2606 268.8624 -281.259 268.9488 -281.259 L 279.5578 -281.259 C 279.59874 -281.259 279.63967 -281.25865 279.6806 -281.25793 L 290.76702 -281.06344 C 290.9351 -281.0605 291.1032 -281.0636 291.27106 -281.07275 L 301.8923 -281.6521 C 301.9769 -281.6567 302.06157 -281.65978 302.1463 -281.66132 L 312.91085 -281.85704 C 312.9831 -281.85835 313.0553 -281.8608 313.12745 -281.86433 L 325.14607 -282.4554 C 325.19483 -282.4578 325.24355 -282.46072 325.29225 -282.46414 L 336.5323 -283.2529 C 336.59023 -283.25698 336.6481 -283.26177 336.70594 -283.26727 L 349.1165 -284.44923 C 349.18497 -284.45575 349.25352 -284.46126 349.32214 -284.46576 L 361.25416 -285.2482 C 361.36418 -285.2554 361.474 -285.2652 361.58355 -285.27762 L 371.9959 -286.45637 C 372.01144 -286.45813 372.02697 -286.45994 372.0425 -286.4618 L 381.9902 -287.65553 C 382.00954 -287.65785 382.02886 -287.66025 382.0482 -287.66273 L 395.88394 -289.44027 C 395.98115 -289.45276 396.0781 -289.4673 396.1747 -289.48385 L 402.7282 -290.6073 C 402.92915 -290.64176 403.13153 -290.6674 403.33473 -290.6842 L 406.56706 -290.95117 C 407.4563 -291.0246 408.3233 -291.2674 409.12135 -291.66643 L 410.60765 -292.40957 C 411.20824 -292.70987 411.7625 -293.095 412.2534 -293.55318 L 413.5885 -294.7993 C 414.1953 -295.36565 414.65073 -296.0749 414.9132 -296.86236 L 415.20805 -297.74684 C 415.2781 -297.95707 415.33817 -298.1705 415.388 -298.38642 L 415.8577 -300.4218 C 415.89293 -300.57444 415.8595 -300.73484 415.7662 -300.8607 L 415.7662 -300.8607 C 415.67587 -300.98256 415.52523 -301.04406 415.3754 -301.02023 L 406.89555 -299.67116 C 406.84466 -299.66306 406.79385 -299.6544 406.74315 -299.6452 L 393.7584 -297.28432 C 393.6656 -297.26745 393.5725 -297.25246 393.4791 -297.23935 L 382.24943 -295.66325 C 382.2293 -295.66043 382.20914 -295.6575 382.189 -295.6545 L 369.06643 -293.6959 C 368.90167 -293.67132 368.73608 -293.6526 368.57 -293.63984 L 355.84517 -292.661 C 355.82786 -292.65968 355.81055 -292.6584 355.79323 -292.6572 L 341.4531 -291.66136 C 341.4305 -291.6598 341.4079 -291.65834 341.3853 -291.657 L 328.08205 -290.86276 C 328.04016 -290.86026 327.99824 -290.85814 327.9563 -290.8564 L 313.76485 -290.26508 C 313.66776 -290.26103 313.5706 -290.259 313.47344 -290.259 L 300.2192 -290.259 L 287.67753 -290.259 C 287.63865 -290.259 287.59976 -290.2587 287.5609 -290.25804 L 275.8025 -290.06207 C 275.68032 -290.06003 275.55812 -290.0612 275.436 -290.06555 L 264.6024 -290.45247 C 264.4803 -290.45683 264.3581 -290.458 264.2359 -290.45596 L 252.52127 -290.2607 C 252.45323 -290.25958 252.38518 -290.25944 252.31713 -290.2603 L 236.61484 -290.45657 C 236.48444 -290.4582 236.3541 -290.46347 236.224 -290.47238 L 221.91423 -291.4525 C 221.85088 -291.45684 221.7876 -291.46204 221.7244 -291.4681 L 207.23339 -292.85765 C 207.22393 -292.85856 207.21448 -292.8595 207.20503 -292.86043 L 193.393 -294.24163 C 193.27715 -294.2532 193.16162 -294.2677 193.0465 -294.28504 L 178.73735 -296.4412 C 178.6586 -296.45308 178.57964 -296.4636 178.50052 -296.47277 L 164.98059 -298.0403 C 164.87301 -298.05277 164.76574 -298.06774 164.65886 -298.0852 L 155.26677 -299.6186 C 155.10178 -299.64553 154.9378 -299.67837 154.77516 -299.71705 L 145.69756 -301.87583 C 145.30925 -301.96817 144.91959 -301.72824 144.82724 -301.33992 C 144.82116 -301.31434 144.81647 -301.28845 144.81321 -301.26236 Z" stroke="#7f8080" stroke-linecap="round" stroke-linejoin="round" stroke-width="1"/>
      <path d="M 418.4 -640 L 414 -626.4 L 443.6 -564 L 453.1379 -562.8396 L 462.92595 -566.67026 L 472.4 -569.4 L 426.6 -660.2 L 423 -652.8 L 421.8 -649.2 Z" fill="red"/>
      <path d="M 418.4 -640 L 414 -626.4 L 443.6 -564 L 453.1379 -562.8396 L 462.92595 -566.67026 L 472.4 -569.4 L 426.6 -660.2 L 423 -652.8 L 421.8 -649.2 Z" stroke="gray" stroke-linecap="round" stroke-linejoin="round" stroke-width=".25"/>
      <path d="M 88.6 -574.8 L 133.6 -659.6 L 138 -648.8 L 142.4 -636.8 L 146.2 -623.2 L 115.4 -560.2 Z" fill="red"/>
      <path d="M 88.6 -574.8 L 133.6 -659.6 L 138 -648.8 L 142.4 -636.8 L 146.2 -623.2 L 115.4 -560.2 Z" stroke="gray" stroke-linecap="round" stroke-linejoin="round" stroke-width=".25"/>
      <path d="M 65 -577.55385 L 71.2 -573.15385 L 79.4 -569.15385 L 88 -565.55385 L 97 -561.75385 L 108 -557.75385 L 117.4 -554.95385 L 126.4 -552.35385 L 135.4 -549.75385 L 140.8 -548.35385 L 146.4 -547.35385 L 149.4 -553.75385 L 145.6 -554.55385 L 140.8 -555.75385 L 135.2 -556.95385 L 129.2 -558.75385 L 124.6 -560.15385 L 120.4 -561.35385 L 115.8 -563.35385 L 111.2 -564.95385 L 106.4 -566.95385 L 102.4 -568.35385 L 97.2 -570.55385 L 92.6 -572.15385 L 87.8 -574.35385 L 83 -576.15385 L 79 -578.15385 L 74.6 -580.35385 L 70.2 -582.55385 L 66.8 -584.15385 Z" fill="red"/>
      <path d="M 65 -577.55385 L 71.2 -573.15385 L 79.4 -569.15385 L 88 -565.55385 L 97 -561.75385 L 108 -557.75385 L 117.4 -554.95385 L 126.4 -552.35385 L 135.4 -549.75385 L 140.8 -548.35385 L 146.4 -547.35385 L 149.4 -553.75385 L 145.6 -554.55385 L 140.8 -555.75385 L 135.2 -556.95385 L 129.2 -558.75385 L 124.6 -560.15385 L 120.4 -561.35385 L 115.8 -563.35385 L 111.2 -564.95385 L 106.4 -566.95385 L 102.4 -568.35385 L 97.2 -570.55385 L 92.6 -572.15385 L 87.8 -574.35385 L 83 -576.15385 L 79 -578.15385 L 74.6 -580.35385 L 70.2 -582.55385 L 66.8 -584.15385 Z" stroke="#7f8080" stroke-linecap="round" stroke-linejoin="round" stroke-width="1"/>
      <path d="M 496.4053 -578.49725 L 490.2053 -574.09725 L 482.0053 -570.09725 L 473.4053 -566.49725 L 464.4053 -562.69725 L 453.4053 -558.69725 L 444.0053 -555.89725 L 435.0053 -553.29725 L 426.0053 -550.69725 L 420.6053 -549.29725 L 415.0053 -548.29725 L 412.0053 -554.69725 L 415.8053 -555.49725 L 420.6053 -556.69725 L 426.2053 -557.89725 L 432.2053 -559.69725 L 436.8053 -561.09725 L 441.0053 -562.29725 L 445.6053 -564.29725 L 450.2053 -565.89725 L 455.0053 -567.89725 L 459.0053 -569.29725 L 464.2053 -571.49725 L 468.8053 -573.09725 L 473.6053 -575.29725 L 478.4053 -577.09725 L 482.4053 -579.09725 L 486.8053 -581.29725 L 491.2053 -583.49725 L 494.6053 -585.09725 Z" fill="red"/>
      <path d="M 496.4053 -578.49725 L 490.2053 -574.09725 L 482.0053 -570.09725 L 473.4053 -566.49725 L 464.4053 -562.69725 L 453.4053 -558.69725 L 444.0053 -555.89725 L 435.0053 -553.29725 L 426.0053 -550.69725 L 420.6053 -549.29725 L 415.0053 -548.29725 L 412.0053 -554.69725 L 415.8053 -555.49725 L 420.6053 -556.69725 L 426.2053 -557.89725 L 432.2053 -559.69725 L 436.8053 -561.09725 L 441.0053 -562.29725 L 445.6053 -564.29725 L 450.2053 -565.89725 L 455.0053 -567.89725 L 459.0053 -569.29725 L 464.2053 -571.49725 L 468.8053 -573.09725 L 473.6053 -575.29725 L 478.4053 -577.09725 L 482.4053 -579.09725 L 486.8053 -581.29725 L 491.2053 -583.49725 L 494.6053 -585.09725 Z" stroke="#7f8080" stroke-linecap="round" stroke-linejoin="round" stroke-width="1"/>
    </g>
  </g>
</svg>
