<?xml version="1.0" encoding="UTF-8" standalone="no"?>
<!DOCTYPE svg PUBLIC "-//W3C//DTD SVG 1.1//EN" "http://www.w3.org/Graphics/SVG/1.1/DTD/svg11.dtd">
<svg xmlns="http://www.w3.org/2000/svg" xmlns:xl="http://www.w3.org/1999/xlink" version="1.1" viewBox="64.5 -729.5 433.4053 450.30915" width="433.4053pt" height="450.30915pt" xmlns:dc="http://purl.org/dc/elements/1.1/">
  <metadata> Produced by OmniGraffle 7.6.1 
    <dc:date>2020-12-01 00:37:05 +0000</dc:date>
  </metadata>
  <defs>
    <radialGradient cx="0" cy="0" r="1" id="Gradient" gradientUnits="userSpaceOnUse">
      <stop offset="0" stop-color="white"/>
      <stop offset="1" stop-color="#2a2a2a"/>
    </radialGradient>
    <radialGradient id="Obj_Gradient" xl:href="#Gradient" gradientTransform="translate(279.75925 -701.6) scale(70.26272)"/>
    <radialGradient id="Obj_Gradient_2" xl:href="#Gradient" gradientTransform="translate(280.75925 -700.6) scale(70.26272)"/>
  </defs>
  <g stroke="none" stroke-opacity="1" stroke-dasharray="none" fill="none" fill-opacity="1">
    <title>Raya V3 12</title>
    <g>
      <title>Capa 1</title>
      <path d="M 218.00565 -728.40955 L 226.1711 -725.2918 C 227.0291 -724.9642 227.90594 -724.6883 228.79692 -724.4656 L 242.5141 -721.0363 C 243.67576 -720.7459 244.85832 -720.5466 246.051 -720.4403 L 263.57715 -718.8786 C 264.165 -718.8262 264.75464 -718.7965 265.34478 -718.7895 L 280.8237 -718.6052 C 281.11404 -718.6017 281.40442 -718.6038 281.6947 -718.6113 L 296.118 -718.9859 C 296.47878 -718.9953 296.8393 -719.0132 297.19924 -719.0395 L 311.57053 -720.0911 C 312.56197 -720.1636 313.54766 -720.3004 314.5214 -720.5004 L 326.09436 -722.87845 C 327.13637 -723.0926 328.16226 -723.3787 329.16465 -723.7348 L 340.91664 -727.9099 C 342.007 -728.2972 343.2102 -727.7665 343.65925 -726.7 L 343.65925 -726.7 C 344.1814 -725.4599 344.3334 -724.09515 344.09685 -722.77055 L 343.91637 -721.7599 C 343.6126 -720.0587 343.11806 -718.3972 342.44214 -716.8068 L 340.8989 -713.1757 C 340.34035 -711.8614 339.6606 -710.602 338.86846 -709.4138 L 335.1827 -703.88515 C 334.43517 -702.7639 333.59057 -701.7105 332.6586 -700.7371 L 326.36354 -694.1623 C 325.49547 -693.2556 324.55463 -692.4215 323.55046 -691.6684 L 315.17555 -685.3872 C 314.29914 -684.7299 313.37688 -684.1361 312.4158 -683.6102 L 305.2306 -679.6787 C 303.9195 -678.9613 302.54156 -678.3734 301.11638 -677.9233 L 294.44347 -675.8161 C 292.7266 -675.2739 290.952 -674.9352 289.15613 -674.8069 L 282.26968 -674.315 C 281.19738 -674.2384 280.12103 -674.2371 279.04854 -674.3111 L 270.6123 -674.8929 C 269.5781 -674.9642 268.54994 -675.1054 267.5348 -675.3154 L 260.3996 -676.79165 C 258.44765 -677.1955 256.55647 -677.8514 254.77362 -678.7428 L 250.1142 -681.0725 C 248.88007 -681.6896 247.70397 -682.4165 246.60012 -683.24434 L 240.91816 -687.5058 C 240.47903 -687.8352 240.05182 -688.1801 239.63737 -688.54005 L 233.8822 -693.538 C 233.0679 -694.2451 232.30436 -695.00865 231.59722 -695.8229 L 227.192 -700.8956 C 226.4379 -701.764 225.74998 -702.6877 225.13406 -703.65895 L 221.40036 -709.5467 C 221.0398 -710.1153 220.70437 -710.6994 220.39505 -711.29745 L 218.77468 -714.4302 C 218.16553 -715.60785 217.65936 -716.836 217.26183 -718.1009 L 215.98159 -722.1744 C 215.7668 -722.85775 215.58408 -723.5508 215.43399 -724.2512 L 215.35925 -724.6 C 215.16458 -725.5084 215.27185 -726.4556 215.66473 -727.2975 L 215.75925 -727.5 C 216.15372 -728.3453 217.1342 -728.7423 218.00565 -728.40955 Z" fill="url(#Obj_Gradient)"/>
      <path d="M 218.00565 -728.40955 L 226.1711 -725.2918 C 227.0291 -724.9642 227.90594 -724.6883 228.79692 -724.4656 L 242.5141 -721.0363 C 243.67576 -720.7459 244.85832 -720.5466 246.051 -720.4403 L 263.57715 -718.8786 C 264.165 -718.8262 264.75464 -718.7965 265.34478 -718.7895 L 280.8237 -718.6052 C 281.11404 -718.6017 281.40442 -718.6038 281.6947 -718.6113 L 296.118 -718.9859 C 296.47878 -718.9953 296.8393 -719.0132 297.19924 -719.0395 L 311.57053 -720.0911 C 312.56197 -720.1636 313.54766 -720.3004 314.5214 -720.5004 L 326.09436 -722.87845 C 327.13637 -723.0926 328.16226 -723.3787 329.16465 -723.7348 L 340.91664 -727.9099 C 342.007 -728.2972 343.2102 -727.7665 343.65925 -726.7 L 343.65925 -726.7 C 344.1814 -725.4599 344.3334 -724.09515 344.09685 -722.77055 L 343.91637 -721.7599 C 343.6126 -720.0587 343.11806 -718.3972 342.44214 -716.8068 L 340.8989 -713.1757 C 340.34035 -711.8614 339.6606 -710.602 338.86846 -709.4138 L 335.1827 -703.88515 C 334.43517 -702.7639 333.59057 -701.7105 332.6586 -700.7371 L 326.36354 -694.1623 C 325.49547 -693.2556 324.55463 -692.4215 323.55046 -691.6684 L 315.17555 -685.3872 C 314.29914 -684.7299 313.37688 -684.1361 312.4158 -683.6102 L 305.2306 -679.6787 C 303.9195 -678.9613 302.54156 -678.3734 301.11638 -677.9233 L 294.44347 -675.8161 C 292.7266 -675.2739 290.952 -674.9352 289.15613 -674.8069 L 282.26968 -674.315 C 281.19738 -674.2384 280.12103 -674.2371 279.04854 -674.3111 L 270.6123 -674.8929 C 269.5781 -674.9642 268.54994 -675.1054 267.5348 -675.3154 L 260.3996 -676.79165 C 258.44765 -677.1955 256.55647 -677.8514 254.77362 -678.7428 L 250.1142 -681.0725 C 248.88007 -681.6896 247.70397 -682.4165 246.60012 -683.24434 L 240.91816 -687.5058 C 240.47903 -687.8352 240.05182 -688.1801 239.63737 -688.54005 L 233.8822 -693.538 C 233.0679 -694.2451 232.30436 -695.00865 231.59722 -695.8229 L 227.192 -700.8956 C 226.4379 -701.764 225.74998 -702.6877 225.13406 -703.65895 L 221.40036 -709.5467 C 221.0398 -710.1153 220.70437 -710.6994 220.39505 -711.29745 L 218.77468 -714.4302 C 218.16553 -715.60785 217.65936 -716.836 217.26183 -718.1009 L 215.98159 -722.1744 C 215.7668 -722.85775 215.58408 -723.5508 215.43399 -724.2512 L 215.35925 -724.6 C 215.16458 -725.5084 215.27185 -726.4556 215.66473 -727.2975 L 215.75925 -727.5 C 216.15372 -728.3453 217.1342 -728.7423 218.00565 -728.40955 Z" stroke="#7f8080" stroke-linecap="round" stroke-linejoin="round" stroke-width="1"/>
      <path d="M 496.4053 -578.49725 L 490.2053 -574.09725 L 482.0053 -570.09725 L 473.4053 -566.49725 L 464.4053 -562.69725 L 453.4053 -558.69725 L 444.0053 -555.89725 L 435.0053 -553.29725 L 426.0053 -550.69725 L 420.6053 -549.29725 L 415.0053 -548.29725 L 412.6053 -554.09725 L 410.0053 -559.49725 L 407.8053 -563.49725 L 405.2053 -566.89725 L 405.0053 -575.89725 L 405.6053 -586.89725 L 407.4053 -597.69725 L 409.0053 -608.09725 L 411.6053 -619.09725 L 414.0053 -628.69725 L 416.8053 -636.69725 L 420.0053 -646.09725 L 422.8053 -653.49725 L 426.4053 -661.09725 L 430.4053 -668.69725 L 434.4053 -676.09725 L 437.0053 -679.69725 L 440.6053 -685.49725 L 446.0053 -681.09725 L 450.8053 -676.29725 L 455.4053 -670.09725 L 459.8053 -663.89725 L 464.6053 -655.29725 L 469.4053 -645.89725 L 474.2053 -636.69725 L 477.8053 -628.09725 L 481.8053 -619.09725 L 485.0053 -610.89725 L 488.8053 -601.49725 L 491.6053 -593.49725 L 494.6053 -585.09725 Z" fill="white"/>
      <path d="M 496.4053 -578.49725 L 490.2053 -574.09725 L 482.0053 -570.09725 L 473.4053 -566.49725 L 464.4053 -562.69725 L 453.4053 -558.69725 L 444.0053 -555.89725 L 435.0053 -553.29725 L 426.0053 -550.69725 L 420.6053 -549.29725 L 415.0053 -548.29725 L 412.6053 -554.09725 L 410.0053 -559.49725 L 407.8053 -563.49725 L 405.2053 -566.89725 L 405.0053 -575.89725 L 405.6053 -586.89725 L 407.4053 -597.69725 L 409.0053 -608.09725 L 411.6053 -619.09725 L 414.0053 -628.69725 L 416.8053 -636.69725 L 420.0053 -646.09725 L 422.8053 -653.49725 L 426.4053 -661.09725 L 430.4053 -668.69725 L 434.4053 -676.09725 L 437.0053 -679.69725 L 440.6053 -685.49725 L 446.0053 -681.09725 L 450.8053 -676.29725 L 455.4053 -670.09725 L 459.8053 -663.89725 L 464.6053 -655.29725 L 469.4053 -645.89725 L 474.2053 -636.69725 L 477.8053 -628.09725 L 481.8053 -619.09725 L 485.0053 -610.89725 L 488.8053 -601.49725 L 491.6053 -593.49725 L 494.6053 -585.09725 Z" stroke="#7f8080" stroke-linecap="round" stroke-linejoin="round" stroke-width="1"/>
      <path d="M 216.5 -287.52083 L 222 -286.50694 L 236 -286 L 257 -286 L 257 -664.6875 L 245 -668.74306 L 238 -672.7986 L 229 -678.88194 L 220 -687.5 Z" fill="white"/>
      <path d="M 216.5 -287.52083 L 222 -286.50694 L 236 -286 L 257 -286 L 257 -664.6875 L 245 -668.74306 L 238 -672.7986 L 229 -678.88194 L 220 -687.5 Z" stroke="#7f8080" stroke-linecap="round" stroke-linejoin="round" stroke-width="1"/>
      <path d="M 310 -666.25126 L 319 -671.3078 L 325 -675.8587 L 333 -681.9265 L 339 -688.5 L 340 -288.52827 L 326.5 -287.0113 L 315.5 -286.50565 L 309 -286 L 304 -286.50565 L 302 -663.2173 Z" fill="white"/>
      <path d="M 310 -666.25126 L 319 -671.3078 L 325 -675.8587 L 333 -681.9265 L 339 -688.5 L 340 -288.52827 L 326.5 -287.0113 L 315.5 -286.50565 L 309 -286 L 304 -286.50565 L 302 -663.2173 Z" stroke="#7f8080" stroke-linecap="round" stroke-linejoin="round" stroke-width="1"/>
      <path d="M 456.0053 -567.43995 L 441.0053 -560.93995 L 429.5053 -557.93995 L 417.5053 -554.93995 L 412.0053 -553.93995 L 407.0053 -564.43995 L 401.4 -571.29086 L 405.0053 -578.93995 L 406.5053 -588.93995 L 404 -603.89086 L 409.5 -615.43995 L 413.5 -626.43995 L 416.5 -636.93995 L 419.5 -642.93995 L 436.0053 -612.93995 L 443.5053 -597.43995 L 451.5053 -579.43995 Z" fill="white"/>
      <path d="M 456.0053 -567.43995 L 441.0053 -560.93995 L 429.5053 -557.93995 L 417.5053 -554.93995 L 412.0053 -553.93995 L 407.0053 -564.43995 L 401.4 -571.29086 L 405.0053 -578.93995 L 406.5053 -588.93995 L 404 -603.89086 L 409.5 -615.43995 L 413.5 -626.43995 L 416.5 -636.93995 L 419.5 -642.93995 L 436.0053 -612.93995 L 443.5053 -597.43995 L 451.5053 -579.43995 Z" stroke="#7f8080" stroke-linecap="round" stroke-linejoin="round" stroke-width="1"/>
      <path d="M 104 -567.09086 L 148 -551.59086 L 154.4 -565.8453 L 155.9 -567.3453 L 156.4 -580.3453 L 154.9 -590.3453 L 152.9 -602.8453 L 149.9 -616.3453 L 146.9 -626.3453 L 144.4 -636.8453 L 141.4 -642.8453 L 125.4 -614.3453 L 117.9 -598.8453 L 109.9 -580.8453 Z" fill="white"/>
      <path d="M 104 -567.09086 L 148 -551.59086 L 154.4 -565.8453 L 155.9 -567.3453 L 156.4 -580.3453 L 154.9 -590.3453 L 152.9 -602.8453 L 149.9 -616.3453 L 146.9 -626.3453 L 144.4 -636.8453 L 141.4 -642.8453 L 125.4 -614.3453 L 117.9 -598.8453 L 109.9 -580.8453 Z" stroke="#7f8080" stroke-linecap="round" stroke-linejoin="round" stroke-width="1"/>
      <rect x="257" y="-667" width="46" height="381" fill="#610000"/>
      <rect x="257" y="-667" width="46" height="381" stroke="#a5a5a5" stroke-linecap="round" stroke-linejoin="round" stroke-width="1"/>
      <path d="M 144.81321 -301.26236 L 144.81321 -301.26236 C 144.74753 -300.73688 144.81036 -300.2033 144.9963 -299.70746 L 145.6473 -297.97144 C 145.82406 -297.5001 146.05115 -297.0492 146.32462 -296.62655 L 147.29243 -295.13083 C 147.8334 -294.2948 148.5465 -293.58382 149.38412 -293.04534 L 150.46217 -292.3523 C 150.76243 -292.1593 151.077 -291.98952 151.40316 -291.84448 L 152.72001 -291.25888 C 153.31654 -290.9936 153.94725 -290.8131 154.5938 -290.72257 L 163.60421 -289.4611 C 163.6142 -289.4597 163.6242 -289.45833 163.6342 -289.45698 L 175.3502 -287.86837 C 175.3962 -287.86213 175.44226 -287.85635 175.48838 -287.85103 L 185.77131 -286.66454 C 185.80324 -286.66085 185.8352 -286.6574 185.86716 -286.65415 L 199.57723 -285.26327 C 199.60521 -285.26043 199.6332 -285.25776 199.66123 -285.25526 L 210.76653 -284.2637 C 210.80164 -284.26058 210.83679 -284.2577 210.87195 -284.2551 L 221.55848 -283.4635 C 221.59896 -283.4605 221.63947 -283.45786 221.68 -283.45557 L 232.18798 -282.86078 C 232.2088 -282.8596 232.2296 -282.85833 232.25042 -282.85696 L 244.2932 -282.06727 C 244.3772 -282.06177 244.4613 -282.05777 244.54543 -282.0553 L 257.99256 -281.6598 C 258.01032 -281.65927 258.0281 -281.65868 258.04585 -281.65802 L 268.6897 -281.2638 C 268.77603 -281.2606 268.8624 -281.259 268.9488 -281.259 L 279.5578 -281.259 C 279.59874 -281.259 279.63967 -281.25865 279.6806 -281.25793 L 290.76702 -281.06344 C 290.9351 -281.0605 291.1032 -281.0636 291.27106 -281.07275 L 301.8923 -281.6521 C 301.9769 -281.6567 302.06157 -281.65978 302.1463 -281.66132 L 312.91085 -281.85704 C 312.9831 -281.85835 313.0553 -281.8608 313.12745 -281.86433 L 325.14607 -282.4554 C 325.19483 -282.4578 325.24355 -282.46072 325.29225 -282.46414 L 336.5323 -283.2529 C 336.59023 -283.25698 336.6481 -283.26177 336.70594 -283.26727 L 349.1165 -284.44923 C 349.18497 -284.45575 349.25352 -284.46126 349.32214 -284.46576 L 361.25416 -285.2482 C 361.36418 -285.2554 361.474 -285.2652 361.58355 -285.27762 L 371.9959 -286.45637 C 372.01144 -286.45813 372.02697 -286.45994 372.0425 -286.4618 L 381.9902 -287.65553 C 382.00954 -287.65785 382.02886 -287.66025 382.0482 -287.66273 L 395.88394 -289.44027 C 395.98115 -289.45276 396.0781 -289.4673 396.1747 -289.48385 L 402.7282 -290.6073 C 402.92915 -290.64176 403.13153 -290.6674 403.33473 -290.6842 L 406.56706 -290.95117 C 407.4563 -291.0246 408.3233 -291.2674 409.12135 -291.66643 L 410.60765 -292.40957 C 411.20824 -292.70987 411.7625 -293.095 412.2534 -293.55318 L 413.5885 -294.7993 C 414.1953 -295.36565 414.65073 -296.0749 414.9132 -296.86236 L 415.20805 -297.74684 C 415.2781 -297.95707 415.33817 -298.1705 415.388 -298.38642 L 415.8577 -300.4218 C 415.89293 -300.57444 415.8595 -300.73484 415.7662 -300.8607 L 415.7662 -300.8607 C 415.67587 -300.98256 415.52523 -301.04406 415.3754 -301.02023 L 406.89555 -299.67116 C 406.84466 -299.66306 406.79385 -299.6544 406.74315 -299.6452 L 393.7584 -297.28432 C 393.6656 -297.26745 393.5725 -297.25246 393.4791 -297.23935 L 382.24943 -295.66325 C 382.2293 -295.66043 382.20914 -295.6575 382.189 -295.6545 L 369.06643 -293.6959 C 368.90167 -293.67132 368.73608 -293.6526 368.57 -293.63984 L 355.84517 -292.661 C 355.82786 -292.65968 355.81055 -292.6584 355.79323 -292.6572 L 341.4531 -291.66136 C 341.4305 -291.6598 341.4079 -291.65834 341.3853 -291.657 L 328.08205 -290.86276 C 328.04016 -290.86026 327.99824 -290.85814 327.9563 -290.8564 L 313.76485 -290.26508 C 313.66776 -290.26103 313.5706 -290.259 313.47344 -290.259 L 300.2192 -290.259 L 287.67753 -290.259 C 287.63865 -290.259 287.59976 -290.2587 287.5609 -290.25804 L 275.8025 -290.06207 C 275.68032 -290.06003 275.55812 -290.0612 275.436 -290.06555 L 264.6024 -290.45247 C 264.4803 -290.45683 264.3581 -290.458 264.2359 -290.45596 L 252.52127 -290.2607 C 252.45323 -290.25958 252.38518 -290.25944 252.31713 -290.2603 L 236.61484 -290.45657 C 236.48444 -290.4582 236.3541 -290.46347 236.224 -290.47238 L 221.91423 -291.4525 C 221.85088 -291.45684 221.7876 -291.46204 221.7244 -291.4681 L 207.23339 -292.85765 C 207.22393 -292.85856 207.21448 -292.8595 207.20503 -292.86043 L 193.393 -294.24163 C 193.27715 -294.2532 193.16162 -294.2677 193.0465 -294.28504 L 178.73735 -296.4412 C 178.6586 -296.45308 178.57964 -296.4636 178.50052 -296.47277 L 164.98059 -298.0403 C 164.87301 -298.05277 164.76574 -298.06774 164.65886 -298.0852 L 155.26677 -299.6186 C 155.10178 -299.64553 154.9378 -299.67837 154.77516 -299.71705 L 145.69756 -301.87583 C 145.30925 -301.96817 144.91959 -301.72824 144.82724 -301.33992 C 144.82116 -301.31434 144.81647 -301.28845 144.81321 -301.26236 Z" fill="#6e0000"/>
      <path d="M 144.81321 -301.26236 L 144.81321 -301.26236 C 144.74753 -300.73688 144.81036 -300.2033 144.9963 -299.70746 L 145.6473 -297.97144 C 145.82406 -297.5001 146.05115 -297.0492 146.32462 -296.62655 L 147.29243 -295.13083 C 147.8334 -294.2948 148.5465 -293.58382 149.38412 -293.04534 L 150.46217 -292.3523 C 150.76243 -292.1593 151.077 -291.98952 151.40316 -291.84448 L 152.72001 -291.25888 C 153.31654 -290.9936 153.94725 -290.8131 154.5938 -290.72257 L 163.60421 -289.4611 C 163.6142 -289.4597 163.6242 -289.45833 163.6342 -289.45698 L 175.3502 -287.86837 C 175.3962 -287.86213 175.44226 -287.85635 175.48838 -287.85103 L 185.77131 -286.66454 C 185.80324 -286.66085 185.8352 -286.6574 185.86716 -286.65415 L 199.57723 -285.26327 C 199.60521 -285.26043 199.6332 -285.25776 199.66123 -285.25526 L 210.76653 -284.2637 C 210.80164 -284.26058 210.83679 -284.2577 210.87195 -284.2551 L 221.55848 -283.4635 C 221.59896 -283.4605 221.63947 -283.45786 221.68 -283.45557 L 232.18798 -282.86078 C 232.2088 -282.8596 232.2296 -282.85833 232.25042 -282.85696 L 244.2932 -282.06727 C 244.3772 -282.06177 244.4613 -282.05777 244.54543 -282.0553 L 257.99256 -281.6598 C 258.01032 -281.65927 258.0281 -281.65868 258.04585 -281.65802 L 268.6897 -281.2638 C 268.77603 -281.2606 268.8624 -281.259 268.9488 -281.259 L 279.5578 -281.259 C 279.59874 -281.259 279.63967 -281.25865 279.6806 -281.25793 L 290.76702 -281.06344 C 290.9351 -281.0605 291.1032 -281.0636 291.27106 -281.07275 L 301.8923 -281.6521 C 301.9769 -281.6567 302.06157 -281.65978 302.1463 -281.66132 L 312.91085 -281.85704 C 312.9831 -281.85835 313.0553 -281.8608 313.12745 -281.86433 L 325.14607 -282.4554 C 325.19483 -282.4578 325.24355 -282.46072 325.29225 -282.46414 L 336.5323 -283.2529 C 336.59023 -283.25698 336.6481 -283.26177 336.70594 -283.26727 L 349.1165 -284.44923 C 349.18497 -284.45575 349.25352 -284.46126 349.32214 -284.46576 L 361.25416 -285.2482 C 361.36418 -285.2554 361.474 -285.2652 361.58355 -285.27762 L 371.9959 -286.45637 C 372.01144 -286.45813 372.02697 -286.45994 372.0425 -286.4618 L 381.9902 -287.65553 C 382.00954 -287.65785 382.02886 -287.66025 382.0482 -287.66273 L 395.88394 -289.44027 C 395.98115 -289.45276 396.0781 -289.4673 396.1747 -289.48385 L 402.7282 -290.6073 C 402.92915 -290.64176 403.13153 -290.6674 403.33473 -290.6842 L 406.56706 -290.95117 C 407.4563 -291.0246 408.3233 -291.2674 409.12135 -291.66643 L 410.60765 -292.40957 C 411.20824 -292.70987 411.7625 -293.095 412.2534 -293.55318 L 413.5885 -294.7993 C 414.1953 -295.36565 414.65073 -296.0749 414.9132 -296.86236 L 415.20805 -297.74684 C 415.2781 -297.95707 415.33817 -298.1705 415.388 -298.38642 L 415.8577 -300.4218 C 415.89293 -300.57444 415.8595 -300.73484 415.7662 -300.8607 L 415.7662 -300.8607 C 415.67587 -300.98256 415.52523 -301.04406 415.3754 -301.02023 L 406.89555 -299.67116 C 406.84466 -299.66306 406.79385 -299.6544 406.74315 -299.6452 L 393.7584 -297.28432 C 393.6656 -297.26745 393.5725 -297.25246 393.4791 -297.23935 L 382.24943 -295.66325 C 382.2293 -295.66043 382.20914 -295.6575 382.189 -295.6545 L 369.06643 -293.6959 C 368.90167 -293.67132 368.73608 -293.6526 368.57 -293.63984 L 355.84517 -292.661 C 355.82786 -292.65968 355.81055 -292.6584 355.79323 -292.6572 L 341.4531 -291.66136 C 341.4305 -291.6598 341.4079 -291.65834 341.3853 -291.657 L 328.08205 -290.86276 C 328.04016 -290.86026 327.99824 -290.85814 327.9563 -290.8564 L 313.76485 -290.26508 C 313.66776 -290.26103 313.5706 -290.259 313.47344 -290.259 L 300.2192 -290.259 L 287.67753 -290.259 C 287.63865 -290.259 287.59976 -290.2587 287.5609 -290.25804 L 275.8025 -290.06207 C 275.68032 -290.06003 275.55812 -290.0612 275.436 -290.06555 L 264.6024 -290.45247 C 264.4803 -290.45683 264.3581 -290.458 264.2359 -290.45596 L 252.52127 -290.2607 C 252.45323 -290.25958 252.38518 -290.25944 252.31713 -290.2603 L 236.61484 -290.45657 C 236.48444 -290.4582 236.3541 -290.46347 236.224 -290.47238 L 221.91423 -291.4525 C 221.85088 -291.45684 221.7876 -291.46204 221.7244 -291.4681 L 207.23339 -292.85765 C 207.22393 -292.85856 207.21448 -292.8595 207.20503 -292.86043 L 193.393 -294.24163 C 193.27715 -294.2532 193.16162 -294.2677 193.0465 -294.28504 L 178.73735 -296.4412 C 178.6586 -296.45308 178.57964 -296.4636 178.50052 -296.47277 L 164.98059 -298.0403 C 164.87301 -298.05277 164.76574 -298.06774 164.65886 -298.0852 L 155.26677 -299.6186 C 155.10178 -299.64553 154.9378 -299.67837 154.77516 -299.71705 L 145.69756 -301.87583 C 145.30925 -301.96817 144.91959 -301.72824 144.82724 -301.33992 C 144.82116 -301.31434 144.81647 -301.28845 144.81321 -301.26236 Z" stroke="#7f8080" stroke-linecap="round" stroke-linejoin="round" stroke-width="1"/>
      <path d="M 418.4 -640 L 414 -626.4 L 443.6 -564 L 453.1379 -562.8396 L 462.92595 -566.67026 L 472.4 -569.4 L 426.6 -660.2 L 423 -652.8 L 421.8 -649.2 Z" fill="#580000"/>
      <path d="M 418.4 -640 L 414 -626.4 L 443.6 -564 L 453.1379 -562.8396 L 462.92595 -566.67026 L 472.4 -569.4 L 426.6 -660.2 L 423 -652.8 L 421.8 -649.2 Z" stroke="gray" stroke-linecap="round" stroke-linejoin="round" stroke-width=".25"/>
      <path d="M 88.6 -574.8 L 133.6 -659.6 L 138 -648.8 L 142.4 -636.8 L 146.2 -623.2 L 115.4 -560.2 Z" fill="#6d0000"/>
      <path d="M 88.6 -574.8 L 133.6 -659.6 L 138 -648.8 L 142.4 -636.8 L 146.2 -623.2 L 115.4 -560.2 Z" stroke="gray" stroke-linecap="round" stroke-linejoin="round" stroke-width=".25"/>
      <path d="M 65 -577.55385 L 71.2 -573.15385 L 79.4 -569.15385 L 88 -565.55385 L 97 -561.75385 L 108 -557.75385 L 117.4 -554.95385 L 126.4 -552.35385 L 135.4 -549.75385 L 140.8 -548.35385 L 146.4 -547.35385 L 149.4 -553.75385 L 145.6 -554.55385 L 140.8 -555.75385 L 135.2 -556.95385 L 129.2 -558.75385 L 124.6 -560.15385 L 120.4 -561.35385 L 115.8 -563.35385 L 111.2 -564.95385 L 106.4 -566.95385 L 102.4 -568.35385 L 97.2 -570.55385 L 92.6 -572.15385 L 87.8 -574.35385 L 83 -576.15385 L 79 -578.15385 L 74.6 -580.35385 L 70.2 -582.55385 L 66.8 -584.15385 Z" fill="#790000"/>
      <path d="M 65 -577.55385 L 71.2 -573.15385 L 79.4 -569.15385 L 88 -565.55385 L 97 -561.75385 L 108 -557.75385 L 117.4 -554.95385 L 126.4 -552.35385 L 135.4 -549.75385 L 140.8 -548.35385 L 146.4 -547.35385 L 149.4 -553.75385 L 145.6 -554.55385 L 140.8 -555.75385 L 135.2 -556.95385 L 129.2 -558.75385 L 124.6 -560.15385 L 120.4 -561.35385 L 115.8 -563.35385 L 111.2 -564.95385 L 106.4 -566.95385 L 102.4 -568.35385 L 97.2 -570.55385 L 92.6 -572.15385 L 87.8 -574.35385 L 83 -576.15385 L 79 -578.15385 L 74.6 -580.35385 L 70.2 -582.55385 L 66.8 -584.15385 Z" stroke="#7f8080" stroke-linecap="round" stroke-linejoin="round" stroke-width="1"/>
      <path d="M 496.4053 -578.49725 L 490.2053 -574.09725 L 482.0053 -570.09725 L 473.4053 -566.49725 L 464.4053 -562.69725 L 453.4053 -558.69725 L 444.0053 -555.89725 L 435.0053 -553.29725 L 426.0053 -550.69725 L 420.6053 -549.29725 L 415.0053 -548.29725 L 412.0053 -554.69725 L 415.8053 -555.49725 L 420.6053 -556.69725 L 426.2053 -557.89725 L 432.2053 -559.69725 L 436.8053 -561.09725 L 441.0053 -562.29725 L 445.6053 -564.29725 L 450.2053 -565.89725 L 455.0053 -567.89725 L 459.0053 -569.29725 L 464.2053 -571.49725 L 468.8053 -573.09725 L 473.6053 -575.29725 L 478.4053 -577.09725 L 482.4053 -579.09725 L 486.8053 -581.29725 L 491.2053 -583.49725 L 494.6053 -585.09725 Z" fill="#710000"/>
      <path d="M 496.4053 -578.49725 L 490.2053 -574.09725 L 482.0053 -570.09725 L 473.4053 -566.49725 L 464.4053 -562.69725 L 453.4053 -558.69725 L 444.0053 -555.89725 L 435.0053 -553.29725 L 426.0053 -550.69725 L 420.6053 -549.29725 L 415.0053 -548.29725 L 412.0053 -554.69725 L 415.8053 -555.49725 L 420.6053 -556.69725 L 426.2053 -557.89725 L 432.2053 -559.69725 L 436.8053 -561.09725 L 441.0053 -562.29725 L 445.6053 -564.29725 L 450.2053 -565.89725 L 455.0053 -567.89725 L 459.0053 -569.29725 L 464.2053 -571.49725 L 468.8053 -573.09725 L 473.6053 -575.29725 L 478.4053 -577.09725 L 482.4053 -579.09725 L 486.8053 -581.29725 L 491.2053 -583.49725 L 494.6053 -585.09725 Z" stroke="#7f8080" stroke-linecap="round" stroke-linejoin="round" stroke-width="1"/>
      <path d="M 219.00565 -727.40955 L 227.1711 -724.2918 C 228.0291 -723.9642 228.90594 -723.6883 229.79692 -723.4656 L 243.5141 -720.0363 C 244.67576 -719.7459 245.85832 -719.5466 247.051 -719.4403 L 264.57715 -717.8786 C 265.165 -717.8262 265.75464 -717.7965 266.34478 -717.7895 L 281.8237 -717.6052 C 282.11404 -717.6017 282.40442 -717.6038 282.6947 -717.6113 L 297.118 -717.9859 C 297.47878 -717.9953 297.8393 -718.0132 298.19924 -718.0395 L 312.57053 -719.0911 C 313.56197 -719.1636 314.54766 -719.3004 315.5214 -719.5004 L 327.09436 -721.87845 C 328.13637 -722.0926 329.16226 -722.3787 330.16465 -722.7348 L 341.91664 -726.9099 C 343.007 -727.2972 344.2102 -726.7665 344.65925 -725.7 L 344.65925 -725.7 C 345.1814 -724.4599 345.3334 -723.09515 345.09685 -721.77055 L 344.91637 -720.7599 C 344.6126 -719.0587 344.11806 -717.3972 343.44214 -715.8068 L 341.8989 -712.1757 C 341.34035 -710.8614 340.6606 -709.602 339.86846 -708.4138 L 336.1827 -702.88515 C 335.43517 -701.7639 334.59057 -700.7105 333.6586 -699.7371 L 327.36354 -693.1623 C 326.49547 -692.2556 325.55463 -691.4215 324.55046 -690.6684 L 316.17555 -684.3872 C 315.29914 -683.7299 314.37688 -683.1361 313.4158 -682.6102 L 306.2306 -678.6787 C 304.9195 -677.9613 303.54156 -677.3734 302.11638 -676.9233 L 295.44347 -674.8161 C 293.7266 -674.2739 291.952 -673.9352 290.15613 -673.8069 L 283.26968 -673.315 C 282.19738 -673.2384 281.12103 -673.2371 280.04854 -673.3111 L 271.6123 -673.8929 C 270.5781 -673.9642 269.54994 -674.1054 268.5348 -674.3154 L 261.3996 -675.79165 C 259.44765 -676.1955 257.55647 -676.8514 255.77362 -677.7428 L 251.1142 -680.0725 C 249.88007 -680.6896 248.70397 -681.4165 247.60012 -682.24434 L 241.91816 -686.5058 C 241.47903 -686.8352 241.05182 -687.1801 240.63737 -687.54005 L 234.8822 -692.538 C 234.0679 -693.2451 233.30436 -694.00865 232.59722 -694.8229 L 228.192 -699.8956 C 227.4379 -700.764 226.74998 -701.6877 226.13406 -702.65895 L 222.40036 -708.5467 C 222.0398 -709.1153 221.70437 -709.6994 221.39505 -710.29745 L 219.77468 -713.4302 C 219.16553 -714.60785 218.65936 -715.836 218.26183 -717.1009 L 216.98159 -721.1744 C 216.7668 -721.85775 216.58408 -722.5508 216.43399 -723.2512 L 216.35925 -723.6 C 216.16458 -724.5084 216.27185 -725.4556 216.66473 -726.2975 L 216.75925 -726.5 C 217.15372 -727.3453 218.1342 -727.7423 219.00565 -727.40955 Z" fill="url(#Obj_Gradient_2)"/>
      <path d="M 219.00565 -727.40955 L 227.1711 -724.2918 C 228.0291 -723.9642 228.90594 -723.6883 229.79692 -723.4656 L 243.5141 -720.0363 C 244.67576 -719.7459 245.85832 -719.5466 247.051 -719.4403 L 264.57715 -717.8786 C 265.165 -717.8262 265.75464 -717.7965 266.34478 -717.7895 L 281.8237 -717.6052 C 282.11404 -717.6017 282.40442 -717.6038 282.6947 -717.6113 L 297.118 -717.9859 C 297.47878 -717.9953 297.8393 -718.0132 298.19924 -718.0395 L 312.57053 -719.0911 C 313.56197 -719.1636 314.54766 -719.3004 315.5214 -719.5004 L 327.09436 -721.87845 C 328.13637 -722.0926 329.16226 -722.3787 330.16465 -722.7348 L 341.91664 -726.9099 C 343.007 -727.2972 344.2102 -726.7665 344.65925 -725.7 L 344.65925 -725.7 C 345.1814 -724.4599 345.3334 -723.09515 345.09685 -721.77055 L 344.91637 -720.7599 C 344.6126 -719.0587 344.11806 -717.3972 343.44214 -715.8068 L 341.8989 -712.1757 C 341.34035 -710.8614 340.6606 -709.602 339.86846 -708.4138 L 336.1827 -702.88515 C 335.43517 -701.7639 334.59057 -700.7105 333.6586 -699.7371 L 327.36354 -693.1623 C 326.49547 -692.2556 325.55463 -691.4215 324.55046 -690.6684 L 316.17555 -684.3872 C 315.29914 -683.7299 314.37688 -683.1361 313.4158 -682.6102 L 306.2306 -678.6787 C 304.9195 -677.9613 303.54156 -677.3734 302.11638 -676.9233 L 295.44347 -674.8161 C 293.7266 -674.2739 291.952 -673.9352 290.15613 -673.8069 L 283.26968 -673.315 C 282.19738 -673.2384 281.12103 -673.2371 280.04854 -673.3111 L 271.6123 -673.8929 C 270.5781 -673.9642 269.54994 -674.1054 268.5348 -674.3154 L 261.3996 -675.79165 C 259.44765 -676.1955 257.55647 -676.8514 255.77362 -677.7428 L 251.1142 -680.0725 C 249.88007 -680.6896 248.70397 -681.4165 247.60012 -682.24434 L 241.91816 -686.5058 C 241.47903 -686.8352 241.05182 -687.1801 240.63737 -687.54005 L 234.8822 -692.538 C 234.0679 -693.2451 233.30436 -694.00865 232.59722 -694.8229 L 228.192 -699.8956 C 227.4379 -700.764 226.74998 -701.6877 226.13406 -702.65895 L 222.40036 -708.5467 C 222.0398 -709.1153 221.70437 -709.6994 221.39505 -710.29745 L 219.77468 -713.4302 C 219.16553 -714.60785 218.65936 -715.836 218.26183 -717.1009 L 216.98159 -721.1744 C 216.7668 -721.85775 216.58408 -722.5508 216.43399 -723.2512 L 216.35925 -723.6 C 216.16458 -724.5084 216.27185 -725.4556 216.66473 -726.2975 L 216.75925 -726.5 C 217.15372 -727.3453 218.1342 -727.7423 219.00565 -727.40955 Z" stroke="#7f8080" stroke-linecap="round" stroke-linejoin="round" stroke-width="1"/>
      <path d="M 153.33006 -289.82707 L 167.0723 -287.5367 C 167.25568 -287.50613 167.43957 -287.47877 167.6239 -287.4546 L 195.97754 -283.7393 C 196.22407 -283.707 196.47132 -283.68045 196.71908 -283.65967 L 226.96197 -281.12317 C 227.21888 -281.10163 227.47627 -281.0863 227.7339 -281.0772 L 266.66482 -279.70084 C 266.8532 -279.69418 267.04165 -279.69085 267.23013 -279.69085 L 298.69745 -279.69085 C 298.86406 -279.69085 299.03067 -279.69345 299.1972 -279.69866 L 324.232 -280.481 C 324.44224 -280.48756 324.65233 -280.49828 324.86215 -280.51313 L 346.9099 -282.07404 C 347.0682 -282.08524 347.22636 -282.0988 347.38427 -282.11472 L 372.64475 -284.66035 C 372.8465 -284.68068 373.04783 -284.70484 373.24865 -284.73283 L 397.04134 -288.0482 C 397.24535 -288.07663 397.4488 -288.109 397.65156 -288.14528 L 406.8474 -289.79085 C 412.1745 -290.74412 415.82536 -295.69777 415.15895 -301.0683 L 412.95136 -318.85887 C 412.9487 -318.8802 412.9461 -318.9015 412.94355 -318.92284 L 409.37973 -348.62137 C 409.35817 -348.801 409.33966 -348.981 409.3242 -349.16127 L 406.962 -376.7205 C 406.95226 -376.83406 406.94374 -376.94773 406.93643 -377.0615 L 405.5498 -398.65313 C 405.5482 -398.6783 405.5465 -398.7034 405.5448 -398.72856 L 403.95263 -421.81487 C 403.94914 -421.8655 403.9459 -421.9162 403.94287 -421.9669 L 402.7665 -441.76905 C 402.75376 -441.98356 402.74534 -442.1983 402.74125 -442.41316 L 402.34897 -463.008 C 402.3479 -463.06323 402.3466 -463.11846 402.34495 -463.1737 L 401.74983 -483.408 C 401.7482 -483.46324 401.74686 -483.51847 401.7458 -483.5737 L 401.35515 -504.08324 C 401.35 -504.35494 401.35173 -504.6267 401.3604 -504.8983 L 401.94634 -523.25794 C 401.94704 -523.2799 401.9478 -523.3018 401.94857 -523.32376 L 402.73666 -545.1931 C 402.7438 -545.3916 402.75466 -545.5899 402.7692 -545.788 L 404.3267 -567.00865 C 404.3405 -567.1968 404.35096 -567.3851 404.3581 -567.5736 L 405.11256 -587.4725 C 405.13576 -588.0842 405.19404 -588.69414 405.28713 -589.2992 L 408.02613 -607.1027 C 408.1069 -607.6278 408.2138 -608.1486 408.3464 -608.663 L 412.97466 -626.6207 C 413.08976 -627.06725 413.2241 -627.50864 413.37734 -627.9436 L 419.0981 -644.18325 C 419.2642 -644.6547 419.4523 -645.1182 419.6618 -645.572 L 425.19333 -657.5571 C 425.296 -657.7796 425.4038 -657.9997 425.5166 -658.2172 L 430.87883 -668.5586 C 430.92454 -668.6468 430.97106 -668.7345 431.0184 -668.8218 L 436.2344 -678.4387 C 436.97165 -679.7981 437.9213 -681.031 439.0474 -682.09086 L 439.0474 -682.09086 C 439.7226 -682.7263 439.7548 -683.7888 439.1193 -684.464 C 438.9948 -684.5963 438.84967 -684.7075 438.68955 -684.7933 L 435.4754 -686.5151 C 435.25676 -686.6323 435.0354 -686.7443 434.81155 -686.85114 L 426.95757 -690.5996 C 426.55096 -690.7937 426.13634 -690.9705 425.7148 -691.1296 L 416.04 -694.78044 C 415.84494 -694.85404 415.6485 -694.9238 415.4507 -694.98975 L 402.75623 -699.2212 C 402.617 -699.26765 402.47716 -699.3121 402.3367 -699.3547 L 389.4532 -703.2588 C 389.38266 -703.2802 389.31227 -703.302 389.24205 -703.3244 L 376.73805 -707.3029 C 376.34442 -707.4282 375.9558 -707.5686 375.57304 -707.7239 L 363.5971 -712.5837 C 362.76543 -712.9212 361.96364 -713.3281 361.2002 -713.8 L 351.58096 -719.7465 C 351.42526 -719.8427 351.2712 -719.9416 351.1189 -720.0432 L 346.2288 -723.3032 C 345.2474 -723.9575 344.3761 -724.7634 343.6474 -725.69086 L 343.6474 -725.69086 C 343.5418 -725.8253 343.3472 -725.8486 343.2128 -725.743 C 343.11007 -725.6623 343.0691 -725.5257 343.1104 -725.4018 L 343.2474 -724.99086 C 343.70664 -723.6131 343.8112 -722.1418 343.5514 -720.713 L 343.15627 -718.5397 C 342.88506 -717.04804 342.4032 -715.6025 341.7252 -714.24645 L 340.19287 -711.1818 C 339.89617 -710.5884 339.56285 -710.01405 339.19484 -709.462 L 335.99113 -704.6565 C 335.56253 -704.0136 335.08792 -703.4026 334.57104 -702.8282 L 330.009 -697.7593 C 329.96792 -697.7137 329.9266 -697.6683 329.885 -697.6231 L 323.89077 -691.1151 C 323.26303 -690.43356 322.5773 -689.8078 321.84125 -689.245 L 316.81707 -685.403 C 316.37093 -685.0618 315.90712 -684.74435 315.4276 -684.45195 L 308.9412 -680.4968 C 308.27953 -680.0934 307.58943 -679.7385 306.87635 -679.4351 L 299.76094 -676.4073 C 298.95327 -676.0636 298.1187 -675.7869 297.26566 -675.5801 L 293.1866 -674.5913 C 292.36177 -674.3913 291.52233 -674.2573 290.67624 -674.1905 L 284.97603 -673.7405 C 284.5571 -673.7074 284.13702 -673.69086 283.7168 -673.69086 L 276.68447 -673.69086 C 275.92737 -673.69086 275.17122 -673.7446 274.42173 -673.8517 L 266.47528 -674.9869 C 265.99027 -675.05616 265.5087 -675.1477 265.0321 -675.2612 L 259.07087 -676.6805 C 257.92538 -676.9532 256.8135 -677.3516 255.75543 -677.8683 L 249.47543 -680.9353 C 248.99038 -681.1722 248.51763 -681.4335 248.059 -681.7181 L 243.84712 -684.3324 C 243.24795 -684.7043 242.67403 -685.1154 242.1291 -685.563 L 237.683 -689.2152 C 237.4593 -689.3989 237.24063 -689.5887 237.02723 -689.7843 L 233.2249 -693.2698 C 232.7736 -693.6835 232.3464 -694.12275 231.94546 -694.5854 L 227.8267 -699.3378 C 227.50733 -699.7063 227.20496 -700.0892 226.92056 -700.4854 L 222.4909 -706.65525 C 221.996 -707.3446 221.55674 -708.07215 221.17725 -708.8311 L 218.60078 -713.9841 C 218.56519 -714.0553 218.53012 -714.1267 218.4956 -714.1984 L 217.24739 -716.79086 C 216.39667 -718.5577 216.04115 -720.5223 216.2187 -722.4752 L 216.3989 -724.4575 C 216.4227 -724.7193 216.22972 -724.9509 215.96786 -724.9747 C 215.80546 -724.9895 215.6468 -724.9201 215.54739 -724.79086 L 215.54739 -724.79086 C 214.88394 -723.9284 214.10383 -723.1623 213.22945 -722.5146 L 209.33292 -719.6283 C 209.20924 -719.5367 209.08424 -719.44684 208.95796 -719.3588 L 204.33571 -716.1373 C 203.14898 -715.31015 201.85556 -714.6478 200.4908 -714.1683 L 195.88368 -712.54955 C 195.3931 -712.3772 194.91123 -712.181 194.43976 -711.9617 L 187.59298 -708.7772 C 186.89682 -708.4534 186.17826 -708.1801 185.44286 -707.9595 L 174.57247 -704.6984 C 174.55575 -704.6934 174.53903 -704.6883 174.52233 -704.68325 L 163.55424 -701.35365 C 163.41634 -701.3118 163.27902 -701.2681 163.1423 -701.2225 L 150.22107 -696.9154 C 150.17195 -696.89904 150.12275 -696.8829 150.07347 -696.867 L 138.70606 -693.2001 C 138.06758 -692.99414 137.44268 -692.7482 136.83506 -692.4638 L 128.9031 -688.751 C 128.53276 -688.5776 128.1692 -688.39014 127.81322 -688.1889 L 121.86711 -684.8281 C 120.61408 -684.11985 120.17243 -682.5299 120.88067 -681.2769 C 120.95778 -681.14046 121.04705 -681.01125 121.14738 -680.89086 L 122.0115 -679.8539 C 122.76644 -678.948 123.41892 -677.9614 123.95703 -676.912 L 127.03417 -670.9116 C 127.10964 -670.76445 127.18739 -670.6185 127.26739 -670.4737 L 131.22214 -663.3175 C 131.30563 -663.1664 131.38667 -663.014 131.46523 -662.8603 L 135.57354 -654.8223 C 135.8226 -654.335 136.0465 -653.8352 136.24436 -653.325 L 139.72713 -644.3431 C 139.74063 -644.3083 139.75426 -644.2735 139.768 -644.23876 L 143.36433 -635.1533 C 143.48634 -634.8451 143.59874 -634.5331 143.70136 -634.2179 L 146.3232 -626.16514 C 146.33932 -626.1156 146.3552 -626.066 146.37084 -626.0163 L 149.4429 -616.2581 C 149.64568 -615.6139 149.80749 -614.95755 149.92734 -614.29294 L 151.91265 -603.2835 C 151.9358 -603.1551 151.95739 -603.0264 151.9774 -602.8974 L 153.68327 -591.90405 C 153.726 -591.6286 153.76154 -591.35215 153.78983 -591.0749 L 154.67725 -582.37816 C 154.72399 -581.9202 154.75093 -581.4604 154.75801 -581.00006 L 154.94225 -569.02444 C 154.94567 -568.8021 154.95373 -568.5798 154.96642 -568.3578 L 155.7368 -554.8762 C 155.74385 -554.75264 155.75235 -554.62916 155.76228 -554.5058 L 157.09585 -537.9314 C 157.1302 -537.50455 157.14739 -537.07647 157.14739 -536.6482 L 157.14739 -524.19843 C 157.14739 -523.9934 157.15133 -523.7884 157.1592 -523.5835 L 157.73956 -508.49436 C 157.74478 -508.3587 157.74827 -508.22297 157.75003 -508.0872 L 157.94219 -493.29095 C 157.94565 -493.02426 157.94245 -492.7575 157.93258 -492.491 L 157.35835 -476.98684 C 157.35104 -476.78953 157.34739 -476.5921 157.34739 -476.39466 L 157.34739 -462.79843 C 157.34739 -462.5934 157.34344 -462.3884 157.33556 -462.1835 L 156.75037 -446.9685 C 156.74838 -446.91673 156.74614 -446.865 156.74364 -446.81324 L 155.94832 -430.3103 C 155.9477 -430.29734 155.94706 -430.28437 155.9464 -430.2714 L 155.15191 -414.58024 C 155.1489 -414.52065 155.14554 -414.46107 155.14186 -414.4015 L 153.95295 -395.1808 C 153.94924 -395.12083 153.9452 -395.0609 153.94081 -395.001 L 152.15767 -370.63143 C 152.15081 -370.5377 152.14313 -370.44406 152.13462 -370.35047 L 150.34873 -350.70566 C 150.34783 -350.6958 150.34693 -350.6859 150.34601 -350.67604 L 148.57525 -331.59114 C 148.55667 -331.39096 148.53433 -331.19116 148.50823 -330.99182 L 146.54751 -316.0191 C 146.4147 -315.0049 146.14556 -314.0133 145.74738 -313.07112 L 145.74738 -313.07112 C 145.34981 -312.13038 145.10114 -311.13346 145.01032 -310.1162 L 144.24738 -301.57112 C 143.73963 -295.8841 147.6981 -290.76573 153.33006 -289.82707 Z" fill="fuchsia"/>
      <path d="M 153.33006 -289.82707 L 167.0723 -287.5367 C 167.25568 -287.50613 167.43957 -287.47877 167.6239 -287.4546 L 195.97754 -283.7393 C 196.22407 -283.707 196.47132 -283.68045 196.71908 -283.65967 L 226.96197 -281.12317 C 227.21888 -281.10163 227.47627 -281.0863 227.7339 -281.0772 L 266.66482 -279.70084 C 266.8532 -279.69418 267.04165 -279.69085 267.23013 -279.69085 L 298.69745 -279.69085 C 298.86406 -279.69085 299.03067 -279.69345 299.1972 -279.69866 L 324.232 -280.481 C 324.44224 -280.48756 324.65233 -280.49828 324.86215 -280.51313 L 346.9099 -282.07404 C 347.0682 -282.08524 347.22636 -282.0988 347.38427 -282.11472 L 372.64475 -284.66035 C 372.8465 -284.68068 373.04783 -284.70484 373.24865 -284.73283 L 397.04134 -288.0482 C 397.24535 -288.07663 397.4488 -288.109 397.65156 -288.14528 L 406.8474 -289.79085 C 412.1745 -290.74412 415.82536 -295.69777 415.15895 -301.0683 L 412.95136 -318.85887 C 412.9487 -318.8802 412.9461 -318.9015 412.94355 -318.92284 L 409.37973 -348.62137 C 409.35817 -348.801 409.33966 -348.981 409.3242 -349.16127 L 406.962 -376.7205 C 406.95226 -376.83406 406.94374 -376.94773 406.93643 -377.0615 L 405.5498 -398.65313 C 405.5482 -398.6783 405.5465 -398.7034 405.5448 -398.72856 L 403.95263 -421.81487 C 403.94914 -421.8655 403.9459 -421.9162 403.94287 -421.9669 L 402.7665 -441.76905 C 402.75376 -441.98356 402.74534 -442.1983 402.74125 -442.41316 L 402.34897 -463.008 C 402.3479 -463.06323 402.3466 -463.11846 402.34495 -463.1737 L 401.74983 -483.408 C 401.7482 -483.46324 401.74686 -483.51847 401.7458 -483.5737 L 401.35515 -504.08324 C 401.35 -504.35494 401.35173 -504.6267 401.3604 -504.8983 L 401.94634 -523.25794 C 401.94704 -523.2799 401.9478 -523.3018 401.94857 -523.32376 L 402.73666 -545.1931 C 402.7438 -545.3916 402.75466 -545.5899 402.7692 -545.788 L 404.3267 -567.00865 C 404.3405 -567.1968 404.35096 -567.3851 404.3581 -567.5736 L 405.11256 -587.4725 C 405.13576 -588.0842 405.19404 -588.69414 405.28713 -589.2992 L 408.02613 -607.1027 C 408.1069 -607.6278 408.2138 -608.1486 408.3464 -608.663 L 412.97466 -626.6207 C 413.08976 -627.06725 413.2241 -627.50864 413.37734 -627.9436 L 419.0981 -644.18325 C 419.2642 -644.6547 419.4523 -645.1182 419.6618 -645.572 L 425.19333 -657.5571 C 425.296 -657.7796 425.4038 -657.9997 425.5166 -658.2172 L 430.87883 -668.5586 C 430.92454 -668.6468 430.97106 -668.7345 431.0184 -668.8218 L 436.2344 -678.4387 C 436.97165 -679.7981 437.9213 -681.031 439.0474 -682.09086 L 439.0474 -682.09086 C 439.7226 -682.7263 439.7548 -683.7888 439.1193 -684.464 C 438.9948 -684.5963 438.84967 -684.7075 438.68955 -684.7933 L 435.4754 -686.5151 C 435.25676 -686.6323 435.0354 -686.7443 434.81155 -686.85114 L 426.95757 -690.5996 C 426.55096 -690.7937 426.13634 -690.9705 425.7148 -691.1296 L 416.04 -694.78044 C 415.84494 -694.85404 415.6485 -694.9238 415.4507 -694.98975 L 402.75623 -699.2212 C 402.617 -699.26765 402.47716 -699.3121 402.3367 -699.3547 L 389.4532 -703.2588 C 389.38266 -703.2802 389.31227 -703.302 389.24205 -703.3244 L 376.73805 -707.3029 C 376.34442 -707.4282 375.9558 -707.5686 375.57304 -707.7239 L 363.5971 -712.5837 C 362.76543 -712.9212 361.96364 -713.3281 361.2002 -713.8 L 351.58096 -719.7465 C 351.42526 -719.8427 351.2712 -719.9416 351.1189 -720.0432 L 346.2288 -723.3032 C 345.2474 -723.9575 344.3761 -724.7634 343.6474 -725.69086 L 343.6474 -725.69086 C 343.5418 -725.8253 343.3472 -725.8486 343.2128 -725.743 C 343.11007 -725.6623 343.0691 -725.5257 343.1104 -725.4018 L 343.2474 -724.99086 C 343.70664 -723.6131 343.8112 -722.1418 343.5514 -720.713 L 343.15627 -718.5397 C 342.88506 -717.04804 342.4032 -715.6025 341.7252 -714.24645 L 340.19287 -711.1818 C 339.89617 -710.5884 339.56285 -710.01405 339.19484 -709.462 L 335.99113 -704.6565 C 335.56253 -704.0136 335.08792 -703.4026 334.57104 -702.8282 L 330.009 -697.7593 C 329.96792 -697.7137 329.9266 -697.6683 329.885 -697.6231 L 323.89077 -691.1151 C 323.26303 -690.43356 322.5773 -689.8078 321.84125 -689.245 L 316.81707 -685.403 C 316.37093 -685.0618 315.90712 -684.74435 315.4276 -684.45195 L 308.9412 -680.4968 C 308.27953 -680.0934 307.58943 -679.7385 306.87635 -679.4351 L 299.76094 -676.4073 C 298.95327 -676.0636 298.1187 -675.7869 297.26566 -675.5801 L 293.1866 -674.5913 C 292.36177 -674.3913 291.52233 -674.2573 290.67624 -674.1905 L 284.97603 -673.7405 C 284.5571 -673.7074 284.13702 -673.69086 283.7168 -673.69086 L 276.68447 -673.69086 C 275.92737 -673.69086 275.17122 -673.7446 274.42173 -673.8517 L 266.47528 -674.9869 C 265.99027 -675.05616 265.5087 -675.1477 265.0321 -675.2612 L 259.07087 -676.6805 C 257.92538 -676.9532 256.8135 -677.3516 255.75543 -677.8683 L 249.47543 -680.9353 C 248.99038 -681.1722 248.51763 -681.4335 248.059 -681.7181 L 243.84712 -684.3324 C 243.24795 -684.7043 242.67403 -685.1154 242.1291 -685.563 L 237.683 -689.2152 C 237.4593 -689.3989 237.24063 -689.5887 237.02723 -689.7843 L 233.2249 -693.2698 C 232.7736 -693.6835 232.3464 -694.12275 231.94546 -694.5854 L 227.8267 -699.3378 C 227.50733 -699.7063 227.20496 -700.0892 226.92056 -700.4854 L 222.4909 -706.65525 C 221.996 -707.3446 221.55674 -708.07215 221.17725 -708.8311 L 218.60078 -713.9841 C 218.56519 -714.0553 218.53012 -714.1267 218.4956 -714.1984 L 217.24739 -716.79086 C 216.39667 -718.5577 216.04115 -720.5223 216.2187 -722.4752 L 216.3989 -724.4575 C 216.4227 -724.7193 216.22972 -724.9509 215.96786 -724.9747 C 215.80546 -724.9895 215.6468 -724.9201 215.54739 -724.79086 L 215.54739 -724.79086 C 214.88394 -723.9284 214.10383 -723.1623 213.22945 -722.5146 L 209.33292 -719.6283 C 209.20924 -719.5367 209.08424 -719.44684 208.95796 -719.3588 L 204.33571 -716.1373 C 203.14898 -715.31015 201.85556 -714.6478 200.4908 -714.1683 L 195.88368 -712.54955 C 195.3931 -712.3772 194.91123 -712.181 194.43976 -711.9617 L 187.59298 -708.7772 C 186.89682 -708.4534 186.17826 -708.1801 185.44286 -707.9595 L 174.57247 -704.6984 C 174.55575 -704.6934 174.53903 -704.6883 174.52233 -704.68325 L 163.55424 -701.35365 C 163.41634 -701.3118 163.27902 -701.2681 163.1423 -701.2225 L 150.22107 -696.9154 C 150.17195 -696.89904 150.12275 -696.8829 150.07347 -696.867 L 138.70606 -693.2001 C 138.06758 -692.99414 137.44268 -692.7482 136.83506 -692.4638 L 128.9031 -688.751 C 128.53276 -688.5776 128.1692 -688.39014 127.81322 -688.1889 L 121.86711 -684.8281 C 120.61408 -684.11985 120.17243 -682.5299 120.88067 -681.2769 C 120.95778 -681.14046 121.04705 -681.01125 121.14738 -680.89086 L 122.0115 -679.8539 C 122.76644 -678.948 123.41892 -677.9614 123.95703 -676.912 L 127.03417 -670.9116 C 127.10964 -670.76445 127.18739 -670.6185 127.26739 -670.4737 L 131.22214 -663.3175 C 131.30563 -663.1664 131.38667 -663.014 131.46523 -662.8603 L 135.57354 -654.8223 C 135.8226 -654.335 136.0465 -653.8352 136.24436 -653.325 L 139.72713 -644.3431 C 139.74063 -644.3083 139.75426 -644.2735 139.768 -644.23876 L 143.36433 -635.1533 C 143.48634 -634.8451 143.59874 -634.5331 143.70136 -634.2179 L 146.3232 -626.16514 C 146.33932 -626.1156 146.3552 -626.066 146.37084 -626.0163 L 149.4429 -616.2581 C 149.64568 -615.6139 149.80749 -614.95755 149.92734 -614.29294 L 151.91265 -603.2835 C 151.9358 -603.1551 151.95739 -603.0264 151.9774 -602.8974 L 153.68327 -591.90405 C 153.726 -591.6286 153.76154 -591.35215 153.78983 -591.0749 L 154.67725 -582.37816 C 154.72399 -581.9202 154.75093 -581.4604 154.75801 -581.00006 L 154.94225 -569.02444 C 154.94567 -568.8021 154.95373 -568.5798 154.96642 -568.3578 L 155.7368 -554.8762 C 155.74385 -554.75264 155.75235 -554.62916 155.76228 -554.5058 L 157.09585 -537.9314 C 157.1302 -537.50455 157.14739 -537.07647 157.14739 -536.6482 L 157.14739 -524.19843 C 157.14739 -523.9934 157.15133 -523.7884 157.1592 -523.5835 L 157.73956 -508.49436 C 157.74478 -508.3587 157.74827 -508.22297 157.75003 -508.0872 L 157.94219 -493.29095 C 157.94565 -493.02426 157.94245 -492.7575 157.93258 -492.491 L 157.35835 -476.98684 C 157.35104 -476.78953 157.34739 -476.5921 157.34739 -476.39466 L 157.34739 -462.79843 C 157.34739 -462.5934 157.34344 -462.3884 157.33556 -462.1835 L 156.75037 -446.9685 C 156.74838 -446.91673 156.74614 -446.865 156.74364 -446.81324 L 155.94832 -430.3103 C 155.9477 -430.29734 155.94706 -430.28437 155.9464 -430.2714 L 155.15191 -414.58024 C 155.1489 -414.52065 155.14554 -414.46107 155.14186 -414.4015 L 153.95295 -395.1808 C 153.94924 -395.12083 153.9452 -395.0609 153.94081 -395.001 L 152.15767 -370.63143 C 152.15081 -370.5377 152.14313 -370.44406 152.13462 -370.35047 L 150.34873 -350.70566 C 150.34783 -350.6958 150.34693 -350.6859 150.34601 -350.67604 L 148.57525 -331.59114 C 148.55667 -331.39096 148.53433 -331.19116 148.50823 -330.99182 L 146.54751 -316.0191 C 146.4147 -315.0049 146.14556 -314.0133 145.74738 -313.07112 L 145.74738 -313.07112 C 145.34981 -312.13038 145.10114 -311.13346 145.01032 -310.1162 L 144.24738 -301.57112 C 143.73963 -295.8841 147.6981 -290.76573 153.33006 -289.82707 Z" stroke="#7f8080" stroke-linecap="round" stroke-linejoin="round" stroke-width="1"/>
      <path d="M 65.36306 -577.1908 L 71.56306 -572.7908 L 79.76306 -568.7908 L 88.36306 -565.1908 L 97.36306 -561.3908 L 108.36306 -557.3908 L 117.76306 -554.5908 L 126.76306 -551.9908 L 135.76306 -549.3908 L 141.16306 -547.9908 L 146.76306 -546.9908 L 149.16306 -552.7908 L 151.76306 -558.1908 L 153.96306 -562.1908 L 156.56306 -565.5908 L 156.76306 -574.5908 L 156.16306 -585.5908 L 154.36306 -596.3908 L 152.76306 -606.7908 L 150.16306 -617.7908 L 147.76306 -627.3908 L 144.96306 -635.3908 L 141.76306 -644.7908 L 138.96306 -652.1908 L 135.36306 -659.7908 L 131.36306 -667.3908 L 127.36306 -674.7908 L 124.76306 -678.3908 L 121.16306 -684.1908 L 115.76306 -679.7908 L 110.96306 -674.9908 L 106.36306 -668.7908 L 101.96306 -662.5908 L 97.16306 -653.9908 L 92.36306 -644.5908 L 87.56306 -635.3908 L 83.96306 -626.7908 L 79.96306 -617.7908 L 76.76306 -609.5908 L 72.96306 -600.1908 L 70.16306 -592.1908 L 67.16306 -583.7908 Z" fill="white"/>
      <path d="M 65.36306 -577.1908 L 71.56306 -572.7908 L 79.76306 -568.7908 L 88.36306 -565.1908 L 97.36306 -561.3908 L 108.36306 -557.3908 L 117.76306 -554.5908 L 126.76306 -551.9908 L 135.76306 -549.3908 L 141.16306 -547.9908 L 146.76306 -546.9908 L 149.16306 -552.7908 L 151.76306 -558.1908 L 153.96306 -562.1908 L 156.56306 -565.5908 L 156.76306 -574.5908 L 156.16306 -585.5908 L 154.36306 -596.3908 L 152.76306 -606.7908 L 150.16306 -617.7908 L 147.76306 -627.3908 L 144.96306 -635.3908 L 141.76306 -644.7908 L 138.96306 -652.1908 L 135.36306 -659.7908 L 131.36306 -667.3908 L 127.36306 -674.7908 L 124.76306 -678.3908 L 121.16306 -684.1908 L 115.76306 -679.7908 L 110.96306 -674.9908 L 106.36306 -668.7908 L 101.96306 -662.5908 L 97.16306 -653.9908 L 92.36306 -644.5908 L 87.56306 -635.3908 L 83.96306 -626.7908 L 79.96306 -617.7908 L 76.76306 -609.5908 L 72.96306 -600.1908 L 70.16306 -592.1908 L 67.16306 -583.7908 Z" stroke="#7f8080" stroke-linecap="round" stroke-linejoin="round" stroke-width="1"/>
      <path d="M 497.4053 -577.49725 L 491.2053 -573.09725 L 483.0053 -569.09725 L 474.4053 -565.49725 L 465.4053 -561.69725 L 454.4053 -557.69725 L 445.0053 -554.89725 L 436.0053 -552.29725 L 427.0053 -549.69725 L 421.6053 -548.29725 L 416.0053 -547.29725 L 413.6053 -553.09725 L 411.0053 -558.49725 L 408.8053 -562.49725 L 406.2053 -565.89725 L 406.0053 -574.89725 L 406.6053 -585.89725 L 408.4053 -596.69725 L 410.0053 -607.09725 L 412.6053 -618.09725 L 415.0053 -627.69725 L 417.8053 -635.69725 L 421.0053 -645.09725 L 423.8053 -652.49725 L 427.4053 -660.09725 L 431.4053 -667.69725 L 435.4053 -675.09725 L 438.0053 -678.69725 L 441.6053 -684.49725 L 447.0053 -680.09725 L 451.8053 -675.29725 L 456.4053 -669.09725 L 460.8053 -662.89725 L 465.6053 -654.29725 L 470.4053 -644.89725 L 475.2053 -635.69725 L 478.8053 -627.09725 L 482.8053 -618.09725 L 486.0053 -609.89725 L 489.8053 -600.49725 L 492.6053 -592.49725 L 495.6053 -584.09725 Z" fill="white"/>
      <path d="M 497.4053 -577.49725 L 491.2053 -573.09725 L 483.0053 -569.09725 L 474.4053 -565.49725 L 465.4053 -561.69725 L 454.4053 -557.69725 L 445.0053 -554.89725 L 436.0053 -552.29725 L 427.0053 -549.69725 L 421.6053 -548.29725 L 416.0053 -547.29725 L 413.6053 -553.09725 L 411.0053 -558.49725 L 408.8053 -562.49725 L 406.2053 -565.89725 L 406.0053 -574.89725 L 406.6053 -585.89725 L 408.4053 -596.69725 L 410.0053 -607.09725 L 412.6053 -618.09725 L 415.0053 -627.69725 L 417.8053 -635.69725 L 421.0053 -645.09725 L 423.8053 -652.49725 L 427.4053 -660.09725 L 431.4053 -667.69725 L 435.4053 -675.09725 L 438.0053 -678.69725 L 441.6053 -684.49725 L 447.0053 -680.09725 L 451.8053 -675.29725 L 456.4053 -669.09725 L 460.8053 -662.89725 L 465.6053 -654.29725 L 470.4053 -644.89725 L 475.2053 -635.69725 L 478.8053 -627.09725 L 482.8053 -618.09725 L 486.0053 -609.89725 L 489.8053 -600.49725 L 492.6053 -592.49725 L 495.6053 -584.09725 Z" stroke="#7f8080" stroke-linecap="round" stroke-linejoin="round" stroke-width="1"/>
      <path d="M 217.5 -286.52083 L 223 -285.50694 L 237 -285 L 258 -285 L 258 -663.6875 L 246 -667.74306 L 239 -671.7986 L 230 -677.88194 L 221 -686.5 Z" fill="white"/>
      <path d="M 217.5 -286.52083 L 223 -285.50694 L 237 -285 L 258 -285 L 258 -663.6875 L 246 -667.74306 L 239 -671.7986 L 230 -677.88194 L 221 -686.5 Z" stroke="#7f8080" stroke-linecap="round" stroke-linejoin="round" stroke-width="1"/>
      <path d="M 311 -665.25126 L 320 -670.3078 L 326 -674.8587 L 334 -680.9265 L 340 -687.5 L 341 -287.52827 L 327.5 -286.0113 L 316.5 -285.50565 L 310 -285 L 305 -285.50565 L 303 -662.2173 Z" fill="white"/>
      <path d="M 311 -665.25126 L 320 -670.3078 L 326 -674.8587 L 334 -680.9265 L 340 -687.5 L 341 -287.52827 L 327.5 -286.0113 L 316.5 -285.50565 L 310 -285 L 305 -285.50565 L 303 -662.2173 Z" stroke="#7f8080" stroke-linecap="round" stroke-linejoin="round" stroke-width="1"/>
      <path d="M 457.0053 -566.43995 L 442.0053 -559.93995 L 430.5053 -556.93995 L 418.5053 -553.93995 L 413.0053 -552.93995 L 408.0053 -563.43995 L 402.4 -570.29086 L 406.0053 -577.93995 L 407.5053 -587.93995 L 405 -602.89086 L 410.5 -614.43995 L 414.5 -625.43995 L 417.5 -635.93995 L 420.5 -641.93995 L 437.0053 -611.93995 L 444.5053 -596.43995 L 452.5053 -578.43995 Z" fill="white"/>
      <path d="M 457.0053 -566.43995 L 442.0053 -559.93995 L 430.5053 -556.93995 L 418.5053 -553.93995 L 413.0053 -552.93995 L 408.0053 -563.43995 L 402.4 -570.29086 L 406.0053 -577.93995 L 407.5053 -587.93995 L 405 -602.89086 L 410.5 -614.43995 L 414.5 -625.43995 L 417.5 -635.93995 L 420.5 -641.93995 L 437.0053 -611.93995 L 444.5053 -596.43995 L 452.5053 -578.43995 Z" stroke="#7f8080" stroke-linecap="round" stroke-linejoin="round" stroke-width="1"/>
      <path d="M 105 -566.09086 L 149 -550.59086 L 155.4 -564.8453 L 156.9 -566.3453 L 157.4 -579.3453 L 155.9 -589.3453 L 153.9 -601.8453 L 150.9 -615.3453 L 147.9 -625.3453 L 145.4 -635.8453 L 142.4 -641.8453 L 126.4 -613.3453 L 118.9 -597.8453 L 110.9 -579.8453 Z" fill="white"/>
      <path d="M 105 -566.09086 L 149 -550.59086 L 155.4 -564.8453 L 156.9 -566.3453 L 157.4 -579.3453 L 155.9 -589.3453 L 153.9 -601.8453 L 150.9 -615.3453 L 147.9 -625.3453 L 145.4 -635.8453 L 142.4 -641.8453 L 126.4 -613.3453 L 118.9 -597.8453 L 110.9 -579.8453 Z" stroke="#7f8080" stroke-linecap="round" stroke-linejoin="round" stroke-width="1"/>
      <path d="M 177.3417 -296.1139 L 173.02797 -296.53887 L 162.02797 -297.53887 L 149.02797 -299.53887 L 145.02797 -301.53887 L 150.02797 -332.53887 L 151.8417 -358.6139 L 154.3417 -386.6139 L 155.8417 -413.6139 L 156.3417 -442.6139 L 157.8417 -469.6139 L 158.3417 -495.1139 L 157.3417 -531.1139 L 156.3417 -564.6139 L 156.3417 -579.6139 L 153.8417 -595.1139 L 151.3417 -610.1139 L 146.8417 -625.6139 L 142.3417 -640.1139 L 137.3417 -653.6139 L 130.8417 -667.1139 L 124.3417 -677.6139 L 120.8417 -684.1139 L 130.02797 -690.5389 L 143.02797 -695.5389 L 156.02797 -699.5389 L 174.3417 -705.1139 L 179.8417 -706.6139 Z" fill="white"/>
      <path d="M 177.3417 -296.1139 L 173.02797 -296.53887 L 162.02797 -297.53887 L 149.02797 -299.53887 L 145.02797 -301.53887 L 150.02797 -332.53887 L 151.8417 -358.6139 L 154.3417 -386.6139 L 155.8417 -413.6139 L 156.3417 -442.6139 L 157.8417 -469.6139 L 158.3417 -495.1139 L 157.3417 -531.1139 L 156.3417 -564.6139 L 156.3417 -579.6139 L 153.8417 -595.1139 L 151.3417 -610.1139 L 146.8417 -625.6139 L 142.3417 -640.1139 L 137.3417 -653.6139 L 130.8417 -667.1139 L 124.3417 -677.6139 L 120.8417 -684.1139 L 130.02797 -690.5389 L 143.02797 -695.5389 L 156.02797 -699.5389 L 174.3417 -705.1139 L 179.8417 -706.6139 Z" stroke="#7f8080" stroke-linecap="round" stroke-linejoin="round" stroke-width="1"/>
      <path d="M 388.2729 -294.84434 L 399.47305 -295.848 L 412.7096 -297.85534 L 416.78235 -299.86268 L 411.6914 -330.97637 L 408.6368 -358.0754 L 406.6004 -385.1744 L 403.54583 -412.27344 L 402.52763 -440.3761 L 402.52763 -469.4825 L 401.50944 -493.5705 L 401.50944 -530.7062 L 405.5 -567.1815 L 408 -595.6815 L 410.5 -610.6815 L 414.5 -625.6815 L 419.5 -639.6815 L 424 -653.1815 L 430.5 -666.6815 L 437.5 -678.1815 L 441.219 -685.271 L 432.05527 -690.2893 L 418.81874 -695.3077 L 405.5822 -699.3223 L 386.23653 -704.3407 L 383 -294.68153 Z" fill="white"/>
      <path d="M 388.2729 -294.84434 L 399.47305 -295.848 L 412.7096 -297.85534 L 416.78235 -299.86268 L 411.6914 -330.97637 L 408.6368 -358.0754 L 406.6004 -385.1744 L 403.54583 -412.27344 L 402.52763 -440.3761 L 402.52763 -469.4825 L 401.50944 -493.5705 L 401.50944 -530.7062 L 405.5 -567.1815 L 408 -595.6815 L 410.5 -610.6815 L 414.5 -625.6815 L 419.5 -639.6815 L 424 -653.1815 L 430.5 -666.6815 L 437.5 -678.1815 L 441.219 -685.271 L 432.05527 -690.2893 L 418.81874 -695.3077 L 405.5822 -699.3223 L 386.23653 -704.3407 L 383 -294.68153 Z" stroke="#7f8080" stroke-linecap="round" stroke-linejoin="round" stroke-width="1"/>
      <path d="M 216.25 -727 L 221.65 -727.6 L 228.45 -724.2 L 233.45 -722.4 L 241.85 -720.6 L 250.25 -719.6 L 258.25 -718.6 L 265.85 -718.4 L 274.45 -718 L 286.05 -718.2 L 294.45 -718.6 L 303.85 -719.2 L 312.25 -720 L 321.45 -721.4 L 329.65 -723.6 L 335.45 -725.4 L 341.05 -728 L 343.85 -726.8 L 344.25 -721.2 L 341.45 -713.2 L 336.05 -710.4 L 325.45 -707.2 L 314.05 -704.8 L 302.85 -704 L 290.45 -703 L 280.05 -703 L 270.65 -703 L 259.05 -703.6 L 247.85 -704.4 L 237.25 -706.6 L 228.65 -708.6 L 222.45 -711.4 L 220.45 -713 L 217.25 -720.6 Z" fill="fuchsia"/>
      <path d="M 216.25 -727 L 221.65 -727.6 L 228.45 -724.2 L 233.45 -722.4 L 241.85 -720.6 L 250.25 -719.6 L 258.25 -718.6 L 265.85 -718.4 L 274.45 -718 L 286.05 -718.2 L 294.45 -718.6 L 303.85 -719.2 L 312.25 -720 L 321.45 -721.4 L 329.65 -723.6 L 335.45 -725.4 L 341.05 -728 L 343.85 -726.8 L 344.25 -721.2 L 341.45 -713.2 L 336.05 -710.4 L 325.45 -707.2 L 314.05 -704.8 L 302.85 -704 L 290.45 -703 L 280.05 -703 L 270.65 -703 L 259.05 -703.6 L 247.85 -704.4 L 237.25 -706.6 L 228.65 -708.6 L 222.45 -711.4 L 220.45 -713 L 217.25 -720.6 Z" stroke="#7f8080" stroke-linecap="round" stroke-linejoin="round" stroke-width="1"/>
      <rect x="258" y="-666" width="46" height="381" fill="fuchsia"/>
      <rect x="258" y="-666" width="46" height="381" stroke="#a5a5a5" stroke-linecap="round" stroke-linejoin="round" stroke-width="1"/>
      <path d="M 216.57212 -725.8413 L 211.84295 -721.7877 C 210.6926 -720.8017 209.44764 -719.9318 208.12621 -719.1906 L 205.59958 -717.7734 C 204.1644 -716.96845 203.5836 -715.1993 204.2624 -713.7003 L 205.28 -711.4531 C 205.40158 -711.1846 205.52831 -710.9185 205.66012 -710.6549 L 207.4624 -707.0503 L 209.94938 -702.0764 C 210.29117 -701.3928 210.66683 -700.7266 211.07495 -700.08044 L 213.40134 -696.397 C 213.84172 -695.6997 214.31928 -695.02665 214.83195 -694.3807 L 218.24264 -690.0832 C 218.7887 -689.3952 219.3737 -688.739 219.99482 -688.1179 L 224.66087 -683.45186 C 225.06175 -683.051 225.4773 -682.66506 225.9067 -682.2949 L 230.47023 -678.3608 C 230.8649 -678.0206 231.271 -677.6939 231.68785 -677.38124 L 235.6628 -674.4 C 236.3287 -673.9006 237.02123 -673.4377 237.73733 -673.0133 L 241.8704 -670.5641 C 241.9984 -670.48826 242.12712 -670.41365 242.25656 -670.3403 L 246.9541 -667.67836 C 247.6924 -667.26 248.45328 -666.8828 249.23325 -666.5485 L 252.78307 -665.0272 C 253.36903 -664.77606 253.96518 -664.5494 254.56997 -664.3478 L 259.58808 -662.6751 C 260.83532 -662.25935 262.11592 -661.9513 263.4158 -661.7544 L 267.51464 -661.1333 C 267.87976 -661.078 268.24615 -661.0315 268.6135 -660.9938 L 275.4946 -660.28805 C 275.73978 -660.2629 275.98534 -660.2417 276.2312 -660.22445 L 280.75835 -659.90676 C 281.2942 -659.86915 281.83122 -659.8503 282.3684 -659.8503 L 285.63046 -659.8503 C 286.58416 -659.8503 287.53693 -659.90965 288.48327 -660.02794 L 292.472 -660.5265 C 293.13195 -660.609 293.78802 -660.7201 294.43835 -660.8595 L 300.5204 -662.16276 C 301.41426 -662.3543 302.29592 -662.599 303.16068 -662.89546 L 307.66952 -664.44135 C 308.46417 -664.7138 309.2433 -665.0296 310.0034 -665.3873 L 314.83677 -667.6618 C 315.38697 -667.9207 315.9267 -668.20135 316.45464 -668.50304 L 320.2225 -670.6561 C 320.9153 -671.052 321.587 -671.48365 322.23494 -671.94935 L 326.91106 -675.3103 C 327.41175 -675.6702 327.89776 -676.05 328.3679 -676.44896 L 333.68877 -680.9636 C 334.0711 -681.288 334.4427 -681.6248 334.803 -681.9735 L 339.5022 -686.5211 C 340.1418 -687.1401 340.7449 -687.7956 341.30852 -688.4845 L 345.1018 -693.1207 C 345.6085 -693.74004 346.08257 -694.3854 346.522 -695.0541 L 350.1392 -700.5585 C 350.35462 -700.8863 350.56163 -701.2196 350.76 -701.55805 L 353.2831 -705.86214 C 353.66906 -706.5205 354.022 -707.1977 354.34062 -707.8912 L 356.4593 -712.5025 C 356.9922 -713.6622 357.36334 -714.8896 357.5624 -716.1503 L 357.5624 -716.1503 C 357.7407 -717.2796 357.1614 -718.393 356.1343 -718.8952 L 350.8409 -721.4831 C 349.5264 -722.1257 348.29183 -722.9202 347.1624 -723.8503 L 346.7564 -724.1847 C 345.91205 -724.88 345.28864 -725.8063 344.9624 -726.8503 L 344.9624 -726.8503 C 344.91573 -726.99965 344.75686 -727.0829 344.60754 -727.0362 C 344.49247 -727.00025 344.41277 -726.8954 344.4089 -726.7749 L 344.29968 -723.352 C 344.20894 -720.5089 343.5916 -717.7073 342.479 -715.0894 L 341.60206 -713.026 C 341.0435 -711.71175 340.36374 -710.4524 339.5716 -709.26416 L 335.88582 -703.7355 C 335.1383 -702.6142 334.2937 -701.5608 333.36175 -700.58744 L 327.0667 -694.0126 C 326.1986 -693.10594 325.25777 -692.2719 324.2536 -691.51874 L 315.8787 -685.2376 C 315.00228 -684.58025 314.08 -683.9864 313.11896 -683.4605 L 305.93376 -679.529 C 304.62263 -678.8116 303.2447 -678.2237 301.8195 -677.7736 L 295.1466 -675.6664 C 293.42973 -675.1242 291.65514 -674.7855 289.85927 -674.65725 L 282.9728 -674.1654 C 281.9005 -674.0888 280.82417 -674.08745 279.7517 -674.1614 L 271.31543 -674.7432 C 270.28125 -674.81455 269.25308 -674.9557 268.23795 -675.1657 L 261.10274 -676.642 C 259.1508 -677.0458 257.2596 -677.7017 255.47676 -678.59315 L 250.81735 -680.92285 C 249.5832 -681.5399 248.4071 -682.2668 247.30326 -683.0947 L 241.6213 -687.35615 C 241.18217 -687.6855 240.75496 -688.0305 240.3405 -688.3904 L 234.58533 -693.3883 C 233.77104 -694.09545 233.0075 -694.859 232.30036 -695.6733 L 227.89513 -700.746 C 227.14103 -701.6143 226.45312 -702.538 225.8372 -703.5093 L 222.1035 -709.39705 C 221.74293 -709.9656 221.4075 -710.5498 221.0982 -711.1478 L 219.47781 -714.2805 C 218.86867 -715.4582 218.3625 -716.6863 217.96497 -717.9512 L 216.68473 -722.0247 C 216.46995 -722.7081 216.28722 -723.4011 216.13713 -724.10155 L 215.9117 -725.1535 C 215.82664 -725.5505 216.053 -725.9482 216.4378 -726.0777 L 216.4378 -726.0777 C 216.5103 -726.1021 216.58884 -726.0631 216.61325 -725.9906 C 216.63126 -725.9371 216.615 -725.878 216.57212 -725.8413 Z" fill="fuchsia"/>
      <path d="M 216.57212 -725.8413 L 211.84295 -721.7877 C 210.6926 -720.8017 209.44764 -719.9318 208.12621 -719.1906 L 205.59958 -717.7734 C 204.1644 -716.96845 203.5836 -715.1993 204.2624 -713.7003 L 205.28 -711.4531 C 205.40158 -711.1846 205.52831 -710.9185 205.66012 -710.6549 L 207.4624 -707.0503 L 209.94938 -702.0764 C 210.29117 -701.3928 210.66683 -700.7266 211.07495 -700.08044 L 213.40134 -696.397 C 213.84172 -695.6997 214.31928 -695.02665 214.83195 -694.3807 L 218.24264 -690.0832 C 218.7887 -689.3952 219.3737 -688.739 219.99482 -688.1179 L 224.66087 -683.45186 C 225.06175 -683.051 225.4773 -682.66506 225.9067 -682.2949 L 230.47023 -678.3608 C 230.8649 -678.0206 231.271 -677.6939 231.68785 -677.38124 L 235.6628 -674.4 C 236.3287 -673.9006 237.02123 -673.4377 237.73733 -673.0133 L 241.8704 -670.5641 C 241.9984 -670.48826 242.12712 -670.41365 242.25656 -670.3403 L 246.9541 -667.67836 C 247.6924 -667.26 248.45328 -666.8828 249.23325 -666.5485 L 252.78307 -665.0272 C 253.36903 -664.77606 253.96518 -664.5494 254.56997 -664.3478 L 259.58808 -662.6751 C 260.83532 -662.25935 262.11592 -661.9513 263.4158 -661.7544 L 267.51464 -661.1333 C 267.87976 -661.078 268.24615 -661.0315 268.6135 -660.9938 L 275.4946 -660.28805 C 275.73978 -660.2629 275.98534 -660.2417 276.2312 -660.22445 L 280.75835 -659.90676 C 281.2942 -659.86915 281.83122 -659.8503 282.3684 -659.8503 L 285.63046 -659.8503 C 286.58416 -659.8503 287.53693 -659.90965 288.48327 -660.02794 L 292.472 -660.5265 C 293.13195 -660.609 293.78802 -660.7201 294.43835 -660.8595 L 300.5204 -662.16276 C 301.41426 -662.3543 302.29592 -662.599 303.16068 -662.89546 L 307.66952 -664.44135 C 308.46417 -664.7138 309.2433 -665.0296 310.0034 -665.3873 L 314.83677 -667.6618 C 315.38697 -667.9207 315.9267 -668.20135 316.45464 -668.50304 L 320.2225 -670.6561 C 320.9153 -671.052 321.587 -671.48365 322.23494 -671.94935 L 326.91106 -675.3103 C 327.41175 -675.6702 327.89776 -676.05 328.3679 -676.44896 L 333.68877 -680.9636 C 334.0711 -681.288 334.4427 -681.6248 334.803 -681.9735 L 339.5022 -686.5211 C 340.1418 -687.1401 340.7449 -687.7956 341.30852 -688.4845 L 345.1018 -693.1207 C 345.6085 -693.74004 346.08257 -694.3854 346.522 -695.0541 L 350.1392 -700.5585 C 350.35462 -700.8863 350.56163 -701.2196 350.76 -701.55805 L 353.2831 -705.86214 C 353.66906 -706.5205 354.022 -707.1977 354.34062 -707.8912 L 356.4593 -712.5025 C 356.9922 -713.6622 357.36334 -714.8896 357.5624 -716.1503 L 357.5624 -716.1503 C 357.7407 -717.2796 357.1614 -718.393 356.1343 -718.8952 L 350.8409 -721.4831 C 349.5264 -722.1257 348.29183 -722.9202 347.1624 -723.8503 L 346.7564 -724.1847 C 345.91205 -724.88 345.28864 -725.8063 344.9624 -726.8503 L 344.9624 -726.8503 C 344.91573 -726.99965 344.75686 -727.0829 344.60754 -727.0362 C 344.49247 -727.00025 344.41277 -726.8954 344.4089 -726.7749 L 344.29968 -723.352 C 344.20894 -720.5089 343.5916 -717.7073 342.479 -715.0894 L 341.60206 -713.026 C 341.0435 -711.71175 340.36374 -710.4524 339.5716 -709.26416 L 335.88582 -703.7355 C 335.1383 -702.6142 334.2937 -701.5608 333.36175 -700.58744 L 327.0667 -694.0126 C 326.1986 -693.10594 325.25777 -692.2719 324.2536 -691.51874 L 315.8787 -685.2376 C 315.00228 -684.58025 314.08 -683.9864 313.11896 -683.4605 L 305.93376 -679.529 C 304.62263 -678.8116 303.2447 -678.2237 301.8195 -677.7736 L 295.1466 -675.6664 C 293.42973 -675.1242 291.65514 -674.7855 289.85927 -674.65725 L 282.9728 -674.1654 C 281.9005 -674.0888 280.82417 -674.08745 279.7517 -674.1614 L 271.31543 -674.7432 C 270.28125 -674.81455 269.25308 -674.9557 268.23795 -675.1657 L 261.10274 -676.642 C 259.1508 -677.0458 257.2596 -677.7017 255.47676 -678.59315 L 250.81735 -680.92285 C 249.5832 -681.5399 248.4071 -682.2668 247.30326 -683.0947 L 241.6213 -687.35615 C 241.18217 -687.6855 240.75496 -688.0305 240.3405 -688.3904 L 234.58533 -693.3883 C 233.77104 -694.09545 233.0075 -694.859 232.30036 -695.6733 L 227.89513 -700.746 C 227.14103 -701.6143 226.45312 -702.538 225.8372 -703.5093 L 222.1035 -709.39705 C 221.74293 -709.9656 221.4075 -710.5498 221.0982 -711.1478 L 219.47781 -714.2805 C 218.86867 -715.4582 218.3625 -716.6863 217.96497 -717.9512 L 216.68473 -722.0247 C 216.46995 -722.7081 216.28722 -723.4011 216.13713 -724.10155 L 215.9117 -725.1535 C 215.82664 -725.5505 216.053 -725.9482 216.4378 -726.0777 L 216.4378 -726.0777 C 216.5103 -726.1021 216.58884 -726.0631 216.61325 -725.9906 C 216.63126 -725.9371 216.615 -725.878 216.57212 -725.8413 Z" stroke="#7f8080" stroke-linecap="round" stroke-linejoin="round" stroke-width="1"/>
      <path d="M 145.81321 -300.26236 L 145.81321 -300.26236 C 145.74753 -299.73688 145.81036 -299.2033 145.9963 -298.70746 L 146.6473 -296.97144 C 146.82406 -296.5001 147.05115 -296.0492 147.32462 -295.62655 L 148.29243 -294.13083 C 148.8334 -293.2948 149.5465 -292.58382 150.38412 -292.04534 L 151.46217 -291.3523 C 151.76243 -291.1593 152.077 -290.98952 152.40316 -290.84448 L 153.72001 -290.25888 C 154.31654 -289.9936 154.94725 -289.8131 155.5938 -289.72257 L 164.60421 -288.4611 C 164.6142 -288.4597 164.6242 -288.45833 164.6342 -288.45698 L 176.3502 -286.86837 C 176.3962 -286.86213 176.44226 -286.85635 176.48838 -286.85103 L 186.77131 -285.66454 C 186.80324 -285.66085 186.8352 -285.6574 186.86716 -285.65415 L 200.57723 -284.26327 C 200.60521 -284.26043 200.6332 -284.25776 200.66123 -284.25526 L 211.76653 -283.2637 C 211.80164 -283.26058 211.83679 -283.2577 211.87195 -283.2551 L 222.55848 -282.4635 C 222.59896 -282.4605 222.63947 -282.45786 222.68 -282.45557 L 233.18798 -281.86078 C 233.2088 -281.8596 233.2296 -281.85833 233.25042 -281.85696 L 245.2932 -281.06727 C 245.3772 -281.06177 245.4613 -281.05777 245.54543 -281.0553 L 258.99256 -280.6598 C 259.01032 -280.65927 259.0281 -280.65868 259.04585 -280.65802 L 269.6897 -280.2638 C 269.77603 -280.2606 269.8624 -280.259 269.9488 -280.259 L 280.5578 -280.259 C 280.59874 -280.259 280.63967 -280.25865 280.6806 -280.25793 L 291.76702 -280.06344 C 291.9351 -280.0605 292.1032 -280.0636 292.27106 -280.07275 L 302.8923 -280.6521 C 302.9769 -280.6567 303.06157 -280.65978 303.1463 -280.66132 L 313.91085 -280.85704 C 313.9831 -280.85835 314.0553 -280.8608 314.12745 -280.86433 L 326.14607 -281.4554 C 326.19483 -281.4578 326.24355 -281.46072 326.29225 -281.46414 L 337.5323 -282.2529 C 337.59023 -282.25698 337.6481 -282.26177 337.70594 -282.26727 L 350.1165 -283.44923 C 350.18497 -283.45575 350.25352 -283.46126 350.32214 -283.46576 L 362.25416 -284.2482 C 362.36418 -284.2554 362.474 -284.2652 362.58355 -284.27762 L 372.9959 -285.45637 C 373.01144 -285.45813 373.02697 -285.45994 373.0425 -285.4618 L 382.9902 -286.65553 C 383.00954 -286.65785 383.02886 -286.66025 383.0482 -286.66273 L 396.88394 -288.44027 C 396.98115 -288.45276 397.0781 -288.4673 397.1747 -288.48385 L 403.7282 -289.6073 C 403.92915 -289.64176 404.13153 -289.6674 404.33473 -289.6842 L 407.56706 -289.95117 C 408.4563 -290.0246 409.3233 -290.2674 410.12135 -290.66643 L 411.60765 -291.40957 C 412.20824 -291.70987 412.7625 -292.095 413.2534 -292.55318 L 414.5885 -293.7993 C 415.1953 -294.36565 415.65073 -295.0749 415.9132 -295.86236 L 416.20805 -296.74684 C 416.2781 -296.95707 416.33817 -297.1705 416.388 -297.38642 L 416.8577 -299.4218 C 416.89293 -299.57444 416.8595 -299.73484 416.7662 -299.8607 L 416.7662 -299.8607 C 416.67587 -299.98256 416.52523 -300.04406 416.3754 -300.02023 L 407.89555 -298.67116 C 407.84466 -298.66306 407.79385 -298.6544 407.74315 -298.6452 L 394.7584 -296.28432 C 394.6656 -296.26745 394.5725 -296.25246 394.4791 -296.23935 L 383.24943 -294.66325 C 383.2293 -294.66043 383.20914 -294.6575 383.189 -294.6545 L 370.06643 -292.6959 C 369.90167 -292.67132 369.73608 -292.6526 369.57 -292.63984 L 356.84517 -291.661 C 356.82786 -291.65968 356.81055 -291.6584 356.79323 -291.6572 L 342.4531 -290.66136 C 342.4305 -290.6598 342.4079 -290.65834 342.3853 -290.657 L 329.08205 -289.86276 C 329.04016 -289.86026 328.99824 -289.85814 328.9563 -289.8564 L 314.76485 -289.26508 C 314.66776 -289.26103 314.5706 -289.259 314.47344 -289.259 L 301.2192 -289.259 L 288.67753 -289.259 C 288.63865 -289.259 288.59976 -289.2587 288.5609 -289.25804 L 276.8025 -289.06207 C 276.68032 -289.06003 276.55812 -289.0612 276.436 -289.06555 L 265.6024 -289.45247 C 265.4803 -289.45683 265.3581 -289.458 265.2359 -289.45596 L 253.52127 -289.2607 C 253.45323 -289.25958 253.38518 -289.25944 253.31713 -289.2603 L 237.61484 -289.45657 C 237.48444 -289.4582 237.3541 -289.46347 237.224 -289.47238 L 222.91423 -290.4525 C 222.85088 -290.45684 222.7876 -290.46204 222.7244 -290.4681 L 208.23339 -291.85765 C 208.22393 -291.85856 208.21448 -291.8595 208.20503 -291.86043 L 194.393 -293.24163 C 194.27715 -293.2532 194.16162 -293.2677 194.0465 -293.28504 L 179.73735 -295.4412 C 179.6586 -295.45308 179.57964 -295.4636 179.50052 -295.47277 L 165.98059 -297.0403 C 165.87301 -297.05277 165.76574 -297.06774 165.65886 -297.0852 L 156.26677 -298.6186 C 156.10178 -298.64553 155.9378 -298.67837 155.77516 -298.71705 L 146.69756 -300.87583 C 146.30925 -300.96817 145.91959 -300.72824 145.82724 -300.33992 C 145.82116 -300.31434 145.81647 -300.28845 145.81321 -300.26236 Z" fill="fuchsia"/>
      <path d="M 145.81321 -300.26236 L 145.81321 -300.26236 C 145.74753 -299.73688 145.81036 -299.2033 145.9963 -298.70746 L 146.6473 -296.97144 C 146.82406 -296.5001 147.05115 -296.0492 147.32462 -295.62655 L 148.29243 -294.13083 C 148.8334 -293.2948 149.5465 -292.58382 150.38412 -292.04534 L 151.46217 -291.3523 C 151.76243 -291.1593 152.077 -290.98952 152.40316 -290.84448 L 153.72001 -290.25888 C 154.31654 -289.9936 154.94725 -289.8131 155.5938 -289.72257 L 164.60421 -288.4611 C 164.6142 -288.4597 164.6242 -288.45833 164.6342 -288.45698 L 176.3502 -286.86837 C 176.3962 -286.86213 176.44226 -286.85635 176.48838 -286.85103 L 186.77131 -285.66454 C 186.80324 -285.66085 186.8352 -285.6574 186.86716 -285.65415 L 200.57723 -284.26327 C 200.60521 -284.26043 200.6332 -284.25776 200.66123 -284.25526 L 211.76653 -283.2637 C 211.80164 -283.26058 211.83679 -283.2577 211.87195 -283.2551 L 222.55848 -282.4635 C 222.59896 -282.4605 222.63947 -282.45786 222.68 -282.45557 L 233.18798 -281.86078 C 233.2088 -281.8596 233.2296 -281.85833 233.25042 -281.85696 L 245.2932 -281.06727 C 245.3772 -281.06177 245.4613 -281.05777 245.54543 -281.0553 L 258.99256 -280.6598 C 259.01032 -280.65927 259.0281 -280.65868 259.04585 -280.65802 L 269.6897 -280.2638 C 269.77603 -280.2606 269.8624 -280.259 269.9488 -280.259 L 280.5578 -280.259 C 280.59874 -280.259 280.63967 -280.25865 280.6806 -280.25793 L 291.76702 -280.06344 C 291.9351 -280.0605 292.1032 -280.0636 292.27106 -280.07275 L 302.8923 -280.6521 C 302.9769 -280.6567 303.06157 -280.65978 303.1463 -280.66132 L 313.91085 -280.85704 C 313.9831 -280.85835 314.0553 -280.8608 314.12745 -280.86433 L 326.14607 -281.4554 C 326.19483 -281.4578 326.24355 -281.46072 326.29225 -281.46414 L 337.5323 -282.2529 C 337.59023 -282.25698 337.6481 -282.26177 337.70594 -282.26727 L 350.1165 -283.44923 C 350.18497 -283.45575 350.25352 -283.46126 350.32214 -283.46576 L 362.25416 -284.2482 C 362.36418 -284.2554 362.474 -284.2652 362.58355 -284.27762 L 372.9959 -285.45637 C 373.01144 -285.45813 373.02697 -285.45994 373.0425 -285.4618 L 382.9902 -286.65553 C 383.00954 -286.65785 383.02886 -286.66025 383.0482 -286.66273 L 396.88394 -288.44027 C 396.98115 -288.45276 397.0781 -288.4673 397.1747 -288.48385 L 403.7282 -289.6073 C 403.92915 -289.64176 404.13153 -289.6674 404.33473 -289.6842 L 407.56706 -289.95117 C 408.4563 -290.0246 409.3233 -290.2674 410.12135 -290.66643 L 411.60765 -291.40957 C 412.20824 -291.70987 412.7625 -292.095 413.2534 -292.55318 L 414.5885 -293.7993 C 415.1953 -294.36565 415.65073 -295.0749 415.9132 -295.86236 L 416.20805 -296.74684 C 416.2781 -296.95707 416.33817 -297.1705 416.388 -297.38642 L 416.8577 -299.4218 C 416.89293 -299.57444 416.8595 -299.73484 416.7662 -299.8607 L 416.7662 -299.8607 C 416.67587 -299.98256 416.52523 -300.04406 416.3754 -300.02023 L 407.89555 -298.67116 C 407.84466 -298.66306 407.79385 -298.6544 407.74315 -298.6452 L 394.7584 -296.28432 C 394.6656 -296.26745 394.5725 -296.25246 394.4791 -296.23935 L 383.24943 -294.66325 C 383.2293 -294.66043 383.20914 -294.6575 383.189 -294.6545 L 370.06643 -292.6959 C 369.90167 -292.67132 369.73608 -292.6526 369.57 -292.63984 L 356.84517 -291.661 C 356.82786 -291.65968 356.81055 -291.6584 356.79323 -291.6572 L 342.4531 -290.66136 C 342.4305 -290.6598 342.4079 -290.65834 342.3853 -290.657 L 329.08205 -289.86276 C 329.04016 -289.86026 328.99824 -289.85814 328.9563 -289.8564 L 314.76485 -289.26508 C 314.66776 -289.26103 314.5706 -289.259 314.47344 -289.259 L 301.2192 -289.259 L 288.67753 -289.259 C 288.63865 -289.259 288.59976 -289.2587 288.5609 -289.25804 L 276.8025 -289.06207 C 276.68032 -289.06003 276.55812 -289.0612 276.436 -289.06555 L 265.6024 -289.45247 C 265.4803 -289.45683 265.3581 -289.458 265.2359 -289.45596 L 253.52127 -289.2607 C 253.45323 -289.25958 253.38518 -289.25944 253.31713 -289.2603 L 237.61484 -289.45657 C 237.48444 -289.4582 237.3541 -289.46347 237.224 -289.47238 L 222.91423 -290.4525 C 222.85088 -290.45684 222.7876 -290.46204 222.7244 -290.4681 L 208.23339 -291.85765 C 208.22393 -291.85856 208.21448 -291.8595 208.20503 -291.86043 L 194.393 -293.24163 C 194.27715 -293.2532 194.16162 -293.2677 194.0465 -293.28504 L 179.73735 -295.4412 C 179.6586 -295.45308 179.57964 -295.4636 179.50052 -295.47277 L 165.98059 -297.0403 C 165.87301 -297.05277 165.76574 -297.06774 165.65886 -297.0852 L 156.26677 -298.6186 C 156.10178 -298.64553 155.9378 -298.67837 155.77516 -298.71705 L 146.69756 -300.87583 C 146.30925 -300.96817 145.91959 -300.72824 145.82724 -300.33992 C 145.82116 -300.31434 145.81647 -300.28845 145.81321 -300.26236 Z" stroke="#7f8080" stroke-linecap="round" stroke-linejoin="round" stroke-width="1"/>
      <path d="M 419.4 -639 L 415 -625.4 L 444.6 -563 L 454.1379 -561.8396 L 463.92595 -565.67026 L 473.4 -568.4 L 427.6 -659.2 L 424 -651.8 L 422.8 -648.2 Z" fill="fuchsia"/>
      <path d="M 419.4 -639 L 415 -625.4 L 444.6 -563 L 454.1379 -561.8396 L 463.92595 -565.67026 L 473.4 -568.4 L 427.6 -659.2 L 424 -651.8 L 422.8 -648.2 Z" stroke="gray" stroke-linecap="round" stroke-linejoin="round" stroke-width=".25"/>
      <path d="M 89.6 -573.8 L 134.6 -658.6 L 139 -647.8 L 143.4 -635.8 L 147.2 -622.2 L 116.4 -559.2 Z" fill="fuchsia"/>
      <path d="M 89.6 -573.8 L 134.6 -658.6 L 139 -647.8 L 143.4 -635.8 L 147.2 -622.2 L 116.4 -559.2 Z" stroke="gray" stroke-linecap="round" stroke-linejoin="round" stroke-width=".25"/>
      <path d="M 65.36306 -576.55385 L 71.56306 -572.15385 L 79.76306 -568.15385 L 88.36306 -564.55385 L 97.36306 -560.75385 L 108.36306 -556.75385 L 117.76306 -553.95385 L 126.76306 -551.35385 L 135.76306 -548.75385 L 141.16306 -547.35385 L 146.76306 -546.35385 L 149.76306 -552.75385 L 145.96306 -553.55385 L 141.16306 -554.75385 L 135.56306 -555.95385 L 129.56306 -557.75385 L 124.96306 -559.15385 L 120.76306 -560.35385 L 116.16306 -562.35385 L 111.56306 -563.95385 L 106.76306 -565.95385 L 102.76306 -567.35385 L 97.56306 -569.55385 L 92.96306 -571.15385 L 88.16306 -573.35385 L 83.36306 -575.15385 L 79.36306 -577.15385 L 74.96306 -579.35385 L 70.56306 -581.55385 L 67.16306 -583.15385 Z" fill="fuchsia"/>
      <path d="M 65.36306 -576.55385 L 71.56306 -572.15385 L 79.76306 -568.15385 L 88.36306 -564.55385 L 97.36306 -560.75385 L 108.36306 -556.75385 L 117.76306 -553.95385 L 126.76306 -551.35385 L 135.76306 -548.75385 L 141.16306 -547.35385 L 146.76306 -546.35385 L 149.76306 -552.75385 L 145.96306 -553.55385 L 141.16306 -554.75385 L 135.56306 -555.95385 L 129.56306 -557.75385 L 124.96306 -559.15385 L 120.76306 -560.35385 L 116.16306 -562.35385 L 111.56306 -563.95385 L 106.76306 -565.95385 L 102.76306 -567.35385 L 97.56306 -569.55385 L 92.96306 -571.15385 L 88.16306 -573.35385 L 83.36306 -575.15385 L 79.36306 -577.15385 L 74.96306 -579.35385 L 70.56306 -581.55385 L 67.16306 -583.15385 Z" stroke="#7f8080" stroke-linecap="round" stroke-linejoin="round" stroke-width="1"/>
      <path d="M 497.4053 -577.49725 L 491.2053 -573.09725 L 483.0053 -569.09725 L 474.4053 -565.49725 L 465.4053 -561.69725 L 454.4053 -557.69725 L 445.0053 -554.89725 L 436.0053 -552.29725 L 427.0053 -549.69725 L 421.6053 -548.29725 L 416.0053 -547.29725 L 413.0053 -553.69725 L 416.8053 -554.49725 L 421.6053 -555.69725 L 427.2053 -556.89725 L 433.2053 -558.69725 L 437.8053 -560.09725 L 442.0053 -561.29725 L 446.6053 -563.29725 L 451.2053 -564.89725 L 456.0053 -566.89725 L 460.0053 -568.29725 L 465.2053 -570.49725 L 469.8053 -572.09725 L 474.6053 -574.29725 L 479.4053 -576.09725 L 483.4053 -578.09725 L 487.8053 -580.29725 L 492.2053 -582.49725 L 495.6053 -584.09725 Z" fill="fuchsia"/>
      <path d="M 497.4053 -577.49725 L 491.2053 -573.09725 L 483.0053 -569.09725 L 474.4053 -565.49725 L 465.4053 -561.69725 L 454.4053 -557.69725 L 445.0053 -554.89725 L 436.0053 -552.29725 L 427.0053 -549.69725 L 421.6053 -548.29725 L 416.0053 -547.29725 L 413.0053 -553.69725 L 416.8053 -554.49725 L 421.6053 -555.69725 L 427.2053 -556.89725 L 433.2053 -558.69725 L 437.8053 -560.09725 L 442.0053 -561.29725 L 446.6053 -563.29725 L 451.2053 -564.89725 L 456.0053 -566.89725 L 460.0053 -568.29725 L 465.2053 -570.49725 L 469.8053 -572.09725 L 474.6053 -574.29725 L 479.4053 -576.09725 L 483.4053 -578.09725 L 487.8053 -580.29725 L 492.2053 -582.49725 L 495.6053 -584.09725 Z" stroke="#7f8080" stroke-linecap="round" stroke-linejoin="round" stroke-width="1"/>
    </g>
  </g>
</svg>
