<?xml version="1.0" encoding="UTF-8" standalone="no"?>
<!DOCTYPE svg PUBLIC "-//W3C//DTD SVG 1.1//EN" "http://www.w3.org/Graphics/SVG/1.1/DTD/svg11.dtd">
<svg xmlns="http://www.w3.org/2000/svg" xmlns:xl="http://www.w3.org/1999/xlink" version="1.1" viewBox="64.5 -728.5 433.4053 448.93764" width="433.4053pt" height="448.93764pt" xmlns:dc="http://purl.org/dc/elements/1.1/">
  <metadata> Produced by OmniGraffle 7.6.1 
    <dc:date>2020-12-01 00:37:05 +0000</dc:date>
  </metadata>
  <defs>
    <radialGradient cx="0" cy="0" r="1" id="Gradient" gradientUnits="userSpaceOnUse">
      <stop offset="0" stop-color="white"/>
      <stop offset="1" stop-color="#2a2a2a"/>
    </radialGradient>
    <radialGradient id="Obj_Gradient" xl:href="#Gradient" gradientTransform="translate(280.75925 -700.6) scale(70.26272)"/>
  </defs>
  <g stroke="none" stroke-opacity="1" stroke-dasharray="none" fill="none" fill-opacity="1">
    <title>Raya V3 8</title>
    <g>
      <title>Capa 1</title>
      <path d="M 496.4053 -578.49725 L 490.2053 -574.09725 L 482.0053 -570.09725 L 473.4053 -566.49725 L 464.4053 -562.69725 L 453.4053 -558.69725 L 444.0053 -555.89725 L 435.0053 -553.29725 L 426.0053 -550.69725 L 420.6053 -549.29725 L 415.0053 -548.29725 L 412.6053 -554.09725 L 410.0053 -559.49725 L 407.8053 -563.49725 L 405.2053 -566.89725 L 405.0053 -575.89725 L 405.6053 -586.89725 L 407.4053 -597.69725 L 409.0053 -608.09725 L 411.6053 -619.09725 L 414.0053 -628.69725 L 416.8053 -636.69725 L 420.0053 -646.09725 L 422.8053 -653.49725 L 426.4053 -661.09725 L 430.4053 -668.69725 L 434.4053 -676.09725 L 437.0053 -679.69725 L 440.6053 -685.49725 L 446.0053 -681.09725 L 450.8053 -676.29725 L 455.4053 -670.09725 L 459.8053 -663.89725 L 464.6053 -655.29725 L 469.4053 -645.89725 L 474.2053 -636.69725 L 477.8053 -628.09725 L 481.8053 -619.09725 L 485.0053 -610.89725 L 488.8053 -601.49725 L 491.6053 -593.49725 L 494.6053 -585.09725 Z" fill="white"/>
      <path d="M 496.4053 -578.49725 L 490.2053 -574.09725 L 482.0053 -570.09725 L 473.4053 -566.49725 L 464.4053 -562.69725 L 453.4053 -558.69725 L 444.0053 -555.89725 L 435.0053 -553.29725 L 426.0053 -550.69725 L 420.6053 -549.29725 L 415.0053 -548.29725 L 412.6053 -554.09725 L 410.0053 -559.49725 L 407.8053 -563.49725 L 405.2053 -566.89725 L 405.0053 -575.89725 L 405.6053 -586.89725 L 407.4053 -597.69725 L 409.0053 -608.09725 L 411.6053 -619.09725 L 414.0053 -628.69725 L 416.8053 -636.69725 L 420.0053 -646.09725 L 422.8053 -653.49725 L 426.4053 -661.09725 L 430.4053 -668.69725 L 434.4053 -676.09725 L 437.0053 -679.69725 L 440.6053 -685.49725 L 446.0053 -681.09725 L 450.8053 -676.29725 L 455.4053 -670.09725 L 459.8053 -663.89725 L 464.6053 -655.29725 L 469.4053 -645.89725 L 474.2053 -636.69725 L 477.8053 -628.09725 L 481.8053 -619.09725 L 485.0053 -610.89725 L 488.8053 -601.49725 L 491.6053 -593.49725 L 494.6053 -585.09725 Z" stroke="#7f8080" stroke-linecap="round" stroke-linejoin="round" stroke-width="1"/>
      <path d="M 216.5 -287.52083 L 222 -286.50694 L 236 -286 L 257 -286 L 257 -664.6875 L 245 -668.74306 L 238 -672.7986 L 229 -678.88194 L 220 -687.5 Z" fill="white"/>
      <path d="M 216.5 -287.52083 L 222 -286.50694 L 236 -286 L 257 -286 L 257 -664.6875 L 245 -668.74306 L 238 -672.7986 L 229 -678.88194 L 220 -687.5 Z" stroke="#7f8080" stroke-linecap="round" stroke-linejoin="round" stroke-width="1"/>
      <path d="M 310 -666.25126 L 319 -671.3078 L 325 -675.8587 L 333 -681.9265 L 339 -688.5 L 340 -288.52827 L 326.5 -287.0113 L 315.5 -286.50565 L 309 -286 L 304 -286.50565 L 302 -663.2173 Z" fill="white"/>
      <path d="M 310 -666.25126 L 319 -671.3078 L 325 -675.8587 L 333 -681.9265 L 339 -688.5 L 340 -288.52827 L 326.5 -287.0113 L 315.5 -286.50565 L 309 -286 L 304 -286.50565 L 302 -663.2173 Z" stroke="#7f8080" stroke-linecap="round" stroke-linejoin="round" stroke-width="1"/>
      <path d="M 456.0053 -567.43995 L 441.0053 -560.93995 L 429.5053 -557.93995 L 417.5053 -554.93995 L 412.0053 -553.93995 L 407.0053 -564.43995 L 401.4 -571.29086 L 405.0053 -578.93995 L 406.5053 -588.93995 L 404 -603.89086 L 409.5 -615.43995 L 413.5 -626.43995 L 416.5 -636.93995 L 419.5 -642.93995 L 436.0053 -612.93995 L 443.5053 -597.43995 L 451.5053 -579.43995 Z" fill="white"/>
      <path d="M 456.0053 -567.43995 L 441.0053 -560.93995 L 429.5053 -557.93995 L 417.5053 -554.93995 L 412.0053 -553.93995 L 407.0053 -564.43995 L 401.4 -571.29086 L 405.0053 -578.93995 L 406.5053 -588.93995 L 404 -603.89086 L 409.5 -615.43995 L 413.5 -626.43995 L 416.5 -636.93995 L 419.5 -642.93995 L 436.0053 -612.93995 L 443.5053 -597.43995 L 451.5053 -579.43995 Z" stroke="#7f8080" stroke-linecap="round" stroke-linejoin="round" stroke-width="1"/>
      <path d="M 104 -567.09086 L 148 -551.59086 L 154.4 -565.8453 L 155.9 -567.3453 L 156.4 -580.3453 L 154.9 -590.3453 L 152.9 -602.8453 L 149.9 -616.3453 L 146.9 -626.3453 L 144.4 -636.8453 L 141.4 -642.8453 L 125.4 -614.3453 L 117.9 -598.8453 L 109.9 -580.8453 Z" fill="white"/>
      <path d="M 104 -567.09086 L 148 -551.59086 L 154.4 -565.8453 L 155.9 -567.3453 L 156.4 -580.3453 L 154.9 -590.3453 L 152.9 -602.8453 L 149.9 -616.3453 L 146.9 -626.3453 L 144.4 -636.8453 L 141.4 -642.8453 L 125.4 -614.3453 L 117.9 -598.8453 L 109.9 -580.8453 Z" stroke="#7f8080" stroke-linecap="round" stroke-linejoin="round" stroke-width="1"/>
      <path d="M 387.2729 -296.1628 L 398.47305 -297.16648 L 411.7096 -299.1738 L 415.78235 -301.18115 L 410.6914 -332.29484 L 407.6368 -359.39386 L 405.6004 -386.4929 L 402.54583 -413.5919 L 401.52763 -441.6946 L 401.52763 -470.80095 L 400.50944 -494.889 L 400.50944 -532.0247 L 404.5 -568.5 L 407 -597 L 409.5 -612 L 413.5 -627 L 418.5 -641 L 423 -654.5 L 429.5 -668 L 436.5 -679.5 L 440.219 -686.5895 L 431.05527 -691.6078 L 417.81874 -696.6261 L 404.5822 -700.6408 L 385.23653 -705.65914 L 382 -296 Z" fill="white"/>
      <path d="M 387.2729 -296.1628 L 398.47305 -297.16648 L 411.7096 -299.1738 L 415.78235 -301.18115 L 410.6914 -332.29484 L 407.6368 -359.39386 L 405.6004 -386.4929 L 402.54583 -413.5919 L 401.52763 -441.6946 L 401.52763 -470.80095 L 400.50944 -494.889 L 400.50944 -532.0247 L 404.5 -568.5 L 407 -597 L 409.5 -612 L 413.5 -627 L 418.5 -641 L 423 -654.5 L 429.5 -668 L 436.5 -679.5 L 440.219 -686.5895 L 431.05527 -691.6078 L 417.81874 -696.6261 L 404.5822 -700.6408 L 385.23653 -705.65914 L 382 -296 Z" stroke="#7f8080" stroke-linecap="round" stroke-linejoin="round" stroke-width="1"/>
      <rect x="257" y="-667" width="46" height="381" fill="#610000"/>
      <rect x="257" y="-667" width="46" height="381" stroke="#a5a5a5" stroke-linecap="round" stroke-linejoin="round" stroke-width="1"/>
      <path d="M 144.81321 -301.26236 L 144.81321 -301.26236 C 144.74753 -300.73688 144.81036 -300.2033 144.9963 -299.70746 L 145.6473 -297.97144 C 145.82406 -297.5001 146.05115 -297.0492 146.32462 -296.62655 L 147.29243 -295.13083 C 147.8334 -294.2948 148.5465 -293.58382 149.38412 -293.04534 L 150.46217 -292.3523 C 150.76243 -292.1593 151.077 -291.98952 151.40316 -291.84448 L 152.72001 -291.25888 C 153.31654 -290.9936 153.94725 -290.8131 154.5938 -290.72257 L 163.60421 -289.4611 C 163.6142 -289.4597 163.6242 -289.45833 163.6342 -289.45698 L 175.3502 -287.86837 C 175.3962 -287.86213 175.44226 -287.85635 175.48838 -287.85103 L 185.77131 -286.66454 C 185.80324 -286.66085 185.8352 -286.6574 185.86716 -286.65415 L 199.57723 -285.26327 C 199.60521 -285.26043 199.6332 -285.25776 199.66123 -285.25526 L 210.76653 -284.2637 C 210.80164 -284.26058 210.83679 -284.2577 210.87195 -284.2551 L 221.55848 -283.4635 C 221.59896 -283.4605 221.63947 -283.45786 221.68 -283.45557 L 232.18798 -282.86078 C 232.2088 -282.8596 232.2296 -282.85833 232.25042 -282.85696 L 244.2932 -282.06727 C 244.3772 -282.06177 244.4613 -282.05777 244.54543 -282.0553 L 257.99256 -281.6598 C 258.01032 -281.65927 258.0281 -281.65868 258.04585 -281.65802 L 268.6897 -281.2638 C 268.77603 -281.2606 268.8624 -281.259 268.9488 -281.259 L 279.5578 -281.259 C 279.59874 -281.259 279.63967 -281.25865 279.6806 -281.25793 L 290.76702 -281.06344 C 290.9351 -281.0605 291.1032 -281.0636 291.27106 -281.07275 L 301.8923 -281.6521 C 301.9769 -281.6567 302.06157 -281.65978 302.1463 -281.66132 L 312.91085 -281.85704 C 312.9831 -281.85835 313.0553 -281.8608 313.12745 -281.86433 L 325.14607 -282.4554 C 325.19483 -282.4578 325.24355 -282.46072 325.29225 -282.46414 L 336.5323 -283.2529 C 336.59023 -283.25698 336.6481 -283.26177 336.70594 -283.26727 L 349.1165 -284.44923 C 349.18497 -284.45575 349.25352 -284.46126 349.32214 -284.46576 L 361.25416 -285.2482 C 361.36418 -285.2554 361.474 -285.2652 361.58355 -285.27762 L 371.9959 -286.45637 C 372.01144 -286.45813 372.02697 -286.45994 372.0425 -286.4618 L 381.9902 -287.65553 C 382.00954 -287.65785 382.02886 -287.66025 382.0482 -287.66273 L 395.88394 -289.44027 C 395.98115 -289.45276 396.0781 -289.4673 396.1747 -289.48385 L 402.7282 -290.6073 C 402.92915 -290.64176 403.13153 -290.6674 403.33473 -290.6842 L 406.56706 -290.95117 C 407.4563 -291.0246 408.3233 -291.2674 409.12135 -291.66643 L 410.60765 -292.40957 C 411.20824 -292.70987 411.7625 -293.095 412.2534 -293.55318 L 413.5885 -294.7993 C 414.1953 -295.36565 414.65073 -296.0749 414.9132 -296.86236 L 415.20805 -297.74684 C 415.2781 -297.95707 415.33817 -298.1705 415.388 -298.38642 L 415.8577 -300.4218 C 415.89293 -300.57444 415.8595 -300.73484 415.7662 -300.8607 L 415.7662 -300.8607 C 415.67587 -300.98256 415.52523 -301.04406 415.3754 -301.02023 L 406.89555 -299.67116 C 406.84466 -299.66306 406.79385 -299.6544 406.74315 -299.6452 L 393.7584 -297.28432 C 393.6656 -297.26745 393.5725 -297.25246 393.4791 -297.23935 L 382.24943 -295.66325 C 382.2293 -295.66043 382.20914 -295.6575 382.189 -295.6545 L 369.06643 -293.6959 C 368.90167 -293.67132 368.73608 -293.6526 368.57 -293.63984 L 355.84517 -292.661 C 355.82786 -292.65968 355.81055 -292.6584 355.79323 -292.6572 L 341.4531 -291.66136 C 341.4305 -291.6598 341.4079 -291.65834 341.3853 -291.657 L 328.08205 -290.86276 C 328.04016 -290.86026 327.99824 -290.85814 327.9563 -290.8564 L 313.76485 -290.26508 C 313.66776 -290.26103 313.5706 -290.259 313.47344 -290.259 L 300.2192 -290.259 L 287.67753 -290.259 C 287.63865 -290.259 287.59976 -290.2587 287.5609 -290.25804 L 275.8025 -290.06207 C 275.68032 -290.06003 275.55812 -290.0612 275.436 -290.06555 L 264.6024 -290.45247 C 264.4803 -290.45683 264.3581 -290.458 264.2359 -290.45596 L 252.52127 -290.2607 C 252.45323 -290.25958 252.38518 -290.25944 252.31713 -290.2603 L 236.61484 -290.45657 C 236.48444 -290.4582 236.3541 -290.46347 236.224 -290.47238 L 221.91423 -291.4525 C 221.85088 -291.45684 221.7876 -291.46204 221.7244 -291.4681 L 207.23339 -292.85765 C 207.22393 -292.85856 207.21448 -292.8595 207.20503 -292.86043 L 193.393 -294.24163 C 193.27715 -294.2532 193.16162 -294.2677 193.0465 -294.28504 L 178.73735 -296.4412 C 178.6586 -296.45308 178.57964 -296.4636 178.50052 -296.47277 L 164.98059 -298.0403 C 164.87301 -298.05277 164.76574 -298.06774 164.65886 -298.0852 L 155.26677 -299.6186 C 155.10178 -299.64553 154.9378 -299.67837 154.77516 -299.71705 L 145.69756 -301.87583 C 145.30925 -301.96817 144.91959 -301.72824 144.82724 -301.33992 C 144.82116 -301.31434 144.81647 -301.28845 144.81321 -301.26236 Z" fill="#6e0000"/>
      <path d="M 144.81321 -301.26236 L 144.81321 -301.26236 C 144.74753 -300.73688 144.81036 -300.2033 144.9963 -299.70746 L 145.6473 -297.97144 C 145.82406 -297.5001 146.05115 -297.0492 146.32462 -296.62655 L 147.29243 -295.13083 C 147.8334 -294.2948 148.5465 -293.58382 149.38412 -293.04534 L 150.46217 -292.3523 C 150.76243 -292.1593 151.077 -291.98952 151.40316 -291.84448 L 152.72001 -291.25888 C 153.31654 -290.9936 153.94725 -290.8131 154.5938 -290.72257 L 163.60421 -289.4611 C 163.6142 -289.4597 163.6242 -289.45833 163.6342 -289.45698 L 175.3502 -287.86837 C 175.3962 -287.86213 175.44226 -287.85635 175.48838 -287.85103 L 185.77131 -286.66454 C 185.80324 -286.66085 185.8352 -286.6574 185.86716 -286.65415 L 199.57723 -285.26327 C 199.60521 -285.26043 199.6332 -285.25776 199.66123 -285.25526 L 210.76653 -284.2637 C 210.80164 -284.26058 210.83679 -284.2577 210.87195 -284.2551 L 221.55848 -283.4635 C 221.59896 -283.4605 221.63947 -283.45786 221.68 -283.45557 L 232.18798 -282.86078 C 232.2088 -282.8596 232.2296 -282.85833 232.25042 -282.85696 L 244.2932 -282.06727 C 244.3772 -282.06177 244.4613 -282.05777 244.54543 -282.0553 L 257.99256 -281.6598 C 258.01032 -281.65927 258.0281 -281.65868 258.04585 -281.65802 L 268.6897 -281.2638 C 268.77603 -281.2606 268.8624 -281.259 268.9488 -281.259 L 279.5578 -281.259 C 279.59874 -281.259 279.63967 -281.25865 279.6806 -281.25793 L 290.76702 -281.06344 C 290.9351 -281.0605 291.1032 -281.0636 291.27106 -281.07275 L 301.8923 -281.6521 C 301.9769 -281.6567 302.06157 -281.65978 302.1463 -281.66132 L 312.91085 -281.85704 C 312.9831 -281.85835 313.0553 -281.8608 313.12745 -281.86433 L 325.14607 -282.4554 C 325.19483 -282.4578 325.24355 -282.46072 325.29225 -282.46414 L 336.5323 -283.2529 C 336.59023 -283.25698 336.6481 -283.26177 336.70594 -283.26727 L 349.1165 -284.44923 C 349.18497 -284.45575 349.25352 -284.46126 349.32214 -284.46576 L 361.25416 -285.2482 C 361.36418 -285.2554 361.474 -285.2652 361.58355 -285.27762 L 371.9959 -286.45637 C 372.01144 -286.45813 372.02697 -286.45994 372.0425 -286.4618 L 381.9902 -287.65553 C 382.00954 -287.65785 382.02886 -287.66025 382.0482 -287.66273 L 395.88394 -289.44027 C 395.98115 -289.45276 396.0781 -289.4673 396.1747 -289.48385 L 402.7282 -290.6073 C 402.92915 -290.64176 403.13153 -290.6674 403.33473 -290.6842 L 406.56706 -290.95117 C 407.4563 -291.0246 408.3233 -291.2674 409.12135 -291.66643 L 410.60765 -292.40957 C 411.20824 -292.70987 411.7625 -293.095 412.2534 -293.55318 L 413.5885 -294.7993 C 414.1953 -295.36565 414.65073 -296.0749 414.9132 -296.86236 L 415.20805 -297.74684 C 415.2781 -297.95707 415.33817 -298.1705 415.388 -298.38642 L 415.8577 -300.4218 C 415.89293 -300.57444 415.8595 -300.73484 415.7662 -300.8607 L 415.7662 -300.8607 C 415.67587 -300.98256 415.52523 -301.04406 415.3754 -301.02023 L 406.89555 -299.67116 C 406.84466 -299.66306 406.79385 -299.6544 406.74315 -299.6452 L 393.7584 -297.28432 C 393.6656 -297.26745 393.5725 -297.25246 393.4791 -297.23935 L 382.24943 -295.66325 C 382.2293 -295.66043 382.20914 -295.6575 382.189 -295.6545 L 369.06643 -293.6959 C 368.90167 -293.67132 368.73608 -293.6526 368.57 -293.63984 L 355.84517 -292.661 C 355.82786 -292.65968 355.81055 -292.6584 355.79323 -292.6572 L 341.4531 -291.66136 C 341.4305 -291.6598 341.4079 -291.65834 341.3853 -291.657 L 328.08205 -290.86276 C 328.04016 -290.86026 327.99824 -290.85814 327.9563 -290.8564 L 313.76485 -290.26508 C 313.66776 -290.26103 313.5706 -290.259 313.47344 -290.259 L 300.2192 -290.259 L 287.67753 -290.259 C 287.63865 -290.259 287.59976 -290.2587 287.5609 -290.25804 L 275.8025 -290.06207 C 275.68032 -290.06003 275.55812 -290.0612 275.436 -290.06555 L 264.6024 -290.45247 C 264.4803 -290.45683 264.3581 -290.458 264.2359 -290.45596 L 252.52127 -290.2607 C 252.45323 -290.25958 252.38518 -290.25944 252.31713 -290.2603 L 236.61484 -290.45657 C 236.48444 -290.4582 236.3541 -290.46347 236.224 -290.47238 L 221.91423 -291.4525 C 221.85088 -291.45684 221.7876 -291.46204 221.7244 -291.4681 L 207.23339 -292.85765 C 207.22393 -292.85856 207.21448 -292.8595 207.20503 -292.86043 L 193.393 -294.24163 C 193.27715 -294.2532 193.16162 -294.2677 193.0465 -294.28504 L 178.73735 -296.4412 C 178.6586 -296.45308 178.57964 -296.4636 178.50052 -296.47277 L 164.98059 -298.0403 C 164.87301 -298.05277 164.76574 -298.06774 164.65886 -298.0852 L 155.26677 -299.6186 C 155.10178 -299.64553 154.9378 -299.67837 154.77516 -299.71705 L 145.69756 -301.87583 C 145.30925 -301.96817 144.91959 -301.72824 144.82724 -301.33992 C 144.82116 -301.31434 144.81647 -301.28845 144.81321 -301.26236 Z" stroke="#7f8080" stroke-linecap="round" stroke-linejoin="round" stroke-width="1"/>
      <path d="M 418.4 -640 L 414 -626.4 L 443.6 -564 L 453.1379 -562.8396 L 462.92595 -566.67026 L 472.4 -569.4 L 426.6 -660.2 L 423 -652.8 L 421.8 -649.2 Z" fill="#580000"/>
      <path d="M 418.4 -640 L 414 -626.4 L 443.6 -564 L 453.1379 -562.8396 L 462.92595 -566.67026 L 472.4 -569.4 L 426.6 -660.2 L 423 -652.8 L 421.8 -649.2 Z" stroke="gray" stroke-linecap="round" stroke-linejoin="round" stroke-width=".25"/>
      <path d="M 88.6 -574.8 L 133.6 -659.6 L 138 -648.8 L 142.4 -636.8 L 146.2 -623.2 L 115.4 -560.2 Z" fill="#6d0000"/>
      <path d="M 88.6 -574.8 L 133.6 -659.6 L 138 -648.8 L 142.4 -636.8 L 146.2 -623.2 L 115.4 -560.2 Z" stroke="gray" stroke-linecap="round" stroke-linejoin="round" stroke-width=".25"/>
      <path d="M 65 -577.55385 L 71.2 -573.15385 L 79.4 -569.15385 L 88 -565.55385 L 97 -561.75385 L 108 -557.75385 L 117.4 -554.95385 L 126.4 -552.35385 L 135.4 -549.75385 L 140.8 -548.35385 L 146.4 -547.35385 L 149.4 -553.75385 L 145.6 -554.55385 L 140.8 -555.75385 L 135.2 -556.95385 L 129.2 -558.75385 L 124.6 -560.15385 L 120.4 -561.35385 L 115.8 -563.35385 L 111.2 -564.95385 L 106.4 -566.95385 L 102.4 -568.35385 L 97.2 -570.55385 L 92.6 -572.15385 L 87.8 -574.35385 L 83 -576.15385 L 79 -578.15385 L 74.6 -580.35385 L 70.2 -582.55385 L 66.8 -584.15385 Z" fill="#790000"/>
      <path d="M 65 -577.55385 L 71.2 -573.15385 L 79.4 -569.15385 L 88 -565.55385 L 97 -561.75385 L 108 -557.75385 L 117.4 -554.95385 L 126.4 -552.35385 L 135.4 -549.75385 L 140.8 -548.35385 L 146.4 -547.35385 L 149.4 -553.75385 L 145.6 -554.55385 L 140.8 -555.75385 L 135.2 -556.95385 L 129.2 -558.75385 L 124.6 -560.15385 L 120.4 -561.35385 L 115.8 -563.35385 L 111.2 -564.95385 L 106.4 -566.95385 L 102.4 -568.35385 L 97.2 -570.55385 L 92.6 -572.15385 L 87.8 -574.35385 L 83 -576.15385 L 79 -578.15385 L 74.6 -580.35385 L 70.2 -582.55385 L 66.8 -584.15385 Z" stroke="#7f8080" stroke-linecap="round" stroke-linejoin="round" stroke-width="1"/>
      <path d="M 496.4053 -578.49725 L 490.2053 -574.09725 L 482.0053 -570.09725 L 473.4053 -566.49725 L 464.4053 -562.69725 L 453.4053 -558.69725 L 444.0053 -555.89725 L 435.0053 -553.29725 L 426.0053 -550.69725 L 420.6053 -549.29725 L 415.0053 -548.29725 L 412.0053 -554.69725 L 415.8053 -555.49725 L 420.6053 -556.69725 L 426.2053 -557.89725 L 432.2053 -559.69725 L 436.8053 -561.09725 L 441.0053 -562.29725 L 445.6053 -564.29725 L 450.2053 -565.89725 L 455.0053 -567.89725 L 459.0053 -569.29725 L 464.2053 -571.49725 L 468.8053 -573.09725 L 473.6053 -575.29725 L 478.4053 -577.09725 L 482.4053 -579.09725 L 486.8053 -581.29725 L 491.2053 -583.49725 L 494.6053 -585.09725 Z" fill="#710000"/>
      <path d="M 496.4053 -578.49725 L 490.2053 -574.09725 L 482.0053 -570.09725 L 473.4053 -566.49725 L 464.4053 -562.69725 L 453.4053 -558.69725 L 444.0053 -555.89725 L 435.0053 -553.29725 L 426.0053 -550.69725 L 420.6053 -549.29725 L 415.0053 -548.29725 L 412.0053 -554.69725 L 415.8053 -555.49725 L 420.6053 -556.69725 L 426.2053 -557.89725 L 432.2053 -559.69725 L 436.8053 -561.09725 L 441.0053 -562.29725 L 445.6053 -564.29725 L 450.2053 -565.89725 L 455.0053 -567.89725 L 459.0053 -569.29725 L 464.2053 -571.49725 L 468.8053 -573.09725 L 473.6053 -575.29725 L 478.4053 -577.09725 L 482.4053 -579.09725 L 486.8053 -581.29725 L 491.2053 -583.49725 L 494.6053 -585.09725 Z" stroke="#7f8080" stroke-linecap="round" stroke-linejoin="round" stroke-width="1"/>
      <path d="M 219.00565 -727.40955 L 227.1711 -724.2918 C 228.0291 -723.9642 228.90594 -723.6883 229.79692 -723.4656 L 243.5141 -720.0363 C 244.67576 -719.7459 245.85832 -719.5466 247.051 -719.4403 L 264.57715 -717.8786 C 265.165 -717.8262 265.75464 -717.7965 266.34478 -717.7895 L 281.8237 -717.6052 C 282.11404 -717.6017 282.40442 -717.6038 282.6947 -717.6113 L 297.118 -717.9859 C 297.47878 -717.9953 297.8393 -718.0132 298.19924 -718.0395 L 312.57053 -719.0911 C 313.56197 -719.1636 314.54766 -719.3004 315.5214 -719.5004 L 327.09436 -721.87845 C 328.13637 -722.0926 329.16226 -722.3787 330.16465 -722.7348 L 341.91664 -726.9099 C 343.007 -727.2972 344.2102 -726.7665 344.65925 -725.7 L 344.65925 -725.7 C 345.1814 -724.4599 345.3334 -723.09515 345.09685 -721.77055 L 344.91637 -720.7599 C 344.6126 -719.0587 344.11806 -717.3972 343.44214 -715.8068 L 341.8989 -712.1757 C 341.34035 -710.8614 340.6606 -709.602 339.86846 -708.4138 L 336.1827 -702.88515 C 335.43517 -701.7639 334.59057 -700.7105 333.6586 -699.7371 L 327.36354 -693.1623 C 326.49547 -692.2556 325.55463 -691.4215 324.55046 -690.6684 L 316.17555 -684.3872 C 315.29914 -683.7299 314.37688 -683.1361 313.4158 -682.6102 L 306.2306 -678.6787 C 304.9195 -677.9613 303.54156 -677.3734 302.11638 -676.9233 L 295.44347 -674.8161 C 293.7266 -674.2739 291.952 -673.9352 290.15613 -673.8069 L 283.26968 -673.315 C 282.19738 -673.2384 281.12103 -673.2371 280.04854 -673.3111 L 271.6123 -673.8929 C 270.5781 -673.9642 269.54994 -674.1054 268.5348 -674.3154 L 261.3996 -675.79165 C 259.44765 -676.1955 257.55647 -676.8514 255.77362 -677.7428 L 251.1142 -680.0725 C 249.88007 -680.6896 248.70397 -681.4165 247.60012 -682.24434 L 241.91816 -686.5058 C 241.47903 -686.8352 241.05182 -687.1801 240.63737 -687.54005 L 234.8822 -692.538 C 234.0679 -693.2451 233.30436 -694.00865 232.59722 -694.8229 L 228.192 -699.8956 C 227.4379 -700.764 226.74998 -701.6877 226.13406 -702.65895 L 222.40036 -708.5467 C 222.0398 -709.1153 221.70437 -709.6994 221.39505 -710.29745 L 219.77468 -713.4302 C 219.16553 -714.60785 218.65936 -715.836 218.26183 -717.1009 L 216.98159 -721.1744 C 216.7668 -721.85775 216.58408 -722.5508 216.43399 -723.2512 L 216.35925 -723.6 C 216.16458 -724.5084 216.27185 -725.4556 216.66473 -726.2975 L 216.75925 -726.5 C 217.15372 -727.3453 218.1342 -727.7423 219.00565 -727.40955 Z" fill="url(#Obj_Gradient)"/>
      <path d="M 219.00565 -727.40955 L 227.1711 -724.2918 C 228.0291 -723.9642 228.90594 -723.6883 229.79692 -723.4656 L 243.5141 -720.0363 C 244.67576 -719.7459 245.85832 -719.5466 247.051 -719.4403 L 264.57715 -717.8786 C 265.165 -717.8262 265.75464 -717.7965 266.34478 -717.7895 L 281.8237 -717.6052 C 282.11404 -717.6017 282.40442 -717.6038 282.6947 -717.6113 L 297.118 -717.9859 C 297.47878 -717.9953 297.8393 -718.0132 298.19924 -718.0395 L 312.57053 -719.0911 C 313.56197 -719.1636 314.54766 -719.3004 315.5214 -719.5004 L 327.09436 -721.87845 C 328.13637 -722.0926 329.16226 -722.3787 330.16465 -722.7348 L 341.91664 -726.9099 C 343.007 -727.2972 344.2102 -726.7665 344.65925 -725.7 L 344.65925 -725.7 C 345.1814 -724.4599 345.3334 -723.09515 345.09685 -721.77055 L 344.91637 -720.7599 C 344.6126 -719.0587 344.11806 -717.3972 343.44214 -715.8068 L 341.8989 -712.1757 C 341.34035 -710.8614 340.6606 -709.602 339.86846 -708.4138 L 336.1827 -702.88515 C 335.43517 -701.7639 334.59057 -700.7105 333.6586 -699.7371 L 327.36354 -693.1623 C 326.49547 -692.2556 325.55463 -691.4215 324.55046 -690.6684 L 316.17555 -684.3872 C 315.29914 -683.7299 314.37688 -683.1361 313.4158 -682.6102 L 306.2306 -678.6787 C 304.9195 -677.9613 303.54156 -677.3734 302.11638 -676.9233 L 295.44347 -674.8161 C 293.7266 -674.2739 291.952 -673.9352 290.15613 -673.8069 L 283.26968 -673.315 C 282.19738 -673.2384 281.12103 -673.2371 280.04854 -673.3111 L 271.6123 -673.8929 C 270.5781 -673.9642 269.54994 -674.1054 268.5348 -674.3154 L 261.3996 -675.79165 C 259.44765 -676.1955 257.55647 -676.8514 255.77362 -677.7428 L 251.1142 -680.0725 C 249.88007 -680.6896 248.70397 -681.4165 247.60012 -682.24434 L 241.91816 -686.5058 C 241.47903 -686.8352 241.05182 -687.1801 240.63737 -687.54005 L 234.8822 -692.538 C 234.0679 -693.2451 233.30436 -694.00865 232.59722 -694.8229 L 228.192 -699.8956 C 227.4379 -700.764 226.74998 -701.6877 226.13406 -702.65895 L 222.40036 -708.5467 C 222.0398 -709.1153 221.70437 -709.6994 221.39505 -710.29745 L 219.77468 -713.4302 C 219.16553 -714.60785 218.65936 -715.836 218.26183 -717.1009 L 216.98159 -721.1744 C 216.7668 -721.85775 216.58408 -722.5508 216.43399 -723.2512 L 216.35925 -723.6 C 216.16458 -724.5084 216.27185 -725.4556 216.66473 -726.2975 L 216.75925 -726.5 C 217.15372 -727.3453 218.1342 -727.7423 219.00565 -727.40955 Z" stroke="#7f8080" stroke-linecap="round" stroke-linejoin="round" stroke-width="1"/>
      <path d="M 153.33006 -290.69948 L 167.0723 -288.4091 C 167.25568 -288.37854 167.43957 -288.35118 167.6239 -288.32703 L 195.97754 -284.61172 C 196.22407 -284.57942 196.47132 -284.55286 196.71908 -284.5321 L 226.96197 -281.9956 C 227.21888 -281.97404 227.47627 -281.9587 227.7339 -281.9496 L 266.66482 -280.57325 C 266.8532 -280.5666 267.04165 -280.56326 267.23013 -280.56326 L 298.69745 -280.56326 C 298.86406 -280.56326 299.03067 -280.56586 299.1972 -280.57107 L 324.232 -281.3534 C 324.44224 -281.35997 324.65233 -281.3707 324.86215 -281.38554 L 346.9099 -282.94645 C 347.0682 -282.95765 347.22636 -282.97122 347.38427 -282.98713 L 372.64475 -285.53276 C 372.8465 -285.5531 373.04783 -285.57725 373.24865 -285.60524 L 397.04134 -288.9206 C 397.24535 -288.94904 397.4488 -288.9814 397.65156 -289.0177 L 406.8474 -290.66326 C 412.1745 -291.61653 415.82536 -296.57018 415.15895 -301.9407 L 412.95136 -319.7313 C 412.9487 -319.7526 412.9461 -319.77392 412.94355 -319.79525 L 409.37973 -349.49378 C 409.35817 -349.6734 409.33966 -349.8534 409.3242 -350.0337 L 406.962 -377.5929 C 406.95226 -377.70647 406.94374 -377.82014 406.93643 -377.9339 L 405.5498 -399.52554 C 405.5482 -399.5507 405.5465 -399.57583 405.5448 -399.60097 L 403.95263 -422.6873 C 403.94914 -422.73793 403.9459 -422.7886 403.94287 -422.8393 L 402.7665 -442.64146 C 402.75376 -442.85597 402.74534 -443.0707 402.74125 -443.2856 L 402.34897 -463.8804 C 402.3479 -463.93565 402.3466 -463.99087 402.34495 -464.0461 L 401.74983 -484.28043 C 401.7482 -484.33565 401.74686 -484.3909 401.7458 -484.4461 L 401.35515 -504.95565 C 401.35 -505.22735 401.35173 -505.49913 401.3604 -505.77074 L 401.94634 -524.13035 C 401.94704 -524.1523 401.9478 -524.17423 401.94857 -524.1962 L 402.73666 -546.0655 C 402.7438 -546.264 402.75466 -546.46234 402.7692 -546.66044 L 404.3267 -567.88106 C 404.3405 -568.0692 404.35096 -568.2575 404.3581 -568.446 L 405.11256 -588.3449 C 405.13576 -588.95664 405.19404 -589.56655 405.28713 -590.1716 L 408.02613 -607.9751 C 408.1069 -608.5002 408.2138 -609.021 408.3464 -609.53544 L 412.97466 -627.4931 C 413.08976 -627.9397 413.2241 -628.38105 413.37734 -628.816 L 419.0981 -645.05566 C 419.2642 -645.5271 419.4523 -645.9906 419.6618 -646.44444 L 425.19333 -658.4295 C 425.296 -658.652 425.4038 -658.8721 425.5166 -659.0896 L 430.87883 -669.43105 C 430.92454 -669.5192 430.97106 -669.6069 431.0184 -669.6942 L 436.2344 -679.31114 C 436.97165 -680.6705 437.9213 -681.9034 439.0474 -682.9633 L 439.0474 -682.9633 C 439.7226 -683.5987 439.7548 -684.6612 439.1193 -685.3364 C 438.9948 -685.4687 438.84967 -685.5799 438.68955 -685.6657 L 435.4754 -687.3875 C 435.25676 -687.5047 435.0354 -687.6167 434.81155 -687.72355 L 426.95757 -691.47204 C 426.55096 -691.6661 426.13634 -691.8429 425.7148 -692.002 L 416.04 -695.65285 C 415.84494 -695.72645 415.6485 -695.7962 415.4507 -695.8622 L 402.75623 -700.09365 C 402.617 -700.14006 402.47716 -700.18455 402.3367 -700.2271 L 389.4532 -704.1312 C 389.38266 -704.1526 389.31227 -704.1744 389.24205 -704.1968 L 376.73805 -708.1753 C 376.34442 -708.3006 375.9558 -708.441 375.57304 -708.5963 L 363.5971 -713.4561 C 362.76543 -713.7936 361.96364 -714.2005 361.2002 -714.6724 L 351.58096 -720.6189 C 351.42526 -720.7151 351.2712 -720.81405 351.1189 -720.9156 L 346.2288 -724.17565 C 345.2474 -724.8299 344.3761 -725.6358 343.6474 -726.5633 L 343.6474 -726.5633 C 343.5418 -726.6977 343.3472 -726.721 343.2128 -726.6154 C 343.11007 -726.5347 343.0691 -726.3981 343.1104 -726.2742 L 343.2474 -725.8633 C 343.70664 -724.4855 343.8112 -723.0142 343.5514 -721.5854 L 343.15627 -719.4121 C 342.88506 -717.92045 342.4032 -716.4749 341.7252 -715.1189 L 340.19287 -712.0542 C 339.89617 -711.4608 339.56285 -710.88646 339.19484 -710.3344 L 335.99113 -705.5289 C 335.56253 -704.886 335.08792 -704.275 334.57104 -703.70065 L 330.009 -698.6317 C 329.96792 -698.5861 329.9266 -698.5407 329.885 -698.4955 L 323.89077 -691.9875 C 323.26303 -691.306 322.5773 -690.68024 321.84125 -690.1174 L 316.81707 -686.2754 C 316.37093 -685.9342 315.90712 -685.6168 315.4276 -685.3244 L 308.9412 -681.3692 C 308.27953 -680.9658 307.58943 -680.61094 306.87635 -680.3075 L 299.76094 -677.2797 C 298.95327 -676.936 298.1187 -676.6593 297.26566 -676.45254 L 293.1866 -675.4637 C 292.36177 -675.2637 291.52233 -675.1297 290.67624 -675.0629 L 284.97603 -674.6129 C 284.5571 -674.5798 284.13702 -674.5633 283.7168 -674.5633 L 276.68447 -674.5633 C 275.92737 -674.5633 275.17122 -674.617 274.42173 -674.7241 L 266.47528 -675.8593 C 265.99027 -675.9286 265.5087 -676.0201 265.0321 -676.1336 L 259.07087 -677.5529 C 257.92538 -677.82565 256.8135 -678.224 255.75543 -678.7407 L 249.47543 -681.8077 C 248.99038 -682.0446 248.51763 -682.3059 248.059 -682.59055 L 243.84712 -685.2048 C 243.24795 -685.5767 242.67403 -685.9878 242.1291 -686.4354 L 237.683 -690.0876 C 237.4593 -690.2713 237.24063 -690.4611 237.02723 -690.65674 L 233.2249 -694.1422 C 232.7736 -694.5559 232.3464 -694.99516 231.94546 -695.4578 L 227.8267 -700.2102 C 227.50733 -700.5787 227.20496 -700.96164 226.92056 -701.3578 L 222.4909 -707.52766 C 221.996 -708.217 221.55674 -708.9446 221.17725 -709.70355 L 218.60078 -714.8565 C 218.56519 -714.9277 218.53012 -714.9991 218.4956 -715.0708 L 217.24739 -717.6633 C 216.39667 -719.4301 216.04115 -721.3947 216.2187 -723.3476 L 216.3989 -725.3299 C 216.4227 -725.5917 216.22972 -725.8233 215.96786 -725.8471 C 215.80546 -725.8619 215.6468 -725.7925 215.54739 -725.6633 L 215.54739 -725.6633 C 214.88394 -724.8008 214.10383 -724.0347 213.22945 -723.387 L 209.33292 -720.5007 C 209.20924 -720.4091 209.08424 -720.31925 208.95796 -720.23124 L 204.33571 -717.0097 C 203.14898 -716.18256 201.85556 -715.5202 200.4908 -715.0407 L 195.88368 -713.422 C 195.3931 -713.2496 194.91123 -713.0534 194.43976 -712.8341 L 187.59298 -709.6496 C 186.89682 -709.3258 186.17826 -709.0525 185.44286 -708.8319 L 174.57247 -705.5708 C 174.55575 -705.5658 174.53903 -705.5607 174.52233 -705.5557 L 163.55424 -702.2261 C 163.41634 -702.1842 163.27902 -702.1405 163.1423 -702.0949 L 150.22107 -697.7878 C 150.17195 -697.77145 150.12275 -697.7553 150.07347 -697.7394 L 138.70606 -694.0725 C 138.06758 -693.86655 137.44268 -693.6206 136.83506 -693.3362 L 128.9031 -689.6234 C 128.53276 -689.45 128.1692 -689.26255 127.81322 -689.06135 L 121.86711 -685.7005 C 120.61408 -684.9923 120.17243 -683.40234 120.88067 -682.1493 C 120.95778 -682.0129 121.04705 -681.8837 121.14738 -681.7633 L 122.0115 -680.7263 C 122.76644 -679.8204 123.41892 -678.8338 123.95703 -677.78445 L 127.03417 -671.784 C 127.10964 -671.6369 127.18739 -671.4909 127.26739 -671.3461 L 131.22214 -664.1899 C 131.30563 -664.0388 131.38667 -663.8864 131.46523 -663.7327 L 135.57354 -655.6947 C 135.8226 -655.2074 136.0465 -654.7076 136.24436 -654.1974 L 139.72713 -645.2155 C 139.74063 -645.1807 139.75426 -645.1459 139.768 -645.1112 L 143.36433 -636.0257 C 143.48634 -635.7175 143.59874 -635.40554 143.70136 -635.0903 L 146.3232 -627.03755 C 146.33932 -626.988 146.3552 -626.9384 146.37084 -626.88875 L 149.4429 -617.1305 C 149.64568 -616.4863 149.80749 -615.82996 149.92734 -615.16535 L 151.91265 -604.1559 C 151.9358 -604.0275 151.95739 -603.8988 151.9774 -603.76984 L 153.68327 -592.77646 C 153.726 -592.50104 153.76154 -592.22456 153.78983 -591.9473 L 154.67725 -583.2506 C 154.72399 -582.7926 154.75093 -582.3328 154.75801 -581.8725 L 154.94225 -569.89685 C 154.94567 -569.6745 154.95373 -569.4522 154.96642 -569.2302 L 155.7368 -555.7486 C 155.74385 -555.62505 155.75235 -555.5016 155.76228 -555.3782 L 157.09585 -538.80383 C 157.1302 -538.37696 157.14739 -537.9489 157.14739 -537.5206 L 157.14739 -525.07084 C 157.14739 -524.8658 157.15133 -524.6608 157.1592 -524.4559 L 157.73956 -509.3668 C 157.74478 -509.2311 157.74827 -509.0954 157.75003 -508.9596 L 157.94219 -494.16336 C 157.94565 -493.8967 157.94245 -493.62993 157.93258 -493.3634 L 157.35835 -477.85925 C 157.35104 -477.66194 157.34739 -477.4645 157.34739 -477.26707 L 157.34739 -463.67084 C 157.34739 -463.4658 157.34344 -463.2608 157.33556 -463.0559 L 156.75037 -447.8409 C 156.74838 -447.78914 156.74614 -447.7374 156.74364 -447.68565 L 155.94832 -431.1827 C 155.9477 -431.16975 155.94706 -431.1568 155.9464 -431.1438 L 155.15191 -415.45265 C 155.1489 -415.39306 155.14554 -415.3335 155.14186 -415.27393 L 153.95295 -396.0532 C 153.94924 -395.99324 153.9452 -395.9333 153.94081 -395.8734 L 152.15767 -371.50384 C 152.15081 -371.41012 152.14313 -371.31647 152.13462 -371.2229 L 150.34873 -351.57807 C 150.34783 -351.5682 150.34693 -351.55832 150.34601 -351.54845 L 148.57525 -332.46355 C 148.55667 -332.26337 148.53433 -332.06357 148.50823 -331.86423 L 146.54751 -316.8915 C 146.4147 -315.87732 146.14556 -314.8857 145.74738 -313.94353 L 145.74738 -313.94353 C 145.34981 -313.0028 145.10114 -312.00587 145.01032 -310.9886 L 144.24738 -302.44353 C 143.73963 -296.7565 147.6981 -291.63814 153.33006 -290.69948 Z" fill="black"/>
      <path d="M 153.33006 -290.69948 L 167.0723 -288.4091 C 167.25568 -288.37854 167.43957 -288.35118 167.6239 -288.32703 L 195.97754 -284.61172 C 196.22407 -284.57942 196.47132 -284.55286 196.71908 -284.5321 L 226.96197 -281.9956 C 227.21888 -281.97404 227.47627 -281.9587 227.7339 -281.9496 L 266.66482 -280.57325 C 266.8532 -280.5666 267.04165 -280.56326 267.23013 -280.56326 L 298.69745 -280.56326 C 298.86406 -280.56326 299.03067 -280.56586 299.1972 -280.57107 L 324.232 -281.3534 C 324.44224 -281.35997 324.65233 -281.3707 324.86215 -281.38554 L 346.9099 -282.94645 C 347.0682 -282.95765 347.22636 -282.97122 347.38427 -282.98713 L 372.64475 -285.53276 C 372.8465 -285.5531 373.04783 -285.57725 373.24865 -285.60524 L 397.04134 -288.9206 C 397.24535 -288.94904 397.4488 -288.9814 397.65156 -289.0177 L 406.8474 -290.66326 C 412.1745 -291.61653 415.82536 -296.57018 415.15895 -301.9407 L 412.95136 -319.7313 C 412.9487 -319.7526 412.9461 -319.77392 412.94355 -319.79525 L 409.37973 -349.49378 C 409.35817 -349.6734 409.33966 -349.8534 409.3242 -350.0337 L 406.962 -377.5929 C 406.95226 -377.70647 406.94374 -377.82014 406.93643 -377.9339 L 405.5498 -399.52554 C 405.5482 -399.5507 405.5465 -399.57583 405.5448 -399.60097 L 403.95263 -422.6873 C 403.94914 -422.73793 403.9459 -422.7886 403.94287 -422.8393 L 402.7665 -442.64146 C 402.75376 -442.85597 402.74534 -443.0707 402.74125 -443.2856 L 402.34897 -463.8804 C 402.3479 -463.93565 402.3466 -463.99087 402.34495 -464.0461 L 401.74983 -484.28043 C 401.7482 -484.33565 401.74686 -484.3909 401.7458 -484.4461 L 401.35515 -504.95565 C 401.35 -505.22735 401.35173 -505.49913 401.3604 -505.77074 L 401.94634 -524.13035 C 401.94704 -524.1523 401.9478 -524.17423 401.94857 -524.1962 L 402.73666 -546.0655 C 402.7438 -546.264 402.75466 -546.46234 402.7692 -546.66044 L 404.3267 -567.88106 C 404.3405 -568.0692 404.35096 -568.2575 404.3581 -568.446 L 405.11256 -588.3449 C 405.13576 -588.95664 405.19404 -589.56655 405.28713 -590.1716 L 408.02613 -607.9751 C 408.1069 -608.5002 408.2138 -609.021 408.3464 -609.53544 L 412.97466 -627.4931 C 413.08976 -627.9397 413.2241 -628.38105 413.37734 -628.816 L 419.0981 -645.05566 C 419.2642 -645.5271 419.4523 -645.9906 419.6618 -646.44444 L 425.19333 -658.4295 C 425.296 -658.652 425.4038 -658.8721 425.5166 -659.0896 L 430.87883 -669.43105 C 430.92454 -669.5192 430.97106 -669.6069 431.0184 -669.6942 L 436.2344 -679.31114 C 436.97165 -680.6705 437.9213 -681.9034 439.0474 -682.9633 L 439.0474 -682.9633 C 439.7226 -683.5987 439.7548 -684.6612 439.1193 -685.3364 C 438.9948 -685.4687 438.84967 -685.5799 438.68955 -685.6657 L 435.4754 -687.3875 C 435.25676 -687.5047 435.0354 -687.6167 434.81155 -687.72355 L 426.95757 -691.47204 C 426.55096 -691.6661 426.13634 -691.8429 425.7148 -692.002 L 416.04 -695.65285 C 415.84494 -695.72645 415.6485 -695.7962 415.4507 -695.8622 L 402.75623 -700.09365 C 402.617 -700.14006 402.47716 -700.18455 402.3367 -700.2271 L 389.4532 -704.1312 C 389.38266 -704.1526 389.31227 -704.1744 389.24205 -704.1968 L 376.73805 -708.1753 C 376.34442 -708.3006 375.9558 -708.441 375.57304 -708.5963 L 363.5971 -713.4561 C 362.76543 -713.7936 361.96364 -714.2005 361.2002 -714.6724 L 351.58096 -720.6189 C 351.42526 -720.7151 351.2712 -720.81405 351.1189 -720.9156 L 346.2288 -724.17565 C 345.2474 -724.8299 344.3761 -725.6358 343.6474 -726.5633 L 343.6474 -726.5633 C 343.5418 -726.6977 343.3472 -726.721 343.2128 -726.6154 C 343.11007 -726.5347 343.0691 -726.3981 343.1104 -726.2742 L 343.2474 -725.8633 C 343.70664 -724.4855 343.8112 -723.0142 343.5514 -721.5854 L 343.15627 -719.4121 C 342.88506 -717.92045 342.4032 -716.4749 341.7252 -715.1189 L 340.19287 -712.0542 C 339.89617 -711.4608 339.56285 -710.88646 339.19484 -710.3344 L 335.99113 -705.5289 C 335.56253 -704.886 335.08792 -704.275 334.57104 -703.70065 L 330.009 -698.6317 C 329.96792 -698.5861 329.9266 -698.5407 329.885 -698.4955 L 323.89077 -691.9875 C 323.26303 -691.306 322.5773 -690.68024 321.84125 -690.1174 L 316.81707 -686.2754 C 316.37093 -685.9342 315.90712 -685.6168 315.4276 -685.3244 L 308.9412 -681.3692 C 308.27953 -680.9658 307.58943 -680.61094 306.87635 -680.3075 L 299.76094 -677.2797 C 298.95327 -676.936 298.1187 -676.6593 297.26566 -676.45254 L 293.1866 -675.4637 C 292.36177 -675.2637 291.52233 -675.1297 290.67624 -675.0629 L 284.97603 -674.6129 C 284.5571 -674.5798 284.13702 -674.5633 283.7168 -674.5633 L 276.68447 -674.5633 C 275.92737 -674.5633 275.17122 -674.617 274.42173 -674.7241 L 266.47528 -675.8593 C 265.99027 -675.9286 265.5087 -676.0201 265.0321 -676.1336 L 259.07087 -677.5529 C 257.92538 -677.82565 256.8135 -678.224 255.75543 -678.7407 L 249.47543 -681.8077 C 248.99038 -682.0446 248.51763 -682.3059 248.059 -682.59055 L 243.84712 -685.2048 C 243.24795 -685.5767 242.67403 -685.9878 242.1291 -686.4354 L 237.683 -690.0876 C 237.4593 -690.2713 237.24063 -690.4611 237.02723 -690.65674 L 233.2249 -694.1422 C 232.7736 -694.5559 232.3464 -694.99516 231.94546 -695.4578 L 227.8267 -700.2102 C 227.50733 -700.5787 227.20496 -700.96164 226.92056 -701.3578 L 222.4909 -707.52766 C 221.996 -708.217 221.55674 -708.9446 221.17725 -709.70355 L 218.60078 -714.8565 C 218.56519 -714.9277 218.53012 -714.9991 218.4956 -715.0708 L 217.24739 -717.6633 C 216.39667 -719.4301 216.04115 -721.3947 216.2187 -723.3476 L 216.3989 -725.3299 C 216.4227 -725.5917 216.22972 -725.8233 215.96786 -725.8471 C 215.80546 -725.8619 215.6468 -725.7925 215.54739 -725.6633 L 215.54739 -725.6633 C 214.88394 -724.8008 214.10383 -724.0347 213.22945 -723.387 L 209.33292 -720.5007 C 209.20924 -720.4091 209.08424 -720.31925 208.95796 -720.23124 L 204.33571 -717.0097 C 203.14898 -716.18256 201.85556 -715.5202 200.4908 -715.0407 L 195.88368 -713.422 C 195.3931 -713.2496 194.91123 -713.0534 194.43976 -712.8341 L 187.59298 -709.6496 C 186.89682 -709.3258 186.17826 -709.0525 185.44286 -708.8319 L 174.57247 -705.5708 C 174.55575 -705.5658 174.53903 -705.5607 174.52233 -705.5557 L 163.55424 -702.2261 C 163.41634 -702.1842 163.27902 -702.1405 163.1423 -702.0949 L 150.22107 -697.7878 C 150.17195 -697.77145 150.12275 -697.7553 150.07347 -697.7394 L 138.70606 -694.0725 C 138.06758 -693.86655 137.44268 -693.6206 136.83506 -693.3362 L 128.9031 -689.6234 C 128.53276 -689.45 128.1692 -689.26255 127.81322 -689.06135 L 121.86711 -685.7005 C 120.61408 -684.9923 120.17243 -683.40234 120.88067 -682.1493 C 120.95778 -682.0129 121.04705 -681.8837 121.14738 -681.7633 L 122.0115 -680.7263 C 122.76644 -679.8204 123.41892 -678.8338 123.95703 -677.78445 L 127.03417 -671.784 C 127.10964 -671.6369 127.18739 -671.4909 127.26739 -671.3461 L 131.22214 -664.1899 C 131.30563 -664.0388 131.38667 -663.8864 131.46523 -663.7327 L 135.57354 -655.6947 C 135.8226 -655.2074 136.0465 -654.7076 136.24436 -654.1974 L 139.72713 -645.2155 C 139.74063 -645.1807 139.75426 -645.1459 139.768 -645.1112 L 143.36433 -636.0257 C 143.48634 -635.7175 143.59874 -635.40554 143.70136 -635.0903 L 146.3232 -627.03755 C 146.33932 -626.988 146.3552 -626.9384 146.37084 -626.88875 L 149.4429 -617.1305 C 149.64568 -616.4863 149.80749 -615.82996 149.92734 -615.16535 L 151.91265 -604.1559 C 151.9358 -604.0275 151.95739 -603.8988 151.9774 -603.76984 L 153.68327 -592.77646 C 153.726 -592.50104 153.76154 -592.22456 153.78983 -591.9473 L 154.67725 -583.2506 C 154.72399 -582.7926 154.75093 -582.3328 154.75801 -581.8725 L 154.94225 -569.89685 C 154.94567 -569.6745 154.95373 -569.4522 154.96642 -569.2302 L 155.7368 -555.7486 C 155.74385 -555.62505 155.75235 -555.5016 155.76228 -555.3782 L 157.09585 -538.80383 C 157.1302 -538.37696 157.14739 -537.9489 157.14739 -537.5206 L 157.14739 -525.07084 C 157.14739 -524.8658 157.15133 -524.6608 157.1592 -524.4559 L 157.73956 -509.3668 C 157.74478 -509.2311 157.74827 -509.0954 157.75003 -508.9596 L 157.94219 -494.16336 C 157.94565 -493.8967 157.94245 -493.62993 157.93258 -493.3634 L 157.35835 -477.85925 C 157.35104 -477.66194 157.34739 -477.4645 157.34739 -477.26707 L 157.34739 -463.67084 C 157.34739 -463.4658 157.34344 -463.2608 157.33556 -463.0559 L 156.75037 -447.8409 C 156.74838 -447.78914 156.74614 -447.7374 156.74364 -447.68565 L 155.94832 -431.1827 C 155.9477 -431.16975 155.94706 -431.1568 155.9464 -431.1438 L 155.15191 -415.45265 C 155.1489 -415.39306 155.14554 -415.3335 155.14186 -415.27393 L 153.95295 -396.0532 C 153.94924 -395.99324 153.9452 -395.9333 153.94081 -395.8734 L 152.15767 -371.50384 C 152.15081 -371.41012 152.14313 -371.31647 152.13462 -371.2229 L 150.34873 -351.57807 C 150.34783 -351.5682 150.34693 -351.55832 150.34601 -351.54845 L 148.57525 -332.46355 C 148.55667 -332.26337 148.53433 -332.06357 148.50823 -331.86423 L 146.54751 -316.8915 C 146.4147 -315.87732 146.14556 -314.8857 145.74738 -313.94353 L 145.74738 -313.94353 C 145.34981 -313.0028 145.10114 -312.00587 145.01032 -310.9886 L 144.24738 -302.44353 C 143.73963 -296.7565 147.6981 -291.63814 153.33006 -290.69948 Z" stroke="#7f8080" stroke-linecap="round" stroke-linejoin="round" stroke-width="1"/>
      <path d="M 66 -578.4432 L 72.2 -574.0432 L 80.4 -570.0432 L 89 -566.4432 L 98 -562.6432 L 109 -558.6432 L 118.4 -555.8432 L 127.4 -553.2432 L 136.4 -550.6432 L 141.8 -549.2432 L 147.4 -548.2432 L 149.8 -554.0432 L 152.4 -559.4432 L 154.6 -563.4432 L 157.2 -566.8432 L 157.4 -575.8432 L 156.8 -586.8432 L 155 -597.6432 L 153.4 -608.0432 L 150.8 -619.0432 L 148.4 -628.6432 L 145.6 -636.6432 L 142.4 -646.0432 L 139.6 -653.4432 L 136 -661.0432 L 132 -668.6432 L 128 -676.0432 L 125.4 -679.6432 L 121.8 -685.4432 L 116.4 -681.0432 L 111.6 -676.2432 L 107 -670.0432 L 102.6 -663.8432 L 97.8 -655.2432 L 93 -645.8432 L 88.2 -636.6432 L 84.6 -628.0432 L 80.6 -619.0432 L 77.4 -610.8432 L 73.6 -601.4432 L 70.8 -593.4432 L 67.8 -585.0432 Z" fill="#ff6936"/>
      <path d="M 66 -578.4432 L 72.2 -574.0432 L 80.4 -570.0432 L 89 -566.4432 L 98 -562.6432 L 109 -558.6432 L 118.4 -555.8432 L 127.4 -553.2432 L 136.4 -550.6432 L 141.8 -549.2432 L 147.4 -548.2432 L 149.8 -554.0432 L 152.4 -559.4432 L 154.6 -563.4432 L 157.2 -566.8432 L 157.4 -575.8432 L 156.8 -586.8432 L 155 -597.6432 L 153.4 -608.0432 L 150.8 -619.0432 L 148.4 -628.6432 L 145.6 -636.6432 L 142.4 -646.0432 L 139.6 -653.4432 L 136 -661.0432 L 132 -668.6432 L 128 -676.0432 L 125.4 -679.6432 L 121.8 -685.4432 L 116.4 -681.0432 L 111.6 -676.2432 L 107 -670.0432 L 102.6 -663.8432 L 97.8 -655.2432 L 93 -645.8432 L 88.2 -636.6432 L 84.6 -628.0432 L 80.6 -619.0432 L 77.4 -610.8432 L 73.6 -601.4432 L 70.8 -593.4432 L 67.8 -585.0432 Z" stroke="#7f8080" stroke-linecap="round" stroke-linejoin="round" stroke-width="1"/>
      <path d="M 497.4053 -577.49725 L 491.2053 -573.09725 L 483.0053 -569.09725 L 474.4053 -565.49725 L 465.4053 -561.69725 L 454.4053 -557.69725 L 445.0053 -554.89725 L 436.0053 -552.29725 L 427.0053 -549.69725 L 421.6053 -548.29725 L 416.0053 -547.29725 L 413.6053 -553.09725 L 411.0053 -558.49725 L 408.8053 -562.49725 L 406.2053 -565.89725 L 406.0053 -574.89725 L 406.6053 -585.89725 L 408.4053 -596.69725 L 410.0053 -607.09725 L 412.6053 -618.09725 L 415.0053 -627.69725 L 417.8053 -635.69725 L 421.0053 -645.09725 L 423.8053 -652.49725 L 427.4053 -660.09725 L 431.4053 -667.69725 L 435.4053 -675.09725 L 438.0053 -678.69725 L 441.6053 -684.49725 L 447.0053 -680.09725 L 451.8053 -675.29725 L 456.4053 -669.09725 L 460.8053 -662.89725 L 465.6053 -654.29725 L 470.4053 -644.89725 L 475.2053 -635.69725 L 478.8053 -627.09725 L 482.8053 -618.09725 L 486.0053 -609.89725 L 489.8053 -600.49725 L 492.6053 -592.49725 L 495.6053 -584.09725 Z" fill="#ff6936"/>
      <path d="M 497.4053 -577.49725 L 491.2053 -573.09725 L 483.0053 -569.09725 L 474.4053 -565.49725 L 465.4053 -561.69725 L 454.4053 -557.69725 L 445.0053 -554.89725 L 436.0053 -552.29725 L 427.0053 -549.69725 L 421.6053 -548.29725 L 416.0053 -547.29725 L 413.6053 -553.09725 L 411.0053 -558.49725 L 408.8053 -562.49725 L 406.2053 -565.89725 L 406.0053 -574.89725 L 406.6053 -585.89725 L 408.4053 -596.69725 L 410.0053 -607.09725 L 412.6053 -618.09725 L 415.0053 -627.69725 L 417.8053 -635.69725 L 421.0053 -645.09725 L 423.8053 -652.49725 L 427.4053 -660.09725 L 431.4053 -667.69725 L 435.4053 -675.09725 L 438.0053 -678.69725 L 441.6053 -684.49725 L 447.0053 -680.09725 L 451.8053 -675.29725 L 456.4053 -669.09725 L 460.8053 -662.89725 L 465.6053 -654.29725 L 470.4053 -644.89725 L 475.2053 -635.69725 L 478.8053 -627.09725 L 482.8053 -618.09725 L 486.0053 -609.89725 L 489.8053 -600.49725 L 492.6053 -592.49725 L 495.6053 -584.09725 Z" stroke="#7f8080" stroke-linecap="round" stroke-linejoin="round" stroke-width="1"/>
      <path d="M 217.5 -286.52083 L 223 -285.50694 L 237 -285 L 258 -285 L 258 -663.6875 L 246 -667.74306 L 239 -671.7986 L 230 -677.88194 L 221 -686.5 Z" fill="#ff6936"/>
      <path d="M 217.5 -286.52083 L 223 -285.50694 L 237 -285 L 258 -285 L 258 -663.6875 L 246 -667.74306 L 239 -671.7986 L 230 -677.88194 L 221 -686.5 Z" stroke="#7f8080" stroke-linecap="round" stroke-linejoin="round" stroke-width="1"/>
      <path d="M 311 -665.25126 L 320 -670.3078 L 326 -674.8587 L 334 -680.9265 L 340 -687.5 L 341 -287.52827 L 327.5 -286.0113 L 316.5 -285.50565 L 310 -285 L 305 -285.50565 L 303 -662.2173 Z" fill="#ff6936"/>
      <path d="M 311 -665.25126 L 320 -670.3078 L 326 -674.8587 L 334 -680.9265 L 340 -687.5 L 341 -287.52827 L 327.5 -286.0113 L 316.5 -285.50565 L 310 -285 L 305 -285.50565 L 303 -662.2173 Z" stroke="#7f8080" stroke-linecap="round" stroke-linejoin="round" stroke-width="1"/>
      <path d="M 457.0053 -566.43995 L 442.0053 -559.93995 L 430.5053 -556.93995 L 418.5053 -553.93995 L 413.0053 -552.93995 L 408.0053 -563.43995 L 402.4 -570.29086 L 406.0053 -577.93995 L 407.5053 -587.93995 L 405 -602.89086 L 410.5 -614.43995 L 414.5 -625.43995 L 417.5 -635.93995 L 420.5 -641.93995 L 437.0053 -611.93995 L 444.5053 -596.43995 L 452.5053 -578.43995 Z" fill="#ff6936"/>
      <path d="M 457.0053 -566.43995 L 442.0053 -559.93995 L 430.5053 -556.93995 L 418.5053 -553.93995 L 413.0053 -552.93995 L 408.0053 -563.43995 L 402.4 -570.29086 L 406.0053 -577.93995 L 407.5053 -587.93995 L 405 -602.89086 L 410.5 -614.43995 L 414.5 -625.43995 L 417.5 -635.93995 L 420.5 -641.93995 L 437.0053 -611.93995 L 444.5053 -596.43995 L 452.5053 -578.43995 Z" stroke="#7f8080" stroke-linecap="round" stroke-linejoin="round" stroke-width="1"/>
      <path d="M 105 -566.09086 L 149 -550.59086 L 155.4 -564.8453 L 156.9 -566.3453 L 157.4 -579.3453 L 155.9 -589.3453 L 153.9 -601.8453 L 150.9 -615.3453 L 147.9 -625.3453 L 145.4 -635.8453 L 142.4 -641.8453 L 126.4 -613.3453 L 118.9 -597.8453 L 110.9 -579.8453 Z" fill="#ff6936"/>
      <path d="M 105 -566.09086 L 149 -550.59086 L 155.4 -564.8453 L 156.9 -566.3453 L 157.4 -579.3453 L 155.9 -589.3453 L 153.9 -601.8453 L 150.9 -615.3453 L 147.9 -625.3453 L 145.4 -635.8453 L 142.4 -641.8453 L 126.4 -613.3453 L 118.9 -597.8453 L 110.9 -579.8453 Z" stroke="#7f8080" stroke-linecap="round" stroke-linejoin="round" stroke-width="1"/>
      <path d="M 177.3417 -296.1139 L 173.02797 -296.53887 L 162.02797 -297.53887 L 149.02797 -299.53887 L 145.02797 -301.53887 L 150.02797 -332.53887 L 151.8417 -358.6139 L 154.3417 -386.6139 L 155.8417 -413.6139 L 156.3417 -442.6139 L 157.8417 -469.6139 L 158.3417 -495.1139 L 157.3417 -531.1139 L 156.3417 -564.6139 L 156.3417 -579.6139 L 153.8417 -595.1139 L 151.3417 -610.1139 L 146.8417 -625.6139 L 142.3417 -640.1139 L 137.3417 -653.6139 L 130.8417 -667.1139 L 124.3417 -677.6139 L 120.8417 -684.1139 L 130.02797 -690.5389 L 143.02797 -695.5389 L 156.02797 -699.5389 L 174.3417 -705.1139 L 179.8417 -706.6139 Z" fill="#ff6936"/>
      <path d="M 177.3417 -296.1139 L 173.02797 -296.53887 L 162.02797 -297.53887 L 149.02797 -299.53887 L 145.02797 -301.53887 L 150.02797 -332.53887 L 151.8417 -358.6139 L 154.3417 -386.6139 L 155.8417 -413.6139 L 156.3417 -442.6139 L 157.8417 -469.6139 L 158.3417 -495.1139 L 157.3417 -531.1139 L 156.3417 -564.6139 L 156.3417 -579.6139 L 153.8417 -595.1139 L 151.3417 -610.1139 L 146.8417 -625.6139 L 142.3417 -640.1139 L 137.3417 -653.6139 L 130.8417 -667.1139 L 124.3417 -677.6139 L 120.8417 -684.1139 L 130.02797 -690.5389 L 143.02797 -695.5389 L 156.02797 -699.5389 L 174.3417 -705.1139 L 179.8417 -706.6139 Z" stroke="#7f8080" stroke-linecap="round" stroke-linejoin="round" stroke-width="1"/>
      <path d="M 388.2729 -295.1628 L 399.47305 -296.16648 L 412.7096 -298.1738 L 416.78235 -300.18115 L 411.6914 -331.29484 L 408.6368 -358.39386 L 406.6004 -385.4929 L 403.54583 -412.5919 L 402.52763 -440.6946 L 402.52763 -469.80095 L 401.50944 -493.889 L 401.50944 -531.0247 L 405.5 -567.5 L 408 -596 L 410.5 -611 L 414.5 -626 L 419.5 -640 L 424 -653.5 L 430.5 -667 L 437.5 -678.5 L 441.219 -685.5895 L 432.05527 -690.6078 L 418.81874 -695.6261 L 405.5822 -699.6408 L 386.23653 -704.65914 L 383 -295 Z" fill="#ff6936"/>
      <path d="M 388.2729 -295.1628 L 399.47305 -296.16648 L 412.7096 -298.1738 L 416.78235 -300.18115 L 411.6914 -331.29484 L 408.6368 -358.39386 L 406.6004 -385.4929 L 403.54583 -412.5919 L 402.52763 -440.6946 L 402.52763 -469.80095 L 401.50944 -493.889 L 401.50944 -531.0247 L 405.5 -567.5 L 408 -596 L 410.5 -611 L 414.5 -626 L 419.5 -640 L 424 -653.5 L 430.5 -667 L 437.5 -678.5 L 441.219 -685.5895 L 432.05527 -690.6078 L 418.81874 -695.6261 L 405.5822 -699.6408 L 386.23653 -704.65914 L 383 -295 Z" stroke="#7f8080" stroke-linecap="round" stroke-linejoin="round" stroke-width="1"/>
      <path d="M 216.25 -727 L 221.65 -727.6 L 228.45 -724.2 L 233.45 -722.4 L 241.85 -720.6 L 250.25 -719.6 L 258.25 -718.6 L 265.85 -718.4 L 274.45 -718 L 286.05 -718.2 L 294.45 -718.6 L 303.85 -719.2 L 312.25 -720 L 321.45 -721.4 L 329.65 -723.6 L 335.45 -725.4 L 341.05 -728 L 343.85 -726.8 L 344.25 -721.2 L 341.45 -713.2 L 336.05 -710.4 L 325.45 -707.2 L 314.05 -704.8 L 302.85 -704 L 290.45 -703 L 280.05 -703 L 270.65 -703 L 259.05 -703.6 L 247.85 -704.4 L 237.25 -706.6 L 228.65 -708.6 L 222.45 -711.4 L 220.45 -713 L 217.25 -720.6 Z" fill="black"/>
      <path d="M 216.25 -727 L 221.65 -727.6 L 228.45 -724.2 L 233.45 -722.4 L 241.85 -720.6 L 250.25 -719.6 L 258.25 -718.6 L 265.85 -718.4 L 274.45 -718 L 286.05 -718.2 L 294.45 -718.6 L 303.85 -719.2 L 312.25 -720 L 321.45 -721.4 L 329.65 -723.6 L 335.45 -725.4 L 341.05 -728 L 343.85 -726.8 L 344.25 -721.2 L 341.45 -713.2 L 336.05 -710.4 L 325.45 -707.2 L 314.05 -704.8 L 302.85 -704 L 290.45 -703 L 280.05 -703 L 270.65 -703 L 259.05 -703.6 L 247.85 -704.4 L 237.25 -706.6 L 228.65 -708.6 L 222.45 -711.4 L 220.45 -713 L 217.25 -720.6 Z" stroke="#7f8080" stroke-linecap="round" stroke-linejoin="round" stroke-width="1"/>
      <rect x="258" y="-666" width="46" height="381" fill="black"/>
      <rect x="258" y="-666" width="46" height="381" stroke="#a5a5a5" stroke-linecap="round" stroke-linejoin="round" stroke-width="1"/>
      <path d="M 216.57212 -726.0362 L 211.84295 -721.9826 C 210.6926 -720.9966 209.44764 -720.1267 208.12621 -719.3855 L 205.59958 -717.96835 C 204.1644 -717.1634 203.5836 -715.39425 204.2624 -713.8953 L 205.28 -711.648 C 205.40158 -711.37954 205.52831 -711.1134 205.66012 -710.8498 L 207.4624 -707.2453 L 209.94938 -702.2713 C 210.29117 -701.5877 210.66683 -700.9216 211.07495 -700.2754 L 213.40134 -696.5919 C 213.84172 -695.89465 214.31928 -695.2216 214.83195 -694.5756 L 218.24264 -690.27815 C 218.7887 -689.5901 219.3737 -688.93394 219.99482 -688.3128 L 224.66087 -683.6468 C 225.06175 -683.2459 225.4773 -682.86 225.9067 -682.4898 L 230.47023 -678.55574 C 230.8649 -678.2155 231.271 -677.8888 231.68785 -677.5762 L 235.6628 -674.595 C 236.3287 -674.0955 237.02123 -673.6326 237.73733 -673.2083 L 241.8704 -670.759 C 241.9984 -670.6832 242.12712 -670.6086 242.25656 -670.5352 L 246.9541 -667.8733 C 247.6924 -667.4549 248.45328 -667.07774 249.23325 -666.7435 L 252.78307 -665.2221 C 253.36903 -664.971 253.96518 -664.7443 254.56997 -664.5427 L 259.58808 -662.87 C 260.83532 -662.4543 262.11592 -662.14624 263.4158 -661.9493 L 267.51464 -661.32826 C 267.87976 -661.2729 268.24615 -661.2264 268.6135 -661.18874 L 275.4946 -660.483 C 275.73978 -660.4578 275.98534 -660.4366 276.2312 -660.4194 L 280.75835 -660.1017 C 281.2942 -660.0641 281.83122 -660.0453 282.3684 -660.0453 L 285.63046 -660.0453 C 286.58416 -660.0453 287.53693 -660.1046 288.48327 -660.2229 L 292.472 -660.7215 C 293.13195 -660.80396 293.78802 -660.91504 294.43835 -661.0544 L 300.5204 -662.3577 C 301.41426 -662.5492 302.29592 -662.7939 303.16068 -663.0904 L 307.66952 -664.6363 C 308.46417 -664.9087 309.2433 -665.2245 310.0034 -665.5822 L 314.83677 -667.8567 C 315.38697 -668.11565 315.9267 -668.3963 316.45464 -668.698 L 320.2225 -670.85104 C 320.9153 -671.2469 321.587 -671.6786 322.23494 -672.1443 L 326.91106 -675.50525 C 327.41175 -675.8651 327.89776 -676.245 328.3679 -676.6439 L 333.68877 -681.15856 C 334.0711 -681.48294 334.4427 -681.81974 334.803 -682.1684 L 339.5022 -686.71604 C 340.1418 -687.335 340.7449 -687.9906 341.30852 -688.6794 L 345.1018 -693.31566 C 345.6085 -693.935 346.08257 -694.5803 346.522 -695.249 L 350.1392 -700.7534 C 350.35462 -701.0813 350.56163 -701.41456 350.76 -701.753 L 353.2831 -706.0571 C 353.66906 -706.7155 354.022 -707.39265 354.34062 -708.0861 L 356.4593 -712.6974 C 356.9922 -713.85715 357.36334 -715.0846 357.5624 -716.3453 L 357.5624 -716.3453 C 357.7407 -717.4745 357.1614 -718.588 356.1343 -719.0901 L 350.8409 -721.678 C 349.5264 -722.3206 348.29183 -723.1151 347.1624 -724.0453 L 346.7564 -724.3796 C 345.91205 -725.07496 345.28864 -726.0013 344.9624 -727.0453 L 344.9624 -727.0453 C 344.91573 -727.1946 344.75686 -727.2778 344.60754 -727.2311 C 344.49247 -727.1952 344.41277 -727.0903 344.4089 -726.9698 L 344.29968 -723.5469 C 344.20894 -720.7038 343.5916 -717.9022 342.479 -715.2843 L 341.60206 -713.22096 C 341.0435 -711.9067 340.36374 -710.6473 339.5716 -709.4591 L 335.88582 -703.9304 C 335.1383 -702.80915 334.2937 -701.75575 333.36175 -700.7824 L 327.0667 -694.2075 C 326.1986 -693.3009 325.25777 -692.4668 324.2536 -691.7137 L 315.8787 -685.4325 C 315.00228 -684.7752 314.08 -684.1813 313.11896 -683.6555 L 305.93376 -679.7239 C 304.62263 -679.0065 303.2447 -678.4186 301.8195 -677.9686 L 295.1466 -675.8613 C 293.42973 -675.3192 291.65514 -674.9805 289.85927 -674.8522 L 282.9728 -674.3603 C 281.9005 -674.2837 280.82417 -674.2824 279.7517 -674.35635 L 271.31543 -674.93816 C 270.28125 -675.0095 269.25308 -675.1506 268.23795 -675.3607 L 261.10274 -676.8369 C 259.1508 -677.2408 257.2596 -677.89665 255.47676 -678.7881 L 250.81735 -681.1178 C 249.5832 -681.73485 248.4071 -682.4617 247.30326 -683.2896 L 241.6213 -687.5511 C 241.18217 -687.8804 240.75496 -688.2254 240.3405 -688.5853 L 234.58533 -693.5832 C 233.77104 -694.2904 233.0075 -695.0539 232.30036 -695.8682 L 227.89513 -700.9409 C 227.14103 -701.80925 226.45312 -702.73295 225.8372 -703.7042 L 222.1035 -709.592 C 221.74293 -710.1606 221.4075 -710.7447 221.0982 -711.3427 L 219.47781 -714.4754 C 218.86867 -715.6531 218.3625 -716.8813 217.96497 -718.14615 L 216.68473 -722.2196 C 216.46995 -722.903 216.28722 -723.59605 216.13713 -724.2965 L 215.9117 -725.3484 C 215.82664 -725.7454 216.053 -726.1431 216.4378 -726.2726 L 216.4378 -726.2726 C 216.5103 -726.297 216.58884 -726.25805 216.61325 -726.1856 C 216.63126 -726.13205 216.615 -726.07296 216.57212 -726.0362 Z" fill="black"/>
      <path d="M 216.57212 -726.0362 L 211.84295 -721.9826 C 210.6926 -720.9966 209.44764 -720.1267 208.12621 -719.3855 L 205.59958 -717.96835 C 204.1644 -717.1634 203.5836 -715.39425 204.2624 -713.8953 L 205.28 -711.648 C 205.40158 -711.37954 205.52831 -711.1134 205.66012 -710.8498 L 207.4624 -707.2453 L 209.94938 -702.2713 C 210.29117 -701.5877 210.66683 -700.9216 211.07495 -700.2754 L 213.40134 -696.5919 C 213.84172 -695.89465 214.31928 -695.2216 214.83195 -694.5756 L 218.24264 -690.27815 C 218.7887 -689.5901 219.3737 -688.93394 219.99482 -688.3128 L 224.66087 -683.6468 C 225.06175 -683.2459 225.4773 -682.86 225.9067 -682.4898 L 230.47023 -678.55574 C 230.8649 -678.2155 231.271 -677.8888 231.68785 -677.5762 L 235.6628 -674.595 C 236.3287 -674.0955 237.02123 -673.6326 237.73733 -673.2083 L 241.8704 -670.759 C 241.9984 -670.6832 242.12712 -670.6086 242.25656 -670.5352 L 246.9541 -667.8733 C 247.6924 -667.4549 248.45328 -667.07774 249.23325 -666.7435 L 252.78307 -665.2221 C 253.36903 -664.971 253.96518 -664.7443 254.56997 -664.5427 L 259.58808 -662.87 C 260.83532 -662.4543 262.11592 -662.14624 263.4158 -661.9493 L 267.51464 -661.32826 C 267.87976 -661.2729 268.24615 -661.2264 268.6135 -661.18874 L 275.4946 -660.483 C 275.73978 -660.4578 275.98534 -660.4366 276.2312 -660.4194 L 280.75835 -660.1017 C 281.2942 -660.0641 281.83122 -660.0453 282.3684 -660.0453 L 285.63046 -660.0453 C 286.58416 -660.0453 287.53693 -660.1046 288.48327 -660.2229 L 292.472 -660.7215 C 293.13195 -660.80396 293.78802 -660.91504 294.43835 -661.0544 L 300.5204 -662.3577 C 301.41426 -662.5492 302.29592 -662.7939 303.16068 -663.0904 L 307.66952 -664.6363 C 308.46417 -664.9087 309.2433 -665.2245 310.0034 -665.5822 L 314.83677 -667.8567 C 315.38697 -668.11565 315.9267 -668.3963 316.45464 -668.698 L 320.2225 -670.85104 C 320.9153 -671.2469 321.587 -671.6786 322.23494 -672.1443 L 326.91106 -675.50525 C 327.41175 -675.8651 327.89776 -676.245 328.3679 -676.6439 L 333.68877 -681.15856 C 334.0711 -681.48294 334.4427 -681.81974 334.803 -682.1684 L 339.5022 -686.71604 C 340.1418 -687.335 340.7449 -687.9906 341.30852 -688.6794 L 345.1018 -693.31566 C 345.6085 -693.935 346.08257 -694.5803 346.522 -695.249 L 350.1392 -700.7534 C 350.35462 -701.0813 350.56163 -701.41456 350.76 -701.753 L 353.2831 -706.0571 C 353.66906 -706.7155 354.022 -707.39265 354.34062 -708.0861 L 356.4593 -712.6974 C 356.9922 -713.85715 357.36334 -715.0846 357.5624 -716.3453 L 357.5624 -716.3453 C 357.7407 -717.4745 357.1614 -718.588 356.1343 -719.0901 L 350.8409 -721.678 C 349.5264 -722.3206 348.29183 -723.1151 347.1624 -724.0453 L 346.7564 -724.3796 C 345.91205 -725.07496 345.28864 -726.0013 344.9624 -727.0453 L 344.9624 -727.0453 C 344.91573 -727.1946 344.75686 -727.2778 344.60754 -727.2311 C 344.49247 -727.1952 344.41277 -727.0903 344.4089 -726.9698 L 344.29968 -723.5469 C 344.20894 -720.7038 343.5916 -717.9022 342.479 -715.2843 L 341.60206 -713.22096 C 341.0435 -711.9067 340.36374 -710.6473 339.5716 -709.4591 L 335.88582 -703.9304 C 335.1383 -702.80915 334.2937 -701.75575 333.36175 -700.7824 L 327.0667 -694.2075 C 326.1986 -693.3009 325.25777 -692.4668 324.2536 -691.7137 L 315.8787 -685.4325 C 315.00228 -684.7752 314.08 -684.1813 313.11896 -683.6555 L 305.93376 -679.7239 C 304.62263 -679.0065 303.2447 -678.4186 301.8195 -677.9686 L 295.1466 -675.8613 C 293.42973 -675.3192 291.65514 -674.9805 289.85927 -674.8522 L 282.9728 -674.3603 C 281.9005 -674.2837 280.82417 -674.2824 279.7517 -674.35635 L 271.31543 -674.93816 C 270.28125 -675.0095 269.25308 -675.1506 268.23795 -675.3607 L 261.10274 -676.8369 C 259.1508 -677.2408 257.2596 -677.89665 255.47676 -678.7881 L 250.81735 -681.1178 C 249.5832 -681.73485 248.4071 -682.4617 247.30326 -683.2896 L 241.6213 -687.5511 C 241.18217 -687.8804 240.75496 -688.2254 240.3405 -688.5853 L 234.58533 -693.5832 C 233.77104 -694.2904 233.0075 -695.0539 232.30036 -695.8682 L 227.89513 -700.9409 C 227.14103 -701.80925 226.45312 -702.73295 225.8372 -703.7042 L 222.1035 -709.592 C 221.74293 -710.1606 221.4075 -710.7447 221.0982 -711.3427 L 219.47781 -714.4754 C 218.86867 -715.6531 218.3625 -716.8813 217.96497 -718.14615 L 216.68473 -722.2196 C 216.46995 -722.903 216.28722 -723.59605 216.13713 -724.2965 L 215.9117 -725.3484 C 215.82664 -725.7454 216.053 -726.1431 216.4378 -726.2726 L 216.4378 -726.2726 C 216.5103 -726.297 216.58884 -726.25805 216.61325 -726.1856 C 216.63126 -726.13205 216.615 -726.07296 216.57212 -726.0362 Z" stroke="#7f8080" stroke-linecap="round" stroke-linejoin="round" stroke-width="1"/>
      <path d="M 145.81321 -300.26236 L 145.81321 -300.26236 C 145.74753 -299.73688 145.81036 -299.2033 145.9963 -298.70746 L 146.6473 -296.97144 C 146.82406 -296.5001 147.05115 -296.0492 147.32462 -295.62655 L 148.29243 -294.13083 C 148.8334 -293.2948 149.5465 -292.58382 150.38412 -292.04534 L 151.46217 -291.3523 C 151.76243 -291.1593 152.077 -290.98952 152.40316 -290.84448 L 153.72001 -290.25888 C 154.31654 -289.9936 154.94725 -289.8131 155.5938 -289.72257 L 164.60421 -288.4611 C 164.6142 -288.4597 164.6242 -288.45833 164.6342 -288.45698 L 176.3502 -286.86837 C 176.3962 -286.86213 176.44226 -286.85635 176.48838 -286.85103 L 186.77131 -285.66454 C 186.80324 -285.66085 186.8352 -285.6574 186.86716 -285.65415 L 200.57723 -284.26327 C 200.60521 -284.26043 200.6332 -284.25776 200.66123 -284.25526 L 211.76653 -283.2637 C 211.80164 -283.26058 211.83679 -283.2577 211.87195 -283.2551 L 222.55848 -282.4635 C 222.59896 -282.4605 222.63947 -282.45786 222.68 -282.45557 L 233.18798 -281.86078 C 233.2088 -281.8596 233.2296 -281.85833 233.25042 -281.85696 L 245.2932 -281.06727 C 245.3772 -281.06177 245.4613 -281.05777 245.54543 -281.0553 L 258.99256 -280.6598 C 259.01032 -280.65927 259.0281 -280.65868 259.04585 -280.65802 L 269.6897 -280.2638 C 269.77603 -280.2606 269.8624 -280.259 269.9488 -280.259 L 280.5578 -280.259 C 280.59874 -280.259 280.63967 -280.25865 280.6806 -280.25793 L 291.76702 -280.06344 C 291.9351 -280.0605 292.1032 -280.0636 292.27106 -280.07275 L 302.8923 -280.6521 C 302.9769 -280.6567 303.06157 -280.65978 303.1463 -280.66132 L 313.91085 -280.85704 C 313.9831 -280.85835 314.0553 -280.8608 314.12745 -280.86433 L 326.14607 -281.4554 C 326.19483 -281.4578 326.24355 -281.46072 326.29225 -281.46414 L 337.5323 -282.2529 C 337.59023 -282.25698 337.6481 -282.26177 337.70594 -282.26727 L 350.1165 -283.44923 C 350.18497 -283.45575 350.25352 -283.46126 350.32214 -283.46576 L 362.25416 -284.2482 C 362.36418 -284.2554 362.474 -284.2652 362.58355 -284.27762 L 372.9959 -285.45637 C 373.01144 -285.45813 373.02697 -285.45994 373.0425 -285.4618 L 382.9902 -286.65553 C 383.00954 -286.65785 383.02886 -286.66025 383.0482 -286.66273 L 396.88394 -288.44027 C 396.98115 -288.45276 397.0781 -288.4673 397.1747 -288.48385 L 403.7282 -289.6073 C 403.92915 -289.64176 404.13153 -289.6674 404.33473 -289.6842 L 407.56706 -289.95117 C 408.4563 -290.0246 409.3233 -290.2674 410.12135 -290.66643 L 411.60765 -291.40957 C 412.20824 -291.70987 412.7625 -292.095 413.2534 -292.55318 L 414.5885 -293.7993 C 415.1953 -294.36565 415.65073 -295.0749 415.9132 -295.86236 L 416.20805 -296.74684 C 416.2781 -296.95707 416.33817 -297.1705 416.388 -297.38642 L 416.8577 -299.4218 C 416.89293 -299.57444 416.8595 -299.73484 416.7662 -299.8607 L 416.7662 -299.8607 C 416.67587 -299.98256 416.52523 -300.04406 416.3754 -300.02023 L 407.89555 -298.67116 C 407.84466 -298.66306 407.79385 -298.6544 407.74315 -298.6452 L 394.7584 -296.28432 C 394.6656 -296.26745 394.5725 -296.25246 394.4791 -296.23935 L 383.24943 -294.66325 C 383.2293 -294.66043 383.20914 -294.6575 383.189 -294.6545 L 370.06643 -292.6959 C 369.90167 -292.67132 369.73608 -292.6526 369.57 -292.63984 L 356.84517 -291.661 C 356.82786 -291.65968 356.81055 -291.6584 356.79323 -291.6572 L 342.4531 -290.66136 C 342.4305 -290.6598 342.4079 -290.65834 342.3853 -290.657 L 329.08205 -289.86276 C 329.04016 -289.86026 328.99824 -289.85814 328.9563 -289.8564 L 314.76485 -289.26508 C 314.66776 -289.26103 314.5706 -289.259 314.47344 -289.259 L 301.2192 -289.259 L 288.67753 -289.259 C 288.63865 -289.259 288.59976 -289.2587 288.5609 -289.25804 L 276.8025 -289.06207 C 276.68032 -289.06003 276.55812 -289.0612 276.436 -289.06555 L 265.6024 -289.45247 C 265.4803 -289.45683 265.3581 -289.458 265.2359 -289.45596 L 253.52127 -289.2607 C 253.45323 -289.25958 253.38518 -289.25944 253.31713 -289.2603 L 237.61484 -289.45657 C 237.48444 -289.4582 237.3541 -289.46347 237.224 -289.47238 L 222.91423 -290.4525 C 222.85088 -290.45684 222.7876 -290.46204 222.7244 -290.4681 L 208.23339 -291.85765 C 208.22393 -291.85856 208.21448 -291.8595 208.20503 -291.86043 L 194.393 -293.24163 C 194.27715 -293.2532 194.16162 -293.2677 194.0465 -293.28504 L 179.73735 -295.4412 C 179.6586 -295.45308 179.57964 -295.4636 179.50052 -295.47277 L 165.98059 -297.0403 C 165.87301 -297.05277 165.76574 -297.06774 165.65886 -297.0852 L 156.26677 -298.6186 C 156.10178 -298.64553 155.9378 -298.67837 155.77516 -298.71705 L 146.69756 -300.87583 C 146.30925 -300.96817 145.91959 -300.72824 145.82724 -300.33992 C 145.82116 -300.31434 145.81647 -300.28845 145.81321 -300.26236 Z" fill="black"/>
      <path d="M 145.81321 -300.26236 L 145.81321 -300.26236 C 145.74753 -299.73688 145.81036 -299.2033 145.9963 -298.70746 L 146.6473 -296.97144 C 146.82406 -296.5001 147.05115 -296.0492 147.32462 -295.62655 L 148.29243 -294.13083 C 148.8334 -293.2948 149.5465 -292.58382 150.38412 -292.04534 L 151.46217 -291.3523 C 151.76243 -291.1593 152.077 -290.98952 152.40316 -290.84448 L 153.72001 -290.25888 C 154.31654 -289.9936 154.94725 -289.8131 155.5938 -289.72257 L 164.60421 -288.4611 C 164.6142 -288.4597 164.6242 -288.45833 164.6342 -288.45698 L 176.3502 -286.86837 C 176.3962 -286.86213 176.44226 -286.85635 176.48838 -286.85103 L 186.77131 -285.66454 C 186.80324 -285.66085 186.8352 -285.6574 186.86716 -285.65415 L 200.57723 -284.26327 C 200.60521 -284.26043 200.6332 -284.25776 200.66123 -284.25526 L 211.76653 -283.2637 C 211.80164 -283.26058 211.83679 -283.2577 211.87195 -283.2551 L 222.55848 -282.4635 C 222.59896 -282.4605 222.63947 -282.45786 222.68 -282.45557 L 233.18798 -281.86078 C 233.2088 -281.8596 233.2296 -281.85833 233.25042 -281.85696 L 245.2932 -281.06727 C 245.3772 -281.06177 245.4613 -281.05777 245.54543 -281.0553 L 258.99256 -280.6598 C 259.01032 -280.65927 259.0281 -280.65868 259.04585 -280.65802 L 269.6897 -280.2638 C 269.77603 -280.2606 269.8624 -280.259 269.9488 -280.259 L 280.5578 -280.259 C 280.59874 -280.259 280.63967 -280.25865 280.6806 -280.25793 L 291.76702 -280.06344 C 291.9351 -280.0605 292.1032 -280.0636 292.27106 -280.07275 L 302.8923 -280.6521 C 302.9769 -280.6567 303.06157 -280.65978 303.1463 -280.66132 L 313.91085 -280.85704 C 313.9831 -280.85835 314.0553 -280.8608 314.12745 -280.86433 L 326.14607 -281.4554 C 326.19483 -281.4578 326.24355 -281.46072 326.29225 -281.46414 L 337.5323 -282.2529 C 337.59023 -282.25698 337.6481 -282.26177 337.70594 -282.26727 L 350.1165 -283.44923 C 350.18497 -283.45575 350.25352 -283.46126 350.32214 -283.46576 L 362.25416 -284.2482 C 362.36418 -284.2554 362.474 -284.2652 362.58355 -284.27762 L 372.9959 -285.45637 C 373.01144 -285.45813 373.02697 -285.45994 373.0425 -285.4618 L 382.9902 -286.65553 C 383.00954 -286.65785 383.02886 -286.66025 383.0482 -286.66273 L 396.88394 -288.44027 C 396.98115 -288.45276 397.0781 -288.4673 397.1747 -288.48385 L 403.7282 -289.6073 C 403.92915 -289.64176 404.13153 -289.6674 404.33473 -289.6842 L 407.56706 -289.95117 C 408.4563 -290.0246 409.3233 -290.2674 410.12135 -290.66643 L 411.60765 -291.40957 C 412.20824 -291.70987 412.7625 -292.095 413.2534 -292.55318 L 414.5885 -293.7993 C 415.1953 -294.36565 415.65073 -295.0749 415.9132 -295.86236 L 416.20805 -296.74684 C 416.2781 -296.95707 416.33817 -297.1705 416.388 -297.38642 L 416.8577 -299.4218 C 416.89293 -299.57444 416.8595 -299.73484 416.7662 -299.8607 L 416.7662 -299.8607 C 416.67587 -299.98256 416.52523 -300.04406 416.3754 -300.02023 L 407.89555 -298.67116 C 407.84466 -298.66306 407.79385 -298.6544 407.74315 -298.6452 L 394.7584 -296.28432 C 394.6656 -296.26745 394.5725 -296.25246 394.4791 -296.23935 L 383.24943 -294.66325 C 383.2293 -294.66043 383.20914 -294.6575 383.189 -294.6545 L 370.06643 -292.6959 C 369.90167 -292.67132 369.73608 -292.6526 369.57 -292.63984 L 356.84517 -291.661 C 356.82786 -291.65968 356.81055 -291.6584 356.79323 -291.6572 L 342.4531 -290.66136 C 342.4305 -290.6598 342.4079 -290.65834 342.3853 -290.657 L 329.08205 -289.86276 C 329.04016 -289.86026 328.99824 -289.85814 328.9563 -289.8564 L 314.76485 -289.26508 C 314.66776 -289.26103 314.5706 -289.259 314.47344 -289.259 L 301.2192 -289.259 L 288.67753 -289.259 C 288.63865 -289.259 288.59976 -289.2587 288.5609 -289.25804 L 276.8025 -289.06207 C 276.68032 -289.06003 276.55812 -289.0612 276.436 -289.06555 L 265.6024 -289.45247 C 265.4803 -289.45683 265.3581 -289.458 265.2359 -289.45596 L 253.52127 -289.2607 C 253.45323 -289.25958 253.38518 -289.25944 253.31713 -289.2603 L 237.61484 -289.45657 C 237.48444 -289.4582 237.3541 -289.46347 237.224 -289.47238 L 222.91423 -290.4525 C 222.85088 -290.45684 222.7876 -290.46204 222.7244 -290.4681 L 208.23339 -291.85765 C 208.22393 -291.85856 208.21448 -291.8595 208.20503 -291.86043 L 194.393 -293.24163 C 194.27715 -293.2532 194.16162 -293.2677 194.0465 -293.28504 L 179.73735 -295.4412 C 179.6586 -295.45308 179.57964 -295.4636 179.50052 -295.47277 L 165.98059 -297.0403 C 165.87301 -297.05277 165.76574 -297.06774 165.65886 -297.0852 L 156.26677 -298.6186 C 156.10178 -298.64553 155.9378 -298.67837 155.77516 -298.71705 L 146.69756 -300.87583 C 146.30925 -300.96817 145.91959 -300.72824 145.82724 -300.33992 C 145.82116 -300.31434 145.81647 -300.28845 145.81321 -300.26236 Z" stroke="#7f8080" stroke-linecap="round" stroke-linejoin="round" stroke-width="1"/>
      <path d="M 419.4 -639 L 415 -625.4 L 444.6 -563 L 454.1379 -561.8396 L 463.92595 -565.67026 L 473.4 -568.4 L 427.6 -659.2 L 424 -651.8 L 422.8 -648.2 Z" fill="black"/>
      <path d="M 419.4 -639 L 415 -625.4 L 444.6 -563 L 454.1379 -561.8396 L 463.92595 -565.67026 L 473.4 -568.4 L 427.6 -659.2 L 424 -651.8 L 422.8 -648.2 Z" stroke="gray" stroke-linecap="round" stroke-linejoin="round" stroke-width=".25"/>
      <path d="M 89.6 -573.8 L 134.6 -658.6 L 139 -647.8 L 143.4 -635.8 L 147.2 -622.2 L 116.4 -559.2 Z" fill="black"/>
      <path d="M 89.6 -573.8 L 134.6 -658.6 L 139 -647.8 L 143.4 -635.8 L 147.2 -622.2 L 116.4 -559.2 Z" stroke="gray" stroke-linecap="round" stroke-linejoin="round" stroke-width=".25"/>
      <path d="M 65.46019 -577.2286 L 71.66019 -572.8286 L 79.86019 -568.8286 L 88.46019 -565.2286 L 97.46019 -561.4286 L 108.46019 -557.4286 L 117.86019 -554.6286 L 126.86019 -552.0286 L 135.86019 -549.4286 L 141.26019 -548.0286 L 146.86019 -547.0286 L 149.86019 -553.4286 L 146.06019 -554.2286 L 141.26019 -555.4286 L 135.66019 -556.6286 L 129.66019 -558.4286 L 125.06019 -559.8286 L 120.86019 -561.0286 L 116.26019 -563.0286 L 111.66019 -564.6286 L 106.86019 -566.6286 L 102.86019 -568.0286 L 97.66019 -570.2286 L 93.06019 -571.8286 L 88.26019 -574.0286 L 83.46019 -575.8286 L 79.46019 -577.8286 L 75.06019 -580.0286 L 70.66019 -582.2286 L 67.26019 -583.8286 Z" fill="black"/>
      <path d="M 65.46019 -577.2286 L 71.66019 -572.8286 L 79.86019 -568.8286 L 88.46019 -565.2286 L 97.46019 -561.4286 L 108.46019 -557.4286 L 117.86019 -554.6286 L 126.86019 -552.0286 L 135.86019 -549.4286 L 141.26019 -548.0286 L 146.86019 -547.0286 L 149.86019 -553.4286 L 146.06019 -554.2286 L 141.26019 -555.4286 L 135.66019 -556.6286 L 129.66019 -558.4286 L 125.06019 -559.8286 L 120.86019 -561.0286 L 116.26019 -563.0286 L 111.66019 -564.6286 L 106.86019 -566.6286 L 102.86019 -568.0286 L 97.66019 -570.2286 L 93.06019 -571.8286 L 88.26019 -574.0286 L 83.46019 -575.8286 L 79.46019 -577.8286 L 75.06019 -580.0286 L 70.66019 -582.2286 L 67.26019 -583.8286 Z" stroke="#7f8080" stroke-linecap="round" stroke-linejoin="round" stroke-width="1"/>
      <path d="M 497.4053 -577.49725 L 491.2053 -573.09725 L 483.0053 -569.09725 L 474.4053 -565.49725 L 465.4053 -561.69725 L 454.4053 -557.69725 L 445.0053 -554.89725 L 436.0053 -552.29725 L 427.0053 -549.69725 L 421.6053 -548.29725 L 416.0053 -547.29725 L 413.0053 -553.69725 L 416.8053 -554.49725 L 421.6053 -555.69725 L 427.2053 -556.89725 L 433.2053 -558.69725 L 437.8053 -560.09725 L 442.0053 -561.29725 L 446.6053 -563.29725 L 451.2053 -564.89725 L 456.0053 -566.89725 L 460.0053 -568.29725 L 465.2053 -570.49725 L 469.8053 -572.09725 L 474.6053 -574.29725 L 479.4053 -576.09725 L 483.4053 -578.09725 L 487.8053 -580.29725 L 492.2053 -582.49725 L 495.6053 -584.09725 Z" fill="black"/>
      <path d="M 497.4053 -577.49725 L 491.2053 -573.09725 L 483.0053 -569.09725 L 474.4053 -565.49725 L 465.4053 -561.69725 L 454.4053 -557.69725 L 445.0053 -554.89725 L 436.0053 -552.29725 L 427.0053 -549.69725 L 421.6053 -548.29725 L 416.0053 -547.29725 L 413.0053 -553.69725 L 416.8053 -554.49725 L 421.6053 -555.69725 L 427.2053 -556.89725 L 433.2053 -558.69725 L 437.8053 -560.09725 L 442.0053 -561.29725 L 446.6053 -563.29725 L 451.2053 -564.89725 L 456.0053 -566.89725 L 460.0053 -568.29725 L 465.2053 -570.49725 L 469.8053 -572.09725 L 474.6053 -574.29725 L 479.4053 -576.09725 L 483.4053 -578.09725 L 487.8053 -580.29725 L 492.2053 -582.49725 L 495.6053 -584.09725 Z" stroke="#7f8080" stroke-linecap="round" stroke-linejoin="round" stroke-width="1"/>
    </g>
  </g>
</svg>
