<?xml version="1.0" encoding="UTF-8" standalone="no"?>
<!DOCTYPE svg PUBLIC "-//W3C//DTD SVG 1.1//EN" "http://www.w3.org/Graphics/SVG/1.1/DTD/svg11.dtd">
<svg xmlns="http://www.w3.org/2000/svg" xmlns:xl="http://www.w3.org/1999/xlink" version="1.1" xmlns:dc="http://purl.org/dc/elements/1.1/" viewBox="-8657 -264 433 449" width="433" height="449">
  <defs>
    <radialGradient cx="0" cy="0" r="1" id="Gradient" gradientUnits="userSpaceOnUse">
      <stop offset="0" stop-color="#cbcbcb"/>
      <stop offset=".4338305" stop-color="#74797e"/>
      <stop offset="1" stop-color="#010e1d"/>
    </radialGradient>
    <radialGradient id="Obj_Gradient" xl:href="#Gradient" gradientTransform="translate(-8441.241 -235.6) scale(70.26272)"/>
  </defs>
  <metadata> Produced by OmniGraffle 7.19.2\n2024-03-02 19:12:10 +0000</metadata>
  <g id="Canvas_35" stroke-dasharray="none" fill="none" fill-opacity="1" stroke="none" stroke-opacity="1">
    <title>Canvas 35</title>
    <g id="Canvas_35_Capa_1">
      <title>Capa 1</title>
      <g id="Graphic_14">
        <path d="M -8502.994 -262.40955 L -8494.829 -259.29184 C -8493.971 -258.96424 -8493.094 -258.68833 -8492.203 -258.46558 L -8478.486 -255.0363 C -8477.324 -254.74587 -8476.142 -254.54662 -8474.949 -254.44034 L -8457.423 -252.8786 C -8456.835 -252.82622 -8456.245 -252.79648 -8455.655 -252.78946 L -8440.176 -252.6052 C -8439.886 -252.60173 -8439.596 -252.60377 -8439.305 -252.6113 L -8424.882 -252.98594 C -8424.521 -252.9953 -8424.161 -253.01317 -8423.801 -253.0395 L -8409.429 -254.09107 C -8408.438 -254.1636 -8407.452 -254.30036 -8406.479 -254.50044 L -8394.906 -256.87845 C -8393.864 -257.09256 -8392.838 -257.3787 -8391.835 -257.7348 L -8380.083 -261.90986 C -8378.993 -262.29723 -8377.79 -261.76646 -8377.341 -260.7 L -8377.341 -260.7 C -8376.819 -259.4599 -8376.667 -258.09515 -8376.903 -256.77055 L -8377.084 -255.75986 C -8377.387 -254.0587 -8377.882 -252.3972 -8378.558 -250.8068 L -8380.101 -247.1757 C -8380.66 -245.86142 -8381.339 -244.60202 -8382.132 -243.41382 L -8385.817 -237.88515 C -8386.565 -236.76389 -8387.409 -235.7105 -8388.341 -234.7371 L -8394.636 -228.16226 C -8395.505 -227.2556 -8396.445 -226.42154 -8397.45 -225.6684 L -8405.824 -219.38723 C -8406.701 -218.72992 -8407.623 -218.13606 -8408.584 -217.6102 L -8415.769 -213.67867 C -8417.081 -212.96126 -8418.458 -212.37336 -8419.884 -211.9233 L -8426.557 -209.81607 C -8428.273 -209.2739 -8430.048 -208.9352 -8431.844 -208.80692 L -8438.73 -208.31503 C -8439.803 -208.23844 -8440.879 -208.23712 -8441.951 -208.31108 L -8450.388 -208.8929 C -8451.422 -208.96422 -8452.45 -209.10537 -8453.465 -209.3154 L -8460.6 -210.79165 C -8462.552 -211.1955 -8464.444 -211.85139 -8466.226 -212.74281 L -8470.886 -215.07252 C -8472.12 -215.6896 -8473.296 -216.41646 -8474.4 -217.24434 L -8480.082 -221.50581 C -8480.521 -221.83517 -8480.948 -222.18013 -8481.363 -222.54005 L -8487.118 -227.53797 C -8487.932 -228.24511 -8488.696 -229.00865 -8489.403 -229.82294 L -8493.808 -234.89562 C -8494.562 -235.76398 -8495.25 -236.68768 -8495.866 -237.65895 L -8499.6 -243.5467 C -8499.96 -244.1153 -8500.296 -244.69944 -8500.605 -245.29745 L -8502.225 -248.43017 C -8502.834 -249.60785 -8503.341 -250.836 -8503.738 -252.1009 L -8505.018 -256.17438 C -8505.233 -256.85775 -8505.416 -257.5508 -8505.566 -258.25122 L -8505.641 -258.6 C -8505.835 -259.50843 -8505.728 -260.45557 -8505.335 -261.29746 L -8505.241 -261.5 C -8504.846 -262.3453 -8503.866 -262.7423 -8502.994 -262.40955 Z" fill="url(#Obj_Gradient)"/>
        <path d="M -8502.994 -262.40955 L -8494.829 -259.29184 C -8493.971 -258.96424 -8493.094 -258.68833 -8492.203 -258.46558 L -8478.486 -255.0363 C -8477.324 -254.74587 -8476.142 -254.54662 -8474.949 -254.44034 L -8457.423 -252.8786 C -8456.835 -252.82622 -8456.245 -252.79648 -8455.655 -252.78946 L -8440.176 -252.6052 C -8439.886 -252.60173 -8439.596 -252.60377 -8439.305 -252.6113 L -8424.882 -252.98594 C -8424.521 -252.9953 -8424.161 -253.01317 -8423.801 -253.0395 L -8409.429 -254.09107 C -8408.438 -254.1636 -8407.452 -254.30036 -8406.479 -254.50044 L -8394.906 -256.87845 C -8393.864 -257.09256 -8392.838 -257.3787 -8391.835 -257.7348 L -8380.083 -261.90986 C -8378.993 -262.29723 -8377.79 -261.76646 -8377.341 -260.7 L -8377.341 -260.7 C -8376.819 -259.4599 -8376.667 -258.09515 -8376.903 -256.77055 L -8377.084 -255.75986 C -8377.387 -254.0587 -8377.882 -252.3972 -8378.558 -250.8068 L -8380.101 -247.1757 C -8380.66 -245.86142 -8381.339 -244.60202 -8382.132 -243.41382 L -8385.817 -237.88515 C -8386.565 -236.76389 -8387.409 -235.7105 -8388.341 -234.7371 L -8394.636 -228.16226 C -8395.505 -227.2556 -8396.445 -226.42154 -8397.45 -225.6684 L -8405.824 -219.38723 C -8406.701 -218.72992 -8407.623 -218.13606 -8408.584 -217.6102 L -8415.769 -213.67867 C -8417.081 -212.96126 -8418.458 -212.37336 -8419.884 -211.9233 L -8426.557 -209.81607 C -8428.273 -209.2739 -8430.048 -208.9352 -8431.844 -208.80692 L -8438.73 -208.31503 C -8439.803 -208.23844 -8440.879 -208.23712 -8441.951 -208.31108 L -8450.388 -208.8929 C -8451.422 -208.96422 -8452.45 -209.10537 -8453.465 -209.3154 L -8460.6 -210.79165 C -8462.552 -211.1955 -8464.444 -211.85139 -8466.226 -212.74281 L -8470.886 -215.07252 C -8472.12 -215.6896 -8473.296 -216.41646 -8474.4 -217.24434 L -8480.082 -221.50581 C -8480.521 -221.83517 -8480.948 -222.18013 -8481.363 -222.54005 L -8487.118 -227.53797 C -8487.932 -228.24511 -8488.696 -229.00865 -8489.403 -229.82294 L -8493.808 -234.89562 C -8494.562 -235.76398 -8495.25 -236.68768 -8495.866 -237.65895 L -8499.6 -243.5467 C -8499.96 -244.1153 -8500.296 -244.69944 -8500.605 -245.29745 L -8502.225 -248.43017 C -8502.834 -249.60785 -8503.341 -250.836 -8503.738 -252.1009 L -8505.018 -256.17438 C -8505.233 -256.85775 -8505.416 -257.5508 -8505.566 -258.25122 L -8505.641 -258.6 C -8505.835 -259.50843 -8505.728 -260.45557 -8505.335 -261.29746 L -8505.241 -261.5 C -8504.846 -262.3453 -8503.866 -262.7423 -8502.994 -262.40955 Z" stroke="#7f8080" stroke-linecap="round" stroke-linejoin="round" stroke-width="1"/>
      </g>
      <g id="Graphic_13">
        <path d="M -8567.027 174.26379 L -8553.284 176.55416 C -8553.101 176.58472 -8552.917 176.61209 -8552.733 176.63624 L -8524.379 180.35154 C -8524.133 180.38385 -8523.885 180.4104 -8523.638 180.43118 L -8493.395 182.96768 C -8493.138 182.98923 -8492.88 183.00456 -8492.623 183.01367 L -8453.692 184.39002 C -8453.503 184.39668 -8453.315 184.4 -8453.126 184.4 L -8421.659 184.4 C -8421.493 184.4 -8421.326 184.3974 -8421.159 184.3922 L -8396.125 183.60986 C -8395.914 183.6033 -8395.704 183.59258 -8395.494 183.57772 L -8373.447 182.01682 C -8373.288 182.00561 -8373.13 181.99205 -8372.972 181.97614 L -8347.712 179.4305 C -8347.51 179.41017 -8347.309 179.38601 -8347.108 179.35803 L -8323.315 176.04265 C -8323.111 176.01422 -8322.908 175.98186 -8322.705 175.94558 L -8313.509 174.3 C -8308.182 173.34674 -8304.531 168.39309 -8305.198 163.02255 L -8307.405 145.23198 C -8307.408 145.21066 -8307.41 145.18934 -8307.413 145.16801 L -8310.977 115.46949 C -8310.998 115.28985 -8311.017 115.10985 -8311.032 114.92958 L -8313.395 87.37037 C -8313.404 87.2568 -8313.413 87.14312 -8313.42 87.02936 L -8314.807 65.43772 C -8314.808 65.41258 -8314.81 65.38744 -8314.812 65.3623 L -8316.404 42.275987 C -8316.407 42.22533 -8316.411 42.17466 -8316.414 42.123976 L -8317.59 22.321808 C -8317.603 22.107294 -8317.611 21.892545 -8317.615 21.677692 L -8318.008 1.0828534 C -8318.009 1.0276208 -8318.01 .972394 -8318.012 .9171752 L -8318.607 -19.317168 C -8318.608 -19.372386 -8318.61 -19.427613 -8318.611 -19.482846 L -8319.001 -39.992387 C -8319.007 -40.264083 -8319.005 -40.535866 -8318.996 -40.807472 L -8318.41 -59.16708 C -8318.41 -59.189025 -8318.409 -59.21097 -8318.408 -59.23291 L -8317.62 -81.10221 C -8317.613 -81.30072 -8317.602 -81.49907 -8317.587 -81.69717 L -8316.03 -102.91779 C -8316.016 -103.10591 -8316.006 -103.29427 -8315.998 -103.48276 L -8315.244 -123.38163 C -8315.221 -123.99337 -8315.163 -124.60328 -8315.069 -125.20835 L -8312.33 -143.01187 C -8312.25 -143.53696 -8312.143 -144.05771 -8312.01 -144.57217 L -8307.382 -162.52983 C -8307.267 -162.9764 -8307.132 -163.41779 -8306.979 -163.85275 L -8301.258 -180.0924 C -8301.092 -180.56387 -8300.904 -181.0273 -8300.695 -181.48117 L -8295.163 -193.46621 C -8295.061 -193.6887 -8294.953 -193.90881 -8294.84 -194.12636 L -8289.478 -204.46778 C -8289.432 -204.55593 -8289.386 -204.64364 -8289.338 -204.73092 L -8284.122 -214.34788 C -8283.385 -215.70724 -8282.435 -216.94013 -8281.309 -218 L -8281.309 -218 C -8280.634 -218.63547 -8280.602 -219.69797 -8281.237 -220.37316 C -8281.362 -220.50544 -8281.507 -220.61663 -8281.667 -220.7024 L -8284.881 -222.42427 C -8285.1 -222.5414 -8285.321 -222.65344 -8285.545 -222.7603 L -8293.399 -226.50878 C -8293.806 -226.70284 -8294.22 -226.87964 -8294.642 -227.0387 L -8304.317 -230.6896 C -8304.512 -230.7632 -8304.708 -230.83297 -8304.906 -230.8989 L -8317.6 -235.13038 C -8317.74 -235.1768 -8317.879 -235.22128 -8318.02 -235.26384 L -8330.903 -239.16794 C -8330.974 -239.1893 -8331.044 -239.21117 -8331.115 -239.23352 L -8343.619 -243.21206 C -8344.012 -243.3373 -8344.401 -243.47775 -8344.784 -243.63307 L -8356.76 -248.49287 C -8357.591 -248.83036 -8358.393 -249.23723 -8359.156 -249.70917 L -8368.776 -255.6556 C -8368.931 -255.75186 -8369.085 -255.85078 -8369.238 -255.95232 L -8374.128 -259.21238 C -8375.109 -259.86665 -8375.981 -260.67255 -8376.709 -261.6 L -8376.709 -261.6 C -8376.815 -261.7344 -8377.009 -261.75775 -8377.144 -261.65215 C -8377.247 -261.57142 -8377.288 -261.43487 -8377.246 -261.31092 L -8377.109 -260.9 C -8376.65 -259.52225 -8376.545 -258.05096 -8376.805 -256.6221 L -8377.2 -254.44885 C -8377.472 -252.9572 -8377.953 -251.51165 -8378.631 -250.1556 L -8380.164 -247.09096 C -8380.46 -246.49756 -8380.794 -245.9232 -8381.162 -245.37117 L -8384.365 -240.56562 C -8384.794 -239.92272 -8385.269 -239.3117 -8385.786 -238.73739 L -8390.348 -233.66844 C -8390.389 -233.62281 -8390.43 -233.57742 -8390.472 -233.53227 L -8396.466 -227.02424 C -8397.094 -226.3427 -8397.779 -225.71698 -8398.515 -225.15413 L -8403.54 -221.3121 C -8403.986 -220.97094 -8404.449 -220.6535 -8404.929 -220.3611 L -8411.415 -216.40597 C -8412.077 -216.00252 -8412.767 -215.64768 -8413.48 -215.34424 L -8420.596 -212.3164 C -8421.403 -211.97272 -8422.238 -211.69607 -8423.091 -211.48928 L -8427.17 -210.50041 C -8427.995 -210.30045 -8428.834 -210.16644 -8429.68 -210.09965 L -8435.381 -209.64963 C -8435.8 -209.61656 -8436.22 -209.6 -8436.64 -209.6 L -8443.672 -209.6 C -8444.429 -209.6 -8445.185 -209.65374 -8445.935 -209.7608 L -8453.881 -210.89601 C -8454.366 -210.9653 -8454.848 -211.05683 -8455.325 -211.1703 L -8461.286 -212.58965 C -8462.431 -212.86238 -8463.543 -213.26073 -8464.601 -213.77747 L -8470.881 -216.84444 C -8471.366 -217.08133 -8471.839 -217.3426 -8472.298 -217.62728 L -8476.509 -220.24154 C -8477.109 -220.61344 -8477.683 -221.02454 -8478.228 -221.47216 L -8482.674 -225.12432 C -8482.897 -225.30807 -8483.116 -225.49786 -8483.329 -225.69348 L -8487.132 -229.17896 C -8487.583 -229.59264 -8488.01 -230.0319 -8488.411 -230.49454 L -8492.53 -235.24693 C -8492.849 -235.61545 -8493.152 -235.99838 -8493.436 -236.39451 L -8497.866 -242.5644 C -8498.361 -243.2537 -8498.8 -243.9813 -8499.179 -244.74028 L -8501.756 -249.8932 C -8501.791 -249.9644 -8501.826 -250.03586 -8501.861 -250.10758 L -8503.109 -252.7 C -8503.96 -254.46687 -8504.315 -256.4314 -8504.138 -258.38436 L -8503.958 -260.3666 C -8503.934 -260.62848 -8504.127 -260.86006 -8504.389 -260.88386 C -8504.551 -260.89862 -8504.71 -260.82925 -8504.809 -260.7 L -8504.809 -260.7 C -8505.473 -259.83752 -8506.253 -259.07144 -8507.127 -258.42375 L -8511.024 -255.53743 C -8511.147 -255.44582 -8511.272 -255.356 -8511.399 -255.26798 L -8516.021 -252.0464 C -8517.208 -251.2193 -8518.501 -250.55692 -8519.866 -250.07742 L -8524.473 -248.4587 C -8524.963 -248.28633 -8525.445 -248.09016 -8525.917 -247.87087 L -8532.764 -244.68632 C -8533.46 -244.36253 -8534.178 -244.08926 -8534.914 -243.86864 L -8545.784 -240.60752 C -8545.801 -240.6025 -8545.818 -240.59746 -8545.834 -240.5924 L -8556.802 -237.2628 C -8556.94 -237.22093 -8557.078 -237.1772 -8557.214 -237.13164 L -8570.136 -232.82456 C -8570.185 -232.8082 -8570.234 -232.79205 -8570.283 -232.77616 L -8581.651 -229.10925 C -8582.289 -228.9033 -8582.914 -228.65737 -8583.522 -228.37296 L -8591.454 -224.66012 C -8591.824 -224.48677 -8592.187 -224.29929 -8592.543 -224.09808 L -8598.49 -220.73724 C -8599.743 -220.029 -8600.184 -218.43907 -8599.476 -217.18604 C -8599.399 -217.0496 -8599.31 -216.9204 -8599.209 -216.8 L -8598.345 -215.76307 C -8597.59 -214.85713 -8596.938 -213.8705 -8596.4 -212.82118 L -8593.322 -206.82076 C -8593.247 -206.6736 -8593.169 -206.5276 -8593.089 -206.38285 L -8589.134 -199.22663 C -8589.051 -199.07555 -8588.97 -198.92313 -8588.891 -198.76943 L -8584.783 -190.73144 C -8584.534 -190.24413 -8584.31 -189.74437 -8584.112 -189.23411 L -8580.629 -180.25224 C -8580.616 -180.21741 -8580.602 -180.18263 -8580.589 -180.1479 L -8576.992 -171.06246 C -8576.87 -170.75423 -8576.758 -170.44228 -8576.655 -170.12706 L -8574.033 -162.07428 C -8574.017 -162.02476 -8574.001 -161.97516 -8573.986 -161.92548 L -8570.914 -152.16721 C -8570.711 -151.52305 -8570.549 -150.8667 -8570.429 -150.20208 L -8568.444 -139.19263 C -8568.421 -139.06421 -8568.399 -138.93552 -8568.379 -138.80658 L -8566.673 -127.8132 C -8566.631 -127.53778 -8566.595 -127.26129 -8566.567 -126.98402 L -8565.679 -118.2873 C -8565.633 -117.82931 -8565.606 -117.36952 -8565.599 -116.90921 L -8565.414 -104.93359 C -8565.411 -104.71122 -8565.403 -104.48895 -8565.39 -104.26691 L -8564.62 -90.78535 C -8564.613 -90.66179 -8564.604 -90.53831 -8564.594 -90.41494 L -8563.261 -73.84057 C -8563.226 -73.41369 -8563.209 -72.98561 -8563.209 -72.55736 L -8563.209 -60.107576 C -8563.209 -59.90254 -8563.205 -59.69753 -8563.197 -59.492646 L -8562.617 -44.40351 C -8562.612 -44.26784 -8562.608 -44.13211 -8562.607 -43.99635 L -8562.414 -29.200097 C -8562.411 -28.933405 -8562.414 -28.666668 -8562.424 -28.400136 L -8562.998 -12.895988 C -8563.006 -12.698677 -8563.009 -12.501248 -8563.009 -12.303802 L -8563.009 1.2924253 C -8563.009 1.4974588 -8563.013 1.7024733 -8563.021 1.9073553 L -8563.606 17.122358 C -8563.608 17.174122 -8563.61 17.225876 -8563.613 17.277618 L -8564.408 33.780553 C -8564.409 33.79352 -8564.41 33.806487 -8564.41 33.819453 L -8565.205 49.51062 C -8565.208 49.57021 -8565.211 49.62978 -8565.215 49.68933 L -8566.404 68.91007 C -8566.407 68.970025 -8566.411 69.02996 -8566.416 69.089874 L -8568.199 93.45942 C -8568.206 93.55314 -8568.213 93.6468 -8568.222 93.74038 L -8570.008 113.3852 C -8570.009 113.39507 -8570.01 113.40494 -8570.011 113.41481 L -8571.781 132.49972 C -8571.8 132.69989 -8571.822 132.8997 -8571.848 133.09903 L -8573.809 148.07175 C -8573.942 149.08594 -8574.211 150.07756 -8574.609 151.01973 L -8574.609 151.01973 C -8575.007 151.96048 -8575.255 152.9574 -8575.346 153.97465 L -8576.109 162.51973 C -8576.617 168.20676 -8572.659 173.32512 -8567.027 174.26379 Z" fill="#000057"/>
        <path d="M -8567.027 174.26379 L -8553.284 176.55416 C -8553.101 176.58472 -8552.917 176.61209 -8552.733 176.63624 L -8524.379 180.35154 C -8524.133 180.38385 -8523.885 180.4104 -8523.638 180.43118 L -8493.395 182.96768 C -8493.138 182.98923 -8492.88 183.00456 -8492.623 183.01367 L -8453.692 184.39002 C -8453.503 184.39668 -8453.315 184.4 -8453.126 184.4 L -8421.659 184.4 C -8421.493 184.4 -8421.326 184.3974 -8421.159 184.3922 L -8396.125 183.60986 C -8395.914 183.6033 -8395.704 183.59258 -8395.494 183.57772 L -8373.447 182.01682 C -8373.288 182.00561 -8373.13 181.99205 -8372.972 181.97614 L -8347.712 179.4305 C -8347.51 179.41017 -8347.309 179.38601 -8347.108 179.35803 L -8323.315 176.04265 C -8323.111 176.01422 -8322.908 175.98186 -8322.705 175.94558 L -8313.509 174.3 C -8308.182 173.34674 -8304.531 168.39309 -8305.198 163.02255 L -8307.405 145.23198 C -8307.408 145.21066 -8307.41 145.18934 -8307.413 145.16801 L -8310.977 115.46949 C -8310.998 115.28985 -8311.017 115.10985 -8311.032 114.92958 L -8313.395 87.37037 C -8313.404 87.2568 -8313.413 87.14312 -8313.42 87.02936 L -8314.807 65.43772 C -8314.808 65.41258 -8314.81 65.38744 -8314.812 65.3623 L -8316.404 42.275987 C -8316.407 42.22533 -8316.411 42.17466 -8316.414 42.123976 L -8317.59 22.321808 C -8317.603 22.107294 -8317.611 21.892545 -8317.615 21.677692 L -8318.008 1.0828534 C -8318.009 1.0276208 -8318.01 .972394 -8318.012 .9171752 L -8318.607 -19.317168 C -8318.608 -19.372386 -8318.61 -19.427613 -8318.611 -19.482846 L -8319.001 -39.992387 C -8319.007 -40.264083 -8319.005 -40.535866 -8318.996 -40.807472 L -8318.41 -59.16708 C -8318.41 -59.189025 -8318.409 -59.21097 -8318.408 -59.23291 L -8317.62 -81.10221 C -8317.613 -81.30072 -8317.602 -81.49907 -8317.587 -81.69717 L -8316.03 -102.91779 C -8316.016 -103.10591 -8316.006 -103.29427 -8315.998 -103.48276 L -8315.244 -123.38163 C -8315.221 -123.99337 -8315.163 -124.60328 -8315.069 -125.20835 L -8312.33 -143.01187 C -8312.25 -143.53696 -8312.143 -144.05771 -8312.01 -144.57217 L -8307.382 -162.52983 C -8307.267 -162.9764 -8307.132 -163.41779 -8306.979 -163.85275 L -8301.258 -180.0924 C -8301.092 -180.56387 -8300.904 -181.0273 -8300.695 -181.48117 L -8295.163 -193.46621 C -8295.061 -193.6887 -8294.953 -193.90881 -8294.84 -194.12636 L -8289.478 -204.46778 C -8289.432 -204.55593 -8289.386 -204.64364 -8289.338 -204.73092 L -8284.122 -214.34788 C -8283.385 -215.70724 -8282.435 -216.94013 -8281.309 -218 L -8281.309 -218 C -8280.634 -218.63547 -8280.602 -219.69797 -8281.237 -220.37316 C -8281.362 -220.50544 -8281.507 -220.61663 -8281.667 -220.7024 L -8284.881 -222.42427 C -8285.1 -222.5414 -8285.321 -222.65344 -8285.545 -222.7603 L -8293.399 -226.50878 C -8293.806 -226.70284 -8294.22 -226.87964 -8294.642 -227.0387 L -8304.317 -230.6896 C -8304.512 -230.7632 -8304.708 -230.83297 -8304.906 -230.8989 L -8317.6 -235.13038 C -8317.74 -235.1768 -8317.879 -235.22128 -8318.02 -235.26384 L -8330.903 -239.16794 C -8330.974 -239.1893 -8331.044 -239.21117 -8331.115 -239.23352 L -8343.619 -243.21206 C -8344.012 -243.3373 -8344.401 -243.47775 -8344.784 -243.63307 L -8356.76 -248.49287 C -8357.591 -248.83036 -8358.393 -249.23723 -8359.156 -249.70917 L -8368.776 -255.6556 C -8368.931 -255.75186 -8369.085 -255.85078 -8369.238 -255.95232 L -8374.128 -259.21238 C -8375.109 -259.86665 -8375.981 -260.67255 -8376.709 -261.6 L -8376.709 -261.6 C -8376.815 -261.7344 -8377.009 -261.75775 -8377.144 -261.65215 C -8377.247 -261.57142 -8377.288 -261.43487 -8377.246 -261.31092 L -8377.109 -260.9 C -8376.65 -259.52225 -8376.545 -258.05096 -8376.805 -256.6221 L -8377.2 -254.44885 C -8377.472 -252.9572 -8377.953 -251.51165 -8378.631 -250.1556 L -8380.164 -247.09096 C -8380.46 -246.49756 -8380.794 -245.9232 -8381.162 -245.37117 L -8384.365 -240.56562 C -8384.794 -239.92272 -8385.269 -239.3117 -8385.786 -238.73739 L -8390.348 -233.66844 C -8390.389 -233.62281 -8390.43 -233.57742 -8390.472 -233.53227 L -8396.466 -227.02424 C -8397.094 -226.3427 -8397.779 -225.71698 -8398.515 -225.15413 L -8403.54 -221.3121 C -8403.986 -220.97094 -8404.449 -220.6535 -8404.929 -220.3611 L -8411.415 -216.40597 C -8412.077 -216.00252 -8412.767 -215.64768 -8413.48 -215.34424 L -8420.596 -212.3164 C -8421.403 -211.97272 -8422.238 -211.69607 -8423.091 -211.48928 L -8427.17 -210.50041 C -8427.995 -210.30045 -8428.834 -210.16644 -8429.68 -210.09965 L -8435.381 -209.64963 C -8435.8 -209.61656 -8436.22 -209.6 -8436.64 -209.6 L -8443.672 -209.6 C -8444.429 -209.6 -8445.185 -209.65374 -8445.935 -209.7608 L -8453.881 -210.89601 C -8454.366 -210.9653 -8454.848 -211.05683 -8455.325 -211.1703 L -8461.286 -212.58965 C -8462.431 -212.86238 -8463.543 -213.26073 -8464.601 -213.77747 L -8470.881 -216.84444 C -8471.366 -217.08133 -8471.839 -217.3426 -8472.298 -217.62728 L -8476.509 -220.24154 C -8477.109 -220.61344 -8477.683 -221.02454 -8478.228 -221.47216 L -8482.674 -225.12432 C -8482.897 -225.30807 -8483.116 -225.49786 -8483.329 -225.69348 L -8487.132 -229.17896 C -8487.583 -229.59264 -8488.01 -230.0319 -8488.411 -230.49454 L -8492.53 -235.24693 C -8492.849 -235.61545 -8493.152 -235.99838 -8493.436 -236.39451 L -8497.866 -242.5644 C -8498.361 -243.2537 -8498.8 -243.9813 -8499.179 -244.74028 L -8501.756 -249.8932 C -8501.791 -249.9644 -8501.826 -250.03586 -8501.861 -250.10758 L -8503.109 -252.7 C -8503.96 -254.46687 -8504.315 -256.4314 -8504.138 -258.38436 L -8503.958 -260.3666 C -8503.934 -260.62848 -8504.127 -260.86006 -8504.389 -260.88386 C -8504.551 -260.89862 -8504.71 -260.82925 -8504.809 -260.7 L -8504.809 -260.7 C -8505.473 -259.83752 -8506.253 -259.07144 -8507.127 -258.42375 L -8511.024 -255.53743 C -8511.147 -255.44582 -8511.272 -255.356 -8511.399 -255.26798 L -8516.021 -252.0464 C -8517.208 -251.2193 -8518.501 -250.55692 -8519.866 -250.07742 L -8524.473 -248.4587 C -8524.963 -248.28633 -8525.445 -248.09016 -8525.917 -247.87087 L -8532.764 -244.68632 C -8533.46 -244.36253 -8534.178 -244.08926 -8534.914 -243.86864 L -8545.784 -240.60752 C -8545.801 -240.6025 -8545.818 -240.59746 -8545.834 -240.5924 L -8556.802 -237.2628 C -8556.94 -237.22093 -8557.078 -237.1772 -8557.214 -237.13164 L -8570.136 -232.82456 C -8570.185 -232.8082 -8570.234 -232.79205 -8570.283 -232.77616 L -8581.651 -229.10925 C -8582.289 -228.9033 -8582.914 -228.65737 -8583.522 -228.37296 L -8591.454 -224.66012 C -8591.824 -224.48677 -8592.187 -224.29929 -8592.543 -224.09808 L -8598.49 -220.73724 C -8599.743 -220.029 -8600.184 -218.43907 -8599.476 -217.18604 C -8599.399 -217.0496 -8599.31 -216.9204 -8599.209 -216.8 L -8598.345 -215.76307 C -8597.59 -214.85713 -8596.938 -213.8705 -8596.4 -212.82118 L -8593.322 -206.82076 C -8593.247 -206.6736 -8593.169 -206.5276 -8593.089 -206.38285 L -8589.134 -199.22663 C -8589.051 -199.07555 -8588.97 -198.92313 -8588.891 -198.76943 L -8584.783 -190.73144 C -8584.534 -190.24413 -8584.31 -189.74437 -8584.112 -189.23411 L -8580.629 -180.25224 C -8580.616 -180.21741 -8580.602 -180.18263 -8580.589 -180.1479 L -8576.992 -171.06246 C -8576.87 -170.75423 -8576.758 -170.44228 -8576.655 -170.12706 L -8574.033 -162.07428 C -8574.017 -162.02476 -8574.001 -161.97516 -8573.986 -161.92548 L -8570.914 -152.16721 C -8570.711 -151.52305 -8570.549 -150.8667 -8570.429 -150.20208 L -8568.444 -139.19263 C -8568.421 -139.06421 -8568.399 -138.93552 -8568.379 -138.80658 L -8566.673 -127.8132 C -8566.631 -127.53778 -8566.595 -127.26129 -8566.567 -126.98402 L -8565.679 -118.2873 C -8565.633 -117.82931 -8565.606 -117.36952 -8565.599 -116.90921 L -8565.414 -104.93359 C -8565.411 -104.71122 -8565.403 -104.48895 -8565.39 -104.26691 L -8564.62 -90.78535 C -8564.613 -90.66179 -8564.604 -90.53831 -8564.594 -90.41494 L -8563.261 -73.84057 C -8563.226 -73.41369 -8563.209 -72.98561 -8563.209 -72.55736 L -8563.209 -60.107576 C -8563.209 -59.90254 -8563.205 -59.69753 -8563.197 -59.492646 L -8562.617 -44.40351 C -8562.612 -44.26784 -8562.608 -44.13211 -8562.607 -43.99635 L -8562.414 -29.200097 C -8562.411 -28.933405 -8562.414 -28.666668 -8562.424 -28.400136 L -8562.998 -12.895988 C -8563.006 -12.698677 -8563.009 -12.501248 -8563.009 -12.303802 L -8563.009 1.2924253 C -8563.009 1.4974588 -8563.013 1.7024733 -8563.021 1.9073553 L -8563.606 17.122358 C -8563.608 17.174122 -8563.61 17.225876 -8563.613 17.277618 L -8564.408 33.780553 C -8564.409 33.79352 -8564.41 33.806487 -8564.41 33.819453 L -8565.205 49.51062 C -8565.208 49.57021 -8565.211 49.62978 -8565.215 49.68933 L -8566.404 68.91007 C -8566.407 68.970025 -8566.411 69.02996 -8566.416 69.089874 L -8568.199 93.45942 C -8568.206 93.55314 -8568.213 93.6468 -8568.222 93.74038 L -8570.008 113.3852 C -8570.009 113.39507 -8570.01 113.40494 -8570.011 113.41481 L -8571.781 132.49972 C -8571.8 132.69989 -8571.822 132.8997 -8571.848 133.09903 L -8573.809 148.07175 C -8573.942 149.08594 -8574.211 150.07756 -8574.609 151.01973 L -8574.609 151.01973 C -8575.007 151.96048 -8575.255 152.9574 -8575.346 153.97465 L -8576.109 162.51973 C -8576.617 168.20676 -8572.659 173.32512 -8567.027 174.26379 Z" stroke="#7f8080" stroke-linecap="round" stroke-linejoin="round" stroke-width="1"/>
      </g>
      <g id="Graphic_12">
        <path d="M -8656 -111.55385 L -8649.8 -107.15385 L -8641.6 -103.15385 L -8633 -99.55385 L -8624 -95.75385 L -8613 -91.75385 L -8603.6 -88.95385 L -8594.6 -86.35385 L -8585.6 -83.75385 L -8580.2 -82.35385 L -8574.6 -81.35385 L -8572.2 -87.15385 L -8569.6 -92.55385 L -8567.4 -96.55385 L -8564.8 -99.95385 L -8564.6 -108.95385 L -8565.2 -119.95385 L -8567 -130.75385 L -8568.6 -141.15385 L -8571.2 -152.15386 L -8573.6 -161.75386 L -8576.4 -169.75386 L -8579.6 -179.15386 L -8582.4 -186.55386 L -8586 -194.15386 L -8590 -201.75386 L -8594 -209.15386 L -8596.6 -212.75386 L -8600.2 -218.55386 L -8605.6 -214.15386 L -8610.4 -209.35386 L -8615 -203.15386 L -8619.4 -196.95386 L -8624.2 -188.35386 L -8629 -178.95386 L -8633.8 -169.75386 L -8637.4 -161.15386 L -8641.4 -152.15386 L -8644.6 -143.95385 L -8648.4 -134.55385 L -8651.2 -126.55385 L -8654.2 -118.15385 Z" fill="#000057"/>
        <path d="M -8656 -111.55385 L -8649.8 -107.15385 L -8641.6 -103.15385 L -8633 -99.55385 L -8624 -95.75385 L -8613 -91.75385 L -8603.6 -88.95385 L -8594.6 -86.35385 L -8585.6 -83.75385 L -8580.2 -82.35385 L -8574.6 -81.35385 L -8572.2 -87.15385 L -8569.6 -92.55385 L -8567.4 -96.55385 L -8564.8 -99.95385 L -8564.6 -108.95385 L -8565.2 -119.95385 L -8567 -130.75385 L -8568.6 -141.15385 L -8571.2 -152.15386 L -8573.6 -161.75386 L -8576.4 -169.75386 L -8579.6 -179.15386 L -8582.4 -186.55386 L -8586 -194.15386 L -8590 -201.75386 L -8594 -209.15386 L -8596.6 -212.75386 L -8600.2 -218.55386 L -8605.6 -214.15386 L -8610.4 -209.35386 L -8615 -203.15386 L -8619.4 -196.95386 L -8624.2 -188.35386 L -8629 -178.95386 L -8633.8 -169.75386 L -8637.4 -161.15386 L -8641.4 -152.15386 L -8644.6 -143.95385 L -8648.4 -134.55385 L -8651.2 -126.55385 L -8654.2 -118.15385 Z" stroke="#7f8080" stroke-linecap="round" stroke-linejoin="round" stroke-width="1"/>
      </g>
      <g id="Graphic_11">
        <path d="M -8224.595 -112.49725 L -8230.795 -108.09725 L -8238.995 -104.09725 L -8247.595 -100.49725 L -8256.595 -96.69725 L -8267.595 -92.69725 L -8276.995 -89.89725 L -8285.995 -87.29725 L -8294.995 -84.69725 L -8300.395 -83.29725 L -8305.995 -82.29725 L -8308.395 -88.09725 L -8310.995 -93.49725 L -8313.195 -97.49725 L -8315.795 -100.89725 L -8315.995 -109.89725 L -8315.395 -120.89725 L -8313.595 -131.69725 L -8311.995 -142.09725 L -8309.395 -153.09725 L -8306.995 -162.69725 L -8304.195 -170.69725 L -8300.995 -180.09725 L -8298.195 -187.49725 L -8294.595 -195.09725 L -8290.595 -202.69725 L -8286.595 -210.09725 L -8283.995 -213.69725 L -8280.395 -219.49725 L -8274.995 -215.09725 L -8270.195 -210.29725 L -8265.595 -204.09725 L -8261.195 -197.89725 L -8256.395 -189.29725 L -8251.595 -179.89725 L -8246.795 -170.69725 L -8243.195 -162.09725 L -8239.195 -153.09725 L -8235.995 -144.89725 L -8232.195 -135.49725 L -8229.395 -127.49725 L -8226.395 -119.09725 Z" fill="#000057"/>
        <path d="M -8224.595 -112.49725 L -8230.795 -108.09725 L -8238.995 -104.09725 L -8247.595 -100.49725 L -8256.595 -96.69725 L -8267.595 -92.69725 L -8276.995 -89.89725 L -8285.995 -87.29725 L -8294.995 -84.69725 L -8300.395 -83.29725 L -8305.995 -82.29725 L -8308.395 -88.09725 L -8310.995 -93.49725 L -8313.195 -97.49725 L -8315.795 -100.89725 L -8315.995 -109.89725 L -8315.395 -120.89725 L -8313.595 -131.69725 L -8311.995 -142.09725 L -8309.395 -153.09725 L -8306.995 -162.69725 L -8304.195 -170.69725 L -8300.995 -180.09725 L -8298.195 -187.49725 L -8294.595 -195.09725 L -8290.595 -202.69725 L -8286.595 -210.09725 L -8283.995 -213.69725 L -8280.395 -219.49725 L -8274.995 -215.09725 L -8270.195 -210.29725 L -8265.595 -204.09725 L -8261.195 -197.89725 L -8256.395 -189.29725 L -8251.595 -179.89725 L -8246.795 -170.69725 L -8243.195 -162.09725 L -8239.195 -153.09725 L -8235.995 -144.89725 L -8232.195 -135.49725 L -8229.395 -127.49725 L -8226.395 -119.09725 Z" stroke="#7f8080" stroke-linecap="round" stroke-linejoin="round" stroke-width="1"/>
      </g>
      <g id="Graphic_10">
        <path d="M -8656 -111.55385 L -8649.8 -107.15385 L -8641.6 -103.15385 L -8633 -99.55385 L -8624 -95.75385 L -8613 -91.75385 L -8603.6 -88.95385 L -8594.6 -86.35385 L -8585.6 -83.75385 L -8580.2 -82.35385 L -8574.6 -81.35385 L -8571.6 -87.75385 L -8575.4 -88.55385 L -8580.2 -89.75385 L -8585.8 -90.95385 L -8591.8 -92.75385 L -8596.4 -94.15385 L -8600.6 -95.35385 L -8605.2 -97.35385 L -8609.8 -98.95385 L -8614.6 -100.95385 L -8618.6 -102.35385 L -8623.8 -104.55385 L -8628.4 -106.15385 L -8633.2 -108.35385 L -8638 -110.15385 L -8642 -112.15385 L -8646.4 -114.35385 L -8650.8 -116.55385 L -8654.2 -118.15385 Z" fill="black"/>
        <path d="M -8656 -111.55385 L -8649.8 -107.15385 L -8641.6 -103.15385 L -8633 -99.55385 L -8624 -95.75385 L -8613 -91.75385 L -8603.6 -88.95385 L -8594.6 -86.35385 L -8585.6 -83.75385 L -8580.2 -82.35385 L -8574.6 -81.35385 L -8571.6 -87.75385 L -8575.4 -88.55385 L -8580.2 -89.75385 L -8585.8 -90.95385 L -8591.8 -92.75385 L -8596.4 -94.15385 L -8600.6 -95.35385 L -8605.2 -97.35385 L -8609.8 -98.95385 L -8614.6 -100.95385 L -8618.6 -102.35385 L -8623.8 -104.55385 L -8628.4 -106.15385 L -8633.2 -108.35385 L -8638 -110.15385 L -8642 -112.15385 L -8646.4 -114.35385 L -8650.8 -116.55385 L -8654.2 -118.15385 Z" stroke="#7f8080" stroke-linecap="round" stroke-linejoin="round" stroke-width="1"/>
      </g>
      <g id="Graphic_9">
        <path d="M -8224.595 -112.49725 L -8230.795 -108.09725 L -8238.995 -104.09725 L -8247.595 -100.49725 L -8256.595 -96.69725 L -8267.595 -92.69725 L -8276.995 -89.89725 L -8285.995 -87.29725 L -8294.995 -84.69725 L -8300.395 -83.29725 L -8305.995 -82.29725 L -8308.995 -88.69725 L -8305.195 -89.49725 L -8300.395 -90.69725 L -8294.795 -91.89725 L -8288.795 -93.69725 L -8284.195 -95.09725 L -8279.995 -96.29725 L -8275.395 -98.29725 L -8270.795 -99.89725 L -8265.995 -101.89725 L -8261.995 -103.29725 L -8256.795 -105.49725 L -8252.195 -107.09725 L -8247.395 -109.29725 L -8242.595 -111.09725 L -8238.595 -113.09725 L -8234.195 -115.29725 L -8229.795 -117.49725 L -8226.395 -119.09725 Z" fill="black"/>
        <path d="M -8224.595 -112.49725 L -8230.795 -108.09725 L -8238.995 -104.09725 L -8247.595 -100.49725 L -8256.595 -96.69725 L -8267.595 -92.69725 L -8276.995 -89.89725 L -8285.995 -87.29725 L -8294.995 -84.69725 L -8300.395 -83.29725 L -8305.995 -82.29725 L -8308.995 -88.69725 L -8305.195 -89.49725 L -8300.395 -90.69725 L -8294.795 -91.89725 L -8288.795 -93.69725 L -8284.195 -95.09725 L -8279.995 -96.29725 L -8275.395 -98.29725 L -8270.795 -99.89725 L -8265.995 -101.89725 L -8261.995 -103.29725 L -8256.795 -105.49725 L -8252.195 -107.09725 L -8247.395 -109.29725 L -8242.595 -111.09725 L -8238.595 -113.09725 L -8234.195 -115.29725 L -8229.795 -117.49725 L -8226.395 -119.09725 Z" stroke="#7f8080" stroke-linecap="round" stroke-linejoin="round" stroke-width="1"/>
      </g>
      <g id="Graphic_8">
        <path d="M -8505.941 -261.2441 L -8500.541 -261.8441 L -8493.741 -258.4441 L -8488.741 -256.6441 L -8480.341 -254.8441 L -8471.941 -253.8441 L -8463.941 -252.8441 L -8456.341 -252.6441 L -8447.741 -252.2441 L -8436.141 -252.4441 L -8427.741 -252.8441 L -8418.341 -253.4441 L -8409.941 -254.2441 L -8400.741 -255.6441 L -8392.541 -257.8441 L -8386.741 -259.6441 L -8381.141 -262.2441 L -8378.341 -261.0441 L -8377.941 -255.4441 L -8380.741 -247.4441 L -8386.141 -244.6441 L -8396.741 -241.4441 L -8408.141 -239.0441 L -8419.341 -238.2441 L -8431.741 -237.2441 L -8442.141 -237.2441 L -8451.541 -237.2441 L -8463.141 -237.8441 L -8474.341 -238.6441 L -8484.941 -240.8441 L -8493.541 -242.8441 L -8499.741 -245.6441 L -8501.741 -247.2441 L -8504.941 -254.8441 Z" fill="black"/>
        <path d="M -8505.941 -261.2441 L -8500.541 -261.8441 L -8493.741 -258.4441 L -8488.741 -256.6441 L -8480.341 -254.8441 L -8471.941 -253.8441 L -8463.941 -252.8441 L -8456.341 -252.6441 L -8447.741 -252.2441 L -8436.141 -252.4441 L -8427.741 -252.8441 L -8418.341 -253.4441 L -8409.941 -254.2441 L -8400.741 -255.6441 L -8392.541 -257.8441 L -8386.741 -259.6441 L -8381.141 -262.2441 L -8378.341 -261.0441 L -8377.941 -255.4441 L -8380.741 -247.4441 L -8386.141 -244.6441 L -8396.741 -241.4441 L -8408.141 -239.0441 L -8419.341 -238.2441 L -8431.741 -237.2441 L -8442.141 -237.2441 L -8451.541 -237.2441 L -8463.141 -237.8441 L -8474.341 -238.6441 L -8484.941 -240.8441 L -8493.541 -242.8441 L -8499.741 -245.6441 L -8501.741 -247.2441 L -8504.941 -254.8441 Z" stroke="#7f8080" stroke-linecap="round" stroke-linejoin="round" stroke-width="1"/>
      </g>
      <g id="Graphic_7">
        <path d="M -8346.5 174.5 L -8332 171 L -8321 168 L -8308.781 165.34086 L -8304.781 163.34086 L -8309.781 132.34086 L -8312.781 105.34086 L -8314.781 78.34086 L -8316 52 L -8318 23 L -8318.781 -5.659144 L -8319.781 -29.659144 L -8319 -66 L -8316 -100 L -8313 -131 L -8311 -146 L -8307 -161.5 L -8302.5 -175.5 L -8297.5 -188.5 L -8290.5 -202.5 L -8284 -213.5 L -8280.781 -220.65914 L -8289.781 -225.65914 L -8302.781 -230.65914 L -8315.781 -234.65914 L -8334.781 -239.65914 L -8347 -244.5 Z" fill="white"/>
        <path d="M -8346.5 174.5 L -8332 171 L -8321 168 L -8308.781 165.34086 L -8304.781 163.34086 L -8309.781 132.34086 L -8312.781 105.34086 L -8314.781 78.34086 L -8316 52 L -8318 23 L -8318.781 -5.659144 L -8319.781 -29.659144 L -8319 -66 L -8316 -100 L -8313 -131 L -8311 -146 L -8307 -161.5 L -8302.5 -175.5 L -8297.5 -188.5 L -8290.5 -202.5 L -8284 -213.5 L -8280.781 -220.65914 L -8289.781 -225.65914 L -8302.781 -230.65914 L -8315.781 -234.65914 L -8334.781 -239.65914 L -8347 -244.5 Z" stroke="#7f8080" stroke-linecap="round" stroke-linejoin="round" stroke-width="1"/>
      </g>
      <g id="Graphic_6">
        <path d="M -8473.6 178.4 L -8450.623 179.5 L -8429.123 178 L -8410.123 178 L -8409.5 178 L -8410.5 -209.5 L -8437.16 -204 L -8463 -208 L -8474.6 -207.2 Z" fill="white"/>
        <path d="M -8473.6 178.4 L -8450.623 179.5 L -8429.123 178 L -8410.123 178 L -8409.5 178 L -8410.5 -209.5 L -8437.16 -204 L -8463 -208 L -8474.6 -207.2 Z" stroke="#7f8080" stroke-linecap="round" stroke-linejoin="round" stroke-width="1"/>
      </g>
      <g id="Graphic_5">
        <path d="M -8536 172.5 L -8550 173 L -8562 172 L -8572 168.5 L -8575.814 163.07503 L -8571.5 132 L -8569 106 L -8566.5 78 L -8565 51 L -8564.5 22 L -8563 -5 L -8562.5 -30.5 L -8563.5 -66.5 L -8564.5 -100 L -8564.5 -115 L -8567 -130.5 L -8569.5 -145.5 L -8574 -161 L -8578.5 -175.5 L -8583.5 -189 L -8590 -202.5 L -8596.5 -213 L -8600 -219.5 L -8590.814 -225.92497 L -8577.814 -230.92497 L -8564.814 -234.92497 L -8546.5 -240.5 L -8537 -243.5 Z" fill="white"/>
        <path d="M -8536 172.5 L -8550 173 L -8562 172 L -8572 168.5 L -8575.814 163.07503 L -8571.5 132 L -8569 106 L -8566.5 78 L -8565 51 L -8564.5 22 L -8563 -5 L -8562.5 -30.5 L -8563.5 -66.5 L -8564.5 -100 L -8564.5 -115 L -8567 -130.5 L -8569.5 -145.5 L -8574 -161 L -8578.5 -175.5 L -8583.5 -189 L -8590 -202.5 L -8596.5 -213 L -8600 -219.5 L -8590.814 -225.92497 L -8577.814 -230.92497 L -8564.814 -234.92497 L -8546.5 -240.5 L -8537 -243.5 Z" stroke="#7f8080" stroke-linecap="round" stroke-linejoin="round" stroke-width="1"/>
      </g>
      <g id="Graphic_4">
        <path d="M -8576.187 164.2 L -8576.187 164.2 C -8576.252 164.72549 -8576.19 165.25905 -8576.004 165.7549 L -8575.353 167.49092 C -8575.176 167.96227 -8574.949 168.41318 -8574.675 168.83582 L -8573.708 170.33153 C -8573.167 171.16756 -8572.454 171.87855 -8571.616 172.41702 L -8570.538 173.11005 C -8570.238 173.30307 -8569.923 173.47285 -8569.597 173.61789 L -8568.28 174.20349 C -8567.683 174.46876 -8567.053 174.64928 -8566.406 174.7398 L -8557.396 176.00126 C -8557.386 176.00265 -8557.376 176.00403 -8557.366 176.00539 L -8545.65 177.594 C -8545.604 177.60024 -8545.558 177.60601 -8545.512 177.61134 L -8535.229 178.79783 C -8535.197 178.80151 -8535.165 178.80498 -8535.133 178.80822 L -8521.423 180.1991 C -8521.395 180.20193 -8521.367 180.2046 -8521.339 180.2071 L -8510.233 181.19865 C -8510.198 181.20179 -8510.163 181.20466 -8510.128 181.20726 L -8499.442 181.99886 C -8499.401 182.00185 -8499.361 182.0045 -8499.32 182.0068 L -8488.812 182.60159 C -8488.791 182.60276 -8488.77 182.60404 -8488.75 182.6054 L -8476.707 183.3951 C -8476.623 183.4006 -8476.539 183.4046 -8476.455 183.40707 L -8463.007 183.80257 C -8462.99 183.8031 -8462.972 183.80368 -8462.954 183.80434 L -8452.31 184.19856 C -8452.224 184.20176 -8452.138 184.20335 -8452.051 184.20335 L -8441.442 184.20335 C -8441.401 184.20335 -8441.36 184.20371 -8441.319 184.20443 L -8430.233 184.39893 C -8430.065 184.40188 -8429.897 184.39877 -8429.729 184.38962 L -8419.108 183.81028 C -8419.023 183.80566 -8418.938 183.80258 -8418.854 183.80104 L -8408.089 183.60532 C -8408.017 183.604 -8407.945 183.60158 -8407.873 183.59803 L -8395.854 183.00695 C -8395.805 183.00455 -8395.756 183.00165 -8395.708 182.99823 L -8384.468 182.20945 C -8384.41 182.20539 -8384.352 182.2006 -8384.294 182.1951 L -8371.883 181.01313 C -8371.815 181.00661 -8371.746 181.0011 -8371.678 180.9966 L -8359.746 180.21418 C -8359.636 180.20696 -8359.526 180.19715 -8359.416 180.18475 L -8349.004 179.006 C -8348.989 179.00423 -8348.973 179.00242 -8348.958 179.00056 L -8339.01 177.80683 C -8338.99 177.80451 -8338.971 177.80211 -8338.952 177.79963 L -8325.116 176.0221 C -8325.019 176.0096 -8324.922 175.99507 -8324.825 175.97851 L -8318.272 174.85506 C -8318.071 174.8206 -8317.868 174.79495 -8317.665 174.77817 L -8314.433 174.5112 C -8313.544 174.43775 -8312.677 174.19497 -8311.879 173.79594 L -8310.392 173.0528 C -8309.792 172.7525 -8309.238 172.36735 -8308.747 171.9092 L -8307.4115 170.66308 C -8306.805 170.09672 -8306.349 169.38747 -8306.087 168.6 L -8305.792 167.71552 C -8305.722 167.5053 -8305.662 167.29187 -8305.612 167.07595 L -8305.142 165.04056 C -8305.107 164.88792 -8305.141 164.72752 -8305.234 164.60168 L -8305.234 164.60168 C -8305.324 164.4798 -8305.475 164.4183 -8305.625 164.44214 L -8314.104 165.7912 C -8314.155 165.7993 -8314.206 165.80796 -8314.257 165.81718 L -8327.242 168.17805 C -8327.334 168.19492 -8327.4275 168.2099 -8327.521 168.22302 L -8338.751 169.79911 C -8338.771 169.80194 -8338.791 169.80486 -8338.811 169.80786 L -8351.934 171.76645 C -8352.098 171.79105 -8352.264 171.80975 -8352.43 171.82253 L -8365.155 172.80136 C -8365.172 172.80269 -8365.189 172.80396 -8365.207 172.80516 L -8379.547 173.801 C -8379.57 173.80257 -8379.592 173.80403 -8379.615 173.80538 L -8392.918 174.5996 C -8392.96 174.6021 -8393.002 174.60423 -8393.044 174.60597 L -8407.235 175.19729 C -8407.332 175.20133 -8407.429 175.20335 -8407.527 175.20335 L -8433.322 175.20335 C -8433.361 175.20335 -8433.4 175.20368 -8433.439 175.20433 L -8445.198 175.4003 C -8445.32 175.40234 -8445.442 175.40117 -8445.564 175.39681 L -8456.398 175.0099 C -8456.52 175.00554 -8456.642 175.00437 -8456.764 175.0064 L -8468.479 175.20165 C -8468.547 175.20279 -8468.615 175.20293 -8468.683 175.20208 L -8484.385 175.0058 C -8484.516 175.00417 -8484.646 174.9989 -8484.776 174.98998 L -8499.086 174.00986 C -8499.149 174.00552 -8499.212 174.00032 -8499.276 173.99426 L -8513.767 172.60471 C -8513.776 172.6038 -8513.786 172.60288 -8513.795 172.60194 L -8527.607 171.22073 C -8527.723 171.20915 -8527.838 171.19468 -8527.954 171.17733 L -8542.263 169.02116 C -8542.341 169.00929 -8542.42 168.99877 -8542.499 168.9896 L -8556.019 167.42207 C -8556.127 167.4096 -8556.234 167.39463 -8556.341 167.37718 L -8565.733 165.84377 C -8565.898 165.81684 -8566.062 165.784 -8566.225 165.74532 L -8575.302 163.58654 C -8575.691 163.4942 -8576.08 163.73412 -8576.173 164.12244 C -8576.179 164.14802 -8576.184 164.17392 -8576.187 164.2 Z" fill="black"/>
        <path d="M -8576.187 164.2 L -8576.187 164.2 C -8576.252 164.72549 -8576.19 165.25905 -8576.004 165.7549 L -8575.353 167.49092 C -8575.176 167.96227 -8574.949 168.41318 -8574.675 168.83582 L -8573.708 170.33153 C -8573.167 171.16756 -8572.454 171.87855 -8571.616 172.41702 L -8570.538 173.11005 C -8570.238 173.30307 -8569.923 173.47285 -8569.597 173.61789 L -8568.28 174.20349 C -8567.683 174.46876 -8567.053 174.64928 -8566.406 174.7398 L -8557.396 176.00126 C -8557.386 176.00265 -8557.376 176.00403 -8557.366 176.00539 L -8545.65 177.594 C -8545.604 177.60024 -8545.558 177.60601 -8545.512 177.61134 L -8535.229 178.79783 C -8535.197 178.80151 -8535.165 178.80498 -8535.133 178.80822 L -8521.423 180.1991 C -8521.395 180.20193 -8521.367 180.2046 -8521.339 180.2071 L -8510.233 181.19865 C -8510.198 181.20179 -8510.163 181.20466 -8510.128 181.20726 L -8499.442 181.99886 C -8499.401 182.00185 -8499.361 182.0045 -8499.32 182.0068 L -8488.812 182.60159 C -8488.791 182.60276 -8488.77 182.60404 -8488.75 182.6054 L -8476.707 183.3951 C -8476.623 183.4006 -8476.539 183.4046 -8476.455 183.40707 L -8463.007 183.80257 C -8462.99 183.8031 -8462.972 183.80368 -8462.954 183.80434 L -8452.31 184.19856 C -8452.224 184.20176 -8452.138 184.20335 -8452.051 184.20335 L -8441.442 184.20335 C -8441.401 184.20335 -8441.36 184.20371 -8441.319 184.20443 L -8430.233 184.39893 C -8430.065 184.40188 -8429.897 184.39877 -8429.729 184.38962 L -8419.108 183.81028 C -8419.023 183.80566 -8418.938 183.80258 -8418.854 183.80104 L -8408.089 183.60532 C -8408.017 183.604 -8407.945 183.60158 -8407.873 183.59803 L -8395.854 183.00695 C -8395.805 183.00455 -8395.756 183.00165 -8395.708 182.99823 L -8384.468 182.20945 C -8384.41 182.20539 -8384.352 182.2006 -8384.294 182.1951 L -8371.883 181.01313 C -8371.815 181.00661 -8371.746 181.0011 -8371.678 180.9966 L -8359.746 180.21418 C -8359.636 180.20696 -8359.526 180.19715 -8359.416 180.18475 L -8349.004 179.006 C -8348.989 179.00423 -8348.973 179.00242 -8348.958 179.00056 L -8339.01 177.80683 C -8338.99 177.80451 -8338.971 177.80211 -8338.952 177.79963 L -8325.116 176.0221 C -8325.019 176.0096 -8324.922 175.99507 -8324.825 175.97851 L -8318.272 174.85506 C -8318.071 174.8206 -8317.868 174.79495 -8317.665 174.77817 L -8314.433 174.5112 C -8313.544 174.43775 -8312.677 174.19497 -8311.879 173.79594 L -8310.392 173.0528 C -8309.792 172.7525 -8309.238 172.36735 -8308.747 171.9092 L -8307.4115 170.66308 C -8306.805 170.09672 -8306.349 169.38747 -8306.087 168.6 L -8305.792 167.71552 C -8305.722 167.5053 -8305.662 167.29187 -8305.612 167.07595 L -8305.142 165.04056 C -8305.107 164.88792 -8305.141 164.72752 -8305.234 164.60168 L -8305.234 164.60168 C -8305.324 164.4798 -8305.475 164.4183 -8305.625 164.44214 L -8314.104 165.7912 C -8314.155 165.7993 -8314.206 165.80796 -8314.257 165.81718 L -8327.242 168.17805 C -8327.334 168.19492 -8327.4275 168.2099 -8327.521 168.22302 L -8338.751 169.79911 C -8338.771 169.80194 -8338.791 169.80486 -8338.811 169.80786 L -8351.934 171.76645 C -8352.098 171.79105 -8352.264 171.80975 -8352.43 171.82253 L -8365.155 172.80136 C -8365.172 172.80269 -8365.189 172.80396 -8365.207 172.80516 L -8379.547 173.801 C -8379.57 173.80257 -8379.592 173.80403 -8379.615 173.80538 L -8392.918 174.5996 C -8392.96 174.6021 -8393.002 174.60423 -8393.044 174.60597 L -8407.235 175.19729 C -8407.332 175.20133 -8407.429 175.20335 -8407.527 175.20335 L -8433.322 175.20335 C -8433.361 175.20335 -8433.4 175.20368 -8433.439 175.20433 L -8445.198 175.4003 C -8445.32 175.40234 -8445.442 175.40117 -8445.564 175.39681 L -8456.398 175.0099 C -8456.52 175.00554 -8456.642 175.00437 -8456.764 175.0064 L -8468.479 175.20165 C -8468.547 175.20279 -8468.615 175.20293 -8468.683 175.20208 L -8484.385 175.0058 C -8484.516 175.00417 -8484.646 174.9989 -8484.776 174.98998 L -8499.086 174.00986 C -8499.149 174.00552 -8499.212 174.00032 -8499.276 173.99426 L -8513.767 172.60471 C -8513.776 172.6038 -8513.786 172.60288 -8513.795 172.60194 L -8527.607 171.22073 C -8527.723 171.20915 -8527.838 171.19468 -8527.954 171.17733 L -8542.263 169.02116 C -8542.341 169.00929 -8542.42 168.99877 -8542.499 168.9896 L -8556.019 167.42207 C -8556.127 167.4096 -8556.234 167.39463 -8556.341 167.37718 L -8565.733 165.84377 C -8565.898 165.81684 -8566.062 165.784 -8566.225 165.74532 L -8575.302 163.58654 C -8575.691 163.4942 -8576.08 163.73412 -8576.173 164.12244 C -8576.179 164.14802 -8576.184 164.17392 -8576.187 164.2 Z" stroke="#7f8080" stroke-linecap="round" stroke-linejoin="round" stroke-width="1"/>
      </g>
      <g id="Graphic_3">
        <path d="M -8505.428 -261.0362 L -8510.157 -256.98264 C -8511.307 -255.99662 -8512.552 -255.1267 -8513.874 -254.3855 L -8516.4 -252.96835 C -8517.836 -252.16338 -8518.416 -250.39425 -8517.738 -248.89527 L -8516.72 -246.64803 C -8516.598 -246.37954 -8516.472 -246.11342 -8516.34 -245.8498 L -8512.051 -237.2713 C -8511.709 -236.5877 -8511.333 -235.92157 -8510.925 -235.27537 L -8508.599 -231.59192 C -8508.158 -230.89465 -8507.681 -230.22158 -8507.168 -229.5756 L -8503.757 -225.27815 C -8503.211 -224.59013 -8502.626 -223.93394 -8502.005 -223.31283 L -8497.339 -218.6468 C -8496.938 -218.2459 -8496.523 -217.86 -8496.093 -217.48982 L -8491.53 -213.55574 C -8491.135 -213.21552 -8490.729 -212.8888 -8490.312 -212.57617 L -8486.337 -209.59497 C -8485.671 -209.09553 -8484.979 -208.63262 -8484.263 -208.20826 L -8480.13 -205.75904 C -8480.002 -205.6832 -8479.873 -205.60859 -8479.743 -205.53523 L -8475.046 -202.8733 C -8474.308 -202.45493 -8473.547 -202.07774 -8472.767 -201.74347 L -8469.217 -200.22212 C -8468.631 -199.971 -8468.035 -199.74433 -8467.43 -199.54274 L -8462.412 -197.87003 C -8461.165 -197.45429 -8459.884 -197.14624 -8458.584 -196.9493 L -8454.485 -196.32826 C -8454.12 -196.27294 -8453.754 -196.22642 -8453.386 -196.18874 L -8446.505 -195.48299 C -8446.26 -195.45784 -8446.015 -195.43664 -8445.769 -195.41938 L -8441.242 -195.1017 C -8440.706 -195.06409 -8440.169 -195.04527 -8439.632 -195.04527 L -8436.37 -195.04526 C -8435.416 -195.04526 -8434.463 -195.10458 -8433.517 -195.22287 L -8429.528 -195.72146 C -8428.868 -195.80396 -8428.212 -195.91504 -8427.562 -196.0544 L -8421.48 -197.3577 C -8420.586 -197.54924 -8419.704 -197.7939 -8418.839 -198.0904 L -8414.33 -199.63628 C -8413.536 -199.90873 -8412.757 -200.22451 -8411.997 -200.5822 L -8407.163 -202.85674 C -8406.613 -203.11565 -8406.073 -203.39629 -8405.545 -203.69798 L -8401.777 -205.85104 C -8401.085 -206.24692 -8400.413 -206.67858 -8399.765 -207.14428 L -8395.089 -210.50525 C -8394.588 -210.8651 -8394.102 -211.24497 -8393.632 -211.6439 L -8388.311 -216.15856 C -8387.929 -216.48294 -8387.557 -216.81974 -8387.197 -217.16842 L -8382.498 -221.71604 C -8381.858 -222.335 -8381.255 -222.99056 -8380.691 -223.67942 L -8376.898 -228.31566 C -8376.391 -228.93497 -8375.917 -229.5803 -8375.478 -230.24904 L -8371.861 -235.75344 C -8371.645 -236.08127 -8371.438 -236.41456 -8371.24 -236.75298 L -8368.717 -241.05708 C -8368.331 -241.71546 -8367.978 -242.39265 -8367.659 -243.08612 L -8365.541 -247.6974 C -8365.008 -248.85715 -8364.637 -250.08456 -8364.438 -251.34526 L -8364.438 -251.34526 C -8364.259 -252.47453 -8364.839 -253.58797 -8365.866 -254.0901 L -8371.159 -256.678 C -8372.474 -257.32063 -8373.708 -258.11514 -8374.838 -259.04526 L -8375.244 -259.37963 C -8376.088 -260.07496 -8376.711 -261.00126 -8377.038 -262.04526 L -8377.038 -262.04526 C -8377.084 -262.19458 -8377.243 -262.2778 -8377.392 -262.23114 C -8377.508 -262.19518 -8377.587 -262.0903 -8377.591 -261.9698 L -8377.7 -258.5469 C -8377.791 -255.7038 -8378.408 -252.90224 -8379.521 -250.28433 L -8380.398 -248.22096 C -8380.957 -246.9067 -8381.636 -245.6473 -8382.428 -244.4591 L -8386.114 -238.93042 C -8386.862 -237.80915 -8387.706 -236.75575 -8388.638 -235.78238 L -8394.933 -229.20753 C -8395.801 -228.30087 -8396.742 -227.4668 -8397.746 -226.71367 L -8406.121 -220.4325 C -8406.998 -219.77518 -8407.92 -219.18133 -8408.881 -218.65546 L -8416.066 -214.72394 C -8417.377 -214.00653 -8418.755 -213.41863 -8420.18 -212.96857 L -8426.853 -210.86133 C -8428.57 -210.31916 -8430.345 -209.98046 -8432.141 -209.85219 L -8439.027 -209.3603 C -8440.099 -209.2837 -8441.176 -209.28238 -8442.248 -209.35635 L -8450.685 -209.93816 C -8451.719 -210.00948 -8452.747 -210.15064 -8453.762 -210.36067 L -8460.897 -211.83692 C -8462.849 -212.24077 -8464.74 -212.89665 -8466.523 -213.78808 L -8471.183 -216.11779 C -8472.417 -216.73485 -8473.593 -217.46173 -8474.697 -218.2896 L -8480.379 -222.55108 C -8480.818 -222.88043 -8481.245 -223.2254 -8481.659 -223.58532 L -8487.415 -228.58324 C -8488.229 -229.29038 -8488.992 -230.05392 -8489.7 -230.8682 L -8494.105 -235.9409 C -8494.859 -236.80925 -8495.547 -237.73295 -8496.163 -238.70422 L -8499.897 -244.59198 C -8500.257 -245.16056 -8500.592 -245.7447 -8500.902 -246.34272 L -8502.522 -249.47544 C -8503.131 -250.65312 -8503.637 -251.88126 -8504.035 -253.14615 L -8505.315 -257.21964 C -8505.53 -257.90302 -8505.713 -258.59605 -8505.863 -259.2965 L -8506.088 -260.34843 C -8506.173 -260.74544 -8505.947 -261.1431 -8505.562 -261.27263 L -8505.562 -261.27263 C -8505.49 -261.29704 -8505.411 -261.25805 -8505.387 -261.18556 C -8505.369 -261.13205 -8505.385 -261.07296 -8505.428 -261.0362 Z" fill="black"/>
        <path d="M -8505.428 -261.0362 L -8510.157 -256.98264 C -8511.307 -255.99662 -8512.552 -255.1267 -8513.874 -254.3855 L -8516.4 -252.96835 C -8517.836 -252.16338 -8518.416 -250.39425 -8517.738 -248.89527 L -8516.72 -246.64803 C -8516.598 -246.37954 -8516.472 -246.11342 -8516.34 -245.8498 L -8512.051 -237.2713 C -8511.709 -236.5877 -8511.333 -235.92157 -8510.925 -235.27537 L -8508.599 -231.59192 C -8508.158 -230.89465 -8507.681 -230.22158 -8507.168 -229.5756 L -8503.757 -225.27815 C -8503.211 -224.59013 -8502.626 -223.93394 -8502.005 -223.31283 L -8497.339 -218.6468 C -8496.938 -218.2459 -8496.523 -217.86 -8496.093 -217.48982 L -8491.53 -213.55574 C -8491.135 -213.21552 -8490.729 -212.8888 -8490.312 -212.57617 L -8486.337 -209.59497 C -8485.671 -209.09553 -8484.979 -208.63262 -8484.263 -208.20826 L -8480.13 -205.75904 C -8480.002 -205.6832 -8479.873 -205.60859 -8479.743 -205.53523 L -8475.046 -202.8733 C -8474.308 -202.45493 -8473.547 -202.07774 -8472.767 -201.74347 L -8469.217 -200.22212 C -8468.631 -199.971 -8468.035 -199.74433 -8467.43 -199.54274 L -8462.412 -197.87003 C -8461.165 -197.45429 -8459.884 -197.14624 -8458.584 -196.9493 L -8454.485 -196.32826 C -8454.12 -196.27294 -8453.754 -196.22642 -8453.386 -196.18874 L -8446.505 -195.48299 C -8446.26 -195.45784 -8446.015 -195.43664 -8445.769 -195.41938 L -8441.242 -195.1017 C -8440.706 -195.06409 -8440.169 -195.04527 -8439.632 -195.04527 L -8436.37 -195.04526 C -8435.416 -195.04526 -8434.463 -195.10458 -8433.517 -195.22287 L -8429.528 -195.72146 C -8428.868 -195.80396 -8428.212 -195.91504 -8427.562 -196.0544 L -8421.48 -197.3577 C -8420.586 -197.54924 -8419.704 -197.7939 -8418.839 -198.0904 L -8414.33 -199.63628 C -8413.536 -199.90873 -8412.757 -200.22451 -8411.997 -200.5822 L -8407.163 -202.85674 C -8406.613 -203.11565 -8406.073 -203.39629 -8405.545 -203.69798 L -8401.777 -205.85104 C -8401.085 -206.24692 -8400.413 -206.67858 -8399.765 -207.14428 L -8395.089 -210.50525 C -8394.588 -210.8651 -8394.102 -211.24497 -8393.632 -211.6439 L -8388.311 -216.15856 C -8387.929 -216.48294 -8387.557 -216.81974 -8387.197 -217.16842 L -8382.498 -221.71604 C -8381.858 -222.335 -8381.255 -222.99056 -8380.691 -223.67942 L -8376.898 -228.31566 C -8376.391 -228.93497 -8375.917 -229.5803 -8375.478 -230.24904 L -8371.861 -235.75344 C -8371.645 -236.08127 -8371.438 -236.41456 -8371.24 -236.75298 L -8368.717 -241.05708 C -8368.331 -241.71546 -8367.978 -242.39265 -8367.659 -243.08612 L -8365.541 -247.6974 C -8365.008 -248.85715 -8364.637 -250.08456 -8364.438 -251.34526 L -8364.438 -251.34526 C -8364.259 -252.47453 -8364.839 -253.58797 -8365.866 -254.0901 L -8371.159 -256.678 C -8372.474 -257.32063 -8373.708 -258.11514 -8374.838 -259.04526 L -8375.244 -259.37963 C -8376.088 -260.07496 -8376.711 -261.00126 -8377.038 -262.04526 L -8377.038 -262.04526 C -8377.084 -262.19458 -8377.243 -262.2778 -8377.392 -262.23114 C -8377.508 -262.19518 -8377.587 -262.0903 -8377.591 -261.9698 L -8377.7 -258.5469 C -8377.791 -255.7038 -8378.408 -252.90224 -8379.521 -250.28433 L -8380.398 -248.22096 C -8380.957 -246.9067 -8381.636 -245.6473 -8382.428 -244.4591 L -8386.114 -238.93042 C -8386.862 -237.80915 -8387.706 -236.75575 -8388.638 -235.78238 L -8394.933 -229.20753 C -8395.801 -228.30087 -8396.742 -227.4668 -8397.746 -226.71367 L -8406.121 -220.4325 C -8406.998 -219.77518 -8407.92 -219.18133 -8408.881 -218.65546 L -8416.066 -214.72394 C -8417.377 -214.00653 -8418.755 -213.41863 -8420.18 -212.96857 L -8426.853 -210.86133 C -8428.57 -210.31916 -8430.345 -209.98046 -8432.141 -209.85219 L -8439.027 -209.3603 C -8440.099 -209.2837 -8441.176 -209.28238 -8442.248 -209.35635 L -8450.685 -209.93816 C -8451.719 -210.00948 -8452.747 -210.15064 -8453.762 -210.36067 L -8460.897 -211.83692 C -8462.849 -212.24077 -8464.74 -212.89665 -8466.523 -213.78808 L -8471.183 -216.11779 C -8472.417 -216.73485 -8473.593 -217.46173 -8474.697 -218.2896 L -8480.379 -222.55108 C -8480.818 -222.88043 -8481.245 -223.2254 -8481.659 -223.58532 L -8487.415 -228.58324 C -8488.229 -229.29038 -8488.992 -230.05392 -8489.7 -230.8682 L -8494.105 -235.9409 C -8494.859 -236.80925 -8495.547 -237.73295 -8496.163 -238.70422 L -8499.897 -244.59198 C -8500.257 -245.16056 -8500.592 -245.7447 -8500.902 -246.34272 L -8502.522 -249.47544 C -8503.131 -250.65312 -8503.637 -251.88126 -8504.035 -253.14615 L -8505.315 -257.21964 C -8505.53 -257.90302 -8505.713 -258.59605 -8505.863 -259.2965 L -8506.088 -260.34843 C -8506.173 -260.74544 -8505.947 -261.1431 -8505.562 -261.27263 L -8505.562 -261.27263 C -8505.49 -261.29704 -8505.411 -261.25805 -8505.387 -261.18556 C -8505.369 -261.13205 -8505.385 -261.07296 -8505.428 -261.0362 Z" stroke="#7f8080" stroke-linecap="round" stroke-linejoin="round" stroke-width="1"/>
      </g>
    </g>
  </g>
</svg>
