<?xml version="1.0" encoding="UTF-8" standalone="no"?>
<!DOCTYPE svg PUBLIC "-//W3C//DTD SVG 1.1//EN" "http://www.w3.org/Graphics/SVG/1.1/DTD/svg11.dtd">
<svg xmlns="http://www.w3.org/2000/svg" xmlns:xl="http://www.w3.org/1999/xlink" version="1.1" xmlns:dc="http://purl.org/dc/elements/1.1/" viewBox="-8764 -40 433 449" width="433" height="449">
  <defs>
    <radialGradient cx="0" cy="0" r="1" id="Gradient" gradientUnits="userSpaceOnUse">
      <stop offset="0" stop-color="#cbcbcb"/>
      <stop offset=".4338305" stop-color="#74797e"/>
      <stop offset="1" stop-color="#010e1d"/>
    </radialGradient>
    <radialGradient id="Obj_Gradient" xl:href="#Gradient" gradientTransform="translate(-8548.241 -11.6) scale(70.26272)"/>
  </defs>
  <metadata> Produced by OmniGraffle 7.19.2\n2024-03-02 19:12:10 +0000</metadata>
  <g id="Canvas_53" stroke-dasharray="none" fill="none" fill-opacity="1" stroke="none" stroke-opacity="1">
    <title>Canvas 53</title>
    <g id="Canvas_53_Layer_1">
      <title>Layer 1</title>
      <g id="Graphic_13">
        <path d="M -8609.994 -38.409554 L -8601.829 -35.291836 C -8600.971 -34.96424 -8600.094 -34.688327 -8599.203 -34.46558 L -8585.486 -31.036287 C -8584.324 -30.745872 -8583.142 -30.546617 -8581.949 -30.44034 L -8564.423 -28.878603 C -8563.835 -28.82622 -8563.245 -28.796483 -8562.655 -28.789458 L -8547.176 -28.605185 C -8546.886 -28.60173 -8546.596 -28.60377 -8546.305 -28.61131 L -8531.882 -28.98594 C -8531.521 -28.995312 -8531.161 -29.013174 -8530.801 -29.03951 L -8516.429 -30.09107 C -8515.438 -30.163613 -8514.452 -30.300358 -8513.479 -30.50044 L -8501.906 -32.87845 C -8500.864 -33.09256 -8499.838 -33.3787 -8498.835 -33.734814 L -8487.083 -37.909864 C -8485.993 -38.297233 -8484.79 -37.766458 -8484.341 -36.7 L -8484.341 -36.7 C -8483.819 -35.459894 -8483.667 -34.095146 -8483.903 -32.77055 L -8484.084 -31.759862 C -8484.387 -30.058706 -8484.882 -28.397204 -8485.558 -26.806812 L -8487.101 -23.175691 C -8487.66 -21.86142 -8488.339 -20.602025 -8489.132 -19.413822 L -8492.817 -13.88515 C -8493.565 -12.763886 -8494.409 -11.710487 -8495.341 -10.73711 L -8501.636 -4.162263 C -8502.505 -3.2556088 -8503.445 -2.4215382 -8504.45 -1.6684074 L -8512.824 4.6127713 C -8513.701 5.270084 -8514.623 5.86394 -8515.584 6.389803 L -8522.769 10.321328 C -8524.08 11.038735 -8525.458 11.626638 -8526.884 12.076698 L -8533.557 14.183932 C -8535.273 14.726103 -8537.048 15.064805 -8538.844 15.193081 L -8545.73 15.68497 C -8546.803 15.761563 -8547.879 15.762882 -8548.951 15.688918 L -8557.388 15.107107 C -8558.422 15.035784 -8559.45 14.894627 -8560.465 14.684599 L -8567.6 13.20835 C -8569.552 12.804497 -8571.444 12.148614 -8573.226 11.257185 L -8577.886 8.927481 C -8579.12 8.3104125 -8580.296 7.58354 -8581.4 6.7556555 L -8587.082 2.4941868 C -8587.521 2.164835 -8587.948 1.8198679 -8588.363 1.4599485 L -8594.118 -3.537972 C -8594.932 -4.2451146 -8595.696 -5.008655 -8596.403 -5.8229405 L -8600.808 -10.895624 C -8601.562 -11.763985 -8602.25 -12.687685 -8602.866 -13.65895 L -8606.6 -19.546712 C -8606.96 -20.115296 -8607.296 -20.699439 -8607.605 -21.29745 L -8609.225 -24.430173 C -8609.834 -25.607852 -8610.341 -26.836 -8610.738 -28.10089 L -8612.018 -32.174377 C -8612.233 -32.857752 -8612.416 -33.55079 -8612.566 -34.25122 L -8612.641 -34.6 C -8612.835 -35.508426 -8612.728 -36.45557 -8612.335 -37.297457 L -8612.241 -37.5 C -8611.846 -38.345307 -8610.866 -38.742293 -8609.994 -38.409554 Z" fill="url(#Obj_Gradient)"/>
        <path d="M -8609.994 -38.409554 L -8601.829 -35.291836 C -8600.971 -34.96424 -8600.094 -34.688327 -8599.203 -34.46558 L -8585.486 -31.036287 C -8584.324 -30.745872 -8583.142 -30.546617 -8581.949 -30.44034 L -8564.423 -28.878603 C -8563.835 -28.82622 -8563.245 -28.796483 -8562.655 -28.789458 L -8547.176 -28.605185 C -8546.886 -28.60173 -8546.596 -28.60377 -8546.305 -28.61131 L -8531.882 -28.98594 C -8531.521 -28.995312 -8531.161 -29.013174 -8530.801 -29.03951 L -8516.429 -30.09107 C -8515.438 -30.163613 -8514.452 -30.300358 -8513.479 -30.50044 L -8501.906 -32.87845 C -8500.864 -33.09256 -8499.838 -33.3787 -8498.835 -33.734814 L -8487.083 -37.909864 C -8485.993 -38.297233 -8484.79 -37.766458 -8484.341 -36.7 L -8484.341 -36.7 C -8483.819 -35.459894 -8483.667 -34.095146 -8483.903 -32.77055 L -8484.084 -31.759862 C -8484.387 -30.058706 -8484.882 -28.397204 -8485.558 -26.806812 L -8487.101 -23.175691 C -8487.66 -21.86142 -8488.339 -20.602025 -8489.132 -19.413822 L -8492.817 -13.88515 C -8493.565 -12.763886 -8494.409 -11.710487 -8495.341 -10.73711 L -8501.636 -4.162263 C -8502.505 -3.2556088 -8503.445 -2.4215382 -8504.45 -1.6684074 L -8512.824 4.6127713 C -8513.701 5.270084 -8514.623 5.86394 -8515.584 6.389803 L -8522.769 10.321328 C -8524.08 11.038735 -8525.458 11.626638 -8526.884 12.076698 L -8533.557 14.183932 C -8535.273 14.726103 -8537.048 15.064805 -8538.844 15.193081 L -8545.73 15.68497 C -8546.803 15.761563 -8547.879 15.762882 -8548.951 15.688918 L -8557.388 15.107107 C -8558.422 15.035784 -8559.45 14.894627 -8560.465 14.684599 L -8567.6 13.20835 C -8569.552 12.804497 -8571.444 12.148614 -8573.226 11.257185 L -8577.886 8.927481 C -8579.12 8.3104125 -8580.296 7.58354 -8581.4 6.7556555 L -8587.082 2.4941868 C -8587.521 2.164835 -8587.948 1.8198679 -8588.363 1.4599485 L -8594.118 -3.537972 C -8594.932 -4.2451146 -8595.696 -5.008655 -8596.403 -5.8229405 L -8600.808 -10.895624 C -8601.562 -11.763985 -8602.25 -12.687685 -8602.866 -13.65895 L -8606.6 -19.546712 C -8606.96 -20.115296 -8607.296 -20.699439 -8607.605 -21.29745 L -8609.225 -24.430173 C -8609.834 -25.607852 -8610.341 -26.836 -8610.738 -28.10089 L -8612.018 -32.174377 C -8612.233 -32.857752 -8612.416 -33.55079 -8612.566 -34.25122 L -8612.641 -34.6 C -8612.835 -35.508426 -8612.728 -36.45557 -8612.335 -37.297457 L -8612.241 -37.5 C -8611.846 -38.345307 -8610.866 -38.742293 -8609.994 -38.409554 Z" stroke="#7f8080" stroke-linecap="round" stroke-linejoin="round" stroke-width="1"/>
      </g>
      <g id="Graphic_12">
        <path d="M -8674.027 398.2638 L -8660.284 400.55416 C -8660.101 400.5847 -8659.917 400.6121 -8659.733 400.63624 L -8631.379 404.35154 C -8631.133 404.38385 -8630.885 404.4104 -8630.638 404.4312 L -8600.395 406.9677 C -8600.138 406.98923 -8599.88 407.00456 -8599.623 407.01367 L -8560.692 408.39 C -8560.503 408.3967 -8560.315 408.4 -8560.126 408.4 L -8528.659 408.4 C -8528.493 408.4 -8528.326 408.3974 -8528.159 408.3922 L -8503.125 407.60986 C -8502.914 407.6033 -8502.704 407.5926 -8502.494 407.5777 L -8480.447 406.0168 C -8480.288 406.0056 -8480.13 405.99205 -8479.972 405.97614 L -8454.712 403.4305 C -8454.51 403.41017 -8454.309 403.386 -8454.108 403.35803 L -8430.315 400.04265 C -8430.111 400.01422 -8429.908 399.98186 -8429.705 399.94558 L -8420.509 398.3 C -8415.182 397.34674 -8411.531 392.3931 -8412.198 387.02255 L -8414.405 369.232 C -8414.408 369.21066 -8414.41 369.18934 -8414.413 369.168 L -8417.977 339.4695 C -8417.998 339.28985 -8418.017 339.10985 -8418.032 338.9296 L -8420.395 311.37037 C -8420.404 311.2568 -8420.413 311.14312 -8420.42 311.02936 L -8421.807 289.43772 C -8421.808 289.41258 -8421.81 289.38744 -8421.812 289.3623 L -8423.404 266.276 C -8423.407 266.22533 -8423.411 266.17466 -8423.414 266.12398 L -8424.59 246.3218 C -8424.603 246.1073 -8424.611 245.89255 -8424.615 245.6777 L -8425.008 225.08285 C -8425.009 225.02762 -8425.01 224.9724 -8425.012 224.91718 L -8425.607 204.68283 C -8425.608 204.62761 -8425.61 204.57239 -8425.611 204.51715 L -8426.001 184.00761 C -8426.007 183.73592 -8426.005 183.46413 -8425.996 183.19253 L -8425.41 164.83292 C -8425.41 164.81097 -8425.409 164.78903 -8425.408 164.7671 L -8424.62 142.89779 C -8424.613 142.69928 -8424.602 142.50093 -8424.587 142.30283 L -8423.03 121.08221 C -8423.016 120.89409 -8423.006 120.70573 -8422.998 120.51724 L -8422.244 100.61837 C -8422.221 100.00663 -8422.163 99.39672 -8422.069 98.79165 L -8419.33 80.98813 C -8419.25 80.46304 -8419.143 79.94229 -8419.01 79.42783 L -8414.382 61.470174 C -8414.267 61.0236 -8414.132 60.58221 -8413.979 60.14725 L -8408.258 43.907606 C -8408.092 43.43613 -8407.904 42.972693 -8407.695 42.518826 L -8402.163 30.533787 C -8402.061 30.311292 -8401.953 30.091186 -8401.84 29.873643 L -8396.478 19.532217 C -8396.432 19.444075 -8396.386 19.35636 -8396.338 19.269083 L -8391.122 9.652121 C -8390.385 8.292764 -8389.435 7.059866 -8388.309 6.000001 L -8388.309 6.000001 C -8387.634 5.364528 -8387.602 4.3020265 -8388.237 3.626837 C -8388.362 3.4945612 -8388.507 3.3833664 -8388.667 3.2975886 L -8391.881 1.5757294 C -8392.1 1.4585927 -8392.321 1.3465567 -8392.545 1.2397123 L -8400.399 -2.5087763 C -8400.806 -2.7028385 -8401.22 -2.8796397 -8401.642 -3.038707 L -8411.317 -6.689588 C -8411.512 -6.763189 -8411.708 -6.8329704 -8411.906 -6.898893 L -8424.6 -11.130385 C -8424.74 -11.176792 -8424.879 -11.221283 -8425.02 -11.263842 L -8437.903 -15.16794 C -8437.974 -15.189313 -8438.044 -15.211173 -8438.115 -15.233518 L -8450.619 -19.212062 C -8451.012 -19.337307 -8451.401 -19.477748 -8451.784 -19.63307 L -8463.76 -24.492873 C -8464.591 -24.83036 -8465.393 -25.237225 -8466.156 -25.709166 L -8475.776 -31.65561 C -8475.931 -31.751863 -8476.085 -31.85078 -8476.238 -31.95232 L -8481.128 -35.212384 C -8482.109 -35.866647 -8482.98 -36.672547 -8483.709 -37.6 L -8483.709 -37.6 C -8483.815 -37.734404 -8484.009 -37.75775 -8484.144 -37.65215 C -8484.247 -37.571424 -8484.288 -37.434873 -8484.246 -37.310917 L -8484.109 -36.9 C -8483.65 -35.52225 -8483.545 -34.050963 -8483.805 -32.62211 L -8484.2 -30.448845 C -8484.472 -28.957187 -8484.953 -27.511648 -8485.631 -26.155595 L -8487.164 -23.09096 C -8487.46 -22.49756 -8487.794 -21.92319 -8488.162 -21.371175 L -8491.365 -16.565618 C -8491.794 -15.922717 -8492.269 -15.311707 -8492.786 -14.737385 L -8497.348 -9.668445 C -8497.389 -9.622815 -8497.43 -9.577422 -8497.472 -9.532268 L -8503.466 -3.024242 C -8504.094 -2.3427017 -8504.779 -1.7169787 -8505.515 -1.1541286 L -8510.54 2.6878873 C -8510.986 3.0290596 -8511.449 3.3465035 -8511.929 3.638901 L -8518.415 7.594026 C -8519.077 7.997476 -8519.767 8.352322 -8520.48 8.655762 L -8527.596 11.683596 C -8528.403 12.027283 -8529.238 12.303926 -8530.091 12.510723 L -8534.17 13.499586 C -8534.995 13.699546 -8535.834 13.833558 -8536.68 13.900355 L -8542.381 14.350371 C -8542.8 14.383445 -8543.22 14.4 -8543.64 14.4 L -8550.672 14.4 C -8551.429 14.4 -8552.185 14.346263 -8552.935 14.239193 L -8560.881 13.103986 C -8561.366 13.034699 -8561.848 12.943172 -8562.325 12.829693 L -8568.286 11.410353 C -8569.431 11.137618 -8570.543 10.739266 -8571.601 10.222534 L -8577.881 7.155556 C -8578.366 6.918671 -8578.839 6.657391 -8579.298 6.372718 L -8583.509 3.758458 C -8584.109 3.38656 -8584.683 2.975456 -8585.228 2.5278355 L -8589.674 -1.1243228 C -8589.897 -1.3080734 -8590.116 -1.4978612 -8590.329 -1.6934766 L -8594.132 -5.1789574 C -8594.583 -5.5926445 -8595.01 -6.031893 -8595.411 -6.494535 L -8599.53 -11.246934 C -8599.849 -11.615452 -8600.152 -11.998378 -8600.436 -12.394514 L -8604.866 -18.56439 C -8605.361 -19.253704 -8605.8 -19.981296 -8606.179 -20.74028 L -8608.756 -25.89321 C -8608.791 -25.964402 -8608.826 -26.03586 -8608.861 -26.107576 L -8610.109 -28.7 C -8610.96 -30.46687 -8611.315 -32.431406 -8611.138 -34.38436 L -8610.958 -36.366614 C -8610.934 -36.628476 -8611.127 -36.860055 -8611.389 -36.88386 C -8611.551 -36.898624 -8611.71 -36.82925 -8611.809 -36.7 L -8611.809 -36.7 C -8612.473 -35.83752 -8613.253 -35.07144 -8614.127 -34.423754 L -8618.024 -31.537433 C -8618.147 -31.445816 -8618.272 -31.355988 -8618.399 -31.267978 L -8623.021 -28.04641 C -8624.208 -27.21929 -8625.501 -26.556924 -8626.866 -26.077418 L -8631.473 -24.458698 C -8631.963 -24.286335 -8632.445 -24.09016 -8632.917 -23.870873 L -8639.764 -20.686324 C -8640.46 -20.362528 -8641.178 -20.08926 -8641.914 -19.86864 L -8652.784 -16.607524 C -8652.801 -16.602508 -8652.818 -16.597464 -8652.834 -16.592393 L -8663.802 -13.262795 C -8663.94 -13.220933 -8664.078 -13.17721 -8664.214 -13.131639 L -8677.136 -8.82456 C -8677.185 -8.808187 -8677.234 -8.792051 -8677.283 -8.776155 L -8688.651 -5.10925 C -8689.289 -4.903287 -8689.914 -4.65737 -8690.522 -4.3729556 L -8698.454 -.66012085 C -8698.824 -.4867703 -8699.187 -.29928655 -8699.543 -.09808264 L -8705.49 3.2627646 C -8706.743 3.971001 -8707.184 5.560925 -8706.476 6.813959 C -8706.399 6.9503975 -8706.31 7.079602 -8706.209 7.200001 L -8705.345 8.236934 C -8704.59 9.142868 -8703.938 10.129489 -8703.4 11.178818 L -8700.322 17.179237 C -8700.247 17.326404 -8700.169 17.472392 -8700.089 17.617148 L -8696.134 24.773368 C -8696.051 24.924447 -8695.97 25.076867 -8695.891 25.230568 L -8691.783 33.268556 C -8691.534 33.755865 -8691.31 34.255632 -8691.112 34.765887 L -8687.629 43.747765 C -8687.616 43.78259 -8687.602 43.817366 -8687.589 43.852094 L -8683.992 52.93754 C -8683.87 53.245773 -8683.758 53.557723 -8683.655 53.87294 L -8681.033 61.92572 C -8681.017 61.97524 -8681.001 62.02484 -8680.986 62.07452 L -8677.914 71.83279 C -8677.711 72.47695 -8677.549 73.13331 -8677.429 73.797915 L -8675.444 84.80737 C -8675.421 84.93579 -8675.399 85.06448 -8675.379 85.19342 L -8673.673 96.1868 C -8673.631 96.46222 -8673.595 96.73871 -8673.567 97.01598 L -8672.679 105.7127 C -8672.633 106.17069 -8672.606 106.63048 -8672.599 107.09079 L -8672.414 119.06641 C -8672.411 119.28878 -8672.403 119.51105 -8672.39 119.73309 L -8671.62 133.21465 C -8671.613 133.33821 -8671.604 133.4617 -8671.594 133.58506 L -8670.261 150.15943 C -8670.226 150.5863 -8670.209 151.01439 -8670.209 151.44264 L -8670.209 163.89242 C -8670.209 164.09746 -8670.205 164.30247 -8670.197 164.50735 L -8669.617 179.5965 C -8669.612 179.73216 -8669.608 179.8679 -8669.607 180.00365 L -8669.414 194.7999 C -8669.411 195.0666 -8669.414 195.33333 -8669.424 195.59986 L -8669.998 211.104 C -8670.006 211.30132 -8670.009 211.49875 -8670.009 211.6962 L -8670.009 225.29243 C -8670.009 225.49746 -8670.013 225.70247 -8670.021 225.90736 L -8670.606 241.12236 C -8670.608 241.17412 -8670.61 241.22588 -8670.613 241.27762 L -8671.408 257.78055 C -8671.409 257.79352 -8671.41 257.8065 -8671.41 257.81945 L -8672.205 273.51062 C -8672.208 273.5702 -8672.211 273.62978 -8672.215 273.68933 L -8673.404 292.91007 C -8673.407 292.97003 -8673.411 293.02996 -8673.416 293.08987 L -8675.199 317.45942 C -8675.206 317.55314 -8675.213 317.6468 -8675.222 317.7404 L -8677.008 337.3852 C -8677.009 337.39507 -8677.01 337.40494 -8677.011 337.4148 L -8678.781 356.4997 C -8678.8 356.6999 -8678.822 356.8997 -8678.848 357.09903 L -8680.809 372.07175 C -8680.942 373.08594 -8681.211 374.07756 -8681.609 375.01973 L -8681.609 375.01973 C -8682.007 375.96048 -8682.255 376.9574 -8682.346 377.97465 L -8683.109 386.51973 C -8683.617 392.20676 -8679.659 397.32512 -8674.027 398.2638 Z" fill="yellow"/>
        <path d="M -8674.027 398.2638 L -8660.284 400.55416 C -8660.101 400.5847 -8659.917 400.6121 -8659.733 400.63624 L -8631.379 404.35154 C -8631.133 404.38385 -8630.885 404.4104 -8630.638 404.4312 L -8600.395 406.9677 C -8600.138 406.98923 -8599.88 407.00456 -8599.623 407.01367 L -8560.692 408.39 C -8560.503 408.3967 -8560.315 408.4 -8560.126 408.4 L -8528.659 408.4 C -8528.493 408.4 -8528.326 408.3974 -8528.159 408.3922 L -8503.125 407.60986 C -8502.914 407.6033 -8502.704 407.5926 -8502.494 407.5777 L -8480.447 406.0168 C -8480.288 406.0056 -8480.13 405.99205 -8479.972 405.97614 L -8454.712 403.4305 C -8454.51 403.41017 -8454.309 403.386 -8454.108 403.35803 L -8430.315 400.04265 C -8430.111 400.01422 -8429.908 399.98186 -8429.705 399.94558 L -8420.509 398.3 C -8415.182 397.34674 -8411.531 392.3931 -8412.198 387.02255 L -8414.405 369.232 C -8414.408 369.21066 -8414.41 369.18934 -8414.413 369.168 L -8417.977 339.4695 C -8417.998 339.28985 -8418.017 339.10985 -8418.032 338.9296 L -8420.395 311.37037 C -8420.404 311.2568 -8420.413 311.14312 -8420.42 311.02936 L -8421.807 289.43772 C -8421.808 289.41258 -8421.81 289.38744 -8421.812 289.3623 L -8423.404 266.276 C -8423.407 266.22533 -8423.411 266.17466 -8423.414 266.12398 L -8424.59 246.3218 C -8424.603 246.1073 -8424.611 245.89255 -8424.615 245.6777 L -8425.008 225.08285 C -8425.009 225.02762 -8425.01 224.9724 -8425.012 224.91718 L -8425.607 204.68283 C -8425.608 204.62761 -8425.61 204.57239 -8425.611 204.51715 L -8426.001 184.00761 C -8426.007 183.73592 -8426.005 183.46413 -8425.996 183.19253 L -8425.41 164.83292 C -8425.41 164.81097 -8425.409 164.78903 -8425.408 164.7671 L -8424.62 142.89779 C -8424.613 142.69928 -8424.602 142.50093 -8424.587 142.30283 L -8423.03 121.08221 C -8423.016 120.89409 -8423.006 120.70573 -8422.998 120.51724 L -8422.244 100.61837 C -8422.221 100.00663 -8422.163 99.39672 -8422.069 98.79165 L -8419.33 80.98813 C -8419.25 80.46304 -8419.143 79.94229 -8419.01 79.42783 L -8414.382 61.470174 C -8414.267 61.0236 -8414.132 60.58221 -8413.979 60.14725 L -8408.258 43.907606 C -8408.092 43.43613 -8407.904 42.972693 -8407.695 42.518826 L -8402.163 30.533787 C -8402.061 30.311292 -8401.953 30.091186 -8401.84 29.873643 L -8396.478 19.532217 C -8396.432 19.444075 -8396.386 19.35636 -8396.338 19.269083 L -8391.122 9.652121 C -8390.385 8.292764 -8389.435 7.059866 -8388.309 6.000001 L -8388.309 6.000001 C -8387.634 5.364528 -8387.602 4.3020265 -8388.237 3.626837 C -8388.362 3.4945612 -8388.507 3.3833664 -8388.667 3.2975886 L -8391.881 1.5757294 C -8392.1 1.4585927 -8392.321 1.3465567 -8392.545 1.2397123 L -8400.399 -2.5087763 C -8400.806 -2.7028385 -8401.22 -2.8796397 -8401.642 -3.038707 L -8411.317 -6.689588 C -8411.512 -6.763189 -8411.708 -6.8329704 -8411.906 -6.898893 L -8424.6 -11.130385 C -8424.74 -11.176792 -8424.879 -11.221283 -8425.02 -11.263842 L -8437.903 -15.16794 C -8437.974 -15.189313 -8438.044 -15.211173 -8438.115 -15.233518 L -8450.619 -19.212062 C -8451.012 -19.337307 -8451.401 -19.477748 -8451.784 -19.63307 L -8463.76 -24.492873 C -8464.591 -24.83036 -8465.393 -25.237225 -8466.156 -25.709166 L -8475.776 -31.65561 C -8475.931 -31.751863 -8476.085 -31.85078 -8476.238 -31.95232 L -8481.128 -35.212384 C -8482.109 -35.866647 -8482.98 -36.672547 -8483.709 -37.6 L -8483.709 -37.6 C -8483.815 -37.734404 -8484.009 -37.75775 -8484.144 -37.65215 C -8484.247 -37.571424 -8484.288 -37.434873 -8484.246 -37.310917 L -8484.109 -36.9 C -8483.65 -35.52225 -8483.545 -34.050963 -8483.805 -32.62211 L -8484.2 -30.448845 C -8484.472 -28.957187 -8484.953 -27.511648 -8485.631 -26.155595 L -8487.164 -23.09096 C -8487.46 -22.49756 -8487.794 -21.92319 -8488.162 -21.371175 L -8491.365 -16.565618 C -8491.794 -15.922717 -8492.269 -15.311707 -8492.786 -14.737385 L -8497.348 -9.668445 C -8497.389 -9.622815 -8497.43 -9.577422 -8497.472 -9.532268 L -8503.466 -3.024242 C -8504.094 -2.3427017 -8504.779 -1.7169787 -8505.515 -1.1541286 L -8510.54 2.6878873 C -8510.986 3.0290596 -8511.449 3.3465035 -8511.929 3.638901 L -8518.415 7.594026 C -8519.077 7.997476 -8519.767 8.352322 -8520.48 8.655762 L -8527.596 11.683596 C -8528.403 12.027283 -8529.238 12.303926 -8530.091 12.510723 L -8534.17 13.499586 C -8534.995 13.699546 -8535.834 13.833558 -8536.68 13.900355 L -8542.381 14.350371 C -8542.8 14.383445 -8543.22 14.4 -8543.64 14.4 L -8550.672 14.4 C -8551.429 14.4 -8552.185 14.346263 -8552.935 14.239193 L -8560.881 13.103986 C -8561.366 13.034699 -8561.848 12.943172 -8562.325 12.829693 L -8568.286 11.410353 C -8569.431 11.137618 -8570.543 10.739266 -8571.601 10.222534 L -8577.881 7.155556 C -8578.366 6.918671 -8578.839 6.657391 -8579.298 6.372718 L -8583.509 3.758458 C -8584.109 3.38656 -8584.683 2.975456 -8585.228 2.5278355 L -8589.674 -1.1243228 C -8589.897 -1.3080734 -8590.116 -1.4978612 -8590.329 -1.6934766 L -8594.132 -5.1789574 C -8594.583 -5.5926445 -8595.01 -6.031893 -8595.411 -6.494535 L -8599.53 -11.246934 C -8599.849 -11.615452 -8600.152 -11.998378 -8600.436 -12.394514 L -8604.866 -18.56439 C -8605.361 -19.253704 -8605.8 -19.981296 -8606.179 -20.74028 L -8608.756 -25.89321 C -8608.791 -25.964402 -8608.826 -26.03586 -8608.861 -26.107576 L -8610.109 -28.7 C -8610.96 -30.46687 -8611.315 -32.431406 -8611.138 -34.38436 L -8610.958 -36.366614 C -8610.934 -36.628476 -8611.127 -36.860055 -8611.389 -36.88386 C -8611.551 -36.898624 -8611.71 -36.82925 -8611.809 -36.7 L -8611.809 -36.7 C -8612.473 -35.83752 -8613.253 -35.07144 -8614.127 -34.423754 L -8618.024 -31.537433 C -8618.147 -31.445816 -8618.272 -31.355988 -8618.399 -31.267978 L -8623.021 -28.04641 C -8624.208 -27.21929 -8625.501 -26.556924 -8626.866 -26.077418 L -8631.473 -24.458698 C -8631.963 -24.286335 -8632.445 -24.09016 -8632.917 -23.870873 L -8639.764 -20.686324 C -8640.46 -20.362528 -8641.178 -20.08926 -8641.914 -19.86864 L -8652.784 -16.607524 C -8652.801 -16.602508 -8652.818 -16.597464 -8652.834 -16.592393 L -8663.802 -13.262795 C -8663.94 -13.220933 -8664.078 -13.17721 -8664.214 -13.131639 L -8677.136 -8.82456 C -8677.185 -8.808187 -8677.234 -8.792051 -8677.283 -8.776155 L -8688.651 -5.10925 C -8689.289 -4.903287 -8689.914 -4.65737 -8690.522 -4.3729556 L -8698.454 -.66012085 C -8698.824 -.4867703 -8699.187 -.29928655 -8699.543 -.09808264 L -8705.49 3.2627646 C -8706.743 3.971001 -8707.184 5.560925 -8706.476 6.813959 C -8706.399 6.9503975 -8706.31 7.079602 -8706.209 7.200001 L -8705.345 8.236934 C -8704.59 9.142868 -8703.938 10.129489 -8703.4 11.178818 L -8700.322 17.179237 C -8700.247 17.326404 -8700.169 17.472392 -8700.089 17.617148 L -8696.134 24.773368 C -8696.051 24.924447 -8695.97 25.076867 -8695.891 25.230568 L -8691.783 33.268556 C -8691.534 33.755865 -8691.31 34.255632 -8691.112 34.765887 L -8687.629 43.747765 C -8687.616 43.78259 -8687.602 43.817366 -8687.589 43.852094 L -8683.992 52.93754 C -8683.87 53.245773 -8683.758 53.557723 -8683.655 53.87294 L -8681.033 61.92572 C -8681.017 61.97524 -8681.001 62.02484 -8680.986 62.07452 L -8677.914 71.83279 C -8677.711 72.47695 -8677.549 73.13331 -8677.429 73.797915 L -8675.444 84.80737 C -8675.421 84.93579 -8675.399 85.06448 -8675.379 85.19342 L -8673.673 96.1868 C -8673.631 96.46222 -8673.595 96.73871 -8673.567 97.01598 L -8672.679 105.7127 C -8672.633 106.17069 -8672.606 106.63048 -8672.599 107.09079 L -8672.414 119.06641 C -8672.411 119.28878 -8672.403 119.51105 -8672.39 119.73309 L -8671.62 133.21465 C -8671.613 133.33821 -8671.604 133.4617 -8671.594 133.58506 L -8670.261 150.15943 C -8670.226 150.5863 -8670.209 151.01439 -8670.209 151.44264 L -8670.209 163.89242 C -8670.209 164.09746 -8670.205 164.30247 -8670.197 164.50735 L -8669.617 179.5965 C -8669.612 179.73216 -8669.608 179.8679 -8669.607 180.00365 L -8669.414 194.7999 C -8669.411 195.0666 -8669.414 195.33333 -8669.424 195.59986 L -8669.998 211.104 C -8670.006 211.30132 -8670.009 211.49875 -8670.009 211.6962 L -8670.009 225.29243 C -8670.009 225.49746 -8670.013 225.70247 -8670.021 225.90736 L -8670.606 241.12236 C -8670.608 241.17412 -8670.61 241.22588 -8670.613 241.27762 L -8671.408 257.78055 C -8671.409 257.79352 -8671.41 257.8065 -8671.41 257.81945 L -8672.205 273.51062 C -8672.208 273.5702 -8672.211 273.62978 -8672.215 273.68933 L -8673.404 292.91007 C -8673.407 292.97003 -8673.411 293.02996 -8673.416 293.08987 L -8675.199 317.45942 C -8675.206 317.55314 -8675.213 317.6468 -8675.222 317.7404 L -8677.008 337.3852 C -8677.009 337.39507 -8677.01 337.40494 -8677.011 337.4148 L -8678.781 356.4997 C -8678.8 356.6999 -8678.822 356.8997 -8678.848 357.09903 L -8680.809 372.07175 C -8680.942 373.08594 -8681.211 374.07756 -8681.609 375.01973 L -8681.609 375.01973 C -8682.007 375.96048 -8682.255 376.9574 -8682.346 377.97465 L -8683.109 386.51973 C -8683.617 392.20676 -8679.659 397.32512 -8674.027 398.2638 Z" stroke="#7f8080" stroke-linecap="round" stroke-linejoin="round" stroke-width="1"/>
      </g>
      <g id="Graphic_11">
        <path d="M -8763 112.44615 L -8756.8 116.84615 L -8748.6 120.84615 L -8740 124.44615 L -8731 128.24615 L -8720 132.24615 L -8710.6 135.04615 L -8701.6 137.64615 L -8692.6 140.24615 L -8687.2 141.64615 L -8681.6 142.64615 L -8679.2 136.84615 L -8676.6 131.44615 L -8674.4 127.44615 L -8671.8 124.04615 L -8671.6 115.04615 L -8672.2 104.04615 L -8674 93.24615 L -8675.6 82.84615 L -8678.2 71.846145 L -8680.6 62.246145 L -8683.4 54.246145 L -8686.6 44.846145 L -8689.4 37.446144 L -8693 29.846144 L -8697 22.246144 L -8701 14.846144 L -8703.6 11.246144 L -8707.2 5.446144 L -8712.6 9.846144 L -8717.4 14.646144 L -8722 20.846144 L -8726.4 27.046144 L -8731.2 35.646144 L -8736 45.046145 L -8740.8 54.246145 L -8744.4 62.846145 L -8748.4 71.846145 L -8751.6 80.046145 L -8755.4 89.44615 L -8758.2 97.44615 L -8761.2 105.84615 Z" fill="yellow"/>
        <path d="M -8763 112.44615 L -8756.8 116.84615 L -8748.6 120.84615 L -8740 124.44615 L -8731 128.24615 L -8720 132.24615 L -8710.6 135.04615 L -8701.6 137.64615 L -8692.6 140.24615 L -8687.2 141.64615 L -8681.6 142.64615 L -8679.2 136.84615 L -8676.6 131.44615 L -8674.4 127.44615 L -8671.8 124.04615 L -8671.6 115.04615 L -8672.2 104.04615 L -8674 93.24615 L -8675.6 82.84615 L -8678.2 71.846145 L -8680.6 62.246145 L -8683.4 54.246145 L -8686.6 44.846145 L -8689.4 37.446144 L -8693 29.846144 L -8697 22.246144 L -8701 14.846144 L -8703.6 11.246144 L -8707.2 5.446144 L -8712.6 9.846144 L -8717.4 14.646144 L -8722 20.846144 L -8726.4 27.046144 L -8731.2 35.646144 L -8736 45.046145 L -8740.8 54.246145 L -8744.4 62.846145 L -8748.4 71.846145 L -8751.6 80.046145 L -8755.4 89.44615 L -8758.2 97.44615 L -8761.2 105.84615 Z" stroke="#7f8080" stroke-linecap="round" stroke-linejoin="round" stroke-width="1"/>
      </g>
      <g id="Graphic_10">
        <path d="M -8331.595 111.50275 L -8337.795 115.90275 L -8345.995 119.90275 L -8354.595 123.50275 L -8363.595 127.30275 L -8374.595 131.30275 L -8383.995 134.10275 L -8392.995 136.70275 L -8401.995 139.30275 L -8407.395 140.70275 L -8412.995 141.70275 L -8415.395 135.90275 L -8417.995 130.50275 L -8420.195 126.50275 L -8422.795 123.10275 L -8422.995 114.10275 L -8422.395 103.10275 L -8420.595 92.30275 L -8418.995 81.90275 L -8416.395 70.90275 L -8413.995 61.30275 L -8411.195 53.30275 L -8407.995 43.90275 L -8405.195 36.50275 L -8401.595 28.902748 L -8397.595 21.302748 L -8393.595 13.902748 L -8390.995 10.302748 L -8387.395 4.502748 L -8381.995 8.902748 L -8377.195 13.702748 L -8372.595 19.902748 L -8368.195 26.102748 L -8363.395 34.70275 L -8358.595 44.10275 L -8353.795 53.30275 L -8350.195 61.90275 L -8346.195 70.90275 L -8342.995 79.10275 L -8339.195 88.50275 L -8336.395 96.50275 L -8333.395 104.90275 Z" fill="yellow"/>
        <path d="M -8331.595 111.50275 L -8337.795 115.90275 L -8345.995 119.90275 L -8354.595 123.50275 L -8363.595 127.30275 L -8374.595 131.30275 L -8383.995 134.10275 L -8392.995 136.70275 L -8401.995 139.30275 L -8407.395 140.70275 L -8412.995 141.70275 L -8415.395 135.90275 L -8417.995 130.50275 L -8420.195 126.50275 L -8422.795 123.10275 L -8422.995 114.10275 L -8422.395 103.10275 L -8420.595 92.30275 L -8418.995 81.90275 L -8416.395 70.90275 L -8413.995 61.30275 L -8411.195 53.30275 L -8407.995 43.90275 L -8405.195 36.50275 L -8401.595 28.902748 L -8397.595 21.302748 L -8393.595 13.902748 L -8390.995 10.302748 L -8387.395 4.502748 L -8381.995 8.902748 L -8377.195 13.702748 L -8372.595 19.902748 L -8368.195 26.102748 L -8363.395 34.70275 L -8358.595 44.10275 L -8353.795 53.30275 L -8350.195 61.90275 L -8346.195 70.90275 L -8342.995 79.10275 L -8339.195 88.50275 L -8336.395 96.50275 L -8333.395 104.90275 Z" stroke="#7f8080" stroke-linecap="round" stroke-linejoin="round" stroke-width="1"/>
      </g>
      <g id="Graphic_9">
        <path d="M -8763 112.44615 L -8756.8 116.84615 L -8748.6 120.84615 L -8740 124.44615 L -8731 128.24615 L -8720 132.24615 L -8710.6 135.04615 L -8701.6 137.64615 L -8692.6 140.24615 L -8687.2 141.64615 L -8681.6 142.64615 L -8678.6 136.24615 L -8682.4 135.44615 L -8687.2 134.24615 L -8692.8 133.04615 L -8698.8 131.24615 L -8703.4 129.84615 L -8707.6 128.64615 L -8712.2 126.64615 L -8716.8 125.04615 L -8721.6 123.04615 L -8725.6 121.64615 L -8730.8 119.44615 L -8735.4 117.84615 L -8740.2 115.64615 L -8745 113.84615 L -8749 111.84615 L -8753.4 109.64615 L -8757.8 107.44615 L -8761.2 105.84615 Z" fill="blue"/>
        <path d="M -8763 112.44615 L -8756.8 116.84615 L -8748.6 120.84615 L -8740 124.44615 L -8731 128.24615 L -8720 132.24615 L -8710.6 135.04615 L -8701.6 137.64615 L -8692.6 140.24615 L -8687.2 141.64615 L -8681.6 142.64615 L -8678.6 136.24615 L -8682.4 135.44615 L -8687.2 134.24615 L -8692.8 133.04615 L -8698.8 131.24615 L -8703.4 129.84615 L -8707.6 128.64615 L -8712.2 126.64615 L -8716.8 125.04615 L -8721.6 123.04615 L -8725.6 121.64615 L -8730.8 119.44615 L -8735.4 117.84615 L -8740.2 115.64615 L -8745 113.84615 L -8749 111.84615 L -8753.4 109.64615 L -8757.8 107.44615 L -8761.2 105.84615 Z" stroke="#7f8080" stroke-linecap="round" stroke-linejoin="round" stroke-width="1"/>
      </g>
      <g id="Graphic_8">
        <path d="M -8331.595 111.50275 L -8337.795 115.90275 L -8345.995 119.90275 L -8354.595 123.50275 L -8363.595 127.30275 L -8374.595 131.30275 L -8383.995 134.10275 L -8392.995 136.70275 L -8401.995 139.30275 L -8407.395 140.70275 L -8412.995 141.70275 L -8415.995 135.30275 L -8412.195 134.50275 L -8407.395 133.30275 L -8401.795 132.10275 L -8395.795 130.30275 L -8391.195 128.90275 L -8386.995 127.70275 L -8382.395 125.70275 L -8377.795 124.10275 L -8372.995 122.10275 L -8368.995 120.70275 L -8363.795 118.50275 L -8359.195 116.90275 L -8354.395 114.70275 L -8349.595 112.90275 L -8345.595 110.90275 L -8341.195 108.70275 L -8336.795 106.50275 L -8333.395 104.90275 Z" fill="blue"/>
        <path d="M -8331.595 111.50275 L -8337.795 115.90275 L -8345.995 119.90275 L -8354.595 123.50275 L -8363.595 127.30275 L -8374.595 131.30275 L -8383.995 134.10275 L -8392.995 136.70275 L -8401.995 139.30275 L -8407.395 140.70275 L -8412.995 141.70275 L -8415.995 135.30275 L -8412.195 134.50275 L -8407.395 133.30275 L -8401.795 132.10275 L -8395.795 130.30275 L -8391.195 128.90275 L -8386.995 127.70275 L -8382.395 125.70275 L -8377.795 124.10275 L -8372.995 122.10275 L -8368.995 120.70275 L -8363.795 118.50275 L -8359.195 116.90275 L -8354.395 114.70275 L -8349.595 112.90275 L -8345.595 110.90275 L -8341.195 108.70275 L -8336.795 106.50275 L -8333.395 104.90275 Z" stroke="#7f8080" stroke-linecap="round" stroke-linejoin="round" stroke-width="1"/>
      </g>
      <g id="Graphic_7">
        <path d="M -8612.941 -37.244108 L -8607.541 -37.844108 L -8600.741 -34.444108 L -8595.741 -32.644108 L -8587.341 -30.844108 L -8578.941 -29.844108 L -8570.941 -28.844108 L -8563.341 -28.644108 L -8554.741 -28.244108 L -8543.141 -28.444108 L -8534.741 -28.844108 L -8525.341 -29.444108 L -8516.941 -30.244108 L -8507.741 -31.644108 L -8499.541 -33.844108 L -8493.741 -35.644108 L -8488.141 -38.244108 L -8485.341 -37.044108 L -8484.941 -31.444108 L -8487.741 -23.444107 L -8493.141 -20.644107 L -8503.741 -17.444107 L -8515.141 -15.044107 L -8526.341 -14.244107 L -8538.741 -13.244107 L -8549.141 -13.244107 L -8558.541 -13.244107 L -8570.141 -13.844107 L -8581.341 -14.644107 L -8591.941 -16.844107 L -8600.541 -18.844107 L -8606.741 -21.644107 L -8608.741 -23.244107 L -8611.941 -30.844108 Z" fill="blue"/>
        <path d="M -8612.941 -37.244108 L -8607.541 -37.844108 L -8600.741 -34.444108 L -8595.741 -32.644108 L -8587.341 -30.844108 L -8578.941 -29.844108 L -8570.941 -28.844108 L -8563.341 -28.644108 L -8554.741 -28.244108 L -8543.141 -28.444108 L -8534.741 -28.844108 L -8525.341 -29.444108 L -8516.941 -30.244108 L -8507.741 -31.644108 L -8499.541 -33.844108 L -8493.741 -35.644108 L -8488.141 -38.244108 L -8485.341 -37.044108 L -8484.941 -31.444108 L -8487.741 -23.444107 L -8493.141 -20.644107 L -8503.741 -17.444107 L -8515.141 -15.044107 L -8526.341 -14.244107 L -8538.741 -13.244107 L -8549.141 -13.244107 L -8558.541 -13.244107 L -8570.141 -13.844107 L -8581.341 -14.644107 L -8591.941 -16.844107 L -8600.541 -18.844107 L -8606.741 -21.644107 L -8608.741 -23.244107 L -8611.941 -30.844108 Z" stroke="#7f8080" stroke-linecap="round" stroke-linejoin="round" stroke-width="1"/>
      </g>
      <g id="Graphic_6">
        <path d="M -8453.5 398.5 L -8439 395 L -8428 392 L -8415.781 389.34086 L -8411.781 387.34086 L -8416.781 356.34086 L -8419.781 329.34086 L -8421.781 302.34086 L -8423 276 L -8425 247 L -8425.781 218.34086 L -8426.781 194.34086 L -8426 158 L -8423 124 L -8420 93 L -8418 78 L -8414 62.5 L -8409.5 48.5 L -8404.5 35.5 L -8397.5 21.5 L -8391 10.5 L -8387.781 3.3408558 L -8396.781 -1.6591442 L -8409.781 -6.659144 L -8422.781 -10.659144 L -8441.781 -15.659144 L -8454 -20.5 Z" fill="blue"/>
        <path d="M -8453.5 398.5 L -8439 395 L -8428 392 L -8415.781 389.34086 L -8411.781 387.34086 L -8416.781 356.34086 L -8419.781 329.34086 L -8421.781 302.34086 L -8423 276 L -8425 247 L -8425.781 218.34086 L -8426.781 194.34086 L -8426 158 L -8423 124 L -8420 93 L -8418 78 L -8414 62.5 L -8409.5 48.5 L -8404.5 35.5 L -8397.5 21.5 L -8391 10.5 L -8387.781 3.3408558 L -8396.781 -1.6591442 L -8409.781 -6.659144 L -8422.781 -10.659144 L -8441.781 -15.659144 L -8454 -20.5 Z" stroke="#7f8080" stroke-linecap="round" stroke-linejoin="round" stroke-width="1"/>
      </g>
      <g id="Graphic_5">
        <path d="M -8580.6 402.4 L -8557.623 403.5 L -8536.123 402 L -8517.123 402 L -8516.5 402 L -8517.5 14.5 L -8544.16 20 L -8570 16 L -8581.6 16.799997 Z" fill="blue"/>
        <path d="M -8580.6 402.4 L -8557.623 403.5 L -8536.123 402 L -8517.123 402 L -8516.5 402 L -8517.5 14.5 L -8544.16 20 L -8570 16 L -8581.6 16.799997 Z" stroke="#7f8080" stroke-linecap="round" stroke-linejoin="round" stroke-width="1"/>
      </g>
      <g id="Graphic_4">
        <path d="M -8643 396.5 L -8657 397 L -8669 396 L -8679 392.5 L -8682.814 387.07503 L -8678.5 356 L -8676 330 L -8673.5 302 L -8672 275 L -8671.5 246 L -8670 219 L -8669.5 193.5 L -8670.5 157.5 L -8671.5 124 L -8671.5 109 L -8674 93.5 L -8676.5 78.5 L -8681 63 L -8685.5 48.5 L -8690.5 35 L -8697 21.5 L -8703.5 11 L -8707 4.5 L -8697.814 -1.924967 L -8684.814 -6.924967 L -8671.814 -10.924967 L -8653.5 -16.5 L -8644 -19.5 Z" fill="blue"/>
        <path d="M -8643 396.5 L -8657 397 L -8669 396 L -8679 392.5 L -8682.814 387.07503 L -8678.5 356 L -8676 330 L -8673.5 302 L -8672 275 L -8671.5 246 L -8670 219 L -8669.5 193.5 L -8670.5 157.5 L -8671.5 124 L -8671.5 109 L -8674 93.5 L -8676.5 78.5 L -8681 63 L -8685.5 48.5 L -8690.5 35 L -8697 21.5 L -8703.5 11 L -8707 4.5 L -8697.814 -1.924967 L -8684.814 -6.924967 L -8671.814 -10.924967 L -8653.5 -16.5 L -8644 -19.5 Z" stroke="#7f8080" stroke-linecap="round" stroke-linejoin="round" stroke-width="1"/>
      </g>
      <g id="Graphic_3">
        <path d="M -8683.187 388.2 L -8683.187 388.2 C -8683.252 388.7255 -8683.19 389.25905 -8683.004 389.7549 L -8682.353 391.49092 C -8682.176 391.96227 -8681.949 392.4132 -8681.675 392.8358 L -8680.708 394.33153 C -8680.167 395.16756 -8679.454 395.87855 -8678.616 396.417 L -8677.538 397.11005 C -8677.238 397.30307 -8676.923 397.47285 -8676.597 397.6179 L -8675.28 398.2035 C -8674.683 398.46876 -8674.053 398.6493 -8673.406 398.7398 L -8664.396 400.00126 C -8664.386 400.00265 -8664.376 400.00403 -8664.366 400.0054 L -8652.65 401.594 C -8652.604 401.60024 -8652.558 401.606 -8652.512 401.61134 L -8642.229 402.79783 C -8642.197 402.8015 -8642.165 402.80498 -8642.133 402.8082 L -8628.423 404.1991 C -8628.395 404.20193 -8628.367 404.2046 -8628.339 404.2071 L -8617.233 405.19865 C -8617.198 405.2018 -8617.163 405.20466 -8617.128 405.20726 L -8606.442 405.99886 C -8606.401 406.00185 -8606.361 406.0045 -8606.32 406.0068 L -8595.812 406.6016 C -8595.791 406.60276 -8595.77 406.60404 -8595.75 406.6054 L -8583.707 407.3951 C -8583.623 407.4006 -8583.539 407.4046 -8583.455 407.40707 L -8570.007 407.80257 C -8569.99 407.8031 -8569.972 407.8037 -8569.954 407.80434 L -8559.31 408.19856 C -8559.224 408.20176 -8559.138 408.20335 -8559.051 408.20335 L -8548.442 408.20335 C -8548.401 408.20335 -8548.36 408.2037 -8548.319 408.20443 L -8537.233 408.39893 C -8537.065 408.4019 -8536.897 408.39877 -8536.729 408.3896 L -8526.108 407.8103 C -8526.023 407.80566 -8525.938 407.8026 -8525.854 407.80104 L -8515.089 407.6053 C -8515.017 407.604 -8514.945 407.6016 -8514.873 407.59803 L -8502.854 407.00695 C -8502.805 407.00455 -8502.756 407.00165 -8502.708 406.99823 L -8491.468 406.20945 C -8491.41 406.2054 -8491.352 406.2006 -8491.294 406.1951 L -8478.883 405.01313 C -8478.815 405.0066 -8478.746 405.0011 -8478.678 404.9966 L -8466.746 404.2142 C -8466.636 404.20696 -8466.526 404.19715 -8466.416 404.18475 L -8456.004 403.006 C -8455.989 403.00423 -8455.973 403.0024 -8455.958 403.00056 L -8446.01 401.80683 C -8445.99 401.8045 -8445.971 401.8021 -8445.952 401.79963 L -8432.116 400.0221 C -8432.019 400.0096 -8431.922 399.99507 -8431.825 399.9785 L -8425.272 398.85506 C -8425.071 398.8206 -8424.868 398.79495 -8424.665 398.77817 L -8421.433 398.5112 C -8420.544 398.43775 -8419.677 398.19497 -8418.879 397.79594 L -8417.392 397.0528 C -8416.792 396.7525 -8416.238 396.36735 -8415.747 395.9092 L -8414.412 394.6631 C -8413.805 394.0967 -8413.349 393.38747 -8413.087 392.6 L -8412.792 391.7155 C -8412.722 391.5053 -8412.662 391.29187 -8412.612 391.07595 L -8412.142 389.04056 C -8412.107 388.88792 -8412.141 388.72752 -8412.234 388.6017 L -8412.234 388.6017 C -8412.324 388.4798 -8412.475 388.4183 -8412.625 388.44214 L -8421.104 389.7912 C -8421.155 389.7993 -8421.206 389.80796 -8421.257 389.8172 L -8434.242 392.17805 C -8434.334 392.1949 -8434.428 392.2099 -8434.521 392.223 L -8445.751 393.7991 C -8445.771 393.80194 -8445.791 393.80486 -8445.811 393.80786 L -8458.934 395.76645 C -8459.098 395.79105 -8459.264 395.80975 -8459.43 395.82253 L -8472.155 396.80136 C -8472.172 396.8027 -8472.189 396.80396 -8472.207 396.80516 L -8486.547 397.801 C -8486.57 397.80257 -8486.592 397.80403 -8486.615 397.8054 L -8499.918 398.5996 C -8499.96 398.6021 -8500.002 398.60423 -8500.044 398.60597 L -8514.235 399.1973 C -8514.332 399.20133 -8514.429 399.20335 -8514.527 399.20335 L -8540.322 399.20335 C -8540.361 399.20335 -8540.4 399.2037 -8540.439 399.20433 L -8552.198 399.4003 C -8552.32 399.40234 -8552.442 399.40117 -8552.564 399.3968 L -8563.398 399.0099 C -8563.52 399.00554 -8563.642 399.00437 -8563.764 399.0064 L -8575.479 399.20165 C -8575.547 399.2028 -8575.615 399.20293 -8575.683 399.2021 L -8591.385 399.0058 C -8591.516 399.00417 -8591.646 398.9989 -8591.776 398.99 L -8606.086 398.00986 C -8606.149 398.0055 -8606.212 398.0003 -8606.276 397.99426 L -8620.767 396.6047 C -8620.776 396.6038 -8620.786 396.6029 -8620.795 396.60194 L -8634.607 395.22073 C -8634.723 395.20915 -8634.838 395.19468 -8634.954 395.17733 L -8649.263 393.02116 C -8649.341 393.0093 -8649.42 392.99877 -8649.499 392.9896 L -8663.019 391.42207 C -8663.127 391.4096 -8663.234 391.39463 -8663.341 391.37718 L -8672.733 389.84377 C -8672.898 389.81684 -8673.062 389.784 -8673.225 389.7453 L -8682.302 387.58654 C -8682.691 387.4942 -8683.08 387.7341 -8683.173 388.12244 C -8683.179 388.148 -8683.184 388.1739 -8683.187 388.2 Z" fill="blue"/>
        <path d="M -8683.187 388.2 L -8683.187 388.2 C -8683.252 388.7255 -8683.19 389.25905 -8683.004 389.7549 L -8682.353 391.49092 C -8682.176 391.96227 -8681.949 392.4132 -8681.675 392.8358 L -8680.708 394.33153 C -8680.167 395.16756 -8679.454 395.87855 -8678.616 396.417 L -8677.538 397.11005 C -8677.238 397.30307 -8676.923 397.47285 -8676.597 397.6179 L -8675.28 398.2035 C -8674.683 398.46876 -8674.053 398.6493 -8673.406 398.7398 L -8664.396 400.00126 C -8664.386 400.00265 -8664.376 400.00403 -8664.366 400.0054 L -8652.65 401.594 C -8652.604 401.60024 -8652.558 401.606 -8652.512 401.61134 L -8642.229 402.79783 C -8642.197 402.8015 -8642.165 402.80498 -8642.133 402.8082 L -8628.423 404.1991 C -8628.395 404.20193 -8628.367 404.2046 -8628.339 404.2071 L -8617.233 405.19865 C -8617.198 405.2018 -8617.163 405.20466 -8617.128 405.20726 L -8606.442 405.99886 C -8606.401 406.00185 -8606.361 406.0045 -8606.32 406.0068 L -8595.812 406.6016 C -8595.791 406.60276 -8595.77 406.60404 -8595.75 406.6054 L -8583.707 407.3951 C -8583.623 407.4006 -8583.539 407.4046 -8583.455 407.40707 L -8570.007 407.80257 C -8569.99 407.8031 -8569.972 407.8037 -8569.954 407.80434 L -8559.31 408.19856 C -8559.224 408.20176 -8559.138 408.20335 -8559.051 408.20335 L -8548.442 408.20335 C -8548.401 408.20335 -8548.36 408.2037 -8548.319 408.20443 L -8537.233 408.39893 C -8537.065 408.4019 -8536.897 408.39877 -8536.729 408.3896 L -8526.108 407.8103 C -8526.023 407.80566 -8525.938 407.8026 -8525.854 407.80104 L -8515.089 407.6053 C -8515.017 407.604 -8514.945 407.6016 -8514.873 407.59803 L -8502.854 407.00695 C -8502.805 407.00455 -8502.756 407.00165 -8502.708 406.99823 L -8491.468 406.20945 C -8491.41 406.2054 -8491.352 406.2006 -8491.294 406.1951 L -8478.883 405.01313 C -8478.815 405.0066 -8478.746 405.0011 -8478.678 404.9966 L -8466.746 404.2142 C -8466.636 404.20696 -8466.526 404.19715 -8466.416 404.18475 L -8456.004 403.006 C -8455.989 403.00423 -8455.973 403.0024 -8455.958 403.00056 L -8446.01 401.80683 C -8445.99 401.8045 -8445.971 401.8021 -8445.952 401.79963 L -8432.116 400.0221 C -8432.019 400.0096 -8431.922 399.99507 -8431.825 399.9785 L -8425.272 398.85506 C -8425.071 398.8206 -8424.868 398.79495 -8424.665 398.77817 L -8421.433 398.5112 C -8420.544 398.43775 -8419.677 398.19497 -8418.879 397.79594 L -8417.392 397.0528 C -8416.792 396.7525 -8416.238 396.36735 -8415.747 395.9092 L -8414.412 394.6631 C -8413.805 394.0967 -8413.349 393.38747 -8413.087 392.6 L -8412.792 391.7155 C -8412.722 391.5053 -8412.662 391.29187 -8412.612 391.07595 L -8412.142 389.04056 C -8412.107 388.88792 -8412.141 388.72752 -8412.234 388.6017 L -8412.234 388.6017 C -8412.324 388.4798 -8412.475 388.4183 -8412.625 388.44214 L -8421.104 389.7912 C -8421.155 389.7993 -8421.206 389.80796 -8421.257 389.8172 L -8434.242 392.17805 C -8434.334 392.1949 -8434.428 392.2099 -8434.521 392.223 L -8445.751 393.7991 C -8445.771 393.80194 -8445.791 393.80486 -8445.811 393.80786 L -8458.934 395.76645 C -8459.098 395.79105 -8459.264 395.80975 -8459.43 395.82253 L -8472.155 396.80136 C -8472.172 396.8027 -8472.189 396.80396 -8472.207 396.80516 L -8486.547 397.801 C -8486.57 397.80257 -8486.592 397.80403 -8486.615 397.8054 L -8499.918 398.5996 C -8499.96 398.6021 -8500.002 398.60423 -8500.044 398.60597 L -8514.235 399.1973 C -8514.332 399.20133 -8514.429 399.20335 -8514.527 399.20335 L -8540.322 399.20335 C -8540.361 399.20335 -8540.4 399.2037 -8540.439 399.20433 L -8552.198 399.4003 C -8552.32 399.40234 -8552.442 399.40117 -8552.564 399.3968 L -8563.398 399.0099 C -8563.52 399.00554 -8563.642 399.00437 -8563.764 399.0064 L -8575.479 399.20165 C -8575.547 399.2028 -8575.615 399.20293 -8575.683 399.2021 L -8591.385 399.0058 C -8591.516 399.00417 -8591.646 398.9989 -8591.776 398.99 L -8606.086 398.00986 C -8606.149 398.0055 -8606.212 398.0003 -8606.276 397.99426 L -8620.767 396.6047 C -8620.776 396.6038 -8620.786 396.6029 -8620.795 396.60194 L -8634.607 395.22073 C -8634.723 395.20915 -8634.838 395.19468 -8634.954 395.17733 L -8649.263 393.02116 C -8649.341 393.0093 -8649.42 392.99877 -8649.499 392.9896 L -8663.019 391.42207 C -8663.127 391.4096 -8663.234 391.39463 -8663.341 391.37718 L -8672.733 389.84377 C -8672.898 389.81684 -8673.062 389.784 -8673.225 389.7453 L -8682.302 387.58654 C -8682.691 387.4942 -8683.08 387.7341 -8683.173 388.12244 C -8683.179 388.148 -8683.184 388.1739 -8683.187 388.2 Z" stroke="#7f8080" stroke-linecap="round" stroke-linejoin="round" stroke-width="1"/>
      </g>
      <g id="Graphic_2">
        <path d="M -8612.428 -37.03621 L -8617.157 -32.982637 C -8618.307 -31.996625 -8619.552 -31.12669 -8620.874 -30.385515 L -8623.4 -28.96835 C -8624.836 -28.163377 -8625.416 -26.394248 -8624.738 -24.895265 L -8623.72 -22.648032 C -8623.598 -22.379545 -8623.472 -22.11342 -8623.34 -21.849804 L -8619.051 -13.271293 C -8618.709 -12.587699 -8618.333 -11.921566 -8617.925 -11.275375 L -8615.599 -7.591918 C -8615.158 -6.894655 -8614.681 -6.221581 -8614.168 -5.575613 L -8610.757 -1.278153 C -8610.211 -.59012534 -8609.626 .06605618 -8609.005 .6871669 L -8604.339 5.35321 C -8603.938 5.75409 -8603.523 6.1400115 -8603.093 6.510183 L -8598.53 10.444256 C -8598.135 10.784478 -8597.729 11.11119 -8597.312 11.423827 L -8593.337 14.405032 C -8592.671 14.904467 -8591.979 15.367383 -8591.263 15.791737 L -8587.13 18.24096 C -8587.002 18.31681 -8586.873 18.391414 -8586.743 18.464765 L -8582.046 21.126708 C -8581.308 21.545073 -8580.547 21.922258 -8579.767 22.256534 L -8576.217 23.777883 C -8575.631 24.02901 -8575.035 24.255666 -8574.43 24.457264 L -8569.412 26.129966 C -8568.165 26.545714 -8566.884 26.853756 -8565.584 27.050706 L -8561.485 27.671744 C -8561.12 27.727064 -8560.754 27.773583 -8560.386 27.81126 L -8553.505 28.517015 C -8553.26 28.54216 -8553.015 28.563364 -8552.769 28.580618 L -8548.242 28.89831 C -8547.706 28.935915 -8547.169 28.954734 -8546.632 28.954734 L -8543.37 28.954736 C -8542.416 28.954736 -8541.463 28.89542 -8540.517 28.777127 L -8536.528 28.278537 C -8535.868 28.196042 -8535.212 28.08496 -8534.562 27.945602 L -8528.48 26.64231 C -8527.586 26.450764 -8526.704 26.206097 -8525.839 25.90961 L -8521.33 24.36372 C -8520.536 24.091269 -8519.757 23.775486 -8518.997 23.417793 L -8514.163 21.143263 C -8513.613 20.884347 -8513.073 20.603714 -8512.545 20.302025 L -8508.777 18.148958 C -8508.085 17.753078 -8507.413 17.321415 -8506.765 16.85572 L -8502.089 13.494754 C -8501.588 13.134888 -8501.102 12.755033 -8500.632 12.35611 L -8495.311 7.841445 C -8494.929 7.517059 -8494.557 7.180259 -8494.197 6.831584 L -8489.498 2.2839562 C -8488.858 1.6649978 -8488.255 1.0094352 -8487.691 .32057613 L -8483.898 -4.3156584 C -8483.391 -4.9349737 -8482.917 -5.5803105 -8482.478 -6.249036 L -8478.861 -11.753436 C -8478.645 -12.081268 -8478.438 -12.414558 -8478.24 -12.752979 L -8475.717 -17.057076 C -8475.331 -17.71546 -8474.978 -18.392646 -8474.659 -19.08612 L -8472.541 -23.69739 C -8472.008 -24.85715 -8471.637 -26.084564 -8471.438 -27.345265 L -8471.438 -27.345265 C -8471.259 -28.474526 -8471.839 -29.587974 -8472.866 -30.090102 L -8478.159 -32.678005 C -8479.474 -33.32063 -8480.708 -34.11514 -8481.838 -35.045265 L -8482.244 -35.379625 C -8483.088 -36.074957 -8483.711 -37.001262 -8484.038 -38.045265 L -8484.038 -38.045265 C -8484.084 -38.19458 -8484.243 -38.2778 -8484.392 -38.23114 C -8484.508 -38.195177 -8484.587 -38.090315 -8484.591 -37.969812 L -8484.7 -34.54689 C -8484.791 -31.703814 -8485.408 -28.902236 -8486.521 -26.284333 L -8487.398 -24.220957 C -8487.957 -22.906686 -8488.636 -21.64729 -8489.428 -20.459088 L -8493.114 -14.930416 C -8493.862 -13.809152 -8494.706 -12.755752 -8495.638 -11.782376 L -8501.933 -5.207529 C -8502.801 -4.3008747 -8503.742 -3.466804 -8504.746 -2.7136733 L -8513.121 3.5675054 C -8513.998 4.2248184 -8514.92 4.818674 -8515.881 5.344537 L -8523.066 9.276062 C -8524.377 9.993469 -8525.755 10.581372 -8527.18 11.031432 L -8533.853 13.138666 C -8535.57 13.680837 -8537.345 14.019539 -8539.141 14.147815 L -8546.027 14.639704 C -8547.099 14.716297 -8548.176 14.717616 -8549.248 14.643652 L -8557.685 14.061841 C -8558.719 13.990518 -8559.747 13.84936 -8560.762 13.639333 L -8567.897 12.163084 C -8569.849 11.759231 -8571.74 11.103348 -8573.523 10.21192 L -8578.183 7.882215 C -8579.417 7.2651466 -8580.593 6.538274 -8581.697 5.7103895 L -8587.379 1.4489208 C -8587.818 1.119569 -8588.245 .7746019 -8588.66 .41468255 L -8594.415 -4.583238 C -8595.229 -5.2903805 -8595.992 -6.053921 -8596.7 -6.868206 L -8601.105 -11.94089 C -8601.859 -12.80925 -8602.547 -13.73295 -8603.163 -14.704217 L -8606.897 -20.591978 C -8607.257 -21.160562 -8607.592 -21.744705 -8607.902 -22.342717 L -8609.522 -25.47544 C -8610.131 -26.653118 -8610.637 -27.881264 -8611.035 -29.146155 L -8612.315 -33.219643 C -8612.53 -33.90302 -8612.713 -34.596055 -8612.863 -35.296485 L -8613.088 -36.34843 C -8613.173 -36.74544 -8612.947 -37.143094 -8612.562 -37.272633 L -8612.562 -37.272633 C -8612.49 -37.297037 -8612.411 -37.258052 -8612.387 -37.185558 C -8612.369 -37.132046 -8612.385 -37.072957 -8612.428 -37.03621 Z" fill="blue"/>
        <path d="M -8612.428 -37.03621 L -8617.157 -32.982637 C -8618.307 -31.996625 -8619.552 -31.12669 -8620.874 -30.385515 L -8623.4 -28.96835 C -8624.836 -28.163377 -8625.416 -26.394248 -8624.738 -24.895265 L -8623.72 -22.648032 C -8623.598 -22.379545 -8623.472 -22.11342 -8623.34 -21.849804 L -8619.051 -13.271293 C -8618.709 -12.587699 -8618.333 -11.921566 -8617.925 -11.275375 L -8615.599 -7.591918 C -8615.158 -6.894655 -8614.681 -6.221581 -8614.168 -5.575613 L -8610.757 -1.278153 C -8610.211 -.59012534 -8609.626 .06605618 -8609.005 .6871669 L -8604.339 5.35321 C -8603.938 5.75409 -8603.523 6.1400115 -8603.093 6.510183 L -8598.53 10.444256 C -8598.135 10.784478 -8597.729 11.11119 -8597.312 11.423827 L -8593.337 14.405032 C -8592.671 14.904467 -8591.979 15.367383 -8591.263 15.791737 L -8587.13 18.24096 C -8587.002 18.31681 -8586.873 18.391414 -8586.743 18.464765 L -8582.046 21.126708 C -8581.308 21.545073 -8580.547 21.922258 -8579.767 22.256534 L -8576.217 23.777883 C -8575.631 24.02901 -8575.035 24.255666 -8574.43 24.457264 L -8569.412 26.129966 C -8568.165 26.545714 -8566.884 26.853756 -8565.584 27.050706 L -8561.485 27.671744 C -8561.12 27.727064 -8560.754 27.773583 -8560.386 27.81126 L -8553.505 28.517015 C -8553.26 28.54216 -8553.015 28.563364 -8552.769 28.580618 L -8548.242 28.89831 C -8547.706 28.935915 -8547.169 28.954734 -8546.632 28.954734 L -8543.37 28.954736 C -8542.416 28.954736 -8541.463 28.89542 -8540.517 28.777127 L -8536.528 28.278537 C -8535.868 28.196042 -8535.212 28.08496 -8534.562 27.945602 L -8528.48 26.64231 C -8527.586 26.450764 -8526.704 26.206097 -8525.839 25.90961 L -8521.33 24.36372 C -8520.536 24.091269 -8519.757 23.775486 -8518.997 23.417793 L -8514.163 21.143263 C -8513.613 20.884347 -8513.073 20.603714 -8512.545 20.302025 L -8508.777 18.148958 C -8508.085 17.753078 -8507.413 17.321415 -8506.765 16.85572 L -8502.089 13.494754 C -8501.588 13.134888 -8501.102 12.755033 -8500.632 12.35611 L -8495.311 7.841445 C -8494.929 7.517059 -8494.557 7.180259 -8494.197 6.831584 L -8489.498 2.2839562 C -8488.858 1.6649978 -8488.255 1.0094352 -8487.691 .32057613 L -8483.898 -4.3156584 C -8483.391 -4.9349737 -8482.917 -5.5803105 -8482.478 -6.249036 L -8478.861 -11.753436 C -8478.645 -12.081268 -8478.438 -12.414558 -8478.24 -12.752979 L -8475.717 -17.057076 C -8475.331 -17.71546 -8474.978 -18.392646 -8474.659 -19.08612 L -8472.541 -23.69739 C -8472.008 -24.85715 -8471.637 -26.084564 -8471.438 -27.345265 L -8471.438 -27.345265 C -8471.259 -28.474526 -8471.839 -29.587974 -8472.866 -30.090102 L -8478.159 -32.678005 C -8479.474 -33.32063 -8480.708 -34.11514 -8481.838 -35.045265 L -8482.244 -35.379625 C -8483.088 -36.074957 -8483.711 -37.001262 -8484.038 -38.045265 L -8484.038 -38.045265 C -8484.084 -38.19458 -8484.243 -38.2778 -8484.392 -38.23114 C -8484.508 -38.195177 -8484.587 -38.090315 -8484.591 -37.969812 L -8484.7 -34.54689 C -8484.791 -31.703814 -8485.408 -28.902236 -8486.521 -26.284333 L -8487.398 -24.220957 C -8487.957 -22.906686 -8488.636 -21.64729 -8489.428 -20.459088 L -8493.114 -14.930416 C -8493.862 -13.809152 -8494.706 -12.755752 -8495.638 -11.782376 L -8501.933 -5.207529 C -8502.801 -4.3008747 -8503.742 -3.466804 -8504.746 -2.7136733 L -8513.121 3.5675054 C -8513.998 4.2248184 -8514.92 4.818674 -8515.881 5.344537 L -8523.066 9.276062 C -8524.377 9.993469 -8525.755 10.581372 -8527.18 11.031432 L -8533.853 13.138666 C -8535.57 13.680837 -8537.345 14.019539 -8539.141 14.147815 L -8546.027 14.639704 C -8547.099 14.716297 -8548.176 14.717616 -8549.248 14.643652 L -8557.685 14.061841 C -8558.719 13.990518 -8559.747 13.84936 -8560.762 13.639333 L -8567.897 12.163084 C -8569.849 11.759231 -8571.74 11.103348 -8573.523 10.21192 L -8578.183 7.882215 C -8579.417 7.2651466 -8580.593 6.538274 -8581.697 5.7103895 L -8587.379 1.4489208 C -8587.818 1.119569 -8588.245 .7746019 -8588.66 .41468255 L -8594.415 -4.583238 C -8595.229 -5.2903805 -8595.992 -6.053921 -8596.7 -6.868206 L -8601.105 -11.94089 C -8601.859 -12.80925 -8602.547 -13.73295 -8603.163 -14.704217 L -8606.897 -20.591978 C -8607.257 -21.160562 -8607.592 -21.744705 -8607.902 -22.342717 L -8609.522 -25.47544 C -8610.131 -26.653118 -8610.637 -27.881264 -8611.035 -29.146155 L -8612.315 -33.219643 C -8612.53 -33.90302 -8612.713 -34.596055 -8612.863 -35.296485 L -8613.088 -36.34843 C -8613.173 -36.74544 -8612.947 -37.143094 -8612.562 -37.272633 L -8612.562 -37.272633 C -8612.49 -37.297037 -8612.411 -37.258052 -8612.387 -37.185558 C -8612.369 -37.132046 -8612.385 -37.072957 -8612.428 -37.03621 Z" stroke="#7f8080" stroke-linecap="round" stroke-linejoin="round" stroke-width="1"/>
      </g>
    </g>
  </g>
</svg>
