<?xml version="1.0" encoding="UTF-8" standalone="no"?>
<!DOCTYPE svg PUBLIC "-//W3C//DTD SVG 1.1//EN" "http://www.w3.org/Graphics/SVG/1.1/DTD/svg11.dtd">
<svg xmlns="http://www.w3.org/2000/svg" xmlns:xl="http://www.w3.org/1999/xlink" version="1.1" xmlns:dc="http://purl.org/dc/elements/1.1/" viewBox="17 -439 433 450" width="433" height="450">
  <defs>
    <radialGradient cx="0" cy="0" r="1" id="Gradient" gradientUnits="userSpaceOnUse">
      <stop offset="0" stop-color="white"/>
      <stop offset=".4338305" stop-color="#a1a1a1"/>
      <stop offset="1" stop-color="#2a2a2a"/>
    </radialGradient>
    <radialGradient id="Obj_Gradient" xl:href="#Gradient" gradientTransform="translate(232.75925 -410.6) scale(70.26272)"/>
  </defs>
  <metadata> Produced by OmniGraffle 7.19.2\n2024-03-02 19:12:10 +0000</metadata>
  <g id="Canvas_20" stroke-dasharray="none" fill="none" fill-opacity="1" stroke="none" stroke-opacity="1">
    <title>Canvas 20</title>
    <g id="Canvas_20_Capa_1">
      <title>Capa 1</title>
      <g id="Graphic_15">
        <path d="M 171.00565 -437.40955 L 179.1711 -434.29184 C 180.0291 -433.96424 180.90594 -433.68833 181.79692 -433.4656 L 195.5141 -430.0363 C 196.67576 -429.74587 197.85832 -429.5466 199.051 -429.44034 L 216.57715 -427.8786 C 217.165 -427.8262 217.75464 -427.7965 218.34478 -427.78946 L 233.8237 -427.6052 C 234.11404 -427.60173 234.40442 -427.60377 234.6947 -427.6113 L 249.118 -427.98594 C 249.47878 -427.9953 249.8393 -428.01317 250.19924 -428.0395 L 264.57053 -429.09107 C 265.56197 -429.1636 266.54766 -429.30036 267.5214 -429.50044 L 279.09436 -431.87845 C 280.13637 -432.09256 281.16226 -432.3787 282.16465 -432.7348 L 293.91664 -436.90986 C 295.007 -437.29723 296.2102 -436.76646 296.65925 -435.7 L 296.65925 -435.7 C 297.1814 -434.4599 297.3334 -433.09515 297.09685 -431.77055 L 296.91637 -430.75986 C 296.6126 -429.0587 296.11806 -427.3972 295.44214 -425.8068 L 293.89892 -422.1757 C 293.34035 -420.8614 292.6606 -419.602 291.86846 -418.4138 L 288.1827 -412.88515 C 287.43517 -411.7639 286.59057 -410.7105 285.6586 -409.7371 L 279.36354 -403.16226 C 278.49547 -402.2556 277.55463 -401.42154 276.55046 -400.6684 L 268.17555 -394.38723 C 267.29914 -393.7299 266.37688 -393.13606 265.41582 -392.6102 L 258.23062 -388.67867 C 256.9195 -387.96126 255.54156 -387.37336 254.11638 -386.9233 L 247.44347 -384.81607 C 245.7266 -384.2739 243.952 -383.9352 242.15613 -383.8069 L 235.26968 -383.31503 C 234.19738 -383.23844 233.12103 -383.2371 232.04854 -383.3111 L 223.6123 -383.8929 C 222.5781 -383.9642 221.54994 -384.10537 220.5348 -384.3154 L 213.3996 -385.79165 C 211.44765 -386.1955 209.55647 -386.8514 207.77362 -387.7428 L 203.1142 -390.0725 C 201.88007 -390.6896 200.70397 -391.41646 199.60012 -392.24434 L 193.91816 -396.5058 C 193.47903 -396.83517 193.05182 -397.18013 192.63737 -397.54005 L 186.88219 -402.53797 C 186.0679 -403.2451 185.30436 -404.00865 184.59722 -404.82294 L 180.192 -409.8956 C 179.4379 -410.764 178.74998 -411.6877 178.13406 -412.65895 L 174.40036 -418.5467 C 174.0398 -419.1153 173.70437 -419.69944 173.39505 -420.29745 L 171.77468 -423.43017 C 171.16553 -424.60785 170.65936 -425.836 170.26183 -427.1009 L 168.98159 -431.1744 C 168.76681 -431.85775 168.58408 -432.5508 168.43399 -433.2512 L 168.35925 -433.6 C 168.16458 -434.5084 168.27185 -435.45557 168.66473 -436.29746 L 168.75925 -436.5 C 169.15372 -437.3453 170.1342 -437.7423 171.00565 -437.40955 Z" fill="url(#Obj_Gradient)"/>
        <path d="M 171.00565 -437.40955 L 179.1711 -434.29184 C 180.0291 -433.96424 180.90594 -433.68833 181.79692 -433.4656 L 195.5141 -430.0363 C 196.67576 -429.74587 197.85832 -429.5466 199.051 -429.44034 L 216.57715 -427.8786 C 217.165 -427.8262 217.75464 -427.7965 218.34478 -427.78946 L 233.8237 -427.6052 C 234.11404 -427.60173 234.40442 -427.60377 234.6947 -427.6113 L 249.118 -427.98594 C 249.47878 -427.9953 249.8393 -428.01317 250.19924 -428.0395 L 264.57053 -429.09107 C 265.56197 -429.1636 266.54766 -429.30036 267.5214 -429.50044 L 279.09436 -431.87845 C 280.13637 -432.09256 281.16226 -432.3787 282.16465 -432.7348 L 293.91664 -436.90986 C 295.007 -437.29723 296.2102 -436.76646 296.65925 -435.7 L 296.65925 -435.7 C 297.1814 -434.4599 297.3334 -433.09515 297.09685 -431.77055 L 296.91637 -430.75986 C 296.6126 -429.0587 296.11806 -427.3972 295.44214 -425.8068 L 293.89892 -422.1757 C 293.34035 -420.8614 292.6606 -419.602 291.86846 -418.4138 L 288.1827 -412.88515 C 287.43517 -411.7639 286.59057 -410.7105 285.6586 -409.7371 L 279.36354 -403.16226 C 278.49547 -402.2556 277.55463 -401.42154 276.55046 -400.6684 L 268.17555 -394.38723 C 267.29914 -393.7299 266.37688 -393.13606 265.41582 -392.6102 L 258.23062 -388.67867 C 256.9195 -387.96126 255.54156 -387.37336 254.11638 -386.9233 L 247.44347 -384.81607 C 245.7266 -384.2739 243.952 -383.9352 242.15613 -383.8069 L 235.26968 -383.31503 C 234.19738 -383.23844 233.12103 -383.2371 232.04854 -383.3111 L 223.6123 -383.8929 C 222.5781 -383.9642 221.54994 -384.10537 220.5348 -384.3154 L 213.3996 -385.79165 C 211.44765 -386.1955 209.55647 -386.8514 207.77362 -387.7428 L 203.1142 -390.0725 C 201.88007 -390.6896 200.70397 -391.41646 199.60012 -392.24434 L 193.91816 -396.5058 C 193.47903 -396.83517 193.05182 -397.18013 192.63737 -397.54005 L 186.88219 -402.53797 C 186.0679 -403.2451 185.30436 -404.00865 184.59722 -404.82294 L 180.192 -409.8956 C 179.4379 -410.764 178.74998 -411.6877 178.13406 -412.65895 L 174.40036 -418.5467 C 174.0398 -419.1153 173.70437 -419.69944 173.39505 -420.29745 L 171.77468 -423.43017 C 171.16553 -424.60785 170.65936 -425.836 170.26183 -427.1009 L 168.98159 -431.1744 C 168.76681 -431.85775 168.58408 -432.5508 168.43399 -433.2512 L 168.35925 -433.6 C 168.16458 -434.5084 168.27185 -435.45557 168.66473 -436.29746 L 168.75925 -436.5 C 169.15372 -437.3453 170.1342 -437.7423 171.00565 -437.40955 Z" stroke="#7f8080" stroke-linecap="round" stroke-linejoin="round" stroke-width="1"/>
      </g>
      <g id="Graphic_14">
        <path d="M 105.33006 .1729297 L 119.0723 2.463303 C 119.25568 2.493866 119.43957 2.5212303 119.6239 2.545384 L 147.97754 6.260689 C 148.22407 6.2929924 148.47132 6.319545 148.71908 6.3403255 L 178.96197 8.876826 C 179.21888 8.898373 179.47627 8.913707 179.73391 8.922816 L 218.66482 10.299161 C 218.85318 10.30582 219.04165 10.309151 219.23013 10.309151 L 250.69745 10.309151 C 250.86406 10.309151 251.03067 10.306548 251.1972 10.301344 L 276.232 9.519007 C 276.44224 9.512437 276.65233 9.501721 276.86215 9.486867 L 298.9099 7.925964 C 299.06822 7.914756 299.22636 7.901193 299.38427 7.885279 L 324.64475 5.339649 C 324.8465 5.319319 325.04783 5.2951554 325.24865 5.267172 L 349.04134 1.9517963 C 349.24535 1.9233686 349.4488 1.891004 349.65156 1.8547203 L 358.8474 .20915072 C 364.1745 -.7441206 367.82536 -5.6977665 367.15895 -11.068302 L 364.95136 -28.858874 C 364.9487 -28.88019 364.9461 -28.901514 364.94355 -28.92284 L 361.37973 -58.62137 C 361.35817 -58.80101 361.33966 -58.981004 361.3242 -59.161274 L 358.962 -86.72048 C 358.95226 -86.83406 358.94374 -86.94773 358.93643 -87.06149 L 357.5498 -108.65313 C 357.5482 -108.67828 357.54652 -108.70342 357.5448 -108.72856 L 355.95263 -131.81487 C 355.94914 -131.86552 355.9459 -131.9162 355.94287 -131.96688 L 354.7665 -151.76905 C 354.75376 -151.98356 354.74534 -152.19831 354.74125 -152.41316 L 354.34897 -173.008 C 354.3479 -173.06323 354.34658 -173.11846 354.34495 -173.17368 L 353.74983 -193.40802 C 353.7482 -193.46324 353.74686 -193.51847 353.7458 -193.5737 L 353.35515 -214.08324 C 353.34998 -214.35494 353.35173 -214.62672 353.3604 -214.89833 L 353.94634 -233.25794 C 353.94704 -233.27988 353.9478 -233.30182 353.94857 -233.32376 L 354.73666 -255.19307 C 354.7438 -255.39158 354.75466 -255.58993 354.7692 -255.78803 L 356.32668 -277.00865 C 356.3405 -277.19677 356.35096 -277.38512 356.3581 -277.5736 L 357.11256 -297.4725 C 357.13576 -298.08423 357.19404 -298.69414 357.28713 -299.2992 L 360.02613 -317.10272 C 360.1069 -317.62782 360.2138 -318.14857 360.3464 -318.66303 L 364.97466 -336.6207 C 365.08976 -337.06725 365.2241 -337.50864 365.37734 -337.9436 L 371.0981 -354.18325 C 371.2642 -354.65473 371.4523 -355.11816 371.66178 -355.57203 L 377.19333 -367.55707 C 377.29602 -367.77956 377.4038 -367.99967 377.5166 -368.2172 L 382.87883 -378.55864 C 382.92454 -378.6468 382.97106 -378.7345 383.0184 -378.82177 L 388.23437 -388.43873 C 388.97165 -389.7981 389.9213 -391.031 391.0474 -392.09086 L 391.0474 -392.09086 C 391.7226 -392.72633 391.75478 -393.78883 391.1193 -394.464 C 390.9948 -394.5963 390.84967 -394.7075 390.68955 -394.79327 L 387.4754 -396.51513 C 387.25676 -396.63226 387.0354 -396.7443 386.81155 -396.85114 L 378.95757 -400.59963 C 378.55096 -400.7937 378.13634 -400.9705 377.7148 -401.12956 L 368.04 -404.78044 C 367.84494 -404.85404 367.64848 -404.92383 367.4507 -404.98975 L 354.75623 -409.22124 C 354.617 -409.26765 354.47716 -409.31214 354.3367 -409.3547 L 341.4532 -413.2588 C 341.38266 -413.28017 341.31227 -413.30203 341.24205 -413.32437 L 328.73805 -417.3029 C 328.34442 -417.42816 327.9558 -417.5686 327.57304 -417.72393 L 315.5971 -422.58373 C 314.76543 -422.9212 313.96364 -423.3281 313.2002 -423.8 L 303.58096 -429.74647 C 303.42526 -429.8427 303.2712 -429.94164 303.1189 -430.0432 L 298.2288 -433.30324 C 297.24742 -433.9575 296.3761 -434.7634 295.6474 -435.69086 L 295.6474 -435.69086 C 295.5418 -435.82526 295.34722 -435.8486 295.2128 -435.743 C 295.11007 -435.6623 295.0691 -435.52573 295.1104 -435.40177 L 295.2474 -434.99086 C 295.70664 -433.6131 295.8112 -432.1418 295.5514 -430.71297 L 295.15627 -428.5397 C 294.88506 -427.04804 294.4032 -425.6025 293.7252 -424.24645 L 292.19287 -421.1818 C 291.89617 -420.5884 291.56285 -420.01405 291.19484 -419.46203 L 287.99113 -414.65647 C 287.56253 -414.01357 287.08792 -413.40256 286.57104 -412.82824 L 282.009 -407.7593 C 281.96792 -407.71367 281.9266 -407.6683 281.885 -407.6231 L 275.89077 -401.1151 C 275.26303 -400.43356 274.5773 -399.80783 273.84125 -399.245 L 268.81707 -395.40297 C 268.37093 -395.0618 267.90712 -394.74435 267.4276 -394.45195 L 260.9412 -390.49683 C 260.27953 -390.0934 259.58943 -389.73853 258.87635 -389.4351 L 251.76094 -386.40726 C 250.95327 -386.06357 250.1187 -385.78693 249.26566 -385.58013 L 245.1866 -384.59127 C 244.36177 -384.3913 243.52233 -384.2573 242.67624 -384.1905 L 236.97603 -383.7405 C 236.5571 -383.7074 236.13702 -383.69086 235.7168 -383.69086 L 228.68447 -383.69086 C 227.92737 -383.69086 227.17122 -383.7446 226.42173 -383.85166 L 218.47528 -384.98687 C 217.99027 -385.05616 217.5087 -385.1477 217.0321 -385.26116 L 211.07087 -386.6805 C 209.92538 -386.95324 208.8135 -387.3516 207.75543 -387.8683 L 201.47543 -390.9353 C 200.99038 -391.1722 200.51763 -391.43346 200.05899 -391.71814 L 195.84712 -394.3324 C 195.24795 -394.7043 194.67403 -395.1154 194.1291 -395.563 L 189.683 -399.2152 C 189.4593 -399.39893 189.24063 -399.5887 189.02723 -399.78433 L 185.22489 -403.2698 C 184.7736 -403.6835 184.34641 -404.12275 183.94546 -404.5854 L 179.8267 -409.3378 C 179.50733 -409.7063 179.20496 -410.08923 178.92056 -410.48537 L 174.4909 -416.65525 C 173.996 -417.34456 173.55674 -418.07215 173.17725 -418.83114 L 170.60078 -423.98406 C 170.56519 -424.05526 170.53012 -424.1267 170.4956 -424.19843 L 169.24739 -426.79086 C 168.39667 -428.5577 168.04115 -430.52226 168.2187 -432.4752 L 168.3989 -434.45747 C 168.4227 -434.71933 168.22972 -434.9509 167.96786 -434.9747 C 167.80546 -434.9895 167.6468 -434.9201 167.54739 -434.79086 L 167.54739 -434.79086 C 166.88394 -433.9284 166.10383 -433.1623 165.22945 -432.5146 L 161.33292 -429.6283 C 161.20924 -429.53667 161.08424 -429.44684 160.95796 -429.35883 L 156.33571 -426.13726 C 155.14898 -425.31015 153.85556 -424.6478 152.4908 -424.16827 L 147.88368 -422.54955 C 147.39311 -422.3772 146.91123 -422.181 146.43976 -421.96173 L 139.59298 -418.7772 C 138.89682 -418.4534 138.17826 -418.1801 137.44286 -417.9595 L 126.57247 -414.6984 C 126.55575 -414.69336 126.53903 -414.6883 126.52233 -414.68325 L 115.55424 -411.35365 C 115.41634 -411.3118 115.27902 -411.26807 115.1423 -411.2225 L 102.22107 -406.9154 C 102.17195 -406.89904 102.12275 -406.8829 102.07347 -406.867 L 90.70606 -403.2001 C 90.06758 -402.99414 89.44268 -402.74823 88.83506 -402.4638 L 80.9031 -398.751 C 80.53276 -398.57763 80.1692 -398.39014 79.81322 -398.18894 L 73.86711 -394.8281 C 72.61408 -394.11985 72.17243 -392.52993 72.88067 -391.2769 C 72.957785 -391.14046 73.04705 -391.01125 73.147385 -390.89086 L 74.0115 -389.8539 C 74.76644 -388.948 75.41892 -387.96137 75.957035 -386.91204 L 79.03417 -380.9116 C 79.10964 -380.76445 79.18739 -380.61846 79.26739 -380.4737 L 83.22214 -373.3175 C 83.30563 -373.1664 83.38667 -373.014 83.46523 -372.8603 L 87.57354 -364.8223 C 87.8226 -364.335 88.04651 -363.83522 88.24436 -363.32497 L 91.72713 -354.3431 C 91.74063 -354.30827 91.75426 -354.2735 91.768 -354.23876 L 95.36433 -345.1533 C 95.48634 -344.8451 95.59874 -344.53313 95.70136 -344.2179 L 98.3232 -336.16514 C 98.33932 -336.1156 98.3552 -336.066 98.37084 -336.01634 L 101.44289 -326.25807 C 101.64568 -325.6139 101.80749 -324.95755 101.92734 -324.29294 L 103.91265 -313.2835 C 103.9358 -313.15507 103.95739 -313.02638 103.9774 -312.89743 L 105.68327 -301.90405 C 105.726 -301.62863 105.76154 -301.35215 105.78983 -301.07487 L 106.67725 -292.37816 C 106.72399 -291.92017 106.75093 -291.46038 106.75801 -291.00006 L 106.94225 -279.02444 C 106.94567 -278.80207 106.95373 -278.5798 106.96642 -278.35777 L 107.7368 -264.8762 C 107.74385 -264.75264 107.75235 -264.62916 107.76228 -264.5058 L 109.09585 -247.93142 C 109.13019 -247.50455 109.14739 -247.07647 109.14739 -246.6482 L 109.14739 -234.19843 C 109.14739 -233.9934 109.15133 -233.78838 109.15921 -233.5835 L 109.73956 -218.49436 C 109.74478 -218.3587 109.74827 -218.22297 109.75003 -218.0872 L 109.94219 -203.29095 C 109.94565 -203.02426 109.94245 -202.75752 109.93258 -202.491 L 109.35835 -186.98684 C 109.35104 -186.78953 109.34739 -186.5921 109.34739 -186.39466 L 109.34739 -172.79843 C 109.34739 -172.5934 109.34344 -172.38838 109.33556 -172.1835 L 108.75037 -156.9685 C 108.74838 -156.91673 108.74614 -156.86498 108.74364 -156.81324 L 107.94832 -140.3103 C 107.9477 -140.29734 107.94706 -140.28437 107.9464 -140.2714 L 107.15191 -124.58024 C 107.1489 -124.52065 107.14554 -124.46107 107.14186 -124.40152 L 105.95295 -105.18079 C 105.94924 -105.12083 105.94519 -105.0609 105.94081 -105.00098 L 104.15767 -80.63143 C 104.15081 -80.53771 104.14313 -80.44406 104.13462 -80.35047 L 102.34873 -60.70566 C 102.34783 -60.69579 102.34693 -60.685915 102.34601 -60.676044 L 100.57525 -41.59114 C 100.55667 -41.390964 100.53433 -41.191157 100.50823 -40.991825 L 98.54751 -26.019106 C 98.4147 -25.004912 98.14556 -24.013294 97.74738 -23.071124 L 97.74738 -23.071124 C 97.34981 -22.130378 97.10114 -21.133462 97.01032 -20.116201 L 96.24738 -11.571124 C 95.73963 -5.884095 99.69809 -.7657312 105.33006 .1729297 Z" fill="white"/>
        <path d="M 105.33006 .1729297 L 119.0723 2.463303 C 119.25568 2.493866 119.43957 2.5212303 119.6239 2.545384 L 147.97754 6.260689 C 148.22407 6.2929924 148.47132 6.319545 148.71908 6.3403255 L 178.96197 8.876826 C 179.21888 8.898373 179.47627 8.913707 179.73391 8.922816 L 218.66482 10.299161 C 218.85318 10.30582 219.04165 10.309151 219.23013 10.309151 L 250.69745 10.309151 C 250.86406 10.309151 251.03067 10.306548 251.1972 10.301344 L 276.232 9.519007 C 276.44224 9.512437 276.65233 9.501721 276.86215 9.486867 L 298.9099 7.925964 C 299.06822 7.914756 299.22636 7.901193 299.38427 7.885279 L 324.64475 5.339649 C 324.8465 5.319319 325.04783 5.2951554 325.24865 5.267172 L 349.04134 1.9517963 C 349.24535 1.9233686 349.4488 1.891004 349.65156 1.8547203 L 358.8474 .20915072 C 364.1745 -.7441206 367.82536 -5.6977665 367.15895 -11.068302 L 364.95136 -28.858874 C 364.9487 -28.88019 364.9461 -28.901514 364.94355 -28.92284 L 361.37973 -58.62137 C 361.35817 -58.80101 361.33966 -58.981004 361.3242 -59.161274 L 358.962 -86.72048 C 358.95226 -86.83406 358.94374 -86.94773 358.93643 -87.06149 L 357.5498 -108.65313 C 357.5482 -108.67828 357.54652 -108.70342 357.5448 -108.72856 L 355.95263 -131.81487 C 355.94914 -131.86552 355.9459 -131.9162 355.94287 -131.96688 L 354.7665 -151.76905 C 354.75376 -151.98356 354.74534 -152.19831 354.74125 -152.41316 L 354.34897 -173.008 C 354.3479 -173.06323 354.34658 -173.11846 354.34495 -173.17368 L 353.74983 -193.40802 C 353.7482 -193.46324 353.74686 -193.51847 353.7458 -193.5737 L 353.35515 -214.08324 C 353.34998 -214.35494 353.35173 -214.62672 353.3604 -214.89833 L 353.94634 -233.25794 C 353.94704 -233.27988 353.9478 -233.30182 353.94857 -233.32376 L 354.73666 -255.19307 C 354.7438 -255.39158 354.75466 -255.58993 354.7692 -255.78803 L 356.32668 -277.00865 C 356.3405 -277.19677 356.35096 -277.38512 356.3581 -277.5736 L 357.11256 -297.4725 C 357.13576 -298.08423 357.19404 -298.69414 357.28713 -299.2992 L 360.02613 -317.10272 C 360.1069 -317.62782 360.2138 -318.14857 360.3464 -318.66303 L 364.97466 -336.6207 C 365.08976 -337.06725 365.2241 -337.50864 365.37734 -337.9436 L 371.0981 -354.18325 C 371.2642 -354.65473 371.4523 -355.11816 371.66178 -355.57203 L 377.19333 -367.55707 C 377.29602 -367.77956 377.4038 -367.99967 377.5166 -368.2172 L 382.87883 -378.55864 C 382.92454 -378.6468 382.97106 -378.7345 383.0184 -378.82177 L 388.23437 -388.43873 C 388.97165 -389.7981 389.9213 -391.031 391.0474 -392.09086 L 391.0474 -392.09086 C 391.7226 -392.72633 391.75478 -393.78883 391.1193 -394.464 C 390.9948 -394.5963 390.84967 -394.7075 390.68955 -394.79327 L 387.4754 -396.51513 C 387.25676 -396.63226 387.0354 -396.7443 386.81155 -396.85114 L 378.95757 -400.59963 C 378.55096 -400.7937 378.13634 -400.9705 377.7148 -401.12956 L 368.04 -404.78044 C 367.84494 -404.85404 367.64848 -404.92383 367.4507 -404.98975 L 354.75623 -409.22124 C 354.617 -409.26765 354.47716 -409.31214 354.3367 -409.3547 L 341.4532 -413.2588 C 341.38266 -413.28017 341.31227 -413.30203 341.24205 -413.32437 L 328.73805 -417.3029 C 328.34442 -417.42816 327.9558 -417.5686 327.57304 -417.72393 L 315.5971 -422.58373 C 314.76543 -422.9212 313.96364 -423.3281 313.2002 -423.8 L 303.58096 -429.74647 C 303.42526 -429.8427 303.2712 -429.94164 303.1189 -430.0432 L 298.2288 -433.30324 C 297.24742 -433.9575 296.3761 -434.7634 295.6474 -435.69086 L 295.6474 -435.69086 C 295.5418 -435.82526 295.34722 -435.8486 295.2128 -435.743 C 295.11007 -435.6623 295.0691 -435.52573 295.1104 -435.40177 L 295.2474 -434.99086 C 295.70664 -433.6131 295.8112 -432.1418 295.5514 -430.71297 L 295.15627 -428.5397 C 294.88506 -427.04804 294.4032 -425.6025 293.7252 -424.24645 L 292.19287 -421.1818 C 291.89617 -420.5884 291.56285 -420.01405 291.19484 -419.46203 L 287.99113 -414.65647 C 287.56253 -414.01357 287.08792 -413.40256 286.57104 -412.82824 L 282.009 -407.7593 C 281.96792 -407.71367 281.9266 -407.6683 281.885 -407.6231 L 275.89077 -401.1151 C 275.26303 -400.43356 274.5773 -399.80783 273.84125 -399.245 L 268.81707 -395.40297 C 268.37093 -395.0618 267.90712 -394.74435 267.4276 -394.45195 L 260.9412 -390.49683 C 260.27953 -390.0934 259.58943 -389.73853 258.87635 -389.4351 L 251.76094 -386.40726 C 250.95327 -386.06357 250.1187 -385.78693 249.26566 -385.58013 L 245.1866 -384.59127 C 244.36177 -384.3913 243.52233 -384.2573 242.67624 -384.1905 L 236.97603 -383.7405 C 236.5571 -383.7074 236.13702 -383.69086 235.7168 -383.69086 L 228.68447 -383.69086 C 227.92737 -383.69086 227.17122 -383.7446 226.42173 -383.85166 L 218.47528 -384.98687 C 217.99027 -385.05616 217.5087 -385.1477 217.0321 -385.26116 L 211.07087 -386.6805 C 209.92538 -386.95324 208.8135 -387.3516 207.75543 -387.8683 L 201.47543 -390.9353 C 200.99038 -391.1722 200.51763 -391.43346 200.05899 -391.71814 L 195.84712 -394.3324 C 195.24795 -394.7043 194.67403 -395.1154 194.1291 -395.563 L 189.683 -399.2152 C 189.4593 -399.39893 189.24063 -399.5887 189.02723 -399.78433 L 185.22489 -403.2698 C 184.7736 -403.6835 184.34641 -404.12275 183.94546 -404.5854 L 179.8267 -409.3378 C 179.50733 -409.7063 179.20496 -410.08923 178.92056 -410.48537 L 174.4909 -416.65525 C 173.996 -417.34456 173.55674 -418.07215 173.17725 -418.83114 L 170.60078 -423.98406 C 170.56519 -424.05526 170.53012 -424.1267 170.4956 -424.19843 L 169.24739 -426.79086 C 168.39667 -428.5577 168.04115 -430.52226 168.2187 -432.4752 L 168.3989 -434.45747 C 168.4227 -434.71933 168.22972 -434.9509 167.96786 -434.9747 C 167.80546 -434.9895 167.6468 -434.9201 167.54739 -434.79086 L 167.54739 -434.79086 C 166.88394 -433.9284 166.10383 -433.1623 165.22945 -432.5146 L 161.33292 -429.6283 C 161.20924 -429.53667 161.08424 -429.44684 160.95796 -429.35883 L 156.33571 -426.13726 C 155.14898 -425.31015 153.85556 -424.6478 152.4908 -424.16827 L 147.88368 -422.54955 C 147.39311 -422.3772 146.91123 -422.181 146.43976 -421.96173 L 139.59298 -418.7772 C 138.89682 -418.4534 138.17826 -418.1801 137.44286 -417.9595 L 126.57247 -414.6984 C 126.55575 -414.69336 126.53903 -414.6883 126.52233 -414.68325 L 115.55424 -411.35365 C 115.41634 -411.3118 115.27902 -411.26807 115.1423 -411.2225 L 102.22107 -406.9154 C 102.17195 -406.89904 102.12275 -406.8829 102.07347 -406.867 L 90.70606 -403.2001 C 90.06758 -402.99414 89.44268 -402.74823 88.83506 -402.4638 L 80.9031 -398.751 C 80.53276 -398.57763 80.1692 -398.39014 79.81322 -398.18894 L 73.86711 -394.8281 C 72.61408 -394.11985 72.17243 -392.52993 72.88067 -391.2769 C 72.957785 -391.14046 73.04705 -391.01125 73.147385 -390.89086 L 74.0115 -389.8539 C 74.76644 -388.948 75.41892 -387.96137 75.957035 -386.91204 L 79.03417 -380.9116 C 79.10964 -380.76445 79.18739 -380.61846 79.26739 -380.4737 L 83.22214 -373.3175 C 83.30563 -373.1664 83.38667 -373.014 83.46523 -372.8603 L 87.57354 -364.8223 C 87.8226 -364.335 88.04651 -363.83522 88.24436 -363.32497 L 91.72713 -354.3431 C 91.74063 -354.30827 91.75426 -354.2735 91.768 -354.23876 L 95.36433 -345.1533 C 95.48634 -344.8451 95.59874 -344.53313 95.70136 -344.2179 L 98.3232 -336.16514 C 98.33932 -336.1156 98.3552 -336.066 98.37084 -336.01634 L 101.44289 -326.25807 C 101.64568 -325.6139 101.80749 -324.95755 101.92734 -324.29294 L 103.91265 -313.2835 C 103.9358 -313.15507 103.95739 -313.02638 103.9774 -312.89743 L 105.68327 -301.90405 C 105.726 -301.62863 105.76154 -301.35215 105.78983 -301.07487 L 106.67725 -292.37816 C 106.72399 -291.92017 106.75093 -291.46038 106.75801 -291.00006 L 106.94225 -279.02444 C 106.94567 -278.80207 106.95373 -278.5798 106.96642 -278.35777 L 107.7368 -264.8762 C 107.74385 -264.75264 107.75235 -264.62916 107.76228 -264.5058 L 109.09585 -247.93142 C 109.13019 -247.50455 109.14739 -247.07647 109.14739 -246.6482 L 109.14739 -234.19843 C 109.14739 -233.9934 109.15133 -233.78838 109.15921 -233.5835 L 109.73956 -218.49436 C 109.74478 -218.3587 109.74827 -218.22297 109.75003 -218.0872 L 109.94219 -203.29095 C 109.94565 -203.02426 109.94245 -202.75752 109.93258 -202.491 L 109.35835 -186.98684 C 109.35104 -186.78953 109.34739 -186.5921 109.34739 -186.39466 L 109.34739 -172.79843 C 109.34739 -172.5934 109.34344 -172.38838 109.33556 -172.1835 L 108.75037 -156.9685 C 108.74838 -156.91673 108.74614 -156.86498 108.74364 -156.81324 L 107.94832 -140.3103 C 107.9477 -140.29734 107.94706 -140.28437 107.9464 -140.2714 L 107.15191 -124.58024 C 107.1489 -124.52065 107.14554 -124.46107 107.14186 -124.40152 L 105.95295 -105.18079 C 105.94924 -105.12083 105.94519 -105.0609 105.94081 -105.00098 L 104.15767 -80.63143 C 104.15081 -80.53771 104.14313 -80.44406 104.13462 -80.35047 L 102.34873 -60.70566 C 102.34783 -60.69579 102.34693 -60.685915 102.34601 -60.676044 L 100.57525 -41.59114 C 100.55667 -41.390964 100.53433 -41.191157 100.50823 -40.991825 L 98.54751 -26.019106 C 98.4147 -25.004912 98.14556 -24.013294 97.74738 -23.071124 L 97.74738 -23.071124 C 97.34981 -22.130378 97.10114 -21.133462 97.01032 -20.116201 L 96.24738 -11.571124 C 95.73963 -5.884095 99.69809 -.7657312 105.33006 .1729297 Z" stroke="#7f8080" stroke-linecap="round" stroke-linejoin="round" stroke-width="1"/>
      </g>
      <g id="Graphic_13">
        <path d="M 18 -286.55385 L 24.2 -282.15385 L 32.4 -278.15385 L 41 -274.55385 L 50 -270.75385 L 61 -266.75385 L 70.4 -263.95385 L 79.4 -261.35385 L 88.4 -258.75385 L 93.8 -257.35385 L 99.4 -256.35385 L 101.8 -262.15385 L 104.4 -267.55385 L 106.6 -271.55385 L 109.2 -274.95385 L 109.4 -283.95385 L 108.8 -294.95385 L 107 -305.75385 L 105.4 -316.15385 L 102.8 -327.15386 L 100.4 -336.75386 L 97.6 -344.75386 L 94.4 -354.15386 L 91.6 -361.55386 L 88 -369.15386 L 84 -376.75386 L 80 -384.15386 L 77.4 -387.75386 L 73.8 -393.55386 L 68.4 -389.15386 L 63.6 -384.35386 L 59 -378.15386 L 54.6 -371.95386 L 49.8 -363.35386 L 45 -353.95386 L 40.2 -344.75386 L 36.6 -336.15386 L 32.6 -327.15386 L 29.4 -318.95385 L 25.6 -309.55385 L 22.8 -301.55385 L 19.8 -293.15385 Z" fill="white"/>
        <path d="M 18 -286.55385 L 24.2 -282.15385 L 32.4 -278.15385 L 41 -274.55385 L 50 -270.75385 L 61 -266.75385 L 70.4 -263.95385 L 79.4 -261.35385 L 88.4 -258.75385 L 93.8 -257.35385 L 99.4 -256.35385 L 101.8 -262.15385 L 104.4 -267.55385 L 106.6 -271.55385 L 109.2 -274.95385 L 109.4 -283.95385 L 108.8 -294.95385 L 107 -305.75385 L 105.4 -316.15385 L 102.8 -327.15386 L 100.4 -336.75386 L 97.6 -344.75386 L 94.4 -354.15386 L 91.6 -361.55386 L 88 -369.15386 L 84 -376.75386 L 80 -384.15386 L 77.4 -387.75386 L 73.8 -393.55386 L 68.4 -389.15386 L 63.6 -384.35386 L 59 -378.15386 L 54.6 -371.95386 L 49.8 -363.35386 L 45 -353.95386 L 40.2 -344.75386 L 36.6 -336.15386 L 32.6 -327.15386 L 29.4 -318.95385 L 25.6 -309.55385 L 22.8 -301.55385 L 19.8 -293.15385 Z" stroke="#7f8080" stroke-linecap="round" stroke-linejoin="round" stroke-width="1"/>
      </g>
      <g id="Graphic_12">
        <path d="M 449.4053 -287.49725 L 443.2053 -283.09725 L 435.0053 -279.09725 L 426.4053 -275.49725 L 417.4053 -271.69725 L 406.4053 -267.69725 L 397.0053 -264.89725 L 388.0053 -262.29725 L 379.0053 -259.69725 L 373.6053 -258.29725 L 368.0053 -257.29725 L 365.6053 -263.09725 L 363.0053 -268.49725 L 360.8053 -272.49725 L 358.2053 -275.89725 L 358.0053 -284.89725 L 358.6053 -295.89725 L 360.4053 -306.69725 L 362.0053 -317.09725 L 364.6053 -328.09725 L 367.0053 -337.69725 L 369.8053 -345.69725 L 373.0053 -355.09725 L 375.8053 -362.49725 L 379.4053 -370.09725 L 383.4053 -377.69725 L 387.4053 -385.09725 L 390.0053 -388.69725 L 393.6053 -394.49725 L 399.0053 -390.09725 L 403.8053 -385.29725 L 408.4053 -379.09725 L 412.8053 -372.89725 L 417.6053 -364.29725 L 422.4053 -354.89725 L 427.2053 -345.69725 L 430.8053 -337.09725 L 434.8053 -328.09725 L 438.0053 -319.89725 L 441.8053 -310.49725 L 444.6053 -302.49725 L 447.6053 -294.09725 Z" fill="white"/>
        <path d="M 449.4053 -287.49725 L 443.2053 -283.09725 L 435.0053 -279.09725 L 426.4053 -275.49725 L 417.4053 -271.69725 L 406.4053 -267.69725 L 397.0053 -264.89725 L 388.0053 -262.29725 L 379.0053 -259.69725 L 373.6053 -258.29725 L 368.0053 -257.29725 L 365.6053 -263.09725 L 363.0053 -268.49725 L 360.8053 -272.49725 L 358.2053 -275.89725 L 358.0053 -284.89725 L 358.6053 -295.89725 L 360.4053 -306.69725 L 362.0053 -317.09725 L 364.6053 -328.09725 L 367.0053 -337.69725 L 369.8053 -345.69725 L 373.0053 -355.09725 L 375.8053 -362.49725 L 379.4053 -370.09725 L 383.4053 -377.69725 L 387.4053 -385.09725 L 390.0053 -388.69725 L 393.6053 -394.49725 L 399.0053 -390.09725 L 403.8053 -385.29725 L 408.4053 -379.09725 L 412.8053 -372.89725 L 417.6053 -364.29725 L 422.4053 -354.89725 L 427.2053 -345.69725 L 430.8053 -337.09725 L 434.8053 -328.09725 L 438.0053 -319.89725 L 441.8053 -310.49725 L 444.6053 -302.49725 L 447.6053 -294.09725 Z" stroke="#7f8080" stroke-linecap="round" stroke-linejoin="round" stroke-width="1"/>
      </g>
      <g id="Graphic_11">
        <path d="M 18 -286.55385 L 24.2 -282.15385 L 32.4 -278.15385 L 41 -274.55385 L 50 -270.75385 L 61 -266.75385 L 70.4 -263.95385 L 79.4 -261.35385 L 88.4 -258.75385 L 93.8 -257.35385 L 99.4 -256.35385 L 102.4 -262.75385 L 98.6 -263.55385 L 93.8 -264.75385 L 88.2 -265.95385 L 82.2 -267.75385 L 77.6 -269.15385 L 73.4 -270.35385 L 68.8 -272.35385 L 64.2 -273.95385 L 59.4 -275.95385 L 55.4 -277.35385 L 50.2 -279.55385 L 45.6 -281.15385 L 40.8 -283.35385 L 36 -285.15385 L 32 -287.15385 L 27.6 -289.35385 L 23.2 -291.55385 L 19.8 -293.15385 Z" fill="#00d300"/>
        <path d="M 18 -286.55385 L 24.2 -282.15385 L 32.4 -278.15385 L 41 -274.55385 L 50 -270.75385 L 61 -266.75385 L 70.4 -263.95385 L 79.4 -261.35385 L 88.4 -258.75385 L 93.8 -257.35385 L 99.4 -256.35385 L 102.4 -262.75385 L 98.6 -263.55385 L 93.8 -264.75385 L 88.2 -265.95385 L 82.2 -267.75385 L 77.6 -269.15385 L 73.4 -270.35385 L 68.8 -272.35385 L 64.2 -273.95385 L 59.4 -275.95385 L 55.4 -277.35385 L 50.2 -279.55385 L 45.6 -281.15385 L 40.8 -283.35385 L 36 -285.15385 L 32 -287.15385 L 27.6 -289.35385 L 23.2 -291.55385 L 19.8 -293.15385 Z" stroke="#7f8080" stroke-linecap="round" stroke-linejoin="round" stroke-width="1"/>
      </g>
      <g id="Graphic_10">
        <path d="M 449.4053 -287.49725 L 443.2053 -283.09725 L 435.0053 -279.09725 L 426.4053 -275.49725 L 417.4053 -271.69725 L 406.4053 -267.69725 L 397.0053 -264.89725 L 388.0053 -262.29725 L 379.0053 -259.69725 L 373.6053 -258.29725 L 368.0053 -257.29725 L 365.0053 -263.69725 L 368.8053 -264.49725 L 373.6053 -265.69725 L 379.2053 -266.89725 L 385.2053 -268.69725 L 389.8053 -270.09725 L 394.0053 -271.29725 L 398.6053 -273.29725 L 403.2053 -274.89725 L 408.0053 -276.89725 L 412.0053 -278.29725 L 417.2053 -280.49725 L 421.8053 -282.09725 L 426.6053 -284.29725 L 431.4053 -286.09725 L 435.4053 -288.09725 L 439.8053 -290.29725 L 444.2053 -292.49725 L 447.6053 -294.09725 Z" fill="#00d300"/>
        <path d="M 449.4053 -287.49725 L 443.2053 -283.09725 L 435.0053 -279.09725 L 426.4053 -275.49725 L 417.4053 -271.69725 L 406.4053 -267.69725 L 397.0053 -264.89725 L 388.0053 -262.29725 L 379.0053 -259.69725 L 373.6053 -258.29725 L 368.0053 -257.29725 L 365.0053 -263.69725 L 368.8053 -264.49725 L 373.6053 -265.69725 L 379.2053 -266.89725 L 385.2053 -268.69725 L 389.8053 -270.09725 L 394.0053 -271.29725 L 398.6053 -273.29725 L 403.2053 -274.89725 L 408.0053 -276.89725 L 412.0053 -278.29725 L 417.2053 -280.49725 L 421.8053 -282.09725 L 426.6053 -284.29725 L 431.4053 -286.09725 L 435.4053 -288.09725 L 439.8053 -290.29725 L 444.2053 -292.49725 L 447.6053 -294.09725 Z" stroke="#7f8080" stroke-linecap="round" stroke-linejoin="round" stroke-width="1"/>
      </g>
      <g id="Graphic_9">
        <path d="M 168.05925 -436.2441 L 173.45925 -436.8441 L 180.25925 -433.4441 L 185.25925 -431.6441 L 193.65925 -429.8441 L 202.05925 -428.8441 L 210.05925 -427.8441 L 217.65925 -427.6441 L 226.25925 -427.2441 L 237.85925 -427.4441 L 246.25925 -427.8441 L 255.65925 -428.4441 L 264.05925 -429.2441 L 273.25925 -430.6441 L 281.45925 -432.8441 L 287.25925 -434.6441 L 292.85925 -437.2441 L 295.65925 -436.0441 L 296.05925 -430.4441 L 293.25925 -422.4441 L 287.85925 -419.6441 L 277.25925 -416.4441 L 265.85925 -414.0441 L 254.65925 -413.2441 L 242.25925 -412.2441 L 231.85925 -412.2441 L 222.45925 -412.2441 L 210.85925 -412.8441 L 199.65925 -413.6441 L 189.05925 -415.8441 L 180.45925 -417.8441 L 174.25925 -420.6441 L 172.25925 -422.2441 L 169.05925 -429.8441 Z" fill="#00ce00"/>
        <path d="M 168.05925 -436.2441 L 173.45925 -436.8441 L 180.25925 -433.4441 L 185.25925 -431.6441 L 193.65925 -429.8441 L 202.05925 -428.8441 L 210.05925 -427.8441 L 217.65925 -427.6441 L 226.25925 -427.2441 L 237.85925 -427.4441 L 246.25925 -427.8441 L 255.65925 -428.4441 L 264.05925 -429.2441 L 273.25925 -430.6441 L 281.45925 -432.8441 L 287.25925 -434.6441 L 292.85925 -437.2441 L 295.65925 -436.0441 L 296.05925 -430.4441 L 293.25925 -422.4441 L 287.85925 -419.6441 L 277.25925 -416.4441 L 265.85925 -414.0441 L 254.65925 -413.2441 L 242.25925 -412.2441 L 231.85925 -412.2441 L 222.45925 -412.2441 L 210.85925 -412.8441 L 199.65925 -413.6441 L 189.05925 -415.8441 L 180.45925 -417.8441 L 174.25925 -420.6441 L 172.25925 -422.2441 L 169.05925 -429.8441 Z" stroke="#7f8080" stroke-linecap="round" stroke-linejoin="round" stroke-width="1"/>
      </g>
      <g id="Graphic_8">
        <path d="M 340.2729 -5.1628117 L 351.47305 -6.166479 L 364.70958 -8.173814 L 368.78235 -10.181149 L 363.6914 -41.29484 L 360.6368 -68.39386 L 358.6004 -95.49289 L 355.54583 -122.5919 L 354.52763 -150.6946 L 354.52763 -179.80095 L 353.50944 -203.88897 L 353.50944 -241.02467 L 357.5 -277.5 L 360 -306 L 362.5 -321 L 366.5 -336 L 371.5 -350 L 376 -363.5 L 382.5 -377 L 389.5 -388.5 L 393.219 -395.58946 L 384.05527 -400.6078 L 370.81874 -405.62614 L 357.5822 -409.6408 L 338.23653 -414.65914 L 335 -5 Z" fill="#00d300"/>
        <path d="M 340.2729 -5.1628117 L 351.47305 -6.166479 L 364.70958 -8.173814 L 368.78235 -10.181149 L 363.6914 -41.29484 L 360.6368 -68.39386 L 358.6004 -95.49289 L 355.54583 -122.5919 L 354.52763 -150.6946 L 354.52763 -179.80095 L 353.50944 -203.88897 L 353.50944 -241.02467 L 357.5 -277.5 L 360 -306 L 362.5 -321 L 366.5 -336 L 371.5 -350 L 376 -363.5 L 382.5 -377 L 389.5 -388.5 L 393.219 -395.58946 L 384.05527 -400.6078 L 370.81874 -405.62614 L 357.5822 -409.6408 L 338.23653 -414.65914 L 335 -5 Z" stroke="#7f8080" stroke-linecap="round" stroke-linejoin="round" stroke-width="1"/>
      </g>
      <g id="Graphic_7">
        <path d="M 129.3417 -6.1138996 L 125.02797 -6.5388666 L 114.02797 -7.538867 L 101.02797 -9.538867 L 97.02797 -11.538867 L 102.02797 -42.538867 L 103.8417 -68.6139 L 106.3417 -96.6139 L 107.8417 -123.6139 L 108.3417 -152.6139 L 109.8417 -179.6139 L 110.3417 -205.1139 L 109.3417 -241.1139 L 108.3417 -274.6139 L 108.3417 -289.6139 L 105.8417 -305.1139 L 103.3417 -320.1139 L 98.8417 -335.6139 L 94.3417 -350.1139 L 89.3417 -363.6139 L 82.8417 -377.1139 L 76.3417 -387.6139 L 72.8417 -394.1139 L 82.02797 -400.53887 L 95.02797 -405.53887 L 108.02797 -409.53887 L 126.3417 -415.1139 L 131.8417 -416.6139 Z" fill="#00d300"/>
        <path d="M 129.3417 -6.1138996 L 125.02797 -6.5388666 L 114.02797 -7.538867 L 101.02797 -9.538867 L 97.02797 -11.538867 L 102.02797 -42.538867 L 103.8417 -68.6139 L 106.3417 -96.6139 L 107.8417 -123.6139 L 108.3417 -152.6139 L 109.8417 -179.6139 L 110.3417 -205.1139 L 109.3417 -241.1139 L 108.3417 -274.6139 L 108.3417 -289.6139 L 105.8417 -305.1139 L 103.3417 -320.1139 L 98.8417 -335.6139 L 94.3417 -350.1139 L 89.3417 -363.6139 L 82.8417 -377.1139 L 76.3417 -387.6139 L 72.8417 -394.1139 L 82.02797 -400.53887 L 95.02797 -405.53887 L 108.02797 -409.53887 L 126.3417 -415.1139 L 131.8417 -416.6139 Z" stroke="#7f8080" stroke-linecap="round" stroke-linejoin="round" stroke-width="1"/>
      </g>
      <g id="Graphic_6">
        <path d="M 169.5 -2 L 175 -1 L 189 -.5 L 210 -.5 L 210 -374 L 198 -378 L 191 -382 L 182 -388 L 173 -396.5 Z" fill="#00d300"/>
        <path d="M 169.5 -2 L 175 -1 L 189 -.5 L 210 -.5 L 210 -374 L 198 -378 L 191 -382 L 182 -388 L 173 -396.5 Z" stroke="#7f8080" stroke-linecap="round" stroke-linejoin="round" stroke-width="1"/>
      </g>
      <g id="Graphic_5">
        <path d="M 168.57212 -436.0362 L 163.84295 -431.98264 C 162.6926 -430.9966 161.44764 -430.1267 160.12621 -429.3855 L 157.59958 -427.96835 C 156.1644 -427.1634 155.5836 -425.39425 156.26239 -423.89527 L 157.28 -421.64803 C 157.40158 -421.37954 157.52831 -421.1134 157.66012 -420.8498 L 161.94938 -412.2713 C 162.29117 -411.5877 162.66683 -410.92157 163.07495 -410.27537 L 165.40134 -406.5919 C 165.84172 -405.89465 166.31928 -405.2216 166.83195 -404.5756 L 170.24264 -400.27815 C 170.7887 -399.59013 171.37371 -398.93394 171.99482 -398.31283 L 176.66087 -393.6468 C 177.06175 -393.2459 177.47731 -392.86 177.9067 -392.4898 L 182.47023 -388.55574 C 182.8649 -388.2155 183.271 -387.8888 183.68785 -387.57617 L 187.66279 -384.59497 C 188.3287 -384.09553 189.02123 -383.6326 189.73733 -383.20826 L 193.8704 -380.75904 C 193.9984 -380.6832 194.12712 -380.6086 194.25656 -380.53523 L 198.9541 -377.8733 C 199.6924 -377.45493 200.45328 -377.07774 201.23325 -376.74347 L 204.78307 -375.2221 C 205.36903 -374.971 205.96518 -374.74433 206.56997 -374.54274 L 211.58808 -372.87003 C 212.83532 -372.4543 214.11592 -372.14624 215.4158 -371.9493 L 219.51464 -371.32826 C 219.87976 -371.27294 220.24615 -371.2264 220.6135 -371.18874 L 227.4946 -370.483 C 227.73978 -370.45784 227.98534 -370.43664 228.2312 -370.4194 L 232.75835 -370.1017 C 233.2942 -370.0641 233.83122 -370.04527 234.3684 -370.04527 L 237.63046 -370.04526 C 238.58416 -370.04526 239.53693 -370.1046 240.48327 -370.22287 L 244.47198 -370.72146 C 245.13195 -370.80396 245.78802 -370.91504 246.43835 -371.0544 L 252.5204 -372.3577 C 253.41426 -372.54924 254.29592 -372.7939 255.16068 -373.0904 L 259.66952 -374.6363 C 260.46417 -374.90873 261.2433 -375.2245 262.0034 -375.5822 L 266.83677 -377.85674 C 267.38697 -378.11565 267.92668 -378.3963 268.45464 -378.69798 L 272.2225 -380.85104 C 272.9153 -381.2469 273.587 -381.6786 274.23494 -382.1443 L 278.91106 -385.50525 C 279.41175 -385.8651 279.89776 -386.24497 280.3679 -386.6439 L 285.68877 -391.15856 C 286.0711 -391.48294 286.4427 -391.81974 286.803 -392.1684 L 291.5022 -396.71604 C 292.1418 -397.335 292.7449 -397.99056 293.30852 -398.67942 L 297.1018 -403.31566 C 297.60852 -403.93497 298.08257 -404.5803 298.522 -405.24904 L 302.1392 -410.75344 C 302.35462 -411.08127 302.56163 -411.41456 302.76002 -411.753 L 305.2831 -416.0571 C 305.66906 -416.71546 306.022 -417.39265 306.34062 -418.0861 L 308.4593 -422.6974 C 308.99218 -423.85715 309.36334 -425.08456 309.5624 -426.34526 L 309.5624 -426.34526 C 309.7407 -427.47453 309.1614 -428.58797 308.1343 -429.0901 L 302.84088 -431.678 C 301.52642 -432.32063 300.29183 -433.11514 299.1624 -434.04526 L 298.7564 -434.3796 C 297.91205 -435.07496 297.28864 -436.00126 296.9624 -437.04526 L 296.9624 -437.04526 C 296.91573 -437.1946 296.75686 -437.2778 296.60754 -437.23114 C 296.49247 -437.1952 296.41277 -437.0903 296.40892 -436.9698 L 296.29968 -433.5469 C 296.20894 -430.7038 295.5916 -427.90224 294.479 -425.28433 L 293.60206 -423.22096 C 293.0435 -421.9067 292.36374 -420.6473 291.5716 -419.4591 L 287.88582 -413.9304 C 287.1383 -412.80915 286.2937 -411.75575 285.36175 -410.7824 L 279.0667 -404.20753 C 278.1986 -403.30087 277.25777 -402.4668 276.2536 -401.71367 L 267.8787 -395.4325 C 267.00228 -394.7752 266.08002 -394.18133 265.11896 -393.65546 L 257.93376 -389.72394 C 256.62263 -389.00653 255.2447 -388.41863 253.81952 -387.96857 L 247.1466 -385.86133 C 245.42973 -385.31916 243.65514 -384.98046 241.85927 -384.8522 L 234.97281 -384.3603 C 233.90052 -384.2837 232.82417 -384.2824 231.75168 -384.35635 L 223.31543 -384.93816 C 222.28125 -385.0095 221.25308 -385.15064 220.23795 -385.36067 L 213.10274 -386.8369 C 211.1508 -387.24077 209.25961 -387.89665 207.47676 -388.7881 L 202.81735 -391.1178 C 201.5832 -391.73485 200.4071 -392.46173 199.30326 -393.2896 L 193.6213 -397.5511 C 193.18217 -397.88043 192.75496 -398.2254 192.3405 -398.5853 L 186.58533 -403.58324 C 185.77104 -404.2904 185.0075 -405.0539 184.30036 -405.8682 L 179.89513 -410.9409 C 179.14103 -411.80925 178.45312 -412.73295 177.8372 -413.7042 L 174.1035 -419.592 C 173.74293 -420.16056 173.4075 -420.7447 173.09819 -421.3427 L 171.47781 -424.47544 C 170.86867 -425.6531 170.3625 -426.88126 169.96497 -428.14615 L 168.68473 -432.21964 C 168.46995 -432.903 168.28722 -433.59605 168.13713 -434.2965 L 167.9117 -435.34843 C 167.82664 -435.74544 168.053 -436.1431 168.4378 -436.27263 L 168.4378 -436.27263 C 168.5103 -436.29704 168.58884 -436.25805 168.61325 -436.18556 C 168.63126 -436.13205 168.615 -436.07296 168.57212 -436.0362 Z" fill="#00ce00"/>
        <path d="M 168.57212 -436.0362 L 163.84295 -431.98264 C 162.6926 -430.9966 161.44764 -430.1267 160.12621 -429.3855 L 157.59958 -427.96835 C 156.1644 -427.1634 155.5836 -425.39425 156.26239 -423.89527 L 157.28 -421.64803 C 157.40158 -421.37954 157.52831 -421.1134 157.66012 -420.8498 L 161.94938 -412.2713 C 162.29117 -411.5877 162.66683 -410.92157 163.07495 -410.27537 L 165.40134 -406.5919 C 165.84172 -405.89465 166.31928 -405.2216 166.83195 -404.5756 L 170.24264 -400.27815 C 170.7887 -399.59013 171.37371 -398.93394 171.99482 -398.31283 L 176.66087 -393.6468 C 177.06175 -393.2459 177.47731 -392.86 177.9067 -392.4898 L 182.47023 -388.55574 C 182.8649 -388.2155 183.271 -387.8888 183.68785 -387.57617 L 187.66279 -384.59497 C 188.3287 -384.09553 189.02123 -383.6326 189.73733 -383.20826 L 193.8704 -380.75904 C 193.9984 -380.6832 194.12712 -380.6086 194.25656 -380.53523 L 198.9541 -377.8733 C 199.6924 -377.45493 200.45328 -377.07774 201.23325 -376.74347 L 204.78307 -375.2221 C 205.36903 -374.971 205.96518 -374.74433 206.56997 -374.54274 L 211.58808 -372.87003 C 212.83532 -372.4543 214.11592 -372.14624 215.4158 -371.9493 L 219.51464 -371.32826 C 219.87976 -371.27294 220.24615 -371.2264 220.6135 -371.18874 L 227.4946 -370.483 C 227.73978 -370.45784 227.98534 -370.43664 228.2312 -370.4194 L 232.75835 -370.1017 C 233.2942 -370.0641 233.83122 -370.04527 234.3684 -370.04527 L 237.63046 -370.04526 C 238.58416 -370.04526 239.53693 -370.1046 240.48327 -370.22287 L 244.47198 -370.72146 C 245.13195 -370.80396 245.78802 -370.91504 246.43835 -371.0544 L 252.5204 -372.3577 C 253.41426 -372.54924 254.29592 -372.7939 255.16068 -373.0904 L 259.66952 -374.6363 C 260.46417 -374.90873 261.2433 -375.2245 262.0034 -375.5822 L 266.83677 -377.85674 C 267.38697 -378.11565 267.92668 -378.3963 268.45464 -378.69798 L 272.2225 -380.85104 C 272.9153 -381.2469 273.587 -381.6786 274.23494 -382.1443 L 278.91106 -385.50525 C 279.41175 -385.8651 279.89776 -386.24497 280.3679 -386.6439 L 285.68877 -391.15856 C 286.0711 -391.48294 286.4427 -391.81974 286.803 -392.1684 L 291.5022 -396.71604 C 292.1418 -397.335 292.7449 -397.99056 293.30852 -398.67942 L 297.1018 -403.31566 C 297.60852 -403.93497 298.08257 -404.5803 298.522 -405.24904 L 302.1392 -410.75344 C 302.35462 -411.08127 302.56163 -411.41456 302.76002 -411.753 L 305.2831 -416.0571 C 305.66906 -416.71546 306.022 -417.39265 306.34062 -418.0861 L 308.4593 -422.6974 C 308.99218 -423.85715 309.36334 -425.08456 309.5624 -426.34526 L 309.5624 -426.34526 C 309.7407 -427.47453 309.1614 -428.58797 308.1343 -429.0901 L 302.84088 -431.678 C 301.52642 -432.32063 300.29183 -433.11514 299.1624 -434.04526 L 298.7564 -434.3796 C 297.91205 -435.07496 297.28864 -436.00126 296.9624 -437.04526 L 296.9624 -437.04526 C 296.91573 -437.1946 296.75686 -437.2778 296.60754 -437.23114 C 296.49247 -437.1952 296.41277 -437.0903 296.40892 -436.9698 L 296.29968 -433.5469 C 296.20894 -430.7038 295.5916 -427.90224 294.479 -425.28433 L 293.60206 -423.22096 C 293.0435 -421.9067 292.36374 -420.6473 291.5716 -419.4591 L 287.88582 -413.9304 C 287.1383 -412.80915 286.2937 -411.75575 285.36175 -410.7824 L 279.0667 -404.20753 C 278.1986 -403.30087 277.25777 -402.4668 276.2536 -401.71367 L 267.8787 -395.4325 C 267.00228 -394.7752 266.08002 -394.18133 265.11896 -393.65546 L 257.93376 -389.72394 C 256.62263 -389.00653 255.2447 -388.41863 253.81952 -387.96857 L 247.1466 -385.86133 C 245.42973 -385.31916 243.65514 -384.98046 241.85927 -384.8522 L 234.97281 -384.3603 C 233.90052 -384.2837 232.82417 -384.2824 231.75168 -384.35635 L 223.31543 -384.93816 C 222.28125 -385.0095 221.25308 -385.15064 220.23795 -385.36067 L 213.10274 -386.8369 C 211.1508 -387.24077 209.25961 -387.89665 207.47676 -388.7881 L 202.81735 -391.1178 C 201.5832 -391.73485 200.4071 -392.46173 199.30326 -393.2896 L 193.6213 -397.5511 C 193.18217 -397.88043 192.75496 -398.2254 192.3405 -398.5853 L 186.58533 -403.58324 C 185.77104 -404.2904 185.0075 -405.0539 184.30036 -405.8682 L 179.89513 -410.9409 C 179.14103 -411.80925 178.45312 -412.73295 177.8372 -413.7042 L 174.1035 -419.592 C 173.74293 -420.16056 173.4075 -420.7447 173.09819 -421.3427 L 171.47781 -424.47544 C 170.86867 -425.6531 170.3625 -426.88126 169.96497 -428.14615 L 168.68473 -432.21964 C 168.46995 -432.903 168.28722 -433.59605 168.13713 -434.2965 L 167.9117 -435.34843 C 167.82664 -435.74544 168.053 -436.1431 168.4378 -436.27263 L 168.4378 -436.27263 C 168.5103 -436.29704 168.58884 -436.25805 168.61325 -436.18556 C 168.63126 -436.13205 168.615 -436.07296 168.57212 -436.0362 Z" stroke="#7f8080" stroke-linecap="round" stroke-linejoin="round" stroke-width="1"/>
      </g>
      <g id="Graphic_4">
        <path d="M 97.81321 -10.799991 L 97.81321 -10.799991 C 97.74753 -10.274514 97.81036 -9.740947 97.9963 -9.245098 L 98.64731 -7.5090765 C 98.82406 -7.037728 99.05115 -6.5868215 99.32462 -6.1641816 L 100.29243 -4.668469 C 100.83339 -3.832443 101.54649 -3.1214536 102.38412 -2.5829787 L 103.46217 -1.8899473 C 103.76243 -1.6969258 104.077 -1.5271531 104.40316 -1.3821148 L 105.72001 -.796514 C 106.31654 -.53123974 106.94725 -.35072025 107.59379 -.26020362 L 116.60421 1.0012553 C 116.6142 1.0026543 116.6242 1.0040318 116.6342 1.0053877 L 128.3502 2.5939977 C 128.3962 2.600235 128.44226 2.6060146 128.48838 2.6113356 L 138.77131 3.7978282 C 138.80324 3.801512 138.83519 3.804976 138.86716 3.8082195 L 152.57723 5.199096 C 152.60521 5.2019345 152.63321 5.2046046 152.66123 5.207106 L 163.76653 6.1986505 C 163.80164 6.201786 163.83679 6.204656 163.87195 6.207261 L 174.55848 6.998856 C 174.59896 7.001855 174.63947 7.004501 174.68 7.006795 L 185.18798 7.601586 C 185.2088 7.602765 185.2296 7.604036 185.25042 7.605401 L 197.2932 8.395091 C 197.3772 8.400599 197.46129 8.404592 197.54543 8.407067 L 210.99256 8.80257 C 211.01032 8.803093 211.02809 8.803683 211.04585 8.804341 L 221.6897 9.198558 C 221.77603 9.201755 221.8624 9.203354 221.9488 9.203354 L 232.5578 9.203354 C 232.59874 9.203354 232.63967 9.203713 232.6806 9.204431 L 243.76702 9.39893 C 243.9351 9.401878 244.1032 9.398772 244.27106 9.389617 L 254.8923 8.810277 C 254.9769 8.805662 255.06157 8.802584 255.1463 8.801043 L 265.91085 8.605324 C 265.98308 8.604011 266.0553 8.601579 266.12745 8.598031 L 278.14607 8.006951 C 278.19483 8.004553 278.24355 8.001645 278.29225 7.998228 L 289.5323 7.209453 C 289.59023 7.205387 289.64812 7.2006 289.70594 7.195094 L 302.1165 6.013134 C 302.18497 6.0066144 302.25352 6.001104 302.32214 5.996604 L 314.25416 5.2141764 C 314.36418 5.2069624 314.474 5.1971504 314.58355 5.1847486 L 324.9959 4.0059923 C 325.01144 4.0042334 325.02697 4.0024224 325.0425 4.0005594 L 334.9902 2.806834 C 335.00954 2.804514 335.02886 2.8021132 335.04818 2.799632 L 348.88394 1.0220927 C 348.98115 1.0096032 349.0781 .9950733 349.1747 .9785127 L 355.7282 -.1449422 C 355.92915 -.17939336 356.13153 -.20504748 356.33473 -.22183116 L 359.56706 -.4888054 C 360.4563 -.56225167 361.3233 -.8050277 362.12135 -1.2040598 L 363.60765 -1.947206 C 364.20824 -2.2475003 364.7625 -2.6326476 365.2534 -3.0908095 L 366.5885 -4.336919 C 367.1953 -4.9032846 367.65073 -5.6125264 367.9132 -6.399991 L 368.20805 -7.284477 C 368.2781 -7.494701 368.33817 -7.708134 368.388 -7.924055 L 368.8577 -9.959444 C 368.89293 -10.112076 368.8595 -10.272476 368.7662 -10.398319 L 368.7662 -10.398319 C 368.67587 -10.520198 368.52523 -10.581695 368.3754 -10.55786 L 359.89555 -9.208791 C 359.84466 -9.200695 359.79385 -9.192037 359.74315 -9.182818 L 346.7584 -6.8219525 C 346.6656 -6.805083 346.5725 -6.790091 346.4791 -6.776984 L 335.24943 -5.200888 C 335.2293 -5.19806 335.20914 -5.1951444 335.18902 -5.192141 L 322.06643 -3.2335456 C 321.90167 -3.208954 321.73608 -3.1902516 321.56998 -3.1774748 L 308.84517 -2.198643 C 308.82786 -2.1973118 308.81055 -2.196045 308.79323 -2.1948425 L 294.4531 -1.1989987 C 294.4305 -1.1974304 294.4079 -1.1959716 294.3853 -1.1946224 L 281.08205 -.4003983 C 281.04016 -.3978969 280.99824 -.3957724 280.9563 -.39402508 L 266.76485 .19728538 C 266.66776 .2013306 266.5706 .20335387 266.47344 .20335387 L 240.67753 .20335387 C 240.63865 .20335387 240.59976 .20367788 240.56088 .20432589 L 228.8025 .400299 C 228.68032 .40233524 228.55812 .40117217 228.436 .396811 L 217.6024 .009896718 C 217.4803 .005535563 217.35809 .004372498 217.23591 .0064087185 L 205.52127 .20165272 C 205.45323 .20278676 205.38518 .2029285 205.31713 .20207793 L 189.61484 .005799366 C 189.48444 .0041693496 189.35411 -.0011044531 189.224 -.010015867 L 174.91423 -.9901376 C 174.85088 -.9944764 174.7876 -.999677 174.7244 -1.0057377 L 160.23339 -2.3952863 C 160.22393 -2.396193 160.21448 -2.3971187 160.20503 -2.3980638 L 146.393 -3.7792674 C 146.27715 -3.7908514 146.16162 -3.8053236 146.0465 -3.8226703 L 131.73735 -5.978844 C 131.65859 -5.990711 131.57964 -6.001234 131.50052 -6.0104065 L 117.98059 -7.577935 C 117.87301 -7.590407 117.76574 -7.605375 117.65886 -7.622825 L 108.26677 -9.156227 C 108.10178 -9.183165 107.9378 -9.216004 107.77516 -9.254682 L 98.69756 -11.413462 C 98.30925 -11.505809 97.91959 -11.265877 97.82724 -10.877559 C 97.82116 -10.851977 97.81647 -10.826083 97.81321 -10.799991 Z" fill="#00d300"/>
        <path d="M 97.81321 -10.799991 L 97.81321 -10.799991 C 97.74753 -10.274514 97.81036 -9.740947 97.9963 -9.245098 L 98.64731 -7.5090765 C 98.82406 -7.037728 99.05115 -6.5868215 99.32462 -6.1641816 L 100.29243 -4.668469 C 100.83339 -3.832443 101.54649 -3.1214536 102.38412 -2.5829787 L 103.46217 -1.8899473 C 103.76243 -1.6969258 104.077 -1.5271531 104.40316 -1.3821148 L 105.72001 -.796514 C 106.31654 -.53123974 106.94725 -.35072025 107.59379 -.26020362 L 116.60421 1.0012553 C 116.6142 1.0026543 116.6242 1.0040318 116.6342 1.0053877 L 128.3502 2.5939977 C 128.3962 2.600235 128.44226 2.6060146 128.48838 2.6113356 L 138.77131 3.7978282 C 138.80324 3.801512 138.83519 3.804976 138.86716 3.8082195 L 152.57723 5.199096 C 152.60521 5.2019345 152.63321 5.2046046 152.66123 5.207106 L 163.76653 6.1986505 C 163.80164 6.201786 163.83679 6.204656 163.87195 6.207261 L 174.55848 6.998856 C 174.59896 7.001855 174.63947 7.004501 174.68 7.006795 L 185.18798 7.601586 C 185.2088 7.602765 185.2296 7.604036 185.25042 7.605401 L 197.2932 8.395091 C 197.3772 8.400599 197.46129 8.404592 197.54543 8.407067 L 210.99256 8.80257 C 211.01032 8.803093 211.02809 8.803683 211.04585 8.804341 L 221.6897 9.198558 C 221.77603 9.201755 221.8624 9.203354 221.9488 9.203354 L 232.5578 9.203354 C 232.59874 9.203354 232.63967 9.203713 232.6806 9.204431 L 243.76702 9.39893 C 243.9351 9.401878 244.1032 9.398772 244.27106 9.389617 L 254.8923 8.810277 C 254.9769 8.805662 255.06157 8.802584 255.1463 8.801043 L 265.91085 8.605324 C 265.98308 8.604011 266.0553 8.601579 266.12745 8.598031 L 278.14607 8.006951 C 278.19483 8.004553 278.24355 8.001645 278.29225 7.998228 L 289.5323 7.209453 C 289.59023 7.205387 289.64812 7.2006 289.70594 7.195094 L 302.1165 6.013134 C 302.18497 6.0066144 302.25352 6.001104 302.32214 5.996604 L 314.25416 5.2141764 C 314.36418 5.2069624 314.474 5.1971504 314.58355 5.1847486 L 324.9959 4.0059923 C 325.01144 4.0042334 325.02697 4.0024224 325.0425 4.0005594 L 334.9902 2.806834 C 335.00954 2.804514 335.02886 2.8021132 335.04818 2.799632 L 348.88394 1.0220927 C 348.98115 1.0096032 349.0781 .9950733 349.1747 .9785127 L 355.7282 -.1449422 C 355.92915 -.17939336 356.13153 -.20504748 356.33473 -.22183116 L 359.56706 -.4888054 C 360.4563 -.56225167 361.3233 -.8050277 362.12135 -1.2040598 L 363.60765 -1.947206 C 364.20824 -2.2475003 364.7625 -2.6326476 365.2534 -3.0908095 L 366.5885 -4.336919 C 367.1953 -4.9032846 367.65073 -5.6125264 367.9132 -6.399991 L 368.20805 -7.284477 C 368.2781 -7.494701 368.33817 -7.708134 368.388 -7.924055 L 368.8577 -9.959444 C 368.89293 -10.112076 368.8595 -10.272476 368.7662 -10.398319 L 368.7662 -10.398319 C 368.67587 -10.520198 368.52523 -10.581695 368.3754 -10.55786 L 359.89555 -9.208791 C 359.84466 -9.200695 359.79385 -9.192037 359.74315 -9.182818 L 346.7584 -6.8219525 C 346.6656 -6.805083 346.5725 -6.790091 346.4791 -6.776984 L 335.24943 -5.200888 C 335.2293 -5.19806 335.20914 -5.1951444 335.18902 -5.192141 L 322.06643 -3.2335456 C 321.90167 -3.208954 321.73608 -3.1902516 321.56998 -3.1774748 L 308.84517 -2.198643 C 308.82786 -2.1973118 308.81055 -2.196045 308.79323 -2.1948425 L 294.4531 -1.1989987 C 294.4305 -1.1974304 294.4079 -1.1959716 294.3853 -1.1946224 L 281.08205 -.4003983 C 281.04016 -.3978969 280.99824 -.3957724 280.9563 -.39402508 L 266.76485 .19728538 C 266.66776 .2013306 266.5706 .20335387 266.47344 .20335387 L 240.67753 .20335387 C 240.63865 .20335387 240.59976 .20367788 240.56088 .20432589 L 228.8025 .400299 C 228.68032 .40233524 228.55812 .40117217 228.436 .396811 L 217.6024 .009896718 C 217.4803 .005535563 217.35809 .004372498 217.23591 .0064087185 L 205.52127 .20165272 C 205.45323 .20278676 205.38518 .2029285 205.31713 .20207793 L 189.61484 .005799366 C 189.48444 .0041693496 189.35411 -.0011044531 189.224 -.010015867 L 174.91423 -.9901376 C 174.85088 -.9944764 174.7876 -.999677 174.7244 -1.0057377 L 160.23339 -2.3952863 C 160.22393 -2.396193 160.21448 -2.3971187 160.20503 -2.3980638 L 146.393 -3.7792674 C 146.27715 -3.7908514 146.16162 -3.8053236 146.0465 -3.8226703 L 131.73735 -5.978844 C 131.65859 -5.990711 131.57964 -6.001234 131.50052 -6.0104065 L 117.98059 -7.577935 C 117.87301 -7.590407 117.76574 -7.605375 117.65886 -7.622825 L 108.26677 -9.156227 C 108.10178 -9.183165 107.9378 -9.216004 107.77516 -9.254682 L 98.69756 -11.413462 C 98.30925 -11.505809 97.91959 -11.265877 97.82724 -10.877559 C 97.82116 -10.851977 97.81647 -10.826083 97.81321 -10.799991 Z" stroke="#7f8080" stroke-linecap="round" stroke-linejoin="round" stroke-width="1"/>
      </g>
      <g id="Graphic_3">
        <path d="M 263 -375.5 L 272 -380.5 L 278 -385 L 286 -391 L 292 -397.5 L 293 -2 L 279.5 -.5 L 268.5 -8526513e-20 L 262 .5 L 257 2842171e-20 L 255 -372.5 Z" fill="#00ce00"/>
        <path d="M 263 -375.5 L 272 -380.5 L 278 -385 L 286 -391 L 292 -397.5 L 293 -2 L 279.5 -.5 L 268.5 -8526513e-20 L 262 .5 L 257 2842171e-20 L 255 -372.5 Z" stroke="#7f8080" stroke-linecap="round" stroke-linejoin="round" stroke-width="1"/>
      </g>
    </g>
  </g>
</svg>
