<?xml version="1.0" encoding="UTF-8" standalone="no"?>
<!DOCTYPE svg PUBLIC "-//W3C//DTD SVG 1.1//EN" "http://www.w3.org/Graphics/SVG/1.1/DTD/svg11.dtd">
<svg xmlns:dc="http://purl.org/dc/elements/1.1/" xmlns="http://www.w3.org/2000/svg" version="1.1" xmlns:xl="http://www.w3.org/1999/xlink" viewBox="32 -60 433 449" width="433" height="449">
  <defs>
    <radialGradient cx="0" cy="0" r="1" id="Gradient" gradientUnits="userSpaceOnUse">
      <stop offset="0" stop-color="#cbcbcb"/>
      <stop offset=".4338305" stop-color="#a9887c"/>
      <stop offset="1" stop-color="#843918"/>
    </radialGradient>
    <radialGradient id="Obj_Gradient" xl:href="#Gradient" gradientTransform="translate(247.75925 -31.6) scale(70.26272)"/>
    <radialGradient cx="0" cy="0" r="1" id="Gradient_2" gradientUnits="userSpaceOnUse">
      <stop offset="0" stop-color="#5296e7"/>
      <stop offset="1" stop-color="#333"/>
    </radialGradient>
    <radialGradient id="Obj_Gradient_2" xl:href="#Gradient_2" gradientTransform="translate(75.2 104.24615) scale(46.03694)"/>
    <linearGradient x1="0" x2="1" id="Gradient_3" gradientUnits="userSpaceOnUse">
      <stop offset="0" stop-color="#00008d"/>
      <stop offset="1" stop-color="#75ace7"/>
    </linearGradient>
    <linearGradient id="Obj_Gradient_3" xl:href="#Gradient_3" gradientTransform="translate(247.05925 -58.24411) rotate(90) scale(25)"/>
    <radialGradient cx="0" cy="0" r="1" id="Gradient_4" gradientUnits="userSpaceOnUse">
      <stop offset="0" stop-color="#00008d"/>
      <stop offset="1" stop-color="#79b5e7"/>
    </radialGradient>
    <radialGradient id="Obj_Gradient_4" xl:href="#Gradient_4" gradientTransform="translate(247.78697 -24.644686) scale(83.83496)"/>
    <radialGradient cx="0" cy="0" r="1" id="Gradient_5" gradientUnits="userSpaceOnUse">
      <stop offset="0" stop-color="#172197"/>
      <stop offset="1" stop-color="#58c4f9"/>
    </radialGradient>
    <radialGradient id="Obj_Gradient_5" xl:href="#Gradient_5" gradientTransform="translate(248.32968 377.9834) scale(135.94141)"/>
    <radialGradient id="Obj_Gradient_6" xl:href="#Gradient_2" gradientTransform="translate(422.2053 103.30275) scale(46.03694)"/>
  </defs>
  <metadata> Produced by OmniGraffle 7.19.2\n2023-07-11 17:54:48 +0000</metadata>
  <g id="Canvas_1" stroke="none" fill="none" fill-opacity="1" stroke-opacity="1" stroke-dasharray="none">
    <title>Canvas 1</title>
    <g id="Canvas_1_Layer_1">
      <title>Layer 1</title>
      <g id="Graphic_13">
        <path d="M 186.00565 -58.409554 L 194.1711 -55.291836 C 195.0291 -54.96424 195.90594 -54.68833 196.79692 -54.46558 L 210.5141 -51.036287 C 211.67576 -50.74587 212.85832 -50.54662 214.051 -50.44034 L 231.57715 -48.8786 C 232.165 -48.82622 232.75464 -48.796483 233.34478 -48.78946 L 248.8237 -48.605185 C 249.11404 -48.60173 249.40442 -48.60377 249.6947 -48.61131 L 264.118 -48.98594 C 264.47878 -48.99531 264.8393 -49.013174 265.19924 -49.03951 L 279.57053 -50.09107 C 280.56197 -50.163613 281.54766 -50.30036 282.5214 -50.50044 L 294.09436 -52.87845 C 295.13637 -53.09256 296.16226 -53.3787 297.16465 -53.734814 L 308.91664 -57.909864 C 310.007 -58.29723 311.2102 -57.76646 311.65925 -56.7 L 311.65925 -56.7 C 312.1814 -55.459894 312.3334 -54.095146 312.09685 -52.77055 L 311.91637 -51.75986 C 311.6126 -50.058706 311.11806 -48.397204 310.44214 -46.80681 L 308.89892 -43.17569 C 308.34035 -41.86142 307.6606 -40.602025 306.86846 -39.41382 L 303.1827 -33.88515 C 302.43517 -32.763886 301.59057 -31.710487 300.6586 -30.73711 L 294.36354 -24.162263 C 293.49547 -23.25561 292.55463 -22.421538 291.55046 -21.668407 L 283.17555 -15.387229 C 282.29914 -14.729916 281.37688 -14.13606 280.41582 -13.610197 L 273.23062 -9.678672 C 271.9195 -8.961265 270.54156 -8.373362 269.11638 -7.923302 L 262.44347 -5.816068 C 260.7266 -5.2738973 258.952 -4.9351955 257.15613 -4.806919 L 250.26968 -4.3150297 C 249.19738 -4.238437 248.12103 -4.237118 247.04854 -4.311082 L 238.6123 -4.892893 C 237.5781 -4.9642156 236.54994 -5.1053734 235.5348 -5.315401 L 228.3996 -6.79165 C 226.44765 -7.195503 224.55647 -7.851386 222.77362 -8.742815 L 218.1142 -11.072519 C 216.88007 -11.689587 215.70397 -12.41646 214.60012 -13.244345 L 208.91816 -17.505813 C 208.47903 -17.835165 208.05182 -18.180132 207.63737 -18.540052 L 201.8822 -23.537972 C 201.0679 -24.245115 200.30436 -25.008655 199.59722 -25.82294 L 195.192 -30.895624 C 194.4379 -31.763985 193.74998 -32.687685 193.13406 -33.65895 L 189.40036 -39.54671 C 189.0398 -40.115296 188.70437 -40.69944 188.39505 -41.29745 L 186.77468 -44.430173 C 186.16553 -45.60785 185.65936 -46.836 185.26183 -48.10089 L 183.98159 -52.174377 C 183.76681 -52.85775 183.58408 -53.55079 183.43399 -54.25122 L 183.35925 -54.6 C 183.16458 -55.508426 183.27185 -56.45557 183.66473 -57.29746 L 183.75925 -57.5 C 184.15372 -58.34531 185.1342 -58.74229 186.00565 -58.409554 Z" fill="url(#Obj_Gradient)"/>
        <path d="M 186.00565 -58.409554 L 194.1711 -55.291836 C 195.0291 -54.96424 195.90594 -54.68833 196.79692 -54.46558 L 210.5141 -51.036287 C 211.67576 -50.74587 212.85832 -50.54662 214.051 -50.44034 L 231.57715 -48.8786 C 232.165 -48.82622 232.75464 -48.796483 233.34478 -48.78946 L 248.8237 -48.605185 C 249.11404 -48.60173 249.40442 -48.60377 249.6947 -48.61131 L 264.118 -48.98594 C 264.47878 -48.99531 264.8393 -49.013174 265.19924 -49.03951 L 279.57053 -50.09107 C 280.56197 -50.163613 281.54766 -50.30036 282.5214 -50.50044 L 294.09436 -52.87845 C 295.13637 -53.09256 296.16226 -53.3787 297.16465 -53.734814 L 308.91664 -57.909864 C 310.007 -58.29723 311.2102 -57.76646 311.65925 -56.7 L 311.65925 -56.7 C 312.1814 -55.459894 312.3334 -54.095146 312.09685 -52.77055 L 311.91637 -51.75986 C 311.6126 -50.058706 311.11806 -48.397204 310.44214 -46.80681 L 308.89892 -43.17569 C 308.34035 -41.86142 307.6606 -40.602025 306.86846 -39.41382 L 303.1827 -33.88515 C 302.43517 -32.763886 301.59057 -31.710487 300.6586 -30.73711 L 294.36354 -24.162263 C 293.49547 -23.25561 292.55463 -22.421538 291.55046 -21.668407 L 283.17555 -15.387229 C 282.29914 -14.729916 281.37688 -14.13606 280.41582 -13.610197 L 273.23062 -9.678672 C 271.9195 -8.961265 270.54156 -8.373362 269.11638 -7.923302 L 262.44347 -5.816068 C 260.7266 -5.2738973 258.952 -4.9351955 257.15613 -4.806919 L 250.26968 -4.3150297 C 249.19738 -4.238437 248.12103 -4.237118 247.04854 -4.311082 L 238.6123 -4.892893 C 237.5781 -4.9642156 236.54994 -5.1053734 235.5348 -5.315401 L 228.3996 -6.79165 C 226.44765 -7.195503 224.55647 -7.851386 222.77362 -8.742815 L 218.1142 -11.072519 C 216.88007 -11.689587 215.70397 -12.41646 214.60012 -13.244345 L 208.91816 -17.505813 C 208.47903 -17.835165 208.05182 -18.180132 207.63737 -18.540052 L 201.8822 -23.537972 C 201.0679 -24.245115 200.30436 -25.008655 199.59722 -25.82294 L 195.192 -30.895624 C 194.4379 -31.763985 193.74998 -32.687685 193.13406 -33.65895 L 189.40036 -39.54671 C 189.0398 -40.115296 188.70437 -40.69944 188.39505 -41.29745 L 186.77468 -44.430173 C 186.16553 -45.60785 185.65936 -46.836 185.26183 -48.10089 L 183.98159 -52.174377 C 183.76681 -52.85775 183.58408 -53.55079 183.43399 -54.25122 L 183.35925 -54.6 C 183.16458 -55.508426 183.27185 -56.45557 183.66473 -57.29746 L 183.75925 -57.5 C 184.15372 -58.34531 185.1342 -58.74229 186.00565 -58.409554 Z" stroke="#7f8080" stroke-linecap="round" stroke-linejoin="round" stroke-width="1"/>
      </g>
      <g id="Graphic_12">
        <path d="M 121.97346 378.2638 L 135.7157 380.55416 C 135.89907 380.5847 136.08297 380.6121 136.2673 380.63624 L 164.62094 384.35154 C 164.86747 384.38385 165.11472 384.4104 165.36248 384.4312 L 195.60537 386.9677 C 195.86227 386.98923 196.11966 387.00456 196.3773 387.01367 L 235.30822 388.39 C 235.49658 388.39668 235.68504 388.4 235.87352 388.4 L 267.34084 388.4 C 267.50746 388.4 267.67407 388.3974 267.8406 388.3922 L 292.8754 387.60986 C 293.08563 387.6033 293.29573 387.5926 293.50555 387.5777 L 315.5533 386.0168 C 315.7116 386.0056 315.86975 385.99205 316.02766 385.97614 L 341.28815 383.4305 C 341.4899 383.41017 341.69122 383.386 341.89204 383.35803 L 365.68474 380.04265 C 365.88875 380.01422 366.0922 379.98186 366.29496 379.94558 L 375.4908 378.3 C 380.8179 377.34674 384.46876 372.3931 383.80234 367.02255 L 381.59475 349.232 C 381.5921 349.21066 381.5895 349.18934 381.58695 349.168 L 378.02312 319.4695 C 378.00157 319.28985 377.98306 319.10985 377.9676 318.9296 L 375.6054 291.37037 C 375.59565 291.2568 375.58713 291.14312 375.57983 291.02936 L 374.1932 269.43772 C 374.1916 269.41258 374.1899 269.38744 374.1882 269.3623 L 372.59603 246.276 C 372.59253 246.22533 372.5893 246.17466 372.58627 246.12398 L 371.4099 226.3218 C 371.39716 226.1073 371.38874 225.89255 371.38465 225.6777 L 370.99236 205.08285 C 370.9913 205.02762 370.98997 204.9724 370.98835 204.91718 L 370.3932 184.68283 C 370.3916 184.62761 370.39026 184.57239 370.3892 184.51715 L 369.99855 164.00761 C 369.99337 163.73592 369.9951 163.46413 370.0038 163.19253 L 370.58973 144.83292 C 370.59044 144.81097 370.5912 144.78903 370.59197 144.7671 L 371.38005 122.89779 C 371.3872 122.69928 371.39806 122.50093 371.4126 122.30283 L 372.97007 101.08221 C 372.9839 100.89409 372.99436 100.70573 373.0015 100.51724 L 373.75596 80.61837 C 373.77915 80.00663 373.83744 79.39672 373.93052 78.79165 L 376.66953 60.988134 C 376.7503 60.463036 376.8572 59.94229 376.9898 59.427825 L 381.61806 41.470174 C 381.73316 41.0236 381.8675 40.582213 382.02073 40.147247 L 387.7415 23.907606 C 387.9076 23.436128 388.0957 22.972693 388.30517 22.518826 L 393.83673 10.533787 C 393.9394 10.311292 394.0472 10.091186 394.16 9.873643 L 399.52223 -.4677826 C 399.56793 -.55592503 399.61446 -.6436402 399.6618 -.7309166 L 404.87777 -10.347879 C 405.61505 -11.707236 406.5647 -12.940134 407.6908 -14 L 407.6908 -14 C 408.36598 -14.635472 408.39817 -15.697974 407.7627 -16.373163 C 407.6382 -16.505439 407.49307 -16.616634 407.33295 -16.702411 L 404.1188 -18.42427 C 403.90016 -18.541407 403.6788 -18.653443 403.45494 -18.760288 L 395.60097 -22.508776 C 395.19436 -22.702838 394.77974 -22.87964 394.3582 -23.038707 L 384.68338 -26.689588 C 384.48833 -26.76319 384.29187 -26.83297 384.0941 -26.898893 L 371.39963 -31.130385 C 371.2604 -31.176792 371.12055 -31.221283 370.9801 -31.263842 L 358.0966 -35.16794 C 358.02605 -35.189313 357.95567 -35.211173 357.88544 -35.23352 L 345.38144 -39.212062 C 344.9878 -39.337307 344.5992 -39.47775 344.21643 -39.63307 L 332.2405 -44.492873 C 331.40883 -44.83036 330.60704 -45.237225 329.8436 -45.709166 L 320.22436 -51.65561 C 320.06865 -51.75186 319.9146 -51.85078 319.7623 -51.95232 L 314.8722 -55.212384 C 313.8908 -55.86665 313.0195 -56.672547 312.2908 -57.6 L 312.2908 -57.6 C 312.18518 -57.734404 311.9906 -57.75775 311.8562 -57.65215 C 311.75347 -57.571424 311.7125 -57.43487 311.7538 -57.31092 L 311.8908 -56.9 C 312.35003 -55.52225 312.4546 -54.050963 312.1948 -52.62211 L 311.79967 -50.448845 C 311.52845 -48.957187 311.0466 -47.51165 310.3686 -46.155595 L 308.83626 -43.09096 C 308.53956 -42.49756 308.20624 -41.92319 307.83823 -41.371175 L 304.63453 -36.56562 C 304.20593 -35.922717 303.73132 -35.311707 303.21443 -34.737385 L 298.6524 -29.668445 C 298.61132 -29.622815 298.57 -29.577422 298.5284 -29.532268 L 292.53417 -23.024242 C 291.90643 -22.342702 291.22068 -21.716979 290.48465 -21.154129 L 285.46047 -17.312113 C 285.01432 -16.97094 284.55052 -16.653496 284.071 -16.3611 L 277.58458 -12.405974 C 276.92292 -12.002524 276.23283 -11.647678 275.51975 -11.344238 L 268.40434 -8.316404 C 267.59667 -7.972717 266.7621 -7.696074 265.90905 -7.489277 L 261.83 -6.500414 C 261.00516 -6.3004545 260.16573 -6.166442 259.31963 -6.099645 L 253.61943 -5.649629 C 253.2005 -5.616555 252.78042 -5.599999 252.3602 -5.599999 L 245.32787 -5.599999 C 244.57077 -5.599999 243.81462 -5.653737 243.06513 -5.760807 L 235.11868 -6.896014 C 234.63367 -6.965301 234.1521 -7.056828 233.6755 -7.1703065 L 227.71426 -8.589647 C 226.56878 -8.862382 225.4569 -9.260734 224.39883 -9.777466 L 218.11882 -12.844444 C 217.63377 -13.081329 217.16102 -13.342609 216.70238 -13.627282 L 212.49052 -16.241542 C 211.89135 -16.61344 211.31742 -17.024544 210.7725 -17.472165 L 206.3264 -21.124323 C 206.1027 -21.308073 205.88402 -21.49786 205.67063 -21.693477 L 201.86828 -25.178957 C 201.417 -25.592644 200.9898 -26.031893 200.58885 -26.494535 L 196.4701 -31.246934 C 196.15072 -31.61545 195.84836 -31.99838 195.56395 -32.394514 L 191.1343 -38.56439 C 190.6394 -39.253704 190.20013 -39.981296 189.82064 -40.74028 L 187.24418 -45.89321 C 187.20858 -45.9644 187.17352 -46.03586 187.13899 -46.107576 L 185.89078 -48.7 C 185.04007 -50.46687 184.68455 -52.431406 184.86209 -54.38436 L 185.0423 -56.366614 C 185.0661 -56.628476 184.87312 -56.860055 184.61125 -56.88386 C 184.44886 -56.898624 184.2902 -56.82925 184.19078 -56.7 L 184.19078 -56.7 C 183.52734 -55.83752 182.74723 -55.07144 181.87285 -54.423754 L 177.97632 -51.537433 C 177.85263 -51.445816 177.72763 -51.35599 177.60136 -51.26798 L 172.9791 -48.04641 C 171.79237 -47.21929 170.49895 -46.556924 169.1342 -46.07742 L 164.52708 -44.4587 C 164.0365 -44.286335 163.55463 -44.09016 163.08316 -43.870873 L 156.23638 -40.686324 C 155.54022 -40.36253 154.82165 -40.08926 154.08625 -39.86864 L 143.21586 -36.607524 C 143.19914 -36.60251 143.18243 -36.597464 143.16572 -36.592393 L 132.19764 -33.262795 C 132.05974 -33.220933 131.92241 -33.17721 131.7857 -33.13164 L 118.86446 -28.82456 C 118.81534 -28.808187 118.76614 -28.79205 118.71686 -28.776155 L 107.34946 -25.10925 C 106.71097 -24.903287 106.08607 -24.65737 105.47846 -24.372956 L 97.5465 -20.66012 C 97.17616 -20.48677 96.8126 -20.299287 96.45662 -20.098083 L 90.51051 -16.737235 C 89.25747 -16.028999 88.81583 -14.439075 89.52406 -13.186041 C 89.60118 -13.049603 89.69045 -12.920398 89.79078 -12.8 L 90.65489 -11.763066 C 91.40984 -10.857132 92.06231 -9.870511 92.60043 -8.821182 L 95.67757 -2.820763 C 95.75304 -2.673596 95.83079 -2.527608 95.91078 -2.3828516 L 99.86554 4.7733676 C 99.94903 4.9244466 100.03007 5.076867 100.10863 5.2305684 L 104.21693 13.268556 C 104.466 13.755865 104.6899 14.255632 104.88776 14.765887 L 108.37053 23.747765 C 108.38403 23.78259 108.39765 23.817366 108.4114 23.852094 L 112.00772 32.93754 C 112.12973 33.245773 112.24213 33.557723 112.34476 33.87294 L 114.9666 41.925716 C 114.98272 41.97524 114.9986 42.02484 115.01424 42.07452 L 118.08629 51.83279 C 118.28908 52.47695 118.45089 53.133306 118.57073 53.797915 L 120.55605 64.80737 C 120.5792 64.93579 120.60079 65.06448 120.6208 65.19342 L 122.32666 76.186805 C 122.3694 76.46222 122.40494 76.73871 122.43323 77.01598 L 123.32065 85.7127 C 123.36738 86.17069 123.39433 86.63048 123.40141 87.09079 L 123.58565 99.06641 C 123.58907 99.28878 123.59713 99.51105 123.60981 99.73309 L 124.38019 113.21465 C 124.38725 113.33821 124.39575 113.46169 124.40567 113.58506 L 125.73924 130.15943 C 125.77359 130.5863 125.79078 131.01439 125.79078 131.44264 L 125.79078 143.89242 C 125.79078 144.09746 125.79472 144.30247 125.8026 144.50735 L 126.38295 159.5965 C 126.38817 159.73216 126.39166 159.86789 126.39343 160.00365 L 126.58559 174.7999 C 126.58905 175.0666 126.58584 175.33333 126.57597 175.59986 L 126.00174 191.10401 C 125.99444 191.30132 125.99078 191.49875 125.99078 191.6962 L 125.99078 205.29243 C 125.99078 205.49746 125.98684 205.70247 125.97896 205.90736 L 125.39377 221.12236 C 125.39178 221.17412 125.38953 221.22588 125.38704 221.27762 L 124.59172 237.78055 C 124.5911 237.79352 124.59045 237.8065 124.5898 237.81945 L 123.7953 253.51062 C 123.79229 253.5702 123.78894 253.62978 123.78526 253.68933 L 122.59634 272.91007 C 122.59264 272.97003 122.58859 273.02996 122.5842 273.08987 L 120.80107 297.45942 C 120.79421 297.55314 120.78653 297.6468 120.77802 297.7404 L 118.99213 317.3852 C 118.99123 317.39507 118.99032 317.40494 118.98941 317.4148 L 117.21864 336.4997 C 117.20007 336.6999 117.17773 336.8997 117.15162 337.09903 L 115.19091 352.07175 C 115.0581 353.08594 114.78896 354.07756 114.39078 355.01973 L 114.39078 355.01973 C 113.9932 355.96048 113.74454 356.9574 113.65371 357.97465 L 112.89078 366.51973 C 112.38302 372.20676 116.34149 377.32512 121.97346 378.2638 Z" fill="#00007c"/>
        <path d="M 121.97346 378.2638 L 135.7157 380.55416 C 135.89907 380.5847 136.08297 380.6121 136.2673 380.63624 L 164.62094 384.35154 C 164.86747 384.38385 165.11472 384.4104 165.36248 384.4312 L 195.60537 386.9677 C 195.86227 386.98923 196.11966 387.00456 196.3773 387.01367 L 235.30822 388.39 C 235.49658 388.39668 235.68504 388.4 235.87352 388.4 L 267.34084 388.4 C 267.50746 388.4 267.67407 388.3974 267.8406 388.3922 L 292.8754 387.60986 C 293.08563 387.6033 293.29573 387.5926 293.50555 387.5777 L 315.5533 386.0168 C 315.7116 386.0056 315.86975 385.99205 316.02766 385.97614 L 341.28815 383.4305 C 341.4899 383.41017 341.69122 383.386 341.89204 383.35803 L 365.68474 380.04265 C 365.88875 380.01422 366.0922 379.98186 366.29496 379.94558 L 375.4908 378.3 C 380.8179 377.34674 384.46876 372.3931 383.80234 367.02255 L 381.59475 349.232 C 381.5921 349.21066 381.5895 349.18934 381.58695 349.168 L 378.02312 319.4695 C 378.00157 319.28985 377.98306 319.10985 377.9676 318.9296 L 375.6054 291.37037 C 375.59565 291.2568 375.58713 291.14312 375.57983 291.02936 L 374.1932 269.43772 C 374.1916 269.41258 374.1899 269.38744 374.1882 269.3623 L 372.59603 246.276 C 372.59253 246.22533 372.5893 246.17466 372.58627 246.12398 L 371.4099 226.3218 C 371.39716 226.1073 371.38874 225.89255 371.38465 225.6777 L 370.99236 205.08285 C 370.9913 205.02762 370.98997 204.9724 370.98835 204.91718 L 370.3932 184.68283 C 370.3916 184.62761 370.39026 184.57239 370.3892 184.51715 L 369.99855 164.00761 C 369.99337 163.73592 369.9951 163.46413 370.0038 163.19253 L 370.58973 144.83292 C 370.59044 144.81097 370.5912 144.78903 370.59197 144.7671 L 371.38005 122.89779 C 371.3872 122.69928 371.39806 122.50093 371.4126 122.30283 L 372.97007 101.08221 C 372.9839 100.89409 372.99436 100.70573 373.0015 100.51724 L 373.75596 80.61837 C 373.77915 80.00663 373.83744 79.39672 373.93052 78.79165 L 376.66953 60.988134 C 376.7503 60.463036 376.8572 59.94229 376.9898 59.427825 L 381.61806 41.470174 C 381.73316 41.0236 381.8675 40.582213 382.02073 40.147247 L 387.7415 23.907606 C 387.9076 23.436128 388.0957 22.972693 388.30517 22.518826 L 393.83673 10.533787 C 393.9394 10.311292 394.0472 10.091186 394.16 9.873643 L 399.52223 -.4677826 C 399.56793 -.55592503 399.61446 -.6436402 399.6618 -.7309166 L 404.87777 -10.347879 C 405.61505 -11.707236 406.5647 -12.940134 407.6908 -14 L 407.6908 -14 C 408.36598 -14.635472 408.39817 -15.697974 407.7627 -16.373163 C 407.6382 -16.505439 407.49307 -16.616634 407.33295 -16.702411 L 404.1188 -18.42427 C 403.90016 -18.541407 403.6788 -18.653443 403.45494 -18.760288 L 395.60097 -22.508776 C 395.19436 -22.702838 394.77974 -22.87964 394.3582 -23.038707 L 384.68338 -26.689588 C 384.48833 -26.76319 384.29187 -26.83297 384.0941 -26.898893 L 371.39963 -31.130385 C 371.2604 -31.176792 371.12055 -31.221283 370.9801 -31.263842 L 358.0966 -35.16794 C 358.02605 -35.189313 357.95567 -35.211173 357.88544 -35.23352 L 345.38144 -39.212062 C 344.9878 -39.337307 344.5992 -39.47775 344.21643 -39.63307 L 332.2405 -44.492873 C 331.40883 -44.83036 330.60704 -45.237225 329.8436 -45.709166 L 320.22436 -51.65561 C 320.06865 -51.75186 319.9146 -51.85078 319.7623 -51.95232 L 314.8722 -55.212384 C 313.8908 -55.86665 313.0195 -56.672547 312.2908 -57.6 L 312.2908 -57.6 C 312.18518 -57.734404 311.9906 -57.75775 311.8562 -57.65215 C 311.75347 -57.571424 311.7125 -57.43487 311.7538 -57.31092 L 311.8908 -56.9 C 312.35003 -55.52225 312.4546 -54.050963 312.1948 -52.62211 L 311.79967 -50.448845 C 311.52845 -48.957187 311.0466 -47.51165 310.3686 -46.155595 L 308.83626 -43.09096 C 308.53956 -42.49756 308.20624 -41.92319 307.83823 -41.371175 L 304.63453 -36.56562 C 304.20593 -35.922717 303.73132 -35.311707 303.21443 -34.737385 L 298.6524 -29.668445 C 298.61132 -29.622815 298.57 -29.577422 298.5284 -29.532268 L 292.53417 -23.024242 C 291.90643 -22.342702 291.22068 -21.716979 290.48465 -21.154129 L 285.46047 -17.312113 C 285.01432 -16.97094 284.55052 -16.653496 284.071 -16.3611 L 277.58458 -12.405974 C 276.92292 -12.002524 276.23283 -11.647678 275.51975 -11.344238 L 268.40434 -8.316404 C 267.59667 -7.972717 266.7621 -7.696074 265.90905 -7.489277 L 261.83 -6.500414 C 261.00516 -6.3004545 260.16573 -6.166442 259.31963 -6.099645 L 253.61943 -5.649629 C 253.2005 -5.616555 252.78042 -5.599999 252.3602 -5.599999 L 245.32787 -5.599999 C 244.57077 -5.599999 243.81462 -5.653737 243.06513 -5.760807 L 235.11868 -6.896014 C 234.63367 -6.965301 234.1521 -7.056828 233.6755 -7.1703065 L 227.71426 -8.589647 C 226.56878 -8.862382 225.4569 -9.260734 224.39883 -9.777466 L 218.11882 -12.844444 C 217.63377 -13.081329 217.16102 -13.342609 216.70238 -13.627282 L 212.49052 -16.241542 C 211.89135 -16.61344 211.31742 -17.024544 210.7725 -17.472165 L 206.3264 -21.124323 C 206.1027 -21.308073 205.88402 -21.49786 205.67063 -21.693477 L 201.86828 -25.178957 C 201.417 -25.592644 200.9898 -26.031893 200.58885 -26.494535 L 196.4701 -31.246934 C 196.15072 -31.61545 195.84836 -31.99838 195.56395 -32.394514 L 191.1343 -38.56439 C 190.6394 -39.253704 190.20013 -39.981296 189.82064 -40.74028 L 187.24418 -45.89321 C 187.20858 -45.9644 187.17352 -46.03586 187.13899 -46.107576 L 185.89078 -48.7 C 185.04007 -50.46687 184.68455 -52.431406 184.86209 -54.38436 L 185.0423 -56.366614 C 185.0661 -56.628476 184.87312 -56.860055 184.61125 -56.88386 C 184.44886 -56.898624 184.2902 -56.82925 184.19078 -56.7 L 184.19078 -56.7 C 183.52734 -55.83752 182.74723 -55.07144 181.87285 -54.423754 L 177.97632 -51.537433 C 177.85263 -51.445816 177.72763 -51.35599 177.60136 -51.26798 L 172.9791 -48.04641 C 171.79237 -47.21929 170.49895 -46.556924 169.1342 -46.07742 L 164.52708 -44.4587 C 164.0365 -44.286335 163.55463 -44.09016 163.08316 -43.870873 L 156.23638 -40.686324 C 155.54022 -40.36253 154.82165 -40.08926 154.08625 -39.86864 L 143.21586 -36.607524 C 143.19914 -36.60251 143.18243 -36.597464 143.16572 -36.592393 L 132.19764 -33.262795 C 132.05974 -33.220933 131.92241 -33.17721 131.7857 -33.13164 L 118.86446 -28.82456 C 118.81534 -28.808187 118.76614 -28.79205 118.71686 -28.776155 L 107.34946 -25.10925 C 106.71097 -24.903287 106.08607 -24.65737 105.47846 -24.372956 L 97.5465 -20.66012 C 97.17616 -20.48677 96.8126 -20.299287 96.45662 -20.098083 L 90.51051 -16.737235 C 89.25747 -16.028999 88.81583 -14.439075 89.52406 -13.186041 C 89.60118 -13.049603 89.69045 -12.920398 89.79078 -12.8 L 90.65489 -11.763066 C 91.40984 -10.857132 92.06231 -9.870511 92.60043 -8.821182 L 95.67757 -2.820763 C 95.75304 -2.673596 95.83079 -2.527608 95.91078 -2.3828516 L 99.86554 4.7733676 C 99.94903 4.9244466 100.03007 5.076867 100.10863 5.2305684 L 104.21693 13.268556 C 104.466 13.755865 104.6899 14.255632 104.88776 14.765887 L 108.37053 23.747765 C 108.38403 23.78259 108.39765 23.817366 108.4114 23.852094 L 112.00772 32.93754 C 112.12973 33.245773 112.24213 33.557723 112.34476 33.87294 L 114.9666 41.925716 C 114.98272 41.97524 114.9986 42.02484 115.01424 42.07452 L 118.08629 51.83279 C 118.28908 52.47695 118.45089 53.133306 118.57073 53.797915 L 120.55605 64.80737 C 120.5792 64.93579 120.60079 65.06448 120.6208 65.19342 L 122.32666 76.186805 C 122.3694 76.46222 122.40494 76.73871 122.43323 77.01598 L 123.32065 85.7127 C 123.36738 86.17069 123.39433 86.63048 123.40141 87.09079 L 123.58565 99.06641 C 123.58907 99.28878 123.59713 99.51105 123.60981 99.73309 L 124.38019 113.21465 C 124.38725 113.33821 124.39575 113.46169 124.40567 113.58506 L 125.73924 130.15943 C 125.77359 130.5863 125.79078 131.01439 125.79078 131.44264 L 125.79078 143.89242 C 125.79078 144.09746 125.79472 144.30247 125.8026 144.50735 L 126.38295 159.5965 C 126.38817 159.73216 126.39166 159.86789 126.39343 160.00365 L 126.58559 174.7999 C 126.58905 175.0666 126.58584 175.33333 126.57597 175.59986 L 126.00174 191.10401 C 125.99444 191.30132 125.99078 191.49875 125.99078 191.6962 L 125.99078 205.29243 C 125.99078 205.49746 125.98684 205.70247 125.97896 205.90736 L 125.39377 221.12236 C 125.39178 221.17412 125.38953 221.22588 125.38704 221.27762 L 124.59172 237.78055 C 124.5911 237.79352 124.59045 237.8065 124.5898 237.81945 L 123.7953 253.51062 C 123.79229 253.5702 123.78894 253.62978 123.78526 253.68933 L 122.59634 272.91007 C 122.59264 272.97003 122.58859 273.02996 122.5842 273.08987 L 120.80107 297.45942 C 120.79421 297.55314 120.78653 297.6468 120.77802 297.7404 L 118.99213 317.3852 C 118.99123 317.39507 118.99032 317.40494 118.98941 317.4148 L 117.21864 336.4997 C 117.20007 336.6999 117.17773 336.8997 117.15162 337.09903 L 115.19091 352.07175 C 115.0581 353.08594 114.78896 354.07756 114.39078 355.01973 L 114.39078 355.01973 C 113.9932 355.96048 113.74454 356.9574 113.65371 357.97465 L 112.89078 366.51973 C 112.38302 372.20676 116.34149 377.32512 121.97346 378.2638 Z" stroke="#7f8080" stroke-linecap="round" stroke-linejoin="round" stroke-width="1"/>
      </g>
      <g id="Graphic_11">
        <path d="M 33 92.44615 L 39.2 96.84615 L 47.4 100.84615 L 56 104.44615 L 65 108.24615 L 76 112.24615 L 85.4 115.04615 L 94.4 117.64615 L 103.4 120.24615 L 108.8 121.64615 L 114.4 122.64615 L 116.8 116.84615 L 119.4 111.44615 L 121.6 107.44615 L 124.2 104.04615 L 124.4 95.04615 L 123.8 84.04615 L 122 73.246145 L 120.4 62.846145 L 117.8 51.846145 L 115.4 42.246145 L 112.6 34.246145 L 109.4 24.846145 L 106.6 17.446144 L 103 9.846144 L 99 2.2461442 L 95 -5.153856 L 92.4 -8.753856 L 88.8 -14.553856 L 83.4 -10.153856 L 78.6 -5.353856 L 74 .8461442 L 69.6 7.046144 L 64.8 15.646144 L 60 25.046145 L 55.2 34.246145 L 51.6 42.846145 L 47.6 51.846145 L 44.4 60.046145 L 40.6 69.446145 L 37.8 77.446145 L 34.8 85.84615 Z" fill="#6ebbf3"/>
        <path d="M 33 92.44615 L 39.2 96.84615 L 47.4 100.84615 L 56 104.44615 L 65 108.24615 L 76 112.24615 L 85.4 115.04615 L 94.4 117.64615 L 103.4 120.24615 L 108.8 121.64615 L 114.4 122.64615 L 116.8 116.84615 L 119.4 111.44615 L 121.6 107.44615 L 124.2 104.04615 L 124.4 95.04615 L 123.8 84.04615 L 122 73.246145 L 120.4 62.846145 L 117.8 51.846145 L 115.4 42.246145 L 112.6 34.246145 L 109.4 24.846145 L 106.6 17.446144 L 103 9.846144 L 99 2.2461442 L 95 -5.153856 L 92.4 -8.753856 L 88.8 -14.553856 L 83.4 -10.153856 L 78.6 -5.353856 L 74 .8461442 L 69.6 7.046144 L 64.8 15.646144 L 60 25.046145 L 55.2 34.246145 L 51.6 42.846145 L 47.6 51.846145 L 44.4 60.046145 L 40.6 69.446145 L 37.8 77.446145 L 34.8 85.84615 Z" stroke="#7f8080" stroke-linecap="round" stroke-linejoin="round" stroke-width="1"/>
      </g>
      <g id="Graphic_10">
        <path d="M 33 92.44615 L 39.2 96.84615 L 47.4 100.84615 L 56 104.44615 L 65 108.24615 L 76 112.24615 L 85.4 115.04615 L 94.4 117.64615 L 103.4 120.24615 L 108.8 121.64615 L 114.4 122.64615 L 117.4 116.24615 L 113.6 115.44615 L 108.8 114.24615 L 103.2 113.04615 L 97.2 111.24615 L 92.6 109.84615 L 88.4 108.64615 L 83.8 106.64615 L 79.2 105.04615 L 74.4 103.04615 L 70.4 101.64615 L 65.2 99.44615 L 60.6 97.84615 L 55.8 95.64615 L 51 93.84615 L 47 91.84615 L 42.6 89.64615 L 38.2 87.44615 L 34.8 85.84615 Z" fill="url(#Obj_Gradient_2)"/>
        <path d="M 33 92.44615 L 39.2 96.84615 L 47.4 100.84615 L 56 104.44615 L 65 108.24615 L 76 112.24615 L 85.4 115.04615 L 94.4 117.64615 L 103.4 120.24615 L 108.8 121.64615 L 114.4 122.64615 L 117.4 116.24615 L 113.6 115.44615 L 108.8 114.24615 L 103.2 113.04615 L 97.2 111.24615 L 92.6 109.84615 L 88.4 108.64615 L 83.8 106.64615 L 79.2 105.04615 L 74.4 103.04615 L 70.4 101.64615 L 65.2 99.44615 L 60.6 97.84615 L 55.8 95.64615 L 51 93.84615 L 47 91.84615 L 42.6 89.64615 L 38.2 87.44615 L 34.8 85.84615 Z" stroke="#7f8080" stroke-linecap="round" stroke-linejoin="round" stroke-width="1"/>
      </g>
      <g id="Graphic_9">
        <path d="M 183.05925 -57.24411 L 188.45925 -57.84411 L 195.25925 -54.44411 L 200.25925 -52.64411 L 208.65925 -50.84411 L 217.05925 -49.84411 L 225.05925 -48.84411 L 232.65925 -48.64411 L 241.25925 -48.24411 L 252.85925 -48.44411 L 261.25925 -48.84411 L 270.65925 -49.44411 L 279.05925 -50.24411 L 288.25925 -51.64411 L 296.45925 -53.84411 L 302.25925 -55.64411 L 307.85925 -58.24411 L 310.65925 -57.04411 L 311.05925 -51.44411 L 308.25925 -43.44411 L 302.85925 -40.644107 L 292.25925 -37.444107 L 280.85925 -35.044107 L 269.65925 -34.244107 L 257.25925 -33.244107 L 246.85925 -33.244107 L 237.45925 -33.244107 L 225.85925 -33.844107 L 214.65925 -34.644107 L 204.05925 -36.844107 L 195.45925 -38.844107 L 189.25925 -41.644107 L 187.25925 -43.24411 L 184.05925 -50.84411 Z" fill="url(#Obj_Gradient_3)"/>
        <path d="M 183.05925 -57.24411 L 188.45925 -57.84411 L 195.25925 -54.44411 L 200.25925 -52.64411 L 208.65925 -50.84411 L 217.05925 -49.84411 L 225.05925 -48.84411 L 232.65925 -48.64411 L 241.25925 -48.24411 L 252.85925 -48.44411 L 261.25925 -48.84411 L 270.65925 -49.44411 L 279.05925 -50.24411 L 288.25925 -51.64411 L 296.45925 -53.84411 L 302.25925 -55.64411 L 307.85925 -58.24411 L 310.65925 -57.04411 L 311.05925 -51.44411 L 308.25925 -43.44411 L 302.85925 -40.644107 L 292.25925 -37.444107 L 280.85925 -35.044107 L 269.65925 -34.244107 L 257.25925 -33.244107 L 246.85925 -33.244107 L 237.45925 -33.244107 L 225.85925 -33.844107 L 214.65925 -34.644107 L 204.05925 -36.844107 L 195.45925 -38.844107 L 189.25925 -41.644107 L 187.25925 -43.24411 L 184.05925 -50.84411 Z" stroke="#7f8080" stroke-linecap="round" stroke-linejoin="round" stroke-width="1"/>
      </g>
      <g id="Graphic_7">
        <path d="M 464.0985 91.0964 L 457.8985 95.4964 L 449.6985 99.4964 L 441.0985 103.0964 L 432.0985 106.8964 L 421.0985 110.8964 L 411.6985 113.6964 L 402.6985 116.2964 L 393.6985 118.8964 L 388.2985 120.2964 L 382.6985 121.2964 L 380.2985 115.4964 L 377.6985 110.0964 L 375.4985 106.0964 L 372.8985 102.6964 L 372.6985 93.6964 L 373.2985 82.6964 L 375.0985 71.8964 L 376.6985 61.4964 L 379.2985 50.4964 L 381.6985 40.8964 L 384.4985 32.8964 L 387.6985 23.4964 L 390.4985 16.0964 L 394.0985 8.4964 L 398.0985 .8964 L 402.0985 -6.5036 L 404.6985 -10.1036 L 408.2985 -15.9036 L 413.6985 -11.5036 L 418.4985 -6.7036 L 423.0985 -.50360004 L 427.4985 5.6964 L 432.2985 14.2964 L 437.0985 23.6964 L 441.8985 32.8964 L 445.4985 41.4964 L 449.4985 50.4964 L 452.6985 58.6964 L 456.4985 68.0964 L 459.2985 76.0964 L 462.2985 84.4964 Z" fill="#00007c"/>
        <path d="M 464.0985 91.0964 L 457.8985 95.4964 L 449.6985 99.4964 L 441.0985 103.0964 L 432.0985 106.8964 L 421.0985 110.8964 L 411.6985 113.6964 L 402.6985 116.2964 L 393.6985 118.8964 L 388.2985 120.2964 L 382.6985 121.2964 L 380.2985 115.4964 L 377.6985 110.0964 L 375.4985 106.0964 L 372.8985 102.6964 L 372.6985 93.6964 L 373.2985 82.6964 L 375.0985 71.8964 L 376.6985 61.4964 L 379.2985 50.4964 L 381.6985 40.8964 L 384.4985 32.8964 L 387.6985 23.4964 L 390.4985 16.0964 L 394.0985 8.4964 L 398.0985 .8964 L 402.0985 -6.5036 L 404.6985 -10.1036 L 408.2985 -15.9036 L 413.6985 -11.5036 L 418.4985 -6.7036 L 423.0985 -.50360004 L 427.4985 5.6964 L 432.2985 14.2964 L 437.0985 23.6964 L 441.8985 32.8964 L 445.4985 41.4964 L 449.4985 50.4964 L 452.6985 58.6964 L 456.4985 68.0964 L 459.2985 76.0964 L 462.2985 84.4964 Z" stroke="#7f8080" stroke-linecap="round" stroke-linejoin="round" stroke-width="1"/>
      </g>
      <g id="Graphic_6">
        <path d="M 121.0642 377.80685 L 132.82101 379.94415 C 133.0197 379.98027 133.21905 380.01262 133.41896 380.0412 L 159.31006 383.7417 C 159.57795 383.78 159.84676 383.8115 160.11624 383.83614 L 187.719 386.3613 C 187.99884 386.3869 188.2793 386.40513 188.5601 386.41596 L 223.95968 387.78103 C 224.28773 387.7937 224.6161 387.79623 224.9443 387.7887 L 240.51235 387.43043 C 241.3921 387.4102 242.27204 387.46255 243.1432 387.587 L 245.33424 387.9 C 247.00642 388.1389 248.55564 386.97697 248.79452 385.3048 C 248.81536 385.15895 248.82563 385.0118 248.82525 384.8645 L 247.8438 -1.3397272 C 247.83828 -3.507313 246.26144 -5.3509267 244.12092 -5.6924386 L 241.66012 -6.085051 C 240.82642 -6.218064 239.9835 -6.284884 239.13926 -6.284884 L 233.57714 -6.284884 C 232.7523 -6.284884 231.92871 -6.348666 231.11372 -6.47566 L 224.13873 -7.5625155 C 223.61422 -7.644245 223.0941 -7.752026 222.58032 -7.885459 L 217.47967 -9.210112 C 216.26327 -9.526015 215.08832 -9.984133 213.97913 -10.574992 L 208.5094 -13.488682 C 208.01184 -13.753723 207.52865 -14.044875 207.06183 -14.360919 L 203.34266 -16.87887 C 202.74422 -17.284023 202.17392 -17.729255 201.63568 -18.211508 L 197.63503 -21.795992 C 197.41758 -21.99082 197.2055 -22.191563 196.99904 -22.397996 L 193.55316 -25.843386 C 193.12288 -26.273603 192.7175 -26.728014 192.33897 -27.204405 L 188.58348 -31.93091 C 188.2872 -32.303804 188.0077 -32.68974 187.74585 -33.087568 L 183.67488 -39.27244 C 183.22805 -39.9513 182.83358 -40.66322 182.49492 -41.402016 L 180.11634 -46.590905 C 180.08496 -46.65936 180.05406 -46.728036 180.02365 -46.79693 L 178.32669 -50.641247 C 178.00411 -51.372007 178.33501 -52.2259 179.06577 -52.548475 C 179.10716 -52.566744 179.14938 -52.58306 179.1923 -52.59737 L 179.1923 -52.59737 C 179.59448 -52.73149 180.02923 -52.51418 180.16334 -52.112004 C 180.21815 -51.94767 180.21575 -51.769633 180.15655 -51.60683 L 179.54096 -49.913966 C 179.00328 -48.43533 177.88728 -47.239 176.44952 -46.599993 L 176.44952 -46.599993 C 174.96604 -45.94067 173.3607 -45.599993 171.7373 -45.599993 L 168.17036 -45.599993 C 166.20658 -45.599993 164.25958 -45.23848 162.4267 -44.533523 L 159.42501 -43.37903 C 158.94163 -43.193115 158.44952 -43.03078 157.9504 -42.892597 L 151.08132 -40.99088 C 150.84407 -40.925195 150.60836 -40.854044 150.37439 -40.777483 L 139.74816 -37.30031 C 139.73035 -37.29448 139.71254 -37.288618 139.69475 -37.282725 L 129.67108 -33.96368 C 129.52443 -33.915116 129.37848 -33.864432 129.23328 -33.811643 L 117.42491 -29.518307 C 117.3728 -29.499358 117.32058 -29.48068 117.26827 -29.462273 L 106.98673 -25.84466 C 106.31365 -25.607832 105.65717 -25.326246 105.02168 -25.001787 L 97.75519 -21.29177 C 97.48926 -21.155999 97.21959 -21.027697 96.94648 -20.907017 L 90.09199 -17.878127 C 88.45225 -17.153553 87.63262 -15.300693 88.19952 -13.599993 L 88.37845 -13.063195 C 88.92227 -11.431732 89.72556 -9.89861 90.75738 -8.522839 L 94.33389 -3.7541686 C 94.90981 -2.986276 95.41546 -2.168116 95.84472 -1.3095861 L 98.62499 4.2509516 C 98.67467 4.350319 98.72539 4.449166 98.77713 4.547477 L 103.45663 13.438525 C 103.61851 13.746098 103.77033 14.058864 103.91184 14.376325 L 107.578 22.60102 C 107.7326 22.947864 107.87481 23.300102 108.00435 23.657065 L 111.1361 32.28688 C 111.24172 32.57791 111.33887 32.87195 111.42742 33.16862 L 113.84136 41.25571 C 113.85522 41.30215 113.86887 41.348656 113.88231 41.395223 L 116.71977 51.226275 C 116.89306 51.82671 117.03104 52.43678 117.13297 53.053355 L 118.96793 64.152505 C 118.98753 64.27105 119.00579 64.38981 119.02271 64.50877 L 120.59379 75.55231 C 120.62987 75.80595 120.65986 76.06042 120.68372 76.315505 L 121.50589 85.10396 C 121.54523 85.52445 121.5679 85.94633 121.57386 86.36861 L 121.744 98.43184 C 121.74688 98.63575 121.75365 98.8396 121.76432 99.04326 L 122.473 112.57065 C 122.47894 112.68405 122.48609 112.79739 122.49444 112.91063 L 123.72235 129.55678 C 123.75125 129.94847 123.76571 130.34108 123.76571 130.73383 L 123.76571 143.26539 C 123.76571 143.45338 123.76902 143.64135 123.77565 143.82922 L 124.30933 158.96414 C 124.31371 159.08854 124.31665 159.213 124.31813 159.33748 L 124.49494 174.18725 C 124.49785 174.43177 124.49515 174.67632 124.48686 174.92071 L 123.95832 190.48616 C 123.95218 190.66708 123.9491 190.8481 123.9491 191.02913 L 123.9491 204.67862 C 123.9491 204.8666 123.9458 205.05458 123.93917 205.24245 L 123.40142 220.49277 C 123.39975 220.54025 123.39786 220.58772 123.39576 220.63518 L 122.6661 237.14972 C 122.66558 237.16162 122.66504 237.1735 122.66448 237.1854 L 121.93552 252.88896 C 121.93298 252.94363 121.93017 252.9983 121.92707 253.05293 L 120.836 272.2926 C 120.83288 272.34763 120.82948 272.40264 120.82579 272.45763 L 119.18939 296.85137 C 119.18361 296.93742 119.17715 297.02342 119.16998 297.10937 L 117.53127 316.7711 C 117.53051 316.78018 117.52975 316.78925 117.52898 316.7983 L 115.90302 335.91286 C 115.88737 336.09687 115.86853 336.2806 115.84652 336.46395 L 114.04368 351.48048 C 113.92314 352.48455 113.67731 353.46957 113.31195 354.41255 L 113.31195 354.41255 C 112.94706 355.3543 112.71991 356.3438 112.63751 357.3504 L 111.93646 365.91502 C 111.46813 371.63647 115.4162 376.7801 121.0642 377.80685 Z" fill="#6ebbf3"/>
        <path d="M 121.0642 377.80685 L 132.82101 379.94415 C 133.0197 379.98027 133.21905 380.01262 133.41896 380.0412 L 159.31006 383.7417 C 159.57795 383.78 159.84676 383.8115 160.11624 383.83614 L 187.719 386.3613 C 187.99884 386.3869 188.2793 386.40513 188.5601 386.41596 L 223.95968 387.78103 C 224.28773 387.7937 224.6161 387.79623 224.9443 387.7887 L 240.51235 387.43043 C 241.3921 387.4102 242.27204 387.46255 243.1432 387.587 L 245.33424 387.9 C 247.00642 388.1389 248.55564 386.97697 248.79452 385.3048 C 248.81536 385.15895 248.82563 385.0118 248.82525 384.8645 L 247.8438 -1.3397272 C 247.83828 -3.507313 246.26144 -5.3509267 244.12092 -5.6924386 L 241.66012 -6.085051 C 240.82642 -6.218064 239.9835 -6.284884 239.13926 -6.284884 L 233.57714 -6.284884 C 232.7523 -6.284884 231.92871 -6.348666 231.11372 -6.47566 L 224.13873 -7.5625155 C 223.61422 -7.644245 223.0941 -7.752026 222.58032 -7.885459 L 217.47967 -9.210112 C 216.26327 -9.526015 215.08832 -9.984133 213.97913 -10.574992 L 208.5094 -13.488682 C 208.01184 -13.753723 207.52865 -14.044875 207.06183 -14.360919 L 203.34266 -16.87887 C 202.74422 -17.284023 202.17392 -17.729255 201.63568 -18.211508 L 197.63503 -21.795992 C 197.41758 -21.99082 197.2055 -22.191563 196.99904 -22.397996 L 193.55316 -25.843386 C 193.12288 -26.273603 192.7175 -26.728014 192.33897 -27.204405 L 188.58348 -31.93091 C 188.2872 -32.303804 188.0077 -32.68974 187.74585 -33.087568 L 183.67488 -39.27244 C 183.22805 -39.9513 182.83358 -40.66322 182.49492 -41.402016 L 180.11634 -46.590905 C 180.08496 -46.65936 180.05406 -46.728036 180.02365 -46.79693 L 178.32669 -50.641247 C 178.00411 -51.372007 178.33501 -52.2259 179.06577 -52.548475 C 179.10716 -52.566744 179.14938 -52.58306 179.1923 -52.59737 L 179.1923 -52.59737 C 179.59448 -52.73149 180.02923 -52.51418 180.16334 -52.112004 C 180.21815 -51.94767 180.21575 -51.769633 180.15655 -51.60683 L 179.54096 -49.913966 C 179.00328 -48.43533 177.88728 -47.239 176.44952 -46.599993 L 176.44952 -46.599993 C 174.96604 -45.94067 173.3607 -45.599993 171.7373 -45.599993 L 168.17036 -45.599993 C 166.20658 -45.599993 164.25958 -45.23848 162.4267 -44.533523 L 159.42501 -43.37903 C 158.94163 -43.193115 158.44952 -43.03078 157.9504 -42.892597 L 151.08132 -40.99088 C 150.84407 -40.925195 150.60836 -40.854044 150.37439 -40.777483 L 139.74816 -37.30031 C 139.73035 -37.29448 139.71254 -37.288618 139.69475 -37.282725 L 129.67108 -33.96368 C 129.52443 -33.915116 129.37848 -33.864432 129.23328 -33.811643 L 117.42491 -29.518307 C 117.3728 -29.499358 117.32058 -29.48068 117.26827 -29.462273 L 106.98673 -25.84466 C 106.31365 -25.607832 105.65717 -25.326246 105.02168 -25.001787 L 97.75519 -21.29177 C 97.48926 -21.155999 97.21959 -21.027697 96.94648 -20.907017 L 90.09199 -17.878127 C 88.45225 -17.153553 87.63262 -15.300693 88.19952 -13.599993 L 88.37845 -13.063195 C 88.92227 -11.431732 89.72556 -9.89861 90.75738 -8.522839 L 94.33389 -3.7541686 C 94.90981 -2.986276 95.41546 -2.168116 95.84472 -1.3095861 L 98.62499 4.2509516 C 98.67467 4.350319 98.72539 4.449166 98.77713 4.547477 L 103.45663 13.438525 C 103.61851 13.746098 103.77033 14.058864 103.91184 14.376325 L 107.578 22.60102 C 107.7326 22.947864 107.87481 23.300102 108.00435 23.657065 L 111.1361 32.28688 C 111.24172 32.57791 111.33887 32.87195 111.42742 33.16862 L 113.84136 41.25571 C 113.85522 41.30215 113.86887 41.348656 113.88231 41.395223 L 116.71977 51.226275 C 116.89306 51.82671 117.03104 52.43678 117.13297 53.053355 L 118.96793 64.152505 C 118.98753 64.27105 119.00579 64.38981 119.02271 64.50877 L 120.59379 75.55231 C 120.62987 75.80595 120.65986 76.06042 120.68372 76.315505 L 121.50589 85.10396 C 121.54523 85.52445 121.5679 85.94633 121.57386 86.36861 L 121.744 98.43184 C 121.74688 98.63575 121.75365 98.8396 121.76432 99.04326 L 122.473 112.57065 C 122.47894 112.68405 122.48609 112.79739 122.49444 112.91063 L 123.72235 129.55678 C 123.75125 129.94847 123.76571 130.34108 123.76571 130.73383 L 123.76571 143.26539 C 123.76571 143.45338 123.76902 143.64135 123.77565 143.82922 L 124.30933 158.96414 C 124.31371 159.08854 124.31665 159.213 124.31813 159.33748 L 124.49494 174.18725 C 124.49785 174.43177 124.49515 174.67632 124.48686 174.92071 L 123.95832 190.48616 C 123.95218 190.66708 123.9491 190.8481 123.9491 191.02913 L 123.9491 204.67862 C 123.9491 204.8666 123.9458 205.05458 123.93917 205.24245 L 123.40142 220.49277 C 123.39975 220.54025 123.39786 220.58772 123.39576 220.63518 L 122.6661 237.14972 C 122.66558 237.16162 122.66504 237.1735 122.66448 237.1854 L 121.93552 252.88896 C 121.93298 252.94363 121.93017 252.9983 121.92707 253.05293 L 120.836 272.2926 C 120.83288 272.34763 120.82948 272.40264 120.82579 272.45763 L 119.18939 296.85137 C 119.18361 296.93742 119.17715 297.02342 119.16998 297.10937 L 117.53127 316.7711 C 117.53051 316.78018 117.52975 316.78925 117.52898 316.7983 L 115.90302 335.91286 C 115.88737 336.09687 115.86853 336.2806 115.84652 336.46395 L 114.04368 351.48048 C 113.92314 352.48455 113.67731 353.46957 113.31195 354.41255 L 113.31195 354.41255 C 112.94706 355.3543 112.71991 356.3438 112.63751 357.3504 L 111.93646 365.91502 C 111.46813 371.63647 115.4162 376.7801 121.0642 377.80685 Z" stroke="#7f8080" stroke-linecap="round" stroke-linejoin="round" stroke-width="1"/>
      </g>
      <g id="Graphic_5">
        <path d="M 183.57212 -57.03621 L 178.84295 -52.98264 C 177.6926 -51.996625 176.44764 -51.12669 175.12621 -50.385515 L 172.59958 -48.96835 C 171.1644 -48.16338 170.5836 -46.39425 171.26239 -44.895265 L 172.28 -42.64803 C 172.40158 -42.379545 172.52831 -42.11342 172.66012 -41.849804 L 176.94938 -33.271293 C 177.29117 -32.5877 177.66683 -31.921566 178.07495 -31.275375 L 180.40134 -27.59192 C 180.84172 -26.894655 181.31928 -26.22158 181.83195 -25.575613 L 185.24264 -21.278153 C 185.7887 -20.590125 186.37371 -19.933944 186.99482 -19.312833 L 191.66087 -14.64679 C 192.06175 -14.24591 192.4773 -13.859989 192.9067 -13.489817 L 197.47023 -9.555744 C 197.8649 -9.215522 198.271 -8.88881 198.68785 -8.576173 L 202.66279 -5.594968 C 203.3287 -5.0955334 204.02123 -4.632617 204.73733 -4.2082625 L 208.8704 -1.75904 C 208.9984 -1.683191 209.12712 -1.6085858 209.25656 -1.535235 L 213.9541 1.1267081 C 214.6924 1.5450729 215.45328 1.922258 216.23325 2.2565335 L 219.78307 3.7778834 C 220.36903 4.02901 220.96518 4.255666 221.56997 4.4572635 L 226.58808 6.129966 C 227.83532 6.545714 229.11592 6.853756 230.4158 7.0507064 L 234.51464 7.671744 C 234.87976 7.727064 235.24615 7.773583 235.6135 7.81126 L 242.4946 8.517015 C 242.73978 8.542161 242.98534 8.563364 243.2312 8.580618 L 247.75835 8.89831 C 248.2942 8.935915 248.83122 8.954734 249.3684 8.954734 L 252.63046 8.954736 C 253.58416 8.954736 254.53693 8.895419 255.48327 8.777127 L 259.47198 8.278537 C 260.13195 8.196042 260.78802 8.084959 261.43835 7.945602 L 267.5204 6.642309 C 268.41426 6.450764 269.29592 6.206097 270.16068 5.90961 L 274.66952 4.3637194 C 275.46417 4.0912685 276.2433 3.7754865 277.0034 3.4177928 L 281.83677 1.1432627 C 282.38697 .8843469 282.92668 .6037137 283.45464 .30202483 L 287.2225 -1.8510418 C 287.9153 -2.2469217 288.587 -2.678585 289.23494 -3.1442806 L 293.91106 -6.505246 C 294.41175 -6.8651124 294.89776 -7.244967 295.3679 -7.643889 L 300.68877 -12.158555 C 301.0711 -12.482941 301.4427 -12.819741 301.803 -13.168416 L 306.5022 -17.716044 C 307.1418 -18.335002 307.7449 -18.990565 308.30852 -19.679424 L 312.1018 -24.315658 C 312.60852 -24.934974 313.08257 -25.58031 313.522 -26.249036 L 317.1392 -31.753436 C 317.35462 -32.081268 317.56163 -32.414558 317.76 -32.75298 L 320.2831 -37.057076 C 320.66906 -37.71546 321.022 -38.392646 321.34062 -39.08612 L 323.4593 -43.69739 C 323.99218 -44.85715 324.36334 -46.084564 324.5624 -47.345265 L 324.5624 -47.345265 C 324.7407 -48.474526 324.1614 -49.587974 323.1343 -50.0901 L 317.84088 -52.678005 C 316.52642 -53.32063 315.29183 -54.11514 314.1624 -55.045265 L 313.7564 -55.379625 C 312.91205 -56.074957 312.28864 -57.00126 311.9624 -58.045265 L 311.9624 -58.045265 C 311.91573 -58.19458 311.75686 -58.2778 311.60754 -58.23114 C 311.49247 -58.19518 311.41277 -58.090315 311.40892 -57.96981 L 311.29968 -54.54689 C 311.20894 -51.703814 310.5916 -48.902236 309.479 -46.284333 L 308.60206 -44.22096 C 308.0435 -42.906686 307.36374 -41.64729 306.5716 -40.45909 L 302.88582 -34.930416 C 302.1383 -33.80915 301.2937 -32.755752 300.36175 -31.782376 L 294.0667 -25.20753 C 293.1986 -24.300875 292.25777 -23.466804 291.2536 -22.713673 L 282.8787 -16.432495 C 282.00228 -15.775182 281.08002 -15.181326 280.11896 -14.655463 L 272.93376 -10.723938 C 271.62263 -10.006531 270.2447 -9.418628 268.8195 -8.968568 L 262.1466 -6.861334 C 260.42973 -6.319163 258.65514 -5.9804614 256.85927 -5.852185 L 249.97281 -5.3602956 C 248.90052 -5.283703 247.82417 -5.282384 246.75168 -5.356348 L 238.31543 -5.938159 C 237.28125 -6.0094815 236.25308 -6.150639 235.23795 -6.360667 L 228.10274 -7.836916 C 226.1508 -8.240769 224.25961 -8.896652 222.47676 -9.78808 L 217.81735 -12.117785 C 216.5832 -12.734853 215.4071 -13.461726 214.30326 -14.28961 L 208.6213 -18.55108 C 208.18217 -18.88043 207.75496 -19.225398 207.3405 -19.585317 L 201.58533 -24.583238 C 200.77104 -25.29038 200.0075 -26.05392 199.30036 -26.868206 L 194.89513 -31.94089 C 194.14103 -32.80925 193.45312 -33.73295 192.8372 -34.704217 L 189.1035 -40.59198 C 188.74293 -41.16056 188.4075 -41.744705 188.09819 -42.342717 L 186.47781 -45.47544 C 185.86867 -46.65312 185.3625 -47.881264 184.96497 -49.146155 L 183.68473 -53.21964 C 183.46995 -53.90302 183.28722 -54.596055 183.13713 -55.296485 L 182.9117 -56.34843 C 182.82664 -56.74544 183.053 -57.143094 183.4378 -57.27263 L 183.4378 -57.27263 C 183.5103 -57.29704 183.58884 -57.25805 183.61325 -57.18556 C 183.63126 -57.132046 183.615 -57.072957 183.57212 -57.03621 Z" fill="url(#Obj_Gradient_4)"/>
        <path d="M 183.57212 -57.03621 L 178.84295 -52.98264 C 177.6926 -51.996625 176.44764 -51.12669 175.12621 -50.385515 L 172.59958 -48.96835 C 171.1644 -48.16338 170.5836 -46.39425 171.26239 -44.895265 L 172.28 -42.64803 C 172.40158 -42.379545 172.52831 -42.11342 172.66012 -41.849804 L 176.94938 -33.271293 C 177.29117 -32.5877 177.66683 -31.921566 178.07495 -31.275375 L 180.40134 -27.59192 C 180.84172 -26.894655 181.31928 -26.22158 181.83195 -25.575613 L 185.24264 -21.278153 C 185.7887 -20.590125 186.37371 -19.933944 186.99482 -19.312833 L 191.66087 -14.64679 C 192.06175 -14.24591 192.4773 -13.859989 192.9067 -13.489817 L 197.47023 -9.555744 C 197.8649 -9.215522 198.271 -8.88881 198.68785 -8.576173 L 202.66279 -5.594968 C 203.3287 -5.0955334 204.02123 -4.632617 204.73733 -4.2082625 L 208.8704 -1.75904 C 208.9984 -1.683191 209.12712 -1.6085858 209.25656 -1.535235 L 213.9541 1.1267081 C 214.6924 1.5450729 215.45328 1.922258 216.23325 2.2565335 L 219.78307 3.7778834 C 220.36903 4.02901 220.96518 4.255666 221.56997 4.4572635 L 226.58808 6.129966 C 227.83532 6.545714 229.11592 6.853756 230.4158 7.0507064 L 234.51464 7.671744 C 234.87976 7.727064 235.24615 7.773583 235.6135 7.81126 L 242.4946 8.517015 C 242.73978 8.542161 242.98534 8.563364 243.2312 8.580618 L 247.75835 8.89831 C 248.2942 8.935915 248.83122 8.954734 249.3684 8.954734 L 252.63046 8.954736 C 253.58416 8.954736 254.53693 8.895419 255.48327 8.777127 L 259.47198 8.278537 C 260.13195 8.196042 260.78802 8.084959 261.43835 7.945602 L 267.5204 6.642309 C 268.41426 6.450764 269.29592 6.206097 270.16068 5.90961 L 274.66952 4.3637194 C 275.46417 4.0912685 276.2433 3.7754865 277.0034 3.4177928 L 281.83677 1.1432627 C 282.38697 .8843469 282.92668 .6037137 283.45464 .30202483 L 287.2225 -1.8510418 C 287.9153 -2.2469217 288.587 -2.678585 289.23494 -3.1442806 L 293.91106 -6.505246 C 294.41175 -6.8651124 294.89776 -7.244967 295.3679 -7.643889 L 300.68877 -12.158555 C 301.0711 -12.482941 301.4427 -12.819741 301.803 -13.168416 L 306.5022 -17.716044 C 307.1418 -18.335002 307.7449 -18.990565 308.30852 -19.679424 L 312.1018 -24.315658 C 312.60852 -24.934974 313.08257 -25.58031 313.522 -26.249036 L 317.1392 -31.753436 C 317.35462 -32.081268 317.56163 -32.414558 317.76 -32.75298 L 320.2831 -37.057076 C 320.66906 -37.71546 321.022 -38.392646 321.34062 -39.08612 L 323.4593 -43.69739 C 323.99218 -44.85715 324.36334 -46.084564 324.5624 -47.345265 L 324.5624 -47.345265 C 324.7407 -48.474526 324.1614 -49.587974 323.1343 -50.0901 L 317.84088 -52.678005 C 316.52642 -53.32063 315.29183 -54.11514 314.1624 -55.045265 L 313.7564 -55.379625 C 312.91205 -56.074957 312.28864 -57.00126 311.9624 -58.045265 L 311.9624 -58.045265 C 311.91573 -58.19458 311.75686 -58.2778 311.60754 -58.23114 C 311.49247 -58.19518 311.41277 -58.090315 311.40892 -57.96981 L 311.29968 -54.54689 C 311.20894 -51.703814 310.5916 -48.902236 309.479 -46.284333 L 308.60206 -44.22096 C 308.0435 -42.906686 307.36374 -41.64729 306.5716 -40.45909 L 302.88582 -34.930416 C 302.1383 -33.80915 301.2937 -32.755752 300.36175 -31.782376 L 294.0667 -25.20753 C 293.1986 -24.300875 292.25777 -23.466804 291.2536 -22.713673 L 282.8787 -16.432495 C 282.00228 -15.775182 281.08002 -15.181326 280.11896 -14.655463 L 272.93376 -10.723938 C 271.62263 -10.006531 270.2447 -9.418628 268.8195 -8.968568 L 262.1466 -6.861334 C 260.42973 -6.319163 258.65514 -5.9804614 256.85927 -5.852185 L 249.97281 -5.3602956 C 248.90052 -5.283703 247.82417 -5.282384 246.75168 -5.356348 L 238.31543 -5.938159 C 237.28125 -6.0094815 236.25308 -6.150639 235.23795 -6.360667 L 228.10274 -7.836916 C 226.1508 -8.240769 224.25961 -8.896652 222.47676 -9.78808 L 217.81735 -12.117785 C 216.5832 -12.734853 215.4071 -13.461726 214.30326 -14.28961 L 208.6213 -18.55108 C 208.18217 -18.88043 207.75496 -19.225398 207.3405 -19.585317 L 201.58533 -24.583238 C 200.77104 -25.29038 200.0075 -26.05392 199.30036 -26.868206 L 194.89513 -31.94089 C 194.14103 -32.80925 193.45312 -33.73295 192.8372 -34.704217 L 189.1035 -40.59198 C 188.74293 -41.16056 188.4075 -41.744705 188.09819 -42.342717 L 186.47781 -45.47544 C 185.86867 -46.65312 185.3625 -47.881264 184.96497 -49.146155 L 183.68473 -53.21964 C 183.46995 -53.90302 183.28722 -54.596055 183.13713 -55.296485 L 182.9117 -56.34843 C 182.82664 -56.74544 183.053 -57.143094 183.4378 -57.27263 L 183.4378 -57.27263 C 183.5103 -57.29704 183.58884 -57.25805 183.61325 -57.18556 C 183.63126 -57.132046 183.615 -57.072957 183.57212 -57.03621 Z" stroke="#7f8080" stroke-linecap="round" stroke-linejoin="round" stroke-width="1"/>
      </g>
      <g id="Graphic_4">
        <path d="M 112.81321 368.2 L 112.81321 368.2 C 112.74753 368.7255 112.81036 369.25905 112.9963 369.7549 L 113.6473 371.49092 C 113.82406 371.96227 114.05115 372.4132 114.32462 372.8358 L 115.29243 374.33153 C 115.83339 375.16756 116.5465 375.87855 117.38412 376.417 L 118.46217 377.11005 C 118.76243 377.30307 119.077 377.47285 119.40316 377.6179 L 120.72001 378.2035 C 121.31654 378.46876 121.94725 378.6493 122.5938 378.7398 L 131.60421 380.00126 C 131.6142 380.00265 131.6242 380.00403 131.6342 380.0054 L 143.3502 381.594 C 143.3962 381.60024 143.44226 381.606 143.48838 381.61134 L 153.77131 382.79783 C 153.80324 382.8015 153.8352 382.80498 153.86716 382.8082 L 167.57723 384.1991 C 167.60521 384.20193 167.63321 384.2046 167.66123 384.2071 L 178.76653 385.19865 C 178.80164 385.2018 178.83679 385.20466 178.87195 385.20726 L 189.55848 385.99886 C 189.59896 386.00185 189.63947 386.0045 189.68 386.0068 L 200.18798 386.6016 C 200.2088 386.60276 200.2296 386.60404 200.25042 386.6054 L 212.2932 387.3951 C 212.3772 387.4006 212.4613 387.4046 212.54543 387.40707 L 225.99256 387.80257 C 226.01032 387.8031 226.02809 387.8037 226.04585 387.80434 L 236.6897 388.19856 C 236.77603 388.20176 236.8624 388.20335 236.9488 388.20335 L 247.5578 388.20335 C 247.59874 388.20335 247.63967 388.2037 247.6806 388.20443 L 258.76702 388.39893 C 258.9351 388.4019 259.1032 388.39877 259.27106 388.3896 L 269.8923 387.81028 C 269.9769 387.80566 270.06157 387.8026 270.1463 387.80104 L 280.91085 387.60532 C 280.9831 387.604 281.0553 387.6016 281.12745 387.59803 L 293.14607 387.00695 C 293.19483 387.00455 293.24355 387.00165 293.29225 386.99823 L 304.5323 386.20945 C 304.59023 386.2054 304.64812 386.2006 304.70594 386.1951 L 317.1165 385.01313 C 317.18497 385.0066 317.25352 385.0011 317.32214 384.9966 L 329.25416 384.21418 C 329.36418 384.20696 329.474 384.19715 329.58355 384.18475 L 339.9959 383.006 C 340.01144 383.00423 340.02697 383.0024 340.0425 383.00056 L 349.9902 381.80683 C 350.00954 381.8045 350.02886 381.8021 350.04818 381.79963 L 363.88394 380.0221 C 363.98115 380.0096 364.0781 379.99507 364.1747 379.9785 L 370.7282 378.85506 C 370.92915 378.8206 371.13153 378.79495 371.33473 378.77817 L 374.56706 378.5112 C 375.4563 378.43775 376.3233 378.19497 377.12135 377.79594 L 378.60765 377.0528 C 379.20824 376.7525 379.7625 376.36735 380.2534 375.9092 L 381.5885 374.6631 C 382.1953 374.0967 382.65073 373.38747 382.9132 372.6 L 383.20805 371.71552 C 383.2781 371.5053 383.33817 371.29187 383.388 371.07595 L 383.8577 369.04056 C 383.89293 368.88792 383.8595 368.72752 383.7662 368.6017 L 383.7662 368.6017 C 383.67587 368.4798 383.52523 368.4183 383.3754 368.44214 L 374.89555 369.7912 C 374.84466 369.7993 374.79385 369.80796 374.74315 369.8172 L 361.7584 372.17805 C 361.6656 372.1949 361.5725 372.2099 361.4791 372.223 L 350.24943 373.7991 C 350.2293 373.80194 350.20914 373.80486 350.18902 373.80786 L 337.06643 375.76645 C 336.90167 375.79105 336.73608 375.80975 336.56998 375.82253 L 323.84517 376.80136 C 323.82786 376.8027 323.81055 376.80396 323.79323 376.80516 L 309.4531 377.801 C 309.4305 377.80257 309.4079 377.80403 309.3853 377.8054 L 296.08205 378.5996 C 296.04016 378.6021 295.99824 378.60423 295.9563 378.60597 L 281.76485 379.1973 C 281.66776 379.20133 281.5706 379.20335 281.47344 379.20335 L 255.67753 379.20335 C 255.63865 379.20335 255.59976 379.2037 255.56088 379.20433 L 243.8025 379.4003 C 243.68032 379.40234 243.55812 379.40117 243.436 379.3968 L 232.6024 379.0099 C 232.4803 379.00554 232.3581 379.00437 232.2359 379.0064 L 220.52127 379.20165 C 220.45323 379.2028 220.38518 379.20293 220.31713 379.2021 L 204.61484 379.0058 C 204.48444 379.00417 204.35411 378.9989 204.224 378.99 L 189.91423 378.00986 C 189.85088 378.00552 189.7876 378.00032 189.7244 377.99426 L 175.23339 376.6047 C 175.22393 376.6038 175.21448 376.6029 175.20503 376.60194 L 161.393 375.22073 C 161.27715 375.20915 161.16162 375.19468 161.0465 375.17733 L 146.73735 373.02116 C 146.65859 373.0093 146.57964 372.99877 146.50052 372.9896 L 132.98059 371.42207 C 132.87301 371.4096 132.76574 371.39463 132.65886 371.37718 L 123.26677 369.84377 C 123.10178 369.81684 122.9378 369.784 122.77516 369.7453 L 113.69756 367.58654 C 113.30925 367.4942 112.91959 367.73412 112.82724 368.12244 C 112.82116 368.14802 112.81647 368.1739 112.81321 368.2 Z" fill="url(#Obj_Gradient_5)"/>
        <path d="M 112.81321 368.2 L 112.81321 368.2 C 112.74753 368.7255 112.81036 369.25905 112.9963 369.7549 L 113.6473 371.49092 C 113.82406 371.96227 114.05115 372.4132 114.32462 372.8358 L 115.29243 374.33153 C 115.83339 375.16756 116.5465 375.87855 117.38412 376.417 L 118.46217 377.11005 C 118.76243 377.30307 119.077 377.47285 119.40316 377.6179 L 120.72001 378.2035 C 121.31654 378.46876 121.94725 378.6493 122.5938 378.7398 L 131.60421 380.00126 C 131.6142 380.00265 131.6242 380.00403 131.6342 380.0054 L 143.3502 381.594 C 143.3962 381.60024 143.44226 381.606 143.48838 381.61134 L 153.77131 382.79783 C 153.80324 382.8015 153.8352 382.80498 153.86716 382.8082 L 167.57723 384.1991 C 167.60521 384.20193 167.63321 384.2046 167.66123 384.2071 L 178.76653 385.19865 C 178.80164 385.2018 178.83679 385.20466 178.87195 385.20726 L 189.55848 385.99886 C 189.59896 386.00185 189.63947 386.0045 189.68 386.0068 L 200.18798 386.6016 C 200.2088 386.60276 200.2296 386.60404 200.25042 386.6054 L 212.2932 387.3951 C 212.3772 387.4006 212.4613 387.4046 212.54543 387.40707 L 225.99256 387.80257 C 226.01032 387.8031 226.02809 387.8037 226.04585 387.80434 L 236.6897 388.19856 C 236.77603 388.20176 236.8624 388.20335 236.9488 388.20335 L 247.5578 388.20335 C 247.59874 388.20335 247.63967 388.2037 247.6806 388.20443 L 258.76702 388.39893 C 258.9351 388.4019 259.1032 388.39877 259.27106 388.3896 L 269.8923 387.81028 C 269.9769 387.80566 270.06157 387.8026 270.1463 387.80104 L 280.91085 387.60532 C 280.9831 387.604 281.0553 387.6016 281.12745 387.59803 L 293.14607 387.00695 C 293.19483 387.00455 293.24355 387.00165 293.29225 386.99823 L 304.5323 386.20945 C 304.59023 386.2054 304.64812 386.2006 304.70594 386.1951 L 317.1165 385.01313 C 317.18497 385.0066 317.25352 385.0011 317.32214 384.9966 L 329.25416 384.21418 C 329.36418 384.20696 329.474 384.19715 329.58355 384.18475 L 339.9959 383.006 C 340.01144 383.00423 340.02697 383.0024 340.0425 383.00056 L 349.9902 381.80683 C 350.00954 381.8045 350.02886 381.8021 350.04818 381.79963 L 363.88394 380.0221 C 363.98115 380.0096 364.0781 379.99507 364.1747 379.9785 L 370.7282 378.85506 C 370.92915 378.8206 371.13153 378.79495 371.33473 378.77817 L 374.56706 378.5112 C 375.4563 378.43775 376.3233 378.19497 377.12135 377.79594 L 378.60765 377.0528 C 379.20824 376.7525 379.7625 376.36735 380.2534 375.9092 L 381.5885 374.6631 C 382.1953 374.0967 382.65073 373.38747 382.9132 372.6 L 383.20805 371.71552 C 383.2781 371.5053 383.33817 371.29187 383.388 371.07595 L 383.8577 369.04056 C 383.89293 368.88792 383.8595 368.72752 383.7662 368.6017 L 383.7662 368.6017 C 383.67587 368.4798 383.52523 368.4183 383.3754 368.44214 L 374.89555 369.7912 C 374.84466 369.7993 374.79385 369.80796 374.74315 369.8172 L 361.7584 372.17805 C 361.6656 372.1949 361.5725 372.2099 361.4791 372.223 L 350.24943 373.7991 C 350.2293 373.80194 350.20914 373.80486 350.18902 373.80786 L 337.06643 375.76645 C 336.90167 375.79105 336.73608 375.80975 336.56998 375.82253 L 323.84517 376.80136 C 323.82786 376.8027 323.81055 376.80396 323.79323 376.80516 L 309.4531 377.801 C 309.4305 377.80257 309.4079 377.80403 309.3853 377.8054 L 296.08205 378.5996 C 296.04016 378.6021 295.99824 378.60423 295.9563 378.60597 L 281.76485 379.1973 C 281.66776 379.20133 281.5706 379.20335 281.47344 379.20335 L 255.67753 379.20335 C 255.63865 379.20335 255.59976 379.2037 255.56088 379.20433 L 243.8025 379.4003 C 243.68032 379.40234 243.55812 379.40117 243.436 379.3968 L 232.6024 379.0099 C 232.4803 379.00554 232.3581 379.00437 232.2359 379.0064 L 220.52127 379.20165 C 220.45323 379.2028 220.38518 379.20293 220.31713 379.2021 L 204.61484 379.0058 C 204.48444 379.00417 204.35411 378.9989 204.224 378.99 L 189.91423 378.00986 C 189.85088 378.00552 189.7876 378.00032 189.7244 377.99426 L 175.23339 376.6047 C 175.22393 376.6038 175.21448 376.6029 175.20503 376.60194 L 161.393 375.22073 C 161.27715 375.20915 161.16162 375.19468 161.0465 375.17733 L 146.73735 373.02116 C 146.65859 373.0093 146.57964 372.99877 146.50052 372.9896 L 132.98059 371.42207 C 132.87301 371.4096 132.76574 371.39463 132.65886 371.37718 L 123.26677 369.84377 C 123.10178 369.81684 122.9378 369.784 122.77516 369.7453 L 113.69756 367.58654 C 113.30925 367.4942 112.91959 367.73412 112.82724 368.12244 C 112.82116 368.14802 112.81647 368.1739 112.81321 368.2 Z" stroke="#7f8080" stroke-linecap="round" stroke-linejoin="round" stroke-width="1"/>
      </g>
      <g id="Graphic_2">
        <path d="M 464.4053 91.50275 L 458.2053 95.90275 L 450.0053 99.90275 L 441.4053 103.50275 L 432.4053 107.30275 L 421.4053 111.30275 L 412.0053 114.10275 L 403.0053 116.70275 L 394.0053 119.30275 L 388.6053 120.70275 L 383.0053 121.70275 L 380.0053 115.30275 L 383.8053 114.50275 L 388.6053 113.30275 L 394.2053 112.10275 L 400.2053 110.30275 L 404.8053 108.90275 L 409.0053 107.70275 L 413.6053 105.70275 L 418.2053 104.10275 L 423.0053 102.10275 L 427.0053 100.70275 L 432.2053 98.50275 L 436.8053 96.90275 L 441.6053 94.70275 L 446.4053 92.90275 L 450.4053 90.90275 L 454.8053 88.70275 L 459.2053 86.50275 L 462.6053 84.90275 Z" fill="url(#Obj_Gradient_6)"/>
        <path d="M 464.4053 91.50275 L 458.2053 95.90275 L 450.0053 99.90275 L 441.4053 103.50275 L 432.4053 107.30275 L 421.4053 111.30275 L 412.0053 114.10275 L 403.0053 116.70275 L 394.0053 119.30275 L 388.6053 120.70275 L 383.0053 121.70275 L 380.0053 115.30275 L 383.8053 114.50275 L 388.6053 113.30275 L 394.2053 112.10275 L 400.2053 110.30275 L 404.8053 108.90275 L 409.0053 107.70275 L 413.6053 105.70275 L 418.2053 104.10275 L 423.0053 102.10275 L 427.0053 100.70275 L 432.2053 98.50275 L 436.8053 96.90275 L 441.6053 94.70275 L 446.4053 92.90275 L 450.4053 90.90275 L 454.8053 88.70275 L 459.2053 86.50275 L 462.6053 84.90275 Z" stroke="#7f8080" stroke-linecap="round" stroke-linejoin="round" stroke-width="1"/>
      </g>
    </g>
  </g>
</svg>
