<?xml version="1.0" encoding="UTF-8" standalone="no"?>
<!DOCTYPE svg PUBLIC "-//W3C//DTD SVG 1.1//EN" "http://www.w3.org/Graphics/SVG/1.1/DTD/svg11.dtd">
<svg xmlns="http://www.w3.org/2000/svg" xmlns:xl="http://www.w3.org/1999/xlink" version="1.1" viewBox="37.5 -.5 432.4053 449.4" width="432.4053pt" height="449.4pt" xmlns:dc="http://purl.org/dc/elements/1.1/">
  <metadata> Produced by OmniGraffle 7.6.1 
    <dc:date>2019-06-07 16:27:06 +0000</dc:date>
  </metadata>
  <defs>
    <radialGradient cx="0" cy="0" r="1" id="Gradient" gradientUnits="userSpaceOnUse">
      <stop offset="0" stop-color="#cbcbcb"/>
      <stop offset="1" stop-color="#0d0502"/>
    </radialGradient>
    <radialGradient id="Obj_Gradient" xl:href="#Gradient" gradientTransform="translate(252.75925 27.4) scale(70.26272)"/>
    <linearGradient x1="0" x2="1" id="Gradient_2" gradientUnits="userSpaceOnUse">
      <stop offset="0" stop-color="yellow"/>
      <stop offset="1" stop-color="#ff7123"/>
    </linearGradient>
    <linearGradient id="Obj_Gradient_2" xl:href="#Gradient_2" gradientTransform="translate(253.70264 1.281705) rotate(90) scale(446.1183)"/>
    <linearGradient x1="0" x2="1" id="Gradient_3" gradientUnits="userSpaceOnUse">
      <stop offset="0" stop-color="#ffff40"/>
      <stop offset="1" stop-color="#fbaf01"/>
    </linearGradient>
    <linearGradient id="Obj_Gradient_3" xl:href="#Gradient_3" gradientTransform="translate(83.7 44.446144) rotate(90) scale(137.2)"/>
    <linearGradient x1="0" x2="1" id="Gradient_4" gradientUnits="userSpaceOnUse">
      <stop offset="0" stop-color="yellow"/>
      <stop offset="1" stop-color="#f9aa52"/>
    </linearGradient>
    <linearGradient id="Obj_Gradient_4" xl:href="#Gradient_4" gradientTransform="translate(423.7053 43.50275) rotate(90) scale(137.2)"/>
    <radialGradient cx="0" cy="0" r="1" id="Gradient_5" gradientUnits="userSpaceOnUse">
      <stop offset="0" stop-color="yellow"/>
      <stop offset="1" stop-color="#a5a5a5"/>
    </radialGradient>
    <radialGradient id="Obj_Gradient_5" xl:href="#Gradient_5" gradientTransform="translate(80.2 163.24615) scale(46.03694)"/>
    <radialGradient id="Obj_Gradient_6" xl:href="#Gradient_5" gradientTransform="translate(427.2053 162.30275) scale(46.03694)"/>
    <radialGradient id="Obj_Gradient_7" xl:href="#Gradient_5" gradientTransform="translate(252.78697 34.355314) scale(83.83496)"/>
    <linearGradient x1="0" x2="1" id="Gradient_6" gradientUnits="userSpaceOnUse">
      <stop offset="0" stop-color="#f9ff07"/>
      <stop offset="1" stop-color="#a5a5a5"/>
    </linearGradient>
    <linearGradient id="Obj_Gradient_8" xl:href="#Gradient_6" gradientTransform="translate(252.05925 .7558923) rotate(90) scale(25)"/>
    <radialGradient id="Obj_Gradient_9" xl:href="#Gradient_5" gradientTransform="translate(253.32968 437.9834) scale(135.94141)"/>
  </defs>
  <g stroke="none" stroke-opacity="1" stroke-dasharray="none" fill="none" fill-opacity="1">
    <title>Amarillo_03</title>
    <g>
      <title>Capa 1</title>
      <path d="M 191.00565 .59044616 L 199.1711 3.7081642 C 200.0291 4.0357607 200.90594 4.311673 201.79692 4.534419 L 215.5141 7.963713 C 216.67576 8.254128 217.85832 8.453383 219.051 8.559662 L 236.57715 10.121397 C 237.165 10.17378 237.75464 10.203517 238.34478 10.210542 L 253.8237 10.394815 C 254.11404 10.398271 254.40442 10.39623 254.6947 10.38869 L 269.118 10.014059 C 269.47878 10.004688 269.8393 9.986826 270.19924 9.960489 L 284.57053 8.908931 C 285.56197 8.836387 286.54766 8.699642 287.5214 8.499558 L 299.09436 6.121552 C 300.13637 5.907442 301.16226 5.6213 302.16465 5.265186 L 313.91664 1.0901359 C 315.007 .7027671 316.2102 1.2335424 316.65925 2.3 L 316.65925 2.3 C 317.1814 3.5401057 317.3334 4.904854 317.09685 6.2294495 L 316.91637 7.240138 C 316.6126 8.941294 316.11806 10.602796 315.44214 12.193188 L 313.8989 15.824309 C 313.34035 17.13858 312.6606 18.397975 311.86846 19.586178 L 308.1827 25.11485 C 307.43517 26.236114 306.59057 27.289513 305.6586 28.26289 L 299.36354 34.837737 C 298.49547 35.74439 297.55463 36.57846 296.55046 37.331593 L 288.17555 43.61277 C 287.29914 44.270084 286.37688 44.86394 285.41582 45.389803 L 278.2306 49.32133 C 276.9195 50.038735 275.54156 50.62664 274.11638 51.0767 L 267.44347 53.18393 C 265.7266 53.7261 263.952 54.064805 262.15613 54.19308 L 255.26968 54.68497 C 254.19738 54.76156 253.12103 54.76288 252.04854 54.68892 L 243.6123 54.10711 C 242.5781 54.035784 241.54994 53.894627 240.5348 53.6846 L 233.3996 52.20835 C 231.44765 51.8045 229.55647 51.148614 227.77362 50.257185 L 223.1142 47.92748 C 221.88007 47.31041 220.70397 46.58354 219.60012 45.755655 L 213.91816 41.494187 C 213.47903 41.164835 213.05182 40.81987 212.63737 40.45995 L 206.8822 35.46203 C 206.0679 34.754885 205.30436 33.991345 204.59722 33.17706 L 200.192 28.104376 C 199.4379 27.236015 198.74998 26.312315 198.13406 25.34105 L 194.40036 19.453288 C 194.0398 18.884704 193.70437 18.300561 193.39505 17.702549 L 191.77468 14.569827 C 191.16553 13.392148 190.65936 12.164002 190.26183 10.899111 L 188.98159 6.825623 C 188.7668 6.1422475 188.58408 5.449211 188.43399 4.7487806 L 188.35925 4.4 C 188.16458 3.4915743 188.27185 2.5444313 188.66473 1.7025432 L 188.75925 1.5 C 189.15372 .6546929 190.1342 .25770726 191.00565 .59044616 Z" fill="url(#Obj_Gradient)"/>
      <path d="M 191.00565 .59044616 L 199.1711 3.7081642 C 200.0291 4.0357607 200.90594 4.311673 201.79692 4.534419 L 215.5141 7.963713 C 216.67576 8.254128 217.85832 8.453383 219.051 8.559662 L 236.57715 10.121397 C 237.165 10.17378 237.75464 10.203517 238.34478 10.210542 L 253.8237 10.394815 C 254.11404 10.398271 254.40442 10.39623 254.6947 10.38869 L 269.118 10.014059 C 269.47878 10.004688 269.8393 9.986826 270.19924 9.960489 L 284.57053 8.908931 C 285.56197 8.836387 286.54766 8.699642 287.5214 8.499558 L 299.09436 6.121552 C 300.13637 5.907442 301.16226 5.6213 302.16465 5.265186 L 313.91664 1.0901359 C 315.007 .7027671 316.2102 1.2335424 316.65925 2.3 L 316.65925 2.3 C 317.1814 3.5401057 317.3334 4.904854 317.09685 6.2294495 L 316.91637 7.240138 C 316.6126 8.941294 316.11806 10.602796 315.44214 12.193188 L 313.8989 15.824309 C 313.34035 17.13858 312.6606 18.397975 311.86846 19.586178 L 308.1827 25.11485 C 307.43517 26.236114 306.59057 27.289513 305.6586 28.26289 L 299.36354 34.837737 C 298.49547 35.74439 297.55463 36.57846 296.55046 37.331593 L 288.17555 43.61277 C 287.29914 44.270084 286.37688 44.86394 285.41582 45.389803 L 278.2306 49.32133 C 276.9195 50.038735 275.54156 50.62664 274.11638 51.0767 L 267.44347 53.18393 C 265.7266 53.7261 263.952 54.064805 262.15613 54.19308 L 255.26968 54.68497 C 254.19738 54.76156 253.12103 54.76288 252.04854 54.68892 L 243.6123 54.10711 C 242.5781 54.035784 241.54994 53.894627 240.5348 53.6846 L 233.3996 52.20835 C 231.44765 51.8045 229.55647 51.148614 227.77362 50.257185 L 223.1142 47.92748 C 221.88007 47.31041 220.70397 46.58354 219.60012 45.755655 L 213.91816 41.494187 C 213.47903 41.164835 213.05182 40.81987 212.63737 40.45995 L 206.8822 35.46203 C 206.0679 34.754885 205.30436 33.991345 204.59722 33.17706 L 200.192 28.104376 C 199.4379 27.236015 198.74998 26.312315 198.13406 25.34105 L 194.40036 19.453288 C 194.0398 18.884704 193.70437 18.300561 193.39505 17.702549 L 191.77468 14.569827 C 191.16553 13.392148 190.65936 12.164002 190.26183 10.899111 L 188.98159 6.825623 C 188.7668 6.1422475 188.58408 5.449211 188.43399 4.7487806 L 188.35925 4.4 C 188.16458 3.4915743 188.27185 2.5444313 188.66473 1.7025432 L 188.75925 1.5 C 189.15372 .6546929 190.1342 .25770726 191.00565 .59044616 Z" stroke="#7f8080" stroke-linecap="round" stroke-linejoin="round" stroke-width="1"/>
      <path d="M 126.97346 437.2638 L 140.7157 439.55416 C 140.89907 439.5847 141.08297 439.6121 141.2673 439.63624 L 169.62094 443.35154 C 169.86747 443.38385 170.11472 443.4104 170.36248 443.4312 L 200.60537 445.9677 C 200.86227 445.98923 201.11966 446.00456 201.3773 446.01367 L 240.30822 447.39 C 240.49658 447.3967 240.68504 447.4 240.87352 447.4 L 272.34084 447.4 C 272.50746 447.4 272.67407 447.3974 272.8406 447.3922 L 297.8754 446.60986 C 298.08563 446.6033 298.29573 446.5926 298.50555 446.5777 L 320.5533 445.0168 C 320.7116 445.0056 320.86975 444.99205 321.02766 444.97614 L 346.28815 442.4305 C 346.4899 442.4102 346.69122 442.386 346.89204 442.35803 L 370.68474 439.04265 C 370.88875 439.0142 371.0922 438.98186 371.29496 438.9456 L 380.4908 437.3 C 385.8179 436.34674 389.46876 431.3931 388.80234 426.02255 L 386.59475 408.232 C 386.5921 408.21066 386.5895 408.18934 386.58695 408.168 L 383.02312 378.4695 C 383.00157 378.28985 382.98306 378.10985 382.9676 377.9296 L 380.6054 350.37037 C 380.59565 350.2568 380.58713 350.14312 380.57983 350.02936 L 379.1932 328.43772 C 379.1916 328.41258 379.1899 328.38744 379.1882 328.3623 L 377.59603 305.276 C 377.59253 305.22533 377.5893 305.17466 377.58627 305.12398 L 376.4099 285.3218 C 376.39716 285.1073 376.38874 284.89255 376.38465 284.6777 L 375.99236 264.08285 C 375.9913 264.02762 375.98997 263.9724 375.98835 263.91718 L 375.3932 243.68283 C 375.3916 243.6276 375.39026 243.5724 375.3892 243.51715 L 374.99855 223.0076 C 374.99337 222.73592 374.9951 222.46413 375.0038 222.19253 L 375.58973 203.83292 C 375.59044 203.81097 375.5912 203.78903 375.59197 203.7671 L 376.38005 181.89779 C 376.3872 181.69928 376.39806 181.50093 376.4126 181.30283 L 377.97007 160.0822 C 377.9839 159.89409 377.99436 159.70573 378.0015 159.51724 L 378.75596 139.61837 C 378.77915 139.00663 378.83744 138.39672 378.93052 137.79165 L 381.66953 119.98813 C 381.7503 119.46304 381.8572 118.94229 381.9898 118.42783 L 386.61806 100.47017 C 386.73316 100.0236 386.8675 99.58221 387.02073 99.14725 L 392.7415 82.90761 C 392.9076 82.43613 393.0957 81.97269 393.30517 81.51883 L 398.83673 69.53379 C 398.9394 69.31129 399.0472 69.09119 399.16 68.87364 L 404.52223 58.53222 C 404.56793 58.444075 404.61446 58.35636 404.6618 58.26908 L 409.87777 48.65212 C 410.61505 47.292764 411.5647 46.059866 412.6908 45 L 412.6908 45 C 413.366 44.36453 413.39817 43.302026 412.7627 42.626837 C 412.6382 42.49456 412.49307 42.383366 412.33295 42.29759 L 409.1188 40.57573 C 408.90016 40.458593 408.6788 40.346557 408.45494 40.23971 L 400.60097 36.491224 C 400.19436 36.29716 399.77974 36.12036 399.3582 35.961293 L 389.68338 32.310412 C 389.48833 32.23681 389.29187 32.16703 389.0941 32.101107 L 376.39963 27.869615 C 376.2604 27.823208 376.12055 27.778717 375.9801 27.736158 L 363.0966 23.83206 C 363.02605 23.810687 362.95567 23.788827 362.88544 23.766482 L 350.38144 19.787938 C 349.9878 19.662693 349.5992 19.522252 349.21643 19.36693 L 337.2405 14.507127 C 336.40883 14.16964 335.60704 13.762775 334.8436 13.290834 L 325.22436 7.344389 C 325.06865 7.248137 324.9146 7.14922 324.7623 7.047681 L 319.8722 3.7876157 C 318.8908 3.1333532 318.0195 2.3274534 317.2908 1.4 L 317.2908 1.4 C 317.18518 1.2655956 316.9906 1.2422478 316.8562 1.3478513 C 316.75347 1.4285763 316.7125 1.565127 316.7538 1.6890826 L 316.8908 2.1 C 317.35003 3.4777516 317.4546 4.9490367 317.1948 6.377889 L 316.79967 8.551155 C 316.52845 10.042813 316.0466 11.488352 315.3686 12.844405 L 313.83626 15.90904 C 313.53956 16.502439 313.20624 17.07681 312.83823 17.628825 L 309.63453 22.434382 C 309.20593 23.077283 308.73132 23.688293 308.21443 24.262615 L 303.6524 29.331555 C 303.6113 29.377185 303.57 29.422578 303.5284 29.467732 L 297.53417 35.97576 C 296.90643 36.6573 296.22068 37.28302 295.48465 37.84587 L 290.46047 41.687887 C 290.01432 42.02906 289.55052 42.346504 289.071 42.6389 L 282.58458 46.594026 C 281.92292 46.997476 281.23283 47.35232 280.51975 47.65576 L 273.40434 50.683596 C 272.59667 51.02728 271.7621 51.303926 270.90905 51.510723 L 266.83 52.499586 C 266.00516 52.699546 265.16573 52.83356 264.31963 52.900355 L 258.61943 53.35037 C 258.2005 53.383445 257.78042 53.4 257.3602 53.4 L 250.32787 53.4 C 249.57077 53.4 248.81462 53.34626 248.06513 53.23919 L 240.11868 52.103986 C 239.63367 52.0347 239.1521 51.94317 238.6755 51.829693 L 232.71426 50.410353 C 231.56878 50.13762 230.4569 49.739266 229.39883 49.222534 L 223.11882 46.155556 C 222.63377 45.91867 222.16102 45.65739 221.70238 45.37272 L 217.49052 42.75846 C 216.89135 42.38656 216.31742 41.975456 215.7725 41.527835 L 211.3264 37.875677 C 211.1027 37.691927 210.88402 37.50214 210.67063 37.306523 L 206.86828 33.821043 C 206.417 33.407356 205.9898 32.968107 205.58885 32.505465 L 201.4701 27.753066 C 201.15072 27.384548 200.84836 27.001622 200.56395 26.605486 L 196.1343 20.43561 C 195.6394 19.746296 195.20013 19.018704 194.82064 18.25972 L 192.24418 13.106792 C 192.20858 13.035598 192.17352 12.96414 192.13899 12.892424 L 190.89078 10.3 C 190.04007 8.533131 189.68455 6.568594 189.86209 4.615642 L 190.0423 2.6333863 C 190.0661 2.3715243 189.87312 2.1399448 189.61125 2.1161392 C 189.44886 2.101376 189.2902 2.170751 189.19078 2.3 L 189.19078 2.3 C 188.52734 3.1624806 187.74723 3.928559 186.87285 4.576246 L 182.97632 7.462567 C 182.85263 7.554184 182.72763 7.644012 182.60136 7.732022 L 177.9791 10.953591 C 176.79237 11.78071 175.49895 12.443076 174.1342 12.922582 L 169.52708 14.541302 C 169.0365 14.713665 168.55463 14.90984 168.08316 15.129127 L 161.23638 18.313676 C 160.54022 18.637472 159.82165 18.91074 159.08625 19.13136 L 148.21586 22.392476 C 148.19914 22.397492 148.18243 22.402536 148.16572 22.407607 L 137.19764 25.737205 C 137.05974 25.779067 136.92241 25.82279 136.7857 25.86836 L 123.86446 30.17544 C 123.81534 30.191813 123.76614 30.20795 123.71686 30.223845 L 112.34946 33.89075 C 111.71097 34.096713 111.08607 34.34263 110.47846 34.627044 L 102.5465 38.33988 C 102.17616 38.51323 101.8126 38.700713 101.45662 38.901917 L 95.51051 42.262765 C 94.25747 42.971 93.81583 44.560925 94.52406 45.81396 C 94.60118 45.9504 94.69045 46.0796 94.79078 46.2 L 95.65489 47.236934 C 96.40984 48.14287 97.06231 49.12949 97.60043 50.17882 L 100.67757 56.17924 C 100.75304 56.326404 100.83079 56.47239 100.91078 56.61715 L 104.86554 63.77337 C 104.94903 63.92445 105.03007 64.07687 105.10863 64.23057 L 109.21693 72.26856 C 109.466 72.755865 109.6899 73.25563 109.88776 73.76589 L 113.37053 82.74776 C 113.38403 82.78259 113.39765 82.81737 113.4114 82.85209 L 117.00772 91.93754 C 117.12973 92.24577 117.24213 92.55772 117.34476 92.87294 L 119.9666 100.92572 C 119.98272 100.97524 119.9986 101.02484 120.01424 101.07452 L 123.08629 110.83279 C 123.28908 111.47695 123.45089 112.1333 123.57073 112.79792 L 125.55605 123.80737 C 125.5792 123.93579 125.60079 124.06448 125.6208 124.19342 L 127.32666 135.1868 C 127.3694 135.46222 127.40494 135.73871 127.43323 136.01598 L 128.32065 144.7127 C 128.36738 145.17069 128.39433 145.63048 128.40141 146.0908 L 128.58565 158.06641 C 128.58907 158.28878 128.59713 158.51105 128.60981 158.73309 L 129.38019 172.21465 C 129.38725 172.33821 129.39575 172.4617 129.40567 172.58506 L 130.73924 189.15943 C 130.77359 189.5863 130.79078 190.0144 130.79078 190.44264 L 130.79078 202.89242 C 130.79078 203.09746 130.79472 203.30247 130.8026 203.50735 L 131.38295 218.5965 C 131.38817 218.73216 131.39166 218.8679 131.39343 219.00365 L 131.58559 233.7999 C 131.58905 234.0666 131.58584 234.33333 131.57597 234.59986 L 131.00174 250.104 C 130.99444 250.30132 130.99078 250.49875 130.99078 250.6962 L 130.99078 264.29243 C 130.99078 264.49746 130.98684 264.70247 130.97896 264.90736 L 130.39377 280.12236 C 130.39178 280.17412 130.38953 280.22588 130.38704 280.27762 L 129.59172 296.78055 C 129.5911 296.79352 129.59045 296.8065 129.5898 296.81945 L 128.7953 312.51062 C 128.79229 312.5702 128.78894 312.62978 128.78526 312.68933 L 127.59634 331.91007 C 127.59264 331.97003 127.58859 332.02996 127.5842 332.08987 L 125.80107 356.45942 C 125.79421 356.55314 125.78653 356.6468 125.77802 356.7404 L 123.99213 376.3852 C 123.99123 376.39507 123.99032 376.40494 123.98941 376.4148 L 122.21864 395.4997 C 122.20007 395.6999 122.17773 395.8997 122.15162 396.09903 L 120.19091 411.07175 C 120.0581 412.08594 119.78896 413.07756 119.39078 414.01973 L 119.39078 414.01973 C 118.9932 414.9605 118.74454 415.9574 118.65371 416.97465 L 117.89078 425.51973 C 117.38302 431.20676 121.34149 436.3251 126.97346 437.2638 Z" fill="url(#Obj_Gradient_2)"/>
      <path d="M 126.97346 437.2638 L 140.7157 439.55416 C 140.89907 439.5847 141.08297 439.6121 141.2673 439.63624 L 169.62094 443.35154 C 169.86747 443.38385 170.11472 443.4104 170.36248 443.4312 L 200.60537 445.9677 C 200.86227 445.98923 201.11966 446.00456 201.3773 446.01367 L 240.30822 447.39 C 240.49658 447.3967 240.68504 447.4 240.87352 447.4 L 272.34084 447.4 C 272.50746 447.4 272.67407 447.3974 272.8406 447.3922 L 297.8754 446.60986 C 298.08563 446.6033 298.29573 446.5926 298.50555 446.5777 L 320.5533 445.0168 C 320.7116 445.0056 320.86975 444.99205 321.02766 444.97614 L 346.28815 442.4305 C 346.4899 442.4102 346.69122 442.386 346.89204 442.35803 L 370.68474 439.04265 C 370.88875 439.0142 371.0922 438.98186 371.29496 438.9456 L 380.4908 437.3 C 385.8179 436.34674 389.46876 431.3931 388.80234 426.02255 L 386.59475 408.232 C 386.5921 408.21066 386.5895 408.18934 386.58695 408.168 L 383.02312 378.4695 C 383.00157 378.28985 382.98306 378.10985 382.9676 377.9296 L 380.6054 350.37037 C 380.59565 350.2568 380.58713 350.14312 380.57983 350.02936 L 379.1932 328.43772 C 379.1916 328.41258 379.1899 328.38744 379.1882 328.3623 L 377.59603 305.276 C 377.59253 305.22533 377.5893 305.17466 377.58627 305.12398 L 376.4099 285.3218 C 376.39716 285.1073 376.38874 284.89255 376.38465 284.6777 L 375.99236 264.08285 C 375.9913 264.02762 375.98997 263.9724 375.98835 263.91718 L 375.3932 243.68283 C 375.3916 243.6276 375.39026 243.5724 375.3892 243.51715 L 374.99855 223.0076 C 374.99337 222.73592 374.9951 222.46413 375.0038 222.19253 L 375.58973 203.83292 C 375.59044 203.81097 375.5912 203.78903 375.59197 203.7671 L 376.38005 181.89779 C 376.3872 181.69928 376.39806 181.50093 376.4126 181.30283 L 377.97007 160.0822 C 377.9839 159.89409 377.99436 159.70573 378.0015 159.51724 L 378.75596 139.61837 C 378.77915 139.00663 378.83744 138.39672 378.93052 137.79165 L 381.66953 119.98813 C 381.7503 119.46304 381.8572 118.94229 381.9898 118.42783 L 386.61806 100.47017 C 386.73316 100.0236 386.8675 99.58221 387.02073 99.14725 L 392.7415 82.90761 C 392.9076 82.43613 393.0957 81.97269 393.30517 81.51883 L 398.83673 69.53379 C 398.9394 69.31129 399.0472 69.09119 399.16 68.87364 L 404.52223 58.53222 C 404.56793 58.444075 404.61446 58.35636 404.6618 58.26908 L 409.87777 48.65212 C 410.61505 47.292764 411.5647 46.059866 412.6908 45 L 412.6908 45 C 413.366 44.36453 413.39817 43.302026 412.7627 42.626837 C 412.6382 42.49456 412.49307 42.383366 412.33295 42.29759 L 409.1188 40.57573 C 408.90016 40.458593 408.6788 40.346557 408.45494 40.23971 L 400.60097 36.491224 C 400.19436 36.29716 399.77974 36.12036 399.3582 35.961293 L 389.68338 32.310412 C 389.48833 32.23681 389.29187 32.16703 389.0941 32.101107 L 376.39963 27.869615 C 376.2604 27.823208 376.12055 27.778717 375.9801 27.736158 L 363.0966 23.83206 C 363.02605 23.810687 362.95567 23.788827 362.88544 23.766482 L 350.38144 19.787938 C 349.9878 19.662693 349.5992 19.522252 349.21643 19.36693 L 337.2405 14.507127 C 336.40883 14.16964 335.60704 13.762775 334.8436 13.290834 L 325.22436 7.344389 C 325.06865 7.248137 324.9146 7.14922 324.7623 7.047681 L 319.8722 3.7876157 C 318.8908 3.1333532 318.0195 2.3274534 317.2908 1.4 L 317.2908 1.4 C 317.18518 1.2655956 316.9906 1.2422478 316.8562 1.3478513 C 316.75347 1.4285763 316.7125 1.565127 316.7538 1.6890826 L 316.8908 2.1 C 317.35003 3.4777516 317.4546 4.9490367 317.1948 6.377889 L 316.79967 8.551155 C 316.52845 10.042813 316.0466 11.488352 315.3686 12.844405 L 313.83626 15.90904 C 313.53956 16.502439 313.20624 17.07681 312.83823 17.628825 L 309.63453 22.434382 C 309.20593 23.077283 308.73132 23.688293 308.21443 24.262615 L 303.6524 29.331555 C 303.6113 29.377185 303.57 29.422578 303.5284 29.467732 L 297.53417 35.97576 C 296.90643 36.6573 296.22068 37.28302 295.48465 37.84587 L 290.46047 41.687887 C 290.01432 42.02906 289.55052 42.346504 289.071 42.6389 L 282.58458 46.594026 C 281.92292 46.997476 281.23283 47.35232 280.51975 47.65576 L 273.40434 50.683596 C 272.59667 51.02728 271.7621 51.303926 270.90905 51.510723 L 266.83 52.499586 C 266.00516 52.699546 265.16573 52.83356 264.31963 52.900355 L 258.61943 53.35037 C 258.2005 53.383445 257.78042 53.4 257.3602 53.4 L 250.32787 53.4 C 249.57077 53.4 248.81462 53.34626 248.06513 53.23919 L 240.11868 52.103986 C 239.63367 52.0347 239.1521 51.94317 238.6755 51.829693 L 232.71426 50.410353 C 231.56878 50.13762 230.4569 49.739266 229.39883 49.222534 L 223.11882 46.155556 C 222.63377 45.91867 222.16102 45.65739 221.70238 45.37272 L 217.49052 42.75846 C 216.89135 42.38656 216.31742 41.975456 215.7725 41.527835 L 211.3264 37.875677 C 211.1027 37.691927 210.88402 37.50214 210.67063 37.306523 L 206.86828 33.821043 C 206.417 33.407356 205.9898 32.968107 205.58885 32.505465 L 201.4701 27.753066 C 201.15072 27.384548 200.84836 27.001622 200.56395 26.605486 L 196.1343 20.43561 C 195.6394 19.746296 195.20013 19.018704 194.82064 18.25972 L 192.24418 13.106792 C 192.20858 13.035598 192.17352 12.96414 192.13899 12.892424 L 190.89078 10.3 C 190.04007 8.533131 189.68455 6.568594 189.86209 4.615642 L 190.0423 2.6333863 C 190.0661 2.3715243 189.87312 2.1399448 189.61125 2.1161392 C 189.44886 2.101376 189.2902 2.170751 189.19078 2.3 L 189.19078 2.3 C 188.52734 3.1624806 187.74723 3.928559 186.87285 4.576246 L 182.97632 7.462567 C 182.85263 7.554184 182.72763 7.644012 182.60136 7.732022 L 177.9791 10.953591 C 176.79237 11.78071 175.49895 12.443076 174.1342 12.922582 L 169.52708 14.541302 C 169.0365 14.713665 168.55463 14.90984 168.08316 15.129127 L 161.23638 18.313676 C 160.54022 18.637472 159.82165 18.91074 159.08625 19.13136 L 148.21586 22.392476 C 148.19914 22.397492 148.18243 22.402536 148.16572 22.407607 L 137.19764 25.737205 C 137.05974 25.779067 136.92241 25.82279 136.7857 25.86836 L 123.86446 30.17544 C 123.81534 30.191813 123.76614 30.20795 123.71686 30.223845 L 112.34946 33.89075 C 111.71097 34.096713 111.08607 34.34263 110.47846 34.627044 L 102.5465 38.33988 C 102.17616 38.51323 101.8126 38.700713 101.45662 38.901917 L 95.51051 42.262765 C 94.25747 42.971 93.81583 44.560925 94.52406 45.81396 C 94.60118 45.9504 94.69045 46.0796 94.79078 46.2 L 95.65489 47.236934 C 96.40984 48.14287 97.06231 49.12949 97.60043 50.17882 L 100.67757 56.17924 C 100.75304 56.326404 100.83079 56.47239 100.91078 56.61715 L 104.86554 63.77337 C 104.94903 63.92445 105.03007 64.07687 105.10863 64.23057 L 109.21693 72.26856 C 109.466 72.755865 109.6899 73.25563 109.88776 73.76589 L 113.37053 82.74776 C 113.38403 82.78259 113.39765 82.81737 113.4114 82.85209 L 117.00772 91.93754 C 117.12973 92.24577 117.24213 92.55772 117.34476 92.87294 L 119.9666 100.92572 C 119.98272 100.97524 119.9986 101.02484 120.01424 101.07452 L 123.08629 110.83279 C 123.28908 111.47695 123.45089 112.1333 123.57073 112.79792 L 125.55605 123.80737 C 125.5792 123.93579 125.60079 124.06448 125.6208 124.19342 L 127.32666 135.1868 C 127.3694 135.46222 127.40494 135.73871 127.43323 136.01598 L 128.32065 144.7127 C 128.36738 145.17069 128.39433 145.63048 128.40141 146.0908 L 128.58565 158.06641 C 128.58907 158.28878 128.59713 158.51105 128.60981 158.73309 L 129.38019 172.21465 C 129.38725 172.33821 129.39575 172.4617 129.40567 172.58506 L 130.73924 189.15943 C 130.77359 189.5863 130.79078 190.0144 130.79078 190.44264 L 130.79078 202.89242 C 130.79078 203.09746 130.79472 203.30247 130.8026 203.50735 L 131.38295 218.5965 C 131.38817 218.73216 131.39166 218.8679 131.39343 219.00365 L 131.58559 233.7999 C 131.58905 234.0666 131.58584 234.33333 131.57597 234.59986 L 131.00174 250.104 C 130.99444 250.30132 130.99078 250.49875 130.99078 250.6962 L 130.99078 264.29243 C 130.99078 264.49746 130.98684 264.70247 130.97896 264.90736 L 130.39377 280.12236 C 130.39178 280.17412 130.38953 280.22588 130.38704 280.27762 L 129.59172 296.78055 C 129.5911 296.79352 129.59045 296.8065 129.5898 296.81945 L 128.7953 312.51062 C 128.79229 312.5702 128.78894 312.62978 128.78526 312.68933 L 127.59634 331.91007 C 127.59264 331.97003 127.58859 332.02996 127.5842 332.08987 L 125.80107 356.45942 C 125.79421 356.55314 125.78653 356.6468 125.77802 356.7404 L 123.99213 376.3852 C 123.99123 376.39507 123.99032 376.40494 123.98941 376.4148 L 122.21864 395.4997 C 122.20007 395.6999 122.17773 395.8997 122.15162 396.09903 L 120.19091 411.07175 C 120.0581 412.08594 119.78896 413.07756 119.39078 414.01973 L 119.39078 414.01973 C 118.9932 414.9605 118.74454 415.9574 118.65371 416.97465 L 117.89078 425.51973 C 117.38302 431.20676 121.34149 436.3251 126.97346 437.2638 Z" stroke="#7f8080" stroke-linecap="round" stroke-linejoin="round" stroke-width="1"/>
      <path d="M 38 151.44615 L 44.2 155.84615 L 52.4 159.84615 L 61 163.44615 L 70 167.24615 L 81 171.24615 L 90.4 174.04615 L 99.4 176.64615 L 108.4 179.24615 L 113.8 180.64615 L 119.4 181.64615 L 121.8 175.84615 L 124.4 170.44615 L 126.6 166.44615 L 129.2 163.04615 L 129.4 154.04615 L 128.8 143.04615 L 127 132.24615 L 125.4 121.84615 L 122.8 110.84614 L 120.4 101.24614 L 117.6 93.24614 L 114.4 83.84614 L 111.6 76.44614 L 108 68.846144 L 104 61.246144 L 100 53.846144 L 97.4 50.246144 L 93.8 44.446144 L 88.4 48.846144 L 83.6 53.646144 L 79 59.846144 L 74.6 66.046144 L 69.8 74.64614 L 65 84.04614 L 60.2 93.24614 L 56.6 101.84614 L 52.6 110.84614 L 49.4 119.04615 L 45.6 128.44615 L 42.8 136.44615 L 39.8 144.84615 Z" fill="url(#Obj_Gradient_3)"/>
      <path d="M 38 151.44615 L 44.2 155.84615 L 52.4 159.84615 L 61 163.44615 L 70 167.24615 L 81 171.24615 L 90.4 174.04615 L 99.4 176.64615 L 108.4 179.24615 L 113.8 180.64615 L 119.4 181.64615 L 121.8 175.84615 L 124.4 170.44615 L 126.6 166.44615 L 129.2 163.04615 L 129.4 154.04615 L 128.8 143.04615 L 127 132.24615 L 125.4 121.84615 L 122.8 110.84614 L 120.4 101.24614 L 117.6 93.24614 L 114.4 83.84614 L 111.6 76.44614 L 108 68.846144 L 104 61.246144 L 100 53.846144 L 97.4 50.246144 L 93.8 44.446144 L 88.4 48.846144 L 83.6 53.646144 L 79 59.846144 L 74.6 66.046144 L 69.8 74.64614 L 65 84.04614 L 60.2 93.24614 L 56.6 101.84614 L 52.6 110.84614 L 49.4 119.04615 L 45.6 128.44615 L 42.8 136.44615 L 39.8 144.84615 Z" stroke="#7f8080" stroke-linecap="round" stroke-linejoin="round" stroke-width="1"/>
      <path d="M 469.4053 150.50275 L 463.2053 154.90275 L 455.0053 158.90275 L 446.4053 162.50275 L 437.4053 166.30275 L 426.4053 170.30275 L 417.0053 173.10275 L 408.0053 175.70275 L 399.0053 178.30275 L 393.6053 179.70275 L 388.0053 180.70275 L 385.6053 174.90275 L 383.0053 169.50275 L 380.8053 165.50275 L 378.2053 162.10275 L 378.0053 153.10275 L 378.6053 142.10275 L 380.4053 131.30275 L 382.0053 120.90275 L 384.6053 109.90275 L 387.0053 100.30275 L 389.8053 92.30275 L 393.0053 82.90275 L 395.8053 75.50275 L 399.4053 67.90275 L 403.4053 60.30275 L 407.4053 52.90275 L 410.0053 49.30275 L 413.6053 43.50275 L 419.0053 47.90275 L 423.8053 52.70275 L 428.4053 58.90275 L 432.8053 65.10275 L 437.6053 73.70275 L 442.4053 83.10275 L 447.2053 92.30275 L 450.8053 100.90275 L 454.8053 109.90275 L 458.0053 118.10275 L 461.8053 127.50275 L 464.6053 135.50275 L 467.6053 143.90275 Z" fill="url(#Obj_Gradient_4)"/>
      <path d="M 469.4053 150.50275 L 463.2053 154.90275 L 455.0053 158.90275 L 446.4053 162.50275 L 437.4053 166.30275 L 426.4053 170.30275 L 417.0053 173.10275 L 408.0053 175.70275 L 399.0053 178.30275 L 393.6053 179.70275 L 388.0053 180.70275 L 385.6053 174.90275 L 383.0053 169.50275 L 380.8053 165.50275 L 378.2053 162.10275 L 378.0053 153.10275 L 378.6053 142.10275 L 380.4053 131.30275 L 382.0053 120.90275 L 384.6053 109.90275 L 387.0053 100.30275 L 389.8053 92.30275 L 393.0053 82.90275 L 395.8053 75.50275 L 399.4053 67.90275 L 403.4053 60.30275 L 407.4053 52.90275 L 410.0053 49.30275 L 413.6053 43.50275 L 419.0053 47.90275 L 423.8053 52.70275 L 428.4053 58.90275 L 432.8053 65.10275 L 437.6053 73.70275 L 442.4053 83.10275 L 447.2053 92.30275 L 450.8053 100.90275 L 454.8053 109.90275 L 458.0053 118.10275 L 461.8053 127.50275 L 464.6053 135.50275 L 467.6053 143.90275 Z" stroke="#7f8080" stroke-linecap="round" stroke-linejoin="round" stroke-width="1"/>
      <path d="M 38 151.44615 L 44.2 155.84615 L 52.4 159.84615 L 61 163.44615 L 70 167.24615 L 81 171.24615 L 90.4 174.04615 L 99.4 176.64615 L 108.4 179.24615 L 113.8 180.64615 L 119.4 181.64615 L 122.4 175.24615 L 118.6 174.44615 L 113.8 173.24615 L 108.2 172.04615 L 102.2 170.24615 L 97.6 168.84615 L 93.4 167.64615 L 88.8 165.64615 L 84.2 164.04615 L 79.4 162.04615 L 75.4 160.64615 L 70.2 158.44615 L 65.6 156.84615 L 60.8 154.64615 L 56 152.84615 L 52 150.84615 L 47.6 148.64615 L 43.2 146.44615 L 39.8 144.84615 Z" fill="url(#Obj_Gradient_5)"/>
      <path d="M 38 151.44615 L 44.2 155.84615 L 52.4 159.84615 L 61 163.44615 L 70 167.24615 L 81 171.24615 L 90.4 174.04615 L 99.4 176.64615 L 108.4 179.24615 L 113.8 180.64615 L 119.4 181.64615 L 122.4 175.24615 L 118.6 174.44615 L 113.8 173.24615 L 108.2 172.04615 L 102.2 170.24615 L 97.6 168.84615 L 93.4 167.64615 L 88.8 165.64615 L 84.2 164.04615 L 79.4 162.04615 L 75.4 160.64615 L 70.2 158.44615 L 65.6 156.84615 L 60.8 154.64615 L 56 152.84615 L 52 150.84615 L 47.6 148.64615 L 43.2 146.44615 L 39.8 144.84615 Z" stroke="#7f8080" stroke-linecap="round" stroke-linejoin="round" stroke-width="1"/>
      <path d="M 469.4053 150.50275 L 463.2053 154.90275 L 455.0053 158.90275 L 446.4053 162.50275 L 437.4053 166.30275 L 426.4053 170.30275 L 417.0053 173.10275 L 408.0053 175.70275 L 399.0053 178.30275 L 393.6053 179.70275 L 388.0053 180.70275 L 385.0053 174.30275 L 388.8053 173.50275 L 393.6053 172.30275 L 399.2053 171.10275 L 405.2053 169.30275 L 409.8053 167.90275 L 414.0053 166.70275 L 418.6053 164.70275 L 423.2053 163.10275 L 428.0053 161.10275 L 432.0053 159.70275 L 437.2053 157.50275 L 441.8053 155.90275 L 446.6053 153.70275 L 451.4053 151.90275 L 455.4053 149.90275 L 459.8053 147.70275 L 464.2053 145.50275 L 467.6053 143.90275 Z" fill="url(#Obj_Gradient_6)"/>
      <path d="M 469.4053 150.50275 L 463.2053 154.90275 L 455.0053 158.90275 L 446.4053 162.50275 L 437.4053 166.30275 L 426.4053 170.30275 L 417.0053 173.10275 L 408.0053 175.70275 L 399.0053 178.30275 L 393.6053 179.70275 L 388.0053 180.70275 L 385.0053 174.30275 L 388.8053 173.50275 L 393.6053 172.30275 L 399.2053 171.10275 L 405.2053 169.30275 L 409.8053 167.90275 L 414.0053 166.70275 L 418.6053 164.70275 L 423.2053 163.10275 L 428.0053 161.10275 L 432.0053 159.70275 L 437.2053 157.50275 L 441.8053 155.90275 L 446.6053 153.70275 L 451.4053 151.90275 L 455.4053 149.90275 L 459.8053 147.70275 L 464.2053 145.50275 L 467.6053 143.90275 Z" stroke="#7f8080" stroke-linecap="round" stroke-linejoin="round" stroke-width="1"/>
      <path d="M 188.57212 1.9637885 L 183.84295 6.017363 C 182.6926 7.003375 181.44764 7.873309 180.12621 8.614485 L 177.59958 10.031649 C 176.1644 10.836623 175.5836 12.605752 176.26239 14.104735 L 177.28 16.351968 C 177.40158 16.620455 177.52831 16.88658 177.66012 17.150196 L 179.4624 20.754736 L 181.94938 25.728707 C 182.29117 26.4123 182.66683 27.078434 183.07495 27.724625 L 185.40134 31.40808 C 185.84172 32.105345 186.31928 32.77842 186.83195 33.424387 L 190.24264 37.721847 C 190.7887 38.409875 191.37371 39.066056 191.99482 39.687167 L 196.66087 44.35321 C 197.06175 44.75409 197.4773 45.14001 197.9067 45.510183 L 202.47023 49.444256 C 202.8649 49.78448 203.271 50.11119 203.68785 50.423827 L 207.66279 53.40503 C 208.3287 53.904467 209.02123 54.36738 209.73733 54.79174 L 213.8704 57.24096 C 213.9984 57.31681 214.12712 57.391414 214.25656 57.464765 L 218.9541 60.12671 C 219.6924 60.54507 220.45328 60.92226 221.23325 61.25653 L 224.78307 62.77788 C 225.36903 63.02901 225.96518 63.255666 226.56997 63.45726 L 231.58808 65.129966 C 232.83532 65.54571 234.11592 65.853756 235.4158 66.05071 L 239.51464 66.67174 C 239.87976 66.727064 240.24615 66.77358 240.6135 66.81126 L 247.4946 67.517015 C 247.73978 67.54216 247.98534 67.563364 248.2312 67.58062 L 252.75835 67.89831 C 253.2942 67.935915 253.83122 67.954734 254.3684 67.954734 L 257.63046 67.954736 C 258.58416 67.95474 259.53693 67.89542 260.48327 67.77713 L 264.47198 67.27854 C 265.13195 67.19604 265.78802 67.08496 266.43835 66.9456 L 272.5204 65.64231 C 273.41426 65.450764 274.29592 65.2061 275.16068 64.90961 L 279.66952 63.36372 C 280.46417 63.09127 281.2433 62.77549 282.0034 62.41779 L 286.83677 60.14326 C 287.38697 59.88435 287.92668 59.603714 288.45464 59.302025 L 292.2225 57.14896 C 292.9153 56.75308 293.587 56.321415 294.23494 55.85572 L 298.91106 52.494754 C 299.41175 52.13489 299.89776 51.75503 300.3679 51.35611 L 305.68877 46.841445 C 306.0711 46.51706 306.4427 46.18026 306.803 45.831584 L 311.5022 41.283956 C 312.1418 40.665 312.7449 40.009435 313.30852 39.320576 L 317.1018 34.68434 C 317.60852 34.065026 318.08257 33.41969 318.522 32.750964 L 322.1392 27.246564 C 322.35462 26.918732 322.56163 26.585442 322.76 26.24702 L 325.2831 21.942924 C 325.66906 21.28454 326.022 20.607354 326.34062 19.91388 L 328.4593 15.30261 C 328.99218 14.142849 329.36334 12.915436 329.5624 11.654735 L 329.5624 11.654735 C 329.7407 10.525474 329.1614 9.412026 328.1343 8.909898 L 322.84088 6.321995 C 321.52642 5.679371 320.29183 4.8848617 319.1624 3.9547353 L 318.7564 3.620375 C 317.91205 2.9250435 317.28864 1.9987377 316.9624 .9547353 L 316.9624 .9547353 C 316.91573 .8054188 316.75686 .7222004 316.60754 .7688618 C 316.49247 .8048229 316.41277 .9096853 316.40892 1.0301877 L 316.29968 4.4531106 C 316.20894 7.296186 315.5916 10.097764 314.479 12.715667 L 313.60206 14.779043 C 313.0435 16.093314 312.36374 17.35271 311.5716 18.540912 L 307.88582 24.069584 C 307.1383 25.190848 306.2937 26.244248 305.36175 27.217624 L 299.0667 33.79247 C 298.1986 34.699125 297.25777 35.533196 296.2536 36.286327 L 287.8787 42.567505 C 287.00228 43.22482 286.08 43.818674 285.11896 44.344537 L 277.93376 48.27606 C 276.62263 48.99347 275.2447 49.58137 273.8195 50.03143 L 267.1466 52.138666 C 265.42973 52.680837 263.65514 53.01954 261.85927 53.147815 L 254.9728 53.639704 C 253.90052 53.7163 252.82417 53.717616 251.75168 53.64365 L 243.31543 53.06184 C 242.28125 52.99052 241.25308 52.84936 240.23795 52.63933 L 233.10274 51.163084 C 231.1508 50.75923 229.2596 50.10335 227.47676 49.21192 L 222.81735 46.882215 C 221.5832 46.265147 220.4071 45.538274 219.30326 44.71039 L 213.6213 40.44892 C 213.18217 40.11957 212.75496 39.7746 212.3405 39.414683 L 206.58533 34.416762 C 205.77104 33.70962 205.0075 32.94608 204.30036 32.131794 L 199.89513 27.05911 C 199.14103 26.19075 198.45312 25.26705 197.8372 24.295783 L 194.1035 18.408022 C 193.74293 17.839438 193.4075 17.255295 193.09819 16.657283 L 191.47781 13.52456 C 190.86867 12.346882 190.3625 11.118736 189.96497 9.853845 L 188.68473 5.780357 C 188.46995 5.0969816 188.28722 4.403945 188.13713 3.7035146 L 187.9117 2.651568 C 187.82664 2.2545578 188.053 1.8569059 188.4378 1.727367 L 188.4378 1.727367 C 188.5103 1.7029627 188.58884 1.7419477 188.61325 1.8144425 C 188.63126 1.867954 188.615 1.9270434 188.57212 1.9637885 Z" fill="url(#Obj_Gradient_7)"/>
      <path d="M 188.57212 1.9637885 L 183.84295 6.017363 C 182.6926 7.003375 181.44764 7.873309 180.12621 8.614485 L 177.59958 10.031649 C 176.1644 10.836623 175.5836 12.605752 176.26239 14.104735 L 177.28 16.351968 C 177.40158 16.620455 177.52831 16.88658 177.66012 17.150196 L 179.4624 20.754736 L 181.94938 25.728707 C 182.29117 26.4123 182.66683 27.078434 183.07495 27.724625 L 185.40134 31.40808 C 185.84172 32.105345 186.31928 32.77842 186.83195 33.424387 L 190.24264 37.721847 C 190.7887 38.409875 191.37371 39.066056 191.99482 39.687167 L 196.66087 44.35321 C 197.06175 44.75409 197.4773 45.14001 197.9067 45.510183 L 202.47023 49.444256 C 202.8649 49.78448 203.271 50.11119 203.68785 50.423827 L 207.66279 53.40503 C 208.3287 53.904467 209.02123 54.36738 209.73733 54.79174 L 213.8704 57.24096 C 213.9984 57.31681 214.12712 57.391414 214.25656 57.464765 L 218.9541 60.12671 C 219.6924 60.54507 220.45328 60.92226 221.23325 61.25653 L 224.78307 62.77788 C 225.36903 63.02901 225.96518 63.255666 226.56997 63.45726 L 231.58808 65.129966 C 232.83532 65.54571 234.11592 65.853756 235.4158 66.05071 L 239.51464 66.67174 C 239.87976 66.727064 240.24615 66.77358 240.6135 66.81126 L 247.4946 67.517015 C 247.73978 67.54216 247.98534 67.563364 248.2312 67.58062 L 252.75835 67.89831 C 253.2942 67.935915 253.83122 67.954734 254.3684 67.954734 L 257.63046 67.954736 C 258.58416 67.95474 259.53693 67.89542 260.48327 67.77713 L 264.47198 67.27854 C 265.13195 67.19604 265.78802 67.08496 266.43835 66.9456 L 272.5204 65.64231 C 273.41426 65.450764 274.29592 65.2061 275.16068 64.90961 L 279.66952 63.36372 C 280.46417 63.09127 281.2433 62.77549 282.0034 62.41779 L 286.83677 60.14326 C 287.38697 59.88435 287.92668 59.603714 288.45464 59.302025 L 292.2225 57.14896 C 292.9153 56.75308 293.587 56.321415 294.23494 55.85572 L 298.91106 52.494754 C 299.41175 52.13489 299.89776 51.75503 300.3679 51.35611 L 305.68877 46.841445 C 306.0711 46.51706 306.4427 46.18026 306.803 45.831584 L 311.5022 41.283956 C 312.1418 40.665 312.7449 40.009435 313.30852 39.320576 L 317.1018 34.68434 C 317.60852 34.065026 318.08257 33.41969 318.522 32.750964 L 322.1392 27.246564 C 322.35462 26.918732 322.56163 26.585442 322.76 26.24702 L 325.2831 21.942924 C 325.66906 21.28454 326.022 20.607354 326.34062 19.91388 L 328.4593 15.30261 C 328.99218 14.142849 329.36334 12.915436 329.5624 11.654735 L 329.5624 11.654735 C 329.7407 10.525474 329.1614 9.412026 328.1343 8.909898 L 322.84088 6.321995 C 321.52642 5.679371 320.29183 4.8848617 319.1624 3.9547353 L 318.7564 3.620375 C 317.91205 2.9250435 317.28864 1.9987377 316.9624 .9547353 L 316.9624 .9547353 C 316.91573 .8054188 316.75686 .7222004 316.60754 .7688618 C 316.49247 .8048229 316.41277 .9096853 316.40892 1.0301877 L 316.29968 4.4531106 C 316.20894 7.296186 315.5916 10.097764 314.479 12.715667 L 313.60206 14.779043 C 313.0435 16.093314 312.36374 17.35271 311.5716 18.540912 L 307.88582 24.069584 C 307.1383 25.190848 306.2937 26.244248 305.36175 27.217624 L 299.0667 33.79247 C 298.1986 34.699125 297.25777 35.533196 296.2536 36.286327 L 287.8787 42.567505 C 287.00228 43.22482 286.08 43.818674 285.11896 44.344537 L 277.93376 48.27606 C 276.62263 48.99347 275.2447 49.58137 273.8195 50.03143 L 267.1466 52.138666 C 265.42973 52.680837 263.65514 53.01954 261.85927 53.147815 L 254.9728 53.639704 C 253.90052 53.7163 252.82417 53.717616 251.75168 53.64365 L 243.31543 53.06184 C 242.28125 52.99052 241.25308 52.84936 240.23795 52.63933 L 233.10274 51.163084 C 231.1508 50.75923 229.2596 50.10335 227.47676 49.21192 L 222.81735 46.882215 C 221.5832 46.265147 220.4071 45.538274 219.30326 44.71039 L 213.6213 40.44892 C 213.18217 40.11957 212.75496 39.7746 212.3405 39.414683 L 206.58533 34.416762 C 205.77104 33.70962 205.0075 32.94608 204.30036 32.131794 L 199.89513 27.05911 C 199.14103 26.19075 198.45312 25.26705 197.8372 24.295783 L 194.1035 18.408022 C 193.74293 17.839438 193.4075 17.255295 193.09819 16.657283 L 191.47781 13.52456 C 190.86867 12.346882 190.3625 11.118736 189.96497 9.853845 L 188.68473 5.780357 C 188.46995 5.0969816 188.28722 4.403945 188.13713 3.7035146 L 187.9117 2.651568 C 187.82664 2.2545578 188.053 1.8569059 188.4378 1.727367 L 188.4378 1.727367 C 188.5103 1.7029627 188.58884 1.7419477 188.61325 1.8144425 C 188.63126 1.867954 188.615 1.9270434 188.57212 1.9637885 Z" stroke="#7f8080" stroke-linecap="round" stroke-linejoin="round" stroke-width="1"/>
      <path d="M 188.05925 1.7558923 L 193.45925 1.1558923 L 200.25925 4.5558924 L 205.25925 6.3558924 L 213.65925 8.155892 L 222.05925 9.155892 L 230.05925 10.155892 L 237.65925 10.355892 L 246.25925 10.755892 L 257.85925 10.555892 L 266.25925 10.155892 L 275.65925 9.555892 L 284.05925 8.755892 L 293.25925 7.355892 L 301.45925 5.1558924 L 307.25925 3.3558924 L 312.85925 .7558923 L 315.65925 1.9558923 L 316.05925 7.555892 L 313.25925 15.555893 L 307.85925 18.355893 L 297.25925 21.555893 L 285.85925 23.955893 L 274.65925 24.755893 L 262.25925 25.755893 L 251.85925 25.755893 L 242.45925 25.755893 L 230.85925 25.155893 L 219.65925 24.355893 L 209.05925 22.155893 L 200.45925 20.155893 L 194.25925 17.355893 L 192.25925 15.755893 L 189.05925 8.155892 Z" fill="url(#Obj_Gradient_8)"/>
      <path d="M 188.05925 1.7558923 L 193.45925 1.1558923 L 200.25925 4.5558924 L 205.25925 6.3558924 L 213.65925 8.155892 L 222.05925 9.155892 L 230.05925 10.155892 L 237.65925 10.355892 L 246.25925 10.755892 L 257.85925 10.555892 L 266.25925 10.155892 L 275.65925 9.555892 L 284.05925 8.755892 L 293.25925 7.355892 L 301.45925 5.1558924 L 307.25925 3.3558924 L 312.85925 .7558923 L 315.65925 1.9558923 L 316.05925 7.555892 L 313.25925 15.555893 L 307.85925 18.355893 L 297.25925 21.555893 L 285.85925 23.955893 L 274.65925 24.755893 L 262.25925 25.755893 L 251.85925 25.755893 L 242.45925 25.755893 L 230.85925 25.155893 L 219.65925 24.355893 L 209.05925 22.155893 L 200.45925 20.155893 L 194.25925 17.355893 L 192.25925 15.755893 L 189.05925 8.155892 Z" stroke="#7f8080" stroke-linecap="round" stroke-linejoin="round" stroke-width="1"/>
      <path d="M 117.81321 428.2 L 117.81321 428.2 C 117.74753 428.7255 117.81036 429.25905 117.9963 429.7549 L 118.6473 431.4909 C 118.82406 431.96227 119.05115 432.4132 119.32462 432.8358 L 120.29243 434.33153 C 120.83339 435.16756 121.5465 435.87855 122.38412 436.417 L 123.46217 437.11005 C 123.76243 437.3031 124.077 437.47285 124.40316 437.6179 L 125.72001 438.2035 C 126.31654 438.46876 126.94725 438.6493 127.5938 438.7398 L 136.60421 440.00126 C 136.6142 440.00265 136.6242 440.00403 136.6342 440.0054 L 148.3502 441.594 C 148.3962 441.60024 148.44226 441.606 148.48838 441.61134 L 158.77131 442.79783 C 158.80324 442.8015 158.8352 442.805 158.86716 442.8082 L 172.57723 444.1991 C 172.60521 444.20193 172.63321 444.2046 172.66123 444.2071 L 183.76653 445.19865 C 183.80164 445.2018 183.83679 445.20466 183.87195 445.20726 L 194.55848 445.99886 C 194.59896 446.00185 194.63947 446.0045 194.68 446.0068 L 205.18798 446.6016 C 205.2088 446.60276 205.2296 446.60404 205.25042 446.6054 L 217.2932 447.3951 C 217.3772 447.4006 217.4613 447.4046 217.54543 447.40707 L 230.99256 447.80257 C 231.01032 447.8031 231.02809 447.8037 231.04585 447.80434 L 241.6897 448.19856 C 241.77603 448.20176 241.8624 448.20335 241.9488 448.20335 L 252.5578 448.20335 C 252.59874 448.20335 252.63967 448.2037 252.6806 448.20443 L 263.76702 448.39893 C 263.9351 448.4019 264.1032 448.39877 264.27106 448.3896 L 274.8923 447.8103 C 274.9769 447.80566 275.06157 447.8026 275.1463 447.80104 L 285.91085 447.6053 C 285.9831 447.604 286.0553 447.6016 286.12745 447.59803 L 298.14607 447.00695 C 298.19483 447.00455 298.24355 447.00165 298.29225 446.99823 L 309.5323 446.20945 C 309.59023 446.2054 309.64812 446.2006 309.70594 446.1951 L 322.1165 445.01313 C 322.18497 445.0066 322.25352 445.0011 322.32214 444.9966 L 334.25416 444.2142 C 334.36418 444.20696 334.474 444.19715 334.58355 444.18475 L 344.9959 443.006 C 345.01144 443.00423 345.02697 443.0024 345.0425 443.00056 L 354.9902 441.80683 C 355.00954 441.8045 355.02886 441.8021 355.04818 441.79963 L 368.88394 440.0221 C 368.98115 440.0096 369.0781 439.99507 369.1747 439.9785 L 375.7282 438.85506 C 375.92915 438.8206 376.13153 438.79495 376.33473 438.77817 L 379.56706 438.5112 C 380.4563 438.43775 381.3233 438.19497 382.12135 437.79594 L 383.60765 437.0528 C 384.20824 436.7525 384.7625 436.36735 385.2534 435.9092 L 386.5885 434.6631 C 387.1953 434.0967 387.65073 433.38747 387.9132 432.6 L 388.20805 431.7155 C 388.2781 431.5053 388.33817 431.29187 388.388 431.07595 L 388.8577 429.04056 C 388.89293 428.8879 388.8595 428.7275 388.7662 428.6017 L 388.7662 428.6017 C 388.67587 428.4798 388.52523 428.4183 388.3754 428.44214 L 379.89555 429.7912 C 379.84466 429.7993 379.79385 429.80796 379.74315 429.8172 L 366.7584 432.17805 C 366.6656 432.1949 366.5725 432.2099 366.4791 432.223 L 355.24943 433.7991 C 355.2293 433.80194 355.20914 433.80486 355.189 433.80786 L 342.06643 435.76645 C 341.90167 435.79105 341.73608 435.80975 341.56998 435.8225 L 328.84517 436.80136 C 328.82786 436.8027 328.81055 436.80396 328.79323 436.80516 L 314.4531 437.801 C 314.4305 437.80257 314.4079 437.80403 314.3853 437.8054 L 301.08205 438.5996 C 301.04016 438.6021 300.99824 438.60423 300.9563 438.606 L 286.76485 439.1973 C 286.66776 439.20133 286.5706 439.20335 286.47344 439.20335 L 273.2192 439.20335 L 260.67753 439.20335 C 260.63865 439.20335 260.59976 439.2037 260.56088 439.2043 L 248.8025 439.4003 C 248.68032 439.40234 248.55812 439.40117 248.436 439.3968 L 237.6024 439.0099 C 237.4803 439.00554 237.3581 439.00437 237.2359 439.0064 L 225.52127 439.20165 C 225.45323 439.2028 225.38518 439.20293 225.31713 439.2021 L 209.61484 439.0058 C 209.48444 439.00417 209.35411 438.9989 209.224 438.99 L 194.91423 438.00986 C 194.85088 438.0055 194.7876 438.0003 194.7244 437.99426 L 180.23339 436.6047 C 180.22393 436.6038 180.21448 436.6029 180.20503 436.60194 L 166.393 435.22073 C 166.27715 435.20915 166.16162 435.1947 166.0465 435.17733 L 151.73735 433.02116 C 151.65859 433.0093 151.57964 432.99877 151.50052 432.9896 L 137.98059 431.42207 C 137.87301 431.4096 137.76574 431.3946 137.65886 431.3772 L 128.26677 429.84377 C 128.10178 429.81684 127.9378 429.784 127.77516 429.7453 L 118.69756 427.58654 C 118.30925 427.4942 117.91959 427.7341 117.82724 428.12244 C 117.82116 428.148 117.81647 428.1739 117.81321 428.2 Z" fill="url(#Obj_Gradient_9)"/>
      <path d="M 117.81321 428.2 L 117.81321 428.2 C 117.74753 428.7255 117.81036 429.25905 117.9963 429.7549 L 118.6473 431.4909 C 118.82406 431.96227 119.05115 432.4132 119.32462 432.8358 L 120.29243 434.33153 C 120.83339 435.16756 121.5465 435.87855 122.38412 436.417 L 123.46217 437.11005 C 123.76243 437.3031 124.077 437.47285 124.40316 437.6179 L 125.72001 438.2035 C 126.31654 438.46876 126.94725 438.6493 127.5938 438.7398 L 136.60421 440.00126 C 136.6142 440.00265 136.6242 440.00403 136.6342 440.0054 L 148.3502 441.594 C 148.3962 441.60024 148.44226 441.606 148.48838 441.61134 L 158.77131 442.79783 C 158.80324 442.8015 158.8352 442.805 158.86716 442.8082 L 172.57723 444.1991 C 172.60521 444.20193 172.63321 444.2046 172.66123 444.2071 L 183.76653 445.19865 C 183.80164 445.2018 183.83679 445.20466 183.87195 445.20726 L 194.55848 445.99886 C 194.59896 446.00185 194.63947 446.0045 194.68 446.0068 L 205.18798 446.6016 C 205.2088 446.60276 205.2296 446.60404 205.25042 446.6054 L 217.2932 447.3951 C 217.3772 447.4006 217.4613 447.4046 217.54543 447.40707 L 230.99256 447.80257 C 231.01032 447.8031 231.02809 447.8037 231.04585 447.80434 L 241.6897 448.19856 C 241.77603 448.20176 241.8624 448.20335 241.9488 448.20335 L 252.5578 448.20335 C 252.59874 448.20335 252.63967 448.2037 252.6806 448.20443 L 263.76702 448.39893 C 263.9351 448.4019 264.1032 448.39877 264.27106 448.3896 L 274.8923 447.8103 C 274.9769 447.80566 275.06157 447.8026 275.1463 447.80104 L 285.91085 447.6053 C 285.9831 447.604 286.0553 447.6016 286.12745 447.59803 L 298.14607 447.00695 C 298.19483 447.00455 298.24355 447.00165 298.29225 446.99823 L 309.5323 446.20945 C 309.59023 446.2054 309.64812 446.2006 309.70594 446.1951 L 322.1165 445.01313 C 322.18497 445.0066 322.25352 445.0011 322.32214 444.9966 L 334.25416 444.2142 C 334.36418 444.20696 334.474 444.19715 334.58355 444.18475 L 344.9959 443.006 C 345.01144 443.00423 345.02697 443.0024 345.0425 443.00056 L 354.9902 441.80683 C 355.00954 441.8045 355.02886 441.8021 355.04818 441.79963 L 368.88394 440.0221 C 368.98115 440.0096 369.0781 439.99507 369.1747 439.9785 L 375.7282 438.85506 C 375.92915 438.8206 376.13153 438.79495 376.33473 438.77817 L 379.56706 438.5112 C 380.4563 438.43775 381.3233 438.19497 382.12135 437.79594 L 383.60765 437.0528 C 384.20824 436.7525 384.7625 436.36735 385.2534 435.9092 L 386.5885 434.6631 C 387.1953 434.0967 387.65073 433.38747 387.9132 432.6 L 388.20805 431.7155 C 388.2781 431.5053 388.33817 431.29187 388.388 431.07595 L 388.8577 429.04056 C 388.89293 428.8879 388.8595 428.7275 388.7662 428.6017 L 388.7662 428.6017 C 388.67587 428.4798 388.52523 428.4183 388.3754 428.44214 L 379.89555 429.7912 C 379.84466 429.7993 379.79385 429.80796 379.74315 429.8172 L 366.7584 432.17805 C 366.6656 432.1949 366.5725 432.2099 366.4791 432.223 L 355.24943 433.7991 C 355.2293 433.80194 355.20914 433.80486 355.189 433.80786 L 342.06643 435.76645 C 341.90167 435.79105 341.73608 435.80975 341.56998 435.8225 L 328.84517 436.80136 C 328.82786 436.8027 328.81055 436.80396 328.79323 436.80516 L 314.4531 437.801 C 314.4305 437.80257 314.4079 437.80403 314.3853 437.8054 L 301.08205 438.5996 C 301.04016 438.6021 300.99824 438.60423 300.9563 438.606 L 286.76485 439.1973 C 286.66776 439.20133 286.5706 439.20335 286.47344 439.20335 L 273.2192 439.20335 L 260.67753 439.20335 C 260.63865 439.20335 260.59976 439.2037 260.56088 439.2043 L 248.8025 439.4003 C 248.68032 439.40234 248.55812 439.40117 248.436 439.3968 L 237.6024 439.0099 C 237.4803 439.00554 237.3581 439.00437 237.2359 439.0064 L 225.52127 439.20165 C 225.45323 439.2028 225.38518 439.20293 225.31713 439.2021 L 209.61484 439.0058 C 209.48444 439.00417 209.35411 438.9989 209.224 438.99 L 194.91423 438.00986 C 194.85088 438.0055 194.7876 438.0003 194.7244 437.99426 L 180.23339 436.6047 C 180.22393 436.6038 180.21448 436.6029 180.20503 436.60194 L 166.393 435.22073 C 166.27715 435.20915 166.16162 435.1947 166.0465 435.17733 L 151.73735 433.02116 C 151.65859 433.0093 151.57964 432.99877 151.50052 432.9896 L 137.98059 431.42207 C 137.87301 431.4096 137.76574 431.3946 137.65886 431.3772 L 128.26677 429.84377 C 128.10178 429.81684 127.9378 429.784 127.77516 429.7453 L 118.69756 427.58654 C 118.30925 427.4942 117.91959 427.7341 117.82724 428.12244 C 117.82116 428.148 117.81647 428.1739 117.81321 428.2 Z" stroke="#7f8080" stroke-linecap="round" stroke-linejoin="round" stroke-width="1"/>
    </g>
  </g>
</svg>
