<?xml version="1.0" encoding="UTF-8" standalone="no"?>
<!DOCTYPE svg PUBLIC "-//W3C//DTD SVG 1.1//EN" "http://www.w3.org/Graphics/SVG/1.1/DTD/svg11.dtd">
<svg xmlns="http://www.w3.org/2000/svg" xmlns:xl="http://www.w3.org/1999/xlink" version="1.1" viewBox="-101.5 -119.5 432.4053 449.30915" width="432.4053pt" height="449.30915pt" xmlns:dc="http://purl.org/dc/elements/1.1/">
  <metadata> Produced by OmniGraffle 7.6.1 
    <dc:date>2019-05-26 06:55:11 +0000</dc:date>
  </metadata>
  <defs>
    <radialGradient cx="0" cy="0" r="1" id="Gradient" gradientUnits="userSpaceOnUse">
      <stop offset="0" stop-color="#cbcbcb"/>
      <stop offset="1" stop-color="#021224"/>
    </radialGradient>
    <radialGradient id="Obj_Gradient" xl:href="#Gradient" gradientTransform="translate(113.75925 -91.6) scale(70.26272)"/>
    <linearGradient x1="0" x2="1" id="Gradient_2" gradientUnits="userSpaceOnUse">
      <stop offset="0" stop-color="#d61132"/>
      <stop offset="1" stop-color="#901c17"/>
    </linearGradient>
    <linearGradient id="Obj_Gradient_2" xl:href="#Gradient_2" gradientTransform="translate(113.05925 -116.80915) rotate(90) scale(446.1183)"/>
    <linearGradient x1="0" x2="1" id="Gradient_3" gradientUnits="userSpaceOnUse">
      <stop offset="0" stop-color="red"/>
      <stop offset="1" stop-color="#95191b"/>
    </linearGradient>
    <linearGradient id="Obj_Gradient_3" xl:href="#Gradient_3" gradientTransform="translate(-55.3 -74.55386) rotate(90) scale(137.2)"/>
    <linearGradient x1="0" x2="1" id="Gradient_4" gradientUnits="userSpaceOnUse">
      <stop offset="0" stop-color="red"/>
      <stop offset="1" stop-color="#9a1813"/>
    </linearGradient>
    <linearGradient id="Obj_Gradient_4" xl:href="#Gradient_4" gradientTransform="translate(283.63002 -74.42198) rotate(90) scale(137.2)"/>
    <radialGradient cx="0" cy="0" r="1" id="Gradient_5" gradientUnits="userSpaceOnUse">
      <stop offset="0" stop-color="red"/>
      <stop offset="1" stop-color="#333"/>
    </radialGradient>
    <radialGradient id="Obj_Gradient_5" xl:href="#Gradient_5" gradientTransform="translate(-58.8 44.246146) scale(46.03694)"/>
    <radialGradient id="Obj_Gradient_6" xl:href="#Gradient_5" gradientTransform="translate(288.2053 43.30275) scale(46.03694)"/>
    <linearGradient x1="0" x2="1" id="Gradient_6" gradientUnits="userSpaceOnUse">
      <stop offset="0" stop-color="red"/>
      <stop offset="1" stop-color="#333"/>
    </linearGradient>
    <linearGradient id="Obj_Gradient_7" xl:href="#Gradient_6" gradientTransform="translate(113.78697 -118.24411) rotate(90) scale(67.19884)"/>
    <linearGradient id="Obj_Gradient_8" xl:href="#Gradient_6" gradientTransform="translate(113.05925 -118.24411) rotate(90) scale(25)"/>
    <radialGradient cx="0" cy="0" r="1" id="Gradient_7" gradientUnits="userSpaceOnUse">
      <stop offset="0" stop-color="#ff331c"/>
      <stop offset="1" stop-color="#0d081d"/>
    </radialGradient>
    <radialGradient id="Obj_Gradient_9" xl:href="#Gradient_7" gradientTransform="translate(113.25441 317.9834) scale(135.94141)"/>
  </defs>
  <g stroke="none" stroke-opacity="1" stroke-dasharray="none" fill="none" fill-opacity="1">
    <title>BEL</title>
    <g>
      <title>Layer 1</title>
      <path d="M 52.005654 -118.40955 L 60.171106 -115.29184 C 61.0291 -114.96424 61.90594 -114.68833 62.79692 -114.46558 L 76.5141 -111.03629 C 77.67576 -110.74587 78.85832 -110.54662 80.051 -110.44034 L 97.57715 -108.8786 C 98.165 -108.82622 98.75464 -108.79648 99.34478 -108.78946 L 114.8237 -108.60519 C 115.11404 -108.60173 115.40442 -108.60377 115.69469 -108.61131 L 130.118 -108.98594 C 130.47878 -108.99531 130.8393 -109.01317 131.19924 -109.03951 L 145.57053 -110.09107 C 146.56197 -110.16361 147.54766 -110.30036 148.5214 -110.50044 L 160.09436 -112.87845 C 161.13637 -113.09256 162.16226 -113.3787 163.16465 -113.73481 L 174.91664 -117.90986 C 176.00702 -118.29723 177.21021 -117.76646 177.65925 -116.7 L 177.65925 -116.7 C 178.1814 -115.4599 178.33338 -114.09515 178.09685 -112.77055 L 177.91637 -111.75986 C 177.6126 -110.0587 177.11806 -108.3972 176.44214 -106.80681 L 174.89892 -103.17569 C 174.34035 -101.86142 173.6606 -100.60202 172.86846 -99.41382 L 169.18268 -93.88515 C 168.43517 -92.76389 167.59057 -91.71049 166.65861 -90.73711 L 160.36354 -84.16226 C 159.49547 -83.25561 158.55463 -82.42154 157.55046 -81.66841 L 149.17555 -75.38723 C 148.29914 -74.72992 147.37688 -74.13606 146.41582 -73.6102 L 139.23062 -69.67867 C 137.9195 -68.961265 136.54156 -68.37336 135.11638 -67.9233 L 128.44347 -65.81607 C 126.7266 -65.2739 124.952 -64.935195 123.15613 -64.80692 L 116.26968 -64.31503 C 115.19738 -64.23844 114.12103 -64.23712 113.04854 -64.31108 L 104.61229 -64.89289 C 103.57811 -64.964216 102.54994 -65.10537 101.53481 -65.3154 L 94.3996 -66.79165 C 92.44765 -67.1955 90.55647 -67.85139 88.77362 -68.742815 L 84.11421 -71.07252 C 82.88007 -71.68959 81.70397 -72.41646 80.60012 -73.244345 L 74.91816 -77.50581 C 74.47903 -77.835165 74.05182 -78.18013 73.63737 -78.54005 L 67.88219 -83.53797 C 67.0679 -84.24511 66.30436 -85.00865 65.59722 -85.82294 L 61.191995 -90.89562 C 60.43789 -91.76398 59.749984 -92.68768 59.13406 -93.65895 L 55.40036 -99.54671 C 55.03979 -100.1153 54.704365 -100.69944 54.39505 -101.29745 L 52.774675 -104.43017 C 52.16553 -105.60785 51.65936 -106.836 51.261825 -108.10089 L 49.981586 -112.17438 C 49.76681 -112.85775 49.58408 -113.55079 49.433986 -114.25122 L 49.35925 -114.6 C 49.164585 -115.50843 49.271846 -116.45557 49.66473 -117.29746 L 49.75925 -117.5 C 50.153724 -118.34531 51.134195 -118.74229 52.005654 -118.40955 Z" fill="url(#Obj_Gradient)"/>
      <path d="M 52.005654 -118.40955 L 60.171106 -115.29184 C 61.0291 -114.96424 61.90594 -114.68833 62.79692 -114.46558 L 76.5141 -111.03629 C 77.67576 -110.74587 78.85832 -110.54662 80.051 -110.44034 L 97.57715 -108.8786 C 98.165 -108.82622 98.75464 -108.79648 99.34478 -108.78946 L 114.8237 -108.60519 C 115.11404 -108.60173 115.40442 -108.60377 115.69469 -108.61131 L 130.118 -108.98594 C 130.47878 -108.99531 130.8393 -109.01317 131.19924 -109.03951 L 145.57053 -110.09107 C 146.56197 -110.16361 147.54766 -110.30036 148.5214 -110.50044 L 160.09436 -112.87845 C 161.13637 -113.09256 162.16226 -113.3787 163.16465 -113.73481 L 174.91664 -117.90986 C 176.00702 -118.29723 177.21021 -117.76646 177.65925 -116.7 L 177.65925 -116.7 C 178.1814 -115.4599 178.33338 -114.09515 178.09685 -112.77055 L 177.91637 -111.75986 C 177.6126 -110.0587 177.11806 -108.3972 176.44214 -106.80681 L 174.89892 -103.17569 C 174.34035 -101.86142 173.6606 -100.60202 172.86846 -99.41382 L 169.18268 -93.88515 C 168.43517 -92.76389 167.59057 -91.71049 166.65861 -90.73711 L 160.36354 -84.16226 C 159.49547 -83.25561 158.55463 -82.42154 157.55046 -81.66841 L 149.17555 -75.38723 C 148.29914 -74.72992 147.37688 -74.13606 146.41582 -73.6102 L 139.23062 -69.67867 C 137.9195 -68.961265 136.54156 -68.37336 135.11638 -67.9233 L 128.44347 -65.81607 C 126.7266 -65.2739 124.952 -64.935195 123.15613 -64.80692 L 116.26968 -64.31503 C 115.19738 -64.23844 114.12103 -64.23712 113.04854 -64.31108 L 104.61229 -64.89289 C 103.57811 -64.964216 102.54994 -65.10537 101.53481 -65.3154 L 94.3996 -66.79165 C 92.44765 -67.1955 90.55647 -67.85139 88.77362 -68.742815 L 84.11421 -71.07252 C 82.88007 -71.68959 81.70397 -72.41646 80.60012 -73.244345 L 74.91816 -77.50581 C 74.47903 -77.835165 74.05182 -78.18013 73.63737 -78.54005 L 67.88219 -83.53797 C 67.0679 -84.24511 66.30436 -85.00865 65.59722 -85.82294 L 61.191995 -90.89562 C 60.43789 -91.76398 59.749984 -92.68768 59.13406 -93.65895 L 55.40036 -99.54671 C 55.03979 -100.1153 54.704365 -100.69944 54.39505 -101.29745 L 52.774675 -104.43017 C 52.16553 -105.60785 51.65936 -106.836 51.261825 -108.10089 L 49.981586 -112.17438 C 49.76681 -112.85775 49.58408 -113.55079 49.433986 -114.25122 L 49.35925 -114.6 C 49.164585 -115.50843 49.271846 -116.45557 49.66473 -117.29746 L 49.75925 -117.5 C 50.153724 -118.34531 51.134195 -118.74229 52.005654 -118.40955 Z" stroke="#7f8080" stroke-linecap="round" stroke-linejoin="round" stroke-width="1"/>
      <path d="M -13.66994 319.17293 L .07229956 321.4633 C .25567624 321.49387 .43957166 321.52123 .62390205 321.5454 L 28.977544 325.2607 C 29.22407 325.293 29.47132 325.31955 29.719085 325.34033 L 59.961974 327.87683 C 60.21888 327.89837 60.476265 327.9137 60.73391 327.9228 L 99.66482 329.29916 C 99.85318 329.30582 100.04165 329.30915 100.23013 329.30915 L 131.69745 329.30915 C 131.86406 329.30915 132.03067 329.30655 132.1972 329.30134 L 157.232 328.519 C 157.44224 328.51244 157.65233 328.50172 157.86215 328.48687 L 179.9099 326.92596 C 180.06822 326.91476 180.22636 326.9012 180.38427 326.88528 L 205.64475 324.33965 C 205.8465 324.3193 206.04783 324.29516 206.24865 324.26717 L 230.04134 320.9518 C 230.24535 320.92337 230.4488 320.891 230.65156 320.85472 L 239.8474 319.20915 C 245.1745 318.25588 248.82536 313.30223 248.15895 307.9317 L 245.95136 290.14113 C 245.9487 290.1198 245.9461 290.0985 245.94355 290.07716 L 242.37973 260.37863 C 242.35817 260.199 242.33966 260.019 242.3242 259.83873 L 239.962 232.27952 C 239.95226 232.16594 239.94374 232.05227 239.93643 231.9385 L 238.5498 210.34687 C 238.5482 210.32172 238.54652 210.29658 238.5448 210.27144 L 236.95263 187.18513 C 236.94914 187.13448 236.94588 187.0838 236.94287 187.03312 L 235.7665 167.23095 C 235.75376 167.01644 235.74534 166.80169 235.74125 166.58684 L 235.34897 145.992 C 235.34792 145.93677 235.34658 145.88154 235.34495 145.82632 L 234.74983 125.59198 C 234.7482 125.53676 234.74686 125.48153 234.7458 125.4263 L 234.35515 104.91676 C 234.34998 104.64506 234.35173 104.37328 234.3604 104.10167 L 234.94634 85.74206 C 234.94704 85.72012 234.94778 85.69818 234.94857 85.67624 L 235.73666 63.80693 C 235.7438 63.608425 235.75466 63.41007 235.7692 63.21197 L 237.32668 41.991353 C 237.34048 41.80323 237.35096 41.61488 237.3581 41.426385 L 238.11256 21.527517 C 238.13576 20.915772 238.19404 20.305862 238.28713 19.700796 L 241.02613 1.897278 C 241.10691 1.3721805 241.2138 .8514326 241.3464 .3369695 L 245.97466 -17.620682 C 246.08976 -18.067255 246.2241 -18.508643 246.37734 -18.94361 L 252.09812 -35.18325 C 252.2642 -35.654727 252.4523 -36.118162 252.66178 -36.57203 L 258.19333 -48.55707 C 258.29602 -48.779563 258.4038 -48.99967 258.5166 -49.21721 L 263.87883 -59.55864 C 263.92454 -59.64678 263.97106 -59.734496 264.0184 -59.82177 L 269.23437 -69.438735 C 269.97165 -70.79809 270.92128 -72.03099 272.0474 -73.090855 L 272.0474 -73.090855 C 272.72258 -73.72633 272.75478 -74.78883 272.1193 -75.46402 C 271.9948 -75.596295 271.84967 -75.70749 271.68955 -75.79327 L 268.47542 -77.51513 C 268.25676 -77.63226 268.0354 -77.7443 267.81155 -77.85114 L 259.95757 -81.59963 C 259.55096 -81.79369 259.13634 -81.9705 258.7148 -82.12956 L 249.03998 -85.78044 C 248.84494 -85.85404 248.64848 -85.92383 248.4507 -85.98975 L 235.75623 -90.22124 C 235.617 -90.26765 235.47716 -90.31214 235.3367 -90.3547 L 222.45319 -94.2588 C 222.38266 -94.28017 222.31227 -94.30203 222.24205 -94.32437 L 209.73805 -98.30292 C 209.34442 -98.42816 208.9558 -98.5686 208.57304 -98.72393 L 196.5971 -103.58373 C 195.76543 -103.92122 194.96364 -104.32808 194.2002 -104.80002 L 184.58096 -110.74647 C 184.42526 -110.84272 184.27122 -110.94164 184.1189 -111.04317 L 179.22881 -114.30324 C 178.24742 -114.9575 177.3761 -115.7634 176.64739 -116.69086 L 176.64739 -116.69086 C 176.54178 -116.82526 176.34722 -116.84861 176.21282 -116.743 C 176.11007 -116.66228 176.0691 -116.52573 176.11042 -116.40177 L 176.24739 -115.99086 C 176.70664 -114.6131 176.8112 -113.14182 176.5514 -111.71297 L 176.15627 -109.5397 C 175.88506 -108.04804 175.40321 -106.6025 174.72519 -105.24645 L 173.19287 -102.18182 C 172.89617 -101.58842 172.56285 -101.01405 172.19484 -100.46203 L 168.99113 -95.65647 C 168.56253 -95.01357 168.08792 -94.40256 167.57104 -93.82824 L 163.00899 -88.7593 C 162.96792 -88.71367 162.9266 -88.66828 162.885 -88.62312 L 156.89077 -82.1151 C 156.26303 -81.43356 155.57728 -80.80783 154.84125 -80.24498 L 149.81707 -76.40297 C 149.37093 -76.0618 148.90712 -75.74435 148.4276 -75.451955 L 141.94119 -71.49683 C 141.27953 -71.09338 140.58943 -70.73853 139.87635 -70.435094 L 132.76094 -67.40726 C 131.95327 -67.06357 131.1187 -66.78693 130.26566 -66.58013 L 126.1866 -65.59127 C 125.36177 -65.39131 124.52233 -65.2573 123.67624 -65.1905 L 117.97603 -64.740485 C 117.5571 -64.70741 117.13702 -64.690855 116.71679 -64.690855 L 109.68447 -64.690855 C 108.92737 -64.690855 108.17122 -64.74459 107.42173 -64.85166 L 99.47528 -65.98687 C 98.99027 -66.05616 98.5087 -66.147684 98.0321 -66.26116 L 92.07087 -67.6805 C 90.92538 -67.95324 89.8135 -68.35159 88.75543 -68.86832 L 82.47543 -71.9353 C 81.99038 -72.172185 81.51763 -72.433465 81.05899 -72.71814 L 76.84712 -75.3324 C 76.24795 -75.7043 75.67403 -76.1154 75.1291 -76.56302 L 70.68299 -80.21518 C 70.4593 -80.39893 70.24063 -80.58872 70.02723 -80.78433 L 66.22489 -84.26981 C 65.77359 -84.6835 65.34641 -85.12275 64.945456 -85.58539 L 60.82671 -90.33779 C 60.50733 -90.70631 60.20496 -91.08923 59.920555 -91.48537 L 55.4909 -97.65525 C 54.99601 -98.34456 54.55674 -99.07215 54.177246 -99.83114 L 51.60078 -104.98406 C 51.565185 -105.05526 51.53012 -105.12672 51.49559 -105.19843 L 50.247386 -107.79086 C 49.39667 -109.55772 49.04115 -111.52226 49.21869 -113.47521 L 49.398897 -115.45747 C 49.4227 -115.71933 49.22972 -115.95091 48.96786 -115.97472 C 48.80546 -115.98948 48.64681 -115.9201 48.547386 -115.79086 L 48.547386 -115.79086 C 47.88394 -114.92838 47.10383 -114.1623 46.229454 -113.51461 L 42.33292 -110.62829 C 42.20924 -110.53667 42.08424 -110.44684 41.957963 -110.35883 L 37.335712 -107.13726 C 36.148976 -106.31015 34.855556 -105.64778 33.490806 -105.16827 L 28.88368 -103.54955 C 28.39311 -103.37719 27.91123 -103.18102 27.439764 -102.96173 L 20.592982 -99.77718 C 19.89682 -99.45338 19.178256 -99.18012 18.442857 -98.9595 L 7.572468 -95.69838 C 7.555746 -95.69336 7.539033 -95.68832 7.522328 -95.68325 L -3.4457593 -92.35365 C -3.5836565 -92.31179 -3.720982 -92.26807 -3.857698 -92.22249 L -16.778932 -87.91542 C -16.828054 -87.89904 -16.877254 -87.88291 -16.926532 -87.86701 L -28.29394 -84.20011 C -28.932424 -83.99414 -29.557323 -83.74823 -30.164936 -83.46381 L -38.0969 -79.75098 C -38.46724 -79.57763 -38.8308 -79.39014 -39.186776 -79.18894 L -45.13289 -75.82809 C -46.385924 -75.119855 -46.82757 -73.52993 -46.119333 -72.2769 C -46.042215 -72.14046 -45.95295 -72.01125 -45.852615 -71.890855 L -44.988504 -70.85392 C -44.23356 -69.94799 -43.581083 -68.96137 -43.042965 -67.91204 L -39.965827 -61.91162 C -39.890357 -61.76445 -39.81261 -61.618464 -39.732613 -61.47371 L -35.77786 -54.31749 C -35.69437 -54.16641 -35.61333 -54.01399 -35.53477 -53.86029 L -31.426465 -45.8223 C -31.177396 -45.33499 -30.953493 -44.835223 -30.75564 -44.32497 L -27.27287 -35.34309 C -27.259367 -35.308267 -27.24574 -35.27349 -27.231995 -35.23876 L -23.635672 -26.153315 C -23.513663 -25.845082 -23.401264 -25.533132 -23.298635 -25.217917 L -20.6768 -17.16514 C -20.660677 -17.115616 -20.644795 -17.066015 -20.629156 -17.016337 L -17.557107 -7.258066 C -17.354316 -6.613904 -17.19251 -5.9575495 -17.072663 -5.2929404 L -15.087351 5.7165165 C -15.064194 5.8449314 -15.04261 5.973625 -15.022601 6.102568 L -13.316731 17.09595 C -13.273994 17.371367 -13.238461 17.647854 -13.210168 17.925128 L -12.322748 26.621843 C -12.276014 27.079832 -12.249069 27.539624 -12.241987 27.999937 L -12.057747 39.97556 C -12.054326 40.197926 -12.046269 40.4202 -12.033581 40.64223 L -11.263206 54.12379 C -11.256145 54.24736 -11.247651 54.37084 -11.237725 54.494205 L -9.904155 71.06858 C -9.869809 71.49545 -9.852615 71.92353 -9.852615 72.35179 L -9.852615 84.80157 C -9.852615 85.0066 -9.848674 85.21162 -9.840793 85.4165 L -9.260442 100.50564 C -9.255224 100.6413 -9.251733 100.77703 -9.24997 100.91279 L -9.057811 115.70905 C -9.054347 115.97574 -9.057553 116.24248 -9.067424 116.50901 L -9.641652 132.01316 C -9.64896 132.21047 -9.652615 132.4079 -9.652615 132.60534 L -9.652615 146.20157 C -9.652615 146.4066 -9.656556 146.61162 -9.664436 146.8165 L -10.249628 162.0315 C -10.251619 162.08327 -10.253862 162.13502 -10.256355 162.18676 L -11.051677 178.6897 C -11.052302 178.70266 -11.052943 178.71563 -11.0536 178.7286 L -11.848089 194.41976 C -11.851106 194.47935 -11.854457 194.53893 -11.85814 194.59848 L -13.047052 213.8192 C -13.05076 213.87917 -13.054807 213.9391 -13.05919 213.99902 L -14.842328 238.36857 C -14.849186 238.4623 -14.856869 238.55594 -14.865377 238.64953 L -16.651269 258.29434 C -16.652166 258.3042 -16.653073 258.3141 -16.653989 258.32396 L -18.424753 277.40886 C -18.443326 277.60904 -18.46567 277.80884 -18.491773 278.00818 L -20.452486 292.9809 C -20.585297 293.9951 -20.854438 294.9867 -21.252615 295.92888 L -21.252615 295.92888 C -21.65019 296.86962 -21.898858 297.86654 -21.989683 298.8838 L -22.752615 307.42888 C -23.260372 313.1159 -19.301906 318.23427 -13.66994 319.17293 Z" fill="url(#Obj_Gradient_2)"/>
      <path d="M -13.66994 319.17293 L .07229956 321.4633 C .25567624 321.49387 .43957166 321.52123 .62390205 321.5454 L 28.977544 325.2607 C 29.22407 325.293 29.47132 325.31955 29.719085 325.34033 L 59.961974 327.87683 C 60.21888 327.89837 60.476265 327.9137 60.73391 327.9228 L 99.66482 329.29916 C 99.85318 329.30582 100.04165 329.30915 100.23013 329.30915 L 131.69745 329.30915 C 131.86406 329.30915 132.03067 329.30655 132.1972 329.30134 L 157.232 328.519 C 157.44224 328.51244 157.65233 328.50172 157.86215 328.48687 L 179.9099 326.92596 C 180.06822 326.91476 180.22636 326.9012 180.38427 326.88528 L 205.64475 324.33965 C 205.8465 324.3193 206.04783 324.29516 206.24865 324.26717 L 230.04134 320.9518 C 230.24535 320.92337 230.4488 320.891 230.65156 320.85472 L 239.8474 319.20915 C 245.1745 318.25588 248.82536 313.30223 248.15895 307.9317 L 245.95136 290.14113 C 245.9487 290.1198 245.9461 290.0985 245.94355 290.07716 L 242.37973 260.37863 C 242.35817 260.199 242.33966 260.019 242.3242 259.83873 L 239.962 232.27952 C 239.95226 232.16594 239.94374 232.05227 239.93643 231.9385 L 238.5498 210.34687 C 238.5482 210.32172 238.54652 210.29658 238.5448 210.27144 L 236.95263 187.18513 C 236.94914 187.13448 236.94588 187.0838 236.94287 187.03312 L 235.7665 167.23095 C 235.75376 167.01644 235.74534 166.80169 235.74125 166.58684 L 235.34897 145.992 C 235.34792 145.93677 235.34658 145.88154 235.34495 145.82632 L 234.74983 125.59198 C 234.7482 125.53676 234.74686 125.48153 234.7458 125.4263 L 234.35515 104.91676 C 234.34998 104.64506 234.35173 104.37328 234.3604 104.10167 L 234.94634 85.74206 C 234.94704 85.72012 234.94778 85.69818 234.94857 85.67624 L 235.73666 63.80693 C 235.7438 63.608425 235.75466 63.41007 235.7692 63.21197 L 237.32668 41.991353 C 237.34048 41.80323 237.35096 41.61488 237.3581 41.426385 L 238.11256 21.527517 C 238.13576 20.915772 238.19404 20.305862 238.28713 19.700796 L 241.02613 1.897278 C 241.10691 1.3721805 241.2138 .8514326 241.3464 .3369695 L 245.97466 -17.620682 C 246.08976 -18.067255 246.2241 -18.508643 246.37734 -18.94361 L 252.09812 -35.18325 C 252.2642 -35.654727 252.4523 -36.118162 252.66178 -36.57203 L 258.19333 -48.55707 C 258.29602 -48.779563 258.4038 -48.99967 258.5166 -49.21721 L 263.87883 -59.55864 C 263.92454 -59.64678 263.97106 -59.734496 264.0184 -59.82177 L 269.23437 -69.438735 C 269.97165 -70.79809 270.92128 -72.03099 272.0474 -73.090855 L 272.0474 -73.090855 C 272.72258 -73.72633 272.75478 -74.78883 272.1193 -75.46402 C 271.9948 -75.596295 271.84967 -75.70749 271.68955 -75.79327 L 268.47542 -77.51513 C 268.25676 -77.63226 268.0354 -77.7443 267.81155 -77.85114 L 259.95757 -81.59963 C 259.55096 -81.79369 259.13634 -81.9705 258.7148 -82.12956 L 249.03998 -85.78044 C 248.84494 -85.85404 248.64848 -85.92383 248.4507 -85.98975 L 235.75623 -90.22124 C 235.617 -90.26765 235.47716 -90.31214 235.3367 -90.3547 L 222.45319 -94.2588 C 222.38266 -94.28017 222.31227 -94.30203 222.24205 -94.32437 L 209.73805 -98.30292 C 209.34442 -98.42816 208.9558 -98.5686 208.57304 -98.72393 L 196.5971 -103.58373 C 195.76543 -103.92122 194.96364 -104.32808 194.2002 -104.80002 L 184.58096 -110.74647 C 184.42526 -110.84272 184.27122 -110.94164 184.1189 -111.04317 L 179.22881 -114.30324 C 178.24742 -114.9575 177.3761 -115.7634 176.64739 -116.69086 L 176.64739 -116.69086 C 176.54178 -116.82526 176.34722 -116.84861 176.21282 -116.743 C 176.11007 -116.66228 176.0691 -116.52573 176.11042 -116.40177 L 176.24739 -115.99086 C 176.70664 -114.6131 176.8112 -113.14182 176.5514 -111.71297 L 176.15627 -109.5397 C 175.88506 -108.04804 175.40321 -106.6025 174.72519 -105.24645 L 173.19287 -102.18182 C 172.89617 -101.58842 172.56285 -101.01405 172.19484 -100.46203 L 168.99113 -95.65647 C 168.56253 -95.01357 168.08792 -94.40256 167.57104 -93.82824 L 163.00899 -88.7593 C 162.96792 -88.71367 162.9266 -88.66828 162.885 -88.62312 L 156.89077 -82.1151 C 156.26303 -81.43356 155.57728 -80.80783 154.84125 -80.24498 L 149.81707 -76.40297 C 149.37093 -76.0618 148.90712 -75.74435 148.4276 -75.451955 L 141.94119 -71.49683 C 141.27953 -71.09338 140.58943 -70.73853 139.87635 -70.435094 L 132.76094 -67.40726 C 131.95327 -67.06357 131.1187 -66.78693 130.26566 -66.58013 L 126.1866 -65.59127 C 125.36177 -65.39131 124.52233 -65.2573 123.67624 -65.1905 L 117.97603 -64.740485 C 117.5571 -64.70741 117.13702 -64.690855 116.71679 -64.690855 L 109.68447 -64.690855 C 108.92737 -64.690855 108.17122 -64.74459 107.42173 -64.85166 L 99.47528 -65.98687 C 98.99027 -66.05616 98.5087 -66.147684 98.0321 -66.26116 L 92.07087 -67.6805 C 90.92538 -67.95324 89.8135 -68.35159 88.75543 -68.86832 L 82.47543 -71.9353 C 81.99038 -72.172185 81.51763 -72.433465 81.05899 -72.71814 L 76.84712 -75.3324 C 76.24795 -75.7043 75.67403 -76.1154 75.1291 -76.56302 L 70.68299 -80.21518 C 70.4593 -80.39893 70.24063 -80.58872 70.02723 -80.78433 L 66.22489 -84.26981 C 65.77359 -84.6835 65.34641 -85.12275 64.945456 -85.58539 L 60.82671 -90.33779 C 60.50733 -90.70631 60.20496 -91.08923 59.920555 -91.48537 L 55.4909 -97.65525 C 54.99601 -98.34456 54.55674 -99.07215 54.177246 -99.83114 L 51.60078 -104.98406 C 51.565185 -105.05526 51.53012 -105.12672 51.49559 -105.19843 L 50.247386 -107.79086 C 49.39667 -109.55772 49.04115 -111.52226 49.21869 -113.47521 L 49.398897 -115.45747 C 49.4227 -115.71933 49.22972 -115.95091 48.96786 -115.97472 C 48.80546 -115.98948 48.64681 -115.9201 48.547386 -115.79086 L 48.547386 -115.79086 C 47.88394 -114.92838 47.10383 -114.1623 46.229454 -113.51461 L 42.33292 -110.62829 C 42.20924 -110.53667 42.08424 -110.44684 41.957963 -110.35883 L 37.335712 -107.13726 C 36.148976 -106.31015 34.855556 -105.64778 33.490806 -105.16827 L 28.88368 -103.54955 C 28.39311 -103.37719 27.91123 -103.18102 27.439764 -102.96173 L 20.592982 -99.77718 C 19.89682 -99.45338 19.178256 -99.18012 18.442857 -98.9595 L 7.572468 -95.69838 C 7.555746 -95.69336 7.539033 -95.68832 7.522328 -95.68325 L -3.4457593 -92.35365 C -3.5836565 -92.31179 -3.720982 -92.26807 -3.857698 -92.22249 L -16.778932 -87.91542 C -16.828054 -87.89904 -16.877254 -87.88291 -16.926532 -87.86701 L -28.29394 -84.20011 C -28.932424 -83.99414 -29.557323 -83.74823 -30.164936 -83.46381 L -38.0969 -79.75098 C -38.46724 -79.57763 -38.8308 -79.39014 -39.186776 -79.18894 L -45.13289 -75.82809 C -46.385924 -75.119855 -46.82757 -73.52993 -46.119333 -72.2769 C -46.042215 -72.14046 -45.95295 -72.01125 -45.852615 -71.890855 L -44.988504 -70.85392 C -44.23356 -69.94799 -43.581083 -68.96137 -43.042965 -67.91204 L -39.965827 -61.91162 C -39.890357 -61.76445 -39.81261 -61.618464 -39.732613 -61.47371 L -35.77786 -54.31749 C -35.69437 -54.16641 -35.61333 -54.01399 -35.53477 -53.86029 L -31.426465 -45.8223 C -31.177396 -45.33499 -30.953493 -44.835223 -30.75564 -44.32497 L -27.27287 -35.34309 C -27.259367 -35.308267 -27.24574 -35.27349 -27.231995 -35.23876 L -23.635672 -26.153315 C -23.513663 -25.845082 -23.401264 -25.533132 -23.298635 -25.217917 L -20.6768 -17.16514 C -20.660677 -17.115616 -20.644795 -17.066015 -20.629156 -17.016337 L -17.557107 -7.258066 C -17.354316 -6.613904 -17.19251 -5.9575495 -17.072663 -5.2929404 L -15.087351 5.7165165 C -15.064194 5.8449314 -15.04261 5.973625 -15.022601 6.102568 L -13.316731 17.09595 C -13.273994 17.371367 -13.238461 17.647854 -13.210168 17.925128 L -12.322748 26.621843 C -12.276014 27.079832 -12.249069 27.539624 -12.241987 27.999937 L -12.057747 39.97556 C -12.054326 40.197926 -12.046269 40.4202 -12.033581 40.64223 L -11.263206 54.12379 C -11.256145 54.24736 -11.247651 54.37084 -11.237725 54.494205 L -9.904155 71.06858 C -9.869809 71.49545 -9.852615 71.92353 -9.852615 72.35179 L -9.852615 84.80157 C -9.852615 85.0066 -9.848674 85.21162 -9.840793 85.4165 L -9.260442 100.50564 C -9.255224 100.6413 -9.251733 100.77703 -9.24997 100.91279 L -9.057811 115.70905 C -9.054347 115.97574 -9.057553 116.24248 -9.067424 116.50901 L -9.641652 132.01316 C -9.64896 132.21047 -9.652615 132.4079 -9.652615 132.60534 L -9.652615 146.20157 C -9.652615 146.4066 -9.656556 146.61162 -9.664436 146.8165 L -10.249628 162.0315 C -10.251619 162.08327 -10.253862 162.13502 -10.256355 162.18676 L -11.051677 178.6897 C -11.052302 178.70266 -11.052943 178.71563 -11.0536 178.7286 L -11.848089 194.41976 C -11.851106 194.47935 -11.854457 194.53893 -11.85814 194.59848 L -13.047052 213.8192 C -13.05076 213.87917 -13.054807 213.9391 -13.05919 213.99902 L -14.842328 238.36857 C -14.849186 238.4623 -14.856869 238.55594 -14.865377 238.64953 L -16.651269 258.29434 C -16.652166 258.3042 -16.653073 258.3141 -16.653989 258.32396 L -18.424753 277.40886 C -18.443326 277.60904 -18.46567 277.80884 -18.491773 278.00818 L -20.452486 292.9809 C -20.585297 293.9951 -20.854438 294.9867 -21.252615 295.92888 L -21.252615 295.92888 C -21.65019 296.86962 -21.898858 297.86654 -21.989683 298.8838 L -22.752615 307.42888 C -23.260372 313.1159 -19.301906 318.23427 -13.66994 319.17293 Z" stroke="#7f8080" stroke-linecap="round" stroke-linejoin="round" stroke-width="1"/>
      <path d="M -101 32.446146 L -94.8 36.846146 L -86.6 40.846146 L -78 44.446146 L -69 48.246146 L -58 52.246146 L -48.6 55.046146 L -39.6 57.646146 L -30.6 60.246146 L -25.2 61.646146 L -19.599999 62.646146 L -17.199999 56.846146 L -14.599999 51.446146 L -12.399999 47.446146 L -9.799999 44.046146 L -9.599999 35.046146 L -10.199999 24.046145 L -11.999999 13.246145 L -13.599999 2.846145 L -16.199999 -8.153855 L -18.599999 -17.753855 L -21.4 -25.753855 L -24.6 -35.153855 L -27.4 -42.553856 L -31 -50.153856 L -35 -57.753856 L -39 -65.153856 L -41.6 -68.75386 L -45.2 -74.55386 L -50.6 -70.15386 L -55.4 -65.353856 L -60 -59.153856 L -64.4 -52.953856 L -69.2 -44.353856 L -74 -34.953855 L -78.8 -25.753855 L -82.4 -17.153855 L -86.4 -8.153855 L -89.6 .04614511 L -93.4 9.446145 L -96.2 17.446145 L -99.2 25.846145 Z" fill="url(#Obj_Gradient_3)"/>
      <path d="M -101 32.446146 L -94.8 36.846146 L -86.6 40.846146 L -78 44.446146 L -69 48.246146 L -58 52.246146 L -48.6 55.046146 L -39.6 57.646146 L -30.6 60.246146 L -25.2 61.646146 L -19.599999 62.646146 L -17.199999 56.846146 L -14.599999 51.446146 L -12.399999 47.446146 L -9.799999 44.046146 L -9.599999 35.046146 L -10.199999 24.046145 L -11.999999 13.246145 L -13.599999 2.846145 L -16.199999 -8.153855 L -18.599999 -17.753855 L -21.4 -25.753855 L -24.6 -35.153855 L -27.4 -42.553856 L -31 -50.153856 L -35 -57.753856 L -39 -65.153856 L -41.6 -68.75386 L -45.2 -74.55386 L -50.6 -70.15386 L -55.4 -65.353856 L -60 -59.153856 L -64.4 -52.953856 L -69.2 -44.353856 L -74 -34.953855 L -78.8 -25.753855 L -82.4 -17.153855 L -86.4 -8.153855 L -89.6 .04614511 L -93.4 9.446145 L -96.2 17.446145 L -99.2 25.846145 Z" stroke="#7f8080" stroke-linecap="round" stroke-linejoin="round" stroke-width="1"/>
      <path d="M 329.33002 32.57802 L 323.13002 36.97802 L 314.93002 40.97802 L 306.33002 44.57802 L 297.33002 48.37802 L 286.33002 52.37802 L 276.93002 55.17802 L 267.93002 57.77802 L 258.93002 60.37802 L 253.53002 61.77802 L 247.93002 62.77802 L 245.53002 56.97802 L 242.93002 51.57802 L 240.73002 47.57802 L 238.13002 44.17802 L 237.93002 35.17802 L 238.53002 24.178018 L 240.33002 13.378018 L 241.93002 2.9780177 L 244.53002 -8.021982 L 246.93002 -17.621983 L 249.73002 -25.621983 L 252.93002 -35.021983 L 255.73002 -42.421983 L 259.33002 -50.021983 L 263.33002 -57.62198 L 267.33002 -65.02198 L 269.93002 -68.62198 L 273.53002 -74.42198 L 278.93002 -70.02198 L 283.73002 -65.22198 L 288.33002 -59.02198 L 292.73002 -52.82198 L 297.53002 -44.221983 L 302.33002 -34.821983 L 307.13002 -25.621983 L 310.73002 -17.021983 L 314.73002 -8.021982 L 317.93002 .1780177 L 321.73002 9.578018 L 324.53002 17.578018 L 327.53002 25.978018 Z" fill="url(#Obj_Gradient_4)"/>
      <path d="M 329.33002 32.57802 L 323.13002 36.97802 L 314.93002 40.97802 L 306.33002 44.57802 L 297.33002 48.37802 L 286.33002 52.37802 L 276.93002 55.17802 L 267.93002 57.77802 L 258.93002 60.37802 L 253.53002 61.77802 L 247.93002 62.77802 L 245.53002 56.97802 L 242.93002 51.57802 L 240.73002 47.57802 L 238.13002 44.17802 L 237.93002 35.17802 L 238.53002 24.178018 L 240.33002 13.378018 L 241.93002 2.9780177 L 244.53002 -8.021982 L 246.93002 -17.621983 L 249.73002 -25.621983 L 252.93002 -35.021983 L 255.73002 -42.421983 L 259.33002 -50.021983 L 263.33002 -57.62198 L 267.33002 -65.02198 L 269.93002 -68.62198 L 273.53002 -74.42198 L 278.93002 -70.02198 L 283.73002 -65.22198 L 288.33002 -59.02198 L 292.73002 -52.82198 L 297.53002 -44.221983 L 302.33002 -34.821983 L 307.13002 -25.621983 L 310.73002 -17.021983 L 314.73002 -8.021982 L 317.93002 .1780177 L 321.73002 9.578018 L 324.53002 17.578018 L 327.53002 25.978018 Z" stroke="#7f8080" stroke-linecap="round" stroke-linejoin="round" stroke-width="1"/>
      <path d="M -101 32.446146 L -94.8 36.846146 L -86.6 40.846146 L -78 44.446146 L -69 48.246146 L -58 52.246146 L -48.6 55.046146 L -39.6 57.646146 L -30.6 60.246146 L -25.2 61.646146 L -19.599999 62.646146 L -16.599999 56.246146 L -20.4 55.446146 L -25.2 54.246146 L -30.8 53.046146 L -36.8 51.246146 L -41.4 49.846146 L -45.6 48.646146 L -50.2 46.646146 L -54.8 45.046146 L -59.6 43.046146 L -63.6 41.646146 L -68.8 39.446146 L -73.4 37.846146 L -78.2 35.646146 L -83 33.846146 L -87 31.846146 L -91.4 29.646146 L -95.8 27.446146 L -99.2 25.846145 Z" fill="url(#Obj_Gradient_5)"/>
      <path d="M -101 32.446146 L -94.8 36.846146 L -86.6 40.846146 L -78 44.446146 L -69 48.246146 L -58 52.246146 L -48.6 55.046146 L -39.6 57.646146 L -30.6 60.246146 L -25.2 61.646146 L -19.599999 62.646146 L -16.599999 56.246146 L -20.4 55.446146 L -25.2 54.246146 L -30.8 53.046146 L -36.8 51.246146 L -41.4 49.846146 L -45.6 48.646146 L -50.2 46.646146 L -54.8 45.046146 L -59.6 43.046146 L -63.6 41.646146 L -68.8 39.446146 L -73.4 37.846146 L -78.2 35.646146 L -83 33.846146 L -87 31.846146 L -91.4 29.646146 L -95.8 27.446146 L -99.2 25.846145 Z" stroke="#7f8080" stroke-linecap="round" stroke-linejoin="round" stroke-width="1"/>
      <path d="M 330.4053 31.50275 L 324.2053 35.90275 L 316.0053 39.90275 L 307.4053 43.50275 L 298.4053 47.30275 L 287.4053 51.30275 L 278.0053 54.10275 L 269.0053 56.70275 L 260.0053 59.30275 L 254.6053 60.70275 L 249.0053 61.70275 L 246.0053 55.30275 L 249.8053 54.50275 L 254.6053 53.30275 L 260.2053 52.10275 L 266.2053 50.30275 L 270.8053 48.90275 L 275.0053 47.70275 L 279.6053 45.70275 L 284.2053 44.10275 L 289.0053 42.10275 L 293.0053 40.70275 L 298.2053 38.50275 L 302.8053 36.90275 L 307.6053 34.70275 L 312.4053 32.90275 L 316.4053 30.90275 L 320.8053 28.70275 L 325.2053 26.50275 L 328.6053 24.90275 Z" fill="url(#Obj_Gradient_6)"/>
      <path d="M 330.4053 31.50275 L 324.2053 35.90275 L 316.0053 39.90275 L 307.4053 43.50275 L 298.4053 47.30275 L 287.4053 51.30275 L 278.0053 54.10275 L 269.0053 56.70275 L 260.0053 59.30275 L 254.6053 60.70275 L 249.0053 61.70275 L 246.0053 55.30275 L 249.8053 54.50275 L 254.6053 53.30275 L 260.2053 52.10275 L 266.2053 50.30275 L 270.8053 48.90275 L 275.0053 47.70275 L 279.6053 45.70275 L 284.2053 44.10275 L 289.0053 42.10275 L 293.0053 40.70275 L 298.2053 38.50275 L 302.8053 36.90275 L 307.6053 34.70275 L 312.4053 32.90275 L 316.4053 30.90275 L 320.8053 28.70275 L 325.2053 26.50275 L 328.6053 24.90275 Z" stroke="#7f8080" stroke-linecap="round" stroke-linejoin="round" stroke-width="1"/>
      <path d="M 49.57212 -117.03621 L 44.84295 -112.98264 C 43.692603 -111.99662 42.447643 -111.12669 41.126213 -110.38552 L 38.59958 -108.96835 C 37.164406 -108.16338 36.583603 -106.39425 37.26239 -104.89527 L 38.280006 -102.64803 C 38.401585 -102.37954 38.528313 -102.11342 38.66012 -101.8498 L 40.46239 -98.24526 L 42.949377 -93.27129 C 43.291174 -92.5877 43.66683 -91.92157 44.07495 -91.27537 L 46.401344 -87.59192 C 46.84172 -86.89465 47.31928 -86.22158 47.831953 -85.57561 L 51.24264 -81.27815 C 51.78869 -80.59013 52.37371 -79.93394 52.99482 -79.31283 L 57.660865 -74.64679 C 58.061745 -74.24591 58.47731 -73.85999 58.90671 -73.48982 L 63.470235 -69.55574 C 63.86489 -69.21552 64.271 -68.88881 64.687846 -68.57617 L 68.66279 -65.59497 C 69.3287 -65.09553 70.02123 -64.63262 70.73733 -64.20826 L 74.87039 -61.75904 C 74.99839 -61.68319 75.12712 -61.608586 75.25656 -61.535235 L 79.95411 -58.87329 C 80.6924 -58.45493 81.45328 -58.07774 82.23325 -57.743466 L 85.78307 -56.222117 C 86.36903 -55.97099 86.96518 -55.744334 87.56997 -55.542736 L 92.58808 -53.870034 C 93.83532 -53.454286 95.11592 -53.146244 96.4158 -52.949294 L 100.51464 -52.328256 C 100.87976 -52.272936 101.24615 -52.226417 101.6135 -52.18874 L 108.4946 -51.482985 C 108.73978 -51.45784 108.98534 -51.436636 109.2312 -51.41938 L 113.75835 -51.10169 C 114.29421 -51.064085 114.83122 -51.045266 115.3684 -51.045266 L 118.63046 -51.045264 C 119.58416 -51.045264 120.53693 -51.10458 121.48327 -51.222873 L 125.47198 -51.72146 C 126.13195 -51.80396 126.78802 -51.91504 127.43835 -52.0544 L 133.52039 -53.35769 C 134.41426 -53.549236 135.29592 -53.7939 136.16068 -54.09039 L 140.66952 -55.63628 C 141.46417 -55.90873 142.2433 -56.224514 143.0034 -56.58221 L 147.83677 -58.85674 C 148.38697 -59.11565 148.92668 -59.396286 149.45464 -59.697975 L 153.2225 -61.85104 C 153.9153 -62.24692 154.58701 -62.678585 155.23494 -63.14428 L 159.91106 -66.505246 C 160.41175 -66.86511 160.89776 -67.24497 161.36792 -67.64389 L 166.68877 -72.158555 C 167.07108 -72.48294 167.44269 -72.81974 167.80298 -73.16842 L 172.5022 -77.71604 C 173.14179 -78.335 173.74491 -78.990565 174.30852 -79.67942 L 178.1018 -84.31566 C 178.60852 -84.93497 179.08257 -85.58031 179.52201 -86.24904 L 183.1392 -91.75344 C 183.35462 -92.08127 183.56163 -92.41456 183.76002 -92.75298 L 186.2831 -97.05708 C 186.66906 -97.71546 187.022 -98.39265 187.34062 -99.08612 L 189.45932 -103.69739 C 189.99218 -104.85715 190.36334 -106.08456 190.5624 -107.34526 L 190.5624 -107.34526 C 190.7407 -108.47453 190.1614 -109.58797 189.13432 -110.0901 L 183.84088 -112.678 C 182.52642 -113.32063 181.29183 -114.11514 180.1624 -115.04526 L 179.75638 -115.37963 C 178.91205 -116.07496 178.28864 -117.00126 177.9624 -118.04526 L 177.9624 -118.04526 C 177.91573 -118.19458 177.75686 -118.2778 177.60754 -118.23114 C 177.49247 -118.19518 177.41277 -118.09031 177.40892 -117.96981 L 177.29968 -114.54689 C 177.20894 -111.70381 176.5916 -108.90224 175.479 -106.28433 L 174.60206 -104.22096 C 174.0435 -102.90669 173.36374 -101.64729 172.5716 -100.45909 L 168.88582 -94.93042 C 168.13831 -93.80915 167.2937 -92.75575 166.36175 -91.78238 L 160.06668 -85.20753 C 159.19861 -84.30087 158.25777 -83.4668 157.2536 -82.71367 L 148.8787 -76.432495 C 148.00228 -75.77518 147.08002 -75.18133 146.11896 -74.65546 L 138.93376 -70.72394 C 137.62263 -70.00653 136.2447 -69.41863 134.81952 -68.96857 L 128.1466 -66.86133 C 126.42973 -66.31916 124.65514 -65.98046 122.85927 -65.852185 L 115.97281 -65.360296 C 114.90052 -65.2837 113.82417 -65.28238 112.75168 -65.35635 L 104.31543 -65.93816 C 103.28125 -66.00948 102.25308 -66.15064 101.23795 -66.36067 L 94.10274 -67.83692 C 92.15079 -68.24077 90.25961 -68.89665 88.47676 -69.78808 L 83.81735 -72.117785 C 82.58321 -72.73485 81.40711 -73.46173 80.30326 -74.28961 L 74.6213 -78.55108 C 74.18217 -78.88043 73.75496 -79.2254 73.34051 -79.58532 L 67.58533 -84.58324 C 66.77104 -85.29038 66.0075 -86.05392 65.30036 -86.86821 L 60.895135 -91.94089 C 60.14103 -92.80925 59.453124 -93.73295 58.8372 -94.70422 L 55.1035 -100.59198 C 54.74293 -101.16056 54.407505 -101.7447 54.09819 -102.34272 L 52.477815 -105.47544 C 51.86867 -106.65312 51.3625 -107.88126 50.964965 -109.14615 L 49.684726 -113.21964 C 49.46995 -113.90302 49.28722 -114.59605 49.137126 -115.29649 L 48.91171 -116.34843 C 48.826635 -116.74544 49.052993 -117.1431 49.4378 -117.27263 L 49.4378 -117.27263 C 49.51029 -117.29704 49.588844 -117.25805 49.61325 -117.18556 C 49.63126 -117.13205 49.61499 -117.07296 49.57212 -117.03621 Z" fill="url(#Obj_Gradient_7)"/>
      <path d="M 49.57212 -117.03621 L 44.84295 -112.98264 C 43.692603 -111.99662 42.447643 -111.12669 41.126213 -110.38552 L 38.59958 -108.96835 C 37.164406 -108.16338 36.583603 -106.39425 37.26239 -104.89527 L 38.280006 -102.64803 C 38.401585 -102.37954 38.528313 -102.11342 38.66012 -101.8498 L 40.46239 -98.24526 L 42.949377 -93.27129 C 43.291174 -92.5877 43.66683 -91.92157 44.07495 -91.27537 L 46.401344 -87.59192 C 46.84172 -86.89465 47.31928 -86.22158 47.831953 -85.57561 L 51.24264 -81.27815 C 51.78869 -80.59013 52.37371 -79.93394 52.99482 -79.31283 L 57.660865 -74.64679 C 58.061745 -74.24591 58.47731 -73.85999 58.90671 -73.48982 L 63.470235 -69.55574 C 63.86489 -69.21552 64.271 -68.88881 64.687846 -68.57617 L 68.66279 -65.59497 C 69.3287 -65.09553 70.02123 -64.63262 70.73733 -64.20826 L 74.87039 -61.75904 C 74.99839 -61.68319 75.12712 -61.608586 75.25656 -61.535235 L 79.95411 -58.87329 C 80.6924 -58.45493 81.45328 -58.07774 82.23325 -57.743466 L 85.78307 -56.222117 C 86.36903 -55.97099 86.96518 -55.744334 87.56997 -55.542736 L 92.58808 -53.870034 C 93.83532 -53.454286 95.11592 -53.146244 96.4158 -52.949294 L 100.51464 -52.328256 C 100.87976 -52.272936 101.24615 -52.226417 101.6135 -52.18874 L 108.4946 -51.482985 C 108.73978 -51.45784 108.98534 -51.436636 109.2312 -51.41938 L 113.75835 -51.10169 C 114.29421 -51.064085 114.83122 -51.045266 115.3684 -51.045266 L 118.63046 -51.045264 C 119.58416 -51.045264 120.53693 -51.10458 121.48327 -51.222873 L 125.47198 -51.72146 C 126.13195 -51.80396 126.78802 -51.91504 127.43835 -52.0544 L 133.52039 -53.35769 C 134.41426 -53.549236 135.29592 -53.7939 136.16068 -54.09039 L 140.66952 -55.63628 C 141.46417 -55.90873 142.2433 -56.224514 143.0034 -56.58221 L 147.83677 -58.85674 C 148.38697 -59.11565 148.92668 -59.396286 149.45464 -59.697975 L 153.2225 -61.85104 C 153.9153 -62.24692 154.58701 -62.678585 155.23494 -63.14428 L 159.91106 -66.505246 C 160.41175 -66.86511 160.89776 -67.24497 161.36792 -67.64389 L 166.68877 -72.158555 C 167.07108 -72.48294 167.44269 -72.81974 167.80298 -73.16842 L 172.5022 -77.71604 C 173.14179 -78.335 173.74491 -78.990565 174.30852 -79.67942 L 178.1018 -84.31566 C 178.60852 -84.93497 179.08257 -85.58031 179.52201 -86.24904 L 183.1392 -91.75344 C 183.35462 -92.08127 183.56163 -92.41456 183.76002 -92.75298 L 186.2831 -97.05708 C 186.66906 -97.71546 187.022 -98.39265 187.34062 -99.08612 L 189.45932 -103.69739 C 189.99218 -104.85715 190.36334 -106.08456 190.5624 -107.34526 L 190.5624 -107.34526 C 190.7407 -108.47453 190.1614 -109.58797 189.13432 -110.0901 L 183.84088 -112.678 C 182.52642 -113.32063 181.29183 -114.11514 180.1624 -115.04526 L 179.75638 -115.37963 C 178.91205 -116.07496 178.28864 -117.00126 177.9624 -118.04526 L 177.9624 -118.04526 C 177.91573 -118.19458 177.75686 -118.2778 177.60754 -118.23114 C 177.49247 -118.19518 177.41277 -118.09031 177.40892 -117.96981 L 177.29968 -114.54689 C 177.20894 -111.70381 176.5916 -108.90224 175.479 -106.28433 L 174.60206 -104.22096 C 174.0435 -102.90669 173.36374 -101.64729 172.5716 -100.45909 L 168.88582 -94.93042 C 168.13831 -93.80915 167.2937 -92.75575 166.36175 -91.78238 L 160.06668 -85.20753 C 159.19861 -84.30087 158.25777 -83.4668 157.2536 -82.71367 L 148.8787 -76.432495 C 148.00228 -75.77518 147.08002 -75.18133 146.11896 -74.65546 L 138.93376 -70.72394 C 137.62263 -70.00653 136.2447 -69.41863 134.81952 -68.96857 L 128.1466 -66.86133 C 126.42973 -66.31916 124.65514 -65.98046 122.85927 -65.852185 L 115.97281 -65.360296 C 114.90052 -65.2837 113.82417 -65.28238 112.75168 -65.35635 L 104.31543 -65.93816 C 103.28125 -66.00948 102.25308 -66.15064 101.23795 -66.36067 L 94.10274 -67.83692 C 92.15079 -68.24077 90.25961 -68.89665 88.47676 -69.78808 L 83.81735 -72.117785 C 82.58321 -72.73485 81.40711 -73.46173 80.30326 -74.28961 L 74.6213 -78.55108 C 74.18217 -78.88043 73.75496 -79.2254 73.34051 -79.58532 L 67.58533 -84.58324 C 66.77104 -85.29038 66.0075 -86.05392 65.30036 -86.86821 L 60.895135 -91.94089 C 60.14103 -92.80925 59.453124 -93.73295 58.8372 -94.70422 L 55.1035 -100.59198 C 54.74293 -101.16056 54.407505 -101.7447 54.09819 -102.34272 L 52.477815 -105.47544 C 51.86867 -106.65312 51.3625 -107.88126 50.964965 -109.14615 L 49.684726 -113.21964 C 49.46995 -113.90302 49.28722 -114.59605 49.137126 -115.29649 L 48.91171 -116.34843 C 48.826635 -116.74544 49.052993 -117.1431 49.4378 -117.27263 L 49.4378 -117.27263 C 49.51029 -117.29704 49.588844 -117.25805 49.61325 -117.18556 C 49.63126 -117.13205 49.61499 -117.07296 49.57212 -117.03621 Z" stroke="#7f8080" stroke-linecap="round" stroke-linejoin="round" stroke-width="1"/>
      <path d="M 49.05925 -117.24411 L 54.45925 -117.84411 L 61.25925 -114.44411 L 66.25925 -112.64411 L 74.65925 -110.84411 L 83.05925 -109.84411 L 91.05925 -108.84411 L 98.65925 -108.64411 L 107.25925 -108.24411 L 118.85925 -108.44411 L 127.25925 -108.84411 L 136.65925 -109.44411 L 145.05925 -110.24411 L 154.25925 -111.64411 L 162.45925 -113.84411 L 168.25925 -115.64411 L 173.85925 -118.24411 L 176.65925 -117.04411 L 177.05925 -111.44411 L 174.25925 -103.44411 L 168.85925 -100.64411 L 158.25925 -97.44411 L 146.85925 -95.04411 L 135.65925 -94.24411 L 123.25925 -93.24411 L 112.85925 -93.24411 L 103.45925 -93.24411 L 91.85925 -93.84411 L 80.65925 -94.64411 L 70.05925 -96.84411 L 61.45925 -98.84411 L 55.25925 -101.64411 L 53.25925 -103.24411 L 50.05925 -110.84411 Z" fill="url(#Obj_Gradient_8)"/>
      <path d="M 49.05925 -117.24411 L 54.45925 -117.84411 L 61.25925 -114.44411 L 66.25925 -112.64411 L 74.65925 -110.84411 L 83.05925 -109.84411 L 91.05925 -108.84411 L 98.65925 -108.64411 L 107.25925 -108.24411 L 118.85925 -108.44411 L 127.25925 -108.84411 L 136.65925 -109.44411 L 145.05925 -110.24411 L 154.25925 -111.64411 L 162.45925 -113.84411 L 168.25925 -115.64411 L 173.85925 -118.24411 L 176.65925 -117.04411 L 177.05925 -111.44411 L 174.25925 -103.44411 L 168.85925 -100.64411 L 158.25925 -97.44411 L 146.85925 -95.04411 L 135.65925 -94.24411 L 123.25925 -93.24411 L 112.85925 -93.24411 L 103.45925 -93.24411 L 91.85925 -93.84411 L 80.65925 -94.64411 L 70.05925 -96.84411 L 61.45925 -98.84411 L 55.25925 -101.64411 L 53.25925 -103.24411 L 50.05925 -110.84411 Z" stroke="#7f8080" stroke-linecap="round" stroke-linejoin="round" stroke-width="1"/>
      <path d="M -22.262055 308.2 L -22.262055 308.2 C -22.32774 308.7255 -22.264914 309.25905 -22.07897 309.7549 L -21.427962 311.49092 C -21.251207 311.96227 -21.024122 312.41318 -20.75065 312.8358 L -19.782835 314.33153 C -19.241877 315.16756 -18.528775 315.87855 -17.691147 316.41702 L -16.613098 317.11005 C -16.312843 317.30307 -15.998263 317.47285 -15.672112 317.6179 L -14.355258 318.2035 C -13.75873 318.46876 -13.128023 318.64928 -12.481476 318.7398 L -3.4710554 320.00126 C -3.461062 320.00265 -3.4510656 320.00403 -3.441066 320.0054 L 8.274933 321.594 C 8.320933 321.60024 8.366994 321.606 8.41311 321.61134 L 18.696046 322.79783 C 18.727972 322.8015 18.759922 322.80498 18.791896 322.80822 L 32.501962 324.1991 C 32.529944 324.20193 32.557943 324.2046 32.585957 324.2071 L 43.691257 325.19865 C 43.726375 325.2018 43.761517 325.20466 43.79668 325.20726 L 54.483216 325.99886 C 54.523695 326.00185 54.5642 326.0045 54.604724 326.0068 L 65.11271 326.6016 C 65.13353 326.60276 65.15434 326.60404 65.17515 326.6054 L 77.21792 327.3951 C 77.301925 327.4006 77.38602 327.4046 77.47016 327.40707 L 90.91729 327.80257 C 90.93505 327.8031 90.95282 327.8037 90.97058 327.80434 L 101.61444 328.19856 C 101.70076 328.20176 101.78714 328.20335 101.87352 328.20335 L 112.48254 328.20335 C 112.52347 328.20335 112.5644 328.2037 112.60533 328.20443 L 123.69175 328.39893 C 123.85982 328.40188 124.02794 328.39877 124.19579 328.3896 L 134.81702 327.81028 C 134.90162 327.80566 134.9863 327.8026 135.07102 327.80104 L 145.83558 327.60532 C 145.90781 327.604 145.98002 327.60158 146.05218 327.59803 L 158.0708 327.00695 C 158.11956 327.00455 158.16829 327.00165 158.21698 326.99823 L 169.45703 326.20945 C 169.51497 326.2054 169.57285 326.2006 169.63067 326.1951 L 182.04124 325.01313 C 182.1097 325.0066 182.17825 325.0011 182.24687 324.9966 L 194.1789 324.21418 C 194.2889 324.20696 194.39874 324.19715 194.50829 324.18475 L 204.92063 323.006 C 204.93617 323.00423 204.9517 323.00242 204.96723 323.00056 L 214.91494 321.80683 C 214.93427 321.8045 214.9536 321.8021 214.9729 321.79963 L 228.80867 320.0221 C 228.90589 320.0096 229.00283 319.99507 229.09943 319.9785 L 235.65292 318.85506 C 235.85388 318.8206 236.05626 318.79495 236.25946 318.77817 L 239.4918 318.5112 C 240.38103 318.43775 241.24802 318.19497 242.0461 317.79594 L 243.53238 317.0528 C 244.13297 316.7525 244.68722 316.36735 245.1781 315.9092 L 246.51323 314.66308 C 247.12005 314.0967 247.57546 313.38747 247.83795 312.6 L 248.13278 311.71552 C 248.20285 311.5053 248.2629 311.29187 248.31273 311.07595 L 248.78244 309.04056 C 248.81766 308.88792 248.78422 308.72752 248.69094 308.60168 L 248.69094 308.60168 C 248.6006 308.4798 248.44996 308.4183 248.30014 308.44214 L 239.82028 309.7912 C 239.7694 309.7993 239.7186 309.80796 239.66789 309.8172 L 226.68312 312.17805 C 226.59034 312.1949 226.49723 312.2099 226.40384 312.223 L 215.17416 313.7991 C 215.154 313.80194 215.13388 313.80486 215.11375 313.80786 L 201.99116 315.76645 C 201.8264 315.79105 201.6608 315.80975 201.4947 315.82253 L 188.7699 316.80136 C 188.7526 316.8027 188.73528 316.80396 188.71796 316.80516 L 174.37781 317.801 C 174.35523 317.80257 174.33264 317.80403 174.31004 317.80538 L 161.00679 318.5996 C 160.96489 318.6021 160.92297 318.60423 160.88103 318.60597 L 146.68958 319.1973 C 146.5925 319.20133 146.49534 319.20335 146.39817 319.20335 L 133.14394 319.20335 L 120.60227 319.20335 C 120.56338 319.20335 120.5245 319.20368 120.48562 319.20433 L 108.72723 319.4003 C 108.60505 319.40234 108.48285 319.40117 108.36074 319.3968 L 97.52714 319.0099 C 97.40502 319.00554 97.28282 319.00437 97.16064 319.0064 L 85.446 319.20165 C 85.37796 319.2028 85.30991 319.20293 85.24186 319.20208 L 69.53958 319.0058 C 69.409175 319.00417 69.278844 318.9989 69.14874 318.99 L 54.83896 318.00986 C 54.775613 318.00552 54.71233 318.00032 54.649123 317.99426 L 40.158117 316.6047 C 40.148663 316.6038 40.13921 316.6029 40.12976 316.60194 L 26.317723 315.22073 C 26.201883 315.20915 26.08635 315.19468 25.97123 315.17733 L 11.662079 313.02116 C 11.583322 313.0093 11.504368 312.99877 11.425253 312.9896 L -2.0946795 311.42207 C -2.2022555 311.4096 -2.3095276 311.39463 -2.416409 311.37718 L -11.808498 309.84377 C -11.97349 309.81684 -12.137464 309.784 -12.300105 309.7453 L -21.377704 307.58654 C -21.766023 307.4942 -22.15568 307.73412 -22.248027 308.12244 C -22.25411 308.14802 -22.258794 308.1739 -22.262055 308.2 Z" fill="url(#Obj_Gradient_9)"/>
      <path d="M -22.262055 308.2 L -22.262055 308.2 C -22.32774 308.7255 -22.264914 309.25905 -22.07897 309.7549 L -21.427962 311.49092 C -21.251207 311.96227 -21.024122 312.41318 -20.75065 312.8358 L -19.782835 314.33153 C -19.241877 315.16756 -18.528775 315.87855 -17.691147 316.41702 L -16.613098 317.11005 C -16.312843 317.30307 -15.998263 317.47285 -15.672112 317.6179 L -14.355258 318.2035 C -13.75873 318.46876 -13.128023 318.64928 -12.481476 318.7398 L -3.4710554 320.00126 C -3.461062 320.00265 -3.4510656 320.00403 -3.441066 320.0054 L 8.274933 321.594 C 8.320933 321.60024 8.366994 321.606 8.41311 321.61134 L 18.696046 322.79783 C 18.727972 322.8015 18.759922 322.80498 18.791896 322.80822 L 32.501962 324.1991 C 32.529944 324.20193 32.557943 324.2046 32.585957 324.2071 L 43.691257 325.19865 C 43.726375 325.2018 43.761517 325.20466 43.79668 325.20726 L 54.483216 325.99886 C 54.523695 326.00185 54.5642 326.0045 54.604724 326.0068 L 65.11271 326.6016 C 65.13353 326.60276 65.15434 326.60404 65.17515 326.6054 L 77.21792 327.3951 C 77.301925 327.4006 77.38602 327.4046 77.47016 327.40707 L 90.91729 327.80257 C 90.93505 327.8031 90.95282 327.8037 90.97058 327.80434 L 101.61444 328.19856 C 101.70076 328.20176 101.78714 328.20335 101.87352 328.20335 L 112.48254 328.20335 C 112.52347 328.20335 112.5644 328.2037 112.60533 328.20443 L 123.69175 328.39893 C 123.85982 328.40188 124.02794 328.39877 124.19579 328.3896 L 134.81702 327.81028 C 134.90162 327.80566 134.9863 327.8026 135.07102 327.80104 L 145.83558 327.60532 C 145.90781 327.604 145.98002 327.60158 146.05218 327.59803 L 158.0708 327.00695 C 158.11956 327.00455 158.16829 327.00165 158.21698 326.99823 L 169.45703 326.20945 C 169.51497 326.2054 169.57285 326.2006 169.63067 326.1951 L 182.04124 325.01313 C 182.1097 325.0066 182.17825 325.0011 182.24687 324.9966 L 194.1789 324.21418 C 194.2889 324.20696 194.39874 324.19715 194.50829 324.18475 L 204.92063 323.006 C 204.93617 323.00423 204.9517 323.00242 204.96723 323.00056 L 214.91494 321.80683 C 214.93427 321.8045 214.9536 321.8021 214.9729 321.79963 L 228.80867 320.0221 C 228.90589 320.0096 229.00283 319.99507 229.09943 319.9785 L 235.65292 318.85506 C 235.85388 318.8206 236.05626 318.79495 236.25946 318.77817 L 239.4918 318.5112 C 240.38103 318.43775 241.24802 318.19497 242.0461 317.79594 L 243.53238 317.0528 C 244.13297 316.7525 244.68722 316.36735 245.1781 315.9092 L 246.51323 314.66308 C 247.12005 314.0967 247.57546 313.38747 247.83795 312.6 L 248.13278 311.71552 C 248.20285 311.5053 248.2629 311.29187 248.31273 311.07595 L 248.78244 309.04056 C 248.81766 308.88792 248.78422 308.72752 248.69094 308.60168 L 248.69094 308.60168 C 248.6006 308.4798 248.44996 308.4183 248.30014 308.44214 L 239.82028 309.7912 C 239.7694 309.7993 239.7186 309.80796 239.66789 309.8172 L 226.68312 312.17805 C 226.59034 312.1949 226.49723 312.2099 226.40384 312.223 L 215.17416 313.7991 C 215.154 313.80194 215.13388 313.80486 215.11375 313.80786 L 201.99116 315.76645 C 201.8264 315.79105 201.6608 315.80975 201.4947 315.82253 L 188.7699 316.80136 C 188.7526 316.8027 188.73528 316.80396 188.71796 316.80516 L 174.37781 317.801 C 174.35523 317.80257 174.33264 317.80403 174.31004 317.80538 L 161.00679 318.5996 C 160.96489 318.6021 160.92297 318.60423 160.88103 318.60597 L 146.68958 319.1973 C 146.5925 319.20133 146.49534 319.20335 146.39817 319.20335 L 133.14394 319.20335 L 120.60227 319.20335 C 120.56338 319.20335 120.5245 319.20368 120.48562 319.20433 L 108.72723 319.4003 C 108.60505 319.40234 108.48285 319.40117 108.36074 319.3968 L 97.52714 319.0099 C 97.40502 319.00554 97.28282 319.00437 97.16064 319.0064 L 85.446 319.20165 C 85.37796 319.2028 85.30991 319.20293 85.24186 319.20208 L 69.53958 319.0058 C 69.409175 319.00417 69.278844 318.9989 69.14874 318.99 L 54.83896 318.00986 C 54.775613 318.00552 54.71233 318.00032 54.649123 317.99426 L 40.158117 316.6047 C 40.148663 316.6038 40.13921 316.6029 40.12976 316.60194 L 26.317723 315.22073 C 26.201883 315.20915 26.08635 315.19468 25.97123 315.17733 L 11.662079 313.02116 C 11.583322 313.0093 11.504368 312.99877 11.425253 312.9896 L -2.0946795 311.42207 C -2.2022555 311.4096 -2.3095276 311.39463 -2.416409 311.37718 L -11.808498 309.84377 C -11.97349 309.81684 -12.137464 309.784 -12.300105 309.7453 L -21.377704 307.58654 C -21.766023 307.4942 -22.15568 307.73412 -22.248027 308.12244 C -22.25411 308.14802 -22.258794 308.1739 -22.262055 308.2 Z" stroke="#7f8080" stroke-linecap="round" stroke-linejoin="round" stroke-width="1"/>
    </g>
  </g>
</svg>
