<?xml version="1.0" encoding="UTF-8" standalone="no"?>
<!DOCTYPE svg PUBLIC "-//W3C//DTD SVG 1.1//EN" "http://www.w3.org/Graphics/SVG/1.1/DTD/svg11.dtd">
<svg xmlns="http://www.w3.org/2000/svg" xmlns:xl="http://www.w3.org/1999/xlink" version="1.1" viewBox="246.5 26.5 432.4053 448.4" width="432.4053pt" height="448.4pt" xmlns:dc="http://purl.org/dc/elements/1.1/">
  <metadata> Produced by OmniGraffle 7.6.1 
    <dc:date>2019-05-26 07:17:28 +0000</dc:date>
  </metadata>
  <defs>
    <radialGradient cx="0" cy="0" r="1" id="Gradient" gradientUnits="userSpaceOnUse">
      <stop offset="0" stop-color="#cbcbcb"/>
      <stop offset="1" stop-color="#843918"/>
    </radialGradient>
    <radialGradient id="Obj_Gradient" xl:href="#Gradient" gradientTransform="translate(461.75925 54.4) scale(70.26272)"/>
    <radialGradient cx="0" cy="0" r="1" id="Gradient_2" gradientUnits="userSpaceOnUse">
      <stop offset="0" stop-color="#802020"/>
      <stop offset="1" stop-color="#333"/>
    </radialGradient>
    <radialGradient id="Obj_Gradient_2" xl:href="#Gradient_2" gradientTransform="translate(289.2 190.24615) scale(46.03694)"/>
    <radialGradient id="Obj_Gradient_3" xl:href="#Gradient_2" gradientTransform="translate(636.2053 189.30275) scale(46.03694)"/>
    <radialGradient id="Obj_Gradient_4" xl:href="#Gradient_2" gradientTransform="translate(461.78697 61.355314) scale(83.83496)"/>
    <linearGradient x1="0" x2="1" id="Gradient_3" gradientUnits="userSpaceOnUse">
      <stop offset="0" stop-color="#601818"/>
      <stop offset="1" stop-color="#333"/>
    </linearGradient>
    <linearGradient id="Obj_Gradient_5" xl:href="#Gradient_3" gradientTransform="translate(461.05925 27.755892) rotate(90) scale(25)"/>
    <radialGradient cx="0" cy="0" r="1" id="Gradient_4" gradientUnits="userSpaceOnUse">
      <stop offset="0" stop-color="#390f0c"/>
      <stop offset="1" stop-color="#241209"/>
    </radialGradient>
    <radialGradient id="Obj_Gradient_6" xl:href="#Gradient_4" gradientTransform="translate(462.3297 463.9834) scale(135.94141)"/>
    <radialGradient cx="0" cy="0" r="1" id="Gradient_5" gradientUnits="userSpaceOnUse">
      <stop offset="0" stop-color="#0000b2"/>
      <stop offset="1" stop-color="#3a3a3a"/>
    </radialGradient>
    <radialGradient id="Obj_Gradient_7" xl:href="#Gradient_5" gradientTransform="translate(462.75 156) scale(137.67103)"/>
  </defs>
  <g stroke="none" stroke-opacity="1" stroke-dasharray="none" fill="none" fill-opacity="1">
    <title>Bermudas</title>
    <g>
      <title>Capa 1</title>
      <path d="M 400.00565 27.590446 L 408.1711 30.708164 C 409.0291 31.03576 409.90594 31.311673 410.7969 31.53442 L 424.5141 34.963713 C 425.67576 35.254128 426.8583 35.453383 428.051 35.55966 L 445.57715 37.121397 C 446.165 37.17378 446.75464 37.203517 447.3448 37.21054 L 462.8237 37.394815 C 463.11404 37.39827 463.4044 37.39623 463.6947 37.38869 L 478.118 37.01406 C 478.4788 37.004688 478.8393 36.986826 479.19924 36.96049 L 493.57053 35.90893 C 494.56197 35.836387 495.54766 35.699642 496.5214 35.49956 L 508.09436 33.12155 C 509.13637 32.90744 510.16226 32.6213 511.16465 32.265186 L 522.91664 28.090136 C 524.007 27.702767 525.2102 28.233542 525.65925 29.3 L 525.65925 29.3 C 526.1814 30.540106 526.3334 31.904854 526.09685 33.22945 L 525.91637 34.24014 C 525.6126 35.941294 525.11806 37.602796 524.44214 39.19319 L 522.8989 42.82431 C 522.34035 44.13858 521.6606 45.397975 520.86846 46.58618 L 517.1827 52.11485 C 516.4352 53.236114 515.59057 54.289513 514.6586 55.26289 L 508.36354 61.83774 C 507.4955 62.74439 506.55463 63.57846 505.55046 64.33159 L 497.17555 70.61277 C 496.29914 71.270084 495.3769 71.86394 494.4158 72.3898 L 487.2306 76.32133 C 485.9195 77.038735 484.54156 77.62664 483.1164 78.0767 L 476.44347 80.18393 C 474.7266 80.7261 472.952 81.0648 471.1561 81.19308 L 464.2697 81.68497 C 463.1974 81.76156 462.12103 81.76288 461.04854 81.68892 L 452.6123 81.10711 C 451.5781 81.03578 450.54994 80.89463 449.5348 80.6846 L 442.3996 79.20835 C 440.44765 78.8045 438.55647 78.14861 436.7736 77.25719 L 432.1142 74.92748 C 430.88007 74.31041 429.70397 73.58354 428.6001 72.755655 L 422.91816 68.49419 C 422.47903 68.164835 422.0518 67.81987 421.63737 67.45995 L 415.8822 62.46203 C 415.0679 61.754885 414.30436 60.991345 413.5972 60.17706 L 409.192 55.104376 C 408.4379 54.236015 407.75 53.312315 407.13406 52.34105 L 403.40036 46.45329 C 403.0398 45.884704 402.70437 45.30056 402.39505 44.70255 L 400.77468 41.569827 C 400.16553 40.39215 399.65936 39.164 399.26183 37.89911 L 397.9816 33.825623 C 397.7668 33.142248 397.5841 32.44921 397.434 31.74878 L 397.35925 31.4 C 397.1646 30.491574 397.27185 29.54443 397.66473 28.702543 L 397.75925 28.5 C 398.15372 27.654693 399.1342 27.257707 400.00565 27.590446 Z" fill="url(#Obj_Gradient)"/>
      <path d="M 400.00565 27.590446 L 408.1711 30.708164 C 409.0291 31.03576 409.90594 31.311673 410.7969 31.53442 L 424.5141 34.963713 C 425.67576 35.254128 426.8583 35.453383 428.051 35.55966 L 445.57715 37.121397 C 446.165 37.17378 446.75464 37.203517 447.3448 37.21054 L 462.8237 37.394815 C 463.11404 37.39827 463.4044 37.39623 463.6947 37.38869 L 478.118 37.01406 C 478.4788 37.004688 478.8393 36.986826 479.19924 36.96049 L 493.57053 35.90893 C 494.56197 35.836387 495.54766 35.699642 496.5214 35.49956 L 508.09436 33.12155 C 509.13637 32.90744 510.16226 32.6213 511.16465 32.265186 L 522.91664 28.090136 C 524.007 27.702767 525.2102 28.233542 525.65925 29.3 L 525.65925 29.3 C 526.1814 30.540106 526.3334 31.904854 526.09685 33.22945 L 525.91637 34.24014 C 525.6126 35.941294 525.11806 37.602796 524.44214 39.19319 L 522.8989 42.82431 C 522.34035 44.13858 521.6606 45.397975 520.86846 46.58618 L 517.1827 52.11485 C 516.4352 53.236114 515.59057 54.289513 514.6586 55.26289 L 508.36354 61.83774 C 507.4955 62.74439 506.55463 63.57846 505.55046 64.33159 L 497.17555 70.61277 C 496.29914 71.270084 495.3769 71.86394 494.4158 72.3898 L 487.2306 76.32133 C 485.9195 77.038735 484.54156 77.62664 483.1164 78.0767 L 476.44347 80.18393 C 474.7266 80.7261 472.952 81.0648 471.1561 81.19308 L 464.2697 81.68497 C 463.1974 81.76156 462.12103 81.76288 461.04854 81.68892 L 452.6123 81.10711 C 451.5781 81.03578 450.54994 80.89463 449.5348 80.6846 L 442.3996 79.20835 C 440.44765 78.8045 438.55647 78.14861 436.7736 77.25719 L 432.1142 74.92748 C 430.88007 74.31041 429.70397 73.58354 428.6001 72.755655 L 422.91816 68.49419 C 422.47903 68.164835 422.0518 67.81987 421.63737 67.45995 L 415.8822 62.46203 C 415.0679 61.754885 414.30436 60.991345 413.5972 60.17706 L 409.192 55.104376 C 408.4379 54.236015 407.75 53.312315 407.13406 52.34105 L 403.40036 46.45329 C 403.0398 45.884704 402.70437 45.30056 402.39505 44.70255 L 400.77468 41.569827 C 400.16553 40.39215 399.65936 39.164 399.26183 37.89911 L 397.9816 33.825623 C 397.7668 33.142248 397.5841 32.44921 397.434 31.74878 L 397.35925 31.4 C 397.1646 30.491574 397.27185 29.54443 397.66473 28.702543 L 397.75925 28.5 C 398.15372 27.654693 399.1342 27.257707 400.00565 27.590446 Z" stroke="#7f8080" stroke-linecap="round" stroke-linejoin="round" stroke-width="1"/>
      <path d="M 335.97346 464.2638 L 349.7157 466.55416 C 349.89907 466.5847 350.08297 466.6121 350.2673 466.63624 L 378.62094 470.35154 C 378.86747 470.38385 379.1147 470.4104 379.3625 470.4312 L 409.60537 472.9677 C 409.86227 472.98923 410.11966 473.00456 410.3773 473.01367 L 449.3082 474.39 C 449.4966 474.3967 449.68504 474.4 449.8735 474.4 L 481.34084 474.4 C 481.50746 474.4 481.67407 474.3974 481.8406 474.3922 L 506.8754 473.60986 C 507.08563 473.6033 507.2957 473.5926 507.50555 473.5777 L 529.5533 472.0168 C 529.7116 472.0056 529.86975 471.99205 530.02766 471.97614 L 555.28815 469.4305 C 555.4899 469.4102 555.6912 469.386 555.89204 469.358 L 579.68474 466.04265 C 579.88875 466.0142 580.0922 465.98186 580.29496 465.9456 L 589.4908 464.3 C 594.8179 463.34674 598.46876 458.3931 597.80234 453.02255 L 595.59475 435.232 C 595.5921 435.21066 595.5895 435.18934 595.58695 435.168 L 592.0231 405.4695 C 592.0016 405.28985 591.98306 405.10985 591.9676 404.9296 L 589.6054 377.37037 C 589.59565 377.2568 589.5871 377.1431 589.5798 377.02936 L 588.1932 355.43772 C 588.1916 355.41258 588.1899 355.38744 588.1882 355.3623 L 586.596 332.276 C 586.5925 332.22533 586.5893 332.17466 586.5863 332.12398 L 585.4099 312.3218 C 585.39716 312.1073 585.38874 311.89255 585.38465 311.6777 L 584.99236 291.08285 C 584.9913 291.02762 584.99 290.9724 584.98835 290.91718 L 584.3932 270.68283 C 584.3916 270.6276 584.39026 270.5724 584.3892 270.51715 L 583.99855 250.0076 C 583.9934 249.73592 583.9951 249.46413 584.0038 249.19253 L 584.5897 230.83292 C 584.59044 230.81097 584.5912 230.78903 584.592 230.7671 L 585.38005 208.89779 C 585.3872 208.69928 585.39806 208.50093 585.4126 208.30283 L 586.9701 187.0822 C 586.9839 186.89409 586.99436 186.70573 587.0015 186.51724 L 587.75596 166.61837 C 587.77915 166.00663 587.83744 165.39672 587.9305 164.79165 L 590.6695 146.98813 C 590.7503 146.46304 590.8572 145.94229 590.9898 145.42783 L 595.61806 127.47017 C 595.73316 127.0236 595.8675 126.58221 596.0207 126.14725 L 601.7415 109.9076 C 601.9076 109.43613 602.0957 108.97269 602.3052 108.51883 L 607.8367 96.53379 C 607.9394 96.31129 608.0472 96.09119 608.16 95.87364 L 613.5222 85.53222 C 613.5679 85.44407 613.61446 85.35636 613.6618 85.26908 L 618.8778 75.65212 C 619.61505 74.29276 620.5647 73.05987 621.6908 72 L 621.6908 72 C 622.366 71.36453 622.3982 70.30203 621.7627 69.62684 C 621.6382 69.49456 621.4931 69.38337 621.33295 69.29759 L 618.1188 67.57573 C 617.90016 67.45859 617.6788 67.34656 617.45494 67.23971 L 609.601 63.49122 C 609.19436 63.29716 608.77974 63.12036 608.3582 62.96129 L 598.6834 59.31041 C 598.4883 59.23681 598.2919 59.16703 598.0941 59.10111 L 585.3996 54.869615 C 585.2604 54.82321 585.12055 54.77872 584.9801 54.73616 L 572.0966 50.83206 C 572.02605 50.81069 571.9557 50.78883 571.88544 50.76648 L 559.38144 46.78794 C 558.9878 46.662693 558.5992 46.52225 558.21643 46.36693 L 546.2405 41.507127 C 545.4088 41.16964 544.60704 40.762775 543.8436 40.290834 L 534.22436 34.34439 C 534.06865 34.248137 533.9146 34.14922 533.7623 34.04768 L 528.8722 30.787616 C 527.8908 30.133353 527.0195 29.327453 526.2908 28.4 L 526.2908 28.4 C 526.1852 28.265596 525.9906 28.242248 525.8562 28.34785 C 525.7535 28.428576 525.7125 28.565127 525.7538 28.689083 L 525.8908 29.1 C 526.35003 30.47775 526.4546 31.949037 526.1948 33.37789 L 525.79967 35.551155 C 525.52845 37.042813 525.0466 38.48835 524.3686 39.844405 L 522.83626 42.90904 C 522.53956 43.50244 522.20624 44.07681 521.83823 44.628825 L 518.6345 49.43438 C 518.2059 50.077283 517.7313 50.68829 517.21443 51.262615 L 512.6524 56.331555 C 512.6113 56.377185 512.57 56.42258 512.5284 56.46773 L 506.53417 62.97576 C 505.90643 63.6573 505.2207 64.28302 504.48465 64.84587 L 499.4605 68.68789 C 499.0143 69.02906 498.5505 69.3465 498.071 69.6389 L 491.5846 73.59403 C 490.9229 73.99748 490.2328 74.35232 489.51975 74.65576 L 482.40434 77.6836 C 481.59667 78.02728 480.7621 78.30393 479.90905 78.51072 L 475.83 79.49959 C 475.00516 79.69955 474.1657 79.83356 473.31963 79.90035 L 467.6194 80.35037 C 467.2005 80.38344 466.7804 80.4 466.3602 80.4 L 459.32787 80.4 C 458.57077 80.4 457.8146 80.34626 457.0651 80.23919 L 449.1187 79.10399 C 448.63367 79.0347 448.1521 78.94317 447.6755 78.82969 L 441.71426 77.41035 C 440.5688 77.13762 439.4569 76.73927 438.39883 76.22253 L 432.1188 73.15556 C 431.63377 72.91867 431.161 72.65739 430.7024 72.37272 L 426.4905 69.75846 C 425.89135 69.38656 425.3174 68.97546 424.7725 68.527835 L 420.3264 64.87568 C 420.1027 64.69193 419.884 64.50214 419.67063 64.30652 L 415.8683 60.82104 C 415.417 60.407356 414.9898 59.96811 414.58885 59.505465 L 410.4701 54.753066 C 410.1507 54.38455 409.84836 54.00162 409.56395 53.605486 L 405.1343 47.43561 C 404.6394 46.746296 404.20013 46.018704 403.82064 45.25972 L 401.2442 40.10679 C 401.2086 40.0356 401.1735 39.96414 401.139 39.892424 L 399.8908 37.3 C 399.04007 35.53313 398.68455 33.568594 398.8621 31.615642 L 399.0423 29.633386 C 399.0661 29.371524 398.8731 29.139945 398.61125 29.11614 C 398.44886 29.101376 398.2902 29.17075 398.1908 29.3 L 398.1908 29.3 C 397.52734 30.16248 396.74723 30.92856 395.87285 31.576246 L 391.9763 34.462567 C 391.85263 34.554184 391.72763 34.644012 391.60136 34.732022 L 386.9791 37.95359 C 385.79237 38.78071 384.49895 39.443076 383.1342 39.922582 L 378.52708 41.5413 C 378.0365 41.713665 377.55463 41.90984 377.08316 42.129127 L 370.2364 45.313676 C 369.5402 45.63747 368.82165 45.91074 368.08625 46.13136 L 357.21586 49.392476 C 357.19914 49.39749 357.18243 49.402536 357.16572 49.407607 L 346.19764 52.737205 C 346.05974 52.779067 345.9224 52.82279 345.7857 52.86836 L 332.86446 57.17544 C 332.81534 57.191813 332.76614 57.20795 332.71686 57.223845 L 321.34946 60.89075 C 320.71097 61.09671 320.08607 61.34263 319.47846 61.627044 L 311.5465 65.33988 C 311.17616 65.51323 310.8126 65.70071 310.45662 65.90192 L 304.5105 69.262765 C 303.25747 69.971 302.81583 71.560925 303.52406 72.81396 C 303.60118 72.9504 303.69045 73.0796 303.79078 73.2 L 304.6549 74.23693 C 305.40984 75.14287 306.0623 76.12949 306.60043 77.17882 L 309.67757 83.17924 C 309.75304 83.3264 309.8308 83.47239 309.9108 83.61715 L 313.86554 90.77337 C 313.94903 90.92445 314.03007 91.07687 314.10863 91.23057 L 318.21693 99.26856 C 318.466 99.75587 318.6899 100.25563 318.88776 100.76589 L 322.37053 109.74776 C 322.38403 109.78259 322.39765 109.81737 322.4114 109.8521 L 326.00772 118.93754 C 326.12973 119.24577 326.24213 119.55772 326.34476 119.87294 L 328.9666 127.92572 C 328.9827 127.97524 328.9986 128.02484 329.01424 128.07452 L 332.0863 137.83279 C 332.2891 138.47695 332.4509 139.1333 332.57073 139.79792 L 334.55605 150.80737 C 334.5792 150.93579 334.6008 151.06448 334.6208 151.19342 L 336.32666 162.1868 C 336.3694 162.46222 336.40494 162.73871 336.43323 163.01598 L 337.32065 171.7127 C 337.3674 172.17069 337.39433 172.63048 337.4014 173.0908 L 337.58565 185.06641 C 337.58907 185.28878 337.59713 185.51105 337.6098 185.73309 L 338.3802 199.21465 C 338.38725 199.33821 338.39575 199.4617 338.40567 199.58506 L 339.73924 216.15943 C 339.7736 216.5863 339.7908 217.0144 339.7908 217.44264 L 339.7908 229.89242 C 339.7908 230.09746 339.79472 230.30247 339.8026 230.50735 L 340.38295 245.5965 C 340.38817 245.73216 340.39166 245.8679 340.39343 246.00365 L 340.5856 260.7999 C 340.58905 261.0666 340.58584 261.33333 340.57597 261.59986 L 340.00174 277.104 C 339.99444 277.30132 339.9908 277.49875 339.9908 277.6962 L 339.9908 291.29243 C 339.9908 291.49746 339.98684 291.70247 339.97896 291.90736 L 339.39377 307.12236 C 339.39178 307.17412 339.38953 307.22588 339.38704 307.2776 L 338.5917 323.78055 C 338.5911 323.79352 338.59045 323.8065 338.5898 323.81945 L 337.7953 339.5106 C 337.7923 339.5702 337.78894 339.6298 337.78526 339.68933 L 336.59634 358.91007 C 336.59264 358.97003 336.5886 359.02996 336.5842 359.08987 L 334.80107 383.45942 C 334.7942 383.55314 334.78653 383.6468 334.778 383.7404 L 332.99213 403.3852 C 332.99123 403.39507 332.99032 403.40494 332.9894 403.4148 L 331.21864 422.4997 C 331.20007 422.6999 331.17773 422.8997 331.15162 423.09903 L 329.1909 438.07175 C 329.0581 439.08594 328.78896 440.07756 328.3908 441.01973 L 328.3908 441.01973 C 327.9932 441.9605 327.74454 442.9574 327.6537 443.97465 L 326.8908 452.51973 C 326.38302 458.20676 330.3415 463.3251 335.97346 464.2638 Z" fill="#b80000"/>
      <path d="M 335.97346 464.2638 L 349.7157 466.55416 C 349.89907 466.5847 350.08297 466.6121 350.2673 466.63624 L 378.62094 470.35154 C 378.86747 470.38385 379.1147 470.4104 379.3625 470.4312 L 409.60537 472.9677 C 409.86227 472.98923 410.11966 473.00456 410.3773 473.01367 L 449.3082 474.39 C 449.4966 474.3967 449.68504 474.4 449.8735 474.4 L 481.34084 474.4 C 481.50746 474.4 481.67407 474.3974 481.8406 474.3922 L 506.8754 473.60986 C 507.08563 473.6033 507.2957 473.5926 507.50555 473.5777 L 529.5533 472.0168 C 529.7116 472.0056 529.86975 471.99205 530.02766 471.97614 L 555.28815 469.4305 C 555.4899 469.4102 555.6912 469.386 555.89204 469.358 L 579.68474 466.04265 C 579.88875 466.0142 580.0922 465.98186 580.29496 465.9456 L 589.4908 464.3 C 594.8179 463.34674 598.46876 458.3931 597.80234 453.02255 L 595.59475 435.232 C 595.5921 435.21066 595.5895 435.18934 595.58695 435.168 L 592.0231 405.4695 C 592.0016 405.28985 591.98306 405.10985 591.9676 404.9296 L 589.6054 377.37037 C 589.59565 377.2568 589.5871 377.1431 589.5798 377.02936 L 588.1932 355.43772 C 588.1916 355.41258 588.1899 355.38744 588.1882 355.3623 L 586.596 332.276 C 586.5925 332.22533 586.5893 332.17466 586.5863 332.12398 L 585.4099 312.3218 C 585.39716 312.1073 585.38874 311.89255 585.38465 311.6777 L 584.99236 291.08285 C 584.9913 291.02762 584.99 290.9724 584.98835 290.91718 L 584.3932 270.68283 C 584.3916 270.6276 584.39026 270.5724 584.3892 270.51715 L 583.99855 250.0076 C 583.9934 249.73592 583.9951 249.46413 584.0038 249.19253 L 584.5897 230.83292 C 584.59044 230.81097 584.5912 230.78903 584.592 230.7671 L 585.38005 208.89779 C 585.3872 208.69928 585.39806 208.50093 585.4126 208.30283 L 586.9701 187.0822 C 586.9839 186.89409 586.99436 186.70573 587.0015 186.51724 L 587.75596 166.61837 C 587.77915 166.00663 587.83744 165.39672 587.9305 164.79165 L 590.6695 146.98813 C 590.7503 146.46304 590.8572 145.94229 590.9898 145.42783 L 595.61806 127.47017 C 595.73316 127.0236 595.8675 126.58221 596.0207 126.14725 L 601.7415 109.9076 C 601.9076 109.43613 602.0957 108.97269 602.3052 108.51883 L 607.8367 96.53379 C 607.9394 96.31129 608.0472 96.09119 608.16 95.87364 L 613.5222 85.53222 C 613.5679 85.44407 613.61446 85.35636 613.6618 85.26908 L 618.8778 75.65212 C 619.61505 74.29276 620.5647 73.05987 621.6908 72 L 621.6908 72 C 622.366 71.36453 622.3982 70.30203 621.7627 69.62684 C 621.6382 69.49456 621.4931 69.38337 621.33295 69.29759 L 618.1188 67.57573 C 617.90016 67.45859 617.6788 67.34656 617.45494 67.23971 L 609.601 63.49122 C 609.19436 63.29716 608.77974 63.12036 608.3582 62.96129 L 598.6834 59.31041 C 598.4883 59.23681 598.2919 59.16703 598.0941 59.10111 L 585.3996 54.869615 C 585.2604 54.82321 585.12055 54.77872 584.9801 54.73616 L 572.0966 50.83206 C 572.02605 50.81069 571.9557 50.78883 571.88544 50.76648 L 559.38144 46.78794 C 558.9878 46.662693 558.5992 46.52225 558.21643 46.36693 L 546.2405 41.507127 C 545.4088 41.16964 544.60704 40.762775 543.8436 40.290834 L 534.22436 34.34439 C 534.06865 34.248137 533.9146 34.14922 533.7623 34.04768 L 528.8722 30.787616 C 527.8908 30.133353 527.0195 29.327453 526.2908 28.4 L 526.2908 28.4 C 526.1852 28.265596 525.9906 28.242248 525.8562 28.34785 C 525.7535 28.428576 525.7125 28.565127 525.7538 28.689083 L 525.8908 29.1 C 526.35003 30.47775 526.4546 31.949037 526.1948 33.37789 L 525.79967 35.551155 C 525.52845 37.042813 525.0466 38.48835 524.3686 39.844405 L 522.83626 42.90904 C 522.53956 43.50244 522.20624 44.07681 521.83823 44.628825 L 518.6345 49.43438 C 518.2059 50.077283 517.7313 50.68829 517.21443 51.262615 L 512.6524 56.331555 C 512.6113 56.377185 512.57 56.42258 512.5284 56.46773 L 506.53417 62.97576 C 505.90643 63.6573 505.2207 64.28302 504.48465 64.84587 L 499.4605 68.68789 C 499.0143 69.02906 498.5505 69.3465 498.071 69.6389 L 491.5846 73.59403 C 490.9229 73.99748 490.2328 74.35232 489.51975 74.65576 L 482.40434 77.6836 C 481.59667 78.02728 480.7621 78.30393 479.90905 78.51072 L 475.83 79.49959 C 475.00516 79.69955 474.1657 79.83356 473.31963 79.90035 L 467.6194 80.35037 C 467.2005 80.38344 466.7804 80.4 466.3602 80.4 L 459.32787 80.4 C 458.57077 80.4 457.8146 80.34626 457.0651 80.23919 L 449.1187 79.10399 C 448.63367 79.0347 448.1521 78.94317 447.6755 78.82969 L 441.71426 77.41035 C 440.5688 77.13762 439.4569 76.73927 438.39883 76.22253 L 432.1188 73.15556 C 431.63377 72.91867 431.161 72.65739 430.7024 72.37272 L 426.4905 69.75846 C 425.89135 69.38656 425.3174 68.97546 424.7725 68.527835 L 420.3264 64.87568 C 420.1027 64.69193 419.884 64.50214 419.67063 64.30652 L 415.8683 60.82104 C 415.417 60.407356 414.9898 59.96811 414.58885 59.505465 L 410.4701 54.753066 C 410.1507 54.38455 409.84836 54.00162 409.56395 53.605486 L 405.1343 47.43561 C 404.6394 46.746296 404.20013 46.018704 403.82064 45.25972 L 401.2442 40.10679 C 401.2086 40.0356 401.1735 39.96414 401.139 39.892424 L 399.8908 37.3 C 399.04007 35.53313 398.68455 33.568594 398.8621 31.615642 L 399.0423 29.633386 C 399.0661 29.371524 398.8731 29.139945 398.61125 29.11614 C 398.44886 29.101376 398.2902 29.17075 398.1908 29.3 L 398.1908 29.3 C 397.52734 30.16248 396.74723 30.92856 395.87285 31.576246 L 391.9763 34.462567 C 391.85263 34.554184 391.72763 34.644012 391.60136 34.732022 L 386.9791 37.95359 C 385.79237 38.78071 384.49895 39.443076 383.1342 39.922582 L 378.52708 41.5413 C 378.0365 41.713665 377.55463 41.90984 377.08316 42.129127 L 370.2364 45.313676 C 369.5402 45.63747 368.82165 45.91074 368.08625 46.13136 L 357.21586 49.392476 C 357.19914 49.39749 357.18243 49.402536 357.16572 49.407607 L 346.19764 52.737205 C 346.05974 52.779067 345.9224 52.82279 345.7857 52.86836 L 332.86446 57.17544 C 332.81534 57.191813 332.76614 57.20795 332.71686 57.223845 L 321.34946 60.89075 C 320.71097 61.09671 320.08607 61.34263 319.47846 61.627044 L 311.5465 65.33988 C 311.17616 65.51323 310.8126 65.70071 310.45662 65.90192 L 304.5105 69.262765 C 303.25747 69.971 302.81583 71.560925 303.52406 72.81396 C 303.60118 72.9504 303.69045 73.0796 303.79078 73.2 L 304.6549 74.23693 C 305.40984 75.14287 306.0623 76.12949 306.60043 77.17882 L 309.67757 83.17924 C 309.75304 83.3264 309.8308 83.47239 309.9108 83.61715 L 313.86554 90.77337 C 313.94903 90.92445 314.03007 91.07687 314.10863 91.23057 L 318.21693 99.26856 C 318.466 99.75587 318.6899 100.25563 318.88776 100.76589 L 322.37053 109.74776 C 322.38403 109.78259 322.39765 109.81737 322.4114 109.8521 L 326.00772 118.93754 C 326.12973 119.24577 326.24213 119.55772 326.34476 119.87294 L 328.9666 127.92572 C 328.9827 127.97524 328.9986 128.02484 329.01424 128.07452 L 332.0863 137.83279 C 332.2891 138.47695 332.4509 139.1333 332.57073 139.79792 L 334.55605 150.80737 C 334.5792 150.93579 334.6008 151.06448 334.6208 151.19342 L 336.32666 162.1868 C 336.3694 162.46222 336.40494 162.73871 336.43323 163.01598 L 337.32065 171.7127 C 337.3674 172.17069 337.39433 172.63048 337.4014 173.0908 L 337.58565 185.06641 C 337.58907 185.28878 337.59713 185.51105 337.6098 185.73309 L 338.3802 199.21465 C 338.38725 199.33821 338.39575 199.4617 338.40567 199.58506 L 339.73924 216.15943 C 339.7736 216.5863 339.7908 217.0144 339.7908 217.44264 L 339.7908 229.89242 C 339.7908 230.09746 339.79472 230.30247 339.8026 230.50735 L 340.38295 245.5965 C 340.38817 245.73216 340.39166 245.8679 340.39343 246.00365 L 340.5856 260.7999 C 340.58905 261.0666 340.58584 261.33333 340.57597 261.59986 L 340.00174 277.104 C 339.99444 277.30132 339.9908 277.49875 339.9908 277.6962 L 339.9908 291.29243 C 339.9908 291.49746 339.98684 291.70247 339.97896 291.90736 L 339.39377 307.12236 C 339.39178 307.17412 339.38953 307.22588 339.38704 307.2776 L 338.5917 323.78055 C 338.5911 323.79352 338.59045 323.8065 338.5898 323.81945 L 337.7953 339.5106 C 337.7923 339.5702 337.78894 339.6298 337.78526 339.68933 L 336.59634 358.91007 C 336.59264 358.97003 336.5886 359.02996 336.5842 359.08987 L 334.80107 383.45942 C 334.7942 383.55314 334.78653 383.6468 334.778 383.7404 L 332.99213 403.3852 C 332.99123 403.39507 332.99032 403.40494 332.9894 403.4148 L 331.21864 422.4997 C 331.20007 422.6999 331.17773 422.8997 331.15162 423.09903 L 329.1909 438.07175 C 329.0581 439.08594 328.78896 440.07756 328.3908 441.01973 L 328.3908 441.01973 C 327.9932 441.9605 327.74454 442.9574 327.6537 443.97465 L 326.8908 452.51973 C 326.38302 458.20676 330.3415 463.3251 335.97346 464.2638 Z" stroke="#7f8080" stroke-linecap="round" stroke-linejoin="round" stroke-width="1"/>
      <path d="M 247 178.44615 L 253.2 182.84615 L 261.4 186.84615 L 270 190.44615 L 279 194.24615 L 290 198.24615 L 299.4 201.04615 L 308.4 203.64615 L 317.4 206.24615 L 322.8 207.64615 L 328.4 208.64615 L 330.8 202.84615 L 333.4 197.44615 L 335.6 193.44615 L 338.2 190.04615 L 338.4 181.04615 L 337.8 170.04615 L 336 159.24615 L 334.4 148.84615 L 331.8 137.84614 L 329.4 128.24614 L 326.6 120.24614 L 323.4 110.84614 L 320.6 103.44614 L 317 95.84614 L 313 88.24614 L 309 80.84614 L 306.4 77.24614 L 302.8 71.44614 L 297.4 75.84614 L 292.6 80.64614 L 288 86.84614 L 283.6 93.04614 L 278.8 101.64614 L 274 111.04614 L 269.2 120.24614 L 265.6 128.84614 L 261.6 137.84614 L 258.4 146.04615 L 254.6 155.44615 L 251.8 163.44615 L 248.8 171.84615 Z" fill="#a72929"/>
      <path d="M 247 178.44615 L 253.2 182.84615 L 261.4 186.84615 L 270 190.44615 L 279 194.24615 L 290 198.24615 L 299.4 201.04615 L 308.4 203.64615 L 317.4 206.24615 L 322.8 207.64615 L 328.4 208.64615 L 330.8 202.84615 L 333.4 197.44615 L 335.6 193.44615 L 338.2 190.04615 L 338.4 181.04615 L 337.8 170.04615 L 336 159.24615 L 334.4 148.84615 L 331.8 137.84614 L 329.4 128.24614 L 326.6 120.24614 L 323.4 110.84614 L 320.6 103.44614 L 317 95.84614 L 313 88.24614 L 309 80.84614 L 306.4 77.24614 L 302.8 71.44614 L 297.4 75.84614 L 292.6 80.64614 L 288 86.84614 L 283.6 93.04614 L 278.8 101.64614 L 274 111.04614 L 269.2 120.24614 L 265.6 128.84614 L 261.6 137.84614 L 258.4 146.04615 L 254.6 155.44615 L 251.8 163.44615 L 248.8 171.84615 Z" stroke="#7f8080" stroke-linecap="round" stroke-linejoin="round" stroke-width="1"/>
      <path d="M 678.4053 177.50275 L 672.2053 181.90275 L 664.0053 185.90275 L 655.4053 189.50275 L 646.4053 193.30275 L 635.4053 197.30275 L 626.0053 200.10275 L 617.0053 202.70275 L 608.0053 205.30275 L 602.6053 206.70275 L 597.0053 207.70275 L 594.6053 201.90275 L 592.0053 196.50275 L 589.8053 192.50275 L 587.2053 189.10275 L 587.0053 180.10275 L 587.6053 169.10275 L 589.4053 158.30275 L 591.0053 147.90275 L 593.6053 136.90275 L 596.0053 127.30275 L 598.8053 119.30275 L 602.0053 109.90275 L 604.8053 102.50275 L 608.4053 94.90275 L 612.4053 87.30275 L 616.4053 79.90275 L 619.0053 76.30275 L 622.6053 70.50275 L 628.0053 74.90275 L 632.8053 79.70275 L 637.4053 85.90275 L 641.8053 92.10275 L 646.6053 100.70275 L 651.4053 110.10275 L 656.2053 119.30275 L 659.8053 127.90275 L 663.8053 136.90275 L 667.0053 145.10275 L 670.8053 154.50275 L 673.6053 162.50275 L 676.6053 170.90275 Z" fill="#ba2e2e"/>
      <path d="M 678.4053 177.50275 L 672.2053 181.90275 L 664.0053 185.90275 L 655.4053 189.50275 L 646.4053 193.30275 L 635.4053 197.30275 L 626.0053 200.10275 L 617.0053 202.70275 L 608.0053 205.30275 L 602.6053 206.70275 L 597.0053 207.70275 L 594.6053 201.90275 L 592.0053 196.50275 L 589.8053 192.50275 L 587.2053 189.10275 L 587.0053 180.10275 L 587.6053 169.10275 L 589.4053 158.30275 L 591.0053 147.90275 L 593.6053 136.90275 L 596.0053 127.30275 L 598.8053 119.30275 L 602.0053 109.90275 L 604.8053 102.50275 L 608.4053 94.90275 L 612.4053 87.30275 L 616.4053 79.90275 L 619.0053 76.30275 L 622.6053 70.50275 L 628.0053 74.90275 L 632.8053 79.70275 L 637.4053 85.90275 L 641.8053 92.10275 L 646.6053 100.70275 L 651.4053 110.10275 L 656.2053 119.30275 L 659.8053 127.90275 L 663.8053 136.90275 L 667.0053 145.10275 L 670.8053 154.50275 L 673.6053 162.50275 L 676.6053 170.90275 Z" stroke="#7f8080" stroke-linecap="round" stroke-linejoin="round" stroke-width="1"/>
      <path d="M 247 178.44615 L 253.2 182.84615 L 261.4 186.84615 L 270 190.44615 L 279 194.24615 L 290 198.24615 L 299.4 201.04615 L 308.4 203.64615 L 317.4 206.24615 L 322.8 207.64615 L 328.4 208.64615 L 331.4 202.24615 L 327.6 201.44615 L 322.8 200.24615 L 317.2 199.04615 L 311.2 197.24615 L 306.6 195.84615 L 302.4 194.64615 L 297.8 192.64615 L 293.2 191.04615 L 288.4 189.04615 L 284.4 187.64615 L 279.2 185.44615 L 274.6 183.84615 L 269.8 181.64615 L 265 179.84615 L 261 177.84615 L 256.6 175.64615 L 252.2 173.44615 L 248.8 171.84615 Z" fill="url(#Obj_Gradient_2)"/>
      <path d="M 247 178.44615 L 253.2 182.84615 L 261.4 186.84615 L 270 190.44615 L 279 194.24615 L 290 198.24615 L 299.4 201.04615 L 308.4 203.64615 L 317.4 206.24615 L 322.8 207.64615 L 328.4 208.64615 L 331.4 202.24615 L 327.6 201.44615 L 322.8 200.24615 L 317.2 199.04615 L 311.2 197.24615 L 306.6 195.84615 L 302.4 194.64615 L 297.8 192.64615 L 293.2 191.04615 L 288.4 189.04615 L 284.4 187.64615 L 279.2 185.44615 L 274.6 183.84615 L 269.8 181.64615 L 265 179.84615 L 261 177.84615 L 256.6 175.64615 L 252.2 173.44615 L 248.8 171.84615 Z" stroke="#7f8080" stroke-linecap="round" stroke-linejoin="round" stroke-width="1"/>
      <path d="M 678.4053 177.50275 L 672.2053 181.90275 L 664.0053 185.90275 L 655.4053 189.50275 L 646.4053 193.30275 L 635.4053 197.30275 L 626.0053 200.10275 L 617.0053 202.70275 L 608.0053 205.30275 L 602.6053 206.70275 L 597.0053 207.70275 L 594.0053 201.30275 L 597.8053 200.50275 L 602.6053 199.30275 L 608.2053 198.10275 L 614.2053 196.30275 L 618.8053 194.90275 L 623.0053 193.70275 L 627.6053 191.70275 L 632.2053 190.10275 L 637.0053 188.10275 L 641.0053 186.70275 L 646.2053 184.50275 L 650.8053 182.90275 L 655.6053 180.70275 L 660.4053 178.90275 L 664.4053 176.90275 L 668.8053 174.70275 L 673.2053 172.50275 L 676.6053 170.90275 Z" fill="url(#Obj_Gradient_3)"/>
      <path d="M 678.4053 177.50275 L 672.2053 181.90275 L 664.0053 185.90275 L 655.4053 189.50275 L 646.4053 193.30275 L 635.4053 197.30275 L 626.0053 200.10275 L 617.0053 202.70275 L 608.0053 205.30275 L 602.6053 206.70275 L 597.0053 207.70275 L 594.0053 201.30275 L 597.8053 200.50275 L 602.6053 199.30275 L 608.2053 198.10275 L 614.2053 196.30275 L 618.8053 194.90275 L 623.0053 193.70275 L 627.6053 191.70275 L 632.2053 190.10275 L 637.0053 188.10275 L 641.0053 186.70275 L 646.2053 184.50275 L 650.8053 182.90275 L 655.6053 180.70275 L 660.4053 178.90275 L 664.4053 176.90275 L 668.8053 174.70275 L 673.2053 172.50275 L 676.6053 170.90275 Z" stroke="#7f8080" stroke-linecap="round" stroke-linejoin="round" stroke-width="1"/>
      <path d="M 397.5721 28.96379 L 392.84295 33.017363 C 391.6926 34.003375 390.44764 34.87331 389.1262 35.614485 L 386.5996 37.03165 C 385.1644 37.836623 384.5836 39.60575 385.2624 41.104735 L 386.28 43.35197 C 386.4016 43.620455 386.5283 43.88658 386.6601 44.150196 L 388.4624 47.754736 L 390.9494 52.72871 C 391.29117 53.4123 391.66683 54.078434 392.07495 54.724625 L 394.40134 58.40808 C 394.8417 59.105345 395.3193 59.77842 395.83195 60.42439 L 399.24264 64.72185 C 399.7887 65.409875 400.3737 66.06606 400.9948 66.68717 L 405.66087 71.35321 C 406.06175 71.75409 406.4773 72.14001 406.9067 72.51018 L 411.47023 76.44426 C 411.8649 76.78448 412.271 77.11119 412.68785 77.42383 L 416.6628 80.40503 C 417.3287 80.90447 418.02123 81.36738 418.73733 81.79174 L 422.8704 84.24096 C 422.9984 84.31681 423.1271 84.39141 423.25656 84.46477 L 427.9541 87.12671 C 428.6924 87.54507 429.4533 87.92226 430.23325 88.25653 L 433.78307 89.77788 C 434.36903 90.02901 434.9652 90.25567 435.56997 90.45726 L 440.5881 92.12997 C 441.8353 92.54571 443.1159 92.85376 444.4158 93.05071 L 448.51464 93.67174 C 448.87976 93.72706 449.24615 93.77358 449.6135 93.81126 L 456.4946 94.51701 C 456.7398 94.54216 456.98534 94.56336 457.2312 94.58062 L 461.75835 94.89831 C 462.2942 94.93591 462.8312 94.95473 463.3684 94.95473 L 466.63046 94.95474 C 467.58416 94.95474 468.53693 94.89542 469.48327 94.77713 L 473.472 94.27854 C 474.13195 94.19604 474.788 94.08496 475.43835 93.9456 L 481.5204 92.64231 C 482.41426 92.45076 483.2959 92.2061 484.1607 91.90961 L 488.6695 90.36372 C 489.4642 90.09127 490.2433 89.77549 491.0034 89.41779 L 495.8368 87.14326 C 496.38697 86.88435 496.9267 86.60371 497.45464 86.30202 L 501.2225 84.14896 C 501.9153 83.75308 502.587 83.32142 503.23494 82.85572 L 507.91106 79.49475 C 508.41175 79.13489 508.89776 78.75503 509.3679 78.35611 L 514.6888 73.841445 C 515.0711 73.51706 515.4427 73.18026 515.803 72.83158 L 520.5022 68.28396 C 521.1418 67.665 521.7449 67.009435 522.3085 66.32058 L 526.1018 61.68434 C 526.6085 61.065026 527.08257 60.41969 527.522 59.750964 L 531.1392 54.246564 C 531.3546 53.91873 531.56163 53.58544 531.76 53.24702 L 534.2831 48.942924 C 534.66906 48.28454 535.022 47.607354 535.3406 46.91388 L 537.4593 42.30261 C 537.9922 41.14285 538.36334 39.915436 538.5624 38.654735 L 538.5624 38.654735 C 538.7407 37.525474 538.1614 36.412026 537.1343 35.909898 L 531.8409 33.321995 C 530.5264 32.67937 529.29183 31.88486 528.1624 30.954735 L 527.7564 30.620375 C 526.91205 29.925043 526.28864 28.998738 525.9624 27.954735 L 525.9624 27.954735 C 525.91573 27.80542 525.75686 27.7222 525.60754 27.768862 C 525.49247 27.804823 525.41277 27.909685 525.4089 28.030188 L 525.2997 31.45311 C 525.20894 34.296186 524.5916 37.097764 523.479 39.715667 L 522.60206 41.779043 C 522.0435 43.093314 521.36374 44.35271 520.5716 45.54091 L 516.8858 51.069584 C 516.1383 52.19085 515.2937 53.24425 514.36175 54.217624 L 508.0667 60.79247 C 507.1986 61.699125 506.2578 62.533196 505.2536 63.28633 L 496.8787 69.567505 C 496.0023 70.22482 495.08 70.81867 494.11896 71.34454 L 486.93376 75.27606 C 485.62263 75.99347 484.2447 76.58137 482.8195 77.03143 L 476.1466 79.13867 C 474.42973 79.68084 472.65514 80.01954 470.85927 80.147815 L 463.9728 80.6397 C 462.9005 80.7163 461.82417 80.71762 460.7517 80.64365 L 452.31543 80.06184 C 451.28125 79.99052 450.2531 79.84936 449.23795 79.63933 L 442.10274 78.16308 C 440.1508 77.75923 438.2596 77.10335 436.47676 76.21192 L 431.81735 73.882215 C 430.5832 73.26515 429.4071 72.53827 428.30326 71.71039 L 422.6213 67.44892 C 422.18217 67.11957 421.75496 66.7746 421.3405 66.41468 L 415.58533 61.41676 C 414.77104 60.70962 414.0075 59.94608 413.30036 59.131794 L 408.89513 54.05911 C 408.14103 53.19075 407.4531 52.26705 406.8372 51.295783 L 403.1035 45.40802 C 402.74293 44.83944 402.4075 44.255295 402.0982 43.657283 L 400.4778 40.52456 C 399.86867 39.34688 399.3625 38.118736 398.96497 36.853845 L 397.68473 32.780357 C 397.46995 32.09698 397.2872 31.403945 397.13713 30.703515 L 396.9117 29.651568 C 396.82664 29.254558 397.053 28.856906 397.4378 28.727367 L 397.4378 28.727367 C 397.5103 28.702963 397.58884 28.741948 397.61325 28.814442 C 397.63126 28.867954 397.615 28.927043 397.5721 28.96379 Z" fill="url(#Obj_Gradient_4)"/>
      <path d="M 397.5721 28.96379 L 392.84295 33.017363 C 391.6926 34.003375 390.44764 34.87331 389.1262 35.614485 L 386.5996 37.03165 C 385.1644 37.836623 384.5836 39.60575 385.2624 41.104735 L 386.28 43.35197 C 386.4016 43.620455 386.5283 43.88658 386.6601 44.150196 L 388.4624 47.754736 L 390.9494 52.72871 C 391.29117 53.4123 391.66683 54.078434 392.07495 54.724625 L 394.40134 58.40808 C 394.8417 59.105345 395.3193 59.77842 395.83195 60.42439 L 399.24264 64.72185 C 399.7887 65.409875 400.3737 66.06606 400.9948 66.68717 L 405.66087 71.35321 C 406.06175 71.75409 406.4773 72.14001 406.9067 72.51018 L 411.47023 76.44426 C 411.8649 76.78448 412.271 77.11119 412.68785 77.42383 L 416.6628 80.40503 C 417.3287 80.90447 418.02123 81.36738 418.73733 81.79174 L 422.8704 84.24096 C 422.9984 84.31681 423.1271 84.39141 423.25656 84.46477 L 427.9541 87.12671 C 428.6924 87.54507 429.4533 87.92226 430.23325 88.25653 L 433.78307 89.77788 C 434.36903 90.02901 434.9652 90.25567 435.56997 90.45726 L 440.5881 92.12997 C 441.8353 92.54571 443.1159 92.85376 444.4158 93.05071 L 448.51464 93.67174 C 448.87976 93.72706 449.24615 93.77358 449.6135 93.81126 L 456.4946 94.51701 C 456.7398 94.54216 456.98534 94.56336 457.2312 94.58062 L 461.75835 94.89831 C 462.2942 94.93591 462.8312 94.95473 463.3684 94.95473 L 466.63046 94.95474 C 467.58416 94.95474 468.53693 94.89542 469.48327 94.77713 L 473.472 94.27854 C 474.13195 94.19604 474.788 94.08496 475.43835 93.9456 L 481.5204 92.64231 C 482.41426 92.45076 483.2959 92.2061 484.1607 91.90961 L 488.6695 90.36372 C 489.4642 90.09127 490.2433 89.77549 491.0034 89.41779 L 495.8368 87.14326 C 496.38697 86.88435 496.9267 86.60371 497.45464 86.30202 L 501.2225 84.14896 C 501.9153 83.75308 502.587 83.32142 503.23494 82.85572 L 507.91106 79.49475 C 508.41175 79.13489 508.89776 78.75503 509.3679 78.35611 L 514.6888 73.841445 C 515.0711 73.51706 515.4427 73.18026 515.803 72.83158 L 520.5022 68.28396 C 521.1418 67.665 521.7449 67.009435 522.3085 66.32058 L 526.1018 61.68434 C 526.6085 61.065026 527.08257 60.41969 527.522 59.750964 L 531.1392 54.246564 C 531.3546 53.91873 531.56163 53.58544 531.76 53.24702 L 534.2831 48.942924 C 534.66906 48.28454 535.022 47.607354 535.3406 46.91388 L 537.4593 42.30261 C 537.9922 41.14285 538.36334 39.915436 538.5624 38.654735 L 538.5624 38.654735 C 538.7407 37.525474 538.1614 36.412026 537.1343 35.909898 L 531.8409 33.321995 C 530.5264 32.67937 529.29183 31.88486 528.1624 30.954735 L 527.7564 30.620375 C 526.91205 29.925043 526.28864 28.998738 525.9624 27.954735 L 525.9624 27.954735 C 525.91573 27.80542 525.75686 27.7222 525.60754 27.768862 C 525.49247 27.804823 525.41277 27.909685 525.4089 28.030188 L 525.2997 31.45311 C 525.20894 34.296186 524.5916 37.097764 523.479 39.715667 L 522.60206 41.779043 C 522.0435 43.093314 521.36374 44.35271 520.5716 45.54091 L 516.8858 51.069584 C 516.1383 52.19085 515.2937 53.24425 514.36175 54.217624 L 508.0667 60.79247 C 507.1986 61.699125 506.2578 62.533196 505.2536 63.28633 L 496.8787 69.567505 C 496.0023 70.22482 495.08 70.81867 494.11896 71.34454 L 486.93376 75.27606 C 485.62263 75.99347 484.2447 76.58137 482.8195 77.03143 L 476.1466 79.13867 C 474.42973 79.68084 472.65514 80.01954 470.85927 80.147815 L 463.9728 80.6397 C 462.9005 80.7163 461.82417 80.71762 460.7517 80.64365 L 452.31543 80.06184 C 451.28125 79.99052 450.2531 79.84936 449.23795 79.63933 L 442.10274 78.16308 C 440.1508 77.75923 438.2596 77.10335 436.47676 76.21192 L 431.81735 73.882215 C 430.5832 73.26515 429.4071 72.53827 428.30326 71.71039 L 422.6213 67.44892 C 422.18217 67.11957 421.75496 66.7746 421.3405 66.41468 L 415.58533 61.41676 C 414.77104 60.70962 414.0075 59.94608 413.30036 59.131794 L 408.89513 54.05911 C 408.14103 53.19075 407.4531 52.26705 406.8372 51.295783 L 403.1035 45.40802 C 402.74293 44.83944 402.4075 44.255295 402.0982 43.657283 L 400.4778 40.52456 C 399.86867 39.34688 399.3625 38.118736 398.96497 36.853845 L 397.68473 32.780357 C 397.46995 32.09698 397.2872 31.403945 397.13713 30.703515 L 396.9117 29.651568 C 396.82664 29.254558 397.053 28.856906 397.4378 28.727367 L 397.4378 28.727367 C 397.5103 28.702963 397.58884 28.741948 397.61325 28.814442 C 397.63126 28.867954 397.615 28.927043 397.5721 28.96379 Z" stroke="#7f8080" stroke-linecap="round" stroke-linejoin="round" stroke-width="1"/>
      <path d="M 397.05925 28.755892 L 402.45925 28.155892 L 409.25925 31.555892 L 414.25925 33.355892 L 422.65925 35.155892 L 431.05925 36.155892 L 439.05925 37.155892 L 446.65925 37.355892 L 455.25925 37.755892 L 466.85925 37.555892 L 475.25925 37.155892 L 484.65925 36.555892 L 493.05925 35.755892 L 502.25925 34.355892 L 510.45925 32.155892 L 516.25925 30.355892 L 521.85925 27.755892 L 524.65925 28.955892 L 525.05925 34.555892 L 522.25925 42.555893 L 516.85925 45.35589 L 506.25925 48.55589 L 494.85925 50.95589 L 483.65925 51.75589 L 471.25925 52.75589 L 460.85925 52.75589 L 451.45925 52.75589 L 439.85925 52.15589 L 428.65925 51.35589 L 418.05925 49.15589 L 409.45925 47.15589 L 403.25925 44.35589 L 401.25925 42.75589 L 398.05925 35.155892 Z" fill="url(#Obj_Gradient_5)"/>
      <path d="M 397.05925 28.755892 L 402.45925 28.155892 L 409.25925 31.555892 L 414.25925 33.355892 L 422.65925 35.155892 L 431.05925 36.155892 L 439.05925 37.155892 L 446.65925 37.355892 L 455.25925 37.755892 L 466.85925 37.555892 L 475.25925 37.155892 L 484.65925 36.555892 L 493.05925 35.755892 L 502.25925 34.355892 L 510.45925 32.155892 L 516.25925 30.355892 L 521.85925 27.755892 L 524.65925 28.955892 L 525.05925 34.555892 L 522.25925 42.555893 L 516.85925 45.35589 L 506.25925 48.55589 L 494.85925 50.95589 L 483.65925 51.75589 L 471.25925 52.75589 L 460.85925 52.75589 L 451.45925 52.75589 L 439.85925 52.15589 L 428.65925 51.35589 L 418.05925 49.15589 L 409.45925 47.15589 L 403.25925 44.35589 L 401.25925 42.75589 L 398.05925 35.155892 Z" stroke="#7f8080" stroke-linecap="round" stroke-linejoin="round" stroke-width="1"/>
      <path d="M 326.8132 454.2 L 326.8132 454.2 C 326.74753 454.7255 326.81036 455.25905 326.9963 455.7549 L 327.6473 457.4909 C 327.82406 457.96227 328.05115 458.4132 328.3246 458.8358 L 329.29243 460.33153 C 329.8334 461.16756 330.5465 461.87855 331.38412 462.417 L 332.46217 463.11005 C 332.76243 463.3031 333.077 463.47285 333.40316 463.6179 L 334.72 464.2035 C 335.31654 464.46876 335.94725 464.6493 336.5938 464.7398 L 345.6042 466.00126 C 345.6142 466.00265 345.6242 466.00403 345.6342 466.0054 L 357.3502 467.594 C 357.3962 467.60024 357.44226 467.606 357.48838 467.61134 L 367.7713 468.79783 C 367.80324 468.8015 367.8352 468.805 367.86716 468.8082 L 381.57723 470.1991 C 381.6052 470.20193 381.6332 470.2046 381.66123 470.2071 L 392.76653 471.19865 C 392.80164 471.2018 392.8368 471.20466 392.87195 471.20726 L 403.5585 471.99886 C 403.59896 472.00185 403.63947 472.0045 403.68 472.0068 L 414.188 472.6016 C 414.2088 472.60276 414.2296 472.60404 414.2504 472.6054 L 426.2932 473.3951 C 426.3772 473.4006 426.4613 473.4046 426.54543 473.40707 L 439.99256 473.80257 C 440.0103 473.8031 440.0281 473.8037 440.04585 473.80434 L 450.6897 474.19856 C 450.77603 474.20176 450.8624 474.20335 450.9488 474.20335 L 461.5578 474.20335 C 461.59874 474.20335 461.63967 474.2037 461.6806 474.20443 L 472.767 474.39893 C 472.9351 474.4019 473.1032 474.3988 473.27106 474.3896 L 483.8923 473.8103 C 483.9769 473.80566 484.0616 473.8026 484.1463 473.80104 L 494.91085 473.6053 C 494.9831 473.604 495.0553 473.6016 495.12745 473.59803 L 507.1461 473.00695 C 507.1948 473.00455 507.24355 473.00165 507.29225 472.99823 L 518.5323 472.20945 C 518.59023 472.2054 518.6481 472.2006 518.70594 472.1951 L 531.1165 471.01313 C 531.185 471.0066 531.2535 471.0011 531.32214 470.9966 L 543.25416 470.2142 C 543.3642 470.20696 543.474 470.19715 543.58355 470.18475 L 553.9959 469.006 C 554.01144 469.00423 554.027 469.0024 554.0425 469.00056 L 563.9902 467.80683 C 564.00954 467.8045 564.02886 467.8021 564.0482 467.79963 L 577.88394 466.0221 C 577.98115 466.0096 578.0781 465.9951 578.1747 465.9785 L 584.7282 464.85506 C 584.92915 464.8206 585.1315 464.79495 585.3347 464.77817 L 588.56706 464.5112 C 589.4563 464.43775 590.3233 464.19497 591.12135 463.79594 L 592.60765 463.0528 C 593.20824 462.7525 593.7625 462.36735 594.2534 461.9092 L 595.5885 460.6631 C 596.1953 460.0967 596.6507 459.3875 596.9132 458.6 L 597.20805 457.7155 C 597.2781 457.5053 597.3382 457.29187 597.388 457.07595 L 597.8577 455.04056 C 597.8929 454.8879 597.8595 454.7275 597.7662 454.6017 L 597.7662 454.6017 C 597.6759 454.4798 597.5252 454.4183 597.3754 454.44214 L 588.89555 455.7912 C 588.84466 455.7993 588.79385 455.80796 588.74315 455.8172 L 575.7584 458.17805 C 575.6656 458.1949 575.5725 458.2099 575.4791 458.223 L 564.2494 459.7991 C 564.2293 459.80194 564.20914 459.80486 564.189 459.80786 L 551.0664 461.76645 C 550.9017 461.79105 550.7361 461.80975 550.57 461.8225 L 537.84517 462.80136 C 537.82786 462.8027 537.81055 462.80396 537.79323 462.80516 L 523.4531 463.801 C 523.4305 463.80257 523.4079 463.80403 523.3853 463.8054 L 510.08205 464.5996 C 510.04016 464.6021 509.99824 464.6042 509.9563 464.606 L 495.76485 465.1973 C 495.66776 465.20133 495.5706 465.20335 495.47344 465.20335 L 482.2192 465.20335 L 469.67753 465.20335 C 469.63865 465.20335 469.59976 465.2037 469.5609 465.2043 L 457.8025 465.4003 C 457.6803 465.40234 457.5581 465.40117 457.436 465.3968 L 446.6024 465.0099 C 446.4803 465.00554 446.3581 465.0044 446.2359 465.0064 L 434.52127 465.20165 C 434.45323 465.2028 434.3852 465.20293 434.31713 465.2021 L 418.61484 465.0058 C 418.48444 465.00417 418.3541 464.9989 418.224 464.99 L 403.91423 464.00986 C 403.8509 464.0055 403.7876 464.0003 403.7244 463.99426 L 389.2334 462.6047 C 389.22393 462.6038 389.2145 462.6029 389.20503 462.60194 L 375.393 461.22073 C 375.27715 461.20915 375.1616 461.1947 375.0465 461.17733 L 360.73735 459.02116 C 360.6586 459.0093 360.57964 458.99877 360.5005 458.9896 L 346.9806 457.42207 C 346.873 457.4096 346.76574 457.3946 346.65886 457.3772 L 337.26677 455.8438 C 337.10178 455.81684 336.9378 455.784 336.77516 455.7453 L 327.69756 453.58654 C 327.30925 453.4942 326.9196 453.7341 326.82724 454.12244 C 326.82116 454.148 326.81647 454.1739 326.8132 454.2 Z" fill="url(#Obj_Gradient_6)"/>
      <path d="M 326.8132 454.2 L 326.8132 454.2 C 326.74753 454.7255 326.81036 455.25905 326.9963 455.7549 L 327.6473 457.4909 C 327.82406 457.96227 328.05115 458.4132 328.3246 458.8358 L 329.29243 460.33153 C 329.8334 461.16756 330.5465 461.87855 331.38412 462.417 L 332.46217 463.11005 C 332.76243 463.3031 333.077 463.47285 333.40316 463.6179 L 334.72 464.2035 C 335.31654 464.46876 335.94725 464.6493 336.5938 464.7398 L 345.6042 466.00126 C 345.6142 466.00265 345.6242 466.00403 345.6342 466.0054 L 357.3502 467.594 C 357.3962 467.60024 357.44226 467.606 357.48838 467.61134 L 367.7713 468.79783 C 367.80324 468.8015 367.8352 468.805 367.86716 468.8082 L 381.57723 470.1991 C 381.6052 470.20193 381.6332 470.2046 381.66123 470.2071 L 392.76653 471.19865 C 392.80164 471.2018 392.8368 471.20466 392.87195 471.20726 L 403.5585 471.99886 C 403.59896 472.00185 403.63947 472.0045 403.68 472.0068 L 414.188 472.6016 C 414.2088 472.60276 414.2296 472.60404 414.2504 472.6054 L 426.2932 473.3951 C 426.3772 473.4006 426.4613 473.4046 426.54543 473.40707 L 439.99256 473.80257 C 440.0103 473.8031 440.0281 473.8037 440.04585 473.80434 L 450.6897 474.19856 C 450.77603 474.20176 450.8624 474.20335 450.9488 474.20335 L 461.5578 474.20335 C 461.59874 474.20335 461.63967 474.2037 461.6806 474.20443 L 472.767 474.39893 C 472.9351 474.4019 473.1032 474.3988 473.27106 474.3896 L 483.8923 473.8103 C 483.9769 473.80566 484.0616 473.8026 484.1463 473.80104 L 494.91085 473.6053 C 494.9831 473.604 495.0553 473.6016 495.12745 473.59803 L 507.1461 473.00695 C 507.1948 473.00455 507.24355 473.00165 507.29225 472.99823 L 518.5323 472.20945 C 518.59023 472.2054 518.6481 472.2006 518.70594 472.1951 L 531.1165 471.01313 C 531.185 471.0066 531.2535 471.0011 531.32214 470.9966 L 543.25416 470.2142 C 543.3642 470.20696 543.474 470.19715 543.58355 470.18475 L 553.9959 469.006 C 554.01144 469.00423 554.027 469.0024 554.0425 469.00056 L 563.9902 467.80683 C 564.00954 467.8045 564.02886 467.8021 564.0482 467.79963 L 577.88394 466.0221 C 577.98115 466.0096 578.0781 465.9951 578.1747 465.9785 L 584.7282 464.85506 C 584.92915 464.8206 585.1315 464.79495 585.3347 464.77817 L 588.56706 464.5112 C 589.4563 464.43775 590.3233 464.19497 591.12135 463.79594 L 592.60765 463.0528 C 593.20824 462.7525 593.7625 462.36735 594.2534 461.9092 L 595.5885 460.6631 C 596.1953 460.0967 596.6507 459.3875 596.9132 458.6 L 597.20805 457.7155 C 597.2781 457.5053 597.3382 457.29187 597.388 457.07595 L 597.8577 455.04056 C 597.8929 454.8879 597.8595 454.7275 597.7662 454.6017 L 597.7662 454.6017 C 597.6759 454.4798 597.5252 454.4183 597.3754 454.44214 L 588.89555 455.7912 C 588.84466 455.7993 588.79385 455.80796 588.74315 455.8172 L 575.7584 458.17805 C 575.6656 458.1949 575.5725 458.2099 575.4791 458.223 L 564.2494 459.7991 C 564.2293 459.80194 564.20914 459.80486 564.189 459.80786 L 551.0664 461.76645 C 550.9017 461.79105 550.7361 461.80975 550.57 461.8225 L 537.84517 462.80136 C 537.82786 462.8027 537.81055 462.80396 537.79323 462.80516 L 523.4531 463.801 C 523.4305 463.80257 523.4079 463.80403 523.3853 463.8054 L 510.08205 464.5996 C 510.04016 464.6021 509.99824 464.6042 509.9563 464.606 L 495.76485 465.1973 C 495.66776 465.20133 495.5706 465.20335 495.47344 465.20335 L 482.2192 465.20335 L 469.67753 465.20335 C 469.63865 465.20335 469.59976 465.2037 469.5609 465.2043 L 457.8025 465.4003 C 457.6803 465.40234 457.5581 465.40117 457.436 465.3968 L 446.6024 465.0099 C 446.4803 465.00554 446.3581 465.0044 446.2359 465.0064 L 434.52127 465.20165 C 434.45323 465.2028 434.3852 465.20293 434.31713 465.2021 L 418.61484 465.0058 C 418.48444 465.00417 418.3541 464.9989 418.224 464.99 L 403.91423 464.00986 C 403.8509 464.0055 403.7876 464.0003 403.7244 463.99426 L 389.2334 462.6047 C 389.22393 462.6038 389.2145 462.6029 389.20503 462.60194 L 375.393 461.22073 C 375.27715 461.20915 375.1616 461.1947 375.0465 461.17733 L 360.73735 459.02116 C 360.6586 459.0093 360.57964 458.99877 360.5005 458.9896 L 346.9806 457.42207 C 346.873 457.4096 346.76574 457.3946 346.65886 457.3772 L 337.26677 455.8438 C 337.10178 455.81684 336.9378 455.784 336.77516 455.7453 L 327.69756 453.58654 C 327.30925 453.4942 326.9196 453.7341 326.82724 454.12244 C 326.82116 454.148 326.81647 454.1739 326.8132 454.2 Z" stroke="#7f8080" stroke-linecap="round" stroke-linejoin="round" stroke-width="1"/>
      <path d="M 328.5 126.5 L 597 125.5 L 592.5 138.5 L 591 151 L 588.5 165.5 L 587 176.5 L 586.5 185.5 L 338 186.5 L 338 177.5 L 337.5 168 L 336 156 L 334.5 148.5 L 331.5 137 L 330.5 131 Z" fill="url(#Obj_Gradient_7)"/>
      <path d="M 328.5 126.5 L 597 125.5 L 592.5 138.5 L 591 151 L 588.5 165.5 L 587 176.5 L 586.5 185.5 L 338 186.5 L 338 177.5 L 337.5 168 L 336 156 L 334.5 148.5 L 331.5 137 L 330.5 131 Z" stroke="#7f8080" stroke-linecap="round" stroke-linejoin="round" stroke-width="1"/>
    </g>
  </g>
</svg>
