<?xml version="1.0" encoding="UTF-8" standalone="no"?>
<!DOCTYPE svg PUBLIC "-//W3C//DTD SVG 1.1//EN" "http://www.w3.org/Graphics/SVG/1.1/DTD/svg11.dtd">
<svg xmlns="http://www.w3.org/2000/svg" xmlns:xl="http://www.w3.org/1999/xlink" version="1.1" viewBox="-45.702645 -204.7 432.4053 448.4" width="432.4053pt" height="448.4pt" xmlns:dc="http://purl.org/dc/elements/1.1/">
  <metadata> Produced by OmniGraffle 7.6.1 
    <dc:date>2019-05-26 06:55:11 +0000</dc:date>
  </metadata>
  <defs>
    <radialGradient cx="0" cy="0" r="1" id="Gradient" gradientUnits="userSpaceOnUse">
      <stop offset="0" stop-color="#cbcbcb"/>
      <stop offset="1" stop-color="black"/>
    </radialGradient>
    <radialGradient id="Obj_Gradient" xl:href="#Gradient" gradientTransform="translate(169.5566 -176.8) scale(70.26272)"/>
  </defs>
  <g stroke="none" stroke-opacity="1" stroke-dasharray="none" fill="none" fill-opacity="1">
    <title>bolivia</title>
    <g>
      <title>Capa 1</title>
      <path d="M 107.80301 -203.60956 L 115.96846 -200.49184 C 116.82645 -200.16424 117.7033 -199.88833 118.59428 -199.66558 L 132.31146 -196.2363 C 133.47311 -195.94588 134.65568 -195.74662 135.84836 -195.64034 L 153.3745 -194.0786 C 153.96235 -194.02622 154.552 -193.99649 155.14213 -193.98946 L 170.62105 -193.80519 C 170.9114 -193.80173 171.20178 -193.80377 171.49204 -193.81131 L 185.91535 -194.18594 C 186.27614 -194.19532 186.63665 -194.21318 186.9966 -194.23951 L 201.36789 -195.29107 C 202.35932 -195.36362 203.345 -195.50036 204.31875 -195.70045 L 215.89172 -198.07845 C 216.93372 -198.29256 217.9596 -198.5787 218.962 -198.93482 L 230.714 -203.10987 C 231.80437 -203.49724 233.00757 -202.96646 233.4566 -201.9 L 233.4566 -201.9 C 233.97875 -200.6599 234.13074 -199.29515 233.8942 -197.97055 L 233.71372 -196.95987 C 233.40995 -195.2587 232.91542 -193.5972 232.2395 -192.00682 L 230.69627 -188.3757 C 230.1377 -187.06142 229.45795 -185.80203 228.66582 -184.61383 L 224.98004 -179.08515 C 224.23253 -177.96389 223.38792 -176.9105 222.45597 -175.93711 L 216.1609 -169.36227 C 215.29283 -168.45561 214.352 -167.62154 213.34781 -166.86841 L 204.9729 -160.58723 C 204.0965 -159.92992 203.17423 -159.33606 202.21317 -158.8102 L 195.02797 -154.87868 C 193.71685 -154.16127 192.33892 -153.57337 190.91373 -153.1233 L 184.24082 -151.01607 C 182.52395 -150.4739 180.74935 -150.1352 178.95348 -150.00692 L 172.06703 -149.51503 C 170.99473 -149.43844 169.91838 -149.43712 168.8459 -149.51109 L 160.40964 -150.0929 C 159.37547 -150.16422 158.3473 -150.30538 157.33216 -150.5154 L 150.19696 -151.99165 C 148.245 -152.3955 146.35383 -153.05139 144.57097 -153.94282 L 139.91156 -156.27252 C 138.67743 -156.8896 137.50132 -157.61646 136.39748 -158.44435 L 130.71552 -162.70582 C 130.27638 -163.03517 129.84918 -163.38014 129.43472 -163.74005 L 123.67954 -168.73798 C 122.86526 -169.44512 122.10172 -170.20866 121.39458 -171.02294 L 116.98935 -176.09563 C 116.23525 -176.96399 115.54734 -177.88769 114.93141 -178.85895 L 111.19771 -184.74672 C 110.83715 -185.3153 110.50172 -185.89944 110.1924 -186.49745 L 108.57203 -189.63018 C 107.96289 -190.80786 107.45672 -192.036 107.05918 -193.3009 L 105.77894 -197.37438 C 105.56417 -198.05776 105.38143 -198.7508 105.23134 -199.45122 L 105.1566 -199.8 C 104.96194 -200.70843 105.0692 -201.65557 105.46208 -202.49746 L 105.5566 -202.7 C 105.95108 -203.5453 106.93155 -203.9423 107.80301 -203.60956 Z" fill="url(#Obj_Gradient)"/>
      <path d="M 107.80301 -203.60956 L 115.96846 -200.49184 C 116.82645 -200.16424 117.7033 -199.88833 118.59428 -199.66558 L 132.31146 -196.2363 C 133.47311 -195.94588 134.65568 -195.74662 135.84836 -195.64034 L 153.3745 -194.0786 C 153.96235 -194.02622 154.552 -193.99649 155.14213 -193.98946 L 170.62105 -193.80519 C 170.9114 -193.80173 171.20178 -193.80377 171.49204 -193.81131 L 185.91535 -194.18594 C 186.27614 -194.19532 186.63665 -194.21318 186.9966 -194.23951 L 201.36789 -195.29107 C 202.35932 -195.36362 203.345 -195.50036 204.31875 -195.70045 L 215.89172 -198.07845 C 216.93372 -198.29256 217.9596 -198.5787 218.962 -198.93482 L 230.714 -203.10987 C 231.80437 -203.49724 233.00757 -202.96646 233.4566 -201.9 L 233.4566 -201.9 C 233.97875 -200.6599 234.13074 -199.29515 233.8942 -197.97055 L 233.71372 -196.95987 C 233.40995 -195.2587 232.91542 -193.5972 232.2395 -192.00682 L 230.69627 -188.3757 C 230.1377 -187.06142 229.45795 -185.80203 228.66582 -184.61383 L 224.98004 -179.08515 C 224.23253 -177.96389 223.38792 -176.9105 222.45597 -175.93711 L 216.1609 -169.36227 C 215.29283 -168.45561 214.352 -167.62154 213.34781 -166.86841 L 204.9729 -160.58723 C 204.0965 -159.92992 203.17423 -159.33606 202.21317 -158.8102 L 195.02797 -154.87868 C 193.71685 -154.16127 192.33892 -153.57337 190.91373 -153.1233 L 184.24082 -151.01607 C 182.52395 -150.4739 180.74935 -150.1352 178.95348 -150.00692 L 172.06703 -149.51503 C 170.99473 -149.43844 169.91838 -149.43712 168.8459 -149.51109 L 160.40964 -150.0929 C 159.37547 -150.16422 158.3473 -150.30538 157.33216 -150.5154 L 150.19696 -151.99165 C 148.245 -152.3955 146.35383 -153.05139 144.57097 -153.94282 L 139.91156 -156.27252 C 138.67743 -156.8896 137.50132 -157.61646 136.39748 -158.44435 L 130.71552 -162.70582 C 130.27638 -163.03517 129.84918 -163.38014 129.43472 -163.74005 L 123.67954 -168.73798 C 122.86526 -169.44512 122.10172 -170.20866 121.39458 -171.02294 L 116.98935 -176.09563 C 116.23525 -176.96399 115.54734 -177.88769 114.93141 -178.85895 L 111.19771 -184.74672 C 110.83715 -185.3153 110.50172 -185.89944 110.1924 -186.49745 L 108.57203 -189.63018 C 107.96289 -190.80786 107.45672 -192.036 107.05918 -193.3009 L 105.77894 -197.37438 C 105.56417 -198.05776 105.38143 -198.7508 105.23134 -199.45122 L 105.1566 -199.8 C 104.96194 -200.70843 105.0692 -201.65557 105.46208 -202.49746 L 105.5566 -202.7 C 105.95108 -203.5453 106.93155 -203.9423 107.80301 -203.60956 Z" stroke="#7f8080" stroke-linecap="round" stroke-linejoin="round" stroke-width="1"/>
      <path d="M 43.77081 233.06378 L 57.51305 235.35416 C 57.69643 235.38472 57.88032 235.41208 58.064654 235.43624 L 86.4183 239.15154 C 86.66482 239.18384 86.91207 239.2104 87.15984 239.23118 L 117.40273 241.76768 C 117.65963 241.78923 117.91702 241.80456 118.17466 241.81367 L 157.10557 243.19 C 157.29394 243.19667 157.4824 243.2 157.67088 243.2 L 189.1382 243.2 C 189.30482 243.2 189.47142 243.1974 189.63796 243.1922 L 214.67274 242.40986 C 214.88299 242.4033 215.09308 242.39257 215.3029 242.37772 L 237.35066 240.81682 C 237.50897 240.8056 237.6671 240.79205 237.82502 240.77613 L 263.0855 238.2305 C 263.28724 238.21017 263.48858 238.186 263.6894 238.15802 L 287.4821 234.84265 C 287.6861 234.81422 287.88955 234.78186 288.0923 234.74557 L 297.28814 233.1 C 302.61524 232.14673 306.2661 227.19309 305.5997 221.82255 L 303.3921 204.03198 C 303.38946 204.01066 303.38686 203.98934 303.3843 203.968 L 299.82048 174.26948 C 299.79892 174.08984 299.7804 173.90985 299.76496 173.72958 L 297.40274 146.17037 C 297.393 146.0568 297.3845 145.94312 297.37718 145.82936 L 295.99056 124.23772 C 295.98895 124.21257 295.98727 124.18743 295.98554 124.1623 L 294.39338 101.07598 C 294.3899 101.02533 294.38663 100.97466 294.38362 100.92397 L 293.20726 81.1218 C 293.1945 80.90729 293.1861 80.69254 293.182 80.47769 L 292.78972 59.88285 C 292.78867 59.82762 292.78733 59.77239 292.7857 59.71717 L 292.19058 39.48283 C 292.18895 39.42761 292.1876 39.372383 292.18656 39.31715 L 291.7959 18.80761 C 291.79073 18.535914 291.79248 18.26413 291.80114 17.992524 L 292.3871 -.36708593 C 292.3878 -.3890288 292.38854 -.41097024 292.38933 -.43291006 L 293.1774 -22.302218 C 293.18456 -22.500723 293.1954 -22.699077 293.20995 -22.897177 L 294.76743 -44.117795 C 294.78124 -44.30592 294.7917 -44.49427 294.79886 -44.682763 L 295.5533 -64.58163 C 295.5765 -65.193376 295.6348 -65.803286 295.72788 -66.40835 L 298.46688 -84.21187 C 298.54767 -84.73697 298.65455 -85.25771 298.78715 -85.77218 L 303.4154 -103.72983 C 303.5305 -104.1764 303.66486 -104.61779 303.8181 -105.05276 L 309.53887 -121.2924 C 309.70496 -121.76387 309.89305 -122.22731 310.10253 -122.68118 L 315.6341 -134.66622 C 315.73678 -134.88871 315.84456 -135.10882 315.95736 -135.32636 L 321.3196 -145.66779 C 321.3653 -145.75593 321.4118 -145.84364 321.45915 -145.93092 L 326.67513 -155.54788 C 327.4124 -156.90724 328.36203 -158.14014 329.48814 -159.2 L 329.48814 -159.2 C 330.16333 -159.83548 330.19553 -160.89798 329.56006 -161.57317 C 329.43556 -161.70544 329.29042 -161.81664 329.1303 -161.90241 L 325.91617 -163.62427 C 325.6975 -163.74141 325.47616 -163.85345 325.2523 -163.9603 L 317.39832 -167.70878 C 316.9917 -167.90284 316.5771 -168.07964 316.15557 -168.23871 L 306.48073 -171.8896 C 306.2857 -171.9632 306.08923 -172.03297 305.89146 -172.0989 L 293.197 -176.33039 C 293.05776 -176.3768 292.9179 -176.42129 292.77746 -176.46385 L 279.89394 -180.36794 C 279.8234 -180.38932 279.75302 -180.41118 279.6828 -180.43352 L 267.1788 -184.41207 C 266.78517 -184.5373 266.39655 -184.67775 266.0138 -184.83307 L 254.03784 -189.69288 C 253.20618 -190.03036 252.4044 -190.43723 251.64096 -190.90917 L 242.0217 -196.85561 C 241.866 -196.95187 241.71197 -197.05078 241.55966 -197.15232 L 236.66956 -200.41239 C 235.68817 -201.06665 234.81685 -201.87255 234.08814 -202.8 L 234.08814 -202.8 C 233.98254 -202.9344 233.78797 -202.95776 233.65357 -202.85215 C 233.55083 -202.77143 233.50985 -202.63488 233.55117 -202.51092 L 233.68814 -202.1 C 234.1474 -200.72225 234.25195 -199.25097 233.99216 -197.82211 L 233.59702 -195.64885 C 233.3258 -194.1572 232.84396 -192.71165 232.16594 -191.3556 L 230.63362 -188.29096 C 230.33692 -187.69756 230.0036 -187.1232 229.6356 -186.57118 L 226.43188 -181.76562 C 226.00328 -181.12272 225.52868 -180.5117 225.0118 -179.93739 L 220.44974 -174.86845 C 220.40867 -174.82282 220.36734 -174.77743 220.32576 -174.73227 L 214.33152 -168.22425 C 213.70379 -167.5427 213.01804 -166.91698 212.282 -166.35413 L 207.25783 -162.51212 C 206.81168 -162.17094 206.34787 -161.8535 205.86834 -161.5611 L 199.38194 -157.60598 C 198.72028 -157.20253 198.03018 -156.84768 197.3171 -156.54424 L 190.2017 -153.5164 C 189.39403 -153.17272 188.55945 -152.89608 187.7064 -152.68928 L 183.62735 -151.70042 C 182.80252 -151.50046 181.96308 -151.36645 181.11699 -151.29965 L 175.41678 -150.84963 C 174.99785 -150.81656 174.57778 -150.8 174.15754 -150.8 L 167.12522 -150.8 C 166.36812 -150.8 165.61197 -150.85374 164.86248 -150.96081 L 156.91603 -152.09602 C 156.43103 -152.1653 155.94946 -152.25683 155.47285 -152.37031 L 149.51162 -153.78965 C 148.36613 -154.06238 147.25425 -154.46074 146.19618 -154.97747 L 139.91618 -158.04445 C 139.43113 -158.28133 138.95838 -158.54261 138.49974 -158.82729 L 134.28788 -161.44155 C 133.6887 -161.81344 133.11478 -162.22455 132.56985 -162.67217 L 128.12374 -166.32433 C 127.90005 -166.50808 127.68138 -166.69786 127.46798 -166.89348 L 123.66564 -170.37896 C 123.21434 -170.79265 122.78716 -171.2319 122.3862 -171.69454 L 118.26746 -176.44694 C 117.94808 -176.81546 117.64571 -177.19838 117.3613 -177.59452 L 112.93165 -183.7644 C 112.43676 -184.4537 111.99749 -185.1813 111.618 -185.94028 L 109.04153 -191.09321 C 109.00594 -191.1644 108.97087 -191.23586 108.93634 -191.30758 L 107.68814 -193.9 C 106.83742 -195.66687 106.4819 -197.6314 106.65944 -199.58436 L 106.83965 -201.56662 C 106.86345 -201.82848 106.67047 -202.06006 106.40861 -202.08386 C 106.24621 -202.09863 106.08756 -202.02925 105.98814 -201.9 L 105.98814 -201.9 C 105.32469 -201.03752 104.54458 -200.27144 103.6702 -199.62376 L 99.77367 -196.73744 C 99.64999 -196.64582 99.52499 -196.556 99.39871 -196.46798 L 94.77646 -193.24641 C 93.58973 -192.4193 92.29631 -191.75693 90.93156 -191.27742 L 86.32443 -189.6587 C 85.83386 -189.48634 85.35198 -189.29016 84.88052 -189.07088 L 78.03373 -185.88633 C 77.33757 -185.56253 76.61901 -185.28926 75.88361 -185.06864 L 65.01322 -181.80753 C 64.9965 -181.80251 64.979785 -181.79747 64.96308 -181.7924 L 53.99499 -178.4628 C 53.857095 -178.42094 53.71977 -178.37721 53.583054 -178.33164 L 40.66182 -174.02456 C 40.6127 -174.0082 40.563497 -173.99205 40.51422 -173.97616 L 29.146813 -170.30925 C 28.508327 -170.1033 27.883428 -169.85737 27.275816 -169.57296 L 19.34385 -165.86012 C 18.97351 -165.68677 18.609952 -165.49929 18.253976 -165.29809 L 12.307862 -161.93724 C 11.054828 -161.229 10.613182 -159.63908 11.321419 -158.38604 C 11.398536 -158.2496 11.487804 -158.1204 11.588136 -158 L 12.452247 -156.96307 C 13.207193 -156.05713 13.859669 -155.07051 14.397786 -154.02119 L 17.474924 -148.02077 C 17.550394 -147.8736 17.628142 -147.72761 17.70814 -147.58285 L 21.662892 -140.42664 C 21.746383 -140.27556 21.827423 -140.12314 21.905982 -139.96943 L 26.014287 -131.93145 C 26.263356 -131.44414 26.48726 -130.94437 26.685113 -130.43412 L 30.16788 -121.45224 C 30.181385 -121.41741 30.19501 -121.38264 30.208757 -121.34791 L 33.80508 -112.26246 C 33.92709 -111.95423 34.039488 -111.64228 34.142116 -111.32706 L 36.76395 -103.27429 C 36.780075 -103.22476 36.795956 -103.17516 36.811596 -103.12548 L 39.883644 -93.36721 C 40.086436 -92.72305 40.24824 -92.0667 40.36809 -91.40209 L 42.3534 -80.39263 C 42.376557 -80.26422 42.39814 -80.13552 42.41815 -80.00658 L 44.12402 -69.0132 C 44.166757 -68.73778 44.20229 -68.46129 44.230584 -68.18402 L 45.118004 -59.487305 C 45.16474 -59.029316 45.19168 -58.56952 45.198764 -58.10921 L 45.383005 -46.13359 C 45.386426 -45.91122 45.39448 -45.68895 45.40717 -45.466917 L 46.177545 -31.985355 C 46.184606 -31.86179 46.1931 -31.73831 46.203027 -31.614942 L 47.536597 -15.04057 C 47.570943 -14.613696 47.588137 -14.185615 47.588137 -13.75736 L 47.588137 -1.3075789 C 47.588137 -1.1025454 47.59208 -.8975309 47.59996 -.69264895 L 48.18031 14.396489 C 48.18553 14.532157 48.18902 14.667887 48.19078 14.803644 L 48.38294 29.5999 C 48.386404 29.86659 48.3832 30.13333 48.37333 30.39986 L 47.7991 45.90401 C 47.79179 46.10132 47.788137 46.29875 47.788137 46.496195 L 47.788137 60.09242 C 47.788137 60.297455 47.784196 60.50247 47.776316 60.70735 L 47.191123 75.92235 C 47.18913 75.97412 47.18689 76.02587 47.184396 76.077615 L 46.389074 92.58055 C 46.38845 92.59352 46.38781 92.60648 46.38715 92.61945 L 45.59266 108.31062 C 45.589645 108.3702 45.586295 108.42978 45.58261 108.48933 L 44.3937 127.71006 C 44.38999 127.77002 44.385945 127.82996 44.38156 127.88987 L 42.598423 152.25942 C 42.591566 152.35314 42.583883 152.4468 42.575375 152.54038 L 40.789483 172.1852 C 40.788585 172.19507 40.78768 172.20494 40.786763 172.2148 L 39.016 191.29971 C 38.997426 191.4999 38.97508 191.6997 38.94898 191.89903 L 36.988265 206.87175 C 36.855454 207.88594 36.586313 208.87756 36.188136 209.81973 L 36.188136 209.81973 C 35.79056 210.76047 35.541893 211.7574 35.45107 212.77465 L 34.688136 221.31973 C 34.18038 227.00676 38.138845 232.12512 43.77081 233.06378 Z" fill="#00751a"/>
      <path d="M 43.77081 233.06378 L 57.51305 235.35416 C 57.69643 235.38472 57.88032 235.41208 58.064654 235.43624 L 86.4183 239.15154 C 86.66482 239.18384 86.91207 239.2104 87.15984 239.23118 L 117.40273 241.76768 C 117.65963 241.78923 117.91702 241.80456 118.17466 241.81367 L 157.10557 243.19 C 157.29394 243.19667 157.4824 243.2 157.67088 243.2 L 189.1382 243.2 C 189.30482 243.2 189.47142 243.1974 189.63796 243.1922 L 214.67274 242.40986 C 214.88299 242.4033 215.09308 242.39257 215.3029 242.37772 L 237.35066 240.81682 C 237.50897 240.8056 237.6671 240.79205 237.82502 240.77613 L 263.0855 238.2305 C 263.28724 238.21017 263.48858 238.186 263.6894 238.15802 L 287.4821 234.84265 C 287.6861 234.81422 287.88955 234.78186 288.0923 234.74557 L 297.28814 233.1 C 302.61524 232.14673 306.2661 227.19309 305.5997 221.82255 L 303.3921 204.03198 C 303.38946 204.01066 303.38686 203.98934 303.3843 203.968 L 299.82048 174.26948 C 299.79892 174.08984 299.7804 173.90985 299.76496 173.72958 L 297.40274 146.17037 C 297.393 146.0568 297.3845 145.94312 297.37718 145.82936 L 295.99056 124.23772 C 295.98895 124.21257 295.98727 124.18743 295.98554 124.1623 L 294.39338 101.07598 C 294.3899 101.02533 294.38663 100.97466 294.38362 100.92397 L 293.20726 81.1218 C 293.1945 80.90729 293.1861 80.69254 293.182 80.47769 L 292.78972 59.88285 C 292.78867 59.82762 292.78733 59.77239 292.7857 59.71717 L 292.19058 39.48283 C 292.18895 39.42761 292.1876 39.372383 292.18656 39.31715 L 291.7959 18.80761 C 291.79073 18.535914 291.79248 18.26413 291.80114 17.992524 L 292.3871 -.36708593 C 292.3878 -.3890288 292.38854 -.41097024 292.38933 -.43291006 L 293.1774 -22.302218 C 293.18456 -22.500723 293.1954 -22.699077 293.20995 -22.897177 L 294.76743 -44.117795 C 294.78124 -44.30592 294.7917 -44.49427 294.79886 -44.682763 L 295.5533 -64.58163 C 295.5765 -65.193376 295.6348 -65.803286 295.72788 -66.40835 L 298.46688 -84.21187 C 298.54767 -84.73697 298.65455 -85.25771 298.78715 -85.77218 L 303.4154 -103.72983 C 303.5305 -104.1764 303.66486 -104.61779 303.8181 -105.05276 L 309.53887 -121.2924 C 309.70496 -121.76387 309.89305 -122.22731 310.10253 -122.68118 L 315.6341 -134.66622 C 315.73678 -134.88871 315.84456 -135.10882 315.95736 -135.32636 L 321.3196 -145.66779 C 321.3653 -145.75593 321.4118 -145.84364 321.45915 -145.93092 L 326.67513 -155.54788 C 327.4124 -156.90724 328.36203 -158.14014 329.48814 -159.2 L 329.48814 -159.2 C 330.16333 -159.83548 330.19553 -160.89798 329.56006 -161.57317 C 329.43556 -161.70544 329.29042 -161.81664 329.1303 -161.90241 L 325.91617 -163.62427 C 325.6975 -163.74141 325.47616 -163.85345 325.2523 -163.9603 L 317.39832 -167.70878 C 316.9917 -167.90284 316.5771 -168.07964 316.15557 -168.23871 L 306.48073 -171.8896 C 306.2857 -171.9632 306.08923 -172.03297 305.89146 -172.0989 L 293.197 -176.33039 C 293.05776 -176.3768 292.9179 -176.42129 292.77746 -176.46385 L 279.89394 -180.36794 C 279.8234 -180.38932 279.75302 -180.41118 279.6828 -180.43352 L 267.1788 -184.41207 C 266.78517 -184.5373 266.39655 -184.67775 266.0138 -184.83307 L 254.03784 -189.69288 C 253.20618 -190.03036 252.4044 -190.43723 251.64096 -190.90917 L 242.0217 -196.85561 C 241.866 -196.95187 241.71197 -197.05078 241.55966 -197.15232 L 236.66956 -200.41239 C 235.68817 -201.06665 234.81685 -201.87255 234.08814 -202.8 L 234.08814 -202.8 C 233.98254 -202.9344 233.78797 -202.95776 233.65357 -202.85215 C 233.55083 -202.77143 233.50985 -202.63488 233.55117 -202.51092 L 233.68814 -202.1 C 234.1474 -200.72225 234.25195 -199.25097 233.99216 -197.82211 L 233.59702 -195.64885 C 233.3258 -194.1572 232.84396 -192.71165 232.16594 -191.3556 L 230.63362 -188.29096 C 230.33692 -187.69756 230.0036 -187.1232 229.6356 -186.57118 L 226.43188 -181.76562 C 226.00328 -181.12272 225.52868 -180.5117 225.0118 -179.93739 L 220.44974 -174.86845 C 220.40867 -174.82282 220.36734 -174.77743 220.32576 -174.73227 L 214.33152 -168.22425 C 213.70379 -167.5427 213.01804 -166.91698 212.282 -166.35413 L 207.25783 -162.51212 C 206.81168 -162.17094 206.34787 -161.8535 205.86834 -161.5611 L 199.38194 -157.60598 C 198.72028 -157.20253 198.03018 -156.84768 197.3171 -156.54424 L 190.2017 -153.5164 C 189.39403 -153.17272 188.55945 -152.89608 187.7064 -152.68928 L 183.62735 -151.70042 C 182.80252 -151.50046 181.96308 -151.36645 181.11699 -151.29965 L 175.41678 -150.84963 C 174.99785 -150.81656 174.57778 -150.8 174.15754 -150.8 L 167.12522 -150.8 C 166.36812 -150.8 165.61197 -150.85374 164.86248 -150.96081 L 156.91603 -152.09602 C 156.43103 -152.1653 155.94946 -152.25683 155.47285 -152.37031 L 149.51162 -153.78965 C 148.36613 -154.06238 147.25425 -154.46074 146.19618 -154.97747 L 139.91618 -158.04445 C 139.43113 -158.28133 138.95838 -158.54261 138.49974 -158.82729 L 134.28788 -161.44155 C 133.6887 -161.81344 133.11478 -162.22455 132.56985 -162.67217 L 128.12374 -166.32433 C 127.90005 -166.50808 127.68138 -166.69786 127.46798 -166.89348 L 123.66564 -170.37896 C 123.21434 -170.79265 122.78716 -171.2319 122.3862 -171.69454 L 118.26746 -176.44694 C 117.94808 -176.81546 117.64571 -177.19838 117.3613 -177.59452 L 112.93165 -183.7644 C 112.43676 -184.4537 111.99749 -185.1813 111.618 -185.94028 L 109.04153 -191.09321 C 109.00594 -191.1644 108.97087 -191.23586 108.93634 -191.30758 L 107.68814 -193.9 C 106.83742 -195.66687 106.4819 -197.6314 106.65944 -199.58436 L 106.83965 -201.56662 C 106.86345 -201.82848 106.67047 -202.06006 106.40861 -202.08386 C 106.24621 -202.09863 106.08756 -202.02925 105.98814 -201.9 L 105.98814 -201.9 C 105.32469 -201.03752 104.54458 -200.27144 103.6702 -199.62376 L 99.77367 -196.73744 C 99.64999 -196.64582 99.52499 -196.556 99.39871 -196.46798 L 94.77646 -193.24641 C 93.58973 -192.4193 92.29631 -191.75693 90.93156 -191.27742 L 86.32443 -189.6587 C 85.83386 -189.48634 85.35198 -189.29016 84.88052 -189.07088 L 78.03373 -185.88633 C 77.33757 -185.56253 76.61901 -185.28926 75.88361 -185.06864 L 65.01322 -181.80753 C 64.9965 -181.80251 64.979785 -181.79747 64.96308 -181.7924 L 53.99499 -178.4628 C 53.857095 -178.42094 53.71977 -178.37721 53.583054 -178.33164 L 40.66182 -174.02456 C 40.6127 -174.0082 40.563497 -173.99205 40.51422 -173.97616 L 29.146813 -170.30925 C 28.508327 -170.1033 27.883428 -169.85737 27.275816 -169.57296 L 19.34385 -165.86012 C 18.97351 -165.68677 18.609952 -165.49929 18.253976 -165.29809 L 12.307862 -161.93724 C 11.054828 -161.229 10.613182 -159.63908 11.321419 -158.38604 C 11.398536 -158.2496 11.487804 -158.1204 11.588136 -158 L 12.452247 -156.96307 C 13.207193 -156.05713 13.859669 -155.07051 14.397786 -154.02119 L 17.474924 -148.02077 C 17.550394 -147.8736 17.628142 -147.72761 17.70814 -147.58285 L 21.662892 -140.42664 C 21.746383 -140.27556 21.827423 -140.12314 21.905982 -139.96943 L 26.014287 -131.93145 C 26.263356 -131.44414 26.48726 -130.94437 26.685113 -130.43412 L 30.16788 -121.45224 C 30.181385 -121.41741 30.19501 -121.38264 30.208757 -121.34791 L 33.80508 -112.26246 C 33.92709 -111.95423 34.039488 -111.64228 34.142116 -111.32706 L 36.76395 -103.27429 C 36.780075 -103.22476 36.795956 -103.17516 36.811596 -103.12548 L 39.883644 -93.36721 C 40.086436 -92.72305 40.24824 -92.0667 40.36809 -91.40209 L 42.3534 -80.39263 C 42.376557 -80.26422 42.39814 -80.13552 42.41815 -80.00658 L 44.12402 -69.0132 C 44.166757 -68.73778 44.20229 -68.46129 44.230584 -68.18402 L 45.118004 -59.487305 C 45.16474 -59.029316 45.19168 -58.56952 45.198764 -58.10921 L 45.383005 -46.13359 C 45.386426 -45.91122 45.39448 -45.68895 45.40717 -45.466917 L 46.177545 -31.985355 C 46.184606 -31.86179 46.1931 -31.73831 46.203027 -31.614942 L 47.536597 -15.04057 C 47.570943 -14.613696 47.588137 -14.185615 47.588137 -13.75736 L 47.588137 -1.3075789 C 47.588137 -1.1025454 47.59208 -.8975309 47.59996 -.69264895 L 48.18031 14.396489 C 48.18553 14.532157 48.18902 14.667887 48.19078 14.803644 L 48.38294 29.5999 C 48.386404 29.86659 48.3832 30.13333 48.37333 30.39986 L 47.7991 45.90401 C 47.79179 46.10132 47.788137 46.29875 47.788137 46.496195 L 47.788137 60.09242 C 47.788137 60.297455 47.784196 60.50247 47.776316 60.70735 L 47.191123 75.92235 C 47.18913 75.97412 47.18689 76.02587 47.184396 76.077615 L 46.389074 92.58055 C 46.38845 92.59352 46.38781 92.60648 46.38715 92.61945 L 45.59266 108.31062 C 45.589645 108.3702 45.586295 108.42978 45.58261 108.48933 L 44.3937 127.71006 C 44.38999 127.77002 44.385945 127.82996 44.38156 127.88987 L 42.598423 152.25942 C 42.591566 152.35314 42.583883 152.4468 42.575375 152.54038 L 40.789483 172.1852 C 40.788585 172.19507 40.78768 172.20494 40.786763 172.2148 L 39.016 191.29971 C 38.997426 191.4999 38.97508 191.6997 38.94898 191.89903 L 36.988265 206.87175 C 36.855454 207.88594 36.586313 208.87756 36.188136 209.81973 L 36.188136 209.81973 C 35.79056 210.76047 35.541893 211.7574 35.45107 212.77465 L 34.688136 221.31973 C 34.18038 227.00676 38.138845 232.12512 43.77081 233.06378 Z" stroke="#7f8080" stroke-linecap="round" stroke-linejoin="round" stroke-width="1"/>
      <path d="M -45.202645 -52.75386 L -39.002645 -48.35386 L -30.802645 -44.35386 L -22.202644 -40.753858 L -13.202644 -36.953858 L -2.202644 -32.953857 L 7.197356 -30.153857 L 16.197356 -27.553857 L 25.197356 -24.953857 L 30.597356 -23.553857 L 36.197356 -22.553857 L 38.597356 -28.353857 L 41.197357 -33.753857 L 43.397357 -37.753858 L 45.997357 -41.15386 L 46.197357 -50.15386 L 45.597357 -61.15386 L 43.797357 -71.95386 L 42.197357 -82.35386 L 39.597357 -93.35386 L 37.197356 -102.95386 L 34.397356 -110.95386 L 31.197356 -120.35386 L 28.397356 -127.75386 L 24.797356 -135.35386 L 20.797356 -142.95386 L 16.797356 -150.35386 L 14.197356 -153.95386 L 10.597356 -159.75386 L 5.197356 -155.35386 L .3973559 -150.55386 L -4.202644 -144.35386 L -8.602644 -138.15386 L -13.402644 -129.55386 L -18.202644 -120.15386 L -23.002644 -110.95386 L -26.602644 -102.35386 L -30.602645 -93.35386 L -33.802645 -85.15386 L -37.602645 -75.75386 L -40.402645 -67.75386 L -43.402645 -59.35386 Z" fill="#005d0c"/>
      <path d="M -45.202645 -52.75386 L -39.002645 -48.35386 L -30.802645 -44.35386 L -22.202644 -40.753858 L -13.202644 -36.953858 L -2.202644 -32.953857 L 7.197356 -30.153857 L 16.197356 -27.553857 L 25.197356 -24.953857 L 30.597356 -23.553857 L 36.197356 -22.553857 L 38.597356 -28.353857 L 41.197357 -33.753857 L 43.397357 -37.753858 L 45.997357 -41.15386 L 46.197357 -50.15386 L 45.597357 -61.15386 L 43.797357 -71.95386 L 42.197357 -82.35386 L 39.597357 -93.35386 L 37.197356 -102.95386 L 34.397356 -110.95386 L 31.197356 -120.35386 L 28.397356 -127.75386 L 24.797356 -135.35386 L 20.797356 -142.95386 L 16.797356 -150.35386 L 14.197356 -153.95386 L 10.597356 -159.75386 L 5.197356 -155.35386 L .3973559 -150.55386 L -4.202644 -144.35386 L -8.602644 -138.15386 L -13.402644 -129.55386 L -18.202644 -120.15386 L -23.002644 -110.95386 L -26.602644 -102.35386 L -30.602645 -93.35386 L -33.802645 -85.15386 L -37.602645 -75.75386 L -40.402645 -67.75386 L -43.402645 -59.35386 Z" stroke="#7f8080" stroke-linecap="round" stroke-linejoin="round" stroke-width="1"/>
      <path d="M 386.20264 -53.697254 L 380.00264 -49.297254 L 371.80264 -45.297254 L 363.20264 -41.697254 L 354.20264 -37.897254 L 343.20264 -33.897254 L 333.80264 -31.097254 L 324.80264 -28.497254 L 315.80264 -25.897254 L 310.40264 -24.497254 L 304.80264 -23.497254 L 302.40264 -29.297254 L 299.80264 -34.697254 L 297.60264 -38.697254 L 295.00264 -42.097254 L 294.80264 -51.097254 L 295.40264 -62.097254 L 297.20264 -72.89725 L 298.80264 -83.29725 L 301.40264 -94.29725 L 303.80264 -103.89725 L 306.60264 -111.89725 L 309.80264 -121.29725 L 312.60264 -128.69726 L 316.20264 -136.29726 L 320.20264 -143.89726 L 324.20264 -151.29726 L 326.80264 -154.89726 L 330.40264 -160.69726 L 335.80264 -156.29726 L 340.60264 -151.49726 L 345.20264 -145.29726 L 349.60264 -139.09726 L 354.40264 -130.49726 L 359.20264 -121.09725 L 364.00264 -111.89725 L 367.60264 -103.29725 L 371.60264 -94.29725 L 374.80264 -86.09725 L 378.60264 -76.69725 L 381.40264 -68.697254 L 384.40264 -60.297254 Z" fill="#006119"/>
      <path d="M 386.20264 -53.697254 L 380.00264 -49.297254 L 371.80264 -45.297254 L 363.20264 -41.697254 L 354.20264 -37.897254 L 343.20264 -33.897254 L 333.80264 -31.097254 L 324.80264 -28.497254 L 315.80264 -25.897254 L 310.40264 -24.497254 L 304.80264 -23.497254 L 302.40264 -29.297254 L 299.80264 -34.697254 L 297.60264 -38.697254 L 295.00264 -42.097254 L 294.80264 -51.097254 L 295.40264 -62.097254 L 297.20264 -72.89725 L 298.80264 -83.29725 L 301.40264 -94.29725 L 303.80264 -103.89725 L 306.60264 -111.89725 L 309.80264 -121.29725 L 312.60264 -128.69726 L 316.20264 -136.29726 L 320.20264 -143.89726 L 324.20264 -151.29726 L 326.80264 -154.89726 L 330.40264 -160.69726 L 335.80264 -156.29726 L 340.60264 -151.49726 L 345.20264 -145.29726 L 349.60264 -139.09726 L 354.40264 -130.49726 L 359.20264 -121.09725 L 364.00264 -111.89725 L 367.60264 -103.29725 L 371.60264 -94.29725 L 374.80264 -86.09725 L 378.60264 -76.69725 L 381.40264 -68.697254 L 384.40264 -60.297254 Z" stroke="#7f8080" stroke-linecap="round" stroke-linejoin="round" stroke-width="1"/>
      <path d="M -45.202645 -52.75386 L -39.002645 -48.35386 L -30.802645 -44.35386 L -22.202644 -40.753858 L -13.202644 -36.953858 L -2.202644 -32.953857 L 7.197356 -30.153857 L 16.197356 -27.553857 L 25.197356 -24.953857 L 30.597356 -23.553857 L 36.197356 -22.553857 L 39.197356 -28.953857 L 35.397356 -29.753857 L 30.597356 -30.953857 L 24.997356 -32.153857 L 18.997356 -33.953857 L 14.397356 -35.353857 L 10.197356 -36.553857 L 5.597356 -38.553858 L .9973559 -40.153858 L -3.802644 -42.15386 L -7.802644 -43.55386 L -13.002644 -45.75386 L -17.602644 -47.35386 L -22.402644 -49.55386 L -27.202644 -51.35386 L -31.202645 -53.35386 L -35.602645 -55.55386 L -40.002645 -57.75386 L -43.402645 -59.35386 Z" fill="lime"/>
      <path d="M -45.202645 -52.75386 L -39.002645 -48.35386 L -30.802645 -44.35386 L -22.202644 -40.753858 L -13.202644 -36.953858 L -2.202644 -32.953857 L 7.197356 -30.153857 L 16.197356 -27.553857 L 25.197356 -24.953857 L 30.597356 -23.553857 L 36.197356 -22.553857 L 39.197356 -28.953857 L 35.397356 -29.753857 L 30.597356 -30.953857 L 24.997356 -32.153857 L 18.997356 -33.953857 L 14.397356 -35.353857 L 10.197356 -36.553857 L 5.597356 -38.553858 L .9973559 -40.153858 L -3.802644 -42.15386 L -7.802644 -43.55386 L -13.002644 -45.75386 L -17.602644 -47.35386 L -22.402644 -49.55386 L -27.202644 -51.35386 L -31.202645 -53.35386 L -35.602645 -55.55386 L -40.002645 -57.75386 L -43.402645 -59.35386 Z" stroke="#7f8080" stroke-linecap="round" stroke-linejoin="round" stroke-width="1"/>
      <path d="M 386.20264 -53.697254 L 380.00264 -49.297254 L 371.80264 -45.297254 L 363.20264 -41.697254 L 354.20264 -37.897254 L 343.20264 -33.897254 L 333.80264 -31.097254 L 324.80264 -28.497254 L 315.80264 -25.897254 L 310.40264 -24.497254 L 304.80264 -23.497254 L 301.80264 -29.897254 L 305.60264 -30.697254 L 310.40264 -31.897254 L 316.00264 -33.097254 L 322.00264 -34.897254 L 326.60264 -36.297254 L 330.80264 -37.497254 L 335.40264 -39.497254 L 340.00264 -41.097254 L 344.80264 -43.097254 L 348.80264 -44.497254 L 354.00264 -46.697254 L 358.60264 -48.297254 L 363.40264 -50.497254 L 368.20264 -52.297254 L 372.20264 -54.297254 L 376.60264 -56.497254 L 381.00264 -58.697254 L 384.40264 -60.297254 Z" fill="lime"/>
      <path d="M 386.20264 -53.697254 L 380.00264 -49.297254 L 371.80264 -45.297254 L 363.20264 -41.697254 L 354.20264 -37.897254 L 343.20264 -33.897254 L 333.80264 -31.097254 L 324.80264 -28.497254 L 315.80264 -25.897254 L 310.40264 -24.497254 L 304.80264 -23.497254 L 301.80264 -29.897254 L 305.60264 -30.697254 L 310.40264 -31.897254 L 316.00264 -33.097254 L 322.00264 -34.897254 L 326.60264 -36.297254 L 330.80264 -37.497254 L 335.40264 -39.497254 L 340.00264 -41.097254 L 344.80264 -43.097254 L 348.80264 -44.497254 L 354.00264 -46.697254 L 358.60264 -48.297254 L 363.40264 -50.497254 L 368.20264 -52.297254 L 372.20264 -54.297254 L 376.60264 -56.497254 L 381.00264 -58.697254 L 384.40264 -60.297254 Z" stroke="#7f8080" stroke-linecap="round" stroke-linejoin="round" stroke-width="1"/>
      <path d="M 105.36948 -202.23621 L 100.6403 -198.18264 C 99.48996 -197.19663 98.245 -196.3267 96.92357 -195.58552 L 94.39693 -194.16835 C 92.96176 -193.36338 92.38096 -191.59425 93.05974 -190.09527 L 94.07736 -187.84803 C 94.19894 -187.57955 94.32567 -187.31342 94.45748 -187.0498 L 96.25975 -183.44527 L 98.74673 -178.4713 C 99.08853 -177.7877 99.46419 -177.12157 99.87231 -176.47538 L 102.1987 -172.79192 C 102.63908 -172.09466 103.11664 -171.42158 103.62931 -170.77562 L 107.03999 -166.47816 C 107.58605 -165.79013 108.17107 -165.13395 108.79218 -164.51284 L 113.45822 -159.8468 C 113.8591 -159.44591 114.27467 -159.06 114.70406 -158.68982 L 119.26759 -154.75575 C 119.66225 -154.41553 120.06835 -154.08881 120.4852 -153.77618 L 124.46014 -150.79497 C 125.12605 -150.29554 125.81859 -149.83262 126.53469 -149.40827 L 130.66775 -146.95904 C 130.79574 -146.8832 130.92447 -146.80859 131.05392 -146.73524 L 135.75146 -144.0733 C 136.48975 -143.65493 137.25063 -143.27775 138.0306 -142.94347 L 141.58042 -141.42212 C 142.16639 -141.171 142.76254 -140.94434 143.36733 -140.74274 L 148.38544 -139.07004 C 149.63268 -138.65429 150.91327 -138.34625 152.21315 -138.1493 L 156.312 -137.52826 C 156.67711 -137.47294 157.0435 -137.42642 157.41086 -137.38874 L 164.29196 -136.68299 C 164.53714 -136.65784 164.7827 -136.63664 165.02856 -136.61939 L 169.5557 -136.3017 C 170.09156 -136.26409 170.62858 -136.24527 171.16576 -136.24527 L 174.42781 -136.24527 C 175.38151 -136.24527 176.33429 -136.30458 177.28062 -136.42288 L 181.26934 -136.92147 C 181.9293 -137.00396 182.58537 -137.11504 183.2357 -137.2544 L 189.31774 -138.5577 C 190.21162 -138.74924 191.09328 -138.9939 191.95803 -139.2904 L 196.46688 -140.83628 C 197.26153 -141.10873 198.04065 -141.42452 198.80075 -141.78221 L 203.63413 -144.05674 C 204.18433 -144.31566 204.72404 -144.59629 205.252 -144.89798 L 209.01986 -147.05105 C 209.71265 -147.44693 210.38437 -147.87859 211.0323 -148.34428 L 215.70842 -151.70525 C 216.2091 -152.06512 216.6951 -152.44497 217.16527 -152.8439 L 222.48613 -157.35856 C 222.86844 -157.68294 223.24004 -158.01974 223.60034 -158.36842 L 228.29955 -162.91605 C 228.93914 -163.535 229.54227 -164.19057 230.10588 -164.87943 L 233.89916 -169.51566 C 234.40587 -170.13498 234.87992 -170.78031 235.31937 -171.44904 L 238.93655 -176.95344 C 239.15198 -177.28127 239.359 -177.61456 239.55737 -177.95298 L 242.08047 -182.25708 C 242.46641 -182.91546 242.81936 -183.59265 243.13798 -184.28612 L 245.25667 -188.8974 C 245.78953 -190.05715 246.1607 -191.28457 246.35975 -192.54527 L 246.35975 -192.54527 C 246.53805 -193.67453 245.95875 -194.78798 244.93167 -195.2901 L 239.63823 -197.878 C 238.32378 -198.52063 237.0892 -199.31514 235.95975 -200.24527 L 235.55374 -200.57963 C 234.7094 -201.27496 234.086 -202.20127 233.75975 -203.24527 L 233.75975 -203.24527 C 233.7131 -203.39458 233.55422 -203.4778 233.4049 -203.43114 C 233.28982 -203.39518 233.21012 -203.29032 233.20628 -203.16982 L 233.09703 -199.7469 C 233.0063 -196.90382 232.38896 -194.10224 231.27635 -191.48434 L 230.3994 -189.42096 C 229.84085 -188.1067 229.1611 -186.8473 228.36896 -185.6591 L 224.68318 -180.13042 C 223.93567 -179.00916 223.09106 -177.95576 222.1591 -176.98238 L 215.86404 -170.40753 C 214.99597 -169.50088 214.05513 -168.6668 213.05095 -167.91368 L 204.67605 -161.6325 C 203.79963 -160.97518 202.87737 -160.38133 201.91631 -159.85547 L 194.7311 -155.92394 C 193.41999 -155.20653 192.04206 -154.61863 190.61687 -154.16857 L 183.94396 -152.06134 C 182.22709 -151.51917 180.4525 -151.18046 178.65662 -151.05219 L 171.77017 -150.5603 C 170.69787 -150.4837 169.62152 -150.48239 168.54904 -150.55635 L 160.11278 -151.13816 C 159.0786 -151.20948 158.05043 -151.35064 157.0353 -151.56067 L 149.9001 -153.03692 C 147.94814 -153.44077 146.05697 -154.09666 144.27411 -154.98808 L 139.6147 -157.31779 C 138.38057 -157.93486 137.20446 -158.66173 136.10062 -159.48961 L 130.41866 -163.75108 C 129.97952 -164.08043 129.55232 -164.4254 129.13786 -164.78532 L 123.38268 -169.78324 C 122.5684 -170.49038 121.80486 -171.25392 121.09772 -172.0682 L 116.69249 -177.1409 C 115.93839 -178.00925 115.25048 -178.93295 114.63455 -179.90422 L 110.90085 -185.79198 C 110.54029 -186.36057 110.20486 -186.9447 109.89554 -187.54272 L 108.27517 -190.67544 C 107.66603 -191.85312 107.15986 -193.08127 106.76232 -194.34616 L 105.48208 -198.41965 C 105.2673 -199.10302 105.08457 -199.79606 104.93448 -200.4965 L 104.70906 -201.54844 C 104.62399 -201.94545 104.85035 -202.3431 105.23515 -202.47264 L 105.23515 -202.47264 C 105.30765 -202.49704 105.3862 -202.45806 105.4106 -202.38556 C 105.42862 -202.33205 105.41235 -202.27296 105.36948 -202.23621 Z" fill="green"/>
      <path d="M 105.36948 -202.23621 L 100.6403 -198.18264 C 99.48996 -197.19663 98.245 -196.3267 96.92357 -195.58552 L 94.39693 -194.16835 C 92.96176 -193.36338 92.38096 -191.59425 93.05974 -190.09527 L 94.07736 -187.84803 C 94.19894 -187.57955 94.32567 -187.31342 94.45748 -187.0498 L 96.25975 -183.44527 L 98.74673 -178.4713 C 99.08853 -177.7877 99.46419 -177.12157 99.87231 -176.47538 L 102.1987 -172.79192 C 102.63908 -172.09466 103.11664 -171.42158 103.62931 -170.77562 L 107.03999 -166.47816 C 107.58605 -165.79013 108.17107 -165.13395 108.79218 -164.51284 L 113.45822 -159.8468 C 113.8591 -159.44591 114.27467 -159.06 114.70406 -158.68982 L 119.26759 -154.75575 C 119.66225 -154.41553 120.06835 -154.08881 120.4852 -153.77618 L 124.46014 -150.79497 C 125.12605 -150.29554 125.81859 -149.83262 126.53469 -149.40827 L 130.66775 -146.95904 C 130.79574 -146.8832 130.92447 -146.80859 131.05392 -146.73524 L 135.75146 -144.0733 C 136.48975 -143.65493 137.25063 -143.27775 138.0306 -142.94347 L 141.58042 -141.42212 C 142.16639 -141.171 142.76254 -140.94434 143.36733 -140.74274 L 148.38544 -139.07004 C 149.63268 -138.65429 150.91327 -138.34625 152.21315 -138.1493 L 156.312 -137.52826 C 156.67711 -137.47294 157.0435 -137.42642 157.41086 -137.38874 L 164.29196 -136.68299 C 164.53714 -136.65784 164.7827 -136.63664 165.02856 -136.61939 L 169.5557 -136.3017 C 170.09156 -136.26409 170.62858 -136.24527 171.16576 -136.24527 L 174.42781 -136.24527 C 175.38151 -136.24527 176.33429 -136.30458 177.28062 -136.42288 L 181.26934 -136.92147 C 181.9293 -137.00396 182.58537 -137.11504 183.2357 -137.2544 L 189.31774 -138.5577 C 190.21162 -138.74924 191.09328 -138.9939 191.95803 -139.2904 L 196.46688 -140.83628 C 197.26153 -141.10873 198.04065 -141.42452 198.80075 -141.78221 L 203.63413 -144.05674 C 204.18433 -144.31566 204.72404 -144.59629 205.252 -144.89798 L 209.01986 -147.05105 C 209.71265 -147.44693 210.38437 -147.87859 211.0323 -148.34428 L 215.70842 -151.70525 C 216.2091 -152.06512 216.6951 -152.44497 217.16527 -152.8439 L 222.48613 -157.35856 C 222.86844 -157.68294 223.24004 -158.01974 223.60034 -158.36842 L 228.29955 -162.91605 C 228.93914 -163.535 229.54227 -164.19057 230.10588 -164.87943 L 233.89916 -169.51566 C 234.40587 -170.13498 234.87992 -170.78031 235.31937 -171.44904 L 238.93655 -176.95344 C 239.15198 -177.28127 239.359 -177.61456 239.55737 -177.95298 L 242.08047 -182.25708 C 242.46641 -182.91546 242.81936 -183.59265 243.13798 -184.28612 L 245.25667 -188.8974 C 245.78953 -190.05715 246.1607 -191.28457 246.35975 -192.54527 L 246.35975 -192.54527 C 246.53805 -193.67453 245.95875 -194.78798 244.93167 -195.2901 L 239.63823 -197.878 C 238.32378 -198.52063 237.0892 -199.31514 235.95975 -200.24527 L 235.55374 -200.57963 C 234.7094 -201.27496 234.086 -202.20127 233.75975 -203.24527 L 233.75975 -203.24527 C 233.7131 -203.39458 233.55422 -203.4778 233.4049 -203.43114 C 233.28982 -203.39518 233.21012 -203.29032 233.20628 -203.16982 L 233.09703 -199.7469 C 233.0063 -196.90382 232.38896 -194.10224 231.27635 -191.48434 L 230.3994 -189.42096 C 229.84085 -188.1067 229.1611 -186.8473 228.36896 -185.6591 L 224.68318 -180.13042 C 223.93567 -179.00916 223.09106 -177.95576 222.1591 -176.98238 L 215.86404 -170.40753 C 214.99597 -169.50088 214.05513 -168.6668 213.05095 -167.91368 L 204.67605 -161.6325 C 203.79963 -160.97518 202.87737 -160.38133 201.91631 -159.85547 L 194.7311 -155.92394 C 193.41999 -155.20653 192.04206 -154.61863 190.61687 -154.16857 L 183.94396 -152.06134 C 182.22709 -151.51917 180.4525 -151.18046 178.65662 -151.05219 L 171.77017 -150.5603 C 170.69787 -150.4837 169.62152 -150.48239 168.54904 -150.55635 L 160.11278 -151.13816 C 159.0786 -151.20948 158.05043 -151.35064 157.0353 -151.56067 L 149.9001 -153.03692 C 147.94814 -153.44077 146.05697 -154.09666 144.27411 -154.98808 L 139.6147 -157.31779 C 138.38057 -157.93486 137.20446 -158.66173 136.10062 -159.48961 L 130.41866 -163.75108 C 129.97952 -164.08043 129.55232 -164.4254 129.13786 -164.78532 L 123.38268 -169.78324 C 122.5684 -170.49038 121.80486 -171.25392 121.09772 -172.0682 L 116.69249 -177.1409 C 115.93839 -178.00925 115.25048 -178.93295 114.63455 -179.90422 L 110.90085 -185.79198 C 110.54029 -186.36057 110.20486 -186.9447 109.89554 -187.54272 L 108.27517 -190.67544 C 107.66603 -191.85312 107.15986 -193.08127 106.76232 -194.34616 L 105.48208 -198.41965 C 105.2673 -199.10302 105.08457 -199.79606 104.93448 -200.4965 L 104.70906 -201.54844 C 104.62399 -201.94545 104.85035 -202.3431 105.23515 -202.47264 L 105.23515 -202.47264 C 105.30765 -202.49704 105.3862 -202.45806 105.4106 -202.38556 C 105.42862 -202.33205 105.41235 -202.27296 105.36948 -202.23621 Z" stroke="#7f8080" stroke-linecap="round" stroke-linejoin="round" stroke-width="1"/>
      <path d="M 104.8566 -202.4441 L 110.2566 -203.0441 L 117.0566 -199.6441 L 122.0566 -197.8441 L 130.4566 -196.0441 L 138.8566 -195.0441 L 146.8566 -194.0441 L 154.4566 -193.8441 L 163.0566 -193.4441 L 174.6566 -193.6441 L 183.0566 -194.0441 L 192.4566 -194.6441 L 200.8566 -195.4441 L 210.0566 -196.8441 L 218.2566 -199.0441 L 224.0566 -200.8441 L 229.6566 -203.4441 L 232.4566 -202.2441 L 232.8566 -196.6441 L 230.0566 -188.6441 L 224.6566 -185.8441 L 214.0566 -182.6441 L 202.6566 -180.2441 L 191.4566 -179.4441 L 179.0566 -178.44411 L 168.6566 -178.44411 L 159.2566 -178.44411 L 147.6566 -179.0441 L 136.4566 -179.8441 L 125.8566 -182.0441 L 117.2566 -184.0441 L 111.0566 -186.8441 L 109.0566 -188.4441 L 105.8566 -196.0441 Z" fill="lime"/>
      <path d="M 104.8566 -202.4441 L 110.2566 -203.0441 L 117.0566 -199.6441 L 122.0566 -197.8441 L 130.4566 -196.0441 L 138.8566 -195.0441 L 146.8566 -194.0441 L 154.4566 -193.8441 L 163.0566 -193.4441 L 174.6566 -193.6441 L 183.0566 -194.0441 L 192.4566 -194.6441 L 200.8566 -195.4441 L 210.0566 -196.8441 L 218.2566 -199.0441 L 224.0566 -200.8441 L 229.6566 -203.4441 L 232.4566 -202.2441 L 232.8566 -196.6441 L 230.0566 -188.6441 L 224.6566 -185.8441 L 214.0566 -182.6441 L 202.6566 -180.2441 L 191.4566 -179.4441 L 179.0566 -178.44411 L 168.6566 -178.44411 L 159.2566 -178.44411 L 147.6566 -179.0441 L 136.4566 -179.8441 L 125.8566 -182.0441 L 117.2566 -184.0441 L 111.0566 -186.8441 L 109.0566 -188.4441 L 105.8566 -196.0441 Z" stroke="#7f8080" stroke-linecap="round" stroke-linejoin="round" stroke-width="1"/>
      <path d="M 34.61057 223 L 34.61057 223 C 34.544884 223.52548 34.60771 224.05905 34.793653 224.5549 L 35.44466 226.29092 C 35.621417 226.76227 35.8485 227.21318 36.121975 227.63582 L 37.08979 229.13153 C 37.630747 229.96755 38.34385 230.67854 39.181477 231.21702 L 40.259526 231.91005 C 40.55978 232.10307 40.87436 232.27284 41.20051 232.41788 L 42.517366 233.00348 C 43.113895 233.26876 43.7446 233.44928 44.39115 233.5398 L 53.40157 234.80125 C 53.41156 234.80265 53.42156 234.80403 53.43156 234.80538 L 65.14756 236.394 C 65.19356 236.40023 65.23962 236.406 65.28573 236.41133 L 75.56867 237.59782 C 75.6006 237.6015 75.63255 237.60497 75.66452 237.60822 L 89.37459 238.9991 C 89.40257 239.00193 89.43057 239.0046 89.45858 239.0071 L 100.56388 239.99865 C 100.599 240.00178 100.63414 240.00465 100.6693 240.00726 L 111.35584 240.79885 C 111.39632 240.80185 111.43682 240.8045 111.47735 240.8068 L 121.98533 241.40158 C 122.00615 241.40276 122.02696 241.40403 122.04777 241.4054 L 134.09055 242.1951 C 134.17455 242.2006 134.25864 242.2046 134.34279 242.20706 L 147.78991 242.60257 C 147.80768 242.6031 147.82544 242.60368 147.8432 242.60434 L 158.48706 242.99855 C 158.57339 243.00175 158.65976 243.00335 158.74615 243.00335 L 169.35516 243.00335 C 169.3961 243.00335 169.43702 243.0037 169.47795 243.00443 L 180.56437 243.19893 C 180.73244 243.20187 180.90057 243.19877 181.06841 243.1896 L 191.68964 242.61027 C 191.77425 242.60566 191.85893 242.60258 191.94364 242.60104 L 202.7082 242.40532 C 202.78044 242.404 202.85265 242.40158 202.9248 242.39803 L 214.94343 241.80695 C 214.99218 241.80455 215.0409 241.80164 215.0896 241.79822 L 226.32965 241.00945 C 226.3876 241.00538 226.44547 241.0006 226.5033 240.9951 L 238.91387 239.81313 C 238.98233 239.8066 239.05088 239.8011 239.1195 239.7966 L 251.05152 239.01417 C 251.16153 239.00696 251.27136 238.99715 251.3809 238.98475 L 261.79326 237.806 C 261.8088 237.80423 261.82432 237.80242 261.83985 237.80056 L 271.78756 236.60683 C 271.8069 236.6045 271.82622 236.6021 271.84553 236.59963 L 285.6813 234.8221 C 285.7785 234.8096 285.87545 234.79507 285.97205 234.7785 L 292.52554 233.65505 C 292.7265 233.6206 292.92888 233.59495 293.1321 233.57817 L 296.3644 233.3112 C 297.25365 233.23775 298.12065 232.99497 298.9187 232.59594 L 300.405 231.8528 C 301.0056 231.5525 301.55985 231.16735 302.05074 230.7092 L 303.38585 229.46308 C 303.99267 228.8967 304.4481 228.18747 304.71057 227.4 L 305.0054 226.51552 C 305.07548 226.3053 305.13553 226.09186 305.18536 225.87594 L 305.65506 223.84055 C 305.6903 223.68792 305.65685 223.52752 305.56357 223.40168 L 305.56357 223.40168 C 305.47323 223.2798 305.3226 223.2183 305.17276 223.24214 L 296.6929 224.5912 C 296.642 224.5993 296.5912 224.60796 296.5405 224.61718 L 283.55575 226.97804 C 283.46297 226.9949 283.36985 227.0099 283.27647 227.023 L 272.0468 228.5991 C 272.02664 228.60194 272.0065 228.60485 271.98638 228.60786 L 258.8638 230.56645 C 258.69902 230.59104 258.53343 230.60975 258.36733 230.62252 L 245.64252 231.60135 C 245.62521 231.60268 245.6079 231.60395 245.5906 231.60515 L 231.25044 232.601 C 231.22785 232.60257 231.20526 232.60403 231.18266 232.60537 L 217.8794 233.3996 C 217.8375 233.4021 217.7956 233.40422 217.75366 233.40597 L 203.5622 233.99728 C 203.46512 234.00133 203.36796 234.00335 203.2708 234.00335 L 190.01656 234.00335 L 177.4749 234.00335 C 177.436 234.00335 177.39712 234.00367 177.35824 234.00432 L 165.59985 234.2003 C 165.47768 234.20233 165.35547 234.20117 165.23336 234.1968 L 154.39976 233.8099 C 154.27765 233.80553 154.15544 233.80437 154.03327 233.8064 L 142.31863 234.00165 C 142.25059 234.00278 142.18253 234.00293 142.11449 234.00207 L 126.4122 233.8058 C 126.2818 233.80417 126.15147 233.7989 126.02136 233.78998 L 111.71158 232.80986 C 111.64824 232.80552 111.58495 232.80032 111.52175 232.79426 L 97.03074 231.4047 C 97.02129 231.4038 97.01183 231.40288 97.00238 231.40193 L 83.19035 230.02073 C 83.07451 230.00915 82.95897 229.99467 82.84385 229.97733 L 68.5347 227.82115 C 68.45595 227.80929 68.37699 227.79876 68.29788 227.7896 L 54.777945 226.22206 C 54.67037 226.2096 54.563096 226.19462 54.456215 226.17717 L 45.064126 224.64377 C 44.899134 224.61683 44.73516 224.584 44.57252 224.54531 L 35.49492 222.38654 C 35.1066 222.2942 34.716944 222.53412 34.624597 222.92244 C 34.618513 222.94802 34.61383 222.97391 34.61057 223 Z" fill="#40ff40"/>
      <path d="M 34.61057 223 L 34.61057 223 C 34.544884 223.52548 34.60771 224.05905 34.793653 224.5549 L 35.44466 226.29092 C 35.621417 226.76227 35.8485 227.21318 36.121975 227.63582 L 37.08979 229.13153 C 37.630747 229.96755 38.34385 230.67854 39.181477 231.21702 L 40.259526 231.91005 C 40.55978 232.10307 40.87436 232.27284 41.20051 232.41788 L 42.517366 233.00348 C 43.113895 233.26876 43.7446 233.44928 44.39115 233.5398 L 53.40157 234.80125 C 53.41156 234.80265 53.42156 234.80403 53.43156 234.80538 L 65.14756 236.394 C 65.19356 236.40023 65.23962 236.406 65.28573 236.41133 L 75.56867 237.59782 C 75.6006 237.6015 75.63255 237.60497 75.66452 237.60822 L 89.37459 238.9991 C 89.40257 239.00193 89.43057 239.0046 89.45858 239.0071 L 100.56388 239.99865 C 100.599 240.00178 100.63414 240.00465 100.6693 240.00726 L 111.35584 240.79885 C 111.39632 240.80185 111.43682 240.8045 111.47735 240.8068 L 121.98533 241.40158 C 122.00615 241.40276 122.02696 241.40403 122.04777 241.4054 L 134.09055 242.1951 C 134.17455 242.2006 134.25864 242.2046 134.34279 242.20706 L 147.78991 242.60257 C 147.80768 242.6031 147.82544 242.60368 147.8432 242.60434 L 158.48706 242.99855 C 158.57339 243.00175 158.65976 243.00335 158.74615 243.00335 L 169.35516 243.00335 C 169.3961 243.00335 169.43702 243.0037 169.47795 243.00443 L 180.56437 243.19893 C 180.73244 243.20187 180.90057 243.19877 181.06841 243.1896 L 191.68964 242.61027 C 191.77425 242.60566 191.85893 242.60258 191.94364 242.60104 L 202.7082 242.40532 C 202.78044 242.404 202.85265 242.40158 202.9248 242.39803 L 214.94343 241.80695 C 214.99218 241.80455 215.0409 241.80164 215.0896 241.79822 L 226.32965 241.00945 C 226.3876 241.00538 226.44547 241.0006 226.5033 240.9951 L 238.91387 239.81313 C 238.98233 239.8066 239.05088 239.8011 239.1195 239.7966 L 251.05152 239.01417 C 251.16153 239.00696 251.27136 238.99715 251.3809 238.98475 L 261.79326 237.806 C 261.8088 237.80423 261.82432 237.80242 261.83985 237.80056 L 271.78756 236.60683 C 271.8069 236.6045 271.82622 236.6021 271.84553 236.59963 L 285.6813 234.8221 C 285.7785 234.8096 285.87545 234.79507 285.97205 234.7785 L 292.52554 233.65505 C 292.7265 233.6206 292.92888 233.59495 293.1321 233.57817 L 296.3644 233.3112 C 297.25365 233.23775 298.12065 232.99497 298.9187 232.59594 L 300.405 231.8528 C 301.0056 231.5525 301.55985 231.16735 302.05074 230.7092 L 303.38585 229.46308 C 303.99267 228.8967 304.4481 228.18747 304.71057 227.4 L 305.0054 226.51552 C 305.07548 226.3053 305.13553 226.09186 305.18536 225.87594 L 305.65506 223.84055 C 305.6903 223.68792 305.65685 223.52752 305.56357 223.40168 L 305.56357 223.40168 C 305.47323 223.2798 305.3226 223.2183 305.17276 223.24214 L 296.6929 224.5912 C 296.642 224.5993 296.5912 224.60796 296.5405 224.61718 L 283.55575 226.97804 C 283.46297 226.9949 283.36985 227.0099 283.27647 227.023 L 272.0468 228.5991 C 272.02664 228.60194 272.0065 228.60485 271.98638 228.60786 L 258.8638 230.56645 C 258.69902 230.59104 258.53343 230.60975 258.36733 230.62252 L 245.64252 231.60135 C 245.62521 231.60268 245.6079 231.60395 245.5906 231.60515 L 231.25044 232.601 C 231.22785 232.60257 231.20526 232.60403 231.18266 232.60537 L 217.8794 233.3996 C 217.8375 233.4021 217.7956 233.40422 217.75366 233.40597 L 203.5622 233.99728 C 203.46512 234.00133 203.36796 234.00335 203.2708 234.00335 L 190.01656 234.00335 L 177.4749 234.00335 C 177.436 234.00335 177.39712 234.00367 177.35824 234.00432 L 165.59985 234.2003 C 165.47768 234.20233 165.35547 234.20117 165.23336 234.1968 L 154.39976 233.8099 C 154.27765 233.80553 154.15544 233.80437 154.03327 233.8064 L 142.31863 234.00165 C 142.25059 234.00278 142.18253 234.00293 142.11449 234.00207 L 126.4122 233.8058 C 126.2818 233.80417 126.15147 233.7989 126.02136 233.78998 L 111.71158 232.80986 C 111.64824 232.80552 111.58495 232.80032 111.52175 232.79426 L 97.03074 231.4047 C 97.02129 231.4038 97.01183 231.40288 97.00238 231.40193 L 83.19035 230.02073 C 83.07451 230.00915 82.95897 229.99467 82.84385 229.97733 L 68.5347 227.82115 C 68.45595 227.80929 68.37699 227.79876 68.29788 227.7896 L 54.777945 226.22206 C 54.67037 226.2096 54.563096 226.19462 54.456215 226.17717 L 45.064126 224.64377 C 44.899134 224.61683 44.73516 224.584 44.57252 224.54531 L 35.49492 222.38654 C 35.1066 222.2942 34.716944 222.53412 34.624597 222.92244 C 34.618513 222.94802 34.61383 222.97391 34.61057 223 Z" stroke="#7f8080" stroke-linecap="round" stroke-linejoin="round" stroke-width="1"/>
    </g>
  </g>
</svg>
