<?xml version="1.0" encoding="UTF-8" standalone="no"?>
<!DOCTYPE svg PUBLIC "-//W3C//DTD SVG 1.1//EN" "http://www.w3.org/Graphics/SVG/1.1/DTD/svg11.dtd">
<svg xmlns="http://www.w3.org/2000/svg" xmlns:xl="http://www.w3.org/1999/xlink" version="1.1" viewBox="-298.5 -622.5 432.4053 448.4" width="432.4053pt" height="448.4pt" xmlns:dc="http://purl.org/dc/elements/1.1/">
  <metadata> Produced by OmniGraffle 7.6.1 
    <dc:date>2019-07-25 15:10:38 +0000</dc:date>
  </metadata>
  <defs>
    <radialGradient cx="0" cy="0" r="1" id="Gradient" gradientUnits="userSpaceOnUse">
      <stop offset="0" stop-color="#cbcbcb"/>
      <stop offset="1" stop-color="#843918"/>
    </radialGradient>
    <radialGradient id="Obj_Gradient" xl:href="#Gradient" gradientTransform="translate(-83.24075 -594.6) scale(70.26272)"/>
    <radialGradient cx="0" cy="0" r="1" id="Gradient_2" gradientUnits="userSpaceOnUse">
      <stop offset="0" stop-color="#1647df"/>
      <stop offset="1" stop-color="#333"/>
    </radialGradient>
    <radialGradient id="Obj_Gradient_2" xl:href="#Gradient_2" gradientTransform="translate(-255.8 -458.75385) scale(46.03694)"/>
    <radialGradient id="Obj_Gradient_3" xl:href="#Gradient_2" gradientTransform="translate(91.20529 -459.69725) scale(46.03694)"/>
    <linearGradient x1="0" x2="1" id="Gradient_3" gradientUnits="userSpaceOnUse">
      <stop offset="0" stop-color="#3161d1"/>
      <stop offset="1" stop-color="#333"/>
    </linearGradient>
    <linearGradient id="Obj_Gradient_4" xl:href="#Gradient_3" gradientTransform="translate(-83.94075 -621.2441) rotate(90) scale(25)"/>
    <radialGradient cx="0" cy="0" r="1" id="Gradient_4" gradientUnits="userSpaceOnUse">
      <stop offset="0" stop-color="#3556e8"/>
      <stop offset="1" stop-color="#241209"/>
    </radialGradient>
    <radialGradient id="Obj_Gradient_5" xl:href="#Gradient_4" gradientTransform="translate(-82.67032 -185.01661) scale(135.94141)"/>
    <radialGradient id="Obj_Gradient_6" xl:href="#Gradient_2" gradientTransform="translate(-83.21303 -587.6447) scale(83.83496)"/>
  </defs>
  <g stroke="none" stroke-opacity="1" stroke-dasharray="none" fill="none" fill-opacity="1">
    <title>Lienzo 3</title>
    <rect fill="white" width="432.4053" height="448.4"/>
    <g>
      <title>Capa 1</title>
      <path d="M -144.99435 -621.40955 L -136.8289 -618.2918 C -135.9709 -617.96424 -135.09406 -617.6883 -134.20308 -617.4656 L -120.4859 -614.0363 C -119.32424 -613.7459 -118.14168 -613.5466 -116.949 -613.44034 L -99.42285 -611.8786 C -98.835 -611.8262 -98.24536 -611.7965 -97.65522 -611.78946 L -82.176305 -611.6052 C -81.88596 -611.6017 -81.59558 -611.6038 -81.30531 -611.6113 L -66.882 -611.98594 C -66.52122 -611.9953 -66.160705 -612.0132 -65.80076 -612.0395 L -51.42947 -613.0911 C -50.438033 -613.1636 -49.452343 -613.30036 -48.4786 -613.50044 L -36.905636 -615.87845 C -35.863634 -616.09256 -34.837742 -616.3787 -33.83535 -616.7348 L -22.083355 -620.9099 C -20.992984 -621.2972 -19.789785 -620.76646 -19.34075 -619.7 L -19.34075 -619.7 C -18.8186 -618.4599 -18.666617 -617.09515 -18.903152 -615.77055 L -19.083632 -614.75986 C -19.38741 -613.0587 -19.881939 -611.3972 -20.557855 -609.8068 L -22.101082 -606.1757 C -22.659647 -604.8614 -23.3394 -603.602 -24.131536 -602.4138 L -27.817317 -596.88515 C -28.564827 -595.7639 -29.409433 -594.7105 -30.34139 -593.7371 L -36.636456 -587.16226 C -37.50453 -586.2556 -38.445366 -585.42154 -39.44954 -584.6684 L -47.824445 -578.3872 C -48.70086 -577.7299 -49.62312 -577.13606 -50.58418 -576.6102 L -57.769383 -572.6787 C -59.08051 -571.96126 -60.458435 -571.37336 -61.883625 -570.9233 L -68.55653 -568.8161 C -70.27341 -568.2739 -72.048 -567.9352 -73.84387 -567.8069 L -80.730325 -567.315 C -81.80262 -567.23844 -82.87897 -567.2371 -83.95146 -567.3111 L -92.38771 -567.8929 C -93.42189 -567.9642 -94.45006 -568.1054 -95.46519 -568.3154 L -102.6004 -569.79165 C -104.55235 -570.1955 -106.44353 -570.8514 -108.22638 -571.7428 L -112.88579 -574.0725 C -114.11993 -574.6896 -115.29603 -575.41646 -116.39988 -576.24434 L -122.08184 -580.5058 C -122.52097 -580.83517 -122.94818 -581.1801 -123.36263 -581.54005 L -129.11781 -586.538 C -129.9321 -587.2451 -130.69564 -588.00865 -131.40278 -588.82294 L -135.808 -593.8956 C -136.5621 -594.764 -137.25002 -595.6877 -137.86594 -596.65895 L -141.59964 -602.5467 C -141.96021 -603.1153 -142.29563 -603.69944 -142.60495 -604.29745 L -144.22532 -607.4302 C -144.83447 -608.60785 -145.34064 -609.836 -145.73817 -611.1009 L -147.01841 -615.1744 C -147.23319 -615.85775 -147.41592 -616.5508 -147.56601 -617.2512 L -147.64075 -617.6 C -147.83542 -618.5084 -147.72815 -619.4556 -147.33527 -620.29746 L -147.24075 -620.5 C -146.84628 -621.3453 -145.8658 -621.7423 -144.99435 -621.40955 Z" fill="url(#Obj_Gradient)"/>
      <path d="M -144.99435 -621.40955 L -136.8289 -618.2918 C -135.9709 -617.96424 -135.09406 -617.6883 -134.20308 -617.4656 L -120.4859 -614.0363 C -119.32424 -613.7459 -118.14168 -613.5466 -116.949 -613.44034 L -99.42285 -611.8786 C -98.835 -611.8262 -98.24536 -611.7965 -97.65522 -611.78946 L -82.176305 -611.6052 C -81.88596 -611.6017 -81.59558 -611.6038 -81.30531 -611.6113 L -66.882 -611.98594 C -66.52122 -611.9953 -66.160705 -612.0132 -65.80076 -612.0395 L -51.42947 -613.0911 C -50.438033 -613.1636 -49.452343 -613.30036 -48.4786 -613.50044 L -36.905636 -615.87845 C -35.863634 -616.09256 -34.837742 -616.3787 -33.83535 -616.7348 L -22.083355 -620.9099 C -20.992984 -621.2972 -19.789785 -620.76646 -19.34075 -619.7 L -19.34075 -619.7 C -18.8186 -618.4599 -18.666617 -617.09515 -18.903152 -615.77055 L -19.083632 -614.75986 C -19.38741 -613.0587 -19.881939 -611.3972 -20.557855 -609.8068 L -22.101082 -606.1757 C -22.659647 -604.8614 -23.3394 -603.602 -24.131536 -602.4138 L -27.817317 -596.88515 C -28.564827 -595.7639 -29.409433 -594.7105 -30.34139 -593.7371 L -36.636456 -587.16226 C -37.50453 -586.2556 -38.445366 -585.42154 -39.44954 -584.6684 L -47.824445 -578.3872 C -48.70086 -577.7299 -49.62312 -577.13606 -50.58418 -576.6102 L -57.769383 -572.6787 C -59.08051 -571.96126 -60.458435 -571.37336 -61.883625 -570.9233 L -68.55653 -568.8161 C -70.27341 -568.2739 -72.048 -567.9352 -73.84387 -567.8069 L -80.730325 -567.315 C -81.80262 -567.23844 -82.87897 -567.2371 -83.95146 -567.3111 L -92.38771 -567.8929 C -93.42189 -567.9642 -94.45006 -568.1054 -95.46519 -568.3154 L -102.6004 -569.79165 C -104.55235 -570.1955 -106.44353 -570.8514 -108.22638 -571.7428 L -112.88579 -574.0725 C -114.11993 -574.6896 -115.29603 -575.41646 -116.39988 -576.24434 L -122.08184 -580.5058 C -122.52097 -580.83517 -122.94818 -581.1801 -123.36263 -581.54005 L -129.11781 -586.538 C -129.9321 -587.2451 -130.69564 -588.00865 -131.40278 -588.82294 L -135.808 -593.8956 C -136.5621 -594.764 -137.25002 -595.6877 -137.86594 -596.65895 L -141.59964 -602.5467 C -141.96021 -603.1153 -142.29563 -603.69944 -142.60495 -604.29745 L -144.22532 -607.4302 C -144.83447 -608.60785 -145.34064 -609.836 -145.73817 -611.1009 L -147.01841 -615.1744 C -147.23319 -615.85775 -147.41592 -616.5508 -147.56601 -617.2512 L -147.64075 -617.6 C -147.83542 -618.5084 -147.72815 -619.4556 -147.33527 -620.29746 L -147.24075 -620.5 C -146.84628 -621.3453 -145.8658 -621.7423 -144.99435 -621.40955 Z" stroke="#7f8080" stroke-linecap="round" stroke-linejoin="round" stroke-width="1"/>
      <path d="M -209.02654 -184.73621 L -195.2843 -182.44584 C -195.10093 -182.41528 -194.91703 -182.38791 -194.7327 -182.36376 L -166.37906 -178.64846 C -166.13253 -178.61615 -165.88528 -178.5896 -165.63752 -178.56882 L -135.39463 -176.03232 C -135.13773 -176.01077 -134.88034 -175.99544 -134.6227 -175.98633 L -95.69178 -174.60998 C -95.50342 -174.60332 -95.31496 -174.6 -95.12648 -174.6 L -63.659155 -174.6 C -63.49254 -174.6 -63.325934 -174.6026 -63.1594 -174.6078 L -38.124612 -175.39014 C -37.91437 -175.3967 -37.704275 -175.40742 -37.494453 -175.42228 L -15.4467 -176.98318 C -15.288386 -176.99439 -15.130247 -177.00795 -14.972337 -177.02386 L 10.288148 -179.5695 C 10.489888 -179.58983 10.691223 -179.61399 10.892044 -179.64197 L 34.68474 -182.95735 C 34.88875 -182.98578 35.092194 -183.01814 35.294955 -183.05442 L 44.490785 -184.7 C 49.81789 -185.65326 53.46876 -190.6069 52.80234 -195.97745 L 50.594753 -213.76802 C 50.59211 -213.78934 50.589506 -213.81066 50.586946 -213.83199 L 47.023123 -243.5305 C 47.001566 -243.71015 46.98306 -243.89015 46.967606 -244.07042 L 44.60539 -271.62963 C 44.595653 -271.7432 44.58713 -271.85688 44.579827 -271.97064 L 43.19321 -293.56228 C 43.191593 -293.58742 43.18992 -293.61256 43.188185 -293.6377 L 41.596025 -316.724 C 41.59253 -316.77467 41.58928 -316.82534 41.58627 -316.87602 L 40.4099 -336.6782 C 40.39716 -336.8927 40.38874 -337.10745 40.384646 -337.3223 L 39.992363 -357.91715 C 39.99131 -357.9724 39.989973 -358.0276 39.98835 -358.08282 L 39.39322 -378.31717 C 39.391597 -378.3724 39.39026 -378.4276 39.389207 -378.48285 L 38.99855 -398.9924 C 38.993374 -399.2641 38.99512 -399.53587 39.00379 -399.80747 L 39.589735 -418.1671 C 39.590435 -418.18903 39.59118 -418.21097 39.59197 -418.2329 L 40.380054 -440.1022 C 40.38721 -440.3007 40.398057 -440.49907 40.412596 -440.6972 L 41.970073 -461.9178 C 41.98388 -462.1059 41.99436 -462.29427 42.001506 -462.48276 L 42.75596 -482.3816 C 42.77915 -482.9934 42.837437 -483.6033 42.930524 -484.20835 L 45.669526 -502.01187 C 45.75031 -502.53696 45.8572 -503.0577 45.98979 -503.5722 L 50.61806 -521.5298 C 50.733157 -521.9764 50.867506 -522.4178 51.020733 -522.85275 L 56.741516 -539.0924 C 56.907604 -539.5639 57.0957 -540.0273 57.305174 -540.4812 L 62.83673 -552.4662 C 62.93942 -552.6887 63.04721 -552.9088 63.16001 -553.12636 L 68.52223 -563.4678 C 68.56793 -563.5559 68.614455 -563.64364 68.66179 -563.7309 L 73.87777 -573.3479 C 74.61505 -574.70724 75.56468 -575.9401 76.69079 -577 L 76.69079 -577 C 77.365975 -577.6355 77.39817 -578.698 76.7627 -579.37316 C 76.638205 -579.50544 76.49307 -579.6166 76.33295 -579.7024 L 73.11881 -581.4243 C 72.90016 -581.5414 72.67881 -581.65344 72.45494 -581.7603 L 64.60097 -585.5088 C 64.19436 -585.70284 63.77974 -585.87964 63.35821 -586.0387 L 53.683376 -589.6896 C 53.488334 -589.7632 53.29187 -589.833 53.094104 -589.8989 L 40.39963 -594.1304 C 40.260407 -594.1768 40.12055 -594.2213 39.980104 -594.26384 L 27.096582 -598.16794 C 27.02605 -598.1893 26.95567 -598.2112 26.88544 -598.2335 L 14.381445 -602.21206 C 13.987819 -602.3373 13.599191 -602.47775 13.216435 -602.6331 L 1.2404891 -607.4929 C .40882745 -607.83036 -.39296246 -608.2372 -1.1563955 -608.7092 L -10.775645 -614.6556 C -10.931347 -614.75186 -11.085386 -614.8508 -11.237694 -614.9523 L -16.127792 -618.2124 C -17.109186 -618.86665 -17.980502 -619.67255 -18.709216 -620.6 L -18.709216 -620.6 C -18.81482 -620.7344 -19.009384 -620.75775 -19.143788 -620.65215 C -19.24653 -620.5714 -19.287507 -620.4349 -19.246188 -620.3109 L -19.109216 -619.9 C -18.649965 -618.52225 -18.545404 -617.051 -18.805195 -615.6221 L -19.200335 -613.44885 C -19.471545 -611.9572 -19.953392 -610.51165 -20.631418 -609.1556 L -22.163736 -606.09096 C -22.460435 -605.49756 -22.793755 -604.9232 -23.161766 -604.3712 L -26.36547 -599.5656 C -26.79407 -598.9227 -27.26868 -598.3117 -27.78557 -597.7374 L -32.347615 -592.66844 C -32.388682 -592.6228 -32.43001 -592.5774 -32.4716 -592.5323 L -38.465835 -586.02424 C -39.09357 -585.3427 -39.77932 -584.717 -40.515355 -584.1541 L -45.53953 -580.3121 C -45.98568 -579.97094 -46.44948 -579.6535 -46.92901 -579.3611 L -53.41542 -575.406 C -54.077076 -575.0025 -54.76717 -574.6477 -55.480254 -574.34424 L -62.595665 -571.3164 C -63.40333 -570.9727 -64.23791 -570.6961 -65.09095 -570.4893 L -69.170006 -569.5004 C -69.99484 -569.30045 -70.834274 -569.16644 -71.68037 -569.09965 L -77.380575 -568.6496 C -77.79951 -568.61656 -78.21958 -568.6 -78.63981 -568.6 L -85.67213 -568.6 C -86.42923 -568.6 -87.18538 -568.65374 -87.93487 -568.7608 L -95.88132 -569.896 C -96.36633 -569.9653 -96.8479 -570.0568 -97.32451 -570.1703 L -103.28574 -571.58965 C -104.43122 -571.8624 -105.5431 -572.2607 -106.60117 -572.77747 L -112.88118 -575.84444 C -113.36623 -576.0813 -113.83898 -576.3426 -114.29762 -576.6273 L -118.50948 -579.24154 C -119.10865 -579.61344 -119.68258 -580.02454 -120.2275 -580.47216 L -124.67361 -584.1243 C -124.8973 -584.3081 -125.11598 -584.49786 -125.32937 -584.6935 L -129.13172 -588.17896 C -129.58301 -588.59264 -130.01019 -589.0319 -130.41115 -589.4945 L -134.5299 -594.2469 C -134.84928 -594.61545 -135.15164 -594.9984 -135.43605 -595.3945 L -139.8657 -601.5644 C -140.3606 -602.2537 -140.79987 -602.9813 -141.17936 -603.7403 L -143.75582 -608.8932 C -143.79142 -608.9644 -143.82648 -609.03586 -143.86101 -609.1076 L -145.10922 -611.7 C -145.95993 -613.4669 -146.31545 -615.4314 -146.13791 -617.38436 L -145.9577 -619.3666 C -145.9339 -619.6285 -146.12688 -619.86006 -146.38875 -619.88386 C -146.55114 -619.8986 -146.7098 -619.82925 -146.80922 -619.7 L -146.80922 -619.7 C -147.47266 -618.8375 -148.25277 -618.07144 -149.12715 -617.42375 L -153.02368 -614.5374 C -153.14737 -614.4458 -153.27237 -614.356 -153.39864 -614.268 L -158.0209 -611.0464 C -159.20763 -610.2193 -160.50105 -609.5569 -161.8658 -609.0774 L -166.47292 -607.4587 C -166.9635 -607.2863 -167.44537 -607.09016 -167.91684 -606.8709 L -174.76362 -603.6863 C -175.45978 -603.3625 -176.17835 -603.08926 -176.91375 -602.86864 L -187.78414 -599.6075 C -187.80086 -599.6025 -187.81757 -599.59746 -187.83428 -599.5924 L -198.80236 -596.2628 C -198.94026 -596.2209 -199.07759 -596.1772 -199.2143 -596.13164 L -212.13554 -591.82456 C -212.18466 -591.8082 -212.23386 -591.79205 -212.28314 -591.77616 L -223.65054 -588.10925 C -224.28903 -587.9033 -224.91393 -587.6574 -225.52154 -587.37296 L -233.4535 -583.6601 C -233.82384 -583.4868 -234.1874 -583.2993 -234.54338 -583.0981 L -240.4895 -579.73724 C -241.74253 -579.029 -242.18417 -577.4391 -241.47594 -576.18604 C -241.39882 -576.0496 -241.30955 -575.9204 -241.20922 -575.8 L -240.3451 -574.7631 C -239.59016 -573.8571 -238.9377 -572.8705 -238.39957 -571.8212 L -235.32243 -565.82076 C -235.24696 -565.6736 -235.1692 -565.5276 -235.08922 -565.38285 L -231.13446 -558.2266 C -231.05097 -558.07555 -230.96993 -557.9231 -230.89137 -557.7694 L -226.78307 -549.73144 C -226.534 -549.24413 -226.3101 -548.7444 -226.11224 -548.2341 L -222.62947 -539.25224 C -222.61597 -539.2174 -222.60235 -539.18263 -222.5886 -539.1479 L -218.99228 -530.06246 C -218.87027 -529.7542 -218.75787 -529.4423 -218.65524 -529.12706 L -216.0334 -521.0743 C -216.01728 -521.02476 -216.0014 -520.97516 -215.98576 -520.9255 L -212.9137 -511.1672 C -212.71092 -510.52305 -212.54911 -509.8667 -212.42927 -509.2021 L -210.44395 -498.1926 C -210.4208 -498.0642 -210.39921 -497.9355 -210.3792 -497.8066 L -208.67334 -486.8132 C -208.6306 -486.5378 -208.59506 -486.2613 -208.56677 -485.984 L -207.67935 -477.2873 C -207.63262 -476.8293 -207.60567 -476.3695 -207.5986 -475.9092 L -207.41435 -463.9336 C -207.41093 -463.7112 -207.40287 -463.48895 -207.39019 -463.2669 L -206.6198 -449.78535 C -206.61275 -449.6618 -206.60425 -449.5383 -206.59433 -449.41494 L -205.26076 -432.84057 C -205.22641 -432.4137 -205.20922 -431.9856 -205.20922 -431.55736 L -205.20922 -419.1076 C -205.20922 -418.90254 -205.20528 -418.69753 -205.1974 -418.49265 L -204.61705 -403.4035 C -204.61183 -403.26784 -204.60834 -403.1321 -204.60657 -402.99635 L -204.41441 -388.2001 C -204.41095 -387.9334 -204.41416 -387.66667 -204.42403 -387.40014 L -204.99826 -371.896 C -205.00556 -371.69868 -205.00922 -371.50125 -205.00922 -371.3038 L -205.00922 -357.70757 C -205.00922 -357.50254 -205.01316 -357.29753 -205.02104 -357.09264 L -205.60623 -341.87764 C -205.60822 -341.82588 -205.61047 -341.77412 -205.61296 -341.7224 L -206.40828 -325.21945 C -206.4089 -325.20648 -206.40955 -325.1935 -206.4102 -325.18055 L -207.2047 -309.48938 C -207.2077 -309.4298 -207.21106 -309.37022 -207.21474 -309.31067 L -208.40366 -290.08993 C -208.40736 -290.02997 -208.4114 -289.97004 -208.4158 -289.91013 L -210.19893 -265.54058 C -210.2058 -265.44686 -210.21347 -265.3532 -210.22198 -265.2596 L -212.00787 -245.6148 C -212.00877 -245.60493 -212.00968 -245.59506 -212.0106 -245.5852 L -213.78136 -226.50028 C -213.79993 -226.3001 -213.82227 -226.1003 -213.84838 -225.90097 L -215.8091 -210.92825 C -215.9419 -209.91406 -216.21104 -208.92244 -216.60922 -207.98027 L -216.60922 -207.98027 C -217.0068 -207.03952 -217.25546 -206.0426 -217.34629 -205.02535 L -218.10922 -196.48027 C -218.61698 -190.79324 -214.6585 -185.67488 -209.02654 -184.73621 Z" fill="#000097"/>
      <path d="M -209.02654 -184.73621 L -195.2843 -182.44584 C -195.10093 -182.41528 -194.91703 -182.38791 -194.7327 -182.36376 L -166.37906 -178.64846 C -166.13253 -178.61615 -165.88528 -178.5896 -165.63752 -178.56882 L -135.39463 -176.03232 C -135.13773 -176.01077 -134.88034 -175.99544 -134.6227 -175.98633 L -95.69178 -174.60998 C -95.50342 -174.60332 -95.31496 -174.6 -95.12648 -174.6 L -63.659155 -174.6 C -63.49254 -174.6 -63.325934 -174.6026 -63.1594 -174.6078 L -38.124612 -175.39014 C -37.91437 -175.3967 -37.704275 -175.40742 -37.494453 -175.42228 L -15.4467 -176.98318 C -15.288386 -176.99439 -15.130247 -177.00795 -14.972337 -177.02386 L 10.288148 -179.5695 C 10.489888 -179.58983 10.691223 -179.61399 10.892044 -179.64197 L 34.68474 -182.95735 C 34.88875 -182.98578 35.092194 -183.01814 35.294955 -183.05442 L 44.490785 -184.7 C 49.81789 -185.65326 53.46876 -190.6069 52.80234 -195.97745 L 50.594753 -213.76802 C 50.59211 -213.78934 50.589506 -213.81066 50.586946 -213.83199 L 47.023123 -243.5305 C 47.001566 -243.71015 46.98306 -243.89015 46.967606 -244.07042 L 44.60539 -271.62963 C 44.595653 -271.7432 44.58713 -271.85688 44.579827 -271.97064 L 43.19321 -293.56228 C 43.191593 -293.58742 43.18992 -293.61256 43.188185 -293.6377 L 41.596025 -316.724 C 41.59253 -316.77467 41.58928 -316.82534 41.58627 -316.87602 L 40.4099 -336.6782 C 40.39716 -336.8927 40.38874 -337.10745 40.384646 -337.3223 L 39.992363 -357.91715 C 39.99131 -357.9724 39.989973 -358.0276 39.98835 -358.08282 L 39.39322 -378.31717 C 39.391597 -378.3724 39.39026 -378.4276 39.389207 -378.48285 L 38.99855 -398.9924 C 38.993374 -399.2641 38.99512 -399.53587 39.00379 -399.80747 L 39.589735 -418.1671 C 39.590435 -418.18903 39.59118 -418.21097 39.59197 -418.2329 L 40.380054 -440.1022 C 40.38721 -440.3007 40.398057 -440.49907 40.412596 -440.6972 L 41.970073 -461.9178 C 41.98388 -462.1059 41.99436 -462.29427 42.001506 -462.48276 L 42.75596 -482.3816 C 42.77915 -482.9934 42.837437 -483.6033 42.930524 -484.20835 L 45.669526 -502.01187 C 45.75031 -502.53696 45.8572 -503.0577 45.98979 -503.5722 L 50.61806 -521.5298 C 50.733157 -521.9764 50.867506 -522.4178 51.020733 -522.85275 L 56.741516 -539.0924 C 56.907604 -539.5639 57.0957 -540.0273 57.305174 -540.4812 L 62.83673 -552.4662 C 62.93942 -552.6887 63.04721 -552.9088 63.16001 -553.12636 L 68.52223 -563.4678 C 68.56793 -563.5559 68.614455 -563.64364 68.66179 -563.7309 L 73.87777 -573.3479 C 74.61505 -574.70724 75.56468 -575.9401 76.69079 -577 L 76.69079 -577 C 77.365975 -577.6355 77.39817 -578.698 76.7627 -579.37316 C 76.638205 -579.50544 76.49307 -579.6166 76.33295 -579.7024 L 73.11881 -581.4243 C 72.90016 -581.5414 72.67881 -581.65344 72.45494 -581.7603 L 64.60097 -585.5088 C 64.19436 -585.70284 63.77974 -585.87964 63.35821 -586.0387 L 53.683376 -589.6896 C 53.488334 -589.7632 53.29187 -589.833 53.094104 -589.8989 L 40.39963 -594.1304 C 40.260407 -594.1768 40.12055 -594.2213 39.980104 -594.26384 L 27.096582 -598.16794 C 27.02605 -598.1893 26.95567 -598.2112 26.88544 -598.2335 L 14.381445 -602.21206 C 13.987819 -602.3373 13.599191 -602.47775 13.216435 -602.6331 L 1.2404891 -607.4929 C .40882745 -607.83036 -.39296246 -608.2372 -1.1563955 -608.7092 L -10.775645 -614.6556 C -10.931347 -614.75186 -11.085386 -614.8508 -11.237694 -614.9523 L -16.127792 -618.2124 C -17.109186 -618.86665 -17.980502 -619.67255 -18.709216 -620.6 L -18.709216 -620.6 C -18.81482 -620.7344 -19.009384 -620.75775 -19.143788 -620.65215 C -19.24653 -620.5714 -19.287507 -620.4349 -19.246188 -620.3109 L -19.109216 -619.9 C -18.649965 -618.52225 -18.545404 -617.051 -18.805195 -615.6221 L -19.200335 -613.44885 C -19.471545 -611.9572 -19.953392 -610.51165 -20.631418 -609.1556 L -22.163736 -606.09096 C -22.460435 -605.49756 -22.793755 -604.9232 -23.161766 -604.3712 L -26.36547 -599.5656 C -26.79407 -598.9227 -27.26868 -598.3117 -27.78557 -597.7374 L -32.347615 -592.66844 C -32.388682 -592.6228 -32.43001 -592.5774 -32.4716 -592.5323 L -38.465835 -586.02424 C -39.09357 -585.3427 -39.77932 -584.717 -40.515355 -584.1541 L -45.53953 -580.3121 C -45.98568 -579.97094 -46.44948 -579.6535 -46.92901 -579.3611 L -53.41542 -575.406 C -54.077076 -575.0025 -54.76717 -574.6477 -55.480254 -574.34424 L -62.595665 -571.3164 C -63.40333 -570.9727 -64.23791 -570.6961 -65.09095 -570.4893 L -69.170006 -569.5004 C -69.99484 -569.30045 -70.834274 -569.16644 -71.68037 -569.09965 L -77.380575 -568.6496 C -77.79951 -568.61656 -78.21958 -568.6 -78.63981 -568.6 L -85.67213 -568.6 C -86.42923 -568.6 -87.18538 -568.65374 -87.93487 -568.7608 L -95.88132 -569.896 C -96.36633 -569.9653 -96.8479 -570.0568 -97.32451 -570.1703 L -103.28574 -571.58965 C -104.43122 -571.8624 -105.5431 -572.2607 -106.60117 -572.77747 L -112.88118 -575.84444 C -113.36623 -576.0813 -113.83898 -576.3426 -114.29762 -576.6273 L -118.50948 -579.24154 C -119.10865 -579.61344 -119.68258 -580.02454 -120.2275 -580.47216 L -124.67361 -584.1243 C -124.8973 -584.3081 -125.11598 -584.49786 -125.32937 -584.6935 L -129.13172 -588.17896 C -129.58301 -588.59264 -130.01019 -589.0319 -130.41115 -589.4945 L -134.5299 -594.2469 C -134.84928 -594.61545 -135.15164 -594.9984 -135.43605 -595.3945 L -139.8657 -601.5644 C -140.3606 -602.2537 -140.79987 -602.9813 -141.17936 -603.7403 L -143.75582 -608.8932 C -143.79142 -608.9644 -143.82648 -609.03586 -143.86101 -609.1076 L -145.10922 -611.7 C -145.95993 -613.4669 -146.31545 -615.4314 -146.13791 -617.38436 L -145.9577 -619.3666 C -145.9339 -619.6285 -146.12688 -619.86006 -146.38875 -619.88386 C -146.55114 -619.8986 -146.7098 -619.82925 -146.80922 -619.7 L -146.80922 -619.7 C -147.47266 -618.8375 -148.25277 -618.07144 -149.12715 -617.42375 L -153.02368 -614.5374 C -153.14737 -614.4458 -153.27237 -614.356 -153.39864 -614.268 L -158.0209 -611.0464 C -159.20763 -610.2193 -160.50105 -609.5569 -161.8658 -609.0774 L -166.47292 -607.4587 C -166.9635 -607.2863 -167.44537 -607.09016 -167.91684 -606.8709 L -174.76362 -603.6863 C -175.45978 -603.3625 -176.17835 -603.08926 -176.91375 -602.86864 L -187.78414 -599.6075 C -187.80086 -599.6025 -187.81757 -599.59746 -187.83428 -599.5924 L -198.80236 -596.2628 C -198.94026 -596.2209 -199.07759 -596.1772 -199.2143 -596.13164 L -212.13554 -591.82456 C -212.18466 -591.8082 -212.23386 -591.79205 -212.28314 -591.77616 L -223.65054 -588.10925 C -224.28903 -587.9033 -224.91393 -587.6574 -225.52154 -587.37296 L -233.4535 -583.6601 C -233.82384 -583.4868 -234.1874 -583.2993 -234.54338 -583.0981 L -240.4895 -579.73724 C -241.74253 -579.029 -242.18417 -577.4391 -241.47594 -576.18604 C -241.39882 -576.0496 -241.30955 -575.9204 -241.20922 -575.8 L -240.3451 -574.7631 C -239.59016 -573.8571 -238.9377 -572.8705 -238.39957 -571.8212 L -235.32243 -565.82076 C -235.24696 -565.6736 -235.1692 -565.5276 -235.08922 -565.38285 L -231.13446 -558.2266 C -231.05097 -558.07555 -230.96993 -557.9231 -230.89137 -557.7694 L -226.78307 -549.73144 C -226.534 -549.24413 -226.3101 -548.7444 -226.11224 -548.2341 L -222.62947 -539.25224 C -222.61597 -539.2174 -222.60235 -539.18263 -222.5886 -539.1479 L -218.99228 -530.06246 C -218.87027 -529.7542 -218.75787 -529.4423 -218.65524 -529.12706 L -216.0334 -521.0743 C -216.01728 -521.02476 -216.0014 -520.97516 -215.98576 -520.9255 L -212.9137 -511.1672 C -212.71092 -510.52305 -212.54911 -509.8667 -212.42927 -509.2021 L -210.44395 -498.1926 C -210.4208 -498.0642 -210.39921 -497.9355 -210.3792 -497.8066 L -208.67334 -486.8132 C -208.6306 -486.5378 -208.59506 -486.2613 -208.56677 -485.984 L -207.67935 -477.2873 C -207.63262 -476.8293 -207.60567 -476.3695 -207.5986 -475.9092 L -207.41435 -463.9336 C -207.41093 -463.7112 -207.40287 -463.48895 -207.39019 -463.2669 L -206.6198 -449.78535 C -206.61275 -449.6618 -206.60425 -449.5383 -206.59433 -449.41494 L -205.26076 -432.84057 C -205.22641 -432.4137 -205.20922 -431.9856 -205.20922 -431.55736 L -205.20922 -419.1076 C -205.20922 -418.90254 -205.20528 -418.69753 -205.1974 -418.49265 L -204.61705 -403.4035 C -204.61183 -403.26784 -204.60834 -403.1321 -204.60657 -402.99635 L -204.41441 -388.2001 C -204.41095 -387.9334 -204.41416 -387.66667 -204.42403 -387.40014 L -204.99826 -371.896 C -205.00556 -371.69868 -205.00922 -371.50125 -205.00922 -371.3038 L -205.00922 -357.70757 C -205.00922 -357.50254 -205.01316 -357.29753 -205.02104 -357.09264 L -205.60623 -341.87764 C -205.60822 -341.82588 -205.61047 -341.77412 -205.61296 -341.7224 L -206.40828 -325.21945 C -206.4089 -325.20648 -206.40955 -325.1935 -206.4102 -325.18055 L -207.2047 -309.48938 C -207.2077 -309.4298 -207.21106 -309.37022 -207.21474 -309.31067 L -208.40366 -290.08993 C -208.40736 -290.02997 -208.4114 -289.97004 -208.4158 -289.91013 L -210.19893 -265.54058 C -210.2058 -265.44686 -210.21347 -265.3532 -210.22198 -265.2596 L -212.00787 -245.6148 C -212.00877 -245.60493 -212.00968 -245.59506 -212.0106 -245.5852 L -213.78136 -226.50028 C -213.79993 -226.3001 -213.82227 -226.1003 -213.84838 -225.90097 L -215.8091 -210.92825 C -215.9419 -209.91406 -216.21104 -208.92244 -216.60922 -207.98027 L -216.60922 -207.98027 C -217.0068 -207.03952 -217.25546 -206.0426 -217.34629 -205.02535 L -218.10922 -196.48027 C -218.61698 -190.79324 -214.6585 -185.67488 -209.02654 -184.73621 Z" stroke="#7f8080" stroke-linecap="round" stroke-linejoin="round" stroke-width="1"/>
      <path d="M -298 -470.55385 L -291.8 -466.15385 L -283.6 -462.15385 L -275 -458.55385 L -266 -454.75385 L -255 -450.75385 L -245.6 -447.95385 L -236.6 -445.35385 L -227.6 -442.75385 L -222.2 -441.35385 L -216.6 -440.35385 L -214.2 -446.15385 L -211.6 -451.55385 L -209.4 -455.55385 L -206.8 -458.95385 L -206.6 -467.95385 L -207.2 -478.95385 L -209 -489.75385 L -210.6 -500.15385 L -213.2 -511.15386 L -215.6 -520.75386 L -218.4 -528.75386 L -221.6 -538.15386 L -224.4 -545.55386 L -228 -553.15386 L -232 -560.75386 L -236 -568.15386 L -238.6 -571.75386 L -242.2 -577.55386 L -247.6 -573.15386 L -252.4 -568.35386 L -257 -562.15386 L -261.4 -555.95386 L -266.2 -547.35386 L -271 -537.95386 L -275.8 -528.75386 L -279.4 -520.15386 L -283.4 -511.15386 L -286.6 -502.95385 L -290.4 -493.55385 L -293.2 -485.55385 L -296.2 -477.15385 Z" fill="#00008c"/>
      <path d="M -298 -470.55385 L -291.8 -466.15385 L -283.6 -462.15385 L -275 -458.55385 L -266 -454.75385 L -255 -450.75385 L -245.6 -447.95385 L -236.6 -445.35385 L -227.6 -442.75385 L -222.2 -441.35385 L -216.6 -440.35385 L -214.2 -446.15385 L -211.6 -451.55385 L -209.4 -455.55385 L -206.8 -458.95385 L -206.6 -467.95385 L -207.2 -478.95385 L -209 -489.75385 L -210.6 -500.15385 L -213.2 -511.15386 L -215.6 -520.75386 L -218.4 -528.75386 L -221.6 -538.15386 L -224.4 -545.55386 L -228 -553.15386 L -232 -560.75386 L -236 -568.15386 L -238.6 -571.75386 L -242.2 -577.55386 L -247.6 -573.15386 L -252.4 -568.35386 L -257 -562.15386 L -261.4 -555.95386 L -266.2 -547.35386 L -271 -537.95386 L -275.8 -528.75386 L -279.4 -520.15386 L -283.4 -511.15386 L -286.6 -502.95385 L -290.4 -493.55385 L -293.2 -485.55385 L -296.2 -477.15385 Z" stroke="#7f8080" stroke-linecap="round" stroke-linejoin="round" stroke-width="1"/>
      <path d="M 133.40529 -471.49725 L 127.20529 -467.09725 L 119.00529 -463.09725 L 110.40529 -459.49725 L 101.40529 -455.69725 L 90.40529 -451.69725 L 81.00529 -448.89725 L 72.00529 -446.29725 L 63.00529 -443.69725 L 57.60529 -442.29725 L 52.00529 -441.29725 L 49.60529 -447.09725 L 47.00529 -452.49725 L 44.80529 -456.49725 L 42.20529 -459.89725 L 42.00529 -468.89725 L 42.60529 -479.89725 L 44.40529 -490.69725 L 46.00529 -501.09725 L 48.60529 -512.09725 L 51.00529 -521.69725 L 53.80529 -529.69725 L 57.00529 -539.09725 L 59.80529 -546.49725 L 63.40529 -554.09725 L 67.40529 -561.69725 L 71.40529 -569.09725 L 74.00529 -572.69725 L 77.60529 -578.49725 L 83.00529 -574.09725 L 87.80529 -569.29725 L 92.40529 -563.09725 L 96.80529 -556.89725 L 101.60529 -548.29725 L 106.40529 -538.89725 L 111.20529 -529.69725 L 114.80529 -521.09725 L 118.80529 -512.09725 L 122.00529 -503.89725 L 125.80529 -494.49725 L 128.60529 -486.49725 L 131.60529 -478.09725 Z" fill="#00008c"/>
      <path d="M 133.40529 -471.49725 L 127.20529 -467.09725 L 119.00529 -463.09725 L 110.40529 -459.49725 L 101.40529 -455.69725 L 90.40529 -451.69725 L 81.00529 -448.89725 L 72.00529 -446.29725 L 63.00529 -443.69725 L 57.60529 -442.29725 L 52.00529 -441.29725 L 49.60529 -447.09725 L 47.00529 -452.49725 L 44.80529 -456.49725 L 42.20529 -459.89725 L 42.00529 -468.89725 L 42.60529 -479.89725 L 44.40529 -490.69725 L 46.00529 -501.09725 L 48.60529 -512.09725 L 51.00529 -521.69725 L 53.80529 -529.69725 L 57.00529 -539.09725 L 59.80529 -546.49725 L 63.40529 -554.09725 L 67.40529 -561.69725 L 71.40529 -569.09725 L 74.00529 -572.69725 L 77.60529 -578.49725 L 83.00529 -574.09725 L 87.80529 -569.29725 L 92.40529 -563.09725 L 96.80529 -556.89725 L 101.60529 -548.29725 L 106.40529 -538.89725 L 111.20529 -529.69725 L 114.80529 -521.09725 L 118.80529 -512.09725 L 122.00529 -503.89725 L 125.80529 -494.49725 L 128.60529 -486.49725 L 131.60529 -478.09725 Z" stroke="#7f8080" stroke-linecap="round" stroke-linejoin="round" stroke-width="1"/>
      <path d="M -298 -470.55385 L -291.8 -466.15385 L -283.6 -462.15385 L -275 -458.55385 L -266 -454.75385 L -255 -450.75385 L -245.6 -447.95385 L -236.6 -445.35385 L -227.6 -442.75385 L -222.2 -441.35385 L -216.6 -440.35385 L -213.6 -446.75385 L -217.4 -447.55385 L -222.2 -448.75385 L -227.8 -449.95385 L -233.8 -451.75385 L -238.4 -453.15385 L -242.6 -454.35385 L -247.2 -456.35385 L -251.8 -457.95385 L -256.6 -459.95385 L -260.6 -461.35385 L -265.8 -463.55385 L -270.4 -465.15385 L -275.2 -467.35385 L -280 -469.15385 L -284 -471.15385 L -288.4 -473.35385 L -292.8 -475.55385 L -296.2 -477.15385 Z" fill="url(#Obj_Gradient_2)"/>
      <path d="M -298 -470.55385 L -291.8 -466.15385 L -283.6 -462.15385 L -275 -458.55385 L -266 -454.75385 L -255 -450.75385 L -245.6 -447.95385 L -236.6 -445.35385 L -227.6 -442.75385 L -222.2 -441.35385 L -216.6 -440.35385 L -213.6 -446.75385 L -217.4 -447.55385 L -222.2 -448.75385 L -227.8 -449.95385 L -233.8 -451.75385 L -238.4 -453.15385 L -242.6 -454.35385 L -247.2 -456.35385 L -251.8 -457.95385 L -256.6 -459.95385 L -260.6 -461.35385 L -265.8 -463.55385 L -270.4 -465.15385 L -275.2 -467.35385 L -280 -469.15385 L -284 -471.15385 L -288.4 -473.35385 L -292.8 -475.55385 L -296.2 -477.15385 Z" stroke="#7f8080" stroke-linecap="round" stroke-linejoin="round" stroke-width="1"/>
      <path d="M 133.40529 -471.49725 L 127.20529 -467.09725 L 119.00529 -463.09725 L 110.40529 -459.49725 L 101.40529 -455.69725 L 90.40529 -451.69725 L 81.00529 -448.89725 L 72.00529 -446.29725 L 63.00529 -443.69725 L 57.60529 -442.29725 L 52.00529 -441.29725 L 49.00529 -447.69725 L 52.80529 -448.49725 L 57.60529 -449.69725 L 63.20529 -450.89725 L 69.20529 -452.69725 L 73.80529 -454.09725 L 78.00529 -455.29725 L 82.60529 -457.29725 L 87.20529 -458.89725 L 92.00529 -460.89725 L 96.00529 -462.29725 L 101.20529 -464.49725 L 105.80529 -466.09725 L 110.60529 -468.29725 L 115.40529 -470.09725 L 119.40529 -472.09725 L 123.80529 -474.29725 L 128.20529 -476.49725 L 131.60529 -478.09725 Z" fill="url(#Obj_Gradient_3)"/>
      <path d="M 133.40529 -471.49725 L 127.20529 -467.09725 L 119.00529 -463.09725 L 110.40529 -459.49725 L 101.40529 -455.69725 L 90.40529 -451.69725 L 81.00529 -448.89725 L 72.00529 -446.29725 L 63.00529 -443.69725 L 57.60529 -442.29725 L 52.00529 -441.29725 L 49.00529 -447.69725 L 52.80529 -448.49725 L 57.60529 -449.69725 L 63.20529 -450.89725 L 69.20529 -452.69725 L 73.80529 -454.09725 L 78.00529 -455.29725 L 82.60529 -457.29725 L 87.20529 -458.89725 L 92.00529 -460.89725 L 96.00529 -462.29725 L 101.20529 -464.49725 L 105.80529 -466.09725 L 110.60529 -468.29725 L 115.40529 -470.09725 L 119.40529 -472.09725 L 123.80529 -474.29725 L 128.20529 -476.49725 L 131.60529 -478.09725 Z" stroke="#7f8080" stroke-linecap="round" stroke-linejoin="round" stroke-width="1"/>
      <path d="M -147.94075 -620.2441 L -142.54075 -620.8441 L -135.74075 -617.4441 L -130.74075 -615.6441 L -122.34075 -613.8441 L -113.94075 -612.8441 L -105.94075 -611.8441 L -98.34075 -611.6441 L -89.74075 -611.2441 L -78.14075 -611.4441 L -69.74075 -611.8441 L -60.34075 -612.4441 L -51.94075 -613.2441 L -42.74075 -614.6441 L -34.54075 -616.8441 L -28.74075 -618.6441 L -23.14075 -621.2441 L -20.34075 -620.0441 L -19.94075 -614.4441 L -22.74075 -606.4441 L -28.14075 -603.6441 L -38.74075 -600.4441 L -50.14075 -598.0441 L -61.34075 -597.2441 L -73.74075 -596.2441 L -84.14075 -596.2441 L -93.54075 -596.2441 L -105.14075 -596.8441 L -116.34075 -597.6441 L -126.94075 -599.8441 L -135.54075 -601.8441 L -141.74075 -604.6441 L -143.74075 -606.2441 L -146.94075 -613.8441 Z" fill="url(#Obj_Gradient_4)"/>
      <path d="M -147.94075 -620.2441 L -142.54075 -620.8441 L -135.74075 -617.4441 L -130.74075 -615.6441 L -122.34075 -613.8441 L -113.94075 -612.8441 L -105.94075 -611.8441 L -98.34075 -611.6441 L -89.74075 -611.2441 L -78.14075 -611.4441 L -69.74075 -611.8441 L -60.34075 -612.4441 L -51.94075 -613.2441 L -42.74075 -614.6441 L -34.54075 -616.8441 L -28.74075 -618.6441 L -23.14075 -621.2441 L -20.34075 -620.0441 L -19.94075 -614.4441 L -22.74075 -606.4441 L -28.14075 -603.6441 L -38.74075 -600.4441 L -50.14075 -598.0441 L -61.34075 -597.2441 L -73.74075 -596.2441 L -84.14075 -596.2441 L -93.54075 -596.2441 L -105.14075 -596.8441 L -116.34075 -597.6441 L -126.94075 -599.8441 L -135.54075 -601.8441 L -141.74075 -604.6441 L -143.74075 -606.2441 L -146.94075 -613.8441 Z" stroke="#7f8080" stroke-linecap="round" stroke-linejoin="round" stroke-width="1"/>
      <path d="M -218.18679 -194.8 L -218.18679 -194.8 C -218.25247 -194.27451 -218.18964 -193.74095 -218.0037 -193.2451 L -217.3527 -191.50908 C -217.17594 -191.03773 -216.94885 -190.58682 -216.67538 -190.16418 L -215.70757 -188.66847 C -215.1666 -187.83244 -214.4535 -187.12145 -213.61588 -186.58298 L -212.53783 -185.88995 C -212.23757 -185.69693 -211.923 -185.52715 -211.59684 -185.38211 L -210.28 -184.79651 C -209.68346 -184.53124 -209.05275 -184.35072 -208.4062 -184.2602 L -199.39579 -182.99874 C -199.3858 -182.99735 -199.3758 -182.99597 -199.3658 -182.99461 L -187.6498 -181.406 C -187.6038 -181.39976 -187.55774 -181.39399 -187.51162 -181.38866 L -177.22869 -180.20217 C -177.19676 -180.19849 -177.1648 -180.19502 -177.13284 -180.19178 L -163.42277 -178.8009 C -163.39479 -178.79807 -163.36679 -178.7954 -163.33877 -178.7929 L -152.23347 -177.80135 C -152.19836 -177.79821 -152.16321 -177.79534 -152.12805 -177.79274 L -141.44152 -177.00114 C -141.40104 -176.99815 -141.36053 -176.9955 -141.32 -176.9932 L -130.81202 -176.39841 C -130.7912 -176.39724 -130.77039 -176.39596 -130.74958 -176.3946 L -118.7068 -175.6049 C -118.6228 -175.5994 -118.53871 -175.5954 -118.45457 -175.59293 L -105.00744 -175.19743 C -104.98968 -175.1969 -104.97191 -175.19632 -104.95415 -175.19566 L -94.31029 -174.80144 C -94.22397 -174.79824 -94.13759 -174.79665 -94.05121 -174.79665 L -83.44219 -174.79665 C -83.40126 -174.79665 -83.36033 -174.79629 -83.31941 -174.79557 L -72.23298 -174.60107 C -72.06491 -174.59812 -71.89679 -174.60123 -71.72894 -174.61038 L -61.10771 -175.18972 C -61.02311 -175.19434 -60.938426 -175.19742 -60.85371 -175.19896 L -50.08915 -175.39468 C -50.016917 -175.39599 -49.94471 -175.39842 -49.872553 -175.40197 L -37.85393 -175.99305 C -37.805173 -175.99545 -37.756445 -175.99835 -37.70775 -176.00177 L -26.467704 -176.79055 C -26.409766 -176.79461 -26.35188 -176.7994 -26.294063 -176.8049 L -13.883487 -177.98687 C -13.815029 -177.99339 -13.746478 -177.9989 -13.677856 -178.0034 L -1.7458364 -178.78582 C -1.6358231 -178.79304 -1.5259957 -178.80285 -1.416446 -178.81525 L 8.995901 -179.994 C 9.011438 -179.99577 9.026969 -179.99758 9.042494 -179.99944 L 18.990206 -181.19317 C 19.00954 -181.19549 19.028864 -181.19789 19.048178 -181.20037 L 32.88394 -182.9779 C 32.981155 -182.9904 33.078095 -183.00493 33.1747 -183.02149 L 39.728186 -184.14494 C 39.92915 -184.1794 40.131526 -184.20505 40.33473 -184.22183 L 43.56706 -184.4888 C 44.456297 -184.56225 45.32329 -184.80503 46.121355 -185.20406 L 47.60765 -185.9472 C 48.208236 -186.2475 48.76249 -186.63265 49.25338 -187.0908 L 50.5885 -188.33692 C 51.19532 -188.90328 51.65073 -189.61253 51.91322 -190.4 L 52.208046 -191.28448 C 52.27812 -191.4947 52.338174 -191.70813 52.388 -191.92405 L 52.857707 -193.95944 C 52.89293 -194.11208 52.85949 -194.27248 52.76621 -194.39832 L 52.76621 -194.39832 C 52.67587 -194.5202 52.52523 -194.5817 52.375404 -194.55786 L 43.895547 -193.2088 C 43.844655 -193.2007 43.793855 -193.19204 43.743154 -193.18282 L 30.75839 -190.82195 C 30.66561 -190.80508 30.5725 -190.7901 30.479114 -190.77698 L 19.24943 -189.20089 C 19.229282 -189.19806 19.209145 -189.19514 19.18902 -189.19214 L 6.066433 -187.23355 C 5.901668 -187.20895 5.7360776 -187.19025 5.569978 -187.17747 L -7.1548345 -186.19864 C -7.1721405 -186.19731 -7.189451 -186.19604 -7.206767 -186.19484 L -21.546917 -185.199 C -21.5695 -185.19743 -21.592093 -185.19597 -21.614692 -185.19462 L -34.917946 -184.4004 C -34.959844 -184.3979 -35.001763 -184.39577 -35.0437 -184.39403 L -49.23515 -183.80271 C -49.332236 -183.79867 -49.429395 -183.79665 -49.526564 -183.79665 L -62.780794 -183.79665 L -75.322465 -183.79665 C -75.36135 -183.79665 -75.40024 -183.79632 -75.43912 -183.79567 L -87.1975 -183.5997 C -87.31968 -183.59766 -87.44188 -183.59883 -87.56399 -183.60319 L -98.3976 -183.9901 C -98.51971 -183.99446 -98.64191 -183.99563 -98.76409 -183.9936 L -110.47873 -183.79835 C -110.54677 -183.79721 -110.61482 -183.79707 -110.68287 -183.79792 L -126.38516 -183.9942 C -126.51556 -183.99583 -126.64589 -184.0011 -126.776 -184.01002 L -141.08577 -184.99014 C -141.14912 -184.99448 -141.2124 -184.99968 -141.2756 -185.00574 L -155.76661 -186.39529 C -155.77607 -186.3962 -155.78552 -186.39712 -155.79497 -186.39806 L -169.607 -187.77927 C -169.72285 -187.79085 -169.83838 -187.80532 -169.9535 -187.82267 L -184.26265 -189.97884 C -184.3414 -189.9907 -184.42036 -190.00123 -184.49948 -190.0104 L -198.0194 -191.57793 C -198.12699 -191.5904 -198.23426 -191.60537 -198.34114 -191.62282 L -207.73323 -193.15623 C -207.89822 -193.18316 -208.0622 -193.216 -208.22484 -193.25468 L -217.30244 -195.41346 C -217.69075 -195.5058 -218.0804 -195.26588 -218.17276 -194.87756 C -218.17884 -194.85198 -218.18353 -194.82608 -218.18679 -194.8 Z" fill="url(#Obj_Gradient_5)"/>
      <path d="M -218.18679 -194.8 L -218.18679 -194.8 C -218.25247 -194.27451 -218.18964 -193.74095 -218.0037 -193.2451 L -217.3527 -191.50908 C -217.17594 -191.03773 -216.94885 -190.58682 -216.67538 -190.16418 L -215.70757 -188.66847 C -215.1666 -187.83244 -214.4535 -187.12145 -213.61588 -186.58298 L -212.53783 -185.88995 C -212.23757 -185.69693 -211.923 -185.52715 -211.59684 -185.38211 L -210.28 -184.79651 C -209.68346 -184.53124 -209.05275 -184.35072 -208.4062 -184.2602 L -199.39579 -182.99874 C -199.3858 -182.99735 -199.3758 -182.99597 -199.3658 -182.99461 L -187.6498 -181.406 C -187.6038 -181.39976 -187.55774 -181.39399 -187.51162 -181.38866 L -177.22869 -180.20217 C -177.19676 -180.19849 -177.1648 -180.19502 -177.13284 -180.19178 L -163.42277 -178.8009 C -163.39479 -178.79807 -163.36679 -178.7954 -163.33877 -178.7929 L -152.23347 -177.80135 C -152.19836 -177.79821 -152.16321 -177.79534 -152.12805 -177.79274 L -141.44152 -177.00114 C -141.40104 -176.99815 -141.36053 -176.9955 -141.32 -176.9932 L -130.81202 -176.39841 C -130.7912 -176.39724 -130.77039 -176.39596 -130.74958 -176.3946 L -118.7068 -175.6049 C -118.6228 -175.5994 -118.53871 -175.5954 -118.45457 -175.59293 L -105.00744 -175.19743 C -104.98968 -175.1969 -104.97191 -175.19632 -104.95415 -175.19566 L -94.31029 -174.80144 C -94.22397 -174.79824 -94.13759 -174.79665 -94.05121 -174.79665 L -83.44219 -174.79665 C -83.40126 -174.79665 -83.36033 -174.79629 -83.31941 -174.79557 L -72.23298 -174.60107 C -72.06491 -174.59812 -71.89679 -174.60123 -71.72894 -174.61038 L -61.10771 -175.18972 C -61.02311 -175.19434 -60.938426 -175.19742 -60.85371 -175.19896 L -50.08915 -175.39468 C -50.016917 -175.39599 -49.94471 -175.39842 -49.872553 -175.40197 L -37.85393 -175.99305 C -37.805173 -175.99545 -37.756445 -175.99835 -37.70775 -176.00177 L -26.467704 -176.79055 C -26.409766 -176.79461 -26.35188 -176.7994 -26.294063 -176.8049 L -13.883487 -177.98687 C -13.815029 -177.99339 -13.746478 -177.9989 -13.677856 -178.0034 L -1.7458364 -178.78582 C -1.6358231 -178.79304 -1.5259957 -178.80285 -1.416446 -178.81525 L 8.995901 -179.994 C 9.011438 -179.99577 9.026969 -179.99758 9.042494 -179.99944 L 18.990206 -181.19317 C 19.00954 -181.19549 19.028864 -181.19789 19.048178 -181.20037 L 32.88394 -182.9779 C 32.981155 -182.9904 33.078095 -183.00493 33.1747 -183.02149 L 39.728186 -184.14494 C 39.92915 -184.1794 40.131526 -184.20505 40.33473 -184.22183 L 43.56706 -184.4888 C 44.456297 -184.56225 45.32329 -184.80503 46.121355 -185.20406 L 47.60765 -185.9472 C 48.208236 -186.2475 48.76249 -186.63265 49.25338 -187.0908 L 50.5885 -188.33692 C 51.19532 -188.90328 51.65073 -189.61253 51.91322 -190.4 L 52.208046 -191.28448 C 52.27812 -191.4947 52.338174 -191.70813 52.388 -191.92405 L 52.857707 -193.95944 C 52.89293 -194.11208 52.85949 -194.27248 52.76621 -194.39832 L 52.76621 -194.39832 C 52.67587 -194.5202 52.52523 -194.5817 52.375404 -194.55786 L 43.895547 -193.2088 C 43.844655 -193.2007 43.793855 -193.19204 43.743154 -193.18282 L 30.75839 -190.82195 C 30.66561 -190.80508 30.5725 -190.7901 30.479114 -190.77698 L 19.24943 -189.20089 C 19.229282 -189.19806 19.209145 -189.19514 19.18902 -189.19214 L 6.066433 -187.23355 C 5.901668 -187.20895 5.7360776 -187.19025 5.569978 -187.17747 L -7.1548345 -186.19864 C -7.1721405 -186.19731 -7.189451 -186.19604 -7.206767 -186.19484 L -21.546917 -185.199 C -21.5695 -185.19743 -21.592093 -185.19597 -21.614692 -185.19462 L -34.917946 -184.4004 C -34.959844 -184.3979 -35.001763 -184.39577 -35.0437 -184.39403 L -49.23515 -183.80271 C -49.332236 -183.79867 -49.429395 -183.79665 -49.526564 -183.79665 L -62.780794 -183.79665 L -75.322465 -183.79665 C -75.36135 -183.79665 -75.40024 -183.79632 -75.43912 -183.79567 L -87.1975 -183.5997 C -87.31968 -183.59766 -87.44188 -183.59883 -87.56399 -183.60319 L -98.3976 -183.9901 C -98.51971 -183.99446 -98.64191 -183.99563 -98.76409 -183.9936 L -110.47873 -183.79835 C -110.54677 -183.79721 -110.61482 -183.79707 -110.68287 -183.79792 L -126.38516 -183.9942 C -126.51556 -183.99583 -126.64589 -184.0011 -126.776 -184.01002 L -141.08577 -184.99014 C -141.14912 -184.99448 -141.2124 -184.99968 -141.2756 -185.00574 L -155.76661 -186.39529 C -155.77607 -186.3962 -155.78552 -186.39712 -155.79497 -186.39806 L -169.607 -187.77927 C -169.72285 -187.79085 -169.83838 -187.80532 -169.9535 -187.82267 L -184.26265 -189.97884 C -184.3414 -189.9907 -184.42036 -190.00123 -184.49948 -190.0104 L -198.0194 -191.57793 C -198.12699 -191.5904 -198.23426 -191.60537 -198.34114 -191.62282 L -207.73323 -193.15623 C -207.89822 -193.18316 -208.0622 -193.216 -208.22484 -193.25468 L -217.30244 -195.41346 C -217.69075 -195.5058 -218.0804 -195.26588 -218.17276 -194.87756 C -218.17884 -194.85198 -218.18353 -194.82608 -218.18679 -194.8 Z" stroke="#7f8080" stroke-linecap="round" stroke-linejoin="round" stroke-width="1"/>
      <path d="M -203.5 -400.27867 L 39.506073 -401.69983 L 39.506073 -384.00695 L 40.5 -360.41644 L 40.5 -349.4637 L -205 -347.77867 L -205.2 -369.6 L -205 -387 Z" fill="#0000a0"/>
      <path d="M -203.5 -400.27867 L 39.506073 -401.69983 L 39.506073 -384.00695 L 40.5 -360.41644 L 40.5 -349.4637 L -205 -347.77867 L -205.2 -369.6 L -205 -387 Z" stroke="#7f8080" stroke-linecap="round" stroke-linejoin="round" stroke-width="1"/>
      <path d="M -242 -577 L -142 -578 L -152 -592 L -157 -601 L -161 -610 L -182 -602 L -200 -596 L -221 -590 L -235 -584 Z" fill="#0000a6"/>
      <path d="M -242 -577 L -142 -578 L -152 -592 L -157 -601 L -161 -610 L -182 -602 L -200 -596 L -221 -590 L -235 -584 Z" stroke="#7f8080" stroke-linecap="round" stroke-linejoin="round" stroke-width="1"/>
      <path d="M 77.21902 -577 L -26 -578 L -15 -592 L -10 -603 L -6 -610 L 17.219016 -602 L 35.219016 -596 L 56.219016 -590 L 70.21902 -584 Z" fill="#0000b0"/>
      <path d="M 77.21902 -577 L -26 -578 L -15 -592 L -10 -603 L -6 -610 L 17.219016 -602 L 35.219016 -596 L 56.219016 -590 L 70.21902 -584 Z" stroke="#7f8080" stroke-linecap="round" stroke-linejoin="round" stroke-width="1"/>
      <path d="M -205 -349.37805 L 40.400004 -349.1 L 40.000004 -354.2161 L 40.600004 -360.22195 L -204.5 -360.5 L -205 -353.27073 Z" fill="white"/>
      <path d="M -205 -349.37805 L 40.400004 -349.1 L 40.000004 -354.2161 L 40.600004 -360.22195 L -204.5 -360.5 L -205 -353.27073 Z" stroke="gray" stroke-linecap="round" stroke-linejoin="round" stroke-width="0"/>
      <path d="M -205.3 -400.4448 L 40.100005 -400.16677 L 39.700004 -405.28286 L 40.300005 -411.2887 L -204.8 -411.56677 L -205.3 -404.3375 Z" fill="white"/>
      <path d="M -205.3 -400.4448 L 40.100005 -400.16677 L 39.700004 -405.28286 L 40.300005 -411.2887 L -204.8 -411.56677 L -205.3 -404.3375 Z" stroke="gray" stroke-linecap="round" stroke-linejoin="round" stroke-width="0"/>
      <path d="M -203.24698 -289.96848 L 42.552644 -292.93152 L 44.052644 -273.43152 L 45.552644 -251.93152 L 46.552644 -238.43152 L 46.052644 -235.93152 L -212.6 -235.6 L -211.14735 -253.33152 L -209.54735 -271.33152 L -208.54735 -289.93152 L -207.09717 -289.96848 Z" fill="#00009c"/>
      <path d="M -203.24698 -289.96848 L 42.552644 -292.93152 L 44.052644 -273.43152 L 45.552644 -251.93152 L 46.552644 -238.43152 L 46.052644 -235.93152 L -212.6 -235.6 L -211.14735 -253.33152 L -209.54735 -271.33152 L -208.54735 -289.93152 L -207.09717 -289.96848 Z" stroke="#7f8080" stroke-linecap="round" stroke-linejoin="round" stroke-width="1"/>
      <path d="M -209 -292.8 L 44.000005 -293.2343 L 43.600005 -298.5543 L 43 -304.09143 L -207.8 -304.2 L -208.5 -296.76286 Z" fill="white"/>
      <path d="M -209 -292.8 L 44.000005 -293.2343 L 43.600005 -298.5543 L 43 -304.09143 L -207.8 -304.2 L -208.5 -296.76286 Z" stroke="gray" stroke-linecap="round" stroke-linejoin="round" stroke-width=".25"/>
      <path d="M -213.6 -235.6 L -213.4 -240.0162 L -212 -247 L 47.000005 -247 L 48.5 -240.83784 L 49.600005 -235.7027 Z" fill="white"/>
      <path d="M -213.6 -235.6 L -213.4 -240.0162 L -212 -247 L 47.000005 -247 L 48.5 -240.83784 L 49.600005 -235.7027 Z" stroke="#a5a5a5" stroke-linecap="round" stroke-linejoin="round" stroke-width=".5"/>
      <path d="M -215 -519 L 49.5 -519.5 L 51 -524 L 54.600005 -530.6 L -219.2 -530.3849 L -216 -522.5 Z" fill="white"/>
      <path d="M -215 -519 L 49.5 -519.5 L 51 -524 L 54.600005 -530.6 L -219.2 -530.3849 L -216 -522.5 Z" stroke="gray" stroke-linecap="round" stroke-linejoin="round" stroke-width="0"/>
      <path d="M -206.8 -464.70857 L 41.600004 -464.6 L 42.000005 -468.94286 L 42.600005 -476 L -207.4 -475.89143 L -207 -468.5086 Z" fill="white"/>
      <path d="M -206.8 -464.70857 L 41.600004 -464.6 L 42.000005 -468.94286 L 42.600005 -476 L -207.4 -475.89143 L -207 -468.5086 Z" stroke="gray" stroke-linecap="round" stroke-linejoin="round" stroke-width="0"/>
      <path d="M -42.199997 -575.2189 L 75 -575.5 L 77 -579.5 L 70.600005 -585.17736 L 65.400005 -586.3811 L -19.599996 -586.6 L -30.599997 -581.4566 Z" fill="white"/>
      <path d="M -42.199997 -575.2189 L 75 -575.5 L 77 -579.5 L 70.600005 -585.17736 L 65.400005 -586.3811 L -19.599996 -586.6 L -30.599997 -581.4566 Z" stroke="gray" stroke-linecap="round" stroke-linejoin="round" stroke-width="0"/>
      <path d="M -240 -574.5 L -120.2 -575.1096 L -136 -581.79616 L -147 -586.4 L -229.2 -586.4 L -235.6 -584.8654 L -242.5 -579 Z" fill="white"/>
      <path d="M -240 -574.5 L -120.2 -575.1096 L -136 -581.79616 L -147 -586.4 L -229.2 -586.4 L -235.6 -584.8654 L -242.5 -579 Z" stroke="gray" stroke-linecap="round" stroke-linejoin="round" stroke-width="0"/>
      <path d="M -147.42788 -620.0362 L -152.15705 -615.98264 C -153.3074 -614.9966 -154.55236 -614.1267 -155.87379 -613.3855 L -158.40042 -611.96835 C -159.8356 -611.1634 -160.4164 -609.39425 -159.73761 -607.8953 L -158.72 -605.648 C -158.59842 -605.37954 -158.47169 -605.1134 -158.33988 -604.8498 L -156.5376 -601.2453 L -154.05062 -596.2713 C -153.70883 -595.5877 -153.33317 -594.9216 -152.92505 -594.2754 L -150.59866 -590.5919 C -150.15828 -589.89465 -149.68072 -589.2216 -149.16805 -588.5756 L -145.75736 -584.27815 C -145.2113 -583.5901 -144.62629 -582.93394 -144.00518 -582.3128 L -139.33913 -577.6468 C -138.93825 -577.2459 -138.52269 -576.86 -138.09329 -576.4898 L -133.52977 -572.55574 C -133.13511 -572.2155 -132.729 -571.8888 -132.31215 -571.5762 L -128.33721 -568.595 C -127.6713 -568.0955 -126.97877 -567.6326 -126.26267 -567.20826 L -122.1296 -564.75904 C -122.00161 -564.6832 -121.87288 -564.6086 -121.74344 -564.53523 L -117.0459 -561.8733 C -116.3076 -561.4549 -115.54672 -561.07774 -114.76675 -560.74347 L -111.21693 -559.2221 C -110.63097 -558.971 -110.03482 -558.74433 -109.43003 -558.54274 L -104.41192 -556.87003 C -103.16468 -556.4543 -101.88408 -556.14624 -100.5842 -555.9493 L -96.48536 -555.32826 C -96.12024 -555.27294 -95.75385 -555.2264 -95.3865 -555.18874 L -88.50539 -554.483 C -88.26022 -554.45784 -88.01466 -554.43664 -87.7688 -554.4194 L -83.24165 -554.1017 C -82.70579 -554.0641 -82.16878 -554.04527 -81.6316 -554.04527 L -78.36954 -554.04526 C -77.41584 -554.04526 -76.46307 -554.1046 -75.51673 -554.2229 L -71.52802 -554.72146 C -70.868055 -554.80396 -70.21198 -554.91504 -69.56165 -555.0544 L -63.479614 -556.3577 C -62.58574 -556.54924 -61.70408 -556.7939 -60.83932 -557.0904 L -56.330475 -558.6363 C -55.53583 -558.9087 -54.7567 -559.2245 -53.9966 -559.5822 L -49.163226 -561.85674 C -48.61303 -562.11565 -48.07332 -562.3963 -47.54536 -562.698 L -43.777496 -564.85104 C -43.084706 -565.2469 -42.412987 -565.6786 -41.76506 -566.1443 L -37.088936 -569.50525 C -36.588253 -569.8651 -36.102243 -570.245 -35.632084 -570.6439 L -30.311228 -575.15856 C -29.928916 -575.48294 -29.557314 -575.81974 -29.197017 -576.1684 L -24.4978 -580.71604 C -23.85821 -581.335 -23.255088 -581.99056 -22.691476 -582.6794 L -18.898193 -587.31566 C -18.39148 -587.935 -17.917434 -588.5803 -17.477985 -589.24904 L -13.860809 -594.75344 C -13.645376 -595.0813 -13.438366 -595.41456 -13.239981 -595.753 L -10.71689 -600.0571 C -10.33094 -600.71546 -9.977999 -601.39265 -9.659376 -602.0861 L -7.540684 -606.6974 C -7.007821 -607.85715 -6.636665 -609.0846 -6.437607 -610.3453 L -6.437607 -610.3453 C -6.259302 -611.4745 -6.838604 -612.588 -7.865684 -613.0901 L -13.15912 -615.678 C -14.47358 -616.3206 -15.708168 -617.11514 -16.837607 -618.0453 L -17.243616 -618.3796 C -18.087947 -619.07496 -18.711356 -620.00126 -19.037607 -621.0453 L -19.037607 -621.0453 C -19.084268 -621.1946 -19.24314 -621.2778 -19.392456 -621.23114 C -19.507532 -621.1952 -19.587234 -621.0903 -19.59108 -620.9698 L -19.700323 -617.5469 C -19.79106 -614.7038 -20.408398 -611.9022 -21.521007 -609.2843 L -22.397942 -607.22096 C -22.956507 -605.9067 -23.63626 -604.6473 -24.428396 -603.4591 L -28.114177 -597.9304 C -28.861687 -596.80915 -29.706294 -595.75575 -30.63825 -594.7824 L -36.933316 -588.2075 C -37.80139 -587.3009 -38.742226 -586.4668 -39.7464 -585.7137 L -48.121305 -579.4325 C -48.99772 -578.7752 -49.919983 -578.1813 -50.88104 -577.65546 L -58.066244 -573.72394 C -59.37737 -573.0065 -60.755296 -572.4186 -62.180485 -571.9686 L -68.85339 -569.8613 C -70.57027 -569.31916 -72.34486 -568.98046 -74.14073 -568.8522 L -81.027185 -568.3603 C -82.09948 -568.2837 -83.17583 -568.2824 -84.24832 -568.35635 L -92.68457 -568.93816 C -93.71875 -569.0095 -94.74692 -569.15064 -95.76205 -569.3607 L -102.89726 -570.8369 C -104.84921 -571.2408 -106.74039 -571.89665 -108.52324 -572.7881 L -113.18265 -575.1178 C -114.41679 -575.73485 -115.5929 -576.4617 -116.69674 -577.2896 L -122.3787 -581.5511 C -122.81783 -581.8804 -123.24504 -582.2254 -123.65949 -582.5853 L -129.41467 -587.58324 C -130.22896 -588.2904 -130.9925 -589.0539 -131.69964 -589.8682 L -136.10487 -594.9409 C -136.85897 -595.80925 -137.54688 -596.73295 -138.1628 -597.7042 L -141.8965 -603.592 C -142.25707 -604.16056 -142.5925 -604.7447 -142.90181 -605.3427 L -144.52219 -608.47544 C -145.13133 -609.6531 -145.6375 -610.8813 -146.03503 -612.14615 L -147.31527 -616.21964 C -147.53005 -616.903 -147.71278 -617.59605 -147.86287 -618.2965 L -148.08829 -619.3484 C -148.17336 -619.74544 -147.947 -620.1431 -147.5622 -620.2726 L -147.5622 -620.2726 C -147.4897 -620.29704 -147.41116 -620.25805 -147.38675 -620.18556 C -147.36874 -620.13205 -147.38501 -620.07296 -147.42788 -620.0362 Z" fill="url(#Obj_Gradient_6)"/>
      <path d="M -147.42788 -620.0362 L -152.15705 -615.98264 C -153.3074 -614.9966 -154.55236 -614.1267 -155.87379 -613.3855 L -158.40042 -611.96835 C -159.8356 -611.1634 -160.4164 -609.39425 -159.73761 -607.8953 L -158.72 -605.648 C -158.59842 -605.37954 -158.47169 -605.1134 -158.33988 -604.8498 L -156.5376 -601.2453 L -154.05062 -596.2713 C -153.70883 -595.5877 -153.33317 -594.9216 -152.92505 -594.2754 L -150.59866 -590.5919 C -150.15828 -589.89465 -149.68072 -589.2216 -149.16805 -588.5756 L -145.75736 -584.27815 C -145.2113 -583.5901 -144.62629 -582.93394 -144.00518 -582.3128 L -139.33913 -577.6468 C -138.93825 -577.2459 -138.52269 -576.86 -138.09329 -576.4898 L -133.52977 -572.55574 C -133.13511 -572.2155 -132.729 -571.8888 -132.31215 -571.5762 L -128.33721 -568.595 C -127.6713 -568.0955 -126.97877 -567.6326 -126.26267 -567.20826 L -122.1296 -564.75904 C -122.00161 -564.6832 -121.87288 -564.6086 -121.74344 -564.53523 L -117.0459 -561.8733 C -116.3076 -561.4549 -115.54672 -561.07774 -114.76675 -560.74347 L -111.21693 -559.2221 C -110.63097 -558.971 -110.03482 -558.74433 -109.43003 -558.54274 L -104.41192 -556.87003 C -103.16468 -556.4543 -101.88408 -556.14624 -100.5842 -555.9493 L -96.48536 -555.32826 C -96.12024 -555.27294 -95.75385 -555.2264 -95.3865 -555.18874 L -88.50539 -554.483 C -88.26022 -554.45784 -88.01466 -554.43664 -87.7688 -554.4194 L -83.24165 -554.1017 C -82.70579 -554.0641 -82.16878 -554.04527 -81.6316 -554.04527 L -78.36954 -554.04526 C -77.41584 -554.04526 -76.46307 -554.1046 -75.51673 -554.2229 L -71.52802 -554.72146 C -70.868055 -554.80396 -70.21198 -554.91504 -69.56165 -555.0544 L -63.479614 -556.3577 C -62.58574 -556.54924 -61.70408 -556.7939 -60.83932 -557.0904 L -56.330475 -558.6363 C -55.53583 -558.9087 -54.7567 -559.2245 -53.9966 -559.5822 L -49.163226 -561.85674 C -48.61303 -562.11565 -48.07332 -562.3963 -47.54536 -562.698 L -43.777496 -564.85104 C -43.084706 -565.2469 -42.412987 -565.6786 -41.76506 -566.1443 L -37.088936 -569.50525 C -36.588253 -569.8651 -36.102243 -570.245 -35.632084 -570.6439 L -30.311228 -575.15856 C -29.928916 -575.48294 -29.557314 -575.81974 -29.197017 -576.1684 L -24.4978 -580.71604 C -23.85821 -581.335 -23.255088 -581.99056 -22.691476 -582.6794 L -18.898193 -587.31566 C -18.39148 -587.935 -17.917434 -588.5803 -17.477985 -589.24904 L -13.860809 -594.75344 C -13.645376 -595.0813 -13.438366 -595.41456 -13.239981 -595.753 L -10.71689 -600.0571 C -10.33094 -600.71546 -9.977999 -601.39265 -9.659376 -602.0861 L -7.540684 -606.6974 C -7.007821 -607.85715 -6.636665 -609.0846 -6.437607 -610.3453 L -6.437607 -610.3453 C -6.259302 -611.4745 -6.838604 -612.588 -7.865684 -613.0901 L -13.15912 -615.678 C -14.47358 -616.3206 -15.708168 -617.11514 -16.837607 -618.0453 L -17.243616 -618.3796 C -18.087947 -619.07496 -18.711356 -620.00126 -19.037607 -621.0453 L -19.037607 -621.0453 C -19.084268 -621.1946 -19.24314 -621.2778 -19.392456 -621.23114 C -19.507532 -621.1952 -19.587234 -621.0903 -19.59108 -620.9698 L -19.700323 -617.5469 C -19.79106 -614.7038 -20.408398 -611.9022 -21.521007 -609.2843 L -22.397942 -607.22096 C -22.956507 -605.9067 -23.63626 -604.6473 -24.428396 -603.4591 L -28.114177 -597.9304 C -28.861687 -596.80915 -29.706294 -595.75575 -30.63825 -594.7824 L -36.933316 -588.2075 C -37.80139 -587.3009 -38.742226 -586.4668 -39.7464 -585.7137 L -48.121305 -579.4325 C -48.99772 -578.7752 -49.919983 -578.1813 -50.88104 -577.65546 L -58.066244 -573.72394 C -59.37737 -573.0065 -60.755296 -572.4186 -62.180485 -571.9686 L -68.85339 -569.8613 C -70.57027 -569.31916 -72.34486 -568.98046 -74.14073 -568.8522 L -81.027185 -568.3603 C -82.09948 -568.2837 -83.17583 -568.2824 -84.24832 -568.35635 L -92.68457 -568.93816 C -93.71875 -569.0095 -94.74692 -569.15064 -95.76205 -569.3607 L -102.89726 -570.8369 C -104.84921 -571.2408 -106.74039 -571.89665 -108.52324 -572.7881 L -113.18265 -575.1178 C -114.41679 -575.73485 -115.5929 -576.4617 -116.69674 -577.2896 L -122.3787 -581.5511 C -122.81783 -581.8804 -123.24504 -582.2254 -123.65949 -582.5853 L -129.41467 -587.58324 C -130.22896 -588.2904 -130.9925 -589.0539 -131.69964 -589.8682 L -136.10487 -594.9409 C -136.85897 -595.80925 -137.54688 -596.73295 -138.1628 -597.7042 L -141.8965 -603.592 C -142.25707 -604.16056 -142.5925 -604.7447 -142.90181 -605.3427 L -144.52219 -608.47544 C -145.13133 -609.6531 -145.6375 -610.8813 -146.03503 -612.14615 L -147.31527 -616.21964 C -147.53005 -616.903 -147.71278 -617.59605 -147.86287 -618.2965 L -148.08829 -619.3484 C -148.17336 -619.74544 -147.947 -620.1431 -147.5622 -620.2726 L -147.5622 -620.2726 C -147.4897 -620.29704 -147.41116 -620.25805 -147.38675 -620.18556 C -147.36874 -620.13205 -147.38501 -620.07296 -147.42788 -620.0362 Z" stroke="#7f8080" stroke-linecap="round" stroke-linejoin="round" stroke-width="1"/>
    </g>
  </g>
</svg>
