<?xml version="1.0" encoding="UTF-8" standalone="no"?>
<!DOCTYPE svg PUBLIC "-//W3C//DTD SVG 1.1//EN" "http://www.w3.org/Graphics/SVG/1.1/DTD/svg11.dtd">
<svg xmlns="http://www.w3.org/2000/svg" xmlns:xl="http://www.w3.org/1999/xlink" version="1.1" viewBox="-154.5 -536.5 432.4053 449.4" width="432.4053pt" height="449.4pt" xmlns:dc="http://purl.org/dc/elements/1.1/">
  <metadata> Produced by OmniGraffle 7.6.1 
    <dc:date>2019-07-25 15:08:52 +0000</dc:date>
  </metadata>
  <defs>
    <radialGradient cx="0" cy="0" r="1" id="Gradient" gradientUnits="userSpaceOnUse">
      <stop offset="0" stop-color="#cbcbcb"/>
      <stop offset="1" stop-color="#2b1b0b"/>
    </radialGradient>
    <radialGradient id="Obj_Gradient" xl:href="#Gradient" gradientTransform="translate(60.75925 -508.6) scale(70.26272)"/>
    <linearGradient x1="0" x2="1" id="Gradient_2" gradientUnits="userSpaceOnUse">
      <stop offset="0" stop-color="white"/>
      <stop offset="1" stop-color="#ed2111"/>
    </linearGradient>
    <linearGradient id="Obj_Gradient_2" xl:href="#Gradient_2" gradientTransform="translate(60.05925 -535.2441) rotate(90) scale(25)"/>
  </defs>
  <g stroke="none" stroke-opacity="1" stroke-dasharray="none" fill="none" fill-opacity="1">
    <title>Lienzo 2</title>
    <rect fill="white" width="432.4053" height="449.4"/>
    <g>
      <title>Capa 1</title>
      <path d="M -.9943458 -535.40955 L 7.171106 -532.29184 C 8.029097 -531.96424 8.905939 -531.6883 9.796923 -531.4656 L 23.5141 -528.0363 C 24.67576 -527.7459 25.85832 -527.5466 27.051005 -527.44034 L 44.57715 -525.8786 C 45.165 -525.8262 45.754643 -525.7965 46.34478 -525.78946 L 61.823695 -525.6052 C 62.11404 -525.6017 62.40442 -525.6038 62.694686 -525.6113 L 77.118 -525.98594 C 77.47878 -525.9953 77.839295 -526.0132 78.19924 -526.0395 L 92.57053 -527.0911 C 93.56197 -527.1636 94.54766 -527.30036 95.5214 -527.50044 L 107.09436 -529.87845 C 108.13637 -530.09256 109.16226 -530.3787 110.16465 -530.7348 L 121.91664 -534.90986 C 123.00702 -535.29723 124.21021 -534.76646 124.65925 -533.7 L 124.65925 -533.7 C 125.1814 -532.4599 125.33338 -531.09515 125.09685 -529.77055 L 124.91637 -528.75986 C 124.61259 -527.0587 124.11806 -525.3972 123.44214 -523.8068 L 121.89892 -520.1757 C 121.34035 -518.8614 120.6606 -517.602 119.86846 -516.4138 L 116.18268 -510.88515 C 115.43517 -509.7639 114.59057 -508.7105 113.65861 -507.7371 L 107.36354 -501.16226 C 106.49547 -500.2556 105.55463 -499.42154 104.55046 -498.6684 L 96.17555 -492.3872 C 95.29914 -491.7299 94.37688 -491.13606 93.41582 -490.6102 L 86.23062 -486.6787 C 84.91949 -485.96126 83.54156 -485.37336 82.11638 -484.9233 L 75.44347 -482.81607 C 73.72659 -482.2739 71.952 -481.9352 70.15613 -481.8069 L 63.269675 -481.31503 C 62.19738 -481.23844 61.12103 -481.2371 60.048545 -481.3111 L 51.61229 -481.8929 C 50.57811 -481.9642 49.54994 -482.1054 48.534806 -482.3154 L 41.3996 -483.79165 C 39.447648 -484.1955 37.556474 -484.8514 35.773618 -485.7428 L 31.11421 -488.0725 C 29.88007 -488.6896 28.703967 -489.41646 27.60012 -490.24434 L 21.918163 -494.5058 C 21.479027 -494.83517 21.051822 -495.18013 20.63737 -495.54005 L 14.882189 -500.538 C 14.067903 -501.2451 13.304363 -502.00865 12.59722 -502.82294 L 8.191995 -507.8956 C 7.437892 -508.764 6.749984 -509.6877 6.134059 -510.65895 L 2.400357 -516.5467 C 2.0397914 -517.1153 1.7043655 -517.69944 1.3950486 -518.29745 L -.22532497 -521.4302 C -.8344691 -522.60785 -1.3406377 -523.836 -1.7381747 -525.1009 L -3.0184137 -529.1744 C -3.233189 -529.85775 -3.4159215 -530.5508 -3.5660137 -531.2512 L -3.6407524 -531.6 C -3.835415 -532.5084 -3.7281537 -533.4556 -3.3352726 -534.29746 L -3.2407524 -534.5 C -2.8462758 -535.3453 -1.8658048 -535.7423 -.9943458 -535.40955 Z" fill="url(#Obj_Gradient)"/>
      <path d="M -.9943458 -535.40955 L 7.171106 -532.29184 C 8.029097 -531.96424 8.905939 -531.6883 9.796923 -531.4656 L 23.5141 -528.0363 C 24.67576 -527.7459 25.85832 -527.5466 27.051005 -527.44034 L 44.57715 -525.8786 C 45.165 -525.8262 45.754643 -525.7965 46.34478 -525.78946 L 61.823695 -525.6052 C 62.11404 -525.6017 62.40442 -525.6038 62.694686 -525.6113 L 77.118 -525.98594 C 77.47878 -525.9953 77.839295 -526.0132 78.19924 -526.0395 L 92.57053 -527.0911 C 93.56197 -527.1636 94.54766 -527.30036 95.5214 -527.50044 L 107.09436 -529.87845 C 108.13637 -530.09256 109.16226 -530.3787 110.16465 -530.7348 L 121.91664 -534.90986 C 123.00702 -535.29723 124.21021 -534.76646 124.65925 -533.7 L 124.65925 -533.7 C 125.1814 -532.4599 125.33338 -531.09515 125.09685 -529.77055 L 124.91637 -528.75986 C 124.61259 -527.0587 124.11806 -525.3972 123.44214 -523.8068 L 121.89892 -520.1757 C 121.34035 -518.8614 120.6606 -517.602 119.86846 -516.4138 L 116.18268 -510.88515 C 115.43517 -509.7639 114.59057 -508.7105 113.65861 -507.7371 L 107.36354 -501.16226 C 106.49547 -500.2556 105.55463 -499.42154 104.55046 -498.6684 L 96.17555 -492.3872 C 95.29914 -491.7299 94.37688 -491.13606 93.41582 -490.6102 L 86.23062 -486.6787 C 84.91949 -485.96126 83.54156 -485.37336 82.11638 -484.9233 L 75.44347 -482.81607 C 73.72659 -482.2739 71.952 -481.9352 70.15613 -481.8069 L 63.269675 -481.31503 C 62.19738 -481.23844 61.12103 -481.2371 60.048545 -481.3111 L 51.61229 -481.8929 C 50.57811 -481.9642 49.54994 -482.1054 48.534806 -482.3154 L 41.3996 -483.79165 C 39.447648 -484.1955 37.556474 -484.8514 35.773618 -485.7428 L 31.11421 -488.0725 C 29.88007 -488.6896 28.703967 -489.41646 27.60012 -490.24434 L 21.918163 -494.5058 C 21.479027 -494.83517 21.051822 -495.18013 20.63737 -495.54005 L 14.882189 -500.538 C 14.067903 -501.2451 13.304363 -502.00865 12.59722 -502.82294 L 8.191995 -507.8956 C 7.437892 -508.764 6.749984 -509.6877 6.134059 -510.65895 L 2.400357 -516.5467 C 2.0397914 -517.1153 1.7043655 -517.69944 1.3950486 -518.29745 L -.22532497 -521.4302 C -.8344691 -522.60785 -1.3406377 -523.836 -1.7381747 -525.1009 L -3.0184137 -529.1744 C -3.233189 -529.85775 -3.4159215 -530.5508 -3.5660137 -531.2512 L -3.6407524 -531.6 C -3.835415 -532.5084 -3.7281537 -533.4556 -3.3352726 -534.29746 L -3.2407524 -534.5 C -2.8462758 -535.3453 -1.8658048 -535.7423 -.9943458 -535.40955 Z" stroke="#7f8080" stroke-linecap="round" stroke-linejoin="round" stroke-width="1"/>
      <path d="M -66.66994 -97.82707 L -52.9277 -95.5367 C -52.744324 -95.50613 -52.56043 -95.47877 -52.3761 -95.45462 L -24.022456 -91.73931 C -23.775928 -91.70701 -23.52868 -91.68045 -23.280915 -91.65967 L 6.961974 -89.12317 C 7.218878 -89.10163 7.4762655 -89.08629 7.733911 -89.07718 L 46.664824 -87.70084 C 46.853184 -87.69418 47.04165 -87.69085 47.230127 -87.69085 L 78.69745 -87.69085 C 78.86406 -87.69085 79.03067 -87.69345 79.1972 -87.69866 L 104.23199 -88.48099 C 104.44224 -88.48756 104.65233 -88.49828 104.86215 -88.51313 L 126.9099 -90.07404 C 127.06822 -90.08524 127.22636 -90.09881 127.38427 -90.11472 L 152.64475 -92.66035 C 152.8465 -92.68068 153.04783 -92.70484 153.24865 -92.73283 L 177.04134 -96.0482 C 177.24535 -96.07663 177.4488 -96.109 177.65156 -96.14528 L 186.8474 -97.79085 C 192.1745 -98.74412 195.82536 -103.69777 195.15895 -109.0683 L 192.95136 -126.85887 C 192.94871 -126.88019 192.9461 -126.90151 192.94355 -126.92284 L 189.37973 -156.62137 C 189.35817 -156.80101 189.33966 -156.981 189.3242 -157.16127 L 186.962 -184.72048 C 186.95226 -184.83406 186.94374 -184.94773 186.93643 -185.0615 L 185.54981 -206.65313 C 185.5482 -206.67828 185.54652 -206.70342 185.54479 -206.72856 L 183.95263 -229.81487 C 183.94914 -229.86552 183.94588 -229.9162 183.94287 -229.96688 L 182.7665 -249.76905 C 182.75376 -249.98356 182.74534 -250.1983 182.74125 -250.41316 L 182.34897 -271.008 C 182.34792 -271.06323 182.34658 -271.11846 182.34495 -271.17368 L 181.74983 -291.40802 C 181.7482 -291.46324 181.74686 -291.51847 181.74581 -291.5737 L 181.35515 -312.08324 C 181.34998 -312.35494 181.35173 -312.62672 181.3604 -312.89833 L 181.94634 -331.25794 C 181.94704 -331.2799 181.94778 -331.30182 181.94857 -331.32376 L 182.73666 -353.19307 C 182.74381 -353.39158 182.75466 -353.58993 182.7692 -353.78803 L 184.32668 -375.00865 C 184.34048 -375.19677 184.35096 -375.3851 184.3581 -375.5736 L 185.11256 -395.4725 C 185.13576 -396.08423 185.19404 -396.69414 185.28713 -397.2992 L 188.02613 -415.1027 C 188.10691 -415.6278 188.2138 -416.14857 188.3464 -416.66303 L 192.97466 -434.6207 C 193.08976 -435.06725 193.2241 -435.50864 193.37734 -435.9436 L 199.09812 -452.18325 C 199.2642 -452.65473 199.4523 -453.11816 199.66178 -453.57203 L 205.19333 -465.55707 C 205.29602 -465.77956 205.4038 -465.99967 205.5166 -466.2172 L 210.87883 -476.55864 C 210.92454 -476.6468 210.97106 -476.7345 211.0184 -476.8218 L 216.23437 -486.43873 C 216.97165 -487.7981 217.92128 -489.031 219.0474 -490.09086 L 219.0474 -490.09086 C 219.72258 -490.7263 219.75478 -491.78883 219.1193 -492.464 C 218.9948 -492.5963 218.84967 -492.7075 218.68955 -492.79327 L 215.47542 -494.5151 C 215.25676 -494.63226 215.0354 -494.7443 214.81155 -494.85114 L 206.95757 -498.59963 C 206.55096 -498.7937 206.13634 -498.9705 205.71481 -499.12956 L 196.03998 -502.78044 C 195.84494 -502.85404 195.64848 -502.9238 195.4507 -502.98975 L 182.75623 -507.22124 C 182.617 -507.26765 182.47716 -507.31214 182.3367 -507.3547 L 169.45319 -511.2588 C 169.38266 -511.28017 169.31227 -511.302 169.24205 -511.3244 L 156.73805 -515.3029 C 156.34442 -515.42816 155.9558 -515.5686 155.57304 -515.7239 L 143.5971 -520.5837 C 142.76543 -520.9212 141.96364 -521.3281 141.2002 -521.8 L 131.58096 -527.74647 C 131.42526 -527.8427 131.27122 -527.94164 131.11891 -528.0432 L 126.22881 -531.30324 C 125.24742 -531.9575 124.3761 -532.7634 123.64739 -533.69086 L 123.64739 -533.69086 C 123.54178 -533.82526 123.34722 -533.8486 123.21282 -533.743 C 123.11007 -533.6623 123.0691 -533.5257 123.11042 -533.4018 L 123.24739 -532.99086 C 123.70664 -531.6131 123.8112 -530.1418 123.55141 -528.71297 L 123.15627 -526.5397 C 122.88506 -525.04804 122.40321 -523.6025 121.72519 -522.24645 L 120.19287 -519.1818 C 119.89617 -518.5884 119.56285 -518.01405 119.19484 -517.462 L 115.99113 -512.6565 C 115.56253 -512.0136 115.08792 -511.40256 114.57104 -510.82824 L 110.00899 -505.7593 C 109.96792 -505.7137 109.92659 -505.6683 109.885 -505.6231 L 103.89077 -499.1151 C 103.26303 -498.43356 102.57728 -497.80783 101.84125 -497.245 L 96.81707 -493.40297 C 96.37093 -493.0618 95.90712 -492.74435 95.42759 -492.45195 L 88.94119 -488.49683 C 88.27953 -488.0934 87.58943 -487.73853 86.87635 -487.4351 L 79.76094 -484.40726 C 78.95327 -484.0636 78.1187 -483.78693 77.26566 -483.58013 L 73.1866 -482.59127 C 72.361765 -482.3913 71.52233 -482.2573 70.67624 -482.1905 L 64.97603 -481.7405 C 64.5571 -481.7074 64.137025 -481.69086 63.71679 -481.69086 L 56.68447 -481.69086 C 55.92737 -481.69086 55.17122 -481.7446 54.42173 -481.85166 L 46.475283 -482.98687 C 45.990275 -483.05616 45.508705 -483.1477 45.032096 -483.26116 L 39.07087 -484.6805 C 37.92538 -484.95324 36.8135 -485.3516 35.75543 -485.8683 L 29.47543 -488.9353 C 28.990378 -489.1722 28.517626 -489.43346 28.058987 -489.71814 L 23.847124 -492.3324 C 23.247954 -492.7043 22.674028 -493.1154 22.129099 -493.563 L 17.682993 -497.2152 C 17.459297 -497.3989 17.240628 -497.5887 17.02723 -497.78433 L 13.224887 -501.2698 C 12.773592 -501.6835 12.346412 -502.12275 11.945456 -502.5854 L 7.82671 -507.3378 C 7.507328 -507.7063 7.204961 -508.08923 6.920555 -508.4854 L 2.490901 -514.65525 C 1.9960088 -515.34456 1.556738 -516.07215 1.1772457 -516.83114 L -1.3992181 -521.98406 C -1.4348147 -522.05526 -1.4698796 -522.1267 -1.5044098 -522.19843 L -2.7526138 -524.79086 C -3.6033285 -526.5577 -3.9588496 -528.52226 -3.7813085 -530.4752 L -3.6011035 -532.4575 C -3.577298 -532.7193 -3.7702807 -532.9509 -4.032143 -532.9747 C -4.194538 -532.9895 -4.3531915 -532.9201 -4.452614 -532.79086 L -4.452614 -532.79086 C -5.1160604 -531.9284 -5.896168 -531.1623 -6.770546 -530.5146 L -10.667079 -527.6283 C -10.790763 -527.5367 -10.915762 -527.44684 -11.042037 -527.35883 L -15.664288 -524.13726 C -16.851024 -523.31015 -18.144444 -522.6478 -19.509194 -522.1683 L -24.11632 -520.54955 C -24.60689 -520.3772 -25.088768 -520.181 -25.560236 -519.9617 L -32.407018 -516.7772 C -33.10318 -516.4534 -33.821744 -516.1801 -34.557143 -515.9595 L -45.42753 -512.6984 C -45.444254 -512.69336 -45.460967 -512.6883 -45.47767 -512.68325 L -56.44576 -509.35365 C -56.583657 -509.3118 -56.72098 -509.26807 -56.8577 -509.2225 L -69.77893 -504.9154 C -69.82805 -504.89904 -69.877254 -504.8829 -69.92653 -504.867 L -81.29394 -501.2001 C -81.93242 -500.99414 -82.55732 -500.7482 -83.16494 -500.4638 L -91.0969 -496.751 C -91.46724 -496.5776 -91.8308 -496.39014 -92.18678 -496.18894 L -98.13289 -492.8281 C -99.38592 -492.11985 -99.82757 -490.52993 -99.11933 -489.2769 C -99.04222 -489.14046 -98.95295 -489.01125 -98.85262 -488.89086 L -97.9885 -487.8539 C -97.23356 -486.948 -96.58108 -485.96137 -96.04297 -484.91204 L -92.96583 -478.9116 C -92.89036 -478.76445 -92.81261 -478.61846 -92.73261 -478.4737 L -88.77786 -471.3175 C -88.69437 -471.1664 -88.61333 -471.014 -88.53477 -470.8603 L -84.42646 -462.8223 C -84.1774 -462.335 -83.95349 -461.8352 -83.75564 -461.32497 L -80.27287 -452.3431 C -80.25937 -452.30827 -80.24574 -452.2735 -80.23199 -452.23876 L -76.63567 -443.1533 C -76.51366 -442.8451 -76.40126 -442.53313 -76.298635 -442.2179 L -73.6768 -434.16514 C -73.66068 -434.1156 -73.644795 -434.066 -73.629156 -434.01634 L -70.55711 -424.25807 C -70.354316 -423.6139 -70.19251 -422.95755 -70.07266 -422.29294 L -68.08735 -411.2835 C -68.064194 -411.15507 -68.04261 -411.02638 -68.0226 -410.89743 L -66.31673 -399.90405 C -66.273994 -399.62863 -66.23846 -399.35215 -66.21017 -399.07487 L -65.32275 -390.37816 C -65.276014 -389.92017 -65.24907 -389.46038 -65.24199 -389.00006 L -65.05775 -377.02444 C -65.054326 -376.80207 -65.04627 -376.5798 -65.03358 -376.35777 L -64.26321 -362.8762 C -64.256145 -362.75264 -64.24765 -362.62916 -64.237725 -362.5058 L -62.904155 -345.93142 C -62.86981 -345.50455 -62.852615 -345.07647 -62.852615 -344.6482 L -62.852615 -332.19843 C -62.852615 -331.9934 -62.84867 -331.7884 -62.84079 -331.5835 L -62.26044 -316.49436 C -62.255224 -316.3587 -62.25173 -316.22297 -62.24997 -316.0872 L -62.05781 -301.29095 C -62.05435 -301.02426 -62.05755 -300.75752 -62.067424 -300.491 L -62.64165 -284.98684 C -62.64896 -284.78953 -62.652615 -284.5921 -62.652615 -284.39466 L -62.652615 -270.79843 C -62.652615 -270.5934 -62.656556 -270.38838 -62.664436 -270.1835 L -63.24963 -254.9685 C -63.25162 -254.91673 -63.25386 -254.86498 -63.256355 -254.81324 L -64.05168 -238.3103 C -64.0523 -238.29734 -64.05294 -238.28437 -64.0536 -238.2714 L -64.84809 -222.58024 C -64.851106 -222.52065 -64.85446 -222.46107 -64.85814 -222.40152 L -66.04705 -203.1808 C -66.05076 -203.12083 -66.05481 -203.0609 -66.05919 -203.00098 L -67.84233 -178.63143 C -67.849186 -178.53771 -67.85687 -178.44406 -67.86538 -178.35047 L -69.65127 -158.70566 C -69.65217 -158.69579 -69.65307 -158.68591 -69.65399 -158.67604 L -71.42475 -139.59114 C -71.44333 -139.39096 -71.46567 -139.19116 -71.49177 -138.99182 L -73.45249 -124.0191 C -73.5853 -123.00491 -73.85444 -122.0133 -74.252615 -121.07112 L -74.252615 -121.07112 C -74.65019 -120.13038 -74.89886 -119.13346 -74.98968 -118.1162 L -75.752615 -109.57112 C -76.26037 -103.8841 -72.30191 -98.76573 -66.66994 -97.82707 Z" fill="white"/>
      <path d="M -66.66994 -97.82707 L -52.9277 -95.5367 C -52.744324 -95.50613 -52.56043 -95.47877 -52.3761 -95.45462 L -24.022456 -91.73931 C -23.775928 -91.70701 -23.52868 -91.68045 -23.280915 -91.65967 L 6.961974 -89.12317 C 7.218878 -89.10163 7.4762655 -89.08629 7.733911 -89.07718 L 46.664824 -87.70084 C 46.853184 -87.69418 47.04165 -87.69085 47.230127 -87.69085 L 78.69745 -87.69085 C 78.86406 -87.69085 79.03067 -87.69345 79.1972 -87.69866 L 104.23199 -88.48099 C 104.44224 -88.48756 104.65233 -88.49828 104.86215 -88.51313 L 126.9099 -90.07404 C 127.06822 -90.08524 127.22636 -90.09881 127.38427 -90.11472 L 152.64475 -92.66035 C 152.8465 -92.68068 153.04783 -92.70484 153.24865 -92.73283 L 177.04134 -96.0482 C 177.24535 -96.07663 177.4488 -96.109 177.65156 -96.14528 L 186.8474 -97.79085 C 192.1745 -98.74412 195.82536 -103.69777 195.15895 -109.0683 L 192.95136 -126.85887 C 192.94871 -126.88019 192.9461 -126.90151 192.94355 -126.92284 L 189.37973 -156.62137 C 189.35817 -156.80101 189.33966 -156.981 189.3242 -157.16127 L 186.962 -184.72048 C 186.95226 -184.83406 186.94374 -184.94773 186.93643 -185.0615 L 185.54981 -206.65313 C 185.5482 -206.67828 185.54652 -206.70342 185.54479 -206.72856 L 183.95263 -229.81487 C 183.94914 -229.86552 183.94588 -229.9162 183.94287 -229.96688 L 182.7665 -249.76905 C 182.75376 -249.98356 182.74534 -250.1983 182.74125 -250.41316 L 182.34897 -271.008 C 182.34792 -271.06323 182.34658 -271.11846 182.34495 -271.17368 L 181.74983 -291.40802 C 181.7482 -291.46324 181.74686 -291.51847 181.74581 -291.5737 L 181.35515 -312.08324 C 181.34998 -312.35494 181.35173 -312.62672 181.3604 -312.89833 L 181.94634 -331.25794 C 181.94704 -331.2799 181.94778 -331.30182 181.94857 -331.32376 L 182.73666 -353.19307 C 182.74381 -353.39158 182.75466 -353.58993 182.7692 -353.78803 L 184.32668 -375.00865 C 184.34048 -375.19677 184.35096 -375.3851 184.3581 -375.5736 L 185.11256 -395.4725 C 185.13576 -396.08423 185.19404 -396.69414 185.28713 -397.2992 L 188.02613 -415.1027 C 188.10691 -415.6278 188.2138 -416.14857 188.3464 -416.66303 L 192.97466 -434.6207 C 193.08976 -435.06725 193.2241 -435.50864 193.37734 -435.9436 L 199.09812 -452.18325 C 199.2642 -452.65473 199.4523 -453.11816 199.66178 -453.57203 L 205.19333 -465.55707 C 205.29602 -465.77956 205.4038 -465.99967 205.5166 -466.2172 L 210.87883 -476.55864 C 210.92454 -476.6468 210.97106 -476.7345 211.0184 -476.8218 L 216.23437 -486.43873 C 216.97165 -487.7981 217.92128 -489.031 219.0474 -490.09086 L 219.0474 -490.09086 C 219.72258 -490.7263 219.75478 -491.78883 219.1193 -492.464 C 218.9948 -492.5963 218.84967 -492.7075 218.68955 -492.79327 L 215.47542 -494.5151 C 215.25676 -494.63226 215.0354 -494.7443 214.81155 -494.85114 L 206.95757 -498.59963 C 206.55096 -498.7937 206.13634 -498.9705 205.71481 -499.12956 L 196.03998 -502.78044 C 195.84494 -502.85404 195.64848 -502.9238 195.4507 -502.98975 L 182.75623 -507.22124 C 182.617 -507.26765 182.47716 -507.31214 182.3367 -507.3547 L 169.45319 -511.2588 C 169.38266 -511.28017 169.31227 -511.302 169.24205 -511.3244 L 156.73805 -515.3029 C 156.34442 -515.42816 155.9558 -515.5686 155.57304 -515.7239 L 143.5971 -520.5837 C 142.76543 -520.9212 141.96364 -521.3281 141.2002 -521.8 L 131.58096 -527.74647 C 131.42526 -527.8427 131.27122 -527.94164 131.11891 -528.0432 L 126.22881 -531.30324 C 125.24742 -531.9575 124.3761 -532.7634 123.64739 -533.69086 L 123.64739 -533.69086 C 123.54178 -533.82526 123.34722 -533.8486 123.21282 -533.743 C 123.11007 -533.6623 123.0691 -533.5257 123.11042 -533.4018 L 123.24739 -532.99086 C 123.70664 -531.6131 123.8112 -530.1418 123.55141 -528.71297 L 123.15627 -526.5397 C 122.88506 -525.04804 122.40321 -523.6025 121.72519 -522.24645 L 120.19287 -519.1818 C 119.89617 -518.5884 119.56285 -518.01405 119.19484 -517.462 L 115.99113 -512.6565 C 115.56253 -512.0136 115.08792 -511.40256 114.57104 -510.82824 L 110.00899 -505.7593 C 109.96792 -505.7137 109.92659 -505.6683 109.885 -505.6231 L 103.89077 -499.1151 C 103.26303 -498.43356 102.57728 -497.80783 101.84125 -497.245 L 96.81707 -493.40297 C 96.37093 -493.0618 95.90712 -492.74435 95.42759 -492.45195 L 88.94119 -488.49683 C 88.27953 -488.0934 87.58943 -487.73853 86.87635 -487.4351 L 79.76094 -484.40726 C 78.95327 -484.0636 78.1187 -483.78693 77.26566 -483.58013 L 73.1866 -482.59127 C 72.361765 -482.3913 71.52233 -482.2573 70.67624 -482.1905 L 64.97603 -481.7405 C 64.5571 -481.7074 64.137025 -481.69086 63.71679 -481.69086 L 56.68447 -481.69086 C 55.92737 -481.69086 55.17122 -481.7446 54.42173 -481.85166 L 46.475283 -482.98687 C 45.990275 -483.05616 45.508705 -483.1477 45.032096 -483.26116 L 39.07087 -484.6805 C 37.92538 -484.95324 36.8135 -485.3516 35.75543 -485.8683 L 29.47543 -488.9353 C 28.990378 -489.1722 28.517626 -489.43346 28.058987 -489.71814 L 23.847124 -492.3324 C 23.247954 -492.7043 22.674028 -493.1154 22.129099 -493.563 L 17.682993 -497.2152 C 17.459297 -497.3989 17.240628 -497.5887 17.02723 -497.78433 L 13.224887 -501.2698 C 12.773592 -501.6835 12.346412 -502.12275 11.945456 -502.5854 L 7.82671 -507.3378 C 7.507328 -507.7063 7.204961 -508.08923 6.920555 -508.4854 L 2.490901 -514.65525 C 1.9960088 -515.34456 1.556738 -516.07215 1.1772457 -516.83114 L -1.3992181 -521.98406 C -1.4348147 -522.05526 -1.4698796 -522.1267 -1.5044098 -522.19843 L -2.7526138 -524.79086 C -3.6033285 -526.5577 -3.9588496 -528.52226 -3.7813085 -530.4752 L -3.6011035 -532.4575 C -3.577298 -532.7193 -3.7702807 -532.9509 -4.032143 -532.9747 C -4.194538 -532.9895 -4.3531915 -532.9201 -4.452614 -532.79086 L -4.452614 -532.79086 C -5.1160604 -531.9284 -5.896168 -531.1623 -6.770546 -530.5146 L -10.667079 -527.6283 C -10.790763 -527.5367 -10.915762 -527.44684 -11.042037 -527.35883 L -15.664288 -524.13726 C -16.851024 -523.31015 -18.144444 -522.6478 -19.509194 -522.1683 L -24.11632 -520.54955 C -24.60689 -520.3772 -25.088768 -520.181 -25.560236 -519.9617 L -32.407018 -516.7772 C -33.10318 -516.4534 -33.821744 -516.1801 -34.557143 -515.9595 L -45.42753 -512.6984 C -45.444254 -512.69336 -45.460967 -512.6883 -45.47767 -512.68325 L -56.44576 -509.35365 C -56.583657 -509.3118 -56.72098 -509.26807 -56.8577 -509.2225 L -69.77893 -504.9154 C -69.82805 -504.89904 -69.877254 -504.8829 -69.92653 -504.867 L -81.29394 -501.2001 C -81.93242 -500.99414 -82.55732 -500.7482 -83.16494 -500.4638 L -91.0969 -496.751 C -91.46724 -496.5776 -91.8308 -496.39014 -92.18678 -496.18894 L -98.13289 -492.8281 C -99.38592 -492.11985 -99.82757 -490.52993 -99.11933 -489.2769 C -99.04222 -489.14046 -98.95295 -489.01125 -98.85262 -488.89086 L -97.9885 -487.8539 C -97.23356 -486.948 -96.58108 -485.96137 -96.04297 -484.91204 L -92.96583 -478.9116 C -92.89036 -478.76445 -92.81261 -478.61846 -92.73261 -478.4737 L -88.77786 -471.3175 C -88.69437 -471.1664 -88.61333 -471.014 -88.53477 -470.8603 L -84.42646 -462.8223 C -84.1774 -462.335 -83.95349 -461.8352 -83.75564 -461.32497 L -80.27287 -452.3431 C -80.25937 -452.30827 -80.24574 -452.2735 -80.23199 -452.23876 L -76.63567 -443.1533 C -76.51366 -442.8451 -76.40126 -442.53313 -76.298635 -442.2179 L -73.6768 -434.16514 C -73.66068 -434.1156 -73.644795 -434.066 -73.629156 -434.01634 L -70.55711 -424.25807 C -70.354316 -423.6139 -70.19251 -422.95755 -70.07266 -422.29294 L -68.08735 -411.2835 C -68.064194 -411.15507 -68.04261 -411.02638 -68.0226 -410.89743 L -66.31673 -399.90405 C -66.273994 -399.62863 -66.23846 -399.35215 -66.21017 -399.07487 L -65.32275 -390.37816 C -65.276014 -389.92017 -65.24907 -389.46038 -65.24199 -389.00006 L -65.05775 -377.02444 C -65.054326 -376.80207 -65.04627 -376.5798 -65.03358 -376.35777 L -64.26321 -362.8762 C -64.256145 -362.75264 -64.24765 -362.62916 -64.237725 -362.5058 L -62.904155 -345.93142 C -62.86981 -345.50455 -62.852615 -345.07647 -62.852615 -344.6482 L -62.852615 -332.19843 C -62.852615 -331.9934 -62.84867 -331.7884 -62.84079 -331.5835 L -62.26044 -316.49436 C -62.255224 -316.3587 -62.25173 -316.22297 -62.24997 -316.0872 L -62.05781 -301.29095 C -62.05435 -301.02426 -62.05755 -300.75752 -62.067424 -300.491 L -62.64165 -284.98684 C -62.64896 -284.78953 -62.652615 -284.5921 -62.652615 -284.39466 L -62.652615 -270.79843 C -62.652615 -270.5934 -62.656556 -270.38838 -62.664436 -270.1835 L -63.24963 -254.9685 C -63.25162 -254.91673 -63.25386 -254.86498 -63.256355 -254.81324 L -64.05168 -238.3103 C -64.0523 -238.29734 -64.05294 -238.28437 -64.0536 -238.2714 L -64.84809 -222.58024 C -64.851106 -222.52065 -64.85446 -222.46107 -64.85814 -222.40152 L -66.04705 -203.1808 C -66.05076 -203.12083 -66.05481 -203.0609 -66.05919 -203.00098 L -67.84233 -178.63143 C -67.849186 -178.53771 -67.85687 -178.44406 -67.86538 -178.35047 L -69.65127 -158.70566 C -69.65217 -158.69579 -69.65307 -158.68591 -69.65399 -158.67604 L -71.42475 -139.59114 C -71.44333 -139.39096 -71.46567 -139.19116 -71.49177 -138.99182 L -73.45249 -124.0191 C -73.5853 -123.00491 -73.85444 -122.0133 -74.252615 -121.07112 L -74.252615 -121.07112 C -74.65019 -120.13038 -74.89886 -119.13346 -74.98968 -118.1162 L -75.752615 -109.57112 C -76.26037 -103.8841 -72.30191 -98.76573 -66.66994 -97.82707 Z" stroke="#7f8080" stroke-linecap="round" stroke-linejoin="round" stroke-width="1"/>
      <path d="M -154 -384.55385 L -147.8 -380.15385 L -139.6 -376.15385 L -131 -372.55385 L -122 -368.75385 L -111 -364.75385 L -101.6 -361.95385 L -92.6 -359.35385 L -83.6 -356.75385 L -78.2 -355.35385 L -72.6 -354.35385 L -70.2 -360.15385 L -67.6 -365.55385 L -65.4 -369.55385 L -62.8 -372.95385 L -62.6 -381.95385 L -63.2 -392.95385 L -65 -403.75385 L -66.6 -414.15385 L -69.2 -425.15386 L -71.6 -434.75386 L -74.4 -442.75386 L -77.6 -452.15386 L -80.4 -459.55386 L -84 -467.15386 L -88 -474.75386 L -92 -482.15386 L -94.6 -485.75386 L -98.2 -491.55386 L -103.6 -487.15386 L -108.4 -482.35386 L -113 -476.15386 L -117.4 -469.95386 L -122.2 -461.35386 L -127 -451.95386 L -131.8 -442.75386 L -135.4 -434.15386 L -139.4 -425.15386 L -142.6 -416.95385 L -146.4 -407.55385 L -149.2 -399.55385 L -152.2 -391.15385 Z" fill="red"/>
      <path d="M -154 -384.55385 L -147.8 -380.15385 L -139.6 -376.15385 L -131 -372.55385 L -122 -368.75385 L -111 -364.75385 L -101.6 -361.95385 L -92.6 -359.35385 L -83.6 -356.75385 L -78.2 -355.35385 L -72.6 -354.35385 L -70.2 -360.15385 L -67.6 -365.55385 L -65.4 -369.55385 L -62.8 -372.95385 L -62.6 -381.95385 L -63.2 -392.95385 L -65 -403.75385 L -66.6 -414.15385 L -69.2 -425.15386 L -71.6 -434.75386 L -74.4 -442.75386 L -77.6 -452.15386 L -80.4 -459.55386 L -84 -467.15386 L -88 -474.75386 L -92 -482.15386 L -94.6 -485.75386 L -98.2 -491.55386 L -103.6 -487.15386 L -108.4 -482.35386 L -113 -476.15386 L -117.4 -469.95386 L -122.2 -461.35386 L -127 -451.95386 L -131.8 -442.75386 L -135.4 -434.15386 L -139.4 -425.15386 L -142.6 -416.95385 L -146.4 -407.55385 L -149.2 -399.55385 L -152.2 -391.15385 Z" stroke="#7f8080" stroke-linecap="round" stroke-linejoin="round" stroke-width="1"/>
      <path d="M 277.4053 -385.49725 L 271.2053 -381.09725 L 263.0053 -377.09725 L 254.4053 -373.49725 L 245.4053 -369.69725 L 234.4053 -365.69725 L 225.0053 -362.89725 L 216.0053 -360.29725 L 207.0053 -357.69725 L 201.6053 -356.29725 L 196.00529 -355.29725 L 193.60529 -361.09725 L 191.00529 -366.49725 L 188.80529 -370.49725 L 186.20529 -373.89725 L 186.00529 -382.89725 L 186.60529 -393.89725 L 188.40529 -404.69725 L 190.00529 -415.09725 L 192.60529 -426.09725 L 195.00529 -435.69725 L 197.8053 -443.69725 L 201.0053 -453.09725 L 203.8053 -460.49725 L 207.4053 -468.09725 L 211.4053 -475.69725 L 215.4053 -483.09725 L 218.0053 -486.69725 L 221.6053 -492.49725 L 227.0053 -488.09725 L 231.8053 -483.29725 L 236.4053 -477.09725 L 240.8053 -470.89725 L 245.6053 -462.29725 L 250.4053 -452.89725 L 255.2053 -443.69725 L 258.8053 -435.09725 L 262.8053 -426.09725 L 266.0053 -417.89725 L 269.8053 -408.49725 L 272.6053 -400.49725 L 275.6053 -392.09725 Z" fill="red"/>
      <path d="M 277.4053 -385.49725 L 271.2053 -381.09725 L 263.0053 -377.09725 L 254.4053 -373.49725 L 245.4053 -369.69725 L 234.4053 -365.69725 L 225.0053 -362.89725 L 216.0053 -360.29725 L 207.0053 -357.69725 L 201.6053 -356.29725 L 196.00529 -355.29725 L 193.60529 -361.09725 L 191.00529 -366.49725 L 188.80529 -370.49725 L 186.20529 -373.89725 L 186.00529 -382.89725 L 186.60529 -393.89725 L 188.40529 -404.69725 L 190.00529 -415.09725 L 192.60529 -426.09725 L 195.00529 -435.69725 L 197.8053 -443.69725 L 201.0053 -453.09725 L 203.8053 -460.49725 L 207.4053 -468.09725 L 211.4053 -475.69725 L 215.4053 -483.09725 L 218.0053 -486.69725 L 221.6053 -492.49725 L 227.0053 -488.09725 L 231.8053 -483.29725 L 236.4053 -477.09725 L 240.8053 -470.89725 L 245.6053 -462.29725 L 250.4053 -452.89725 L 255.2053 -443.69725 L 258.8053 -435.09725 L 262.8053 -426.09725 L 266.0053 -417.89725 L 269.8053 -408.49725 L 272.6053 -400.49725 L 275.6053 -392.09725 Z" stroke="#7f8080" stroke-linecap="round" stroke-linejoin="round" stroke-width="1"/>
      <path d="M -3.427879 -534.0362 L -8.157049 -529.98264 C -9.307397 -528.9966 -10.552357 -528.1267 -11.873787 -527.3855 L -14.400422 -525.96835 C -15.835594 -525.1634 -16.416397 -523.39425 -15.737611 -521.89527 L -14.719994 -519.64803 C -14.598415 -519.37954 -14.471687 -519.1134 -14.339879 -518.8498 L -12.537609 -515.24526 L -10.050623 -510.2713 C -9.708826 -509.5877 -9.333168 -508.92157 -8.925048 -508.2754 L -6.598656 -504.5919 C -6.15828 -503.89465 -5.68072 -503.2216 -5.168047 -502.5756 L -1.7573623 -498.27815 C -1.2113083 -497.5901 -.6262885 -496.93394 -.00517781 -496.31283 L 4.660865 -491.6468 C 5.0617455 -491.2459 5.477311 -490.86 5.90671 -490.4898 L 10.470235 -486.55574 C 10.864892 -486.2155 11.270997 -485.8888 11.687846 -485.5762 L 15.662786 -482.59497 C 16.328699 -482.09553 17.021233 -481.6326 17.737331 -481.20826 L 21.870394 -478.75904 C 21.99839 -478.6832 22.127117 -478.6086 22.25656 -478.53523 L 26.954107 -475.8733 C 27.692398 -475.4549 28.453276 -475.07774 29.233252 -474.74347 L 32.78307 -473.2221 C 33.36903 -472.971 33.96518 -472.74433 34.569974 -472.54274 L 39.58808 -470.87003 C 40.835325 -470.4543 42.11592 -470.14624 43.415795 -469.9493 L 47.51464 -469.32826 C 47.879756 -469.27294 48.24615 -469.2264 48.6135 -469.18874 L 55.494605 -468.483 C 55.73978 -468.45784 55.985344 -468.43664 56.2312 -468.4194 L 60.758346 -468.1017 C 61.29421 -468.0641 61.831224 -468.04527 62.368405 -468.04527 L 65.63046 -468.04526 C 66.58416 -468.04526 67.53693 -468.1046 68.48327 -468.2229 L 72.47198 -468.72146 C 73.131945 -468.80396 73.78802 -468.91504 74.43835 -469.0544 L 80.52039 -470.3577 C 81.41426 -470.54924 82.29592 -470.7939 83.16068 -471.0904 L 87.66952 -472.6363 C 88.46417 -472.90873 89.2433 -473.2245 90.0034 -473.5822 L 94.83677 -475.85674 C 95.38697 -476.11565 95.92668 -476.3963 96.45464 -476.698 L 100.2225 -478.85104 C 100.91529 -479.2469 101.58701 -479.6786 102.23494 -480.1443 L 106.91106 -483.50525 C 107.41175 -483.8651 107.89776 -484.24497 108.36792 -484.6439 L 113.68877 -489.15856 C 114.07108 -489.48294 114.44269 -489.81974 114.80298 -490.1684 L 119.5022 -494.71604 C 120.14179 -495.335 120.74491 -495.99056 121.30852 -496.6794 L 125.1018 -501.31566 C 125.60852 -501.935 126.08257 -502.5803 126.52201 -503.24904 L 130.13919 -508.75344 C 130.35462 -509.08127 130.56163 -509.41456 130.76002 -509.753 L 133.28311 -514.0571 C 133.66906 -514.71546 134.022 -515.39265 134.34062 -516.0861 L 136.45932 -520.6974 C 136.99218 -521.85715 137.36334 -523.08456 137.5624 -524.34526 L 137.5624 -524.34526 C 137.7407 -525.4745 137.1614 -526.588 136.13432 -527.0901 L 130.84088 -529.678 C 129.52642 -530.3206 128.29183 -531.11514 127.1624 -532.04526 L 126.75638 -532.3796 C 125.91205 -533.07496 125.28864 -534.00126 124.9624 -535.04526 L 124.9624 -535.04526 C 124.91573 -535.1946 124.75686 -535.2778 124.60754 -535.23114 C 124.49247 -535.1952 124.41277 -535.0903 124.40892 -534.9698 L 124.29968 -531.5469 C 124.20894 -528.7038 123.5916 -525.90224 122.479 -523.28433 L 121.60206 -521.22096 C 121.0435 -519.9067 120.36374 -518.6473 119.5716 -517.4591 L 115.88582 -511.9304 C 115.13831 -510.80915 114.2937 -509.75575 113.36175 -508.7824 L 107.06668 -502.2075 C 106.19861 -501.3009 105.25777 -500.4668 104.2536 -499.7137 L 95.8787 -493.4325 C 95.00228 -492.7752 94.08002 -492.1813 93.11896 -491.65546 L 85.93376 -487.72394 C 84.62263 -487.00653 83.2447 -486.4186 81.81952 -485.96857 L 75.14661 -483.86133 C 73.42973 -483.31916 71.65514 -482.98046 69.85927 -482.8522 L 62.972815 -482.3603 C 61.90052 -482.2837 60.82417 -482.2824 59.751685 -482.35635 L 51.31543 -482.93816 C 50.28125 -483.0095 49.25308 -483.15064 48.237946 -483.36067 L 41.10274 -484.8369 C 39.150787 -485.24077 37.259614 -485.89665 35.476757 -486.7881 L 30.81735 -489.1178 C 29.58321 -489.73485 28.407106 -490.4617 27.30326 -491.2896 L 21.621303 -495.5511 C 21.182167 -495.88043 20.754962 -496.2254 20.34051 -496.5853 L 14.585329 -501.58324 C 13.771043 -502.2904 13.007503 -503.0539 12.30036 -503.8682 L 7.895135 -508.9409 C 7.141032 -509.80925 6.453124 -510.73295 5.837199 -511.7042 L 2.103497 -517.592 C 1.7429312 -518.16056 1.4075053 -518.7447 1.0981885 -519.3427 L -.5221851 -522.47544 C -1.1313293 -523.6531 -1.6374978 -524.88126 -2.0350348 -526.14615 L -3.315274 -530.21964 C -3.530049 -530.903 -3.7127816 -531.59605 -3.862874 -532.2965 L -4.088291 -533.34843 C -4.1733646 -533.74544 -3.947007 -534.1431 -3.5622025 -534.27263 L -3.5622025 -534.27263 C -3.4897078 -534.29704 -3.4111556 -534.25805 -3.3867512 -534.18556 C -3.3687374 -534.13205 -3.38501 -534.07296 -3.427879 -534.0362 Z" fill="red"/>
      <path d="M -3.427879 -534.0362 L -8.157049 -529.98264 C -9.307397 -528.9966 -10.552357 -528.1267 -11.873787 -527.3855 L -14.400422 -525.96835 C -15.835594 -525.1634 -16.416397 -523.39425 -15.737611 -521.89527 L -14.719994 -519.64803 C -14.598415 -519.37954 -14.471687 -519.1134 -14.339879 -518.8498 L -12.537609 -515.24526 L -10.050623 -510.2713 C -9.708826 -509.5877 -9.333168 -508.92157 -8.925048 -508.2754 L -6.598656 -504.5919 C -6.15828 -503.89465 -5.68072 -503.2216 -5.168047 -502.5756 L -1.7573623 -498.27815 C -1.2113083 -497.5901 -.6262885 -496.93394 -.00517781 -496.31283 L 4.660865 -491.6468 C 5.0617455 -491.2459 5.477311 -490.86 5.90671 -490.4898 L 10.470235 -486.55574 C 10.864892 -486.2155 11.270997 -485.8888 11.687846 -485.5762 L 15.662786 -482.59497 C 16.328699 -482.09553 17.021233 -481.6326 17.737331 -481.20826 L 21.870394 -478.75904 C 21.99839 -478.6832 22.127117 -478.6086 22.25656 -478.53523 L 26.954107 -475.8733 C 27.692398 -475.4549 28.453276 -475.07774 29.233252 -474.74347 L 32.78307 -473.2221 C 33.36903 -472.971 33.96518 -472.74433 34.569974 -472.54274 L 39.58808 -470.87003 C 40.835325 -470.4543 42.11592 -470.14624 43.415795 -469.9493 L 47.51464 -469.32826 C 47.879756 -469.27294 48.24615 -469.2264 48.6135 -469.18874 L 55.494605 -468.483 C 55.73978 -468.45784 55.985344 -468.43664 56.2312 -468.4194 L 60.758346 -468.1017 C 61.29421 -468.0641 61.831224 -468.04527 62.368405 -468.04527 L 65.63046 -468.04526 C 66.58416 -468.04526 67.53693 -468.1046 68.48327 -468.2229 L 72.47198 -468.72146 C 73.131945 -468.80396 73.78802 -468.91504 74.43835 -469.0544 L 80.52039 -470.3577 C 81.41426 -470.54924 82.29592 -470.7939 83.16068 -471.0904 L 87.66952 -472.6363 C 88.46417 -472.90873 89.2433 -473.2245 90.0034 -473.5822 L 94.83677 -475.85674 C 95.38697 -476.11565 95.92668 -476.3963 96.45464 -476.698 L 100.2225 -478.85104 C 100.91529 -479.2469 101.58701 -479.6786 102.23494 -480.1443 L 106.91106 -483.50525 C 107.41175 -483.8651 107.89776 -484.24497 108.36792 -484.6439 L 113.68877 -489.15856 C 114.07108 -489.48294 114.44269 -489.81974 114.80298 -490.1684 L 119.5022 -494.71604 C 120.14179 -495.335 120.74491 -495.99056 121.30852 -496.6794 L 125.1018 -501.31566 C 125.60852 -501.935 126.08257 -502.5803 126.52201 -503.24904 L 130.13919 -508.75344 C 130.35462 -509.08127 130.56163 -509.41456 130.76002 -509.753 L 133.28311 -514.0571 C 133.66906 -514.71546 134.022 -515.39265 134.34062 -516.0861 L 136.45932 -520.6974 C 136.99218 -521.85715 137.36334 -523.08456 137.5624 -524.34526 L 137.5624 -524.34526 C 137.7407 -525.4745 137.1614 -526.588 136.13432 -527.0901 L 130.84088 -529.678 C 129.52642 -530.3206 128.29183 -531.11514 127.1624 -532.04526 L 126.75638 -532.3796 C 125.91205 -533.07496 125.28864 -534.00126 124.9624 -535.04526 L 124.9624 -535.04526 C 124.91573 -535.1946 124.75686 -535.2778 124.60754 -535.23114 C 124.49247 -535.1952 124.41277 -535.0903 124.40892 -534.9698 L 124.29968 -531.5469 C 124.20894 -528.7038 123.5916 -525.90224 122.479 -523.28433 L 121.60206 -521.22096 C 121.0435 -519.9067 120.36374 -518.6473 119.5716 -517.4591 L 115.88582 -511.9304 C 115.13831 -510.80915 114.2937 -509.75575 113.36175 -508.7824 L 107.06668 -502.2075 C 106.19861 -501.3009 105.25777 -500.4668 104.2536 -499.7137 L 95.8787 -493.4325 C 95.00228 -492.7752 94.08002 -492.1813 93.11896 -491.65546 L 85.93376 -487.72394 C 84.62263 -487.00653 83.2447 -486.4186 81.81952 -485.96857 L 75.14661 -483.86133 C 73.42973 -483.31916 71.65514 -482.98046 69.85927 -482.8522 L 62.972815 -482.3603 C 61.90052 -482.2837 60.82417 -482.2824 59.751685 -482.35635 L 51.31543 -482.93816 C 50.28125 -483.0095 49.25308 -483.15064 48.237946 -483.36067 L 41.10274 -484.8369 C 39.150787 -485.24077 37.259614 -485.89665 35.476757 -486.7881 L 30.81735 -489.1178 C 29.58321 -489.73485 28.407106 -490.4617 27.30326 -491.2896 L 21.621303 -495.5511 C 21.182167 -495.88043 20.754962 -496.2254 20.34051 -496.5853 L 14.585329 -501.58324 C 13.771043 -502.2904 13.007503 -503.0539 12.30036 -503.8682 L 7.895135 -508.9409 C 7.141032 -509.80925 6.453124 -510.73295 5.837199 -511.7042 L 2.103497 -517.592 C 1.7429312 -518.16056 1.4075053 -518.7447 1.0981885 -519.3427 L -.5221851 -522.47544 C -1.1313293 -523.6531 -1.6374978 -524.88126 -2.0350348 -526.14615 L -3.315274 -530.21964 C -3.530049 -530.903 -3.7127816 -531.59605 -3.862874 -532.2965 L -4.088291 -533.34843 C -4.1733646 -533.74544 -3.947007 -534.1431 -3.5622025 -534.27263 L -3.5622025 -534.27263 C -3.4897078 -534.29704 -3.4111556 -534.25805 -3.3867512 -534.18556 C -3.3687374 -534.13205 -3.38501 -534.07296 -3.427879 -534.0362 Z" stroke="#7f8080" stroke-linecap="round" stroke-linejoin="round" stroke-width="1"/>
      <path d="M -3.9407524 -534.2441 L 1.4592476 -534.8441 L 8.259248 -531.4441 L 13.259248 -529.6441 L 21.659248 -527.8441 L 30.059248 -526.8441 L 38.05925 -525.8441 L 45.65925 -525.6441 L 54.25925 -525.2441 L 65.85925 -525.4441 L 74.25925 -525.8441 L 83.65925 -526.4441 L 92.05925 -527.2441 L 101.25925 -528.6441 L 109.45925 -530.8441 L 115.25925 -532.6441 L 120.85925 -535.2441 L 123.65925 -534.0441 L 124.05925 -528.4441 L 121.25925 -520.4441 L 115.85925 -517.6441 L 105.25925 -514.4441 L 93.85925 -512.0441 L 82.65925 -511.2441 L 70.25925 -510.2441 L 59.85925 -510.2441 L 50.45925 -510.2441 L 38.85925 -510.8441 L 27.659248 -511.6441 L 17.059248 -513.8441 L 8.459248 -515.8441 L 2.2592477 -518.6441 L .25924763 -520.2441 L -2.9407524 -527.8441 Z" fill="url(#Obj_Gradient_2)"/>
      <path d="M -3.9407524 -534.2441 L 1.4592476 -534.8441 L 8.259248 -531.4441 L 13.259248 -529.6441 L 21.659248 -527.8441 L 30.059248 -526.8441 L 38.05925 -525.8441 L 45.65925 -525.6441 L 54.25925 -525.2441 L 65.85925 -525.4441 L 74.25925 -525.8441 L 83.65925 -526.4441 L 92.05925 -527.2441 L 101.25925 -528.6441 L 109.45925 -530.8441 L 115.25925 -532.6441 L 120.85925 -535.2441 L 123.65925 -534.0441 L 124.05925 -528.4441 L 121.25925 -520.4441 L 115.85925 -517.6441 L 105.25925 -514.4441 L 93.85925 -512.0441 L 82.65925 -511.2441 L 70.25925 -510.2441 L 59.85925 -510.2441 L 50.45925 -510.2441 L 38.85925 -510.8441 L 27.659248 -511.6441 L 17.059248 -513.8441 L 8.459248 -515.8441 L 2.2592477 -518.6441 L .25924763 -520.2441 L -2.9407524 -527.8441 Z" stroke="#7f8080" stroke-linecap="round" stroke-linejoin="round" stroke-width="1"/>
      <path d="M -74.18679 -107.79999 L -74.18679 -107.79999 C -74.25247 -107.27451 -74.189645 -106.74095 -74.0037 -106.2451 L -73.35269 -104.50908 C -73.17594 -104.03773 -72.94885 -103.58682 -72.67538 -103.16418 L -71.70757 -101.66847 C -71.16661 -100.83244 -70.45351 -100.12145 -69.61588 -99.58298 L -68.53783 -98.88995 C -68.23757 -98.69693 -67.922994 -98.52715 -67.59684 -98.38211 L -66.27999 -97.79651 C -65.68346 -97.53124 -65.052754 -97.35072 -64.40621 -97.2602 L -55.395787 -95.99874 C -55.38579 -95.99735 -55.3758 -95.99597 -55.3658 -95.99461 L -43.6498 -94.406 C -43.6038 -94.39976 -43.557737 -94.39399 -43.51162 -94.38866 L -33.228685 -93.20217 C -33.19676 -93.19849 -33.16481 -93.19502 -33.132835 -93.19178 L -19.42277 -91.8009 C -19.394787 -91.79807 -19.366788 -91.7954 -19.338774 -91.79289 L -8.233474 -90.80135 C -8.198356 -90.79821 -8.163214 -90.79534 -8.128052 -90.79274 L 2.5584846 -90.00114 C 2.5989637 -89.99815 2.639468 -89.9955 2.6799933 -89.9932 L 13.187976 -89.39841 C 13.208795 -89.39724 13.229608 -89.39596 13.250416 -89.3946 L 25.293193 -88.60491 C 25.377194 -88.5994 25.461288 -88.59541 25.545432 -88.59293 L 38.992557 -88.19743 C 39.010322 -88.19691 39.028085 -88.19632 39.045846 -88.19566 L 49.68971 -87.80144 C 49.77603 -87.79824 49.86241 -87.79665 49.94879 -87.79665 L 60.55781 -87.79665 C 60.59874 -87.79665 60.63967 -87.79629 60.680595 -87.79557 L 71.76702 -87.60107 C 71.93509 -87.59812 72.10321 -87.60123 72.27106 -87.61038 L 82.89229 -88.18972 C 82.97689 -88.19434 83.06157 -88.19742 83.14629 -88.19896 L 93.91085 -88.39468 C 93.98308 -88.39599 94.05529 -88.39842 94.12745 -88.40197 L 106.14607 -88.99305 C 106.19483 -88.99545 106.24355 -88.99835 106.29225 -89.00177 L 117.5323 -89.79055 C 117.59023 -89.79461 117.64812 -89.7994 117.70594 -89.80491 L 130.11651 -90.98687 C 130.18497 -90.99339 130.25352 -90.9989 130.32214 -91.0034 L 142.25416 -91.78582 C 142.36418 -91.79304 142.474 -91.80285 142.58355 -91.81525 L 152.9959 -92.99401 C 153.01144 -92.99577 153.02697 -92.99758 153.0425 -92.99944 L 162.9902 -94.19317 C 163.00954 -94.19549 163.02886 -94.19789 163.04818 -94.20037 L 176.88394 -95.97791 C 176.98115 -95.9904 177.0781 -96.00493 177.1747 -96.02149 L 183.72819 -97.14494 C 183.92915 -97.17939 184.13153 -97.20505 184.33473 -97.22183 L 187.56706 -97.4888 C 188.4563 -97.56225 189.3233 -97.80503 190.12135 -98.20406 L 191.60765 -98.94721 C 192.20824 -99.2475 192.7625 -99.63265 193.25338 -100.09081 L 194.5885 -101.33692 C 195.19532 -101.90328 195.65073 -102.61253 195.91322 -103.39999 L 196.20805 -104.28448 C 196.27812 -104.4947 196.33817 -104.70813 196.388 -104.92405 L 196.8577 -106.95944 C 196.89293 -107.11208 196.8595 -107.27248 196.76621 -107.39832 L 196.76621 -107.39832 C 196.67587 -107.5202 196.52523 -107.5817 196.3754 -107.55786 L 187.89555 -106.20879 C 187.84466 -106.2007 187.79385 -106.19204 187.74315 -106.18282 L 174.7584 -103.82195 C 174.66561 -103.80508 174.5725 -103.79009 174.47911 -103.77698 L 163.24943 -102.20089 C 163.22928 -102.19806 163.20914 -102.19514 163.18902 -102.19214 L 150.06643 -100.23355 C 149.90167 -100.20895 149.73608 -100.19025 149.56998 -100.17747 L 136.84517 -99.19864 C 136.82786 -99.19731 136.81055 -99.19604 136.79323 -99.19484 L 122.45308 -98.199 C 122.4305 -98.19743 122.4079 -98.19597 122.38531 -98.19462 L 109.08205 -97.4004 C 109.04016 -97.3979 108.99824 -97.39577 108.9563 -97.39403 L 94.76485 -96.80271 C 94.66776 -96.79867 94.5706 -96.79665 94.47344 -96.79665 L 81.21921 -96.79665 L 68.677535 -96.79665 C 68.63865 -96.79665 68.599764 -96.79632 68.560884 -96.79567 L 56.802496 -96.5997 C 56.68032 -96.59766 56.55812 -96.59883 56.436005 -96.60319 L 45.602405 -96.9901 C 45.48029 -96.99446 45.358087 -96.99563 45.235914 -96.99359 L 33.521274 -96.79835 C 33.45323 -96.79721 33.385176 -96.79707 33.31713 -96.79792 L 17.614845 -96.9942 C 17.484443 -96.99583 17.354113 -97.0011 17.224007 -97.01002 L 2.914229 -97.99014 C 2.8508822 -97.99448 2.7875974 -97.99968 2.7243922 -98.00574 L -11.766614 -99.39529 C -11.776069 -99.39619 -11.785521 -99.39712 -11.794972 -99.39806 L -25.607008 -100.77927 C -25.72285 -100.79085 -25.838382 -100.80532 -25.9535 -100.82267 L -40.262653 -102.97884 C -40.34141 -102.99071 -40.420363 -103.00123 -40.49948 -103.01041 L -54.01941 -104.57793 C -54.126987 -104.59041 -54.23426 -104.60537 -54.34114 -104.62282 L -63.73323 -106.15623 C -63.89822 -106.18316 -64.062195 -106.216 -64.224836 -106.25468 L -73.302435 -108.41346 C -73.69075 -108.50581 -74.08041 -108.26588 -74.17276 -107.87756 C -74.17884 -107.85198 -74.183525 -107.82608 -74.18679 -107.79999 Z" fill="red"/>
      <path d="M -74.18679 -107.79999 L -74.18679 -107.79999 C -74.25247 -107.27451 -74.189645 -106.74095 -74.0037 -106.2451 L -73.35269 -104.50908 C -73.17594 -104.03773 -72.94885 -103.58682 -72.67538 -103.16418 L -71.70757 -101.66847 C -71.16661 -100.83244 -70.45351 -100.12145 -69.61588 -99.58298 L -68.53783 -98.88995 C -68.23757 -98.69693 -67.922994 -98.52715 -67.59684 -98.38211 L -66.27999 -97.79651 C -65.68346 -97.53124 -65.052754 -97.35072 -64.40621 -97.2602 L -55.395787 -95.99874 C -55.38579 -95.99735 -55.3758 -95.99597 -55.3658 -95.99461 L -43.6498 -94.406 C -43.6038 -94.39976 -43.557737 -94.39399 -43.51162 -94.38866 L -33.228685 -93.20217 C -33.19676 -93.19849 -33.16481 -93.19502 -33.132835 -93.19178 L -19.42277 -91.8009 C -19.394787 -91.79807 -19.366788 -91.7954 -19.338774 -91.79289 L -8.233474 -90.80135 C -8.198356 -90.79821 -8.163214 -90.79534 -8.128052 -90.79274 L 2.5584846 -90.00114 C 2.5989637 -89.99815 2.639468 -89.9955 2.6799933 -89.9932 L 13.187976 -89.39841 C 13.208795 -89.39724 13.229608 -89.39596 13.250416 -89.3946 L 25.293193 -88.60491 C 25.377194 -88.5994 25.461288 -88.59541 25.545432 -88.59293 L 38.992557 -88.19743 C 39.010322 -88.19691 39.028085 -88.19632 39.045846 -88.19566 L 49.68971 -87.80144 C 49.77603 -87.79824 49.86241 -87.79665 49.94879 -87.79665 L 60.55781 -87.79665 C 60.59874 -87.79665 60.63967 -87.79629 60.680595 -87.79557 L 71.76702 -87.60107 C 71.93509 -87.59812 72.10321 -87.60123 72.27106 -87.61038 L 82.89229 -88.18972 C 82.97689 -88.19434 83.06157 -88.19742 83.14629 -88.19896 L 93.91085 -88.39468 C 93.98308 -88.39599 94.05529 -88.39842 94.12745 -88.40197 L 106.14607 -88.99305 C 106.19483 -88.99545 106.24355 -88.99835 106.29225 -89.00177 L 117.5323 -89.79055 C 117.59023 -89.79461 117.64812 -89.7994 117.70594 -89.80491 L 130.11651 -90.98687 C 130.18497 -90.99339 130.25352 -90.9989 130.32214 -91.0034 L 142.25416 -91.78582 C 142.36418 -91.79304 142.474 -91.80285 142.58355 -91.81525 L 152.9959 -92.99401 C 153.01144 -92.99577 153.02697 -92.99758 153.0425 -92.99944 L 162.9902 -94.19317 C 163.00954 -94.19549 163.02886 -94.19789 163.04818 -94.20037 L 176.88394 -95.97791 C 176.98115 -95.9904 177.0781 -96.00493 177.1747 -96.02149 L 183.72819 -97.14494 C 183.92915 -97.17939 184.13153 -97.20505 184.33473 -97.22183 L 187.56706 -97.4888 C 188.4563 -97.56225 189.3233 -97.80503 190.12135 -98.20406 L 191.60765 -98.94721 C 192.20824 -99.2475 192.7625 -99.63265 193.25338 -100.09081 L 194.5885 -101.33692 C 195.19532 -101.90328 195.65073 -102.61253 195.91322 -103.39999 L 196.20805 -104.28448 C 196.27812 -104.4947 196.33817 -104.70813 196.388 -104.92405 L 196.8577 -106.95944 C 196.89293 -107.11208 196.8595 -107.27248 196.76621 -107.39832 L 196.76621 -107.39832 C 196.67587 -107.5202 196.52523 -107.5817 196.3754 -107.55786 L 187.89555 -106.20879 C 187.84466 -106.2007 187.79385 -106.19204 187.74315 -106.18282 L 174.7584 -103.82195 C 174.66561 -103.80508 174.5725 -103.79009 174.47911 -103.77698 L 163.24943 -102.20089 C 163.22928 -102.19806 163.20914 -102.19514 163.18902 -102.19214 L 150.06643 -100.23355 C 149.90167 -100.20895 149.73608 -100.19025 149.56998 -100.17747 L 136.84517 -99.19864 C 136.82786 -99.19731 136.81055 -99.19604 136.79323 -99.19484 L 122.45308 -98.199 C 122.4305 -98.19743 122.4079 -98.19597 122.38531 -98.19462 L 109.08205 -97.4004 C 109.04016 -97.3979 108.99824 -97.39577 108.9563 -97.39403 L 94.76485 -96.80271 C 94.66776 -96.79867 94.5706 -96.79665 94.47344 -96.79665 L 81.21921 -96.79665 L 68.677535 -96.79665 C 68.63865 -96.79665 68.599764 -96.79632 68.560884 -96.79567 L 56.802496 -96.5997 C 56.68032 -96.59766 56.55812 -96.59883 56.436005 -96.60319 L 45.602405 -96.9901 C 45.48029 -96.99446 45.358087 -96.99563 45.235914 -96.99359 L 33.521274 -96.79835 C 33.45323 -96.79721 33.385176 -96.79707 33.31713 -96.79792 L 17.614845 -96.9942 C 17.484443 -96.99583 17.354113 -97.0011 17.224007 -97.01002 L 2.914229 -97.99014 C 2.8508822 -97.99448 2.7875974 -97.99968 2.7243922 -98.00574 L -11.766614 -99.39529 C -11.776069 -99.39619 -11.785521 -99.39712 -11.794972 -99.39806 L -25.607008 -100.77927 C -25.72285 -100.79085 -25.838382 -100.80532 -25.9535 -100.82267 L -40.262653 -102.97884 C -40.34141 -102.99071 -40.420363 -103.00123 -40.49948 -103.01041 L -54.01941 -104.57793 C -54.126987 -104.59041 -54.23426 -104.60537 -54.34114 -104.62282 L -63.73323 -106.15623 C -63.89822 -106.18316 -64.062195 -106.216 -64.224836 -106.25468 L -73.302435 -108.41346 C -73.69075 -108.50581 -74.08041 -108.26588 -74.17276 -107.87756 C -74.17884 -107.85198 -74.183525 -107.82608 -74.18679 -107.79999 Z" stroke="#7f8080" stroke-linecap="round" stroke-linejoin="round" stroke-width="1"/>
      <path d="M -42.6583 -104.1139 L -46.97203 -104.53887 L -57.97203 -105.53887 L -70.97203 -107.53887 L -74.97203 -109.53887 L -69.97203 -140.53887 L -68.1583 -166.6139 L -65.6583 -194.6139 L -64.1583 -221.6139 L -63.6583 -250.6139 L -62.1583 -277.6139 L -61.6583 -303.1139 L -62.6583 -339.1139 L -63.6583 -372.6139 L -63.6583 -387.6139 L -66.1583 -403.1139 L -68.6583 -418.1139 L -73.1583 -433.6139 L -77.6583 -448.1139 L -82.6583 -461.6139 L -89.1583 -475.1139 L -95.6583 -485.6139 L -99.1583 -492.1139 L -89.97203 -498.53887 L -76.97203 -503.53887 L -63.97203 -507.53887 L -45.6583 -513.1139 L -40.1583 -514.6139 Z" fill="white"/>
      <path d="M -42.6583 -104.1139 L -46.97203 -104.53887 L -57.97203 -105.53887 L -70.97203 -107.53887 L -74.97203 -109.53887 L -69.97203 -140.53887 L -68.1583 -166.6139 L -65.6583 -194.6139 L -64.1583 -221.6139 L -63.6583 -250.6139 L -62.1583 -277.6139 L -61.6583 -303.1139 L -62.6583 -339.1139 L -63.6583 -372.6139 L -63.6583 -387.6139 L -66.1583 -403.1139 L -68.6583 -418.1139 L -73.1583 -433.6139 L -77.6583 -448.1139 L -82.6583 -461.6139 L -89.1583 -475.1139 L -95.6583 -485.6139 L -99.1583 -492.1139 L -89.97203 -498.53887 L -76.97203 -503.53887 L -63.97203 -507.53887 L -45.6583 -513.1139 L -40.1583 -514.6139 Z" stroke="#7f8080" stroke-linecap="round" stroke-linejoin="round" stroke-width="1"/>
      <path d="M -2.5 -100 L 3 -99 L 17 -98.5 L 38 -98.5 L 38 -472 L 26 -476 L 19 -480 L 10 -486 L 1 -494.5 Z" fill="white"/>
      <path d="M -2.5 -100 L 3 -99 L 17 -98.5 L 38 -98.5 L 38 -472 L 26 -476 L 19 -480 L 10 -486 L 1 -494.5 Z" stroke="#7f8080" stroke-linecap="round" stroke-linejoin="round" stroke-width="1"/>
      <path d="M 91 -473.5 L 100 -478.5 L 106 -483 L 114 -489 L 120 -495.5 L 124.5 -99.5 L 107.5 -98.5 L 96.5 -98 L 90 -97.5 L 86 -98 L 87 -98 L 83 -470.5 Z" fill="white"/>
      <path d="M 91 -473.5 L 100 -478.5 L 106 -483 L 114 -489 L 120 -495.5 L 124.5 -99.5 L 107.5 -98.5 L 96.5 -98 L 90 -97.5 L 86 -98 L 87 -98 L 83 -470.5 Z" stroke="#7f8080" stroke-linecap="round" stroke-linejoin="round" stroke-width="1"/>
      <path d="M 82.2 -97.8 L 92.2 -97.8 L 87 -471.8 L 78 -469.8 Z" fill="red"/>
      <path d="M 82.2 -97.8 L 92.2 -97.8 L 87 -471.8 L 78 -469.8 Z" stroke="gray" stroke-linecap="round" stroke-linejoin="round" stroke-width=".25"/>
      <path d="M 37.6 -97.8 L 47.2 -97.5 L 42 -470.8 L 32.8 -473.8 Z" fill="red"/>
      <path d="M 37.6 -97.8 L 47.2 -97.5 L 42 -470.8 L 32.8 -473.8 Z" stroke="gray" stroke-linecap="round" stroke-linejoin="round" stroke-width=".25"/>
      <path d="M -2.7999997 -99.6 L 7.200003 -98.5 L 1.8000004 -494.2 L -7.4 -506 Z" fill="red"/>
      <path d="M -2.7999997 -99.6 L 7.200003 -98.5 L 1.8000004 -494.2 L -7.4 -506 Z" stroke="gray" stroke-linecap="round" stroke-linejoin="round" stroke-width=".25"/>
      <path d="M 121.6 -99 L 131.8 -99.8 L 124.4 -500.2 L 116.8 -492.8 Z" fill="red"/>
      <path d="M 121.6 -99 L 131.8 -99.8 L 124.4 -500.2 L 116.8 -492.8 Z" stroke="gray" stroke-linecap="round" stroke-linejoin="round" stroke-width=".25"/>
      <path d="M 158.6 -102.2 L 168.6 -102.8 L 162.6 -513.4 L 153 -517.4 Z" fill="red"/>
      <path d="M 158.6 -102.2 L 168.6 -102.8 L 162.6 -513.4 L 153 -517.4 Z" stroke="gray" stroke-linecap="round" stroke-linejoin="round" stroke-width=".25"/>
      <path d="M -42.675447 -104.1139 L -32.675447 -104.1139 L -39.5 -514.5 L -47.5 -512.5 Z" fill="red"/>
      <path d="M -42.675447 -104.1139 L -32.675447 -104.1139 L -39.5 -514.5 L -47.5 -512.5 Z" stroke="gray" stroke-linecap="round" stroke-linejoin="round" stroke-width=".25"/>
      <path d="M 168.27291 -103.16281 L 179.47305 -104.16648 L 192.70958 -106.17381 L 196.78235 -108.18115 L 191.69138 -139.29484 L 188.6368 -166.39386 L 186.6004 -193.49289 L 183.54583 -220.5919 L 182.52763 -248.6946 L 182.52763 -277.80095 L 181.50944 -301.88897 L 181.50944 -339.02467 L 183.54583 -372.1457 L 186.6004 -403.2594 L 189.2 -418.2 L 193.72777 -434.3731 L 198.4 -448.2 L 204 -460.6 L 211 -474.8 L 217.8 -486 L 221.8 -492.6 L 212.05527 -498.6078 L 198.81874 -503.62614 L 185.58222 -507.6408 L 163.2 -512.8 L 163 -103 Z" fill="white"/>
      <path d="M 168.27291 -103.16281 L 179.47305 -104.16648 L 192.70958 -106.17381 L 196.78235 -108.18115 L 191.69138 -139.29484 L 188.6368 -166.39386 L 186.6004 -193.49289 L 183.54583 -220.5919 L 182.52763 -248.6946 L 182.52763 -277.80095 L 181.50944 -301.88897 L 181.50944 -339.02467 L 183.54583 -372.1457 L 186.6004 -403.2594 L 189.2 -418.2 L 193.72777 -434.3731 L 198.4 -448.2 L 204 -460.6 L 211 -474.8 L 217.8 -486 L 221.8 -492.6 L 212.05527 -498.6078 L 198.81874 -503.62614 L 185.58222 -507.6408 L 163.2 -512.8 L 163 -103 Z" stroke="#7f8080" stroke-linecap="round" stroke-linejoin="round" stroke-width="1"/>
      <path d="M 277.4053 -385.49725 L 271.2053 -381.09725 L 263.0053 -377.09725 L 254.4053 -373.49725 L 245.4053 -369.69725 L 234.4053 -365.69725 L 225.0053 -362.89725 L 216.0053 -360.29725 L 207.0053 -357.69725 L 201.6053 -356.29725 L 196.00529 -355.29725 L 193.00529 -361.69725 L 196.8053 -362.49725 L 201.6053 -363.69725 L 207.2053 -364.89725 L 213.2053 -366.69725 L 217.8053 -368.09725 L 222.0053 -369.29725 L 226.6053 -371.29725 L 231.2053 -372.89725 L 236.0053 -374.89725 L 240.0053 -376.29725 L 245.2053 -378.49725 L 249.8053 -380.09725 L 254.6053 -382.29725 L 259.4053 -384.09725 L 263.4053 -386.09725 L 267.8053 -388.29725 L 272.2053 -390.49725 L 275.6053 -392.09725 Z" fill="white"/>
      <path d="M 277.4053 -385.49725 L 271.2053 -381.09725 L 263.0053 -377.09725 L 254.4053 -373.49725 L 245.4053 -369.69725 L 234.4053 -365.69725 L 225.0053 -362.89725 L 216.0053 -360.29725 L 207.0053 -357.69725 L 201.6053 -356.29725 L 196.00529 -355.29725 L 193.00529 -361.69725 L 196.8053 -362.49725 L 201.6053 -363.69725 L 207.2053 -364.89725 L 213.2053 -366.69725 L 217.8053 -368.09725 L 222.0053 -369.29725 L 226.6053 -371.29725 L 231.2053 -372.89725 L 236.0053 -374.89725 L 240.0053 -376.29725 L 245.2053 -378.49725 L 249.8053 -380.09725 L 254.6053 -382.29725 L 259.4053 -384.09725 L 263.4053 -386.09725 L 267.8053 -388.29725 L 272.2053 -390.49725 L 275.6053 -392.09725 Z" stroke="#7f8080" stroke-linecap="round" stroke-linejoin="round" stroke-width="1"/>
      <path d="M -154 -384.55385 L -147.8 -380.15385 L -139.6 -376.15385 L -131 -372.55385 L -122 -368.75385 L -111 -364.75385 L -101.6 -361.95385 L -92.6 -359.35385 L -83.6 -356.75385 L -78.2 -355.35385 L -72.6 -354.35385 L -69.6 -360.75385 L -73.4 -361.55385 L -78.2 -362.75385 L -83.8 -363.95385 L -89.8 -365.75385 L -94.4 -367.15385 L -98.6 -368.35385 L -103.2 -370.35385 L -107.8 -371.95385 L -112.6 -373.95385 L -116.6 -375.35385 L -121.8 -377.55385 L -126.4 -379.15385 L -131.2 -381.35385 L -136 -383.15385 L -140 -385.15385 L -144.4 -387.35385 L -148.8 -389.55385 L -152.2 -391.15385 Z" fill="white"/>
      <path d="M -154 -384.55385 L -147.8 -380.15385 L -139.6 -376.15385 L -131 -372.55385 L -122 -368.75385 L -111 -364.75385 L -101.6 -361.95385 L -92.6 -359.35385 L -83.6 -356.75385 L -78.2 -355.35385 L -72.6 -354.35385 L -69.6 -360.75385 L -73.4 -361.55385 L -78.2 -362.75385 L -83.8 -363.95385 L -89.8 -365.75385 L -94.4 -367.15385 L -98.6 -368.35385 L -103.2 -370.35385 L -107.8 -371.95385 L -112.6 -373.95385 L -116.6 -375.35385 L -121.8 -377.55385 L -126.4 -379.15385 L -131.2 -381.35385 L -136 -383.15385 L -140 -385.15385 L -144.4 -387.35385 L -148.8 -389.55385 L -152.2 -391.15385 Z" stroke="#7f8080" stroke-linecap="round" stroke-linejoin="round" stroke-width="1"/>
    </g>
  </g>
</svg>
