<?xml version="1.0" encoding="UTF-8" standalone="no"?>
<!DOCTYPE svg PUBLIC "-//W3C//DTD SVG 1.1//EN" "http://www.w3.org/Graphics/SVG/1.1/DTD/svg11.dtd">
<svg xmlns="http://www.w3.org/2000/svg" xmlns:xl="http://www.w3.org/1999/xlink" version="1.1" viewBox="792.2974 744.3 432.4053 451.4" width="432.4053pt" height="451.4pt" xmlns:dc="http://purl.org/dc/elements/1.1/">
  <metadata> Produced by OmniGraffle 7.6.1 
    <dc:date>2019-05-26 07:17:28 +0000</dc:date>
  </metadata>
  <defs>
    <radialGradient cx="0" cy="0" r="1" id="Gradient" gradientUnits="userSpaceOnUse">
      <stop offset="0" stop-color="#cbcbcb"/>
      <stop offset="1" stop-color="#843918"/>
    </radialGradient>
    <radialGradient id="Obj_Gradient" xl:href="#Gradient" gradientTransform="translate(1007.5566 772.2) scale(70.26272)"/>
    <linearGradient x1="0" x2="1" id="Gradient_2" gradientUnits="userSpaceOnUse">
      <stop offset="0" stop-color="#00007a"/>
      <stop offset="1" stop-color="#020509"/>
    </linearGradient>
    <linearGradient id="Obj_Gradient_2" xl:href="#Gradient_2" gradientTransform="translate(1008.5 749.0817) rotate(90) scale(446.1183)"/>
    <linearGradient x1="0" x2="1" id="Gradient_3" gradientUnits="userSpaceOnUse">
      <stop offset="0" stop-color="white"/>
      <stop offset="1" stop-color="#143254"/>
    </linearGradient>
    <linearGradient id="Obj_Gradient_3" xl:href="#Gradient_3" gradientTransform="translate(1006.8566 746.6792) rotate(90) scale(25)"/>
    <radialGradient cx="0" cy="0" r="1" id="Gradient_4" gradientUnits="userSpaceOnUse">
      <stop offset="0" stop-color="white"/>
      <stop offset="1" stop-color="#0e1f52"/>
    </radialGradient>
    <radialGradient id="Obj_Gradient_4" xl:href="#Gradient_4" gradientTransform="translate(1008.127 1184.7834) scale(135.94141)"/>
  </defs>
  <g stroke="none" stroke-opacity="1" stroke-dasharray="none" fill="none" fill-opacity="1">
    <title>escocia</title>
    <g>
      <title>Capa 1</title>
      <path d="M 945.803 745.3904 L 953.9685 748.5082 C 954.8265 748.8358 955.7033 749.1117 956.5943 749.3344 L 970.3115 752.7637 C 971.4731 753.0541 972.6557 753.2534 973.8484 753.3597 L 991.3745 754.9214 C 991.9624 754.9738 992.552 755.0035 993.1421 755.0105 L 1008.621 755.1948 C 1008.9114 755.1983 1009.2018 755.1962 1009.492 755.1887 L 1023.9154 754.8141 C 1024.2761 754.8047 1024.6367 754.7868 1024.9966 754.7605 L 1039.3679 753.7089 C 1040.3593 753.6364 1041.345 753.4996 1042.3188 753.29955 L 1053.8917 750.92155 C 1054.9337 750.7074 1055.9596 750.4213 1056.962 750.0652 L 1068.714 745.8901 C 1069.8044 745.5028 1071.0076 746.0335 1071.4566 747.1 L 1071.4566 747.1 C 1071.9788 748.3401 1072.1307 749.70485 1071.8942 751.02945 L 1071.7137 752.0401 C 1071.41 753.7413 1070.9154 755.4028 1070.2395 756.9932 L 1068.6963 760.6243 C 1068.1377 761.9386 1067.458 763.198 1066.6658 764.3862 L 1062.98 769.91485 C 1062.2325 771.0361 1061.3879 772.0895 1060.456 773.0629 L 1054.1609 779.6377 C 1053.2928 780.5444 1052.352 781.3785 1051.3478 782.1316 L 1042.9729 788.4128 C 1042.0965 789.0701 1041.1742 789.6639 1040.2132 790.1898 L 1033.028 794.1213 C 1031.7168 794.8387 1030.3389 795.4266 1028.9137 795.8767 L 1022.2408 797.9839 C 1020.524 798.5261 1018.7494 798.8648 1016.9535 798.9931 L 1010.067 799.485 C 1008.9947 799.5616 1007.9184 799.5629 1006.8459 799.4889 L 998.4096 798.9071 C 997.3755 798.8358 996.3473 798.6946 995.3322 798.4846 L 988.197 797.0083 C 986.245 796.6045 984.3538 795.9486 982.571 795.0572 L 977.9116 792.7275 C 976.6774 792.1104 975.5013 791.3835 974.3975 790.55565 L 968.7155 786.2942 C 968.2764 785.9648 967.8492 785.6199 967.4347 785.2599 L 961.6795 780.262 C 960.8653 779.5549 960.1017 778.7913 959.3946 777.9771 L 954.9894 772.9044 C 954.2352 772.036 953.5473 771.1123 952.9314 770.14105 L 949.1977 764.2533 C 948.8371 763.6847 948.5017 763.1006 948.1924 762.50255 L 946.572 759.3698 C 945.9629 758.1921 945.4567 756.964 945.0592 755.6991 L 943.7789 751.6256 C 943.5642 750.9422 943.3814 750.2492 943.2313 749.5488 L 943.1566 749.2 C 942.9619 748.2916 943.0692 747.3444 943.4621 746.5025 L 943.5566 746.3 C 943.9511 745.4547 944.9316 745.0577 945.803 745.3904 Z" fill="url(#Obj_Gradient)"/>
      <path d="M 945.803 745.3904 L 953.9685 748.5082 C 954.8265 748.8358 955.7033 749.1117 956.5943 749.3344 L 970.3115 752.7637 C 971.4731 753.0541 972.6557 753.2534 973.8484 753.3597 L 991.3745 754.9214 C 991.9624 754.9738 992.552 755.0035 993.1421 755.0105 L 1008.621 755.1948 C 1008.9114 755.1983 1009.2018 755.1962 1009.492 755.1887 L 1023.9154 754.8141 C 1024.2761 754.8047 1024.6367 754.7868 1024.9966 754.7605 L 1039.3679 753.7089 C 1040.3593 753.6364 1041.345 753.4996 1042.3188 753.29955 L 1053.8917 750.92155 C 1054.9337 750.7074 1055.9596 750.4213 1056.962 750.0652 L 1068.714 745.8901 C 1069.8044 745.5028 1071.0076 746.0335 1071.4566 747.1 L 1071.4566 747.1 C 1071.9788 748.3401 1072.1307 749.70485 1071.8942 751.02945 L 1071.7137 752.0401 C 1071.41 753.7413 1070.9154 755.4028 1070.2395 756.9932 L 1068.6963 760.6243 C 1068.1377 761.9386 1067.458 763.198 1066.6658 764.3862 L 1062.98 769.91485 C 1062.2325 771.0361 1061.3879 772.0895 1060.456 773.0629 L 1054.1609 779.6377 C 1053.2928 780.5444 1052.352 781.3785 1051.3478 782.1316 L 1042.9729 788.4128 C 1042.0965 789.0701 1041.1742 789.6639 1040.2132 790.1898 L 1033.028 794.1213 C 1031.7168 794.8387 1030.3389 795.4266 1028.9137 795.8767 L 1022.2408 797.9839 C 1020.524 798.5261 1018.7494 798.8648 1016.9535 798.9931 L 1010.067 799.485 C 1008.9947 799.5616 1007.9184 799.5629 1006.8459 799.4889 L 998.4096 798.9071 C 997.3755 798.8358 996.3473 798.6946 995.3322 798.4846 L 988.197 797.0083 C 986.245 796.6045 984.3538 795.9486 982.571 795.0572 L 977.9116 792.7275 C 976.6774 792.1104 975.5013 791.3835 974.3975 790.55565 L 968.7155 786.2942 C 968.2764 785.9648 967.8492 785.6199 967.4347 785.2599 L 961.6795 780.262 C 960.8653 779.5549 960.1017 778.7913 959.3946 777.9771 L 954.9894 772.9044 C 954.2352 772.036 953.5473 771.1123 952.9314 770.14105 L 949.1977 764.2533 C 948.8371 763.6847 948.5017 763.1006 948.1924 762.50255 L 946.572 759.3698 C 945.9629 758.1921 945.4567 756.964 945.0592 755.6991 L 943.7789 751.6256 C 943.5642 750.9422 943.3814 750.2492 943.2313 749.5488 L 943.1566 749.2 C 942.9619 748.2916 943.0692 747.3444 943.4621 746.5025 L 943.5566 746.3 C 943.9511 745.4547 944.9316 745.0577 945.803 745.3904 Z" stroke="#7f8080" stroke-linecap="round" stroke-linejoin="round" stroke-width="1"/>
      <path d="M 881.7708 1185.0638 L 895.513 1187.3542 C 895.6964 1187.3847 895.8803 1187.4121 896.0647 1187.4362 L 924.4183 1191.1515 C 924.6648 1191.1838 924.9121 1191.2104 925.1598 1191.2312 L 955.4027 1193.7677 C 955.6596 1193.7892 955.917 1193.8046 956.1747 1193.8137 L 995.1056 1195.19 C 995.2939 1195.1967 995.4824 1195.2 995.6709 1195.2 L 1027.1382 1195.2 C 1027.3048 1195.2 1027.4714 1195.1974 1027.638 1195.1922 L 1052.6727 1194.4099 C 1052.883 1194.4033 1053.0931 1194.3926 1053.3029 1194.3777 L 1075.3507 1192.8168 C 1075.509 1192.8056 1075.6671 1192.792 1075.825 1192.7761 L 1101.0855 1190.2305 C 1101.2872 1190.2102 1101.4886 1190.186 1101.6894 1190.158 L 1125.4821 1186.8426 C 1125.6861 1186.8142 1125.8895 1186.7819 1126.0923 1186.7456 L 1135.2881 1185.1 C 1140.6152 1184.1467 1144.2661 1179.1931 1143.5997 1173.8226 L 1141.3921 1156.032 C 1141.3895 1156.0107 1141.3869 1155.9893 1141.3843 1155.968 L 1137.8205 1126.2695 C 1137.7989 1126.0898 1137.7804 1125.9098 1137.765 1125.7296 L 1135.4027 1098.1704 C 1135.393 1098.0568 1135.3845 1097.9431 1135.3772 1097.8294 L 1133.9906 1076.2377 C 1133.989 1076.2126 1133.9873 1076.1874 1133.9855 1076.1623 L 1132.3934 1053.076 C 1132.3899 1053.0253 1132.3866 1052.9747 1132.3836 1052.924 L 1131.2073 1033.1218 C 1131.1945 1032.9073 1131.1861 1032.6925 1131.182 1032.4777 L 1130.7897 1011.8829 C 1130.7887 1011.8276 1130.7873 1011.7724 1130.7857 1011.7172 L 1130.1906 991.4828 C 1130.189 991.4276 1130.1876 991.3724 1130.1866 991.3172 L 1129.7959 970.8076 C 1129.7907 970.5359 1129.7925 970.2641 1129.8011 969.9925 L 1130.3871 951.6329 C 1130.3878 951.611 1130.3885 951.589 1130.3893 951.5671 L 1131.1774 929.6978 C 1131.1846 929.4993 1131.1954 929.3009 1131.21 929.1028 L 1132.7674 907.8822 C 1132.7812 907.6941 1132.7917 907.5057 1132.7989 907.3172 L 1133.5533 887.4184 C 1133.5765 886.8066 1133.6348 886.1967 1133.7279 885.5916 L 1136.4669 867.7881 C 1136.5477 867.263 1136.6546 866.7423 1136.7871 866.2278 L 1141.4154 848.2702 C 1141.5305 847.8236 1141.6649 847.3822 1141.8181 846.9472 L 1147.5389 830.7076 C 1147.705 830.2361 1147.893 829.7727 1148.1025 829.3188 L 1153.6341 817.3338 C 1153.7368 817.1113 1153.8446 816.8912 1153.9574 816.6736 L 1159.3196 806.3322 C 1159.3653 806.2441 1159.4118 806.1564 1159.4591 806.0691 L 1164.6751 796.4521 C 1165.4124 795.0928 1166.362 793.8599 1167.4881 792.8 L 1167.4881 792.8 C 1168.1633 792.1645 1168.1955 791.102 1167.56 790.4268 C 1167.4356 790.2946 1167.2904 790.1834 1167.1303 790.0976 L 1163.9162 788.3757 C 1163.6975 788.2586 1163.4762 788.1466 1163.2523 788.0397 L 1155.3983 784.2912 C 1154.9917 784.0972 1154.5771 783.9204 1154.1556 783.7613 L 1144.4807 780.1104 C 1144.2857 780.0368 1144.0892 779.967 1143.8915 779.9011 L 1131.197 775.6696 C 1131.0578 775.6232 1130.9179 775.5787 1130.7775 775.5362 L 1117.894 771.6321 C 1117.8234 771.6107 1117.753 771.5888 1117.6828 771.5665 L 1105.1788 767.5879 C 1104.7852 767.4627 1104.3965 767.32225 1104.0138 767.1669 L 1092.0378 762.3071 C 1091.2062 761.9696 1090.4044 761.5628 1089.641 761.0908 L 1080.0217 755.1444 C 1079.866 755.0481 1079.712 754.9492 1079.5597 754.8477 L 1074.6696 751.5876 C 1073.6882 750.93335 1072.8169 750.12745 1072.0881 749.2 L 1072.0881 749.2 C 1071.9825 749.0656 1071.788 749.0422 1071.6536 749.14785 C 1071.5508 749.2286 1071.5098 749.3651 1071.5512 749.4891 L 1071.6881 749.9 C 1072.1474 751.27775 1072.252 752.749 1071.9922 754.1779 L 1071.597 756.35115 C 1071.3258 757.8428 1070.844 759.28835 1070.166 760.6444 L 1068.6336 763.709 C 1068.3369 764.3024 1068.0036 764.8768 1067.6356 765.4288 L 1064.4319 770.2344 C 1064.0033 770.8773 1063.5287 771.4883 1063.0118 772.0626 L 1058.4497 777.13155 C 1058.4087 777.1772 1058.3673 777.2226 1058.3258 777.2677 L 1052.3315 783.7758 C 1051.7038 784.4573 1051.018 785.083 1050.282 785.6459 L 1045.2578 789.4879 C 1044.8117 789.8291 1044.3479 790.1465 1043.8683 790.4389 L 1037.3819 794.394 C 1036.7203 794.7975 1036.0302 795.1523 1035.3171 795.4558 L 1028.2017 798.4836 C 1027.394 798.8273 1026.5594 799.1039 1025.7064 799.3107 L 1021.6273 800.2996 C 1020.8025 800.4995 1019.9631 800.6336 1019.117 800.70035 L 1013.4168 801.1504 C 1012.9978 801.1834 1012.5778 801.2 1012.1575 801.2 L 1005.1252 801.2 C 1004.3681 801.2 1003.612 801.1463 1002.8625 801.0392 L 994.916 799.904 C 994.431 799.8347 993.9495 799.7432 993.4728 799.6297 L 987.5116 798.21035 C 986.3661 797.9376 985.2543 797.5393 984.1962 797.0225 L 977.9162 793.95555 C 977.4311 793.7187 976.9584 793.4574 976.4997 793.1727 L 972.2879 790.5585 C 971.6887 790.1866 971.1148 789.77545 970.5699 789.3278 L 966.1237 785.6757 C 965.9 785.4919 965.6814 785.3021 965.468 785.1065 L 961.6656 781.621 C 961.2143 781.20735 960.7872 780.7681 960.3862 780.3055 L 956.2675 775.5531 C 955.9481 775.1845 955.6457 774.8016 955.3613 774.4055 L 950.9317 768.2356 C 950.4368 767.5463 949.9975 766.8187 949.618 766.0597 L 947.0415 760.9068 C 947.0059 760.8356 946.9709 760.7641 946.9363 760.6924 L 945.6881 758.1 C 944.8374 756.3331 944.4819 754.3686 944.6594 752.4156 L 944.8396 750.4334 C 944.8635 750.1715 944.6705 749.9399 944.4086 749.9161 C 944.2462 749.9014 944.0876 749.97075 943.9881 750.1 L 943.9881 750.1 C 943.3247 750.9625 942.5446 751.7286 941.6702 752.3762 L 937.7737 755.2626 C 937.65 755.3542 937.525 755.444 937.3987 755.532 L 932.7765 758.7536 C 931.5897 759.5807 930.2963 760.2431 928.9316 760.7226 L 924.3244 762.3413 C 923.8339 762.5137 923.352 762.7098 922.8805 762.9291 L 916.0337 766.1137 C 915.3376 766.4375 914.619 766.7107 913.8836 766.9314 L 903.0132 770.1925 C 902.9965 770.1975 902.9798 770.2025 902.9631 770.2076 L 891.995 773.5372 C 891.8571 773.5791 891.7198 773.6228 891.5831 773.6684 L 878.6618 777.9754 C 878.6127 777.9918 878.5635 778.0079 878.5142 778.0238 L 867.1468 781.69075 C 866.5083 781.8967 865.8834 782.1426 865.2758 782.427 L 857.3439 786.1399 C 856.9735 786.3132 856.61 786.5007 856.254 786.7019 L 850.3079 790.0628 C 849.0548 790.771 848.6132 792.3609 849.3214 793.614 C 849.3985 793.7504 849.4878 793.8796 849.5881 794 L 850.4522 795.0369 C 851.2072 795.9429 851.8597 796.9295 852.3978 797.9788 L 855.4749 803.9792 C 855.5504 804.1264 855.6281 804.2724 855.7081 804.4171 L 859.6629 811.5734 C 859.7464 811.7244 859.8274 811.8769 859.906 812.0306 L 864.0143 820.0686 C 864.2634 820.5559 864.4873 821.0556 864.6851 821.5659 L 868.1679 830.5478 C 868.1814 830.5826 868.195 830.6174 868.2088 830.6521 L 871.8051 839.7375 C 871.9271 840.0458 872.0395 840.3577 872.1421 840.6729 L 874.764 848.7257 C 874.7801 848.7752 874.796 848.8248 874.8116 848.8745 L 877.8836 858.6328 C 878.0864 859.2769 878.2482 859.9333 878.3681 860.5979 L 880.3534 871.6074 C 880.3766 871.7358 880.3981 871.8645 880.4182 871.9934 L 882.124 882.9868 C 882.1668 883.2622 882.2023 883.5387 882.2306 883.816 L 883.118 892.5127 C 883.1647 892.9707 883.1917 893.4305 883.1988 893.8908 L 883.383 905.8664 C 883.3864 906.0888 883.3945 906.311 883.4072 906.5331 L 884.1775 920.0146 C 884.1846 920.1382 884.1931 920.2617 884.203 920.3851 L 885.5366 936.9594 C 885.5709 937.3863 885.5881 937.8144 885.5881 938.2426 L 885.5881 950.6924 C 885.5881 950.8975 885.5921 951.1025 885.6 951.3074 L 886.1803 966.3965 C 886.1855 966.5322 886.189 966.6679 886.1908 966.8036 L 886.3829 981.5999 C 886.3864 981.8666 886.3832 982.1333 886.3733 982.3999 L 885.7991 997.904 C 885.7918 998.1013 885.7881 998.2987 885.7881 998.4962 L 885.7881 1012.0924 C 885.7881 1012.2975 885.7842 1012.5025 885.7763 1012.7074 L 885.1911 1027.9224 C 885.1891 1027.9741 885.1869 1028.0259 885.1844 1028.0776 L 884.3891 1044.5806 C 884.3884 1044.5935 884.3878 1044.6065 884.3872 1044.6194 L 883.5927 1060.3106 C 883.5896 1060.3702 883.5863 1060.4298 883.5826 1060.4893 L 882.3937 1079.71 C 882.39 1079.77 882.3859 1079.83 882.3816 1079.8899 L 880.5984 1104.2594 C 880.5916 1104.3531 880.5839 1104.4468 880.5754 1104.5404 L 878.7895 1124.1852 C 878.7886 1124.195 878.7877 1124.205 878.7868 1124.2148 L 877.016 1143.2997 C 876.9974 1143.4999 876.9751 1143.6997 876.949 1143.899 L 874.9883 1158.8717 C 874.8555 1159.886 874.5863 1160.8776 874.1881 1161.8197 L 874.1881 1161.8197 C 873.7906 1162.7605 873.5419 1163.7574 873.4511 1164.7747 L 872.6881 1173.3197 C 872.1804 1179.0068 876.1388 1184.1251 881.7708 1185.0638 Z" fill="url(#Obj_Gradient_2)"/>
      <path d="M 881.7708 1185.0638 L 895.513 1187.3542 C 895.6964 1187.3847 895.8803 1187.4121 896.0647 1187.4362 L 924.4183 1191.1515 C 924.6648 1191.1838 924.9121 1191.2104 925.1598 1191.2312 L 955.4027 1193.7677 C 955.6596 1193.7892 955.917 1193.8046 956.1747 1193.8137 L 995.1056 1195.19 C 995.2939 1195.1967 995.4824 1195.2 995.6709 1195.2 L 1027.1382 1195.2 C 1027.3048 1195.2 1027.4714 1195.1974 1027.638 1195.1922 L 1052.6727 1194.4099 C 1052.883 1194.4033 1053.0931 1194.3926 1053.3029 1194.3777 L 1075.3507 1192.8168 C 1075.509 1192.8056 1075.6671 1192.792 1075.825 1192.7761 L 1101.0855 1190.2305 C 1101.2872 1190.2102 1101.4886 1190.186 1101.6894 1190.158 L 1125.4821 1186.8426 C 1125.6861 1186.8142 1125.8895 1186.7819 1126.0923 1186.7456 L 1135.2881 1185.1 C 1140.6152 1184.1467 1144.2661 1179.1931 1143.5997 1173.8226 L 1141.3921 1156.032 C 1141.3895 1156.0107 1141.3869 1155.9893 1141.3843 1155.968 L 1137.8205 1126.2695 C 1137.7989 1126.0898 1137.7804 1125.9098 1137.765 1125.7296 L 1135.4027 1098.1704 C 1135.393 1098.0568 1135.3845 1097.9431 1135.3772 1097.8294 L 1133.9906 1076.2377 C 1133.989 1076.2126 1133.9873 1076.1874 1133.9855 1076.1623 L 1132.3934 1053.076 C 1132.3899 1053.0253 1132.3866 1052.9747 1132.3836 1052.924 L 1131.2073 1033.1218 C 1131.1945 1032.9073 1131.1861 1032.6925 1131.182 1032.4777 L 1130.7897 1011.8829 C 1130.7887 1011.8276 1130.7873 1011.7724 1130.7857 1011.7172 L 1130.1906 991.4828 C 1130.189 991.4276 1130.1876 991.3724 1130.1866 991.3172 L 1129.7959 970.8076 C 1129.7907 970.5359 1129.7925 970.2641 1129.8011 969.9925 L 1130.3871 951.6329 C 1130.3878 951.611 1130.3885 951.589 1130.3893 951.5671 L 1131.1774 929.6978 C 1131.1846 929.4993 1131.1954 929.3009 1131.21 929.1028 L 1132.7674 907.8822 C 1132.7812 907.6941 1132.7917 907.5057 1132.7989 907.3172 L 1133.5533 887.4184 C 1133.5765 886.8066 1133.6348 886.1967 1133.7279 885.5916 L 1136.4669 867.7881 C 1136.5477 867.263 1136.6546 866.7423 1136.7871 866.2278 L 1141.4154 848.2702 C 1141.5305 847.8236 1141.6649 847.3822 1141.8181 846.9472 L 1147.5389 830.7076 C 1147.705 830.2361 1147.893 829.7727 1148.1025 829.3188 L 1153.6341 817.3338 C 1153.7368 817.1113 1153.8446 816.8912 1153.9574 816.6736 L 1159.3196 806.3322 C 1159.3653 806.2441 1159.4118 806.1564 1159.4591 806.0691 L 1164.6751 796.4521 C 1165.4124 795.0928 1166.362 793.8599 1167.4881 792.8 L 1167.4881 792.8 C 1168.1633 792.1645 1168.1955 791.102 1167.56 790.4268 C 1167.4356 790.2946 1167.2904 790.1834 1167.1303 790.0976 L 1163.9162 788.3757 C 1163.6975 788.2586 1163.4762 788.1466 1163.2523 788.0397 L 1155.3983 784.2912 C 1154.9917 784.0972 1154.5771 783.9204 1154.1556 783.7613 L 1144.4807 780.1104 C 1144.2857 780.0368 1144.0892 779.967 1143.8915 779.9011 L 1131.197 775.6696 C 1131.0578 775.6232 1130.9179 775.5787 1130.7775 775.5362 L 1117.894 771.6321 C 1117.8234 771.6107 1117.753 771.5888 1117.6828 771.5665 L 1105.1788 767.5879 C 1104.7852 767.4627 1104.3965 767.32225 1104.0138 767.1669 L 1092.0378 762.3071 C 1091.2062 761.9696 1090.4044 761.5628 1089.641 761.0908 L 1080.0217 755.1444 C 1079.866 755.0481 1079.712 754.9492 1079.5597 754.8477 L 1074.6696 751.5876 C 1073.6882 750.93335 1072.8169 750.12745 1072.0881 749.2 L 1072.0881 749.2 C 1071.9825 749.0656 1071.788 749.0422 1071.6536 749.14785 C 1071.5508 749.2286 1071.5098 749.3651 1071.5512 749.4891 L 1071.6881 749.9 C 1072.1474 751.27775 1072.252 752.749 1071.9922 754.1779 L 1071.597 756.35115 C 1071.3258 757.8428 1070.844 759.28835 1070.166 760.6444 L 1068.6336 763.709 C 1068.3369 764.3024 1068.0036 764.8768 1067.6356 765.4288 L 1064.4319 770.2344 C 1064.0033 770.8773 1063.5287 771.4883 1063.0118 772.0626 L 1058.4497 777.13155 C 1058.4087 777.1772 1058.3673 777.2226 1058.3258 777.2677 L 1052.3315 783.7758 C 1051.7038 784.4573 1051.018 785.083 1050.282 785.6459 L 1045.2578 789.4879 C 1044.8117 789.8291 1044.3479 790.1465 1043.8683 790.4389 L 1037.3819 794.394 C 1036.7203 794.7975 1036.0302 795.1523 1035.3171 795.4558 L 1028.2017 798.4836 C 1027.394 798.8273 1026.5594 799.1039 1025.7064 799.3107 L 1021.6273 800.2996 C 1020.8025 800.4995 1019.9631 800.6336 1019.117 800.70035 L 1013.4168 801.1504 C 1012.9978 801.1834 1012.5778 801.2 1012.1575 801.2 L 1005.1252 801.2 C 1004.3681 801.2 1003.612 801.1463 1002.8625 801.0392 L 994.916 799.904 C 994.431 799.8347 993.9495 799.7432 993.4728 799.6297 L 987.5116 798.21035 C 986.3661 797.9376 985.2543 797.5393 984.1962 797.0225 L 977.9162 793.95555 C 977.4311 793.7187 976.9584 793.4574 976.4997 793.1727 L 972.2879 790.5585 C 971.6887 790.1866 971.1148 789.77545 970.5699 789.3278 L 966.1237 785.6757 C 965.9 785.4919 965.6814 785.3021 965.468 785.1065 L 961.6656 781.621 C 961.2143 781.20735 960.7872 780.7681 960.3862 780.3055 L 956.2675 775.5531 C 955.9481 775.1845 955.6457 774.8016 955.3613 774.4055 L 950.9317 768.2356 C 950.4368 767.5463 949.9975 766.8187 949.618 766.0597 L 947.0415 760.9068 C 947.0059 760.8356 946.9709 760.7641 946.9363 760.6924 L 945.6881 758.1 C 944.8374 756.3331 944.4819 754.3686 944.6594 752.4156 L 944.8396 750.4334 C 944.8635 750.1715 944.6705 749.9399 944.4086 749.9161 C 944.2462 749.9014 944.0876 749.97075 943.9881 750.1 L 943.9881 750.1 C 943.3247 750.9625 942.5446 751.7286 941.6702 752.3762 L 937.7737 755.2626 C 937.65 755.3542 937.525 755.444 937.3987 755.532 L 932.7765 758.7536 C 931.5897 759.5807 930.2963 760.2431 928.9316 760.7226 L 924.3244 762.3413 C 923.8339 762.5137 923.352 762.7098 922.8805 762.9291 L 916.0337 766.1137 C 915.3376 766.4375 914.619 766.7107 913.8836 766.9314 L 903.0132 770.1925 C 902.9965 770.1975 902.9798 770.2025 902.9631 770.2076 L 891.995 773.5372 C 891.8571 773.5791 891.7198 773.6228 891.5831 773.6684 L 878.6618 777.9754 C 878.6127 777.9918 878.5635 778.0079 878.5142 778.0238 L 867.1468 781.69075 C 866.5083 781.8967 865.8834 782.1426 865.2758 782.427 L 857.3439 786.1399 C 856.9735 786.3132 856.61 786.5007 856.254 786.7019 L 850.3079 790.0628 C 849.0548 790.771 848.6132 792.3609 849.3214 793.614 C 849.3985 793.7504 849.4878 793.8796 849.5881 794 L 850.4522 795.0369 C 851.2072 795.9429 851.8597 796.9295 852.3978 797.9788 L 855.4749 803.9792 C 855.5504 804.1264 855.6281 804.2724 855.7081 804.4171 L 859.6629 811.5734 C 859.7464 811.7244 859.8274 811.8769 859.906 812.0306 L 864.0143 820.0686 C 864.2634 820.5559 864.4873 821.0556 864.6851 821.5659 L 868.1679 830.5478 C 868.1814 830.5826 868.195 830.6174 868.2088 830.6521 L 871.8051 839.7375 C 871.9271 840.0458 872.0395 840.3577 872.1421 840.6729 L 874.764 848.7257 C 874.7801 848.7752 874.796 848.8248 874.8116 848.8745 L 877.8836 858.6328 C 878.0864 859.2769 878.2482 859.9333 878.3681 860.5979 L 880.3534 871.6074 C 880.3766 871.7358 880.3981 871.8645 880.4182 871.9934 L 882.124 882.9868 C 882.1668 883.2622 882.2023 883.5387 882.2306 883.816 L 883.118 892.5127 C 883.1647 892.9707 883.1917 893.4305 883.1988 893.8908 L 883.383 905.8664 C 883.3864 906.0888 883.3945 906.311 883.4072 906.5331 L 884.1775 920.0146 C 884.1846 920.1382 884.1931 920.2617 884.203 920.3851 L 885.5366 936.9594 C 885.5709 937.3863 885.5881 937.8144 885.5881 938.2426 L 885.5881 950.6924 C 885.5881 950.8975 885.5921 951.1025 885.6 951.3074 L 886.1803 966.3965 C 886.1855 966.5322 886.189 966.6679 886.1908 966.8036 L 886.3829 981.5999 C 886.3864 981.8666 886.3832 982.1333 886.3733 982.3999 L 885.7991 997.904 C 885.7918 998.1013 885.7881 998.2987 885.7881 998.4962 L 885.7881 1012.0924 C 885.7881 1012.2975 885.7842 1012.5025 885.7763 1012.7074 L 885.1911 1027.9224 C 885.1891 1027.9741 885.1869 1028.0259 885.1844 1028.0776 L 884.3891 1044.5806 C 884.3884 1044.5935 884.3878 1044.6065 884.3872 1044.6194 L 883.5927 1060.3106 C 883.5896 1060.3702 883.5863 1060.4298 883.5826 1060.4893 L 882.3937 1079.71 C 882.39 1079.77 882.3859 1079.83 882.3816 1079.8899 L 880.5984 1104.2594 C 880.5916 1104.3531 880.5839 1104.4468 880.5754 1104.5404 L 878.7895 1124.1852 C 878.7886 1124.195 878.7877 1124.205 878.7868 1124.2148 L 877.016 1143.2997 C 876.9974 1143.4999 876.9751 1143.6997 876.949 1143.899 L 874.9883 1158.8717 C 874.8555 1159.886 874.5863 1160.8776 874.1881 1161.8197 L 874.1881 1161.8197 C 873.7906 1162.7605 873.5419 1163.7574 873.4511 1164.7747 L 872.6881 1173.3197 C 872.1804 1179.0068 876.1388 1184.1251 881.7708 1185.0638 Z" stroke="#7f8080" stroke-linecap="round" stroke-linejoin="round" stroke-width="1"/>
      <path d="M 792.7974 899.2461 L 798.9974 903.6461 L 807.1974 907.6461 L 815.7974 911.2461 L 824.7974 915.0461 L 835.7974 919.0461 L 845.1974 921.8461 L 854.1974 924.4461 L 863.1974 927.0461 L 868.5974 928.4461 L 874.1974 929.4461 L 876.5974 923.6461 L 879.1974 918.2461 L 881.3974 914.2461 L 883.9974 910.8461 L 884.1974 901.8461 L 883.5974 890.8461 L 881.7974 880.0461 L 880.1974 869.6461 L 877.5974 858.6461 L 875.1974 849.0461 L 872.3974 841.0461 L 869.1974 831.6461 L 866.3974 824.2461 L 862.7974 816.6461 L 858.7974 809.0461 L 854.7974 801.6461 L 852.1974 798.0461 L 848.5974 792.2461 L 843.1974 796.6461 L 838.3974 801.4461 L 833.7974 807.6461 L 829.3974 813.8461 L 824.5974 822.4461 L 819.7974 831.8461 L 814.9974 841.0461 L 811.3974 849.6461 L 807.3974 858.6461 L 804.1974 866.8461 L 800.3974 876.2461 L 797.5974 884.2461 L 794.5974 892.6461 Z" fill="#000062"/>
      <path d="M 792.7974 899.2461 L 798.9974 903.6461 L 807.1974 907.6461 L 815.7974 911.2461 L 824.7974 915.0461 L 835.7974 919.0461 L 845.1974 921.8461 L 854.1974 924.4461 L 863.1974 927.0461 L 868.5974 928.4461 L 874.1974 929.4461 L 876.5974 923.6461 L 879.1974 918.2461 L 881.3974 914.2461 L 883.9974 910.8461 L 884.1974 901.8461 L 883.5974 890.8461 L 881.7974 880.0461 L 880.1974 869.6461 L 877.5974 858.6461 L 875.1974 849.0461 L 872.3974 841.0461 L 869.1974 831.6461 L 866.3974 824.2461 L 862.7974 816.6461 L 858.7974 809.0461 L 854.7974 801.6461 L 852.1974 798.0461 L 848.5974 792.2461 L 843.1974 796.6461 L 838.3974 801.4461 L 833.7974 807.6461 L 829.3974 813.8461 L 824.5974 822.4461 L 819.7974 831.8461 L 814.9974 841.0461 L 811.3974 849.6461 L 807.3974 858.6461 L 804.1974 866.8461 L 800.3974 876.2461 L 797.5974 884.2461 L 794.5974 892.6461 Z" stroke="#7f8080" stroke-linecap="round" stroke-linejoin="round" stroke-width="1"/>
      <path d="M 1224.2026 898.3027 L 1218.0026 902.7027 L 1209.8026 906.7027 L 1201.2026 910.3027 L 1192.2026 914.1027 L 1181.2026 918.1027 L 1171.8026 920.9027 L 1162.8026 923.5027 L 1153.8026 926.1027 L 1148.4026 927.5027 L 1142.8026 928.5027 L 1140.4026 922.7027 L 1137.8026 917.3027 L 1135.6026 913.3027 L 1133.0026 909.9027 L 1132.8026 900.9027 L 1133.4026 889.9027 L 1135.2026 879.1027 L 1136.8026 868.7027 L 1139.4026 857.7027 L 1141.8026 848.1027 L 1144.6026 840.1027 L 1147.8026 830.7027 L 1150.6026 823.3027 L 1154.2026 815.7027 L 1158.2026 808.1027 L 1162.2026 800.7027 L 1164.8026 797.1027 L 1168.4026 791.3027 L 1173.8026 795.7027 L 1178.6026 800.5027 L 1183.2026 806.7027 L 1187.6026 812.9027 L 1192.4026 821.5027 L 1197.2026 830.9027 L 1202.0026 840.1027 L 1205.6026 848.7027 L 1209.6026 857.7027 L 1212.8026 865.9027 L 1216.6026 875.3027 L 1219.4026 883.3027 L 1222.4026 891.7027 Z" fill="#006"/>
      <path d="M 1224.2026 898.3027 L 1218.0026 902.7027 L 1209.8026 906.7027 L 1201.2026 910.3027 L 1192.2026 914.1027 L 1181.2026 918.1027 L 1171.8026 920.9027 L 1162.8026 923.5027 L 1153.8026 926.1027 L 1148.4026 927.5027 L 1142.8026 928.5027 L 1140.4026 922.7027 L 1137.8026 917.3027 L 1135.6026 913.3027 L 1133.0026 909.9027 L 1132.8026 900.9027 L 1133.4026 889.9027 L 1135.2026 879.1027 L 1136.8026 868.7027 L 1139.4026 857.7027 L 1141.8026 848.1027 L 1144.6026 840.1027 L 1147.8026 830.7027 L 1150.6026 823.3027 L 1154.2026 815.7027 L 1158.2026 808.1027 L 1162.2026 800.7027 L 1164.8026 797.1027 L 1168.4026 791.3027 L 1173.8026 795.7027 L 1178.6026 800.5027 L 1183.2026 806.7027 L 1187.6026 812.9027 L 1192.4026 821.5027 L 1197.2026 830.9027 L 1202.0026 840.1027 L 1205.6026 848.7027 L 1209.6026 857.7027 L 1212.8026 865.9027 L 1216.6026 875.3027 L 1219.4026 883.3027 L 1222.4026 891.7027 Z" stroke="#7f8080" stroke-linecap="round" stroke-linejoin="round" stroke-width="1"/>
      <path d="M 792.7974 899.2461 L 798.9974 903.6461 L 807.1974 907.6461 L 815.7974 911.2461 L 824.7974 915.0461 L 835.7974 919.0461 L 845.1974 921.8461 L 854.1974 924.4461 L 863.1974 927.0461 L 868.5974 928.4461 L 874.1974 929.4461 L 877.1974 923.0461 L 873.3974 922.2461 L 868.5974 921.0461 L 862.9974 919.8461 L 856.9974 918.0461 L 852.3974 916.6461 L 848.1974 915.4461 L 843.5974 913.4461 L 838.9974 911.8461 L 834.1974 909.8461 L 830.1974 908.4461 L 824.9974 906.2461 L 820.3974 904.6461 L 815.5974 902.4461 L 810.7974 900.6461 L 806.7974 898.6461 L 802.3974 896.4461 L 797.9974 894.2461 L 794.5974 892.6461 Z" fill="white"/>
      <path d="M 792.7974 899.2461 L 798.9974 903.6461 L 807.1974 907.6461 L 815.7974 911.2461 L 824.7974 915.0461 L 835.7974 919.0461 L 845.1974 921.8461 L 854.1974 924.4461 L 863.1974 927.0461 L 868.5974 928.4461 L 874.1974 929.4461 L 877.1974 923.0461 L 873.3974 922.2461 L 868.5974 921.0461 L 862.9974 919.8461 L 856.9974 918.0461 L 852.3974 916.6461 L 848.1974 915.4461 L 843.5974 913.4461 L 838.9974 911.8461 L 834.1974 909.8461 L 830.1974 908.4461 L 824.9974 906.2461 L 820.3974 904.6461 L 815.5974 902.4461 L 810.7974 900.6461 L 806.7974 898.6461 L 802.3974 896.4461 L 797.9974 894.2461 L 794.5974 892.6461 Z" stroke="#7f8080" stroke-linecap="round" stroke-linejoin="round" stroke-width="1"/>
      <path d="M 1224.2026 898.3027 L 1218.0026 902.7027 L 1209.8026 906.7027 L 1201.2026 910.3027 L 1192.2026 914.1027 L 1181.2026 918.1027 L 1171.8026 920.9027 L 1162.8026 923.5027 L 1153.8026 926.1027 L 1148.4026 927.5027 L 1142.8026 928.5027 L 1139.8026 922.1027 L 1143.6026 921.3027 L 1148.4026 920.1027 L 1154.0026 918.9027 L 1160.0026 917.1027 L 1164.6026 915.7027 L 1168.8026 914.5027 L 1173.4026 912.5027 L 1178.0026 910.9027 L 1182.8026 908.9027 L 1186.8026 907.5027 L 1192.0026 905.3027 L 1196.6026 903.7027 L 1201.4026 901.5027 L 1206.2026 899.7027 L 1210.2026 897.7027 L 1214.6026 895.5027 L 1219.0026 893.3027 L 1222.4026 891.7027 Z" fill="white"/>
      <path d="M 1224.2026 898.3027 L 1218.0026 902.7027 L 1209.8026 906.7027 L 1201.2026 910.3027 L 1192.2026 914.1027 L 1181.2026 918.1027 L 1171.8026 920.9027 L 1162.8026 923.5027 L 1153.8026 926.1027 L 1148.4026 927.5027 L 1142.8026 928.5027 L 1139.8026 922.1027 L 1143.6026 921.3027 L 1148.4026 920.1027 L 1154.0026 918.9027 L 1160.0026 917.1027 L 1164.6026 915.7027 L 1168.8026 914.5027 L 1173.4026 912.5027 L 1178.0026 910.9027 L 1182.8026 908.9027 L 1186.8026 907.5027 L 1192.0026 905.3027 L 1196.6026 903.7027 L 1201.4026 901.5027 L 1206.2026 899.7027 L 1210.2026 897.7027 L 1214.6026 895.5027 L 1219.0026 893.3027 L 1222.4026 891.7027 Z" stroke="#7f8080" stroke-linecap="round" stroke-linejoin="round" stroke-width="1"/>
      <path d="M 943.3695 749.7638 L 938.6403 753.8174 C 937.49 754.8034 936.245 755.6733 934.9236 756.4145 L 932.3969 757.83165 C 930.9618 758.6366 930.381 760.40575 931.0597 761.9047 L 932.0774 764.152 C 932.1989 764.42045 932.3257 764.6866 932.4575 764.9502 L 934.2597 768.5547 L 936.7467 773.5287 C 937.0885 774.2123 937.4642 774.8784 937.8723 775.5246 L 940.1987 779.2081 C 940.6391 779.9053 941.1166 780.5784 941.6293 781.2244 L 945.04 785.5218 C 945.586 786.2099 946.1711 786.86605 946.7922 787.4872 L 951.4582 792.1532 C 951.8591 792.5541 952.2747 792.94 952.7041 793.3102 L 957.2676 797.2443 C 957.6622 797.5845 958.0684 797.9112 958.4852 798.2238 L 962.4601 801.205 C 963.126 801.7045 963.8186 802.1674 964.5347 802.5917 L 968.6677 805.041 C 968.7957 805.1168 968.9245 805.1914 969.0539 805.2648 L 973.7515 807.9267 C 974.4898 808.3451 975.2506 808.7223 976.0306 809.0565 L 979.5804 810.5779 C 980.1664 810.829 980.7625 811.0557 981.3673 811.2573 L 986.3854 812.93 C 987.6327 813.3457 988.9133 813.6538 990.2132 813.8507 L 994.312 814.4717 C 994.6771 814.5271 995.0435 814.5736 995.4109 814.6113 L 1002.292 815.317 C 1002.5371 815.3422 1002.7827 815.3634 1003.0286 815.3806 L 1007.5557 815.6983 C 1008.0916 815.7359 1008.6286 815.7547 1009.1658 815.7547 L 1012.4278 815.7547 C 1013.3815 815.7547 1014.3343 815.6954 1015.2806 815.5771 L 1019.2693 815.0785 C 1019.9293 814.996 1020.5854 814.885 1021.2357 814.7456 L 1027.3177 813.4423 C 1028.2116 813.2508 1029.0933 813.0061 1029.958 812.7096 L 1034.4669 811.1637 C 1035.2615 810.8913 1036.0407 810.5755 1036.8008 810.2178 L 1041.6341 807.9433 C 1042.1843 807.6843 1042.724 807.4037 1043.252 807.102 L 1047.0199 804.949 C 1047.7126 804.5531 1048.3844 804.1214 1049.0323 803.6557 L 1053.7084 800.29475 C 1054.2091 799.9349 1054.6951 799.555 1055.1653 799.1561 L 1060.4861 794.6414 C 1060.8684 794.3171 1061.24 793.9803 1061.6003 793.6316 L 1066.2996 789.08395 C 1066.9391 788.465 1067.5423 787.8094 1068.1059 787.1206 L 1071.8992 782.4843 C 1072.4059 781.865 1072.8799 781.2197 1073.3194 780.551 L 1076.9365 775.0466 C 1077.152 774.7187 1077.359 774.3854 1077.5574 774.047 L 1080.0805 769.7429 C 1080.4664 769.0845 1080.8194 768.40735 1081.138 767.7139 L 1083.2567 763.1026 C 1083.7895 761.94285 1084.1607 760.7154 1084.3597 759.4547 L 1084.3597 759.4547 C 1084.538 758.3255 1083.9588 757.212 1082.9317 756.7099 L 1077.6382 754.122 C 1076.3238 753.4794 1075.0892 752.6849 1073.9597 751.7547 L 1073.5537 751.4204 C 1072.7094 750.725 1072.086 749.7987 1071.7597 748.7547 L 1071.7597 748.7547 C 1071.7131 748.6054 1071.5542 748.5222 1071.4049 748.5689 C 1071.2898 748.6048 1071.2101 748.7097 1071.2063 748.8302 L 1071.097 752.2531 C 1071.0063 755.0962 1070.389 757.8978 1069.2763 760.5157 L 1068.3994 762.579 C 1067.8408 763.8933 1067.1611 765.1527 1066.369 766.3409 L 1062.6832 771.8696 C 1061.9357 772.9908 1061.091 774.0442 1060.1591 775.0176 L 1053.864 781.5925 C 1052.996 782.4991 1052.0551 783.3332 1051.051 784.0863 L 1042.676 790.3675 C 1041.7996 791.0248 1040.8774 791.6187 1039.9163 792.1445 L 1032.7311 796.0761 C 1031.42 796.7935 1030.042 797.3814 1028.6169 797.8314 L 1021.944 799.9387 C 1020.2271 800.4808 1018.4525 800.8195 1016.6566 800.9478 L 1009.7702 801.4397 C 1008.6979 801.5163 1007.6215 801.5176 1006.549 801.44365 L 998.1128 800.8618 C 997.0786 800.7905 996.0504 800.6494 995.0353 800.4393 L 987.9001 798.9631 C 985.9481 798.5592 984.057 797.9033 982.2741 797.0119 L 977.6147 794.6822 C 976.3806 794.0651 975.2045 793.3383 974.1006 792.5104 L 968.4187 788.2489 C 967.9795 787.9196 967.5523 787.5746 967.1379 787.2147 L 961.3827 782.2168 C 960.5684 781.5096 959.8049 780.7461 959.0977 779.9318 L 954.6925 774.8591 C 953.9384 773.9907 953.2505 773.06705 952.6346 772.0958 L 948.9009 766.208 C 948.5403 765.6394 948.2049 765.0553 947.8955 764.4573 L 946.2752 761.3246 C 945.666 760.1469 945.1599 758.9187 944.7623 757.6538 L 943.4821 753.58035 C 943.2673 752.897 943.0846 752.2039 942.9345 751.5035 L 942.7091 750.4516 C 942.624 750.05455 942.8503 749.6569 943.2352 749.5274 L 943.2352 749.5274 C 943.3076 749.503 943.3862 749.5419 943.4106 749.6144 C 943.4286 749.66795 943.4123 749.727 943.3695 749.7638 Z" fill="white"/>
      <path d="M 943.3695 749.7638 L 938.6403 753.8174 C 937.49 754.8034 936.245 755.6733 934.9236 756.4145 L 932.3969 757.83165 C 930.9618 758.6366 930.381 760.40575 931.0597 761.9047 L 932.0774 764.152 C 932.1989 764.42045 932.3257 764.6866 932.4575 764.9502 L 934.2597 768.5547 L 936.7467 773.5287 C 937.0885 774.2123 937.4642 774.8784 937.8723 775.5246 L 940.1987 779.2081 C 940.6391 779.9053 941.1166 780.5784 941.6293 781.2244 L 945.04 785.5218 C 945.586 786.2099 946.1711 786.86605 946.7922 787.4872 L 951.4582 792.1532 C 951.8591 792.5541 952.2747 792.94 952.7041 793.3102 L 957.2676 797.2443 C 957.6622 797.5845 958.0684 797.9112 958.4852 798.2238 L 962.4601 801.205 C 963.126 801.7045 963.8186 802.1674 964.5347 802.5917 L 968.6677 805.041 C 968.7957 805.1168 968.9245 805.1914 969.0539 805.2648 L 973.7515 807.9267 C 974.4898 808.3451 975.2506 808.7223 976.0306 809.0565 L 979.5804 810.5779 C 980.1664 810.829 980.7625 811.0557 981.3673 811.2573 L 986.3854 812.93 C 987.6327 813.3457 988.9133 813.6538 990.2132 813.8507 L 994.312 814.4717 C 994.6771 814.5271 995.0435 814.5736 995.4109 814.6113 L 1002.292 815.317 C 1002.5371 815.3422 1002.7827 815.3634 1003.0286 815.3806 L 1007.5557 815.6983 C 1008.0916 815.7359 1008.6286 815.7547 1009.1658 815.7547 L 1012.4278 815.7547 C 1013.3815 815.7547 1014.3343 815.6954 1015.2806 815.5771 L 1019.2693 815.0785 C 1019.9293 814.996 1020.5854 814.885 1021.2357 814.7456 L 1027.3177 813.4423 C 1028.2116 813.2508 1029.0933 813.0061 1029.958 812.7096 L 1034.4669 811.1637 C 1035.2615 810.8913 1036.0407 810.5755 1036.8008 810.2178 L 1041.6341 807.9433 C 1042.1843 807.6843 1042.724 807.4037 1043.252 807.102 L 1047.0199 804.949 C 1047.7126 804.5531 1048.3844 804.1214 1049.0323 803.6557 L 1053.7084 800.29475 C 1054.2091 799.9349 1054.6951 799.555 1055.1653 799.1561 L 1060.4861 794.6414 C 1060.8684 794.3171 1061.24 793.9803 1061.6003 793.6316 L 1066.2996 789.08395 C 1066.9391 788.465 1067.5423 787.8094 1068.1059 787.1206 L 1071.8992 782.4843 C 1072.4059 781.865 1072.8799 781.2197 1073.3194 780.551 L 1076.9365 775.0466 C 1077.152 774.7187 1077.359 774.3854 1077.5574 774.047 L 1080.0805 769.7429 C 1080.4664 769.0845 1080.8194 768.40735 1081.138 767.7139 L 1083.2567 763.1026 C 1083.7895 761.94285 1084.1607 760.7154 1084.3597 759.4547 L 1084.3597 759.4547 C 1084.538 758.3255 1083.9588 757.212 1082.9317 756.7099 L 1077.6382 754.122 C 1076.3238 753.4794 1075.0892 752.6849 1073.9597 751.7547 L 1073.5537 751.4204 C 1072.7094 750.725 1072.086 749.7987 1071.7597 748.7547 L 1071.7597 748.7547 C 1071.7131 748.6054 1071.5542 748.5222 1071.4049 748.5689 C 1071.2898 748.6048 1071.2101 748.7097 1071.2063 748.8302 L 1071.097 752.2531 C 1071.0063 755.0962 1070.389 757.8978 1069.2763 760.5157 L 1068.3994 762.579 C 1067.8408 763.8933 1067.1611 765.1527 1066.369 766.3409 L 1062.6832 771.8696 C 1061.9357 772.9908 1061.091 774.0442 1060.1591 775.0176 L 1053.864 781.5925 C 1052.996 782.4991 1052.0551 783.3332 1051.051 784.0863 L 1042.676 790.3675 C 1041.7996 791.0248 1040.8774 791.6187 1039.9163 792.1445 L 1032.7311 796.0761 C 1031.42 796.7935 1030.042 797.3814 1028.6169 797.8314 L 1021.944 799.9387 C 1020.2271 800.4808 1018.4525 800.8195 1016.6566 800.9478 L 1009.7702 801.4397 C 1008.6979 801.5163 1007.6215 801.5176 1006.549 801.44365 L 998.1128 800.8618 C 997.0786 800.7905 996.0504 800.6494 995.0353 800.4393 L 987.9001 798.9631 C 985.9481 798.5592 984.057 797.9033 982.2741 797.0119 L 977.6147 794.6822 C 976.3806 794.0651 975.2045 793.3383 974.1006 792.5104 L 968.4187 788.2489 C 967.9795 787.9196 967.5523 787.5746 967.1379 787.2147 L 961.3827 782.2168 C 960.5684 781.5096 959.8049 780.7461 959.0977 779.9318 L 954.6925 774.8591 C 953.9384 773.9907 953.2505 773.06705 952.6346 772.0958 L 948.9009 766.208 C 948.5403 765.6394 948.2049 765.0553 947.8955 764.4573 L 946.2752 761.3246 C 945.666 760.1469 945.1599 758.9187 944.7623 757.6538 L 943.4821 753.58035 C 943.2673 752.897 943.0846 752.2039 942.9345 751.5035 L 942.7091 750.4516 C 942.624 750.05455 942.8503 749.6569 943.2352 749.5274 L 943.2352 749.5274 C 943.3076 749.503 943.3862 749.5419 943.4106 749.6144 C 943.4286 749.66795 943.4123 749.727 943.3695 749.7638 Z" stroke="#7f8080" stroke-linecap="round" stroke-linejoin="round" stroke-width="1"/>
      <path d="M 942.8566 747.6792 L 948.2566 747.0792 L 955.0566 750.4792 L 960.0566 752.2792 L 968.4566 754.0792 L 976.8566 755.0792 L 984.8566 756.0792 L 992.4566 756.2792 L 1001.0566 756.6792 L 1012.6566 756.4792 L 1021.0566 756.0792 L 1030.4566 755.4792 L 1038.8566 754.6792 L 1048.0566 753.2792 L 1056.2566 751.0792 L 1062.0566 749.2792 L 1067.6566 746.6792 L 1070.4566 747.8792 L 1070.8566 753.4792 L 1068.0566 761.4792 L 1062.6566 764.2792 L 1052.0566 767.4792 L 1040.6566 769.8792 L 1029.4566 770.6792 L 1017.0566 771.6792 L 1006.6566 771.6792 L 997.2566 771.6792 L 985.6566 771.0792 L 974.4566 770.2792 L 963.8566 768.0792 L 955.2566 766.0792 L 949.0566 763.2792 L 947.0566 761.6792 L 943.8566 754.0792 Z" fill="url(#Obj_Gradient_3)"/>
      <path d="M 942.8566 747.6792 L 948.2566 747.0792 L 955.0566 750.4792 L 960.0566 752.2792 L 968.4566 754.0792 L 976.8566 755.0792 L 984.8566 756.0792 L 992.4566 756.2792 L 1001.0566 756.6792 L 1012.6566 756.4792 L 1021.0566 756.0792 L 1030.4566 755.4792 L 1038.8566 754.6792 L 1048.0566 753.2792 L 1056.2566 751.0792 L 1062.0566 749.2792 L 1067.6566 746.6792 L 1070.4566 747.8792 L 1070.8566 753.4792 L 1068.0566 761.4792 L 1062.6566 764.2792 L 1052.0566 767.4792 L 1040.6566 769.8792 L 1029.4566 770.6792 L 1017.0566 771.6792 L 1006.6566 771.6792 L 997.2566 771.6792 L 985.6566 771.0792 L 974.4566 770.2792 L 963.8566 768.0792 L 955.2566 766.0792 L 949.0566 763.2792 L 947.0566 761.6792 L 943.8566 754.0792 Z" stroke="#7f8080" stroke-linecap="round" stroke-linejoin="round" stroke-width="1"/>
      <path d="M 872.6106 1175 L 872.6106 1175 C 872.5449 1175.5255 872.6077 1176.059 872.7937 1176.5549 L 873.4447 1178.2909 C 873.6214 1178.7623 873.8485 1179.2132 874.122 1179.6358 L 875.0898 1181.1315 C 875.6307 1181.9676 876.3438 1182.6785 877.1815 1183.217 L 878.2595 1183.91 C 878.5598 1184.1031 878.8744 1184.2728 879.2005 1184.4179 L 880.5174 1185.0035 C 881.1139 1185.2688 881.7446 1185.4493 882.3911 1185.5398 L 891.4016 1186.8013 C 891.4116 1186.8027 891.4216 1186.804 891.4316 1186.8054 L 903.1476 1188.394 C 903.1936 1188.4002 903.2396 1188.406 903.2857 1188.4113 L 913.5687 1189.5978 C 913.6006 1189.6015 913.6325 1189.605 913.6645 1189.6082 L 927.3746 1190.9991 C 927.4026 1191.002 927.4306 1191.0046 927.4586 1191.0071 L 938.5639 1191.9986 C 938.599 1192.0018 938.6341 1192.0047 938.6693 1192.0073 L 949.3558 1192.7989 C 949.3963 1192.8019 949.4368 1192.8045 949.4773 1192.8068 L 959.9853 1193.4016 C 960.0062 1193.4028 960.027 1193.404 960.0478 1193.4054 L 972.0905 1194.1951 C 972.1745 1194.2006 972.2586 1194.2046 972.3428 1194.207 L 985.7899 1194.6026 C 985.8077 1194.6031 985.8254 1194.6037 985.8432 1194.6043 L 996.4871 1194.9986 C 996.5734 1195.0018 996.6598 1195.0034 996.7461 1195.0034 L 1007.3552 1195.0034 C 1007.3961 1195.0034 1007.437 1195.0037 1007.478 1195.0044 L 1018.5644 1195.1989 C 1018.7324 1195.2019 1018.9006 1195.1988 1019.0684 1195.1896 L 1029.6896 1194.6103 C 1029.7742 1194.6057 1029.8589 1194.6026 1029.9436 1194.601 L 1040.7082 1194.4053 C 1040.7804 1194.404 1040.8526 1194.4016 1040.9248 1194.398 L 1052.9434 1193.807 C 1052.9922 1193.8045 1053.0409 1193.8016 1053.0896 1193.7982 L 1064.3297 1193.0094 C 1064.3876 1193.0054 1064.4455 1193.0006 1064.5033 1192.9951 L 1076.9139 1191.8131 C 1076.9823 1191.8066 1077.0509 1191.8011 1077.1195 1191.7966 L 1089.0515 1191.0142 C 1089.1615 1191.007 1089.2714 1190.9971 1089.3809 1190.9847 L 1099.7933 1189.806 C 1099.8088 1189.8042 1099.8243 1189.8024 1099.8398 1189.8006 L 1109.7876 1188.6068 C 1109.8069 1188.6045 1109.8262 1188.6021 1109.8455 1188.5996 L 1123.6813 1186.8221 C 1123.7785 1186.8096 1123.8755 1186.795 1123.972 1186.7785 L 1130.5255 1185.655 C 1130.7265 1185.6206 1130.9289 1185.595 1131.1321 1185.5782 L 1134.3644 1185.3112 C 1135.2537 1185.2377 1136.1206 1184.995 1136.9187 1184.596 L 1138.405 1183.8528 C 1139.0056 1183.5525 1139.5598 1183.1673 1140.0507 1182.7092 L 1141.3859 1181.4631 C 1141.9927 1180.8967 1142.4481 1180.1875 1142.7106 1179.4 L 1143.0054 1178.5155 C 1143.0755 1178.3053 1143.1355 1178.0919 1143.1854 1177.876 L 1143.655 1175.8406 C 1143.6903 1175.6879 1143.6568 1175.5275 1143.5636 1175.4017 L 1143.5636 1175.4017 C 1143.4732 1175.2798 1143.3226 1175.2183 1143.1728 1175.2421 L 1134.6929 1176.5912 C 1134.642 1176.5993 1134.5912 1176.608 1134.5405 1176.6172 L 1121.5557 1178.978 C 1121.463 1178.9949 1121.3699 1179.0099 1121.2765 1179.023 L 1110.0468 1180.5991 C 1110.0266 1180.602 1110.0065 1180.6049 1109.9864 1180.6079 L 1096.8638 1182.5665 C 1096.699 1182.591 1096.5334 1182.6097 1096.3673 1182.6225 L 1083.6425 1183.6014 C 1083.6252 1183.6027 1083.6079 1183.604 1083.5906 1183.6052 L 1069.2504 1184.601 C 1069.2279 1184.6026 1069.2053 1184.604 1069.1827 1184.6054 L 1055.8794 1185.3996 C 1055.8375 1185.4021 1055.7956 1185.4042 1055.7537 1185.406 L 1041.5622 1185.9973 C 1041.4651 1186.0013 1041.368 1186.0034 1041.2708 1186.0034 L 1028.0166 1186.0034 L 1015.4749 1186.0034 C 1015.436 1186.0034 1015.3971 1186.0037 1015.3582 1186.0043 L 1003.5999 1186.2003 C 1003.4777 1186.2023 1003.3555 1186.2012 1003.2334 1186.1968 L 992.3998 1185.8099 C 992.2776 1185.8055 992.1554 1185.8044 992.0333 1185.8064 L 980.3186 1186.0016 C 980.2506 1186.0028 980.1825 1186.0029 980.1145 1186.0021 L 964.4122 1185.8058 C 964.2818 1185.8042 964.1515 1185.7989 964.0214 1185.79 L 949.7116 1184.8099 C 949.6482 1184.8055 949.585 1184.8003 949.5217 1184.7943 L 935.0307 1183.4047 C 935.0213 1183.4038 935.0118 1183.4029 935.0024 1183.402 L 921.1903 1182.0207 C 921.0745 1182.0091 920.959 1181.9947 920.8439 1181.9773 L 906.5347 1179.8212 C 906.4559 1179.8093 906.377 1179.7988 906.2979 1179.7896 L 892.7779 1178.222 C 892.6704 1178.2096 892.5631 1178.1946 892.4562 1178.1772 L 883.0641 1176.6438 C 882.8991 1176.6168 882.7352 1176.584 882.5725 1176.5453 L 873.4949 1174.3865 C 873.1066 1174.2942 872.7169 1174.5341 872.6246 1174.9224 C 872.6185 1174.948 872.6138 1174.9739 872.6106 1175 Z" fill="url(#Obj_Gradient_4)"/>
      <path d="M 872.6106 1175 L 872.6106 1175 C 872.5449 1175.5255 872.6077 1176.059 872.7937 1176.5549 L 873.4447 1178.2909 C 873.6214 1178.7623 873.8485 1179.2132 874.122 1179.6358 L 875.0898 1181.1315 C 875.6307 1181.9676 876.3438 1182.6785 877.1815 1183.217 L 878.2595 1183.91 C 878.5598 1184.1031 878.8744 1184.2728 879.2005 1184.4179 L 880.5174 1185.0035 C 881.1139 1185.2688 881.7446 1185.4493 882.3911 1185.5398 L 891.4016 1186.8013 C 891.4116 1186.8027 891.4216 1186.804 891.4316 1186.8054 L 903.1476 1188.394 C 903.1936 1188.4002 903.2396 1188.406 903.2857 1188.4113 L 913.5687 1189.5978 C 913.6006 1189.6015 913.6325 1189.605 913.6645 1189.6082 L 927.3746 1190.9991 C 927.4026 1191.002 927.4306 1191.0046 927.4586 1191.0071 L 938.5639 1191.9986 C 938.599 1192.0018 938.6341 1192.0047 938.6693 1192.0073 L 949.3558 1192.7989 C 949.3963 1192.8019 949.4368 1192.8045 949.4773 1192.8068 L 959.9853 1193.4016 C 960.0062 1193.4028 960.027 1193.404 960.0478 1193.4054 L 972.0905 1194.1951 C 972.1745 1194.2006 972.2586 1194.2046 972.3428 1194.207 L 985.7899 1194.6026 C 985.8077 1194.6031 985.8254 1194.6037 985.8432 1194.6043 L 996.4871 1194.9986 C 996.5734 1195.0018 996.6598 1195.0034 996.7461 1195.0034 L 1007.3552 1195.0034 C 1007.3961 1195.0034 1007.437 1195.0037 1007.478 1195.0044 L 1018.5644 1195.1989 C 1018.7324 1195.2019 1018.9006 1195.1988 1019.0684 1195.1896 L 1029.6896 1194.6103 C 1029.7742 1194.6057 1029.8589 1194.6026 1029.9436 1194.601 L 1040.7082 1194.4053 C 1040.7804 1194.404 1040.8526 1194.4016 1040.9248 1194.398 L 1052.9434 1193.807 C 1052.9922 1193.8045 1053.0409 1193.8016 1053.0896 1193.7982 L 1064.3297 1193.0094 C 1064.3876 1193.0054 1064.4455 1193.0006 1064.5033 1192.9951 L 1076.9139 1191.8131 C 1076.9823 1191.8066 1077.0509 1191.8011 1077.1195 1191.7966 L 1089.0515 1191.0142 C 1089.1615 1191.007 1089.2714 1190.9971 1089.3809 1190.9847 L 1099.7933 1189.806 C 1099.8088 1189.8042 1099.8243 1189.8024 1099.8398 1189.8006 L 1109.7876 1188.6068 C 1109.8069 1188.6045 1109.8262 1188.6021 1109.8455 1188.5996 L 1123.6813 1186.8221 C 1123.7785 1186.8096 1123.8755 1186.795 1123.972 1186.7785 L 1130.5255 1185.655 C 1130.7265 1185.6206 1130.9289 1185.595 1131.1321 1185.5782 L 1134.3644 1185.3112 C 1135.2537 1185.2377 1136.1206 1184.995 1136.9187 1184.596 L 1138.405 1183.8528 C 1139.0056 1183.5525 1139.5598 1183.1673 1140.0507 1182.7092 L 1141.3859 1181.4631 C 1141.9927 1180.8967 1142.4481 1180.1875 1142.7106 1179.4 L 1143.0054 1178.5155 C 1143.0755 1178.3053 1143.1355 1178.0919 1143.1854 1177.876 L 1143.655 1175.8406 C 1143.6903 1175.6879 1143.6568 1175.5275 1143.5636 1175.4017 L 1143.5636 1175.4017 C 1143.4732 1175.2798 1143.3226 1175.2183 1143.1728 1175.2421 L 1134.6929 1176.5912 C 1134.642 1176.5993 1134.5912 1176.608 1134.5405 1176.6172 L 1121.5557 1178.978 C 1121.463 1178.9949 1121.3699 1179.0099 1121.2765 1179.023 L 1110.0468 1180.5991 C 1110.0266 1180.602 1110.0065 1180.6049 1109.9864 1180.6079 L 1096.8638 1182.5665 C 1096.699 1182.591 1096.5334 1182.6097 1096.3673 1182.6225 L 1083.6425 1183.6014 C 1083.6252 1183.6027 1083.6079 1183.604 1083.5906 1183.6052 L 1069.2504 1184.601 C 1069.2279 1184.6026 1069.2053 1184.604 1069.1827 1184.6054 L 1055.8794 1185.3996 C 1055.8375 1185.4021 1055.7956 1185.4042 1055.7537 1185.406 L 1041.5622 1185.9973 C 1041.4651 1186.0013 1041.368 1186.0034 1041.2708 1186.0034 L 1028.0166 1186.0034 L 1015.4749 1186.0034 C 1015.436 1186.0034 1015.3971 1186.0037 1015.3582 1186.0043 L 1003.5999 1186.2003 C 1003.4777 1186.2023 1003.3555 1186.2012 1003.2334 1186.1968 L 992.3998 1185.8099 C 992.2776 1185.8055 992.1554 1185.8044 992.0333 1185.8064 L 980.3186 1186.0016 C 980.2506 1186.0028 980.1825 1186.0029 980.1145 1186.0021 L 964.4122 1185.8058 C 964.2818 1185.8042 964.1515 1185.7989 964.0214 1185.79 L 949.7116 1184.8099 C 949.6482 1184.8055 949.585 1184.8003 949.5217 1184.7943 L 935.0307 1183.4047 C 935.0213 1183.4038 935.0118 1183.4029 935.0024 1183.402 L 921.1903 1182.0207 C 921.0745 1182.0091 920.959 1181.9947 920.8439 1181.9773 L 906.5347 1179.8212 C 906.4559 1179.8093 906.377 1179.7988 906.2979 1179.7896 L 892.7779 1178.222 C 892.6704 1178.2096 892.5631 1178.1946 892.4562 1178.1772 L 883.0641 1176.6438 C 882.8991 1176.6168 882.7352 1176.584 882.5725 1176.5453 L 873.4949 1174.3865 C 873.1066 1174.2942 872.7169 1174.5341 872.6246 1174.9224 C 872.6185 1174.948 872.6138 1174.9739 872.6106 1175 Z" stroke="#7f8080" stroke-linecap="round" stroke-linejoin="round" stroke-width="1"/>
    </g>
  </g>
</svg>
