<?xml version="1.0" encoding="UTF-8" standalone="no"?>
<!DOCTYPE svg PUBLIC "-//W3C//DTD SVG 1.1//EN" "http://www.w3.org/Graphics/SVG/1.1/DTD/svg11.dtd">
<svg xmlns="http://www.w3.org/2000/svg" xmlns:xl="http://www.w3.org/1999/xlink" version="1.1" viewBox="115.5 59.5 432.9053 449.4" width="432.9053pt" height="449.4pt" xmlns:dc="http://purl.org/dc/elements/1.1/">
  <metadata> Produced by OmniGraffle 7.6.1 
    <dc:date>2019-06-07 16:27:06 +0000</dc:date>
  </metadata>
  <defs>
    <radialGradient cx="0" cy="0" r="1" id="Gradient" gradientUnits="userSpaceOnUse">
      <stop offset="0" stop-color="white"/>
      <stop offset="1" stop-color="#6b7ca5"/>
    </radialGradient>
    <radialGradient id="Obj_Gradient" xl:href="#Gradient" gradientTransform="translate(330.75925 87.4) scale(70.26272)"/>
    <linearGradient x1="0" x2="1" id="Gradient_2" gradientUnits="userSpaceOnUse">
      <stop offset="0" stop-color="black"/>
      <stop offset="1" stop-color="#848484"/>
    </linearGradient>
    <linearGradient id="Obj_Gradient_2" xl:href="#Gradient_2" gradientTransform="translate(330.05925 60.75589) rotate(90) scale(25)"/>
  </defs>
  <g stroke="none" stroke-opacity="1" stroke-dasharray="none" fill="none" fill-opacity="1">
    <title>Lienzo 7</title>
    <g>
      <title>Capa 1</title>
      <path d="M 269.00565 60.590446 L 277.1711 63.708164 C 278.0291 64.03576 278.90594 64.31167 279.79692 64.53442 L 293.5141 67.96371 C 294.67576 68.25413 295.85832 68.45338 297.051 68.55966 L 314.57715 70.1214 C 315.165 70.17378 315.75464 70.20352 316.34478 70.21054 L 331.8237 70.394815 C 332.11404 70.39827 332.40442 70.39623 332.6947 70.38869 L 347.118 70.01406 C 347.4788 70.00469 347.8393 69.98683 348.19924 69.96049 L 362.57053 68.90893 C 363.56197 68.83639 364.54766 68.69964 365.5214 68.49956 L 377.09436 66.12155 C 378.13637 65.90744 379.16226 65.6213 380.16465 65.26519 L 391.91664 61.090136 C 393.007 60.70277 394.2102 61.23354 394.65925 62.3 L 394.65925 62.3 C 395.1814 63.540106 395.3334 64.90485 395.09685 66.22945 L 394.91637 67.24014 C 394.6126 68.94129 394.11806 70.602796 393.44214 72.19319 L 391.8989 75.82431 C 391.34035 77.13858 390.6606 78.397975 389.86846 79.58618 L 386.1827 85.11485 C 385.43517 86.23611 384.59057 87.28951 383.6586 88.26289 L 377.36354 94.83774 C 376.49547 95.74439 375.55463 96.57846 374.55046 97.33159 L 366.17555 103.61277 C 365.29914 104.27008 364.37688 104.86394 363.4158 105.3898 L 356.2306 109.32133 C 354.9195 110.03874 353.54156 110.62664 352.11638 111.0767 L 345.44347 113.18393 C 343.7266 113.7261 341.952 114.0648 340.15613 114.19308 L 333.26968 114.68497 C 332.19738 114.76156 331.12103 114.76288 330.04854 114.68892 L 321.6123 114.10711 C 320.5781 114.03578 319.54994 113.89463 318.5348 113.6846 L 311.3996 112.20835 C 309.44765 111.8045 307.55647 111.14861 305.7736 110.25719 L 301.1142 107.92748 C 299.88007 107.31041 298.70397 106.58354 297.60012 105.75566 L 291.91816 101.49419 C 291.47903 101.16483 291.05182 100.81987 290.63737 100.45995 L 284.8822 95.46203 C 284.0679 94.75489 283.30436 93.99135 282.59722 93.17706 L 278.192 88.10438 C 277.4379 87.23602 276.75 86.31232 276.13406 85.34105 L 272.40036 79.45329 C 272.0398 78.8847 271.70437 78.30056 271.39505 77.70255 L 269.77468 74.56983 C 269.16553 73.39215 268.65936 72.164 268.26183 70.89911 L 266.9816 66.82562 C 266.7668 66.14225 266.58408 65.44921 266.434 64.74878 L 266.35925 64.4 C 266.1646 63.491574 266.27185 62.54443 266.66473 61.70254 L 266.75925 61.5 C 267.15372 60.65469 268.1342 60.25771 269.00565 60.590446 Z" fill="url(#Obj_Gradient)"/>
      <path d="M 269.00565 60.590446 L 277.1711 63.708164 C 278.0291 64.03576 278.90594 64.31167 279.79692 64.53442 L 293.5141 67.96371 C 294.67576 68.25413 295.85832 68.45338 297.051 68.55966 L 314.57715 70.1214 C 315.165 70.17378 315.75464 70.20352 316.34478 70.21054 L 331.8237 70.394815 C 332.11404 70.39827 332.40442 70.39623 332.6947 70.38869 L 347.118 70.01406 C 347.4788 70.00469 347.8393 69.98683 348.19924 69.96049 L 362.57053 68.90893 C 363.56197 68.83639 364.54766 68.69964 365.5214 68.49956 L 377.09436 66.12155 C 378.13637 65.90744 379.16226 65.6213 380.16465 65.26519 L 391.91664 61.090136 C 393.007 60.70277 394.2102 61.23354 394.65925 62.3 L 394.65925 62.3 C 395.1814 63.540106 395.3334 64.90485 395.09685 66.22945 L 394.91637 67.24014 C 394.6126 68.94129 394.11806 70.602796 393.44214 72.19319 L 391.8989 75.82431 C 391.34035 77.13858 390.6606 78.397975 389.86846 79.58618 L 386.1827 85.11485 C 385.43517 86.23611 384.59057 87.28951 383.6586 88.26289 L 377.36354 94.83774 C 376.49547 95.74439 375.55463 96.57846 374.55046 97.33159 L 366.17555 103.61277 C 365.29914 104.27008 364.37688 104.86394 363.4158 105.3898 L 356.2306 109.32133 C 354.9195 110.03874 353.54156 110.62664 352.11638 111.0767 L 345.44347 113.18393 C 343.7266 113.7261 341.952 114.0648 340.15613 114.19308 L 333.26968 114.68497 C 332.19738 114.76156 331.12103 114.76288 330.04854 114.68892 L 321.6123 114.10711 C 320.5781 114.03578 319.54994 113.89463 318.5348 113.6846 L 311.3996 112.20835 C 309.44765 111.8045 307.55647 111.14861 305.7736 110.25719 L 301.1142 107.92748 C 299.88007 107.31041 298.70397 106.58354 297.60012 105.75566 L 291.91816 101.49419 C 291.47903 101.16483 291.05182 100.81987 290.63737 100.45995 L 284.8822 95.46203 C 284.0679 94.75489 283.30436 93.99135 282.59722 93.17706 L 278.192 88.10438 C 277.4379 87.23602 276.75 86.31232 276.13406 85.34105 L 272.40036 79.45329 C 272.0398 78.8847 271.70437 78.30056 271.39505 77.70255 L 269.77468 74.56983 C 269.16553 73.39215 268.65936 72.164 268.26183 70.89911 L 266.9816 66.82562 C 266.7668 66.14225 266.58408 65.44921 266.434 64.74878 L 266.35925 64.4 C 266.1646 63.491574 266.27185 62.54443 266.66473 61.70254 L 266.75925 61.5 C 267.15372 60.65469 268.1342 60.25771 269.00565 60.590446 Z" stroke="#7f8080" stroke-linecap="round" stroke-linejoin="round" stroke-width="1"/>
      <path d="M 204.97346 497.2638 L 218.7157 499.55416 C 218.89907 499.5847 219.08297 499.6121 219.2673 499.63624 L 247.62094 503.35154 C 247.86747 503.38385 248.11472 503.4104 248.36248 503.4312 L 278.60537 505.9677 C 278.86227 505.9892 279.11966 506.00456 279.3773 506.0137 L 318.30822 507.39 C 318.49658 507.3967 318.68504 507.4 318.87352 507.4 L 350.34084 507.4 C 350.50746 507.4 350.67407 507.3974 350.8406 507.3922 L 375.8754 506.60986 C 376.08563 506.6033 376.29573 506.5926 376.50555 506.5777 L 398.5533 505.0168 C 398.7116 505.0056 398.86975 504.99205 399.02766 504.97614 L 424.28815 502.4305 C 424.4899 502.4102 424.6912 502.386 424.89204 502.358 L 448.68474 499.04265 C 448.88875 499.0142 449.0922 498.98186 449.29496 498.9456 L 458.4908 497.3 C 463.8179 496.34674 467.46876 491.3931 466.80234 486.02255 L 464.59475 468.232 C 464.5921 468.21066 464.5895 468.18934 464.58695 468.168 L 461.0231 438.4695 C 461.00157 438.28985 460.98306 438.10985 460.9676 437.9296 L 458.6054 410.37037 C 458.59565 410.2568 458.58713 410.1431 458.5798 410.02936 L 457.1932 388.4377 C 457.1916 388.4126 457.1899 388.38744 457.1882 388.3623 L 455.596 365.276 C 455.59253 365.22533 455.5893 365.17466 455.58627 365.12398 L 454.4099 345.3218 C 454.39716 345.1073 454.38874 344.89255 454.38465 344.6777 L 453.99236 324.08285 C 453.9913 324.02762 453.99 323.9724 453.98835 323.91718 L 453.3932 303.68283 C 453.3916 303.6276 453.39026 303.5724 453.3892 303.51715 L 452.99855 283.0076 C 452.9934 282.73592 452.9951 282.46413 453.0038 282.19253 L 453.58973 263.83292 C 453.59044 263.81097 453.5912 263.78903 453.59197 263.7671 L 454.38005 241.89779 C 454.3872 241.69928 454.39806 241.50093 454.4126 241.30283 L 455.9701 220.0822 C 455.9839 219.89409 455.99436 219.70573 456.0015 219.51724 L 456.75596 199.61837 C 456.77915 199.00663 456.83744 198.39672 456.9305 197.79165 L 459.6695 179.98813 C 459.7503 179.46304 459.8572 178.94229 459.9898 178.42783 L 464.61806 160.47017 C 464.73316 160.0236 464.8675 159.58221 465.02073 159.14725 L 470.7415 142.9076 C 470.9076 142.43613 471.0957 141.9727 471.3052 141.51883 L 476.83673 129.53379 C 476.9394 129.3113 477.0472 129.09119 477.16 128.87364 L 482.52223 118.53222 C 482.56793 118.44407 482.61446 118.35636 482.6618 118.26908 L 487.8778 108.65212 C 488.61505 107.29276 489.5647 106.05987 490.6908 105 L 490.6908 105 C 491.366 104.36453 491.3982 103.30203 490.7627 102.62684 C 490.6382 102.49456 490.49307 102.38337 490.33295 102.29759 L 487.1188 100.57573 C 486.90016 100.45859 486.6788 100.34656 486.45494 100.23971 L 478.60097 96.49122 C 478.19436 96.29716 477.77974 96.12036 477.3582 95.96129 L 467.6834 92.31041 C 467.48833 92.23681 467.2919 92.16703 467.0941 92.10111 L 454.39963 87.86962 C 454.2604 87.82321 454.12055 87.77872 453.9801 87.73616 L 441.0966 83.83206 C 441.02605 83.81069 440.95567 83.78883 440.88544 83.76648 L 428.38144 79.78794 C 427.9878 79.66269 427.5992 79.52225 427.21643 79.36693 L 415.2405 74.50713 C 414.40883 74.16964 413.60704 73.762775 412.8436 73.29083 L 403.22436 67.34439 C 403.06865 67.24814 402.9146 67.14922 402.7623 67.04768 L 397.8722 63.787616 C 396.8908 63.13335 396.0195 62.32745 395.2908 61.4 L 395.2908 61.4 C 395.1852 61.265596 394.9906 61.24225 394.8562 61.34785 C 394.75347 61.428576 394.7125 61.56513 394.7538 61.68908 L 394.8908 62.1 C 395.35003 63.47775 395.4546 64.94904 395.1948 66.37789 L 394.79967 68.551155 C 394.52845 70.04281 394.0466 71.48835 393.3686 72.844405 L 391.83626 75.90904 C 391.53956 76.50244 391.20624 77.07681 390.83823 77.62883 L 387.63453 82.43438 C 387.20593 83.07728 386.7313 83.68829 386.21443 84.26261 L 381.6524 89.33156 C 381.6113 89.37719 381.57 89.42258 381.5284 89.46773 L 375.53417 95.97576 C 374.90643 96.6573 374.2207 97.28302 373.48465 97.84587 L 368.46047 101.68789 C 368.01432 102.02906 367.5505 102.3465 367.071 102.6389 L 360.5846 106.59403 C 359.92292 106.99748 359.23283 107.35232 358.51975 107.65576 L 351.40434 110.6836 C 350.59667 111.02728 349.7621 111.30393 348.90905 111.51072 L 344.83 112.49959 C 344.00516 112.69955 343.16573 112.83356 342.31963 112.90035 L 336.61943 113.35037 C 336.2005 113.38344 335.78042 113.4 335.3602 113.4 L 328.32787 113.4 C 327.57077 113.4 326.8146 113.34626 326.06513 113.23919 L 318.11868 112.10399 C 317.63367 112.0347 317.1521 111.94317 316.6755 111.8297 L 310.71426 110.41035 C 309.56878 110.13762 308.4569 109.73927 307.39883 109.22253 L 301.11882 106.15556 C 300.63377 105.91867 300.16102 105.65739 299.7024 105.37272 L 295.49052 102.75846 C 294.89135 102.38656 294.31742 101.97546 293.7725 101.52784 L 289.3264 97.87568 C 289.1027 97.69193 288.88402 97.50214 288.67063 97.30652 L 284.8683 93.82104 C 284.417 93.40736 283.9898 92.96811 283.58885 92.50546 L 279.4701 87.75307 C 279.15072 87.38455 278.84836 87.00162 278.56395 86.60549 L 274.1343 80.43561 C 273.6394 79.7463 273.20013 79.0187 272.82064 78.25972 L 270.24418 73.10679 C 270.20858 73.0356 270.17352 72.96414 270.139 72.89242 L 268.89078 70.3 C 268.04007 68.53313 267.68455 66.56859 267.8621 64.61564 L 268.0423 62.63339 C 268.0661 62.371524 267.8731 62.139945 267.61125 62.11614 C 267.44886 62.101376 267.2902 62.17075 267.19078 62.3 L 267.19078 62.3 C 266.52734 63.16248 265.74723 63.92856 264.87285 64.576246 L 260.97632 67.46257 C 260.85263 67.554184 260.72763 67.64401 260.60136 67.73202 L 255.9791 70.95359 C 254.79237 71.78071 253.49895 72.44308 252.1342 72.92258 L 247.52708 74.5413 C 247.0365 74.713665 246.55463 74.90984 246.08316 75.12913 L 239.23638 78.31368 C 238.54022 78.63747 237.82165 78.91074 237.08625 79.13136 L 226.21586 82.39248 C 226.19914 82.39749 226.18243 82.40254 226.16572 82.40761 L 215.19764 85.7372 C 215.05974 85.77907 214.92241 85.82279 214.7857 85.86836 L 201.86446 90.17544 C 201.81534 90.19181 201.76614 90.20795 201.71686 90.22384 L 190.34946 93.89075 C 189.71097 94.09671 189.08607 94.34263 188.47846 94.62704 L 180.5465 98.33988 C 180.17616 98.51323 179.8126 98.70071 179.45662 98.90192 L 173.5105 102.26276 C 172.25747 102.971 171.81583 104.56093 172.52406 105.81396 C 172.60118 105.9504 172.69045 106.0796 172.79078 106.2 L 173.6549 107.23693 C 174.40984 108.14287 175.06231 109.12949 175.60043 110.17882 L 178.67757 116.17924 C 178.75304 116.3264 178.83079 116.47239 178.91078 116.61715 L 182.86554 123.77337 C 182.94903 123.92445 183.03007 124.07687 183.10863 124.23057 L 187.21693 132.26856 C 187.466 132.75587 187.6899 133.25563 187.88776 133.76589 L 191.37053 142.74776 C 191.38403 142.78259 191.39765 142.81737 191.4114 142.8521 L 195.00772 151.93754 C 195.12973 152.24577 195.24213 152.55772 195.34476 152.87294 L 197.9666 160.92572 C 197.98272 160.97524 197.9986 161.02484 198.01424 161.07452 L 201.0863 170.8328 C 201.28908 171.47695 201.45089 172.1333 201.57073 172.79792 L 203.55605 183.80737 C 203.5792 183.93579 203.60079 184.06448 203.6208 184.19342 L 205.32666 195.1868 C 205.3694 195.46222 205.40494 195.7387 205.43323 196.01598 L 206.32065 204.7127 C 206.36738 205.17069 206.39433 205.63048 206.4014 206.0908 L 206.58565 218.06641 C 206.58907 218.28878 206.59713 218.51105 206.60981 218.73309 L 207.3802 232.21465 C 207.38725 232.3382 207.39575 232.4617 207.40567 232.58506 L 208.73924 249.15943 C 208.7736 249.5863 208.79078 250.0144 208.79078 250.44264 L 208.79078 262.89242 C 208.79078 263.09746 208.79472 263.30247 208.8026 263.50735 L 209.38295 278.5965 C 209.38817 278.73216 209.39166 278.8679 209.39343 279.00365 L 209.58559 293.7999 C 209.58905 294.0666 209.58584 294.33333 209.57597 294.59986 L 209.00174 310.104 C 208.99444 310.30132 208.99078 310.49875 208.99078 310.6962 L 208.99078 324.29243 C 208.99078 324.49746 208.98684 324.70247 208.97896 324.90736 L 208.39377 340.12236 C 208.39178 340.17412 208.38953 340.22588 208.38704 340.2776 L 207.59172 356.78055 C 207.5911 356.7935 207.59045 356.8065 207.5898 356.81945 L 206.7953 372.5106 C 206.7923 372.5702 206.78894 372.6298 206.78526 372.68933 L 205.59634 391.91007 C 205.59264 391.97003 205.5886 392.02996 205.5842 392.08987 L 203.80107 416.4594 C 203.7942 416.55314 203.78653 416.6468 203.77802 416.7404 L 201.99213 436.3852 C 201.99123 436.39507 201.99032 436.40494 201.9894 436.4148 L 200.21864 455.4997 C 200.20007 455.6999 200.17773 455.8997 200.15162 456.09903 L 198.1909 471.07175 C 198.0581 472.08594 197.78896 473.07756 197.39078 474.01973 L 197.39078 474.01973 C 196.9932 474.9605 196.74454 475.9574 196.65371 476.97465 L 195.89078 485.51973 C 195.38302 491.20676 199.3415 496.3251 204.97346 497.2638 Z" fill="white"/>
      <path d="M 204.97346 497.2638 L 218.7157 499.55416 C 218.89907 499.5847 219.08297 499.6121 219.2673 499.63624 L 247.62094 503.35154 C 247.86747 503.38385 248.11472 503.4104 248.36248 503.4312 L 278.60537 505.9677 C 278.86227 505.9892 279.11966 506.00456 279.3773 506.0137 L 318.30822 507.39 C 318.49658 507.3967 318.68504 507.4 318.87352 507.4 L 350.34084 507.4 C 350.50746 507.4 350.67407 507.3974 350.8406 507.3922 L 375.8754 506.60986 C 376.08563 506.6033 376.29573 506.5926 376.50555 506.5777 L 398.5533 505.0168 C 398.7116 505.0056 398.86975 504.99205 399.02766 504.97614 L 424.28815 502.4305 C 424.4899 502.4102 424.6912 502.386 424.89204 502.358 L 448.68474 499.04265 C 448.88875 499.0142 449.0922 498.98186 449.29496 498.9456 L 458.4908 497.3 C 463.8179 496.34674 467.46876 491.3931 466.80234 486.02255 L 464.59475 468.232 C 464.5921 468.21066 464.5895 468.18934 464.58695 468.168 L 461.0231 438.4695 C 461.00157 438.28985 460.98306 438.10985 460.9676 437.9296 L 458.6054 410.37037 C 458.59565 410.2568 458.58713 410.1431 458.5798 410.02936 L 457.1932 388.4377 C 457.1916 388.4126 457.1899 388.38744 457.1882 388.3623 L 455.596 365.276 C 455.59253 365.22533 455.5893 365.17466 455.58627 365.12398 L 454.4099 345.3218 C 454.39716 345.1073 454.38874 344.89255 454.38465 344.6777 L 453.99236 324.08285 C 453.9913 324.02762 453.99 323.9724 453.98835 323.91718 L 453.3932 303.68283 C 453.3916 303.6276 453.39026 303.5724 453.3892 303.51715 L 452.99855 283.0076 C 452.9934 282.73592 452.9951 282.46413 453.0038 282.19253 L 453.58973 263.83292 C 453.59044 263.81097 453.5912 263.78903 453.59197 263.7671 L 454.38005 241.89779 C 454.3872 241.69928 454.39806 241.50093 454.4126 241.30283 L 455.9701 220.0822 C 455.9839 219.89409 455.99436 219.70573 456.0015 219.51724 L 456.75596 199.61837 C 456.77915 199.00663 456.83744 198.39672 456.9305 197.79165 L 459.6695 179.98813 C 459.7503 179.46304 459.8572 178.94229 459.9898 178.42783 L 464.61806 160.47017 C 464.73316 160.0236 464.8675 159.58221 465.02073 159.14725 L 470.7415 142.9076 C 470.9076 142.43613 471.0957 141.9727 471.3052 141.51883 L 476.83673 129.53379 C 476.9394 129.3113 477.0472 129.09119 477.16 128.87364 L 482.52223 118.53222 C 482.56793 118.44407 482.61446 118.35636 482.6618 118.26908 L 487.8778 108.65212 C 488.61505 107.29276 489.5647 106.05987 490.6908 105 L 490.6908 105 C 491.366 104.36453 491.3982 103.30203 490.7627 102.62684 C 490.6382 102.49456 490.49307 102.38337 490.33295 102.29759 L 487.1188 100.57573 C 486.90016 100.45859 486.6788 100.34656 486.45494 100.23971 L 478.60097 96.49122 C 478.19436 96.29716 477.77974 96.12036 477.3582 95.96129 L 467.6834 92.31041 C 467.48833 92.23681 467.2919 92.16703 467.0941 92.10111 L 454.39963 87.86962 C 454.2604 87.82321 454.12055 87.77872 453.9801 87.73616 L 441.0966 83.83206 C 441.02605 83.81069 440.95567 83.78883 440.88544 83.76648 L 428.38144 79.78794 C 427.9878 79.66269 427.5992 79.52225 427.21643 79.36693 L 415.2405 74.50713 C 414.40883 74.16964 413.60704 73.762775 412.8436 73.29083 L 403.22436 67.34439 C 403.06865 67.24814 402.9146 67.14922 402.7623 67.04768 L 397.8722 63.787616 C 396.8908 63.13335 396.0195 62.32745 395.2908 61.4 L 395.2908 61.4 C 395.1852 61.265596 394.9906 61.24225 394.8562 61.34785 C 394.75347 61.428576 394.7125 61.56513 394.7538 61.68908 L 394.8908 62.1 C 395.35003 63.47775 395.4546 64.94904 395.1948 66.37789 L 394.79967 68.551155 C 394.52845 70.04281 394.0466 71.48835 393.3686 72.844405 L 391.83626 75.90904 C 391.53956 76.50244 391.20624 77.07681 390.83823 77.62883 L 387.63453 82.43438 C 387.20593 83.07728 386.7313 83.68829 386.21443 84.26261 L 381.6524 89.33156 C 381.6113 89.37719 381.57 89.42258 381.5284 89.46773 L 375.53417 95.97576 C 374.90643 96.6573 374.2207 97.28302 373.48465 97.84587 L 368.46047 101.68789 C 368.01432 102.02906 367.5505 102.3465 367.071 102.6389 L 360.5846 106.59403 C 359.92292 106.99748 359.23283 107.35232 358.51975 107.65576 L 351.40434 110.6836 C 350.59667 111.02728 349.7621 111.30393 348.90905 111.51072 L 344.83 112.49959 C 344.00516 112.69955 343.16573 112.83356 342.31963 112.90035 L 336.61943 113.35037 C 336.2005 113.38344 335.78042 113.4 335.3602 113.4 L 328.32787 113.4 C 327.57077 113.4 326.8146 113.34626 326.06513 113.23919 L 318.11868 112.10399 C 317.63367 112.0347 317.1521 111.94317 316.6755 111.8297 L 310.71426 110.41035 C 309.56878 110.13762 308.4569 109.73927 307.39883 109.22253 L 301.11882 106.15556 C 300.63377 105.91867 300.16102 105.65739 299.7024 105.37272 L 295.49052 102.75846 C 294.89135 102.38656 294.31742 101.97546 293.7725 101.52784 L 289.3264 97.87568 C 289.1027 97.69193 288.88402 97.50214 288.67063 97.30652 L 284.8683 93.82104 C 284.417 93.40736 283.9898 92.96811 283.58885 92.50546 L 279.4701 87.75307 C 279.15072 87.38455 278.84836 87.00162 278.56395 86.60549 L 274.1343 80.43561 C 273.6394 79.7463 273.20013 79.0187 272.82064 78.25972 L 270.24418 73.10679 C 270.20858 73.0356 270.17352 72.96414 270.139 72.89242 L 268.89078 70.3 C 268.04007 68.53313 267.68455 66.56859 267.8621 64.61564 L 268.0423 62.63339 C 268.0661 62.371524 267.8731 62.139945 267.61125 62.11614 C 267.44886 62.101376 267.2902 62.17075 267.19078 62.3 L 267.19078 62.3 C 266.52734 63.16248 265.74723 63.92856 264.87285 64.576246 L 260.97632 67.46257 C 260.85263 67.554184 260.72763 67.64401 260.60136 67.73202 L 255.9791 70.95359 C 254.79237 71.78071 253.49895 72.44308 252.1342 72.92258 L 247.52708 74.5413 C 247.0365 74.713665 246.55463 74.90984 246.08316 75.12913 L 239.23638 78.31368 C 238.54022 78.63747 237.82165 78.91074 237.08625 79.13136 L 226.21586 82.39248 C 226.19914 82.39749 226.18243 82.40254 226.16572 82.40761 L 215.19764 85.7372 C 215.05974 85.77907 214.92241 85.82279 214.7857 85.86836 L 201.86446 90.17544 C 201.81534 90.19181 201.76614 90.20795 201.71686 90.22384 L 190.34946 93.89075 C 189.71097 94.09671 189.08607 94.34263 188.47846 94.62704 L 180.5465 98.33988 C 180.17616 98.51323 179.8126 98.70071 179.45662 98.90192 L 173.5105 102.26276 C 172.25747 102.971 171.81583 104.56093 172.52406 105.81396 C 172.60118 105.9504 172.69045 106.0796 172.79078 106.2 L 173.6549 107.23693 C 174.40984 108.14287 175.06231 109.12949 175.60043 110.17882 L 178.67757 116.17924 C 178.75304 116.3264 178.83079 116.47239 178.91078 116.61715 L 182.86554 123.77337 C 182.94903 123.92445 183.03007 124.07687 183.10863 124.23057 L 187.21693 132.26856 C 187.466 132.75587 187.6899 133.25563 187.88776 133.76589 L 191.37053 142.74776 C 191.38403 142.78259 191.39765 142.81737 191.4114 142.8521 L 195.00772 151.93754 C 195.12973 152.24577 195.24213 152.55772 195.34476 152.87294 L 197.9666 160.92572 C 197.98272 160.97524 197.9986 161.02484 198.01424 161.07452 L 201.0863 170.8328 C 201.28908 171.47695 201.45089 172.1333 201.57073 172.79792 L 203.55605 183.80737 C 203.5792 183.93579 203.60079 184.06448 203.6208 184.19342 L 205.32666 195.1868 C 205.3694 195.46222 205.40494 195.7387 205.43323 196.01598 L 206.32065 204.7127 C 206.36738 205.17069 206.39433 205.63048 206.4014 206.0908 L 206.58565 218.06641 C 206.58907 218.28878 206.59713 218.51105 206.60981 218.73309 L 207.3802 232.21465 C 207.38725 232.3382 207.39575 232.4617 207.40567 232.58506 L 208.73924 249.15943 C 208.7736 249.5863 208.79078 250.0144 208.79078 250.44264 L 208.79078 262.89242 C 208.79078 263.09746 208.79472 263.30247 208.8026 263.50735 L 209.38295 278.5965 C 209.38817 278.73216 209.39166 278.8679 209.39343 279.00365 L 209.58559 293.7999 C 209.58905 294.0666 209.58584 294.33333 209.57597 294.59986 L 209.00174 310.104 C 208.99444 310.30132 208.99078 310.49875 208.99078 310.6962 L 208.99078 324.29243 C 208.99078 324.49746 208.98684 324.70247 208.97896 324.90736 L 208.39377 340.12236 C 208.39178 340.17412 208.38953 340.22588 208.38704 340.2776 L 207.59172 356.78055 C 207.5911 356.7935 207.59045 356.8065 207.5898 356.81945 L 206.7953 372.5106 C 206.7923 372.5702 206.78894 372.6298 206.78526 372.68933 L 205.59634 391.91007 C 205.59264 391.97003 205.5886 392.02996 205.5842 392.08987 L 203.80107 416.4594 C 203.7942 416.55314 203.78653 416.6468 203.77802 416.7404 L 201.99213 436.3852 C 201.99123 436.39507 201.99032 436.40494 201.9894 436.4148 L 200.21864 455.4997 C 200.20007 455.6999 200.17773 455.8997 200.15162 456.09903 L 198.1909 471.07175 C 198.0581 472.08594 197.78896 473.07756 197.39078 474.01973 L 197.39078 474.01973 C 196.9932 474.9605 196.74454 475.9574 196.65371 476.97465 L 195.89078 485.51973 C 195.38302 491.20676 199.3415 496.3251 204.97346 497.2638 Z" stroke="black" stroke-linecap="round" stroke-linejoin="round" stroke-width="2"/>
      <path d="M 116 211.44615 L 122.2 215.84615 L 130.4 219.84615 L 139 223.44615 L 148 227.24615 L 159 231.24615 L 168.4 234.04615 L 177.4 236.64615 L 186.4 239.24615 L 191.8 240.64615 L 197.4 241.64615 L 199.8 235.84615 L 202.4 230.44615 L 204.6 226.44615 L 207.2 223.04615 L 207.4 214.04615 L 206.8 203.04615 L 205 192.24615 L 203.4 181.84615 L 200.8 170.84614 L 198.4 161.24614 L 195.6 153.24614 L 192.4 143.84614 L 189.6 136.44614 L 186 128.84614 L 182 121.24614 L 178 113.84614 L 175.4 110.24614 L 171.8 104.44614 L 166.4 108.84614 L 161.6 113.64614 L 157 119.84614 L 152.6 126.04614 L 147.8 134.64614 L 143 144.04614 L 138.2 153.24614 L 134.6 161.84614 L 130.6 170.84614 L 127.4 179.04615 L 123.6 188.44615 L 120.8 196.44615 L 117.8 204.84615 Z" fill="black"/>
      <path d="M 116 211.44615 L 122.2 215.84615 L 130.4 219.84615 L 139 223.44615 L 148 227.24615 L 159 231.24615 L 168.4 234.04615 L 177.4 236.64615 L 186.4 239.24615 L 191.8 240.64615 L 197.4 241.64615 L 199.8 235.84615 L 202.4 230.44615 L 204.6 226.44615 L 207.2 223.04615 L 207.4 214.04615 L 206.8 203.04615 L 205 192.24615 L 203.4 181.84615 L 200.8 170.84614 L 198.4 161.24614 L 195.6 153.24614 L 192.4 143.84614 L 189.6 136.44614 L 186 128.84614 L 182 121.24614 L 178 113.84614 L 175.4 110.24614 L 171.8 104.44614 L 166.4 108.84614 L 161.6 113.64614 L 157 119.84614 L 152.6 126.04614 L 147.8 134.64614 L 143 144.04614 L 138.2 153.24614 L 134.6 161.84614 L 130.6 170.84614 L 127.4 179.04615 L 123.6 188.44615 L 120.8 196.44615 L 117.8 204.84615 Z" stroke="black" stroke-linecap="round" stroke-linejoin="round" stroke-width="1"/>
      <path d="M 547.4053 210.50275 L 541.2053 214.90275 L 533.0053 218.90275 L 524.4053 222.50275 L 515.4053 226.30275 L 504.4053 230.30275 L 495.0053 233.10275 L 486.0053 235.70275 L 477.0053 238.30275 L 471.6053 239.70275 L 466.0053 240.70275 L 463.6053 234.90275 L 461.0053 229.50275 L 458.8053 225.50275 L 456.2053 222.10275 L 456.0053 213.10275 L 456.6053 202.10275 L 458.4053 191.30275 L 460.0053 180.90275 L 462.6053 169.90275 L 465.0053 160.30275 L 467.8053 152.30275 L 471.0053 142.90275 L 473.8053 135.50275 L 477.4053 127.90275 L 481.4053 120.30275 L 485.4053 112.90275 L 488.0053 109.30275 L 491.6053 103.50275 L 497.0053 107.90275 L 501.8053 112.70275 L 506.4053 118.90275 L 510.8053 125.10275 L 515.6053 133.70275 L 520.4053 143.10275 L 525.2053 152.30275 L 528.8053 160.90275 L 532.8053 169.90275 L 536.0053 178.10275 L 539.8053 187.50275 L 542.6053 195.50275 L 545.6053 203.90275 Z" fill="black"/>
      <path d="M 547.4053 210.50275 L 541.2053 214.90275 L 533.0053 218.90275 L 524.4053 222.50275 L 515.4053 226.30275 L 504.4053 230.30275 L 495.0053 233.10275 L 486.0053 235.70275 L 477.0053 238.30275 L 471.6053 239.70275 L 466.0053 240.70275 L 463.6053 234.90275 L 461.0053 229.50275 L 458.8053 225.50275 L 456.2053 222.10275 L 456.0053 213.10275 L 456.6053 202.10275 L 458.4053 191.30275 L 460.0053 180.90275 L 462.6053 169.90275 L 465.0053 160.30275 L 467.8053 152.30275 L 471.0053 142.90275 L 473.8053 135.50275 L 477.4053 127.90275 L 481.4053 120.30275 L 485.4053 112.90275 L 488.0053 109.30275 L 491.6053 103.50275 L 497.0053 107.90275 L 501.8053 112.70275 L 506.4053 118.90275 L 510.8053 125.10275 L 515.6053 133.70275 L 520.4053 143.10275 L 525.2053 152.30275 L 528.8053 160.90275 L 532.8053 169.90275 L 536.0053 178.10275 L 539.8053 187.50275 L 542.6053 195.50275 L 545.6053 203.90275 Z" stroke="black" stroke-linecap="round" stroke-linejoin="round" stroke-width="2"/>
      <path d="M 116 211.44615 L 122.2 215.84615 L 130.4 219.84615 L 139 223.44615 L 148 227.24615 L 159 231.24615 L 168.4 234.04615 L 177.4 236.64615 L 186.4 239.24615 L 191.8 240.64615 L 197.4 241.64615 L 200.4 235.24615 L 196.6 234.44615 L 191.8 233.24615 L 186.2 232.04615 L 180.2 230.24615 L 175.6 228.84615 L 171.4 227.64615 L 166.8 225.64615 L 162.2 224.04615 L 157.4 222.04615 L 153.4 220.64615 L 148.2 218.44615 L 143.6 216.84615 L 138.8 214.64615 L 134 212.84615 L 130 210.84615 L 125.6 208.64615 L 121.2 206.44615 L 117.8 204.84615 Z" fill="black"/>
      <path d="M 116 211.44615 L 122.2 215.84615 L 130.4 219.84615 L 139 223.44615 L 148 227.24615 L 159 231.24615 L 168.4 234.04615 L 177.4 236.64615 L 186.4 239.24615 L 191.8 240.64615 L 197.4 241.64615 L 200.4 235.24615 L 196.6 234.44615 L 191.8 233.24615 L 186.2 232.04615 L 180.2 230.24615 L 175.6 228.84615 L 171.4 227.64615 L 166.8 225.64615 L 162.2 224.04615 L 157.4 222.04615 L 153.4 220.64615 L 148.2 218.44615 L 143.6 216.84615 L 138.8 214.64615 L 134 212.84615 L 130 210.84615 L 125.6 208.64615 L 121.2 206.44615 L 117.8 204.84615 Z" stroke="#7f8080" stroke-linecap="round" stroke-linejoin="round" stroke-width="1"/>
      <path d="M 547.4053 210.50275 L 541.2053 214.90275 L 533.0053 218.90275 L 524.4053 222.50275 L 515.4053 226.30275 L 504.4053 230.30275 L 495.0053 233.10275 L 486.0053 235.70275 L 477.0053 238.30275 L 471.6053 239.70275 L 466.0053 240.70275 L 463.0053 234.30275 L 466.8053 233.50275 L 471.6053 232.30275 L 477.2053 231.10275 L 483.2053 229.30275 L 487.8053 227.90275 L 492.0053 226.70275 L 496.6053 224.70275 L 501.2053 223.10275 L 506.0053 221.10275 L 510.0053 219.70275 L 515.2053 217.50275 L 519.8053 215.90275 L 524.6053 213.70275 L 529.4053 211.90275 L 533.4053 209.90275 L 537.8053 207.70275 L 542.2053 205.50275 L 545.6053 203.90275 Z" fill="black"/>
      <path d="M 547.4053 210.50275 L 541.2053 214.90275 L 533.0053 218.90275 L 524.4053 222.50275 L 515.4053 226.30275 L 504.4053 230.30275 L 495.0053 233.10275 L 486.0053 235.70275 L 477.0053 238.30275 L 471.6053 239.70275 L 466.0053 240.70275 L 463.0053 234.30275 L 466.8053 233.50275 L 471.6053 232.30275 L 477.2053 231.10275 L 483.2053 229.30275 L 487.8053 227.90275 L 492.0053 226.70275 L 496.6053 224.70275 L 501.2053 223.10275 L 506.0053 221.10275 L 510.0053 219.70275 L 515.2053 217.50275 L 519.8053 215.90275 L 524.6053 213.70275 L 529.4053 211.90275 L 533.4053 209.90275 L 537.8053 207.70275 L 542.2053 205.50275 L 545.6053 203.90275 Z" stroke="#7f8080" stroke-linecap="round" stroke-linejoin="round" stroke-width="1"/>
      <path d="M 266.57212 61.96379 L 261.84295 66.01736 C 260.6926 67.003375 259.44764 67.87331 258.1262 68.614485 L 255.59958 70.03165 C 254.1644 70.83662 253.5836 72.60575 254.2624 74.104735 L 255.28 76.35197 C 255.40158 76.620455 255.5283 76.88658 255.66012 77.1502 L 257.4624 80.75474 L 259.94938 85.72871 C 260.29117 86.4123 260.66683 87.07843 261.07495 87.72463 L 263.40134 91.40808 C 263.84172 92.10535 264.31928 92.77842 264.83195 93.42439 L 268.24264 97.72185 C 268.7887 98.40987 269.3737 99.06606 269.99482 99.68717 L 274.66087 104.35321 C 275.06175 104.75409 275.4773 105.14001 275.9067 105.51018 L 280.47023 109.44426 C 280.8649 109.78448 281.271 110.11119 281.68785 110.42383 L 285.6628 113.40503 C 286.3287 113.90447 287.02123 114.36738 287.73733 114.79174 L 291.8704 117.24096 C 291.9984 117.31681 292.12712 117.39141 292.25656 117.46477 L 296.9541 120.12671 C 297.6924 120.54507 298.45328 120.92226 299.23325 121.25653 L 302.78307 122.77788 C 303.36903 123.02901 303.96518 123.25567 304.56997 123.45726 L 309.58808 125.12997 C 310.83532 125.54571 312.11592 125.85376 313.4158 126.0507 L 317.51464 126.67174 C 317.87976 126.72706 318.24615 126.77358 318.6135 126.81126 L 325.4946 127.51701 C 325.7398 127.54216 325.98534 127.56336 326.2312 127.58062 L 330.75835 127.89831 C 331.2942 127.93591 331.83122 127.95473 332.3684 127.95473 L 335.63046 127.95474 C 336.58416 127.95474 337.53693 127.89542 338.48327 127.77713 L 342.472 127.27854 C 343.13195 127.19604 343.788 127.08496 344.43835 126.9456 L 350.5204 125.64231 C 351.41426 125.45076 352.29592 125.2061 353.16068 124.90961 L 357.66952 123.36372 C 358.46417 123.09127 359.2433 122.77549 360.0034 122.4178 L 364.83677 120.14326 C 365.38697 119.88435 365.9267 119.60371 366.45464 119.30202 L 370.2225 117.14896 C 370.9153 116.75308 371.587 116.32142 372.23494 115.85572 L 376.91106 112.49475 C 377.41175 112.13489 377.89776 111.75503 378.3679 111.35611 L 383.68877 106.84144 C 384.0711 106.51706 384.4427 106.18026 384.803 105.83158 L 389.5022 101.28396 C 390.1418 100.665 390.7449 100.00944 391.30852 99.32058 L 395.1018 94.68434 C 395.6085 94.06503 396.08257 93.41969 396.522 92.75096 L 400.1392 87.24656 C 400.35462 86.91873 400.56163 86.58544 400.76 86.24702 L 403.2831 81.94292 C 403.66906 81.28454 404.022 80.60735 404.34062 79.91388 L 406.4593 75.30261 C 406.9922 74.14285 407.36334 72.91544 407.5624 71.654735 L 407.5624 71.654735 C 407.7407 70.52547 407.1614 69.412026 406.1343 68.9099 L 400.8409 66.321995 C 399.5264 65.67937 398.29183 64.88486 397.1624 63.954735 L 396.7564 63.620375 C 395.91205 62.92504 395.28864 61.99874 394.9624 60.954735 L 394.9624 60.954735 C 394.91573 60.80542 394.75686 60.7222 394.60754 60.76886 C 394.49247 60.80482 394.41277 60.909685 394.4089 61.03019 L 394.2997 64.45311 C 394.20894 67.29619 393.5916 70.097764 392.479 72.71567 L 391.60206 74.77904 C 391.0435 76.09331 390.36374 77.35271 389.5716 78.54091 L 385.8858 84.06958 C 385.1383 85.19085 384.2937 86.24425 383.36175 87.21762 L 377.0667 93.79247 C 376.1986 94.69913 375.25777 95.5332 374.2536 96.28633 L 365.8787 102.5675 C 365.00228 103.22482 364.08 103.81867 363.11896 104.34454 L 355.93376 108.27606 C 354.62263 108.99347 353.2447 109.58137 351.8195 110.03143 L 345.1466 112.13867 C 343.42973 112.68084 341.65514 113.01954 339.85927 113.14781 L 332.9728 113.6397 C 331.9005 113.7163 330.82417 113.71762 329.7517 113.64365 L 321.31543 113.06184 C 320.28125 112.99052 319.25308 112.84936 318.23795 112.63933 L 311.10274 111.16308 C 309.1508 110.75923 307.2596 110.10335 305.47676 109.21192 L 300.81735 106.88221 C 299.5832 106.26515 298.4071 105.53827 297.30326 104.71039 L 291.6213 100.44892 C 291.18217 100.11957 290.75496 99.7746 290.3405 99.41468 L 284.58533 94.41676 C 283.77104 93.70962 283.0075 92.94608 282.30036 92.13179 L 277.89513 87.05911 C 277.14103 86.19075 276.45312 85.26705 275.8372 84.29578 L 272.1035 78.40802 C 271.74293 77.83944 271.4075 77.2553 271.0982 76.65728 L 269.4778 73.52456 C 268.86867 72.34688 268.3625 71.118736 267.96497 69.853845 L 266.68473 65.78036 C 266.46995 65.09698 266.28722 64.403945 266.13713 63.703515 L 265.9117 62.65157 C 265.82664 62.25456 266.053 61.856906 266.4378 61.72737 L 266.4378 61.72737 C 266.5103 61.70296 266.58884 61.74195 266.61325 61.81444 C 266.63126 61.867954 266.615 61.92704 266.57212 61.96379 Z" fill="black"/>
      <path d="M 266.57212 61.96379 L 261.84295 66.01736 C 260.6926 67.003375 259.44764 67.87331 258.1262 68.614485 L 255.59958 70.03165 C 254.1644 70.83662 253.5836 72.60575 254.2624 74.104735 L 255.28 76.35197 C 255.40158 76.620455 255.5283 76.88658 255.66012 77.1502 L 257.4624 80.75474 L 259.94938 85.72871 C 260.29117 86.4123 260.66683 87.07843 261.07495 87.72463 L 263.40134 91.40808 C 263.84172 92.10535 264.31928 92.77842 264.83195 93.42439 L 268.24264 97.72185 C 268.7887 98.40987 269.3737 99.06606 269.99482 99.68717 L 274.66087 104.35321 C 275.06175 104.75409 275.4773 105.14001 275.9067 105.51018 L 280.47023 109.44426 C 280.8649 109.78448 281.271 110.11119 281.68785 110.42383 L 285.6628 113.40503 C 286.3287 113.90447 287.02123 114.36738 287.73733 114.79174 L 291.8704 117.24096 C 291.9984 117.31681 292.12712 117.39141 292.25656 117.46477 L 296.9541 120.12671 C 297.6924 120.54507 298.45328 120.92226 299.23325 121.25653 L 302.78307 122.77788 C 303.36903 123.02901 303.96518 123.25567 304.56997 123.45726 L 309.58808 125.12997 C 310.83532 125.54571 312.11592 125.85376 313.4158 126.0507 L 317.51464 126.67174 C 317.87976 126.72706 318.24615 126.77358 318.6135 126.81126 L 325.4946 127.51701 C 325.7398 127.54216 325.98534 127.56336 326.2312 127.58062 L 330.75835 127.89831 C 331.2942 127.93591 331.83122 127.95473 332.3684 127.95473 L 335.63046 127.95474 C 336.58416 127.95474 337.53693 127.89542 338.48327 127.77713 L 342.472 127.27854 C 343.13195 127.19604 343.788 127.08496 344.43835 126.9456 L 350.5204 125.64231 C 351.41426 125.45076 352.29592 125.2061 353.16068 124.90961 L 357.66952 123.36372 C 358.46417 123.09127 359.2433 122.77549 360.0034 122.4178 L 364.83677 120.14326 C 365.38697 119.88435 365.9267 119.60371 366.45464 119.30202 L 370.2225 117.14896 C 370.9153 116.75308 371.587 116.32142 372.23494 115.85572 L 376.91106 112.49475 C 377.41175 112.13489 377.89776 111.75503 378.3679 111.35611 L 383.68877 106.84144 C 384.0711 106.51706 384.4427 106.18026 384.803 105.83158 L 389.5022 101.28396 C 390.1418 100.665 390.7449 100.00944 391.30852 99.32058 L 395.1018 94.68434 C 395.6085 94.06503 396.08257 93.41969 396.522 92.75096 L 400.1392 87.24656 C 400.35462 86.91873 400.56163 86.58544 400.76 86.24702 L 403.2831 81.94292 C 403.66906 81.28454 404.022 80.60735 404.34062 79.91388 L 406.4593 75.30261 C 406.9922 74.14285 407.36334 72.91544 407.5624 71.654735 L 407.5624 71.654735 C 407.7407 70.52547 407.1614 69.412026 406.1343 68.9099 L 400.8409 66.321995 C 399.5264 65.67937 398.29183 64.88486 397.1624 63.954735 L 396.7564 63.620375 C 395.91205 62.92504 395.28864 61.99874 394.9624 60.954735 L 394.9624 60.954735 C 394.91573 60.80542 394.75686 60.7222 394.60754 60.76886 C 394.49247 60.80482 394.41277 60.909685 394.4089 61.03019 L 394.2997 64.45311 C 394.20894 67.29619 393.5916 70.097764 392.479 72.71567 L 391.60206 74.77904 C 391.0435 76.09331 390.36374 77.35271 389.5716 78.54091 L 385.8858 84.06958 C 385.1383 85.19085 384.2937 86.24425 383.36175 87.21762 L 377.0667 93.79247 C 376.1986 94.69913 375.25777 95.5332 374.2536 96.28633 L 365.8787 102.5675 C 365.00228 103.22482 364.08 103.81867 363.11896 104.34454 L 355.93376 108.27606 C 354.62263 108.99347 353.2447 109.58137 351.8195 110.03143 L 345.1466 112.13867 C 343.42973 112.68084 341.65514 113.01954 339.85927 113.14781 L 332.9728 113.6397 C 331.9005 113.7163 330.82417 113.71762 329.7517 113.64365 L 321.31543 113.06184 C 320.28125 112.99052 319.25308 112.84936 318.23795 112.63933 L 311.10274 111.16308 C 309.1508 110.75923 307.2596 110.10335 305.47676 109.21192 L 300.81735 106.88221 C 299.5832 106.26515 298.4071 105.53827 297.30326 104.71039 L 291.6213 100.44892 C 291.18217 100.11957 290.75496 99.7746 290.3405 99.41468 L 284.58533 94.41676 C 283.77104 93.70962 283.0075 92.94608 282.30036 92.13179 L 277.89513 87.05911 C 277.14103 86.19075 276.45312 85.26705 275.8372 84.29578 L 272.1035 78.40802 C 271.74293 77.83944 271.4075 77.2553 271.0982 76.65728 L 269.4778 73.52456 C 268.86867 72.34688 268.3625 71.118736 267.96497 69.853845 L 266.68473 65.78036 C 266.46995 65.09698 266.28722 64.403945 266.13713 63.703515 L 265.9117 62.65157 C 265.82664 62.25456 266.053 61.856906 266.4378 61.72737 L 266.4378 61.72737 C 266.5103 61.70296 266.58884 61.74195 266.61325 61.81444 C 266.63126 61.867954 266.615 61.92704 266.57212 61.96379 Z" stroke="black" stroke-linecap="round" stroke-linejoin="round" stroke-width="2"/>
      <path d="M 266.05925 61.75589 L 271.45925 61.15589 L 278.25925 64.55589 L 283.25925 66.35589 L 291.65925 68.15589 L 300.05925 69.15589 L 308.05925 70.15589 L 315.65925 70.35589 L 324.25925 70.75589 L 335.85925 70.55589 L 344.25925 70.15589 L 353.65925 69.55589 L 362.05925 68.75589 L 371.25925 67.35589 L 379.45925 65.15589 L 385.25925 63.35589 L 390.85925 60.75589 L 393.65925 61.95589 L 394.05925 67.55589 L 391.25925 75.55589 L 385.85925 78.35589 L 375.25925 81.55589 L 363.85925 83.95589 L 352.65925 84.75589 L 340.25925 85.75589 L 329.85925 85.75589 L 320.45925 85.75589 L 308.85925 85.15589 L 297.65925 84.35589 L 287.05925 82.15589 L 278.45925 80.15589 L 272.25925 77.35589 L 270.25925 75.75589 L 267.05925 68.15589 Z" fill="url(#Obj_Gradient_2)"/>
      <path d="M 266.05925 61.75589 L 271.45925 61.15589 L 278.25925 64.55589 L 283.25925 66.35589 L 291.65925 68.15589 L 300.05925 69.15589 L 308.05925 70.15589 L 315.65925 70.35589 L 324.25925 70.75589 L 335.85925 70.55589 L 344.25925 70.15589 L 353.65925 69.55589 L 362.05925 68.75589 L 371.25925 67.35589 L 379.45925 65.15589 L 385.25925 63.35589 L 390.85925 60.75589 L 393.65925 61.95589 L 394.05925 67.55589 L 391.25925 75.55589 L 385.85925 78.35589 L 375.25925 81.55589 L 363.85925 83.95589 L 352.65925 84.75589 L 340.25925 85.75589 L 329.85925 85.75589 L 320.45925 85.75589 L 308.85925 85.15589 L 297.65925 84.35589 L 287.05925 82.15589 L 278.45925 80.15589 L 272.25925 77.35589 L 270.25925 75.75589 L 267.05925 68.15589 Z" stroke="black" stroke-linecap="round" stroke-linejoin="round" stroke-width="1"/>
      <path d="M 195.81321 487.2 L 195.81321 487.2 C 195.74753 487.7255 195.81036 488.25905 195.9963 488.7549 L 196.6473 490.4909 C 196.82406 490.9623 197.05115 491.4132 197.32462 491.8358 L 198.29243 493.33153 C 198.8334 494.16756 199.5465 494.87855 200.38412 495.417 L 201.46217 496.11005 C 201.76243 496.3031 202.077 496.47285 202.40316 496.6179 L 203.72 497.2035 C 204.31654 497.46876 204.94725 497.6493 205.5938 497.7398 L 214.60421 499.00126 C 214.6142 499.00265 214.6242 499.00403 214.6342 499.0054 L 226.3502 500.594 C 226.3962 500.60024 226.44226 500.606 226.48838 500.61134 L 236.77131 501.7978 C 236.80324 501.8015 236.8352 501.805 236.86716 501.8082 L 250.57723 503.1991 C 250.6052 503.20193 250.6332 503.2046 250.66123 503.2071 L 261.76653 504.19865 C 261.80164 504.2018 261.8368 504.20466 261.87195 504.20726 L 272.5585 504.99886 C 272.59896 505.00185 272.63947 505.0045 272.68 505.0068 L 283.18798 505.6016 C 283.2088 505.60276 283.2296 505.60404 283.2504 505.6054 L 295.2932 506.3951 C 295.3772 506.4006 295.4613 506.4046 295.54543 506.40707 L 308.99256 506.8026 C 309.01032 506.8031 309.0281 506.8037 309.04585 506.80434 L 319.6897 507.19856 C 319.77603 507.20176 319.8624 507.20335 319.9488 507.20335 L 330.5578 507.20335 C 330.59874 507.20335 330.63967 507.2037 330.6806 507.20443 L 341.767 507.3989 C 341.9351 507.4019 342.1032 507.3988 342.27106 507.3896 L 352.8923 506.8103 C 352.9769 506.80566 353.06157 506.8026 353.1463 506.80104 L 363.91085 506.6053 C 363.9831 506.604 364.0553 506.6016 364.12745 506.59803 L 376.14607 506.00695 C 376.19483 506.00455 376.24355 506.00165 376.29225 505.9982 L 387.5323 505.20945 C 387.59023 505.2054 387.6481 505.2006 387.70594 505.1951 L 400.1165 504.01313 C 400.18497 504.0066 400.2535 504.0011 400.32214 503.9966 L 412.25416 503.2142 C 412.3642 503.20696 412.474 503.19715 412.58355 503.18475 L 422.9959 502.006 C 423.01144 502.00423 423.02697 502.0024 423.0425 502.00056 L 432.9902 500.80683 C 433.00954 500.8045 433.02886 500.8021 433.0482 500.79963 L 446.88394 499.0221 C 446.98115 499.0096 447.0781 498.9951 447.1747 498.9785 L 453.7282 497.85506 C 453.92915 497.8206 454.1315 497.79495 454.33473 497.77817 L 457.56706 497.5112 C 458.4563 497.43775 459.3233 497.195 460.12135 496.79594 L 461.60765 496.0528 C 462.20824 495.7525 462.7625 495.36735 463.2534 494.9092 L 464.5885 493.6631 C 465.1953 493.0967 465.65073 492.3875 465.9132 491.6 L 466.20805 490.7155 C 466.2781 490.5053 466.3382 490.29187 466.388 490.07595 L 466.8577 488.04056 C 466.89293 487.8879 466.8595 487.7275 466.7662 487.6017 L 466.7662 487.6017 C 466.6759 487.4798 466.52523 487.4183 466.3754 487.44214 L 457.89555 488.7912 C 457.84466 488.7993 457.79385 488.80796 457.74315 488.8172 L 444.7584 491.17805 C 444.6656 491.1949 444.5725 491.2099 444.4791 491.223 L 433.24943 492.7991 C 433.2293 492.80194 433.20914 492.80486 433.189 492.80786 L 420.0199 494.7734 C 419.88613 494.79337 419.7518 494.80945 419.6171 494.82163 L 409.10874 495.7721 C 408.903 495.7907 408.69657 495.8002 408.49 495.80053 L 407.05605 495.80295 C 406.8982 495.8032 406.7404 495.8088 406.58293 495.81976 L 392.4531 496.801 C 392.4305 496.80257 392.4079 496.804 392.3853 496.8054 L 379.08205 497.5996 C 379.04016 497.6021 378.99824 497.6042 378.9563 497.606 L 364.76485 498.1973 C 364.66776 498.20133 364.5706 498.20335 364.47344 498.20335 L 351.2192 498.20335 L 338.67753 498.20335 C 338.63865 498.20335 338.59976 498.2037 338.5609 498.2043 L 326.8025 498.4003 C 326.68032 498.40234 326.5581 498.4012 326.436 498.3968 L 315.6024 498.0099 C 315.4803 498.00554 315.3581 498.0044 315.2359 498.0064 L 303.52127 498.20165 C 303.45323 498.2028 303.38518 498.2029 303.31713 498.2021 L 287.61484 498.0058 C 287.48444 498.00417 287.3541 497.9989 287.224 497.99 L 272.91423 497.00986 C 272.85088 497.0055 272.7876 497.0003 272.7244 496.99426 L 258.2334 495.6047 C 258.22393 495.6038 258.21448 495.6029 258.20503 495.60194 L 244.393 494.22073 C 244.27715 494.20915 244.16162 494.1947 244.0465 494.17733 L 229.73735 492.02116 C 229.6586 492.0093 229.57964 491.99877 229.50052 491.9896 L 215.9806 490.42207 C 215.87301 490.4096 215.76574 490.3946 215.65886 490.3772 L 206.26677 488.8438 C 206.10178 488.81684 205.9378 488.784 205.77516 488.7453 L 196.69756 486.58654 C 196.30925 486.4942 195.9196 486.7341 195.82724 487.12244 C 195.82116 487.148 195.81647 487.1739 195.81321 487.2 Z" fill="black"/>
      <path d="M 195.81321 487.2 L 195.81321 487.2 C 195.74753 487.7255 195.81036 488.25905 195.9963 488.7549 L 196.6473 490.4909 C 196.82406 490.9623 197.05115 491.4132 197.32462 491.8358 L 198.29243 493.33153 C 198.8334 494.16756 199.5465 494.87855 200.38412 495.417 L 201.46217 496.11005 C 201.76243 496.3031 202.077 496.47285 202.40316 496.6179 L 203.72 497.2035 C 204.31654 497.46876 204.94725 497.6493 205.5938 497.7398 L 214.60421 499.00126 C 214.6142 499.00265 214.6242 499.00403 214.6342 499.0054 L 226.3502 500.594 C 226.3962 500.60024 226.44226 500.606 226.48838 500.61134 L 236.77131 501.7978 C 236.80324 501.8015 236.8352 501.805 236.86716 501.8082 L 250.57723 503.1991 C 250.6052 503.20193 250.6332 503.2046 250.66123 503.2071 L 261.76653 504.19865 C 261.80164 504.2018 261.8368 504.20466 261.87195 504.20726 L 272.5585 504.99886 C 272.59896 505.00185 272.63947 505.0045 272.68 505.0068 L 283.18798 505.6016 C 283.2088 505.60276 283.2296 505.60404 283.2504 505.6054 L 295.2932 506.3951 C 295.3772 506.4006 295.4613 506.4046 295.54543 506.40707 L 308.99256 506.8026 C 309.01032 506.8031 309.0281 506.8037 309.04585 506.80434 L 319.6897 507.19856 C 319.77603 507.20176 319.8624 507.20335 319.9488 507.20335 L 330.5578 507.20335 C 330.59874 507.20335 330.63967 507.2037 330.6806 507.20443 L 341.767 507.3989 C 341.9351 507.4019 342.1032 507.3988 342.27106 507.3896 L 352.8923 506.8103 C 352.9769 506.80566 353.06157 506.8026 353.1463 506.80104 L 363.91085 506.6053 C 363.9831 506.604 364.0553 506.6016 364.12745 506.59803 L 376.14607 506.00695 C 376.19483 506.00455 376.24355 506.00165 376.29225 505.9982 L 387.5323 505.20945 C 387.59023 505.2054 387.6481 505.2006 387.70594 505.1951 L 400.1165 504.01313 C 400.18497 504.0066 400.2535 504.0011 400.32214 503.9966 L 412.25416 503.2142 C 412.3642 503.20696 412.474 503.19715 412.58355 503.18475 L 422.9959 502.006 C 423.01144 502.00423 423.02697 502.0024 423.0425 502.00056 L 432.9902 500.80683 C 433.00954 500.8045 433.02886 500.8021 433.0482 500.79963 L 446.88394 499.0221 C 446.98115 499.0096 447.0781 498.9951 447.1747 498.9785 L 453.7282 497.85506 C 453.92915 497.8206 454.1315 497.79495 454.33473 497.77817 L 457.56706 497.5112 C 458.4563 497.43775 459.3233 497.195 460.12135 496.79594 L 461.60765 496.0528 C 462.20824 495.7525 462.7625 495.36735 463.2534 494.9092 L 464.5885 493.6631 C 465.1953 493.0967 465.65073 492.3875 465.9132 491.6 L 466.20805 490.7155 C 466.2781 490.5053 466.3382 490.29187 466.388 490.07595 L 466.8577 488.04056 C 466.89293 487.8879 466.8595 487.7275 466.7662 487.6017 L 466.7662 487.6017 C 466.6759 487.4798 466.52523 487.4183 466.3754 487.44214 L 457.89555 488.7912 C 457.84466 488.7993 457.79385 488.80796 457.74315 488.8172 L 444.7584 491.17805 C 444.6656 491.1949 444.5725 491.2099 444.4791 491.223 L 433.24943 492.7991 C 433.2293 492.80194 433.20914 492.80486 433.189 492.80786 L 420.0199 494.7734 C 419.88613 494.79337 419.7518 494.80945 419.6171 494.82163 L 409.10874 495.7721 C 408.903 495.7907 408.69657 495.8002 408.49 495.80053 L 407.05605 495.80295 C 406.8982 495.8032 406.7404 495.8088 406.58293 495.81976 L 392.4531 496.801 C 392.4305 496.80257 392.4079 496.804 392.3853 496.8054 L 379.08205 497.5996 C 379.04016 497.6021 378.99824 497.6042 378.9563 497.606 L 364.76485 498.1973 C 364.66776 498.20133 364.5706 498.20335 364.47344 498.20335 L 351.2192 498.20335 L 338.67753 498.20335 C 338.63865 498.20335 338.59976 498.2037 338.5609 498.2043 L 326.8025 498.4003 C 326.68032 498.40234 326.5581 498.4012 326.436 498.3968 L 315.6024 498.0099 C 315.4803 498.00554 315.3581 498.0044 315.2359 498.0064 L 303.52127 498.20165 C 303.45323 498.2028 303.38518 498.2029 303.31713 498.2021 L 287.61484 498.0058 C 287.48444 498.00417 287.3541 497.9989 287.224 497.99 L 272.91423 497.00986 C 272.85088 497.0055 272.7876 497.0003 272.7244 496.99426 L 258.2334 495.6047 C 258.22393 495.6038 258.21448 495.6029 258.20503 495.60194 L 244.393 494.22073 C 244.27715 494.20915 244.16162 494.1947 244.0465 494.17733 L 229.73735 492.02116 C 229.6586 492.0093 229.57964 491.99877 229.50052 491.9896 L 215.9806 490.42207 C 215.87301 490.4096 215.76574 490.3946 215.65886 490.3772 L 206.26677 488.8438 C 206.10178 488.81684 205.9378 488.784 205.77516 488.7453 L 196.69756 486.58654 C 196.30925 486.4942 195.9196 486.7341 195.82724 487.12244 C 195.82116 487.148 195.81647 487.1739 195.81321 487.2 Z" stroke="black" stroke-linecap="round" stroke-linejoin="round" stroke-width="3"/>
    </g>
  </g>
</svg>
