<?xml version="1.0" encoding="UTF-8" standalone="no"?>
<!DOCTYPE svg PUBLIC "-//W3C//DTD SVG 1.1//EN" "http://www.w3.org/Graphics/SVG/1.1/DTD/svg11.dtd">
<svg xmlns="http://www.w3.org/2000/svg" xmlns:xl="http://www.w3.org/1999/xlink" version="1.1" viewBox="319.5 689.5 432.4053 448.4" width="432.4053pt" height="448.4pt" xmlns:dc="http://purl.org/dc/elements/1.1/">
  <metadata> Produced by OmniGraffle 7.6.1 
    <dc:date>2019-06-07 16:27:06 +0000</dc:date>
  </metadata>
  <defs>
    <radialGradient cx="0" cy="0" r="1" id="Gradient" gradientUnits="userSpaceOnUse">
      <stop offset="0" stop-color="#cbcbcb"/>
      <stop offset="1" stop-color="#843918"/>
    </radialGradient>
    <radialGradient id="Obj_Gradient" xl:href="#Gradient" gradientTransform="translate(534.75925 717.4) scale(70.26272)"/>
    <radialGradient cx="0" cy="0" r="1" id="Gradient_2" gradientUnits="userSpaceOnUse">
      <stop offset="0" stop-color="#060d03"/>
      <stop offset="1" stop-color="#333"/>
    </radialGradient>
    <radialGradient id="Obj_Gradient_2" xl:href="#Gradient_2" gradientTransform="translate(534.787 724.3553) scale(83.83496)"/>
    <linearGradient x1="0" x2="1" id="Gradient_3" gradientUnits="userSpaceOnUse">
      <stop offset="0" stop-color="black"/>
      <stop offset="1" stop-color="#919191"/>
    </linearGradient>
    <linearGradient id="Obj_Gradient_3" xl:href="#Gradient_3" gradientTransform="translate(534.05925 690.7559) rotate(90) scale(25)"/>
    <radialGradient cx="0" cy="0" r="1" id="Gradient_4" gradientUnits="userSpaceOnUse">
      <stop offset="0" stop-color="black"/>
      <stop offset="1" stop-color="#241209"/>
    </radialGradient>
    <radialGradient id="Obj_Gradient_4" xl:href="#Gradient_4" gradientTransform="translate(535.3297 1126.9834) scale(135.94141)"/>
  </defs>
  <g stroke="none" stroke-opacity="1" stroke-dasharray="none" fill="none" fill-opacity="1">
    <title>rayas_02</title>
    <g>
      <title>Capa 1</title>
      <path d="M 473.00565 690.59045 L 481.1711 693.7082 C 482.0291 694.0358 482.90594 694.3117 483.7969 694.5344 L 497.5141 697.9637 C 498.67576 698.2541 499.8583 698.4534 501.051 698.5597 L 518.57715 700.1214 C 519.165 700.1738 519.75464 700.2035 520.3448 700.21054 L 535.8237 700.3948 C 536.11404 700.3983 536.4044 700.3962 536.6947 700.3887 L 551.118 700.0141 C 551.4788 700.0047 551.8393 699.9868 552.19924 699.9605 L 566.5705 698.9089 C 567.562 698.8364 568.54766 698.69964 569.5214 698.49956 L 581.09436 696.12155 C 582.1364 695.90744 583.16226 695.6213 584.16465 695.2652 L 595.91664 691.0901 C 597.007 690.7028 598.2102 691.23354 598.65925 692.3 L 598.65925 692.3 C 599.1814 693.5401 599.3334 694.90485 599.09685 696.22945 L 598.9164 697.2401 C 598.6126 698.9413 598.11806 700.6028 597.44214 702.1932 L 595.8989 705.8243 C 595.34035 707.1386 594.6606 708.398 593.86846 709.5862 L 590.1827 715.11485 C 589.4352 716.2361 588.5906 717.2895 587.6586 718.2629 L 581.36354 724.8377 C 580.4955 725.7444 579.5546 726.5785 578.55046 727.3316 L 570.17555 733.6128 C 569.29914 734.2701 568.3769 734.8639 567.4158 735.3898 L 560.2306 739.3213 C 558.9195 740.0387 557.54156 740.6266 556.1164 741.0767 L 549.44347 743.1839 C 547.7266 743.7261 545.952 744.0648 544.1561 744.1931 L 537.2697 744.685 C 536.1974 744.7616 535.121 744.7629 534.04854 744.6889 L 525.6123 744.1071 C 524.5781 744.0358 523.54994 743.8946 522.5348 743.6846 L 515.3996 742.20835 C 513.44765 741.8045 511.5565 741.1486 509.7736 740.2572 L 505.1142 737.9275 C 503.8801 737.3104 502.70397 736.5835 501.6001 735.75566 L 495.91816 731.4942 C 495.479 731.1648 495.0518 730.8199 494.63737 730.45995 L 488.8822 725.462 C 488.0679 724.7549 487.30436 723.99135 486.5972 723.1771 L 482.192 718.1044 C 481.4379 717.236 480.75 716.3123 480.13406 715.34105 L 476.40036 709.4533 C 476.0398 708.8847 475.70437 708.3006 475.39505 707.70255 L 473.7747 704.5698 C 473.16553 703.39215 472.65936 702.164 472.2618 700.8991 L 470.9816 696.8256 C 470.7668 696.14225 470.5841 695.4492 470.434 694.7488 L 470.35925 694.4 C 470.1646 693.4916 470.27185 692.5444 470.6647 691.70254 L 470.75925 691.5 C 471.1537 690.6547 472.1342 690.2577 473.00565 690.59045 Z" fill="url(#Obj_Gradient)"/>
      <path d="M 473.00565 690.59045 L 481.1711 693.7082 C 482.0291 694.0358 482.90594 694.3117 483.7969 694.5344 L 497.5141 697.9637 C 498.67576 698.2541 499.8583 698.4534 501.051 698.5597 L 518.57715 700.1214 C 519.165 700.1738 519.75464 700.2035 520.3448 700.21054 L 535.8237 700.3948 C 536.11404 700.3983 536.4044 700.3962 536.6947 700.3887 L 551.118 700.0141 C 551.4788 700.0047 551.8393 699.9868 552.19924 699.9605 L 566.5705 698.9089 C 567.562 698.8364 568.54766 698.69964 569.5214 698.49956 L 581.09436 696.12155 C 582.1364 695.90744 583.16226 695.6213 584.16465 695.2652 L 595.91664 691.0901 C 597.007 690.7028 598.2102 691.23354 598.65925 692.3 L 598.65925 692.3 C 599.1814 693.5401 599.3334 694.90485 599.09685 696.22945 L 598.9164 697.2401 C 598.6126 698.9413 598.11806 700.6028 597.44214 702.1932 L 595.8989 705.8243 C 595.34035 707.1386 594.6606 708.398 593.86846 709.5862 L 590.1827 715.11485 C 589.4352 716.2361 588.5906 717.2895 587.6586 718.2629 L 581.36354 724.8377 C 580.4955 725.7444 579.5546 726.5785 578.55046 727.3316 L 570.17555 733.6128 C 569.29914 734.2701 568.3769 734.8639 567.4158 735.3898 L 560.2306 739.3213 C 558.9195 740.0387 557.54156 740.6266 556.1164 741.0767 L 549.44347 743.1839 C 547.7266 743.7261 545.952 744.0648 544.1561 744.1931 L 537.2697 744.685 C 536.1974 744.7616 535.121 744.7629 534.04854 744.6889 L 525.6123 744.1071 C 524.5781 744.0358 523.54994 743.8946 522.5348 743.6846 L 515.3996 742.20835 C 513.44765 741.8045 511.5565 741.1486 509.7736 740.2572 L 505.1142 737.9275 C 503.8801 737.3104 502.70397 736.5835 501.6001 735.75566 L 495.91816 731.4942 C 495.479 731.1648 495.0518 730.8199 494.63737 730.45995 L 488.8822 725.462 C 488.0679 724.7549 487.30436 723.99135 486.5972 723.1771 L 482.192 718.1044 C 481.4379 717.236 480.75 716.3123 480.13406 715.34105 L 476.40036 709.4533 C 476.0398 708.8847 475.70437 708.3006 475.39505 707.70255 L 473.7747 704.5698 C 473.16553 703.39215 472.65936 702.164 472.2618 700.8991 L 470.9816 696.8256 C 470.7668 696.14225 470.5841 695.4492 470.434 694.7488 L 470.35925 694.4 C 470.1646 693.4916 470.27185 692.5444 470.6647 691.70254 L 470.75925 691.5 C 471.1537 690.6547 472.1342 690.2577 473.00565 690.59045 Z" stroke="#7f8080" stroke-linecap="round" stroke-linejoin="round" stroke-width="1"/>
      <path d="M 408.97346 1127.2638 L 422.7157 1129.5542 C 422.89907 1129.5847 423.08297 1129.6121 423.2673 1129.6362 L 451.62094 1133.3515 C 451.86747 1133.3838 452.1147 1133.4104 452.3625 1133.4312 L 482.60537 1135.9677 C 482.8623 1135.9892 483.11966 1136.0046 483.3773 1136.0137 L 522.3082 1137.39 C 522.4966 1137.3967 522.68504 1137.4 522.8735 1137.4 L 554.34084 1137.4 C 554.50746 1137.4 554.67407 1137.3974 554.8406 1137.3922 L 579.8754 1136.6099 C 580.0856 1136.6033 580.2957 1136.5926 580.50555 1136.5777 L 602.5533 1135.0168 C 602.7116 1135.0056 602.86975 1134.992 603.02766 1134.9761 L 628.28815 1132.4305 C 628.4899 1132.4102 628.6912 1132.386 628.89204 1132.358 L 652.68474 1129.0427 C 652.88875 1129.0142 653.0922 1128.9819 653.29496 1128.9456 L 662.4908 1127.3 C 667.8179 1126.3467 671.46876 1121.3931 670.80234 1116.0226 L 668.59475 1098.232 C 668.5921 1098.2107 668.5895 1098.1893 668.58695 1098.168 L 665.0231 1068.4695 C 665.0016 1068.2898 664.98306 1068.1099 664.9676 1067.9296 L 662.6054 1040.3704 C 662.59565 1040.2568 662.5871 1040.1431 662.5798 1040.0294 L 661.1932 1018.4377 C 661.1916 1018.4126 661.1899 1018.3874 661.1882 1018.3623 L 659.596 995.276 C 659.5925 995.2253 659.5893 995.1747 659.5863 995.124 L 658.4099 975.3218 C 658.39716 975.1073 658.3887 974.8925 658.38465 974.6777 L 657.9924 954.0829 C 657.9913 954.0276 657.99 953.9724 657.98835 953.9172 L 657.3932 933.6828 C 657.3916 933.6276 657.39026 933.5724 657.3892 933.5172 L 656.99855 913.0076 C 656.9934 912.7359 656.9951 912.4641 657.0038 912.1925 L 657.5897 893.8329 C 657.5904 893.811 657.5912 893.789 657.592 893.7671 L 658.38005 871.8978 C 658.3872 871.6993 658.39806 871.5009 658.4126 871.3028 L 659.9701 850.0822 C 659.9839 849.8941 659.99436 849.7057 660.0015 849.5172 L 660.75596 829.6184 C 660.77915 829.0066 660.8374 828.3967 660.9305 827.7917 L 663.6695 809.9881 C 663.7503 809.463 663.8572 808.9423 663.9898 808.4278 L 668.6181 790.4702 C 668.73316 790.0236 668.8675 789.5822 669.0207 789.1472 L 674.7415 772.9076 C 674.9076 772.4361 675.0957 771.9727 675.3052 771.5188 L 680.8367 759.5338 C 680.9394 759.3113 681.0472 759.0912 681.16 758.8736 L 686.5222 748.5322 C 686.5679 748.4441 686.61446 748.3564 686.6618 748.2691 L 691.8778 738.6521 C 692.61505 737.2928 693.5647 736.0599 694.6908 735 L 694.6908 735 C 695.366 734.3645 695.3982 733.302 694.7627 732.6268 C 694.6382 732.4946 694.4931 732.3834 694.33295 732.2976 L 691.1188 730.5757 C 690.90016 730.4586 690.6788 730.3466 690.45494 730.2397 L 682.601 726.4912 C 682.1944 726.2972 681.7797 726.1204 681.3582 725.9613 L 671.6834 722.3104 C 671.4883 722.2368 671.2919 722.167 671.0941 722.1011 L 658.3996 717.8696 C 658.2604 717.8232 658.12055 717.7787 657.9801 717.7362 L 645.0966 713.8321 C 645.02605 713.8107 644.9557 713.7888 644.88544 713.7665 L 632.38144 709.7879 C 631.9878 709.6627 631.5992 709.52225 631.2164 709.3669 L 619.2405 704.5071 C 618.4088 704.1696 617.60704 703.7628 616.8436 703.2908 L 607.22436 697.3444 C 607.06865 697.2481 606.9146 697.1492 606.7623 697.0477 L 601.8722 693.7876 C 600.8908 693.13335 600.0195 692.32745 599.2908 691.4 L 599.2908 691.4 C 599.1852 691.2656 598.9906 691.24225 598.8562 691.34785 C 598.7535 691.4286 598.7125 691.5651 598.7538 691.6891 L 598.8908 692.1 C 599.35 693.47775 599.4546 694.949 599.1948 696.3779 L 598.7997 698.55115 C 598.52845 700.0428 598.0466 701.48835 597.3686 702.8444 L 595.83626 705.909 C 595.5396 706.5024 595.20624 707.0768 594.8382 707.6288 L 591.6345 712.4344 C 591.2059 713.0773 590.7313 713.6883 590.2144 714.2626 L 585.6524 719.33156 C 585.6113 719.3772 585.57 719.4226 585.5284 719.4677 L 579.53417 725.9758 C 578.9064 726.6573 578.2207 727.283 577.48465 727.8459 L 572.4605 731.6879 C 572.0143 732.0291 571.5505 732.3465 571.071 732.6389 L 564.5846 736.594 C 563.9229 736.9975 563.2328 737.3523 562.51975 737.6558 L 555.40434 740.6836 C 554.5967 741.0273 553.7621 741.3039 552.90905 741.5107 L 548.83 742.4996 C 548.00516 742.69955 547.1657 742.8336 546.31963 742.90035 L 540.6194 743.3504 C 540.2005 743.38344 539.7804 743.4 539.3602 743.4 L 532.3279 743.4 C 531.57077 743.4 530.8146 743.3463 530.0651 743.2392 L 522.1187 742.104 C 521.6337 742.0347 521.1521 741.9432 520.6755 741.8297 L 514.71426 740.41035 C 513.5688 740.1376 512.4569 739.7393 511.3988 739.2225 L 505.1188 736.15556 C 504.6338 735.9187 504.161 735.6574 503.7024 735.3727 L 499.4905 732.7585 C 498.89135 732.3866 498.3174 731.97546 497.7725 731.5278 L 493.3264 727.8757 C 493.1027 727.6919 492.884 727.5021 492.6706 727.3065 L 488.8683 723.821 C 488.417 723.40736 487.9898 722.9681 487.58885 722.5055 L 483.4701 717.7531 C 483.1507 717.38455 482.84836 717.0016 482.56395 716.6055 L 478.1343 710.4356 C 477.6394 709.7463 477.20013 709.0187 476.82064 708.2597 L 474.2442 703.1068 C 474.2086 703.0356 474.1735 702.9641 474.139 702.8924 L 472.8908 700.3 C 472.04007 698.5331 471.68455 696.5686 471.8621 694.61564 L 472.0423 692.6334 C 472.0661 692.3715 471.8731 692.13994 471.61125 692.1161 C 471.44886 692.1014 471.2902 692.17075 471.1908 692.3 L 471.1908 692.3 C 470.52734 693.1625 469.7472 693.9286 468.87285 694.57625 L 464.9763 697.4626 C 464.85263 697.5542 464.72763 697.644 464.60136 697.732 L 459.9791 700.9536 C 458.79237 701.7807 457.49895 702.4431 456.1342 702.9226 L 451.5271 704.5413 C 451.0365 704.7137 450.55463 704.9098 450.08316 705.1291 L 443.2364 708.3137 C 442.5402 708.6375 441.82165 708.9107 441.08625 709.1314 L 430.21586 712.3925 C 430.19914 712.3975 430.18243 712.4025 430.1657 712.4076 L 419.19764 715.7372 C 419.05974 715.7791 418.9224 715.8228 418.7857 715.8684 L 405.86446 720.1754 C 405.81534 720.1918 405.76614 720.20795 405.71686 720.22384 L 394.34946 723.89075 C 393.71097 724.0967 393.08607 724.3426 392.47846 724.62704 L 384.5465 728.3399 C 384.17616 728.5132 383.8126 728.7007 383.4566 728.9019 L 377.5105 732.2628 C 376.25747 732.971 375.81583 734.5609 376.52406 735.814 C 376.6012 735.9504 376.69045 736.0796 376.7908 736.2 L 377.6549 737.2369 C 378.40984 738.1429 379.0623 739.1295 379.60043 740.1788 L 382.67757 746.1792 C 382.75304 746.3264 382.8308 746.4724 382.9108 746.61715 L 386.86554 753.7734 C 386.94903 753.92445 387.03007 754.0769 387.10863 754.2306 L 391.21693 762.2686 C 391.466 762.7559 391.6899 763.2556 391.88776 763.7659 L 395.37053 772.7478 C 395.38403 772.7826 395.39765 772.8174 395.4114 772.8521 L 399.00772 781.9375 C 399.12973 782.2458 399.24213 782.5577 399.34476 782.8729 L 401.9666 790.9257 C 401.9827 790.9752 401.9986 791.0248 402.01424 791.0745 L 405.0863 800.8328 C 405.2891 801.47695 405.4509 802.1333 405.57073 802.7979 L 407.55605 813.8074 C 407.5792 813.9358 407.6008 814.0645 407.6208 814.1934 L 409.32666 825.1868 C 409.3694 825.4622 409.40494 825.7387 409.43323 826.016 L 410.32065 834.7127 C 410.3674 835.1707 410.39433 835.6305 410.4014 836.0908 L 410.58565 848.0664 C 410.58907 848.2888 410.59713 848.5111 410.6098 848.7331 L 411.3802 862.2146 C 411.38725 862.3382 411.39575 862.4617 411.40567 862.5851 L 412.73924 879.1594 C 412.7736 879.5863 412.7908 880.0144 412.7908 880.4426 L 412.7908 892.8924 C 412.7908 893.0975 412.7947 893.3025 412.8026 893.5074 L 413.38295 908.5965 C 413.38817 908.7322 413.39166 908.8679 413.39343 909.0036 L 413.5856 923.7999 C 413.58905 924.0666 413.58584 924.3333 413.57597 924.5999 L 413.00174 940.104 C 412.99444 940.3013 412.9908 940.4988 412.9908 940.6962 L 412.9908 954.2924 C 412.9908 954.4975 412.98684 954.7025 412.97896 954.9074 L 412.39377 970.1224 C 412.3918 970.1741 412.38953 970.2259 412.38704 970.2776 L 411.5917 986.7806 C 411.5911 986.7935 411.59045 986.8065 411.5898 986.8195 L 410.7953 1002.5106 C 410.7923 1002.5702 410.78894 1002.6298 410.78526 1002.6893 L 409.59634 1021.9101 C 409.59264 1021.97 409.5886 1022.03 409.5842 1022.0899 L 407.80107 1046.4594 C 407.7942 1046.5531 407.78653 1046.6468 407.778 1046.7404 L 405.99213 1066.3852 C 405.99123 1066.3951 405.9903 1066.405 405.9894 1066.4148 L 404.21864 1085.4997 C 404.20007 1085.6999 404.17773 1085.8997 404.1516 1086.099 L 402.1909 1101.0717 C 402.0581 1102.086 401.78896 1103.0776 401.3908 1104.0197 L 401.3908 1104.0197 C 400.9932 1104.9605 400.74454 1105.9574 400.6537 1106.9747 L 399.8908 1115.5197 C 399.38302 1121.2068 403.3415 1126.3251 408.97346 1127.2638 Z" fill="red"/>
      <path d="M 408.97346 1127.2638 L 422.7157 1129.5542 C 422.89907 1129.5847 423.08297 1129.6121 423.2673 1129.6362 L 451.62094 1133.3515 C 451.86747 1133.3838 452.1147 1133.4104 452.3625 1133.4312 L 482.60537 1135.9677 C 482.8623 1135.9892 483.11966 1136.0046 483.3773 1136.0137 L 522.3082 1137.39 C 522.4966 1137.3967 522.68504 1137.4 522.8735 1137.4 L 554.34084 1137.4 C 554.50746 1137.4 554.67407 1137.3974 554.8406 1137.3922 L 579.8754 1136.6099 C 580.0856 1136.6033 580.2957 1136.5926 580.50555 1136.5777 L 602.5533 1135.0168 C 602.7116 1135.0056 602.86975 1134.992 603.02766 1134.9761 L 628.28815 1132.4305 C 628.4899 1132.4102 628.6912 1132.386 628.89204 1132.358 L 652.68474 1129.0427 C 652.88875 1129.0142 653.0922 1128.9819 653.29496 1128.9456 L 662.4908 1127.3 C 667.8179 1126.3467 671.46876 1121.3931 670.80234 1116.0226 L 668.59475 1098.232 C 668.5921 1098.2107 668.5895 1098.1893 668.58695 1098.168 L 665.0231 1068.4695 C 665.0016 1068.2898 664.98306 1068.1099 664.9676 1067.9296 L 662.6054 1040.3704 C 662.59565 1040.2568 662.5871 1040.1431 662.5798 1040.0294 L 661.1932 1018.4377 C 661.1916 1018.4126 661.1899 1018.3874 661.1882 1018.3623 L 659.596 995.276 C 659.5925 995.2253 659.5893 995.1747 659.5863 995.124 L 658.4099 975.3218 C 658.39716 975.1073 658.3887 974.8925 658.38465 974.6777 L 657.9924 954.0829 C 657.9913 954.0276 657.99 953.9724 657.98835 953.9172 L 657.3932 933.6828 C 657.3916 933.6276 657.39026 933.5724 657.3892 933.5172 L 656.99855 913.0076 C 656.9934 912.7359 656.9951 912.4641 657.0038 912.1925 L 657.5897 893.8329 C 657.5904 893.811 657.5912 893.789 657.592 893.7671 L 658.38005 871.8978 C 658.3872 871.6993 658.39806 871.5009 658.4126 871.3028 L 659.9701 850.0822 C 659.9839 849.8941 659.99436 849.7057 660.0015 849.5172 L 660.75596 829.6184 C 660.77915 829.0066 660.8374 828.3967 660.9305 827.7917 L 663.6695 809.9881 C 663.7503 809.463 663.8572 808.9423 663.9898 808.4278 L 668.6181 790.4702 C 668.73316 790.0236 668.8675 789.5822 669.0207 789.1472 L 674.7415 772.9076 C 674.9076 772.4361 675.0957 771.9727 675.3052 771.5188 L 680.8367 759.5338 C 680.9394 759.3113 681.0472 759.0912 681.16 758.8736 L 686.5222 748.5322 C 686.5679 748.4441 686.61446 748.3564 686.6618 748.2691 L 691.8778 738.6521 C 692.61505 737.2928 693.5647 736.0599 694.6908 735 L 694.6908 735 C 695.366 734.3645 695.3982 733.302 694.7627 732.6268 C 694.6382 732.4946 694.4931 732.3834 694.33295 732.2976 L 691.1188 730.5757 C 690.90016 730.4586 690.6788 730.3466 690.45494 730.2397 L 682.601 726.4912 C 682.1944 726.2972 681.7797 726.1204 681.3582 725.9613 L 671.6834 722.3104 C 671.4883 722.2368 671.2919 722.167 671.0941 722.1011 L 658.3996 717.8696 C 658.2604 717.8232 658.12055 717.7787 657.9801 717.7362 L 645.0966 713.8321 C 645.02605 713.8107 644.9557 713.7888 644.88544 713.7665 L 632.38144 709.7879 C 631.9878 709.6627 631.5992 709.52225 631.2164 709.3669 L 619.2405 704.5071 C 618.4088 704.1696 617.60704 703.7628 616.8436 703.2908 L 607.22436 697.3444 C 607.06865 697.2481 606.9146 697.1492 606.7623 697.0477 L 601.8722 693.7876 C 600.8908 693.13335 600.0195 692.32745 599.2908 691.4 L 599.2908 691.4 C 599.1852 691.2656 598.9906 691.24225 598.8562 691.34785 C 598.7535 691.4286 598.7125 691.5651 598.7538 691.6891 L 598.8908 692.1 C 599.35 693.47775 599.4546 694.949 599.1948 696.3779 L 598.7997 698.55115 C 598.52845 700.0428 598.0466 701.48835 597.3686 702.8444 L 595.83626 705.909 C 595.5396 706.5024 595.20624 707.0768 594.8382 707.6288 L 591.6345 712.4344 C 591.2059 713.0773 590.7313 713.6883 590.2144 714.2626 L 585.6524 719.33156 C 585.6113 719.3772 585.57 719.4226 585.5284 719.4677 L 579.53417 725.9758 C 578.9064 726.6573 578.2207 727.283 577.48465 727.8459 L 572.4605 731.6879 C 572.0143 732.0291 571.5505 732.3465 571.071 732.6389 L 564.5846 736.594 C 563.9229 736.9975 563.2328 737.3523 562.51975 737.6558 L 555.40434 740.6836 C 554.5967 741.0273 553.7621 741.3039 552.90905 741.5107 L 548.83 742.4996 C 548.00516 742.69955 547.1657 742.8336 546.31963 742.90035 L 540.6194 743.3504 C 540.2005 743.38344 539.7804 743.4 539.3602 743.4 L 532.3279 743.4 C 531.57077 743.4 530.8146 743.3463 530.0651 743.2392 L 522.1187 742.104 C 521.6337 742.0347 521.1521 741.9432 520.6755 741.8297 L 514.71426 740.41035 C 513.5688 740.1376 512.4569 739.7393 511.3988 739.2225 L 505.1188 736.15556 C 504.6338 735.9187 504.161 735.6574 503.7024 735.3727 L 499.4905 732.7585 C 498.89135 732.3866 498.3174 731.97546 497.7725 731.5278 L 493.3264 727.8757 C 493.1027 727.6919 492.884 727.5021 492.6706 727.3065 L 488.8683 723.821 C 488.417 723.40736 487.9898 722.9681 487.58885 722.5055 L 483.4701 717.7531 C 483.1507 717.38455 482.84836 717.0016 482.56395 716.6055 L 478.1343 710.4356 C 477.6394 709.7463 477.20013 709.0187 476.82064 708.2597 L 474.2442 703.1068 C 474.2086 703.0356 474.1735 702.9641 474.139 702.8924 L 472.8908 700.3 C 472.04007 698.5331 471.68455 696.5686 471.8621 694.61564 L 472.0423 692.6334 C 472.0661 692.3715 471.8731 692.13994 471.61125 692.1161 C 471.44886 692.1014 471.2902 692.17075 471.1908 692.3 L 471.1908 692.3 C 470.52734 693.1625 469.7472 693.9286 468.87285 694.57625 L 464.9763 697.4626 C 464.85263 697.5542 464.72763 697.644 464.60136 697.732 L 459.9791 700.9536 C 458.79237 701.7807 457.49895 702.4431 456.1342 702.9226 L 451.5271 704.5413 C 451.0365 704.7137 450.55463 704.9098 450.08316 705.1291 L 443.2364 708.3137 C 442.5402 708.6375 441.82165 708.9107 441.08625 709.1314 L 430.21586 712.3925 C 430.19914 712.3975 430.18243 712.4025 430.1657 712.4076 L 419.19764 715.7372 C 419.05974 715.7791 418.9224 715.8228 418.7857 715.8684 L 405.86446 720.1754 C 405.81534 720.1918 405.76614 720.20795 405.71686 720.22384 L 394.34946 723.89075 C 393.71097 724.0967 393.08607 724.3426 392.47846 724.62704 L 384.5465 728.3399 C 384.17616 728.5132 383.8126 728.7007 383.4566 728.9019 L 377.5105 732.2628 C 376.25747 732.971 375.81583 734.5609 376.52406 735.814 C 376.6012 735.9504 376.69045 736.0796 376.7908 736.2 L 377.6549 737.2369 C 378.40984 738.1429 379.0623 739.1295 379.60043 740.1788 L 382.67757 746.1792 C 382.75304 746.3264 382.8308 746.4724 382.9108 746.61715 L 386.86554 753.7734 C 386.94903 753.92445 387.03007 754.0769 387.10863 754.2306 L 391.21693 762.2686 C 391.466 762.7559 391.6899 763.2556 391.88776 763.7659 L 395.37053 772.7478 C 395.38403 772.7826 395.39765 772.8174 395.4114 772.8521 L 399.00772 781.9375 C 399.12973 782.2458 399.24213 782.5577 399.34476 782.8729 L 401.9666 790.9257 C 401.9827 790.9752 401.9986 791.0248 402.01424 791.0745 L 405.0863 800.8328 C 405.2891 801.47695 405.4509 802.1333 405.57073 802.7979 L 407.55605 813.8074 C 407.5792 813.9358 407.6008 814.0645 407.6208 814.1934 L 409.32666 825.1868 C 409.3694 825.4622 409.40494 825.7387 409.43323 826.016 L 410.32065 834.7127 C 410.3674 835.1707 410.39433 835.6305 410.4014 836.0908 L 410.58565 848.0664 C 410.58907 848.2888 410.59713 848.5111 410.6098 848.7331 L 411.3802 862.2146 C 411.38725 862.3382 411.39575 862.4617 411.40567 862.5851 L 412.73924 879.1594 C 412.7736 879.5863 412.7908 880.0144 412.7908 880.4426 L 412.7908 892.8924 C 412.7908 893.0975 412.7947 893.3025 412.8026 893.5074 L 413.38295 908.5965 C 413.38817 908.7322 413.39166 908.8679 413.39343 909.0036 L 413.5856 923.7999 C 413.58905 924.0666 413.58584 924.3333 413.57597 924.5999 L 413.00174 940.104 C 412.99444 940.3013 412.9908 940.4988 412.9908 940.6962 L 412.9908 954.2924 C 412.9908 954.4975 412.98684 954.7025 412.97896 954.9074 L 412.39377 970.1224 C 412.3918 970.1741 412.38953 970.2259 412.38704 970.2776 L 411.5917 986.7806 C 411.5911 986.7935 411.59045 986.8065 411.5898 986.8195 L 410.7953 1002.5106 C 410.7923 1002.5702 410.78894 1002.6298 410.78526 1002.6893 L 409.59634 1021.9101 C 409.59264 1021.97 409.5886 1022.03 409.5842 1022.0899 L 407.80107 1046.4594 C 407.7942 1046.5531 407.78653 1046.6468 407.778 1046.7404 L 405.99213 1066.3852 C 405.99123 1066.3951 405.9903 1066.405 405.9894 1066.4148 L 404.21864 1085.4997 C 404.20007 1085.6999 404.17773 1085.8997 404.1516 1086.099 L 402.1909 1101.0717 C 402.0581 1102.086 401.78896 1103.0776 401.3908 1104.0197 L 401.3908 1104.0197 C 400.9932 1104.9605 400.74454 1105.9574 400.6537 1106.9747 L 399.8908 1115.5197 C 399.38302 1121.2068 403.3415 1126.3251 408.97346 1127.2638 Z" stroke="#7f8080" stroke-linecap="round" stroke-linejoin="round" stroke-width="1"/>
      <path d="M 320 841.4461 L 326.2 845.8461 L 334.4 849.8461 L 343 853.4461 L 352 857.2461 L 363 861.2461 L 372.4 864.0461 L 381.4 866.6461 L 390.4 869.2461 L 395.8 870.6461 L 401.4 871.6461 L 403.8 865.8461 L 406.4 860.4461 L 408.6 856.4461 L 411.2 853.0461 L 411.4 844.0461 L 410.8 833.0461 L 409 822.2461 L 407.4 811.8461 L 404.8 800.8461 L 402.4 791.2461 L 399.6 783.2461 L 396.4 773.8461 L 393.6 766.4461 L 390 758.8461 L 386 751.2461 L 382 743.8461 L 379.4 740.2461 L 375.8 734.44614 L 370.4 738.84614 L 365.6 743.6461 L 361 749.8461 L 356.6 756.0461 L 351.8 764.6461 L 347 774.0461 L 342.2 783.2461 L 338.6 791.8461 L 334.6 800.8461 L 331.4 809.0461 L 327.6 818.4461 L 324.8 826.4461 L 321.8 834.8461 Z" fill="red"/>
      <path d="M 320 841.4461 L 326.2 845.8461 L 334.4 849.8461 L 343 853.4461 L 352 857.2461 L 363 861.2461 L 372.4 864.0461 L 381.4 866.6461 L 390.4 869.2461 L 395.8 870.6461 L 401.4 871.6461 L 403.8 865.8461 L 406.4 860.4461 L 408.6 856.4461 L 411.2 853.0461 L 411.4 844.0461 L 410.8 833.0461 L 409 822.2461 L 407.4 811.8461 L 404.8 800.8461 L 402.4 791.2461 L 399.6 783.2461 L 396.4 773.8461 L 393.6 766.4461 L 390 758.8461 L 386 751.2461 L 382 743.8461 L 379.4 740.2461 L 375.8 734.44614 L 370.4 738.84614 L 365.6 743.6461 L 361 749.8461 L 356.6 756.0461 L 351.8 764.6461 L 347 774.0461 L 342.2 783.2461 L 338.6 791.8461 L 334.6 800.8461 L 331.4 809.0461 L 327.6 818.4461 L 324.8 826.4461 L 321.8 834.8461 Z" stroke="#7f8080" stroke-linecap="round" stroke-linejoin="round" stroke-width="1"/>
      <path d="M 751.4053 840.5027 L 745.2053 844.9027 L 737.0053 848.9027 L 728.4053 852.5027 L 719.4053 856.3027 L 708.4053 860.3027 L 699.0053 863.1027 L 690.0053 865.7027 L 681.0053 868.3027 L 675.6053 869.7027 L 670.0053 870.7027 L 667.6053 864.9027 L 665.0053 859.5027 L 662.8053 855.5027 L 660.2053 852.1027 L 660.0053 843.1027 L 660.6053 832.1027 L 662.4053 821.30275 L 664.0053 810.90275 L 666.6053 799.90275 L 669.0053 790.30275 L 671.8053 782.30275 L 675.0053 772.90275 L 677.8053 765.50275 L 681.4053 757.90275 L 685.4053 750.30275 L 689.4053 742.90275 L 692.0053 739.30275 L 695.6053 733.50275 L 701.0053 737.90275 L 705.8053 742.70275 L 710.4053 748.90275 L 714.8053 755.10275 L 719.6053 763.70275 L 724.4053 773.10275 L 729.2053 782.30275 L 732.8053 790.90275 L 736.8053 799.90275 L 740.0053 808.10275 L 743.8053 817.50275 L 746.6053 825.5027 L 749.6053 833.9027 Z" fill="red"/>
      <path d="M 751.4053 840.5027 L 745.2053 844.9027 L 737.0053 848.9027 L 728.4053 852.5027 L 719.4053 856.3027 L 708.4053 860.3027 L 699.0053 863.1027 L 690.0053 865.7027 L 681.0053 868.3027 L 675.6053 869.7027 L 670.0053 870.7027 L 667.6053 864.9027 L 665.0053 859.5027 L 662.8053 855.5027 L 660.2053 852.1027 L 660.0053 843.1027 L 660.6053 832.1027 L 662.4053 821.30275 L 664.0053 810.90275 L 666.6053 799.90275 L 669.0053 790.30275 L 671.8053 782.30275 L 675.0053 772.90275 L 677.8053 765.50275 L 681.4053 757.90275 L 685.4053 750.30275 L 689.4053 742.90275 L 692.0053 739.30275 L 695.6053 733.50275 L 701.0053 737.90275 L 705.8053 742.70275 L 710.4053 748.90275 L 714.8053 755.10275 L 719.6053 763.70275 L 724.4053 773.10275 L 729.2053 782.30275 L 732.8053 790.90275 L 736.8053 799.90275 L 740.0053 808.10275 L 743.8053 817.50275 L 746.6053 825.5027 L 749.6053 833.9027 Z" stroke="#7f8080" stroke-linecap="round" stroke-linejoin="round" stroke-width="1"/>
      <path d="M 320 841.4461 L 326.2 845.8461 L 334.4 849.8461 L 343 853.4461 L 352 857.2461 L 363 861.2461 L 372.4 864.0461 L 381.4 866.6461 L 390.4 869.2461 L 395.8 870.6461 L 401.4 871.6461 L 404.4 865.2461 L 400.6 864.4461 L 395.8 863.2461 L 390.2 862.0461 L 384.2 860.2461 L 379.6 858.8461 L 375.4 857.6461 L 370.8 855.6461 L 366.2 854.0461 L 361.4 852.0461 L 357.4 850.6461 L 352.2 848.4461 L 347.6 846.8461 L 342.8 844.6461 L 338 842.8461 L 334 840.8461 L 329.6 838.6461 L 325.2 836.4461 L 321.8 834.8461 Z" fill="black"/>
      <path d="M 320 841.4461 L 326.2 845.8461 L 334.4 849.8461 L 343 853.4461 L 352 857.2461 L 363 861.2461 L 372.4 864.0461 L 381.4 866.6461 L 390.4 869.2461 L 395.8 870.6461 L 401.4 871.6461 L 404.4 865.2461 L 400.6 864.4461 L 395.8 863.2461 L 390.2 862.0461 L 384.2 860.2461 L 379.6 858.8461 L 375.4 857.6461 L 370.8 855.6461 L 366.2 854.0461 L 361.4 852.0461 L 357.4 850.6461 L 352.2 848.4461 L 347.6 846.8461 L 342.8 844.6461 L 338 842.8461 L 334 840.8461 L 329.6 838.6461 L 325.2 836.4461 L 321.8 834.8461 Z" stroke="#7f8080" stroke-linecap="round" stroke-linejoin="round" stroke-width="1"/>
      <path d="M 751.4053 840.5027 L 745.2053 844.9027 L 737.0053 848.9027 L 728.4053 852.5027 L 719.4053 856.3027 L 708.4053 860.3027 L 699.0053 863.1027 L 690.0053 865.7027 L 681.0053 868.3027 L 675.6053 869.7027 L 670.0053 870.7027 L 667.0053 864.3027 L 670.8053 863.5027 L 675.6053 862.3027 L 681.2053 861.1027 L 687.2053 859.3027 L 691.8053 857.9027 L 696.0053 856.7027 L 700.6053 854.7027 L 705.2053 853.1027 L 710.0053 851.1027 L 714.0053 849.7027 L 719.2053 847.5027 L 723.8053 845.9027 L 728.6053 843.7027 L 733.4053 841.9027 L 737.4053 839.9027 L 741.8053 837.7027 L 746.2053 835.5027 L 749.6053 833.9027 Z" fill="black"/>
      <path d="M 751.4053 840.5027 L 745.2053 844.9027 L 737.0053 848.9027 L 728.4053 852.5027 L 719.4053 856.3027 L 708.4053 860.3027 L 699.0053 863.1027 L 690.0053 865.7027 L 681.0053 868.3027 L 675.6053 869.7027 L 670.0053 870.7027 L 667.0053 864.3027 L 670.8053 863.5027 L 675.6053 862.3027 L 681.2053 861.1027 L 687.2053 859.3027 L 691.8053 857.9027 L 696.0053 856.7027 L 700.6053 854.7027 L 705.2053 853.1027 L 710.0053 851.1027 L 714.0053 849.7027 L 719.2053 847.5027 L 723.8053 845.9027 L 728.6053 843.7027 L 733.4053 841.9027 L 737.4053 839.9027 L 741.8053 837.7027 L 746.2053 835.5027 L 749.6053 833.9027 Z" stroke="#7f8080" stroke-linecap="round" stroke-linejoin="round" stroke-width="1"/>
      <path d="M 470.5721 691.9638 L 465.84295 696.0174 C 464.6926 697.0034 463.44764 697.8733 462.1262 698.6145 L 459.5996 700.03165 C 458.1644 700.8366 457.5836 702.60575 458.2624 704.1047 L 459.28 706.352 C 459.4016 706.62046 459.5283 706.8866 459.6601 707.1502 L 461.4624 710.7547 L 463.9494 715.7287 C 464.2912 716.4123 464.66683 717.0784 465.07495 717.7246 L 467.40134 721.4081 C 467.8417 722.10535 468.3193 722.7784 468.83195 723.4244 L 472.24264 727.72185 C 472.7887 728.4099 473.3737 729.06606 473.9948 729.6872 L 478.66087 734.3532 C 479.06175 734.7541 479.4773 735.14 479.9067 735.5102 L 484.47023 739.4443 C 484.8649 739.7845 485.271 740.1112 485.68785 740.4238 L 489.6628 743.405 C 490.3287 743.9045 491.02123 744.3674 491.73733 744.7917 L 495.8704 747.241 C 495.9984 747.3168 496.1271 747.3914 496.25656 747.4648 L 500.9541 750.1267 C 501.6924 750.5451 502.4533 750.9223 503.23325 751.2565 L 506.78307 752.7779 C 507.36903 753.029 507.9652 753.2557 508.57 753.4573 L 513.5881 755.13 C 514.8353 755.5457 516.1159 755.8538 517.4158 756.0507 L 521.51464 756.6717 C 521.87976 756.7271 522.24615 756.7736 522.6135 756.8113 L 529.4946 757.517 C 529.7398 757.5422 529.98534 757.5634 530.2312 757.5806 L 534.75835 757.8983 C 535.2942 757.9359 535.8312 757.9547 536.3684 757.9547 L 539.63046 757.9547 C 540.58416 757.9547 541.53693 757.8954 542.48327 757.7771 L 546.472 757.2785 C 547.13195 757.196 547.788 757.085 548.43835 756.9456 L 554.5204 755.6423 C 555.41426 755.4508 556.2959 755.2061 557.1607 754.9096 L 561.6695 753.3637 C 562.4642 753.0913 563.2433 752.7755 564.0034 752.4178 L 568.8368 750.1433 C 569.387 749.88435 569.9267 749.6037 570.45464 749.302 L 574.2225 747.149 C 574.9153 746.7531 575.587 746.3214 576.23494 745.8557 L 580.91106 742.49475 C 581.41175 742.1349 581.89776 741.755 582.3679 741.3561 L 587.6888 736.84144 C 588.0711 736.5171 588.4427 736.1803 588.803 735.8316 L 593.5022 731.28396 C 594.1418 730.665 594.7449 730.0094 595.3085 729.3206 L 599.1018 724.6843 C 599.6085 724.065 600.0826 723.4197 600.522 722.751 L 604.1392 717.2466 C 604.3546 716.9187 604.5616 716.5854 604.76 716.247 L 607.2831 711.9429 C 607.66906 711.2845 608.022 710.60735 608.3406 709.9139 L 610.4593 705.3026 C 610.9922 704.14285 611.3633 702.9154 611.5624 701.6547 L 611.5624 701.6547 C 611.7407 700.5255 611.1614 699.412 610.1343 698.9099 L 604.8409 696.322 C 603.5264 695.6794 602.2918 694.8849 601.1624 693.9547 L 600.7564 693.6204 C 599.91205 692.92504 599.28864 691.9987 598.9624 690.9547 L 598.9624 690.9547 C 598.9157 690.8054 598.75686 690.7222 598.60754 690.7689 C 598.4925 690.8048 598.4128 690.9097 598.4089 691.0302 L 598.2997 694.4531 C 598.20894 697.2962 597.5916 700.0978 596.479 702.7157 L 595.60206 704.77904 C 595.0435 706.0933 594.36374 707.3527 593.5716 708.5409 L 589.8858 714.0696 C 589.1383 715.19085 588.2937 716.24425 587.36175 717.2176 L 581.0667 723.7925 C 580.1986 724.6991 579.2578 725.5332 578.2536 726.2863 L 569.8787 732.5675 C 569.0023 733.2248 568.08 733.8187 567.11896 734.3445 L 559.93376 738.2761 C 558.6226 738.9935 557.2447 739.5814 555.8195 740.0314 L 549.1466 742.1387 C 547.42973 742.6808 545.65514 743.0195 543.85927 743.1478 L 536.9728 743.6397 C 535.9005 743.7163 534.82417 743.7176 533.7517 743.64365 L 525.3154 743.0618 C 524.28125 742.9905 523.2531 742.8494 522.23795 742.6393 L 515.10274 741.1631 C 513.1508 740.7592 511.2596 740.10335 509.47676 739.2119 L 504.81735 736.8822 C 503.5832 736.26515 502.4071 735.5383 501.30326 734.7104 L 495.6213 730.4489 C 495.18217 730.1196 494.75496 729.7746 494.3405 729.4147 L 488.5853 724.4168 C 487.77104 723.7096 487.0075 722.9461 486.30036 722.1318 L 481.89513 717.0591 C 481.14103 716.19075 480.4531 715.26705 479.8372 714.2958 L 476.1035 708.408 C 475.74293 707.8394 475.4075 707.2553 475.0982 706.6573 L 473.4778 703.5246 C 472.86867 702.3469 472.3625 701.1187 471.96497 699.85385 L 470.6847 695.78036 C 470.46995 695.097 470.2872 694.40395 470.1371 693.7035 L 469.9117 692.6516 C 469.82664 692.25456 470.053 691.8569 470.4378 691.7274 L 470.4378 691.7274 C 470.5103 691.703 470.58884 691.74195 470.61325 691.81444 C 470.63126 691.86795 470.615 691.92704 470.5721 691.9638 Z" fill="url(#Obj_Gradient_2)"/>
      <path d="M 470.5721 691.9638 L 465.84295 696.0174 C 464.6926 697.0034 463.44764 697.8733 462.1262 698.6145 L 459.5996 700.03165 C 458.1644 700.8366 457.5836 702.60575 458.2624 704.1047 L 459.28 706.352 C 459.4016 706.62046 459.5283 706.8866 459.6601 707.1502 L 461.4624 710.7547 L 463.9494 715.7287 C 464.2912 716.4123 464.66683 717.0784 465.07495 717.7246 L 467.40134 721.4081 C 467.8417 722.10535 468.3193 722.7784 468.83195 723.4244 L 472.24264 727.72185 C 472.7887 728.4099 473.3737 729.06606 473.9948 729.6872 L 478.66087 734.3532 C 479.06175 734.7541 479.4773 735.14 479.9067 735.5102 L 484.47023 739.4443 C 484.8649 739.7845 485.271 740.1112 485.68785 740.4238 L 489.6628 743.405 C 490.3287 743.9045 491.02123 744.3674 491.73733 744.7917 L 495.8704 747.241 C 495.9984 747.3168 496.1271 747.3914 496.25656 747.4648 L 500.9541 750.1267 C 501.6924 750.5451 502.4533 750.9223 503.23325 751.2565 L 506.78307 752.7779 C 507.36903 753.029 507.9652 753.2557 508.57 753.4573 L 513.5881 755.13 C 514.8353 755.5457 516.1159 755.8538 517.4158 756.0507 L 521.51464 756.6717 C 521.87976 756.7271 522.24615 756.7736 522.6135 756.8113 L 529.4946 757.517 C 529.7398 757.5422 529.98534 757.5634 530.2312 757.5806 L 534.75835 757.8983 C 535.2942 757.9359 535.8312 757.9547 536.3684 757.9547 L 539.63046 757.9547 C 540.58416 757.9547 541.53693 757.8954 542.48327 757.7771 L 546.472 757.2785 C 547.13195 757.196 547.788 757.085 548.43835 756.9456 L 554.5204 755.6423 C 555.41426 755.4508 556.2959 755.2061 557.1607 754.9096 L 561.6695 753.3637 C 562.4642 753.0913 563.2433 752.7755 564.0034 752.4178 L 568.8368 750.1433 C 569.387 749.88435 569.9267 749.6037 570.45464 749.302 L 574.2225 747.149 C 574.9153 746.7531 575.587 746.3214 576.23494 745.8557 L 580.91106 742.49475 C 581.41175 742.1349 581.89776 741.755 582.3679 741.3561 L 587.6888 736.84144 C 588.0711 736.5171 588.4427 736.1803 588.803 735.8316 L 593.5022 731.28396 C 594.1418 730.665 594.7449 730.0094 595.3085 729.3206 L 599.1018 724.6843 C 599.6085 724.065 600.0826 723.4197 600.522 722.751 L 604.1392 717.2466 C 604.3546 716.9187 604.5616 716.5854 604.76 716.247 L 607.2831 711.9429 C 607.66906 711.2845 608.022 710.60735 608.3406 709.9139 L 610.4593 705.3026 C 610.9922 704.14285 611.3633 702.9154 611.5624 701.6547 L 611.5624 701.6547 C 611.7407 700.5255 611.1614 699.412 610.1343 698.9099 L 604.8409 696.322 C 603.5264 695.6794 602.2918 694.8849 601.1624 693.9547 L 600.7564 693.6204 C 599.91205 692.92504 599.28864 691.9987 598.9624 690.9547 L 598.9624 690.9547 C 598.9157 690.8054 598.75686 690.7222 598.60754 690.7689 C 598.4925 690.8048 598.4128 690.9097 598.4089 691.0302 L 598.2997 694.4531 C 598.20894 697.2962 597.5916 700.0978 596.479 702.7157 L 595.60206 704.77904 C 595.0435 706.0933 594.36374 707.3527 593.5716 708.5409 L 589.8858 714.0696 C 589.1383 715.19085 588.2937 716.24425 587.36175 717.2176 L 581.0667 723.7925 C 580.1986 724.6991 579.2578 725.5332 578.2536 726.2863 L 569.8787 732.5675 C 569.0023 733.2248 568.08 733.8187 567.11896 734.3445 L 559.93376 738.2761 C 558.6226 738.9935 557.2447 739.5814 555.8195 740.0314 L 549.1466 742.1387 C 547.42973 742.6808 545.65514 743.0195 543.85927 743.1478 L 536.9728 743.6397 C 535.9005 743.7163 534.82417 743.7176 533.7517 743.64365 L 525.3154 743.0618 C 524.28125 742.9905 523.2531 742.8494 522.23795 742.6393 L 515.10274 741.1631 C 513.1508 740.7592 511.2596 740.10335 509.47676 739.2119 L 504.81735 736.8822 C 503.5832 736.26515 502.4071 735.5383 501.30326 734.7104 L 495.6213 730.4489 C 495.18217 730.1196 494.75496 729.7746 494.3405 729.4147 L 488.5853 724.4168 C 487.77104 723.7096 487.0075 722.9461 486.30036 722.1318 L 481.89513 717.0591 C 481.14103 716.19075 480.4531 715.26705 479.8372 714.2958 L 476.1035 708.408 C 475.74293 707.8394 475.4075 707.2553 475.0982 706.6573 L 473.4778 703.5246 C 472.86867 702.3469 472.3625 701.1187 471.96497 699.85385 L 470.6847 695.78036 C 470.46995 695.097 470.2872 694.40395 470.1371 693.7035 L 469.9117 692.6516 C 469.82664 692.25456 470.053 691.8569 470.4378 691.7274 L 470.4378 691.7274 C 470.5103 691.703 470.58884 691.74195 470.61325 691.81444 C 470.63126 691.86795 470.615 691.92704 470.5721 691.9638 Z" stroke="#7f8080" stroke-linecap="round" stroke-linejoin="round" stroke-width="1"/>
      <path d="M 470.05925 691.7559 L 475.45925 691.1559 L 482.25925 694.5559 L 487.25925 696.3559 L 495.65925 698.1559 L 504.05925 699.1559 L 512.05925 700.1559 L 519.65925 700.3559 L 528.25925 700.7559 L 539.85925 700.5559 L 548.25925 700.1559 L 557.65925 699.5559 L 566.05925 698.7559 L 575.25925 697.3559 L 583.45925 695.1559 L 589.25925 693.3559 L 594.85925 690.7559 L 597.65925 691.9559 L 598.05925 697.5559 L 595.25925 705.5559 L 589.85925 708.3559 L 579.25925 711.5559 L 567.85925 713.9559 L 556.65925 714.7559 L 544.25925 715.7559 L 533.85925 715.7559 L 524.45925 715.7559 L 512.85925 715.1559 L 501.65925 714.3559 L 491.05925 712.1559 L 482.45925 710.1559 L 476.25925 707.3559 L 474.25925 705.7559 L 471.05925 698.1559 Z" fill="url(#Obj_Gradient_3)"/>
      <path d="M 470.05925 691.7559 L 475.45925 691.1559 L 482.25925 694.5559 L 487.25925 696.3559 L 495.65925 698.1559 L 504.05925 699.1559 L 512.05925 700.1559 L 519.65925 700.3559 L 528.25925 700.7559 L 539.85925 700.5559 L 548.25925 700.1559 L 557.65925 699.5559 L 566.05925 698.7559 L 575.25925 697.3559 L 583.45925 695.1559 L 589.25925 693.3559 L 594.85925 690.7559 L 597.65925 691.9559 L 598.05925 697.5559 L 595.25925 705.5559 L 589.85925 708.3559 L 579.25925 711.5559 L 567.85925 713.9559 L 556.65925 714.7559 L 544.25925 715.7559 L 533.85925 715.7559 L 524.45925 715.7559 L 512.85925 715.1559 L 501.65925 714.3559 L 491.05925 712.1559 L 482.45925 710.1559 L 476.25925 707.3559 L 474.25925 705.7559 L 471.05925 698.1559 Z" stroke="#7f8080" stroke-linecap="round" stroke-linejoin="round" stroke-width="1"/>
      <path d="M 399.8132 1117.2 L 399.8132 1117.2 C 399.74753 1117.7255 399.81036 1118.259 399.9963 1118.7549 L 400.6473 1120.4909 C 400.82406 1120.9623 401.05115 1121.4132 401.3246 1121.8358 L 402.29243 1123.3315 C 402.8334 1124.1676 403.5465 1124.8785 404.3841 1125.417 L 405.46217 1126.11 C 405.76243 1126.3031 406.077 1126.4728 406.40316 1126.6179 L 407.72 1127.2035 C 408.31654 1127.4688 408.94725 1127.6493 409.5938 1127.7398 L 418.6042 1129.0013 C 418.6142 1129.0027 418.6242 1129.004 418.6342 1129.0054 L 430.3502 1130.594 C 430.3962 1130.6002 430.44226 1130.606 430.4884 1130.6113 L 440.7713 1131.7978 C 440.80324 1131.8015 440.8352 1131.805 440.86716 1131.8082 L 454.57723 1133.1991 C 454.6052 1133.202 454.6332 1133.2046 454.6612 1133.2071 L 465.7665 1134.1987 C 465.80164 1134.2018 465.8368 1134.2047 465.87195 1134.2073 L 476.5585 1134.9989 C 476.59896 1135.0019 476.63947 1135.0045 476.68 1135.0068 L 487.188 1135.6016 C 487.2088 1135.6028 487.2296 1135.604 487.2504 1135.6054 L 499.2932 1136.3951 C 499.3772 1136.4006 499.4613 1136.4046 499.54543 1136.407 L 512.99256 1136.8026 C 513.0103 1136.8031 513.0281 1136.8037 513.04585 1136.8043 L 523.6897 1137.1986 C 523.77603 1137.2018 523.8624 1137.2034 523.9488 1137.2034 L 534.5578 1137.2034 C 534.59874 1137.2034 534.6397 1137.2037 534.6806 1137.2044 L 545.767 1137.3989 C 545.9351 1137.4019 546.1032 1137.3988 546.27106 1137.3896 L 556.8923 1136.8103 C 556.9769 1136.8057 557.0616 1136.8026 557.1463 1136.801 L 567.91085 1136.6053 C 567.9831 1136.604 568.0553 1136.6016 568.12745 1136.598 L 580.1461 1136.007 C 580.1948 1136.0046 580.24355 1136.0016 580.29225 1135.9982 L 591.5323 1135.2095 C 591.5902 1135.2054 591.6481 1135.2006 591.70594 1135.1951 L 604.1165 1134.0131 C 604.185 1134.0066 604.2535 1134.0011 604.32214 1133.9966 L 616.2542 1133.2142 C 616.3642 1133.207 616.474 1133.1972 616.58355 1133.1847 L 626.9959 1132.006 C 627.01144 1132.0042 627.027 1132.0024 627.0425 1132.0006 L 636.9902 1130.8068 C 637.00954 1130.8045 637.0289 1130.8021 637.0482 1130.7996 L 650.88394 1129.0221 C 650.98115 1129.0096 651.0781 1128.9951 651.1747 1128.9785 L 657.7282 1127.855 C 657.92915 1127.8206 658.1315 1127.795 658.3347 1127.7782 L 661.5671 1127.5112 C 662.4563 1127.4377 663.3233 1127.195 664.12135 1126.796 L 665.60765 1126.0528 C 666.2082 1125.7525 666.7625 1125.3674 667.2534 1124.9092 L 668.5885 1123.6631 C 669.1953 1123.0967 669.6507 1122.3875 669.9132 1121.6 L 670.20805 1120.7155 C 670.2781 1120.5053 670.3382 1120.2919 670.388 1120.076 L 670.8577 1118.0406 C 670.8929 1117.8879 670.8595 1117.7275 670.7662 1117.6017 L 670.7662 1117.6017 C 670.6759 1117.4798 670.5252 1117.4183 670.3754 1117.4421 L 661.89555 1118.7912 C 661.84466 1118.7993 661.79385 1118.808 661.74315 1118.8172 L 648.7584 1121.178 C 648.6656 1121.1949 648.5725 1121.2099 648.4791 1121.223 L 637.2494 1122.7991 C 637.2293 1122.802 637.20914 1122.8049 637.189 1122.8079 L 624.0664 1124.7665 C 623.9017 1124.791 623.7361 1124.8097 623.57 1124.8225 L 610.8452 1125.8014 C 610.82786 1125.8027 610.81055 1125.804 610.7932 1125.8052 L 596.4531 1126.801 C 596.4305 1126.8026 596.4079 1126.804 596.3853 1126.8054 L 583.08205 1127.5996 C 583.04016 1127.6021 582.99824 1127.6042 582.9563 1127.606 L 568.76485 1128.1973 C 568.66776 1128.2013 568.5706 1128.2034 568.47344 1128.2034 L 555.2192 1128.2034 L 542.67753 1128.2034 C 542.63865 1128.2034 542.59976 1128.2037 542.5609 1128.2043 L 530.8025 1128.4003 C 530.6803 1128.4023 530.5581 1128.4012 530.436 1128.3968 L 519.6024 1128.0099 C 519.4803 1128.0055 519.3581 1128.0044 519.2359 1128.0064 L 507.5213 1128.2017 C 507.45323 1128.2028 507.3852 1128.2029 507.3171 1128.2021 L 491.61484 1128.0058 C 491.48444 1128.0042 491.3541 1127.9989 491.224 1127.99 L 476.91423 1127.0099 C 476.8509 1127.0055 476.7876 1127.0003 476.7244 1126.9943 L 462.2334 1125.6047 C 462.22393 1125.6038 462.2145 1125.6029 462.20503 1125.602 L 448.393 1124.2207 C 448.27715 1124.2091 448.1616 1124.1947 448.0465 1124.1773 L 433.73735 1122.0212 C 433.6586 1122.0093 433.57964 1121.9988 433.5005 1121.9896 L 419.9806 1120.422 C 419.873 1120.4096 419.76574 1120.3946 419.65886 1120.3772 L 410.26677 1118.8438 C 410.1018 1118.8168 409.9378 1118.784 409.77516 1118.7453 L 400.69756 1116.5865 C 400.30925 1116.4942 399.9196 1116.7341 399.82724 1117.1224 C 399.82116 1117.148 399.81647 1117.1739 399.8132 1117.2 Z" fill="url(#Obj_Gradient_4)"/>
      <path d="M 399.8132 1117.2 L 399.8132 1117.2 C 399.74753 1117.7255 399.81036 1118.259 399.9963 1118.7549 L 400.6473 1120.4909 C 400.82406 1120.9623 401.05115 1121.4132 401.3246 1121.8358 L 402.29243 1123.3315 C 402.8334 1124.1676 403.5465 1124.8785 404.3841 1125.417 L 405.46217 1126.11 C 405.76243 1126.3031 406.077 1126.4728 406.40316 1126.6179 L 407.72 1127.2035 C 408.31654 1127.4688 408.94725 1127.6493 409.5938 1127.7398 L 418.6042 1129.0013 C 418.6142 1129.0027 418.6242 1129.004 418.6342 1129.0054 L 430.3502 1130.594 C 430.3962 1130.6002 430.44226 1130.606 430.4884 1130.6113 L 440.7713 1131.7978 C 440.80324 1131.8015 440.8352 1131.805 440.86716 1131.8082 L 454.57723 1133.1991 C 454.6052 1133.202 454.6332 1133.2046 454.6612 1133.2071 L 465.7665 1134.1987 C 465.80164 1134.2018 465.8368 1134.2047 465.87195 1134.2073 L 476.5585 1134.9989 C 476.59896 1135.0019 476.63947 1135.0045 476.68 1135.0068 L 487.188 1135.6016 C 487.2088 1135.6028 487.2296 1135.604 487.2504 1135.6054 L 499.2932 1136.3951 C 499.3772 1136.4006 499.4613 1136.4046 499.54543 1136.407 L 512.99256 1136.8026 C 513.0103 1136.8031 513.0281 1136.8037 513.04585 1136.8043 L 523.6897 1137.1986 C 523.77603 1137.2018 523.8624 1137.2034 523.9488 1137.2034 L 534.5578 1137.2034 C 534.59874 1137.2034 534.6397 1137.2037 534.6806 1137.2044 L 545.767 1137.3989 C 545.9351 1137.4019 546.1032 1137.3988 546.27106 1137.3896 L 556.8923 1136.8103 C 556.9769 1136.8057 557.0616 1136.8026 557.1463 1136.801 L 567.91085 1136.6053 C 567.9831 1136.604 568.0553 1136.6016 568.12745 1136.598 L 580.1461 1136.007 C 580.1948 1136.0046 580.24355 1136.0016 580.29225 1135.9982 L 591.5323 1135.2095 C 591.5902 1135.2054 591.6481 1135.2006 591.70594 1135.1951 L 604.1165 1134.0131 C 604.185 1134.0066 604.2535 1134.0011 604.32214 1133.9966 L 616.2542 1133.2142 C 616.3642 1133.207 616.474 1133.1972 616.58355 1133.1847 L 626.9959 1132.006 C 627.01144 1132.0042 627.027 1132.0024 627.0425 1132.0006 L 636.9902 1130.8068 C 637.00954 1130.8045 637.0289 1130.8021 637.0482 1130.7996 L 650.88394 1129.0221 C 650.98115 1129.0096 651.0781 1128.9951 651.1747 1128.9785 L 657.7282 1127.855 C 657.92915 1127.8206 658.1315 1127.795 658.3347 1127.7782 L 661.5671 1127.5112 C 662.4563 1127.4377 663.3233 1127.195 664.12135 1126.796 L 665.60765 1126.0528 C 666.2082 1125.7525 666.7625 1125.3674 667.2534 1124.9092 L 668.5885 1123.6631 C 669.1953 1123.0967 669.6507 1122.3875 669.9132 1121.6 L 670.20805 1120.7155 C 670.2781 1120.5053 670.3382 1120.2919 670.388 1120.076 L 670.8577 1118.0406 C 670.8929 1117.8879 670.8595 1117.7275 670.7662 1117.6017 L 670.7662 1117.6017 C 670.6759 1117.4798 670.5252 1117.4183 670.3754 1117.4421 L 661.89555 1118.7912 C 661.84466 1118.7993 661.79385 1118.808 661.74315 1118.8172 L 648.7584 1121.178 C 648.6656 1121.1949 648.5725 1121.2099 648.4791 1121.223 L 637.2494 1122.7991 C 637.2293 1122.802 637.20914 1122.8049 637.189 1122.8079 L 624.0664 1124.7665 C 623.9017 1124.791 623.7361 1124.8097 623.57 1124.8225 L 610.8452 1125.8014 C 610.82786 1125.8027 610.81055 1125.804 610.7932 1125.8052 L 596.4531 1126.801 C 596.4305 1126.8026 596.4079 1126.804 596.3853 1126.8054 L 583.08205 1127.5996 C 583.04016 1127.6021 582.99824 1127.6042 582.9563 1127.606 L 568.76485 1128.1973 C 568.66776 1128.2013 568.5706 1128.2034 568.47344 1128.2034 L 555.2192 1128.2034 L 542.67753 1128.2034 C 542.63865 1128.2034 542.59976 1128.2037 542.5609 1128.2043 L 530.8025 1128.4003 C 530.6803 1128.4023 530.5581 1128.4012 530.436 1128.3968 L 519.6024 1128.0099 C 519.4803 1128.0055 519.3581 1128.0044 519.2359 1128.0064 L 507.5213 1128.2017 C 507.45323 1128.2028 507.3852 1128.2029 507.3171 1128.2021 L 491.61484 1128.0058 C 491.48444 1128.0042 491.3541 1127.9989 491.224 1127.99 L 476.91423 1127.0099 C 476.8509 1127.0055 476.7876 1127.0003 476.7244 1126.9943 L 462.2334 1125.6047 C 462.22393 1125.6038 462.2145 1125.6029 462.20503 1125.602 L 448.393 1124.2207 C 448.27715 1124.2091 448.1616 1124.1947 448.0465 1124.1773 L 433.73735 1122.0212 C 433.6586 1122.0093 433.57964 1121.9988 433.5005 1121.9896 L 419.9806 1120.422 C 419.873 1120.4096 419.76574 1120.3946 419.65886 1120.3772 L 410.26677 1118.8438 C 410.1018 1118.8168 409.9378 1118.784 409.77516 1118.7453 L 400.69756 1116.5865 C 400.30925 1116.4942 399.9196 1116.7341 399.82724 1117.1224 C 399.82116 1117.148 399.81647 1117.1739 399.8132 1117.2 Z" stroke="#7f8080" stroke-linecap="round" stroke-linejoin="round" stroke-width="1"/>
      <path d="M 401.5 789.5 L 670 788.5 L 665.5 801.5 L 664 814 L 661.5 828.5 L 660 839.5 L 659.5 848.5 L 411 849.5 L 411 840.5 L 410.5 831 L 409 820 L 409 819 L 407.5 811.5 L 404.5 800 L 403.5 794 Z" fill="black"/>
      <path d="M 401.5 789.5 L 670 788.5 L 665.5 801.5 L 664 814 L 661.5 828.5 L 660 839.5 L 659.5 848.5 L 411 849.5 L 411 840.5 L 410.5 831 L 409 820 L 409 819 L 407.5 811.5 L 404.5 800 L 403.5 794 Z" stroke="#7f8080" stroke-linecap="round" stroke-linejoin="round" stroke-width="1"/>
      <path d="M 414.70037 1021.963 L 660.5 1019 L 662 1038.5 L 663.5 1060 L 664.5 1073.5 L 664 1076 L 407 1076.863 L 407.96255 1058.563 L 409.88764 1040.263 L 410.8502 1021.963 Z" fill="black"/>
      <path d="M 414.70037 1021.963 L 660.5 1019 L 662 1038.5 L 663.5 1060 L 664.5 1073.5 L 664 1076 L 407 1076.863 L 407.96255 1058.563 L 409.88764 1040.263 L 410.8502 1021.963 Z" stroke="#7f8080" stroke-linecap="round" stroke-linejoin="round" stroke-width="1"/>
      <path d="M 414.5 911.7213 L 657.5061 910.3002 L 657.5061 927.993 L 658.5 951.5836 L 658.5 962.5363 L 413 964.2213 L 413.99393 942.3159 L 414.98785 924.623 Z" fill="black"/>
      <path d="M 414.5 911.7213 L 657.5061 910.3002 L 657.5061 927.993 L 658.5 951.5836 L 658.5 962.5363 L 413 964.2213 L 413.99393 942.3159 L 414.98785 924.623 Z" stroke="#7f8080" stroke-linecap="round" stroke-linejoin="round" stroke-width="1"/>
      <path d="M 659 850 L 745 819 L 731 786 L 722 770 L 669 789 Z" fill="black"/>
      <path d="M 659 850 L 745 819 L 731 786 L 722 770 L 669 789 Z" stroke="#7f8080" stroke-linecap="round" stroke-linejoin="round" stroke-width="1"/>
      <path d="M 411.4 850 L 327 819 L 342 785 L 348.4 770 L 401.4 789 L 409 820 Z" fill="black"/>
      <path d="M 411.4 850 L 327 819 L 342 785 L 348.4 770 L 401.4 789 L 409 820 Z" stroke="#7f8080" stroke-linecap="round" stroke-linejoin="round" stroke-width="1"/>
      <path d="M 376 735 L 476 734 L 466 720 L 461 711 L 457 702 L 436 710 L 418 716 L 397 722 L 383 728 Z" fill="black"/>
      <path d="M 376 735 L 476 734 L 466 720 L 461 711 L 457 702 L 436 710 L 418 716 L 397 722 L 383 728 Z" stroke="#7f8080" stroke-linecap="round" stroke-linejoin="round" stroke-width="1"/>
      <path d="M 695.219 735 L 592 734 L 603 720 L 608 709 L 612 702 L 635.219 710 L 653.219 716 L 674.219 722 L 688.219 728 Z" fill="black"/>
      <path d="M 695.219 735 L 592 734 L 603 720 L 608 709 L 612 702 L 635.219 710 L 653.219 716 L 674.219 722 L 688.219 728 Z" stroke="#7f8080" stroke-linecap="round" stroke-linejoin="round" stroke-width="1"/>
    </g>
  </g>
</svg>
