<?xml version="1.0" encoding="UTF-8" standalone="no"?>
<!DOCTYPE svg PUBLIC "-//W3C//DTD SVG 1.1//EN" "http://www.w3.org/Graphics/SVG/1.1/DTD/svg11.dtd">
<svg xmlns="http://www.w3.org/2000/svg" xmlns:xl="http://www.w3.org/1999/xlink" version="1.1" viewBox="277.5 577.5 432.4053 448.4" width="432.4053pt" height="448.4pt" xmlns:dc="http://purl.org/dc/elements/1.1/">
  <metadata> Produced by OmniGraffle 7.6.1 
    <dc:date>2019-06-07 16:27:06 +0000</dc:date>
  </metadata>
  <defs>
    <radialGradient cx="0" cy="0" r="1" id="Gradient" gradientUnits="userSpaceOnUse">
      <stop offset="0" stop-color="#cbcbcb"/>
      <stop offset="1" stop-color="#843918"/>
    </radialGradient>
    <radialGradient id="Obj_Gradient" xl:href="#Gradient" gradientTransform="translate(492.75925 605.4) scale(70.26272)"/>
    <radialGradient cx="0" cy="0" r="1" id="Gradient_2" gradientUnits="userSpaceOnUse">
      <stop offset="0" stop-color="#060d03"/>
      <stop offset="1" stop-color="#333"/>
    </radialGradient>
    <radialGradient id="Obj_Gradient_2" xl:href="#Gradient_2" gradientTransform="translate(492.787 612.3553) scale(83.83496)"/>
    <linearGradient x1="0" x2="1" id="Gradient_3" gradientUnits="userSpaceOnUse">
      <stop offset="0" stop-color="black"/>
      <stop offset="1" stop-color="#919191"/>
    </linearGradient>
    <linearGradient id="Obj_Gradient_3" xl:href="#Gradient_3" gradientTransform="translate(492.05925 578.7559) rotate(90) scale(25)"/>
    <radialGradient cx="0" cy="0" r="1" id="Gradient_4" gradientUnits="userSpaceOnUse">
      <stop offset="0" stop-color="black"/>
      <stop offset="1" stop-color="#241209"/>
    </radialGradient>
    <radialGradient id="Obj_Gradient_4" xl:href="#Gradient_4" gradientTransform="translate(493.3297 1014.9834) scale(135.94141)"/>
  </defs>
  <g stroke="none" stroke-opacity="1" stroke-dasharray="none" fill="none" fill-opacity="1">
    <title>rayas_01</title>
    <g>
      <title>Capa 1</title>
      <path d="M 431.00565 578.59045 L 439.1711 581.70816 C 440.0291 582.03576 440.90594 582.3117 441.7969 582.5344 L 455.5141 585.9637 C 456.67576 586.2541 457.8583 586.4534 459.051 586.55966 L 476.57715 588.1214 C 477.165 588.1738 477.75464 588.2035 478.3448 588.21054 L 493.8237 588.3948 C 494.11404 588.3983 494.4044 588.3962 494.6947 588.3887 L 509.118 588.01406 C 509.4788 588.0047 509.8393 587.9868 510.19924 587.9605 L 524.5705 586.9089 C 525.56197 586.8364 526.54766 586.69964 527.5214 586.49956 L 539.09436 584.12155 C 540.13637 583.90744 541.16226 583.6213 542.16465 583.2652 L 553.91664 579.09014 C 555.007 578.7028 556.2102 579.23354 556.65925 580.3 L 556.65925 580.3 C 557.1814 581.5401 557.3334 582.90485 557.09685 584.22945 L 556.9164 585.24014 C 556.6126 586.9413 556.11806 588.6028 555.44214 590.1932 L 553.8989 593.8243 C 553.34035 595.1386 552.6606 596.398 551.86846 597.5862 L 548.1827 603.11485 C 547.4352 604.2361 546.59057 605.2895 545.6586 606.2629 L 539.36354 612.83774 C 538.4955 613.7444 537.55463 614.57846 536.55046 615.3316 L 528.17555 621.6128 C 527.29914 622.2701 526.3769 622.86394 525.4158 623.3898 L 518.2306 627.3213 C 516.9195 628.0387 515.54156 628.62664 514.1164 629.0767 L 507.44347 631.1839 C 505.7266 631.7261 503.952 632.0648 502.1561 632.1931 L 495.2697 632.685 C 494.1974 632.7616 493.121 632.7629 492.04854 632.6889 L 483.6123 632.1071 C 482.5781 632.0358 481.54994 631.8946 480.5348 631.6846 L 473.3996 630.20835 C 471.44765 629.8045 469.5565 629.1486 467.7736 628.2572 L 463.1142 625.9275 C 461.88007 625.3104 460.70397 624.58354 459.6001 623.75566 L 453.91816 619.4942 C 453.479 619.1648 453.0518 618.8199 452.63737 618.45995 L 446.8822 613.462 C 446.0679 612.7549 445.30436 611.99135 444.5972 611.17706 L 440.192 606.1044 C 439.4379 605.236 438.75 604.3123 438.13406 603.34105 L 434.40036 597.4533 C 434.0398 596.8847 433.70437 596.30056 433.39505 595.70255 L 431.7747 592.5698 C 431.16553 591.39215 430.65936 590.164 430.2618 588.8991 L 428.9816 584.8256 C 428.7668 584.14225 428.5841 583.4492 428.434 582.7488 L 428.35925 582.4 C 428.1646 581.4916 428.27185 580.5444 428.66473 579.70254 L 428.75925 579.5 C 429.1537 578.6547 430.1342 578.2577 431.00565 578.59045 Z" fill="url(#Obj_Gradient)"/>
      <path d="M 431.00565 578.59045 L 439.1711 581.70816 C 440.0291 582.03576 440.90594 582.3117 441.7969 582.5344 L 455.5141 585.9637 C 456.67576 586.2541 457.8583 586.4534 459.051 586.55966 L 476.57715 588.1214 C 477.165 588.1738 477.75464 588.2035 478.3448 588.21054 L 493.8237 588.3948 C 494.11404 588.3983 494.4044 588.3962 494.6947 588.3887 L 509.118 588.01406 C 509.4788 588.0047 509.8393 587.9868 510.19924 587.9605 L 524.5705 586.9089 C 525.56197 586.8364 526.54766 586.69964 527.5214 586.49956 L 539.09436 584.12155 C 540.13637 583.90744 541.16226 583.6213 542.16465 583.2652 L 553.91664 579.09014 C 555.007 578.7028 556.2102 579.23354 556.65925 580.3 L 556.65925 580.3 C 557.1814 581.5401 557.3334 582.90485 557.09685 584.22945 L 556.9164 585.24014 C 556.6126 586.9413 556.11806 588.6028 555.44214 590.1932 L 553.8989 593.8243 C 553.34035 595.1386 552.6606 596.398 551.86846 597.5862 L 548.1827 603.11485 C 547.4352 604.2361 546.59057 605.2895 545.6586 606.2629 L 539.36354 612.83774 C 538.4955 613.7444 537.55463 614.57846 536.55046 615.3316 L 528.17555 621.6128 C 527.29914 622.2701 526.3769 622.86394 525.4158 623.3898 L 518.2306 627.3213 C 516.9195 628.0387 515.54156 628.62664 514.1164 629.0767 L 507.44347 631.1839 C 505.7266 631.7261 503.952 632.0648 502.1561 632.1931 L 495.2697 632.685 C 494.1974 632.7616 493.121 632.7629 492.04854 632.6889 L 483.6123 632.1071 C 482.5781 632.0358 481.54994 631.8946 480.5348 631.6846 L 473.3996 630.20835 C 471.44765 629.8045 469.5565 629.1486 467.7736 628.2572 L 463.1142 625.9275 C 461.88007 625.3104 460.70397 624.58354 459.6001 623.75566 L 453.91816 619.4942 C 453.479 619.1648 453.0518 618.8199 452.63737 618.45995 L 446.8822 613.462 C 446.0679 612.7549 445.30436 611.99135 444.5972 611.17706 L 440.192 606.1044 C 439.4379 605.236 438.75 604.3123 438.13406 603.34105 L 434.40036 597.4533 C 434.0398 596.8847 433.70437 596.30056 433.39505 595.70255 L 431.7747 592.5698 C 431.16553 591.39215 430.65936 590.164 430.2618 588.8991 L 428.9816 584.8256 C 428.7668 584.14225 428.5841 583.4492 428.434 582.7488 L 428.35925 582.4 C 428.1646 581.4916 428.27185 580.5444 428.66473 579.70254 L 428.75925 579.5 C 429.1537 578.6547 430.1342 578.2577 431.00565 578.59045 Z" stroke="#7f8080" stroke-linecap="round" stroke-linejoin="round" stroke-width="1"/>
      <path d="M 366.97346 1015.2638 L 380.7157 1017.5542 C 380.89907 1017.5847 381.08297 1017.6121 381.2673 1017.6362 L 409.62094 1021.3515 C 409.86747 1021.3838 410.1147 1021.4104 410.3625 1021.4312 L 440.60537 1023.9677 C 440.8623 1023.9892 441.11966 1024.0046 441.3773 1024.0137 L 480.3082 1025.39 C 480.4966 1025.3967 480.68504 1025.4 480.8735 1025.4 L 512.34084 1025.4 C 512.50746 1025.4 512.67407 1025.3974 512.8406 1025.3922 L 537.8754 1024.6099 C 538.0856 1024.6033 538.2957 1024.5926 538.50555 1024.5777 L 560.5533 1023.0168 C 560.7116 1023.0056 560.86975 1022.992 561.02766 1022.9761 L 586.28815 1020.4305 C 586.4899 1020.4102 586.6912 1020.386 586.89204 1020.358 L 610.68474 1017.0427 C 610.88875 1017.0142 611.0922 1016.9819 611.29496 1016.9456 L 620.4908 1015.3 C 625.8179 1014.3467 629.46876 1009.3931 628.80234 1004.0226 L 626.59475 986.232 C 626.5921 986.2107 626.5895 986.1893 626.58695 986.168 L 623.0231 956.4695 C 623.0016 956.2898 622.98306 956.1099 622.9676 955.9296 L 620.6054 928.3704 C 620.59565 928.2568 620.5871 928.1431 620.5798 928.0294 L 619.1932 906.4377 C 619.1916 906.4126 619.1899 906.3874 619.1882 906.3623 L 617.596 883.276 C 617.5925 883.2253 617.5893 883.1747 617.5863 883.124 L 616.4099 863.3218 C 616.39716 863.1073 616.38874 862.8925 616.38465 862.6777 L 615.9924 842.0829 C 615.9913 842.0276 615.99 841.9724 615.98835 841.9172 L 615.3932 821.6828 C 615.3916 821.6276 615.39026 821.5724 615.3892 821.5172 L 614.99855 801.0076 C 614.9934 800.7359 614.9951 800.4641 615.0038 800.1925 L 615.5897 781.8329 C 615.5904 781.811 615.5912 781.789 615.592 781.7671 L 616.38005 759.8978 C 616.3872 759.6993 616.39806 759.5009 616.4126 759.3028 L 617.9701 738.0822 C 617.9839 737.8941 617.99436 737.7057 618.0015 737.5172 L 618.75596 717.6184 C 618.77915 717.0066 618.8374 716.3967 618.9305 715.79165 L 621.6695 697.9881 C 621.7503 697.463 621.8572 696.9423 621.9898 696.4278 L 626.61806 678.4702 C 626.73316 678.0236 626.8675 677.5822 627.0207 677.14725 L 632.7415 660.9076 C 632.9076 660.4361 633.0957 659.9727 633.3052 659.5188 L 638.8367 647.5338 C 638.9394 647.3113 639.0472 647.0912 639.16 646.87364 L 644.5222 636.5322 C 644.5679 636.4441 644.61446 636.35636 644.6618 636.2691 L 649.8778 626.6521 C 650.61505 625.2928 651.5647 624.0599 652.6908 623 L 652.6908 623 C 653.366 622.3645 653.3982 621.302 652.7627 620.6268 C 652.6382 620.49456 652.4931 620.3834 652.33295 620.2976 L 649.1188 618.5757 C 648.90016 618.4586 648.6788 618.34656 648.45494 618.2397 L 640.601 614.4912 C 640.19436 614.29716 639.77974 614.12036 639.3582 613.9613 L 629.6834 610.3104 C 629.4883 610.2368 629.2919 610.167 629.0941 610.1011 L 616.3996 605.8696 C 616.2604 605.8232 616.12055 605.7787 615.9801 605.73616 L 603.0966 601.83206 C 603.02605 601.8107 602.9557 601.7888 602.88544 601.7665 L 590.38144 597.78794 C 589.9878 597.6627 589.5992 597.52225 589.2164 597.3669 L 577.2405 592.5071 C 576.4088 592.16964 575.60704 591.7628 574.8436 591.2908 L 565.22436 585.3444 C 565.06865 585.24814 564.9146 585.1492 564.7623 585.0477 L 559.8722 581.7876 C 558.8908 581.13335 558.0195 580.32745 557.2908 579.4 L 557.2908 579.4 C 557.1852 579.2656 556.9906 579.24225 556.8562 579.34785 C 556.7535 579.4286 556.7125 579.5651 556.7538 579.6891 L 556.8908 580.1 C 557.35003 581.47775 557.4546 582.94904 557.1948 584.3779 L 556.79967 586.55115 C 556.52845 588.0428 556.0466 589.48835 555.3686 590.8444 L 553.83626 593.90904 C 553.53956 594.50244 553.20624 595.0768 552.83823 595.6288 L 549.6345 600.4344 C 549.2059 601.0773 548.7313 601.6883 548.2144 602.2626 L 543.6524 607.33156 C 543.6113 607.3772 543.57 607.4226 543.5284 607.4677 L 537.53417 613.97576 C 536.9064 614.6573 536.2207 615.283 535.48465 615.8459 L 530.4605 619.6879 C 530.0143 620.02906 529.5505 620.3465 529.071 620.6389 L 522.5846 624.594 C 521.9229 624.9975 521.2328 625.3523 520.51975 625.65576 L 513.40434 628.6836 C 512.5967 629.0273 511.7621 629.3039 510.90905 629.5107 L 506.83 630.4996 C 506.00516 630.69955 505.1657 630.83356 504.31963 630.90035 L 498.6194 631.3504 C 498.2005 631.38344 497.7804 631.4 497.3602 631.4 L 490.32787 631.4 C 489.57077 631.4 488.8146 631.3463 488.0651 631.2392 L 480.1187 630.104 C 479.63367 630.0347 479.1521 629.9432 478.6755 629.8297 L 472.71426 628.41035 C 471.5688 628.1376 470.4569 627.7393 469.3988 627.2225 L 463.1188 624.15556 C 462.6338 623.9187 462.161 623.6574 461.7024 623.3727 L 457.4905 620.75846 C 456.89135 620.38656 456.3174 619.97546 455.7725 619.5278 L 451.3264 615.8757 C 451.1027 615.6919 450.884 615.50214 450.6706 615.3065 L 446.8683 611.82104 C 446.417 611.40736 445.9898 610.9681 445.58885 610.5055 L 441.4701 605.7531 C 441.1507 605.38455 440.84836 605.0016 440.56395 604.6055 L 436.1343 598.4356 C 435.6394 597.7463 435.20013 597.0187 434.82064 596.2597 L 432.2442 591.1068 C 432.2086 591.0356 432.1735 590.96414 432.139 590.8924 L 430.8908 588.3 C 430.04007 586.5331 429.68455 584.5686 429.8621 582.61564 L 430.0423 580.6334 C 430.0661 580.3715 429.8731 580.13994 429.61125 580.11614 C 429.44886 580.1014 429.2902 580.17075 429.1908 580.3 L 429.1908 580.3 C 428.52734 581.1625 427.74723 581.92856 426.87285 582.57625 L 422.9763 585.4626 C 422.85263 585.5542 422.72763 585.644 422.60136 585.732 L 417.9791 588.9536 C 416.79237 589.7807 415.49895 590.4431 414.1342 590.9226 L 409.5271 592.5413 C 409.0365 592.7137 408.55463 592.90984 408.08316 593.1291 L 401.2364 596.3137 C 400.5402 596.6375 399.82165 596.91074 399.08625 597.13136 L 388.21586 600.3925 C 388.19914 600.3975 388.18243 600.40254 388.16572 600.4076 L 377.19764 603.7372 C 377.05974 603.7791 376.9224 603.8228 376.7857 603.86836 L 363.86446 608.17544 C 363.81534 608.1918 363.76614 608.20795 363.71686 608.22384 L 352.34946 611.89075 C 351.71097 612.0967 351.08607 612.3426 350.47846 612.62704 L 342.5465 616.3399 C 342.17616 616.5132 341.8126 616.7007 341.45662 616.9019 L 335.5105 620.2628 C 334.25747 620.971 333.81583 622.5609 334.52406 623.81396 C 334.6012 623.9504 334.69045 624.0796 334.7908 624.2 L 335.6549 625.2369 C 336.40984 626.1429 337.0623 627.1295 337.60043 628.1788 L 340.67757 634.1792 C 340.75304 634.3264 340.8308 634.4724 340.9108 634.61715 L 344.86554 641.7734 C 344.94903 641.92445 345.03007 642.0769 345.10863 642.2306 L 349.21693 650.26856 C 349.466 650.7559 349.6899 651.2556 349.88776 651.7659 L 353.37053 660.7478 C 353.38403 660.7826 353.39765 660.8174 353.4114 660.8521 L 357.00772 669.93754 C 357.12973 670.2458 357.24213 670.5577 357.34476 670.8729 L 359.9666 678.9257 C 359.9827 678.9752 359.9986 679.02484 360.01424 679.0745 L 363.0863 688.8328 C 363.2891 689.47695 363.4509 690.1333 363.57073 690.7979 L 365.55605 701.8074 C 365.5792 701.9358 365.6008 702.0645 365.6208 702.1934 L 367.32666 713.1868 C 367.3694 713.4622 367.40494 713.7387 367.43323 714.016 L 368.32065 722.7127 C 368.3674 723.1707 368.39433 723.6305 368.4014 724.0908 L 368.58565 736.0664 C 368.58907 736.2888 368.59713 736.51105 368.6098 736.7331 L 369.3802 750.21465 C 369.38725 750.3382 369.39575 750.4617 369.40567 750.5851 L 370.73924 767.1594 C 370.7736 767.5863 370.7908 768.0144 370.7908 768.4426 L 370.7908 780.8924 C 370.7908 781.0975 370.79472 781.3025 370.8026 781.5074 L 371.38295 796.5965 C 371.38817 796.7322 371.39166 796.8679 371.39343 797.00365 L 371.5856 811.7999 C 371.58905 812.0666 371.58584 812.3333 371.57597 812.5999 L 371.00174 828.104 C 370.99444 828.3013 370.9908 828.4988 370.9908 828.6962 L 370.9908 842.2924 C 370.9908 842.4975 370.98684 842.7025 370.97896 842.9074 L 370.39377 858.1224 C 370.39178 858.1741 370.38953 858.2259 370.38704 858.2776 L 369.5917 874.7806 C 369.5911 874.7935 369.59045 874.8065 369.5898 874.8195 L 368.7953 890.5106 C 368.7923 890.5702 368.78894 890.6298 368.78526 890.6893 L 367.59634 909.9101 C 367.59264 909.97 367.5886 910.03 367.5842 910.0899 L 365.80107 934.4594 C 365.7942 934.5531 365.78653 934.6468 365.778 934.7404 L 363.99213 954.3852 C 363.99123 954.3951 363.99032 954.4049 363.9894 954.4148 L 362.21864 973.4997 C 362.20007 973.6999 362.17773 973.8997 362.15162 974.099 L 360.1909 989.0717 C 360.0581 990.086 359.78896 991.0776 359.3908 992.0197 L 359.3908 992.0197 C 358.9932 992.9605 358.74454 993.9574 358.6537 994.9747 L 357.8908 1003.5197 C 357.38302 1009.2068 361.3415 1014.3251 366.97346 1015.2638 Z" fill="white"/>
      <path d="M 366.97346 1015.2638 L 380.7157 1017.5542 C 380.89907 1017.5847 381.08297 1017.6121 381.2673 1017.6362 L 409.62094 1021.3515 C 409.86747 1021.3838 410.1147 1021.4104 410.3625 1021.4312 L 440.60537 1023.9677 C 440.8623 1023.9892 441.11966 1024.0046 441.3773 1024.0137 L 480.3082 1025.39 C 480.4966 1025.3967 480.68504 1025.4 480.8735 1025.4 L 512.34084 1025.4 C 512.50746 1025.4 512.67407 1025.3974 512.8406 1025.3922 L 537.8754 1024.6099 C 538.0856 1024.6033 538.2957 1024.5926 538.50555 1024.5777 L 560.5533 1023.0168 C 560.7116 1023.0056 560.86975 1022.992 561.02766 1022.9761 L 586.28815 1020.4305 C 586.4899 1020.4102 586.6912 1020.386 586.89204 1020.358 L 610.68474 1017.0427 C 610.88875 1017.0142 611.0922 1016.9819 611.29496 1016.9456 L 620.4908 1015.3 C 625.8179 1014.3467 629.46876 1009.3931 628.80234 1004.0226 L 626.59475 986.232 C 626.5921 986.2107 626.5895 986.1893 626.58695 986.168 L 623.0231 956.4695 C 623.0016 956.2898 622.98306 956.1099 622.9676 955.9296 L 620.6054 928.3704 C 620.59565 928.2568 620.5871 928.1431 620.5798 928.0294 L 619.1932 906.4377 C 619.1916 906.4126 619.1899 906.3874 619.1882 906.3623 L 617.596 883.276 C 617.5925 883.2253 617.5893 883.1747 617.5863 883.124 L 616.4099 863.3218 C 616.39716 863.1073 616.38874 862.8925 616.38465 862.6777 L 615.9924 842.0829 C 615.9913 842.0276 615.99 841.9724 615.98835 841.9172 L 615.3932 821.6828 C 615.3916 821.6276 615.39026 821.5724 615.3892 821.5172 L 614.99855 801.0076 C 614.9934 800.7359 614.9951 800.4641 615.0038 800.1925 L 615.5897 781.8329 C 615.5904 781.811 615.5912 781.789 615.592 781.7671 L 616.38005 759.8978 C 616.3872 759.6993 616.39806 759.5009 616.4126 759.3028 L 617.9701 738.0822 C 617.9839 737.8941 617.99436 737.7057 618.0015 737.5172 L 618.75596 717.6184 C 618.77915 717.0066 618.8374 716.3967 618.9305 715.79165 L 621.6695 697.9881 C 621.7503 697.463 621.8572 696.9423 621.9898 696.4278 L 626.61806 678.4702 C 626.73316 678.0236 626.8675 677.5822 627.0207 677.14725 L 632.7415 660.9076 C 632.9076 660.4361 633.0957 659.9727 633.3052 659.5188 L 638.8367 647.5338 C 638.9394 647.3113 639.0472 647.0912 639.16 646.87364 L 644.5222 636.5322 C 644.5679 636.4441 644.61446 636.35636 644.6618 636.2691 L 649.8778 626.6521 C 650.61505 625.2928 651.5647 624.0599 652.6908 623 L 652.6908 623 C 653.366 622.3645 653.3982 621.302 652.7627 620.6268 C 652.6382 620.49456 652.4931 620.3834 652.33295 620.2976 L 649.1188 618.5757 C 648.90016 618.4586 648.6788 618.34656 648.45494 618.2397 L 640.601 614.4912 C 640.19436 614.29716 639.77974 614.12036 639.3582 613.9613 L 629.6834 610.3104 C 629.4883 610.2368 629.2919 610.167 629.0941 610.1011 L 616.3996 605.8696 C 616.2604 605.8232 616.12055 605.7787 615.9801 605.73616 L 603.0966 601.83206 C 603.02605 601.8107 602.9557 601.7888 602.88544 601.7665 L 590.38144 597.78794 C 589.9878 597.6627 589.5992 597.52225 589.2164 597.3669 L 577.2405 592.5071 C 576.4088 592.16964 575.60704 591.7628 574.8436 591.2908 L 565.22436 585.3444 C 565.06865 585.24814 564.9146 585.1492 564.7623 585.0477 L 559.8722 581.7876 C 558.8908 581.13335 558.0195 580.32745 557.2908 579.4 L 557.2908 579.4 C 557.1852 579.2656 556.9906 579.24225 556.8562 579.34785 C 556.7535 579.4286 556.7125 579.5651 556.7538 579.6891 L 556.8908 580.1 C 557.35003 581.47775 557.4546 582.94904 557.1948 584.3779 L 556.79967 586.55115 C 556.52845 588.0428 556.0466 589.48835 555.3686 590.8444 L 553.83626 593.90904 C 553.53956 594.50244 553.20624 595.0768 552.83823 595.6288 L 549.6345 600.4344 C 549.2059 601.0773 548.7313 601.6883 548.2144 602.2626 L 543.6524 607.33156 C 543.6113 607.3772 543.57 607.4226 543.5284 607.4677 L 537.53417 613.97576 C 536.9064 614.6573 536.2207 615.283 535.48465 615.8459 L 530.4605 619.6879 C 530.0143 620.02906 529.5505 620.3465 529.071 620.6389 L 522.5846 624.594 C 521.9229 624.9975 521.2328 625.3523 520.51975 625.65576 L 513.40434 628.6836 C 512.5967 629.0273 511.7621 629.3039 510.90905 629.5107 L 506.83 630.4996 C 506.00516 630.69955 505.1657 630.83356 504.31963 630.90035 L 498.6194 631.3504 C 498.2005 631.38344 497.7804 631.4 497.3602 631.4 L 490.32787 631.4 C 489.57077 631.4 488.8146 631.3463 488.0651 631.2392 L 480.1187 630.104 C 479.63367 630.0347 479.1521 629.9432 478.6755 629.8297 L 472.71426 628.41035 C 471.5688 628.1376 470.4569 627.7393 469.3988 627.2225 L 463.1188 624.15556 C 462.6338 623.9187 462.161 623.6574 461.7024 623.3727 L 457.4905 620.75846 C 456.89135 620.38656 456.3174 619.97546 455.7725 619.5278 L 451.3264 615.8757 C 451.1027 615.6919 450.884 615.50214 450.6706 615.3065 L 446.8683 611.82104 C 446.417 611.40736 445.9898 610.9681 445.58885 610.5055 L 441.4701 605.7531 C 441.1507 605.38455 440.84836 605.0016 440.56395 604.6055 L 436.1343 598.4356 C 435.6394 597.7463 435.20013 597.0187 434.82064 596.2597 L 432.2442 591.1068 C 432.2086 591.0356 432.1735 590.96414 432.139 590.8924 L 430.8908 588.3 C 430.04007 586.5331 429.68455 584.5686 429.8621 582.61564 L 430.0423 580.6334 C 430.0661 580.3715 429.8731 580.13994 429.61125 580.11614 C 429.44886 580.1014 429.2902 580.17075 429.1908 580.3 L 429.1908 580.3 C 428.52734 581.1625 427.74723 581.92856 426.87285 582.57625 L 422.9763 585.4626 C 422.85263 585.5542 422.72763 585.644 422.60136 585.732 L 417.9791 588.9536 C 416.79237 589.7807 415.49895 590.4431 414.1342 590.9226 L 409.5271 592.5413 C 409.0365 592.7137 408.55463 592.90984 408.08316 593.1291 L 401.2364 596.3137 C 400.5402 596.6375 399.82165 596.91074 399.08625 597.13136 L 388.21586 600.3925 C 388.19914 600.3975 388.18243 600.40254 388.16572 600.4076 L 377.19764 603.7372 C 377.05974 603.7791 376.9224 603.8228 376.7857 603.86836 L 363.86446 608.17544 C 363.81534 608.1918 363.76614 608.20795 363.71686 608.22384 L 352.34946 611.89075 C 351.71097 612.0967 351.08607 612.3426 350.47846 612.62704 L 342.5465 616.3399 C 342.17616 616.5132 341.8126 616.7007 341.45662 616.9019 L 335.5105 620.2628 C 334.25747 620.971 333.81583 622.5609 334.52406 623.81396 C 334.6012 623.9504 334.69045 624.0796 334.7908 624.2 L 335.6549 625.2369 C 336.40984 626.1429 337.0623 627.1295 337.60043 628.1788 L 340.67757 634.1792 C 340.75304 634.3264 340.8308 634.4724 340.9108 634.61715 L 344.86554 641.7734 C 344.94903 641.92445 345.03007 642.0769 345.10863 642.2306 L 349.21693 650.26856 C 349.466 650.7559 349.6899 651.2556 349.88776 651.7659 L 353.37053 660.7478 C 353.38403 660.7826 353.39765 660.8174 353.4114 660.8521 L 357.00772 669.93754 C 357.12973 670.2458 357.24213 670.5577 357.34476 670.8729 L 359.9666 678.9257 C 359.9827 678.9752 359.9986 679.02484 360.01424 679.0745 L 363.0863 688.8328 C 363.2891 689.47695 363.4509 690.1333 363.57073 690.7979 L 365.55605 701.8074 C 365.5792 701.9358 365.6008 702.0645 365.6208 702.1934 L 367.32666 713.1868 C 367.3694 713.4622 367.40494 713.7387 367.43323 714.016 L 368.32065 722.7127 C 368.3674 723.1707 368.39433 723.6305 368.4014 724.0908 L 368.58565 736.0664 C 368.58907 736.2888 368.59713 736.51105 368.6098 736.7331 L 369.3802 750.21465 C 369.38725 750.3382 369.39575 750.4617 369.40567 750.5851 L 370.73924 767.1594 C 370.7736 767.5863 370.7908 768.0144 370.7908 768.4426 L 370.7908 780.8924 C 370.7908 781.0975 370.79472 781.3025 370.8026 781.5074 L 371.38295 796.5965 C 371.38817 796.7322 371.39166 796.8679 371.39343 797.00365 L 371.5856 811.7999 C 371.58905 812.0666 371.58584 812.3333 371.57597 812.5999 L 371.00174 828.104 C 370.99444 828.3013 370.9908 828.4988 370.9908 828.6962 L 370.9908 842.2924 C 370.9908 842.4975 370.98684 842.7025 370.97896 842.9074 L 370.39377 858.1224 C 370.39178 858.1741 370.38953 858.2259 370.38704 858.2776 L 369.5917 874.7806 C 369.5911 874.7935 369.59045 874.8065 369.5898 874.8195 L 368.7953 890.5106 C 368.7923 890.5702 368.78894 890.6298 368.78526 890.6893 L 367.59634 909.9101 C 367.59264 909.97 367.5886 910.03 367.5842 910.0899 L 365.80107 934.4594 C 365.7942 934.5531 365.78653 934.6468 365.778 934.7404 L 363.99213 954.3852 C 363.99123 954.3951 363.99032 954.4049 363.9894 954.4148 L 362.21864 973.4997 C 362.20007 973.6999 362.17773 973.8997 362.15162 974.099 L 360.1909 989.0717 C 360.0581 990.086 359.78896 991.0776 359.3908 992.0197 L 359.3908 992.0197 C 358.9932 992.9605 358.74454 993.9574 358.6537 994.9747 L 357.8908 1003.5197 C 357.38302 1009.2068 361.3415 1014.3251 366.97346 1015.2638 Z" stroke="#7f8080" stroke-linecap="round" stroke-linejoin="round" stroke-width="1"/>
      <path d="M 278 729.44615 L 284.2 733.84615 L 292.4 737.84615 L 301 741.44615 L 310 745.24615 L 321 749.24615 L 330.4 752.04615 L 339.4 754.64615 L 348.4 757.24615 L 353.8 758.64615 L 359.4 759.64615 L 361.8 753.84615 L 364.4 748.44615 L 366.6 744.44615 L 369.2 741.04615 L 369.4 732.04615 L 368.8 721.04615 L 367 710.24615 L 365.4 699.84615 L 362.8 688.84614 L 360.4 679.24614 L 357.6 671.24614 L 354.4 661.84614 L 351.6 654.44614 L 348 646.84614 L 344 639.24614 L 340 631.84614 L 337.4 628.24614 L 333.8 622.44614 L 328.4 626.84614 L 323.6 631.64614 L 319 637.84614 L 314.6 644.04614 L 309.8 652.64614 L 305 662.04614 L 300.2 671.24614 L 296.6 679.84614 L 292.6 688.84614 L 289.4 697.04615 L 285.6 706.44615 L 282.8 714.44615 L 279.8 722.84615 Z" fill="white"/>
      <path d="M 278 729.44615 L 284.2 733.84615 L 292.4 737.84615 L 301 741.44615 L 310 745.24615 L 321 749.24615 L 330.4 752.04615 L 339.4 754.64615 L 348.4 757.24615 L 353.8 758.64615 L 359.4 759.64615 L 361.8 753.84615 L 364.4 748.44615 L 366.6 744.44615 L 369.2 741.04615 L 369.4 732.04615 L 368.8 721.04615 L 367 710.24615 L 365.4 699.84615 L 362.8 688.84614 L 360.4 679.24614 L 357.6 671.24614 L 354.4 661.84614 L 351.6 654.44614 L 348 646.84614 L 344 639.24614 L 340 631.84614 L 337.4 628.24614 L 333.8 622.44614 L 328.4 626.84614 L 323.6 631.64614 L 319 637.84614 L 314.6 644.04614 L 309.8 652.64614 L 305 662.04614 L 300.2 671.24614 L 296.6 679.84614 L 292.6 688.84614 L 289.4 697.04615 L 285.6 706.44615 L 282.8 714.44615 L 279.8 722.84615 Z" stroke="#7f8080" stroke-linecap="round" stroke-linejoin="round" stroke-width="1"/>
      <path d="M 709.4053 728.50275 L 703.2053 732.90275 L 695.0053 736.90275 L 686.4053 740.50275 L 677.4053 744.30275 L 666.4053 748.30275 L 657.0053 751.10275 L 648.0053 753.70275 L 639.0053 756.30275 L 633.6053 757.70275 L 628.0053 758.70275 L 625.6053 752.90275 L 623.0053 747.50275 L 620.8053 743.50275 L 618.2053 740.10275 L 618.0053 731.10275 L 618.6053 720.10275 L 620.4053 709.30275 L 622.0053 698.90275 L 624.6053 687.90275 L 627.0053 678.30275 L 629.8053 670.30275 L 633.0053 660.90275 L 635.8053 653.50275 L 639.4053 645.90275 L 643.4053 638.30275 L 647.4053 630.90275 L 650.0053 627.30275 L 653.6053 621.50275 L 659.0053 625.90275 L 663.8053 630.70275 L 668.4053 636.90275 L 672.8053 643.10275 L 677.6053 651.70275 L 682.4053 661.10275 L 687.2053 670.30275 L 690.8053 678.90275 L 694.8053 687.90275 L 698.0053 696.10275 L 701.8053 705.50275 L 704.6053 713.50275 L 707.6053 721.90275 Z" fill="white"/>
      <path d="M 709.4053 728.50275 L 703.2053 732.90275 L 695.0053 736.90275 L 686.4053 740.50275 L 677.4053 744.30275 L 666.4053 748.30275 L 657.0053 751.10275 L 648.0053 753.70275 L 639.0053 756.30275 L 633.6053 757.70275 L 628.0053 758.70275 L 625.6053 752.90275 L 623.0053 747.50275 L 620.8053 743.50275 L 618.2053 740.10275 L 618.0053 731.10275 L 618.6053 720.10275 L 620.4053 709.30275 L 622.0053 698.90275 L 624.6053 687.90275 L 627.0053 678.30275 L 629.8053 670.30275 L 633.0053 660.90275 L 635.8053 653.50275 L 639.4053 645.90275 L 643.4053 638.30275 L 647.4053 630.90275 L 650.0053 627.30275 L 653.6053 621.50275 L 659.0053 625.90275 L 663.8053 630.70275 L 668.4053 636.90275 L 672.8053 643.10275 L 677.6053 651.70275 L 682.4053 661.10275 L 687.2053 670.30275 L 690.8053 678.90275 L 694.8053 687.90275 L 698.0053 696.10275 L 701.8053 705.50275 L 704.6053 713.50275 L 707.6053 721.90275 Z" stroke="#7f8080" stroke-linecap="round" stroke-linejoin="round" stroke-width="1"/>
      <path d="M 278 729.44615 L 284.2 733.84615 L 292.4 737.84615 L 301 741.44615 L 310 745.24615 L 321 749.24615 L 330.4 752.04615 L 339.4 754.64615 L 348.4 757.24615 L 353.8 758.64615 L 359.4 759.64615 L 362.4 753.24615 L 358.6 752.44615 L 353.8 751.24615 L 348.2 750.04615 L 342.2 748.24615 L 337.6 746.84615 L 333.4 745.64615 L 328.8 743.64615 L 324.2 742.04615 L 319.4 740.04615 L 315.4 738.64615 L 310.2 736.44615 L 305.6 734.84615 L 300.8 732.64615 L 296 730.84615 L 292 728.84615 L 287.6 726.64615 L 283.2 724.44615 L 279.8 722.84615 Z" fill="black"/>
      <path d="M 278 729.44615 L 284.2 733.84615 L 292.4 737.84615 L 301 741.44615 L 310 745.24615 L 321 749.24615 L 330.4 752.04615 L 339.4 754.64615 L 348.4 757.24615 L 353.8 758.64615 L 359.4 759.64615 L 362.4 753.24615 L 358.6 752.44615 L 353.8 751.24615 L 348.2 750.04615 L 342.2 748.24615 L 337.6 746.84615 L 333.4 745.64615 L 328.8 743.64615 L 324.2 742.04615 L 319.4 740.04615 L 315.4 738.64615 L 310.2 736.44615 L 305.6 734.84615 L 300.8 732.64615 L 296 730.84615 L 292 728.84615 L 287.6 726.64615 L 283.2 724.44615 L 279.8 722.84615 Z" stroke="#7f8080" stroke-linecap="round" stroke-linejoin="round" stroke-width="1"/>
      <path d="M 709.4053 728.50275 L 703.2053 732.90275 L 695.0053 736.90275 L 686.4053 740.50275 L 677.4053 744.30275 L 666.4053 748.30275 L 657.0053 751.10275 L 648.0053 753.70275 L 639.0053 756.30275 L 633.6053 757.70275 L 628.0053 758.70275 L 625.0053 752.30275 L 628.8053 751.50275 L 633.6053 750.30275 L 639.2053 749.10275 L 645.2053 747.30275 L 649.8053 745.90275 L 654.0053 744.70275 L 658.6053 742.70275 L 663.2053 741.10275 L 668.0053 739.10275 L 672.0053 737.70275 L 677.2053 735.50275 L 681.8053 733.90275 L 686.6053 731.70275 L 691.4053 729.90275 L 695.4053 727.90275 L 699.8053 725.70275 L 704.2053 723.50275 L 707.6053 721.90275 Z" fill="black"/>
      <path d="M 709.4053 728.50275 L 703.2053 732.90275 L 695.0053 736.90275 L 686.4053 740.50275 L 677.4053 744.30275 L 666.4053 748.30275 L 657.0053 751.10275 L 648.0053 753.70275 L 639.0053 756.30275 L 633.6053 757.70275 L 628.0053 758.70275 L 625.0053 752.30275 L 628.8053 751.50275 L 633.6053 750.30275 L 639.2053 749.10275 L 645.2053 747.30275 L 649.8053 745.90275 L 654.0053 744.70275 L 658.6053 742.70275 L 663.2053 741.10275 L 668.0053 739.10275 L 672.0053 737.70275 L 677.2053 735.50275 L 681.8053 733.90275 L 686.6053 731.70275 L 691.4053 729.90275 L 695.4053 727.90275 L 699.8053 725.70275 L 704.2053 723.50275 L 707.6053 721.90275 Z" stroke="#7f8080" stroke-linecap="round" stroke-linejoin="round" stroke-width="1"/>
      <path d="M 428.5721 579.9638 L 423.84295 584.01736 C 422.6926 585.0034 421.44764 585.8733 420.1262 586.6145 L 417.5996 588.03165 C 416.1644 588.8366 415.5836 590.60575 416.2624 592.1047 L 417.28 594.352 C 417.4016 594.62046 417.5283 594.8866 417.6601 595.1502 L 419.4624 598.7547 L 421.9494 603.7287 C 422.29117 604.4123 422.66683 605.0784 423.07495 605.7246 L 425.40134 609.4081 C 425.8417 610.10535 426.3193 610.7784 426.83195 611.4244 L 430.24264 615.72185 C 430.7887 616.4099 431.3737 617.06606 431.9948 617.6872 L 436.66087 622.3532 C 437.06175 622.7541 437.4773 623.14 437.9067 623.5102 L 442.47023 627.44426 C 442.8649 627.7845 443.271 628.1112 443.68785 628.4238 L 447.6628 631.405 C 448.3287 631.9045 449.02123 632.3674 449.73733 632.7917 L 453.8704 635.24096 C 453.9984 635.3168 454.1271 635.3914 454.25656 635.4648 L 458.9541 638.1267 C 459.6924 638.5451 460.4533 638.92226 461.23325 639.2565 L 464.78307 640.7779 C 465.36903 641.029 465.9652 641.2557 466.57 641.4573 L 471.5881 643.13 C 472.8353 643.5457 474.1159 643.85376 475.4158 644.0507 L 479.51464 644.67174 C 479.87976 644.7271 480.24615 644.7736 480.6135 644.81126 L 487.4946 645.517 C 487.7398 645.54216 487.98534 645.5634 488.2312 645.5806 L 492.75835 645.8983 C 493.2942 645.9359 493.8312 645.9547 494.3684 645.9547 L 497.63046 645.9547 C 498.58416 645.9547 499.53693 645.8954 500.48327 645.7771 L 504.472 645.2785 C 505.13195 645.19604 505.788 645.08496 506.43835 644.9456 L 512.5204 643.6423 C 513.41426 643.4508 514.2959 643.2061 515.1607 642.9096 L 519.6695 641.3637 C 520.4642 641.0913 521.2433 640.7755 522.0034 640.4178 L 526.8368 638.1433 C 527.387 637.88435 527.9267 637.6037 528.45464 637.302 L 532.2225 635.14896 C 532.9153 634.7531 533.587 634.3214 534.23494 633.8557 L 538.91106 630.49475 C 539.41175 630.1349 539.89776 629.755 540.3679 629.3561 L 545.6888 624.84144 C 546.0711 624.51706 546.4427 624.18026 546.803 623.8316 L 551.5022 619.28396 C 552.1418 618.665 552.7449 618.0094 553.3085 617.3206 L 557.1018 612.68434 C 557.6085 612.065 558.08257 611.4197 558.522 610.751 L 562.1392 605.2466 C 562.3546 604.9187 562.56163 604.58544 562.76 604.247 L 565.2831 599.9429 C 565.66906 599.28454 566.022 598.60735 566.3406 597.9139 L 568.4593 593.3026 C 568.9922 592.14285 569.36334 590.91544 569.5624 589.65474 L 569.5624 589.65474 C 569.7407 588.5255 569.1614 587.412 568.1343 586.9099 L 562.8409 584.322 C 561.5264 583.6794 560.2918 582.88486 559.1624 581.95474 L 558.7564 581.6204 C 557.91205 580.92504 557.28864 579.99874 556.9624 578.95474 L 556.9624 578.95474 C 556.9157 578.8054 556.75686 578.7222 556.60754 578.76886 C 556.4925 578.8048 556.41277 578.9097 556.4089 579.0302 L 556.2997 582.4531 C 556.20894 585.2962 555.5916 588.09776 554.479 590.7157 L 553.60206 592.77904 C 553.0435 594.0933 552.36374 595.3527 551.5716 596.5409 L 547.8858 602.0696 C 547.1383 603.19085 546.2937 604.24425 545.36175 605.2176 L 539.0667 611.7925 C 538.1986 612.6991 537.2578 613.5332 536.2536 614.2863 L 527.8787 620.5675 C 527.0023 621.2248 526.08 621.8187 525.11896 622.3445 L 517.93376 626.27606 C 516.62263 626.9935 515.2447 627.5814 513.8195 628.0314 L 507.1466 630.1387 C 505.42973 630.6808 503.65514 631.01954 501.85927 631.1478 L 494.9728 631.6397 C 493.9005 631.7163 492.82417 631.7176 491.7517 631.64365 L 483.3154 631.06184 C 482.28125 630.9905 481.2531 630.84936 480.23795 630.6393 L 473.10274 629.1631 C 471.1508 628.7592 469.2596 628.10335 467.47676 627.2119 L 462.81735 624.8822 C 461.5832 624.26515 460.4071 623.5383 459.30326 622.7104 L 453.6213 618.4489 C 453.18217 618.1196 452.75496 617.7746 452.3405 617.4147 L 446.58533 612.41676 C 445.77104 611.7096 445.0075 610.9461 444.30036 610.1318 L 439.89513 605.0591 C 439.14103 604.19075 438.4531 603.26705 437.8372 602.2958 L 434.1035 596.408 C 433.74293 595.83944 433.4075 595.2553 433.0982 594.6573 L 431.4778 591.52456 C 430.86867 590.3469 430.3625 589.11874 429.96497 587.85385 L 428.68473 583.78036 C 428.46995 583.097 428.2872 582.40395 428.13713 581.7035 L 427.9117 580.6516 C 427.82664 580.25456 428.053 579.8569 428.4378 579.7274 L 428.4378 579.7274 C 428.5103 579.70296 428.58884 579.74195 428.61325 579.81444 C 428.63126 579.86795 428.615 579.92704 428.5721 579.9638 Z" fill="url(#Obj_Gradient_2)"/>
      <path d="M 428.5721 579.9638 L 423.84295 584.01736 C 422.6926 585.0034 421.44764 585.8733 420.1262 586.6145 L 417.5996 588.03165 C 416.1644 588.8366 415.5836 590.60575 416.2624 592.1047 L 417.28 594.352 C 417.4016 594.62046 417.5283 594.8866 417.6601 595.1502 L 419.4624 598.7547 L 421.9494 603.7287 C 422.29117 604.4123 422.66683 605.0784 423.07495 605.7246 L 425.40134 609.4081 C 425.8417 610.10535 426.3193 610.7784 426.83195 611.4244 L 430.24264 615.72185 C 430.7887 616.4099 431.3737 617.06606 431.9948 617.6872 L 436.66087 622.3532 C 437.06175 622.7541 437.4773 623.14 437.9067 623.5102 L 442.47023 627.44426 C 442.8649 627.7845 443.271 628.1112 443.68785 628.4238 L 447.6628 631.405 C 448.3287 631.9045 449.02123 632.3674 449.73733 632.7917 L 453.8704 635.24096 C 453.9984 635.3168 454.1271 635.3914 454.25656 635.4648 L 458.9541 638.1267 C 459.6924 638.5451 460.4533 638.92226 461.23325 639.2565 L 464.78307 640.7779 C 465.36903 641.029 465.9652 641.2557 466.57 641.4573 L 471.5881 643.13 C 472.8353 643.5457 474.1159 643.85376 475.4158 644.0507 L 479.51464 644.67174 C 479.87976 644.7271 480.24615 644.7736 480.6135 644.81126 L 487.4946 645.517 C 487.7398 645.54216 487.98534 645.5634 488.2312 645.5806 L 492.75835 645.8983 C 493.2942 645.9359 493.8312 645.9547 494.3684 645.9547 L 497.63046 645.9547 C 498.58416 645.9547 499.53693 645.8954 500.48327 645.7771 L 504.472 645.2785 C 505.13195 645.19604 505.788 645.08496 506.43835 644.9456 L 512.5204 643.6423 C 513.41426 643.4508 514.2959 643.2061 515.1607 642.9096 L 519.6695 641.3637 C 520.4642 641.0913 521.2433 640.7755 522.0034 640.4178 L 526.8368 638.1433 C 527.387 637.88435 527.9267 637.6037 528.45464 637.302 L 532.2225 635.14896 C 532.9153 634.7531 533.587 634.3214 534.23494 633.8557 L 538.91106 630.49475 C 539.41175 630.1349 539.89776 629.755 540.3679 629.3561 L 545.6888 624.84144 C 546.0711 624.51706 546.4427 624.18026 546.803 623.8316 L 551.5022 619.28396 C 552.1418 618.665 552.7449 618.0094 553.3085 617.3206 L 557.1018 612.68434 C 557.6085 612.065 558.08257 611.4197 558.522 610.751 L 562.1392 605.2466 C 562.3546 604.9187 562.56163 604.58544 562.76 604.247 L 565.2831 599.9429 C 565.66906 599.28454 566.022 598.60735 566.3406 597.9139 L 568.4593 593.3026 C 568.9922 592.14285 569.36334 590.91544 569.5624 589.65474 L 569.5624 589.65474 C 569.7407 588.5255 569.1614 587.412 568.1343 586.9099 L 562.8409 584.322 C 561.5264 583.6794 560.2918 582.88486 559.1624 581.95474 L 558.7564 581.6204 C 557.91205 580.92504 557.28864 579.99874 556.9624 578.95474 L 556.9624 578.95474 C 556.9157 578.8054 556.75686 578.7222 556.60754 578.76886 C 556.4925 578.8048 556.41277 578.9097 556.4089 579.0302 L 556.2997 582.4531 C 556.20894 585.2962 555.5916 588.09776 554.479 590.7157 L 553.60206 592.77904 C 553.0435 594.0933 552.36374 595.3527 551.5716 596.5409 L 547.8858 602.0696 C 547.1383 603.19085 546.2937 604.24425 545.36175 605.2176 L 539.0667 611.7925 C 538.1986 612.6991 537.2578 613.5332 536.2536 614.2863 L 527.8787 620.5675 C 527.0023 621.2248 526.08 621.8187 525.11896 622.3445 L 517.93376 626.27606 C 516.62263 626.9935 515.2447 627.5814 513.8195 628.0314 L 507.1466 630.1387 C 505.42973 630.6808 503.65514 631.01954 501.85927 631.1478 L 494.9728 631.6397 C 493.9005 631.7163 492.82417 631.7176 491.7517 631.64365 L 483.3154 631.06184 C 482.28125 630.9905 481.2531 630.84936 480.23795 630.6393 L 473.10274 629.1631 C 471.1508 628.7592 469.2596 628.10335 467.47676 627.2119 L 462.81735 624.8822 C 461.5832 624.26515 460.4071 623.5383 459.30326 622.7104 L 453.6213 618.4489 C 453.18217 618.1196 452.75496 617.7746 452.3405 617.4147 L 446.58533 612.41676 C 445.77104 611.7096 445.0075 610.9461 444.30036 610.1318 L 439.89513 605.0591 C 439.14103 604.19075 438.4531 603.26705 437.8372 602.2958 L 434.1035 596.408 C 433.74293 595.83944 433.4075 595.2553 433.0982 594.6573 L 431.4778 591.52456 C 430.86867 590.3469 430.3625 589.11874 429.96497 587.85385 L 428.68473 583.78036 C 428.46995 583.097 428.2872 582.40395 428.13713 581.7035 L 427.9117 580.6516 C 427.82664 580.25456 428.053 579.8569 428.4378 579.7274 L 428.4378 579.7274 C 428.5103 579.70296 428.58884 579.74195 428.61325 579.81444 C 428.63126 579.86795 428.615 579.92704 428.5721 579.9638 Z" stroke="#7f8080" stroke-linecap="round" stroke-linejoin="round" stroke-width="1"/>
      <path d="M 428.05925 579.7559 L 433.45925 579.1559 L 440.25925 582.5559 L 445.25925 584.3559 L 453.65925 586.1559 L 462.05925 587.1559 L 470.05925 588.1559 L 477.65925 588.3559 L 486.25925 588.7559 L 497.85925 588.5559 L 506.25925 588.1559 L 515.65925 587.5559 L 524.05925 586.7559 L 533.25925 585.3559 L 541.45925 583.1559 L 547.25925 581.3559 L 552.85925 578.7559 L 555.65925 579.9559 L 556.05925 585.5559 L 553.25925 593.5559 L 547.85925 596.3559 L 537.25925 599.5559 L 525.85925 601.9559 L 514.65925 602.7559 L 502.25925 603.7559 L 491.85925 603.7559 L 482.45925 603.7559 L 470.85925 603.1559 L 459.65925 602.3559 L 449.05925 600.1559 L 440.45925 598.1559 L 434.25925 595.3559 L 432.25925 593.7559 L 429.05925 586.1559 Z" fill="url(#Obj_Gradient_3)"/>
      <path d="M 428.05925 579.7559 L 433.45925 579.1559 L 440.25925 582.5559 L 445.25925 584.3559 L 453.65925 586.1559 L 462.05925 587.1559 L 470.05925 588.1559 L 477.65925 588.3559 L 486.25925 588.7559 L 497.85925 588.5559 L 506.25925 588.1559 L 515.65925 587.5559 L 524.05925 586.7559 L 533.25925 585.3559 L 541.45925 583.1559 L 547.25925 581.3559 L 552.85925 578.7559 L 555.65925 579.9559 L 556.05925 585.5559 L 553.25925 593.5559 L 547.85925 596.3559 L 537.25925 599.5559 L 525.85925 601.9559 L 514.65925 602.7559 L 502.25925 603.7559 L 491.85925 603.7559 L 482.45925 603.7559 L 470.85925 603.1559 L 459.65925 602.3559 L 449.05925 600.1559 L 440.45925 598.1559 L 434.25925 595.3559 L 432.25925 593.7559 L 429.05925 586.1559 Z" stroke="#7f8080" stroke-linecap="round" stroke-linejoin="round" stroke-width="1"/>
      <path d="M 357.8132 1005.2 L 357.8132 1005.2 C 357.74753 1005.7255 357.81036 1006.259 357.9963 1006.7549 L 358.6473 1008.4909 C 358.82406 1008.9623 359.05115 1009.4132 359.3246 1009.8358 L 360.29243 1011.3315 C 360.8334 1012.1676 361.5465 1012.8785 362.3841 1013.417 L 363.46217 1014.11 C 363.76243 1014.3031 364.077 1014.4728 364.40316 1014.6179 L 365.72 1015.2035 C 366.31654 1015.4688 366.94725 1015.6493 367.5938 1015.7398 L 376.6042 1017.0013 C 376.6142 1017.0027 376.6242 1017.004 376.6342 1017.0054 L 388.3502 1018.594 C 388.3962 1018.6002 388.44226 1018.606 388.4884 1018.6113 L 398.7713 1019.7978 C 398.80324 1019.8015 398.8352 1019.805 398.86716 1019.8082 L 412.57723 1021.1991 C 412.6052 1021.2019 412.6332 1021.2046 412.66123 1021.2071 L 423.76653 1022.1987 C 423.80164 1022.2018 423.8368 1022.2047 423.87195 1022.2073 L 434.5585 1022.9989 C 434.59896 1023.0019 434.63947 1023.0045 434.68 1023.0068 L 445.188 1023.6016 C 445.2088 1023.6028 445.2296 1023.604 445.2504 1023.6054 L 457.2932 1024.3951 C 457.3772 1024.4006 457.4613 1024.4046 457.54543 1024.4071 L 470.99256 1024.8026 C 471.0103 1024.8031 471.0281 1024.8037 471.04585 1024.8043 L 481.6897 1025.1986 C 481.77603 1025.2018 481.8624 1025.2034 481.9488 1025.2034 L 492.5578 1025.2034 C 492.59874 1025.2034 492.63967 1025.2037 492.6806 1025.2044 L 503.767 1025.3989 C 503.9351 1025.4019 504.1032 1025.3988 504.27106 1025.3896 L 514.8923 1024.8103 C 514.9769 1024.8057 515.0616 1024.8026 515.1463 1024.801 L 525.91085 1024.6053 C 525.9831 1024.604 526.0553 1024.6016 526.12745 1024.598 L 538.1461 1024.007 C 538.1948 1024.0046 538.24355 1024.0016 538.29225 1023.9982 L 549.5323 1023.2095 C 549.59023 1023.2054 549.6481 1023.2006 549.70594 1023.1951 L 562.1165 1022.0131 C 562.185 1022.0066 562.2535 1022.0011 562.32214 1021.9966 L 574.25416 1021.2142 C 574.3642 1021.207 574.474 1021.1972 574.58355 1021.1847 L 584.9959 1020.006 C 585.01144 1020.0042 585.027 1020.0024 585.0425 1020.0006 L 594.9902 1018.8068 C 595.00954 1018.8045 595.02886 1018.8021 595.0482 1018.7996 L 608.88394 1017.0221 C 608.98115 1017.0096 609.0781 1016.9951 609.1747 1016.9785 L 615.7282 1015.855 C 615.92915 1015.8206 616.1315 1015.795 616.3347 1015.7782 L 619.56706 1015.5112 C 620.4563 1015.4377 621.3233 1015.195 622.12135 1014.796 L 623.60765 1014.0528 C 624.2082 1013.7525 624.7625 1013.3674 625.2534 1012.9092 L 626.5885 1011.6631 C 627.1953 1011.0967 627.6507 1010.3875 627.9132 1009.6 L 628.20805 1008.7155 C 628.2781 1008.5053 628.3382 1008.2919 628.388 1008.076 L 628.8577 1006.0406 C 628.8929 1005.8879 628.8595 1005.7275 628.7662 1005.6017 L 628.7662 1005.6017 C 628.6759 1005.4798 628.5252 1005.4183 628.3754 1005.4421 L 619.89555 1006.7912 C 619.84466 1006.7993 619.79385 1006.808 619.74315 1006.8172 L 606.7584 1009.178 C 606.6656 1009.1949 606.5725 1009.2099 606.4791 1009.223 L 595.2494 1010.7991 C 595.2293 1010.802 595.20914 1010.8049 595.189 1010.8079 L 582.0664 1012.7665 C 581.9017 1012.791 581.7361 1012.8097 581.57 1012.8225 L 568.84517 1013.8014 C 568.82786 1013.8027 568.81055 1013.804 568.7932 1013.8052 L 554.4531 1014.801 C 554.4305 1014.8026 554.4079 1014.804 554.3853 1014.8054 L 541.08205 1015.5996 C 541.04016 1015.6021 540.99824 1015.6042 540.9563 1015.606 L 526.76485 1016.1973 C 526.66776 1016.2013 526.5706 1016.2034 526.47344 1016.2034 L 513.2192 1016.2034 L 500.67753 1016.2034 C 500.63865 1016.2034 500.59976 1016.2037 500.5609 1016.2043 L 488.8025 1016.4003 C 488.6803 1016.4023 488.5581 1016.4012 488.436 1016.3968 L 477.6024 1016.0099 C 477.4803 1016.0055 477.3581 1016.0044 477.2359 1016.0064 L 465.5213 1016.2017 C 465.45323 1016.2028 465.3852 1016.2029 465.31713 1016.2021 L 449.61484 1016.0058 C 449.48444 1016.0042 449.3541 1015.9989 449.224 1015.99 L 434.91423 1015.0099 C 434.8509 1015.0055 434.7876 1015.0003 434.7244 1014.9943 L 420.2334 1013.6047 C 420.22393 1013.6038 420.2145 1013.6029 420.20503 1013.6019 L 406.393 1012.2207 C 406.27715 1012.2091 406.1616 1012.1947 406.0465 1012.1773 L 391.73735 1010.0212 C 391.6586 1010.0093 391.57964 1009.9988 391.5005 1009.9896 L 377.9806 1008.4221 C 377.873 1008.4096 377.76574 1008.3946 377.65886 1008.3772 L 368.26677 1006.8438 C 368.1018 1006.8168 367.9378 1006.784 367.77516 1006.7453 L 358.69756 1004.5865 C 358.30925 1004.4942 357.9196 1004.7341 357.82724 1005.1224 C 357.82116 1005.148 357.81647 1005.1739 357.8132 1005.2 Z" fill="url(#Obj_Gradient_4)"/>
      <path d="M 357.8132 1005.2 L 357.8132 1005.2 C 357.74753 1005.7255 357.81036 1006.259 357.9963 1006.7549 L 358.6473 1008.4909 C 358.82406 1008.9623 359.05115 1009.4132 359.3246 1009.8358 L 360.29243 1011.3315 C 360.8334 1012.1676 361.5465 1012.8785 362.3841 1013.417 L 363.46217 1014.11 C 363.76243 1014.3031 364.077 1014.4728 364.40316 1014.6179 L 365.72 1015.2035 C 366.31654 1015.4688 366.94725 1015.6493 367.5938 1015.7398 L 376.6042 1017.0013 C 376.6142 1017.0027 376.6242 1017.004 376.6342 1017.0054 L 388.3502 1018.594 C 388.3962 1018.6002 388.44226 1018.606 388.4884 1018.6113 L 398.7713 1019.7978 C 398.80324 1019.8015 398.8352 1019.805 398.86716 1019.8082 L 412.57723 1021.1991 C 412.6052 1021.2019 412.6332 1021.2046 412.66123 1021.2071 L 423.76653 1022.1987 C 423.80164 1022.2018 423.8368 1022.2047 423.87195 1022.2073 L 434.5585 1022.9989 C 434.59896 1023.0019 434.63947 1023.0045 434.68 1023.0068 L 445.188 1023.6016 C 445.2088 1023.6028 445.2296 1023.604 445.2504 1023.6054 L 457.2932 1024.3951 C 457.3772 1024.4006 457.4613 1024.4046 457.54543 1024.4071 L 470.99256 1024.8026 C 471.0103 1024.8031 471.0281 1024.8037 471.04585 1024.8043 L 481.6897 1025.1986 C 481.77603 1025.2018 481.8624 1025.2034 481.9488 1025.2034 L 492.5578 1025.2034 C 492.59874 1025.2034 492.63967 1025.2037 492.6806 1025.2044 L 503.767 1025.3989 C 503.9351 1025.4019 504.1032 1025.3988 504.27106 1025.3896 L 514.8923 1024.8103 C 514.9769 1024.8057 515.0616 1024.8026 515.1463 1024.801 L 525.91085 1024.6053 C 525.9831 1024.604 526.0553 1024.6016 526.12745 1024.598 L 538.1461 1024.007 C 538.1948 1024.0046 538.24355 1024.0016 538.29225 1023.9982 L 549.5323 1023.2095 C 549.59023 1023.2054 549.6481 1023.2006 549.70594 1023.1951 L 562.1165 1022.0131 C 562.185 1022.0066 562.2535 1022.0011 562.32214 1021.9966 L 574.25416 1021.2142 C 574.3642 1021.207 574.474 1021.1972 574.58355 1021.1847 L 584.9959 1020.006 C 585.01144 1020.0042 585.027 1020.0024 585.0425 1020.0006 L 594.9902 1018.8068 C 595.00954 1018.8045 595.02886 1018.8021 595.0482 1018.7996 L 608.88394 1017.0221 C 608.98115 1017.0096 609.0781 1016.9951 609.1747 1016.9785 L 615.7282 1015.855 C 615.92915 1015.8206 616.1315 1015.795 616.3347 1015.7782 L 619.56706 1015.5112 C 620.4563 1015.4377 621.3233 1015.195 622.12135 1014.796 L 623.60765 1014.0528 C 624.2082 1013.7525 624.7625 1013.3674 625.2534 1012.9092 L 626.5885 1011.6631 C 627.1953 1011.0967 627.6507 1010.3875 627.9132 1009.6 L 628.20805 1008.7155 C 628.2781 1008.5053 628.3382 1008.2919 628.388 1008.076 L 628.8577 1006.0406 C 628.8929 1005.8879 628.8595 1005.7275 628.7662 1005.6017 L 628.7662 1005.6017 C 628.6759 1005.4798 628.5252 1005.4183 628.3754 1005.4421 L 619.89555 1006.7912 C 619.84466 1006.7993 619.79385 1006.808 619.74315 1006.8172 L 606.7584 1009.178 C 606.6656 1009.1949 606.5725 1009.2099 606.4791 1009.223 L 595.2494 1010.7991 C 595.2293 1010.802 595.20914 1010.8049 595.189 1010.8079 L 582.0664 1012.7665 C 581.9017 1012.791 581.7361 1012.8097 581.57 1012.8225 L 568.84517 1013.8014 C 568.82786 1013.8027 568.81055 1013.804 568.7932 1013.8052 L 554.4531 1014.801 C 554.4305 1014.8026 554.4079 1014.804 554.3853 1014.8054 L 541.08205 1015.5996 C 541.04016 1015.6021 540.99824 1015.6042 540.9563 1015.606 L 526.76485 1016.1973 C 526.66776 1016.2013 526.5706 1016.2034 526.47344 1016.2034 L 513.2192 1016.2034 L 500.67753 1016.2034 C 500.63865 1016.2034 500.59976 1016.2037 500.5609 1016.2043 L 488.8025 1016.4003 C 488.6803 1016.4023 488.5581 1016.4012 488.436 1016.3968 L 477.6024 1016.0099 C 477.4803 1016.0055 477.3581 1016.0044 477.2359 1016.0064 L 465.5213 1016.2017 C 465.45323 1016.2028 465.3852 1016.2029 465.31713 1016.2021 L 449.61484 1016.0058 C 449.48444 1016.0042 449.3541 1015.9989 449.224 1015.99 L 434.91423 1015.0099 C 434.8509 1015.0055 434.7876 1015.0003 434.7244 1014.9943 L 420.2334 1013.6047 C 420.22393 1013.6038 420.2145 1013.6029 420.20503 1013.6019 L 406.393 1012.2207 C 406.27715 1012.2091 406.1616 1012.1947 406.0465 1012.1773 L 391.73735 1010.0212 C 391.6586 1010.0093 391.57964 1009.9988 391.5005 1009.9896 L 377.9806 1008.4221 C 377.873 1008.4096 377.76574 1008.3946 377.65886 1008.3772 L 368.26677 1006.8438 C 368.1018 1006.8168 367.9378 1006.784 367.77516 1006.7453 L 358.69756 1004.5865 C 358.30925 1004.4942 357.9196 1004.7341 357.82724 1005.1224 C 357.82116 1005.148 357.81647 1005.1739 357.8132 1005.2 Z" stroke="#7f8080" stroke-linecap="round" stroke-linejoin="round" stroke-width="1"/>
      <path d="M 359.5 677.5 L 628 676.5 L 623.5 689.5 L 622 702 L 619.5 716.5 L 618 727.5 L 617.5 736.5 L 369 737.5 L 369 728.5 L 368.5 719 L 367 708 L 367 707 L 365.5 699.5 L 362.5 688 L 361.5 682 Z" fill="black"/>
      <path d="M 359.5 677.5 L 628 676.5 L 623.5 689.5 L 622 702 L 619.5 716.5 L 618 727.5 L 617.5 736.5 L 369 737.5 L 369 728.5 L 368.5 719 L 367 708 L 367 707 L 365.5 699.5 L 362.5 688 L 361.5 682 Z" stroke="#7f8080" stroke-linecap="round" stroke-linejoin="round" stroke-width="1"/>
      <path d="M 372.70037 909.963 L 618.5 907 L 620 926.5 L 621.5 948 L 622.5 961.5 L 622 964 L 365 964.863 L 365.96255 946.563 L 367.88764 928.263 L 368.8502 909.963 Z" fill="black"/>
      <path d="M 372.70037 909.963 L 618.5 907 L 620 926.5 L 621.5 948 L 622.5 961.5 L 622 964 L 365 964.863 L 365.96255 946.563 L 367.88764 928.263 L 368.8502 909.963 Z" stroke="#7f8080" stroke-linecap="round" stroke-linejoin="round" stroke-width="1"/>
      <path d="M 372.5 799.7213 L 615.5061 798.3002 L 615.5061 815.9931 L 616.5 839.5836 L 616.5 850.5363 L 371 852.2213 L 371.99393 830.3159 L 372.98785 812.623 Z" fill="black"/>
      <path d="M 372.5 799.7213 L 615.5061 798.3002 L 615.5061 815.9931 L 616.5 839.5836 L 616.5 850.5363 L 371 852.2213 L 371.99393 830.3159 L 372.98785 812.623 Z" stroke="#7f8080" stroke-linecap="round" stroke-linejoin="round" stroke-width="1"/>
      <path d="M 617 738 L 703 707 L 689 674 L 680 658 L 627 677 Z" fill="black"/>
      <path d="M 617 738 L 703 707 L 689 674 L 680 658 L 627 677 Z" stroke="#7f8080" stroke-linecap="round" stroke-linejoin="round" stroke-width="1"/>
      <path d="M 369.4 738 L 285 707 L 300 673 L 306.4 658 L 359.4 677 L 367 708 Z" fill="black"/>
      <path d="M 369.4 738 L 285 707 L 300 673 L 306.4 658 L 359.4 677 L 367 708 Z" stroke="#7f8080" stroke-linecap="round" stroke-linejoin="round" stroke-width="1"/>
      <path d="M 334 623 L 434 622 L 424 608 L 419 599 L 415 590 L 394 598 L 376 604 L 355 610 L 341 616 Z" fill="black"/>
      <path d="M 334 623 L 434 622 L 424 608 L 419 599 L 415 590 L 394 598 L 376 604 L 355 610 L 341 616 Z" stroke="#7f8080" stroke-linecap="round" stroke-linejoin="round" stroke-width="1"/>
      <path d="M 653.219 623 L 550 622 L 561 608 L 566 597 L 570 590 L 593.219 598 L 611.219 604 L 632.219 610 L 646.219 616 Z" fill="black"/>
      <path d="M 653.219 623 L 550 622 L 561 608 L 566 597 L 570 590 L 593.219 598 L 611.219 604 L 632.219 610 L 646.219 616 Z" stroke="#7f8080" stroke-linecap="round" stroke-linejoin="round" stroke-width="1"/>
    </g>
  </g>
</svg>
