<?xml version="1.0" encoding="UTF-8" standalone="no"?>
<!DOCTYPE svg PUBLIC "-//W3C//DTD SVG 1.1//EN" "http://www.w3.org/Graphics/SVG/1.1/DTD/svg11.dtd">
<svg xmlns="http://www.w3.org/2000/svg" xmlns:xl="http://www.w3.org/1999/xlink" version="1.1" viewBox="423.5 739.5 432.4053 448.4" width="432.4053pt" height="448.4pt" xmlns:dc="http://purl.org/dc/elements/1.1/">
  <metadata> Produced by OmniGraffle 7.6.1 
    <dc:date>2019-06-07 16:27:06 +0000</dc:date>
  </metadata>
  <defs>
    <radialGradient cx="0" cy="0" r="1" id="Gradient" gradientUnits="userSpaceOnUse">
      <stop offset="0" stop-color="#cbcbcb"/>
      <stop offset="1" stop-color="#843918"/>
    </radialGradient>
    <radialGradient id="Obj_Gradient" xl:href="#Gradient" gradientTransform="translate(638.75925 767.4) scale(70.26272)"/>
    <radialGradient cx="0" cy="0" r="1" id="Gradient_2" gradientUnits="userSpaceOnUse">
      <stop offset="0" stop-color="#060d03"/>
      <stop offset="1" stop-color="#333"/>
    </radialGradient>
    <radialGradient id="Obj_Gradient_2" xl:href="#Gradient_2" gradientTransform="translate(638.787 774.3553) scale(83.83496)"/>
    <linearGradient x1="0" x2="1" id="Gradient_3" gradientUnits="userSpaceOnUse">
      <stop offset="0" stop-color="black"/>
      <stop offset="1" stop-color="#919191"/>
    </linearGradient>
    <linearGradient id="Obj_Gradient_3" xl:href="#Gradient_3" gradientTransform="translate(638.05925 740.7559) rotate(90) scale(25)"/>
    <radialGradient cx="0" cy="0" r="1" id="Gradient_4" gradientUnits="userSpaceOnUse">
      <stop offset="0" stop-color="black"/>
      <stop offset="1" stop-color="#241209"/>
    </radialGradient>
    <radialGradient id="Obj_Gradient_4" xl:href="#Gradient_4" gradientTransform="translate(639.3297 1176.9834) scale(135.94141)"/>
  </defs>
  <g stroke="none" stroke-opacity="1" stroke-dasharray="none" fill="none" fill-opacity="1">
    <title>rayas_03</title>
    <g>
      <title>Capa 1</title>
      <path d="M 577.00565 740.59045 L 585.1711 743.7082 C 586.0291 744.0358 586.90594 744.3117 587.7969 744.5344 L 601.5141 747.9637 C 602.67576 748.2541 603.8583 748.4534 605.051 748.5597 L 622.57715 750.1214 C 623.165 750.1738 623.75464 750.2035 624.3448 750.2105 L 639.8237 750.3948 C 640.114 750.3983 640.4044 750.3962 640.6947 750.3887 L 655.118 750.0141 C 655.4788 750.0047 655.8393 749.9868 656.1992 749.9605 L 670.5705 748.9089 C 671.562 748.8364 672.54766 748.6996 673.5214 748.4996 L 685.0944 746.12155 C 686.1364 745.9074 687.16226 745.6213 688.16465 745.2652 L 699.91664 741.0901 C 701.007 740.7028 702.2102 741.2335 702.65925 742.3 L 702.65925 742.3 C 703.1814 743.5401 703.3334 744.90485 703.09685 746.22945 L 702.9164 747.2401 C 702.6126 748.9413 702.1181 750.6028 701.44214 752.1932 L 699.8989 755.8243 C 699.34035 757.1386 698.6606 758.398 697.8685 759.5862 L 694.1827 765.11485 C 693.4352 766.2361 692.5906 767.2895 691.6586 768.2629 L 685.36354 774.8377 C 684.4955 775.7444 683.5546 776.5785 682.5505 777.3316 L 674.17555 783.6128 C 673.2991 784.2701 672.3769 784.8639 671.4158 785.3898 L 664.2306 789.3213 C 662.9195 790.0387 661.5416 790.6266 660.1164 791.0767 L 653.4435 793.1839 C 651.7266 793.7261 649.952 794.0648 648.1561 794.1931 L 641.2697 794.685 C 640.1974 794.7616 639.121 794.7629 638.04854 794.6889 L 629.6123 794.1071 C 628.5781 794.0358 627.54994 793.8946 626.5348 793.6846 L 619.3996 792.20835 C 617.44765 791.8045 615.5565 791.1486 613.7736 790.2572 L 609.1142 787.9275 C 607.8801 787.3104 606.704 786.5835 605.6001 785.7557 L 599.91816 781.4942 C 599.479 781.1648 599.0518 780.8199 598.6374 780.45995 L 592.8822 775.462 C 592.0679 774.7549 591.30436 773.9913 590.5972 773.1771 L 586.192 768.1044 C 585.4379 767.236 584.75 766.3123 584.13406 765.34105 L 580.40036 759.4533 C 580.0398 758.8847 579.7044 758.3006 579.39505 757.70255 L 577.7747 754.5698 C 577.1655 753.39215 576.65936 752.164 576.2618 750.8991 L 574.9816 746.8256 C 574.7668 746.14225 574.5841 745.4492 574.434 744.7488 L 574.35925 744.4 C 574.1646 743.4916 574.27185 742.5444 574.6647 741.7025 L 574.75925 741.5 C 575.1537 740.6547 576.1342 740.2577 577.00565 740.59045 Z" fill="url(#Obj_Gradient)"/>
      <path d="M 577.00565 740.59045 L 585.1711 743.7082 C 586.0291 744.0358 586.90594 744.3117 587.7969 744.5344 L 601.5141 747.9637 C 602.67576 748.2541 603.8583 748.4534 605.051 748.5597 L 622.57715 750.1214 C 623.165 750.1738 623.75464 750.2035 624.3448 750.2105 L 639.8237 750.3948 C 640.114 750.3983 640.4044 750.3962 640.6947 750.3887 L 655.118 750.0141 C 655.4788 750.0047 655.8393 749.9868 656.1992 749.9605 L 670.5705 748.9089 C 671.562 748.8364 672.54766 748.6996 673.5214 748.4996 L 685.0944 746.12155 C 686.1364 745.9074 687.16226 745.6213 688.16465 745.2652 L 699.91664 741.0901 C 701.007 740.7028 702.2102 741.2335 702.65925 742.3 L 702.65925 742.3 C 703.1814 743.5401 703.3334 744.90485 703.09685 746.22945 L 702.9164 747.2401 C 702.6126 748.9413 702.1181 750.6028 701.44214 752.1932 L 699.8989 755.8243 C 699.34035 757.1386 698.6606 758.398 697.8685 759.5862 L 694.1827 765.11485 C 693.4352 766.2361 692.5906 767.2895 691.6586 768.2629 L 685.36354 774.8377 C 684.4955 775.7444 683.5546 776.5785 682.5505 777.3316 L 674.17555 783.6128 C 673.2991 784.2701 672.3769 784.8639 671.4158 785.3898 L 664.2306 789.3213 C 662.9195 790.0387 661.5416 790.6266 660.1164 791.0767 L 653.4435 793.1839 C 651.7266 793.7261 649.952 794.0648 648.1561 794.1931 L 641.2697 794.685 C 640.1974 794.7616 639.121 794.7629 638.04854 794.6889 L 629.6123 794.1071 C 628.5781 794.0358 627.54994 793.8946 626.5348 793.6846 L 619.3996 792.20835 C 617.44765 791.8045 615.5565 791.1486 613.7736 790.2572 L 609.1142 787.9275 C 607.8801 787.3104 606.704 786.5835 605.6001 785.7557 L 599.91816 781.4942 C 599.479 781.1648 599.0518 780.8199 598.6374 780.45995 L 592.8822 775.462 C 592.0679 774.7549 591.30436 773.9913 590.5972 773.1771 L 586.192 768.1044 C 585.4379 767.236 584.75 766.3123 584.13406 765.34105 L 580.40036 759.4533 C 580.0398 758.8847 579.7044 758.3006 579.39505 757.70255 L 577.7747 754.5698 C 577.1655 753.39215 576.65936 752.164 576.2618 750.8991 L 574.9816 746.8256 C 574.7668 746.14225 574.5841 745.4492 574.434 744.7488 L 574.35925 744.4 C 574.1646 743.4916 574.27185 742.5444 574.6647 741.7025 L 574.75925 741.5 C 575.1537 740.6547 576.1342 740.2577 577.00565 740.59045 Z" stroke="#7f8080" stroke-linecap="round" stroke-linejoin="round" stroke-width="1"/>
      <path d="M 512.97346 1177.2638 L 526.7157 1179.5542 C 526.8991 1179.5847 527.08297 1179.6121 527.2673 1179.6362 L 555.62094 1183.3515 C 555.8675 1183.3838 556.1147 1183.4104 556.3625 1183.4312 L 586.6054 1185.9677 C 586.8623 1185.9892 587.11966 1186.0046 587.3773 1186.0137 L 626.3082 1187.39 C 626.4966 1187.3967 626.68504 1187.4 626.8735 1187.4 L 658.34084 1187.4 C 658.50746 1187.4 658.6741 1187.3974 658.8406 1187.3922 L 683.8754 1186.6099 C 684.0856 1186.6033 684.2957 1186.5926 684.50555 1186.5777 L 706.5533 1185.0168 C 706.7116 1185.0056 706.86975 1184.992 707.0277 1184.9761 L 732.28815 1182.4305 C 732.4899 1182.4102 732.6912 1182.386 732.89204 1182.358 L 756.6847 1179.0427 C 756.88875 1179.0142 757.0922 1178.9819 757.295 1178.9456 L 766.4908 1177.3 C 771.8179 1176.3467 775.4688 1171.3931 774.8023 1166.0226 L 772.59475 1148.232 C 772.5921 1148.2107 772.5895 1148.1893 772.58695 1148.168 L 769.0231 1118.4695 C 769.0016 1118.2898 768.9831 1118.1099 768.9676 1117.9296 L 766.6054 1090.3704 C 766.59565 1090.2568 766.5871 1090.1431 766.5798 1090.0294 L 765.1932 1068.4377 C 765.1916 1068.4126 765.1899 1068.3874 765.1882 1068.3623 L 763.596 1045.276 C 763.5925 1045.2253 763.5893 1045.1747 763.5863 1045.124 L 762.4099 1025.3218 C 762.3972 1025.1073 762.3887 1024.8925 762.38465 1024.6777 L 761.9924 1004.0829 C 761.9913 1004.0276 761.99 1003.9724 761.98835 1003.9172 L 761.3932 983.6828 C 761.3916 983.6276 761.3903 983.5724 761.3892 983.5172 L 760.99855 963.0076 C 760.9934 962.7359 760.9951 962.4641 761.0038 962.1925 L 761.5897 943.8329 C 761.5904 943.811 761.5912 943.789 761.592 943.7671 L 762.38005 921.8978 C 762.3872 921.6993 762.3981 921.5009 762.4126 921.3028 L 763.9701 900.0822 C 763.9839 899.8941 763.9944 899.7057 764.0015 899.5172 L 764.756 879.6184 C 764.77915 879.0066 764.8374 878.3967 764.9305 877.7917 L 767.6695 859.9881 C 767.7503 859.463 767.8572 858.9423 767.9898 858.4278 L 772.6181 840.4702 C 772.7332 840.0236 772.8675 839.5822 773.0207 839.1472 L 778.7415 822.9076 C 778.9076 822.4361 779.0957 821.9727 779.3052 821.5188 L 784.8367 809.5338 C 784.9394 809.3113 785.0472 809.0912 785.16 808.8736 L 790.5222 798.5322 C 790.5679 798.4441 790.6145 798.3564 790.6618 798.2691 L 795.8778 788.6521 C 796.61505 787.2928 797.5647 786.0599 798.6908 785 L 798.6908 785 C 799.366 784.3645 799.3982 783.302 798.7627 782.6268 C 798.6382 782.4946 798.4931 782.3834 798.33295 782.2976 L 795.1188 780.5757 C 794.9002 780.4586 794.6788 780.3466 794.4549 780.2397 L 786.601 776.4912 C 786.1944 776.2972 785.7797 776.1204 785.3582 775.9613 L 775.6834 772.3104 C 775.4883 772.2368 775.2919 772.167 775.0941 772.1011 L 762.3996 767.8696 C 762.2604 767.8232 762.12055 767.7787 761.9801 767.7362 L 749.0966 763.8321 C 749.02605 763.8107 748.9557 763.7888 748.8854 763.7665 L 736.38144 759.7879 C 735.9878 759.6627 735.5992 759.52225 735.2164 759.3669 L 723.2405 754.5071 C 722.4088 754.1696 721.607 753.7628 720.8436 753.2908 L 711.22436 747.3444 C 711.06865 747.2481 710.9146 747.1492 710.7623 747.0477 L 705.8722 743.7876 C 704.8908 743.13335 704.0195 742.32745 703.2908 741.4 L 703.2908 741.4 C 703.1852 741.2656 702.9906 741.24225 702.8562 741.34785 C 702.7535 741.4286 702.7125 741.5651 702.7538 741.6891 L 702.8908 742.1 C 703.35 743.47775 703.4546 744.949 703.1948 746.3779 L 702.7997 748.55115 C 702.52845 750.0428 702.0466 751.48835 701.3686 752.8444 L 699.8363 755.909 C 699.5396 756.5024 699.20624 757.0768 698.8382 757.6288 L 695.6345 762.4344 C 695.2059 763.0773 694.7313 763.6883 694.2144 764.2626 L 689.6524 769.3316 C 689.6113 769.3772 689.57 769.4226 689.5284 769.4677 L 683.5342 775.9758 C 682.9064 776.6573 682.2207 777.283 681.48465 777.8459 L 676.4605 781.6879 C 676.0143 782.0291 675.5505 782.3465 675.071 782.6389 L 668.5846 786.594 C 667.9229 786.9975 667.2328 787.3523 666.51975 787.6558 L 659.4043 790.6836 C 658.5967 791.0273 657.7621 791.3039 656.90905 791.5107 L 652.83 792.4996 C 652.0052 792.6995 651.1657 792.8336 650.3196 792.9004 L 644.6194 793.3504 C 644.2005 793.3834 643.7804 793.4 643.3602 793.4 L 636.3279 793.4 C 635.5708 793.4 634.8146 793.3463 634.0651 793.2392 L 626.1187 792.104 C 625.6337 792.0347 625.1521 791.9432 624.6755 791.8297 L 618.7143 790.4104 C 617.5688 790.1376 616.4569 789.7393 615.3988 789.2225 L 609.1188 786.1556 C 608.6338 785.9187 608.161 785.6574 607.7024 785.3727 L 603.4905 782.7585 C 602.89135 782.3866 602.3174 781.9755 601.7725 781.5278 L 597.3264 777.8757 C 597.1027 777.6919 596.884 777.5021 596.6706 777.3065 L 592.8683 773.821 C 592.417 773.4074 591.9898 772.9681 591.58885 772.5055 L 587.4701 767.7531 C 587.1507 767.38455 586.84836 767.0016 586.56395 766.6055 L 582.1343 760.4356 C 581.6394 759.7463 581.2001 759.0187 580.82064 758.2597 L 578.2442 753.1068 C 578.2086 753.0356 578.1735 752.9641 578.139 752.8924 L 576.8908 750.3 C 576.0401 748.5331 575.68455 746.5686 575.8621 744.6156 L 576.0423 742.6334 C 576.0661 742.3715 575.8731 742.13994 575.61125 742.1161 C 575.44886 742.1014 575.2902 742.17075 575.1908 742.3 L 575.1908 742.3 C 574.52734 743.1625 573.7472 743.9286 572.87285 744.57625 L 568.9763 747.4626 C 568.8526 747.5542 568.72763 747.644 568.60136 747.732 L 563.9791 750.9536 C 562.7924 751.7807 561.49895 752.4431 560.1342 752.9226 L 555.5271 754.5413 C 555.0365 754.7137 554.5546 754.9098 554.08316 755.1291 L 547.2364 758.3137 C 546.5402 758.6375 545.82165 758.9107 545.08625 759.1314 L 534.21586 762.3925 C 534.19914 762.3975 534.1824 762.4025 534.1657 762.4076 L 523.19764 765.7372 C 523.05974 765.7791 522.9224 765.8228 522.7857 765.8684 L 509.86446 770.1754 C 509.81534 770.1918 509.76614 770.20795 509.71686 770.2238 L 498.34946 773.89075 C 497.711 774.0967 497.0861 774.3426 496.47846 774.627 L 488.5465 778.3399 C 488.17616 778.5132 487.8126 778.7007 487.4566 778.9019 L 481.5105 782.2628 C 480.2575 782.971 479.8158 784.5609 480.52406 785.814 C 480.6012 785.9504 480.69045 786.0796 480.7908 786.2 L 481.6549 787.2369 C 482.40984 788.1429 483.0623 789.1295 483.60043 790.1788 L 486.67757 796.1792 C 486.75304 796.3264 486.8308 796.4724 486.9108 796.61715 L 490.86554 803.7734 C 490.949 803.9244 491.03007 804.0769 491.1086 804.2306 L 495.21693 812.2686 C 495.466 812.7559 495.6899 813.2556 495.88776 813.7659 L 499.3705 822.7478 C 499.384 822.7826 499.39765 822.8174 499.4114 822.8521 L 503.0077 831.9375 C 503.12973 832.2458 503.24213 832.5577 503.34476 832.8729 L 505.9666 840.9257 C 505.9827 840.9752 505.9986 841.0248 506.01424 841.0745 L 509.0863 850.8328 C 509.2891 851.477 509.4509 852.1333 509.57073 852.7979 L 511.55605 863.8074 C 511.5792 863.9358 511.6008 864.0645 511.6208 864.1934 L 513.32666 875.1868 C 513.3694 875.4622 513.40494 875.7387 513.4332 876.016 L 514.32065 884.7127 C 514.3674 885.1707 514.3943 885.6305 514.4014 886.0908 L 514.58565 898.0664 C 514.5891 898.2888 514.5971 898.5111 514.6098 898.7331 L 515.3802 912.2146 C 515.38725 912.3382 515.39575 912.4617 515.4057 912.5851 L 516.73924 929.1594 C 516.7736 929.5863 516.7908 930.0144 516.7908 930.4426 L 516.7908 942.8924 C 516.7908 943.0975 516.7947 943.3025 516.8026 943.5074 L 517.38295 958.5965 C 517.3882 958.7322 517.39166 958.8679 517.3934 959.0036 L 517.5856 973.7999 C 517.58905 974.0666 517.58584 974.3333 517.576 974.5999 L 517.00174 990.104 C 516.99444 990.3013 516.9908 990.4988 516.9908 990.6962 L 516.9908 1004.2924 C 516.9908 1004.4975 516.98684 1004.7025 516.97896 1004.9074 L 516.39377 1020.1224 C 516.3918 1020.1741 516.38953 1020.2259 516.38704 1020.2776 L 515.5917 1036.7806 C 515.5911 1036.7935 515.59045 1036.8065 515.5898 1036.8195 L 514.7953 1052.5106 C 514.7923 1052.5702 514.78894 1052.6298 514.78526 1052.6893 L 513.59634 1071.9101 C 513.59264 1071.97 513.5886 1072.03 513.5842 1072.0899 L 511.80107 1096.4594 C 511.7942 1096.5531 511.7865 1096.6468 511.778 1096.7404 L 509.9921 1116.3852 C 509.9912 1116.3951 509.9903 1116.405 509.9894 1116.4148 L 508.21864 1135.4997 C 508.2001 1135.6999 508.1777 1135.8997 508.1516 1136.099 L 506.1909 1151.0717 C 506.0581 1152.086 505.78896 1153.0776 505.3908 1154.0197 L 505.3908 1154.0197 C 504.9932 1154.9605 504.74454 1155.9574 504.6537 1156.9747 L 503.8908 1165.5197 C 503.383 1171.2068 507.3415 1176.3251 512.97346 1177.2638 Z" fill="yellow"/>
      <path d="M 512.97346 1177.2638 L 526.7157 1179.5542 C 526.8991 1179.5847 527.08297 1179.6121 527.2673 1179.6362 L 555.62094 1183.3515 C 555.8675 1183.3838 556.1147 1183.4104 556.3625 1183.4312 L 586.6054 1185.9677 C 586.8623 1185.9892 587.11966 1186.0046 587.3773 1186.0137 L 626.3082 1187.39 C 626.4966 1187.3967 626.68504 1187.4 626.8735 1187.4 L 658.34084 1187.4 C 658.50746 1187.4 658.6741 1187.3974 658.8406 1187.3922 L 683.8754 1186.6099 C 684.0856 1186.6033 684.2957 1186.5926 684.50555 1186.5777 L 706.5533 1185.0168 C 706.7116 1185.0056 706.86975 1184.992 707.0277 1184.9761 L 732.28815 1182.4305 C 732.4899 1182.4102 732.6912 1182.386 732.89204 1182.358 L 756.6847 1179.0427 C 756.88875 1179.0142 757.0922 1178.9819 757.295 1178.9456 L 766.4908 1177.3 C 771.8179 1176.3467 775.4688 1171.3931 774.8023 1166.0226 L 772.59475 1148.232 C 772.5921 1148.2107 772.5895 1148.1893 772.58695 1148.168 L 769.0231 1118.4695 C 769.0016 1118.2898 768.9831 1118.1099 768.9676 1117.9296 L 766.6054 1090.3704 C 766.59565 1090.2568 766.5871 1090.1431 766.5798 1090.0294 L 765.1932 1068.4377 C 765.1916 1068.4126 765.1899 1068.3874 765.1882 1068.3623 L 763.596 1045.276 C 763.5925 1045.2253 763.5893 1045.1747 763.5863 1045.124 L 762.4099 1025.3218 C 762.3972 1025.1073 762.3887 1024.8925 762.38465 1024.6777 L 761.9924 1004.0829 C 761.9913 1004.0276 761.99 1003.9724 761.98835 1003.9172 L 761.3932 983.6828 C 761.3916 983.6276 761.3903 983.5724 761.3892 983.5172 L 760.99855 963.0076 C 760.9934 962.7359 760.9951 962.4641 761.0038 962.1925 L 761.5897 943.8329 C 761.5904 943.811 761.5912 943.789 761.592 943.7671 L 762.38005 921.8978 C 762.3872 921.6993 762.3981 921.5009 762.4126 921.3028 L 763.9701 900.0822 C 763.9839 899.8941 763.9944 899.7057 764.0015 899.5172 L 764.756 879.6184 C 764.77915 879.0066 764.8374 878.3967 764.9305 877.7917 L 767.6695 859.9881 C 767.7503 859.463 767.8572 858.9423 767.9898 858.4278 L 772.6181 840.4702 C 772.7332 840.0236 772.8675 839.5822 773.0207 839.1472 L 778.7415 822.9076 C 778.9076 822.4361 779.0957 821.9727 779.3052 821.5188 L 784.8367 809.5338 C 784.9394 809.3113 785.0472 809.0912 785.16 808.8736 L 790.5222 798.5322 C 790.5679 798.4441 790.6145 798.3564 790.6618 798.2691 L 795.8778 788.6521 C 796.61505 787.2928 797.5647 786.0599 798.6908 785 L 798.6908 785 C 799.366 784.3645 799.3982 783.302 798.7627 782.6268 C 798.6382 782.4946 798.4931 782.3834 798.33295 782.2976 L 795.1188 780.5757 C 794.9002 780.4586 794.6788 780.3466 794.4549 780.2397 L 786.601 776.4912 C 786.1944 776.2972 785.7797 776.1204 785.3582 775.9613 L 775.6834 772.3104 C 775.4883 772.2368 775.2919 772.167 775.0941 772.1011 L 762.3996 767.8696 C 762.2604 767.8232 762.12055 767.7787 761.9801 767.7362 L 749.0966 763.8321 C 749.02605 763.8107 748.9557 763.7888 748.8854 763.7665 L 736.38144 759.7879 C 735.9878 759.6627 735.5992 759.52225 735.2164 759.3669 L 723.2405 754.5071 C 722.4088 754.1696 721.607 753.7628 720.8436 753.2908 L 711.22436 747.3444 C 711.06865 747.2481 710.9146 747.1492 710.7623 747.0477 L 705.8722 743.7876 C 704.8908 743.13335 704.0195 742.32745 703.2908 741.4 L 703.2908 741.4 C 703.1852 741.2656 702.9906 741.24225 702.8562 741.34785 C 702.7535 741.4286 702.7125 741.5651 702.7538 741.6891 L 702.8908 742.1 C 703.35 743.47775 703.4546 744.949 703.1948 746.3779 L 702.7997 748.55115 C 702.52845 750.0428 702.0466 751.48835 701.3686 752.8444 L 699.8363 755.909 C 699.5396 756.5024 699.20624 757.0768 698.8382 757.6288 L 695.6345 762.4344 C 695.2059 763.0773 694.7313 763.6883 694.2144 764.2626 L 689.6524 769.3316 C 689.6113 769.3772 689.57 769.4226 689.5284 769.4677 L 683.5342 775.9758 C 682.9064 776.6573 682.2207 777.283 681.48465 777.8459 L 676.4605 781.6879 C 676.0143 782.0291 675.5505 782.3465 675.071 782.6389 L 668.5846 786.594 C 667.9229 786.9975 667.2328 787.3523 666.51975 787.6558 L 659.4043 790.6836 C 658.5967 791.0273 657.7621 791.3039 656.90905 791.5107 L 652.83 792.4996 C 652.0052 792.6995 651.1657 792.8336 650.3196 792.9004 L 644.6194 793.3504 C 644.2005 793.3834 643.7804 793.4 643.3602 793.4 L 636.3279 793.4 C 635.5708 793.4 634.8146 793.3463 634.0651 793.2392 L 626.1187 792.104 C 625.6337 792.0347 625.1521 791.9432 624.6755 791.8297 L 618.7143 790.4104 C 617.5688 790.1376 616.4569 789.7393 615.3988 789.2225 L 609.1188 786.1556 C 608.6338 785.9187 608.161 785.6574 607.7024 785.3727 L 603.4905 782.7585 C 602.89135 782.3866 602.3174 781.9755 601.7725 781.5278 L 597.3264 777.8757 C 597.1027 777.6919 596.884 777.5021 596.6706 777.3065 L 592.8683 773.821 C 592.417 773.4074 591.9898 772.9681 591.58885 772.5055 L 587.4701 767.7531 C 587.1507 767.38455 586.84836 767.0016 586.56395 766.6055 L 582.1343 760.4356 C 581.6394 759.7463 581.2001 759.0187 580.82064 758.2597 L 578.2442 753.1068 C 578.2086 753.0356 578.1735 752.9641 578.139 752.8924 L 576.8908 750.3 C 576.0401 748.5331 575.68455 746.5686 575.8621 744.6156 L 576.0423 742.6334 C 576.0661 742.3715 575.8731 742.13994 575.61125 742.1161 C 575.44886 742.1014 575.2902 742.17075 575.1908 742.3 L 575.1908 742.3 C 574.52734 743.1625 573.7472 743.9286 572.87285 744.57625 L 568.9763 747.4626 C 568.8526 747.5542 568.72763 747.644 568.60136 747.732 L 563.9791 750.9536 C 562.7924 751.7807 561.49895 752.4431 560.1342 752.9226 L 555.5271 754.5413 C 555.0365 754.7137 554.5546 754.9098 554.08316 755.1291 L 547.2364 758.3137 C 546.5402 758.6375 545.82165 758.9107 545.08625 759.1314 L 534.21586 762.3925 C 534.19914 762.3975 534.1824 762.4025 534.1657 762.4076 L 523.19764 765.7372 C 523.05974 765.7791 522.9224 765.8228 522.7857 765.8684 L 509.86446 770.1754 C 509.81534 770.1918 509.76614 770.20795 509.71686 770.2238 L 498.34946 773.89075 C 497.711 774.0967 497.0861 774.3426 496.47846 774.627 L 488.5465 778.3399 C 488.17616 778.5132 487.8126 778.7007 487.4566 778.9019 L 481.5105 782.2628 C 480.2575 782.971 479.8158 784.5609 480.52406 785.814 C 480.6012 785.9504 480.69045 786.0796 480.7908 786.2 L 481.6549 787.2369 C 482.40984 788.1429 483.0623 789.1295 483.60043 790.1788 L 486.67757 796.1792 C 486.75304 796.3264 486.8308 796.4724 486.9108 796.61715 L 490.86554 803.7734 C 490.949 803.9244 491.03007 804.0769 491.1086 804.2306 L 495.21693 812.2686 C 495.466 812.7559 495.6899 813.2556 495.88776 813.7659 L 499.3705 822.7478 C 499.384 822.7826 499.39765 822.8174 499.4114 822.8521 L 503.0077 831.9375 C 503.12973 832.2458 503.24213 832.5577 503.34476 832.8729 L 505.9666 840.9257 C 505.9827 840.9752 505.9986 841.0248 506.01424 841.0745 L 509.0863 850.8328 C 509.2891 851.477 509.4509 852.1333 509.57073 852.7979 L 511.55605 863.8074 C 511.5792 863.9358 511.6008 864.0645 511.6208 864.1934 L 513.32666 875.1868 C 513.3694 875.4622 513.40494 875.7387 513.4332 876.016 L 514.32065 884.7127 C 514.3674 885.1707 514.3943 885.6305 514.4014 886.0908 L 514.58565 898.0664 C 514.5891 898.2888 514.5971 898.5111 514.6098 898.7331 L 515.3802 912.2146 C 515.38725 912.3382 515.39575 912.4617 515.4057 912.5851 L 516.73924 929.1594 C 516.7736 929.5863 516.7908 930.0144 516.7908 930.4426 L 516.7908 942.8924 C 516.7908 943.0975 516.7947 943.3025 516.8026 943.5074 L 517.38295 958.5965 C 517.3882 958.7322 517.39166 958.8679 517.3934 959.0036 L 517.5856 973.7999 C 517.58905 974.0666 517.58584 974.3333 517.576 974.5999 L 517.00174 990.104 C 516.99444 990.3013 516.9908 990.4988 516.9908 990.6962 L 516.9908 1004.2924 C 516.9908 1004.4975 516.98684 1004.7025 516.97896 1004.9074 L 516.39377 1020.1224 C 516.3918 1020.1741 516.38953 1020.2259 516.38704 1020.2776 L 515.5917 1036.7806 C 515.5911 1036.7935 515.59045 1036.8065 515.5898 1036.8195 L 514.7953 1052.5106 C 514.7923 1052.5702 514.78894 1052.6298 514.78526 1052.6893 L 513.59634 1071.9101 C 513.59264 1071.97 513.5886 1072.03 513.5842 1072.0899 L 511.80107 1096.4594 C 511.7942 1096.5531 511.7865 1096.6468 511.778 1096.7404 L 509.9921 1116.3852 C 509.9912 1116.3951 509.9903 1116.405 509.9894 1116.4148 L 508.21864 1135.4997 C 508.2001 1135.6999 508.1777 1135.8997 508.1516 1136.099 L 506.1909 1151.0717 C 506.0581 1152.086 505.78896 1153.0776 505.3908 1154.0197 L 505.3908 1154.0197 C 504.9932 1154.9605 504.74454 1155.9574 504.6537 1156.9747 L 503.8908 1165.5197 C 503.383 1171.2068 507.3415 1176.3251 512.97346 1177.2638 Z" stroke="#7f8080" stroke-linecap="round" stroke-linejoin="round" stroke-width="1"/>
      <path d="M 424 891.4461 L 430.2 895.8461 L 438.4 899.8461 L 447 903.4461 L 456 907.2461 L 467 911.2461 L 476.4 914.0461 L 485.4 916.6461 L 494.4 919.2461 L 499.8 920.6461 L 505.4 921.6461 L 507.8 915.8461 L 510.4 910.4461 L 512.6 906.4461 L 515.2 903.0461 L 515.4 894.0461 L 514.8 883.0461 L 513 872.2461 L 511.4 861.8461 L 508.8 850.8461 L 506.4 841.2461 L 503.6 833.2461 L 500.4 823.8461 L 497.6 816.4461 L 494 808.8461 L 490 801.2461 L 486 793.8461 L 483.4 790.2461 L 479.8 784.4461 L 474.4 788.8461 L 469.6 793.6461 L 465 799.8461 L 460.6 806.0461 L 455.8 814.6461 L 451 824.0461 L 446.2 833.2461 L 442.6 841.8461 L 438.6 850.8461 L 435.4 859.0461 L 431.6 868.4461 L 428.8 876.4461 L 425.8 884.8461 Z" fill="yellow"/>
      <path d="M 424 891.4461 L 430.2 895.8461 L 438.4 899.8461 L 447 903.4461 L 456 907.2461 L 467 911.2461 L 476.4 914.0461 L 485.4 916.6461 L 494.4 919.2461 L 499.8 920.6461 L 505.4 921.6461 L 507.8 915.8461 L 510.4 910.4461 L 512.6 906.4461 L 515.2 903.0461 L 515.4 894.0461 L 514.8 883.0461 L 513 872.2461 L 511.4 861.8461 L 508.8 850.8461 L 506.4 841.2461 L 503.6 833.2461 L 500.4 823.8461 L 497.6 816.4461 L 494 808.8461 L 490 801.2461 L 486 793.8461 L 483.4 790.2461 L 479.8 784.4461 L 474.4 788.8461 L 469.6 793.6461 L 465 799.8461 L 460.6 806.0461 L 455.8 814.6461 L 451 824.0461 L 446.2 833.2461 L 442.6 841.8461 L 438.6 850.8461 L 435.4 859.0461 L 431.6 868.4461 L 428.8 876.4461 L 425.8 884.8461 Z" stroke="#7f8080" stroke-linecap="round" stroke-linejoin="round" stroke-width="1"/>
      <path d="M 855.4053 890.5027 L 849.2053 894.9027 L 841.0053 898.9027 L 832.4053 902.5027 L 823.4053 906.3027 L 812.4053 910.3027 L 803.0053 913.1027 L 794.0053 915.7027 L 785.0053 918.3027 L 779.6053 919.7027 L 774.0053 920.7027 L 771.6053 914.9027 L 769.0053 909.5027 L 766.8053 905.5027 L 764.2053 902.1027 L 764.0053 893.1027 L 764.6053 882.1027 L 766.4053 871.3027 L 768.0053 860.9027 L 770.6053 849.9027 L 773.0053 840.3027 L 775.8053 832.3027 L 779.0053 822.9027 L 781.8053 815.5027 L 785.4053 807.9027 L 789.4053 800.30275 L 793.4053 792.90275 L 796.0053 789.30275 L 799.6053 783.50275 L 805.0053 787.90275 L 809.8053 792.70275 L 814.4053 798.90275 L 818.8053 805.10275 L 823.6053 813.7027 L 828.4053 823.1027 L 833.2053 832.3027 L 836.8053 840.9027 L 840.8053 849.9027 L 844.0053 858.1027 L 847.8053 867.5027 L 850.6053 875.5027 L 853.6053 883.9027 Z" fill="yellow"/>
      <path d="M 855.4053 890.5027 L 849.2053 894.9027 L 841.0053 898.9027 L 832.4053 902.5027 L 823.4053 906.3027 L 812.4053 910.3027 L 803.0053 913.1027 L 794.0053 915.7027 L 785.0053 918.3027 L 779.6053 919.7027 L 774.0053 920.7027 L 771.6053 914.9027 L 769.0053 909.5027 L 766.8053 905.5027 L 764.2053 902.1027 L 764.0053 893.1027 L 764.6053 882.1027 L 766.4053 871.3027 L 768.0053 860.9027 L 770.6053 849.9027 L 773.0053 840.3027 L 775.8053 832.3027 L 779.0053 822.9027 L 781.8053 815.5027 L 785.4053 807.9027 L 789.4053 800.30275 L 793.4053 792.90275 L 796.0053 789.30275 L 799.6053 783.50275 L 805.0053 787.90275 L 809.8053 792.70275 L 814.4053 798.90275 L 818.8053 805.10275 L 823.6053 813.7027 L 828.4053 823.1027 L 833.2053 832.3027 L 836.8053 840.9027 L 840.8053 849.9027 L 844.0053 858.1027 L 847.8053 867.5027 L 850.6053 875.5027 L 853.6053 883.9027 Z" stroke="#7f8080" stroke-linecap="round" stroke-linejoin="round" stroke-width="1"/>
      <path d="M 424 891.4461 L 430.2 895.8461 L 438.4 899.8461 L 447 903.4461 L 456 907.2461 L 467 911.2461 L 476.4 914.0461 L 485.4 916.6461 L 494.4 919.2461 L 499.8 920.6461 L 505.4 921.6461 L 508.4 915.2461 L 504.6 914.4461 L 499.8 913.2461 L 494.2 912.0461 L 488.2 910.2461 L 483.6 908.8461 L 479.4 907.6461 L 474.8 905.6461 L 470.2 904.0461 L 465.4 902.0461 L 461.4 900.6461 L 456.2 898.4461 L 451.6 896.8461 L 446.8 894.6461 L 442 892.8461 L 438 890.8461 L 433.6 888.6461 L 429.2 886.4461 L 425.8 884.8461 Z" fill="black"/>
      <path d="M 424 891.4461 L 430.2 895.8461 L 438.4 899.8461 L 447 903.4461 L 456 907.2461 L 467 911.2461 L 476.4 914.0461 L 485.4 916.6461 L 494.4 919.2461 L 499.8 920.6461 L 505.4 921.6461 L 508.4 915.2461 L 504.6 914.4461 L 499.8 913.2461 L 494.2 912.0461 L 488.2 910.2461 L 483.6 908.8461 L 479.4 907.6461 L 474.8 905.6461 L 470.2 904.0461 L 465.4 902.0461 L 461.4 900.6461 L 456.2 898.4461 L 451.6 896.8461 L 446.8 894.6461 L 442 892.8461 L 438 890.8461 L 433.6 888.6461 L 429.2 886.4461 L 425.8 884.8461 Z" stroke="#7f8080" stroke-linecap="round" stroke-linejoin="round" stroke-width="1"/>
      <path d="M 855.4053 890.5027 L 849.2053 894.9027 L 841.0053 898.9027 L 832.4053 902.5027 L 823.4053 906.3027 L 812.4053 910.3027 L 803.0053 913.1027 L 794.0053 915.7027 L 785.0053 918.3027 L 779.6053 919.7027 L 774.0053 920.7027 L 771.0053 914.3027 L 774.8053 913.5027 L 779.6053 912.3027 L 785.2053 911.1027 L 791.2053 909.3027 L 795.8053 907.9027 L 800.0053 906.7027 L 804.6053 904.7027 L 809.2053 903.1027 L 814.0053 901.1027 L 818.0053 899.7027 L 823.2053 897.5027 L 827.8053 895.9027 L 832.6053 893.7027 L 837.4053 891.9027 L 841.4053 889.9027 L 845.8053 887.7027 L 850.2053 885.5027 L 853.6053 883.9027 Z" fill="black"/>
      <path d="M 855.4053 890.5027 L 849.2053 894.9027 L 841.0053 898.9027 L 832.4053 902.5027 L 823.4053 906.3027 L 812.4053 910.3027 L 803.0053 913.1027 L 794.0053 915.7027 L 785.0053 918.3027 L 779.6053 919.7027 L 774.0053 920.7027 L 771.0053 914.3027 L 774.8053 913.5027 L 779.6053 912.3027 L 785.2053 911.1027 L 791.2053 909.3027 L 795.8053 907.9027 L 800.0053 906.7027 L 804.6053 904.7027 L 809.2053 903.1027 L 814.0053 901.1027 L 818.0053 899.7027 L 823.2053 897.5027 L 827.8053 895.9027 L 832.6053 893.7027 L 837.4053 891.9027 L 841.4053 889.9027 L 845.8053 887.7027 L 850.2053 885.5027 L 853.6053 883.9027 Z" stroke="#7f8080" stroke-linecap="round" stroke-linejoin="round" stroke-width="1"/>
      <path d="M 574.5721 741.9638 L 569.84295 746.0174 C 568.6926 747.0034 567.44764 747.8733 566.1262 748.6145 L 563.5996 750.03165 C 562.1644 750.8366 561.5836 752.60575 562.2624 754.1047 L 563.28 756.352 C 563.4016 756.6205 563.5283 756.8866 563.6601 757.1502 L 565.4624 760.7547 L 567.9494 765.7287 C 568.2912 766.4123 568.6668 767.0784 569.07495 767.7246 L 571.40134 771.4081 C 571.8417 772.1053 572.3193 772.7784 572.83195 773.4244 L 576.24264 777.72185 C 576.7887 778.4099 577.3737 779.0661 577.9948 779.6872 L 582.66087 784.3532 C 583.06175 784.7541 583.4773 785.14 583.9067 785.5102 L 588.4702 789.4443 C 588.8649 789.7845 589.271 790.1112 589.68785 790.4238 L 593.6628 793.405 C 594.3287 793.9045 595.0212 794.3674 595.7373 794.7917 L 599.8704 797.241 C 599.9984 797.3168 600.1271 797.3914 600.25656 797.4648 L 604.9541 800.1267 C 605.6924 800.5451 606.4533 800.9223 607.23325 801.2565 L 610.7831 802.7779 C 611.369 803.029 611.9652 803.2557 612.57 803.4573 L 617.5881 805.13 C 618.8353 805.5457 620.1159 805.8538 621.4158 806.0507 L 625.51464 806.6717 C 625.87976 806.7271 626.24615 806.7736 626.6135 806.8113 L 633.4946 807.517 C 633.7398 807.5422 633.98534 807.5634 634.2312 807.5806 L 638.75835 807.8983 C 639.2942 807.9359 639.8312 807.9547 640.3684 807.9547 L 643.63046 807.9547 C 644.58416 807.9547 645.5369 807.8954 646.4833 807.7771 L 650.472 807.2785 C 651.13195 807.196 651.788 807.085 652.43835 806.9456 L 658.5204 805.6423 C 659.4143 805.4508 660.2959 805.2061 661.1607 804.9096 L 665.6695 803.3637 C 666.4642 803.0913 667.2433 802.7755 668.0034 802.4178 L 672.8368 800.1433 C 673.387 799.8843 673.9267 799.6037 674.4546 799.302 L 678.2225 797.149 C 678.9153 796.7531 679.587 796.3214 680.2349 795.8557 L 684.9111 792.4948 C 685.41175 792.1349 685.89776 791.755 686.3679 791.3561 L 691.6888 786.8414 C 692.0711 786.5171 692.4427 786.1803 692.803 785.8316 L 697.5022 781.284 C 698.1418 780.665 698.7449 780.0094 699.3085 779.3206 L 703.1018 774.6843 C 703.6085 774.065 704.0826 773.4197 704.522 772.751 L 708.1392 767.2466 C 708.3546 766.9187 708.5616 766.5854 708.76 766.247 L 711.2831 761.9429 C 711.6691 761.2845 712.022 760.60735 712.3406 759.9139 L 714.4593 755.3026 C 714.9922 754.14285 715.3633 752.9154 715.5624 751.6547 L 715.5624 751.6547 C 715.7407 750.5255 715.1614 749.412 714.1343 748.9099 L 708.8409 746.322 C 707.5264 745.6794 706.2918 744.8849 705.1624 743.9547 L 704.7564 743.6204 C 703.91205 742.925 703.28864 741.9987 702.9624 740.9547 L 702.9624 740.9547 C 702.9157 740.8054 702.7569 740.7222 702.60754 740.7689 C 702.4925 740.8048 702.4128 740.9097 702.4089 741.0302 L 702.2997 744.4531 C 702.2089 747.2962 701.5916 750.0978 700.479 752.7157 L 699.60206 754.779 C 699.0435 756.0933 698.3637 757.3527 697.5716 758.5409 L 693.8858 764.0696 C 693.1383 765.19085 692.2937 766.24425 691.36175 767.2176 L 685.0667 773.7925 C 684.1986 774.6991 683.2578 775.5332 682.2536 776.2863 L 673.8787 782.5675 C 673.0023 783.2248 672.08 783.8187 671.11896 784.3445 L 663.93376 788.2761 C 662.6226 788.9935 661.2447 789.5814 659.8195 790.0314 L 653.1466 792.1387 C 651.4297 792.6808 649.6551 793.0195 647.8593 793.1478 L 640.9728 793.6397 C 639.9005 793.7163 638.8242 793.7176 637.7517 793.64365 L 629.3154 793.0618 C 628.28125 792.9905 627.2531 792.8494 626.23795 792.6393 L 619.10274 791.1631 C 617.1508 790.7592 615.2596 790.10335 613.47676 789.2119 L 608.81735 786.8822 C 607.5832 786.2651 606.4071 785.5383 605.30326 784.7104 L 599.6213 780.4489 C 599.1822 780.1196 598.75496 779.7746 598.3405 779.4147 L 592.5853 774.4168 C 591.77104 773.7096 591.0075 772.9461 590.30036 772.1318 L 585.8951 767.0591 C 585.141 766.19075 584.4531 765.26705 583.8372 764.2958 L 580.1035 758.408 C 579.7429 757.8394 579.4075 757.2553 579.0982 756.6573 L 577.4778 753.5246 C 576.8687 752.3469 576.3625 751.1187 575.96497 749.85385 L 574.6847 745.7804 C 574.46995 745.097 574.2872 744.40395 574.1371 743.7035 L 573.9117 742.6516 C 573.82664 742.2546 574.053 741.8569 574.4378 741.7274 L 574.4378 741.7274 C 574.5103 741.703 574.58884 741.74195 574.61325 741.8144 C 574.63126 741.86795 574.615 741.927 574.5721 741.9638 Z" fill="url(#Obj_Gradient_2)"/>
      <path d="M 574.5721 741.9638 L 569.84295 746.0174 C 568.6926 747.0034 567.44764 747.8733 566.1262 748.6145 L 563.5996 750.03165 C 562.1644 750.8366 561.5836 752.60575 562.2624 754.1047 L 563.28 756.352 C 563.4016 756.6205 563.5283 756.8866 563.6601 757.1502 L 565.4624 760.7547 L 567.9494 765.7287 C 568.2912 766.4123 568.6668 767.0784 569.07495 767.7246 L 571.40134 771.4081 C 571.8417 772.1053 572.3193 772.7784 572.83195 773.4244 L 576.24264 777.72185 C 576.7887 778.4099 577.3737 779.0661 577.9948 779.6872 L 582.66087 784.3532 C 583.06175 784.7541 583.4773 785.14 583.9067 785.5102 L 588.4702 789.4443 C 588.8649 789.7845 589.271 790.1112 589.68785 790.4238 L 593.6628 793.405 C 594.3287 793.9045 595.0212 794.3674 595.7373 794.7917 L 599.8704 797.241 C 599.9984 797.3168 600.1271 797.3914 600.25656 797.4648 L 604.9541 800.1267 C 605.6924 800.5451 606.4533 800.9223 607.23325 801.2565 L 610.7831 802.7779 C 611.369 803.029 611.9652 803.2557 612.57 803.4573 L 617.5881 805.13 C 618.8353 805.5457 620.1159 805.8538 621.4158 806.0507 L 625.51464 806.6717 C 625.87976 806.7271 626.24615 806.7736 626.6135 806.8113 L 633.4946 807.517 C 633.7398 807.5422 633.98534 807.5634 634.2312 807.5806 L 638.75835 807.8983 C 639.2942 807.9359 639.8312 807.9547 640.3684 807.9547 L 643.63046 807.9547 C 644.58416 807.9547 645.5369 807.8954 646.4833 807.7771 L 650.472 807.2785 C 651.13195 807.196 651.788 807.085 652.43835 806.9456 L 658.5204 805.6423 C 659.4143 805.4508 660.2959 805.2061 661.1607 804.9096 L 665.6695 803.3637 C 666.4642 803.0913 667.2433 802.7755 668.0034 802.4178 L 672.8368 800.1433 C 673.387 799.8843 673.9267 799.6037 674.4546 799.302 L 678.2225 797.149 C 678.9153 796.7531 679.587 796.3214 680.2349 795.8557 L 684.9111 792.4948 C 685.41175 792.1349 685.89776 791.755 686.3679 791.3561 L 691.6888 786.8414 C 692.0711 786.5171 692.4427 786.1803 692.803 785.8316 L 697.5022 781.284 C 698.1418 780.665 698.7449 780.0094 699.3085 779.3206 L 703.1018 774.6843 C 703.6085 774.065 704.0826 773.4197 704.522 772.751 L 708.1392 767.2466 C 708.3546 766.9187 708.5616 766.5854 708.76 766.247 L 711.2831 761.9429 C 711.6691 761.2845 712.022 760.60735 712.3406 759.9139 L 714.4593 755.3026 C 714.9922 754.14285 715.3633 752.9154 715.5624 751.6547 L 715.5624 751.6547 C 715.7407 750.5255 715.1614 749.412 714.1343 748.9099 L 708.8409 746.322 C 707.5264 745.6794 706.2918 744.8849 705.1624 743.9547 L 704.7564 743.6204 C 703.91205 742.925 703.28864 741.9987 702.9624 740.9547 L 702.9624 740.9547 C 702.9157 740.8054 702.7569 740.7222 702.60754 740.7689 C 702.4925 740.8048 702.4128 740.9097 702.4089 741.0302 L 702.2997 744.4531 C 702.2089 747.2962 701.5916 750.0978 700.479 752.7157 L 699.60206 754.779 C 699.0435 756.0933 698.3637 757.3527 697.5716 758.5409 L 693.8858 764.0696 C 693.1383 765.19085 692.2937 766.24425 691.36175 767.2176 L 685.0667 773.7925 C 684.1986 774.6991 683.2578 775.5332 682.2536 776.2863 L 673.8787 782.5675 C 673.0023 783.2248 672.08 783.8187 671.11896 784.3445 L 663.93376 788.2761 C 662.6226 788.9935 661.2447 789.5814 659.8195 790.0314 L 653.1466 792.1387 C 651.4297 792.6808 649.6551 793.0195 647.8593 793.1478 L 640.9728 793.6397 C 639.9005 793.7163 638.8242 793.7176 637.7517 793.64365 L 629.3154 793.0618 C 628.28125 792.9905 627.2531 792.8494 626.23795 792.6393 L 619.10274 791.1631 C 617.1508 790.7592 615.2596 790.10335 613.47676 789.2119 L 608.81735 786.8822 C 607.5832 786.2651 606.4071 785.5383 605.30326 784.7104 L 599.6213 780.4489 C 599.1822 780.1196 598.75496 779.7746 598.3405 779.4147 L 592.5853 774.4168 C 591.77104 773.7096 591.0075 772.9461 590.30036 772.1318 L 585.8951 767.0591 C 585.141 766.19075 584.4531 765.26705 583.8372 764.2958 L 580.1035 758.408 C 579.7429 757.8394 579.4075 757.2553 579.0982 756.6573 L 577.4778 753.5246 C 576.8687 752.3469 576.3625 751.1187 575.96497 749.85385 L 574.6847 745.7804 C 574.46995 745.097 574.2872 744.40395 574.1371 743.7035 L 573.9117 742.6516 C 573.82664 742.2546 574.053 741.8569 574.4378 741.7274 L 574.4378 741.7274 C 574.5103 741.703 574.58884 741.74195 574.61325 741.8144 C 574.63126 741.86795 574.615 741.927 574.5721 741.9638 Z" stroke="#7f8080" stroke-linecap="round" stroke-linejoin="round" stroke-width="1"/>
      <path d="M 574.05925 741.7559 L 579.45925 741.1559 L 586.25925 744.5559 L 591.25925 746.3559 L 599.65925 748.1559 L 608.05925 749.1559 L 616.05925 750.1559 L 623.65925 750.3559 L 632.25925 750.7559 L 643.85925 750.5559 L 652.25925 750.1559 L 661.65925 749.5559 L 670.05925 748.7559 L 679.25925 747.3559 L 687.45925 745.1559 L 693.25925 743.3559 L 698.85925 740.7559 L 701.65925 741.9559 L 702.05925 747.5559 L 699.25925 755.5559 L 693.85925 758.3559 L 683.25925 761.5559 L 671.85925 763.9559 L 660.65925 764.7559 L 648.25925 765.7559 L 637.85925 765.7559 L 628.45925 765.7559 L 616.85925 765.1559 L 605.65925 764.3559 L 595.05925 762.1559 L 586.45925 760.1559 L 580.25925 757.3559 L 578.25925 755.7559 L 575.05925 748.1559 Z" fill="url(#Obj_Gradient_3)"/>
      <path d="M 574.05925 741.7559 L 579.45925 741.1559 L 586.25925 744.5559 L 591.25925 746.3559 L 599.65925 748.1559 L 608.05925 749.1559 L 616.05925 750.1559 L 623.65925 750.3559 L 632.25925 750.7559 L 643.85925 750.5559 L 652.25925 750.1559 L 661.65925 749.5559 L 670.05925 748.7559 L 679.25925 747.3559 L 687.45925 745.1559 L 693.25925 743.3559 L 698.85925 740.7559 L 701.65925 741.9559 L 702.05925 747.5559 L 699.25925 755.5559 L 693.85925 758.3559 L 683.25925 761.5559 L 671.85925 763.9559 L 660.65925 764.7559 L 648.25925 765.7559 L 637.85925 765.7559 L 628.45925 765.7559 L 616.85925 765.1559 L 605.65925 764.3559 L 595.05925 762.1559 L 586.45925 760.1559 L 580.25925 757.3559 L 578.25925 755.7559 L 575.05925 748.1559 Z" stroke="#7f8080" stroke-linecap="round" stroke-linejoin="round" stroke-width="1"/>
      <path d="M 503.8132 1167.2 L 503.8132 1167.2 C 503.7475 1167.7255 503.81036 1168.259 503.9963 1168.7549 L 504.6473 1170.4909 C 504.82406 1170.9623 505.05115 1171.4132 505.3246 1171.8358 L 506.29243 1173.3315 C 506.8334 1174.1676 507.5465 1174.8785 508.3841 1175.417 L 509.4622 1176.11 C 509.7624 1176.3031 510.077 1176.4728 510.40316 1176.6179 L 511.72 1177.2035 C 512.31654 1177.4688 512.94725 1177.6493 513.5938 1177.7398 L 522.6042 1179.0013 C 522.6142 1179.0027 522.6242 1179.004 522.6342 1179.0054 L 534.3502 1180.594 C 534.3962 1180.6002 534.44226 1180.606 534.4884 1180.6113 L 544.7713 1181.7978 C 544.80324 1181.8015 544.8352 1181.805 544.86716 1181.8082 L 558.5772 1183.1991 C 558.6052 1183.202 558.6332 1183.2046 558.6612 1183.2071 L 569.7665 1184.1987 C 569.80164 1184.2018 569.8368 1184.2047 569.87195 1184.2073 L 580.5585 1184.9989 C 580.59896 1185.0019 580.6395 1185.0045 580.68 1185.0068 L 591.188 1185.6016 C 591.2088 1185.6028 591.2296 1185.604 591.2504 1185.6054 L 603.2932 1186.3951 C 603.3772 1186.4006 603.4613 1186.4046 603.5454 1186.407 L 616.99256 1186.8026 C 617.0103 1186.8031 617.0281 1186.8037 617.04585 1186.8043 L 627.6897 1187.1986 C 627.776 1187.2018 627.8624 1187.2034 627.9488 1187.2034 L 638.5578 1187.2034 C 638.59874 1187.2034 638.6397 1187.2037 638.6806 1187.2044 L 649.767 1187.399 C 649.9351 1187.4019 650.1032 1187.3988 650.27106 1187.3896 L 660.8923 1186.8103 C 660.9769 1186.8057 661.0616 1186.8026 661.1463 1186.801 L 671.91085 1186.6053 C 671.9831 1186.604 672.0553 1186.6016 672.12745 1186.598 L 684.1461 1186.007 C 684.1948 1186.0046 684.24355 1186.0016 684.29225 1185.9982 L 695.5323 1185.2095 C 695.5902 1185.2054 695.6481 1185.2006 695.7059 1185.1951 L 708.1165 1184.0131 C 708.185 1184.0066 708.2535 1184.0011 708.32214 1183.9966 L 720.2542 1183.2142 C 720.3642 1183.207 720.474 1183.1972 720.58355 1183.1847 L 730.9959 1182.006 C 731.0114 1182.0042 731.027 1182.0024 731.0425 1182.0006 L 740.9902 1180.8068 C 741.0095 1180.8045 741.0289 1180.8021 741.0482 1180.7996 L 754.8839 1179.0221 C 754.98115 1179.0096 755.0781 1178.9951 755.1747 1178.9785 L 761.7282 1177.855 C 761.92915 1177.8206 762.1315 1177.795 762.3347 1177.7782 L 765.5671 1177.5112 C 766.4563 1177.4377 767.3233 1177.195 768.1214 1176.796 L 769.60765 1176.0528 C 770.2082 1175.7525 770.7625 1175.3674 771.2534 1174.9092 L 772.5885 1173.6631 C 773.1953 1173.0967 773.6507 1172.3875 773.9132 1171.6 L 774.208 1170.7155 C 774.2781 1170.5053 774.3382 1170.2919 774.388 1170.076 L 774.8577 1168.0406 C 774.8929 1167.8879 774.8595 1167.7275 774.7662 1167.6017 L 774.7662 1167.6017 C 774.6759 1167.4798 774.5252 1167.4183 774.3754 1167.4421 L 765.89555 1168.7912 C 765.8447 1168.7993 765.7939 1168.808 765.74315 1168.8172 L 752.7584 1171.178 C 752.6656 1171.1949 752.5725 1171.2099 752.4791 1171.223 L 741.2494 1172.7991 C 741.2293 1172.802 741.20914 1172.8049 741.189 1172.8079 L 728.0664 1174.7665 C 727.9017 1174.791 727.7361 1174.8097 727.57 1174.8225 L 714.8452 1175.8014 C 714.8279 1175.8027 714.81055 1175.804 714.7932 1175.8052 L 700.4531 1176.801 C 700.4305 1176.8026 700.4079 1176.804 700.3853 1176.8054 L 687.08205 1177.5996 C 687.04016 1177.6021 686.9982 1177.6042 686.9563 1177.606 L 672.76485 1178.1973 C 672.6678 1178.2013 672.5706 1178.2034 672.4734 1178.2034 L 659.2192 1178.2034 L 646.6775 1178.2034 C 646.63865 1178.2034 646.5998 1178.2037 646.5609 1178.2043 L 634.8025 1178.4003 C 634.6803 1178.4023 634.5581 1178.4012 634.436 1178.3968 L 623.6024 1178.0099 C 623.4803 1178.0055 623.3581 1178.0044 623.2359 1178.0064 L 611.5213 1178.2017 C 611.4532 1178.2028 611.3852 1178.2029 611.3171 1178.2021 L 595.61484 1178.0058 C 595.48444 1178.0042 595.3541 1177.9989 595.224 1177.99 L 580.9142 1177.0099 C 580.8509 1177.0055 580.7876 1177.0003 580.7244 1176.9943 L 566.2334 1175.6047 C 566.2239 1175.6038 566.2145 1175.6029 566.205 1175.602 L 552.393 1174.2207 C 552.27715 1174.2091 552.1616 1174.1947 552.0465 1174.1773 L 537.73735 1172.0212 C 537.6586 1172.0093 537.57964 1171.9988 537.5005 1171.9896 L 523.9806 1170.422 C 523.873 1170.4096 523.76574 1170.3946 523.65886 1170.3772 L 514.2668 1168.8438 C 514.1018 1168.8168 513.9378 1168.784 513.77516 1168.7453 L 504.69756 1166.5865 C 504.30925 1166.4942 503.9196 1166.7341 503.82724 1167.1224 C 503.82116 1167.148 503.8165 1167.1739 503.8132 1167.2 Z" fill="url(#Obj_Gradient_4)"/>
      <path d="M 503.8132 1167.2 L 503.8132 1167.2 C 503.7475 1167.7255 503.81036 1168.259 503.9963 1168.7549 L 504.6473 1170.4909 C 504.82406 1170.9623 505.05115 1171.4132 505.3246 1171.8358 L 506.29243 1173.3315 C 506.8334 1174.1676 507.5465 1174.8785 508.3841 1175.417 L 509.4622 1176.11 C 509.7624 1176.3031 510.077 1176.4728 510.40316 1176.6179 L 511.72 1177.2035 C 512.31654 1177.4688 512.94725 1177.6493 513.5938 1177.7398 L 522.6042 1179.0013 C 522.6142 1179.0027 522.6242 1179.004 522.6342 1179.0054 L 534.3502 1180.594 C 534.3962 1180.6002 534.44226 1180.606 534.4884 1180.6113 L 544.7713 1181.7978 C 544.80324 1181.8015 544.8352 1181.805 544.86716 1181.8082 L 558.5772 1183.1991 C 558.6052 1183.202 558.6332 1183.2046 558.6612 1183.2071 L 569.7665 1184.1987 C 569.80164 1184.2018 569.8368 1184.2047 569.87195 1184.2073 L 580.5585 1184.9989 C 580.59896 1185.0019 580.6395 1185.0045 580.68 1185.0068 L 591.188 1185.6016 C 591.2088 1185.6028 591.2296 1185.604 591.2504 1185.6054 L 603.2932 1186.3951 C 603.3772 1186.4006 603.4613 1186.4046 603.5454 1186.407 L 616.99256 1186.8026 C 617.0103 1186.8031 617.0281 1186.8037 617.04585 1186.8043 L 627.6897 1187.1986 C 627.776 1187.2018 627.8624 1187.2034 627.9488 1187.2034 L 638.5578 1187.2034 C 638.59874 1187.2034 638.6397 1187.2037 638.6806 1187.2044 L 649.767 1187.399 C 649.9351 1187.4019 650.1032 1187.3988 650.27106 1187.3896 L 660.8923 1186.8103 C 660.9769 1186.8057 661.0616 1186.8026 661.1463 1186.801 L 671.91085 1186.6053 C 671.9831 1186.604 672.0553 1186.6016 672.12745 1186.598 L 684.1461 1186.007 C 684.1948 1186.0046 684.24355 1186.0016 684.29225 1185.9982 L 695.5323 1185.2095 C 695.5902 1185.2054 695.6481 1185.2006 695.7059 1185.1951 L 708.1165 1184.0131 C 708.185 1184.0066 708.2535 1184.0011 708.32214 1183.9966 L 720.2542 1183.2142 C 720.3642 1183.207 720.474 1183.1972 720.58355 1183.1847 L 730.9959 1182.006 C 731.0114 1182.0042 731.027 1182.0024 731.0425 1182.0006 L 740.9902 1180.8068 C 741.0095 1180.8045 741.0289 1180.8021 741.0482 1180.7996 L 754.8839 1179.0221 C 754.98115 1179.0096 755.0781 1178.9951 755.1747 1178.9785 L 761.7282 1177.855 C 761.92915 1177.8206 762.1315 1177.795 762.3347 1177.7782 L 765.5671 1177.5112 C 766.4563 1177.4377 767.3233 1177.195 768.1214 1176.796 L 769.60765 1176.0528 C 770.2082 1175.7525 770.7625 1175.3674 771.2534 1174.9092 L 772.5885 1173.6631 C 773.1953 1173.0967 773.6507 1172.3875 773.9132 1171.6 L 774.208 1170.7155 C 774.2781 1170.5053 774.3382 1170.2919 774.388 1170.076 L 774.8577 1168.0406 C 774.8929 1167.8879 774.8595 1167.7275 774.7662 1167.6017 L 774.7662 1167.6017 C 774.6759 1167.4798 774.5252 1167.4183 774.3754 1167.4421 L 765.89555 1168.7912 C 765.8447 1168.7993 765.7939 1168.808 765.74315 1168.8172 L 752.7584 1171.178 C 752.6656 1171.1949 752.5725 1171.2099 752.4791 1171.223 L 741.2494 1172.7991 C 741.2293 1172.802 741.20914 1172.8049 741.189 1172.8079 L 728.0664 1174.7665 C 727.9017 1174.791 727.7361 1174.8097 727.57 1174.8225 L 714.8452 1175.8014 C 714.8279 1175.8027 714.81055 1175.804 714.7932 1175.8052 L 700.4531 1176.801 C 700.4305 1176.8026 700.4079 1176.804 700.3853 1176.8054 L 687.08205 1177.5996 C 687.04016 1177.6021 686.9982 1177.6042 686.9563 1177.606 L 672.76485 1178.1973 C 672.6678 1178.2013 672.5706 1178.2034 672.4734 1178.2034 L 659.2192 1178.2034 L 646.6775 1178.2034 C 646.63865 1178.2034 646.5998 1178.2037 646.5609 1178.2043 L 634.8025 1178.4003 C 634.6803 1178.4023 634.5581 1178.4012 634.436 1178.3968 L 623.6024 1178.0099 C 623.4803 1178.0055 623.3581 1178.0044 623.2359 1178.0064 L 611.5213 1178.2017 C 611.4532 1178.2028 611.3852 1178.2029 611.3171 1178.2021 L 595.61484 1178.0058 C 595.48444 1178.0042 595.3541 1177.9989 595.224 1177.99 L 580.9142 1177.0099 C 580.8509 1177.0055 580.7876 1177.0003 580.7244 1176.9943 L 566.2334 1175.6047 C 566.2239 1175.6038 566.2145 1175.6029 566.205 1175.602 L 552.393 1174.2207 C 552.27715 1174.2091 552.1616 1174.1947 552.0465 1174.1773 L 537.73735 1172.0212 C 537.6586 1172.0093 537.57964 1171.9988 537.5005 1171.9896 L 523.9806 1170.422 C 523.873 1170.4096 523.76574 1170.3946 523.65886 1170.3772 L 514.2668 1168.8438 C 514.1018 1168.8168 513.9378 1168.784 513.77516 1168.7453 L 504.69756 1166.5865 C 504.30925 1166.4942 503.9196 1166.7341 503.82724 1167.1224 C 503.82116 1167.148 503.8165 1167.1739 503.8132 1167.2 Z" stroke="#7f8080" stroke-linecap="round" stroke-linejoin="round" stroke-width="1"/>
      <path d="M 505.5 839.5 L 774 838.5 L 769.5 851.5 L 768 864 L 765.5 878.5 L 764 889.5 L 763.5 898.5 L 515 899.5 L 515 890.5 L 514.5 881 L 513 870 L 513 869 L 511.5 861.5 L 508.5 850 L 507.5 844 Z" fill="black"/>
      <path d="M 505.5 839.5 L 774 838.5 L 769.5 851.5 L 768 864 L 765.5 878.5 L 764 889.5 L 763.5 898.5 L 515 899.5 L 515 890.5 L 514.5 881 L 513 870 L 513 869 L 511.5 861.5 L 508.5 850 L 507.5 844 Z" stroke="#7f8080" stroke-linecap="round" stroke-linejoin="round" stroke-width="1"/>
      <path d="M 518.7004 1071.963 L 764.5 1069 L 766 1088.5 L 767.5 1110 L 768.5 1123.5 L 768 1126 L 511 1126.863 L 511.96255 1108.563 L 513.88764 1090.263 L 514.8502 1071.963 Z" fill="black"/>
      <path d="M 518.7004 1071.963 L 764.5 1069 L 766 1088.5 L 767.5 1110 L 768.5 1123.5 L 768 1126 L 511 1126.863 L 511.96255 1108.563 L 513.88764 1090.263 L 514.8502 1071.963 Z" stroke="#7f8080" stroke-linecap="round" stroke-linejoin="round" stroke-width="1"/>
      <path d="M 518.5 961.7213 L 761.5061 960.3002 L 761.5061 977.993 L 762.5 1001.5836 L 762.5 1012.5363 L 517 1014.2213 L 517.9939 992.3159 L 518.98785 974.623 Z" fill="black"/>
      <path d="M 518.5 961.7213 L 761.5061 960.3002 L 761.5061 977.993 L 762.5 1001.5836 L 762.5 1012.5363 L 517 1014.2213 L 517.9939 992.3159 L 518.98785 974.623 Z" stroke="#7f8080" stroke-linecap="round" stroke-linejoin="round" stroke-width="1"/>
      <path d="M 763 900 L 849 869 L 835 836 L 826 820 L 773 839 Z" fill="black"/>
      <path d="M 763 900 L 849 869 L 835 836 L 826 820 L 773 839 Z" stroke="#7f8080" stroke-linecap="round" stroke-linejoin="round" stroke-width="1"/>
      <path d="M 515.4 900 L 431 869 L 446 835 L 452.4 820 L 505.4 839 L 513 870 Z" fill="black"/>
      <path d="M 515.4 900 L 431 869 L 446 835 L 452.4 820 L 505.4 839 L 513 870 Z" stroke="#7f8080" stroke-linecap="round" stroke-linejoin="round" stroke-width="1"/>
      <path d="M 480 785 L 580 784 L 570 770 L 565 761 L 561 752 L 540 760 L 522 766 L 501 772 L 487 778 Z" fill="black"/>
      <path d="M 480 785 L 580 784 L 570 770 L 565 761 L 561 752 L 540 760 L 522 766 L 501 772 L 487 778 Z" stroke="#7f8080" stroke-linecap="round" stroke-linejoin="round" stroke-width="1"/>
      <path d="M 799.219 785 L 696 784 L 707 770 L 712 759 L 716 752 L 739.219 760 L 757.219 766 L 778.219 772 L 792.219 778 Z" fill="black"/>
      <path d="M 799.219 785 L 696 784 L 707 770 L 712 759 L 716 752 L 739.219 760 L 757.219 766 L 778.219 772 L 792.219 778 Z" stroke="#7f8080" stroke-linecap="round" stroke-linejoin="round" stroke-width="1"/>
    </g>
  </g>
</svg>
