<?xml version="1.0" encoding="UTF-8" standalone="no"?>
<!DOCTYPE svg PUBLIC "-//W3C//DTD SVG 1.1//EN" "http://www.w3.org/Graphics/SVG/1.1/DTD/svg11.dtd">
<svg xmlns:xl="http://www.w3.org/1999/xlink" xmlns:dc="http://purl.org/dc/elements/1.1/" xmlns="http://www.w3.org/2000/svg" version="1.1" viewBox="-142 441 275 444" width="275" height="444">
  <defs>
    <linearGradient x1="0" x2="1" id="Gradient" gradientUnits="userSpaceOnUse">
      <stop offset="0" stop-color="#6d9ce7"/>
      <stop offset="1" stop-color="#333"/>
    </linearGradient>
    <linearGradient id="Obj_Gradient" xl:href="#Gradient" gradientTransform="translate(-7.550109 452) rotate(90) scale(81.8)"/>
    <linearGradient x1="0" x2="1" id="Gradient_2" gradientUnits="userSpaceOnUse">
      <stop offset="0" stop-color="#fffbf8"/>
      <stop offset=".75625" stop-color="#ea93aa"/>
      <stop offset="1" stop-color="#d3194f"/>
    </linearGradient>
    <linearGradient id="Obj_Gradient_2" xl:href="#Gradient_2" gradientTransform="translate(-4.499998 442.7501) rotate(90) scale(440.65914)"/>
  </defs>
  <metadata> Produced by OmniGraffle 7.19.2\n2023-11-19 19:03:34 +0000</metadata>
  <g id="Houston_Rockets" stroke-opacity="1" fill-opacity="1" stroke-dasharray="none" fill="none" stroke="none">
    <title>Houston Rockets</title>
    <g id="Houston_Rockets_Layer_1">
      <title>Layer 1</title>
      <g id="Graphic_15">
        <path d="M -56.3 452 L -11.899998 459.8 L 14.900003 461.2 L 43.700003 453.6 L 45.39978 516 L .39977977 533.8 L -51.20022 525.2 L -49.3 496.8 L -54.3 479.8 L -60.5 468.6 Z" fill="url(#Obj_Gradient)"/>
        <path d="M -56.3 452 L -11.899998 459.8 L 14.900003 461.2 L 43.700003 453.6 L 45.39978 516 L .39977977 533.8 L -51.20022 525.2 L -49.3 496.8 L -54.3 479.8 L -60.5 468.6 Z" stroke="black" stroke-linecap="round" stroke-linejoin="round" stroke-width="1"/>
      </g>
      <g id="Graphic_14">
        <path d="M -140.08595 871.7616 L -117.01719 875.6064 C -117.00573 875.6083 -116.99424 875.61 -116.98272 875.6115 L -88.02311 879.4062 C -88.00771 879.4082 -87.99225 879.4099 -87.97677 879.4112 L -57.02409 882.0072 C -57.00803 882.0086 -56.991944 882.0095 -56.97584 882.0101 L -17.417658 883.4086 C -17.405886 883.409 -17.394107 883.4092 -17.382327 883.4092 L 14.584381 883.4092 C 14.594795 883.4092 14.605207 883.4091 14.615616 883.4088 L 40.18029 882.6099 C 40.19343 882.6095 40.20656 882.6088 40.219675 882.6079 L 62.78516 881.0103 C 62.795055 881.0096 62.80494 881.0087 62.81481 881.0078 L 88.58109 878.4112 C 88.5937 878.4099 88.60628 878.4084 88.61883 878.4066 L 112.98088 875.0119 C 112.99363 875.0101 113.00634 875.0081 113.01901 875.0058 L 131.06705 871.7762 C 131.5902 871.6826 131.94874 871.1961 131.8833 870.6687 L 128.60025 844.2112 C 128.60009 844.2099 128.59992 844.2086 128.59976 844.2072 L 125.00203 814.2261 C 125.00068 814.2149 124.99952 814.2036 124.99856 814.1923 L 122.60092 786.2199 C 122.60031 786.2128 122.59978 786.2057 122.59932 786.1986 L 121.20016 764.4116 C 121.20005 764.41 121.19995 764.4085 121.19984 764.4069 L 119.60033 741.214 C 119.60011 741.2108 119.59991 741.2077 119.59972 741.2045 L 118.4012 721.02936 C 118.4004 721.01595 118.39988 721.0025 118.39962 720.9891 L 118.0001 700.0144 C 118.00004 700.011 117.99995 700.0075 117.99985 700.0041 L 117.40016 679.6144 C 117.40005 679.611 117.39997 679.6075 117.3999 679.6041 L 117.00049 658.6347 C 117.00017 658.6177 117.00027 658.60075 117.00082 658.5838 L 117.59994 639.8113 C 117.59998 639.8099 117.60003 639.80856 117.60008 639.8072 L 118.39735 617.683 C 118.39912 617.6339 118.4045 617.585 118.41347 617.53665 L 121.22885 602.3583 C 121.22987 602.35284 121.23084 602.3474 121.23176 602.3419 L 122.32413 595.8509 C 122.37231 595.56455 122.29367 595.2714 122.10864 595.04765 L 113.9651 585.19966 C 113.85683 585.0687 113.7837 584.91234 113.75262 584.7453 L 112.23103 576.5667 C 112.21049 576.4564 112.17152 576.35025 112.11575 576.2528 L 96.54067 549.0457 C 96.4487 548.88507 96.40313 548.70203 96.40904 548.517 L 97.59908 511.2291 C 97.5997 511.2097 97.59975 511.1903 97.59924 511.1709 L 97.20086 496.0324 C 97.20029 496.0108 97.20042 495.9892 97.20125 495.96764 L 97.5968 485.6834 C 97.59893 485.6279 97.60569 485.57266 97.617 485.51827 L 100.21637 473.01743 C 100.2257 472.9726 100.23193 472.9272 100.23503 472.8815 L 100.95231 462.3034 C 100.98091 461.8816 100.74117 461.4874 100.3535 461.31876 L 91.28122 457.3722 C 91.24735 457.3575 91.21269 457.34464 91.17739 457.33374 L 77.64737 453.15535 C 77.63604 453.15186 77.62465 453.14856 77.6132 453.14546 L 62.84287 449.1535 C 62.83454 449.15123 62.82624 449.14887 62.81797 449.1464 L 51.442524 445.75373 C 51.434423 445.7513 51.42629 445.749 51.418134 445.7468 L 42.952 443.4539 C 42.41892 443.3095 41.869734 443.6246 41.72536 444.1577 C 41.712315 444.20585 41.702894 444.2549 41.697175 444.3045 L 41.230946 448.34514 C 41.230564 448.34845 41.2302 448.35176 41.22985 448.3551 L 40.835867 452.0979 C 40.832207 452.1327 40.830373 452.1676 40.830373 452.2026 L 40.830373 455.4638 C 40.830373 455.52123 40.825425 455.57855 40.815584 455.63514 L 40.041736 460.08477 C 40.03417 460.1283 40.02949 460.17224 40.027737 460.21637 L 39.41095 475.72484 C 39.403786 475.9049 39.348085 476.07973 39.249736 476.23077 L 33.867 484.4971 C 33.822504 484.56545 33.769815 484.6281 33.710108 484.6836 L 25.224898 492.57684 C 25.208307 492.5923 25.191197 492.60714 25.173596 492.6214 L 17.908043 498.5124 C 17.836362 498.5705 17.756981 498.61844 17.67216 498.6548 L 9.597551 502.11534 C 9.46734 502.17114 9.326758 502.19864 9.185116 502.196 L -1.3791125 502.0004 C -1.3930332 502.0001 -1.4069579 502.00016 -1.4208773 502.0005 L -9.86204 502.1968 C -9.953577 502.1989 -10.044973 502.18847 -10.133665 502.1657 L -17.724262 500.2194 C -17.774675 500.2065 -17.82602 500.1975 -17.877828 500.1926 L -25.926922 499.426 C -26.10567 499.409 -26.276537 499.34415 -26.421582 499.2383 L -33.485285 494.0837 C -33.561377 494.0282 -33.629243 493.9622 -33.68687 493.88767 L -45.12791 479.0932 C -45.1758 479.0313 -45.216256 478.96395 -45.24844 478.8926 L -49.683895 469.05744 C -49.75981 468.8891 -49.787634 468.70304 -49.76428 468.51986 L -48.58711 459.2872 C -48.57551 459.19624 -48.57648 459.1041 -48.58999 459.0134 L -49.95872 449.82336 C -49.96598 449.7746 -49.96963 449.72535 -49.96963 449.67605 L -49.96963 444.1126 C -49.96963 443.56033 -50.417344 443.1126 -50.96963 443.1126 C -51.07133 443.1126 -51.172434 443.12813 -51.269455 443.1586 L -56.96794 444.9496 C -56.969066 444.94993 -56.97019 444.9503 -56.971316 444.95064 L -65.76884 447.74986 C -65.76937 447.75 -65.76989 447.7502 -65.770415 447.75036 L -75.74512 450.94226 C -75.76146 450.9475 -75.77792 450.9523 -75.79451 450.9567 L -86.35871 453.7472 C -86.36599 453.74914 -86.37325 453.75115 -86.38048 453.75324 L -96.75904 456.74705 C -96.7661 456.7491 -96.77314 456.7512 -96.78015 456.7534 L -102.97512 458.6893 C -103.10347 458.72943 -103.22242 458.795 -103.32484 458.88216 L -108.01564 462.873 C -108.25736 463.07865 -108.38711 463.38683 -108.36528 463.70344 L -108.00213 468.9691 C -108.00071 468.9897 -107.99865 469.01025 -107.99595 469.03073 L -107.00854 476.53505 C -107.00285 476.5783 -107 476.6219 -107 476.6655 L -107 483.7428 C -107 483.7809 -106.99782 483.81897 -106.99348 483.8568 L -105.6092 495.9198 C -105.60308 495.9732 -105.60126 496.02697 -105.60378 496.08063 L -106.19633 508.72185 C -106.19877 508.7739 -106.19714 508.826 -106.19146 508.8778 L -104.43096 524.9179 C -104.41072 525.1023 -104.44219 525.28875 -104.52186 525.45633 L -110.12212 537.2362 C -110.17362 537.3445 -110.20521 537.4612 -110.21538 537.58074 L -110.98451 546.6181 C -110.99475 546.73836 -111.02669 546.8558 -111.07878 546.9647 L -115.3496 555.8946 C -115.38309 555.96464 -115.4083 556.0383 -115.42475 556.11415 L -118.96382 572.4332 C -118.98777 572.5436 -119.03025 572.64915 -119.08946 572.7454 L -126.85983 585.3717 C -126.93224 585.48936 -126.97949 585.62075 -126.99858 585.7576 L -128.3915 595.7391 C -128.39716 595.7797 -128.40032 595.8205 -128.40097 595.8615 L -128.59924 608.36114 C -128.59975 608.3932 -128.59871 608.42524 -128.59614 608.4572 L -127.20322 625.7692 C -127.20107 625.7959 -127.2 625.82264 -127.2 625.8494 L -127.2 639.19 C -127.2 639.2028 -127.19975 639.21565 -127.19926 639.22845 L -126.60049 654.7965 C -126.60016 654.805 -126.59994 654.8135 -126.59983 654.822 L -126.40032 670.1842 C -126.40011 670.2009 -126.40031 670.2176 -126.40093 670.2342 L -126.99931 686.39074 C -126.99977 686.4031 -127 686.4154 -127 686.42775 L -127 700.59 C -127 700.6028 -127.00025 700.61565 -127.00074 700.62845 L -127.59981 716.2044 C -127.59994 716.2076 -127.60008 716.2109 -127.60023 716.2141 L -128.39994 732.808 C -128.39998 732.8088 -128.40002 732.80965 -128.40006 732.8105 L -129.19972 748.6037 C -129.1999 748.6074 -129.20011 748.6111 -129.20035 748.6148 L -130.39965 768.0036 C -130.39988 768.0074 -130.40014 768.0111 -130.40041 768.0149 L -132.19936 792.6005 C -132.19979 792.6063 -132.20027 792.6122 -132.2008 792.618 L -133.99992 812.4083 C -133.99997 812.4089 -134.00003 812.4096 -134.00009 812.4102 L -135.79657 831.7723 C -135.79886 831.7969 -135.80205 831.8214 -135.80615 831.8458 L -137.16896 839.9461 C -137.1694 839.9488 -137.16986 839.9514 -137.17033 839.9541 L -139.19254 851.4065 C -139.19751 851.4346 -139.20127 851.4629 -139.20381 851.4914 L -140.9176 870.6863 C -140.96408 871.207 -140.60164 871.6756 -140.08595 871.7616 Z" fill="url(#Obj_Gradient_2)"/>
        <path d="M -140.08595 871.7616 L -117.01719 875.6064 C -117.00573 875.6083 -116.99424 875.61 -116.98272 875.6115 L -88.02311 879.4062 C -88.00771 879.4082 -87.99225 879.4099 -87.97677 879.4112 L -57.02409 882.0072 C -57.00803 882.0086 -56.991944 882.0095 -56.97584 882.0101 L -17.417658 883.4086 C -17.405886 883.409 -17.394107 883.4092 -17.382327 883.4092 L 14.584381 883.4092 C 14.594795 883.4092 14.605207 883.4091 14.615616 883.4088 L 40.18029 882.6099 C 40.19343 882.6095 40.20656 882.6088 40.219675 882.6079 L 62.78516 881.0103 C 62.795055 881.0096 62.80494 881.0087 62.81481 881.0078 L 88.58109 878.4112 C 88.5937 878.4099 88.60628 878.4084 88.61883 878.4066 L 112.98088 875.0119 C 112.99363 875.0101 113.00634 875.0081 113.01901 875.0058 L 131.06705 871.7762 C 131.5902 871.6826 131.94874 871.1961 131.8833 870.6687 L 128.60025 844.2112 C 128.60009 844.2099 128.59992 844.2086 128.59976 844.2072 L 125.00203 814.2261 C 125.00068 814.2149 124.99952 814.2036 124.99856 814.1923 L 122.60092 786.2199 C 122.60031 786.2128 122.59978 786.2057 122.59932 786.1986 L 121.20016 764.4116 C 121.20005 764.41 121.19995 764.4085 121.19984 764.4069 L 119.60033 741.214 C 119.60011 741.2108 119.59991 741.2077 119.59972 741.2045 L 118.4012 721.02936 C 118.4004 721.01595 118.39988 721.0025 118.39962 720.9891 L 118.0001 700.0144 C 118.00004 700.011 117.99995 700.0075 117.99985 700.0041 L 117.40016 679.6144 C 117.40005 679.611 117.39997 679.6075 117.3999 679.6041 L 117.00049 658.6347 C 117.00017 658.6177 117.00027 658.60075 117.00082 658.5838 L 117.59994 639.8113 C 117.59998 639.8099 117.60003 639.80856 117.60008 639.8072 L 118.39735 617.683 C 118.39912 617.6339 118.4045 617.585 118.41347 617.53665 L 121.22885 602.3583 C 121.22987 602.35284 121.23084 602.3474 121.23176 602.3419 L 122.32413 595.8509 C 122.37231 595.56455 122.29367 595.2714 122.10864 595.04765 L 113.9651 585.19966 C 113.85683 585.0687 113.7837 584.91234 113.75262 584.7453 L 112.23103 576.5667 C 112.21049 576.4564 112.17152 576.35025 112.11575 576.2528 L 96.54067 549.0457 C 96.4487 548.88507 96.40313 548.70203 96.40904 548.517 L 97.59908 511.2291 C 97.5997 511.2097 97.59975 511.1903 97.59924 511.1709 L 97.20086 496.0324 C 97.20029 496.0108 97.20042 495.9892 97.20125 495.96764 L 97.5968 485.6834 C 97.59893 485.6279 97.60569 485.57266 97.617 485.51827 L 100.21637 473.01743 C 100.2257 472.9726 100.23193 472.9272 100.23503 472.8815 L 100.95231 462.3034 C 100.98091 461.8816 100.74117 461.4874 100.3535 461.31876 L 91.28122 457.3722 C 91.24735 457.3575 91.21269 457.34464 91.17739 457.33374 L 77.64737 453.15535 C 77.63604 453.15186 77.62465 453.14856 77.6132 453.14546 L 62.84287 449.1535 C 62.83454 449.15123 62.82624 449.14887 62.81797 449.1464 L 51.442524 445.75373 C 51.434423 445.7513 51.42629 445.749 51.418134 445.7468 L 42.952 443.4539 C 42.41892 443.3095 41.869734 443.6246 41.72536 444.1577 C 41.712315 444.20585 41.702894 444.2549 41.697175 444.3045 L 41.230946 448.34514 C 41.230564 448.34845 41.2302 448.35176 41.22985 448.3551 L 40.835867 452.0979 C 40.832207 452.1327 40.830373 452.1676 40.830373 452.2026 L 40.830373 455.4638 C 40.830373 455.52123 40.825425 455.57855 40.815584 455.63514 L 40.041736 460.08477 C 40.03417 460.1283 40.02949 460.17224 40.027737 460.21637 L 39.41095 475.72484 C 39.403786 475.9049 39.348085 476.07973 39.249736 476.23077 L 33.867 484.4971 C 33.822504 484.56545 33.769815 484.6281 33.710108 484.6836 L 25.224898 492.57684 C 25.208307 492.5923 25.191197 492.60714 25.173596 492.6214 L 17.908043 498.5124 C 17.836362 498.5705 17.756981 498.61844 17.67216 498.6548 L 9.597551 502.11534 C 9.46734 502.17114 9.326758 502.19864 9.185116 502.196 L -1.3791125 502.0004 C -1.3930332 502.0001 -1.4069579 502.00016 -1.4208773 502.0005 L -9.86204 502.1968 C -9.953577 502.1989 -10.044973 502.18847 -10.133665 502.1657 L -17.724262 500.2194 C -17.774675 500.2065 -17.82602 500.1975 -17.877828 500.1926 L -25.926922 499.426 C -26.10567 499.409 -26.276537 499.34415 -26.421582 499.2383 L -33.485285 494.0837 C -33.561377 494.0282 -33.629243 493.9622 -33.68687 493.88767 L -45.12791 479.0932 C -45.1758 479.0313 -45.216256 478.96395 -45.24844 478.8926 L -49.683895 469.05744 C -49.75981 468.8891 -49.787634 468.70304 -49.76428 468.51986 L -48.58711 459.2872 C -48.57551 459.19624 -48.57648 459.1041 -48.58999 459.0134 L -49.95872 449.82336 C -49.96598 449.7746 -49.96963 449.72535 -49.96963 449.67605 L -49.96963 444.1126 C -49.96963 443.56033 -50.417344 443.1126 -50.96963 443.1126 C -51.07133 443.1126 -51.172434 443.12813 -51.269455 443.1586 L -56.96794 444.9496 C -56.969066 444.94993 -56.97019 444.9503 -56.971316 444.95064 L -65.76884 447.74986 C -65.76937 447.75 -65.76989 447.7502 -65.770415 447.75036 L -75.74512 450.94226 C -75.76146 450.9475 -75.77792 450.9523 -75.79451 450.9567 L -86.35871 453.7472 C -86.36599 453.74914 -86.37325 453.75115 -86.38048 453.75324 L -96.75904 456.74705 C -96.7661 456.7491 -96.77314 456.7512 -96.78015 456.7534 L -102.97512 458.6893 C -103.10347 458.72943 -103.22242 458.795 -103.32484 458.88216 L -108.01564 462.873 C -108.25736 463.07865 -108.38711 463.38683 -108.36528 463.70344 L -108.00213 468.9691 C -108.00071 468.9897 -107.99865 469.01025 -107.99595 469.03073 L -107.00854 476.53505 C -107.00285 476.5783 -107 476.6219 -107 476.6655 L -107 483.7428 C -107 483.7809 -106.99782 483.81897 -106.99348 483.8568 L -105.6092 495.9198 C -105.60308 495.9732 -105.60126 496.02697 -105.60378 496.08063 L -106.19633 508.72185 C -106.19877 508.7739 -106.19714 508.826 -106.19146 508.8778 L -104.43096 524.9179 C -104.41072 525.1023 -104.44219 525.28875 -104.52186 525.45633 L -110.12212 537.2362 C -110.17362 537.3445 -110.20521 537.4612 -110.21538 537.58074 L -110.98451 546.6181 C -110.99475 546.73836 -111.02669 546.8558 -111.07878 546.9647 L -115.3496 555.8946 C -115.38309 555.96464 -115.4083 556.0383 -115.42475 556.11415 L -118.96382 572.4332 C -118.98777 572.5436 -119.03025 572.64915 -119.08946 572.7454 L -126.85983 585.3717 C -126.93224 585.48936 -126.97949 585.62075 -126.99858 585.7576 L -128.3915 595.7391 C -128.39716 595.7797 -128.40032 595.8205 -128.40097 595.8615 L -128.59924 608.36114 C -128.59975 608.3932 -128.59871 608.42524 -128.59614 608.4572 L -127.20322 625.7692 C -127.20107 625.7959 -127.2 625.82264 -127.2 625.8494 L -127.2 639.19 C -127.2 639.2028 -127.19975 639.21565 -127.19926 639.22845 L -126.60049 654.7965 C -126.60016 654.805 -126.59994 654.8135 -126.59983 654.822 L -126.40032 670.1842 C -126.40011 670.2009 -126.40031 670.2176 -126.40093 670.2342 L -126.99931 686.39074 C -126.99977 686.4031 -127 686.4154 -127 686.42775 L -127 700.59 C -127 700.6028 -127.00025 700.61565 -127.00074 700.62845 L -127.59981 716.2044 C -127.59994 716.2076 -127.60008 716.2109 -127.60023 716.2141 L -128.39994 732.808 C -128.39998 732.8088 -128.40002 732.80965 -128.40006 732.8105 L -129.19972 748.6037 C -129.1999 748.6074 -129.20011 748.6111 -129.20035 748.6148 L -130.39965 768.0036 C -130.39988 768.0074 -130.40014 768.0111 -130.40041 768.0149 L -132.19936 792.6005 C -132.19979 792.6063 -132.20027 792.6122 -132.2008 792.618 L -133.99992 812.4083 C -133.99997 812.4089 -134.00003 812.4096 -134.00009 812.4102 L -135.79657 831.7723 C -135.79886 831.7969 -135.80205 831.8214 -135.80615 831.8458 L -137.16896 839.9461 C -137.1694 839.9488 -137.16986 839.9514 -137.17033 839.9541 L -139.19254 851.4065 C -139.19751 851.4346 -139.20127 851.4629 -139.20381 851.4914 L -140.9176 870.6863 C -140.96408 871.207 -140.60164 871.6756 -140.08595 871.7616 Z" stroke="#b1001c" stroke-linecap="round" stroke-linejoin="round" stroke-width="1.5"/>
      </g>
      <g id="Graphic_13">
        <path d="M -50.9 442.2 L -50.7 446 L -50.1 452 L -49.5 457.2 L -48.5 461.2 L -47.9 463.6 L -42.5 466.2 L -36.1 468.2 L -29.399996 469.8 L -22.199996 471.2 L -15.599996 472 L -8.999996 472.4 L -1.1999959 472.8 L 7.000004 472.2 L 14.900002 471 L 22.300002 469.6 L 29.500003 467.4 L 35.100003 465.4 L 39.600005 462.6 L 41.800005 462 L 42.600005 454.4 L 41.700003 450.4 L 41.900003 445.2 L 41.600005 442 L 38.700003 444 L 33.700003 447.4 L 29.700003 450 L 22.700002 452.8 L 15.300002 454.6 L 8.700002 455.6 L 2.500002 456.2 L -3.899998 456.2 L -11.699998 456 L -18.799996 455.8 L -25.099998 454.8 L -29.9 453.4 L -36.1 451.4 L -41.5 449 L -47.3 445.2 Z" fill="red"/>
        <path d="M -50.9 442.2 L -50.7 446 L -50.1 452 L -49.5 457.2 L -48.5 461.2 L -47.9 463.6 L -42.5 466.2 L -36.1 468.2 L -29.399996 469.8 L -22.199996 471.2 L -15.599996 472 L -8.999996 472.4 L -1.1999959 472.8 L 7.000004 472.2 L 14.900002 471 L 22.300002 469.6 L 29.500003 467.4 L 35.100003 465.4 L 39.600005 462.6 L 41.800005 462 L 42.600005 454.4 L 41.700003 450.4 L 41.900003 445.2 L 41.600005 442 L 38.700003 444 L 33.700003 447.4 L 29.700003 450 L 22.700002 452.8 L 15.300002 454.6 L 8.700002 455.6 L 2.500002 456.2 L -3.899998 456.2 L -11.699998 456 L -18.799996 455.8 L -25.099998 454.8 L -29.9 453.4 L -36.1 451.4 L -41.5 449 L -47.3 445.2 Z" stroke="#4c75e8" stroke-linecap="round" stroke-linejoin="round" stroke-width="1"/>
      </g>
      <g id="Graphic_12">
        <path d="M -50.1 447.6 L -49.5 453.8 L -49.3 456.8 L -46.9 458.6 L -41.9 461 L -38.1 462.4 L -33.9 464 L -29.5 465.6 L -24.499998 466.8 L -19.099998 467.6 L -12.499998 468.2 L -6.099998 468.4 L .9000021 468.6 L 7.500002 468.2 L 15.700002 466.8 L 22.700002 465.2 L 28.900003 463.2 L 34.300003 460.8 L 37.700003 458.8 L 39.900003 457.4 L 40.500003 454.6 L 40.900003 451.8 L 41.100003 447.4 L 39.700003 449 L 39.500003 449.2 L 35.300003 452.2 L 29.900003 455 L 22.700002 457.6 L 15.181494 459.2922 L 8.900002 460.4 L 2.700002 460.8 L -3.899998 461.2 L -11.699998 461 L -18.999996 460.6 L -25.218507 459.413 L -31.3 458 L -36.3 456.2 L -41.3 454 L -45.3 451.6 Z" fill="white"/>
      </g>
      <g id="Graphic_11">
        <path d="M -71 449.2 L -66.2 447.6 L -61.8 445.8 L -56 444.4 L -50.999997 442.8 L -49.999997 448 L -49.999997 452.6 L -49.399997 456.6 L -48.399997 461.8 L -46.999997 466.4 L -45.599997 470.4 L -44.399997 474.2 L -42.199997 478.6 L -40.399997 482 L -37.999996 485.4 L -35.4 488.79253 L -32 491.99253 L -28.4 494.59253 L -23.399998 496.99253 L -18.999998 498.79253 L -13.799998 499.79253 L -8.799998 500.99253 L -3.799998 500.99253 L .6000021 500.79253 L 5.000002 500.39253 L 9.800002 498.99253 L 13.600002 497.59253 L 16.600002 496.19253 L 19.400002 494.19253 L 23.000002 491.59253 L 25.200002 489.59253 L 27.600003 486.99253 L 29.800003 484.19253 L 32.200003 480.99253 L 34.200003 477.59253 L 36.000003 474.39253 L 38.000003 469.79253 L 39.400003 465.39253 L 40.200003 461.39253 L 40.600005 457.8 L 41.600003 451.99253 L 41.600003 448.39253 L 41.600003 444.79253 L 41.600003 442.19253 L 48 444.19253 L 55.4 446.19253 L 62.2 447.99253 L 61.8 451.79253 L 60.8 456.19253 L 60.2 459.99253 L 59.6 464.19253 L 58.8 468.19253 L 58 470.79253 L 57 474.59253 L 55.6 478.39253 L 54 482.79253 L 52.2 486.59253 L 50.2 490.59253 L 47.4 494.99253 L 45.200003 498.59253 L 41.800003 502.39253 L 39.000003 504.99253 L 36.200003 507.79253 L 33.600003 509.99253 L 30.000003 512.39253 L 27.200003 513.79253 L 23.400002 515.7925 L 19.800002 517.1925 L 16.400002 518.3925 L 13.000002 519.5925 L 9.400002 520.3925 L 5.400002 520.7925 L .4000021 521.3925 L -3.399998 521.5925 L -7.999998 521.5925 L -11.599998 521.5925 L -16.599998 520.9925 L -20.399998 520.1925 L -24.199996 519.4 L -27.999996 518 L -32.199996 516.2 L -35.8 514.5925 L -40.2 512.39253 L -43 510.39253 L -46 507.99253 L -49 504.99253 L -51.8 501.99253 L -54.6 498.99253 L -56.6 496.19253 L -58.4 493.39253 L -60.4 490.19253 L -62.4 486.19253 L -64 481.99253 L -65.4 477.39253 L -66.2 474.79253 L -67.2 470.99253 L -68.2 467.19253 L -68.8 463.19253 L -69.8 458.99253 L -70.4 455.19253 Z" fill="red"/>
        <path d="M -71 449.2 L -66.2 447.6 L -61.8 445.8 L -56 444.4 L -50.999997 442.8 L -49.999997 448 L -49.999997 452.6 L -49.399997 456.6 L -48.399997 461.8 L -46.999997 466.4 L -45.599997 470.4 L -44.399997 474.2 L -42.199997 478.6 L -40.399997 482 L -37.999996 485.4 L -35.4 488.79253 L -32 491.99253 L -28.4 494.59253 L -23.399998 496.99253 L -18.999998 498.79253 L -13.799998 499.79253 L -8.799998 500.99253 L -3.799998 500.99253 L .6000021 500.79253 L 5.000002 500.39253 L 9.800002 498.99253 L 13.600002 497.59253 L 16.600002 496.19253 L 19.400002 494.19253 L 23.000002 491.59253 L 25.200002 489.59253 L 27.600003 486.99253 L 29.800003 484.19253 L 32.200003 480.99253 L 34.200003 477.59253 L 36.000003 474.39253 L 38.000003 469.79253 L 39.400003 465.39253 L 40.200003 461.39253 L 40.600005 457.8 L 41.600003 451.99253 L 41.600003 448.39253 L 41.600003 444.79253 L 41.600003 442.19253 L 48 444.19253 L 55.4 446.19253 L 62.2 447.99253 L 61.8 451.79253 L 60.8 456.19253 L 60.2 459.99253 L 59.6 464.19253 L 58.8 468.19253 L 58 470.79253 L 57 474.59253 L 55.6 478.39253 L 54 482.79253 L 52.2 486.59253 L 50.2 490.59253 L 47.4 494.99253 L 45.200003 498.59253 L 41.800003 502.39253 L 39.000003 504.99253 L 36.200003 507.79253 L 33.600003 509.99253 L 30.000003 512.39253 L 27.200003 513.79253 L 23.400002 515.7925 L 19.800002 517.1925 L 16.400002 518.3925 L 13.000002 519.5925 L 9.400002 520.3925 L 5.400002 520.7925 L .4000021 521.3925 L -3.399998 521.5925 L -7.999998 521.5925 L -11.599998 521.5925 L -16.599998 520.9925 L -20.399998 520.1925 L -24.199996 519.4 L -27.999996 518 L -32.199996 516.2 L -35.8 514.5925 L -40.2 512.39253 L -43 510.39253 L -46 507.99253 L -49 504.99253 L -51.8 501.99253 L -54.6 498.99253 L -56.6 496.19253 L -58.4 493.39253 L -60.4 490.19253 L -62.4 486.19253 L -64 481.99253 L -65.4 477.39253 L -66.2 474.79253 L -67.2 470.99253 L -68.2 467.19253 L -68.8 463.19253 L -69.8 458.99253 L -70.4 455.19253 Z" stroke="#ff2600" stroke-linecap="round" stroke-linejoin="round" stroke-width="1"/>
      </g>
      <g id="Graphic_10">
        <path d="M -65.1008 446.6889 L -56.5008 444.2889 L -56.5008 449.6889 L -56.3008 454.2889 L -55.7008 458.4889 L -55.3008 462.0889 L -54.3008 465.8889 L -53.3008 470.4889 L -51.9008 474.8889 L -50.5008 478.0889 L -48.3008 482.4889 L -46.1008 486.2889 L -43.9008 489.2889 L -41.5008 492.2889 L -38.3008 495.2889 L -35.3008 498.0889 L -31.7008 500.2889 L -27.3008 502.6889 L -22.5008 504.6889 L -17.1008 506.2889 L -11.5008 507.2889 L -5.9007996 507.4889 L -1.1007995 507.2889 L 3.4992006 506.8889 L 8.299201 505.8889 L 13.6992 504.8889 L 18.2992 502.6889 L 22.8992 500.0889 L 27.8992 496.8889 L 31.8992 493.2889 L 35.6992 489.4889 L 38.2992 485.2889 L 40.2992 481.2889 L 42.6992 476.6889 L 44.2992 471.6889 L 45.2992 466.8889 L 46.2992 463.4889 L 47.2992 458.6889 L 48.0992 453.4889 L 48.4992 449.2889 L 48.4992 445.0889 L 55.2992 446.6889 L 54.8992 453.2889 L 54.2992 459.6889 L 53.6992 464.4889 L 52.2992 469.2889 L 51.2992 473.6889 L 50.0992 477.0889 L 48.4992 480.6889 L 47.0992 484.2889 L 45.4992 487.6889 L 43.2992 491.4889 L 41.2992 494.6889 L 37.6992 498.2889 L 35.2992 501.0889 L 31.4992 504.4889 L 27.2992 507.4889 L 23.0992 509.8889 L 17.4992 512.0889 L 13.4992 513.4889 L 7.699201 514.6889 L .8992005 515.6889 L -3.9007995 515.6889 L -9.7008 515.2889 L -14.5008 514.8889 L -19.1008 514.0889 L -23.5008 513.0889 L -27.9008 511.4889 L -33.1008 508.6889 L -38.1008 505.8889 L -42.5008 502.4889 L -45.5008 499.4889 L -48.7008 496.4889 L -51.1008 493.4889 L -53.1008 490.0889 L -55.1008 486.2889 L -56.3008 484.0889 L -57.7008 481.0889 L -59.1008 477.0889 L -60.5008 473.0889 L -61.5008 468.8889 L -62.3008 464.2889 L -63.5008 459.0889 L -64.1008 454.0889 Z" fill="white"/>
      </g>
      <g id="Graphic_9">
        <path d="M -110.4 460.9 L -98.8 457.2 L -86.4 453.4 L -85.4 464.1 L -84.8 472.9 L -84.2 480.9 L -84 489.7 L -84 498.5 L -84.2 508.5 L -84.8 519.1 L -86 530.7 L -87.8 543.3 L -90.8 555.7 L -94 565.5 L -97.6 577.1 L -101.4 585.7 L -106.2 594.7 L -111.2 603.5 L -116.8 612.1 L -124.6 623.9 L -127.4 626.8 L -127.8 621.2 L -128.2 616.8 L -128.6 610.6 L -130.2 603.2 L -131.4 599.2 L -132.4 595.4 L -129.4 590 L -127.2 585.8 L -123.8 578.2 L -120 568.8 L -117.4 560 L -114.8 550.6 L -112.4 540.6 L -111.2 532 L -109.8 522.8 L -108.8 514.8 L -108 508 L -107.6 498.4 L -107.8 490.4 L -107.8 482.6 L -108.2 475.2 L -109.2 469 L -109.8 465.8 Z" fill="red"/>
        <path d="M -110.4 460.9 L -98.8 457.2 L -86.4 453.4 L -85.4 464.1 L -84.8 472.9 L -84.2 480.9 L -84 489.7 L -84 498.5 L -84.2 508.5 L -84.8 519.1 L -86 530.7 L -87.8 543.3 L -90.8 555.7 L -94 565.5 L -97.6 577.1 L -101.4 585.7 L -106.2 594.7 L -111.2 603.5 L -116.8 612.1 L -124.6 623.9 L -127.4 626.8 L -127.8 621.2 L -128.2 616.8 L -128.6 610.6 L -130.2 603.2 L -131.4 599.2 L -132.4 595.4 L -129.4 590 L -127.2 585.8 L -123.8 578.2 L -120 568.8 L -117.4 560 L -114.8 550.6 L -112.4 540.6 L -111.2 532 L -109.8 522.8 L -108.8 514.8 L -108 508 L -107.6 498.4 L -107.8 490.4 L -107.8 482.6 L -108.2 475.2 L -109.2 469 L -109.8 465.8 Z" stroke="#ff2600" stroke-linecap="round" stroke-linejoin="round" stroke-width="1.5"/>
      </g>
      <g id="Graphic_8">
        <path d="M -102.6 458.4 L -95 456 L -93.87044 463.2241 L -92.47044 471.4241 L -91.87044 478.6241 L -91.47044 486.2241 L -91.27044 494.4241 L -91.07044 501.8241 L -91.67044 509.4241 L -92.07044 518.0241 L -93.27044 526.2241 L -94.07044 533.4241 L -95.27044 540.0241 L -96.87044 547.4241 L -99.07044 555.4241 L -101.07044 561.2241 L -103.07044 568.6241 L -106.27044 575.8241 L -109.47044 583.0241 L -112.67044 589.0241 L -116.47044 595.6241 L -120.67044 602.6241 L -123.87044 607.8241 L -128.2 613.8 L -130.2 603.2 L -123.8 593.8 L -120 586.6 L -116.8 580.2 L -114.6 574.4 L -112 568.4 L -109.6 561.8 L -106.4 552.6 L -105 546 L -104.2 541 L -103.4 535.6 L -102 529.8 L -101.4 522.8 L -100.4 515.8 L -100.2 508.4 L -99.4 500.8 L -99.2 493.4 L -99.2 487.4 L -99.27044 481.4241 L -100.27044 473.2241 L -101.27044 465.6241 Z" fill="white"/>
      </g>
      <g id="Graphic_7">
        <path d="M 102.4 460.7 L 90.8 457 L 78.4 453.2 L 77.400005 463.9 L 76.800005 472.7 L 76.200005 480.7 L 76.000005 489.5 L 76.000005 498.3 L 76.200005 508.3 L 76.800005 518.9 L 78.000005 530.5 L 79.80001 543.1 L 82.80001 555.5 L 86.00001 565.3 L 89.60001 576.9 L 93.4 585.5 L 98.2 594.5 L 103.2 603.3 L 108.8 611.9 L 116.6 623.7 L 119.4 626.6 L 119.8 621 L 120.2 616.6 L 120.6 610.4 L 122.2 603 L 123.4 599 L 124.4 595.2 L 121.4 589.8 L 119.2 585.6 L 115.8 578 L 112 568.6 L 109.4 559.8 L 106.8 550.4 L 104.4 540.4 L 103.2 531.8 L 101.8 522.6 L 100.8 514.6 L 100 507.8 L 99.6 498.2 L 99.8 490.2 L 99.8 482.4 L 100.2 475 L 101.2 468.8 L 101.8 465.6 Z" fill="red"/>
        <path d="M 102.4 460.7 L 90.8 457 L 78.4 453.2 L 77.400005 463.9 L 76.800005 472.7 L 76.200005 480.7 L 76.000005 489.5 L 76.000005 498.3 L 76.200005 508.3 L 76.800005 518.9 L 78.000005 530.5 L 79.80001 543.1 L 82.80001 555.5 L 86.00001 565.3 L 89.60001 576.9 L 93.4 585.5 L 98.2 594.5 L 103.2 603.3 L 108.8 611.9 L 116.6 623.7 L 119.4 626.6 L 119.8 621 L 120.2 616.6 L 120.6 610.4 L 122.2 603 L 123.4 599 L 124.4 595.2 L 121.4 589.8 L 119.2 585.6 L 115.8 578 L 112 568.6 L 109.4 559.8 L 106.8 550.4 L 104.4 540.4 L 103.2 531.8 L 101.8 522.6 L 100.8 514.6 L 100 507.8 L 99.6 498.2 L 99.8 490.2 L 99.8 482.4 L 100.2 475 L 101.2 468.8 L 101.8 465.6 Z" stroke="#ff2600" stroke-linecap="round" stroke-linejoin="round" stroke-width="1.5"/>
      </g>
      <g id="Graphic_6">
        <path d="M 94.72956 458.4 L 87.12956 456 L 86.00001 463.2241 L 84.60001 471.4241 L 84.00001 478.6241 L 83.60001 486.2241 L 83.40001 494.4241 L 83.20001 501.8241 L 83.80001 509.4241 L 84.20001 518.0241 L 85.40001 526.2241 L 86.20001 533.4241 L 87.40001 540.0241 L 89.00001 547.4241 L 91.20001 555.4241 L 93.2 561.2241 L 95.2 568.6241 L 98.4 575.8241 L 101.6 583.0241 L 104.8 589.0241 L 108.6 595.6241 L 112.8 602.6241 L 116 607.8241 L 120.32956 613.8 L 122.32956 603.2 L 115.92956 593.8 L 112.12956 586.6 L 108.92956 580.2 L 106.72956 574.4 L 104.12956 568.4 L 101.72956 561.8 L 98.52956 552.6 L 97.12956 546 L 96.32956 541 L 95.52956 535.6 L 94.12956 529.8 L 93.52956 522.8 L 92.52956 515.8 L 92.32956 508.4 L 91.52956 500.8 L 91.32956 493.4 L 91.32956 487.4 L 91.40001 481.4241 L 92.4 473.2241 L 93.4 465.6241 Z" fill="white"/>
      </g>
      <g id="Graphic_5">
        <path d="M -76.21191 625.5797 L -58.71191 608.0797 L -26.211912 608.0797 L -10.211914 625.6797 L -10.211912 697.0797 L -25.811915 718.0797 L -58.011915 718.0797 L -75.811915 697.2797 L -75.71191 630.0797 L -54.011915 629.6797 L -54.011915 695.8797 L -31.811915 695.8797 L -31.71191 629.5797 L -54.411915 629.6797 L -75.211915 633.2797 L -76.011915 630.2797 Z" fill="red"/>
      </g>
      <g id="Graphic_4">
        <path d="M -121.9 624.4 L -119.8 633.2382 L -119.2 641.8382 L -118.2 650.2382 L -117.2 659.4382 L -116.2 671.6382 L -116 681.6382 L -115.4 694.6382 L -115 705.8382 L -115.4 716.4382 L -115.4 728.0382 L -115.8 736.6382 L -115.8 750.4382 L -115.8 760.8382 L -116.4 774.4382 L -116.6 785.2382 L -117 795.8382 L -117.4 809.2382 L -118 821.8382 L -119 834.6382 L -119.6 844.6382 L -120 858.2382 L -120.6 868.0382 L -120.8 874.4382 L -115.6 876.0382 L -115.4 866.0382 L -115.2 857.2382 L -114.6 845.6382 L -114 835.4382 L -113.6 822.6382 L -113 810.0382 L -112.4 796.2382 L -111.8 785.0382 L -111.8 774.2382 L -111.2 761.2382 L -111.2 750.6382 L -111.2 737.2382 L -111 727.0382 L -110.8 715.8382 L -111 706.8382 L -111.2 693.8382 L -111.4 681.2382 L -111.8 670.2382 L -112.2 661.4382 L -112.8 652.2382 L -113.8 643.0382 L -114.6 634.2382 L -116.4 625.2382 L -119.9 616.8 L -122.7 621 Z" fill="red"/>
      </g>
      <g id="Graphic_3">
        <path d="M 112.1 624.41205 L 110 633.2502 L 109.4 641.8502 L 108.4 650.2502 L 107.4 659.4502 L 106.4 671.6502 L 106.2 681.6502 L 105.6 694.6502 L 105.2 705.8502 L 105.6 716.4502 L 105.6 728.0502 L 106 736.6502 L 106 750.4502 L 106 760.8502 L 106.6 774.4502 L 106.8 785.2502 L 107.2 795.8502 L 107.6 809.2502 L 108.2 821.8502 L 109.2 834.6502 L 109.8 844.6502 L 110.2 858.2502 L 110.8 868.0502 L 111 875.4 L 105.8 876.0502 L 105.6 866.0502 L 105.4 857.2502 L 104.8 845.6502 L 104.2 835.4502 L 103.8 822.6502 L 103.2 810.0502 L 102.6 796.2502 L 102 785.0502 L 102 774.2502 L 101.4 761.2502 L 101.4 750.6502 L 101.4 737.2502 L 101.2 727.0502 L 101 715.8502 L 101.2 706.8502 L 101.4 693.8502 L 101.6 681.2502 L 102 670.2502 L 102.4 661.4502 L 103 652.2502 L 104 643.0502 L 104.8 634.2502 L 106.6 625.2502 L 110.4 613 L 113.6 619.2 Z" fill="red"/>
      </g>
      <g id="Graphic_2">
        <path d="M 6.088894 625.5797 L 23.588894 608.0797 L 56.088894 608.0797 L 72.08889 625.6797 L 72.08889 697.0797 L 56.48889 718.0797 L 24.28889 718.0797 L 6.4888905 697.2797 L 6.588894 630.0797 L 28.28889 629.6797 L 28.28889 695.8797 L 50.48889 695.8797 L 50.588894 629.5797 L 27.88889 629.6797 L 7.0888905 633.2797 L 6.2888905 630.2797 Z" fill="red"/>
      </g>
    </g>
  </g>
</svg>
