<?xml version="1.0" encoding="UTF-8" standalone="no"?>
<!DOCTYPE svg PUBLIC "-//W3C//DTD SVG 1.1//EN" "http://www.w3.org/Graphics/SVG/1.1/DTD/svg11.dtd">
<svg xmlns:xl="http://www.w3.org/1999/xlink" xmlns:dc="http://purl.org/dc/elements/1.1/" xmlns="http://www.w3.org/2000/svg" version="1.1" viewBox="23 685 275 443" width="275" height="443">
  <defs>
    <linearGradient x1="0" x2="1" id="Gradient" gradientUnits="userSpaceOnUse">
      <stop offset="0" stop-color="#a5a5a5"/>
      <stop offset="1" stop-color="#333"/>
    </linearGradient>
    <linearGradient id="Obj_Gradient" xl:href="#Gradient" gradientTransform="translate(157.4499 696) rotate(90) scale(81.8)"/>
    <linearGradient x1="0" x2="1" id="Gradient_2" gradientUnits="userSpaceOnUse">
      <stop offset="0" stop-color="#0f7207"/>
      <stop offset="1" stop-color="#00ae6b"/>
    </linearGradient>
    <linearGradient id="Obj_Gradient_2" xl:href="#Gradient_2" gradientTransform="translate(160.5 686.7501) rotate(90) scale(440.65914)"/>
  </defs>
  <metadata> Produced by OmniGraffle 7.19.2\n2023-11-19 19:03:34 +0000</metadata>
  <g id="Milwaukee" stroke-opacity="1" fill-opacity="1" stroke-dasharray="none" fill="none" stroke="none">
    <title>Milwaukee</title>
    <g id="Milwaukee_Layer_1">
      <title>Layer 1</title>
      <g id="Graphic_15">
        <path d="M 108.7 696 L 153.1 703.8 L 179.9 705.2 L 208.7 697.6 L 210.39978 760 L 165.39978 777.8 L 113.79978 769.2 L 115.7 740.8 L 110.7 723.8 L 104.5 712.6 Z" fill="url(#Obj_Gradient)"/>
        <path d="M 108.7 696 L 153.1 703.8 L 179.9 705.2 L 208.7 697.6 L 210.39978 760 L 165.39978 777.8 L 113.79978 769.2 L 115.7 740.8 L 110.7 723.8 L 104.5 712.6 Z" stroke="black" stroke-linecap="round" stroke-linejoin="round" stroke-width="1"/>
      </g>
      <g id="Graphic_14">
        <path d="M 24.914046 1115.7616 L 47.98281 1119.6064 C 47.99427 1119.6083 48.00576 1119.61 48.01728 1119.6115 L 76.97689 1123.4062 C 76.99229 1123.4082 77.00775 1123.4099 77.02323 1123.4112 L 107.97591 1126.0072 C 107.99197 1126.0086 108.00806 1126.0095 108.02416 1126.0101 L 147.58234 1127.4086 C 147.59411 1127.409 147.6059 1127.4092 147.61767 1127.4092 L 179.58438 1127.4092 C 179.5948 1127.4092 179.6052 1127.4091 179.61562 1127.4088 L 205.1803 1126.6099 C 205.19343 1126.6095 205.20656 1126.6088 205.21968 1126.6079 L 227.78516 1125.0103 C 227.79505 1125.0096 227.80494 1125.0087 227.8148 1125.0078 L 253.5811 1122.4112 C 253.5937 1122.4099 253.60628 1122.4084 253.61883 1122.4066 L 277.98088 1119.0119 C 277.99363 1119.0101 278.00634 1119.0081 278.019 1119.0058 L 296.06705 1115.7762 C 296.5902 1115.6826 296.94874 1115.1961 296.8833 1114.6687 L 293.60025 1088.2112 C 293.6001 1088.2099 293.59992 1088.2086 293.59976 1088.2072 L 290.00203 1058.2261 C 290.00068 1058.2149 289.99952 1058.2036 289.99856 1058.1923 L 287.6009 1030.2199 C 287.6003 1030.2128 287.59978 1030.2057 287.59932 1030.1986 L 286.20016 1008.4116 C 286.20005 1008.41 286.19995 1008.4085 286.19984 1008.4069 L 284.60033 985.214 C 284.6001 985.2108 284.5999 985.2077 284.59972 985.2045 L 283.4012 965.0294 C 283.4004 965.016 283.39988 965.0025 283.39962 964.9891 L 283.0001 944.0144 C 283.00004 944.011 282.99995 944.0075 282.99985 944.0041 L 282.40016 923.6144 C 282.40005 923.611 282.39997 923.6075 282.3999 923.6041 L 282.0005 902.6347 C 282.00017 902.6177 282.00027 902.6007 282.0008 902.5838 L 282.59994 883.8113 C 282.59998 883.8099 282.60003 883.8086 282.60008 883.8072 L 283.39735 861.683 C 283.3991 861.6339 283.4045 861.585 283.41347 861.5367 L 286.22885 846.3583 C 286.22987 846.3528 286.23084 846.3474 286.23176 846.3419 L 287.32413 839.8509 C 287.3723 839.5645 287.29367 839.2714 287.10864 839.0477 L 278.9651 829.1997 C 278.85683 829.0687 278.7837 828.9123 278.75262 828.7453 L 277.23103 820.5667 C 277.2105 820.4564 277.17152 820.3502 277.11575 820.2528 L 261.54067 793.0457 C 261.4487 792.8851 261.40313 792.702 261.40904 792.517 L 262.59908 755.2291 C 262.5997 755.2097 262.59975 755.1903 262.59924 755.1709 L 262.20086 740.0324 C 262.2003 740.0108 262.20042 739.9892 262.20125 739.9676 L 262.5968 729.6834 C 262.59893 729.6279 262.6057 729.5727 262.617 729.5183 L 265.21637 717.0174 C 265.2257 716.9726 265.23193 716.9272 265.23503 716.8815 L 265.9523 706.3034 C 265.9809 705.8816 265.74117 705.4874 265.3535 705.3188 L 256.28122 701.3722 C 256.24735 701.3575 256.2127 701.34464 256.1774 701.33374 L 242.64737 697.15535 C 242.63604 697.15186 242.62465 697.14856 242.6132 697.1455 L 227.84287 693.1535 C 227.83454 693.1512 227.82624 693.1489 227.81797 693.1464 L 216.44252 689.7537 C 216.43442 689.7513 216.4263 689.749 216.41813 689.7468 L 207.952 687.4539 C 207.41892 687.3095 206.86973 687.6246 206.72536 688.1577 C 206.71231 688.20585 206.7029 688.2549 206.69718 688.3045 L 206.23095 692.3451 C 206.23056 692.34845 206.2302 692.3518 206.22985 692.3551 L 205.83587 696.0979 C 205.8322 696.1327 205.83037 696.1676 205.83037 696.2026 L 205.83037 699.4638 C 205.83037 699.5212 205.82542 699.57855 205.81558 699.6351 L 205.04174 704.0848 C 205.03417 704.1283 205.0295 704.17224 205.02774 704.2164 L 204.41095 719.7248 C 204.40379 719.9049 204.34808 720.0797 204.24974 720.2308 L 198.867 728.4971 C 198.8225 728.56545 198.76981 728.6281 198.7101 728.6836 L 190.2249 736.57684 C 190.2083 736.5923 190.1912 736.6071 190.1736 736.6214 L 182.90804 742.5124 C 182.83636 742.5705 182.75698 742.6184 182.67216 742.6548 L 174.59755 746.1153 C 174.46734 746.1711 174.32676 746.19864 174.18512 746.196 L 163.62089 746.0004 C 163.60697 746.0001 163.59304 746.0002 163.57912 746.0005 L 155.13796 746.1968 C 155.04642 746.1989 154.95503 746.1885 154.86633 746.1657 L 147.27574 744.2194 C 147.22533 744.2065 147.17398 744.1975 147.12217 744.1926 L 139.07308 743.426 C 138.89433 743.409 138.72346 743.34415 138.57842 743.2383 L 131.51472 738.0837 C 131.43862 738.0282 131.37076 737.9622 131.31313 737.8877 L 119.87209 723.0932 C 119.8242 723.0313 119.78374 722.96395 119.75156 722.8926 L 115.3161 713.0574 C 115.24019 712.8891 115.21237 712.703 115.23572 712.5199 L 116.41289 703.2872 C 116.42449 703.1962 116.42352 703.1041 116.41001 703.0134 L 115.04128 693.82336 C 115.03402 693.7746 115.03037 693.72535 115.03037 693.67605 L 115.03037 688.1126 C 115.03037 687.5603 114.58266 687.1126 114.03037 687.1126 C 113.92867 687.1126 113.82757 687.1281 113.73054 687.1586 L 108.03206 688.9496 C 108.03093 688.9499 108.02981 688.9503 108.02868 688.95064 L 99.23116 691.74986 C 99.23063 691.75 99.23011 691.7502 99.22959 691.75036 L 89.25488 694.9423 C 89.23854 694.9475 89.22208 694.9523 89.20549 694.9567 L 78.64129 697.7472 C 78.63401 697.74914 78.62675 697.75115 78.61952 697.7532 L 68.24096 700.74705 C 68.2339 700.7491 68.22686 700.7512 68.21985 700.7534 L 62.02488 702.6893 C 61.896525 702.7294 61.77758 702.795 61.67516 702.88216 L 56.98436 706.873 C 56.74264 707.07865 56.61289 707.3868 56.63472 707.70344 L 56.99787 712.9691 C 56.99929 712.9897 57.00135 713.01025 57.004046 713.0307 L 57.99146 720.53505 C 57.99715 720.5783 58 720.6219 58 720.6655 L 58 727.7428 C 58 727.7809 58.00218 727.819 58.00652 727.8568 L 59.3908 739.9198 C 59.396925 739.9732 59.39874 740.027 59.39622 740.0806 L 58.803666 752.72185 C 58.80123 752.7739 58.80286 752.826 58.80854 752.8778 L 60.56904 768.9179 C 60.58928 769.1023 60.55781 769.2888 60.47814 769.4563 L 54.877884 781.2362 C 54.826383 781.3445 54.79479 781.4612 54.78462 781.5807 L 54.015486 790.6181 C 54.00525 790.7384 53.97331 790.8558 53.92122 790.9647 L 49.650396 799.8946 C 49.616914 799.9646 49.591695 800.0383 49.57525 800.11415 L 46.03618 816.4332 C 46.012234 816.5436 45.969755 816.6492 45.910544 816.7454 L 38.14017 829.3717 C 38.067756 829.4894 38.02051 829.6208 38.001416 829.7576 L 36.6085 839.7391 C 36.60284 839.7797 36.599677 839.8205 36.599027 839.8615 L 36.400763 852.3611 C 36.400255 852.3932 36.40129 852.4252 36.40386 852.4572 L 37.79678 869.7692 C 37.798926 869.7959 37.8 869.8226 37.8 869.8494 L 37.8 883.19 C 37.8 883.2028 37.800247 883.2156 37.80074 883.2285 L 38.39951 898.7965 C 38.399837 898.805 38.400055 898.8135 38.400166 898.822 L 38.599675 914.1842 C 38.59989 914.2009 38.59969 914.2176 38.599075 914.2342 L 38.000685 930.3907 C 38.00023 930.4031 38 930.4154 38 930.4278 L 38 944.59 C 38 944.6028 37.999754 944.6156 37.99926 944.6285 L 37.400187 960.2044 C 37.400062 960.2076 37.399922 960.2109 37.399766 960.2141 L 36.60006 976.808 C 36.60002 976.8088 36.59998 976.8096 36.59994 976.8105 L 35.800283 992.6037 C 35.800094 992.6074 35.799885 992.6111 35.799655 992.6148 L 34.600348 1012.0036 C 34.600116 1012.0074 34.599863 1012.0111 34.59959 1012.0149 L 32.800643 1036.6005 C 32.800214 1036.6063 32.799734 1036.6122 32.799203 1036.618 L 31.000084 1056.4083 C 31.000028 1056.4089 30.99997 1056.4096 30.999914 1056.4102 L 29.203427 1075.7723 C 29.201143 1075.7969 29.197947 1075.8214 29.193845 1075.8458 L 27.83104 1083.9461 C 27.830594 1083.9488 27.830135 1083.9514 27.829666 1083.9541 L 25.807458 1095.4065 C 25.802488 1095.4346 25.798727 1095.463 25.796185 1095.4914 L 24.082407 1114.6863 C 24.035915 1115.207 24.398365 1115.6756 24.914046 1115.7616 Z" fill="url(#Obj_Gradient_2)"/>
        <path d="M 24.914046 1115.7616 L 47.98281 1119.6064 C 47.99427 1119.6083 48.00576 1119.61 48.01728 1119.6115 L 76.97689 1123.4062 C 76.99229 1123.4082 77.00775 1123.4099 77.02323 1123.4112 L 107.97591 1126.0072 C 107.99197 1126.0086 108.00806 1126.0095 108.02416 1126.0101 L 147.58234 1127.4086 C 147.59411 1127.409 147.6059 1127.4092 147.61767 1127.4092 L 179.58438 1127.4092 C 179.5948 1127.4092 179.6052 1127.4091 179.61562 1127.4088 L 205.1803 1126.6099 C 205.19343 1126.6095 205.20656 1126.6088 205.21968 1126.6079 L 227.78516 1125.0103 C 227.79505 1125.0096 227.80494 1125.0087 227.8148 1125.0078 L 253.5811 1122.4112 C 253.5937 1122.4099 253.60628 1122.4084 253.61883 1122.4066 L 277.98088 1119.0119 C 277.99363 1119.0101 278.00634 1119.0081 278.019 1119.0058 L 296.06705 1115.7762 C 296.5902 1115.6826 296.94874 1115.1961 296.8833 1114.6687 L 293.60025 1088.2112 C 293.6001 1088.2099 293.59992 1088.2086 293.59976 1088.2072 L 290.00203 1058.2261 C 290.00068 1058.2149 289.99952 1058.2036 289.99856 1058.1923 L 287.6009 1030.2199 C 287.6003 1030.2128 287.59978 1030.2057 287.59932 1030.1986 L 286.20016 1008.4116 C 286.20005 1008.41 286.19995 1008.4085 286.19984 1008.4069 L 284.60033 985.214 C 284.6001 985.2108 284.5999 985.2077 284.59972 985.2045 L 283.4012 965.0294 C 283.4004 965.016 283.39988 965.0025 283.39962 964.9891 L 283.0001 944.0144 C 283.00004 944.011 282.99995 944.0075 282.99985 944.0041 L 282.40016 923.6144 C 282.40005 923.611 282.39997 923.6075 282.3999 923.6041 L 282.0005 902.6347 C 282.00017 902.6177 282.00027 902.6007 282.0008 902.5838 L 282.59994 883.8113 C 282.59998 883.8099 282.60003 883.8086 282.60008 883.8072 L 283.39735 861.683 C 283.3991 861.6339 283.4045 861.585 283.41347 861.5367 L 286.22885 846.3583 C 286.22987 846.3528 286.23084 846.3474 286.23176 846.3419 L 287.32413 839.8509 C 287.3723 839.5645 287.29367 839.2714 287.10864 839.0477 L 278.9651 829.1997 C 278.85683 829.0687 278.7837 828.9123 278.75262 828.7453 L 277.23103 820.5667 C 277.2105 820.4564 277.17152 820.3502 277.11575 820.2528 L 261.54067 793.0457 C 261.4487 792.8851 261.40313 792.702 261.40904 792.517 L 262.59908 755.2291 C 262.5997 755.2097 262.59975 755.1903 262.59924 755.1709 L 262.20086 740.0324 C 262.2003 740.0108 262.20042 739.9892 262.20125 739.9676 L 262.5968 729.6834 C 262.59893 729.6279 262.6057 729.5727 262.617 729.5183 L 265.21637 717.0174 C 265.2257 716.9726 265.23193 716.9272 265.23503 716.8815 L 265.9523 706.3034 C 265.9809 705.8816 265.74117 705.4874 265.3535 705.3188 L 256.28122 701.3722 C 256.24735 701.3575 256.2127 701.34464 256.1774 701.33374 L 242.64737 697.15535 C 242.63604 697.15186 242.62465 697.14856 242.6132 697.1455 L 227.84287 693.1535 C 227.83454 693.1512 227.82624 693.1489 227.81797 693.1464 L 216.44252 689.7537 C 216.43442 689.7513 216.4263 689.749 216.41813 689.7468 L 207.952 687.4539 C 207.41892 687.3095 206.86973 687.6246 206.72536 688.1577 C 206.71231 688.20585 206.7029 688.2549 206.69718 688.3045 L 206.23095 692.3451 C 206.23056 692.34845 206.2302 692.3518 206.22985 692.3551 L 205.83587 696.0979 C 205.8322 696.1327 205.83037 696.1676 205.83037 696.2026 L 205.83037 699.4638 C 205.83037 699.5212 205.82542 699.57855 205.81558 699.6351 L 205.04174 704.0848 C 205.03417 704.1283 205.0295 704.17224 205.02774 704.2164 L 204.41095 719.7248 C 204.40379 719.9049 204.34808 720.0797 204.24974 720.2308 L 198.867 728.4971 C 198.8225 728.56545 198.76981 728.6281 198.7101 728.6836 L 190.2249 736.57684 C 190.2083 736.5923 190.1912 736.6071 190.1736 736.6214 L 182.90804 742.5124 C 182.83636 742.5705 182.75698 742.6184 182.67216 742.6548 L 174.59755 746.1153 C 174.46734 746.1711 174.32676 746.19864 174.18512 746.196 L 163.62089 746.0004 C 163.60697 746.0001 163.59304 746.0002 163.57912 746.0005 L 155.13796 746.1968 C 155.04642 746.1989 154.95503 746.1885 154.86633 746.1657 L 147.27574 744.2194 C 147.22533 744.2065 147.17398 744.1975 147.12217 744.1926 L 139.07308 743.426 C 138.89433 743.409 138.72346 743.34415 138.57842 743.2383 L 131.51472 738.0837 C 131.43862 738.0282 131.37076 737.9622 131.31313 737.8877 L 119.87209 723.0932 C 119.8242 723.0313 119.78374 722.96395 119.75156 722.8926 L 115.3161 713.0574 C 115.24019 712.8891 115.21237 712.703 115.23572 712.5199 L 116.41289 703.2872 C 116.42449 703.1962 116.42352 703.1041 116.41001 703.0134 L 115.04128 693.82336 C 115.03402 693.7746 115.03037 693.72535 115.03037 693.67605 L 115.03037 688.1126 C 115.03037 687.5603 114.58266 687.1126 114.03037 687.1126 C 113.92867 687.1126 113.82757 687.1281 113.73054 687.1586 L 108.03206 688.9496 C 108.03093 688.9499 108.02981 688.9503 108.02868 688.95064 L 99.23116 691.74986 C 99.23063 691.75 99.23011 691.7502 99.22959 691.75036 L 89.25488 694.9423 C 89.23854 694.9475 89.22208 694.9523 89.20549 694.9567 L 78.64129 697.7472 C 78.63401 697.74914 78.62675 697.75115 78.61952 697.7532 L 68.24096 700.74705 C 68.2339 700.7491 68.22686 700.7512 68.21985 700.7534 L 62.02488 702.6893 C 61.896525 702.7294 61.77758 702.795 61.67516 702.88216 L 56.98436 706.873 C 56.74264 707.07865 56.61289 707.3868 56.63472 707.70344 L 56.99787 712.9691 C 56.99929 712.9897 57.00135 713.01025 57.004046 713.0307 L 57.99146 720.53505 C 57.99715 720.5783 58 720.6219 58 720.6655 L 58 727.7428 C 58 727.7809 58.00218 727.819 58.00652 727.8568 L 59.3908 739.9198 C 59.396925 739.9732 59.39874 740.027 59.39622 740.0806 L 58.803666 752.72185 C 58.80123 752.7739 58.80286 752.826 58.80854 752.8778 L 60.56904 768.9179 C 60.58928 769.1023 60.55781 769.2888 60.47814 769.4563 L 54.877884 781.2362 C 54.826383 781.3445 54.79479 781.4612 54.78462 781.5807 L 54.015486 790.6181 C 54.00525 790.7384 53.97331 790.8558 53.92122 790.9647 L 49.650396 799.8946 C 49.616914 799.9646 49.591695 800.0383 49.57525 800.11415 L 46.03618 816.4332 C 46.012234 816.5436 45.969755 816.6492 45.910544 816.7454 L 38.14017 829.3717 C 38.067756 829.4894 38.02051 829.6208 38.001416 829.7576 L 36.6085 839.7391 C 36.60284 839.7797 36.599677 839.8205 36.599027 839.8615 L 36.400763 852.3611 C 36.400255 852.3932 36.40129 852.4252 36.40386 852.4572 L 37.79678 869.7692 C 37.798926 869.7959 37.8 869.8226 37.8 869.8494 L 37.8 883.19 C 37.8 883.2028 37.800247 883.2156 37.80074 883.2285 L 38.39951 898.7965 C 38.399837 898.805 38.400055 898.8135 38.400166 898.822 L 38.599675 914.1842 C 38.59989 914.2009 38.59969 914.2176 38.599075 914.2342 L 38.000685 930.3907 C 38.00023 930.4031 38 930.4154 38 930.4278 L 38 944.59 C 38 944.6028 37.999754 944.6156 37.99926 944.6285 L 37.400187 960.2044 C 37.400062 960.2076 37.399922 960.2109 37.399766 960.2141 L 36.60006 976.808 C 36.60002 976.8088 36.59998 976.8096 36.59994 976.8105 L 35.800283 992.6037 C 35.800094 992.6074 35.799885 992.6111 35.799655 992.6148 L 34.600348 1012.0036 C 34.600116 1012.0074 34.599863 1012.0111 34.59959 1012.0149 L 32.800643 1036.6005 C 32.800214 1036.6063 32.799734 1036.6122 32.799203 1036.618 L 31.000084 1056.4083 C 31.000028 1056.4089 30.99997 1056.4096 30.999914 1056.4102 L 29.203427 1075.7723 C 29.201143 1075.7969 29.197947 1075.8214 29.193845 1075.8458 L 27.83104 1083.9461 C 27.830594 1083.9488 27.830135 1083.9514 27.829666 1083.9541 L 25.807458 1095.4065 C 25.802488 1095.4346 25.798727 1095.463 25.796185 1095.4914 L 24.082407 1114.6863 C 24.035915 1115.207 24.398365 1115.6756 24.914046 1115.7616 Z" stroke="#7f8080" stroke-linecap="round" stroke-linejoin="round" stroke-width=".5"/>
      </g>
      <g id="Graphic_13">
        <path d="M 114.1 686.2 L 114.3 690 L 114.9 696 L 115.5 701.2 L 116.5 705.2 L 117.1 707.6 L 122.5 710.2 L 128.9 712.2 L 135.6 713.8 L 142.8 715.2 L 149.4 716 L 156 716.4 L 163.8 716.8 L 172 716.2 L 179.9 715 L 187.3 713.6 L 194.5 711.4 L 200.1 709.4 L 204.6 706.6 L 206.8 706 L 207.6 698.4 L 206.7 694.4 L 206.9 689.2 L 206.6 686 L 203.7 688 L 198.7 691.4 L 194.7 694 L 187.7 696.8 L 180.3 698.6 L 173.7 699.6 L 167.5 700.2 L 161.1 700.2 L 153.3 700 L 146.2 699.8 L 139.9 698.8 L 135.1 697.4 L 128.9 695.4 L 123.5 693 L 117.7 689.2 Z" fill="#009b3c"/>
        <path d="M 114.1 686.2 L 114.3 690 L 114.9 696 L 115.5 701.2 L 116.5 705.2 L 117.1 707.6 L 122.5 710.2 L 128.9 712.2 L 135.6 713.8 L 142.8 715.2 L 149.4 716 L 156 716.4 L 163.8 716.8 L 172 716.2 L 179.9 715 L 187.3 713.6 L 194.5 711.4 L 200.1 709.4 L 204.6 706.6 L 206.8 706 L 207.6 698.4 L 206.7 694.4 L 206.9 689.2 L 206.6 686 L 203.7 688 L 198.7 691.4 L 194.7 694 L 187.7 696.8 L 180.3 698.6 L 173.7 699.6 L 167.5 700.2 L 161.1 700.2 L 153.3 700 L 146.2 699.8 L 139.9 698.8 L 135.1 697.4 L 128.9 695.4 L 123.5 693 L 117.7 689.2 Z" stroke="#009924" stroke-linecap="round" stroke-linejoin="round" stroke-width=".5"/>
      </g>
      <g id="Graphic_12">
        <path d="M 114.9 691.6 L 115.5 697.8 L 115.7 700.8 L 118.1 702.6 L 123.1 705 L 126.9 706.4 L 131.1 708 L 135.5 709.6 L 140.5 710.8 L 145.9 711.6 L 152.5 712.2 L 158.9 712.4 L 165.9 712.6 L 172.5 712.2 L 180.7 710.8 L 187.7 709.2 L 193.9 707.2 L 199.3 704.8 L 202.7 702.8 L 204.9 701.4 L 205.5 698.6 L 205.9 695.8 L 206.1 691.4 L 204.7 693 L 204.5 693.2 L 200.3 696.2 L 194.9 699 L 187.7 701.6 L 180.1815 703.2922 L 173.9 704.4 L 167.7 704.8 L 161.1 705.2 L 153.3 705 L 146 704.6 L 139.7815 703.413 L 133.7 702 L 128.7 700.2 L 123.7 698 L 119.7 695.6 Z" fill="#009b3c"/>
      </g>
      <g id="Graphic_11">
        <path d="M 94 693.2 L 98.8 691.6 L 103.2 689.8 L 109 688.4 L 114 686.8 L 115 692 L 115 696.6 L 115.6 700.6 L 116.6 705.8 L 118 710.4 L 119.4 714.4 L 120.6 718.2 L 122.8 722.6 L 124.6 726 L 127 729.4 L 129.6 732.7925 L 133 735.9925 L 136.6 738.5925 L 141.6 740.9925 L 146 742.7925 L 151.2 743.7925 L 156.2 744.9925 L 161.2 744.9925 L 165.6 744.7925 L 170 744.3925 L 174.8 742.9925 L 178.6 741.5925 L 181.6 740.1925 L 184.4 738.1925 L 188 735.5925 L 190.2 733.5925 L 192.6 730.9925 L 194.8 728.1925 L 197.2 724.9925 L 199.2 721.5925 L 201 718.3925 L 203 713.7925 L 204.4 709.3925 L 205.2 705.3925 L 205.6 701.8 L 206.6 695.9925 L 206.6 692.3925 L 206.6 688.7925 L 206.6 686.1925 L 213 688.1925 L 220.4 690.1925 L 227.2 691.9925 L 226.8 695.7925 L 225.8 700.1925 L 225.2 703.9925 L 224.6 708.1925 L 223.8 712.1925 L 223 714.7925 L 222 718.5925 L 220.6 722.3925 L 219 726.7925 L 217.2 730.5925 L 215.2 734.5925 L 212.4 738.9925 L 210.2 742.5925 L 206.8 746.3925 L 204 748.9925 L 201.2 751.7925 L 198.6 753.9925 L 195 756.3925 L 192.2 757.7925 L 188.4 759.7925 L 184.8 761.1925 L 181.4 762.3925 L 178 763.5925 L 174.4 764.3925 L 170.4 764.7925 L 165.4 765.3925 L 161.6 765.5925 L 157 765.5925 L 153.4 765.5925 L 148.4 764.9925 L 144.6 764.1925 L 140.8 763.4 L 137 762 L 132.8 760.2 L 129.2 758.5925 L 124.8 756.3925 L 122 754.3925 L 119 751.9925 L 116 748.9925 L 113.2 745.9925 L 110.4 742.9925 L 108.4 740.1925 L 106.6 737.3925 L 104.6 734.1925 L 102.6 730.1925 L 101 725.9925 L 99.6 721.3925 L 98.8 718.7925 L 97.8 714.9925 L 96.8 711.1925 L 96.2 707.1925 L 95.2 702.9925 L 94.6 699.1925 Z" fill="#f9fb7f"/>
        <path d="M 94 693.2 L 98.8 691.6 L 103.2 689.8 L 109 688.4 L 114 686.8 L 115 692 L 115 696.6 L 115.6 700.6 L 116.6 705.8 L 118 710.4 L 119.4 714.4 L 120.6 718.2 L 122.8 722.6 L 124.6 726 L 127 729.4 L 129.6 732.7925 L 133 735.9925 L 136.6 738.5925 L 141.6 740.9925 L 146 742.7925 L 151.2 743.7925 L 156.2 744.9925 L 161.2 744.9925 L 165.6 744.7925 L 170 744.3925 L 174.8 742.9925 L 178.6 741.5925 L 181.6 740.1925 L 184.4 738.1925 L 188 735.5925 L 190.2 733.5925 L 192.6 730.9925 L 194.8 728.1925 L 197.2 724.9925 L 199.2 721.5925 L 201 718.3925 L 203 713.7925 L 204.4 709.3925 L 205.2 705.3925 L 205.6 701.8 L 206.6 695.9925 L 206.6 692.3925 L 206.6 688.7925 L 206.6 686.1925 L 213 688.1925 L 220.4 690.1925 L 227.2 691.9925 L 226.8 695.7925 L 225.8 700.1925 L 225.2 703.9925 L 224.6 708.1925 L 223.8 712.1925 L 223 714.7925 L 222 718.5925 L 220.6 722.3925 L 219 726.7925 L 217.2 730.5925 L 215.2 734.5925 L 212.4 738.9925 L 210.2 742.5925 L 206.8 746.3925 L 204 748.9925 L 201.2 751.7925 L 198.6 753.9925 L 195 756.3925 L 192.2 757.7925 L 188.4 759.7925 L 184.8 761.1925 L 181.4 762.3925 L 178 763.5925 L 174.4 764.3925 L 170.4 764.7925 L 165.4 765.3925 L 161.6 765.5925 L 157 765.5925 L 153.4 765.5925 L 148.4 764.9925 L 144.6 764.1925 L 140.8 763.4 L 137 762 L 132.8 760.2 L 129.2 758.5925 L 124.8 756.3925 L 122 754.3925 L 119 751.9925 L 116 748.9925 L 113.2 745.9925 L 110.4 742.9925 L 108.4 740.1925 L 106.6 737.3925 L 104.6 734.1925 L 102.6 730.1925 L 101 725.9925 L 99.6 721.3925 L 98.8 718.7925 L 97.8 714.9925 L 96.8 711.1925 L 96.2 707.1925 L 95.2 702.9925 L 94.6 699.1925 Z" stroke="#00751a" stroke-linecap="round" stroke-linejoin="round" stroke-width=".5"/>
      </g>
      <g id="Graphic_10">
        <path d="M 99.8992 690.6889 L 108.4992 688.2889 L 108.4992 693.6889 L 108.6992 698.2889 L 109.2992 702.4889 L 109.6992 706.0889 L 110.6992 709.8889 L 111.6992 714.4889 L 113.0992 718.8889 L 114.4992 722.0889 L 116.6992 726.4889 L 118.8992 730.2889 L 121.0992 733.2889 L 123.4992 736.2889 L 126.6992 739.2889 L 129.6992 742.0889 L 133.2992 744.2889 L 137.6992 746.6889 L 142.4992 748.6889 L 147.8992 750.2889 L 153.4992 751.2889 L 159.0992 751.4889 L 163.8992 751.2889 L 168.4992 750.8889 L 173.2992 749.8889 L 178.6992 748.8889 L 183.2992 746.6889 L 187.8992 744.0889 L 192.8992 740.8889 L 196.8992 737.2889 L 200.6992 733.4889 L 203.2992 729.2889 L 205.2992 725.2889 L 207.6992 720.6889 L 209.2992 715.6889 L 210.2992 710.8889 L 211.2992 707.4889 L 212.2992 702.6889 L 213.0992 697.4889 L 213.4992 693.2889 L 213.4992 689.0889 L 220.2992 690.6889 L 219.8992 697.2889 L 219.2992 703.6889 L 218.6992 708.4889 L 217.2992 713.2889 L 216.2992 717.6889 L 215.0992 721.0889 L 213.4992 724.6889 L 212.0992 728.2889 L 210.4992 731.6889 L 208.2992 735.4889 L 206.2992 738.6889 L 202.6992 742.2889 L 200.2992 745.0889 L 196.4992 748.4889 L 192.2992 751.4889 L 188.0992 753.8889 L 182.4992 756.0889 L 178.4992 757.4889 L 172.6992 758.6889 L 165.8992 759.6889 L 161.0992 759.6889 L 155.2992 759.2889 L 150.4992 758.8889 L 145.8992 758.0889 L 141.4992 757.0889 L 137.0992 755.4889 L 131.8992 752.6889 L 126.8992 749.8889 L 122.4992 746.4889 L 119.4992 743.4889 L 116.2992 740.4889 L 113.8992 737.4889 L 111.8992 734.0889 L 109.8992 730.2889 L 108.6992 728.0889 L 107.2992 725.0889 L 105.8992 721.0889 L 104.4992 717.0889 L 103.4992 712.8889 L 102.6992 708.2889 L 101.4992 703.0889 L 100.8992 698.0889 Z" fill="#00b244"/>
      </g>
      <g id="Graphic_9">
        <path d="M 54.6 704.9 L 66.2 701.2 L 78.6 697.4 L 79.6 708.1 L 80.2 716.9 L 80.8 724.9 L 81 733.7 L 81 742.5 L 80.8 752.5 L 80.2 763.1 L 79 774.7 L 77.2 787.3 L 74.2 799.7 L 71 809.5 L 67.4 821.1 L 63.6 829.7 L 58.8 838.7 L 53.8 847.5 L 48.2 856.1 L 40.4 867.9 L 37.6 870.8 L 37.2 865.2 L 36.8 860.8 L 36.400002 854.6 L 34.800002 847.2 L 33.600002 843.2 L 32.600002 839.4 L 35.600002 834 L 37.8 829.8 L 41.2 822.2 L 45 812.8 L 47.6 804 L 50.2 794.6 L 52.6 784.6 L 53.8 776 L 55.2 766.8 L 56.2 758.8 L 57 752 L 57.4 742.4 L 57.2 734.4 L 57.2 726.6 L 56.8 719.2 L 55.8 713 L 55.2 709.8 Z" fill="#f9fb7f"/>
        <path d="M 54.6 704.9 L 66.2 701.2 L 78.6 697.4 L 79.6 708.1 L 80.2 716.9 L 80.8 724.9 L 81 733.7 L 81 742.5 L 80.8 752.5 L 80.2 763.1 L 79 774.7 L 77.2 787.3 L 74.2 799.7 L 71 809.5 L 67.4 821.1 L 63.6 829.7 L 58.8 838.7 L 53.8 847.5 L 48.2 856.1 L 40.4 867.9 L 37.6 870.8 L 37.2 865.2 L 36.8 860.8 L 36.400002 854.6 L 34.800002 847.2 L 33.600002 843.2 L 32.600002 839.4 L 35.600002 834 L 37.8 829.8 L 41.2 822.2 L 45 812.8 L 47.6 804 L 50.2 794.6 L 52.6 784.6 L 53.8 776 L 55.2 766.8 L 56.2 758.8 L 57 752 L 57.4 742.4 L 57.2 734.4 L 57.2 726.6 L 56.8 719.2 L 55.8 713 L 55.2 709.8 Z" stroke="#00751a" stroke-linecap="round" stroke-linejoin="round" stroke-width=".5"/>
      </g>
      <g id="Graphic_8">
        <path d="M 62.4 702.4 L 70 700 L 71.12956 707.2241 L 72.52956 715.4241 L 73.12956 722.6241 L 73.52956 730.2241 L 73.72956 738.4241 L 73.92956 745.8241 L 73.32956 753.4241 L 72.92956 762.0241 L 71.72956 770.2241 L 70.92956 777.4241 L 69.72956 784.0241 L 68.12956 791.4241 L 65.92956 799.4241 L 63.92956 805.2241 L 61.92956 812.6241 L 58.72956 819.8241 L 55.52956 827.0241 L 52.32956 833.0241 L 48.529557 839.6241 L 44.329557 846.6241 L 41.129557 851.8241 L 36.8 857.8 L 34.800002 847.2 L 41.2 837.8 L 45 830.6 L 48.2 824.2 L 50.4 818.4 L 53 812.4 L 55.4 805.8 L 58.6 796.6 L 60 790 L 60.8 785 L 61.6 779.6 L 63 773.8 L 63.6 766.8 L 64.6 759.8 L 64.8 752.4 L 65.6 744.8 L 65.8 737.4 L 65.8 731.4 L 65.72956 725.4241 L 64.72956 717.2241 L 63.72956 709.6241 Z" fill="#00b244"/>
      </g>
      <g id="Graphic_7">
        <path d="M 267.4 704.7 L 255.8 701 L 243.4 697.2 L 242.4 707.9 L 241.8 716.7 L 241.2 724.7 L 241 733.5 L 241 742.3 L 241.2 752.3 L 241.8 762.9 L 243 774.5 L 244.8 787.1 L 247.8 799.5 L 251 809.3 L 254.6 820.9 L 258.4 829.5 L 263.2 838.5 L 268.2 847.3 L 273.8 855.9 L 281.6 867.7 L 284.4 870.6 L 284.8 865 L 285.2 860.6 L 285.6 854.4 L 287.2 847 L 288.4 843 L 289.4 839.2 L 286.4 833.8 L 284.2 829.6 L 280.8 822 L 277 812.6 L 274.4 803.8 L 271.8 794.4 L 269.4 784.4 L 268.2 775.8 L 266.8 766.6 L 265.8 758.6 L 265 751.8 L 264.6 742.2 L 264.8 734.2 L 264.8 726.4 L 265.2 719 L 266.2 712.8 L 266.8 709.6 Z" fill="#f9fb7f"/>
        <path d="M 267.4 704.7 L 255.8 701 L 243.4 697.2 L 242.4 707.9 L 241.8 716.7 L 241.2 724.7 L 241 733.5 L 241 742.3 L 241.2 752.3 L 241.8 762.9 L 243 774.5 L 244.8 787.1 L 247.8 799.5 L 251 809.3 L 254.6 820.9 L 258.4 829.5 L 263.2 838.5 L 268.2 847.3 L 273.8 855.9 L 281.6 867.7 L 284.4 870.6 L 284.8 865 L 285.2 860.6 L 285.6 854.4 L 287.2 847 L 288.4 843 L 289.4 839.2 L 286.4 833.8 L 284.2 829.6 L 280.8 822 L 277 812.6 L 274.4 803.8 L 271.8 794.4 L 269.4 784.4 L 268.2 775.8 L 266.8 766.6 L 265.8 758.6 L 265 751.8 L 264.6 742.2 L 264.8 734.2 L 264.8 726.4 L 265.2 719 L 266.2 712.8 L 266.8 709.6 Z" stroke="#00751a" stroke-linecap="round" stroke-linejoin="round" stroke-width=".5"/>
      </g>
      <g id="Graphic_6">
        <path d="M 259.72956 702.4 L 252.12956 700 L 251 707.2241 L 249.6 715.4241 L 249 722.6241 L 248.6 730.2241 L 248.4 738.4241 L 248.2 745.8241 L 248.8 753.4241 L 249.2 762.0241 L 250.4 770.2241 L 251.2 777.4241 L 252.4 784.0241 L 254 791.4241 L 256.2 799.4241 L 258.2 805.2241 L 260.2 812.6241 L 263.4 819.8241 L 266.6 827.0241 L 269.8 833.0241 L 273.6 839.6241 L 277.8 846.6241 L 281 851.8241 L 285.32956 857.8 L 287.32956 847.2 L 280.92956 837.8 L 277.12956 830.6 L 273.92956 824.2 L 271.72956 818.4 L 269.12956 812.4 L 266.72956 805.8 L 263.52956 796.6 L 262.12956 790 L 261.32956 785 L 260.52956 779.6 L 259.12956 773.8 L 258.52956 766.8 L 257.52956 759.8 L 257.32956 752.4 L 256.52956 744.8 L 256.32956 737.4 L 256.32956 731.4 L 256.4 725.4241 L 257.4 717.2241 L 258.4 709.6241 Z" fill="#00b244"/>
      </g>
      <g id="Graphic_5">
        <path d="M 88.78809 869.5797 L 106.28809 852.0797 L 138.78809 852.0797 L 154.78809 869.6797 L 154.78809 941.0797 L 139.18809 962.0797 L 106.98808 962.0797 L 89.18808 941.2797 L 89.28809 874.0797 L 110.98809 873.6797 L 110.98809 939.8797 L 133.18809 939.8797 L 133.28809 873.5797 L 110.58809 873.6797 L 89.78808 877.2797 L 88.98808 874.2797 Z" fill="#ffff80"/>
      </g>
      <g id="Graphic_4">
        <path d="M 43.1 868.4 L 45.2 877.2382 L 45.8 885.8382 L 46.8 894.2382 L 47.8 903.4382 L 48.8 915.6382 L 49 925.6382 L 49.6 938.6382 L 50 949.8382 L 49.6 960.4382 L 49.6 972.0382 L 49.2 980.6382 L 49.2 994.4382 L 49.2 1004.8382 L 48.6 1018.4382 L 48.4 1029.2382 L 48 1039.8382 L 47.6 1053.2382 L 47 1065.8382 L 46 1078.6382 L 45.4 1088.6382 L 45 1102.2382 L 44.4 1112.0382 L 44.2 1118.4382 L 49.4 1120.0382 L 49.6 1110.0382 L 49.8 1101.2382 L 50.4 1089.6382 L 51 1079.4382 L 51.4 1066.6382 L 52 1054.0382 L 52.6 1040.2382 L 53.2 1029.0382 L 53.2 1018.2382 L 53.8 1005.2382 L 53.8 994.6382 L 53.8 981.2382 L 54 971.0382 L 54.2 959.8382 L 54 950.8382 L 53.8 937.8382 L 53.6 925.2382 L 53.2 914.2382 L 52.8 905.4382 L 52.2 896.2382 L 51.2 887.0382 L 50.4 878.2382 L 48.6 869.2382 L 45.1 860.8 L 42.3 865 Z" fill="#ffff80"/>
      </g>
      <g id="Graphic_3">
        <path d="M 277.1 868.412 L 275 877.2502 L 274.4 885.8502 L 273.4 894.2502 L 272.4 903.4502 L 271.4 915.6502 L 271.2 925.6502 L 270.6 938.6502 L 270.2 949.8502 L 270.6 960.4502 L 270.6 972.0502 L 271 980.6502 L 271 994.4502 L 271 1004.8502 L 271.6 1018.4502 L 271.8 1029.2502 L 272.2 1039.8502 L 272.6 1053.2502 L 273.2 1065.8502 L 274.2 1078.6502 L 274.8 1088.6502 L 275.2 1102.2502 L 275.8 1112.0502 L 276 1119.4 L 270.8 1120.0502 L 270.6 1110.0502 L 270.4 1101.2502 L 269.8 1089.6502 L 269.2 1079.4502 L 268.8 1066.6502 L 268.2 1054.0502 L 267.6 1040.2502 L 267 1029.0502 L 267 1018.2502 L 266.4 1005.2502 L 266.4 994.6502 L 266.4 981.2502 L 266.2 971.0502 L 266 959.8502 L 266.2 950.8502 L 266.4 937.8502 L 266.6 925.2502 L 267 914.2502 L 267.4 905.4502 L 268 896.2502 L 269 887.0502 L 269.8 878.2502 L 271.6 869.2502 L 275.4 857 L 278.6 863.2 Z" fill="#ffff80"/>
      </g>
      <g id="Graphic_2">
        <path d="M 171.0889 869.5797 L 188.5889 852.0797 L 221.0889 852.0797 L 237.0889 869.6797 L 237.0889 941.0797 L 221.4889 962.0797 L 189.2889 962.0797 L 171.4889 941.2797 L 171.5889 874.0797 L 193.2889 873.6797 L 193.2889 939.8797 L 215.4889 939.8797 L 215.5889 873.5797 L 192.8889 873.6797 L 172.0889 877.2797 L 171.2889 874.2797 Z" fill="#ffff80"/>
      </g>
    </g>
  </g>
</svg>
