<?xml version="1.0" encoding="UTF-8" standalone="no"?>
<!DOCTYPE svg PUBLIC "-//W3C//DTD SVG 1.1//EN" "http://www.w3.org/Graphics/SVG/1.1/DTD/svg11.dtd">
<svg xmlns:xl="http://www.w3.org/1999/xlink" xmlns:dc="http://purl.org/dc/elements/1.1/" xmlns="http://www.w3.org/2000/svg" version="1.1" viewBox="480 1196 275 443" width="275" height="443">
  <defs>
    <linearGradient x1="0" x2="1" id="Gradient" gradientUnits="userSpaceOnUse">
      <stop offset="0" stop-color="#a5a5a5"/>
      <stop offset="1" stop-color="#333"/>
    </linearGradient>
    <linearGradient id="Obj_Gradient" xl:href="#Gradient" gradientTransform="translate(614.4499 1207) rotate(90) scale(81.8)"/>
  </defs>
  <metadata> Produced by OmniGraffle 7.19.2\n2023-11-19 19:03:34 +0000</metadata>
  <g id="Wizards" stroke-opacity="1" fill-opacity="1" stroke-dasharray="none" fill="none" stroke="none">
    <title>Wizards</title>
    <g id="Wizards_Layer_1">
      <title>Layer 1</title>
      <g id="Graphic_15">
        <path d="M 565.7 1207 L 610.1 1214.8 L 636.9 1216.2 L 665.7 1208.6 L 667.3998 1271 L 622.3998 1288.8 L 570.7998 1280.2 L 572.7 1251.8 L 567.7 1234.8 L 561.5 1223.6 Z" fill="url(#Obj_Gradient)"/>
        <path d="M 565.7 1207 L 610.1 1214.8 L 636.9 1216.2 L 665.7 1208.6 L 667.3998 1271 L 622.3998 1288.8 L 570.7998 1280.2 L 572.7 1251.8 L 567.7 1234.8 L 561.5 1223.6 Z" stroke="black" stroke-linecap="round" stroke-linejoin="round" stroke-width="1"/>
      </g>
      <g id="Graphic_14">
        <path d="M 481.91405 1626.7616 L 504.9828 1630.6064 C 504.99427 1630.6083 505.00576 1630.61 505.0173 1630.6115 L 533.9769 1634.4062 C 533.9923 1634.4082 534.00775 1634.4099 534.02323 1634.4112 L 564.9759 1637.0072 C 564.992 1637.0086 565.00806 1637.0095 565.02416 1637.0101 L 604.58234 1638.4086 C 604.5941 1638.409 604.6059 1638.4092 604.6177 1638.4092 L 636.5844 1638.4092 C 636.5948 1638.4092 636.6052 1638.409 636.6156 1638.4088 L 662.1803 1637.6099 C 662.1934 1637.6095 662.2066 1637.6088 662.2197 1637.6079 L 684.7852 1636.0103 C 684.79505 1636.0096 684.8049 1636.0087 684.8148 1636.0078 L 710.5811 1633.4112 C 710.5937 1633.4099 710.6063 1633.4084 710.6188 1633.4066 L 734.9809 1630.012 C 734.9936 1630.0101 735.0063 1630.0081 735.019 1630.0058 L 753.06705 1626.7762 C 753.5902 1626.6826 753.9487 1626.1961 753.8833 1625.6687 L 750.60025 1599.2112 C 750.6001 1599.21 750.5999 1599.2086 750.5998 1599.2072 L 747.002 1569.226 C 747.0007 1569.2149 746.9995 1569.2036 746.99856 1569.1923 L 744.6009 1541.2199 C 744.6003 1541.2128 744.5998 1541.2057 744.5993 1541.1986 L 743.20016 1519.4116 C 743.20005 1519.41 743.19995 1519.4085 743.1998 1519.4069 L 741.6003 1496.214 C 741.6001 1496.2108 741.5999 1496.2077 741.5997 1496.2045 L 740.4012 1476.0294 C 740.4004 1476.016 740.3999 1476.0025 740.3996 1475.9891 L 740.0001 1455.0144 C 740 1455.011 739.99995 1455.0075 739.99985 1455.004 L 739.4002 1434.6144 C 739.40005 1434.611 739.4 1434.6075 739.3999 1434.604 L 739.0005 1413.6347 C 739.0002 1413.6177 739.0003 1413.6007 739.0008 1413.5838 L 739.5999 1394.8113 C 739.6 1394.81 739.6 1394.8086 739.6001 1394.8072 L 740.39735 1372.683 C 740.3991 1372.6339 740.4045 1372.585 740.4135 1372.5367 L 743.22885 1357.3583 C 743.2299 1357.3528 743.2308 1357.3474 743.2318 1357.3419 L 744.3241 1350.8509 C 744.3723 1350.5645 744.2937 1350.2714 744.1086 1350.0477 L 735.9651 1340.1997 C 735.8568 1340.0687 735.7837 1339.9123 735.7526 1339.7453 L 734.231 1331.5667 C 734.2105 1331.4564 734.1715 1331.3502 734.11575 1331.2528 L 718.5407 1304.0457 C 718.4487 1303.885 718.4031 1303.702 718.409 1303.517 L 719.5991 1266.2291 C 719.5997 1266.2097 719.59975 1266.1903 719.5992 1266.1709 L 719.2009 1251.0324 C 719.2003 1251.0108 719.2004 1250.9892 719.20125 1250.9676 L 719.5968 1240.6834 C 719.5989 1240.6279 719.6057 1240.5727 719.617 1240.5183 L 722.2164 1228.0174 C 722.2257 1227.9726 722.2319 1227.9272 722.235 1227.8815 L 722.9523 1217.3034 C 722.9809 1216.8816 722.7412 1216.4874 722.3535 1216.3188 L 713.2812 1212.3722 C 713.24735 1212.3575 713.2127 1212.3446 713.1774 1212.3337 L 699.6474 1208.1554 C 699.636 1208.1519 699.62465 1208.1486 699.6132 1208.1455 L 684.8429 1204.1535 C 684.8345 1204.1512 684.8262 1204.1489 684.818 1204.1464 L 673.4425 1200.7537 C 673.4344 1200.7513 673.4263 1200.749 673.4181 1200.7468 L 664.952 1198.4539 C 664.4189 1198.3095 663.8697 1198.6246 663.72536 1199.1577 C 663.7123 1199.2058 663.7029 1199.2549 663.6972 1199.3045 L 663.23095 1203.3451 C 663.2306 1203.3484 663.2302 1203.3518 663.22985 1203.3551 L 662.8359 1207.0979 C 662.8322 1207.1327 662.8304 1207.1676 662.8304 1207.2026 L 662.8304 1210.4638 C 662.8304 1210.5212 662.8254 1210.5786 662.8156 1210.6351 L 662.0417 1215.0848 C 662.0342 1215.1283 662.0295 1215.1722 662.0277 1215.2164 L 661.41095 1230.7248 C 661.4038 1230.905 661.3481 1231.0797 661.2497 1231.2308 L 655.867 1239.4971 C 655.8225 1239.5654 655.7698 1239.6281 655.7101 1239.6836 L 647.2249 1247.5768 C 647.2083 1247.5923 647.1912 1247.6071 647.1736 1247.6214 L 639.90804 1253.5124 C 639.8364 1253.5705 639.757 1253.6184 639.67216 1253.6548 L 631.59755 1257.1153 C 631.46734 1257.1711 631.32676 1257.1986 631.1851 1257.196 L 620.6209 1257.0004 C 620.607 1257.0001 620.59304 1257.0002 620.5791 1257.0005 L 612.13796 1257.1968 C 612.0464 1257.1989 611.955 1257.1885 611.8663 1257.1657 L 604.27574 1255.2194 C 604.2253 1255.2065 604.174 1255.1975 604.1222 1255.1926 L 596.0731 1254.426 C 595.8943 1254.409 595.72346 1254.3441 595.5784 1254.2383 L 588.5147 1249.0837 C 588.4386 1249.0282 588.37076 1248.9622 588.3131 1248.8877 L 576.8721 1234.0932 C 576.8242 1234.0313 576.78374 1233.964 576.75156 1233.8926 L 572.3161 1224.0574 C 572.2402 1223.8891 572.2124 1223.703 572.2357 1223.5199 L 573.4129 1214.2872 C 573.4245 1214.1962 573.4235 1214.1041 573.41 1214.0134 L 572.0413 1204.8234 C 572.034 1204.7746 572.0304 1204.7254 572.0304 1204.676 L 572.0304 1199.1126 C 572.0304 1198.5603 571.58266 1198.1126 571.0304 1198.1126 C 570.9287 1198.1126 570.8276 1198.1281 570.73054 1198.1586 L 565.03206 1199.9496 C 565.03093 1199.9499 565.0298 1199.9503 565.0287 1199.9506 L 556.23116 1202.7499 C 556.23063 1202.75 556.2301 1202.7502 556.2296 1202.7504 L 546.2549 1205.9423 C 546.23854 1205.9475 546.2221 1205.9523 546.2055 1205.9567 L 535.6413 1208.7472 C 535.634 1208.7491 535.62675 1208.7511 535.6195 1208.7532 L 525.24096 1211.747 C 525.2339 1211.7491 525.22686 1211.7512 525.21985 1211.7534 L 519.0249 1213.6893 C 518.8965 1213.7294 518.7776 1213.795 518.67516 1213.8822 L 513.98436 1217.873 C 513.74264 1218.0786 513.6129 1218.3868 513.6347 1218.7034 L 513.9979 1223.9691 C 513.9993 1223.9897 514.00135 1224.0102 514.00405 1224.0307 L 514.99146 1231.535 C 514.99715 1231.5783 515 1231.6219 515 1231.6655 L 515 1238.7428 C 515 1238.7809 515.0022 1238.819 515.0065 1238.8568 L 516.3908 1250.9198 C 516.3969 1250.9732 516.39874 1251.027 516.3962 1251.0806 L 515.80367 1263.7218 C 515.8012 1263.7739 515.80286 1263.826 515.80854 1263.8778 L 517.56904 1279.9179 C 517.5893 1280.1023 517.5578 1280.2888 517.47814 1280.4563 L 511.8779 1292.2362 C 511.8264 1292.3445 511.7948 1292.4612 511.7846 1292.5807 L 511.0155 1301.618 C 511.00525 1301.7384 510.9733 1301.8558 510.9212 1301.9647 L 506.6504 1310.8946 C 506.6169 1310.9646 506.5917 1311.0383 506.57525 1311.1141 L 503.0362 1327.4332 C 503.01223 1327.5436 502.96975 1327.6492 502.91054 1327.7454 L 495.14017 1340.3717 C 495.06776 1340.4894 495.0205 1340.6208 495.0014 1340.7576 L 493.6085 1350.7391 C 493.60284 1350.7797 493.5997 1350.8205 493.599 1350.8615 L 493.40076 1363.3611 C 493.40025 1363.3932 493.4013 1363.4252 493.40386 1363.4572 L 494.7968 1380.7692 C 494.7989 1380.7959 494.8 1380.8226 494.8 1380.8494 L 494.8 1394.19 C 494.8 1394.2028 494.80025 1394.2156 494.80074 1394.2285 L 495.3995 1409.7965 C 495.39984 1409.805 495.40006 1409.8135 495.40017 1409.822 L 495.5997 1425.1842 C 495.5999 1425.2009 495.5997 1425.2176 495.5991 1425.2342 L 495.0007 1441.3907 C 495.0002 1441.403 495 1441.4154 495 1441.4278 L 495 1455.59 C 495 1455.6028 494.99975 1455.6156 494.99926 1455.6285 L 494.4002 1471.2044 C 494.40006 1471.2076 494.3999 1471.2109 494.39977 1471.2141 L 493.60006 1487.808 C 493.6 1487.8088 493.6 1487.8096 493.59994 1487.8105 L 492.8003 1503.6037 C 492.8001 1503.6074 492.7999 1503.6111 492.79965 1503.6148 L 491.60035 1523.0036 C 491.6001 1523.0074 491.59986 1523.0111 491.5996 1523.0149 L 489.80064 1547.6005 C 489.8002 1547.6063 489.79973 1547.6122 489.7992 1547.618 L 488.0001 1567.4083 C 488 1567.409 488 1567.4096 487.9999 1567.4102 L 486.2034 1586.7723 C 486.20114 1586.797 486.19795 1586.8214 486.19385 1586.8458 L 484.83104 1594.9461 C 484.8306 1594.9488 484.83014 1594.9514 484.82967 1594.9541 L 482.80746 1606.4065 C 482.8025 1606.4346 482.7987 1606.463 482.7962 1606.4914 L 481.0824 1625.6863 C 481.0359 1626.207 481.39836 1626.6756 481.91405 1626.7616 Z" fill="#ff57d0"/>
        <path d="M 481.91405 1626.7616 L 504.9828 1630.6064 C 504.99427 1630.6083 505.00576 1630.61 505.0173 1630.6115 L 533.9769 1634.4062 C 533.9923 1634.4082 534.00775 1634.4099 534.02323 1634.4112 L 564.9759 1637.0072 C 564.992 1637.0086 565.00806 1637.0095 565.02416 1637.0101 L 604.58234 1638.4086 C 604.5941 1638.409 604.6059 1638.4092 604.6177 1638.4092 L 636.5844 1638.4092 C 636.5948 1638.4092 636.6052 1638.409 636.6156 1638.4088 L 662.1803 1637.6099 C 662.1934 1637.6095 662.2066 1637.6088 662.2197 1637.6079 L 684.7852 1636.0103 C 684.79505 1636.0096 684.8049 1636.0087 684.8148 1636.0078 L 710.5811 1633.4112 C 710.5937 1633.4099 710.6063 1633.4084 710.6188 1633.4066 L 734.9809 1630.012 C 734.9936 1630.0101 735.0063 1630.0081 735.019 1630.0058 L 753.06705 1626.7762 C 753.5902 1626.6826 753.9487 1626.1961 753.8833 1625.6687 L 750.60025 1599.2112 C 750.6001 1599.21 750.5999 1599.2086 750.5998 1599.2072 L 747.002 1569.226 C 747.0007 1569.2149 746.9995 1569.2036 746.99856 1569.1923 L 744.6009 1541.2199 C 744.6003 1541.2128 744.5998 1541.2057 744.5993 1541.1986 L 743.20016 1519.4116 C 743.20005 1519.41 743.19995 1519.4085 743.1998 1519.4069 L 741.6003 1496.214 C 741.6001 1496.2108 741.5999 1496.2077 741.5997 1496.2045 L 740.4012 1476.0294 C 740.4004 1476.016 740.3999 1476.0025 740.3996 1475.9891 L 740.0001 1455.0144 C 740 1455.011 739.99995 1455.0075 739.99985 1455.004 L 739.4002 1434.6144 C 739.40005 1434.611 739.4 1434.6075 739.3999 1434.604 L 739.0005 1413.6347 C 739.0002 1413.6177 739.0003 1413.6007 739.0008 1413.5838 L 739.5999 1394.8113 C 739.6 1394.81 739.6 1394.8086 739.6001 1394.8072 L 740.39735 1372.683 C 740.3991 1372.6339 740.4045 1372.585 740.4135 1372.5367 L 743.22885 1357.3583 C 743.2299 1357.3528 743.2308 1357.3474 743.2318 1357.3419 L 744.3241 1350.8509 C 744.3723 1350.5645 744.2937 1350.2714 744.1086 1350.0477 L 735.9651 1340.1997 C 735.8568 1340.0687 735.7837 1339.9123 735.7526 1339.7453 L 734.231 1331.5667 C 734.2105 1331.4564 734.1715 1331.3502 734.11575 1331.2528 L 718.5407 1304.0457 C 718.4487 1303.885 718.4031 1303.702 718.409 1303.517 L 719.5991 1266.2291 C 719.5997 1266.2097 719.59975 1266.1903 719.5992 1266.1709 L 719.2009 1251.0324 C 719.2003 1251.0108 719.2004 1250.9892 719.20125 1250.9676 L 719.5968 1240.6834 C 719.5989 1240.6279 719.6057 1240.5727 719.617 1240.5183 L 722.2164 1228.0174 C 722.2257 1227.9726 722.2319 1227.9272 722.235 1227.8815 L 722.9523 1217.3034 C 722.9809 1216.8816 722.7412 1216.4874 722.3535 1216.3188 L 713.2812 1212.3722 C 713.24735 1212.3575 713.2127 1212.3446 713.1774 1212.3337 L 699.6474 1208.1554 C 699.636 1208.1519 699.62465 1208.1486 699.6132 1208.1455 L 684.8429 1204.1535 C 684.8345 1204.1512 684.8262 1204.1489 684.818 1204.1464 L 673.4425 1200.7537 C 673.4344 1200.7513 673.4263 1200.749 673.4181 1200.7468 L 664.952 1198.4539 C 664.4189 1198.3095 663.8697 1198.6246 663.72536 1199.1577 C 663.7123 1199.2058 663.7029 1199.2549 663.6972 1199.3045 L 663.23095 1203.3451 C 663.2306 1203.3484 663.2302 1203.3518 663.22985 1203.3551 L 662.8359 1207.0979 C 662.8322 1207.1327 662.8304 1207.1676 662.8304 1207.2026 L 662.8304 1210.4638 C 662.8304 1210.5212 662.8254 1210.5786 662.8156 1210.6351 L 662.0417 1215.0848 C 662.0342 1215.1283 662.0295 1215.1722 662.0277 1215.2164 L 661.41095 1230.7248 C 661.4038 1230.905 661.3481 1231.0797 661.2497 1231.2308 L 655.867 1239.4971 C 655.8225 1239.5654 655.7698 1239.6281 655.7101 1239.6836 L 647.2249 1247.5768 C 647.2083 1247.5923 647.1912 1247.6071 647.1736 1247.6214 L 639.90804 1253.5124 C 639.8364 1253.5705 639.757 1253.6184 639.67216 1253.6548 L 631.59755 1257.1153 C 631.46734 1257.1711 631.32676 1257.1986 631.1851 1257.196 L 620.6209 1257.0004 C 620.607 1257.0001 620.59304 1257.0002 620.5791 1257.0005 L 612.13796 1257.1968 C 612.0464 1257.1989 611.955 1257.1885 611.8663 1257.1657 L 604.27574 1255.2194 C 604.2253 1255.2065 604.174 1255.1975 604.1222 1255.1926 L 596.0731 1254.426 C 595.8943 1254.409 595.72346 1254.3441 595.5784 1254.2383 L 588.5147 1249.0837 C 588.4386 1249.0282 588.37076 1248.9622 588.3131 1248.8877 L 576.8721 1234.0932 C 576.8242 1234.0313 576.78374 1233.964 576.75156 1233.8926 L 572.3161 1224.0574 C 572.2402 1223.8891 572.2124 1223.703 572.2357 1223.5199 L 573.4129 1214.2872 C 573.4245 1214.1962 573.4235 1214.1041 573.41 1214.0134 L 572.0413 1204.8234 C 572.034 1204.7746 572.0304 1204.7254 572.0304 1204.676 L 572.0304 1199.1126 C 572.0304 1198.5603 571.58266 1198.1126 571.0304 1198.1126 C 570.9287 1198.1126 570.8276 1198.1281 570.73054 1198.1586 L 565.03206 1199.9496 C 565.03093 1199.9499 565.0298 1199.9503 565.0287 1199.9506 L 556.23116 1202.7499 C 556.23063 1202.75 556.2301 1202.7502 556.2296 1202.7504 L 546.2549 1205.9423 C 546.23854 1205.9475 546.2221 1205.9523 546.2055 1205.9567 L 535.6413 1208.7472 C 535.634 1208.7491 535.62675 1208.7511 535.6195 1208.7532 L 525.24096 1211.747 C 525.2339 1211.7491 525.22686 1211.7512 525.21985 1211.7534 L 519.0249 1213.6893 C 518.8965 1213.7294 518.7776 1213.795 518.67516 1213.8822 L 513.98436 1217.873 C 513.74264 1218.0786 513.6129 1218.3868 513.6347 1218.7034 L 513.9979 1223.9691 C 513.9993 1223.9897 514.00135 1224.0102 514.00405 1224.0307 L 514.99146 1231.535 C 514.99715 1231.5783 515 1231.6219 515 1231.6655 L 515 1238.7428 C 515 1238.7809 515.0022 1238.819 515.0065 1238.8568 L 516.3908 1250.9198 C 516.3969 1250.9732 516.39874 1251.027 516.3962 1251.0806 L 515.80367 1263.7218 C 515.8012 1263.7739 515.80286 1263.826 515.80854 1263.8778 L 517.56904 1279.9179 C 517.5893 1280.1023 517.5578 1280.2888 517.47814 1280.4563 L 511.8779 1292.2362 C 511.8264 1292.3445 511.7948 1292.4612 511.7846 1292.5807 L 511.0155 1301.618 C 511.00525 1301.7384 510.9733 1301.8558 510.9212 1301.9647 L 506.6504 1310.8946 C 506.6169 1310.9646 506.5917 1311.0383 506.57525 1311.1141 L 503.0362 1327.4332 C 503.01223 1327.5436 502.96975 1327.6492 502.91054 1327.7454 L 495.14017 1340.3717 C 495.06776 1340.4894 495.0205 1340.6208 495.0014 1340.7576 L 493.6085 1350.7391 C 493.60284 1350.7797 493.5997 1350.8205 493.599 1350.8615 L 493.40076 1363.3611 C 493.40025 1363.3932 493.4013 1363.4252 493.40386 1363.4572 L 494.7968 1380.7692 C 494.7989 1380.7959 494.8 1380.8226 494.8 1380.8494 L 494.8 1394.19 C 494.8 1394.2028 494.80025 1394.2156 494.80074 1394.2285 L 495.3995 1409.7965 C 495.39984 1409.805 495.40006 1409.8135 495.40017 1409.822 L 495.5997 1425.1842 C 495.5999 1425.2009 495.5997 1425.2176 495.5991 1425.2342 L 495.0007 1441.3907 C 495.0002 1441.403 495 1441.4154 495 1441.4278 L 495 1455.59 C 495 1455.6028 494.99975 1455.6156 494.99926 1455.6285 L 494.4002 1471.2044 C 494.40006 1471.2076 494.3999 1471.2109 494.39977 1471.2141 L 493.60006 1487.808 C 493.6 1487.8088 493.6 1487.8096 493.59994 1487.8105 L 492.8003 1503.6037 C 492.8001 1503.6074 492.7999 1503.6111 492.79965 1503.6148 L 491.60035 1523.0036 C 491.6001 1523.0074 491.59986 1523.0111 491.5996 1523.0149 L 489.80064 1547.6005 C 489.8002 1547.6063 489.79973 1547.6122 489.7992 1547.618 L 488.0001 1567.4083 C 488 1567.409 488 1567.4096 487.9999 1567.4102 L 486.2034 1586.7723 C 486.20114 1586.797 486.19795 1586.8214 486.19385 1586.8458 L 484.83104 1594.9461 C 484.8306 1594.9488 484.83014 1594.9514 484.82967 1594.9541 L 482.80746 1606.4065 C 482.8025 1606.4346 482.7987 1606.463 482.7962 1606.4914 L 481.0824 1625.6863 C 481.0359 1626.207 481.39836 1626.6756 481.91405 1626.7616 Z" stroke="#7f8080" stroke-linecap="round" stroke-linejoin="round" stroke-width=".5"/>
      </g>
      <g id="Graphic_13">
        <path d="M 571.1 1197.2 L 571.3 1201 L 571.9 1207 L 572.5 1212.2 L 573.5 1216.2 L 574.1 1218.6 L 579.5 1221.2 L 585.9 1223.2 L 592.6 1224.8 L 599.8 1226.2 L 606.4 1227 L 613 1227.4 L 620.8 1227.8 L 629 1227.2 L 636.9 1226 L 644.3 1224.6 L 651.5 1222.4 L 657.1 1220.4 L 661.6 1217.6 L 663.8 1217 L 664.6 1209.4 L 663.7 1205.4 L 663.9 1200.2 L 663.6 1197 L 660.7 1199 L 655.7 1202.4 L 651.7 1205 L 644.7 1207.8 L 637.3 1209.6 L 630.7 1210.6 L 624.5 1211.2 L 618.1 1211.2 L 610.3 1211 L 603.2 1210.8 L 596.9 1209.8 L 592.1 1208.4 L 585.9 1206.4 L 580.5 1204 L 574.7 1200.2 Z" fill="blue"/>
        <path d="M 571.1 1197.2 L 571.3 1201 L 571.9 1207 L 572.5 1212.2 L 573.5 1216.2 L 574.1 1218.6 L 579.5 1221.2 L 585.9 1223.2 L 592.6 1224.8 L 599.8 1226.2 L 606.4 1227 L 613 1227.4 L 620.8 1227.8 L 629 1227.2 L 636.9 1226 L 644.3 1224.6 L 651.5 1222.4 L 657.1 1220.4 L 661.6 1217.6 L 663.8 1217 L 664.6 1209.4 L 663.7 1205.4 L 663.9 1200.2 L 663.6 1197 L 660.7 1199 L 655.7 1202.4 L 651.7 1205 L 644.7 1207.8 L 637.3 1209.6 L 630.7 1210.6 L 624.5 1211.2 L 618.1 1211.2 L 610.3 1211 L 603.2 1210.8 L 596.9 1209.8 L 592.1 1208.4 L 585.9 1206.4 L 580.5 1204 L 574.7 1200.2 Z" stroke="#50b059" stroke-linecap="round" stroke-linejoin="round" stroke-width=".5"/>
      </g>
      <g id="Graphic_12">
        <path d="M 571.9 1202.6 L 572.5 1208.8 L 572.7 1211.8 L 575.1 1213.6 L 580.1 1216 L 583.9 1217.4 L 588.1 1219 L 592.5 1220.6 L 597.5 1221.8 L 602.9 1222.6 L 609.5 1223.2 L 615.9 1223.4 L 622.9 1223.6 L 629.5 1223.2 L 637.7 1221.8 L 644.7 1220.2 L 650.9 1218.2 L 656.3 1215.8 L 659.7 1213.8 L 661.9 1212.4 L 662.5 1209.6 L 662.9 1206.8 L 663.1 1202.4 L 661.7 1204 L 661.5 1204.2 L 657.3 1207.2 L 651.9 1210 L 644.7 1212.6 L 637.1815 1214.2922 L 630.9 1215.4 L 624.7 1215.8 L 618.1 1216.2 L 610.3 1216 L 603 1215.6 L 596.7815 1214.413 L 590.7 1213 L 585.7 1211.2 L 580.7 1209 L 576.7 1206.6 Z" fill="blue"/>
      </g>
      <g id="Graphic_11">
        <path d="M 551 1204.2 L 555.8 1202.6 L 560.2 1200.8 L 566 1199.4 L 571 1197.8 L 572 1203 L 572 1207.6 L 572.6 1211.6 L 573.6 1216.8 L 575 1221.4 L 576.4 1225.4 L 577.6 1229.2 L 579.8 1233.6 L 581.6 1237 L 584 1240.4 L 586.6 1243.7925 L 590 1246.9925 L 593.6 1249.5925 L 598.6 1251.9925 L 603 1253.7925 L 608.2 1254.7925 L 613.2 1255.9925 L 618.2 1255.9925 L 622.6 1255.7925 L 627 1255.3925 L 631.8 1253.9925 L 635.6 1252.5925 L 638.6 1251.1925 L 641.4 1249.1925 L 645 1246.5925 L 647.2 1244.5925 L 649.6 1241.9925 L 651.8 1239.1925 L 654.2 1235.9925 L 656.2 1232.5925 L 658 1229.3925 L 660 1224.7925 L 661.4 1220.3925 L 662.2 1216.3925 L 662.6 1212.8 L 663.6 1206.9925 L 663.6 1203.3925 L 663.6 1199.7925 L 663.6 1197.1925 L 670 1199.1925 L 677.4 1201.1925 L 684.2 1202.9925 L 683.8 1206.7925 L 682.8 1211.1925 L 682.2 1214.9925 L 681.6 1219.1925 L 680.8 1223.1925 L 680 1225.7925 L 679 1229.5925 L 677.6 1233.3925 L 676 1237.7925 L 674.2 1241.5925 L 672.2 1245.5925 L 669.4 1249.9925 L 667.2 1253.5925 L 663.8 1257.3925 L 661 1259.9925 L 658.2 1262.7925 L 655.6 1264.9925 L 652 1267.3925 L 649.2 1268.7925 L 645.4 1270.7925 L 641.8 1272.1925 L 638.4 1273.3925 L 635 1274.5925 L 631.4 1275.3925 L 627.4 1275.7925 L 622.4 1276.3925 L 618.6 1276.5925 L 614 1276.5925 L 610.4 1276.5925 L 605.4 1275.9925 L 601.6 1275.1925 L 597.8 1274.4 L 594 1273 L 589.8 1271.2 L 586.2 1269.5925 L 581.8 1267.3925 L 579 1265.3925 L 576 1262.9925 L 573 1259.9925 L 570.2 1256.9925 L 567.4 1253.9925 L 565.4 1251.1925 L 563.6 1248.3925 L 561.6 1245.1925 L 559.6 1241.1925 L 558 1236.9925 L 556.6 1232.3925 L 555.8 1229.7925 L 554.8 1225.9925 L 553.8 1222.1925 L 553.2 1218.1925 L 552.2 1213.9925 L 551.6 1210.1925 Z" fill="#ff57d0"/>
        <path d="M 551 1204.2 L 555.8 1202.6 L 560.2 1200.8 L 566 1199.4 L 571 1197.8 L 572 1203 L 572 1207.6 L 572.6 1211.6 L 573.6 1216.8 L 575 1221.4 L 576.4 1225.4 L 577.6 1229.2 L 579.8 1233.6 L 581.6 1237 L 584 1240.4 L 586.6 1243.7925 L 590 1246.9925 L 593.6 1249.5925 L 598.6 1251.9925 L 603 1253.7925 L 608.2 1254.7925 L 613.2 1255.9925 L 618.2 1255.9925 L 622.6 1255.7925 L 627 1255.3925 L 631.8 1253.9925 L 635.6 1252.5925 L 638.6 1251.1925 L 641.4 1249.1925 L 645 1246.5925 L 647.2 1244.5925 L 649.6 1241.9925 L 651.8 1239.1925 L 654.2 1235.9925 L 656.2 1232.5925 L 658 1229.3925 L 660 1224.7925 L 661.4 1220.3925 L 662.2 1216.3925 L 662.6 1212.8 L 663.6 1206.9925 L 663.6 1203.3925 L 663.6 1199.7925 L 663.6 1197.1925 L 670 1199.1925 L 677.4 1201.1925 L 684.2 1202.9925 L 683.8 1206.7925 L 682.8 1211.1925 L 682.2 1214.9925 L 681.6 1219.1925 L 680.8 1223.1925 L 680 1225.7925 L 679 1229.5925 L 677.6 1233.3925 L 676 1237.7925 L 674.2 1241.5925 L 672.2 1245.5925 L 669.4 1249.9925 L 667.2 1253.5925 L 663.8 1257.3925 L 661 1259.9925 L 658.2 1262.7925 L 655.6 1264.9925 L 652 1267.3925 L 649.2 1268.7925 L 645.4 1270.7925 L 641.8 1272.1925 L 638.4 1273.3925 L 635 1274.5925 L 631.4 1275.3925 L 627.4 1275.7925 L 622.4 1276.3925 L 618.6 1276.5925 L 614 1276.5925 L 610.4 1276.5925 L 605.4 1275.9925 L 601.6 1275.1925 L 597.8 1274.4 L 594 1273 L 589.8 1271.2 L 586.2 1269.5925 L 581.8 1267.3925 L 579 1265.3925 L 576 1262.9925 L 573 1259.9925 L 570.2 1256.9925 L 567.4 1253.9925 L 565.4 1251.1925 L 563.6 1248.3925 L 561.6 1245.1925 L 559.6 1241.1925 L 558 1236.9925 L 556.6 1232.3925 L 555.8 1229.7925 L 554.8 1225.9925 L 553.8 1222.1925 L 553.2 1218.1925 L 552.2 1213.9925 L 551.6 1210.1925 Z" stroke="#00751a" stroke-linecap="round" stroke-linejoin="round" stroke-width=".5"/>
      </g>
      <g id="Graphic_10">
        <path d="M 556.8992 1201.6889 L 565.4992 1199.2889 L 565.4992 1204.6889 L 565.6992 1209.2889 L 566.2992 1213.4889 L 566.6992 1217.0889 L 567.6992 1220.8889 L 568.6992 1225.4889 L 570.0992 1229.8889 L 571.4992 1233.0889 L 573.6992 1237.4889 L 575.8992 1241.2889 L 578.0992 1244.2889 L 580.4992 1247.2889 L 583.6992 1250.2889 L 586.6992 1253.0889 L 590.2992 1255.2889 L 594.6992 1257.6889 L 599.4992 1259.6889 L 604.8992 1261.2889 L 610.4992 1262.2889 L 616.0992 1262.4889 L 620.8992 1262.2889 L 625.4992 1261.8889 L 630.2992 1260.8889 L 635.6992 1259.8889 L 640.2992 1257.6889 L 644.8992 1255.0889 L 649.8992 1251.8889 L 653.8992 1248.2889 L 657.6992 1244.4889 L 660.2992 1240.2889 L 662.2992 1236.2889 L 664.6992 1231.6889 L 666.2992 1226.6889 L 667.2992 1221.8889 L 668.2992 1218.4889 L 669.2992 1213.6889 L 670.0992 1208.4889 L 670.4992 1204.2889 L 670.4992 1200.0889 L 677.2992 1201.6889 L 676.8992 1208.2889 L 676.2992 1214.6889 L 675.6992 1219.4889 L 674.2992 1224.2889 L 673.2992 1228.6889 L 672.0992 1232.0889 L 670.4992 1235.6889 L 669.0992 1239.2889 L 667.4992 1242.6889 L 665.2992 1246.4889 L 663.2992 1249.6889 L 659.6992 1253.2889 L 657.2992 1256.0889 L 653.4992 1259.4889 L 649.2992 1262.4889 L 645.0992 1264.8889 L 639.4992 1267.0889 L 635.4992 1268.4889 L 629.6992 1269.6889 L 622.8992 1270.6889 L 618.0992 1270.6889 L 612.2992 1270.2889 L 607.4992 1269.8889 L 602.8992 1269.0889 L 598.4992 1268.0889 L 594.0992 1266.4889 L 588.8992 1263.6889 L 583.8992 1260.8889 L 579.4992 1257.4889 L 576.4992 1254.4889 L 573.2992 1251.4889 L 570.8992 1248.4889 L 568.8992 1245.0889 L 566.8992 1241.2889 L 565.6992 1239.0889 L 564.2992 1236.0889 L 562.8992 1232.0889 L 561.4992 1228.0889 L 560.4992 1223.8889 L 559.6992 1219.2889 L 558.4992 1214.0889 L 557.8992 1209.0889 Z" fill="blue"/>
      </g>
      <g id="Graphic_9">
        <path d="M 511.6 1215.9 L 523.2 1212.2 L 535.6 1208.4 L 536.6 1219.1 L 537.2 1227.9 L 537.8 1235.9 L 538 1244.7 L 538 1253.5 L 537.8 1263.5 L 537.2 1274.1 L 536 1285.7 L 534.2 1298.3 L 531.2 1310.7 L 528 1320.5 L 524.4 1332.1 L 520.6 1340.7 L 515.8 1349.7 L 510.8 1358.5 L 505.2 1367.1 L 497.4 1378.9 L 494.6 1381.8 L 494.2 1376.2 L 493.8 1371.8 L 493.4 1365.6 L 491.8 1358.2 L 490.6 1354.2 L 489.6 1350.4 L 492.6 1345 L 494.8 1340.8 L 498.2 1333.2 L 502 1323.8 L 504.6 1315 L 507.2 1305.6 L 509.6 1295.6 L 510.8 1287 L 512.2 1277.8 L 513.2 1269.8 L 514 1263 L 514.4 1253.4 L 514.2 1245.4 L 514.2 1237.6 L 513.8 1230.2 L 512.8 1224 L 512.2 1220.8 Z" fill="#ff57d0"/>
        <path d="M 511.6 1215.9 L 523.2 1212.2 L 535.6 1208.4 L 536.6 1219.1 L 537.2 1227.9 L 537.8 1235.9 L 538 1244.7 L 538 1253.5 L 537.8 1263.5 L 537.2 1274.1 L 536 1285.7 L 534.2 1298.3 L 531.2 1310.7 L 528 1320.5 L 524.4 1332.1 L 520.6 1340.7 L 515.8 1349.7 L 510.8 1358.5 L 505.2 1367.1 L 497.4 1378.9 L 494.6 1381.8 L 494.2 1376.2 L 493.8 1371.8 L 493.4 1365.6 L 491.8 1358.2 L 490.6 1354.2 L 489.6 1350.4 L 492.6 1345 L 494.8 1340.8 L 498.2 1333.2 L 502 1323.8 L 504.6 1315 L 507.2 1305.6 L 509.6 1295.6 L 510.8 1287 L 512.2 1277.8 L 513.2 1269.8 L 514 1263 L 514.4 1253.4 L 514.2 1245.4 L 514.2 1237.6 L 513.8 1230.2 L 512.8 1224 L 512.2 1220.8 Z" stroke="#00751a" stroke-linecap="round" stroke-linejoin="round" stroke-width=".5"/>
      </g>
      <g id="Graphic_8">
        <path d="M 519.4 1213.4 L 527 1211 L 528.12956 1218.2241 L 529.52956 1226.4241 L 530.12956 1233.6241 L 530.52956 1241.2241 L 530.72956 1249.4241 L 530.92956 1256.8241 L 530.32956 1264.4241 L 529.92956 1273.0241 L 528.72956 1281.2241 L 527.92956 1288.4241 L 526.72956 1295.0241 L 525.12956 1302.4241 L 522.92956 1310.4241 L 520.92956 1316.2241 L 518.92956 1323.6241 L 515.72956 1330.8241 L 512.52956 1338.0241 L 509.32956 1344.0241 L 505.52956 1350.6241 L 501.32956 1357.6241 L 498.12956 1362.8241 L 493.8 1368.8 L 491.8 1358.2 L 498.2 1348.8 L 502 1341.6 L 505.2 1335.2 L 507.4 1329.4 L 510 1323.4 L 512.4 1316.8 L 515.6 1307.6 L 517 1301 L 517.8 1296 L 518.6 1290.6 L 520 1284.8 L 520.6 1277.8 L 521.6 1270.8 L 521.8 1263.4 L 522.6 1255.8 L 522.8 1248.4 L 522.8 1242.4 L 522.72956 1236.4241 L 521.72956 1228.2241 L 520.72956 1220.6241 Z" fill="blue"/>
      </g>
      <g id="Graphic_7">
        <path d="M 724.4 1215.7 L 712.8 1212 L 700.4 1208.2 L 699.4 1218.9 L 698.8 1227.7 L 698.2 1235.7 L 698 1244.5 L 698 1253.3 L 698.2 1263.3 L 698.8 1273.9 L 700 1285.5 L 701.8 1298.1 L 704.8 1310.5 L 708 1320.3 L 711.6 1331.9 L 715.4 1340.5 L 720.2 1349.5 L 725.2 1358.3 L 730.8 1366.9 L 738.6 1378.7 L 741.4 1381.6 L 741.8 1376 L 742.2 1371.6 L 742.6 1365.4 L 744.2 1358 L 745.4 1354 L 746.4 1350.2 L 743.4 1344.8 L 741.2 1340.6 L 737.8 1333 L 734 1323.6 L 731.4 1314.8 L 728.8 1305.4 L 726.4 1295.4 L 725.2 1286.8 L 723.8 1277.6 L 722.8 1269.6 L 722 1262.8 L 721.6 1253.2 L 721.8 1245.2 L 721.8 1237.4 L 722.2 1230 L 723.2 1223.8 L 723.8 1220.6 Z" fill="#ff57d0"/>
        <path d="M 724.4 1215.7 L 712.8 1212 L 700.4 1208.2 L 699.4 1218.9 L 698.8 1227.7 L 698.2 1235.7 L 698 1244.5 L 698 1253.3 L 698.2 1263.3 L 698.8 1273.9 L 700 1285.5 L 701.8 1298.1 L 704.8 1310.5 L 708 1320.3 L 711.6 1331.9 L 715.4 1340.5 L 720.2 1349.5 L 725.2 1358.3 L 730.8 1366.9 L 738.6 1378.7 L 741.4 1381.6 L 741.8 1376 L 742.2 1371.6 L 742.6 1365.4 L 744.2 1358 L 745.4 1354 L 746.4 1350.2 L 743.4 1344.8 L 741.2 1340.6 L 737.8 1333 L 734 1323.6 L 731.4 1314.8 L 728.8 1305.4 L 726.4 1295.4 L 725.2 1286.8 L 723.8 1277.6 L 722.8 1269.6 L 722 1262.8 L 721.6 1253.2 L 721.8 1245.2 L 721.8 1237.4 L 722.2 1230 L 723.2 1223.8 L 723.8 1220.6 Z" stroke="#00751a" stroke-linecap="round" stroke-linejoin="round" stroke-width=".5"/>
      </g>
      <g id="Graphic_6">
        <path d="M 716.7296 1213.4 L 709.1296 1211 L 708 1218.2241 L 706.6 1226.4241 L 706 1233.6241 L 705.6 1241.2241 L 705.4 1249.4241 L 705.2 1256.8241 L 705.8 1264.4241 L 706.2 1273.0241 L 707.4 1281.2241 L 708.2 1288.4241 L 709.4 1295.0241 L 711 1302.4241 L 713.2 1310.4241 L 715.2 1316.2241 L 717.2 1323.6241 L 720.4 1330.8241 L 723.6 1338.0241 L 726.8 1344.0241 L 730.6 1350.6241 L 734.8 1357.6241 L 738 1362.8241 L 742.3296 1368.8 L 744.3296 1358.2 L 737.9296 1348.8 L 734.1296 1341.6 L 730.9296 1335.2 L 728.7296 1329.4 L 726.1296 1323.4 L 723.7296 1316.8 L 720.5296 1307.6 L 719.1296 1301 L 718.3296 1296 L 717.5296 1290.6 L 716.1296 1284.8 L 715.5296 1277.8 L 714.5296 1270.8 L 714.3296 1263.4 L 713.5296 1255.8 L 713.3296 1248.4 L 713.3296 1242.4 L 713.4 1236.4241 L 714.4 1228.2241 L 715.4 1220.6241 Z" fill="blue"/>
      </g>
      <g id="Graphic_5">
        <path d="M 545.7881 1380.5797 L 563.2881 1363.0797 L 595.7881 1363.0797 L 611.7881 1380.6797 L 611.7881 1452.0797 L 596.1881 1473.0797 L 563.9881 1473.0797 L 546.1881 1452.2797 L 546.2881 1385.0797 L 567.9881 1384.6797 L 567.9881 1450.8797 L 590.1881 1450.8797 L 590.2881 1384.5797 L 567.5881 1384.6797 L 546.7881 1388.2797 L 545.9881 1385.2797 Z" fill="blue"/>
      </g>
      <g id="Graphic_4">
        <path d="M 500.1 1379.4 L 502.2 1388.2382 L 502.8 1396.8382 L 503.8 1405.2382 L 504.8 1414.4382 L 505.8 1426.6382 L 506 1436.6382 L 506.6 1449.6382 L 507 1460.8382 L 506.6 1471.4382 L 506.6 1483.0382 L 506.2 1491.6382 L 506.2 1505.4382 L 506.2 1515.8382 L 505.6 1529.4382 L 505.4 1540.2382 L 505 1550.8382 L 504.6 1564.2382 L 504 1576.8382 L 503 1589.6382 L 502.4 1599.6382 L 502 1613.2382 L 501.4 1623.0382 L 501.2 1629.4382 L 506.4 1631.0382 L 506.6 1621.0382 L 506.8 1612.2382 L 507.4 1600.6382 L 508 1590.4382 L 508.4 1577.6382 L 509 1565.0382 L 509.6 1551.2382 L 510.2 1540.0382 L 510.2 1529.2382 L 510.8 1516.2382 L 510.8 1505.6382 L 510.8 1492.2382 L 511 1482.0382 L 511.2 1470.8382 L 511 1461.8382 L 510.8 1448.8382 L 510.6 1436.2382 L 510.2 1425.2382 L 509.8 1416.4382 L 509.2 1407.2382 L 508.2 1398.0382 L 507.4 1389.2382 L 505.6 1380.2382 L 502.1 1371.8 L 499.3 1376 Z" fill="blue"/>
      </g>
      <g id="Graphic_3">
        <path d="M 734.1 1379.412 L 732 1388.2502 L 731.4 1396.8502 L 730.4 1405.2502 L 729.4 1414.4502 L 728.4 1426.6502 L 728.2 1436.6502 L 727.6 1449.6502 L 727.2 1460.8502 L 727.6 1471.4502 L 727.6 1483.0502 L 728 1491.6502 L 728 1505.4502 L 728 1515.8502 L 728.6 1529.4502 L 728.8 1540.2502 L 729.2 1550.8502 L 729.6 1564.2502 L 730.2 1576.8502 L 731.2 1589.6502 L 731.8 1599.6502 L 732.2 1613.2502 L 732.8 1623.0502 L 733 1630.4 L 727.8 1631.0502 L 727.6 1621.0502 L 727.4 1612.2502 L 726.8 1600.6502 L 726.2 1590.4502 L 725.8 1577.6502 L 725.2 1565.0502 L 724.6 1551.2502 L 724 1540.0502 L 724 1529.2502 L 723.4 1516.2502 L 723.4 1505.6502 L 723.4 1492.2502 L 723.2 1482.0502 L 723 1470.8502 L 723.2 1461.8502 L 723.4 1448.8502 L 723.6 1436.2502 L 724 1425.2502 L 724.4 1416.4502 L 725 1407.2502 L 726 1398.0502 L 726.8 1389.2502 L 728.6 1380.2502 L 732.4 1368 L 735.6 1374.2 Z" fill="blue"/>
      </g>
      <g id="Graphic_2">
        <path d="M 628.0889 1380.5797 L 645.5889 1363.0797 L 678.0889 1363.0797 L 694.0889 1380.6797 L 694.0889 1452.0797 L 678.4889 1473.0797 L 646.2889 1473.0797 L 628.4889 1452.2797 L 628.5889 1385.0797 L 650.2889 1384.6797 L 650.2889 1450.8797 L 672.4889 1450.8797 L 672.5889 1384.5797 L 649.8889 1384.6797 L 629.0889 1388.2797 L 628.2889 1385.2797 Z" fill="blue"/>
      </g>
    </g>
  </g>
</svg>
