<?xml version="1.0" encoding="UTF-8" standalone="no"?>
<!DOCTYPE svg PUBLIC "-//W3C//DTD SVG 1.1//EN" "http://www.w3.org/Graphics/SVG/1.1/DTD/svg11.dtd">
<svg xmlns="http://www.w3.org/2000/svg" xmlns:xl="http://www.w3.org/1999/xlink" version="1.1" viewBox="-36.5 -432.5 432.4053 449.4" width="432.4053pt" height="449.4pt" xmlns:dc="http://purl.org/dc/elements/1.1/">
  <metadata> Produced by OmniGraffle 7.6.1 
    <dc:date>2021-08-02 22:15:48 +0000</dc:date>
  </metadata>
  <defs>
    <radialGradient cx="0" cy="0" r="1" id="Gradient" gradientUnits="userSpaceOnUse">
      <stop offset="0" stop-color="#cbcbcb"/>
      <stop offset="1" stop-color="#2b1b0b"/>
    </radialGradient>
    <radialGradient id="Obj_Gradient" xl:href="#Gradient" gradientTransform="translate(178.75925 -404.6) scale(70.26272)"/>
    <linearGradient x1="0" x2="1" id="Gradient_2" gradientUnits="userSpaceOnUse">
      <stop offset="0" stop-color="#006"/>
      <stop offset="1" stop-color="#006"/>
    </linearGradient>
    <linearGradient id="Obj_Gradient_2" xl:href="#Gradient_2" gradientTransform="translate(178.05925 -429.80915) rotate(90) scale(446.1183)"/>
    <linearGradient id="Obj_Gradient_3" xl:href="#Gradient_2" gradientTransform="translate(178.78697 -431.2441) rotate(90) scale(67.19884)"/>
    <linearGradient id="Obj_Gradient_4" xl:href="#Gradient_2" gradientTransform="translate(178.05925 -431.2441) rotate(90) scale(25)"/>
    <linearGradient id="Obj_Gradient_5" xl:href="#Gradient_2" gradientTransform="translate(353.2053 -288.09725) rotate(90) scale(36.8)"/>
    <linearGradient id="Obj_Gradient_6" xl:href="#Gradient_2" gradientTransform="translate(6.2000006 -287.15385) rotate(90) scale(36.8)"/>
  </defs>
  <g stroke="none" stroke-opacity="1" stroke-dasharray="none" fill="none" fill-opacity="1">
    <title>bochum</title>
    <g>
      <title>Capa 1</title>
      <path d="M 117.00565 -431.40955 L 125.1711 -428.29184 C 126.0291 -427.96424 126.90594 -427.68833 127.79692 -427.4656 L 141.5141 -424.0363 C 142.67576 -423.74587 143.85832 -423.5466 145.051 -423.44034 L 162.57715 -421.8786 C 163.165 -421.8262 163.75464 -421.7965 164.34478 -421.78946 L 179.8237 -421.6052 C 180.11404 -421.60173 180.40442 -421.60377 180.69469 -421.6113 L 195.118 -421.98594 C 195.47878 -421.9953 195.8393 -422.01317 196.19924 -422.0395 L 210.57053 -423.09107 C 211.56197 -423.1636 212.54766 -423.30036 213.5214 -423.50044 L 225.09436 -425.87845 C 226.13637 -426.09256 227.16226 -426.3787 228.16465 -426.7348 L 239.91664 -430.90986 C 241.00702 -431.29723 242.21021 -430.76646 242.65925 -429.7 L 242.65925 -429.7 C 243.1814 -428.4599 243.33338 -427.09515 243.09685 -425.77055 L 242.91637 -424.75986 C 242.6126 -423.0587 242.11806 -421.3972 241.44214 -419.8068 L 239.89892 -416.1757 C 239.34035 -414.8614 238.6606 -413.60202 237.86846 -412.4138 L 234.18268 -406.88515 C 233.43517 -405.7639 232.59057 -404.7105 231.6586 -403.7371 L 225.36354 -397.16226 C 224.49547 -396.2556 223.55463 -395.42154 222.55046 -394.6684 L 214.17555 -388.38723 C 213.29914 -387.7299 212.37688 -387.13606 211.41582 -386.6102 L 204.23062 -382.67867 C 202.9195 -381.96126 201.54156 -381.37336 200.11638 -380.9233 L 193.44347 -378.81607 C 191.7266 -378.2739 189.952 -377.9352 188.15613 -377.8069 L 181.26968 -377.31503 C 180.19738 -377.23844 179.12103 -377.2371 178.04854 -377.3111 L 169.61229 -377.8929 C 168.57811 -377.9642 167.54994 -378.10537 166.5348 -378.3154 L 159.3996 -379.79165 C 157.44765 -380.1955 155.55647 -380.8514 153.77362 -381.7428 L 149.1142 -384.0725 C 147.88007 -384.6896 146.70397 -385.41646 145.60012 -386.24434 L 139.91816 -390.5058 C 139.47903 -390.83517 139.05182 -391.18013 138.63737 -391.54005 L 132.88219 -396.53797 C 132.0679 -397.2451 131.30436 -398.00865 130.59722 -398.82294 L 126.192 -403.89562 C 125.43789 -404.764 124.74998 -405.6877 124.13406 -406.65895 L 120.40036 -412.5467 C 120.03979 -413.1153 119.70437 -413.69944 119.39505 -414.29745 L 117.77468 -417.43017 C 117.16553 -418.60785 116.65936 -419.836 116.26183 -421.1009 L 114.98159 -425.1744 C 114.76681 -425.85775 114.58408 -426.5508 114.43399 -427.2512 L 114.35925 -427.6 C 114.16458 -428.50843 114.27185 -429.45557 114.66473 -430.29746 L 114.75925 -430.5 C 115.15372 -431.3453 116.1342 -431.7423 117.00565 -431.40955 Z" fill="url(#Obj_Gradient)"/>
      <path d="M 117.00565 -431.40955 L 125.1711 -428.29184 C 126.0291 -427.96424 126.90594 -427.68833 127.79692 -427.4656 L 141.5141 -424.0363 C 142.67576 -423.74587 143.85832 -423.5466 145.051 -423.44034 L 162.57715 -421.8786 C 163.165 -421.8262 163.75464 -421.7965 164.34478 -421.78946 L 179.8237 -421.6052 C 180.11404 -421.60173 180.40442 -421.60377 180.69469 -421.6113 L 195.118 -421.98594 C 195.47878 -421.9953 195.8393 -422.01317 196.19924 -422.0395 L 210.57053 -423.09107 C 211.56197 -423.1636 212.54766 -423.30036 213.5214 -423.50044 L 225.09436 -425.87845 C 226.13637 -426.09256 227.16226 -426.3787 228.16465 -426.7348 L 239.91664 -430.90986 C 241.00702 -431.29723 242.21021 -430.76646 242.65925 -429.7 L 242.65925 -429.7 C 243.1814 -428.4599 243.33338 -427.09515 243.09685 -425.77055 L 242.91637 -424.75986 C 242.6126 -423.0587 242.11806 -421.3972 241.44214 -419.8068 L 239.89892 -416.1757 C 239.34035 -414.8614 238.6606 -413.60202 237.86846 -412.4138 L 234.18268 -406.88515 C 233.43517 -405.7639 232.59057 -404.7105 231.6586 -403.7371 L 225.36354 -397.16226 C 224.49547 -396.2556 223.55463 -395.42154 222.55046 -394.6684 L 214.17555 -388.38723 C 213.29914 -387.7299 212.37688 -387.13606 211.41582 -386.6102 L 204.23062 -382.67867 C 202.9195 -381.96126 201.54156 -381.37336 200.11638 -380.9233 L 193.44347 -378.81607 C 191.7266 -378.2739 189.952 -377.9352 188.15613 -377.8069 L 181.26968 -377.31503 C 180.19738 -377.23844 179.12103 -377.2371 178.04854 -377.3111 L 169.61229 -377.8929 C 168.57811 -377.9642 167.54994 -378.10537 166.5348 -378.3154 L 159.3996 -379.79165 C 157.44765 -380.1955 155.55647 -380.8514 153.77362 -381.7428 L 149.1142 -384.0725 C 147.88007 -384.6896 146.70397 -385.41646 145.60012 -386.24434 L 139.91816 -390.5058 C 139.47903 -390.83517 139.05182 -391.18013 138.63737 -391.54005 L 132.88219 -396.53797 C 132.0679 -397.2451 131.30436 -398.00865 130.59722 -398.82294 L 126.192 -403.89562 C 125.43789 -404.764 124.74998 -405.6877 124.13406 -406.65895 L 120.40036 -412.5467 C 120.03979 -413.1153 119.70437 -413.69944 119.39505 -414.29745 L 117.77468 -417.43017 C 117.16553 -418.60785 116.65936 -419.836 116.26183 -421.1009 L 114.98159 -425.1744 C 114.76681 -425.85775 114.58408 -426.5508 114.43399 -427.2512 L 114.35925 -427.6 C 114.16458 -428.50843 114.27185 -429.45557 114.66473 -430.29746 L 114.75925 -430.5 C 115.15372 -431.3453 116.1342 -431.7423 117.00565 -431.40955 Z" stroke="#7f8080" stroke-linecap="round" stroke-linejoin="round" stroke-width="1"/>
      <path d="M 51.33006 6.17293 L 65.0723 8.463303 C 65.25568 8.493866 65.43957 8.52123 65.6239 8.545384 L 93.97754 12.260689 C 94.22407 12.292992 94.47132 12.319545 94.71908 12.340326 L 124.96197 14.876826 C 125.21888 14.898373 125.47627 14.913707 125.73391 14.922816 L 164.66482 16.299161 C 164.85318 16.30582 165.04165 16.30915 165.23013 16.30915 L 196.69745 16.30915 C 196.86406 16.30915 197.03067 16.306548 197.1972 16.301344 L 222.232 15.519007 C 222.44224 15.512437 222.65233 15.501721 222.86215 15.486867 L 244.9099 13.925964 C 245.06822 13.914756 245.22636 13.901193 245.38427 13.88528 L 270.64475 11.339649 C 270.8465 11.319319 271.04783 11.295155 271.24865 11.267172 L 295.04134 7.951796 C 295.24535 7.923369 295.4488 7.891004 295.65156 7.85472 L 304.8474 6.209151 C 310.1745 5.2558794 313.82536 .30223347 313.15895 -5.068302 L 310.95136 -22.858874 C 310.9487 -22.88019 310.9461 -22.901514 310.94355 -22.92284 L 307.37973 -52.62137 C 307.35817 -52.80101 307.33966 -52.981004 307.3242 -53.161274 L 304.962 -80.72048 C 304.95226 -80.83406 304.94374 -80.94773 304.93643 -81.06149 L 303.5498 -102.65313 C 303.5482 -102.67828 303.54652 -102.70342 303.5448 -102.72856 L 301.95263 -125.81487 C 301.94914 -125.86552 301.9459 -125.9162 301.94287 -125.96688 L 300.7665 -145.76905 C 300.75376 -145.98356 300.74534 -146.19831 300.74125 -146.41316 L 300.34897 -167.008 C 300.3479 -167.06323 300.34658 -167.11846 300.34495 -167.17368 L 299.74983 -187.40802 C 299.7482 -187.46324 299.74686 -187.51847 299.7458 -187.5737 L 299.35515 -208.08324 C 299.34998 -208.35494 299.35173 -208.62672 299.3604 -208.89833 L 299.94634 -227.25794 C 299.94704 -227.27988 299.9478 -227.30182 299.94857 -227.32376 L 300.73666 -249.19307 C 300.7438 -249.39158 300.75466 -249.58993 300.7692 -249.78803 L 302.32668 -271.00865 C 302.3405 -271.19677 302.35096 -271.38512 302.3581 -271.5736 L 303.11256 -291.4725 C 303.13576 -292.08423 303.19404 -292.69414 303.28713 -293.2992 L 306.02613 -311.10272 C 306.1069 -311.62782 306.2138 -312.14857 306.3464 -312.66303 L 310.97466 -330.6207 C 311.08976 -331.06725 311.2241 -331.50864 311.37734 -331.9436 L 317.09812 -348.18325 C 317.2642 -348.65473 317.4523 -349.11816 317.66178 -349.57203 L 323.19333 -361.55707 C 323.29602 -361.77956 323.4038 -361.99967 323.5166 -362.2172 L 328.87883 -372.55864 C 328.92454 -372.6468 328.97106 -372.7345 329.0184 -372.82177 L 334.23437 -382.43873 C 334.97165 -383.7981 335.9213 -385.031 337.0474 -386.09086 L 337.0474 -386.09086 C 337.72258 -386.72633 337.75478 -387.78883 337.1193 -388.464 C 336.9948 -388.5963 336.84967 -388.7075 336.68955 -388.79327 L 333.4754 -390.51513 C 333.25676 -390.63226 333.0354 -390.7443 332.81155 -390.85114 L 324.95757 -394.59963 C 324.55096 -394.7937 324.13634 -394.9705 323.7148 -395.12956 L 314.03998 -398.78044 C 313.84494 -398.85404 313.64848 -398.92383 313.4507 -398.98975 L 300.75623 -403.22124 C 300.617 -403.26765 300.47716 -403.31214 300.3367 -403.3547 L 287.4532 -407.2588 C 287.38266 -407.28017 287.31227 -407.30203 287.24205 -407.32437 L 274.73805 -411.3029 C 274.34442 -411.42816 273.9558 -411.5686 273.57304 -411.72393 L 261.5971 -416.58373 C 260.76543 -416.9212 259.96364 -417.3281 259.2002 -417.8 L 249.58096 -423.74647 C 249.42526 -423.8427 249.27122 -423.94164 249.1189 -424.0432 L 244.2288 -427.30324 C 243.24742 -427.9575 242.3761 -428.7634 241.6474 -429.69086 L 241.6474 -429.69086 C 241.54178 -429.82526 241.34722 -429.8486 241.21282 -429.743 C 241.11007 -429.6623 241.0691 -429.52573 241.11042 -429.40177 L 241.2474 -428.99086 C 241.70664 -427.6131 241.8112 -426.1418 241.5514 -424.71297 L 241.15627 -422.5397 C 240.88506 -421.04804 240.4032 -419.6025 239.72519 -418.24645 L 238.19287 -415.1818 C 237.89617 -414.5884 237.56285 -414.01405 237.19484 -413.46203 L 233.99113 -408.65647 C 233.56253 -408.01357 233.08792 -407.40256 232.57104 -406.82824 L 228.009 -401.7593 C 227.96792 -401.71367 227.9266 -401.6683 227.885 -401.62312 L 221.89077 -395.1151 C 221.26303 -394.43356 220.57728 -393.80783 219.84125 -393.245 L 214.81707 -389.40297 C 214.37093 -389.0618 213.90712 -388.74435 213.4276 -388.45195 L 206.94119 -384.49683 C 206.27953 -384.0934 205.58943 -383.73853 204.87635 -383.4351 L 197.76094 -380.40726 C 196.95327 -380.06357 196.1187 -379.78693 195.26566 -379.58013 L 191.1866 -378.59127 C 190.36177 -378.3913 189.52233 -378.2573 188.67624 -378.1905 L 182.97603 -377.7405 C 182.5571 -377.7074 182.13702 -377.69086 181.7168 -377.69086 L 174.68447 -377.69086 C 173.92737 -377.69086 173.17122 -377.7446 172.42173 -377.85166 L 164.47528 -378.98687 C 163.99027 -379.05616 163.5087 -379.1477 163.0321 -379.26116 L 157.07087 -380.6805 C 155.92538 -380.95324 154.8135 -381.3516 153.75543 -381.8683 L 147.47543 -384.9353 C 146.99038 -385.1722 146.51763 -385.43346 146.05899 -385.71814 L 141.84712 -388.3324 C 141.24795 -388.7043 140.67403 -389.1154 140.1291 -389.563 L 135.683 -393.2152 C 135.4593 -393.39893 135.24063 -393.5887 135.02723 -393.78433 L 131.22489 -397.2698 C 130.77359 -397.6835 130.34641 -398.12275 129.94546 -398.5854 L 125.82671 -403.3378 C 125.50733 -403.7063 125.20496 -404.08923 124.92056 -404.48537 L 120.4909 -410.65525 C 119.99601 -411.34456 119.55674 -412.07215 119.17725 -412.83114 L 116.60078 -417.98406 C 116.56519 -418.05526 116.53012 -418.1267 116.49559 -418.19843 L 115.24739 -420.79086 C 114.39667 -422.5577 114.04115 -424.52226 114.21869 -426.4752 L 114.3989 -428.45747 C 114.4227 -428.71933 114.22972 -428.9509 113.96786 -428.9747 C 113.80546 -428.9895 113.64681 -428.9201 113.54739 -428.79086 L 113.54739 -428.79086 C 112.88394 -427.9284 112.10383 -427.1623 111.22945 -426.5146 L 107.33292 -423.6283 C 107.20924 -423.53667 107.08424 -423.44684 106.95796 -423.35883 L 102.33571 -420.13726 C 101.14898 -419.31015 99.85556 -418.6478 98.4908 -418.16827 L 93.88368 -416.54955 C 93.39311 -416.3772 92.91123 -416.181 92.43976 -415.96173 L 85.59298 -412.7772 C 84.89682 -412.4534 84.17826 -412.1801 83.44286 -411.9595 L 72.57247 -408.6984 C 72.55575 -408.69336 72.53903 -408.6883 72.52233 -408.68325 L 61.55424 -405.35365 C 61.41634 -405.3118 61.27902 -405.26807 61.1423 -405.2225 L 48.22107 -400.9154 C 48.171946 -400.89904 48.122746 -400.8829 48.07347 -400.867 L 36.70606 -397.2001 C 36.067576 -396.99414 35.442677 -396.74823 34.835064 -396.4638 L 26.9031 -392.751 C 26.53276 -392.57763 26.1692 -392.39014 25.813224 -392.18894 L 19.86711 -388.8281 C 18.614076 -388.11985 18.17243 -386.52993 18.880667 -385.2769 C 18.957785 -385.14046 19.047052 -385.01125 19.147385 -384.89086 L 20.011496 -383.8539 C 20.76644 -382.948 21.418917 -381.96137 21.957035 -380.91204 L 25.034173 -374.9116 C 25.109643 -374.76445 25.18739 -374.61846 25.267387 -374.4737 L 29.22214 -367.3175 C 29.30563 -367.1664 29.386672 -367.014 29.46523 -366.8603 L 33.573535 -358.8223 C 33.822604 -358.335 34.046507 -357.83522 34.24436 -357.32497 L 37.72713 -348.3431 C 37.740633 -348.30827 37.75426 -348.2735 37.768005 -348.23876 L 41.36433 -339.1533 C 41.486337 -338.8451 41.598736 -338.53313 41.701365 -338.2179 L 44.3232 -330.16514 C 44.339323 -330.1156 44.355205 -330.066 44.370844 -330.01634 L 47.44289 -320.25807 C 47.645684 -319.6139 47.80749 -318.95755 47.927337 -318.29294 L 49.91265 -307.2835 C 49.935806 -307.15507 49.95739 -307.02638 49.9774 -306.89743 L 51.68327 -295.90405 C 51.726006 -295.62863 51.76154 -295.35215 51.78983 -295.07487 L 52.67725 -286.37816 C 52.723986 -285.92017 52.75093 -285.46038 52.75801 -285.00006 L 52.942253 -273.02444 C 52.945674 -272.80207 52.95373 -272.5798 52.96642 -272.35777 L 53.736794 -258.8762 C 53.743855 -258.75264 53.75235 -258.62916 53.762275 -258.5058 L 55.095845 -241.93142 C 55.13019 -241.50455 55.147385 -241.07647 55.147385 -240.6482 L 55.147385 -228.19843 C 55.147385 -227.9934 55.151326 -227.78838 55.159207 -227.5835 L 55.73956 -212.49436 C 55.744776 -212.3587 55.74827 -212.22297 55.75003 -212.0872 L 55.94219 -197.29095 C 55.94565 -197.02426 55.94245 -196.75752 55.932576 -196.491 L 55.35835 -180.98684 C 55.35104 -180.78953 55.347385 -180.5921 55.347385 -180.39466 L 55.347385 -166.79843 C 55.347385 -166.5934 55.343444 -166.38838 55.335564 -166.1835 L 54.75037 -150.9685 C 54.74838 -150.91673 54.74614 -150.86498 54.743645 -150.81324 L 53.94832 -134.3103 C 53.9477 -134.29734 53.94706 -134.28437 53.9464 -134.2714 L 53.15191 -118.58024 C 53.148894 -118.52065 53.145543 -118.46107 53.14186 -118.40152 L 51.95295 -99.18079 C 51.94924 -99.12083 51.945193 -99.06089 51.94081 -99.00098 L 50.15767 -74.63143 C 50.150814 -74.53771 50.14313 -74.444056 50.134623 -74.35047 L 48.34873 -54.70566 C 48.347834 -54.695786 48.34693 -54.685915 48.34601 -54.676044 L 46.575247 -35.59114 C 46.556674 -35.390964 46.53433 -35.191157 46.508227 -34.991825 L 44.547514 -20.019106 C 44.414703 -19.004912 44.14556 -18.013294 43.747385 -17.071124 L 43.747385 -17.071124 C 43.34981 -16.130378 43.10114 -15.133462 43.010317 -14.116201 L 42.247385 -5.571124 C 41.73963 .1159052 45.698094 5.234269 51.33006 6.17293 Z" fill="url(#Obj_Gradient_2)"/>
      <path d="M 51.33006 6.17293 L 65.0723 8.463303 C 65.25568 8.493866 65.43957 8.52123 65.6239 8.545384 L 93.97754 12.260689 C 94.22407 12.292992 94.47132 12.319545 94.71908 12.340326 L 124.96197 14.876826 C 125.21888 14.898373 125.47627 14.913707 125.73391 14.922816 L 164.66482 16.299161 C 164.85318 16.30582 165.04165 16.30915 165.23013 16.30915 L 196.69745 16.30915 C 196.86406 16.30915 197.03067 16.306548 197.1972 16.301344 L 222.232 15.519007 C 222.44224 15.512437 222.65233 15.501721 222.86215 15.486867 L 244.9099 13.925964 C 245.06822 13.914756 245.22636 13.901193 245.38427 13.88528 L 270.64475 11.339649 C 270.8465 11.319319 271.04783 11.295155 271.24865 11.267172 L 295.04134 7.951796 C 295.24535 7.923369 295.4488 7.891004 295.65156 7.85472 L 304.8474 6.209151 C 310.1745 5.2558794 313.82536 .30223347 313.15895 -5.068302 L 310.95136 -22.858874 C 310.9487 -22.88019 310.9461 -22.901514 310.94355 -22.92284 L 307.37973 -52.62137 C 307.35817 -52.80101 307.33966 -52.981004 307.3242 -53.161274 L 304.962 -80.72048 C 304.95226 -80.83406 304.94374 -80.94773 304.93643 -81.06149 L 303.5498 -102.65313 C 303.5482 -102.67828 303.54652 -102.70342 303.5448 -102.72856 L 301.95263 -125.81487 C 301.94914 -125.86552 301.9459 -125.9162 301.94287 -125.96688 L 300.7665 -145.76905 C 300.75376 -145.98356 300.74534 -146.19831 300.74125 -146.41316 L 300.34897 -167.008 C 300.3479 -167.06323 300.34658 -167.11846 300.34495 -167.17368 L 299.74983 -187.40802 C 299.7482 -187.46324 299.74686 -187.51847 299.7458 -187.5737 L 299.35515 -208.08324 C 299.34998 -208.35494 299.35173 -208.62672 299.3604 -208.89833 L 299.94634 -227.25794 C 299.94704 -227.27988 299.9478 -227.30182 299.94857 -227.32376 L 300.73666 -249.19307 C 300.7438 -249.39158 300.75466 -249.58993 300.7692 -249.78803 L 302.32668 -271.00865 C 302.3405 -271.19677 302.35096 -271.38512 302.3581 -271.5736 L 303.11256 -291.4725 C 303.13576 -292.08423 303.19404 -292.69414 303.28713 -293.2992 L 306.02613 -311.10272 C 306.1069 -311.62782 306.2138 -312.14857 306.3464 -312.66303 L 310.97466 -330.6207 C 311.08976 -331.06725 311.2241 -331.50864 311.37734 -331.9436 L 317.09812 -348.18325 C 317.2642 -348.65473 317.4523 -349.11816 317.66178 -349.57203 L 323.19333 -361.55707 C 323.29602 -361.77956 323.4038 -361.99967 323.5166 -362.2172 L 328.87883 -372.55864 C 328.92454 -372.6468 328.97106 -372.7345 329.0184 -372.82177 L 334.23437 -382.43873 C 334.97165 -383.7981 335.9213 -385.031 337.0474 -386.09086 L 337.0474 -386.09086 C 337.72258 -386.72633 337.75478 -387.78883 337.1193 -388.464 C 336.9948 -388.5963 336.84967 -388.7075 336.68955 -388.79327 L 333.4754 -390.51513 C 333.25676 -390.63226 333.0354 -390.7443 332.81155 -390.85114 L 324.95757 -394.59963 C 324.55096 -394.7937 324.13634 -394.9705 323.7148 -395.12956 L 314.03998 -398.78044 C 313.84494 -398.85404 313.64848 -398.92383 313.4507 -398.98975 L 300.75623 -403.22124 C 300.617 -403.26765 300.47716 -403.31214 300.3367 -403.3547 L 287.4532 -407.2588 C 287.38266 -407.28017 287.31227 -407.30203 287.24205 -407.32437 L 274.73805 -411.3029 C 274.34442 -411.42816 273.9558 -411.5686 273.57304 -411.72393 L 261.5971 -416.58373 C 260.76543 -416.9212 259.96364 -417.3281 259.2002 -417.8 L 249.58096 -423.74647 C 249.42526 -423.8427 249.27122 -423.94164 249.1189 -424.0432 L 244.2288 -427.30324 C 243.24742 -427.9575 242.3761 -428.7634 241.6474 -429.69086 L 241.6474 -429.69086 C 241.54178 -429.82526 241.34722 -429.8486 241.21282 -429.743 C 241.11007 -429.6623 241.0691 -429.52573 241.11042 -429.40177 L 241.2474 -428.99086 C 241.70664 -427.6131 241.8112 -426.1418 241.5514 -424.71297 L 241.15627 -422.5397 C 240.88506 -421.04804 240.4032 -419.6025 239.72519 -418.24645 L 238.19287 -415.1818 C 237.89617 -414.5884 237.56285 -414.01405 237.19484 -413.46203 L 233.99113 -408.65647 C 233.56253 -408.01357 233.08792 -407.40256 232.57104 -406.82824 L 228.009 -401.7593 C 227.96792 -401.71367 227.9266 -401.6683 227.885 -401.62312 L 221.89077 -395.1151 C 221.26303 -394.43356 220.57728 -393.80783 219.84125 -393.245 L 214.81707 -389.40297 C 214.37093 -389.0618 213.90712 -388.74435 213.4276 -388.45195 L 206.94119 -384.49683 C 206.27953 -384.0934 205.58943 -383.73853 204.87635 -383.4351 L 197.76094 -380.40726 C 196.95327 -380.06357 196.1187 -379.78693 195.26566 -379.58013 L 191.1866 -378.59127 C 190.36177 -378.3913 189.52233 -378.2573 188.67624 -378.1905 L 182.97603 -377.7405 C 182.5571 -377.7074 182.13702 -377.69086 181.7168 -377.69086 L 174.68447 -377.69086 C 173.92737 -377.69086 173.17122 -377.7446 172.42173 -377.85166 L 164.47528 -378.98687 C 163.99027 -379.05616 163.5087 -379.1477 163.0321 -379.26116 L 157.07087 -380.6805 C 155.92538 -380.95324 154.8135 -381.3516 153.75543 -381.8683 L 147.47543 -384.9353 C 146.99038 -385.1722 146.51763 -385.43346 146.05899 -385.71814 L 141.84712 -388.3324 C 141.24795 -388.7043 140.67403 -389.1154 140.1291 -389.563 L 135.683 -393.2152 C 135.4593 -393.39893 135.24063 -393.5887 135.02723 -393.78433 L 131.22489 -397.2698 C 130.77359 -397.6835 130.34641 -398.12275 129.94546 -398.5854 L 125.82671 -403.3378 C 125.50733 -403.7063 125.20496 -404.08923 124.92056 -404.48537 L 120.4909 -410.65525 C 119.99601 -411.34456 119.55674 -412.07215 119.17725 -412.83114 L 116.60078 -417.98406 C 116.56519 -418.05526 116.53012 -418.1267 116.49559 -418.19843 L 115.24739 -420.79086 C 114.39667 -422.5577 114.04115 -424.52226 114.21869 -426.4752 L 114.3989 -428.45747 C 114.4227 -428.71933 114.22972 -428.9509 113.96786 -428.9747 C 113.80546 -428.9895 113.64681 -428.9201 113.54739 -428.79086 L 113.54739 -428.79086 C 112.88394 -427.9284 112.10383 -427.1623 111.22945 -426.5146 L 107.33292 -423.6283 C 107.20924 -423.53667 107.08424 -423.44684 106.95796 -423.35883 L 102.33571 -420.13726 C 101.14898 -419.31015 99.85556 -418.6478 98.4908 -418.16827 L 93.88368 -416.54955 C 93.39311 -416.3772 92.91123 -416.181 92.43976 -415.96173 L 85.59298 -412.7772 C 84.89682 -412.4534 84.17826 -412.1801 83.44286 -411.9595 L 72.57247 -408.6984 C 72.55575 -408.69336 72.53903 -408.6883 72.52233 -408.68325 L 61.55424 -405.35365 C 61.41634 -405.3118 61.27902 -405.26807 61.1423 -405.2225 L 48.22107 -400.9154 C 48.171946 -400.89904 48.122746 -400.8829 48.07347 -400.867 L 36.70606 -397.2001 C 36.067576 -396.99414 35.442677 -396.74823 34.835064 -396.4638 L 26.9031 -392.751 C 26.53276 -392.57763 26.1692 -392.39014 25.813224 -392.18894 L 19.86711 -388.8281 C 18.614076 -388.11985 18.17243 -386.52993 18.880667 -385.2769 C 18.957785 -385.14046 19.047052 -385.01125 19.147385 -384.89086 L 20.011496 -383.8539 C 20.76644 -382.948 21.418917 -381.96137 21.957035 -380.91204 L 25.034173 -374.9116 C 25.109643 -374.76445 25.18739 -374.61846 25.267387 -374.4737 L 29.22214 -367.3175 C 29.30563 -367.1664 29.386672 -367.014 29.46523 -366.8603 L 33.573535 -358.8223 C 33.822604 -358.335 34.046507 -357.83522 34.24436 -357.32497 L 37.72713 -348.3431 C 37.740633 -348.30827 37.75426 -348.2735 37.768005 -348.23876 L 41.36433 -339.1533 C 41.486337 -338.8451 41.598736 -338.53313 41.701365 -338.2179 L 44.3232 -330.16514 C 44.339323 -330.1156 44.355205 -330.066 44.370844 -330.01634 L 47.44289 -320.25807 C 47.645684 -319.6139 47.80749 -318.95755 47.927337 -318.29294 L 49.91265 -307.2835 C 49.935806 -307.15507 49.95739 -307.02638 49.9774 -306.89743 L 51.68327 -295.90405 C 51.726006 -295.62863 51.76154 -295.35215 51.78983 -295.07487 L 52.67725 -286.37816 C 52.723986 -285.92017 52.75093 -285.46038 52.75801 -285.00006 L 52.942253 -273.02444 C 52.945674 -272.80207 52.95373 -272.5798 52.96642 -272.35777 L 53.736794 -258.8762 C 53.743855 -258.75264 53.75235 -258.62916 53.762275 -258.5058 L 55.095845 -241.93142 C 55.13019 -241.50455 55.147385 -241.07647 55.147385 -240.6482 L 55.147385 -228.19843 C 55.147385 -227.9934 55.151326 -227.78838 55.159207 -227.5835 L 55.73956 -212.49436 C 55.744776 -212.3587 55.74827 -212.22297 55.75003 -212.0872 L 55.94219 -197.29095 C 55.94565 -197.02426 55.94245 -196.75752 55.932576 -196.491 L 55.35835 -180.98684 C 55.35104 -180.78953 55.347385 -180.5921 55.347385 -180.39466 L 55.347385 -166.79843 C 55.347385 -166.5934 55.343444 -166.38838 55.335564 -166.1835 L 54.75037 -150.9685 C 54.74838 -150.91673 54.74614 -150.86498 54.743645 -150.81324 L 53.94832 -134.3103 C 53.9477 -134.29734 53.94706 -134.28437 53.9464 -134.2714 L 53.15191 -118.58024 C 53.148894 -118.52065 53.145543 -118.46107 53.14186 -118.40152 L 51.95295 -99.18079 C 51.94924 -99.12083 51.945193 -99.06089 51.94081 -99.00098 L 50.15767 -74.63143 C 50.150814 -74.53771 50.14313 -74.444056 50.134623 -74.35047 L 48.34873 -54.70566 C 48.347834 -54.695786 48.34693 -54.685915 48.34601 -54.676044 L 46.575247 -35.59114 C 46.556674 -35.390964 46.53433 -35.191157 46.508227 -34.991825 L 44.547514 -20.019106 C 44.414703 -19.004912 44.14556 -18.013294 43.747385 -17.071124 L 43.747385 -17.071124 C 43.34981 -16.130378 43.10114 -15.133462 43.010317 -14.116201 L 42.247385 -5.571124 C 41.73963 .1159052 45.698094 5.234269 51.33006 6.17293 Z" stroke="#7f8080" stroke-linecap="round" stroke-linejoin="round" stroke-width="1"/>
      <path d="M -36 -280.55385 L -29.8 -276.15385 L -21.6 -272.15385 L -13 -268.55385 L -3.9999995 -264.75385 L 7.000001 -260.75385 L 16.4 -257.95385 L 25.4 -255.35385 L 34.4 -252.75385 L 39.8 -251.35385 L 45.4 -250.35385 L 47.8 -256.15385 L 50.4 -261.55385 L 52.6 -265.55385 L 55.2 -268.95385 L 55.4 -277.95385 L 54.8 -288.95385 L 53 -299.75385 L 51.4 -310.15385 L 48.8 -321.15386 L 46.4 -330.75386 L 43.6 -338.75386 L 40.4 -348.15386 L 37.6 -355.55386 L 34 -363.15386 L 30 -370.75386 L 26 -378.15386 L 23.4 -381.75386 L 19.8 -387.55386 L 14.4 -383.15386 L 9.600001 -378.35386 L 5.0000006 -372.15386 L .60000055 -365.95386 L -4.1999995 -357.35386 L -9 -347.95386 L -13.8 -338.75386 L -17.4 -330.15386 L -21.4 -321.15386 L -24.6 -312.95385 L -28.4 -303.55385 L -31.2 -295.55385 L -34.2 -287.15385 Z" fill="#006"/>
      <path d="M -36 -280.55385 L -29.8 -276.15385 L -21.6 -272.15385 L -13 -268.55385 L -3.9999995 -264.75385 L 7.000001 -260.75385 L 16.4 -257.95385 L 25.4 -255.35385 L 34.4 -252.75385 L 39.8 -251.35385 L 45.4 -250.35385 L 47.8 -256.15385 L 50.4 -261.55385 L 52.6 -265.55385 L 55.2 -268.95385 L 55.4 -277.95385 L 54.8 -288.95385 L 53 -299.75385 L 51.4 -310.15385 L 48.8 -321.15386 L 46.4 -330.75386 L 43.6 -338.75386 L 40.4 -348.15386 L 37.6 -355.55386 L 34 -363.15386 L 30 -370.75386 L 26 -378.15386 L 23.4 -381.75386 L 19.8 -387.55386 L 14.4 -383.15386 L 9.600001 -378.35386 L 5.0000006 -372.15386 L .60000055 -365.95386 L -4.1999995 -357.35386 L -9 -347.95386 L -13.8 -338.75386 L -17.4 -330.15386 L -21.4 -321.15386 L -24.6 -312.95385 L -28.4 -303.55385 L -31.2 -295.55385 L -34.2 -287.15385 Z" stroke="#7f8080" stroke-linecap="round" stroke-linejoin="round" stroke-width="1"/>
      <path d="M 395.4053 -281.49725 L 389.2053 -277.09725 L 381.0053 -273.09725 L 372.4053 -269.49725 L 363.4053 -265.69725 L 352.4053 -261.69725 L 343.0053 -258.89725 L 334.0053 -256.29725 L 325.0053 -253.69725 L 319.6053 -252.29725 L 314.0053 -251.29725 L 311.6053 -257.09725 L 309.0053 -262.49725 L 306.8053 -266.49725 L 302.2 -273.6 L 302.4 -280.6 L 304 -291.4 L 305 -302.4 L 307.4 -313.4 L 309.8 -323.8 L 312.8 -333.2 L 315.6 -342 L 319.0053 -349.09725 L 321.8053 -356.49725 L 325.4053 -364.09725 L 329.4053 -371.69725 L 333.4053 -379.09725 L 336.0053 -382.69725 L 339.6053 -388.49725 L 345.0053 -384.09725 L 349.8053 -379.29725 L 354.4053 -373.09725 L 358.8053 -366.89725 L 363.6053 -358.29725 L 368.4053 -348.89725 L 373.2053 -339.69725 L 376.8053 -331.09725 L 380.8053 -322.09725 L 384.0053 -313.89725 L 387.8053 -304.49725 L 390.6053 -296.49725 L 393.6053 -288.09725 Z" fill="#006"/>
      <path d="M 395.4053 -281.49725 L 389.2053 -277.09725 L 381.0053 -273.09725 L 372.4053 -269.49725 L 363.4053 -265.69725 L 352.4053 -261.69725 L 343.0053 -258.89725 L 334.0053 -256.29725 L 325.0053 -253.69725 L 319.6053 -252.29725 L 314.0053 -251.29725 L 311.6053 -257.09725 L 309.0053 -262.49725 L 306.8053 -266.49725 L 302.2 -273.6 L 302.4 -280.6 L 304 -291.4 L 305 -302.4 L 307.4 -313.4 L 309.8 -323.8 L 312.8 -333.2 L 315.6 -342 L 319.0053 -349.09725 L 321.8053 -356.49725 L 325.4053 -364.09725 L 329.4053 -371.69725 L 333.4053 -379.09725 L 336.0053 -382.69725 L 339.6053 -388.49725 L 345.0053 -384.09725 L 349.8053 -379.29725 L 354.4053 -373.09725 L 358.8053 -366.89725 L 363.6053 -358.29725 L 368.4053 -348.89725 L 373.2053 -339.69725 L 376.8053 -331.09725 L 380.8053 -322.09725 L 384.0053 -313.89725 L 387.8053 -304.49725 L 390.6053 -296.49725 L 393.6053 -288.09725 Z" stroke="#7f8080" stroke-linecap="round" stroke-linejoin="round" stroke-width="1"/>
      <path d="M 114.57212 -430.0362 L 109.84295 -425.98264 C 108.6926 -424.9966 107.44764 -424.1267 106.12621 -423.3855 L 103.59958 -421.96835 C 102.1644 -421.1634 101.5836 -419.39425 102.26239 -417.89527 L 103.28 -415.64803 C 103.40158 -415.37954 103.52831 -415.1134 103.66012 -414.8498 L 105.46239 -411.24526 L 107.94938 -406.2713 C 108.29117 -405.5877 108.66683 -404.92157 109.07495 -404.27537 L 111.40134 -400.5919 C 111.84172 -399.89465 112.31928 -399.2216 112.83195 -398.5756 L 116.24264 -394.27815 C 116.78869 -393.59013 117.37371 -392.93394 117.99482 -392.31283 L 122.66087 -387.6468 C 123.06175 -387.2459 123.47731 -386.86 123.90671 -386.4898 L 128.47023 -382.55574 C 128.86489 -382.2155 129.271 -381.8888 129.68785 -381.57617 L 133.66279 -378.59497 C 134.3287 -378.09553 135.02123 -377.6326 135.73733 -377.20826 L 139.8704 -374.75904 C 139.99839 -374.6832 140.12712 -374.6086 140.25656 -374.53523 L 144.9541 -371.8733 C 145.6924 -371.45493 146.45328 -371.07774 147.23325 -370.74347 L 150.78307 -369.2221 C 151.36903 -368.971 151.96518 -368.74433 152.56997 -368.54274 L 157.58808 -366.87003 C 158.83532 -366.4543 160.11592 -366.14624 161.4158 -365.9493 L 165.51464 -365.32826 C 165.87976 -365.27294 166.24615 -365.2264 166.6135 -365.18874 L 173.4946 -364.483 C 173.73978 -364.45784 173.98534 -364.43664 174.2312 -364.4194 L 178.75835 -364.1017 C 179.2942 -364.0641 179.83122 -364.04527 180.3684 -364.04527 L 183.63046 -364.04526 C 184.58416 -364.04526 185.53693 -364.1046 186.48327 -364.22287 L 190.47198 -364.72146 C 191.13195 -364.80396 191.78802 -364.91504 192.43835 -365.0544 L 198.52039 -366.3577 C 199.41426 -366.54924 200.29592 -366.7939 201.16068 -367.0904 L 205.66952 -368.6363 C 206.46417 -368.90873 207.2433 -369.2245 208.0034 -369.5822 L 212.83677 -371.85674 C 213.38697 -372.11565 213.92668 -372.3963 214.45464 -372.69798 L 218.2225 -374.85104 C 218.9153 -375.2469 219.58701 -375.6786 220.23494 -376.1443 L 224.91106 -379.50525 C 225.41175 -379.8651 225.89776 -380.24497 226.36792 -380.6439 L 231.68877 -385.15856 C 232.07108 -385.48294 232.44269 -385.81974 232.80298 -386.1684 L 237.5022 -390.71604 C 238.1418 -391.335 238.7449 -391.99056 239.30852 -392.67942 L 243.1018 -397.31566 C 243.60852 -397.93497 244.08257 -398.5803 244.52201 -399.24904 L 248.1392 -404.75344 C 248.35462 -405.08127 248.56163 -405.41456 248.76002 -405.753 L 251.2831 -410.0571 C 251.66906 -410.71546 252.022 -411.39265 252.34062 -412.0861 L 254.45932 -416.6974 C 254.99218 -417.85715 255.36334 -419.08456 255.5624 -420.34526 L 255.5624 -420.34526 C 255.7407 -421.47453 255.1614 -422.58797 254.13432 -423.0901 L 248.84088 -425.678 C 247.52642 -426.32063 246.29183 -427.11514 245.1624 -428.04526 L 244.75638 -428.3796 C 243.91205 -429.07496 243.28864 -430.00126 242.9624 -431.04526 L 242.9624 -431.04526 C 242.91573 -431.1946 242.75686 -431.2778 242.60754 -431.23114 C 242.49247 -431.1952 242.41277 -431.0903 242.40892 -430.9698 L 242.29968 -427.5469 C 242.20894 -424.7038 241.5916 -421.90224 240.479 -419.28433 L 239.60206 -417.22096 C 239.0435 -415.9067 238.36374 -414.6473 237.5716 -413.4591 L 233.88582 -407.9304 C 233.1383 -406.80915 232.2937 -405.75575 231.36175 -404.7824 L 225.06668 -398.20753 C 224.1986 -397.30087 223.25777 -396.4668 222.2536 -395.71367 L 213.8787 -389.4325 C 213.00228 -388.7752 212.08002 -388.18133 211.11896 -387.65546 L 203.93376 -383.72394 C 202.62263 -383.00653 201.2447 -382.41863 199.81952 -381.96857 L 193.1466 -379.86133 C 191.42973 -379.31916 189.65514 -378.98046 187.85927 -378.8522 L 180.97281 -378.3603 C 179.90052 -378.2837 178.82417 -378.2824 177.75168 -378.35635 L 169.31543 -378.93816 C 168.28125 -379.0095 167.25308 -379.15064 166.23795 -379.36067 L 159.10274 -380.8369 C 157.15079 -381.24077 155.25961 -381.89665 153.47676 -382.7881 L 148.81735 -385.1178 C 147.58321 -385.73485 146.4071 -386.46173 145.30326 -387.2896 L 139.6213 -391.5511 C 139.18217 -391.88043 138.75496 -392.2254 138.34051 -392.5853 L 132.58533 -397.58324 C 131.77104 -398.2904 131.0075 -399.0539 130.30036 -399.8682 L 125.89513 -404.9409 C 125.14103 -405.80925 124.45312 -406.73295 123.8372 -407.7042 L 120.1035 -413.592 C 119.74293 -414.16056 119.4075 -414.7447 119.09819 -415.3427 L 117.47781 -418.47544 C 116.86867 -419.6531 116.3625 -420.88126 115.96497 -422.14615 L 114.68473 -426.21964 C 114.46995 -426.903 114.28722 -427.59605 114.13713 -428.2965 L 113.91171 -429.34843 C 113.82664 -429.74544 114.05299 -430.1431 114.4378 -430.27263 L 114.4378 -430.27263 C 114.51029 -430.29704 114.58884 -430.25805 114.61325 -430.18556 C 114.63126 -430.13205 114.61499 -430.07296 114.57212 -430.0362 Z" fill="url(#Obj_Gradient_3)"/>
      <path d="M 114.57212 -430.0362 L 109.84295 -425.98264 C 108.6926 -424.9966 107.44764 -424.1267 106.12621 -423.3855 L 103.59958 -421.96835 C 102.1644 -421.1634 101.5836 -419.39425 102.26239 -417.89527 L 103.28 -415.64803 C 103.40158 -415.37954 103.52831 -415.1134 103.66012 -414.8498 L 105.46239 -411.24526 L 107.94938 -406.2713 C 108.29117 -405.5877 108.66683 -404.92157 109.07495 -404.27537 L 111.40134 -400.5919 C 111.84172 -399.89465 112.31928 -399.2216 112.83195 -398.5756 L 116.24264 -394.27815 C 116.78869 -393.59013 117.37371 -392.93394 117.99482 -392.31283 L 122.66087 -387.6468 C 123.06175 -387.2459 123.47731 -386.86 123.90671 -386.4898 L 128.47023 -382.55574 C 128.86489 -382.2155 129.271 -381.8888 129.68785 -381.57617 L 133.66279 -378.59497 C 134.3287 -378.09553 135.02123 -377.6326 135.73733 -377.20826 L 139.8704 -374.75904 C 139.99839 -374.6832 140.12712 -374.6086 140.25656 -374.53523 L 144.9541 -371.8733 C 145.6924 -371.45493 146.45328 -371.07774 147.23325 -370.74347 L 150.78307 -369.2221 C 151.36903 -368.971 151.96518 -368.74433 152.56997 -368.54274 L 157.58808 -366.87003 C 158.83532 -366.4543 160.11592 -366.14624 161.4158 -365.9493 L 165.51464 -365.32826 C 165.87976 -365.27294 166.24615 -365.2264 166.6135 -365.18874 L 173.4946 -364.483 C 173.73978 -364.45784 173.98534 -364.43664 174.2312 -364.4194 L 178.75835 -364.1017 C 179.2942 -364.0641 179.83122 -364.04527 180.3684 -364.04527 L 183.63046 -364.04526 C 184.58416 -364.04526 185.53693 -364.1046 186.48327 -364.22287 L 190.47198 -364.72146 C 191.13195 -364.80396 191.78802 -364.91504 192.43835 -365.0544 L 198.52039 -366.3577 C 199.41426 -366.54924 200.29592 -366.7939 201.16068 -367.0904 L 205.66952 -368.6363 C 206.46417 -368.90873 207.2433 -369.2245 208.0034 -369.5822 L 212.83677 -371.85674 C 213.38697 -372.11565 213.92668 -372.3963 214.45464 -372.69798 L 218.2225 -374.85104 C 218.9153 -375.2469 219.58701 -375.6786 220.23494 -376.1443 L 224.91106 -379.50525 C 225.41175 -379.8651 225.89776 -380.24497 226.36792 -380.6439 L 231.68877 -385.15856 C 232.07108 -385.48294 232.44269 -385.81974 232.80298 -386.1684 L 237.5022 -390.71604 C 238.1418 -391.335 238.7449 -391.99056 239.30852 -392.67942 L 243.1018 -397.31566 C 243.60852 -397.93497 244.08257 -398.5803 244.52201 -399.24904 L 248.1392 -404.75344 C 248.35462 -405.08127 248.56163 -405.41456 248.76002 -405.753 L 251.2831 -410.0571 C 251.66906 -410.71546 252.022 -411.39265 252.34062 -412.0861 L 254.45932 -416.6974 C 254.99218 -417.85715 255.36334 -419.08456 255.5624 -420.34526 L 255.5624 -420.34526 C 255.7407 -421.47453 255.1614 -422.58797 254.13432 -423.0901 L 248.84088 -425.678 C 247.52642 -426.32063 246.29183 -427.11514 245.1624 -428.04526 L 244.75638 -428.3796 C 243.91205 -429.07496 243.28864 -430.00126 242.9624 -431.04526 L 242.9624 -431.04526 C 242.91573 -431.1946 242.75686 -431.2778 242.60754 -431.23114 C 242.49247 -431.1952 242.41277 -431.0903 242.40892 -430.9698 L 242.29968 -427.5469 C 242.20894 -424.7038 241.5916 -421.90224 240.479 -419.28433 L 239.60206 -417.22096 C 239.0435 -415.9067 238.36374 -414.6473 237.5716 -413.4591 L 233.88582 -407.9304 C 233.1383 -406.80915 232.2937 -405.75575 231.36175 -404.7824 L 225.06668 -398.20753 C 224.1986 -397.30087 223.25777 -396.4668 222.2536 -395.71367 L 213.8787 -389.4325 C 213.00228 -388.7752 212.08002 -388.18133 211.11896 -387.65546 L 203.93376 -383.72394 C 202.62263 -383.00653 201.2447 -382.41863 199.81952 -381.96857 L 193.1466 -379.86133 C 191.42973 -379.31916 189.65514 -378.98046 187.85927 -378.8522 L 180.97281 -378.3603 C 179.90052 -378.2837 178.82417 -378.2824 177.75168 -378.35635 L 169.31543 -378.93816 C 168.28125 -379.0095 167.25308 -379.15064 166.23795 -379.36067 L 159.10274 -380.8369 C 157.15079 -381.24077 155.25961 -381.89665 153.47676 -382.7881 L 148.81735 -385.1178 C 147.58321 -385.73485 146.4071 -386.46173 145.30326 -387.2896 L 139.6213 -391.5511 C 139.18217 -391.88043 138.75496 -392.2254 138.34051 -392.5853 L 132.58533 -397.58324 C 131.77104 -398.2904 131.0075 -399.0539 130.30036 -399.8682 L 125.89513 -404.9409 C 125.14103 -405.80925 124.45312 -406.73295 123.8372 -407.7042 L 120.1035 -413.592 C 119.74293 -414.16056 119.4075 -414.7447 119.09819 -415.3427 L 117.47781 -418.47544 C 116.86867 -419.6531 116.3625 -420.88126 115.96497 -422.14615 L 114.68473 -426.21964 C 114.46995 -426.903 114.28722 -427.59605 114.13713 -428.2965 L 113.91171 -429.34843 C 113.82664 -429.74544 114.05299 -430.1431 114.4378 -430.27263 L 114.4378 -430.27263 C 114.51029 -430.29704 114.58884 -430.25805 114.61325 -430.18556 C 114.63126 -430.13205 114.61499 -430.07296 114.57212 -430.0362 Z" stroke="#7f8080" stroke-linecap="round" stroke-linejoin="round" stroke-width="1"/>
      <path d="M 114.05925 -430.2441 L 119.45925 -430.8441 L 126.25925 -427.4441 L 131.25925 -425.6441 L 139.65925 -423.8441 L 148.05925 -422.8441 L 156.05925 -421.8441 L 163.65925 -421.6441 L 172.25925 -421.2441 L 183.85925 -421.4441 L 192.25925 -421.8441 L 201.65925 -422.4441 L 210.05925 -423.2441 L 219.25925 -424.6441 L 227.45925 -426.8441 L 233.25925 -428.6441 L 238.85925 -431.2441 L 241.65925 -430.0441 L 242.05925 -424.4441 L 239.25925 -416.4441 L 233.85925 -413.6441 L 223.25925 -410.4441 L 211.85925 -408.0441 L 200.65925 -407.2441 L 188.25925 -406.2441 L 177.85925 -406.2441 L 168.45925 -406.2441 L 156.85925 -406.8441 L 145.65925 -407.6441 L 135.05925 -409.8441 L 126.45925 -411.8441 L 120.25925 -414.6441 L 118.25925 -416.2441 L 115.05925 -423.8441 Z" fill="url(#Obj_Gradient_4)"/>
      <path d="M 114.05925 -430.2441 L 119.45925 -430.8441 L 126.25925 -427.4441 L 131.25925 -425.6441 L 139.65925 -423.8441 L 148.05925 -422.8441 L 156.05925 -421.8441 L 163.65925 -421.6441 L 172.25925 -421.2441 L 183.85925 -421.4441 L 192.25925 -421.8441 L 201.65925 -422.4441 L 210.05925 -423.2441 L 219.25925 -424.6441 L 227.45925 -426.8441 L 233.25925 -428.6441 L 238.85925 -431.2441 L 241.65925 -430.0441 L 242.05925 -424.4441 L 239.25925 -416.4441 L 233.85925 -413.6441 L 223.25925 -410.4441 L 211.85925 -408.0441 L 200.65925 -407.2441 L 188.25925 -406.2441 L 177.85925 -406.2441 L 168.45925 -406.2441 L 156.85925 -406.8441 L 145.65925 -407.6441 L 135.05925 -409.8441 L 126.45925 -411.8441 L 120.25925 -414.6441 L 118.25925 -416.2441 L 115.05925 -423.8441 Z" stroke="#7f8080" stroke-linecap="round" stroke-linejoin="round" stroke-width="1"/>
      <path d="M 43.813213 -3.799991 L 43.813213 -3.799991 C 43.74753 -3.2745144 43.810355 -2.7409465 43.9963 -2.2450984 L 44.647306 -.50907646 C 44.82406 -.03772804 45.051147 .4131785 45.32462 .8358184 L 46.292434 2.331531 C 46.83339 3.167557 47.546494 3.8785464 48.38412 4.4170213 L 49.46217 5.110053 C 49.762426 5.303074 50.077006 5.472847 50.403157 5.617885 L 51.72001 6.203486 C 52.31654 6.46876 52.947246 6.64928 53.59379 6.739796 L 62.60421 8.001255 C 62.61421 8.002654 62.6242 8.004032 62.6342 8.005388 L 74.3502 9.593998 C 74.3962 9.600235 74.44226 9.606015 74.48838 9.611336 L 84.77131 10.797828 C 84.80324 10.801512 84.83519 10.804976 84.86716 10.80822 L 98.57723 12.199096 C 98.60521 12.201935 98.63321 12.204605 98.66123 12.207106 L 109.76653 13.19865 C 109.80164 13.201786 109.83679 13.204656 109.87195 13.207261 L 120.55848 13.998856 C 120.59896 14.001855 120.63947 14.004501 120.68 14.006795 L 131.18798 14.601586 C 131.2088 14.602765 131.22961 14.604036 131.25042 14.6054 L 143.2932 15.395091 C 143.3772 15.4006 143.46129 15.404592 143.54543 15.407067 L 156.99256 15.80257 C 157.01032 15.803093 157.02809 15.803683 157.04585 15.80434 L 167.6897 16.198558 C 167.77603 16.201755 167.8624 16.203354 167.9488 16.203354 L 178.5578 16.203354 C 178.59874 16.203354 178.63967 16.203713 178.6806 16.204431 L 189.76702 16.39893 C 189.93509 16.401878 190.1032 16.398772 190.27106 16.389617 L 200.8923 15.810277 C 200.9769 15.805662 201.06157 15.802584 201.1463 15.801043 L 211.91085 15.605324 C 211.98308 15.60401 212.0553 15.60158 212.12745 15.59803 L 224.14607 15.00695 C 224.19483 15.004553 224.24355 15.001645 224.29225 14.998228 L 235.5323 14.209453 C 235.59023 14.205387 235.64812 14.2006 235.70594 14.195094 L 248.1165 13.013134 C 248.18497 13.006614 248.25352 13.001104 248.32214 12.996604 L 260.25416 12.214176 C 260.36418 12.206962 260.474 12.19715 260.58355 12.184749 L 270.9959 11.005992 C 271.01144 11.004233 271.02697 11.002422 271.0425 11.00056 L 280.9902 9.806834 C 281.00954 9.804514 281.02886 9.802113 281.04818 9.799632 L 294.88394 8.022093 C 294.98115 8.009603 295.0781 7.995073 295.1747 7.978513 L 301.7282 6.855058 C 301.92915 6.820607 302.13153 6.7949525 302.33473 6.778169 L 305.56706 6.511195 C 306.4563 6.437748 307.3233 6.194972 308.12135 5.79594 L 309.60765 5.052794 C 310.20824 4.7525 310.7625 4.3673524 311.25338 3.9091905 L 312.5885 2.663081 C 313.1953 2.0967154 313.65073 1.3874736 313.9132 .60000895 L 314.20805 -.28447714 C 314.27812 -.4947012 314.33817 -.70813415 314.388 -.924055 L 314.8577 -2.959444 C 314.89293 -3.1120756 314.8595 -3.272476 314.7662 -3.3983187 L 314.7662 -3.3983187 C 314.67587 -3.5201977 314.52523 -3.5816953 314.3754 -3.5578595 L 305.89555 -2.2087912 C 305.84466 -2.2006948 305.79385 -2.1920367 305.74315 -2.1828185 L 292.7584 .1780475 C 292.6656 .19491662 292.5725 .20990917 292.4791 .22301597 L 281.24943 1.7991118 C 281.22928 1.8019398 281.20914 1.8048556 281.18902 1.8078591 L 268.06643 3.7664544 C 267.90167 3.791046 267.73608 3.8097484 267.56998 3.822525 L 254.84517 4.801357 C 254.82786 4.802688 254.81055 4.803955 254.79323 4.8051575 L 240.45308 5.801001 C 240.4305 5.8025696 240.4079 5.8040284 240.3853 5.8053776 L 227.08205 6.599602 C 227.04016 6.602103 226.99824 6.6042276 226.9563 6.605975 L 212.76485 7.197285 C 212.66776 7.201331 212.5706 7.203354 212.47344 7.203354 L 199.2192 7.203354 L 186.67753 7.203354 C 186.63865 7.203354 186.59976 7.203678 186.56088 7.204326 L 174.8025 7.400299 C 174.68032 7.402335 174.55812 7.401172 174.436 7.396811 L 163.6024 7.009897 C 163.4803 7.0055356 163.35809 7.0043725 163.23591 7.006409 L 151.52127 7.201653 C 151.45323 7.202787 151.38518 7.2029285 151.31713 7.202078 L 135.61484 7.005799 C 135.48444 7.004169 135.35411 6.9988955 135.224 6.989984 L 120.91423 6.0098624 C 120.85088 6.0055236 120.7876 6.000323 120.72439 5.994262 L 106.23339 4.604714 C 106.22393 4.603807 106.21448 4.6028813 106.20503 4.601936 L 92.39299 3.2207326 C 92.27715 3.2091486 92.16162 3.1946764 92.0465 3.1773297 L 77.73735 1.0211562 C 77.65859 1.0092888 77.57964 .9987663 77.50052 .9895935 L 63.98059 -.57793486 C 63.87301 -.59040744 63.76574 -.6053748 63.65886 -.62282484 L 54.26677 -2.156227 C 54.10178 -2.1831646 53.937805 -2.216004 53.775164 -2.2546823 L 44.697565 -4.4134615 C 44.309246 -4.505809 43.91959 -4.265877 43.82724 -3.8775585 C 43.82116 -3.851977 43.816475 -3.826083 43.813213 -3.799991 Z" fill="#006"/>
      <path d="M 43.813213 -3.799991 L 43.813213 -3.799991 C 43.74753 -3.2745144 43.810355 -2.7409465 43.9963 -2.2450984 L 44.647306 -.50907646 C 44.82406 -.03772804 45.051147 .4131785 45.32462 .8358184 L 46.292434 2.331531 C 46.83339 3.167557 47.546494 3.8785464 48.38412 4.4170213 L 49.46217 5.110053 C 49.762426 5.303074 50.077006 5.472847 50.403157 5.617885 L 51.72001 6.203486 C 52.31654 6.46876 52.947246 6.64928 53.59379 6.739796 L 62.60421 8.001255 C 62.61421 8.002654 62.6242 8.004032 62.6342 8.005388 L 74.3502 9.593998 C 74.3962 9.600235 74.44226 9.606015 74.48838 9.611336 L 84.77131 10.797828 C 84.80324 10.801512 84.83519 10.804976 84.86716 10.80822 L 98.57723 12.199096 C 98.60521 12.201935 98.63321 12.204605 98.66123 12.207106 L 109.76653 13.19865 C 109.80164 13.201786 109.83679 13.204656 109.87195 13.207261 L 120.55848 13.998856 C 120.59896 14.001855 120.63947 14.004501 120.68 14.006795 L 131.18798 14.601586 C 131.2088 14.602765 131.22961 14.604036 131.25042 14.6054 L 143.2932 15.395091 C 143.3772 15.4006 143.46129 15.404592 143.54543 15.407067 L 156.99256 15.80257 C 157.01032 15.803093 157.02809 15.803683 157.04585 15.80434 L 167.6897 16.198558 C 167.77603 16.201755 167.8624 16.203354 167.9488 16.203354 L 178.5578 16.203354 C 178.59874 16.203354 178.63967 16.203713 178.6806 16.204431 L 189.76702 16.39893 C 189.93509 16.401878 190.1032 16.398772 190.27106 16.389617 L 200.8923 15.810277 C 200.9769 15.805662 201.06157 15.802584 201.1463 15.801043 L 211.91085 15.605324 C 211.98308 15.60401 212.0553 15.60158 212.12745 15.59803 L 224.14607 15.00695 C 224.19483 15.004553 224.24355 15.001645 224.29225 14.998228 L 235.5323 14.209453 C 235.59023 14.205387 235.64812 14.2006 235.70594 14.195094 L 248.1165 13.013134 C 248.18497 13.006614 248.25352 13.001104 248.32214 12.996604 L 260.25416 12.214176 C 260.36418 12.206962 260.474 12.19715 260.58355 12.184749 L 270.9959 11.005992 C 271.01144 11.004233 271.02697 11.002422 271.0425 11.00056 L 280.9902 9.806834 C 281.00954 9.804514 281.02886 9.802113 281.04818 9.799632 L 294.88394 8.022093 C 294.98115 8.009603 295.0781 7.995073 295.1747 7.978513 L 301.7282 6.855058 C 301.92915 6.820607 302.13153 6.7949525 302.33473 6.778169 L 305.56706 6.511195 C 306.4563 6.437748 307.3233 6.194972 308.12135 5.79594 L 309.60765 5.052794 C 310.20824 4.7525 310.7625 4.3673524 311.25338 3.9091905 L 312.5885 2.663081 C 313.1953 2.0967154 313.65073 1.3874736 313.9132 .60000895 L 314.20805 -.28447714 C 314.27812 -.4947012 314.33817 -.70813415 314.388 -.924055 L 314.8577 -2.959444 C 314.89293 -3.1120756 314.8595 -3.272476 314.7662 -3.3983187 L 314.7662 -3.3983187 C 314.67587 -3.5201977 314.52523 -3.5816953 314.3754 -3.5578595 L 305.89555 -2.2087912 C 305.84466 -2.2006948 305.79385 -2.1920367 305.74315 -2.1828185 L 292.7584 .1780475 C 292.6656 .19491662 292.5725 .20990917 292.4791 .22301597 L 281.24943 1.7991118 C 281.22928 1.8019398 281.20914 1.8048556 281.18902 1.8078591 L 268.06643 3.7664544 C 267.90167 3.791046 267.73608 3.8097484 267.56998 3.822525 L 254.84517 4.801357 C 254.82786 4.802688 254.81055 4.803955 254.79323 4.8051575 L 240.45308 5.801001 C 240.4305 5.8025696 240.4079 5.8040284 240.3853 5.8053776 L 227.08205 6.599602 C 227.04016 6.602103 226.99824 6.6042276 226.9563 6.605975 L 212.76485 7.197285 C 212.66776 7.201331 212.5706 7.203354 212.47344 7.203354 L 199.2192 7.203354 L 186.67753 7.203354 C 186.63865 7.203354 186.59976 7.203678 186.56088 7.204326 L 174.8025 7.400299 C 174.68032 7.402335 174.55812 7.401172 174.436 7.396811 L 163.6024 7.009897 C 163.4803 7.0055356 163.35809 7.0043725 163.23591 7.006409 L 151.52127 7.201653 C 151.45323 7.202787 151.38518 7.2029285 151.31713 7.202078 L 135.61484 7.005799 C 135.48444 7.004169 135.35411 6.9988955 135.224 6.989984 L 120.91423 6.0098624 C 120.85088 6.0055236 120.7876 6.000323 120.72439 5.994262 L 106.23339 4.604714 C 106.22393 4.603807 106.21448 4.6028813 106.20503 4.601936 L 92.39299 3.2207326 C 92.27715 3.2091486 92.16162 3.1946764 92.0465 3.1773297 L 77.73735 1.0211562 C 77.65859 1.0092888 77.57964 .9987663 77.50052 .9895935 L 63.98059 -.57793486 C 63.87301 -.59040744 63.76574 -.6053748 63.65886 -.62282484 L 54.26677 -2.156227 C 54.10178 -2.1831646 53.937805 -2.216004 53.775164 -2.2546823 L 44.697565 -4.4134615 C 44.309246 -4.505809 43.91959 -4.265877 43.82724 -3.8775585 C 43.82116 -3.851977 43.816475 -3.826083 43.813213 -3.799991 Z" stroke="#7f8080" stroke-linecap="round" stroke-linejoin="round" stroke-width="1"/>
      <path d="M 75.3417 -.11389961 L 71.02797 -.5388666 L 60.02797 -1.5388666 L 47.02797 -3.5388666 L 43.02797 -5.5388666 L 48.02797 -36.538867 L 49.8417 -62.6139 L 52.3417 -90.6139 L 53.8417 -117.6139 L 54.3417 -146.6139 L 55.8417 -173.6139 L 56.3417 -199.1139 L 55.3417 -235.1139 L 54.3417 -268.6139 L 54.3417 -283.6139 L 51.8417 -299.1139 L 49.3417 -314.1139 L 44.8417 -329.6139 L 40.3417 -344.1139 L 35.3417 -357.6139 L 28.8417 -371.1139 L 22.3417 -381.6139 L 18.841699 -388.1139 L 28.027972 -394.53887 L 41.02797 -399.53887 L 54.02797 -403.53887 L 72.3417 -409.1139 L 77.8417 -410.6139 Z" fill="#006"/>
      <path d="M 75.3417 -.11389961 L 71.02797 -.5388666 L 60.02797 -1.5388666 L 47.02797 -3.5388666 L 43.02797 -5.5388666 L 48.02797 -36.538867 L 49.8417 -62.6139 L 52.3417 -90.6139 L 53.8417 -117.6139 L 54.3417 -146.6139 L 55.8417 -173.6139 L 56.3417 -199.1139 L 55.3417 -235.1139 L 54.3417 -268.6139 L 54.3417 -283.6139 L 51.8417 -299.1139 L 49.3417 -314.1139 L 44.8417 -329.6139 L 40.3417 -344.1139 L 35.3417 -357.6139 L 28.8417 -371.1139 L 22.3417 -381.6139 L 18.841699 -388.1139 L 28.027972 -394.53887 L 41.02797 -399.53887 L 54.02797 -403.53887 L 72.3417 -409.1139 L 77.8417 -410.6139 Z" stroke="#7f8080" stroke-linecap="round" stroke-linejoin="round" stroke-width="1"/>
      <path d="M 115.5 4 L 121 5 L 135 5.5 L 156 5.5 L 156 -368 L 144 -372 L 137 -376 L 128 -382 L 119 -390.5 Z" fill="#006"/>
      <path d="M 115.5 4 L 121 5 L 135 5.5 L 156 5.5 L 156 -368 L 144 -372 L 137 -376 L 128 -382 L 119 -390.5 Z" stroke="#7f8080" stroke-linecap="round" stroke-linejoin="round" stroke-width="1"/>
      <path d="M 209 -369.5 L 218 -374.5 L 224 -379 L 232 -385 L 238 -391.5 L 242.5 4.5 L 225.5 5.5 L 214.5 6 L 208 6.5 L 204 6 L 205 6 L 201 -366.5 Z" fill="#006"/>
      <path d="M 209 -369.5 L 218 -374.5 L 224 -379 L 232 -385 L 238 -391.5 L 242.5 4.5 L 225.5 5.5 L 214.5 6 L 208 6.5 L 204 6 L 205 6 L 201 -366.5 Z" stroke="#7f8080" stroke-linecap="round" stroke-linejoin="round" stroke-width="1"/>
      <path d="M 200.2 6.200002 L 210.2 6.200002 L 205 -367.8 L 196 -365.8 Z" fill="white"/>
      <path d="M 200.2 6.200002 L 210.2 6.200002 L 205 -367.8 L 196 -365.8 Z" stroke="gray" stroke-linecap="round" stroke-linejoin="round" stroke-width=".25"/>
      <path d="M 155.6 6.200002 L 165.2 6.5 L 160 -366.8 L 150.8 -369.8 Z" fill="white"/>
      <path d="M 155.6 6.200002 L 165.2 6.5 L 160 -366.8 L 150.8 -369.8 Z" stroke="gray" stroke-linecap="round" stroke-linejoin="round" stroke-width=".25"/>
      <path d="M 115.2 4.4000016 L 125.2 5.5 L 119.8 -390.2 L 110.6 -402 Z" fill="white"/>
      <path d="M 115.2 4.4000016 L 125.2 5.5 L 119.8 -390.2 L 110.6 -402 Z" stroke="gray" stroke-linecap="round" stroke-linejoin="round" stroke-width=".25"/>
      <path d="M 239.6 5.0000017 L 249.8 4.2000016 L 242.4 -396.2 L 234.8 -388.8 Z" fill="white"/>
      <path d="M 239.6 5.0000017 L 249.8 4.2000016 L 242.4 -396.2 L 234.8 -388.8 Z" stroke="gray" stroke-linecap="round" stroke-linejoin="round" stroke-width=".25"/>
      <path d="M 276.6 1.8000016 L 286.6 1.2000016 L 280.6 -409.4 L 271 -413.4 Z" fill="white"/>
      <path d="M 276.6 1.8000016 L 286.6 1.2000016 L 280.6 -409.4 L 271 -413.4 Z" stroke="gray" stroke-linecap="round" stroke-linejoin="round" stroke-width=".25"/>
      <path d="M 75.32455 -.11389961 L 85.32455 -.11389961 L 78.5 -410.5 L 70.5 -408.5 Z" fill="white"/>
      <path d="M 75.32455 -.11389961 L 85.32455 -.11389961 L 78.5 -410.5 L 70.5 -408.5 Z" stroke="gray" stroke-linecap="round" stroke-linejoin="round" stroke-width=".25"/>
      <path d="M 286.2729 .8371883 L 297.47305 -.16647916 L 310.70958 -2.173814 L 314.78235 -4.181149 L 309.6914 -35.29484 L 306.6368 -62.39386 L 304.6004 -89.49289 L 302.8 -116 L 301 -144.4 L 300.52763 -173.80095 L 299.6 -198 L 300.4 -235.4 L 302.4 -267.8 L 304.6004 -299.2594 L 307.2 -314.2 L 311.72777 -330.3731 L 316.4 -344.2 L 322 -356.6 L 329 -370.8 L 335.8 -382 L 339.8 -388.6 L 330.05527 -394.6078 L 316.81874 -399.62614 L 303.5822 -403.6408 L 281.2 -408.8 L 285 .5 Z" fill="#006"/>
      <path d="M 286.2729 .8371883 L 297.47305 -.16647916 L 310.70958 -2.173814 L 314.78235 -4.181149 L 309.6914 -35.29484 L 306.6368 -62.39386 L 304.6004 -89.49289 L 302.8 -116 L 301 -144.4 L 300.52763 -173.80095 L 299.6 -198 L 300.4 -235.4 L 302.4 -267.8 L 304.6004 -299.2594 L 307.2 -314.2 L 311.72777 -330.3731 L 316.4 -344.2 L 322 -356.6 L 329 -370.8 L 335.8 -382 L 339.8 -388.6 L 330.05527 -394.6078 L 316.81874 -399.62614 L 303.5822 -403.6408 L 281.2 -408.8 L 285 .5 Z" stroke="#7f8080" stroke-linecap="round" stroke-linejoin="round" stroke-width="1"/>
      <path d="M 395.4053 -281.49725 L 389.2053 -277.09725 L 381.0053 -273.09725 L 372.4053 -269.49725 L 363.4053 -265.69725 L 352.4053 -261.69725 L 343.0053 -258.89725 L 334.0053 -256.29725 L 325.0053 -253.69725 L 319.6053 -252.29725 L 314.0053 -251.29725 L 311.0053 -257.69725 L 314.8053 -258.49725 L 319.6053 -259.69725 L 325.2053 -260.89725 L 331.2053 -262.69725 L 335.8053 -264.09725 L 340.0053 -265.29725 L 344.6053 -267.29725 L 349.2053 -268.89725 L 354.0053 -270.89725 L 358.0053 -272.29725 L 363.2053 -274.49725 L 367.8053 -276.09725 L 372.6053 -278.29725 L 377.4053 -280.09725 L 381.4053 -282.09725 L 385.8053 -284.29725 L 390.2053 -286.49725 L 393.6053 -288.09725 Z" fill="url(#Obj_Gradient_5)"/>
      <path d="M 395.4053 -281.49725 L 389.2053 -277.09725 L 381.0053 -273.09725 L 372.4053 -269.49725 L 363.4053 -265.69725 L 352.4053 -261.69725 L 343.0053 -258.89725 L 334.0053 -256.29725 L 325.0053 -253.69725 L 319.6053 -252.29725 L 314.0053 -251.29725 L 311.0053 -257.69725 L 314.8053 -258.49725 L 319.6053 -259.69725 L 325.2053 -260.89725 L 331.2053 -262.69725 L 335.8053 -264.09725 L 340.0053 -265.29725 L 344.6053 -267.29725 L 349.2053 -268.89725 L 354.0053 -270.89725 L 358.0053 -272.29725 L 363.2053 -274.49725 L 367.8053 -276.09725 L 372.6053 -278.29725 L 377.4053 -280.09725 L 381.4053 -282.09725 L 385.8053 -284.29725 L 390.2053 -286.49725 L 393.6053 -288.09725 Z" stroke="#7f8080" stroke-linecap="round" stroke-linejoin="round" stroke-width="1"/>
      <path d="M -36 -280.55385 L -29.8 -276.15385 L -21.6 -272.15385 L -13 -268.55385 L -3.9999995 -264.75385 L 7.000001 -260.75385 L 16.4 -257.95385 L 25.4 -255.35385 L 34.4 -252.75385 L 39.8 -251.35385 L 45.4 -250.35385 L 48.4 -256.75385 L 44.6 -257.55385 L 39.8 -258.75385 L 34.2 -259.95385 L 28.2 -261.75385 L 23.6 -263.15385 L 19.4 -264.35385 L 14.8 -266.35385 L 10.200001 -267.95385 L 5.4000006 -269.95385 L 1.4000006 -271.35385 L -3.7999995 -273.55385 L -8.4 -275.15385 L -13.2 -277.35385 L -18 -279.15385 L -22 -281.15385 L -26.4 -283.35385 L -30.8 -285.55385 L -34.2 -287.15385 Z" fill="url(#Obj_Gradient_6)"/>
      <path d="M -36 -280.55385 L -29.8 -276.15385 L -21.6 -272.15385 L -13 -268.55385 L -3.9999995 -264.75385 L 7.000001 -260.75385 L 16.4 -257.95385 L 25.4 -255.35385 L 34.4 -252.75385 L 39.8 -251.35385 L 45.4 -250.35385 L 48.4 -256.75385 L 44.6 -257.55385 L 39.8 -258.75385 L 34.2 -259.95385 L 28.2 -261.75385 L 23.6 -263.15385 L 19.4 -264.35385 L 14.8 -266.35385 L 10.200001 -267.95385 L 5.4000006 -269.95385 L 1.4000006 -271.35385 L -3.7999995 -273.55385 L -8.4 -275.15385 L -13.2 -277.35385 L -18 -279.15385 L -22 -281.15385 L -26.4 -283.35385 L -30.8 -285.55385 L -34.2 -287.15385 Z" stroke="#7f8080" stroke-linecap="round" stroke-linejoin="round" stroke-width="1"/>
    </g>
  </g>
</svg>
