<?xml version="1.0" encoding="UTF-8" standalone="no"?>
<!DOCTYPE svg PUBLIC "-//W3C//DTD SVG 1.1//EN" "http://www.w3.org/Graphics/SVG/1.1/DTD/svg11.dtd">
<svg xmlns="http://www.w3.org/2000/svg" xmlns:xl="http://www.w3.org/1999/xlink" version="1.1" viewBox="-140.5 213.5 432.4053 448.4" width="432.4053pt" height="448.4pt" xmlns:dc="http://purl.org/dc/elements/1.1/">
  <metadata> Produced by OmniGraffle 7.6.1 
    <dc:date>2021-08-02 22:15:48 +0000</dc:date>
  </metadata>
  <defs>
    <radialGradient cx="0" cy="0" r="1" id="Gradient" gradientUnits="userSpaceOnUse">
      <stop offset="0" stop-color="#cbcbcb"/>
      <stop offset="1" stop-color="#212121"/>
    </radialGradient>
    <radialGradient id="Obj_Gradient" xl:href="#Gradient" gradientTransform="translate(74.75925 241.4) scale(70.26272)"/>
  </defs>
  <g stroke="none" stroke-opacity="1" stroke-dasharray="none" fill="none" fill-opacity="1">
    <title>brescia</title>
    <g>
      <title>Capa 1</title>
      <path d="M 13.005654 214.59045 L 21.171106 217.70816 C 22.029097 218.03576 22.90594 218.31167 23.796923 218.53442 L 37.5141 221.96371 C 38.67576 222.25413 39.85832 222.45338 41.051005 222.55966 L 58.57715 224.1214 C 59.165 224.17378 59.75464 224.20352 60.34478 224.21054 L 75.823695 224.39481 C 76.11404 224.39827 76.40442 224.39623 76.69469 224.3887 L 91.118 224.01406 C 91.47878 224.0047 91.8393 223.98683 92.19924 223.9605 L 106.57053 222.90893 C 107.56197 222.83639 108.54766 222.69964 109.5214 222.49956 L 121.09436 220.12155 C 122.13637 219.90744 123.16226 219.6213 124.16465 219.26519 L 135.91664 215.09014 C 137.00702 214.70277 138.21021 215.23354 138.65925 216.3 L 138.65925 216.3 C 139.1814 217.5401 139.33338 218.90485 139.09685 220.22945 L 138.91637 221.24014 C 138.61259 222.9413 138.11806 224.6028 137.44214 226.1932 L 135.89892 229.8243 C 135.34035 231.13858 134.6606 232.39798 133.86846 233.58618 L 130.18268 239.11485 C 129.43517 240.2361 128.59057 241.2895 127.65861 242.2629 L 121.36354 248.83774 C 120.49547 249.7444 119.55463 250.57846 118.55046 251.3316 L 110.17555 257.61277 C 109.29914 258.27008 108.37688 258.86394 107.41582 259.3898 L 100.23062 263.32133 C 98.91949 264.03874 97.54156 264.62664 96.11638 265.0767 L 89.44347 267.18393 C 87.72659 267.7261 85.952 268.0648 84.15613 268.19308 L 77.269675 268.68497 C 76.19738 268.76156 75.12103 268.76288 74.048545 268.68892 L 65.61229 268.1071 C 64.57811 268.0358 63.54994 267.89463 62.53481 267.6846 L 55.3996 266.20835 C 53.44765 265.8045 51.556474 265.1486 49.77362 264.2572 L 45.11421 261.92748 C 43.88007 261.3104 42.703967 260.58354 41.60012 259.75566 L 35.918163 255.4942 C 35.479027 255.16483 35.051822 254.81987 34.63737 254.45995 L 28.88219 249.46203 C 28.067903 248.7549 27.304363 247.99135 26.59722 247.17706 L 22.191995 242.10438 C 21.437892 241.23602 20.749984 240.31232 20.13406 239.34105 L 16.400357 233.4533 C 16.039791 232.8847 15.704365 232.30056 15.395049 231.70255 L 13.774675 228.56983 C 13.165531 227.39215 12.659362 226.164 12.261825 224.8991 L 10.981586 220.82562 C 10.766811 220.14225 10.584079 219.4492 10.433986 218.74878 L 10.359248 218.4 C 10.164585 217.49157 10.271846 216.54443 10.664727 215.70254 L 10.759248 215.5 C 11.153724 214.6547 12.134195 214.2577 13.005654 214.59045 Z" fill="url(#Obj_Gradient)"/>
      <path d="M 13.005654 214.59045 L 21.171106 217.70816 C 22.029097 218.03576 22.90594 218.31167 23.796923 218.53442 L 37.5141 221.96371 C 38.67576 222.25413 39.85832 222.45338 41.051005 222.55966 L 58.57715 224.1214 C 59.165 224.17378 59.75464 224.20352 60.34478 224.21054 L 75.823695 224.39481 C 76.11404 224.39827 76.40442 224.39623 76.69469 224.3887 L 91.118 224.01406 C 91.47878 224.0047 91.8393 223.98683 92.19924 223.9605 L 106.57053 222.90893 C 107.56197 222.83639 108.54766 222.69964 109.5214 222.49956 L 121.09436 220.12155 C 122.13637 219.90744 123.16226 219.6213 124.16465 219.26519 L 135.91664 215.09014 C 137.00702 214.70277 138.21021 215.23354 138.65925 216.3 L 138.65925 216.3 C 139.1814 217.5401 139.33338 218.90485 139.09685 220.22945 L 138.91637 221.24014 C 138.61259 222.9413 138.11806 224.6028 137.44214 226.1932 L 135.89892 229.8243 C 135.34035 231.13858 134.6606 232.39798 133.86846 233.58618 L 130.18268 239.11485 C 129.43517 240.2361 128.59057 241.2895 127.65861 242.2629 L 121.36354 248.83774 C 120.49547 249.7444 119.55463 250.57846 118.55046 251.3316 L 110.17555 257.61277 C 109.29914 258.27008 108.37688 258.86394 107.41582 259.3898 L 100.23062 263.32133 C 98.91949 264.03874 97.54156 264.62664 96.11638 265.0767 L 89.44347 267.18393 C 87.72659 267.7261 85.952 268.0648 84.15613 268.19308 L 77.269675 268.68497 C 76.19738 268.76156 75.12103 268.76288 74.048545 268.68892 L 65.61229 268.1071 C 64.57811 268.0358 63.54994 267.89463 62.53481 267.6846 L 55.3996 266.20835 C 53.44765 265.8045 51.556474 265.1486 49.77362 264.2572 L 45.11421 261.92748 C 43.88007 261.3104 42.703967 260.58354 41.60012 259.75566 L 35.918163 255.4942 C 35.479027 255.16483 35.051822 254.81987 34.63737 254.45995 L 28.88219 249.46203 C 28.067903 248.7549 27.304363 247.99135 26.59722 247.17706 L 22.191995 242.10438 C 21.437892 241.23602 20.749984 240.31232 20.13406 239.34105 L 16.400357 233.4533 C 16.039791 232.8847 15.704365 232.30056 15.395049 231.70255 L 13.774675 228.56983 C 13.165531 227.39215 12.659362 226.164 12.261825 224.8991 L 10.981586 220.82562 C 10.766811 220.14225 10.584079 219.4492 10.433986 218.74878 L 10.359248 218.4 C 10.164585 217.49157 10.271846 216.54443 10.664727 215.70254 L 10.759248 215.5 C 11.153724 214.6547 12.134195 214.2577 13.005654 214.59045 Z" stroke="#7f8080" stroke-linecap="round" stroke-linejoin="round" stroke-width="1"/>
      <path d="M -51.026545 651.2638 L -37.284304 653.55416 C -37.100928 653.5847 -36.91703 653.6121 -36.7327 653.63624 L -8.37906 657.35154 C -8.132532 657.38385 -7.885285 657.4104 -7.637519 657.4312 L 22.60537 659.9677 C 22.862274 659.9892 23.119662 660.0046 23.377307 660.0137 L 62.30822 661.39 C 62.49658 661.3967 62.685045 661.4 62.87352 661.4 L 94.34084 661.4 C 94.50746 661.4 94.67407 661.3974 94.8406 661.3922 L 119.87539 660.6099 C 120.08563 660.6033 120.29573 660.5926 120.50555 660.5777 L 142.5533 659.0168 C 142.71161 659.0056 142.86975 658.99205 143.02766 658.9761 L 168.28815 656.4305 C 168.48989 656.4102 168.69122 656.386 168.89204 656.358 L 192.68474 653.04265 C 192.88875 653.0142 193.0922 652.98186 193.29496 652.9456 L 202.49079 651.3 C 207.8179 650.3467 211.46876 645.3931 210.80234 640.02255 L 208.59475 622.232 C 208.5921 622.2107 208.5895 622.18934 208.58695 622.168 L 205.02312 592.4695 C 205.00157 592.28985 204.98306 592.10985 204.9676 591.9296 L 202.6054 564.3704 C 202.59565 564.2568 202.58713 564.1431 202.57983 564.02936 L 201.1932 542.4377 C 201.1916 542.4126 201.18992 542.38744 201.18818 542.3623 L 199.59603 519.276 C 199.59253 519.22533 199.58928 519.17466 199.58627 519.124 L 198.4099 499.3218 C 198.39716 499.1073 198.38874 498.89255 198.38465 498.6777 L 197.99236 478.08285 C 197.9913 478.0276 197.98997 477.9724 197.98835 477.9172 L 197.39322 457.68283 C 197.3916 457.6276 197.39026 457.5724 197.3892 457.51715 L 196.99855 437.0076 C 196.99337 436.7359 196.99512 436.46413 197.0038 436.19253 L 197.58973 417.8329 C 197.59044 417.81097 197.59118 417.78903 197.59197 417.7671 L 198.38005 395.8978 C 198.3872 395.6993 198.39806 395.50093 198.4126 395.30283 L 199.97007 374.0822 C 199.98388 373.8941 199.99436 373.70573 200.0015 373.51724 L 200.75596 353.61837 C 200.77915 353.00663 200.83744 352.3967 200.93052 351.79165 L 203.66953 333.98813 C 203.7503 333.46304 203.8572 332.9423 203.9898 332.42783 L 208.61806 314.47017 C 208.73316 314.0236 208.8675 313.5822 209.02073 313.14725 L 214.74152 296.9076 C 214.9076 296.43613 215.0957 295.9727 215.30517 295.51883 L 220.83673 283.5338 C 220.93942 283.3113 221.0472 283.0912 221.16 282.87364 L 226.52223 272.53222 C 226.56793 272.44407 226.61446 272.35636 226.6618 272.26908 L 231.87777 262.65212 C 232.61505 261.29276 233.56468 260.05987 234.69079 259 L 234.69079 259 C 235.36598 258.36453 235.39817 257.30203 234.7627 256.62684 C 234.6382 256.49456 234.49307 256.38337 234.33295 256.2976 L 231.1188 254.57573 C 230.90016 254.4586 230.6788 254.34656 230.45494 254.2397 L 222.60097 250.49122 C 222.19436 250.29716 221.77974 250.12036 221.3582 249.9613 L 211.68338 246.3104 C 211.48833 246.2368 211.29187 246.16703 211.0941 246.1011 L 198.39963 241.86962 C 198.2604 241.8232 198.12055 241.77872 197.9801 241.73616 L 185.09658 237.83206 C 185.02605 237.8107 184.95567 237.78883 184.88544 237.76648 L 172.38144 233.78794 C 171.98782 233.6627 171.5992 233.52225 171.21643 233.36693 L 159.24049 228.50713 C 158.40883 228.16964 157.60704 227.76277 156.8436 227.29083 L 147.22436 221.3444 C 147.06865 221.24814 146.91461 221.14922 146.7623 221.04768 L 141.8722 217.78762 C 140.89081 217.13335 140.0195 216.32745 139.29078 215.4 L 139.29078 215.4 C 139.18518 215.2656 138.99062 215.24225 138.85621 215.34785 C 138.75347 215.42858 138.7125 215.56513 138.75381 215.68908 L 138.89078 216.1 C 139.35003 217.47775 139.4546 218.94904 139.1948 220.3779 L 138.79967 222.55115 C 138.52845 224.0428 138.04661 225.48835 137.36858 226.8444 L 135.83626 229.90904 C 135.53956 230.50244 135.20624 231.0768 134.83823 231.62883 L 131.63453 236.43438 C 131.20593 237.07728 130.73132 237.6883 130.21443 238.26261 L 125.65238 243.33156 C 125.61132 243.37719 125.56999 243.42258 125.5284 243.46773 L 119.53417 249.97576 C 118.90643 250.6573 118.22068 251.28302 117.48465 251.84587 L 112.46047 255.6879 C 112.01432 256.02906 111.55052 256.3465 111.07099 256.6389 L 104.58458 260.59403 C 103.92292 260.99748 103.23283 261.35232 102.51975 261.65576 L 95.40434 264.6836 C 94.59667 265.02728 93.76209 265.30393 92.90905 265.51072 L 88.82999 266.4996 C 88.00516 266.69955 87.16573 266.83356 86.31963 266.90035 L 80.61943 267.35037 C 80.20049 267.38344 79.78042 267.4 79.36019 267.4 L 72.32787 267.4 C 71.57077 267.4 70.81462 267.34626 70.06513 267.2392 L 62.11868 266.104 C 61.63367 266.0347 61.1521 265.94317 60.67549 265.8297 L 54.714264 264.41035 C 53.56878 264.13762 52.4569 263.73927 51.39883 263.22253 L 45.118824 260.15556 C 44.633774 259.91867 44.16102 259.6574 43.702383 259.37272 L 39.49052 256.75846 C 38.89135 256.38656 38.317424 255.97546 37.772495 255.52784 L 33.32639 251.87568 C 33.102693 251.69193 32.884024 251.50214 32.670626 251.30652 L 28.868283 247.82104 C 28.416988 247.40736 27.98981 246.9681 27.588852 246.50546 L 23.470106 241.75307 C 23.150724 241.38455 22.848357 241.00162 22.563952 240.6055 L 18.134297 234.4356 C 17.639405 233.7463 17.200134 233.0187 16.820642 232.25972 L 14.244178 227.1068 C 14.208582 227.0356 14.173517 226.96414 14.138986 226.89242 L 12.890782 224.3 C 12.040068 222.53313 11.684547 220.5686 11.862088 218.61564 L 12.042293 216.63339 C 12.066098 216.37152 11.873116 216.13994 11.611253 216.11614 C 11.448858 216.10138 11.290205 216.17075 11.190782 216.3 L 11.190782 216.3 C 10.527336 217.16248 9.747228 217.92856 8.872851 218.57625 L 4.976317 221.46257 C 4.852634 221.55418 4.7276346 221.644 4.601359 221.73202 L -.020891365 224.9536 C -1.2076275 225.7807 -2.5010482 226.44308 -3.865798 226.92258 L -8.472924 228.5413 C -8.963495 228.71367 -9.445372 228.90984 -9.91684 229.12913 L -16.763621 232.31368 C -17.459783 232.63747 -18.178348 232.91074 -18.913747 233.13136 L -29.784136 236.39248 C -29.800857 236.3975 -29.81757 236.40254 -29.834276 236.4076 L -40.802363 239.7372 C -40.94026 239.77907 -41.077586 239.8228 -41.2143 239.86836 L -54.135536 244.17544 C -54.18466 244.1918 -54.23386 244.20795 -54.283136 244.22384 L -65.65054 247.89075 C -66.28903 248.0967 -66.91393 248.34263 -67.52154 248.62704 L -75.453505 252.33988 C -75.823845 252.51323 -76.1874 252.7007 -76.54338 252.90192 L -82.48949 256.26276 C -83.74253 256.971 -84.18417 258.56093 -83.47594 259.81396 C -83.39882 259.9504 -83.30955 260.0796 -83.20922 260.2 L -82.34511 261.23693 C -81.59016 262.14287 -80.93769 263.1295 -80.39957 264.17882 L -77.32243 270.17924 C -77.24696 270.3264 -77.16921 270.4724 -77.08922 270.61715 L -73.13446 277.77337 C -73.05097 277.92445 -72.96993 278.07687 -72.89137 278.23057 L -68.78307 286.26856 C -68.534 286.75587 -68.3101 287.25563 -68.11224 287.7659 L -64.62947 296.74776 C -64.61597 296.7826 -64.602345 296.81737 -64.5886 296.8521 L -60.992276 305.93754 C -60.87027 306.24577 -60.75787 306.55772 -60.65524 306.87294 L -58.033404 314.9257 C -58.01728 314.97524 -58.0014 315.02484 -57.98576 315.07452 L -54.91371 324.8328 C -54.71092 325.47695 -54.549114 326.1333 -54.42927 326.7979 L -52.443955 337.80737 C -52.4208 337.9358 -52.399213 338.0645 -52.379205 338.19342 L -50.673335 349.1868 C -50.6306 349.46222 -50.595065 349.7387 -50.56677 350.016 L -49.67935 358.7127 C -49.63262 359.1707 -49.60567 359.6305 -49.59859 360.0908 L -49.41435 372.0664 C -49.41093 372.2888 -49.40287 372.51105 -49.390185 372.7331 L -48.61981 386.21465 C -48.61275 386.3382 -48.604255 386.4617 -48.59433 386.58506 L -47.26076 403.15943 C -47.22641 403.5863 -47.20922 404.0144 -47.20922 404.44264 L -47.20922 416.8924 C -47.20922 417.09746 -47.20528 417.30247 -47.1974 417.50735 L -46.617046 432.5965 C -46.61183 432.73216 -46.608337 432.8679 -46.606574 433.00365 L -46.414415 447.7999 C -46.41095 448.0666 -46.414157 448.33333 -46.42403 448.59986 L -46.998256 464.104 C -47.005564 464.3013 -47.00922 464.49875 -47.00922 464.6962 L -47.00922 478.2924 C -47.00922 478.49746 -47.01316 478.7025 -47.02104 478.90736 L -47.60623 494.12236 C -47.608223 494.1741 -47.610465 494.2259 -47.61296 494.2776 L -48.40828 510.78055 C -48.408906 510.7935 -48.409547 510.8065 -48.410203 510.81945 L -49.20469 526.5106 C -49.20771 526.5702 -49.21106 526.6298 -49.214744 526.68933 L -50.403655 545.91007 C -50.407364 545.97 -50.41141 546.02996 -50.415794 546.0899 L -52.19893 570.4594 C -52.20579 570.55314 -52.21347 570.6468 -52.22198 570.7404 L -54.00787 590.3852 C -54.00877 590.3951 -54.009676 590.40494 -54.01059 590.4148 L -55.78136 609.4997 C -55.79993 609.6999 -55.822274 609.8997 -55.848377 610.099 L -57.80909 625.07175 C -57.9419 626.08594 -58.21104 627.07756 -58.60922 628.0197 L -58.60922 628.0197 C -59.006794 628.9605 -59.25546 629.9574 -59.34629 630.97465 L -60.10922 639.5197 C -60.616975 645.20676 -56.65851 650.3251 -51.026545 651.2638 Z" fill="#d00000"/>
      <path d="M -51.026545 651.2638 L -37.284304 653.55416 C -37.100928 653.5847 -36.91703 653.6121 -36.7327 653.63624 L -8.37906 657.35154 C -8.132532 657.38385 -7.885285 657.4104 -7.637519 657.4312 L 22.60537 659.9677 C 22.862274 659.9892 23.119662 660.0046 23.377307 660.0137 L 62.30822 661.39 C 62.49658 661.3967 62.685045 661.4 62.87352 661.4 L 94.34084 661.4 C 94.50746 661.4 94.67407 661.3974 94.8406 661.3922 L 119.87539 660.6099 C 120.08563 660.6033 120.29573 660.5926 120.50555 660.5777 L 142.5533 659.0168 C 142.71161 659.0056 142.86975 658.99205 143.02766 658.9761 L 168.28815 656.4305 C 168.48989 656.4102 168.69122 656.386 168.89204 656.358 L 192.68474 653.04265 C 192.88875 653.0142 193.0922 652.98186 193.29496 652.9456 L 202.49079 651.3 C 207.8179 650.3467 211.46876 645.3931 210.80234 640.02255 L 208.59475 622.232 C 208.5921 622.2107 208.5895 622.18934 208.58695 622.168 L 205.02312 592.4695 C 205.00157 592.28985 204.98306 592.10985 204.9676 591.9296 L 202.6054 564.3704 C 202.59565 564.2568 202.58713 564.1431 202.57983 564.02936 L 201.1932 542.4377 C 201.1916 542.4126 201.18992 542.38744 201.18818 542.3623 L 199.59603 519.276 C 199.59253 519.22533 199.58928 519.17466 199.58627 519.124 L 198.4099 499.3218 C 198.39716 499.1073 198.38874 498.89255 198.38465 498.6777 L 197.99236 478.08285 C 197.9913 478.0276 197.98997 477.9724 197.98835 477.9172 L 197.39322 457.68283 C 197.3916 457.6276 197.39026 457.5724 197.3892 457.51715 L 196.99855 437.0076 C 196.99337 436.7359 196.99512 436.46413 197.0038 436.19253 L 197.58973 417.8329 C 197.59044 417.81097 197.59118 417.78903 197.59197 417.7671 L 198.38005 395.8978 C 198.3872 395.6993 198.39806 395.50093 198.4126 395.30283 L 199.97007 374.0822 C 199.98388 373.8941 199.99436 373.70573 200.0015 373.51724 L 200.75596 353.61837 C 200.77915 353.00663 200.83744 352.3967 200.93052 351.79165 L 203.66953 333.98813 C 203.7503 333.46304 203.8572 332.9423 203.9898 332.42783 L 208.61806 314.47017 C 208.73316 314.0236 208.8675 313.5822 209.02073 313.14725 L 214.74152 296.9076 C 214.9076 296.43613 215.0957 295.9727 215.30517 295.51883 L 220.83673 283.5338 C 220.93942 283.3113 221.0472 283.0912 221.16 282.87364 L 226.52223 272.53222 C 226.56793 272.44407 226.61446 272.35636 226.6618 272.26908 L 231.87777 262.65212 C 232.61505 261.29276 233.56468 260.05987 234.69079 259 L 234.69079 259 C 235.36598 258.36453 235.39817 257.30203 234.7627 256.62684 C 234.6382 256.49456 234.49307 256.38337 234.33295 256.2976 L 231.1188 254.57573 C 230.90016 254.4586 230.6788 254.34656 230.45494 254.2397 L 222.60097 250.49122 C 222.19436 250.29716 221.77974 250.12036 221.3582 249.9613 L 211.68338 246.3104 C 211.48833 246.2368 211.29187 246.16703 211.0941 246.1011 L 198.39963 241.86962 C 198.2604 241.8232 198.12055 241.77872 197.9801 241.73616 L 185.09658 237.83206 C 185.02605 237.8107 184.95567 237.78883 184.88544 237.76648 L 172.38144 233.78794 C 171.98782 233.6627 171.5992 233.52225 171.21643 233.36693 L 159.24049 228.50713 C 158.40883 228.16964 157.60704 227.76277 156.8436 227.29083 L 147.22436 221.3444 C 147.06865 221.24814 146.91461 221.14922 146.7623 221.04768 L 141.8722 217.78762 C 140.89081 217.13335 140.0195 216.32745 139.29078 215.4 L 139.29078 215.4 C 139.18518 215.2656 138.99062 215.24225 138.85621 215.34785 C 138.75347 215.42858 138.7125 215.56513 138.75381 215.68908 L 138.89078 216.1 C 139.35003 217.47775 139.4546 218.94904 139.1948 220.3779 L 138.79967 222.55115 C 138.52845 224.0428 138.04661 225.48835 137.36858 226.8444 L 135.83626 229.90904 C 135.53956 230.50244 135.20624 231.0768 134.83823 231.62883 L 131.63453 236.43438 C 131.20593 237.07728 130.73132 237.6883 130.21443 238.26261 L 125.65238 243.33156 C 125.61132 243.37719 125.56999 243.42258 125.5284 243.46773 L 119.53417 249.97576 C 118.90643 250.6573 118.22068 251.28302 117.48465 251.84587 L 112.46047 255.6879 C 112.01432 256.02906 111.55052 256.3465 111.07099 256.6389 L 104.58458 260.59403 C 103.92292 260.99748 103.23283 261.35232 102.51975 261.65576 L 95.40434 264.6836 C 94.59667 265.02728 93.76209 265.30393 92.90905 265.51072 L 88.82999 266.4996 C 88.00516 266.69955 87.16573 266.83356 86.31963 266.90035 L 80.61943 267.35037 C 80.20049 267.38344 79.78042 267.4 79.36019 267.4 L 72.32787 267.4 C 71.57077 267.4 70.81462 267.34626 70.06513 267.2392 L 62.11868 266.104 C 61.63367 266.0347 61.1521 265.94317 60.67549 265.8297 L 54.714264 264.41035 C 53.56878 264.13762 52.4569 263.73927 51.39883 263.22253 L 45.118824 260.15556 C 44.633774 259.91867 44.16102 259.6574 43.702383 259.37272 L 39.49052 256.75846 C 38.89135 256.38656 38.317424 255.97546 37.772495 255.52784 L 33.32639 251.87568 C 33.102693 251.69193 32.884024 251.50214 32.670626 251.30652 L 28.868283 247.82104 C 28.416988 247.40736 27.98981 246.9681 27.588852 246.50546 L 23.470106 241.75307 C 23.150724 241.38455 22.848357 241.00162 22.563952 240.6055 L 18.134297 234.4356 C 17.639405 233.7463 17.200134 233.0187 16.820642 232.25972 L 14.244178 227.1068 C 14.208582 227.0356 14.173517 226.96414 14.138986 226.89242 L 12.890782 224.3 C 12.040068 222.53313 11.684547 220.5686 11.862088 218.61564 L 12.042293 216.63339 C 12.066098 216.37152 11.873116 216.13994 11.611253 216.11614 C 11.448858 216.10138 11.290205 216.17075 11.190782 216.3 L 11.190782 216.3 C 10.527336 217.16248 9.747228 217.92856 8.872851 218.57625 L 4.976317 221.46257 C 4.852634 221.55418 4.7276346 221.644 4.601359 221.73202 L -.020891365 224.9536 C -1.2076275 225.7807 -2.5010482 226.44308 -3.865798 226.92258 L -8.472924 228.5413 C -8.963495 228.71367 -9.445372 228.90984 -9.91684 229.12913 L -16.763621 232.31368 C -17.459783 232.63747 -18.178348 232.91074 -18.913747 233.13136 L -29.784136 236.39248 C -29.800857 236.3975 -29.81757 236.40254 -29.834276 236.4076 L -40.802363 239.7372 C -40.94026 239.77907 -41.077586 239.8228 -41.2143 239.86836 L -54.135536 244.17544 C -54.18466 244.1918 -54.23386 244.20795 -54.283136 244.22384 L -65.65054 247.89075 C -66.28903 248.0967 -66.91393 248.34263 -67.52154 248.62704 L -75.453505 252.33988 C -75.823845 252.51323 -76.1874 252.7007 -76.54338 252.90192 L -82.48949 256.26276 C -83.74253 256.971 -84.18417 258.56093 -83.47594 259.81396 C -83.39882 259.9504 -83.30955 260.0796 -83.20922 260.2 L -82.34511 261.23693 C -81.59016 262.14287 -80.93769 263.1295 -80.39957 264.17882 L -77.32243 270.17924 C -77.24696 270.3264 -77.16921 270.4724 -77.08922 270.61715 L -73.13446 277.77337 C -73.05097 277.92445 -72.96993 278.07687 -72.89137 278.23057 L -68.78307 286.26856 C -68.534 286.75587 -68.3101 287.25563 -68.11224 287.7659 L -64.62947 296.74776 C -64.61597 296.7826 -64.602345 296.81737 -64.5886 296.8521 L -60.992276 305.93754 C -60.87027 306.24577 -60.75787 306.55772 -60.65524 306.87294 L -58.033404 314.9257 C -58.01728 314.97524 -58.0014 315.02484 -57.98576 315.07452 L -54.91371 324.8328 C -54.71092 325.47695 -54.549114 326.1333 -54.42927 326.7979 L -52.443955 337.80737 C -52.4208 337.9358 -52.399213 338.0645 -52.379205 338.19342 L -50.673335 349.1868 C -50.6306 349.46222 -50.595065 349.7387 -50.56677 350.016 L -49.67935 358.7127 C -49.63262 359.1707 -49.60567 359.6305 -49.59859 360.0908 L -49.41435 372.0664 C -49.41093 372.2888 -49.40287 372.51105 -49.390185 372.7331 L -48.61981 386.21465 C -48.61275 386.3382 -48.604255 386.4617 -48.59433 386.58506 L -47.26076 403.15943 C -47.22641 403.5863 -47.20922 404.0144 -47.20922 404.44264 L -47.20922 416.8924 C -47.20922 417.09746 -47.20528 417.30247 -47.1974 417.50735 L -46.617046 432.5965 C -46.61183 432.73216 -46.608337 432.8679 -46.606574 433.00365 L -46.414415 447.7999 C -46.41095 448.0666 -46.414157 448.33333 -46.42403 448.59986 L -46.998256 464.104 C -47.005564 464.3013 -47.00922 464.49875 -47.00922 464.6962 L -47.00922 478.2924 C -47.00922 478.49746 -47.01316 478.7025 -47.02104 478.90736 L -47.60623 494.12236 C -47.608223 494.1741 -47.610465 494.2259 -47.61296 494.2776 L -48.40828 510.78055 C -48.408906 510.7935 -48.409547 510.8065 -48.410203 510.81945 L -49.20469 526.5106 C -49.20771 526.5702 -49.21106 526.6298 -49.214744 526.68933 L -50.403655 545.91007 C -50.407364 545.97 -50.41141 546.02996 -50.415794 546.0899 L -52.19893 570.4594 C -52.20579 570.55314 -52.21347 570.6468 -52.22198 570.7404 L -54.00787 590.3852 C -54.00877 590.3951 -54.009676 590.40494 -54.01059 590.4148 L -55.78136 609.4997 C -55.79993 609.6999 -55.822274 609.8997 -55.848377 610.099 L -57.80909 625.07175 C -57.9419 626.08594 -58.21104 627.07756 -58.60922 628.0197 L -58.60922 628.0197 C -59.006794 628.9605 -59.25546 629.9574 -59.34629 630.97465 L -60.10922 639.5197 C -60.616975 645.20676 -56.65851 650.3251 -51.026545 651.2638 Z" stroke="#7f8080" stroke-linecap="round" stroke-linejoin="round" stroke-width="1"/>
      <path d="M 10.572121 215.9638 L 5.8429506 220.01736 C 4.6926033 221.00338 3.4476428 221.8733 2.1262133 222.61448 L -.4004222 224.03165 C -1.835594 224.83662 -2.416397 226.60575 -1.7376112 228.10473 L -.7199944 230.35197 C -.5984154 230.62046 -.47168684 230.88658 -.33987902 231.1502 L 1.462391 234.75474 L 3.949377 239.7287 C 4.291174 240.4123 4.666832 241.07843 5.0749524 241.72463 L 7.401344 245.40808 C 7.84172 246.10535 8.31928 246.77842 8.831953 247.4244 L 12.242638 251.72185 C 12.788692 252.40987 13.373712 253.06606 13.994822 253.68717 L 18.660865 258.3532 C 19.061745 258.7541 19.47731 259.14 19.90671 259.51018 L 24.470235 263.44426 C 24.864892 263.78448 25.270997 264.1112 25.687846 264.42383 L 29.662786 267.40503 C 30.3287 267.90447 31.021233 268.36738 31.73733 268.79174 L 35.870394 271.24096 C 35.99839 271.3168 36.127117 271.3914 36.25656 271.46477 L 40.954107 274.1267 C 41.6924 274.54507 42.453276 274.92226 43.23325 275.25653 L 46.78307 276.77788 C 47.36903 277.029 47.96518 277.25567 48.569974 277.45726 L 53.58808 279.12997 C 54.835325 279.5457 56.11592 279.85376 57.415795 280.0507 L 61.51464 280.67174 C 61.879756 280.72706 62.24615 280.77358 62.6135 280.81126 L 69.494605 281.517 C 69.73978 281.54216 69.985344 281.56336 70.2312 281.58062 L 74.75835 281.8983 C 75.29421 281.9359 75.83122 281.95473 76.368405 281.95473 L 79.63046 281.95474 C 80.58416 281.95474 81.53693 281.89542 82.48327 281.77713 L 86.47198 281.27854 C 87.13195 281.19604 87.78802 281.08496 88.43835 280.9456 L 94.52039 279.6423 C 95.41426 279.45076 96.29592 279.2061 97.16068 278.9096 L 101.66952 277.36372 C 102.46417 277.09127 103.2433 276.7755 104.0034 276.4178 L 108.83677 274.14326 C 109.38697 273.88435 109.92668 273.6037 110.45464 273.30202 L 114.2225 271.14896 C 114.9153 270.75308 115.58701 270.3214 116.23494 269.85572 L 120.91106 266.49475 C 121.41175 266.1349 121.89776 265.75503 122.36792 265.3561 L 127.68877 260.84144 C 128.07108 260.51706 128.44269 260.18026 128.80298 259.83158 L 133.5022 255.28396 C 134.14179 254.665 134.74491 254.00944 135.30852 253.32058 L 139.1018 248.68434 C 139.60852 248.06503 140.08257 247.4197 140.52201 246.75096 L 144.1392 241.24656 C 144.35462 240.91873 144.56163 240.58544 144.76002 240.24702 L 147.28311 235.94292 C 147.66906 235.28454 148.022 234.60735 148.34062 233.91388 L 150.45932 229.3026 C 150.99218 228.14285 151.36334 226.91544 151.5624 225.65474 L 151.5624 225.65474 C 151.7407 224.52547 151.1614 223.41203 150.13432 222.9099 L 144.84088 220.322 C 143.52642 219.67937 142.29183 218.88486 141.1624 217.95474 L 140.75638 217.62037 C 139.91205 216.92504 139.28864 215.99874 138.9624 214.95474 L 138.9624 214.95474 C 138.91573 214.80542 138.75686 214.7222 138.60754 214.76886 C 138.49247 214.80482 138.41277 214.90969 138.40892 215.0302 L 138.29968 218.4531 C 138.20894 221.29619 137.5916 224.09776 136.479 226.71567 L 135.60206 228.77904 C 135.0435 230.09331 134.36374 231.3527 133.5716 232.5409 L 129.88582 238.06958 C 129.13831 239.19085 128.2937 240.24425 127.36175 241.21762 L 121.06668 247.79247 C 120.19861 248.69913 119.25777 249.5332 118.2536 250.28633 L 109.8787 256.5675 C 109.00228 257.22482 108.08002 257.81867 107.11896 258.34454 L 99.93376 262.27606 C 98.62263 262.99347 97.2447 263.58137 95.81952 264.03143 L 89.14661 266.13867 C 87.42973 266.68084 85.65514 267.01954 83.85927 267.1478 L 76.972815 267.6397 C 75.90052 267.7163 74.82417 267.71762 73.751685 267.64365 L 65.31543 267.06184 C 64.28125 266.99052 63.25308 266.84936 62.23795 266.63933 L 55.10274 265.16308 C 53.15079 264.75923 51.259614 264.10335 49.47676 263.21192 L 44.81735 260.8822 C 43.58321 260.26515 42.407106 259.53827 41.30326 258.7104 L 35.621303 254.44892 C 35.182167 254.11957 34.754962 253.7746 34.34051 253.41468 L 28.58533 248.41676 C 27.771043 247.70962 27.007503 246.94608 26.30036 246.1318 L 21.895135 241.0591 C 21.141032 240.19075 20.453124 239.26705 19.8372 238.29578 L 16.103497 232.40802 C 15.742931 231.83944 15.407505 231.2553 15.098188 230.65728 L 13.477815 227.52456 C 12.86867 226.34688 12.362502 225.11874 11.964965 223.85385 L 10.684726 219.78036 C 10.469951 219.09698 10.287218 218.40395 10.137126 217.70351 L 9.911709 216.65157 C 9.826635 216.25456 10.052993 215.8569 10.437797 215.72737 L 10.437797 215.72737 C 10.510292 215.70296 10.588844 215.74195 10.613249 215.81444 C 10.631263 215.86795 10.61499 215.92704 10.572121 215.9638 Z" fill="#000086"/>
      <path d="M 10.572121 215.9638 L 5.8429506 220.01736 C 4.6926033 221.00338 3.4476428 221.8733 2.1262133 222.61448 L -.4004222 224.03165 C -1.835594 224.83662 -2.416397 226.60575 -1.7376112 228.10473 L -.7199944 230.35197 C -.5984154 230.62046 -.47168684 230.88658 -.33987902 231.1502 L 1.462391 234.75474 L 3.949377 239.7287 C 4.291174 240.4123 4.666832 241.07843 5.0749524 241.72463 L 7.401344 245.40808 C 7.84172 246.10535 8.31928 246.77842 8.831953 247.4244 L 12.242638 251.72185 C 12.788692 252.40987 13.373712 253.06606 13.994822 253.68717 L 18.660865 258.3532 C 19.061745 258.7541 19.47731 259.14 19.90671 259.51018 L 24.470235 263.44426 C 24.864892 263.78448 25.270997 264.1112 25.687846 264.42383 L 29.662786 267.40503 C 30.3287 267.90447 31.021233 268.36738 31.73733 268.79174 L 35.870394 271.24096 C 35.99839 271.3168 36.127117 271.3914 36.25656 271.46477 L 40.954107 274.1267 C 41.6924 274.54507 42.453276 274.92226 43.23325 275.25653 L 46.78307 276.77788 C 47.36903 277.029 47.96518 277.25567 48.569974 277.45726 L 53.58808 279.12997 C 54.835325 279.5457 56.11592 279.85376 57.415795 280.0507 L 61.51464 280.67174 C 61.879756 280.72706 62.24615 280.77358 62.6135 280.81126 L 69.494605 281.517 C 69.73978 281.54216 69.985344 281.56336 70.2312 281.58062 L 74.75835 281.8983 C 75.29421 281.9359 75.83122 281.95473 76.368405 281.95473 L 79.63046 281.95474 C 80.58416 281.95474 81.53693 281.89542 82.48327 281.77713 L 86.47198 281.27854 C 87.13195 281.19604 87.78802 281.08496 88.43835 280.9456 L 94.52039 279.6423 C 95.41426 279.45076 96.29592 279.2061 97.16068 278.9096 L 101.66952 277.36372 C 102.46417 277.09127 103.2433 276.7755 104.0034 276.4178 L 108.83677 274.14326 C 109.38697 273.88435 109.92668 273.6037 110.45464 273.30202 L 114.2225 271.14896 C 114.9153 270.75308 115.58701 270.3214 116.23494 269.85572 L 120.91106 266.49475 C 121.41175 266.1349 121.89776 265.75503 122.36792 265.3561 L 127.68877 260.84144 C 128.07108 260.51706 128.44269 260.18026 128.80298 259.83158 L 133.5022 255.28396 C 134.14179 254.665 134.74491 254.00944 135.30852 253.32058 L 139.1018 248.68434 C 139.60852 248.06503 140.08257 247.4197 140.52201 246.75096 L 144.1392 241.24656 C 144.35462 240.91873 144.56163 240.58544 144.76002 240.24702 L 147.28311 235.94292 C 147.66906 235.28454 148.022 234.60735 148.34062 233.91388 L 150.45932 229.3026 C 150.99218 228.14285 151.36334 226.91544 151.5624 225.65474 L 151.5624 225.65474 C 151.7407 224.52547 151.1614 223.41203 150.13432 222.9099 L 144.84088 220.322 C 143.52642 219.67937 142.29183 218.88486 141.1624 217.95474 L 140.75638 217.62037 C 139.91205 216.92504 139.28864 215.99874 138.9624 214.95474 L 138.9624 214.95474 C 138.91573 214.80542 138.75686 214.7222 138.60754 214.76886 C 138.49247 214.80482 138.41277 214.90969 138.40892 215.0302 L 138.29968 218.4531 C 138.20894 221.29619 137.5916 224.09776 136.479 226.71567 L 135.60206 228.77904 C 135.0435 230.09331 134.36374 231.3527 133.5716 232.5409 L 129.88582 238.06958 C 129.13831 239.19085 128.2937 240.24425 127.36175 241.21762 L 121.06668 247.79247 C 120.19861 248.69913 119.25777 249.5332 118.2536 250.28633 L 109.8787 256.5675 C 109.00228 257.22482 108.08002 257.81867 107.11896 258.34454 L 99.93376 262.27606 C 98.62263 262.99347 97.2447 263.58137 95.81952 264.03143 L 89.14661 266.13867 C 87.42973 266.68084 85.65514 267.01954 83.85927 267.1478 L 76.972815 267.6397 C 75.90052 267.7163 74.82417 267.71762 73.751685 267.64365 L 65.31543 267.06184 C 64.28125 266.99052 63.25308 266.84936 62.23795 266.63933 L 55.10274 265.16308 C 53.15079 264.75923 51.259614 264.10335 49.47676 263.21192 L 44.81735 260.8822 C 43.58321 260.26515 42.407106 259.53827 41.30326 258.7104 L 35.621303 254.44892 C 35.182167 254.11957 34.754962 253.7746 34.34051 253.41468 L 28.58533 248.41676 C 27.771043 247.70962 27.007503 246.94608 26.30036 246.1318 L 21.895135 241.0591 C 21.141032 240.19075 20.453124 239.26705 19.8372 238.29578 L 16.103497 232.40802 C 15.742931 231.83944 15.407505 231.2553 15.098188 230.65728 L 13.477815 227.52456 C 12.86867 226.34688 12.362502 225.11874 11.964965 223.85385 L 10.684726 219.78036 C 10.469951 219.09698 10.287218 218.40395 10.137126 217.70351 L 9.911709 216.65157 C 9.826635 216.25456 10.052993 215.8569 10.437797 215.72737 L 10.437797 215.72737 C 10.510292 215.70296 10.588844 215.74195 10.613249 215.81444 C 10.631263 215.86795 10.61499 215.92704 10.572121 215.9638 Z" stroke="#7f8080" stroke-linecap="round" stroke-linejoin="round" stroke-width="1"/>
      <path d="M 10.059248 215.7559 L 15.459248 215.1559 L 22.259248 218.5559 L 27.259248 220.3559 L 35.65925 222.1559 L 44.05925 223.1559 L 52.05925 224.1559 L 59.65925 224.3559 L 68.25925 224.7559 L 79.85925 224.5559 L 88.25925 224.1559 L 97.65925 223.5559 L 106.05925 222.7559 L 115.25925 221.3559 L 123.45925 219.1559 L 129.25925 217.3559 L 134.85925 214.7559 L 137.65925 215.9559 L 138.05925 221.5559 L 135.25925 229.5559 L 129.85925 232.3559 L 119.25925 235.5559 L 107.85925 237.9559 L 96.65925 238.7559 L 84.25925 239.7559 L 73.85925 239.7559 L 64.45925 239.7559 L 52.85925 239.1559 L 41.65925 238.3559 L 31.059248 236.1559 L 22.459248 234.1559 L 16.259248 231.3559 L 14.259248 229.7559 L 11.059248 222.1559 Z" fill="#00008c"/>
      <path d="M 10.059248 215.7559 L 15.459248 215.1559 L 22.259248 218.5559 L 27.259248 220.3559 L 35.65925 222.1559 L 44.05925 223.1559 L 52.05925 224.1559 L 59.65925 224.3559 L 68.25925 224.7559 L 79.85925 224.5559 L 88.25925 224.1559 L 97.65925 223.5559 L 106.05925 222.7559 L 115.25925 221.3559 L 123.45925 219.1559 L 129.25925 217.3559 L 134.85925 214.7559 L 137.65925 215.9559 L 138.05925 221.5559 L 135.25925 229.5559 L 129.85925 232.3559 L 119.25925 235.5559 L 107.85925 237.9559 L 96.65925 238.7559 L 84.25925 239.7559 L 73.85925 239.7559 L 64.45925 239.7559 L 52.85925 239.1559 L 41.65925 238.3559 L 31.059248 236.1559 L 22.459248 234.1559 L 16.259248 231.3559 L 14.259248 229.7559 L 11.059248 222.1559 Z" stroke="#7f8080" stroke-linecap="round" stroke-linejoin="round" stroke-width="1"/>
      <path d="M -60.18679 641.2 L -60.18679 641.2 C -60.25247 641.7255 -60.189645 642.25905 -60.0037 642.7549 L -59.352694 644.4909 C -59.17594 644.9623 -58.94885 645.4132 -58.67538 645.8358 L -57.707566 647.3315 C -57.16661 648.16756 -56.453506 648.87855 -55.61588 649.417 L -54.53783 650.11005 C -54.237574 650.3031 -53.922994 650.47285 -53.59684 650.6179 L -52.27999 651.2035 C -51.68346 651.46876 -51.052754 651.6493 -50.40621 651.7398 L -41.395787 653.00126 C -41.385793 653.00265 -41.375797 653.004 -41.365797 653.0054 L -29.6498 654.594 C -29.603798 654.6002 -29.557737 654.606 -29.51162 654.6113 L -19.228685 655.7978 C -19.19676 655.8015 -19.164809 655.805 -19.132835 655.8082 L -5.422769 657.1991 C -5.394787 657.2019 -5.3667884 657.2046 -5.338774 657.2071 L 5.766526 658.19865 C 5.801644 658.2018 5.836786 658.20466 5.871948 658.2073 L 16.558485 658.99886 C 16.598964 659.00185 16.639468 659.0045 16.679993 659.0068 L 27.187976 659.6016 C 27.208795 659.6028 27.22961 659.604 27.250416 659.6054 L 39.293193 660.3951 C 39.377194 660.4006 39.461288 660.4046 39.545432 660.4071 L 52.99256 660.8026 C 53.01032 660.8031 53.028085 660.8037 53.045846 660.80434 L 63.68971 661.19856 C 63.77603 661.20176 63.86241 661.20335 63.94879 661.20335 L 74.55781 661.20335 C 74.59874 661.20335 74.63967 661.2037 74.680595 661.2044 L 85.76702 661.3989 C 85.93509 661.4019 86.10321 661.3988 86.27106 661.3896 L 96.89229 660.8103 C 96.97689 660.8057 97.06157 660.8026 97.14629 660.80104 L 107.91085 660.6053 C 107.98308 660.604 108.05529 660.6016 108.12745 660.598 L 120.14607 660.00695 C 120.19483 660.00455 120.24355 660.00165 120.29225 659.9982 L 131.5323 659.20945 C 131.59023 659.2054 131.64812 659.2006 131.70594 659.1951 L 144.11651 658.0131 C 144.18497 658.0066 144.25352 658.0011 144.32214 657.9966 L 156.25416 657.2142 C 156.36418 657.207 156.474 657.19715 156.58355 657.18475 L 166.9959 656.006 C 167.01144 656.0042 167.02697 656.0024 167.0425 656.00056 L 176.9902 654.8068 C 177.00954 654.8045 177.02886 654.8021 177.04818 654.7996 L 190.88394 653.0221 C 190.98115 653.0096 191.0781 652.9951 191.1747 652.9785 L 197.72819 651.85506 C 197.92915 651.8206 198.13153 651.79495 198.33473 651.7782 L 201.56706 651.5112 C 202.4563 651.43775 203.3233 651.195 204.12135 650.79594 L 205.60765 650.0528 C 206.20824 649.7525 206.7625 649.36735 207.25338 648.9092 L 208.5885 647.6631 C 209.19532 647.0967 209.65073 646.3875 209.91322 645.6 L 210.20805 644.7155 C 210.27812 644.5053 210.33817 644.2919 210.388 644.07595 L 210.8577 642.04056 C 210.89293 641.8879 210.8595 641.7275 210.7662 641.6017 L 210.7662 641.6017 C 210.67587 641.4798 210.52523 641.4183 210.3754 641.44214 L 201.89555 642.7912 C 201.84466 642.7993 201.79385 642.808 201.74315 642.8172 L 188.7584 645.17805 C 188.66561 645.1949 188.5725 645.2099 188.47911 645.223 L 177.24943 646.7991 C 177.22928 646.80194 177.20914 646.80486 177.18902 646.80786 L 164.06643 648.76645 C 163.90167 648.79105 163.73608 648.80975 163.56998 648.8225 L 150.84517 649.80136 C 150.82786 649.8027 150.81055 649.80396 150.79323 649.80516 L 136.45308 650.801 C 136.4305 650.8026 136.4079 650.804 136.3853 650.8054 L 123.08205 651.5996 C 123.04016 651.6021 122.99824 651.6042 122.9563 651.606 L 108.76485 652.1973 C 108.66776 652.2013 108.5706 652.20335 108.47344 652.20335 L 95.2192 652.20335 L 82.67753 652.20335 C 82.63865 652.20335 82.59976 652.2037 82.56088 652.2043 L 70.8025 652.4003 C 70.68032 652.4023 70.55812 652.4012 70.436005 652.3968 L 59.602405 652.0099 C 59.48029 652.0055 59.35809 652.0044 59.235914 652.0064 L 47.521274 652.20165 C 47.45323 652.2028 47.385176 652.2029 47.31713 652.2021 L 31.614845 652.0058 C 31.484443 652.0042 31.354113 651.9989 31.224007 651.99 L 16.914229 651.0099 C 16.850882 651.0055 16.787597 651.0003 16.724392 650.9943 L 2.233386 649.6047 C 2.2239315 649.6038 2.2144788 649.6029 2.205028 649.6019 L -11.607008 648.2207 C -11.722849 648.20915 -11.838382 648.1947 -11.953501 648.1773 L -26.262653 646.02116 C -26.34141 646.0093 -26.420363 645.9988 -26.49948 645.9896 L -40.01941 644.4221 C -40.126987 644.4096 -40.23426 644.3946 -40.34114 644.3772 L -49.73323 642.8438 C -49.89822 642.8168 -50.062195 642.784 -50.224836 642.7453 L -59.302435 640.58654 C -59.690754 640.4942 -60.08041 640.7341 -60.17276 641.12244 C -60.17884 641.148 -60.183525 641.1739 -60.18679 641.2 Z" fill="#00006e"/>
      <path d="M -60.18679 641.2 L -60.18679 641.2 C -60.25247 641.7255 -60.189645 642.25905 -60.0037 642.7549 L -59.352694 644.4909 C -59.17594 644.9623 -58.94885 645.4132 -58.67538 645.8358 L -57.707566 647.3315 C -57.16661 648.16756 -56.453506 648.87855 -55.61588 649.417 L -54.53783 650.11005 C -54.237574 650.3031 -53.922994 650.47285 -53.59684 650.6179 L -52.27999 651.2035 C -51.68346 651.46876 -51.052754 651.6493 -50.40621 651.7398 L -41.395787 653.00126 C -41.385793 653.00265 -41.375797 653.004 -41.365797 653.0054 L -29.6498 654.594 C -29.603798 654.6002 -29.557737 654.606 -29.51162 654.6113 L -19.228685 655.7978 C -19.19676 655.8015 -19.164809 655.805 -19.132835 655.8082 L -5.422769 657.1991 C -5.394787 657.2019 -5.3667884 657.2046 -5.338774 657.2071 L 5.766526 658.19865 C 5.801644 658.2018 5.836786 658.20466 5.871948 658.2073 L 16.558485 658.99886 C 16.598964 659.00185 16.639468 659.0045 16.679993 659.0068 L 27.187976 659.6016 C 27.208795 659.6028 27.22961 659.604 27.250416 659.6054 L 39.293193 660.3951 C 39.377194 660.4006 39.461288 660.4046 39.545432 660.4071 L 52.99256 660.8026 C 53.01032 660.8031 53.028085 660.8037 53.045846 660.80434 L 63.68971 661.19856 C 63.77603 661.20176 63.86241 661.20335 63.94879 661.20335 L 74.55781 661.20335 C 74.59874 661.20335 74.63967 661.2037 74.680595 661.2044 L 85.76702 661.3989 C 85.93509 661.4019 86.10321 661.3988 86.27106 661.3896 L 96.89229 660.8103 C 96.97689 660.8057 97.06157 660.8026 97.14629 660.80104 L 107.91085 660.6053 C 107.98308 660.604 108.05529 660.6016 108.12745 660.598 L 120.14607 660.00695 C 120.19483 660.00455 120.24355 660.00165 120.29225 659.9982 L 131.5323 659.20945 C 131.59023 659.2054 131.64812 659.2006 131.70594 659.1951 L 144.11651 658.0131 C 144.18497 658.0066 144.25352 658.0011 144.32214 657.9966 L 156.25416 657.2142 C 156.36418 657.207 156.474 657.19715 156.58355 657.18475 L 166.9959 656.006 C 167.01144 656.0042 167.02697 656.0024 167.0425 656.00056 L 176.9902 654.8068 C 177.00954 654.8045 177.02886 654.8021 177.04818 654.7996 L 190.88394 653.0221 C 190.98115 653.0096 191.0781 652.9951 191.1747 652.9785 L 197.72819 651.85506 C 197.92915 651.8206 198.13153 651.79495 198.33473 651.7782 L 201.56706 651.5112 C 202.4563 651.43775 203.3233 651.195 204.12135 650.79594 L 205.60765 650.0528 C 206.20824 649.7525 206.7625 649.36735 207.25338 648.9092 L 208.5885 647.6631 C 209.19532 647.0967 209.65073 646.3875 209.91322 645.6 L 210.20805 644.7155 C 210.27812 644.5053 210.33817 644.2919 210.388 644.07595 L 210.8577 642.04056 C 210.89293 641.8879 210.8595 641.7275 210.7662 641.6017 L 210.7662 641.6017 C 210.67587 641.4798 210.52523 641.4183 210.3754 641.44214 L 201.89555 642.7912 C 201.84466 642.7993 201.79385 642.808 201.74315 642.8172 L 188.7584 645.17805 C 188.66561 645.1949 188.5725 645.2099 188.47911 645.223 L 177.24943 646.7991 C 177.22928 646.80194 177.20914 646.80486 177.18902 646.80786 L 164.06643 648.76645 C 163.90167 648.79105 163.73608 648.80975 163.56998 648.8225 L 150.84517 649.80136 C 150.82786 649.8027 150.81055 649.80396 150.79323 649.80516 L 136.45308 650.801 C 136.4305 650.8026 136.4079 650.804 136.3853 650.8054 L 123.08205 651.5996 C 123.04016 651.6021 122.99824 651.6042 122.9563 651.606 L 108.76485 652.1973 C 108.66776 652.2013 108.5706 652.20335 108.47344 652.20335 L 95.2192 652.20335 L 82.67753 652.20335 C 82.63865 652.20335 82.59976 652.2037 82.56088 652.2043 L 70.8025 652.4003 C 70.68032 652.4023 70.55812 652.4012 70.436005 652.3968 L 59.602405 652.0099 C 59.48029 652.0055 59.35809 652.0044 59.235914 652.0064 L 47.521274 652.20165 C 47.45323 652.2028 47.385176 652.2029 47.31713 652.2021 L 31.614845 652.0058 C 31.484443 652.0042 31.354113 651.9989 31.224007 651.99 L 16.914229 651.0099 C 16.850882 651.0055 16.787597 651.0003 16.724392 650.9943 L 2.233386 649.6047 C 2.2239315 649.6038 2.2144788 649.6029 2.205028 649.6019 L -11.607008 648.2207 C -11.722849 648.20915 -11.838382 648.1947 -11.953501 648.1773 L -26.262653 646.02116 C -26.34141 646.0093 -26.420363 645.9988 -26.49948 645.9896 L -40.01941 644.4221 C -40.126987 644.4096 -40.23426 644.3946 -40.34114 644.3772 L -49.73323 642.8438 C -49.89822 642.8168 -50.062195 642.784 -50.224836 642.7453 L -59.302435 640.58654 C -59.690754 640.4942 -60.08041 640.7341 -60.17276 641.12244 C -60.17884 641.148 -60.183525 641.1739 -60.18679 641.2 Z" stroke="#7f8080" stroke-linecap="round" stroke-linejoin="round" stroke-width="1"/>
      <path d="M -63.2 304 L 213 303.5 L 215 316.6 L 211.4 329 L 208.6 342.8 L 207.4 353.8 L 206.4 363.2 L -52 364 L -57.2 355.8 L -56.6 346 L -58.6 335 L -57 326.8 L -62.4 317.4 L -61.6 310.8 Z" fill="#2b2baf"/>
      <path d="M -63.2 304 L 213 303.5 L 215 316.6 L 211.4 329 L 208.6 342.8 L 207.4 353.8 L 206.4 363.2 L -52 364 L -57.2 355.8 L -56.6 346 L -58.6 335 L -57 326.8 L -62.4 317.4 L -61.6 310.8 Z" stroke="#7f8080" stroke-linecap="round" stroke-linejoin="round" stroke-width="1"/>
      <path d="M 290.48575 364.10804 L 284.28575 368.50804 L 276.08575 372.50804 L 267.48575 376.10804 L 258.48575 379.90804 L 247.48575 383.90804 L 238.08575 386.70804 L 229.08575 389.30804 L 220.08575 391.90804 L 214.68575 393.30804 L 209.08575 394.30804 L 206.68575 388.50804 L 204.08575 383.10804 L 201.88575 379.10804 L 199.28575 375.70804 L 199.08575 366.70804 L 199.68575 355.70804 L 201.48575 344.90804 L 203.08575 334.50804 L 205.68575 323.50804 L 208.08575 313.90804 L 210.88575 305.90804 L 214.08575 296.50804 L 216.88575 289.10804 L 220.48575 281.50804 L 224.48575 273.90804 L 228.48575 266.50804 L 231.08575 262.90804 L 234.68575 257.10804 L 240.08575 261.50804 L 244.88575 266.30804 L 249.48575 272.50804 L 253.88575 278.70804 L 258.68575 287.30804 L 263.48575 296.70804 L 268.28575 305.90804 L 271.88575 314.50804 L 275.88575 323.50804 L 279.08575 331.70804 L 282.88575 341.10804 L 285.68575 349.10804 L 288.68575 357.50804 Z" fill="#f00000"/>
      <path d="M 290.48575 364.10804 L 284.28575 368.50804 L 276.08575 372.50804 L 267.48575 376.10804 L 258.48575 379.90804 L 247.48575 383.90804 L 238.08575 386.70804 L 229.08575 389.30804 L 220.08575 391.90804 L 214.68575 393.30804 L 209.08575 394.30804 L 206.68575 388.50804 L 204.08575 383.10804 L 201.88575 379.10804 L 199.28575 375.70804 L 199.08575 366.70804 L 199.68575 355.70804 L 201.48575 344.90804 L 203.08575 334.50804 L 205.68575 323.50804 L 208.08575 313.90804 L 210.88575 305.90804 L 214.08575 296.50804 L 216.88575 289.10804 L 220.48575 281.50804 L 224.48575 273.90804 L 228.48575 266.50804 L 231.08575 262.90804 L 234.68575 257.10804 L 240.08575 261.50804 L 244.88575 266.30804 L 249.48575 272.50804 L 253.88575 278.70804 L 258.68575 287.30804 L 263.48575 296.70804 L 268.28575 305.90804 L 271.88575 314.50804 L 275.88575 323.50804 L 279.08575 331.70804 L 282.88575 341.10804 L 285.68575 349.10804 L 288.68575 357.50804 Z" stroke="#7f8080" stroke-linecap="round" stroke-linejoin="round" stroke-width="2"/>
      <path d="M 291.4053 364.50275 L 285.2053 368.90275 L 277.0053 372.90275 L 268.4053 376.50275 L 259.4053 380.30275 L 248.4053 384.30275 L 239.0053 387.10275 L 230.0053 389.70275 L 221.0053 392.30275 L 215.6053 393.70275 L 210.0053 394.70275 L 207.0053 388.30275 L 210.8053 387.50275 L 215.6053 386.30275 L 221.2053 385.10275 L 227.2053 383.30275 L 231.8053 381.90275 L 236.0053 380.70275 L 240.6053 378.70275 L 245.2053 377.10275 L 250.0053 375.10275 L 254.0053 373.70275 L 259.2053 371.50275 L 263.8053 369.90275 L 268.6053 367.70275 L 273.4053 365.90275 L 277.4053 363.90275 L 281.8053 361.70275 L 286.2053 359.50275 L 289.6053 357.90275 Z" fill="#00b"/>
      <path d="M 291.4053 364.50275 L 285.2053 368.90275 L 277.0053 372.90275 L 268.4053 376.50275 L 259.4053 380.30275 L 248.4053 384.30275 L 239.0053 387.10275 L 230.0053 389.70275 L 221.0053 392.30275 L 215.6053 393.70275 L 210.0053 394.70275 L 207.0053 388.30275 L 210.8053 387.50275 L 215.6053 386.30275 L 221.2053 385.10275 L 227.2053 383.30275 L 231.8053 381.90275 L 236.0053 380.70275 L 240.6053 378.70275 L 245.2053 377.10275 L 250.0053 375.10275 L 254.0053 373.70275 L 259.2053 371.50275 L 263.8053 369.90275 L 268.6053 367.70275 L 273.4053 365.90275 L 277.4053 363.90275 L 281.8053 361.70275 L 286.2053 359.50275 L 289.6053 357.90275 Z" stroke="#7f8080" stroke-linecap="round" stroke-linejoin="round" stroke-width="1"/>
      <path d="M -139 363.6 L -132.8 368 L -124.6 372 L -116 375.6 L -107 379.4 L -96 383.4 L -86.6 386.2 L -77.6 388.8 L -68.6 391.4 L -63.2 392.8 L -57.6 393.8 L -55.2 388 L -52.6 382.6 L -50.4 378.6 L -47.8 375.2 L -47.6 366.2 L -48.2 355.2 L -50 344.4 L -51.6 334 L -54.2 323 L -56.6 313.4 L -59.4 305.4 L -62.6 296 L -65.4 288.6 L -69 281 L -73 273.4 L -77 266 L -79.6 262.4 L -83.2 256.6 L -88.6 261 L -93.4 265.8 L -98 272 L -102.4 278.2 L -107.2 286.8 L -112 296.2 L -116.8 305.4 L -120.4 314 L -124.4 323 L -127.6 331.2 L -131.4 340.6 L -134.2 348.6 L -137.2 357 Z" fill="red"/>
      <path d="M -139 363.6 L -132.8 368 L -124.6 372 L -116 375.6 L -107 379.4 L -96 383.4 L -86.6 386.2 L -77.6 388.8 L -68.6 391.4 L -63.2 392.8 L -57.6 393.8 L -55.2 388 L -52.6 382.6 L -50.4 378.6 L -47.8 375.2 L -47.6 366.2 L -48.2 355.2 L -50 344.4 L -51.6 334 L -54.2 323 L -56.6 313.4 L -59.4 305.4 L -62.6 296 L -65.4 288.6 L -69 281 L -73 273.4 L -77 266 L -79.6 262.4 L -83.2 256.6 L -88.6 261 L -93.4 265.8 L -98 272 L -102.4 278.2 L -107.2 286.8 L -112 296.2 L -116.8 305.4 L -120.4 314 L -124.4 323 L -127.6 331.2 L -131.4 340.6 L -134.2 348.6 L -137.2 357 Z" stroke="#7f8080" stroke-linecap="round" stroke-linejoin="round" stroke-width="1"/>
      <path d="M -140 365.44615 L -133.8 369.84615 L -125.6 373.84615 L -117 377.44615 L -108 381.24615 L -97 385.24615 L -87.6 388.04615 L -78.6 390.64615 L -69.6 393.24615 L -64.2 394.64615 L -58.6 395.64615 L -55.6 389.24615 L -59.4 388.44615 L -64.2 387.24615 L -69.8 386.04615 L -75.8 384.24615 L -80.4 382.84615 L -84.6 381.64615 L -89.2 379.64615 L -93.8 378.04615 L -98.6 376.04615 L -102.6 374.64615 L -107.8 372.44615 L -112.4 370.84615 L -117.2 368.64615 L -122 366.84615 L -126 364.84615 L -130.4 362.64615 L -134.8 360.44615 L -138.2 358.84615 Z" fill="#0000ac"/>
      <path d="M -140 365.44615 L -133.8 369.84615 L -125.6 373.84615 L -117 377.44615 L -108 381.24615 L -97 385.24615 L -87.6 388.04615 L -78.6 390.64615 L -69.6 393.24615 L -64.2 394.64615 L -58.6 395.64615 L -55.6 389.24615 L -59.4 388.44615 L -64.2 387.24615 L -69.8 386.04615 L -75.8 384.24615 L -80.4 382.84615 L -84.6 381.64615 L -89.2 379.64615 L -93.8 378.04615 L -98.6 376.04615 L -102.6 374.64615 L -107.8 372.44615 L -112.4 370.84615 L -117.2 368.64615 L -122 366.84615 L -126 364.84615 L -130.4 362.64615 L -134.8 360.44615 L -138.2 358.84615 Z" stroke="#7f8080" stroke-linecap="round" stroke-linejoin="round" stroke-width="1"/>
    </g>
  </g>
</svg>
