<?xml version="1.0" encoding="UTF-8" standalone="no"?>
<!DOCTYPE svg PUBLIC "-//W3C//DTD SVG 1.1//EN" "http://www.w3.org/Graphics/SVG/1.1/DTD/svg11.dtd">
<svg xmlns="http://www.w3.org/2000/svg" xmlns:xl="http://www.w3.org/1999/xlink" version="1.1" viewBox="-140.5 -232.5 432.4053 448.4" width="432.4053pt" height="448.4pt" xmlns:dc="http://purl.org/dc/elements/1.1/">
  <metadata> Produced by OmniGraffle 7.6.1 
    <dc:date>2021-08-02 22:15:48 +0000</dc:date>
  </metadata>
  <defs>
    <radialGradient cx="0" cy="0" r="1" id="Gradient" gradientUnits="userSpaceOnUse">
      <stop offset="0" stop-color="#cbcbcb"/>
      <stop offset="1" stop-color="#843918"/>
    </radialGradient>
    <radialGradient id="Obj_Gradient" xl:href="#Gradient" gradientTransform="translate(74.75925 -204.6) scale(70.26272)"/>
    <linearGradient x1="0" x2="1" id="Gradient_2" gradientUnits="userSpaceOnUse">
      <stop offset="0" stop-color="red"/>
      <stop offset="1" stop-color="#333"/>
    </linearGradient>
    <linearGradient id="Obj_Gradient_2" xl:href="#Gradient_2" gradientTransform="translate(-97.8 -87.15385) rotate(90) scale(36.8)"/>
    <linearGradient id="Obj_Gradient_3" xl:href="#Gradient_2" gradientTransform="translate(249.2053 -88.09725) rotate(90) scale(36.8)"/>
    <linearGradient x1="0" x2="1" id="Gradient_3" gradientUnits="userSpaceOnUse">
      <stop offset="0" stop-color="black"/>
      <stop offset="1" stop-color="#3a8eed"/>
    </linearGradient>
    <linearGradient id="Obj_Gradient_4" xl:href="#Gradient_3" gradientTransform="translate(74.05925 -231.2441) rotate(90) scale(25)"/>
    <linearGradient x1="0" x2="1" id="Gradient_4" gradientUnits="userSpaceOnUse">
      <stop offset="0" stop-color="red"/>
      <stop offset="1" stop-color="#241209"/>
    </linearGradient>
    <linearGradient id="Obj_Gradient_5" xl:href="#Gradient_4" gradientTransform="translate(75.32968 194.56677) rotate(90) scale(20.833242)"/>
    <linearGradient id="Obj_Gradient_6" xl:href="#Gradient_3" gradientTransform="translate(74.78697 -231.2441) rotate(90) scale(67.19884)"/>
  </defs>
  <g stroke="none" stroke-opacity="1" stroke-dasharray="none" fill="none" fill-opacity="1">
    <title>clemort</title>
    <g>
      <title>Capa 1</title>
      <path d="M 13.005654 -231.40955 L 21.171106 -228.29184 C 22.029097 -227.96424 22.90594 -227.68833 23.796923 -227.46558 L 37.5141 -224.03629 C 38.67576 -223.74587 39.85832 -223.54662 41.051005 -223.44034 L 58.57715 -221.8786 C 59.165 -221.82622 59.75464 -221.79648 60.34478 -221.78946 L 75.823695 -221.60519 C 76.11404 -221.60173 76.40442 -221.60377 76.69469 -221.6113 L 91.118 -221.98594 C 91.47878 -221.9953 91.8393 -222.01317 92.19924 -222.0395 L 106.57053 -223.09107 C 107.56197 -223.16361 108.54766 -223.30036 109.5214 -223.50044 L 121.09436 -225.87845 C 122.13637 -226.09256 123.16226 -226.3787 124.16465 -226.73481 L 135.91664 -230.90986 C 137.00702 -231.29723 138.21021 -230.76646 138.65925 -229.7 L 138.65925 -229.7 C 139.1814 -228.4599 139.33338 -227.09515 139.09685 -225.77055 L 138.91637 -224.75986 C 138.61259 -223.0587 138.11806 -221.3972 137.44214 -219.8068 L 135.89892 -216.1757 C 135.34035 -214.86142 134.6606 -213.60202 133.86846 -212.41382 L 130.18268 -206.88515 C 129.43517 -205.76389 128.59057 -204.71049 127.65861 -203.7371 L 121.36354 -197.16226 C 120.49547 -196.2556 119.55463 -195.42154 118.55046 -194.6684 L 110.17555 -188.38723 C 109.29914 -187.72992 108.37688 -187.13606 107.41582 -186.6102 L 100.23062 -182.67867 C 98.91949 -181.96126 97.54156 -181.37336 96.11638 -180.9233 L 89.44347 -178.81607 C 87.72659 -178.2739 85.952 -177.9352 84.15613 -177.80692 L 77.269675 -177.31503 C 76.19738 -177.23844 75.12103 -177.23712 74.048545 -177.31108 L 65.61229 -177.8929 C 64.57811 -177.96422 63.54994 -178.10537 62.53481 -178.3154 L 55.3996 -179.79165 C 53.44765 -180.1955 51.556474 -180.85139 49.77362 -181.74281 L 45.11421 -184.07252 C 43.88007 -184.68959 42.703967 -185.41646 41.60012 -186.24434 L 35.918163 -190.50581 C 35.479027 -190.83517 35.051822 -191.18013 34.63737 -191.54005 L 28.88219 -196.53797 C 28.067903 -197.24511 27.304363 -198.00865 26.59722 -198.82294 L 22.191995 -203.89562 C 21.437892 -204.76398 20.749984 -205.68768 20.13406 -206.65895 L 16.400357 -212.5467 C 16.039791 -213.1153 15.704365 -213.69944 15.395049 -214.29745 L 13.774675 -217.43017 C 13.165531 -218.60785 12.659362 -219.836 12.261825 -221.1009 L 10.981586 -225.17438 C 10.766811 -225.85775 10.584079 -226.5508 10.433986 -227.25122 L 10.359248 -227.6 C 10.164585 -228.50843 10.271846 -229.45557 10.664727 -230.29746 L 10.759248 -230.5 C 11.153724 -231.3453 12.134195 -231.7423 13.005654 -231.40955 Z" fill="url(#Obj_Gradient)"/>
      <path d="M 13.005654 -231.40955 L 21.171106 -228.29184 C 22.029097 -227.96424 22.90594 -227.68833 23.796923 -227.46558 L 37.5141 -224.03629 C 38.67576 -223.74587 39.85832 -223.54662 41.051005 -223.44034 L 58.57715 -221.8786 C 59.165 -221.82622 59.75464 -221.79648 60.34478 -221.78946 L 75.823695 -221.60519 C 76.11404 -221.60173 76.40442 -221.60377 76.69469 -221.6113 L 91.118 -221.98594 C 91.47878 -221.9953 91.8393 -222.01317 92.19924 -222.0395 L 106.57053 -223.09107 C 107.56197 -223.16361 108.54766 -223.30036 109.5214 -223.50044 L 121.09436 -225.87845 C 122.13637 -226.09256 123.16226 -226.3787 124.16465 -226.73481 L 135.91664 -230.90986 C 137.00702 -231.29723 138.21021 -230.76646 138.65925 -229.7 L 138.65925 -229.7 C 139.1814 -228.4599 139.33338 -227.09515 139.09685 -225.77055 L 138.91637 -224.75986 C 138.61259 -223.0587 138.11806 -221.3972 137.44214 -219.8068 L 135.89892 -216.1757 C 135.34035 -214.86142 134.6606 -213.60202 133.86846 -212.41382 L 130.18268 -206.88515 C 129.43517 -205.76389 128.59057 -204.71049 127.65861 -203.7371 L 121.36354 -197.16226 C 120.49547 -196.2556 119.55463 -195.42154 118.55046 -194.6684 L 110.17555 -188.38723 C 109.29914 -187.72992 108.37688 -187.13606 107.41582 -186.6102 L 100.23062 -182.67867 C 98.91949 -181.96126 97.54156 -181.37336 96.11638 -180.9233 L 89.44347 -178.81607 C 87.72659 -178.2739 85.952 -177.9352 84.15613 -177.80692 L 77.269675 -177.31503 C 76.19738 -177.23844 75.12103 -177.23712 74.048545 -177.31108 L 65.61229 -177.8929 C 64.57811 -177.96422 63.54994 -178.10537 62.53481 -178.3154 L 55.3996 -179.79165 C 53.44765 -180.1955 51.556474 -180.85139 49.77362 -181.74281 L 45.11421 -184.07252 C 43.88007 -184.68959 42.703967 -185.41646 41.60012 -186.24434 L 35.918163 -190.50581 C 35.479027 -190.83517 35.051822 -191.18013 34.63737 -191.54005 L 28.88219 -196.53797 C 28.067903 -197.24511 27.304363 -198.00865 26.59722 -198.82294 L 22.191995 -203.89562 C 21.437892 -204.76398 20.749984 -205.68768 20.13406 -206.65895 L 16.400357 -212.5467 C 16.039791 -213.1153 15.704365 -213.69944 15.395049 -214.29745 L 13.774675 -217.43017 C 13.165531 -218.60785 12.659362 -219.836 12.261825 -221.1009 L 10.981586 -225.17438 C 10.766811 -225.85775 10.584079 -226.5508 10.433986 -227.25122 L 10.359248 -227.6 C 10.164585 -228.50843 10.271846 -229.45557 10.664727 -230.29746 L 10.759248 -230.5 C 11.153724 -231.3453 12.134195 -231.7423 13.005654 -231.40955 Z" stroke="#7f8080" stroke-linecap="round" stroke-linejoin="round" stroke-width="1"/>
      <path d="M -51.026545 205.26379 L -37.284304 207.55416 C -37.100928 207.58472 -36.91703 207.61209 -36.7327 207.63624 L -8.37906 211.35154 C -8.132532 211.38385 -7.885285 211.4104 -7.637519 211.43118 L 22.60537 213.96768 C 22.862274 213.98923 23.119662 214.00456 23.377307 214.01367 L 62.30822 215.39002 C 62.49658 215.39668 62.685045 215.4 62.87352 215.4 L 94.34084 215.4 C 94.50746 215.4 94.67407 215.3974 94.8406 215.3922 L 119.87539 214.60986 C 120.08563 214.6033 120.29573 214.59258 120.50555 214.57772 L 142.5533 213.01682 C 142.71161 213.0056 142.86975 212.99205 143.02766 212.97614 L 168.28815 210.4305 C 168.48989 210.41017 168.69122 210.386 168.89204 210.35803 L 192.68474 207.04265 C 192.88875 207.01422 193.0922 206.98186 193.29496 206.94558 L 202.49079 205.3 C 207.8179 204.34674 211.46876 199.3931 210.80234 194.02255 L 208.59475 176.23198 C 208.5921 176.21066 208.5895 176.18934 208.58695 176.16801 L 205.02312 146.46949 C 205.00157 146.28985 204.98306 146.10985 204.9676 145.92958 L 202.6054 118.37037 C 202.59565 118.2568 202.58713 118.14312 202.57983 118.02936 L 201.1932 96.43772 C 201.1916 96.41258 201.18992 96.38744 201.18818 96.3623 L 199.59603 73.27599 C 199.59253 73.22533 199.58928 73.17466 199.58627 73.12398 L 198.4099 53.32181 C 198.39716 53.107294 198.38874 52.892545 198.38465 52.67769 L 197.99236 32.082853 C 197.9913 32.02762 197.98997 31.972394 197.98835 31.917175 L 197.39322 11.682832 C 197.3916 11.627614 197.39026 11.572387 197.3892 11.517154 L 196.99855 -8.992387 C 196.99337 -9.264083 196.99512 -9.535866 197.0038 -9.807472 L 197.58973 -28.167083 C 197.59044 -28.189025 197.59118 -28.210967 197.59197 -28.232907 L 198.38005 -50.102215 C 198.3872 -50.30072 198.39806 -50.499073 198.4126 -50.697174 L 199.97007 -71.91779 C 199.98388 -72.10591 199.99436 -72.29427 200.0015 -72.48276 L 200.75596 -92.38163 C 200.77915 -92.99337 200.83744 -93.60328 200.93052 -94.20835 L 203.66953 -112.01187 C 203.7503 -112.53696 203.8572 -113.05771 203.9898 -113.57217 L 208.61806 -131.52983 C 208.73316 -131.9764 208.8675 -132.41779 209.02073 -132.85275 L 214.74152 -149.0924 C 214.9076 -149.56387 215.0957 -150.0273 215.30517 -150.48117 L 220.83673 -162.46621 C 220.93942 -162.6887 221.0472 -162.90881 221.16 -163.12636 L 226.52223 -173.46778 C 226.56793 -173.55593 226.61446 -173.64364 226.6618 -173.73092 L 231.87777 -183.34788 C 232.61505 -184.70724 233.56468 -185.94013 234.69079 -187 L 234.69079 -187 C 235.36598 -187.63547 235.39817 -188.69797 234.7627 -189.37316 C 234.6382 -189.50544 234.49307 -189.61663 234.33295 -189.70241 L 231.1188 -191.42427 C 230.90016 -191.5414 230.6788 -191.65344 230.45494 -191.76029 L 222.60097 -195.50878 C 222.19436 -195.70284 221.77974 -195.87964 221.3582 -196.0387 L 211.68338 -199.68959 C 211.48833 -199.7632 211.29187 -199.83297 211.0941 -199.8989 L 198.39963 -204.13038 C 198.2604 -204.1768 198.12055 -204.22128 197.9801 -204.26384 L 185.09658 -208.16794 C 185.02605 -208.18931 184.95567 -208.21117 184.88544 -208.23352 L 172.38144 -212.21206 C 171.98782 -212.3373 171.5992 -212.47775 171.21643 -212.63307 L 159.24049 -217.49287 C 158.40883 -217.83036 157.60704 -218.23723 156.8436 -218.70917 L 147.22436 -224.6556 C 147.06865 -224.75186 146.91461 -224.85078 146.7623 -224.95232 L 141.8722 -228.21238 C 140.89081 -228.86665 140.0195 -229.67255 139.29078 -230.6 L 139.29078 -230.6 C 139.18518 -230.7344 138.99062 -230.75775 138.85621 -230.65215 C 138.75347 -230.57142 138.7125 -230.43487 138.75381 -230.31092 L 138.89078 -229.9 C 139.35003 -228.52225 139.4546 -227.05096 139.1948 -225.6221 L 138.79967 -223.44885 C 138.52845 -221.9572 138.04661 -220.51165 137.36858 -219.1556 L 135.83626 -216.09096 C 135.53956 -215.49756 135.20624 -214.9232 134.83823 -214.37117 L 131.63453 -209.56562 C 131.20593 -208.92272 130.73132 -208.3117 130.21443 -207.73739 L 125.65238 -202.66844 C 125.61132 -202.62281 125.56999 -202.57742 125.5284 -202.53227 L 119.53417 -196.02424 C 118.90643 -195.3427 118.22068 -194.71698 117.48465 -194.15413 L 112.46047 -190.31211 C 112.01432 -189.97094 111.55052 -189.6535 111.07099 -189.3611 L 104.58458 -185.40597 C 103.92292 -185.00252 103.23283 -184.64768 102.51975 -184.34424 L 95.40434 -181.3164 C 94.59667 -180.97272 93.76209 -180.69607 92.90905 -180.48928 L 88.82999 -179.50041 C 88.00516 -179.30045 87.16573 -179.16644 86.31963 -179.09965 L 80.61943 -178.64963 C 80.20049 -178.61656 79.78042 -178.6 79.36019 -178.6 L 72.32787 -178.6 C 71.57077 -178.6 70.81462 -178.65374 70.06513 -178.7608 L 62.11868 -179.89601 C 61.63367 -179.9653 61.1521 -180.05683 60.67549 -180.1703 L 54.714264 -181.58965 C 53.56878 -181.86238 52.4569 -182.26073 51.39883 -182.77747 L 45.118824 -185.84444 C 44.633774 -186.08133 44.16102 -186.3426 43.702383 -186.62728 L 39.49052 -189.24154 C 38.89135 -189.61344 38.317424 -190.02454 37.772495 -190.47216 L 33.32639 -194.12432 C 33.102693 -194.30807 32.884024 -194.49786 32.670626 -194.69348 L 28.868283 -198.17896 C 28.416988 -198.59264 27.98981 -199.0319 27.588852 -199.49454 L 23.470106 -204.24693 C 23.150724 -204.61545 22.848357 -204.99838 22.563952 -205.39451 L 18.134297 -211.5644 C 17.639405 -212.2537 17.200134 -212.9813 16.820642 -213.74028 L 14.244178 -218.8932 C 14.208582 -218.9644 14.173517 -219.03586 14.138986 -219.10758 L 12.890782 -221.7 C 12.040068 -223.46687 11.684547 -225.4314 11.862088 -227.38436 L 12.042293 -229.3666 C 12.066098 -229.62848 11.873116 -229.86006 11.611253 -229.88386 C 11.448858 -229.89862 11.290205 -229.82925 11.190782 -229.7 L 11.190782 -229.7 C 10.527336 -228.83752 9.747228 -228.07144 8.872851 -227.42375 L 4.976317 -224.53743 C 4.852634 -224.44582 4.7276346 -224.356 4.601359 -224.26798 L -.020891365 -221.0464 C -1.2076275 -220.2193 -2.5010482 -219.55692 -3.865798 -219.07742 L -8.472924 -217.4587 C -8.963495 -217.28633 -9.445372 -217.09016 -9.91684 -216.87087 L -16.763621 -213.68632 C -17.459783 -213.36253 -18.178348 -213.08926 -18.913747 -212.86864 L -29.784136 -209.60752 C -29.800857 -209.6025 -29.81757 -209.59746 -29.834276 -209.5924 L -40.802363 -206.2628 C -40.94026 -206.22093 -41.077586 -206.1772 -41.2143 -206.13164 L -54.135536 -201.82456 C -54.18466 -201.80819 -54.23386 -201.79205 -54.283136 -201.77616 L -65.65054 -198.10925 C -66.28903 -197.90329 -66.91393 -197.65737 -67.52154 -197.37296 L -75.453505 -193.66012 C -75.823845 -193.48677 -76.1874 -193.29929 -76.54338 -193.09808 L -82.48949 -189.73724 C -83.74253 -189.029 -84.18417 -187.43907 -83.47594 -186.18604 C -83.39882 -186.0496 -83.30955 -185.9204 -83.20922 -185.8 L -82.34511 -184.76307 C -81.59016 -183.85713 -80.93769 -182.8705 -80.39957 -181.82118 L -77.32243 -175.82076 C -77.24696 -175.6736 -77.16921 -175.5276 -77.08922 -175.38285 L -73.13446 -168.22663 C -73.05097 -168.07555 -72.96993 -167.92313 -72.89137 -167.76943 L -68.78307 -159.73144 C -68.534 -159.24413 -68.3101 -158.74437 -68.11224 -158.23411 L -64.62947 -149.25224 C -64.61597 -149.21741 -64.602345 -149.18263 -64.5886 -149.1479 L -60.992276 -140.06246 C -60.87027 -139.75423 -60.75787 -139.44228 -60.65524 -139.12706 L -58.033404 -131.07428 C -58.01728 -131.02476 -58.0014 -130.97516 -57.98576 -130.92548 L -54.91371 -121.16721 C -54.71092 -120.52305 -54.549114 -119.8667 -54.42927 -119.20208 L -52.443955 -108.19263 C -52.4208 -108.06421 -52.399213 -107.93552 -52.379205 -107.80658 L -50.673335 -96.8132 C -50.6306 -96.53778 -50.595065 -96.26129 -50.56677 -95.98402 L -49.67935 -87.2873 C -49.63262 -86.82931 -49.60567 -86.36952 -49.59859 -85.90921 L -49.41435 -73.933586 C -49.41093 -73.71122 -49.40287 -73.488946 -49.390185 -73.26691 L -48.61981 -59.78535 C -48.61275 -59.661786 -48.604255 -59.53831 -48.59433 -59.41494 L -47.26076 -42.840567 C -47.22641 -42.41369 -47.20922 -41.98561 -47.20922 -41.557357 L -47.20922 -29.107576 C -47.20922 -28.902542 -47.20528 -28.697528 -47.1974 -28.492646 L -46.617046 -13.403508 C -46.61183 -13.26784 -46.608337 -13.13211 -46.606574 -12.996352 L -46.414415 1.7999027 C -46.41095 2.0665949 -46.414157 2.333332 -46.42403 2.599864 L -46.998256 18.104012 C -47.005564 18.301323 -47.00922 18.498752 -47.00922 18.696198 L -47.00922 32.292425 C -47.00922 32.49746 -47.01316 32.702473 -47.02104 32.907355 L -47.60623 48.12236 C -47.608223 48.17412 -47.610465 48.225876 -47.61296 48.27762 L -48.40828 64.78055 C -48.408906 64.79352 -48.409547 64.80649 -48.410203 64.81945 L -49.20469 80.51062 C -49.20771 80.57021 -49.21106 80.62978 -49.214744 80.68933 L -50.403655 99.91007 C -50.407364 99.97003 -50.41141 100.02996 -50.415794 100.08987 L -52.19893 124.45942 C -52.20579 124.55314 -52.21347 124.6468 -52.22198 124.74038 L -54.00787 144.3852 C -54.00877 144.39507 -54.009676 144.40494 -54.01059 144.41481 L -55.78136 163.49972 C -55.79993 163.6999 -55.822274 163.8997 -55.848377 164.09903 L -57.80909 179.07175 C -57.9419 180.08594 -58.21104 181.07756 -58.60922 182.01973 L -58.60922 182.01973 C -59.006794 182.96048 -59.25546 183.9574 -59.34629 184.97465 L -60.10922 193.51973 C -60.616975 199.20676 -56.65851 204.32512 -51.026545 205.26379 Z" fill="red"/>
      <path d="M -51.026545 205.26379 L -37.284304 207.55416 C -37.100928 207.58472 -36.91703 207.61209 -36.7327 207.63624 L -8.37906 211.35154 C -8.132532 211.38385 -7.885285 211.4104 -7.637519 211.43118 L 22.60537 213.96768 C 22.862274 213.98923 23.119662 214.00456 23.377307 214.01367 L 62.30822 215.39002 C 62.49658 215.39668 62.685045 215.4 62.87352 215.4 L 94.34084 215.4 C 94.50746 215.4 94.67407 215.3974 94.8406 215.3922 L 119.87539 214.60986 C 120.08563 214.6033 120.29573 214.59258 120.50555 214.57772 L 142.5533 213.01682 C 142.71161 213.0056 142.86975 212.99205 143.02766 212.97614 L 168.28815 210.4305 C 168.48989 210.41017 168.69122 210.386 168.89204 210.35803 L 192.68474 207.04265 C 192.88875 207.01422 193.0922 206.98186 193.29496 206.94558 L 202.49079 205.3 C 207.8179 204.34674 211.46876 199.3931 210.80234 194.02255 L 208.59475 176.23198 C 208.5921 176.21066 208.5895 176.18934 208.58695 176.16801 L 205.02312 146.46949 C 205.00157 146.28985 204.98306 146.10985 204.9676 145.92958 L 202.6054 118.37037 C 202.59565 118.2568 202.58713 118.14312 202.57983 118.02936 L 201.1932 96.43772 C 201.1916 96.41258 201.18992 96.38744 201.18818 96.3623 L 199.59603 73.27599 C 199.59253 73.22533 199.58928 73.17466 199.58627 73.12398 L 198.4099 53.32181 C 198.39716 53.107294 198.38874 52.892545 198.38465 52.67769 L 197.99236 32.082853 C 197.9913 32.02762 197.98997 31.972394 197.98835 31.917175 L 197.39322 11.682832 C 197.3916 11.627614 197.39026 11.572387 197.3892 11.517154 L 196.99855 -8.992387 C 196.99337 -9.264083 196.99512 -9.535866 197.0038 -9.807472 L 197.58973 -28.167083 C 197.59044 -28.189025 197.59118 -28.210967 197.59197 -28.232907 L 198.38005 -50.102215 C 198.3872 -50.30072 198.39806 -50.499073 198.4126 -50.697174 L 199.97007 -71.91779 C 199.98388 -72.10591 199.99436 -72.29427 200.0015 -72.48276 L 200.75596 -92.38163 C 200.77915 -92.99337 200.83744 -93.60328 200.93052 -94.20835 L 203.66953 -112.01187 C 203.7503 -112.53696 203.8572 -113.05771 203.9898 -113.57217 L 208.61806 -131.52983 C 208.73316 -131.9764 208.8675 -132.41779 209.02073 -132.85275 L 214.74152 -149.0924 C 214.9076 -149.56387 215.0957 -150.0273 215.30517 -150.48117 L 220.83673 -162.46621 C 220.93942 -162.6887 221.0472 -162.90881 221.16 -163.12636 L 226.52223 -173.46778 C 226.56793 -173.55593 226.61446 -173.64364 226.6618 -173.73092 L 231.87777 -183.34788 C 232.61505 -184.70724 233.56468 -185.94013 234.69079 -187 L 234.69079 -187 C 235.36598 -187.63547 235.39817 -188.69797 234.7627 -189.37316 C 234.6382 -189.50544 234.49307 -189.61663 234.33295 -189.70241 L 231.1188 -191.42427 C 230.90016 -191.5414 230.6788 -191.65344 230.45494 -191.76029 L 222.60097 -195.50878 C 222.19436 -195.70284 221.77974 -195.87964 221.3582 -196.0387 L 211.68338 -199.68959 C 211.48833 -199.7632 211.29187 -199.83297 211.0941 -199.8989 L 198.39963 -204.13038 C 198.2604 -204.1768 198.12055 -204.22128 197.9801 -204.26384 L 185.09658 -208.16794 C 185.02605 -208.18931 184.95567 -208.21117 184.88544 -208.23352 L 172.38144 -212.21206 C 171.98782 -212.3373 171.5992 -212.47775 171.21643 -212.63307 L 159.24049 -217.49287 C 158.40883 -217.83036 157.60704 -218.23723 156.8436 -218.70917 L 147.22436 -224.6556 C 147.06865 -224.75186 146.91461 -224.85078 146.7623 -224.95232 L 141.8722 -228.21238 C 140.89081 -228.86665 140.0195 -229.67255 139.29078 -230.6 L 139.29078 -230.6 C 139.18518 -230.7344 138.99062 -230.75775 138.85621 -230.65215 C 138.75347 -230.57142 138.7125 -230.43487 138.75381 -230.31092 L 138.89078 -229.9 C 139.35003 -228.52225 139.4546 -227.05096 139.1948 -225.6221 L 138.79967 -223.44885 C 138.52845 -221.9572 138.04661 -220.51165 137.36858 -219.1556 L 135.83626 -216.09096 C 135.53956 -215.49756 135.20624 -214.9232 134.83823 -214.37117 L 131.63453 -209.56562 C 131.20593 -208.92272 130.73132 -208.3117 130.21443 -207.73739 L 125.65238 -202.66844 C 125.61132 -202.62281 125.56999 -202.57742 125.5284 -202.53227 L 119.53417 -196.02424 C 118.90643 -195.3427 118.22068 -194.71698 117.48465 -194.15413 L 112.46047 -190.31211 C 112.01432 -189.97094 111.55052 -189.6535 111.07099 -189.3611 L 104.58458 -185.40597 C 103.92292 -185.00252 103.23283 -184.64768 102.51975 -184.34424 L 95.40434 -181.3164 C 94.59667 -180.97272 93.76209 -180.69607 92.90905 -180.48928 L 88.82999 -179.50041 C 88.00516 -179.30045 87.16573 -179.16644 86.31963 -179.09965 L 80.61943 -178.64963 C 80.20049 -178.61656 79.78042 -178.6 79.36019 -178.6 L 72.32787 -178.6 C 71.57077 -178.6 70.81462 -178.65374 70.06513 -178.7608 L 62.11868 -179.89601 C 61.63367 -179.9653 61.1521 -180.05683 60.67549 -180.1703 L 54.714264 -181.58965 C 53.56878 -181.86238 52.4569 -182.26073 51.39883 -182.77747 L 45.118824 -185.84444 C 44.633774 -186.08133 44.16102 -186.3426 43.702383 -186.62728 L 39.49052 -189.24154 C 38.89135 -189.61344 38.317424 -190.02454 37.772495 -190.47216 L 33.32639 -194.12432 C 33.102693 -194.30807 32.884024 -194.49786 32.670626 -194.69348 L 28.868283 -198.17896 C 28.416988 -198.59264 27.98981 -199.0319 27.588852 -199.49454 L 23.470106 -204.24693 C 23.150724 -204.61545 22.848357 -204.99838 22.563952 -205.39451 L 18.134297 -211.5644 C 17.639405 -212.2537 17.200134 -212.9813 16.820642 -213.74028 L 14.244178 -218.8932 C 14.208582 -218.9644 14.173517 -219.03586 14.138986 -219.10758 L 12.890782 -221.7 C 12.040068 -223.46687 11.684547 -225.4314 11.862088 -227.38436 L 12.042293 -229.3666 C 12.066098 -229.62848 11.873116 -229.86006 11.611253 -229.88386 C 11.448858 -229.89862 11.290205 -229.82925 11.190782 -229.7 L 11.190782 -229.7 C 10.527336 -228.83752 9.747228 -228.07144 8.872851 -227.42375 L 4.976317 -224.53743 C 4.852634 -224.44582 4.7276346 -224.356 4.601359 -224.26798 L -.020891365 -221.0464 C -1.2076275 -220.2193 -2.5010482 -219.55692 -3.865798 -219.07742 L -8.472924 -217.4587 C -8.963495 -217.28633 -9.445372 -217.09016 -9.91684 -216.87087 L -16.763621 -213.68632 C -17.459783 -213.36253 -18.178348 -213.08926 -18.913747 -212.86864 L -29.784136 -209.60752 C -29.800857 -209.6025 -29.81757 -209.59746 -29.834276 -209.5924 L -40.802363 -206.2628 C -40.94026 -206.22093 -41.077586 -206.1772 -41.2143 -206.13164 L -54.135536 -201.82456 C -54.18466 -201.80819 -54.23386 -201.79205 -54.283136 -201.77616 L -65.65054 -198.10925 C -66.28903 -197.90329 -66.91393 -197.65737 -67.52154 -197.37296 L -75.453505 -193.66012 C -75.823845 -193.48677 -76.1874 -193.29929 -76.54338 -193.09808 L -82.48949 -189.73724 C -83.74253 -189.029 -84.18417 -187.43907 -83.47594 -186.18604 C -83.39882 -186.0496 -83.30955 -185.9204 -83.20922 -185.8 L -82.34511 -184.76307 C -81.59016 -183.85713 -80.93769 -182.8705 -80.39957 -181.82118 L -77.32243 -175.82076 C -77.24696 -175.6736 -77.16921 -175.5276 -77.08922 -175.38285 L -73.13446 -168.22663 C -73.05097 -168.07555 -72.96993 -167.92313 -72.89137 -167.76943 L -68.78307 -159.73144 C -68.534 -159.24413 -68.3101 -158.74437 -68.11224 -158.23411 L -64.62947 -149.25224 C -64.61597 -149.21741 -64.602345 -149.18263 -64.5886 -149.1479 L -60.992276 -140.06246 C -60.87027 -139.75423 -60.75787 -139.44228 -60.65524 -139.12706 L -58.033404 -131.07428 C -58.01728 -131.02476 -58.0014 -130.97516 -57.98576 -130.92548 L -54.91371 -121.16721 C -54.71092 -120.52305 -54.549114 -119.8667 -54.42927 -119.20208 L -52.443955 -108.19263 C -52.4208 -108.06421 -52.399213 -107.93552 -52.379205 -107.80658 L -50.673335 -96.8132 C -50.6306 -96.53778 -50.595065 -96.26129 -50.56677 -95.98402 L -49.67935 -87.2873 C -49.63262 -86.82931 -49.60567 -86.36952 -49.59859 -85.90921 L -49.41435 -73.933586 C -49.41093 -73.71122 -49.40287 -73.488946 -49.390185 -73.26691 L -48.61981 -59.78535 C -48.61275 -59.661786 -48.604255 -59.53831 -48.59433 -59.41494 L -47.26076 -42.840567 C -47.22641 -42.41369 -47.20922 -41.98561 -47.20922 -41.557357 L -47.20922 -29.107576 C -47.20922 -28.902542 -47.20528 -28.697528 -47.1974 -28.492646 L -46.617046 -13.403508 C -46.61183 -13.26784 -46.608337 -13.13211 -46.606574 -12.996352 L -46.414415 1.7999027 C -46.41095 2.0665949 -46.414157 2.333332 -46.42403 2.599864 L -46.998256 18.104012 C -47.005564 18.301323 -47.00922 18.498752 -47.00922 18.696198 L -47.00922 32.292425 C -47.00922 32.49746 -47.01316 32.702473 -47.02104 32.907355 L -47.60623 48.12236 C -47.608223 48.17412 -47.610465 48.225876 -47.61296 48.27762 L -48.40828 64.78055 C -48.408906 64.79352 -48.409547 64.80649 -48.410203 64.81945 L -49.20469 80.51062 C -49.20771 80.57021 -49.21106 80.62978 -49.214744 80.68933 L -50.403655 99.91007 C -50.407364 99.97003 -50.41141 100.02996 -50.415794 100.08987 L -52.19893 124.45942 C -52.20579 124.55314 -52.21347 124.6468 -52.22198 124.74038 L -54.00787 144.3852 C -54.00877 144.39507 -54.009676 144.40494 -54.01059 144.41481 L -55.78136 163.49972 C -55.79993 163.6999 -55.822274 163.8997 -55.848377 164.09903 L -57.80909 179.07175 C -57.9419 180.08594 -58.21104 181.07756 -58.60922 182.01973 L -58.60922 182.01973 C -59.006794 182.96048 -59.25546 183.9574 -59.34629 184.97465 L -60.10922 193.51973 C -60.616975 199.20676 -56.65851 204.32512 -51.026545 205.26379 Z" stroke="#7f8080" stroke-linecap="round" stroke-linejoin="round" stroke-width="1"/>
      <path d="M -140 -80.55385 L -133.8 -76.15385 L -125.6 -72.15385 L -117 -68.553854 L -108 -64.753854 L -97 -60.753854 L -87.6 -57.953854 L -78.6 -55.353854 L -69.6 -52.753854 L -64.2 -51.353854 L -58.6 -50.353854 L -56.2 -56.153854 L -53.6 -61.553854 L -51.4 -65.553854 L -48.8 -68.953854 L -48.6 -77.95385 L -49.2 -88.95385 L -51 -99.75385 L -52.6 -110.15385 L -55.2 -121.15386 L -57.6 -130.75386 L -60.4 -138.75386 L -63.6 -148.15386 L -66.4 -155.55386 L -70 -163.15386 L -74 -170.75386 L -78 -178.15386 L -80.6 -181.75386 L -84.2 -187.55386 L -89.6 -183.15386 L -94.4 -178.35386 L -99 -172.15386 L -103.4 -165.95386 L -108.2 -157.35386 L -113 -147.95386 L -117.8 -138.75386 L -121.4 -130.15386 L -125.4 -121.15386 L -128.6 -112.95385 L -132.4 -103.55385 L -135.2 -95.55385 L -138.2 -87.15385 Z" fill="#001282"/>
      <path d="M -140 -80.55385 L -133.8 -76.15385 L -125.6 -72.15385 L -117 -68.553854 L -108 -64.753854 L -97 -60.753854 L -87.6 -57.953854 L -78.6 -55.353854 L -69.6 -52.753854 L -64.2 -51.353854 L -58.6 -50.353854 L -56.2 -56.153854 L -53.6 -61.553854 L -51.4 -65.553854 L -48.8 -68.953854 L -48.6 -77.95385 L -49.2 -88.95385 L -51 -99.75385 L -52.6 -110.15385 L -55.2 -121.15386 L -57.6 -130.75386 L -60.4 -138.75386 L -63.6 -148.15386 L -66.4 -155.55386 L -70 -163.15386 L -74 -170.75386 L -78 -178.15386 L -80.6 -181.75386 L -84.2 -187.55386 L -89.6 -183.15386 L -94.4 -178.35386 L -99 -172.15386 L -103.4 -165.95386 L -108.2 -157.35386 L -113 -147.95386 L -117.8 -138.75386 L -121.4 -130.15386 L -125.4 -121.15386 L -128.6 -112.95385 L -132.4 -103.55385 L -135.2 -95.55385 L -138.2 -87.15385 Z" stroke="#7f8080" stroke-linecap="round" stroke-linejoin="round" stroke-width="1"/>
      <path d="M 291.4053 -81.49725 L 285.2053 -77.09725 L 277.0053 -73.09725 L 268.4053 -69.49725 L 259.4053 -65.69725 L 248.4053 -61.69725 L 239.0053 -58.89725 L 230.0053 -56.29725 L 221.0053 -53.69725 L 215.6053 -52.29725 L 210.0053 -51.29725 L 207.6053 -57.09725 L 205.0053 -62.49725 L 202.8053 -66.49725 L 200.2053 -69.89725 L 200.0053 -78.89725 L 200.6053 -89.89725 L 202.4053 -100.69725 L 204.0053 -111.09725 L 206.6053 -122.09725 L 209.0053 -131.69725 L 211.8053 -139.69725 L 215.0053 -149.09725 L 217.8053 -156.49725 L 221.4053 -164.09725 L 225.4053 -171.69725 L 229.4053 -179.09725 L 232.0053 -182.69725 L 235.6053 -188.49725 L 241.0053 -184.09725 L 245.8053 -179.29725 L 250.4053 -173.09725 L 254.8053 -166.89725 L 259.6053 -158.29725 L 264.4053 -148.89725 L 269.2053 -139.69725 L 272.8053 -131.09725 L 276.8053 -122.09725 L 280.0053 -113.89725 L 283.8053 -104.49725 L 286.6053 -96.49725 L 289.6053 -88.09725 Z" fill="#020a8f"/>
      <path d="M 291.4053 -81.49725 L 285.2053 -77.09725 L 277.0053 -73.09725 L 268.4053 -69.49725 L 259.4053 -65.69725 L 248.4053 -61.69725 L 239.0053 -58.89725 L 230.0053 -56.29725 L 221.0053 -53.69725 L 215.6053 -52.29725 L 210.0053 -51.29725 L 207.6053 -57.09725 L 205.0053 -62.49725 L 202.8053 -66.49725 L 200.2053 -69.89725 L 200.0053 -78.89725 L 200.6053 -89.89725 L 202.4053 -100.69725 L 204.0053 -111.09725 L 206.6053 -122.09725 L 209.0053 -131.69725 L 211.8053 -139.69725 L 215.0053 -149.09725 L 217.8053 -156.49725 L 221.4053 -164.09725 L 225.4053 -171.69725 L 229.4053 -179.09725 L 232.0053 -182.69725 L 235.6053 -188.49725 L 241.0053 -184.09725 L 245.8053 -179.29725 L 250.4053 -173.09725 L 254.8053 -166.89725 L 259.6053 -158.29725 L 264.4053 -148.89725 L 269.2053 -139.69725 L 272.8053 -131.09725 L 276.8053 -122.09725 L 280.0053 -113.89725 L 283.8053 -104.49725 L 286.6053 -96.49725 L 289.6053 -88.09725 Z" stroke="#7f8080" stroke-linecap="round" stroke-linejoin="round" stroke-width="1"/>
      <path d="M -140 -80.55385 L -133.8 -76.15385 L -125.6 -72.15385 L -117 -68.553854 L -108 -64.753854 L -97 -60.753854 L -87.6 -57.953854 L -78.6 -55.353854 L -69.6 -52.753854 L -64.2 -51.353854 L -58.6 -50.353854 L -55.6 -56.753854 L -59.4 -57.553854 L -64.2 -58.753854 L -69.8 -59.953854 L -75.8 -61.753854 L -80.4 -63.153854 L -84.6 -64.353854 L -89.2 -66.353854 L -93.8 -67.953854 L -98.6 -69.953854 L -102.6 -71.353854 L -107.8 -73.55385 L -112.4 -75.15385 L -117.2 -77.35385 L -122 -79.15385 L -126 -81.15385 L -130.4 -83.35385 L -134.8 -85.55385 L -138.2 -87.15385 Z" fill="url(#Obj_Gradient_2)"/>
      <path d="M -140 -80.55385 L -133.8 -76.15385 L -125.6 -72.15385 L -117 -68.553854 L -108 -64.753854 L -97 -60.753854 L -87.6 -57.953854 L -78.6 -55.353854 L -69.6 -52.753854 L -64.2 -51.353854 L -58.6 -50.353854 L -55.6 -56.753854 L -59.4 -57.553854 L -64.2 -58.753854 L -69.8 -59.953854 L -75.8 -61.753854 L -80.4 -63.153854 L -84.6 -64.353854 L -89.2 -66.353854 L -93.8 -67.953854 L -98.6 -69.953854 L -102.6 -71.353854 L -107.8 -73.55385 L -112.4 -75.15385 L -117.2 -77.35385 L -122 -79.15385 L -126 -81.15385 L -130.4 -83.35385 L -134.8 -85.55385 L -138.2 -87.15385 Z" stroke="#7f8080" stroke-linecap="round" stroke-linejoin="round" stroke-width="1"/>
      <path d="M 291.4053 -81.49725 L 285.2053 -77.09725 L 277.0053 -73.09725 L 268.4053 -69.49725 L 259.4053 -65.69725 L 248.4053 -61.69725 L 239.0053 -58.89725 L 230.0053 -56.29725 L 221.0053 -53.69725 L 215.6053 -52.29725 L 210.0053 -51.29725 L 207.0053 -57.69725 L 210.8053 -58.49725 L 215.6053 -59.69725 L 221.2053 -60.89725 L 227.2053 -62.69725 L 231.8053 -64.09725 L 236.0053 -65.29725 L 240.6053 -67.29725 L 245.2053 -68.89725 L 250.0053 -70.89725 L 254.0053 -72.29725 L 259.2053 -74.49725 L 263.8053 -76.09725 L 268.6053 -78.29725 L 273.4053 -80.09725 L 277.4053 -82.09725 L 281.8053 -84.29725 L 286.2053 -86.49725 L 289.6053 -88.09725 Z" fill="url(#Obj_Gradient_3)"/>
      <path d="M 291.4053 -81.49725 L 285.2053 -77.09725 L 277.0053 -73.09725 L 268.4053 -69.49725 L 259.4053 -65.69725 L 248.4053 -61.69725 L 239.0053 -58.89725 L 230.0053 -56.29725 L 221.0053 -53.69725 L 215.6053 -52.29725 L 210.0053 -51.29725 L 207.0053 -57.69725 L 210.8053 -58.49725 L 215.6053 -59.69725 L 221.2053 -60.89725 L 227.2053 -62.69725 L 231.8053 -64.09725 L 236.0053 -65.29725 L 240.6053 -67.29725 L 245.2053 -68.89725 L 250.0053 -70.89725 L 254.0053 -72.29725 L 259.2053 -74.49725 L 263.8053 -76.09725 L 268.6053 -78.29725 L 273.4053 -80.09725 L 277.4053 -82.09725 L 281.8053 -84.29725 L 286.2053 -86.49725 L 289.6053 -88.09725 Z" stroke="#7f8080" stroke-linecap="round" stroke-linejoin="round" stroke-width="1"/>
      <path d="M 10.059248 -230.2441 L 15.459248 -230.8441 L 22.259248 -227.4441 L 27.259248 -225.6441 L 35.65925 -223.8441 L 44.05925 -222.8441 L 52.05925 -221.8441 L 59.65925 -221.6441 L 68.25925 -221.2441 L 79.85925 -221.4441 L 88.25925 -221.8441 L 97.65925 -222.4441 L 106.05925 -223.2441 L 115.25925 -224.6441 L 123.45925 -226.8441 L 129.25925 -228.6441 L 134.85925 -231.2441 L 137.65925 -230.0441 L 138.05925 -224.4441 L 135.25925 -216.4441 L 129.85925 -213.6441 L 119.25925 -210.4441 L 107.85925 -208.0441 L 96.65925 -207.2441 L 84.25925 -206.2441 L 73.85925 -206.2441 L 64.45925 -206.2441 L 52.85925 -206.8441 L 41.65925 -207.6441 L 31.059248 -209.8441 L 22.459248 -211.8441 L 16.259248 -214.6441 L 14.259248 -216.2441 L 11.059248 -223.8441 Z" fill="url(#Obj_Gradient_4)"/>
      <path d="M 10.059248 -230.2441 L 15.459248 -230.8441 L 22.259248 -227.4441 L 27.259248 -225.6441 L 35.65925 -223.8441 L 44.05925 -222.8441 L 52.05925 -221.8441 L 59.65925 -221.6441 L 68.25925 -221.2441 L 79.85925 -221.4441 L 88.25925 -221.8441 L 97.65925 -222.4441 L 106.05925 -223.2441 L 115.25925 -224.6441 L 123.45925 -226.8441 L 129.25925 -228.6441 L 134.85925 -231.2441 L 137.65925 -230.0441 L 138.05925 -224.4441 L 135.25925 -216.4441 L 129.85925 -213.6441 L 119.25925 -210.4441 L 107.85925 -208.0441 L 96.65925 -207.2441 L 84.25925 -206.2441 L 73.85925 -206.2441 L 64.45925 -206.2441 L 52.85925 -206.8441 L 41.65925 -207.6441 L 31.059248 -209.8441 L 22.459248 -211.8441 L 16.259248 -214.6441 L 14.259248 -216.2441 L 11.059248 -223.8441 Z" stroke="#7f8080" stroke-linecap="round" stroke-linejoin="round" stroke-width="1"/>
      <path d="M -60.18679 195.2 L -60.18679 195.2 C -60.25247 195.72549 -60.189645 196.25905 -60.0037 196.7549 L -59.352694 198.49092 C -59.17594 198.96227 -58.94885 199.41318 -58.67538 199.83582 L -57.707566 201.33153 C -57.16661 202.16756 -56.453506 202.87855 -55.61588 203.41702 L -54.53783 204.11005 C -54.237574 204.30307 -53.922994 204.47285 -53.59684 204.61789 L -52.27999 205.20349 C -51.68346 205.46876 -51.052754 205.64928 -50.40621 205.7398 L -41.395787 207.00126 C -41.385793 207.00265 -41.375797 207.00403 -41.365797 207.00539 L -29.6498 208.594 C -29.603798 208.60024 -29.557737 208.60601 -29.51162 208.61134 L -19.228685 209.79783 C -19.19676 209.8015 -19.164809 209.80498 -19.132835 209.80822 L -5.422769 211.1991 C -5.394787 211.20193 -5.3667884 211.2046 -5.338774 211.2071 L 5.766526 212.19865 C 5.801644 212.20179 5.836786 212.20466 5.871948 212.20726 L 16.558485 212.99886 C 16.598964 213.00185 16.639468 213.0045 16.679993 213.0068 L 27.187976 213.60159 C 27.208795 213.60276 27.22961 213.60404 27.250416 213.6054 L 39.293193 214.3951 C 39.377194 214.4006 39.461288 214.4046 39.545432 214.40707 L 52.99256 214.80257 C 53.01032 214.8031 53.028085 214.80368 53.045846 214.80434 L 63.68971 215.19856 C 63.77603 215.20176 63.86241 215.20335 63.94879 215.20335 L 74.55781 215.20335 C 74.59874 215.20335 74.63967 215.20371 74.680595 215.20443 L 85.76702 215.39893 C 85.93509 215.40188 86.10321 215.39877 86.27106 215.38962 L 96.89229 214.81028 C 96.97689 214.80566 97.06157 214.80258 97.14629 214.80104 L 107.91085 214.60532 C 107.98308 214.604 108.05529 214.60158 108.12745 214.59803 L 120.14607 214.00695 C 120.19483 214.00455 120.24355 214.00165 120.29225 213.99823 L 131.5323 213.20945 C 131.59023 213.20539 131.64812 213.2006 131.70594 213.1951 L 144.11651 212.01313 C 144.18497 212.00661 144.25352 212.0011 144.32214 211.9966 L 156.25416 211.21418 C 156.36418 211.20696 156.474 211.19715 156.58355 211.18475 L 166.9959 210.006 C 167.01144 210.00423 167.02697 210.00242 167.0425 210.00056 L 176.9902 208.80683 C 177.00954 208.80451 177.02886 208.80211 177.04818 208.79963 L 190.88394 207.0221 C 190.98115 207.0096 191.0781 206.99507 191.1747 206.97851 L 197.72819 205.85506 C 197.92915 205.8206 198.13153 205.79495 198.33473 205.77817 L 201.56706 205.5112 C 202.4563 205.43775 203.3233 205.19497 204.12135 204.79594 L 205.60765 204.0528 C 206.20824 203.7525 206.7625 203.36735 207.25338 202.9092 L 208.5885 201.66308 C 209.19532 201.09672 209.65073 200.38747 209.91322 199.6 L 210.20805 198.71552 C 210.27812 198.5053 210.33817 198.29187 210.388 198.07595 L 210.8577 196.04056 C 210.89293 195.88792 210.8595 195.72752 210.7662 195.60168 L 210.7662 195.60168 C 210.67587 195.4798 210.52523 195.4183 210.3754 195.44214 L 201.89555 196.7912 C 201.84466 196.7993 201.79385 196.80796 201.74315 196.81718 L 188.7584 199.17805 C 188.66561 199.19492 188.5725 199.2099 188.47911 199.22302 L 177.24943 200.7991 C 177.22928 200.80194 177.20914 200.80486 177.18902 200.80786 L 164.06643 202.76645 C 163.90167 202.79105 163.73608 202.80975 163.56998 202.82253 L 150.84517 203.80136 C 150.82786 203.8027 150.81055 203.80396 150.79323 203.80516 L 136.45308 204.801 C 136.4305 204.80257 136.4079 204.80403 136.3853 204.80538 L 123.08205 205.5996 C 123.04016 205.6021 122.99824 205.60423 122.9563 205.60597 L 108.76485 206.19729 C 108.66776 206.20133 108.5706 206.20335 108.47344 206.20335 L 95.2192 206.20335 L 82.67753 206.20335 C 82.63865 206.20335 82.59976 206.20368 82.56088 206.20433 L 70.8025 206.4003 C 70.68032 206.40234 70.55812 206.40117 70.436005 206.3968 L 59.602405 206.0099 C 59.48029 206.00554 59.35809 206.00437 59.235914 206.0064 L 47.521274 206.20165 C 47.45323 206.20279 47.385176 206.20293 47.31713 206.20208 L 31.614845 206.0058 C 31.484443 206.00417 31.354113 205.9989 31.224007 205.98998 L 16.914229 205.00986 C 16.850882 205.00552 16.787597 205.00032 16.724392 204.99426 L 2.233386 203.60471 C 2.2239315 203.6038 2.2144788 203.60288 2.205028 203.60194 L -11.607008 202.22073 C -11.722849 202.20915 -11.838382 202.19468 -11.953501 202.17733 L -26.262653 200.02116 C -26.34141 200.0093 -26.420363 199.99877 -26.49948 199.9896 L -40.01941 198.42207 C -40.126987 198.4096 -40.23426 198.39463 -40.34114 198.37718 L -49.73323 196.84377 C -49.89822 196.81684 -50.062195 196.784 -50.224836 196.74532 L -59.302435 194.58654 C -59.690754 194.4942 -60.08041 194.73412 -60.17276 195.12244 C -60.17884 195.14802 -60.183525 195.17392 -60.18679 195.2 Z" fill="url(#Obj_Gradient_5)"/>
      <path d="M -60.18679 195.2 L -60.18679 195.2 C -60.25247 195.72549 -60.189645 196.25905 -60.0037 196.7549 L -59.352694 198.49092 C -59.17594 198.96227 -58.94885 199.41318 -58.67538 199.83582 L -57.707566 201.33153 C -57.16661 202.16756 -56.453506 202.87855 -55.61588 203.41702 L -54.53783 204.11005 C -54.237574 204.30307 -53.922994 204.47285 -53.59684 204.61789 L -52.27999 205.20349 C -51.68346 205.46876 -51.052754 205.64928 -50.40621 205.7398 L -41.395787 207.00126 C -41.385793 207.00265 -41.375797 207.00403 -41.365797 207.00539 L -29.6498 208.594 C -29.603798 208.60024 -29.557737 208.60601 -29.51162 208.61134 L -19.228685 209.79783 C -19.19676 209.8015 -19.164809 209.80498 -19.132835 209.80822 L -5.422769 211.1991 C -5.394787 211.20193 -5.3667884 211.2046 -5.338774 211.2071 L 5.766526 212.19865 C 5.801644 212.20179 5.836786 212.20466 5.871948 212.20726 L 16.558485 212.99886 C 16.598964 213.00185 16.639468 213.0045 16.679993 213.0068 L 27.187976 213.60159 C 27.208795 213.60276 27.22961 213.60404 27.250416 213.6054 L 39.293193 214.3951 C 39.377194 214.4006 39.461288 214.4046 39.545432 214.40707 L 52.99256 214.80257 C 53.01032 214.8031 53.028085 214.80368 53.045846 214.80434 L 63.68971 215.19856 C 63.77603 215.20176 63.86241 215.20335 63.94879 215.20335 L 74.55781 215.20335 C 74.59874 215.20335 74.63967 215.20371 74.680595 215.20443 L 85.76702 215.39893 C 85.93509 215.40188 86.10321 215.39877 86.27106 215.38962 L 96.89229 214.81028 C 96.97689 214.80566 97.06157 214.80258 97.14629 214.80104 L 107.91085 214.60532 C 107.98308 214.604 108.05529 214.60158 108.12745 214.59803 L 120.14607 214.00695 C 120.19483 214.00455 120.24355 214.00165 120.29225 213.99823 L 131.5323 213.20945 C 131.59023 213.20539 131.64812 213.2006 131.70594 213.1951 L 144.11651 212.01313 C 144.18497 212.00661 144.25352 212.0011 144.32214 211.9966 L 156.25416 211.21418 C 156.36418 211.20696 156.474 211.19715 156.58355 211.18475 L 166.9959 210.006 C 167.01144 210.00423 167.02697 210.00242 167.0425 210.00056 L 176.9902 208.80683 C 177.00954 208.80451 177.02886 208.80211 177.04818 208.79963 L 190.88394 207.0221 C 190.98115 207.0096 191.0781 206.99507 191.1747 206.97851 L 197.72819 205.85506 C 197.92915 205.8206 198.13153 205.79495 198.33473 205.77817 L 201.56706 205.5112 C 202.4563 205.43775 203.3233 205.19497 204.12135 204.79594 L 205.60765 204.0528 C 206.20824 203.7525 206.7625 203.36735 207.25338 202.9092 L 208.5885 201.66308 C 209.19532 201.09672 209.65073 200.38747 209.91322 199.6 L 210.20805 198.71552 C 210.27812 198.5053 210.33817 198.29187 210.388 198.07595 L 210.8577 196.04056 C 210.89293 195.88792 210.8595 195.72752 210.7662 195.60168 L 210.7662 195.60168 C 210.67587 195.4798 210.52523 195.4183 210.3754 195.44214 L 201.89555 196.7912 C 201.84466 196.7993 201.79385 196.80796 201.74315 196.81718 L 188.7584 199.17805 C 188.66561 199.19492 188.5725 199.2099 188.47911 199.22302 L 177.24943 200.7991 C 177.22928 200.80194 177.20914 200.80486 177.18902 200.80786 L 164.06643 202.76645 C 163.90167 202.79105 163.73608 202.80975 163.56998 202.82253 L 150.84517 203.80136 C 150.82786 203.8027 150.81055 203.80396 150.79323 203.80516 L 136.45308 204.801 C 136.4305 204.80257 136.4079 204.80403 136.3853 204.80538 L 123.08205 205.5996 C 123.04016 205.6021 122.99824 205.60423 122.9563 205.60597 L 108.76485 206.19729 C 108.66776 206.20133 108.5706 206.20335 108.47344 206.20335 L 95.2192 206.20335 L 82.67753 206.20335 C 82.63865 206.20335 82.59976 206.20368 82.56088 206.20433 L 70.8025 206.4003 C 70.68032 206.40234 70.55812 206.40117 70.436005 206.3968 L 59.602405 206.0099 C 59.48029 206.00554 59.35809 206.00437 59.235914 206.0064 L 47.521274 206.20165 C 47.45323 206.20279 47.385176 206.20293 47.31713 206.20208 L 31.614845 206.0058 C 31.484443 206.00417 31.354113 205.9989 31.224007 205.98998 L 16.914229 205.00986 C 16.850882 205.00552 16.787597 205.00032 16.724392 204.99426 L 2.233386 203.60471 C 2.2239315 203.6038 2.2144788 203.60288 2.205028 203.60194 L -11.607008 202.22073 C -11.722849 202.20915 -11.838382 202.19468 -11.953501 202.17733 L -26.262653 200.02116 C -26.34141 200.0093 -26.420363 199.99877 -26.49948 199.9896 L -40.01941 198.42207 C -40.126987 198.4096 -40.23426 198.39463 -40.34114 198.37718 L -49.73323 196.84377 C -49.89822 196.81684 -50.062195 196.784 -50.224836 196.74532 L -59.302435 194.58654 C -59.690754 194.4942 -60.08041 194.73412 -60.17276 195.12244 C -60.17884 195.14802 -60.183525 195.17392 -60.18679 195.2 Z" stroke="#7f8080" stroke-linecap="round" stroke-linejoin="round" stroke-width="1"/>
      <path d="M 208.90265 -132.2 L 215.10265 -149.8 L 221.10265 -162.8 L 226.70265 -173.6 L 233.10265 -185.4 L 236.50265 -188.6 L 230.90265 -191.6 L 222.10265 -195.8 L 211.50265 -199.8 L 198.30265 -204.2 L 185.10265 -208.2 L 171.90265 -212.4 L 158.10265 -218 L 147.10265 -224.8 L 140.50265 -229.2 L 138.30265 -232 L 139.70265 -227.8 L 138.50265 -221.2 L 135.50265 -215.2 L 131.10265 -208.6 L 125.70265 -202.6 L 118.70265 -195 L 111.90265 -189.8 L 103.70265 -184.8 L 94.30265 -180.8 L 87.70264 -179.2 L 80.102645 -178.6 L 71.302645 -178.6 L 61.502645 -180 L 53.102644 -182 L 44.502644 -186.2 L 38.702644 -189.8 L 33.102644 -194.4 L 28.302644 -198.8 L 23.102644 -204.8 L 17.502644 -212.6 L 14.302644 -219 L 11.702644 -224.4 L 12.302644 -231 L 10.302644 -228.4 L 4.9026437 -224.4 L -1.6973564 -219.8 L -9.097357 -217.2 L -17.697357 -213.2 L -29.697357 -209.6 L -40.897357 -206.2 L -54.09736 -201.8 L -66.49736 -197.8 L -75.89736 -193.4 L -85.09736 -188.2 L -81.09736 -183.4 L -77.09736 -175.6 L -72.89736 -168 L -68.29736 -159 L -64.49736 -149.2 L -60.69736 -139.6 L -57.6 -129 Z" fill="#00007f"/>
      <path d="M 208.90265 -132.2 L 215.10265 -149.8 L 221.10265 -162.8 L 226.70265 -173.6 L 233.10265 -185.4 L 236.50265 -188.6 L 230.90265 -191.6 L 222.10265 -195.8 L 211.50265 -199.8 L 198.30265 -204.2 L 185.10265 -208.2 L 171.90265 -212.4 L 158.10265 -218 L 147.10265 -224.8 L 140.50265 -229.2 L 138.30265 -232 L 139.70265 -227.8 L 138.50265 -221.2 L 135.50265 -215.2 L 131.10265 -208.6 L 125.70265 -202.6 L 118.70265 -195 L 111.90265 -189.8 L 103.70265 -184.8 L 94.30265 -180.8 L 87.70264 -179.2 L 80.102645 -178.6 L 71.302645 -178.6 L 61.502645 -180 L 53.102644 -182 L 44.502644 -186.2 L 38.702644 -189.8 L 33.102644 -194.4 L 28.302644 -198.8 L 23.102644 -204.8 L 17.502644 -212.6 L 14.302644 -219 L 11.702644 -224.4 L 12.302644 -231 L 10.302644 -228.4 L 4.9026437 -224.4 L -1.6973564 -219.8 L -9.097357 -217.2 L -17.697357 -213.2 L -29.697357 -209.6 L -40.897357 -206.2 L -54.09736 -201.8 L -66.49736 -197.8 L -75.89736 -193.4 L -85.09736 -188.2 L -81.09736 -183.4 L -77.09736 -175.6 L -72.89736 -168 L -68.29736 -159 L -64.49736 -149.2 L -60.69736 -139.6 L -57.6 -129 Z" stroke="#7f8080" stroke-linecap="round" stroke-linejoin="round" stroke-width="1"/>
      <path d="M 10.572121 -230.0362 L 5.8429506 -225.98264 C 4.6926033 -224.99662 3.4476428 -224.1267 2.1262133 -223.38552 L -.4004222 -221.96835 C -1.835594 -221.16338 -2.416397 -219.39425 -1.7376112 -217.89527 L -.7199944 -215.64803 C -.5984154 -215.37954 -.47168684 -215.11342 -.33987902 -214.8498 L 1.462391 -211.24526 L 3.949377 -206.2713 C 4.291174 -205.5877 4.666832 -204.92157 5.0749524 -204.27537 L 7.401344 -200.59192 C 7.84172 -199.89465 8.31928 -199.22158 8.831953 -198.57561 L 12.242638 -194.27815 C 12.788692 -193.59013 13.373712 -192.93394 13.994822 -192.31283 L 18.660865 -187.6468 C 19.061745 -187.2459 19.47731 -186.85999 19.90671 -186.48982 L 24.470235 -182.55574 C 24.864892 -182.21552 25.270997 -181.8888 25.687846 -181.57617 L 29.662786 -178.59497 C 30.3287 -178.09553 31.021233 -177.63262 31.73733 -177.20826 L 35.870394 -174.75904 C 35.99839 -174.6832 36.127117 -174.60859 36.25656 -174.53523 L 40.954107 -171.8733 C 41.6924 -171.45493 42.453276 -171.07774 43.23325 -170.74347 L 46.78307 -169.22212 C 47.36903 -168.971 47.96518 -168.74433 48.569974 -168.54274 L 53.58808 -166.87003 C 54.835325 -166.45429 56.11592 -166.14624 57.415795 -165.9493 L 61.51464 -165.32826 C 61.879756 -165.27294 62.24615 -165.22642 62.6135 -165.18874 L 69.494605 -164.48299 C 69.73978 -164.45784 69.985344 -164.43664 70.2312 -164.41938 L 74.75835 -164.10169 C 75.29421 -164.06409 75.83122 -164.04527 76.368405 -164.04527 L 79.63046 -164.04526 C 80.58416 -164.04526 81.53693 -164.10458 82.48327 -164.22287 L 86.47198 -164.72146 C 87.13195 -164.80396 87.78802 -164.91504 88.43835 -165.0544 L 94.52039 -166.3577 C 95.41426 -166.54924 96.29592 -166.7939 97.16068 -167.09039 L 101.66952 -168.63628 C 102.46417 -168.90873 103.2433 -169.22451 104.0034 -169.5822 L 108.83677 -171.85674 C 109.38697 -172.11565 109.92668 -172.39629 110.45464 -172.69798 L 114.2225 -174.85104 C 114.9153 -175.24692 115.58701 -175.67858 116.23494 -176.14428 L 120.91106 -179.50525 C 121.41175 -179.86511 121.89776 -180.24497 122.36792 -180.6439 L 127.68877 -185.15856 C 128.07108 -185.48294 128.44269 -185.81974 128.80298 -186.16842 L 133.5022 -190.71604 C 134.14179 -191.335 134.74491 -191.99056 135.30852 -192.67942 L 139.1018 -197.31566 C 139.60852 -197.93497 140.08257 -198.5803 140.52201 -199.24904 L 144.1392 -204.75344 C 144.35462 -205.08127 144.56163 -205.41456 144.76002 -205.75298 L 147.28311 -210.05708 C 147.66906 -210.71546 148.022 -211.39265 148.34062 -212.08612 L 150.45932 -216.6974 C 150.99218 -217.85715 151.36334 -219.08456 151.5624 -220.34526 L 151.5624 -220.34526 C 151.7407 -221.47453 151.1614 -222.58797 150.13432 -223.0901 L 144.84088 -225.678 C 143.52642 -226.32063 142.29183 -227.11514 141.1624 -228.04526 L 140.75638 -228.37963 C 139.91205 -229.07496 139.28864 -230.00126 138.9624 -231.04526 L 138.9624 -231.04526 C 138.91573 -231.19458 138.75686 -231.2778 138.60754 -231.23114 C 138.49247 -231.19518 138.41277 -231.09031 138.40892 -230.9698 L 138.29968 -227.5469 C 138.20894 -224.70381 137.5916 -221.90224 136.479 -219.28433 L 135.60206 -217.22096 C 135.0435 -215.90669 134.36374 -214.6473 133.5716 -213.4591 L 129.88582 -207.93042 C 129.13831 -206.80915 128.2937 -205.75575 127.36175 -204.78238 L 121.06668 -198.20753 C 120.19861 -197.30087 119.25777 -196.4668 118.2536 -195.71367 L 109.8787 -189.4325 C 109.00228 -188.77518 108.08002 -188.18133 107.11896 -187.65546 L 99.93376 -183.72394 C 98.62263 -183.00653 97.2447 -182.41863 95.81952 -181.96857 L 89.14661 -179.86133 C 87.42973 -179.31916 85.65514 -178.98046 83.85927 -178.85219 L 76.972815 -178.3603 C 75.90052 -178.2837 74.82417 -178.28238 73.751685 -178.35635 L 65.31543 -178.93816 C 64.28125 -179.00948 63.25308 -179.15064 62.23795 -179.36067 L 55.10274 -180.83692 C 53.15079 -181.24077 51.259614 -181.89665 49.47676 -182.78808 L 44.81735 -185.11779 C 43.58321 -185.73485 42.407106 -186.46173 41.30326 -187.2896 L 35.621303 -191.55108 C 35.182167 -191.88043 34.754962 -192.2254 34.34051 -192.58532 L 28.58533 -197.58324 C 27.771043 -198.29038 27.007503 -199.05392 26.30036 -199.8682 L 21.895135 -204.9409 C 21.141032 -205.80925 20.453124 -206.73295 19.8372 -207.70422 L 16.103497 -213.59198 C 15.742931 -214.16056 15.407505 -214.7447 15.098188 -215.34272 L 13.477815 -218.47544 C 12.86867 -219.65312 12.362502 -220.88126 11.964965 -222.14615 L 10.684726 -226.21964 C 10.469951 -226.90302 10.287218 -227.59605 10.137126 -228.29649 L 9.911709 -229.34843 C 9.826635 -229.74544 10.052993 -230.1431 10.437797 -230.27263 L 10.437797 -230.27263 C 10.510292 -230.29704 10.588844 -230.25805 10.613249 -230.18556 C 10.631263 -230.13205 10.61499 -230.07296 10.572121 -230.0362 Z" fill="url(#Obj_Gradient_6)"/>
      <path d="M 10.572121 -230.0362 L 5.8429506 -225.98264 C 4.6926033 -224.99662 3.4476428 -224.1267 2.1262133 -223.38552 L -.4004222 -221.96835 C -1.835594 -221.16338 -2.416397 -219.39425 -1.7376112 -217.89527 L -.7199944 -215.64803 C -.5984154 -215.37954 -.47168684 -215.11342 -.33987902 -214.8498 L 1.462391 -211.24526 L 3.949377 -206.2713 C 4.291174 -205.5877 4.666832 -204.92157 5.0749524 -204.27537 L 7.401344 -200.59192 C 7.84172 -199.89465 8.31928 -199.22158 8.831953 -198.57561 L 12.242638 -194.27815 C 12.788692 -193.59013 13.373712 -192.93394 13.994822 -192.31283 L 18.660865 -187.6468 C 19.061745 -187.2459 19.47731 -186.85999 19.90671 -186.48982 L 24.470235 -182.55574 C 24.864892 -182.21552 25.270997 -181.8888 25.687846 -181.57617 L 29.662786 -178.59497 C 30.3287 -178.09553 31.021233 -177.63262 31.73733 -177.20826 L 35.870394 -174.75904 C 35.99839 -174.6832 36.127117 -174.60859 36.25656 -174.53523 L 40.954107 -171.8733 C 41.6924 -171.45493 42.453276 -171.07774 43.23325 -170.74347 L 46.78307 -169.22212 C 47.36903 -168.971 47.96518 -168.74433 48.569974 -168.54274 L 53.58808 -166.87003 C 54.835325 -166.45429 56.11592 -166.14624 57.415795 -165.9493 L 61.51464 -165.32826 C 61.879756 -165.27294 62.24615 -165.22642 62.6135 -165.18874 L 69.494605 -164.48299 C 69.73978 -164.45784 69.985344 -164.43664 70.2312 -164.41938 L 74.75835 -164.10169 C 75.29421 -164.06409 75.83122 -164.04527 76.368405 -164.04527 L 79.63046 -164.04526 C 80.58416 -164.04526 81.53693 -164.10458 82.48327 -164.22287 L 86.47198 -164.72146 C 87.13195 -164.80396 87.78802 -164.91504 88.43835 -165.0544 L 94.52039 -166.3577 C 95.41426 -166.54924 96.29592 -166.7939 97.16068 -167.09039 L 101.66952 -168.63628 C 102.46417 -168.90873 103.2433 -169.22451 104.0034 -169.5822 L 108.83677 -171.85674 C 109.38697 -172.11565 109.92668 -172.39629 110.45464 -172.69798 L 114.2225 -174.85104 C 114.9153 -175.24692 115.58701 -175.67858 116.23494 -176.14428 L 120.91106 -179.50525 C 121.41175 -179.86511 121.89776 -180.24497 122.36792 -180.6439 L 127.68877 -185.15856 C 128.07108 -185.48294 128.44269 -185.81974 128.80298 -186.16842 L 133.5022 -190.71604 C 134.14179 -191.335 134.74491 -191.99056 135.30852 -192.67942 L 139.1018 -197.31566 C 139.60852 -197.93497 140.08257 -198.5803 140.52201 -199.24904 L 144.1392 -204.75344 C 144.35462 -205.08127 144.56163 -205.41456 144.76002 -205.75298 L 147.28311 -210.05708 C 147.66906 -210.71546 148.022 -211.39265 148.34062 -212.08612 L 150.45932 -216.6974 C 150.99218 -217.85715 151.36334 -219.08456 151.5624 -220.34526 L 151.5624 -220.34526 C 151.7407 -221.47453 151.1614 -222.58797 150.13432 -223.0901 L 144.84088 -225.678 C 143.52642 -226.32063 142.29183 -227.11514 141.1624 -228.04526 L 140.75638 -228.37963 C 139.91205 -229.07496 139.28864 -230.00126 138.9624 -231.04526 L 138.9624 -231.04526 C 138.91573 -231.19458 138.75686 -231.2778 138.60754 -231.23114 C 138.49247 -231.19518 138.41277 -231.09031 138.40892 -230.9698 L 138.29968 -227.5469 C 138.20894 -224.70381 137.5916 -221.90224 136.479 -219.28433 L 135.60206 -217.22096 C 135.0435 -215.90669 134.36374 -214.6473 133.5716 -213.4591 L 129.88582 -207.93042 C 129.13831 -206.80915 128.2937 -205.75575 127.36175 -204.78238 L 121.06668 -198.20753 C 120.19861 -197.30087 119.25777 -196.4668 118.2536 -195.71367 L 109.8787 -189.4325 C 109.00228 -188.77518 108.08002 -188.18133 107.11896 -187.65546 L 99.93376 -183.72394 C 98.62263 -183.00653 97.2447 -182.41863 95.81952 -181.96857 L 89.14661 -179.86133 C 87.42973 -179.31916 85.65514 -178.98046 83.85927 -178.85219 L 76.972815 -178.3603 C 75.90052 -178.2837 74.82417 -178.28238 73.751685 -178.35635 L 65.31543 -178.93816 C 64.28125 -179.00948 63.25308 -179.15064 62.23795 -179.36067 L 55.10274 -180.83692 C 53.15079 -181.24077 51.259614 -181.89665 49.47676 -182.78808 L 44.81735 -185.11779 C 43.58321 -185.73485 42.407106 -186.46173 41.30326 -187.2896 L 35.621303 -191.55108 C 35.182167 -191.88043 34.754962 -192.2254 34.34051 -192.58532 L 28.58533 -197.58324 C 27.771043 -198.29038 27.007503 -199.05392 26.30036 -199.8682 L 21.895135 -204.9409 C 21.141032 -205.80925 20.453124 -206.73295 19.8372 -207.70422 L 16.103497 -213.59198 C 15.742931 -214.16056 15.407505 -214.7447 15.098188 -215.34272 L 13.477815 -218.47544 C 12.86867 -219.65312 12.362502 -220.88126 11.964965 -222.14615 L 10.684726 -226.21964 C 10.469951 -226.90302 10.287218 -227.59605 10.137126 -228.29649 L 9.911709 -229.34843 C 9.826635 -229.74544 10.052993 -230.1431 10.437797 -230.27263 L 10.437797 -230.27263 C 10.510292 -230.29704 10.588844 -230.25805 10.613249 -230.18556 C 10.631263 -230.13205 10.61499 -230.07296 10.572121 -230.0362 Z" stroke="#7f8080" stroke-linecap="round" stroke-linejoin="round" stroke-width="1"/>
    </g>
  </g>
</svg>
