<?xml version="1.0" encoding="UTF-8" standalone="no"?>
<!DOCTYPE svg PUBLIC "-//W3C//DTD SVG 1.1//EN" "http://www.w3.org/Graphics/SVG/1.1/DTD/svg11.dtd">
<svg xmlns="http://www.w3.org/2000/svg" xmlns:xl="http://www.w3.org/1999/xlink" version="1.1" viewBox="-100.5 -436.5 432.4053 448.4" width="432.4053pt" height="448.4pt" xmlns:dc="http://purl.org/dc/elements/1.1/">
  <metadata> Produced by OmniGraffle 7.6.1 
    <dc:date>2021-08-02 22:15:48 +0000</dc:date>
  </metadata>
  <defs>
    <radialGradient cx="0" cy="0" r="1" id="Gradient" gradientUnits="userSpaceOnUse">
      <stop offset="0" stop-color="#cbcbcb"/>
      <stop offset="1" stop-color="#212121"/>
    </radialGradient>
    <radialGradient id="Obj_Gradient" xl:href="#Gradient" gradientTransform="translate(114.75925 -408.6) scale(70.26272)"/>
    <radialGradient cx="0" cy="0" r="1" id="Gradient_2" gradientUnits="userSpaceOnUse">
      <stop offset="0" stop-color="black"/>
      <stop offset="1" stop-color="#2aed23"/>
    </radialGradient>
    <radialGradient id="Obj_Gradient_2" xl:href="#Gradient_2" gradientTransform="translate(114.78697 -401.6447) scale(83.83496)"/>
  </defs>
  <g stroke="none" stroke-opacity="1" stroke-dasharray="none" fill="none" fill-opacity="1">
    <title>gilloise</title>
    <g>
      <title>Capa 1</title>
      <path d="M 53.005654 -435.40955 L 61.171106 -432.29184 C 62.0291 -431.96424 62.90594 -431.68833 63.79692 -431.4656 L 77.5141 -428.0363 C 78.67576 -427.74587 79.85832 -427.5466 81.051 -427.44034 L 98.57715 -425.8786 C 99.165 -425.8262 99.75464 -425.7965 100.34478 -425.78946 L 115.8237 -425.6052 C 116.11404 -425.60173 116.40442 -425.60377 116.69469 -425.6113 L 131.118 -425.98594 C 131.47878 -425.9953 131.8393 -426.01317 132.19924 -426.0395 L 146.57053 -427.09107 C 147.56197 -427.1636 148.54766 -427.30036 149.5214 -427.50044 L 161.09436 -429.87845 C 162.13637 -430.09256 163.16226 -430.3787 164.16465 -430.7348 L 175.91664 -434.90986 C 177.00702 -435.29723 178.21021 -434.76646 178.65925 -433.7 L 178.65925 -433.7 C 179.1814 -432.4599 179.33338 -431.09515 179.09685 -429.77055 L 178.91637 -428.75986 C 178.6126 -427.0587 178.11806 -425.3972 177.44214 -423.8068 L 175.89892 -420.1757 C 175.34035 -418.8614 174.6606 -417.60202 173.86846 -416.4138 L 170.18268 -410.88515 C 169.43517 -409.7639 168.59057 -408.7105 167.65861 -407.7371 L 161.36354 -401.16226 C 160.49547 -400.2556 159.55463 -399.42154 158.55046 -398.6684 L 150.17555 -392.38723 C 149.29914 -391.7299 148.37688 -391.13606 147.41582 -390.6102 L 140.23062 -386.67867 C 138.9195 -385.96126 137.54156 -385.37336 136.11638 -384.9233 L 129.44347 -382.81607 C 127.7266 -382.2739 125.952 -381.9352 124.15613 -381.8069 L 117.26968 -381.31503 C 116.19738 -381.23844 115.12103 -381.2371 114.04854 -381.3111 L 105.61229 -381.8929 C 104.57811 -381.9642 103.54994 -382.10537 102.53481 -382.3154 L 95.3996 -383.79165 C 93.44765 -384.1955 91.55647 -384.8514 89.77362 -385.7428 L 85.11421 -388.0725 C 83.88007 -388.6896 82.70397 -389.41646 81.60012 -390.24434 L 75.91816 -394.5058 C 75.47903 -394.83517 75.05182 -395.18013 74.63737 -395.54005 L 68.88219 -400.53797 C 68.0679 -401.2451 67.30436 -402.00865 66.59722 -402.82294 L 62.191995 -407.8956 C 61.43789 -408.764 60.749984 -409.6877 60.13406 -410.65895 L 56.40036 -416.5467 C 56.03979 -417.1153 55.704365 -417.69944 55.39505 -418.29745 L 53.774675 -421.43017 C 53.16553 -422.60785 52.65936 -423.836 52.261825 -425.1009 L 50.981586 -429.1744 C 50.76681 -429.85775 50.58408 -430.5508 50.433986 -431.2512 L 50.35925 -431.6 C 50.164585 -432.5084 50.271846 -433.45557 50.66473 -434.29746 L 50.75925 -434.5 C 51.153724 -435.3453 52.134195 -435.7423 53.005654 -435.40955 Z" fill="url(#Obj_Gradient)"/>
      <path d="M 53.005654 -435.40955 L 61.171106 -432.29184 C 62.0291 -431.96424 62.90594 -431.68833 63.79692 -431.4656 L 77.5141 -428.0363 C 78.67576 -427.74587 79.85832 -427.5466 81.051 -427.44034 L 98.57715 -425.8786 C 99.165 -425.8262 99.75464 -425.7965 100.34478 -425.78946 L 115.8237 -425.6052 C 116.11404 -425.60173 116.40442 -425.60377 116.69469 -425.6113 L 131.118 -425.98594 C 131.47878 -425.9953 131.8393 -426.01317 132.19924 -426.0395 L 146.57053 -427.09107 C 147.56197 -427.1636 148.54766 -427.30036 149.5214 -427.50044 L 161.09436 -429.87845 C 162.13637 -430.09256 163.16226 -430.3787 164.16465 -430.7348 L 175.91664 -434.90986 C 177.00702 -435.29723 178.21021 -434.76646 178.65925 -433.7 L 178.65925 -433.7 C 179.1814 -432.4599 179.33338 -431.09515 179.09685 -429.77055 L 178.91637 -428.75986 C 178.6126 -427.0587 178.11806 -425.3972 177.44214 -423.8068 L 175.89892 -420.1757 C 175.34035 -418.8614 174.6606 -417.60202 173.86846 -416.4138 L 170.18268 -410.88515 C 169.43517 -409.7639 168.59057 -408.7105 167.65861 -407.7371 L 161.36354 -401.16226 C 160.49547 -400.2556 159.55463 -399.42154 158.55046 -398.6684 L 150.17555 -392.38723 C 149.29914 -391.7299 148.37688 -391.13606 147.41582 -390.6102 L 140.23062 -386.67867 C 138.9195 -385.96126 137.54156 -385.37336 136.11638 -384.9233 L 129.44347 -382.81607 C 127.7266 -382.2739 125.952 -381.9352 124.15613 -381.8069 L 117.26968 -381.31503 C 116.19738 -381.23844 115.12103 -381.2371 114.04854 -381.3111 L 105.61229 -381.8929 C 104.57811 -381.9642 103.54994 -382.10537 102.53481 -382.3154 L 95.3996 -383.79165 C 93.44765 -384.1955 91.55647 -384.8514 89.77362 -385.7428 L 85.11421 -388.0725 C 83.88007 -388.6896 82.70397 -389.41646 81.60012 -390.24434 L 75.91816 -394.5058 C 75.47903 -394.83517 75.05182 -395.18013 74.63737 -395.54005 L 68.88219 -400.53797 C 68.0679 -401.2451 67.30436 -402.00865 66.59722 -402.82294 L 62.191995 -407.8956 C 61.43789 -408.764 60.749984 -409.6877 60.13406 -410.65895 L 56.40036 -416.5467 C 56.03979 -417.1153 55.704365 -417.69944 55.39505 -418.29745 L 53.774675 -421.43017 C 53.16553 -422.60785 52.65936 -423.836 52.261825 -425.1009 L 50.981586 -429.1744 C 50.76681 -429.85775 50.58408 -430.5508 50.433986 -431.2512 L 50.35925 -431.6 C 50.164585 -432.5084 50.271846 -433.45557 50.66473 -434.29746 L 50.75925 -434.5 C 51.153724 -435.3453 52.134195 -435.7423 53.005654 -435.40955 Z" stroke="#7f8080" stroke-linecap="round" stroke-linejoin="round" stroke-width="1"/>
      <path d="M -11.026545 1.2637855 L 2.7156958 3.554159 C 2.8990725 3.5847217 3.082968 3.612086 3.2672983 3.6362398 L 31.62094 7.3515445 C 31.867468 7.383848 32.114715 7.410401 32.36248 7.431181 L 62.60537 9.967682 C 62.862274 9.989229 63.11966 10.004563 63.37731 10.013672 L 102.30822 11.390017 C 102.49658 11.396676 102.68504 11.400007 102.87352 11.400007 L 134.34084 11.400007 C 134.50746 11.400007 134.67407 11.397404 134.8406 11.3922 L 159.87539 10.609863 C 160.08563 10.603293 160.29573 10.592577 160.50555 10.577723 L 182.5533 9.01682 C 182.71161 9.005612 182.86975 8.992049 183.02766 8.976135 L 208.28815 6.430505 C 208.4899 6.4101745 208.69122 6.386011 208.89204 6.358028 L 232.68474 3.042652 C 232.88875 3.0142244 233.0922 2.9818597 233.29496 2.945576 L 242.49079 1.3000065 C 247.8179 .34673523 251.46876 -4.606911 250.80234 -9.977447 L 248.59475 -27.768018 C 248.5921 -27.789335 248.5895 -27.810658 248.58695 -27.831985 L 245.02312 -57.53051 C 245.00157 -57.710154 244.98306 -57.89015 244.9676 -58.07042 L 242.6054 -85.62963 C 242.59565 -85.7432 242.58713 -85.85688 242.57983 -85.97064 L 241.1932 -107.56228 C 241.1916 -107.58742 241.18992 -107.61256 241.18818 -107.6377 L 239.59603 -130.72401 C 239.59253 -130.77467 239.58928 -130.82534 239.58627 -130.87602 L 238.4099 -150.6782 C 238.39716 -150.8927 238.38874 -151.10745 238.38465 -151.3223 L 237.99236 -171.91715 C 237.9913 -171.97238 237.98997 -172.0276 237.98835 -172.08282 L 237.39322 -192.31717 C 237.3916 -192.37239 237.39026 -192.42761 237.3892 -192.48285 L 236.99855 -212.9924 C 236.99337 -213.26408 236.99512 -213.53587 237.0038 -213.80747 L 237.58973 -232.16708 C 237.59044 -232.18903 237.59118 -232.21097 237.59197 -232.2329 L 238.38005 -254.1022 C 238.3872 -254.30072 238.39806 -254.49907 238.4126 -254.69717 L 239.97007 -275.9178 C 239.98388 -276.1059 239.99436 -276.29427 240.0015 -276.48276 L 240.75596 -296.38163 C 240.77915 -296.99337 240.83744 -297.60328 240.93052 -298.20835 L 243.66953 -316.01187 C 243.7503 -316.53696 243.8572 -317.0577 243.9898 -317.57217 L 248.61806 -335.52983 C 248.73316 -335.9764 248.8675 -336.4178 249.02073 -336.85275 L 254.74152 -353.0924 C 254.9076 -353.56387 255.0957 -354.0273 255.30517 -354.48117 L 260.83673 -366.4662 C 260.93942 -366.6887 261.0472 -366.9088 261.16 -367.12636 L 266.52223 -377.4678 C 266.56793 -377.55593 266.61446 -377.64364 266.6618 -377.7309 L 271.87777 -387.3479 C 272.61505 -388.70724 273.56468 -389.94013 274.6908 -391 L 274.6908 -391 C 275.36598 -391.63547 275.39817 -392.69797 274.7627 -393.37316 C 274.6382 -393.50544 274.49307 -393.61663 274.33295 -393.7024 L 271.1188 -395.42427 C 270.90016 -395.5414 270.6788 -395.65344 270.45494 -395.7603 L 262.60097 -399.5088 C 262.19436 -399.70284 261.77974 -399.87964 261.3582 -400.0387 L 251.68338 -403.6896 C 251.48833 -403.7632 251.29187 -403.83297 251.0941 -403.8989 L 238.39963 -408.1304 C 238.2604 -408.1768 238.12055 -408.2213 237.9801 -408.26384 L 225.09658 -412.16794 C 225.02605 -412.1893 224.95567 -412.21117 224.88544 -412.2335 L 212.38144 -416.21206 C 211.98782 -416.3373 211.5992 -416.47775 211.21643 -416.63307 L 199.2405 -421.49287 C 198.40883 -421.83036 197.60704 -422.23723 196.8436 -422.70917 L 187.22436 -428.6556 C 187.06865 -428.75186 186.91461 -428.8508 186.7623 -428.9523 L 181.8722 -432.2124 C 180.89081 -432.86665 180.0195 -433.67255 179.29078 -434.6 L 179.29078 -434.6 C 179.18518 -434.7344 178.99062 -434.75775 178.85621 -434.65215 C 178.75347 -434.5714 178.7125 -434.43487 178.75381 -434.3109 L 178.89078 -433.9 C 179.35003 -432.52225 179.4546 -431.05096 179.1948 -429.6221 L 178.79967 -427.44885 C 178.52845 -425.9572 178.0466 -424.51165 177.36858 -423.1556 L 175.83626 -420.09096 C 175.53956 -419.49756 175.20624 -418.9232 174.83823 -418.37117 L 171.63453 -413.5656 C 171.20593 -412.9227 170.73132 -412.3117 170.21443 -411.7374 L 165.65238 -406.66844 C 165.61132 -406.6228 165.56999 -406.5774 165.5284 -406.53227 L 159.53417 -400.02424 C 158.90643 -399.3427 158.22068 -398.717 157.48465 -398.15413 L 152.46047 -394.3121 C 152.01432 -393.97094 151.55052 -393.6535 151.07099 -393.3611 L 144.58458 -389.40597 C 143.92292 -389.00252 143.23283 -388.6477 142.51975 -388.34424 L 135.40434 -385.3164 C 134.59667 -384.9727 133.7621 -384.69607 132.90905 -384.48928 L 128.83 -383.5004 C 128.00516 -383.30045 127.16573 -383.16644 126.31963 -383.09965 L 120.61943 -382.64963 C 120.2005 -382.61656 119.78042 -382.6 119.36019 -382.6 L 112.32787 -382.6 C 111.57077 -382.6 110.81462 -382.65374 110.06513 -382.7608 L 102.11868 -383.896 C 101.63367 -383.9653 101.1521 -384.05683 100.67549 -384.1703 L 94.71426 -385.58965 C 93.56878 -385.8624 92.4569 -386.26073 91.39883 -386.77747 L 85.11882 -389.84444 C 84.63377 -390.08133 84.16102 -390.3426 83.70238 -390.6273 L 79.49052 -393.24154 C 78.89135 -393.61344 78.31742 -394.02454 77.772495 -394.47216 L 73.32639 -398.1243 C 73.10269 -398.30807 72.884024 -398.49786 72.67063 -398.6935 L 68.86828 -402.17896 C 68.41699 -402.59264 67.98981 -403.0319 67.58885 -403.49454 L 63.470106 -408.24693 C 63.150724 -408.61545 62.84836 -408.9984 62.56395 -409.3945 L 58.1343 -415.5644 C 57.639405 -416.2537 57.200134 -416.9813 56.82064 -417.7403 L 54.24418 -422.8932 C 54.20858 -422.9644 54.173517 -423.03586 54.138986 -423.1076 L 52.89078 -425.7 C 52.04007 -427.46687 51.684547 -429.4314 51.86209 -431.38436 L 52.04229 -433.3666 C 52.0661 -433.6285 51.873116 -433.86006 51.611253 -433.88386 C 51.44886 -433.8986 51.290205 -433.82925 51.19078 -433.7 L 51.19078 -433.7 C 50.527336 -432.8375 49.74723 -432.07144 48.87285 -431.42375 L 44.976317 -428.53743 C 44.852634 -428.4458 44.727635 -428.356 44.60136 -428.268 L 39.97911 -425.0464 C 38.792373 -424.2193 37.49895 -423.5569 36.1342 -423.0774 L 31.527076 -421.4587 C 31.036505 -421.28633 30.554628 -421.09016 30.08316 -420.87087 L 23.23638 -417.6863 C 22.540217 -417.36253 21.821652 -417.08926 21.086253 -416.86864 L 10.215864 -413.6075 C 10.199143 -413.6025 10.182429 -413.59746 10.165724 -413.5924 L -.802363 -410.2628 C -.9402603 -410.22093 -1.0775857 -410.1772 -1.2143016 -410.13164 L -14.135536 -405.82456 C -14.184657 -405.8082 -14.233858 -405.79205 -14.283136 -405.77616 L -25.650542 -402.10925 C -26.289028 -401.9033 -26.913927 -401.65737 -27.52154 -401.37296 L -35.453505 -397.6601 C -35.823845 -397.48677 -36.187403 -397.2993 -36.54338 -397.0981 L -42.489494 -393.73724 C -43.74253 -393.029 -44.184173 -391.43907 -43.475937 -390.18604 C -43.39882 -390.0496 -43.30955 -389.9204 -43.20922 -389.8 L -42.34511 -388.76307 C -41.590163 -387.85713 -40.937686 -386.8705 -40.39957 -385.8212 L -37.32243 -379.82076 C -37.24696 -379.6736 -37.169213 -379.5276 -37.089216 -379.38285 L -33.134464 -372.22663 C -33.050973 -372.07555 -32.96993 -371.92313 -32.891373 -371.76943 L -28.78307 -363.73144 C -28.534 -363.24413 -28.310096 -362.74437 -28.112243 -362.2341 L -24.629474 -353.25224 C -24.61597 -353.2174 -24.602345 -353.18263 -24.588598 -353.1479 L -20.992276 -344.06246 C -20.870267 -343.75423 -20.757867 -343.44228 -20.65524 -343.12706 L -18.033404 -335.0743 C -18.01728 -335.02476 -18.001399 -334.97516 -17.98576 -334.9255 L -14.913711 -325.1672 C -14.71092 -324.52305 -14.549114 -323.8667 -14.429267 -323.2021 L -12.443955 -312.19263 C -12.420798 -312.0642 -12.399213 -311.93552 -12.379205 -311.80658 L -10.673335 -300.8132 C -10.630598 -300.53778 -10.595065 -300.2613 -10.566771 -299.984 L -9.679351 -291.2873 C -9.632618 -290.8293 -9.605673 -290.36952 -9.598591 -289.9092 L -9.414351 -277.9336 C -9.41093 -277.71122 -9.402873 -277.48895 -9.390185 -277.2669 L -8.61981 -263.78535 C -8.612749 -263.6618 -8.604255 -263.5383 -8.594329 -263.41494 L -7.2607585 -246.84057 C -7.226412 -246.4137 -7.2092184 -245.9856 -7.2092184 -245.55736 L -7.2092184 -233.10758 C -7.2092184 -232.90254 -7.205277 -232.69753 -7.197397 -232.49265 L -6.617046 -217.4035 C -6.611828 -217.26784 -6.608337 -217.1321 -6.606574 -216.99635 L -6.4144145 -202.2001 C -6.410951 -201.9334 -6.4141565 -201.66667 -6.424028 -201.40014 L -6.998256 -185.89599 C -7.005564 -185.69868 -7.0092184 -185.50125 -7.0092184 -185.3038 L -7.0092184 -171.70757 C -7.0092184 -171.50254 -7.0131596 -171.29753 -7.02104 -171.09264 L -7.606232 -155.87764 C -7.608223 -155.82588 -7.610465 -155.77412 -7.612959 -155.72238 L -8.408281 -139.21945 C -8.408906 -139.20648 -8.409547 -139.19351 -8.410203 -139.18055 L -9.204693 -123.48938 C -9.20771 -123.42979 -9.21106 -123.37022 -9.214744 -123.31067 L -10.403655 -104.08993 C -10.407364 -104.02997 -10.41141 -103.97004 -10.415794 -103.91013 L -12.198932 -79.54058 C -12.20579 -79.44686 -12.213473 -79.3532 -12.22198 -79.25962 L -14.007872 -59.6148 C -14.00877 -59.60493 -14.009676 -59.59506 -14.010592 -59.58519 L -15.781357 -40.500283 C -15.79993 -40.30011 -15.822274 -40.1003 -15.848377 -39.90097 L -17.80909 -24.92825 C -17.9419 -23.914056 -18.211042 -22.922438 -18.609219 -21.980269 L -18.609219 -21.980269 C -19.006794 -21.039523 -19.255462 -20.042607 -19.346286 -19.025345 L -20.10922 -10.480268 C -20.616975 -4.793239 -16.65851 .32512458 -11.026545 1.2637855 Z" fill="white"/>
      <path d="M -11.026545 1.2637855 L 2.7156958 3.554159 C 2.8990725 3.5847217 3.082968 3.612086 3.2672983 3.6362398 L 31.62094 7.3515445 C 31.867468 7.383848 32.114715 7.410401 32.36248 7.431181 L 62.60537 9.967682 C 62.862274 9.989229 63.11966 10.004563 63.37731 10.013672 L 102.30822 11.390017 C 102.49658 11.396676 102.68504 11.400007 102.87352 11.400007 L 134.34084 11.400007 C 134.50746 11.400007 134.67407 11.397404 134.8406 11.3922 L 159.87539 10.609863 C 160.08563 10.603293 160.29573 10.592577 160.50555 10.577723 L 182.5533 9.01682 C 182.71161 9.005612 182.86975 8.992049 183.02766 8.976135 L 208.28815 6.430505 C 208.4899 6.4101745 208.69122 6.386011 208.89204 6.358028 L 232.68474 3.042652 C 232.88875 3.0142244 233.0922 2.9818597 233.29496 2.945576 L 242.49079 1.3000065 C 247.8179 .34673523 251.46876 -4.606911 250.80234 -9.977447 L 248.59475 -27.768018 C 248.5921 -27.789335 248.5895 -27.810658 248.58695 -27.831985 L 245.02312 -57.53051 C 245.00157 -57.710154 244.98306 -57.89015 244.9676 -58.07042 L 242.6054 -85.62963 C 242.59565 -85.7432 242.58713 -85.85688 242.57983 -85.97064 L 241.1932 -107.56228 C 241.1916 -107.58742 241.18992 -107.61256 241.18818 -107.6377 L 239.59603 -130.72401 C 239.59253 -130.77467 239.58928 -130.82534 239.58627 -130.87602 L 238.4099 -150.6782 C 238.39716 -150.8927 238.38874 -151.10745 238.38465 -151.3223 L 237.99236 -171.91715 C 237.9913 -171.97238 237.98997 -172.0276 237.98835 -172.08282 L 237.39322 -192.31717 C 237.3916 -192.37239 237.39026 -192.42761 237.3892 -192.48285 L 236.99855 -212.9924 C 236.99337 -213.26408 236.99512 -213.53587 237.0038 -213.80747 L 237.58973 -232.16708 C 237.59044 -232.18903 237.59118 -232.21097 237.59197 -232.2329 L 238.38005 -254.1022 C 238.3872 -254.30072 238.39806 -254.49907 238.4126 -254.69717 L 239.97007 -275.9178 C 239.98388 -276.1059 239.99436 -276.29427 240.0015 -276.48276 L 240.75596 -296.38163 C 240.77915 -296.99337 240.83744 -297.60328 240.93052 -298.20835 L 243.66953 -316.01187 C 243.7503 -316.53696 243.8572 -317.0577 243.9898 -317.57217 L 248.61806 -335.52983 C 248.73316 -335.9764 248.8675 -336.4178 249.02073 -336.85275 L 254.74152 -353.0924 C 254.9076 -353.56387 255.0957 -354.0273 255.30517 -354.48117 L 260.83673 -366.4662 C 260.93942 -366.6887 261.0472 -366.9088 261.16 -367.12636 L 266.52223 -377.4678 C 266.56793 -377.55593 266.61446 -377.64364 266.6618 -377.7309 L 271.87777 -387.3479 C 272.61505 -388.70724 273.56468 -389.94013 274.6908 -391 L 274.6908 -391 C 275.36598 -391.63547 275.39817 -392.69797 274.7627 -393.37316 C 274.6382 -393.50544 274.49307 -393.61663 274.33295 -393.7024 L 271.1188 -395.42427 C 270.90016 -395.5414 270.6788 -395.65344 270.45494 -395.7603 L 262.60097 -399.5088 C 262.19436 -399.70284 261.77974 -399.87964 261.3582 -400.0387 L 251.68338 -403.6896 C 251.48833 -403.7632 251.29187 -403.83297 251.0941 -403.8989 L 238.39963 -408.1304 C 238.2604 -408.1768 238.12055 -408.2213 237.9801 -408.26384 L 225.09658 -412.16794 C 225.02605 -412.1893 224.95567 -412.21117 224.88544 -412.2335 L 212.38144 -416.21206 C 211.98782 -416.3373 211.5992 -416.47775 211.21643 -416.63307 L 199.2405 -421.49287 C 198.40883 -421.83036 197.60704 -422.23723 196.8436 -422.70917 L 187.22436 -428.6556 C 187.06865 -428.75186 186.91461 -428.8508 186.7623 -428.9523 L 181.8722 -432.2124 C 180.89081 -432.86665 180.0195 -433.67255 179.29078 -434.6 L 179.29078 -434.6 C 179.18518 -434.7344 178.99062 -434.75775 178.85621 -434.65215 C 178.75347 -434.5714 178.7125 -434.43487 178.75381 -434.3109 L 178.89078 -433.9 C 179.35003 -432.52225 179.4546 -431.05096 179.1948 -429.6221 L 178.79967 -427.44885 C 178.52845 -425.9572 178.0466 -424.51165 177.36858 -423.1556 L 175.83626 -420.09096 C 175.53956 -419.49756 175.20624 -418.9232 174.83823 -418.37117 L 171.63453 -413.5656 C 171.20593 -412.9227 170.73132 -412.3117 170.21443 -411.7374 L 165.65238 -406.66844 C 165.61132 -406.6228 165.56999 -406.5774 165.5284 -406.53227 L 159.53417 -400.02424 C 158.90643 -399.3427 158.22068 -398.717 157.48465 -398.15413 L 152.46047 -394.3121 C 152.01432 -393.97094 151.55052 -393.6535 151.07099 -393.3611 L 144.58458 -389.40597 C 143.92292 -389.00252 143.23283 -388.6477 142.51975 -388.34424 L 135.40434 -385.3164 C 134.59667 -384.9727 133.7621 -384.69607 132.90905 -384.48928 L 128.83 -383.5004 C 128.00516 -383.30045 127.16573 -383.16644 126.31963 -383.09965 L 120.61943 -382.64963 C 120.2005 -382.61656 119.78042 -382.6 119.36019 -382.6 L 112.32787 -382.6 C 111.57077 -382.6 110.81462 -382.65374 110.06513 -382.7608 L 102.11868 -383.896 C 101.63367 -383.9653 101.1521 -384.05683 100.67549 -384.1703 L 94.71426 -385.58965 C 93.56878 -385.8624 92.4569 -386.26073 91.39883 -386.77747 L 85.11882 -389.84444 C 84.63377 -390.08133 84.16102 -390.3426 83.70238 -390.6273 L 79.49052 -393.24154 C 78.89135 -393.61344 78.31742 -394.02454 77.772495 -394.47216 L 73.32639 -398.1243 C 73.10269 -398.30807 72.884024 -398.49786 72.67063 -398.6935 L 68.86828 -402.17896 C 68.41699 -402.59264 67.98981 -403.0319 67.58885 -403.49454 L 63.470106 -408.24693 C 63.150724 -408.61545 62.84836 -408.9984 62.56395 -409.3945 L 58.1343 -415.5644 C 57.639405 -416.2537 57.200134 -416.9813 56.82064 -417.7403 L 54.24418 -422.8932 C 54.20858 -422.9644 54.173517 -423.03586 54.138986 -423.1076 L 52.89078 -425.7 C 52.04007 -427.46687 51.684547 -429.4314 51.86209 -431.38436 L 52.04229 -433.3666 C 52.0661 -433.6285 51.873116 -433.86006 51.611253 -433.88386 C 51.44886 -433.8986 51.290205 -433.82925 51.19078 -433.7 L 51.19078 -433.7 C 50.527336 -432.8375 49.74723 -432.07144 48.87285 -431.42375 L 44.976317 -428.53743 C 44.852634 -428.4458 44.727635 -428.356 44.60136 -428.268 L 39.97911 -425.0464 C 38.792373 -424.2193 37.49895 -423.5569 36.1342 -423.0774 L 31.527076 -421.4587 C 31.036505 -421.28633 30.554628 -421.09016 30.08316 -420.87087 L 23.23638 -417.6863 C 22.540217 -417.36253 21.821652 -417.08926 21.086253 -416.86864 L 10.215864 -413.6075 C 10.199143 -413.6025 10.182429 -413.59746 10.165724 -413.5924 L -.802363 -410.2628 C -.9402603 -410.22093 -1.0775857 -410.1772 -1.2143016 -410.13164 L -14.135536 -405.82456 C -14.184657 -405.8082 -14.233858 -405.79205 -14.283136 -405.77616 L -25.650542 -402.10925 C -26.289028 -401.9033 -26.913927 -401.65737 -27.52154 -401.37296 L -35.453505 -397.6601 C -35.823845 -397.48677 -36.187403 -397.2993 -36.54338 -397.0981 L -42.489494 -393.73724 C -43.74253 -393.029 -44.184173 -391.43907 -43.475937 -390.18604 C -43.39882 -390.0496 -43.30955 -389.9204 -43.20922 -389.8 L -42.34511 -388.76307 C -41.590163 -387.85713 -40.937686 -386.8705 -40.39957 -385.8212 L -37.32243 -379.82076 C -37.24696 -379.6736 -37.169213 -379.5276 -37.089216 -379.38285 L -33.134464 -372.22663 C -33.050973 -372.07555 -32.96993 -371.92313 -32.891373 -371.76943 L -28.78307 -363.73144 C -28.534 -363.24413 -28.310096 -362.74437 -28.112243 -362.2341 L -24.629474 -353.25224 C -24.61597 -353.2174 -24.602345 -353.18263 -24.588598 -353.1479 L -20.992276 -344.06246 C -20.870267 -343.75423 -20.757867 -343.44228 -20.65524 -343.12706 L -18.033404 -335.0743 C -18.01728 -335.02476 -18.001399 -334.97516 -17.98576 -334.9255 L -14.913711 -325.1672 C -14.71092 -324.52305 -14.549114 -323.8667 -14.429267 -323.2021 L -12.443955 -312.19263 C -12.420798 -312.0642 -12.399213 -311.93552 -12.379205 -311.80658 L -10.673335 -300.8132 C -10.630598 -300.53778 -10.595065 -300.2613 -10.566771 -299.984 L -9.679351 -291.2873 C -9.632618 -290.8293 -9.605673 -290.36952 -9.598591 -289.9092 L -9.414351 -277.9336 C -9.41093 -277.71122 -9.402873 -277.48895 -9.390185 -277.2669 L -8.61981 -263.78535 C -8.612749 -263.6618 -8.604255 -263.5383 -8.594329 -263.41494 L -7.2607585 -246.84057 C -7.226412 -246.4137 -7.2092184 -245.9856 -7.2092184 -245.55736 L -7.2092184 -233.10758 C -7.2092184 -232.90254 -7.205277 -232.69753 -7.197397 -232.49265 L -6.617046 -217.4035 C -6.611828 -217.26784 -6.608337 -217.1321 -6.606574 -216.99635 L -6.4144145 -202.2001 C -6.410951 -201.9334 -6.4141565 -201.66667 -6.424028 -201.40014 L -6.998256 -185.89599 C -7.005564 -185.69868 -7.0092184 -185.50125 -7.0092184 -185.3038 L -7.0092184 -171.70757 C -7.0092184 -171.50254 -7.0131596 -171.29753 -7.02104 -171.09264 L -7.606232 -155.87764 C -7.608223 -155.82588 -7.610465 -155.77412 -7.612959 -155.72238 L -8.408281 -139.21945 C -8.408906 -139.20648 -8.409547 -139.19351 -8.410203 -139.18055 L -9.204693 -123.48938 C -9.20771 -123.42979 -9.21106 -123.37022 -9.214744 -123.31067 L -10.403655 -104.08993 C -10.407364 -104.02997 -10.41141 -103.97004 -10.415794 -103.91013 L -12.198932 -79.54058 C -12.20579 -79.44686 -12.213473 -79.3532 -12.22198 -79.25962 L -14.007872 -59.6148 C -14.00877 -59.60493 -14.009676 -59.59506 -14.010592 -59.58519 L -15.781357 -40.500283 C -15.79993 -40.30011 -15.822274 -40.1003 -15.848377 -39.90097 L -17.80909 -24.92825 C -17.9419 -23.914056 -18.211042 -22.922438 -18.609219 -21.980269 L -18.609219 -21.980269 C -19.006794 -21.039523 -19.255462 -20.042607 -19.346286 -19.025345 L -20.10922 -10.480268 C -20.616975 -4.793239 -16.65851 .32512458 -11.026545 1.2637855 Z" stroke="#7f8080" stroke-linecap="round" stroke-linejoin="round" stroke-width="1"/>
      <path d="M -100 -284.55385 L -93.8 -280.15385 L -85.6 -276.15385 L -77 -272.55385 L -68 -268.75385 L -57 -264.75385 L -47.6 -261.95385 L -38.6 -259.35385 L -29.6 -256.75385 L -24.2 -255.35385 L -18.599999 -254.35385 L -16.199999 -260.15385 L -13.599999 -265.55385 L -11.399999 -269.55385 L -8.799999 -272.95385 L -8.599999 -281.95385 L -9.199999 -292.95385 L -10.999999 -303.75385 L -12.599999 -314.15385 L -15.199999 -325.15386 L -17.599999 -334.75386 L -20.4 -342.75386 L -23.6 -352.15386 L -26.4 -359.55386 L -30 -367.15386 L -34 -374.75386 L -38 -382.15386 L -40.6 -385.75386 L -44.2 -391.55386 L -49.6 -387.15386 L -54.4 -382.35386 L -59 -376.15386 L -63.4 -369.95386 L -68.2 -361.35386 L -73 -351.95386 L -77.8 -342.75386 L -81.4 -334.15386 L -85.4 -325.15386 L -88.6 -316.95385 L -92.4 -307.55385 L -95.2 -299.55385 L -98.2 -291.15385 Z" fill="white"/>
      <path d="M -100 -284.55385 L -93.8 -280.15385 L -85.6 -276.15385 L -77 -272.55385 L -68 -268.75385 L -57 -264.75385 L -47.6 -261.95385 L -38.6 -259.35385 L -29.6 -256.75385 L -24.2 -255.35385 L -18.599999 -254.35385 L -16.199999 -260.15385 L -13.599999 -265.55385 L -11.399999 -269.55385 L -8.799999 -272.95385 L -8.599999 -281.95385 L -9.199999 -292.95385 L -10.999999 -303.75385 L -12.599999 -314.15385 L -15.199999 -325.15386 L -17.599999 -334.75386 L -20.4 -342.75386 L -23.6 -352.15386 L -26.4 -359.55386 L -30 -367.15386 L -34 -374.75386 L -38 -382.15386 L -40.6 -385.75386 L -44.2 -391.55386 L -49.6 -387.15386 L -54.4 -382.35386 L -59 -376.15386 L -63.4 -369.95386 L -68.2 -361.35386 L -73 -351.95386 L -77.8 -342.75386 L -81.4 -334.15386 L -85.4 -325.15386 L -88.6 -316.95385 L -92.4 -307.55385 L -95.2 -299.55385 L -98.2 -291.15385 Z" stroke="#7f8080" stroke-linecap="round" stroke-linejoin="round" stroke-width="1"/>
      <path d="M 331.4053 -285.49725 L 325.2053 -281.09725 L 317.0053 -277.09725 L 308.4053 -273.49725 L 299.4053 -269.69725 L 288.4053 -265.69725 L 279.0053 -262.89725 L 270.0053 -260.29725 L 261.0053 -257.69725 L 255.6053 -256.29725 L 250.0053 -255.29725 L 247.6053 -261.09725 L 245.0053 -266.49725 L 242.8053 -270.49725 L 240.2053 -273.89725 L 240.0053 -282.89725 L 240.6053 -293.89725 L 242.4053 -304.69725 L 244.0053 -315.09725 L 246.6053 -326.09725 L 249.0053 -335.69725 L 251.8053 -343.69725 L 255.0053 -353.09725 L 257.8053 -360.49725 L 261.4053 -368.09725 L 265.4053 -375.69725 L 269.4053 -383.09725 L 272.0053 -386.69725 L 275.6053 -392.49725 L 281.0053 -388.09725 L 285.8053 -383.29725 L 290.4053 -377.09725 L 294.8053 -370.89725 L 299.6053 -362.29725 L 304.4053 -352.89725 L 309.2053 -343.69725 L 312.8053 -335.09725 L 316.8053 -326.09725 L 320.0053 -317.89725 L 323.8053 -308.49725 L 326.6053 -300.49725 L 329.6053 -292.09725 Z" fill="white"/>
      <path d="M 331.4053 -285.49725 L 325.2053 -281.09725 L 317.0053 -277.09725 L 308.4053 -273.49725 L 299.4053 -269.69725 L 288.4053 -265.69725 L 279.0053 -262.89725 L 270.0053 -260.29725 L 261.0053 -257.69725 L 255.6053 -256.29725 L 250.0053 -255.29725 L 247.6053 -261.09725 L 245.0053 -266.49725 L 242.8053 -270.49725 L 240.2053 -273.89725 L 240.0053 -282.89725 L 240.6053 -293.89725 L 242.4053 -304.69725 L 244.0053 -315.09725 L 246.6053 -326.09725 L 249.0053 -335.69725 L 251.8053 -343.69725 L 255.0053 -353.09725 L 257.8053 -360.49725 L 261.4053 -368.09725 L 265.4053 -375.69725 L 269.4053 -383.09725 L 272.0053 -386.69725 L 275.6053 -392.49725 L 281.0053 -388.09725 L 285.8053 -383.29725 L 290.4053 -377.09725 L 294.8053 -370.89725 L 299.6053 -362.29725 L 304.4053 -352.89725 L 309.2053 -343.69725 L 312.8053 -335.09725 L 316.8053 -326.09725 L 320.0053 -317.89725 L 323.8053 -308.49725 L 326.6053 -300.49725 L 329.6053 -292.09725 Z" stroke="#7f8080" stroke-linecap="round" stroke-linejoin="round" stroke-width="1"/>
      <path d="M -100 -284.55385 L -93.8 -280.15385 L -85.6 -276.15385 L -77 -272.55385 L -68 -268.75385 L -57 -264.75385 L -47.6 -261.95385 L -38.6 -259.35385 L -29.6 -256.75385 L -24.2 -255.35385 L -18.599999 -254.35385 L -15.599999 -260.75385 L -19.399999 -261.55385 L -24.2 -262.75385 L -29.8 -263.95385 L -35.8 -265.75385 L -40.4 -267.15385 L -44.6 -268.35385 L -49.2 -270.35385 L -53.8 -271.95385 L -58.6 -273.95385 L -62.6 -275.35385 L -67.8 -277.55385 L -72.4 -279.15385 L -77.2 -281.35385 L -82 -283.15385 L -86 -285.15385 L -90.4 -287.35385 L -94.8 -289.55385 L -98.2 -291.15385 Z" fill="#209216"/>
      <path d="M -100 -284.55385 L -93.8 -280.15385 L -85.6 -276.15385 L -77 -272.55385 L -68 -268.75385 L -57 -264.75385 L -47.6 -261.95385 L -38.6 -259.35385 L -29.6 -256.75385 L -24.2 -255.35385 L -18.599999 -254.35385 L -15.599999 -260.75385 L -19.399999 -261.55385 L -24.2 -262.75385 L -29.8 -263.95385 L -35.8 -265.75385 L -40.4 -267.15385 L -44.6 -268.35385 L -49.2 -270.35385 L -53.8 -271.95385 L -58.6 -273.95385 L -62.6 -275.35385 L -67.8 -277.55385 L -72.4 -279.15385 L -77.2 -281.35385 L -82 -283.15385 L -86 -285.15385 L -90.4 -287.35385 L -94.8 -289.55385 L -98.2 -291.15385 Z" stroke="#7f8080" stroke-linecap="round" stroke-linejoin="round" stroke-width="1"/>
      <path d="M 331.4053 -285.49725 L 325.2053 -281.09725 L 317.0053 -277.09725 L 308.4053 -273.49725 L 299.4053 -269.69725 L 288.4053 -265.69725 L 279.0053 -262.89725 L 270.0053 -260.29725 L 261.0053 -257.69725 L 255.6053 -256.29725 L 250.0053 -255.29725 L 247.0053 -261.69725 L 250.8053 -262.49725 L 255.6053 -263.69725 L 261.2053 -264.89725 L 267.2053 -266.69725 L 271.8053 -268.09725 L 276.0053 -269.29725 L 280.6053 -271.29725 L 285.2053 -272.89725 L 290.0053 -274.89725 L 294.0053 -276.29725 L 299.2053 -278.49725 L 303.8053 -280.09725 L 308.6053 -282.29725 L 313.4053 -284.09725 L 317.4053 -286.09725 L 321.8053 -288.29725 L 326.2053 -290.49725 L 329.6053 -292.09725 Z" fill="#408117"/>
      <path d="M 331.4053 -285.49725 L 325.2053 -281.09725 L 317.0053 -277.09725 L 308.4053 -273.49725 L 299.4053 -269.69725 L 288.4053 -265.69725 L 279.0053 -262.89725 L 270.0053 -260.29725 L 261.0053 -257.69725 L 255.6053 -256.29725 L 250.0053 -255.29725 L 247.0053 -261.69725 L 250.8053 -262.49725 L 255.6053 -263.69725 L 261.2053 -264.89725 L 267.2053 -266.69725 L 271.8053 -268.09725 L 276.0053 -269.29725 L 280.6053 -271.29725 L 285.2053 -272.89725 L 290.0053 -274.89725 L 294.0053 -276.29725 L 299.2053 -278.49725 L 303.8053 -280.09725 L 308.6053 -282.29725 L 313.4053 -284.09725 L 317.4053 -286.09725 L 321.8053 -288.29725 L 326.2053 -290.49725 L 329.6053 -292.09725 Z" stroke="#7f8080" stroke-linecap="round" stroke-linejoin="round" stroke-width="1"/>
      <path d="M 50.57212 -434.0362 L 45.84295 -429.98264 C 44.692603 -428.9966 43.447643 -428.1267 42.126213 -427.3855 L 39.59958 -425.96835 C 38.164406 -425.1634 37.583603 -423.39425 38.26239 -421.89527 L 39.280006 -419.64803 C 39.401585 -419.37954 39.528313 -419.1134 39.66012 -418.8498 L 41.46239 -415.24526 L 43.949377 -410.2713 C 44.291174 -409.5877 44.66683 -408.92157 45.07495 -408.27537 L 47.401344 -404.5919 C 47.84172 -403.89465 48.31928 -403.2216 48.831953 -402.5756 L 52.24264 -398.27815 C 52.78869 -397.59013 53.37371 -396.93394 53.99482 -396.31283 L 58.660865 -391.6468 C 59.061745 -391.2459 59.47731 -390.86 59.90671 -390.4898 L 64.470235 -386.55574 C 64.86489 -386.2155 65.271 -385.8888 65.687846 -385.57617 L 69.66279 -382.59497 C 70.3287 -382.09553 71.02123 -381.6326 71.73733 -381.20826 L 75.87039 -378.75904 C 75.99839 -378.6832 76.12712 -378.6086 76.25656 -378.53523 L 80.95411 -375.8733 C 81.6924 -375.45493 82.45328 -375.07774 83.23325 -374.74347 L 86.78307 -373.2221 C 87.36903 -372.971 87.96518 -372.74433 88.56997 -372.54274 L 93.58808 -370.87003 C 94.83532 -370.4543 96.11592 -370.14624 97.4158 -369.9493 L 101.51464 -369.32826 C 101.87976 -369.27294 102.24615 -369.2264 102.6135 -369.18874 L 109.4946 -368.483 C 109.73978 -368.45784 109.98534 -368.43664 110.2312 -368.4194 L 114.75835 -368.1017 C 115.29421 -368.0641 115.83122 -368.04527 116.3684 -368.04527 L 119.63046 -368.04526 C 120.58416 -368.04526 121.53693 -368.1046 122.48327 -368.22287 L 126.47198 -368.72146 C 127.13195 -368.80396 127.78802 -368.91504 128.43835 -369.0544 L 134.52039 -370.3577 C 135.41426 -370.54924 136.29592 -370.7939 137.16068 -371.0904 L 141.66952 -372.6363 C 142.46417 -372.90873 143.2433 -373.2245 144.0034 -373.5822 L 148.83677 -375.85674 C 149.38697 -376.11565 149.92668 -376.3963 150.45464 -376.69798 L 154.2225 -378.85104 C 154.9153 -379.2469 155.58701 -379.6786 156.23494 -380.1443 L 160.91106 -383.50525 C 161.41175 -383.8651 161.89776 -384.24497 162.36792 -384.6439 L 167.68877 -389.15856 C 168.07108 -389.48294 168.44269 -389.81974 168.80298 -390.1684 L 173.5022 -394.71604 C 174.14179 -395.335 174.74491 -395.99056 175.30852 -396.67942 L 179.1018 -401.31566 C 179.60852 -401.93497 180.08257 -402.5803 180.52201 -403.24904 L 184.1392 -408.75344 C 184.35462 -409.08127 184.56163 -409.41456 184.76002 -409.753 L 187.2831 -414.0571 C 187.66906 -414.71546 188.022 -415.39265 188.34062 -416.0861 L 190.45932 -420.6974 C 190.99218 -421.85715 191.36334 -423.08456 191.5624 -424.34526 L 191.5624 -424.34526 C 191.7407 -425.47453 191.1614 -426.58797 190.13432 -427.0901 L 184.84088 -429.678 C 183.52642 -430.32063 182.29183 -431.11514 181.1624 -432.04526 L 180.75638 -432.3796 C 179.91205 -433.07496 179.28864 -434.00126 178.9624 -435.04526 L 178.9624 -435.04526 C 178.91573 -435.1946 178.75686 -435.2778 178.60754 -435.23114 C 178.49247 -435.1952 178.41277 -435.0903 178.40892 -434.9698 L 178.29968 -431.5469 C 178.20894 -428.7038 177.5916 -425.90224 176.479 -423.28433 L 175.60206 -421.22096 C 175.0435 -419.9067 174.36374 -418.6473 173.5716 -417.4591 L 169.88582 -411.9304 C 169.13831 -410.80915 168.2937 -409.75575 167.36175 -408.7824 L 161.06668 -402.20753 C 160.19861 -401.30087 159.25777 -400.4668 158.2536 -399.71367 L 149.8787 -393.4325 C 149.00228 -392.7752 148.08002 -392.18133 147.11896 -391.65546 L 139.93376 -387.72394 C 138.62263 -387.00653 137.2447 -386.41863 135.81952 -385.96857 L 129.1466 -383.86133 C 127.42973 -383.31916 125.65514 -382.98046 123.85927 -382.8522 L 116.97281 -382.3603 C 115.90052 -382.2837 114.82417 -382.2824 113.75168 -382.35635 L 105.31543 -382.93816 C 104.28125 -383.0095 103.25308 -383.15064 102.23795 -383.36067 L 95.10274 -384.8369 C 93.15079 -385.24077 91.25961 -385.89665 89.47676 -386.7881 L 84.81735 -389.1178 C 83.58321 -389.73485 82.40711 -390.46173 81.30326 -391.2896 L 75.6213 -395.5511 C 75.18217 -395.88043 74.75496 -396.2254 74.34051 -396.5853 L 68.58533 -401.58324 C 67.77104 -402.2904 67.0075 -403.0539 66.30036 -403.8682 L 61.895135 -408.9409 C 61.14103 -409.80925 60.453124 -410.73295 59.8372 -411.7042 L 56.1035 -417.592 C 55.74293 -418.16056 55.407505 -418.7447 55.09819 -419.3427 L 53.477815 -422.47544 C 52.86867 -423.6531 52.3625 -424.88126 51.964965 -426.14615 L 50.684726 -430.21964 C 50.46995 -430.903 50.28722 -431.59605 50.137126 -432.2965 L 49.91171 -433.34843 C 49.826635 -433.74544 50.052993 -434.1431 50.4378 -434.27263 L 50.4378 -434.27263 C 50.51029 -434.29704 50.588844 -434.25805 50.61325 -434.18556 C 50.63126 -434.13205 50.61499 -434.07296 50.57212 -434.0362 Z" fill="url(#Obj_Gradient_2)"/>
      <path d="M 50.57212 -434.0362 L 45.84295 -429.98264 C 44.692603 -428.9966 43.447643 -428.1267 42.126213 -427.3855 L 39.59958 -425.96835 C 38.164406 -425.1634 37.583603 -423.39425 38.26239 -421.89527 L 39.280006 -419.64803 C 39.401585 -419.37954 39.528313 -419.1134 39.66012 -418.8498 L 41.46239 -415.24526 L 43.949377 -410.2713 C 44.291174 -409.5877 44.66683 -408.92157 45.07495 -408.27537 L 47.401344 -404.5919 C 47.84172 -403.89465 48.31928 -403.2216 48.831953 -402.5756 L 52.24264 -398.27815 C 52.78869 -397.59013 53.37371 -396.93394 53.99482 -396.31283 L 58.660865 -391.6468 C 59.061745 -391.2459 59.47731 -390.86 59.90671 -390.4898 L 64.470235 -386.55574 C 64.86489 -386.2155 65.271 -385.8888 65.687846 -385.57617 L 69.66279 -382.59497 C 70.3287 -382.09553 71.02123 -381.6326 71.73733 -381.20826 L 75.87039 -378.75904 C 75.99839 -378.6832 76.12712 -378.6086 76.25656 -378.53523 L 80.95411 -375.8733 C 81.6924 -375.45493 82.45328 -375.07774 83.23325 -374.74347 L 86.78307 -373.2221 C 87.36903 -372.971 87.96518 -372.74433 88.56997 -372.54274 L 93.58808 -370.87003 C 94.83532 -370.4543 96.11592 -370.14624 97.4158 -369.9493 L 101.51464 -369.32826 C 101.87976 -369.27294 102.24615 -369.2264 102.6135 -369.18874 L 109.4946 -368.483 C 109.73978 -368.45784 109.98534 -368.43664 110.2312 -368.4194 L 114.75835 -368.1017 C 115.29421 -368.0641 115.83122 -368.04527 116.3684 -368.04527 L 119.63046 -368.04526 C 120.58416 -368.04526 121.53693 -368.1046 122.48327 -368.22287 L 126.47198 -368.72146 C 127.13195 -368.80396 127.78802 -368.91504 128.43835 -369.0544 L 134.52039 -370.3577 C 135.41426 -370.54924 136.29592 -370.7939 137.16068 -371.0904 L 141.66952 -372.6363 C 142.46417 -372.90873 143.2433 -373.2245 144.0034 -373.5822 L 148.83677 -375.85674 C 149.38697 -376.11565 149.92668 -376.3963 150.45464 -376.69798 L 154.2225 -378.85104 C 154.9153 -379.2469 155.58701 -379.6786 156.23494 -380.1443 L 160.91106 -383.50525 C 161.41175 -383.8651 161.89776 -384.24497 162.36792 -384.6439 L 167.68877 -389.15856 C 168.07108 -389.48294 168.44269 -389.81974 168.80298 -390.1684 L 173.5022 -394.71604 C 174.14179 -395.335 174.74491 -395.99056 175.30852 -396.67942 L 179.1018 -401.31566 C 179.60852 -401.93497 180.08257 -402.5803 180.52201 -403.24904 L 184.1392 -408.75344 C 184.35462 -409.08127 184.56163 -409.41456 184.76002 -409.753 L 187.2831 -414.0571 C 187.66906 -414.71546 188.022 -415.39265 188.34062 -416.0861 L 190.45932 -420.6974 C 190.99218 -421.85715 191.36334 -423.08456 191.5624 -424.34526 L 191.5624 -424.34526 C 191.7407 -425.47453 191.1614 -426.58797 190.13432 -427.0901 L 184.84088 -429.678 C 183.52642 -430.32063 182.29183 -431.11514 181.1624 -432.04526 L 180.75638 -432.3796 C 179.91205 -433.07496 179.28864 -434.00126 178.9624 -435.04526 L 178.9624 -435.04526 C 178.91573 -435.1946 178.75686 -435.2778 178.60754 -435.23114 C 178.49247 -435.1952 178.41277 -435.0903 178.40892 -434.9698 L 178.29968 -431.5469 C 178.20894 -428.7038 177.5916 -425.90224 176.479 -423.28433 L 175.60206 -421.22096 C 175.0435 -419.9067 174.36374 -418.6473 173.5716 -417.4591 L 169.88582 -411.9304 C 169.13831 -410.80915 168.2937 -409.75575 167.36175 -408.7824 L 161.06668 -402.20753 C 160.19861 -401.30087 159.25777 -400.4668 158.2536 -399.71367 L 149.8787 -393.4325 C 149.00228 -392.7752 148.08002 -392.18133 147.11896 -391.65546 L 139.93376 -387.72394 C 138.62263 -387.00653 137.2447 -386.41863 135.81952 -385.96857 L 129.1466 -383.86133 C 127.42973 -383.31916 125.65514 -382.98046 123.85927 -382.8522 L 116.97281 -382.3603 C 115.90052 -382.2837 114.82417 -382.2824 113.75168 -382.35635 L 105.31543 -382.93816 C 104.28125 -383.0095 103.25308 -383.15064 102.23795 -383.36067 L 95.10274 -384.8369 C 93.15079 -385.24077 91.25961 -385.89665 89.47676 -386.7881 L 84.81735 -389.1178 C 83.58321 -389.73485 82.40711 -390.46173 81.30326 -391.2896 L 75.6213 -395.5511 C 75.18217 -395.88043 74.75496 -396.2254 74.34051 -396.5853 L 68.58533 -401.58324 C 67.77104 -402.2904 67.0075 -403.0539 66.30036 -403.8682 L 61.895135 -408.9409 C 61.14103 -409.80925 60.453124 -410.73295 59.8372 -411.7042 L 56.1035 -417.592 C 55.74293 -418.16056 55.407505 -418.7447 55.09819 -419.3427 L 53.477815 -422.47544 C 52.86867 -423.6531 52.3625 -424.88126 51.964965 -426.14615 L 50.684726 -430.21964 C 50.46995 -430.903 50.28722 -431.59605 50.137126 -432.2965 L 49.91171 -433.34843 C 49.826635 -433.74544 50.052993 -434.1431 50.4378 -434.27263 L 50.4378 -434.27263 C 50.51029 -434.29704 50.588844 -434.25805 50.61325 -434.18556 C 50.63126 -434.13205 50.61499 -434.07296 50.57212 -434.0362 Z" stroke="#7f8080" stroke-linecap="round" stroke-linejoin="round" stroke-width="1"/>
      <path d="M 50.05925 -434.2441 L 55.45925 -434.8441 L 62.25925 -431.4441 L 67.25925 -429.6441 L 75.65925 -427.8441 L 84.05925 -426.8441 L 92.05925 -425.8441 L 99.65925 -425.6441 L 108.25925 -425.2441 L 119.85925 -425.4441 L 128.25925 -425.8441 L 137.65925 -426.4441 L 146.05925 -427.2441 L 155.25925 -428.6441 L 163.45925 -430.8441 L 169.25925 -432.6441 L 174.85925 -435.2441 L 177.65925 -434.0441 L 178.05925 -428.4441 L 175.25925 -420.4441 L 169.85925 -417.6441 L 159.25925 -414.4441 L 147.85925 -412.0441 L 136.65925 -411.2441 L 124.25925 -410.2441 L 113.85925 -410.2441 L 104.45925 -410.2441 L 92.85925 -410.8441 L 81.65925 -411.6441 L 71.05925 -413.8441 L 62.45925 -415.8441 L 56.25925 -418.6441 L 54.25925 -420.2441 L 51.05925 -427.8441 Z" fill="#006f00"/>
      <path d="M 50.05925 -434.2441 L 55.45925 -434.8441 L 62.25925 -431.4441 L 67.25925 -429.6441 L 75.65925 -427.8441 L 84.05925 -426.8441 L 92.05925 -425.8441 L 99.65925 -425.6441 L 108.25925 -425.2441 L 119.85925 -425.4441 L 128.25925 -425.8441 L 137.65925 -426.4441 L 146.05925 -427.2441 L 155.25925 -428.6441 L 163.45925 -430.8441 L 169.25925 -432.6441 L 174.85925 -435.2441 L 177.65925 -434.0441 L 178.05925 -428.4441 L 175.25925 -420.4441 L 169.85925 -417.6441 L 159.25925 -414.4441 L 147.85925 -412.0441 L 136.65925 -411.2441 L 124.25925 -410.2441 L 113.85925 -410.2441 L 104.45925 -410.2441 L 92.85925 -410.8441 L 81.65925 -411.6441 L 71.05925 -413.8441 L 62.45925 -415.8441 L 56.25925 -418.6441 L 54.25925 -420.2441 L 51.05925 -427.8441 Z" stroke="#7f8080" stroke-linecap="round" stroke-linejoin="round" stroke-width="1"/>
      <path d="M -20.186787 -8.799991 L -20.186787 -8.799991 C -20.25247 -8.274514 -20.189645 -7.740947 -20.003702 -7.245098 L -19.352694 -5.5090765 C -19.175938 -5.037728 -18.948853 -4.5868215 -18.67538 -4.1641816 L -17.707566 -2.668469 C -17.166608 -1.832443 -16.453506 -1.1214536 -15.615879 -.5829787 L -14.53783 .11005272 C -14.237574 .3030742 -13.922994 .4728469 -13.596843 .61788524 L -12.279989 1.203486 C -11.68346 1.4687603 -11.052754 1.6492798 -10.406207 1.7397964 L -1.3957866 3.0012553 C -1.3857932 3.0026543 -1.3757967 3.0040318 -1.3657974 3.0053877 L 10.350201 4.5939977 C 10.396202 4.600235 10.442263 4.6060146 10.488378 4.6113356 L 20.771315 5.797828 C 20.80324 5.801512 20.83519 5.804976 20.867165 5.8082195 L 34.57723 7.199096 C 34.605213 7.2019345 34.63321 7.204605 34.661226 7.207106 L 45.766526 8.198651 C 45.801644 8.201786 45.836786 8.204656 45.87195 8.207261 L 56.558485 8.998856 C 56.598964 9.001855 56.63947 9.004501 56.67999 9.006795 L 67.18798 9.601586 C 67.208795 9.602765 67.22961 9.604036 67.250416 9.605401 L 79.29319 10.395091 C 79.37719 10.400599 79.46129 10.404592 79.54543 10.407067 L 92.99256 10.80257 C 93.01032 10.803093 93.02809 10.803683 93.04585 10.804341 L 103.68971 11.198558 C 103.77603 11.201755 103.86241 11.203354 103.94879 11.203354 L 114.5578 11.203354 C 114.59874 11.203354 114.63967 11.203713 114.6806 11.204431 L 125.76702 11.39893 C 125.93509 11.401878 126.10321 11.398772 126.27106 11.389617 L 136.89229 10.810277 C 136.9769 10.805662 137.06157 10.802584 137.14629 10.801043 L 147.91085 10.605324 C 147.98308 10.604011 148.05529 10.601579 148.12745 10.598031 L 160.14607 10.006951 C 160.19483 10.004553 160.24355 10.001645 160.29225 9.998228 L 171.5323 9.209453 C 171.59023 9.205387 171.64812 9.2006 171.70594 9.195094 L 184.11651 8.013134 C 184.18497 8.006614 184.25352 8.001104 184.32214 7.996604 L 196.25416 7.214176 C 196.36418 7.2069624 196.474 7.19715 196.58355 7.1847486 L 206.9959 6.005992 C 207.01144 6.0042334 207.02697 6.0024224 207.0425 6.0005594 L 216.9902 4.806834 C 217.00954 4.804514 217.02886 4.802113 217.04818 4.799632 L 230.88394 3.0220927 C 230.98115 3.0096032 231.0781 2.9950733 231.1747 2.9785127 L 237.7282 1.8550578 C 237.92915 1.8206066 238.13153 1.7949525 238.33473 1.7781688 L 241.56706 1.5111946 C 242.4563 1.4377483 243.3233 1.1949723 244.12135 .7959402 L 245.60765 .052793954 C 246.20824 -.24750028 246.7625 -.6326476 247.25338 -1.0908095 L 248.5885 -2.336919 C 249.19532 -2.9032846 249.65073 -3.6125264 249.91322 -4.399991 L 250.20805 -5.284477 C 250.27812 -5.494701 250.33817 -5.708134 250.388 -5.924055 L 250.8577 -7.959444 C 250.89293 -8.112076 250.8595 -8.272476 250.7662 -8.398319 L 250.7662 -8.398319 C 250.67587 -8.520198 250.52523 -8.581695 250.3754 -8.557859 L 241.89555 -7.208791 C 241.84466 -7.200695 241.79385 -7.192037 241.74315 -7.1828185 L 228.7584 -4.8219525 C 228.6656 -4.8050834 228.5725 -4.790091 228.47911 -4.776984 L 217.24943 -3.200888 C 217.22928 -3.1980602 217.20914 -3.1951444 217.18902 -3.192141 L 204.0199 -1.2265997 C 203.88613 -1.2066349 203.75182 -1.1905509 203.61712 -1.178368 L 193.10874 -.22791705 C 192.90302 -.20931015 192.69657 -.19981826 192.49001 -.19946925 L 191.05605 -.19704635 C 190.8982 -.19677964 190.7404 -.19117375 190.58293 -.18023829 L 176.45308 .8010013 C 176.4305 .8025696 176.4079 .80402845 176.3853 .8053776 L 163.08205 1.5996017 C 163.04016 1.6021031 162.99824 1.6042276 162.9563 1.605975 L 148.76485 2.1972854 C 148.66776 2.2013306 148.5706 2.2033539 148.47344 2.2033539 L 135.2192 2.2033539 L 122.67753 2.2033539 C 122.63865 2.2033539 122.59976 2.203678 122.56088 2.204326 L 110.8025 2.400299 C 110.68032 2.4023352 110.55812 2.4011722 110.436 2.396811 L 99.6024 2.0098967 C 99.48029 2.0055356 99.35809 2.0043725 99.23591 2.0064087 L 87.52127 2.2016527 C 87.45323 2.2027868 87.38518 2.2029285 87.31713 2.202078 L 71.614845 2.0057994 C 71.48444 2.0041693 71.35411 1.9988955 71.22401 1.9899841 L 56.91423 1.0098624 C 56.85088 1.0055236 56.7876 1.000323 56.72439 .9942623 L 42.233386 -.39528627 C 42.22393 -.39619287 42.21448 -.3971187 42.20503 -.3980638 L 28.392992 -1.7792674 C 28.27715 -1.7908514 28.161618 -1.8053236 28.0465 -1.8226703 L 13.737347 -3.9788438 C 13.65859 -3.990711 13.579637 -4.0012337 13.500521 -4.0104065 L -.019410659 -5.577935 C -.12698668 -5.5904074 -.23425878 -5.605375 -.3411403 -5.622825 L -9.733229 -7.156227 C -9.898221 -7.1831646 -10.062195 -7.216004 -10.224836 -7.254682 L -19.302435 -9.413462 C -19.690754 -9.505809 -20.08041 -9.265877 -20.172759 -8.877559 C -20.178842 -8.851977 -20.183525 -8.826083 -20.186787 -8.799991 Z" fill="#319712"/>
      <path d="M -20.186787 -8.799991 L -20.186787 -8.799991 C -20.25247 -8.274514 -20.189645 -7.740947 -20.003702 -7.245098 L -19.352694 -5.5090765 C -19.175938 -5.037728 -18.948853 -4.5868215 -18.67538 -4.1641816 L -17.707566 -2.668469 C -17.166608 -1.832443 -16.453506 -1.1214536 -15.615879 -.5829787 L -14.53783 .11005272 C -14.237574 .3030742 -13.922994 .4728469 -13.596843 .61788524 L -12.279989 1.203486 C -11.68346 1.4687603 -11.052754 1.6492798 -10.406207 1.7397964 L -1.3957866 3.0012553 C -1.3857932 3.0026543 -1.3757967 3.0040318 -1.3657974 3.0053877 L 10.350201 4.5939977 C 10.396202 4.600235 10.442263 4.6060146 10.488378 4.6113356 L 20.771315 5.797828 C 20.80324 5.801512 20.83519 5.804976 20.867165 5.8082195 L 34.57723 7.199096 C 34.605213 7.2019345 34.63321 7.204605 34.661226 7.207106 L 45.766526 8.198651 C 45.801644 8.201786 45.836786 8.204656 45.87195 8.207261 L 56.558485 8.998856 C 56.598964 9.001855 56.63947 9.004501 56.67999 9.006795 L 67.18798 9.601586 C 67.208795 9.602765 67.22961 9.604036 67.250416 9.605401 L 79.29319 10.395091 C 79.37719 10.400599 79.46129 10.404592 79.54543 10.407067 L 92.99256 10.80257 C 93.01032 10.803093 93.02809 10.803683 93.04585 10.804341 L 103.68971 11.198558 C 103.77603 11.201755 103.86241 11.203354 103.94879 11.203354 L 114.5578 11.203354 C 114.59874 11.203354 114.63967 11.203713 114.6806 11.204431 L 125.76702 11.39893 C 125.93509 11.401878 126.10321 11.398772 126.27106 11.389617 L 136.89229 10.810277 C 136.9769 10.805662 137.06157 10.802584 137.14629 10.801043 L 147.91085 10.605324 C 147.98308 10.604011 148.05529 10.601579 148.12745 10.598031 L 160.14607 10.006951 C 160.19483 10.004553 160.24355 10.001645 160.29225 9.998228 L 171.5323 9.209453 C 171.59023 9.205387 171.64812 9.2006 171.70594 9.195094 L 184.11651 8.013134 C 184.18497 8.006614 184.25352 8.001104 184.32214 7.996604 L 196.25416 7.214176 C 196.36418 7.2069624 196.474 7.19715 196.58355 7.1847486 L 206.9959 6.005992 C 207.01144 6.0042334 207.02697 6.0024224 207.0425 6.0005594 L 216.9902 4.806834 C 217.00954 4.804514 217.02886 4.802113 217.04818 4.799632 L 230.88394 3.0220927 C 230.98115 3.0096032 231.0781 2.9950733 231.1747 2.9785127 L 237.7282 1.8550578 C 237.92915 1.8206066 238.13153 1.7949525 238.33473 1.7781688 L 241.56706 1.5111946 C 242.4563 1.4377483 243.3233 1.1949723 244.12135 .7959402 L 245.60765 .052793954 C 246.20824 -.24750028 246.7625 -.6326476 247.25338 -1.0908095 L 248.5885 -2.336919 C 249.19532 -2.9032846 249.65073 -3.6125264 249.91322 -4.399991 L 250.20805 -5.284477 C 250.27812 -5.494701 250.33817 -5.708134 250.388 -5.924055 L 250.8577 -7.959444 C 250.89293 -8.112076 250.8595 -8.272476 250.7662 -8.398319 L 250.7662 -8.398319 C 250.67587 -8.520198 250.52523 -8.581695 250.3754 -8.557859 L 241.89555 -7.208791 C 241.84466 -7.200695 241.79385 -7.192037 241.74315 -7.1828185 L 228.7584 -4.8219525 C 228.6656 -4.8050834 228.5725 -4.790091 228.47911 -4.776984 L 217.24943 -3.200888 C 217.22928 -3.1980602 217.20914 -3.1951444 217.18902 -3.192141 L 204.0199 -1.2265997 C 203.88613 -1.2066349 203.75182 -1.1905509 203.61712 -1.178368 L 193.10874 -.22791705 C 192.90302 -.20931015 192.69657 -.19981826 192.49001 -.19946925 L 191.05605 -.19704635 C 190.8982 -.19677964 190.7404 -.19117375 190.58293 -.18023829 L 176.45308 .8010013 C 176.4305 .8025696 176.4079 .80402845 176.3853 .8053776 L 163.08205 1.5996017 C 163.04016 1.6021031 162.99824 1.6042276 162.9563 1.605975 L 148.76485 2.1972854 C 148.66776 2.2013306 148.5706 2.2033539 148.47344 2.2033539 L 135.2192 2.2033539 L 122.67753 2.2033539 C 122.63865 2.2033539 122.59976 2.203678 122.56088 2.204326 L 110.8025 2.400299 C 110.68032 2.4023352 110.55812 2.4011722 110.436 2.396811 L 99.6024 2.0098967 C 99.48029 2.0055356 99.35809 2.0043725 99.23591 2.0064087 L 87.52127 2.2016527 C 87.45323 2.2027868 87.38518 2.2029285 87.31713 2.202078 L 71.614845 2.0057994 C 71.48444 2.0041693 71.35411 1.9988955 71.22401 1.9899841 L 56.91423 1.0098624 C 56.85088 1.0055236 56.7876 1.000323 56.72439 .9942623 L 42.233386 -.39528627 C 42.22393 -.39619287 42.21448 -.3971187 42.20503 -.3980638 L 28.392992 -1.7792674 C 28.27715 -1.7908514 28.161618 -1.8053236 28.0465 -1.8226703 L 13.737347 -3.9788438 C 13.65859 -3.990711 13.579637 -4.0012337 13.500521 -4.0104065 L -.019410659 -5.577935 C -.12698668 -5.5904074 -.23425878 -5.605375 -.3411403 -5.622825 L -9.733229 -7.156227 C -9.898221 -7.1831646 -10.062195 -7.216004 -10.224836 -7.254682 L -19.302435 -9.413462 C -19.690754 -9.505809 -20.08041 -9.265877 -20.172759 -8.877559 C -20.178842 -8.851977 -20.183525 -8.826083 -20.186787 -8.799991 Z" stroke="#7f8080" stroke-linecap="round" stroke-linejoin="round" stroke-width="1"/>
      <path d="M -44.6 -392.2 L -32.6 -399.2441 L -22.799998 -403 L -22.599998 -403 L -12.78627 -406.6 L 2324581e-12 -410.2 L 1.4000017 -410.2441 L 249.4 -9.244107 L 235.4 -6.244107 L 223.01373 -4.199993 L 218.61373 -3.399993 L 204.81373 -1.399993 L 192.81373 -.19999303 L 183.81373 -.19999303 L 182.4 -.2441073 Z" fill="#25a507"/>
      <path d="M -44.6 -392.2 L -32.6 -399.2441 L -22.799998 -403 L -22.599998 -403 L -12.78627 -406.6 L 2324581e-12 -410.2 L 1.4000017 -410.2441 L 249.4 -9.244107 L 235.4 -6.244107 L 223.01373 -4.199993 L 218.61373 -3.399993 L 204.81373 -1.399993 L 192.81373 -.19999303 L 183.81373 -.19999303 L 182.4 -.2441073 Z" stroke="white" stroke-linecap="round" stroke-linejoin="round" stroke-width="0"/>
    </g>
  </g>
</svg>
