<?xml version="1.0" encoding="UTF-8" standalone="no"?>
<!DOCTYPE svg PUBLIC "-//W3C//DTD SVG 1.1//EN" "http://www.w3.org/Graphics/SVG/1.1/DTD/svg11.dtd">
<svg xmlns="http://www.w3.org/2000/svg" xmlns:xl="http://www.w3.org/1999/xlink" xmlns:dc="http://purl.org/dc/elements/1.1/" version="1.1" viewBox="269 715 433 449" width="433" height="449">
  <defs>
    <radialGradient cx="0" cy="0" r="1" id="Gradient" gradientUnits="userSpaceOnUse">
      <stop offset="0" stop-color="#cbcbcb"/>
      <stop offset=".4338305" stop-color="#7b7876"/>
      <stop offset="1" stop-color="#160904"/>
    </radialGradient>
    <radialGradient id="Obj_Gradient" xl:href="#Gradient" gradientTransform="translate(484.75925 743.4) scale(70.26272)"/>
  </defs>
  <metadata> Produced by OmniGraffle 7.19.2\n2024-02-06 00:45:25 +0000</metadata>
  <g id="colorado" stroke-opacity="1" stroke="none" fill-opacity="1" stroke-dasharray="none" fill="none">
    <title>colorado</title>
    <g id="colorado_Layer_1">
      <title>Layer 1</title>
      <g id="Graphic_10">
        <path d="M 423.00565 716.59045 L 431.1711 719.7082 C 432.0291 720.0358 432.90594 720.3117 433.7969 720.5344 L 447.5141 723.9637 C 448.67576 724.2541 449.8583 724.4534 451.051 724.5597 L 468.57715 726.1214 C 469.165 726.1738 469.75464 726.2035 470.3448 726.2105 L 485.8237 726.3948 C 486.11404 726.3983 486.4044 726.3962 486.6947 726.3887 L 501.118 726.0141 C 501.4788 726.0047 501.8393 725.9868 502.19924 725.9605 L 516.5705 724.9089 C 517.56197 724.8364 518.54766 724.6996 519.5214 724.4996 L 531.09436 722.12155 C 532.13637 721.9074 533.16226 721.6213 534.16465 721.2652 L 545.91664 717.0901 C 547.007 716.7028 548.2102 717.2335 548.65925 718.3 L 548.65925 718.3 C 549.1814 719.5401 549.3334 720.90485 549.09685 722.22945 L 548.9164 723.2401 C 548.6126 724.9413 548.11806 726.6028 547.44214 728.1932 L 545.8989 731.8243 C 545.34035 733.1386 544.6606 734.398 543.86846 735.5862 L 540.1827 741.11485 C 539.4352 742.2361 538.59057 743.2895 537.6586 744.2629 L 531.36354 750.8377 C 530.4955 751.7444 529.55463 752.5785 528.55046 753.3316 L 520.17555 759.6128 C 519.29914 760.2701 518.3769 760.8639 517.4158 761.3898 L 510.2306 765.3213 C 508.9195 766.0387 507.54156 766.6266 506.1164 767.0767 L 499.44347 769.1839 C 497.7266 769.7261 495.952 770.0648 494.1561 770.1931 L 487.2697 770.685 C 486.1974 770.7616 485.121 770.7629 484.04854 770.6889 L 475.6123 770.1071 C 474.5781 770.0358 473.54994 769.8946 472.5348 769.6846 L 465.3996 768.20835 C 463.44765 767.8045 461.5565 767.1486 459.7736 766.2572 L 455.1142 763.9275 C 453.88007 763.3104 452.70397 762.5835 451.6001 761.7557 L 445.91816 757.4942 C 445.47903 757.1648 445.0518 756.8199 444.63737 756.45995 L 438.8822 751.462 C 438.0679 750.7549 437.30436 749.99135 436.5972 749.1771 L 432.192 744.1044 C 431.4379 743.236 430.75 742.3123 430.13406 741.34105 L 426.40036 735.4533 C 426.0398 734.8847 425.70437 734.3006 425.39505 733.70255 L 423.7747 730.5698 C 423.16553 729.39215 422.65936 728.164 422.26183 726.8991 L 420.9816 722.8256 C 420.7668 722.14225 420.5841 721.4492 420.434 720.7488 L 420.35925 720.4 C 420.1646 719.4916 420.27185 718.5444 420.66473 717.70254 L 420.75925 717.5 C 421.1537 716.6547 422.1342 716.2577 423.00565 716.59045 Z" fill="url(#Obj_Gradient)"/>
        <path d="M 423.00565 716.59045 L 431.1711 719.7082 C 432.0291 720.0358 432.90594 720.3117 433.7969 720.5344 L 447.5141 723.9637 C 448.67576 724.2541 449.8583 724.4534 451.051 724.5597 L 468.57715 726.1214 C 469.165 726.1738 469.75464 726.2035 470.3448 726.2105 L 485.8237 726.3948 C 486.11404 726.3983 486.4044 726.3962 486.6947 726.3887 L 501.118 726.0141 C 501.4788 726.0047 501.8393 725.9868 502.19924 725.9605 L 516.5705 724.9089 C 517.56197 724.8364 518.54766 724.6996 519.5214 724.4996 L 531.09436 722.12155 C 532.13637 721.9074 533.16226 721.6213 534.16465 721.2652 L 545.91664 717.0901 C 547.007 716.7028 548.2102 717.2335 548.65925 718.3 L 548.65925 718.3 C 549.1814 719.5401 549.3334 720.90485 549.09685 722.22945 L 548.9164 723.2401 C 548.6126 724.9413 548.11806 726.6028 547.44214 728.1932 L 545.8989 731.8243 C 545.34035 733.1386 544.6606 734.398 543.86846 735.5862 L 540.1827 741.11485 C 539.4352 742.2361 538.59057 743.2895 537.6586 744.2629 L 531.36354 750.8377 C 530.4955 751.7444 529.55463 752.5785 528.55046 753.3316 L 520.17555 759.6128 C 519.29914 760.2701 518.3769 760.8639 517.4158 761.3898 L 510.2306 765.3213 C 508.9195 766.0387 507.54156 766.6266 506.1164 767.0767 L 499.44347 769.1839 C 497.7266 769.7261 495.952 770.0648 494.1561 770.1931 L 487.2697 770.685 C 486.1974 770.7616 485.121 770.7629 484.04854 770.6889 L 475.6123 770.1071 C 474.5781 770.0358 473.54994 769.8946 472.5348 769.6846 L 465.3996 768.20835 C 463.44765 767.8045 461.5565 767.1486 459.7736 766.2572 L 455.1142 763.9275 C 453.88007 763.3104 452.70397 762.5835 451.6001 761.7557 L 445.91816 757.4942 C 445.47903 757.1648 445.0518 756.8199 444.63737 756.45995 L 438.8822 751.462 C 438.0679 750.7549 437.30436 749.99135 436.5972 749.1771 L 432.192 744.1044 C 431.4379 743.236 430.75 742.3123 430.13406 741.34105 L 426.40036 735.4533 C 426.0398 734.8847 425.70437 734.3006 425.39505 733.70255 L 423.7747 730.5698 C 423.16553 729.39215 422.65936 728.164 422.26183 726.8991 L 420.9816 722.8256 C 420.7668 722.14225 420.5841 721.4492 420.434 720.7488 L 420.35925 720.4 C 420.1646 719.4916 420.27185 718.5444 420.66473 717.70254 L 420.75925 717.5 C 421.1537 716.6547 422.1342 716.2577 423.00565 716.59045 Z" stroke="#7f8080" stroke-linecap="round" stroke-linejoin="round" stroke-width="1"/>
      </g>
      <g id="Graphic_9">
        <path d="M 358.97346 1153.2638 L 372.7157 1155.5542 C 372.89907 1155.5847 373.08297 1155.6121 373.2673 1155.6362 L 401.62094 1159.3515 C 401.86747 1159.3838 402.1147 1159.4104 402.3625 1159.4312 L 432.60537 1161.9677 C 432.86227 1161.9892 433.11966 1162.0046 433.3773 1162.0137 L 472.3082 1163.39 C 472.4966 1163.3967 472.68504 1163.4 472.8735 1163.4 L 504.34084 1163.4 C 504.50746 1163.4 504.67407 1163.3974 504.8406 1163.3922 L 529.8754 1162.6099 C 530.0856 1162.6033 530.2957 1162.5926 530.50555 1162.5777 L 552.5533 1161.0168 C 552.7116 1161.0056 552.86975 1160.992 553.02766 1160.9761 L 578.28815 1158.4305 C 578.4899 1158.4102 578.6912 1158.386 578.89204 1158.358 L 602.68474 1155.0427 C 602.88875 1155.0142 603.0922 1154.9819 603.29496 1154.9456 L 612.4908 1153.3 C 617.8179 1152.3467 621.46876 1147.3931 620.80234 1142.0226 L 618.59475 1124.232 C 618.5921 1124.2107 618.5895 1124.1893 618.58695 1124.168 L 615.0231 1094.4695 C 615.0016 1094.2898 614.98306 1094.1099 614.9676 1093.9296 L 612.6054 1066.3704 C 612.59565 1066.2568 612.5871 1066.1431 612.5798 1066.0294 L 611.1932 1044.4377 C 611.1916 1044.4126 611.1899 1044.3874 611.1882 1044.3623 L 609.596 1021.276 C 609.5925 1021.2253 609.5893 1021.1747 609.5863 1021.124 L 608.4099 1001.3218 C 608.39716 1001.1073 608.38874 1000.8925 608.38465 1000.6777 L 607.99236 980.0829 C 607.9913 980.0276 607.99 979.9724 607.98835 979.9172 L 607.3932 959.6828 C 607.3916 959.6276 607.39026 959.5724 607.3892 959.5172 L 606.99855 939.0076 C 606.9934 938.7359 606.9951 938.4641 607.0038 938.1925 L 607.5897 919.8329 C 607.5904 919.811 607.5912 919.789 607.592 919.7671 L 608.38005 897.8978 C 608.3872 897.6993 608.39806 897.5009 608.4126 897.3028 L 609.9701 876.0822 C 609.9839 875.8941 609.99436 875.7057 610.0015 875.5172 L 610.75596 855.6184 C 610.77915 855.0066 610.83744 854.3967 610.9305 853.7917 L 613.6695 835.9881 C 613.7503 835.463 613.8572 834.9423 613.9898 834.4278 L 618.61806 816.4702 C 618.73316 816.0236 618.8675 815.5822 619.0207 815.1472 L 624.7415 798.9076 C 624.9076 798.4361 625.0957 797.9727 625.3052 797.5188 L 630.8367 785.5338 C 630.9394 785.3113 631.0472 785.0912 631.16 784.8736 L 636.5222 774.5322 C 636.5679 774.4441 636.61446 774.3564 636.6618 774.2691 L 641.8778 764.6521 C 642.61505 763.2928 643.5647 762.0599 644.6908 761 L 644.6908 761 C 645.366 760.3645 645.3982 759.302 644.7627 758.6268 C 644.6382 758.4946 644.4931 758.3834 644.33295 758.2976 L 641.1188 756.5757 C 640.90016 756.4586 640.6788 756.3466 640.45494 756.2397 L 632.601 752.4912 C 632.19436 752.2972 631.77974 752.1204 631.3582 751.9613 L 621.6834 748.3104 C 621.4883 748.2368 621.2919 748.167 621.0941 748.1011 L 608.3996 743.8696 C 608.2604 743.8232 608.12055 743.7787 607.9801 743.7362 L 595.0966 739.8321 C 595.02605 739.8107 594.9557 739.7888 594.88544 739.7665 L 582.38144 735.7879 C 581.9878 735.6627 581.5992 735.52225 581.2164 735.3669 L 569.2405 730.5071 C 568.4088 730.1696 567.60704 729.7628 566.8436 729.2908 L 557.22436 723.3444 C 557.06865 723.2481 556.9146 723.1492 556.7623 723.0477 L 551.8722 719.7876 C 550.8908 719.13335 550.0195 718.32745 549.2908 717.4 L 549.2908 717.4 C 549.1852 717.2656 548.9906 717.24225 548.8562 717.34785 C 548.7535 717.4286 548.7125 717.5651 548.7538 717.6891 L 548.8908 718.1 C 549.35003 719.47775 549.4546 720.949 549.1948 722.3779 L 548.79967 724.55115 C 548.52845 726.0428 548.0466 727.48835 547.3686 728.8444 L 545.83626 731.909 C 545.53956 732.5024 545.20624 733.0768 544.83823 733.6288 L 541.6345 738.4344 C 541.2059 739.0773 540.7313 739.6883 540.2144 740.2626 L 535.6524 745.33156 C 535.6113 745.3772 535.57 745.4226 535.5284 745.4677 L 529.53417 751.9758 C 528.9064 752.6573 528.2207 753.283 527.48465 753.8459 L 522.4605 757.6879 C 522.0143 758.0291 521.5505 758.3465 521.071 758.6389 L 514.5846 762.594 C 513.9229 762.9975 513.2328 763.3523 512.51975 763.6558 L 505.40434 766.6836 C 504.5967 767.0273 503.7621 767.3039 502.90905 767.5107 L 498.83 768.4996 C 498.00516 768.6995 497.1657 768.8336 496.31963 768.9004 L 490.6194 769.3504 C 490.2005 769.3834 489.7804 769.4 489.3602 769.4 L 482.32787 769.4 C 481.57077 769.4 480.8146 769.3463 480.0651 769.2392 L 472.1187 768.104 C 471.63367 768.0347 471.1521 767.9432 470.6755 767.8297 L 464.71426 766.41035 C 463.5688 766.1376 462.4569 765.7393 461.39883 765.2225 L 455.1188 762.1556 C 454.6338 761.9187 454.161 761.6574 453.7024 761.3727 L 449.4905 758.7585 C 448.89135 758.3866 448.3174 757.9755 447.7725 757.5278 L 443.3264 753.8757 C 443.1027 753.6919 442.884 753.5021 442.6706 753.3065 L 438.8683 749.821 C 438.417 749.4074 437.9898 748.9681 437.58885 748.5055 L 433.4701 743.7531 C 433.1507 743.38455 432.84836 743.0016 432.56395 742.6055 L 428.1343 736.4356 C 427.6394 735.7463 427.20013 735.0187 426.82064 734.2597 L 424.2442 729.1068 C 424.2086 729.0356 424.1735 728.9641 424.139 728.8924 L 422.8908 726.3 C 422.04007 724.5331 421.68455 722.5686 421.8621 720.6156 L 422.0423 718.6334 C 422.0661 718.3715 421.8731 718.13994 421.61125 718.1161 C 421.44886 718.1014 421.2902 718.17075 421.1908 718.3 L 421.1908 718.3 C 420.52734 719.1625 419.74723 719.9286 418.87285 720.57625 L 414.9763 723.4626 C 414.85263 723.5542 414.72763 723.644 414.60136 723.732 L 409.9791 726.9536 C 408.79237 727.7807 407.49895 728.4431 406.1342 728.9226 L 401.5271 730.5413 C 401.0365 730.7137 400.55463 730.9098 400.08316 731.1291 L 393.2364 734.3137 C 392.5402 734.6375 391.82165 734.9107 391.08625 735.1314 L 380.21586 738.3925 C 380.19914 738.3975 380.18243 738.4025 380.16572 738.4076 L 369.19764 741.7372 C 369.05974 741.7791 368.9224 741.8228 368.7857 741.8684 L 355.86446 746.1754 C 355.81534 746.1918 355.76614 746.20795 355.71686 746.22384 L 344.34946 749.89075 C 343.71097 750.0967 343.08607 750.3426 342.47846 750.627 L 334.5465 754.3399 C 334.17616 754.5132 333.8126 754.7007 333.45662 754.9019 L 327.5105 758.2628 C 326.25747 758.971 325.81583 760.5609 326.52406 761.814 C 326.6012 761.9504 326.69045 762.0796 326.7908 762.2 L 327.6549 763.2369 C 328.40984 764.1429 329.0623 765.1295 329.60043 766.1788 L 332.67757 772.1792 C 332.75304 772.3264 332.8308 772.4724 332.9108 772.61715 L 336.86554 779.7734 C 336.94903 779.92445 337.03007 780.0769 337.10863 780.2306 L 341.21693 788.2686 C 341.466 788.7559 341.6899 789.2556 341.88776 789.7659 L 345.37053 798.7478 C 345.38403 798.7826 345.39765 798.8174 345.4114 798.8521 L 349.00772 807.9375 C 349.12973 808.2458 349.24213 808.5577 349.34476 808.8729 L 351.9666 816.9257 C 351.9827 816.9752 351.9986 817.0248 352.01424 817.0745 L 355.0863 826.8328 C 355.2891 827.477 355.4509 828.1333 355.57073 828.7979 L 357.55605 839.8074 C 357.5792 839.9358 357.6008 840.0645 357.6208 840.1934 L 359.32666 851.1868 C 359.3694 851.4622 359.40494 851.7387 359.43323 852.016 L 360.32065 860.7127 C 360.3674 861.1707 360.39433 861.6305 360.4014 862.0908 L 360.58565 874.0664 C 360.58907 874.2888 360.59713 874.5111 360.6098 874.7331 L 361.3802 888.2146 C 361.38725 888.3382 361.39575 888.4617 361.40567 888.5851 L 362.73924 905.1594 C 362.7736 905.5863 362.7908 906.0144 362.7908 906.4426 L 362.7908 918.8924 C 362.7908 919.0975 362.79472 919.3025 362.8026 919.5074 L 363.38295 934.5965 C 363.38817 934.7322 363.39166 934.8679 363.39343 935.0036 L 363.5856 949.7999 C 363.58905 950.0666 363.58584 950.3333 363.57597 950.5999 L 363.00174 966.104 C 362.99444 966.3013 362.9908 966.4988 362.9908 966.6962 L 362.9908 980.2924 C 362.9908 980.4975 362.98684 980.7025 362.97896 980.9074 L 362.39377 996.1224 C 362.39178 996.1741 362.38953 996.2259 362.38704 996.2776 L 361.5917 1012.7806 C 361.5911 1012.7935 361.59045 1012.8065 361.5898 1012.8195 L 360.7953 1028.5106 C 360.7923 1028.5702 360.78894 1028.6298 360.78526 1028.6893 L 359.59634 1047.9101 C 359.59264 1047.97 359.5886 1048.03 359.5842 1048.0899 L 357.80107 1072.4594 C 357.7942 1072.5531 357.78653 1072.6468 357.778 1072.7404 L 355.99213 1092.3852 C 355.99123 1092.3951 355.99032 1092.405 355.9894 1092.4148 L 354.21864 1111.4997 C 354.20007 1111.6999 354.17773 1111.8997 354.15162 1112.099 L 352.1909 1127.0717 C 352.0581 1128.086 351.78896 1129.0776 351.3908 1130.0197 L 351.3908 1130.0197 C 350.9932 1130.9605 350.74454 1131.9574 350.6537 1132.9747 L 349.8908 1141.5197 C 349.38302 1147.2068 353.3415 1152.3251 358.97346 1153.2638 Z" fill="#5500b8"/>
        <path d="M 358.97346 1153.2638 L 372.7157 1155.5542 C 372.89907 1155.5847 373.08297 1155.6121 373.2673 1155.6362 L 401.62094 1159.3515 C 401.86747 1159.3838 402.1147 1159.4104 402.3625 1159.4312 L 432.60537 1161.9677 C 432.86227 1161.9892 433.11966 1162.0046 433.3773 1162.0137 L 472.3082 1163.39 C 472.4966 1163.3967 472.68504 1163.4 472.8735 1163.4 L 504.34084 1163.4 C 504.50746 1163.4 504.67407 1163.3974 504.8406 1163.3922 L 529.8754 1162.6099 C 530.0856 1162.6033 530.2957 1162.5926 530.50555 1162.5777 L 552.5533 1161.0168 C 552.7116 1161.0056 552.86975 1160.992 553.02766 1160.9761 L 578.28815 1158.4305 C 578.4899 1158.4102 578.6912 1158.386 578.89204 1158.358 L 602.68474 1155.0427 C 602.88875 1155.0142 603.0922 1154.9819 603.29496 1154.9456 L 612.4908 1153.3 C 617.8179 1152.3467 621.46876 1147.3931 620.80234 1142.0226 L 618.59475 1124.232 C 618.5921 1124.2107 618.5895 1124.1893 618.58695 1124.168 L 615.0231 1094.4695 C 615.0016 1094.2898 614.98306 1094.1099 614.9676 1093.9296 L 612.6054 1066.3704 C 612.59565 1066.2568 612.5871 1066.1431 612.5798 1066.0294 L 611.1932 1044.4377 C 611.1916 1044.4126 611.1899 1044.3874 611.1882 1044.3623 L 609.596 1021.276 C 609.5925 1021.2253 609.5893 1021.1747 609.5863 1021.124 L 608.4099 1001.3218 C 608.39716 1001.1073 608.38874 1000.8925 608.38465 1000.6777 L 607.99236 980.0829 C 607.9913 980.0276 607.99 979.9724 607.98835 979.9172 L 607.3932 959.6828 C 607.3916 959.6276 607.39026 959.5724 607.3892 959.5172 L 606.99855 939.0076 C 606.9934 938.7359 606.9951 938.4641 607.0038 938.1925 L 607.5897 919.8329 C 607.5904 919.811 607.5912 919.789 607.592 919.7671 L 608.38005 897.8978 C 608.3872 897.6993 608.39806 897.5009 608.4126 897.3028 L 609.9701 876.0822 C 609.9839 875.8941 609.99436 875.7057 610.0015 875.5172 L 610.75596 855.6184 C 610.77915 855.0066 610.83744 854.3967 610.9305 853.7917 L 613.6695 835.9881 C 613.7503 835.463 613.8572 834.9423 613.9898 834.4278 L 618.61806 816.4702 C 618.73316 816.0236 618.8675 815.5822 619.0207 815.1472 L 624.7415 798.9076 C 624.9076 798.4361 625.0957 797.9727 625.3052 797.5188 L 630.8367 785.5338 C 630.9394 785.3113 631.0472 785.0912 631.16 784.8736 L 636.5222 774.5322 C 636.5679 774.4441 636.61446 774.3564 636.6618 774.2691 L 641.8778 764.6521 C 642.61505 763.2928 643.5647 762.0599 644.6908 761 L 644.6908 761 C 645.366 760.3645 645.3982 759.302 644.7627 758.6268 C 644.6382 758.4946 644.4931 758.3834 644.33295 758.2976 L 641.1188 756.5757 C 640.90016 756.4586 640.6788 756.3466 640.45494 756.2397 L 632.601 752.4912 C 632.19436 752.2972 631.77974 752.1204 631.3582 751.9613 L 621.6834 748.3104 C 621.4883 748.2368 621.2919 748.167 621.0941 748.1011 L 608.3996 743.8696 C 608.2604 743.8232 608.12055 743.7787 607.9801 743.7362 L 595.0966 739.8321 C 595.02605 739.8107 594.9557 739.7888 594.88544 739.7665 L 582.38144 735.7879 C 581.9878 735.6627 581.5992 735.52225 581.2164 735.3669 L 569.2405 730.5071 C 568.4088 730.1696 567.60704 729.7628 566.8436 729.2908 L 557.22436 723.3444 C 557.06865 723.2481 556.9146 723.1492 556.7623 723.0477 L 551.8722 719.7876 C 550.8908 719.13335 550.0195 718.32745 549.2908 717.4 L 549.2908 717.4 C 549.1852 717.2656 548.9906 717.24225 548.8562 717.34785 C 548.7535 717.4286 548.7125 717.5651 548.7538 717.6891 L 548.8908 718.1 C 549.35003 719.47775 549.4546 720.949 549.1948 722.3779 L 548.79967 724.55115 C 548.52845 726.0428 548.0466 727.48835 547.3686 728.8444 L 545.83626 731.909 C 545.53956 732.5024 545.20624 733.0768 544.83823 733.6288 L 541.6345 738.4344 C 541.2059 739.0773 540.7313 739.6883 540.2144 740.2626 L 535.6524 745.33156 C 535.6113 745.3772 535.57 745.4226 535.5284 745.4677 L 529.53417 751.9758 C 528.9064 752.6573 528.2207 753.283 527.48465 753.8459 L 522.4605 757.6879 C 522.0143 758.0291 521.5505 758.3465 521.071 758.6389 L 514.5846 762.594 C 513.9229 762.9975 513.2328 763.3523 512.51975 763.6558 L 505.40434 766.6836 C 504.5967 767.0273 503.7621 767.3039 502.90905 767.5107 L 498.83 768.4996 C 498.00516 768.6995 497.1657 768.8336 496.31963 768.9004 L 490.6194 769.3504 C 490.2005 769.3834 489.7804 769.4 489.3602 769.4 L 482.32787 769.4 C 481.57077 769.4 480.8146 769.3463 480.0651 769.2392 L 472.1187 768.104 C 471.63367 768.0347 471.1521 767.9432 470.6755 767.8297 L 464.71426 766.41035 C 463.5688 766.1376 462.4569 765.7393 461.39883 765.2225 L 455.1188 762.1556 C 454.6338 761.9187 454.161 761.6574 453.7024 761.3727 L 449.4905 758.7585 C 448.89135 758.3866 448.3174 757.9755 447.7725 757.5278 L 443.3264 753.8757 C 443.1027 753.6919 442.884 753.5021 442.6706 753.3065 L 438.8683 749.821 C 438.417 749.4074 437.9898 748.9681 437.58885 748.5055 L 433.4701 743.7531 C 433.1507 743.38455 432.84836 743.0016 432.56395 742.6055 L 428.1343 736.4356 C 427.6394 735.7463 427.20013 735.0187 426.82064 734.2597 L 424.2442 729.1068 C 424.2086 729.0356 424.1735 728.9641 424.139 728.8924 L 422.8908 726.3 C 422.04007 724.5331 421.68455 722.5686 421.8621 720.6156 L 422.0423 718.6334 C 422.0661 718.3715 421.8731 718.13994 421.61125 718.1161 C 421.44886 718.1014 421.2902 718.17075 421.1908 718.3 L 421.1908 718.3 C 420.52734 719.1625 419.74723 719.9286 418.87285 720.57625 L 414.9763 723.4626 C 414.85263 723.5542 414.72763 723.644 414.60136 723.732 L 409.9791 726.9536 C 408.79237 727.7807 407.49895 728.4431 406.1342 728.9226 L 401.5271 730.5413 C 401.0365 730.7137 400.55463 730.9098 400.08316 731.1291 L 393.2364 734.3137 C 392.5402 734.6375 391.82165 734.9107 391.08625 735.1314 L 380.21586 738.3925 C 380.19914 738.3975 380.18243 738.4025 380.16572 738.4076 L 369.19764 741.7372 C 369.05974 741.7791 368.9224 741.8228 368.7857 741.8684 L 355.86446 746.1754 C 355.81534 746.1918 355.76614 746.20795 355.71686 746.22384 L 344.34946 749.89075 C 343.71097 750.0967 343.08607 750.3426 342.47846 750.627 L 334.5465 754.3399 C 334.17616 754.5132 333.8126 754.7007 333.45662 754.9019 L 327.5105 758.2628 C 326.25747 758.971 325.81583 760.5609 326.52406 761.814 C 326.6012 761.9504 326.69045 762.0796 326.7908 762.2 L 327.6549 763.2369 C 328.40984 764.1429 329.0623 765.1295 329.60043 766.1788 L 332.67757 772.1792 C 332.75304 772.3264 332.8308 772.4724 332.9108 772.61715 L 336.86554 779.7734 C 336.94903 779.92445 337.03007 780.0769 337.10863 780.2306 L 341.21693 788.2686 C 341.466 788.7559 341.6899 789.2556 341.88776 789.7659 L 345.37053 798.7478 C 345.38403 798.7826 345.39765 798.8174 345.4114 798.8521 L 349.00772 807.9375 C 349.12973 808.2458 349.24213 808.5577 349.34476 808.8729 L 351.9666 816.9257 C 351.9827 816.9752 351.9986 817.0248 352.01424 817.0745 L 355.0863 826.8328 C 355.2891 827.477 355.4509 828.1333 355.57073 828.7979 L 357.55605 839.8074 C 357.5792 839.9358 357.6008 840.0645 357.6208 840.1934 L 359.32666 851.1868 C 359.3694 851.4622 359.40494 851.7387 359.43323 852.016 L 360.32065 860.7127 C 360.3674 861.1707 360.39433 861.6305 360.4014 862.0908 L 360.58565 874.0664 C 360.58907 874.2888 360.59713 874.5111 360.6098 874.7331 L 361.3802 888.2146 C 361.38725 888.3382 361.39575 888.4617 361.40567 888.5851 L 362.73924 905.1594 C 362.7736 905.5863 362.7908 906.0144 362.7908 906.4426 L 362.7908 918.8924 C 362.7908 919.0975 362.79472 919.3025 362.8026 919.5074 L 363.38295 934.5965 C 363.38817 934.7322 363.39166 934.8679 363.39343 935.0036 L 363.5856 949.7999 C 363.58905 950.0666 363.58584 950.3333 363.57597 950.5999 L 363.00174 966.104 C 362.99444 966.3013 362.9908 966.4988 362.9908 966.6962 L 362.9908 980.2924 C 362.9908 980.4975 362.98684 980.7025 362.97896 980.9074 L 362.39377 996.1224 C 362.39178 996.1741 362.38953 996.2259 362.38704 996.2776 L 361.5917 1012.7806 C 361.5911 1012.7935 361.59045 1012.8065 361.5898 1012.8195 L 360.7953 1028.5106 C 360.7923 1028.5702 360.78894 1028.6298 360.78526 1028.6893 L 359.59634 1047.9101 C 359.59264 1047.97 359.5886 1048.03 359.5842 1048.0899 L 357.80107 1072.4594 C 357.7942 1072.5531 357.78653 1072.6468 357.778 1072.7404 L 355.99213 1092.3852 C 355.99123 1092.3951 355.99032 1092.405 355.9894 1092.4148 L 354.21864 1111.4997 C 354.20007 1111.6999 354.17773 1111.8997 354.15162 1112.099 L 352.1909 1127.0717 C 352.0581 1128.086 351.78896 1129.0776 351.3908 1130.0197 L 351.3908 1130.0197 C 350.9932 1130.9605 350.74454 1131.9574 350.6537 1132.9747 L 349.8908 1141.5197 C 349.38302 1147.2068 353.3415 1152.3251 358.97346 1153.2638 Z" stroke="#7f8080" stroke-linecap="round" stroke-linejoin="round" stroke-width="1"/>
      </g>
      <g id="Graphic_8">
        <path d="M 270 867.4461 L 276.2 871.8461 L 284.4 875.8461 L 293 879.4461 L 302 883.2461 L 313 887.2461 L 322.4 890.0461 L 331.4 892.6461 L 340.4 895.2461 L 345.8 896.6461 L 351.4 897.6461 L 353.8 891.8461 L 356.4 886.4461 L 358.6 882.4461 L 361.2 879.0461 L 361.4 870.0461 L 360.8 859.0461 L 359 848.2461 L 357.4 837.8461 L 354.8 826.8461 L 352.4 817.2461 L 349.6 809.2461 L 346.4 799.8461 L 343.6 792.4461 L 340 784.8461 L 336 777.2461 L 332 769.8461 L 329.4 766.2461 L 325.8 760.4461 L 320.4 764.8461 L 315.6 769.6461 L 311 775.8461 L 306.6 782.0461 L 301.8 790.6461 L 297 800.0461 L 292.2 809.2461 L 288.6 817.8461 L 284.6 826.8461 L 281.4 835.0461 L 277.6 844.4461 L 274.8 852.4461 L 271.8 860.8461 Z" fill="#5500b8"/>
        <path d="M 270 867.4461 L 276.2 871.8461 L 284.4 875.8461 L 293 879.4461 L 302 883.2461 L 313 887.2461 L 322.4 890.0461 L 331.4 892.6461 L 340.4 895.2461 L 345.8 896.6461 L 351.4 897.6461 L 353.8 891.8461 L 356.4 886.4461 L 358.6 882.4461 L 361.2 879.0461 L 361.4 870.0461 L 360.8 859.0461 L 359 848.2461 L 357.4 837.8461 L 354.8 826.8461 L 352.4 817.2461 L 349.6 809.2461 L 346.4 799.8461 L 343.6 792.4461 L 340 784.8461 L 336 777.2461 L 332 769.8461 L 329.4 766.2461 L 325.8 760.4461 L 320.4 764.8461 L 315.6 769.6461 L 311 775.8461 L 306.6 782.0461 L 301.8 790.6461 L 297 800.0461 L 292.2 809.2461 L 288.6 817.8461 L 284.6 826.8461 L 281.4 835.0461 L 277.6 844.4461 L 274.8 852.4461 L 271.8 860.8461 Z" stroke="#7f8080" stroke-linecap="round" stroke-linejoin="round" stroke-width="1"/>
      </g>
      <g id="Graphic_7">
        <path d="M 701.4053 866.5027 L 695.2053 870.9027 L 687.0053 874.9027 L 678.4053 878.5027 L 669.4053 882.3027 L 658.4053 886.3027 L 649.0053 889.1027 L 640.0053 891.7027 L 631.0053 894.3027 L 625.6053 895.7027 L 620.0053 896.7027 L 617.6053 890.9027 L 615.0053 885.5027 L 612.8053 881.5027 L 610.2053 878.1027 L 610.0053 869.1027 L 610.6053 858.1027 L 612.4053 847.3027 L 614.0053 836.9027 L 616.6053 825.9027 L 619.0053 816.3027 L 621.8053 808.30275 L 625.0053 798.90275 L 627.8053 791.50275 L 631.4053 783.90275 L 635.4053 776.30275 L 639.4053 768.90275 L 642.0053 765.30275 L 645.6053 759.50275 L 651.0053 763.90275 L 655.8053 768.70275 L 660.4053 774.90275 L 664.8053 781.10275 L 669.6053 789.70275 L 674.4053 799.10275 L 679.2053 808.30275 L 682.8053 816.9027 L 686.8053 825.9027 L 690.0053 834.1027 L 693.8053 843.5027 L 696.6053 851.5027 L 699.6053 859.9027 Z" fill="#5500b8"/>
        <path d="M 701.4053 866.5027 L 695.2053 870.9027 L 687.0053 874.9027 L 678.4053 878.5027 L 669.4053 882.3027 L 658.4053 886.3027 L 649.0053 889.1027 L 640.0053 891.7027 L 631.0053 894.3027 L 625.6053 895.7027 L 620.0053 896.7027 L 617.6053 890.9027 L 615.0053 885.5027 L 612.8053 881.5027 L 610.2053 878.1027 L 610.0053 869.1027 L 610.6053 858.1027 L 612.4053 847.3027 L 614.0053 836.9027 L 616.6053 825.9027 L 619.0053 816.3027 L 621.8053 808.30275 L 625.0053 798.90275 L 627.8053 791.50275 L 631.4053 783.90275 L 635.4053 776.30275 L 639.4053 768.90275 L 642.0053 765.30275 L 645.6053 759.50275 L 651.0053 763.90275 L 655.8053 768.70275 L 660.4053 774.90275 L 664.8053 781.10275 L 669.6053 789.70275 L 674.4053 799.10275 L 679.2053 808.30275 L 682.8053 816.9027 L 686.8053 825.9027 L 690.0053 834.1027 L 693.8053 843.5027 L 696.6053 851.5027 L 699.6053 859.9027 Z" stroke="#7f8080" stroke-linecap="round" stroke-linejoin="round" stroke-width="1"/>
      </g>
      <g id="Graphic_6">
        <path d="M 270 867.4461 L 276.2 871.8461 L 284.4 875.8461 L 293 879.4461 L 302 883.2461 L 313 887.2461 L 322.4 890.0461 L 331.4 892.6461 L 340.4 895.2461 L 345.8 896.6461 L 351.4 897.6461 L 354.4 891.2461 L 350.6 890.4461 L 345.8 889.2461 L 340.2 888.0461 L 334.2 886.2461 L 329.6 884.8461 L 325.4 883.6461 L 320.8 881.6461 L 316.2 880.0461 L 311.4 878.0461 L 307.4 876.6461 L 302.2 874.4461 L 297.6 872.8461 L 292.8 870.6461 L 288 868.8461 L 284 866.8461 L 279.6 864.6461 L 275.2 862.4461 L 271.8 860.8461 Z" fill="white"/>
        <path d="M 270 867.4461 L 276.2 871.8461 L 284.4 875.8461 L 293 879.4461 L 302 883.2461 L 313 887.2461 L 322.4 890.0461 L 331.4 892.6461 L 340.4 895.2461 L 345.8 896.6461 L 351.4 897.6461 L 354.4 891.2461 L 350.6 890.4461 L 345.8 889.2461 L 340.2 888.0461 L 334.2 886.2461 L 329.6 884.8461 L 325.4 883.6461 L 320.8 881.6461 L 316.2 880.0461 L 311.4 878.0461 L 307.4 876.6461 L 302.2 874.4461 L 297.6 872.8461 L 292.8 870.6461 L 288 868.8461 L 284 866.8461 L 279.6 864.6461 L 275.2 862.4461 L 271.8 860.8461 Z" stroke="#7f8080" stroke-linecap="round" stroke-linejoin="round" stroke-width="1"/>
      </g>
      <g id="Graphic_5">
        <path d="M 701.4053 866.5027 L 695.2053 870.9027 L 687.0053 874.9027 L 678.4053 878.5027 L 669.4053 882.3027 L 658.4053 886.3027 L 649.0053 889.1027 L 640.0053 891.7027 L 631.0053 894.3027 L 625.6053 895.7027 L 620.0053 896.7027 L 617.0053 890.3027 L 620.8053 889.5027 L 625.6053 888.3027 L 631.2053 887.1027 L 637.2053 885.3027 L 641.8053 883.9027 L 646.0053 882.7027 L 650.6053 880.7027 L 655.2053 879.1027 L 660.0053 877.1027 L 664.0053 875.7027 L 669.2053 873.5027 L 673.8053 871.9027 L 678.6053 869.7027 L 683.4053 867.9027 L 687.4053 865.9027 L 691.8053 863.7027 L 696.2053 861.5027 L 699.6053 859.9027 Z" fill="white"/>
        <path d="M 701.4053 866.5027 L 695.2053 870.9027 L 687.0053 874.9027 L 678.4053 878.5027 L 669.4053 882.3027 L 658.4053 886.3027 L 649.0053 889.1027 L 640.0053 891.7027 L 631.0053 894.3027 L 625.6053 895.7027 L 620.0053 896.7027 L 617.0053 890.3027 L 620.8053 889.5027 L 625.6053 888.3027 L 631.2053 887.1027 L 637.2053 885.3027 L 641.8053 883.9027 L 646.0053 882.7027 L 650.6053 880.7027 L 655.2053 879.1027 L 660.0053 877.1027 L 664.0053 875.7027 L 669.2053 873.5027 L 673.8053 871.9027 L 678.6053 869.7027 L 683.4053 867.9027 L 687.4053 865.9027 L 691.8053 863.7027 L 696.2053 861.5027 L 699.6053 859.9027 Z" stroke="#7f8080" stroke-linecap="round" stroke-linejoin="round" stroke-width="1"/>
      </g>
      <g id="Graphic_4">
        <path d="M 509.8132 1163.4 L 518.8132 1163.4 L 519.6132 786.8 L 520.7132 784.8 L 523.7132 782.8 L 530.5132 779 L 536.3132 775 L 541.7132 770.4 L 546.7132 765 L 551.5132 759.8 L 556.1132 753.4 L 560.5132 746.8 L 563.5132 741.6 L 566.4132 736.8 L 570.1132 730.8 L 566.7132 729.2 L 562.1132 726.6 L 560.5132 730.8 L 556.7132 737.2 L 552.3132 743.6 L 548.5132 749 L 544.1132 754.8 L 539.5132 759.6 L 533.3132 764.8 L 527.9132 769.6 L 520.7132 773.8 L 513.5132 777.2 L 508.3132 779.4 L 508.1132 786.8 Z" fill="white"/>
        <path d="M 509.8132 1163.4 L 518.8132 1163.4 L 519.6132 786.8 L 520.7132 784.8 L 523.7132 782.8 L 530.5132 779 L 536.3132 775 L 541.7132 770.4 L 546.7132 765 L 551.5132 759.8 L 556.1132 753.4 L 560.5132 746.8 L 563.5132 741.6 L 566.4132 736.8 L 570.1132 730.8 L 566.7132 729.2 L 562.1132 726.6 L 560.5132 730.8 L 556.7132 737.2 L 552.3132 743.6 L 548.5132 749 L 544.1132 754.8 L 539.5132 759.6 L 533.3132 764.8 L 527.9132 769.6 L 520.7132 773.8 L 513.5132 777.2 L 508.3132 779.4 L 508.1132 786.8 Z" stroke="#9c9c9c" stroke-linecap="round" stroke-linejoin="round" stroke-width="1"/>
      </g>
      <g id="Graphic_3">
        <path d="M 463.815 1163.2793 L 454.815 1163.2793 L 454.015 786.6793 L 452.915 784.6793 L 449.915 782.6793 L 443.115 778.8793 L 437.315 774.8793 L 431.915 770.2793 L 426.915 764.8793 L 422.115 759.6793 L 417.515 753.2793 L 413.115 746.6793 L 410.115 741.4793 L 407.215 736.6793 L 403.515 730.6793 L 406.915 729.0793 L 411.515 726.4793 L 413.115 730.6793 L 416.915 737.0793 L 421.315 743.4793 L 425.115 748.8793 L 429.515 754.6793 L 434.115 759.4793 L 440.315 764.6793 L 445.715 769.4793 L 452.915 773.6793 L 460.115 777.0793 L 465.315 779.2793 L 465.515 786.6793 Z" fill="white"/>
        <path d="M 463.815 1163.2793 L 454.815 1163.2793 L 454.015 786.6793 L 452.915 784.6793 L 449.915 782.6793 L 443.115 778.8793 L 437.315 774.8793 L 431.915 770.2793 L 426.915 764.8793 L 422.115 759.6793 L 417.515 753.2793 L 413.115 746.6793 L 410.115 741.4793 L 407.215 736.6793 L 403.515 730.6793 L 406.915 729.0793 L 411.515 726.4793 L 413.115 730.6793 L 416.915 737.0793 L 421.315 743.4793 L 425.115 748.8793 L 429.515 754.6793 L 434.115 759.4793 L 440.315 764.6793 L 445.715 769.4793 L 452.915 773.6793 L 460.115 777.0793 L 465.315 779.2793 L 465.515 786.6793 Z" stroke="#9c9c9c" stroke-linecap="round" stroke-linejoin="round" stroke-width="1"/>
      </g>
      <g id="Line_2">
        <line x1="486.75124" y1="770.8" x2="486.25606" y2="1163.4" stroke="#a9a9a9" stroke-linecap="round" stroke-linejoin="round" stroke-width=".8"/>
      </g>
    </g>
  </g>
</svg>
