<?xml version="1.0" encoding="UTF-8" standalone="no"?>
<!DOCTYPE svg PUBLIC "-//W3C//DTD SVG 1.1//EN" "http://www.w3.org/Graphics/SVG/1.1/DTD/svg11.dtd">
<svg xmlns="http://www.w3.org/2000/svg" xmlns:xl="http://www.w3.org/1999/xlink" xmlns:dc="http://purl.org/dc/elements/1.1/" version="1.1" viewBox="-37 -433 433 450" width="433" height="450">
  <defs>
    <radialGradient cx="0" cy="0" r="1" id="Gradient" gradientUnits="userSpaceOnUse">
      <stop offset="0" stop-color="#cbcbcb"/>
      <stop offset=".4338305" stop-color="#837d78"/>
      <stop offset="1" stop-color="#2b1b0b"/>
    </radialGradient>
    <radialGradient id="Obj_Gradient" xl:href="#Gradient" gradientTransform="translate(178.75925 -404.6) scale(70.26272)"/>
  </defs>
  <metadata> Produced by OmniGraffle 7.19.2\n2024-02-06 00:45:25 +0000</metadata>
  <g id="marlins" stroke-opacity="1" stroke="none" fill-opacity="1" stroke-dasharray="none" fill="none">
    <title>marlins</title>
    <g id="marlins_Capa_1">
      <title>Capa 1</title>
      <g id="Graphic_20">
        <path d="M 51.33006 6.17293 L 65.0723 8.463303 C 65.25568 8.493866 65.43957 8.52123 65.6239 8.545384 L 93.97754 12.260689 C 94.22407 12.292992 94.47132 12.319545 94.71908 12.340326 L 124.96197 14.876826 C 125.21888 14.898373 125.47627 14.913707 125.73391 14.922816 L 164.66482 16.299161 C 164.85318 16.30582 165.04165 16.30915 165.23013 16.30915 L 196.69745 16.30915 C 196.86406 16.30915 197.03067 16.306548 197.1972 16.301344 L 222.232 15.519007 C 222.44224 15.512437 222.65233 15.501721 222.86215 15.486867 L 244.9099 13.925964 C 245.06822 13.914756 245.22636 13.901193 245.38427 13.88528 L 270.64475 11.339649 C 270.8465 11.319319 271.04783 11.295155 271.24865 11.267172 L 295.04134 7.951796 C 295.24535 7.923369 295.4488 7.891004 295.65156 7.85472 L 304.8474 6.209151 C 310.1745 5.2558794 313.82536 .30223347 313.15895 -5.068302 L 310.95136 -22.858874 C 310.9487 -22.88019 310.9461 -22.901514 310.94355 -22.92284 L 307.37973 -52.62137 C 307.35817 -52.80101 307.33966 -52.981004 307.3242 -53.161274 L 304.962 -80.72048 C 304.95226 -80.83406 304.94374 -80.94773 304.93643 -81.06149 L 303.5498 -102.65313 C 303.5482 -102.67828 303.54652 -102.70342 303.5448 -102.72856 L 301.95263 -125.81487 C 301.94914 -125.86552 301.9459 -125.9162 301.94287 -125.96688 L 300.7665 -145.76905 C 300.75376 -145.98356 300.74534 -146.19831 300.74125 -146.41316 L 300.34897 -167.008 C 300.3479 -167.06323 300.34658 -167.11846 300.34495 -167.17368 L 299.74983 -187.40802 C 299.7482 -187.46324 299.74686 -187.51847 299.7458 -187.5737 L 299.35515 -208.08324 C 299.34998 -208.35494 299.35173 -208.62672 299.3604 -208.89833 L 299.94634 -227.25794 C 299.94704 -227.27988 299.9478 -227.30182 299.94857 -227.32376 L 300.73666 -249.19307 C 300.7438 -249.39158 300.75466 -249.58993 300.7692 -249.78803 L 302.32668 -271.00865 C 302.3405 -271.19677 302.35096 -271.38512 302.3581 -271.5736 L 303.11256 -291.4725 C 303.13576 -292.08423 303.19404 -292.69414 303.28713 -293.2992 L 306.02613 -311.10272 C 306.1069 -311.62782 306.2138 -312.14857 306.3464 -312.66303 L 310.97466 -330.6207 C 311.08976 -331.06725 311.2241 -331.50864 311.37734 -331.9436 L 317.09812 -348.18325 C 317.2642 -348.65473 317.4523 -349.11816 317.66178 -349.57203 L 323.19333 -361.55707 C 323.29602 -361.77956 323.4038 -361.99967 323.5166 -362.2172 L 328.2747 -371.39353 C 328.72223 -372.2566 329.2475 -373.0771 329.84397 -373.84485 L 337.2371 -383.36063 C 337.8695 -384.1746 338.29395 -385.13046 338.4737 -386.14543 L 338.4737 -386.14543 C 338.63697 -387.0674 338.18926 -387.98985 337.36393 -388.432 L 333.4754 -390.51513 C 333.25676 -390.63226 333.0354 -390.7443 332.81155 -390.85114 L 324.95757 -394.59963 C 324.55096 -394.7937 324.13634 -394.9705 323.7148 -395.12956 L 314.03998 -398.78044 C 313.84494 -398.85404 313.64848 -398.92383 313.4507 -398.98975 L 300.75623 -403.22124 C 300.617 -403.26765 300.47716 -403.31214 300.3367 -403.3547 L 287.4532 -407.2588 C 287.38266 -407.28017 287.31227 -407.30203 287.24205 -407.32437 L 274.73805 -411.3029 C 274.34442 -411.42816 273.9558 -411.5686 273.57304 -411.72393 L 261.5971 -416.58373 C 260.76543 -416.9212 259.96364 -417.3281 259.2002 -417.8 L 249.58096 -423.74647 C 249.42526 -423.8427 249.27122 -423.94164 249.1189 -424.0432 L 244.2288 -427.30324 C 243.24742 -427.9575 242.3761 -428.7634 241.6474 -429.69086 L 241.6474 -429.69086 C 241.54178 -429.82526 241.34722 -429.8486 241.21282 -429.743 C 241.11007 -429.6623 241.0691 -429.52573 241.11042 -429.40177 L 241.2474 -428.99086 C 241.70664 -427.6131 241.8112 -426.1418 241.5514 -424.71297 L 241.15627 -422.5397 C 240.88506 -421.04804 240.4032 -419.6025 239.72519 -418.24645 L 238.19287 -415.1818 C 237.89617 -414.5884 237.56285 -414.01405 237.19484 -413.46203 L 233.99113 -408.65647 C 233.56253 -408.01357 233.08792 -407.40256 232.57104 -406.82824 L 228.009 -401.7593 C 227.96792 -401.71367 227.9266 -401.6683 227.885 -401.62312 L 221.89077 -395.1151 C 221.26303 -394.43356 220.57728 -393.80783 219.84125 -393.245 L 214.81707 -389.40297 C 214.37093 -389.0618 213.90712 -388.74435 213.4276 -388.45195 L 206.94119 -384.49683 C 206.27953 -384.0934 205.58943 -383.73853 204.87635 -383.4351 L 197.76094 -380.40726 C 196.95327 -380.06357 196.1187 -379.78693 195.26566 -379.58013 L 191.1866 -378.59127 C 190.36177 -378.3913 189.52233 -378.2573 188.67624 -378.1905 L 182.97603 -377.7405 C 182.5571 -377.7074 182.13702 -377.69086 181.7168 -377.69086 L 174.68447 -377.69086 C 173.92737 -377.69086 173.17122 -377.7446 172.42173 -377.85166 L 164.47528 -378.98687 C 163.99027 -379.05616 163.5087 -379.1477 163.0321 -379.26116 L 157.07087 -380.6805 C 155.92538 -380.95324 154.8135 -381.3516 153.75543 -381.8683 L 147.47543 -384.9353 C 146.99038 -385.1722 146.51763 -385.43346 146.05899 -385.71814 L 141.84712 -388.3324 C 141.24795 -388.7043 140.67403 -389.1154 140.1291 -389.563 L 135.683 -393.2152 C 135.4593 -393.39893 135.24063 -393.5887 135.02723 -393.78433 L 131.22489 -397.2698 C 130.77359 -397.6835 130.34641 -398.12275 129.94546 -398.5854 L 125.82671 -403.3378 C 125.50733 -403.7063 125.20496 -404.08923 124.92056 -404.48537 L 120.4909 -410.65525 C 119.99601 -411.34456 119.55674 -412.07215 119.17725 -412.83114 L 117.25249 -416.68065 C 116.78482 -417.616 116.18583 -418.47965 115.4737 -419.24543 L 115.46365 -419.25624 C 114.77095 -420.0011 114.32108 -420.939 114.1737 -421.94543 L 114.1737 -421.94543 C 114.02335 -422.9721 113.99485 -424.01297 114.0888 -425.04635 L 114.3989 -428.45747 C 114.4227 -428.71933 114.22972 -428.9509 113.96786 -428.9747 C 113.80546 -428.9895 113.64681 -428.9201 113.54739 -428.79086 L 113.54739 -428.79086 C 112.88394 -427.9284 112.10383 -427.1623 111.22945 -426.5146 L 107.33292 -423.6283 C 107.20924 -423.53667 107.08424 -423.44684 106.95796 -423.35883 L 102.33571 -420.13726 C 101.14898 -419.31015 99.85556 -418.6478 98.4908 -418.16827 L 93.88368 -416.54955 C 93.39311 -416.3772 92.91123 -416.181 92.43976 -415.96173 L 85.59298 -412.7772 C 84.89682 -412.4534 84.17826 -412.1801 83.44286 -411.9595 L 72.57247 -408.6984 C 72.55575 -408.69336 72.53903 -408.6883 72.52233 -408.68325 L 61.55424 -405.35365 C 61.41634 -405.3118 61.27902 -405.26807 61.1423 -405.2225 L 48.22107 -400.9154 C 48.171946 -400.89904 48.122746 -400.8829 48.07347 -400.867 L 36.70606 -397.2001 C 36.067576 -396.99414 35.442677 -396.74823 34.835064 -396.4638 L 26.9031 -392.751 C 26.53276 -392.57763 26.1692 -392.39014 25.813224 -392.18894 L 19.86711 -388.8281 C 18.614076 -388.11985 18.17243 -386.52993 18.880667 -385.2769 C 18.957785 -385.14046 19.047052 -385.01125 19.147385 -384.89086 L 20.011496 -383.8539 C 20.76644 -382.948 21.418917 -381.96137 21.957035 -380.91204 L 25.034173 -374.9116 C 25.109643 -374.76445 25.18739 -374.61846 25.267387 -374.4737 L 29.22214 -367.3175 C 29.30563 -367.1664 29.386672 -367.014 29.46523 -366.8603 L 33.573535 -358.8223 C 33.822604 -358.335 34.046507 -357.83522 34.24436 -357.32497 L 37.72713 -348.3431 C 37.740633 -348.30827 37.75426 -348.2735 37.768005 -348.23876 L 41.36433 -339.1533 C 41.486337 -338.8451 41.598736 -338.53313 41.701365 -338.2179 L 44.3232 -330.16514 C 44.339323 -330.1156 44.355205 -330.066 44.370844 -330.01634 L 47.44289 -320.25807 C 47.645684 -319.6139 47.80749 -318.95755 47.927337 -318.29294 L 49.91265 -307.2835 C 49.935806 -307.15507 49.95739 -307.02638 49.9774 -306.89743 L 51.68327 -295.90405 C 51.726006 -295.62863 51.76154 -295.35215 51.78983 -295.07487 L 52.67725 -286.37816 C 52.723986 -285.92017 52.75093 -285.46038 52.75801 -285.00006 L 52.942253 -273.02444 C 52.945674 -272.80207 52.95373 -272.5798 52.96642 -272.35777 L 53.736794 -258.8762 C 53.743855 -258.75264 53.75235 -258.62916 53.762275 -258.5058 L 55.095845 -241.93142 C 55.13019 -241.50455 55.147385 -241.07647 55.147385 -240.6482 L 55.147385 -228.19843 C 55.147385 -227.9934 55.151326 -227.78838 55.159207 -227.5835 L 55.73956 -212.49436 C 55.744776 -212.3587 55.74827 -212.22297 55.75003 -212.0872 L 55.94219 -197.29095 C 55.94565 -197.02426 55.94245 -196.75752 55.932576 -196.491 L 55.35835 -180.98684 C 55.35104 -180.78953 55.347385 -180.5921 55.347385 -180.39466 L 55.347385 -166.79843 C 55.347385 -166.5934 55.343444 -166.38838 55.335564 -166.1835 L 54.75037 -150.9685 C 54.74838 -150.91673 54.74614 -150.86498 54.743645 -150.81324 L 53.94832 -134.3103 C 53.9477 -134.29734 53.94706 -134.28437 53.9464 -134.2714 L 53.15191 -118.58024 C 53.148894 -118.52065 53.145543 -118.46107 53.14186 -118.40152 L 51.95295 -99.18079 C 51.94924 -99.12083 51.945193 -99.06089 51.94081 -99.00098 L 50.15767 -74.63143 C 50.150814 -74.53771 50.14313 -74.444056 50.134623 -74.35047 L 48.34873 -54.70566 C 48.347834 -54.695786 48.34693 -54.685915 48.34601 -54.676044 L 46.575247 -35.59114 C 46.556674 -35.390964 46.53433 -35.191157 46.508227 -34.991825 L 44.547514 -20.019106 C 44.414703 -19.004912 44.14556 -18.013294 43.747385 -17.071124 L 43.747385 -17.071124 C 43.34981 -16.130378 43.10114 -15.133462 43.010317 -14.116201 L 42.247385 -5.571124 C 41.73963 .1159052 45.698094 5.234269 51.33006 6.17293 Z" fill="red"/>
        <path d="M 51.33006 6.17293 L 65.0723 8.463303 C 65.25568 8.493866 65.43957 8.52123 65.6239 8.545384 L 93.97754 12.260689 C 94.22407 12.292992 94.47132 12.319545 94.71908 12.340326 L 124.96197 14.876826 C 125.21888 14.898373 125.47627 14.913707 125.73391 14.922816 L 164.66482 16.299161 C 164.85318 16.30582 165.04165 16.30915 165.23013 16.30915 L 196.69745 16.30915 C 196.86406 16.30915 197.03067 16.306548 197.1972 16.301344 L 222.232 15.519007 C 222.44224 15.512437 222.65233 15.501721 222.86215 15.486867 L 244.9099 13.925964 C 245.06822 13.914756 245.22636 13.901193 245.38427 13.88528 L 270.64475 11.339649 C 270.8465 11.319319 271.04783 11.295155 271.24865 11.267172 L 295.04134 7.951796 C 295.24535 7.923369 295.4488 7.891004 295.65156 7.85472 L 304.8474 6.209151 C 310.1745 5.2558794 313.82536 .30223347 313.15895 -5.068302 L 310.95136 -22.858874 C 310.9487 -22.88019 310.9461 -22.901514 310.94355 -22.92284 L 307.37973 -52.62137 C 307.35817 -52.80101 307.33966 -52.981004 307.3242 -53.161274 L 304.962 -80.72048 C 304.95226 -80.83406 304.94374 -80.94773 304.93643 -81.06149 L 303.5498 -102.65313 C 303.5482 -102.67828 303.54652 -102.70342 303.5448 -102.72856 L 301.95263 -125.81487 C 301.94914 -125.86552 301.9459 -125.9162 301.94287 -125.96688 L 300.7665 -145.76905 C 300.75376 -145.98356 300.74534 -146.19831 300.74125 -146.41316 L 300.34897 -167.008 C 300.3479 -167.06323 300.34658 -167.11846 300.34495 -167.17368 L 299.74983 -187.40802 C 299.7482 -187.46324 299.74686 -187.51847 299.7458 -187.5737 L 299.35515 -208.08324 C 299.34998 -208.35494 299.35173 -208.62672 299.3604 -208.89833 L 299.94634 -227.25794 C 299.94704 -227.27988 299.9478 -227.30182 299.94857 -227.32376 L 300.73666 -249.19307 C 300.7438 -249.39158 300.75466 -249.58993 300.7692 -249.78803 L 302.32668 -271.00865 C 302.3405 -271.19677 302.35096 -271.38512 302.3581 -271.5736 L 303.11256 -291.4725 C 303.13576 -292.08423 303.19404 -292.69414 303.28713 -293.2992 L 306.02613 -311.10272 C 306.1069 -311.62782 306.2138 -312.14857 306.3464 -312.66303 L 310.97466 -330.6207 C 311.08976 -331.06725 311.2241 -331.50864 311.37734 -331.9436 L 317.09812 -348.18325 C 317.2642 -348.65473 317.4523 -349.11816 317.66178 -349.57203 L 323.19333 -361.55707 C 323.29602 -361.77956 323.4038 -361.99967 323.5166 -362.2172 L 328.2747 -371.39353 C 328.72223 -372.2566 329.2475 -373.0771 329.84397 -373.84485 L 337.2371 -383.36063 C 337.8695 -384.1746 338.29395 -385.13046 338.4737 -386.14543 L 338.4737 -386.14543 C 338.63697 -387.0674 338.18926 -387.98985 337.36393 -388.432 L 333.4754 -390.51513 C 333.25676 -390.63226 333.0354 -390.7443 332.81155 -390.85114 L 324.95757 -394.59963 C 324.55096 -394.7937 324.13634 -394.9705 323.7148 -395.12956 L 314.03998 -398.78044 C 313.84494 -398.85404 313.64848 -398.92383 313.4507 -398.98975 L 300.75623 -403.22124 C 300.617 -403.26765 300.47716 -403.31214 300.3367 -403.3547 L 287.4532 -407.2588 C 287.38266 -407.28017 287.31227 -407.30203 287.24205 -407.32437 L 274.73805 -411.3029 C 274.34442 -411.42816 273.9558 -411.5686 273.57304 -411.72393 L 261.5971 -416.58373 C 260.76543 -416.9212 259.96364 -417.3281 259.2002 -417.8 L 249.58096 -423.74647 C 249.42526 -423.8427 249.27122 -423.94164 249.1189 -424.0432 L 244.2288 -427.30324 C 243.24742 -427.9575 242.3761 -428.7634 241.6474 -429.69086 L 241.6474 -429.69086 C 241.54178 -429.82526 241.34722 -429.8486 241.21282 -429.743 C 241.11007 -429.6623 241.0691 -429.52573 241.11042 -429.40177 L 241.2474 -428.99086 C 241.70664 -427.6131 241.8112 -426.1418 241.5514 -424.71297 L 241.15627 -422.5397 C 240.88506 -421.04804 240.4032 -419.6025 239.72519 -418.24645 L 238.19287 -415.1818 C 237.89617 -414.5884 237.56285 -414.01405 237.19484 -413.46203 L 233.99113 -408.65647 C 233.56253 -408.01357 233.08792 -407.40256 232.57104 -406.82824 L 228.009 -401.7593 C 227.96792 -401.71367 227.9266 -401.6683 227.885 -401.62312 L 221.89077 -395.1151 C 221.26303 -394.43356 220.57728 -393.80783 219.84125 -393.245 L 214.81707 -389.40297 C 214.37093 -389.0618 213.90712 -388.74435 213.4276 -388.45195 L 206.94119 -384.49683 C 206.27953 -384.0934 205.58943 -383.73853 204.87635 -383.4351 L 197.76094 -380.40726 C 196.95327 -380.06357 196.1187 -379.78693 195.26566 -379.58013 L 191.1866 -378.59127 C 190.36177 -378.3913 189.52233 -378.2573 188.67624 -378.1905 L 182.97603 -377.7405 C 182.5571 -377.7074 182.13702 -377.69086 181.7168 -377.69086 L 174.68447 -377.69086 C 173.92737 -377.69086 173.17122 -377.7446 172.42173 -377.85166 L 164.47528 -378.98687 C 163.99027 -379.05616 163.5087 -379.1477 163.0321 -379.26116 L 157.07087 -380.6805 C 155.92538 -380.95324 154.8135 -381.3516 153.75543 -381.8683 L 147.47543 -384.9353 C 146.99038 -385.1722 146.51763 -385.43346 146.05899 -385.71814 L 141.84712 -388.3324 C 141.24795 -388.7043 140.67403 -389.1154 140.1291 -389.563 L 135.683 -393.2152 C 135.4593 -393.39893 135.24063 -393.5887 135.02723 -393.78433 L 131.22489 -397.2698 C 130.77359 -397.6835 130.34641 -398.12275 129.94546 -398.5854 L 125.82671 -403.3378 C 125.50733 -403.7063 125.20496 -404.08923 124.92056 -404.48537 L 120.4909 -410.65525 C 119.99601 -411.34456 119.55674 -412.07215 119.17725 -412.83114 L 117.25249 -416.68065 C 116.78482 -417.616 116.18583 -418.47965 115.4737 -419.24543 L 115.46365 -419.25624 C 114.77095 -420.0011 114.32108 -420.939 114.1737 -421.94543 L 114.1737 -421.94543 C 114.02335 -422.9721 113.99485 -424.01297 114.0888 -425.04635 L 114.3989 -428.45747 C 114.4227 -428.71933 114.22972 -428.9509 113.96786 -428.9747 C 113.80546 -428.9895 113.64681 -428.9201 113.54739 -428.79086 L 113.54739 -428.79086 C 112.88394 -427.9284 112.10383 -427.1623 111.22945 -426.5146 L 107.33292 -423.6283 C 107.20924 -423.53667 107.08424 -423.44684 106.95796 -423.35883 L 102.33571 -420.13726 C 101.14898 -419.31015 99.85556 -418.6478 98.4908 -418.16827 L 93.88368 -416.54955 C 93.39311 -416.3772 92.91123 -416.181 92.43976 -415.96173 L 85.59298 -412.7772 C 84.89682 -412.4534 84.17826 -412.1801 83.44286 -411.9595 L 72.57247 -408.6984 C 72.55575 -408.69336 72.53903 -408.6883 72.52233 -408.68325 L 61.55424 -405.35365 C 61.41634 -405.3118 61.27902 -405.26807 61.1423 -405.2225 L 48.22107 -400.9154 C 48.171946 -400.89904 48.122746 -400.8829 48.07347 -400.867 L 36.70606 -397.2001 C 36.067576 -396.99414 35.442677 -396.74823 34.835064 -396.4638 L 26.9031 -392.751 C 26.53276 -392.57763 26.1692 -392.39014 25.813224 -392.18894 L 19.86711 -388.8281 C 18.614076 -388.11985 18.17243 -386.52993 18.880667 -385.2769 C 18.957785 -385.14046 19.047052 -385.01125 19.147385 -384.89086 L 20.011496 -383.8539 C 20.76644 -382.948 21.418917 -381.96137 21.957035 -380.91204 L 25.034173 -374.9116 C 25.109643 -374.76445 25.18739 -374.61846 25.267387 -374.4737 L 29.22214 -367.3175 C 29.30563 -367.1664 29.386672 -367.014 29.46523 -366.8603 L 33.573535 -358.8223 C 33.822604 -358.335 34.046507 -357.83522 34.24436 -357.32497 L 37.72713 -348.3431 C 37.740633 -348.30827 37.75426 -348.2735 37.768005 -348.23876 L 41.36433 -339.1533 C 41.486337 -338.8451 41.598736 -338.53313 41.701365 -338.2179 L 44.3232 -330.16514 C 44.339323 -330.1156 44.355205 -330.066 44.370844 -330.01634 L 47.44289 -320.25807 C 47.645684 -319.6139 47.80749 -318.95755 47.927337 -318.29294 L 49.91265 -307.2835 C 49.935806 -307.15507 49.95739 -307.02638 49.9774 -306.89743 L 51.68327 -295.90405 C 51.726006 -295.62863 51.76154 -295.35215 51.78983 -295.07487 L 52.67725 -286.37816 C 52.723986 -285.92017 52.75093 -285.46038 52.75801 -285.00006 L 52.942253 -273.02444 C 52.945674 -272.80207 52.95373 -272.5798 52.96642 -272.35777 L 53.736794 -258.8762 C 53.743855 -258.75264 53.75235 -258.62916 53.762275 -258.5058 L 55.095845 -241.93142 C 55.13019 -241.50455 55.147385 -241.07647 55.147385 -240.6482 L 55.147385 -228.19843 C 55.147385 -227.9934 55.151326 -227.78838 55.159207 -227.5835 L 55.73956 -212.49436 C 55.744776 -212.3587 55.74827 -212.22297 55.75003 -212.0872 L 55.94219 -197.29095 C 55.94565 -197.02426 55.94245 -196.75752 55.932576 -196.491 L 55.35835 -180.98684 C 55.35104 -180.78953 55.347385 -180.5921 55.347385 -180.39466 L 55.347385 -166.79843 C 55.347385 -166.5934 55.343444 -166.38838 55.335564 -166.1835 L 54.75037 -150.9685 C 54.74838 -150.91673 54.74614 -150.86498 54.743645 -150.81324 L 53.94832 -134.3103 C 53.9477 -134.29734 53.94706 -134.28437 53.9464 -134.2714 L 53.15191 -118.58024 C 53.148894 -118.52065 53.145543 -118.46107 53.14186 -118.40152 L 51.95295 -99.18079 C 51.94924 -99.12083 51.945193 -99.06089 51.94081 -99.00098 L 50.15767 -74.63143 C 50.150814 -74.53771 50.14313 -74.444056 50.134623 -74.35047 L 48.34873 -54.70566 C 48.347834 -54.695786 48.34693 -54.685915 48.34601 -54.676044 L 46.575247 -35.59114 C 46.556674 -35.390964 46.53433 -35.191157 46.508227 -34.991825 L 44.547514 -20.019106 C 44.414703 -19.004912 44.14556 -18.013294 43.747385 -17.071124 L 43.747385 -17.071124 C 43.34981 -16.130378 43.10114 -15.133462 43.010317 -14.116201 L 42.247385 -5.571124 C 41.73963 .1159052 45.698094 5.234269 51.33006 6.17293 Z" stroke="#606276" stroke-linecap="round" stroke-linejoin="round" stroke-width="1"/>
      </g>
      <g id="Graphic_19">
        <path d="M -36 -280.55385 L -29.8 -276.15385 L -21.6 -272.15385 L -13 -268.55385 L -3.9999995 -264.75385 L 7.000001 -260.75385 L 16.4 -257.95385 L 25.4 -255.35385 L 34.4 -252.75385 L 39.8 -251.35385 L 45.4 -250.35385 L 47.8 -256.15385 L 50.4 -261.55385 L 52.6 -265.55385 L 55.2 -268.95385 L 55.4 -277.95385 L 54.8 -288.95385 L 53 -299.75385 L 51.4 -310.15385 L 48.8 -321.15386 L 46.4 -330.75386 L 43.6 -338.75386 L 40.4 -348.15386 L 37.6 -355.55386 L 34 -363.15386 L 30 -370.75386 L 26 -378.15386 L 23.4 -381.75386 L 19.8 -387.55386 L 14.4 -383.15386 L 9.600001 -378.35386 L 5.0000006 -372.15386 L .60000055 -365.95386 L -4.1999995 -357.35386 L -9 -347.95386 L -13.8 -338.75386 L -17.4 -330.15386 L -21.4 -321.15386 L -24.6 -312.95385 L -28.4 -303.55385 L -31.2 -295.55385 L -34.2 -287.15385 Z" fill="red"/>
        <path d="M -36 -280.55385 L -29.8 -276.15385 L -21.6 -272.15385 L -13 -268.55385 L -3.9999995 -264.75385 L 7.000001 -260.75385 L 16.4 -257.95385 L 25.4 -255.35385 L 34.4 -252.75385 L 39.8 -251.35385 L 45.4 -250.35385 L 47.8 -256.15385 L 50.4 -261.55385 L 52.6 -265.55385 L 55.2 -268.95385 L 55.4 -277.95385 L 54.8 -288.95385 L 53 -299.75385 L 51.4 -310.15385 L 48.8 -321.15386 L 46.4 -330.75386 L 43.6 -338.75386 L 40.4 -348.15386 L 37.6 -355.55386 L 34 -363.15386 L 30 -370.75386 L 26 -378.15386 L 23.4 -381.75386 L 19.8 -387.55386 L 14.4 -383.15386 L 9.600001 -378.35386 L 5.0000006 -372.15386 L .60000055 -365.95386 L -4.1999995 -357.35386 L -9 -347.95386 L -13.8 -338.75386 L -17.4 -330.15386 L -21.4 -321.15386 L -24.6 -312.95385 L -28.4 -303.55385 L -31.2 -295.55385 L -34.2 -287.15385 Z" stroke="#606276" stroke-linecap="round" stroke-linejoin="round" stroke-width="1"/>
      </g>
      <g id="Graphic_18">
        <path d="M 395.4053 -281.49725 L 389.2053 -277.09725 L 381.0053 -273.09725 L 372.4053 -269.49725 L 363.4053 -265.69725 L 352.4053 -261.69725 L 343.0053 -258.89725 L 334.0053 -256.29725 L 325.0053 -253.69725 L 319.6053 -252.29725 L 314.0053 -251.29725 L 311.6053 -257.09725 L 309.0053 -262.49725 L 306.8053 -266.49725 L 302.2 -273.6 L 302.4 -280.6 L 304 -291.4 L 305 -302.4 L 307.4 -313.4 L 309.8 -323.8 L 312.8 -333.2 L 315.6 -342 L 318.4 -349.6 L 321.8053 -356.49725 L 325.4053 -364.09725 L 329.4053 -371.69725 L 333.4053 -379.09725 L 336.0053 -382.69725 L 339.6053 -388.49725 L 345.0053 -384.09725 L 349.8053 -379.29725 L 354.4053 -373.09725 L 358.8053 -366.89725 L 363.6053 -358.29725 L 368.4053 -348.89725 L 373.2053 -339.69725 L 376.8053 -331.09725 L 380.8053 -322.09725 L 384.0053 -313.89725 L 387.8053 -304.49725 L 390.6053 -296.49725 L 393.6053 -288.09725 Z" fill="red"/>
        <path d="M 395.4053 -281.49725 L 389.2053 -277.09725 L 381.0053 -273.09725 L 372.4053 -269.49725 L 363.4053 -265.69725 L 352.4053 -261.69725 L 343.0053 -258.89725 L 334.0053 -256.29725 L 325.0053 -253.69725 L 319.6053 -252.29725 L 314.0053 -251.29725 L 311.6053 -257.09725 L 309.0053 -262.49725 L 306.8053 -266.49725 L 302.2 -273.6 L 302.4 -280.6 L 304 -291.4 L 305 -302.4 L 307.4 -313.4 L 309.8 -323.8 L 312.8 -333.2 L 315.6 -342 L 318.4 -349.6 L 321.8053 -356.49725 L 325.4053 -364.09725 L 329.4053 -371.69725 L 333.4053 -379.09725 L 336.0053 -382.69725 L 339.6053 -388.49725 L 345.0053 -384.09725 L 349.8053 -379.29725 L 354.4053 -373.09725 L 358.8053 -366.89725 L 363.6053 -358.29725 L 368.4053 -348.89725 L 373.2053 -339.69725 L 376.8053 -331.09725 L 380.8053 -322.09725 L 384.0053 -313.89725 L 387.8053 -304.49725 L 390.6053 -296.49725 L 393.6053 -288.09725 Z" stroke="#606276" stroke-linecap="round" stroke-linejoin="round" stroke-width="1"/>
      </g>
      <g id="Graphic_11">
        <path d="M 196 16 L 208 15.8 L 205 -383.5 L 196 -381.362 Z" fill="white"/>
        <path d="M 195.9482 16.00086 L 208.1044 15.798834 M 208.03182 15.879713 L 204.95466 -383.60563 M 205.03273 -383.5549 L 195.8342 -381.38322 M 195.9541 -381.5099 L 196 16.057912 M 195.96357 15.96975 L 208.0468 15.781903 M 208.03842 15.864157 L 204.9588 -383.55214 M 205.05166 -383.55653 L 195.97198 -381.41766 M 195.9809 -381.52555 L 196.01907 15.984375" stroke="#606276" stroke-linecap="round" stroke-linejoin="round" stroke-width=".25"/>
      </g>
      <g id="Graphic_10">
        <path d="M 151 15.6 L 160 16 L 160 -380.31258 L 150.8 -383.5 Z" fill="white"/>
        <path d="M 150.92376 15.596318 L 160.12157 16.04056 M 160.04737 16.12821 L 160.01826 -380.3798 M 160.13268 -380.26177 L 150.77828 -383.54287 M 150.82907 -383.6149 L 151.00002 15.642328 M 150.93978 15.572489 L 160.0637 16.006595 M 160.04804 16.112587 L 160.0253 -380.3175 M 160.14548 -380.26936 L 150.83965 -383.52616 M 150.85497 -383.63053 L 151.0175 15.584374" stroke="#606276" stroke-linecap="round" stroke-linejoin="round" stroke-width=".25"/>
      </g>
      <g id="Graphic_9">
        <path d="M 110.6 13.8 L 122.4 15 L 119.8 -411.73547 L 115 -426.2 L 113.2 -428.6 L 110.4 -425.4 Z" fill="white"/>
        <path d="M 110.49963 13.790177 L 122.41355 14.956247 M 122.33913 15.051704 L 119.75582 -411.7643 M 119.77792 -411.6119 L 114.95465 -426.2749 M 115.051 -426.10385 L 113.14662 -428.665 M 113.22959 -428.61657 L 110.40222 -425.36665 M 110.44312 -425.5258 L 110.60002 13.86373 M 110.51535 13.773616 L 122.35524 14.921933 M 122.34951 15.036111 L 119.76681 -411.6931 M 119.79106 -411.6267 L 114.98964 -426.2145 M 115.0664 -426.1193 L 113.21947 -428.6028 M 113.24568 -428.6318 L 110.45892 -425.4292 M 110.46766 -425.5414 L 110.617 13.784375" stroke="#606276" stroke-linecap="round" stroke-linejoin="round" stroke-width=".25"/>
      </g>
      <g id="Graphic_8">
        <path d="M 234.6 14.6 L 244.8 13.8 L 242.6 -419.6 L 234.8 -409.49854 Z" fill="white"/>
        <path d="M 234.56849 14.602527 L 244.83093 13.779714 M 244.75522 13.9002 L 242.61895 -419.71543 M 242.68667 -419.7076 L 234.7917 -409.393 M 234.85415 -409.54737 L 234.59994 14.704909 M 234.58337 14.57764 L 244.76964 13.762205 M 244.75968 13.88463 L 242.63332 -419.63536 M 242.7121 -419.7157 L 234.87844 -409.4835 M 234.87825 -409.563 L 234.62996 14.584384" stroke="#606276" stroke-linecap="round" stroke-linejoin="round" stroke-width=".25"/>
      </g>
      <g id="Graphic_7">
        <path d="M 271.4 11 L 282.6 9.4 L 280.6 -409.3133 L 271 -413.4 Z" fill="white"/>
        <path d="M 271.3444 11.007849 L 282.64767 9.411903 M 282.57096 9.454947 L 280.557 -409.3903 M 280.6113 -409.26285 L 270.97342 -413.3646 M 271.00404 -413.4158 L 271.4001 11.089325 M 271.35976 10.990226 L 282.5858 9.402526 M 282.58513 9.439329 L 280.5592 -409.3013 M 280.62438 -409.2725 L 271.01935 -413.36627 M 271.02725 -413.43143 L 271.4284 10.984363" stroke="#606276" stroke-linecap="round" stroke-linejoin="round" stroke-width=".25"/>
      </g>
      <g id="Graphic_6">
        <path d="M 69.8 9.2 L 78.8 10 L 78.5 -410.5 L 70.5 -408.4468 Z" fill="white"/>
        <path d="M 69.71971 9.192319 L 78.86533 10.067177 M 78.78698 10.103443 L 78.5205 -410.6636 M 78.617515 -410.5748 L 70.39812 -408.4846 M 70.45418 -408.55457 L 69.799886 9.27374 M 69.73632 9.166373 L 78.8027 10.042786 M 78.79523 10.087823 L 78.525705 -410.56577 M 78.63328 -410.58987 L 70.471336 -408.5081 M 70.47649 -408.5702 L 69.82681 9.184393" stroke="#606276" stroke-linecap="round" stroke-linejoin="round" stroke-width=".25"/>
      </g>
      <g id="Graphic_21">
        <path d="M 117.00565 -431.40955 L 125.1711 -428.29184 C 126.0291 -427.96424 126.90594 -427.68833 127.79692 -427.4656 L 141.5141 -424.0363 C 142.67576 -423.74587 143.85832 -423.5466 145.051 -423.44034 L 162.57715 -421.8786 C 163.165 -421.8262 163.75464 -421.7965 164.34478 -421.78946 L 179.8237 -421.6052 C 180.11404 -421.60173 180.40442 -421.60377 180.69469 -421.6113 L 195.118 -421.98594 C 195.47878 -421.9953 195.8393 -422.01317 196.19924 -422.0395 L 210.57053 -423.09107 C 211.56197 -423.1636 212.54766 -423.30036 213.5214 -423.50044 L 225.09436 -425.87845 C 226.13637 -426.09256 227.16226 -426.3787 228.16465 -426.7348 L 239.91664 -430.90986 C 241.00702 -431.29723 242.21021 -430.76646 242.65925 -429.7 L 242.65925 -429.7 C 243.1814 -428.4599 243.33338 -427.09515 243.09685 -425.77055 L 242.91637 -424.75986 C 242.6126 -423.0587 242.11806 -421.3972 241.44214 -419.8068 L 239.89892 -416.1757 C 239.34035 -414.8614 238.6606 -413.60202 237.86846 -412.4138 L 234.18268 -406.88515 C 233.43517 -405.7639 232.59057 -404.7105 231.6586 -403.7371 L 225.36354 -397.16226 C 224.49547 -396.2556 223.55463 -395.42154 222.55046 -394.6684 L 214.17555 -388.38723 C 213.29914 -387.7299 212.37688 -387.13606 211.41582 -386.6102 L 204.23062 -382.67867 C 202.9195 -381.96126 201.54156 -381.37336 200.11638 -380.9233 L 193.44347 -378.81607 C 191.7266 -378.2739 189.952 -377.9352 188.15613 -377.8069 L 181.26968 -377.31503 C 180.19738 -377.23844 179.12103 -377.2371 178.04854 -377.3111 L 169.61229 -377.8929 C 168.57811 -377.9642 167.54994 -378.10537 166.5348 -378.3154 L 159.3996 -379.79165 C 157.44765 -380.1955 155.55647 -380.8514 153.77362 -381.7428 L 149.1142 -384.0725 C 147.88007 -384.6896 146.70397 -385.41646 145.60012 -386.24434 L 139.91816 -390.5058 C 139.47903 -390.83517 139.05182 -391.18013 138.63737 -391.54005 L 132.88219 -396.53797 C 132.0679 -397.2451 131.30436 -398.00865 130.59722 -398.82294 L 126.192 -403.89562 C 125.43789 -404.764 124.74998 -405.6877 124.13406 -406.65895 L 120.40036 -412.5467 C 120.03979 -413.1153 119.70437 -413.69944 119.39505 -414.29745 L 117.77468 -417.43017 C 117.16553 -418.60785 116.65936 -419.836 116.26183 -421.1009 L 114.98159 -425.1744 C 114.76681 -425.85775 114.58408 -426.5508 114.43399 -427.2512 L 114.35925 -427.6 C 114.16458 -428.50843 114.27185 -429.45557 114.66473 -430.29746 L 114.75925 -430.5 C 115.15372 -431.3453 116.1342 -431.7423 117.00565 -431.40955 Z" fill="url(#Obj_Gradient)"/>
        <path d="M 117.00565 -431.40955 L 125.1711 -428.29184 C 126.0291 -427.96424 126.90594 -427.68833 127.79692 -427.4656 L 141.5141 -424.0363 C 142.67576 -423.74587 143.85832 -423.5466 145.051 -423.44034 L 162.57715 -421.8786 C 163.165 -421.8262 163.75464 -421.7965 164.34478 -421.78946 L 179.8237 -421.6052 C 180.11404 -421.60173 180.40442 -421.60377 180.69469 -421.6113 L 195.118 -421.98594 C 195.47878 -421.9953 195.8393 -422.01317 196.19924 -422.0395 L 210.57053 -423.09107 C 211.56197 -423.1636 212.54766 -423.30036 213.5214 -423.50044 L 225.09436 -425.87845 C 226.13637 -426.09256 227.16226 -426.3787 228.16465 -426.7348 L 239.91664 -430.90986 C 241.00702 -431.29723 242.21021 -430.76646 242.65925 -429.7 L 242.65925 -429.7 C 243.1814 -428.4599 243.33338 -427.09515 243.09685 -425.77055 L 242.91637 -424.75986 C 242.6126 -423.0587 242.11806 -421.3972 241.44214 -419.8068 L 239.89892 -416.1757 C 239.34035 -414.8614 238.6606 -413.60202 237.86846 -412.4138 L 234.18268 -406.88515 C 233.43517 -405.7639 232.59057 -404.7105 231.6586 -403.7371 L 225.36354 -397.16226 C 224.49547 -396.2556 223.55463 -395.42154 222.55046 -394.6684 L 214.17555 -388.38723 C 213.29914 -387.7299 212.37688 -387.13606 211.41582 -386.6102 L 204.23062 -382.67867 C 202.9195 -381.96126 201.54156 -381.37336 200.11638 -380.9233 L 193.44347 -378.81607 C 191.7266 -378.2739 189.952 -377.9352 188.15613 -377.8069 L 181.26968 -377.31503 C 180.19738 -377.23844 179.12103 -377.2371 178.04854 -377.3111 L 169.61229 -377.8929 C 168.57811 -377.9642 167.54994 -378.10537 166.5348 -378.3154 L 159.3996 -379.79165 C 157.44765 -380.1955 155.55647 -380.8514 153.77362 -381.7428 L 149.1142 -384.0725 C 147.88007 -384.6896 146.70397 -385.41646 145.60012 -386.24434 L 139.91816 -390.5058 C 139.47903 -390.83517 139.05182 -391.18013 138.63737 -391.54005 L 132.88219 -396.53797 C 132.0679 -397.2451 131.30436 -398.00865 130.59722 -398.82294 L 126.192 -403.89562 C 125.43789 -404.764 124.74998 -405.6877 124.13406 -406.65895 L 120.40036 -412.5467 C 120.03979 -413.1153 119.70437 -413.69944 119.39505 -414.29745 L 117.77468 -417.43017 C 117.16553 -418.60785 116.65936 -419.836 116.26183 -421.1009 L 114.98159 -425.1744 C 114.76681 -425.85775 114.58408 -426.5508 114.43399 -427.2512 L 114.35925 -427.6 C 114.16458 -428.50843 114.27185 -429.45557 114.66473 -430.29746 L 114.75925 -430.5 C 115.15372 -431.3453 116.1342 -431.7423 117.00565 -431.40955 Z" stroke="#7f8080" stroke-linecap="round" stroke-linejoin="round" stroke-width="1"/>
      </g>
      <g id="Graphic_22">
        <path d="M 316.987 -346.361 L 353.187 -267.36097 L 362.987 -271.16097 L 321.987 -356.161 Z" fill="white"/>
        <path d="M 316.96062 -346.41856 L 353.19097 -267.33665 M 353.12255 -267.37538 L 363.0589 -271.24135 M 363.038 -271.13574 L 321.9728 -356.1431 M 322.03613 -356.19268 L 316.9679 -346.32376 M 316.97783 -346.4349 L 353.1888 -267.41123 M 353.13584 -267.397 L 363.01293 -271.2361 M 363.0527 -271.15092 L 321.9973 -356.11615 M 322.0566 -356.20582 L 317.0072 -346.37424" stroke="#606276" stroke-linecap="round" stroke-linejoin="round" stroke-width=".25"/>
      </g>
      <g id="Graphic_29">
        <path d="M 315.8 -344.6 L 353.567 -266.98097 L 355 -263 L 360.2 -264.8 L 362.4 -265.6 L 364.8 -266.6 L 363.367 -270.78097 L 322 -356 Z" fill="white"/>
        <path d="M 315.76535 -344.6712 L 353.5808 -266.9727 M 353.53824 -267.07627 L 354.9764 -262.9217 M 354.8678 -262.9867 L 360.23487 -264.8096 M 360.1253 -264.77163 L 362.49286 -265.60808 M 362.30687 -265.53436 L 364.83964 -266.70027 M 364.78797 -266.55946 L 363.3016 -270.90133 M 363.39037 -270.68564 L 321.98512 -356.0796 M 322.03914 -356.038 L 315.76886 -344.5429 M 315.7862 -344.68936 L 353.57382 -267.03656 M 353.56507 -267.09578 L 354.97113 -263.03218 M 354.8799 -263.01272 L 360.19402 -264.80865 M 360.1407 -264.7878 L 362.39374 -265.59454 M 362.31823 -265.55926 L 364.76383 -266.6874 M 364.7921 -266.57116 L 363.3507 -270.80462 M 363.40007 -270.6984 L 322.02314 -356.01412 M 322.05857 -356.05153 L 315.82676 -344.60956" stroke="#606276" stroke-linecap="round" stroke-linejoin="round" stroke-width=".25"/>
      </g>
      <g id="Graphic_28">
        <path d="M 303.2 -291.8 L 302.6 -281 L 302.4 -273.4 L 307.2 -266.4 L 309 -262.8 L 312.8 -255 L 314.2 -251.6 L 318.6 -252.4 L 325 -254 L 325.00326 -255.2 L 320 -266.6 L 316.2 -274 L 311.6 -280.4 L 308.4 -285.4 Z" fill="white"/>
        <path d="M 303.2057 -291.90355 L 302.6037 -280.94842 M 302.6085 -281.07316 L 302.40517 -273.26024 M 302.33793 -273.46664 L 307.30156 -266.29776 M 307.23625 -266.4037 L 309.0025 -262.70863 M 308.9347 -262.84782 L 312.87014 -254.90797 M 312.799 -255.0673 L 314.2439 -251.47748 M 314.07848 -251.56217 L 318.70085 -252.37066 M 318.57838 -252.34634 L 325.06243 -254.07672 M 324.95402 -253.9752 L 325.05775 -255.2194 M 325.08794 -255.11378 L 319.89677 -266.72205 M 319.96087 -266.58435 L 316.1667 -274.1486 M 316.26597 -273.98282 L 311.5171 -280.50644 M 311.56983 -280.43017 L 308.36898 -285.44797 M 308.48547 -285.28315 L 303.1568 -291.85326 M 303.23544 -291.9184 L 302.6353 -281.0176 M 302.62628 -281.08873 L 302.4314 -273.381 M 302.35775 -273.48517 L 307.27647 -266.3864 M 307.26508 -266.42564 L 308.99305 -262.795 M 308.95345 -262.865 L 312.8506 -254.9999 M 312.82756 -255.08812 L 314.22197 -251.60134 M 314.0916 -251.5921 L 318.6245 -252.37577 M 318.59046 -252.37523 L 324.972 -254.07946 M 324.9679 -253.99097 L 325.06447 -255.2034 M 325.10063 -255.1281 L 319.9508 -266.6452 M 319.97192 -266.59768 L 316.22385 -274.06678 M 316.28127 -273.9982 L 311.55647 -280.47006 M 311.58264 -280.444 L 308.44756 -285.36413 M 308.49907 -285.29713 L 303.20984 -291.81093" stroke="#606276" stroke-linecap="round" stroke-linejoin="round" stroke-width=".25"/>
      </g>
      <g id="Graphic_27">
        <path d="M 334 -379.2 L 340.6 -373.2 L 345.6 -368.6 L 350.8 -361 L 355.6 -352.8 L 359.4 -346.4 L 364.4 -336.8 L 368 -328.4 L 371.6 -320.2 L 375.4 -311 L 380.6 -298.4 L 385.2 -283 L 387.4 -276.4 L 389.2 -277.4 L 390.4 -278.2 L 395 -281.4 L 393.4 -288.2 L 389.8 -298 L 386.4 -307.8 L 383.2 -315.8 L 379.4 -324.8 L 374.6 -335.6 L 372 -341.4 L 366.2 -352.8 L 360.8 -362.8 L 359 -366.2 L 355.4 -371.2 L 351 -377.2 L 346.8 -382 L 339.8 -388.2 Z" fill="white"/>
        <path d="M 333.97452 -379.22322 L 340.6638 -373.1284 M 340.5624 -373.2213 L 345.63014 -368.566 M 345.5061 -368.7017 L 350.86487 -360.8528 M 350.7439 -361.04514 L 355.57476 -352.75604 M 355.5187 -352.84996 L 359.425 -346.36838 M 359.35295 -346.49686 L 364.48145 -336.65864 M 364.41452 -336.79338 L 368.03862 -328.33554 M 367.96125 -328.51547 L 371.59185 -320.10637 M 371.5433 -320.222 L 375.415 -310.861 M 375.34567 -311.02877 L 380.57847 -298.3543 M 380.5228 -298.516 L 385.23353 -282.96016 M 385.1889 -283.10407 L 387.38714 -276.3328 M 387.3054 -276.4048 L 389.24744 -277.38677 M 389.13303 -277.323 L 390.45193 -278.2247 M 390.3452 -278.15162 L 395.1095 -281.41747 M 395.061 -281.2562 L 393.42333 -288.28863 M 393.4552 -288.1819 L 389.82696 -298.06403 M 389.8622 -297.9664 L 386.31846 -307.85974 M 386.361 -307.74497 L 383.1692 -315.84792 M 383.22387 -315.71207 L 379.4017 -324.88373 M 379.45007 -324.7706 L 374.5378 -335.734 M 374.6205 -335.5511 L 371.95957 -341.37785 M 372.0269 -341.2414 L 366.1058 -352.9223 M 366.16252 -352.812 L 360.79384 -362.9345 M 360.89107 -362.75833 L 358.9004 -366.25547 M 358.98664 -366.116 L 355.37777 -371.2288 M 355.48454 -371.08154 L 350.90225 -377.3084 M 351.0023 -377.1794 L 346.76883 -382.05232 M 346.8476 -381.96974 L 339.68995 -388.2993 M 339.79625 -388.321 L 333.9404 -379.10623 M 333.99477 -379.24393 L 340.64493 -373.18853 M 340.58348 -373.24286 L 345.5646 -368.66217 M 345.53397 -368.7257 L 350.83113 -360.965 M 350.7708 -361.06734 L 355.5789 -352.80132 M 355.5449 -352.87197 L 359.40983 -346.45063 M 359.36867 -346.51253 L 364.45116 -336.77633 M 364.43643 -336.8117 L 368.0245 -328.44943 M 367.99045 -328.53696 L 371.6034 -320.16732 M 371.5643 -320.23986 L 375.39977 -310.97714 M 375.3691 -311.04762 L 380.57677 -298.43425 M 380.55005 -298.53515 L 385.23175 -283.0752 M 385.2157 -283.12333 L 387.37576 -276.44728 M 387.318 -276.42637 L 389.18136 -277.36256 M 389.14593 -277.3426 L 390.4148 -278.2193 M 390.3606 -278.16754 L 395.04264 -281.39434 M 395.0687 -281.27 L 393.44 -288.24717 M 393.46546 -288.19555 L 389.84546 -298.04696 M 389.86334 -297.97683 L 386.3478 -307.79555 M 386.36475 -307.7559 L 383.20525 -315.7727 M 383.22525 -315.72175 L 379.44127 -324.8221 M 379.45766 -324.78263 L 374.58527 -335.6446 M 374.63453 -335.566 L 371.98284 -341.3525 M 372.034 -341.2527 L 366.1583 -352.86133 M 366.1672 -352.8218 L 360.84928 -362.87048 M 360.90433 -362.7726 L 358.96154 -366.17904 M 359.00154 -366.13113 L 355.42506 -371.18607 M 355.48825 -371.0884 L 350.97255 -377.2243 M 351.01437 -377.19194 L 346.825 -382.0053 M 346.8557 -381.97685 L 339.7552 -388.2517 M 339.82353 -388.3292 L 334.01565 -379.2156" stroke="#606276" stroke-linecap="round" stroke-linejoin="round" stroke-width=".25"/>
      </g>
      <g id="Graphic_32">
        <path d="M 43.5727 -340.23934 L 7.372698 -261.23933 L -.2 -263.6 L -2.4273022 -265.03933 L 39.4 -351.8 Z" fill="white"/>
        <path d="M 43.61416 -340.32965 L 7.293928 -261.21935 M 7.42727 -261.2293 L -.26097646 -263.6507 M -.15128001 -263.60364 L -2.490955 -265.0196 M -2.468241 -264.8849 L 39.441927 -351.80145 M 39.3982 -351.79597 L 43.602913 -340.1557 M 43.64068 -340.34027 L 7.34028 -261.2758 M 7.439972 -261.23564 L -.18055982 -263.63968 M -.14239745 -263.60813 L -2.4081323 -264.99306 M -2.4574043 -264.90284 L 39.428123 -351.76447 M 39.416167 -351.81244 L 43.60221 -340.25998" stroke="#606276" stroke-linecap="round" stroke-linejoin="round" stroke-width=".25"/>
      </g>
      <g id="Graphic_33">
        <path d="M 55.217285 -288.7136 L 55.817285 -277.9136 L 56.017285 -270.3136 L 51.217285 -263.31358 L 49.417285 -259.71358 L 47.8 -256.8 L 46.6 -253.8 L 45.4 -251 L 34.8 -253.2 L 38.417285 -263.51358 L 42.217285 -270.9136 L 46.817285 -277.3136 L 50.017285 -282.3136 Z" fill="white"/>
        <path d="M 55.212756 -288.7883 L 55.87115 -277.92718 M 55.866934 -278.0823 L 55.96054 -270.2047 M 56.01696 -270.3508 L 51.240905 -263.2317 M 51.3253 -263.384 L 49.39789 -259.5613 M 49.48967 -259.73276 L 47.787945 -256.75564 M 47.83987 -256.8671 L 46.570063 -253.75658 M 46.616934 -253.86568 L 45.32406 -250.91628 M 45.44091 -250.93623 L 34.769953 -253.15026 M 34.800707 -253.10746 L 38.493215 -263.56596 M 38.43373 -263.4354 L 42.23899 -270.96965 M 42.16269 -270.84195 L 46.90255 -277.39003 M 46.83099 -277.28327 L 50.12242 -282.36835 M 50.022266 -282.22628 L 55.238086 -288.73956 M 55.23201 -288.80414 L 55.89806 -277.9924 M 55.88637 -278.09796 L 55.98483 -270.28135 M 56.03531 -270.36458 L 51.29649 -263.28662 M 51.34708 -263.39653 L 49.46589 -259.66634 M 49.51039 -259.74547 L 47.83072 -256.80786 M 47.86004 -256.8809 L 46.59968 -253.8034 M 46.63813 -253.87887 L 45.364197 -250.96946 M 45.45482 -250.94358 L 34.82779 -253.1545 M 34.804436 -253.1273 L 38.49041 -263.5404 M 38.44201 -263.45475 L 42.213115 -270.91368 M 42.17741 -270.85822 L 46.887003 -277.37936 M 46.84153 -277.3022 L 50.06973 -282.30237 M 50.02824 -282.24963 L 55.23103 -288.7307" stroke="#606276" stroke-linecap="round" stroke-linejoin="round" stroke-width=".25"/>
      </g>
      <g id="Graphic_35">
        <path d="M 25.9 -378.55386 L 19.3 -372.55386 L 14.3 -367.95386 L 9.100001 -360.35386 L 4.3000006 -352.15386 L .5000005 -345.75386 L -4.4999996 -336.15386 L -8.1 -327.75386 L -11.7 -319.55385 L -15.5 -310.35385 L -20.7 -297.75385 L -25.3 -282.35385 L -27.6 -275.6 L -29.8 -276.8 L -30.8 -277.4 L -35.8 -280.4 L -33.5 -287.55385 L -30.3 -297.55385 L -26.5 -307.15385 L -23.3 -315.15385 L -19.5 -324.15386 L -14.7 -334.95386 L -12.1 -340.75386 L -6.2999996 -352.15386 L -.8999995 -362.15386 L .9000005 -365.55386 L 4.5000006 -370.55386 L 8.900001 -376.55386 L 13.1 -381.35386 L 20.1 -387.55386 Z" fill="white"/>
        <path d="M 25.98843 -378.6343 L 19.284143 -372.53367 M 19.380523 -372.6207 L 14.209303 -367.97163 M 14.304354 -368.0945 L 9.073668 -360.2836 M 9.157988 -360.4157 L 4.301312 -352.12157 M 4.3992096 -352.28635 L .44169753 -345.72086 M .52688736 -345.87666 L -4.46738 -336.1587 M -4.421686 -336.2567 L -8.183173 -327.7028 M -8.106509 -327.87787 L -11.746246 -319.5082 M -11.67281 -319.68275 L -15.568722 -310.2169 M -15.494675 -310.3958 L -20.768648 -297.7143 M -20.7314 -297.81833 L -25.35826 -282.34585 M -25.321764 -282.4614 L -27.596445 -275.5267 M -27.484635 -275.5881 L -29.911227 -276.82306 M -29.740182 -276.72646 L -30.853114 -277.45423 M -30.718036 -277.3698 L -35.92972 -280.42526 M -35.85562 -280.30366 L -33.477172 -287.5643 M -33.530704 -287.39733 L -30.288795 -297.67817 M -30.352616 -297.49356 L -26.493462 -307.25957 M -26.558866 -307.09548 L -23.27072 -315.29066 M -23.324654 -315.15904 L -19.513225 -324.1875 M -19.585264 -324.02236 L -14.694552 -335.0315 M -14.791676 -334.81727 L -12.033395 -340.77285 M -12.101779 -340.6301 L -6.317995 -352.2361 M -6.397225 -352.0834 L -.899237 -362.2632 M -.9712267 -362.13047 L .9536144 -365.6604 M .8349392 -365.4747 L 4.490795 -370.55967 M 4.416931 -370.4592 L 8.982628 -376.5904 M 8.888208 -376.46894 L 13.172652 -381.458 M 13.04991 -381.33415 L 20.12281 -387.58866 M 20.01188 -387.59977 L 25.936752 -378.4974 M 26.005776 -378.64806 L 19.337864 -372.57668 M 19.401229 -372.63067 L 14.257426 -368.0156 M 14.332491 -368.10175 L 9.144891 -360.38216 M 9.182283 -360.42625 L 4.376077 -352.214 M 4.4180074 -352.30006 L .50039415 -345.78905 M .5436645 -345.8917 L -4.420315 -336.20265 M -4.4007235 -336.26997 L -8.1094615 -327.82256 M -8.085067 -327.89096 L -11.697132 -319.5911 M -11.653055 -319.69667 L -15.508667 -310.30895 M -15.466716 -310.4063 L -20.723128 -297.7791 M -20.713247 -297.8332 L -25.314462 -282.4059 M -25.292292 -282.47248 L -27.537558 -275.64042 M -27.474185 -275.59356 L -29.794816 -276.7765 M -29.730115 -276.7336 L -30.76569 -277.41097 M -30.707767 -277.3763 L -35.822463 -280.37813 M -35.846358 -280.32137 L -33.487073 -287.50874 M -33.5193 -287.4143 L -30.32316 -297.58383 M -30.350207 -297.5144 L -26.511012 -307.20514 M -26.54387 -307.11136 L -23.29158 -315.2306 M -23.309333 -315.1748 L -19.529415 -324.14604 M -19.57578 -324.0407 L -14.730526 -334.9372 M -14.779518 -334.8345 L -12.056477 -340.71147 M -12.087882 -340.6466 L -6.347384 -352.17724 M -6.386999 -352.10193 L -.9292513 -362.20667 M -.9685747 -362.15317 L .910764 -365.59717 M .8432629 -365.4956 L 4.4736597 -370.5424 M 4.426844 -370.47907 L 8.93017 -376.52225 M 8.894737 -376.4924 L 13.132483 -381.41094 M 13.063818 -381.3517 L 20.071124 -387.5478 M 20.031513 -387.618 L 25.919694 -378.57213" stroke="#606276" stroke-linecap="round" stroke-linejoin="round" stroke-width=".25"/>
      </g>
      <g id="Line_36">
        <line x1="177.94256" y1="-376.29085" x2="177.44739" y2="16.30915" stroke="#606276" stroke-linecap="round" stroke-linejoin="round" stroke-width=".8"/>
      </g>
    </g>
  </g>
</svg>
