<?xml version="1.0" encoding="UTF-8" standalone="no"?>
<!DOCTYPE svg PUBLIC "-//W3C//DTD SVG 1.1//EN" "http://www.w3.org/Graphics/SVG/1.1/DTD/svg11.dtd">
<svg xmlns="http://www.w3.org/2000/svg" xmlns:xl="http://www.w3.org/1999/xlink" xmlns:dc="http://purl.org/dc/elements/1.1/" version="1.1" viewBox="357 369 433 450" width="433" height="450">
  <defs>
    <radialGradient cx="0" cy="0" r="1" id="Gradient" gradientUnits="userSpaceOnUse">
      <stop offset="0" stop-color="#cbcbcb"/>
      <stop offset=".4338305" stop-color="#837d78"/>
      <stop offset="1" stop-color="#2b1b0b"/>
    </radialGradient>
    <radialGradient id="Obj_Gradient" xl:href="#Gradient" gradientTransform="translate(572.75925 397.4) scale(70.26272)"/>
  </defs>
  <metadata> Produced by OmniGraffle 7.19.2\n2024-02-06 00:45:25 +0000</metadata>
  <g id="phi" stroke-opacity="1" stroke="none" fill-opacity="1" stroke-dasharray="none" fill="none">
    <title>phi</title>
    <g id="phi_Layer_1">
      <title>Layer 1</title>
      <g id="Graphic_19">
        <path d="M 445.33006 808.1729 L 459.0723 810.4633 C 459.2557 810.4939 459.43957 810.5212 459.6239 810.5454 L 487.97754 814.2607 C 488.2241 814.293 488.4713 814.3195 488.7191 814.3403 L 518.962 816.8768 C 519.2189 816.8984 519.47627 816.9137 519.7339 816.9228 L 558.6648 818.2992 C 558.8532 818.3058 559.04165 818.30915 559.2301 818.30915 L 590.69745 818.30915 C 590.86406 818.30915 591.0307 818.3065 591.1972 818.3013 L 616.232 817.519 C 616.4422 817.5124 616.6523 817.5017 616.86215 817.4869 L 638.9099 815.926 C 639.0682 815.9148 639.22636 815.9012 639.3843 815.8853 L 664.64475 813.33965 C 664.8465 813.3193 665.0478 813.2952 665.24865 813.2672 L 689.04134 809.9518 C 689.24535 809.9234 689.4488 809.891 689.65156 809.8547 L 698.8474 808.20915 C 704.1745 807.2559 707.8254 802.3022 707.15895 796.9317 L 704.95136 779.1411 C 704.9487 779.1198 704.9461 779.0985 704.94355 779.0772 L 701.3797 749.3786 C 701.3582 749.199 701.3397 749.019 701.3242 748.8387 L 698.962 721.2795 C 698.95226 721.1659 698.9437 721.0523 698.9364 720.9385 L 697.5498 699.3469 C 697.5482 699.3217 697.5465 699.2966 697.5448 699.27144 L 695.9526 676.1851 C 695.9491 676.1345 695.9459 676.0838 695.9429 676.0331 L 694.7665 656.23095 C 694.7538 656.0164 694.74534 655.8017 694.74125 655.5868 L 694.349 634.992 C 694.3479 634.9368 694.3466 634.88154 694.34495 634.8263 L 693.7498 614.592 C 693.7482 614.53676 693.7469 614.4815 693.7458 614.4263 L 693.35515 593.91676 C 693.35 593.64506 693.3517 593.3733 693.3604 593.1017 L 693.9463 574.74206 C 693.947 574.7201 693.9478 574.6982 693.9486 574.67624 L 694.73666 552.8069 C 694.7438 552.6084 694.7547 552.4101 694.7692 552.212 L 696.3267 530.99135 C 696.3405 530.8032 696.351 530.6149 696.3581 530.4264 L 697.1126 510.5275 C 697.13576 509.9158 697.194 509.30586 697.2871 508.7008 L 700.0261 490.8973 C 700.1069 490.3722 700.2138 489.85143 700.3464 489.33697 L 704.9747 471.3793 C 705.0898 470.93275 705.2241 470.49136 705.3773 470.0564 L 711.0981 453.81675 C 711.2642 453.34527 711.4523 452.88184 711.6618 452.42797 L 717.1933 440.44293 C 717.296 440.22044 717.4038 440.00033 717.5166 439.7828 L 722.2747 430.60647 C 722.7222 429.7434 723.2475 428.9229 723.844 428.15515 L 731.2371 418.63937 C 731.8695 417.8254 732.29395 416.86954 732.4737 415.85457 L 732.4737 415.85457 C 732.637 414.9326 732.1893 414.01015 731.3639 413.568 L 727.4754 411.48487 C 727.2568 411.36774 727.0354 411.2557 726.81155 411.14886 L 718.9576 407.40037 C 718.551 407.2063 718.1363 407.0295 717.7148 406.87044 L 708.04 403.21956 C 707.8449 403.14596 707.6485 403.07617 707.4507 403.01025 L 694.7562 398.77876 C 694.617 398.73235 694.47716 398.68786 694.3367 398.6453 L 681.4532 394.7412 C 681.38266 394.71983 681.3123 394.69797 681.24205 394.67563 L 668.73805 390.6971 C 668.3444 390.57184 667.9558 390.4314 667.573 390.27607 L 655.5971 385.41627 C 654.7654 385.0788 653.96364 384.6719 653.2002 384.2 L 643.58096 378.25353 C 643.42526 378.1573 643.2712 378.05836 643.1189 377.95683 L 638.2288 374.69676 C 637.2474 374.0425 636.3761 373.2366 635.6474 372.30914 L 635.6474 372.30914 C 635.5418 372.17474 635.3472 372.1514 635.2128 372.257 C 635.1101 372.3377 635.0691 372.47427 635.1104 372.59823 L 635.2474 373.00914 C 635.70664 374.3869 635.8112 375.8582 635.5514 377.28703 L 635.1563 379.4603 C 634.88506 380.95196 634.4032 382.3975 633.7252 383.75355 L 632.1929 386.8182 C 631.8962 387.4116 631.56285 387.98595 631.19484 388.53797 L 627.9911 393.34353 C 627.5625 393.98643 627.0879 394.59744 626.571 395.17176 L 622.009 400.2407 C 621.9679 400.28633 621.9266 400.3317 621.885 400.37688 L 615.8908 406.8849 C 615.263 407.56644 614.5773 408.19217 613.84125 408.755 L 608.8171 412.59703 C 608.3709 412.9382 607.9071 413.25565 607.4276 413.54805 L 600.9412 417.50317 C 600.2795 417.9066 599.5894 418.26147 598.87635 418.5649 L 591.76094 421.59274 C 590.9533 421.93643 590.1187 422.21307 589.26566 422.41987 L 585.1866 423.40873 C 584.3618 423.6087 583.5223 423.7427 582.67624 423.8095 L 576.976 424.2595 C 576.5571 424.2926 576.137 424.30914 575.7168 424.30914 L 568.6845 424.30914 C 567.9274 424.30914 567.1712 424.2554 566.4217 424.14834 L 558.4753 423.01313 C 557.9903 422.94384 557.5087 422.8523 557.0321 422.73884 L 551.0709 421.3195 C 549.9254 421.04676 548.8135 420.6484 547.7554 420.1317 L 541.4754 417.0647 C 540.9904 416.8278 540.5176 416.56654 540.059 416.28186 L 535.8471 413.6676 C 535.24795 413.2957 534.674 412.8846 534.1291 412.437 L 529.683 408.7848 C 529.4593 408.60107 529.2406 408.4113 529.0272 408.21567 L 525.2249 404.7302 C 524.7736 404.3165 524.3464 403.87725 523.94546 403.4146 L 519.8267 398.6622 C 519.5073 398.2937 519.20496 397.91077 518.92056 397.51463 L 514.4909 391.34475 C 513.996 390.65544 513.55674 389.92785 513.17725 389.16886 L 511.2525 385.31935 C 510.7848 384.384 510.18583 383.52035 509.4737 382.75457 L 509.46365 382.74376 C 508.77095 381.9989 508.3211 381.061 508.1737 380.05457 L 508.1737 380.05457 C 508.02335 379.0279 507.99485 377.98703 508.0888 376.95365 L 508.3989 373.54253 C 508.4227 373.28067 508.2297 373.0491 507.96786 373.0253 C 507.80546 373.0105 507.6468 373.0799 507.5474 373.20914 L 507.5474 373.20914 C 506.88394 374.07162 506.10383 374.8377 505.22945 375.4854 L 501.3329 378.3717 C 501.20924 378.46333 501.08424 378.55316 500.95796 378.64117 L 496.3357 381.86274 C 495.149 382.68985 493.85556 383.3522 492.4908 383.83173 L 487.8837 385.45045 C 487.3931 385.6228 486.91123 385.819 486.43976 386.03827 L 479.593 389.2228 C 478.8968 389.5466 478.17826 389.8199 477.44286 390.0405 L 466.57247 393.3016 C 466.55575 393.30664 466.53903 393.3117 466.52233 393.31675 L 455.55424 396.64635 C 455.41634 396.6882 455.279 396.73193 455.1423 396.7775 L 442.22107 401.0846 C 442.17195 401.10096 442.12275 401.1171 442.07347 401.133 L 430.70606 404.7999 C 430.0676 405.00586 429.4427 405.25177 428.83506 405.5362 L 420.9031 409.249 C 420.53276 409.42237 420.1692 409.60986 419.8132 409.81106 L 413.8671 413.1719 C 412.6141 413.88015 412.17243 415.47007 412.88067 416.7231 C 412.9578 416.85954 413.04705 416.98875 413.1474 417.10914 L 414.0115 418.1461 C 414.76644 419.052 415.4189 420.03863 415.95703 421.08796 L 419.03417 427.0884 C 419.10964 427.23555 419.1874 427.38154 419.2674 427.5263 L 423.22214 434.6825 C 423.30563 434.8336 423.38667 434.986 423.46523 435.1397 L 427.57354 443.1777 C 427.8226 443.665 428.0465 444.1648 428.24436 444.67503 L 431.72713 453.6569 C 431.74063 453.69173 431.75426 453.7265 431.768 453.76124 L 435.36433 462.8467 C 435.48634 463.1549 435.59874 463.46687 435.70136 463.7821 L 438.3232 471.83486 C 438.3393 471.8844 438.3552 471.934 438.37084 471.98366 L 441.4429 481.74193 C 441.6457 482.3861 441.8075 483.04245 441.92734 483.70706 L 443.91265 494.7165 C 443.9358 494.84493 443.9574 494.9736 443.9774 495.10257 L 445.68327 506.09595 C 445.726 506.37137 445.76154 506.64785 445.78983 506.9251 L 446.67725 515.62184 C 446.724 516.07983 446.75093 516.5396 446.758 516.99994 L 446.94225 528.97556 C 446.9457 529.1979 446.95373 529.4202 446.9664 529.6422 L 447.7368 543.1238 C 447.74385 543.24736 447.75235 543.37084 447.7623 543.4942 L 449.09585 560.0686 C 449.1302 560.49545 449.1474 560.9235 449.1474 561.3518 L 449.1474 573.8016 C 449.1474 574.0066 449.1513 574.2116 449.1592 574.4165 L 449.73956 589.50564 C 449.7448 589.6413 449.74827 589.777 449.75003 589.9128 L 449.9422 604.70905 C 449.94565 604.97574 449.94245 605.2425 449.9326 605.509 L 449.35835 621.01316 C 449.35104 621.2105 449.3474 621.4079 449.3474 621.60534 L 449.3474 635.2016 C 449.3474 635.4066 449.34344 635.6116 449.33556 635.8165 L 448.75037 651.0315 C 448.7484 651.0833 448.74614 651.135 448.74364 651.1868 L 447.9483 667.6897 C 447.9477 667.7027 447.94706 667.7156 447.9464 667.7286 L 447.1519 683.4198 C 447.1489 683.47935 447.14554 683.5389 447.14186 683.5985 L 445.95295 702.8192 C 445.94924 702.8792 445.9452 702.9391 445.9408 702.999 L 444.15767 727.3686 C 444.1508 727.4623 444.14313 727.55594 444.1346 727.6495 L 442.34873 747.2943 C 442.34783 747.3042 442.34693 747.3141 442.346 747.324 L 440.57525 766.4089 C 440.5567 766.609 440.53433 766.8088 440.50823 767.0082 L 438.5475 781.9809 C 438.4147 782.9951 438.14556 783.9867 437.7474 784.9289 L 437.7474 784.9289 C 437.3498 785.8696 437.10114 786.8665 437.0103 787.8838 L 436.2474 796.4289 C 435.73963 802.1159 439.6981 807.2343 445.33006 808.1729 Z" fill="white"/>
        <path d="M 445.33006 808.1729 L 459.0723 810.4633 C 459.2557 810.4939 459.43957 810.5212 459.6239 810.5454 L 487.97754 814.2607 C 488.2241 814.293 488.4713 814.3195 488.7191 814.3403 L 518.962 816.8768 C 519.2189 816.8984 519.47627 816.9137 519.7339 816.9228 L 558.6648 818.2992 C 558.8532 818.3058 559.04165 818.30915 559.2301 818.30915 L 590.69745 818.30915 C 590.86406 818.30915 591.0307 818.3065 591.1972 818.3013 L 616.232 817.519 C 616.4422 817.5124 616.6523 817.5017 616.86215 817.4869 L 638.9099 815.926 C 639.0682 815.9148 639.22636 815.9012 639.3843 815.8853 L 664.64475 813.33965 C 664.8465 813.3193 665.0478 813.2952 665.24865 813.2672 L 689.04134 809.9518 C 689.24535 809.9234 689.4488 809.891 689.65156 809.8547 L 698.8474 808.20915 C 704.1745 807.2559 707.8254 802.3022 707.15895 796.9317 L 704.95136 779.1411 C 704.9487 779.1198 704.9461 779.0985 704.94355 779.0772 L 701.3797 749.3786 C 701.3582 749.199 701.3397 749.019 701.3242 748.8387 L 698.962 721.2795 C 698.95226 721.1659 698.9437 721.0523 698.9364 720.9385 L 697.5498 699.3469 C 697.5482 699.3217 697.5465 699.2966 697.5448 699.27144 L 695.9526 676.1851 C 695.9491 676.1345 695.9459 676.0838 695.9429 676.0331 L 694.7665 656.23095 C 694.7538 656.0164 694.74534 655.8017 694.74125 655.5868 L 694.349 634.992 C 694.3479 634.9368 694.3466 634.88154 694.34495 634.8263 L 693.7498 614.592 C 693.7482 614.53676 693.7469 614.4815 693.7458 614.4263 L 693.35515 593.91676 C 693.35 593.64506 693.3517 593.3733 693.3604 593.1017 L 693.9463 574.74206 C 693.947 574.7201 693.9478 574.6982 693.9486 574.67624 L 694.73666 552.8069 C 694.7438 552.6084 694.7547 552.4101 694.7692 552.212 L 696.3267 530.99135 C 696.3405 530.8032 696.351 530.6149 696.3581 530.4264 L 697.1126 510.5275 C 697.13576 509.9158 697.194 509.30586 697.2871 508.7008 L 700.0261 490.8973 C 700.1069 490.3722 700.2138 489.85143 700.3464 489.33697 L 704.9747 471.3793 C 705.0898 470.93275 705.2241 470.49136 705.3773 470.0564 L 711.0981 453.81675 C 711.2642 453.34527 711.4523 452.88184 711.6618 452.42797 L 717.1933 440.44293 C 717.296 440.22044 717.4038 440.00033 717.5166 439.7828 L 722.2747 430.60647 C 722.7222 429.7434 723.2475 428.9229 723.844 428.15515 L 731.2371 418.63937 C 731.8695 417.8254 732.29395 416.86954 732.4737 415.85457 L 732.4737 415.85457 C 732.637 414.9326 732.1893 414.01015 731.3639 413.568 L 727.4754 411.48487 C 727.2568 411.36774 727.0354 411.2557 726.81155 411.14886 L 718.9576 407.40037 C 718.551 407.2063 718.1363 407.0295 717.7148 406.87044 L 708.04 403.21956 C 707.8449 403.14596 707.6485 403.07617 707.4507 403.01025 L 694.7562 398.77876 C 694.617 398.73235 694.47716 398.68786 694.3367 398.6453 L 681.4532 394.7412 C 681.38266 394.71983 681.3123 394.69797 681.24205 394.67563 L 668.73805 390.6971 C 668.3444 390.57184 667.9558 390.4314 667.573 390.27607 L 655.5971 385.41627 C 654.7654 385.0788 653.96364 384.6719 653.2002 384.2 L 643.58096 378.25353 C 643.42526 378.1573 643.2712 378.05836 643.1189 377.95683 L 638.2288 374.69676 C 637.2474 374.0425 636.3761 373.2366 635.6474 372.30914 L 635.6474 372.30914 C 635.5418 372.17474 635.3472 372.1514 635.2128 372.257 C 635.1101 372.3377 635.0691 372.47427 635.1104 372.59823 L 635.2474 373.00914 C 635.70664 374.3869 635.8112 375.8582 635.5514 377.28703 L 635.1563 379.4603 C 634.88506 380.95196 634.4032 382.3975 633.7252 383.75355 L 632.1929 386.8182 C 631.8962 387.4116 631.56285 387.98595 631.19484 388.53797 L 627.9911 393.34353 C 627.5625 393.98643 627.0879 394.59744 626.571 395.17176 L 622.009 400.2407 C 621.9679 400.28633 621.9266 400.3317 621.885 400.37688 L 615.8908 406.8849 C 615.263 407.56644 614.5773 408.19217 613.84125 408.755 L 608.8171 412.59703 C 608.3709 412.9382 607.9071 413.25565 607.4276 413.54805 L 600.9412 417.50317 C 600.2795 417.9066 599.5894 418.26147 598.87635 418.5649 L 591.76094 421.59274 C 590.9533 421.93643 590.1187 422.21307 589.26566 422.41987 L 585.1866 423.40873 C 584.3618 423.6087 583.5223 423.7427 582.67624 423.8095 L 576.976 424.2595 C 576.5571 424.2926 576.137 424.30914 575.7168 424.30914 L 568.6845 424.30914 C 567.9274 424.30914 567.1712 424.2554 566.4217 424.14834 L 558.4753 423.01313 C 557.9903 422.94384 557.5087 422.8523 557.0321 422.73884 L 551.0709 421.3195 C 549.9254 421.04676 548.8135 420.6484 547.7554 420.1317 L 541.4754 417.0647 C 540.9904 416.8278 540.5176 416.56654 540.059 416.28186 L 535.8471 413.6676 C 535.24795 413.2957 534.674 412.8846 534.1291 412.437 L 529.683 408.7848 C 529.4593 408.60107 529.2406 408.4113 529.0272 408.21567 L 525.2249 404.7302 C 524.7736 404.3165 524.3464 403.87725 523.94546 403.4146 L 519.8267 398.6622 C 519.5073 398.2937 519.20496 397.91077 518.92056 397.51463 L 514.4909 391.34475 C 513.996 390.65544 513.55674 389.92785 513.17725 389.16886 L 511.2525 385.31935 C 510.7848 384.384 510.18583 383.52035 509.4737 382.75457 L 509.46365 382.74376 C 508.77095 381.9989 508.3211 381.061 508.1737 380.05457 L 508.1737 380.05457 C 508.02335 379.0279 507.99485 377.98703 508.0888 376.95365 L 508.3989 373.54253 C 508.4227 373.28067 508.2297 373.0491 507.96786 373.0253 C 507.80546 373.0105 507.6468 373.0799 507.5474 373.20914 L 507.5474 373.20914 C 506.88394 374.07162 506.10383 374.8377 505.22945 375.4854 L 501.3329 378.3717 C 501.20924 378.46333 501.08424 378.55316 500.95796 378.64117 L 496.3357 381.86274 C 495.149 382.68985 493.85556 383.3522 492.4908 383.83173 L 487.8837 385.45045 C 487.3931 385.6228 486.91123 385.819 486.43976 386.03827 L 479.593 389.2228 C 478.8968 389.5466 478.17826 389.8199 477.44286 390.0405 L 466.57247 393.3016 C 466.55575 393.30664 466.53903 393.3117 466.52233 393.31675 L 455.55424 396.64635 C 455.41634 396.6882 455.279 396.73193 455.1423 396.7775 L 442.22107 401.0846 C 442.17195 401.10096 442.12275 401.1171 442.07347 401.133 L 430.70606 404.7999 C 430.0676 405.00586 429.4427 405.25177 428.83506 405.5362 L 420.9031 409.249 C 420.53276 409.42237 420.1692 409.60986 419.8132 409.81106 L 413.8671 413.1719 C 412.6141 413.88015 412.17243 415.47007 412.88067 416.7231 C 412.9578 416.85954 413.04705 416.98875 413.1474 417.10914 L 414.0115 418.1461 C 414.76644 419.052 415.4189 420.03863 415.95703 421.08796 L 419.03417 427.0884 C 419.10964 427.23555 419.1874 427.38154 419.2674 427.5263 L 423.22214 434.6825 C 423.30563 434.8336 423.38667 434.986 423.46523 435.1397 L 427.57354 443.1777 C 427.8226 443.665 428.0465 444.1648 428.24436 444.67503 L 431.72713 453.6569 C 431.74063 453.69173 431.75426 453.7265 431.768 453.76124 L 435.36433 462.8467 C 435.48634 463.1549 435.59874 463.46687 435.70136 463.7821 L 438.3232 471.83486 C 438.3393 471.8844 438.3552 471.934 438.37084 471.98366 L 441.4429 481.74193 C 441.6457 482.3861 441.8075 483.04245 441.92734 483.70706 L 443.91265 494.7165 C 443.9358 494.84493 443.9574 494.9736 443.9774 495.10257 L 445.68327 506.09595 C 445.726 506.37137 445.76154 506.64785 445.78983 506.9251 L 446.67725 515.62184 C 446.724 516.07983 446.75093 516.5396 446.758 516.99994 L 446.94225 528.97556 C 446.9457 529.1979 446.95373 529.4202 446.9664 529.6422 L 447.7368 543.1238 C 447.74385 543.24736 447.75235 543.37084 447.7623 543.4942 L 449.09585 560.0686 C 449.1302 560.49545 449.1474 560.9235 449.1474 561.3518 L 449.1474 573.8016 C 449.1474 574.0066 449.1513 574.2116 449.1592 574.4165 L 449.73956 589.50564 C 449.7448 589.6413 449.74827 589.777 449.75003 589.9128 L 449.9422 604.70905 C 449.94565 604.97574 449.94245 605.2425 449.9326 605.509 L 449.35835 621.01316 C 449.35104 621.2105 449.3474 621.4079 449.3474 621.60534 L 449.3474 635.2016 C 449.3474 635.4066 449.34344 635.6116 449.33556 635.8165 L 448.75037 651.0315 C 448.7484 651.0833 448.74614 651.135 448.74364 651.1868 L 447.9483 667.6897 C 447.9477 667.7027 447.94706 667.7156 447.9464 667.7286 L 447.1519 683.4198 C 447.1489 683.47935 447.14554 683.5389 447.14186 683.5985 L 445.95295 702.8192 C 445.94924 702.8792 445.9452 702.9391 445.9408 702.999 L 444.15767 727.3686 C 444.1508 727.4623 444.14313 727.55594 444.1346 727.6495 L 442.34873 747.2943 C 442.34783 747.3042 442.34693 747.3141 442.346 747.324 L 440.57525 766.4089 C 440.5567 766.609 440.53433 766.8088 440.50823 767.0082 L 438.5475 781.9809 C 438.4147 782.9951 438.14556 783.9867 437.7474 784.9289 L 437.7474 784.9289 C 437.3498 785.8696 437.10114 786.8665 437.0103 787.8838 L 436.2474 796.4289 C 435.73963 802.1159 439.6981 807.2343 445.33006 808.1729 Z" stroke="#ff2600" stroke-linecap="round" stroke-linejoin="round" stroke-width="1"/>
      </g>
      <g id="Graphic_18">
        <path d="M 358 521.44615 L 364.2 525.84615 L 372.4 529.84615 L 381 533.44615 L 390 537.24615 L 401 541.24615 L 410.4 544.04615 L 419.4 546.64615 L 428.4 549.24615 L 433.8 550.64615 L 439.4 551.64615 L 441.8 545.84615 L 444.4 540.44615 L 446.6 536.44615 L 449.2 533.04615 L 449.4 524.04615 L 448.8 513.04615 L 447 502.24615 L 445.4 491.84615 L 442.8 480.84614 L 440.4 471.24614 L 437.6 463.24614 L 434.4 453.84614 L 431.6 446.44614 L 428 438.84614 L 424 431.24614 L 420 423.84614 L 417.4 420.24614 L 413.8 414.44614 L 408.4 418.84614 L 403.6 423.64614 L 399 429.84614 L 394.6 436.04614 L 389.8 444.64614 L 385 454.04614 L 380.2 463.24614 L 376.6 471.84614 L 372.6 480.84614 L 369.4 489.04615 L 365.6 498.44615 L 362.8 506.44615 L 359.8 514.84615 Z" fill="white"/>
        <path d="M 358 521.44615 L 364.2 525.84615 L 372.4 529.84615 L 381 533.44615 L 390 537.24615 L 401 541.24615 L 410.4 544.04615 L 419.4 546.64615 L 428.4 549.24615 L 433.8 550.64615 L 439.4 551.64615 L 441.8 545.84615 L 444.4 540.44615 L 446.6 536.44615 L 449.2 533.04615 L 449.4 524.04615 L 448.8 513.04615 L 447 502.24615 L 445.4 491.84615 L 442.8 480.84614 L 440.4 471.24614 L 437.6 463.24614 L 434.4 453.84614 L 431.6 446.44614 L 428 438.84614 L 424 431.24614 L 420 423.84614 L 417.4 420.24614 L 413.8 414.44614 L 408.4 418.84614 L 403.6 423.64614 L 399 429.84614 L 394.6 436.04614 L 389.8 444.64614 L 385 454.04614 L 380.2 463.24614 L 376.6 471.84614 L 372.6 480.84614 L 369.4 489.04615 L 365.6 498.44615 L 362.8 506.44615 L 359.8 514.84615 Z" stroke="#ff2600" stroke-linecap="round" stroke-linejoin="round" stroke-width="1"/>
      </g>
      <g id="Graphic_17">
        <path d="M 789.4053 520.50275 L 783.2053 524.90275 L 775.0053 528.90275 L 766.4053 532.50275 L 757.4053 536.30275 L 746.4053 540.30275 L 737.0053 543.10275 L 728.0053 545.70275 L 719.0053 548.30275 L 713.6053 549.70275 L 708.0053 550.70275 L 705.6053 544.90275 L 703.0053 539.50275 L 700.8053 535.50275 L 696.2 528.4 L 696.4 521.4 L 698 510.6 L 699 499.6 L 701.4 488.6 L 703.8 478.2 L 706.8 468.8 L 709.6 460 L 712.4 452.4 L 715.8053 445.50275 L 719.4053 437.90275 L 723.4053 430.30275 L 727.4053 422.90275 L 730.0053 419.30275 L 733.6053 413.50275 L 739.0053 417.90275 L 743.8053 422.70275 L 748.4053 428.90275 L 752.8053 435.10275 L 757.6053 443.70275 L 762.4053 453.10275 L 767.2053 462.30275 L 770.8053 470.90275 L 774.8053 479.90275 L 778.0053 488.10275 L 781.8053 497.50275 L 784.6053 505.50275 L 787.6053 513.90275 Z" fill="white"/>
        <path d="M 789.4053 520.50275 L 783.2053 524.90275 L 775.0053 528.90275 L 766.4053 532.50275 L 757.4053 536.30275 L 746.4053 540.30275 L 737.0053 543.10275 L 728.0053 545.70275 L 719.0053 548.30275 L 713.6053 549.70275 L 708.0053 550.70275 L 705.6053 544.90275 L 703.0053 539.50275 L 700.8053 535.50275 L 696.2 528.4 L 696.4 521.4 L 698 510.6 L 699 499.6 L 701.4 488.6 L 703.8 478.2 L 706.8 468.8 L 709.6 460 L 712.4 452.4 L 715.8053 445.50275 L 719.4053 437.90275 L 723.4053 430.30275 L 727.4053 422.90275 L 730.0053 419.30275 L 733.6053 413.50275 L 739.0053 417.90275 L 743.8053 422.70275 L 748.4053 428.90275 L 752.8053 435.10275 L 757.6053 443.70275 L 762.4053 453.10275 L 767.2053 462.30275 L 770.8053 470.90275 L 774.8053 479.90275 L 778.0053 488.10275 L 781.8053 497.50275 L 784.6053 505.50275 L 787.6053 513.90275 Z" stroke="#ff2600" stroke-linecap="round" stroke-linejoin="round" stroke-width="1"/>
      </g>
      <g id="Graphic_16">
        <path d="M 590 818 L 602 817.8 L 599 418.5 L 590 420.638 Z" fill="red"/>
        <path d="M 589.8833 818.0025 L 602.0181 817.73895 M 601.9513 817.856 L 599.01395 418.3586 M 599.0726 418.46346 L 589.8617 420.6125 M 589.9541 420.54366 L 590 818.0421 M 589.89884 817.9819 L 601.966 817.721 M 601.95625 817.8404 L 599.0169 418.4614 M 599.09105 418.4601 L 589.9727 420.5879 M 589.9698 420.52803 L 590.02695 817.9844" stroke="gray" stroke-linecap="round" stroke-linejoin="round" stroke-width=".25"/>
      </g>
      <g id="Graphic_15">
        <path d="M 545 817.6 L 554 818 L 554 421.6874 L 544.8 418.5 Z" fill="red"/>
        <path d="M 544.9526 817.598 L 554.0353 817.9802 M 553.9666 818.0107 L 553.9529 421.6782 M 554.048 421.74535 L 544.7167 418.43756 M 544.8291 418.43868 L 545.00005 817.72025 M 544.96876 817.5691 L 553.98225 817.9613 M 553.98126 817.9951 L 553.9584 421.696 M 554.06136 421.73603 L 544.8438 418.46456 M 544.8595 418.42304 L 545.0254 817.5844" stroke="gray" stroke-linecap="round" stroke-linejoin="round" stroke-width=".25"/>
      </g>
      <g id="Graphic_14">
        <path d="M 504.6 815.8 L 516.4 817 L 513.8 390.26453 L 509 375.8 L 507.2 373.4 L 504.4 376.6 Z" fill="red"/>
        <path d="M 504.5284 815.7926 L 516.45226 817.0214 M 516.383 817.0592 L 513.8157 390.1687 M 513.83146 390.2572 L 508.9632 375.75456 M 509.04084 375.88646 L 507.2425 373.4229 M 507.2944 373.4118 L 504.34176 376.66147 M 504.4207 376.47614 L 504.6 815.8511 M 504.54463 815.771 L 516.3997 816.9861 M 516.39175 817.0436 L 513.8249 390.19546 M 513.8463 390.24185 L 508.98665 375.789 M 509.04986 375.87566 L 507.2648 373.44154 M 507.3123 373.3982 L 504.4387 376.5611 M 504.44463 376.4605 L 504.6236 815.7844" stroke="gray" stroke-linecap="round" stroke-linejoin="round" stroke-width=".25"/>
      </g>
      <g id="Graphic_13">
        <path d="M 628.6 816.6 L 638.8 815.8 L 636.6 382.4 L 628.8 392.50146 Z" fill="red"/>
        <path d="M 628.50375 816.6071 L 638.8697 815.846 M 638.7992 815.9077 L 636.5538 382.34257 M 636.60866 382.3219 L 628.8091 392.58712 M 628.8542 392.41246 L 628.59995 816.6891 M 628.5183 816.5771 L 638.81386 815.8263 M 638.802 815.8922 L 636.5664 382.3782 M 636.6327 382.31268 L 628.881 392.52084 M 628.8828 392.39684 L 628.6222 816.5844" stroke="gray" stroke-linecap="round" stroke-linejoin="round" stroke-width=".25"/>
      </g>
      <g id="Graphic_12">
        <path d="M 665.4 813 L 676.6 811.4 L 674.6 392.6867 L 665 388.6 Z" fill="red"/>
        <path d="M 665.2802 813.0175 L 676.6864 811.3527 M 676.6154 811.4312 L 674.6168 392.66767 M 674.6522 392.74267 L 664.9132 388.61237 M 665.004 388.54402 L 665.4001 813.0735 M 665.2948 812.9948 L 676.6298 811.3417 M 676.6279 811.4156 L 674.6173 392.71225 M 674.666 392.73133 L 665.0181 388.63913 M 665.0317 388.5284 L 665.42065 812.9844" stroke="gray" stroke-linecap="round" stroke-linejoin="round" stroke-width=".25"/>
      </g>
      <g id="Graphic_11">
        <path d="M 463.8 811.2 L 472.8 812 L 472.5 391.5 L 464.5 393.5532 Z" fill="red"/>
        <path d="M 463.7484 811.1954 L 472.9041 812.0065 M 472.8313 812.0797 L 472.45513 391.39437 M 472.5324 391.4437 L 464.33473 393.5341 M 464.45427 393.40525 L 463.7999 811.2579 M 463.7654 811.1644 L 472.84706 811.9819 M 472.8379 812.0641 L 472.4588 391.44777 M 472.5516 391.44203 L 464.47215 393.49747 M 464.48107 393.38965 L 463.81907 811.1844" stroke="gray" stroke-linecap="round" stroke-linejoin="round" stroke-width=".25"/>
      </g>
      <g id="Graphic_10">
        <path d="M 511.00565 370.59045 L 519.1711 373.70816 C 520.0291 374.03576 520.90594 374.31167 521.7969 374.5344 L 535.5141 377.9637 C 536.67576 378.25413 537.8583 378.4534 539.051 378.55966 L 556.57715 380.1214 C 557.165 380.1738 557.75464 380.2035 558.3448 380.21054 L 573.8237 380.3948 C 574.11404 380.39827 574.4044 380.39623 574.6947 380.3887 L 589.118 380.01406 C 589.4788 380.0047 589.8393 379.98683 590.19924 379.9605 L 604.5705 378.90893 C 605.562 378.8364 606.54766 378.69964 607.5214 378.49956 L 619.0944 376.12155 C 620.1364 375.90744 621.16226 375.6213 622.16465 375.2652 L 633.91664 371.09014 C 635.007 370.70277 636.2102 371.23354 636.65925 372.3 L 636.65925 372.3 C 637.1814 373.5401 637.3334 374.90485 637.09685 376.22945 L 636.9164 377.24014 C 636.6126 378.9413 636.11806 380.6028 635.44214 382.1932 L 633.8989 385.8243 C 633.34035 387.1386 632.6606 388.39798 631.8685 389.5862 L 628.1827 395.11485 C 627.4352 396.2361 626.5906 397.2895 625.6586 398.2629 L 619.36354 404.83774 C 618.4955 405.7444 617.5546 406.57846 616.55046 407.3316 L 608.17555 413.61277 C 607.29914 414.2701 606.3769 414.86394 605.4158 415.3898 L 598.2306 419.32133 C 596.9195 420.03874 595.5416 420.62664 594.1164 421.0767 L 587.4435 423.18393 C 585.7266 423.7261 583.952 424.0648 582.1561 424.1931 L 575.2697 424.68497 C 574.1974 424.76156 573.121 424.7629 572.04854 424.6889 L 563.6123 424.1071 C 562.5781 424.0358 561.54994 423.89463 560.5348 423.6846 L 553.3996 422.20835 C 551.44765 421.8045 549.5565 421.1486 547.7736 420.2572 L 543.1142 417.9275 C 541.8801 417.3104 540.70397 416.58354 539.6001 415.75566 L 533.91816 411.4942 C 533.479 411.16483 533.0518 410.81987 532.6374 410.45995 L 526.8822 405.46203 C 526.0679 404.7549 525.30436 403.99135 524.5972 403.17706 L 520.192 398.10438 C 519.4379 397.236 518.75 396.3123 518.13406 395.34105 L 514.40036 389.4533 C 514.0398 388.8847 513.70437 388.30056 513.39505 387.70255 L 511.7747 384.56983 C 511.16553 383.39215 510.65936 382.164 510.2618 380.8991 L 508.9816 376.82562 C 508.7668 376.14225 508.5841 375.4492 508.434 374.7488 L 508.35925 374.4 C 508.1646 373.49157 508.27185 372.54443 508.6647 371.70254 L 508.75925 371.5 C 509.1537 370.6547 510.1342 370.2577 511.00565 370.59045 Z" fill="url(#Obj_Gradient)"/>
        <path d="M 511.00565 370.59045 L 519.1711 373.70816 C 520.0291 374.03576 520.90594 374.31167 521.7969 374.5344 L 535.5141 377.9637 C 536.67576 378.25413 537.8583 378.4534 539.051 378.55966 L 556.57715 380.1214 C 557.165 380.1738 557.75464 380.2035 558.3448 380.21054 L 573.8237 380.3948 C 574.11404 380.39827 574.4044 380.39623 574.6947 380.3887 L 589.118 380.01406 C 589.4788 380.0047 589.8393 379.98683 590.19924 379.9605 L 604.5705 378.90893 C 605.562 378.8364 606.54766 378.69964 607.5214 378.49956 L 619.0944 376.12155 C 620.1364 375.90744 621.16226 375.6213 622.16465 375.2652 L 633.91664 371.09014 C 635.007 370.70277 636.2102 371.23354 636.65925 372.3 L 636.65925 372.3 C 637.1814 373.5401 637.3334 374.90485 637.09685 376.22945 L 636.9164 377.24014 C 636.6126 378.9413 636.11806 380.6028 635.44214 382.1932 L 633.8989 385.8243 C 633.34035 387.1386 632.6606 388.39798 631.8685 389.5862 L 628.1827 395.11485 C 627.4352 396.2361 626.5906 397.2895 625.6586 398.2629 L 619.36354 404.83774 C 618.4955 405.7444 617.5546 406.57846 616.55046 407.3316 L 608.17555 413.61277 C 607.29914 414.2701 606.3769 414.86394 605.4158 415.3898 L 598.2306 419.32133 C 596.9195 420.03874 595.5416 420.62664 594.1164 421.0767 L 587.4435 423.18393 C 585.7266 423.7261 583.952 424.0648 582.1561 424.1931 L 575.2697 424.68497 C 574.1974 424.76156 573.121 424.7629 572.04854 424.6889 L 563.6123 424.1071 C 562.5781 424.0358 561.54994 423.89463 560.5348 423.6846 L 553.3996 422.20835 C 551.44765 421.8045 549.5565 421.1486 547.7736 420.2572 L 543.1142 417.9275 C 541.8801 417.3104 540.70397 416.58354 539.6001 415.75566 L 533.91816 411.4942 C 533.479 411.16483 533.0518 410.81987 532.6374 410.45995 L 526.8822 405.46203 C 526.0679 404.7549 525.30436 403.99135 524.5972 403.17706 L 520.192 398.10438 C 519.4379 397.236 518.75 396.3123 518.13406 395.34105 L 514.40036 389.4533 C 514.0398 388.8847 513.70437 388.30056 513.39505 387.70255 L 511.7747 384.56983 C 511.16553 383.39215 510.65936 382.164 510.2618 380.8991 L 508.9816 376.82562 C 508.7668 376.14225 508.5841 375.4492 508.434 374.7488 L 508.35925 374.4 C 508.1646 373.49157 508.27185 372.54443 508.6647 371.70254 L 508.75925 371.5 C 509.1537 370.6547 510.1342 370.2577 511.00565 370.59045 Z" stroke="#7f8080" stroke-linecap="round" stroke-linejoin="round" stroke-width="1"/>
      </g>
      <g id="Graphic_9">
        <path d="M 710.987 455.639 L 747.187 534.639 L 756.987 530.839 L 715.987 445.839 Z" fill="red"/>
        <path d="M 710.945 455.5473 L 747.1569 534.6565 M 747.0293 534.6241 L 757.0246 530.86645 M 756.9733 530.9592 L 715.9321 445.76797 M 716.0029 445.766 L 710.9324 455.74644 M 710.9615 455.5313 L 747.1515 534.56756 M 747.04305 534.6036 L 756.95715 530.87654 M 756.9866 530.9447 L 715.9769 445.8252 M 716.0269 445.7546 L 711.0029 455.6235" stroke="gray" stroke-linecap="round" stroke-linejoin="round" stroke-width=".25"/>
      </g>
      <g id="Graphic_8">
        <path d="M 709.8 457.4 L 747.567 535.019 L 749 539 L 754.2 537.2 L 756.4 536.4 L 758.8 535.4 L 757.367 531.219 L 716 446 Z" fill="red"/>
        <path d="M 709.7862 457.37156 L 747.5551 535.07367 M 747.4813 534.8978 L 749.0532 539.0698 M 748.9145 539.01545 L 754.35145 537.1913 M 754.1561 537.2615 L 756.4428 536.38626 M 756.3597 536.4201 L 758.8446 535.3178 M 758.8139 535.3833 L 757.2953 531.1968 M 757.3582 531.3409 L 715.9893 445.9657 M 716.0696 445.9848 L 709.7811 457.4344 M 709.8102 457.35187 L 747.5445 534.9857 M 747.5074 534.87826 L 749.0367 538.964 M 748.9262 538.9881 L 754.2662 537.19794 M 754.1666 537.23246 L 756.4038 536.3773 M 756.3714 536.3958 L 758.8109 535.3177 M 758.8265 535.36876 L 757.3244 531.2407 M 757.3725 531.3259 L 716.0353 446.0438 M 716.0941 445.97406 L 709.8188 457.3861" stroke="gray" stroke-linecap="round" stroke-linejoin="round" stroke-width=".25"/>
      </g>
      <g id="Graphic_7">
        <path d="M 697.2 510.2 L 696.6 521 L 696.4 528.6 L 701.2 535.6 L 703 539.2 L 706.8 547 L 708.2 550.4 L 712.6 549.6 L 719 548 L 719.00326 546.8 L 714 535.4 L 710.2 528 L 705.6 521.6 L 702.4 516.6 Z" fill="red"/>
        <path d="M 697.2033 510.14395 L 696.5663 521.10024 M 696.5717 520.9906 L 696.3546 528.7321 M 696.3243 528.57944 L 701.22304 535.6759 M 701.1641 535.5686 L 703.02805 539.29104 M 702.9667 539.1674 L 706.7697 547.05234 M 706.7402 546.9871 L 708.1997 550.514 M 708.0747 550.481 L 712.7256 549.558 M 712.5229 549.60303 L 719.1161 547.9717 M 719.0178 548.0454 L 718.9384 546.7545 M 718.9805 546.89766 L 713.9991 535.4025 M 714.0373 535.482 L 710.0989 527.9562 M 710.165 528.0686 L 705.4868 521.4901 M 705.577 521.624 L 702.36025 516.4897 M 702.4533 516.62665 L 697.1758 510.1704 M 697.2209 510.12844 L 696.5911 521.0074 M 696.5888 520.975 L 696.38704 528.6123 M 696.3452 528.56014 L 701.2205 535.6323 M 701.1911 535.54727 L 703.0065 539.17785 M 702.9848 539.15054 L 706.7781 546.9954 M 706.7604 546.96954 L 708.20104 550.4417 M 708.0885 550.4562 L 712.6354 549.5595 M 712.5374 549.5829 L 719.0302 547.9801 M 719.0243 548.03035 L 718.9527 546.7927 M 718.9925 546.88364 L 714.03126 535.4256 M 714.0418 535.4722 L 710.1402 528.0213 M 710.1767 528.05574 L 705.544 521.55715 M 705.5838 521.6139 L 702.4346 516.5751 M 702.4658 516.6136 L 697.204 510.19385" stroke="gray" stroke-linecap="round" stroke-linejoin="round" stroke-width=".25"/>
      </g>
      <g id="Graphic_6">
        <path d="M 728 422.8 L 734.6 428.8 L 739.6 433.4 L 744.8 441 L 749.6 449.2 L 753.4 455.6 L 758.4 465.2 L 762 473.6 L 765.6 481.8 L 769.4 491 L 774.6 503.6 L 779.2 519 L 781.4 525.6 L 783.2 524.6 L 784.4 523.8 L 789 520.6 L 787.4 513.8 L 783.8 504 L 780.4 494.2 L 777.2 486.2 L 773.4 477.2 L 768.6 466.4 L 766 460.6 L 760.2 449.2 L 754.8 439.2 L 753 435.8 L 749.4 430.8 L 745 424.8 L 740.8 420 L 733.8 413.8 Z" fill="red"/>
        <path d="M 727.9406 422.7454 L 734.6449 428.913 M 734.5543 428.83054 L 739.70525 433.4254 M 739.5646 433.26696 L 744.7864 440.99584 M 744.7169 440.8843 L 749.60075 449.2433 M 749.5536 449.1636 L 753.4954 455.67363 M 753.3815 455.4717 L 758.4316 465.21044 M 758.362 465.05763 L 762.0548 473.7368 M 761.9815 473.56714 L 765.6463 481.8133 M 765.6081 481.72283 L 769.3988 491.0676 M 769.3505 490.9508 L 774.6706 503.75053 M 774.6029 503.56126 L 779.2754 519.1028 M 779.2216 518.92974 L 781.35865 525.6376 M 781.267 525.639 L 783.235 524.54804 M 783.0691 524.6478 L 784.4129 523.78324 M 784.2734 523.87664 L 789.0822 520.5782 M 789.0406 520.7342 L 787.3507 513.6426 M 787.4075 513.83625 L 783.8147 503.8768 M 783.8872 504.07904 L 780.3438 494.13363 M 780.4076 494.3011 L 777.1242 486.075 M 777.184 486.22067 L 773.3718 477.18474 M 773.4311 477.32124 L 768.5154 466.33147 M 768.5557 466.42134 L 765.9201 460.55493 M 765.9881 460.69926 L 760.1575 449.1595 M 760.2276 449.2924 L 754.773 439.1358 M 754.85275 439.28493 L 752.9544 435.71805 M 753.0409 435.8476 L 749.3268 430.76314 M 749.3843 430.84216 L 744.9275 424.7037 M 745.0299 424.8326 L 740.7372 419.97186 M 740.8205 420.0576 L 733.737 413.71084 M 733.8645 413.7221 L 727.97915 422.8323 M 727.9633 422.72213 L 734.60345 428.8431 M 734.5748 428.8094 L 739.6432 433.3264 M 739.5807 433.251 L 744.7752 440.9287 M 744.7422 440.86305 L 749.5924 449.1715 M 749.5792 449.14193 L 753.4485 455.55194 M 753.4032 455.45297 L 758.4302 465.14154 M 758.37915 465.04135 L 762.03365 473.6099 M 762.0023 473.5492 L 765.6453 481.75936 M 765.636 481.7022 L 769.4099 491.01885 M 769.3747 490.9316 L 774.6528 503.6385 M 774.6223 503.5445 L 779.2731 519.0112 M 779.2378 518.91396 L 781.368 525.57774 M 781.276 525.6114 L 783.1696 524.5719 M 783.078 524.62176 L 784.3665 523.78975 M 784.283 523.8523 L 789.0249 520.60133 M 789.0559 520.7186 L 787.3815 513.7359 M 787.4164 513.8231 L 783.8522 503.95224 M 783.9019 504.0637 L 780.3841 494.1882 M 780.4128 494.28967 L 777.1599 486.13564 M 777.1884 486.20976 L 773.4063 477.24204 M 773.4337 477.31145 L 768.553 466.3763 M 768.5622 466.4098 L 765.9609 460.63355 M 765.9947 460.6882 L 760.1904 449.1857 M 760.2384 449.27935 L 754.8264 439.19915 M 754.868 439.2695 L 752.9799 435.7494 M 753.0525 435.83493 L 749.3539 430.7847 M 749.397 430.8287 L 744.9839 424.7702 M 745.0344 424.82677 L 740.7991 420.01 M 740.8327 420.0458 L 733.8369 413.77294 M 733.8919 413.7141 L 728.023 422.78916" stroke="gray" stroke-linecap="round" stroke-linejoin="round" stroke-width=".25"/>
      </g>
      <g id="Graphic_5">
        <path d="M 437.5727 461.76066 L 401.3727 540.7607 L 393.8 538.4 L 391.5727 536.9607 L 433.4 450.2 Z" fill="red"/>
        <path d="M 437.6165 461.66505 L 401.34254 540.80485 M 401.4287 540.7485 L 393.64166 538.3613 M 393.79824 538.424 L 391.5338 536.887 M 391.57656 536.98556 L 433.407 450.08366 M 433.33563 450.12016 L 437.61496 461.87676 M 437.63496 461.6507 L 401.4037 540.7223 M 401.44043 540.7456 L 393.7722 538.38826 M 393.80807 538.4169 L 391.61057 536.9276 M 391.58353 536.9658 L 433.37014 450.1661 M 433.36396 450.0999 L 437.59297 461.74335" stroke="gray" stroke-linecap="round" stroke-linejoin="round" stroke-width=".25"/>
      </g>
      <g id="Graphic_4">
        <path d="M 449.2173 513.2864 L 449.8173 524.0864 L 450.0173 531.6864 L 445.2173 538.6864 L 443.4173 542.2864 L 441.8 545.2 L 440.6 548.2 L 439.4 551 L 428.8 548.8 L 432.4173 538.4864 L 436.2173 531.0864 L 440.8173 524.6864 L 444.0173 519.6864 Z" fill="red"/>
        <path d="M 449.21523 513.2505 L 449.84117 524.17576 M 449.83477 524.0281 L 450.04 531.76834 M 450.0901 531.65747 L 445.13545 538.7709 M 445.21576 538.6455 L 443.3338 542.32345 M 443.42347 542.15684 L 441.69166 545.2865 M 441.7689 545.12705 L 440.52004 548.2595 M 440.55186 548.1809 L 439.37013 551.0443 M 439.48115 551.0245 L 428.7563 548.8361 M 428.8353 548.925 L 432.402 538.37896 M 432.33584 538.53534 L 436.17044 531.0184 M 436.0882 531.13875 L 440.8909 524.657 M 440.7863 524.8138 L 443.99635 519.7077 M 443.9482 519.7752 L 449.23913 513.2595 M 449.2423 513.23424 L 449.8623 524.07874 M 449.854 524.01235 L 450.05826 531.7151 M 450.1094 531.6444 L 445.2138 538.669 M 445.23853 538.63355 L 443.382 542.24826 M 443.4512 542.1479 L 441.7674 545.18856 M 441.7942 545.1153 L 440.56446 548.20184 M 440.56925 548.166 L 439.4073 550.9917 M 439.4952 551.0165 L 428.871 548.8557 M 428.84546 548.9075 L 432.3761 538.4375 M 432.34777 538.51783 L 436.16876 531.03194 M 436.1019 531.1217 L 440.86654 524.69496 M 440.79547 524.7941 L 443.9807 519.7231 M 443.95797 519.75485 L 449.22925 513.2678" stroke="gray" stroke-linecap="round" stroke-linejoin="round" stroke-width=".25"/>
      </g>
      <g id="Graphic_3">
        <path d="M 419.9 423.44614 L 413.3 429.44614 L 408.3 434.04614 L 403.1 441.64614 L 398.3 449.84614 L 394.5 456.24614 L 389.5 465.84614 L 385.9 474.24614 L 382.3 482.44615 L 378.5 491.64615 L 373.3 504.24615 L 368.7 519.64615 L 366.4 526.4 L 364.2 525.2 L 363.2 524.6 L 358.2 521.6 L 360.5 514.44615 L 363.7 504.44615 L 367.5 494.84615 L 370.7 486.84615 L 374.5 477.84614 L 379.3 467.04614 L 381.9 461.24614 L 387.7 449.84614 L 393.1 439.84614 L 394.9 436.44614 L 398.5 431.44614 L 402.9 425.44614 L 407.1 420.64614 L 414.1 414.44614 Z" fill="red"/>
        <path d="M 419.9445 423.4052 L 413.27505 429.5472 M 413.394 429.4394 L 408.22516 434.0437 M 408.28047 433.9819 L 403.1334 441.69863 M 403.2153 441.5636 L 398.30104 449.9176 M 398.4225 449.71347 L 394.47364 456.2737 M 394.54793 456.14315 L 389.44535 465.9271 M 389.484 465.84575 L 385.8545 474.3495 M 385.90097 474.2429 L 382.231 482.5194 M 382.2779 482.4078 L 378.4826 491.70497 M 378.53815 491.5707 L 373.21734 504.30995 M 373.2736 504.1547 L 368.70695 519.7274 M 368.7522 519.5892 L 366.33198 526.4478 M 366.40928 526.3893 L 364.1176 525.1515 M 364.30796 525.25364 L 363.11822 524.61926 M 363.23328 524.68637 L 358.08997 521.57856 M 358.1754 521.6973 L 360.54906 514.41413 M 360.4877 514.6062 L 363.69054 504.41786 M 363.6533 504.5214 L 367.50414 494.803 M 367.44966 494.9398 L 370.7609 486.69074 M 370.70094 486.83805 L 374.50925 477.8241 M 374.4528 477.9513 L 379.39 466.9927 M 379.31336 467.16763 L 381.87524 461.221 M 381.8199 461.34284 L 387.68284 449.72787 M 387.6047 449.8759 L 393.15978 439.76275 M 393.08153 439.9075 L 394.9884 436.28945 M 394.8958 436.44536 L 398.5653 431.4259 M 398.52286 431.48446 L 402.8662 425.4485 M 402.8039 425.524 L 407.14414 420.62366 M 407.0576 420.7073 L 414.1902 414.40345 M 414.0953 414.35156 L 419.9295 423.49237 M 419.96294 423.3926 L 413.3556 429.48096 M 413.41595 429.4309 L 408.27555 433.9974 M 408.3079 433.9741 L 403.1762 441.65635 M 403.2365 441.55123 L 398.3893 449.8074 M 398.44423 449.7015 L 394.5381 456.1823 M 394.57437 456.13317 L 389.4934 465.87534 M 389.5087 465.834 L 385.9013 474.29066 M 385.9247 474.23084 L 382.27626 482.4715 M 382.3026 482.3959 L 378.5251 491.6331 M 378.56244 491.5587 L 373.2764 504.21106 M 373.29835 504.1417 L 368.7454 519.6545 M 368.771 519.5747 L 366.3805 526.3491 M 366.4211 526.38075 L 364.2205 525.1915 M 364.32146 525.242 L 363.1659 524.6254 M 363.24844 524.6715 L 358.2072 521.62904 M 358.17904 521.67775 L 360.52696 514.4812 M 360.4941 514.5877 L 363.68587 504.44644 M 363.66583 504.50456 L 367.4789 494.8648 M 367.4633 494.92336 L 370.72485 486.7799 M 370.70378 486.817 L 374.50335 477.83574 M 374.4547 477.92946 L 379.3754 467.04145 M 379.31875 467.1476 L 381.8542 461.28855 M 381.83444 461.32666 L 387.6613 449.78274 M 387.6066 449.85276 L 393.12114 439.8321 M 393.08527 439.8856 L 394.9361 436.37193 M 394.9051 436.4251 L 398.55445 431.43135 M 398.5332 431.465 L 402.84977 425.4512 M 402.80903 425.4991 L 407.12613 420.6367 M 407.06894 420.68683 L 414.1635 414.4195 M 414.11904 414.33076 L 419.9166 423.4299" stroke="gray" stroke-linecap="round" stroke-linejoin="round" stroke-width=".25"/>
      </g>
      <g id="Line_2">
        <line x1="571.94256" y1="425.70915" x2="571.4474" y2="818.30915" stroke="#ff2600" stroke-linecap="round" stroke-linejoin="round" stroke-width=".8"/>
      </g>
    </g>
  </g>
</svg>
