<?xml version="1.0" encoding="UTF-8" standalone="no"?>
<!DOCTYPE svg PUBLIC "-//W3C//DTD SVG 1.1//EN" "http://www.w3.org/Graphics/SVG/1.1/DTD/svg11.dtd">
<svg xmlns="http://www.w3.org/2000/svg" version="1.1" xmlns:dc="http://purl.org/dc/elements/1.1/" xmlns:xl="http://www.w3.org/1999/xlink" viewBox="-146 -73 433 449" width="433" height="449">
  <defs>
    <radialGradient cx="0" cy="0" r="1" id="Gradient" gradientUnits="userSpaceOnUse">
      <stop offset="0" stop-color="#cbcbcb"/>
      <stop offset=".4338305" stop-color="#737373"/>
      <stop offset="1" stop-color="black"/>
    </radialGradient>
    <radialGradient id="Obj_Gradient" xl:href="#Gradient" gradientTransform="translate(69.75925 -44.6) scale(70.26272)"/>
    <radialGradient cx="0" cy="0" r="1" id="Gradient_2" gradientUnits="userSpaceOnUse">
      <stop offset="0" stop-color="#fbfbfb"/>
      <stop offset=".5620857" stop-color="#a5a5a5"/>
      <stop offset="1" stop-color="#3e3e3e"/>
    </radialGradient>
    <radialGradient id="Obj_Gradient_2" xl:href="#Gradient_2" gradientTransform="translate(70.702645 152.34086) scale(274.22775)"/>
  </defs>
  <metadata> Produced by OmniGraffle 7.19.2\n2022-01-17 18:27:43 +0000</metadata>
  <g id="Canvas_1" stroke-opacity="1" stroke-dasharray="none" fill-opacity="1" stroke="none" fill="none">
    <title>Canvas 1</title>
    <g id="Canvas_1_Layer_1">
      <title>Layer 1</title>
      <g id="Graphic_12">
        <path d="M 8.005654 -71.40955 L 16.171106 -68.291836 C 17.029097 -67.96424 17.90594 -67.68833 18.796923 -67.46558 L 32.5141 -64.03629 C 33.67576 -63.74587 34.85832 -63.54662 36.051005 -63.44034 L 53.57715 -61.8786 C 54.165 -61.82622 54.754643 -61.79648 55.34478 -61.78946 L 70.823695 -61.605185 C 71.11404 -61.60173 71.40442 -61.60377 71.69469 -61.61131 L 86.118 -61.98594 C 86.47878 -61.99531 86.8393 -62.013174 87.19924 -62.03951 L 101.57053 -63.09107 C 102.56197 -63.16361 103.54766 -63.30036 104.5214 -63.50044 L 116.09436 -65.87845 C 117.13637 -66.09256 118.16226 -66.3787 119.16465 -66.73481 L 130.91664 -70.90986 C 132.00702 -71.29723 133.21021 -70.76646 133.65925 -69.7 L 133.65925 -69.7 C 134.1814 -68.459894 134.33338 -67.09515 134.09685 -65.77055 L 133.91637 -64.75986 C 133.61259 -63.058706 133.11806 -61.397204 132.44214 -59.80681 L 130.89892 -56.17569 C 130.34035 -54.86142 129.6606 -53.602025 128.86846 -52.41382 L 125.18268 -46.88515 C 124.43517 -45.763886 123.59057 -44.710487 122.65861 -43.73711 L 116.36354 -37.162263 C 115.49547 -36.25561 114.55463 -35.42154 113.55046 -34.668407 L 105.17555 -28.38723 C 104.29914 -27.729916 103.37688 -27.13606 102.41582 -26.610197 L 95.23062 -22.678672 C 93.91949 -21.961265 92.54156 -21.373362 91.11638 -20.923302 L 84.44347 -18.816068 C 82.72659 -18.273897 80.952 -17.935195 79.15613 -17.80692 L 72.269675 -17.31503 C 71.19738 -17.238437 70.12103 -17.237118 69.048545 -17.311082 L 60.61229 -17.892893 C 59.57811 -17.964216 58.54994 -18.105373 57.534806 -18.3154 L 50.3996 -19.79165 C 48.44765 -20.195503 46.556474 -20.851386 44.77362 -21.742815 L 40.11421 -24.07252 C 38.88007 -24.689587 37.703967 -25.41646 36.60012 -26.244345 L 30.918163 -30.505813 C 30.479027 -30.835165 30.051822 -31.180132 29.63737 -31.54005 L 23.88219 -36.53797 C 23.067903 -37.245115 22.304363 -38.008655 21.59722 -38.82294 L 17.191995 -43.895624 C 16.437892 -44.763985 15.749984 -45.687685 15.13406 -46.65895 L 11.400357 -52.54671 C 11.039791 -53.115296 10.704365 -53.69944 10.395049 -54.29745 L 8.774675 -57.430173 C 8.165531 -58.60785 7.659362 -59.836 7.261825 -61.10089 L 5.981586 -65.17438 C 5.766811 -65.85775 5.5840785 -66.55079 5.433986 -67.25122 L 5.3592476 -67.6 C 5.164585 -68.508426 5.2718463 -69.45557 5.6647274 -70.29746 L 5.7592476 -70.5 C 6.153724 -71.34531 7.134195 -71.74229 8.005654 -71.40955 Z" fill="url(#Obj_Gradient)"/>
        <path d="M 8.005654 -71.40955 L 16.171106 -68.291836 C 17.029097 -67.96424 17.90594 -67.68833 18.796923 -67.46558 L 32.5141 -64.03629 C 33.67576 -63.74587 34.85832 -63.54662 36.051005 -63.44034 L 53.57715 -61.8786 C 54.165 -61.82622 54.754643 -61.79648 55.34478 -61.78946 L 70.823695 -61.605185 C 71.11404 -61.60173 71.40442 -61.60377 71.69469 -61.61131 L 86.118 -61.98594 C 86.47878 -61.99531 86.8393 -62.013174 87.19924 -62.03951 L 101.57053 -63.09107 C 102.56197 -63.16361 103.54766 -63.30036 104.5214 -63.50044 L 116.09436 -65.87845 C 117.13637 -66.09256 118.16226 -66.3787 119.16465 -66.73481 L 130.91664 -70.90986 C 132.00702 -71.29723 133.21021 -70.76646 133.65925 -69.7 L 133.65925 -69.7 C 134.1814 -68.459894 134.33338 -67.09515 134.09685 -65.77055 L 133.91637 -64.75986 C 133.61259 -63.058706 133.11806 -61.397204 132.44214 -59.80681 L 130.89892 -56.17569 C 130.34035 -54.86142 129.6606 -53.602025 128.86846 -52.41382 L 125.18268 -46.88515 C 124.43517 -45.763886 123.59057 -44.710487 122.65861 -43.73711 L 116.36354 -37.162263 C 115.49547 -36.25561 114.55463 -35.42154 113.55046 -34.668407 L 105.17555 -28.38723 C 104.29914 -27.729916 103.37688 -27.13606 102.41582 -26.610197 L 95.23062 -22.678672 C 93.91949 -21.961265 92.54156 -21.373362 91.11638 -20.923302 L 84.44347 -18.816068 C 82.72659 -18.273897 80.952 -17.935195 79.15613 -17.80692 L 72.269675 -17.31503 C 71.19738 -17.238437 70.12103 -17.237118 69.048545 -17.311082 L 60.61229 -17.892893 C 59.57811 -17.964216 58.54994 -18.105373 57.534806 -18.3154 L 50.3996 -19.79165 C 48.44765 -20.195503 46.556474 -20.851386 44.77362 -21.742815 L 40.11421 -24.07252 C 38.88007 -24.689587 37.703967 -25.41646 36.60012 -26.244345 L 30.918163 -30.505813 C 30.479027 -30.835165 30.051822 -31.180132 29.63737 -31.54005 L 23.88219 -36.53797 C 23.067903 -37.245115 22.304363 -38.008655 21.59722 -38.82294 L 17.191995 -43.895624 C 16.437892 -44.763985 15.749984 -45.687685 15.13406 -46.65895 L 11.400357 -52.54671 C 11.039791 -53.115296 10.704365 -53.69944 10.395049 -54.29745 L 8.774675 -57.430173 C 8.165531 -58.60785 7.659362 -59.836 7.261825 -61.10089 L 5.981586 -65.17438 C 5.766811 -65.85775 5.5840785 -66.55079 5.433986 -67.25122 L 5.3592476 -67.6 C 5.164585 -68.508426 5.2718463 -69.45557 5.6647274 -70.29746 L 5.7592476 -70.5 C 6.153724 -71.34531 7.134195 -71.74229 8.005654 -71.40955 Z" stroke="#7f8080" stroke-linecap="round" stroke-linejoin="round" stroke-width="1"/>
      </g>
      <g id="Graphic_11">
        <path d="M -56.026545 365.2638 L -42.284304 367.55416 C -42.10093 367.5847 -41.91703 367.6121 -41.7327 367.63624 L -13.37906 371.35154 C -13.132532 371.38385 -12.885285 371.4104 -12.637519 371.4312 L 17.60537 373.9677 C 17.862274 373.98923 18.119662 374.00456 18.377307 374.01367 L 57.30822 375.39 C 57.49658 375.39668 57.685045 375.4 57.87352 375.4 L 89.34084 375.4 C 89.50746 375.4 89.67407 375.3974 89.8406 375.3922 L 114.87539 374.60986 C 115.08563 374.6033 115.29573 374.59258 115.50555 374.57772 L 137.5533 373.0168 C 137.71161 373.0056 137.86975 372.99205 138.02766 372.97614 L 163.28815 370.4305 C 163.48989 370.41017 163.69122 370.386 163.89204 370.35803 L 187.68474 367.04265 C 187.88875 367.01422 188.0922 366.98186 188.29496 366.94558 L 197.49079 365.3 C 202.8179 364.34674 206.46876 359.3931 205.80234 354.02255 L 203.59475 336.232 C 203.5921 336.21066 203.5895 336.18934 203.58695 336.168 L 200.02312 306.4695 C 200.00157 306.28985 199.98306 306.10985 199.9676 305.9296 L 197.60539 278.37037 C 197.59565 278.2568 197.58713 278.14312 197.57983 278.02936 L 196.1932 256.43772 C 196.1916 256.41258 196.18992 256.38744 196.18818 256.3623 L 194.59603 233.276 C 194.59253 233.22533 194.58928 233.17466 194.58627 233.12398 L 193.4099 213.3218 C 193.39716 213.1073 193.38874 212.89255 193.38465 212.6777 L 192.99236 192.08285 C 192.9913 192.02762 192.98997 191.9724 192.98835 191.91718 L 192.39322 171.68283 C 192.3916 171.62761 192.39026 171.57239 192.3892 171.51715 L 191.99855 151.00761 C 191.99337 150.73592 191.99512 150.46413 192.0038 150.19253 L 192.58973 131.83292 C 192.59044 131.81097 192.59118 131.78903 192.59197 131.7671 L 193.38005 109.89779 C 193.3872 109.69928 193.39806 109.50093 193.4126 109.30283 L 194.97007 88.08221 C 194.98388 87.89409 194.99436 87.70573 195.0015 87.51724 L 195.75596 67.61837 C 195.77915 67.00663 195.83744 66.39672 195.93052 65.79165 L 198.66953 47.988134 C 198.7503 47.463036 198.8572 46.94229 198.9898 46.427825 L 203.61806 28.470174 C 203.73316 28.0236 203.8675 27.582213 204.02073 27.147247 L 209.74152 10.907606 C 209.9076 10.436128 210.0957 9.972693 210.30517 9.518826 L 215.83673 -2.4662132 C 215.93942 -2.6887077 216.0472 -2.9088137 216.16 -3.126357 L 221.52223 -13.467783 C 221.56793 -13.555925 221.61446 -13.64364 221.6618 -13.730917 L 226.87777 -23.34788 C 227.61505 -24.707236 228.56468 -25.940134 229.69079 -27 L 229.69079 -27 C 230.36598 -27.635472 230.39817 -28.697974 229.7627 -29.373163 C 229.6382 -29.50544 229.49307 -29.616634 229.33295 -29.70241 L 226.1188 -31.42427 C 225.90016 -31.541407 225.6788 -31.653443 225.45494 -31.760288 L 217.60097 -35.508776 C 217.19436 -35.70284 216.77974 -35.87964 216.3582 -36.038707 L 206.68338 -39.68959 C 206.48833 -39.76319 206.29187 -39.83297 206.0941 -39.898893 L 193.39963 -44.130385 C 193.2604 -44.17679 193.12055 -44.22128 192.9801 -44.26384 L 180.09658 -48.16794 C 180.02605 -48.18931 179.95567 -48.21117 179.88544 -48.23352 L 167.38144 -52.21206 C 166.98782 -52.33731 166.5992 -52.47775 166.21643 -52.63307 L 154.24049 -57.49287 C 153.40883 -57.83036 152.60704 -58.237225 151.8436 -58.709166 L 142.22436 -64.65561 C 142.06865 -64.75186 141.91461 -64.85078 141.7623 -64.95232 L 136.8722 -68.212384 C 135.89081 -68.86665 135.0195 -69.67255 134.29078 -70.6 L 134.29078 -70.6 C 134.18518 -70.734404 133.99062 -70.75775 133.85621 -70.65215 C 133.75347 -70.57142 133.7125 -70.43487 133.75381 -70.31092 L 133.89078 -69.9 C 134.35003 -68.52225 134.4546 -67.05096 134.1948 -65.62211 L 133.79967 -63.448845 C 133.52845 -61.95719 133.04661 -60.51165 132.36858 -59.155595 L 130.83626 -56.09096 C 130.53956 -55.49756 130.20624 -54.92319 129.83823 -54.371175 L 126.63453 -49.56562 C 126.20593 -48.922717 125.73132 -48.31171 125.21443 -47.737385 L 120.65238 -42.668445 C 120.61132 -42.622815 120.56999 -42.57742 120.5284 -42.53227 L 114.53417 -36.02424 C 113.90643 -35.3427 113.22068 -34.71698 112.48465 -34.15413 L 107.46047 -30.312113 C 107.01432 -29.97094 106.55052 -29.653496 106.07099 -29.3611 L 99.58458 -25.405974 C 98.92292 -25.002524 98.23283 -24.647678 97.51975 -24.344238 L 90.40434 -21.316404 C 89.59667 -20.972717 88.76209 -20.696074 87.90905 -20.489277 L 83.82999 -19.500414 C 83.00516 -19.300454 82.16573 -19.166442 81.31963 -19.099645 L 75.619425 -18.649629 C 75.20049 -18.616555 74.78042 -18.6 74.360186 -18.6 L 67.32787 -18.6 C 66.57077 -18.6 65.81462 -18.653737 65.06513 -18.760807 L 57.11868 -19.896014 C 56.63367 -19.9653 56.1521 -20.056828 55.67549 -20.170307 L 49.714264 -21.589647 C 48.56878 -21.862382 47.4569 -22.260734 46.39883 -22.777466 L 40.118824 -25.844444 C 39.633774 -26.08133 39.161023 -26.34261 38.702383 -26.627282 L 34.49052 -29.241542 C 33.89135 -29.61344 33.317424 -30.024544 32.772495 -30.472165 L 28.32639 -34.124323 C 28.102693 -34.308073 27.884024 -34.49786 27.670626 -34.693477 L 23.868283 -38.178957 C 23.416988 -38.592644 22.989809 -39.031893 22.588852 -39.494535 L 18.470106 -44.246934 C 18.150724 -44.61545 17.848357 -44.99838 17.563952 -45.394514 L 13.134297 -51.56439 C 12.639405 -52.253704 12.200134 -52.981296 11.820642 -53.74028 L 9.244178 -58.89321 C 9.208582 -58.9644 9.173517 -59.03586 9.138986 -59.107576 L 7.890782 -61.7 C 7.040068 -63.46687 6.684547 -65.43141 6.862088 -67.38436 L 7.042293 -69.36661 C 7.066098 -69.628476 6.8731155 -69.860055 6.6112534 -69.88386 C 6.4488584 -69.89862 6.290205 -69.82925 6.1907824 -69.7 L 6.1907824 -69.7 C 5.527336 -68.83752 4.747228 -68.07144 3.8728506 -67.423754 L -.02368278 -64.53743 C -.14736627 -64.445816 -.27236536 -64.35599 -.398641 -64.26798 L -5.0208914 -61.04641 C -6.2076275 -60.21929 -7.501048 -59.556924 -8.865798 -59.07742 L -13.472924 -57.4587 C -13.963495 -57.286335 -14.445372 -57.09016 -14.91684 -56.87087 L -21.763621 -53.686324 C -22.459783 -53.36253 -23.178348 -53.08926 -23.913747 -52.86864 L -34.784136 -49.607524 C -34.800857 -49.60251 -34.81757 -49.597464 -34.834276 -49.592393 L -45.802363 -46.262795 C -45.94026 -46.220933 -46.077586 -46.17721 -46.2143 -46.13164 L -59.135536 -41.82456 C -59.18466 -41.808187 -59.23386 -41.79205 -59.283136 -41.776155 L -70.65054 -38.10925 C -71.28903 -37.903287 -71.91393 -37.65737 -72.52154 -37.372956 L -80.453505 -33.66012 C -80.82384 -33.48677 -81.1874 -33.299287 -81.54338 -33.098083 L -87.48949 -29.737235 C -88.74253 -29.029 -89.18417 -27.439075 -88.47594 -26.18604 C -88.39882 -26.049603 -88.30955 -25.920398 -88.20922 -25.8 L -87.34511 -24.763066 C -86.59016 -23.857132 -85.93769 -22.87051 -85.39957 -21.821182 L -82.32243 -15.820763 C -82.24696 -15.673596 -82.16921 -15.527608 -82.08922 -15.382852 L -78.13446 -8.226632 C -78.05097 -8.075553 -77.96993 -7.923133 -77.89137 -7.769432 L -73.78307 .2685557 C -73.534 .75586505 -73.3101 1.2556324 -73.11224 1.765887 L -69.62947 10.747765 C -69.61597 10.782589 -69.602345 10.817366 -69.5886 10.852094 L -65.992276 19.93754 C -65.87027 20.245773 -65.75787 20.557723 -65.65524 20.87294 L -63.033404 28.925716 C -63.01728 28.97524 -63.0014 29.02484 -62.98576 29.07452 L -59.91371 38.83279 C -59.71092 39.47695 -59.549114 40.133306 -59.42927 40.797915 L -57.443955 51.80737 C -57.4208 51.93579 -57.39921 52.06448 -57.379205 52.193423 L -55.673335 63.186805 C -55.6306 63.46222 -55.595065 63.73871 -55.56677 64.01598 L -54.67935 72.7127 C -54.63262 73.17069 -54.60567 73.63048 -54.59859 74.09079 L -54.41435 86.06641 C -54.41093 86.28878 -54.40287 86.51105 -54.390185 86.73309 L -53.61981 100.21465 C -53.61275 100.33821 -53.604255 100.46169 -53.59433 100.58506 L -52.26076 117.15943 C -52.22641 117.58631 -52.20922 118.01439 -52.20922 118.44264 L -52.20922 130.89242 C -52.20922 131.09746 -52.20528 131.30247 -52.1974 131.50735 L -51.617046 146.5965 C -51.61183 146.73216 -51.608337 146.86789 -51.606574 147.00365 L -51.414415 161.7999 C -51.41095 162.0666 -51.414157 162.33333 -51.42403 162.59986 L -51.998256 178.10401 C -52.005564 178.30132 -52.00922 178.49875 -52.00922 178.6962 L -52.00922 192.29243 C -52.00922 192.49746 -52.01316 192.70247 -52.02104 192.90736 L -52.60623 208.12236 C -52.60822 208.17412 -52.610465 208.22588 -52.61296 208.27762 L -53.40828 224.78055 C -53.408906 224.79352 -53.409547 224.8065 -53.410203 224.81945 L -54.20469 240.51062 C -54.20771 240.5702 -54.21106 240.62978 -54.214744 240.68933 L -55.403655 259.91007 C -55.407364 259.97003 -55.41141 260.02996 -55.415794 260.08987 L -57.19893 284.45942 C -57.20579 284.55314 -57.21347 284.6468 -57.22198 284.7404 L -59.00787 304.3852 C -59.00877 304.39507 -59.009676 304.40494 -59.01059 304.4148 L -60.78136 323.4997 C -60.79993 323.6999 -60.82227 323.8997 -60.84838 324.09903 L -62.80909 339.07175 C -62.9419 340.08594 -63.21104 341.07756 -63.60922 342.01973 L -63.60922 342.01973 C -64.006794 342.96048 -64.25546 343.9574 -64.34629 344.97465 L -65.10922 353.51973 C -65.616975 359.20676 -61.65851 364.32512 -56.026545 365.2638 Z" fill="url(#Obj_Gradient_2)"/>
        <path d="M -56.026545 365.2638 L -42.284304 367.55416 C -42.10093 367.5847 -41.91703 367.6121 -41.7327 367.63624 L -13.37906 371.35154 C -13.132532 371.38385 -12.885285 371.4104 -12.637519 371.4312 L 17.60537 373.9677 C 17.862274 373.98923 18.119662 374.00456 18.377307 374.01367 L 57.30822 375.39 C 57.49658 375.39668 57.685045 375.4 57.87352 375.4 L 89.34084 375.4 C 89.50746 375.4 89.67407 375.3974 89.8406 375.3922 L 114.87539 374.60986 C 115.08563 374.6033 115.29573 374.59258 115.50555 374.57772 L 137.5533 373.0168 C 137.71161 373.0056 137.86975 372.99205 138.02766 372.97614 L 163.28815 370.4305 C 163.48989 370.41017 163.69122 370.386 163.89204 370.35803 L 187.68474 367.04265 C 187.88875 367.01422 188.0922 366.98186 188.29496 366.94558 L 197.49079 365.3 C 202.8179 364.34674 206.46876 359.3931 205.80234 354.02255 L 203.59475 336.232 C 203.5921 336.21066 203.5895 336.18934 203.58695 336.168 L 200.02312 306.4695 C 200.00157 306.28985 199.98306 306.10985 199.9676 305.9296 L 197.60539 278.37037 C 197.59565 278.2568 197.58713 278.14312 197.57983 278.02936 L 196.1932 256.43772 C 196.1916 256.41258 196.18992 256.38744 196.18818 256.3623 L 194.59603 233.276 C 194.59253 233.22533 194.58928 233.17466 194.58627 233.12398 L 193.4099 213.3218 C 193.39716 213.1073 193.38874 212.89255 193.38465 212.6777 L 192.99236 192.08285 C 192.9913 192.02762 192.98997 191.9724 192.98835 191.91718 L 192.39322 171.68283 C 192.3916 171.62761 192.39026 171.57239 192.3892 171.51715 L 191.99855 151.00761 C 191.99337 150.73592 191.99512 150.46413 192.0038 150.19253 L 192.58973 131.83292 C 192.59044 131.81097 192.59118 131.78903 192.59197 131.7671 L 193.38005 109.89779 C 193.3872 109.69928 193.39806 109.50093 193.4126 109.30283 L 194.97007 88.08221 C 194.98388 87.89409 194.99436 87.70573 195.0015 87.51724 L 195.75596 67.61837 C 195.77915 67.00663 195.83744 66.39672 195.93052 65.79165 L 198.66953 47.988134 C 198.7503 47.463036 198.8572 46.94229 198.9898 46.427825 L 203.61806 28.470174 C 203.73316 28.0236 203.8675 27.582213 204.02073 27.147247 L 209.74152 10.907606 C 209.9076 10.436128 210.0957 9.972693 210.30517 9.518826 L 215.83673 -2.4662132 C 215.93942 -2.6887077 216.0472 -2.9088137 216.16 -3.126357 L 221.52223 -13.467783 C 221.56793 -13.555925 221.61446 -13.64364 221.6618 -13.730917 L 226.87777 -23.34788 C 227.61505 -24.707236 228.56468 -25.940134 229.69079 -27 L 229.69079 -27 C 230.36598 -27.635472 230.39817 -28.697974 229.7627 -29.373163 C 229.6382 -29.50544 229.49307 -29.616634 229.33295 -29.70241 L 226.1188 -31.42427 C 225.90016 -31.541407 225.6788 -31.653443 225.45494 -31.760288 L 217.60097 -35.508776 C 217.19436 -35.70284 216.77974 -35.87964 216.3582 -36.038707 L 206.68338 -39.68959 C 206.48833 -39.76319 206.29187 -39.83297 206.0941 -39.898893 L 193.39963 -44.130385 C 193.2604 -44.17679 193.12055 -44.22128 192.9801 -44.26384 L 180.09658 -48.16794 C 180.02605 -48.18931 179.95567 -48.21117 179.88544 -48.23352 L 167.38144 -52.21206 C 166.98782 -52.33731 166.5992 -52.47775 166.21643 -52.63307 L 154.24049 -57.49287 C 153.40883 -57.83036 152.60704 -58.237225 151.8436 -58.709166 L 142.22436 -64.65561 C 142.06865 -64.75186 141.91461 -64.85078 141.7623 -64.95232 L 136.8722 -68.212384 C 135.89081 -68.86665 135.0195 -69.67255 134.29078 -70.6 L 134.29078 -70.6 C 134.18518 -70.734404 133.99062 -70.75775 133.85621 -70.65215 C 133.75347 -70.57142 133.7125 -70.43487 133.75381 -70.31092 L 133.89078 -69.9 C 134.35003 -68.52225 134.4546 -67.05096 134.1948 -65.62211 L 133.79967 -63.448845 C 133.52845 -61.95719 133.04661 -60.51165 132.36858 -59.155595 L 130.83626 -56.09096 C 130.53956 -55.49756 130.20624 -54.92319 129.83823 -54.371175 L 126.63453 -49.56562 C 126.20593 -48.922717 125.73132 -48.31171 125.21443 -47.737385 L 120.65238 -42.668445 C 120.61132 -42.622815 120.56999 -42.57742 120.5284 -42.53227 L 114.53417 -36.02424 C 113.90643 -35.3427 113.22068 -34.71698 112.48465 -34.15413 L 107.46047 -30.312113 C 107.01432 -29.97094 106.55052 -29.653496 106.07099 -29.3611 L 99.58458 -25.405974 C 98.92292 -25.002524 98.23283 -24.647678 97.51975 -24.344238 L 90.40434 -21.316404 C 89.59667 -20.972717 88.76209 -20.696074 87.90905 -20.489277 L 83.82999 -19.500414 C 83.00516 -19.300454 82.16573 -19.166442 81.31963 -19.099645 L 75.619425 -18.649629 C 75.20049 -18.616555 74.78042 -18.6 74.360186 -18.6 L 67.32787 -18.6 C 66.57077 -18.6 65.81462 -18.653737 65.06513 -18.760807 L 57.11868 -19.896014 C 56.63367 -19.9653 56.1521 -20.056828 55.67549 -20.170307 L 49.714264 -21.589647 C 48.56878 -21.862382 47.4569 -22.260734 46.39883 -22.777466 L 40.118824 -25.844444 C 39.633774 -26.08133 39.161023 -26.34261 38.702383 -26.627282 L 34.49052 -29.241542 C 33.89135 -29.61344 33.317424 -30.024544 32.772495 -30.472165 L 28.32639 -34.124323 C 28.102693 -34.308073 27.884024 -34.49786 27.670626 -34.693477 L 23.868283 -38.178957 C 23.416988 -38.592644 22.989809 -39.031893 22.588852 -39.494535 L 18.470106 -44.246934 C 18.150724 -44.61545 17.848357 -44.99838 17.563952 -45.394514 L 13.134297 -51.56439 C 12.639405 -52.253704 12.200134 -52.981296 11.820642 -53.74028 L 9.244178 -58.89321 C 9.208582 -58.9644 9.173517 -59.03586 9.138986 -59.107576 L 7.890782 -61.7 C 7.040068 -63.46687 6.684547 -65.43141 6.862088 -67.38436 L 7.042293 -69.36661 C 7.066098 -69.628476 6.8731155 -69.860055 6.6112534 -69.88386 C 6.4488584 -69.89862 6.290205 -69.82925 6.1907824 -69.7 L 6.1907824 -69.7 C 5.527336 -68.83752 4.747228 -68.07144 3.8728506 -67.423754 L -.02368278 -64.53743 C -.14736627 -64.445816 -.27236536 -64.35599 -.398641 -64.26798 L -5.0208914 -61.04641 C -6.2076275 -60.21929 -7.501048 -59.556924 -8.865798 -59.07742 L -13.472924 -57.4587 C -13.963495 -57.286335 -14.445372 -57.09016 -14.91684 -56.87087 L -21.763621 -53.686324 C -22.459783 -53.36253 -23.178348 -53.08926 -23.913747 -52.86864 L -34.784136 -49.607524 C -34.800857 -49.60251 -34.81757 -49.597464 -34.834276 -49.592393 L -45.802363 -46.262795 C -45.94026 -46.220933 -46.077586 -46.17721 -46.2143 -46.13164 L -59.135536 -41.82456 C -59.18466 -41.808187 -59.23386 -41.79205 -59.283136 -41.776155 L -70.65054 -38.10925 C -71.28903 -37.903287 -71.91393 -37.65737 -72.52154 -37.372956 L -80.453505 -33.66012 C -80.82384 -33.48677 -81.1874 -33.299287 -81.54338 -33.098083 L -87.48949 -29.737235 C -88.74253 -29.029 -89.18417 -27.439075 -88.47594 -26.18604 C -88.39882 -26.049603 -88.30955 -25.920398 -88.20922 -25.8 L -87.34511 -24.763066 C -86.59016 -23.857132 -85.93769 -22.87051 -85.39957 -21.821182 L -82.32243 -15.820763 C -82.24696 -15.673596 -82.16921 -15.527608 -82.08922 -15.382852 L -78.13446 -8.226632 C -78.05097 -8.075553 -77.96993 -7.923133 -77.89137 -7.769432 L -73.78307 .2685557 C -73.534 .75586505 -73.3101 1.2556324 -73.11224 1.765887 L -69.62947 10.747765 C -69.61597 10.782589 -69.602345 10.817366 -69.5886 10.852094 L -65.992276 19.93754 C -65.87027 20.245773 -65.75787 20.557723 -65.65524 20.87294 L -63.033404 28.925716 C -63.01728 28.97524 -63.0014 29.02484 -62.98576 29.07452 L -59.91371 38.83279 C -59.71092 39.47695 -59.549114 40.133306 -59.42927 40.797915 L -57.443955 51.80737 C -57.4208 51.93579 -57.39921 52.06448 -57.379205 52.193423 L -55.673335 63.186805 C -55.6306 63.46222 -55.595065 63.73871 -55.56677 64.01598 L -54.67935 72.7127 C -54.63262 73.17069 -54.60567 73.63048 -54.59859 74.09079 L -54.41435 86.06641 C -54.41093 86.28878 -54.40287 86.51105 -54.390185 86.73309 L -53.61981 100.21465 C -53.61275 100.33821 -53.604255 100.46169 -53.59433 100.58506 L -52.26076 117.15943 C -52.22641 117.58631 -52.20922 118.01439 -52.20922 118.44264 L -52.20922 130.89242 C -52.20922 131.09746 -52.20528 131.30247 -52.1974 131.50735 L -51.617046 146.5965 C -51.61183 146.73216 -51.608337 146.86789 -51.606574 147.00365 L -51.414415 161.7999 C -51.41095 162.0666 -51.414157 162.33333 -51.42403 162.59986 L -51.998256 178.10401 C -52.005564 178.30132 -52.00922 178.49875 -52.00922 178.6962 L -52.00922 192.29243 C -52.00922 192.49746 -52.01316 192.70247 -52.02104 192.90736 L -52.60623 208.12236 C -52.60822 208.17412 -52.610465 208.22588 -52.61296 208.27762 L -53.40828 224.78055 C -53.408906 224.79352 -53.409547 224.8065 -53.410203 224.81945 L -54.20469 240.51062 C -54.20771 240.5702 -54.21106 240.62978 -54.214744 240.68933 L -55.403655 259.91007 C -55.407364 259.97003 -55.41141 260.02996 -55.415794 260.08987 L -57.19893 284.45942 C -57.20579 284.55314 -57.21347 284.6468 -57.22198 284.7404 L -59.00787 304.3852 C -59.00877 304.39507 -59.009676 304.40494 -59.01059 304.4148 L -60.78136 323.4997 C -60.79993 323.6999 -60.82227 323.8997 -60.84838 324.09903 L -62.80909 339.07175 C -62.9419 340.08594 -63.21104 341.07756 -63.60922 342.01973 L -63.60922 342.01973 C -64.006794 342.96048 -64.25546 343.9574 -64.34629 344.97465 L -65.10922 353.51973 C -65.616975 359.20676 -61.65851 364.32512 -56.026545 365.2638 Z" stroke="#7f8080" stroke-linecap="round" stroke-linejoin="round" stroke-width="1"/>
      </g>
      <g id="Graphic_10">
        <path d="M -145 79.44615 L -138.8 83.84615 L -130.6 87.84615 L -122 91.44615 L -113 95.24615 L -102 99.24615 L -92.6 102.04615 L -83.6 104.64615 L -74.6 107.24615 L -69.2 108.64615 L -63.6 109.64615 L -61.2 103.84615 L -58.6 98.44615 L -56.4 94.44615 L -53.8 91.04615 L -53.6 82.04615 L -54.2 71.046145 L -56 60.246145 L -57.6 49.846145 L -60.2 38.846145 L -62.6 29.246145 L -65.4 21.246145 L -68.6 11.846145 L -71.4 4.4461445 L -75 -3.1538556 L -79 -10.753856 L -83 -18.153856 L -85.6 -21.753856 L -89.2 -27.553856 L -94.6 -23.153856 L -99.4 -18.353856 L -104 -12.153856 L -108.4 -5.953856 L -113.2 2.6461444 L -118 12.046145 L -122.8 21.246145 L -126.4 29.846145 L -130.4 38.846145 L -133.6 47.046145 L -137.4 56.446145 L -140.2 64.446145 L -143.2 72.846145 Z" fill="#999"/>
        <path d="M -145 79.44615 L -138.8 83.84615 L -130.6 87.84615 L -122 91.44615 L -113 95.24615 L -102 99.24615 L -92.6 102.04615 L -83.6 104.64615 L -74.6 107.24615 L -69.2 108.64615 L -63.6 109.64615 L -61.2 103.84615 L -58.6 98.44615 L -56.4 94.44615 L -53.8 91.04615 L -53.6 82.04615 L -54.2 71.046145 L -56 60.246145 L -57.6 49.846145 L -60.2 38.846145 L -62.6 29.246145 L -65.4 21.246145 L -68.6 11.846145 L -71.4 4.4461445 L -75 -3.1538556 L -79 -10.753856 L -83 -18.153856 L -85.6 -21.753856 L -89.2 -27.553856 L -94.6 -23.153856 L -99.4 -18.353856 L -104 -12.153856 L -108.4 -5.953856 L -113.2 2.6461444 L -118 12.046145 L -122.8 21.246145 L -126.4 29.846145 L -130.4 38.846145 L -133.6 47.046145 L -137.4 56.446145 L -140.2 64.446145 L -143.2 72.846145 Z" stroke="#7f8080" stroke-linecap="round" stroke-linejoin="round" stroke-width="1"/>
      </g>
      <g id="Graphic_9">
        <path d="M 286.4053 78.50275 L 280.2053 82.90275 L 272.0053 86.90275 L 263.4053 90.50275 L 254.4053 94.30275 L 243.4053 98.30275 L 234.0053 101.10275 L 225.0053 103.70275 L 216.0053 106.30275 L 210.6053 107.70275 L 205.0053 108.70275 L 202.6053 102.90275 L 200.0053 97.50275 L 197.80529 93.50275 L 195.20529 90.10275 L 195.00529 81.10275 L 195.60529 70.10275 L 197.40529 59.30275 L 199.0053 48.90275 L 201.6053 37.90275 L 204.0053 28.30275 L 206.8053 20.302748 L 210.0053 10.902748 L 212.8053 3.5027482 L 216.4053 -4.097252 L 220.4053 -11.697252 L 224.4053 -19.097252 L 227.0053 -22.697252 L 230.6053 -28.497252 L 236.0053 -24.097252 L 240.8053 -19.297252 L 245.4053 -13.097252 L 249.8053 -6.897252 L 254.6053 1.7027482 L 259.4053 11.102748 L 264.2053 20.302748 L 267.8053 28.90275 L 271.8053 37.90275 L 275.0053 46.10275 L 278.8053 55.50275 L 281.6053 63.50275 L 284.6053 71.90275 Z" fill="#999"/>
        <path d="M 286.4053 78.50275 L 280.2053 82.90275 L 272.0053 86.90275 L 263.4053 90.50275 L 254.4053 94.30275 L 243.4053 98.30275 L 234.0053 101.10275 L 225.0053 103.70275 L 216.0053 106.30275 L 210.6053 107.70275 L 205.0053 108.70275 L 202.6053 102.90275 L 200.0053 97.50275 L 197.80529 93.50275 L 195.20529 90.10275 L 195.00529 81.10275 L 195.60529 70.10275 L 197.40529 59.30275 L 199.0053 48.90275 L 201.6053 37.90275 L 204.0053 28.30275 L 206.8053 20.302748 L 210.0053 10.902748 L 212.8053 3.5027482 L 216.4053 -4.097252 L 220.4053 -11.697252 L 224.4053 -19.097252 L 227.0053 -22.697252 L 230.6053 -28.497252 L 236.0053 -24.097252 L 240.8053 -19.297252 L 245.4053 -13.097252 L 249.8053 -6.897252 L 254.6053 1.7027482 L 259.4053 11.102748 L 264.2053 20.302748 L 267.8053 28.90275 L 271.8053 37.90275 L 275.0053 46.10275 L 278.8053 55.50275 L 281.6053 63.50275 L 284.6053 71.90275 Z" stroke="#7f8080" stroke-linecap="round" stroke-linejoin="round" stroke-width="1"/>
      </g>
      <g id="Graphic_8">
        <path d="M -145 79.44615 L -138.8 83.84615 L -130.6 87.84615 L -122 91.44615 L -113 95.24615 L -102 99.24615 L -92.6 102.04615 L -83.6 104.64615 L -74.6 107.24615 L -69.2 108.64615 L -63.6 109.64615 L -60.6 103.24615 L -64.4 102.44615 L -69.2 101.24615 L -74.8 100.04615 L -80.8 98.24615 L -85.4 96.84615 L -89.6 95.64615 L -94.2 93.64615 L -98.8 92.04615 L -103.6 90.04615 L -107.6 88.64615 L -112.8 86.44615 L -117.4 84.84615 L -122.2 82.64615 L -127 80.84615 L -131 78.84615 L -135.4 76.64615 L -139.8 74.446146 L -143.2 72.846145 Z" fill="#666"/>
        <path d="M -145 79.44615 L -138.8 83.84615 L -130.6 87.84615 L -122 91.44615 L -113 95.24615 L -102 99.24615 L -92.6 102.04615 L -83.6 104.64615 L -74.6 107.24615 L -69.2 108.64615 L -63.6 109.64615 L -60.6 103.24615 L -64.4 102.44615 L -69.2 101.24615 L -74.8 100.04615 L -80.8 98.24615 L -85.4 96.84615 L -89.6 95.64615 L -94.2 93.64615 L -98.8 92.04615 L -103.6 90.04615 L -107.6 88.64615 L -112.8 86.44615 L -117.4 84.84615 L -122.2 82.64615 L -127 80.84615 L -131 78.84615 L -135.4 76.64615 L -139.8 74.446146 L -143.2 72.846145 Z" stroke="#7f8080" stroke-linecap="round" stroke-linejoin="round" stroke-width="1"/>
      </g>
      <g id="Graphic_7">
        <path d="M 286.4053 78.50275 L 280.2053 82.90275 L 272.0053 86.90275 L 263.4053 90.50275 L 254.4053 94.30275 L 243.4053 98.30275 L 234.0053 101.10275 L 225.0053 103.70275 L 216.0053 106.30275 L 210.6053 107.70275 L 205.0053 108.70275 L 202.0053 102.30275 L 205.8053 101.50275 L 210.6053 100.30275 L 216.2053 99.10275 L 222.2053 97.30275 L 226.8053 95.90275 L 231.0053 94.70275 L 235.6053 92.70275 L 240.2053 91.10275 L 245.0053 89.10275 L 249.0053 87.70275 L 254.2053 85.50275 L 258.8053 83.90275 L 263.6053 81.70275 L 268.4053 79.90275 L 272.4053 77.90275 L 276.8053 75.70275 L 281.2053 73.50275 L 284.6053 71.90275 Z" fill="#666"/>
        <path d="M 286.4053 78.50275 L 280.2053 82.90275 L 272.0053 86.90275 L 263.4053 90.50275 L 254.4053 94.30275 L 243.4053 98.30275 L 234.0053 101.10275 L 225.0053 103.70275 L 216.0053 106.30275 L 210.6053 107.70275 L 205.0053 108.70275 L 202.0053 102.30275 L 205.8053 101.50275 L 210.6053 100.30275 L 216.2053 99.10275 L 222.2053 97.30275 L 226.8053 95.90275 L 231.0053 94.70275 L 235.6053 92.70275 L 240.2053 91.10275 L 245.0053 89.10275 L 249.0053 87.70275 L 254.2053 85.50275 L 258.8053 83.90275 L 263.6053 81.70275 L 268.4053 79.90275 L 272.4053 77.90275 L 276.8053 75.70275 L 281.2053 73.50275 L 284.6053 71.90275 Z" stroke="#7f8080" stroke-linecap="round" stroke-linejoin="round" stroke-width="1"/>
      </g>
      <g id="Graphic_6">
        <path d="M 5.572121 -70.03621 L .8429506 -65.98264 C -.3073967 -64.996625 -1.5523572 -64.12669 -2.8737867 -63.385515 L -5.400422 -61.96835 C -6.835594 -61.16338 -7.416397 -59.39425 -6.737611 -57.895265 L -5.7199944 -55.64803 C -5.5984154 -55.379545 -5.471687 -55.11342 -5.339879 -54.849804 L -1.050623 -46.27129 C -.7088261 -45.5877 -.33316817 -44.921566 .07495241 -44.275375 L 2.4013436 -40.59192 C 2.8417203 -39.894655 3.31928 -39.22158 3.831953 -38.575613 L 7.242638 -34.278153 C 7.788692 -33.590125 8.373712 -32.933944 8.994822 -32.312833 L 13.660865 -27.64679 C 14.061745 -27.24591 14.477311 -26.85999 14.90671 -26.489817 L 19.470235 -22.555744 C 19.864892 -22.215522 20.270997 -21.88881 20.687846 -21.576173 L 24.662786 -18.594968 C 25.3287 -18.095533 26.021233 -17.632617 26.73733 -17.208263 L 30.870394 -14.75904 C 30.99839 -14.683191 31.127117 -14.608586 31.25656 -14.535235 L 35.954107 -11.873292 C 36.692398 -11.454927 37.453276 -11.077742 38.23325 -10.743466 L 41.78307 -9.222117 C 42.36903 -8.97099 42.96518 -8.744334 43.569974 -8.542736 L 48.58808 -6.870034 C 49.835325 -6.454286 51.11592 -6.146244 52.415795 -5.9492936 L 56.51464 -5.328256 C 56.879756 -5.272936 57.24615 -5.226417 57.6135 -5.1887396 L 64.494605 -4.4829854 C 64.73978 -4.457839 64.985344 -4.4366355 65.2312 -4.4193825 L 69.75835 -4.1016896 C 70.29421 -4.0640854 70.831224 -4.045266 71.368405 -4.0452656 L 74.63046 -4.0452643 C 75.58416 -4.045264 76.53693 -4.1045814 77.48327 -4.222873 L 81.47198 -4.7214626 C 82.13195 -4.803958 82.78802 -4.915041 83.43835 -5.054398 L 89.52039 -6.357691 C 90.41426 -6.549236 91.29592 -6.793903 92.16068 -7.09039 L 96.66952 -8.636281 C 97.46417 -8.908731 98.2433 -9.224514 99.0034 -9.582207 L 103.83677 -11.856737 C 104.38697 -12.115653 104.92668 -12.396286 105.45464 -12.697975 L 109.2225 -14.851042 C 109.9153 -15.246922 110.58701 -15.678585 111.23494 -16.14428 L 115.91106 -19.505246 C 116.41175 -19.865112 116.89776 -20.244967 117.36792 -20.64389 L 122.68877 -25.158555 C 123.07108 -25.48294 123.44269 -25.81974 123.80298 -26.168416 L 128.5022 -30.716044 C 129.14179 -31.335002 129.74491 -31.990565 130.30852 -32.679424 L 134.1018 -37.31566 C 134.60852 -37.934974 135.08257 -38.58031 135.52201 -39.249036 L 139.13919 -44.753436 C 139.35462 -45.08127 139.56163 -45.41456 139.76002 -45.75298 L 142.28311 -50.057076 C 142.66906 -50.71546 143.022 -51.392646 143.34062 -52.08612 L 145.45932 -56.69739 C 145.99218 -57.85715 146.36334 -59.084564 146.5624 -60.345265 L 146.5624 -60.345265 C 146.7407 -61.474526 146.1614 -62.587974 145.13432 -63.0901 L 139.84088 -65.678005 C 138.52642 -66.32063 137.29183 -67.11514 136.1624 -68.045265 L 135.75638 -68.379625 C 134.91205 -69.07496 134.28864 -70.00126 133.9624 -71.045265 L 133.9624 -71.045265 C 133.91573 -71.19458 133.75686 -71.2778 133.60754 -71.23114 C 133.49247 -71.19518 133.41277 -71.090315 133.40892 -70.96981 L 133.29968 -67.54689 C 133.20894 -64.70381 132.5916 -61.902236 131.479 -59.28433 L 130.60206 -57.22096 C 130.0435 -55.906686 129.36374 -54.64729 128.5716 -53.45909 L 124.88582 -47.930416 C 124.13831 -46.80915 123.2937 -45.75575 122.36175 -44.782376 L 116.06668 -38.20753 C 115.19861 -37.300875 114.25777 -36.466804 113.2536 -35.713673 L 104.8787 -29.432495 C 104.00228 -28.77518 103.08002 -28.181326 102.11896 -27.655463 L 94.93376 -23.723938 C 93.62263 -23.00653 92.2447 -22.418628 90.81952 -21.968568 L 84.14661 -19.861334 C 82.42973 -19.319163 80.65514 -18.980461 78.85927 -18.852185 L 71.972815 -18.360296 C 70.90052 -18.283703 69.82417 -18.282384 68.751685 -18.356348 L 60.31543 -18.93816 C 59.28125 -19.009482 58.25308 -19.15064 57.237946 -19.360667 L 50.10274 -20.836916 C 48.15079 -21.24077 46.259614 -21.896652 44.47676 -22.78808 L 39.81735 -25.117785 C 38.58321 -25.734853 37.407106 -26.461726 36.30326 -27.28961 L 30.621303 -31.55108 C 30.182167 -31.88043 29.754962 -32.225398 29.34051 -32.585317 L 23.58533 -37.583238 C 22.771043 -38.29038 22.007503 -39.05392 21.30036 -39.868206 L 16.895135 -44.94089 C 16.141032 -45.80925 15.453124 -46.73295 14.8372 -47.704217 L 11.103497 -53.59198 C 10.742931 -54.16056 10.407505 -54.744705 10.098188 -55.34272 L 8.477815 -58.47544 C 7.868671 -59.65312 7.362502 -60.881264 6.964965 -62.146155 L 5.684726 -66.21964 C 5.469951 -66.90302 5.2872184 -67.596055 5.137126 -68.296485 L 4.911709 -69.34843 C 4.8266354 -69.74544 5.052993 -70.14309 5.4377975 -70.27263 L 5.4377975 -70.27263 C 5.510292 -70.29704 5.5888444 -70.25805 5.613249 -70.18556 C 5.6312626 -70.13205 5.61499 -70.07296 5.572121 -70.03621 Z" fill="#666"/>
        <path d="M 5.572121 -70.03621 L .8429506 -65.98264 C -.3073967 -64.996625 -1.5523572 -64.12669 -2.8737867 -63.385515 L -5.400422 -61.96835 C -6.835594 -61.16338 -7.416397 -59.39425 -6.737611 -57.895265 L -5.7199944 -55.64803 C -5.5984154 -55.379545 -5.471687 -55.11342 -5.339879 -54.849804 L -1.050623 -46.27129 C -.7088261 -45.5877 -.33316817 -44.921566 .07495241 -44.275375 L 2.4013436 -40.59192 C 2.8417203 -39.894655 3.31928 -39.22158 3.831953 -38.575613 L 7.242638 -34.278153 C 7.788692 -33.590125 8.373712 -32.933944 8.994822 -32.312833 L 13.660865 -27.64679 C 14.061745 -27.24591 14.477311 -26.85999 14.90671 -26.489817 L 19.470235 -22.555744 C 19.864892 -22.215522 20.270997 -21.88881 20.687846 -21.576173 L 24.662786 -18.594968 C 25.3287 -18.095533 26.021233 -17.632617 26.73733 -17.208263 L 30.870394 -14.75904 C 30.99839 -14.683191 31.127117 -14.608586 31.25656 -14.535235 L 35.954107 -11.873292 C 36.692398 -11.454927 37.453276 -11.077742 38.23325 -10.743466 L 41.78307 -9.222117 C 42.36903 -8.97099 42.96518 -8.744334 43.569974 -8.542736 L 48.58808 -6.870034 C 49.835325 -6.454286 51.11592 -6.146244 52.415795 -5.9492936 L 56.51464 -5.328256 C 56.879756 -5.272936 57.24615 -5.226417 57.6135 -5.1887396 L 64.494605 -4.4829854 C 64.73978 -4.457839 64.985344 -4.4366355 65.2312 -4.4193825 L 69.75835 -4.1016896 C 70.29421 -4.0640854 70.831224 -4.045266 71.368405 -4.0452656 L 74.63046 -4.0452643 C 75.58416 -4.045264 76.53693 -4.1045814 77.48327 -4.222873 L 81.47198 -4.7214626 C 82.13195 -4.803958 82.78802 -4.915041 83.43835 -5.054398 L 89.52039 -6.357691 C 90.41426 -6.549236 91.29592 -6.793903 92.16068 -7.09039 L 96.66952 -8.636281 C 97.46417 -8.908731 98.2433 -9.224514 99.0034 -9.582207 L 103.83677 -11.856737 C 104.38697 -12.115653 104.92668 -12.396286 105.45464 -12.697975 L 109.2225 -14.851042 C 109.9153 -15.246922 110.58701 -15.678585 111.23494 -16.14428 L 115.91106 -19.505246 C 116.41175 -19.865112 116.89776 -20.244967 117.36792 -20.64389 L 122.68877 -25.158555 C 123.07108 -25.48294 123.44269 -25.81974 123.80298 -26.168416 L 128.5022 -30.716044 C 129.14179 -31.335002 129.74491 -31.990565 130.30852 -32.679424 L 134.1018 -37.31566 C 134.60852 -37.934974 135.08257 -38.58031 135.52201 -39.249036 L 139.13919 -44.753436 C 139.35462 -45.08127 139.56163 -45.41456 139.76002 -45.75298 L 142.28311 -50.057076 C 142.66906 -50.71546 143.022 -51.392646 143.34062 -52.08612 L 145.45932 -56.69739 C 145.99218 -57.85715 146.36334 -59.084564 146.5624 -60.345265 L 146.5624 -60.345265 C 146.7407 -61.474526 146.1614 -62.587974 145.13432 -63.0901 L 139.84088 -65.678005 C 138.52642 -66.32063 137.29183 -67.11514 136.1624 -68.045265 L 135.75638 -68.379625 C 134.91205 -69.07496 134.28864 -70.00126 133.9624 -71.045265 L 133.9624 -71.045265 C 133.91573 -71.19458 133.75686 -71.2778 133.60754 -71.23114 C 133.49247 -71.19518 133.41277 -71.090315 133.40892 -70.96981 L 133.29968 -67.54689 C 133.20894 -64.70381 132.5916 -61.902236 131.479 -59.28433 L 130.60206 -57.22096 C 130.0435 -55.906686 129.36374 -54.64729 128.5716 -53.45909 L 124.88582 -47.930416 C 124.13831 -46.80915 123.2937 -45.75575 122.36175 -44.782376 L 116.06668 -38.20753 C 115.19861 -37.300875 114.25777 -36.466804 113.2536 -35.713673 L 104.8787 -29.432495 C 104.00228 -28.77518 103.08002 -28.181326 102.11896 -27.655463 L 94.93376 -23.723938 C 93.62263 -23.00653 92.2447 -22.418628 90.81952 -21.968568 L 84.14661 -19.861334 C 82.42973 -19.319163 80.65514 -18.980461 78.85927 -18.852185 L 71.972815 -18.360296 C 70.90052 -18.283703 69.82417 -18.282384 68.751685 -18.356348 L 60.31543 -18.93816 C 59.28125 -19.009482 58.25308 -19.15064 57.237946 -19.360667 L 50.10274 -20.836916 C 48.15079 -21.24077 46.259614 -21.896652 44.47676 -22.78808 L 39.81735 -25.117785 C 38.58321 -25.734853 37.407106 -26.461726 36.30326 -27.28961 L 30.621303 -31.55108 C 30.182167 -31.88043 29.754962 -32.225398 29.34051 -32.585317 L 23.58533 -37.583238 C 22.771043 -38.29038 22.007503 -39.05392 21.30036 -39.868206 L 16.895135 -44.94089 C 16.141032 -45.80925 15.453124 -46.73295 14.8372 -47.704217 L 11.103497 -53.59198 C 10.742931 -54.16056 10.407505 -54.744705 10.098188 -55.34272 L 8.477815 -58.47544 C 7.868671 -59.65312 7.362502 -60.881264 6.964965 -62.146155 L 5.684726 -66.21964 C 5.469951 -66.90302 5.2872184 -67.596055 5.137126 -68.296485 L 4.911709 -69.34843 C 4.8266354 -69.74544 5.052993 -70.14309 5.4377975 -70.27263 L 5.4377975 -70.27263 C 5.510292 -70.29704 5.5888444 -70.25805 5.613249 -70.18556 C 5.6312626 -70.13205 5.61499 -70.07296 5.572121 -70.03621 Z" stroke="#7f8080" stroke-linecap="round" stroke-linejoin="round" stroke-width="1"/>
      </g>
      <g id="Graphic_5">
        <path d="M 5.0592476 -70.24411 L 10.459248 -70.84411 L 17.259248 -67.44411 L 22.259248 -65.64411 L 30.659248 -63.84411 L 39.05925 -62.84411 L 47.05925 -61.84411 L 54.65925 -61.64411 L 63.25925 -61.24411 L 74.85925 -61.44411 L 83.25925 -61.84411 L 92.65925 -62.44411 L 101.05925 -63.24411 L 110.25925 -64.64411 L 118.45925 -66.84411 L 124.25925 -68.64411 L 129.85925 -71.24411 L 132.65925 -70.04411 L 133.05925 -64.44411 L 130.25925 -56.44411 L 124.85925 -53.64411 L 114.25925 -50.44411 L 102.85925 -48.04411 L 91.65925 -47.24411 L 79.25925 -46.24411 L 68.85925 -46.24411 L 59.45925 -46.24411 L 47.85925 -46.84411 L 36.65925 -47.64411 L 26.059248 -49.84411 L 17.459248 -51.84411 L 11.259248 -54.64411 L 9.259248 -56.24411 L 6.0592476 -63.84411 Z" fill="#666"/>
        <path d="M 5.0592476 -70.24411 L 10.459248 -70.84411 L 17.259248 -67.44411 L 22.259248 -65.64411 L 30.659248 -63.84411 L 39.05925 -62.84411 L 47.05925 -61.84411 L 54.65925 -61.64411 L 63.25925 -61.24411 L 74.85925 -61.44411 L 83.25925 -61.84411 L 92.65925 -62.44411 L 101.05925 -63.24411 L 110.25925 -64.64411 L 118.45925 -66.84411 L 124.25925 -68.64411 L 129.85925 -71.24411 L 132.65925 -70.04411 L 133.05925 -64.44411 L 130.25925 -56.44411 L 124.85925 -53.64411 L 114.25925 -50.44411 L 102.85925 -48.04411 L 91.65925 -47.24411 L 79.25925 -46.24411 L 68.85925 -46.24411 L 59.45925 -46.24411 L 47.85925 -46.84411 L 36.65925 -47.64411 L 26.059248 -49.84411 L 17.459248 -51.84411 L 11.259248 -54.64411 L 9.259248 -56.24411 L 6.0592476 -63.84411 Z" stroke="#7f8080" stroke-linecap="round" stroke-linejoin="round" stroke-width="1"/>
      </g>
      <g id="Graphic_4">
        <path d="M -65.18679 355.2 L -65.18679 355.2 C -65.25247 355.7255 -65.189645 356.25905 -65.0037 356.7549 L -64.35269 358.49092 C -64.17594 358.96227 -63.94885 359.41318 -63.67538 359.8358 L -62.70757 361.33153 C -62.16661 362.16756 -61.453506 362.87855 -60.61588 363.417 L -59.53783 364.11005 C -59.237574 364.30307 -58.922994 364.47285 -58.59684 364.6179 L -57.27999 365.2035 C -56.68346 365.46876 -56.052754 365.6493 -55.40621 365.7398 L -46.395787 367.00126 C -46.385793 367.00265 -46.375797 367.00403 -46.3658 367.0054 L -34.6498 368.594 C -34.6038 368.60024 -34.557737 368.606 -34.51162 368.61134 L -24.228685 369.79783 C -24.19676 369.8015 -24.16481 369.80498 -24.132835 369.8082 L -10.422769 371.1991 C -10.394787 371.20193 -10.366788 371.2046 -10.338774 371.2071 L .7665259 372.19865 C .8016443 372.2018 .8367859 372.20466 .8719477 372.20726 L 11.558485 372.99886 C 11.598964 373.00185 11.639468 373.0045 11.679993 373.0068 L 22.187976 373.6016 C 22.208795 373.60276 22.229608 373.60404 22.250416 373.6054 L 34.293193 374.3951 C 34.377194 374.4006 34.461288 374.4046 34.545432 374.40707 L 47.99256 374.80257 C 48.01032 374.8031 48.028085 374.8037 48.045846 374.80434 L 58.68971 375.19856 C 58.77603 375.20176 58.86241 375.20335 58.94879 375.20335 L 69.55781 375.20335 C 69.59874 375.20335 69.63967 375.2037 69.680595 375.20443 L 80.76702 375.39893 C 80.93509 375.4019 81.10321 375.39877 81.27106 375.3896 L 91.89229 374.81028 C 91.97689 374.80566 92.06157 374.8026 92.14629 374.80104 L 102.91085 374.60532 C 102.98308 374.604 103.05529 374.6016 103.12745 374.59803 L 115.14607 374.00695 C 115.19483 374.00455 115.24355 374.00165 115.29225 373.99823 L 126.5323 373.20945 C 126.59023 373.2054 126.64812 373.2006 126.70594 373.1951 L 139.11651 372.01313 C 139.18497 372.0066 139.25352 372.0011 139.32214 371.9966 L 151.25416 371.21418 C 151.36418 371.20696 151.474 371.19715 151.58355 371.18475 L 161.9959 370.006 C 162.01144 370.00423 162.02697 370.00242 162.0425 370.00056 L 171.9902 368.80683 C 172.00954 368.8045 172.02886 368.8021 172.04818 368.79963 L 185.88394 367.0221 C 185.98115 367.0096 186.0781 366.99507 186.1747 366.9785 L 192.72819 365.85506 C 192.92915 365.8206 193.13153 365.79495 193.33473 365.77817 L 196.56706 365.5112 C 197.4563 365.43775 198.3233 365.19497 199.12135 364.79594 L 200.60765 364.0528 C 201.20824 363.7525 201.7625 363.36735 202.25338 362.9092 L 203.5885 361.6631 C 204.19532 361.0967 204.65073 360.38747 204.91322 359.6 L 205.20805 358.71552 C 205.27812 358.5053 205.33817 358.29187 205.388 358.07595 L 205.8577 356.04056 C 205.89293 355.88792 205.8595 355.72752 205.76621 355.6017 L 205.76621 355.6017 C 205.67587 355.4798 205.52523 355.4183 205.3754 355.44214 L 196.89555 356.7912 C 196.84466 356.7993 196.79385 356.80796 196.74315 356.8172 L 183.7584 359.17805 C 183.66561 359.1949 183.5725 359.2099 183.47911 359.223 L 172.24943 360.7991 C 172.22928 360.80194 172.20914 360.80486 172.18902 360.80786 L 159.06643 362.76645 C 158.90167 362.79105 158.73608 362.80975 158.56998 362.82253 L 145.84517 363.80136 C 145.82786 363.8027 145.81055 363.80396 145.79323 363.80516 L 131.45308 364.801 C 131.4305 364.80257 131.4079 364.80403 131.3853 364.80538 L 118.08205 365.5996 C 118.04016 365.6021 117.99824 365.60423 117.9563 365.60597 L 103.76485 366.1973 C 103.66776 366.20133 103.5706 366.20335 103.47344 366.20335 L 77.677535 366.20335 C 77.63865 366.20335 77.59976 366.20368 77.56088 366.20433 L 65.8025 366.4003 C 65.68032 366.40234 65.55812 366.40117 65.436005 366.3968 L 54.602405 366.0099 C 54.48029 366.00554 54.35809 366.00437 54.235914 366.0064 L 42.521274 366.20165 C 42.45323 366.2028 42.385176 366.20293 42.31713 366.20208 L 26.614845 366.0058 C 26.484443 366.00417 26.354113 365.9989 26.224007 365.99 L 11.914229 365.00986 C 11.850882 365.00552 11.787597 365.00032 11.724392 364.99426 L -2.766614 363.6047 C -2.7760685 363.6038 -2.7855212 363.6029 -2.794972 363.60194 L -16.607008 362.22073 C -16.722849 362.20915 -16.838382 362.19468 -16.953501 362.17733 L -31.262653 360.02116 C -31.34141 360.0093 -31.420363 359.99877 -31.49948 359.9896 L -45.01941 358.42207 C -45.126987 358.4096 -45.23426 358.39463 -45.34114 358.37718 L -54.73323 356.84377 C -54.89822 356.81684 -55.062195 356.784 -55.224836 356.7453 L -64.302435 354.58654 C -64.690754 354.4942 -65.08041 354.73412 -65.17276 355.12244 C -65.17884 355.14802 -65.183525 355.1739 -65.18679 355.2 Z" fill="#666"/>
        <path d="M -65.18679 355.2 L -65.18679 355.2 C -65.25247 355.7255 -65.189645 356.25905 -65.0037 356.7549 L -64.35269 358.49092 C -64.17594 358.96227 -63.94885 359.41318 -63.67538 359.8358 L -62.70757 361.33153 C -62.16661 362.16756 -61.453506 362.87855 -60.61588 363.417 L -59.53783 364.11005 C -59.237574 364.30307 -58.922994 364.47285 -58.59684 364.6179 L -57.27999 365.2035 C -56.68346 365.46876 -56.052754 365.6493 -55.40621 365.7398 L -46.395787 367.00126 C -46.385793 367.00265 -46.375797 367.00403 -46.3658 367.0054 L -34.6498 368.594 C -34.6038 368.60024 -34.557737 368.606 -34.51162 368.61134 L -24.228685 369.79783 C -24.19676 369.8015 -24.16481 369.80498 -24.132835 369.8082 L -10.422769 371.1991 C -10.394787 371.20193 -10.366788 371.2046 -10.338774 371.2071 L .7665259 372.19865 C .8016443 372.2018 .8367859 372.20466 .8719477 372.20726 L 11.558485 372.99886 C 11.598964 373.00185 11.639468 373.0045 11.679993 373.0068 L 22.187976 373.6016 C 22.208795 373.60276 22.229608 373.60404 22.250416 373.6054 L 34.293193 374.3951 C 34.377194 374.4006 34.461288 374.4046 34.545432 374.40707 L 47.99256 374.80257 C 48.01032 374.8031 48.028085 374.8037 48.045846 374.80434 L 58.68971 375.19856 C 58.77603 375.20176 58.86241 375.20335 58.94879 375.20335 L 69.55781 375.20335 C 69.59874 375.20335 69.63967 375.2037 69.680595 375.20443 L 80.76702 375.39893 C 80.93509 375.4019 81.10321 375.39877 81.27106 375.3896 L 91.89229 374.81028 C 91.97689 374.80566 92.06157 374.8026 92.14629 374.80104 L 102.91085 374.60532 C 102.98308 374.604 103.05529 374.6016 103.12745 374.59803 L 115.14607 374.00695 C 115.19483 374.00455 115.24355 374.00165 115.29225 373.99823 L 126.5323 373.20945 C 126.59023 373.2054 126.64812 373.2006 126.70594 373.1951 L 139.11651 372.01313 C 139.18497 372.0066 139.25352 372.0011 139.32214 371.9966 L 151.25416 371.21418 C 151.36418 371.20696 151.474 371.19715 151.58355 371.18475 L 161.9959 370.006 C 162.01144 370.00423 162.02697 370.00242 162.0425 370.00056 L 171.9902 368.80683 C 172.00954 368.8045 172.02886 368.8021 172.04818 368.79963 L 185.88394 367.0221 C 185.98115 367.0096 186.0781 366.99507 186.1747 366.9785 L 192.72819 365.85506 C 192.92915 365.8206 193.13153 365.79495 193.33473 365.77817 L 196.56706 365.5112 C 197.4563 365.43775 198.3233 365.19497 199.12135 364.79594 L 200.60765 364.0528 C 201.20824 363.7525 201.7625 363.36735 202.25338 362.9092 L 203.5885 361.6631 C 204.19532 361.0967 204.65073 360.38747 204.91322 359.6 L 205.20805 358.71552 C 205.27812 358.5053 205.33817 358.29187 205.388 358.07595 L 205.8577 356.04056 C 205.89293 355.88792 205.8595 355.72752 205.76621 355.6017 L 205.76621 355.6017 C 205.67587 355.4798 205.52523 355.4183 205.3754 355.44214 L 196.89555 356.7912 C 196.84466 356.7993 196.79385 356.80796 196.74315 356.8172 L 183.7584 359.17805 C 183.66561 359.1949 183.5725 359.2099 183.47911 359.223 L 172.24943 360.7991 C 172.22928 360.80194 172.20914 360.80486 172.18902 360.80786 L 159.06643 362.76645 C 158.90167 362.79105 158.73608 362.80975 158.56998 362.82253 L 145.84517 363.80136 C 145.82786 363.8027 145.81055 363.80396 145.79323 363.80516 L 131.45308 364.801 C 131.4305 364.80257 131.4079 364.80403 131.3853 364.80538 L 118.08205 365.5996 C 118.04016 365.6021 117.99824 365.60423 117.9563 365.60597 L 103.76485 366.1973 C 103.66776 366.20133 103.5706 366.20335 103.47344 366.20335 L 77.677535 366.20335 C 77.63865 366.20335 77.59976 366.20368 77.56088 366.20433 L 65.8025 366.4003 C 65.68032 366.40234 65.55812 366.40117 65.436005 366.3968 L 54.602405 366.0099 C 54.48029 366.00554 54.35809 366.00437 54.235914 366.0064 L 42.521274 366.20165 C 42.45323 366.2028 42.385176 366.20293 42.31713 366.20208 L 26.614845 366.0058 C 26.484443 366.00417 26.354113 365.9989 26.224007 365.99 L 11.914229 365.00986 C 11.850882 365.00552 11.787597 365.00032 11.724392 364.99426 L -2.766614 363.6047 C -2.7760685 363.6038 -2.7855212 363.6029 -2.794972 363.60194 L -16.607008 362.22073 C -16.722849 362.20915 -16.838382 362.19468 -16.953501 362.17733 L -31.262653 360.02116 C -31.34141 360.0093 -31.420363 359.99877 -31.49948 359.9896 L -45.01941 358.42207 C -45.126987 358.4096 -45.23426 358.39463 -45.34114 358.37718 L -54.73323 356.84377 C -54.89822 356.81684 -55.062195 356.784 -55.224836 356.7453 L -64.302435 354.58654 C -64.690754 354.4942 -65.08041 354.73412 -65.17276 355.12244 C -65.17884 355.14802 -65.183525 355.1739 -65.18679 355.2 Z" stroke="#7f8080" stroke-linecap="round" stroke-linejoin="round" stroke-width="1"/>
      </g>
      <g id="Graphic_3">
        <path d="M 24.925363 109.18067 L 27.71603 107.7469 L 30.359817 106.15383 L 32.562974 105.03868 L 35.059886 103.60491 L 37.99743 101.85253 L 40.200586 100.25946 L 42.697497 98.66639 L 45.63504 96.27678 L 47.8382 94.6837 L 50.481986 92.29409 L 52.538266 90.54171 L 55.32893 88.31141 L 58.266475 86.0811 L 61.05714 83.69149 L 63.70093 81.6205 L 66.63847 79.07158 L 69.28226 76.52266 L 71.92605 74.45167 L 74.42296 71.90275 L 76.62612 74.29236 L 78.53552 76.04474 L 80.73868 77.95643 L 82.94183 80.02742 L 84.41061 81.46119 L 86.02625 83.05426 L 88.37629 84.80665 L 91.02008 86.87764 L 93.66387 88.78933 L 96.30766 91.17894 L 99.68583 93.72786 L 102.18274 95.95816 L 105.12028 98.02916 L 108.93909 100.73738 L 112.17039 102.80838 L 114.52042 104.08284 L 117.31109 105.99452 L 119.36737 107.10968 L 121.42365 108.38414 L 123.18617 109.49929 L 125.24245 108.38414 L 126.8581 107.42829 L 128.47375 106.31314 L 130.6769 104.87937 L 132.58631 103.44561 L 134.64259 102.17115 L 136.84575 100.25946 L 138.90203 98.50708 L 140.66455 96.914 L 142.42708 95.32093 L 144.92399 92.93132 L 147.12715 90.54171 L 148.44904 89.10794 L 150.06469 87.19626 L 151.53346 85.28457 L 153.29599 82.89496 L 154.91164 80.66465 L 156.3804 78.11574 L 157.55542 75.88543 L 158.28981 78.43435 L 159.0242 80.66465 L 159.6117 82.41704 L 160.05234 85.12526 L 160.34609 87.67418 L 160.63984 89.90448 L 160.78672 91.81617 L 160.9336 93.72786 L 160.9336 95.95816 L 160.78672 98.02916 L 160.78672 100.25946 L 160.34609 103.12699 L 160.05234 105.3573 L 159.6117 107.5876 L 159.17107 109.33998 L 158.73044 110.77375 L 158.14293 112.84474 L 157.55542 114.75643 L 157.1148 116.1902 L 156.52728 117.62396 L 156.08665 119.37634 L 155.49914 120.81011 L 155.05851 122.24388 L 156.3804 120.01357 L 157.40855 117.94258 L 158.28981 116.03089 L 159.31795 114.27851 L 160.34609 112.0482 L 161.37423 110.13652 L 162.10862 107.90621 L 162.843 105.99452 L 163.43051 103.92353 L 163.87114 102.33046 L 164.31177 100.25946 L 164.60553 98.34777 L 164.89928 96.11747 L 165.04616 93.88717 L 165.33991 91.81617 L 165.33991 89.90448 L 165.19304 87.67418 L 165.04616 85.76249 L 164.7524 84.16942 L 164.1649 82.41704 L 165.78054 84.80665 L 166.80868 86.71833 L 168.13058 88.78933 L 169.01184 90.54171 L 169.8931 92.61271 L 171.06812 95.00232 L 172.24314 97.39193 L 173.27128 99.62223 L 174.00566 101.37461 L 174.74005 103.12699 L 175.32756 104.87937 L 176.06194 106.79106 L 176.64945 108.54344 L 177.09008 110.29582 L 177.82447 112.52613 L 177.53072 112.0482 L 178.2651 114.59712 L 178.8526 116.3495 L 177.53072 118.26119 L 176.20882 120.01357 L 175.18068 121.76595 L 174.00566 123.35903 L 172.24314 125.58933 L 171.06812 127.0231 L 169.3056 128.93478 L 167.9837 130.36855 L 166.6618 131.96162 L 164.89928 133.5547 L 162.98988 135.785 L 161.5211 137.37808 L 159.31795 139.13046 L 157.84918 140.88284 L 155.93978 142.63522 L 154.471 144.06898 L 152.70848 145.66206 L 150.94595 147.25513 L 148.88967 148.8482 L 146.98027 150.7599 L 145.36462 151.87505 L 143.16146 153.78673 L 140.66455 155.85773 L 138.75515 157.4508 L 137.87389 159.04388 L 137.43326 160.47764 L 137.1395 160.95556 L 139.19578 159.84041 L 141.54582 157.76942 L 143.01459 156.49496 L 145.36462 154.58327 L 147.4209 152.9902 L 149.47718 151.23782 L 151.53346 149.48543 L 153.58974 147.73305 L 156.23353 145.34344 L 158.14293 143.59106 L 160.05234 141.67937 L 161.81486 139.927 L 163.87114 137.856 L 166.0743 135.94431 L 167.9837 133.714 L 169.8931 131.80232 L 171.36188 130.04994 L 172.97752 127.97894 L 174.88693 125.74864 L 176.9432 123.51833 L 178.55886 121.12872 L 180.02763 119.21704 L 181.20264 117.78327 L 179.88075 121.60665 L 178.99949 123.51833 L 178.11822 125.74864 L 177.53072 127.66033 L 176.20882 130.68717 L 174.88693 133.5547 L 173.85879 136.26292 L 172.09626 139.28976 L 170.03998 142.95383 L 168.57121 145.82137 L 167.10244 148.21098 L 165.4868 150.60059 L 163.87114 152.83089 L 161.96174 156.01704 L 160.05234 158.56595 L 158.87732 160.79626 L 157.26167 162.86725 L 155.64602 165.41617 L 153.58974 168.2837 L 151.82722 170.67331 L 150.21157 172.7443 L 148.30216 175.77115 L 145.80525 178.798 L 144.04273 181.1876 L 142.2802 183.5772 L 140.51768 185.80751 L 138.60827 188.19712 L 136.99262 190.42743 L 135.52385 192.49842 L 134.05508 194.72873 L 132.58631 196.64041 L 131.4113 198.23349 L 131.26442 198.5521 L 133.9082 197.75557 L 136.25824 196.79972 L 138.02076 195.84388 L 139.78329 194.88803 L 141.6927 193.9322 L 139.63641 196.1625 L 138.16764 198.07418 L 136.84575 200.4638 L 135.8176 202.05686 L 133.46757 205.72093 L 131.85192 208.74777 L 130.0894 212.41184 L 128.47375 215.12007 L 126.71122 217.9876 L 124.65494 220.2179 L 122.30491 223.24474 L 122.30491 225.63435 L 122.59866 228.6612 L 123.18617 234.71487 L 73.83545 255.90275 L 25.07224 234.23695 L 26.394134 223.24474 L 25.219117 221.81098 L 23.309714 219.73998 L 21.40031 217.50968 L 19.784663 214.96076 L 18.169014 212.57115 L 16.84712 209.86293 L 15.525225 207.314 L 14.056454 204.28717 L 12.440805 201.73825 L 10.825157 199.50795 L 8.915754 196.3218 L 7.153228 194.2508 L 10.67828 196.00318 L 13.615823 197.43695 L 17.287751 198.5521 L 10.384525 189.31228 L 2.0125281 178.32007 L -3.8625577 170.03608 L -10.031398 161.11487 L -15.02522 153.94604 L -20.019044 145.82137 L -24.425358 137.856 L -26.481638 133.714 L -28.244164 130.04994 L -29.859812 126.06725 L -32.797355 117.46465 L -30.00669 121.44734 L -26.041007 126.54517 L -20.606552 132.75816 L -16.05336 137.37808 L -13.262695 140.0863 L -11.206415 142.3166 L -5.184452 147.73305 L 1.4250196 153.46812 L 11.853297 162.07072 L 10.237648 158.08803 L 5.2438253 153.94604 L .39687954 149.80405 L -4.009435 146.13998 L -9.443889 140.72353 L -14.143958 136.26292 L -18.256518 131.80232 L -22.075324 127.50102 L -24.86599 123.83695 L -27.656655 120.33219 L -30.300444 116.3495 L -29.566058 113.00405 L -28.097287 108.38414 L -26.481638 103.76422 L -25.30662 100.73738 L -24.27848 98.02916 L -23.103464 95.63955 L -21.487815 92.61271 L -20.312798 90.2231 L -15.906484 82.25773 L -16.493992 86.71833 L -16.787746 91.33825 L -16.493992 95.16162 L -15.906484 98.985 L -14.731466 104.87937 L -13.115818 108.86206 L -11.500169 112.68543 L -6.506346 122.56249 L -8.268872 117.30535 L -9.150135 114.75643 L -9.884521 112.20751 L -11.059538 107.5876 L -11.9408 103.2863 L -12.528309 97.07331 L -12.234555 91.49755 L -12.087678 88.78933 L -11.206415 83.37288 L -10.178275 79.5495 L -9.003258 76.20405 L -6.8001006 80.18673 L -4.303189 83.37288 L -2.246909 86.24041 L 2.3062824 91.65686 L 7.4469825 96.59539 L 9.943894 98.82569 L 13.322068 101.53392 L 15.378348 103.12699 L 20.078417 106.31314 Z" fill="#818181"/>
        <path d="M 24.871086 109.20734 L 27.825076 107.75619 M 27.68567 107.83518 L 30.358496 106.09524 M 30.285795 106.13616 L 32.650863 105.04458 M 32.51322 105.1218 L 35.222735 103.51393 M 35.019275 103.63651 L 38.09439 101.75588 M 37.96823 101.83738 L 40.20623 100.27174 M 40.13121 100.32167 L 42.71637 98.69424 M 42.622833 98.76296 L 45.61484 96.28561 M 45.518273 96.35856 L 47.89484 94.64857 M 47.78354 94.74154 L 50.50387 92.20776 M 50.379387 92.3165 L 52.610327 90.52566 M 52.498075 90.6181 L 55.35899 88.21764 M 55.24702 88.30705 L 58.35809 86.02056 M 58.18942 86.15524 L 61.038575 83.70376 M 60.93433 83.78666 L 63.790575 81.58782 M 63.649776 81.70004 L 66.72817 79.06672 M 66.580616 79.20394 L 69.292544 76.50638 M 69.20948 76.57837 L 71.96685 74.43605 M 71.85633 74.53275 L 74.52138 71.77164 M 74.41214 71.82372 L 76.64463 74.32616 M 76.543375 74.230975 L 78.64947 76.10338 M 78.50901 75.97398 L 80.74416 78.07705 M 80.64584 77.98621 L 82.94832 80.03322 M 82.82575 79.91922 L 84.49419 81.53598 M 84.37533 81.42223 L 86.14582 83.08343 M 86.00918 82.96387 L 88.44823 84.83259 M 88.39169 84.78753 L 90.99261 86.92866 M 90.91384 86.87044 L 93.71488 88.82464 M 93.62148 88.7487 L 96.39784 91.20609 M 96.31481 91.13783 L 99.81085 93.81259 M 99.64684 93.67769 L 102.23209 95.99326 M 102.16455 95.93762 L 105.13351 98.08485 M 104.98185 97.97797 L 108.96116 100.73526 M 108.79815 100.62699 L 112.1848 102.81324 M 112.06681 102.74482 L 114.58371 104.1466 M 114.45224 104.06627 L 117.35985 105.98286 M 117.27986 105.93398 L 119.5017 107.1776 M 119.32992 107.07671 L 121.39637 108.34538 M 121.31586 108.29313 L 123.2037 109.56478 M 123.07159 109.56483 L 125.27147 108.29993 M 125.1593 108.36266 L 126.95216 107.39512 M 126.8218 107.47332 L 128.6194 106.22585 M 128.484 106.31949 L 130.72842 104.77675 M 130.54721 104.90655 L 132.60369 103.382 M 132.49542 103.45633 L 134.6857 102.13608 M 134.52503 102.24899 L 136.95856 100.13166 M 136.8337 100.23828 L 138.99145 98.46082 M 138.8466 98.58734 L 140.72917 96.8685 M 140.62014 96.96821 L 142.53428 95.21642 M 142.35281 95.38727 L 144.91838 92.90271 M 144.84362 92.97854 L 147.17261 90.43854 M 147.05393 90.5654 L 148.54594 89.01346 M 148.44573 89.12164 L 150.05912 87.18869 M 149.99482 87.26918 L 151.55967 85.19954 M 151.47272 85.31716 L 153.34029 82.76141 M 153.20803 82.9396 L 154.97094 80.60146 M 154.887 80.73699 L 156.40123 78.11905 M 156.33696 78.23589 L 157.6257 75.77625 M 157.58186 75.77112 L 158.3228 78.49039 M 158.2906 78.37693 L 159.01072 80.71236 M 158.95245 80.53994 L 159.67501 82.46595 M 159.63842 82.3338 L 160.11376 85.23835 M 160.0918 85.08703 L 160.35308 87.72162 M 160.34055 87.60975 L 160.65884 89.96083 M 160.64863 89.8443 L 160.73705 91.85251 M 160.7266 91.70105 L 160.93816 93.77111 M 160.93116 93.59549 L 160.91487 96.01406 M 160.92348 95.87393 L 160.7376 98.12623 M 160.74112 97.97442 L 160.76218 100.32547 M 160.77344 100.18944 L 160.27331 103.16116 M 160.29453 103.0088 L 160.0198 105.43784 M 160.03294 105.34163 L 159.6494 107.72259 M 159.68168 107.56681 L 159.16866 109.43954 M 159.22912 109.23206 L 158.75923 110.76232 M 158.78295 110.6815 L 158.15918 112.94393 M 158.19888 112.81751 L 157.47122 114.89474 M 157.54405 114.67963 L 157.04026 116.22624 M 157.0799 116.10818 L 156.5162 117.73847 M 156.56244 117.59706 L 156.02859 119.52162 M 156.0905 119.324 L 155.52062 120.96938 M 155.59338 120.75465 L 155.07792 122.3079 M 155.04887 122.3284 L 156.41068 119.94123 M 156.32828 120.09357 L 157.41077 117.9243 M 157.35446 118.04157 L 158.28766 115.98545 M 158.22507 116.10141 L 159.3706 114.22029 M 159.32925 114.29573 L 160.41646 112.04677 M 160.35063 112.17244 L 161.47234 110.09969 M 161.40294 110.25869 L 162.12929 107.82359 M 162.0714 107.99724 L 162.82992 105.89141 M 162.7736 106.0664 L 163.42024 103.87567 M 163.38228 104.01034 L 163.86297 102.26016 M 163.81762 102.45556 L 164.26912 100.20056 M 164.2435 100.32414 L 164.67947 98.30933 M 164.65018 98.51076 L 164.8494 95.96702 M 164.83079 96.16499 L 165.09148 93.81704 M 165.07083 93.99395 L 165.35032 91.67129 M 165.3401 91.79827 L 165.2838 89.82002 M 165.29063 90.01534 L 165.18782 87.58976 M 165.1953 87.72559 L 165.01532 85.68879 M 165.03952 85.87733 L 164.75059 84.10968 M 164.77047 84.19557 L 164.18973 82.43171 M 164.14453 82.3806 L 165.79572 84.87621 M 165.70866 84.73587 L 166.86371 86.75874 M 166.78538 86.63265 L 168.21025 88.85152 M 168.12901 88.71614 L 169.01585 90.52784 M 168.9691 90.41716 L 169.87912 92.75367 M 169.8302 92.63746 L 171.0623 95.11407 M 170.9916 94.97779 L 172.3213 97.47644 M 172.27006 97.37504 L 173.28082 99.60487 M 173.2354 99.49861 L 174.04205 101.46094 M 174.01306 101.39119 L 174.78735 103.23708 M 174.73298 103.08638 L 175.30213 104.91823 M 175.26317 104.81405 L 176.15242 106.89341 M 176.10669 106.77456 L 176.7056 108.61432 M 176.65967 108.4564 L 177.14273 110.31797 M 177.09435 110.13821 L 177.78889 112.65999 M 177.81046 112.66347 L 177.45585 111.99113 M 177.44484 111.92272 L 178.27512 114.71556 M 178.22077 114.54951 L 178.88582 116.35471 M 178.90688 116.27111 L 177.47789 118.37165 M 177.55767 118.26047 L 176.13424 120.14984 M 176.22837 120.01514 L 175.16543 121.8902 M 175.25011 121.75372 L 173.88595 123.46914 M 174.0104 123.31225 L 172.13312 125.68824 M 172.25103 125.5421 L 171.00404 127.0421 M 171.08921 126.94127 L 169.29287 129.0057 M 169.3491 128.9446 L 167.89604 130.39173 M 168.0163 130.26419 L 166.56865 132.0155 M 166.69774 131.87541 L 164.8373 133.57144 M 164.90667 133.4945 L 162.96522 135.94269 M 163.0897 135.79981 L 161.4743 137.37066 M 161.58261 137.27738 L 159.19132 139.22943 M 159.34138 139.08497 L 157.83135 140.9176 M 157.90378 140.83888 L 155.89627 142.68853 M 156.00613 142.58811 L 154.35368 144.07612 M 154.4675 143.97232 L 152.62179 145.69122 M 152.73102 145.58644 L 150.9372 147.32204 M 151.0633 147.21396 L 148.86175 148.86756 M 148.93535 148.80196 L 146.89391 150.77053 M 147.0253 150.66316 L 145.35533 151.8763 M 145.44057 151.8108 L 143.05425 153.7833 M 143.19318 153.66696 L 140.5298 155.9143 M 140.68768 155.77688 L 138.71428 157.5528 M 138.84141 157.40437 L 137.81307 159.08795 M 137.87701 158.96339 L 137.4304 160.55979 M 137.50465 160.39184 L 137.07119 160.95167 M 137.06652 160.9176 L 139.33589 159.8339 M 139.2143 159.91145 L 141.55483 157.72185 M 141.45206 157.8135 L 143.1241 156.40411 M 142.98514 156.52004 L 145.4658 154.47124 M 145.30167 154.60302 L 147.39898 152.956 M 147.31614 153.02183 L 149.62554 151.16737 M 149.45212 151.31523 L 151.56368 149.4036 M 151.43075 149.51684 L 153.67208 147.67707 M 153.54414 147.7873 L 156.31395 145.30854 M 156.20954 145.4032 L 158.2201 143.57235 M 158.08705 143.69889 L 160.11187 141.6421 M 160.00331 141.75312 L 161.85235 139.82416 M 161.7448 139.9346 L 163.90513 137.79366 M 163.77581 137.91324 L 166.19571 135.81549 M 166.04251 135.96628 L 168.0222 133.69906 M 167.9058 133.82415 L 169.92801 131.79944 M 169.83958 131.89906 L 171.421 130.02477 M 171.31463 130.16109 L 173.00071 127.8792 M 172.94018 127.95674 L 174.9376 125.63602 M 174.77995 125.81105 L 177.05264 123.41135 M 176.94526 123.54086 L 178.5732 121.01967 M 178.45907 121.17454 L 180.0599 119.24337 M 180.00058 119.31933 L 181.19933 117.71126 M 181.18545 117.67738 L 179.90113 121.67204 M 179.9633 121.51351 L 178.9875 123.5315 M 179.03233 123.43027 L 178.02967 125.82612 M 178.0815 125.68985 L 177.48353 127.75844 M 177.5481 127.58246 L 176.13343 130.76303 M 176.19052 130.63406 L 174.90208 133.58104 M 174.9449 133.47872 L 173.76652 136.37476 M 173.85487 136.198 L 172.0191 139.33619 M 172.10076 139.1912 L 170.05204 142.9899 M 170.10935 142.88404 L 168.5128 145.8289 M 168.58515 145.7038 L 167.00127 148.3057 M 167.06869 148.20005 L 165.38318 150.65197 M 165.46696 150.5288 L 163.82949 152.98222 M 163.92274 152.83863 L 161.8982 156.11336 M 161.97915 155.99216 L 160.08632 158.62294 M 160.13587 158.54672 L 158.78148 160.88167 M 158.86819 160.74507 L 157.23912 162.8445 M 157.3123 162.73651 L 155.57245 165.44563 M 155.63718 165.3473 L 153.59167 168.30067 M 153.71416 168.12847 L 151.79736 170.76773 M 151.89043 170.64972 L 150.10983 172.79669 M 150.2108 172.66328 L 148.21754 175.79395 M 148.3201 175.65355 L 145.69491 178.82451 M 145.79474 178.69563 L 143.94005 181.24514 M 144.05108 181.09135 L 142.2452 183.61711 M 142.37903 183.44112 L 140.47648 185.80948 M 140.53351 185.73842 L 138.50418 188.27023 M 138.63353 188.09462 L 136.93056 190.5678 M 137.04989 190.40217 L 135.438 192.49726 M 135.50612 192.39572 L 133.97787 194.83249 M 134.08538 194.67495 L 132.56977 196.663 M 132.66006 196.54064 L 131.39192 198.28027 M 131.44535 198.2021 L 131.17572 198.65207 M 131.15069 198.5917 L 133.99528 197.76977 M 133.85089 197.82073 L 136.33286 196.75904 M 136.21314 196.81886 L 138.09017 195.81256 M 137.95951 195.88074 L 139.92393 194.86802 M 139.80616 194.9302 L 141.76151 193.8398 M 141.72451 193.84082 L 139.61074 196.17417 M 139.69645 196.07535 L 138.05121 198.14485 M 138.14983 198.00939 L 136.74482 200.54377 M 136.86015 200.34563 L 135.7418 202.16554 M 135.82906 202.02843 L 133.37189 205.75792 M 133.48279 205.5643 L 131.88525 208.81126 M 131.92183 208.73816 L 129.99057 212.53848 M 130.09313 212.34909 L 128.47047 215.10367 M 128.51518 215.0275 L 126.72394 218.09218 M 126.78738 217.99888 L 124.58705 220.2547 M 124.72252 220.09777 L 122.24353 223.34174 M 122.2896 223.1947 L 122.29439 225.72408 M 122.28091 225.5753 L 122.6611 228.72276 M 122.64445 228.5482 L 123.1434 234.86198 M 123.18156 234.7545 L 73.75105 255.93495 M 73.92206 255.9259 L 25.07755 234.16613 M 25.097763 234.29932 L 26.343465 223.20938 M 26.38401 223.31342 L 25.12979 221.76325 M 25.238773 221.89381 L 23.229686 219.63863 M 23.34553 219.77012 L 21.334344 217.43918 M 21.392702 217.52143 L 19.705666 214.8783 M 19.80528 215.03114 L 18.147074 212.54569 M 18.201066 212.6484 L 16.870386 209.85573 M 16.93087 209.97748 L 15.536142 207.3153 M 15.60163 207.4447 L 14.000906 204.2337 M 14.072392 204.36851 L 12.38139 201.6407 M 12.476978 201.78651 L 10.792953 199.3777 M 10.882494 199.51314 L 8.82954 196.21526 M 8.96133 196.39931 L 7.122519 194.17526 M 7.14686 194.23475 L 10.820158 196.03897 M 10.65992 195.96035 L 13.648334 197.4237 M 13.578488 197.39554 L 17.283263 198.6183 M 17.29506 198.6683 L 10.344178 189.30244 M 10.422522 189.40621 L 1.9158647 178.30392 M 1.9834951 178.39496 L -3.92585 170.02884 M -3.834139 170.16187 L -10.048979 160.99118 M -9.96494 161.11288 L -15.074127 153.88771 M -14.958997 154.06006 L -20.003623 145.8225 M -19.938362 145.93688 L -24.391277 137.7653 M -24.331108 137.87716 L -26.57747 133.6617 M -26.503233 133.81255 L -28.210568 130.01542 M -28.174496 130.09748 L -29.93011 126.01708 M -29.89071 126.1153 L -32.845555 117.39373 M -32.850956 117.41103 L -29.98969 121.55802 M -30.093 121.41893 L -25.962855 126.68722 M -26.093704 126.5294 L -20.495871 132.88122 M -20.611965 132.75416 L -15.94689 137.44765 M -16.033671 137.36034 L -13.224742 140.18627 M -13.310893 140.09913 L -11.113419 142.34242 M -11.279061 142.18222 L -5.1450505 147.78117 M -5.268529 147.66989 L 1.4951995 153.60714 M 1.3367599 153.47241 L 11.929815 162.09095 M 11.902233 162.13627 L 10.265919 158.04542 M 10.368025 158.17409 L 5.1451534 153.86554 M 5.2722966 153.97333 L .4026119 149.79066 M .52961876 149.89717 L -4.130756 146.0268 M -3.9799835 146.163 L -9.533629 140.72568 M -9.418173 140.83685 L -14.18706 136.2831 M -14.090197 136.38432 L -18.237052 131.83007 M -18.167578 131.90735 L -22.17454 127.4103 M -22.096468 127.50414 L -24.959394 123.78709 M -24.873504 123.8968 L -27.74809 120.30907 M -27.666816 120.42363 L -30.341 116.22891 M -30.320823 116.38846 L -29.504985 112.9652 M -29.553247 113.13098 L -28.02193 108.29587 M -28.088985 108.49939 L -26.435895 103.70312 M -26.48969 103.85097 L -25.274495 100.64348 M -25.345263 100.82987 L -24.257684 97.97217 M -24.328223 98.14431 L -23.14377 95.59223 M -23.204217 95.71064 L -21.512484 92.54745 M -21.599352 92.70951 L -20.219184 90.13816 M -20.293866 90.27625 L -15.868546 82.24297 M -15.900258 82.24848 L -16.47258 86.8108 M -16.455333 86.64098 L -16.794387 91.44986 M -16.795857 91.23907 L -16.512875 95.14754 M -16.523726 95.06079 L -15.881617 99.13613 M -15.912498 98.96057 L -14.703185 104.94206 M -14.726325 104.85848 L -13.069503 108.97607 M -13.14082 108.80049 L -11.52288 112.7472 M -11.554624 112.67761 L -6.4503875 122.59048 M -6.447255 122.62722 L -8.294156 117.28714 M -8.259447 117.38815 L -9.153102 114.74947 M -9.108008 114.89232 L -9.947095 112.10987 M -9.914304 112.23004 L -11.123542 107.52063 M -11.089419 107.67867 L -11.931883 103.23022 M -11.910653 103.36093 L -12.58602 97.08923 M -12.583508 97.16515 L -12.21834 91.40831 M -12.231037 91.61462 L -12.057598 88.67212 M -12.069951 88.80983 L -11.178908 83.22099 M -11.20205 83.34444 L -10.126969 79.40607 M -10.179978 79.58367 L -9.009413 76.09611 M -9.065716 76.14488 L -6.797948 80.20862 M -6.917133 80.03291 L -4.289643 83.43431 M -4.3595765 83.34217 L -2.1452276 86.32095 M -2.2417024 86.19555 L 2.3533334 91.68812 M 2.2228486 91.54988 L 7.583825 96.64079 M 7.438393 96.50381 L 9.997456 98.88315 M 9.89427 98.79181 L 13.438327 101.59803 M 13.347414 101.52643 L 15.412925 103.14024 M 15.302806 103.0579 L 20.15496 106.29373 M 20.066482 106.23819 L 25.024474 109.24069 M 24.88487 109.18797 L 27.76407 107.77066 M 27.696106 107.81158 L 30.335132 106.10476 M 30.29548 106.10767 L 32.629415 105.0375 M 32.525554 105.10063 L 35.12908 103.5461 M 35.03119 103.61482 L 38.03171 101.7849 M 37.97686 101.81176 L 40.176404 100.27321 M 40.141583 100.2977 L 42.681776 98.6964 M 42.632803 98.7405 L 45.589533 96.28566 M 45.528153 96.33495 L 47.85785 94.66637 M 47.792765 94.71904 L 50.445567 92.25007 M 50.389073 92.29348 L 52.57446 90.5439 M 52.511537 90.5999 L 55.30406 88.25679 M 55.25789 88.28495 L 58.28612 86.06005 M 58.20211 86.1362 L 61.02231 83.71015 M 60.9494 83.77032 L 63.707745 81.64289 M 63.65722 81.67485 L 66.66851 79.10202 M 66.58943 79.18147 L 69.26965 76.520455 M 69.22308 76.56013 L 71.90795 74.46633 M 71.87042 74.515645 L 74.44967 71.83365 M 74.43813 71.79885 L 76.64483 74.27941 M 76.569015 74.204085 L 78.61269 76.03966 M 78.53227 75.95023 L 80.69411 77.99858 M 80.66229 77.96966 L 82.90532 79.96361 M 82.85225 79.89238 L 84.44219 81.44558 M 84.40014 81.39681 L 86.08489 82.97628 M 86.02957 82.94203 L 88.4434 84.79003 M 88.41148 84.76685 L 90.992 86.87984 M 90.93747 86.84334 L 93.69816 88.77891 M 93.64138 88.72826 L 96.37684 91.1523 M 96.33113 91.12129 L 99.74338 93.71515 M 99.67182 93.65161 L 102.21265 95.93755 M 102.18168 95.91992 L 105.09559 98.01841 M 105.00308 97.95426 L 108.91508 100.67137 M 108.82084 100.60042 L 112.17756 102.76609 M 112.08624 102.72235 L 114.54464 104.08353 M 114.47385 104.04157 L 117.33557 105.93784 M 117.30034 105.90968 L 119.43671 107.10798 M 119.34999 107.05384 L 121.37906 108.30914 M 121.33946 108.26566 L 123.16585 109.49733 M 123.08486 109.54512 L 125.22007 108.31192 M 125.16862 108.33536 L 126.88689 107.41988 M 126.83165 107.44937 L 128.5409 106.25666 M 128.49352 106.295 L 130.65458 104.81114 M 130.55395 104.87894 L 132.54515 103.40312 M 132.5041 103.42918 L 134.59561 102.17263 M 134.53359 102.22524 L 136.88677 100.17961 M 136.84457 100.21688 L 138.94084 98.49556 M 138.85597 98.56486 L 140.70592 96.88112 M 140.6329 96.94946 L 142.4532 95.2797 M 142.36206 95.36507 L 144.87801 92.92291 M 144.84953 92.95401 L 147.1101 90.48691 M 147.0662 90.54654 L 148.4764 89.06665 M 148.45196 89.09818 L 150.03764 87.21644 M 149.99853 87.24455 L 151.53708 85.21744 M 151.48297 85.29761 L 153.28038 82.82911 M 153.21325 82.91614 L 154.9595 80.61503 M 154.89486 80.71688 L 156.3842 78.15921 M 156.34077 78.21408 L 157.6021 75.80798 M 157.60679 75.75296 L 158.32928 78.394 M 158.30724 78.360995 L 159.00191 80.59911 M 158.97137 80.52307 L 159.6768 82.37482 M 159.66087 82.31705 L 160.11852 85.11366 M 160.11182 85.07097 L 160.3619 87.6338 M 160.36674 87.59269 L 160.67341 89.88876 M 160.66969 89.82843 L 160.7593 91.74982 M 160.75723 91.6839 L 160.95908 93.67903 M 160.95753 93.57994 L 160.94182 95.95953 M 160.95122 95.85931 L 160.77114 98.05842 M 160.76488 97.95872 L 160.78995 100.24409 M 160.79231 100.17436 L 160.30873 103.07469 M 160.31544 102.99377 L 160.04309 105.37327 M 160.05727 105.3274 L 159.69011 107.61644 M 159.70044 107.55204 L 159.22472 109.32964 M 159.24842 109.21757 L 158.79873 110.70373 M 158.8026 110.66698 L 158.20123 112.8693 M 158.2178 112.80304 L 157.5355 114.76996 M 157.57405 114.66869 L 157.08597 116.155 M 157.105 116.09584 L 156.58002 117.62469 M 156.59297 117.58557 L 156.07612 119.41274 M 156.11028 119.30981 L 155.579 120.85308 M 155.61651 120.74152 L 155.12286 122.22127 M 155.05445 122.30704 L 156.37514 120.01477 M 156.33778 120.07489 L 157.38887 117.97545 M 157.36394 118.02316 L 158.27317 116.01853 M 158.22757 116.07779 L 159.35591 114.2396 M 159.33625 114.27593 L 160.4074 112.06587 M 160.36614 112.15676 L 161.43709 110.17352 M 161.40851 110.24007 L 162.11329 107.88048 M 162.0814 107.9796 L 162.81385 105.94559 M 162.78323 106.049 L 163.4096 103.90409 M 163.39628 103.99427 L 163.84405 102.32499 M 163.81922 102.43713 L 164.26364 100.25292 M 164.24695 100.30588 L 164.67195 98.39119 M 164.65823 98.49454 L 164.84357 96.05345 M 164.83563 96.14817 L 165.08825 93.86888 M 165.0729 93.97669 L 165.34243 91.74716 M 165.35383 91.7827 L 165.28706 89.90968 M 165.29532 90.00018 L 165.19792 87.67311 M 165.20114 87.71082 L 165.0257 85.7625 M 165.04097 85.86402 L 164.76441 84.14636 M 164.77442 84.18379 L 164.215 82.45087 M 164.1627 82.3633 L 165.77377 84.77555 M 165.72479 84.71996 L 166.8649 86.70222 M 166.80162 86.61663 L 168.16317 88.73772 M 168.1456 88.70004 L 169.02507 90.47022 M 168.98565 90.40118 L 169.86544 92.65461 M 169.85088 92.61932 L 171.0551 95.0448 M 171.01565 94.95768 L 172.30605 97.3914 M 172.29745 97.35408 L 173.28195 99.54638 M 173.26431 99.47752 L 174.05035 101.41014 M 174.03337 101.3736 L 174.77993 103.14951 M 174.75743 103.06801 L 175.30672 104.85362 M 175.28682 104.795 L 176.1437 106.80664 M 176.13322 106.75538 L 176.7083 108.5198 M 176.68662 108.43784 L 177.1462 110.23022 M 177.11642 110.12081 L 177.78594 112.56521 M 177.82274 112.64961 L 177.47985 112.02287 M 177.46232 111.90654 L 178.26518 114.60312 M 178.24912 114.5292 L 178.8893 116.30478 M 178.92528 116.25737 L 177.53826 118.30679 M 177.58081 118.25051 L 176.22668 120.04273 M 176.25733 120.00708 L 175.24554 121.7731 M 175.27396 121.74463 L 173.9806 123.36189 M 174.02604 123.29665 L 172.21815 125.58634 M 172.26938 125.52875 L 171.08401 126.96842 M 171.11624 126.93556 L 169.34888 128.95811 M 169.37302 128.9373 L 167.998 130.29496 M 168.03683 130.25262 L 166.661 131.91022 M 166.71672 131.86347 L 164.88394 133.52925 M 164.93177 133.48639 L 163.06052 135.83488 M 163.10683 135.78573 L 161.52753 137.33135 M 161.6021 137.26648 L 159.30179 139.13648 M 159.36708 139.07765 L 157.88902 140.85317 M 157.92299 140.82714 L 155.9855 142.60878 M 156.03 142.58166 L 154.44622 144.00282 M 154.4848 143.9585 L 152.6639 145.65313 M 152.75014 145.57442 L 151.02071 147.25293 M 151.08187 147.20227 L 148.90846 148.84075 M 148.95746 148.79306 L 146.96388 150.71089 M 147.04593 150.65443 L 145.42326 151.82824 M 145.46508 151.80592 L 143.12194 153.72562 M 143.20925 153.65185 L 140.63561 155.83718 M 140.70422 155.76227 L 138.82025 157.47468 M 138.87007 157.3967 L 137.88447 158.98572 M 137.90106 158.95012 L 137.49083 160.43507 M 137.52113 160.37688 L 137.13371 160.88025 M 137.07923 160.89587 L 139.2697 159.8502 M 139.22756 159.89329 L 141.51498 157.7553 M 141.46318 157.79253 L 143.06905 156.4435 M 142.99184 156.4936 L 145.4062 154.50953 M 145.30864 154.57637 L 147.36964 152.96404 M 147.3263 152.9994 L 149.54529 151.21552 M 149.46417 151.29566 L 151.52429 149.4253 M 151.44473 149.4992 L 153.6216 147.6983 M 153.55555 147.76697 L 156.2953 145.30756 M 156.21688 145.37847 L 158.149 143.62605 M 158.09599 143.67668 L 160.03874 141.7017 M 160.01073 141.72963 L 161.79296 139.88431 M 161.75302 139.91151 L 163.85539 137.83251 M 163.78483 137.88999 L 166.11797 135.87115 M 166.05228 135.94554 L 167.97625 133.74943 M 167.91782 133.80492 L 169.90832 131.80503 M 169.85401 131.88244 L 171.3809 130.05425 M 171.32263 130.13983 L 172.97838 127.91427 M 172.9459 127.93259 L 174.86118 125.70473 M 174.7892 125.78938 L 176.98882 123.47001 M 176.95447 123.52109 L 178.53263 121.07791 M 178.46338 121.14954 L 180.04144 119.25369 M 180.00417 119.29474 L 181.16508 117.74934 M 181.21134 117.66505 L 179.9562 121.57046 M 179.9886 121.50257 L 179.02656 123.48047 M 179.06207 123.42055 L 178.09502 125.71838 M 178.09997 125.67505 L 177.52838 127.6559 M 177.57103 127.57009 L 176.19262 130.65614 M 176.20988 130.62006 L 174.94225 133.52957 M 174.96211 133.46374 L 173.82798 136.27923 M 173.873 136.18384 L 172.08615 139.24883 M 172.11889 139.17693 L 170.08577 142.94751 M 170.13201 142.87223 L 168.57303 145.76336 M 168.61155 145.69473 L 167.06277 148.22737 M 167.09558 148.19217 L 165.45764 150.56076 M 165.4838 150.514 L 163.9109 152.8788 M 163.94377 152.82635 L 161.95477 156.03766 M 161.99773 155.97866 L 160.136 158.57373 M 160.1541 158.5326 L 158.85867 160.77015 M 158.88765 160.73242 L 157.2845 162.80618 M 157.33199 162.7235 L 155.63888 165.36782 M 155.65871 165.33577 L 153.67272 168.21714 M 153.73262 168.11491 L 151.84775 170.7061 M 151.90642 170.6344 L 150.20493 172.70651 M 150.2382 172.65515 L 148.28008 175.70772 M 148.33871 175.6404 L 145.76665 178.75342 M 145.81256 178.6816 L 144.01948 181.14503 M 144.07342 181.08052 L 142.32796 183.5202 M 142.39609 183.42665 L 140.53789 185.75977 M 140.55543 185.72784 L 138.58515 188.1844 M 138.64958 188.0793 L 137.01905 190.45465 M 137.07508 190.3939 L 135.47796 192.4506 M 135.53258 192.38689 L 134.06354 194.73108 M 134.10393 194.66155 L 132.6175 196.61995 M 132.68733 196.5335 L 131.4507 198.21836 M 131.46816 198.1908 L 131.24932 198.56007 M 131.16569 198.5739 L 133.92915 197.76295 M 133.86437 197.8001 L 136.30399 196.75073 M 136.22375 196.79387 L 138.06494 195.81554 M 137.97333 195.8616 L 139.85308 194.88905 M 139.8145 194.9015 L 141.69843 193.85438 M 141.7471 193.83151 L 139.69615 196.10445 M 139.71875 196.06503 L 138.14955 198.03545 M 138.16805 197.9952 L 136.82551 200.4244 M 136.87781 200.33125 L 135.80548 202.08409 M 135.85438 202.0192 L 133.4551 205.65238 M 133.50712 205.55296 L 131.9276 208.7649 M 131.94648 208.72712 L 130.0696 212.41491 M 130.12137 212.3409 L 128.5191 215.05185 M 128.5375 215.01579 L 126.78456 218.00824 M 126.80525 217.98545 L 124.68213 220.1729 M 124.74888 220.09034 L 122.3163 223.27396 M 122.30759 223.17907 L 122.32118 225.67063 M 122.29656 225.55967 L 122.6697 228.63864 M 122.6619 228.53243 L 123.15923 234.75764 M 123.1981 234.74102 L 73.869106 255.88896 M 73.93164 255.92384 L 25.125836 234.1673 M 25.11299 234.28365 L 26.341412 223.23972 M 26.389474 223.30602 L 25.209313 221.84422 M 25.249226 221.8828 L 23.31164 219.7168 M 23.35603 219.75891 L 21.368465 217.45312 M 21.405275 217.50776 L 19.761258 214.95156 M 19.817168 215.018 L 18.174163 212.5607 M 18.216636 212.6328 L 16.911575 209.91337 M 16.94383 209.96325 L 15.568362 207.33988 M 15.615828 207.4298 L 14.058485 204.32142 M 14.085883 204.35421 L 12.435512 201.71213 M 12.488836 201.77352 L 10.856132 199.43048 M 10.894731 199.49962 L 8.896271 196.30625 M 8.967727 196.39132 L 7.192583 194.24936 M 7.168483 194.2069 L 10.736657 195.95762 M 10.677887 195.93994 L 13.637877 197.38028 M 13.596179 197.37366 L 17.268524 198.58207 M 17.298272 198.66188 L 10.393836 189.33667 M 10.434085 189.3937 L 1.9645566 178.35102 M 1.9878027 178.38733 L -3.872275 170.06805 M -3.8276552 170.15244 L -9.995126 161.04966 M -9.961029 161.10554 L -14.989342 153.97494 M -14.946923 154.04661 L -19.96236 145.85094 M -19.930263 145.92536 L -24.35927 137.80093 M -24.320008 137.86395 L -26.526052 133.7258 M -26.500082 133.80254 L -28.190083 130.04493 M -28.159787 130.08225 L -29.893813 126.07192 M -29.888818 126.10432 L -32.824968 117.43147 M -32.828282 117.39054 L -30.012684 121.47916 M -30.07103 121.39834 L -26.00263 126.57848 M -26.0694 126.50613 L -20.555517 132.77105 M -20.594075 132.73628 L -15.977953 137.36754 M -16.011265 137.33797 L -13.254157 140.10666 M -13.29475 140.083 L -11.178392 142.239 M -11.261112 142.16404 L -5.2066555 147.6841 M -5.251298 147.65243 L 1.4296578 153.50122 M 1.3531454 153.45585 L 11.880193 162.0171 M 11.904514 162.12598 L 10.302567 158.09832 M 10.374877 158.1691 L 5.192997 153.89568 M 5.279491 153.96752 L .44982196 149.81163 M .5357253 149.893 L -4.040881 146.07814 M -3.9696454 146.15277 L -9.482494 140.7506 M -9.413116 140.8323 L -14.142518 136.30922 M -14.076619 136.37056 L -18.201928 131.85472 M -18.15551 131.8949 L -22.124785 127.45032 M -22.086658 127.49299 L -24.89421 123.83656 M -24.866162 123.88781 L -27.699925 120.34997 M -27.663902 120.41611 L -30.284373 116.2806 M -30.30952 116.3718 L -29.514097 113.00084 M -29.55192 113.11083 L -28.054175 108.38671 M -28.076195 108.48279 L -26.453312 103.7487 M -26.488504 103.82988 L -25.297797 100.72526 M -25.344085 100.80874 L -24.293118 98.06529 M -24.320552 98.12499 L -23.159148 95.61173 M -23.199707 95.68907 L -21.540085 92.58706 M -21.588712 92.69121 L -20.258246 90.21993 M -20.278664 90.26039 L -15.896332 82.29848 M -15.869772 82.23472 L -16.432426 86.70072 M -16.430552 86.626 L -16.770109 91.33786 M -16.779284 91.22338 L -16.488713 95.09804 M -16.503192 95.04439 L -15.87658 99.01621 M -15.884623 98.94247 L -14.686141 104.8716 M -14.69629 104.83706 L -13.079756 108.86927 M -13.121544 108.78337 L -11.514917 112.68923 M -11.535567 112.66022 L -6.463734 122.51812 M -6.446233 122.61664 L -8.266446 117.34551 M -8.256009 117.37665 L -9.13069 114.7921 M -9.094415 114.87731 L -9.926319 112.1398 M -9.902975 112.21552 L -11.103961 107.57029 M -11.088155 107.66577 L -11.899954 103.30223 M -11.903886 103.34626 L -12.566875 97.11655 M -12.567911 97.14953 L -12.211662 91.51216 M -12.227976 91.59826 L -12.056819 88.75152 M -12.056244 88.7939 L -11.183347 83.29752 M -11.195683 83.32629 L -10.144236 79.49467 M -10.165913 79.56752 L -9.026225 76.17358 M -9.049467 76.1289 L -6.823924 80.11503 M -6.895065 80.01231 L -4.310704 83.36828 M -4.3371266 83.32147 L -2.1926222 86.21161 M -2.218452 86.17354 L 2.3129504 91.60087 M 2.2391635 91.53353 L 7.518138 96.53266 M 7.462896 96.47863 L 9.950742 98.79444 M 9.913921 98.7711 L 13.404116 101.53447 M 13.36905 101.50311 L 15.351359 103.06299 M 15.325517 103.03165 L 20.145057 106.24693 M 20.08599 106.21615 L 24.945035 109.15836" stroke="gray" stroke-linecap="round" stroke-linejoin="round" stroke-width=".25"/>
      </g>
    </g>
  </g>
</svg>
