<?xml version="1.0" encoding="UTF-8" standalone="no"?>
<!DOCTYPE svg PUBLIC "-//W3C//DTD SVG 1.1//EN" "http://www.w3.org/Graphics/SVG/1.1/DTD/svg11.dtd">
<svg xmlns="http://www.w3.org/2000/svg" xmlns:xl="http://www.w3.org/1999/xlink" version="1.1" viewBox="253.29736 127.84542 432.4053 449.30915" width="432.4053pt" height="449.30915pt" xmlns:dc="http://purl.org/dc/elements/1.1/">
  <metadata> Produced by OmniGraffle 7.6.1 
    <dc:date>2019-04-23 15:02:20 +0000</dc:date>
  </metadata>
  <defs>
    <radialGradient cx="0" cy="0" r="1" id="Gradient" gradientUnits="userSpaceOnUse">
      <stop offset="0" stop-color="#cbcbcb"/>
      <stop offset="1" stop-color="#0f74e9"/>
    </radialGradient>
    <radialGradient id="Obj_Gradient" xl:href="#Gradient" gradientTransform="translate(468.5566 155.74542) scale(70.26272)"/>
    <radialGradient cx="0" cy="0" r="1" id="Gradient_2" gradientUnits="userSpaceOnUse">
      <stop offset="0" stop-color="#ff7d47"/>
      <stop offset="1" stop-color="#100b2b"/>
    </radialGradient>
    <radialGradient id="Obj_Gradient_2" xl:href="#Gradient_2" gradientTransform="translate(295.99736 291.59157) scale(46.03694)"/>
    <radialGradient cx="0" cy="0" r="1" id="Gradient_3" gradientUnits="userSpaceOnUse">
      <stop offset="0" stop-color="#f95"/>
      <stop offset="1" stop-color="#0e0b2b"/>
    </radialGradient>
    <radialGradient id="Obj_Gradient_3" xl:href="#Gradient_3" gradientTransform="translate(643.00264 290.64817) scale(46.03694)"/>
    <linearGradient x1="0" x2="1" id="Gradient_4" gradientUnits="userSpaceOnUse">
      <stop offset="0" stop-color="#ff6f41"/>
      <stop offset="1" stop-color="#07030b"/>
    </linearGradient>
    <linearGradient id="Obj_Gradient_4" xl:href="#Gradient_4" gradientTransform="translate(467.8566 129.10132) rotate(90) scale(25)"/>
    <radialGradient cx="0" cy="0" r="1" id="Gradient_5" gradientUnits="userSpaceOnUse">
      <stop offset="0" stop-color="#ff7338"/>
      <stop offset="1" stop-color="#0d081d"/>
    </radialGradient>
    <radialGradient id="Obj_Gradient_5" xl:href="#Gradient_5" gradientTransform="translate(469.12703 565.3288) scale(135.94141)"/>
  </defs>
  <g stroke="none" stroke-opacity="1" stroke-dasharray="none" fill="none" fill-opacity="1">
    <title>Cincinnati</title>
    <g>
      <title>Capa 1</title>
      <path d="M 406.803 128.93587 L 414.96846 132.05359 C 415.82645 132.38119 416.7033 132.6571 417.5943 132.87984 L 431.31146 136.30914 C 432.4731 136.59955 433.6557 136.7988 434.84836 136.90509 L 452.3745 138.46682 C 452.96235 138.5192 453.552 138.54894 454.14213 138.55597 L 469.62105 138.74024 C 469.9114 138.7437 470.2018 138.74165 470.49204 138.73411 L 484.91535 138.35948 C 485.27614 138.35011 485.63665 138.33225 485.9966 138.30591 L 500.3679 137.25436 C 501.3593 137.18181 502.345 137.04507 503.31875 136.84498 L 514.8917 134.46698 C 515.9337 134.25287 516.9596 133.96672 517.962 133.61061 L 529.714 129.43556 C 530.8044 129.04819 532.0076 129.57897 532.4566 130.64542 L 532.4566 130.64542 C 532.97875 131.88553 533.13074 133.25028 532.8942 134.57487 L 532.7137 135.58556 C 532.40995 137.28672 531.9154 138.94822 531.2395 140.53861 L 529.6963 144.16973 C 529.1377 145.484 528.45795 146.7434 527.6658 147.9316 L 523.98004 153.46027 C 523.2325 154.58154 522.3879 155.63494 521.45597 156.60831 L 515.1609 163.18316 C 514.2928 164.08982 513.352 164.92389 512.3478 165.67702 L 503.9729 171.9582 C 503.0965 172.6155 502.17423 173.20936 501.2132 173.73523 L 494.028 177.66675 C 492.71685 178.38416 491.3389 178.97206 489.91373 179.42212 L 483.2408 181.52936 C 481.52395 182.07153 479.74935 182.41023 477.9535 182.5385 L 471.06703 183.0304 C 469.99473 183.10699 468.9184 183.1083 467.8459 183.03434 L 459.40964 182.45253 C 458.37547 182.3812 457.3473 182.24005 456.33216 182.03002 L 449.19696 180.55377 C 447.245 180.14992 445.35383 179.49404 443.57097 178.6026 L 438.91156 176.2729 C 437.67743 175.65584 436.5013 174.92896 435.3975 174.10108 L 429.7155 169.83961 C 429.2764 169.51026 428.8492 169.1653 428.4347 168.80537 L 422.67954 163.80745 C 421.86526 163.10031 421.1017 162.33677 420.3946 161.52248 L 415.98935 156.4498 C 415.23525 155.58144 414.54734 154.65774 413.9314 153.68647 L 410.1977 147.79871 C 409.83715 147.23013 409.5017 146.64599 409.1924 146.04797 L 407.57203 142.91525 C 406.9629 141.73757 406.4567 140.50943 406.0592 139.24454 L 404.77894 135.17105 C 404.56417 134.48767 404.38143 133.79464 404.23134 133.0942 L 404.1566 132.74542 C 403.96194 131.837 404.0692 130.88986 404.4621 130.04797 L 404.5566 129.84542 C 404.9511 129.00012 405.93155 128.60313 406.803 128.93587 Z" fill="url(#Obj_Gradient)"/>
      <path d="M 406.803 128.93587 L 414.96846 132.05359 C 415.82645 132.38119 416.7033 132.6571 417.5943 132.87984 L 431.31146 136.30914 C 432.4731 136.59955 433.6557 136.7988 434.84836 136.90509 L 452.3745 138.46682 C 452.96235 138.5192 453.552 138.54894 454.14213 138.55597 L 469.62105 138.74024 C 469.9114 138.7437 470.2018 138.74165 470.49204 138.73411 L 484.91535 138.35948 C 485.27614 138.35011 485.63665 138.33225 485.9966 138.30591 L 500.3679 137.25436 C 501.3593 137.18181 502.345 137.04507 503.31875 136.84498 L 514.8917 134.46698 C 515.9337 134.25287 516.9596 133.96672 517.962 133.61061 L 529.714 129.43556 C 530.8044 129.04819 532.0076 129.57897 532.4566 130.64542 L 532.4566 130.64542 C 532.97875 131.88553 533.13074 133.25028 532.8942 134.57487 L 532.7137 135.58556 C 532.40995 137.28672 531.9154 138.94822 531.2395 140.53861 L 529.6963 144.16973 C 529.1377 145.484 528.45795 146.7434 527.6658 147.9316 L 523.98004 153.46027 C 523.2325 154.58154 522.3879 155.63494 521.45597 156.60831 L 515.1609 163.18316 C 514.2928 164.08982 513.352 164.92389 512.3478 165.67702 L 503.9729 171.9582 C 503.0965 172.6155 502.17423 173.20936 501.2132 173.73523 L 494.028 177.66675 C 492.71685 178.38416 491.3389 178.97206 489.91373 179.42212 L 483.2408 181.52936 C 481.52395 182.07153 479.74935 182.41023 477.9535 182.5385 L 471.06703 183.0304 C 469.99473 183.10699 468.9184 183.1083 467.8459 183.03434 L 459.40964 182.45253 C 458.37547 182.3812 457.3473 182.24005 456.33216 182.03002 L 449.19696 180.55377 C 447.245 180.14992 445.35383 179.49404 443.57097 178.6026 L 438.91156 176.2729 C 437.67743 175.65584 436.5013 174.92896 435.3975 174.10108 L 429.7155 169.83961 C 429.2764 169.51026 428.8492 169.1653 428.4347 168.80537 L 422.67954 163.80745 C 421.86526 163.10031 421.1017 162.33677 420.3946 161.52248 L 415.98935 156.4498 C 415.23525 155.58144 414.54734 154.65774 413.9314 153.68647 L 410.1977 147.79871 C 409.83715 147.23013 409.5017 146.64599 409.1924 146.04797 L 407.57203 142.91525 C 406.9629 141.73757 406.4567 140.50943 406.0592 139.24454 L 404.77894 135.17105 C 404.56417 134.48767 404.38143 133.79464 404.23134 133.0942 L 404.1566 132.74542 C 403.96194 131.837 404.0692 130.88986 404.4621 130.04797 L 404.5566 129.84542 C 404.9511 129.00012 405.93155 128.60313 406.803 128.93587 Z" stroke="#7f8080" stroke-linecap="round" stroke-linejoin="round" stroke-width="1"/>
      <path d="M 341.1274 566.51835 L 354.86965 568.8087 C 355.05303 568.8393 355.23693 568.86665 355.42126 568.8908 L 383.7749 572.6061 C 384.02143 572.6384 384.26867 572.665 384.51644 572.68575 L 414.75933 575.22225 C 415.01623 575.2438 415.2736 575.2591 415.53127 575.26824 L 454.4622 576.6446 C 454.65054 576.65125 454.839 576.6546 455.0275 576.6546 L 486.4948 576.6546 C 486.6614 576.6546 486.828 576.652 486.99456 576.6468 L 512.02935 575.8644 C 512.2396 575.85786 512.4497 575.84715 512.6595 575.8323 L 534.70726 574.2714 C 534.8656 574.2602 535.0237 574.2466 535.1816 574.2307 L 560.4421 571.6851 C 560.64385 571.66474 560.8452 571.6406 561.046 571.6126 L 584.8387 568.2972 C 585.0427 568.2688 585.24615 568.2364 585.4489 568.20014 L 594.64474 566.5546 C 599.97185 565.6013 603.6227 560.64766 602.9563 555.2771 L 600.7487 537.48655 C 600.7461 537.46523 600.7435 537.4439 600.7409 537.4226 L 597.1771 507.72406 C 597.1555 507.5444 597.137 507.3644 597.1216 507.18415 L 594.75935 479.62494 C 594.7496 479.51137 594.7411 479.3977 594.7338 479.28393 L 593.3472 457.6923 C 593.34555 457.66715 593.3439 457.642 593.34214 457.61687 L 591.75 434.53056 C 591.7465 434.4799 591.74324 434.42923 591.7402 434.37854 L 590.56386 414.5764 C 590.5511 414.36186 590.5427 414.1471 590.5386 413.93226 L 590.1463 393.3374 C 590.1453 393.2822 590.1439 393.22696 590.1423 393.17174 L 589.5472 372.9374 C 589.54556 372.8822 589.5442 372.82696 589.5432 372.77172 L 589.1525 352.2622 C 589.1473 351.9905 589.1491 351.7187 589.15775 351.4471 L 589.7437 333.0875 C 589.7444 333.06554 589.74514 333.0436 589.7459 333.02166 L 590.534 311.15235 C 590.5412 310.95385 590.552 310.7555 590.56656 310.5574 L 592.124 289.33678 C 592.13784 289.14865 592.1483 288.9603 592.1555 288.7718 L 592.9099 268.87294 C 592.9331 268.2612 592.9914 267.6513 593.0845 267.04622 L 595.8235 249.2427 C 595.9043 248.7176 596.01116 248.19686 596.14375 247.6824 L 600.772 229.72474 C 600.8871 229.27817 601.0215 228.83678 601.1747 228.40182 L 606.8955 212.16217 C 607.06156 211.6907 607.24966 211.22726 607.4591 210.7734 L 612.9907 198.78836 C 613.0934 198.56586 613.2012 198.34576 613.314 198.1282 L 618.6762 187.78679 C 618.7219 187.69864 618.7684 187.61093 618.81575 187.52365 L 624.0317 177.9067 C 624.769 176.54733 625.71864 175.31444 626.84474 174.25457 L 626.84474 174.25457 C 627.5199 173.6191 627.5521 172.5566 626.91666 171.8814 C 626.7922 171.74913 626.647 171.63794 626.4869 171.55216 L 623.2728 169.8303 C 623.0541 169.71316 622.8328 169.60113 622.6089 169.49428 L 614.7549 165.7458 C 614.3483 165.55173 613.9337 165.37493 613.5122 165.21586 L 603.8373 161.56498 C 603.6423 161.49138 603.4458 161.4216 603.24806 161.35568 L 590.5536 157.12418 C 590.4144 157.07778 590.2745 157.03329 590.13406 156.99073 L 577.25054 153.08663 C 577.18 153.06526 577.1096 153.0434 577.0394 153.02105 L 564.5354 149.0425 C 564.1418 148.91726 563.75315 148.77682 563.3704 148.6215 L 551.39445 143.7617 C 550.5628 143.42421 549.761 143.01734 548.99756 142.5454 L 539.3783 136.59896 C 539.2226 136.5027 539.0686 136.40379 538.91626 136.30225 L 534.02617 133.04218 C 533.0448 132.38792 532.17346 131.58202 531.44474 130.65457 L 531.44474 130.65457 C 531.33914 130.52016 531.1446 130.49682 531.0102 130.60242 C 530.9074 130.68315 530.86645 130.8197 530.9078 130.94365 L 531.04474 131.35457 C 531.504 132.73232 531.60855 134.2036 531.34876 135.63246 L 530.9536 137.80572 C 530.6824 139.29738 530.20057 140.74292 529.52254 142.09897 L 527.9902 145.1636 C 527.6935 145.757 527.3602 146.33138 526.9922 146.8834 L 523.7885 151.68895 C 523.3599 152.33185 522.8853 152.94286 522.3684 153.51718 L 517.80634 158.58612 C 517.7653 158.63175 517.72395 158.67715 517.68236 158.7223 L 511.6881 165.23033 C 511.0604 165.91187 510.37464 166.53759 509.6386 167.10044 L 504.6144 170.94246 C 504.1683 171.28363 503.7045 171.60107 503.22495 171.89347 L 496.73854 175.8486 C 496.0769 176.25204 495.3868 176.6069 494.6737 176.91033 L 487.5583 179.93816 C 486.75063 180.28185 485.91605 180.5585 485.063 180.7653 L 480.98395 181.75415 C 480.1591 181.95411 479.3197 182.08813 478.4736 182.15492 L 472.7734 182.60494 C 472.35445 182.63801 471.9344 182.65457 471.51414 182.65457 L 464.4818 182.65457 C 463.7247 182.65457 462.9686 182.60083 462.2191 182.49376 L 454.27264 181.35855 C 453.78763 181.28927 453.30606 181.19774 452.82945 181.08426 L 446.8682 179.66492 C 445.72274 179.39219 444.61086 178.99383 443.5528 178.4771 L 437.2728 175.41012 C 436.78773 175.17324 436.315 174.91196 435.85634 174.62729 L 431.6445 172.01303 C 431.0453 171.64113 430.4714 171.23002 429.92645 170.7824 L 425.48035 167.13025 C 425.25665 166.9465 425.038 166.7567 424.8246 166.5611 L 421.02224 163.07561 C 420.57095 162.66192 420.14377 162.22268 419.7428 161.76003 L 415.62407 157.00763 C 415.3047 156.63912 415.0023 156.25619 414.7179 155.86005 L 410.28826 149.69018 C 409.79336 149.00086 409.3541 148.27327 408.9746 147.51429 L 406.39814 142.36136 C 406.36254 142.29017 406.32748 142.21871 406.29295 142.147 L 405.04474 139.55457 C 404.19403 137.7877 403.8385 135.82316 404.01605 133.87021 L 404.19625 131.88796 C 404.22006 131.6261 404.02707 131.39451 403.7652 131.37071 C 403.6028 131.35594 403.44416 131.42532 403.34474 131.55457 L 403.34474 131.55457 C 402.6813 132.41705 401.9012 133.18313 401.0268 133.83081 L 397.13028 136.71714 C 397.0066 136.80875 396.8816 136.89858 396.7553 136.98659 L 392.13307 140.20816 C 390.94633 141.03528 389.6529 141.69764 388.28816 142.17715 L 383.68104 143.79587 C 383.19046 143.96823 382.7086 144.1644 382.2371 144.3837 L 375.39034 147.56825 C 374.69418 147.89204 373.9756 148.1653 373.2402 148.38593 L 362.36982 151.64704 C 362.3531 151.65206 362.3364 151.6571 362.3197 151.66218 L 351.3516 154.99177 C 351.2137 155.03364 351.07637 155.07736 350.93966 155.12293 L 338.01842 159.43 C 337.9693 159.44638 337.9201 159.46252 337.87082 159.47841 L 326.5034 163.14532 C 325.86493 163.35128 325.24003 163.5972 324.6324 163.88161 L 316.70045 167.59445 C 316.3301 167.7678 315.96656 167.95528 315.61058 168.15649 L 309.66447 171.51733 C 308.41143 172.22557 307.9698 173.8155 308.67802 175.06853 C 308.75514 175.20497 308.8444 175.33417 308.94474 175.45457 L 309.80885 176.4915 C 310.5638 177.39744 311.21627 178.38406 311.7544 179.43339 L 314.83153 185.4338 C 314.907 185.58097 314.98475 185.72696 315.06474 185.87172 L 319.0195 193.02794 C 319.103 193.17902 319.18403 193.33144 319.2626 193.48514 L 323.3709 201.52312 C 323.61996 202.01043 323.84386 202.5102 324.0417 203.02046 L 327.5245 212.00233 C 327.538 212.03716 327.5516 212.07193 327.56536 212.10666 L 331.1617 221.1921 C 331.2837 221.50034 331.3961 221.8123 331.49872 222.1275 L 334.12055 230.18029 C 334.13668 230.2298 334.15256 230.2794 334.1682 230.3291 L 337.24025 240.08736 C 337.44304 240.73152 337.60484 241.38788 337.7247 242.05248 L 339.71 253.06194 C 339.73316 253.19036 339.75475 253.31905 339.77475 253.448 L 341.48062 264.44137 C 341.52336 264.7168 341.5589 264.99328 341.5872 265.27055 L 342.4746 273.96727 C 342.52134 274.42526 342.5483 274.88505 342.55537 275.34536 L 342.7396 287.321 C 342.74303 287.54335 342.7511 287.76562 342.76377 287.98766 L 343.53415 301.4692 C 343.5412 301.5928 343.5497 301.71626 343.55963 301.83963 L 344.8932 318.414 C 344.92755 318.84088 344.94474 319.26896 344.94474 319.6972 L 344.94474 332.147 C 344.94474 332.35203 344.9487 332.55704 344.95656 332.76192 L 345.5369 347.85106 C 345.54213 347.98673 345.54562 348.12246 345.5474 348.2582 L 345.73954 363.05447 C 345.743 363.32116 345.7398 363.5879 345.72993 363.85443 L 345.1557 379.3586 C 345.1484 379.5559 345.14474 379.7533 345.14474 379.95077 L 345.14474 393.547 C 345.14474 393.75203 345.1408 393.95704 345.1329 394.16192 L 344.54773 409.37693 C 344.54574 409.4287 344.5435 409.48044 344.541 409.5322 L 343.74568 426.0351 C 343.74505 426.0481 343.7444 426.06106 343.74376 426.074 L 342.94927 441.7652 C 342.94625 441.8248 342.9429 441.88435 342.9392 441.9439 L 341.7503 461.16464 C 341.7466 461.2246 341.74255 461.28453 341.73816 461.34444 L 339.95503 485.714 C 339.94817 485.8077 339.9405 485.90137 339.93198 485.99495 L 338.1461 505.63977 C 338.1452 505.64964 338.1443 505.6595 338.14337 505.6694 L 336.3726 524.7543 C 336.35403 524.95446 336.3317 525.15427 336.3056 525.3536 L 334.34487 540.3263 C 334.21206 541.3405 333.9429 542.3321 333.54474 543.2743 L 333.54474 543.2743 C 333.14716 544.21505 332.8985 545.21196 332.80767 546.2292 L 332.04474 554.7743 C 331.537 560.4613 335.49545 565.5797 341.1274 566.51835 Z" fill="#ff5819"/>
      <path d="M 341.1274 566.51835 L 354.86965 568.8087 C 355.05303 568.8393 355.23693 568.86665 355.42126 568.8908 L 383.7749 572.6061 C 384.02143 572.6384 384.26867 572.665 384.51644 572.68575 L 414.75933 575.22225 C 415.01623 575.2438 415.2736 575.2591 415.53127 575.26824 L 454.4622 576.6446 C 454.65054 576.65125 454.839 576.6546 455.0275 576.6546 L 486.4948 576.6546 C 486.6614 576.6546 486.828 576.652 486.99456 576.6468 L 512.02935 575.8644 C 512.2396 575.85786 512.4497 575.84715 512.6595 575.8323 L 534.70726 574.2714 C 534.8656 574.2602 535.0237 574.2466 535.1816 574.2307 L 560.4421 571.6851 C 560.64385 571.66474 560.8452 571.6406 561.046 571.6126 L 584.8387 568.2972 C 585.0427 568.2688 585.24615 568.2364 585.4489 568.20014 L 594.64474 566.5546 C 599.97185 565.6013 603.6227 560.64766 602.9563 555.2771 L 600.7487 537.48655 C 600.7461 537.46523 600.7435 537.4439 600.7409 537.4226 L 597.1771 507.72406 C 597.1555 507.5444 597.137 507.3644 597.1216 507.18415 L 594.75935 479.62494 C 594.7496 479.51137 594.7411 479.3977 594.7338 479.28393 L 593.3472 457.6923 C 593.34555 457.66715 593.3439 457.642 593.34214 457.61687 L 591.75 434.53056 C 591.7465 434.4799 591.74324 434.42923 591.7402 434.37854 L 590.56386 414.5764 C 590.5511 414.36186 590.5427 414.1471 590.5386 413.93226 L 590.1463 393.3374 C 590.1453 393.2822 590.1439 393.22696 590.1423 393.17174 L 589.5472 372.9374 C 589.54556 372.8822 589.5442 372.82696 589.5432 372.77172 L 589.1525 352.2622 C 589.1473 351.9905 589.1491 351.7187 589.15775 351.4471 L 589.7437 333.0875 C 589.7444 333.06554 589.74514 333.0436 589.7459 333.02166 L 590.534 311.15235 C 590.5412 310.95385 590.552 310.7555 590.56656 310.5574 L 592.124 289.33678 C 592.13784 289.14865 592.1483 288.9603 592.1555 288.7718 L 592.9099 268.87294 C 592.9331 268.2612 592.9914 267.6513 593.0845 267.04622 L 595.8235 249.2427 C 595.9043 248.7176 596.01116 248.19686 596.14375 247.6824 L 600.772 229.72474 C 600.8871 229.27817 601.0215 228.83678 601.1747 228.40182 L 606.8955 212.16217 C 607.06156 211.6907 607.24966 211.22726 607.4591 210.7734 L 612.9907 198.78836 C 613.0934 198.56586 613.2012 198.34576 613.314 198.1282 L 618.6762 187.78679 C 618.7219 187.69864 618.7684 187.61093 618.81575 187.52365 L 624.0317 177.9067 C 624.769 176.54733 625.71864 175.31444 626.84474 174.25457 L 626.84474 174.25457 C 627.5199 173.6191 627.5521 172.5566 626.91666 171.8814 C 626.7922 171.74913 626.647 171.63794 626.4869 171.55216 L 623.2728 169.8303 C 623.0541 169.71316 622.8328 169.60113 622.6089 169.49428 L 614.7549 165.7458 C 614.3483 165.55173 613.9337 165.37493 613.5122 165.21586 L 603.8373 161.56498 C 603.6423 161.49138 603.4458 161.4216 603.24806 161.35568 L 590.5536 157.12418 C 590.4144 157.07778 590.2745 157.03329 590.13406 156.99073 L 577.25054 153.08663 C 577.18 153.06526 577.1096 153.0434 577.0394 153.02105 L 564.5354 149.0425 C 564.1418 148.91726 563.75315 148.77682 563.3704 148.6215 L 551.39445 143.7617 C 550.5628 143.42421 549.761 143.01734 548.99756 142.5454 L 539.3783 136.59896 C 539.2226 136.5027 539.0686 136.40379 538.91626 136.30225 L 534.02617 133.04218 C 533.0448 132.38792 532.17346 131.58202 531.44474 130.65457 L 531.44474 130.65457 C 531.33914 130.52016 531.1446 130.49682 531.0102 130.60242 C 530.9074 130.68315 530.86645 130.8197 530.9078 130.94365 L 531.04474 131.35457 C 531.504 132.73232 531.60855 134.2036 531.34876 135.63246 L 530.9536 137.80572 C 530.6824 139.29738 530.20057 140.74292 529.52254 142.09897 L 527.9902 145.1636 C 527.6935 145.757 527.3602 146.33138 526.9922 146.8834 L 523.7885 151.68895 C 523.3599 152.33185 522.8853 152.94286 522.3684 153.51718 L 517.80634 158.58612 C 517.7653 158.63175 517.72395 158.67715 517.68236 158.7223 L 511.6881 165.23033 C 511.0604 165.91187 510.37464 166.53759 509.6386 167.10044 L 504.6144 170.94246 C 504.1683 171.28363 503.7045 171.60107 503.22495 171.89347 L 496.73854 175.8486 C 496.0769 176.25204 495.3868 176.6069 494.6737 176.91033 L 487.5583 179.93816 C 486.75063 180.28185 485.91605 180.5585 485.063 180.7653 L 480.98395 181.75415 C 480.1591 181.95411 479.3197 182.08813 478.4736 182.15492 L 472.7734 182.60494 C 472.35445 182.63801 471.9344 182.65457 471.51414 182.65457 L 464.4818 182.65457 C 463.7247 182.65457 462.9686 182.60083 462.2191 182.49376 L 454.27264 181.35855 C 453.78763 181.28927 453.30606 181.19774 452.82945 181.08426 L 446.8682 179.66492 C 445.72274 179.39219 444.61086 178.99383 443.5528 178.4771 L 437.2728 175.41012 C 436.78773 175.17324 436.315 174.91196 435.85634 174.62729 L 431.6445 172.01303 C 431.0453 171.64113 430.4714 171.23002 429.92645 170.7824 L 425.48035 167.13025 C 425.25665 166.9465 425.038 166.7567 424.8246 166.5611 L 421.02224 163.07561 C 420.57095 162.66192 420.14377 162.22268 419.7428 161.76003 L 415.62407 157.00763 C 415.3047 156.63912 415.0023 156.25619 414.7179 155.86005 L 410.28826 149.69018 C 409.79336 149.00086 409.3541 148.27327 408.9746 147.51429 L 406.39814 142.36136 C 406.36254 142.29017 406.32748 142.21871 406.29295 142.147 L 405.04474 139.55457 C 404.19403 137.7877 403.8385 135.82316 404.01605 133.87021 L 404.19625 131.88796 C 404.22006 131.6261 404.02707 131.39451 403.7652 131.37071 C 403.6028 131.35594 403.44416 131.42532 403.34474 131.55457 L 403.34474 131.55457 C 402.6813 132.41705 401.9012 133.18313 401.0268 133.83081 L 397.13028 136.71714 C 397.0066 136.80875 396.8816 136.89858 396.7553 136.98659 L 392.13307 140.20816 C 390.94633 141.03528 389.6529 141.69764 388.28816 142.17715 L 383.68104 143.79587 C 383.19046 143.96823 382.7086 144.1644 382.2371 144.3837 L 375.39034 147.56825 C 374.69418 147.89204 373.9756 148.1653 373.2402 148.38593 L 362.36982 151.64704 C 362.3531 151.65206 362.3364 151.6571 362.3197 151.66218 L 351.3516 154.99177 C 351.2137 155.03364 351.07637 155.07736 350.93966 155.12293 L 338.01842 159.43 C 337.9693 159.44638 337.9201 159.46252 337.87082 159.47841 L 326.5034 163.14532 C 325.86493 163.35128 325.24003 163.5972 324.6324 163.88161 L 316.70045 167.59445 C 316.3301 167.7678 315.96656 167.95528 315.61058 168.15649 L 309.66447 171.51733 C 308.41143 172.22557 307.9698 173.8155 308.67802 175.06853 C 308.75514 175.20497 308.8444 175.33417 308.94474 175.45457 L 309.80885 176.4915 C 310.5638 177.39744 311.21627 178.38406 311.7544 179.43339 L 314.83153 185.4338 C 314.907 185.58097 314.98475 185.72696 315.06474 185.87172 L 319.0195 193.02794 C 319.103 193.17902 319.18403 193.33144 319.2626 193.48514 L 323.3709 201.52312 C 323.61996 202.01043 323.84386 202.5102 324.0417 203.02046 L 327.5245 212.00233 C 327.538 212.03716 327.5516 212.07193 327.56536 212.10666 L 331.1617 221.1921 C 331.2837 221.50034 331.3961 221.8123 331.49872 222.1275 L 334.12055 230.18029 C 334.13668 230.2298 334.15256 230.2794 334.1682 230.3291 L 337.24025 240.08736 C 337.44304 240.73152 337.60484 241.38788 337.7247 242.05248 L 339.71 253.06194 C 339.73316 253.19036 339.75475 253.31905 339.77475 253.448 L 341.48062 264.44137 C 341.52336 264.7168 341.5589 264.99328 341.5872 265.27055 L 342.4746 273.96727 C 342.52134 274.42526 342.5483 274.88505 342.55537 275.34536 L 342.7396 287.321 C 342.74303 287.54335 342.7511 287.76562 342.76377 287.98766 L 343.53415 301.4692 C 343.5412 301.5928 343.5497 301.71626 343.55963 301.83963 L 344.8932 318.414 C 344.92755 318.84088 344.94474 319.26896 344.94474 319.6972 L 344.94474 332.147 C 344.94474 332.35203 344.9487 332.55704 344.95656 332.76192 L 345.5369 347.85106 C 345.54213 347.98673 345.54562 348.12246 345.5474 348.2582 L 345.73954 363.05447 C 345.743 363.32116 345.7398 363.5879 345.72993 363.85443 L 345.1557 379.3586 C 345.1484 379.5559 345.14474 379.7533 345.14474 379.95077 L 345.14474 393.547 C 345.14474 393.75203 345.1408 393.95704 345.1329 394.16192 L 344.54773 409.37693 C 344.54574 409.4287 344.5435 409.48044 344.541 409.5322 L 343.74568 426.0351 C 343.74505 426.0481 343.7444 426.06106 343.74376 426.074 L 342.94927 441.7652 C 342.94625 441.8248 342.9429 441.88435 342.9392 441.9439 L 341.7503 461.16464 C 341.7466 461.2246 341.74255 461.28453 341.73816 461.34444 L 339.95503 485.714 C 339.94817 485.8077 339.9405 485.90137 339.93198 485.99495 L 338.1461 505.63977 C 338.1452 505.64964 338.1443 505.6595 338.14337 505.6694 L 336.3726 524.7543 C 336.35403 524.95446 336.3317 525.15427 336.3056 525.3536 L 334.34487 540.3263 C 334.21206 541.3405 333.9429 542.3321 333.54474 543.2743 L 333.54474 543.2743 C 333.14716 544.21505 332.8985 545.21196 332.80767 546.2292 L 332.04474 554.7743 C 331.537 560.4613 335.49545 565.5797 341.1274 566.51835 Z" stroke="#7f8080" stroke-linecap="round" stroke-linejoin="round" stroke-width="1"/>
      <path d="M 253.79736 279.79157 L 259.99736 284.19157 L 268.19736 288.19157 L 276.79736 291.79157 L 285.79736 295.59157 L 296.79736 299.59157 L 306.19736 302.39157 L 315.19736 304.99157 L 324.19736 307.59157 L 329.59736 308.99157 L 335.19736 309.99157 L 337.59736 304.19157 L 340.19736 298.79157 L 342.39736 294.79157 L 344.99736 291.39157 L 345.19736 282.39157 L 344.59736 271.39157 L 342.79736 260.59157 L 341.19736 250.19157 L 338.59736 239.19157 L 336.19736 229.59157 L 333.39736 221.59157 L 330.19736 212.19157 L 327.39736 204.79157 L 323.79736 197.19157 L 319.79736 189.59157 L 315.79736 182.19157 L 313.19736 178.59157 L 309.59736 172.79157 L 304.19736 177.19157 L 299.39736 181.99157 L 294.79736 188.19157 L 290.39736 194.39157 L 285.59736 202.99157 L 280.79736 212.39157 L 275.99736 221.59157 L 272.39736 230.19157 L 268.39736 239.19157 L 265.19736 247.39157 L 261.39736 256.79157 L 258.59736 264.79157 L 255.59736 273.19157 Z" fill="#00007a"/>
      <path d="M 253.79736 279.79157 L 259.99736 284.19157 L 268.19736 288.19157 L 276.79736 291.79157 L 285.79736 295.59157 L 296.79736 299.59157 L 306.19736 302.39157 L 315.19736 304.99157 L 324.19736 307.59157 L 329.59736 308.99157 L 335.19736 309.99157 L 337.59736 304.19157 L 340.19736 298.79157 L 342.39736 294.79157 L 344.99736 291.39157 L 345.19736 282.39157 L 344.59736 271.39157 L 342.79736 260.59157 L 341.19736 250.19157 L 338.59736 239.19157 L 336.19736 229.59157 L 333.39736 221.59157 L 330.19736 212.19157 L 327.39736 204.79157 L 323.79736 197.19157 L 319.79736 189.59157 L 315.79736 182.19157 L 313.19736 178.59157 L 309.59736 172.79157 L 304.19736 177.19157 L 299.39736 181.99157 L 294.79736 188.19157 L 290.39736 194.39157 L 285.59736 202.99157 L 280.79736 212.39157 L 275.99736 221.59157 L 272.39736 230.19157 L 268.39736 239.19157 L 265.19736 247.39157 L 261.39736 256.79157 L 258.59736 264.79157 L 255.59736 273.19157 Z" stroke="#7f8080" stroke-linecap="round" stroke-linejoin="round" stroke-width="1"/>
      <path d="M 685.20264 278.84817 L 679.00264 283.24817 L 670.80264 287.24817 L 662.20264 290.84817 L 653.20264 294.64817 L 642.20264 298.64817 L 632.80264 301.44817 L 623.80264 304.04817 L 614.80264 306.64817 L 609.40264 308.04817 L 603.80264 309.04817 L 601.40264 303.24817 L 598.80264 297.84817 L 596.60264 293.84817 L 594.00264 290.44817 L 593.80264 281.44817 L 594.40264 270.44817 L 596.20264 259.64817 L 597.80264 249.24817 L 600.40264 238.24817 L 602.80264 228.64817 L 605.60264 220.64817 L 608.80264 211.24817 L 611.60264 203.84817 L 615.20264 196.24817 L 619.20264 188.64817 L 623.20264 181.24817 L 625.80264 177.64817 L 629.40264 171.84817 L 634.80264 176.24817 L 639.60264 181.04817 L 644.20264 187.24817 L 648.60264 193.44817 L 653.40264 202.04817 L 658.20264 211.44817 L 663.00264 220.64817 L 666.60264 229.24817 L 670.60264 238.24817 L 673.80264 246.44817 L 677.60264 255.84817 L 680.40264 263.84817 L 683.40264 272.24817 Z" fill="#00007a"/>
      <path d="M 685.20264 278.84817 L 679.00264 283.24817 L 670.80264 287.24817 L 662.20264 290.84817 L 653.20264 294.64817 L 642.20264 298.64817 L 632.80264 301.44817 L 623.80264 304.04817 L 614.80264 306.64817 L 609.40264 308.04817 L 603.80264 309.04817 L 601.40264 303.24817 L 598.80264 297.84817 L 596.60264 293.84817 L 594.00264 290.44817 L 593.80264 281.44817 L 594.40264 270.44817 L 596.20264 259.64817 L 597.80264 249.24817 L 600.40264 238.24817 L 602.80264 228.64817 L 605.60264 220.64817 L 608.80264 211.24817 L 611.60264 203.84817 L 615.20264 196.24817 L 619.20264 188.64817 L 623.20264 181.24817 L 625.80264 177.64817 L 629.40264 171.84817 L 634.80264 176.24817 L 639.60264 181.04817 L 644.20264 187.24817 L 648.60264 193.44817 L 653.40264 202.04817 L 658.20264 211.44817 L 663.00264 220.64817 L 666.60264 229.24817 L 670.60264 238.24817 L 673.80264 246.44817 L 677.60264 255.84817 L 680.40264 263.84817 L 683.40264 272.24817 Z" stroke="#7f8080" stroke-linecap="round" stroke-linejoin="round" stroke-width="1"/>
      <path d="M 253.79736 279.79157 L 259.99736 284.19157 L 268.19736 288.19157 L 276.79736 291.79157 L 285.79736 295.59157 L 296.79736 299.59157 L 306.19736 302.39157 L 315.19736 304.99157 L 324.19736 307.59157 L 329.59736 308.99157 L 335.19736 309.99157 L 338.19736 303.59157 L 334.39736 302.79157 L 329.59736 301.59157 L 323.99736 300.39157 L 317.99736 298.59157 L 313.39736 297.19157 L 309.19736 295.99157 L 304.59736 293.99157 L 299.99736 292.39157 L 295.19736 290.39157 L 291.19736 288.99157 L 285.99736 286.79157 L 281.39736 285.19157 L 276.59736 282.99157 L 271.79736 281.19157 L 267.79736 279.19157 L 263.39736 276.99157 L 258.99736 274.79157 L 255.59736 273.19157 Z" fill="url(#Obj_Gradient_2)"/>
      <path d="M 253.79736 279.79157 L 259.99736 284.19157 L 268.19736 288.19157 L 276.79736 291.79157 L 285.79736 295.59157 L 296.79736 299.59157 L 306.19736 302.39157 L 315.19736 304.99157 L 324.19736 307.59157 L 329.59736 308.99157 L 335.19736 309.99157 L 338.19736 303.59157 L 334.39736 302.79157 L 329.59736 301.59157 L 323.99736 300.39157 L 317.99736 298.59157 L 313.39736 297.19157 L 309.19736 295.99157 L 304.59736 293.99157 L 299.99736 292.39157 L 295.19736 290.39157 L 291.19736 288.99157 L 285.99736 286.79157 L 281.39736 285.19157 L 276.59736 282.99157 L 271.79736 281.19157 L 267.79736 279.19157 L 263.39736 276.99157 L 258.99736 274.79157 L 255.59736 273.19157 Z" stroke="#7f8080" stroke-linecap="round" stroke-linejoin="round" stroke-width="1"/>
      <path d="M 685.20264 278.84817 L 679.00264 283.24817 L 670.80264 287.24817 L 662.20264 290.84817 L 653.20264 294.64817 L 642.20264 298.64817 L 632.80264 301.44817 L 623.80264 304.04817 L 614.80264 306.64817 L 609.40264 308.04817 L 603.80264 309.04817 L 600.80264 302.64817 L 604.60264 301.84817 L 609.40264 300.64817 L 615.00264 299.44817 L 621.00264 297.64817 L 625.60264 296.24817 L 629.80264 295.04817 L 634.40264 293.04817 L 639.00264 291.44817 L 643.80264 289.44817 L 647.80264 288.04817 L 653.00264 285.84817 L 657.60264 284.24817 L 662.40264 282.04817 L 667.20264 280.24817 L 671.20264 278.24817 L 675.60264 276.04817 L 680.00264 273.84817 L 683.40264 272.24817 Z" fill="url(#Obj_Gradient_3)"/>
      <path d="M 685.20264 278.84817 L 679.00264 283.24817 L 670.80264 287.24817 L 662.20264 290.84817 L 653.20264 294.64817 L 642.20264 298.64817 L 632.80264 301.44817 L 623.80264 304.04817 L 614.80264 306.64817 L 609.40264 308.04817 L 603.80264 309.04817 L 600.80264 302.64817 L 604.60264 301.84817 L 609.40264 300.64817 L 615.00264 299.44817 L 621.00264 297.64817 L 625.60264 296.24817 L 629.80264 295.04817 L 634.40264 293.04817 L 639.00264 291.44817 L 643.80264 289.44817 L 647.80264 288.04817 L 653.00264 285.84817 L 657.60264 284.24817 L 662.40264 282.04817 L 667.20264 280.24817 L 671.20264 278.24817 L 675.60264 276.04817 L 680.00264 273.84817 L 683.40264 272.24817 Z" stroke="#7f8080" stroke-linecap="round" stroke-linejoin="round" stroke-width="1"/>
      <path d="M 404.3695 130.30921 L 399.6403 134.36279 C 398.48996 135.3488 397.245 136.21873 395.92357 136.95991 L 393.39693 138.37707 C 391.96176 139.18205 391.38096 140.95118 392.05974 142.45016 L 393.07736 144.6974 C 393.19894 144.96588 393.32567 145.232 393.45748 145.49562 L 395.25975 149.10016 L 397.74673 154.07413 C 398.08853 154.75773 398.4642 155.42386 398.8723 156.07005 L 401.1987 159.7535 C 401.63908 160.45077 402.11664 161.12384 402.6293 161.76981 L 406.04 166.06727 C 406.58605 166.7553 407.17107 167.41148 407.7922 168.0326 L 412.4582 172.69863 C 412.8591 173.09951 413.27467 173.48544 413.70406 173.8556 L 418.2676 177.78968 C 418.66225 178.1299 419.06835 178.45661 419.4852 178.76925 L 423.46014 181.75046 C 424.12605 182.2499 424.8186 182.7128 425.5347 183.13716 L 429.66775 185.58638 C 429.79574 185.66223 429.92447 185.73684 430.0539 185.8102 L 434.75146 188.47213 C 435.48975 188.8905 436.25063 189.26768 437.0306 189.60196 L 440.5804 191.1233 C 441.1664 191.37443 441.76254 191.6011 442.36733 191.80269 L 447.38544 193.4754 C 448.6327 193.89114 449.9133 194.19918 451.21315 194.39613 L 455.312 195.01717 C 455.6771 195.0725 456.0435 195.119 456.41086 195.15668 L 463.29196 195.86244 C 463.53714 195.88759 463.7827 195.9088 464.02856 195.92604 L 468.5557 196.24373 C 469.09156 196.28134 469.6286 196.30016 470.16576 196.30016 L 473.4278 196.30016 C 474.3815 196.30016 475.3343 196.24084 476.2806 196.12255 L 480.26934 195.62396 C 480.9293 195.54147 481.5854 195.43038 482.2357 195.29103 L 488.31774 193.98773 C 489.2116 193.7962 490.0933 193.55152 490.95803 193.25503 L 495.4669 191.70914 C 496.2615 191.4367 497.04065 191.1209 497.80075 190.76322 L 502.6341 188.48869 C 503.1843 188.22977 503.72404 187.94914 504.252 187.64745 L 508.01986 185.49438 C 508.71265 185.0985 509.38437 184.66684 510.0323 184.20114 L 514.7084 180.84018 C 515.2091 180.48031 515.6951 180.10046 516.1653 179.70154 L 521.4861 175.18687 C 521.86844 174.86248 522.24004 174.52568 522.60034 174.177 L 527.29955 169.62938 C 527.93914 169.01042 528.54227 168.35486 529.1059 167.666 L 532.89916 163.02977 C 533.4059 162.41045 533.8799 161.76511 534.3194 161.09639 L 537.93655 155.59199 C 538.152 155.26416 538.359 154.93087 538.5574 154.59245 L 541.08047 150.28835 C 541.4664 149.62996 541.81936 148.95278 542.138 148.2593 L 544.2567 143.64803 C 544.78953 142.48827 545.1607 141.26086 545.35975 140.00016 L 545.35975 140.00016 C 545.53805 138.8709 544.95875 137.75745 543.9317 137.25532 L 538.63823 134.66742 C 537.3238 134.0248 536.0892 133.23029 534.95975 132.30016 L 534.55374 131.9658 C 533.7094 131.27047 533.086 130.34416 532.75975 129.30016 L 532.75975 129.30016 C 532.7131 129.15084 532.5542 129.06762 532.4049 129.11429 C 532.2898 129.15025 532.2101 129.25511 532.2063 129.37561 L 532.09703 132.79854 C 532.0063 135.64161 531.38896 138.44319 530.27635 141.0611 L 529.3994 143.12447 C 528.84085 144.43874 528.1611 145.69813 527.36896 146.88634 L 523.6832 152.415 C 522.93567 153.53627 522.09106 154.58967 521.1591 155.56305 L 514.86404 162.1379 C 513.99597 163.04455 513.0551 163.87862 512.05095 164.63175 L 503.67605 170.91293 C 502.79963 171.57024 501.8774 172.1641 500.9163 172.68996 L 493.7311 176.62149 C 492.42 177.3389 491.04206 177.9268 489.61687 178.37686 L 482.94396 180.4841 C 481.2271 181.02626 479.4525 181.36496 477.6566 181.49324 L 470.77017 181.98513 C 469.69787 182.06172 468.6215 182.06304 467.54904 181.98908 L 459.1128 181.40727 C 458.0786 181.33594 457.05043 181.19479 456.0353 180.98476 L 448.9001 179.5085 C 446.94814 179.10466 445.05697 178.44877 443.2741 177.55734 L 438.6147 175.22764 C 437.38057 174.61057 436.20446 173.8837 435.1006 173.05581 L 429.41866 168.79435 C 428.9795 168.465 428.5523 168.12003 428.13786 167.7601 L 422.3827 162.76219 C 421.5684 162.05504 420.80486 161.2915 420.0977 160.47722 L 415.6925 155.40453 C 414.9384 154.53617 414.2505 153.61247 413.63455 152.6412 L 409.90085 146.75345 C 409.5403 146.18486 409.20486 145.60072 408.89554 145.0027 L 407.27517 141.86999 C 406.66603 140.6923 406.15986 139.46416 405.7623 138.19927 L 404.4821 134.12578 C 404.2673 133.4424 404.08457 132.74937 403.9345 132.04894 L 403.70906 130.997 C 403.624 130.59998 403.85035 130.20233 404.23515 130.07279 L 404.23515 130.07279 C 404.30765 130.04839 404.3862 130.08737 404.4106 130.15987 C 404.4286 130.21338 404.41235 130.27247 404.3695 130.30921 Z" fill="#ff7045"/>
      <path d="M 404.3695 130.30921 L 399.6403 134.36279 C 398.48996 135.3488 397.245 136.21873 395.92357 136.95991 L 393.39693 138.37707 C 391.96176 139.18205 391.38096 140.95118 392.05974 142.45016 L 393.07736 144.6974 C 393.19894 144.96588 393.32567 145.232 393.45748 145.49562 L 395.25975 149.10016 L 397.74673 154.07413 C 398.08853 154.75773 398.4642 155.42386 398.8723 156.07005 L 401.1987 159.7535 C 401.63908 160.45077 402.11664 161.12384 402.6293 161.76981 L 406.04 166.06727 C 406.58605 166.7553 407.17107 167.41148 407.7922 168.0326 L 412.4582 172.69863 C 412.8591 173.09951 413.27467 173.48544 413.70406 173.8556 L 418.2676 177.78968 C 418.66225 178.1299 419.06835 178.45661 419.4852 178.76925 L 423.46014 181.75046 C 424.12605 182.2499 424.8186 182.7128 425.5347 183.13716 L 429.66775 185.58638 C 429.79574 185.66223 429.92447 185.73684 430.0539 185.8102 L 434.75146 188.47213 C 435.48975 188.8905 436.25063 189.26768 437.0306 189.60196 L 440.5804 191.1233 C 441.1664 191.37443 441.76254 191.6011 442.36733 191.80269 L 447.38544 193.4754 C 448.6327 193.89114 449.9133 194.19918 451.21315 194.39613 L 455.312 195.01717 C 455.6771 195.0725 456.0435 195.119 456.41086 195.15668 L 463.29196 195.86244 C 463.53714 195.88759 463.7827 195.9088 464.02856 195.92604 L 468.5557 196.24373 C 469.09156 196.28134 469.6286 196.30016 470.16576 196.30016 L 473.4278 196.30016 C 474.3815 196.30016 475.3343 196.24084 476.2806 196.12255 L 480.26934 195.62396 C 480.9293 195.54147 481.5854 195.43038 482.2357 195.29103 L 488.31774 193.98773 C 489.2116 193.7962 490.0933 193.55152 490.95803 193.25503 L 495.4669 191.70914 C 496.2615 191.4367 497.04065 191.1209 497.80075 190.76322 L 502.6341 188.48869 C 503.1843 188.22977 503.72404 187.94914 504.252 187.64745 L 508.01986 185.49438 C 508.71265 185.0985 509.38437 184.66684 510.0323 184.20114 L 514.7084 180.84018 C 515.2091 180.48031 515.6951 180.10046 516.1653 179.70154 L 521.4861 175.18687 C 521.86844 174.86248 522.24004 174.52568 522.60034 174.177 L 527.29955 169.62938 C 527.93914 169.01042 528.54227 168.35486 529.1059 167.666 L 532.89916 163.02977 C 533.4059 162.41045 533.8799 161.76511 534.3194 161.09639 L 537.93655 155.59199 C 538.152 155.26416 538.359 154.93087 538.5574 154.59245 L 541.08047 150.28835 C 541.4664 149.62996 541.81936 148.95278 542.138 148.2593 L 544.2567 143.64803 C 544.78953 142.48827 545.1607 141.26086 545.35975 140.00016 L 545.35975 140.00016 C 545.53805 138.8709 544.95875 137.75745 543.9317 137.25532 L 538.63823 134.66742 C 537.3238 134.0248 536.0892 133.23029 534.95975 132.30016 L 534.55374 131.9658 C 533.7094 131.27047 533.086 130.34416 532.75975 129.30016 L 532.75975 129.30016 C 532.7131 129.15084 532.5542 129.06762 532.4049 129.11429 C 532.2898 129.15025 532.2101 129.25511 532.2063 129.37561 L 532.09703 132.79854 C 532.0063 135.64161 531.38896 138.44319 530.27635 141.0611 L 529.3994 143.12447 C 528.84085 144.43874 528.1611 145.69813 527.36896 146.88634 L 523.6832 152.415 C 522.93567 153.53627 522.09106 154.58967 521.1591 155.56305 L 514.86404 162.1379 C 513.99597 163.04455 513.0551 163.87862 512.05095 164.63175 L 503.67605 170.91293 C 502.79963 171.57024 501.8774 172.1641 500.9163 172.68996 L 493.7311 176.62149 C 492.42 177.3389 491.04206 177.9268 489.61687 178.37686 L 482.94396 180.4841 C 481.2271 181.02626 479.4525 181.36496 477.6566 181.49324 L 470.77017 181.98513 C 469.69787 182.06172 468.6215 182.06304 467.54904 181.98908 L 459.1128 181.40727 C 458.0786 181.33594 457.05043 181.19479 456.0353 180.98476 L 448.9001 179.5085 C 446.94814 179.10466 445.05697 178.44877 443.2741 177.55734 L 438.6147 175.22764 C 437.38057 174.61057 436.20446 173.8837 435.1006 173.05581 L 429.41866 168.79435 C 428.9795 168.465 428.5523 168.12003 428.13786 167.7601 L 422.3827 162.76219 C 421.5684 162.05504 420.80486 161.2915 420.0977 160.47722 L 415.6925 155.40453 C 414.9384 154.53617 414.2505 153.61247 413.63455 152.6412 L 409.90085 146.75345 C 409.5403 146.18486 409.20486 145.60072 408.89554 145.0027 L 407.27517 141.86999 C 406.66603 140.6923 406.15986 139.46416 405.7623 138.19927 L 404.4821 134.12578 C 404.2673 133.4424 404.08457 132.74937 403.9345 132.04894 L 403.70906 130.997 C 403.624 130.59998 403.85035 130.20233 404.23515 130.07279 L 404.23515 130.07279 C 404.30765 130.04839 404.3862 130.08737 404.4106 130.15987 C 404.4286 130.21338 404.41235 130.27247 404.3695 130.30921 Z" stroke="#7f8080" stroke-linecap="round" stroke-linejoin="round" stroke-width="1"/>
      <path d="M 403.8566 130.10132 L 409.2566 129.50132 L 416.0566 132.90132 L 421.0566 134.70132 L 429.4566 136.50132 L 437.8566 137.50132 L 445.8566 138.50132 L 453.4566 138.70132 L 462.0566 139.10132 L 473.6566 138.90132 L 482.0566 138.50132 L 491.4566 137.90132 L 499.8566 137.10132 L 509.0566 135.70132 L 517.2566 133.50132 L 523.0566 131.70132 L 528.6566 129.10132 L 531.4566 130.30132 L 531.8566 135.90132 L 529.0566 143.90132 L 523.6566 146.70132 L 513.0566 149.90132 L 501.6566 152.30132 L 490.4566 153.10132 L 478.0566 154.10132 L 467.6566 154.10132 L 458.2566 154.10132 L 446.6566 153.50132 L 435.4566 152.70132 L 424.8566 150.50132 L 416.2566 148.50132 L 410.0566 145.70132 L 408.0566 144.10132 L 404.8566 136.50132 Z" fill="url(#Obj_Gradient_4)"/>
      <path d="M 403.8566 130.10132 L 409.2566 129.50132 L 416.0566 132.90132 L 421.0566 134.70132 L 429.4566 136.50132 L 437.8566 137.50132 L 445.8566 138.50132 L 453.4566 138.70132 L 462.0566 139.10132 L 473.6566 138.90132 L 482.0566 138.50132 L 491.4566 137.90132 L 499.8566 137.10132 L 509.0566 135.70132 L 517.2566 133.50132 L 523.0566 131.70132 L 528.6566 129.10132 L 531.4566 130.30132 L 531.8566 135.90132 L 529.0566 143.90132 L 523.6566 146.70132 L 513.0566 149.90132 L 501.6566 152.30132 L 490.4566 153.10132 L 478.0566 154.10132 L 467.6566 154.10132 L 458.2566 154.10132 L 446.6566 153.50132 L 435.4566 152.70132 L 424.8566 150.50132 L 416.2566 148.50132 L 410.0566 145.70132 L 408.0566 144.10132 L 404.8566 136.50132 Z" stroke="#7f8080" stroke-linecap="round" stroke-linejoin="round" stroke-width="1"/>
      <path d="M 333.61057 555.54543 L 333.61057 555.54543 C 333.5449 556.0709 333.6077 556.6045 333.79365 557.1003 L 334.44466 558.83635 C 334.6214 559.3077 334.8485 559.7586 335.12197 560.18124 L 336.0898 561.67696 C 336.63075 562.513 337.34385 563.224 338.18148 563.76245 L 339.25953 564.4555 C 339.5598 564.6485 339.87436 564.8183 340.2005 564.9633 L 341.51737 565.5489 C 342.1139 565.8142 342.7446 565.9947 343.39115 566.0852 L 352.40157 567.3467 C 352.41156 567.3481 352.42156 567.34946 352.43156 567.3508 L 364.14756 568.9394 C 364.19356 568.94566 364.2396 568.95144 364.28573 568.95676 L 374.56867 570.14325 C 374.6006 570.14694 374.63255 570.1504 374.6645 570.15364 L 388.3746 571.5445 C 388.40257 571.54736 388.43057 571.55 388.4586 571.5525 L 399.5639 572.5441 C 399.599 572.5472 399.63414 572.5501 399.6693 572.5527 L 410.35584 573.3443 C 410.3963 573.3473 410.4368 573.3499 410.47735 573.3522 L 420.98533 573.947 C 421.00615 573.9482 421.02696 573.94946 421.04777 573.9508 L 433.09055 574.7405 C 433.17455 574.746 433.25864 574.75 433.3428 574.7525 L 446.7899 575.148 C 446.8077 575.1485 446.82544 575.1491 446.8432 575.14977 L 457.48706 575.544 C 457.5734 575.5472 457.65976 575.5488 457.74615 575.5488 L 468.35516 575.5488 C 468.3961 575.5488 468.437 575.54914 468.47795 575.54986 L 479.5644 575.74435 C 479.73244 575.7473 479.90057 575.7442 480.0684 575.73504 L 490.68964 575.1557 C 490.77425 575.1511 490.8589 575.148 490.94364 575.1465 L 501.7082 574.95075 C 501.78044 574.94944 501.85265 574.947 501.9248 574.94346 L 513.9434 574.3524 C 513.9922 574.35 514.0409 574.3471 514.0896 574.34365 L 525.32965 573.5549 C 525.3876 573.5508 525.4455 573.546 525.5033 573.5405 L 537.91387 572.35856 C 537.9823 572.35204 538.0509 572.3465 538.1195 572.342 L 550.0515 571.5596 C 550.1615 571.5524 550.27136 571.5426 550.3809 571.5302 L 560.79326 570.3514 C 560.8088 570.34966 560.8243 570.34785 560.83985 570.346 L 570.78756 569.15226 C 570.8069 569.14994 570.8262 569.14754 570.8455 569.14506 L 584.6813 567.3675 C 584.7785 567.355 584.87545 567.3405 584.97205 567.32394 L 591.52554 566.2005 C 591.7265 566.166 591.9289 566.1404 592.1321 566.1236 L 595.3644 565.8566 C 596.25365 565.7832 597.12065 565.5404 597.9187 565.14136 L 599.405 564.3982 C 600.0056 564.0979 600.55985 563.7128 601.0507 563.2546 L 602.38585 562.0085 C 602.9927 561.44214 603.4481 560.7329 603.7106 559.94543 L 604.0054 559.06095 C 604.0755 558.8507 604.1355 558.6373 604.18536 558.4214 L 604.65506 556.386 C 604.6903 556.23335 604.65685 556.07295 604.5636 555.9471 L 604.5636 555.9471 C 604.4732 555.8252 604.3226 555.7637 604.17276 555.78757 L 595.6929 557.13663 C 595.642 557.1447 595.5912 557.1534 595.5405 557.1626 L 582.55575 559.5235 C 582.463 559.54034 582.36985 559.55533 582.2765 559.56844 L 571.0468 561.14454 C 571.02664 561.14736 571.0065 561.1503 570.9864 561.1533 L 557.8638 563.1119 C 557.699 563.1365 557.5334 563.1552 557.36733 563.16795 L 544.6425 564.1468 C 544.6252 564.1481 544.6079 564.1494 544.5906 564.1506 L 530.25044 565.1464 C 530.22785 565.148 530.20526 565.14945 530.18266 565.1508 L 516.8794 565.945 C 516.8375 565.9475 516.7956 565.94965 516.75366 565.9514 L 502.5622 566.5427 C 502.4651 566.54676 502.36796 566.5488 502.2708 566.5488 L 489.01656 566.5488 L 476.4749 566.5488 C 476.436 566.5488 476.3971 566.5491 476.35824 566.54975 L 464.59985 566.7457 C 464.4777 566.74776 464.3555 566.7466 464.23336 566.74224 L 453.39976 566.3553 C 453.27765 566.35096 453.15544 566.3498 453.03327 566.3518 L 441.31863 566.5471 C 441.2506 566.5482 441.18253 566.54835 441.1145 566.5475 L 425.4122 566.3512 C 425.2818 566.3496 425.15147 566.3443 425.02136 566.3354 L 410.7116 565.3553 C 410.64824 565.35095 410.58495 565.34575 410.52175 565.3397 L 396.03074 563.95014 C 396.0213 563.9492 396.01183 563.9483 396.0024 563.94736 L 382.19035 562.56616 C 382.0745 562.5546 381.95897 562.5401 381.84385 562.52275 L 367.5347 560.3666 C 367.45595 560.3547 367.377 560.3442 367.29788 560.335 L 353.77794 558.7675 C 353.67037 558.755 353.5631 558.74005 353.4562 558.7226 L 344.06413 557.1892 C 343.89913 557.16226 343.73516 557.1294 343.5725 557.09074 L 334.4949 554.93196 C 334.1066 554.8396 333.71694 555.07955 333.6246 555.46787 C 333.6185 555.49345 333.61383 555.51934 333.61057 555.54543 Z" fill="url(#Obj_Gradient_5)"/>
      <path d="M 333.61057 555.54543 L 333.61057 555.54543 C 333.5449 556.0709 333.6077 556.6045 333.79365 557.1003 L 334.44466 558.83635 C 334.6214 559.3077 334.8485 559.7586 335.12197 560.18124 L 336.0898 561.67696 C 336.63075 562.513 337.34385 563.224 338.18148 563.76245 L 339.25953 564.4555 C 339.5598 564.6485 339.87436 564.8183 340.2005 564.9633 L 341.51737 565.5489 C 342.1139 565.8142 342.7446 565.9947 343.39115 566.0852 L 352.40157 567.3467 C 352.41156 567.3481 352.42156 567.34946 352.43156 567.3508 L 364.14756 568.9394 C 364.19356 568.94566 364.2396 568.95144 364.28573 568.95676 L 374.56867 570.14325 C 374.6006 570.14694 374.63255 570.1504 374.6645 570.15364 L 388.3746 571.5445 C 388.40257 571.54736 388.43057 571.55 388.4586 571.5525 L 399.5639 572.5441 C 399.599 572.5472 399.63414 572.5501 399.6693 572.5527 L 410.35584 573.3443 C 410.3963 573.3473 410.4368 573.3499 410.47735 573.3522 L 420.98533 573.947 C 421.00615 573.9482 421.02696 573.94946 421.04777 573.9508 L 433.09055 574.7405 C 433.17455 574.746 433.25864 574.75 433.3428 574.7525 L 446.7899 575.148 C 446.8077 575.1485 446.82544 575.1491 446.8432 575.14977 L 457.48706 575.544 C 457.5734 575.5472 457.65976 575.5488 457.74615 575.5488 L 468.35516 575.5488 C 468.3961 575.5488 468.437 575.54914 468.47795 575.54986 L 479.5644 575.74435 C 479.73244 575.7473 479.90057 575.7442 480.0684 575.73504 L 490.68964 575.1557 C 490.77425 575.1511 490.8589 575.148 490.94364 575.1465 L 501.7082 574.95075 C 501.78044 574.94944 501.85265 574.947 501.9248 574.94346 L 513.9434 574.3524 C 513.9922 574.35 514.0409 574.3471 514.0896 574.34365 L 525.32965 573.5549 C 525.3876 573.5508 525.4455 573.546 525.5033 573.5405 L 537.91387 572.35856 C 537.9823 572.35204 538.0509 572.3465 538.1195 572.342 L 550.0515 571.5596 C 550.1615 571.5524 550.27136 571.5426 550.3809 571.5302 L 560.79326 570.3514 C 560.8088 570.34966 560.8243 570.34785 560.83985 570.346 L 570.78756 569.15226 C 570.8069 569.14994 570.8262 569.14754 570.8455 569.14506 L 584.6813 567.3675 C 584.7785 567.355 584.87545 567.3405 584.97205 567.32394 L 591.52554 566.2005 C 591.7265 566.166 591.9289 566.1404 592.1321 566.1236 L 595.3644 565.8566 C 596.25365 565.7832 597.12065 565.5404 597.9187 565.14136 L 599.405 564.3982 C 600.0056 564.0979 600.55985 563.7128 601.0507 563.2546 L 602.38585 562.0085 C 602.9927 561.44214 603.4481 560.7329 603.7106 559.94543 L 604.0054 559.06095 C 604.0755 558.8507 604.1355 558.6373 604.18536 558.4214 L 604.65506 556.386 C 604.6903 556.23335 604.65685 556.07295 604.5636 555.9471 L 604.5636 555.9471 C 604.4732 555.8252 604.3226 555.7637 604.17276 555.78757 L 595.6929 557.13663 C 595.642 557.1447 595.5912 557.1534 595.5405 557.1626 L 582.55575 559.5235 C 582.463 559.54034 582.36985 559.55533 582.2765 559.56844 L 571.0468 561.14454 C 571.02664 561.14736 571.0065 561.1503 570.9864 561.1533 L 557.8638 563.1119 C 557.699 563.1365 557.5334 563.1552 557.36733 563.16795 L 544.6425 564.1468 C 544.6252 564.1481 544.6079 564.1494 544.5906 564.1506 L 530.25044 565.1464 C 530.22785 565.148 530.20526 565.14945 530.18266 565.1508 L 516.8794 565.945 C 516.8375 565.9475 516.7956 565.94965 516.75366 565.9514 L 502.5622 566.5427 C 502.4651 566.54676 502.36796 566.5488 502.2708 566.5488 L 489.01656 566.5488 L 476.4749 566.5488 C 476.436 566.5488 476.3971 566.5491 476.35824 566.54975 L 464.59985 566.7457 C 464.4777 566.74776 464.3555 566.7466 464.23336 566.74224 L 453.39976 566.3553 C 453.27765 566.35096 453.15544 566.3498 453.03327 566.3518 L 441.31863 566.5471 C 441.2506 566.5482 441.18253 566.54835 441.1145 566.5475 L 425.4122 566.3512 C 425.2818 566.3496 425.15147 566.3443 425.02136 566.3354 L 410.7116 565.3553 C 410.64824 565.35095 410.58495 565.34575 410.52175 565.3397 L 396.03074 563.95014 C 396.0213 563.9492 396.01183 563.9483 396.0024 563.94736 L 382.19035 562.56616 C 382.0745 562.5546 381.95897 562.5401 381.84385 562.52275 L 367.5347 560.3666 C 367.45595 560.3547 367.377 560.3442 367.29788 560.335 L 353.77794 558.7675 C 353.67037 558.755 353.5631 558.74005 353.4562 558.7226 L 344.06413 557.1892 C 343.89913 557.16226 343.73516 557.1294 343.5725 557.09074 L 334.4949 554.93196 C 334.1066 554.8396 333.71694 555.07955 333.6246 555.46787 C 333.6185 555.49345 333.61383 555.51934 333.61057 555.54543 Z" stroke="#7f8080" stroke-linecap="round" stroke-linejoin="round" stroke-width="1"/>
      <path d="M 576.0703 561.1826 L 587.2704 560.17895 L 600.5069 558.1716 L 604.5797 556.1643 L 599.48874 525.0506 L 596.43415 497.95156 L 594.3978 470.85254 L 591.3432 443.7535 L 590.325 415.65083 L 590.325 386.54447 L 589.3068 362.45645 L 589.3068 325.32075 L 591.3432 292.19973 L 594.3978 261.08604 L 596.43415 246.03102 L 601.5251 229.97234 L 605.5979 215.921 L 609.6707 202.87332 L 617.8162 188.82198 L 623.9254 177.78163 L 629.0164 170.75596 L 619.8526 165.73763 L 606.6161 160.71929 L 593.3796 156.70462 L 574.0339 151.68628 L 570.79736 561.3454 Z" fill="#00007d"/>
      <path d="M 576.0703 561.1826 L 587.2704 560.17895 L 600.5069 558.1716 L 604.5797 556.1643 L 599.48874 525.0506 L 596.43415 497.95156 L 594.3978 470.85254 L 591.3432 443.7535 L 590.325 415.65083 L 590.325 386.54447 L 589.3068 362.45645 L 589.3068 325.32075 L 591.3432 292.19973 L 594.3978 261.08604 L 596.43415 246.03102 L 601.5251 229.97234 L 605.5979 215.921 L 609.6707 202.87332 L 617.8162 188.82198 L 623.9254 177.78163 L 629.0164 170.75596 L 619.8526 165.73763 L 606.6161 160.71929 L 593.3796 156.70462 L 574.0339 151.68628 L 570.79736 561.3454 Z" stroke="#7f8080" stroke-linecap="round" stroke-linejoin="round" stroke-width="1"/>
      <path d="M 365.13905 560.2315 L 360.82533 559.80656 L 349.82533 558.80656 L 336.82533 556.80656 L 332.82533 554.80656 L 337.82533 523.80656 L 339.63905 497.7315 L 342.13905 469.7315 L 343.63905 442.7315 L 344.13905 413.73152 L 345.63905 386.73152 L 346.13905 361.23152 L 345.13905 325.23152 L 344.13905 291.73152 L 344.13905 276.73152 L 341.63905 261.23152 L 339.13905 246.23152 L 334.63905 230.73152 L 330.13905 216.23152 L 325.13905 202.73152 L 318.63905 189.23152 L 312.13905 178.73152 L 308.63905 172.23152 L 317.82533 165.80656 L 330.82533 160.80656 L 343.82533 156.80656 L 362.13905 151.23152 L 367.63905 149.73152 Z" fill="#00006b"/>
      <path d="M 365.13905 560.2315 L 360.82533 559.80656 L 349.82533 558.80656 L 336.82533 556.80656 L 332.82533 554.80656 L 337.82533 523.80656 L 339.63905 497.7315 L 342.13905 469.7315 L 343.63905 442.7315 L 344.13905 413.73152 L 345.63905 386.73152 L 346.13905 361.23152 L 345.13905 325.23152 L 344.13905 291.73152 L 344.13905 276.73152 L 341.63905 261.23152 L 339.13905 246.23152 L 334.63905 230.73152 L 330.13905 216.23152 L 325.13905 202.73152 L 318.63905 189.23152 L 312.13905 178.73152 L 308.63905 172.23152 L 317.82533 165.80656 L 330.82533 160.80656 L 343.82533 156.80656 L 362.13905 151.23152 L 367.63905 149.73152 Z" stroke="#7f8080" stroke-linecap="round" stroke-linejoin="round" stroke-width="1"/>
      <path d="M 405.29736 564.3454 L 410.79736 565.3454 L 424.79736 565.8454 L 445.79736 565.8454 L 445.79736 192.34542 L 433.79736 188.34542 L 426.79736 184.34542 L 417.79736 178.34542 L 408.79736 169.84542 Z" fill="#00006e"/>
      <path d="M 405.29736 564.3454 L 410.79736 565.3454 L 424.79736 565.8454 L 445.79736 565.8454 L 445.79736 192.34542 L 433.79736 188.34542 L 426.79736 184.34542 L 417.79736 178.34542 L 408.79736 169.84542 Z" stroke="#7f8080" stroke-linecap="round" stroke-linejoin="round" stroke-width="1"/>
      <path d="M 498.79736 190.84542 L 507.79736 185.84542 L 513.79736 181.34542 L 521.79736 175.34542 L 527.79736 168.84542 L 532.29736 564.8454 L 515.29736 565.8454 L 504.29736 566.3454 L 497.79736 566.8454 L 493.79736 566.3454 L 494.79736 566.3454 L 490.79736 193.84542 Z" fill="#000063"/>
      <path d="M 498.79736 190.84542 L 507.79736 185.84542 L 513.79736 181.34542 L 521.79736 175.34542 L 527.79736 168.84542 L 532.29736 564.8454 L 515.29736 565.8454 L 504.29736 566.3454 L 497.79736 566.8454 L 493.79736 566.3454 L 494.79736 566.3454 L 490.79736 193.84542 Z" stroke="#7f8080" stroke-linecap="round" stroke-linejoin="round" stroke-width="1"/>
    </g>
  </g>
</svg>
