<?xml version="1.0" encoding="UTF-8" standalone="no"?>
<!DOCTYPE svg PUBLIC "-//W3C//DTD SVG 1.1//EN" "http://www.w3.org/Graphics/SVG/1.1/DTD/svg11.dtd">
<svg xmlns="http://www.w3.org/2000/svg" xmlns:xl="http://www.w3.org/1999/xlink" version="1.1" viewBox="55.5 31.5 432.4053 448.4" width="432.4053pt" height="448.4pt" xmlns:dc="http://purl.org/dc/elements/1.1/">
  <metadata> Produced by OmniGraffle 7.6.1 
    <dc:date>2019-04-23 15:02:20 +0000</dc:date>
  </metadata>
  <defs>
    <radialGradient cx="0" cy="0" r="1" id="Gradient" gradientUnits="userSpaceOnUse">
      <stop offset="0" stop-color="#cbcbcb"/>
      <stop offset="1" stop-color="#843918"/>
    </radialGradient>
    <radialGradient id="Obj_Gradient" xl:href="#Gradient" gradientTransform="translate(270.75925 59.4) scale(70.26272)"/>
    <radialGradient cx="0" cy="0" r="1" id="Gradient_2" gradientUnits="userSpaceOnUse">
      <stop offset="0" stop-color="#dead26"/>
      <stop offset="1" stop-color="#fdf631"/>
    </radialGradient>
    <radialGradient id="Obj_Gradient_2" xl:href="#Gradient_2" gradientTransform="translate(98.2 195.24615) scale(46.03694)"/>
    <radialGradient id="Obj_Gradient_3" xl:href="#Gradient_2" gradientTransform="translate(445.2053 194.30275) scale(46.03694)"/>
    <radialGradient cx="0" cy="0" r="1" id="Gradient_3" gradientUnits="userSpaceOnUse">
      <stop offset="0" stop-color="#dead26"/>
      <stop offset="1" stop-color="#333"/>
    </radialGradient>
    <radialGradient id="Obj_Gradient_4" xl:href="#Gradient_3" gradientTransform="translate(270.78697 66.355314) scale(83.83496)"/>
    <linearGradient x1="0" x2="1" id="Gradient_4" gradientUnits="userSpaceOnUse">
      <stop offset="0" stop-color="#dead26"/>
      <stop offset="1" stop-color="#ebf62b"/>
    </linearGradient>
    <linearGradient id="Obj_Gradient_5" xl:href="#Gradient_4" gradientTransform="translate(270.05925 32.755892) rotate(90) scale(25)"/>
    <radialGradient cx="0" cy="0" r="1" id="Gradient_5" gradientUnits="userSpaceOnUse">
      <stop offset="0" stop-color="#dead26"/>
      <stop offset="1" stop-color="#eeeaad"/>
    </radialGradient>
    <radialGradient id="Obj_Gradient_6" xl:href="#Gradient_5" gradientTransform="translate(271.32968 468.9834) scale(135.94141)"/>
    <radialGradient cx="0" cy="0" r="1" id="Gradient_6" gradientUnits="userSpaceOnUse">
      <stop offset="0" stop-color="#c9cb24"/>
      <stop offset="1" stop-color="#faec30"/>
    </radialGradient>
    <radialGradient id="Obj_Gradient_7" xl:href="#Gradient_6" gradientTransform="translate(282.78794 261.9715) scale(252.27573)"/>
  </defs>
  <g stroke="none" stroke-opacity="1" stroke-dasharray="none" fill="none" fill-opacity="1">
    <title>Galaxy</title>
    <g>
      <title>Layer 1</title>
      <path d="M 209.00565 32.590446 L 217.1711 35.708164 C 218.0291 36.03576 218.90594 36.311673 219.79692 36.53442 L 233.5141 39.963713 C 234.67576 40.25413 235.85832 40.453383 237.051 40.55966 L 254.57715 42.121397 C 255.165 42.17378 255.75464 42.203517 256.34478 42.21054 L 271.8237 42.394815 C 272.11404 42.39827 272.40442 42.39623 272.6947 42.38869 L 287.118 42.01406 C 287.47878 42.00469 287.8393 41.986826 288.19924 41.96049 L 302.57053 40.90893 C 303.56197 40.836387 304.54766 40.69964 305.5214 40.49956 L 317.09436 38.12155 C 318.13637 37.90744 319.16226 37.6213 320.16465 37.265186 L 331.91664 33.090136 C 333.007 32.702767 334.2102 33.233542 334.65925 34.3 L 334.65925 34.3 C 335.1814 35.540106 335.3334 36.904854 335.09685 38.22945 L 334.91637 39.24014 C 334.6126 40.941294 334.11806 42.602796 333.44214 44.19319 L 331.8989 47.82431 C 331.34035 49.13858 330.6606 50.397975 329.86846 51.58618 L 326.1827 57.11485 C 325.43517 58.236114 324.59057 59.28951 323.6586 60.26289 L 317.36354 66.83774 C 316.49547 67.74439 315.55463 68.57846 314.55046 69.33159 L 306.17555 75.61277 C 305.29914 76.27008 304.37688 76.86394 303.4158 77.3898 L 296.2306 81.32133 C 294.9195 82.03874 293.54156 82.62664 292.11638 83.0767 L 285.44347 85.18393 C 283.7266 85.7261 281.952 86.0648 280.15613 86.19308 L 273.26968 86.68497 C 272.19738 86.76156 271.12103 86.76288 270.04854 86.68892 L 261.6123 86.10711 C 260.5781 86.03578 259.54994 85.89463 258.5348 85.6846 L 251.3996 84.20835 C 249.44765 83.8045 247.55647 83.14861 245.77362 82.25719 L 241.1142 79.92748 C 239.88007 79.31041 238.70397 78.58354 237.60012 77.75566 L 231.91816 73.49419 C 231.47903 73.164835 231.05182 72.81987 230.63737 72.45995 L 224.8822 67.46203 C 224.0679 66.754885 223.30436 65.991345 222.59722 65.17706 L 218.192 60.104376 C 217.4379 59.236015 216.74998 58.312315 216.13406 57.34105 L 212.40036 51.45329 C 212.0398 50.884704 211.70437 50.30056 211.39505 49.70255 L 209.77468 46.569827 C 209.16553 45.39215 208.65936 44.164 208.26183 42.89911 L 206.98159 38.825623 C 206.7668 38.142248 206.58408 37.44921 206.43399 36.74878 L 206.35925 36.4 C 206.16458 35.491574 206.27185 34.54443 206.66473 33.702543 L 206.75925 33.5 C 207.15372 32.654693 208.1342 32.257707 209.00565 32.590446 Z" fill="url(#Obj_Gradient)"/>
      <path d="M 209.00565 32.590446 L 217.1711 35.708164 C 218.0291 36.03576 218.90594 36.311673 219.79692 36.53442 L 233.5141 39.963713 C 234.67576 40.25413 235.85832 40.453383 237.051 40.55966 L 254.57715 42.121397 C 255.165 42.17378 255.75464 42.203517 256.34478 42.21054 L 271.8237 42.394815 C 272.11404 42.39827 272.40442 42.39623 272.6947 42.38869 L 287.118 42.01406 C 287.47878 42.00469 287.8393 41.986826 288.19924 41.96049 L 302.57053 40.90893 C 303.56197 40.836387 304.54766 40.69964 305.5214 40.49956 L 317.09436 38.12155 C 318.13637 37.90744 319.16226 37.6213 320.16465 37.265186 L 331.91664 33.090136 C 333.007 32.702767 334.2102 33.233542 334.65925 34.3 L 334.65925 34.3 C 335.1814 35.540106 335.3334 36.904854 335.09685 38.22945 L 334.91637 39.24014 C 334.6126 40.941294 334.11806 42.602796 333.44214 44.19319 L 331.8989 47.82431 C 331.34035 49.13858 330.6606 50.397975 329.86846 51.58618 L 326.1827 57.11485 C 325.43517 58.236114 324.59057 59.28951 323.6586 60.26289 L 317.36354 66.83774 C 316.49547 67.74439 315.55463 68.57846 314.55046 69.33159 L 306.17555 75.61277 C 305.29914 76.27008 304.37688 76.86394 303.4158 77.3898 L 296.2306 81.32133 C 294.9195 82.03874 293.54156 82.62664 292.11638 83.0767 L 285.44347 85.18393 C 283.7266 85.7261 281.952 86.0648 280.15613 86.19308 L 273.26968 86.68497 C 272.19738 86.76156 271.12103 86.76288 270.04854 86.68892 L 261.6123 86.10711 C 260.5781 86.03578 259.54994 85.89463 258.5348 85.6846 L 251.3996 84.20835 C 249.44765 83.8045 247.55647 83.14861 245.77362 82.25719 L 241.1142 79.92748 C 239.88007 79.31041 238.70397 78.58354 237.60012 77.75566 L 231.91816 73.49419 C 231.47903 73.164835 231.05182 72.81987 230.63737 72.45995 L 224.8822 67.46203 C 224.0679 66.754885 223.30436 65.991345 222.59722 65.17706 L 218.192 60.104376 C 217.4379 59.236015 216.74998 58.312315 216.13406 57.34105 L 212.40036 51.45329 C 212.0398 50.884704 211.70437 50.30056 211.39505 49.70255 L 209.77468 46.569827 C 209.16553 45.39215 208.65936 44.164 208.26183 42.89911 L 206.98159 38.825623 C 206.7668 38.142248 206.58408 37.44921 206.43399 36.74878 L 206.35925 36.4 C 206.16458 35.491574 206.27185 34.54443 206.66473 33.702543 L 206.75925 33.5 C 207.15372 32.654693 208.1342 32.257707 209.00565 32.590446 Z" stroke="#7f8080" stroke-linecap="round" stroke-linejoin="round" stroke-width="1"/>
      <path d="M 144.97346 469.2638 L 158.7157 471.55416 C 158.89907 471.5847 159.08297 471.6121 159.2673 471.63624 L 187.62094 475.35154 C 187.86747 475.38385 188.11472 475.4104 188.36248 475.4312 L 218.60537 477.9677 C 218.86227 477.98923 219.11966 478.00456 219.3773 478.0137 L 258.30822 479.39 C 258.49658 479.3967 258.68504 479.4 258.87352 479.4 L 290.34084 479.4 C 290.50746 479.4 290.67407 479.3974 290.8406 479.3922 L 315.8754 478.60986 C 316.08563 478.6033 316.29573 478.5926 316.50555 478.5777 L 338.5533 477.0168 C 338.7116 477.0056 338.86975 476.99205 339.02766 476.97614 L 364.28815 474.4305 C 364.4899 474.4102 364.69122 474.386 364.89204 474.358 L 388.68474 471.04265 C 388.88875 471.0142 389.0922 470.98186 389.29496 470.9456 L 398.4908 469.3 C 403.8179 468.34674 407.46876 463.3931 406.80234 458.02255 L 404.59475 440.232 C 404.5921 440.21066 404.5895 440.18934 404.58695 440.168 L 401.0231 410.4695 C 401.00157 410.28985 400.98306 410.10985 400.9676 409.9296 L 398.6054 382.37037 C 398.59565 382.2568 398.58713 382.1431 398.57983 382.02936 L 397.1932 360.43772 C 397.1916 360.41258 397.1899 360.38744 397.1882 360.3623 L 395.59603 337.276 C 395.59253 337.22533 395.5893 337.17466 395.58627 337.12398 L 394.4099 317.3218 C 394.39716 317.1073 394.38874 316.89255 394.38465 316.6777 L 393.99236 296.08285 C 393.9913 296.02762 393.98997 295.9724 393.98835 295.91718 L 393.3932 275.68283 C 393.3916 275.6276 393.39026 275.5724 393.3892 275.51715 L 392.99855 255.0076 C 392.99337 254.73592 392.9951 254.46413 393.0038 254.19253 L 393.58973 235.83292 C 393.59044 235.81097 393.5912 235.78903 393.59197 235.7671 L 394.38005 213.89779 C 394.3872 213.69928 394.39806 213.50093 394.4126 213.30283 L 395.97007 192.0822 C 395.9839 191.89409 395.99436 191.70573 396.0015 191.51724 L 396.75596 171.61837 C 396.77915 171.00663 396.83744 170.39672 396.93052 169.79165 L 399.66953 151.98813 C 399.7503 151.46304 399.8572 150.94229 399.9898 150.42783 L 404.61806 132.47017 C 404.73316 132.0236 404.8675 131.58221 405.02073 131.14725 L 410.7415 114.9076 C 410.9076 114.43613 411.0957 113.9727 411.30517 113.51883 L 416.83673 101.53379 C 416.9394 101.31129 417.0472 101.09119 417.16 100.87364 L 422.52223 90.53222 C 422.56793 90.44407 422.61446 90.35636 422.6618 90.26908 L 427.87777 80.65212 C 428.61505 79.29276 429.5647 78.05987 430.6908 77 L 430.6908 77 C 431.366 76.36453 431.39817 75.30203 430.7627 74.62684 C 430.6382 74.49456 430.49307 74.38337 430.33295 74.29759 L 427.1188 72.57573 C 426.90016 72.45859 426.6788 72.34656 426.45494 72.23971 L 418.60097 68.49122 C 418.19436 68.29716 417.77974 68.12036 417.3582 67.96129 L 407.6834 64.31041 C 407.48833 64.23681 407.29187 64.16703 407.0941 64.10111 L 394.39963 59.869615 C 394.2604 59.82321 394.12055 59.77872 393.9801 59.73616 L 381.0966 55.83206 C 381.02605 55.81069 380.95567 55.78883 380.88544 55.76648 L 368.38144 51.78794 C 367.9878 51.66269 367.5992 51.52225 367.21643 51.36693 L 355.2405 46.507127 C 354.40883 46.16964 353.60704 45.762775 352.8436 45.290834 L 343.22436 39.34439 C 343.06865 39.248137 342.9146 39.14922 342.7623 39.04768 L 337.8722 35.787616 C 336.8908 35.133353 336.0195 34.327453 335.2908 33.4 L 335.2908 33.4 C 335.1852 33.265596 334.9906 33.242248 334.8562 33.34785 C 334.75347 33.428576 334.7125 33.565127 334.7538 33.689083 L 334.8908 34.1 C 335.35003 35.47775 335.4546 36.949037 335.1948 38.37789 L 334.79967 40.551155 C 334.52845 42.042813 334.0466 43.48835 333.3686 44.844405 L 331.83626 47.90904 C 331.53956 48.50244 331.20624 49.07681 330.83823 49.628825 L 327.63453 54.43438 C 327.20593 55.07728 326.73132 55.68829 326.21443 56.262615 L 321.6524 61.331555 C 321.6113 61.377185 321.57 61.42258 321.5284 61.46773 L 315.53417 67.97576 C 314.90643 68.6573 314.22068 69.28302 313.48465 69.84587 L 308.46047 73.68789 C 308.01432 74.02906 307.55052 74.3465 307.071 74.6389 L 300.58458 78.59403 C 299.92292 78.99748 299.23283 79.35232 298.51975 79.65576 L 291.40434 82.6836 C 290.59667 83.02728 289.7621 83.30393 288.90905 83.51072 L 284.83 84.49959 C 284.00516 84.69955 283.16573 84.83356 282.31963 84.90035 L 276.61943 85.35037 C 276.2005 85.38344 275.78042 85.4 275.3602 85.4 L 268.32787 85.4 C 267.57077 85.4 266.81462 85.34626 266.06513 85.23919 L 258.11868 84.10399 C 257.63367 84.0347 257.1521 83.94317 256.6755 83.82969 L 250.71426 82.41035 C 249.56878 82.13762 248.4569 81.73927 247.39883 81.22253 L 241.11882 78.15556 C 240.63377 77.91867 240.16102 77.65739 239.70238 77.37272 L 235.49052 74.75846 C 234.89135 74.38656 234.31742 73.97546 233.7725 73.527835 L 229.3264 69.87568 C 229.1027 69.69193 228.88402 69.50214 228.67063 69.30652 L 224.86828 65.82104 C 224.417 65.407356 223.9898 64.96811 223.58885 64.505465 L 219.4701 59.753066 C 219.15072 59.38455 218.84836 59.00162 218.56395 58.605486 L 214.1343 52.43561 C 213.6394 51.746296 213.20013 51.018704 212.82064 50.25972 L 210.24418 45.10679 C 210.20858 45.0356 210.17352 44.96414 210.13899 44.892424 L 208.89078 42.3 C 208.04007 40.53313 207.68455 38.568594 207.8621 36.61564 L 208.0423 34.633386 C 208.0661 34.371524 207.87312 34.139945 207.61125 34.11614 C 207.44886 34.101376 207.2902 34.17075 207.19078 34.3 L 207.19078 34.3 C 206.52734 35.16248 205.74723 35.92856 204.87285 36.576246 L 200.97632 39.462567 C 200.85263 39.554184 200.72763 39.64401 200.60136 39.732022 L 195.9791 42.95359 C 194.79237 43.78071 193.49895 44.443076 192.1342 44.92258 L 187.52708 46.5413 C 187.0365 46.713665 186.55463 46.90984 186.08316 47.129127 L 179.23638 50.313676 C 178.54022 50.63747 177.82165 50.91074 177.08625 51.13136 L 166.21586 54.392476 C 166.19914 54.39749 166.18243 54.402536 166.16572 54.40761 L 155.19764 57.737205 C 155.05974 57.77907 154.92241 57.82279 154.7857 57.86836 L 141.86446 62.17544 C 141.81534 62.19181 141.76614 62.20795 141.71686 62.223845 L 130.34946 65.89075 C 129.71097 66.09671 129.08607 66.34263 128.47846 66.627044 L 120.5465 70.33988 C 120.17616 70.51323 119.8126 70.70071 119.45662 70.90192 L 113.5105 74.262765 C 112.25747 74.971 111.81583 76.560925 112.52406 77.81396 C 112.60118 77.9504 112.69045 78.0796 112.79078 78.2 L 113.65489 79.23693 C 114.40984 80.14287 115.06231 81.12949 115.60043 82.17882 L 118.67757 88.17924 C 118.75304 88.3264 118.83079 88.47239 118.91078 88.61715 L 122.86554 95.77337 C 122.94903 95.92445 123.03007 96.07687 123.10863 96.23057 L 127.21693 104.26856 C 127.466 104.75587 127.6899 105.25563 127.88776 105.76589 L 131.37053 114.74776 C 131.38403 114.78259 131.39765 114.81737 131.4114 114.8521 L 135.00772 123.93754 C 135.12973 124.24577 135.24213 124.55772 135.34476 124.87294 L 137.9666 132.92572 C 137.98272 132.97524 137.9986 133.02484 138.01424 133.07452 L 141.08629 142.83279 C 141.28908 143.47695 141.45089 144.1333 141.57073 144.79792 L 143.55605 155.80737 C 143.5792 155.93579 143.60079 156.06448 143.6208 156.19342 L 145.32666 167.1868 C 145.3694 167.46222 145.40494 167.7387 145.43323 168.01598 L 146.32065 176.7127 C 146.36738 177.17069 146.39433 177.63048 146.40141 178.0908 L 146.58565 190.06641 C 146.58907 190.28878 146.59713 190.51105 146.60981 190.73309 L 147.38019 204.21465 C 147.38725 204.33821 147.39575 204.4617 147.40567 204.58506 L 148.73924 221.15943 C 148.77359 221.5863 148.79078 222.0144 148.79078 222.44264 L 148.79078 234.89242 C 148.79078 235.09746 148.79472 235.30247 148.8026 235.50735 L 149.38295 250.5965 C 149.38817 250.73216 149.39166 250.8679 149.39343 251.00365 L 149.58559 265.7999 C 149.58905 266.0666 149.58584 266.33333 149.57597 266.59986 L 149.00174 282.104 C 148.99444 282.30132 148.99078 282.49875 148.99078 282.6962 L 148.99078 296.29243 C 148.99078 296.49746 148.98684 296.70247 148.97896 296.90736 L 148.39377 312.12236 C 148.39178 312.17412 148.38953 312.22588 148.38704 312.2776 L 147.59172 328.78055 C 147.5911 328.79352 147.59045 328.8065 147.5898 328.81945 L 146.7953 344.5106 C 146.79229 344.5702 146.78894 344.6298 146.78526 344.68933 L 145.59634 363.91007 C 145.59264 363.97003 145.58859 364.02996 145.5842 364.08987 L 143.80107 388.4594 C 143.79421 388.55314 143.78653 388.6468 143.77802 388.7404 L 141.99213 408.3852 C 141.99123 408.39507 141.99032 408.40494 141.9894 408.4148 L 140.21864 427.4997 C 140.20007 427.6999 140.17773 427.8997 140.15162 428.09903 L 138.19091 443.07175 C 138.0581 444.08594 137.78896 445.07756 137.39078 446.01973 L 137.39078 446.01973 C 136.9932 446.9605 136.74454 447.9574 136.65371 448.97465 L 135.89078 457.51973 C 135.38302 463.20676 139.34149 468.3251 144.97346 469.2638 Z" fill="white"/>
      <path d="M 144.97346 469.2638 L 158.7157 471.55416 C 158.89907 471.5847 159.08297 471.6121 159.2673 471.63624 L 187.62094 475.35154 C 187.86747 475.38385 188.11472 475.4104 188.36248 475.4312 L 218.60537 477.9677 C 218.86227 477.98923 219.11966 478.00456 219.3773 478.0137 L 258.30822 479.39 C 258.49658 479.3967 258.68504 479.4 258.87352 479.4 L 290.34084 479.4 C 290.50746 479.4 290.67407 479.3974 290.8406 479.3922 L 315.8754 478.60986 C 316.08563 478.6033 316.29573 478.5926 316.50555 478.5777 L 338.5533 477.0168 C 338.7116 477.0056 338.86975 476.99205 339.02766 476.97614 L 364.28815 474.4305 C 364.4899 474.4102 364.69122 474.386 364.89204 474.358 L 388.68474 471.04265 C 388.88875 471.0142 389.0922 470.98186 389.29496 470.9456 L 398.4908 469.3 C 403.8179 468.34674 407.46876 463.3931 406.80234 458.02255 L 404.59475 440.232 C 404.5921 440.21066 404.5895 440.18934 404.58695 440.168 L 401.0231 410.4695 C 401.00157 410.28985 400.98306 410.10985 400.9676 409.9296 L 398.6054 382.37037 C 398.59565 382.2568 398.58713 382.1431 398.57983 382.02936 L 397.1932 360.43772 C 397.1916 360.41258 397.1899 360.38744 397.1882 360.3623 L 395.59603 337.276 C 395.59253 337.22533 395.5893 337.17466 395.58627 337.12398 L 394.4099 317.3218 C 394.39716 317.1073 394.38874 316.89255 394.38465 316.6777 L 393.99236 296.08285 C 393.9913 296.02762 393.98997 295.9724 393.98835 295.91718 L 393.3932 275.68283 C 393.3916 275.6276 393.39026 275.5724 393.3892 275.51715 L 392.99855 255.0076 C 392.99337 254.73592 392.9951 254.46413 393.0038 254.19253 L 393.58973 235.83292 C 393.59044 235.81097 393.5912 235.78903 393.59197 235.7671 L 394.38005 213.89779 C 394.3872 213.69928 394.39806 213.50093 394.4126 213.30283 L 395.97007 192.0822 C 395.9839 191.89409 395.99436 191.70573 396.0015 191.51724 L 396.75596 171.61837 C 396.77915 171.00663 396.83744 170.39672 396.93052 169.79165 L 399.66953 151.98813 C 399.7503 151.46304 399.8572 150.94229 399.9898 150.42783 L 404.61806 132.47017 C 404.73316 132.0236 404.8675 131.58221 405.02073 131.14725 L 410.7415 114.9076 C 410.9076 114.43613 411.0957 113.9727 411.30517 113.51883 L 416.83673 101.53379 C 416.9394 101.31129 417.0472 101.09119 417.16 100.87364 L 422.52223 90.53222 C 422.56793 90.44407 422.61446 90.35636 422.6618 90.26908 L 427.87777 80.65212 C 428.61505 79.29276 429.5647 78.05987 430.6908 77 L 430.6908 77 C 431.366 76.36453 431.39817 75.30203 430.7627 74.62684 C 430.6382 74.49456 430.49307 74.38337 430.33295 74.29759 L 427.1188 72.57573 C 426.90016 72.45859 426.6788 72.34656 426.45494 72.23971 L 418.60097 68.49122 C 418.19436 68.29716 417.77974 68.12036 417.3582 67.96129 L 407.6834 64.31041 C 407.48833 64.23681 407.29187 64.16703 407.0941 64.10111 L 394.39963 59.869615 C 394.2604 59.82321 394.12055 59.77872 393.9801 59.73616 L 381.0966 55.83206 C 381.02605 55.81069 380.95567 55.78883 380.88544 55.76648 L 368.38144 51.78794 C 367.9878 51.66269 367.5992 51.52225 367.21643 51.36693 L 355.2405 46.507127 C 354.40883 46.16964 353.60704 45.762775 352.8436 45.290834 L 343.22436 39.34439 C 343.06865 39.248137 342.9146 39.14922 342.7623 39.04768 L 337.8722 35.787616 C 336.8908 35.133353 336.0195 34.327453 335.2908 33.4 L 335.2908 33.4 C 335.1852 33.265596 334.9906 33.242248 334.8562 33.34785 C 334.75347 33.428576 334.7125 33.565127 334.7538 33.689083 L 334.8908 34.1 C 335.35003 35.47775 335.4546 36.949037 335.1948 38.37789 L 334.79967 40.551155 C 334.52845 42.042813 334.0466 43.48835 333.3686 44.844405 L 331.83626 47.90904 C 331.53956 48.50244 331.20624 49.07681 330.83823 49.628825 L 327.63453 54.43438 C 327.20593 55.07728 326.73132 55.68829 326.21443 56.262615 L 321.6524 61.331555 C 321.6113 61.377185 321.57 61.42258 321.5284 61.46773 L 315.53417 67.97576 C 314.90643 68.6573 314.22068 69.28302 313.48465 69.84587 L 308.46047 73.68789 C 308.01432 74.02906 307.55052 74.3465 307.071 74.6389 L 300.58458 78.59403 C 299.92292 78.99748 299.23283 79.35232 298.51975 79.65576 L 291.40434 82.6836 C 290.59667 83.02728 289.7621 83.30393 288.90905 83.51072 L 284.83 84.49959 C 284.00516 84.69955 283.16573 84.83356 282.31963 84.90035 L 276.61943 85.35037 C 276.2005 85.38344 275.78042 85.4 275.3602 85.4 L 268.32787 85.4 C 267.57077 85.4 266.81462 85.34626 266.06513 85.23919 L 258.11868 84.10399 C 257.63367 84.0347 257.1521 83.94317 256.6755 83.82969 L 250.71426 82.41035 C 249.56878 82.13762 248.4569 81.73927 247.39883 81.22253 L 241.11882 78.15556 C 240.63377 77.91867 240.16102 77.65739 239.70238 77.37272 L 235.49052 74.75846 C 234.89135 74.38656 234.31742 73.97546 233.7725 73.527835 L 229.3264 69.87568 C 229.1027 69.69193 228.88402 69.50214 228.67063 69.30652 L 224.86828 65.82104 C 224.417 65.407356 223.9898 64.96811 223.58885 64.505465 L 219.4701 59.753066 C 219.15072 59.38455 218.84836 59.00162 218.56395 58.605486 L 214.1343 52.43561 C 213.6394 51.746296 213.20013 51.018704 212.82064 50.25972 L 210.24418 45.10679 C 210.20858 45.0356 210.17352 44.96414 210.13899 44.892424 L 208.89078 42.3 C 208.04007 40.53313 207.68455 38.568594 207.8621 36.61564 L 208.0423 34.633386 C 208.0661 34.371524 207.87312 34.139945 207.61125 34.11614 C 207.44886 34.101376 207.2902 34.17075 207.19078 34.3 L 207.19078 34.3 C 206.52734 35.16248 205.74723 35.92856 204.87285 36.576246 L 200.97632 39.462567 C 200.85263 39.554184 200.72763 39.64401 200.60136 39.732022 L 195.9791 42.95359 C 194.79237 43.78071 193.49895 44.443076 192.1342 44.92258 L 187.52708 46.5413 C 187.0365 46.713665 186.55463 46.90984 186.08316 47.129127 L 179.23638 50.313676 C 178.54022 50.63747 177.82165 50.91074 177.08625 51.13136 L 166.21586 54.392476 C 166.19914 54.39749 166.18243 54.402536 166.16572 54.40761 L 155.19764 57.737205 C 155.05974 57.77907 154.92241 57.82279 154.7857 57.86836 L 141.86446 62.17544 C 141.81534 62.19181 141.76614 62.20795 141.71686 62.223845 L 130.34946 65.89075 C 129.71097 66.09671 129.08607 66.34263 128.47846 66.627044 L 120.5465 70.33988 C 120.17616 70.51323 119.8126 70.70071 119.45662 70.90192 L 113.5105 74.262765 C 112.25747 74.971 111.81583 76.560925 112.52406 77.81396 C 112.60118 77.9504 112.69045 78.0796 112.79078 78.2 L 113.65489 79.23693 C 114.40984 80.14287 115.06231 81.12949 115.60043 82.17882 L 118.67757 88.17924 C 118.75304 88.3264 118.83079 88.47239 118.91078 88.61715 L 122.86554 95.77337 C 122.94903 95.92445 123.03007 96.07687 123.10863 96.23057 L 127.21693 104.26856 C 127.466 104.75587 127.6899 105.25563 127.88776 105.76589 L 131.37053 114.74776 C 131.38403 114.78259 131.39765 114.81737 131.4114 114.8521 L 135.00772 123.93754 C 135.12973 124.24577 135.24213 124.55772 135.34476 124.87294 L 137.9666 132.92572 C 137.98272 132.97524 137.9986 133.02484 138.01424 133.07452 L 141.08629 142.83279 C 141.28908 143.47695 141.45089 144.1333 141.57073 144.79792 L 143.55605 155.80737 C 143.5792 155.93579 143.60079 156.06448 143.6208 156.19342 L 145.32666 167.1868 C 145.3694 167.46222 145.40494 167.7387 145.43323 168.01598 L 146.32065 176.7127 C 146.36738 177.17069 146.39433 177.63048 146.40141 178.0908 L 146.58565 190.06641 C 146.58907 190.28878 146.59713 190.51105 146.60981 190.73309 L 147.38019 204.21465 C 147.38725 204.33821 147.39575 204.4617 147.40567 204.58506 L 148.73924 221.15943 C 148.77359 221.5863 148.79078 222.0144 148.79078 222.44264 L 148.79078 234.89242 C 148.79078 235.09746 148.79472 235.30247 148.8026 235.50735 L 149.38295 250.5965 C 149.38817 250.73216 149.39166 250.8679 149.39343 251.00365 L 149.58559 265.7999 C 149.58905 266.0666 149.58584 266.33333 149.57597 266.59986 L 149.00174 282.104 C 148.99444 282.30132 148.99078 282.49875 148.99078 282.6962 L 148.99078 296.29243 C 148.99078 296.49746 148.98684 296.70247 148.97896 296.90736 L 148.39377 312.12236 C 148.39178 312.17412 148.38953 312.22588 148.38704 312.2776 L 147.59172 328.78055 C 147.5911 328.79352 147.59045 328.8065 147.5898 328.81945 L 146.7953 344.5106 C 146.79229 344.5702 146.78894 344.6298 146.78526 344.68933 L 145.59634 363.91007 C 145.59264 363.97003 145.58859 364.02996 145.5842 364.08987 L 143.80107 388.4594 C 143.79421 388.55314 143.78653 388.6468 143.77802 388.7404 L 141.99213 408.3852 C 141.99123 408.39507 141.99032 408.40494 141.9894 408.4148 L 140.21864 427.4997 C 140.20007 427.6999 140.17773 427.8997 140.15162 428.09903 L 138.19091 443.07175 C 138.0581 444.08594 137.78896 445.07756 137.39078 446.01973 L 137.39078 446.01973 C 136.9932 446.9605 136.74454 447.9574 136.65371 448.97465 L 135.89078 457.51973 C 135.38302 463.20676 139.34149 468.3251 144.97346 469.2638 Z" stroke="#7f8080" stroke-linecap="round" stroke-linejoin="round" stroke-width="1"/>
      <path d="M 56 183.44615 L 62.2 187.84615 L 70.4 191.84615 L 79 195.44615 L 88 199.24615 L 99 203.24615 L 108.4 206.04615 L 117.4 208.64615 L 126.4 211.24615 L 131.8 212.64615 L 137.4 213.64615 L 139.8 207.84615 L 142.4 202.44615 L 144.6 198.44615 L 147.2 195.04615 L 147.4 186.04615 L 146.8 175.04615 L 145 164.24615 L 143.4 153.84615 L 140.8 142.84614 L 138.4 133.24614 L 135.6 125.24614 L 132.4 115.84614 L 129.6 108.44614 L 126 100.84614 L 122 93.24614 L 118 85.84614 L 115.4 82.24614 L 111.8 76.44614 L 106.4 80.84614 L 101.6 85.64614 L 97 91.84614 L 92.6 98.04614 L 87.8 106.64614 L 83 116.04614 L 78.2 125.24614 L 74.6 133.84614 L 70.6 142.84614 L 67.4 151.04615 L 63.6 160.44615 L 60.8 168.44615 L 57.8 176.84615 Z" fill="white"/>
      <path d="M 56 183.44615 L 62.2 187.84615 L 70.4 191.84615 L 79 195.44615 L 88 199.24615 L 99 203.24615 L 108.4 206.04615 L 117.4 208.64615 L 126.4 211.24615 L 131.8 212.64615 L 137.4 213.64615 L 139.8 207.84615 L 142.4 202.44615 L 144.6 198.44615 L 147.2 195.04615 L 147.4 186.04615 L 146.8 175.04615 L 145 164.24615 L 143.4 153.84615 L 140.8 142.84614 L 138.4 133.24614 L 135.6 125.24614 L 132.4 115.84614 L 129.6 108.44614 L 126 100.84614 L 122 93.24614 L 118 85.84614 L 115.4 82.24614 L 111.8 76.44614 L 106.4 80.84614 L 101.6 85.64614 L 97 91.84614 L 92.6 98.04614 L 87.8 106.64614 L 83 116.04614 L 78.2 125.24614 L 74.6 133.84614 L 70.6 142.84614 L 67.4 151.04615 L 63.6 160.44615 L 60.8 168.44615 L 57.8 176.84615 Z" stroke="#7f8080" stroke-linecap="round" stroke-linejoin="round" stroke-width="1"/>
      <path d="M 487.4053 182.50275 L 481.2053 186.90275 L 473.0053 190.90275 L 464.4053 194.50275 L 455.4053 198.30275 L 444.4053 202.30275 L 435.0053 205.10275 L 426.0053 207.70275 L 417.0053 210.30275 L 411.6053 211.70275 L 406.0053 212.70275 L 403.6053 206.90275 L 401.0053 201.50275 L 398.8053 197.50275 L 396.2053 194.10275 L 396.0053 185.10275 L 396.6053 174.10275 L 398.4053 163.30275 L 400.0053 152.90275 L 402.6053 141.90275 L 405.0053 132.30275 L 407.8053 124.30275 L 411.0053 114.90275 L 413.8053 107.50275 L 417.4053 99.90275 L 421.4053 92.30275 L 425.4053 84.90275 L 428.0053 81.30275 L 431.6053 75.50275 L 437.0053 79.90275 L 441.8053 84.70275 L 446.4053 90.90275 L 450.8053 97.10275 L 455.6053 105.70275 L 460.4053 115.10275 L 465.2053 124.30275 L 468.8053 132.90275 L 472.8053 141.90275 L 476.0053 150.10275 L 479.8053 159.50275 L 482.6053 167.50275 L 485.6053 175.90275 Z" fill="white"/>
      <path d="M 487.4053 182.50275 L 481.2053 186.90275 L 473.0053 190.90275 L 464.4053 194.50275 L 455.4053 198.30275 L 444.4053 202.30275 L 435.0053 205.10275 L 426.0053 207.70275 L 417.0053 210.30275 L 411.6053 211.70275 L 406.0053 212.70275 L 403.6053 206.90275 L 401.0053 201.50275 L 398.8053 197.50275 L 396.2053 194.10275 L 396.0053 185.10275 L 396.6053 174.10275 L 398.4053 163.30275 L 400.0053 152.90275 L 402.6053 141.90275 L 405.0053 132.30275 L 407.8053 124.30275 L 411.0053 114.90275 L 413.8053 107.50275 L 417.4053 99.90275 L 421.4053 92.30275 L 425.4053 84.90275 L 428.0053 81.30275 L 431.6053 75.50275 L 437.0053 79.90275 L 441.8053 84.70275 L 446.4053 90.90275 L 450.8053 97.10275 L 455.6053 105.70275 L 460.4053 115.10275 L 465.2053 124.30275 L 468.8053 132.90275 L 472.8053 141.90275 L 476.0053 150.10275 L 479.8053 159.50275 L 482.6053 167.50275 L 485.6053 175.90275 Z" stroke="#7f8080" stroke-linecap="round" stroke-linejoin="round" stroke-width="1"/>
      <path d="M 56 183.44615 L 62.2 187.84615 L 70.4 191.84615 L 79 195.44615 L 88 199.24615 L 99 203.24615 L 108.4 206.04615 L 117.4 208.64615 L 126.4 211.24615 L 131.8 212.64615 L 137.4 213.64615 L 140.4 207.24615 L 136.6 206.44615 L 131.8 205.24615 L 126.2 204.04615 L 120.2 202.24615 L 115.6 200.84615 L 111.4 199.64615 L 106.8 197.64615 L 102.2 196.04615 L 97.4 194.04615 L 93.4 192.64615 L 88.2 190.44615 L 83.6 188.84615 L 78.8 186.64615 L 74 184.84615 L 70 182.84615 L 65.6 180.64615 L 61.2 178.44615 L 57.8 176.84615 Z" fill="url(#Obj_Gradient_2)"/>
      <path d="M 56 183.44615 L 62.2 187.84615 L 70.4 191.84615 L 79 195.44615 L 88 199.24615 L 99 203.24615 L 108.4 206.04615 L 117.4 208.64615 L 126.4 211.24615 L 131.8 212.64615 L 137.4 213.64615 L 140.4 207.24615 L 136.6 206.44615 L 131.8 205.24615 L 126.2 204.04615 L 120.2 202.24615 L 115.6 200.84615 L 111.4 199.64615 L 106.8 197.64615 L 102.2 196.04615 L 97.4 194.04615 L 93.4 192.64615 L 88.2 190.44615 L 83.6 188.84615 L 78.8 186.64615 L 74 184.84615 L 70 182.84615 L 65.6 180.64615 L 61.2 178.44615 L 57.8 176.84615 Z" stroke="#7f8080" stroke-linecap="round" stroke-linejoin="round" stroke-width="1"/>
      <path d="M 487.4053 182.50275 L 481.2053 186.90275 L 473.0053 190.90275 L 464.4053 194.50275 L 455.4053 198.30275 L 444.4053 202.30275 L 435.0053 205.10275 L 426.0053 207.70275 L 417.0053 210.30275 L 411.6053 211.70275 L 406.0053 212.70275 L 403.0053 206.30275 L 406.8053 205.50275 L 411.6053 204.30275 L 417.2053 203.10275 L 423.2053 201.30275 L 427.8053 199.90275 L 432.0053 198.70275 L 436.6053 196.70275 L 441.2053 195.10275 L 446.0053 193.10275 L 450.0053 191.70275 L 455.2053 189.50275 L 459.8053 187.90275 L 464.6053 185.70275 L 469.4053 183.90275 L 473.4053 181.90275 L 477.8053 179.70275 L 482.2053 177.50275 L 485.6053 175.90275 Z" fill="url(#Obj_Gradient_3)"/>
      <path d="M 487.4053 182.50275 L 481.2053 186.90275 L 473.0053 190.90275 L 464.4053 194.50275 L 455.4053 198.30275 L 444.4053 202.30275 L 435.0053 205.10275 L 426.0053 207.70275 L 417.0053 210.30275 L 411.6053 211.70275 L 406.0053 212.70275 L 403.0053 206.30275 L 406.8053 205.50275 L 411.6053 204.30275 L 417.2053 203.10275 L 423.2053 201.30275 L 427.8053 199.90275 L 432.0053 198.70275 L 436.6053 196.70275 L 441.2053 195.10275 L 446.0053 193.10275 L 450.0053 191.70275 L 455.2053 189.50275 L 459.8053 187.90275 L 464.6053 185.70275 L 469.4053 183.90275 L 473.4053 181.90275 L 477.8053 179.70275 L 482.2053 177.50275 L 485.6053 175.90275 Z" stroke="#7f8080" stroke-linecap="round" stroke-linejoin="round" stroke-width="1"/>
      <path d="M 206.57212 33.96379 L 201.84295 38.017363 C 200.6926 39.003375 199.44764 39.87331 198.12621 40.614485 L 195.59958 42.03165 C 194.1644 42.836623 193.5836 44.60575 194.2624 46.104735 L 195.28 48.35197 C 195.40158 48.620455 195.52831 48.88658 195.66012 49.150196 L 197.4624 52.754736 L 199.94938 57.72871 C 200.29117 58.4123 200.66683 59.078434 201.07495 59.724625 L 203.40134 63.40808 C 203.84172 64.105345 204.31928 64.77842 204.83195 65.42439 L 208.24264 69.72185 C 208.7887 70.409875 209.3737 71.06606 209.99482 71.68717 L 214.66087 76.35321 C 215.06175 76.75409 215.4773 77.14001 215.9067 77.51018 L 220.47023 81.44426 C 220.8649 81.78448 221.271 82.11119 221.68785 82.42383 L 225.66279 85.40503 C 226.3287 85.90447 227.02123 86.36738 227.73733 86.79174 L 231.8704 89.24096 C 231.9984 89.31681 232.12712 89.39141 232.25656 89.46477 L 236.9541 92.12671 C 237.6924 92.54507 238.45328 92.92226 239.23325 93.25653 L 242.78307 94.77788 C 243.36903 95.02901 243.96518 95.25567 244.56997 95.45726 L 249.58808 97.12997 C 250.83532 97.54571 252.11592 97.85376 253.4158 98.05071 L 257.51464 98.67174 C 257.87976 98.72706 258.24615 98.77358 258.6135 98.81126 L 265.4946 99.51701 C 265.73978 99.54216 265.98534 99.56336 266.2312 99.58062 L 270.75835 99.89831 C 271.2942 99.93591 271.83122 99.95473 272.3684 99.95473 L 275.63046 99.95474 C 276.58416 99.95474 277.53693 99.89542 278.48327 99.77713 L 282.47198 99.27854 C 283.13195 99.19604 283.78802 99.08496 284.43835 98.9456 L 290.5204 97.64231 C 291.41426 97.45076 292.29592 97.2061 293.16068 96.90961 L 297.66952 95.36372 C 298.46417 95.09127 299.2433 94.77549 300.0034 94.41779 L 304.83677 92.14326 C 305.38697 91.88435 305.9267 91.60371 306.45464 91.30202 L 310.2225 89.14896 C 310.9153 88.75308 311.587 88.32142 312.23494 87.85572 L 316.91106 84.49475 C 317.41175 84.13489 317.89776 83.75503 318.3679 83.35611 L 323.68877 78.84144 C 324.0711 78.51706 324.4427 78.18026 324.803 77.83158 L 329.5022 73.28396 C 330.1418 72.665 330.7449 72.009435 331.30852 71.32058 L 335.1018 66.68434 C 335.6085 66.06503 336.08257 65.41969 336.522 64.75096 L 340.1392 59.246564 C 340.35462 58.91873 340.56163 58.58544 340.76 58.24702 L 343.2831 53.942924 C 343.66906 53.28454 344.022 52.607354 344.34062 51.91388 L 346.4593 47.30261 C 346.99218 46.14285 347.36334 44.915436 347.5624 43.654735 L 347.5624 43.654735 C 347.7407 42.525474 347.1614 41.412026 346.1343 40.9099 L 340.84088 38.321995 C 339.52642 37.67937 338.29183 36.88486 337.1624 35.954735 L 336.7564 35.620375 C 335.91205 34.925043 335.28864 33.998738 334.9624 32.954735 L 334.9624 32.954735 C 334.91573 32.80542 334.75686 32.7222 334.60754 32.76886 C 334.49247 32.804823 334.41277 32.909685 334.40892 33.030188 L 334.29968 36.45311 C 334.20894 39.296186 333.5916 42.097764 332.479 44.715667 L 331.60206 46.77904 C 331.0435 48.093314 330.36374 49.35271 329.5716 50.54091 L 325.88582 56.069584 C 325.1383 57.19085 324.2937 58.24425 323.36175 59.217624 L 317.0667 65.79247 C 316.1986 66.699125 315.25777 67.533196 314.2536 68.28633 L 305.8787 74.567505 C 305.00228 75.22482 304.08 75.81867 303.11896 76.34454 L 295.93376 80.27606 C 294.62263 80.99347 293.2447 81.58137 291.8195 82.03143 L 285.1466 84.13867 C 283.42973 84.68084 281.65514 85.01954 279.85927 85.14781 L 272.9728 85.6397 C 271.90052 85.7163 270.82417 85.71762 269.7517 85.64365 L 261.31543 85.06184 C 260.28125 84.99052 259.25308 84.84936 258.23795 84.63933 L 251.10274 83.16308 C 249.1508 82.75923 247.2596 82.10335 245.47676 81.21192 L 240.81735 78.882215 C 239.5832 78.26515 238.4071 77.53827 237.30326 76.71039 L 231.6213 72.44892 C 231.18217 72.11957 230.75496 71.7746 230.3405 71.41468 L 224.58533 66.41676 C 223.77104 65.70962 223.0075 64.94608 222.30036 64.13179 L 217.89513 59.05911 C 217.14103 58.19075 216.45312 57.26705 215.8372 56.295783 L 212.1035 50.40802 C 211.74293 49.83944 211.4075 49.255295 211.0982 48.65728 L 209.47781 45.52456 C 208.86867 44.34688 208.3625 43.118736 207.96497 41.853845 L 206.68473 37.780357 C 206.46995 37.09698 206.28722 36.403945 206.13713 35.703515 L 205.9117 34.65157 C 205.82664 34.254558 206.053 33.856906 206.4378 33.727367 L 206.4378 33.727367 C 206.5103 33.702963 206.58884 33.741948 206.61325 33.814442 C 206.63126 33.867954 206.615 33.927043 206.57212 33.96379 Z" fill="url(#Obj_Gradient_4)"/>
      <path d="M 206.57212 33.96379 L 201.84295 38.017363 C 200.6926 39.003375 199.44764 39.87331 198.12621 40.614485 L 195.59958 42.03165 C 194.1644 42.836623 193.5836 44.60575 194.2624 46.104735 L 195.28 48.35197 C 195.40158 48.620455 195.52831 48.88658 195.66012 49.150196 L 197.4624 52.754736 L 199.94938 57.72871 C 200.29117 58.4123 200.66683 59.078434 201.07495 59.724625 L 203.40134 63.40808 C 203.84172 64.105345 204.31928 64.77842 204.83195 65.42439 L 208.24264 69.72185 C 208.7887 70.409875 209.3737 71.06606 209.99482 71.68717 L 214.66087 76.35321 C 215.06175 76.75409 215.4773 77.14001 215.9067 77.51018 L 220.47023 81.44426 C 220.8649 81.78448 221.271 82.11119 221.68785 82.42383 L 225.66279 85.40503 C 226.3287 85.90447 227.02123 86.36738 227.73733 86.79174 L 231.8704 89.24096 C 231.9984 89.31681 232.12712 89.39141 232.25656 89.46477 L 236.9541 92.12671 C 237.6924 92.54507 238.45328 92.92226 239.23325 93.25653 L 242.78307 94.77788 C 243.36903 95.02901 243.96518 95.25567 244.56997 95.45726 L 249.58808 97.12997 C 250.83532 97.54571 252.11592 97.85376 253.4158 98.05071 L 257.51464 98.67174 C 257.87976 98.72706 258.24615 98.77358 258.6135 98.81126 L 265.4946 99.51701 C 265.73978 99.54216 265.98534 99.56336 266.2312 99.58062 L 270.75835 99.89831 C 271.2942 99.93591 271.83122 99.95473 272.3684 99.95473 L 275.63046 99.95474 C 276.58416 99.95474 277.53693 99.89542 278.48327 99.77713 L 282.47198 99.27854 C 283.13195 99.19604 283.78802 99.08496 284.43835 98.9456 L 290.5204 97.64231 C 291.41426 97.45076 292.29592 97.2061 293.16068 96.90961 L 297.66952 95.36372 C 298.46417 95.09127 299.2433 94.77549 300.0034 94.41779 L 304.83677 92.14326 C 305.38697 91.88435 305.9267 91.60371 306.45464 91.30202 L 310.2225 89.14896 C 310.9153 88.75308 311.587 88.32142 312.23494 87.85572 L 316.91106 84.49475 C 317.41175 84.13489 317.89776 83.75503 318.3679 83.35611 L 323.68877 78.84144 C 324.0711 78.51706 324.4427 78.18026 324.803 77.83158 L 329.5022 73.28396 C 330.1418 72.665 330.7449 72.009435 331.30852 71.32058 L 335.1018 66.68434 C 335.6085 66.06503 336.08257 65.41969 336.522 64.75096 L 340.1392 59.246564 C 340.35462 58.91873 340.56163 58.58544 340.76 58.24702 L 343.2831 53.942924 C 343.66906 53.28454 344.022 52.607354 344.34062 51.91388 L 346.4593 47.30261 C 346.99218 46.14285 347.36334 44.915436 347.5624 43.654735 L 347.5624 43.654735 C 347.7407 42.525474 347.1614 41.412026 346.1343 40.9099 L 340.84088 38.321995 C 339.52642 37.67937 338.29183 36.88486 337.1624 35.954735 L 336.7564 35.620375 C 335.91205 34.925043 335.28864 33.998738 334.9624 32.954735 L 334.9624 32.954735 C 334.91573 32.80542 334.75686 32.7222 334.60754 32.76886 C 334.49247 32.804823 334.41277 32.909685 334.40892 33.030188 L 334.29968 36.45311 C 334.20894 39.296186 333.5916 42.097764 332.479 44.715667 L 331.60206 46.77904 C 331.0435 48.093314 330.36374 49.35271 329.5716 50.54091 L 325.88582 56.069584 C 325.1383 57.19085 324.2937 58.24425 323.36175 59.217624 L 317.0667 65.79247 C 316.1986 66.699125 315.25777 67.533196 314.2536 68.28633 L 305.8787 74.567505 C 305.00228 75.22482 304.08 75.81867 303.11896 76.34454 L 295.93376 80.27606 C 294.62263 80.99347 293.2447 81.58137 291.8195 82.03143 L 285.1466 84.13867 C 283.42973 84.68084 281.65514 85.01954 279.85927 85.14781 L 272.9728 85.6397 C 271.90052 85.7163 270.82417 85.71762 269.7517 85.64365 L 261.31543 85.06184 C 260.28125 84.99052 259.25308 84.84936 258.23795 84.63933 L 251.10274 83.16308 C 249.1508 82.75923 247.2596 82.10335 245.47676 81.21192 L 240.81735 78.882215 C 239.5832 78.26515 238.4071 77.53827 237.30326 76.71039 L 231.6213 72.44892 C 231.18217 72.11957 230.75496 71.7746 230.3405 71.41468 L 224.58533 66.41676 C 223.77104 65.70962 223.0075 64.94608 222.30036 64.13179 L 217.89513 59.05911 C 217.14103 58.19075 216.45312 57.26705 215.8372 56.295783 L 212.1035 50.40802 C 211.74293 49.83944 211.4075 49.255295 211.0982 48.65728 L 209.47781 45.52456 C 208.86867 44.34688 208.3625 43.118736 207.96497 41.853845 L 206.68473 37.780357 C 206.46995 37.09698 206.28722 36.403945 206.13713 35.703515 L 205.9117 34.65157 C 205.82664 34.254558 206.053 33.856906 206.4378 33.727367 L 206.4378 33.727367 C 206.5103 33.702963 206.58884 33.741948 206.61325 33.814442 C 206.63126 33.867954 206.615 33.927043 206.57212 33.96379 Z" stroke="#7f8080" stroke-linecap="round" stroke-linejoin="round" stroke-width="1"/>
      <path d="M 206.05925 33.755892 L 211.45925 33.155892 L 218.25925 36.555892 L 223.25925 38.355892 L 231.65925 40.155892 L 240.05925 41.15589 L 248.05925 42.15589 L 255.65925 42.35589 L 264.25925 42.75589 L 275.85925 42.55589 L 284.25925 42.15589 L 293.65925 41.55589 L 302.05925 40.755892 L 311.25925 39.355892 L 319.45925 37.155892 L 325.25925 35.355892 L 330.85925 32.755892 L 333.65925 33.955892 L 334.05925 39.555892 L 331.25925 47.55589 L 325.85925 50.35589 L 315.25925 53.55589 L 303.85925 55.95589 L 292.65925 56.75589 L 280.25925 57.75589 L 269.85925 57.75589 L 260.45925 57.75589 L 248.85925 57.15589 L 237.65925 56.35589 L 227.05925 54.15589 L 218.45925 52.15589 L 212.25925 49.35589 L 210.25925 47.75589 L 207.05925 40.155892 Z" fill="url(#Obj_Gradient_5)"/>
      <path d="M 206.05925 33.755892 L 211.45925 33.155892 L 218.25925 36.555892 L 223.25925 38.355892 L 231.65925 40.155892 L 240.05925 41.15589 L 248.05925 42.15589 L 255.65925 42.35589 L 264.25925 42.75589 L 275.85925 42.55589 L 284.25925 42.15589 L 293.65925 41.55589 L 302.05925 40.755892 L 311.25925 39.355892 L 319.45925 37.155892 L 325.25925 35.355892 L 330.85925 32.755892 L 333.65925 33.955892 L 334.05925 39.555892 L 331.25925 47.55589 L 325.85925 50.35589 L 315.25925 53.55589 L 303.85925 55.95589 L 292.65925 56.75589 L 280.25925 57.75589 L 269.85925 57.75589 L 260.45925 57.75589 L 248.85925 57.15589 L 237.65925 56.35589 L 227.05925 54.15589 L 218.45925 52.15589 L 212.25925 49.35589 L 210.25925 47.75589 L 207.05925 40.155892 Z" stroke="#7f8080" stroke-linecap="round" stroke-linejoin="round" stroke-width="1"/>
      <path d="M 135.81321 459.2 L 135.81321 459.2 C 135.74753 459.7255 135.81036 460.25905 135.9963 460.7549 L 136.6473 462.4909 C 136.82406 462.96227 137.05115 463.4132 137.32462 463.8358 L 138.29243 465.33153 C 138.83339 466.16756 139.5465 466.87855 140.38412 467.417 L 141.46217 468.11005 C 141.76243 468.3031 142.077 468.47285 142.40316 468.6179 L 143.72001 469.2035 C 144.31654 469.46876 144.94725 469.6493 145.5938 469.7398 L 154.60421 471.00126 C 154.6142 471.00265 154.6242 471.00403 154.6342 471.0054 L 166.3502 472.594 C 166.3962 472.60024 166.44226 472.606 166.48838 472.61134 L 176.77131 473.7978 C 176.80324 473.8015 176.8352 473.805 176.86716 473.8082 L 190.57723 475.1991 C 190.60521 475.20193 190.63321 475.2046 190.66123 475.2071 L 201.76653 476.19865 C 201.80164 476.2018 201.83679 476.20466 201.87195 476.20726 L 212.55848 476.99886 C 212.59896 477.00185 212.63947 477.0045 212.68 477.0068 L 223.18798 477.6016 C 223.2088 477.60276 223.2296 477.60404 223.25042 477.6054 L 235.2932 478.3951 C 235.3772 478.4006 235.4613 478.4046 235.54543 478.40707 L 248.99256 478.80257 C 249.01032 478.8031 249.0281 478.8037 249.04585 478.80434 L 259.6897 479.19856 C 259.77603 479.20176 259.8624 479.20335 259.9488 479.20335 L 270.5578 479.20335 C 270.59874 479.20335 270.63967 479.2037 270.6806 479.20443 L 281.76702 479.39893 C 281.9351 479.4019 282.1032 479.3988 282.27106 479.3896 L 292.8923 478.8103 C 292.9769 478.80566 293.06157 478.8026 293.1463 478.80104 L 303.91085 478.6053 C 303.9831 478.604 304.0553 478.6016 304.12745 478.59803 L 316.14607 478.00695 C 316.19483 478.00455 316.24355 478.00165 316.29225 477.9982 L 327.5323 477.20945 C 327.59023 477.2054 327.6481 477.2006 327.70594 477.1951 L 340.1165 476.01313 C 340.18497 476.0066 340.25352 476.0011 340.32214 475.9966 L 352.25416 475.2142 C 352.36418 475.20696 352.474 475.19715 352.58355 475.18475 L 362.9959 474.006 C 363.01144 474.00423 363.02697 474.0024 363.0425 474.00056 L 372.9902 472.80683 C 373.00954 472.8045 373.02886 472.8021 373.04818 472.79963 L 386.88394 471.0221 C 386.98115 471.0096 387.0781 470.9951 387.1747 470.9785 L 393.7282 469.85506 C 393.92915 469.8206 394.13153 469.79495 394.33473 469.77817 L 397.56706 469.5112 C 398.4563 469.43775 399.3233 469.195 400.12135 468.79594 L 401.60765 468.0528 C 402.20824 467.7525 402.7625 467.36735 403.2534 466.9092 L 404.5885 465.6631 C 405.1953 465.0967 405.65073 464.3875 405.9132 463.6 L 406.20805 462.7155 C 406.2781 462.5053 406.33817 462.29187 406.388 462.07595 L 406.8577 460.04056 C 406.89293 459.8879 406.8595 459.7275 406.7662 459.6017 L 406.7662 459.6017 C 406.67587 459.4798 406.52523 459.4183 406.3754 459.44214 L 397.89555 460.7912 C 397.84466 460.7993 397.79385 460.80796 397.74315 460.8172 L 384.7584 463.17805 C 384.6656 463.1949 384.5725 463.2099 384.4791 463.223 L 373.24943 464.7991 C 373.2293 464.80194 373.20914 464.80486 373.189 464.80786 L 360.0199 466.7734 C 359.88613 466.79337 359.7518 466.80945 359.6171 466.82163 L 349.10874 467.7721 C 348.903 467.7907 348.69657 467.8002 348.49 467.80053 L 347.05605 467.80295 C 346.8982 467.8032 346.7404 467.8088 346.58293 467.81976 L 332.4531 468.801 C 332.4305 468.80257 332.4079 468.80403 332.3853 468.8054 L 319.08205 469.5996 C 319.04016 469.6021 318.99824 469.6042 318.9563 469.606 L 304.76485 470.1973 C 304.66776 470.20133 304.5706 470.20335 304.47344 470.20335 L 291.2192 470.20335 L 278.67753 470.20335 C 278.63865 470.20335 278.59976 470.2037 278.5609 470.2043 L 266.8025 470.4003 C 266.68032 470.40234 266.55812 470.4012 266.436 470.3968 L 255.6024 470.0099 C 255.4803 470.00554 255.3581 470.0044 255.2359 470.0064 L 243.52127 470.20165 C 243.45323 470.2028 243.38518 470.20293 243.31713 470.2021 L 227.61484 470.0058 C 227.48444 470.00417 227.3541 469.9989 227.224 469.99 L 212.91423 469.00986 C 212.85088 469.0055 212.7876 469.0003 212.7244 468.99426 L 198.23339 467.6047 C 198.22393 467.6038 198.21448 467.6029 198.20503 467.60194 L 184.393 466.22073 C 184.27715 466.20915 184.16162 466.1947 184.0465 466.17733 L 169.73735 464.02116 C 169.6586 464.0093 169.57964 463.99877 169.50052 463.9896 L 155.98059 462.42207 C 155.87301 462.4096 155.76574 462.3946 155.65886 462.3772 L 146.26677 460.8438 C 146.10178 460.81684 145.9378 460.784 145.77516 460.7453 L 136.69756 458.58654 C 136.30925 458.4942 135.91959 458.7341 135.82724 459.12244 C 135.82116 459.148 135.81647 459.1739 135.81321 459.2 Z" fill="url(#Obj_Gradient_6)"/>
      <path d="M 135.81321 459.2 L 135.81321 459.2 C 135.74753 459.7255 135.81036 460.25905 135.9963 460.7549 L 136.6473 462.4909 C 136.82406 462.96227 137.05115 463.4132 137.32462 463.8358 L 138.29243 465.33153 C 138.83339 466.16756 139.5465 466.87855 140.38412 467.417 L 141.46217 468.11005 C 141.76243 468.3031 142.077 468.47285 142.40316 468.6179 L 143.72001 469.2035 C 144.31654 469.46876 144.94725 469.6493 145.5938 469.7398 L 154.60421 471.00126 C 154.6142 471.00265 154.6242 471.00403 154.6342 471.0054 L 166.3502 472.594 C 166.3962 472.60024 166.44226 472.606 166.48838 472.61134 L 176.77131 473.7978 C 176.80324 473.8015 176.8352 473.805 176.86716 473.8082 L 190.57723 475.1991 C 190.60521 475.20193 190.63321 475.2046 190.66123 475.2071 L 201.76653 476.19865 C 201.80164 476.2018 201.83679 476.20466 201.87195 476.20726 L 212.55848 476.99886 C 212.59896 477.00185 212.63947 477.0045 212.68 477.0068 L 223.18798 477.6016 C 223.2088 477.60276 223.2296 477.60404 223.25042 477.6054 L 235.2932 478.3951 C 235.3772 478.4006 235.4613 478.4046 235.54543 478.40707 L 248.99256 478.80257 C 249.01032 478.8031 249.0281 478.8037 249.04585 478.80434 L 259.6897 479.19856 C 259.77603 479.20176 259.8624 479.20335 259.9488 479.20335 L 270.5578 479.20335 C 270.59874 479.20335 270.63967 479.2037 270.6806 479.20443 L 281.76702 479.39893 C 281.9351 479.4019 282.1032 479.3988 282.27106 479.3896 L 292.8923 478.8103 C 292.9769 478.80566 293.06157 478.8026 293.1463 478.80104 L 303.91085 478.6053 C 303.9831 478.604 304.0553 478.6016 304.12745 478.59803 L 316.14607 478.00695 C 316.19483 478.00455 316.24355 478.00165 316.29225 477.9982 L 327.5323 477.20945 C 327.59023 477.2054 327.6481 477.2006 327.70594 477.1951 L 340.1165 476.01313 C 340.18497 476.0066 340.25352 476.0011 340.32214 475.9966 L 352.25416 475.2142 C 352.36418 475.20696 352.474 475.19715 352.58355 475.18475 L 362.9959 474.006 C 363.01144 474.00423 363.02697 474.0024 363.0425 474.00056 L 372.9902 472.80683 C 373.00954 472.8045 373.02886 472.8021 373.04818 472.79963 L 386.88394 471.0221 C 386.98115 471.0096 387.0781 470.9951 387.1747 470.9785 L 393.7282 469.85506 C 393.92915 469.8206 394.13153 469.79495 394.33473 469.77817 L 397.56706 469.5112 C 398.4563 469.43775 399.3233 469.195 400.12135 468.79594 L 401.60765 468.0528 C 402.20824 467.7525 402.7625 467.36735 403.2534 466.9092 L 404.5885 465.6631 C 405.1953 465.0967 405.65073 464.3875 405.9132 463.6 L 406.20805 462.7155 C 406.2781 462.5053 406.33817 462.29187 406.388 462.07595 L 406.8577 460.04056 C 406.89293 459.8879 406.8595 459.7275 406.7662 459.6017 L 406.7662 459.6017 C 406.67587 459.4798 406.52523 459.4183 406.3754 459.44214 L 397.89555 460.7912 C 397.84466 460.7993 397.79385 460.80796 397.74315 460.8172 L 384.7584 463.17805 C 384.6656 463.1949 384.5725 463.2099 384.4791 463.223 L 373.24943 464.7991 C 373.2293 464.80194 373.20914 464.80486 373.189 464.80786 L 360.0199 466.7734 C 359.88613 466.79337 359.7518 466.80945 359.6171 466.82163 L 349.10874 467.7721 C 348.903 467.7907 348.69657 467.8002 348.49 467.80053 L 347.05605 467.80295 C 346.8982 467.8032 346.7404 467.8088 346.58293 467.81976 L 332.4531 468.801 C 332.4305 468.80257 332.4079 468.80403 332.3853 468.8054 L 319.08205 469.5996 C 319.04016 469.6021 318.99824 469.6042 318.9563 469.606 L 304.76485 470.1973 C 304.66776 470.20133 304.5706 470.20335 304.47344 470.20335 L 291.2192 470.20335 L 278.67753 470.20335 C 278.63865 470.20335 278.59976 470.2037 278.5609 470.2043 L 266.8025 470.4003 C 266.68032 470.40234 266.55812 470.4012 266.436 470.3968 L 255.6024 470.0099 C 255.4803 470.00554 255.3581 470.0044 255.2359 470.0064 L 243.52127 470.20165 C 243.45323 470.2028 243.38518 470.20293 243.31713 470.2021 L 227.61484 470.0058 C 227.48444 470.00417 227.3541 469.9989 227.224 469.99 L 212.91423 469.00986 C 212.85088 469.0055 212.7876 469.0003 212.7244 468.99426 L 198.23339 467.6047 C 198.22393 467.6038 198.21448 467.6029 198.20503 467.60194 L 184.393 466.22073 C 184.27715 466.20915 184.16162 466.1947 184.0465 466.17733 L 169.73735 464.02116 C 169.6586 464.0093 169.57964 463.99877 169.50052 463.9896 L 155.98059 462.42207 C 155.87301 462.4096 155.76574 462.3946 155.65886 462.3772 L 146.26677 460.8438 C 146.10178 460.81684 145.9378 460.784 145.77516 460.7453 L 136.69756 458.58654 C 136.30925 458.4942 135.91959 458.7341 135.82724 459.12244 C 135.82116 459.148 135.81647 459.1739 135.81321 459.2 Z" stroke="#7f8080" stroke-linecap="round" stroke-linejoin="round" stroke-width="1"/>
      <path d="M 429.78794 74.99355 L 417.78794 67.94944 L 407.98794 64.19355 L 407.78794 64.19355 L 397.9742 60.59355 L 385.18794 56.99355 L 383.78794 56.94944 L 135.78794 457.94944 L 149.78794 460.94944 L 162.17421 462.99356 L 166.57421 463.79356 L 180.37421 465.79356 L 192.3742 466.99356 L 201.3742 466.99356 L 202.78794 466.94944 Z" fill="url(#Obj_Gradient_7)"/>
      <path d="M 429.78794 74.99355 L 417.78794 67.94944 L 407.98794 64.19355 L 407.78794 64.19355 L 397.9742 60.59355 L 385.18794 56.99355 L 383.78794 56.94944 L 135.78794 457.94944 L 149.78794 460.94944 L 162.17421 462.99356 L 166.57421 463.79356 L 180.37421 465.79356 L 192.3742 466.99356 L 201.3742 466.99356 L 202.78794 466.94944 Z" stroke="white" stroke-linecap="round" stroke-linejoin="round" stroke-width="0"/>
      <path d="M 136 458.19355 L 153 461.19355 L 173 463.19355 L 408 64.19355 L 396 60.19355 L 384 56.19355 Z" fill="#00003a"/>
      <path d="M 136 458.19355 L 153 461.19355 L 173 463.19355 L 408 64.19355 L 396 60.19355 L 384 56.19355 Z" stroke="#7f8080" stroke-linecap="round" stroke-linejoin="round" stroke-width="1"/>
    </g>
  </g>
</svg>
