<?xml version="1.0" encoding="UTF-8" standalone="no"?>
<!DOCTYPE svg PUBLIC "-//W3C//DTD SVG 1.1//EN" "http://www.w3.org/Graphics/SVG/1.1/DTD/svg11.dtd">
<svg xmlns="http://www.w3.org/2000/svg" xmlns:xl="http://www.w3.org/1999/xlink" version="1.1" viewBox="-222.5 -220.5 432.4053 448.4" width="432.4053pt" height="448.4pt" xmlns:dc="http://purl.org/dc/elements/1.1/">
  <metadata> Produced by OmniGraffle 7.6.1 
    <dc:date>2019-04-23 15:02:20 +0000</dc:date>
  </metadata>
  <defs>
    <radialGradient cx="0" cy="0" r="1" id="Gradient" gradientUnits="userSpaceOnUse">
      <stop offset="0" stop-color="#cbcbcb"/>
      <stop offset="1" stop-color="#843918"/>
    </radialGradient>
    <radialGradient id="Obj_Gradient" xl:href="#Gradient" gradientTransform="translate(-7.2407515 -192.6) scale(70.26272)"/>
    <radialGradient cx="0" cy="0" r="1" id="Gradient_2" gradientUnits="userSpaceOnUse">
      <stop offset="0" stop-color="#929000"/>
      <stop offset="1" stop-color="#929000"/>
    </radialGradient>
    <radialGradient id="Obj_Gradient_2" xl:href="#Gradient_2" gradientTransform="translate(-179.8 -56.753854) scale(46.03694)"/>
    <radialGradient id="Obj_Gradient_3" xl:href="#Gradient_2" gradientTransform="translate(167.20529 -57.69725) scale(46.03694)"/>
    <linearGradient x1="0" x2="1" id="Gradient_3" gradientUnits="userSpaceOnUse">
      <stop offset="0" stop-color="#929000"/>
      <stop offset="1" stop-color="#333"/>
    </linearGradient>
    <linearGradient id="Obj_Gradient_4" xl:href="#Gradient_3" gradientTransform="translate(-7.9407515 -219.2441) rotate(90) scale(25)"/>
    <radialGradient cx="0" cy="0" r="1" id="Gradient_4" gradientUnits="userSpaceOnUse">
      <stop offset="0" stop-color="#929000"/>
      <stop offset="1" stop-color="#333"/>
    </radialGradient>
    <radialGradient id="Obj_Gradient_5" xl:href="#Gradient_4" gradientTransform="translate(-7.213029 -185.64469) scale(83.83496)"/>
    <radialGradient cx="0" cy="0" r="1" id="Gradient_5" gradientUnits="userSpaceOnUse">
      <stop offset="0" stop-color="black"/>
      <stop offset="1" stop-color="black"/>
    </radialGradient>
    <radialGradient id="Obj_Gradient_6" xl:href="#Gradient_5" gradientTransform="translate(-6.670323 216.98339) scale(135.94141)"/>
  </defs>
  <g stroke="none" stroke-opacity="1" stroke-dasharray="none" fill="none" fill-opacity="1">
    <title>LAFC</title>
    <g>
      <title>Capa 1</title>
      <path d="M -68.994346 -219.40955 L -60.828894 -216.29184 C -59.9709 -215.96424 -59.09406 -215.68833 -58.20308 -215.46558 L -44.4859 -212.03629 C -43.32424 -211.74587 -42.14168 -211.54662 -40.948995 -211.44034 L -23.422848 -209.8786 C -22.835002 -209.82622 -22.245357 -209.79648 -21.655222 -209.78946 L -6.176305 -209.60519 C -5.885962 -209.60173 -5.5955795 -209.60377 -5.305314 -209.6113 L 9.117999 -209.98594 C 9.478782 -209.9953 9.839295 -210.01317 10.199238 -210.0395 L 24.57053 -211.09107 C 25.561967 -211.16361 26.547657 -211.30036 27.5214 -211.50044 L 39.094364 -213.87845 C 40.136366 -214.09256 41.16226 -214.3787 42.16465 -214.73481 L 53.916645 -218.90986 C 55.007016 -219.29723 56.210215 -218.76646 56.65925 -217.7 L 56.65925 -217.7 C 57.1814 -216.4599 57.33338 -215.09515 57.09685 -213.77055 L 56.91637 -212.75986 C 56.61259 -211.0587 56.11806 -209.3972 55.442145 -207.8068 L 53.89892 -204.1757 C 53.34035 -202.86142 52.6606 -201.60202 51.868464 -200.41382 L 48.182683 -194.88515 C 47.435173 -193.76389 46.590567 -192.71049 45.65861 -191.7371 L 39.363544 -185.16226 C 38.49547 -184.2556 37.554634 -183.42154 36.55046 -182.6684 L 28.175555 -176.38723 C 27.299138 -175.72992 26.376877 -175.13606 25.415817 -174.6102 L 18.230617 -170.67867 C 16.919493 -169.96126 15.541565 -169.37336 14.116375 -168.9233 L 7.443466 -166.81607 C 5.726593 -166.2739 3.9519965 -165.9352 2.1561268 -165.80692 L -4.730325 -165.31503 C -5.802623 -165.23844 -6.878972 -165.23712 -7.951455 -165.31108 L -16.387713 -165.8929 C -17.421889 -165.96422 -18.45006 -166.10537 -19.465194 -166.3154 L -26.6004 -167.79165 C -28.552352 -168.1955 -30.443526 -168.85139 -32.226382 -169.74281 L -36.88579 -172.07252 C -38.11993 -172.68959 -39.296033 -173.41646 -40.39988 -174.24434 L -46.081837 -178.50581 C -46.520973 -178.83517 -46.94818 -179.18013 -47.36263 -179.54005 L -53.11781 -184.53797 C -53.9321 -185.24511 -54.69564 -186.00865 -55.40278 -186.82294 L -59.808005 -191.89562 C -60.56211 -192.76398 -61.250016 -193.68768 -61.86594 -194.65895 L -65.59964 -200.5467 C -65.96021 -201.1153 -66.295635 -201.69944 -66.60495 -202.29745 L -68.225325 -205.43017 C -68.83447 -206.60785 -69.34064 -207.836 -69.738175 -209.1009 L -71.01841 -213.17438 C -71.23319 -213.85775 -71.41592 -214.5508 -71.56601 -215.25122 L -71.64075 -215.6 C -71.835415 -216.50843 -71.72815 -217.45557 -71.33527 -218.29746 L -71.24075 -218.5 C -70.846276 -219.3453 -69.865805 -219.7423 -68.994346 -219.40955 Z" fill="url(#Obj_Gradient)"/>
      <path d="M -68.994346 -219.40955 L -60.828894 -216.29184 C -59.9709 -215.96424 -59.09406 -215.68833 -58.20308 -215.46558 L -44.4859 -212.03629 C -43.32424 -211.74587 -42.14168 -211.54662 -40.948995 -211.44034 L -23.422848 -209.8786 C -22.835002 -209.82622 -22.245357 -209.79648 -21.655222 -209.78946 L -6.176305 -209.60519 C -5.885962 -209.60173 -5.5955795 -209.60377 -5.305314 -209.6113 L 9.117999 -209.98594 C 9.478782 -209.9953 9.839295 -210.01317 10.199238 -210.0395 L 24.57053 -211.09107 C 25.561967 -211.16361 26.547657 -211.30036 27.5214 -211.50044 L 39.094364 -213.87845 C 40.136366 -214.09256 41.16226 -214.3787 42.16465 -214.73481 L 53.916645 -218.90986 C 55.007016 -219.29723 56.210215 -218.76646 56.65925 -217.7 L 56.65925 -217.7 C 57.1814 -216.4599 57.33338 -215.09515 57.09685 -213.77055 L 56.91637 -212.75986 C 56.61259 -211.0587 56.11806 -209.3972 55.442145 -207.8068 L 53.89892 -204.1757 C 53.34035 -202.86142 52.6606 -201.60202 51.868464 -200.41382 L 48.182683 -194.88515 C 47.435173 -193.76389 46.590567 -192.71049 45.65861 -191.7371 L 39.363544 -185.16226 C 38.49547 -184.2556 37.554634 -183.42154 36.55046 -182.6684 L 28.175555 -176.38723 C 27.299138 -175.72992 26.376877 -175.13606 25.415817 -174.6102 L 18.230617 -170.67867 C 16.919493 -169.96126 15.541565 -169.37336 14.116375 -168.9233 L 7.443466 -166.81607 C 5.726593 -166.2739 3.9519965 -165.9352 2.1561268 -165.80692 L -4.730325 -165.31503 C -5.802623 -165.23844 -6.878972 -165.23712 -7.951455 -165.31108 L -16.387713 -165.8929 C -17.421889 -165.96422 -18.45006 -166.10537 -19.465194 -166.3154 L -26.6004 -167.79165 C -28.552352 -168.1955 -30.443526 -168.85139 -32.226382 -169.74281 L -36.88579 -172.07252 C -38.11993 -172.68959 -39.296033 -173.41646 -40.39988 -174.24434 L -46.081837 -178.50581 C -46.520973 -178.83517 -46.94818 -179.18013 -47.36263 -179.54005 L -53.11781 -184.53797 C -53.9321 -185.24511 -54.69564 -186.00865 -55.40278 -186.82294 L -59.808005 -191.89562 C -60.56211 -192.76398 -61.250016 -193.68768 -61.86594 -194.65895 L -65.59964 -200.5467 C -65.96021 -201.1153 -66.295635 -201.69944 -66.60495 -202.29745 L -68.225325 -205.43017 C -68.83447 -206.60785 -69.34064 -207.836 -69.738175 -209.1009 L -71.01841 -213.17438 C -71.23319 -213.85775 -71.41592 -214.5508 -71.56601 -215.25122 L -71.64075 -215.6 C -71.835415 -216.50843 -71.72815 -217.45557 -71.33527 -218.29746 L -71.24075 -218.5 C -70.846276 -219.3453 -69.865805 -219.7423 -68.994346 -219.40955 Z" stroke="#7f8080" stroke-linecap="round" stroke-linejoin="round" stroke-width="1"/>
      <path d="M -133.02654 217.26379 L -119.2843 219.55416 C -119.10093 219.58472 -118.91703 219.61209 -118.7327 219.63624 L -90.37906 223.35154 C -90.13253 223.38385 -89.88528 223.4104 -89.63752 223.43118 L -59.39463 225.96768 C -59.137726 225.98923 -58.88034 226.00456 -58.62269 226.01367 L -19.69178 227.39002 C -19.50342 227.39668 -19.314955 227.4 -19.126477 227.4 L 12.340845 227.4 C 12.50746 227.4 12.674066 227.3974 12.8406 227.3922 L 37.875388 226.60986 C 38.08563 226.6033 38.295725 226.59258 38.505547 226.57772 L 60.5533 225.01682 C 60.711614 225.0056 60.86975 224.99205 61.02766 224.97614 L 86.28815 222.4305 C 86.48989 222.41017 86.69122 222.386 86.89204 222.35803 L 110.68474 219.04265 C 110.88875 219.01422 111.0922 218.98186 111.29496 218.94558 L 120.49079 217.3 C 125.81789 216.34674 129.46876 211.3931 128.80234 206.02255 L 126.59475 188.23198 C 126.59211 188.21066 126.5895 188.18934 126.58695 188.16801 L 123.02312 158.46949 C 123.00157 158.28985 122.98306 158.10985 122.9676 157.92958 L 120.60539 130.37037 C 120.59565 130.2568 120.58713 130.14312 120.57983 130.02936 L 119.19321 108.43772 C 119.19159 108.41258 119.18992 108.38744 119.18818 108.3623 L 117.59603 85.27599 C 117.59253 85.22533 117.58928 85.17466 117.58627 85.12398 L 116.4099 65.32181 C 116.39716 65.10729 116.38874 64.892545 116.38465 64.67769 L 115.99236 44.082853 C 115.99131 44.02762 115.98997 43.972394 115.98835 43.917175 L 115.39322 23.682832 C 115.3916 23.627614 115.39026 23.572387 115.38921 23.517154 L 114.99855 3.0076126 C 114.99337 2.7359172 114.99512 2.464134 115.00379 2.1925275 L 115.58973 -16.167083 C 115.59044 -16.189025 115.59118 -16.210967 115.59197 -16.232907 L 116.38005 -38.102215 C 116.38721 -38.30072 116.39806 -38.499073 116.4126 -38.697174 L 117.97007 -59.91779 C 117.98388 -60.105914 117.99436 -60.294266 118.0015 -60.48276 L 118.75596 -80.38163 C 118.77915 -80.99337 118.83744 -81.60328 118.93052 -82.20835 L 121.66953 -100.01187 C 121.75031 -100.53696 121.8572 -101.05771 121.98979 -101.57217 L 126.61806 -119.52983 C 126.73316 -119.9764 126.8675 -120.41779 127.02073 -120.85275 L 132.74152 -137.0924 C 132.9076 -137.56387 133.0957 -138.0273 133.30517 -138.48117 L 138.83673 -150.46621 C 138.93942 -150.6887 139.0472 -150.90881 139.16 -151.12636 L 144.52223 -161.46778 C 144.56793 -161.55593 144.61446 -161.64364 144.6618 -161.73092 L 149.87777 -171.34788 C 150.61505 -172.70724 151.56468 -173.94013 152.69079 -175 L 152.69079 -175 C 153.36598 -175.63547 153.39817 -176.69797 152.7627 -177.37316 C 152.6382 -177.50544 152.49307 -177.61663 152.33295 -177.70241 L 149.11881 -179.42427 C 148.90016 -179.5414 148.6788 -179.65344 148.45494 -179.76029 L 140.60097 -183.50878 C 140.19436 -183.70284 139.77974 -183.87964 139.35821 -184.0387 L 129.68338 -187.68959 C 129.48833 -187.76319 129.29187 -187.83297 129.0941 -187.8989 L 116.39963 -192.13038 C 116.2604 -192.1768 116.12055 -192.22128 115.9801 -192.26384 L 103.09658 -196.16794 C 103.02605 -196.18931 102.95567 -196.21117 102.88544 -196.23352 L 90.38144 -200.21206 C 89.98782 -200.3373 89.59919 -200.47775 89.21643 -200.63307 L 77.24049 -205.49287 C 76.40883 -205.83036 75.60704 -206.23723 74.8436 -206.70917 L 65.224355 -212.6556 C 65.06865 -212.75186 64.91461 -212.85078 64.762306 -212.95232 L 59.87221 -216.21238 C 58.890814 -216.86665 58.0195 -217.67255 57.290784 -218.6 L 57.290784 -218.6 C 57.18518 -218.7344 56.990616 -218.75775 56.85621 -218.65215 C 56.75347 -218.57142 56.71249 -218.43487 56.75381 -218.31092 L 56.890784 -217.9 C 57.350035 -216.52225 57.454596 -215.05096 57.194805 -213.6221 L 56.799665 -211.44885 C 56.528455 -209.95719 56.04661 -208.51165 55.36858 -207.1556 L 53.836264 -204.09096 C 53.539565 -203.49756 53.206245 -202.9232 52.838234 -202.37117 L 49.63453 -197.56562 C 49.20593 -196.92272 48.73132 -196.3117 48.21443 -195.73739 L 43.652385 -190.66844 C 43.61132 -190.62281 43.56999 -190.57742 43.5284 -190.53227 L 37.534165 -184.02424 C 36.90643 -183.3427 36.22068 -182.71698 35.484645 -182.15413 L 30.46047 -178.31211 C 30.014322 -177.97094 29.55052 -177.6535 29.070988 -177.3611 L 22.584582 -173.40597 C 21.922924 -173.00252 21.23283 -172.64768 20.519746 -172.34424 L 13.404335 -169.3164 C 12.59667 -168.97272 11.762094 -168.69607 10.909053 -168.48928 L 6.8299944 -167.50041 C 6.0051614 -167.30045 5.1657257 -167.16644 4.319634 -167.09965 L -1.3805747 -166.64963 C -1.7995066 -166.61656 -2.219579 -166.6 -2.6398144 -166.6 L -9.672132 -166.6 C -10.429234 -166.6 -11.185381 -166.65374 -11.934873 -166.7608 L -19.88132 -167.89601 C -20.36633 -167.9653 -20.847899 -168.05683 -21.324508 -168.1703 L -27.285736 -169.58965 C -28.431223 -169.86238 -29.543102 -170.26073 -30.601172 -170.77747 L -36.881176 -173.84444 C -37.366226 -174.08133 -37.838977 -174.3426 -38.297617 -174.62728 L -42.50948 -177.24154 C -43.10865 -177.61344 -43.682576 -178.02454 -44.227505 -178.47216 L -48.67361 -182.12432 C -48.89731 -182.30807 -49.115976 -182.49786 -49.329374 -182.69348 L -53.131717 -186.17896 C -53.58301 -186.59264 -54.01019 -187.0319 -54.41115 -187.49454 L -58.529894 -192.24693 C -58.849276 -192.61545 -59.15164 -192.99838 -59.43605 -193.39451 L -63.8657 -199.5644 C -64.360595 -200.2537 -64.799866 -200.9813 -65.17936 -201.74028 L -67.75582 -206.8932 C -67.79142 -206.9644 -67.82648 -207.03586 -67.86101 -207.10758 L -69.10922 -209.7 C -69.95993 -211.46687 -70.31545 -213.4314 -70.13791 -215.38436 L -69.95771 -217.36661 C -69.9339 -217.62848 -70.126884 -217.86006 -70.38875 -217.88386 C -70.55114 -217.89862 -70.709795 -217.82925 -70.80922 -217.7 L -70.80922 -217.7 C -71.47266 -216.83752 -72.25277 -216.07144 -73.12715 -215.42375 L -77.02368 -212.53743 C -77.14737 -212.44582 -77.272365 -212.356 -77.39864 -212.26798 L -82.02089 -209.0464 C -83.20763 -208.2193 -84.50105 -207.55692 -85.8658 -207.07742 L -90.47292 -205.4587 C -90.9635 -205.28633 -91.44537 -205.09016 -91.91684 -204.87087 L -98.76362 -201.68632 C -99.45978 -201.36253 -100.17835 -201.08926 -100.91375 -200.86864 L -111.78414 -197.60752 C -111.80086 -197.6025 -111.81757 -197.59746 -111.83428 -197.5924 L -122.80236 -194.2628 C -122.94026 -194.22093 -123.07759 -194.1772 -123.2143 -194.13164 L -136.13554 -189.82456 C -136.18466 -189.80819 -136.23386 -189.79205 -136.28314 -189.77616 L -147.65054 -186.10925 C -148.28903 -185.90329 -148.91393 -185.65737 -149.52154 -185.37296 L -157.4535 -181.66012 C -157.82384 -181.48677 -158.1874 -181.29929 -158.54338 -181.09808 L -164.4895 -177.73724 C -165.74253 -177.029 -166.18417 -175.43907 -165.47594 -174.18604 C -165.39882 -174.0496 -165.30955 -173.9204 -165.20922 -173.8 L -164.3451 -172.76307 C -163.59016 -171.85713 -162.93769 -170.87051 -162.39957 -169.82118 L -159.32243 -163.82076 C -159.24696 -163.6736 -159.16921 -163.5276 -159.08922 -163.38285 L -155.13446 -156.22663 C -155.05097 -156.07555 -154.96993 -155.92313 -154.89137 -155.76943 L -150.78307 -147.73144 C -150.534 -147.24413 -150.3101 -146.74437 -150.11224 -146.23411 L -146.62947 -137.25224 C -146.61597 -137.21741 -146.60235 -137.18263 -146.5886 -137.1479 L -142.99228 -128.06246 C -142.87027 -127.75423 -142.75787 -127.44228 -142.65524 -127.12706 L -140.0334 -119.07428 C -140.01728 -119.02476 -140.0014 -118.97516 -139.98576 -118.92548 L -136.91371 -109.16721 C -136.71092 -108.52305 -136.54911 -107.8667 -136.42927 -107.20208 L -134.44395 -96.19263 C -134.4208 -96.06421 -134.39921 -95.93552 -134.3792 -95.80658 L -132.67334 -84.81319 C -132.6306 -84.53778 -132.59506 -84.26129 -132.56677 -83.98402 L -131.67935 -75.2873 C -131.63262 -74.82931 -131.60567 -74.36952 -131.59859 -73.90921 L -131.41435 -61.933586 C -131.41093 -61.71122 -131.40287 -61.488946 -131.39019 -61.26691 L -130.61981 -47.78535 C -130.61275 -47.661786 -130.60425 -47.538307 -130.59433 -47.41494 L -129.26076 -30.840567 C -129.22641 -30.413692 -129.20922 -29.98561 -129.20922 -29.557357 L -129.20922 -17.107576 C -129.20922 -16.902542 -129.20528 -16.697528 -129.1974 -16.492646 L -128.61705 -1.4035077 C -128.61183 -1.2678392 -128.60834 -1.1321098 -128.60657 -.9963525 L -128.41441 13.799903 C -128.41095 14.066595 -128.41416 14.333332 -128.42403 14.599864 L -128.99826 30.104012 C -129.00556 30.301323 -129.00922 30.498752 -129.00922 30.6962 L -129.00922 44.292425 C -129.00922 44.49746 -129.01316 44.702473 -129.02104 44.907355 L -129.60623 60.12236 C -129.60822 60.17412 -129.61047 60.225876 -129.61296 60.27762 L -130.40828 76.78055 C -130.4089 76.79352 -130.40955 76.80649 -130.4102 76.81945 L -131.2047 92.51062 C -131.20771 92.57021 -131.21106 92.62978 -131.21474 92.68933 L -132.40366 111.91007 C -132.40736 111.97003 -132.41141 112.02996 -132.4158 112.08987 L -134.19893 136.45942 C -134.20579 136.55314 -134.21347 136.6468 -134.22198 136.74038 L -136.00787 156.3852 C -136.00877 156.39507 -136.00968 156.40494 -136.0106 156.41481 L -137.78136 175.49972 C -137.79993 175.6999 -137.82227 175.8997 -137.84838 176.09903 L -139.80909 191.07175 C -139.9419 192.08594 -140.21104 193.07756 -140.60922 194.01973 L -140.60922 194.01973 C -141.0068 194.96048 -141.25546 195.9574 -141.34629 196.97465 L -142.10922 205.51973 C -142.61698 211.20676 -138.65851 216.32512 -133.02654 217.26379 Z" fill="black"/>
      <path d="M -133.02654 217.26379 L -119.2843 219.55416 C -119.10093 219.58472 -118.91703 219.61209 -118.7327 219.63624 L -90.37906 223.35154 C -90.13253 223.38385 -89.88528 223.4104 -89.63752 223.43118 L -59.39463 225.96768 C -59.137726 225.98923 -58.88034 226.00456 -58.62269 226.01367 L -19.69178 227.39002 C -19.50342 227.39668 -19.314955 227.4 -19.126477 227.4 L 12.340845 227.4 C 12.50746 227.4 12.674066 227.3974 12.8406 227.3922 L 37.875388 226.60986 C 38.08563 226.6033 38.295725 226.59258 38.505547 226.57772 L 60.5533 225.01682 C 60.711614 225.0056 60.86975 224.99205 61.02766 224.97614 L 86.28815 222.4305 C 86.48989 222.41017 86.69122 222.386 86.89204 222.35803 L 110.68474 219.04265 C 110.88875 219.01422 111.0922 218.98186 111.29496 218.94558 L 120.49079 217.3 C 125.81789 216.34674 129.46876 211.3931 128.80234 206.02255 L 126.59475 188.23198 C 126.59211 188.21066 126.5895 188.18934 126.58695 188.16801 L 123.02312 158.46949 C 123.00157 158.28985 122.98306 158.10985 122.9676 157.92958 L 120.60539 130.37037 C 120.59565 130.2568 120.58713 130.14312 120.57983 130.02936 L 119.19321 108.43772 C 119.19159 108.41258 119.18992 108.38744 119.18818 108.3623 L 117.59603 85.27599 C 117.59253 85.22533 117.58928 85.17466 117.58627 85.12398 L 116.4099 65.32181 C 116.39716 65.10729 116.38874 64.892545 116.38465 64.67769 L 115.99236 44.082853 C 115.99131 44.02762 115.98997 43.972394 115.98835 43.917175 L 115.39322 23.682832 C 115.3916 23.627614 115.39026 23.572387 115.38921 23.517154 L 114.99855 3.0076126 C 114.99337 2.7359172 114.99512 2.464134 115.00379 2.1925275 L 115.58973 -16.167083 C 115.59044 -16.189025 115.59118 -16.210967 115.59197 -16.232907 L 116.38005 -38.102215 C 116.38721 -38.30072 116.39806 -38.499073 116.4126 -38.697174 L 117.97007 -59.91779 C 117.98388 -60.105914 117.99436 -60.294266 118.0015 -60.48276 L 118.75596 -80.38163 C 118.77915 -80.99337 118.83744 -81.60328 118.93052 -82.20835 L 121.66953 -100.01187 C 121.75031 -100.53696 121.8572 -101.05771 121.98979 -101.57217 L 126.61806 -119.52983 C 126.73316 -119.9764 126.8675 -120.41779 127.02073 -120.85275 L 132.74152 -137.0924 C 132.9076 -137.56387 133.0957 -138.0273 133.30517 -138.48117 L 138.83673 -150.46621 C 138.93942 -150.6887 139.0472 -150.90881 139.16 -151.12636 L 144.52223 -161.46778 C 144.56793 -161.55593 144.61446 -161.64364 144.6618 -161.73092 L 149.87777 -171.34788 C 150.61505 -172.70724 151.56468 -173.94013 152.69079 -175 L 152.69079 -175 C 153.36598 -175.63547 153.39817 -176.69797 152.7627 -177.37316 C 152.6382 -177.50544 152.49307 -177.61663 152.33295 -177.70241 L 149.11881 -179.42427 C 148.90016 -179.5414 148.6788 -179.65344 148.45494 -179.76029 L 140.60097 -183.50878 C 140.19436 -183.70284 139.77974 -183.87964 139.35821 -184.0387 L 129.68338 -187.68959 C 129.48833 -187.76319 129.29187 -187.83297 129.0941 -187.8989 L 116.39963 -192.13038 C 116.2604 -192.1768 116.12055 -192.22128 115.9801 -192.26384 L 103.09658 -196.16794 C 103.02605 -196.18931 102.95567 -196.21117 102.88544 -196.23352 L 90.38144 -200.21206 C 89.98782 -200.3373 89.59919 -200.47775 89.21643 -200.63307 L 77.24049 -205.49287 C 76.40883 -205.83036 75.60704 -206.23723 74.8436 -206.70917 L 65.224355 -212.6556 C 65.06865 -212.75186 64.91461 -212.85078 64.762306 -212.95232 L 59.87221 -216.21238 C 58.890814 -216.86665 58.0195 -217.67255 57.290784 -218.6 L 57.290784 -218.6 C 57.18518 -218.7344 56.990616 -218.75775 56.85621 -218.65215 C 56.75347 -218.57142 56.71249 -218.43487 56.75381 -218.31092 L 56.890784 -217.9 C 57.350035 -216.52225 57.454596 -215.05096 57.194805 -213.6221 L 56.799665 -211.44885 C 56.528455 -209.95719 56.04661 -208.51165 55.36858 -207.1556 L 53.836264 -204.09096 C 53.539565 -203.49756 53.206245 -202.9232 52.838234 -202.37117 L 49.63453 -197.56562 C 49.20593 -196.92272 48.73132 -196.3117 48.21443 -195.73739 L 43.652385 -190.66844 C 43.61132 -190.62281 43.56999 -190.57742 43.5284 -190.53227 L 37.534165 -184.02424 C 36.90643 -183.3427 36.22068 -182.71698 35.484645 -182.15413 L 30.46047 -178.31211 C 30.014322 -177.97094 29.55052 -177.6535 29.070988 -177.3611 L 22.584582 -173.40597 C 21.922924 -173.00252 21.23283 -172.64768 20.519746 -172.34424 L 13.404335 -169.3164 C 12.59667 -168.97272 11.762094 -168.69607 10.909053 -168.48928 L 6.8299944 -167.50041 C 6.0051614 -167.30045 5.1657257 -167.16644 4.319634 -167.09965 L -1.3805747 -166.64963 C -1.7995066 -166.61656 -2.219579 -166.6 -2.6398144 -166.6 L -9.672132 -166.6 C -10.429234 -166.6 -11.185381 -166.65374 -11.934873 -166.7608 L -19.88132 -167.89601 C -20.36633 -167.9653 -20.847899 -168.05683 -21.324508 -168.1703 L -27.285736 -169.58965 C -28.431223 -169.86238 -29.543102 -170.26073 -30.601172 -170.77747 L -36.881176 -173.84444 C -37.366226 -174.08133 -37.838977 -174.3426 -38.297617 -174.62728 L -42.50948 -177.24154 C -43.10865 -177.61344 -43.682576 -178.02454 -44.227505 -178.47216 L -48.67361 -182.12432 C -48.89731 -182.30807 -49.115976 -182.49786 -49.329374 -182.69348 L -53.131717 -186.17896 C -53.58301 -186.59264 -54.01019 -187.0319 -54.41115 -187.49454 L -58.529894 -192.24693 C -58.849276 -192.61545 -59.15164 -192.99838 -59.43605 -193.39451 L -63.8657 -199.5644 C -64.360595 -200.2537 -64.799866 -200.9813 -65.17936 -201.74028 L -67.75582 -206.8932 C -67.79142 -206.9644 -67.82648 -207.03586 -67.86101 -207.10758 L -69.10922 -209.7 C -69.95993 -211.46687 -70.31545 -213.4314 -70.13791 -215.38436 L -69.95771 -217.36661 C -69.9339 -217.62848 -70.126884 -217.86006 -70.38875 -217.88386 C -70.55114 -217.89862 -70.709795 -217.82925 -70.80922 -217.7 L -70.80922 -217.7 C -71.47266 -216.83752 -72.25277 -216.07144 -73.12715 -215.42375 L -77.02368 -212.53743 C -77.14737 -212.44582 -77.272365 -212.356 -77.39864 -212.26798 L -82.02089 -209.0464 C -83.20763 -208.2193 -84.50105 -207.55692 -85.8658 -207.07742 L -90.47292 -205.4587 C -90.9635 -205.28633 -91.44537 -205.09016 -91.91684 -204.87087 L -98.76362 -201.68632 C -99.45978 -201.36253 -100.17835 -201.08926 -100.91375 -200.86864 L -111.78414 -197.60752 C -111.80086 -197.6025 -111.81757 -197.59746 -111.83428 -197.5924 L -122.80236 -194.2628 C -122.94026 -194.22093 -123.07759 -194.1772 -123.2143 -194.13164 L -136.13554 -189.82456 C -136.18466 -189.80819 -136.23386 -189.79205 -136.28314 -189.77616 L -147.65054 -186.10925 C -148.28903 -185.90329 -148.91393 -185.65737 -149.52154 -185.37296 L -157.4535 -181.66012 C -157.82384 -181.48677 -158.1874 -181.29929 -158.54338 -181.09808 L -164.4895 -177.73724 C -165.74253 -177.029 -166.18417 -175.43907 -165.47594 -174.18604 C -165.39882 -174.0496 -165.30955 -173.9204 -165.20922 -173.8 L -164.3451 -172.76307 C -163.59016 -171.85713 -162.93769 -170.87051 -162.39957 -169.82118 L -159.32243 -163.82076 C -159.24696 -163.6736 -159.16921 -163.5276 -159.08922 -163.38285 L -155.13446 -156.22663 C -155.05097 -156.07555 -154.96993 -155.92313 -154.89137 -155.76943 L -150.78307 -147.73144 C -150.534 -147.24413 -150.3101 -146.74437 -150.11224 -146.23411 L -146.62947 -137.25224 C -146.61597 -137.21741 -146.60235 -137.18263 -146.5886 -137.1479 L -142.99228 -128.06246 C -142.87027 -127.75423 -142.75787 -127.44228 -142.65524 -127.12706 L -140.0334 -119.07428 C -140.01728 -119.02476 -140.0014 -118.97516 -139.98576 -118.92548 L -136.91371 -109.16721 C -136.71092 -108.52305 -136.54911 -107.8667 -136.42927 -107.20208 L -134.44395 -96.19263 C -134.4208 -96.06421 -134.39921 -95.93552 -134.3792 -95.80658 L -132.67334 -84.81319 C -132.6306 -84.53778 -132.59506 -84.26129 -132.56677 -83.98402 L -131.67935 -75.2873 C -131.63262 -74.82931 -131.60567 -74.36952 -131.59859 -73.90921 L -131.41435 -61.933586 C -131.41093 -61.71122 -131.40287 -61.488946 -131.39019 -61.26691 L -130.61981 -47.78535 C -130.61275 -47.661786 -130.60425 -47.538307 -130.59433 -47.41494 L -129.26076 -30.840567 C -129.22641 -30.413692 -129.20922 -29.98561 -129.20922 -29.557357 L -129.20922 -17.107576 C -129.20922 -16.902542 -129.20528 -16.697528 -129.1974 -16.492646 L -128.61705 -1.4035077 C -128.61183 -1.2678392 -128.60834 -1.1321098 -128.60657 -.9963525 L -128.41441 13.799903 C -128.41095 14.066595 -128.41416 14.333332 -128.42403 14.599864 L -128.99826 30.104012 C -129.00556 30.301323 -129.00922 30.498752 -129.00922 30.6962 L -129.00922 44.292425 C -129.00922 44.49746 -129.01316 44.702473 -129.02104 44.907355 L -129.60623 60.12236 C -129.60822 60.17412 -129.61047 60.225876 -129.61296 60.27762 L -130.40828 76.78055 C -130.4089 76.79352 -130.40955 76.80649 -130.4102 76.81945 L -131.2047 92.51062 C -131.20771 92.57021 -131.21106 92.62978 -131.21474 92.68933 L -132.40366 111.91007 C -132.40736 111.97003 -132.41141 112.02996 -132.4158 112.08987 L -134.19893 136.45942 C -134.20579 136.55314 -134.21347 136.6468 -134.22198 136.74038 L -136.00787 156.3852 C -136.00877 156.39507 -136.00968 156.40494 -136.0106 156.41481 L -137.78136 175.49972 C -137.79993 175.6999 -137.82227 175.8997 -137.84838 176.09903 L -139.80909 191.07175 C -139.9419 192.08594 -140.21104 193.07756 -140.60922 194.01973 L -140.60922 194.01973 C -141.0068 194.96048 -141.25546 195.9574 -141.34629 196.97465 L -142.10922 205.51973 C -142.61698 211.20676 -138.65851 216.32512 -133.02654 217.26379 Z" stroke="#7f8080" stroke-linecap="round" stroke-linejoin="round" stroke-width="1"/>
      <path d="M -222 -68.553854 L -215.8 -64.153854 L -207.6 -60.153854 L -199 -56.553854 L -190 -52.753854 L -179 -48.753854 L -169.6 -45.953854 L -160.6 -43.353854 L -151.6 -40.753854 L -146.2 -39.353854 L -140.6 -38.353854 L -138.2 -44.153854 L -135.6 -49.553854 L -133.4 -53.553854 L -130.8 -56.953854 L -130.6 -65.953854 L -131.2 -76.95385 L -133 -87.75385 L -134.6 -98.15385 L -137.2 -109.15386 L -139.6 -118.75386 L -142.4 -126.75386 L -145.6 -136.15386 L -148.4 -143.55386 L -152 -151.15386 L -156 -158.75386 L -160 -166.15386 L -162.6 -169.75386 L -166.2 -175.55386 L -171.6 -171.15386 L -176.4 -166.35386 L -181 -160.15386 L -185.4 -153.95386 L -190.2 -145.35386 L -195 -135.95386 L -199.8 -126.75386 L -203.4 -118.15386 L -207.4 -109.15386 L -210.6 -100.95385 L -214.4 -91.55385 L -217.2 -83.55385 L -220.2 -75.153855 Z" fill="black"/>
      <path d="M -222 -68.553854 L -215.8 -64.153854 L -207.6 -60.153854 L -199 -56.553854 L -190 -52.753854 L -179 -48.753854 L -169.6 -45.953854 L -160.6 -43.353854 L -151.6 -40.753854 L -146.2 -39.353854 L -140.6 -38.353854 L -138.2 -44.153854 L -135.6 -49.553854 L -133.4 -53.553854 L -130.8 -56.953854 L -130.6 -65.953854 L -131.2 -76.95385 L -133 -87.75385 L -134.6 -98.15385 L -137.2 -109.15386 L -139.6 -118.75386 L -142.4 -126.75386 L -145.6 -136.15386 L -148.4 -143.55386 L -152 -151.15386 L -156 -158.75386 L -160 -166.15386 L -162.6 -169.75386 L -166.2 -175.55386 L -171.6 -171.15386 L -176.4 -166.35386 L -181 -160.15386 L -185.4 -153.95386 L -190.2 -145.35386 L -195 -135.95386 L -199.8 -126.75386 L -203.4 -118.15386 L -207.4 -109.15386 L -210.6 -100.95385 L -214.4 -91.55385 L -217.2 -83.55385 L -220.2 -75.153855 Z" stroke="#7f8080" stroke-linecap="round" stroke-linejoin="round" stroke-width="1"/>
      <path d="M 209.4053 -69.49725 L 203.2053 -65.09725 L 195.0053 -61.09725 L 186.4053 -57.49725 L 177.40529 -53.69725 L 166.40529 -49.69725 L 157.00529 -46.89725 L 148.00529 -44.29725 L 139.00529 -41.69725 L 133.60529 -40.29725 L 128.00529 -39.29725 L 125.60529 -45.09725 L 123.00529 -50.49725 L 120.80529 -54.49725 L 118.20529 -57.89725 L 118.00529 -66.89725 L 118.60529 -77.89725 L 120.40529 -88.69725 L 122.00529 -99.09725 L 124.60529 -110.09725 L 127.00529 -119.69725 L 129.80529 -127.69725 L 133.00529 -137.09725 L 135.80529 -144.49725 L 139.40529 -152.09725 L 143.40529 -159.69725 L 147.40529 -167.09725 L 150.00529 -170.69725 L 153.60529 -176.49725 L 159.00529 -172.09725 L 163.80529 -167.29725 L 168.40529 -161.09725 L 172.80529 -154.89725 L 177.60529 -146.29725 L 182.40529 -136.89725 L 187.2053 -127.69725 L 190.8053 -119.09725 L 194.8053 -110.09725 L 198.0053 -101.89725 L 201.8053 -92.49725 L 204.6053 -84.49725 L 207.6053 -76.09725 Z" fill="black"/>
      <path d="M 209.4053 -69.49725 L 203.2053 -65.09725 L 195.0053 -61.09725 L 186.4053 -57.49725 L 177.40529 -53.69725 L 166.40529 -49.69725 L 157.00529 -46.89725 L 148.00529 -44.29725 L 139.00529 -41.69725 L 133.60529 -40.29725 L 128.00529 -39.29725 L 125.60529 -45.09725 L 123.00529 -50.49725 L 120.80529 -54.49725 L 118.20529 -57.89725 L 118.00529 -66.89725 L 118.60529 -77.89725 L 120.40529 -88.69725 L 122.00529 -99.09725 L 124.60529 -110.09725 L 127.00529 -119.69725 L 129.80529 -127.69725 L 133.00529 -137.09725 L 135.80529 -144.49725 L 139.40529 -152.09725 L 143.40529 -159.69725 L 147.40529 -167.09725 L 150.00529 -170.69725 L 153.60529 -176.49725 L 159.00529 -172.09725 L 163.80529 -167.29725 L 168.40529 -161.09725 L 172.80529 -154.89725 L 177.60529 -146.29725 L 182.40529 -136.89725 L 187.2053 -127.69725 L 190.8053 -119.09725 L 194.8053 -110.09725 L 198.0053 -101.89725 L 201.8053 -92.49725 L 204.6053 -84.49725 L 207.6053 -76.09725 Z" stroke="#7f8080" stroke-linecap="round" stroke-linejoin="round" stroke-width="1"/>
      <path d="M -222 -68.553854 L -215.8 -64.153854 L -207.6 -60.153854 L -199 -56.553854 L -190 -52.753854 L -179 -48.753854 L -169.6 -45.953854 L -160.6 -43.353854 L -151.6 -40.753854 L -146.2 -39.353854 L -140.6 -38.353854 L -137.6 -44.753854 L -141.4 -45.553854 L -146.2 -46.753854 L -151.8 -47.953854 L -157.8 -49.753854 L -162.4 -51.153854 L -166.6 -52.353854 L -171.2 -54.353854 L -175.8 -55.953854 L -180.6 -57.953854 L -184.6 -59.353854 L -189.8 -61.553854 L -194.4 -63.153854 L -199.2 -65.353854 L -204 -67.153854 L -208 -69.153854 L -212.4 -71.353854 L -216.8 -73.553854 L -220.2 -75.153855 Z" fill="url(#Obj_Gradient_2)"/>
      <path d="M -222 -68.553854 L -215.8 -64.153854 L -207.6 -60.153854 L -199 -56.553854 L -190 -52.753854 L -179 -48.753854 L -169.6 -45.953854 L -160.6 -43.353854 L -151.6 -40.753854 L -146.2 -39.353854 L -140.6 -38.353854 L -137.6 -44.753854 L -141.4 -45.553854 L -146.2 -46.753854 L -151.8 -47.953854 L -157.8 -49.753854 L -162.4 -51.153854 L -166.6 -52.353854 L -171.2 -54.353854 L -175.8 -55.953854 L -180.6 -57.953854 L -184.6 -59.353854 L -189.8 -61.553854 L -194.4 -63.153854 L -199.2 -65.353854 L -204 -67.153854 L -208 -69.153854 L -212.4 -71.353854 L -216.8 -73.553854 L -220.2 -75.153855 Z" stroke="#7f8080" stroke-linecap="round" stroke-linejoin="round" stroke-width="1"/>
      <path d="M 209.4053 -69.49725 L 203.2053 -65.09725 L 195.0053 -61.09725 L 186.4053 -57.49725 L 177.40529 -53.69725 L 166.40529 -49.69725 L 157.00529 -46.89725 L 148.00529 -44.29725 L 139.00529 -41.69725 L 133.60529 -40.29725 L 128.00529 -39.29725 L 125.00529 -45.69725 L 128.80529 -46.49725 L 133.60529 -47.69725 L 139.20529 -48.89725 L 145.20529 -50.69725 L 149.80529 -52.09725 L 154.00529 -53.29725 L 158.60529 -55.29725 L 163.20529 -56.89725 L 168.00529 -58.89725 L 172.00529 -60.29725 L 177.20529 -62.49725 L 181.80529 -64.09725 L 186.6053 -66.29725 L 191.4053 -68.09725 L 195.4053 -70.09725 L 199.8053 -72.29725 L 204.2053 -74.49725 L 207.6053 -76.09725 Z" fill="url(#Obj_Gradient_3)"/>
      <path d="M 209.4053 -69.49725 L 203.2053 -65.09725 L 195.0053 -61.09725 L 186.4053 -57.49725 L 177.40529 -53.69725 L 166.40529 -49.69725 L 157.00529 -46.89725 L 148.00529 -44.29725 L 139.00529 -41.69725 L 133.60529 -40.29725 L 128.00529 -39.29725 L 125.00529 -45.69725 L 128.80529 -46.49725 L 133.60529 -47.69725 L 139.20529 -48.89725 L 145.20529 -50.69725 L 149.80529 -52.09725 L 154.00529 -53.29725 L 158.60529 -55.29725 L 163.20529 -56.89725 L 168.00529 -58.89725 L 172.00529 -60.29725 L 177.20529 -62.49725 L 181.80529 -64.09725 L 186.6053 -66.29725 L 191.4053 -68.09725 L 195.4053 -70.09725 L 199.8053 -72.29725 L 204.2053 -74.49725 L 207.6053 -76.09725 Z" stroke="#7f8080" stroke-linecap="round" stroke-linejoin="round" stroke-width="1"/>
      <path d="M -71.94075 -218.2441 L -66.54075 -218.8441 L -59.74075 -215.4441 L -54.74075 -213.6441 L -46.34075 -211.8441 L -37.94075 -210.8441 L -29.940752 -209.8441 L -22.340752 -209.6441 L -13.740752 -209.2441 L -2.1407514 -209.4441 L 6.259249 -209.8441 L 15.659249 -210.4441 L 24.05925 -211.2441 L 33.25925 -212.6441 L 41.45925 -214.8441 L 47.25925 -216.6441 L 52.85925 -219.2441 L 55.65925 -218.0441 L 56.05925 -212.4441 L 53.25925 -204.4441 L 47.85925 -201.6441 L 37.25925 -198.4441 L 25.85925 -196.0441 L 14.659249 -195.2441 L 2.2592487 -194.2441 L -8.140751 -194.2441 L -17.540752 -194.2441 L -29.140752 -194.8441 L -40.34075 -195.6441 L -50.94075 -197.8441 L -59.54075 -199.8441 L -65.74075 -202.6441 L -67.74075 -204.2441 L -70.94075 -211.8441 Z" fill="url(#Obj_Gradient_4)"/>
      <path d="M -71.94075 -218.2441 L -66.54075 -218.8441 L -59.74075 -215.4441 L -54.74075 -213.6441 L -46.34075 -211.8441 L -37.94075 -210.8441 L -29.940752 -209.8441 L -22.340752 -209.6441 L -13.740752 -209.2441 L -2.1407514 -209.4441 L 6.259249 -209.8441 L 15.659249 -210.4441 L 24.05925 -211.2441 L 33.25925 -212.6441 L 41.45925 -214.8441 L 47.25925 -216.6441 L 52.85925 -219.2441 L 55.65925 -218.0441 L 56.05925 -212.4441 L 53.25925 -204.4441 L 47.85925 -201.6441 L 37.25925 -198.4441 L 25.85925 -196.0441 L 14.659249 -195.2441 L 2.2592487 -194.2441 L -8.140751 -194.2441 L -17.540752 -194.2441 L -29.140752 -194.8441 L -40.34075 -195.6441 L -50.94075 -197.8441 L -59.54075 -199.8441 L -65.74075 -202.6441 L -67.74075 -204.2441 L -70.94075 -211.8441 Z" stroke="#7f8080" stroke-linecap="round" stroke-linejoin="round" stroke-width="1"/>
      <path d="M -71.42788 -218.0362 L -76.15705 -213.98264 C -77.3074 -212.99662 -78.55236 -212.1267 -79.87379 -211.38552 L -82.40042 -209.96835 C -83.83559 -209.16338 -84.4164 -207.39425 -83.73761 -205.89527 L -82.71999 -203.64803 C -82.59842 -203.37954 -82.47169 -203.11342 -82.33988 -202.8498 L -80.53761 -199.24526 L -78.05062 -194.2713 C -77.70883 -193.5877 -77.33317 -192.92157 -76.92505 -192.27537 L -74.59866 -188.59192 C -74.15828 -187.89465 -73.68072 -187.22158 -73.16805 -186.57561 L -69.75736 -182.27815 C -69.21131 -181.59013 -68.62629 -180.93394 -68.00518 -180.31283 L -63.339135 -175.6468 C -62.938255 -175.2459 -62.52269 -174.85999 -62.09329 -174.48982 L -57.529765 -170.55574 C -57.13511 -170.21552 -56.729003 -169.8888 -56.312154 -169.57617 L -52.337214 -166.59497 C -51.6713 -166.09553 -50.97877 -165.63262 -50.26267 -165.20826 L -46.129606 -162.75904 C -46.00161 -162.6832 -45.87288 -162.60859 -45.74344 -162.53523 L -41.045893 -159.8733 C -40.307602 -159.45493 -39.546724 -159.07774 -38.76675 -158.74347 L -35.21693 -157.22212 C -34.63097 -156.97099 -34.03482 -156.74433 -33.430026 -156.54274 L -28.41192 -154.87003 C -27.164675 -154.45429 -25.88408 -154.14624 -24.584205 -153.9493 L -20.485358 -153.32826 C -20.120244 -153.27294 -19.753851 -153.22642 -19.386498 -153.18874 L -12.505395 -152.48299 C -12.26022 -152.45784 -12.014656 -152.43664 -11.768799 -152.41938 L -7.241654 -152.10169 C -6.705791 -152.06409 -6.168776 -152.04527 -5.631595 -152.04527 L -2.3695407 -152.04526 C -1.415842 -152.04526 -.46306656 -152.10458 .48326754 -152.22287 L 4.471983 -152.72146 C 5.1319453 -152.80396 5.788019 -152.91504 6.438353 -153.0544 L 12.520386 -154.3577 C 13.414262 -154.54924 14.295923 -154.7939 15.160677 -155.09039 L 19.669525 -156.63628 C 20.464173 -156.90873 21.243298 -157.22451 22.003397 -157.5822 L 26.836774 -159.85674 C 27.38697 -160.11565 27.926682 -160.39629 28.454637 -160.69798 L 32.222504 -162.85104 C 32.915294 -163.24692 33.587013 -163.67858 34.234938 -164.14428 L 38.911064 -167.50525 C 39.411747 -167.86511 39.897757 -168.24497 40.367916 -168.64389 L 45.68877 -173.15856 C 46.071084 -173.48294 46.442686 -173.81974 46.802983 -174.16842 L 51.5022 -178.71604 C 52.14179 -179.335 52.74491 -179.99056 53.308524 -180.67942 L 57.101807 -185.31566 C 57.60852 -185.93497 58.082566 -186.5803 58.522015 -187.24904 L 62.13919 -192.75344 C 62.354624 -193.08127 62.561634 -193.41456 62.76002 -193.75298 L 65.28311 -198.05708 C 65.66906 -198.71546 66.022 -199.39265 66.340624 -200.08612 L 68.459316 -204.6974 C 68.99218 -205.85715 69.363335 -207.08456 69.56239 -208.34526 L 69.56239 -208.34526 C 69.7407 -209.47453 69.1614 -210.58797 68.13432 -211.0901 L 62.84088 -213.678 C 61.52642 -214.32063 60.29183 -215.11514 59.16239 -216.04526 L 58.756384 -216.37963 C 57.91205 -217.07496 57.288644 -218.00126 56.96239 -219.04526 L 56.96239 -219.04526 C 56.91573 -219.19458 56.75686 -219.2778 56.607544 -219.23114 C 56.49247 -219.19518 56.412766 -219.09031 56.40892 -218.9698 L 56.29968 -215.5469 C 56.20894 -212.70381 55.5916 -209.90224 54.47899 -207.28433 L 53.60206 -205.22096 C 53.04349 -203.90669 52.36374 -202.6473 51.571604 -201.45909 L 47.88582 -195.93042 C 47.138313 -194.80915 46.293706 -193.75575 45.36175 -192.78238 L 39.066684 -186.20753 C 38.19861 -185.30087 37.257774 -184.4668 36.2536 -183.71367 L 27.878695 -177.4325 C 27.002277 -176.77518 26.080017 -176.18133 25.118957 -175.65546 L 17.933756 -171.72394 C 16.622633 -171.00653 15.244704 -170.41863 13.819515 -169.96857 L 7.146606 -167.86133 C 5.429733 -167.31916 3.6551364 -166.98046 1.8592667 -166.85219 L -5.027185 -166.3603 C -6.0994834 -166.2837 -7.175832 -166.28238 -8.248315 -166.35635 L -16.684573 -166.93816 C -17.71875 -167.00948 -18.74692 -167.15064 -19.762054 -167.36067 L -26.89726 -168.83692 C -28.849213 -169.24077 -30.740386 -169.89665 -32.523243 -170.78808 L -37.18265 -173.11779 C -38.41679 -173.73485 -39.592894 -174.46173 -40.69674 -175.28961 L -46.3787 -179.55108 C -46.817833 -179.88043 -47.24504 -180.2254 -47.65949 -180.58532 L -53.41467 -185.58324 C -54.22896 -186.29038 -54.9925 -187.05392 -55.69964 -187.8682 L -60.104865 -192.9409 C -60.85897 -193.80925 -61.546876 -194.73295 -62.1628 -195.70422 L -65.8965 -201.59198 C -66.25707 -202.16056 -66.592495 -202.7447 -66.90181 -203.34272 L -68.522185 -206.47544 C -69.13133 -207.65312 -69.6375 -208.88126 -70.035035 -210.14615 L -71.31527 -214.21964 C -71.53005 -214.90302 -71.71278 -215.59605 -71.86287 -216.29649 L -72.08829 -217.34843 C -72.173365 -217.74544 -71.94701 -218.1431 -71.5622 -218.27263 L -71.5622 -218.27263 C -71.48971 -218.29704 -71.411156 -218.25805 -71.38675 -218.18556 C -71.36874 -218.13205 -71.38501 -218.07296 -71.42788 -218.0362 Z" fill="url(#Obj_Gradient_5)"/>
      <path d="M -71.42788 -218.0362 L -76.15705 -213.98264 C -77.3074 -212.99662 -78.55236 -212.1267 -79.87379 -211.38552 L -82.40042 -209.96835 C -83.83559 -209.16338 -84.4164 -207.39425 -83.73761 -205.89527 L -82.71999 -203.64803 C -82.59842 -203.37954 -82.47169 -203.11342 -82.33988 -202.8498 L -80.53761 -199.24526 L -78.05062 -194.2713 C -77.70883 -193.5877 -77.33317 -192.92157 -76.92505 -192.27537 L -74.59866 -188.59192 C -74.15828 -187.89465 -73.68072 -187.22158 -73.16805 -186.57561 L -69.75736 -182.27815 C -69.21131 -181.59013 -68.62629 -180.93394 -68.00518 -180.31283 L -63.339135 -175.6468 C -62.938255 -175.2459 -62.52269 -174.85999 -62.09329 -174.48982 L -57.529765 -170.55574 C -57.13511 -170.21552 -56.729003 -169.8888 -56.312154 -169.57617 L -52.337214 -166.59497 C -51.6713 -166.09553 -50.97877 -165.63262 -50.26267 -165.20826 L -46.129606 -162.75904 C -46.00161 -162.6832 -45.87288 -162.60859 -45.74344 -162.53523 L -41.045893 -159.8733 C -40.307602 -159.45493 -39.546724 -159.07774 -38.76675 -158.74347 L -35.21693 -157.22212 C -34.63097 -156.97099 -34.03482 -156.74433 -33.430026 -156.54274 L -28.41192 -154.87003 C -27.164675 -154.45429 -25.88408 -154.14624 -24.584205 -153.9493 L -20.485358 -153.32826 C -20.120244 -153.27294 -19.753851 -153.22642 -19.386498 -153.18874 L -12.505395 -152.48299 C -12.26022 -152.45784 -12.014656 -152.43664 -11.768799 -152.41938 L -7.241654 -152.10169 C -6.705791 -152.06409 -6.168776 -152.04527 -5.631595 -152.04527 L -2.3695407 -152.04526 C -1.415842 -152.04526 -.46306656 -152.10458 .48326754 -152.22287 L 4.471983 -152.72146 C 5.1319453 -152.80396 5.788019 -152.91504 6.438353 -153.0544 L 12.520386 -154.3577 C 13.414262 -154.54924 14.295923 -154.7939 15.160677 -155.09039 L 19.669525 -156.63628 C 20.464173 -156.90873 21.243298 -157.22451 22.003397 -157.5822 L 26.836774 -159.85674 C 27.38697 -160.11565 27.926682 -160.39629 28.454637 -160.69798 L 32.222504 -162.85104 C 32.915294 -163.24692 33.587013 -163.67858 34.234938 -164.14428 L 38.911064 -167.50525 C 39.411747 -167.86511 39.897757 -168.24497 40.367916 -168.64389 L 45.68877 -173.15856 C 46.071084 -173.48294 46.442686 -173.81974 46.802983 -174.16842 L 51.5022 -178.71604 C 52.14179 -179.335 52.74491 -179.99056 53.308524 -180.67942 L 57.101807 -185.31566 C 57.60852 -185.93497 58.082566 -186.5803 58.522015 -187.24904 L 62.13919 -192.75344 C 62.354624 -193.08127 62.561634 -193.41456 62.76002 -193.75298 L 65.28311 -198.05708 C 65.66906 -198.71546 66.022 -199.39265 66.340624 -200.08612 L 68.459316 -204.6974 C 68.99218 -205.85715 69.363335 -207.08456 69.56239 -208.34526 L 69.56239 -208.34526 C 69.7407 -209.47453 69.1614 -210.58797 68.13432 -211.0901 L 62.84088 -213.678 C 61.52642 -214.32063 60.29183 -215.11514 59.16239 -216.04526 L 58.756384 -216.37963 C 57.91205 -217.07496 57.288644 -218.00126 56.96239 -219.04526 L 56.96239 -219.04526 C 56.91573 -219.19458 56.75686 -219.2778 56.607544 -219.23114 C 56.49247 -219.19518 56.412766 -219.09031 56.40892 -218.9698 L 56.29968 -215.5469 C 56.20894 -212.70381 55.5916 -209.90224 54.47899 -207.28433 L 53.60206 -205.22096 C 53.04349 -203.90669 52.36374 -202.6473 51.571604 -201.45909 L 47.88582 -195.93042 C 47.138313 -194.80915 46.293706 -193.75575 45.36175 -192.78238 L 39.066684 -186.20753 C 38.19861 -185.30087 37.257774 -184.4668 36.2536 -183.71367 L 27.878695 -177.4325 C 27.002277 -176.77518 26.080017 -176.18133 25.118957 -175.65546 L 17.933756 -171.72394 C 16.622633 -171.00653 15.244704 -170.41863 13.819515 -169.96857 L 7.146606 -167.86133 C 5.429733 -167.31916 3.6551364 -166.98046 1.8592667 -166.85219 L -5.027185 -166.3603 C -6.0994834 -166.2837 -7.175832 -166.28238 -8.248315 -166.35635 L -16.684573 -166.93816 C -17.71875 -167.00948 -18.74692 -167.15064 -19.762054 -167.36067 L -26.89726 -168.83692 C -28.849213 -169.24077 -30.740386 -169.89665 -32.523243 -170.78808 L -37.18265 -173.11779 C -38.41679 -173.73485 -39.592894 -174.46173 -40.69674 -175.28961 L -46.3787 -179.55108 C -46.817833 -179.88043 -47.24504 -180.2254 -47.65949 -180.58532 L -53.41467 -185.58324 C -54.22896 -186.29038 -54.9925 -187.05392 -55.69964 -187.8682 L -60.104865 -192.9409 C -60.85897 -193.80925 -61.546876 -194.73295 -62.1628 -195.70422 L -65.8965 -201.59198 C -66.25707 -202.16056 -66.592495 -202.7447 -66.90181 -203.34272 L -68.522185 -206.47544 C -69.13133 -207.65312 -69.6375 -208.88126 -70.035035 -210.14615 L -71.31527 -214.21964 C -71.53005 -214.90302 -71.71278 -215.59605 -71.86287 -216.29649 L -72.08829 -217.34843 C -72.173365 -217.74544 -71.94701 -218.1431 -71.5622 -218.27263 L -71.5622 -218.27263 C -71.48971 -218.29704 -71.411156 -218.25805 -71.38675 -218.18556 C -71.36874 -218.13205 -71.38501 -218.07296 -71.42788 -218.0362 Z" stroke="#7f8080" stroke-linecap="round" stroke-linejoin="round" stroke-width="1"/>
      <path d="M -142.18679 207.2 L -142.18679 207.2 C -142.25247 207.72549 -142.18964 208.25905 -142.0037 208.7549 L -141.3527 210.49092 C -141.17594 210.96227 -140.94885 211.41318 -140.67538 211.83582 L -139.70757 213.33153 C -139.16661 214.16756 -138.4535 214.87855 -137.61588 215.41702 L -136.53783 216.11005 C -136.23757 216.30307 -135.923 216.47285 -135.59684 216.61789 L -134.27999 217.20349 C -133.68346 217.46876 -133.05275 217.64928 -132.4062 217.7398 L -123.39579 219.00126 C -123.3858 219.00265 -123.3758 219.00403 -123.3658 219.0054 L -111.6498 220.594 C -111.6038 220.60024 -111.55774 220.60601 -111.51162 220.61134 L -101.22869 221.79783 C -101.19676 221.8015 -101.16481 221.80498 -101.13284 221.80822 L -87.42277 223.1991 C -87.39479 223.20193 -87.36679 223.2046 -87.33877 223.2071 L -76.23347 224.19865 C -76.19836 224.20179 -76.16321 224.20466 -76.12805 224.20726 L -65.441515 224.99886 C -65.40104 225.00185 -65.36053 225.0045 -65.32001 225.0068 L -54.812024 225.60159 C -54.791205 225.60276 -54.77039 225.60404 -54.749584 225.6054 L -42.706807 226.3951 C -42.622806 226.4006 -42.53871 226.4046 -42.45457 226.40707 L -29.007443 226.80257 C -28.989678 226.8031 -28.971915 226.80368 -28.954154 226.80434 L -18.310291 227.19856 C -18.223968 227.20176 -18.137592 227.20335 -18.05121 227.20335 L -7.4421935 227.20335 C -7.401262 227.20335 -7.360331 227.2037 -7.319405 227.20443 L 3.767018 227.39893 C 3.9350884 227.40188 4.1032106 227.39877 4.2710575 227.38962 L 14.89229 226.81028 C 14.976893 226.80566 15.061574 226.80258 15.14629 226.80104 L 25.910852 226.60532 C 25.983083 226.604 26.05529 226.60158 26.127447 226.59803 L 38.14607 226.00695 C 38.194827 226.00455 38.243555 226.00165 38.29225 225.99823 L 49.532296 225.20945 C 49.590234 225.2054 49.64812 225.2006 49.70594 225.1951 L 62.11651 224.01313 C 62.18497 224.00661 62.25352 224.0011 62.32214 223.9966 L 74.25416 223.21418 C 74.36418 223.20696 74.474 223.19715 74.58355 223.18475 L 84.9959 222.006 C 85.01144 222.00423 85.02697 222.00242 85.04249 222.00056 L 94.99021 220.80683 C 95.00954 220.80451 95.02886 220.80211 95.04818 220.79963 L 108.88394 219.0221 C 108.98115 219.0096 109.0781 218.99507 109.1747 218.9785 L 115.72819 217.85506 C 115.92915 217.8206 116.13153 217.79495 116.33473 217.77817 L 119.56706 217.5112 C 120.4563 217.43775 121.32329 217.19497 122.12135 216.79594 L 123.60765 216.0528 C 124.20824 215.7525 124.76249 215.36735 125.25338 214.9092 L 126.5885 213.66308 C 127.19532 213.09672 127.65073 212.38747 127.91322 211.6 L 128.20805 210.71552 C 128.27812 210.5053 128.33817 210.29187 128.388 210.07595 L 128.8577 208.04056 C 128.89293 207.88792 128.85949 207.72752 128.76621 207.60168 L 128.76621 207.60168 C 128.67587 207.4798 128.52523 207.4183 128.3754 207.44214 L 119.89555 208.7912 C 119.84466 208.7993 119.79385 208.80796 119.74315 208.81718 L 106.75839 211.17805 C 106.66561 211.19492 106.5725 211.2099 106.47911 211.22302 L 95.24943 212.7991 C 95.22928 212.80194 95.20914 212.80486 95.18902 212.80786 L 82.06643 214.76645 C 81.90167 214.79105 81.73608 214.80975 81.56998 214.82253 L 68.845166 215.80136 C 68.82786 215.8027 68.81055 215.80396 68.79323 215.80516 L 54.453083 216.801 C 54.4305 216.80257 54.407907 216.80403 54.38531 216.80538 L 41.082054 217.5996 C 41.040156 217.6021 40.998237 217.60423 40.9563 217.60597 L 26.76485 218.19729 C 26.667764 218.20133 26.570605 218.20335 26.473436 218.20335 L 13.219206 218.20335 L .6775347 218.20335 C .6386492 218.20335 .59976434 218.20368 .5608842 218.20433 L -11.197504 218.4003 C -11.319677 218.40234 -11.441882 218.40117 -11.563995 218.3968 L -22.397595 218.0099 C -22.519707 218.00554 -22.641913 218.00437 -22.764086 218.0064 L -34.478726 218.20165 C -34.54677 218.20279 -34.614824 218.20293 -34.68287 218.20208 L -50.385155 218.0058 C -50.515557 218.00417 -50.645887 217.9989 -50.775993 217.98998 L -65.08577 217.00986 C -65.14912 217.00552 -65.2124 217.00032 -65.27561 216.99426 L -79.76661 215.60471 C -79.77607 215.6038 -79.78552 215.60288 -79.79497 215.60194 L -93.60701 214.22073 C -93.72285 214.20915 -93.83838 214.19468 -93.9535 214.17733 L -108.26265 212.02116 C -108.34141 212.0093 -108.42036 211.99877 -108.49948 211.9896 L -122.01941 210.42207 C -122.12699 210.4096 -122.23426 210.39463 -122.34114 210.37718 L -131.73323 208.84377 C -131.89822 208.81684 -132.0622 208.784 -132.22484 208.74532 L -141.30244 206.58654 C -141.69075 206.4942 -142.08041 206.73412 -142.17276 207.12244 C -142.17884 207.14802 -142.18353 207.17392 -142.18679 207.2 Z" fill="url(#Obj_Gradient_6)"/>
      <path d="M -142.18679 207.2 L -142.18679 207.2 C -142.25247 207.72549 -142.18964 208.25905 -142.0037 208.7549 L -141.3527 210.49092 C -141.17594 210.96227 -140.94885 211.41318 -140.67538 211.83582 L -139.70757 213.33153 C -139.16661 214.16756 -138.4535 214.87855 -137.61588 215.41702 L -136.53783 216.11005 C -136.23757 216.30307 -135.923 216.47285 -135.59684 216.61789 L -134.27999 217.20349 C -133.68346 217.46876 -133.05275 217.64928 -132.4062 217.7398 L -123.39579 219.00126 C -123.3858 219.00265 -123.3758 219.00403 -123.3658 219.0054 L -111.6498 220.594 C -111.6038 220.60024 -111.55774 220.60601 -111.51162 220.61134 L -101.22869 221.79783 C -101.19676 221.8015 -101.16481 221.80498 -101.13284 221.80822 L -87.42277 223.1991 C -87.39479 223.20193 -87.36679 223.2046 -87.33877 223.2071 L -76.23347 224.19865 C -76.19836 224.20179 -76.16321 224.20466 -76.12805 224.20726 L -65.441515 224.99886 C -65.40104 225.00185 -65.36053 225.0045 -65.32001 225.0068 L -54.812024 225.60159 C -54.791205 225.60276 -54.77039 225.60404 -54.749584 225.6054 L -42.706807 226.3951 C -42.622806 226.4006 -42.53871 226.4046 -42.45457 226.40707 L -29.007443 226.80257 C -28.989678 226.8031 -28.971915 226.80368 -28.954154 226.80434 L -18.310291 227.19856 C -18.223968 227.20176 -18.137592 227.20335 -18.05121 227.20335 L -7.4421935 227.20335 C -7.401262 227.20335 -7.360331 227.2037 -7.319405 227.20443 L 3.767018 227.39893 C 3.9350884 227.40188 4.1032106 227.39877 4.2710575 227.38962 L 14.89229 226.81028 C 14.976893 226.80566 15.061574 226.80258 15.14629 226.80104 L 25.910852 226.60532 C 25.983083 226.604 26.05529 226.60158 26.127447 226.59803 L 38.14607 226.00695 C 38.194827 226.00455 38.243555 226.00165 38.29225 225.99823 L 49.532296 225.20945 C 49.590234 225.2054 49.64812 225.2006 49.70594 225.1951 L 62.11651 224.01313 C 62.18497 224.00661 62.25352 224.0011 62.32214 223.9966 L 74.25416 223.21418 C 74.36418 223.20696 74.474 223.19715 74.58355 223.18475 L 84.9959 222.006 C 85.01144 222.00423 85.02697 222.00242 85.04249 222.00056 L 94.99021 220.80683 C 95.00954 220.80451 95.02886 220.80211 95.04818 220.79963 L 108.88394 219.0221 C 108.98115 219.0096 109.0781 218.99507 109.1747 218.9785 L 115.72819 217.85506 C 115.92915 217.8206 116.13153 217.79495 116.33473 217.77817 L 119.56706 217.5112 C 120.4563 217.43775 121.32329 217.19497 122.12135 216.79594 L 123.60765 216.0528 C 124.20824 215.7525 124.76249 215.36735 125.25338 214.9092 L 126.5885 213.66308 C 127.19532 213.09672 127.65073 212.38747 127.91322 211.6 L 128.20805 210.71552 C 128.27812 210.5053 128.33817 210.29187 128.388 210.07595 L 128.8577 208.04056 C 128.89293 207.88792 128.85949 207.72752 128.76621 207.60168 L 128.76621 207.60168 C 128.67587 207.4798 128.52523 207.4183 128.3754 207.44214 L 119.89555 208.7912 C 119.84466 208.7993 119.79385 208.80796 119.74315 208.81718 L 106.75839 211.17805 C 106.66561 211.19492 106.5725 211.2099 106.47911 211.22302 L 95.24943 212.7991 C 95.22928 212.80194 95.20914 212.80486 95.18902 212.80786 L 82.06643 214.76645 C 81.90167 214.79105 81.73608 214.80975 81.56998 214.82253 L 68.845166 215.80136 C 68.82786 215.8027 68.81055 215.80396 68.79323 215.80516 L 54.453083 216.801 C 54.4305 216.80257 54.407907 216.80403 54.38531 216.80538 L 41.082054 217.5996 C 41.040156 217.6021 40.998237 217.60423 40.9563 217.60597 L 26.76485 218.19729 C 26.667764 218.20133 26.570605 218.20335 26.473436 218.20335 L 13.219206 218.20335 L .6775347 218.20335 C .6386492 218.20335 .59976434 218.20368 .5608842 218.20433 L -11.197504 218.4003 C -11.319677 218.40234 -11.441882 218.40117 -11.563995 218.3968 L -22.397595 218.0099 C -22.519707 218.00554 -22.641913 218.00437 -22.764086 218.0064 L -34.478726 218.20165 C -34.54677 218.20279 -34.614824 218.20293 -34.68287 218.20208 L -50.385155 218.0058 C -50.515557 218.00417 -50.645887 217.9989 -50.775993 217.98998 L -65.08577 217.00986 C -65.14912 217.00552 -65.2124 217.00032 -65.27561 216.99426 L -79.76661 215.60471 C -79.77607 215.6038 -79.78552 215.60288 -79.79497 215.60194 L -93.60701 214.22073 C -93.72285 214.20915 -93.83838 214.19468 -93.9535 214.17733 L -108.26265 212.02116 C -108.34141 212.0093 -108.42036 211.99877 -108.49948 211.9896 L -122.01941 210.42207 C -122.12699 210.4096 -122.23426 210.39463 -122.34114 210.37718 L -131.73323 208.84377 C -131.89822 208.81684 -132.0622 208.784 -132.22484 208.74532 L -141.30244 206.58654 C -141.69075 206.4942 -142.08041 206.73412 -142.17276 207.12244 C -142.17884 207.14802 -142.18353 207.17392 -142.18679 207.2 Z" stroke="#7f8080" stroke-linecap="round" stroke-linejoin="round" stroke-width="1"/>
    </g>
  </g>
</svg>
