<?xml version="1.0" encoding="UTF-8" standalone="no"?>
<!DOCTYPE svg PUBLIC "-//W3C//DTD SVG 1.1//EN" "http://www.w3.org/Graphics/SVG/1.1/DTD/svg11.dtd">
<svg xmlns="http://www.w3.org/2000/svg" xmlns:xl="http://www.w3.org/1999/xlink" version="1.1" viewBox="-238.5 -100.5 432.4053 448.4" width="432.4053pt" height="448.4pt" xmlns:dc="http://purl.org/dc/elements/1.1/">
  <metadata> Produced by OmniGraffle 7.6.1 
    <dc:date>2019-04-23 15:02:20 +0000</dc:date>
  </metadata>
  <defs>
    <radialGradient cx="0" cy="0" r="1" id="Gradient" gradientUnits="userSpaceOnUse">
      <stop offset="0" stop-color="#cbcbcb"/>
      <stop offset="1" stop-color="#843918"/>
    </radialGradient>
    <radialGradient id="Obj_Gradient" xl:href="#Gradient" gradientTransform="translate(-23.240751 -72.6) scale(70.26272)"/>
    <radialGradient cx="0" cy="0" r="1" id="Gradient_2" gradientUnits="userSpaceOnUse">
      <stop offset="0" stop-color="black"/>
      <stop offset="1" stop-color="#333"/>
    </radialGradient>
    <radialGradient id="Obj_Gradient_2" xl:href="#Gradient_2" gradientTransform="translate(-195.8 63.246146) scale(46.03694)"/>
    <radialGradient id="Obj_Gradient_3" xl:href="#Gradient_2" gradientTransform="translate(151.20529 62.30275) scale(46.03694)"/>
    <linearGradient x1="0" x2="1" id="Gradient_3" gradientUnits="userSpaceOnUse">
      <stop offset="0" stop-color="#ff2600"/>
      <stop offset="1" stop-color="#333"/>
    </linearGradient>
    <linearGradient id="Obj_Gradient_4" xl:href="#Gradient_3" gradientTransform="translate(-23.940751 -99.24411) rotate(90) scale(25)"/>
    <radialGradient id="Obj_Gradient_5" xl:href="#Gradient_2" gradientTransform="translate(-23.21303 -65.644686) scale(83.83496)"/>
    <radialGradient cx="0" cy="0" r="1" id="Gradient_4" gradientUnits="userSpaceOnUse">
      <stop offset="0" stop-color="#f26077"/>
      <stop offset="1" stop-color="#ea3f33"/>
    </radialGradient>
    <radialGradient id="Obj_Gradient_6" xl:href="#Gradient_4" gradientTransform="translate(-22.670323 336.9834) scale(135.94141)"/>
  </defs>
  <g stroke="none" stroke-opacity="1" stroke-dasharray="none" fill="none" fill-opacity="1">
    <title>Toronto</title>
    <g>
      <title>Capa 1</title>
      <path d="M -84.99435 -99.40955 L -76.82889 -96.29184 C -75.9709 -95.96424 -75.09406 -95.68833 -74.20308 -95.46558 L -60.4859 -92.03629 C -59.32424 -91.74587 -58.14168 -91.54662 -56.948995 -91.44034 L -39.42285 -89.8786 C -38.835 -89.82622 -38.245357 -89.79648 -37.655222 -89.78946 L -22.176305 -89.60519 C -21.885962 -89.60173 -21.59558 -89.60377 -21.305314 -89.61131 L -6.882001 -89.98594 C -6.521218 -89.99531 -6.160705 -90.01317 -5.8007625 -90.03951 L 8.57053 -91.09107 C 9.561967 -91.16361 10.547657 -91.30036 11.5214 -91.50044 L 23.094364 -93.87845 C 24.136366 -94.09256 25.162258 -94.3787 26.16465 -94.73481 L 37.916645 -98.90986 C 39.007016 -99.29723 40.210215 -98.76646 40.65925 -97.7 L 40.65925 -97.7 C 41.1814 -96.4599 41.333383 -95.09515 41.09685 -93.77055 L 40.91637 -92.75986 C 40.61259 -91.05871 40.11806 -89.3972 39.442145 -87.80681 L 37.89892 -84.17569 C 37.340353 -82.86142 36.6606 -81.602025 35.868464 -80.41382 L 32.182683 -74.88515 C 31.435173 -73.76389 30.590567 -72.71049 29.65861 -71.73711 L 23.363544 -65.16226 C 22.49547 -64.25561 21.554634 -63.42154 20.55046 -62.66841 L 12.175555 -56.38723 C 11.299138 -55.729916 10.376877 -55.13606 9.415817 -54.6102 L 2.2306165 -50.67867 C .919493 -49.961265 -.4584354 -49.37336 -1.8836246 -48.9233 L -8.556534 -46.81607 C -10.273407 -46.2739 -12.048003 -45.935195 -13.843873 -45.80692 L -20.730325 -45.31503 C -21.802623 -45.238437 -22.878972 -45.23712 -23.951455 -45.31108 L -32.387713 -45.892893 C -33.42189 -45.964216 -34.45006 -46.105373 -35.465194 -46.3154 L -42.6004 -47.79165 C -44.55235 -48.1955 -46.443526 -48.851386 -48.22638 -49.742815 L -52.88579 -52.07252 C -54.11993 -52.68959 -55.296033 -53.41646 -56.39988 -54.244345 L -62.08184 -58.50581 C -62.52097 -58.835165 -62.94818 -59.18013 -63.36263 -59.54005 L -69.11781 -64.53797 C -69.9321 -65.245115 -70.69564 -66.008655 -71.40278 -66.82294 L -75.808005 -71.89562 C -76.56211 -72.763985 -77.25002 -73.687685 -77.86594 -74.65895 L -81.59964 -80.54671 C -81.96021 -81.1153 -82.29563 -81.69944 -82.60495 -82.29745 L -84.22532 -85.43017 C -84.83447 -86.60785 -85.34064 -87.836 -85.73817 -89.10089 L -87.01841 -93.17438 C -87.23319 -93.85775 -87.41592 -94.55079 -87.56601 -95.25122 L -87.64075 -95.6 C -87.83542 -96.50843 -87.72815 -97.45557 -87.33527 -98.29746 L -87.24075 -98.5 C -86.84628 -99.34531 -85.8658 -99.74229 -84.99435 -99.40955 Z" fill="url(#Obj_Gradient)"/>
      <path d="M -84.99435 -99.40955 L -76.82889 -96.29184 C -75.9709 -95.96424 -75.09406 -95.68833 -74.20308 -95.46558 L -60.4859 -92.03629 C -59.32424 -91.74587 -58.14168 -91.54662 -56.948995 -91.44034 L -39.42285 -89.8786 C -38.835 -89.82622 -38.245357 -89.79648 -37.655222 -89.78946 L -22.176305 -89.60519 C -21.885962 -89.60173 -21.59558 -89.60377 -21.305314 -89.61131 L -6.882001 -89.98594 C -6.521218 -89.99531 -6.160705 -90.01317 -5.8007625 -90.03951 L 8.57053 -91.09107 C 9.561967 -91.16361 10.547657 -91.30036 11.5214 -91.50044 L 23.094364 -93.87845 C 24.136366 -94.09256 25.162258 -94.3787 26.16465 -94.73481 L 37.916645 -98.90986 C 39.007016 -99.29723 40.210215 -98.76646 40.65925 -97.7 L 40.65925 -97.7 C 41.1814 -96.4599 41.333383 -95.09515 41.09685 -93.77055 L 40.91637 -92.75986 C 40.61259 -91.05871 40.11806 -89.3972 39.442145 -87.80681 L 37.89892 -84.17569 C 37.340353 -82.86142 36.6606 -81.602025 35.868464 -80.41382 L 32.182683 -74.88515 C 31.435173 -73.76389 30.590567 -72.71049 29.65861 -71.73711 L 23.363544 -65.16226 C 22.49547 -64.25561 21.554634 -63.42154 20.55046 -62.66841 L 12.175555 -56.38723 C 11.299138 -55.729916 10.376877 -55.13606 9.415817 -54.6102 L 2.2306165 -50.67867 C .919493 -49.961265 -.4584354 -49.37336 -1.8836246 -48.9233 L -8.556534 -46.81607 C -10.273407 -46.2739 -12.048003 -45.935195 -13.843873 -45.80692 L -20.730325 -45.31503 C -21.802623 -45.238437 -22.878972 -45.23712 -23.951455 -45.31108 L -32.387713 -45.892893 C -33.42189 -45.964216 -34.45006 -46.105373 -35.465194 -46.3154 L -42.6004 -47.79165 C -44.55235 -48.1955 -46.443526 -48.851386 -48.22638 -49.742815 L -52.88579 -52.07252 C -54.11993 -52.68959 -55.296033 -53.41646 -56.39988 -54.244345 L -62.08184 -58.50581 C -62.52097 -58.835165 -62.94818 -59.18013 -63.36263 -59.54005 L -69.11781 -64.53797 C -69.9321 -65.245115 -70.69564 -66.008655 -71.40278 -66.82294 L -75.808005 -71.89562 C -76.56211 -72.763985 -77.25002 -73.687685 -77.86594 -74.65895 L -81.59964 -80.54671 C -81.96021 -81.1153 -82.29563 -81.69944 -82.60495 -82.29745 L -84.22532 -85.43017 C -84.83447 -86.60785 -85.34064 -87.836 -85.73817 -89.10089 L -87.01841 -93.17438 C -87.23319 -93.85775 -87.41592 -94.55079 -87.56601 -95.25122 L -87.64075 -95.6 C -87.83542 -96.50843 -87.72815 -97.45557 -87.33527 -98.29746 L -87.24075 -98.5 C -86.84628 -99.34531 -85.8658 -99.74229 -84.99435 -99.40955 Z" stroke="#7f8080" stroke-linecap="round" stroke-linejoin="round" stroke-width="1"/>
      <path d="M -149.02654 337.2638 L -135.2843 339.55416 C -135.10093 339.58472 -134.91703 339.6121 -134.7327 339.63624 L -106.37906 343.35154 C -106.13253 343.38385 -105.88528 343.4104 -105.63752 343.4312 L -75.39463 345.9677 C -75.13773 345.98923 -74.88034 346.00456 -74.62269 346.01367 L -35.69178 347.39 C -35.50342 347.39668 -35.314955 347.4 -35.126477 347.4 L -3.6591553 347.4 C -3.4925395 347.4 -3.325934 347.3974 -3.1593993 347.3922 L 21.875388 346.60986 C 22.085631 346.6033 22.295725 346.59258 22.505547 346.57772 L 44.5533 345.0168 C 44.711614 345.0056 44.86975 344.99205 45.027663 344.97614 L 70.28815 342.4305 C 70.48989 342.41017 70.69122 342.386 70.89204 342.35803 L 94.68474 339.04265 C 94.88875 339.01422 95.09219 338.98186 95.29496 338.94558 L 104.49079 337.3 C 109.81789 336.34674 113.46876 331.3931 112.80234 326.02255 L 110.59475 308.232 C 110.59211 308.21066 110.5895 308.18934 110.58695 308.168 L 107.02312 278.4695 C 107.00157 278.28985 106.98306 278.10985 106.9676 277.92958 L 104.60539 250.37037 C 104.59565 250.2568 104.58713 250.14312 104.57983 250.02936 L 103.19321 228.43772 C 103.19159 228.41258 103.18992 228.38744 103.18818 228.3623 L 101.59603 205.27599 C 101.59253 205.22533 101.58928 205.17466 101.58627 205.12398 L 100.4099 185.3218 C 100.39716 185.1073 100.38874 184.89255 100.38465 184.6777 L 99.99236 164.08285 C 99.99131 164.02762 99.98997 163.9724 99.98835 163.91718 L 99.39322 143.68283 C 99.3916 143.62761 99.39026 143.57239 99.38921 143.51715 L 98.99855 123.00761 C 98.99337 122.73592 98.99512 122.46413 99.00379 122.19253 L 99.58973 103.83292 C 99.59044 103.81097 99.59118 103.78903 99.59197 103.76709 L 100.38005 81.89779 C 100.38721 81.69928 100.39806 81.50093 100.4126 81.30283 L 101.97007 60.08221 C 101.98388 59.894086 101.99436 59.705734 102.0015 59.51724 L 102.75596 39.618373 C 102.77915 39.006628 102.83744 38.39672 102.93052 37.79165 L 105.66953 19.988134 C 105.75031 19.463036 105.8572 18.942288 105.98979 18.427825 L 110.61806 .4701739 C 110.73316 .023601077 110.8675 -.41778686 111.02073 -.8527535 L 116.74152 -17.092394 C 116.9076 -17.563872 117.0957 -18.027307 117.30517 -18.481174 L 122.83673 -30.466213 C 122.93942 -30.688708 123.04721 -30.908814 123.16001 -31.126357 L 128.52223 -41.467783 C 128.56793 -41.555925 128.61446 -41.64364 128.66179 -41.730917 L 133.87777 -51.34788 C 134.61505 -52.707236 135.56468 -53.940134 136.69079 -55 L 136.69079 -55 C 137.36598 -55.63547 137.39817 -56.697974 136.7627 -57.37316 C 136.6382 -57.50544 136.49307 -57.616634 136.33295 -57.70241 L 133.11881 -59.42427 C 132.90016 -59.54141 132.67881 -59.65344 132.45494 -59.76029 L 124.60097 -63.50878 C 124.19436 -63.70284 123.77974 -63.87964 123.35821 -64.03871 L 113.68338 -67.68959 C 113.48833 -67.76319 113.29187 -67.83297 113.0941 -67.89889 L 100.39963 -72.130385 C 100.26041 -72.17679 100.12055 -72.22128 99.9801 -72.26384 L 87.09658 -76.16794 C 87.02605 -76.18931 86.95567 -76.21117 86.88544 -76.23352 L 74.381445 -80.21206 C 73.98782 -80.33731 73.59919 -80.47775 73.216435 -80.63307 L 61.24049 -85.49287 C 60.40883 -85.83036 59.60704 -86.23723 58.843604 -86.70917 L 49.224355 -92.65561 C 49.06865 -92.75186 48.914614 -92.85078 48.762306 -92.95232 L 43.87221 -96.21238 C 42.890814 -96.86665 42.0195 -97.67255 41.290784 -98.6 L 41.290784 -98.6 C 41.18518 -98.7344 40.990616 -98.75775 40.85621 -98.65215 C 40.75347 -98.57142 40.712493 -98.43487 40.75381 -98.31092 L 40.890784 -97.9 C 41.350035 -96.52225 41.454596 -95.05096 41.194805 -93.62211 L 40.799665 -91.44885 C 40.528455 -89.95719 40.04661 -88.51165 39.36858 -87.1556 L 37.836264 -84.09096 C 37.539565 -83.49756 37.206245 -82.92319 36.838234 -82.37117 L 33.63453 -77.56562 C 33.20593 -76.92272 32.73132 -76.31171 32.21443 -75.737385 L 27.652385 -70.668445 C 27.611318 -70.622815 27.56999 -70.57742 27.5284 -70.53227 L 21.534165 -64.02424 C 20.90643 -63.3427 20.22068 -62.71698 19.484645 -62.15413 L 14.46047 -58.31211 C 14.014322 -57.97094 13.55052 -57.653496 13.070988 -57.3611 L 6.584582 -53.405974 C 5.922924 -53.002524 5.232829 -52.64768 4.519746 -52.34424 L -2.5956647 -49.316404 C -3.4033295 -48.972717 -4.2379064 -48.696074 -5.090947 -48.489277 L -9.170006 -47.500414 C -9.994839 -47.300454 -10.834274 -47.16644 -11.680366 -47.099645 L -17.380575 -46.64963 C -17.799507 -46.616555 -18.21958 -46.6 -18.639814 -46.6 L -25.672132 -46.6 C -26.429234 -46.6 -27.18538 -46.653737 -27.934873 -46.76081 L -35.88132 -47.896014 C -36.36633 -47.9653 -36.8479 -48.05683 -37.324508 -48.170307 L -43.285736 -49.589647 C -44.431223 -49.86238 -45.5431 -50.260734 -46.60117 -50.777466 L -52.881176 -53.844444 C -53.366226 -54.08133 -53.83898 -54.34261 -54.297617 -54.62728 L -58.50948 -57.24154 C -59.10865 -57.61344 -59.682576 -58.024544 -60.227505 -58.472165 L -64.67361 -62.12432 C -64.89731 -62.30807 -65.115976 -62.49786 -65.329374 -62.69348 L -69.13172 -66.17896 C -69.58301 -66.592644 -70.01019 -67.03189 -70.41115 -67.494535 L -74.52989 -72.24693 C -74.84928 -72.61545 -75.15164 -72.99838 -75.43605 -73.39451 L -79.8657 -79.56439 C -80.360595 -80.2537 -80.79987 -80.9813 -81.17936 -81.74028 L -83.75582 -86.89321 C -83.79142 -86.9644 -83.82648 -87.03586 -83.86101 -87.10758 L -85.10922 -89.7 C -85.95993 -91.46687 -86.31545 -93.43141 -86.13791 -95.38436 L -85.95771 -97.36661 C -85.9339 -97.62848 -86.12688 -97.86006 -86.38875 -97.88386 C -86.55114 -97.89862 -86.7098 -97.82925 -86.80922 -97.7 L -86.80922 -97.7 C -87.47266 -96.83752 -88.25277 -96.07144 -89.12715 -95.42375 L -93.02368 -92.53743 C -93.14737 -92.44582 -93.27237 -92.35599 -93.39864 -92.26798 L -98.02089 -89.04641 C -99.20763 -88.21929 -100.50105 -87.55692 -101.8658 -87.07742 L -106.47292 -85.4587 C -106.9635 -85.28633 -107.44537 -85.09016 -107.91684 -84.87087 L -114.76362 -81.68632 C -115.45978 -81.36253 -116.17835 -81.08926 -116.91375 -80.86864 L -127.78414 -77.60752 C -127.80086 -77.60251 -127.81757 -77.59746 -127.83428 -77.59239 L -138.80236 -74.262795 C -138.94026 -74.22093 -139.07759 -74.17721 -139.2143 -74.13164 L -152.13554 -69.82456 C -152.18466 -69.80819 -152.23386 -69.79205 -152.28314 -69.776155 L -163.65054 -66.10925 C -164.28903 -65.90329 -164.91393 -65.65737 -165.52154 -65.372956 L -173.4535 -61.66012 C -173.82384 -61.48677 -174.1874 -61.29929 -174.54338 -61.09808 L -180.4895 -57.737235 C -181.74253 -57.029 -182.18417 -55.439075 -181.47594 -54.18604 C -181.39882 -54.0496 -181.30955 -53.9204 -181.20922 -53.8 L -180.3451 -52.763066 C -179.59016 -51.85713 -178.93769 -50.87051 -178.39957 -49.82118 L -175.32243 -43.820763 C -175.24696 -43.673596 -175.16921 -43.52761 -175.08922 -43.38285 L -171.13446 -36.226632 C -171.05097 -36.075553 -170.96993 -35.923133 -170.89137 -35.76943 L -166.78307 -27.731444 C -166.534 -27.244135 -166.3101 -26.744368 -166.11224 -26.234113 L -162.62947 -17.252235 C -162.61597 -17.21741 -162.60235 -17.182634 -162.5886 -17.147906 L -158.99228 -8.062459 C -158.87027 -7.754227 -158.75787 -7.442277 -158.65524 -7.127061 L -156.0334 .9257164 C -156.01728 .9752395 -156.0014 1.024841 -155.98576 1.0745192 L -152.91371 10.83279 C -152.71092 11.476952 -152.54911 12.133306 -152.42927 12.797915 L -150.44395 23.807372 C -150.4208 23.935787 -150.39921 24.06448 -150.3792 24.193423 L -148.67334 35.186805 C -148.6306 35.462223 -148.59506 35.73871 -148.56677 36.015984 L -147.67935 44.7127 C -147.63262 45.17069 -147.60567 45.63048 -147.59859 46.090793 L -147.41435 58.066414 C -147.41093 58.28878 -147.40287 58.511054 -147.39019 58.733086 L -146.61981 72.21465 C -146.61275 72.33821 -146.60425 72.46169 -146.59433 72.58506 L -145.26076 89.15943 C -145.22641 89.58631 -145.20922 90.01439 -145.20922 90.44264 L -145.20922 102.89242 C -145.20922 103.09746 -145.20528 103.30247 -145.1974 103.50735 L -144.61705 118.59649 C -144.61183 118.73216 -144.60834 118.86789 -144.60657 119.00365 L -144.41441 133.7999 C -144.41095 134.0666 -144.41416 134.33333 -144.42403 134.59986 L -144.99826 150.10401 C -145.00556 150.30132 -145.00922 150.49875 -145.00922 150.6962 L -145.00922 164.29243 C -145.00922 164.49746 -145.01316 164.70247 -145.02104 164.90736 L -145.60623 180.12236 C -145.60822 180.17412 -145.61047 180.22588 -145.61296 180.27762 L -146.40828 196.78055 C -146.4089 196.79352 -146.40955 196.80649 -146.4102 196.81945 L -147.2047 212.51062 C -147.20771 212.5702 -147.21106 212.62978 -147.21474 212.68933 L -148.40366 231.91007 C -148.40736 231.97003 -148.41141 232.02996 -148.4158 232.08987 L -150.19893 256.45942 C -150.20579 256.55314 -150.21347 256.6468 -150.22198 256.74038 L -152.00787 276.3852 C -152.00877 276.39507 -152.00968 276.40494 -152.0106 276.4148 L -153.78136 295.4997 C -153.79993 295.6999 -153.82227 295.8997 -153.84838 296.09903 L -155.80909 311.07175 C -155.9419 312.08594 -156.21104 313.07756 -156.60922 314.01973 L -156.60922 314.01973 C -157.0068 314.96048 -157.25546 315.9574 -157.34629 316.97465 L -158.10922 325.51973 C -158.61698 331.20676 -154.65851 336.32512 -149.02654 337.2638 Z" fill="red"/>
      <path d="M -149.02654 337.2638 L -135.2843 339.55416 C -135.10093 339.58472 -134.91703 339.6121 -134.7327 339.63624 L -106.37906 343.35154 C -106.13253 343.38385 -105.88528 343.4104 -105.63752 343.4312 L -75.39463 345.9677 C -75.13773 345.98923 -74.88034 346.00456 -74.62269 346.01367 L -35.69178 347.39 C -35.50342 347.39668 -35.314955 347.4 -35.126477 347.4 L -3.6591553 347.4 C -3.4925395 347.4 -3.325934 347.3974 -3.1593993 347.3922 L 21.875388 346.60986 C 22.085631 346.6033 22.295725 346.59258 22.505547 346.57772 L 44.5533 345.0168 C 44.711614 345.0056 44.86975 344.99205 45.027663 344.97614 L 70.28815 342.4305 C 70.48989 342.41017 70.69122 342.386 70.89204 342.35803 L 94.68474 339.04265 C 94.88875 339.01422 95.09219 338.98186 95.29496 338.94558 L 104.49079 337.3 C 109.81789 336.34674 113.46876 331.3931 112.80234 326.02255 L 110.59475 308.232 C 110.59211 308.21066 110.5895 308.18934 110.58695 308.168 L 107.02312 278.4695 C 107.00157 278.28985 106.98306 278.10985 106.9676 277.92958 L 104.60539 250.37037 C 104.59565 250.2568 104.58713 250.14312 104.57983 250.02936 L 103.19321 228.43772 C 103.19159 228.41258 103.18992 228.38744 103.18818 228.3623 L 101.59603 205.27599 C 101.59253 205.22533 101.58928 205.17466 101.58627 205.12398 L 100.4099 185.3218 C 100.39716 185.1073 100.38874 184.89255 100.38465 184.6777 L 99.99236 164.08285 C 99.99131 164.02762 99.98997 163.9724 99.98835 163.91718 L 99.39322 143.68283 C 99.3916 143.62761 99.39026 143.57239 99.38921 143.51715 L 98.99855 123.00761 C 98.99337 122.73592 98.99512 122.46413 99.00379 122.19253 L 99.58973 103.83292 C 99.59044 103.81097 99.59118 103.78903 99.59197 103.76709 L 100.38005 81.89779 C 100.38721 81.69928 100.39806 81.50093 100.4126 81.30283 L 101.97007 60.08221 C 101.98388 59.894086 101.99436 59.705734 102.0015 59.51724 L 102.75596 39.618373 C 102.77915 39.006628 102.83744 38.39672 102.93052 37.79165 L 105.66953 19.988134 C 105.75031 19.463036 105.8572 18.942288 105.98979 18.427825 L 110.61806 .4701739 C 110.73316 .023601077 110.8675 -.41778686 111.02073 -.8527535 L 116.74152 -17.092394 C 116.9076 -17.563872 117.0957 -18.027307 117.30517 -18.481174 L 122.83673 -30.466213 C 122.93942 -30.688708 123.04721 -30.908814 123.16001 -31.126357 L 128.52223 -41.467783 C 128.56793 -41.555925 128.61446 -41.64364 128.66179 -41.730917 L 133.87777 -51.34788 C 134.61505 -52.707236 135.56468 -53.940134 136.69079 -55 L 136.69079 -55 C 137.36598 -55.63547 137.39817 -56.697974 136.7627 -57.37316 C 136.6382 -57.50544 136.49307 -57.616634 136.33295 -57.70241 L 133.11881 -59.42427 C 132.90016 -59.54141 132.67881 -59.65344 132.45494 -59.76029 L 124.60097 -63.50878 C 124.19436 -63.70284 123.77974 -63.87964 123.35821 -64.03871 L 113.68338 -67.68959 C 113.48833 -67.76319 113.29187 -67.83297 113.0941 -67.89889 L 100.39963 -72.130385 C 100.26041 -72.17679 100.12055 -72.22128 99.9801 -72.26384 L 87.09658 -76.16794 C 87.02605 -76.18931 86.95567 -76.21117 86.88544 -76.23352 L 74.381445 -80.21206 C 73.98782 -80.33731 73.59919 -80.47775 73.216435 -80.63307 L 61.24049 -85.49287 C 60.40883 -85.83036 59.60704 -86.23723 58.843604 -86.70917 L 49.224355 -92.65561 C 49.06865 -92.75186 48.914614 -92.85078 48.762306 -92.95232 L 43.87221 -96.21238 C 42.890814 -96.86665 42.0195 -97.67255 41.290784 -98.6 L 41.290784 -98.6 C 41.18518 -98.7344 40.990616 -98.75775 40.85621 -98.65215 C 40.75347 -98.57142 40.712493 -98.43487 40.75381 -98.31092 L 40.890784 -97.9 C 41.350035 -96.52225 41.454596 -95.05096 41.194805 -93.62211 L 40.799665 -91.44885 C 40.528455 -89.95719 40.04661 -88.51165 39.36858 -87.1556 L 37.836264 -84.09096 C 37.539565 -83.49756 37.206245 -82.92319 36.838234 -82.37117 L 33.63453 -77.56562 C 33.20593 -76.92272 32.73132 -76.31171 32.21443 -75.737385 L 27.652385 -70.668445 C 27.611318 -70.622815 27.56999 -70.57742 27.5284 -70.53227 L 21.534165 -64.02424 C 20.90643 -63.3427 20.22068 -62.71698 19.484645 -62.15413 L 14.46047 -58.31211 C 14.014322 -57.97094 13.55052 -57.653496 13.070988 -57.3611 L 6.584582 -53.405974 C 5.922924 -53.002524 5.232829 -52.64768 4.519746 -52.34424 L -2.5956647 -49.316404 C -3.4033295 -48.972717 -4.2379064 -48.696074 -5.090947 -48.489277 L -9.170006 -47.500414 C -9.994839 -47.300454 -10.834274 -47.16644 -11.680366 -47.099645 L -17.380575 -46.64963 C -17.799507 -46.616555 -18.21958 -46.6 -18.639814 -46.6 L -25.672132 -46.6 C -26.429234 -46.6 -27.18538 -46.653737 -27.934873 -46.76081 L -35.88132 -47.896014 C -36.36633 -47.9653 -36.8479 -48.05683 -37.324508 -48.170307 L -43.285736 -49.589647 C -44.431223 -49.86238 -45.5431 -50.260734 -46.60117 -50.777466 L -52.881176 -53.844444 C -53.366226 -54.08133 -53.83898 -54.34261 -54.297617 -54.62728 L -58.50948 -57.24154 C -59.10865 -57.61344 -59.682576 -58.024544 -60.227505 -58.472165 L -64.67361 -62.12432 C -64.89731 -62.30807 -65.115976 -62.49786 -65.329374 -62.69348 L -69.13172 -66.17896 C -69.58301 -66.592644 -70.01019 -67.03189 -70.41115 -67.494535 L -74.52989 -72.24693 C -74.84928 -72.61545 -75.15164 -72.99838 -75.43605 -73.39451 L -79.8657 -79.56439 C -80.360595 -80.2537 -80.79987 -80.9813 -81.17936 -81.74028 L -83.75582 -86.89321 C -83.79142 -86.9644 -83.82648 -87.03586 -83.86101 -87.10758 L -85.10922 -89.7 C -85.95993 -91.46687 -86.31545 -93.43141 -86.13791 -95.38436 L -85.95771 -97.36661 C -85.9339 -97.62848 -86.12688 -97.86006 -86.38875 -97.88386 C -86.55114 -97.89862 -86.7098 -97.82925 -86.80922 -97.7 L -86.80922 -97.7 C -87.47266 -96.83752 -88.25277 -96.07144 -89.12715 -95.42375 L -93.02368 -92.53743 C -93.14737 -92.44582 -93.27237 -92.35599 -93.39864 -92.26798 L -98.02089 -89.04641 C -99.20763 -88.21929 -100.50105 -87.55692 -101.8658 -87.07742 L -106.47292 -85.4587 C -106.9635 -85.28633 -107.44537 -85.09016 -107.91684 -84.87087 L -114.76362 -81.68632 C -115.45978 -81.36253 -116.17835 -81.08926 -116.91375 -80.86864 L -127.78414 -77.60752 C -127.80086 -77.60251 -127.81757 -77.59746 -127.83428 -77.59239 L -138.80236 -74.262795 C -138.94026 -74.22093 -139.07759 -74.17721 -139.2143 -74.13164 L -152.13554 -69.82456 C -152.18466 -69.80819 -152.23386 -69.79205 -152.28314 -69.776155 L -163.65054 -66.10925 C -164.28903 -65.90329 -164.91393 -65.65737 -165.52154 -65.372956 L -173.4535 -61.66012 C -173.82384 -61.48677 -174.1874 -61.29929 -174.54338 -61.09808 L -180.4895 -57.737235 C -181.74253 -57.029 -182.18417 -55.439075 -181.47594 -54.18604 C -181.39882 -54.0496 -181.30955 -53.9204 -181.20922 -53.8 L -180.3451 -52.763066 C -179.59016 -51.85713 -178.93769 -50.87051 -178.39957 -49.82118 L -175.32243 -43.820763 C -175.24696 -43.673596 -175.16921 -43.52761 -175.08922 -43.38285 L -171.13446 -36.226632 C -171.05097 -36.075553 -170.96993 -35.923133 -170.89137 -35.76943 L -166.78307 -27.731444 C -166.534 -27.244135 -166.3101 -26.744368 -166.11224 -26.234113 L -162.62947 -17.252235 C -162.61597 -17.21741 -162.60235 -17.182634 -162.5886 -17.147906 L -158.99228 -8.062459 C -158.87027 -7.754227 -158.75787 -7.442277 -158.65524 -7.127061 L -156.0334 .9257164 C -156.01728 .9752395 -156.0014 1.024841 -155.98576 1.0745192 L -152.91371 10.83279 C -152.71092 11.476952 -152.54911 12.133306 -152.42927 12.797915 L -150.44395 23.807372 C -150.4208 23.935787 -150.39921 24.06448 -150.3792 24.193423 L -148.67334 35.186805 C -148.6306 35.462223 -148.59506 35.73871 -148.56677 36.015984 L -147.67935 44.7127 C -147.63262 45.17069 -147.60567 45.63048 -147.59859 46.090793 L -147.41435 58.066414 C -147.41093 58.28878 -147.40287 58.511054 -147.39019 58.733086 L -146.61981 72.21465 C -146.61275 72.33821 -146.60425 72.46169 -146.59433 72.58506 L -145.26076 89.15943 C -145.22641 89.58631 -145.20922 90.01439 -145.20922 90.44264 L -145.20922 102.89242 C -145.20922 103.09746 -145.20528 103.30247 -145.1974 103.50735 L -144.61705 118.59649 C -144.61183 118.73216 -144.60834 118.86789 -144.60657 119.00365 L -144.41441 133.7999 C -144.41095 134.0666 -144.41416 134.33333 -144.42403 134.59986 L -144.99826 150.10401 C -145.00556 150.30132 -145.00922 150.49875 -145.00922 150.6962 L -145.00922 164.29243 C -145.00922 164.49746 -145.01316 164.70247 -145.02104 164.90736 L -145.60623 180.12236 C -145.60822 180.17412 -145.61047 180.22588 -145.61296 180.27762 L -146.40828 196.78055 C -146.4089 196.79352 -146.40955 196.80649 -146.4102 196.81945 L -147.2047 212.51062 C -147.20771 212.5702 -147.21106 212.62978 -147.21474 212.68933 L -148.40366 231.91007 C -148.40736 231.97003 -148.41141 232.02996 -148.4158 232.08987 L -150.19893 256.45942 C -150.20579 256.55314 -150.21347 256.6468 -150.22198 256.74038 L -152.00787 276.3852 C -152.00877 276.39507 -152.00968 276.40494 -152.0106 276.4148 L -153.78136 295.4997 C -153.79993 295.6999 -153.82227 295.8997 -153.84838 296.09903 L -155.80909 311.07175 C -155.9419 312.08594 -156.21104 313.07756 -156.60922 314.01973 L -156.60922 314.01973 C -157.0068 314.96048 -157.25546 315.9574 -157.34629 316.97465 L -158.10922 325.51973 C -158.61698 331.20676 -154.65851 336.32512 -149.02654 337.2638 Z" stroke="#7f8080" stroke-linecap="round" stroke-linejoin="round" stroke-width="1"/>
      <path d="M -238 51.446146 L -231.8 55.846146 L -223.6 59.846146 L -215 63.446146 L -206 67.246146 L -195 71.24615 L -185.6 74.04615 L -176.6 76.64615 L -167.6 79.24615 L -162.2 80.64615 L -156.6 81.64615 L -154.2 75.84615 L -151.6 70.44615 L -149.4 66.446146 L -146.8 63.046146 L -146.6 54.046146 L -147.2 43.046145 L -149 32.246145 L -150.6 21.846145 L -153.2 10.846145 L -155.6 1.2461448 L -158.4 -6.753855 L -161.6 -16.153855 L -164.4 -23.553856 L -168 -31.153856 L -172 -38.753856 L -176 -46.153856 L -178.6 -49.753856 L -182.2 -55.553856 L -187.6 -51.153856 L -192.4 -46.353856 L -197 -40.153856 L -201.4 -33.953856 L -206.2 -25.353856 L -211 -15.953855 L -215.8 -6.753855 L -219.4 1.8461449 L -223.4 10.846145 L -226.6 19.046145 L -230.4 28.446145 L -233.2 36.446145 L -236.2 44.846145 Z" fill="black"/>
      <path d="M -238 51.446146 L -231.8 55.846146 L -223.6 59.846146 L -215 63.446146 L -206 67.246146 L -195 71.24615 L -185.6 74.04615 L -176.6 76.64615 L -167.6 79.24615 L -162.2 80.64615 L -156.6 81.64615 L -154.2 75.84615 L -151.6 70.44615 L -149.4 66.446146 L -146.8 63.046146 L -146.6 54.046146 L -147.2 43.046145 L -149 32.246145 L -150.6 21.846145 L -153.2 10.846145 L -155.6 1.2461448 L -158.4 -6.753855 L -161.6 -16.153855 L -164.4 -23.553856 L -168 -31.153856 L -172 -38.753856 L -176 -46.153856 L -178.6 -49.753856 L -182.2 -55.553856 L -187.6 -51.153856 L -192.4 -46.353856 L -197 -40.153856 L -201.4 -33.953856 L -206.2 -25.353856 L -211 -15.953855 L -215.8 -6.753855 L -219.4 1.8461449 L -223.4 10.846145 L -226.6 19.046145 L -230.4 28.446145 L -233.2 36.446145 L -236.2 44.846145 Z" stroke="#7f8080" stroke-linecap="round" stroke-linejoin="round" stroke-width="1"/>
      <path d="M 193.4053 50.50275 L 187.2053 54.90275 L 179.00529 58.90275 L 170.40529 62.50275 L 161.40529 66.30275 L 150.40529 70.30275 L 141.00529 73.10275 L 132.00529 75.70275 L 123.00529 78.30275 L 117.60529 79.70275 L 112.00529 80.70275 L 109.60529 74.90275 L 107.00529 69.50275 L 104.80529 65.50275 L 102.20529 62.10275 L 102.00529 53.10275 L 102.60529 42.10275 L 104.40529 31.30275 L 106.00529 20.90275 L 108.60529 9.902749 L 111.00529 .3027486 L 113.80529 -7.6972515 L 117.00529 -17.097252 L 119.80529 -24.497252 L 123.40529 -32.09725 L 127.40529 -39.69725 L 131.40529 -47.09725 L 134.00529 -50.69725 L 137.60529 -56.49725 L 143.00529 -52.09725 L 147.80529 -47.29725 L 152.40529 -41.09725 L 156.80529 -34.89725 L 161.60529 -26.297252 L 166.40529 -16.897252 L 171.20529 -7.6972515 L 174.80529 .9027486 L 178.80529 9.902749 L 182.0053 18.102749 L 185.8053 27.50275 L 188.6053 35.50275 L 191.6053 43.90275 Z" fill="black"/>
      <path d="M 193.4053 50.50275 L 187.2053 54.90275 L 179.00529 58.90275 L 170.40529 62.50275 L 161.40529 66.30275 L 150.40529 70.30275 L 141.00529 73.10275 L 132.00529 75.70275 L 123.00529 78.30275 L 117.60529 79.70275 L 112.00529 80.70275 L 109.60529 74.90275 L 107.00529 69.50275 L 104.80529 65.50275 L 102.20529 62.10275 L 102.00529 53.10275 L 102.60529 42.10275 L 104.40529 31.30275 L 106.00529 20.90275 L 108.60529 9.902749 L 111.00529 .3027486 L 113.80529 -7.6972515 L 117.00529 -17.097252 L 119.80529 -24.497252 L 123.40529 -32.09725 L 127.40529 -39.69725 L 131.40529 -47.09725 L 134.00529 -50.69725 L 137.60529 -56.49725 L 143.00529 -52.09725 L 147.80529 -47.29725 L 152.40529 -41.09725 L 156.80529 -34.89725 L 161.60529 -26.297252 L 166.40529 -16.897252 L 171.20529 -7.6972515 L 174.80529 .9027486 L 178.80529 9.902749 L 182.0053 18.102749 L 185.8053 27.50275 L 188.6053 35.50275 L 191.6053 43.90275 Z" stroke="#7f8080" stroke-linecap="round" stroke-linejoin="round" stroke-width="1"/>
      <path d="M -238 51.446146 L -231.8 55.846146 L -223.6 59.846146 L -215 63.446146 L -206 67.246146 L -195 71.24615 L -185.6 74.04615 L -176.6 76.64615 L -167.6 79.24615 L -162.2 80.64615 L -156.6 81.64615 L -153.6 75.24615 L -157.4 74.44615 L -162.2 73.24615 L -167.8 72.04615 L -173.8 70.24615 L -178.4 68.846146 L -182.6 67.646146 L -187.2 65.646146 L -191.8 64.046146 L -196.6 62.046146 L -200.6 60.646146 L -205.8 58.446146 L -210.4 56.846146 L -215.2 54.646146 L -220 52.846146 L -224 50.846146 L -228.4 48.646146 L -232.8 46.446146 L -236.2 44.846145 Z" fill="url(#Obj_Gradient_2)"/>
      <path d="M -238 51.446146 L -231.8 55.846146 L -223.6 59.846146 L -215 63.446146 L -206 67.246146 L -195 71.24615 L -185.6 74.04615 L -176.6 76.64615 L -167.6 79.24615 L -162.2 80.64615 L -156.6 81.64615 L -153.6 75.24615 L -157.4 74.44615 L -162.2 73.24615 L -167.8 72.04615 L -173.8 70.24615 L -178.4 68.846146 L -182.6 67.646146 L -187.2 65.646146 L -191.8 64.046146 L -196.6 62.046146 L -200.6 60.646146 L -205.8 58.446146 L -210.4 56.846146 L -215.2 54.646146 L -220 52.846146 L -224 50.846146 L -228.4 48.646146 L -232.8 46.446146 L -236.2 44.846145 Z" stroke="#7f8080" stroke-linecap="round" stroke-linejoin="round" stroke-width="1"/>
      <path d="M 193.4053 50.50275 L 187.2053 54.90275 L 179.00529 58.90275 L 170.40529 62.50275 L 161.40529 66.30275 L 150.40529 70.30275 L 141.00529 73.10275 L 132.00529 75.70275 L 123.00529 78.30275 L 117.60529 79.70275 L 112.00529 80.70275 L 109.00529 74.30275 L 112.80529 73.50275 L 117.60529 72.30275 L 123.20529 71.10275 L 129.20529 69.30275 L 133.80529 67.90275 L 138.00529 66.70275 L 142.60529 64.70275 L 147.20529 63.10275 L 152.00529 61.10275 L 156.00529 59.70275 L 161.20529 57.50275 L 165.80529 55.90275 L 170.60529 53.70275 L 175.40529 51.90275 L 179.4053 49.90275 L 183.8053 47.70275 L 188.2053 45.50275 L 191.6053 43.90275 Z" fill="url(#Obj_Gradient_3)"/>
      <path d="M 193.4053 50.50275 L 187.2053 54.90275 L 179.00529 58.90275 L 170.40529 62.50275 L 161.40529 66.30275 L 150.40529 70.30275 L 141.00529 73.10275 L 132.00529 75.70275 L 123.00529 78.30275 L 117.60529 79.70275 L 112.00529 80.70275 L 109.00529 74.30275 L 112.80529 73.50275 L 117.60529 72.30275 L 123.20529 71.10275 L 129.20529 69.30275 L 133.80529 67.90275 L 138.00529 66.70275 L 142.60529 64.70275 L 147.20529 63.10275 L 152.00529 61.10275 L 156.00529 59.70275 L 161.20529 57.50275 L 165.80529 55.90275 L 170.60529 53.70275 L 175.40529 51.90275 L 179.4053 49.90275 L 183.8053 47.70275 L 188.2053 45.50275 L 191.6053 43.90275 Z" stroke="#7f8080" stroke-linecap="round" stroke-linejoin="round" stroke-width="1"/>
      <path d="M -87.94075 -98.24411 L -82.54075 -98.84411 L -75.74075 -95.44411 L -70.74075 -93.64411 L -62.34075 -91.84411 L -53.94075 -90.84411 L -45.94075 -89.84411 L -38.34075 -89.64411 L -29.74075 -89.24411 L -18.140751 -89.44411 L -9.740751 -89.84411 L -.34075113 -90.44411 L 8.059249 -91.24411 L 17.25925 -92.64411 L 25.45925 -94.84411 L 31.25925 -96.64411 L 36.85925 -99.24411 L 39.65925 -98.04411 L 40.05925 -92.44411 L 37.25925 -84.44411 L 31.85925 -81.64411 L 21.25925 -78.44411 L 9.859249 -76.04411 L -1.3407511 -75.24411 L -13.740751 -74.24411 L -24.140751 -74.24411 L -33.54075 -74.24411 L -45.14075 -74.84411 L -56.34075 -75.64411 L -66.94075 -77.84411 L -75.54075 -79.84411 L -81.74075 -82.64411 L -83.74075 -84.24411 L -86.94075 -91.84411 Z" fill="url(#Obj_Gradient_4)"/>
      <path d="M -87.94075 -98.24411 L -82.54075 -98.84411 L -75.74075 -95.44411 L -70.74075 -93.64411 L -62.34075 -91.84411 L -53.94075 -90.84411 L -45.94075 -89.84411 L -38.34075 -89.64411 L -29.74075 -89.24411 L -18.140751 -89.44411 L -9.740751 -89.84411 L -.34075113 -90.44411 L 8.059249 -91.24411 L 17.25925 -92.64411 L 25.45925 -94.84411 L 31.25925 -96.64411 L 36.85925 -99.24411 L 39.65925 -98.04411 L 40.05925 -92.44411 L 37.25925 -84.44411 L 31.85925 -81.64411 L 21.25925 -78.44411 L 9.859249 -76.04411 L -1.3407511 -75.24411 L -13.740751 -74.24411 L -24.140751 -74.24411 L -33.54075 -74.24411 L -45.14075 -74.84411 L -56.34075 -75.64411 L -66.94075 -77.84411 L -75.54075 -79.84411 L -81.74075 -82.64411 L -83.74075 -84.24411 L -86.94075 -91.84411 Z" stroke="#7f8080" stroke-linecap="round" stroke-linejoin="round" stroke-width="1"/>
      <path d="M -87.42788 -98.03621 L -92.15705 -93.98264 C -93.3074 -92.99662 -94.55236 -92.12669 -95.87379 -91.38552 L -98.40042 -89.96835 C -99.83559 -89.16338 -100.4164 -87.39425 -99.73761 -85.89527 L -98.72 -83.64803 C -98.59842 -83.37954 -98.47169 -83.11342 -98.33988 -82.8498 L -96.53761 -79.24526 L -94.05062 -74.27129 C -93.70883 -73.5877 -93.33317 -72.92157 -92.92505 -72.275375 L -90.59866 -68.59192 C -90.15828 -67.894655 -89.68072 -67.22158 -89.16805 -66.57561 L -85.75736 -62.27815 C -85.21131 -61.590125 -84.62629 -60.933944 -84.00518 -60.31283 L -79.339135 -55.64679 C -78.93825 -55.24591 -78.52269 -54.85999 -78.09329 -54.48982 L -73.529765 -50.555744 C -73.13511 -50.21552 -72.729 -49.88881 -72.31215 -49.576173 L -68.33721 -46.59497 C -67.6713 -46.095533 -66.97877 -45.632617 -66.26267 -45.20826 L -62.129606 -42.75904 C -62.00161 -42.68319 -61.87288 -42.608586 -61.74344 -42.535235 L -57.04589 -39.87329 C -56.3076 -39.454927 -55.546724 -39.07774 -54.76675 -38.743466 L -51.21693 -37.222117 C -50.63097 -36.97099 -50.03482 -36.744334 -49.430026 -36.542736 L -44.41192 -34.870034 C -43.164675 -34.454286 -41.88408 -34.146244 -40.584205 -33.949294 L -36.485358 -33.328256 C -36.120244 -33.272936 -35.75385 -33.226417 -35.3865 -33.18874 L -28.505395 -32.482985 C -28.26022 -32.45784 -28.014656 -32.436636 -27.7688 -32.419382 L -23.241654 -32.10169 C -22.70579 -32.064085 -22.168776 -32.045266 -21.631595 -32.045266 L -18.36954 -32.045264 C -17.415842 -32.045264 -16.463067 -32.10458 -15.516732 -32.222873 L -11.528017 -32.721463 C -10.868055 -32.803958 -10.211981 -32.91504 -9.561647 -33.0544 L -3.479614 -34.35769 C -2.585738 -34.549236 -1.704077 -34.793903 -.8393234 -35.09039 L 3.669525 -36.63628 C 4.4641733 -36.90873 5.243298 -37.224514 6.003397 -37.582207 L 10.836774 -39.856737 C 11.38697 -40.115653 11.926682 -40.396286 12.454637 -40.697975 L 16.222504 -42.85104 C 16.915294 -43.24692 17.587013 -43.678585 18.234938 -44.14428 L 22.911064 -47.505246 C 23.411747 -47.86511 23.897757 -48.244967 24.367916 -48.64389 L 29.688772 -53.158555 C 30.071084 -53.48294 30.442686 -53.81974 30.802983 -54.168416 L 35.5022 -58.716044 C 36.14179 -59.335 36.74491 -59.990565 37.308524 -60.679424 L 41.101807 -65.31566 C 41.60852 -65.93497 42.082566 -66.58031 42.522015 -67.24904 L 46.13919 -72.75344 C 46.354624 -73.08127 46.561634 -73.41456 46.76002 -73.75298 L 49.28311 -78.05708 C 49.66906 -78.71546 50.022 -79.39265 50.340624 -80.08612 L 52.459316 -84.69739 C 52.99218 -85.85715 53.363335 -87.08456 53.562393 -88.34526 L 53.562393 -88.34526 C 53.7407 -89.47453 53.161396 -90.58797 52.134316 -91.0901 L 46.84088 -93.678 C 45.52642 -94.32063 44.29183 -95.11514 43.162393 -96.04526 L 42.756384 -96.37963 C 41.912053 -97.07496 41.288644 -98.00126 40.962393 -99.04526 L 40.962393 -99.04526 C 40.91573 -99.19458 40.75686 -99.2778 40.607544 -99.23114 C 40.49247 -99.19518 40.412766 -99.09031 40.40892 -98.96981 L 40.299677 -95.54689 C 40.20894 -92.70381 39.5916 -89.90224 38.478993 -87.28433 L 37.60206 -85.22096 C 37.043493 -83.90669 36.36374 -82.64729 35.571604 -81.45909 L 31.885823 -75.93042 C 31.138313 -74.80915 30.293706 -73.75575 29.36175 -72.78238 L 23.066684 -66.20753 C 22.19861 -65.300875 21.257774 -64.466804 20.2536 -63.71367 L 11.878695 -57.432495 C 11.002277 -56.77518 10.080017 -56.181326 9.118957 -55.65546 L 1.9337563 -51.72394 C .6226328 -51.00653 -.7552956 -50.41863 -2.1804847 -49.96857 L -8.853394 -47.861334 C -10.570267 -47.319163 -12.344864 -46.98046 -14.140733 -46.852185 L -21.027185 -46.360296 C -22.099483 -46.283703 -23.175832 -46.282384 -24.248315 -46.35635 L -32.684573 -46.93816 C -33.71875 -47.00948 -34.74692 -47.15064 -35.762054 -47.360667 L -42.89726 -48.836916 C -44.84921 -49.24077 -46.740386 -49.89665 -48.52324 -50.78808 L -53.18265 -53.117785 C -54.41679 -53.734853 -55.592894 -54.461726 -56.69674 -55.28961 L -62.3787 -59.55108 C -62.81783 -59.88043 -63.24504 -60.2254 -63.65949 -60.58532 L -69.41467 -65.58324 C -70.22896 -66.29038 -70.9925 -67.05392 -71.69964 -67.86821 L -76.104865 -72.94089 C -76.85897 -73.80925 -77.54688 -74.73295 -78.1628 -75.70422 L -81.8965 -81.59198 C -82.25707 -82.16056 -82.59249 -82.7447 -82.90181 -83.34272 L -84.52219 -86.47544 C -85.13133 -87.65312 -85.6375 -88.88126 -86.03503 -90.14615 L -87.31527 -94.21964 C -87.53005 -94.90302 -87.71278 -95.59605 -87.86287 -96.29649 L -88.08829 -97.34843 C -88.17336 -97.74544 -87.94701 -98.14309 -87.5622 -98.27263 L -87.5622 -98.27263 C -87.48971 -98.29704 -87.41116 -98.25805 -87.38675 -98.18556 C -87.36874 -98.13205 -87.38501 -98.07296 -87.42788 -98.03621 Z" fill="url(#Obj_Gradient_5)"/>
      <path d="M -87.42788 -98.03621 L -92.15705 -93.98264 C -93.3074 -92.99662 -94.55236 -92.12669 -95.87379 -91.38552 L -98.40042 -89.96835 C -99.83559 -89.16338 -100.4164 -87.39425 -99.73761 -85.89527 L -98.72 -83.64803 C -98.59842 -83.37954 -98.47169 -83.11342 -98.33988 -82.8498 L -96.53761 -79.24526 L -94.05062 -74.27129 C -93.70883 -73.5877 -93.33317 -72.92157 -92.92505 -72.275375 L -90.59866 -68.59192 C -90.15828 -67.894655 -89.68072 -67.22158 -89.16805 -66.57561 L -85.75736 -62.27815 C -85.21131 -61.590125 -84.62629 -60.933944 -84.00518 -60.31283 L -79.339135 -55.64679 C -78.93825 -55.24591 -78.52269 -54.85999 -78.09329 -54.48982 L -73.529765 -50.555744 C -73.13511 -50.21552 -72.729 -49.88881 -72.31215 -49.576173 L -68.33721 -46.59497 C -67.6713 -46.095533 -66.97877 -45.632617 -66.26267 -45.20826 L -62.129606 -42.75904 C -62.00161 -42.68319 -61.87288 -42.608586 -61.74344 -42.535235 L -57.04589 -39.87329 C -56.3076 -39.454927 -55.546724 -39.07774 -54.76675 -38.743466 L -51.21693 -37.222117 C -50.63097 -36.97099 -50.03482 -36.744334 -49.430026 -36.542736 L -44.41192 -34.870034 C -43.164675 -34.454286 -41.88408 -34.146244 -40.584205 -33.949294 L -36.485358 -33.328256 C -36.120244 -33.272936 -35.75385 -33.226417 -35.3865 -33.18874 L -28.505395 -32.482985 C -28.26022 -32.45784 -28.014656 -32.436636 -27.7688 -32.419382 L -23.241654 -32.10169 C -22.70579 -32.064085 -22.168776 -32.045266 -21.631595 -32.045266 L -18.36954 -32.045264 C -17.415842 -32.045264 -16.463067 -32.10458 -15.516732 -32.222873 L -11.528017 -32.721463 C -10.868055 -32.803958 -10.211981 -32.91504 -9.561647 -33.0544 L -3.479614 -34.35769 C -2.585738 -34.549236 -1.704077 -34.793903 -.8393234 -35.09039 L 3.669525 -36.63628 C 4.4641733 -36.90873 5.243298 -37.224514 6.003397 -37.582207 L 10.836774 -39.856737 C 11.38697 -40.115653 11.926682 -40.396286 12.454637 -40.697975 L 16.222504 -42.85104 C 16.915294 -43.24692 17.587013 -43.678585 18.234938 -44.14428 L 22.911064 -47.505246 C 23.411747 -47.86511 23.897757 -48.244967 24.367916 -48.64389 L 29.688772 -53.158555 C 30.071084 -53.48294 30.442686 -53.81974 30.802983 -54.168416 L 35.5022 -58.716044 C 36.14179 -59.335 36.74491 -59.990565 37.308524 -60.679424 L 41.101807 -65.31566 C 41.60852 -65.93497 42.082566 -66.58031 42.522015 -67.24904 L 46.13919 -72.75344 C 46.354624 -73.08127 46.561634 -73.41456 46.76002 -73.75298 L 49.28311 -78.05708 C 49.66906 -78.71546 50.022 -79.39265 50.340624 -80.08612 L 52.459316 -84.69739 C 52.99218 -85.85715 53.363335 -87.08456 53.562393 -88.34526 L 53.562393 -88.34526 C 53.7407 -89.47453 53.161396 -90.58797 52.134316 -91.0901 L 46.84088 -93.678 C 45.52642 -94.32063 44.29183 -95.11514 43.162393 -96.04526 L 42.756384 -96.37963 C 41.912053 -97.07496 41.288644 -98.00126 40.962393 -99.04526 L 40.962393 -99.04526 C 40.91573 -99.19458 40.75686 -99.2778 40.607544 -99.23114 C 40.49247 -99.19518 40.412766 -99.09031 40.40892 -98.96981 L 40.299677 -95.54689 C 40.20894 -92.70381 39.5916 -89.90224 38.478993 -87.28433 L 37.60206 -85.22096 C 37.043493 -83.90669 36.36374 -82.64729 35.571604 -81.45909 L 31.885823 -75.93042 C 31.138313 -74.80915 30.293706 -73.75575 29.36175 -72.78238 L 23.066684 -66.20753 C 22.19861 -65.300875 21.257774 -64.466804 20.2536 -63.71367 L 11.878695 -57.432495 C 11.002277 -56.77518 10.080017 -56.181326 9.118957 -55.65546 L 1.9337563 -51.72394 C .6226328 -51.00653 -.7552956 -50.41863 -2.1804847 -49.96857 L -8.853394 -47.861334 C -10.570267 -47.319163 -12.344864 -46.98046 -14.140733 -46.852185 L -21.027185 -46.360296 C -22.099483 -46.283703 -23.175832 -46.282384 -24.248315 -46.35635 L -32.684573 -46.93816 C -33.71875 -47.00948 -34.74692 -47.15064 -35.762054 -47.360667 L -42.89726 -48.836916 C -44.84921 -49.24077 -46.740386 -49.89665 -48.52324 -50.78808 L -53.18265 -53.117785 C -54.41679 -53.734853 -55.592894 -54.461726 -56.69674 -55.28961 L -62.3787 -59.55108 C -62.81783 -59.88043 -63.24504 -60.2254 -63.65949 -60.58532 L -69.41467 -65.58324 C -70.22896 -66.29038 -70.9925 -67.05392 -71.69964 -67.86821 L -76.104865 -72.94089 C -76.85897 -73.80925 -77.54688 -74.73295 -78.1628 -75.70422 L -81.8965 -81.59198 C -82.25707 -82.16056 -82.59249 -82.7447 -82.90181 -83.34272 L -84.52219 -86.47544 C -85.13133 -87.65312 -85.6375 -88.88126 -86.03503 -90.14615 L -87.31527 -94.21964 C -87.53005 -94.90302 -87.71278 -95.59605 -87.86287 -96.29649 L -88.08829 -97.34843 C -88.17336 -97.74544 -87.94701 -98.14309 -87.5622 -98.27263 L -87.5622 -98.27263 C -87.48971 -98.29704 -87.41116 -98.25805 -87.38675 -98.18556 C -87.36874 -98.13205 -87.38501 -98.07296 -87.42788 -98.03621 Z" stroke="#7f8080" stroke-linecap="round" stroke-linejoin="round" stroke-width="1"/>
      <path d="M -158.18679 327.2 L -158.18679 327.2 C -158.25247 327.7255 -158.18964 328.25905 -158.0037 328.7549 L -157.3527 330.49092 C -157.17594 330.96227 -156.94885 331.41318 -156.67538 331.8358 L -155.70757 333.33153 C -155.1666 334.16756 -154.4535 334.87855 -153.61588 335.41702 L -152.53783 336.11005 C -152.23757 336.30307 -151.923 336.47285 -151.59684 336.6179 L -150.27999 337.2035 C -149.68346 337.46876 -149.05275 337.64928 -148.4062 337.7398 L -139.39579 339.00126 C -139.3858 339.00265 -139.3758 339.00403 -139.3658 339.0054 L -127.6498 340.594 C -127.6038 340.60024 -127.55774 340.606 -127.51162 340.61134 L -117.22869 341.79783 C -117.19676 341.8015 -117.16481 341.80498 -117.13284 341.8082 L -103.42277 343.1991 C -103.39479 343.20193 -103.36679 343.2046 -103.33877 343.2071 L -92.23347 344.19865 C -92.19836 344.2018 -92.16321 344.20466 -92.12805 344.20726 L -81.44152 344.99886 C -81.40104 345.00185 -81.36053 345.0045 -81.32001 345.0068 L -70.81202 345.6016 C -70.791205 345.60276 -70.77039 345.60404 -70.74958 345.6054 L -58.70681 346.3951 C -58.622806 346.4006 -58.53871 346.4046 -58.45457 346.40707 L -45.00744 346.80257 C -44.98968 346.8031 -44.971915 346.8037 -44.954154 346.80434 L -34.31029 347.19856 C -34.223968 347.20176 -34.137592 347.20335 -34.05121 347.20335 L -23.442193 347.20335 C -23.401262 347.20335 -23.36033 347.2037 -23.319405 347.20443 L -12.232982 347.39893 C -12.064912 347.40188 -11.89679 347.39877 -11.728943 347.3896 L -1.1077104 346.81028 C -1.0231067 346.80566 -.9384262 346.8026 -.8537107 346.80104 L 9.910852 346.60532 C 9.983083 346.604 10.05529 346.60158 10.127447 346.59803 L 22.146072 346.00695 C 22.194827 346.00455 22.243555 346.00165 22.292248 345.99823 L 33.532296 345.20945 C 33.590234 345.2054 33.64812 345.2006 33.705937 345.1951 L 46.11651 344.01313 C 46.18497 344.0066 46.25352 344.0011 46.322144 343.9966 L 58.254164 343.21418 C 58.36418 343.20696 58.474004 343.19715 58.583554 343.18475 L 68.9959 342.006 C 69.01144 342.00423 69.02697 342.00242 69.042494 342.00056 L 78.99021 340.80683 C 79.00954 340.8045 79.02886 340.8021 79.04818 340.79963 L 92.88394 339.0221 C 92.98115 339.0096 93.0781 338.99507 93.1747 338.9785 L 99.72819 337.85506 C 99.92915 337.8206 100.13153 337.79495 100.33473 337.77817 L 103.56706 337.5112 C 104.4563 337.43775 105.32329 337.19497 106.12135 336.79594 L 107.60765 336.0528 C 108.20824 335.7525 108.76249 335.36735 109.25338 334.9092 L 110.5885 333.6631 C 111.19532 333.0967 111.65073 332.38747 111.91322 331.6 L 112.20805 330.71552 C 112.27812 330.5053 112.33817 330.29187 112.388 330.07595 L 112.8577 328.04056 C 112.89293 327.88792 112.85949 327.72752 112.76621 327.6017 L 112.76621 327.6017 C 112.67587 327.4798 112.52523 327.4183 112.3754 327.44214 L 103.89555 328.7912 C 103.84466 328.7993 103.79385 328.80796 103.74315 328.8172 L 90.75839 331.17805 C 90.66561 331.1949 90.5725 331.2099 90.47911 331.223 L 79.24943 332.7991 C 79.22928 332.80194 79.209145 332.80486 79.18902 332.80786 L 66.06643 334.76645 C 65.90167 334.79105 65.73608 334.80975 65.56998 334.82253 L 52.845166 335.80136 C 52.82786 335.8027 52.81055 335.80396 52.793233 335.80516 L 38.453083 336.801 C 38.4305 336.80257 38.407907 336.80403 38.38531 336.80538 L 25.082054 337.5996 C 25.040156 337.6021 24.998237 337.60423 24.9563 337.60597 L 10.76485 338.1973 C 10.667764 338.20133 10.570605 338.20335 10.473436 338.20335 L -2.7807944 338.20335 L -15.322465 338.20335 C -15.36135 338.20335 -15.400236 338.20368 -15.439116 338.20433 L -27.197504 338.4003 C -27.319677 338.40234 -27.441882 338.40117 -27.563995 338.3968 L -38.397595 338.0099 C -38.519707 338.00554 -38.641913 338.00437 -38.764086 338.0064 L -50.478726 338.20165 C -50.54677 338.2028 -50.614824 338.20293 -50.68287 338.20208 L -66.385155 338.0058 C -66.51556 338.00417 -66.64589 337.9989 -66.77599 337.99 L -81.08577 337.00986 C -81.14912 337.00552 -81.2124 337.00032 -81.27561 336.99426 L -95.76661 335.6047 C -95.77607 335.6038 -95.78552 335.6029 -95.79497 335.60194 L -109.60701 334.22073 C -109.72285 334.20915 -109.83838 334.19468 -109.9535 334.17733 L -124.26265 332.02116 C -124.34141 332.0093 -124.42036 331.99877 -124.49948 331.9896 L -138.01941 330.42207 C -138.12699 330.4096 -138.23426 330.39463 -138.34114 330.37718 L -147.73323 328.84377 C -147.89822 328.81684 -148.0622 328.784 -148.22484 328.7453 L -157.30244 326.58654 C -157.69075 326.4942 -158.08041 326.73412 -158.17276 327.12244 C -158.17884 327.14802 -158.18353 327.1739 -158.18679 327.2 Z" fill="url(#Obj_Gradient_6)"/>
      <path d="M -158.18679 327.2 L -158.18679 327.2 C -158.25247 327.7255 -158.18964 328.25905 -158.0037 328.7549 L -157.3527 330.49092 C -157.17594 330.96227 -156.94885 331.41318 -156.67538 331.8358 L -155.70757 333.33153 C -155.1666 334.16756 -154.4535 334.87855 -153.61588 335.41702 L -152.53783 336.11005 C -152.23757 336.30307 -151.923 336.47285 -151.59684 336.6179 L -150.27999 337.2035 C -149.68346 337.46876 -149.05275 337.64928 -148.4062 337.7398 L -139.39579 339.00126 C -139.3858 339.00265 -139.3758 339.00403 -139.3658 339.0054 L -127.6498 340.594 C -127.6038 340.60024 -127.55774 340.606 -127.51162 340.61134 L -117.22869 341.79783 C -117.19676 341.8015 -117.16481 341.80498 -117.13284 341.8082 L -103.42277 343.1991 C -103.39479 343.20193 -103.36679 343.2046 -103.33877 343.2071 L -92.23347 344.19865 C -92.19836 344.2018 -92.16321 344.20466 -92.12805 344.20726 L -81.44152 344.99886 C -81.40104 345.00185 -81.36053 345.0045 -81.32001 345.0068 L -70.81202 345.6016 C -70.791205 345.60276 -70.77039 345.60404 -70.74958 345.6054 L -58.70681 346.3951 C -58.622806 346.4006 -58.53871 346.4046 -58.45457 346.40707 L -45.00744 346.80257 C -44.98968 346.8031 -44.971915 346.8037 -44.954154 346.80434 L -34.31029 347.19856 C -34.223968 347.20176 -34.137592 347.20335 -34.05121 347.20335 L -23.442193 347.20335 C -23.401262 347.20335 -23.36033 347.2037 -23.319405 347.20443 L -12.232982 347.39893 C -12.064912 347.40188 -11.89679 347.39877 -11.728943 347.3896 L -1.1077104 346.81028 C -1.0231067 346.80566 -.9384262 346.8026 -.8537107 346.80104 L 9.910852 346.60532 C 9.983083 346.604 10.05529 346.60158 10.127447 346.59803 L 22.146072 346.00695 C 22.194827 346.00455 22.243555 346.00165 22.292248 345.99823 L 33.532296 345.20945 C 33.590234 345.2054 33.64812 345.2006 33.705937 345.1951 L 46.11651 344.01313 C 46.18497 344.0066 46.25352 344.0011 46.322144 343.9966 L 58.254164 343.21418 C 58.36418 343.20696 58.474004 343.19715 58.583554 343.18475 L 68.9959 342.006 C 69.01144 342.00423 69.02697 342.00242 69.042494 342.00056 L 78.99021 340.80683 C 79.00954 340.8045 79.02886 340.8021 79.04818 340.79963 L 92.88394 339.0221 C 92.98115 339.0096 93.0781 338.99507 93.1747 338.9785 L 99.72819 337.85506 C 99.92915 337.8206 100.13153 337.79495 100.33473 337.77817 L 103.56706 337.5112 C 104.4563 337.43775 105.32329 337.19497 106.12135 336.79594 L 107.60765 336.0528 C 108.20824 335.7525 108.76249 335.36735 109.25338 334.9092 L 110.5885 333.6631 C 111.19532 333.0967 111.65073 332.38747 111.91322 331.6 L 112.20805 330.71552 C 112.27812 330.5053 112.33817 330.29187 112.388 330.07595 L 112.8577 328.04056 C 112.89293 327.88792 112.85949 327.72752 112.76621 327.6017 L 112.76621 327.6017 C 112.67587 327.4798 112.52523 327.4183 112.3754 327.44214 L 103.89555 328.7912 C 103.84466 328.7993 103.79385 328.80796 103.74315 328.8172 L 90.75839 331.17805 C 90.66561 331.1949 90.5725 331.2099 90.47911 331.223 L 79.24943 332.7991 C 79.22928 332.80194 79.209145 332.80486 79.18902 332.80786 L 66.06643 334.76645 C 65.90167 334.79105 65.73608 334.80975 65.56998 334.82253 L 52.845166 335.80136 C 52.82786 335.8027 52.81055 335.80396 52.793233 335.80516 L 38.453083 336.801 C 38.4305 336.80257 38.407907 336.80403 38.38531 336.80538 L 25.082054 337.5996 C 25.040156 337.6021 24.998237 337.60423 24.9563 337.60597 L 10.76485 338.1973 C 10.667764 338.20133 10.570605 338.20335 10.473436 338.20335 L -2.7807944 338.20335 L -15.322465 338.20335 C -15.36135 338.20335 -15.400236 338.20368 -15.439116 338.20433 L -27.197504 338.4003 C -27.319677 338.40234 -27.441882 338.40117 -27.563995 338.3968 L -38.397595 338.0099 C -38.519707 338.00554 -38.641913 338.00437 -38.764086 338.0064 L -50.478726 338.20165 C -50.54677 338.2028 -50.614824 338.20293 -50.68287 338.20208 L -66.385155 338.0058 C -66.51556 338.00417 -66.64589 337.9989 -66.77599 337.99 L -81.08577 337.00986 C -81.14912 337.00552 -81.2124 337.00032 -81.27561 336.99426 L -95.76661 335.6047 C -95.77607 335.6038 -95.78552 335.6029 -95.79497 335.60194 L -109.60701 334.22073 C -109.72285 334.20915 -109.83838 334.19468 -109.9535 334.17733 L -124.26265 332.02116 C -124.34141 332.0093 -124.42036 331.99877 -124.49948 331.9896 L -138.01941 330.42207 C -138.12699 330.4096 -138.23426 330.39463 -138.34114 330.37718 L -147.73323 328.84377 C -147.89822 328.81684 -148.0622 328.784 -148.22484 328.7453 L -157.30244 326.58654 C -157.69075 326.4942 -158.08041 326.73412 -158.17276 327.12244 C -158.17884 327.14802 -158.18353 327.1739 -158.18679 327.2 Z" stroke="#7f8080" stroke-linecap="round" stroke-linejoin="round" stroke-width="1"/>
    </g>
  </g>
</svg>
