<?xml version="1.0" encoding="UTF-8" standalone="no"?>
<!DOCTYPE svg PUBLIC "-//W3C//DTD SVG 1.1//EN" "http://www.w3.org/Graphics/SVG/1.1/DTD/svg11.dtd">
<svg xmlns="http://www.w3.org/2000/svg" xmlns:xl="http://www.w3.org/1999/xlink" version="1.1" viewBox="-157.5 -207.5 862 661" width="862pt" height="661pt" xmlns:dc="http://purl.org/dc/elements/1.1/">
  <metadata> Produced by OmniGraffle 7.6.1 
    <dc:date>2021-08-04 01:29:23 +0000</dc:date>
  </metadata>
  <defs>
    <linearGradient x1="0" x2="1" id="Gradient" gradientUnits="userSpaceOnUse">
      <stop offset="0" stop-color="#464646"/>
      <stop offset="1" stop-color="#f0f0f0"/>
    </linearGradient>
    <linearGradient id="Obj_Gradient" xl:href="#Gradient" gradientTransform="translate(319.3862 53.22196) rotate(72) scale(359.227)"/>
  </defs>
  <g stroke="none" stroke-opacity="1" stroke-dasharray="none" fill="none" fill-opacity="1">
    <title>Arizona Cardinals</title>
    <g>
      <title>Capa 1</title>
      <path d="M 311 379.04455 L 341 383.04455 L 372 377.04455 L 400 365.04455 L 422 347.04455 L 434 327.04455 L 442 300.04455 L 448 259.04455 L 436 216.04455 L 432 189.04455 L 428 152.04455 L 434 128.04455 L 437 102.04455 L 450 86.04455 L 466.77966 77.04455 L 459.77966 77.04455 L 452.77966 77.04455 L 438.77966 79.04455 L 420.77966 79.04455 L 398.77966 76.04455 L 402.77966 65.044554 L 390.77966 65.044554 L 374.77966 68.044554 L 361.77966 73.044554 L 348.77966 77.04455 L 341.77966 81.04455 L 333.77966 85.04455 L 317.77966 91.04455 L 306.77966 109.04455 L 298.77966 119.04455 L 289.77966 136.04455 L 283 163.04455 L 283 203.04455 L 290.77966 239.04455 L 302 274.04455 L 317 297.04455 L 317.27966 304.04455 L 316.77966 315.04455 L 316.77966 324.54455 L 317.27966 332.04455 L 316 340.04455 L 316.27966 353.54455 L 313 367.04455 L 309.77966 372.54455 L 305 378.04455 Z" fill="url(#Obj_Gradient)"/>
      <path d="M 311 379.04455 L 341 383.04455 L 372 377.04455 L 400 365.04455 L 422 347.04455 L 434 327.04455 L 442 300.04455 L 448 259.04455 L 436 216.04455 L 432 189.04455 L 428 152.04455 L 434 128.04455 L 437 102.04455 L 450 86.04455 L 466.77966 77.04455 L 459.77966 77.04455 L 452.77966 77.04455 L 438.77966 79.04455 L 420.77966 79.04455 L 398.77966 76.04455 L 402.77966 65.044554 L 390.77966 65.044554 L 374.77966 68.044554 L 361.77966 73.044554 L 348.77966 77.04455 L 341.77966 81.04455 L 333.77966 85.04455 L 317.77966 91.04455 L 306.77966 109.04455 L 298.77966 119.04455 L 289.77966 136.04455 L 283 163.04455 L 283 203.04455 L 290.77966 239.04455 L 302 274.04455 L 317 297.04455 L 317.27966 304.04455 L 316.77966 315.04455 L 316.77966 324.54455 L 317.27966 332.04455 L 316 340.04455 L 316.27966 353.54455 L 313 367.04455 L 309.77966 372.54455 L 305 378.04455 Z" stroke="black" stroke-linecap="round" stroke-linejoin="round" stroke-width="3"/>
      <path d="M -100 322 L -102 328 L -107 331 L -100 349 L -92 363 L -88 376 L -84 385 L -83 403 L -78 416 L -66 424 L -55 426 L -38 428 L -25 426 L -12 422 L 2 419 L 14 414 L 22 410 L 30 403 L 37 395 L 48 403 L 59 411 L 73 420 L 88 428 L 106 435 L 125 440 L 144 446 L 164 449 L 184 452 L 206 451 L 223 447 L 245 441 L 264 430 L 277 423 L 290 408 L 300 385 L 313 369.5 L 316 356 L 317.5 328 L 318 298.5 L 303 273 L 294 249 L 284 212 L 282 179 L 286 146 L 301 115 L 319 92 L 352 76 L 380 66 L 402 66 L 402 71 L 399 76 L 421 78 L 446 78 L 470 76 L 476 79 L 491 81 L 503 74 L 506 52 L 506 29 L 491 -10 L 482 -30 L 470 -47 L 454 -74 L 420 -110 L 390 -136 L 360 -158 L 327 -175 L 292 -190 L 258 -199 L 233 -203 L 207 -205 L 179 -206 L 155 -206 L 126 -204 L 99 -198 L 71 -191 L 45 -183 L 32 -177 L 15 -170 L -6 -158 L -34 -140 L -55 -122 L -76 -99 L -93 -78 L -107 -57 L -121 -30 L -134 -2 L -143 27 L -150 54 L -156 96 L -155 133 L -151 169 L -144 209 L -132 247 L -118 281 L -106 308 Z" fill="white"/>
      <path d="M -100 322 L -102 328 L -107 331 L -100 349 L -92 363 L -88 376 L -84 385 L -83 403 L -78 416 L -66 424 L -55 426 L -38 428 L -25 426 L -12 422 L 2 419 L 14 414 L 22 410 L 30 403 L 37 395 L 48 403 L 59 411 L 73 420 L 88 428 L 106 435 L 125 440 L 144 446 L 164 449 L 184 452 L 206 451 L 223 447 L 245 441 L 264 430 L 277 423 L 290 408 L 300 385 L 313 369.5 L 316 356 L 317.5 328 L 318 298.5 L 303 273 L 294 249 L 284 212 L 282 179 L 286 146 L 301 115 L 319 92 L 352 76 L 380 66 L 402 66 L 402 71 L 399 76 L 421 78 L 446 78 L 470 76 L 476 79 L 491 81 L 503 74 L 506 52 L 506 29 L 491 -10 L 482 -30 L 470 -47 L 454 -74 L 420 -110 L 390 -136 L 360 -158 L 327 -175 L 292 -190 L 258 -199 L 233 -203 L 207 -205 L 179 -206 L 155 -206 L 126 -204 L 99 -198 L 71 -191 L 45 -183 L 32 -177 L 15 -170 L -6 -158 L -34 -140 L -55 -122 L -76 -99 L -93 -78 L -107 -57 L -121 -30 L -134 -2 L -143 27 L -150 54 L -156 96 L -155 133 L -151 169 L -144 209 L -132 247 L -118 281 L -106 308 Z" stroke="black" stroke-linecap="round" stroke-linejoin="round" stroke-width="3"/>
      <path d="M 124 303 L 126.5 298.5 L 130 295 L 153 261 L 188 205.5 L 198 190 L 205 176 L 209 169.5 L 212 160 L 218 156 L 232 130 L 244 109 L 258 88 L 268 77 L 278 69 L 294 59 L 311 52 L 332 46 L 356 39 L 375 34 L 393.5 30 L 407 27.5 L 421 26 L 438.5 27.5 L 442 26 L 442 21 L 433 1 L 427 -12 L 423.5 -19.5 L 422 -25 L 424 -30 L 430 -35 L 442 -41 L 451 -43 L 457.5 -43 L 463 -41 L 467 -38 L 471 -29 L 479 -12 L 486 3 L 488 16 L 501 16 L 493 -4.5 L 487.5 -17 L 483 -28 L 486 -32 L 494 -37 L 504 -41 L 511 -41 L 514.5 -37 L 522.5 -19 L 533 3 L 540.5 20 L 547 38 L 547.5 44 L 545 50 L 540.5 52 L 528.5 53 L 520 53 L 515 51.5 L 511 49 L 504 38 L 500 35 L 492 36 L 488 44 L 477 54 L 458 53 L 446 51 L 440 48.5 L 438.5 48.5 L 431 46 L 411 49 L 378 57 L 360 60 L 332 68 L 316 73 L 301 79.5 L 293 84.5 L 279.5 99.5 L 266.5 118 L 258 133 L 248 152 L 239 169 L 229 185 L 217 207 L 207 225 L 225 233 L 245 246 L 257 259 L 259 266.5 L 256.5 275 L 252 284 L 247.5 289.5 L 244.5 292.5 L 240 295.5 L 230 299 L 225.5 300 L 222.5 299 L 219.5 297.5 L 210 292.5 L 193 283 L 176.5 273.5 L 173 275 L 161 291 L 159 294.5 L 158 297.5 L 161 299 L 166.5 299.5 L 185 301 L 201.5 304 L 221 307 L 238 309 L 269 315 L 309 323 L 359 329 L 397 332 L 434.5 329 L 475 324 L 516 319 L 569 310 L 599 305 L 623 301 L 650.5 294.5 L 668 286.5 L 669 296.5 L 675 307 L 669 311 L 647.5 316 L 629 319.5 L 602 327.5 L 578.5 332.5 L 548 338 L 524.5 341.5 L 503 343.5 L 476 347 L 447 350 L 418 352 L 430 373 L 435 382 L 440 392 L 449 400 L 461 409 L 479 417 L 496 424 L 515 428 L 531 429 L 549 429 L 576 426 L 596 423 L 610.5 419.5 L 617 417 L 622.5 413.5 L 622 404 L 620.5 382 L 617.5 361.5 L 613.5 343.5 L 611.5 332 L 609.5 324.5 L 609.8 324.6 L 629 319.5 L 632 335.5 L 635 351.5 L 637 362.5 L 639 373 L 640 389 L 641 411 L 646 412.5 L 655 411 L 676.5 405 L 684.5 397.5 L 686 386.5 L 684.5 376.5 L 683 359 L 679.5 341 L 677.5 325 L 675.5 316.5 L 674 309 L 674.5 308.5 L 692 302.5 L 695 312.5 L 698 329 L 701.5 351.5 L 703 373 L 703 385.5 L 703 394.5 L 702 406.5 L 699.5 412 L 694 418 L 685 423 L 665 427 L 636 433 L 613 438 L 593 443 L 567 447 L 543 449 L 526 449 L 511 447 L 496 444 L 483 440 L 469 434 L 457 429 L 445 423 L 434 416 L 426 409 L 418 398 L 408 383 L 397 364 L 394 355 L 362 352 L 313 345 L 275 338 L 232 330 L 197 323 L 164 319 L 139 317 L 129 315 L 125.5 309.5 Z" fill="#999"/>
      <path d="M 124 303 L 126.5 298.5 L 130 295 L 153 261 L 188 205.5 L 198 190 L 205 176 L 209 169.5 L 212 160 L 218 156 L 232 130 L 244 109 L 258 88 L 268 77 L 278 69 L 294 59 L 311 52 L 332 46 L 356 39 L 375 34 L 393.5 30 L 407 27.5 L 421 26 L 438.5 27.5 L 442 26 L 442 21 L 433 1 L 427 -12 L 423.5 -19.5 L 422 -25 L 424 -30 L 430 -35 L 442 -41 L 451 -43 L 457.5 -43 L 463 -41 L 467 -38 L 471 -29 L 479 -12 L 486 3 L 488 16 L 501 16 L 493 -4.5 L 487.5 -17 L 483 -28 L 486 -32 L 494 -37 L 504 -41 L 511 -41 L 514.5 -37 L 522.5 -19 L 533 3 L 540.5 20 L 547 38 L 547.5 44 L 545 50 L 540.5 52 L 528.5 53 L 520 53 L 515 51.5 L 511 49 L 504 38 L 500 35 L 492 36 L 488 44 L 477 54 L 458 53 L 446 51 L 440 48.5 L 438.5 48.5 L 431 46 L 411 49 L 378 57 L 360 60 L 332 68 L 316 73 L 301 79.5 L 293 84.5 L 279.5 99.5 L 266.5 118 L 258 133 L 248 152 L 239 169 L 229 185 L 217 207 L 207 225 L 225 233 L 245 246 L 257 259 L 259 266.5 L 256.5 275 L 252 284 L 247.5 289.5 L 244.5 292.5 L 240 295.5 L 230 299 L 225.5 300 L 222.5 299 L 219.5 297.5 L 210 292.5 L 193 283 L 176.5 273.5 L 173 275 L 161 291 L 159 294.5 L 158 297.5 L 161 299 L 166.5 299.5 L 185 301 L 201.5 304 L 221 307 L 238 309 L 269 315 L 309 323 L 359 329 L 397 332 L 434.5 329 L 475 324 L 516 319 L 569 310 L 599 305 L 623 301 L 650.5 294.5 L 668 286.5 L 669 296.5 L 675 307 L 669 311 L 647.5 316 L 629 319.5 L 602 327.5 L 578.5 332.5 L 548 338 L 524.5 341.5 L 503 343.5 L 476 347 L 447 350 L 418 352 L 430 373 L 435 382 L 440 392 L 449 400 L 461 409 L 479 417 L 496 424 L 515 428 L 531 429 L 549 429 L 576 426 L 596 423 L 610.5 419.5 L 617 417 L 622.5 413.5 L 622 404 L 620.5 382 L 617.5 361.5 L 613.5 343.5 L 611.5 332 L 609.5 324.5 L 609.8 324.6 L 629 319.5 L 632 335.5 L 635 351.5 L 637 362.5 L 639 373 L 640 389 L 641 411 L 646 412.5 L 655 411 L 676.5 405 L 684.5 397.5 L 686 386.5 L 684.5 376.5 L 683 359 L 679.5 341 L 677.5 325 L 675.5 316.5 L 674 309 L 674.5 308.5 L 692 302.5 L 695 312.5 L 698 329 L 701.5 351.5 L 703 373 L 703 385.5 L 703 394.5 L 702 406.5 L 699.5 412 L 694 418 L 685 423 L 665 427 L 636 433 L 613 438 L 593 443 L 567 447 L 543 449 L 526 449 L 511 447 L 496 444 L 483 440 L 469 434 L 457 429 L 445 423 L 434 416 L 426 409 L 418 398 L 408 383 L 397 364 L 394 355 L 362 352 L 313 345 L 275 338 L 232 330 L 197 323 L 164 319 L 139 317 L 129 315 L 125.5 309.5 Z" stroke="black" stroke-linecap="round" stroke-linejoin="round" stroke-width="3"/>
      <path d="M 212.4 177.5 L 209.8 173.1 L 209 168.1 L 209.2 166.5 L 210 165.1 L 211.1 162.7 L 212.6 160.3 L 214.4 157.5 L 218.2 155.9 L 223 156.7 L 228.2 161.3 L 231.6 165.7 L 238.6 177.7 L 247.6 188.7 L 257.6 199.7 L 268.6 212.7 L 280.1 222.2 L 292.1 232.7 L 301.1 237.2 L 311.1 240.7 L 321.6 244.7 L 332.1 247.2 L 341.1 248.2 L 347.6 249.2 L 336.6 225.7 L 326.6 204.2 L 319.6 188.7 L 308.1 164.2 L 301.6 147.7 L 292.6 128.7 L 280.1 107.2 L 268.1 90.7 L 264 85.1 L 264 81.9 L 267.4 77.5 L 270.6 74.3 L 274 71.3 L 277.8 69.5 L 281.6 70.7 L 283.6 72.7 L 298.6 94.7 L 310.6 121.7 L 322.6 146.7 L 372.6 251.7 L 408.6 249.7 L 444.6 247.7 L 475.6 242.7 L 506.6 238.7 L 513 236 L 501.5 201 L 488.5 173 L 478.6 149.7 L 457.6 103.7 L 451 87.5 L 449 81.5 L 450 78.5 L 452.5 77.5 L 471.5 76 L 475 78 L 484 101.5 L 499 142.5 L 525.6 209.7 L 533 232.5 L 563 227.5 L 620 220 L 635 214.5 L 645.5 205 L 652 206 L 659.6 209.7 L 671.6 221.7 L 681.6 257.7 L 689.6 283.7 L 693.6 302.7 L 673.6 308.2 L 673.5 304 L 663.6 279.7 L 656.6 253.7 L 653.1 239.7 L 650.6 236.2 L 644.1 235.2 L 622.6 238.7 L 609.6 239.7 L 605.6 240.7 L 610.6 249.7 L 614.6 261.7 L 620.1 283.2 L 624.1 300.2 L 605.1 304.2 L 596.6 271.7 L 589.6 252.7 L 586.1 246.7 L 580.6 244.7 L 536.6 251.7 L 492.6 255.7 L 448.6 262.7 L 408.6 265.7 L 387.6 266.7 L 383.6 266.7 L 380.6 268.7 L 381.1 273.2 L 412.1 330.7 L 387.6 331.2 L 384.6 330.2 L 378.1 317.7 L 371.6 303.2 L 365.1 288.7 L 360.6 276.7 L 357.1 270.7 L 355.1 267.7 L 351.1 266.2 L 343.6 265.2 L 331.6 263.7 L 317.6 260.7 L 294.6 253.7 L 282.1 247.7 L 269.6 239.7 L 251.6 224.7 L 236.1 206.7 L 225.6 194.7 Z" fill="#999"/>
      <path d="M 212.4 177.5 L 209.8 173.1 L 209 168.1 L 209.2 166.5 L 210 165.1 L 211.1 162.7 L 212.6 160.3 L 214.4 157.5 L 218.2 155.9 L 223 156.7 L 228.2 161.3 L 231.6 165.7 L 238.6 177.7 L 247.6 188.7 L 257.6 199.7 L 268.6 212.7 L 280.1 222.2 L 292.1 232.7 L 301.1 237.2 L 311.1 240.7 L 321.6 244.7 L 332.1 247.2 L 341.1 248.2 L 347.6 249.2 L 336.6 225.7 L 326.6 204.2 L 319.6 188.7 L 308.1 164.2 L 301.6 147.7 L 292.6 128.7 L 280.1 107.2 L 268.1 90.7 L 264 85.1 L 264 81.9 L 267.4 77.5 L 270.6 74.3 L 274 71.3 L 277.8 69.5 L 281.6 70.7 L 283.6 72.7 L 298.6 94.7 L 310.6 121.7 L 322.6 146.7 L 372.6 251.7 L 408.6 249.7 L 444.6 247.7 L 475.6 242.7 L 506.6 238.7 L 513 236 L 501.5 201 L 488.5 173 L 478.6 149.7 L 457.6 103.7 L 451 87.5 L 449 81.5 L 450 78.5 L 452.5 77.5 L 471.5 76 L 475 78 L 484 101.5 L 499 142.5 L 525.6 209.7 L 533 232.5 L 563 227.5 L 620 220 L 635 214.5 L 645.5 205 L 652 206 L 659.6 209.7 L 671.6 221.7 L 681.6 257.7 L 689.6 283.7 L 693.6 302.7 L 673.6 308.2 L 673.5 304 L 663.6 279.7 L 656.6 253.7 L 653.1 239.7 L 650.6 236.2 L 644.1 235.2 L 622.6 238.7 L 609.6 239.7 L 605.6 240.7 L 610.6 249.7 L 614.6 261.7 L 620.1 283.2 L 624.1 300.2 L 605.1 304.2 L 596.6 271.7 L 589.6 252.7 L 586.1 246.7 L 580.6 244.7 L 536.6 251.7 L 492.6 255.7 L 448.6 262.7 L 408.6 265.7 L 387.6 266.7 L 383.6 266.7 L 380.6 268.7 L 381.1 273.2 L 412.1 330.7 L 387.6 331.2 L 384.6 330.2 L 378.1 317.7 L 371.6 303.2 L 365.1 288.7 L 360.6 276.7 L 357.1 270.7 L 355.1 267.7 L 351.1 266.2 L 343.6 265.2 L 331.6 263.7 L 317.6 260.7 L 294.6 253.7 L 282.1 247.7 L 269.6 239.7 L 251.6 224.7 L 236.1 206.7 L 225.6 194.7 Z" stroke="black" stroke-linecap="round" stroke-linejoin="round" stroke-width="3"/>
      <path d="M 448.3764 274.5 L 446.3764 292.5 L 480.3764 297.5 L 511.3764 302.5 L 532.3764 305 L 536.3764 305 L 543.3764 307 L 546.3764 310.5 L 552.8764 334 L 562.8764 354.5 L 566.8764 363.5 L 573.8764 368.5 L 578.8764 372.5 L 590.8764 379.5 L 594.8764 382.5 L 605.8764 387.5 L 630.8764 397.5 L 656.3764 408.5 L 683.3764 421.5 L 686.8764 423 L 694.3764 419.5 L 698.3764 415 L 701.3764 411 L 701.8764 405 L 685.3764 399.5 L 663.8764 390.5 L 639.3764 378.5 L 615.8764 369.5 L 600.8764 362.5 L 587.8764 354.5 L 582.8764 345.5 L 577.8764 335.5 L 569.8764 310.5 L 643.3764 298.5 L 667.8764 288.5 L 663.8764 281.5 L 633.8764 284.5 L 592.3764 286.5 L 567.3764 286.5 L 559.8764 287 L 556.8764 283.5 L 554.3764 275.5 L 537.3764 230.5 L 602.8764 221 L 634.3764 215.5 L 646.3764 206.5 L 607.73355 207.85714 L 570.73355 208.35714 L 541.3764 208.5 L 525.3764 210 L 475.3764 80 L 470.3764 77 L 450.8764 79 L 449.3764 83.5 L 468.8764 128 L 484.3764 161.5 L 494.3764 185.5 L 503.3764 207 L 491.3764 202.5 L 482.8764 198.5 L 475.3764 189.5 L 458.3764 171.5 L 448.3764 157.5 L 431.3764 136.5 L 428 153.5 L 430.5 171.5 L 446.3764 190.5 L 463.3764 210.5 L 484.3764 222.5 L 510.3764 228.5 L 536.3764 285.5 L 485.3764 277.5 Z" fill="#999"/>
      <path d="M 448.3764 274.5 L 446.3764 292.5 L 480.3764 297.5 L 511.3764 302.5 L 532.3764 305 L 536.3764 305 L 543.3764 307 L 546.3764 310.5 L 552.8764 334 L 562.8764 354.5 L 566.8764 363.5 L 573.8764 368.5 L 578.8764 372.5 L 590.8764 379.5 L 594.8764 382.5 L 605.8764 387.5 L 630.8764 397.5 L 656.3764 408.5 L 683.3764 421.5 L 686.8764 423 L 694.3764 419.5 L 698.3764 415 L 701.3764 411 L 701.8764 405 L 685.3764 399.5 L 663.8764 390.5 L 639.3764 378.5 L 615.8764 369.5 L 600.8764 362.5 L 587.8764 354.5 L 582.8764 345.5 L 577.8764 335.5 L 569.8764 310.5 L 643.3764 298.5 L 667.8764 288.5 L 663.8764 281.5 L 633.8764 284.5 L 592.3764 286.5 L 567.3764 286.5 L 559.8764 287 L 556.8764 283.5 L 554.3764 275.5 L 537.3764 230.5 L 602.8764 221 L 634.3764 215.5 L 646.3764 206.5 L 607.73355 207.85714 L 570.73355 208.35714 L 541.3764 208.5 L 525.3764 210 L 475.3764 80 L 470.3764 77 L 450.8764 79 L 449.3764 83.5 L 468.8764 128 L 484.3764 161.5 L 494.3764 185.5 L 503.3764 207 L 491.3764 202.5 L 482.8764 198.5 L 475.3764 189.5 L 458.3764 171.5 L 448.3764 157.5 L 431.3764 136.5 L 428 153.5 L 430.5 171.5 L 446.3764 190.5 L 463.3764 210.5 L 484.3764 222.5 L 510.3764 228.5 L 536.3764 285.5 L 485.3764 277.5 Z" stroke="black" stroke-linecap="round" stroke-linejoin="round" stroke-width="3"/>
      <path d="M 101 293 L 124 260 L 125.2 251.2 L 124 246.8 L 122.2 241.4 L 119.8 236.8 L 117 231.8 L 113 228 L 108.2 224.6 L 101 221 L 91.6 217.8 L 85.6 216.8 L 79 217 L 76 217.4 L 73 218.5 L 67 221 L 60.5 225 L 58 227.5 L 55 231 L 52 239 L 50.8 247 L 50.6 252.2 L 50.6 257.4 L 51.4 262.4 L 52 266.2 L 53.4 271.2 L 54.8 274.8 L 57.2 277.8 L 59.6 281.2 L 62.2 283.4 L 65 286.2 L 69.8 289 L 75 292 L 81.8 293.8 L 89 294 Z" fill="black"/>
      <path d="M 101 293 L 124 260 L 125.2 251.2 L 124 246.8 L 122.2 241.4 L 119.8 236.8 L 117 231.8 L 113 228 L 108.2 224.6 L 101 221 L 91.6 217.8 L 85.6 216.8 L 79 217 L 76 217.4 L 73 218.5 L 67 221 L 60.5 225 L 58 227.5 L 55 231 L 52 239 L 50.8 247 L 50.6 252.2 L 50.6 257.4 L 51.4 262.4 L 52 266.2 L 53.4 271.2 L 54.8 274.8 L 57.2 277.8 L 59.6 281.2 L 62.2 283.4 L 65 286.2 L 69.8 289 L 75 292 L 81.8 293.8 L 89 294 Z" stroke="#7f8080" stroke-linecap="round" stroke-linejoin="round" stroke-width="1"/>
      <path d="M 223 -79 L 214 -88.5 L 197 -100.5 L 177.5 -108.5 L 156.5 -114.5 L 135.5 -116 L 117.5 -115 L 98.5 -110.5 L 83 -104.5 L 67 -96.5 L 53.5 -89.5 L 39.5 -82 L 25.5 -75 L 11 -67.5 L -2 -60 L -12.5 -56 L -28.5 -50 L -46.5 -46 L -63 -41.5 L -82.5 -37.5 L -106 -36 L -99.5 -29 L -90.5 -23.5 L -81 -18 L -70 -13 L -64 -12 L -74.5 -7.5 L -66 -3 L -56 1.5 L -44.5 5 L -33.5 7 L -27 8 L -37.5 12.5 L -27 19 L -15.5 24.5 L -4 28.5 L 11 32.5 L 30.5 34 L 38 42 L 49.5 51 L 59.5 56.5 L 73.5 62 L 87 65 L 101 68 L 115 71.5 L 126 78 L 131 84 L 141 78 L 154.5 73 L 167.5 70 L 185.5 67 L 199.5 65 L 219 65.5 L 231.5 67.5 L 245.5 69.5 L 252 70.5 L 249.5 59.5 L 247.5 42 L 248.5 24.5 L 253 6.5 L 259 -8.5 L 268.5 -23 L 279.5 -33 L 289.5 -40.5 L 285 -49.5 L 274 -60 L 260.5 -68 L 247 -74 L 234 -77.5 L 224.5 -78 Z" fill="black"/>
      <path d="M 223 -79 L 214 -88.5 L 197 -100.5 L 177.5 -108.5 L 156.5 -114.5 L 135.5 -116 L 117.5 -115 L 98.5 -110.5 L 83 -104.5 L 67 -96.5 L 53.5 -89.5 L 39.5 -82 L 25.5 -75 L 11 -67.5 L -2 -60 L -12.5 -56 L -28.5 -50 L -46.5 -46 L -63 -41.5 L -82.5 -37.5 L -106 -36 L -99.5 -29 L -90.5 -23.5 L -81 -18 L -70 -13 L -64 -12 L -74.5 -7.5 L -66 -3 L -56 1.5 L -44.5 5 L -33.5 7 L -27 8 L -37.5 12.5 L -27 19 L -15.5 24.5 L -4 28.5 L 11 32.5 L 30.5 34 L 38 42 L 49.5 51 L 59.5 56.5 L 73.5 62 L 87 65 L 101 68 L 115 71.5 L 126 78 L 131 84 L 141 78 L 154.5 73 L 167.5 70 L 185.5 67 L 199.5 65 L 219 65.5 L 231.5 67.5 L 245.5 69.5 L 252 70.5 L 249.5 59.5 L 247.5 42 L 248.5 24.5 L 253 6.5 L 259 -8.5 L 268.5 -23 L 279.5 -33 L 289.5 -40.5 L 285 -49.5 L 274 -60 L 260.5 -68 L 247 -74 L 234 -77.5 L 224.5 -78 Z" stroke="gray" stroke-linecap="round" stroke-linejoin="round" stroke-width=".25"/>
      <path d="M 65.45482 -42.79518 L 78.45482 -52.29518 L 92.45482 -59.29518 L 107.95482 -63.29518 L 124.45482 -66.79518 L 138.95482 -67.29518 L 152.95482 -66.29518 L 165.95482 -64.29518 L 175.95482 -63.79518 L 186.95482 -64.79518 L 197.95482 -67.79518 L 202.95482 -72.29518 L 208.45482 -77.29518 L 199.95482 -85.29518 L 188.45482 -93.29518 L 176.95482 -98.79518 L 161.95482 -102.79518 L 145.45482 -104.79518 L 127.45482 -104.29518 L 109.95482 -101.29518 L 90.45482 -94.79518 L 77.45482 -89.29518 L 60.45482 -79.79518 L 45.95482 -72.29518 L 30.95482 -64.29518 L 18.45482 -57.79518 L 5.954819 -51.79518 L -4.0451807 -45.79518 L -21.04518 -39.79518 L -36.04518 -35.29518 L -51.04518 -30.79518 L -67.04518 -28.29518 L -78.54518 -27.29518 L -71.04518 -24.29518 L -58.54518 -20.79518 L -45.54518 -18.29518 L -28.04518 -16.79518 L -12.045181 -17.79518 L 1.9548193 -20.79518 L -8.045181 -16.79518 L -37.54518 -4.2951807 L -28.04518 -1.7951807 L -13.54518 -.29518072 L -1.0451807 -.29518072 L 11.954819 -1.2951807 L 21.95482 -2.2951807 L 35.45482 -4.795181 L -7.045181 13.20482 L 7.454819 16.70482 L 19.95482 18.70482 L 34.95482 20.70482 L 45.45482 20.20482 L 56.45482 19.20482 L 67.95482 16.70482 L 49.45482 32.20482 L 58.45482 37.70482 L 68.45482 42.70482 L 78.45482 46.20482 L 89.95482 49.70482 L 100.95482 51.70482 L 110.45482 54.70482 L 120.45482 57.70482 L 126.95482 61.70482 L 127.95482 65.70482 L 137.45482 61.70482 L 149.95482 60.20482 L 164.45482 57.70482 L 177.45482 57.20482 L 194.45482 57.70482 L 196.45482 48.70482 L 196.95482 37.70482 L 192.95482 25.70482 L 185.95482 16.20482 L 178.95482 8.704819 L 169.45482 1.7048193 L 158.95482 -5.795181 L 148.45482 -11.795181 L 137.45482 -17.79518 L 123.45482 -25.29518 L 108.95482 -31.29518 L 94.95482 -35.79518 L 83.45482 -39.29518 L 73.45482 -41.79518 Z" fill="#ff4040"/>
      <path d="M 65.45482 -42.79518 L 78.45482 -52.29518 L 92.45482 -59.29518 L 107.95482 -63.29518 L 124.45482 -66.79518 L 138.95482 -67.29518 L 152.95482 -66.29518 L 165.95482 -64.29518 L 175.95482 -63.79518 L 186.95482 -64.79518 L 197.95482 -67.79518 L 202.95482 -72.29518 L 208.45482 -77.29518 L 199.95482 -85.29518 L 188.45482 -93.29518 L 176.95482 -98.79518 L 161.95482 -102.79518 L 145.45482 -104.79518 L 127.45482 -104.29518 L 109.95482 -101.29518 L 90.45482 -94.79518 L 77.45482 -89.29518 L 60.45482 -79.79518 L 45.95482 -72.29518 L 30.95482 -64.29518 L 18.45482 -57.79518 L 5.954819 -51.79518 L -4.0451807 -45.79518 L -21.04518 -39.79518 L -36.04518 -35.29518 L -51.04518 -30.79518 L -67.04518 -28.29518 L -78.54518 -27.29518 L -71.04518 -24.29518 L -58.54518 -20.79518 L -45.54518 -18.29518 L -28.04518 -16.79518 L -12.045181 -17.79518 L 1.9548193 -20.79518 L -8.045181 -16.79518 L -37.54518 -4.2951807 L -28.04518 -1.7951807 L -13.54518 -.29518072 L -1.0451807 -.29518072 L 11.954819 -1.2951807 L 21.95482 -2.2951807 L 35.45482 -4.795181 L -7.045181 13.20482 L 7.454819 16.70482 L 19.95482 18.70482 L 34.95482 20.70482 L 45.45482 20.20482 L 56.45482 19.20482 L 67.95482 16.70482 L 49.45482 32.20482 L 58.45482 37.70482 L 68.45482 42.70482 L 78.45482 46.20482 L 89.95482 49.70482 L 100.95482 51.70482 L 110.45482 54.70482 L 120.45482 57.70482 L 126.95482 61.70482 L 127.95482 65.70482 L 137.45482 61.70482 L 149.95482 60.20482 L 164.45482 57.70482 L 177.45482 57.20482 L 194.45482 57.70482 L 196.45482 48.70482 L 196.95482 37.70482 L 192.95482 25.70482 L 185.95482 16.20482 L 178.95482 8.704819 L 169.45482 1.7048193 L 158.95482 -5.795181 L 148.45482 -11.795181 L 137.45482 -17.79518 L 123.45482 -25.29518 L 108.95482 -31.29518 L 94.95482 -35.79518 L 83.45482 -39.29518 L 73.45482 -41.79518 Z" stroke="gray" stroke-linecap="round" stroke-linejoin="round" stroke-width=".25"/>
      <path d="M 128.06786 -55.02466 L 136.46786 -51.02466 L 144.06786 -50.02466 L 151.86786 -49.22466 L 160.06786 -48.82466 L 165.46786 -49.22466 L 171.06786 -49.42466 L 160.06786 -41.224657 L 162.66786 -39.624657 L 166.66786 -36.624657 L 172.46786 -34.824657 L 178.46786 -33.224657 L 183.26786 -33.624657 L 188.26786 -35.824657 L 191.06786 -37.424657 L 193.46786 -41.024657 L 195.26786 -46.62466 L 195.46786 -51.62466 L 194.26786 -57.02466 L 198.66786 -59.42466 L 199.46786 -56.42466 L 200.66786 -51.42466 L 200.66786 -47.22466 L 200.06786 -43.424657 L 199.46786 -40.824657 L 198.26786 -38.024657 L 196.66786 -35.024657 L 195.06786 -32.624657 L 192.46786 -30.624657 L 188.26786 -28.424657 L 184.26786 -26.624657 L 178.66786 -25.624657 L 172.66786 -25.024657 L 167.06786 -25.024657 L 160.66786 -27.024657 L 155.86786 -29.224657 L 150.26786 -32.224657 L 145.66786 -35.424657 L 141.06786 -39.624657 L 136.26786 -44.224657 L 132.06786 -48.22466 L 129.46786 -51.62466 Z" fill="white"/>
      <path d="M 128.06786 -55.02466 L 136.46786 -51.02466 L 144.06786 -50.02466 L 151.86786 -49.22466 L 160.06786 -48.82466 L 165.46786 -49.22466 L 171.06786 -49.42466 L 160.06786 -41.224657 L 162.66786 -39.624657 L 166.66786 -36.624657 L 172.46786 -34.824657 L 178.46786 -33.224657 L 183.26786 -33.624657 L 188.26786 -35.824657 L 191.06786 -37.424657 L 193.46786 -41.024657 L 195.26786 -46.62466 L 195.46786 -51.62466 L 194.26786 -57.02466 L 198.66786 -59.42466 L 199.46786 -56.42466 L 200.66786 -51.42466 L 200.66786 -47.22466 L 200.06786 -43.424657 L 199.46786 -40.824657 L 198.26786 -38.024657 L 196.66786 -35.024657 L 195.06786 -32.624657 L 192.46786 -30.624657 L 188.26786 -28.424657 L 184.26786 -26.624657 L 178.66786 -25.624657 L 172.66786 -25.024657 L 167.06786 -25.024657 L 160.66786 -27.024657 L 155.86786 -29.224657 L 150.26786 -32.224657 L 145.66786 -35.424657 L 141.06786 -39.624657 L 136.26786 -44.224657 L 132.06786 -48.22466 L 129.46786 -51.62466 Z" stroke="gray" stroke-linecap="round" stroke-linejoin="round" stroke-width=".25"/>
      <path d="M 208.45482 -29 L 220.45482 -36.5 L 236.95482 -43.5 L 251.45482 -47 L 262.45482 -48 L 276.95482 -48.5 L 267.95482 -55 L 257.95482 -60.5 L 246.45482 -64.5 L 235.95482 -66.5 L 226.45482 -68.5 L 217.45482 -70 L 219.95482 -62.5 L 217.95482 -51 L 215.95482 -42 L 210.95482 -32.5 Z" fill="yellow"/>
      <path d="M 208.45482 -29 L 220.45482 -36.5 L 236.95482 -43.5 L 251.45482 -47 L 262.45482 -48 L 276.95482 -48.5 L 267.95482 -55 L 257.95482 -60.5 L 246.45482 -64.5 L 235.95482 -66.5 L 226.45482 -68.5 L 217.45482 -70 L 219.95482 -62.5 L 217.95482 -51 L 215.95482 -42 L 210.95482 -32.5 Z" stroke="gray" stroke-linecap="round" stroke-linejoin="round" stroke-width=".25"/>
      <path d="M 214.22595 -15.725352 L 221.22595 -21.225352 L 231.22595 -27.725352 L 238.72595 -31.725352 L 249.22595 -36.72535 L 260.22595 -40.22535 L 270.22595 -41.22535 L 278.22595 -42.22535 L 270.22595 -36.22535 L 264.22595 -30.225352 L 257.72595 -25.225352 L 253.22595 -19.225352 L 248.22595 -13.225352 L 244.72595 -5.725352 L 240.72595 1.2746479 L 239.72595 6.274648 L 238.72595 10.774648 L 236.72595 4.774648 L 233.22595 -.7253521 L 230.22595 -4.725352 L 225.22595 -8.725352 L 221.22595 -11.725352 L 217.22595 -14.225352 Z" fill="yellow"/>
      <path d="M 214.22595 -15.725352 L 221.22595 -21.225352 L 231.22595 -27.725352 L 238.72595 -31.725352 L 249.22595 -36.72535 L 260.22595 -40.22535 L 270.22595 -41.22535 L 278.22595 -42.22535 L 270.22595 -36.22535 L 264.22595 -30.225352 L 257.72595 -25.225352 L 253.22595 -19.225352 L 248.22595 -13.225352 L 244.72595 -5.725352 L 240.72595 1.2746479 L 239.72595 6.274648 L 238.72595 10.774648 L 236.72595 4.774648 L 233.22595 -.7253521 L 230.22595 -4.725352 L 225.22595 -8.725352 L 221.22595 -11.725352 L 217.22595 -14.225352 Z" stroke="gray" stroke-linecap="round" stroke-linejoin="round" stroke-width=".25"/>
    </g>
  </g>
</svg>
