<?xml version="1.0" encoding="UTF-8" standalone="no"?>
<!DOCTYPE svg PUBLIC "-//W3C//DTD SVG 1.1//EN" "http://www.w3.org/Graphics/SVG/1.1/DTD/svg11.dtd">
<svg xmlns="http://www.w3.org/2000/svg" xmlns:xl="http://www.w3.org/1999/xlink" version="1.1" viewBox="-3436 1579 860.5 660" width="860.5pt" height="55pc" xmlns:dc="http://purl.org/dc/elements/1.1/">
  <metadata> Produced by OmniGraffle 7.6.1 
    <dc:date>2021-08-04 01:29:23 +0000</dc:date>
  </metadata>
  <defs>
    <linearGradient x1="0" x2="1" id="Gradient" gradientUnits="userSpaceOnUse">
      <stop offset="0" stop-color="#464646"/>
      <stop offset="1" stop-color="#f0f0f0"/>
    </linearGradient>
    <linearGradient id="Obj_Gradient" xl:href="#Gradient" gradientTransform="translate(-2959.6138 1839.222) rotate(72) scale(359.227)"/>
  </defs>
  <g stroke="none" stroke-opacity="1" stroke-dasharray="none" fill="none" fill-opacity="1">
    <title>Baltimore Ravens</title>
    <g>
      <title>Capa 1</title>
      <path d="M -2968 2165.0446 L -2938 2169.0446 L -2907 2163.0446 L -2879 2151.0446 L -2857 2133.0446 L -2845 2113.0446 L -2837 2086.0446 L -2831 2045.0446 L -2843 2002.0446 L -2847 1975.0446 L -2851 1938.0446 L -2845 1914.0446 L -2842 1888.0446 L -2829 1872.0446 L -2812.2203 1863.0446 L -2819.2203 1863.0446 L -2826.2203 1863.0446 L -2840.2203 1865.0446 L -2858.2203 1865.0446 L -2880.2203 1862.0446 L -2876.2203 1851.0446 L -2888.2203 1851.0446 L -2904.2203 1854.0446 L -2917.2203 1859.0446 L -2930.2203 1863.0446 L -2937.2203 1867.0446 L -2945.2203 1871.0446 L -2961.2203 1877.0446 L -2972.2203 1895.0446 L -2980.2203 1905.0446 L -2989.2203 1922.0446 L -2996 1949.0446 L -2996 1989.0446 L -2988.2203 2025.0446 L -2977 2060.0446 L -2962 2083.0446 L -2961.7203 2090.0446 L -2962.2203 2101.0446 L -2962.2203 2110.5446 L -2961.7203 2118.0446 L -2963 2126.0446 L -2962.7203 2139.5446 L -2966 2153.0446 L -2969.2203 2158.5446 L -2974 2164.0446 Z" fill="url(#Obj_Gradient)"/>
      <path d="M -2968 2165.0446 L -2938 2169.0446 L -2907 2163.0446 L -2879 2151.0446 L -2857 2133.0446 L -2845 2113.0446 L -2837 2086.0446 L -2831 2045.0446 L -2843 2002.0446 L -2847 1975.0446 L -2851 1938.0446 L -2845 1914.0446 L -2842 1888.0446 L -2829 1872.0446 L -2812.2203 1863.0446 L -2819.2203 1863.0446 L -2826.2203 1863.0446 L -2840.2203 1865.0446 L -2858.2203 1865.0446 L -2880.2203 1862.0446 L -2876.2203 1851.0446 L -2888.2203 1851.0446 L -2904.2203 1854.0446 L -2917.2203 1859.0446 L -2930.2203 1863.0446 L -2937.2203 1867.0446 L -2945.2203 1871.0446 L -2961.2203 1877.0446 L -2972.2203 1895.0446 L -2980.2203 1905.0446 L -2989.2203 1922.0446 L -2996 1949.0446 L -2996 1989.0446 L -2988.2203 2025.0446 L -2977 2060.0446 L -2962 2083.0446 L -2961.7203 2090.0446 L -2962.2203 2101.0446 L -2962.2203 2110.5446 L -2961.7203 2118.0446 L -2963 2126.0446 L -2962.7203 2139.5446 L -2966 2153.0446 L -2969.2203 2158.5446 L -2974 2164.0446 Z" stroke="black" stroke-linecap="round" stroke-linejoin="round" stroke-width="1"/>
      <path d="M -3379 2108 L -3381 2114 L -3386 2117 L -3379 2135 L -3371 2149 L -3367 2162 L -3363 2171 L -3362 2189 L -3357 2202 L -3345 2210 L -3334 2212 L -3317 2214 L -3304 2212 L -3291 2208 L -3277 2205 L -3265 2200 L -3257 2196 L -3249 2189 L -3242 2181 L -3231 2189 L -3220 2197 L -3206 2206 L -3191 2214 L -3173 2221 L -3154 2226 L -3135 2232 L -3115 2235 L -3095 2238 L -3073 2237 L -3056 2233 L -3034 2227 L -3015 2216 L -3002 2209 L -2989 2194 L -2979 2171 L -2966 2155.5 L -2963 2142 L -2961.5 2114 L -2961 2084.5 L -2976 2059 L -2985 2035 L -2995 1998 L -2997 1965 L -2993 1932 L -2978 1901 L -2960 1878 L -2927 1862 L -2899 1852 L -2877 1852 L -2877 1857 L -2880 1862 L -2858 1864 L -2833 1864 L -2809 1862 L -2803 1865 L -2788 1867 L -2776 1860 L -2773 1838 L -2773 1815 L -2788 1776 L -2797 1756 L -2809 1739 L -2825 1712 L -2859 1676 L -2889 1650 L -2919 1628 L -2952 1611 L -2987 1596 L -3021 1587 L -3046 1583 L -3072 1581 L -3100 1580 L -3124 1580 L -3153 1582 L -3180 1588 L -3208 1595 L -3234 1603 L -3247 1609 L -3264 1616 L -3285 1628 L -3313 1646 L -3334 1664 L -3355 1687 L -3372 1708 L -3386 1729 L -3400 1756 L -3413 1784 L -3422 1813 L -3429 1840 L -3435 1882 L -3434 1919 L -3430 1955 L -3423 1995 L -3411 2033 L -3397 2067 L -3385 2094 Z" fill="black"/>
      <path d="M -3379 2108 L -3381 2114 L -3386 2117 L -3379 2135 L -3371 2149 L -3367 2162 L -3363 2171 L -3362 2189 L -3357 2202 L -3345 2210 L -3334 2212 L -3317 2214 L -3304 2212 L -3291 2208 L -3277 2205 L -3265 2200 L -3257 2196 L -3249 2189 L -3242 2181 L -3231 2189 L -3220 2197 L -3206 2206 L -3191 2214 L -3173 2221 L -3154 2226 L -3135 2232 L -3115 2235 L -3095 2238 L -3073 2237 L -3056 2233 L -3034 2227 L -3015 2216 L -3002 2209 L -2989 2194 L -2979 2171 L -2966 2155.5 L -2963 2142 L -2961.5 2114 L -2961 2084.5 L -2976 2059 L -2985 2035 L -2995 1998 L -2997 1965 L -2993 1932 L -2978 1901 L -2960 1878 L -2927 1862 L -2899 1852 L -2877 1852 L -2877 1857 L -2880 1862 L -2858 1864 L -2833 1864 L -2809 1862 L -2803 1865 L -2788 1867 L -2776 1860 L -2773 1838 L -2773 1815 L -2788 1776 L -2797 1756 L -2809 1739 L -2825 1712 L -2859 1676 L -2889 1650 L -2919 1628 L -2952 1611 L -2987 1596 L -3021 1587 L -3046 1583 L -3072 1581 L -3100 1580 L -3124 1580 L -3153 1582 L -3180 1588 L -3208 1595 L -3234 1603 L -3247 1609 L -3264 1616 L -3285 1628 L -3313 1646 L -3334 1664 L -3355 1687 L -3372 1708 L -3386 1729 L -3400 1756 L -3413 1784 L -3422 1813 L -3429 1840 L -3435 1882 L -3434 1919 L -3430 1955 L -3423 1995 L -3411 2033 L -3397 2067 L -3385 2094 Z" stroke="#666" stroke-linecap="round" stroke-linejoin="round" stroke-width="2"/>
      <path d="M -3066.6 1963.5 L -3069.2 1959.1 L -3070 1954.1 L -3069.8 1952.5 L -3069 1951.1 L -3067.9 1948.7 L -3066.4 1946.3 L -3064.6 1943.5 L -3060.8 1941.9 L -3056 1942.7 L -3050.8 1947.3 L -3047.4 1951.7 L -3040.4 1963.7 L -3031.4 1974.7 L -3021.4 1985.7 L -3010.4 1998.7 L -2998.9 2008.2 L -2986.9 2018.7 L -2977.9 2023.2 L -2967.9 2026.7 L -2957.4 2030.7 L -2946.9 2033.2 L -2937.9 2034.2 L -2931.4 2035.2 L -2942.4 2011.7 L -2952.4 1990.2 L -2959.4 1974.7 L -2970.9 1950.2 L -2977.4 1933.7 L -2986.4 1914.7 L -2998.9 1893.2 L -3010.9 1876.7 L -3015 1871.1 L -3015 1867.9 L -3011.6 1863.5 L -3008.4 1860.3 L -3005 1857.3 L -3001.2 1855.5 L -2997.4 1856.7 L -2995.4 1858.7 L -2980.4 1880.7 L -2968.4 1907.7 L -2956.4 1932.7 L -2906.4 2037.7 L -2870.4 2035.7 L -2834.4 2033.7 L -2803.4 2028.7 L -2772.4 2024.7 L -2766 2022 L -2777.5 1987 L -2790.5 1959 L -2800.4 1935.7 L -2821.4 1889.7 L -2828 1873.5 L -2830 1867.5 L -2829 1864.5 L -2826.5 1863.5 L -2807.5 1862 L -2804 1864 L -2795 1887.5 L -2780 1928.5 L -2753.4 1995.7 L -2746 2018.5 L -2716 2013.5 L -2659 2006 L -2644 2000.5 L -2633.5 1991 L -2627 1992 L -2619.4 1995.7 L -2607.4 2007.7 L -2597.4 2043.7 L -2589.4 2069.7 L -2585.4 2088.7 L -2605.4 2094.2 L -2605.5 2090 L -2615.4 2065.7 L -2622.4 2039.7 L -2625.9 2025.7 L -2628.4 2022.2 L -2634.9 2021.2 L -2656.4 2024.7 L -2669.4 2025.7 L -2673.4 2026.7 L -2668.4 2035.7 L -2664.4 2047.7 L -2658.9 2069.2 L -2654.9 2086.2 L -2673.9 2090.2 L -2682.4 2057.7 L -2689.4 2038.7 L -2692.9 2032.7 L -2698.4 2030.7 L -2742.4 2037.7 L -2786.4 2041.7 L -2830.4 2048.7 L -2870.4 2051.7 L -2891.4 2052.7 L -2895.4 2052.7 L -2898.4 2054.7 L -2897.9 2059.2 L -2866.9 2116.7 L -2891.4 2117.2 L -2894.4 2116.2 L -2900.9 2103.7 L -2907.4 2089.2 L -2913.9 2074.7 L -2918.4 2062.7 L -2921.9 2056.7 L -2923.9 2053.7 L -2927.9 2052.2 L -2935.4 2051.2 L -2947.4 2049.7 L -2961.4 2046.7 L -2984.4 2039.7 L -2996.9 2033.7 L -3009.4 2025.7 L -3027.4 2010.7 L -3042.9 1992.7 L -3053.4 1980.7 Z" fill="#2c1a7b"/>
      <path d="M -3066.6 1963.5 L -3069.2 1959.1 L -3070 1954.1 L -3069.8 1952.5 L -3069 1951.1 L -3067.9 1948.7 L -3066.4 1946.3 L -3064.6 1943.5 L -3060.8 1941.9 L -3056 1942.7 L -3050.8 1947.3 L -3047.4 1951.7 L -3040.4 1963.7 L -3031.4 1974.7 L -3021.4 1985.7 L -3010.4 1998.7 L -2998.9 2008.2 L -2986.9 2018.7 L -2977.9 2023.2 L -2967.9 2026.7 L -2957.4 2030.7 L -2946.9 2033.2 L -2937.9 2034.2 L -2931.4 2035.2 L -2942.4 2011.7 L -2952.4 1990.2 L -2959.4 1974.7 L -2970.9 1950.2 L -2977.4 1933.7 L -2986.4 1914.7 L -2998.9 1893.2 L -3010.9 1876.7 L -3015 1871.1 L -3015 1867.9 L -3011.6 1863.5 L -3008.4 1860.3 L -3005 1857.3 L -3001.2 1855.5 L -2997.4 1856.7 L -2995.4 1858.7 L -2980.4 1880.7 L -2968.4 1907.7 L -2956.4 1932.7 L -2906.4 2037.7 L -2870.4 2035.7 L -2834.4 2033.7 L -2803.4 2028.7 L -2772.4 2024.7 L -2766 2022 L -2777.5 1987 L -2790.5 1959 L -2800.4 1935.7 L -2821.4 1889.7 L -2828 1873.5 L -2830 1867.5 L -2829 1864.5 L -2826.5 1863.5 L -2807.5 1862 L -2804 1864 L -2795 1887.5 L -2780 1928.5 L -2753.4 1995.7 L -2746 2018.5 L -2716 2013.5 L -2659 2006 L -2644 2000.5 L -2633.5 1991 L -2627 1992 L -2619.4 1995.7 L -2607.4 2007.7 L -2597.4 2043.7 L -2589.4 2069.7 L -2585.4 2088.7 L -2605.4 2094.2 L -2605.5 2090 L -2615.4 2065.7 L -2622.4 2039.7 L -2625.9 2025.7 L -2628.4 2022.2 L -2634.9 2021.2 L -2656.4 2024.7 L -2669.4 2025.7 L -2673.4 2026.7 L -2668.4 2035.7 L -2664.4 2047.7 L -2658.9 2069.2 L -2654.9 2086.2 L -2673.9 2090.2 L -2682.4 2057.7 L -2689.4 2038.7 L -2692.9 2032.7 L -2698.4 2030.7 L -2742.4 2037.7 L -2786.4 2041.7 L -2830.4 2048.7 L -2870.4 2051.7 L -2891.4 2052.7 L -2895.4 2052.7 L -2898.4 2054.7 L -2897.9 2059.2 L -2866.9 2116.7 L -2891.4 2117.2 L -2894.4 2116.2 L -2900.9 2103.7 L -2907.4 2089.2 L -2913.9 2074.7 L -2918.4 2062.7 L -2921.9 2056.7 L -2923.9 2053.7 L -2927.9 2052.2 L -2935.4 2051.2 L -2947.4 2049.7 L -2961.4 2046.7 L -2984.4 2039.7 L -2996.9 2033.7 L -3009.4 2025.7 L -3027.4 2010.7 L -3042.9 1992.7 L -3053.4 1980.7 Z" stroke="black" stroke-linecap="round" stroke-linejoin="round" stroke-width="1"/>
      <path d="M -2830.6236 2060.5 L -2832.6236 2078.5 L -2798.6236 2083.5 L -2767.6236 2088.5 L -2746.6236 2091 L -2742.6236 2091 L -2735.6236 2093 L -2732.6236 2096.5 L -2726.1236 2120 L -2716.1236 2140.5 L -2712.1236 2149.5 L -2705.1236 2154.5 L -2700.1236 2158.5 L -2688.1236 2165.5 L -2684.1236 2168.5 L -2673.1236 2173.5 L -2648.1236 2183.5 L -2622.6236 2194.5 L -2595.6236 2207.5 L -2592.1236 2209 L -2584.6236 2205.5 L -2580.6236 2201 L -2577.6236 2197 L -2577.1236 2191 L -2593.6236 2185.5 L -2615.1236 2176.5 L -2639.6236 2164.5 L -2663.1236 2155.5 L -2678.1236 2148.5 L -2691.1236 2140.5 L -2696.1236 2131.5 L -2701.1236 2121.5 L -2709.1236 2096.5 L -2635.6236 2084.5 L -2611.1236 2074.5 L -2615.1236 2067.5 L -2645.1236 2070.5 L -2686.6236 2072.5 L -2711.6236 2072.5 L -2719.1236 2073 L -2722.1236 2069.5 L -2724.6236 2061.5 L -2741.6236 2016.5 L -2676.1236 2007 L -2644.6236 2001.5 L -2632.6236 1992.5 L -2671.2665 1993.8571 L -2708.2665 1994.3571 L -2737.6236 1994.5 L -2753.6236 1996 L -2803.6236 1866 L -2808.6236 1863 L -2828.1236 1865 L -2829.6236 1869.5 L -2810.1236 1914 L -2794.6236 1947.5 L -2784.6236 1971.5 L -2775.6236 1993 L -2787.6236 1988.5 L -2796.1236 1984.5 L -2803.6236 1975.5 L -2820.6236 1957.5 L -2830.6236 1943.5 L -2847.6236 1922.5 L -2851 1939.5 L -2848.5 1957.5 L -2832.6236 1976.5 L -2815.6236 1996.5 L -2794.6236 2008.5 L -2768.6236 2014.5 L -2742.6236 2071.5 L -2793.6236 2063.5 Z" fill="#2d1b85"/>
      <path d="M -2830.6236 2060.5 L -2832.6236 2078.5 L -2798.6236 2083.5 L -2767.6236 2088.5 L -2746.6236 2091 L -2742.6236 2091 L -2735.6236 2093 L -2732.6236 2096.5 L -2726.1236 2120 L -2716.1236 2140.5 L -2712.1236 2149.5 L -2705.1236 2154.5 L -2700.1236 2158.5 L -2688.1236 2165.5 L -2684.1236 2168.5 L -2673.1236 2173.5 L -2648.1236 2183.5 L -2622.6236 2194.5 L -2595.6236 2207.5 L -2592.1236 2209 L -2584.6236 2205.5 L -2580.6236 2201 L -2577.6236 2197 L -2577.1236 2191 L -2593.6236 2185.5 L -2615.1236 2176.5 L -2639.6236 2164.5 L -2663.1236 2155.5 L -2678.1236 2148.5 L -2691.1236 2140.5 L -2696.1236 2131.5 L -2701.1236 2121.5 L -2709.1236 2096.5 L -2635.6236 2084.5 L -2611.1236 2074.5 L -2615.1236 2067.5 L -2645.1236 2070.5 L -2686.6236 2072.5 L -2711.6236 2072.5 L -2719.1236 2073 L -2722.1236 2069.5 L -2724.6236 2061.5 L -2741.6236 2016.5 L -2676.1236 2007 L -2644.6236 2001.5 L -2632.6236 1992.5 L -2671.2665 1993.8571 L -2708.2665 1994.3571 L -2737.6236 1994.5 L -2753.6236 1996 L -2803.6236 1866 L -2808.6236 1863 L -2828.1236 1865 L -2829.6236 1869.5 L -2810.1236 1914 L -2794.6236 1947.5 L -2784.6236 1971.5 L -2775.6236 1993 L -2787.6236 1988.5 L -2796.1236 1984.5 L -2803.6236 1975.5 L -2820.6236 1957.5 L -2830.6236 1943.5 L -2847.6236 1922.5 L -2851 1939.5 L -2848.5 1957.5 L -2832.6236 1976.5 L -2815.6236 1996.5 L -2794.6236 2008.5 L -2768.6236 2014.5 L -2742.6236 2071.5 L -2793.6236 2063.5 Z" stroke="black" stroke-linecap="round" stroke-linejoin="round" stroke-width="1"/>
      <path d="M -3178 2079 L -3155 2046 L -3153.8 2037.2 L -3155 2032.8 L -3156.8 2027.4 L -3159.2 2022.8 L -3162 2017.8 L -3166 2014 L -3170.8 2010.6 L -3178 2007 L -3187.4 2003.8 L -3193.4 2002.8 L -3200 2003 L -3203 2003.4 L -3206 2004.5 L -3212 2007 L -3218.5 2011 L -3221 2013.5 L -3224 2017 L -3227 2025 L -3228.2 2033 L -3228.4 2038.2 L -3228.4 2043.4 L -3227.6 2048.4 L -3227 2052.2 L -3225.6 2057.2 L -3224.2 2060.8 L -3221.8 2063.8 L -3219.4 2067.2 L -3216.8 2069.4 L -3214 2072.2 L -3209.2 2075 L -3204 2078 L -3197.2 2079.8 L -3190 2080 Z" fill="#1c104c"/>
      <path d="M -3178 2079 L -3155 2046 L -3153.8 2037.2 L -3155 2032.8 L -3156.8 2027.4 L -3159.2 2022.8 L -3162 2017.8 L -3166 2014 L -3170.8 2010.6 L -3178 2007 L -3187.4 2003.8 L -3193.4 2002.8 L -3200 2003 L -3203 2003.4 L -3206 2004.5 L -3212 2007 L -3218.5 2011 L -3221 2013.5 L -3224 2017 L -3227 2025 L -3228.2 2033 L -3228.4 2038.2 L -3228.4 2043.4 L -3227.6 2048.4 L -3227 2052.2 L -3225.6 2057.2 L -3224.2 2060.8 L -3221.8 2063.8 L -3219.4 2067.2 L -3216.8 2069.4 L -3214 2072.2 L -3209.2 2075 L -3204 2078 L -3197.2 2079.8 L -3190 2080 Z" stroke="black" stroke-linecap="round" stroke-linejoin="round" stroke-width=".5"/>
      <path d="M -3173 1587 L -3139 1587 L -3112 1587 L -3082 1589 L -3063.0917 1592.1331 L -3049.5917 1594.6331 L -3036.0917 1598.6331 L -3025 1602 L -3009.5917 1607.1331 L -2996.0917 1612.6331 L -2983.0917 1619.6331 L -2971 1627 L -2962 1633 L -2946.5917 1642.6331 L -2928 1656 L -2916 1669 L -2906 1680 L -2894 1692 L -2883.5917 1706.1331 L -2872 1723 L -2865 1734 L -2859.5917 1745.1331 L -2855.5917 1754.6331 L -2852.0917 1758.1331 L -2848.5917 1757.6331 L -2819.5917 1746.6331 L -2819.0917 1739.6331 L -2833.5917 1719.6331 L -2845.5917 1703.1331 L -2854.5917 1692.6331 L -2866 1681 L -2875 1671 L -2886 1660 L -2899.5917 1647.6331 L -2913 1638 L -2929 1629 L -2945 1620 L -2963 1611 L -2978 1603 L -2995.5917 1595.1331 L -3014 1590 L -3036 1585 L -3049 1583 L -3069 1581 L -3094 1580 L -3116 1580 L -3141 1580 L -3156 1583 L -3170 1585 Z" fill="#331262"/>
      <path d="M -3173 1587 L -3139 1587 L -3112 1587 L -3082 1589 L -3063.0917 1592.1331 L -3049.5917 1594.6331 L -3036.0917 1598.6331 L -3025 1602 L -3009.5917 1607.1331 L -2996.0917 1612.6331 L -2983.0917 1619.6331 L -2971 1627 L -2962 1633 L -2946.5917 1642.6331 L -2928 1656 L -2916 1669 L -2906 1680 L -2894 1692 L -2883.5917 1706.1331 L -2872 1723 L -2865 1734 L -2859.5917 1745.1331 L -2855.5917 1754.6331 L -2852.0917 1758.1331 L -2848.5917 1757.6331 L -2819.5917 1746.6331 L -2819.0917 1739.6331 L -2833.5917 1719.6331 L -2845.5917 1703.1331 L -2854.5917 1692.6331 L -2866 1681 L -2875 1671 L -2886 1660 L -2899.5917 1647.6331 L -2913 1638 L -2929 1629 L -2945 1620 L -2963 1611 L -2978 1603 L -2995.5917 1595.1331 L -3014 1590 L -3036 1585 L -3049 1583 L -3069 1581 L -3094 1580 L -3116 1580 L -3141 1580 L -3156 1583 L -3170 1585 Z" stroke="white" stroke-linecap="round" stroke-linejoin="round" stroke-width="1"/>
      <path d="M -3155 2089 L -3152.5 2084.5 L -3149 2081 L -3126 2047 L -3091 1991.5 L -3081 1976 L -3074 1962 L -3070 1955.5 L -3067 1946 L -3061 1942 L -3047 1916 L -3035 1895 L -3021 1874 L -3011 1863 L -3001 1855 L -2985 1845 L -2968 1838 L -2947 1832 L -2923 1825 L -2904 1820 L -2885.5 1816 L -2872 1813.5 L -2858 1812 L -2840.5 1813.5 L -2837 1812 L -2837 1807 L -2846 1787 L -2852 1774 L -2855.5 1766.5 L -2857 1761 L -2855 1756 L -2849 1751 L -2837 1745 L -2828 1743 L -2821.5 1743 L -2816 1745 L -2812 1748 L -2808 1757 L -2800 1774 L -2793 1789 L -2791 1802 L -2778 1802 L -2786 1781.5 L -2791.5 1769 L -2796 1758 L -2793 1754 L -2785 1749 L -2775 1745 L -2768 1745 L -2764.5 1749 L -2756.5 1767 L -2746 1789 L -2738.5 1806 L -2732 1824 L -2731.5 1830 L -2734 1836 L -2738.5 1838 L -2750.5 1839 L -2759 1839 L -2764 1837.5 L -2768 1835 L -2775 1824 L -2779 1821 L -2787 1822 L -2791 1830 L -2802 1840 L -2821 1839 L -2833 1837 L -2839 1834.5 L -2840.5 1834.5 L -2848 1832 L -2868 1835 L -2901 1843 L -2919 1846 L -2947 1854 L -2963 1859 L -2978 1865.5 L -2986 1870.5 L -2999.5 1885.5 L -3012.5 1904 L -3021 1919 L -3031 1938 L -3040 1955 L -3050 1971 L -3062 1993 L -3072 2011 L -3054 2019 L -3034 2032 L -3022 2045 L -3020 2052.5 L -3022.5 2061 L -3027 2070 L -3031.5 2075.5 L -3034.5 2078.5 L -3039 2081.5 L -3049 2085 L -3053.5 2086 L -3056.5 2085 L -3059.5 2083.5 L -3069 2078.5 L -3086 2069 L -3102.5 2059.5 L -3106 2061 L -3118 2077 L -3120 2080.5 L -3121 2083.5 L -3118 2085 L -3112.5 2085.5 L -3094 2087 L -3077.5 2090 L -3058 2093 L -3041 2095 L -3010 2101 L -2970 2109 L -2920 2115 L -2882 2118 L -2844.5 2115 L -2804 2110 L -2763 2105 L -2710 2096 L -2680 2091 L -2656 2087 L -2628.5 2080.5 L -2611 2072.5 L -2610 2082.5 L -2604 2093 L -2610 2097 L -2631.5 2102 L -2650 2105.5 L -2677 2113.5 L -2700.5 2118.5 L -2731 2124 L -2754.5 2127.5 L -2776 2129.5 L -2803 2133 L -2832 2136 L -2861 2138 L -2849 2159 L -2844 2168 L -2839 2178 L -2830 2186 L -2818 2195 L -2800 2203 L -2783 2210 L -2764 2214 L -2748 2215 L -2730 2215 L -2703 2212 L -2683 2209 L -2668.5 2205.5 L -2662 2203 L -2656.5 2199.5 L -2657 2190 L -2658.5 2168 L -2661.5 2147.5 L -2665.5 2129.5 L -2667.5 2118 L -2669.5 2110.5 L -2669.2 2110.6 L -2650 2105.5 L -2647 2121.5 L -2644 2137.5 L -2642 2148.5 L -2640 2159 L -2639 2175 L -2638 2197 L -2633 2198.5 L -2624 2197 L -2602.5 2191 L -2594.5 2183.5 L -2593 2172.5 L -2594.5 2162.5 L -2596 2145 L -2599.5 2127 L -2601.5 2111 L -2603.5 2102.5 L -2605 2095 L -2604.5 2094.5 L -2587 2088.5 L -2584 2098.5 L -2581 2115 L -2577.5 2137.5 L -2576 2159 L -2576 2171.5 L -2576 2180.5 L -2577 2192.5 L -2579.5 2198 L -2585 2204 L -2594 2209 L -2614 2213 L -2643 2219 L -2666 2224 L -2686 2229 L -2712 2233 L -2736 2235 L -2753 2235 L -2768 2233 L -2783 2230 L -2796 2226 L -2810 2220 L -2822 2215 L -2834 2209 L -2845 2202 L -2853 2195 L -2861 2184 L -2871 2169 L -2882 2150 L -2885 2141 L -2917 2138 L -2966 2131 L -3004 2124 L -3047 2116 L -3082 2109 L -3115 2105 L -3140 2103 L -3150 2101 L -3153.5 2095.5 Z" fill="#272075"/>
      <path d="M -3155 2089 L -3152.5 2084.5 L -3149 2081 L -3126 2047 L -3091 1991.5 L -3081 1976 L -3074 1962 L -3070 1955.5 L -3067 1946 L -3061 1942 L -3047 1916 L -3035 1895 L -3021 1874 L -3011 1863 L -3001 1855 L -2985 1845 L -2968 1838 L -2947 1832 L -2923 1825 L -2904 1820 L -2885.5 1816 L -2872 1813.5 L -2858 1812 L -2840.5 1813.5 L -2837 1812 L -2837 1807 L -2846 1787 L -2852 1774 L -2855.5 1766.5 L -2857 1761 L -2855 1756 L -2849 1751 L -2837 1745 L -2828 1743 L -2821.5 1743 L -2816 1745 L -2812 1748 L -2808 1757 L -2800 1774 L -2793 1789 L -2791 1802 L -2778 1802 L -2786 1781.5 L -2791.5 1769 L -2796 1758 L -2793 1754 L -2785 1749 L -2775 1745 L -2768 1745 L -2764.5 1749 L -2756.5 1767 L -2746 1789 L -2738.5 1806 L -2732 1824 L -2731.5 1830 L -2734 1836 L -2738.5 1838 L -2750.5 1839 L -2759 1839 L -2764 1837.5 L -2768 1835 L -2775 1824 L -2779 1821 L -2787 1822 L -2791 1830 L -2802 1840 L -2821 1839 L -2833 1837 L -2839 1834.5 L -2840.5 1834.5 L -2848 1832 L -2868 1835 L -2901 1843 L -2919 1846 L -2947 1854 L -2963 1859 L -2978 1865.5 L -2986 1870.5 L -2999.5 1885.5 L -3012.5 1904 L -3021 1919 L -3031 1938 L -3040 1955 L -3050 1971 L -3062 1993 L -3072 2011 L -3054 2019 L -3034 2032 L -3022 2045 L -3020 2052.5 L -3022.5 2061 L -3027 2070 L -3031.5 2075.5 L -3034.5 2078.5 L -3039 2081.5 L -3049 2085 L -3053.5 2086 L -3056.5 2085 L -3059.5 2083.5 L -3069 2078.5 L -3086 2069 L -3102.5 2059.5 L -3106 2061 L -3118 2077 L -3120 2080.5 L -3121 2083.5 L -3118 2085 L -3112.5 2085.5 L -3094 2087 L -3077.5 2090 L -3058 2093 L -3041 2095 L -3010 2101 L -2970 2109 L -2920 2115 L -2882 2118 L -2844.5 2115 L -2804 2110 L -2763 2105 L -2710 2096 L -2680 2091 L -2656 2087 L -2628.5 2080.5 L -2611 2072.5 L -2610 2082.5 L -2604 2093 L -2610 2097 L -2631.5 2102 L -2650 2105.5 L -2677 2113.5 L -2700.5 2118.5 L -2731 2124 L -2754.5 2127.5 L -2776 2129.5 L -2803 2133 L -2832 2136 L -2861 2138 L -2849 2159 L -2844 2168 L -2839 2178 L -2830 2186 L -2818 2195 L -2800 2203 L -2783 2210 L -2764 2214 L -2748 2215 L -2730 2215 L -2703 2212 L -2683 2209 L -2668.5 2205.5 L -2662 2203 L -2656.5 2199.5 L -2657 2190 L -2658.5 2168 L -2661.5 2147.5 L -2665.5 2129.5 L -2667.5 2118 L -2669.5 2110.5 L -2669.2 2110.6 L -2650 2105.5 L -2647 2121.5 L -2644 2137.5 L -2642 2148.5 L -2640 2159 L -2639 2175 L -2638 2197 L -2633 2198.5 L -2624 2197 L -2602.5 2191 L -2594.5 2183.5 L -2593 2172.5 L -2594.5 2162.5 L -2596 2145 L -2599.5 2127 L -2601.5 2111 L -2603.5 2102.5 L -2605 2095 L -2604.5 2094.5 L -2587 2088.5 L -2584 2098.5 L -2581 2115 L -2577.5 2137.5 L -2576 2159 L -2576 2171.5 L -2576 2180.5 L -2577 2192.5 L -2579.5 2198 L -2585 2204 L -2594 2209 L -2614 2213 L -2643 2219 L -2666 2224 L -2686 2229 L -2712 2233 L -2736 2235 L -2753 2235 L -2768 2233 L -2783 2230 L -2796 2226 L -2810 2220 L -2822 2215 L -2834 2209 L -2845 2202 L -2853 2195 L -2861 2184 L -2871 2169 L -2882 2150 L -2885 2141 L -2917 2138 L -2966 2131 L -3004 2124 L -3047 2116 L -3082 2109 L -3115 2105 L -3140 2103 L -3150 2101 L -3153.5 2095.5 Z" stroke="black" stroke-linecap="round" stroke-linejoin="round" stroke-width="1"/>
      <path d="M -3347 1905 L -3331 1878 L -3322 1865 L -3307 1853 L -3301 1854 L -3294 1864 L -3291 1879 L -3289 1908 L -3279 1893 L -3271 1883 L -3263 1878 L -3256 1877 L -3253 1885 L -3249 1901 L -3234 1879 L -3223 1869 L -3214 1863 L -3203 1860 L -3198 1863 L -3196 1873 L -3195 1880 L -3186 1871 L -3179 1882 L -3175 1888 L -3168 1893 L -3158 1897 L -3153 1898 L -3159 1885 L -3161 1871 L -3161 1860 L -3158 1854 L -3154 1860 L -3150 1852 L -3147 1845 L -3142 1835 L -3131 1825 L -3111 1814 L -3097 1807 L -3086 1800 L -3078 1792 L -3071 1786 L -3062 1784 L -3060 1777 L -3066 1763 L -3076 1753 L -3089 1747 L -3104 1743 L -3121 1741 L -3126 1741 L -3120 1734 L -3131 1735 L -3141 1737 L -3145 1735 L -3158 1739 L -3167 1744 L -3178 1737 L -3190 1733 L -3207 1730 L -3227 1728 L -3257 1731 L -3280 1740 L -3302 1755 L -3316 1772 L -3333 1796 L -3340 1819 L -3348 1841 L -3350 1864 L -3349 1881 L -3349 1894 Z" fill="#bf943c"/>
      <path d="M -3347 1905 L -3331 1878 L -3322 1865 L -3307 1853 L -3301 1854 L -3294 1864 L -3291 1879 L -3289 1908 L -3279 1893 L -3271 1883 L -3263 1878 L -3256 1877 L -3253 1885 L -3249 1901 L -3234 1879 L -3223 1869 L -3214 1863 L -3203 1860 L -3198 1863 L -3196 1873 L -3195 1880 L -3186 1871 L -3179 1882 L -3175 1888 L -3168 1893 L -3158 1897 L -3153 1898 L -3159 1885 L -3161 1871 L -3161 1860 L -3158 1854 L -3154 1860 L -3150 1852 L -3147 1845 L -3142 1835 L -3131 1825 L -3111 1814 L -3097 1807 L -3086 1800 L -3078 1792 L -3071 1786 L -3062 1784 L -3060 1777 L -3066 1763 L -3076 1753 L -3089 1747 L -3104 1743 L -3121 1741 L -3126 1741 L -3120 1734 L -3131 1735 L -3141 1737 L -3145 1735 L -3158 1739 L -3167 1744 L -3178 1737 L -3190 1733 L -3207 1730 L -3227 1728 L -3257 1731 L -3280 1740 L -3302 1755 L -3316 1772 L -3333 1796 L -3340 1819 L -3348 1841 L -3350 1864 L -3349 1881 L -3349 1894 Z" stroke="gray" stroke-linecap="round" stroke-linejoin="round" stroke-width=".25"/>
      <path d="M -3333 1867.5 L -3323 1854 L -3313.3172 1845.8389 L -3299.5586 1836.3056 L -3294.055 1837.1 L -3287.6345 1845.0444 L -3284.8828 1856.9611 L -3283.0483 1880 L -3273.876 1868.0833 L -3266.538 1860.1389 L -3259.2 1856.1667 L -3252.7793 1855.3722 L -3250.0276 1861.7278 L -3246.3586 1874.439 L -3232.6 1856.9611 L -3222.5103 1849.0167 L -3214.255 1844.25 L -3204.1655 1841.8667 L -3199.5793 1844.25 L -3197.745 1852.1944 L -3196.8276 1857.7556 L -3188.5724 1850.6056 L -3182.1517 1859.3444 L -3178.4828 1864.1111 L -3174 1874 L -3167.5 1886.5 L -3165.5 1873 L -3167 1862 L -3165.6414 1850.6056 L -3165.6414 1841.8667 L -3162.8897 1837.1 L -3159.2207 1841.8667 L -3154.5 1848.5 L -3152.8 1829.95 L -3148.2138 1822.0056 L -3134 1815 L -3119.7793 1805.3222 L -3106.938 1799.7611 L -3096.8483 1794.2 L -3089.5103 1787.8444 L -3083.0897 1783.0778 L -3074.8345 1781.4889 L -3073 1775.9278 L -3078.5034 1764.8056 L -3087.676 1756.8611 L -3099.6 1752.0944 L -3113.3586 1748.9167 L -3128.9517 1747.3278 L -3133.538 1747.3278 L -3130.5 1741.5 L -3138.124 1742.5611 L -3147.2966 1744.15 L -3150.9655 1742.5611 L -3162.8897 1745.7389 L -3169 1751.5 L -3181.2345 1744.15 L -3192.2414 1740.9722 L -3207.8345 1738.5889 L -3226.1793 1737 L -3253.6966 1739.3833 L -3274.793 1746.5333 L -3289.5 1758.5 L -3303 1771.5 L -3316.5 1791.5 L -3324 1808 L -3333 1825.5 L -3339 1845.0444 L -3341 1863.5 L -3342 1884 Z" fill="#301e6e"/>
      <path d="M -3333 1867.5 L -3323 1854 L -3313.3172 1845.8389 L -3299.5586 1836.3056 L -3294.055 1837.1 L -3287.6345 1845.0444 L -3284.8828 1856.9611 L -3283.0483 1880 L -3273.876 1868.0833 L -3266.538 1860.1389 L -3259.2 1856.1667 L -3252.7793 1855.3722 L -3250.0276 1861.7278 L -3246.3586 1874.439 L -3232.6 1856.9611 L -3222.5103 1849.0167 L -3214.255 1844.25 L -3204.1655 1841.8667 L -3199.5793 1844.25 L -3197.745 1852.1944 L -3196.8276 1857.7556 L -3188.5724 1850.6056 L -3182.1517 1859.3444 L -3178.4828 1864.1111 L -3174 1874 L -3167.5 1886.5 L -3165.5 1873 L -3167 1862 L -3165.6414 1850.6056 L -3165.6414 1841.8667 L -3162.8897 1837.1 L -3159.2207 1841.8667 L -3154.5 1848.5 L -3152.8 1829.95 L -3148.2138 1822.0056 L -3134 1815 L -3119.7793 1805.3222 L -3106.938 1799.7611 L -3096.8483 1794.2 L -3089.5103 1787.8444 L -3083.0897 1783.0778 L -3074.8345 1781.4889 L -3073 1775.9278 L -3078.5034 1764.8056 L -3087.676 1756.8611 L -3099.6 1752.0944 L -3113.3586 1748.9167 L -3128.9517 1747.3278 L -3133.538 1747.3278 L -3130.5 1741.5 L -3138.124 1742.5611 L -3147.2966 1744.15 L -3150.9655 1742.5611 L -3162.8897 1745.7389 L -3169 1751.5 L -3181.2345 1744.15 L -3192.2414 1740.9722 L -3207.8345 1738.5889 L -3226.1793 1737 L -3253.6966 1739.3833 L -3274.793 1746.5333 L -3289.5 1758.5 L -3303 1771.5 L -3316.5 1791.5 L -3324 1808 L -3333 1825.5 L -3339 1845.0444 L -3341 1863.5 L -3342 1884 Z" stroke="black" stroke-linecap="round" stroke-linejoin="round" stroke-width="12"/>
      <path d="M -3184 1798 L -3129 1772 L -3096 1767 L -3086 1778 L -3157 1806 L -3170 1812 L -3178 1810 Z" fill="black"/>
      <path d="M -3184 1798 L -3129 1772 L -3096 1767 L -3086 1778 L -3157 1806 L -3170 1812 L -3178 1810 Z" stroke="gray" stroke-linecap="round" stroke-linejoin="round" stroke-width=".25"/>
      <path d="M -3163.5 1771 L -3175 1771 L -3184.5 1768 L -3192 1762.5 L -3197.5 1761 L -3202 1760 L -3200.5 1759 L -3197.5 1758.5 L -3192.5 1757.5 L -3196.5 1755.5 L -3204 1754.5 L -3212 1754 L -3218.5 1755 L -3225.5 1757 L -3232 1761.5 L -3226 1760.5 L -3221 1760.5 L -3214.5 1760 L -3209.5 1761.5 L -3214.5 1764.5 L -3222 1770 L -3228.5 1775.5 L -3232 1780.5 L -3234 1785 L -3235 1787.5 L -3229 1783.5 L -3223.5 1781.5 L -3218 1779.5 L -3213 1779.5 L -3207.5 1779.5 L -3216.5 1785.5 L -3222 1791 L -3225 1796.5 L -3226 1800.5 L -3226.5 1805 L -3217.5 1796.5 L -3208 1791 L -3198 1786.5 L -3185.5 1783 L -3172 1781 L -3154.5 1778.5 Z" fill="black"/>
      <path d="M -3194.572 1765.0004 C -3190.385 1766.8183 -3188.0436 1771.8394 -3189.3425 1776.2154 C -3190.6413 1780.5914 -3195.0886 1782.6652 -3199.2757 1780.8474 C -3203.463 1779.0295 -3205.8042 1774.0084 -3204.5054 1769.6324 C -3203.2065 1765.2564 -3198.7592 1763.1826 -3194.572 1765.0004" fill="red"/>
      <path d="M -3192.785 1769.7294 C -3191.0955 1770.8274 -3189.754 1773.3507 -3189.7884 1775.3654 C -3189.823 1777.38 -3191.2205 1778.1232 -3192.91 1777.0252 C -3194.5996 1775.9272 -3195.9413 1773.404 -3195.9068 1771.3893 C -3195.8722 1769.3746 -3194.4746 1768.6315 -3192.785 1769.7294" fill="black"/>
      <path d="M -3192.785 1769.7294 C -3191.0955 1770.8274 -3189.754 1773.3507 -3189.7884 1775.3654 C -3189.823 1777.38 -3191.2205 1778.1232 -3192.91 1777.0252 C -3194.5996 1775.9272 -3195.9413 1773.404 -3195.9068 1771.3893 C -3195.8722 1769.3746 -3194.4746 1768.6315 -3192.785 1769.7294" stroke="black" stroke-linecap="round" stroke-linejoin="round" stroke-width="1"/>
      <path d="M -3195.7963 1766.424 L -3200.0057 1769.224 L -3200.2396 1772.424 L -3199.304 1775.424 L -3197.901 1777.224 L -3196.498 1778.224 L -3193.224 1779.224 L -3197.1995 1779.424 L -3200.4735 1776.824 L -3201.8766 1773.824 L -3201.8766 1770.624 L -3200.941 1767.824 L -3198.3687 1766.424 Z" fill="white"/>
      <path d="M -3228 1833 L -3217 1815 L -3205 1805 L -3193 1798 L -3177 1789 L -3192 1791 L -3206 1797 L -3213 1800 L -3200 1790 L -3183 1782 L -3168 1778 L -3153 1775 L -3165 1772 L -3157 1767 L -3165 1762 L -3151 1759 L -3135 1755 L -3122 1754 L -3111 1755 L -3098 1759 L -3087 1763 L -3081 1769 L -3079 1774 L -3090 1771 L -3112 1774 L -3130 1778 L -3147 1784 L -3165 1791 L -3173 1794 L -3180 1798 L -3182 1801 L -3176 1808 L -3170 1808 L -3164 1809 L -3167 1804 L -3163 1802 L -3144 1793 L -3125 1786 L -3107 1780 L -3090 1777 L -3088 1778 L -3095 1785 L -3105 1791 L -3115 1797 L -3123 1800 L -3135 1805 L -3145 1812 L -3152 1818 L -3158 1816 L -3157 1823 L -3164 1815 L -3174 1814 L -3183 1811 L -3188 1808 L -3187 1804 L -3202 1809 L -3212 1819 L -3222 1829 Z" fill="white"/>
      <path d="M -3228 1833 L -3217 1815 L -3205 1805 L -3193 1798 L -3177 1789 L -3192 1791 L -3206 1797 L -3213 1800 L -3200 1790 L -3183 1782 L -3168 1778 L -3153 1775 L -3165 1772 L -3157 1767 L -3165 1762 L -3151 1759 L -3135 1755 L -3122 1754 L -3111 1755 L -3098 1759 L -3087 1763 L -3081 1769 L -3079 1774 L -3090 1771 L -3112 1774 L -3130 1778 L -3147 1784 L -3165 1791 L -3173 1794 L -3180 1798 L -3182 1801 L -3176 1808 L -3170 1808 L -3164 1809 L -3167 1804 L -3163 1802 L -3144 1793 L -3125 1786 L -3107 1780 L -3090 1777 L -3088 1778 L -3095 1785 L -3105 1791 L -3115 1797 L -3123 1800 L -3135 1805 L -3145 1812 L -3152 1818 L -3158 1816 L -3157 1823 L -3164 1815 L -3174 1814 L -3183 1811 L -3188 1808 L -3187 1804 L -3202 1809 L -3212 1819 L -3222 1829 Z" stroke="gray" stroke-linecap="round" stroke-linejoin="round" stroke-width=".25"/>
      <path d="M -3309.269 1812.9806 L -3299.7473 1797.602 L -3288.4946 1783.932 L -3275.5108 1771.9709 L -3265.1237 1765.136 L -3253.0054 1761.7184 L -3246.0806 1764.2815 L -3242.6183 1771.9709 L -3239.6 1782.2 L -3243.8 1790.4 L -3249.4 1794.4 L -3244.3495 1793.33 L -3238.2903 1795.8932 L -3233.9624 1798.4563 L -3230.5 1806.1456 L -3228.2 1813.8 L -3230.8 1822.4 L -3235.2 1829 L -3269.4516 1852.2816 L -3272.0484 1839.466 L -3275.5108 1827.5049 L -3277.242 1817.2524 L -3278.973 1804.4369 L -3278.1075 1790.767 L -3274.645 1784.7864 L -3292.8226 1799.3107 L -3305.8065 1812.1262 L -3311 1817.2524 Z" fill="#c6aa08"/>
      <path d="M -3309.269 1812.9806 L -3299.7473 1797.602 L -3288.4946 1783.932 L -3275.5108 1771.9709 L -3265.1237 1765.136 L -3253.0054 1761.7184 L -3246.0806 1764.2815 L -3242.6183 1771.9709 L -3239.6 1782.2 L -3243.8 1790.4 L -3249.4 1794.4 L -3244.3495 1793.33 L -3238.2903 1795.8932 L -3233.9624 1798.4563 L -3230.5 1806.1456 L -3228.2 1813.8 L -3230.8 1822.4 L -3235.2 1829 L -3269.4516 1852.2816 L -3272.0484 1839.466 L -3275.5108 1827.5049 L -3277.242 1817.2524 L -3278.973 1804.4369 L -3278.1075 1790.767 L -3274.645 1784.7864 L -3292.8226 1799.3107 L -3305.8065 1812.1262 L -3311 1817.2524 Z" stroke="white" stroke-linecap="round" stroke-linejoin="round" stroke-width="3"/>
      <path d="M -3261 1802 L -3257.5 1801 L -3247.8 1801 L -3245.0827 1804.5 L -3241.3534 1807.1366 L -3239.4887 1811.0915 L -3239.4 1814.8 L -3240.2 1818.2 L -3242.2857 1820.9787 L -3248.4 1825.8 L -3256 1830 Z" fill="#5837ca"/>
      <path d="M -3261 1802 L -3257.5 1801 L -3247.8 1801 L -3245.0827 1804.5 L -3241.3534 1807.1366 L -3239.4887 1811.0915 L -3239.4 1814.8 L -3240.2 1818.2 L -3242.2857 1820.9787 L -3248.4 1825.8 L -3256 1830 Z" stroke="white" stroke-linecap="round" stroke-linejoin="round" stroke-width="2"/>
      <path d="M -3263 1777.2 L -3258.5938 1775.2 L -3254 1775.2 L -3251.375 1776.57 L -3250.0625 1778.625 L -3248.4 1781.2 L -3249.4 1784 L -3250.4 1787.4 L -3255.2 1792.8 L -3261 1795.7 Z" fill="#5837ca"/>
      <path d="M -3263 1777.2 L -3258.5938 1775.2 L -3254 1775.2 L -3251.375 1776.57 L -3250.0625 1778.625 L -3248.4 1781.2 L -3249.4 1784 L -3250.4 1787.4 L -3255.2 1792.8 L -3261 1795.7 Z" stroke="white" stroke-linecap="round" stroke-linejoin="round" stroke-width="2"/>
    </g>
  </g>
</svg>
