<?xml version="1.0" encoding="UTF-8" standalone="no"?>
<!DOCTYPE svg PUBLIC "-//W3C//DTD SVG 1.1//EN" "http://www.w3.org/Graphics/SVG/1.1/DTD/svg11.dtd">
<svg xmlns="http://www.w3.org/2000/svg" xmlns:xl="http://www.w3.org/1999/xlink" version="1.1" viewBox="-3987.1966 1393 860.5 663" width="860.5pt" height="663pt" xmlns:dc="http://purl.org/dc/elements/1.1/">
  <metadata> Produced by OmniGraffle 7.6.1 
    <dc:date>2021-08-04 01:29:23 +0000</dc:date>
  </metadata>
  <defs>
    <linearGradient x1="0" x2="1" id="Gradient" gradientUnits="userSpaceOnUse">
      <stop offset="0" stop-color="#464646"/>
      <stop offset="1" stop-color="#f0f0f0"/>
    </linearGradient>
    <linearGradient id="Obj_Gradient" xl:href="#Gradient" gradientTransform="translate(-3510.8104 1656.222) rotate(72) scale(359.227)"/>
  </defs>
  <g stroke="none" stroke-opacity="1" stroke-dasharray="none" fill="none" fill-opacity="1">
    <title>Denver Broncos</title>
    <g>
      <title>Capa 1</title>
      <path d="M -3519.1966 1982.0446 L -3489.1966 1986.0446 L -3458.1966 1980.0446 L -3430.1966 1968.0446 L -3408.1966 1950.0446 L -3396.1966 1930.0446 L -3388.1966 1903.0446 L -3382.1966 1862.0446 L -3394.1966 1819.0446 L -3398.1966 1792.0446 L -3402.1966 1755.0446 L -3396.1966 1731.0446 L -3393.1966 1705.0446 L -3380.1966 1689.0446 L -3363.417 1680.0446 L -3370.417 1680.0446 L -3377.417 1680.0446 L -3391.417 1682.0446 L -3409.417 1682.0446 L -3431.417 1679.0446 L -3427.417 1668.0446 L -3439.417 1668.0446 L -3455.417 1671.0446 L -3468.417 1676.0446 L -3481.417 1680.0446 L -3488.417 1684.0446 L -3496.417 1688.0446 L -3512.417 1694.0446 L -3523.417 1712.0446 L -3531.417 1722.0446 L -3540.417 1739.0446 L -3547.1966 1766.0446 L -3547.1966 1806.0446 L -3539.417 1842.0446 L -3528.1966 1877.0446 L -3513.1966 1900.0446 L -3512.917 1907.0446 L -3513.417 1918.0446 L -3513.417 1927.5446 L -3512.917 1935.0446 L -3514.1966 1943.0446 L -3513.917 1956.5446 L -3517.1966 1970.0446 L -3520.417 1975.5446 L -3525.1966 1981.0446 Z" fill="url(#Obj_Gradient)"/>
      <path d="M -3519.1966 1982.0446 L -3489.1966 1986.0446 L -3458.1966 1980.0446 L -3430.1966 1968.0446 L -3408.1966 1950.0446 L -3396.1966 1930.0446 L -3388.1966 1903.0446 L -3382.1966 1862.0446 L -3394.1966 1819.0446 L -3398.1966 1792.0446 L -3402.1966 1755.0446 L -3396.1966 1731.0446 L -3393.1966 1705.0446 L -3380.1966 1689.0446 L -3363.417 1680.0446 L -3370.417 1680.0446 L -3377.417 1680.0446 L -3391.417 1682.0446 L -3409.417 1682.0446 L -3431.417 1679.0446 L -3427.417 1668.0446 L -3439.417 1668.0446 L -3455.417 1671.0446 L -3468.417 1676.0446 L -3481.417 1680.0446 L -3488.417 1684.0446 L -3496.417 1688.0446 L -3512.417 1694.0446 L -3523.417 1712.0446 L -3531.417 1722.0446 L -3540.417 1739.0446 L -3547.1966 1766.0446 L -3547.1966 1806.0446 L -3539.417 1842.0446 L -3528.1966 1877.0446 L -3513.1966 1900.0446 L -3512.917 1907.0446 L -3513.417 1918.0446 L -3513.417 1927.5446 L -3512.917 1935.0446 L -3514.1966 1943.0446 L -3513.917 1956.5446 L -3517.1966 1970.0446 L -3520.417 1975.5446 L -3525.1966 1981.0446 Z" stroke="black" stroke-linecap="round" stroke-linejoin="round" stroke-width="2"/>
      <path d="M -3930.1966 1925 L -3932.1966 1931 L -3937.1966 1934 L -3930.1966 1952 L -3922.1966 1966 L -3918.1966 1979 L -3914.1966 1988 L -3913.1966 2006 L -3908.1966 2019 L -3896.1966 2027 L -3885.1966 2029 L -3868.1966 2031 L -3855.1966 2029 L -3842.1966 2025 L -3828.1966 2022 L -3816.1966 2017 L -3808.1966 2013 L -3800.1966 2006 L -3793.1966 1998 L -3782.1966 2006 L -3771.1966 2014 L -3757.1966 2023 L -3742.1966 2031 L -3724.1966 2038 L -3705.1966 2043 L -3686.1966 2049 L -3666.1966 2052 L -3646.1966 2055 L -3624.1966 2054 L -3607.1966 2050 L -3585.1966 2044 L -3566.1966 2033 L -3553.1966 2026 L -3540.1966 2011 L -3530.1966 1988 L -3517.1966 1972.5 L -3514.1966 1959 L -3512.6966 1931 L -3512.1966 1901.5 L -3527.1966 1876 L -3536.1966 1852 L -3546.1966 1815 L -3548.1966 1782 L -3544.1966 1749 L -3529.1966 1718 L -3511.1966 1695 L -3478.1966 1679 L -3450.1966 1669 L -3428.1966 1669 L -3428.1966 1674 L -3431.1966 1679 L -3409.1966 1681 L -3384.1966 1681 L -3360.1966 1679 L -3354.1966 1682 L -3339.1966 1684 L -3327.1966 1677 L -3324.1966 1655 L -3324.1966 1632 L -3339.1966 1593 L -3348.1966 1573 L -3360.1966 1556 L -3376.1966 1529 L -3410.1966 1493 L -3440.1966 1467 L -3470.1966 1445 L -3503.1966 1428 L -3538.1966 1413 L -3572.1966 1404 L -3597.1966 1400 L -3623.1966 1398 L -3651.1966 1397 L -3675.1966 1397 L -3704.1966 1399 L -3731.1966 1405 L -3759.1966 1412 L -3785.1966 1420 L -3798.1966 1426 L -3815.1966 1433 L -3836.1966 1445 L -3864.1966 1463 L -3885.1966 1481 L -3906.1966 1504 L -3923.1966 1525 L -3937.1966 1546 L -3951.1966 1573 L -3964.1966 1601 L -3973.1966 1630 L -3980.1966 1657 L -3986.1966 1699 L -3985.1966 1736 L -3981.1966 1772 L -3974.1966 1812 L -3962.1966 1850 L -3948.1966 1884 L -3936.1966 1911 Z" fill="#333"/>
      <path d="M -3930.1966 1925 L -3932.1966 1931 L -3937.1966 1934 L -3930.1966 1952 L -3922.1966 1966 L -3918.1966 1979 L -3914.1966 1988 L -3913.1966 2006 L -3908.1966 2019 L -3896.1966 2027 L -3885.1966 2029 L -3868.1966 2031 L -3855.1966 2029 L -3842.1966 2025 L -3828.1966 2022 L -3816.1966 2017 L -3808.1966 2013 L -3800.1966 2006 L -3793.1966 1998 L -3782.1966 2006 L -3771.1966 2014 L -3757.1966 2023 L -3742.1966 2031 L -3724.1966 2038 L -3705.1966 2043 L -3686.1966 2049 L -3666.1966 2052 L -3646.1966 2055 L -3624.1966 2054 L -3607.1966 2050 L -3585.1966 2044 L -3566.1966 2033 L -3553.1966 2026 L -3540.1966 2011 L -3530.1966 1988 L -3517.1966 1972.5 L -3514.1966 1959 L -3512.6966 1931 L -3512.1966 1901.5 L -3527.1966 1876 L -3536.1966 1852 L -3546.1966 1815 L -3548.1966 1782 L -3544.1966 1749 L -3529.1966 1718 L -3511.1966 1695 L -3478.1966 1679 L -3450.1966 1669 L -3428.1966 1669 L -3428.1966 1674 L -3431.1966 1679 L -3409.1966 1681 L -3384.1966 1681 L -3360.1966 1679 L -3354.1966 1682 L -3339.1966 1684 L -3327.1966 1677 L -3324.1966 1655 L -3324.1966 1632 L -3339.1966 1593 L -3348.1966 1573 L -3360.1966 1556 L -3376.1966 1529 L -3410.1966 1493 L -3440.1966 1467 L -3470.1966 1445 L -3503.1966 1428 L -3538.1966 1413 L -3572.1966 1404 L -3597.1966 1400 L -3623.1966 1398 L -3651.1966 1397 L -3675.1966 1397 L -3704.1966 1399 L -3731.1966 1405 L -3759.1966 1412 L -3785.1966 1420 L -3798.1966 1426 L -3815.1966 1433 L -3836.1966 1445 L -3864.1966 1463 L -3885.1966 1481 L -3906.1966 1504 L -3923.1966 1525 L -3937.1966 1546 L -3951.1966 1573 L -3964.1966 1601 L -3973.1966 1630 L -3980.1966 1657 L -3986.1966 1699 L -3985.1966 1736 L -3981.1966 1772 L -3974.1966 1812 L -3962.1966 1850 L -3948.1966 1884 L -3936.1966 1911 Z" stroke="black" stroke-linecap="round" stroke-linejoin="round" stroke-width="2"/>
      <path d="M -3617.7966 1780.5 L -3620.3966 1776.1 L -3621.1966 1771.1 L -3620.9966 1769.5 L -3620.1966 1768.1 L -3619.0966 1765.7 L -3617.5966 1763.3 L -3615.7966 1760.5 L -3611.9966 1758.9 L -3607.1966 1759.7 L -3601.9966 1764.3 L -3598.5966 1768.7 L -3591.5966 1780.7 L -3582.5966 1791.7 L -3572.5966 1802.7 L -3561.5966 1815.7 L -3550.0966 1825.2 L -3538.0966 1835.7 L -3529.0966 1840.2 L -3519.0966 1843.7 L -3508.5966 1847.7 L -3498.0966 1850.2 L -3489.0966 1851.2 L -3482.5966 1852.2 L -3493.5966 1828.7 L -3503.5966 1807.2 L -3510.5966 1791.7 L -3522.0966 1767.2 L -3528.5966 1750.7 L -3537.5966 1731.7 L -3550.0966 1710.2 L -3562.0966 1693.7 L -3566.1966 1688.1 L -3566.1966 1684.9 L -3562.7966 1680.5 L -3559.5966 1677.3 L -3556.1966 1674.3 L -3552.3966 1672.5 L -3548.5966 1673.7 L -3546.5966 1675.7 L -3531.5966 1697.7 L -3519.5966 1724.7 L -3507.5966 1749.7 L -3457.5966 1854.7 L -3421.5966 1852.7 L -3385.5966 1850.7 L -3354.5966 1845.7 L -3323.5966 1841.7 L -3317.1966 1839 L -3328.6966 1804 L -3341.6966 1776 L -3351.5966 1752.7 L -3372.5966 1706.7 L -3379.1966 1690.5 L -3381.1966 1684.5 L -3380.1966 1681.5 L -3377.6966 1680.5 L -3358.6966 1679 L -3355.1966 1681 L -3346.1966 1704.5 L -3331.1966 1745.5 L -3304.5966 1812.7 L -3297.1966 1835.5 L -3267.1966 1830.5 L -3210.1966 1823 L -3195.1966 1817.5 L -3184.6966 1808 L -3178.1966 1809 L -3170.5966 1812.7 L -3158.5966 1824.7 L -3148.5966 1860.7 L -3140.5966 1886.7 L -3136.5966 1905.7 L -3156.5966 1911.2 L -3156.6966 1907 L -3166.5966 1882.7 L -3173.5966 1856.7 L -3177.0966 1842.7 L -3179.5966 1839.2 L -3186.0966 1838.2 L -3207.5966 1841.7 L -3220.5966 1842.7 L -3224.5966 1843.7 L -3219.5966 1852.7 L -3215.5966 1864.7 L -3210.0966 1886.2 L -3206.0966 1903.2 L -3225.0966 1907.2 L -3233.5966 1874.7 L -3240.5966 1855.7 L -3244.0966 1849.7 L -3249.5966 1847.7 L -3293.5966 1854.7 L -3337.5966 1858.7 L -3381.5966 1865.7 L -3421.5966 1868.7 L -3442.5966 1869.7 L -3446.5966 1869.7 L -3449.5966 1871.7 L -3449.0966 1876.2 L -3418.0966 1933.7 L -3442.5966 1934.2 L -3445.5966 1933.2 L -3452.0966 1920.7 L -3458.5966 1906.2 L -3465.0966 1891.7 L -3469.5966 1879.7 L -3473.0966 1873.7 L -3475.0966 1870.7 L -3479.0966 1869.2 L -3486.5966 1868.2 L -3498.5966 1866.7 L -3512.5966 1863.7 L -3535.5966 1856.7 L -3548.0966 1850.7 L -3560.5966 1842.7 L -3578.5966 1827.7 L -3594.0966 1809.7 L -3604.5966 1797.7 Z" fill="black"/>
      <path d="M -3617.7966 1780.5 L -3620.3966 1776.1 L -3621.1966 1771.1 L -3620.9966 1769.5 L -3620.1966 1768.1 L -3619.0966 1765.7 L -3617.5966 1763.3 L -3615.7966 1760.5 L -3611.9966 1758.9 L -3607.1966 1759.7 L -3601.9966 1764.3 L -3598.5966 1768.7 L -3591.5966 1780.7 L -3582.5966 1791.7 L -3572.5966 1802.7 L -3561.5966 1815.7 L -3550.0966 1825.2 L -3538.0966 1835.7 L -3529.0966 1840.2 L -3519.0966 1843.7 L -3508.5966 1847.7 L -3498.0966 1850.2 L -3489.0966 1851.2 L -3482.5966 1852.2 L -3493.5966 1828.7 L -3503.5966 1807.2 L -3510.5966 1791.7 L -3522.0966 1767.2 L -3528.5966 1750.7 L -3537.5966 1731.7 L -3550.0966 1710.2 L -3562.0966 1693.7 L -3566.1966 1688.1 L -3566.1966 1684.9 L -3562.7966 1680.5 L -3559.5966 1677.3 L -3556.1966 1674.3 L -3552.3966 1672.5 L -3548.5966 1673.7 L -3546.5966 1675.7 L -3531.5966 1697.7 L -3519.5966 1724.7 L -3507.5966 1749.7 L -3457.5966 1854.7 L -3421.5966 1852.7 L -3385.5966 1850.7 L -3354.5966 1845.7 L -3323.5966 1841.7 L -3317.1966 1839 L -3328.6966 1804 L -3341.6966 1776 L -3351.5966 1752.7 L -3372.5966 1706.7 L -3379.1966 1690.5 L -3381.1966 1684.5 L -3380.1966 1681.5 L -3377.6966 1680.5 L -3358.6966 1679 L -3355.1966 1681 L -3346.1966 1704.5 L -3331.1966 1745.5 L -3304.5966 1812.7 L -3297.1966 1835.5 L -3267.1966 1830.5 L -3210.1966 1823 L -3195.1966 1817.5 L -3184.6966 1808 L -3178.1966 1809 L -3170.5966 1812.7 L -3158.5966 1824.7 L -3148.5966 1860.7 L -3140.5966 1886.7 L -3136.5966 1905.7 L -3156.5966 1911.2 L -3156.6966 1907 L -3166.5966 1882.7 L -3173.5966 1856.7 L -3177.0966 1842.7 L -3179.5966 1839.2 L -3186.0966 1838.2 L -3207.5966 1841.7 L -3220.5966 1842.7 L -3224.5966 1843.7 L -3219.5966 1852.7 L -3215.5966 1864.7 L -3210.0966 1886.2 L -3206.0966 1903.2 L -3225.0966 1907.2 L -3233.5966 1874.7 L -3240.5966 1855.7 L -3244.0966 1849.7 L -3249.5966 1847.7 L -3293.5966 1854.7 L -3337.5966 1858.7 L -3381.5966 1865.7 L -3421.5966 1868.7 L -3442.5966 1869.7 L -3446.5966 1869.7 L -3449.5966 1871.7 L -3449.0966 1876.2 L -3418.0966 1933.7 L -3442.5966 1934.2 L -3445.5966 1933.2 L -3452.0966 1920.7 L -3458.5966 1906.2 L -3465.0966 1891.7 L -3469.5966 1879.7 L -3473.0966 1873.7 L -3475.0966 1870.7 L -3479.0966 1869.2 L -3486.5966 1868.2 L -3498.5966 1866.7 L -3512.5966 1863.7 L -3535.5966 1856.7 L -3548.0966 1850.7 L -3560.5966 1842.7 L -3578.5966 1827.7 L -3594.0966 1809.7 L -3604.5966 1797.7 Z" stroke="black" stroke-linecap="round" stroke-linejoin="round" stroke-width="1"/>
      <path d="M -3381.82 1877.5 L -3383.82 1895.5 L -3349.82 1900.5 L -3318.82 1905.5 L -3297.82 1908 L -3293.82 1908 L -3286.82 1910 L -3283.82 1913.5 L -3277.32 1937 L -3267.32 1957.5 L -3263.32 1966.5 L -3256.32 1971.5 L -3251.32 1975.5 L -3239.32 1982.5 L -3235.32 1985.5 L -3224.32 1990.5 L -3199.32 2000.5 L -3173.82 2011.5 L -3146.82 2024.5 L -3143.32 2026 L -3135.82 2022.5 L -3131.82 2018 L -3128.82 2014 L -3128.32 2008 L -3144.82 2002.5 L -3166.32 1993.5 L -3190.82 1981.5 L -3214.32 1972.5 L -3229.32 1965.5 L -3242.32 1957.5 L -3247.32 1948.5 L -3252.32 1938.5 L -3260.32 1913.5 L -3186.82 1901.5 L -3162.32 1891.5 L -3166.32 1884.5 L -3196.32 1887.5 L -3237.82 1889.5 L -3262.82 1889.5 L -3270.32 1890 L -3273.32 1886.5 L -3275.82 1878.5 L -3292.82 1833.5 L -3227.32 1824 L -3195.82 1818.5 L -3183.82 1809.5 L -3222.463 1810.8571 L -3259.463 1811.3571 L -3288.82 1811.5 L -3304.82 1813 L -3354.82 1683 L -3359.82 1680 L -3379.32 1682 L -3380.82 1686.5 L -3361.32 1731 L -3345.82 1764.5 L -3335.82 1788.5 L -3326.82 1810 L -3338.82 1805.5 L -3347.32 1801.5 L -3354.82 1792.5 L -3371.82 1774.5 L -3381.82 1760.5 L -3398.82 1739.5 L -3402.1966 1756.5 L -3399.6966 1774.5 L -3383.82 1793.5 L -3366.82 1813.5 L -3345.82 1825.5 L -3319.82 1831.5 L -3293.82 1888.5 L -3344.82 1880.5 Z" fill="black"/>
      <path d="M -3381.82 1877.5 L -3383.82 1895.5 L -3349.82 1900.5 L -3318.82 1905.5 L -3297.82 1908 L -3293.82 1908 L -3286.82 1910 L -3283.82 1913.5 L -3277.32 1937 L -3267.32 1957.5 L -3263.32 1966.5 L -3256.32 1971.5 L -3251.32 1975.5 L -3239.32 1982.5 L -3235.32 1985.5 L -3224.32 1990.5 L -3199.32 2000.5 L -3173.82 2011.5 L -3146.82 2024.5 L -3143.32 2026 L -3135.82 2022.5 L -3131.82 2018 L -3128.82 2014 L -3128.32 2008 L -3144.82 2002.5 L -3166.32 1993.5 L -3190.82 1981.5 L -3214.32 1972.5 L -3229.32 1965.5 L -3242.32 1957.5 L -3247.32 1948.5 L -3252.32 1938.5 L -3260.32 1913.5 L -3186.82 1901.5 L -3162.32 1891.5 L -3166.32 1884.5 L -3196.32 1887.5 L -3237.82 1889.5 L -3262.82 1889.5 L -3270.32 1890 L -3273.32 1886.5 L -3275.82 1878.5 L -3292.82 1833.5 L -3227.32 1824 L -3195.82 1818.5 L -3183.82 1809.5 L -3222.463 1810.8571 L -3259.463 1811.3571 L -3288.82 1811.5 L -3304.82 1813 L -3354.82 1683 L -3359.82 1680 L -3379.32 1682 L -3380.82 1686.5 L -3361.32 1731 L -3345.82 1764.5 L -3335.82 1788.5 L -3326.82 1810 L -3338.82 1805.5 L -3347.32 1801.5 L -3354.82 1792.5 L -3371.82 1774.5 L -3381.82 1760.5 L -3398.82 1739.5 L -3402.1966 1756.5 L -3399.6966 1774.5 L -3383.82 1793.5 L -3366.82 1813.5 L -3345.82 1825.5 L -3319.82 1831.5 L -3293.82 1888.5 L -3344.82 1880.5 Z" stroke="black" stroke-linecap="round" stroke-linejoin="round" stroke-width="1"/>
      <path d="M -3729.1966 1896 L -3706.1966 1863 L -3704.9966 1854.2 L -3706.1966 1849.8 L -3707.9966 1844.4 L -3710.3966 1839.8 L -3713.1966 1834.8 L -3717.1966 1831 L -3721.9966 1827.6 L -3729.1966 1824 L -3738.5966 1820.8 L -3744.5966 1819.8 L -3751.1966 1820 L -3754.1966 1820.4 L -3757.1966 1821.5 L -3763.1966 1824 L -3769.6966 1828 L -3772.1966 1830.5 L -3775.1966 1834 L -3778.1966 1842 L -3779.3966 1850 L -3779.5966 1855.2 L -3779.5966 1860.4 L -3778.7966 1865.4 L -3778.1966 1869.2 L -3776.7966 1874.2 L -3775.3966 1877.8 L -3772.9966 1880.8 L -3770.5966 1884.2 L -3767.9966 1886.4 L -3765.1966 1889.2 L -3760.3966 1892 L -3755.1966 1895 L -3748.3966 1896.8 L -3741.1966 1897 Z" fill="black"/>
      <path d="M -3729.1966 1896 L -3706.1966 1863 L -3704.9966 1854.2 L -3706.1966 1849.8 L -3707.9966 1844.4 L -3710.3966 1839.8 L -3713.1966 1834.8 L -3717.1966 1831 L -3721.9966 1827.6 L -3729.1966 1824 L -3738.5966 1820.8 L -3744.5966 1819.8 L -3751.1966 1820 L -3754.1966 1820.4 L -3757.1966 1821.5 L -3763.1966 1824 L -3769.6966 1828 L -3772.1966 1830.5 L -3775.1966 1834 L -3778.1966 1842 L -3779.3966 1850 L -3779.5966 1855.2 L -3779.5966 1860.4 L -3778.7966 1865.4 L -3778.1966 1869.2 L -3776.7966 1874.2 L -3775.3966 1877.8 L -3772.9966 1880.8 L -3770.5966 1884.2 L -3767.9966 1886.4 L -3765.1966 1889.2 L -3760.3966 1892 L -3755.1966 1895 L -3748.3966 1896.8 L -3741.1966 1897 Z" stroke="black" stroke-linecap="round" stroke-linejoin="round" stroke-width="2"/>
      <path d="M -3724.1966 1404 L -3690.1966 1404 L -3663.1966 1404 L -3633.1966 1406 L -3614.2883 1409.1331 L -3600.7883 1411.6331 L -3587.2883 1415.6331 L -3576.1966 1419 L -3560.7883 1424.1331 L -3547.2883 1429.6331 L -3534.2883 1436.6331 L -3522.1966 1444 L -3513.1966 1450 L -3497.7883 1459.6331 L -3479.1966 1473 L -3467.1966 1486 L -3457.1966 1497 L -3445.1966 1509 L -3434.7883 1523.1331 L -3423.1966 1540 L -3416.1966 1551 L -3410.7883 1562.1331 L -3406.7883 1571.6331 L -3403.2883 1575.1331 L -3399.7883 1574.6331 L -3370.7883 1563.6331 L -3370.2883 1556.6331 L -3384.7883 1536.6331 L -3396.7883 1520.1331 L -3405.7883 1509.6331 L -3417.1966 1498 L -3426.1966 1488 L -3437.1966 1477 L -3450.7883 1464.6331 L -3464.1966 1455 L -3480.1966 1446 L -3496.1966 1437 L -3514.1966 1428 L -3529.1966 1420 L -3546.7883 1412.1331 L -3565.1966 1407 L -3587.1966 1402 L -3600.1966 1400 L -3620.1966 1398 L -3645.1966 1397 L -3667.1966 1397 L -3692.1966 1397 L -3707.1966 1400 L -3721.1966 1402 Z" fill="#ff6700"/>
      <path d="M -3724.1966 1404 L -3690.1966 1404 L -3663.1966 1404 L -3633.1966 1406 L -3614.2883 1409.1331 L -3600.7883 1411.6331 L -3587.2883 1415.6331 L -3576.1966 1419 L -3560.7883 1424.1331 L -3547.2883 1429.6331 L -3534.2883 1436.6331 L -3522.1966 1444 L -3513.1966 1450 L -3497.7883 1459.6331 L -3479.1966 1473 L -3467.1966 1486 L -3457.1966 1497 L -3445.1966 1509 L -3434.7883 1523.1331 L -3423.1966 1540 L -3416.1966 1551 L -3410.7883 1562.1331 L -3406.7883 1571.6331 L -3403.2883 1575.1331 L -3399.7883 1574.6331 L -3370.7883 1563.6331 L -3370.2883 1556.6331 L -3384.7883 1536.6331 L -3396.7883 1520.1331 L -3405.7883 1509.6331 L -3417.1966 1498 L -3426.1966 1488 L -3437.1966 1477 L -3450.7883 1464.6331 L -3464.1966 1455 L -3480.1966 1446 L -3496.1966 1437 L -3514.1966 1428 L -3529.1966 1420 L -3546.7883 1412.1331 L -3565.1966 1407 L -3587.1966 1402 L -3600.1966 1400 L -3620.1966 1398 L -3645.1966 1397 L -3667.1966 1397 L -3692.1966 1397 L -3707.1966 1400 L -3721.1966 1402 Z" stroke="#003776" stroke-linecap="round" stroke-linejoin="round" stroke-width="8"/>
      <path d="M -3706.1966 1906 L -3703.6966 1901.5 L -3700.1966 1898 L -3677.1966 1864 L -3642.1966 1808.5 L -3632.1966 1793 L -3625.1966 1779 L -3621.1966 1772.5 L -3618.1966 1763 L -3612.1966 1759 L -3598.1966 1733 L -3586.1966 1712 L -3572.1966 1691 L -3562.1966 1680 L -3552.1966 1672 L -3536.1966 1662 L -3519.1966 1655 L -3498.1966 1649 L -3474.1966 1642 L -3455.1966 1637 L -3436.6966 1633 L -3423.1966 1630.5 L -3409.1966 1629 L -3391.6966 1630.5 L -3388.1966 1629 L -3388.1966 1624 L -3397.1966 1604 L -3403.1966 1591 L -3406.6966 1583.5 L -3408.1966 1578 L -3406.1966 1573 L -3400.1966 1568 L -3388.1966 1562 L -3379.1966 1560 L -3372.6966 1560 L -3367.1966 1562 L -3363.1966 1565 L -3359.1966 1574 L -3351.1966 1591 L -3344.1966 1606 L -3342.1966 1619 L -3329.1966 1619 L -3337.1966 1598.5 L -3342.6966 1586 L -3347.1966 1575 L -3344.1966 1571 L -3336.1966 1566 L -3326.1966 1562 L -3319.1966 1562 L -3315.6966 1566 L -3307.6966 1584 L -3297.1966 1606 L -3289.6966 1623 L -3283.1966 1641 L -3282.6966 1647 L -3285.1966 1653 L -3289.6966 1655 L -3301.6966 1656 L -3310.1966 1656 L -3315.1966 1654.5 L -3319.1966 1652 L -3326.1966 1641 L -3330.1966 1638 L -3338.1966 1639 L -3342.1966 1647 L -3353.1966 1657 L -3372.1966 1656 L -3384.1966 1654 L -3390.1966 1651.5 L -3391.6966 1651.5 L -3399.1966 1649 L -3419.1966 1652 L -3452.1966 1660 L -3470.1966 1663 L -3498.1966 1671 L -3514.1966 1676 L -3529.1966 1682.5 L -3537.1966 1687.5 L -3550.6966 1702.5 L -3563.6966 1721 L -3572.1966 1736 L -3582.1966 1755 L -3591.1966 1772 L -3601.1966 1788 L -3613.1966 1810 L -3623.1966 1828 L -3605.1966 1836 L -3585.1966 1849 L -3573.1966 1862 L -3571.1966 1869.5 L -3573.6966 1878 L -3578.1966 1887 L -3582.6966 1892.5 L -3585.6966 1895.5 L -3590.1966 1898.5 L -3600.1966 1902 L -3604.6966 1903 L -3607.6966 1902 L -3610.6966 1900.5 L -3620.1966 1895.5 L -3637.1966 1886 L -3653.6966 1876.5 L -3657.1966 1878 L -3669.1966 1894 L -3671.1966 1897.5 L -3672.1966 1900.5 L -3669.1966 1902 L -3663.6966 1902.5 L -3645.1966 1904 L -3628.6966 1907 L -3609.1966 1910 L -3592.1966 1912 L -3561.1966 1918 L -3521.1966 1926 L -3471.1966 1932 L -3433.1966 1935 L -3395.6966 1932 L -3355.1966 1927 L -3314.1966 1922 L -3261.1966 1913 L -3231.1966 1908 L -3207.1966 1904 L -3179.6966 1897.5 L -3162.1966 1889.5 L -3161.1966 1899.5 L -3155.1966 1910 L -3161.1966 1914 L -3182.6966 1919 L -3201.1966 1922.5 L -3228.1966 1930.5 L -3251.6966 1935.5 L -3282.1966 1941 L -3305.6966 1944.5 L -3327.1966 1946.5 L -3354.1966 1950 L -3383.1966 1953 L -3412.1966 1955 L -3400.1966 1976 L -3395.1966 1985 L -3390.1966 1995 L -3381.1966 2003 L -3369.1966 2012 L -3351.1966 2020 L -3334.1966 2027 L -3315.1966 2031 L -3299.1966 2032 L -3281.1966 2032 L -3254.1966 2029 L -3234.1966 2026 L -3219.6966 2022.5 L -3213.1966 2020 L -3207.6966 2016.5 L -3208.1966 2007 L -3209.6966 1985 L -3212.6966 1964.5 L -3216.6966 1946.5 L -3218.6966 1935 L -3220.6966 1927.5 L -3220.3966 1927.6 L -3201.1966 1922.5 L -3198.1966 1938.5 L -3195.1966 1954.5 L -3193.1966 1965.5 L -3191.1966 1976 L -3190.1966 1992 L -3189.1966 2014 L -3184.1966 2015.5 L -3175.1966 2014 L -3153.6966 2008 L -3145.6966 2000.5 L -3144.1966 1989.5 L -3145.6966 1979.5 L -3147.1966 1962 L -3150.6966 1944 L -3152.6966 1928 L -3154.6966 1919.5 L -3156.1966 1912 L -3155.6966 1911.5 L -3138.1966 1905.5 L -3135.1966 1915.5 L -3132.1966 1932 L -3128.6966 1954.5 L -3127.1966 1976 L -3127.1966 1988.5 L -3127.1966 1997.5 L -3128.1966 2009.5 L -3130.6966 2015 L -3136.1966 2021 L -3145.1966 2026 L -3165.1966 2030 L -3194.1966 2036 L -3217.1966 2041 L -3237.1966 2046 L -3263.1966 2050 L -3287.1966 2052 L -3304.1966 2052 L -3319.1966 2050 L -3334.1966 2047 L -3347.1966 2043 L -3361.1966 2037 L -3373.1966 2032 L -3385.1966 2026 L -3396.1966 2019 L -3404.1966 2012 L -3412.1966 2001 L -3422.1966 1986 L -3433.1966 1967 L -3436.1966 1958 L -3468.1966 1955 L -3517.1966 1948 L -3555.1966 1941 L -3598.1966 1933 L -3633.1966 1926 L -3666.1966 1922 L -3691.1966 1920 L -3701.1966 1918 L -3704.6966 1912.5 Z" fill="black"/>
      <path d="M -3706.1966 1906 L -3703.6966 1901.5 L -3700.1966 1898 L -3677.1966 1864 L -3642.1966 1808.5 L -3632.1966 1793 L -3625.1966 1779 L -3621.1966 1772.5 L -3618.1966 1763 L -3612.1966 1759 L -3598.1966 1733 L -3586.1966 1712 L -3572.1966 1691 L -3562.1966 1680 L -3552.1966 1672 L -3536.1966 1662 L -3519.1966 1655 L -3498.1966 1649 L -3474.1966 1642 L -3455.1966 1637 L -3436.6966 1633 L -3423.1966 1630.5 L -3409.1966 1629 L -3391.6966 1630.5 L -3388.1966 1629 L -3388.1966 1624 L -3397.1966 1604 L -3403.1966 1591 L -3406.6966 1583.5 L -3408.1966 1578 L -3406.1966 1573 L -3400.1966 1568 L -3388.1966 1562 L -3379.1966 1560 L -3372.6966 1560 L -3367.1966 1562 L -3363.1966 1565 L -3359.1966 1574 L -3351.1966 1591 L -3344.1966 1606 L -3342.1966 1619 L -3329.1966 1619 L -3337.1966 1598.5 L -3342.6966 1586 L -3347.1966 1575 L -3344.1966 1571 L -3336.1966 1566 L -3326.1966 1562 L -3319.1966 1562 L -3315.6966 1566 L -3307.6966 1584 L -3297.1966 1606 L -3289.6966 1623 L -3283.1966 1641 L -3282.6966 1647 L -3285.1966 1653 L -3289.6966 1655 L -3301.6966 1656 L -3310.1966 1656 L -3315.1966 1654.5 L -3319.1966 1652 L -3326.1966 1641 L -3330.1966 1638 L -3338.1966 1639 L -3342.1966 1647 L -3353.1966 1657 L -3372.1966 1656 L -3384.1966 1654 L -3390.1966 1651.5 L -3391.6966 1651.5 L -3399.1966 1649 L -3419.1966 1652 L -3452.1966 1660 L -3470.1966 1663 L -3498.1966 1671 L -3514.1966 1676 L -3529.1966 1682.5 L -3537.1966 1687.5 L -3550.6966 1702.5 L -3563.6966 1721 L -3572.1966 1736 L -3582.1966 1755 L -3591.1966 1772 L -3601.1966 1788 L -3613.1966 1810 L -3623.1966 1828 L -3605.1966 1836 L -3585.1966 1849 L -3573.1966 1862 L -3571.1966 1869.5 L -3573.6966 1878 L -3578.1966 1887 L -3582.6966 1892.5 L -3585.6966 1895.5 L -3590.1966 1898.5 L -3600.1966 1902 L -3604.6966 1903 L -3607.6966 1902 L -3610.6966 1900.5 L -3620.1966 1895.5 L -3637.1966 1886 L -3653.6966 1876.5 L -3657.1966 1878 L -3669.1966 1894 L -3671.1966 1897.5 L -3672.1966 1900.5 L -3669.1966 1902 L -3663.6966 1902.5 L -3645.1966 1904 L -3628.6966 1907 L -3609.1966 1910 L -3592.1966 1912 L -3561.1966 1918 L -3521.1966 1926 L -3471.1966 1932 L -3433.1966 1935 L -3395.6966 1932 L -3355.1966 1927 L -3314.1966 1922 L -3261.1966 1913 L -3231.1966 1908 L -3207.1966 1904 L -3179.6966 1897.5 L -3162.1966 1889.5 L -3161.1966 1899.5 L -3155.1966 1910 L -3161.1966 1914 L -3182.6966 1919 L -3201.1966 1922.5 L -3228.1966 1930.5 L -3251.6966 1935.5 L -3282.1966 1941 L -3305.6966 1944.5 L -3327.1966 1946.5 L -3354.1966 1950 L -3383.1966 1953 L -3412.1966 1955 L -3400.1966 1976 L -3395.1966 1985 L -3390.1966 1995 L -3381.1966 2003 L -3369.1966 2012 L -3351.1966 2020 L -3334.1966 2027 L -3315.1966 2031 L -3299.1966 2032 L -3281.1966 2032 L -3254.1966 2029 L -3234.1966 2026 L -3219.6966 2022.5 L -3213.1966 2020 L -3207.6966 2016.5 L -3208.1966 2007 L -3209.6966 1985 L -3212.6966 1964.5 L -3216.6966 1946.5 L -3218.6966 1935 L -3220.6966 1927.5 L -3220.3966 1927.6 L -3201.1966 1922.5 L -3198.1966 1938.5 L -3195.1966 1954.5 L -3193.1966 1965.5 L -3191.1966 1976 L -3190.1966 1992 L -3189.1966 2014 L -3184.1966 2015.5 L -3175.1966 2014 L -3153.6966 2008 L -3145.6966 2000.5 L -3144.1966 1989.5 L -3145.6966 1979.5 L -3147.1966 1962 L -3150.6966 1944 L -3152.6966 1928 L -3154.6966 1919.5 L -3156.1966 1912 L -3155.6966 1911.5 L -3138.1966 1905.5 L -3135.1966 1915.5 L -3132.1966 1932 L -3128.6966 1954.5 L -3127.1966 1976 L -3127.1966 1988.5 L -3127.1966 1997.5 L -3128.1966 2009.5 L -3130.6966 2015 L -3136.1966 2021 L -3145.1966 2026 L -3165.1966 2030 L -3194.1966 2036 L -3217.1966 2041 L -3237.1966 2046 L -3263.1966 2050 L -3287.1966 2052 L -3304.1966 2052 L -3319.1966 2050 L -3334.1966 2047 L -3347.1966 2043 L -3361.1966 2037 L -3373.1966 2032 L -3385.1966 2026 L -3396.1966 2019 L -3404.1966 2012 L -3412.1966 2001 L -3422.1966 1986 L -3433.1966 1967 L -3436.1966 1958 L -3468.1966 1955 L -3517.1966 1948 L -3555.1966 1941 L -3598.1966 1933 L -3633.1966 1926 L -3666.1966 1922 L -3691.1966 1920 L -3701.1966 1918 L -3704.6966 1912.5 Z" stroke="black" stroke-linecap="round" stroke-linejoin="round" stroke-width="1"/>
      <path d="M -3838 1724 L -3817 1722 L -3791 1712 L -3769 1702 L -3742 1692 L -3719 1689 L -3697 1695 L -3677 1706 L -3670 1712 L -3679 1693 L -3682 1673 L -3676 1652 L -3668 1639 L -3650 1635 L -3635 1625 L -3626 1615 L -3624 1610 L -3612 1609 L -3600 1609 L -3593 1613 L -3575 1604 L -3570 1592 L -3580 1596 L -3589 1598 L -3597 1598 L -3598 1595 L -3595 1589 L -3586 1584 L -3576 1582 L -3568 1582 L -3559 1583 L -3560 1569 L -3568 1564 L -3572 1560 L -3574 1554 L -3585 1556 L -3600 1557 L -3617 1558 L -3633 1559 L -3638 1559 L -3635 1552 L -3670 1564 L -3683 1561 L -3698 1565 L -3713 1569 L -3719 1574 L -3722 1579 L -3713 1579 L -3734 1588 L -3750 1599 L -3769 1615 L -3786 1631 L -3802 1651 L -3816 1669 L -3827 1691 L -3838 1712 Z" fill="white"/>
      <path d="M -3838 1724 L -3817 1722 L -3791 1712 L -3769 1702 L -3742 1692 L -3719 1689 L -3697 1695 L -3677 1706 L -3670 1712 L -3679 1693 L -3682 1673 L -3676 1652 L -3668 1639 L -3650 1635 L -3635 1625 L -3626 1615 L -3624 1610 L -3612 1609 L -3600 1609 L -3593 1613 L -3575 1604 L -3570 1592 L -3580 1596 L -3589 1598 L -3597 1598 L -3598 1595 L -3595 1589 L -3586 1584 L -3576 1582 L -3568 1582 L -3559 1583 L -3560 1569 L -3568 1564 L -3572 1560 L -3574 1554 L -3585 1556 L -3600 1557 L -3617 1558 L -3633 1559 L -3638 1559 L -3635 1552 L -3670 1564 L -3683 1561 L -3698 1565 L -3713 1569 L -3719 1574 L -3722 1579 L -3713 1579 L -3734 1588 L -3750 1599 L -3769 1615 L -3786 1631 L -3802 1651 L -3816 1669 L -3827 1691 L -3838 1712 Z" stroke="#0e145c" stroke-linecap="round" stroke-linejoin="round" stroke-width="5"/>
      <path d="M -3705.6667 1689.878 L -3707 1676.4146 L -3703 1661.8293 L -3691 1645 L -3709.6667 1667.439 L -3713.6667 1680.9024 L -3715 1691 Z" fill="#1f275b"/>
      <path d="M -3758.5 1696.7353 L -3749.5 1662.7353 L -3732.5 1641.7353 L -3708.5 1624.7353 L -3699.5 1620.7353 L -3683.5 1629.7353 L -3670.5 1631.7353 L -3658.5 1629.7353 L -3648.5 1625.7353 L -3642.5 1619.7353 L -3638.5 1615.7353 L -3634.5 1607.7353 L -3616.5 1599.7353 L -3639.5 1599.7353 L -3641.5 1609.7353 L -3645.5 1614.7353 L -3656.5 1621.7353 L -3666.5 1623.7353 L -3680.5 1623.7353 L -3687.5 1618.7353 L -3692.5 1611.7353 L -3742.5 1625.7353 L -3730.5 1632.7353 L -3747.5 1644.7353 L -3762.5 1658.7353 L -3770.5 1671.7353 L -3782.5 1688.7353 L -3789.5 1702.7353 L -3789.5 1708.7353 Z" fill="#000051"/>
      <path d="M -3666 1576 L -3643 1571 L -3623 1570 L -3608 1568 L -3641 1575 L -3643 1583 Z" fill="#00006d"/>
      <path d="M -3666 1576 L -3643 1571 L -3623 1570 L -3608 1568 L -3641 1575 L -3643 1583 Z" stroke="gray" stroke-linecap="round" stroke-linejoin="round" stroke-width=".25"/>
      <path d="M -3585 1564 L -3585 1568 L -3576 1572 L -3590 1572 L -3589 1566 Z" fill="#00003c"/>
      <path d="M -3585 1564 L -3585 1568 L -3576 1572 L -3590 1572 L -3589 1566 Z" stroke="gray" stroke-linecap="round" stroke-linejoin="round" stroke-width=".25"/>
      <path d="M -3691.165 1578.3647 L -3693.2253 1574.936 L -3703 1576.1427 L -3690.9997 1568.9321 L -3688.7666 1574.5902 Z" fill="#00003c"/>
      <path d="M -3691.165 1578.3647 L -3693.2253 1574.936 L -3703 1576.1427 L -3690.9997 1568.9321 L -3688.7666 1574.5902 Z" stroke="gray" stroke-linecap="round" stroke-linejoin="round" stroke-width=".25"/>
      <path d="M -3721 1577 L -3743 1570 L -3767 1568 L -3786 1571 L -3803 1578 L -3815 1588 L -3825 1598 L -3829 1608 L -3833 1618 L -3838 1628 L -3847 1632 L -3857 1633 L -3867 1631 L -3861 1643 L -3851 1648 L -3838 1650 L -3826 1645 L -3815 1636 L -3809 1626 L -3798 1616 L -3787 1611 L -3777 1608 L -3767 1610 Z" fill="#f57232"/>
      <path d="M -3721 1577 L -3743 1570 L -3767 1568 L -3786 1571 L -3803 1578 L -3815 1588 L -3825 1598 L -3829 1608 L -3833 1618 L -3838 1628 L -3847 1632 L -3857 1633 L -3867 1631 L -3861 1643 L -3851 1648 L -3838 1650 L -3826 1645 L -3815 1636 L -3809 1626 L -3798 1616 L -3787 1611 L -3777 1608 L -3767 1610 Z" stroke="#0e162f" stroke-linecap="round" stroke-linejoin="round" stroke-width="4"/>
      <path d="M -3895 1708 L -3882 1716 L -3871 1722 L -3861 1724 L -3849 1724 L -3842 1716 L -3832 1693 L -3826 1678 L -3839 1682 L -3848 1682 L -3855 1684 L -3861 1690 L -3865 1697 L -3869 1704 L -3875 1708 L -3884 1709 Z" fill="#f57232"/>
      <path d="M -3895 1708 L -3882 1716 L -3871 1722 L -3861 1724 L -3849 1724 L -3842 1716 L -3832 1693 L -3826 1678 L -3839 1682 L -3848 1682 L -3855 1684 L -3861 1690 L -3865 1697 L -3869 1704 L -3875 1708 L -3884 1709 Z" stroke="#060756" stroke-linecap="round" stroke-linejoin="round" stroke-width="3"/>
      <path d="M -3763 1603.7353 L -3781 1599.7353 L -3796 1604.7353 L -3809 1616.7353 L -3816 1627.7353 L -3825 1639.7353 L -3835 1649.7353 L -3845 1656.7353 L -3856 1655.7353 L -3870 1650.7353 L -3881 1635.7353 L -3879 1659.7353 L -3869 1669.7353 L -3860 1675.7353 L -3843 1681.7353 L -3833 1681.7353 L -3822 1679.7353 L -3812 1668.7353 L -3803 1651.7353 L -3784 1629.7353 L -3767 1613.7353 Z" fill="#f57232"/>
      <path d="M -3763 1603.7353 L -3781 1599.7353 L -3796 1604.7353 L -3809 1616.7353 L -3816 1627.7353 L -3825 1639.7353 L -3835 1649.7353 L -3845 1656.7353 L -3856 1655.7353 L -3870 1650.7353 L -3881 1635.7353 L -3879 1659.7353 L -3869 1669.7353 L -3860 1675.7353 L -3843 1681.7353 L -3833 1681.7353 L -3822 1679.7353 L -3812 1668.7353 L -3803 1651.7353 L -3784 1629.7353 L -3767 1613.7353 Z" stroke="#0c1151" stroke-linecap="round" stroke-linejoin="round" stroke-width="3"/>
    </g>
  </g>
</svg>
