<?xml version="1.0" encoding="UTF-8" standalone="no"?>
<!DOCTYPE svg PUBLIC "-//W3C//DTD SVG 1.1//EN" "http://www.w3.org/Graphics/SVG/1.1/DTD/svg11.dtd">
<svg xmlns="http://www.w3.org/2000/svg" xmlns:xl="http://www.w3.org/1999/xlink" version="1.1" viewBox="-3991 1950 861 660" width="861pt" height="55pc" xmlns:dc="http://purl.org/dc/elements/1.1/">
  <metadata> Produced by OmniGraffle 7.6.1 
    <dc:date>2018-09-19 02:13:53 +0000</dc:date>
  </metadata>
  <defs>
    <linearGradient x1="0" x2="1" id="Gradient" gradientUnits="userSpaceOnUse">
      <stop offset="0" stop-color="#464646"/>
      <stop offset="1" stop-color="#f0f0f0"/>
    </linearGradient>
    <linearGradient id="Obj_Gradient" xl:href="#Gradient" gradientTransform="translate(-3514.614 2210.222) rotate(72) scale(359.227)"/>
    <linearGradient x1="0" x2="1" id="Gradient_2" gradientUnits="userSpaceOnUse">
      <stop offset="0" stop-color="#a5a5a5"/>
      <stop offset="1" stop-color="white"/>
    </linearGradient>
    <linearGradient id="Obj_Gradient_2" xl:href="#Gradient_2" gradientTransform="translate(-3659 1951) rotate(90) scale(658)"/>
  </defs>
  <g stroke="none" stroke-opacity="1" stroke-dasharray="none" fill="none" fill-opacity="1">
    <title>Detroit Lions</title>
    <g>
      <title>Capa 1</title>
      <path d="M -3523 2536.0446 L -3493 2540.0446 L -3462 2534.0446 L -3434 2522.0446 L -3412 2504.0446 L -3400 2484.0446 L -3392 2457.0446 L -3386 2416.0446 L -3398 2373.0446 L -3402 2346.0446 L -3406 2309.0446 L -3400 2285.0446 L -3397 2259.0446 L -3384 2243.0446 L -3367.2203 2234.0446 L -3374.2203 2234.0446 L -3381.2203 2234.0446 L -3395.2203 2236.0446 L -3413.2203 2236.0446 L -3435.2203 2233.0446 L -3431.2203 2222.0446 L -3443.2203 2222.0446 L -3459.2203 2225.0446 L -3472.2203 2230.0446 L -3485.2203 2234.0446 L -3492.2203 2238.0446 L -3500.2203 2242.0446 L -3516.2203 2248.0446 L -3527.2203 2266.0446 L -3535.2203 2276.0446 L -3544.2203 2293.0446 L -3551 2320.0446 L -3551 2360.0446 L -3543.2203 2396.0446 L -3532 2431.0446 L -3517 2454.0446 L -3516.7203 2461.0446 L -3517.2203 2472.0446 L -3517.2203 2481.5446 L -3516.7203 2489.0446 L -3518 2497.0446 L -3517.7203 2510.5446 L -3521 2524.0446 L -3524.2203 2529.5446 L -3529 2535.0446 Z" fill="url(#Obj_Gradient)"/>
      <path d="M -3523 2536.0446 L -3493 2540.0446 L -3462 2534.0446 L -3434 2522.0446 L -3412 2504.0446 L -3400 2484.0446 L -3392 2457.0446 L -3386 2416.0446 L -3398 2373.0446 L -3402 2346.0446 L -3406 2309.0446 L -3400 2285.0446 L -3397 2259.0446 L -3384 2243.0446 L -3367.2203 2234.0446 L -3374.2203 2234.0446 L -3381.2203 2234.0446 L -3395.2203 2236.0446 L -3413.2203 2236.0446 L -3435.2203 2233.0446 L -3431.2203 2222.0446 L -3443.2203 2222.0446 L -3459.2203 2225.0446 L -3472.2203 2230.0446 L -3485.2203 2234.0446 L -3492.2203 2238.0446 L -3500.2203 2242.0446 L -3516.2203 2248.0446 L -3527.2203 2266.0446 L -3535.2203 2276.0446 L -3544.2203 2293.0446 L -3551 2320.0446 L -3551 2360.0446 L -3543.2203 2396.0446 L -3532 2431.0446 L -3517 2454.0446 L -3516.7203 2461.0446 L -3517.2203 2472.0446 L -3517.2203 2481.5446 L -3516.7203 2489.0446 L -3518 2497.0446 L -3517.7203 2510.5446 L -3521 2524.0446 L -3524.2203 2529.5446 L -3529 2535.0446 Z" stroke="black" stroke-linecap="round" stroke-linejoin="round" stroke-width="1"/>
      <path d="M -3934 2479 L -3936 2485 L -3941 2488 L -3934 2506 L -3926 2520 L -3922 2533 L -3918 2542 L -3917 2560 L -3912 2573 L -3900 2581 L -3889 2583 L -3872 2585 L -3859 2583 L -3846 2579 L -3832 2576 L -3820 2571 L -3812 2567 L -3804 2560 L -3797 2552 L -3786 2560 L -3775 2568 L -3761 2577 L -3746 2585 L -3728 2592 L -3709 2597 L -3690 2603 L -3670 2606 L -3650 2609 L -3628 2608 L -3611 2604 L -3589 2598 L -3570 2587 L -3557 2580 L -3544 2565 L -3534 2542 L -3521 2526.5 L -3518 2513 L -3516.5 2485 L -3516 2455.5 L -3531 2430 L -3540 2406 L -3550 2369 L -3552 2336 L -3548 2303 L -3533 2272 L -3515 2249 L -3482 2233 L -3454 2223 L -3432 2223 L -3432 2228 L -3435 2233 L -3413 2235 L -3388 2235 L -3364 2233 L -3358 2236 L -3343 2238 L -3331 2231 L -3328 2209 L -3328 2186 L -3343 2147 L -3352 2127 L -3364 2110 L -3380 2083 L -3414 2047 L -3444 2021 L -3474 1999 L -3507 1982 L -3542 1967 L -3576 1958 L -3601 1954 L -3627 1952 L -3655 1951 L -3679 1951 L -3708 1953 L -3735 1959 L -3763 1966 L -3789 1974 L -3802 1980 L -3819 1987 L -3840 1999 L -3868 2017 L -3889 2035 L -3910 2058 L -3927 2079 L -3941 2100 L -3955 2127 L -3968 2155 L -3977 2184 L -3984 2211 L -3990 2253 L -3989 2290 L -3985 2326 L -3978 2366 L -3966 2404 L -3952 2438 L -3940 2465 Z" fill="url(#Obj_Gradient_2)"/>
      <path d="M -3934 2479 L -3936 2485 L -3941 2488 L -3934 2506 L -3926 2520 L -3922 2533 L -3918 2542 L -3917 2560 L -3912 2573 L -3900 2581 L -3889 2583 L -3872 2585 L -3859 2583 L -3846 2579 L -3832 2576 L -3820 2571 L -3812 2567 L -3804 2560 L -3797 2552 L -3786 2560 L -3775 2568 L -3761 2577 L -3746 2585 L -3728 2592 L -3709 2597 L -3690 2603 L -3670 2606 L -3650 2609 L -3628 2608 L -3611 2604 L -3589 2598 L -3570 2587 L -3557 2580 L -3544 2565 L -3534 2542 L -3521 2526.5 L -3518 2513 L -3516.5 2485 L -3516 2455.5 L -3531 2430 L -3540 2406 L -3550 2369 L -3552 2336 L -3548 2303 L -3533 2272 L -3515 2249 L -3482 2233 L -3454 2223 L -3432 2223 L -3432 2228 L -3435 2233 L -3413 2235 L -3388 2235 L -3364 2233 L -3358 2236 L -3343 2238 L -3331 2231 L -3328 2209 L -3328 2186 L -3343 2147 L -3352 2127 L -3364 2110 L -3380 2083 L -3414 2047 L -3444 2021 L -3474 1999 L -3507 1982 L -3542 1967 L -3576 1958 L -3601 1954 L -3627 1952 L -3655 1951 L -3679 1951 L -3708 1953 L -3735 1959 L -3763 1966 L -3789 1974 L -3802 1980 L -3819 1987 L -3840 1999 L -3868 2017 L -3889 2035 L -3910 2058 L -3927 2079 L -3941 2100 L -3955 2127 L -3968 2155 L -3977 2184 L -3984 2211 L -3990 2253 L -3989 2290 L -3985 2326 L -3978 2366 L -3966 2404 L -3952 2438 L -3940 2465 Z" stroke="black" stroke-linecap="round" stroke-linejoin="round" stroke-width="2"/>
      <path d="M -3621.6 2334.5 L -3624.2 2330.1 L -3625 2325.1 L -3624.8 2323.5 L -3624 2322.1 L -3622.9 2319.7 L -3621.4 2317.3 L -3619.6 2314.5 L -3615.8 2312.9 L -3611 2313.7 L -3605.8 2318.3 L -3602.4 2322.7 L -3595.4 2334.7 L -3586.4 2345.7 L -3576.4 2356.7 L -3565.4 2369.7 L -3553.9 2379.2 L -3541.9 2389.7 L -3532.9 2394.2 L -3522.9 2397.7 L -3512.4 2401.7 L -3501.9 2404.2 L -3492.9 2405.2 L -3486.4 2406.2 L -3497.4 2382.7 L -3507.4 2361.2 L -3514.4 2345.7 L -3525.9 2321.2 L -3532.4 2304.7 L -3541.4 2285.7 L -3553.9 2264.2 L -3565.9 2247.7 L -3570 2242.1 L -3570 2238.9 L -3566.6 2234.5 L -3563.4 2231.3 L -3560 2228.3 L -3556.2 2226.5 L -3552.4 2227.7 L -3550.4 2229.7 L -3535.4 2251.7 L -3523.4 2278.7 L -3511.4 2303.7 L -3461.4 2408.7 L -3425.4 2406.7 L -3389.4 2404.7 L -3358.4 2399.7 L -3327.4 2395.7 L -3321 2393 L -3332.5 2358 L -3345.5 2330 L -3355.4 2306.7 L -3376.4 2260.7 L -3383 2244.5 L -3385 2238.5 L -3384 2235.5 L -3381.5 2234.5 L -3362.5 2233 L -3359 2235 L -3350 2258.5 L -3335 2299.5 L -3308.4 2366.7 L -3301 2389.5 L -3271 2384.5 L -3214 2377 L -3199 2371.5 L -3188.5 2362 L -3182 2363 L -3174.4 2366.7 L -3162.4 2378.7 L -3152.4 2414.7 L -3144.4 2440.7 L -3140.4 2459.7 L -3160.4 2465.2 L -3160.5 2461 L -3170.4 2436.7 L -3177.4 2410.7 L -3180.9 2396.7 L -3183.4 2393.2 L -3189.9 2392.2 L -3211.4 2395.7 L -3224.4 2396.7 L -3228.4 2397.7 L -3223.4 2406.7 L -3219.4 2418.7 L -3213.9 2440.2 L -3209.9 2457.2 L -3228.9 2461.2 L -3237.4 2428.7 L -3244.4 2409.7 L -3247.9 2403.7 L -3253.4 2401.7 L -3297.4 2408.7 L -3341.4 2412.7 L -3385.4 2419.7 L -3425.4 2422.7 L -3446.4 2423.7 L -3450.4 2423.7 L -3453.4 2425.7 L -3452.9 2430.2 L -3421.9 2487.7 L -3446.4 2488.2 L -3449.4 2487.2 L -3455.9 2474.7 L -3462.4 2460.2 L -3468.9 2445.7 L -3473.4 2433.7 L -3476.9 2427.7 L -3478.9 2424.7 L -3482.9 2423.2 L -3490.4 2422.2 L -3502.4 2420.7 L -3516.4 2417.7 L -3539.4 2410.7 L -3551.9 2404.7 L -3564.4 2396.7 L -3582.4 2381.7 L -3597.9 2363.7 L -3608.4 2351.7 Z" fill="black"/>
      <path d="M -3621.6 2334.5 L -3624.2 2330.1 L -3625 2325.1 L -3624.8 2323.5 L -3624 2322.1 L -3622.9 2319.7 L -3621.4 2317.3 L -3619.6 2314.5 L -3615.8 2312.9 L -3611 2313.7 L -3605.8 2318.3 L -3602.4 2322.7 L -3595.4 2334.7 L -3586.4 2345.7 L -3576.4 2356.7 L -3565.4 2369.7 L -3553.9 2379.2 L -3541.9 2389.7 L -3532.9 2394.2 L -3522.9 2397.7 L -3512.4 2401.7 L -3501.9 2404.2 L -3492.9 2405.2 L -3486.4 2406.2 L -3497.4 2382.7 L -3507.4 2361.2 L -3514.4 2345.7 L -3525.9 2321.2 L -3532.4 2304.7 L -3541.4 2285.7 L -3553.9 2264.2 L -3565.9 2247.7 L -3570 2242.1 L -3570 2238.9 L -3566.6 2234.5 L -3563.4 2231.3 L -3560 2228.3 L -3556.2 2226.5 L -3552.4 2227.7 L -3550.4 2229.7 L -3535.4 2251.7 L -3523.4 2278.7 L -3511.4 2303.7 L -3461.4 2408.7 L -3425.4 2406.7 L -3389.4 2404.7 L -3358.4 2399.7 L -3327.4 2395.7 L -3321 2393 L -3332.5 2358 L -3345.5 2330 L -3355.4 2306.7 L -3376.4 2260.7 L -3383 2244.5 L -3385 2238.5 L -3384 2235.5 L -3381.5 2234.5 L -3362.5 2233 L -3359 2235 L -3350 2258.5 L -3335 2299.5 L -3308.4 2366.7 L -3301 2389.5 L -3271 2384.5 L -3214 2377 L -3199 2371.5 L -3188.5 2362 L -3182 2363 L -3174.4 2366.7 L -3162.4 2378.7 L -3152.4 2414.7 L -3144.4 2440.7 L -3140.4 2459.7 L -3160.4 2465.2 L -3160.5 2461 L -3170.4 2436.7 L -3177.4 2410.7 L -3180.9 2396.7 L -3183.4 2393.2 L -3189.9 2392.2 L -3211.4 2395.7 L -3224.4 2396.7 L -3228.4 2397.7 L -3223.4 2406.7 L -3219.4 2418.7 L -3213.9 2440.2 L -3209.9 2457.2 L -3228.9 2461.2 L -3237.4 2428.7 L -3244.4 2409.7 L -3247.9 2403.7 L -3253.4 2401.7 L -3297.4 2408.7 L -3341.4 2412.7 L -3385.4 2419.7 L -3425.4 2422.7 L -3446.4 2423.7 L -3450.4 2423.7 L -3453.4 2425.7 L -3452.9 2430.2 L -3421.9 2487.7 L -3446.4 2488.2 L -3449.4 2487.2 L -3455.9 2474.7 L -3462.4 2460.2 L -3468.9 2445.7 L -3473.4 2433.7 L -3476.9 2427.7 L -3478.9 2424.7 L -3482.9 2423.2 L -3490.4 2422.2 L -3502.4 2420.7 L -3516.4 2417.7 L -3539.4 2410.7 L -3551.9 2404.7 L -3564.4 2396.7 L -3582.4 2381.7 L -3597.9 2363.7 L -3608.4 2351.7 Z" stroke="black" stroke-linecap="round" stroke-linejoin="round" stroke-width="2"/>
      <path d="M -3385.6236 2431.5 L -3387.6236 2449.5 L -3353.6236 2454.5 L -3322.6236 2459.5 L -3301.6236 2462 L -3297.6236 2462 L -3290.6236 2464 L -3287.6236 2467.5 L -3281.1236 2491 L -3271.1236 2511.5 L -3267.1236 2520.5 L -3260.1236 2525.5 L -3255.1236 2529.5 L -3243.1236 2536.5 L -3239.1236 2539.5 L -3228.1236 2544.5 L -3203.1236 2554.5 L -3177.6236 2565.5 L -3150.6236 2578.5 L -3147.1236 2580 L -3139.6236 2576.5 L -3135.6236 2572 L -3132.6236 2568 L -3132.1236 2562 L -3148.6236 2556.5 L -3170.1236 2547.5 L -3194.6236 2535.5 L -3218.1236 2526.5 L -3233.1236 2519.5 L -3246.1236 2511.5 L -3251.1236 2502.5 L -3256.1236 2492.5 L -3264.1236 2467.5 L -3190.6236 2455.5 L -3166.1236 2445.5 L -3170.1236 2438.5 L -3200.1236 2441.5 L -3241.6236 2443.5 L -3266.6236 2443.5 L -3274.1236 2444 L -3277.1236 2440.5 L -3279.6236 2432.5 L -3296.6236 2387.5 L -3231.1236 2378 L -3199.6236 2372.5 L -3187.6236 2363.5 L -3226.2665 2364.8571 L -3263.2665 2365.3571 L -3292.6236 2365.5 L -3308.6236 2367 L -3358.6236 2237 L -3363.6236 2234 L -3383.1236 2236 L -3384.6236 2240.5 L -3365.1236 2285 L -3349.6236 2318.5 L -3339.6236 2342.5 L -3330.6236 2364 L -3342.6236 2359.5 L -3351.1236 2355.5 L -3358.6236 2346.5 L -3375.6236 2328.5 L -3385.6236 2314.5 L -3402.6236 2293.5 L -3406 2310.5 L -3403.5 2328.5 L -3387.6236 2347.5 L -3370.6236 2367.5 L -3349.6236 2379.5 L -3323.6236 2385.5 L -3297.6236 2442.5 L -3348.6236 2434.5 Z" fill="black"/>
      <path d="M -3385.6236 2431.5 L -3387.6236 2449.5 L -3353.6236 2454.5 L -3322.6236 2459.5 L -3301.6236 2462 L -3297.6236 2462 L -3290.6236 2464 L -3287.6236 2467.5 L -3281.1236 2491 L -3271.1236 2511.5 L -3267.1236 2520.5 L -3260.1236 2525.5 L -3255.1236 2529.5 L -3243.1236 2536.5 L -3239.1236 2539.5 L -3228.1236 2544.5 L -3203.1236 2554.5 L -3177.6236 2565.5 L -3150.6236 2578.5 L -3147.1236 2580 L -3139.6236 2576.5 L -3135.6236 2572 L -3132.6236 2568 L -3132.1236 2562 L -3148.6236 2556.5 L -3170.1236 2547.5 L -3194.6236 2535.5 L -3218.1236 2526.5 L -3233.1236 2519.5 L -3246.1236 2511.5 L -3251.1236 2502.5 L -3256.1236 2492.5 L -3264.1236 2467.5 L -3190.6236 2455.5 L -3166.1236 2445.5 L -3170.1236 2438.5 L -3200.1236 2441.5 L -3241.6236 2443.5 L -3266.6236 2443.5 L -3274.1236 2444 L -3277.1236 2440.5 L -3279.6236 2432.5 L -3296.6236 2387.5 L -3231.1236 2378 L -3199.6236 2372.5 L -3187.6236 2363.5 L -3226.2665 2364.8571 L -3263.2665 2365.3571 L -3292.6236 2365.5 L -3308.6236 2367 L -3358.6236 2237 L -3363.6236 2234 L -3383.1236 2236 L -3384.6236 2240.5 L -3365.1236 2285 L -3349.6236 2318.5 L -3339.6236 2342.5 L -3330.6236 2364 L -3342.6236 2359.5 L -3351.1236 2355.5 L -3358.6236 2346.5 L -3375.6236 2328.5 L -3385.6236 2314.5 L -3402.6236 2293.5 L -3406 2310.5 L -3403.5 2328.5 L -3387.6236 2347.5 L -3370.6236 2367.5 L -3349.6236 2379.5 L -3323.6236 2385.5 L -3297.6236 2442.5 L -3348.6236 2434.5 Z" stroke="black" stroke-linecap="round" stroke-linejoin="round" stroke-width="2"/>
      <path d="M -3733 2450 L -3710 2417 L -3708.8 2408.2 L -3710 2403.8 L -3711.8 2398.4 L -3714.2 2393.8 L -3717 2388.8 L -3721 2385 L -3725.8 2381.6 L -3733 2378 L -3742.4 2374.8 L -3748.4 2373.8 L -3755 2374 L -3758 2374.4 L -3761 2375.5 L -3767 2378 L -3773.5 2382 L -3776 2384.5 L -3779 2388 L -3782 2396 L -3783.2 2404 L -3783.4 2409.2 L -3783.4 2414.4 L -3782.6 2419.4 L -3782 2423.2 L -3780.6 2428.2 L -3779.2 2431.8 L -3776.8 2434.8 L -3774.4 2438.2 L -3771.8 2440.4 L -3769 2443.2 L -3764.2 2446 L -3759 2449 L -3752.2 2450.8 L -3745 2451 Z" fill="black"/>
      <path d="M -3733 2450 L -3710 2417 L -3708.8 2408.2 L -3710 2403.8 L -3711.8 2398.4 L -3714.2 2393.8 L -3717 2388.8 L -3721 2385 L -3725.8 2381.6 L -3733 2378 L -3742.4 2374.8 L -3748.4 2373.8 L -3755 2374 L -3758 2374.4 L -3761 2375.5 L -3767 2378 L -3773.5 2382 L -3776 2384.5 L -3779 2388 L -3782 2396 L -3783.2 2404 L -3783.4 2409.2 L -3783.4 2414.4 L -3782.6 2419.4 L -3782 2423.2 L -3780.6 2428.2 L -3779.2 2431.8 L -3776.8 2434.8 L -3774.4 2438.2 L -3771.8 2440.4 L -3769 2443.2 L -3764.2 2446 L -3759 2449 L -3752.2 2450.8 L -3745 2451 Z" stroke="black" stroke-linecap="round" stroke-linejoin="round" stroke-width="2"/>
      <path d="M -3885.361 2254.0544 L -3879.4583 2239.034 L -3869.1285 2229.0204 L -3864.7014 2216.5034 L -3857.323 2200.2313 L -3852.896 2188.966 L -3854.3715 2177.7007 L -3848.4688 2162.6803 L -3858.7986 2160.1769 L -3839.6146 2142.653 L -3846.993 2142.653 L -3836.663 2123.8776 L -3830.7604 2115.1156 L -3846.993 2112.6122 L -3826.3333 2097.5918 L -3835.1875 2093.8367 L -3814.528 2083.8231 L -3818.955 2078.8163 L -3792.3924 2071.306 L -3805.6736 2066.2993 L -3779.111 2060.0408 L -3783.538 2053.7823 L -3764.354 2050.0272 L -3768.7812 2047.5238 L -3755.5 2042.517 L -3767.3056 2030 L -3740.743 2033.755 L -3717.132 2033.755 L -3700.8993 2031.2517 L -3690.5694 2035.0068 L -3677.288 2037.5102 L -3664.007 2037.5102 L -3647.7743 2037.5102 L -3640.396 2040.0136 L -3633.0174 2052.5306 L -3637.4444 2063.796 L -3625.639 2063.796 L -3616.7847 2058.789 L -3603.5035 2055.034 L -3591.698 2060.0408 L -3584.3194 2067.551 L -3581.368 2076.313 L -3581.368 2085.0748 L -3591.698 2092.585 L -3603.5035 2097.5918 L -3613.8333 2097.5918 L -3627.1146 2103.8503 L -3638.92 2113.864 L -3646.2986 2122.6259 L -3622.6875 2127.6327 L -3606.455 2127.6327 L -3596.125 2125.1293 L -3587.271 2121.3741 L -3575.4653 2118.8707 L -3557.757 2122.6259 L -3547.427 2128.8844 L -3543 2138.898 L -3544.4757 2147.6599 L -3551.854 2152.6667 L -3559.2326 2157.6735 L -3568.087 2165.1837 L -3582.8438 2167.687 L -3602.0278 2171.4422 L -3619.736 2171.4422 L -3634.493 2171.4422 L -3650.7257 2175.1973 L -3664.007 2175.1973 L -3669.9097 2181.4558 L -3683.191 2191.4694 L -3699.4236 2193.9728 L -3712.705 2196.4762 L -3725.986 2197.728 L -3742.2188 2207.7415 L -3754.0243 2219.0068 L -3761.403 2227.7687 L -3754.0243 2230.272 L -3754.0243 2239.034 L -3756.9757 2250.2993 L -3761.403 2256.5578 L -3768.7812 2266.5714 L -3756.9757 2266.5714 L -3749.597 2269.0748 L -3742.2188 2275.3333 L -3743.6944 2280.3401 L -3743.6944 2289.102 L -3749.597 2295.3605 L -3767.3056 2306.6259 L -3790.9167 2319.1429 L -3807.1493 2324.1497 L -3816.0035 2324.1497 L -3821.9062 2321.6463 L -3826.3333 2314.136 L -3830.7604 2327.9048 L -3836.663 2337.9184 L -3841.0903 2344.177 L -3842.566 2351.687 L -3829.2847 2352.9388 L -3824.8576 2361.7007 L -3820.4306 2370.4626 L -3823.382 2379.2245 L -3827.809 2389.238 L -3836.663 2396.7483 L -3848.4688 2398 L -3861.75 2392.9932 L -3869.1285 2381.728 L -3875.0312 2370.4626 L -3880.934 2355.4422 L -3882.4097 2340.4218 L -3882.4097 2324.1497 L -3880.934 2309.1293 L -3882.4097 2295.3605 L -3885.361 2284.0952 L -3898.6424 2285.347 L -3913.3993 2285.347 L -3923.729 2279.0884 L -3931.1076 2270.3265 L -3937.0104 2259.0612 L -3938.486 2252.8027 L -3945.8646 2256.5578 L -3953.243 2260.313 L -3959.146 2261.5646 L -3960.6215 2250.2993 L -3966.5243 2240.2857 L -3968 2231.5238 L -3960.6215 2222.762 L -3956.1944 2217.755 L -3950.2917 2212.7483 L -3935.5347 2214 L -3926.6806 2222.762 L -3919.302 2234.0272 L -3916.3507 2241.5374 L -3908.972 2249.0476 L -3897.1667 2255.306 L -3891.264 2255.306 Z" fill="blue"/>
      <path d="M -3885.361 2254.0544 L -3879.4583 2239.034 L -3869.1285 2229.0204 L -3864.7014 2216.5034 L -3857.323 2200.2313 L -3852.896 2188.966 L -3854.3715 2177.7007 L -3848.4688 2162.6803 L -3858.7986 2160.1769 L -3839.6146 2142.653 L -3846.993 2142.653 L -3836.663 2123.8776 L -3830.7604 2115.1156 L -3846.993 2112.6122 L -3826.3333 2097.5918 L -3835.1875 2093.8367 L -3814.528 2083.8231 L -3818.955 2078.8163 L -3792.3924 2071.306 L -3805.6736 2066.2993 L -3779.111 2060.0408 L -3783.538 2053.7823 L -3764.354 2050.0272 L -3768.7812 2047.5238 L -3755.5 2042.517 L -3767.3056 2030 L -3740.743 2033.755 L -3717.132 2033.755 L -3700.8993 2031.2517 L -3690.5694 2035.0068 L -3677.288 2037.5102 L -3664.007 2037.5102 L -3647.7743 2037.5102 L -3640.396 2040.0136 L -3633.0174 2052.5306 L -3637.4444 2063.796 L -3625.639 2063.796 L -3616.7847 2058.789 L -3603.5035 2055.034 L -3591.698 2060.0408 L -3584.3194 2067.551 L -3581.368 2076.313 L -3581.368 2085.0748 L -3591.698 2092.585 L -3603.5035 2097.5918 L -3613.8333 2097.5918 L -3627.1146 2103.8503 L -3638.92 2113.864 L -3646.2986 2122.6259 L -3622.6875 2127.6327 L -3606.455 2127.6327 L -3596.125 2125.1293 L -3587.271 2121.3741 L -3575.4653 2118.8707 L -3557.757 2122.6259 L -3547.427 2128.8844 L -3543 2138.898 L -3544.4757 2147.6599 L -3551.854 2152.6667 L -3559.2326 2157.6735 L -3568.087 2165.1837 L -3582.8438 2167.687 L -3602.0278 2171.4422 L -3619.736 2171.4422 L -3634.493 2171.4422 L -3650.7257 2175.1973 L -3664.007 2175.1973 L -3669.9097 2181.4558 L -3683.191 2191.4694 L -3699.4236 2193.9728 L -3712.705 2196.4762 L -3725.986 2197.728 L -3742.2188 2207.7415 L -3754.0243 2219.0068 L -3761.403 2227.7687 L -3754.0243 2230.272 L -3754.0243 2239.034 L -3756.9757 2250.2993 L -3761.403 2256.5578 L -3768.7812 2266.5714 L -3756.9757 2266.5714 L -3749.597 2269.0748 L -3742.2188 2275.3333 L -3743.6944 2280.3401 L -3743.6944 2289.102 L -3749.597 2295.3605 L -3767.3056 2306.6259 L -3790.9167 2319.1429 L -3807.1493 2324.1497 L -3816.0035 2324.1497 L -3821.9062 2321.6463 L -3826.3333 2314.136 L -3830.7604 2327.9048 L -3836.663 2337.9184 L -3841.0903 2344.177 L -3842.566 2351.687 L -3829.2847 2352.9388 L -3824.8576 2361.7007 L -3820.4306 2370.4626 L -3823.382 2379.2245 L -3827.809 2389.238 L -3836.663 2396.7483 L -3848.4688 2398 L -3861.75 2392.9932 L -3869.1285 2381.728 L -3875.0312 2370.4626 L -3880.934 2355.4422 L -3882.4097 2340.4218 L -3882.4097 2324.1497 L -3880.934 2309.1293 L -3882.4097 2295.3605 L -3885.361 2284.0952 L -3898.6424 2285.347 L -3913.3993 2285.347 L -3923.729 2279.0884 L -3931.1076 2270.3265 L -3937.0104 2259.0612 L -3938.486 2252.8027 L -3945.8646 2256.5578 L -3953.243 2260.313 L -3959.146 2261.5646 L -3960.6215 2250.2993 L -3966.5243 2240.2857 L -3968 2231.5238 L -3960.6215 2222.762 L -3956.1944 2217.755 L -3950.2917 2212.7483 L -3935.5347 2214 L -3926.6806 2222.762 L -3919.302 2234.0272 L -3916.3507 2241.5374 L -3908.972 2249.0476 L -3897.1667 2255.306 L -3891.264 2255.306 Z" stroke="white" stroke-linecap="round" stroke-linejoin="round" stroke-width="8"/>
      <path d="M -3728 1958.4118 L -3694 1958.4118 L -3667 1958.4118 L -3637 1960.4118 L -3618.0917 1963.545 L -3604.5917 1966.045 L -3591.0917 1970.045 L -3580 1973.4118 L -3564.5917 1978.545 L -3551.0917 1984.045 L -3538.0917 1991.045 L -3526 1998.4118 L -3517 2004.4118 L -3501.5917 2014.045 L -3483 2027.4118 L -3471 2040.4118 L -3461 2051.4118 L -3449 2063.4118 L -3438.5917 2077.545 L -3427 2094.4118 L -3420 2105.4118 L -3414.5917 2116.545 L -3410.5917 2126.045 L -3407.0917 2129.545 L -3403.5917 2129.045 L -3374.5917 2118.045 L -3374.0917 2111.045 L -3388.5917 2091.045 L -3400.5917 2074.545 L -3409.5917 2064.045 L -3421 2052.4118 L -3430 2042.4118 L -3441 2031.4118 L -3454.5917 2019.045 L -3468 2009.4118 L -3484 2000.4118 L -3500 1991.4118 L -3518 1982.4118 L -3533 1974.4118 L -3550.5917 1966.545 L -3569 1961.4118 L -3591 1956.4118 L -3604 1954.4118 L -3624 1952.4118 L -3649 1951.4118 L -3671 1951.4118 L -3696 1951.4118 L -3711 1954.4118 L -3725 1956.4118 Z" fill="blue"/>
      <path d="M -3728 1958.4118 L -3694 1958.4118 L -3667 1958.4118 L -3637 1960.4118 L -3618.0917 1963.545 L -3604.5917 1966.045 L -3591.0917 1970.045 L -3580 1973.4118 L -3564.5917 1978.545 L -3551.0917 1984.045 L -3538.0917 1991.045 L -3526 1998.4118 L -3517 2004.4118 L -3501.5917 2014.045 L -3483 2027.4118 L -3471 2040.4118 L -3461 2051.4118 L -3449 2063.4118 L -3438.5917 2077.545 L -3427 2094.4118 L -3420 2105.4118 L -3414.5917 2116.545 L -3410.5917 2126.045 L -3407.0917 2129.545 L -3403.5917 2129.045 L -3374.5917 2118.045 L -3374.0917 2111.045 L -3388.5917 2091.045 L -3400.5917 2074.545 L -3409.5917 2064.045 L -3421 2052.4118 L -3430 2042.4118 L -3441 2031.4118 L -3454.5917 2019.045 L -3468 2009.4118 L -3484 2000.4118 L -3500 1991.4118 L -3518 1982.4118 L -3533 1974.4118 L -3550.5917 1966.545 L -3569 1961.4118 L -3591 1956.4118 L -3604 1954.4118 L -3624 1952.4118 L -3649 1951.4118 L -3671 1951.4118 L -3696 1951.4118 L -3711 1954.4118 L -3725 1956.4118 Z" stroke="black" stroke-linecap="round" stroke-linejoin="round" stroke-width="1"/>
      <path d="M -3710 2460 L -3707.5 2455.5 L -3704 2452 L -3681 2418 L -3646 2362.5 L -3636 2347 L -3629 2333 L -3625 2326.5 L -3622 2317 L -3616 2313 L -3602 2287 L -3590 2266 L -3576 2245 L -3566 2234 L -3556 2226 L -3540 2216 L -3523 2209 L -3502 2203 L -3478 2196 L -3459 2191 L -3440.5 2187 L -3427 2184.5 L -3413 2183 L -3395.5 2184.5 L -3392 2183 L -3392 2178 L -3401 2158 L -3407 2145 L -3410.5 2137.5 L -3412 2132 L -3410 2127 L -3404 2122 L -3392 2116 L -3383 2114 L -3376.5 2114 L -3371 2116 L -3367 2119 L -3363 2128 L -3355 2145 L -3348 2160 L -3346 2173 L -3333 2173 L -3341 2152.5 L -3346.5 2140 L -3351 2129 L -3348 2125 L -3340 2120 L -3330 2116 L -3323 2116 L -3319.5 2120 L -3311.5 2138 L -3301 2160 L -3293.5 2177 L -3287 2195 L -3286.5 2201 L -3289 2207 L -3293.5 2209 L -3305.5 2210 L -3314 2210 L -3319 2208.5 L -3323 2206 L -3330 2195 L -3334 2192 L -3342 2193 L -3346 2201 L -3357 2211 L -3376 2210 L -3388 2208 L -3394 2205.5 L -3395.5 2205.5 L -3403 2203 L -3423 2206 L -3456 2214 L -3474 2217 L -3502 2225 L -3518 2230 L -3533 2236.5 L -3541 2241.5 L -3554.5 2256.5 L -3567.5 2275 L -3576 2290 L -3586 2309 L -3595 2326 L -3605 2342 L -3617 2364 L -3627 2382 L -3609 2390 L -3589 2403 L -3577 2416 L -3575 2423.5 L -3577.5 2432 L -3582 2441 L -3586.5 2446.5 L -3589.5 2449.5 L -3594 2452.5 L -3604 2456 L -3608.5 2457 L -3611.5 2456 L -3614.5 2454.5 L -3624 2449.5 L -3641 2440 L -3657.5 2430.5 L -3661 2432 L -3673 2448 L -3675 2451.5 L -3676 2454.5 L -3673 2456 L -3667.5 2456.5 L -3649 2458 L -3632.5 2461 L -3613 2464 L -3596 2466 L -3565 2472 L -3525 2480 L -3475 2486 L -3437 2489 L -3399.5 2486 L -3359 2481 L -3318 2476 L -3265 2467 L -3235 2462 L -3211 2458 L -3183.5 2451.5 L -3166 2443.5 L -3165 2453.5 L -3159 2464 L -3165 2468 L -3186.5 2473 L -3205 2476.5 L -3232 2484.5 L -3255.5 2489.5 L -3286 2495 L -3309.5 2498.5 L -3331 2500.5 L -3358 2504 L -3387 2507 L -3416 2509 L -3404 2530 L -3399 2539 L -3394 2549 L -3385 2557 L -3373 2566 L -3355 2574 L -3338 2581 L -3319 2585 L -3303 2586 L -3285 2586 L -3258 2583 L -3238 2580 L -3223.5 2576.5 L -3217 2574 L -3211.5 2570.5 L -3212 2561 L -3213.5 2539 L -3216.5 2518.5 L -3220.5 2500.5 L -3222.5 2489 L -3224.5 2481.5 L -3224.2 2481.6 L -3205 2476.5 L -3202 2492.5 L -3199 2508.5 L -3197 2519.5 L -3195 2530 L -3194 2546 L -3193 2568 L -3188 2569.5 L -3179 2568 L -3157.5 2562 L -3149.5 2554.5 L -3148 2543.5 L -3149.5 2533.5 L -3151 2516 L -3154.5 2498 L -3156.5 2482 L -3158.5 2473.5 L -3160 2466 L -3159.5 2465.5 L -3142 2459.5 L -3139 2469.5 L -3136 2486 L -3132.5 2508.5 L -3131 2530 L -3131 2542.5 L -3131 2551.5 L -3132 2563.5 L -3134.5 2569 L -3140 2575 L -3149 2580 L -3169 2584 L -3198 2590 L -3221 2595 L -3241 2600 L -3267 2604 L -3291 2606 L -3308 2606 L -3323 2604 L -3338 2601 L -3351 2597 L -3365 2591 L -3377 2586 L -3389 2580 L -3400 2573 L -3408 2566 L -3416 2555 L -3426 2540 L -3437 2521 L -3440 2512 L -3472 2509 L -3521 2502 L -3559 2495 L -3602 2487 L -3637 2480 L -3670 2476 L -3695 2474 L -3705 2472 L -3708.5 2466.5 Z" fill="black"/>
      <path d="M -3710 2460 L -3707.5 2455.5 L -3704 2452 L -3681 2418 L -3646 2362.5 L -3636 2347 L -3629 2333 L -3625 2326.5 L -3622 2317 L -3616 2313 L -3602 2287 L -3590 2266 L -3576 2245 L -3566 2234 L -3556 2226 L -3540 2216 L -3523 2209 L -3502 2203 L -3478 2196 L -3459 2191 L -3440.5 2187 L -3427 2184.5 L -3413 2183 L -3395.5 2184.5 L -3392 2183 L -3392 2178 L -3401 2158 L -3407 2145 L -3410.5 2137.5 L -3412 2132 L -3410 2127 L -3404 2122 L -3392 2116 L -3383 2114 L -3376.5 2114 L -3371 2116 L -3367 2119 L -3363 2128 L -3355 2145 L -3348 2160 L -3346 2173 L -3333 2173 L -3341 2152.5 L -3346.5 2140 L -3351 2129 L -3348 2125 L -3340 2120 L -3330 2116 L -3323 2116 L -3319.5 2120 L -3311.5 2138 L -3301 2160 L -3293.5 2177 L -3287 2195 L -3286.5 2201 L -3289 2207 L -3293.5 2209 L -3305.5 2210 L -3314 2210 L -3319 2208.5 L -3323 2206 L -3330 2195 L -3334 2192 L -3342 2193 L -3346 2201 L -3357 2211 L -3376 2210 L -3388 2208 L -3394 2205.5 L -3395.5 2205.5 L -3403 2203 L -3423 2206 L -3456 2214 L -3474 2217 L -3502 2225 L -3518 2230 L -3533 2236.5 L -3541 2241.5 L -3554.5 2256.5 L -3567.5 2275 L -3576 2290 L -3586 2309 L -3595 2326 L -3605 2342 L -3617 2364 L -3627 2382 L -3609 2390 L -3589 2403 L -3577 2416 L -3575 2423.5 L -3577.5 2432 L -3582 2441 L -3586.5 2446.5 L -3589.5 2449.5 L -3594 2452.5 L -3604 2456 L -3608.5 2457 L -3611.5 2456 L -3614.5 2454.5 L -3624 2449.5 L -3641 2440 L -3657.5 2430.5 L -3661 2432 L -3673 2448 L -3675 2451.5 L -3676 2454.5 L -3673 2456 L -3667.5 2456.5 L -3649 2458 L -3632.5 2461 L -3613 2464 L -3596 2466 L -3565 2472 L -3525 2480 L -3475 2486 L -3437 2489 L -3399.5 2486 L -3359 2481 L -3318 2476 L -3265 2467 L -3235 2462 L -3211 2458 L -3183.5 2451.5 L -3166 2443.5 L -3165 2453.5 L -3159 2464 L -3165 2468 L -3186.5 2473 L -3205 2476.5 L -3232 2484.5 L -3255.5 2489.5 L -3286 2495 L -3309.5 2498.5 L -3331 2500.5 L -3358 2504 L -3387 2507 L -3416 2509 L -3404 2530 L -3399 2539 L -3394 2549 L -3385 2557 L -3373 2566 L -3355 2574 L -3338 2581 L -3319 2585 L -3303 2586 L -3285 2586 L -3258 2583 L -3238 2580 L -3223.5 2576.5 L -3217 2574 L -3211.5 2570.5 L -3212 2561 L -3213.5 2539 L -3216.5 2518.5 L -3220.5 2500.5 L -3222.5 2489 L -3224.5 2481.5 L -3224.2 2481.6 L -3205 2476.5 L -3202 2492.5 L -3199 2508.5 L -3197 2519.5 L -3195 2530 L -3194 2546 L -3193 2568 L -3188 2569.5 L -3179 2568 L -3157.5 2562 L -3149.5 2554.5 L -3148 2543.5 L -3149.5 2533.5 L -3151 2516 L -3154.5 2498 L -3156.5 2482 L -3158.5 2473.5 L -3160 2466 L -3159.5 2465.5 L -3142 2459.5 L -3139 2469.5 L -3136 2486 L -3132.5 2508.5 L -3131 2530 L -3131 2542.5 L -3131 2551.5 L -3132 2563.5 L -3134.5 2569 L -3140 2575 L -3149 2580 L -3169 2584 L -3198 2590 L -3221 2595 L -3241 2600 L -3267 2604 L -3291 2606 L -3308 2606 L -3323 2604 L -3338 2601 L -3351 2597 L -3365 2591 L -3377 2586 L -3389 2580 L -3400 2573 L -3408 2566 L -3416 2555 L -3426 2540 L -3437 2521 L -3440 2512 L -3472 2509 L -3521 2502 L -3559 2495 L -3602 2487 L -3637 2480 L -3670 2476 L -3695 2474 L -3705 2472 L -3708.5 2466.5 Z" stroke="black" stroke-linecap="round" stroke-linejoin="round" stroke-width="2"/>
    </g>
  </g>
</svg>
