<?xml version="1.0" encoding="UTF-8" standalone="no"?>
<!DOCTYPE svg PUBLIC "-//W3C//DTD SVG 1.1//EN" "http://www.w3.org/Graphics/SVG/1.1/DTD/svg11.dtd">
<svg xmlns="http://www.w3.org/2000/svg" xmlns:xl="http://www.w3.org/1999/xlink" version="1.1" viewBox="-3534.5 1625.5 860 659" width="860pt" height="659pt" xmlns:dc="http://purl.org/dc/elements/1.1/">
  <metadata> Produced by OmniGraffle 7.6.1 
    <dc:date>2019-06-04 02:14:56 +0000</dc:date>
  </metadata>
  <defs>
    <linearGradient x1="0" x2="1" id="Gradient" gradientUnits="userSpaceOnUse">
      <stop offset="0" stop-color="#464646"/>
      <stop offset="1" stop-color="#f0f0f0"/>
    </linearGradient>
    <linearGradient id="Obj_Gradient" xl:href="#Gradient" gradientTransform="translate(-3058.6138 1885.222) rotate(72) scale(359.227)"/>
    <linearGradient x1="0" x2="1" id="Gradient_2" gradientUnits="userSpaceOnUse">
      <stop offset="0" stop-color="#23254d"/>
      <stop offset="1" stop-color="black"/>
    </linearGradient>
    <linearGradient id="Obj_Gradient_2" xl:href="#Gradient_2" gradientTransform="translate(-3203 1626) rotate(90) scale(658)"/>
  </defs>
  <g stroke="none" stroke-opacity="1" stroke-dasharray="none" fill="none" fill-opacity="1">
    <title>Houston Texans</title>
    <g>
      <title>Capa 1</title>
      <path d="M -3067 2211.0446 L -3037 2215.0446 L -3006 2209.0446 L -2978 2197.0446 L -2956 2179.0446 L -2944 2159.0446 L -2936 2132.0446 L -2930 2091.0446 L -2942 2048.0446 L -2946 2021.0446 L -2950 1984.0446 L -2944 1960.0446 L -2941 1934.0446 L -2928 1918.0446 L -2911.2203 1909.0446 L -2918.2203 1909.0446 L -2925.2203 1909.0446 L -2939.2203 1911.0446 L -2957.2203 1911.0446 L -2979.2203 1908.0446 L -2975.2203 1897.0446 L -2987.2203 1897.0446 L -3003.2203 1900.0446 L -3016.2203 1905.0446 L -3029.2203 1909.0446 L -3036.2203 1913.0446 L -3044.2203 1917.0446 L -3060.2203 1923.0446 L -3071.2203 1941.0446 L -3079.2203 1951.0446 L -3088.2203 1968.0446 L -3095 1995.0446 L -3095 2035.0446 L -3087.2203 2071.0446 L -3076 2106.0446 L -3061 2129.0446 L -3060.7203 2136.0446 L -3061.2203 2147.0446 L -3061.2203 2156.5446 L -3060.7203 2164.0446 L -3062 2172.0446 L -3061.7203 2185.5446 L -3065 2199.0446 L -3068.2203 2204.5446 L -3073 2210.0446 Z" fill="url(#Obj_Gradient)"/>
      <path d="M -3067 2211.0446 L -3037 2215.0446 L -3006 2209.0446 L -2978 2197.0446 L -2956 2179.0446 L -2944 2159.0446 L -2936 2132.0446 L -2930 2091.0446 L -2942 2048.0446 L -2946 2021.0446 L -2950 1984.0446 L -2944 1960.0446 L -2941 1934.0446 L -2928 1918.0446 L -2911.2203 1909.0446 L -2918.2203 1909.0446 L -2925.2203 1909.0446 L -2939.2203 1911.0446 L -2957.2203 1911.0446 L -2979.2203 1908.0446 L -2975.2203 1897.0446 L -2987.2203 1897.0446 L -3003.2203 1900.0446 L -3016.2203 1905.0446 L -3029.2203 1909.0446 L -3036.2203 1913.0446 L -3044.2203 1917.0446 L -3060.2203 1923.0446 L -3071.2203 1941.0446 L -3079.2203 1951.0446 L -3088.2203 1968.0446 L -3095 1995.0446 L -3095 2035.0446 L -3087.2203 2071.0446 L -3076 2106.0446 L -3061 2129.0446 L -3060.7203 2136.0446 L -3061.2203 2147.0446 L -3061.2203 2156.5446 L -3060.7203 2164.0446 L -3062 2172.0446 L -3061.7203 2185.5446 L -3065 2199.0446 L -3068.2203 2204.5446 L -3073 2210.0446 Z" stroke="black" stroke-linecap="round" stroke-linejoin="round" stroke-width="1"/>
      <path d="M -3478 2154 L -3480 2160 L -3485 2163 L -3478 2181 L -3470 2195 L -3466 2208 L -3462 2217 L -3461 2235 L -3456 2248 L -3444 2256 L -3433 2258 L -3416 2260 L -3403 2258 L -3390 2254 L -3376 2251 L -3364 2246 L -3356 2242 L -3348 2235 L -3341 2227 L -3330 2235 L -3319 2243 L -3305 2252 L -3290 2260 L -3272 2267 L -3253 2272 L -3234 2278 L -3214 2281 L -3194 2284 L -3172 2283 L -3155 2279 L -3133 2273 L -3114 2262 L -3101 2255 L -3088 2240 L -3078 2217 L -3065 2201.5 L -3062 2188 L -3060.5 2160 L -3060 2130.5 L -3075 2105 L -3084 2081 L -3094 2044 L -3096 2011 L -3092 1978 L -3077 1947 L -3059 1924 L -3026 1908 L -2998 1898 L -2976 1898 L -2976 1903 L -2979 1908 L -2957 1910 L -2932 1910 L -2908 1908 L -2902 1911 L -2887 1913 L -2875 1906 L -2872 1884 L -2872 1861 L -2887 1822 L -2896 1802 L -2908 1785 L -2924 1758 L -2958 1722 L -2988 1696 L -3018 1674 L -3051 1657 L -3086 1642 L -3120 1633 L -3145 1629 L -3171 1627 L -3199 1626 L -3223 1626 L -3252 1628 L -3279 1634 L -3307 1641 L -3333 1649 L -3346 1655 L -3363 1662 L -3384 1674 L -3412 1692 L -3433 1710 L -3454 1733 L -3471 1754 L -3485 1775 L -3499 1802 L -3512 1830 L -3521 1859 L -3528 1886 L -3534 1928 L -3533 1965 L -3529 2001 L -3522 2041 L -3510 2079 L -3496 2113 L -3484 2140 Z" fill="url(#Obj_Gradient_2)"/>
      <path d="M -3478 2154 L -3480 2160 L -3485 2163 L -3478 2181 L -3470 2195 L -3466 2208 L -3462 2217 L -3461 2235 L -3456 2248 L -3444 2256 L -3433 2258 L -3416 2260 L -3403 2258 L -3390 2254 L -3376 2251 L -3364 2246 L -3356 2242 L -3348 2235 L -3341 2227 L -3330 2235 L -3319 2243 L -3305 2252 L -3290 2260 L -3272 2267 L -3253 2272 L -3234 2278 L -3214 2281 L -3194 2284 L -3172 2283 L -3155 2279 L -3133 2273 L -3114 2262 L -3101 2255 L -3088 2240 L -3078 2217 L -3065 2201.5 L -3062 2188 L -3060.5 2160 L -3060 2130.5 L -3075 2105 L -3084 2081 L -3094 2044 L -3096 2011 L -3092 1978 L -3077 1947 L -3059 1924 L -3026 1908 L -2998 1898 L -2976 1898 L -2976 1903 L -2979 1908 L -2957 1910 L -2932 1910 L -2908 1908 L -2902 1911 L -2887 1913 L -2875 1906 L -2872 1884 L -2872 1861 L -2887 1822 L -2896 1802 L -2908 1785 L -2924 1758 L -2958 1722 L -2988 1696 L -3018 1674 L -3051 1657 L -3086 1642 L -3120 1633 L -3145 1629 L -3171 1627 L -3199 1626 L -3223 1626 L -3252 1628 L -3279 1634 L -3307 1641 L -3333 1649 L -3346 1655 L -3363 1662 L -3384 1674 L -3412 1692 L -3433 1710 L -3454 1733 L -3471 1754 L -3485 1775 L -3499 1802 L -3512 1830 L -3521 1859 L -3528 1886 L -3534 1928 L -3533 1965 L -3529 2001 L -3522 2041 L -3510 2079 L -3496 2113 L -3484 2140 Z" stroke="black" stroke-linecap="round" stroke-linejoin="round" stroke-width="1"/>
      <path d="M -3254 2135 L -3251.5 2130.5 L -3248 2127 L -3225 2093 L -3190 2037.5 L -3180 2022 L -3173 2008 L -3169 2001.5 L -3166 1992 L -3160 1988 L -3146 1962 L -3134 1941 L -3120 1920 L -3110 1909 L -3100 1901 L -3084 1891 L -3067 1884 L -3046 1878 L -3022 1871 L -3003 1866 L -2984.5 1862 L -2971 1859.5 L -2957 1858 L -2939.5 1859.5 L -2936 1858 L -2936 1853 L -2945 1833 L -2951 1820 L -2954.5 1812.5 L -2956 1807 L -2954 1802 L -2948 1797 L -2936 1791 L -2927 1789 L -2920.5 1789 L -2915 1791 L -2911 1794 L -2907 1803 L -2899 1820 L -2892 1835 L -2890 1848 L -2877 1848 L -2885 1827.5 L -2890.5 1815 L -2895 1804 L -2892 1800 L -2884 1795 L -2874 1791 L -2867 1791 L -2863.5 1795 L -2855.5 1813 L -2845 1835 L -2837.5 1852 L -2831 1870 L -2830.5 1876 L -2833 1882 L -2837.5 1884 L -2849.5 1885 L -2858 1885 L -2863 1883.5 L -2867 1881 L -2874 1870 L -2878 1867 L -2886 1868 L -2890 1876 L -2901 1886 L -2920 1885 L -2932 1883 L -2938 1880.5 L -2939.5 1880.5 L -2947 1878 L -2967 1881 L -3e3 1889 L -3018 1892 L -3046 1900 L -3062 1905 L -3077 1911.5 L -3085 1916.5 L -3098.5 1931.5 L -3111.5 1950 L -3120 1965 L -3130 1984 L -3139 2001 L -3149 2017 L -3161 2039 L -3171 2057 L -3153 2065 L -3133 2078 L -3121 2091 L -3119 2098.5 L -3121.5 2107 L -3126 2116 L -3130.5 2121.5 L -3133.5 2124.5 L -3138 2127.5 L -3148 2131 L -3152.5 2132 L -3155.5 2131 L -3158.5 2129.5 L -3168 2124.5 L -3185 2115 L -3201.5 2105.5 L -3205 2107 L -3217 2123 L -3219 2126.5 L -3220 2129.5 L -3217 2131 L -3211.5 2131.5 L -3193 2133 L -3176.5 2136 L -3157 2139 L -3140 2141 L -3109 2147 L -3069 2155 L -3019 2161 L -2981 2164 L -2943.5 2161 L -2903 2156 L -2862 2151 L -2809 2142 L -2779 2137 L -2755 2133 L -2727.5 2126.5 L -2710 2118.5 L -2709 2128.5 L -2703 2139 L -2709 2143 L -2730.5 2148 L -2749 2151.5 L -2776 2159.5 L -2799.5 2164.5 L -2830 2170 L -2853.5 2173.5 L -2875 2175.5 L -2902 2179 L -2931 2182 L -2960 2184 L -2948 2205 L -2943 2214 L -2938 2224 L -2929 2232 L -2917 2241 L -2899 2249 L -2882 2256 L -2863 2260 L -2847 2261 L -2829 2261 L -2802 2258 L -2782 2255 L -2767.5 2251.5 L -2761 2249 L -2755.5 2245.5 L -2756 2236 L -2757.5 2214 L -2760.5 2193.5 L -2764.5 2175.5 L -2766.5 2164 L -2768.5 2156.5 L -2768.2 2156.6 L -2749 2151.5 L -2746 2167.5 L -2743 2183.5 L -2741 2194.5 L -2739 2205 L -2738 2221 L -2737 2243 L -2732 2244.5 L -2723 2243 L -2701.5 2237 L -2693.5 2229.5 L -2692 2218.5 L -2693.5 2208.5 L -2695 2191 L -2698.5 2173 L -2700.5 2157 L -2702.5 2148.5 L -2704 2141 L -2703.5 2140.5 L -2686 2134.5 L -2683 2144.5 L -2680 2161 L -2676.5 2183.5 L -2675 2205 L -2675 2217.5 L -2675 2226.5 L -2676 2238.5 L -2678.5 2244 L -2684 2250 L -2693 2255 L -2713 2259 L -2742 2265 L -2765 2270 L -2785 2275 L -2811 2279 L -2835 2281 L -2852 2281 L -2867 2279 L -2882 2276 L -2895 2272 L -2909 2266 L -2921 2261 L -2933 2255 L -2944 2248 L -2952 2241 L -2960 2230 L -2970 2215 L -2981 2196 L -2984 2187 L -3016 2184 L -3065 2177 L -3103 2170 L -3146 2162 L -3181 2155 L -3214 2151 L -3239 2149 L -3249 2147 L -3252.5 2141.5 Z" fill="#666"/>
      <path d="M -3254 2135 L -3251.5 2130.5 L -3248 2127 L -3225 2093 L -3190 2037.5 L -3180 2022 L -3173 2008 L -3169 2001.5 L -3166 1992 L -3160 1988 L -3146 1962 L -3134 1941 L -3120 1920 L -3110 1909 L -3100 1901 L -3084 1891 L -3067 1884 L -3046 1878 L -3022 1871 L -3003 1866 L -2984.5 1862 L -2971 1859.5 L -2957 1858 L -2939.5 1859.5 L -2936 1858 L -2936 1853 L -2945 1833 L -2951 1820 L -2954.5 1812.5 L -2956 1807 L -2954 1802 L -2948 1797 L -2936 1791 L -2927 1789 L -2920.5 1789 L -2915 1791 L -2911 1794 L -2907 1803 L -2899 1820 L -2892 1835 L -2890 1848 L -2877 1848 L -2885 1827.5 L -2890.5 1815 L -2895 1804 L -2892 1800 L -2884 1795 L -2874 1791 L -2867 1791 L -2863.5 1795 L -2855.5 1813 L -2845 1835 L -2837.5 1852 L -2831 1870 L -2830.5 1876 L -2833 1882 L -2837.5 1884 L -2849.5 1885 L -2858 1885 L -2863 1883.5 L -2867 1881 L -2874 1870 L -2878 1867 L -2886 1868 L -2890 1876 L -2901 1886 L -2920 1885 L -2932 1883 L -2938 1880.5 L -2939.5 1880.5 L -2947 1878 L -2967 1881 L -3e3 1889 L -3018 1892 L -3046 1900 L -3062 1905 L -3077 1911.5 L -3085 1916.5 L -3098.5 1931.5 L -3111.5 1950 L -3120 1965 L -3130 1984 L -3139 2001 L -3149 2017 L -3161 2039 L -3171 2057 L -3153 2065 L -3133 2078 L -3121 2091 L -3119 2098.5 L -3121.5 2107 L -3126 2116 L -3130.5 2121.5 L -3133.5 2124.5 L -3138 2127.5 L -3148 2131 L -3152.5 2132 L -3155.5 2131 L -3158.5 2129.5 L -3168 2124.5 L -3185 2115 L -3201.5 2105.5 L -3205 2107 L -3217 2123 L -3219 2126.5 L -3220 2129.5 L -3217 2131 L -3211.5 2131.5 L -3193 2133 L -3176.5 2136 L -3157 2139 L -3140 2141 L -3109 2147 L -3069 2155 L -3019 2161 L -2981 2164 L -2943.5 2161 L -2903 2156 L -2862 2151 L -2809 2142 L -2779 2137 L -2755 2133 L -2727.5 2126.5 L -2710 2118.5 L -2709 2128.5 L -2703 2139 L -2709 2143 L -2730.5 2148 L -2749 2151.5 L -2776 2159.5 L -2799.5 2164.5 L -2830 2170 L -2853.5 2173.5 L -2875 2175.5 L -2902 2179 L -2931 2182 L -2960 2184 L -2948 2205 L -2943 2214 L -2938 2224 L -2929 2232 L -2917 2241 L -2899 2249 L -2882 2256 L -2863 2260 L -2847 2261 L -2829 2261 L -2802 2258 L -2782 2255 L -2767.5 2251.5 L -2761 2249 L -2755.5 2245.5 L -2756 2236 L -2757.5 2214 L -2760.5 2193.5 L -2764.5 2175.5 L -2766.5 2164 L -2768.5 2156.5 L -2768.2 2156.6 L -2749 2151.5 L -2746 2167.5 L -2743 2183.5 L -2741 2194.5 L -2739 2205 L -2738 2221 L -2737 2243 L -2732 2244.5 L -2723 2243 L -2701.5 2237 L -2693.5 2229.5 L -2692 2218.5 L -2693.5 2208.5 L -2695 2191 L -2698.5 2173 L -2700.5 2157 L -2702.5 2148.5 L -2704 2141 L -2703.5 2140.5 L -2686 2134.5 L -2683 2144.5 L -2680 2161 L -2676.5 2183.5 L -2675 2205 L -2675 2217.5 L -2675 2226.5 L -2676 2238.5 L -2678.5 2244 L -2684 2250 L -2693 2255 L -2713 2259 L -2742 2265 L -2765 2270 L -2785 2275 L -2811 2279 L -2835 2281 L -2852 2281 L -2867 2279 L -2882 2276 L -2895 2272 L -2909 2266 L -2921 2261 L -2933 2255 L -2944 2248 L -2952 2241 L -2960 2230 L -2970 2215 L -2981 2196 L -2984 2187 L -3016 2184 L -3065 2177 L -3103 2170 L -3146 2162 L -3181 2155 L -3214 2151 L -3239 2149 L -3249 2147 L -3252.5 2141.5 Z" stroke="#7f8080" stroke-linecap="round" stroke-linejoin="round" stroke-width="1"/>
      <path d="M -3165.6 2009.5 L -3168.2 2005.1 L -3169 2000.1 L -3168.8 1998.5 L -3168 1997.1 L -3166.9 1994.7 L -3165.4 1992.3 L -3163.6 1989.5 L -3159.8 1987.9 L -3155 1988.7 L -3149.8 1993.3 L -3146.4 1997.7 L -3139.4 2009.7 L -3130.4 2020.7 L -3120.4 2031.7 L -3109.4 2044.7 L -3097.9 2054.2 L -3085.9 2064.7 L -3076.9 2069.2 L -3066.9 2072.7 L -3056.4 2076.7 L -3045.9 2079.2 L -3036.9 2080.2 L -3030.4 2081.2 L -3041.4 2057.7 L -3051.4 2036.2 L -3058.4 2020.7 L -3069.9 1996.2 L -3076.4 1979.7 L -3085.4 1960.7 L -3097.9 1939.2 L -3109.9 1922.7 L -3114 1917.1 L -3114 1913.9 L -3110.6 1909.5 L -3107.4 1906.3 L -3104 1903.3 L -3100.2 1901.5 L -3096.4 1902.7 L -3094.4 1904.7 L -3079.4 1926.7 L -3067.4 1953.7 L -3055.4 1978.7 L -3005.4 2083.7 L -2969.4 2081.7 L -2933.4 2079.7 L -2902.4 2074.7 L -2871.4 2070.7 L -2865 2068 L -2876.5 2033 L -2889.5 2005 L -2899.4 1981.7 L -2920.4 1935.7 L -2927 1919.5 L -2929 1913.5 L -2928 1910.5 L -2925.5 1909.5 L -2906.5 1908 L -2903 1910 L -2894 1933.5 L -2879 1974.5 L -2852.4 2041.7 L -2845 2064.5 L -2815 2059.5 L -2758 2052 L -2743 2046.5 L -2732.5 2037 L -2726 2038 L -2718.4 2041.7 L -2706.4 2053.7 L -2696.4 2089.7 L -2688.4 2115.7 L -2684.4 2134.7 L -2704.4 2140.2 L -2704.5 2136 L -2714.4 2111.7 L -2721.4 2085.7 L -2724.9 2071.7 L -2727.4 2068.2 L -2733.9 2067.2 L -2755.4 2070.7 L -2768.4 2071.7 L -2772.4 2072.7 L -2767.4 2081.7 L -2763.4 2093.7 L -2757.9 2115.2 L -2753.9 2132.2 L -2772.9 2136.2 L -2781.4 2103.7 L -2788.4 2084.7 L -2791.9 2078.7 L -2797.4 2076.7 L -2841.4 2083.7 L -2885.4 2087.7 L -2929.4 2094.7 L -2969.4 2097.7 L -2990.4 2098.7 L -2994.4 2098.7 L -2997.4 2100.7 L -2996.9 2105.2 L -2965.9 2162.7 L -2990.4 2163.2 L -2993.4 2162.2 L -2999.9 2149.7 L -3006.4 2135.2 L -3012.9 2120.7 L -3017.4 2108.7 L -3020.9 2102.7 L -3022.9 2099.7 L -3026.9 2098.2 L -3034.4 2097.2 L -3046.4 2095.7 L -3060.4 2092.7 L -3083.4 2085.7 L -3095.9 2079.7 L -3108.4 2071.7 L -3126.4 2056.7 L -3141.9 2038.7 L -3152.4 2026.7 Z" fill="#666"/>
      <path d="M -3165.6 2009.5 L -3168.2 2005.1 L -3169 2000.1 L -3168.8 1998.5 L -3168 1997.1 L -3166.9 1994.7 L -3165.4 1992.3 L -3163.6 1989.5 L -3159.8 1987.9 L -3155 1988.7 L -3149.8 1993.3 L -3146.4 1997.7 L -3139.4 2009.7 L -3130.4 2020.7 L -3120.4 2031.7 L -3109.4 2044.7 L -3097.9 2054.2 L -3085.9 2064.7 L -3076.9 2069.2 L -3066.9 2072.7 L -3056.4 2076.7 L -3045.9 2079.2 L -3036.9 2080.2 L -3030.4 2081.2 L -3041.4 2057.7 L -3051.4 2036.2 L -3058.4 2020.7 L -3069.9 1996.2 L -3076.4 1979.7 L -3085.4 1960.7 L -3097.9 1939.2 L -3109.9 1922.7 L -3114 1917.1 L -3114 1913.9 L -3110.6 1909.5 L -3107.4 1906.3 L -3104 1903.3 L -3100.2 1901.5 L -3096.4 1902.7 L -3094.4 1904.7 L -3079.4 1926.7 L -3067.4 1953.7 L -3055.4 1978.7 L -3005.4 2083.7 L -2969.4 2081.7 L -2933.4 2079.7 L -2902.4 2074.7 L -2871.4 2070.7 L -2865 2068 L -2876.5 2033 L -2889.5 2005 L -2899.4 1981.7 L -2920.4 1935.7 L -2927 1919.5 L -2929 1913.5 L -2928 1910.5 L -2925.5 1909.5 L -2906.5 1908 L -2903 1910 L -2894 1933.5 L -2879 1974.5 L -2852.4 2041.7 L -2845 2064.5 L -2815 2059.5 L -2758 2052 L -2743 2046.5 L -2732.5 2037 L -2726 2038 L -2718.4 2041.7 L -2706.4 2053.7 L -2696.4 2089.7 L -2688.4 2115.7 L -2684.4 2134.7 L -2704.4 2140.2 L -2704.5 2136 L -2714.4 2111.7 L -2721.4 2085.7 L -2724.9 2071.7 L -2727.4 2068.2 L -2733.9 2067.2 L -2755.4 2070.7 L -2768.4 2071.7 L -2772.4 2072.7 L -2767.4 2081.7 L -2763.4 2093.7 L -2757.9 2115.2 L -2753.9 2132.2 L -2772.9 2136.2 L -2781.4 2103.7 L -2788.4 2084.7 L -2791.9 2078.7 L -2797.4 2076.7 L -2841.4 2083.7 L -2885.4 2087.7 L -2929.4 2094.7 L -2969.4 2097.7 L -2990.4 2098.7 L -2994.4 2098.7 L -2997.4 2100.7 L -2996.9 2105.2 L -2965.9 2162.7 L -2990.4 2163.2 L -2993.4 2162.2 L -2999.9 2149.7 L -3006.4 2135.2 L -3012.9 2120.7 L -3017.4 2108.7 L -3020.9 2102.7 L -3022.9 2099.7 L -3026.9 2098.2 L -3034.4 2097.2 L -3046.4 2095.7 L -3060.4 2092.7 L -3083.4 2085.7 L -3095.9 2079.7 L -3108.4 2071.7 L -3126.4 2056.7 L -3141.9 2038.7 L -3152.4 2026.7 Z" stroke="#7f8080" stroke-linecap="round" stroke-linejoin="round" stroke-width="1"/>
      <path d="M -2929.6236 2106.5 L -2931.6236 2124.5 L -2897.6236 2129.5 L -2866.6236 2134.5 L -2845.6236 2137 L -2841.6236 2137 L -2834.6236 2139 L -2831.6236 2142.5 L -2825.1236 2166 L -2815.1236 2186.5 L -2811.1236 2195.5 L -2804.1236 2200.5 L -2799.1236 2204.5 L -2787.1236 2211.5 L -2783.1236 2214.5 L -2772.1236 2219.5 L -2747.1236 2229.5 L -2721.6236 2240.5 L -2694.6236 2253.5 L -2691.1236 2255 L -2683.6236 2251.5 L -2679.6236 2247 L -2676.6236 2243 L -2676.1236 2237 L -2692.6236 2231.5 L -2714.1236 2222.5 L -2738.6236 2210.5 L -2762.1236 2201.5 L -2777.1236 2194.5 L -2790.1236 2186.5 L -2795.1236 2177.5 L -2800.1236 2167.5 L -2808.1236 2142.5 L -2734.6236 2130.5 L -2710.1236 2120.5 L -2714.1236 2113.5 L -2744.1236 2116.5 L -2785.6236 2118.5 L -2810.6236 2118.5 L -2818.1236 2119 L -2821.1236 2115.5 L -2823.6236 2107.5 L -2840.6236 2062.5 L -2775.1236 2053 L -2743.6236 2047.5 L -2731.6236 2038.5 L -2770.2665 2039.8571 L -2807.2665 2040.3571 L -2836.6236 2040.5 L -2852.6236 2042 L -2902.6236 1912 L -2907.6236 1909 L -2927.1236 1911 L -2928.6236 1915.5 L -2909.1236 1960 L -2893.6236 1993.5 L -2883.6236 2017.5 L -2874.6236 2039 L -2886.6236 2034.5 L -2895.1236 2030.5 L -2902.6236 2021.5 L -2919.6236 2003.5 L -2929.6236 1989.5 L -2946.6236 1968.5 L -2950 1985.5 L -2947.5 2003.5 L -2931.6236 2022.5 L -2914.6236 2042.5 L -2893.6236 2054.5 L -2867.6236 2060.5 L -2841.6236 2117.5 L -2892.6236 2109.5 Z" fill="#666"/>
      <path d="M -2929.6236 2106.5 L -2931.6236 2124.5 L -2897.6236 2129.5 L -2866.6236 2134.5 L -2845.6236 2137 L -2841.6236 2137 L -2834.6236 2139 L -2831.6236 2142.5 L -2825.1236 2166 L -2815.1236 2186.5 L -2811.1236 2195.5 L -2804.1236 2200.5 L -2799.1236 2204.5 L -2787.1236 2211.5 L -2783.1236 2214.5 L -2772.1236 2219.5 L -2747.1236 2229.5 L -2721.6236 2240.5 L -2694.6236 2253.5 L -2691.1236 2255 L -2683.6236 2251.5 L -2679.6236 2247 L -2676.6236 2243 L -2676.1236 2237 L -2692.6236 2231.5 L -2714.1236 2222.5 L -2738.6236 2210.5 L -2762.1236 2201.5 L -2777.1236 2194.5 L -2790.1236 2186.5 L -2795.1236 2177.5 L -2800.1236 2167.5 L -2808.1236 2142.5 L -2734.6236 2130.5 L -2710.1236 2120.5 L -2714.1236 2113.5 L -2744.1236 2116.5 L -2785.6236 2118.5 L -2810.6236 2118.5 L -2818.1236 2119 L -2821.1236 2115.5 L -2823.6236 2107.5 L -2840.6236 2062.5 L -2775.1236 2053 L -2743.6236 2047.5 L -2731.6236 2038.5 L -2770.2665 2039.8571 L -2807.2665 2040.3571 L -2836.6236 2040.5 L -2852.6236 2042 L -2902.6236 1912 L -2907.6236 1909 L -2927.1236 1911 L -2928.6236 1915.5 L -2909.1236 1960 L -2893.6236 1993.5 L -2883.6236 2017.5 L -2874.6236 2039 L -2886.6236 2034.5 L -2895.1236 2030.5 L -2902.6236 2021.5 L -2919.6236 2003.5 L -2929.6236 1989.5 L -2946.6236 1968.5 L -2950 1985.5 L -2947.5 2003.5 L -2931.6236 2022.5 L -2914.6236 2042.5 L -2893.6236 2054.5 L -2867.6236 2060.5 L -2841.6236 2117.5 L -2892.6236 2109.5 Z" stroke="#7f8080" stroke-linecap="round" stroke-linejoin="round" stroke-width="1"/>
      <path d="M -3277 2125 L -3254 2092 L -3252.8 2083.2 L -3254 2078.8 L -3255.8 2073.4 L -3258.2 2068.8 L -3261 2063.8 L -3265 2060 L -3269.8 2056.6 L -3277 2053 L -3286.4 2049.8 L -3292.4 2048.8 L -3299 2049 L -3302 2049.4 L -3305 2050.5 L -3311 2053 L -3317.5 2057 L -3320 2059.5 L -3323 2063 L -3326 2071 L -3327.2 2079 L -3327.4 2084.2 L -3327.4 2089.4 L -3326.6 2094.4 L -3326 2098.2 L -3324.6 2103.2 L -3323.2 2106.8 L -3320.8 2109.8 L -3318.4 2113.2 L -3315.8 2115.4 L -3313 2118.2 L -3308.2 2121 L -3303 2124 L -3296.2 2125.8 L -3289 2126 Z" fill="#666"/>
      <path d="M -3277 2125 L -3254 2092 L -3252.8 2083.2 L -3254 2078.8 L -3255.8 2073.4 L -3258.2 2068.8 L -3261 2063.8 L -3265 2060 L -3269.8 2056.6 L -3277 2053 L -3286.4 2049.8 L -3292.4 2048.8 L -3299 2049 L -3302 2049.4 L -3305 2050.5 L -3311 2053 L -3317.5 2057 L -3320 2059.5 L -3323 2063 L -3326 2071 L -3327.2 2079 L -3327.4 2084.2 L -3327.4 2089.4 L -3326.6 2094.4 L -3326 2098.2 L -3324.6 2103.2 L -3323.2 2106.8 L -3320.8 2109.8 L -3318.4 2113.2 L -3315.8 2115.4 L -3313 2118.2 L -3308.2 2121 L -3303 2124 L -3296.2 2125.8 L -3289 2126 Z" stroke="#7f8080" stroke-linecap="round" stroke-linejoin="round" stroke-width="1"/>
      <path d="M -3402 1753 L -3406 1764 L -3409 1776 L -3409 1788 L -3405 1798 L -3398 1804 L -3390 1808 L -3378 1812 L -3364 1813 L -3349 1813 L -3327 1810 L -3306 1806 L -3287 1800 L -3274 1809 L -3263 1819 L -3251 1828 L -3238 1842 L -3228 1857 L -3217 1874 L -3210 1889 L -3203 1904 L -3196 1923 L -3189 1941 L -3233 1953 L -3234 1941 L -3241 1931 L -3250 1922 L -3263 1913 L -3280 1906 L -3299 1900 L -3315 1897 L -3334 1898 L -3335 1869 L -3345 1869 L -3360 1867 L -3374 1865 L -3388 1861 L -3402 1854 L -3413 1847 L -3423 1838 L -3430 1828 L -3437 1811 L -3438 1799 L -3433 1781 L -3424 1766 L -3411 1757 Z" fill="#2a4145"/>
      <path d="M -3402 1753 L -3406 1764 L -3409 1776 L -3409 1788 L -3405 1798 L -3398 1804 L -3390 1808 L -3378 1812 L -3364 1813 L -3349 1813 L -3327 1810 L -3306 1806 L -3287 1800 L -3274 1809 L -3263 1819 L -3251 1828 L -3238 1842 L -3228 1857 L -3217 1874 L -3210 1889 L -3203 1904 L -3196 1923 L -3189 1941 L -3233 1953 L -3234 1941 L -3241 1931 L -3250 1922 L -3263 1913 L -3280 1906 L -3299 1900 L -3315 1897 L -3334 1898 L -3335 1869 L -3345 1869 L -3360 1867 L -3374 1865 L -3388 1861 L -3402 1854 L -3413 1847 L -3423 1838 L -3430 1828 L -3437 1811 L -3438 1799 L -3433 1781 L -3424 1766 L -3411 1757 Z" stroke="gray" stroke-linecap="round" stroke-linejoin="round" stroke-width=".25"/>
      <path d="M -3303 1717 L -3287 1713 L -3270 1713 L -3256 1718 L -3244 1725 L -3232 1733 L -3223 1747 L -3217 1763 L -3217 1779 L -3219 1794 L -3222 1801 L -3211 1822 L -3205 1835 L -3200 1850 L -3195 1867 L -3192 1881 L -3189 1890 L -3186 1896 L -3182 1901 L -3186 1936 L -3192 1912 L -3197 1893 L -3204 1879 L -3212 1860 L -3222 1842 L -3234 1825 L -3245 1811 L -3260 1796 L -3275 1786 L -3269 1775 L -3266 1766 L -3264 1755 L -3264 1745 L -3267 1735 L -3275 1728 L -3286 1722 L -3298 1719 Z" fill="red"/>
      <path d="M -3303 1717 L -3287 1713 L -3270 1713 L -3256 1718 L -3244 1725 L -3232 1733 L -3223 1747 L -3217 1763 L -3217 1779 L -3219 1794 L -3222 1801 L -3211 1822 L -3205 1835 L -3200 1850 L -3195 1867 L -3192 1881 L -3189 1890 L -3186 1896 L -3182 1901 L -3186 1936 L -3192 1912 L -3197 1893 L -3204 1879 L -3212 1860 L -3222 1842 L -3234 1825 L -3245 1811 L -3260 1796 L -3275 1786 L -3269 1775 L -3266 1766 L -3264 1755 L -3264 1745 L -3267 1735 L -3275 1728 L -3286 1722 L -3298 1719 Z" stroke="gray" stroke-linecap="round" stroke-linejoin="round" stroke-width=".25"/>
      <path d="M -3301 1839.5 L -3293 1857.5 L -3313 1862.5 L -3287 1869.5 L -3278 1885.5 L -3269 1872.5 L -3243 1879.5 L -3265 1864.5 L -3256 1849.5 L -3277 1854.5 Z" fill="#f5f5f5"/>
      <path d="M -3301 1839.5 L -3293 1857.5 L -3313 1862.5 L -3287 1869.5 L -3278 1885.5 L -3269 1872.5 L -3243 1879.5 L -3265 1864.5 L -3256 1849.5 L -3277 1854.5 Z" stroke="gray" stroke-linecap="round" stroke-linejoin="round" stroke-width=".25"/>
    </g>
  </g>
</svg>
