<?xml version="1.0" encoding="UTF-8" standalone="no"?>
<!DOCTYPE svg PUBLIC "-//W3C//DTD SVG 1.1//EN" "http://www.w3.org/Graphics/SVG/1.1/DTD/svg11.dtd">
<svg xmlns="http://www.w3.org/2000/svg" xmlns:xl="http://www.w3.org/1999/xlink" version="1.1" viewBox="-3725 1052 861 660" width="861pt" height="55pc" xmlns:dc="http://purl.org/dc/elements/1.1/">
  <metadata> Produced by OmniGraffle 7.6.1 
    <dc:date>2019-06-04 02:14:56 +0000</dc:date>
  </metadata>
  <defs>
    <linearGradient x1="0" x2="1" id="Gradient" gradientUnits="userSpaceOnUse">
      <stop offset="0" stop-color="#464646"/>
      <stop offset="1" stop-color="#f0f0f0"/>
    </linearGradient>
    <linearGradient id="Obj_Gradient" xl:href="#Gradient" gradientTransform="translate(-3248.6138 1312.222) rotate(72) scale(359.227)"/>
  </defs>
  <g stroke="none" stroke-opacity="1" stroke-dasharray="none" fill="none" fill-opacity="1">
    <title>indianapolis</title>
    <g>
      <title>Capa 1</title>
      <path d="M -3257 1638.0446 L -3227 1642.0446 L -3196 1636.0446 L -3168 1624.0446 L -3146 1606.0446 L -3134 1586.0446 L -3126 1559.0446 L -3120 1518.0446 L -3132 1475.0446 L -3136 1448.0446 L -3140 1411.0446 L -3134 1387.0446 L -3131 1361.0446 L -3118 1345.0446 L -3101.2203 1336.0446 L -3108.2203 1336.0446 L -3115.2203 1336.0446 L -3129.2203 1338.0446 L -3147.2203 1338.0446 L -3169.2203 1335.0446 L -3165.2203 1324.0446 L -3177.2203 1324.0446 L -3193.2203 1327.0446 L -3206.2203 1332.0446 L -3219.2203 1336.0446 L -3226.2203 1340.0446 L -3234.2203 1344.0446 L -3250.2203 1350.0446 L -3261.2203 1368.0446 L -3269.2203 1378.0446 L -3278.2203 1395.0446 L -3285 1422.0446 L -3285 1462.0446 L -3277.2203 1498.0446 L -3266 1533.0446 L -3251 1556.0446 L -3250.7203 1563.0446 L -3251.2203 1574.0446 L -3251.2203 1583.5446 L -3250.7203 1591.0446 L -3252 1599.0446 L -3251.7203 1612.5446 L -3255 1626.0446 L -3258.2203 1631.5446 L -3263 1637.0446 Z" fill="url(#Obj_Gradient)"/>
      <path d="M -3257 1638.0446 L -3227 1642.0446 L -3196 1636.0446 L -3168 1624.0446 L -3146 1606.0446 L -3134 1586.0446 L -3126 1559.0446 L -3120 1518.0446 L -3132 1475.0446 L -3136 1448.0446 L -3140 1411.0446 L -3134 1387.0446 L -3131 1361.0446 L -3118 1345.0446 L -3101.2203 1336.0446 L -3108.2203 1336.0446 L -3115.2203 1336.0446 L -3129.2203 1338.0446 L -3147.2203 1338.0446 L -3169.2203 1335.0446 L -3165.2203 1324.0446 L -3177.2203 1324.0446 L -3193.2203 1327.0446 L -3206.2203 1332.0446 L -3219.2203 1336.0446 L -3226.2203 1340.0446 L -3234.2203 1344.0446 L -3250.2203 1350.0446 L -3261.2203 1368.0446 L -3269.2203 1378.0446 L -3278.2203 1395.0446 L -3285 1422.0446 L -3285 1462.0446 L -3277.2203 1498.0446 L -3266 1533.0446 L -3251 1556.0446 L -3250.7203 1563.0446 L -3251.2203 1574.0446 L -3251.2203 1583.5446 L -3250.7203 1591.0446 L -3252 1599.0446 L -3251.7203 1612.5446 L -3255 1626.0446 L -3258.2203 1631.5446 L -3263 1637.0446 Z" stroke="black" stroke-linecap="round" stroke-linejoin="round" stroke-width="1"/>
      <path d="M -3668 1581 L -3670 1587 L -3675 1590 L -3668 1608 L -3660 1622 L -3656 1635 L -3652 1644 L -3651 1662 L -3646 1675 L -3634 1683 L -3623 1685 L -3606 1687 L -3593 1685 L -3580 1681 L -3566 1678 L -3554 1673 L -3546 1669 L -3538 1662 L -3531 1654 L -3520 1662 L -3509 1670 L -3495 1679 L -3480 1687 L -3462 1694 L -3443 1699 L -3424 1705 L -3404 1708 L -3384 1711 L -3362 1710 L -3345 1706 L -3323 1700 L -3304 1689 L -3291 1682 L -3278 1667 L -3268 1644 L -3255 1628.5 L -3252 1615 L -3250.5 1587 L -3250 1557.5 L -3265 1532 L -3274 1508 L -3284 1471 L -3286 1438 L -3282 1405 L -3267 1374 L -3249 1351 L -3216 1335 L -3188 1325 L -3166 1325 L -3166 1330 L -3169 1335 L -3147 1337 L -3122 1337 L -3098 1335 L -3092 1338 L -3077 1340 L -3065 1333 L -3062 1311 L -3062 1288 L -3077 1249 L -3086 1229 L -3098 1212 L -3114 1185 L -3148 1149 L -3178 1123 L -3208 1101 L -3241 1084 L -3276 1069 L -3310 1060 L -3335 1056 L -3361 1054 L -3389 1053 L -3413 1053 L -3442 1055 L -3469 1061 L -3497 1068 L -3523 1076 L -3536 1082 L -3553 1089 L -3574 1101 L -3602 1119 L -3623 1137 L -3644 1160 L -3661 1181 L -3675 1202 L -3689 1229 L -3702 1257 L -3711 1286 L -3718 1313 L -3724 1355 L -3723 1392 L -3719 1428 L -3712 1468 L -3700 1506 L -3686 1540 L -3674 1567 Z" fill="white"/>
      <path d="M -3668 1581 L -3670 1587 L -3675 1590 L -3668 1608 L -3660 1622 L -3656 1635 L -3652 1644 L -3651 1662 L -3646 1675 L -3634 1683 L -3623 1685 L -3606 1687 L -3593 1685 L -3580 1681 L -3566 1678 L -3554 1673 L -3546 1669 L -3538 1662 L -3531 1654 L -3520 1662 L -3509 1670 L -3495 1679 L -3480 1687 L -3462 1694 L -3443 1699 L -3424 1705 L -3404 1708 L -3384 1711 L -3362 1710 L -3345 1706 L -3323 1700 L -3304 1689 L -3291 1682 L -3278 1667 L -3268 1644 L -3255 1628.5 L -3252 1615 L -3250.5 1587 L -3250 1557.5 L -3265 1532 L -3274 1508 L -3284 1471 L -3286 1438 L -3282 1405 L -3267 1374 L -3249 1351 L -3216 1335 L -3188 1325 L -3166 1325 L -3166 1330 L -3169 1335 L -3147 1337 L -3122 1337 L -3098 1335 L -3092 1338 L -3077 1340 L -3065 1333 L -3062 1311 L -3062 1288 L -3077 1249 L -3086 1229 L -3098 1212 L -3114 1185 L -3148 1149 L -3178 1123 L -3208 1101 L -3241 1084 L -3276 1069 L -3310 1060 L -3335 1056 L -3361 1054 L -3389 1053 L -3413 1053 L -3442 1055 L -3469 1061 L -3497 1068 L -3523 1076 L -3536 1082 L -3553 1089 L -3574 1101 L -3602 1119 L -3623 1137 L -3644 1160 L -3661 1181 L -3675 1202 L -3689 1229 L -3702 1257 L -3711 1286 L -3718 1313 L -3724 1355 L -3723 1392 L -3719 1428 L -3712 1468 L -3700 1506 L -3686 1540 L -3674 1567 Z" stroke="black" stroke-linecap="round" stroke-linejoin="round" stroke-width="2"/>
      <path d="M -3444 1562 L -3441.5 1557.5 L -3438 1554 L -3415 1520 L -3380 1464.5 L -3370 1449 L -3363 1435 L -3359 1428.5 L -3356 1419 L -3350 1415 L -3336 1389 L -3324 1368 L -3310 1347 L -3300 1336 L -3290 1328 L -3274 1318 L -3257 1311 L -3236 1305 L -3212 1298 L -3193 1293 L -3174.5 1289 L -3161 1286.5 L -3147 1285 L -3129.5 1286.5 L -3126 1285 L -3126 1280 L -3135 1260 L -3141 1247 L -3144.5 1239.5 L -3146 1234 L -3144 1229 L -3138 1224 L -3126 1218 L -3117 1216 L -3110.5 1216 L -3105 1218 L -3101 1221 L -3097 1230 L -3089 1247 L -3082 1262 L -3080 1275 L -3067 1275 L -3075 1254.5 L -3080.5 1242 L -3085 1231 L -3082 1227 L -3074 1222 L -3064 1218 L -3057 1218 L -3053.5 1222 L -3045.5 1240 L -3035 1262 L -3027.5 1279 L -3021 1297 L -3020.5 1303 L -3023 1309 L -3027.5 1311 L -3039.5 1312 L -3048 1312 L -3053 1310.5 L -3057 1308 L -3064 1297 L -3068 1294 L -3076 1295 L -3080 1303 L -3091 1313 L -3110 1312 L -3122 1310 L -3128 1307.5 L -3129.5 1307.5 L -3137 1305 L -3157 1308 L -3190 1316 L -3208 1319 L -3236 1327 L -3252 1332 L -3267 1338.5 L -3275 1343.5 L -3288.5 1358.5 L -3301.5 1377 L -3310 1392 L -3320 1411 L -3329 1428 L -3339 1444 L -3351 1466 L -3361 1484 L -3343 1492 L -3323 1505 L -3311 1518 L -3309 1525.5 L -3311.5 1534 L -3316 1543 L -3320.5 1548.5 L -3323.5 1551.5 L -3328 1554.5 L -3338 1558 L -3342.5 1559 L -3345.5 1558 L -3348.5 1556.5 L -3358 1551.5 L -3375 1542 L -3391.5 1532.5 L -3395 1534 L -3407 1550 L -3409 1553.5 L -3410 1556.5 L -3407 1558 L -3401.5 1558.5 L -3383 1560 L -3366.5 1563 L -3347 1566 L -3330 1568 L -3299 1574 L -3259 1582 L -3209 1588 L -3171 1591 L -3133.5 1588 L -3093 1583 L -3052 1578 L -2999 1569 L -2969 1564 L -2945 1560 L -2917.5 1553.5 L -2900 1545.5 L -2899 1555.5 L -2893 1566 L -2899 1570 L -2920.5 1575 L -2939 1578.5 L -2966 1586.5 L -2989.5 1591.5 L -3020 1597 L -3043.5 1600.5 L -3065 1602.5 L -3092 1606 L -3121 1609 L -3150 1611 L -3138 1632 L -3133 1641 L -3128 1651 L -3119 1659 L -3107 1668 L -3089 1676 L -3072 1683 L -3053 1687 L -3037 1688 L -3019 1688 L -2992 1685 L -2972 1682 L -2957.5 1678.5 L -2951 1676 L -2945.5 1672.5 L -2946 1663 L -2947.5 1641 L -2950.5 1620.5 L -2954.5 1602.5 L -2956.5 1591 L -2958.5 1583.5 L -2958.2 1583.6 L -2939 1578.5 L -2936 1594.5 L -2933 1610.5 L -2931 1621.5 L -2929 1632 L -2928 1648 L -2927 1670 L -2922 1671.5 L -2913 1670 L -2891.5 1664 L -2883.5 1656.5 L -2882 1645.5 L -2883.5 1635.5 L -2885 1618 L -2888.5 1600 L -2890.5 1584 L -2892.5 1575.5 L -2894 1568 L -2893.5 1567.5 L -2876 1561.5 L -2873 1571.5 L -2870 1588 L -2866.5 1610.5 L -2865 1632 L -2865 1644.5 L -2865 1653.5 L -2866 1665.5 L -2868.5 1671 L -2874 1677 L -2883 1682 L -2903 1686 L -2932 1692 L -2955 1697 L -2975 1702 L -3001 1706 L -3025 1708 L -3042 1708 L -3057 1706 L -3072 1703 L -3085 1699 L -3099 1693 L -3111 1688 L -3123 1682 L -3134 1675 L -3142 1668 L -3150 1657 L -3160 1642 L -3171 1623 L -3174 1614 L -3206 1611 L -3255 1604 L -3293 1597 L -3336 1589 L -3371 1582 L -3404 1578 L -3429 1576 L -3439 1574 L -3442.5 1568.5 Z" fill="#333"/>
      <path d="M -3444 1562 L -3441.5 1557.5 L -3438 1554 L -3415 1520 L -3380 1464.5 L -3370 1449 L -3363 1435 L -3359 1428.5 L -3356 1419 L -3350 1415 L -3336 1389 L -3324 1368 L -3310 1347 L -3300 1336 L -3290 1328 L -3274 1318 L -3257 1311 L -3236 1305 L -3212 1298 L -3193 1293 L -3174.5 1289 L -3161 1286.5 L -3147 1285 L -3129.5 1286.5 L -3126 1285 L -3126 1280 L -3135 1260 L -3141 1247 L -3144.5 1239.5 L -3146 1234 L -3144 1229 L -3138 1224 L -3126 1218 L -3117 1216 L -3110.5 1216 L -3105 1218 L -3101 1221 L -3097 1230 L -3089 1247 L -3082 1262 L -3080 1275 L -3067 1275 L -3075 1254.5 L -3080.5 1242 L -3085 1231 L -3082 1227 L -3074 1222 L -3064 1218 L -3057 1218 L -3053.5 1222 L -3045.5 1240 L -3035 1262 L -3027.5 1279 L -3021 1297 L -3020.5 1303 L -3023 1309 L -3027.5 1311 L -3039.5 1312 L -3048 1312 L -3053 1310.5 L -3057 1308 L -3064 1297 L -3068 1294 L -3076 1295 L -3080 1303 L -3091 1313 L -3110 1312 L -3122 1310 L -3128 1307.5 L -3129.5 1307.5 L -3137 1305 L -3157 1308 L -3190 1316 L -3208 1319 L -3236 1327 L -3252 1332 L -3267 1338.5 L -3275 1343.5 L -3288.5 1358.5 L -3301.5 1377 L -3310 1392 L -3320 1411 L -3329 1428 L -3339 1444 L -3351 1466 L -3361 1484 L -3343 1492 L -3323 1505 L -3311 1518 L -3309 1525.5 L -3311.5 1534 L -3316 1543 L -3320.5 1548.5 L -3323.5 1551.5 L -3328 1554.5 L -3338 1558 L -3342.5 1559 L -3345.5 1558 L -3348.5 1556.5 L -3358 1551.5 L -3375 1542 L -3391.5 1532.5 L -3395 1534 L -3407 1550 L -3409 1553.5 L -3410 1556.5 L -3407 1558 L -3401.5 1558.5 L -3383 1560 L -3366.5 1563 L -3347 1566 L -3330 1568 L -3299 1574 L -3259 1582 L -3209 1588 L -3171 1591 L -3133.5 1588 L -3093 1583 L -3052 1578 L -2999 1569 L -2969 1564 L -2945 1560 L -2917.5 1553.5 L -2900 1545.5 L -2899 1555.5 L -2893 1566 L -2899 1570 L -2920.5 1575 L -2939 1578.5 L -2966 1586.5 L -2989.5 1591.5 L -3020 1597 L -3043.5 1600.5 L -3065 1602.5 L -3092 1606 L -3121 1609 L -3150 1611 L -3138 1632 L -3133 1641 L -3128 1651 L -3119 1659 L -3107 1668 L -3089 1676 L -3072 1683 L -3053 1687 L -3037 1688 L -3019 1688 L -2992 1685 L -2972 1682 L -2957.5 1678.5 L -2951 1676 L -2945.5 1672.5 L -2946 1663 L -2947.5 1641 L -2950.5 1620.5 L -2954.5 1602.5 L -2956.5 1591 L -2958.5 1583.5 L -2958.2 1583.6 L -2939 1578.5 L -2936 1594.5 L -2933 1610.5 L -2931 1621.5 L -2929 1632 L -2928 1648 L -2927 1670 L -2922 1671.5 L -2913 1670 L -2891.5 1664 L -2883.5 1656.5 L -2882 1645.5 L -2883.5 1635.5 L -2885 1618 L -2888.5 1600 L -2890.5 1584 L -2892.5 1575.5 L -2894 1568 L -2893.5 1567.5 L -2876 1561.5 L -2873 1571.5 L -2870 1588 L -2866.5 1610.5 L -2865 1632 L -2865 1644.5 L -2865 1653.5 L -2866 1665.5 L -2868.5 1671 L -2874 1677 L -2883 1682 L -2903 1686 L -2932 1692 L -2955 1697 L -2975 1702 L -3001 1706 L -3025 1708 L -3042 1708 L -3057 1706 L -3072 1703 L -3085 1699 L -3099 1693 L -3111 1688 L -3123 1682 L -3134 1675 L -3142 1668 L -3150 1657 L -3160 1642 L -3171 1623 L -3174 1614 L -3206 1611 L -3255 1604 L -3293 1597 L -3336 1589 L -3371 1582 L -3404 1578 L -3429 1576 L -3439 1574 L -3442.5 1568.5 Z" stroke="#7f8080" stroke-linecap="round" stroke-linejoin="round" stroke-width="2"/>
      <path d="M -3355.6 1436.5 L -3358.2 1432.1 L -3359 1427.1 L -3358.8 1425.5 L -3358 1424.1 L -3356.9 1421.7 L -3355.4 1419.3 L -3353.6 1416.5 L -3349.8 1414.9 L -3345 1415.7 L -3339.8 1420.3 L -3336.4 1424.7 L -3329.4 1436.7 L -3320.4 1447.7 L -3310.4 1458.7 L -3299.4 1471.7 L -3287.9 1481.2 L -3275.9 1491.7 L -3266.9 1496.2 L -3256.9 1499.7 L -3246.4 1503.7 L -3235.9 1506.2 L -3226.9 1507.2 L -3220.4 1508.2 L -3231.4 1484.7 L -3241.4 1463.2 L -3248.4 1447.7 L -3259.9 1423.2 L -3266.4 1406.7 L -3275.4 1387.7 L -3287.9 1366.2 L -3299.9 1349.7 L -3304 1344.1 L -3304 1340.9 L -3300.6 1336.5 L -3297.4 1333.3 L -3294 1330.3 L -3290.2 1328.5 L -3286.4 1329.7 L -3284.4 1331.7 L -3269.4 1353.7 L -3257.4 1380.7 L -3245.4 1405.7 L -3195.4 1510.7 L -3159.4 1508.7 L -3123.4 1506.7 L -3092.4 1501.7 L -3061.4 1497.7 L -3055 1495 L -3066.5 1460 L -3079.5 1432 L -3089.4 1408.7 L -3110.4 1362.7 L -3117 1346.5 L -3119 1340.5 L -3118 1337.5 L -3115.5 1336.5 L -3096.5 1335 L -3093 1337 L -3084 1360.5 L -3069 1401.5 L -3042.4 1468.7 L -3035 1491.5 L -3005 1486.5 L -2948 1479 L -2933 1473.5 L -2922.5 1464 L -2916 1465 L -2908.4 1468.7 L -2896.4 1480.7 L -2886.4 1516.7 L -2878.4 1542.7 L -2874.4 1561.7 L -2894.4 1567.2 L -2894.5 1563 L -2904.4 1538.7 L -2911.4 1512.7 L -2914.9 1498.7 L -2917.4 1495.2 L -2923.9 1494.2 L -2945.4 1497.7 L -2958.4 1498.7 L -2962.4 1499.7 L -2957.4 1508.7 L -2953.4 1520.7 L -2947.9 1542.2 L -2943.9 1559.2 L -2962.9 1563.2 L -2971.4 1530.7 L -2978.4 1511.7 L -2981.9 1505.7 L -2987.4 1503.7 L -3031.4 1510.7 L -3075.4 1514.7 L -3119.4 1521.7 L -3159.4 1524.7 L -3180.4 1525.7 L -3184.4 1525.7 L -3187.4 1527.7 L -3186.9 1532.2 L -3155.9 1589.7 L -3180.4 1590.2 L -3183.4 1589.2 L -3189.9 1576.7 L -3196.4 1562.2 L -3202.9 1547.7 L -3207.4 1535.7 L -3210.9 1529.7 L -3212.9 1526.7 L -3216.9 1525.2 L -3224.4 1524.2 L -3236.4 1522.7 L -3250.4 1519.7 L -3273.4 1512.7 L -3285.9 1506.7 L -3298.4 1498.7 L -3316.4 1483.7 L -3331.9 1465.7 L -3342.4 1453.7 Z" fill="#333"/>
      <path d="M -3355.6 1436.5 L -3358.2 1432.1 L -3359 1427.1 L -3358.8 1425.5 L -3358 1424.1 L -3356.9 1421.7 L -3355.4 1419.3 L -3353.6 1416.5 L -3349.8 1414.9 L -3345 1415.7 L -3339.8 1420.3 L -3336.4 1424.7 L -3329.4 1436.7 L -3320.4 1447.7 L -3310.4 1458.7 L -3299.4 1471.7 L -3287.9 1481.2 L -3275.9 1491.7 L -3266.9 1496.2 L -3256.9 1499.7 L -3246.4 1503.7 L -3235.9 1506.2 L -3226.9 1507.2 L -3220.4 1508.2 L -3231.4 1484.7 L -3241.4 1463.2 L -3248.4 1447.7 L -3259.9 1423.2 L -3266.4 1406.7 L -3275.4 1387.7 L -3287.9 1366.2 L -3299.9 1349.7 L -3304 1344.1 L -3304 1340.9 L -3300.6 1336.5 L -3297.4 1333.3 L -3294 1330.3 L -3290.2 1328.5 L -3286.4 1329.7 L -3284.4 1331.7 L -3269.4 1353.7 L -3257.4 1380.7 L -3245.4 1405.7 L -3195.4 1510.7 L -3159.4 1508.7 L -3123.4 1506.7 L -3092.4 1501.7 L -3061.4 1497.7 L -3055 1495 L -3066.5 1460 L -3079.5 1432 L -3089.4 1408.7 L -3110.4 1362.7 L -3117 1346.5 L -3119 1340.5 L -3118 1337.5 L -3115.5 1336.5 L -3096.5 1335 L -3093 1337 L -3084 1360.5 L -3069 1401.5 L -3042.4 1468.7 L -3035 1491.5 L -3005 1486.5 L -2948 1479 L -2933 1473.5 L -2922.5 1464 L -2916 1465 L -2908.4 1468.7 L -2896.4 1480.7 L -2886.4 1516.7 L -2878.4 1542.7 L -2874.4 1561.7 L -2894.4 1567.2 L -2894.5 1563 L -2904.4 1538.7 L -2911.4 1512.7 L -2914.9 1498.7 L -2917.4 1495.2 L -2923.9 1494.2 L -2945.4 1497.7 L -2958.4 1498.7 L -2962.4 1499.7 L -2957.4 1508.7 L -2953.4 1520.7 L -2947.9 1542.2 L -2943.9 1559.2 L -2962.9 1563.2 L -2971.4 1530.7 L -2978.4 1511.7 L -2981.9 1505.7 L -2987.4 1503.7 L -3031.4 1510.7 L -3075.4 1514.7 L -3119.4 1521.7 L -3159.4 1524.7 L -3180.4 1525.7 L -3184.4 1525.7 L -3187.4 1527.7 L -3186.9 1532.2 L -3155.9 1589.7 L -3180.4 1590.2 L -3183.4 1589.2 L -3189.9 1576.7 L -3196.4 1562.2 L -3202.9 1547.7 L -3207.4 1535.7 L -3210.9 1529.7 L -3212.9 1526.7 L -3216.9 1525.2 L -3224.4 1524.2 L -3236.4 1522.7 L -3250.4 1519.7 L -3273.4 1512.7 L -3285.9 1506.7 L -3298.4 1498.7 L -3316.4 1483.7 L -3331.9 1465.7 L -3342.4 1453.7 Z" stroke="#7f8080" stroke-linecap="round" stroke-linejoin="round" stroke-width="2"/>
      <path d="M -3119.6236 1533.5 L -3121.6236 1551.5 L -3087.6236 1556.5 L -3056.6236 1561.5 L -3035.6236 1564 L -3031.6236 1564 L -3024.6236 1566 L -3021.6236 1569.5 L -3015.1236 1593 L -3005.1236 1613.5 L -3001.1236 1622.5 L -2994.1236 1627.5 L -2989.1236 1631.5 L -2977.1236 1638.5 L -2973.1236 1641.5 L -2962.1236 1646.5 L -2937.1236 1656.5 L -2911.6236 1667.5 L -2884.6236 1680.5 L -2881.1236 1682 L -2873.6236 1678.5 L -2869.6236 1674 L -2866.6236 1670 L -2866.1236 1664 L -2882.6236 1658.5 L -2904.1236 1649.5 L -2928.6236 1637.5 L -2952.1236 1628.5 L -2967.1236 1621.5 L -2980.1236 1613.5 L -2985.1236 1604.5 L -2990.1236 1594.5 L -2998.1236 1569.5 L -2924.6236 1557.5 L -2900.1236 1547.5 L -2904.1236 1540.5 L -2934.1236 1543.5 L -2975.6236 1545.5 L -3000.6236 1545.5 L -3008.1236 1546 L -3011.1236 1542.5 L -3013.6236 1534.5 L -3030.6236 1489.5 L -2965.1236 1480 L -2933.6236 1474.5 L -2921.6236 1465.5 L -2960.2665 1466.8571 L -2997.2665 1467.3571 L -3026.6236 1467.5 L -3042.6236 1469 L -3092.6236 1339 L -3097.6236 1336 L -3117.1236 1338 L -3118.6236 1342.5 L -3099.1236 1387 L -3083.6236 1420.5 L -3073.6236 1444.5 L -3064.6236 1466 L -3076.6236 1461.5 L -3085.1236 1457.5 L -3092.6236 1448.5 L -3109.6236 1430.5 L -3119.6236 1416.5 L -3136.6236 1395.5 L -3140 1412.5 L -3137.5 1430.5 L -3121.6236 1449.5 L -3104.6236 1469.5 L -3083.6236 1481.5 L -3057.6236 1487.5 L -3031.6236 1544.5 L -3082.6236 1536.5 Z" fill="#333"/>
      <path d="M -3119.6236 1533.5 L -3121.6236 1551.5 L -3087.6236 1556.5 L -3056.6236 1561.5 L -3035.6236 1564 L -3031.6236 1564 L -3024.6236 1566 L -3021.6236 1569.5 L -3015.1236 1593 L -3005.1236 1613.5 L -3001.1236 1622.5 L -2994.1236 1627.5 L -2989.1236 1631.5 L -2977.1236 1638.5 L -2973.1236 1641.5 L -2962.1236 1646.5 L -2937.1236 1656.5 L -2911.6236 1667.5 L -2884.6236 1680.5 L -2881.1236 1682 L -2873.6236 1678.5 L -2869.6236 1674 L -2866.6236 1670 L -2866.1236 1664 L -2882.6236 1658.5 L -2904.1236 1649.5 L -2928.6236 1637.5 L -2952.1236 1628.5 L -2967.1236 1621.5 L -2980.1236 1613.5 L -2985.1236 1604.5 L -2990.1236 1594.5 L -2998.1236 1569.5 L -2924.6236 1557.5 L -2900.1236 1547.5 L -2904.1236 1540.5 L -2934.1236 1543.5 L -2975.6236 1545.5 L -3000.6236 1545.5 L -3008.1236 1546 L -3011.1236 1542.5 L -3013.6236 1534.5 L -3030.6236 1489.5 L -2965.1236 1480 L -2933.6236 1474.5 L -2921.6236 1465.5 L -2960.2665 1466.8571 L -2997.2665 1467.3571 L -3026.6236 1467.5 L -3042.6236 1469 L -3092.6236 1339 L -3097.6236 1336 L -3117.1236 1338 L -3118.6236 1342.5 L -3099.1236 1387 L -3083.6236 1420.5 L -3073.6236 1444.5 L -3064.6236 1466 L -3076.6236 1461.5 L -3085.1236 1457.5 L -3092.6236 1448.5 L -3109.6236 1430.5 L -3119.6236 1416.5 L -3136.6236 1395.5 L -3140 1412.5 L -3137.5 1430.5 L -3121.6236 1449.5 L -3104.6236 1469.5 L -3083.6236 1481.5 L -3057.6236 1487.5 L -3031.6236 1544.5 L -3082.6236 1536.5 Z" stroke="#7f8080" stroke-linecap="round" stroke-linejoin="round" stroke-width="2"/>
      <path d="M -3467 1552 L -3444 1519 L -3442.8 1510.2 L -3444 1505.8 L -3445.8 1500.4 L -3448.2 1495.8 L -3451 1490.8 L -3455 1487 L -3459.8 1483.6 L -3467 1480 L -3476.4 1476.8 L -3482.4 1475.8 L -3489 1476 L -3492 1476.4 L -3495 1477.5 L -3501 1480 L -3507.5 1484 L -3510 1486.5 L -3513 1490 L -3516 1498 L -3517.2 1506 L -3517.4 1511.2 L -3517.4 1516.4 L -3516.6 1521.4 L -3516 1525.2 L -3514.6 1530.2 L -3513.2 1533.8 L -3510.8 1536.8 L -3508.4 1540.2 L -3505.8 1542.4 L -3503 1545.2 L -3498.2 1548 L -3493 1551 L -3486.2 1552.8 L -3479 1553 Z" fill="#000091"/>
      <path d="M -3467 1552 L -3444 1519 L -3442.8 1510.2 L -3444 1505.8 L -3445.8 1500.4 L -3448.2 1495.8 L -3451 1490.8 L -3455 1487 L -3459.8 1483.6 L -3467 1480 L -3476.4 1476.8 L -3482.4 1475.8 L -3489 1476 L -3492 1476.4 L -3495 1477.5 L -3501 1480 L -3507.5 1484 L -3510 1486.5 L -3513 1490 L -3516 1498 L -3517.2 1506 L -3517.4 1511.2 L -3517.4 1516.4 L -3516.6 1521.4 L -3516 1525.2 L -3514.6 1530.2 L -3513.2 1533.8 L -3510.8 1536.8 L -3508.4 1540.2 L -3505.8 1542.4 L -3503 1545.2 L -3498.2 1548 L -3493 1551 L -3486.2 1552.8 L -3479 1553 Z" stroke="#7f8080" stroke-linecap="round" stroke-linejoin="round" stroke-width="2"/>
      <path d="M -3470 1060 L -3436 1060 L -3409 1060 L -3379 1062 L -3360.0917 1065.1331 L -3346.5917 1067.6331 L -3333.0917 1071.6331 L -3322 1075 L -3306.5917 1080.1331 L -3293.0917 1085.6331 L -3280.0917 1092.6331 L -3268 1100 L -3259 1106 L -3243.5917 1115.6331 L -3225 1129 L -3213 1142 L -3203 1153 L -3191 1165 L -3180.5917 1179.1331 L -3169 1196 L -3162 1207 L -3156.5917 1218.1331 L -3152.5917 1227.6331 L -3149.0917 1231.1331 L -3145.5917 1230.6331 L -3116.5917 1219.6331 L -3116.0917 1212.6331 L -3130.5917 1192.6331 L -3142.5917 1176.1331 L -3151.5917 1165.6331 L -3163 1154 L -3172 1144 L -3183 1133 L -3196.5917 1120.6331 L -3210 1111 L -3226 1102 L -3242 1093 L -3260 1084 L -3275 1076 L -3292.5917 1068.1331 L -3311 1063 L -3333 1058 L -3346 1056 L -3366 1054 L -3391 1053 L -3413 1053 L -3438 1053 L -3453 1056 L -3467 1058 Z" fill="#00009b"/>
      <path d="M -3470 1060 L -3436 1060 L -3409 1060 L -3379 1062 L -3360.0917 1065.1331 L -3346.5917 1067.6331 L -3333.0917 1071.6331 L -3322 1075 L -3306.5917 1080.1331 L -3293.0917 1085.6331 L -3280.0917 1092.6331 L -3268 1100 L -3259 1106 L -3243.5917 1115.6331 L -3225 1129 L -3213 1142 L -3203 1153 L -3191 1165 L -3180.5917 1179.1331 L -3169 1196 L -3162 1207 L -3156.5917 1218.1331 L -3152.5917 1227.6331 L -3149.0917 1231.1331 L -3145.5917 1230.6331 L -3116.5917 1219.6331 L -3116.0917 1212.6331 L -3130.5917 1192.6331 L -3142.5917 1176.1331 L -3151.5917 1165.6331 L -3163 1154 L -3172 1144 L -3183 1133 L -3196.5917 1120.6331 L -3210 1111 L -3226 1102 L -3242 1093 L -3260 1084 L -3275 1076 L -3292.5917 1068.1331 L -3311 1063 L -3333 1058 L -3346 1056 L -3366 1054 L -3391 1053 L -3413 1053 L -3438 1053 L -3453 1056 L -3467 1058 Z" stroke="white" stroke-linecap="round" stroke-linejoin="round" stroke-width="0"/>
      <path d="M -3634.4064 1240.4109 L -3630.2796 1248.2221 L -3624.61 1257.2957 L -3619.479 1257.058 L -3610.6755 1253.0414 L -3607.3404 1258.3788 L -3608.6377 1269.5795 L -3609.6456 1287.2785 L -3606.479 1297.174 L -3605.024 1310.3656 L -3600.5233 1322.396 L -3597.276 1339.6627 L -3590.272 1350.8712 L -3581.2672 1365.282 L -3569.759 1378.871 L -3557.54 1387.5627 L -3540.5234 1395.4831 L -3526.926 1400.3453 L -3508.7405 1405.3087 L -3489.3013 1405.036 L -3470.445 1401.4168 L -3454.4656 1394.4004 L -3437.1082 1383.5543 L -3423.9216 1370.8615 L -3410.8596 1356.7623 L -3405.8496 1345.4682 L -3402.005 1327.4809 L -3399.623 1315.6023 L -3398.4905 1299.3097 L -3400.07 1284.7118 L -3403.8598 1267.7842 L -3408.3604 1255.7536 L -3416.0313 1243.4777 L -3427.7887 1227.076 L -3436.295 1218.2907 L -3448.0965 1207.8536 L -3460.191 1200.5682 L -3471.6185 1194.3503 L -3482.837 1187.2598 L -3491.7613 1180.2199 L -3487.129 1174.3566 L -3482.247 1171.3061 L -3495.005 1153.3032 L -3502.3056 1154.8966 L -3512.6116 1161.3364 L -3523.8777 1169.8606 L -3528.1364 1179.9431 L -3522.76 1192.1685 L -3517.2147 1199.8356 L -3508.2904 1206.8755 L -3498.49 1214.1102 L -3491.149 1216.2023 L -3477.6363 1223.3435 L -3468.921 1231.2561 L -3456.2436 1241.888 L -3446.0696 1253.342 L -3438.7322 1265.0842 L -3436.4416 1274.785 L -3433.9017 1287.2986 L -3434.074 1301.5069 L -3438.252 1318.9604 L -3442.2614 1331.8558 L -3450.108 1343.4383 L -3464.2953 1354.5298 L -3472.974 1359.9529 L -3482.653 1363.7747 L -3496.1697 1366.2836 L -3509.0595 1366.1745 L -3521.656 1362.9136 L -3531.416 1359.3644 L -3541.0916 1353.5361 L -3554.729 1344.9885 L -3561.733 1333.78 L -3570.2797 1321.3092 L -3572.904 1311.0747 L -3576.3197 1298.3663 L -3579.402 1286.1916 L -3581.066 1273.8728 L -3580.1864 1264.4175 L -3582.184 1251.565 L -3583.056 1241.72 L -3587.7254 1234.2477 L -3595.0628 1222.5055 L -3602.279 1221.8198 L -3613.919 1226.1247 L -3626.186 1233.0477 Z" fill="#000090"/>
      <path d="M -3634.4064 1240.4109 L -3630.2796 1248.2221 L -3624.61 1257.2957 L -3619.479 1257.058 L -3610.6755 1253.0414 L -3607.3404 1258.3788 L -3608.6377 1269.5795 L -3609.6456 1287.2785 L -3606.479 1297.174 L -3605.024 1310.3656 L -3600.5233 1322.396 L -3597.276 1339.6627 L -3590.272 1350.8712 L -3581.2672 1365.282 L -3569.759 1378.871 L -3557.54 1387.5627 L -3540.5234 1395.4831 L -3526.926 1400.3453 L -3508.7405 1405.3087 L -3489.3013 1405.036 L -3470.445 1401.4168 L -3454.4656 1394.4004 L -3437.1082 1383.5543 L -3423.9216 1370.8615 L -3410.8596 1356.7623 L -3405.8496 1345.4682 L -3402.005 1327.4809 L -3399.623 1315.6023 L -3398.4905 1299.3097 L -3400.07 1284.7118 L -3403.8598 1267.7842 L -3408.3604 1255.7536 L -3416.0313 1243.4777 L -3427.7887 1227.076 L -3436.295 1218.2907 L -3448.0965 1207.8536 L -3460.191 1200.5682 L -3471.6185 1194.3503 L -3482.837 1187.2598 L -3491.7613 1180.2199 L -3487.129 1174.3566 L -3482.247 1171.3061 L -3495.005 1153.3032 L -3502.3056 1154.8966 L -3512.6116 1161.3364 L -3523.8777 1169.8606 L -3528.1364 1179.9431 L -3522.76 1192.1685 L -3517.2147 1199.8356 L -3508.2904 1206.8755 L -3498.49 1214.1102 L -3491.149 1216.2023 L -3477.6363 1223.3435 L -3468.921 1231.2561 L -3456.2436 1241.888 L -3446.0696 1253.342 L -3438.7322 1265.0842 L -3436.4416 1274.785 L -3433.9017 1287.2986 L -3434.074 1301.5069 L -3438.252 1318.9604 L -3442.2614 1331.8558 L -3450.108 1343.4383 L -3464.2953 1354.5298 L -3472.974 1359.9529 L -3482.653 1363.7747 L -3496.1697 1366.2836 L -3509.0595 1366.1745 L -3521.656 1362.9136 L -3531.416 1359.3644 L -3541.0916 1353.5361 L -3554.729 1344.9885 L -3561.733 1333.78 L -3570.2797 1321.3092 L -3572.904 1311.0747 L -3576.3197 1298.3663 L -3579.402 1286.1916 L -3581.066 1273.8728 L -3580.1864 1264.4175 L -3582.184 1251.565 L -3583.056 1241.72 L -3587.7254 1234.2477 L -3595.0628 1222.5055 L -3602.279 1221.8198 L -3613.919 1226.1247 L -3626.186 1233.0477 Z" stroke="#7f8080" stroke-linecap="round" stroke-linejoin="round" stroke-width="1"/>
      <circle cx="-3590.5" cy="1299.5" r="6.50001" fill="white"/>
      <circle cx="-3590.5" cy="1299.5" r="6.50001" stroke="black" stroke-linecap="round" stroke-linejoin="round" stroke-width="1"/>
      <circle cx="-3463.5" cy="1216.5" r="6.50001" fill="white"/>
      <circle cx="-3463.5" cy="1216.5" r="6.50001" stroke="black" stroke-linecap="round" stroke-linejoin="round" stroke-width="1"/>
      <circle cx="-3422.5" cy="1265.5" r="6.50001" fill="white"/>
      <circle cx="-3422.5" cy="1265.5" r="6.50001" stroke="black" stroke-linecap="round" stroke-linejoin="round" stroke-width="1"/>
      <circle cx="-3417.5" cy="1317.5" r="6.50001" fill="white"/>
      <circle cx="-3417.5" cy="1317.5" r="6.50001" stroke="black" stroke-linecap="round" stroke-linejoin="round" stroke-width="1"/>
      <circle cx="-3568.5" cy="1351.5" r="6.50001" fill="white"/>
      <circle cx="-3568.5" cy="1351.5" r="6.50001" stroke="black" stroke-linecap="round" stroke-linejoin="round" stroke-width="1"/>
      <circle cx="-3530.5" cy="1382" r="6.50001" fill="white"/>
      <circle cx="-3530.5" cy="1382" r="6.50001" stroke="black" stroke-linecap="round" stroke-linejoin="round" stroke-width="1"/>
    </g>
  </g>
</svg>
