<?xml version="1.0" encoding="UTF-8" standalone="no"?>
<!DOCTYPE svg PUBLIC "-//W3C//DTD SVG 1.1//EN" "http://www.w3.org/Graphics/SVG/1.1/DTD/svg11.dtd">
<svg xmlns="http://www.w3.org/2000/svg" xmlns:xl="http://www.w3.org/1999/xlink" version="1.1" viewBox="-3226 1567 860.5 660" width="860.5pt" height="55pc" xmlns:dc="http://purl.org/dc/elements/1.1/">
  <metadata> Produced by OmniGraffle 7.6.1 
    <dc:date>2019-06-04 14:23:03 +0000</dc:date>
  </metadata>
  <defs>
    <linearGradient x1="0" x2="1" id="Gradient" gradientUnits="userSpaceOnUse">
      <stop offset="0" stop-color="#464646"/>
      <stop offset="1" stop-color="#f0f0f0"/>
    </linearGradient>
    <linearGradient id="Obj_Gradient" xl:href="#Gradient" gradientTransform="translate(-2749.6138 1827.222) rotate(72) scale(359.227)"/>
  </defs>
  <g stroke="none" stroke-opacity="1" stroke-dasharray="none" fill="none" fill-opacity="1">
    <title>New York Jets</title>
    <g>
      <title>Capa 1</title>
      <path d="M -2758 2153.0446 L -2728 2157.0446 L -2697 2151.0446 L -2669 2139.0446 L -2647 2121.0446 L -2635 2101.0446 L -2627 2074.0446 L -2621 2033.0446 L -2633 1990.0446 L -2637 1963.0446 L -2641 1926.0446 L -2635 1902.0446 L -2632 1876.0446 L -2619 1860.0446 L -2602.2203 1851.0446 L -2609.2203 1851.0446 L -2616.2203 1851.0446 L -2630.2203 1853.0446 L -2648.2203 1853.0446 L -2670.2203 1850.0446 L -2666.2203 1839.0446 L -2678.2203 1839.0446 L -2694.2203 1842.0446 L -2707.2203 1847.0446 L -2720.2203 1851.0446 L -2727.2203 1855.0446 L -2735.2203 1859.0446 L -2751.2203 1865.0446 L -2762.2203 1883.0446 L -2770.2203 1893.0446 L -2779.2203 1910.0446 L -2786 1937.0446 L -2786 1977.0446 L -2778.2203 2013.0446 L -2767 2048.0446 L -2752 2071.0446 L -2751.7203 2078.0446 L -2752.2203 2089.0446 L -2752.2203 2098.5446 L -2751.7203 2106.0446 L -2753 2114.0446 L -2752.7203 2127.5446 L -2756 2141.0446 L -2759.2203 2146.5446 L -2764 2152.0446 Z" fill="url(#Obj_Gradient)"/>
      <path d="M -2758 2153.0446 L -2728 2157.0446 L -2697 2151.0446 L -2669 2139.0446 L -2647 2121.0446 L -2635 2101.0446 L -2627 2074.0446 L -2621 2033.0446 L -2633 1990.0446 L -2637 1963.0446 L -2641 1926.0446 L -2635 1902.0446 L -2632 1876.0446 L -2619 1860.0446 L -2602.2203 1851.0446 L -2609.2203 1851.0446 L -2616.2203 1851.0446 L -2630.2203 1853.0446 L -2648.2203 1853.0446 L -2670.2203 1850.0446 L -2666.2203 1839.0446 L -2678.2203 1839.0446 L -2694.2203 1842.0446 L -2707.2203 1847.0446 L -2720.2203 1851.0446 L -2727.2203 1855.0446 L -2735.2203 1859.0446 L -2751.2203 1865.0446 L -2762.2203 1883.0446 L -2770.2203 1893.0446 L -2779.2203 1910.0446 L -2786 1937.0446 L -2786 1977.0446 L -2778.2203 2013.0446 L -2767 2048.0446 L -2752 2071.0446 L -2751.7203 2078.0446 L -2752.2203 2089.0446 L -2752.2203 2098.5446 L -2751.7203 2106.0446 L -2753 2114.0446 L -2752.7203 2127.5446 L -2756 2141.0446 L -2759.2203 2146.5446 L -2764 2152.0446 Z" stroke="black" stroke-linecap="round" stroke-linejoin="round" stroke-width="1"/>
      <path d="M -3169 2096 L -3171 2102 L -3176 2105 L -3169 2123 L -3161 2137 L -3157 2150 L -3153 2159 L -3152 2177 L -3147 2190 L -3135 2198 L -3124 2200 L -3107 2202 L -3094 2200 L -3081 2196 L -3067 2193 L -3055 2188 L -3047 2184 L -3039 2177 L -3032 2169 L -3021 2177 L -3010 2185 L -2996 2194 L -2981 2202 L -2963 2209 L -2944 2214 L -2925 2220 L -2905 2223 L -2885 2226 L -2863 2225 L -2846 2221 L -2824 2215 L -2805 2204 L -2792 2197 L -2779 2182 L -2769 2159 L -2756 2143.5 L -2753 2130 L -2751.5 2102 L -2751 2072.5 L -2766 2047 L -2775 2023 L -2785 1986 L -2787 1953 L -2783 1920 L -2768 1889 L -2750 1866 L -2717 1850 L -2689 1840 L -2667 1840 L -2667 1845 L -2670 1850 L -2648 1852 L -2623 1852 L -2599 1850 L -2593 1853 L -2578 1855 L -2566 1848 L -2563 1826 L -2563 1803 L -2578 1764 L -2587 1744 L -2599 1727 L -2615 1700 L -2649 1664 L -2679 1638 L -2709 1616 L -2742 1599 L -2777 1584 L -2811 1575 L -2836 1571 L -2862 1569 L -2890 1568 L -2914 1568 L -2943 1570 L -2970 1576 L -2998 1583 L -3024 1591 L -3037 1597 L -3054 1604 L -3075 1616 L -3103 1634 L -3124 1652 L -3145 1675 L -3162 1696 L -3176 1717 L -3190 1744 L -3203 1772 L -3212 1801 L -3219 1828 L -3225 1870 L -3224 1907 L -3220 1943 L -3213 1983 L -3201 2021 L -3187 2055 L -3175 2082 Z" fill="#f0f0f0"/>
      <path d="M -3169 2096 L -3171 2102 L -3176 2105 L -3169 2123 L -3161 2137 L -3157 2150 L -3153 2159 L -3152 2177 L -3147 2190 L -3135 2198 L -3124 2200 L -3107 2202 L -3094 2200 L -3081 2196 L -3067 2193 L -3055 2188 L -3047 2184 L -3039 2177 L -3032 2169 L -3021 2177 L -3010 2185 L -2996 2194 L -2981 2202 L -2963 2209 L -2944 2214 L -2925 2220 L -2905 2223 L -2885 2226 L -2863 2225 L -2846 2221 L -2824 2215 L -2805 2204 L -2792 2197 L -2779 2182 L -2769 2159 L -2756 2143.5 L -2753 2130 L -2751.5 2102 L -2751 2072.5 L -2766 2047 L -2775 2023 L -2785 1986 L -2787 1953 L -2783 1920 L -2768 1889 L -2750 1866 L -2717 1850 L -2689 1840 L -2667 1840 L -2667 1845 L -2670 1850 L -2648 1852 L -2623 1852 L -2599 1850 L -2593 1853 L -2578 1855 L -2566 1848 L -2563 1826 L -2563 1803 L -2578 1764 L -2587 1744 L -2599 1727 L -2615 1700 L -2649 1664 L -2679 1638 L -2709 1616 L -2742 1599 L -2777 1584 L -2811 1575 L -2836 1571 L -2862 1569 L -2890 1568 L -2914 1568 L -2943 1570 L -2970 1576 L -2998 1583 L -3024 1591 L -3037 1597 L -3054 1604 L -3075 1616 L -3103 1634 L -3124 1652 L -3145 1675 L -3162 1696 L -3176 1717 L -3190 1744 L -3203 1772 L -3212 1801 L -3219 1828 L -3225 1870 L -3224 1907 L -3220 1943 L -3213 1983 L -3201 2021 L -3187 2055 L -3175 2082 Z" stroke="#666" stroke-linecap="round" stroke-linejoin="round" stroke-width="2"/>
      <path d="M -2856.6 1951.5 L -2859.2 1947.1 L -2860 1942.1 L -2859.8 1940.5 L -2859 1939.1 L -2857.9 1936.7 L -2856.4 1934.3 L -2854.6 1931.5 L -2850.8 1929.9 L -2846 1930.7 L -2840.8 1935.3 L -2837.4 1939.7 L -2830.4 1951.7 L -2821.4 1962.7 L -2811.4 1973.7 L -2800.4 1986.7 L -2788.9 1996.2 L -2776.9 2006.7 L -2767.9 2011.2 L -2757.9 2014.7 L -2747.4 2018.7 L -2736.9 2021.2 L -2727.9 2022.2 L -2721.4 2023.2 L -2732.4 1999.7 L -2742.4 1978.2 L -2749.4 1962.7 L -2760.9 1938.2 L -2767.4 1921.7 L -2776.4 1902.7 L -2788.9 1881.2 L -2800.9 1864.7 L -2805 1859.1 L -2805 1855.9 L -2801.6 1851.5 L -2798.4 1848.3 L -2795 1845.3 L -2791.2 1843.5 L -2787.4 1844.7 L -2785.4 1846.7 L -2770.4 1868.7 L -2758.4 1895.7 L -2746.4 1920.7 L -2696.4 2025.7 L -2660.4 2023.7 L -2624.4 2021.7 L -2593.4 2016.7 L -2562.4 2012.7 L -2556 2010 L -2567.5 1975 L -2580.5 1947 L -2590.4 1923.7 L -2611.4 1877.7 L -2618 1861.5 L -2620 1855.5 L -2619 1852.5 L -2616.5 1851.5 L -2597.5 1850 L -2594 1852 L -2585 1875.5 L -2570 1916.5 L -2543.4 1983.7 L -2536 2006.5 L -2506 2001.5 L -2449 1994 L -2434 1988.5 L -2423.5 1979 L -2417 1980 L -2409.4 1983.7 L -2397.4 1995.7 L -2387.4 2031.7 L -2379.4 2057.7 L -2375.4 2076.7 L -2395.4 2082.2 L -2395.5 2078 L -2405.4 2053.7 L -2412.4 2027.7 L -2415.9 2013.7 L -2418.4 2010.2 L -2424.9 2009.2 L -2446.4 2012.7 L -2459.4 2013.7 L -2463.4 2014.7 L -2458.4 2023.7 L -2454.4 2035.7 L -2448.9 2057.2 L -2444.9 2074.2 L -2463.9 2078.2 L -2472.4 2045.7 L -2479.4 2026.7 L -2482.9 2020.7 L -2488.4 2018.7 L -2532.4 2025.7 L -2576.4 2029.7 L -2620.4 2036.7 L -2660.4 2039.7 L -2681.4 2040.7 L -2685.4 2040.7 L -2688.4 2042.7 L -2687.9 2047.2 L -2656.9 2104.7 L -2681.4 2105.2 L -2684.4 2104.2 L -2690.9 2091.7 L -2697.4 2077.2 L -2703.9 2062.7 L -2708.4 2050.7 L -2711.9 2044.7 L -2713.9 2041.7 L -2717.9 2040.2 L -2725.4 2039.2 L -2737.4 2037.7 L -2751.4 2034.7 L -2774.4 2027.7 L -2786.9 2021.7 L -2799.4 2013.7 L -2817.4 1998.7 L -2832.9 1980.7 L -2843.4 1968.7 Z" fill="#007b00"/>
      <path d="M -2856.6 1951.5 L -2859.2 1947.1 L -2860 1942.1 L -2859.8 1940.5 L -2859 1939.1 L -2857.9 1936.7 L -2856.4 1934.3 L -2854.6 1931.5 L -2850.8 1929.9 L -2846 1930.7 L -2840.8 1935.3 L -2837.4 1939.7 L -2830.4 1951.7 L -2821.4 1962.7 L -2811.4 1973.7 L -2800.4 1986.7 L -2788.9 1996.2 L -2776.9 2006.7 L -2767.9 2011.2 L -2757.9 2014.7 L -2747.4 2018.7 L -2736.9 2021.2 L -2727.9 2022.2 L -2721.4 2023.2 L -2732.4 1999.7 L -2742.4 1978.2 L -2749.4 1962.7 L -2760.9 1938.2 L -2767.4 1921.7 L -2776.4 1902.7 L -2788.9 1881.2 L -2800.9 1864.7 L -2805 1859.1 L -2805 1855.9 L -2801.6 1851.5 L -2798.4 1848.3 L -2795 1845.3 L -2791.2 1843.5 L -2787.4 1844.7 L -2785.4 1846.7 L -2770.4 1868.7 L -2758.4 1895.7 L -2746.4 1920.7 L -2696.4 2025.7 L -2660.4 2023.7 L -2624.4 2021.7 L -2593.4 2016.7 L -2562.4 2012.7 L -2556 2010 L -2567.5 1975 L -2580.5 1947 L -2590.4 1923.7 L -2611.4 1877.7 L -2618 1861.5 L -2620 1855.5 L -2619 1852.5 L -2616.5 1851.5 L -2597.5 1850 L -2594 1852 L -2585 1875.5 L -2570 1916.5 L -2543.4 1983.7 L -2536 2006.5 L -2506 2001.5 L -2449 1994 L -2434 1988.5 L -2423.5 1979 L -2417 1980 L -2409.4 1983.7 L -2397.4 1995.7 L -2387.4 2031.7 L -2379.4 2057.7 L -2375.4 2076.7 L -2395.4 2082.2 L -2395.5 2078 L -2405.4 2053.7 L -2412.4 2027.7 L -2415.9 2013.7 L -2418.4 2010.2 L -2424.9 2009.2 L -2446.4 2012.7 L -2459.4 2013.7 L -2463.4 2014.7 L -2458.4 2023.7 L -2454.4 2035.7 L -2448.9 2057.2 L -2444.9 2074.2 L -2463.9 2078.2 L -2472.4 2045.7 L -2479.4 2026.7 L -2482.9 2020.7 L -2488.4 2018.7 L -2532.4 2025.7 L -2576.4 2029.7 L -2620.4 2036.7 L -2660.4 2039.7 L -2681.4 2040.7 L -2685.4 2040.7 L -2688.4 2042.7 L -2687.9 2047.2 L -2656.9 2104.7 L -2681.4 2105.2 L -2684.4 2104.2 L -2690.9 2091.7 L -2697.4 2077.2 L -2703.9 2062.7 L -2708.4 2050.7 L -2711.9 2044.7 L -2713.9 2041.7 L -2717.9 2040.2 L -2725.4 2039.2 L -2737.4 2037.7 L -2751.4 2034.7 L -2774.4 2027.7 L -2786.9 2021.7 L -2799.4 2013.7 L -2817.4 1998.7 L -2832.9 1980.7 L -2843.4 1968.7 Z" stroke="black" stroke-linecap="round" stroke-linejoin="round" stroke-width="1"/>
      <path d="M -2620.6236 2048.5 L -2622.6236 2066.5 L -2588.6236 2071.5 L -2557.6236 2076.5 L -2536.6236 2079 L -2532.6236 2079 L -2525.6236 2081 L -2522.6236 2084.5 L -2516.1236 2108 L -2506.1236 2128.5 L -2502.1236 2137.5 L -2495.1236 2142.5 L -2490.1236 2146.5 L -2478.1236 2153.5 L -2474.1236 2156.5 L -2463.1236 2161.5 L -2438.1236 2171.5 L -2412.6236 2182.5 L -2385.6236 2195.5 L -2382.1236 2197 L -2374.6236 2193.5 L -2370.6236 2189 L -2367.6236 2185 L -2367.1236 2179 L -2383.6236 2173.5 L -2405.1236 2164.5 L -2429.6236 2152.5 L -2453.1236 2143.5 L -2468.1236 2136.5 L -2481.1236 2128.5 L -2486.1236 2119.5 L -2491.1236 2109.5 L -2499.1236 2084.5 L -2425.6236 2072.5 L -2401.1236 2062.5 L -2405.1236 2055.5 L -2435.1236 2058.5 L -2476.6236 2060.5 L -2501.6236 2060.5 L -2509.1236 2061 L -2512.1236 2057.5 L -2514.6236 2049.5 L -2531.6236 2004.5 L -2466.1236 1995 L -2434.6236 1989.5 L -2422.6236 1980.5 L -2461.2665 1981.8571 L -2498.2665 1982.3571 L -2527.6236 1982.5 L -2543.6236 1984 L -2593.6236 1854 L -2598.6236 1851 L -2618.1236 1853 L -2619.6236 1857.5 L -2600.1236 1902 L -2584.6236 1935.5 L -2574.6236 1959.5 L -2565.6236 1981 L -2577.6236 1976.5 L -2586.1236 1972.5 L -2593.6236 1963.5 L -2610.6236 1945.5 L -2620.6236 1931.5 L -2637.6236 1910.5 L -2641 1927.5 L -2638.5 1945.5 L -2622.6236 1964.5 L -2605.6236 1984.5 L -2584.6236 1996.5 L -2558.6236 2002.5 L -2532.6236 2059.5 L -2583.6236 2051.5 Z" fill="#008500"/>
      <path d="M -2620.6236 2048.5 L -2622.6236 2066.5 L -2588.6236 2071.5 L -2557.6236 2076.5 L -2536.6236 2079 L -2532.6236 2079 L -2525.6236 2081 L -2522.6236 2084.5 L -2516.1236 2108 L -2506.1236 2128.5 L -2502.1236 2137.5 L -2495.1236 2142.5 L -2490.1236 2146.5 L -2478.1236 2153.5 L -2474.1236 2156.5 L -2463.1236 2161.5 L -2438.1236 2171.5 L -2412.6236 2182.5 L -2385.6236 2195.5 L -2382.1236 2197 L -2374.6236 2193.5 L -2370.6236 2189 L -2367.6236 2185 L -2367.1236 2179 L -2383.6236 2173.5 L -2405.1236 2164.5 L -2429.6236 2152.5 L -2453.1236 2143.5 L -2468.1236 2136.5 L -2481.1236 2128.5 L -2486.1236 2119.5 L -2491.1236 2109.5 L -2499.1236 2084.5 L -2425.6236 2072.5 L -2401.1236 2062.5 L -2405.1236 2055.5 L -2435.1236 2058.5 L -2476.6236 2060.5 L -2501.6236 2060.5 L -2509.1236 2061 L -2512.1236 2057.5 L -2514.6236 2049.5 L -2531.6236 2004.5 L -2466.1236 1995 L -2434.6236 1989.5 L -2422.6236 1980.5 L -2461.2665 1981.8571 L -2498.2665 1982.3571 L -2527.6236 1982.5 L -2543.6236 1984 L -2593.6236 1854 L -2598.6236 1851 L -2618.1236 1853 L -2619.6236 1857.5 L -2600.1236 1902 L -2584.6236 1935.5 L -2574.6236 1959.5 L -2565.6236 1981 L -2577.6236 1976.5 L -2586.1236 1972.5 L -2593.6236 1963.5 L -2610.6236 1945.5 L -2620.6236 1931.5 L -2637.6236 1910.5 L -2641 1927.5 L -2638.5 1945.5 L -2622.6236 1964.5 L -2605.6236 1984.5 L -2584.6236 1996.5 L -2558.6236 2002.5 L -2532.6236 2059.5 L -2583.6236 2051.5 Z" stroke="black" stroke-linecap="round" stroke-linejoin="round" stroke-width="1"/>
      <path d="M -2968 2067 L -2945 2034 L -2943.8 2025.2 L -2945 2020.8 L -2946.8 2015.4 L -2949.2 2010.8 L -2952 2005.8 L -2956 2002 L -2960.8 1998.6 L -2968 1995 L -2977.4 1991.8 L -2983.4 1990.8 L -2990 1991 L -2993 1991.4 L -2996 1992.5 L -3002 1995 L -3008.5 1999 L -3011 2001.5 L -3014 2005 L -3017 2013 L -3018.2 2021 L -3018.4 2026.2 L -3018.4 2031.4 L -3017.6 2036.4 L -3017 2040.2 L -3015.6 2045.2 L -3014.2 2048.8 L -3011.8 2051.8 L -3009.4 2055.2 L -3006.8 2057.4 L -3004 2060.2 L -2999.2 2063 L -2994 2066 L -2987.2 2067.8 L -2980 2068 Z" fill="#007b00"/>
      <path d="M -2968 2067 L -2945 2034 L -2943.8 2025.2 L -2945 2020.8 L -2946.8 2015.4 L -2949.2 2010.8 L -2952 2005.8 L -2956 2002 L -2960.8 1998.6 L -2968 1995 L -2977.4 1991.8 L -2983.4 1990.8 L -2990 1991 L -2993 1991.4 L -2996 1992.5 L -3002 1995 L -3008.5 1999 L -3011 2001.5 L -3014 2005 L -3017 2013 L -3018.2 2021 L -3018.4 2026.2 L -3018.4 2031.4 L -3017.6 2036.4 L -3017 2040.2 L -3015.6 2045.2 L -3014.2 2048.8 L -3011.8 2051.8 L -3009.4 2055.2 L -3006.8 2057.4 L -3004 2060.2 L -2999.2 2063 L -2994 2066 L -2987.2 2067.8 L -2980 2068 Z" stroke="black" stroke-linecap="round" stroke-linejoin="round" stroke-width=".5"/>
      <path d="M -2963 1575 L -2929 1575 L -2902 1575 L -2872 1577 L -2853.0917 1580.1331 L -2839.5917 1582.6331 L -2826.0917 1586.6331 L -2815 1590 L -2799.5917 1595.1331 L -2786.0917 1600.6331 L -2773.0917 1607.6331 L -2761 1615 L -2752 1621 L -2736.5917 1630.6331 L -2718 1644 L -2706 1657 L -2696 1668 L -2684 1680 L -2673.5917 1694.1331 L -2662 1711 L -2655 1722 L -2649.5917 1733.1331 L -2645.5917 1742.6331 L -2642.0917 1746.1331 L -2638.5917 1745.6331 L -2609.5917 1734.6331 L -2609.0917 1727.6331 L -2623.5917 1707.6331 L -2635.5917 1691.1331 L -2644.5917 1680.6331 L -2656 1669 L -2665 1659 L -2676 1648 L -2689.5917 1635.6331 L -2703 1626 L -2719 1617 L -2735 1608 L -2753 1599 L -2768 1591 L -2785.5917 1583.1331 L -2804 1578 L -2826 1573 L -2839 1571 L -2859 1569 L -2884 1568 L -2906 1568 L -2931 1568 L -2946 1571 L -2960 1573 Z" fill="#006000"/>
      <path d="M -2963 1575 L -2929 1575 L -2902 1575 L -2872 1577 L -2853.0917 1580.1331 L -2839.5917 1582.6331 L -2826.0917 1586.6331 L -2815 1590 L -2799.5917 1595.1331 L -2786.0917 1600.6331 L -2773.0917 1607.6331 L -2761 1615 L -2752 1621 L -2736.5917 1630.6331 L -2718 1644 L -2706 1657 L -2696 1668 L -2684 1680 L -2673.5917 1694.1331 L -2662 1711 L -2655 1722 L -2649.5917 1733.1331 L -2645.5917 1742.6331 L -2642.0917 1746.1331 L -2638.5917 1745.6331 L -2609.5917 1734.6331 L -2609.0917 1727.6331 L -2623.5917 1707.6331 L -2635.5917 1691.1331 L -2644.5917 1680.6331 L -2656 1669 L -2665 1659 L -2676 1648 L -2689.5917 1635.6331 L -2703 1626 L -2719 1617 L -2735 1608 L -2753 1599 L -2768 1591 L -2785.5917 1583.1331 L -2804 1578 L -2826 1573 L -2839 1571 L -2859 1569 L -2884 1568 L -2906 1568 L -2931 1568 L -2946 1571 L -2960 1573 Z" stroke="white" stroke-linecap="round" stroke-linejoin="round" stroke-width="1"/>
      <path d="M -2945 2077 L -2942.5 2072.5 L -2939 2069 L -2916 2035 L -2881 1979.5 L -2871 1964 L -2864 1950 L -2860 1943.5 L -2857 1934 L -2851 1930 L -2837 1904 L -2825 1883 L -2811 1862 L -2801 1851 L -2791 1843 L -2775 1833 L -2758 1826 L -2737 1820 L -2713 1813 L -2694 1808 L -2675.5 1804 L -2662 1801.5 L -2648 1800 L -2630.5 1801.5 L -2627 1800 L -2627 1795 L -2636 1775 L -2642 1762 L -2645.5 1754.5 L -2647 1749 L -2645 1744 L -2639 1739 L -2627 1733 L -2618 1731 L -2611.5 1731 L -2606 1733 L -2602 1736 L -2598 1745 L -2590 1762 L -2583 1777 L -2581 1790 L -2568 1790 L -2576 1769.5 L -2581.5 1757 L -2586 1746 L -2583 1742 L -2575 1737 L -2565 1733 L -2558 1733 L -2554.5 1737 L -2546.5 1755 L -2536 1777 L -2528.5 1794 L -2522 1812 L -2521.5 1818 L -2524 1824 L -2528.5 1826 L -2540.5 1827 L -2549 1827 L -2554 1825.5 L -2558 1823 L -2565 1812 L -2569 1809 L -2577 1810 L -2581 1818 L -2592 1828 L -2611 1827 L -2623 1825 L -2629 1822.5 L -2630.5 1822.5 L -2638 1820 L -2658 1823 L -2691 1831 L -2709 1834 L -2737 1842 L -2753 1847 L -2768 1853.5 L -2776 1858.5 L -2789.5 1873.5 L -2802.5 1892 L -2811 1907 L -2821 1926 L -2830 1943 L -2840 1959 L -2852 1981 L -2862 1999 L -2844 2007 L -2824 2020 L -2812 2033 L -2810 2040.5 L -2812.5 2049 L -2817 2058 L -2821.5 2063.5 L -2824.5 2066.5 L -2829 2069.5 L -2839 2073 L -2843.5 2074 L -2846.5 2073 L -2849.5 2071.5 L -2859 2066.5 L -2876 2057 L -2892.5 2047.5 L -2896 2049 L -2908 2065 L -2910 2068.5 L -2911 2071.5 L -2908 2073 L -2902.5 2073.5 L -2884 2075 L -2867.5 2078 L -2848 2081 L -2831 2083 L -2800 2089 L -2760 2097 L -2710 2103 L -2672 2106 L -2634.5 2103 L -2594 2098 L -2553 2093 L -2500 2084 L -2470 2079 L -2446 2075 L -2418.5 2068.5 L -2401 2060.5 L -2400 2070.5 L -2394 2081 L -2400 2085 L -2421.5 2090 L -2440 2093.5 L -2467 2101.5 L -2490.5 2106.5 L -2521 2112 L -2544.5 2115.5 L -2566 2117.5 L -2593 2121 L -2622 2124 L -2651 2126 L -2639 2147 L -2634 2156 L -2629 2166 L -2620 2174 L -2608 2183 L -2590 2191 L -2573 2198 L -2554 2202 L -2538 2203 L -2520 2203 L -2493 2200 L -2473 2197 L -2458.5 2193.5 L -2452 2191 L -2446.5 2187.5 L -2447 2178 L -2448.5 2156 L -2451.5 2135.5 L -2455.5 2117.5 L -2457.5 2106 L -2459.5 2098.5 L -2459.2 2098.6 L -2440 2093.5 L -2437 2109.5 L -2434 2125.5 L -2432 2136.5 L -2430 2147 L -2429 2163 L -2428 2185 L -2423 2186.5 L -2414 2185 L -2392.5 2179 L -2384.5 2171.5 L -2383 2160.5 L -2384.5 2150.5 L -2386 2133 L -2389.5 2115 L -2391.5 2099 L -2393.5 2090.5 L -2395 2083 L -2394.5 2082.5 L -2377 2076.5 L -2374 2086.5 L -2371 2103 L -2367.5 2125.5 L -2366 2147 L -2366 2159.5 L -2366 2168.5 L -2367 2180.5 L -2369.5 2186 L -2375 2192 L -2384 2197 L -2404 2201 L -2433 2207 L -2456 2212 L -2476 2217 L -2502 2221 L -2526 2223 L -2543 2223 L -2558 2221 L -2573 2218 L -2586 2214 L -2600 2208 L -2612 2203 L -2624 2197 L -2635 2190 L -2643 2183 L -2651 2172 L -2661 2157 L -2672 2138 L -2675 2129 L -2707 2126 L -2756 2119 L -2794 2112 L -2837 2104 L -2872 2097 L -2905 2093 L -2930 2091 L -2940 2089 L -2943.5 2083.5 Z" fill="#007500"/>
      <path d="M -2945 2077 L -2942.5 2072.5 L -2939 2069 L -2916 2035 L -2881 1979.5 L -2871 1964 L -2864 1950 L -2860 1943.5 L -2857 1934 L -2851 1930 L -2837 1904 L -2825 1883 L -2811 1862 L -2801 1851 L -2791 1843 L -2775 1833 L -2758 1826 L -2737 1820 L -2713 1813 L -2694 1808 L -2675.5 1804 L -2662 1801.5 L -2648 1800 L -2630.5 1801.5 L -2627 1800 L -2627 1795 L -2636 1775 L -2642 1762 L -2645.5 1754.5 L -2647 1749 L -2645 1744 L -2639 1739 L -2627 1733 L -2618 1731 L -2611.5 1731 L -2606 1733 L -2602 1736 L -2598 1745 L -2590 1762 L -2583 1777 L -2581 1790 L -2568 1790 L -2576 1769.5 L -2581.5 1757 L -2586 1746 L -2583 1742 L -2575 1737 L -2565 1733 L -2558 1733 L -2554.5 1737 L -2546.5 1755 L -2536 1777 L -2528.5 1794 L -2522 1812 L -2521.5 1818 L -2524 1824 L -2528.5 1826 L -2540.5 1827 L -2549 1827 L -2554 1825.5 L -2558 1823 L -2565 1812 L -2569 1809 L -2577 1810 L -2581 1818 L -2592 1828 L -2611 1827 L -2623 1825 L -2629 1822.5 L -2630.5 1822.5 L -2638 1820 L -2658 1823 L -2691 1831 L -2709 1834 L -2737 1842 L -2753 1847 L -2768 1853.5 L -2776 1858.5 L -2789.5 1873.5 L -2802.5 1892 L -2811 1907 L -2821 1926 L -2830 1943 L -2840 1959 L -2852 1981 L -2862 1999 L -2844 2007 L -2824 2020 L -2812 2033 L -2810 2040.5 L -2812.5 2049 L -2817 2058 L -2821.5 2063.5 L -2824.5 2066.5 L -2829 2069.5 L -2839 2073 L -2843.5 2074 L -2846.5 2073 L -2849.5 2071.5 L -2859 2066.5 L -2876 2057 L -2892.5 2047.5 L -2896 2049 L -2908 2065 L -2910 2068.5 L -2911 2071.5 L -2908 2073 L -2902.5 2073.5 L -2884 2075 L -2867.5 2078 L -2848 2081 L -2831 2083 L -2800 2089 L -2760 2097 L -2710 2103 L -2672 2106 L -2634.5 2103 L -2594 2098 L -2553 2093 L -2500 2084 L -2470 2079 L -2446 2075 L -2418.5 2068.5 L -2401 2060.5 L -2400 2070.5 L -2394 2081 L -2400 2085 L -2421.5 2090 L -2440 2093.5 L -2467 2101.5 L -2490.5 2106.5 L -2521 2112 L -2544.5 2115.5 L -2566 2117.5 L -2593 2121 L -2622 2124 L -2651 2126 L -2639 2147 L -2634 2156 L -2629 2166 L -2620 2174 L -2608 2183 L -2590 2191 L -2573 2198 L -2554 2202 L -2538 2203 L -2520 2203 L -2493 2200 L -2473 2197 L -2458.5 2193.5 L -2452 2191 L -2446.5 2187.5 L -2447 2178 L -2448.5 2156 L -2451.5 2135.5 L -2455.5 2117.5 L -2457.5 2106 L -2459.5 2098.5 L -2459.2 2098.6 L -2440 2093.5 L -2437 2109.5 L -2434 2125.5 L -2432 2136.5 L -2430 2147 L -2429 2163 L -2428 2185 L -2423 2186.5 L -2414 2185 L -2392.5 2179 L -2384.5 2171.5 L -2383 2160.5 L -2384.5 2150.5 L -2386 2133 L -2389.5 2115 L -2391.5 2099 L -2393.5 2090.5 L -2395 2083 L -2394.5 2082.5 L -2377 2076.5 L -2374 2086.5 L -2371 2103 L -2367.5 2125.5 L -2366 2147 L -2366 2159.5 L -2366 2168.5 L -2367 2180.5 L -2369.5 2186 L -2375 2192 L -2384 2197 L -2404 2201 L -2433 2207 L -2456 2212 L -2476 2217 L -2502 2221 L -2526 2223 L -2543 2223 L -2558 2221 L -2573 2218 L -2586 2214 L -2600 2208 L -2612 2203 L -2624 2197 L -2635 2190 L -2643 2183 L -2651 2172 L -2661 2157 L -2672 2138 L -2675 2129 L -2707 2126 L -2756 2119 L -2794 2112 L -2837 2104 L -2872 2097 L -2905 2093 L -2930 2091 L -2940 2089 L -2943.5 2083.5 Z" stroke="black" stroke-linecap="round" stroke-linejoin="round" stroke-width="1"/>
      <path d="M -3124 1792 L -2813 1625 L -3080 1774 L -3067 1892 L -3153 1942 L -3154 1919 L -3111 1893 Z" fill="#008400"/>
      <path d="M -3124 1792 L -2813 1625 L -3080 1774 L -3067 1892 L -3153 1942 L -3154 1919 L -3111 1893 Z" stroke="gray" stroke-linecap="round" stroke-linejoin="round" stroke-width=".25"/>
      <path d="M -3063.6 1790.4 L -2992.6 1751.4 L -2989.1 1771.4 L -3021.6 1789.4 L -3018.6 1806.4 L -2988.1 1787.9 L -2985.6 1808.4 L -3017.6 1826.4 L -3015.1 1841.9 L -2968.6 1816.4 L -2965.6 1835.9 L -3052.6 1883.4 Z" fill="#008400"/>
      <path d="M -3063.6 1790.4 L -2992.6 1751.4 L -2989.1 1771.4 L -3021.6 1789.4 L -3018.6 1806.4 L -2988.1 1787.9 L -2985.6 1808.4 L -3017.6 1826.4 L -3015.1 1841.9 L -2968.6 1816.4 L -2965.6 1835.9 L -3052.6 1883.4 Z" stroke="gray" stroke-linecap="round" stroke-linejoin="round" stroke-width=".25"/>
      <path d="M -2983.6 1745.9 L -2903.6 1701.4 L -2901.6 1722.9 L -2921.1 1733.9 L -2911.6 1805.9 L -2951.1 1827.9 L -2960.1 1755.9 L -2981.1 1767.4 Z" fill="#008700"/>
      <path d="M -2983.6 1745.9 L -2903.6 1701.4 L -2901.6 1722.9 L -2921.1 1733.9 L -2911.6 1805.9 L -2951.1 1827.9 L -2960.1 1755.9 L -2981.1 1767.4 Z" stroke="gray" stroke-linecap="round" stroke-linejoin="round" stroke-width=".25"/>
      <path d="M -2893.6 1695.4 L -2827.1 1658.4 L -2825.1 1680.9 L -2867.1 1704.4 L -2825.1 1701.4 L -2823.1 1702.9 L -2820.6 1705.9 L -2814.6 1746.4 L -2816.1 1750.9 L -2818.1 1754.9 L -2896.1 1797.9 L -2898.6 1776.9 L -2847.6 1747.4 L -2880.1 1749.9 L -2885.6 1749.4 L -2888.1 1746.9 L -2889.1 1744.4 L -2895.1 1704.4 L -2895.6 1699.9 L -2895.6 1697.4 Z" fill="#008600"/>
      <path d="M -2893.6 1695.4 L -2827.1 1658.4 L -2825.1 1680.9 L -2867.1 1704.4 L -2825.1 1701.4 L -2823.1 1702.9 L -2820.6 1705.9 L -2814.6 1746.4 L -2816.1 1750.9 L -2818.1 1754.9 L -2896.1 1797.9 L -2898.6 1776.9 L -2847.6 1747.4 L -2880.1 1749.9 L -2885.6 1749.4 L -2888.1 1746.9 L -2889.1 1744.4 L -2895.1 1704.4 L -2895.6 1699.9 L -2895.6 1697.4 Z" stroke="gray" stroke-linecap="round" stroke-linejoin="round" stroke-width=".25"/>
    </g>
  </g>
</svg>
