<?xml version="1.0" encoding="UTF-8" standalone="no"?>
<!DOCTYPE svg PUBLIC "-//W3C//DTD SVG 1.1//EN" "http://www.w3.org/Graphics/SVG/1.1/DTD/svg11.dtd">
<svg xmlns:dc="http://purl.org/dc/elements/1.1/" xmlns:xl="http://www.w3.org/1999/xlink" version="1.1" xmlns="http://www.w3.org/2000/svg" viewBox="-3808 1482 862 660" width="862" height="660">
  <defs>
    <linearGradient x1="0" x2="1" id="Gradient" gradientUnits="userSpaceOnUse">
      <stop offset="0" stop-color="#464646"/>
      <stop offset=".11671402" stop-color="#a2a2a2"/>
      <stop offset="1" stop-color="#f0f0f0"/>
    </linearGradient>
    <linearGradient id="Obj_Gradient" xl:href="#Gradient" gradientTransform="translate(-3331.6138 1742.222) rotate(72) scale(359.227)"/>
  </defs>
  <metadata> Produced by OmniGraffle 7.19.2\n2022-09-09 18:24:24 +0000</metadata>
  <g id="nfc_1" stroke-dasharray="none" fill="none" fill-opacity="1" stroke-opacity="1" stroke="none">
    <title>nfc 1</title>
    <g id="nfc_1_Capa_1">
      <title>Capa 1</title>
      <g id="Group_3">
        <g id="Graphic_12">
          <path d="M -3340 2068.0446 L -3310 2072.0446 L -3279 2066.0446 L -3251 2054.0446 L -3229 2036.0446 L -3217 2016.0446 L -3209 1989.0446 L -3203 1948.0446 L -3215 1905.0446 L -3219 1878.0446 L -3223 1841.0446 L -3217 1817.0446 L -3214 1791.0446 L -3201 1775.0446 L -3184.2203 1766.0446 L -3191.2203 1766.0446 L -3198.2203 1766.0446 L -3212.2203 1768.0446 L -3230.2203 1768.0446 L -3252.2203 1765.0446 L -3248.2203 1754.0446 L -3260.2203 1754.0446 L -3276.2203 1757.0446 L -3289.2203 1762.0446 L -3302.2203 1766.0446 L -3309.2203 1770.0446 L -3317.2203 1774.0446 L -3333.2203 1780.0446 L -3344.2203 1798.0446 L -3352.2203 1808.0446 L -3361.2203 1825.0446 L -3368 1852.0446 L -3368 1892.0446 L -3360.2203 1928.0446 L -3349 1963.0446 L -3334 1986.0446 L -3333.7203 1993.0446 L -3334.2203 2004.0446 L -3334.2203 2013.5446 L -3333.7203 2021.0446 L -3335 2029.0446 L -3334.7203 2042.5446 L -3338 2056.0446 L -3341.2203 2061.5446 L -3346 2067.0446 Z" fill="url(#Obj_Gradient)"/>
          <path d="M -3340 2068.0446 L -3310 2072.0446 L -3279 2066.0446 L -3251 2054.0446 L -3229 2036.0446 L -3217 2016.0446 L -3209 1989.0446 L -3203 1948.0446 L -3215 1905.0446 L -3219 1878.0446 L -3223 1841.0446 L -3217 1817.0446 L -3214 1791.0446 L -3201 1775.0446 L -3184.2203 1766.0446 L -3191.2203 1766.0446 L -3198.2203 1766.0446 L -3212.2203 1768.0446 L -3230.2203 1768.0446 L -3252.2203 1765.0446 L -3248.2203 1754.0446 L -3260.2203 1754.0446 L -3276.2203 1757.0446 L -3289.2203 1762.0446 L -3302.2203 1766.0446 L -3309.2203 1770.0446 L -3317.2203 1774.0446 L -3333.2203 1780.0446 L -3344.2203 1798.0446 L -3352.2203 1808.0446 L -3361.2203 1825.0446 L -3368 1852.0446 L -3368 1892.0446 L -3360.2203 1928.0446 L -3349 1963.0446 L -3334 1986.0446 L -3333.7203 1993.0446 L -3334.2203 2004.0446 L -3334.2203 2013.5446 L -3333.7203 2021.0446 L -3335 2029.0446 L -3334.7203 2042.5446 L -3338 2056.0446 L -3341.2203 2061.5446 L -3346 2067.0446 Z" stroke="black" stroke-linecap="round" stroke-linejoin="round" stroke-width="3"/>
        </g>
        <g id="Graphic_11">
          <path d="M -3751 2011 L -3753 2017 L -3758 2020 L -3751 2038 L -3743 2052 L -3739 2065 L -3735 2074 L -3734 2092 L -3729 2105 L -3717 2113 L -3706 2115 L -3689 2117 L -3676 2115 L -3663 2111 L -3649 2108 L -3637 2103 L -3629 2099 L -3621 2092 L -3614 2084 L -3603 2092 L -3592 2100 L -3578 2109 L -3563 2117 L -3545 2124 L -3526 2129 L -3507 2135 L -3487 2138 L -3467 2141 L -3445 2140 L -3428 2136 L -3406 2130 L -3387 2119 L -3374 2112 L -3361 2097 L -3351 2074 L -3338 2058.5 L -3335 2045 L -3333.5 2017 L -3333 1987.5 L -3348 1962 L -3357 1938 L -3367 1901 L -3369 1868 L -3365 1835 L -3350 1804 L -3332 1781 L -3299 1765 L -3271 1755 L -3249 1755 L -3249 1760 L -3252 1765 L -3230 1767 L -3205 1767 L -3181 1765 L -3175 1768 L -3160 1770 L -3148 1763 L -3145 1741 L -3145 1718 L -3160 1679 L -3169 1659 L -3181 1642 L -3197 1615 L -3231 1579 L -3261 1553 L -3291 1531 L -3324 1514 L -3359 1499 L -3393 1490 L -3418 1486 L -3444 1484 L -3472 1483 L -3496 1483 L -3525 1485 L -3552 1491 L -3580 1498 L -3606 1506 L -3619 1512 L -3636 1519 L -3657 1531 L -3685 1549 L -3706 1567 L -3727 1590 L -3744 1611 L -3758 1632 L -3772 1659 L -3785 1687 L -3794 1716 L -3801 1743 L -3807 1785 L -3806 1822 L -3802 1858 L -3795 1898 L -3783 1936 L -3769 1970 L -3757 1997 Z" fill="#003469"/>
          <path d="M -3751 2011 L -3753 2017 L -3758 2020 L -3751 2038 L -3743 2052 L -3739 2065 L -3735 2074 L -3734 2092 L -3729 2105 L -3717 2113 L -3706 2115 L -3689 2117 L -3676 2115 L -3663 2111 L -3649 2108 L -3637 2103 L -3629 2099 L -3621 2092 L -3614 2084 L -3603 2092 L -3592 2100 L -3578 2109 L -3563 2117 L -3545 2124 L -3526 2129 L -3507 2135 L -3487 2138 L -3467 2141 L -3445 2140 L -3428 2136 L -3406 2130 L -3387 2119 L -3374 2112 L -3361 2097 L -3351 2074 L -3338 2058.5 L -3335 2045 L -3333.5 2017 L -3333 1987.5 L -3348 1962 L -3357 1938 L -3367 1901 L -3369 1868 L -3365 1835 L -3350 1804 L -3332 1781 L -3299 1765 L -3271 1755 L -3249 1755 L -3249 1760 L -3252 1765 L -3230 1767 L -3205 1767 L -3181 1765 L -3175 1768 L -3160 1770 L -3148 1763 L -3145 1741 L -3145 1718 L -3160 1679 L -3169 1659 L -3181 1642 L -3197 1615 L -3231 1579 L -3261 1553 L -3291 1531 L -3324 1514 L -3359 1499 L -3393 1490 L -3418 1486 L -3444 1484 L -3472 1483 L -3496 1483 L -3525 1485 L -3552 1491 L -3580 1498 L -3606 1506 L -3619 1512 L -3636 1519 L -3657 1531 L -3685 1549 L -3706 1567 L -3727 1590 L -3744 1611 L -3758 1632 L -3772 1659 L -3785 1687 L -3794 1716 L -3801 1743 L -3807 1785 L -3806 1822 L -3802 1858 L -3795 1898 L -3783 1936 L -3769 1970 L -3757 1997 Z" stroke="black" stroke-linecap="round" stroke-linejoin="round" stroke-width="2"/>
        </g>
        <g id="Graphic_10">
          <path d="M -3438.6 1866.5 L -3441.2 1862.1 L -3442 1857.1 L -3441.8 1855.5 L -3441 1854.1 L -3439.9 1851.7 L -3438.4 1849.3 L -3436.6 1846.5 L -3432.8 1844.9 L -3428 1845.7 L -3422.8 1850.3 L -3419.4 1854.7 L -3412.4 1866.7 L -3403.4 1877.7 L -3393.4 1888.7 L -3382.4 1901.7 L -3370.9 1911.2 L -3358.9 1921.7 L -3349.9 1926.2 L -3339.9 1929.7 L -3329.4 1933.7 L -3318.9 1936.2 L -3309.9 1937.2 L -3303.4 1938.2 L -3314.4 1914.7 L -3324.4 1893.2 L -3331.4 1877.7 L -3342.9 1853.2 L -3349.4 1836.7 L -3358.4 1817.7 L -3370.9 1796.2 L -3382.9 1779.7 L -3387 1774.1 L -3387 1770.9 L -3383.6 1766.5 L -3380.4 1763.3 L -3377 1760.3 L -3373.2 1758.5 L -3369.4 1759.7 L -3367.4 1761.7 L -3352.4 1783.7 L -3340.4 1810.7 L -3328.4 1835.7 L -3278.4 1940.7 L -3242.4 1938.7 L -3206.4 1936.7 L -3175.4 1931.7 L -3144.4 1927.7 L -3138 1925 L -3149.5 1890 L -3162.5 1862 L -3172.4 1838.7 L -3193.4 1792.7 L -3200 1776.5 L -3202 1770.5 L -3201 1767.5 L -3198.5 1766.5 L -3179.5 1765 L -3176 1767 L -3167 1790.5 L -3152 1831.5 L -3125.4 1898.7 L -3118 1921.5 L -3088 1916.5 L -3031 1909 L -3016 1903.5 L -3005.5 1894 L -2999 1895 L -2991.4 1898.7 L -2979.4 1910.7 L -2969.4 1946.7 L -2961.4 1972.7 L -2957.4 1991.7 L -2977.4 1997.2 L -2977.5 1993 L -2987.4 1968.7 L -2994.4 1942.7 L -2997.9 1928.7 L -3000.4 1925.2 L -3006.9 1924.2 L -3028.4 1927.7 L -3041.4 1928.7 L -3045.4 1929.7 L -3040.4 1938.7 L -3036.4 1950.7 L -3030.9 1972.2 L -3026.9 1989.2 L -3045.9 1993.2 L -3054.4 1960.7 L -3061.4 1941.7 L -3064.9 1935.7 L -3070.4 1933.7 L -3114.4 1940.7 L -3158.4 1944.7 L -3202.4 1951.7 L -3242.4 1954.7 L -3263.4 1955.7 L -3267.4 1955.7 L -3270.4 1957.7 L -3269.9 1962.2 L -3238.9 2019.7 L -3263.4 2020.2 L -3266.4 2019.2 L -3272.9 2006.7 L -3279.4 1992.2 L -3285.9 1977.7 L -3290.4 1965.7 L -3293.9 1959.7 L -3295.9 1956.7 L -3299.9 1955.2 L -3307.4 1954.2 L -3319.4 1952.7 L -3333.4 1949.7 L -3356.4 1942.7 L -3368.9 1936.7 L -3381.4 1928.7 L -3399.4 1913.7 L -3414.9 1895.7 L -3425.4 1883.7 Z" fill="white"/>
          <path d="M -3438.6 1866.5 L -3441.2 1862.1 L -3442 1857.1 L -3441.8 1855.5 L -3441 1854.1 L -3439.9 1851.7 L -3438.4 1849.3 L -3436.6 1846.5 L -3432.8 1844.9 L -3428 1845.7 L -3422.8 1850.3 L -3419.4 1854.7 L -3412.4 1866.7 L -3403.4 1877.7 L -3393.4 1888.7 L -3382.4 1901.7 L -3370.9 1911.2 L -3358.9 1921.7 L -3349.9 1926.2 L -3339.9 1929.7 L -3329.4 1933.7 L -3318.9 1936.2 L -3309.9 1937.2 L -3303.4 1938.2 L -3314.4 1914.7 L -3324.4 1893.2 L -3331.4 1877.7 L -3342.9 1853.2 L -3349.4 1836.7 L -3358.4 1817.7 L -3370.9 1796.2 L -3382.9 1779.7 L -3387 1774.1 L -3387 1770.9 L -3383.6 1766.5 L -3380.4 1763.3 L -3377 1760.3 L -3373.2 1758.5 L -3369.4 1759.7 L -3367.4 1761.7 L -3352.4 1783.7 L -3340.4 1810.7 L -3328.4 1835.7 L -3278.4 1940.7 L -3242.4 1938.7 L -3206.4 1936.7 L -3175.4 1931.7 L -3144.4 1927.7 L -3138 1925 L -3149.5 1890 L -3162.5 1862 L -3172.4 1838.7 L -3193.4 1792.7 L -3200 1776.5 L -3202 1770.5 L -3201 1767.5 L -3198.5 1766.5 L -3179.5 1765 L -3176 1767 L -3167 1790.5 L -3152 1831.5 L -3125.4 1898.7 L -3118 1921.5 L -3088 1916.5 L -3031 1909 L -3016 1903.5 L -3005.5 1894 L -2999 1895 L -2991.4 1898.7 L -2979.4 1910.7 L -2969.4 1946.7 L -2961.4 1972.7 L -2957.4 1991.7 L -2977.4 1997.2 L -2977.5 1993 L -2987.4 1968.7 L -2994.4 1942.7 L -2997.9 1928.7 L -3000.4 1925.2 L -3006.9 1924.2 L -3028.4 1927.7 L -3041.4 1928.7 L -3045.4 1929.7 L -3040.4 1938.7 L -3036.4 1950.7 L -3030.9 1972.2 L -3026.9 1989.2 L -3045.9 1993.2 L -3054.4 1960.7 L -3061.4 1941.7 L -3064.9 1935.7 L -3070.4 1933.7 L -3114.4 1940.7 L -3158.4 1944.7 L -3202.4 1951.7 L -3242.4 1954.7 L -3263.4 1955.7 L -3267.4 1955.7 L -3270.4 1957.7 L -3269.9 1962.2 L -3238.9 2019.7 L -3263.4 2020.2 L -3266.4 2019.2 L -3272.9 2006.7 L -3279.4 1992.2 L -3285.9 1977.7 L -3290.4 1965.7 L -3293.9 1959.7 L -3295.9 1956.7 L -3299.9 1955.2 L -3307.4 1954.2 L -3319.4 1952.7 L -3333.4 1949.7 L -3356.4 1942.7 L -3368.9 1936.7 L -3381.4 1928.7 L -3399.4 1913.7 L -3414.9 1895.7 L -3425.4 1883.7 Z" stroke="black" stroke-linecap="round" stroke-linejoin="round" stroke-width="3"/>
        </g>
        <g id="Graphic_9">
          <path d="M -3202.6236 1963.5 L -3204.6236 1981.5 L -3170.6236 1986.5 L -3139.6236 1991.5 L -3118.6236 1994 L -3114.6236 1994 L -3107.6236 1996 L -3104.6236 1999.5 L -3098.1236 2023 L -3088.1236 2043.5 L -3084.1236 2052.5 L -3077.1236 2057.5 L -3072.1236 2061.5 L -3060.1236 2068.5 L -3056.1236 2071.5 L -3045.1236 2076.5 L -3020.1236 2086.5 L -2994.6236 2097.5 L -2967.6236 2110.5 L -2964.1236 2112 L -2956.6236 2108.5 L -2952.6236 2104 L -2949.6236 2100 L -2949.1236 2094 L -2965.6236 2088.5 L -2987.1236 2079.5 L -3011.6236 2067.5 L -3035.1236 2058.5 L -3050.1236 2051.5 L -3063.1236 2043.5 L -3068.1236 2034.5 L -3073.1236 2024.5 L -3081.1236 1999.5 L -3007.6236 1987.5 L -2983.1236 1977.5 L -2987.1236 1970.5 L -3017.1236 1973.5 L -3058.6236 1975.5 L -3083.6236 1975.5 L -3091.1236 1976 L -3094.1236 1972.5 L -3096.6236 1964.5 L -3113.6236 1919.5 L -3048.1236 1910 L -3016.6236 1904.5 L -3004.6236 1895.5 L -3043.2665 1896.8571 L -3080.2665 1897.3571 L -3109.6236 1897.5 L -3125.6236 1899 L -3175.6236 1769 L -3180.6236 1766 L -3200.1236 1768 L -3201.6236 1772.5 L -3182.1236 1817 L -3166.6236 1850.5 L -3156.6236 1874.5 L -3147.6236 1896 L -3159.6236 1891.5 L -3168.1236 1887.5 L -3175.6236 1878.5 L -3192.6236 1860.5 L -3202.6236 1846.5 L -3219.6236 1825.5 L -3223 1842.5 L -3220.5 1860.5 L -3204.6236 1879.5 L -3187.6236 1899.5 L -3166.6236 1911.5 L -3140.6236 1917.5 L -3114.6236 1974.5 L -3165.6236 1966.5 Z" fill="white"/>
          <path d="M -3202.6236 1963.5 L -3204.6236 1981.5 L -3170.6236 1986.5 L -3139.6236 1991.5 L -3118.6236 1994 L -3114.6236 1994 L -3107.6236 1996 L -3104.6236 1999.5 L -3098.1236 2023 L -3088.1236 2043.5 L -3084.1236 2052.5 L -3077.1236 2057.5 L -3072.1236 2061.5 L -3060.1236 2068.5 L -3056.1236 2071.5 L -3045.1236 2076.5 L -3020.1236 2086.5 L -2994.6236 2097.5 L -2967.6236 2110.5 L -2964.1236 2112 L -2956.6236 2108.5 L -2952.6236 2104 L -2949.6236 2100 L -2949.1236 2094 L -2965.6236 2088.5 L -2987.1236 2079.5 L -3011.6236 2067.5 L -3035.1236 2058.5 L -3050.1236 2051.5 L -3063.1236 2043.5 L -3068.1236 2034.5 L -3073.1236 2024.5 L -3081.1236 1999.5 L -3007.6236 1987.5 L -2983.1236 1977.5 L -2987.1236 1970.5 L -3017.1236 1973.5 L -3058.6236 1975.5 L -3083.6236 1975.5 L -3091.1236 1976 L -3094.1236 1972.5 L -3096.6236 1964.5 L -3113.6236 1919.5 L -3048.1236 1910 L -3016.6236 1904.5 L -3004.6236 1895.5 L -3043.2665 1896.8571 L -3080.2665 1897.3571 L -3109.6236 1897.5 L -3125.6236 1899 L -3175.6236 1769 L -3180.6236 1766 L -3200.1236 1768 L -3201.6236 1772.5 L -3182.1236 1817 L -3166.6236 1850.5 L -3156.6236 1874.5 L -3147.6236 1896 L -3159.6236 1891.5 L -3168.1236 1887.5 L -3175.6236 1878.5 L -3192.6236 1860.5 L -3202.6236 1846.5 L -3219.6236 1825.5 L -3223 1842.5 L -3220.5 1860.5 L -3204.6236 1879.5 L -3187.6236 1899.5 L -3166.6236 1911.5 L -3140.6236 1917.5 L -3114.6236 1974.5 L -3165.6236 1966.5 Z" stroke="black" stroke-linecap="round" stroke-linejoin="round" stroke-width="3"/>
        </g>
        <g id="Graphic_8">
          <path d="M -3550 1982 L -3527 1949 L -3525.8 1940.2 L -3527 1935.8 L -3528.8 1930.4 L -3531.2 1925.8 L -3534 1920.8 L -3538 1917 L -3542.8 1913.6 L -3550 1910 L -3559.4 1906.8 L -3565.4 1905.8 L -3572 1906 L -3575 1906.4 L -3578 1907.5 L -3584 1910 L -3590.5 1914 L -3593 1916.5 L -3596 1920 L -3599 1928 L -3600.2 1936 L -3600.4 1941.2 L -3600.4 1946.4 L -3599.6 1951.4 L -3599 1955.2 L -3597.6 1960.2 L -3596.2 1963.8 L -3593.8 1966.8 L -3591.4 1970.2 L -3588.8 1972.4 L -3586 1975.2 L -3581.2 1978 L -3576 1981 L -3569.2 1982.8 L -3562 1983 Z" fill="white"/>
          <path d="M -3550 1982 L -3527 1949 L -3525.8 1940.2 L -3527 1935.8 L -3528.8 1930.4 L -3531.2 1925.8 L -3534 1920.8 L -3538 1917 L -3542.8 1913.6 L -3550 1910 L -3559.4 1906.8 L -3565.4 1905.8 L -3572 1906 L -3575 1906.4 L -3578 1907.5 L -3584 1910 L -3590.5 1914 L -3593 1916.5 L -3596 1920 L -3599 1928 L -3600.2 1936 L -3600.4 1941.2 L -3600.4 1946.4 L -3599.6 1951.4 L -3599 1955.2 L -3597.6 1960.2 L -3596.2 1963.8 L -3593.8 1966.8 L -3591.4 1970.2 L -3588.8 1972.4 L -3586 1975.2 L -3581.2 1978 L -3576 1981 L -3569.2 1982.8 L -3562 1983 Z" stroke="black" stroke-linecap="round" stroke-linejoin="round" stroke-width="2"/>
        </g>
        <g id="Graphic_7">
          <path d="M -3527 1992 L -3524.5 1987.5 L -3521 1984 L -3498 1950 L -3463 1894.5 L -3453 1879 L -3446 1865 L -3442 1858.5 L -3439 1849 L -3433 1845 L -3419 1819 L -3407 1798 L -3393 1777 L -3383 1766 L -3373 1758 L -3357 1748 L -3340 1741 L -3319 1735 L -3295 1728 L -3276 1723 L -3257.5 1719 L -3244 1716.5 L -3230 1715 L -3212.5 1716.5 L -3209 1715 L -3209 1710 L -3218 1690 L -3224 1677 L -3227.5 1669.5 L -3229 1664 L -3227 1659 L -3221 1654 L -3209 1648 L -3200 1646 L -3193.5 1646 L -3188 1648 L -3184 1651 L -3180 1660 L -3172 1677 L -3165 1692 L -3163 1705 L -3150 1705 L -3158 1684.5 L -3163.5 1672 L -3168 1661 L -3165 1657 L -3157 1652 L -3147 1648 L -3140 1648 L -3136.5 1652 L -3128.5 1670 L -3118 1692 L -3110.5 1709 L -3104 1727 L -3103.5 1733 L -3106 1739 L -3110.5 1741 L -3122.5 1742 L -3131 1742 L -3136 1740.5 L -3140 1738 L -3147 1727 L -3151 1724 L -3159 1725 L -3163 1733 L -3174 1743 L -3193 1742 L -3205 1740 L -3211 1737.5 L -3212.5 1737.5 L -3220 1735 L -3240 1738 L -3273 1746 L -3291 1749 L -3319 1757 L -3335 1762 L -3350 1768.5 L -3358 1773.5 L -3371.5 1788.5 L -3384.5 1807 L -3393 1822 L -3403 1841 L -3412 1858 L -3422 1874 L -3434 1896 L -3444 1914 L -3426 1922 L -3406 1935 L -3394 1948 L -3392 1955.5 L -3394.5 1964 L -3399 1973 L -3403.5 1978.5 L -3406.5 1981.5 L -3411 1984.5 L -3421 1988 L -3425.5 1989 L -3428.5 1988 L -3431.5 1986.5 L -3441 1981.5 L -3458 1972 L -3474.5 1962.5 L -3478 1964 L -3490 1980 L -3492 1983.5 L -3493 1986.5 L -3490 1988 L -3484.5 1988.5 L -3466 1990 L -3449.5 1993 L -3430 1996 L -3413 1998 L -3382 2004 L -3342 2012 L -3292 2018 L -3254 2021 L -3216.5 2018 L -3176 2013 L -3135 2008 L -3082 1999 L -3052 1994 L -3028 1990 L -3000.5 1983.5 L -2983 1975.5 L -2982 1985.5 L -2976 1996 L -2982 2e3 L -3003.5 2005 L -3022 2008.5 L -3049 2016.5 L -3072.5 2021.5 L -3103 2027 L -3126.5 2030.5 L -3148 2032.5 L -3175 2036 L -3204 2039 L -3233 2041 L -3221 2062 L -3216 2071 L -3211 2081 L -3202 2089 L -3190 2098 L -3172 2106 L -3155 2113 L -3136 2117 L -3120 2118 L -3102 2118 L -3075 2115 L -3055 2112 L -3040.5 2108.5 L -3034 2106 L -3028.5 2102.5 L -3029 2093 L -3030.5 2071 L -3033.5 2050.5 L -3037.5 2032.5 L -3039.5 2021 L -3041.5 2013.5 L -3041.2 2013.6 L -3022 2008.5 L -3019 2024.5 L -3016 2040.5 L -3014 2051.5 L -3012 2062 L -3011 2078 L -3010 2100 L -3005 2101.5 L -2996 2100 L -2974.5 2094 L -2966.5 2086.5 L -2965 2075.5 L -2966.5 2065.5 L -2968 2048 L -2971.5 2030 L -2973.5 2014 L -2975.5 2005.5 L -2977 1998 L -2976.5 1997.5 L -2959 1991.5 L -2956 2001.5 L -2953 2018 L -2949.5 2040.5 L -2948 2062 L -2948 2074.5 L -2948 2083.5 L -2949 2095.5 L -2951.5 2101 L -2957 2107 L -2966 2112 L -2986 2116 L -3015 2122 L -3038 2127 L -3058 2132 L -3084 2136 L -3108 2138 L -3125 2138 L -3140 2136 L -3155 2133 L -3168 2129 L -3182 2123 L -3194 2118 L -3206 2112 L -3217 2105 L -3225 2098 L -3233 2087 L -3243 2072 L -3254 2053 L -3257 2044 L -3289 2041 L -3338 2034 L -3376 2027 L -3419 2019 L -3454 2012 L -3487 2008 L -3512 2006 L -3522 2004 L -3525.5 1998.5 Z" fill="white"/>
          <path d="M -3527 1992 L -3524.5 1987.5 L -3521 1984 L -3498 1950 L -3463 1894.5 L -3453 1879 L -3446 1865 L -3442 1858.5 L -3439 1849 L -3433 1845 L -3419 1819 L -3407 1798 L -3393 1777 L -3383 1766 L -3373 1758 L -3357 1748 L -3340 1741 L -3319 1735 L -3295 1728 L -3276 1723 L -3257.5 1719 L -3244 1716.5 L -3230 1715 L -3212.5 1716.5 L -3209 1715 L -3209 1710 L -3218 1690 L -3224 1677 L -3227.5 1669.5 L -3229 1664 L -3227 1659 L -3221 1654 L -3209 1648 L -3200 1646 L -3193.5 1646 L -3188 1648 L -3184 1651 L -3180 1660 L -3172 1677 L -3165 1692 L -3163 1705 L -3150 1705 L -3158 1684.5 L -3163.5 1672 L -3168 1661 L -3165 1657 L -3157 1652 L -3147 1648 L -3140 1648 L -3136.5 1652 L -3128.5 1670 L -3118 1692 L -3110.5 1709 L -3104 1727 L -3103.5 1733 L -3106 1739 L -3110.5 1741 L -3122.5 1742 L -3131 1742 L -3136 1740.5 L -3140 1738 L -3147 1727 L -3151 1724 L -3159 1725 L -3163 1733 L -3174 1743 L -3193 1742 L -3205 1740 L -3211 1737.5 L -3212.5 1737.5 L -3220 1735 L -3240 1738 L -3273 1746 L -3291 1749 L -3319 1757 L -3335 1762 L -3350 1768.5 L -3358 1773.5 L -3371.5 1788.5 L -3384.5 1807 L -3393 1822 L -3403 1841 L -3412 1858 L -3422 1874 L -3434 1896 L -3444 1914 L -3426 1922 L -3406 1935 L -3394 1948 L -3392 1955.5 L -3394.5 1964 L -3399 1973 L -3403.5 1978.5 L -3406.5 1981.5 L -3411 1984.5 L -3421 1988 L -3425.5 1989 L -3428.5 1988 L -3431.5 1986.5 L -3441 1981.5 L -3458 1972 L -3474.5 1962.5 L -3478 1964 L -3490 1980 L -3492 1983.5 L -3493 1986.5 L -3490 1988 L -3484.5 1988.5 L -3466 1990 L -3449.5 1993 L -3430 1996 L -3413 1998 L -3382 2004 L -3342 2012 L -3292 2018 L -3254 2021 L -3216.5 2018 L -3176 2013 L -3135 2008 L -3082 1999 L -3052 1994 L -3028 1990 L -3000.5 1983.5 L -2983 1975.5 L -2982 1985.5 L -2976 1996 L -2982 2e3 L -3003.5 2005 L -3022 2008.5 L -3049 2016.5 L -3072.5 2021.5 L -3103 2027 L -3126.5 2030.5 L -3148 2032.5 L -3175 2036 L -3204 2039 L -3233 2041 L -3221 2062 L -3216 2071 L -3211 2081 L -3202 2089 L -3190 2098 L -3172 2106 L -3155 2113 L -3136 2117 L -3120 2118 L -3102 2118 L -3075 2115 L -3055 2112 L -3040.5 2108.5 L -3034 2106 L -3028.5 2102.5 L -3029 2093 L -3030.5 2071 L -3033.5 2050.5 L -3037.5 2032.5 L -3039.5 2021 L -3041.5 2013.5 L -3041.2 2013.6 L -3022 2008.5 L -3019 2024.5 L -3016 2040.5 L -3014 2051.5 L -3012 2062 L -3011 2078 L -3010 2100 L -3005 2101.5 L -2996 2100 L -2974.5 2094 L -2966.5 2086.5 L -2965 2075.5 L -2966.5 2065.5 L -2968 2048 L -2971.5 2030 L -2973.5 2014 L -2975.5 2005.5 L -2977 1998 L -2976.5 1997.5 L -2959 1991.5 L -2956 2001.5 L -2953 2018 L -2949.5 2040.5 L -2948 2062 L -2948 2074.5 L -2948 2083.5 L -2949 2095.5 L -2951.5 2101 L -2957 2107 L -2966 2112 L -2986 2116 L -3015 2122 L -3038 2127 L -3058 2132 L -3084 2136 L -3108 2138 L -3125 2138 L -3140 2136 L -3155 2133 L -3168 2129 L -3182 2123 L -3194 2118 L -3206 2112 L -3217 2105 L -3225 2098 L -3233 2087 L -3243 2072 L -3254 2053 L -3257 2044 L -3289 2041 L -3338 2034 L -3376 2027 L -3419 2019 L -3454 2012 L -3487 2008 L -3512 2006 L -3522 2004 L -3525.5 1998.5 Z" stroke="black" stroke-linecap="round" stroke-linejoin="round" stroke-width="3"/>
        </g>
      </g>
      <g id="Graphic_16">
        <path d="M -3464.8004 1569.8291 C -3374.9913 1576.5307 -3344.823 1641.227 -3397.4174 1714.3323 C -3450.0114 1787.4377 -3565.4516 1841.2683 -3655.2603 1834.5664 C -3745.0694 1827.8649 -3775.2377 1763.1686 -3722.6433 1690.0632 C -3670.0493 1616.9578 -3554.609 1563.1272 -3464.8004 1569.8291" fill="white"/>
        <path d="M -3464.8004 1569.8291 C -3374.9913 1576.5307 -3344.823 1641.227 -3397.4174 1714.3323 C -3450.0114 1787.4377 -3565.4516 1841.2683 -3655.2603 1834.5664 C -3745.0694 1827.8649 -3775.2377 1763.1686 -3722.6433 1690.0632 C -3670.0493 1616.9578 -3554.609 1563.1272 -3464.8004 1569.8291" stroke="white" stroke-linecap="round" stroke-linejoin="round" stroke-width="1"/>
      </g>
      <g id="Graphic_27">
        <path d="M -3689.437 1684.6474 L -3624.1336 1645.1948 L -3543.6063 1667.494 L -3557.4784 1643.6998 L -3568.4224 1645.9916 L -3583.614 1621.0623 L -3516.092 1580.7053 L -3501.435 1605.0989 L -3510.5594 1615.7221 L -3466.4 1686.4 L -3454.2 1686.2 L -3439.4 1708.8 L -3499.995 1744.3182 L -3581.487 1723.2414 L -3566.1965 1749.3963 L -3553.7532 1746.4178 L -3539.446 1769.5221 L -3612.369 1812.9104 L -3626.771 1789.6486 L -3614.6433 1778.7203 L -3659.305 1705.0976 L -3674.9646 1709.7945 Z" fill="#003469"/>
      </g>
      <g id="Graphic_41">
        <path d="M -3638.2577 1666.7654 L -3628.483 1675.0278 L -3617.0463 1668.1559 L -3622.442 1680.1342 L -3612.6674 1688.3966 L -3625.777 1687.5372 L -3631.1725 1699.5156 L -3633.879 1687.0061 L -3646.9882 1686.1468 L -3635.5514 1679.2749 Z" fill="white"/>
      </g>
      <g id="Graphic_40">
        <path d="M -3595.5913 1676.2571 L -3585.8167 1684.5195 L -3574.38 1677.6476 L -3579.7757 1689.6259 L -3570.001 1697.8882 L -3583.1104 1697.029 L -3588.506 1709.0072 L -3591.2124 1696.4978 L -3604.322 1695.6385 L -3592.885 1688.7666 Z" fill="white"/>
      </g>
      <g id="Graphic_39">
        <path d="M -3552.4237 1685.876 L -3542.649 1694.1383 L -3531.2122 1687.2664 L -3536.608 1699.2448 L -3526.8333 1707.5071 L -3539.9427 1706.6478 L -3545.3384 1718.6261 L -3548.0448 1706.1167 L -3561.154 1705.2573 L -3549.7174 1698.3854 Z" fill="white"/>
      </g>
      <g id="Graphic_38">
        <path d="M -3509.19 1696.312 L -3499.4153 1704.5743 L -3487.9785 1697.7024 L -3493.374 1709.6807 L -3483.5996 1717.943 L -3496.709 1717.0837 L -3502.1047 1729.062 L -3504.811 1716.5526 L -3517.9204 1715.6933 L -3506.4836 1708.8214 Z" fill="white"/>
      </g>
    </g>
  </g>
</svg>
