<?xml version="1.0" encoding="UTF-8" standalone="no"?>
<!DOCTYPE svg PUBLIC "-//W3C//DTD SVG 1.1//EN" "http://www.w3.org/Graphics/SVG/1.1/DTD/svg11.dtd">
<svg xmlns="http://www.w3.org/2000/svg" xmlns:xl="http://www.w3.org/1999/xlink" version="1.1" viewBox="-3960.5 1648.5 861.5 661" width="861.5pt" height="661pt" xmlns:dc="http://purl.org/dc/elements/1.1/">
  <metadata> Produced by OmniGraffle 7.6.1 
    <dc:date>2018-09-19 02:13:53 +0000</dc:date>
  </metadata>
  <defs>
    <linearGradient x1="0" x2="1" id="Gradient" gradientUnits="userSpaceOnUse">
      <stop offset="0" stop-color="#464646"/>
      <stop offset="1" stop-color="#f0f0f0"/>
    </linearGradient>
    <linearGradient id="Obj_Gradient" xl:href="#Gradient" gradientTransform="translate(-3483.614 1909.222) rotate(72) scale(359.227)"/>
    <linearGradient x1="0" x2="1" id="Gradient_2" gradientUnits="userSpaceOnUse">
      <stop offset="0" stop-color="#b5814a"/>
      <stop offset="1" stop-color="#61441e"/>
    </linearGradient>
    <linearGradient id="Obj_Gradient_2" xl:href="#Gradient_2" gradientTransform="translate(-3628 1650) rotate(90) scale(658)"/>
  </defs>
  <g stroke="none" stroke-opacity="1" stroke-dasharray="none" fill="none" fill-opacity="1">
    <title>san Francisco </title>
    <g>
      <title>Capa 1</title>
      <path d="M -3492 2235.0446 L -3462 2239.0446 L -3431 2233.0446 L -3403 2221.0446 L -3381 2203.0446 L -3369 2183.0446 L -3361 2156.0446 L -3355 2115.0446 L -3367 2072.0446 L -3371 2045.0446 L -3375 2008.0446 L -3369 1984.0446 L -3366 1958.0446 L -3353 1942.0446 L -3336.2203 1933.0446 L -3343.2203 1933.0446 L -3350.2203 1933.0446 L -3364.2203 1935.0446 L -3382.2203 1935.0446 L -3404.2203 1932.0446 L -3400.2203 1921.0446 L -3412.2203 1921.0446 L -3428.2203 1924.0446 L -3441.2203 1929.0446 L -3454.2203 1933.0446 L -3461.2203 1937.0446 L -3469.2203 1941.0446 L -3485.2203 1947.0446 L -3496.2203 1965.0446 L -3504.2203 1975.0446 L -3513.2203 1992.0446 L -3520 2019.0446 L -3520 2059.0446 L -3512.2203 2095.0446 L -3501 2130.0446 L -3486 2153.0446 L -3485.7203 2160.0446 L -3486.2203 2171.0446 L -3486.2203 2180.5446 L -3485.7203 2188.0446 L -3487 2196.0446 L -3486.7203 2209.5446 L -3490 2223.0446 L -3493.2203 2228.5446 L -3498 2234.0446 Z" fill="url(#Obj_Gradient)"/>
      <path d="M -3492 2235.0446 L -3462 2239.0446 L -3431 2233.0446 L -3403 2221.0446 L -3381 2203.0446 L -3369 2183.0446 L -3361 2156.0446 L -3355 2115.0446 L -3367 2072.0446 L -3371 2045.0446 L -3375 2008.0446 L -3369 1984.0446 L -3366 1958.0446 L -3353 1942.0446 L -3336.2203 1933.0446 L -3343.2203 1933.0446 L -3350.2203 1933.0446 L -3364.2203 1935.0446 L -3382.2203 1935.0446 L -3404.2203 1932.0446 L -3400.2203 1921.0446 L -3412.2203 1921.0446 L -3428.2203 1924.0446 L -3441.2203 1929.0446 L -3454.2203 1933.0446 L -3461.2203 1937.0446 L -3469.2203 1941.0446 L -3485.2203 1947.0446 L -3496.2203 1965.0446 L -3504.2203 1975.0446 L -3513.2203 1992.0446 L -3520 2019.0446 L -3520 2059.0446 L -3512.2203 2095.0446 L -3501 2130.0446 L -3486 2153.0446 L -3485.7203 2160.0446 L -3486.2203 2171.0446 L -3486.2203 2180.5446 L -3485.7203 2188.0446 L -3487 2196.0446 L -3486.7203 2209.5446 L -3490 2223.0446 L -3493.2203 2228.5446 L -3498 2234.0446 Z" stroke="black" stroke-linecap="round" stroke-linejoin="round" stroke-width="3"/>
      <path d="M -3903 2178 L -3905 2184 L -3910 2187 L -3903 2205 L -3895 2219 L -3891 2232 L -3887 2241 L -3886 2259 L -3881 2272 L -3869 2280 L -3858 2282 L -3841 2284 L -3828 2282 L -3815 2278 L -3801 2275 L -3789 2270 L -3781 2266 L -3773 2259 L -3766 2251 L -3755 2259 L -3744 2267 L -3730 2276 L -3715 2284 L -3697 2291 L -3678 2296 L -3659 2302 L -3639 2305 L -3619 2308 L -3597 2307 L -3580 2303 L -3558 2297 L -3539 2286 L -3526 2279 L -3513 2264 L -3503 2241 L -3490 2225.5 L -3487 2212 L -3485.5 2184 L -3485 2154.5 L -3500 2129 L -3509 2105 L -3519 2068 L -3521 2035 L -3517 2002 L -3502 1971 L -3484 1948 L -3451 1932 L -3423 1922 L -3401 1922 L -3401 1927 L -3404 1932 L -3382 1934 L -3357 1934 L -3333 1932 L -3327 1935 L -3312 1937 L -3300 1930 L -3297 1908 L -3297 1885 L -3312 1846 L -3321 1826 L -3333 1809 L -3349 1782 L -3383 1746 L -3413 1720 L -3443 1698 L -3476 1681 L -3511 1666 L -3545 1657 L -3570 1653 L -3596 1651 L -3624 1650 L -3648 1650 L -3677 1652 L -3704 1658 L -3732 1665 L -3758 1673 L -3771 1679 L -3788 1686 L -3809 1698 L -3837 1716 L -3858 1734 L -3879 1757 L -3896 1778 L -3910 1799 L -3924 1826 L -3937 1854 L -3946 1883 L -3953 1910 L -3959 1952 L -3958 1989 L -3954 2025 L -3947 2065 L -3935 2103 L -3921 2137 L -3909 2164 Z" fill="url(#Obj_Gradient_2)"/>
      <path d="M -3903 2178 L -3905 2184 L -3910 2187 L -3903 2205 L -3895 2219 L -3891 2232 L -3887 2241 L -3886 2259 L -3881 2272 L -3869 2280 L -3858 2282 L -3841 2284 L -3828 2282 L -3815 2278 L -3801 2275 L -3789 2270 L -3781 2266 L -3773 2259 L -3766 2251 L -3755 2259 L -3744 2267 L -3730 2276 L -3715 2284 L -3697 2291 L -3678 2296 L -3659 2302 L -3639 2305 L -3619 2308 L -3597 2307 L -3580 2303 L -3558 2297 L -3539 2286 L -3526 2279 L -3513 2264 L -3503 2241 L -3490 2225.5 L -3487 2212 L -3485.5 2184 L -3485 2154.5 L -3500 2129 L -3509 2105 L -3519 2068 L -3521 2035 L -3517 2002 L -3502 1971 L -3484 1948 L -3451 1932 L -3423 1922 L -3401 1922 L -3401 1927 L -3404 1932 L -3382 1934 L -3357 1934 L -3333 1932 L -3327 1935 L -3312 1937 L -3300 1930 L -3297 1908 L -3297 1885 L -3312 1846 L -3321 1826 L -3333 1809 L -3349 1782 L -3383 1746 L -3413 1720 L -3443 1698 L -3476 1681 L -3511 1666 L -3545 1657 L -3570 1653 L -3596 1651 L -3624 1650 L -3648 1650 L -3677 1652 L -3704 1658 L -3732 1665 L -3758 1673 L -3771 1679 L -3788 1686 L -3809 1698 L -3837 1716 L -3858 1734 L -3879 1757 L -3896 1778 L -3910 1799 L -3924 1826 L -3937 1854 L -3946 1883 L -3953 1910 L -3959 1952 L -3958 1989 L -3954 2025 L -3947 2065 L -3935 2103 L -3921 2137 L -3909 2164 Z" stroke="black" stroke-linecap="round" stroke-linejoin="round" stroke-width="3"/>
      <path d="M -3679 2159 L -3676.5 2154.5 L -3673 2151 L -3650 2117 L -3615 2061.5 L -3605 2046 L -3598 2032 L -3594 2025.5 L -3591 2016 L -3585 2012 L -3571 1986 L -3559 1965 L -3545 1944 L -3535 1933 L -3525 1925 L -3509 1915 L -3492 1908 L -3471 1902 L -3447 1895 L -3428 1890 L -3409.5 1886 L -3396 1883.5 L -3382 1882 L -3364.5 1883.5 L -3361 1882 L -3361 1877 L -3370 1857 L -3376 1844 L -3379.5 1836.5 L -3381 1831 L -3379 1826 L -3373 1821 L -3361 1815 L -3352 1813 L -3345.5 1813 L -3340 1815 L -3336 1818 L -3332 1827 L -3324 1844 L -3317 1859 L -3315 1872 L -3302 1872 L -3310 1851.5 L -3315.5 1839 L -3320 1828 L -3317 1824 L -3309 1819 L -3299 1815 L -3292 1815 L -3288.5 1819 L -3280.5 1837 L -3270 1859 L -3262.5 1876 L -3256 1894 L -3255.5 1900 L -3258 1906 L -3262.5 1908 L -3274.5 1909 L -3283 1909 L -3288 1907.5 L -3292 1905 L -3299 1894 L -3303 1891 L -3311 1892 L -3315 1900 L -3326 1910 L -3345 1909 L -3357 1907 L -3363 1904.5 L -3364.5 1904.5 L -3372 1902 L -3392 1905 L -3425 1913 L -3443 1916 L -3471 1924 L -3487 1929 L -3502 1935.5 L -3510 1940.5 L -3523.5 1955.5 L -3536.5 1974 L -3545 1989 L -3555 2008 L -3564 2025 L -3574 2041 L -3586 2063 L -3596 2081 L -3578 2089 L -3558 2102 L -3546 2115 L -3544 2122.5 L -3546.5 2131 L -3551 2140 L -3555.5 2145.5 L -3558.5 2148.5 L -3563 2151.5 L -3573 2155 L -3577.5 2156 L -3580.5 2155 L -3583.5 2153.5 L -3593 2148.5 L -3610 2139 L -3626.5 2129.5 L -3630 2131 L -3642 2147 L -3644 2150.5 L -3645 2153.5 L -3642 2155 L -3636.5 2155.5 L -3618 2157 L -3601.5 2160 L -3582 2163 L -3565 2165 L -3534 2171 L -3494 2179 L -3444 2185 L -3406 2188 L -3368.5 2185 L -3328 2180 L -3287 2175 L -3234 2166 L -3204 2161 L -3180 2157 L -3152.5 2150.5 L -3135 2142.5 L -3134 2152.5 L -3128 2163 L -3134 2167 L -3155.5 2172 L -3174 2175.5 L -3201 2183.5 L -3224.5 2188.5 L -3255 2194 L -3278.5 2197.5 L -3300 2199.5 L -3327 2203 L -3356 2206 L -3385 2208 L -3373 2229 L -3368 2238 L -3363 2248 L -3354 2256 L -3342 2265 L -3324 2273 L -3307 2280 L -3288 2284 L -3272 2285 L -3254 2285 L -3227 2282 L -3207 2279 L -3192.5 2275.5 L -3186 2273 L -3180.5 2269.5 L -3181 2260 L -3182.5 2238 L -3185.5 2217.5 L -3189.5 2199.5 L -3191.5 2188 L -3193.5 2180.5 L -3193.2 2180.6 L -3174 2175.5 L -3171 2191.5 L -3168 2207.5 L -3166 2218.5 L -3164 2229 L -3163 2245 L -3162 2267 L -3157 2268.5 L -3148 2267 L -3126.5 2261 L -3118.5 2253.5 L -3117 2242.5 L -3118.5 2232.5 L -3120 2215 L -3123.5 2197 L -3125.5 2181 L -3127.5 2172.5 L -3129 2165 L -3128.5 2164.5 L -3111 2158.5 L -3108 2168.5 L -3105 2185 L -3101.5 2207.5 L -3100 2229 L -3100 2241.5 L -3100 2250.5 L -3101 2262.5 L -3103.5 2268 L -3109 2274 L -3118 2279 L -3138 2283 L -3167 2289 L -3190 2294 L -3210 2299 L -3236 2303 L -3260 2305 L -3277 2305 L -3292 2303 L -3307 2300 L -3320 2296 L -3334 2290 L -3346 2285 L -3358 2279 L -3369 2272 L -3377 2265 L -3385 2254 L -3395 2239 L -3406 2220 L -3409 2211 L -3441 2208 L -3490 2201 L -3528 2194 L -3571 2186 L -3606 2179 L -3639 2175 L -3664 2173 L -3674 2171 L -3677.5 2165.5 Z" fill="red"/>
      <path d="M -3679 2159 L -3676.5 2154.5 L -3673 2151 L -3650 2117 L -3615 2061.5 L -3605 2046 L -3598 2032 L -3594 2025.5 L -3591 2016 L -3585 2012 L -3571 1986 L -3559 1965 L -3545 1944 L -3535 1933 L -3525 1925 L -3509 1915 L -3492 1908 L -3471 1902 L -3447 1895 L -3428 1890 L -3409.5 1886 L -3396 1883.5 L -3382 1882 L -3364.5 1883.5 L -3361 1882 L -3361 1877 L -3370 1857 L -3376 1844 L -3379.5 1836.5 L -3381 1831 L -3379 1826 L -3373 1821 L -3361 1815 L -3352 1813 L -3345.5 1813 L -3340 1815 L -3336 1818 L -3332 1827 L -3324 1844 L -3317 1859 L -3315 1872 L -3302 1872 L -3310 1851.5 L -3315.5 1839 L -3320 1828 L -3317 1824 L -3309 1819 L -3299 1815 L -3292 1815 L -3288.5 1819 L -3280.5 1837 L -3270 1859 L -3262.5 1876 L -3256 1894 L -3255.5 1900 L -3258 1906 L -3262.5 1908 L -3274.5 1909 L -3283 1909 L -3288 1907.5 L -3292 1905 L -3299 1894 L -3303 1891 L -3311 1892 L -3315 1900 L -3326 1910 L -3345 1909 L -3357 1907 L -3363 1904.5 L -3364.5 1904.5 L -3372 1902 L -3392 1905 L -3425 1913 L -3443 1916 L -3471 1924 L -3487 1929 L -3502 1935.5 L -3510 1940.5 L -3523.5 1955.5 L -3536.5 1974 L -3545 1989 L -3555 2008 L -3564 2025 L -3574 2041 L -3586 2063 L -3596 2081 L -3578 2089 L -3558 2102 L -3546 2115 L -3544 2122.5 L -3546.5 2131 L -3551 2140 L -3555.5 2145.5 L -3558.5 2148.5 L -3563 2151.5 L -3573 2155 L -3577.5 2156 L -3580.5 2155 L -3583.5 2153.5 L -3593 2148.5 L -3610 2139 L -3626.5 2129.5 L -3630 2131 L -3642 2147 L -3644 2150.5 L -3645 2153.5 L -3642 2155 L -3636.5 2155.5 L -3618 2157 L -3601.5 2160 L -3582 2163 L -3565 2165 L -3534 2171 L -3494 2179 L -3444 2185 L -3406 2188 L -3368.5 2185 L -3328 2180 L -3287 2175 L -3234 2166 L -3204 2161 L -3180 2157 L -3152.5 2150.5 L -3135 2142.5 L -3134 2152.5 L -3128 2163 L -3134 2167 L -3155.5 2172 L -3174 2175.5 L -3201 2183.5 L -3224.5 2188.5 L -3255 2194 L -3278.5 2197.5 L -3300 2199.5 L -3327 2203 L -3356 2206 L -3385 2208 L -3373 2229 L -3368 2238 L -3363 2248 L -3354 2256 L -3342 2265 L -3324 2273 L -3307 2280 L -3288 2284 L -3272 2285 L -3254 2285 L -3227 2282 L -3207 2279 L -3192.5 2275.5 L -3186 2273 L -3180.5 2269.5 L -3181 2260 L -3182.5 2238 L -3185.5 2217.5 L -3189.5 2199.5 L -3191.5 2188 L -3193.5 2180.5 L -3193.2 2180.6 L -3174 2175.5 L -3171 2191.5 L -3168 2207.5 L -3166 2218.5 L -3164 2229 L -3163 2245 L -3162 2267 L -3157 2268.5 L -3148 2267 L -3126.5 2261 L -3118.5 2253.5 L -3117 2242.5 L -3118.5 2232.5 L -3120 2215 L -3123.5 2197 L -3125.5 2181 L -3127.5 2172.5 L -3129 2165 L -3128.5 2164.5 L -3111 2158.5 L -3108 2168.5 L -3105 2185 L -3101.5 2207.5 L -3100 2229 L -3100 2241.5 L -3100 2250.5 L -3101 2262.5 L -3103.5 2268 L -3109 2274 L -3118 2279 L -3138 2283 L -3167 2289 L -3190 2294 L -3210 2299 L -3236 2303 L -3260 2305 L -3277 2305 L -3292 2303 L -3307 2300 L -3320 2296 L -3334 2290 L -3346 2285 L -3358 2279 L -3369 2272 L -3377 2265 L -3385 2254 L -3395 2239 L -3406 2220 L -3409 2211 L -3441 2208 L -3490 2201 L -3528 2194 L -3571 2186 L -3606 2179 L -3639 2175 L -3664 2173 L -3674 2171 L -3677.5 2165.5 Z" stroke="black" stroke-linecap="round" stroke-linejoin="round" stroke-width="2"/>
      <path d="M -3590.6 2033.5 L -3593.2 2029.1 L -3594 2024.1 L -3593.8 2022.5 L -3593 2021.1 L -3591.9 2018.7 L -3590.4 2016.3 L -3588.6 2013.5 L -3584.8 2011.9 L -3580 2012.7 L -3574.8 2017.3 L -3571.4 2021.7 L -3564.4 2033.7 L -3555.4 2044.7 L -3545.4 2055.7 L -3534.4 2068.7 L -3522.9 2078.2 L -3510.9 2088.7 L -3501.9 2093.2 L -3491.9 2096.7 L -3481.4 2100.7 L -3470.9 2103.2 L -3461.9 2104.2 L -3455.4 2105.2 L -3466.4 2081.7 L -3476.4 2060.2 L -3483.4 2044.7 L -3494.9 2020.2 L -3501.4 2003.7 L -3510.4 1984.7 L -3522.9 1963.2 L -3534.9 1946.7 L -3539 1941.1 L -3539 1937.9 L -3535.6 1933.5 L -3532.4 1930.3 L -3529 1927.3 L -3525.2 1925.5 L -3521.4 1926.7 L -3519.4 1928.7 L -3504.4 1950.7 L -3492.4 1977.7 L -3480.4 2002.7 L -3430.4 2107.7 L -3394.4 2105.7 L -3358.4 2103.7 L -3327.4 2098.7 L -3296.4 2094.7 L -3290 2092 L -3301.5 2057 L -3314.5 2029 L -3324.4 2005.7 L -3345.4 1959.7 L -3352 1943.5 L -3354 1937.5 L -3353 1934.5 L -3350.5 1933.5 L -3331.5 1932 L -3328 1934 L -3319 1957.5 L -3304 1998.5 L -3277.4 2065.7 L -3270 2088.5 L -3240 2083.5 L -3183 2076 L -3168 2070.5 L -3157.5 2061 L -3151 2062 L -3143.4 2065.7 L -3131.4 2077.7 L -3121.4 2113.7 L -3113.4 2139.7 L -3109.4 2158.7 L -3129.4 2164.2 L -3129.5 2160 L -3139.4 2135.7 L -3146.4 2109.7 L -3149.9 2095.7 L -3152.4 2092.2 L -3158.9 2091.2 L -3180.4 2094.7 L -3193.4 2095.7 L -3197.4 2096.7 L -3192.4 2105.7 L -3188.4 2117.7 L -3182.9 2139.2 L -3178.9 2156.2 L -3197.9 2160.2 L -3206.4 2127.7 L -3213.4 2108.7 L -3216.9 2102.7 L -3222.4 2100.7 L -3266.4 2107.7 L -3310.4 2111.7 L -3354.4 2118.7 L -3394.4 2121.7 L -3415.4 2122.7 L -3419.4 2122.7 L -3422.4 2124.7 L -3421.9 2129.2 L -3390.9 2186.7 L -3415.4 2187.2 L -3418.4 2186.2 L -3424.9 2173.7 L -3431.4 2159.2 L -3437.9 2144.7 L -3442.4 2132.7 L -3445.9 2126.7 L -3447.9 2123.7 L -3451.9 2122.2 L -3459.4 2121.2 L -3471.4 2119.7 L -3485.4 2116.7 L -3508.4 2109.7 L -3520.9 2103.7 L -3533.4 2095.7 L -3551.4 2080.7 L -3566.9 2062.7 L -3577.4 2050.7 Z" fill="red"/>
      <path d="M -3590.6 2033.5 L -3593.2 2029.1 L -3594 2024.1 L -3593.8 2022.5 L -3593 2021.1 L -3591.9 2018.7 L -3590.4 2016.3 L -3588.6 2013.5 L -3584.8 2011.9 L -3580 2012.7 L -3574.8 2017.3 L -3571.4 2021.7 L -3564.4 2033.7 L -3555.4 2044.7 L -3545.4 2055.7 L -3534.4 2068.7 L -3522.9 2078.2 L -3510.9 2088.7 L -3501.9 2093.2 L -3491.9 2096.7 L -3481.4 2100.7 L -3470.9 2103.2 L -3461.9 2104.2 L -3455.4 2105.2 L -3466.4 2081.7 L -3476.4 2060.2 L -3483.4 2044.7 L -3494.9 2020.2 L -3501.4 2003.7 L -3510.4 1984.7 L -3522.9 1963.2 L -3534.9 1946.7 L -3539 1941.1 L -3539 1937.9 L -3535.6 1933.5 L -3532.4 1930.3 L -3529 1927.3 L -3525.2 1925.5 L -3521.4 1926.7 L -3519.4 1928.7 L -3504.4 1950.7 L -3492.4 1977.7 L -3480.4 2002.7 L -3430.4 2107.7 L -3394.4 2105.7 L -3358.4 2103.7 L -3327.4 2098.7 L -3296.4 2094.7 L -3290 2092 L -3301.5 2057 L -3314.5 2029 L -3324.4 2005.7 L -3345.4 1959.7 L -3352 1943.5 L -3354 1937.5 L -3353 1934.5 L -3350.5 1933.5 L -3331.5 1932 L -3328 1934 L -3319 1957.5 L -3304 1998.5 L -3277.4 2065.7 L -3270 2088.5 L -3240 2083.5 L -3183 2076 L -3168 2070.5 L -3157.5 2061 L -3151 2062 L -3143.4 2065.7 L -3131.4 2077.7 L -3121.4 2113.7 L -3113.4 2139.7 L -3109.4 2158.7 L -3129.4 2164.2 L -3129.5 2160 L -3139.4 2135.7 L -3146.4 2109.7 L -3149.9 2095.7 L -3152.4 2092.2 L -3158.9 2091.2 L -3180.4 2094.7 L -3193.4 2095.7 L -3197.4 2096.7 L -3192.4 2105.7 L -3188.4 2117.7 L -3182.9 2139.2 L -3178.9 2156.2 L -3197.9 2160.2 L -3206.4 2127.7 L -3213.4 2108.7 L -3216.9 2102.7 L -3222.4 2100.7 L -3266.4 2107.7 L -3310.4 2111.7 L -3354.4 2118.7 L -3394.4 2121.7 L -3415.4 2122.7 L -3419.4 2122.7 L -3422.4 2124.7 L -3421.9 2129.2 L -3390.9 2186.7 L -3415.4 2187.2 L -3418.4 2186.2 L -3424.9 2173.7 L -3431.4 2159.2 L -3437.9 2144.7 L -3442.4 2132.7 L -3445.9 2126.7 L -3447.9 2123.7 L -3451.9 2122.2 L -3459.4 2121.2 L -3471.4 2119.7 L -3485.4 2116.7 L -3508.4 2109.7 L -3520.9 2103.7 L -3533.4 2095.7 L -3551.4 2080.7 L -3566.9 2062.7 L -3577.4 2050.7 Z" stroke="black" stroke-linecap="round" stroke-linejoin="round" stroke-width="2"/>
      <path d="M -3354.6236 2130.5 L -3356.6236 2148.5 L -3322.6236 2153.5 L -3291.6236 2158.5 L -3270.6236 2161 L -3266.6236 2161 L -3259.6236 2163 L -3256.6236 2166.5 L -3250.1236 2190 L -3240.1236 2210.5 L -3236.1236 2219.5 L -3229.1236 2224.5 L -3224.1236 2228.5 L -3212.1236 2235.5 L -3208.1236 2238.5 L -3197.1236 2243.5 L -3172.1236 2253.5 L -3146.6236 2264.5 L -3119.6236 2277.5 L -3116.1236 2279 L -3108.6236 2275.5 L -3104.6236 2271 L -3101.6236 2267 L -3101.1236 2261 L -3117.6236 2255.5 L -3139.1236 2246.5 L -3163.6236 2234.5 L -3187.1236 2225.5 L -3202.1236 2218.5 L -3215.1236 2210.5 L -3220.1236 2201.5 L -3225.1236 2191.5 L -3233.1236 2166.5 L -3159.6236 2154.5 L -3135.1236 2144.5 L -3139.1236 2137.5 L -3169.1236 2140.5 L -3210.6236 2142.5 L -3235.6236 2142.5 L -3243.1236 2143 L -3246.1236 2139.5 L -3248.6236 2131.5 L -3265.6236 2086.5 L -3200.1236 2077 L -3168.6236 2071.5 L -3156.6236 2062.5 L -3195.2665 2063.8571 L -3232.2665 2064.3571 L -3261.6236 2064.5 L -3277.6236 2066 L -3327.6236 1936 L -3332.6236 1933 L -3352.1236 1935 L -3353.6236 1939.5 L -3334.1236 1984 L -3318.6236 2017.5 L -3308.6236 2041.5 L -3299.6236 2063 L -3311.6236 2058.5 L -3320.1236 2054.5 L -3327.6236 2045.5 L -3344.6236 2027.5 L -3354.6236 2013.5 L -3371.6236 1992.5 L -3375 2009.5 L -3372.5 2027.5 L -3356.6236 2046.5 L -3339.6236 2066.5 L -3318.6236 2078.5 L -3292.6236 2084.5 L -3266.6236 2141.5 L -3317.6236 2133.5 Z" fill="red"/>
      <path d="M -3354.6236 2130.5 L -3356.6236 2148.5 L -3322.6236 2153.5 L -3291.6236 2158.5 L -3270.6236 2161 L -3266.6236 2161 L -3259.6236 2163 L -3256.6236 2166.5 L -3250.1236 2190 L -3240.1236 2210.5 L -3236.1236 2219.5 L -3229.1236 2224.5 L -3224.1236 2228.5 L -3212.1236 2235.5 L -3208.1236 2238.5 L -3197.1236 2243.5 L -3172.1236 2253.5 L -3146.6236 2264.5 L -3119.6236 2277.5 L -3116.1236 2279 L -3108.6236 2275.5 L -3104.6236 2271 L -3101.6236 2267 L -3101.1236 2261 L -3117.6236 2255.5 L -3139.1236 2246.5 L -3163.6236 2234.5 L -3187.1236 2225.5 L -3202.1236 2218.5 L -3215.1236 2210.5 L -3220.1236 2201.5 L -3225.1236 2191.5 L -3233.1236 2166.5 L -3159.6236 2154.5 L -3135.1236 2144.5 L -3139.1236 2137.5 L -3169.1236 2140.5 L -3210.6236 2142.5 L -3235.6236 2142.5 L -3243.1236 2143 L -3246.1236 2139.5 L -3248.6236 2131.5 L -3265.6236 2086.5 L -3200.1236 2077 L -3168.6236 2071.5 L -3156.6236 2062.5 L -3195.2665 2063.8571 L -3232.2665 2064.3571 L -3261.6236 2064.5 L -3277.6236 2066 L -3327.6236 1936 L -3332.6236 1933 L -3352.1236 1935 L -3353.6236 1939.5 L -3334.1236 1984 L -3318.6236 2017.5 L -3308.6236 2041.5 L -3299.6236 2063 L -3311.6236 2058.5 L -3320.1236 2054.5 L -3327.6236 2045.5 L -3344.6236 2027.5 L -3354.6236 2013.5 L -3371.6236 1992.5 L -3375 2009.5 L -3372.5 2027.5 L -3356.6236 2046.5 L -3339.6236 2066.5 L -3318.6236 2078.5 L -3292.6236 2084.5 L -3266.6236 2141.5 L -3317.6236 2133.5 Z" stroke="black" stroke-linecap="round" stroke-linejoin="round" stroke-width="2"/>
      <path d="M -3702 2149 L -3679 2116 L -3677.8 2107.2 L -3679 2102.8 L -3680.8 2097.4 L -3683.2 2092.8 L -3686 2087.8 L -3690 2084 L -3694.8 2080.6 L -3702 2077 L -3711.4 2073.8 L -3717.4 2072.8 L -3724 2073 L -3727 2073.4 L -3730 2074.5 L -3736 2077 L -3742.5 2081 L -3745 2083.5 L -3748 2087 L -3751 2095 L -3752.2 2103 L -3752.4 2108.2 L -3752.4 2113.4 L -3751.6 2118.4 L -3751 2122.2 L -3749.6 2127.2 L -3748.2 2130.8 L -3745.8 2133.8 L -3743.4 2137.2 L -3740.8 2139.4 L -3738 2142.2 L -3733.2 2145 L -3728 2148 L -3721.2 2149.8 L -3714 2150 Z" fill="red"/>
      <path d="M -3702 2149 L -3679 2116 L -3677.8 2107.2 L -3679 2102.8 L -3680.8 2097.4 L -3683.2 2092.8 L -3686 2087.8 L -3690 2084 L -3694.8 2080.6 L -3702 2077 L -3711.4 2073.8 L -3717.4 2072.8 L -3724 2073 L -3727 2073.4 L -3730 2074.5 L -3736 2077 L -3742.5 2081 L -3745 2083.5 L -3748 2087 L -3751 2095 L -3752.2 2103 L -3752.4 2108.2 L -3752.4 2113.4 L -3751.6 2118.4 L -3751 2122.2 L -3749.6 2127.2 L -3748.2 2130.8 L -3745.8 2133.8 L -3743.4 2137.2 L -3740.8 2139.4 L -3738 2142.2 L -3733.2 2145 L -3728 2148 L -3721.2 2149.8 L -3714 2150 Z" stroke="#7f8080" stroke-linecap="round" stroke-linejoin="round" stroke-width="2"/>
      <path d="M -3705 1657 L -3671 1657 L -3644 1657 L -3614 1659 L -3595.0917 1662.1331 L -3581.5917 1664.6331 L -3568.0917 1668.6331 L -3557 1672 L -3541.5917 1677.1331 L -3528.0917 1682.6331 L -3515.0917 1689.6331 L -3503 1697 L -3494 1703 L -3478.5917 1712.6331 L -3460 1726 L -3448 1739 L -3438 1750 L -3426 1762 L -3415.5917 1776.1331 L -3404 1793 L -3397 1804 L -3391.5917 1815.1331 L -3387.5917 1824.6331 L -3384.0917 1828.1331 L -3380.5917 1827.6331 L -3351.5917 1816.6331 L -3351.0917 1809.6331 L -3365.5917 1789.6331 L -3377.5917 1773.1331 L -3386.5917 1762.6331 L -3398 1751 L -3407 1741 L -3418 1730 L -3431.5917 1717.6331 L -3445 1708 L -3461 1699 L -3477 1690 L -3495 1681 L -3510 1673 L -3527.5917 1665.1331 L -3546 1660 L -3568 1655 L -3581 1653 L -3601 1651 L -3626 1650 L -3648 1650 L -3673 1650 L -3688 1653 L -3702 1655 Z" fill="red"/>
      <path d="M -3705 1657 L -3671 1657 L -3644 1657 L -3614 1659 L -3595.0917 1662.1331 L -3581.5917 1664.6331 L -3568.0917 1668.6331 L -3557 1672 L -3541.5917 1677.1331 L -3528.0917 1682.6331 L -3515.0917 1689.6331 L -3503 1697 L -3494 1703 L -3478.5917 1712.6331 L -3460 1726 L -3448 1739 L -3438 1750 L -3426 1762 L -3415.5917 1776.1331 L -3404 1793 L -3397 1804 L -3391.5917 1815.1331 L -3387.5917 1824.6331 L -3384.0917 1828.1331 L -3380.5917 1827.6331 L -3351.5917 1816.6331 L -3351.0917 1809.6331 L -3365.5917 1789.6331 L -3377.5917 1773.1331 L -3386.5917 1762.6331 L -3398 1751 L -3407 1741 L -3418 1730 L -3431.5917 1717.6331 L -3445 1708 L -3461 1699 L -3477 1690 L -3495 1681 L -3510 1673 L -3527.5917 1665.1331 L -3546 1660 L -3568 1655 L -3581 1653 L -3601 1651 L -3626 1650 L -3648 1650 L -3673 1650 L -3688 1653 L -3702 1655 Z" stroke="black" stroke-linecap="round" stroke-linejoin="round" stroke-width="2"/>
      <path d="M -3641.3393 1772.02 C -3570.1067 1775.9767 -3545.3854 1826.663 -3586.1225 1885.2312 C -3626.8594 1943.7993 -3717.6283 1988.0702 -3788.8607 1984.1132 C -3860.0932 1980.1564 -3884.8146 1929.47 -3844.0774 1870.902 C -3803.3406 1812.3339 -3712.5717 1768.063 -3641.3393 1772.02" fill="red"/>
      <path d="M -3641.3393 1772.02 C -3570.1067 1775.9767 -3545.3854 1826.663 -3586.1225 1885.2312 C -3626.8594 1943.7993 -3717.6283 1988.0702 -3788.8607 1984.1132 C -3860.0932 1980.1564 -3884.8146 1929.47 -3844.0774 1870.902 C -3803.3406 1812.3339 -3712.5717 1768.063 -3641.3393 1772.02" stroke="black" stroke-linecap="round" stroke-linejoin="round" stroke-width="1"/>
      <path d="M -3770.7994 1855.2757 L -3773.7644 1850.989 L -3770.818 1846.276 L -3765.491 1842.859 L -3762.091 1839.9722 L -3755.2208 1837.0308 L -3751.1754 1835.4672 L -3746.4237 1833.5592 L -3740.29 1831.7961 L -3733.6726 1831.0254 L -3727.2163 1829.924 L -3721.8498 1830.1729 L -3716.9976 1830.2633 L -3712.4074 1828.0244 L -3703.933 1823.8912 L -3712.3227 1806.6899 L -3729.655 1815.9623 L -3732.6013 1820.6753 L -3741.852 1822.3207 L -3752.576 1826.3226 L -3763.522 1831.6614 L -3772.3493 1835.9668 L -3783.5175 1842.6423 L -3789.4805 1849.236 L -3797.4616 1858.8615 L -3798.734 1865.2148 L -3799.391 1873.7251 L -3796.971 1878.687 L -3791.111 1884.4282 L -3783.1724 1885.47 L -3773.4378 1884.817 L -3761.4933 1880.6293 L -3753.9473 1878.1773 L -3741.6193 1872.9835 L -3732.8223 1869.512 L -3724.6706 1864.717 L -3716.5494 1860.756 L -3709.034 1859.138 L -3706.1297 1865.0923 L -3707.7246 1870.784 L -3713.012 1877.867 L -3721.002 1882.9927 L -3728.962 1887.2845 L -3737.9204 1890.4253 L -3748.5834 1892.7596 L -3758.2176 1895.411 L -3765.319 1895.1894 L -3771.3615 1894.451 L -3776.637 1891.7006 L -3787.7138 1895.8748 L -3773.4855 1924.151 L -3762.025 1918.9708 L -3760.713 1916.2835 L -3760.2688 1913.6099 L -3760.4698 1909.613 L -3761.4074 1906.7945 L -3754.659 1907.1884 L -3745.378 1904.7091 L -3736.2885 1902.733 L -3727.8446 1899.4335 L -3718.311 1894.7836 L -3709.1 1889.4722 L -3702.5525 1885.8693 L -3694.8544 1879.2483 L -3687.9935 1871.807 L -3686.2372 1866.4462 L -3684.0975 1860.0792 L -3684.2377 1854.4148 L -3685.346 1846.7656 L -3690.53 1841.5138 L -3696.8037 1837.6124 L -3706.9615 1835.6055 L -3716.5044 1835.7555 L -3728.0653 1838.9372 L -3738.4665 1843.6007 L -3750.633 1849.1253 L -3757.695 1852.5697 L -3763.859 1855.1666 Z" fill="white"/>
      <path d="M -3770.7994 1855.2757 L -3773.7644 1850.989 L -3770.818 1846.276 L -3765.491 1842.859 L -3762.091 1839.9722 L -3755.2208 1837.0308 L -3751.1754 1835.4672 L -3746.4237 1833.5592 L -3740.29 1831.7961 L -3733.6726 1831.0254 L -3727.2163 1829.924 L -3721.8498 1830.1729 L -3716.9976 1830.2633 L -3712.4074 1828.0244 L -3703.933 1823.8912 L -3712.3227 1806.6899 L -3729.655 1815.9623 L -3732.6013 1820.6753 L -3741.852 1822.3207 L -3752.576 1826.3226 L -3763.522 1831.6614 L -3772.3493 1835.9668 L -3783.5175 1842.6423 L -3789.4805 1849.236 L -3797.4616 1858.8615 L -3798.734 1865.2148 L -3799.391 1873.7251 L -3796.971 1878.687 L -3791.111 1884.4282 L -3783.1724 1885.47 L -3773.4378 1884.817 L -3761.4933 1880.6293 L -3753.9473 1878.1773 L -3741.6193 1872.9835 L -3732.8223 1869.512 L -3724.6706 1864.717 L -3716.5494 1860.756 L -3709.034 1859.138 L -3706.1297 1865.0923 L -3707.7246 1870.784 L -3713.012 1877.867 L -3721.002 1882.9927 L -3728.962 1887.2845 L -3737.9204 1890.4253 L -3748.5834 1892.7596 L -3758.2176 1895.411 L -3765.319 1895.1894 L -3771.3615 1894.451 L -3776.637 1891.7006 L -3787.7138 1895.8748 L -3773.4855 1924.151 L -3762.025 1918.9708 L -3760.713 1916.2835 L -3760.2688 1913.6099 L -3760.4698 1909.613 L -3761.4074 1906.7945 L -3754.659 1907.1884 L -3745.378 1904.7091 L -3736.2885 1902.733 L -3727.8446 1899.4335 L -3718.311 1894.7836 L -3709.1 1889.4722 L -3702.5525 1885.8693 L -3694.8544 1879.2483 L -3687.9935 1871.807 L -3686.2372 1866.4462 L -3684.0975 1860.0792 L -3684.2377 1854.4148 L -3685.346 1846.7656 L -3690.53 1841.5138 L -3696.8037 1837.6124 L -3706.9615 1835.6055 L -3716.5044 1835.7555 L -3728.0653 1838.9372 L -3738.4665 1843.6007 L -3750.633 1849.1253 L -3757.695 1852.5697 L -3763.859 1855.1666 Z" stroke="black" stroke-linecap="round" stroke-linejoin="round" stroke-width="5"/>
      <path d="M -3751.284 1876.4688 L -3643.3973 1823.4395 L -3629.915 1848.394 L -3639.287 1853.3748 L -3640.1944 1849.7224 L -3642.292 1845.422 L -3647.0222 1841.9964 L -3655.6976 1842.1328 L -3708.4705 1867.4624 L -3711.6695 1874.346 L -3707.9283 1881.1205 L -3702.8448 1884.3739 L -3700.242 1884.333 L -3692.3735 1882.5426 L -3686.2095 1879.9457 L -3680.8826 1876.5286 L -3675.3336 1871.7747 L -3671.136 1866.042 L -3671.3066 1861.2115 L -3672.5365 1856.8975 L -3664.062 1852.7643 L -3646.254 1887.4842 L -3655.4345 1891.9618 L -3658.238 1888.006 L -3662.515 1886.4065 L -3667.145 1884.9793 L -3676.3347 1884.957 L -3686.413 1890.2822 L -3696.6226 1894.4427 L -3689.1097 1907.1578 L -3684.5406 1910.2527 L -3680.909 1910.529 L -3674.9977 1910.1026 L -3667.805 1907.823 L -3663.8414 1913.2606 L -3727.4294 1945.0935 L -3731.6547 1937.3266 L -3722.8272 1933.0212 L -3717.117 1928.598 L -3712.0822 1923.6856 L -3711.5466 1918.5105 L -3714.8435 1909.0624 L -3730.3837 1883.4735 L -3735.306 1880.551 L -3739.543 1882.6175 L -3746.2215 1885.0558 Z" fill="white"/>
      <path d="M -3751.284 1876.4688 L -3643.3973 1823.4395 L -3629.915 1848.394 L -3639.287 1853.3748 L -3640.1944 1849.7224 L -3642.292 1845.422 L -3647.0222 1841.9964 L -3655.6976 1842.1328 L -3708.4705 1867.4624 L -3711.6695 1874.346 L -3707.9283 1881.1205 L -3702.8448 1884.3739 L -3700.242 1884.333 L -3692.3735 1882.5426 L -3686.2095 1879.9457 L -3680.8826 1876.5286 L -3675.3336 1871.7747 L -3671.136 1866.042 L -3671.3066 1861.2115 L -3672.5365 1856.8975 L -3664.062 1852.7643 L -3646.254 1887.4842 L -3655.4345 1891.9618 L -3658.238 1888.006 L -3662.515 1886.4065 L -3667.145 1884.9793 L -3676.3347 1884.957 L -3686.413 1890.2822 L -3696.6226 1894.4427 L -3689.1097 1907.1578 L -3684.5406 1910.2527 L -3680.909 1910.529 L -3674.9977 1910.1026 L -3667.805 1907.823 L -3663.8414 1913.2606 L -3727.4294 1945.0935 L -3731.6547 1937.3266 L -3722.8272 1933.0212 L -3717.117 1928.598 L -3712.0822 1923.6856 L -3711.5466 1918.5105 L -3714.8435 1909.0624 L -3730.3837 1883.4735 L -3735.306 1880.551 L -3739.543 1882.6175 L -3746.2215 1885.0558 Z" stroke="black" stroke-linecap="round" stroke-linejoin="round" stroke-width="5"/>
    </g>
  </g>
</svg>
