<?xml version="1.0" encoding="UTF-8" standalone="no"?>
<!DOCTYPE svg PUBLIC "-//W3C//DTD SVG 1.1//EN" "http://www.w3.org/Graphics/SVG/1.1/DTD/svg11.dtd">
<svg xmlns="http://www.w3.org/2000/svg" xmlns:xl="http://www.w3.org/1999/xlink" version="1.1" viewBox="-3667.1966 1518.6154 860.5 660" width="860.5pt" height="55pc" xmlns:dc="http://purl.org/dc/elements/1.1/">
  <metadata> Produced by OmniGraffle 7.6.1 
    <dc:date>2021-08-04 01:29:23 +0000</dc:date>
  </metadata>
  <defs>
    <linearGradient x1="0" x2="1" id="Gradient" gradientUnits="userSpaceOnUse">
      <stop offset="0" stop-color="#464646"/>
      <stop offset="1" stop-color="#f0f0f0"/>
    </linearGradient>
    <linearGradient id="Obj_Gradient" xl:href="#Gradient" gradientTransform="translate(-3190.8104 1778.8373) rotate(72) scale(359.227)"/>
  </defs>
  <g stroke="none" stroke-opacity="1" stroke-dasharray="none" fill="none" fill-opacity="1">
    <title>Tennessee Titans</title>
    <g>
      <title>Capa 1</title>
      <path d="M -3199.1966 2104.66 L -3169.1966 2108.66 L -3138.1966 2102.66 L -3110.1966 2090.66 L -3088.1966 2072.66 L -3076.1966 2052.66 L -3068.1966 2025.66 L -3062.1966 1984.66 L -3074.1966 1941.66 L -3078.1966 1914.66 L -3082.1966 1877.66 L -3076.1966 1853.66 L -3073.1966 1827.66 L -3060.1966 1811.66 L -3043.417 1802.66 L -3050.417 1802.66 L -3057.417 1802.66 L -3071.417 1804.66 L -3089.417 1804.66 L -3111.417 1801.66 L -3107.417 1790.66 L -3119.417 1790.66 L -3135.417 1793.66 L -3148.417 1798.66 L -3161.417 1802.66 L -3168.417 1806.66 L -3176.417 1810.66 L -3192.417 1816.66 L -3203.417 1834.66 L -3211.417 1844.66 L -3220.417 1861.66 L -3227.1966 1888.66 L -3227.1966 1928.66 L -3219.417 1964.66 L -3208.1966 1999.66 L -3193.1966 2022.66 L -3192.917 2029.66 L -3193.417 2040.66 L -3193.417 2050.16 L -3192.917 2057.66 L -3194.1966 2065.66 L -3193.917 2079.16 L -3197.1966 2092.66 L -3200.417 2098.16 L -3205.1966 2103.66 Z" fill="url(#Obj_Gradient)"/>
      <path d="M -3199.1966 2104.66 L -3169.1966 2108.66 L -3138.1966 2102.66 L -3110.1966 2090.66 L -3088.1966 2072.66 L -3076.1966 2052.66 L -3068.1966 2025.66 L -3062.1966 1984.66 L -3074.1966 1941.66 L -3078.1966 1914.66 L -3082.1966 1877.66 L -3076.1966 1853.66 L -3073.1966 1827.66 L -3060.1966 1811.66 L -3043.417 1802.66 L -3050.417 1802.66 L -3057.417 1802.66 L -3071.417 1804.66 L -3089.417 1804.66 L -3111.417 1801.66 L -3107.417 1790.66 L -3119.417 1790.66 L -3135.417 1793.66 L -3148.417 1798.66 L -3161.417 1802.66 L -3168.417 1806.66 L -3176.417 1810.66 L -3192.417 1816.66 L -3203.417 1834.66 L -3211.417 1844.66 L -3220.417 1861.66 L -3227.1966 1888.66 L -3227.1966 1928.66 L -3219.417 1964.66 L -3208.1966 1999.66 L -3193.1966 2022.66 L -3192.917 2029.66 L -3193.417 2040.66 L -3193.417 2050.16 L -3192.917 2057.66 L -3194.1966 2065.66 L -3193.917 2079.16 L -3197.1966 2092.66 L -3200.417 2098.16 L -3205.1966 2103.66 Z" stroke="black" stroke-linecap="round" stroke-linejoin="round" stroke-width="2"/>
      <path d="M -3610.1966 2047.6154 L -3612.1966 2053.6154 L -3617.1966 2056.6154 L -3610.1966 2074.6154 L -3602.1966 2088.6154 L -3598.1966 2101.6154 L -3594.1966 2110.6154 L -3593.1966 2128.6154 L -3588.1966 2141.6154 L -3576.1966 2149.6154 L -3565.1966 2151.6154 L -3548.1966 2153.6154 L -3535.1966 2151.6154 L -3522.1966 2147.6154 L -3508.1966 2144.6154 L -3496.1966 2139.6154 L -3488.1966 2135.6154 L -3480.1966 2128.6154 L -3473.1966 2120.6154 L -3462.1966 2128.6154 L -3451.1966 2136.6154 L -3437.1966 2145.6154 L -3422.1966 2153.6154 L -3404.1966 2160.6154 L -3385.1966 2165.6154 L -3366.1966 2171.6154 L -3346.1966 2174.6154 L -3326.1966 2177.6154 L -3304.1966 2176.6154 L -3287.1966 2172.6154 L -3265.1966 2166.6154 L -3246.1966 2155.6154 L -3233.1966 2148.6154 L -3220.1966 2133.6154 L -3210.1966 2110.6154 L -3197.1966 2095.1154 L -3194.1966 2081.6154 L -3192.6966 2053.6154 L -3192.1966 2024.1154 L -3207.1966 1998.6154 L -3216.1966 1974.6154 L -3226.1966 1937.6154 L -3228.1966 1904.6154 L -3224.1966 1871.6154 L -3209.1966 1840.6154 L -3191.1966 1817.6154 L -3158.1966 1801.6154 L -3130.1966 1791.6154 L -3108.1966 1791.6154 L -3108.1966 1796.6154 L -3111.1966 1801.6154 L -3089.1966 1803.6154 L -3064.1966 1803.6154 L -3040.1966 1801.6154 L -3034.1966 1804.6154 L -3019.1966 1806.6154 L -3007.1966 1799.6154 L -3004.1966 1777.6154 L -3004.1966 1754.6154 L -3019.1966 1715.6154 L -3028.1966 1695.6154 L -3040.1966 1678.6154 L -3056.1966 1651.6154 L -3090.1966 1615.6154 L -3120.1966 1589.6154 L -3150.1966 1567.6154 L -3183.1966 1550.6154 L -3218.1966 1535.6154 L -3252.1966 1526.6154 L -3277.1966 1522.6154 L -3303.1966 1520.6154 L -3331.1966 1519.6154 L -3355.1966 1519.6154 L -3384.1966 1521.6154 L -3411.1966 1527.6154 L -3439.1966 1534.6154 L -3465.1966 1542.6154 L -3478.1966 1548.6154 L -3495.1966 1555.6154 L -3516.1966 1567.6154 L -3544.1966 1585.6154 L -3565.1966 1603.6154 L -3586.1966 1626.6154 L -3603.1966 1647.6154 L -3617.1966 1668.6154 L -3631.1966 1695.6154 L -3644.1966 1723.6154 L -3653.1966 1752.6154 L -3660.1966 1779.6154 L -3666.1966 1821.6154 L -3665.1966 1858.6154 L -3661.1966 1894.6154 L -3654.1966 1934.6154 L -3642.1966 1972.6154 L -3628.1966 2006.6154 L -3616.1966 2033.6154 Z" fill="white"/>
      <path d="M -3610.1966 2047.6154 L -3612.1966 2053.6154 L -3617.1966 2056.6154 L -3610.1966 2074.6154 L -3602.1966 2088.6154 L -3598.1966 2101.6154 L -3594.1966 2110.6154 L -3593.1966 2128.6154 L -3588.1966 2141.6154 L -3576.1966 2149.6154 L -3565.1966 2151.6154 L -3548.1966 2153.6154 L -3535.1966 2151.6154 L -3522.1966 2147.6154 L -3508.1966 2144.6154 L -3496.1966 2139.6154 L -3488.1966 2135.6154 L -3480.1966 2128.6154 L -3473.1966 2120.6154 L -3462.1966 2128.6154 L -3451.1966 2136.6154 L -3437.1966 2145.6154 L -3422.1966 2153.6154 L -3404.1966 2160.6154 L -3385.1966 2165.6154 L -3366.1966 2171.6154 L -3346.1966 2174.6154 L -3326.1966 2177.6154 L -3304.1966 2176.6154 L -3287.1966 2172.6154 L -3265.1966 2166.6154 L -3246.1966 2155.6154 L -3233.1966 2148.6154 L -3220.1966 2133.6154 L -3210.1966 2110.6154 L -3197.1966 2095.1154 L -3194.1966 2081.6154 L -3192.6966 2053.6154 L -3192.1966 2024.1154 L -3207.1966 1998.6154 L -3216.1966 1974.6154 L -3226.1966 1937.6154 L -3228.1966 1904.6154 L -3224.1966 1871.6154 L -3209.1966 1840.6154 L -3191.1966 1817.6154 L -3158.1966 1801.6154 L -3130.1966 1791.6154 L -3108.1966 1791.6154 L -3108.1966 1796.6154 L -3111.1966 1801.6154 L -3089.1966 1803.6154 L -3064.1966 1803.6154 L -3040.1966 1801.6154 L -3034.1966 1804.6154 L -3019.1966 1806.6154 L -3007.1966 1799.6154 L -3004.1966 1777.6154 L -3004.1966 1754.6154 L -3019.1966 1715.6154 L -3028.1966 1695.6154 L -3040.1966 1678.6154 L -3056.1966 1651.6154 L -3090.1966 1615.6154 L -3120.1966 1589.6154 L -3150.1966 1567.6154 L -3183.1966 1550.6154 L -3218.1966 1535.6154 L -3252.1966 1526.6154 L -3277.1966 1522.6154 L -3303.1966 1520.6154 L -3331.1966 1519.6154 L -3355.1966 1519.6154 L -3384.1966 1521.6154 L -3411.1966 1527.6154 L -3439.1966 1534.6154 L -3465.1966 1542.6154 L -3478.1966 1548.6154 L -3495.1966 1555.6154 L -3516.1966 1567.6154 L -3544.1966 1585.6154 L -3565.1966 1603.6154 L -3586.1966 1626.6154 L -3603.1966 1647.6154 L -3617.1966 1668.6154 L -3631.1966 1695.6154 L -3644.1966 1723.6154 L -3653.1966 1752.6154 L -3660.1966 1779.6154 L -3666.1966 1821.6154 L -3665.1966 1858.6154 L -3661.1966 1894.6154 L -3654.1966 1934.6154 L -3642.1966 1972.6154 L -3628.1966 2006.6154 L -3616.1966 2033.6154 Z" stroke="black" stroke-linecap="round" stroke-linejoin="round" stroke-width="2"/>
      <path d="M -3297.7966 1903.1154 L -3300.3966 1898.7154 L -3301.1966 1893.7154 L -3300.9966 1892.1154 L -3300.1966 1890.7154 L -3299.0966 1888.3154 L -3297.5966 1885.9154 L -3295.7966 1883.1154 L -3291.9966 1881.5154 L -3287.1966 1882.3154 L -3281.9966 1886.9154 L -3278.5966 1891.3154 L -3271.5966 1903.3154 L -3262.5966 1914.3154 L -3252.5966 1925.3154 L -3241.5966 1938.3154 L -3230.0966 1947.8154 L -3218.0966 1958.3154 L -3209.0966 1962.8154 L -3199.0966 1966.3154 L -3188.5966 1970.3154 L -3178.0966 1972.8154 L -3169.0966 1973.8154 L -3162.5966 1974.8154 L -3173.5966 1951.3154 L -3183.5966 1929.8154 L -3190.5966 1914.3154 L -3202.0966 1889.8154 L -3208.5966 1873.3154 L -3217.5966 1854.3154 L -3230.0966 1832.8154 L -3242.0966 1816.3154 L -3246.1966 1810.7154 L -3246.1966 1807.5154 L -3242.7966 1803.1154 L -3239.5966 1799.9154 L -3236.1966 1796.9154 L -3232.3966 1795.1154 L -3228.5966 1796.3154 L -3226.5966 1798.3154 L -3211.5966 1820.3154 L -3199.5966 1847.3154 L -3187.5966 1872.3154 L -3137.5966 1977.3154 L -3101.5966 1975.3154 L -3065.5966 1973.3154 L -3034.5966 1968.3154 L -3003.5966 1964.3154 L -2997.1966 1961.6154 L -3008.6966 1926.6154 L -3021.6966 1898.6154 L -3031.5966 1875.3154 L -3052.5966 1829.3154 L -3059.1966 1813.1154 L -3061.1966 1807.1154 L -3060.1966 1804.1154 L -3057.6966 1803.1154 L -3038.6966 1801.6154 L -3035.1966 1803.6154 L -3026.1966 1827.1154 L -3011.1966 1868.1154 L -2984.5966 1935.3154 L -2977.1966 1958.1154 L -2947.1966 1953.1154 L -2890.1966 1945.6154 L -2875.1966 1940.1154 L -2864.6966 1930.6154 L -2858.1966 1931.6154 L -2850.5966 1935.3154 L -2838.5966 1947.3154 L -2828.5966 1983.3154 L -2820.5966 2009.3154 L -2816.5966 2028.3154 L -2836.5966 2033.8154 L -2836.6966 2029.6154 L -2846.5966 2005.3154 L -2853.5966 1979.3154 L -2857.0966 1965.3154 L -2859.5966 1961.8154 L -2866.0966 1960.8154 L -2887.5966 1964.3154 L -2900.5966 1965.3154 L -2904.5966 1966.3154 L -2899.5966 1975.3154 L -2895.5966 1987.3154 L -2890.0966 2008.8154 L -2886.0966 2025.8154 L -2905.0966 2029.8154 L -2913.5966 1997.3154 L -2920.5966 1978.3154 L -2924.0966 1972.3154 L -2929.5966 1970.3154 L -2973.5966 1977.3154 L -3017.5966 1981.3154 L -3061.5966 1988.3154 L -3101.5966 1991.3154 L -3122.5966 1992.3154 L -3126.5966 1992.3154 L -3129.5966 1994.3154 L -3129.0966 1998.8154 L -3098.0966 2056.3154 L -3122.5966 2056.8154 L -3125.5966 2055.8154 L -3132.0966 2043.3154 L -3138.5966 2028.8154 L -3145.0966 2014.3154 L -3149.5966 2002.3154 L -3153.0966 1996.3154 L -3155.0966 1993.3154 L -3159.0966 1991.8154 L -3166.5966 1990.8154 L -3178.5966 1989.3154 L -3192.5966 1986.3154 L -3215.5966 1979.3154 L -3228.0966 1973.3154 L -3240.5966 1965.3154 L -3258.5966 1950.3154 L -3274.0966 1932.3154 L -3284.5966 1920.3154 Z" fill="#000064"/>
      <path d="M -3297.7966 1903.1154 L -3300.3966 1898.7154 L -3301.1966 1893.7154 L -3300.9966 1892.1154 L -3300.1966 1890.7154 L -3299.0966 1888.3154 L -3297.5966 1885.9154 L -3295.7966 1883.1154 L -3291.9966 1881.5154 L -3287.1966 1882.3154 L -3281.9966 1886.9154 L -3278.5966 1891.3154 L -3271.5966 1903.3154 L -3262.5966 1914.3154 L -3252.5966 1925.3154 L -3241.5966 1938.3154 L -3230.0966 1947.8154 L -3218.0966 1958.3154 L -3209.0966 1962.8154 L -3199.0966 1966.3154 L -3188.5966 1970.3154 L -3178.0966 1972.8154 L -3169.0966 1973.8154 L -3162.5966 1974.8154 L -3173.5966 1951.3154 L -3183.5966 1929.8154 L -3190.5966 1914.3154 L -3202.0966 1889.8154 L -3208.5966 1873.3154 L -3217.5966 1854.3154 L -3230.0966 1832.8154 L -3242.0966 1816.3154 L -3246.1966 1810.7154 L -3246.1966 1807.5154 L -3242.7966 1803.1154 L -3239.5966 1799.9154 L -3236.1966 1796.9154 L -3232.3966 1795.1154 L -3228.5966 1796.3154 L -3226.5966 1798.3154 L -3211.5966 1820.3154 L -3199.5966 1847.3154 L -3187.5966 1872.3154 L -3137.5966 1977.3154 L -3101.5966 1975.3154 L -3065.5966 1973.3154 L -3034.5966 1968.3154 L -3003.5966 1964.3154 L -2997.1966 1961.6154 L -3008.6966 1926.6154 L -3021.6966 1898.6154 L -3031.5966 1875.3154 L -3052.5966 1829.3154 L -3059.1966 1813.1154 L -3061.1966 1807.1154 L -3060.1966 1804.1154 L -3057.6966 1803.1154 L -3038.6966 1801.6154 L -3035.1966 1803.6154 L -3026.1966 1827.1154 L -3011.1966 1868.1154 L -2984.5966 1935.3154 L -2977.1966 1958.1154 L -2947.1966 1953.1154 L -2890.1966 1945.6154 L -2875.1966 1940.1154 L -2864.6966 1930.6154 L -2858.1966 1931.6154 L -2850.5966 1935.3154 L -2838.5966 1947.3154 L -2828.5966 1983.3154 L -2820.5966 2009.3154 L -2816.5966 2028.3154 L -2836.5966 2033.8154 L -2836.6966 2029.6154 L -2846.5966 2005.3154 L -2853.5966 1979.3154 L -2857.0966 1965.3154 L -2859.5966 1961.8154 L -2866.0966 1960.8154 L -2887.5966 1964.3154 L -2900.5966 1965.3154 L -2904.5966 1966.3154 L -2899.5966 1975.3154 L -2895.5966 1987.3154 L -2890.0966 2008.8154 L -2886.0966 2025.8154 L -2905.0966 2029.8154 L -2913.5966 1997.3154 L -2920.5966 1978.3154 L -2924.0966 1972.3154 L -2929.5966 1970.3154 L -2973.5966 1977.3154 L -3017.5966 1981.3154 L -3061.5966 1988.3154 L -3101.5966 1991.3154 L -3122.5966 1992.3154 L -3126.5966 1992.3154 L -3129.5966 1994.3154 L -3129.0966 1998.8154 L -3098.0966 2056.3154 L -3122.5966 2056.8154 L -3125.5966 2055.8154 L -3132.0966 2043.3154 L -3138.5966 2028.8154 L -3145.0966 2014.3154 L -3149.5966 2002.3154 L -3153.0966 1996.3154 L -3155.0966 1993.3154 L -3159.0966 1991.8154 L -3166.5966 1990.8154 L -3178.5966 1989.3154 L -3192.5966 1986.3154 L -3215.5966 1979.3154 L -3228.0966 1973.3154 L -3240.5966 1965.3154 L -3258.5966 1950.3154 L -3274.0966 1932.3154 L -3284.5966 1920.3154 Z" stroke="black" stroke-linecap="round" stroke-linejoin="round" stroke-width="1"/>
      <path d="M -3061.82 2000.1154 L -3063.82 2018.1154 L -3029.82 2023.1154 L -2998.82 2028.1154 L -2977.82 2030.6154 L -2973.82 2030.6154 L -2966.82 2032.6154 L -2963.82 2036.1154 L -2957.32 2059.6154 L -2947.32 2080.1154 L -2943.32 2089.1154 L -2936.32 2094.1154 L -2931.32 2098.1154 L -2919.32 2105.1154 L -2915.32 2108.1154 L -2904.32 2113.1154 L -2879.32 2123.1154 L -2853.8202 2134.1154 L -2826.8202 2147.1154 L -2823.3202 2148.6154 L -2815.8202 2145.1154 L -2811.8202 2140.6154 L -2808.8202 2136.6154 L -2808.3202 2130.6154 L -2824.8202 2125.1154 L -2846.3202 2116.1154 L -2870.82 2104.1154 L -2894.32 2095.1154 L -2909.32 2088.1154 L -2922.32 2080.1154 L -2927.32 2071.1154 L -2932.32 2061.1154 L -2940.32 2036.1154 L -2866.8202 2024.1154 L -2842.3202 2014.1154 L -2846.3202 2007.1154 L -2876.32 2010.1154 L -2917.82 2012.1154 L -2942.82 2012.1154 L -2950.32 2012.6154 L -2953.32 2009.1154 L -2955.82 2001.1154 L -2972.82 1956.1154 L -2907.32 1946.6154 L -2875.82 1941.1154 L -2863.8202 1932.1154 L -2902.463 1933.4725 L -2939.463 1933.9725 L -2968.82 1934.1154 L -2984.82 1935.6154 L -3034.82 1805.6154 L -3039.82 1802.6154 L -3059.32 1804.6154 L -3060.82 1809.1154 L -3041.32 1853.6154 L -3025.82 1887.1154 L -3015.82 1911.1154 L -3006.82 1932.6154 L -3018.82 1928.1154 L -3027.32 1924.1154 L -3034.82 1915.1154 L -3051.82 1897.1154 L -3061.82 1883.1154 L -3078.82 1862.1154 L -3082.1966 1879.1154 L -3079.6966 1897.1154 L -3063.82 1916.1154 L -3046.82 1936.1154 L -3025.82 1948.1154 L -2999.82 1954.1154 L -2973.82 2011.1154 L -3024.82 2003.1154 Z" fill="#000062"/>
      <path d="M -3061.82 2000.1154 L -3063.82 2018.1154 L -3029.82 2023.1154 L -2998.82 2028.1154 L -2977.82 2030.6154 L -2973.82 2030.6154 L -2966.82 2032.6154 L -2963.82 2036.1154 L -2957.32 2059.6154 L -2947.32 2080.1154 L -2943.32 2089.1154 L -2936.32 2094.1154 L -2931.32 2098.1154 L -2919.32 2105.1154 L -2915.32 2108.1154 L -2904.32 2113.1154 L -2879.32 2123.1154 L -2853.8202 2134.1154 L -2826.8202 2147.1154 L -2823.3202 2148.6154 L -2815.8202 2145.1154 L -2811.8202 2140.6154 L -2808.8202 2136.6154 L -2808.3202 2130.6154 L -2824.8202 2125.1154 L -2846.3202 2116.1154 L -2870.82 2104.1154 L -2894.32 2095.1154 L -2909.32 2088.1154 L -2922.32 2080.1154 L -2927.32 2071.1154 L -2932.32 2061.1154 L -2940.32 2036.1154 L -2866.8202 2024.1154 L -2842.3202 2014.1154 L -2846.3202 2007.1154 L -2876.32 2010.1154 L -2917.82 2012.1154 L -2942.82 2012.1154 L -2950.32 2012.6154 L -2953.32 2009.1154 L -2955.82 2001.1154 L -2972.82 1956.1154 L -2907.32 1946.6154 L -2875.82 1941.1154 L -2863.8202 1932.1154 L -2902.463 1933.4725 L -2939.463 1933.9725 L -2968.82 1934.1154 L -2984.82 1935.6154 L -3034.82 1805.6154 L -3039.82 1802.6154 L -3059.32 1804.6154 L -3060.82 1809.1154 L -3041.32 1853.6154 L -3025.82 1887.1154 L -3015.82 1911.1154 L -3006.82 1932.6154 L -3018.82 1928.1154 L -3027.32 1924.1154 L -3034.82 1915.1154 L -3051.82 1897.1154 L -3061.82 1883.1154 L -3078.82 1862.1154 L -3082.1966 1879.1154 L -3079.6966 1897.1154 L -3063.82 1916.1154 L -3046.82 1936.1154 L -3025.82 1948.1154 L -2999.82 1954.1154 L -2973.82 2011.1154 L -3024.82 2003.1154 Z" stroke="black" stroke-linecap="round" stroke-linejoin="round" stroke-width="1"/>
      <path d="M -3409.1966 2018.6154 L -3386.1966 1985.6154 L -3384.9966 1976.8154 L -3386.1966 1972.4154 L -3387.9966 1967.0154 L -3390.3966 1962.4154 L -3393.1966 1957.4154 L -3397.1966 1953.6154 L -3401.9966 1950.2154 L -3409.1966 1946.6154 L -3418.5966 1943.4154 L -3424.5966 1942.4154 L -3431.1966 1942.6154 L -3434.1966 1943.0154 L -3437.1966 1944.1154 L -3443.1966 1946.6154 L -3449.6966 1950.6154 L -3452.1966 1953.1154 L -3455.1966 1956.6154 L -3458.1966 1964.6154 L -3459.3966 1972.6154 L -3459.5966 1977.8154 L -3459.5966 1983.0154 L -3458.7966 1988.0154 L -3458.1966 1991.8154 L -3456.7966 1996.8154 L -3455.3966 2000.4154 L -3452.9966 2003.4154 L -3450.5966 2006.8154 L -3447.9966 2009.0154 L -3445.1966 2011.8154 L -3440.3966 2014.6154 L -3435.1966 2017.6154 L -3428.3966 2019.4154 L -3421.1966 2019.6154 Z" fill="#00005f"/>
      <path d="M -3409.1966 2018.6154 L -3386.1966 1985.6154 L -3384.9966 1976.8154 L -3386.1966 1972.4154 L -3387.9966 1967.0154 L -3390.3966 1962.4154 L -3393.1966 1957.4154 L -3397.1966 1953.6154 L -3401.9966 1950.2154 L -3409.1966 1946.6154 L -3418.5966 1943.4154 L -3424.5966 1942.4154 L -3431.1966 1942.6154 L -3434.1966 1943.0154 L -3437.1966 1944.1154 L -3443.1966 1946.6154 L -3449.6966 1950.6154 L -3452.1966 1953.1154 L -3455.1966 1956.6154 L -3458.1966 1964.6154 L -3459.3966 1972.6154 L -3459.5966 1977.8154 L -3459.5966 1983.0154 L -3458.7966 1988.0154 L -3458.1966 1991.8154 L -3456.7966 1996.8154 L -3455.3966 2000.4154 L -3452.9966 2003.4154 L -3450.5966 2006.8154 L -3447.9966 2009.0154 L -3445.1966 2011.8154 L -3440.3966 2014.6154 L -3435.1966 2017.6154 L -3428.3966 2019.4154 L -3421.1966 2019.6154 Z" stroke="black" stroke-linecap="round" stroke-linejoin="round" stroke-width="2"/>
      <path d="M -3404.1966 1526.6154 L -3370.1966 1526.6154 L -3343.1966 1526.6154 L -3313.1966 1528.6154 L -3294.2883 1531.7485 L -3280.7883 1534.2485 L -3267.2883 1538.2485 L -3256.1966 1541.6154 L -3240.7883 1546.7485 L -3227.2883 1552.2485 L -3214.2883 1559.2485 L -3202.1966 1566.6154 L -3193.1966 1572.6154 L -3177.7883 1582.2485 L -3159.1966 1595.6154 L -3147.1966 1608.6154 L -3137.1966 1619.6154 L -3125.1966 1631.6154 L -3114.7883 1645.7485 L -3103.1966 1662.6154 L -3096.1966 1673.6154 L -3090.7883 1684.7485 L -3086.7883 1694.2485 L -3083.2883 1697.7485 L -3079.7883 1697.2485 L -3050.7883 1686.2485 L -3050.2883 1679.2485 L -3064.7883 1659.2485 L -3076.7883 1642.7485 L -3085.7883 1632.2485 L -3097.1966 1620.6154 L -3106.1966 1610.6154 L -3117.1966 1599.6154 L -3130.7883 1587.2485 L -3144.1966 1577.6154 L -3160.1966 1568.6154 L -3176.1966 1559.6154 L -3194.1966 1550.6154 L -3209.1966 1542.6154 L -3226.7883 1534.7485 L -3245.1966 1529.6154 L -3267.1966 1524.6154 L -3280.1966 1522.6154 L -3300.1966 1520.6154 L -3325.1966 1519.6154 L -3347.1966 1519.6154 L -3372.1966 1519.6154 L -3387.1966 1522.6154 L -3401.1966 1524.6154 Z" fill="#006"/>
      <path d="M -3404.1966 1526.6154 L -3370.1966 1526.6154 L -3343.1966 1526.6154 L -3313.1966 1528.6154 L -3294.2883 1531.7485 L -3280.7883 1534.2485 L -3267.2883 1538.2485 L -3256.1966 1541.6154 L -3240.7883 1546.7485 L -3227.2883 1552.2485 L -3214.2883 1559.2485 L -3202.1966 1566.6154 L -3193.1966 1572.6154 L -3177.7883 1582.2485 L -3159.1966 1595.6154 L -3147.1966 1608.6154 L -3137.1966 1619.6154 L -3125.1966 1631.6154 L -3114.7883 1645.7485 L -3103.1966 1662.6154 L -3096.1966 1673.6154 L -3090.7883 1684.7485 L -3086.7883 1694.2485 L -3083.2883 1697.7485 L -3079.7883 1697.2485 L -3050.7883 1686.2485 L -3050.2883 1679.2485 L -3064.7883 1659.2485 L -3076.7883 1642.7485 L -3085.7883 1632.2485 L -3097.1966 1620.6154 L -3106.1966 1610.6154 L -3117.1966 1599.6154 L -3130.7883 1587.2485 L -3144.1966 1577.6154 L -3160.1966 1568.6154 L -3176.1966 1559.6154 L -3194.1966 1550.6154 L -3209.1966 1542.6154 L -3226.7883 1534.7485 L -3245.1966 1529.6154 L -3267.1966 1524.6154 L -3280.1966 1522.6154 L -3300.1966 1520.6154 L -3325.1966 1519.6154 L -3347.1966 1519.6154 L -3372.1966 1519.6154 L -3387.1966 1522.6154 L -3401.1966 1524.6154 Z" stroke="black" stroke-linecap="round" stroke-linejoin="round" stroke-width="1"/>
      <path d="M -3386.1966 2028.6154 L -3383.6966 2024.1154 L -3380.1966 2020.6154 L -3357.1966 1986.6154 L -3322.1966 1931.1154 L -3312.1966 1915.6154 L -3305.1966 1901.6154 L -3301.1966 1895.1154 L -3298.1966 1885.6154 L -3292.1966 1881.6154 L -3278.1966 1855.6154 L -3266.1966 1834.6154 L -3252.1966 1813.6154 L -3242.1966 1802.6154 L -3232.1966 1794.6154 L -3216.1966 1784.6154 L -3199.1966 1777.6154 L -3178.1966 1771.6154 L -3154.1966 1764.6154 L -3135.1966 1759.6154 L -3116.6966 1755.6154 L -3103.1966 1753.1154 L -3089.1966 1751.6154 L -3071.6966 1753.1154 L -3068.1966 1751.6154 L -3068.1966 1746.6154 L -3077.1966 1726.6154 L -3083.1966 1713.6154 L -3086.6966 1706.1154 L -3088.1966 1700.6154 L -3086.1966 1695.6154 L -3080.1966 1690.6154 L -3068.1966 1684.6154 L -3059.1966 1682.6154 L -3052.6966 1682.6154 L -3047.1966 1684.6154 L -3043.1966 1687.6154 L -3039.1966 1696.6154 L -3031.1966 1713.6154 L -3024.1966 1728.6154 L -3022.1966 1741.6154 L -3009.1966 1741.6154 L -3017.1966 1721.1154 L -3022.6966 1708.6154 L -3027.1966 1697.6154 L -3024.1966 1693.6154 L -3016.1966 1688.6154 L -3006.1966 1684.6154 L -2999.1966 1684.6154 L -2995.6966 1688.6154 L -2987.6966 1706.6154 L -2977.1966 1728.6154 L -2969.6966 1745.6154 L -2963.1966 1763.6154 L -2962.6966 1769.6154 L -2965.1966 1775.6154 L -2969.6966 1777.6154 L -2981.6966 1778.6154 L -2990.1966 1778.6154 L -2995.1966 1777.1154 L -2999.1966 1774.6154 L -3006.1966 1763.6154 L -3010.1966 1760.6154 L -3018.1966 1761.6154 L -3022.1966 1769.6154 L -3033.1966 1779.6154 L -3052.1966 1778.6154 L -3064.1966 1776.6154 L -3070.1966 1774.1154 L -3071.6966 1774.1154 L -3079.1966 1771.6154 L -3099.1966 1774.6154 L -3132.1966 1782.6154 L -3150.1966 1785.6154 L -3178.1966 1793.6154 L -3194.1966 1798.6154 L -3209.1966 1805.1154 L -3217.1966 1810.1154 L -3230.6966 1825.1154 L -3243.6966 1843.6154 L -3252.1966 1858.6154 L -3262.1966 1877.6154 L -3271.1966 1894.6154 L -3281.1966 1910.6154 L -3293.1966 1932.6154 L -3303.1966 1950.6154 L -3285.1966 1958.6154 L -3265.1966 1971.6154 L -3253.1966 1984.6154 L -3251.1966 1992.1154 L -3253.6966 2000.6154 L -3258.1966 2009.6154 L -3262.6966 2015.1154 L -3265.6966 2018.1154 L -3270.1966 2021.1154 L -3280.1966 2024.6154 L -3284.6966 2025.6154 L -3287.6966 2024.6154 L -3290.6966 2023.1154 L -3300.1966 2018.1154 L -3317.1966 2008.6154 L -3333.6966 1999.1154 L -3337.1966 2000.6154 L -3349.1966 2016.6154 L -3351.1966 2020.1154 L -3352.1966 2023.1154 L -3349.1966 2024.6154 L -3343.6966 2025.1154 L -3325.1966 2026.6154 L -3308.6966 2029.6154 L -3289.1966 2032.6154 L -3272.1966 2034.6154 L -3241.1966 2040.6154 L -3201.1966 2048.6154 L -3151.1966 2054.6154 L -3113.1966 2057.6154 L -3075.6966 2054.6154 L -3035.1966 2049.6154 L -2994.1966 2044.6154 L -2941.1966 2035.6154 L -2911.1966 2030.6154 L -2887.1966 2026.6154 L -2859.6966 2020.1154 L -2842.1966 2012.1154 L -2841.1966 2022.1154 L -2835.1966 2032.6154 L -2841.1966 2036.6154 L -2862.6966 2041.6154 L -2881.1966 2045.1154 L -2908.1966 2053.1154 L -2931.6966 2058.1154 L -2962.1966 2063.6154 L -2985.6966 2067.1154 L -3007.1966 2069.1154 L -3034.1966 2072.6154 L -3063.1966 2075.6154 L -3092.1966 2077.6154 L -3080.1966 2098.6154 L -3075.1966 2107.6154 L -3070.1966 2117.6154 L -3061.1966 2125.6154 L -3049.1966 2134.6154 L -3031.1966 2142.6154 L -3014.1966 2149.6154 L -2995.1966 2153.6154 L -2979.1966 2154.6154 L -2961.1966 2154.6154 L -2934.1966 2151.6154 L -2914.1966 2148.6154 L -2899.6966 2145.1154 L -2893.1966 2142.6154 L -2887.6966 2139.1154 L -2888.1966 2129.6154 L -2889.6966 2107.6154 L -2892.6966 2087.1154 L -2896.6966 2069.1154 L -2898.6966 2057.6154 L -2900.6966 2050.1154 L -2900.3966 2050.2154 L -2881.1966 2045.1154 L -2878.1966 2061.1154 L -2875.1966 2077.1154 L -2873.1966 2088.1154 L -2871.1966 2098.6154 L -2870.1966 2114.6154 L -2869.1966 2136.6154 L -2864.1966 2138.1154 L -2855.1966 2136.6154 L -2833.6966 2130.6154 L -2825.6966 2123.1154 L -2824.1966 2112.1154 L -2825.6966 2102.1154 L -2827.1966 2084.6154 L -2830.6966 2066.6154 L -2832.6966 2050.6154 L -2834.6966 2042.1154 L -2836.1966 2034.6154 L -2835.6966 2034.1154 L -2818.1966 2028.1154 L -2815.1966 2038.1154 L -2812.1966 2054.6154 L -2808.6966 2077.1154 L -2807.1966 2098.6154 L -2807.1966 2111.1154 L -2807.1966 2120.1154 L -2808.1966 2132.1154 L -2810.6966 2137.6154 L -2816.1966 2143.6154 L -2825.1966 2148.6154 L -2845.1966 2152.6154 L -2874.1966 2158.6154 L -2897.1966 2163.6154 L -2917.1966 2168.6154 L -2943.1966 2172.6154 L -2967.1966 2174.6154 L -2984.1966 2174.6154 L -2999.1966 2172.6154 L -3014.1966 2169.6154 L -3027.1966 2165.6154 L -3041.1966 2159.6154 L -3053.1966 2154.6154 L -3065.1966 2148.6154 L -3076.1966 2141.6154 L -3084.1966 2134.6154 L -3092.1966 2123.6154 L -3102.1966 2108.6154 L -3113.1966 2089.6154 L -3116.1966 2080.6154 L -3148.1966 2077.6154 L -3197.1966 2070.6154 L -3235.1966 2063.6154 L -3278.1966 2055.6154 L -3313.1966 2048.6154 L -3346.1966 2044.6154 L -3371.1966 2042.6154 L -3381.1966 2040.6154 L -3384.6966 2035.1154 Z" fill="#00005e"/>
      <path d="M -3386.1966 2028.6154 L -3383.6966 2024.1154 L -3380.1966 2020.6154 L -3357.1966 1986.6154 L -3322.1966 1931.1154 L -3312.1966 1915.6154 L -3305.1966 1901.6154 L -3301.1966 1895.1154 L -3298.1966 1885.6154 L -3292.1966 1881.6154 L -3278.1966 1855.6154 L -3266.1966 1834.6154 L -3252.1966 1813.6154 L -3242.1966 1802.6154 L -3232.1966 1794.6154 L -3216.1966 1784.6154 L -3199.1966 1777.6154 L -3178.1966 1771.6154 L -3154.1966 1764.6154 L -3135.1966 1759.6154 L -3116.6966 1755.6154 L -3103.1966 1753.1154 L -3089.1966 1751.6154 L -3071.6966 1753.1154 L -3068.1966 1751.6154 L -3068.1966 1746.6154 L -3077.1966 1726.6154 L -3083.1966 1713.6154 L -3086.6966 1706.1154 L -3088.1966 1700.6154 L -3086.1966 1695.6154 L -3080.1966 1690.6154 L -3068.1966 1684.6154 L -3059.1966 1682.6154 L -3052.6966 1682.6154 L -3047.1966 1684.6154 L -3043.1966 1687.6154 L -3039.1966 1696.6154 L -3031.1966 1713.6154 L -3024.1966 1728.6154 L -3022.1966 1741.6154 L -3009.1966 1741.6154 L -3017.1966 1721.1154 L -3022.6966 1708.6154 L -3027.1966 1697.6154 L -3024.1966 1693.6154 L -3016.1966 1688.6154 L -3006.1966 1684.6154 L -2999.1966 1684.6154 L -2995.6966 1688.6154 L -2987.6966 1706.6154 L -2977.1966 1728.6154 L -2969.6966 1745.6154 L -2963.1966 1763.6154 L -2962.6966 1769.6154 L -2965.1966 1775.6154 L -2969.6966 1777.6154 L -2981.6966 1778.6154 L -2990.1966 1778.6154 L -2995.1966 1777.1154 L -2999.1966 1774.6154 L -3006.1966 1763.6154 L -3010.1966 1760.6154 L -3018.1966 1761.6154 L -3022.1966 1769.6154 L -3033.1966 1779.6154 L -3052.1966 1778.6154 L -3064.1966 1776.6154 L -3070.1966 1774.1154 L -3071.6966 1774.1154 L -3079.1966 1771.6154 L -3099.1966 1774.6154 L -3132.1966 1782.6154 L -3150.1966 1785.6154 L -3178.1966 1793.6154 L -3194.1966 1798.6154 L -3209.1966 1805.1154 L -3217.1966 1810.1154 L -3230.6966 1825.1154 L -3243.6966 1843.6154 L -3252.1966 1858.6154 L -3262.1966 1877.6154 L -3271.1966 1894.6154 L -3281.1966 1910.6154 L -3293.1966 1932.6154 L -3303.1966 1950.6154 L -3285.1966 1958.6154 L -3265.1966 1971.6154 L -3253.1966 1984.6154 L -3251.1966 1992.1154 L -3253.6966 2000.6154 L -3258.1966 2009.6154 L -3262.6966 2015.1154 L -3265.6966 2018.1154 L -3270.1966 2021.1154 L -3280.1966 2024.6154 L -3284.6966 2025.6154 L -3287.6966 2024.6154 L -3290.6966 2023.1154 L -3300.1966 2018.1154 L -3317.1966 2008.6154 L -3333.6966 1999.1154 L -3337.1966 2000.6154 L -3349.1966 2016.6154 L -3351.1966 2020.1154 L -3352.1966 2023.1154 L -3349.1966 2024.6154 L -3343.6966 2025.1154 L -3325.1966 2026.6154 L -3308.6966 2029.6154 L -3289.1966 2032.6154 L -3272.1966 2034.6154 L -3241.1966 2040.6154 L -3201.1966 2048.6154 L -3151.1966 2054.6154 L -3113.1966 2057.6154 L -3075.6966 2054.6154 L -3035.1966 2049.6154 L -2994.1966 2044.6154 L -2941.1966 2035.6154 L -2911.1966 2030.6154 L -2887.1966 2026.6154 L -2859.6966 2020.1154 L -2842.1966 2012.1154 L -2841.1966 2022.1154 L -2835.1966 2032.6154 L -2841.1966 2036.6154 L -2862.6966 2041.6154 L -2881.1966 2045.1154 L -2908.1966 2053.1154 L -2931.6966 2058.1154 L -2962.1966 2063.6154 L -2985.6966 2067.1154 L -3007.1966 2069.1154 L -3034.1966 2072.6154 L -3063.1966 2075.6154 L -3092.1966 2077.6154 L -3080.1966 2098.6154 L -3075.1966 2107.6154 L -3070.1966 2117.6154 L -3061.1966 2125.6154 L -3049.1966 2134.6154 L -3031.1966 2142.6154 L -3014.1966 2149.6154 L -2995.1966 2153.6154 L -2979.1966 2154.6154 L -2961.1966 2154.6154 L -2934.1966 2151.6154 L -2914.1966 2148.6154 L -2899.6966 2145.1154 L -2893.1966 2142.6154 L -2887.6966 2139.1154 L -2888.1966 2129.6154 L -2889.6966 2107.6154 L -2892.6966 2087.1154 L -2896.6966 2069.1154 L -2898.6966 2057.6154 L -2900.6966 2050.1154 L -2900.3966 2050.2154 L -2881.1966 2045.1154 L -2878.1966 2061.1154 L -2875.1966 2077.1154 L -2873.1966 2088.1154 L -2871.1966 2098.6154 L -2870.1966 2114.6154 L -2869.1966 2136.6154 L -2864.1966 2138.1154 L -2855.1966 2136.6154 L -2833.6966 2130.6154 L -2825.6966 2123.1154 L -2824.1966 2112.1154 L -2825.6966 2102.1154 L -2827.1966 2084.6154 L -2830.6966 2066.6154 L -2832.6966 2050.6154 L -2834.6966 2042.1154 L -2836.1966 2034.6154 L -2835.6966 2034.1154 L -2818.1966 2028.1154 L -2815.1966 2038.1154 L -2812.1966 2054.6154 L -2808.6966 2077.1154 L -2807.1966 2098.6154 L -2807.1966 2111.1154 L -2807.1966 2120.1154 L -2808.1966 2132.1154 L -2810.6966 2137.6154 L -2816.1966 2143.6154 L -2825.1966 2148.6154 L -2845.1966 2152.6154 L -2874.1966 2158.6154 L -2897.1966 2163.6154 L -2917.1966 2168.6154 L -2943.1966 2172.6154 L -2967.1966 2174.6154 L -2984.1966 2174.6154 L -2999.1966 2172.6154 L -3014.1966 2169.6154 L -3027.1966 2165.6154 L -3041.1966 2159.6154 L -3053.1966 2154.6154 L -3065.1966 2148.6154 L -3076.1966 2141.6154 L -3084.1966 2134.6154 L -3092.1966 2123.6154 L -3102.1966 2108.6154 L -3113.1966 2089.6154 L -3116.1966 2080.6154 L -3148.1966 2077.6154 L -3197.1966 2070.6154 L -3235.1966 2063.6154 L -3278.1966 2055.6154 L -3313.1966 2048.6154 L -3346.1966 2044.6154 L -3371.1966 2042.6154 L -3381.1966 2040.6154 L -3384.6966 2035.1154 Z" stroke="black" stroke-linecap="round" stroke-linejoin="round" stroke-width="1"/>
      <path d="M -3403.5 1677.1797 L -3423 1671 L -3443 1673.3768 L -3454.5 1679.0812 L -3466.5 1686.2116 L -3463 1687.6377 L -3458 1688.113 L -3455 1690.4899 L -3456 1695.2435 L -3465.5 1699.9971 L -3479.5 1699.5217 L -3494.5 1698.571 L -3508.5 1698.571 L -3517.5 1700.9478 L -3530.5 1707.1275 L -3537.5 1715.684 L -3545 1727.0928 L -3533 1722.3391 L -3522 1719.9623 L -3513.5 1720.4377 L -3506.5 1723.7652 L -3505.5 1728.5188 L -3511 1731.8464 L -3518.5 1734.6986 L -3525.5 1734.2232 L -3534.5 1732.797 L -3544.5 1730.8957 L -3554.5 1728.9942 L -3568 1727.5681 L -3580 1728.9942 L -3593 1732.797 L -3603 1738.9768 L -3613.5 1744.6812 L -3628 1757.516 L -3618.5 1756.0899 L -3604 1755.6145 L -3593 1757.0406 L -3580 1763.6957 L -3570.5 1768.4493 L -3562.5 1773.203 L -3554 1777.0058 L -3544.5 1779.3826 L -3536 1778.4319 L -3530 1777.9565 L -3525 1778.9072 L -3526 1782.7101 L -3536 1787.9391 L -3546 1787.9391 L -3555 1787.4638 L -3566 1782.7101 L -3577.5 1777.9565 L -3565 1792.6928 L -3556 1800.2986 L -3548 1805.0522 L -3535.5 1808.855 L -3525.5 1811.2319 L -3514.5 1810.7565 L -3503 1807.9043 L -3488 1805.5275 L -3478.5 1803.626 L -3470.5 1803.626 L -3460 1806.9536 L -3460 1811.7072 L -3464 1814.084 L -3468.5 1814.5594 L -3477.5 1813.1333 L -3470.5 1821.2145 L -3461 1827.3942 L -3448.5 1832.6232 L -3437 1835 L -3418 1834.5246 L -3403.5 1831.6725 L -3392.5 1831.197 L -3383.5 1829.2957 Z" fill="#00004b"/>
      <path d="M -3403.5 1677.1797 L -3423 1671 L -3443 1673.3768 L -3454.5 1679.0812 L -3466.5 1686.2116 L -3463 1687.6377 L -3458 1688.113 L -3455 1690.4899 L -3456 1695.2435 L -3465.5 1699.9971 L -3479.5 1699.5217 L -3494.5 1698.571 L -3508.5 1698.571 L -3517.5 1700.9478 L -3530.5 1707.1275 L -3537.5 1715.684 L -3545 1727.0928 L -3533 1722.3391 L -3522 1719.9623 L -3513.5 1720.4377 L -3506.5 1723.7652 L -3505.5 1728.5188 L -3511 1731.8464 L -3518.5 1734.6986 L -3525.5 1734.2232 L -3534.5 1732.797 L -3544.5 1730.8957 L -3554.5 1728.9942 L -3568 1727.5681 L -3580 1728.9942 L -3593 1732.797 L -3603 1738.9768 L -3613.5 1744.6812 L -3628 1757.516 L -3618.5 1756.0899 L -3604 1755.6145 L -3593 1757.0406 L -3580 1763.6957 L -3570.5 1768.4493 L -3562.5 1773.203 L -3554 1777.0058 L -3544.5 1779.3826 L -3536 1778.4319 L -3530 1777.9565 L -3525 1778.9072 L -3526 1782.7101 L -3536 1787.9391 L -3546 1787.9391 L -3555 1787.4638 L -3566 1782.7101 L -3577.5 1777.9565 L -3565 1792.6928 L -3556 1800.2986 L -3548 1805.0522 L -3535.5 1808.855 L -3525.5 1811.2319 L -3514.5 1810.7565 L -3503 1807.9043 L -3488 1805.5275 L -3478.5 1803.626 L -3470.5 1803.626 L -3460 1806.9536 L -3460 1811.7072 L -3464 1814.084 L -3468.5 1814.5594 L -3477.5 1813.1333 L -3470.5 1821.2145 L -3461 1827.3942 L -3448.5 1832.6232 L -3437 1835 L -3418 1834.5246 L -3403.5 1831.6725 L -3392.5 1831.197 L -3383.5 1829.2957 Z" stroke="gray" stroke-linecap="round" stroke-linejoin="round" stroke-width=".25"/>
      <path d="M -3411.872 1679.8854 L -3432.465 1678 L -3448.378 1681.7707 L -3444.6337 1685.5414 L -3443.6977 1694.9682 L -3454.9302 1705.3376 L -3468.971 1713.8217 L -3479.2674 1714.7643 L -3491.436 1712.879 L -3498.9244 1711.9363 L -3510.157 1710.9936 L -3498.9244 1720.4204 L -3490.5 1723.2484 L -3480.2035 1725.1338 L -3471.779 1726.0764 L -3465.2267 1724.191 L -3456.8023 1721.363 L -3454.9302 1722.3057 L -3456.8023 1732.6752 L -3463.3547 1736.4459 L -3478.3314 1736.4459 L -3491.436 1735.5032 L -3497.9884 1738.3312 L -3505.4767 1743.9873 L -3516.7093 1751.5287 L -3527.942 1756.242 L -3540.1105 1761.898 L -3553.215 1761.898 L -3571 1754.3567 L -3550.407 1769.4395 L -3535.4302 1770.3822 L -3521.3895 1768.4968 L -3508.285 1763.7834 L -3494.244 1760.0127 L -3480.2035 1760.0127 L -3468.971 1761.898 L -3459.6105 1766.6115 L -3456.8023 1770.3822 L -3453.058 1776.0382 L -3453.058 1779.809 L -3462.4186 1774.1529 L -3472.715 1773.2102 L -3484.8837 1772.2675 L -3495.1802 1774.1529 L -3501.7326 1777.9236 L -3520.4535 1788.293 L -3499.8605 1780.7516 L -3488.628 1781.6943 L -3478.3314 1783.5796 L -3465.2267 1787.3503 L -3453.994 1793.949 L -3451.186 1797.7197 L -3447.442 1802.4331 L -3445.5698 1809.9745 L -3449.314 1816.5732 L -3453.058 1820.344 L -3442.7616 1825.0573 L -3426.849 1826 L -3410 1822.2293 Z" fill="#91c2ff"/>
      <path d="M -3411.872 1679.8854 L -3432.465 1678 L -3448.378 1681.7707 L -3444.6337 1685.5414 L -3443.6977 1694.9682 L -3454.9302 1705.3376 L -3468.971 1713.8217 L -3479.2674 1714.7643 L -3491.436 1712.879 L -3498.9244 1711.9363 L -3510.157 1710.9936 L -3498.9244 1720.4204 L -3490.5 1723.2484 L -3480.2035 1725.1338 L -3471.779 1726.0764 L -3465.2267 1724.191 L -3456.8023 1721.363 L -3454.9302 1722.3057 L -3456.8023 1732.6752 L -3463.3547 1736.4459 L -3478.3314 1736.4459 L -3491.436 1735.5032 L -3497.9884 1738.3312 L -3505.4767 1743.9873 L -3516.7093 1751.5287 L -3527.942 1756.242 L -3540.1105 1761.898 L -3553.215 1761.898 L -3571 1754.3567 L -3550.407 1769.4395 L -3535.4302 1770.3822 L -3521.3895 1768.4968 L -3508.285 1763.7834 L -3494.244 1760.0127 L -3480.2035 1760.0127 L -3468.971 1761.898 L -3459.6105 1766.6115 L -3456.8023 1770.3822 L -3453.058 1776.0382 L -3453.058 1779.809 L -3462.4186 1774.1529 L -3472.715 1773.2102 L -3484.8837 1772.2675 L -3495.1802 1774.1529 L -3501.7326 1777.9236 L -3520.4535 1788.293 L -3499.8605 1780.7516 L -3488.628 1781.6943 L -3478.3314 1783.5796 L -3465.2267 1787.3503 L -3453.994 1793.949 L -3451.186 1797.7197 L -3447.442 1802.4331 L -3445.5698 1809.9745 L -3449.314 1816.5732 L -3453.058 1820.344 L -3442.7616 1825.0573 L -3426.849 1826 L -3410 1822.2293 Z" stroke="gray" stroke-linecap="round" stroke-linejoin="round" stroke-width=".25"/>
      <ellipse cx="-3370.756" cy="1751" rx="80.50013" ry="80.00013" fill="#00005d"/>
      <ellipse cx="-3370.756" cy="1751" rx="80.50013" ry="80.00013" stroke="black" stroke-linecap="round" stroke-linejoin="round" stroke-width="1"/>
      <ellipse cx="-3370.756" cy="1751" rx="72.002615" ry="71.24761" fill="white"/>
      <ellipse cx="-3370.756" cy="1751" rx="72.002615" ry="71.24761" stroke="black" stroke-linecap="round" stroke-linejoin="round" stroke-width="1"/>
      <ellipse cx="-3370.756" cy="1751.6882" rx="64.75635" ry="64.61885" fill="#00005d"/>
      <ellipse cx="-3370.756" cy="1751.6882" rx="64.75635" ry="64.61885" stroke="black" stroke-linecap="round" stroke-linejoin="round" stroke-width="1"/>
      <path d="M -3381.3666 1707.1251 L -3384.9245 1716.6918 L -3376.7374 1723.3216 L -3387.1235 1722.6043 L -3390.6814 1732.171 L -3393.5424 1722.161 L -3403.9285 1721.4437 L -3395.3106 1715.9745 L -3398.1716 1705.9645 L -3389.9845 1712.5943 Z" fill="red"/>
      <path d="M -3372.3666 1781.1251 L -3375.9245 1790.6918 L -3367.7374 1797.3216 L -3378.1235 1796.6043 L -3381.6814 1806.171 L -3384.5424 1796.161 L -3394.9285 1795.4437 L -3386.3106 1789.9745 L -3389.1716 1779.9645 L -3380.9845 1786.5943 Z" fill="red"/>
      <path d="M -3315.737 1740.3844 L -3319.295 1749.951 L -3311.1078 1756.5809 L -3321.494 1755.8636 L -3325.0518 1765.4302 L -3327.9128 1755.4203 L -3338.299 1754.703 L -3329.681 1749.2338 L -3332.542 1739.2238 L -3324.355 1745.8536 Z" fill="red"/>
      <path d="M -3421.256 1757.3919 L -3340.4142 1707.6882 L -3332.8353 1729.6882 L -3344.6248 1724.7993 L -3358.9405 1733.7622 L -3335.3616 1795.6882 L -3386.73 1751.6882 L -3401.888 1760.6511 L -3400.2036 1772.8733 Z" fill="white"/>
      <path d="M -3421.256 1757.3919 L -3340.4142 1707.6882 L -3332.8353 1729.6882 L -3344.6248 1724.7993 L -3358.9405 1733.7622 L -3335.3616 1795.6882 L -3386.73 1751.6882 L -3401.888 1760.6511 L -3400.2036 1772.8733 Z" stroke="gray" stroke-linecap="round" stroke-linejoin="round" stroke-width=".25"/>
      <path d="M -3601 1745 L -3589 1735 L -3580 1734 L -3571 1733 L -3564 1736 L -3557 1738 L -3552 1741 L -3543 1744 L -3538 1744 L -3532 1744 L -3525 1744 L -3516 1742 L -3512 1740 L -3519 1747 L -3527 1751 L -3536 1754 L -3542 1755 L -3552 1755 L -3558 1754 L -3565 1751 L -3573 1748 L -3580 1745 L -3589 1743 L -3595 1743 Z" fill="red"/>
      <path d="M -3543.764 1798.559 L -3533.3124 1804.1067 L -3525.6077 1804.429 L -3517.903 1804.7512 L -3511.9884 1802.7708 L -3506.053 1801.381 L -3501.846 1799.4603 L -3494.224 1797.4203 L -3489.955 1797.2712 L -3484.8323 1797.0923 L -3478.8558 1796.8836 L -3471.1305 1797.7964 L -3467.674 1798.8582 L -3473.795 1794.933 L -3480.7077 1792.8094 L -3488.4536 1791.306 L -3493.597 1790.8944 L -3502.135 1791.1926 L -3507.237 1791.962 L -3513.1515 1793.9424 L -3519.92 1795.9525 L -3525.8346 1797.933 L -3533.4774 1799.3823 L -3538.6 1799.5612 Z" fill="red"/>
      <path d="M -3527.373 1709.7883 L -3519.145 1703.896 L -3512.6346 1702.709 L -3506.124 1701.5219 L -3500.863 1702.4772 L -3495.654 1702.9352 L -3491.851 1704.0438 L -3485.1315 1704.8458 L -3481.4856 1704.4626 L -3477.1104 1704.0027 L -3472.006 1703.4662 L -3465.5477 1701.782 L -3462.7354 1700.4808 L -3467.474 1704.4981 L -3473.0985 1707.1003 L -3479.5045 1709.2819 L -3483.8274 1710.239 L -3491.1194 1711.0054 L -3495.547 1710.968 L -3500.808 1710.0127 L -3506.7985 1709.134 L -3512.0596 1708.1788 L -3518.727 1707.874 L -3523.102 1708.3339 Z" fill="red"/>
    </g>
  </g>
</svg>
