<?xml version="1.0" encoding="UTF-8" standalone="no"?>
<!DOCTYPE svg PUBLIC "-//W3C//DTD SVG 1.1//EN" "http://www.w3.org/Graphics/SVG/1.1/DTD/svg11.dtd">
<svg xmlns="http://www.w3.org/2000/svg" xmlns:xl="http://www.w3.org/1999/xlink" version="1.1" viewBox="-4626.5 1643.5 860.5 659" width="860.5pt" height="659pt" xmlns:dc="http://purl.org/dc/elements/1.1/">
  <metadata> Produced by OmniGraffle 7.6.1 
    <dc:date>2018-09-19 02:13:53 +0000</dc:date>
  </metadata>
  <defs>
    <linearGradient x1="0" x2="1" id="Gradient" gradientUnits="userSpaceOnUse">
      <stop offset="0" stop-color="#464646"/>
      <stop offset="1" stop-color="#f0f0f0"/>
    </linearGradient>
    <linearGradient id="Obj_Gradient" xl:href="#Gradient" gradientTransform="translate(-4150.614 1903.222) rotate(72) scale(359.227)"/>
  </defs>
  <g stroke="none" stroke-opacity="1" stroke-dasharray="none" fill="none" fill-opacity="1">
    <title>Washington Redskins</title>
    <g>
      <title>Capa 1</title>
      <path d="M -4159 2229.0446 L -4129 2233.0446 L -4098 2227.0446 L -4070 2215.0446 L -4048 2197.0446 L -4036 2177.0446 L -4028 2150.0446 L -4022 2109.0446 L -4034 2066.0446 L -4038 2039.0446 L -4042 2002.0446 L -4036 1978.0446 L -4033 1952.0446 L -4020 1936.0446 L -4003.2203 1927.0446 L -4010.2203 1927.0446 L -4017.2203 1927.0446 L -4031.2203 1929.0446 L -4049.2203 1929.0446 L -4071.2203 1926.0446 L -4067.2203 1915.0446 L -4079.2203 1915.0446 L -4095.2203 1918.0446 L -4108.2203 1923.0446 L -4121.2203 1927.0446 L -4128.2203 1931.0446 L -4136.2203 1935.0446 L -4152.2203 1941.0446 L -4163.2203 1959.0446 L -4171.2203 1969.0446 L -4180.2203 1986.0446 L -4187 2013.0446 L -4187 2053.0446 L -4179.2203 2089.0446 L -4168 2124.0446 L -4153 2147.0446 L -4152.7203 2154.0446 L -4153.2203 2165.0446 L -4153.2203 2174.5446 L -4152.7203 2182.0446 L -4154 2190.0446 L -4153.7203 2203.5446 L -4157 2217.0446 L -4160.2203 2222.5446 L -4165 2228.0446 Z" fill="url(#Obj_Gradient)"/>
      <path d="M -4159 2229.0446 L -4129 2233.0446 L -4098 2227.0446 L -4070 2215.0446 L -4048 2197.0446 L -4036 2177.0446 L -4028 2150.0446 L -4022 2109.0446 L -4034 2066.0446 L -4038 2039.0446 L -4042 2002.0446 L -4036 1978.0446 L -4033 1952.0446 L -4020 1936.0446 L -4003.2203 1927.0446 L -4010.2203 1927.0446 L -4017.2203 1927.0446 L -4031.2203 1929.0446 L -4049.2203 1929.0446 L -4071.2203 1926.0446 L -4067.2203 1915.0446 L -4079.2203 1915.0446 L -4095.2203 1918.0446 L -4108.2203 1923.0446 L -4121.2203 1927.0446 L -4128.2203 1931.0446 L -4136.2203 1935.0446 L -4152.2203 1941.0446 L -4163.2203 1959.0446 L -4171.2203 1969.0446 L -4180.2203 1986.0446 L -4187 2013.0446 L -4187 2053.0446 L -4179.2203 2089.0446 L -4168 2124.0446 L -4153 2147.0446 L -4152.7203 2154.0446 L -4153.2203 2165.0446 L -4153.2203 2174.5446 L -4152.7203 2182.0446 L -4154 2190.0446 L -4153.7203 2203.5446 L -4157 2217.0446 L -4160.2203 2222.5446 L -4165 2228.0446 Z" stroke="black" stroke-linecap="round" stroke-linejoin="round" stroke-width="1"/>
      <path d="M -4570 2172 L -4572 2178 L -4577 2181 L -4570 2199 L -4562 2213 L -4558 2226 L -4554 2235 L -4553 2253 L -4548 2266 L -4536 2274 L -4525 2276 L -4508 2278 L -4495 2276 L -4482 2272 L -4468 2269 L -4456 2264 L -4448 2260 L -4440 2253 L -4433 2245 L -4422 2253 L -4411 2261 L -4397 2270 L -4382 2278 L -4364 2285 L -4345 2290 L -4326 2296 L -4306 2299 L -4286 2302 L -4264 2301 L -4247 2297 L -4225 2291 L -4206 2280 L -4193 2273 L -4180 2258 L -4170 2235 L -4157 2219.5 L -4154 2206 L -4152.5 2178 L -4152 2148.5 L -4167 2123 L -4176 2099 L -4186 2062 L -4188 2029 L -4184 1996 L -4169 1965 L -4151 1942 L -4118 1926 L -4090 1916 L -4068 1916 L -4068 1921 L -4071 1926 L -4049 1928 L -4024 1928 L -4e3 1926 L -3994 1929 L -3979 1931 L -3967 1924 L -3964 1902 L -3964 1879 L -3979 1840 L -3988 1820 L -4e3 1803 L -4016 1776 L -4050 1740 L -4080 1714 L -4110 1692 L -4143 1675 L -4178 1660 L -4212 1651 L -4237 1647 L -4263 1645 L -4291 1644 L -4315 1644 L -4344 1646 L -4371 1652 L -4399 1659 L -4425 1667 L -4438 1673 L -4455 1680 L -4476 1692 L -4504 1710 L -4525 1728 L -4546 1751 L -4563 1772 L -4577 1793 L -4591 1820 L -4604 1848 L -4613 1877 L -4620 1904 L -4626 1946 L -4625 1983 L -4621 2019 L -4614 2059 L -4602 2097 L -4588 2131 L -4576 2158 Z" fill="#510000"/>
      <path d="M -4570 2172 L -4572 2178 L -4577 2181 L -4570 2199 L -4562 2213 L -4558 2226 L -4554 2235 L -4553 2253 L -4548 2266 L -4536 2274 L -4525 2276 L -4508 2278 L -4495 2276 L -4482 2272 L -4468 2269 L -4456 2264 L -4448 2260 L -4440 2253 L -4433 2245 L -4422 2253 L -4411 2261 L -4397 2270 L -4382 2278 L -4364 2285 L -4345 2290 L -4326 2296 L -4306 2299 L -4286 2302 L -4264 2301 L -4247 2297 L -4225 2291 L -4206 2280 L -4193 2273 L -4180 2258 L -4170 2235 L -4157 2219.5 L -4154 2206 L -4152.5 2178 L -4152 2148.5 L -4167 2123 L -4176 2099 L -4186 2062 L -4188 2029 L -4184 1996 L -4169 1965 L -4151 1942 L -4118 1926 L -4090 1916 L -4068 1916 L -4068 1921 L -4071 1926 L -4049 1928 L -4024 1928 L -4e3 1926 L -3994 1929 L -3979 1931 L -3967 1924 L -3964 1902 L -3964 1879 L -3979 1840 L -3988 1820 L -4e3 1803 L -4016 1776 L -4050 1740 L -4080 1714 L -4110 1692 L -4143 1675 L -4178 1660 L -4212 1651 L -4237 1647 L -4263 1645 L -4291 1644 L -4315 1644 L -4344 1646 L -4371 1652 L -4399 1659 L -4425 1667 L -4438 1673 L -4455 1680 L -4476 1692 L -4504 1710 L -4525 1728 L -4546 1751 L -4563 1772 L -4577 1793 L -4591 1820 L -4604 1848 L -4613 1877 L -4620 1904 L -4626 1946 L -4625 1983 L -4621 2019 L -4614 2059 L -4602 2097 L -4588 2131 L -4576 2158 Z" stroke="black" stroke-linecap="round" stroke-linejoin="round" stroke-width="1"/>
      <path d="M -4257.6 2027.5 L -4260.2 2023.1 L -4261 2018.1 L -4260.8 2016.5 L -4260 2015.1 L -4258.9 2012.7 L -4257.4 2010.3 L -4255.6 2007.5 L -4251.8 2005.9 L -4247 2006.7 L -4241.8 2011.3 L -4238.4 2015.7 L -4231.4 2027.7 L -4222.4 2038.7 L -4212.4 2049.7 L -4201.4 2062.7 L -4189.9 2072.2 L -4177.9 2082.7 L -4168.9 2087.2 L -4158.9 2090.7 L -4148.4 2094.7 L -4137.9 2097.2 L -4128.9 2098.2 L -4122.4 2099.2 L -4133.4 2075.7 L -4143.4 2054.2 L -4150.4 2038.7 L -4161.9 2014.2 L -4168.4 1997.7 L -4177.4 1978.7 L -4189.9 1957.2 L -4201.9 1940.7 L -4206 1935.1 L -4206 1931.9 L -4202.6 1927.5 L -4199.4 1924.3 L -4196 1921.3 L -4192.2 1919.5 L -4188.4 1920.7 L -4186.4 1922.7 L -4171.4 1944.7 L -4159.4 1971.7 L -4147.4 1996.7 L -4097.4 2101.7 L -4061.4 2099.7 L -4025.4 2097.7 L -3994.4 2092.7 L -3963.4 2088.7 L -3957 2086 L -3968.5 2051 L -3981.5 2023 L -3991.4 1999.7 L -4012.4 1953.7 L -4019 1937.5 L -4021 1931.5 L -4020 1928.5 L -4017.5 1927.5 L -3998.5 1926 L -3995 1928 L -3986 1951.5 L -3971 1992.5 L -3944.4 2059.7 L -3937 2082.5 L -3907 2077.5 L -3850 2070 L -3835 2064.5 L -3824.5 2055 L -3818 2056 L -3810.4 2059.7 L -3798.4 2071.7 L -3788.4 2107.7 L -3780.4 2133.7 L -3776.4 2152.7 L -3796.4 2158.2 L -3796.5 2154 L -3806.4 2129.7 L -3813.4 2103.7 L -3816.9 2089.7 L -3819.4 2086.2 L -3825.9 2085.2 L -3847.4 2088.7 L -3860.4 2089.7 L -3864.4 2090.7 L -3859.4 2099.7 L -3855.4 2111.7 L -3849.9 2133.2 L -3845.9 2150.2 L -3864.9 2154.2 L -3873.4 2121.7 L -3880.4 2102.7 L -3883.9 2096.7 L -3889.4 2094.7 L -3933.4 2101.7 L -3977.4 2105.7 L -4021.4 2112.7 L -4061.4 2115.7 L -4082.4 2116.7 L -4086.4 2116.7 L -4089.4 2118.7 L -4088.9 2123.2 L -4057.9 2180.7 L -4082.4 2181.2 L -4085.4 2180.2 L -4091.9 2167.7 L -4098.4 2153.2 L -4104.9 2138.7 L -4109.4 2126.7 L -4112.9 2120.7 L -4114.9 2117.7 L -4118.9 2116.2 L -4126.4 2115.2 L -4138.4 2113.7 L -4152.4 2110.7 L -4175.4 2103.7 L -4187.9 2097.7 L -4200.4 2089.7 L -4218.4 2074.7 L -4233.9 2056.7 L -4244.4 2044.7 Z" fill="yellow"/>
      <path d="M -4257.6 2027.5 L -4260.2 2023.1 L -4261 2018.1 L -4260.8 2016.5 L -4260 2015.1 L -4258.9 2012.7 L -4257.4 2010.3 L -4255.6 2007.5 L -4251.8 2005.9 L -4247 2006.7 L -4241.8 2011.3 L -4238.4 2015.7 L -4231.4 2027.7 L -4222.4 2038.7 L -4212.4 2049.7 L -4201.4 2062.7 L -4189.9 2072.2 L -4177.9 2082.7 L -4168.9 2087.2 L -4158.9 2090.7 L -4148.4 2094.7 L -4137.9 2097.2 L -4128.9 2098.2 L -4122.4 2099.2 L -4133.4 2075.7 L -4143.4 2054.2 L -4150.4 2038.7 L -4161.9 2014.2 L -4168.4 1997.7 L -4177.4 1978.7 L -4189.9 1957.2 L -4201.9 1940.7 L -4206 1935.1 L -4206 1931.9 L -4202.6 1927.5 L -4199.4 1924.3 L -4196 1921.3 L -4192.2 1919.5 L -4188.4 1920.7 L -4186.4 1922.7 L -4171.4 1944.7 L -4159.4 1971.7 L -4147.4 1996.7 L -4097.4 2101.7 L -4061.4 2099.7 L -4025.4 2097.7 L -3994.4 2092.7 L -3963.4 2088.7 L -3957 2086 L -3968.5 2051 L -3981.5 2023 L -3991.4 1999.7 L -4012.4 1953.7 L -4019 1937.5 L -4021 1931.5 L -4020 1928.5 L -4017.5 1927.5 L -3998.5 1926 L -3995 1928 L -3986 1951.5 L -3971 1992.5 L -3944.4 2059.7 L -3937 2082.5 L -3907 2077.5 L -3850 2070 L -3835 2064.5 L -3824.5 2055 L -3818 2056 L -3810.4 2059.7 L -3798.4 2071.7 L -3788.4 2107.7 L -3780.4 2133.7 L -3776.4 2152.7 L -3796.4 2158.2 L -3796.5 2154 L -3806.4 2129.7 L -3813.4 2103.7 L -3816.9 2089.7 L -3819.4 2086.2 L -3825.9 2085.2 L -3847.4 2088.7 L -3860.4 2089.7 L -3864.4 2090.7 L -3859.4 2099.7 L -3855.4 2111.7 L -3849.9 2133.2 L -3845.9 2150.2 L -3864.9 2154.2 L -3873.4 2121.7 L -3880.4 2102.7 L -3883.9 2096.7 L -3889.4 2094.7 L -3933.4 2101.7 L -3977.4 2105.7 L -4021.4 2112.7 L -4061.4 2115.7 L -4082.4 2116.7 L -4086.4 2116.7 L -4089.4 2118.7 L -4088.9 2123.2 L -4057.9 2180.7 L -4082.4 2181.2 L -4085.4 2180.2 L -4091.9 2167.7 L -4098.4 2153.2 L -4104.9 2138.7 L -4109.4 2126.7 L -4112.9 2120.7 L -4114.9 2117.7 L -4118.9 2116.2 L -4126.4 2115.2 L -4138.4 2113.7 L -4152.4 2110.7 L -4175.4 2103.7 L -4187.9 2097.7 L -4200.4 2089.7 L -4218.4 2074.7 L -4233.9 2056.7 L -4244.4 2044.7 Z" stroke="black" stroke-linecap="round" stroke-linejoin="round" stroke-width="2"/>
      <path d="M -4021.6236 2124.5 L -4023.6236 2142.5 L -3989.6236 2147.5 L -3958.6236 2152.5 L -3937.6236 2155 L -3933.6236 2155 L -3926.6236 2157 L -3923.6236 2160.5 L -3917.1236 2184 L -3907.1236 2204.5 L -3903.1236 2213.5 L -3896.1236 2218.5 L -3891.1236 2222.5 L -3879.1236 2229.5 L -3875.1236 2232.5 L -3864.1236 2237.5 L -3839.1236 2247.5 L -3813.6236 2258.5 L -3786.6236 2271.5 L -3783.1236 2273 L -3775.6236 2269.5 L -3771.6236 2265 L -3768.6236 2261 L -3768.1236 2255 L -3784.6236 2249.5 L -3806.1236 2240.5 L -3830.6236 2228.5 L -3854.1236 2219.5 L -3869.1236 2212.5 L -3882.1236 2204.5 L -3887.1236 2195.5 L -3892.1236 2185.5 L -3900.1236 2160.5 L -3826.6236 2148.5 L -3802.1236 2138.5 L -3806.1236 2131.5 L -3836.1236 2134.5 L -3877.6236 2136.5 L -3902.6236 2136.5 L -3910.1236 2137 L -3913.1236 2133.5 L -3915.6236 2125.5 L -3932.6236 2080.5 L -3867.1236 2071 L -3835.6236 2065.5 L -3823.6236 2056.5 L -3862.2665 2057.8571 L -3899.2665 2058.3571 L -3928.6236 2058.5 L -3944.6236 2060 L -3994.6236 1930 L -3999.6236 1927 L -4019.1236 1929 L -4020.6236 1933.5 L -4001.1236 1978 L -3985.6236 2011.5 L -3975.6236 2035.5 L -3966.6236 2057 L -3978.6236 2052.5 L -3987.1236 2048.5 L -3994.6236 2039.5 L -4011.6236 2021.5 L -4021.6236 2007.5 L -4038.6236 1986.5 L -4042 2003.5 L -4039.5 2021.5 L -4023.6236 2040.5 L -4006.6236 2060.5 L -3985.6236 2072.5 L -3959.6236 2078.5 L -3933.6236 2135.5 L -3984.6236 2127.5 Z" fill="yellow"/>
      <path d="M -4021.6236 2124.5 L -4023.6236 2142.5 L -3989.6236 2147.5 L -3958.6236 2152.5 L -3937.6236 2155 L -3933.6236 2155 L -3926.6236 2157 L -3923.6236 2160.5 L -3917.1236 2184 L -3907.1236 2204.5 L -3903.1236 2213.5 L -3896.1236 2218.5 L -3891.1236 2222.5 L -3879.1236 2229.5 L -3875.1236 2232.5 L -3864.1236 2237.5 L -3839.1236 2247.5 L -3813.6236 2258.5 L -3786.6236 2271.5 L -3783.1236 2273 L -3775.6236 2269.5 L -3771.6236 2265 L -3768.6236 2261 L -3768.1236 2255 L -3784.6236 2249.5 L -3806.1236 2240.5 L -3830.6236 2228.5 L -3854.1236 2219.5 L -3869.1236 2212.5 L -3882.1236 2204.5 L -3887.1236 2195.5 L -3892.1236 2185.5 L -3900.1236 2160.5 L -3826.6236 2148.5 L -3802.1236 2138.5 L -3806.1236 2131.5 L -3836.1236 2134.5 L -3877.6236 2136.5 L -3902.6236 2136.5 L -3910.1236 2137 L -3913.1236 2133.5 L -3915.6236 2125.5 L -3932.6236 2080.5 L -3867.1236 2071 L -3835.6236 2065.5 L -3823.6236 2056.5 L -3862.2665 2057.8571 L -3899.2665 2058.3571 L -3928.6236 2058.5 L -3944.6236 2060 L -3994.6236 1930 L -3999.6236 1927 L -4019.1236 1929 L -4020.6236 1933.5 L -4001.1236 1978 L -3985.6236 2011.5 L -3975.6236 2035.5 L -3966.6236 2057 L -3978.6236 2052.5 L -3987.1236 2048.5 L -3994.6236 2039.5 L -4011.6236 2021.5 L -4021.6236 2007.5 L -4038.6236 1986.5 L -4042 2003.5 L -4039.5 2021.5 L -4023.6236 2040.5 L -4006.6236 2060.5 L -3985.6236 2072.5 L -3959.6236 2078.5 L -3933.6236 2135.5 L -3984.6236 2127.5 Z" stroke="black" stroke-linecap="round" stroke-linejoin="round" stroke-width="2"/>
      <path d="M -4369 2143 L -4346 2110 L -4344.8 2101.2 L -4346 2096.8 L -4347.8 2091.4 L -4350.2 2086.8 L -4353 2081.8 L -4357 2078 L -4361.8 2074.6 L -4369 2071 L -4378.4 2067.8 L -4384.4 2066.8 L -4391 2067 L -4394 2067.4 L -4397 2068.5 L -4403 2071 L -4409.5 2075 L -4412 2077.5 L -4415 2081 L -4418 2089 L -4419.2 2097 L -4419.4 2102.2 L -4419.4 2107.4 L -4418.6 2112.4 L -4418 2116.2 L -4416.6 2121.2 L -4415.2 2124.8 L -4412.8 2127.8 L -4410.4 2131.2 L -4407.8 2133.4 L -4405 2136.2 L -4400.2 2139 L -4395 2142 L -4388.2 2143.8 L -4381 2144 Z" fill="yellow"/>
      <path d="M -4369 2143 L -4346 2110 L -4344.8 2101.2 L -4346 2096.8 L -4347.8 2091.4 L -4350.2 2086.8 L -4353 2081.8 L -4357 2078 L -4361.8 2074.6 L -4369 2071 L -4378.4 2067.8 L -4384.4 2066.8 L -4391 2067 L -4394 2067.4 L -4397 2068.5 L -4403 2071 L -4409.5 2075 L -4412 2077.5 L -4415 2081 L -4418 2089 L -4419.2 2097 L -4419.4 2102.2 L -4419.4 2107.4 L -4418.6 2112.4 L -4418 2116.2 L -4416.6 2121.2 L -4415.2 2124.8 L -4412.8 2127.8 L -4410.4 2131.2 L -4407.8 2133.4 L -4405 2136.2 L -4400.2 2139 L -4395 2142 L -4388.2 2143.8 L -4381 2144 Z" stroke="#7f8080" stroke-linecap="round" stroke-linejoin="round" stroke-width="1"/>
      <path d="M -4494.4 2078 L -4492.4 2064 L -4492.4 2049 L -4494.4 2030 L -4499.4 2013 L -4511.4 1995 L -4517.5 1975.5 L -4524 1954 L -4529.4 1935 L -4532 1908.5 L -4535.5 1877 L -4537.5 1854.5 L -4540.4 1840 L -4549.4 1863 L -4554.4 1894 L -4556.4 1917 L -4555.4 1946 L -4548.4 1976 L -4542.4 1999 L -4530.4 2027 L -4516.4 2054 L -4505.4 2069 Z" fill="white"/>
      <path d="M -4494.4 2078 L -4492.4 2064 L -4492.4 2049 L -4494.4 2030 L -4499.4 2013 L -4511.4 1995 L -4517.5 1975.5 L -4524 1954 L -4529.4 1935 L -4532 1908.5 L -4535.5 1877 L -4537.5 1854.5 L -4540.4 1840 L -4549.4 1863 L -4554.4 1894 L -4556.4 1917 L -4555.4 1946 L -4548.4 1976 L -4542.4 1999 L -4530.4 2027 L -4516.4 2054 L -4505.4 2069 Z" stroke="#7f8080" stroke-linecap="round" stroke-linejoin="round" stroke-width="1"/>
      <path d="M -4538.4 1840 L -4528.5 1941 L -4497.4 2034 L -4485.4 2049 L -4469.4 2066 L -4450.4 2078 L -4432.4 2084 L -4420.4 2089 L -4419.4 2076 L -4423.4 2059 L -4432.4 2041 L -4441.4 2021 L -4463.4 1996 L -4476.4 1963 L -4491.4 1933 L -4502.4 1904 L -4513.4 1879 L -4526.4 1854 L -4532.4 1843 Z" fill="white"/>
      <path d="M -4538.4 1840 L -4528.5 1941 L -4497.4 2034 L -4485.4 2049 L -4469.4 2066 L -4450.4 2078 L -4432.4 2084 L -4420.4 2089 L -4419.4 2076 L -4423.4 2059 L -4432.4 2041 L -4441.4 2021 L -4463.4 1996 L -4476.4 1963 L -4491.4 1933 L -4502.4 1904 L -4513.4 1879 L -4526.4 1854 L -4532.4 1843 Z" stroke="#7f8080" stroke-linecap="round" stroke-linejoin="round" stroke-width="1"/>
      <path d="M -4498 2027.5 L -4481.4 2033 L -4467.4 2037 L -4455.4 2035 L -4444.4 2030 L -4438 2030 L -4427.4 2050 L -4420 2073 L -4420 2089 L -4437 2082 L -4457 2074.5 L -4476 2059 L -4489.5 2043.5 L -4497.5 2029 L -4492.5 2040 L -4491.4 2057 L -4494 2078 L -4506 2068 L -4516.4 2053 L -4524.4 2038 L -4528.4 2026 L -4509.4 2034 L -4498.4 2028 Z" fill="#370000"/>
      <path d="M -4498 2027.5 L -4481.4 2033 L -4467.4 2037 L -4455.4 2035 L -4444.4 2030 L -4438 2030 L -4427.4 2050 L -4420 2073 L -4420 2089 L -4437 2082 L -4457 2074.5 L -4476 2059 L -4489.5 2043.5 L -4497.5 2029 L -4492.5 2040 L -4491.4 2057 L -4494 2078 L -4506 2068 L -4516.4 2053 L -4524.4 2038 L -4528.4 2026 L -4509.4 2034 L -4498.4 2028 Z" stroke="#7f8080" stroke-linecap="round" stroke-linejoin="round" stroke-width="1"/>
      <ellipse cx="-4403.9" cy="1837.5" rx="134.50021" ry="125.5002" fill="#ecec00"/>
      <ellipse cx="-4403.9" cy="1837.5" rx="134.50021" ry="125.5002" stroke="black" stroke-linecap="round" stroke-linejoin="round" stroke-width="1"/>
      <ellipse cx="-4404.5" cy="1837.75" rx="116.50019" ry="106.25017" fill="white"/>
      <ellipse cx="-4404.5" cy="1837.75" rx="116.50019" ry="106.25017" stroke="black" stroke-linecap="round" stroke-linejoin="round" stroke-width="1"/>
      <path d="M -4484.4096 1788.2727 L -4382.931 1767 L -4367.7494 1768.6364 L -4357.362 1774.3636 L -4350.1705 1784.1818 L -4346.1753 1796.4545 L -4343.778 1810.3636 L -4347.7734 1821.8182 L -4353.3667 1830 L -4362.955 1837.3636 L -4324.601 1853.7273 L -4313.4146 1852.909 L -4308.6203 1855.3636 L -4308.6203 1862.7273 L -4312.6155 1866 L -4315.8117 1869.2727 L -4364.5533 1879.091 L -4373.3427 1879.091 L -4378.936 1877.4545 L -4379.735 1871.7273 L -4378.137 1866 L -4400.51 1856.1818 L -4405.3044 1854.5455 L -4426.8786 1857.8182 L -4423.6824 1875 L -4418.888 1875 L -4414.094 1875 L -4410.8977 1877.4545 L -4407.7015 1882.3636 L -4410.0987 1888.909 L -4464.4335 1902 L -4470.027 1900.3636 L -4472.424 1897.091 L -4473.223 1892.1818 L -4470.027 1886.4545 L -4466.8307 1884.8182 L -4483.6105 1801.3636 L -4490.802 1801.3636 L -4491.601 1798.909 L -4492.4 1794.8182 L -4489.204 1790.7273 Z" fill="#480000"/>
      <path d="M -4484.4096 1788.2727 L -4382.931 1767 L -4367.7494 1768.6364 L -4357.362 1774.3636 L -4350.1705 1784.1818 L -4346.1753 1796.4545 L -4343.778 1810.3636 L -4347.7734 1821.8182 L -4353.3667 1830 L -4362.955 1837.3636 L -4324.601 1853.7273 L -4313.4146 1852.909 L -4308.6203 1855.3636 L -4308.6203 1862.7273 L -4312.6155 1866 L -4315.8117 1869.2727 L -4364.5533 1879.091 L -4373.3427 1879.091 L -4378.936 1877.4545 L -4379.735 1871.7273 L -4378.137 1866 L -4400.51 1856.1818 L -4405.3044 1854.5455 L -4426.8786 1857.8182 L -4423.6824 1875 L -4418.888 1875 L -4414.094 1875 L -4410.8977 1877.4545 L -4407.7015 1882.3636 L -4410.0987 1888.909 L -4464.4335 1902 L -4470.027 1900.3636 L -4472.424 1897.091 L -4473.223 1892.1818 L -4470.027 1886.4545 L -4466.8307 1884.8182 L -4483.6105 1801.3636 L -4490.802 1801.3636 L -4491.601 1798.909 L -4492.4 1794.8182 L -4489.204 1790.7273 Z" stroke="#7f8080" stroke-linecap="round" stroke-linejoin="round" stroke-width="1"/>
      <path d="M -4430.874 1843.909 L -4407.7015 1840.6364 L -4401.309 1836.5455 L -4395.716 1830.8182 L -4391.7207 1825.091 L -4390.1226 1818.5455 L -4389.3236 1811.1818 L -4390.9217 1803 L -4397.314 1797.2727 L -4406.9025 1791.5455 L -4441.2613 1796.4545 Z" fill="white"/>
      <path d="M -4430.874 1843.909 L -4407.7015 1840.6364 L -4401.309 1836.5455 L -4395.716 1830.8182 L -4391.7207 1825.091 L -4390.1226 1818.5455 L -4389.3236 1811.1818 L -4390.9217 1803 L -4397.314 1797.2727 L -4406.9025 1791.5455 L -4441.2613 1796.4545 Z" stroke="#7f8080" stroke-linecap="round" stroke-linejoin="round" stroke-width="1"/>
      <path d="M -4367 1651 L -4333 1651 L -4306 1651 L -4276 1653 L -4257.0917 1656.1331 L -4243.5917 1658.6331 L -4230.0917 1662.6331 L -4219 1666 L -4203.5917 1671.1331 L -4190.0917 1676.6331 L -4177.0917 1683.6331 L -4165 1691 L -4156 1697 L -4140.5917 1706.6331 L -4122 1720 L -4110 1733 L -4100 1744 L -4088 1756 L -4077.5917 1770.1331 L -4066 1787 L -4059 1798 L -4053.5917 1809.1331 L -4049.5917 1818.6331 L -4046.0917 1822.1331 L -4042.5917 1821.6331 L -4013.5917 1810.6331 L -4013.0917 1803.6331 L -4027.5917 1783.6331 L -4039.5917 1767.1331 L -4048.5917 1756.6331 L -4060 1745 L -4069 1735 L -4080 1724 L -4093.5917 1711.6331 L -4107 1702 L -4123 1693 L -4139 1684 L -4157 1675 L -4172 1667 L -4189.5917 1659.1331 L -4208 1654 L -4230 1649 L -4243 1647 L -4263 1645 L -4288 1644 L -4310 1644 L -4335 1644 L -4350 1647 L -4364 1649 Z" fill="yellow"/>
      <path d="M -4367 1651 L -4333 1651 L -4306 1651 L -4276 1653 L -4257.0917 1656.1331 L -4243.5917 1658.6331 L -4230.0917 1662.6331 L -4219 1666 L -4203.5917 1671.1331 L -4190.0917 1676.6331 L -4177.0917 1683.6331 L -4165 1691 L -4156 1697 L -4140.5917 1706.6331 L -4122 1720 L -4110 1733 L -4100 1744 L -4088 1756 L -4077.5917 1770.1331 L -4066 1787 L -4059 1798 L -4053.5917 1809.1331 L -4049.5917 1818.6331 L -4046.0917 1822.1331 L -4042.5917 1821.6331 L -4013.5917 1810.6331 L -4013.0917 1803.6331 L -4027.5917 1783.6331 L -4039.5917 1767.1331 L -4048.5917 1756.6331 L -4060 1745 L -4069 1735 L -4080 1724 L -4093.5917 1711.6331 L -4107 1702 L -4123 1693 L -4139 1684 L -4157 1675 L -4172 1667 L -4189.5917 1659.1331 L -4208 1654 L -4230 1649 L -4243 1647 L -4263 1645 L -4288 1644 L -4310 1644 L -4335 1644 L -4350 1647 L -4364 1649 Z" stroke="black" stroke-linecap="round" stroke-linejoin="round" stroke-width="1"/>
      <path d="M -4346 2153 L -4343.5 2148.5 L -4340 2145 L -4317 2111 L -4282 2055.5 L -4272 2040 L -4265 2026 L -4261 2019.5 L -4258 2010 L -4252 2006 L -4238 1980 L -4226 1959 L -4212 1938 L -4202 1927 L -4192 1919 L -4176 1909 L -4159 1902 L -4138 1896 L -4114 1889 L -4095 1884 L -4076.5 1880 L -4063 1877.5 L -4049 1876 L -4031.5 1877.5 L -4028 1876 L -4028 1871 L -4037 1851 L -4043 1838 L -4046.5 1830.5 L -4048 1825 L -4046 1820 L -4040 1815 L -4028 1809 L -4019 1807 L -4012.5 1807 L -4007 1809 L -4003 1812 L -3999 1821 L -3991 1838 L -3984 1853 L -3982 1866 L -3969 1866 L -3977 1845.5 L -3982.5 1833 L -3987 1822 L -3984 1818 L -3976 1813 L -3966 1809 L -3959 1809 L -3955.5 1813 L -3947.5 1831 L -3937 1853 L -3929.5 1870 L -3923 1888 L -3922.5 1894 L -3925 1900 L -3929.5 1902 L -3941.5 1903 L -3950 1903 L -3955 1901.5 L -3959 1899 L -3966 1888 L -3970 1885 L -3978 1886 L -3982 1894 L -3993 1904 L -4012 1903 L -4024 1901 L -4030 1898.5 L -4031.5 1898.5 L -4039 1896 L -4059 1899 L -4092 1907 L -4110 1910 L -4138 1918 L -4154 1923 L -4169 1929.5 L -4177 1934.5 L -4190.5 1949.5 L -4203.5 1968 L -4212 1983 L -4222 2002 L -4231 2019 L -4241 2035 L -4253 2057 L -4263 2075 L -4245 2083 L -4225 2096 L -4213 2109 L -4211 2116.5 L -4213.5 2125 L -4218 2134 L -4222.5 2139.5 L -4225.5 2142.5 L -4230 2145.5 L -4240 2149 L -4244.5 2150 L -4247.5 2149 L -4250.5 2147.5 L -4260 2142.5 L -4277 2133 L -4293.5 2123.5 L -4297 2125 L -4309 2141 L -4311 2144.5 L -4312 2147.5 L -4309 2149 L -4303.5 2149.5 L -4285 2151 L -4268.5 2154 L -4249 2157 L -4232 2159 L -4201 2165 L -4161 2173 L -4111 2179 L -4073 2182 L -4035.5 2179 L -3995 2174 L -3954 2169 L -3901 2160 L -3871 2155 L -3847 2151 L -3819.5 2144.5 L -3802 2136.5 L -3801 2146.5 L -3795 2157 L -3801 2161 L -3822.5 2166 L -3841 2169.5 L -3868 2177.5 L -3891.5 2182.5 L -3922 2188 L -3945.5 2191.5 L -3967 2193.5 L -3994 2197 L -4023 2200 L -4052 2202 L -4040 2223 L -4035 2232 L -4030 2242 L -4021 2250 L -4009 2259 L -3991 2267 L -3974 2274 L -3955 2278 L -3939 2279 L -3921 2279 L -3894 2276 L -3874 2273 L -3859.5 2269.5 L -3853 2267 L -3847.5 2263.5 L -3848 2254 L -3849.5 2232 L -3852.5 2211.5 L -3856.5 2193.5 L -3858.5 2182 L -3860.5 2174.5 L -3860.2 2174.6 L -3841 2169.5 L -3838 2185.5 L -3835 2201.5 L -3833 2212.5 L -3831 2223 L -3830 2239 L -3829 2261 L -3824 2262.5 L -3815 2261 L -3793.5 2255 L -3785.5 2247.5 L -3784 2236.5 L -3785.5 2226.5 L -3787 2209 L -3790.5 2191 L -3792.5 2175 L -3794.5 2166.5 L -3796 2159 L -3795.5 2158.5 L -3778 2152.5 L -3775 2162.5 L -3772 2179 L -3768.5 2201.5 L -3767 2223 L -3767 2235.5 L -3767 2244.5 L -3768 2256.5 L -3770.5 2262 L -3776 2268 L -3785 2273 L -3805 2277 L -3834 2283 L -3857 2288 L -3877 2293 L -3903 2297 L -3927 2299 L -3944 2299 L -3959 2297 L -3974 2294 L -3987 2290 L -4001 2284 L -4013 2279 L -4025 2273 L -4036 2266 L -4044 2259 L -4052 2248 L -4062 2233 L -4073 2214 L -4076 2205 L -4108 2202 L -4157 2195 L -4195 2188 L -4238 2180 L -4273 2173 L -4306 2169 L -4331 2167 L -4341 2165 L -4344.5 2159.5 Z" fill="yellow"/>
      <path d="M -4346 2153 L -4343.5 2148.5 L -4340 2145 L -4317 2111 L -4282 2055.5 L -4272 2040 L -4265 2026 L -4261 2019.5 L -4258 2010 L -4252 2006 L -4238 1980 L -4226 1959 L -4212 1938 L -4202 1927 L -4192 1919 L -4176 1909 L -4159 1902 L -4138 1896 L -4114 1889 L -4095 1884 L -4076.5 1880 L -4063 1877.5 L -4049 1876 L -4031.5 1877.5 L -4028 1876 L -4028 1871 L -4037 1851 L -4043 1838 L -4046.5 1830.5 L -4048 1825 L -4046 1820 L -4040 1815 L -4028 1809 L -4019 1807 L -4012.5 1807 L -4007 1809 L -4003 1812 L -3999 1821 L -3991 1838 L -3984 1853 L -3982 1866 L -3969 1866 L -3977 1845.5 L -3982.5 1833 L -3987 1822 L -3984 1818 L -3976 1813 L -3966 1809 L -3959 1809 L -3955.5 1813 L -3947.5 1831 L -3937 1853 L -3929.5 1870 L -3923 1888 L -3922.5 1894 L -3925 1900 L -3929.5 1902 L -3941.5 1903 L -3950 1903 L -3955 1901.5 L -3959 1899 L -3966 1888 L -3970 1885 L -3978 1886 L -3982 1894 L -3993 1904 L -4012 1903 L -4024 1901 L -4030 1898.5 L -4031.5 1898.5 L -4039 1896 L -4059 1899 L -4092 1907 L -4110 1910 L -4138 1918 L -4154 1923 L -4169 1929.5 L -4177 1934.5 L -4190.5 1949.5 L -4203.5 1968 L -4212 1983 L -4222 2002 L -4231 2019 L -4241 2035 L -4253 2057 L -4263 2075 L -4245 2083 L -4225 2096 L -4213 2109 L -4211 2116.5 L -4213.5 2125 L -4218 2134 L -4222.5 2139.5 L -4225.5 2142.5 L -4230 2145.5 L -4240 2149 L -4244.5 2150 L -4247.5 2149 L -4250.5 2147.5 L -4260 2142.5 L -4277 2133 L -4293.5 2123.5 L -4297 2125 L -4309 2141 L -4311 2144.5 L -4312 2147.5 L -4309 2149 L -4303.5 2149.5 L -4285 2151 L -4268.5 2154 L -4249 2157 L -4232 2159 L -4201 2165 L -4161 2173 L -4111 2179 L -4073 2182 L -4035.5 2179 L -3995 2174 L -3954 2169 L -3901 2160 L -3871 2155 L -3847 2151 L -3819.5 2144.5 L -3802 2136.5 L -3801 2146.5 L -3795 2157 L -3801 2161 L -3822.5 2166 L -3841 2169.5 L -3868 2177.5 L -3891.5 2182.5 L -3922 2188 L -3945.5 2191.5 L -3967 2193.5 L -3994 2197 L -4023 2200 L -4052 2202 L -4040 2223 L -4035 2232 L -4030 2242 L -4021 2250 L -4009 2259 L -3991 2267 L -3974 2274 L -3955 2278 L -3939 2279 L -3921 2279 L -3894 2276 L -3874 2273 L -3859.5 2269.5 L -3853 2267 L -3847.5 2263.5 L -3848 2254 L -3849.5 2232 L -3852.5 2211.5 L -3856.5 2193.5 L -3858.5 2182 L -3860.5 2174.5 L -3860.2 2174.6 L -3841 2169.5 L -3838 2185.5 L -3835 2201.5 L -3833 2212.5 L -3831 2223 L -3830 2239 L -3829 2261 L -3824 2262.5 L -3815 2261 L -3793.5 2255 L -3785.5 2247.5 L -3784 2236.5 L -3785.5 2226.5 L -3787 2209 L -3790.5 2191 L -3792.5 2175 L -3794.5 2166.5 L -3796 2159 L -3795.5 2158.5 L -3778 2152.5 L -3775 2162.5 L -3772 2179 L -3768.5 2201.5 L -3767 2223 L -3767 2235.5 L -3767 2244.5 L -3768 2256.5 L -3770.5 2262 L -3776 2268 L -3785 2273 L -3805 2277 L -3834 2283 L -3857 2288 L -3877 2293 L -3903 2297 L -3927 2299 L -3944 2299 L -3959 2297 L -3974 2294 L -3987 2290 L -4001 2284 L -4013 2279 L -4025 2273 L -4036 2266 L -4044 2259 L -4052 2248 L -4062 2233 L -4073 2214 L -4076 2205 L -4108 2202 L -4157 2195 L -4195 2188 L -4238 2180 L -4273 2173 L -4306 2169 L -4331 2167 L -4341 2165 L -4344.5 2159.5 Z" stroke="black" stroke-linecap="round" stroke-linejoin="round" stroke-width="2"/>
    </g>
  </g>
</svg>
