<?xml version="1.0" encoding="UTF-8" standalone="no"?>
<!DOCTYPE svg PUBLIC "-//W3C//DTD SVG 1.1//EN" "http://www.w3.org/Graphics/SVG/1.1/DTD/svg11.dtd">
<svg xmlns="http://www.w3.org/2000/svg" xmlns:xl="http://www.w3.org/1999/xlink" version="1.1" viewBox="-915.5 -298.5 432.92897 448.4" width="432.92897pt" height="448.4pt" xmlns:dc="http://purl.org/dc/elements/1.1/">
  <metadata> Produced by OmniGraffle 7.6.1 
    <dc:date>2019-06-06 18:31:24 +0000</dc:date>
  </metadata>
  <defs>
    <radialGradient cx="0" cy="0" r="1" id="Gradient" gradientUnits="userSpaceOnUse">
      <stop offset="0" stop-color="#cbcbcb"/>
      <stop offset="1" stop-color="#010e1d"/>
    </radialGradient>
    <radialGradient id="Obj_Gradient" xl:href="#Gradient" gradientTransform="translate(-700.24075 -270.6) scale(70.26272)"/>
    <linearGradient x1="0" x2="1" id="Gradient_2" gradientUnits="userSpaceOnUse">
      <stop offset="0" stop-color="white"/>
      <stop offset="1" stop-color="#2242e4"/>
    </linearGradient>
    <linearGradient id="Obj_Gradient_2" xl:href="#Gradient_2" gradientTransform="translate(-698.9 -297.2441) rotate(90) scale(25)"/>
    <radialGradient cx="0" cy="0" r="1" id="Gradient_3" gradientUnits="userSpaceOnUse">
      <stop offset="0" stop-color="white"/>
      <stop offset="1" stop-color="#3a8eed"/>
    </radialGradient>
    <radialGradient id="Obj_Gradient_3" xl:href="#Gradient_3" gradientTransform="translate(-525.271 -135.69725) scale(46.03694)"/>
    <radialGradient id="Obj_Gradient_4" xl:href="#Gradient_3" gradientTransform="translate(-872.8 -134.75385) scale(46.03694)"/>
    <radialGradient cx="0" cy="0" r="1" id="Gradient_4" gradientUnits="userSpaceOnUse">
      <stop offset="0" stop-color="white"/>
      <stop offset="1" stop-color="#1542e5"/>
    </radialGradient>
    <radialGradient id="Obj_Gradient_5" xl:href="#Gradient_4" gradientTransform="translate(-700.94075 -263.6447) scale(83.83496)"/>
    <radialGradient cx="0" cy="0" r="1" id="Gradient_5" gradientUnits="userSpaceOnUse">
      <stop offset="0" stop-color="#dadada"/>
      <stop offset="1" stop-color="#0542eb"/>
    </radialGradient>
    <radialGradient id="Obj_Gradient_6" xl:href="#Gradient_5" gradientTransform="translate(-698.9 138.98339) scale(135.94141)"/>
    <radialGradient id="Obj_Gradient_7" xl:href="#Gradient_4" gradientTransform="translate(-698.9 -263.11887) scale(83.83496)"/>
    <radialGradient id="Obj_Gradient_8" xl:href="#Gradient_3" gradientTransform="translate(-525.271 -134.75385) scale(46.03694)"/>
    <radialGradient id="Obj_Gradient_9" xl:href="#Gradient_3" gradientTransform="translate(-872.8 -135.69725) scale(46.03694)"/>
  </defs>
  <g stroke="none" stroke-opacity="1" stroke-dasharray="none" fill="none" fill-opacity="1">
    <title>espanyol</title>
    <g>
      <title>Capa 1</title>
      <path d="M -761.99435 -297.40955 L -753.8289 -294.29184 C -752.9709 -293.96424 -752.0941 -293.68833 -751.2031 -293.46558 L -737.4859 -290.0363 C -736.3242 -289.74587 -735.1417 -289.5466 -733.949 -289.44034 L -716.42285 -287.8786 C -715.835 -287.82622 -715.24536 -287.7965 -714.6552 -287.78946 L -699.1763 -287.6052 C -698.886 -287.60173 -698.5956 -287.60377 -698.3053 -287.6113 L -683.882 -287.98594 C -683.5212 -287.9953 -683.1607 -288.01317 -682.8008 -288.0395 L -668.4295 -289.09107 C -667.438 -289.1636 -666.45234 -289.30036 -665.4786 -289.50044 L -653.9056 -291.87845 C -652.8636 -292.09256 -651.83774 -292.3787 -650.83535 -292.7348 L -639.08336 -296.90986 C -637.993 -297.29723 -636.7898 -296.76646 -636.34075 -295.7 L -636.34075 -295.7 C -635.8186 -294.4599 -635.6666 -293.09515 -635.90315 -291.77055 L -636.0836 -290.75986 C -636.3874 -289.0587 -636.88194 -287.3972 -637.55786 -285.8068 L -639.1011 -282.1757 C -639.65965 -280.86142 -640.3394 -279.60202 -641.1315 -278.41382 L -644.8173 -272.88515 C -645.5648 -271.7639 -646.4094 -270.7105 -647.3414 -269.7371 L -653.63646 -263.16226 C -654.5045 -262.2556 -655.4454 -261.42154 -656.44954 -260.6684 L -664.82445 -254.38723 C -665.7009 -253.72992 -666.6231 -253.13606 -667.5842 -252.6102 L -674.7694 -248.67867 C -676.0805 -247.96126 -677.4584 -247.37336 -678.8836 -246.9233 L -685.5565 -244.81607 C -687.2734 -244.2739 -689.048 -243.9352 -690.8439 -243.80692 L -697.7303 -243.31503 C -698.8026 -243.23844 -699.879 -243.23712 -700.95146 -243.31108 L -709.3877 -243.8929 C -710.4219 -243.96422 -711.4501 -244.10537 -712.4652 -244.3154 L -719.6004 -245.79165 C -721.55235 -246.1955 -723.4435 -246.8514 -725.2264 -247.7428 L -729.8858 -250.07252 C -731.1199 -250.6896 -732.296 -251.41646 -733.3999 -252.24434 L -739.0818 -256.5058 C -739.521 -256.83517 -739.9482 -257.18013 -740.3626 -257.54005 L -746.1178 -262.53797 C -746.9321 -263.2451 -747.6956 -264.00865 -748.4028 -264.82294 L -752.808 -269.89562 C -753.5621 -270.764 -754.25 -271.6877 -754.8659 -272.65895 L -758.5996 -278.5467 C -758.9602 -279.1153 -759.2956 -279.69944 -759.60495 -280.29745 L -761.2253 -283.43017 C -761.8345 -284.60785 -762.3406 -285.836 -762.7382 -287.1009 L -764.0184 -291.17438 C -764.2332 -291.85775 -764.4159 -292.5508 -764.566 -293.25122 L -764.64075 -293.6 C -764.8354 -294.50843 -764.72815 -295.45557 -764.3353 -296.29746 L -764.24075 -296.5 C -763.8463 -297.3453 -762.8658 -297.7423 -761.99435 -297.40955 Z" fill="url(#Obj_Gradient)"/>
      <path d="M -761.99435 -297.40955 L -753.8289 -294.29184 C -752.9709 -293.96424 -752.0941 -293.68833 -751.2031 -293.46558 L -737.4859 -290.0363 C -736.3242 -289.74587 -735.1417 -289.5466 -733.949 -289.44034 L -716.42285 -287.8786 C -715.835 -287.82622 -715.24536 -287.7965 -714.6552 -287.78946 L -699.1763 -287.6052 C -698.886 -287.60173 -698.5956 -287.60377 -698.3053 -287.6113 L -683.882 -287.98594 C -683.5212 -287.9953 -683.1607 -288.01317 -682.8008 -288.0395 L -668.4295 -289.09107 C -667.438 -289.1636 -666.45234 -289.30036 -665.4786 -289.50044 L -653.9056 -291.87845 C -652.8636 -292.09256 -651.83774 -292.3787 -650.83535 -292.7348 L -639.08336 -296.90986 C -637.993 -297.29723 -636.7898 -296.76646 -636.34075 -295.7 L -636.34075 -295.7 C -635.8186 -294.4599 -635.6666 -293.09515 -635.90315 -291.77055 L -636.0836 -290.75986 C -636.3874 -289.0587 -636.88194 -287.3972 -637.55786 -285.8068 L -639.1011 -282.1757 C -639.65965 -280.86142 -640.3394 -279.60202 -641.1315 -278.41382 L -644.8173 -272.88515 C -645.5648 -271.7639 -646.4094 -270.7105 -647.3414 -269.7371 L -653.63646 -263.16226 C -654.5045 -262.2556 -655.4454 -261.42154 -656.44954 -260.6684 L -664.82445 -254.38723 C -665.7009 -253.72992 -666.6231 -253.13606 -667.5842 -252.6102 L -674.7694 -248.67867 C -676.0805 -247.96126 -677.4584 -247.37336 -678.8836 -246.9233 L -685.5565 -244.81607 C -687.2734 -244.2739 -689.048 -243.9352 -690.8439 -243.80692 L -697.7303 -243.31503 C -698.8026 -243.23844 -699.879 -243.23712 -700.95146 -243.31108 L -709.3877 -243.8929 C -710.4219 -243.96422 -711.4501 -244.10537 -712.4652 -244.3154 L -719.6004 -245.79165 C -721.55235 -246.1955 -723.4435 -246.8514 -725.2264 -247.7428 L -729.8858 -250.07252 C -731.1199 -250.6896 -732.296 -251.41646 -733.3999 -252.24434 L -739.0818 -256.5058 C -739.521 -256.83517 -739.9482 -257.18013 -740.3626 -257.54005 L -746.1178 -262.53797 C -746.9321 -263.2451 -747.6956 -264.00865 -748.4028 -264.82294 L -752.808 -269.89562 C -753.5621 -270.764 -754.25 -271.6877 -754.8659 -272.65895 L -758.5996 -278.5467 C -758.9602 -279.1153 -759.2956 -279.69944 -759.60495 -280.29745 L -761.2253 -283.43017 C -761.8345 -284.60785 -762.3406 -285.836 -762.7382 -287.1009 L -764.0184 -291.17438 C -764.2332 -291.85775 -764.4159 -292.5508 -764.566 -293.25122 L -764.64075 -293.6 C -764.8354 -294.50843 -764.72815 -295.45557 -764.3353 -296.29746 L -764.24075 -296.5 C -763.8463 -297.3453 -762.8658 -297.7423 -761.99435 -297.40955 Z" stroke="#7f8080" stroke-linecap="round" stroke-linejoin="round" stroke-width="1"/>
      <path d="M -826.0265 139.26379 L -812.2843 141.55416 C -812.1009 141.58472 -811.917 141.61209 -811.7327 141.63624 L -783.3791 145.35154 C -783.1325 145.38385 -782.8853 145.4104 -782.6375 145.43118 L -752.3946 147.96768 C -752.1377 147.98923 -751.8803 148.00456 -751.6227 148.01367 L -712.6918 149.39002 C -712.5034 149.39668 -712.31496 149.4 -712.1265 149.4 L -680.65916 149.4 C -680.4925 149.4 -680.3259 149.3974 -680.1594 149.3922 L -655.1246 148.60986 C -654.9144 148.6033 -654.7043 148.59258 -654.49445 148.57772 L -632.4467 147.01682 C -632.2884 147.00561 -632.13025 146.99205 -631.9723 146.97614 L -606.71185 144.4305 C -606.5101 144.41017 -606.3088 144.38601 -606.10796 144.35803 L -582.31526 141.04265 C -582.11125 141.01422 -581.9078 140.98186 -581.70504 140.94558 L -572.5092 139.3 C -567.1821 138.34674 -563.53124 133.39309 -564.19766 128.02255 L -566.40525 110.23198 C -566.4079 110.21066 -566.4105 110.18934 -566.41305 110.16801 L -569.9769 80.46949 C -569.9984 80.28985 -570.01694 80.10985 -570.0324 79.92958 L -572.3946 52.37037 C -572.40435 52.2568 -572.4129 52.14312 -572.4202 52.029365 L -573.8068 30.437722 C -573.8084 30.412577 -573.8101 30.387436 -573.8118 30.3623 L -575.404 7.275987 C -575.4075 7.225332 -575.4107 7.174661 -575.4137 7.123976 L -576.5901 -12.678192 C -576.60284 -12.892706 -576.61126 -13.107455 -576.61535 -13.322308 L -577.00764 -33.917147 C -577.0087 -33.97238 -577.01 -34.027606 -577.01165 -34.082825 L -577.6068 -54.31717 C -577.6084 -54.372386 -577.60974 -54.42761 -577.6108 -54.482846 L -578.00145 -74.99239 C -578.0066 -75.26408 -578.0049 -75.53587 -577.9962 -75.80747 L -577.41027 -94.16708 C -577.40956 -94.18903 -577.4088 -94.21097 -577.408 -94.23291 L -576.61995 -116.10221 C -576.6128 -116.30072 -576.60194 -116.49907 -576.5874 -116.69717 L -575.0299 -137.91779 C -575.0161 -138.10591 -575.00564 -138.29427 -574.9985 -138.48276 L -574.24404 -158.38163 C -574.22085 -158.99337 -574.16256 -159.60328 -574.0695 -160.20835 L -571.3305 -178.01187 C -571.2497 -178.53696 -571.1428 -179.05771 -571.0102 -179.57217 L -566.38194 -197.52983 C -566.26684 -197.9764 -566.1325 -198.41779 -565.9793 -198.85275 L -560.2585 -215.0924 C -560.0924 -215.56387 -559.9043 -216.0273 -559.6948 -216.48117 L -554.1633 -228.4662 C -554.0606 -228.6887 -553.9528 -228.90881 -553.84 -229.12636 L -548.4778 -239.46778 C -548.4321 -239.55593 -548.38554 -239.64364 -548.3382 -239.73092 L -543.1222 -249.34788 C -542.38495 -250.70724 -541.4353 -251.94013 -540.3092 -253 L -540.3092 -253 C -539.634 -253.63547 -539.6018 -254.69797 -540.2373 -255.37316 C -540.3618 -255.50544 -540.5069 -255.61663 -540.66705 -255.7024 L -543.8812 -257.42427 C -544.09984 -257.5414 -544.3212 -257.65344 -544.54506 -257.7603 L -552.399 -261.50878 C -552.80564 -261.70284 -553.22026 -261.87964 -553.6418 -262.0387 L -563.3166 -265.6896 C -563.51167 -265.7632 -563.7081 -265.83297 -563.9059 -265.8989 L -576.6004 -270.1304 C -576.7396 -270.1768 -576.87945 -270.22128 -577.0199 -270.26384 L -589.9034 -274.16794 C -589.97395 -274.1893 -590.0443 -274.21117 -590.11456 -274.23352 L -602.61856 -278.21206 C -603.0122 -278.3373 -603.4008 -278.47775 -603.7836 -278.63307 L -615.7595 -283.49287 C -616.5912 -283.83036 -617.39296 -284.23723 -618.1564 -284.70917 L -627.77564 -290.6556 C -627.93135 -290.75186 -628.0854 -290.85078 -628.2377 -290.95232 L -633.1278 -294.2124 C -634.1092 -294.86665 -634.9805 -295.67255 -635.7092 -296.6 L -635.7092 -296.6 C -635.8148 -296.7344 -636.0094 -296.75775 -636.1438 -296.65215 C -636.2465 -296.57142 -636.2875 -296.43487 -636.2462 -296.3109 L -636.1092 -295.9 C -635.65 -294.52225 -635.5454 -293.05096 -635.8052 -291.6221 L -636.2003 -289.44885 C -636.47155 -287.9572 -636.9534 -286.51165 -637.6314 -285.1556 L -639.1637 -282.09096 C -639.4604 -281.49756 -639.79376 -280.9232 -640.1618 -280.37117 L -643.3655 -275.56562 C -643.7941 -274.92272 -644.2687 -274.3117 -644.7856 -273.7374 L -649.3476 -268.66844 C -649.3887 -268.6228 -649.43 -268.57742 -649.4716 -268.53227 L -655.4658 -262.02424 C -656.0936 -261.3427 -656.7793 -260.71698 -657.51535 -260.15413 L -662.5395 -256.3121 C -662.9857 -255.97094 -663.4495 -255.6535 -663.929 -255.3611 L -670.4154 -251.40597 C -671.0771 -251.00252 -671.7672 -250.64768 -672.48025 -250.34424 L -679.5957 -247.3164 C -680.4033 -246.97272 -681.2379 -246.69607 -682.09095 -246.48928 L -686.17 -245.5004 C -686.9948 -245.30045 -687.8343 -245.16644 -688.6804 -245.09965 L -694.3806 -244.64963 C -694.7995 -244.61656 -695.2196 -244.6 -695.6398 -244.6 L -702.6721 -244.6 C -703.4292 -244.6 -704.1854 -244.65374 -704.9349 -244.7608 L -712.8813 -245.896 C -713.3663 -245.9653 -713.8479 -246.05683 -714.3245 -246.1703 L -720.2857 -247.58965 C -721.4312 -247.86238 -722.5431 -248.26073 -723.6012 -248.77747 L -729.8812 -251.84444 C -730.3662 -252.08133 -730.839 -252.3426 -731.2976 -252.62728 L -735.5095 -255.24154 C -736.10865 -255.61344 -736.6826 -256.02454 -737.2275 -256.47216 L -741.6736 -260.12432 C -741.8973 -260.30807 -742.116 -260.49786 -742.3294 -260.69348 L -746.1317 -264.17896 C -746.583 -264.59264 -747.0102 -265.0319 -747.41115 -265.49454 L -751.5299 -270.24693 C -751.8493 -270.61545 -752.1516 -270.99838 -752.43605 -271.3945 L -756.8657 -277.5644 C -757.3606 -278.2537 -757.7999 -278.9813 -758.1794 -279.74028 L -760.7558 -284.8932 C -760.7914 -284.9644 -760.8265 -285.03586 -760.861 -285.10758 L -762.1092 -287.7 C -762.9599 -289.46687 -763.31545 -291.4314 -763.1379 -293.38436 L -762.9577 -295.3666 C -762.9339 -295.62848 -763.1269 -295.86006 -763.38875 -295.88386 C -763.5511 -295.89862 -763.7098 -295.82925 -763.8092 -295.7 L -763.8092 -295.7 C -764.4727 -294.83752 -765.2528 -294.07144 -766.12715 -293.42375 L -770.0237 -290.53743 C -770.1474 -290.4458 -770.2724 -290.356 -770.3986 -290.26798 L -775.0209 -287.0464 C -776.2076 -286.2193 -777.50105 -285.55692 -778.8658 -285.07742 L -783.4729 -283.4587 C -783.9635 -283.28633 -784.4454 -283.09016 -784.9168 -282.87087 L -791.7636 -279.68632 C -792.4598 -279.36253 -793.17835 -279.08926 -793.9137 -278.86864 L -804.7841 -275.60752 C -804.8009 -275.6025 -804.8176 -275.59746 -804.8343 -275.5924 L -815.8024 -272.2628 C -815.9403 -272.22093 -816.0776 -272.1772 -816.2143 -272.13164 L -829.1355 -267.82456 C -829.1847 -267.8082 -829.2339 -267.79205 -829.2831 -267.77616 L -840.6505 -264.10925 C -841.289 -263.9033 -841.9139 -263.65737 -842.5215 -263.37296 L -850.4535 -259.66012 C -850.8238 -259.48677 -851.1874 -259.2993 -851.5434 -259.09808 L -857.4895 -255.73724 C -858.7425 -255.029 -859.1842 -253.43907 -858.4759 -252.18604 C -858.3988 -252.0496 -858.3096 -251.9204 -858.2092 -251.8 L -857.3451 -250.76307 C -856.5902 -249.85713 -855.9377 -248.8705 -855.3996 -247.82118 L -852.3224 -241.82076 C -852.247 -241.6736 -852.1692 -241.5276 -852.0892 -241.38285 L -848.1345 -234.22663 C -848.051 -234.07555 -847.9699 -233.92313 -847.8914 -233.76943 L -843.7831 -225.73144 C -843.534 -225.24413 -843.3101 -224.74437 -843.1122 -224.2341 L -839.6295 -215.25224 C -839.616 -215.2174 -839.6023 -215.18263 -839.5886 -215.1479 L -835.9923 -206.06246 C -835.8703 -205.75423 -835.7579 -205.44228 -835.6552 -205.12706 L -833.0334 -197.07428 C -833.0173 -197.02476 -833.0014 -196.97516 -832.9858 -196.92548 L -829.9137 -187.1672 C -829.7109 -186.52305 -829.5491 -185.8667 -829.4293 -185.20208 L -827.444 -174.19263 C -827.4208 -174.06421 -827.3992 -173.93552 -827.3792 -173.80658 L -825.6733 -162.8132 C -825.6306 -162.53778 -825.5951 -162.26129 -825.5668 -161.98402 L -824.6794 -153.2873 C -824.6326 -152.82931 -824.6057 -152.36952 -824.5986 -151.9092 L -824.41435 -139.93359 C -824.4109 -139.71122 -824.4029 -139.48895 -824.3902 -139.26691 L -823.6198 -125.78535 C -823.61275 -125.66179 -823.6043 -125.5383 -823.5943 -125.41494 L -822.2608 -108.84057 C -822.2264 -108.41369 -822.2092 -107.98561 -822.2092 -107.55736 L -822.2092 -95.10758 C -822.2092 -94.90254 -822.2053 -94.69753 -822.1974 -94.49265 L -821.617 -79.40351 C -821.6118 -79.26784 -821.6083 -79.13211 -821.6066 -78.99635 L -821.4144 -64.2001 C -821.41095 -63.933405 -821.4142 -63.66667 -821.424 -63.400136 L -821.9983 -47.89599 C -822.0056 -47.698677 -822.0092 -47.50125 -822.0092 -47.3038 L -822.0092 -33.707575 C -822.0092 -33.50254 -822.0132 -33.297527 -822.021 -33.092645 L -822.6062 -17.877642 C -822.6082 -17.825878 -822.6105 -17.774124 -822.613 -17.722382 L -823.4083 -1.2194466 C -823.4089 -1.2064792 -823.4095 -1.1935127 -823.4102 -1.1805469 L -824.2047 14.51062 C -824.2077 14.57021 -824.2111 14.629781 -824.2147 14.689333 L -825.4037 33.910067 C -825.4074 33.970025 -825.4114 34.02996 -825.4158 34.089874 L -827.1989 58.45942 C -827.2058 58.55314 -827.2135 58.6468 -827.222 58.740385 L -829.0079 78.3852 C -829.0088 78.39507 -829.0097 78.40494 -829.0106 78.41481 L -830.7814 97.49972 C -830.7999 97.69989 -830.8223 97.8997 -830.8484 98.09903 L -832.8091 113.07175 C -832.9419 114.08594 -833.211 115.07756 -833.6092 116.01973 L -833.6092 116.01973 C -834.0068 116.96048 -834.2555 117.9574 -834.3463 118.97465 L -835.1092 127.51973 C -835.617 133.20676 -831.6585 138.32512 -826.0265 139.26379 Z" fill="white"/>
      <path d="M -826.0265 139.26379 L -812.2843 141.55416 C -812.1009 141.58472 -811.917 141.61209 -811.7327 141.63624 L -783.3791 145.35154 C -783.1325 145.38385 -782.8853 145.4104 -782.6375 145.43118 L -752.3946 147.96768 C -752.1377 147.98923 -751.8803 148.00456 -751.6227 148.01367 L -712.6918 149.39002 C -712.5034 149.39668 -712.31496 149.4 -712.1265 149.4 L -680.65916 149.4 C -680.4925 149.4 -680.3259 149.3974 -680.1594 149.3922 L -655.1246 148.60986 C -654.9144 148.6033 -654.7043 148.59258 -654.49445 148.57772 L -632.4467 147.01682 C -632.2884 147.00561 -632.13025 146.99205 -631.9723 146.97614 L -606.71185 144.4305 C -606.5101 144.41017 -606.3088 144.38601 -606.10796 144.35803 L -582.31526 141.04265 C -582.11125 141.01422 -581.9078 140.98186 -581.70504 140.94558 L -572.5092 139.3 C -567.1821 138.34674 -563.53124 133.39309 -564.19766 128.02255 L -566.40525 110.23198 C -566.4079 110.21066 -566.4105 110.18934 -566.41305 110.16801 L -569.9769 80.46949 C -569.9984 80.28985 -570.01694 80.10985 -570.0324 79.92958 L -572.3946 52.37037 C -572.40435 52.2568 -572.4129 52.14312 -572.4202 52.029365 L -573.8068 30.437722 C -573.8084 30.412577 -573.8101 30.387436 -573.8118 30.3623 L -575.404 7.275987 C -575.4075 7.225332 -575.4107 7.174661 -575.4137 7.123976 L -576.5901 -12.678192 C -576.60284 -12.892706 -576.61126 -13.107455 -576.61535 -13.322308 L -577.00764 -33.917147 C -577.0087 -33.97238 -577.01 -34.027606 -577.01165 -34.082825 L -577.6068 -54.31717 C -577.6084 -54.372386 -577.60974 -54.42761 -577.6108 -54.482846 L -578.00145 -74.99239 C -578.0066 -75.26408 -578.0049 -75.53587 -577.9962 -75.80747 L -577.41027 -94.16708 C -577.40956 -94.18903 -577.4088 -94.21097 -577.408 -94.23291 L -576.61995 -116.10221 C -576.6128 -116.30072 -576.60194 -116.49907 -576.5874 -116.69717 L -575.0299 -137.91779 C -575.0161 -138.10591 -575.00564 -138.29427 -574.9985 -138.48276 L -574.24404 -158.38163 C -574.22085 -158.99337 -574.16256 -159.60328 -574.0695 -160.20835 L -571.3305 -178.01187 C -571.2497 -178.53696 -571.1428 -179.05771 -571.0102 -179.57217 L -566.38194 -197.52983 C -566.26684 -197.9764 -566.1325 -198.41779 -565.9793 -198.85275 L -560.2585 -215.0924 C -560.0924 -215.56387 -559.9043 -216.0273 -559.6948 -216.48117 L -554.1633 -228.4662 C -554.0606 -228.6887 -553.9528 -228.90881 -553.84 -229.12636 L -548.4778 -239.46778 C -548.4321 -239.55593 -548.38554 -239.64364 -548.3382 -239.73092 L -543.1222 -249.34788 C -542.38495 -250.70724 -541.4353 -251.94013 -540.3092 -253 L -540.3092 -253 C -539.634 -253.63547 -539.6018 -254.69797 -540.2373 -255.37316 C -540.3618 -255.50544 -540.5069 -255.61663 -540.66705 -255.7024 L -543.8812 -257.42427 C -544.09984 -257.5414 -544.3212 -257.65344 -544.54506 -257.7603 L -552.399 -261.50878 C -552.80564 -261.70284 -553.22026 -261.87964 -553.6418 -262.0387 L -563.3166 -265.6896 C -563.51167 -265.7632 -563.7081 -265.83297 -563.9059 -265.8989 L -576.6004 -270.1304 C -576.7396 -270.1768 -576.87945 -270.22128 -577.0199 -270.26384 L -589.9034 -274.16794 C -589.97395 -274.1893 -590.0443 -274.21117 -590.11456 -274.23352 L -602.61856 -278.21206 C -603.0122 -278.3373 -603.4008 -278.47775 -603.7836 -278.63307 L -615.7595 -283.49287 C -616.5912 -283.83036 -617.39296 -284.23723 -618.1564 -284.70917 L -627.77564 -290.6556 C -627.93135 -290.75186 -628.0854 -290.85078 -628.2377 -290.95232 L -633.1278 -294.2124 C -634.1092 -294.86665 -634.9805 -295.67255 -635.7092 -296.6 L -635.7092 -296.6 C -635.8148 -296.7344 -636.0094 -296.75775 -636.1438 -296.65215 C -636.2465 -296.57142 -636.2875 -296.43487 -636.2462 -296.3109 L -636.1092 -295.9 C -635.65 -294.52225 -635.5454 -293.05096 -635.8052 -291.6221 L -636.2003 -289.44885 C -636.47155 -287.9572 -636.9534 -286.51165 -637.6314 -285.1556 L -639.1637 -282.09096 C -639.4604 -281.49756 -639.79376 -280.9232 -640.1618 -280.37117 L -643.3655 -275.56562 C -643.7941 -274.92272 -644.2687 -274.3117 -644.7856 -273.7374 L -649.3476 -268.66844 C -649.3887 -268.6228 -649.43 -268.57742 -649.4716 -268.53227 L -655.4658 -262.02424 C -656.0936 -261.3427 -656.7793 -260.71698 -657.51535 -260.15413 L -662.5395 -256.3121 C -662.9857 -255.97094 -663.4495 -255.6535 -663.929 -255.3611 L -670.4154 -251.40597 C -671.0771 -251.00252 -671.7672 -250.64768 -672.48025 -250.34424 L -679.5957 -247.3164 C -680.4033 -246.97272 -681.2379 -246.69607 -682.09095 -246.48928 L -686.17 -245.5004 C -686.9948 -245.30045 -687.8343 -245.16644 -688.6804 -245.09965 L -694.3806 -244.64963 C -694.7995 -244.61656 -695.2196 -244.6 -695.6398 -244.6 L -702.6721 -244.6 C -703.4292 -244.6 -704.1854 -244.65374 -704.9349 -244.7608 L -712.8813 -245.896 C -713.3663 -245.9653 -713.8479 -246.05683 -714.3245 -246.1703 L -720.2857 -247.58965 C -721.4312 -247.86238 -722.5431 -248.26073 -723.6012 -248.77747 L -729.8812 -251.84444 C -730.3662 -252.08133 -730.839 -252.3426 -731.2976 -252.62728 L -735.5095 -255.24154 C -736.10865 -255.61344 -736.6826 -256.02454 -737.2275 -256.47216 L -741.6736 -260.12432 C -741.8973 -260.30807 -742.116 -260.49786 -742.3294 -260.69348 L -746.1317 -264.17896 C -746.583 -264.59264 -747.0102 -265.0319 -747.41115 -265.49454 L -751.5299 -270.24693 C -751.8493 -270.61545 -752.1516 -270.99838 -752.43605 -271.3945 L -756.8657 -277.5644 C -757.3606 -278.2537 -757.7999 -278.9813 -758.1794 -279.74028 L -760.7558 -284.8932 C -760.7914 -284.9644 -760.8265 -285.03586 -760.861 -285.10758 L -762.1092 -287.7 C -762.9599 -289.46687 -763.31545 -291.4314 -763.1379 -293.38436 L -762.9577 -295.3666 C -762.9339 -295.62848 -763.1269 -295.86006 -763.38875 -295.88386 C -763.5511 -295.89862 -763.7098 -295.82925 -763.8092 -295.7 L -763.8092 -295.7 C -764.4727 -294.83752 -765.2528 -294.07144 -766.12715 -293.42375 L -770.0237 -290.53743 C -770.1474 -290.4458 -770.2724 -290.356 -770.3986 -290.26798 L -775.0209 -287.0464 C -776.2076 -286.2193 -777.50105 -285.55692 -778.8658 -285.07742 L -783.4729 -283.4587 C -783.9635 -283.28633 -784.4454 -283.09016 -784.9168 -282.87087 L -791.7636 -279.68632 C -792.4598 -279.36253 -793.17835 -279.08926 -793.9137 -278.86864 L -804.7841 -275.60752 C -804.8009 -275.6025 -804.8176 -275.59746 -804.8343 -275.5924 L -815.8024 -272.2628 C -815.9403 -272.22093 -816.0776 -272.1772 -816.2143 -272.13164 L -829.1355 -267.82456 C -829.1847 -267.8082 -829.2339 -267.79205 -829.2831 -267.77616 L -840.6505 -264.10925 C -841.289 -263.9033 -841.9139 -263.65737 -842.5215 -263.37296 L -850.4535 -259.66012 C -850.8238 -259.48677 -851.1874 -259.2993 -851.5434 -259.09808 L -857.4895 -255.73724 C -858.7425 -255.029 -859.1842 -253.43907 -858.4759 -252.18604 C -858.3988 -252.0496 -858.3096 -251.9204 -858.2092 -251.8 L -857.3451 -250.76307 C -856.5902 -249.85713 -855.9377 -248.8705 -855.3996 -247.82118 L -852.3224 -241.82076 C -852.247 -241.6736 -852.1692 -241.5276 -852.0892 -241.38285 L -848.1345 -234.22663 C -848.051 -234.07555 -847.9699 -233.92313 -847.8914 -233.76943 L -843.7831 -225.73144 C -843.534 -225.24413 -843.3101 -224.74437 -843.1122 -224.2341 L -839.6295 -215.25224 C -839.616 -215.2174 -839.6023 -215.18263 -839.5886 -215.1479 L -835.9923 -206.06246 C -835.8703 -205.75423 -835.7579 -205.44228 -835.6552 -205.12706 L -833.0334 -197.07428 C -833.0173 -197.02476 -833.0014 -196.97516 -832.9858 -196.92548 L -829.9137 -187.1672 C -829.7109 -186.52305 -829.5491 -185.8667 -829.4293 -185.20208 L -827.444 -174.19263 C -827.4208 -174.06421 -827.3992 -173.93552 -827.3792 -173.80658 L -825.6733 -162.8132 C -825.6306 -162.53778 -825.5951 -162.26129 -825.5668 -161.98402 L -824.6794 -153.2873 C -824.6326 -152.82931 -824.6057 -152.36952 -824.5986 -151.9092 L -824.41435 -139.93359 C -824.4109 -139.71122 -824.4029 -139.48895 -824.3902 -139.26691 L -823.6198 -125.78535 C -823.61275 -125.66179 -823.6043 -125.5383 -823.5943 -125.41494 L -822.2608 -108.84057 C -822.2264 -108.41369 -822.2092 -107.98561 -822.2092 -107.55736 L -822.2092 -95.10758 C -822.2092 -94.90254 -822.2053 -94.69753 -822.1974 -94.49265 L -821.617 -79.40351 C -821.6118 -79.26784 -821.6083 -79.13211 -821.6066 -78.99635 L -821.4144 -64.2001 C -821.41095 -63.933405 -821.4142 -63.66667 -821.424 -63.400136 L -821.9983 -47.89599 C -822.0056 -47.698677 -822.0092 -47.50125 -822.0092 -47.3038 L -822.0092 -33.707575 C -822.0092 -33.50254 -822.0132 -33.297527 -822.021 -33.092645 L -822.6062 -17.877642 C -822.6082 -17.825878 -822.6105 -17.774124 -822.613 -17.722382 L -823.4083 -1.2194466 C -823.4089 -1.2064792 -823.4095 -1.1935127 -823.4102 -1.1805469 L -824.2047 14.51062 C -824.2077 14.57021 -824.2111 14.629781 -824.2147 14.689333 L -825.4037 33.910067 C -825.4074 33.970025 -825.4114 34.02996 -825.4158 34.089874 L -827.1989 58.45942 C -827.2058 58.55314 -827.2135 58.6468 -827.222 58.740385 L -829.0079 78.3852 C -829.0088 78.39507 -829.0097 78.40494 -829.0106 78.41481 L -830.7814 97.49972 C -830.7999 97.69989 -830.8223 97.8997 -830.8484 98.09903 L -832.8091 113.07175 C -832.9419 114.08594 -833.211 115.07756 -833.6092 116.01973 L -833.6092 116.01973 C -834.0068 116.96048 -834.2555 117.9574 -834.3463 118.97465 L -835.1092 127.51973 C -835.617 133.20676 -831.6585 138.32512 -826.0265 139.26379 Z" stroke="#7f8080" stroke-linecap="round" stroke-linejoin="round" stroke-width="1"/>
      <path d="M -915 -146.55385 L -908.8 -142.15385 L -900.6 -138.15385 L -892 -134.55385 L -883 -130.75385 L -872 -126.75385 L -862.6 -123.95385 L -853.6 -121.35385 L -844.6 -118.75385 L -839.2 -117.35385 L -833.6 -116.35385 L -831.2 -122.15385 L -828.6 -127.55385 L -826.4 -131.55385 L -823.8 -134.95385 L -823.6 -143.95385 L -824.2 -154.95385 L -826 -165.75385 L -827.6 -176.15385 L -830.2 -187.15386 L -832.6 -196.75386 L -835.4 -204.75386 L -838.6 -214.15386 L -841.4 -221.55386 L -845 -229.15386 L -849 -236.75386 L -853 -244.15386 L -855.6 -247.75386 L -859.2 -253.55386 L -864.6 -249.15386 L -869.4 -244.35386 L -874 -238.15386 L -878.4 -231.95386 L -883.2 -223.35386 L -888 -213.95386 L -892.8 -204.75386 L -896.4 -196.15386 L -900.4 -187.15386 L -903.6 -178.95385 L -907.4 -169.55385 L -910.2 -161.55385 L -913.2 -153.15385 Z" fill="white"/>
      <path d="M -915 -146.55385 L -908.8 -142.15385 L -900.6 -138.15385 L -892 -134.55385 L -883 -130.75385 L -872 -126.75385 L -862.6 -123.95385 L -853.6 -121.35385 L -844.6 -118.75385 L -839.2 -117.35385 L -833.6 -116.35385 L -831.2 -122.15385 L -828.6 -127.55385 L -826.4 -131.55385 L -823.8 -134.95385 L -823.6 -143.95385 L -824.2 -154.95385 L -826 -165.75385 L -827.6 -176.15385 L -830.2 -187.15386 L -832.6 -196.75386 L -835.4 -204.75386 L -838.6 -214.15386 L -841.4 -221.55386 L -845 -229.15386 L -849 -236.75386 L -853 -244.15386 L -855.6 -247.75386 L -859.2 -253.55386 L -864.6 -249.15386 L -869.4 -244.35386 L -874 -238.15386 L -878.4 -231.95386 L -883.2 -223.35386 L -888 -213.95386 L -892.8 -204.75386 L -896.4 -196.15386 L -900.4 -187.15386 L -903.6 -178.95385 L -907.4 -169.55385 L -910.2 -161.55385 L -913.2 -153.15385 Z" stroke="#7f8080" stroke-linecap="round" stroke-linejoin="round" stroke-width="1"/>
      <path d="M -483.5947 -147.49725 L -489.7947 -143.09725 L -497.9947 -139.09725 L -506.5947 -135.49725 L -515.5947 -131.69725 L -526.5947 -127.69725 L -535.9947 -124.89725 L -544.9947 -122.29725 L -553.9947 -119.69725 L -559.3947 -118.29725 L -564.9947 -117.29725 L -567.3947 -123.09725 L -569.9947 -128.49725 L -572.1947 -132.49725 L -574.7947 -135.89725 L -574.9947 -144.89725 L -574.3947 -155.89725 L -572.5947 -166.69725 L -570.9947 -177.09725 L -568.3947 -188.09725 L -565.9947 -197.69725 L -563.1947 -205.69725 L -559.9947 -215.09725 L -557.1947 -222.49725 L -553.5947 -230.09725 L -549.5947 -237.69725 L -545.5947 -245.09725 L -542.9947 -248.69725 L -539.3947 -254.49725 L -533.9947 -250.09725 L -529.1947 -245.29725 L -524.5947 -239.09725 L -520.1947 -232.89725 L -515.3947 -224.29725 L -510.5947 -214.89725 L -505.7947 -205.69725 L -502.1947 -197.09725 L -498.1947 -188.09725 L -494.9947 -179.89725 L -491.1947 -170.49725 L -488.3947 -162.49725 L -485.3947 -154.09725 Z" fill="white"/>
      <path d="M -483.5947 -147.49725 L -489.7947 -143.09725 L -497.9947 -139.09725 L -506.5947 -135.49725 L -515.5947 -131.69725 L -526.5947 -127.69725 L -535.9947 -124.89725 L -544.9947 -122.29725 L -553.9947 -119.69725 L -559.3947 -118.29725 L -564.9947 -117.29725 L -567.3947 -123.09725 L -569.9947 -128.49725 L -572.1947 -132.49725 L -574.7947 -135.89725 L -574.9947 -144.89725 L -574.3947 -155.89725 L -572.5947 -166.69725 L -570.9947 -177.09725 L -568.3947 -188.09725 L -565.9947 -197.69725 L -563.1947 -205.69725 L -559.9947 -215.09725 L -557.1947 -222.49725 L -553.5947 -230.09725 L -549.5947 -237.69725 L -545.5947 -245.09725 L -542.9947 -248.69725 L -539.3947 -254.49725 L -533.9947 -250.09725 L -529.1947 -245.29725 L -524.5947 -239.09725 L -520.1947 -232.89725 L -515.3947 -224.29725 L -510.5947 -214.89725 L -505.7947 -205.69725 L -502.1947 -197.09725 L -498.1947 -188.09725 L -494.9947 -179.89725 L -491.1947 -170.49725 L -488.3947 -162.49725 L -485.3947 -154.09725 Z" stroke="#7f8080" stroke-linecap="round" stroke-linejoin="round" stroke-width="1"/>
      <path d="M -483.5947 -147.49725 L -489.7947 -143.09725 L -497.9947 -139.09725 L -506.5947 -135.49725 L -515.5947 -131.69725 L -526.5947 -127.69725 L -535.9947 -124.89725 L -544.9947 -122.29725 L -553.9947 -119.69725 L -559.3947 -118.29725 L -564.9947 -117.29725 L -567.9947 -123.69725 L -564.1947 -124.49725 L -559.3947 -125.69725 L -553.7947 -126.89725 L -547.7947 -128.69725 L -543.1947 -130.09725 L -538.9947 -131.29725 L -534.3947 -133.29725 L -529.7947 -134.89725 L -524.9947 -136.89725 L -520.9947 -138.29725 L -515.7947 -140.49725 L -511.1947 -142.09725 L -506.3947 -144.29725 L -501.5947 -146.09725 L -497.5947 -148.09725 L -493.1947 -150.29725 L -488.7947 -152.49725 L -485.3947 -154.09725 Z" fill="black"/>
      <path d="M -483.5947 -147.49725 L -489.7947 -143.09725 L -497.9947 -139.09725 L -506.5947 -135.49725 L -515.5947 -131.69725 L -526.5947 -127.69725 L -535.9947 -124.89725 L -544.9947 -122.29725 L -553.9947 -119.69725 L -559.3947 -118.29725 L -564.9947 -117.29725 L -567.9947 -123.69725 L -564.1947 -124.49725 L -559.3947 -125.69725 L -553.7947 -126.89725 L -547.7947 -128.69725 L -543.1947 -130.09725 L -538.9947 -131.29725 L -534.3947 -133.29725 L -529.7947 -134.89725 L -524.9947 -136.89725 L -520.9947 -138.29725 L -515.7947 -140.49725 L -511.1947 -142.09725 L -506.3947 -144.29725 L -501.5947 -146.09725 L -497.5947 -148.09725 L -493.1947 -150.29725 L -488.7947 -152.49725 L -485.3947 -154.09725 Z" stroke="#7f8080" stroke-linecap="round" stroke-linejoin="round" stroke-width="1"/>
      <path d="M -764.94075 -296.2441 L -759.54075 -296.8441 L -752.74075 -293.4441 L -747.74075 -291.6441 L -739.34075 -289.8441 L -730.94075 -288.8441 L -722.94075 -287.8441 L -715.34075 -287.6441 L -706.74075 -287.2441 L -695.14075 -287.4441 L -686.74075 -287.8441 L -677.34075 -288.4441 L -668.94075 -289.2441 L -659.74075 -290.6441 L -651.54075 -292.8441 L -645.74075 -294.6441 L -640.14075 -297.2441 L -637.34075 -296.0441 L -636.94075 -290.4441 L -639.74075 -282.4441 L -645.14075 -279.6441 L -655.74075 -276.4441 L -667.14075 -274.0441 L -678.34075 -273.2441 L -690.74075 -272.2441 L -701.14075 -272.2441 L -710.54075 -272.2441 L -722.14075 -272.8441 L -733.34075 -273.6441 L -743.94075 -275.8441 L -752.54075 -277.8441 L -758.74075 -280.6441 L -760.74075 -282.2441 L -763.94075 -289.8441 Z" fill="black"/>
      <path d="M -764.94075 -296.2441 L -759.54075 -296.8441 L -752.74075 -293.4441 L -747.74075 -291.6441 L -739.34075 -289.8441 L -730.94075 -288.8441 L -722.94075 -287.8441 L -715.34075 -287.6441 L -706.74075 -287.2441 L -695.14075 -287.4441 L -686.74075 -287.8441 L -677.34075 -288.4441 L -668.94075 -289.2441 L -659.74075 -290.6441 L -651.54075 -292.8441 L -645.74075 -294.6441 L -640.14075 -297.2441 L -637.34075 -296.0441 L -636.94075 -290.4441 L -639.74075 -282.4441 L -645.14075 -279.6441 L -655.74075 -276.4441 L -667.14075 -274.0441 L -678.34075 -273.2441 L -690.74075 -272.2441 L -701.14075 -272.2441 L -710.54075 -272.2441 L -722.14075 -272.8441 L -733.34075 -273.6441 L -743.94075 -275.8441 L -752.54075 -277.8441 L -758.74075 -280.6441 L -760.74075 -282.2441 L -763.94075 -289.8441 Z" stroke="#7f8080" stroke-linecap="round" stroke-linejoin="round" stroke-width="1"/>
      <path d="M -789 135.8 L -806.8137 133.07503 L -817.8137 132.07503 L -830.8137 130.07503 L -834.8137 128.07503 L -829.8137 97.07503 L -828 71 L -825.5 43 L -824 16 L -823.5 -13 L -822 -40 L -821.5 -65.5 L -822.5 -101.5 L -823.5 -135 L -823.5 -150 L -826 -165.5 L -828.5 -180.5 L -833 -196 L -837.5 -210.5 L -842.5 -224 L -849 -237.5 L -855.5 -248 L -859 -254.5 L -849.8137 -260.92497 L -836.8137 -265.92497 L -823.8137 -269.92497 L -805.5 -275.5 L -794.5 -279 L -791 -280 Z" fill="white"/>
      <path d="M -789 135.8 L -806.8137 133.07503 L -817.8137 132.07503 L -830.8137 130.07503 L -834.8137 128.07503 L -829.8137 97.07503 L -828 71 L -825.5 43 L -824 16 L -823.5 -13 L -822 -40 L -821.5 -65.5 L -822.5 -101.5 L -823.5 -135 L -823.5 -150 L -826 -165.5 L -828.5 -180.5 L -833 -196 L -837.5 -210.5 L -842.5 -224 L -849 -237.5 L -855.5 -248 L -859 -254.5 L -849.8137 -260.92497 L -836.8137 -265.92497 L -823.8137 -269.92497 L -805.5 -275.5 L -794.5 -279 L -791 -280 Z" stroke="#7f8080" stroke-linecap="round" stroke-linejoin="round" stroke-width="1"/>
      <path d="M -729 142.5 L -709.6228 144.5 L -688.1228 143 L -669.1228 143 L -668.5 143 L -669.5 -244.5 L -696.1597 -239 L -722 -243 L -730.5 -241.5 Z" fill="white"/>
      <path d="M -729 142.5 L -709.6228 144.5 L -688.1228 143 L -669.1228 143 L -668.5 143 L -669.5 -244.5 L -696.1597 -239 L -722 -243 L -730.5 -241.5 Z" stroke="#7f8080" stroke-linecap="round" stroke-linejoin="round" stroke-width="1"/>
      <path d="M -608.8 136.8 L -591 136 L -580 133 L -567.781 130.34086 L -563.781 128.34086 L -568.781 97.34086 L -571.781 70.340856 L -573.781 43.340856 L -575 17 L -577 -12 L -577.781 -40.659144 L -578.781 -64.659144 L -578 -101 L -575 -135 L -572 -166 L -570 -181 L -566 -196.5 L -561.5 -210.5 L -556.5 -223.5 L -549.5 -237.5 L -543 -248.5 L -539.781 -255.65914 L -548.781 -260.65914 L -561.781 -265.65914 L -574.781 -269.65914 L -593.781 -274.65914 L -608.781 -279.65914 Z" fill="white"/>
      <path d="M -608.8 136.8 L -591 136 L -580 133 L -567.781 130.34086 L -563.781 128.34086 L -568.781 97.34086 L -571.781 70.340856 L -573.781 43.340856 L -575 17 L -577 -12 L -577.781 -40.659144 L -578.781 -64.659144 L -578 -101 L -575 -135 L -572 -166 L -570 -181 L -566 -196.5 L -561.5 -210.5 L -556.5 -223.5 L -549.5 -237.5 L -543 -248.5 L -539.781 -255.65914 L -548.781 -260.65914 L -561.781 -265.65914 L -574.781 -269.65914 L -593.781 -274.65914 L -608.781 -279.65914 Z" stroke="#7f8080" stroke-linecap="round" stroke-linejoin="round" stroke-width="1"/>
      <path d="M -764.4279 -296.0362 L -769.15705 -291.98264 C -770.3074 -290.99662 -771.5524 -290.1267 -772.8738 -289.3855 L -775.4004 -287.96835 C -776.8356 -287.16338 -777.4164 -285.39425 -776.7376 -283.89527 L -775.72 -281.64803 C -775.5984 -281.37954 -775.4717 -281.11342 -775.3399 -280.8498 L -773.5376 -277.24526 L -771.0506 -272.2713 C -770.7088 -271.5877 -770.3332 -270.92157 -769.92505 -270.27537 L -767.5987 -266.59192 C -767.1583 -265.89465 -766.6807 -265.22158 -766.16805 -264.5756 L -762.7574 -260.27815 C -762.2113 -259.59013 -761.6263 -258.93394 -761.0052 -258.31283 L -756.3391 -253.6468 C -755.93825 -253.2459 -755.5227 -252.86 -755.0933 -252.48982 L -750.5298 -248.55574 C -750.1351 -248.21552 -749.729 -247.8888 -749.31215 -247.57617 L -745.3372 -244.59497 C -744.6713 -244.09553 -743.9788 -243.63262 -743.2627 -243.20826 L -739.1296 -240.75904 C -739.0016 -240.6832 -738.8729 -240.6086 -738.7434 -240.53523 L -734.0459 -237.8733 C -733.3076 -237.45493 -732.5467 -237.07774 -731.76675 -236.74347 L -728.2169 -235.22212 C -727.631 -234.971 -727.0348 -234.74433 -726.43 -234.54274 L -721.4119 -232.87003 C -720.1647 -232.45429 -718.8841 -232.14624 -717.5842 -231.9493 L -713.4854 -231.32826 C -713.12024 -231.27294 -712.75385 -231.22642 -712.3865 -231.18874 L -705.5054 -230.48299 C -705.2602 -230.45784 -705.01466 -230.43664 -704.7688 -230.41938 L -700.24165 -230.1017 C -699.7058 -230.06409 -699.1688 -230.04527 -698.6316 -230.04527 L -695.3695 -230.04526 C -694.41584 -230.04526 -693.4631 -230.10458 -692.5167 -230.22287 L -688.528 -230.72146 C -687.86805 -230.80396 -687.212 -230.91504 -686.56165 -231.0544 L -680.4796 -232.3577 C -679.5857 -232.54924 -678.7041 -232.7939 -677.8393 -233.0904 L -673.3305 -234.63628 C -672.5358 -234.90873 -671.7567 -235.2245 -670.9966 -235.5822 L -666.1632 -237.85674 C -665.613 -238.11565 -665.0733 -238.3963 -664.5454 -238.69798 L -660.7775 -240.85104 C -660.0847 -241.24692 -659.413 -241.67858 -658.7651 -242.14428 L -654.0889 -245.50525 C -653.58825 -245.8651 -653.10224 -246.24497 -652.6321 -246.6439 L -647.3112 -251.15856 C -646.9289 -251.48294 -646.5573 -251.81974 -646.197 -252.16842 L -641.4978 -256.71604 C -640.8582 -257.335 -640.2551 -257.99056 -639.6915 -258.67942 L -635.8982 -263.31566 C -635.3915 -263.93497 -634.9174 -264.5803 -634.478 -265.24904 L -630.8608 -270.75344 C -630.6454 -271.08127 -630.4384 -271.41456 -630.24 -271.75298 L -627.7169 -276.05708 C -627.33094 -276.71546 -626.978 -277.39265 -626.6594 -278.08612 L -624.5407 -282.6974 C -624.0078 -283.85715 -623.6367 -285.08456 -623.4376 -286.34526 L -623.4376 -286.34526 C -623.2593 -287.47453 -623.8386 -288.58797 -624.8657 -289.0901 L -630.1591 -291.678 C -631.4736 -292.32063 -632.7082 -293.11514 -633.8376 -294.04526 L -634.2436 -294.37963 C -635.08795 -295.07496 -635.71136 -296.00126 -636.0376 -297.04526 L -636.0376 -297.04526 C -636.0843 -297.19458 -636.24314 -297.2778 -636.39246 -297.23114 C -636.5075 -297.19518 -636.5872 -297.0903 -636.5911 -296.9698 L -636.7003 -293.5469 C -636.79106 -290.7038 -637.4084 -287.90224 -638.521 -285.28433 L -639.39794 -283.22096 C -639.9565 -281.9067 -640.63626 -280.6473 -641.4284 -279.4591 L -645.1142 -273.9304 C -645.8617 -272.80915 -646.7063 -271.75575 -647.63825 -270.78238 L -653.9333 -264.20753 C -654.8014 -263.30087 -655.7422 -262.4668 -656.7464 -261.71367 L -665.1213 -255.4325 C -665.9977 -254.77518 -666.92 -254.18133 -667.88104 -253.65546 L -675.06624 -249.72394 C -676.3774 -249.00653 -677.7553 -248.41863 -679.1805 -247.96857 L -685.8534 -245.86133 C -687.5703 -245.31916 -689.3449 -244.98046 -691.1407 -244.85219 L -698.0272 -244.3603 C -699.0995 -244.2837 -700.1758 -244.28238 -701.2483 -244.35635 L -709.6846 -244.93816 C -710.71875 -245.00948 -711.7469 -245.15064 -712.76205 -245.36067 L -719.8973 -246.83692 C -721.8492 -247.24077 -723.7404 -247.89665 -725.5232 -248.78808 L -730.18265 -251.1178 C -731.4168 -251.73485 -732.5929 -252.46173 -733.6967 -253.2896 L -739.3787 -257.55108 C -739.8178 -257.88043 -740.245 -258.2254 -740.6595 -258.58532 L -746.4147 -263.58324 C -747.229 -264.29038 -747.9925 -265.05392 -748.6996 -265.8682 L -753.1049 -270.9409 C -753.859 -271.80925 -754.5469 -272.73295 -755.1628 -273.70422 L -758.8965 -279.59198 C -759.2571 -280.16056 -759.5925 -280.7447 -759.9018 -281.34272 L -761.5222 -284.47544 C -762.1313 -285.65312 -762.6375 -286.88126 -763.035 -288.14615 L -764.3153 -292.21964 C -764.53005 -292.90302 -764.7128 -293.59605 -764.8629 -294.2965 L -765.0883 -295.34843 C -765.1734 -295.74544 -764.947 -296.1431 -764.5622 -296.27263 L -764.5622 -296.27263 C -764.4897 -296.29704 -764.4112 -296.25805 -764.38675 -296.18556 C -764.3687 -296.13205 -764.385 -296.07296 -764.4279 -296.0362 Z" fill="black"/>
      <path d="M -764.4279 -296.0362 L -769.15705 -291.98264 C -770.3074 -290.99662 -771.5524 -290.1267 -772.8738 -289.3855 L -775.4004 -287.96835 C -776.8356 -287.16338 -777.4164 -285.39425 -776.7376 -283.89527 L -775.72 -281.64803 C -775.5984 -281.37954 -775.4717 -281.11342 -775.3399 -280.8498 L -773.5376 -277.24526 L -771.0506 -272.2713 C -770.7088 -271.5877 -770.3332 -270.92157 -769.92505 -270.27537 L -767.5987 -266.59192 C -767.1583 -265.89465 -766.6807 -265.22158 -766.16805 -264.5756 L -762.7574 -260.27815 C -762.2113 -259.59013 -761.6263 -258.93394 -761.0052 -258.31283 L -756.3391 -253.6468 C -755.93825 -253.2459 -755.5227 -252.86 -755.0933 -252.48982 L -750.5298 -248.55574 C -750.1351 -248.21552 -749.729 -247.8888 -749.31215 -247.57617 L -745.3372 -244.59497 C -744.6713 -244.09553 -743.9788 -243.63262 -743.2627 -243.20826 L -739.1296 -240.75904 C -739.0016 -240.6832 -738.8729 -240.6086 -738.7434 -240.53523 L -734.0459 -237.8733 C -733.3076 -237.45493 -732.5467 -237.07774 -731.76675 -236.74347 L -728.2169 -235.22212 C -727.631 -234.971 -727.0348 -234.74433 -726.43 -234.54274 L -721.4119 -232.87003 C -720.1647 -232.45429 -718.8841 -232.14624 -717.5842 -231.9493 L -713.4854 -231.32826 C -713.12024 -231.27294 -712.75385 -231.22642 -712.3865 -231.18874 L -705.5054 -230.48299 C -705.2602 -230.45784 -705.01466 -230.43664 -704.7688 -230.41938 L -700.24165 -230.1017 C -699.7058 -230.06409 -699.1688 -230.04527 -698.6316 -230.04527 L -695.3695 -230.04526 C -694.41584 -230.04526 -693.4631 -230.10458 -692.5167 -230.22287 L -688.528 -230.72146 C -687.86805 -230.80396 -687.212 -230.91504 -686.56165 -231.0544 L -680.4796 -232.3577 C -679.5857 -232.54924 -678.7041 -232.7939 -677.8393 -233.0904 L -673.3305 -234.63628 C -672.5358 -234.90873 -671.7567 -235.2245 -670.9966 -235.5822 L -666.1632 -237.85674 C -665.613 -238.11565 -665.0733 -238.3963 -664.5454 -238.69798 L -660.7775 -240.85104 C -660.0847 -241.24692 -659.413 -241.67858 -658.7651 -242.14428 L -654.0889 -245.50525 C -653.58825 -245.8651 -653.10224 -246.24497 -652.6321 -246.6439 L -647.3112 -251.15856 C -646.9289 -251.48294 -646.5573 -251.81974 -646.197 -252.16842 L -641.4978 -256.71604 C -640.8582 -257.335 -640.2551 -257.99056 -639.6915 -258.67942 L -635.8982 -263.31566 C -635.3915 -263.93497 -634.9174 -264.5803 -634.478 -265.24904 L -630.8608 -270.75344 C -630.6454 -271.08127 -630.4384 -271.41456 -630.24 -271.75298 L -627.7169 -276.05708 C -627.33094 -276.71546 -626.978 -277.39265 -626.6594 -278.08612 L -624.5407 -282.6974 C -624.0078 -283.85715 -623.6367 -285.08456 -623.4376 -286.34526 L -623.4376 -286.34526 C -623.2593 -287.47453 -623.8386 -288.58797 -624.8657 -289.0901 L -630.1591 -291.678 C -631.4736 -292.32063 -632.7082 -293.11514 -633.8376 -294.04526 L -634.2436 -294.37963 C -635.08795 -295.07496 -635.71136 -296.00126 -636.0376 -297.04526 L -636.0376 -297.04526 C -636.0843 -297.19458 -636.24314 -297.2778 -636.39246 -297.23114 C -636.5075 -297.19518 -636.5872 -297.0903 -636.5911 -296.9698 L -636.7003 -293.5469 C -636.79106 -290.7038 -637.4084 -287.90224 -638.521 -285.28433 L -639.39794 -283.22096 C -639.9565 -281.9067 -640.63626 -280.6473 -641.4284 -279.4591 L -645.1142 -273.9304 C -645.8617 -272.80915 -646.7063 -271.75575 -647.63825 -270.78238 L -653.9333 -264.20753 C -654.8014 -263.30087 -655.7422 -262.4668 -656.7464 -261.71367 L -665.1213 -255.4325 C -665.9977 -254.77518 -666.92 -254.18133 -667.88104 -253.65546 L -675.06624 -249.72394 C -676.3774 -249.00653 -677.7553 -248.41863 -679.1805 -247.96857 L -685.8534 -245.86133 C -687.5703 -245.31916 -689.3449 -244.98046 -691.1407 -244.85219 L -698.0272 -244.3603 C -699.0995 -244.2837 -700.1758 -244.28238 -701.2483 -244.35635 L -709.6846 -244.93816 C -710.71875 -245.00948 -711.7469 -245.15064 -712.76205 -245.36067 L -719.8973 -246.83692 C -721.8492 -247.24077 -723.7404 -247.89665 -725.5232 -248.78808 L -730.18265 -251.1178 C -731.4168 -251.73485 -732.5929 -252.46173 -733.6967 -253.2896 L -739.3787 -257.55108 C -739.8178 -257.88043 -740.245 -258.2254 -740.6595 -258.58532 L -746.4147 -263.58324 C -747.229 -264.29038 -747.9925 -265.05392 -748.6996 -265.8682 L -753.1049 -270.9409 C -753.859 -271.80925 -754.5469 -272.73295 -755.1628 -273.70422 L -758.8965 -279.59198 C -759.2571 -280.16056 -759.5925 -280.7447 -759.9018 -281.34272 L -761.5222 -284.47544 C -762.1313 -285.65312 -762.6375 -286.88126 -763.035 -288.14615 L -764.3153 -292.21964 C -764.53005 -292.90302 -764.7128 -293.59605 -764.8629 -294.2965 L -765.0883 -295.34843 C -765.1734 -295.74544 -764.947 -296.1431 -764.5622 -296.27263 L -764.5622 -296.27263 C -764.4897 -296.29704 -764.4112 -296.25805 -764.38675 -296.18556 C -764.3687 -296.13205 -764.385 -296.07296 -764.4279 -296.0362 Z" stroke="#7f8080" stroke-linecap="round" stroke-linejoin="round" stroke-width="1"/>
      <path d="M -835.1868 129.20001 L -835.1868 129.20001 C -835.2525 129.72549 -835.1896 130.25905 -835.0037 130.7549 L -834.3527 132.49092 C -834.1759 132.96227 -833.9489 133.41318 -833.6754 133.83582 L -832.7076 135.33153 C -832.1666 136.16756 -831.4535 136.87855 -830.6159 137.41702 L -829.5378 138.11005 C -829.2376 138.30307 -828.923 138.47285 -828.5968 138.61789 L -827.28 139.20349 C -826.6835 139.46876 -826.0528 139.64928 -825.4062 139.7398 L -816.3958 141.00126 C -816.3858 141.00265 -816.3758 141.00403 -816.3658 141.00539 L -804.6498 142.594 C -804.6038 142.60024 -804.5577 142.60601 -804.5116 142.61134 L -794.2287 143.79783 C -794.1968 143.80151 -794.1648 143.80498 -794.1328 143.80822 L -780.4228 145.1991 C -780.3948 145.20193 -780.3668 145.2046 -780.3388 145.2071 L -769.2335 146.19865 C -769.1984 146.20179 -769.1632 146.20466 -769.12805 146.20726 L -758.4415 146.99886 C -758.401 147.00185 -758.3605 147.0045 -758.32 147.0068 L -747.812 147.60159 C -747.7912 147.60276 -747.7704 147.60404 -747.7496 147.6054 L -735.7068 148.39509 C -735.6228 148.4006 -735.5387 148.4046 -735.4546 148.40707 L -722.0074 148.80257 C -721.9897 148.8031 -721.9719 148.80368 -721.95415 148.80434 L -711.3103 149.19856 C -711.224 149.20176 -711.1376 149.20335 -711.0512 149.20335 L -700.4422 149.20335 C -700.4013 149.20335 -700.3603 149.20371 -700.3194 149.20443 L -689.233 149.39893 C -689.0649 149.40188 -688.8968 149.39877 -688.72894 149.38962 L -678.1077 148.81028 C -678.0231 148.80566 -677.9384 148.80258 -677.8537 148.80104 L -667.08915 148.60532 C -667.0169 148.60401 -666.9447 148.60158 -666.87255 148.59803 L -654.8539 148.00695 C -654.8052 148.00455 -654.75645 148.00165 -654.70775 147.99823 L -643.4677 147.20945 C -643.4098 147.20539 -643.3519 147.2006 -643.2941 147.1951 L -630.8835 146.01313 C -630.815 146.00661 -630.7465 146.0011 -630.67786 145.9966 L -618.7458 145.21418 C -618.6358 145.20696 -618.526 145.19715 -618.41645 145.18475 L -608.0041 144.006 C -607.98856 144.00423 -607.973 144.00242 -607.9575 144.00056 L -598.0098 142.80683 C -597.99046 142.80451 -597.97114 142.80211 -597.9518 142.79963 L -584.11606 141.0221 C -584.01885 141.0096 -583.9219 140.99507 -583.8253 140.97851 L -577.2718 139.85506 C -577.07085 139.8206 -576.8685 139.79495 -576.6653 139.77817 L -573.43294 139.5112 C -572.5437 139.43775 -571.6767 139.19497 -570.87865 138.79594 L -569.39235 138.0528 C -568.79176 137.7525 -568.2375 137.36735 -567.7466 136.90919 L -566.4115 135.66308 C -565.8047 135.09672 -565.3493 134.38747 -565.0868 133.60001 L -564.79195 132.71552 C -564.7219 132.5053 -564.6618 132.29187 -564.612 132.07595 L -564.1423 130.04056 C -564.1071 129.88792 -564.1405 129.72752 -564.2338 129.60168 L -564.2338 129.60168 C -564.3241 129.4798 -564.4748 129.4183 -564.6246 129.44214 L -573.10445 130.79121 C -573.15534 130.7993 -573.20615 130.80796 -573.25685 130.81718 L -586.2416 133.17805 C -586.3344 133.19492 -586.4275 133.20991 -586.5209 133.22302 L -597.7506 134.79911 C -597.7707 134.80194 -597.79086 134.80486 -597.811 134.80786 L -610.9336 136.76645 C -611.0983 136.79105 -611.2639 136.80975 -611.43 136.82253 L -624.1548 137.80136 C -624.17214 137.80269 -624.18945 137.80396 -624.2068 137.80516 L -638.5469 138.801 C -638.5695 138.80257 -638.5921 138.80403 -638.6147 138.80538 L -651.91795 139.5996 C -651.95984 139.6021 -652.0018 139.60423 -652.0437 139.60597 L -666.23515 140.19729 C -666.3322 140.20133 -666.4294 140.20335 -666.5266 140.20335 L -679.7808 140.20335 L -692.3225 140.20335 C -692.36135 140.20335 -692.4002 140.20368 -692.4391 140.20433 L -704.1975 140.4003 C -704.3197 140.40234 -704.4419 140.40117 -704.564 140.39681 L -715.3976 140.0099 C -715.5197 140.00554 -715.6419 140.00437 -715.7641 140.00641 L -727.4787 140.20165 C -727.5468 140.20279 -727.6148 140.20293 -727.6829 140.20208 L -743.38516 140.0058 C -743.5156 140.00417 -743.6459 139.9989 -743.776 139.98998 L -758.0858 139.00986 C -758.1491 139.00552 -758.2124 139.00032 -758.2756 138.99426 L -772.7666 137.60471 C -772.7761 137.6038 -772.7855 137.60288 -772.795 137.60194 L -786.607 136.22073 C -786.72285 136.20915 -786.8384 136.19468 -786.9535 136.17733 L -801.2627 134.02116 C -801.3414 134.00929 -801.4204 133.99877 -801.4995 133.9896 L -815.0194 132.42207 C -815.127 132.4096 -815.2343 132.39463 -815.3411 132.37718 L -824.7332 130.84377 C -824.8982 130.81684 -825.0622 130.784 -825.2248 130.74532 L -834.3024 128.58654 C -834.6908 128.49419 -835.0804 128.73412 -835.1728 129.12244 C -835.1788 129.14802 -835.1835 129.17392 -835.1868 129.20001 Z" fill="black"/>
      <path d="M -835.1868 129.20001 L -835.1868 129.20001 C -835.2525 129.72549 -835.1896 130.25905 -835.0037 130.7549 L -834.3527 132.49092 C -834.1759 132.96227 -833.9489 133.41318 -833.6754 133.83582 L -832.7076 135.33153 C -832.1666 136.16756 -831.4535 136.87855 -830.6159 137.41702 L -829.5378 138.11005 C -829.2376 138.30307 -828.923 138.47285 -828.5968 138.61789 L -827.28 139.20349 C -826.6835 139.46876 -826.0528 139.64928 -825.4062 139.7398 L -816.3958 141.00126 C -816.3858 141.00265 -816.3758 141.00403 -816.3658 141.00539 L -804.6498 142.594 C -804.6038 142.60024 -804.5577 142.60601 -804.5116 142.61134 L -794.2287 143.79783 C -794.1968 143.80151 -794.1648 143.80498 -794.1328 143.80822 L -780.4228 145.1991 C -780.3948 145.20193 -780.3668 145.2046 -780.3388 145.2071 L -769.2335 146.19865 C -769.1984 146.20179 -769.1632 146.20466 -769.12805 146.20726 L -758.4415 146.99886 C -758.401 147.00185 -758.3605 147.0045 -758.32 147.0068 L -747.812 147.60159 C -747.7912 147.60276 -747.7704 147.60404 -747.7496 147.6054 L -735.7068 148.39509 C -735.6228 148.4006 -735.5387 148.4046 -735.4546 148.40707 L -722.0074 148.80257 C -721.9897 148.8031 -721.9719 148.80368 -721.95415 148.80434 L -711.3103 149.19856 C -711.224 149.20176 -711.1376 149.20335 -711.0512 149.20335 L -700.4422 149.20335 C -700.4013 149.20335 -700.3603 149.20371 -700.3194 149.20443 L -689.233 149.39893 C -689.0649 149.40188 -688.8968 149.39877 -688.72894 149.38962 L -678.1077 148.81028 C -678.0231 148.80566 -677.9384 148.80258 -677.8537 148.80104 L -667.08915 148.60532 C -667.0169 148.60401 -666.9447 148.60158 -666.87255 148.59803 L -654.8539 148.00695 C -654.8052 148.00455 -654.75645 148.00165 -654.70775 147.99823 L -643.4677 147.20945 C -643.4098 147.20539 -643.3519 147.2006 -643.2941 147.1951 L -630.8835 146.01313 C -630.815 146.00661 -630.7465 146.0011 -630.67786 145.9966 L -618.7458 145.21418 C -618.6358 145.20696 -618.526 145.19715 -618.41645 145.18475 L -608.0041 144.006 C -607.98856 144.00423 -607.973 144.00242 -607.9575 144.00056 L -598.0098 142.80683 C -597.99046 142.80451 -597.97114 142.80211 -597.9518 142.79963 L -584.11606 141.0221 C -584.01885 141.0096 -583.9219 140.99507 -583.8253 140.97851 L -577.2718 139.85506 C -577.07085 139.8206 -576.8685 139.79495 -576.6653 139.77817 L -573.43294 139.5112 C -572.5437 139.43775 -571.6767 139.19497 -570.87865 138.79594 L -569.39235 138.0528 C -568.79176 137.7525 -568.2375 137.36735 -567.7466 136.90919 L -566.4115 135.66308 C -565.8047 135.09672 -565.3493 134.38747 -565.0868 133.60001 L -564.79195 132.71552 C -564.7219 132.5053 -564.6618 132.29187 -564.612 132.07595 L -564.1423 130.04056 C -564.1071 129.88792 -564.1405 129.72752 -564.2338 129.60168 L -564.2338 129.60168 C -564.3241 129.4798 -564.4748 129.4183 -564.6246 129.44214 L -573.10445 130.79121 C -573.15534 130.7993 -573.20615 130.80796 -573.25685 130.81718 L -586.2416 133.17805 C -586.3344 133.19492 -586.4275 133.20991 -586.5209 133.22302 L -597.7506 134.79911 C -597.7707 134.80194 -597.79086 134.80486 -597.811 134.80786 L -610.9336 136.76645 C -611.0983 136.79105 -611.2639 136.80975 -611.43 136.82253 L -624.1548 137.80136 C -624.17214 137.80269 -624.18945 137.80396 -624.2068 137.80516 L -638.5469 138.801 C -638.5695 138.80257 -638.5921 138.80403 -638.6147 138.80538 L -651.91795 139.5996 C -651.95984 139.6021 -652.0018 139.60423 -652.0437 139.60597 L -666.23515 140.19729 C -666.3322 140.20133 -666.4294 140.20335 -666.5266 140.20335 L -679.7808 140.20335 L -692.3225 140.20335 C -692.36135 140.20335 -692.4002 140.20368 -692.4391 140.20433 L -704.1975 140.4003 C -704.3197 140.40234 -704.4419 140.40117 -704.564 140.39681 L -715.3976 140.0099 C -715.5197 140.00554 -715.6419 140.00437 -715.7641 140.00641 L -727.4787 140.20165 C -727.5468 140.20279 -727.6148 140.20293 -727.6829 140.20208 L -743.38516 140.0058 C -743.5156 140.00417 -743.6459 139.9989 -743.776 139.98998 L -758.0858 139.00986 C -758.1491 139.00552 -758.2124 139.00032 -758.2756 138.99426 L -772.7666 137.60471 C -772.7761 137.6038 -772.7855 137.60288 -772.795 137.60194 L -786.607 136.22073 C -786.72285 136.20915 -786.8384 136.19468 -786.9535 136.17733 L -801.2627 134.02116 C -801.3414 134.00929 -801.4204 133.99877 -801.4995 133.9896 L -815.0194 132.42207 C -815.127 132.4096 -815.2343 132.39463 -815.3411 132.37718 L -824.7332 130.84377 C -824.8982 130.81684 -825.0622 130.784 -825.2248 130.74532 L -834.3024 128.58654 C -834.6908 128.49419 -835.0804 128.73412 -835.1728 129.12244 C -835.1788 129.14802 -835.1835 129.17392 -835.1868 129.20001 Z" stroke="#7f8080" stroke-linecap="round" stroke-linejoin="round" stroke-width="1"/>
      <path d="M -762.9 -296.2441 L -757.5 -296.8441 L -750.7 -293.4441 L -745.7 -291.6441 L -737.3 -289.8441 L -728.9 -288.8441 L -720.9 -287.8441 L -713.3 -287.6441 L -704.7 -287.2441 L -693.1 -287.4441 L -684.7 -287.8441 L -675.3 -288.4441 L -666.9 -289.2441 L -657.7 -290.6441 L -649.5 -292.8441 L -643.7 -294.6441 L -638.1 -297.2441 L -635.3 -296.0441 L -634.9 -290.4441 L -637.7 -282.4441 L -643.1 -279.6441 L -653.7 -276.4441 L -665.1 -274.0441 L -676.3 -273.2441 L -688.7 -272.2441 L -699.1 -272.2441 L -708.5 -272.2441 L -720.1 -272.8441 L -731.3 -273.6441 L -741.9 -275.8441 L -750.5 -277.8441 L -756.7 -280.6441 L -758.7 -282.2441 L -761.9 -289.8441 Z" fill="url(#Obj_Gradient_2)"/>
      <path d="M -762.9 -296.2441 L -757.5 -296.8441 L -750.7 -293.4441 L -745.7 -291.6441 L -737.3 -289.8441 L -728.9 -288.8441 L -720.9 -287.8441 L -713.3 -287.6441 L -704.7 -287.2441 L -693.1 -287.4441 L -684.7 -287.8441 L -675.3 -288.4441 L -666.9 -289.2441 L -657.7 -290.6441 L -649.5 -292.8441 L -643.7 -294.6441 L -638.1 -297.2441 L -635.3 -296.0441 L -634.9 -290.4441 L -637.7 -282.4441 L -643.1 -279.6441 L -653.7 -276.4441 L -665.1 -274.0441 L -676.3 -273.2441 L -688.7 -272.2441 L -699.1 -272.2441 L -708.5 -272.2441 L -720.1 -272.8441 L -731.3 -273.6441 L -741.9 -275.8441 L -750.5 -277.8441 L -756.7 -280.6441 L -758.7 -282.2441 L -761.9 -289.8441 Z" stroke="#7f8080" stroke-linecap="round" stroke-linejoin="round" stroke-width="1"/>
      <path d="M -483.07103 -147.49725 L -489.27103 -143.09725 L -497.47103 -139.09725 L -506.07103 -135.49725 L -515.07103 -131.69725 L -526.071 -127.69725 L -535.471 -124.89725 L -544.471 -122.29725 L -553.471 -119.69725 L -558.871 -118.29725 L -564.471 -117.29725 L -567.471 -123.69725 L -563.671 -124.49725 L -558.871 -125.69725 L -553.271 -126.89725 L -547.271 -128.69725 L -542.671 -130.09725 L -538.471 -131.29725 L -533.871 -133.29725 L -529.271 -134.89725 L -524.471 -136.89725 L -520.47103 -138.29725 L -515.27103 -140.49725 L -510.67103 -142.09725 L -505.87103 -144.29725 L -501.07103 -146.09725 L -497.07103 -148.09725 L -492.67103 -150.29725 L -488.27103 -152.49725 L -484.87103 -154.09725 Z" fill="url(#Obj_Gradient_3)"/>
      <path d="M -483.07103 -147.49725 L -489.27103 -143.09725 L -497.47103 -139.09725 L -506.07103 -135.49725 L -515.07103 -131.69725 L -526.071 -127.69725 L -535.471 -124.89725 L -544.471 -122.29725 L -553.471 -119.69725 L -558.871 -118.29725 L -564.471 -117.29725 L -567.471 -123.69725 L -563.671 -124.49725 L -558.871 -125.69725 L -553.271 -126.89725 L -547.271 -128.69725 L -542.671 -130.09725 L -538.471 -131.29725 L -533.871 -133.29725 L -529.271 -134.89725 L -524.471 -136.89725 L -520.47103 -138.29725 L -515.27103 -140.49725 L -510.67103 -142.09725 L -505.87103 -144.29725 L -501.07103 -146.09725 L -497.07103 -148.09725 L -492.67103 -150.29725 L -488.27103 -152.49725 L -484.87103 -154.09725 Z" stroke="#7f8080" stroke-linecap="round" stroke-linejoin="round" stroke-width="1"/>
      <path d="M -915 -146.55385 L -908.8 -142.15385 L -900.6 -138.15385 L -892 -134.55385 L -883 -130.75385 L -872 -126.75385 L -862.6 -123.95385 L -853.6 -121.35385 L -844.6 -118.75385 L -839.2 -117.35385 L -833.6 -116.35385 L -830.6 -122.75385 L -834.4 -123.55385 L -839.2 -124.75385 L -844.8 -125.95385 L -850.8 -127.75385 L -855.4 -129.15385 L -859.6 -130.35385 L -864.2 -132.35385 L -868.8 -133.95385 L -873.6 -135.95385 L -877.6 -137.35385 L -882.8 -139.55385 L -887.4 -141.15385 L -892.2 -143.35385 L -897 -145.15385 L -901 -147.15385 L -905.4 -149.35385 L -909.8 -151.55385 L -913.2 -153.15385 Z" fill="url(#Obj_Gradient_4)"/>
      <path d="M -915 -146.55385 L -908.8 -142.15385 L -900.6 -138.15385 L -892 -134.55385 L -883 -130.75385 L -872 -126.75385 L -862.6 -123.95385 L -853.6 -121.35385 L -844.6 -118.75385 L -839.2 -117.35385 L -833.6 -116.35385 L -830.6 -122.75385 L -834.4 -123.55385 L -839.2 -124.75385 L -844.8 -125.95385 L -850.8 -127.75385 L -855.4 -129.15385 L -859.6 -130.35385 L -864.2 -132.35385 L -868.8 -133.95385 L -873.6 -135.95385 L -877.6 -137.35385 L -882.8 -139.55385 L -887.4 -141.15385 L -892.2 -143.35385 L -897 -145.15385 L -901 -147.15385 L -905.4 -149.35385 L -909.8 -151.55385 L -913.2 -153.15385 Z" stroke="#7f8080" stroke-linecap="round" stroke-linejoin="round" stroke-width="1"/>
      <path d="M -729 141.9 L -668.5 143.9 L -669 -239.1 L -668.5 -236.1 L -681.5 -236.1 L -694.5 -234.1 L -704.5 -234.6 L -717.5 -236.1 L -728.5 -239.1 L -730.5 -240.1 Z" fill="blue"/>
      <path d="M -729 141.9 L -668.5 143.9 L -669 -239.1 L -668.5 -236.1 L -681.5 -236.1 L -694.5 -234.1 L -704.5 -234.6 L -717.5 -236.1 L -728.5 -239.1 L -730.5 -240.1 Z" stroke="#7f8080" stroke-linecap="round" stroke-linejoin="round" stroke-width="1"/>
      <path d="M -789 136.40001 L -806.6 135.40001 L -818.6 137.80001 L -831 133.00001 L -834.3031 128.22366 L -829.3031 97.22366 L -827.4894 71.14863 L -824.9894 43.14863 L -823.4894 16.14863 L -822.9894 -12.851369 L -821.4894 -39.85137 L -820.9894 -65.35137 L -821.9894 -101.35137 L -822.9894 -134.85137 L -822.9894 -149.85137 L -825.4894 -165.35137 L -827.9894 -180.35137 L -832.4894 -195.85137 L -836.9894 -210.35137 L -841.9894 -223.85137 L -848.4894 -237.35137 L -854.9894 -247.85137 L -858.4894 -254.35137 L -849.3031 -260.77634 L -836.3031 -265.77634 L -823.3031 -269.77634 L -804.9894 -275.35137 L -793.9894 -278.85137 L -789.3031 -279.77634 Z" fill="blue"/>
      <path d="M -789 136.40001 L -806.6 135.40001 L -818.6 137.80001 L -831 133.00001 L -834.3031 128.22366 L -829.3031 97.22366 L -827.4894 71.14863 L -824.9894 43.14863 L -823.4894 16.14863 L -822.9894 -12.851369 L -821.4894 -39.85137 L -820.9894 -65.35137 L -821.9894 -101.35137 L -822.9894 -134.85137 L -822.9894 -149.85137 L -825.4894 -165.35137 L -827.9894 -180.35137 L -832.4894 -195.85137 L -836.9894 -210.35137 L -841.9894 -223.85137 L -848.4894 -237.35137 L -854.9894 -247.85137 L -858.4894 -254.35137 L -849.3031 -260.77634 L -836.3031 -265.77634 L -823.3031 -269.77634 L -804.9894 -275.35137 L -793.9894 -278.85137 L -789.3031 -279.77634 Z" stroke="#7f8080" stroke-linecap="round" stroke-linejoin="round" stroke-width="1"/>
      <path d="M -608.4 137.00001 L -591.781 133.34086 L -580.781 132.34086 L -567.781 130.34086 L -563.6 130.60001 L -568.781 97.34086 L -571.781 70.340856 L -573.781 43.340856 L -575 16.400007 L -576.6 -11.999994 L -577.781 -40.659144 L -578.2 -64.799995 L -577 -101.8 L -575.2 -134.4 L -572.2 -164 L -570 -180.2 L -566.6 -196.4 L -561.8 -209.4 L -557.4 -221.6 L -550.8 -235.4 L -543.6 -247.6 L -539.781 -255.65914 L -548.781 -260.65914 L -561.781 -265.65914 L -574.781 -269.65914 L -593.781 -274.65914 L -608.781 -279.65914 Z" fill="blue"/>
      <path d="M -608.4 137.00001 L -591.781 133.34086 L -580.781 132.34086 L -567.781 130.34086 L -563.6 130.60001 L -568.781 97.34086 L -571.781 70.340856 L -573.781 43.340856 L -575 16.400007 L -576.6 -11.999994 L -577.781 -40.659144 L -578.2 -64.799995 L -577 -101.8 L -575.2 -134.4 L -572.2 -164 L -570 -180.2 L -566.6 -196.4 L -561.8 -209.4 L -557.4 -221.6 L -550.8 -235.4 L -543.6 -247.6 L -539.781 -255.65914 L -548.781 -260.65914 L -561.781 -265.65914 L -574.781 -269.65914 L -593.781 -274.65914 L -608.781 -279.65914 Z" stroke="#7f8080" stroke-linecap="round" stroke-linejoin="round" stroke-width="1"/>
      <path d="M -765.1556 -296.0362 L -769.8848 -291.98264 C -771.0351 -290.99662 -772.2801 -290.1267 -773.6015 -289.3855 L -776.1281 -287.96835 C -777.5633 -287.16338 -778.1441 -285.39425 -777.4653 -283.89527 L -776.4477 -281.64803 C -776.3261 -281.37954 -776.1994 -281.11342 -776.0676 -280.8498 L -774.2653 -277.24526 L -771.7783 -272.2713 C -771.43655 -271.5877 -771.0609 -270.92157 -770.6528 -270.27537 L -768.3264 -266.59192 C -767.886 -265.89465 -767.4084 -265.22158 -766.8958 -264.5756 L -763.4851 -260.27815 C -762.939 -259.59013 -762.354 -258.93394 -761.7329 -258.31283 L -757.0669 -253.6468 C -756.666 -253.2459 -756.2504 -252.86 -755.821 -252.48982 L -751.2575 -248.55574 C -750.8628 -248.21552 -750.4567 -247.8888 -750.0399 -247.57617 L -746.0649 -244.59497 C -745.399 -244.09553 -744.7065 -243.63262 -743.9904 -243.20826 L -739.8573 -240.75904 C -739.7293 -240.6832 -739.6006 -240.6086 -739.4712 -240.53523 L -734.7736 -237.8733 C -734.0353 -237.45493 -733.27445 -237.07774 -732.4945 -236.74347 L -728.94465 -235.22212 C -728.3587 -234.971 -727.7625 -234.74433 -727.15775 -234.54274 L -722.1396 -232.87003 C -720.8924 -232.45429 -719.6118 -232.14624 -718.3119 -231.9493 L -714.2131 -231.32826 C -713.848 -231.27294 -713.4816 -231.22642 -713.1142 -231.18874 L -706.2331 -230.48299 C -705.9879 -230.45784 -705.7424 -230.43664 -705.4965 -230.41938 L -700.9694 -230.1017 C -700.4335 -230.06409 -699.8965 -230.04527 -699.3593 -230.04527 L -696.0973 -230.04526 C -695.1436 -230.04526 -694.1908 -230.10458 -693.24445 -230.22287 L -689.2557 -230.72146 C -688.5958 -230.80396 -687.9397 -230.91504 -687.2894 -231.0544 L -681.2073 -232.3577 C -680.3135 -232.54924 -679.4318 -232.7939 -678.56705 -233.0904 L -674.0582 -234.63628 C -673.26355 -234.90873 -672.4844 -235.2245 -671.7243 -235.5822 L -666.89095 -237.85674 C -666.34075 -238.11565 -665.80104 -238.3963 -665.2731 -238.69798 L -661.5052 -240.85104 C -660.8124 -241.24692 -660.1407 -241.67858 -659.4928 -242.14428 L -654.81666 -245.50525 C -654.316 -245.8651 -653.83 -246.24497 -653.3598 -246.6439 L -648.03895 -251.15856 C -647.65664 -251.48294 -647.285 -251.81974 -646.92474 -252.16842 L -642.2255 -256.71604 C -641.5859 -257.335 -640.9828 -257.99056 -640.4192 -258.67942 L -636.6259 -263.31566 C -636.1192 -263.93497 -635.64516 -264.5803 -635.2057 -265.24904 L -631.5885 -270.75344 C -631.3731 -271.08127 -631.1661 -271.41456 -630.9677 -271.75298 L -628.4446 -276.05708 C -628.0587 -276.71546 -627.7057 -277.39265 -627.3871 -278.08612 L -625.2684 -282.6974 C -624.73554 -283.85715 -624.3644 -285.08456 -624.1653 -286.34526 L -624.1653 -286.34526 C -623.987 -287.47453 -624.5663 -288.58797 -625.5934 -289.0901 L -630.88684 -291.678 C -632.2013 -292.32063 -633.4359 -293.11514 -634.5653 -294.04526 L -634.97134 -294.37963 C -635.8157 -295.07496 -636.4391 -296.00126 -636.7653 -297.04526 L -636.7653 -297.04526 C -636.812 -297.19458 -636.9709 -297.2778 -637.1202 -297.23114 C -637.23525 -297.19518 -637.31496 -297.0903 -637.3188 -296.9698 L -637.42805 -293.5469 C -637.5188 -290.7038 -638.1361 -287.90224 -639.2487 -285.28433 L -640.1257 -283.22096 C -640.6842 -281.9067 -641.364 -280.6473 -642.1561 -279.4591 L -645.8419 -273.9304 C -646.5894 -272.80915 -647.434 -271.75575 -648.366 -270.78238 L -654.661 -264.20753 C -655.5291 -263.30087 -656.46995 -262.4668 -657.4741 -261.71367 L -665.849 -255.4325 C -666.72544 -254.77518 -667.6477 -254.18133 -668.6088 -253.65546 L -675.794 -249.72394 C -677.1051 -249.00653 -678.483 -248.41863 -679.9082 -247.96857 L -686.5811 -245.86133 C -688.298 -245.31916 -690.0726 -244.98046 -691.86846 -244.85219 L -698.7549 -244.3603 C -699.8272 -244.2837 -700.90355 -244.28238 -701.976 -244.35635 L -710.4123 -244.93816 C -711.4465 -245.00948 -712.47464 -245.15064 -713.4898 -245.36067 L -720.625 -246.83692 C -722.5769 -247.24077 -724.4681 -247.89665 -726.251 -248.78808 L -730.9104 -251.1178 C -732.1445 -251.73485 -733.3206 -252.46173 -734.4245 -253.2896 L -740.1064 -257.55108 C -740.54556 -257.88043 -740.9728 -258.2254 -741.3872 -258.58532 L -747.1424 -263.58324 C -747.9567 -264.29038 -748.7202 -265.05392 -749.4274 -265.8682 L -753.8326 -270.9409 C -754.5867 -271.80925 -755.2746 -272.73295 -755.8905 -273.70422 L -759.6242 -279.59198 C -759.9848 -280.16056 -760.3202 -280.7447 -760.6295 -281.34272 L -762.2499 -284.47544 C -762.85905 -285.65312 -763.3652 -286.88126 -763.7628 -288.14615 L -765.043 -292.21964 C -765.2578 -292.90302 -765.4405 -293.59605 -765.5906 -294.2965 L -765.816 -295.34843 C -765.9011 -295.74544 -765.6747 -296.1431 -765.2899 -296.27263 L -765.2899 -296.27263 C -765.2174 -296.29704 -765.1389 -296.25805 -765.1145 -296.18556 C -765.0965 -296.13205 -765.1127 -296.07296 -765.1556 -296.0362 Z" fill="url(#Obj_Gradient_5)"/>
      <path d="M -765.1556 -296.0362 L -769.8848 -291.98264 C -771.0351 -290.99662 -772.2801 -290.1267 -773.6015 -289.3855 L -776.1281 -287.96835 C -777.5633 -287.16338 -778.1441 -285.39425 -777.4653 -283.89527 L -776.4477 -281.64803 C -776.3261 -281.37954 -776.1994 -281.11342 -776.0676 -280.8498 L -774.2653 -277.24526 L -771.7783 -272.2713 C -771.43655 -271.5877 -771.0609 -270.92157 -770.6528 -270.27537 L -768.3264 -266.59192 C -767.886 -265.89465 -767.4084 -265.22158 -766.8958 -264.5756 L -763.4851 -260.27815 C -762.939 -259.59013 -762.354 -258.93394 -761.7329 -258.31283 L -757.0669 -253.6468 C -756.666 -253.2459 -756.2504 -252.86 -755.821 -252.48982 L -751.2575 -248.55574 C -750.8628 -248.21552 -750.4567 -247.8888 -750.0399 -247.57617 L -746.0649 -244.59497 C -745.399 -244.09553 -744.7065 -243.63262 -743.9904 -243.20826 L -739.8573 -240.75904 C -739.7293 -240.6832 -739.6006 -240.6086 -739.4712 -240.53523 L -734.7736 -237.8733 C -734.0353 -237.45493 -733.27445 -237.07774 -732.4945 -236.74347 L -728.94465 -235.22212 C -728.3587 -234.971 -727.7625 -234.74433 -727.15775 -234.54274 L -722.1396 -232.87003 C -720.8924 -232.45429 -719.6118 -232.14624 -718.3119 -231.9493 L -714.2131 -231.32826 C -713.848 -231.27294 -713.4816 -231.22642 -713.1142 -231.18874 L -706.2331 -230.48299 C -705.9879 -230.45784 -705.7424 -230.43664 -705.4965 -230.41938 L -700.9694 -230.1017 C -700.4335 -230.06409 -699.8965 -230.04527 -699.3593 -230.04527 L -696.0973 -230.04526 C -695.1436 -230.04526 -694.1908 -230.10458 -693.24445 -230.22287 L -689.2557 -230.72146 C -688.5958 -230.80396 -687.9397 -230.91504 -687.2894 -231.0544 L -681.2073 -232.3577 C -680.3135 -232.54924 -679.4318 -232.7939 -678.56705 -233.0904 L -674.0582 -234.63628 C -673.26355 -234.90873 -672.4844 -235.2245 -671.7243 -235.5822 L -666.89095 -237.85674 C -666.34075 -238.11565 -665.80104 -238.3963 -665.2731 -238.69798 L -661.5052 -240.85104 C -660.8124 -241.24692 -660.1407 -241.67858 -659.4928 -242.14428 L -654.81666 -245.50525 C -654.316 -245.8651 -653.83 -246.24497 -653.3598 -246.6439 L -648.03895 -251.15856 C -647.65664 -251.48294 -647.285 -251.81974 -646.92474 -252.16842 L -642.2255 -256.71604 C -641.5859 -257.335 -640.9828 -257.99056 -640.4192 -258.67942 L -636.6259 -263.31566 C -636.1192 -263.93497 -635.64516 -264.5803 -635.2057 -265.24904 L -631.5885 -270.75344 C -631.3731 -271.08127 -631.1661 -271.41456 -630.9677 -271.75298 L -628.4446 -276.05708 C -628.0587 -276.71546 -627.7057 -277.39265 -627.3871 -278.08612 L -625.2684 -282.6974 C -624.73554 -283.85715 -624.3644 -285.08456 -624.1653 -286.34526 L -624.1653 -286.34526 C -623.987 -287.47453 -624.5663 -288.58797 -625.5934 -289.0901 L -630.88684 -291.678 C -632.2013 -292.32063 -633.4359 -293.11514 -634.5653 -294.04526 L -634.97134 -294.37963 C -635.8157 -295.07496 -636.4391 -296.00126 -636.7653 -297.04526 L -636.7653 -297.04526 C -636.812 -297.19458 -636.9709 -297.2778 -637.1202 -297.23114 C -637.23525 -297.19518 -637.31496 -297.0903 -637.3188 -296.9698 L -637.42805 -293.5469 C -637.5188 -290.7038 -638.1361 -287.90224 -639.2487 -285.28433 L -640.1257 -283.22096 C -640.6842 -281.9067 -641.364 -280.6473 -642.1561 -279.4591 L -645.8419 -273.9304 C -646.5894 -272.80915 -647.434 -271.75575 -648.366 -270.78238 L -654.661 -264.20753 C -655.5291 -263.30087 -656.46995 -262.4668 -657.4741 -261.71367 L -665.849 -255.4325 C -666.72544 -254.77518 -667.6477 -254.18133 -668.6088 -253.65546 L -675.794 -249.72394 C -677.1051 -249.00653 -678.483 -248.41863 -679.9082 -247.96857 L -686.5811 -245.86133 C -688.298 -245.31916 -690.0726 -244.98046 -691.86846 -244.85219 L -698.7549 -244.3603 C -699.8272 -244.2837 -700.90355 -244.28238 -701.976 -244.35635 L -710.4123 -244.93816 C -711.4465 -245.00948 -712.47464 -245.15064 -713.4898 -245.36067 L -720.625 -246.83692 C -722.5769 -247.24077 -724.4681 -247.89665 -726.251 -248.78808 L -730.9104 -251.1178 C -732.1445 -251.73485 -733.3206 -252.46173 -734.4245 -253.2896 L -740.1064 -257.55108 C -740.54556 -257.88043 -740.9728 -258.2254 -741.3872 -258.58532 L -747.1424 -263.58324 C -747.9567 -264.29038 -748.7202 -265.05392 -749.4274 -265.8682 L -753.8326 -270.9409 C -754.5867 -271.80925 -755.2746 -272.73295 -755.8905 -273.70422 L -759.6242 -279.59198 C -759.9848 -280.16056 -760.3202 -280.7447 -760.6295 -281.34272 L -762.2499 -284.47544 C -762.85905 -285.65312 -763.3652 -286.88126 -763.7628 -288.14615 L -765.043 -292.21964 C -765.2578 -292.90302 -765.4405 -293.59605 -765.5906 -294.2965 L -765.816 -295.34843 C -765.9011 -295.74544 -765.6747 -296.1431 -765.2899 -296.27263 L -765.2899 -296.27263 C -765.2174 -296.29704 -765.1389 -296.25805 -765.1145 -296.18556 C -765.0965 -296.13205 -765.1127 -296.07296 -765.1556 -296.0362 Z" stroke="#7f8080" stroke-linecap="round" stroke-linejoin="round" stroke-width="1"/>
      <path d="M -834.4165 129.20001 L -834.4165 129.20001 C -834.4822 129.72549 -834.4193 130.25905 -834.2334 130.7549 L -833.5824 132.49092 C -833.4056 132.96227 -833.1785 133.41318 -832.9051 133.83582 L -831.9373 135.33153 C -831.3963 136.16756 -830.6832 136.87855 -829.8456 137.41702 L -828.7675 138.11005 C -828.4673 138.30307 -828.1527 138.47285 -827.8265 138.61789 L -826.5097 139.20349 C -825.9132 139.46876 -825.2824 139.64928 -824.6359 139.7398 L -815.6255 141.00126 C -815.6155 141.00265 -815.6055 141.00403 -815.5955 141.00539 L -803.8795 142.594 C -803.8335 142.60024 -803.7874 142.60601 -803.7413 142.61134 L -793.4584 143.79783 C -793.4265 143.80151 -793.3945 143.80498 -793.3625 143.80822 L -779.6525 145.1991 C -779.6245 145.20193 -779.5965 145.2046 -779.5685 145.2071 L -768.4632 146.19865 C -768.42805 146.20179 -768.3929 146.20466 -768.3577 146.20726 L -757.6712 146.99886 C -757.6307 147.00185 -757.5902 147.0045 -757.5497 147.0068 L -747.0417 147.60159 C -747.0209 147.60276 -747.0001 147.60404 -746.9793 147.6054 L -734.9365 148.39509 C -734.8525 148.4006 -734.7684 148.4046 -734.6843 148.40707 L -721.2371 148.80257 C -721.2194 148.8031 -721.2016 148.80368 -721.18385 148.80434 L -710.54 149.19856 C -710.4537 149.20176 -710.3673 149.20335 -710.2809 149.20335 L -699.6719 149.20335 C -699.63096 149.20335 -699.59 149.20371 -699.5491 149.20443 L -688.4627 149.39893 C -688.2946 149.40188 -688.1265 149.39877 -687.9586 149.38962 L -677.3374 148.81028 C -677.2528 148.80566 -677.1681 148.80258 -677.0834 148.80104 L -666.31884 148.60532 C -666.2466 148.60401 -666.1744 148.60158 -666.10225 148.59803 L -654.0836 148.00695 C -654.0349 148.00455 -653.9861 148.00165 -653.93744 147.99823 L -642.6974 147.20945 C -642.63946 147.20539 -642.5816 147.2006 -642.52376 147.1951 L -630.1132 146.01313 C -630.0447 146.00661 -629.9762 146.0011 -629.90755 145.9966 L -617.9755 145.21418 C -617.8655 145.20696 -617.7557 145.19715 -617.64614 145.18475 L -607.2338 144.006 C -607.21826 144.00423 -607.2027 144.00242 -607.1872 144.00056 L -597.2395 142.80683 C -597.22015 142.80451 -597.2008 142.80211 -597.1815 142.79963 L -583.34575 141.0221 C -583.24854 141.0096 -583.1516 140.99507 -583.055 140.97851 L -576.5015 139.85506 C -576.30054 139.8206 -576.0982 139.79495 -575.89496 139.77817 L -572.6626 139.5112 C -571.7734 139.43775 -570.9064 139.19497 -570.10834 138.79594 L -568.62205 138.0528 C -568.02146 137.7525 -567.4672 137.36735 -566.9763 136.90919 L -565.6412 135.66308 C -565.0344 135.09672 -564.57896 134.38747 -564.3165 133.60001 L -564.02165 132.71552 C -563.9516 132.5053 -563.8915 132.29187 -563.8417 132.07595 L -563.372 130.04056 C -563.33676 129.88792 -563.3702 129.72752 -563.4635 129.60168 L -563.4635 129.60168 C -563.5538 129.4798 -563.70446 129.4183 -563.8543 129.44214 L -572.33415 130.79121 C -572.38504 130.7993 -572.43584 130.80796 -572.48654 130.81718 L -585.4713 133.17805 C -585.5641 133.19492 -585.6572 133.20991 -585.7506 133.22302 L -596.98026 134.79911 C -597.0004 134.80194 -597.02055 134.80486 -597.0407 134.80786 L -610.16326 136.76645 C -610.328 136.79105 -610.4936 136.80975 -610.6597 136.82253 L -623.3845 137.80136 C -623.4018 137.80269 -623.41914 137.80396 -623.43646 137.80516 L -637.7766 138.801 C -637.7992 138.80257 -637.8218 138.80403 -637.8444 138.80538 L -651.14764 139.5996 C -651.1895 139.6021 -651.23146 139.60423 -651.2734 139.60597 L -665.46484 140.19729 C -665.5619 140.20133 -665.6591 140.20335 -665.75626 140.20335 L -679.0105 140.20335 L -691.55216 140.20335 C -691.59104 140.20335 -691.6299 140.20368 -691.6688 140.20433 L -703.4272 140.4003 C -703.5494 140.40234 -703.6716 140.40117 -703.7937 140.39681 L -714.6273 140.0099 C -714.7494 140.00554 -714.8716 140.00437 -714.9938 140.00641 L -726.7084 140.20165 C -726.7765 140.20279 -726.8445 140.20293 -726.9126 140.20208 L -742.61485 140.0058 C -742.74525 140.00417 -742.8756 139.9989 -743.0057 139.98998 L -757.3155 139.00986 C -757.3788 139.00552 -757.4421 139.00032 -757.5053 138.99426 L -771.9963 137.60471 C -772.0058 137.6038 -772.0152 137.60288 -772.0247 137.60194 L -785.8367 136.22073 C -785.9525 136.20915 -786.0681 136.19468 -786.1832 136.17733 L -800.4923 134.02116 C -800.5711 134.00929 -800.6501 133.99877 -800.7292 133.9896 L -814.2491 132.42207 C -814.3567 132.4096 -814.464 132.39463 -814.5708 132.37718 L -823.9629 130.84377 C -824.1279 130.81684 -824.2919 130.784 -824.4545 130.74532 L -833.5321 128.58654 C -833.9204 128.49419 -834.3101 128.73412 -834.4025 129.12244 C -834.4085 129.14802 -834.4132 129.17392 -834.4165 129.20001 Z" fill="url(#Obj_Gradient_6)"/>
      <path d="M -834.4165 129.20001 L -834.4165 129.20001 C -834.4822 129.72549 -834.4193 130.25905 -834.2334 130.7549 L -833.5824 132.49092 C -833.4056 132.96227 -833.1785 133.41318 -832.9051 133.83582 L -831.9373 135.33153 C -831.3963 136.16756 -830.6832 136.87855 -829.8456 137.41702 L -828.7675 138.11005 C -828.4673 138.30307 -828.1527 138.47285 -827.8265 138.61789 L -826.5097 139.20349 C -825.9132 139.46876 -825.2824 139.64928 -824.6359 139.7398 L -815.6255 141.00126 C -815.6155 141.00265 -815.6055 141.00403 -815.5955 141.00539 L -803.8795 142.594 C -803.8335 142.60024 -803.7874 142.60601 -803.7413 142.61134 L -793.4584 143.79783 C -793.4265 143.80151 -793.3945 143.80498 -793.3625 143.80822 L -779.6525 145.1991 C -779.6245 145.20193 -779.5965 145.2046 -779.5685 145.2071 L -768.4632 146.19865 C -768.42805 146.20179 -768.3929 146.20466 -768.3577 146.20726 L -757.6712 146.99886 C -757.6307 147.00185 -757.5902 147.0045 -757.5497 147.0068 L -747.0417 147.60159 C -747.0209 147.60276 -747.0001 147.60404 -746.9793 147.6054 L -734.9365 148.39509 C -734.8525 148.4006 -734.7684 148.4046 -734.6843 148.40707 L -721.2371 148.80257 C -721.2194 148.8031 -721.2016 148.80368 -721.18385 148.80434 L -710.54 149.19856 C -710.4537 149.20176 -710.3673 149.20335 -710.2809 149.20335 L -699.6719 149.20335 C -699.63096 149.20335 -699.59 149.20371 -699.5491 149.20443 L -688.4627 149.39893 C -688.2946 149.40188 -688.1265 149.39877 -687.9586 149.38962 L -677.3374 148.81028 C -677.2528 148.80566 -677.1681 148.80258 -677.0834 148.80104 L -666.31884 148.60532 C -666.2466 148.60401 -666.1744 148.60158 -666.10225 148.59803 L -654.0836 148.00695 C -654.0349 148.00455 -653.9861 148.00165 -653.93744 147.99823 L -642.6974 147.20945 C -642.63946 147.20539 -642.5816 147.2006 -642.52376 147.1951 L -630.1132 146.01313 C -630.0447 146.00661 -629.9762 146.0011 -629.90755 145.9966 L -617.9755 145.21418 C -617.8655 145.20696 -617.7557 145.19715 -617.64614 145.18475 L -607.2338 144.006 C -607.21826 144.00423 -607.2027 144.00242 -607.1872 144.00056 L -597.2395 142.80683 C -597.22015 142.80451 -597.2008 142.80211 -597.1815 142.79963 L -583.34575 141.0221 C -583.24854 141.0096 -583.1516 140.99507 -583.055 140.97851 L -576.5015 139.85506 C -576.30054 139.8206 -576.0982 139.79495 -575.89496 139.77817 L -572.6626 139.5112 C -571.7734 139.43775 -570.9064 139.19497 -570.10834 138.79594 L -568.62205 138.0528 C -568.02146 137.7525 -567.4672 137.36735 -566.9763 136.90919 L -565.6412 135.66308 C -565.0344 135.09672 -564.57896 134.38747 -564.3165 133.60001 L -564.02165 132.71552 C -563.9516 132.5053 -563.8915 132.29187 -563.8417 132.07595 L -563.372 130.04056 C -563.33676 129.88792 -563.3702 129.72752 -563.4635 129.60168 L -563.4635 129.60168 C -563.5538 129.4798 -563.70446 129.4183 -563.8543 129.44214 L -572.33415 130.79121 C -572.38504 130.7993 -572.43584 130.80796 -572.48654 130.81718 L -585.4713 133.17805 C -585.5641 133.19492 -585.6572 133.20991 -585.7506 133.22302 L -596.98026 134.79911 C -597.0004 134.80194 -597.02055 134.80486 -597.0407 134.80786 L -610.16326 136.76645 C -610.328 136.79105 -610.4936 136.80975 -610.6597 136.82253 L -623.3845 137.80136 C -623.4018 137.80269 -623.41914 137.80396 -623.43646 137.80516 L -637.7766 138.801 C -637.7992 138.80257 -637.8218 138.80403 -637.8444 138.80538 L -651.14764 139.5996 C -651.1895 139.6021 -651.23146 139.60423 -651.2734 139.60597 L -665.46484 140.19729 C -665.5619 140.20133 -665.6591 140.20335 -665.75626 140.20335 L -679.0105 140.20335 L -691.55216 140.20335 C -691.59104 140.20335 -691.6299 140.20368 -691.6688 140.20433 L -703.4272 140.4003 C -703.5494 140.40234 -703.6716 140.40117 -703.7937 140.39681 L -714.6273 140.0099 C -714.7494 140.00554 -714.8716 140.00437 -714.9938 140.00641 L -726.7084 140.20165 C -726.7765 140.20279 -726.8445 140.20293 -726.9126 140.20208 L -742.61485 140.0058 C -742.74525 140.00417 -742.8756 139.9989 -743.0057 139.98998 L -757.3155 139.00986 C -757.3788 139.00552 -757.4421 139.00032 -757.5053 138.99426 L -771.9963 137.60471 C -772.0058 137.6038 -772.0152 137.60288 -772.0247 137.60194 L -785.8367 136.22073 C -785.9525 136.20915 -786.0681 136.19468 -786.1832 136.17733 L -800.4923 134.02116 C -800.5711 134.00929 -800.6501 133.99877 -800.7292 133.9896 L -814.2491 132.42207 C -814.3567 132.4096 -814.464 132.39463 -814.5708 132.37718 L -823.9629 130.84377 C -824.1279 130.81684 -824.2919 130.784 -824.4545 130.74532 L -833.5321 128.58654 C -833.9204 128.49419 -834.3101 128.73412 -834.4025 129.12244 C -834.4085 129.14802 -834.4132 129.17392 -834.4165 129.20001 Z" stroke="#7f8080" stroke-linecap="round" stroke-linejoin="round" stroke-width="1"/>
      <path d="M -763.1149 -295.5104 L -767.844 -291.45682 C -768.9944 -290.4708 -770.2393 -289.60088 -771.5608 -288.8597 L -774.0874 -287.44254 C -775.5226 -286.63756 -776.1034 -284.86844 -775.4246 -283.36945 L -774.407 -281.12222 C -774.2854 -280.85373 -774.1587 -280.5876 -774.0269 -280.324 L -772.2246 -276.71945 L -769.7376 -271.74548 C -769.3958 -271.0619 -769.02015 -270.39575 -768.612 -269.74956 L -766.2856 -266.0661 C -765.8453 -265.36884 -765.3677 -264.69577 -764.855 -264.0498 L -761.44435 -259.75234 C -760.8983 -259.0643 -760.3133 -258.40813 -759.6922 -257.78702 L -755.0261 -253.12098 C -754.6252 -252.7201 -754.2097 -252.33418 -753.7803 -251.964 L -749.21675 -248.02993 C -748.8221 -247.6897 -748.416 -247.363 -747.9991 -247.05036 L -744.0242 -244.06916 C -743.3583 -243.56972 -742.66575 -243.1068 -741.94965 -242.68245 L -737.8166 -240.23323 C -737.6886 -240.15738 -737.5599 -240.08277 -737.4304 -240.00942 L -732.7329 -237.34748 C -731.9946 -236.92911 -731.2337 -236.55193 -730.4537 -236.21765 L -726.9039 -234.6963 C -726.31795 -234.44518 -725.7218 -234.21852 -725.117 -234.01692 L -720.0989 -232.34422 C -718.8517 -231.92847 -717.5711 -231.62043 -716.2712 -231.42348 L -712.1723 -230.80244 C -711.8072 -230.74712 -711.4408 -230.7006 -711.0735 -230.66293 L -704.1924 -229.95717 C -703.9472 -229.93203 -703.7016 -229.91082 -703.4558 -229.89357 L -698.9286 -229.57588 C -698.3928 -229.53827 -697.8558 -229.51945 -697.3186 -229.51945 L -694.0565 -229.51945 C -693.1028 -229.51945 -692.15005 -229.57877 -691.2037 -229.69706 L -687.215 -230.19565 C -686.555 -230.27815 -685.899 -230.38923 -685.2486 -230.52859 L -679.1666 -231.83188 C -678.2727 -232.02342 -677.3911 -232.2681 -676.5263 -232.56458 L -672.01746 -234.11047 C -671.2228 -234.38292 -670.4437 -234.6987 -669.6836 -235.0564 L -664.8502 -237.33092 C -664.3 -237.58984 -663.7603 -237.87047 -663.23235 -238.17216 L -659.4645 -240.32523 C -658.7717 -240.7211 -658.1 -241.15277 -657.45205 -241.61847 L -652.7759 -244.97943 C -652.2752 -245.3393 -651.7892 -245.71915 -651.3191 -246.11808 L -645.9982 -250.63274 C -645.6159 -250.95713 -645.2443 -251.29393 -644.884 -251.6426 L -640.1848 -256.19023 C -639.5452 -256.8092 -638.9421 -257.46475 -638.37846 -258.1536 L -634.5852 -262.78985 C -634.0785 -263.40916 -633.6044 -264.0545 -633.165 -264.72322 L -629.5478 -270.22762 C -629.33236 -270.55546 -629.12535 -270.88875 -628.927 -271.22717 L -626.4039 -275.53126 C -626.0179 -276.18965 -625.665 -276.86683 -625.34636 -277.5603 L -623.2277 -282.17158 C -622.6948 -283.33134 -622.32365 -284.55875 -622.1246 -285.81945 L -622.1246 -285.81945 C -621.9463 -286.9487 -622.5256 -288.06216 -623.5527 -288.5643 L -628.8461 -291.1522 C -630.1606 -291.7948 -631.39515 -292.58933 -632.5246 -293.51945 L -632.9306 -293.8538 C -633.7749 -294.54914 -634.39834 -295.47545 -634.7246 -296.51945 L -634.7246 -296.51945 C -634.77125 -296.66877 -634.9301 -296.752 -635.07944 -296.70533 C -635.1945 -296.66936 -635.2742 -296.5645 -635.2781 -296.444 L -635.3873 -293.02108 C -635.47804 -290.178 -636.0954 -287.37642 -637.208 -284.75852 L -638.0849 -282.69514 C -638.6435 -281.38087 -639.32324 -280.12148 -640.1154 -278.93328 L -643.80116 -273.4046 C -644.5487 -272.28334 -645.3933 -271.22994 -646.3252 -270.25656 L -652.6203 -263.68172 C -653.4884 -262.77506 -654.4292 -261.941 -655.4334 -261.18786 L -663.8083 -254.90668 C -664.6847 -254.24937 -665.607 -253.6555 -666.568 -253.12965 L -673.7532 -249.19813 C -675.06435 -248.48072 -676.4423 -247.89282 -677.8675 -247.44276 L -684.5404 -245.33552 C -686.25725 -244.79335 -688.03185 -244.45465 -689.8277 -244.32637 L -696.7142 -243.83448 C -697.7865 -243.7579 -698.8628 -243.75657 -699.9353 -243.83054 L -708.37156 -244.41235 C -709.4057 -244.48367 -710.4339 -244.62483 -711.449 -244.83485 L -718.5842 -246.3111 C -720.5362 -246.71496 -722.4274 -247.37084 -724.2102 -248.26227 L -728.8696 -250.59197 C -730.1038 -251.20904 -731.2799 -251.9359 -732.3837 -252.7638 L -738.0657 -257.02527 C -738.5048 -257.35462 -738.932 -257.6996 -739.3465 -258.0595 L -745.10166 -263.05743 C -745.9159 -263.76457 -746.6795 -264.5281 -747.3866 -265.3424 L -751.79185 -270.41508 C -752.54595 -271.28344 -753.2339 -272.20714 -753.8498 -273.1784 L -757.5835 -279.06617 C -757.94405 -279.63475 -758.2795 -280.2189 -758.5888 -280.8169 L -760.2092 -283.94963 C -760.8183 -285.1273 -761.3245 -286.35545 -761.722 -287.62034 L -763.0023 -291.69383 C -763.217 -292.3772 -763.3998 -293.07024 -763.5499 -293.77067 L -763.7753 -294.82262 C -763.86035 -295.21963 -763.634 -295.61728 -763.2492 -295.74682 L -763.2492 -295.74682 C -763.1767 -295.77122 -763.0981 -295.73224 -763.0737 -295.65974 C -763.0557 -295.60623 -763.072 -295.54714 -763.1149 -295.5104 Z" fill="url(#Obj_Gradient_7)"/>
      <path d="M -763.1149 -295.5104 L -767.844 -291.45682 C -768.9944 -290.4708 -770.2393 -289.60088 -771.5608 -288.8597 L -774.0874 -287.44254 C -775.5226 -286.63756 -776.1034 -284.86844 -775.4246 -283.36945 L -774.407 -281.12222 C -774.2854 -280.85373 -774.1587 -280.5876 -774.0269 -280.324 L -772.2246 -276.71945 L -769.7376 -271.74548 C -769.3958 -271.0619 -769.02015 -270.39575 -768.612 -269.74956 L -766.2856 -266.0661 C -765.8453 -265.36884 -765.3677 -264.69577 -764.855 -264.0498 L -761.44435 -259.75234 C -760.8983 -259.0643 -760.3133 -258.40813 -759.6922 -257.78702 L -755.0261 -253.12098 C -754.6252 -252.7201 -754.2097 -252.33418 -753.7803 -251.964 L -749.21675 -248.02993 C -748.8221 -247.6897 -748.416 -247.363 -747.9991 -247.05036 L -744.0242 -244.06916 C -743.3583 -243.56972 -742.66575 -243.1068 -741.94965 -242.68245 L -737.8166 -240.23323 C -737.6886 -240.15738 -737.5599 -240.08277 -737.4304 -240.00942 L -732.7329 -237.34748 C -731.9946 -236.92911 -731.2337 -236.55193 -730.4537 -236.21765 L -726.9039 -234.6963 C -726.31795 -234.44518 -725.7218 -234.21852 -725.117 -234.01692 L -720.0989 -232.34422 C -718.8517 -231.92847 -717.5711 -231.62043 -716.2712 -231.42348 L -712.1723 -230.80244 C -711.8072 -230.74712 -711.4408 -230.7006 -711.0735 -230.66293 L -704.1924 -229.95717 C -703.9472 -229.93203 -703.7016 -229.91082 -703.4558 -229.89357 L -698.9286 -229.57588 C -698.3928 -229.53827 -697.8558 -229.51945 -697.3186 -229.51945 L -694.0565 -229.51945 C -693.1028 -229.51945 -692.15005 -229.57877 -691.2037 -229.69706 L -687.215 -230.19565 C -686.555 -230.27815 -685.899 -230.38923 -685.2486 -230.52859 L -679.1666 -231.83188 C -678.2727 -232.02342 -677.3911 -232.2681 -676.5263 -232.56458 L -672.01746 -234.11047 C -671.2228 -234.38292 -670.4437 -234.6987 -669.6836 -235.0564 L -664.8502 -237.33092 C -664.3 -237.58984 -663.7603 -237.87047 -663.23235 -238.17216 L -659.4645 -240.32523 C -658.7717 -240.7211 -658.1 -241.15277 -657.45205 -241.61847 L -652.7759 -244.97943 C -652.2752 -245.3393 -651.7892 -245.71915 -651.3191 -246.11808 L -645.9982 -250.63274 C -645.6159 -250.95713 -645.2443 -251.29393 -644.884 -251.6426 L -640.1848 -256.19023 C -639.5452 -256.8092 -638.9421 -257.46475 -638.37846 -258.1536 L -634.5852 -262.78985 C -634.0785 -263.40916 -633.6044 -264.0545 -633.165 -264.72322 L -629.5478 -270.22762 C -629.33236 -270.55546 -629.12535 -270.88875 -628.927 -271.22717 L -626.4039 -275.53126 C -626.0179 -276.18965 -625.665 -276.86683 -625.34636 -277.5603 L -623.2277 -282.17158 C -622.6948 -283.33134 -622.32365 -284.55875 -622.1246 -285.81945 L -622.1246 -285.81945 C -621.9463 -286.9487 -622.5256 -288.06216 -623.5527 -288.5643 L -628.8461 -291.1522 C -630.1606 -291.7948 -631.39515 -292.58933 -632.5246 -293.51945 L -632.9306 -293.8538 C -633.7749 -294.54914 -634.39834 -295.47545 -634.7246 -296.51945 L -634.7246 -296.51945 C -634.77125 -296.66877 -634.9301 -296.752 -635.07944 -296.70533 C -635.1945 -296.66936 -635.2742 -296.5645 -635.2781 -296.444 L -635.3873 -293.02108 C -635.47804 -290.178 -636.0954 -287.37642 -637.208 -284.75852 L -638.0849 -282.69514 C -638.6435 -281.38087 -639.32324 -280.12148 -640.1154 -278.93328 L -643.80116 -273.4046 C -644.5487 -272.28334 -645.3933 -271.22994 -646.3252 -270.25656 L -652.6203 -263.68172 C -653.4884 -262.77506 -654.4292 -261.941 -655.4334 -261.18786 L -663.8083 -254.90668 C -664.6847 -254.24937 -665.607 -253.6555 -666.568 -253.12965 L -673.7532 -249.19813 C -675.06435 -248.48072 -676.4423 -247.89282 -677.8675 -247.44276 L -684.5404 -245.33552 C -686.25725 -244.79335 -688.03185 -244.45465 -689.8277 -244.32637 L -696.7142 -243.83448 C -697.7865 -243.7579 -698.8628 -243.75657 -699.9353 -243.83054 L -708.37156 -244.41235 C -709.4057 -244.48367 -710.4339 -244.62483 -711.449 -244.83485 L -718.5842 -246.3111 C -720.5362 -246.71496 -722.4274 -247.37084 -724.2102 -248.26227 L -728.8696 -250.59197 C -730.1038 -251.20904 -731.2799 -251.9359 -732.3837 -252.7638 L -738.0657 -257.02527 C -738.5048 -257.35462 -738.932 -257.6996 -739.3465 -258.0595 L -745.10166 -263.05743 C -745.9159 -263.76457 -746.6795 -264.5281 -747.3866 -265.3424 L -751.79185 -270.41508 C -752.54595 -271.28344 -753.2339 -272.20714 -753.8498 -273.1784 L -757.5835 -279.06617 C -757.94405 -279.63475 -758.2795 -280.2189 -758.5888 -280.8169 L -760.2092 -283.94963 C -760.8183 -285.1273 -761.3245 -286.35545 -761.722 -287.62034 L -763.0023 -291.69383 C -763.217 -292.3772 -763.3998 -293.07024 -763.5499 -293.77067 L -763.7753 -294.82262 C -763.86035 -295.21963 -763.634 -295.61728 -763.2492 -295.74682 L -763.2492 -295.74682 C -763.1767 -295.77122 -763.0981 -295.73224 -763.0737 -295.65974 C -763.0557 -295.60623 -763.072 -295.54714 -763.1149 -295.5104 Z" stroke="#7f8080" stroke-linecap="round" stroke-linejoin="round" stroke-width="1"/>
      <path d="M -483.07103 -146.55385 L -489.27103 -142.15385 L -497.47103 -138.15385 L -506.07103 -134.55385 L -515.07103 -130.75385 L -526.071 -126.75385 L -535.471 -123.95385 L -544.471 -121.35385 L -553.471 -118.75385 L -558.871 -117.35385 L -564.471 -116.35385 L -567.471 -122.75385 L -563.671 -123.55385 L -558.871 -124.75385 L -553.271 -125.95385 L -547.271 -127.75385 L -542.671 -129.15385 L -538.471 -130.35385 L -533.871 -132.35385 L -529.271 -133.95385 L -524.471 -135.95385 L -520.47103 -137.35385 L -515.27103 -139.55385 L -510.67103 -141.15385 L -505.87103 -143.35385 L -501.07103 -145.15385 L -497.07103 -147.15385 L -492.67103 -149.35385 L -488.27103 -151.55385 L -484.87103 -153.15385 Z" fill="url(#Obj_Gradient_8)"/>
      <path d="M -483.07103 -146.55385 L -489.27103 -142.15385 L -497.47103 -138.15385 L -506.07103 -134.55385 L -515.07103 -130.75385 L -526.071 -126.75385 L -535.471 -123.95385 L -544.471 -121.35385 L -553.471 -118.75385 L -558.871 -117.35385 L -564.471 -116.35385 L -567.471 -122.75385 L -563.671 -123.55385 L -558.871 -124.75385 L -553.271 -125.95385 L -547.271 -127.75385 L -542.671 -129.15385 L -538.471 -130.35385 L -533.871 -132.35385 L -529.271 -133.95385 L -524.471 -135.95385 L -520.47103 -137.35385 L -515.27103 -139.55385 L -510.67103 -141.15385 L -505.87103 -143.35385 L -501.07103 -145.15385 L -497.07103 -147.15385 L -492.67103 -149.35385 L -488.27103 -151.55385 L -484.87103 -153.15385 Z" stroke="#7f8080" stroke-linecap="round" stroke-linejoin="round" stroke-width="1"/>
      <path d="M -915 -147.49725 L -908.8 -143.09725 L -900.6 -139.09725 L -892 -135.49725 L -883 -131.69725 L -872 -127.69725 L -862.6 -124.89725 L -853.6 -122.29725 L -844.6 -119.69725 L -839.2 -118.29725 L -833.6 -117.29725 L -830.6 -123.69725 L -834.4 -124.49725 L -839.2 -125.69725 L -844.8 -126.89725 L -850.8 -128.69725 L -855.4 -130.09725 L -859.6 -131.29725 L -864.2 -133.29725 L -868.8 -134.89725 L -873.6 -136.89725 L -877.6 -138.29725 L -882.8 -140.49725 L -887.4 -142.09725 L -892.2 -144.29725 L -897 -146.09725 L -901 -148.09725 L -905.4 -150.29725 L -909.8 -152.49725 L -913.2 -154.09725 Z" fill="url(#Obj_Gradient_9)"/>
      <path d="M -915 -147.49725 L -908.8 -143.09725 L -900.6 -139.09725 L -892 -135.49725 L -883 -131.69725 L -872 -127.69725 L -862.6 -124.89725 L -853.6 -122.29725 L -844.6 -119.69725 L -839.2 -118.29725 L -833.6 -117.29725 L -830.6 -123.69725 L -834.4 -124.49725 L -839.2 -125.69725 L -844.8 -126.89725 L -850.8 -128.69725 L -855.4 -130.09725 L -859.6 -131.29725 L -864.2 -133.29725 L -868.8 -134.89725 L -873.6 -136.89725 L -877.6 -138.29725 L -882.8 -140.49725 L -887.4 -142.09725 L -892.2 -144.29725 L -897 -146.09725 L -901 -148.09725 L -905.4 -150.29725 L -909.8 -152.49725 L -913.2 -154.09725 Z" stroke="#7f8080" stroke-linecap="round" stroke-linejoin="round" stroke-width="1"/>
    </g>
  </g>
</svg>
