<?xml version="1.0" encoding="UTF-8" standalone="no"?>
<!DOCTYPE svg PUBLIC "-//W3C//DTD SVG 1.1//EN" "http://www.w3.org/Graphics/SVG/1.1/DTD/svg11.dtd">
<svg xmlns="http://www.w3.org/2000/svg" xmlns:xl="http://www.w3.org/1999/xlink" version="1.1" viewBox="-864.17 -314.57 432.92897 448.4" width="432.92897pt" height="448.4pt" xmlns:dc="http://purl.org/dc/elements/1.1/">
  <metadata> Produced by OmniGraffle 7.6.1 
    <dc:date>2019-06-06 18:31:24 +0000</dc:date>
  </metadata>
  <defs>
    <radialGradient cx="0" cy="0" r="1" id="Gradient" gradientUnits="userSpaceOnUse">
      <stop offset="0" stop-color="#cbcbcb"/>
      <stop offset="1" stop-color="#010e1d"/>
    </radialGradient>
    <radialGradient id="Obj_Gradient" xl:href="#Gradient" gradientTransform="translate(-648.91075 -286.67) scale(70.26272)"/>
    <linearGradient x1="0" x2="1" id="Gradient_2" gradientUnits="userSpaceOnUse">
      <stop offset="0" stop-color="white"/>
      <stop offset="1" stop-color="#2242e4"/>
    </linearGradient>
    <linearGradient id="Obj_Gradient_2" xl:href="#Gradient_2" gradientTransform="translate(-647.57 -313.3141) rotate(90) scale(25)"/>
    <radialGradient cx="0" cy="0" r="1" id="Gradient_3" gradientUnits="userSpaceOnUse">
      <stop offset="0" stop-color="white"/>
      <stop offset="1" stop-color="#3a8eed"/>
    </radialGradient>
    <radialGradient id="Obj_Gradient_3" xl:href="#Gradient_3" gradientTransform="translate(-473.94103 -151.76726) scale(46.03694)"/>
    <radialGradient id="Obj_Gradient_4" xl:href="#Gradient_3" gradientTransform="translate(-821.47 -150.82386) scale(46.03694)"/>
    <radialGradient cx="0" cy="0" r="1" id="Gradient_4" gradientUnits="userSpaceOnUse">
      <stop offset="0" stop-color="white"/>
      <stop offset="1" stop-color="#1542e5"/>
    </radialGradient>
    <radialGradient id="Obj_Gradient_5" xl:href="#Gradient_4" gradientTransform="translate(-649.61075 -279.7147) scale(83.83496)"/>
    <radialGradient cx="0" cy="0" r="1" id="Gradient_5" gradientUnits="userSpaceOnUse">
      <stop offset="0" stop-color="white"/>
      <stop offset="1" stop-color="#4145ea"/>
    </radialGradient>
    <radialGradient id="Obj_Gradient_6" xl:href="#Gradient_5" gradientTransform="translate(-647.57 122.91338) scale(135.94141)"/>
  </defs>
  <g stroke="none" stroke-opacity="1" stroke-dasharray="none" fill="none" fill-opacity="1">
    <title>pachuca</title>
    <g>
      <title>Capa 1</title>
      <path d="M -710.66435 -313.47956 L -702.4989 -310.36184 C -701.6409 -310.03425 -700.7641 -309.75833 -699.8731 -309.5356 L -686.1559 -306.1063 C -684.99424 -305.81588 -683.8117 -305.61662 -682.619 -305.51035 L -665.09285 -303.9486 C -664.505 -303.89623 -663.91536 -303.8665 -663.3252 -303.85946 L -647.8463 -303.6752 C -647.556 -303.67174 -647.2656 -303.67378 -646.9753 -303.6813 L -632.552 -304.05595 C -632.1912 -304.06532 -631.8307 -304.08318 -631.4708 -304.1095 L -617.0995 -305.16108 C -616.108 -305.23362 -615.12234 -305.37036 -614.1486 -305.57045 L -602.57564 -307.94845 C -601.5336 -308.16256 -600.50774 -308.4487 -599.50535 -308.80482 L -587.75336 -312.97987 C -586.663 -313.36724 -585.4598 -312.83646 -585.01075 -311.77 L -585.01075 -311.77 C -584.4886 -310.5299 -584.3366 -309.16515 -584.57315 -307.84056 L -584.7536 -306.82987 C -585.0574 -305.1287 -585.55194 -303.4672 -586.22786 -301.87682 L -587.7711 -298.2457 C -588.32965 -296.93143 -589.0094 -295.67203 -589.80154 -294.48383 L -593.4873 -288.95516 C -594.2348 -287.8339 -595.0794 -286.7805 -596.0114 -285.8071 L -602.30646 -279.23227 C -603.1745 -278.3256 -604.1154 -277.49154 -605.11954 -276.7384 L -613.49445 -270.45724 C -614.37086 -269.79992 -615.2931 -269.20607 -616.2542 -268.6802 L -623.4394 -264.74868 C -624.7505 -264.03127 -626.1284 -263.44337 -627.5536 -262.9933 L -634.2265 -260.88607 C -635.9434 -260.3439 -637.718 -260.0052 -639.5139 -259.87693 L -646.4003 -259.38504 C -647.4726 -259.30844 -648.549 -259.30712 -649.62146 -259.3811 L -658.0577 -259.9629 C -659.0919 -260.03422 -660.12006 -260.17538 -661.1352 -260.3854 L -668.2704 -261.86166 C -670.22235 -262.2655 -672.1135 -262.9214 -673.8964 -263.81282 L -678.5558 -266.14253 C -679.7899 -266.7596 -680.966 -267.48647 -682.0699 -268.31435 L -687.7518 -272.57582 C -688.191 -272.90517 -688.6182 -273.25014 -689.0326 -273.61006 L -694.7878 -278.60798 C -695.6021 -279.31512 -696.3656 -280.07866 -697.0728 -280.89295 L -701.478 -285.96563 C -702.2321 -286.834 -702.92 -287.7577 -703.5359 -288.72896 L -707.26964 -294.61672 C -707.6302 -295.1853 -707.9656 -295.76945 -708.27495 -296.36746 L -709.8953 -299.50018 C -710.5045 -300.67786 -711.0106 -301.906 -711.4082 -303.1709 L -712.6884 -307.2444 C -712.9032 -307.92776 -713.0859 -308.6208 -713.236 -309.32123 L -713.31075 -309.67 C -713.5054 -310.57843 -713.39815 -311.52558 -713.0053 -312.36746 L -712.91075 -312.57 C -712.5163 -313.4153 -711.5358 -313.8123 -710.66435 -313.47956 Z" fill="url(#Obj_Gradient)"/>
      <path d="M -710.66435 -313.47956 L -702.4989 -310.36184 C -701.6409 -310.03425 -700.7641 -309.75833 -699.8731 -309.5356 L -686.1559 -306.1063 C -684.99424 -305.81588 -683.8117 -305.61662 -682.619 -305.51035 L -665.09285 -303.9486 C -664.505 -303.89623 -663.91536 -303.8665 -663.3252 -303.85946 L -647.8463 -303.6752 C -647.556 -303.67174 -647.2656 -303.67378 -646.9753 -303.6813 L -632.552 -304.05595 C -632.1912 -304.06532 -631.8307 -304.08318 -631.4708 -304.1095 L -617.0995 -305.16108 C -616.108 -305.23362 -615.12234 -305.37036 -614.1486 -305.57045 L -602.57564 -307.94845 C -601.5336 -308.16256 -600.50774 -308.4487 -599.50535 -308.80482 L -587.75336 -312.97987 C -586.663 -313.36724 -585.4598 -312.83646 -585.01075 -311.77 L -585.01075 -311.77 C -584.4886 -310.5299 -584.3366 -309.16515 -584.57315 -307.84056 L -584.7536 -306.82987 C -585.0574 -305.1287 -585.55194 -303.4672 -586.22786 -301.87682 L -587.7711 -298.2457 C -588.32965 -296.93143 -589.0094 -295.67203 -589.80154 -294.48383 L -593.4873 -288.95516 C -594.2348 -287.8339 -595.0794 -286.7805 -596.0114 -285.8071 L -602.30646 -279.23227 C -603.1745 -278.3256 -604.1154 -277.49154 -605.11954 -276.7384 L -613.49445 -270.45724 C -614.37086 -269.79992 -615.2931 -269.20607 -616.2542 -268.6802 L -623.4394 -264.74868 C -624.7505 -264.03127 -626.1284 -263.44337 -627.5536 -262.9933 L -634.2265 -260.88607 C -635.9434 -260.3439 -637.718 -260.0052 -639.5139 -259.87693 L -646.4003 -259.38504 C -647.4726 -259.30844 -648.549 -259.30712 -649.62146 -259.3811 L -658.0577 -259.9629 C -659.0919 -260.03422 -660.12006 -260.17538 -661.1352 -260.3854 L -668.2704 -261.86166 C -670.22235 -262.2655 -672.1135 -262.9214 -673.8964 -263.81282 L -678.5558 -266.14253 C -679.7899 -266.7596 -680.966 -267.48647 -682.0699 -268.31435 L -687.7518 -272.57582 C -688.191 -272.90517 -688.6182 -273.25014 -689.0326 -273.61006 L -694.7878 -278.60798 C -695.6021 -279.31512 -696.3656 -280.07866 -697.0728 -280.89295 L -701.478 -285.96563 C -702.2321 -286.834 -702.92 -287.7577 -703.5359 -288.72896 L -707.26964 -294.61672 C -707.6302 -295.1853 -707.9656 -295.76945 -708.27495 -296.36746 L -709.8953 -299.50018 C -710.5045 -300.67786 -711.0106 -301.906 -711.4082 -303.1709 L -712.6884 -307.2444 C -712.9032 -307.92776 -713.0859 -308.6208 -713.236 -309.32123 L -713.31075 -309.67 C -713.5054 -310.57843 -713.39815 -311.52558 -713.0053 -312.36746 L -712.91075 -312.57 C -712.5163 -313.4153 -711.5358 -313.8123 -710.66435 -313.47956 Z" stroke="#7f8080" stroke-linecap="round" stroke-linejoin="round" stroke-width="1"/>
      <path d="M -774.6965 123.19378 L -760.9543 125.48415 C -760.7709 125.51472 -760.587 125.54208 -760.4027 125.56623 L -732.0491 129.28154 C -731.8025 129.31384 -731.5553 129.3404 -731.3075 129.36117 L -701.0646 131.89768 C -700.8077 131.91922 -700.5503 131.93456 -700.2927 131.94366 L -661.3618 133.32001 C -661.1734 133.32667 -660.98496 133.33 -660.7965 133.33 L -629.32916 133.33 C -629.16254 133.33 -628.9959 133.3274 -628.8294 133.3222 L -603.7946 132.53986 C -603.5844 132.53329 -603.3743 132.52257 -603.16445 132.50772 L -581.1167 130.94681 C -580.9584 130.9356 -580.80025 130.92204 -580.64234 130.90613 L -555.38185 128.3605 C -555.1801 128.34017 -554.9788 128.316 -554.77796 128.28802 L -530.98526 124.97265 C -530.78125 124.94422 -530.5778 124.91185 -530.37504 124.87557 L -521.1792 123.23 C -515.8521 122.27673 -512.20124 117.32308 -512.86766 111.95255 L -515.07525 94.16197 C -515.0779 94.14066 -515.0805 94.11934 -515.08305 94.09801 L -518.6469 64.39948 C -518.66843 64.21984 -518.68694 64.039845 -518.7024 63.859575 L -521.0646 36.300366 C -521.07435 36.18679 -521.08287 36.073115 -521.0902 35.95936 L -522.4768 14.367716 C -522.4784 14.34257 -522.4801 14.31743 -522.4818 14.292293 L -524.074 -8.79402 C -524.07747 -8.844674 -524.0807 -8.895345 -524.08373 -8.946031 L -525.2601 -28.7482 C -525.27284 -28.962713 -525.28126 -29.17746 -525.28535 -29.392315 L -525.67764 -49.987153 C -525.6787 -50.042386 -525.68 -50.09761 -525.68165 -50.15283 L -526.2768 -70.387174 C -526.2784 -70.44239 -526.27974 -70.49762 -526.2808 -70.55285 L -526.67145 -91.06239 C -526.6766 -91.33409 -526.6749 -91.60587 -526.6662 -91.87748 L -526.08027 -110.23709 C -526.07956 -110.25903 -526.0788 -110.28097 -526.078 -110.30291 L -525.28995 -132.17222 C -525.2828 -132.37073 -525.27194 -132.56908 -525.2574 -132.76718 L -523.6999 -153.9878 C -523.6861 -154.17592 -523.67564 -154.36427 -523.6685 -154.55277 L -522.91404 -174.45163 C -522.89085 -175.06338 -522.83256 -175.67329 -522.7395 -176.27835 L -520.0005 -194.08187 C -519.9197 -194.60697 -519.8128 -195.12772 -519.6802 -195.64218 L -515.05194 -213.59983 C -514.93684 -214.0464 -514.8025 -214.4878 -514.64927 -214.92276 L -508.9285 -231.1624 C -508.7624 -231.63388 -508.5743 -232.0973 -508.3648 -232.55118 L -502.83327 -244.53622 C -502.7306 -244.7587 -502.6228 -244.97882 -502.51 -245.19636 L -497.1478 -255.5378 C -497.10207 -255.62593 -497.05554 -255.71365 -497.0082 -255.80092 L -491.7922 -265.4179 C -491.05495 -266.77724 -490.1053 -268.01014 -488.9792 -269.07 L -488.9792 -269.07 C -488.304 -269.70548 -488.2718 -270.76798 -488.9073 -271.44317 C -489.0318 -271.57545 -489.17693 -271.68664 -489.33705 -271.77242 L -492.5512 -273.49428 C -492.76984 -273.6114 -492.9912 -273.72345 -493.21506 -273.8303 L -501.06903 -277.57878 C -501.47564 -277.77285 -501.89026 -277.94965 -502.3118 -278.1087 L -511.9866 -281.7596 C -512.18167 -281.8332 -512.3781 -281.90298 -512.5759 -281.9689 L -525.2704 -286.2004 C -525.4096 -286.2468 -525.54945 -286.2913 -525.6899 -286.33385 L -538.5734 -290.23795 C -538.64395 -290.25932 -538.7143 -290.28118 -538.78456 -290.30352 L -551.28856 -294.28207 C -551.6822 -294.4073 -552.0708 -294.54775 -552.45357 -294.70308 L -564.4295 -299.56288 C -565.2612 -299.90037 -566.06296 -300.30723 -566.8264 -300.77917 L -576.44564 -306.7256 C -576.60135 -306.82187 -576.7554 -306.9208 -576.9077 -307.02233 L -581.7978 -310.2824 C -582.7792 -310.93665 -583.6505 -311.74255 -584.3792 -312.67 L -584.3792 -312.67 C -584.4848 -312.8044 -584.6794 -312.82776 -584.8138 -312.72216 C -584.9165 -312.64143 -584.9575 -312.50488 -584.9162 -312.38092 L -584.7792 -311.97 C -584.31997 -310.59226 -584.2154 -309.12097 -584.4752 -307.6921 L -584.8703 -305.51885 C -585.14155 -304.0272 -585.6234 -302.58165 -586.3014 -301.2256 L -587.83374 -298.16097 C -588.13044 -297.56757 -588.46376 -296.9932 -588.8318 -296.44118 L -592.0355 -291.63562 C -592.4641 -290.99272 -592.9387 -290.3817 -593.4556 -289.8074 L -598.0176 -284.73845 C -598.0587 -284.69282 -598.1 -284.64743 -598.1416 -284.60227 L -604.1358 -278.09425 C -604.7636 -277.4127 -605.4493 -276.787 -606.18535 -276.22414 L -611.2095 -272.38212 C -611.6557 -272.04095 -612.1195 -271.7235 -612.599 -271.4311 L -619.0854 -267.47598 C -619.7471 -267.07253 -620.4372 -266.7177 -621.15025 -266.41425 L -628.2657 -263.3864 C -629.0733 -263.04272 -629.9079 -262.76608 -630.76095 -262.55928 L -634.84 -261.57042 C -635.66484 -261.37046 -636.5043 -261.23645 -637.3504 -261.16965 L -643.0506 -260.71964 C -643.4695 -260.68656 -643.8896 -260.67 -644.3098 -260.67 L -651.3421 -260.67 C -652.0992 -260.67 -652.8554 -260.72374 -653.6049 -260.8308 L -661.5513 -261.96602 C -662.0363 -262.0353 -662.5179 -262.12683 -662.9945 -262.2403 L -668.9557 -263.65965 C -670.1012 -263.9324 -671.2131 -264.33074 -672.2712 -264.84747 L -678.5512 -267.91445 C -679.0362 -268.15134 -679.509 -268.4126 -679.9676 -268.6973 L -684.1795 -271.31155 C -684.77865 -271.68345 -685.3526 -272.09455 -685.8975 -272.54217 L -690.3436 -276.19433 C -690.5673 -276.37808 -690.786 -276.56787 -690.9994 -276.76348 L -694.8017 -280.24896 C -695.253 -280.66265 -695.6802 -281.1019 -696.08115 -281.56454 L -700.1999 -286.31694 C -700.5193 -286.68546 -700.82164 -287.0684 -701.10605 -287.46452 L -705.5357 -293.6344 C -706.0306 -294.3237 -706.4699 -295.0513 -706.8494 -295.8103 L -709.4258 -300.9632 C -709.4614 -301.0344 -709.4965 -301.10587 -709.531 -301.1776 L -710.7792 -303.77 C -711.6299 -305.53688 -711.98545 -307.5014 -711.8079 -309.45436 L -711.6277 -311.43662 C -711.6039 -311.6985 -711.7969 -311.93006 -712.05875 -311.95387 C -712.2211 -311.96863 -712.3798 -311.89926 -712.4792 -311.77 L -712.4792 -311.77 C -713.1427 -310.90753 -713.9228 -310.14145 -714.79715 -309.49376 L -718.6937 -306.60744 C -718.8174 -306.51582 -718.9424 -306.426 -719.0686 -306.338 L -723.6909 -303.1164 C -724.8776 -302.2893 -726.17105 -301.62693 -727.5358 -301.14742 L -732.1429 -299.5287 C -732.6335 -299.35634 -733.1154 -299.16017 -733.5868 -298.94088 L -740.4336 -295.75633 C -741.1298 -295.43253 -741.84835 -295.15927 -742.58375 -294.93865 L -753.4541 -291.67753 C -753.4709 -291.6725 -753.4876 -291.66747 -753.5043 -291.6624 L -764.4724 -288.3328 C -764.6103 -288.29094 -764.7476 -288.2472 -764.8843 -288.20165 L -777.8055 -283.89457 C -777.8547 -283.8782 -777.9039 -283.86206 -777.9531 -283.84616 L -789.3205 -280.17926 C -789.959 -279.9733 -790.5839 -279.72738 -791.1915 -279.44296 L -799.1235 -275.73013 C -799.4938 -275.55678 -799.8574 -275.3693 -800.2134 -275.1681 L -806.1595 -271.80724 C -807.4125 -271.099 -807.8542 -269.50908 -807.1459 -268.25605 C -807.0688 -268.1196 -806.97955 -267.9904 -806.8792 -267.87 L -806.0151 -266.83307 C -805.2602 -265.92714 -804.6077 -264.94052 -804.0696 -263.8912 L -800.9924 -257.89077 C -800.917 -257.7436 -800.8392 -257.5976 -800.7592 -257.45286 L -796.8045 -250.29664 C -796.721 -250.14556 -796.6399 -249.99314 -796.5614 -249.83944 L -792.4531 -241.80145 C -792.204 -241.31414 -791.9801 -240.81437 -791.7822 -240.30412 L -788.2995 -231.32224 C -788.286 -231.28742 -788.2723 -231.25264 -788.2586 -231.2179 L -784.6623 -222.13247 C -784.5403 -221.82423 -784.4279 -221.51228 -784.3252 -221.19707 L -781.7034 -213.1443 C -781.6873 -213.09477 -781.6714 -213.04517 -781.6558 -212.9955 L -778.5837 -203.23722 C -778.3809 -202.59306 -778.2191 -201.9367 -778.0993 -201.2721 L -776.114 -190.26263 C -776.0908 -190.13422 -776.0692 -190.00553 -776.0492 -189.87658 L -774.3433 -178.8832 C -774.3006 -178.60778 -774.2651 -178.3313 -774.2368 -178.05402 L -773.34935 -169.3573 C -773.3026 -168.89932 -773.2757 -168.43953 -773.2686 -167.97921 L -773.08435 -156.0036 C -773.0809 -155.78122 -773.0729 -155.55895 -773.0602 -155.33692 L -772.2898 -141.85536 C -772.28275 -141.7318 -772.2743 -141.60831 -772.2643 -141.48495 L -770.9308 -124.91057 C -770.8964 -124.4837 -770.8792 -124.05562 -770.8792 -123.62736 L -770.8792 -111.17758 C -770.8792 -110.97255 -770.8753 -110.76753 -770.8674 -110.56265 L -770.287 -95.47351 C -770.2818 -95.33785 -770.2783 -95.20212 -770.2766 -95.06636 L -770.0844 -80.2701 C -770.08095 -80.00341 -770.0842 -79.73667 -770.094 -79.47014 L -770.6683 -63.965995 C -770.6756 -63.76868 -770.6792 -63.571254 -770.6792 -63.37381 L -770.6792 -49.77758 C -770.6792 -49.57255 -770.6832 -49.367533 -770.691 -49.16265 L -771.2762 -33.94765 C -771.2782 -33.895885 -771.2805 -33.84413 -771.283 -33.79239 L -772.0783 -17.289453 C -772.0789 -17.276486 -772.07955 -17.26352 -772.0802 -17.250554 L -772.8747 -1.5593865 C -772.8777 -1.4997973 -772.8811 -1.4402255 -772.8847 -1.3806738 L -774.0737 17.84006 C -774.0774 17.900019 -774.0814 17.959955 -774.0858 18.019868 L -775.8689 42.389416 C -775.8758 42.483136 -775.8835 42.576794 -775.892 42.67038 L -777.6779 62.31519 C -777.6788 62.32506 -777.6797 62.334934 -777.6806 62.344805 L -779.4514 81.42971 C -779.4699 81.62989 -779.4923 81.82969 -779.5184 82.02902 L -781.4791 97.00174 C -781.6119 98.01594 -781.881 99.00756 -782.2792 99.94972 L -782.2792 99.94972 C -782.6768 100.89047 -782.9255 101.88739 -783.0163 102.90465 L -783.7792 111.44972 C -784.287 117.13675 -780.3285 122.25512 -774.6965 123.19378 Z" fill="white"/>
      <path d="M -774.6965 123.19378 L -760.9543 125.48415 C -760.7709 125.51472 -760.587 125.54208 -760.4027 125.56623 L -732.0491 129.28154 C -731.8025 129.31384 -731.5553 129.3404 -731.3075 129.36117 L -701.0646 131.89768 C -700.8077 131.91922 -700.5503 131.93456 -700.2927 131.94366 L -661.3618 133.32001 C -661.1734 133.32667 -660.98496 133.33 -660.7965 133.33 L -629.32916 133.33 C -629.16254 133.33 -628.9959 133.3274 -628.8294 133.3222 L -603.7946 132.53986 C -603.5844 132.53329 -603.3743 132.52257 -603.16445 132.50772 L -581.1167 130.94681 C -580.9584 130.9356 -580.80025 130.92204 -580.64234 130.90613 L -555.38185 128.3605 C -555.1801 128.34017 -554.9788 128.316 -554.77796 128.28802 L -530.98526 124.97265 C -530.78125 124.94422 -530.5778 124.91185 -530.37504 124.87557 L -521.1792 123.23 C -515.8521 122.27673 -512.20124 117.32308 -512.86766 111.95255 L -515.07525 94.16197 C -515.0779 94.14066 -515.0805 94.11934 -515.08305 94.09801 L -518.6469 64.39948 C -518.66843 64.21984 -518.68694 64.039845 -518.7024 63.859575 L -521.0646 36.300366 C -521.07435 36.18679 -521.08287 36.073115 -521.0902 35.95936 L -522.4768 14.367716 C -522.4784 14.34257 -522.4801 14.31743 -522.4818 14.292293 L -524.074 -8.79402 C -524.07747 -8.844674 -524.0807 -8.895345 -524.08373 -8.946031 L -525.2601 -28.7482 C -525.27284 -28.962713 -525.28126 -29.17746 -525.28535 -29.392315 L -525.67764 -49.987153 C -525.6787 -50.042386 -525.68 -50.09761 -525.68165 -50.15283 L -526.2768 -70.387174 C -526.2784 -70.44239 -526.27974 -70.49762 -526.2808 -70.55285 L -526.67145 -91.06239 C -526.6766 -91.33409 -526.6749 -91.60587 -526.6662 -91.87748 L -526.08027 -110.23709 C -526.07956 -110.25903 -526.0788 -110.28097 -526.078 -110.30291 L -525.28995 -132.17222 C -525.2828 -132.37073 -525.27194 -132.56908 -525.2574 -132.76718 L -523.6999 -153.9878 C -523.6861 -154.17592 -523.67564 -154.36427 -523.6685 -154.55277 L -522.91404 -174.45163 C -522.89085 -175.06338 -522.83256 -175.67329 -522.7395 -176.27835 L -520.0005 -194.08187 C -519.9197 -194.60697 -519.8128 -195.12772 -519.6802 -195.64218 L -515.05194 -213.59983 C -514.93684 -214.0464 -514.8025 -214.4878 -514.64927 -214.92276 L -508.9285 -231.1624 C -508.7624 -231.63388 -508.5743 -232.0973 -508.3648 -232.55118 L -502.83327 -244.53622 C -502.7306 -244.7587 -502.6228 -244.97882 -502.51 -245.19636 L -497.1478 -255.5378 C -497.10207 -255.62593 -497.05554 -255.71365 -497.0082 -255.80092 L -491.7922 -265.4179 C -491.05495 -266.77724 -490.1053 -268.01014 -488.9792 -269.07 L -488.9792 -269.07 C -488.304 -269.70548 -488.2718 -270.76798 -488.9073 -271.44317 C -489.0318 -271.57545 -489.17693 -271.68664 -489.33705 -271.77242 L -492.5512 -273.49428 C -492.76984 -273.6114 -492.9912 -273.72345 -493.21506 -273.8303 L -501.06903 -277.57878 C -501.47564 -277.77285 -501.89026 -277.94965 -502.3118 -278.1087 L -511.9866 -281.7596 C -512.18167 -281.8332 -512.3781 -281.90298 -512.5759 -281.9689 L -525.2704 -286.2004 C -525.4096 -286.2468 -525.54945 -286.2913 -525.6899 -286.33385 L -538.5734 -290.23795 C -538.64395 -290.25932 -538.7143 -290.28118 -538.78456 -290.30352 L -551.28856 -294.28207 C -551.6822 -294.4073 -552.0708 -294.54775 -552.45357 -294.70308 L -564.4295 -299.56288 C -565.2612 -299.90037 -566.06296 -300.30723 -566.8264 -300.77917 L -576.44564 -306.7256 C -576.60135 -306.82187 -576.7554 -306.9208 -576.9077 -307.02233 L -581.7978 -310.2824 C -582.7792 -310.93665 -583.6505 -311.74255 -584.3792 -312.67 L -584.3792 -312.67 C -584.4848 -312.8044 -584.6794 -312.82776 -584.8138 -312.72216 C -584.9165 -312.64143 -584.9575 -312.50488 -584.9162 -312.38092 L -584.7792 -311.97 C -584.31997 -310.59226 -584.2154 -309.12097 -584.4752 -307.6921 L -584.8703 -305.51885 C -585.14155 -304.0272 -585.6234 -302.58165 -586.3014 -301.2256 L -587.83374 -298.16097 C -588.13044 -297.56757 -588.46376 -296.9932 -588.8318 -296.44118 L -592.0355 -291.63562 C -592.4641 -290.99272 -592.9387 -290.3817 -593.4556 -289.8074 L -598.0176 -284.73845 C -598.0587 -284.69282 -598.1 -284.64743 -598.1416 -284.60227 L -604.1358 -278.09425 C -604.7636 -277.4127 -605.4493 -276.787 -606.18535 -276.22414 L -611.2095 -272.38212 C -611.6557 -272.04095 -612.1195 -271.7235 -612.599 -271.4311 L -619.0854 -267.47598 C -619.7471 -267.07253 -620.4372 -266.7177 -621.15025 -266.41425 L -628.2657 -263.3864 C -629.0733 -263.04272 -629.9079 -262.76608 -630.76095 -262.55928 L -634.84 -261.57042 C -635.66484 -261.37046 -636.5043 -261.23645 -637.3504 -261.16965 L -643.0506 -260.71964 C -643.4695 -260.68656 -643.8896 -260.67 -644.3098 -260.67 L -651.3421 -260.67 C -652.0992 -260.67 -652.8554 -260.72374 -653.6049 -260.8308 L -661.5513 -261.96602 C -662.0363 -262.0353 -662.5179 -262.12683 -662.9945 -262.2403 L -668.9557 -263.65965 C -670.1012 -263.9324 -671.2131 -264.33074 -672.2712 -264.84747 L -678.5512 -267.91445 C -679.0362 -268.15134 -679.509 -268.4126 -679.9676 -268.6973 L -684.1795 -271.31155 C -684.77865 -271.68345 -685.3526 -272.09455 -685.8975 -272.54217 L -690.3436 -276.19433 C -690.5673 -276.37808 -690.786 -276.56787 -690.9994 -276.76348 L -694.8017 -280.24896 C -695.253 -280.66265 -695.6802 -281.1019 -696.08115 -281.56454 L -700.1999 -286.31694 C -700.5193 -286.68546 -700.82164 -287.0684 -701.10605 -287.46452 L -705.5357 -293.6344 C -706.0306 -294.3237 -706.4699 -295.0513 -706.8494 -295.8103 L -709.4258 -300.9632 C -709.4614 -301.0344 -709.4965 -301.10587 -709.531 -301.1776 L -710.7792 -303.77 C -711.6299 -305.53688 -711.98545 -307.5014 -711.8079 -309.45436 L -711.6277 -311.43662 C -711.6039 -311.6985 -711.7969 -311.93006 -712.05875 -311.95387 C -712.2211 -311.96863 -712.3798 -311.89926 -712.4792 -311.77 L -712.4792 -311.77 C -713.1427 -310.90753 -713.9228 -310.14145 -714.79715 -309.49376 L -718.6937 -306.60744 C -718.8174 -306.51582 -718.9424 -306.426 -719.0686 -306.338 L -723.6909 -303.1164 C -724.8776 -302.2893 -726.17105 -301.62693 -727.5358 -301.14742 L -732.1429 -299.5287 C -732.6335 -299.35634 -733.1154 -299.16017 -733.5868 -298.94088 L -740.4336 -295.75633 C -741.1298 -295.43253 -741.84835 -295.15927 -742.58375 -294.93865 L -753.4541 -291.67753 C -753.4709 -291.6725 -753.4876 -291.66747 -753.5043 -291.6624 L -764.4724 -288.3328 C -764.6103 -288.29094 -764.7476 -288.2472 -764.8843 -288.20165 L -777.8055 -283.89457 C -777.8547 -283.8782 -777.9039 -283.86206 -777.9531 -283.84616 L -789.3205 -280.17926 C -789.959 -279.9733 -790.5839 -279.72738 -791.1915 -279.44296 L -799.1235 -275.73013 C -799.4938 -275.55678 -799.8574 -275.3693 -800.2134 -275.1681 L -806.1595 -271.80724 C -807.4125 -271.099 -807.8542 -269.50908 -807.1459 -268.25605 C -807.0688 -268.1196 -806.97955 -267.9904 -806.8792 -267.87 L -806.0151 -266.83307 C -805.2602 -265.92714 -804.6077 -264.94052 -804.0696 -263.8912 L -800.9924 -257.89077 C -800.917 -257.7436 -800.8392 -257.5976 -800.7592 -257.45286 L -796.8045 -250.29664 C -796.721 -250.14556 -796.6399 -249.99314 -796.5614 -249.83944 L -792.4531 -241.80145 C -792.204 -241.31414 -791.9801 -240.81437 -791.7822 -240.30412 L -788.2995 -231.32224 C -788.286 -231.28742 -788.2723 -231.25264 -788.2586 -231.2179 L -784.6623 -222.13247 C -784.5403 -221.82423 -784.4279 -221.51228 -784.3252 -221.19707 L -781.7034 -213.1443 C -781.6873 -213.09477 -781.6714 -213.04517 -781.6558 -212.9955 L -778.5837 -203.23722 C -778.3809 -202.59306 -778.2191 -201.9367 -778.0993 -201.2721 L -776.114 -190.26263 C -776.0908 -190.13422 -776.0692 -190.00553 -776.0492 -189.87658 L -774.3433 -178.8832 C -774.3006 -178.60778 -774.2651 -178.3313 -774.2368 -178.05402 L -773.34935 -169.3573 C -773.3026 -168.89932 -773.2757 -168.43953 -773.2686 -167.97921 L -773.08435 -156.0036 C -773.0809 -155.78122 -773.0729 -155.55895 -773.0602 -155.33692 L -772.2898 -141.85536 C -772.28275 -141.7318 -772.2743 -141.60831 -772.2643 -141.48495 L -770.9308 -124.91057 C -770.8964 -124.4837 -770.8792 -124.05562 -770.8792 -123.62736 L -770.8792 -111.17758 C -770.8792 -110.97255 -770.8753 -110.76753 -770.8674 -110.56265 L -770.287 -95.47351 C -770.2818 -95.33785 -770.2783 -95.20212 -770.2766 -95.06636 L -770.0844 -80.2701 C -770.08095 -80.00341 -770.0842 -79.73667 -770.094 -79.47014 L -770.6683 -63.965995 C -770.6756 -63.76868 -770.6792 -63.571254 -770.6792 -63.37381 L -770.6792 -49.77758 C -770.6792 -49.57255 -770.6832 -49.367533 -770.691 -49.16265 L -771.2762 -33.94765 C -771.2782 -33.895885 -771.2805 -33.84413 -771.283 -33.79239 L -772.0783 -17.289453 C -772.0789 -17.276486 -772.07955 -17.26352 -772.0802 -17.250554 L -772.8747 -1.5593865 C -772.8777 -1.4997973 -772.8811 -1.4402255 -772.8847 -1.3806738 L -774.0737 17.84006 C -774.0774 17.900019 -774.0814 17.959955 -774.0858 18.019868 L -775.8689 42.389416 C -775.8758 42.483136 -775.8835 42.576794 -775.892 42.67038 L -777.6779 62.31519 C -777.6788 62.32506 -777.6797 62.334934 -777.6806 62.344805 L -779.4514 81.42971 C -779.4699 81.62989 -779.4923 81.82969 -779.5184 82.02902 L -781.4791 97.00174 C -781.6119 98.01594 -781.881 99.00756 -782.2792 99.94972 L -782.2792 99.94972 C -782.6768 100.89047 -782.9255 101.88739 -783.0163 102.90465 L -783.7792 111.44972 C -784.287 117.13675 -780.3285 122.25512 -774.6965 123.19378 Z" stroke="#7f8080" stroke-linecap="round" stroke-linejoin="round" stroke-width="1"/>
      <path d="M -863.67 -162.62386 L -857.47 -158.22386 L -849.27 -154.22386 L -840.67 -150.62386 L -831.67 -146.82386 L -820.67 -142.82386 L -811.27 -140.02386 L -802.27 -137.42386 L -793.27 -134.82386 L -787.87 -133.42386 L -782.27 -132.42386 L -779.87 -138.22386 L -777.27 -143.62386 L -775.07 -147.62386 L -772.47 -151.02386 L -772.27 -160.02386 L -772.87 -171.02386 L -774.67 -181.82386 L -776.27 -192.22386 L -778.87 -203.22386 L -781.27 -212.82386 L -784.07 -220.82386 L -787.27 -230.22386 L -790.07 -237.62386 L -793.67 -245.22386 L -797.67 -252.82386 L -801.67 -260.22386 L -804.27 -263.82386 L -807.87 -269.62386 L -813.27 -265.22386 L -818.07 -260.42386 L -822.67 -254.22386 L -827.07 -248.02386 L -831.87 -239.42386 L -836.67 -230.02386 L -841.47 -220.82386 L -845.07 -212.22386 L -849.07 -203.22386 L -852.27 -195.02386 L -856.07 -185.62386 L -858.87 -177.62386 L -861.87 -169.22386 Z" fill="white"/>
      <path d="M -863.67 -162.62386 L -857.47 -158.22386 L -849.27 -154.22386 L -840.67 -150.62386 L -831.67 -146.82386 L -820.67 -142.82386 L -811.27 -140.02386 L -802.27 -137.42386 L -793.27 -134.82386 L -787.87 -133.42386 L -782.27 -132.42386 L -779.87 -138.22386 L -777.27 -143.62386 L -775.07 -147.62386 L -772.47 -151.02386 L -772.27 -160.02386 L -772.87 -171.02386 L -774.67 -181.82386 L -776.27 -192.22386 L -778.87 -203.22386 L -781.27 -212.82386 L -784.07 -220.82386 L -787.27 -230.22386 L -790.07 -237.62386 L -793.67 -245.22386 L -797.67 -252.82386 L -801.67 -260.22386 L -804.27 -263.82386 L -807.87 -269.62386 L -813.27 -265.22386 L -818.07 -260.42386 L -822.67 -254.22386 L -827.07 -248.02386 L -831.87 -239.42386 L -836.67 -230.02386 L -841.47 -220.82386 L -845.07 -212.22386 L -849.07 -203.22386 L -852.27 -195.02386 L -856.07 -185.62386 L -858.87 -177.62386 L -861.87 -169.22386 Z" stroke="#7f8080" stroke-linecap="round" stroke-linejoin="round" stroke-width="1"/>
      <path d="M -432.2647 -163.56726 L -438.4647 -159.16726 L -446.6647 -155.16726 L -455.2647 -151.56726 L -464.2647 -147.76726 L -475.2647 -143.76726 L -484.6647 -140.96726 L -493.6647 -138.36726 L -502.6647 -135.76726 L -508.0647 -134.36726 L -513.6647 -133.36726 L -516.0647 -139.16726 L -518.6647 -144.56726 L -520.8647 -148.56726 L -523.4647 -151.96726 L -523.6647 -160.96726 L -523.0647 -171.96726 L -521.2647 -182.76726 L -519.6647 -193.16726 L -517.0647 -204.16726 L -514.6647 -213.76726 L -511.8647 -221.76726 L -508.6647 -231.16726 L -505.8647 -238.56726 L -502.2647 -246.16726 L -498.2647 -253.76726 L -494.2647 -261.16726 L -491.6647 -264.76726 L -488.0647 -270.56726 L -482.6647 -266.16726 L -477.8647 -261.36726 L -473.2647 -255.16726 L -468.8647 -248.96726 L -464.0647 -240.36726 L -459.2647 -230.96726 L -454.4647 -221.76726 L -450.8647 -213.16726 L -446.8647 -204.16726 L -443.6647 -195.96726 L -439.8647 -186.56726 L -437.0647 -178.56726 L -434.0647 -170.16726 Z" fill="white"/>
      <path d="M -432.2647 -163.56726 L -438.4647 -159.16726 L -446.6647 -155.16726 L -455.2647 -151.56726 L -464.2647 -147.76726 L -475.2647 -143.76726 L -484.6647 -140.96726 L -493.6647 -138.36726 L -502.6647 -135.76726 L -508.0647 -134.36726 L -513.6647 -133.36726 L -516.0647 -139.16726 L -518.6647 -144.56726 L -520.8647 -148.56726 L -523.4647 -151.96726 L -523.6647 -160.96726 L -523.0647 -171.96726 L -521.2647 -182.76726 L -519.6647 -193.16726 L -517.0647 -204.16726 L -514.6647 -213.76726 L -511.8647 -221.76726 L -508.6647 -231.16726 L -505.8647 -238.56726 L -502.2647 -246.16726 L -498.2647 -253.76726 L -494.2647 -261.16726 L -491.6647 -264.76726 L -488.0647 -270.56726 L -482.6647 -266.16726 L -477.8647 -261.36726 L -473.2647 -255.16726 L -468.8647 -248.96726 L -464.0647 -240.36726 L -459.2647 -230.96726 L -454.4647 -221.76726 L -450.8647 -213.16726 L -446.8647 -204.16726 L -443.6647 -195.96726 L -439.8647 -186.56726 L -437.0647 -178.56726 L -434.0647 -170.16726 Z" stroke="#7f8080" stroke-linecap="round" stroke-linejoin="round" stroke-width="1"/>
      <path d="M -432.2647 -163.56726 L -438.4647 -159.16726 L -446.6647 -155.16726 L -455.2647 -151.56726 L -464.2647 -147.76726 L -475.2647 -143.76726 L -484.6647 -140.96726 L -493.6647 -138.36726 L -502.6647 -135.76726 L -508.0647 -134.36726 L -513.6647 -133.36726 L -516.6647 -139.76726 L -512.8647 -140.56726 L -508.0647 -141.76726 L -502.4647 -142.96726 L -496.4647 -144.76726 L -491.8647 -146.16726 L -487.6647 -147.36726 L -483.0647 -149.36726 L -478.4647 -150.96726 L -473.6647 -152.96726 L -469.6647 -154.36726 L -464.4647 -156.56726 L -459.8647 -158.16726 L -455.0647 -160.36726 L -450.2647 -162.16726 L -446.2647 -164.16726 L -441.8647 -166.36726 L -437.4647 -168.56726 L -434.0647 -170.16726 Z" fill="black"/>
      <path d="M -432.2647 -163.56726 L -438.4647 -159.16726 L -446.6647 -155.16726 L -455.2647 -151.56726 L -464.2647 -147.76726 L -475.2647 -143.76726 L -484.6647 -140.96726 L -493.6647 -138.36726 L -502.6647 -135.76726 L -508.0647 -134.36726 L -513.6647 -133.36726 L -516.6647 -139.76726 L -512.8647 -140.56726 L -508.0647 -141.76726 L -502.4647 -142.96726 L -496.4647 -144.76726 L -491.8647 -146.16726 L -487.6647 -147.36726 L -483.0647 -149.36726 L -478.4647 -150.96726 L -473.6647 -152.96726 L -469.6647 -154.36726 L -464.4647 -156.56726 L -459.8647 -158.16726 L -455.0647 -160.36726 L -450.2647 -162.16726 L -446.2647 -164.16726 L -441.8647 -166.36726 L -437.4647 -168.56726 L -434.0647 -170.16726 Z" stroke="#7f8080" stroke-linecap="round" stroke-linejoin="round" stroke-width="1"/>
      <path d="M -713.61075 -312.3141 L -708.21075 -312.9141 L -701.41075 -309.5141 L -696.41075 -307.7141 L -688.01075 -305.9141 L -679.61075 -304.9141 L -671.61075 -303.9141 L -664.01075 -303.7141 L -655.41075 -303.3141 L -643.81075 -303.5141 L -635.41075 -303.9141 L -626.01075 -304.5141 L -617.61075 -305.3141 L -608.41075 -306.7141 L -600.21075 -308.9141 L -594.41075 -310.7141 L -588.81075 -313.3141 L -586.01075 -312.1141 L -585.61075 -306.5141 L -588.41075 -298.5141 L -593.81075 -295.7141 L -604.41075 -292.5141 L -615.81075 -290.1141 L -627.01075 -289.3141 L -639.41075 -288.3141 L -649.81075 -288.3141 L -659.21075 -288.3141 L -670.81075 -288.9141 L -682.01075 -289.7141 L -692.61075 -291.9141 L -701.21075 -293.9141 L -707.41075 -296.7141 L -709.41075 -298.3141 L -712.61075 -305.9141 Z" fill="black"/>
      <path d="M -713.61075 -312.3141 L -708.21075 -312.9141 L -701.41075 -309.5141 L -696.41075 -307.7141 L -688.01075 -305.9141 L -679.61075 -304.9141 L -671.61075 -303.9141 L -664.01075 -303.7141 L -655.41075 -303.3141 L -643.81075 -303.5141 L -635.41075 -303.9141 L -626.01075 -304.5141 L -617.61075 -305.3141 L -608.41075 -306.7141 L -600.21075 -308.9141 L -594.41075 -310.7141 L -588.81075 -313.3141 L -586.01075 -312.1141 L -585.61075 -306.5141 L -588.41075 -298.5141 L -593.81075 -295.7141 L -604.41075 -292.5141 L -615.81075 -290.1141 L -627.01075 -289.3141 L -639.41075 -288.3141 L -649.81075 -288.3141 L -659.21075 -288.3141 L -670.81075 -288.9141 L -682.01075 -289.7141 L -692.61075 -291.9141 L -701.21075 -293.9141 L -707.41075 -296.7141 L -709.41075 -298.3141 L -712.61075 -305.9141 Z" stroke="#7f8080" stroke-linecap="round" stroke-linejoin="round" stroke-width="1"/>
      <path d="M -737.67 119.73 L -755.4837 117.00503 L -766.4837 116.00503 L -779.4837 114.00503 L -783.4837 112.00503 L -778.4837 81.00503 L -776.67 54.929993 L -774.17 26.929993 L -772.67 -.07000667 L -772.17 -29.070007 L -770.67 -56.07001 L -770.17 -81.57001 L -771.17 -117.57 L -772.17 -151.07 L -772.17 -166.07 L -774.67 -181.57 L -777.17 -196.57 L -781.67 -212.07 L -786.17 -226.57 L -791.17 -240.07 L -797.67 -253.57 L -804.17 -264.07 L -807.67 -270.57 L -798.4837 -276.99497 L -785.4837 -281.99497 L -772.4837 -285.99497 L -754.17 -291.57 L -743.17 -295.07 L -739.67 -296.07 Z" fill="white"/>
      <path d="M -737.67 119.73 L -755.4837 117.00503 L -766.4837 116.00503 L -779.4837 114.00503 L -783.4837 112.00503 L -778.4837 81.00503 L -776.67 54.929993 L -774.17 26.929993 L -772.67 -.07000667 L -772.17 -29.070007 L -770.67 -56.07001 L -770.17 -81.57001 L -771.17 -117.57 L -772.17 -151.07 L -772.17 -166.07 L -774.67 -181.57 L -777.17 -196.57 L -781.67 -212.07 L -786.17 -226.57 L -791.17 -240.07 L -797.67 -253.57 L -804.17 -264.07 L -807.67 -270.57 L -798.4837 -276.99497 L -785.4837 -281.99497 L -772.4837 -285.99497 L -754.17 -291.57 L -743.17 -295.07 L -739.67 -296.07 Z" stroke="#7f8080" stroke-linecap="round" stroke-linejoin="round" stroke-width="1"/>
      <path d="M -677.67 126.43 L -658.2928 128.43 L -636.7928 126.93 L -617.7928 126.93 L -617.17 126.93 L -618.17 -260.57 L -644.8297 -255.07 L -670.67 -259.07 L -679.17 -257.57 Z" fill="white"/>
      <path d="M -677.67 126.43 L -658.2928 128.43 L -636.7928 126.93 L -617.7928 126.93 L -617.17 126.93 L -618.17 -260.57 L -644.8297 -255.07 L -670.67 -259.07 L -679.17 -257.57 Z" stroke="#7f8080" stroke-linecap="round" stroke-linejoin="round" stroke-width="1"/>
      <path d="M -557.47 120.73 L -539.67 119.93 L -528.67 116.93 L -516.451 114.27085 L -512.451 112.27085 L -517.451 81.27085 L -520.451 54.27085 L -522.451 27.27085 L -523.67 .9299933 L -525.67 -28.070007 L -526.451 -56.72915 L -527.451 -80.72915 L -526.67 -117.07 L -523.67 -151.07 L -520.67 -182.07 L -518.67 -197.07 L -514.67 -212.57 L -510.17 -226.57 L -505.17 -239.57 L -498.17 -253.57 L -491.67 -264.57 L -488.451 -271.72915 L -497.451 -276.72915 L -510.451 -281.72915 L -523.451 -285.72915 L -542.451 -290.72915 L -557.451 -295.72915 Z" fill="white"/>
      <path d="M -557.47 120.73 L -539.67 119.93 L -528.67 116.93 L -516.451 114.27085 L -512.451 112.27085 L -517.451 81.27085 L -520.451 54.27085 L -522.451 27.27085 L -523.67 .9299933 L -525.67 -28.070007 L -526.451 -56.72915 L -527.451 -80.72915 L -526.67 -117.07 L -523.67 -151.07 L -520.67 -182.07 L -518.67 -197.07 L -514.67 -212.57 L -510.17 -226.57 L -505.17 -239.57 L -498.17 -253.57 L -491.67 -264.57 L -488.451 -271.72915 L -497.451 -276.72915 L -510.451 -281.72915 L -523.451 -285.72915 L -542.451 -290.72915 L -557.451 -295.72915 Z" stroke="#7f8080" stroke-linecap="round" stroke-linejoin="round" stroke-width="1"/>
      <path d="M -713.0979 -312.1062 L -717.82705 -308.05264 C -718.9774 -307.06663 -720.2224 -306.1967 -721.5438 -305.45552 L -724.0704 -304.03836 C -725.5056 -303.2334 -726.0864 -301.46425 -725.4076 -299.96527 L -724.39 -297.71804 C -724.2684 -297.44955 -724.1417 -297.18343 -724.0099 -296.9198 L -722.2076 -293.31527 L -719.7206 -288.3413 C -719.3788 -287.6577 -719.0032 -286.99157 -718.59505 -286.34538 L -716.26866 -282.66193 C -715.8283 -281.96466 -715.3507 -281.2916 -714.83805 -280.64562 L -711.4274 -276.34816 C -710.8813 -275.66013 -710.2963 -275.00395 -709.6752 -274.38284 L -705.0091 -269.7168 C -704.60825 -269.31592 -704.1927 -268.93 -703.7633 -268.55982 L -699.1998 -264.62575 C -698.8051 -264.28553 -698.399 -263.95882 -697.98215 -263.64618 L -694.0072 -260.66497 C -693.3413 -260.16554 -692.6488 -259.70262 -691.9327 -259.27827 L -687.7996 -256.82905 C -687.6716 -256.7532 -687.5429 -256.6786 -687.4134 -256.60524 L -682.7159 -253.9433 C -681.9776 -253.52493 -681.2167 -253.14775 -680.43675 -252.81347 L -676.8869 -251.29212 C -676.301 -251.041 -675.7048 -250.81434 -675.1 -250.61274 L -670.0819 -248.94004 C -668.8347 -248.5243 -667.5541 -248.21625 -666.2542 -248.0193 L -662.15536 -247.39826 C -661.79024 -247.34294 -661.42385 -247.29642 -661.0565 -247.25875 L -654.1754 -246.553 C -653.9302 -246.52785 -653.68466 -246.50664 -653.4388 -246.4894 L -648.91165 -246.1717 C -648.3758 -246.1341 -647.8388 -246.11527 -647.3016 -246.11527 L -644.03954 -246.11527 C -643.08584 -246.11527 -642.1331 -246.1746 -641.1867 -246.29288 L -637.198 -246.79147 C -636.53805 -246.87396 -635.882 -246.98505 -635.23165 -247.1244 L -629.1496 -248.4277 C -628.25574 -248.61924 -627.3741 -248.8639 -626.5093 -249.1604 L -622.0005 -250.7063 C -621.2058 -250.97874 -620.4267 -251.29452 -619.6666 -251.6522 L -614.8332 -253.92674 C -614.283 -254.18566 -613.7433 -254.4663 -613.21536 -254.76798 L -609.4475 -256.92105 C -608.7547 -257.31693 -608.083 -257.7486 -607.43506 -258.2143 L -602.75894 -261.57525 C -602.25825 -261.93512 -601.77224 -262.31497 -601.3021 -262.7139 L -595.9812 -267.22856 C -595.5989 -267.55295 -595.2273 -267.88975 -594.867 -268.23842 L -590.1678 -272.78605 C -589.5282 -273.405 -588.9251 -274.06057 -588.3615 -274.74943 L -584.5682 -279.38567 C -584.0615 -280.00498 -583.5874 -280.65032 -583.148 -281.31904 L -579.5308 -286.82344 C -579.3154 -287.15127 -579.1084 -287.48456 -578.91 -287.823 L -576.3869 -292.12708 C -576.00094 -292.78547 -575.648 -293.46265 -575.3294 -294.15613 L -573.2107 -298.7674 C -572.6778 -299.92716 -572.30666 -301.15457 -572.1076 -302.41527 L -572.1076 -302.41527 C -571.9293 -303.54453 -572.5086 -304.65798 -573.5357 -305.1601 L -578.8291 -307.748 C -580.1436 -308.39064 -581.3782 -309.18515 -582.5076 -310.11527 L -582.9136 -310.44963 C -583.75795 -311.14496 -584.38136 -312.07127 -584.7076 -313.11527 L -584.7076 -313.11527 C -584.7543 -313.2646 -584.91314 -313.3478 -585.06246 -313.30114 C -585.1775 -313.2652 -585.2572 -313.16032 -585.2611 -313.03982 L -585.3703 -309.6169 C -585.46106 -306.77382 -586.0784 -303.97224 -587.191 -301.35434 L -588.06794 -299.29096 C -588.6265 -297.9767 -589.30626 -296.7173 -590.0984 -295.5291 L -593.7842 -290.00042 C -594.5317 -288.87916 -595.3763 -287.82576 -596.30825 -286.85238 L -602.6033 -280.27754 C -603.4714 -279.37088 -604.4122 -278.5368 -605.4164 -277.78368 L -613.7913 -271.5025 C -614.6677 -270.8452 -615.59 -270.25133 -616.55104 -269.72547 L -623.73624 -265.79394 C -625.0474 -265.07654 -626.4253 -264.48863 -627.8505 -264.03857 L -634.5234 -261.93134 C -636.2403 -261.38917 -638.0149 -261.05047 -639.8107 -260.9222 L -646.6972 -260.4303 C -647.7695 -260.3537 -648.8458 -260.3524 -649.9183 -260.42635 L -658.3546 -261.00817 C -659.38875 -261.0795 -660.4169 -261.22065 -661.43205 -261.43067 L -668.56726 -262.90692 C -670.5192 -263.31078 -672.4104 -263.96666 -674.19324 -264.8581 L -678.85265 -267.1878 C -680.0868 -267.80486 -681.2629 -268.53173 -682.3667 -269.35962 L -688.0487 -273.6211 C -688.4878 -273.95044 -688.915 -274.2954 -689.3295 -274.65532 L -695.0847 -279.65324 C -695.89896 -280.3604 -696.6625 -281.12393 -697.3696 -281.9382 L -701.7749 -287.0109 C -702.529 -287.87926 -703.2169 -288.80296 -703.8328 -289.77422 L -707.5665 -295.662 C -707.9271 -296.23057 -708.2625 -296.8147 -708.5718 -297.41272 L -710.1922 -300.54545 C -710.8013 -301.72312 -711.3075 -302.95127 -711.705 -304.21616 L -712.9853 -308.28965 C -713.20005 -308.97303 -713.3828 -309.66606 -713.5329 -310.3665 L -713.7583 -311.41844 C -713.8434 -311.81545 -713.617 -312.2131 -713.2322 -312.34264 L -713.2322 -312.34264 C -713.1597 -312.36704 -713.08116 -312.32806 -713.05675 -312.25556 C -713.0387 -312.20205 -713.055 -312.14296 -713.0979 -312.1062 Z" fill="black"/>
      <path d="M -713.0979 -312.1062 L -717.82705 -308.05264 C -718.9774 -307.06663 -720.2224 -306.1967 -721.5438 -305.45552 L -724.0704 -304.03836 C -725.5056 -303.2334 -726.0864 -301.46425 -725.4076 -299.96527 L -724.39 -297.71804 C -724.2684 -297.44955 -724.1417 -297.18343 -724.0099 -296.9198 L -722.2076 -293.31527 L -719.7206 -288.3413 C -719.3788 -287.6577 -719.0032 -286.99157 -718.59505 -286.34538 L -716.26866 -282.66193 C -715.8283 -281.96466 -715.3507 -281.2916 -714.83805 -280.64562 L -711.4274 -276.34816 C -710.8813 -275.66013 -710.2963 -275.00395 -709.6752 -274.38284 L -705.0091 -269.7168 C -704.60825 -269.31592 -704.1927 -268.93 -703.7633 -268.55982 L -699.1998 -264.62575 C -698.8051 -264.28553 -698.399 -263.95882 -697.98215 -263.64618 L -694.0072 -260.66497 C -693.3413 -260.16554 -692.6488 -259.70262 -691.9327 -259.27827 L -687.7996 -256.82905 C -687.6716 -256.7532 -687.5429 -256.6786 -687.4134 -256.60524 L -682.7159 -253.9433 C -681.9776 -253.52493 -681.2167 -253.14775 -680.43675 -252.81347 L -676.8869 -251.29212 C -676.301 -251.041 -675.7048 -250.81434 -675.1 -250.61274 L -670.0819 -248.94004 C -668.8347 -248.5243 -667.5541 -248.21625 -666.2542 -248.0193 L -662.15536 -247.39826 C -661.79024 -247.34294 -661.42385 -247.29642 -661.0565 -247.25875 L -654.1754 -246.553 C -653.9302 -246.52785 -653.68466 -246.50664 -653.4388 -246.4894 L -648.91165 -246.1717 C -648.3758 -246.1341 -647.8388 -246.11527 -647.3016 -246.11527 L -644.03954 -246.11527 C -643.08584 -246.11527 -642.1331 -246.1746 -641.1867 -246.29288 L -637.198 -246.79147 C -636.53805 -246.87396 -635.882 -246.98505 -635.23165 -247.1244 L -629.1496 -248.4277 C -628.25574 -248.61924 -627.3741 -248.8639 -626.5093 -249.1604 L -622.0005 -250.7063 C -621.2058 -250.97874 -620.4267 -251.29452 -619.6666 -251.6522 L -614.8332 -253.92674 C -614.283 -254.18566 -613.7433 -254.4663 -613.21536 -254.76798 L -609.4475 -256.92105 C -608.7547 -257.31693 -608.083 -257.7486 -607.43506 -258.2143 L -602.75894 -261.57525 C -602.25825 -261.93512 -601.77224 -262.31497 -601.3021 -262.7139 L -595.9812 -267.22856 C -595.5989 -267.55295 -595.2273 -267.88975 -594.867 -268.23842 L -590.1678 -272.78605 C -589.5282 -273.405 -588.9251 -274.06057 -588.3615 -274.74943 L -584.5682 -279.38567 C -584.0615 -280.00498 -583.5874 -280.65032 -583.148 -281.31904 L -579.5308 -286.82344 C -579.3154 -287.15127 -579.1084 -287.48456 -578.91 -287.823 L -576.3869 -292.12708 C -576.00094 -292.78547 -575.648 -293.46265 -575.3294 -294.15613 L -573.2107 -298.7674 C -572.6778 -299.92716 -572.30666 -301.15457 -572.1076 -302.41527 L -572.1076 -302.41527 C -571.9293 -303.54453 -572.5086 -304.65798 -573.5357 -305.1601 L -578.8291 -307.748 C -580.1436 -308.39064 -581.3782 -309.18515 -582.5076 -310.11527 L -582.9136 -310.44963 C -583.75795 -311.14496 -584.38136 -312.07127 -584.7076 -313.11527 L -584.7076 -313.11527 C -584.7543 -313.2646 -584.91314 -313.3478 -585.06246 -313.30114 C -585.1775 -313.2652 -585.2572 -313.16032 -585.2611 -313.03982 L -585.3703 -309.6169 C -585.46106 -306.77382 -586.0784 -303.97224 -587.191 -301.35434 L -588.06794 -299.29096 C -588.6265 -297.9767 -589.30626 -296.7173 -590.0984 -295.5291 L -593.7842 -290.00042 C -594.5317 -288.87916 -595.3763 -287.82576 -596.30825 -286.85238 L -602.6033 -280.27754 C -603.4714 -279.37088 -604.4122 -278.5368 -605.4164 -277.78368 L -613.7913 -271.5025 C -614.6677 -270.8452 -615.59 -270.25133 -616.55104 -269.72547 L -623.73624 -265.79394 C -625.0474 -265.07654 -626.4253 -264.48863 -627.8505 -264.03857 L -634.5234 -261.93134 C -636.2403 -261.38917 -638.0149 -261.05047 -639.8107 -260.9222 L -646.6972 -260.4303 C -647.7695 -260.3537 -648.8458 -260.3524 -649.9183 -260.42635 L -658.3546 -261.00817 C -659.38875 -261.0795 -660.4169 -261.22065 -661.43205 -261.43067 L -668.56726 -262.90692 C -670.5192 -263.31078 -672.4104 -263.96666 -674.19324 -264.8581 L -678.85265 -267.1878 C -680.0868 -267.80486 -681.2629 -268.53173 -682.3667 -269.35962 L -688.0487 -273.6211 C -688.4878 -273.95044 -688.915 -274.2954 -689.3295 -274.65532 L -695.0847 -279.65324 C -695.89896 -280.3604 -696.6625 -281.12393 -697.3696 -281.9382 L -701.7749 -287.0109 C -702.529 -287.87926 -703.2169 -288.80296 -703.8328 -289.77422 L -707.5665 -295.662 C -707.9271 -296.23057 -708.2625 -296.8147 -708.5718 -297.41272 L -710.1922 -300.54545 C -710.8013 -301.72312 -711.3075 -302.95127 -711.705 -304.21616 L -712.9853 -308.28965 C -713.20005 -308.97303 -713.3828 -309.66606 -713.5329 -310.3665 L -713.7583 -311.41844 C -713.8434 -311.81545 -713.617 -312.2131 -713.2322 -312.34264 L -713.2322 -312.34264 C -713.1597 -312.36704 -713.08116 -312.32806 -713.05675 -312.25556 C -713.0387 -312.20205 -713.055 -312.14296 -713.0979 -312.1062 Z" stroke="#7f8080" stroke-linecap="round" stroke-linejoin="round" stroke-width="1"/>
      <path d="M -783.8568 113.13 L -783.8568 113.13 C -783.9225 113.65548 -783.8596 114.18905 -783.6737 114.6849 L -783.0227 116.42092 C -782.8459 116.89227 -782.61885 117.34317 -782.3454 117.76581 L -781.3776 119.26152 C -780.8366 120.09755 -780.1235 120.80854 -779.2859 121.34701 L -778.2078 122.04005 C -777.9076 122.23307 -777.593 122.40284 -777.2668 122.54788 L -775.95 123.13348 C -775.3535 123.39875 -774.7228 123.57927 -774.0762 123.66979 L -765.0658 124.93125 C -765.0558 124.93265 -765.0458 124.93403 -765.0358 124.93538 L -753.3198 126.52399 C -753.2738 126.53023 -753.2277 126.53601 -753.1816 126.54133 L -742.8987 127.72782 C -742.8668 127.7315 -742.8348 127.73497 -742.8028 127.73821 L -729.0928 129.12909 C -729.0648 129.13193 -729.0368 129.1346 -729.0088 129.1371 L -717.9035 130.12864 C -717.86836 130.13178 -717.8332 130.13465 -717.79805 130.13725 L -707.1115 130.92885 C -707.071 130.93185 -707.0305 130.9345 -706.99 130.93679 L -696.482 131.53158 C -696.4612 131.53276 -696.4404 131.53403 -696.4196 131.5354 L -684.3768 132.32508 C -684.2928 132.3306 -684.2087 132.33459 -684.1246 132.33706 L -670.67744 132.73256 C -670.6597 132.73309 -670.6419 132.73368 -670.62415 132.73433 L -659.9803 133.12855 C -659.894 133.13175 -659.8076 133.13335 -659.7212 133.13335 L -649.1122 133.13335 C -649.0713 133.13335 -649.0303 133.1337 -648.9894 133.13442 L -637.903 133.32892 C -637.7349 133.33187 -637.5668 133.32877 -637.39894 133.31961 L -626.7777 132.74027 C -626.6931 132.73566 -626.6084 132.73258 -626.5237 132.73104 L -615.75915 132.53532 C -615.6869 132.534 -615.6147 132.53157 -615.54255 132.52802 L -603.5239 131.93694 C -603.4752 131.93455 -603.42645 131.93164 -603.37775 131.92822 L -592.1377 131.13945 C -592.0798 131.13538 -592.0219 131.1306 -591.96406 131.12509 L -579.5535 129.94313 C -579.485 129.93661 -579.4165 129.9311 -579.34786 129.9266 L -567.41584 129.14417 C -567.3058 129.13696 -567.196 129.12714 -567.08645 129.11474 L -556.6741 127.93599 C -556.65856 127.93423 -556.643 127.93242 -556.6275 127.93055 L -546.6798 126.73683 C -546.66046 126.7345 -546.64114 126.7321 -546.6218 126.72963 L -532.78606 124.95209 C -532.68885 124.9396 -532.5919 124.92507 -532.4953 124.9085 L -525.9418 123.78505 C -525.74085 123.7506 -525.5385 123.72495 -525.3353 123.70816 L -522.10294 123.44119 C -521.2137 123.36774 -520.3467 123.12497 -519.54865 122.72593 L -518.06235 121.98279 C -517.46176 121.6825 -516.9075 121.29735 -516.4166 120.83918 L -515.0815 119.59307 C -514.4747 119.02671 -514.0193 118.31747 -513.7568 117.53 L -513.46195 116.64552 C -513.3919 116.43529 -513.3318 116.22186 -513.282 116.00594 L -512.8123 113.97055 C -512.7771 113.81792 -512.8105 113.65752 -512.9038 113.53167 L -512.9038 113.53167 C -512.9941 113.4098 -513.1448 113.3483 -513.2946 113.37213 L -521.77445 114.7212 C -521.82534 114.7293 -521.87615 114.73796 -521.92685 114.74717 L -534.9116 117.10804 C -535.0044 117.12491 -535.0975 117.1399 -535.1909 117.15301 L -546.4206 118.7291 C -546.4407 118.73193 -546.46086 118.73485 -546.481 118.73785 L -559.6036 120.69645 C -559.7683 120.72104 -559.9339 120.73974 -560.1 120.75252 L -572.82483 121.73135 C -572.84214 121.73268 -572.85945 121.73395 -572.8768 121.73515 L -587.2169 122.731 C -587.2395 122.73256 -587.2621 122.73402 -587.2847 122.73537 L -600.58795 123.5296 C -600.62984 123.5321 -600.67176 123.53422 -600.7137 123.53597 L -614.90515 124.12728 C -615.0022 124.13132 -615.0994 124.13335 -615.1966 124.13335 L -628.4508 124.13335 L -640.9925 124.13335 C -641.03135 124.13335 -641.0702 124.13367 -641.1091 124.13432 L -652.8675 124.33029 C -652.9897 124.33233 -653.1119 124.33117 -653.234 124.3268 L -664.0676 123.93989 C -664.1897 123.93553 -664.3119 123.93437 -664.4341 123.9364 L -676.1487 124.13165 C -676.2168 124.13278 -676.2848 124.13292 -676.3529 124.13207 L -692.05516 123.9358 C -692.18556 123.93416 -692.3159 123.92889 -692.446 123.91998 L -706.7558 122.93986 C -706.8191 122.93552 -706.8824 122.93032 -706.9456 122.92426 L -721.4366 121.5347 C -721.4461 121.5338 -721.4555 121.53287 -721.465 121.53193 L -735.277 120.15073 C -735.39285 120.13914 -735.5084 120.12467 -735.6235 120.10732 L -749.93265 117.95115 C -750.0114 117.93928 -750.0904 117.92876 -750.1695 117.91959 L -763.6894 116.35206 C -763.797 116.33959 -763.9043 116.32462 -764.0111 116.30717 L -773.4032 114.77377 C -773.5682 114.74683 -773.7322 114.71399 -773.8948 114.67531 L -782.9724 112.51653 C -783.3608 112.42418 -783.7504 112.66412 -783.8428 113.05243 C -783.8488 113.07802 -783.8535 113.10391 -783.8568 113.13 Z" fill="black"/>
      <path d="M -783.8568 113.13 L -783.8568 113.13 C -783.9225 113.65548 -783.8596 114.18905 -783.6737 114.6849 L -783.0227 116.42092 C -782.8459 116.89227 -782.61885 117.34317 -782.3454 117.76581 L -781.3776 119.26152 C -780.8366 120.09755 -780.1235 120.80854 -779.2859 121.34701 L -778.2078 122.04005 C -777.9076 122.23307 -777.593 122.40284 -777.2668 122.54788 L -775.95 123.13348 C -775.3535 123.39875 -774.7228 123.57927 -774.0762 123.66979 L -765.0658 124.93125 C -765.0558 124.93265 -765.0458 124.93403 -765.0358 124.93538 L -753.3198 126.52399 C -753.2738 126.53023 -753.2277 126.53601 -753.1816 126.54133 L -742.8987 127.72782 C -742.8668 127.7315 -742.8348 127.73497 -742.8028 127.73821 L -729.0928 129.12909 C -729.0648 129.13193 -729.0368 129.1346 -729.0088 129.1371 L -717.9035 130.12864 C -717.86836 130.13178 -717.8332 130.13465 -717.79805 130.13725 L -707.1115 130.92885 C -707.071 130.93185 -707.0305 130.9345 -706.99 130.93679 L -696.482 131.53158 C -696.4612 131.53276 -696.4404 131.53403 -696.4196 131.5354 L -684.3768 132.32508 C -684.2928 132.3306 -684.2087 132.33459 -684.1246 132.33706 L -670.67744 132.73256 C -670.6597 132.73309 -670.6419 132.73368 -670.62415 132.73433 L -659.9803 133.12855 C -659.894 133.13175 -659.8076 133.13335 -659.7212 133.13335 L -649.1122 133.13335 C -649.0713 133.13335 -649.0303 133.1337 -648.9894 133.13442 L -637.903 133.32892 C -637.7349 133.33187 -637.5668 133.32877 -637.39894 133.31961 L -626.7777 132.74027 C -626.6931 132.73566 -626.6084 132.73258 -626.5237 132.73104 L -615.75915 132.53532 C -615.6869 132.534 -615.6147 132.53157 -615.54255 132.52802 L -603.5239 131.93694 C -603.4752 131.93455 -603.42645 131.93164 -603.37775 131.92822 L -592.1377 131.13945 C -592.0798 131.13538 -592.0219 131.1306 -591.96406 131.12509 L -579.5535 129.94313 C -579.485 129.93661 -579.4165 129.9311 -579.34786 129.9266 L -567.41584 129.14417 C -567.3058 129.13696 -567.196 129.12714 -567.08645 129.11474 L -556.6741 127.93599 C -556.65856 127.93423 -556.643 127.93242 -556.6275 127.93055 L -546.6798 126.73683 C -546.66046 126.7345 -546.64114 126.7321 -546.6218 126.72963 L -532.78606 124.95209 C -532.68885 124.9396 -532.5919 124.92507 -532.4953 124.9085 L -525.9418 123.78505 C -525.74085 123.7506 -525.5385 123.72495 -525.3353 123.70816 L -522.10294 123.44119 C -521.2137 123.36774 -520.3467 123.12497 -519.54865 122.72593 L -518.06235 121.98279 C -517.46176 121.6825 -516.9075 121.29735 -516.4166 120.83918 L -515.0815 119.59307 C -514.4747 119.02671 -514.0193 118.31747 -513.7568 117.53 L -513.46195 116.64552 C -513.3919 116.43529 -513.3318 116.22186 -513.282 116.00594 L -512.8123 113.97055 C -512.7771 113.81792 -512.8105 113.65752 -512.9038 113.53167 L -512.9038 113.53167 C -512.9941 113.4098 -513.1448 113.3483 -513.2946 113.37213 L -521.77445 114.7212 C -521.82534 114.7293 -521.87615 114.73796 -521.92685 114.74717 L -534.9116 117.10804 C -535.0044 117.12491 -535.0975 117.1399 -535.1909 117.15301 L -546.4206 118.7291 C -546.4407 118.73193 -546.46086 118.73485 -546.481 118.73785 L -559.6036 120.69645 C -559.7683 120.72104 -559.9339 120.73974 -560.1 120.75252 L -572.82483 121.73135 C -572.84214 121.73268 -572.85945 121.73395 -572.8768 121.73515 L -587.2169 122.731 C -587.2395 122.73256 -587.2621 122.73402 -587.2847 122.73537 L -600.58795 123.5296 C -600.62984 123.5321 -600.67176 123.53422 -600.7137 123.53597 L -614.90515 124.12728 C -615.0022 124.13132 -615.0994 124.13335 -615.1966 124.13335 L -628.4508 124.13335 L -640.9925 124.13335 C -641.03135 124.13335 -641.0702 124.13367 -641.1091 124.13432 L -652.8675 124.33029 C -652.9897 124.33233 -653.1119 124.33117 -653.234 124.3268 L -664.0676 123.93989 C -664.1897 123.93553 -664.3119 123.93437 -664.4341 123.9364 L -676.1487 124.13165 C -676.2168 124.13278 -676.2848 124.13292 -676.3529 124.13207 L -692.05516 123.9358 C -692.18556 123.93416 -692.3159 123.92889 -692.446 123.91998 L -706.7558 122.93986 C -706.8191 122.93552 -706.8824 122.93032 -706.9456 122.92426 L -721.4366 121.5347 C -721.4461 121.5338 -721.4555 121.53287 -721.465 121.53193 L -735.277 120.15073 C -735.39285 120.13914 -735.5084 120.12467 -735.6235 120.10732 L -749.93265 117.95115 C -750.0114 117.93928 -750.0904 117.92876 -750.1695 117.91959 L -763.6894 116.35206 C -763.797 116.33959 -763.9043 116.32462 -764.0111 116.30717 L -773.4032 114.77377 C -773.5682 114.74683 -773.7322 114.71399 -773.8948 114.67531 L -782.9724 112.51653 C -783.3608 112.42418 -783.7504 112.66412 -783.8428 113.05243 C -783.8488 113.07802 -783.8535 113.10391 -783.8568 113.13 Z" stroke="#7f8080" stroke-linecap="round" stroke-linejoin="round" stroke-width="1"/>
      <path d="M -711.57 -312.3141 L -706.17 -312.9141 L -699.37 -309.5141 L -694.37 -307.7141 L -685.97 -305.9141 L -677.57 -304.9141 L -669.57 -303.9141 L -661.97 -303.7141 L -653.37 -303.3141 L -641.77 -303.5141 L -633.37 -303.9141 L -623.97 -304.5141 L -615.57 -305.3141 L -606.37 -306.7141 L -598.17 -308.9141 L -592.37 -310.7141 L -586.77 -313.3141 L -583.97 -312.1141 L -583.57 -306.5141 L -586.37 -298.5141 L -591.77 -295.7141 L -602.37 -292.5141 L -613.77 -290.1141 L -624.97 -289.3141 L -637.37 -288.3141 L -647.77 -288.3141 L -657.17 -288.3141 L -668.77 -288.9141 L -679.97 -289.7141 L -690.57 -291.9141 L -699.17 -293.9141 L -705.37 -296.7141 L -707.37 -298.3141 L -710.57 -305.9141 Z" fill="url(#Obj_Gradient_2)"/>
      <path d="M -711.57 -312.3141 L -706.17 -312.9141 L -699.37 -309.5141 L -694.37 -307.7141 L -685.97 -305.9141 L -677.57 -304.9141 L -669.57 -303.9141 L -661.97 -303.7141 L -653.37 -303.3141 L -641.77 -303.5141 L -633.37 -303.9141 L -623.97 -304.5141 L -615.57 -305.3141 L -606.37 -306.7141 L -598.17 -308.9141 L -592.37 -310.7141 L -586.77 -313.3141 L -583.97 -312.1141 L -583.57 -306.5141 L -586.37 -298.5141 L -591.77 -295.7141 L -602.37 -292.5141 L -613.77 -290.1141 L -624.97 -289.3141 L -637.37 -288.3141 L -647.77 -288.3141 L -657.17 -288.3141 L -668.77 -288.9141 L -679.97 -289.7141 L -690.57 -291.9141 L -699.17 -293.9141 L -705.37 -296.7141 L -707.37 -298.3141 L -710.57 -305.9141 Z" stroke="#7f8080" stroke-linecap="round" stroke-linejoin="round" stroke-width="1"/>
      <path d="M -431.74103 -163.56726 L -437.94103 -159.16726 L -446.14103 -155.16726 L -454.74103 -151.56726 L -463.74103 -147.76726 L -474.74103 -143.76726 L -484.14103 -140.96726 L -493.14103 -138.36726 L -502.14103 -135.76726 L -507.54103 -134.36726 L -513.14103 -133.36726 L -516.14103 -139.76726 L -512.34103 -140.56726 L -507.54103 -141.76726 L -501.94103 -142.96726 L -495.94103 -144.76726 L -491.34103 -146.16726 L -487.14103 -147.36726 L -482.54103 -149.36726 L -477.94103 -150.96726 L -473.14103 -152.96726 L -469.14103 -154.36726 L -463.94103 -156.56726 L -459.34103 -158.16726 L -454.54103 -160.36726 L -449.74103 -162.16726 L -445.74103 -164.16726 L -441.34103 -166.36726 L -436.94103 -168.56726 L -433.54103 -170.16726 Z" fill="url(#Obj_Gradient_3)"/>
      <path d="M -431.74103 -163.56726 L -437.94103 -159.16726 L -446.14103 -155.16726 L -454.74103 -151.56726 L -463.74103 -147.76726 L -474.74103 -143.76726 L -484.14103 -140.96726 L -493.14103 -138.36726 L -502.14103 -135.76726 L -507.54103 -134.36726 L -513.14103 -133.36726 L -516.14103 -139.76726 L -512.34103 -140.56726 L -507.54103 -141.76726 L -501.94103 -142.96726 L -495.94103 -144.76726 L -491.34103 -146.16726 L -487.14103 -147.36726 L -482.54103 -149.36726 L -477.94103 -150.96726 L -473.14103 -152.96726 L -469.14103 -154.36726 L -463.94103 -156.56726 L -459.34103 -158.16726 L -454.54103 -160.36726 L -449.74103 -162.16726 L -445.74103 -164.16726 L -441.34103 -166.36726 L -436.94103 -168.56726 L -433.54103 -170.16726 Z" stroke="#7f8080" stroke-linecap="round" stroke-linejoin="round" stroke-width="1"/>
      <path d="M -863.67 -162.62386 L -857.47 -158.22386 L -849.27 -154.22386 L -840.67 -150.62386 L -831.67 -146.82386 L -820.67 -142.82386 L -811.27 -140.02386 L -802.27 -137.42386 L -793.27 -134.82386 L -787.87 -133.42386 L -782.27 -132.42386 L -779.27 -138.82386 L -783.07 -139.62386 L -787.87 -140.82386 L -793.47 -142.02386 L -799.47 -143.82386 L -804.07 -145.22386 L -808.27 -146.42386 L -812.87 -148.42386 L -817.47 -150.02386 L -822.27 -152.02386 L -826.27 -153.42386 L -831.47 -155.62386 L -836.07 -157.22386 L -840.87 -159.42386 L -845.67 -161.22386 L -849.67 -163.22386 L -854.07 -165.42386 L -858.47 -167.62386 L -861.87 -169.22386 Z" fill="url(#Obj_Gradient_4)"/>
      <path d="M -863.67 -162.62386 L -857.47 -158.22386 L -849.27 -154.22386 L -840.67 -150.62386 L -831.67 -146.82386 L -820.67 -142.82386 L -811.27 -140.02386 L -802.27 -137.42386 L -793.27 -134.82386 L -787.87 -133.42386 L -782.27 -132.42386 L -779.27 -138.82386 L -783.07 -139.62386 L -787.87 -140.82386 L -793.47 -142.02386 L -799.47 -143.82386 L -804.07 -145.22386 L -808.27 -146.42386 L -812.87 -148.42386 L -817.47 -150.02386 L -822.27 -152.02386 L -826.27 -153.42386 L -831.47 -155.62386 L -836.07 -157.22386 L -840.87 -159.42386 L -845.67 -161.22386 L -849.67 -163.22386 L -854.07 -165.42386 L -858.47 -167.62386 L -861.87 -169.22386 Z" stroke="#7f8080" stroke-linecap="round" stroke-linejoin="round" stroke-width="1"/>
      <path d="M -677.67 125.83 L -617.17 127.83 L -617.67 -255.17 L -617.17 -252.17 L -630.17 -252.17 L -643.17 -250.17 L -653.17 -250.67 L -666.17 -252.17 L -677.17 -255.17 L -679.17 -256.17 Z" fill="#8080ff"/>
      <path d="M -677.67 125.83 L -617.17 127.83 L -617.67 -255.17 L -617.17 -252.17 L -630.17 -252.17 L -643.17 -250.17 L -653.17 -250.67 L -666.17 -252.17 L -677.17 -255.17 L -679.17 -256.17 Z" stroke="#7f8080" stroke-linecap="round" stroke-linejoin="round" stroke-width="1"/>
      <path d="M -737.67 120.33 L -755.27 119.33 L -767.27 121.73 L -779.67 116.93 L -782.9731 112.15366 L -777.9731 81.15366 L -776.1594 55.078624 L -773.6594 27.078624 L -772.1594 .078624105 L -771.6594 -28.921376 L -770.1594 -55.921376 L -769.6594 -81.42138 L -770.6594 -117.42138 L -771.6594 -150.92138 L -771.6594 -165.92138 L -774.1594 -181.42138 L -776.6594 -196.42138 L -781.1594 -211.92138 L -785.6594 -226.42138 L -790.6594 -239.92138 L -797.1594 -253.42138 L -803.6594 -263.92138 L -807.1594 -270.42138 L -797.9731 -276.84634 L -784.9731 -281.84634 L -771.9731 -285.84634 L -753.6594 -291.42138 L -742.6594 -294.92138 L -737.9731 -295.84634 Z" fill="#8080ff"/>
      <path d="M -737.67 120.33 L -755.27 119.33 L -767.27 121.73 L -779.67 116.93 L -782.9731 112.15366 L -777.9731 81.15366 L -776.1594 55.078624 L -773.6594 27.078624 L -772.1594 .078624105 L -771.6594 -28.921376 L -770.1594 -55.921376 L -769.6594 -81.42138 L -770.6594 -117.42138 L -771.6594 -150.92138 L -771.6594 -165.92138 L -774.1594 -181.42138 L -776.6594 -196.42138 L -781.1594 -211.92138 L -785.6594 -226.42138 L -790.6594 -239.92138 L -797.1594 -253.42138 L -803.6594 -263.92138 L -807.1594 -270.42138 L -797.9731 -276.84634 L -784.9731 -281.84634 L -771.9731 -285.84634 L -753.6594 -291.42138 L -742.6594 -294.92138 L -737.9731 -295.84634 Z" stroke="#7f8080" stroke-linecap="round" stroke-linejoin="round" stroke-width="1"/>
      <path d="M -557.07 120.93 L -540.451 117.27085 L -529.451 116.27085 L -516.451 114.27085 L -512.27 114.53 L -517.451 81.27085 L -520.451 54.27085 L -522.451 27.27085 L -523.67 .33 L -525.27 -28.07 L -526.451 -56.72915 L -526.87 -80.87 L -525.67 -117.87 L -523.87 -150.47 L -520.87 -180.07 L -518.67 -196.27 L -515.27 -212.47 L -510.47 -225.47 L -506.07 -237.67 L -499.47 -251.47 L -492.27 -263.67 L -488.451 -271.72915 L -497.451 -276.72915 L -510.451 -281.72915 L -523.451 -285.72915 L -542.451 -290.72915 L -557.451 -295.72915 Z" fill="#8080ff"/>
      <path d="M -557.07 120.93 L -540.451 117.27085 L -529.451 116.27085 L -516.451 114.27085 L -512.27 114.53 L -517.451 81.27085 L -520.451 54.27085 L -522.451 27.27085 L -523.67 .33 L -525.27 -28.07 L -526.451 -56.72915 L -526.87 -80.87 L -525.67 -117.87 L -523.87 -150.47 L -520.87 -180.07 L -518.67 -196.27 L -515.27 -212.47 L -510.47 -225.47 L -506.07 -237.67 L -499.47 -251.47 L -492.27 -263.67 L -488.451 -271.72915 L -497.451 -276.72915 L -510.451 -281.72915 L -523.451 -285.72915 L -542.451 -290.72915 L -557.451 -295.72915 Z" stroke="#7f8080" stroke-linecap="round" stroke-linejoin="round" stroke-width="1"/>
      <path d="M -713.8256 -312.1062 L -718.5548 -308.05264 C -719.7051 -307.06663 -720.9501 -306.1967 -722.2715 -305.45552 L -724.79814 -304.03836 C -726.2333 -303.2334 -726.8141 -301.46425 -726.1353 -299.96527 L -725.1177 -297.71804 C -724.9961 -297.44955 -724.8694 -297.18343 -724.7376 -296.9198 L -722.9353 -293.31527 L -720.44835 -288.3413 C -720.10655 -287.6577 -719.7309 -286.99157 -719.3228 -286.34538 L -716.9964 -282.66193 C -716.556 -281.96466 -716.0784 -281.2916 -715.5658 -280.64562 L -712.1551 -276.34816 C -711.609 -275.66013 -711.024 -275.00395 -710.4029 -274.38284 L -705.73686 -269.7168 C -705.336 -269.31592 -704.9204 -268.93 -704.491 -268.55982 L -699.9275 -264.62575 C -699.5328 -264.28553 -699.1267 -263.95882 -698.7099 -263.64618 L -694.7349 -260.66497 C -694.069 -260.16554 -693.3765 -259.70262 -692.6604 -259.27827 L -688.5273 -256.82905 C -688.3993 -256.7532 -688.2706 -256.6786 -688.1412 -256.60524 L -683.4436 -253.9433 C -682.7053 -253.52493 -681.94445 -253.14775 -681.1645 -252.81347 L -677.61465 -251.29212 C -677.0287 -251.041 -676.43254 -250.81434 -675.82775 -250.61274 L -670.80964 -248.94004 C -669.5624 -248.5243 -668.2818 -248.21625 -666.9819 -248.0193 L -662.8831 -247.39826 C -662.518 -247.34294 -662.1516 -247.29642 -661.7842 -247.25875 L -654.9031 -246.553 C -654.65794 -246.52785 -654.4124 -246.50664 -654.1665 -246.4894 L -649.6394 -246.1717 C -649.1035 -246.1341 -648.5665 -246.11527 -648.0293 -246.11527 L -644.7673 -246.11527 C -643.8136 -246.11527 -642.8608 -246.1746 -641.91445 -246.29288 L -637.92574 -246.79147 C -637.2658 -246.87396 -636.6097 -246.98505 -635.9594 -247.1244 L -629.8773 -248.4277 C -628.98346 -248.61924 -628.1018 -248.8639 -627.23705 -249.1604 L -622.7282 -250.7063 C -621.93355 -250.97874 -621.1544 -251.29452 -620.3943 -251.6522 L -615.56095 -253.92674 C -615.01075 -254.18566 -614.47104 -254.4663 -613.9431 -254.76798 L -610.1752 -256.92105 C -609.4824 -257.31693 -608.8107 -257.7486 -608.1628 -258.2143 L -603.48666 -261.57525 C -602.986 -261.93512 -602.5 -262.31497 -602.0298 -262.7139 L -596.70895 -267.22856 C -596.32664 -267.55295 -595.95504 -267.88975 -595.59474 -268.23842 L -590.8955 -272.78605 C -590.2559 -273.405 -589.6528 -274.06057 -589.0892 -274.74943 L -585.2959 -279.38567 C -584.7892 -280.00498 -584.31516 -280.65032 -583.8757 -281.31904 L -580.2585 -286.82344 C -580.0431 -287.15127 -579.8361 -287.48456 -579.6377 -287.823 L -577.1146 -292.12708 C -576.72866 -292.78547 -576.3757 -293.46265 -576.0571 -294.15613 L -573.9384 -298.7674 C -573.40554 -299.92716 -573.0344 -301.15457 -572.8353 -302.41527 L -572.8353 -302.41527 C -572.657 -303.54453 -573.2363 -304.65798 -574.2634 -305.1601 L -579.55684 -307.748 C -580.8713 -308.39064 -582.1059 -309.18515 -583.2353 -310.11527 L -583.64134 -310.44963 C -584.4857 -311.14496 -585.1091 -312.07127 -585.4353 -313.11527 L -585.4353 -313.11527 C -585.482 -313.2646 -585.64086 -313.3478 -585.7902 -313.30114 C -585.90525 -313.2652 -585.98496 -313.16032 -585.9888 -313.03982 L -586.09805 -309.6169 C -586.1888 -306.77382 -586.8061 -303.97224 -587.9187 -301.35434 L -588.79566 -299.29096 C -589.3542 -297.9767 -590.034 -296.7173 -590.8261 -295.5291 L -594.5119 -290.00042 C -595.2594 -288.87916 -596.104 -287.82576 -597.036 -286.85238 L -603.33104 -280.27754 C -604.1991 -279.37088 -605.13995 -278.5368 -606.1441 -277.78368 L -614.519 -271.5025 C -615.39544 -270.8452 -616.3177 -270.25133 -617.2788 -269.72547 L -624.464 -265.79394 C -625.7751 -265.07654 -627.153 -264.48863 -628.5782 -264.03857 L -635.2511 -261.93134 C -636.968 -261.38917 -638.7426 -261.05047 -640.53846 -260.9222 L -647.4249 -260.4303 C -648.4972 -260.3537 -649.57355 -260.3524 -650.646 -260.42635 L -659.0823 -261.00817 C -660.1165 -261.0795 -661.14464 -261.22065 -662.1598 -261.43067 L -669.295 -262.90692 C -671.2469 -263.31078 -673.1381 -263.96666 -674.921 -264.8581 L -679.5804 -267.1878 C -680.8145 -267.80486 -681.9906 -268.53173 -683.0945 -269.35962 L -688.7764 -273.6211 C -689.21556 -273.95044 -689.6428 -274.2954 -690.0572 -274.65532 L -695.8124 -279.65324 C -696.6267 -280.3604 -697.3902 -281.12393 -698.0974 -281.9382 L -702.5026 -287.0109 C -703.2567 -287.87926 -703.9446 -288.80296 -704.5605 -289.77422 L -708.2942 -295.662 C -708.6548 -296.23057 -708.9902 -296.8147 -709.2995 -297.41272 L -710.9199 -300.54545 C -711.52905 -301.72312 -712.0352 -302.95127 -712.43276 -304.21616 L -713.713 -308.28965 C -713.9278 -308.97303 -714.1105 -309.66606 -714.2606 -310.3665 L -714.486 -311.41844 C -714.5711 -311.81545 -714.3447 -312.2131 -713.9599 -312.34264 L -713.9599 -312.34264 C -713.8874 -312.36704 -713.8089 -312.32806 -713.7845 -312.25556 C -713.7665 -312.20205 -713.7827 -312.14296 -713.8256 -312.1062 Z" fill="url(#Obj_Gradient_5)"/>
      <path d="M -713.8256 -312.1062 L -718.5548 -308.05264 C -719.7051 -307.06663 -720.9501 -306.1967 -722.2715 -305.45552 L -724.79814 -304.03836 C -726.2333 -303.2334 -726.8141 -301.46425 -726.1353 -299.96527 L -725.1177 -297.71804 C -724.9961 -297.44955 -724.8694 -297.18343 -724.7376 -296.9198 L -722.9353 -293.31527 L -720.44835 -288.3413 C -720.10655 -287.6577 -719.7309 -286.99157 -719.3228 -286.34538 L -716.9964 -282.66193 C -716.556 -281.96466 -716.0784 -281.2916 -715.5658 -280.64562 L -712.1551 -276.34816 C -711.609 -275.66013 -711.024 -275.00395 -710.4029 -274.38284 L -705.73686 -269.7168 C -705.336 -269.31592 -704.9204 -268.93 -704.491 -268.55982 L -699.9275 -264.62575 C -699.5328 -264.28553 -699.1267 -263.95882 -698.7099 -263.64618 L -694.7349 -260.66497 C -694.069 -260.16554 -693.3765 -259.70262 -692.6604 -259.27827 L -688.5273 -256.82905 C -688.3993 -256.7532 -688.2706 -256.6786 -688.1412 -256.60524 L -683.4436 -253.9433 C -682.7053 -253.52493 -681.94445 -253.14775 -681.1645 -252.81347 L -677.61465 -251.29212 C -677.0287 -251.041 -676.43254 -250.81434 -675.82775 -250.61274 L -670.80964 -248.94004 C -669.5624 -248.5243 -668.2818 -248.21625 -666.9819 -248.0193 L -662.8831 -247.39826 C -662.518 -247.34294 -662.1516 -247.29642 -661.7842 -247.25875 L -654.9031 -246.553 C -654.65794 -246.52785 -654.4124 -246.50664 -654.1665 -246.4894 L -649.6394 -246.1717 C -649.1035 -246.1341 -648.5665 -246.11527 -648.0293 -246.11527 L -644.7673 -246.11527 C -643.8136 -246.11527 -642.8608 -246.1746 -641.91445 -246.29288 L -637.92574 -246.79147 C -637.2658 -246.87396 -636.6097 -246.98505 -635.9594 -247.1244 L -629.8773 -248.4277 C -628.98346 -248.61924 -628.1018 -248.8639 -627.23705 -249.1604 L -622.7282 -250.7063 C -621.93355 -250.97874 -621.1544 -251.29452 -620.3943 -251.6522 L -615.56095 -253.92674 C -615.01075 -254.18566 -614.47104 -254.4663 -613.9431 -254.76798 L -610.1752 -256.92105 C -609.4824 -257.31693 -608.8107 -257.7486 -608.1628 -258.2143 L -603.48666 -261.57525 C -602.986 -261.93512 -602.5 -262.31497 -602.0298 -262.7139 L -596.70895 -267.22856 C -596.32664 -267.55295 -595.95504 -267.88975 -595.59474 -268.23842 L -590.8955 -272.78605 C -590.2559 -273.405 -589.6528 -274.06057 -589.0892 -274.74943 L -585.2959 -279.38567 C -584.7892 -280.00498 -584.31516 -280.65032 -583.8757 -281.31904 L -580.2585 -286.82344 C -580.0431 -287.15127 -579.8361 -287.48456 -579.6377 -287.823 L -577.1146 -292.12708 C -576.72866 -292.78547 -576.3757 -293.46265 -576.0571 -294.15613 L -573.9384 -298.7674 C -573.40554 -299.92716 -573.0344 -301.15457 -572.8353 -302.41527 L -572.8353 -302.41527 C -572.657 -303.54453 -573.2363 -304.65798 -574.2634 -305.1601 L -579.55684 -307.748 C -580.8713 -308.39064 -582.1059 -309.18515 -583.2353 -310.11527 L -583.64134 -310.44963 C -584.4857 -311.14496 -585.1091 -312.07127 -585.4353 -313.11527 L -585.4353 -313.11527 C -585.482 -313.2646 -585.64086 -313.3478 -585.7902 -313.30114 C -585.90525 -313.2652 -585.98496 -313.16032 -585.9888 -313.03982 L -586.09805 -309.6169 C -586.1888 -306.77382 -586.8061 -303.97224 -587.9187 -301.35434 L -588.79566 -299.29096 C -589.3542 -297.9767 -590.034 -296.7173 -590.8261 -295.5291 L -594.5119 -290.00042 C -595.2594 -288.87916 -596.104 -287.82576 -597.036 -286.85238 L -603.33104 -280.27754 C -604.1991 -279.37088 -605.13995 -278.5368 -606.1441 -277.78368 L -614.519 -271.5025 C -615.39544 -270.8452 -616.3177 -270.25133 -617.2788 -269.72547 L -624.464 -265.79394 C -625.7751 -265.07654 -627.153 -264.48863 -628.5782 -264.03857 L -635.2511 -261.93134 C -636.968 -261.38917 -638.7426 -261.05047 -640.53846 -260.9222 L -647.4249 -260.4303 C -648.4972 -260.3537 -649.57355 -260.3524 -650.646 -260.42635 L -659.0823 -261.00817 C -660.1165 -261.0795 -661.14464 -261.22065 -662.1598 -261.43067 L -669.295 -262.90692 C -671.2469 -263.31078 -673.1381 -263.96666 -674.921 -264.8581 L -679.5804 -267.1878 C -680.8145 -267.80486 -681.9906 -268.53173 -683.0945 -269.35962 L -688.7764 -273.6211 C -689.21556 -273.95044 -689.6428 -274.2954 -690.0572 -274.65532 L -695.8124 -279.65324 C -696.6267 -280.3604 -697.3902 -281.12393 -698.0974 -281.9382 L -702.5026 -287.0109 C -703.2567 -287.87926 -703.9446 -288.80296 -704.5605 -289.77422 L -708.2942 -295.662 C -708.6548 -296.23057 -708.9902 -296.8147 -709.2995 -297.41272 L -710.9199 -300.54545 C -711.52905 -301.72312 -712.0352 -302.95127 -712.43276 -304.21616 L -713.713 -308.28965 C -713.9278 -308.97303 -714.1105 -309.66606 -714.2606 -310.3665 L -714.486 -311.41844 C -714.5711 -311.81545 -714.3447 -312.2131 -713.9599 -312.34264 L -713.9599 -312.34264 C -713.8874 -312.36704 -713.8089 -312.32806 -713.7845 -312.25556 C -713.7665 -312.20205 -713.7827 -312.14296 -713.8256 -312.1062 Z" stroke="#7f8080" stroke-linecap="round" stroke-linejoin="round" stroke-width="1"/>
      <path d="M -783.0865 113.13 L -783.0865 113.13 C -783.1522 113.65548 -783.0893 114.18905 -782.9034 114.6849 L -782.2524 116.42092 C -782.0756 116.89227 -781.84855 117.34317 -781.5751 117.76581 L -780.6073 119.26152 C -780.0663 120.09755 -779.3532 120.80854 -778.5156 121.34701 L -777.4375 122.04005 C -777.1373 122.23307 -776.8227 122.40284 -776.4965 122.54788 L -775.1797 123.13348 C -774.58315 123.39875 -773.95245 123.57927 -773.3059 123.66979 L -764.2955 124.93125 C -764.2855 124.93265 -764.2755 124.93403 -764.2655 124.93538 L -752.5495 126.52399 C -752.5035 126.53023 -752.4574 126.53601 -752.4113 126.54133 L -742.1284 127.72782 C -742.09645 127.7315 -742.0645 127.73497 -742.0325 127.73821 L -728.3225 129.12909 C -728.2945 129.13193 -728.2665 129.1346 -728.2385 129.1371 L -717.1332 130.12864 C -717.09805 130.13178 -717.0629 130.13465 -717.02775 130.13725 L -706.3412 130.92885 C -706.3007 130.93185 -706.2602 130.9345 -706.2197 130.93679 L -695.7117 131.53158 C -695.6909 131.53276 -695.6701 131.53403 -695.6493 131.5354 L -683.6065 132.32508 C -683.5225 132.3306 -683.4384 132.33459 -683.3543 132.33706 L -669.9071 132.73256 C -669.8894 132.73309 -669.8716 132.73368 -669.85385 132.73433 L -659.21 133.12855 C -659.1237 133.13175 -659.0373 133.13335 -658.9509 133.13335 L -648.3419 133.13335 C -648.30096 133.13335 -648.26 133.1337 -648.2191 133.13442 L -637.1327 133.32892 C -636.9646 133.33187 -636.7965 133.32877 -636.6286 133.31961 L -626.0074 132.74027 C -625.9228 132.73566 -625.8381 132.73258 -625.7534 132.73104 L -614.98884 132.53532 C -614.9166 132.534 -614.8444 132.53157 -614.77225 132.52802 L -602.7536 131.93694 C -602.7049 131.93455 -602.65614 131.93164 -602.60744 131.92822 L -591.3674 131.13945 C -591.30946 131.13538 -591.2516 131.1306 -591.19376 131.12509 L -578.7832 129.94313 C -578.7147 129.93661 -578.6462 129.9311 -578.57755 129.9266 L -566.6455 129.14417 C -566.5355 129.13696 -566.4257 129.12714 -566.31614 129.11474 L -555.9038 127.93599 C -555.88826 127.93423 -555.8727 127.93242 -555.8572 127.93055 L -545.9095 126.73683 C -545.89015 126.7345 -545.8708 126.7321 -545.8515 126.72963 L -532.01575 124.95209 C -531.91854 124.9396 -531.8216 124.92507 -531.725 124.9085 L -525.1715 123.78505 C -524.97054 123.7506 -524.76817 123.72495 -524.56496 123.70816 L -521.3326 123.44119 C -520.4434 123.36774 -519.5764 123.12497 -518.77834 122.72593 L -517.29205 121.98279 C -516.69146 121.6825 -516.1372 121.29735 -515.6463 120.83918 L -514.3112 119.59307 C -513.7044 119.02671 -513.24896 118.31747 -512.9865 117.53 L -512.69165 116.64552 C -512.6216 116.43529 -512.5615 116.22186 -512.5117 116.00594 L -512.042 113.97055 C -512.00676 113.81792 -512.0402 113.65752 -512.1335 113.53167 L -512.1335 113.53167 C -512.2238 113.4098 -512.37446 113.3483 -512.5243 113.37213 L -521.00415 114.7212 C -521.05504 114.7293 -521.10584 114.73796 -521.15654 114.74717 L -534.1413 117.10804 C -534.2341 117.12491 -534.3272 117.1399 -534.4206 117.15301 L -545.65026 118.7291 C -545.6704 118.73193 -545.69055 118.73485 -545.7107 118.73785 L -558.83326 120.69645 C -558.998 120.72104 -559.1636 120.73974 -559.3297 120.75252 L -572.0545 121.73135 C -572.0718 121.73268 -572.08914 121.73395 -572.10646 121.73515 L -586.4466 122.731 C -586.4692 122.73256 -586.4918 122.73402 -586.5144 122.73537 L -599.81764 123.5296 C -599.85954 123.5321 -599.90146 123.53422 -599.9434 123.53597 L -614.13484 124.12728 C -614.2319 124.13132 -614.3291 124.13335 -614.42626 124.13335 L -627.6805 124.13335 L -640.22216 124.13335 C -640.26104 124.13335 -640.2999 124.13367 -640.3388 124.13432 L -652.0972 124.33029 C -652.2194 124.33233 -652.3416 124.33117 -652.4637 124.3268 L -663.2973 123.93989 C -663.4194 123.93553 -663.5416 123.93437 -663.6638 123.9364 L -675.3784 124.13165 C -675.4465 124.13278 -675.5145 124.13292 -675.5826 124.13207 L -691.28485 123.9358 C -691.41525 123.93416 -691.5456 123.92889 -691.6757 123.91998 L -705.9855 122.93986 C -706.0488 122.93552 -706.1121 122.93032 -706.1753 122.92426 L -720.6663 121.5347 C -720.6758 121.5338 -720.6852 121.53287 -720.6947 121.53193 L -734.5067 120.15073 C -734.6225 120.13914 -734.7381 120.12467 -734.8532 120.10732 L -749.16235 117.95115 C -749.2411 117.93928 -749.3201 117.92876 -749.3992 117.91959 L -762.9191 116.35206 C -763.0267 116.33959 -763.13395 116.32462 -763.2408 116.30717 L -772.6329 114.77377 C -772.7979 114.74683 -772.9619 114.71399 -773.1245 114.67531 L -782.2021 112.51653 C -782.59045 112.42418 -782.9801 112.66412 -783.07245 113.05243 C -783.0785 113.07802 -783.0832 113.10391 -783.0865 113.13 Z" fill="url(#Obj_Gradient_6)"/>
      <path d="M -783.0865 113.13 L -783.0865 113.13 C -783.1522 113.65548 -783.0893 114.18905 -782.9034 114.6849 L -782.2524 116.42092 C -782.0756 116.89227 -781.84855 117.34317 -781.5751 117.76581 L -780.6073 119.26152 C -780.0663 120.09755 -779.3532 120.80854 -778.5156 121.34701 L -777.4375 122.04005 C -777.1373 122.23307 -776.8227 122.40284 -776.4965 122.54788 L -775.1797 123.13348 C -774.58315 123.39875 -773.95245 123.57927 -773.3059 123.66979 L -764.2955 124.93125 C -764.2855 124.93265 -764.2755 124.93403 -764.2655 124.93538 L -752.5495 126.52399 C -752.5035 126.53023 -752.4574 126.53601 -752.4113 126.54133 L -742.1284 127.72782 C -742.09645 127.7315 -742.0645 127.73497 -742.0325 127.73821 L -728.3225 129.12909 C -728.2945 129.13193 -728.2665 129.1346 -728.2385 129.1371 L -717.1332 130.12864 C -717.09805 130.13178 -717.0629 130.13465 -717.02775 130.13725 L -706.3412 130.92885 C -706.3007 130.93185 -706.2602 130.9345 -706.2197 130.93679 L -695.7117 131.53158 C -695.6909 131.53276 -695.6701 131.53403 -695.6493 131.5354 L -683.6065 132.32508 C -683.5225 132.3306 -683.4384 132.33459 -683.3543 132.33706 L -669.9071 132.73256 C -669.8894 132.73309 -669.8716 132.73368 -669.85385 132.73433 L -659.21 133.12855 C -659.1237 133.13175 -659.0373 133.13335 -658.9509 133.13335 L -648.3419 133.13335 C -648.30096 133.13335 -648.26 133.1337 -648.2191 133.13442 L -637.1327 133.32892 C -636.9646 133.33187 -636.7965 133.32877 -636.6286 133.31961 L -626.0074 132.74027 C -625.9228 132.73566 -625.8381 132.73258 -625.7534 132.73104 L -614.98884 132.53532 C -614.9166 132.534 -614.8444 132.53157 -614.77225 132.52802 L -602.7536 131.93694 C -602.7049 131.93455 -602.65614 131.93164 -602.60744 131.92822 L -591.3674 131.13945 C -591.30946 131.13538 -591.2516 131.1306 -591.19376 131.12509 L -578.7832 129.94313 C -578.7147 129.93661 -578.6462 129.9311 -578.57755 129.9266 L -566.6455 129.14417 C -566.5355 129.13696 -566.4257 129.12714 -566.31614 129.11474 L -555.9038 127.93599 C -555.88826 127.93423 -555.8727 127.93242 -555.8572 127.93055 L -545.9095 126.73683 C -545.89015 126.7345 -545.8708 126.7321 -545.8515 126.72963 L -532.01575 124.95209 C -531.91854 124.9396 -531.8216 124.92507 -531.725 124.9085 L -525.1715 123.78505 C -524.97054 123.7506 -524.76817 123.72495 -524.56496 123.70816 L -521.3326 123.44119 C -520.4434 123.36774 -519.5764 123.12497 -518.77834 122.72593 L -517.29205 121.98279 C -516.69146 121.6825 -516.1372 121.29735 -515.6463 120.83918 L -514.3112 119.59307 C -513.7044 119.02671 -513.24896 118.31747 -512.9865 117.53 L -512.69165 116.64552 C -512.6216 116.43529 -512.5615 116.22186 -512.5117 116.00594 L -512.042 113.97055 C -512.00676 113.81792 -512.0402 113.65752 -512.1335 113.53167 L -512.1335 113.53167 C -512.2238 113.4098 -512.37446 113.3483 -512.5243 113.37213 L -521.00415 114.7212 C -521.05504 114.7293 -521.10584 114.73796 -521.15654 114.74717 L -534.1413 117.10804 C -534.2341 117.12491 -534.3272 117.1399 -534.4206 117.15301 L -545.65026 118.7291 C -545.6704 118.73193 -545.69055 118.73485 -545.7107 118.73785 L -558.83326 120.69645 C -558.998 120.72104 -559.1636 120.73974 -559.3297 120.75252 L -572.0545 121.73135 C -572.0718 121.73268 -572.08914 121.73395 -572.10646 121.73515 L -586.4466 122.731 C -586.4692 122.73256 -586.4918 122.73402 -586.5144 122.73537 L -599.81764 123.5296 C -599.85954 123.5321 -599.90146 123.53422 -599.9434 123.53597 L -614.13484 124.12728 C -614.2319 124.13132 -614.3291 124.13335 -614.42626 124.13335 L -627.6805 124.13335 L -640.22216 124.13335 C -640.26104 124.13335 -640.2999 124.13367 -640.3388 124.13432 L -652.0972 124.33029 C -652.2194 124.33233 -652.3416 124.33117 -652.4637 124.3268 L -663.2973 123.93989 C -663.4194 123.93553 -663.5416 123.93437 -663.6638 123.9364 L -675.3784 124.13165 C -675.4465 124.13278 -675.5145 124.13292 -675.5826 124.13207 L -691.28485 123.9358 C -691.41525 123.93416 -691.5456 123.92889 -691.6757 123.91998 L -705.9855 122.93986 C -706.0488 122.93552 -706.1121 122.93032 -706.1753 122.92426 L -720.6663 121.5347 C -720.6758 121.5338 -720.6852 121.53287 -720.6947 121.53193 L -734.5067 120.15073 C -734.6225 120.13914 -734.7381 120.12467 -734.8532 120.10732 L -749.16235 117.95115 C -749.2411 117.93928 -749.3201 117.92876 -749.3992 117.91959 L -762.9191 116.35206 C -763.0267 116.33959 -763.13395 116.32462 -763.2408 116.30717 L -772.6329 114.77377 C -772.7979 114.74683 -772.9619 114.71399 -773.1245 114.67531 L -782.2021 112.51653 C -782.59045 112.42418 -782.9801 112.66412 -783.07245 113.05243 C -783.0785 113.07802 -783.0832 113.10391 -783.0865 113.13 Z" stroke="#7f8080" stroke-linecap="round" stroke-linejoin="round" stroke-width="1"/>
    </g>
  </g>
</svg>
