<?xml version="1.0" encoding="UTF-8" standalone="no"?>
<!DOCTYPE svg PUBLIC "-//W3C//DTD SVG 1.1//EN" "http://www.w3.org/Graphics/SVG/1.1/DTD/svg11.dtd">
<svg xmlns="http://www.w3.org/2000/svg" xmlns:xl="http://www.w3.org/1999/xlink" version="1.1" viewBox="-480.5 -408.5 432.4053 448.4" width="432.4053pt" height="448.4pt" xmlns:dc="http://purl.org/dc/elements/1.1/">
  <metadata> Produced by OmniGraffle 7.6.1 
    <dc:date>2020-02-17 19:22:20 +0000</dc:date>
  </metadata>
  <defs>
    <radialGradient cx="0" cy="0" r="1" id="Gradient" gradientUnits="userSpaceOnUse">
      <stop offset="0" stop-color="#cbcbcb"/>
      <stop offset="1" stop-color="#0f74e9"/>
    </radialGradient>
    <radialGradient id="Obj_Gradient" xl:href="#Gradient" gradientTransform="translate(-265.24075 -380.6) scale(70.26272)"/>
    <radialGradient cx="0" cy="0" r="1" id="Gradient_2" gradientUnits="userSpaceOnUse">
      <stop offset="0" stop-color="#191ab4"/>
      <stop offset="1" stop-color="#3a8eed"/>
    </radialGradient>
    <radialGradient id="Obj_Gradient_2" xl:href="#Gradient_2" gradientTransform="translate(-437.8 -244.75385) scale(46.03694)"/>
    <radialGradient id="Obj_Gradient_3" xl:href="#Gradient_2" gradientTransform="translate(-90.79471 -245.69725) scale(46.03694)"/>
  </defs>
  <g stroke="none" stroke-opacity="1" stroke-dasharray="none" fill="none" fill-opacity="1">
    <title>porto</title>
    <rect fill="white" width="432.4053" height="448.4"/>
    <g>
      <title>Layer 1</title>
      <path d="M -326.99435 -407.40955 L -318.8289 -404.29184 C -317.9709 -403.96424 -317.09406 -403.68833 -316.20308 -403.4656 L -302.4859 -400.0363 C -301.32424 -399.74587 -300.14168 -399.5466 -298.949 -399.44034 L -281.42285 -397.8786 C -280.835 -397.8262 -280.24536 -397.7965 -279.65522 -397.78946 L -264.1763 -397.6052 C -263.88596 -397.60173 -263.59558 -397.60377 -263.3053 -397.6113 L -248.882 -397.98594 C -248.52122 -397.9953 -248.1607 -398.01317 -247.80076 -398.0395 L -233.42947 -399.09107 C -232.43803 -399.1636 -231.45234 -399.30036 -230.4786 -399.50044 L -218.90564 -401.87845 C -217.86363 -402.09256 -216.83774 -402.3787 -215.83535 -402.7348 L -204.08336 -406.90986 C -202.99298 -407.29723 -201.78979 -406.76646 -201.34075 -405.7 L -201.34075 -405.7 C -200.8186 -404.4599 -200.66662 -403.09515 -200.90315 -401.77055 L -201.08363 -400.75986 C -201.3874 -399.0587 -201.88194 -397.3972 -202.55786 -395.8068 L -204.10108 -392.1757 C -204.65965 -390.8614 -205.3394 -389.60202 -206.13154 -388.4138 L -209.81732 -382.88515 C -210.56483 -381.7639 -211.40943 -380.7105 -212.3414 -379.7371 L -218.63646 -373.16226 C -219.50453 -372.2556 -220.44537 -371.42154 -221.44954 -370.6684 L -229.82445 -364.38723 C -230.70086 -363.7299 -231.62312 -363.13606 -232.58418 -362.6102 L -239.76938 -358.67867 C -241.0805 -357.96126 -242.45844 -357.37336 -243.88362 -356.9233 L -250.55653 -354.81607 C -252.2734 -354.2739 -254.048 -353.9352 -255.84387 -353.8069 L -262.73032 -353.31503 C -263.80262 -353.23844 -264.87897 -353.2371 -265.95146 -353.3111 L -274.3877 -353.8929 C -275.4219 -353.9642 -276.45006 -354.10537 -277.4652 -354.3154 L -284.6004 -355.79165 C -286.55235 -356.1955 -288.44353 -356.8514 -290.22638 -357.7428 L -294.8858 -360.0725 C -296.11993 -360.6896 -297.29603 -361.41646 -298.39988 -362.24434 L -304.08184 -366.5058 C -304.52097 -366.83517 -304.94818 -367.18013 -305.36263 -367.54005 L -311.1178 -372.53797 C -311.9321 -373.2451 -312.69564 -374.00865 -313.40278 -374.82294 L -317.808 -379.89562 C -318.5621 -380.764 -319.25 -381.6877 -319.86594 -382.65895 L -323.59964 -388.5467 C -323.9602 -389.1153 -324.29563 -389.69944 -324.60495 -390.29745 L -326.22532 -393.43017 C -326.83447 -394.60785 -327.34064 -395.836 -327.73817 -397.1009 L -329.0184 -401.1744 C -329.2332 -401.85775 -329.41592 -402.5508 -329.566 -403.2512 L -329.64075 -403.6 C -329.8354 -404.50843 -329.72815 -405.45557 -329.33527 -406.29746 L -329.24075 -406.5 C -328.84628 -407.3453 -327.8658 -407.7423 -326.99435 -407.40955 Z" fill="url(#Obj_Gradient)"/>
      <path d="M -326.99435 -407.40955 L -318.8289 -404.29184 C -317.9709 -403.96424 -317.09406 -403.68833 -316.20308 -403.4656 L -302.4859 -400.0363 C -301.32424 -399.74587 -300.14168 -399.5466 -298.949 -399.44034 L -281.42285 -397.8786 C -280.835 -397.8262 -280.24536 -397.7965 -279.65522 -397.78946 L -264.1763 -397.6052 C -263.88596 -397.60173 -263.59558 -397.60377 -263.3053 -397.6113 L -248.882 -397.98594 C -248.52122 -397.9953 -248.1607 -398.01317 -247.80076 -398.0395 L -233.42947 -399.09107 C -232.43803 -399.1636 -231.45234 -399.30036 -230.4786 -399.50044 L -218.90564 -401.87845 C -217.86363 -402.09256 -216.83774 -402.3787 -215.83535 -402.7348 L -204.08336 -406.90986 C -202.99298 -407.29723 -201.78979 -406.76646 -201.34075 -405.7 L -201.34075 -405.7 C -200.8186 -404.4599 -200.66662 -403.09515 -200.90315 -401.77055 L -201.08363 -400.75986 C -201.3874 -399.0587 -201.88194 -397.3972 -202.55786 -395.8068 L -204.10108 -392.1757 C -204.65965 -390.8614 -205.3394 -389.60202 -206.13154 -388.4138 L -209.81732 -382.88515 C -210.56483 -381.7639 -211.40943 -380.7105 -212.3414 -379.7371 L -218.63646 -373.16226 C -219.50453 -372.2556 -220.44537 -371.42154 -221.44954 -370.6684 L -229.82445 -364.38723 C -230.70086 -363.7299 -231.62312 -363.13606 -232.58418 -362.6102 L -239.76938 -358.67867 C -241.0805 -357.96126 -242.45844 -357.37336 -243.88362 -356.9233 L -250.55653 -354.81607 C -252.2734 -354.2739 -254.048 -353.9352 -255.84387 -353.8069 L -262.73032 -353.31503 C -263.80262 -353.23844 -264.87897 -353.2371 -265.95146 -353.3111 L -274.3877 -353.8929 C -275.4219 -353.9642 -276.45006 -354.10537 -277.4652 -354.3154 L -284.6004 -355.79165 C -286.55235 -356.1955 -288.44353 -356.8514 -290.22638 -357.7428 L -294.8858 -360.0725 C -296.11993 -360.6896 -297.29603 -361.41646 -298.39988 -362.24434 L -304.08184 -366.5058 C -304.52097 -366.83517 -304.94818 -367.18013 -305.36263 -367.54005 L -311.1178 -372.53797 C -311.9321 -373.2451 -312.69564 -374.00865 -313.40278 -374.82294 L -317.808 -379.89562 C -318.5621 -380.764 -319.25 -381.6877 -319.86594 -382.65895 L -323.59964 -388.5467 C -323.9602 -389.1153 -324.29563 -389.69944 -324.60495 -390.29745 L -326.22532 -393.43017 C -326.83447 -394.60785 -327.34064 -395.836 -327.73817 -397.1009 L -329.0184 -401.1744 C -329.2332 -401.85775 -329.41592 -402.5508 -329.566 -403.2512 L -329.64075 -403.6 C -329.8354 -404.50843 -329.72815 -405.45557 -329.33527 -406.29746 L -329.24075 -406.5 C -328.84628 -407.3453 -327.8658 -407.7423 -326.99435 -407.40955 Z" stroke="#7f8080" stroke-linecap="round" stroke-linejoin="round" stroke-width="1"/>
      <path d="M -391.02654 29.263786 L -377.2843 31.55416 C -377.10093 31.58472 -376.91703 31.612086 -376.7327 31.63624 L -348.37906 35.351545 C -348.13253 35.38385 -347.8853 35.4104 -347.6375 35.43118 L -317.39463 37.96768 C -317.13773 37.98923 -316.88034 38.004563 -316.6227 38.01367 L -277.69178 39.390017 C -277.50342 39.396676 -277.31496 39.400007 -277.12648 39.400007 L -245.65916 39.400007 C -245.49254 39.400007 -245.32593 39.397404 -245.1594 39.3922 L -220.1246 38.609863 C -219.91437 38.603293 -219.70427 38.592577 -219.49445 38.577723 L -197.4467 37.01682 C -197.28839 37.00561 -197.13025 36.99205 -196.97234 36.976135 L -171.71185 34.430505 C -171.51011 34.410175 -171.30878 34.38601 -171.10796 34.358028 L -147.31526 31.042652 C -147.11125 31.014224 -146.9078 30.98186 -146.70504 30.945576 L -137.50921 29.300007 C -132.18211 28.346735 -128.53124 23.39309 -129.19766 18.022553 L -131.40525 .23198166 C -131.40789 .21066463 -131.4105 .1893423 -131.41305 .16801478 L -134.97688 -29.530513 C -134.99843 -29.710154 -135.01694 -29.89015 -135.0324 -30.070418 L -137.39461 -57.62963 C -137.40435 -57.7432 -137.41287 -57.85688 -137.42017 -57.970635 L -138.8068 -79.56228 C -138.8084 -79.58742 -138.81008 -79.61256 -138.81182 -79.6377 L -140.40397 -102.72401 C -140.40747 -102.77467 -140.41072 -102.82534 -140.41373 -102.87602 L -141.5901 -122.67819 C -141.60284 -122.8927 -141.61126 -123.10745 -141.61535 -123.32231 L -142.00764 -143.91715 C -142.00869 -143.97238 -142.01003 -144.0276 -142.01165 -144.08282 L -142.60678 -164.31717 C -142.6084 -164.37239 -142.60974 -164.42761 -142.6108 -164.48285 L -143.00145 -184.99239 C -143.00663 -185.26408 -143.00488 -185.53587 -142.99621 -185.80747 L -142.41027 -204.16708 C -142.40956 -204.18903 -142.40882 -204.21097 -142.40803 -204.2329 L -141.61995 -226.10221 C -141.6128 -226.30072 -141.60194 -226.49907 -141.5874 -226.69717 L -140.02993 -247.9178 C -140.01612 -248.1059 -140.00564 -248.29427 -139.9985 -248.48276 L -139.24404 -268.38163 C -139.22085 -268.99337 -139.16256 -269.60328 -139.06948 -270.20835 L -136.33047 -288.01187 C -136.24969 -288.53696 -136.1428 -289.0577 -136.0102 -289.57217 L -131.38194 -307.52983 C -131.26684 -307.9764 -131.1325 -308.4178 -130.97927 -308.85275 L -125.25848 -325.0924 C -125.0924 -325.56387 -124.9043 -326.0273 -124.69483 -326.48117 L -119.16327 -338.4662 C -119.06058 -338.6887 -118.95279 -338.9088 -118.83999 -339.12636 L -113.47777 -349.4678 C -113.43207 -349.55593 -113.38554 -349.64364 -113.33821 -349.7309 L -108.12223 -359.3479 C -107.38495 -360.70724 -106.43532 -361.94013 -105.30921 -363 L -105.30921 -363 C -104.63402 -363.63547 -104.60183 -364.69797 -105.2373 -365.37316 C -105.3618 -365.50544 -105.50693 -365.61663 -105.66705 -365.7024 L -108.88119 -367.42427 C -109.09984 -367.5414 -109.32119 -367.65344 -109.54506 -367.7603 L -117.39903 -371.50878 C -117.80564 -371.70284 -118.22026 -371.87964 -118.64179 -372.0387 L -128.31662 -375.6896 C -128.51167 -375.7632 -128.70813 -375.83297 -128.9059 -375.8989 L -141.60037 -380.1304 C -141.7396 -380.1768 -141.87945 -380.2213 -142.0199 -380.26384 L -154.90342 -384.16794 C -154.97395 -384.1893 -155.04433 -384.21117 -155.11456 -384.2335 L -167.61856 -388.21206 C -168.01218 -388.3373 -168.4008 -388.47775 -168.78357 -388.63307 L -180.75951 -393.49287 C -181.59117 -393.83036 -182.39296 -394.23723 -183.1564 -394.70917 L -192.77564 -400.6556 C -192.93135 -400.75186 -193.08539 -400.8508 -193.2377 -400.9523 L -198.1278 -404.2124 C -199.10919 -404.86665 -199.9805 -405.67255 -200.70922 -406.6 L -200.70922 -406.6 C -200.81482 -406.7344 -201.00938 -406.75775 -201.1438 -406.65215 C -201.24653 -406.5714 -201.2875 -406.43487 -201.2462 -406.3109 L -201.10922 -405.9 C -200.64997 -404.52225 -200.5454 -403.05096 -200.8052 -401.6221 L -201.20033 -399.44885 C -201.47155 -397.9572 -201.9534 -396.51165 -202.63142 -395.1556 L -204.16374 -392.09096 C -204.46044 -391.49756 -204.79376 -390.9232 -205.16177 -390.37117 L -208.36547 -385.5656 C -208.79407 -384.9227 -209.26868 -384.3117 -209.78557 -383.7374 L -214.34762 -378.66844 C -214.38868 -378.6228 -214.43 -378.5774 -214.4716 -378.53227 L -220.46583 -372.02424 C -221.09357 -371.3427 -221.77932 -370.717 -222.51535 -370.15413 L -227.53953 -366.3121 C -227.98568 -365.97094 -228.44948 -365.6535 -228.929 -365.3611 L -235.41542 -361.40597 C -236.07708 -361.00252 -236.76717 -360.64768 -237.48025 -360.34424 L -244.59566 -357.3164 C -245.40333 -356.9727 -246.2379 -356.69607 -247.09095 -356.48928 L -251.17 -355.5004 C -251.99484 -355.30045 -252.83427 -355.16644 -253.68037 -355.09965 L -259.38057 -354.64963 C -259.7995 -354.61656 -260.21958 -354.6 -260.6398 -354.6 L -267.67213 -354.6 C -268.42923 -354.6 -269.18538 -354.65374 -269.93487 -354.7608 L -277.88132 -355.896 C -278.36633 -355.9653 -278.8479 -356.05683 -279.3245 -356.1703 L -285.28574 -357.58965 C -286.43122 -357.8624 -287.5431 -358.26073 -288.60117 -358.77747 L -294.88118 -361.84444 C -295.36623 -362.08133 -295.83898 -362.3426 -296.2976 -362.6273 L -300.50948 -365.24154 C -301.10865 -365.61344 -301.68258 -366.02454 -302.2275 -366.47216 L -306.6736 -370.12432 C -306.8973 -370.30807 -307.11598 -370.49786 -307.32937 -370.69348 L -311.1317 -374.17896 C -311.583 -374.59264 -312.0102 -375.0319 -312.41115 -375.49454 L -316.5299 -380.24693 C -316.84928 -380.61545 -317.15164 -380.9984 -317.43605 -381.3945 L -321.8657 -387.5644 C -322.3606 -388.2537 -322.79987 -388.9813 -323.17936 -389.7403 L -325.75582 -394.8932 C -325.7914 -394.9644 -325.8265 -395.03586 -325.861 -395.10758 L -327.1092 -397.7 C -327.95993 -399.46687 -328.31545 -401.4314 -328.1379 -403.38436 L -327.9577 -405.3666 C -327.9339 -405.62848 -328.1269 -405.86006 -328.38875 -405.88386 C -328.55114 -405.8986 -328.7098 -405.82925 -328.8092 -405.7 L -328.8092 -405.7 C -329.47266 -404.8375 -330.25277 -404.07144 -331.12715 -403.42375 L -335.0237 -400.53743 C -335.14737 -400.4458 -335.27237 -400.356 -335.39864 -400.268 L -340.0209 -397.0464 C -341.20763 -396.2193 -342.50105 -395.55692 -343.8658 -395.0774 L -348.47292 -393.4587 C -348.9635 -393.28633 -349.44537 -393.09016 -349.91684 -392.87087 L -356.76362 -389.68632 C -357.4598 -389.36253 -358.17835 -389.08926 -358.91375 -388.86864 L -369.78414 -385.60752 C -369.80086 -385.6025 -369.81757 -385.59746 -369.83428 -385.5924 L -380.80236 -382.2628 C -380.94026 -382.22093 -381.0776 -382.1772 -381.2143 -382.13164 L -394.13554 -377.82456 C -394.18466 -377.8082 -394.23386 -377.79205 -394.28314 -377.77616 L -405.65054 -374.10925 C -406.28903 -373.9033 -406.91393 -373.65737 -407.52154 -373.37296 L -415.4535 -369.6601 C -415.82384 -369.48677 -416.1874 -369.2993 -416.5434 -369.0981 L -422.4895 -365.73724 C -423.74253 -365.029 -424.18417 -363.43907 -423.47594 -362.18604 C -423.3988 -362.0496 -423.30955 -361.9204 -423.2092 -361.8 L -422.3451 -360.76307 C -421.59016 -359.85713 -420.9377 -358.8705 -420.39957 -357.8212 L -417.32243 -351.82076 C -417.24696 -351.6736 -417.1692 -351.5276 -417.0892 -351.38285 L -413.13446 -344.22663 C -413.05097 -344.07555 -412.96993 -343.92313 -412.89137 -343.76943 L -408.78307 -335.73144 C -408.534 -335.24413 -408.3101 -334.74437 -408.11224 -334.2341 L -404.62947 -325.25224 C -404.61597 -325.2174 -404.60235 -325.18263 -404.5886 -325.1479 L -400.99228 -316.06246 C -400.87027 -315.75423 -400.75787 -315.44228 -400.65524 -315.12706 L -398.0334 -307.0743 C -398.0173 -307.02476 -398.0014 -306.97516 -397.98576 -306.92548 L -394.9137 -297.1672 C -394.7109 -296.52305 -394.5491 -295.8667 -394.42927 -295.2021 L -392.44395 -284.19263 C -392.4208 -284.0642 -392.3992 -283.93552 -392.3792 -283.80658 L -390.67334 -272.8132 C -390.6306 -272.53778 -390.59506 -272.2613 -390.56677 -271.98402 L -389.67935 -263.2873 C -389.6326 -262.8293 -389.60567 -262.36952 -389.5986 -261.9092 L -389.41435 -249.9336 C -389.41093 -249.71122 -389.40287 -249.48895 -389.3902 -249.2669 L -388.6198 -235.78535 C -388.61275 -235.6618 -388.60425 -235.5383 -388.59433 -235.41494 L -387.26076 -218.84057 C -387.2264 -218.4137 -387.2092 -217.9856 -387.2092 -217.55736 L -387.2092 -205.10758 C -387.2092 -204.90254 -387.2053 -204.69753 -387.1974 -204.49265 L -386.61705 -189.4035 C -386.61183 -189.26784 -386.60834 -189.1321 -386.60657 -188.99635 L -386.4144 -174.2001 C -386.41095 -173.9334 -386.41416 -173.66667 -386.42403 -173.40014 L -386.99826 -157.89599 C -387.00556 -157.69868 -387.0092 -157.50125 -387.0092 -157.3038 L -387.0092 -143.70757 C -387.0092 -143.50254 -387.01316 -143.29753 -387.02104 -143.09264 L -387.60623 -127.87764 C -387.6082 -127.82588 -387.61047 -127.77412 -387.61296 -127.72238 L -388.4083 -111.21945 C -388.4089 -111.20648 -388.40955 -111.19351 -388.4102 -111.18055 L -389.2047 -95.48938 C -389.2077 -95.42979 -389.21106 -95.37022 -389.21474 -95.31067 L -390.40366 -76.08993 C -390.40736 -76.029975 -390.4114 -75.97004 -390.4158 -75.91013 L -392.19893 -51.54058 C -392.2058 -51.44686 -392.21347 -51.3532 -392.222 -51.259615 L -394.00787 -31.614803 C -394.00877 -31.60493 -394.00968 -31.59506 -394.0106 -31.585188 L -395.78136 -12.500283 C -395.79993 -12.300108 -395.82227 -12.100301 -395.8484 -11.900969 L -397.8091 3.0717495 C -397.9419 4.0859435 -398.21104 5.077562 -398.6092 6.0197314 L -398.6092 6.0197314 C -399.0068 6.9604775 -399.25546 7.957393 -399.3463 8.974655 L -400.1092 17.519732 C -400.61698 23.20676 -396.6585 28.325125 -391.02654 29.263786 Z" fill="white"/>
      <path d="M -391.02654 29.263786 L -377.2843 31.55416 C -377.10093 31.58472 -376.91703 31.612086 -376.7327 31.63624 L -348.37906 35.351545 C -348.13253 35.38385 -347.8853 35.4104 -347.6375 35.43118 L -317.39463 37.96768 C -317.13773 37.98923 -316.88034 38.004563 -316.6227 38.01367 L -277.69178 39.390017 C -277.50342 39.396676 -277.31496 39.400007 -277.12648 39.400007 L -245.65916 39.400007 C -245.49254 39.400007 -245.32593 39.397404 -245.1594 39.3922 L -220.1246 38.609863 C -219.91437 38.603293 -219.70427 38.592577 -219.49445 38.577723 L -197.4467 37.01682 C -197.28839 37.00561 -197.13025 36.99205 -196.97234 36.976135 L -171.71185 34.430505 C -171.51011 34.410175 -171.30878 34.38601 -171.10796 34.358028 L -147.31526 31.042652 C -147.11125 31.014224 -146.9078 30.98186 -146.70504 30.945576 L -137.50921 29.300007 C -132.18211 28.346735 -128.53124 23.39309 -129.19766 18.022553 L -131.40525 .23198166 C -131.40789 .21066463 -131.4105 .1893423 -131.41305 .16801478 L -134.97688 -29.530513 C -134.99843 -29.710154 -135.01694 -29.89015 -135.0324 -30.070418 L -137.39461 -57.62963 C -137.40435 -57.7432 -137.41287 -57.85688 -137.42017 -57.970635 L -138.8068 -79.56228 C -138.8084 -79.58742 -138.81008 -79.61256 -138.81182 -79.6377 L -140.40397 -102.72401 C -140.40747 -102.77467 -140.41072 -102.82534 -140.41373 -102.87602 L -141.5901 -122.67819 C -141.60284 -122.8927 -141.61126 -123.10745 -141.61535 -123.32231 L -142.00764 -143.91715 C -142.00869 -143.97238 -142.01003 -144.0276 -142.01165 -144.08282 L -142.60678 -164.31717 C -142.6084 -164.37239 -142.60974 -164.42761 -142.6108 -164.48285 L -143.00145 -184.99239 C -143.00663 -185.26408 -143.00488 -185.53587 -142.99621 -185.80747 L -142.41027 -204.16708 C -142.40956 -204.18903 -142.40882 -204.21097 -142.40803 -204.2329 L -141.61995 -226.10221 C -141.6128 -226.30072 -141.60194 -226.49907 -141.5874 -226.69717 L -140.02993 -247.9178 C -140.01612 -248.1059 -140.00564 -248.29427 -139.9985 -248.48276 L -139.24404 -268.38163 C -139.22085 -268.99337 -139.16256 -269.60328 -139.06948 -270.20835 L -136.33047 -288.01187 C -136.24969 -288.53696 -136.1428 -289.0577 -136.0102 -289.57217 L -131.38194 -307.52983 C -131.26684 -307.9764 -131.1325 -308.4178 -130.97927 -308.85275 L -125.25848 -325.0924 C -125.0924 -325.56387 -124.9043 -326.0273 -124.69483 -326.48117 L -119.16327 -338.4662 C -119.06058 -338.6887 -118.95279 -338.9088 -118.83999 -339.12636 L -113.47777 -349.4678 C -113.43207 -349.55593 -113.38554 -349.64364 -113.33821 -349.7309 L -108.12223 -359.3479 C -107.38495 -360.70724 -106.43532 -361.94013 -105.30921 -363 L -105.30921 -363 C -104.63402 -363.63547 -104.60183 -364.69797 -105.2373 -365.37316 C -105.3618 -365.50544 -105.50693 -365.61663 -105.66705 -365.7024 L -108.88119 -367.42427 C -109.09984 -367.5414 -109.32119 -367.65344 -109.54506 -367.7603 L -117.39903 -371.50878 C -117.80564 -371.70284 -118.22026 -371.87964 -118.64179 -372.0387 L -128.31662 -375.6896 C -128.51167 -375.7632 -128.70813 -375.83297 -128.9059 -375.8989 L -141.60037 -380.1304 C -141.7396 -380.1768 -141.87945 -380.2213 -142.0199 -380.26384 L -154.90342 -384.16794 C -154.97395 -384.1893 -155.04433 -384.21117 -155.11456 -384.2335 L -167.61856 -388.21206 C -168.01218 -388.3373 -168.4008 -388.47775 -168.78357 -388.63307 L -180.75951 -393.49287 C -181.59117 -393.83036 -182.39296 -394.23723 -183.1564 -394.70917 L -192.77564 -400.6556 C -192.93135 -400.75186 -193.08539 -400.8508 -193.2377 -400.9523 L -198.1278 -404.2124 C -199.10919 -404.86665 -199.9805 -405.67255 -200.70922 -406.6 L -200.70922 -406.6 C -200.81482 -406.7344 -201.00938 -406.75775 -201.1438 -406.65215 C -201.24653 -406.5714 -201.2875 -406.43487 -201.2462 -406.3109 L -201.10922 -405.9 C -200.64997 -404.52225 -200.5454 -403.05096 -200.8052 -401.6221 L -201.20033 -399.44885 C -201.47155 -397.9572 -201.9534 -396.51165 -202.63142 -395.1556 L -204.16374 -392.09096 C -204.46044 -391.49756 -204.79376 -390.9232 -205.16177 -390.37117 L -208.36547 -385.5656 C -208.79407 -384.9227 -209.26868 -384.3117 -209.78557 -383.7374 L -214.34762 -378.66844 C -214.38868 -378.6228 -214.43 -378.5774 -214.4716 -378.53227 L -220.46583 -372.02424 C -221.09357 -371.3427 -221.77932 -370.717 -222.51535 -370.15413 L -227.53953 -366.3121 C -227.98568 -365.97094 -228.44948 -365.6535 -228.929 -365.3611 L -235.41542 -361.40597 C -236.07708 -361.00252 -236.76717 -360.64768 -237.48025 -360.34424 L -244.59566 -357.3164 C -245.40333 -356.9727 -246.2379 -356.69607 -247.09095 -356.48928 L -251.17 -355.5004 C -251.99484 -355.30045 -252.83427 -355.16644 -253.68037 -355.09965 L -259.38057 -354.64963 C -259.7995 -354.61656 -260.21958 -354.6 -260.6398 -354.6 L -267.67213 -354.6 C -268.42923 -354.6 -269.18538 -354.65374 -269.93487 -354.7608 L -277.88132 -355.896 C -278.36633 -355.9653 -278.8479 -356.05683 -279.3245 -356.1703 L -285.28574 -357.58965 C -286.43122 -357.8624 -287.5431 -358.26073 -288.60117 -358.77747 L -294.88118 -361.84444 C -295.36623 -362.08133 -295.83898 -362.3426 -296.2976 -362.6273 L -300.50948 -365.24154 C -301.10865 -365.61344 -301.68258 -366.02454 -302.2275 -366.47216 L -306.6736 -370.12432 C -306.8973 -370.30807 -307.11598 -370.49786 -307.32937 -370.69348 L -311.1317 -374.17896 C -311.583 -374.59264 -312.0102 -375.0319 -312.41115 -375.49454 L -316.5299 -380.24693 C -316.84928 -380.61545 -317.15164 -380.9984 -317.43605 -381.3945 L -321.8657 -387.5644 C -322.3606 -388.2537 -322.79987 -388.9813 -323.17936 -389.7403 L -325.75582 -394.8932 C -325.7914 -394.9644 -325.8265 -395.03586 -325.861 -395.10758 L -327.1092 -397.7 C -327.95993 -399.46687 -328.31545 -401.4314 -328.1379 -403.38436 L -327.9577 -405.3666 C -327.9339 -405.62848 -328.1269 -405.86006 -328.38875 -405.88386 C -328.55114 -405.8986 -328.7098 -405.82925 -328.8092 -405.7 L -328.8092 -405.7 C -329.47266 -404.8375 -330.25277 -404.07144 -331.12715 -403.42375 L -335.0237 -400.53743 C -335.14737 -400.4458 -335.27237 -400.356 -335.39864 -400.268 L -340.0209 -397.0464 C -341.20763 -396.2193 -342.50105 -395.55692 -343.8658 -395.0774 L -348.47292 -393.4587 C -348.9635 -393.28633 -349.44537 -393.09016 -349.91684 -392.87087 L -356.76362 -389.68632 C -357.4598 -389.36253 -358.17835 -389.08926 -358.91375 -388.86864 L -369.78414 -385.60752 C -369.80086 -385.6025 -369.81757 -385.59746 -369.83428 -385.5924 L -380.80236 -382.2628 C -380.94026 -382.22093 -381.0776 -382.1772 -381.2143 -382.13164 L -394.13554 -377.82456 C -394.18466 -377.8082 -394.23386 -377.79205 -394.28314 -377.77616 L -405.65054 -374.10925 C -406.28903 -373.9033 -406.91393 -373.65737 -407.52154 -373.37296 L -415.4535 -369.6601 C -415.82384 -369.48677 -416.1874 -369.2993 -416.5434 -369.0981 L -422.4895 -365.73724 C -423.74253 -365.029 -424.18417 -363.43907 -423.47594 -362.18604 C -423.3988 -362.0496 -423.30955 -361.9204 -423.2092 -361.8 L -422.3451 -360.76307 C -421.59016 -359.85713 -420.9377 -358.8705 -420.39957 -357.8212 L -417.32243 -351.82076 C -417.24696 -351.6736 -417.1692 -351.5276 -417.0892 -351.38285 L -413.13446 -344.22663 C -413.05097 -344.07555 -412.96993 -343.92313 -412.89137 -343.76943 L -408.78307 -335.73144 C -408.534 -335.24413 -408.3101 -334.74437 -408.11224 -334.2341 L -404.62947 -325.25224 C -404.61597 -325.2174 -404.60235 -325.18263 -404.5886 -325.1479 L -400.99228 -316.06246 C -400.87027 -315.75423 -400.75787 -315.44228 -400.65524 -315.12706 L -398.0334 -307.0743 C -398.0173 -307.02476 -398.0014 -306.97516 -397.98576 -306.92548 L -394.9137 -297.1672 C -394.7109 -296.52305 -394.5491 -295.8667 -394.42927 -295.2021 L -392.44395 -284.19263 C -392.4208 -284.0642 -392.3992 -283.93552 -392.3792 -283.80658 L -390.67334 -272.8132 C -390.6306 -272.53778 -390.59506 -272.2613 -390.56677 -271.98402 L -389.67935 -263.2873 C -389.6326 -262.8293 -389.60567 -262.36952 -389.5986 -261.9092 L -389.41435 -249.9336 C -389.41093 -249.71122 -389.40287 -249.48895 -389.3902 -249.2669 L -388.6198 -235.78535 C -388.61275 -235.6618 -388.60425 -235.5383 -388.59433 -235.41494 L -387.26076 -218.84057 C -387.2264 -218.4137 -387.2092 -217.9856 -387.2092 -217.55736 L -387.2092 -205.10758 C -387.2092 -204.90254 -387.2053 -204.69753 -387.1974 -204.49265 L -386.61705 -189.4035 C -386.61183 -189.26784 -386.60834 -189.1321 -386.60657 -188.99635 L -386.4144 -174.2001 C -386.41095 -173.9334 -386.41416 -173.66667 -386.42403 -173.40014 L -386.99826 -157.89599 C -387.00556 -157.69868 -387.0092 -157.50125 -387.0092 -157.3038 L -387.0092 -143.70757 C -387.0092 -143.50254 -387.01316 -143.29753 -387.02104 -143.09264 L -387.60623 -127.87764 C -387.6082 -127.82588 -387.61047 -127.77412 -387.61296 -127.72238 L -388.4083 -111.21945 C -388.4089 -111.20648 -388.40955 -111.19351 -388.4102 -111.18055 L -389.2047 -95.48938 C -389.2077 -95.42979 -389.21106 -95.37022 -389.21474 -95.31067 L -390.40366 -76.08993 C -390.40736 -76.029975 -390.4114 -75.97004 -390.4158 -75.91013 L -392.19893 -51.54058 C -392.2058 -51.44686 -392.21347 -51.3532 -392.222 -51.259615 L -394.00787 -31.614803 C -394.00877 -31.60493 -394.00968 -31.59506 -394.0106 -31.585188 L -395.78136 -12.500283 C -395.79993 -12.300108 -395.82227 -12.100301 -395.8484 -11.900969 L -397.8091 3.0717495 C -397.9419 4.0859435 -398.21104 5.077562 -398.6092 6.0197314 L -398.6092 6.0197314 C -399.0068 6.9604775 -399.25546 7.957393 -399.3463 8.974655 L -400.1092 17.519732 C -400.61698 23.20676 -396.6585 28.325125 -391.02654 29.263786 Z" stroke="#7f8080" stroke-linecap="round" stroke-linejoin="round" stroke-width="1"/>
      <path d="M -480 -256.55385 L -473.8 -252.15385 L -465.6 -248.15385 L -457 -244.55385 L -448 -240.75385 L -437 -236.75385 L -427.6 -233.95385 L -418.6 -231.35385 L -409.6 -228.75385 L -404.2 -227.35385 L -398.6 -226.35385 L -396.2 -232.15385 L -393.6 -237.55385 L -391.4 -241.55385 L -388.8 -244.95385 L -388.6 -253.95385 L -389.2 -264.95385 L -391 -275.75385 L -392.6 -286.15385 L -395.2 -297.15386 L -397.6 -306.75386 L -400.4 -314.75386 L -403.6 -324.15386 L -406.4 -331.55386 L -410 -339.15386 L -414 -346.75386 L -418 -354.15386 L -420.6 -357.75386 L -424.2 -363.55386 L -429.6 -359.15386 L -434.4 -354.35386 L -439 -348.15386 L -443.4 -341.95386 L -448.2 -333.35386 L -453 -323.95386 L -457.8 -314.75386 L -461.4 -306.15386 L -465.4 -297.15386 L -468.6 -288.95385 L -472.4 -279.55385 L -475.2 -271.55385 L -478.2 -263.15385 Z" fill="white"/>
      <path d="M -480 -256.55385 L -473.8 -252.15385 L -465.6 -248.15385 L -457 -244.55385 L -448 -240.75385 L -437 -236.75385 L -427.6 -233.95385 L -418.6 -231.35385 L -409.6 -228.75385 L -404.2 -227.35385 L -398.6 -226.35385 L -396.2 -232.15385 L -393.6 -237.55385 L -391.4 -241.55385 L -388.8 -244.95385 L -388.6 -253.95385 L -389.2 -264.95385 L -391 -275.75385 L -392.6 -286.15385 L -395.2 -297.15386 L -397.6 -306.75386 L -400.4 -314.75386 L -403.6 -324.15386 L -406.4 -331.55386 L -410 -339.15386 L -414 -346.75386 L -418 -354.15386 L -420.6 -357.75386 L -424.2 -363.55386 L -429.6 -359.15386 L -434.4 -354.35386 L -439 -348.15386 L -443.4 -341.95386 L -448.2 -333.35386 L -453 -323.95386 L -457.8 -314.75386 L -461.4 -306.15386 L -465.4 -297.15386 L -468.6 -288.95385 L -472.4 -279.55385 L -475.2 -271.55385 L -478.2 -263.15385 Z" stroke="#7f8080" stroke-linecap="round" stroke-linejoin="round" stroke-width="1"/>
      <path d="M -480 -256.55385 L -473.8 -252.15385 L -465.6 -248.15385 L -457 -244.55385 L -448 -240.75385 L -437 -236.75385 L -427.6 -233.95385 L -418.6 -231.35385 L -409.6 -228.75385 L -404.2 -227.35385 L -398.6 -226.35385 L -395.6 -232.75385 L -399.4 -233.55385 L -404.2 -234.75385 L -409.8 -235.95385 L -415.8 -237.75385 L -420.4 -239.15385 L -424.6 -240.35385 L -429.2 -242.35385 L -433.8 -243.95385 L -438.6 -245.95385 L -442.6 -247.35385 L -447.8 -249.55385 L -452.4 -251.15385 L -457.2 -253.35385 L -462 -255.15385 L -466 -257.15385 L -470.4 -259.35385 L -474.8 -261.55385 L -478.2 -263.15385 Z" fill="url(#Obj_Gradient_2)"/>
      <path d="M -480 -256.55385 L -473.8 -252.15385 L -465.6 -248.15385 L -457 -244.55385 L -448 -240.75385 L -437 -236.75385 L -427.6 -233.95385 L -418.6 -231.35385 L -409.6 -228.75385 L -404.2 -227.35385 L -398.6 -226.35385 L -395.6 -232.75385 L -399.4 -233.55385 L -404.2 -234.75385 L -409.8 -235.95385 L -415.8 -237.75385 L -420.4 -239.15385 L -424.6 -240.35385 L -429.2 -242.35385 L -433.8 -243.95385 L -438.6 -245.95385 L -442.6 -247.35385 L -447.8 -249.55385 L -452.4 -251.15385 L -457.2 -253.35385 L -462 -255.15385 L -466 -257.15385 L -470.4 -259.35385 L -474.8 -261.55385 L -478.2 -263.15385 Z" stroke="#7f8080" stroke-linecap="round" stroke-linejoin="round" stroke-width="1"/>
      <path d="M -329.94075 -406.2441 L -324.54075 -406.8441 L -317.74075 -403.4441 L -312.74075 -401.6441 L -304.34075 -399.8441 L -295.94075 -398.8441 L -287.94075 -397.8441 L -280.34075 -397.6441 L -271.74075 -397.2441 L -260.14075 -397.4441 L -251.74075 -397.8441 L -242.34075 -398.4441 L -233.94075 -399.2441 L -224.74075 -400.6441 L -216.54075 -402.8441 L -210.74075 -404.6441 L -205.14075 -407.2441 L -202.34075 -406.0441 L -201.94075 -400.4441 L -204.74075 -392.4441 L -210.14075 -389.6441 L -220.74075 -386.4441 L -232.14075 -384.0441 L -243.34075 -383.2441 L -255.74075 -382.2441 L -266.14075 -382.2441 L -275.54075 -382.2441 L -287.14075 -382.8441 L -298.34075 -383.6441 L -308.94075 -385.8441 L -317.54075 -387.8441 L -323.74075 -390.6441 L -325.74075 -392.2441 L -328.94075 -399.8441 Z" fill="white"/>
      <path d="M -329.94075 -406.2441 L -324.54075 -406.8441 L -317.74075 -403.4441 L -312.74075 -401.6441 L -304.34075 -399.8441 L -295.94075 -398.8441 L -287.94075 -397.8441 L -280.34075 -397.6441 L -271.74075 -397.2441 L -260.14075 -397.4441 L -251.74075 -397.8441 L -242.34075 -398.4441 L -233.94075 -399.2441 L -224.74075 -400.6441 L -216.54075 -402.8441 L -210.74075 -404.6441 L -205.14075 -407.2441 L -202.34075 -406.0441 L -201.94075 -400.4441 L -204.74075 -392.4441 L -210.14075 -389.6441 L -220.74075 -386.4441 L -232.14075 -384.0441 L -243.34075 -383.2441 L -255.74075 -382.2441 L -266.14075 -382.2441 L -275.54075 -382.2441 L -287.14075 -382.8441 L -298.34075 -383.6441 L -308.94075 -385.8441 L -317.54075 -387.8441 L -323.74075 -390.6441 L -325.74075 -392.2441 L -328.94075 -399.8441 Z" stroke="#7f8080" stroke-linecap="round" stroke-linejoin="round" stroke-width="1"/>
      <path d="M -171.8 27.000003 L -157 25.000003 L -145.78098 22.340856 L -132.78098 20.340856 L -129.2 19.400002 L -133 -12.599998 L -136 -39.6 L -138 -66.6 L -139.6 -92.4 L -141.2 -120.8 L -142.78098 -150.65914 L -142.6 -174 L -142 -210.8 L -140.4 -244.2 L -135.2 -274.2 L -131.8 -288.8 L -126.8 -305.4 L -124.2 -319.8 L -119 -332.4 L -112.4 -345.8 L -108.4 -356.2 L -103.6 -364.2 L -113.78098 -370.65914 L -126.78098 -375.65914 L -139.78098 -379.65914 L -158.78098 -384.65914 L -173.78098 -389.65914 Z" fill="#0000be"/>
      <path d="M -171.8 27.000003 L -157 25.000003 L -145.78098 22.340856 L -132.78098 20.340856 L -129.2 19.400002 L -133 -12.599998 L -136 -39.6 L -138 -66.6 L -139.6 -92.4 L -141.2 -120.8 L -142.78098 -150.65914 L -142.6 -174 L -142 -210.8 L -140.4 -244.2 L -135.2 -274.2 L -131.8 -288.8 L -126.8 -305.4 L -124.2 -319.8 L -119 -332.4 L -112.4 -345.8 L -108.4 -356.2 L -103.6 -364.2 L -113.78098 -370.65914 L -126.78098 -375.65914 L -139.78098 -379.65914 L -158.78098 -384.65914 L -173.78098 -389.65914 Z" stroke="#7f8080" stroke-linecap="round" stroke-linejoin="round" stroke-width="1"/>
      <path d="M -357 25 L -371.81373 23.075033 L -382.81373 22.075033 L -395.81373 20.075033 L -399.81373 18.075033 L -394.81373 -12.924967 L -393 -39 L -390.5 -67 L -389 -94 L -388.5 -123 L -387 -150 L -386.5 -175.5 L -387.5 -211.5 L -388.5 -245 L -388.5 -260 L -391 -275.5 L -393.5 -290.5 L -398 -306 L -402.5 -320.5 L -407.5 -334 L -414 -347.5 L -420.5 -358 L -424 -364.5 L -414.81373 -370.92497 L -401.81373 -375.92497 L -388.81373 -379.92497 L -370.5 -385.5 L -359.5 -389 L -354.81373 -389.92497 Z" fill="#0000c4"/>
      <path d="M -357 25 L -371.81373 23.075033 L -382.81373 22.075033 L -395.81373 20.075033 L -399.81373 18.075033 L -394.81373 -12.924967 L -393 -39 L -390.5 -67 L -389 -94 L -388.5 -123 L -387 -150 L -386.5 -175.5 L -387.5 -211.5 L -388.5 -245 L -388.5 -260 L -391 -275.5 L -393.5 -290.5 L -398 -306 L -402.5 -320.5 L -407.5 -334 L -414 -347.5 L -420.5 -358 L -424 -364.5 L -414.81373 -370.92497 L -401.81373 -375.92497 L -388.81373 -379.92497 L -370.5 -385.5 L -359.5 -389 L -354.81373 -389.92497 Z" stroke="#7f8080" stroke-linecap="round" stroke-linejoin="round" stroke-width="1"/>
      <path d="M -295.13787 37.093224 L -272.16055 38.200007 L -250.66055 36.690753 L -231.66055 36.690753 L -231.03775 36.690753 L -232.03775 -353.2 L -258.6974 -347.66607 L -284.53775 -351.69074 L -296.13787 -350.8858 Z" fill="#0210c2"/>
      <path d="M -295.13787 37.093224 L -272.16055 38.200007 L -250.66055 36.690753 L -231.66055 36.690753 L -231.03775 36.690753 L -232.03775 -353.2 L -258.6974 -347.66607 L -284.53775 -351.69074 L -296.13787 -350.8858 Z" stroke="#7f8080" stroke-linecap="round" stroke-linejoin="round" stroke-width="1"/>
      <path d="M -329.42788 -406.0362 L -334.15705 -401.98264 C -335.3074 -400.99662 -336.55236 -400.1267 -337.8738 -399.3855 L -340.40042 -397.96835 C -341.8356 -397.1634 -342.4164 -395.39425 -341.7376 -393.89527 L -340.72 -391.64803 C -340.5984 -391.37954 -340.4717 -391.1134 -340.33988 -390.8498 L -338.5376 -387.24526 L -336.05062 -382.2713 C -335.70883 -381.5877 -335.33317 -380.92157 -334.92505 -380.27537 L -332.59866 -376.5919 C -332.15828 -375.89465 -331.68072 -375.2216 -331.16805 -374.5756 L -327.75736 -370.27815 C -327.2113 -369.59013 -326.6263 -368.93394 -326.00518 -368.31283 L -321.33913 -363.6468 C -320.93825 -363.2459 -320.5227 -362.86 -320.0933 -362.4898 L -315.52977 -358.55574 C -315.1351 -358.21552 -314.729 -357.8888 -314.31215 -357.57617 L -310.3372 -354.59497 C -309.6713 -354.09553 -308.97877 -353.6326 -308.26267 -353.20826 L -304.1296 -350.75904 C -304.0016 -350.6832 -303.8729 -350.6086 -303.74344 -350.53523 L -299.0459 -347.8733 C -298.3076 -347.45493 -297.54672 -347.07774 -296.76675 -346.74347 L -293.21693 -345.2221 C -292.63097 -344.971 -292.03482 -344.74433 -291.43003 -344.54274 L -286.41192 -342.87003 C -285.16468 -342.4543 -283.88408 -342.14624 -282.5842 -341.9493 L -278.48536 -341.32826 C -278.12024 -341.27294 -277.75385 -341.2264 -277.3865 -341.18874 L -270.5054 -340.483 C -270.26022 -340.45784 -270.01466 -340.43664 -269.7688 -340.4194 L -265.24165 -340.1017 C -264.7058 -340.0641 -264.16878 -340.04527 -263.6316 -340.04527 L -260.36954 -340.04526 C -259.41584 -340.04526 -258.46307 -340.1046 -257.51673 -340.22287 L -253.52802 -340.72146 C -252.86805 -340.80396 -252.21198 -340.91504 -251.56165 -341.0544 L -245.4796 -342.3577 C -244.58574 -342.54924 -243.70408 -342.7939 -242.83932 -343.0904 L -238.33048 -344.6363 C -237.53583 -344.90873 -236.7567 -345.2245 -235.9966 -345.5822 L -231.16323 -347.85674 C -230.61303 -348.11565 -230.07332 -348.3963 -229.54536 -348.69798 L -225.7775 -350.85104 C -225.0847 -351.24692 -224.413 -351.6786 -223.76506 -352.1443 L -219.08894 -355.50525 C -218.58825 -355.8651 -218.10224 -356.24497 -217.63208 -356.6439 L -212.31123 -361.15856 C -211.92892 -361.48294 -211.55731 -361.81974 -211.19702 -362.1684 L -206.4978 -366.71604 C -205.8582 -367.335 -205.2551 -367.99056 -204.69148 -368.67942 L -200.8982 -373.31566 C -200.39148 -373.93497 -199.91743 -374.5803 -199.47799 -375.24904 L -195.8608 -380.75344 C -195.64538 -381.08127 -195.43837 -381.41456 -195.23998 -381.753 L -192.7169 -386.05708 C -192.33094 -386.71546 -191.978 -387.39265 -191.65938 -388.0861 L -189.54068 -392.6974 C -189.00782 -393.85715 -188.63666 -395.08456 -188.4376 -396.34526 L -188.4376 -396.34526 C -188.2593 -397.47453 -188.8386 -398.58797 -189.86568 -399.0901 L -195.15912 -401.678 C -196.47358 -402.32063 -197.70817 -403.11514 -198.8376 -404.04526 L -199.24362 -404.37963 C -200.08795 -405.07496 -200.71136 -406.00126 -201.0376 -407.04526 L -201.0376 -407.04526 C -201.08427 -407.1946 -201.24314 -407.2778 -201.39246 -407.23114 C -201.50753 -407.1952 -201.58723 -407.0903 -201.59108 -406.9698 L -201.70032 -403.5469 C -201.79106 -400.7038 -202.4084 -397.90224 -203.521 -395.28433 L -204.39794 -393.22096 C -204.9565 -391.9067 -205.63626 -390.6473 -206.4284 -389.4591 L -210.11418 -383.9304 C -210.86169 -382.80915 -211.7063 -381.75575 -212.63825 -380.78238 L -218.93332 -374.20753 C -219.8014 -373.30087 -220.74223 -372.4668 -221.7464 -371.71367 L -230.1213 -365.4325 C -230.99772 -364.7752 -231.91998 -364.18133 -232.88104 -363.65546 L -240.06624 -359.72394 C -241.37737 -359.00653 -242.7553 -358.41863 -244.18048 -357.96857 L -250.8534 -355.86133 C -252.57027 -355.31916 -254.34486 -354.98046 -256.14073 -354.8522 L -263.0272 -354.3603 C -264.09948 -354.2837 -265.17583 -354.2824 -266.2483 -354.35635 L -274.68457 -354.93816 C -275.71875 -355.0095 -276.74692 -355.15064 -277.76205 -355.36067 L -284.89726 -356.8369 C -286.8492 -357.24077 -288.7404 -357.89665 -290.52324 -358.7881 L -295.18265 -361.1178 C -296.4168 -361.73485 -297.5929 -362.46173 -298.69674 -363.2896 L -304.3787 -367.5511 C -304.81783 -367.88043 -305.24504 -368.2254 -305.6595 -368.5853 L -311.41467 -373.58324 C -312.22896 -374.2904 -312.9925 -375.0539 -313.69964 -375.8682 L -318.10487 -380.9409 C -318.85897 -381.80925 -319.54688 -382.73295 -320.1628 -383.7042 L -323.8965 -389.592 C -324.25707 -390.16056 -324.5925 -390.7447 -324.9018 -391.3427 L -326.5222 -394.47544 C -327.13133 -395.6531 -327.6375 -396.88126 -328.03503 -398.14615 L -329.31527 -402.21964 C -329.53005 -402.903 -329.7128 -403.59605 -329.86287 -404.2965 L -330.0883 -405.34843 C -330.17336 -405.74544 -329.947 -406.1431 -329.5622 -406.27263 L -329.5622 -406.27263 C -329.4897 -406.29704 -329.41116 -406.25805 -329.38675 -406.18556 C -329.36874 -406.13205 -329.385 -406.07296 -329.42788 -406.0362 Z" fill="white"/>
      <path d="M -329.42788 -406.0362 L -334.15705 -401.98264 C -335.3074 -400.99662 -336.55236 -400.1267 -337.8738 -399.3855 L -340.40042 -397.96835 C -341.8356 -397.1634 -342.4164 -395.39425 -341.7376 -393.89527 L -340.72 -391.64803 C -340.5984 -391.37954 -340.4717 -391.1134 -340.33988 -390.8498 L -338.5376 -387.24526 L -336.05062 -382.2713 C -335.70883 -381.5877 -335.33317 -380.92157 -334.92505 -380.27537 L -332.59866 -376.5919 C -332.15828 -375.89465 -331.68072 -375.2216 -331.16805 -374.5756 L -327.75736 -370.27815 C -327.2113 -369.59013 -326.6263 -368.93394 -326.00518 -368.31283 L -321.33913 -363.6468 C -320.93825 -363.2459 -320.5227 -362.86 -320.0933 -362.4898 L -315.52977 -358.55574 C -315.1351 -358.21552 -314.729 -357.8888 -314.31215 -357.57617 L -310.3372 -354.59497 C -309.6713 -354.09553 -308.97877 -353.6326 -308.26267 -353.20826 L -304.1296 -350.75904 C -304.0016 -350.6832 -303.8729 -350.6086 -303.74344 -350.53523 L -299.0459 -347.8733 C -298.3076 -347.45493 -297.54672 -347.07774 -296.76675 -346.74347 L -293.21693 -345.2221 C -292.63097 -344.971 -292.03482 -344.74433 -291.43003 -344.54274 L -286.41192 -342.87003 C -285.16468 -342.4543 -283.88408 -342.14624 -282.5842 -341.9493 L -278.48536 -341.32826 C -278.12024 -341.27294 -277.75385 -341.2264 -277.3865 -341.18874 L -270.5054 -340.483 C -270.26022 -340.45784 -270.01466 -340.43664 -269.7688 -340.4194 L -265.24165 -340.1017 C -264.7058 -340.0641 -264.16878 -340.04527 -263.6316 -340.04527 L -260.36954 -340.04526 C -259.41584 -340.04526 -258.46307 -340.1046 -257.51673 -340.22287 L -253.52802 -340.72146 C -252.86805 -340.80396 -252.21198 -340.91504 -251.56165 -341.0544 L -245.4796 -342.3577 C -244.58574 -342.54924 -243.70408 -342.7939 -242.83932 -343.0904 L -238.33048 -344.6363 C -237.53583 -344.90873 -236.7567 -345.2245 -235.9966 -345.5822 L -231.16323 -347.85674 C -230.61303 -348.11565 -230.07332 -348.3963 -229.54536 -348.69798 L -225.7775 -350.85104 C -225.0847 -351.24692 -224.413 -351.6786 -223.76506 -352.1443 L -219.08894 -355.50525 C -218.58825 -355.8651 -218.10224 -356.24497 -217.63208 -356.6439 L -212.31123 -361.15856 C -211.92892 -361.48294 -211.55731 -361.81974 -211.19702 -362.1684 L -206.4978 -366.71604 C -205.8582 -367.335 -205.2551 -367.99056 -204.69148 -368.67942 L -200.8982 -373.31566 C -200.39148 -373.93497 -199.91743 -374.5803 -199.47799 -375.24904 L -195.8608 -380.75344 C -195.64538 -381.08127 -195.43837 -381.41456 -195.23998 -381.753 L -192.7169 -386.05708 C -192.33094 -386.71546 -191.978 -387.39265 -191.65938 -388.0861 L -189.54068 -392.6974 C -189.00782 -393.85715 -188.63666 -395.08456 -188.4376 -396.34526 L -188.4376 -396.34526 C -188.2593 -397.47453 -188.8386 -398.58797 -189.86568 -399.0901 L -195.15912 -401.678 C -196.47358 -402.32063 -197.70817 -403.11514 -198.8376 -404.04526 L -199.24362 -404.37963 C -200.08795 -405.07496 -200.71136 -406.00126 -201.0376 -407.04526 L -201.0376 -407.04526 C -201.08427 -407.1946 -201.24314 -407.2778 -201.39246 -407.23114 C -201.50753 -407.1952 -201.58723 -407.0903 -201.59108 -406.9698 L -201.70032 -403.5469 C -201.79106 -400.7038 -202.4084 -397.90224 -203.521 -395.28433 L -204.39794 -393.22096 C -204.9565 -391.9067 -205.63626 -390.6473 -206.4284 -389.4591 L -210.11418 -383.9304 C -210.86169 -382.80915 -211.7063 -381.75575 -212.63825 -380.78238 L -218.93332 -374.20753 C -219.8014 -373.30087 -220.74223 -372.4668 -221.7464 -371.71367 L -230.1213 -365.4325 C -230.99772 -364.7752 -231.91998 -364.18133 -232.88104 -363.65546 L -240.06624 -359.72394 C -241.37737 -359.00653 -242.7553 -358.41863 -244.18048 -357.96857 L -250.8534 -355.86133 C -252.57027 -355.31916 -254.34486 -354.98046 -256.14073 -354.8522 L -263.0272 -354.3603 C -264.09948 -354.2837 -265.17583 -354.2824 -266.2483 -354.35635 L -274.68457 -354.93816 C -275.71875 -355.0095 -276.74692 -355.15064 -277.76205 -355.36067 L -284.89726 -356.8369 C -286.8492 -357.24077 -288.7404 -357.89665 -290.52324 -358.7881 L -295.18265 -361.1178 C -296.4168 -361.73485 -297.5929 -362.46173 -298.69674 -363.2896 L -304.3787 -367.5511 C -304.81783 -367.88043 -305.24504 -368.2254 -305.6595 -368.5853 L -311.41467 -373.58324 C -312.22896 -374.2904 -312.9925 -375.0539 -313.69964 -375.8682 L -318.10487 -380.9409 C -318.85897 -381.80925 -319.54688 -382.73295 -320.1628 -383.7042 L -323.8965 -389.592 C -324.25707 -390.16056 -324.5925 -390.7447 -324.9018 -391.3427 L -326.5222 -394.47544 C -327.13133 -395.6531 -327.6375 -396.88126 -328.03503 -398.14615 L -329.31527 -402.21964 C -329.53005 -402.903 -329.7128 -403.59605 -329.86287 -404.2965 L -330.0883 -405.34843 C -330.17336 -405.74544 -329.947 -406.1431 -329.5622 -406.27263 L -329.5622 -406.27263 C -329.4897 -406.29704 -329.41116 -406.25805 -329.38675 -406.18556 C -329.36874 -406.13205 -329.385 -406.07296 -329.42788 -406.0362 Z" stroke="#7f8080" stroke-linecap="round" stroke-linejoin="round" stroke-width="1"/>
      <path d="M -399.8138 19.20001 L -399.8138 19.20001 C -399.8795 19.725486 -399.8167 20.259053 -399.63073 20.754902 L -398.97973 22.490924 C -398.80297 22.962272 -398.5759 23.413179 -398.3024 23.835818 L -397.3346 25.33153 C -396.79364 26.167557 -396.08054 26.878546 -395.2429 27.41702 L -394.16486 28.110053 C -393.8646 28.303074 -393.55003 28.472847 -393.22388 28.617885 L -391.907 29.203486 C -391.3105 29.46876 -390.6798 29.64928 -390.03324 29.739796 L -381.0228 31.001255 C -381.01283 31.002654 -381.00283 31.00403 -380.99283 31.005388 L -369.27683 32.593998 C -369.23083 32.600235 -369.18477 32.606015 -369.13865 32.611336 L -358.8557 33.79783 C -358.8238 33.80151 -358.79184 33.804976 -358.75987 33.80822 L -345.0498 35.199096 C -345.0218 35.201935 -344.99382 35.204605 -344.9658 35.207106 L -333.8605 36.19865 C -333.8254 36.201786 -333.79025 36.204656 -333.7551 36.20726 L -323.06855 36.998856 C -323.02807 37.001855 -322.98756 37.0045 -322.94704 37.006795 L -312.43906 37.601586 C -312.41824 37.602765 -312.39742 37.604036 -312.3766 37.6054 L -300.33384 38.39509 C -300.24984 38.4006 -300.16574 38.40459 -300.0816 38.407067 L -286.63447 38.80257 C -286.6167 38.803093 -286.59895 38.803683 -286.5812 38.80434 L -275.93732 39.19856 C -275.851 39.201755 -275.76462 39.203354 -275.67824 39.203354 L -265.06923 39.203354 C -265.0283 39.203354 -264.98736 39.203713 -264.94644 39.20443 L -253.86 39.39893 C -253.69194 39.40188 -253.52382 39.39877 -253.35597 39.389617 L -242.73474 38.810277 C -242.65014 38.80566 -242.56546 38.802584 -242.48074 38.801043 L -231.71618 38.605324 C -231.64395 38.60401 -231.57174 38.60158 -231.49959 38.59803 L -219.48096 38.00695 C -219.4322 38.004553 -219.38348 38.001645 -219.33478 37.99823 L -208.09474 37.209453 C -208.0368 37.205387 -207.97891 37.2006 -207.9211 37.195094 L -195.51052 36.013134 C -195.44206 36.006614 -195.3735 36.001104 -195.3049 35.996604 L -183.37287 35.214176 C -183.26286 35.206962 -183.15303 35.19715 -183.04348 35.18475 L -172.63113 34.005992 C -172.6156 34.004233 -172.60006 34.002422 -172.58454 34.00056 L -162.63683 32.806834 C -162.6175 32.804514 -162.59817 32.802113 -162.57885 32.79963 L -148.7431 31.022093 C -148.64588 31.009603 -148.54894 30.995073 -148.45233 30.978513 L -141.89885 29.855058 C -141.69788 29.820607 -141.4955 29.794953 -141.2923 29.77817 L -138.05997 29.511195 C -137.17074 29.43775 -136.30374 29.194972 -135.50568 28.79594 L -134.01938 28.052794 C -133.4188 27.7525 -132.86454 27.367352 -132.37365 26.90919 L -131.03853 25.66308 C -130.43171 25.096715 -129.9763 24.387474 -129.71381 23.60001 L -129.41899 22.715523 C -129.34891 22.5053 -129.28886 22.291866 -129.23903 22.075945 L -128.76933 20.040556 C -128.7341 19.887924 -128.76754 19.727524 -128.86082 19.601681 L -128.86082 19.601681 C -128.95116 19.479802 -129.1018 19.418305 -129.25163 19.44214 L -137.73149 20.79121 C -137.78238 20.799305 -137.83318 20.807963 -137.88388 20.817182 L -150.86864 23.178048 C -150.96142 23.194917 -151.05453 23.20991 -151.14792 23.223016 L -162.3776 24.799112 C -162.39775 24.80194 -162.41789 24.804856 -162.43801 24.80786 L -175.5606 26.766454 C -175.72536 26.791046 -175.89095 26.809748 -176.05705 26.822525 L -188.78187 27.801357 C -188.79917 27.802688 -188.81648 27.803955 -188.8338 27.805158 L -203.17395 28.801 C -203.19653 28.80257 -203.21913 28.80403 -203.24172 28.805378 L -216.54498 29.5996 C -216.58688 29.602103 -216.6288 29.604228 -216.67073 29.605975 L -230.86218 30.197285 C -230.95927 30.20133 -231.05643 30.203354 -231.1536 30.203354 L -244.40783 30.203354 L -256.9495 30.203354 C -256.98838 30.203354 -257.02727 30.203678 -257.06615 30.204326 L -268.82454 30.4003 C -268.9467 30.402335 -269.0689 30.401172 -269.19103 30.39681 L -280.02463 30.009897 C -280.14674 30.005536 -280.26895 30.004372 -280.39112 30.00641 L -292.10576 30.201653 C -292.1738 30.202787 -292.24186 30.20293 -292.3099 30.202078 L -308.0122 30.0058 C -308.1426 30.00417 -308.27292 29.998896 -308.40303 29.989984 L -322.7128 29.009862 C -322.77615 29.005524 -322.83943 29.000323 -322.90264 28.994262 L -337.39365 27.604714 C -337.4031 27.603807 -337.41255 27.60288 -337.422 27.601936 L -351.23404 26.220733 C -351.3499 26.20915 -351.4654 26.194676 -351.58053 26.17733 L -365.8897 24.021156 C -365.96844 24.00929 -366.0474 23.998766 -366.1265 23.989594 L -379.64644 22.422065 C -379.754 22.409593 -379.8613 22.394625 -379.96817 22.377175 L -389.36026 20.843773 C -389.52525 20.816835 -389.68923 20.783996 -389.85187 20.745318 L -398.92947 18.586538 C -399.3178 18.49419 -399.70744 18.734123 -399.7998 19.122441 C -399.80587 19.148023 -399.81056 19.173917 -399.8138 19.20001 Z" fill="#0000ac"/>
      <path d="M -399.8138 19.20001 L -399.8138 19.20001 C -399.8795 19.725486 -399.8167 20.259053 -399.63073 20.754902 L -398.97973 22.490924 C -398.80297 22.962272 -398.5759 23.413179 -398.3024 23.835818 L -397.3346 25.33153 C -396.79364 26.167557 -396.08054 26.878546 -395.2429 27.41702 L -394.16486 28.110053 C -393.8646 28.303074 -393.55003 28.472847 -393.22388 28.617885 L -391.907 29.203486 C -391.3105 29.46876 -390.6798 29.64928 -390.03324 29.739796 L -381.0228 31.001255 C -381.01283 31.002654 -381.00283 31.00403 -380.99283 31.005388 L -369.27683 32.593998 C -369.23083 32.600235 -369.18477 32.606015 -369.13865 32.611336 L -358.8557 33.79783 C -358.8238 33.80151 -358.79184 33.804976 -358.75987 33.80822 L -345.0498 35.199096 C -345.0218 35.201935 -344.99382 35.204605 -344.9658 35.207106 L -333.8605 36.19865 C -333.8254 36.201786 -333.79025 36.204656 -333.7551 36.20726 L -323.06855 36.998856 C -323.02807 37.001855 -322.98756 37.0045 -322.94704 37.006795 L -312.43906 37.601586 C -312.41824 37.602765 -312.39742 37.604036 -312.3766 37.6054 L -300.33384 38.39509 C -300.24984 38.4006 -300.16574 38.40459 -300.0816 38.407067 L -286.63447 38.80257 C -286.6167 38.803093 -286.59895 38.803683 -286.5812 38.80434 L -275.93732 39.19856 C -275.851 39.201755 -275.76462 39.203354 -275.67824 39.203354 L -265.06923 39.203354 C -265.0283 39.203354 -264.98736 39.203713 -264.94644 39.20443 L -253.86 39.39893 C -253.69194 39.40188 -253.52382 39.39877 -253.35597 39.389617 L -242.73474 38.810277 C -242.65014 38.80566 -242.56546 38.802584 -242.48074 38.801043 L -231.71618 38.605324 C -231.64395 38.60401 -231.57174 38.60158 -231.49959 38.59803 L -219.48096 38.00695 C -219.4322 38.004553 -219.38348 38.001645 -219.33478 37.99823 L -208.09474 37.209453 C -208.0368 37.205387 -207.97891 37.2006 -207.9211 37.195094 L -195.51052 36.013134 C -195.44206 36.006614 -195.3735 36.001104 -195.3049 35.996604 L -183.37287 35.214176 C -183.26286 35.206962 -183.15303 35.19715 -183.04348 35.18475 L -172.63113 34.005992 C -172.6156 34.004233 -172.60006 34.002422 -172.58454 34.00056 L -162.63683 32.806834 C -162.6175 32.804514 -162.59817 32.802113 -162.57885 32.79963 L -148.7431 31.022093 C -148.64588 31.009603 -148.54894 30.995073 -148.45233 30.978513 L -141.89885 29.855058 C -141.69788 29.820607 -141.4955 29.794953 -141.2923 29.77817 L -138.05997 29.511195 C -137.17074 29.43775 -136.30374 29.194972 -135.50568 28.79594 L -134.01938 28.052794 C -133.4188 27.7525 -132.86454 27.367352 -132.37365 26.90919 L -131.03853 25.66308 C -130.43171 25.096715 -129.9763 24.387474 -129.71381 23.60001 L -129.41899 22.715523 C -129.34891 22.5053 -129.28886 22.291866 -129.23903 22.075945 L -128.76933 20.040556 C -128.7341 19.887924 -128.76754 19.727524 -128.86082 19.601681 L -128.86082 19.601681 C -128.95116 19.479802 -129.1018 19.418305 -129.25163 19.44214 L -137.73149 20.79121 C -137.78238 20.799305 -137.83318 20.807963 -137.88388 20.817182 L -150.86864 23.178048 C -150.96142 23.194917 -151.05453 23.20991 -151.14792 23.223016 L -162.3776 24.799112 C -162.39775 24.80194 -162.41789 24.804856 -162.43801 24.80786 L -175.5606 26.766454 C -175.72536 26.791046 -175.89095 26.809748 -176.05705 26.822525 L -188.78187 27.801357 C -188.79917 27.802688 -188.81648 27.803955 -188.8338 27.805158 L -203.17395 28.801 C -203.19653 28.80257 -203.21913 28.80403 -203.24172 28.805378 L -216.54498 29.5996 C -216.58688 29.602103 -216.6288 29.604228 -216.67073 29.605975 L -230.86218 30.197285 C -230.95927 30.20133 -231.05643 30.203354 -231.1536 30.203354 L -244.40783 30.203354 L -256.9495 30.203354 C -256.98838 30.203354 -257.02727 30.203678 -257.06615 30.204326 L -268.82454 30.4003 C -268.9467 30.402335 -269.0689 30.401172 -269.19103 30.39681 L -280.02463 30.009897 C -280.14674 30.005536 -280.26895 30.004372 -280.39112 30.00641 L -292.10576 30.201653 C -292.1738 30.202787 -292.24186 30.20293 -292.3099 30.202078 L -308.0122 30.0058 C -308.1426 30.00417 -308.27292 29.998896 -308.40303 29.989984 L -322.7128 29.009862 C -322.77615 29.005524 -322.83943 29.000323 -322.90264 28.994262 L -337.39365 27.604714 C -337.4031 27.603807 -337.41255 27.60288 -337.422 27.601936 L -351.23404 26.220733 C -351.3499 26.20915 -351.4654 26.194676 -351.58053 26.17733 L -365.8897 24.021156 C -365.96844 24.00929 -366.0474 23.998766 -366.1265 23.989594 L -379.64644 22.422065 C -379.754 22.409593 -379.8613 22.394625 -379.96817 22.377175 L -389.36026 20.843773 C -389.52525 20.816835 -389.68923 20.783996 -389.85187 20.745318 L -398.92947 18.586538 C -399.3178 18.49419 -399.70744 18.734123 -399.7998 19.122441 C -399.80587 19.148023 -399.81056 19.173917 -399.8138 19.20001 Z" stroke="#7f8080" stroke-linecap="round" stroke-linejoin="round" stroke-width="1"/>
      <path d="M -48.59471 -257.49725 L -54.79471 -253.09725 L -62.99471 -249.09725 L -71.59471 -245.49725 L -80.59471 -241.69725 L -91.59471 -237.69725 L -100.99471 -234.89725 L -109.99471 -232.29725 L -118.99471 -229.69725 L -124.39471 -228.29725 L -129.99471 -227.29725 L -132.39471 -233.09725 L -134.99471 -238.49725 L -137.19471 -242.49725 L -139.79471 -245.89725 L -139.99471 -254.89725 L -139.39471 -265.89725 L -137.59471 -276.69725 L -135.99471 -287.09725 L -133.39471 -298.09725 L -130.99471 -307.69725 L -128.19471 -315.69725 L -124.99471 -325.09725 L -122.19471 -332.49725 L -118.59471 -340.09725 L -114.59471 -347.69725 L -110.59471 -355.09725 L -107.99471 -358.69725 L -104.39471 -364.49725 L -98.99471 -360.09725 L -94.19471 -355.29725 L -89.59471 -349.09725 L -85.19471 -342.89725 L -80.39471 -334.29725 L -75.59471 -324.89725 L -70.79471 -315.69725 L -67.19471 -307.09725 L -63.19471 -298.09725 L -59.99471 -289.89725 L -56.19471 -280.49725 L -53.39471 -272.49725 L -50.39471 -264.09725 Z" fill="white"/>
      <path d="M -48.59471 -257.49725 L -54.79471 -253.09725 L -62.99471 -249.09725 L -71.59471 -245.49725 L -80.59471 -241.69725 L -91.59471 -237.69725 L -100.99471 -234.89725 L -109.99471 -232.29725 L -118.99471 -229.69725 L -124.39471 -228.29725 L -129.99471 -227.29725 L -132.39471 -233.09725 L -134.99471 -238.49725 L -137.19471 -242.49725 L -139.79471 -245.89725 L -139.99471 -254.89725 L -139.39471 -265.89725 L -137.59471 -276.69725 L -135.99471 -287.09725 L -133.39471 -298.09725 L -130.99471 -307.69725 L -128.19471 -315.69725 L -124.99471 -325.09725 L -122.19471 -332.49725 L -118.59471 -340.09725 L -114.59471 -347.69725 L -110.59471 -355.09725 L -107.99471 -358.69725 L -104.39471 -364.49725 L -98.99471 -360.09725 L -94.19471 -355.29725 L -89.59471 -349.09725 L -85.19471 -342.89725 L -80.39471 -334.29725 L -75.59471 -324.89725 L -70.79471 -315.69725 L -67.19471 -307.09725 L -63.19471 -298.09725 L -59.99471 -289.89725 L -56.19471 -280.49725 L -53.39471 -272.49725 L -50.39471 -264.09725 Z" stroke="#7f8080" stroke-linecap="round" stroke-linejoin="round" stroke-width="1"/>
      <path d="M -48.59471 -257.49725 L -54.79471 -253.09725 L -62.99471 -249.09725 L -71.59471 -245.49725 L -80.59471 -241.69725 L -91.59471 -237.69725 L -100.99471 -234.89725 L -109.99471 -232.29725 L -118.99471 -229.69725 L -124.39471 -228.29725 L -129.99471 -227.29725 L -132.99471 -233.69725 L -129.19471 -234.49725 L -124.39471 -235.69725 L -118.79471 -236.89725 L -112.79471 -238.69725 L -108.19471 -240.09725 L -103.99471 -241.29725 L -99.39471 -243.29725 L -94.79471 -244.89725 L -89.99471 -246.89725 L -85.99471 -248.29725 L -80.79471 -250.49725 L -76.19471 -252.09725 L -71.39471 -254.29725 L -66.59471 -256.09725 L -62.59471 -258.09725 L -58.19471 -260.29725 L -53.79471 -262.49725 L -50.39471 -264.09725 Z" fill="url(#Obj_Gradient_3)"/>
      <path d="M -48.59471 -257.49725 L -54.79471 -253.09725 L -62.99471 -249.09725 L -71.59471 -245.49725 L -80.59471 -241.69725 L -91.59471 -237.69725 L -100.99471 -234.89725 L -109.99471 -232.29725 L -118.99471 -229.69725 L -124.39471 -228.29725 L -129.99471 -227.29725 L -132.99471 -233.69725 L -129.19471 -234.49725 L -124.39471 -235.69725 L -118.79471 -236.89725 L -112.79471 -238.69725 L -108.19471 -240.09725 L -103.99471 -241.29725 L -99.39471 -243.29725 L -94.79471 -244.89725 L -89.99471 -246.89725 L -85.99471 -248.29725 L -80.79471 -250.49725 L -76.19471 -252.09725 L -71.39471 -254.29725 L -66.59471 -256.09725 L -62.59471 -258.09725 L -58.19471 -260.29725 L -53.79471 -262.49725 L -50.39471 -264.09725 Z" stroke="#7f8080" stroke-linecap="round" stroke-linejoin="round" stroke-width="1"/>
    </g>
  </g>
</svg>
