<?xml version="1.0" encoding="UTF-8" standalone="no"?>
<!DOCTYPE svg PUBLIC "-//W3C//DTD SVG 1.1//EN" "http://www.w3.org/Graphics/SVG/1.1/DTD/svg11.dtd">
<svg xmlns="http://www.w3.org/2000/svg" xmlns:xl="http://www.w3.org/1999/xlink" version="1.1" viewBox="-954.5 -70.5 432.4053 449.30915" width="432.4053pt" height="449.30915pt" xmlns:dc="http://purl.org/dc/elements/1.1/">
  <metadata> Produced by OmniGraffle 7.4.2 
    <dc:date>2018-03-14 17:26:21 +0000</dc:date>
  </metadata>
  <defs>
    <radialGradient cx="0" cy="0" r="1" id="Gradient" gradientUnits="userSpaceOnUse">
      <stop offset="0" stop-color="#cbcbcb"/>
      <stop offset="1" stop-color="#2b1b0b"/>
    </radialGradient>
    <radialGradient id="Obj_Gradient" xl:href="#Gradient" gradientTransform="translate(-739.24075 -42.6) scale(70.26272)"/>
    <radialGradient cx="0" cy="0" r="1" id="Gradient_2" gradientUnits="userSpaceOnUse">
      <stop offset="0" stop-color="black"/>
      <stop offset="1" stop-color="#2233b5"/>
    </radialGradient>
    <radialGradient id="Obj_Gradient_2" xl:href="#Gradient_2" gradientTransform="translate(-911.8 93.24615) scale(46.03694)"/>
    <radialGradient cx="0" cy="0" r="1" id="Gradient_3" gradientUnits="userSpaceOnUse">
      <stop offset="0" stop-color="black"/>
      <stop offset="1" stop-color="#1f2da5"/>
    </radialGradient>
    <radialGradient id="Obj_Gradient_3" xl:href="#Gradient_3" gradientTransform="translate(-564.7947 92.30275) scale(46.03694)"/>
    <linearGradient x1="0" x2="1" id="Gradient_4" gradientUnits="userSpaceOnUse">
      <stop offset="0" stop-color="black"/>
      <stop offset="1" stop-color="#192282"/>
    </linearGradient>
    <linearGradient id="Obj_Gradient_4" xl:href="#Gradient_4" gradientTransform="translate(-739.213 -69.24411) rotate(90) scale(67.19884)"/>
    <linearGradient x1="0" x2="1" id="Gradient_5" gradientUnits="userSpaceOnUse">
      <stop offset="0" stop-color="black"/>
      <stop offset="1" stop-color="#162177"/>
    </linearGradient>
    <linearGradient id="Obj_Gradient_5" xl:href="#Gradient_5" gradientTransform="translate(-739.94075 -69.24411) rotate(90) scale(25)"/>
    <radialGradient cx="0" cy="0" r="1" id="Gradient_6" gradientUnits="userSpaceOnUse">
      <stop offset="0" stop-color="black"/>
      <stop offset="1" stop-color="#1b2895"/>
    </radialGradient>
    <radialGradient id="Obj_Gradient_6" xl:href="#Gradient_6" gradientTransform="translate(-738.6703 366.9834) scale(135.94141)"/>
  </defs>
  <g stroke="none" stroke-opacity="1" stroke-dasharray="none" fill="none" fill-opacity="1">
    <title>Atl_Madrid</title>
    <rect fill="white" width="432.4053" height="449.30915"/>
    <g>
      <title>Capa 1</title>
      <path d="M -800.9943 -69.40955 L -792.8289 -66.291836 C -791.9709 -65.96424 -791.0941 -65.68833 -790.2031 -65.46558 L -776.4859 -62.03629 C -775.3242 -61.74587 -774.1417 -61.54662 -772.949 -61.44034 L -755.42285 -59.8786 C -754.835 -59.82622 -754.2454 -59.79648 -753.6552 -59.78946 L -738.1763 -59.605185 C -737.886 -59.60173 -737.5956 -59.60377 -737.3053 -59.61131 L -722.882 -59.98594 C -722.5212 -59.99531 -722.1607 -60.013174 -721.8008 -60.03951 L -707.4295 -61.09107 C -706.438 -61.16361 -705.45234 -61.30036 -704.4786 -61.50044 L -692.9056 -63.87845 C -691.8636 -64.09256 -690.83774 -64.3787 -689.83535 -64.73481 L -678.08336 -68.909864 C -676.993 -69.29723 -675.7898 -68.76646 -675.34075 -67.7 L -675.34075 -67.7 C -674.8186 -66.459894 -674.6666 -65.09515 -674.90315 -63.77055 L -675.0836 -62.75986 C -675.3874 -61.058706 -675.8819 -59.397204 -676.55786 -57.80681 L -678.1011 -54.17569 C -678.65965 -52.86142 -679.3394 -51.602025 -680.1315 -50.41382 L -683.8173 -44.88515 C -684.5648 -43.763886 -685.4094 -42.710487 -686.3414 -41.73711 L -692.63646 -35.162263 C -693.5045 -34.25561 -694.4454 -33.42154 -695.4495 -32.668407 L -703.82445 -26.38723 C -704.7009 -25.729916 -705.6231 -25.13606 -706.5842 -24.610197 L -713.7694 -20.678672 C -715.0805 -19.961265 -716.4584 -19.373362 -717.8836 -18.923302 L -724.5565 -16.816068 C -726.2734 -16.273897 -728.048 -15.935195 -729.8439 -15.80692 L -736.7303 -15.31503 C -737.8026 -15.238437 -738.879 -15.237118 -739.95146 -15.311082 L -748.3877 -15.892893 C -749.4219 -15.964216 -750.4501 -16.105373 -751.4652 -16.3154 L -758.6004 -17.79165 C -760.55235 -18.195503 -762.4435 -18.851386 -764.2264 -19.742815 L -768.8858 -22.07252 C -770.1199 -22.689587 -771.296 -23.41646 -772.3999 -24.244345 L -778.0818 -28.505813 C -778.521 -28.835165 -778.9482 -29.180132 -779.3626 -29.54005 L -785.1178 -34.53797 C -785.9321 -35.245115 -786.6956 -36.008655 -787.4028 -36.82294 L -791.808 -41.895624 C -792.5621 -42.763985 -793.25 -43.687685 -793.8659 -44.65895 L -797.5996 -50.54671 C -797.9602 -51.115296 -798.2956 -51.69944 -798.60495 -52.29745 L -800.2253 -55.430173 C -800.8345 -56.60785 -801.3406 -57.836 -801.7382 -59.10089 L -803.0184 -63.17438 C -803.2332 -63.85775 -803.4159 -64.55079 -803.566 -65.25122 L -803.6408 -65.6 C -803.8354 -66.508426 -803.7282 -67.45557 -803.3353 -68.29746 L -803.2408 -68.5 C -802.8463 -69.34531 -801.8658 -69.74229 -800.9943 -69.40955 Z" fill="url(#Obj_Gradient)"/>
      <path d="M -800.9943 -69.40955 L -792.8289 -66.291836 C -791.9709 -65.96424 -791.0941 -65.68833 -790.2031 -65.46558 L -776.4859 -62.03629 C -775.3242 -61.74587 -774.1417 -61.54662 -772.949 -61.44034 L -755.42285 -59.8786 C -754.835 -59.82622 -754.2454 -59.79648 -753.6552 -59.78946 L -738.1763 -59.605185 C -737.886 -59.60173 -737.5956 -59.60377 -737.3053 -59.61131 L -722.882 -59.98594 C -722.5212 -59.99531 -722.1607 -60.013174 -721.8008 -60.03951 L -707.4295 -61.09107 C -706.438 -61.16361 -705.45234 -61.30036 -704.4786 -61.50044 L -692.9056 -63.87845 C -691.8636 -64.09256 -690.83774 -64.3787 -689.83535 -64.73481 L -678.08336 -68.909864 C -676.993 -69.29723 -675.7898 -68.76646 -675.34075 -67.7 L -675.34075 -67.7 C -674.8186 -66.459894 -674.6666 -65.09515 -674.90315 -63.77055 L -675.0836 -62.75986 C -675.3874 -61.058706 -675.8819 -59.397204 -676.55786 -57.80681 L -678.1011 -54.17569 C -678.65965 -52.86142 -679.3394 -51.602025 -680.1315 -50.41382 L -683.8173 -44.88515 C -684.5648 -43.763886 -685.4094 -42.710487 -686.3414 -41.73711 L -692.63646 -35.162263 C -693.5045 -34.25561 -694.4454 -33.42154 -695.4495 -32.668407 L -703.82445 -26.38723 C -704.7009 -25.729916 -705.6231 -25.13606 -706.5842 -24.610197 L -713.7694 -20.678672 C -715.0805 -19.961265 -716.4584 -19.373362 -717.8836 -18.923302 L -724.5565 -16.816068 C -726.2734 -16.273897 -728.048 -15.935195 -729.8439 -15.80692 L -736.7303 -15.31503 C -737.8026 -15.238437 -738.879 -15.237118 -739.95146 -15.311082 L -748.3877 -15.892893 C -749.4219 -15.964216 -750.4501 -16.105373 -751.4652 -16.3154 L -758.6004 -17.79165 C -760.55235 -18.195503 -762.4435 -18.851386 -764.2264 -19.742815 L -768.8858 -22.07252 C -770.1199 -22.689587 -771.296 -23.41646 -772.3999 -24.244345 L -778.0818 -28.505813 C -778.521 -28.835165 -778.9482 -29.180132 -779.3626 -29.54005 L -785.1178 -34.53797 C -785.9321 -35.245115 -786.6956 -36.008655 -787.4028 -36.82294 L -791.808 -41.895624 C -792.5621 -42.763985 -793.25 -43.687685 -793.8659 -44.65895 L -797.5996 -50.54671 C -797.9602 -51.115296 -798.2956 -51.69944 -798.60495 -52.29745 L -800.2253 -55.430173 C -800.8345 -56.60785 -801.3406 -57.836 -801.7382 -59.10089 L -803.0184 -63.17438 C -803.2332 -63.85775 -803.4159 -64.55079 -803.566 -65.25122 L -803.6408 -65.6 C -803.8354 -66.508426 -803.7282 -67.45557 -803.3353 -68.29746 L -803.2408 -68.5 C -802.8463 -69.34531 -801.8658 -69.74229 -800.9943 -69.40955 Z" stroke="#7f8080" stroke-linecap="round" stroke-linejoin="round" stroke-width="1"/>
      <path d="M -866.6699 368.17293 L -852.9277 370.4633 C -852.7443 370.49387 -852.5604 370.52123 -852.3761 370.5454 L -824.0225 374.2607 C -823.7759 374.293 -823.5287 374.31955 -823.2809 374.34033 L -793.038 376.87683 C -792.7811 376.89837 -792.5237 376.9137 -792.2661 376.9228 L -753.3352 378.29916 C -753.1468 378.3058 -752.95835 378.30915 -752.7699 378.30915 L -721.30255 378.30915 C -721.1359 378.30915 -720.9693 378.30655 -720.8028 378.30134 L -695.768 377.519 C -695.5578 377.51244 -695.3477 377.5017 -695.13785 377.48687 L -673.0901 375.92596 C -672.9318 375.91476 -672.77364 375.9012 -672.6157 375.8853 L -647.35525 373.33965 C -647.1535 373.3193 -646.9522 373.29516 -646.75135 373.26717 L -622.95866 369.9518 C -622.75465 369.92337 -622.5512 369.891 -622.34844 369.8547 L -613.1526 368.20915 C -607.8255 367.2559 -604.17464 362.30223 -604.84105 356.9317 L -607.04864 339.14113 C -607.0513 339.1198 -607.0539 339.0985 -607.05645 339.07716 L -610.6203 309.37863 C -610.6418 309.199 -610.66034 309.019 -610.6758 308.83873 L -613.038 281.2795 C -613.04774 281.16594 -613.0563 281.05227 -613.0636 280.9385 L -614.4502 259.34687 C -614.4518 259.32172 -614.4535 259.29658 -614.4552 259.27144 L -616.0474 236.18513 C -616.0509 236.13448 -616.0541 236.0838 -616.0571 236.03312 L -617.2335 216.23095 C -617.24624 216.01644 -617.25466 215.8017 -617.25875 215.58684 L -617.651 194.992 C -617.6521 194.93677 -617.6534 194.88154 -617.65505 194.82632 L -618.2502 174.59198 C -618.2518 174.53676 -618.25314 174.48153 -618.2542 174.4263 L -618.64485 153.91676 C -618.65 153.64506 -618.6483 153.37328 -618.6396 153.10167 L -618.05366 134.74206 C -618.05296 134.72012 -618.0522 134.69818 -618.0514 134.67624 L -617.26334 112.80693 C -617.2562 112.60842 -617.24534 112.41007 -617.2308 112.21197 L -615.6733 90.99135 C -615.6595 90.80323 -615.64904 90.61488 -615.6419 90.42638 L -614.88744 70.52752 C -614.86424 69.91577 -614.80596 69.30586 -614.7129 68.7008 L -611.9739 50.89728 C -611.8931 50.37218 -611.7862 49.85143 -611.6536 49.33697 L -607.0253 31.379318 C -606.91024 30.932745 -606.7759 30.491357 -606.62266 30.05639 L -600.9019 13.81675 C -600.7358 13.345273 -600.5477 12.881838 -600.3382 12.42797 L -594.8067 .442931 C -594.704 .22043652 -594.5962 33051733e-11 -594.4834 -.2172128 L -589.1212 -10.558638 C -589.07546 -10.646781 -589.02894 -10.734496 -588.9816 -10.821772 L -583.7656 -20.438735 C -583.02835 -21.798092 -582.0787 -23.03099 -580.9526 -24.090855 L -580.9526 -24.090855 C -580.2774 -24.726328 -580.2452 -25.78883 -580.8807 -26.46402 C -581.0052 -26.596295 -581.1503 -26.70749 -581.31045 -26.793267 L -584.5246 -28.515126 C -584.74324 -28.632263 -584.9646 -28.7443 -585.18845 -28.851144 L -593.0424 -32.599632 C -593.449 -32.793694 -593.86366 -32.970495 -594.2852 -33.129563 L -603.96 -36.780444 C -604.15506 -36.854044 -604.3515 -36.923826 -604.5493 -36.98975 L -617.2438 -41.22124 C -617.383 -41.26765 -617.52284 -41.31214 -617.6633 -41.3547 L -630.5468 -45.258796 C -630.61734 -45.28017 -630.6877 -45.30203 -630.75795 -45.324374 L -643.26195 -49.30292 C -643.6556 -49.42816 -644.0442 -49.568604 -644.427 -49.723925 L -656.4029 -54.58373 C -657.2346 -54.921215 -658.03636 -55.32808 -658.7998 -55.80002 L -668.41904 -61.74647 C -668.57474 -61.84272 -668.7288 -61.941636 -668.8811 -62.043175 L -673.7712 -65.30324 C -674.7526 -65.9575 -675.6239 -66.7634 -676.3526 -67.690856 L -676.3526 -67.690856 C -676.4582 -67.82526 -676.6528 -67.84861 -676.7872 -67.743005 C -676.8899 -67.66228 -676.9309 -67.52573 -676.8896 -67.40177 L -676.7526 -66.990856 C -676.2934 -65.613104 -676.1888 -64.14182 -676.4486 -62.71297 L -676.8437 -60.5397 C -677.11494 -59.04804 -677.5968 -57.602504 -678.2748 -56.24645 L -679.8071 -53.181816 C -680.1038 -52.588417 -680.43715 -52.014046 -680.8052 -51.46203 L -684.0089 -46.656474 C -684.4375 -46.01357 -684.9121 -45.402563 -685.429 -44.82824 L -689.991 -39.7593 C -690.0321 -39.71367 -690.0734 -39.66828 -690.115 -39.623124 L -696.1092 -33.115098 C -696.737 -32.433558 -697.4227 -31.807835 -698.15875 -31.244984 L -703.1829 -27.40297 C -703.6291 -27.061796 -704.0929 -26.744352 -704.5724 -26.451955 L -711.0588 -22.49683 C -711.7205 -22.09338 -712.4106 -21.738534 -713.12365 -21.435094 L -720.2391 -18.40726 C -721.0467 -18.063573 -721.8813 -17.78693 -722.73434 -17.580132 L -726.8134 -16.59127 C -727.6382 -16.39131 -728.4777 -16.257298 -729.3238 -16.190501 L -735.024 -15.740485 C -735.4429 -15.707411 -735.863 -15.690855 -736.2832 -15.690855 L -743.3155 -15.690855 C -744.0726 -15.690855 -744.8288 -15.744593 -745.5783 -15.851663 L -753.5247 -16.98687 C -754.0097 -17.056157 -754.4913 -17.147684 -754.9679 -17.261162 L -760.9291 -18.680502 C -762.0746 -18.953237 -763.1865 -19.35159 -764.2446 -19.868322 L -770.5246 -22.9353 C -771.0096 -23.172185 -771.4824 -23.433465 -771.941 -23.718138 L -776.1529 -26.332398 C -776.752 -26.704296 -777.326 -27.1154 -777.8709 -27.56302 L -782.317 -31.21518 C -782.5407 -31.39893 -782.7594 -31.588717 -782.9728 -31.784332 L -786.7751 -35.269813 C -787.2264 -35.6835 -787.6536 -36.12275 -788.0545 -36.58539 L -792.1733 -41.33779 C -792.4927 -41.70631 -792.795 -42.089234 -793.0794 -42.48537 L -797.5091 -48.655246 C -798.004 -49.34456 -798.4433 -50.07215 -798.8228 -50.831137 L -801.3992 -55.984064 C -801.4348 -56.05526 -801.4699 -56.126715 -801.5044 -56.19843 L -802.7526 -58.790856 C -803.6033 -60.557725 -803.95885 -62.52226 -803.7813 -64.475214 L -803.6011 -66.45747 C -803.5773 -66.71933 -803.7703 -66.95091 -804.0321 -66.97472 C -804.1945 -66.98948 -804.3532 -66.920105 -804.4526 -66.790856 L -804.4526 -66.790856 C -805.1161 -65.928375 -805.8962 -65.1623 -806.7705 -64.51461 L -810.6671 -61.62829 C -810.7908 -61.53667 -810.9158 -61.446844 -811.042 -61.35883 L -815.6643 -58.137265 C -816.851 -57.310146 -818.1444 -56.64778 -819.5092 -56.168273 L -824.1163 -54.549553 C -824.6069 -54.37719 -825.0888 -54.181016 -825.5602 -53.96173 L -832.407 -50.77718 C -833.1032 -50.453383 -833.8217 -50.180116 -834.5571 -49.959497 L -845.4275 -46.69838 C -845.4443 -46.693364 -845.461 -46.68832 -845.4777 -46.68325 L -856.4458 -43.35365 C -856.5837 -43.31179 -856.721 -43.268066 -856.8577 -43.222494 L -869.7789 -38.915416 C -869.8281 -38.899042 -869.8773 -38.882907 -869.9265 -38.86701 L -881.2939 -35.200106 C -881.9324 -34.994143 -882.5573 -34.748226 -883.1649 -34.46381 L -891.0969 -30.750977 C -891.4672 -30.577626 -891.8308 -30.390142 -892.1868 -30.18894 L -898.1329 -26.82809 C -899.3859 -26.119855 -899.8276 -24.52993 -899.1193 -23.276897 C -899.0422 -23.140458 -898.953 -23.011254 -898.8526 -22.890855 L -897.9885 -21.853922 C -897.2336 -20.947987 -896.5811 -19.961367 -896.043 -18.912038 L -892.9658 -12.911619 C -892.8904 -12.764452 -892.8126 -12.618464 -892.7326 -12.473707 L -888.7779 -5.317488 C -888.6944 -5.166409 -888.6133 -5.013989 -888.5348 -4.8602874 L -884.4265 3.1777 C -884.1774 3.6650093 -883.9535 4.1647766 -883.7556 4.675031 L -880.2729 13.656909 C -880.2594 13.691733 -880.2457 13.72651 -880.232 13.761239 L -876.6357 22.846685 C -876.5137 23.154918 -876.4013 23.466868 -876.2986 23.782083 L -873.6768 31.83486 C -873.6607 31.884384 -873.6448 31.933985 -873.6292 31.983663 L -870.5571 41.741934 C -870.3543 42.386096 -870.1925 43.04245 -870.0727 43.70706 L -868.0874 54.716517 C -868.0642 54.84493 -868.0426 54.973625 -868.0226 55.10257 L -866.3167 66.09595 C -866.274 66.37137 -866.2385 66.647854 -866.2102 66.92513 L -865.3227 75.62184 C -865.276 76.07983 -865.2491 76.53962 -865.242 76.99994 L -865.0577 88.97556 C -865.0543 89.19793 -865.0463 89.4202 -865.0336 89.64223 L -864.2632 103.12379 C -864.2561 103.24736 -864.2477 103.37084 -864.2377 103.4942 L -862.9042 120.06858 C -862.8698 120.49545 -862.8526 120.92353 -862.8526 121.35179 L -862.8526 133.80157 C -862.8526 134.0066 -862.8487 134.21162 -862.8408 134.4165 L -862.2604 149.50564 C -862.2552 149.6413 -862.2517 149.77703 -862.25 149.9128 L -862.0578 164.70905 C -862.0543 164.97574 -862.0576 165.24248 -862.0674 165.509 L -862.6417 181.01316 C -862.649 181.21047 -862.6526 181.4079 -862.6526 181.60534 L -862.6526 195.20157 C -862.6526 195.4066 -862.6566 195.61162 -862.6644 195.8165 L -863.2496 211.0315 C -863.2516 211.08327 -863.2539 211.13502 -863.2564 211.18676 L -864.0517 227.6897 C -864.0523 227.70266 -864.0529 227.71563 -864.0536 227.7286 L -864.8481 243.41976 C -864.8511 243.47935 -864.8545 243.53893 -864.8581 243.59848 L -866.047 262.8192 C -866.0508 262.87917 -866.0548 262.9391 -866.0592 262.99902 L -867.8423 287.36857 C -867.8492 287.4623 -867.8569 287.55594 -867.8654 287.64953 L -869.6513 307.29434 C -869.6522 307.3042 -869.6531 307.3141 -869.654 307.32396 L -871.4248 326.40886 C -871.4433 326.60904 -871.4657 326.80884 -871.4918 327.00818 L -873.4525 341.9809 C -873.5853 342.9951 -873.8544 343.9867 -874.2526 344.92888 L -874.2526 344.92888 C -874.6502 345.86962 -874.8989 346.86654 -874.9897 347.8838 L -875.7526 356.42888 C -876.2604 362.1159 -872.3019 367.23427 -866.6699 368.17293 Z" fill="#ff4040"/>
      <path d="M -866.6699 368.17293 L -852.9277 370.4633 C -852.7443 370.49387 -852.5604 370.52123 -852.3761 370.5454 L -824.0225 374.2607 C -823.7759 374.293 -823.5287 374.31955 -823.2809 374.34033 L -793.038 376.87683 C -792.7811 376.89837 -792.5237 376.9137 -792.2661 376.9228 L -753.3352 378.29916 C -753.1468 378.3058 -752.95835 378.30915 -752.7699 378.30915 L -721.30255 378.30915 C -721.1359 378.30915 -720.9693 378.30655 -720.8028 378.30134 L -695.768 377.519 C -695.5578 377.51244 -695.3477 377.5017 -695.13785 377.48687 L -673.0901 375.92596 C -672.9318 375.91476 -672.77364 375.9012 -672.6157 375.8853 L -647.35525 373.33965 C -647.1535 373.3193 -646.9522 373.29516 -646.75135 373.26717 L -622.95866 369.9518 C -622.75465 369.92337 -622.5512 369.891 -622.34844 369.8547 L -613.1526 368.20915 C -607.8255 367.2559 -604.17464 362.30223 -604.84105 356.9317 L -607.04864 339.14113 C -607.0513 339.1198 -607.0539 339.0985 -607.05645 339.07716 L -610.6203 309.37863 C -610.6418 309.199 -610.66034 309.019 -610.6758 308.83873 L -613.038 281.2795 C -613.04774 281.16594 -613.0563 281.05227 -613.0636 280.9385 L -614.4502 259.34687 C -614.4518 259.32172 -614.4535 259.29658 -614.4552 259.27144 L -616.0474 236.18513 C -616.0509 236.13448 -616.0541 236.0838 -616.0571 236.03312 L -617.2335 216.23095 C -617.24624 216.01644 -617.25466 215.8017 -617.25875 215.58684 L -617.651 194.992 C -617.6521 194.93677 -617.6534 194.88154 -617.65505 194.82632 L -618.2502 174.59198 C -618.2518 174.53676 -618.25314 174.48153 -618.2542 174.4263 L -618.64485 153.91676 C -618.65 153.64506 -618.6483 153.37328 -618.6396 153.10167 L -618.05366 134.74206 C -618.05296 134.72012 -618.0522 134.69818 -618.0514 134.67624 L -617.26334 112.80693 C -617.2562 112.60842 -617.24534 112.41007 -617.2308 112.21197 L -615.6733 90.99135 C -615.6595 90.80323 -615.64904 90.61488 -615.6419 90.42638 L -614.88744 70.52752 C -614.86424 69.91577 -614.80596 69.30586 -614.7129 68.7008 L -611.9739 50.89728 C -611.8931 50.37218 -611.7862 49.85143 -611.6536 49.33697 L -607.0253 31.379318 C -606.91024 30.932745 -606.7759 30.491357 -606.62266 30.05639 L -600.9019 13.81675 C -600.7358 13.345273 -600.5477 12.881838 -600.3382 12.42797 L -594.8067 .442931 C -594.704 .22043652 -594.5962 33051733e-11 -594.4834 -.2172128 L -589.1212 -10.558638 C -589.07546 -10.646781 -589.02894 -10.734496 -588.9816 -10.821772 L -583.7656 -20.438735 C -583.02835 -21.798092 -582.0787 -23.03099 -580.9526 -24.090855 L -580.9526 -24.090855 C -580.2774 -24.726328 -580.2452 -25.78883 -580.8807 -26.46402 C -581.0052 -26.596295 -581.1503 -26.70749 -581.31045 -26.793267 L -584.5246 -28.515126 C -584.74324 -28.632263 -584.9646 -28.7443 -585.18845 -28.851144 L -593.0424 -32.599632 C -593.449 -32.793694 -593.86366 -32.970495 -594.2852 -33.129563 L -603.96 -36.780444 C -604.15506 -36.854044 -604.3515 -36.923826 -604.5493 -36.98975 L -617.2438 -41.22124 C -617.383 -41.26765 -617.52284 -41.31214 -617.6633 -41.3547 L -630.5468 -45.258796 C -630.61734 -45.28017 -630.6877 -45.30203 -630.75795 -45.324374 L -643.26195 -49.30292 C -643.6556 -49.42816 -644.0442 -49.568604 -644.427 -49.723925 L -656.4029 -54.58373 C -657.2346 -54.921215 -658.03636 -55.32808 -658.7998 -55.80002 L -668.41904 -61.74647 C -668.57474 -61.84272 -668.7288 -61.941636 -668.8811 -62.043175 L -673.7712 -65.30324 C -674.7526 -65.9575 -675.6239 -66.7634 -676.3526 -67.690856 L -676.3526 -67.690856 C -676.4582 -67.82526 -676.6528 -67.84861 -676.7872 -67.743005 C -676.8899 -67.66228 -676.9309 -67.52573 -676.8896 -67.40177 L -676.7526 -66.990856 C -676.2934 -65.613104 -676.1888 -64.14182 -676.4486 -62.71297 L -676.8437 -60.5397 C -677.11494 -59.04804 -677.5968 -57.602504 -678.2748 -56.24645 L -679.8071 -53.181816 C -680.1038 -52.588417 -680.43715 -52.014046 -680.8052 -51.46203 L -684.0089 -46.656474 C -684.4375 -46.01357 -684.9121 -45.402563 -685.429 -44.82824 L -689.991 -39.7593 C -690.0321 -39.71367 -690.0734 -39.66828 -690.115 -39.623124 L -696.1092 -33.115098 C -696.737 -32.433558 -697.4227 -31.807835 -698.15875 -31.244984 L -703.1829 -27.40297 C -703.6291 -27.061796 -704.0929 -26.744352 -704.5724 -26.451955 L -711.0588 -22.49683 C -711.7205 -22.09338 -712.4106 -21.738534 -713.12365 -21.435094 L -720.2391 -18.40726 C -721.0467 -18.063573 -721.8813 -17.78693 -722.73434 -17.580132 L -726.8134 -16.59127 C -727.6382 -16.39131 -728.4777 -16.257298 -729.3238 -16.190501 L -735.024 -15.740485 C -735.4429 -15.707411 -735.863 -15.690855 -736.2832 -15.690855 L -743.3155 -15.690855 C -744.0726 -15.690855 -744.8288 -15.744593 -745.5783 -15.851663 L -753.5247 -16.98687 C -754.0097 -17.056157 -754.4913 -17.147684 -754.9679 -17.261162 L -760.9291 -18.680502 C -762.0746 -18.953237 -763.1865 -19.35159 -764.2446 -19.868322 L -770.5246 -22.9353 C -771.0096 -23.172185 -771.4824 -23.433465 -771.941 -23.718138 L -776.1529 -26.332398 C -776.752 -26.704296 -777.326 -27.1154 -777.8709 -27.56302 L -782.317 -31.21518 C -782.5407 -31.39893 -782.7594 -31.588717 -782.9728 -31.784332 L -786.7751 -35.269813 C -787.2264 -35.6835 -787.6536 -36.12275 -788.0545 -36.58539 L -792.1733 -41.33779 C -792.4927 -41.70631 -792.795 -42.089234 -793.0794 -42.48537 L -797.5091 -48.655246 C -798.004 -49.34456 -798.4433 -50.07215 -798.8228 -50.831137 L -801.3992 -55.984064 C -801.4348 -56.05526 -801.4699 -56.126715 -801.5044 -56.19843 L -802.7526 -58.790856 C -803.6033 -60.557725 -803.95885 -62.52226 -803.7813 -64.475214 L -803.6011 -66.45747 C -803.5773 -66.71933 -803.7703 -66.95091 -804.0321 -66.97472 C -804.1945 -66.98948 -804.3532 -66.920105 -804.4526 -66.790856 L -804.4526 -66.790856 C -805.1161 -65.928375 -805.8962 -65.1623 -806.7705 -64.51461 L -810.6671 -61.62829 C -810.7908 -61.53667 -810.9158 -61.446844 -811.042 -61.35883 L -815.6643 -58.137265 C -816.851 -57.310146 -818.1444 -56.64778 -819.5092 -56.168273 L -824.1163 -54.549553 C -824.6069 -54.37719 -825.0888 -54.181016 -825.5602 -53.96173 L -832.407 -50.77718 C -833.1032 -50.453383 -833.8217 -50.180116 -834.5571 -49.959497 L -845.4275 -46.69838 C -845.4443 -46.693364 -845.461 -46.68832 -845.4777 -46.68325 L -856.4458 -43.35365 C -856.5837 -43.31179 -856.721 -43.268066 -856.8577 -43.222494 L -869.7789 -38.915416 C -869.8281 -38.899042 -869.8773 -38.882907 -869.9265 -38.86701 L -881.2939 -35.200106 C -881.9324 -34.994143 -882.5573 -34.748226 -883.1649 -34.46381 L -891.0969 -30.750977 C -891.4672 -30.577626 -891.8308 -30.390142 -892.1868 -30.18894 L -898.1329 -26.82809 C -899.3859 -26.119855 -899.8276 -24.52993 -899.1193 -23.276897 C -899.0422 -23.140458 -898.953 -23.011254 -898.8526 -22.890855 L -897.9885 -21.853922 C -897.2336 -20.947987 -896.5811 -19.961367 -896.043 -18.912038 L -892.9658 -12.911619 C -892.8904 -12.764452 -892.8126 -12.618464 -892.7326 -12.473707 L -888.7779 -5.317488 C -888.6944 -5.166409 -888.6133 -5.013989 -888.5348 -4.8602874 L -884.4265 3.1777 C -884.1774 3.6650093 -883.9535 4.1647766 -883.7556 4.675031 L -880.2729 13.656909 C -880.2594 13.691733 -880.2457 13.72651 -880.232 13.761239 L -876.6357 22.846685 C -876.5137 23.154918 -876.4013 23.466868 -876.2986 23.782083 L -873.6768 31.83486 C -873.6607 31.884384 -873.6448 31.933985 -873.6292 31.983663 L -870.5571 41.741934 C -870.3543 42.386096 -870.1925 43.04245 -870.0727 43.70706 L -868.0874 54.716517 C -868.0642 54.84493 -868.0426 54.973625 -868.0226 55.10257 L -866.3167 66.09595 C -866.274 66.37137 -866.2385 66.647854 -866.2102 66.92513 L -865.3227 75.62184 C -865.276 76.07983 -865.2491 76.53962 -865.242 76.99994 L -865.0577 88.97556 C -865.0543 89.19793 -865.0463 89.4202 -865.0336 89.64223 L -864.2632 103.12379 C -864.2561 103.24736 -864.2477 103.37084 -864.2377 103.4942 L -862.9042 120.06858 C -862.8698 120.49545 -862.8526 120.92353 -862.8526 121.35179 L -862.8526 133.80157 C -862.8526 134.0066 -862.8487 134.21162 -862.8408 134.4165 L -862.2604 149.50564 C -862.2552 149.6413 -862.2517 149.77703 -862.25 149.9128 L -862.0578 164.70905 C -862.0543 164.97574 -862.0576 165.24248 -862.0674 165.509 L -862.6417 181.01316 C -862.649 181.21047 -862.6526 181.4079 -862.6526 181.60534 L -862.6526 195.20157 C -862.6526 195.4066 -862.6566 195.61162 -862.6644 195.8165 L -863.2496 211.0315 C -863.2516 211.08327 -863.2539 211.13502 -863.2564 211.18676 L -864.0517 227.6897 C -864.0523 227.70266 -864.0529 227.71563 -864.0536 227.7286 L -864.8481 243.41976 C -864.8511 243.47935 -864.8545 243.53893 -864.8581 243.59848 L -866.047 262.8192 C -866.0508 262.87917 -866.0548 262.9391 -866.0592 262.99902 L -867.8423 287.36857 C -867.8492 287.4623 -867.8569 287.55594 -867.8654 287.64953 L -869.6513 307.29434 C -869.6522 307.3042 -869.6531 307.3141 -869.654 307.32396 L -871.4248 326.40886 C -871.4433 326.60904 -871.4657 326.80884 -871.4918 327.00818 L -873.4525 341.9809 C -873.5853 342.9951 -873.8544 343.9867 -874.2526 344.92888 L -874.2526 344.92888 C -874.6502 345.86962 -874.8989 346.86654 -874.9897 347.8838 L -875.7526 356.42888 C -876.2604 362.1159 -872.3019 367.23427 -866.6699 368.17293 Z" stroke="#7f8080" stroke-linecap="round" stroke-linejoin="round" stroke-width="1"/>
      <path d="M -954 81.44615 L -947.8 85.84615 L -939.6 89.84615 L -931 93.44615 L -922 97.24615 L -911 101.24615 L -901.6 104.04615 L -892.6 106.64615 L -883.6 109.24615 L -878.2 110.64615 L -872.6 111.64615 L -870.2 105.84615 L -867.6 100.44615 L -865.4 96.44615 L -862.8 93.04615 L -862.6 84.04615 L -863.2 73.046145 L -865 62.246145 L -866.6 51.846145 L -869.2 40.846145 L -871.6 31.246145 L -874.4 23.246145 L -877.6 13.846145 L -880.4 6.4461445 L -884 -1.1538556 L -888 -8.753856 L -892 -16.153856 L -894.6 -19.753856 L -898.2 -25.553856 L -903.6 -21.153856 L -908.4 -16.353856 L -913 -10.153856 L -917.4 -3.9538557 L -922.2 4.6461444 L -927 14.046145 L -931.8 23.246145 L -935.4 31.846145 L -939.4 40.846145 L -942.6 49.046145 L -946.4 58.446145 L -949.2 66.446145 L -952.2 74.846145 Z" fill="#ff4040"/>
      <path d="M -954 81.44615 L -947.8 85.84615 L -939.6 89.84615 L -931 93.44615 L -922 97.24615 L -911 101.24615 L -901.6 104.04615 L -892.6 106.64615 L -883.6 109.24615 L -878.2 110.64615 L -872.6 111.64615 L -870.2 105.84615 L -867.6 100.44615 L -865.4 96.44615 L -862.8 93.04615 L -862.6 84.04615 L -863.2 73.046145 L -865 62.246145 L -866.6 51.846145 L -869.2 40.846145 L -871.6 31.246145 L -874.4 23.246145 L -877.6 13.846145 L -880.4 6.4461445 L -884 -1.1538556 L -888 -8.753856 L -892 -16.153856 L -894.6 -19.753856 L -898.2 -25.553856 L -903.6 -21.153856 L -908.4 -16.353856 L -913 -10.153856 L -917.4 -3.9538557 L -922.2 4.6461444 L -927 14.046145 L -931.8 23.246145 L -935.4 31.846145 L -939.4 40.846145 L -942.6 49.046145 L -946.4 58.446145 L -949.2 66.446145 L -952.2 74.846145 Z" stroke="#7f8080" stroke-linecap="round" stroke-linejoin="round" stroke-width="1"/>
      <path d="M -522.5947 80.50275 L -528.7947 84.90275 L -536.9947 88.90275 L -545.5947 92.50275 L -554.5947 96.30275 L -565.5947 100.30275 L -574.9947 103.10275 L -583.9947 105.70275 L -592.9947 108.30275 L -598.3947 109.70275 L -603.9947 110.70275 L -606.3947 104.90275 L -608.9947 99.50275 L -611.1947 95.50275 L -613.7947 92.10275 L -613.9947 83.10275 L -613.3947 72.10275 L -611.5947 61.30275 L -609.9947 50.90275 L -607.3947 39.90275 L -604.9947 30.30275 L -602.1947 22.302748 L -598.9947 12.902748 L -596.1947 5.502748 L -592.5947 -2.0972519 L -588.5947 -9.697252 L -584.5947 -17.097252 L -581.9947 -20.697252 L -578.3947 -26.497252 L -572.9947 -22.097252 L -568.1947 -17.297252 L -563.5947 -11.097252 L -559.1947 -4.897252 L -554.3947 3.7027482 L -549.5947 13.102748 L -544.7947 22.302748 L -541.1947 30.90275 L -537.1947 39.90275 L -533.9947 48.10275 L -530.1947 57.50275 L -527.3947 65.50275 L -524.3947 73.90275 Z" fill="red"/>
      <path d="M -522.5947 80.50275 L -528.7947 84.90275 L -536.9947 88.90275 L -545.5947 92.50275 L -554.5947 96.30275 L -565.5947 100.30275 L -574.9947 103.10275 L -583.9947 105.70275 L -592.9947 108.30275 L -598.3947 109.70275 L -603.9947 110.70275 L -606.3947 104.90275 L -608.9947 99.50275 L -611.1947 95.50275 L -613.7947 92.10275 L -613.9947 83.10275 L -613.3947 72.10275 L -611.5947 61.30275 L -609.9947 50.90275 L -607.3947 39.90275 L -604.9947 30.30275 L -602.1947 22.302748 L -598.9947 12.902748 L -596.1947 5.502748 L -592.5947 -2.0972519 L -588.5947 -9.697252 L -584.5947 -17.097252 L -581.9947 -20.697252 L -578.3947 -26.497252 L -572.9947 -22.097252 L -568.1947 -17.297252 L -563.5947 -11.097252 L -559.1947 -4.897252 L -554.3947 3.7027482 L -549.5947 13.102748 L -544.7947 22.302748 L -541.1947 30.90275 L -537.1947 39.90275 L -533.9947 48.10275 L -530.1947 57.50275 L -527.3947 65.50275 L -524.3947 73.90275 Z" stroke="#7f8080" stroke-linecap="round" stroke-linejoin="round" stroke-width="1"/>
      <path d="M -954 81.44615 L -947.8 85.84615 L -939.6 89.84615 L -931 93.44615 L -922 97.24615 L -911 101.24615 L -901.6 104.04615 L -892.6 106.64615 L -883.6 109.24615 L -878.2 110.64615 L -872.6 111.64615 L -869.6 105.24615 L -873.4 104.44615 L -878.2 103.24615 L -883.8 102.04615 L -889.8 100.24615 L -894.4 98.84615 L -898.6 97.64615 L -903.2 95.64615 L -907.8 94.04615 L -912.6 92.04615 L -916.6 90.64615 L -921.8 88.44615 L -926.4 86.84615 L -931.2 84.64615 L -936 82.84615 L -940 80.84615 L -944.4 78.64615 L -948.8 76.44615 L -952.2 74.846145 Z" fill="url(#Obj_Gradient_2)"/>
      <path d="M -954 81.44615 L -947.8 85.84615 L -939.6 89.84615 L -931 93.44615 L -922 97.24615 L -911 101.24615 L -901.6 104.04615 L -892.6 106.64615 L -883.6 109.24615 L -878.2 110.64615 L -872.6 111.64615 L -869.6 105.24615 L -873.4 104.44615 L -878.2 103.24615 L -883.8 102.04615 L -889.8 100.24615 L -894.4 98.84615 L -898.6 97.64615 L -903.2 95.64615 L -907.8 94.04615 L -912.6 92.04615 L -916.6 90.64615 L -921.8 88.44615 L -926.4 86.84615 L -931.2 84.64615 L -936 82.84615 L -940 80.84615 L -944.4 78.64615 L -948.8 76.44615 L -952.2 74.846145 Z" stroke="#7f8080" stroke-linecap="round" stroke-linejoin="round" stroke-width="1"/>
      <path d="M -522.5947 80.50275 L -528.7947 84.90275 L -536.9947 88.90275 L -545.5947 92.50275 L -554.5947 96.30275 L -565.5947 100.30275 L -574.9947 103.10275 L -583.9947 105.70275 L -592.9947 108.30275 L -598.3947 109.70275 L -603.9947 110.70275 L -606.9947 104.30275 L -603.1947 103.50275 L -598.3947 102.30275 L -592.7947 101.10275 L -586.7947 99.30275 L -582.1947 97.90275 L -577.9947 96.70275 L -573.3947 94.70275 L -568.7947 93.10275 L -563.9947 91.10275 L -559.9947 89.70275 L -554.7947 87.50275 L -550.1947 85.90275 L -545.3947 83.70275 L -540.5947 81.90275 L -536.5947 79.90275 L -532.1947 77.70275 L -527.7947 75.50275 L -524.3947 73.90275 Z" fill="url(#Obj_Gradient_3)"/>
      <path d="M -522.5947 80.50275 L -528.7947 84.90275 L -536.9947 88.90275 L -545.5947 92.50275 L -554.5947 96.30275 L -565.5947 100.30275 L -574.9947 103.10275 L -583.9947 105.70275 L -592.9947 108.30275 L -598.3947 109.70275 L -603.9947 110.70275 L -606.9947 104.30275 L -603.1947 103.50275 L -598.3947 102.30275 L -592.7947 101.10275 L -586.7947 99.30275 L -582.1947 97.90275 L -577.9947 96.70275 L -573.3947 94.70275 L -568.7947 93.10275 L -563.9947 91.10275 L -559.9947 89.70275 L -554.7947 87.50275 L -550.1947 85.90275 L -545.3947 83.70275 L -540.5947 81.90275 L -536.5947 79.90275 L -532.1947 77.70275 L -527.7947 75.50275 L -524.3947 73.90275 Z" stroke="#7f8080" stroke-linecap="round" stroke-linejoin="round" stroke-width="1"/>
      <path d="M -803.4279 -68.03621 L -808.15705 -63.98264 C -809.3074 -62.996625 -810.5524 -62.12669 -811.8738 -61.385515 L -814.4004 -59.96835 C -815.8356 -59.16338 -816.4164 -57.39425 -815.7376 -55.895265 L -814.72 -53.64803 C -814.5984 -53.379545 -814.4717 -53.11342 -814.3399 -52.849804 L -812.5376 -49.245264 L -810.0506 -44.27129 C -809.7088 -43.5877 -809.3332 -42.921566 -808.925 -42.275375 L -806.5987 -38.59192 C -806.1583 -37.894655 -805.6807 -37.22158 -805.168 -36.575613 L -801.7574 -32.278153 C -801.2113 -31.590125 -800.6263 -30.933944 -800.0052 -30.312833 L -795.3391 -25.64679 C -794.9383 -25.24591 -794.5227 -24.859989 -794.0933 -24.489817 L -789.5298 -20.555744 C -789.1351 -20.215522 -788.729 -19.88881 -788.3122 -19.576173 L -784.3372 -16.594968 C -783.6713 -16.095533 -782.9788 -15.632617 -782.2627 -15.208263 L -778.1296 -12.75904 C -778.0016 -12.683191 -777.8729 -12.608586 -777.7434 -12.535235 L -773.0459 -9.873292 C -772.3076 -9.454927 -771.5467 -9.077742 -770.76675 -8.743466 L -767.2169 -7.222117 C -766.631 -6.97099 -766.0348 -6.744334 -765.43 -6.5427365 L -760.4119 -4.8700343 C -759.1647 -4.454286 -757.8841 -4.1462444 -756.5842 -3.9492936 L -752.4854 -3.328256 C -752.1202 -3.272936 -751.75385 -3.226417 -751.3865 -3.1887396 L -744.5054 -2.4829854 C -744.2602 -2.4578392 -744.0147 -2.4366355 -743.7688 -2.4193825 L -739.24165 -2.1016896 C -738.7058 -2.0640854 -738.1688 -2.0452658 -737.6316 -2.0452656 L -734.3695 -2.0452643 C -733.4158 -2.045264 -732.4631 -2.1045814 -731.5167 -2.222873 L -727.528 -2.7214626 C -726.86805 -2.803958 -726.212 -2.9150408 -725.56165 -3.0543982 L -719.4796 -4.357691 C -718.5857 -4.549236 -717.7041 -4.793903 -716.8393 -5.09039 L -712.3305 -6.636281 C -711.5358 -6.9087315 -710.7567 -7.2245135 -709.9966 -7.582207 L -705.1632 -9.856737 C -704.613 -10.115653 -704.0733 -10.396286 -703.5454 -10.697975 L -699.7775 -12.851042 C -699.0847 -13.246922 -698.413 -13.678585 -697.7651 -14.14428 L -693.0889 -17.505246 C -692.58825 -17.865112 -692.10224 -18.244967 -691.6321 -18.64389 L -686.3112 -23.158555 C -685.9289 -23.48294 -685.5573 -23.81974 -685.197 -24.168416 L -680.4978 -28.716044 C -679.8582 -29.335002 -679.2551 -29.990565 -678.6915 -30.679424 L -674.8982 -35.31566 C -674.3915 -35.934974 -673.9174 -36.58031 -673.478 -37.249036 L -669.8608 -42.753436 C -669.6454 -43.08127 -669.4384 -43.41456 -669.24 -43.75298 L -666.7169 -48.057076 C -666.33094 -48.71546 -665.978 -49.392646 -665.6594 -50.08612 L -663.5407 -54.69739 C -663.0078 -55.85715 -662.6367 -57.084564 -662.4376 -58.345265 L -662.4376 -58.345265 C -662.2593 -59.474526 -662.8386 -60.587974 -663.8657 -61.0901 L -669.1591 -63.678005 C -670.4736 -64.32063 -671.7082 -65.11514 -672.8376 -66.045265 L -673.2436 -66.379625 C -674.08795 -67.07496 -674.71136 -68.00126 -675.0376 -69.045265 L -675.0376 -69.045265 C -675.0843 -69.19458 -675.2431 -69.2778 -675.39246 -69.23114 C -675.5075 -69.19518 -675.5872 -69.090315 -675.5911 -68.96981 L -675.7003 -65.54689 C -675.7911 -62.70381 -676.4084 -59.902236 -677.521 -57.28433 L -678.39794 -55.22096 C -678.9565 -53.906686 -679.6363 -52.64729 -680.4284 -51.45909 L -684.1142 -45.930416 C -684.8617 -44.80915 -685.7063 -43.75575 -686.63825 -42.782376 L -692.9333 -36.20753 C -693.8014 -35.300875 -694.7422 -34.466804 -695.7464 -33.713673 L -704.1213 -27.432495 C -704.9977 -26.775182 -705.92 -26.181326 -706.88104 -25.655463 L -714.06624 -21.723938 C -715.3774 -21.00653 -716.7553 -20.418628 -718.1805 -19.968568 L -724.8534 -17.861334 C -726.5703 -17.319163 -728.3449 -16.980461 -730.1407 -16.852185 L -737.0272 -16.360296 C -738.0995 -16.283703 -739.1758 -16.282384 -740.2483 -16.356348 L -748.6846 -16.93816 C -749.71875 -17.009482 -750.7469 -17.15064 -751.76205 -17.360667 L -758.8973 -18.836916 C -760.8492 -19.240769 -762.7404 -19.896652 -764.5232 -20.78808 L -769.18265 -23.117785 C -770.4168 -23.734853 -771.5929 -24.461726 -772.6967 -25.28961 L -778.3787 -29.55108 C -778.8178 -29.88043 -779.245 -30.225398 -779.6595 -30.585317 L -785.4147 -35.583238 C -786.229 -36.29038 -786.9925 -37.05392 -787.6996 -37.868206 L -792.1049 -42.94089 C -792.859 -43.80925 -793.5469 -44.73295 -794.1628 -45.704217 L -797.8965 -51.59198 C -798.2571 -52.16056 -798.5925 -52.744705 -798.9018 -53.34272 L -800.5222 -56.47544 C -801.1313 -57.65312 -801.6375 -58.881264 -802.035 -60.146155 L -803.3153 -64.21964 C -803.53005 -64.90302 -803.7128 -65.596055 -803.8629 -66.296485 L -804.0883 -67.34843 C -804.1734 -67.74544 -803.947 -68.143094 -803.5622 -68.27263 L -803.5622 -68.27263 C -803.4897 -68.29704 -803.4112 -68.25805 -803.38675 -68.18556 C -803.3687 -68.13205 -803.385 -68.07296 -803.4279 -68.03621 Z" fill="url(#Obj_Gradient_4)"/>
      <path d="M -803.4279 -68.03621 L -808.15705 -63.98264 C -809.3074 -62.996625 -810.5524 -62.12669 -811.8738 -61.385515 L -814.4004 -59.96835 C -815.8356 -59.16338 -816.4164 -57.39425 -815.7376 -55.895265 L -814.72 -53.64803 C -814.5984 -53.379545 -814.4717 -53.11342 -814.3399 -52.849804 L -812.5376 -49.245264 L -810.0506 -44.27129 C -809.7088 -43.5877 -809.3332 -42.921566 -808.925 -42.275375 L -806.5987 -38.59192 C -806.1583 -37.894655 -805.6807 -37.22158 -805.168 -36.575613 L -801.7574 -32.278153 C -801.2113 -31.590125 -800.6263 -30.933944 -800.0052 -30.312833 L -795.3391 -25.64679 C -794.9383 -25.24591 -794.5227 -24.859989 -794.0933 -24.489817 L -789.5298 -20.555744 C -789.1351 -20.215522 -788.729 -19.88881 -788.3122 -19.576173 L -784.3372 -16.594968 C -783.6713 -16.095533 -782.9788 -15.632617 -782.2627 -15.208263 L -778.1296 -12.75904 C -778.0016 -12.683191 -777.8729 -12.608586 -777.7434 -12.535235 L -773.0459 -9.873292 C -772.3076 -9.454927 -771.5467 -9.077742 -770.76675 -8.743466 L -767.2169 -7.222117 C -766.631 -6.97099 -766.0348 -6.744334 -765.43 -6.5427365 L -760.4119 -4.8700343 C -759.1647 -4.454286 -757.8841 -4.1462444 -756.5842 -3.9492936 L -752.4854 -3.328256 C -752.1202 -3.272936 -751.75385 -3.226417 -751.3865 -3.1887396 L -744.5054 -2.4829854 C -744.2602 -2.4578392 -744.0147 -2.4366355 -743.7688 -2.4193825 L -739.24165 -2.1016896 C -738.7058 -2.0640854 -738.1688 -2.0452658 -737.6316 -2.0452656 L -734.3695 -2.0452643 C -733.4158 -2.045264 -732.4631 -2.1045814 -731.5167 -2.222873 L -727.528 -2.7214626 C -726.86805 -2.803958 -726.212 -2.9150408 -725.56165 -3.0543982 L -719.4796 -4.357691 C -718.5857 -4.549236 -717.7041 -4.793903 -716.8393 -5.09039 L -712.3305 -6.636281 C -711.5358 -6.9087315 -710.7567 -7.2245135 -709.9966 -7.582207 L -705.1632 -9.856737 C -704.613 -10.115653 -704.0733 -10.396286 -703.5454 -10.697975 L -699.7775 -12.851042 C -699.0847 -13.246922 -698.413 -13.678585 -697.7651 -14.14428 L -693.0889 -17.505246 C -692.58825 -17.865112 -692.10224 -18.244967 -691.6321 -18.64389 L -686.3112 -23.158555 C -685.9289 -23.48294 -685.5573 -23.81974 -685.197 -24.168416 L -680.4978 -28.716044 C -679.8582 -29.335002 -679.2551 -29.990565 -678.6915 -30.679424 L -674.8982 -35.31566 C -674.3915 -35.934974 -673.9174 -36.58031 -673.478 -37.249036 L -669.8608 -42.753436 C -669.6454 -43.08127 -669.4384 -43.41456 -669.24 -43.75298 L -666.7169 -48.057076 C -666.33094 -48.71546 -665.978 -49.392646 -665.6594 -50.08612 L -663.5407 -54.69739 C -663.0078 -55.85715 -662.6367 -57.084564 -662.4376 -58.345265 L -662.4376 -58.345265 C -662.2593 -59.474526 -662.8386 -60.587974 -663.8657 -61.0901 L -669.1591 -63.678005 C -670.4736 -64.32063 -671.7082 -65.11514 -672.8376 -66.045265 L -673.2436 -66.379625 C -674.08795 -67.07496 -674.71136 -68.00126 -675.0376 -69.045265 L -675.0376 -69.045265 C -675.0843 -69.19458 -675.2431 -69.2778 -675.39246 -69.23114 C -675.5075 -69.19518 -675.5872 -69.090315 -675.5911 -68.96981 L -675.7003 -65.54689 C -675.7911 -62.70381 -676.4084 -59.902236 -677.521 -57.28433 L -678.39794 -55.22096 C -678.9565 -53.906686 -679.6363 -52.64729 -680.4284 -51.45909 L -684.1142 -45.930416 C -684.8617 -44.80915 -685.7063 -43.75575 -686.63825 -42.782376 L -692.9333 -36.20753 C -693.8014 -35.300875 -694.7422 -34.466804 -695.7464 -33.713673 L -704.1213 -27.432495 C -704.9977 -26.775182 -705.92 -26.181326 -706.88104 -25.655463 L -714.06624 -21.723938 C -715.3774 -21.00653 -716.7553 -20.418628 -718.1805 -19.968568 L -724.8534 -17.861334 C -726.5703 -17.319163 -728.3449 -16.980461 -730.1407 -16.852185 L -737.0272 -16.360296 C -738.0995 -16.283703 -739.1758 -16.282384 -740.2483 -16.356348 L -748.6846 -16.93816 C -749.71875 -17.009482 -750.7469 -17.15064 -751.76205 -17.360667 L -758.8973 -18.836916 C -760.8492 -19.240769 -762.7404 -19.896652 -764.5232 -20.78808 L -769.18265 -23.117785 C -770.4168 -23.734853 -771.5929 -24.461726 -772.6967 -25.28961 L -778.3787 -29.55108 C -778.8178 -29.88043 -779.245 -30.225398 -779.6595 -30.585317 L -785.4147 -35.583238 C -786.229 -36.29038 -786.9925 -37.05392 -787.6996 -37.868206 L -792.1049 -42.94089 C -792.859 -43.80925 -793.5469 -44.73295 -794.1628 -45.704217 L -797.8965 -51.59198 C -798.2571 -52.16056 -798.5925 -52.744705 -798.9018 -53.34272 L -800.5222 -56.47544 C -801.1313 -57.65312 -801.6375 -58.881264 -802.035 -60.146155 L -803.3153 -64.21964 C -803.53005 -64.90302 -803.7128 -65.596055 -803.8629 -66.296485 L -804.0883 -67.34843 C -804.1734 -67.74544 -803.947 -68.143094 -803.5622 -68.27263 L -803.5622 -68.27263 C -803.4897 -68.29704 -803.4112 -68.25805 -803.38675 -68.18556 C -803.3687 -68.13205 -803.385 -68.07296 -803.4279 -68.03621 Z" stroke="#7f8080" stroke-linecap="round" stroke-linejoin="round" stroke-width="1"/>
      <path d="M -803.9408 -68.24411 L -798.54075 -68.84411 L -791.74075 -65.44411 L -786.74075 -63.64411 L -778.34075 -61.84411 L -769.94075 -60.84411 L -761.94075 -59.84411 L -754.34075 -59.64411 L -745.74075 -59.24411 L -734.14075 -59.44411 L -725.74075 -59.84411 L -716.34075 -60.44411 L -707.94075 -61.24411 L -698.74075 -62.64411 L -690.54075 -64.84411 L -684.74075 -66.64411 L -679.14075 -69.24411 L -676.34075 -68.04411 L -675.94075 -62.44411 L -678.74075 -54.44411 L -684.14075 -51.64411 L -694.74075 -48.44411 L -706.14075 -46.04411 L -717.34075 -45.24411 L -729.74075 -44.244107 L -740.14075 -44.244107 L -749.54075 -44.244107 L -761.14075 -44.844107 L -772.34075 -45.64411 L -782.94075 -47.84411 L -791.54075 -49.84411 L -797.74075 -52.64411 L -799.7408 -54.24411 L -802.9408 -61.84411 Z" fill="url(#Obj_Gradient_5)"/>
      <path d="M -803.9408 -68.24411 L -798.54075 -68.84411 L -791.74075 -65.44411 L -786.74075 -63.64411 L -778.34075 -61.84411 L -769.94075 -60.84411 L -761.94075 -59.84411 L -754.34075 -59.64411 L -745.74075 -59.24411 L -734.14075 -59.44411 L -725.74075 -59.84411 L -716.34075 -60.44411 L -707.94075 -61.24411 L -698.74075 -62.64411 L -690.54075 -64.84411 L -684.74075 -66.64411 L -679.14075 -69.24411 L -676.34075 -68.04411 L -675.94075 -62.44411 L -678.74075 -54.44411 L -684.14075 -51.64411 L -694.74075 -48.44411 L -706.14075 -46.04411 L -717.34075 -45.24411 L -729.74075 -44.244107 L -740.14075 -44.244107 L -749.54075 -44.244107 L -761.14075 -44.844107 L -772.34075 -45.64411 L -782.94075 -47.84411 L -791.54075 -49.84411 L -797.74075 -52.64411 L -799.7408 -54.24411 L -802.9408 -61.84411 Z" stroke="#7f8080" stroke-linecap="round" stroke-linejoin="round" stroke-width="1"/>
      <path d="M -874.1868 357.2 L -874.1868 357.2 C -874.2525 357.7255 -874.1896 358.25905 -874.0037 358.7549 L -873.3527 360.49092 C -873.1759 360.96227 -872.9489 361.4132 -872.6754 361.8358 L -871.7076 363.33153 C -871.1666 364.16756 -870.4535 364.87855 -869.6159 365.417 L -868.5378 366.11005 C -868.2376 366.30307 -867.923 366.47285 -867.5968 366.6179 L -866.28 367.2035 C -865.6835 367.46876 -865.0528 367.6493 -864.4062 367.7398 L -855.3958 369.00126 C -855.3858 369.00265 -855.3758 369.00403 -855.3658 369.0054 L -843.6498 370.594 C -843.6038 370.60024 -843.5577 370.606 -843.5116 370.61134 L -833.2287 371.79783 C -833.1968 371.8015 -833.1648 371.80498 -833.1328 371.8082 L -819.4228 373.1991 C -819.3948 373.20193 -819.3668 373.2046 -819.3388 373.2071 L -808.2335 374.19865 C -808.1984 374.2018 -808.1632 374.20466 -808.1281 374.20726 L -797.4415 374.99886 C -797.401 375.00185 -797.3605 375.0045 -797.32 375.0068 L -786.812 375.6016 C -786.7912 375.60276 -786.7704 375.60404 -786.7496 375.6054 L -774.7068 376.3951 C -774.6228 376.4006 -774.5387 376.4046 -774.4546 376.40707 L -761.0074 376.80257 C -760.9897 376.8031 -760.9719 376.8037 -760.95415 376.80434 L -750.3103 377.19856 C -750.224 377.20176 -750.1376 377.20335 -750.0512 377.20335 L -739.4422 377.20335 C -739.4013 377.20335 -739.3603 377.2037 -739.3194 377.20443 L -728.233 377.39893 C -728.0649 377.4019 -727.8968 377.39877 -727.7289 377.3896 L -717.1077 376.81028 C -717.0231 376.80566 -716.9384 376.8026 -716.8537 376.80104 L -706.08915 376.60532 C -706.0169 376.604 -705.9447 376.6016 -705.87255 376.59803 L -693.8539 376.00695 C -693.8052 376.00455 -693.75645 376.00165 -693.70775 375.99823 L -682.4677 375.20945 C -682.4098 375.2054 -682.3519 375.2006 -682.2941 375.1951 L -669.8835 374.01313 C -669.815 374.0066 -669.7465 374.0011 -669.67786 373.9966 L -657.7458 373.21418 C -657.6358 373.20696 -657.526 373.19715 -657.41645 373.18475 L -647.0041 372.006 C -646.9886 372.00423 -646.973 372.00242 -646.9575 372.00056 L -637.0098 370.80683 C -636.99046 370.8045 -636.9711 370.8021 -636.9518 370.79963 L -623.11606 369.0221 C -623.01885 369.0096 -622.9219 368.99507 -622.8253 368.9785 L -616.2718 367.85506 C -616.07085 367.8206 -615.8685 367.79495 -615.6653 367.77817 L -612.43294 367.5112 C -611.5437 367.43775 -610.6767 367.19497 -609.87865 366.79594 L -608.39235 366.0528 C -607.7918 365.7525 -607.2375 365.36735 -606.7466 364.9092 L -605.4115 363.6631 C -604.8047 363.0967 -604.3493 362.38747 -604.0868 361.6 L -603.79195 360.71552 C -603.7219 360.5053 -603.6618 360.29187 -603.612 360.07595 L -603.1423 358.04056 C -603.1071 357.88792 -603.1405 357.72752 -603.2338 357.6017 L -603.2338 357.6017 C -603.3241 357.4798 -603.4748 357.4183 -603.6246 357.44214 L -612.10445 358.7912 C -612.15534 358.7993 -612.20615 358.80796 -612.25685 358.8172 L -625.2416 361.17805 C -625.3344 361.1949 -625.4275 361.2099 -625.5209 361.223 L -636.7506 362.7991 C -636.7707 362.80194 -636.79086 362.80486 -636.811 362.80786 L -649.9336 364.76645 C -650.0983 364.79105 -650.2639 364.80975 -650.43 364.82253 L -663.1548 365.80136 C -663.17214 365.8027 -663.18945 365.80396 -663.2068 365.80516 L -677.5469 366.801 C -677.5695 366.80257 -677.5921 366.80403 -677.6147 366.80538 L -690.91795 367.5996 C -690.95984 367.6021 -691.0018 367.60423 -691.0437 367.60597 L -705.23515 368.1973 C -705.3322 368.20133 -705.4294 368.20335 -705.5266 368.20335 L -718.7808 368.20335 L -731.3225 368.20335 C -731.36135 368.20335 -731.4002 368.20368 -731.4391 368.20433 L -743.1975 368.4003 C -743.3197 368.40234 -743.4419 368.40117 -743.564 368.3968 L -754.3976 368.0099 C -754.5197 368.00554 -754.6419 368.00437 -754.7641 368.0064 L -766.4787 368.20165 C -766.5468 368.2028 -766.6148 368.20293 -766.6829 368.20208 L -782.3852 368.0058 C -782.5156 368.00417 -782.6459 367.9989 -782.776 367.99 L -797.0858 367.00986 C -797.1491 367.00552 -797.2124 367.00032 -797.2756 366.99426 L -811.7666 365.6047 C -811.7761 365.6038 -811.7855 365.6029 -811.795 365.60194 L -825.607 364.22073 C -825.7228 364.20915 -825.8384 364.19468 -825.9535 364.17733 L -840.2627 362.02116 C -840.3414 362.0093 -840.4204 361.99877 -840.4995 361.9896 L -854.0194 360.42207 C -854.127 360.4096 -854.2343 360.39463 -854.3411 360.37718 L -863.7332 358.84377 C -863.8982 358.81684 -864.0622 358.784 -864.2248 358.7453 L -873.3024 356.58654 C -873.6908 356.4942 -874.0804 356.73412 -874.1728 357.12244 C -874.1788 357.14802 -874.1835 357.1739 -874.1868 357.2 Z" fill="url(#Obj_Gradient_6)"/>
      <path d="M -874.1868 357.2 L -874.1868 357.2 C -874.2525 357.7255 -874.1896 358.25905 -874.0037 358.7549 L -873.3527 360.49092 C -873.1759 360.96227 -872.9489 361.4132 -872.6754 361.8358 L -871.7076 363.33153 C -871.1666 364.16756 -870.4535 364.87855 -869.6159 365.417 L -868.5378 366.11005 C -868.2376 366.30307 -867.923 366.47285 -867.5968 366.6179 L -866.28 367.2035 C -865.6835 367.46876 -865.0528 367.6493 -864.4062 367.7398 L -855.3958 369.00126 C -855.3858 369.00265 -855.3758 369.00403 -855.3658 369.0054 L -843.6498 370.594 C -843.6038 370.60024 -843.5577 370.606 -843.5116 370.61134 L -833.2287 371.79783 C -833.1968 371.8015 -833.1648 371.80498 -833.1328 371.8082 L -819.4228 373.1991 C -819.3948 373.20193 -819.3668 373.2046 -819.3388 373.2071 L -808.2335 374.19865 C -808.1984 374.2018 -808.1632 374.20466 -808.1281 374.20726 L -797.4415 374.99886 C -797.401 375.00185 -797.3605 375.0045 -797.32 375.0068 L -786.812 375.6016 C -786.7912 375.60276 -786.7704 375.60404 -786.7496 375.6054 L -774.7068 376.3951 C -774.6228 376.4006 -774.5387 376.4046 -774.4546 376.40707 L -761.0074 376.80257 C -760.9897 376.8031 -760.9719 376.8037 -760.95415 376.80434 L -750.3103 377.19856 C -750.224 377.20176 -750.1376 377.20335 -750.0512 377.20335 L -739.4422 377.20335 C -739.4013 377.20335 -739.3603 377.2037 -739.3194 377.20443 L -728.233 377.39893 C -728.0649 377.4019 -727.8968 377.39877 -727.7289 377.3896 L -717.1077 376.81028 C -717.0231 376.80566 -716.9384 376.8026 -716.8537 376.80104 L -706.08915 376.60532 C -706.0169 376.604 -705.9447 376.6016 -705.87255 376.59803 L -693.8539 376.00695 C -693.8052 376.00455 -693.75645 376.00165 -693.70775 375.99823 L -682.4677 375.20945 C -682.4098 375.2054 -682.3519 375.2006 -682.2941 375.1951 L -669.8835 374.01313 C -669.815 374.0066 -669.7465 374.0011 -669.67786 373.9966 L -657.7458 373.21418 C -657.6358 373.20696 -657.526 373.19715 -657.41645 373.18475 L -647.0041 372.006 C -646.9886 372.00423 -646.973 372.00242 -646.9575 372.00056 L -637.0098 370.80683 C -636.99046 370.8045 -636.9711 370.8021 -636.9518 370.79963 L -623.11606 369.0221 C -623.01885 369.0096 -622.9219 368.99507 -622.8253 368.9785 L -616.2718 367.85506 C -616.07085 367.8206 -615.8685 367.79495 -615.6653 367.77817 L -612.43294 367.5112 C -611.5437 367.43775 -610.6767 367.19497 -609.87865 366.79594 L -608.39235 366.0528 C -607.7918 365.7525 -607.2375 365.36735 -606.7466 364.9092 L -605.4115 363.6631 C -604.8047 363.0967 -604.3493 362.38747 -604.0868 361.6 L -603.79195 360.71552 C -603.7219 360.5053 -603.6618 360.29187 -603.612 360.07595 L -603.1423 358.04056 C -603.1071 357.88792 -603.1405 357.72752 -603.2338 357.6017 L -603.2338 357.6017 C -603.3241 357.4798 -603.4748 357.4183 -603.6246 357.44214 L -612.10445 358.7912 C -612.15534 358.7993 -612.20615 358.80796 -612.25685 358.8172 L -625.2416 361.17805 C -625.3344 361.1949 -625.4275 361.2099 -625.5209 361.223 L -636.7506 362.7991 C -636.7707 362.80194 -636.79086 362.80486 -636.811 362.80786 L -649.9336 364.76645 C -650.0983 364.79105 -650.2639 364.80975 -650.43 364.82253 L -663.1548 365.80136 C -663.17214 365.8027 -663.18945 365.80396 -663.2068 365.80516 L -677.5469 366.801 C -677.5695 366.80257 -677.5921 366.80403 -677.6147 366.80538 L -690.91795 367.5996 C -690.95984 367.6021 -691.0018 367.60423 -691.0437 367.60597 L -705.23515 368.1973 C -705.3322 368.20133 -705.4294 368.20335 -705.5266 368.20335 L -718.7808 368.20335 L -731.3225 368.20335 C -731.36135 368.20335 -731.4002 368.20368 -731.4391 368.20433 L -743.1975 368.4003 C -743.3197 368.40234 -743.4419 368.40117 -743.564 368.3968 L -754.3976 368.0099 C -754.5197 368.00554 -754.6419 368.00437 -754.7641 368.0064 L -766.4787 368.20165 C -766.5468 368.2028 -766.6148 368.20293 -766.6829 368.20208 L -782.3852 368.0058 C -782.5156 368.00417 -782.6459 367.9989 -782.776 367.99 L -797.0858 367.00986 C -797.1491 367.00552 -797.2124 367.00032 -797.2756 366.99426 L -811.7666 365.6047 C -811.7761 365.6038 -811.7855 365.6029 -811.795 365.60194 L -825.607 364.22073 C -825.7228 364.20915 -825.8384 364.19468 -825.9535 364.17733 L -840.2627 362.02116 C -840.3414 362.0093 -840.4204 361.99877 -840.4995 361.9896 L -854.0194 360.42207 C -854.127 360.4096 -854.2343 360.39463 -854.3411 360.37718 L -863.7332 358.84377 C -863.8982 358.81684 -864.0622 358.784 -864.2248 358.7453 L -873.3024 356.58654 C -873.6908 356.4942 -874.0804 356.73412 -874.1728 357.12244 C -874.1788 357.14802 -874.1835 357.1739 -874.1868 357.2 Z" stroke="#7f8080" stroke-linecap="round" stroke-linejoin="round" stroke-width="1"/>
      <path d="M -631.7271 362.8372 L -620.52695 361.8335 L -607.2904 359.8262 L -603.21765 357.81885 L -608.3086 326.70516 L -611.3632 299.60614 L -613.3996 272.5071 L -616.4542 245.4081 L -617.4724 217.3054 L -617.4724 188.19905 L -618.49056 164.11103 L -618.49056 126.97533 L -616.4542 93.8543 L -613.3996 62.74061 L -611.3632 47.6856 L -606.2722 31.62692 L -602.19945 17.575575 L -598.1267 4.5278974 L -589.9811 -9.523447 L -583.87196 -20.56379 L -578.781 -27.589462 L -587.9447 -32.6078 L -601.18126 -37.626137 L -614.4178 -41.640807 L -633.7635 -46.659144 L -637 363 Z" fill="white"/>
      <path d="M -631.7271 362.8372 L -620.52695 361.8335 L -607.2904 359.8262 L -603.21765 357.81885 L -608.3086 326.70516 L -611.3632 299.60614 L -613.3996 272.5071 L -616.4542 245.4081 L -617.4724 217.3054 L -617.4724 188.19905 L -618.49056 164.11103 L -618.49056 126.97533 L -616.4542 93.8543 L -613.3996 62.74061 L -611.3632 47.6856 L -606.2722 31.62692 L -602.19945 17.575575 L -598.1267 4.5278974 L -589.9811 -9.523447 L -583.87196 -20.56379 L -578.781 -27.589462 L -587.9447 -32.6078 L -601.18126 -37.626137 L -614.4178 -41.640807 L -633.7635 -46.659144 L -637 363 Z" stroke="#7f8080" stroke-linecap="round" stroke-linejoin="round" stroke-width="1"/>
      <path d="M -842.6583 361.8861 L -846.972 361.46113 L -857.972 360.46113 L -870.972 358.46113 L -874.972 356.46113 L -869.972 325.46113 L -868.1583 299.3861 L -865.6583 271.3861 L -864.1583 244.3861 L -863.6583 215.3861 L -862.1583 188.3861 L -861.6583 162.8861 L -862.6583 126.8861 L -863.6583 93.3861 L -863.6583 78.3861 L -866.1583 62.8861 L -868.6583 47.8861 L -873.1583 32.3861 L -877.6583 17.8861 L -882.6583 4.3861004 L -889.1583 -9.1139 L -895.6583 -19.6139 L -899.1583 -26.1139 L -889.972 -32.538867 L -876.972 -37.538867 L -863.972 -41.538867 L -845.6583 -47.1139 L -840.1583 -48.6139 Z" fill="white"/>
      <path d="M -842.6583 361.8861 L -846.972 361.46113 L -857.972 360.46113 L -870.972 358.46113 L -874.972 356.46113 L -869.972 325.46113 L -868.1583 299.3861 L -865.6583 271.3861 L -864.1583 244.3861 L -863.6583 215.3861 L -862.1583 188.3861 L -861.6583 162.8861 L -862.6583 126.8861 L -863.6583 93.3861 L -863.6583 78.3861 L -866.1583 62.8861 L -868.6583 47.8861 L -873.1583 32.3861 L -877.6583 17.8861 L -882.6583 4.3861004 L -889.1583 -9.1139 L -895.6583 -19.6139 L -899.1583 -26.1139 L -889.972 -32.538867 L -876.972 -37.538867 L -863.972 -41.538867 L -845.6583 -47.1139 L -840.1583 -48.6139 Z" stroke="#7f8080" stroke-linecap="round" stroke-linejoin="round" stroke-width="1"/>
      <path d="M -802.5 366 L -797 367 L -783 367.5 L -762 367.5 L -762 -6 L -774 -10 L -781 -14 L -790 -20 L -799 -28.5 Z" fill="white"/>
      <path d="M -802.5 366 L -797 367 L -783 367.5 L -762 367.5 L -762 -6 L -774 -10 L -781 -14 L -790 -20 L -799 -28.5 Z" stroke="#7f8080" stroke-linecap="round" stroke-linejoin="round" stroke-width="1"/>
      <path d="M -709 -7.5 L -700 -12.5 L -694 -17 L -686 -23 L -680 -29.5 L -675.5 366.5 L -692.5 367.5 L -703.5 368 L -710 368.5 L -714 368 L -713 368 L -717 -4.5 Z" fill="white"/>
      <path d="M -709 -7.5 L -700 -12.5 L -694 -17 L -686 -23 L -680 -29.5 L -675.5 366.5 L -692.5 367.5 L -703.5 368 L -710 368.5 L -714 368 L -713 368 L -717 -4.5 Z" stroke="#7f8080" stroke-linecap="round" stroke-linejoin="round" stroke-width="1"/>
      <path d="M -913.6 91 L -898.6 97.5 L -887.1 100.5 L -875.1 103.5 L -869.6 104.5 L -864.6 94 L -863.1 92.5 L -862.6 79.5 L -864.1 69.5 L -866.1 57 L -869.1 43.5 L -872.1 33.5 L -874.6 23 L -877.6 17 L -893.6 45.5 L -901.1 61 L -909.1 79 Z" fill="white"/>
      <path d="M -913.6 91 L -898.6 97.5 L -887.1 100.5 L -875.1 103.5 L -869.6 104.5 L -864.6 94 L -863.1 92.5 L -862.6 79.5 L -864.1 69.5 L -866.1 57 L -869.1 43.5 L -872.1 33.5 L -874.6 23 L -877.6 17 L -893.6 45.5 L -901.1 61 L -909.1 79 Z" stroke="#7f8080" stroke-linecap="round" stroke-linejoin="round" stroke-width="1"/>
      <path d="M -562.9947 90 L -577.9947 96.5 L -589.4947 99.5 L -601.4947 102.5 L -606.9947 103.5 L -611.9947 93 L -613.4947 91.5 L -613.9947 78.5 L -612.4947 68.5 L -610.4947 56 L -607.4947 42.5 L -604.4947 32.5 L -601.9947 22 L -598.9947 16 L -582.9947 44.5 L -575.4947 60 L -567.4947 78 Z" fill="white"/>
      <path d="M -562.9947 90 L -577.9947 96.5 L -589.4947 99.5 L -601.4947 102.5 L -606.9947 103.5 L -611.9947 93 L -613.4947 91.5 L -613.9947 78.5 L -612.4947 68.5 L -610.4947 56 L -607.4947 42.5 L -604.4947 32.5 L -601.9947 22 L -598.9947 16 L -582.9947 44.5 L -575.4947 60 L -567.4947 78 Z" stroke="#7f8080" stroke-linecap="round" stroke-linejoin="round" stroke-width="1"/>
    </g>
  </g>
</svg>
