<?xml version="1.0" encoding="UTF-8" standalone="no"?>
<!DOCTYPE svg PUBLIC "-//W3C//DTD SVG 1.1//EN" "http://www.w3.org/Graphics/SVG/1.1/DTD/svg11.dtd">
<svg xmlns="http://www.w3.org/2000/svg" xmlns:xl="http://www.w3.org/1999/xlink" version="1.1" viewBox="-1257.5 -458.5 432.4053 448.4" width="432.4053pt" height="448.4pt" xmlns:dc="http://purl.org/dc/elements/1.1/">
  <metadata> Produced by OmniGraffle 7.4.2 
    <dc:date>2018-03-14 01:14:24 +0000</dc:date>
  </metadata>
  <defs>
    <radialGradient cx="0" cy="0" r="1" id="Gradient" gradientUnits="userSpaceOnUse">
      <stop offset="0" stop-color="#cbcbcb"/>
      <stop offset="1" stop-color="#843918"/>
    </radialGradient>
    <radialGradient id="Obj_Gradient" xl:href="#Gradient" gradientTransform="translate(-1042.2408 -430.6) scale(70.26272)"/>
    <radialGradient cx="0" cy="0" r="1" id="Gradient_2" gradientUnits="userSpaceOnUse">
      <stop offset="0" stop-color="#ff4040"/>
      <stop offset="1" stop-color="#150509"/>
    </radialGradient>
    <radialGradient id="Obj_Gradient_2" xl:href="#Gradient_2" gradientTransform="translate(-1214.8 -294.75385) scale(46.03694)"/>
    <radialGradient cx="0" cy="0" r="1" id="Gradient_3" gradientUnits="userSpaceOnUse">
      <stop offset="0" stop-color="#ff4040"/>
      <stop offset="1" stop-color="#12040b"/>
    </radialGradient>
    <radialGradient id="Obj_Gradient_3" xl:href="#Gradient_3" gradientTransform="translate(-867.7947 -295.69725) scale(46.03694)"/>
    <linearGradient x1="0" x2="1" id="Gradient_4" gradientUnits="userSpaceOnUse">
      <stop offset="0" stop-color="#333"/>
      <stop offset="1" stop-color="#ff4040"/>
    </linearGradient>
    <linearGradient id="Obj_Gradient_4" xl:href="#Gradient_4" gradientTransform="translate(-1042.9408 -457.2441) rotate(90) scale(25)"/>
    <radialGradient cx="0" cy="0" r="1" id="Gradient_5" gradientUnits="userSpaceOnUse">
      <stop offset="0" stop-color="white"/>
      <stop offset="1" stop-color="#241209"/>
    </radialGradient>
    <radialGradient id="Obj_Gradient_5" xl:href="#Gradient_5" gradientTransform="translate(-1041.6703 -21.016614) scale(135.94141)"/>
    <radialGradient cx="0" cy="0" r="1" id="Gradient_6" gradientUnits="userSpaceOnUse">
      <stop offset="0" stop-color="#ff4040"/>
      <stop offset="1" stop-color="#080108"/>
    </radialGradient>
    <radialGradient id="Obj_Gradient_6" xl:href="#Gradient_6" gradientTransform="translate(-1042.9408 -422.8554) scale(83.83496)"/>
  </defs>
  <g stroke="none" stroke-opacity="1" stroke-dasharray="none" fill="none" fill-opacity="1">
    <title>Lienzo 12</title>
    <rect fill="white" width="432.4053" height="448.4"/>
    <g>
      <title>Capa 1</title>
      <path d="M -1103.9943 -457.40955 L -1095.8289 -454.29184 C -1094.9709 -453.96424 -1094.094 -453.68833 -1093.2031 -453.4656 L -1079.4859 -450.0363 C -1078.3242 -449.74587 -1077.1417 -449.5466 -1075.949 -449.44034 L -1058.4228 -447.8786 C -1057.835 -447.8262 -1057.2454 -447.7965 -1056.6552 -447.78946 L -1041.1763 -447.6052 C -1040.886 -447.60173 -1040.5956 -447.60377 -1040.3053 -447.6113 L -1025.882 -447.98594 C -1025.5212 -447.9953 -1025.1607 -448.0132 -1024.8008 -448.0395 L -1010.4295 -449.09107 C -1009.438 -449.1636 -1008.4523 -449.30036 -1007.4786 -449.50044 L -995.9056 -451.87845 C -994.8636 -452.09256 -993.8377 -452.3787 -992.8353 -452.7348 L -981.0834 -456.90986 C -979.993 -457.29723 -978.7898 -456.76646 -978.3408 -455.7 L -978.3408 -455.7 C -977.8186 -454.4599 -977.6666 -453.09515 -977.9032 -451.77055 L -978.0836 -450.75986 C -978.3874 -449.0587 -978.8819 -447.3972 -979.5579 -445.8068 L -981.1011 -442.1757 C -981.6596 -440.8614 -982.3394 -439.602 -983.1315 -438.4138 L -986.8173 -432.88515 C -987.5648 -431.7639 -988.4094 -430.7105 -989.3414 -429.7371 L -995.6365 -423.16226 C -996.5045 -422.2556 -997.4454 -421.42154 -998.4495 -420.6684 L -1006.8244 -414.38723 C -1007.7009 -413.7299 -1008.6231 -413.13606 -1009.5842 -412.6102 L -1016.7694 -408.67867 C -1018.0805 -407.96126 -1019.4584 -407.37336 -1020.8836 -406.9233 L -1027.5565 -404.81607 C -1029.2734 -404.2739 -1031.048 -403.9352 -1032.8439 -403.8069 L -1039.7303 -403.31503 C -1040.8026 -403.23844 -1041.879 -403.2371 -1042.9515 -403.3111 L -1051.3877 -403.8929 C -1052.4219 -403.9642 -1053.45 -404.10537 -1054.4652 -404.3154 L -1061.6004 -405.79165 C -1063.5524 -406.1955 -1065.4435 -406.8514 -1067.2264 -407.7428 L -1071.8858 -410.0725 C -1073.1199 -410.6896 -1074.296 -411.41646 -1075.3999 -412.24434 L -1081.0818 -416.5058 C -1081.521 -416.83517 -1081.9482 -417.18013 -1082.3626 -417.54005 L -1088.1178 -422.53797 C -1088.9321 -423.2451 -1089.6956 -424.00865 -1090.4028 -424.82294 L -1094.808 -429.8956 C -1095.5621 -430.764 -1096.25 -431.6877 -1096.866 -432.65895 L -1100.5996 -438.5467 C -1100.9602 -439.1153 -1101.2956 -439.69944 -1101.605 -440.29745 L -1103.2253 -443.43017 C -1103.8345 -444.60785 -1104.3406 -445.836 -1104.7382 -447.1009 L -1106.0184 -451.1744 C -1106.2332 -451.85775 -1106.4159 -452.5508 -1106.566 -453.2512 L -1106.6408 -453.6 C -1106.8354 -454.5084 -1106.7282 -455.45557 -1106.3353 -456.29746 L -1106.2408 -456.5 C -1105.8463 -457.3453 -1104.8658 -457.7423 -1103.9943 -457.40955 Z" fill="url(#Obj_Gradient)"/>
      <path d="M -1103.9943 -457.40955 L -1095.8289 -454.29184 C -1094.9709 -453.96424 -1094.094 -453.68833 -1093.2031 -453.4656 L -1079.4859 -450.0363 C -1078.3242 -449.74587 -1077.1417 -449.5466 -1075.949 -449.44034 L -1058.4228 -447.8786 C -1057.835 -447.8262 -1057.2454 -447.7965 -1056.6552 -447.78946 L -1041.1763 -447.6052 C -1040.886 -447.60173 -1040.5956 -447.60377 -1040.3053 -447.6113 L -1025.882 -447.98594 C -1025.5212 -447.9953 -1025.1607 -448.0132 -1024.8008 -448.0395 L -1010.4295 -449.09107 C -1009.438 -449.1636 -1008.4523 -449.30036 -1007.4786 -449.50044 L -995.9056 -451.87845 C -994.8636 -452.09256 -993.8377 -452.3787 -992.8353 -452.7348 L -981.0834 -456.90986 C -979.993 -457.29723 -978.7898 -456.76646 -978.3408 -455.7 L -978.3408 -455.7 C -977.8186 -454.4599 -977.6666 -453.09515 -977.9032 -451.77055 L -978.0836 -450.75986 C -978.3874 -449.0587 -978.8819 -447.3972 -979.5579 -445.8068 L -981.1011 -442.1757 C -981.6596 -440.8614 -982.3394 -439.602 -983.1315 -438.4138 L -986.8173 -432.88515 C -987.5648 -431.7639 -988.4094 -430.7105 -989.3414 -429.7371 L -995.6365 -423.16226 C -996.5045 -422.2556 -997.4454 -421.42154 -998.4495 -420.6684 L -1006.8244 -414.38723 C -1007.7009 -413.7299 -1008.6231 -413.13606 -1009.5842 -412.6102 L -1016.7694 -408.67867 C -1018.0805 -407.96126 -1019.4584 -407.37336 -1020.8836 -406.9233 L -1027.5565 -404.81607 C -1029.2734 -404.2739 -1031.048 -403.9352 -1032.8439 -403.8069 L -1039.7303 -403.31503 C -1040.8026 -403.23844 -1041.879 -403.2371 -1042.9515 -403.3111 L -1051.3877 -403.8929 C -1052.4219 -403.9642 -1053.45 -404.10537 -1054.4652 -404.3154 L -1061.6004 -405.79165 C -1063.5524 -406.1955 -1065.4435 -406.8514 -1067.2264 -407.7428 L -1071.8858 -410.0725 C -1073.1199 -410.6896 -1074.296 -411.41646 -1075.3999 -412.24434 L -1081.0818 -416.5058 C -1081.521 -416.83517 -1081.9482 -417.18013 -1082.3626 -417.54005 L -1088.1178 -422.53797 C -1088.9321 -423.2451 -1089.6956 -424.00865 -1090.4028 -424.82294 L -1094.808 -429.8956 C -1095.5621 -430.764 -1096.25 -431.6877 -1096.866 -432.65895 L -1100.5996 -438.5467 C -1100.9602 -439.1153 -1101.2956 -439.69944 -1101.605 -440.29745 L -1103.2253 -443.43017 C -1103.8345 -444.60785 -1104.3406 -445.836 -1104.7382 -447.1009 L -1106.0184 -451.1744 C -1106.2332 -451.85775 -1106.4159 -452.5508 -1106.566 -453.2512 L -1106.6408 -453.6 C -1106.8354 -454.5084 -1106.7282 -455.45557 -1106.3353 -456.29746 L -1106.2408 -456.5 C -1105.8463 -457.3453 -1104.8658 -457.7423 -1103.9943 -457.40955 Z" stroke="#7f8080" stroke-linecap="round" stroke-linejoin="round" stroke-width="1"/>
      <path d="M -1168.0265 -20.736214 L -1154.2843 -18.445841 C -1154.1009 -18.415278 -1153.917 -18.387914 -1153.7327 -18.36376 L -1125.379 -14.648455 C -1125.1325 -14.616152 -1124.8853 -14.589599 -1124.6375 -14.568819 L -1094.3946 -12.032318 C -1094.1377 -12.010771 -1093.8803 -11.995437 -1093.6227 -11.986328 L -1054.6918 -10.609983 C -1054.5034 -10.603324 -1054.315 -10.599993 -1054.1265 -10.599993 L -1022.6592 -10.599993 C -1022.4925 -10.599993 -1022.3259 -10.602596 -1022.1594 -10.6078 L -997.1246 -11.390137 C -996.9144 -11.396707 -996.7043 -11.407423 -996.4945 -11.422277 L -974.4467 -12.98318 C -974.2884 -12.994388 -974.1302 -13.007951 -973.9723 -13.023865 L -948.7119 -15.569495 C -948.5101 -15.589825 -948.3088 -15.613989 -948.108 -15.641972 L -924.3153 -18.957348 C -924.1112 -18.985776 -923.9078 -19.01814 -923.705 -19.054424 L -914.5092 -20.699993 C -909.1821 -21.653265 -905.5312 -26.60691 -906.1977 -31.977447 L -908.4052 -49.76802 C -908.4079 -49.789335 -908.4105 -49.81066 -908.413 -49.831985 L -911.9769 -79.53051 C -911.9984 -79.71015 -912.0169 -79.89015 -912.0324 -80.07042 L -914.3946 -107.62963 C -914.4043 -107.7432 -914.4129 -107.85688 -914.4202 -107.97064 L -915.8068 -129.56228 C -915.8084 -129.58742 -915.8101 -129.61256 -915.8118 -129.6377 L -917.404 -152.72401 C -917.4075 -152.77467 -917.4107 -152.82534 -917.4137 -152.87602 L -918.5901 -172.6782 C -918.6028 -172.8927 -918.6113 -173.10745 -918.6154 -173.3223 L -919.0076 -193.91715 C -919.0087 -193.97238 -919.01 -194.0276 -919.0117 -194.08282 L -919.6068 -214.31717 C -919.6084 -214.37239 -919.6097 -214.42761 -919.6108 -214.48285 L -920.0015 -234.9924 C -920.0066 -235.26408 -920.0049 -235.53587 -919.9962 -235.80747 L -919.4103 -254.16708 C -919.4096 -254.18903 -919.4088 -254.21097 -919.408 -254.2329 L -918.62 -276.1022 C -918.6128 -276.30072 -918.6019 -276.49907 -918.5874 -276.69717 L -917.0299 -297.9178 C -917.0161 -298.1059 -917.0056 -298.29427 -916.9985 -298.48276 L -916.244 -318.38163 C -916.2208 -318.99337 -916.1626 -319.6033 -916.0695 -320.20835 L -913.3305 -338.01187 C -913.2497 -338.53696 -913.1428 -339.0577 -913.0102 -339.57217 L -908.3819 -357.52983 C -908.2668 -357.9764 -908.1325 -358.4178 -907.9793 -358.85275 L -902.2585 -375.0924 C -902.0924 -375.56387 -901.9043 -376.0273 -901.6948 -376.48117 L -896.1633 -388.4662 C -896.0606 -388.6887 -895.9528 -388.9088 -895.84 -389.12636 L -890.4778 -399.4678 C -890.4321 -399.55593 -890.3855 -399.64364 -890.3382 -399.7309 L -885.1222 -409.3479 C -884.385 -410.70724 -883.4353 -411.94013 -882.3092 -413 L -882.3092 -413 C -881.634 -413.63547 -881.6018 -414.69797 -882.2373 -415.37316 C -882.3618 -415.50544 -882.5069 -415.61663 -882.667 -415.7024 L -885.8812 -417.42427 C -886.0998 -417.5414 -886.3212 -417.65344 -886.5451 -417.7603 L -894.399 -421.5088 C -894.8056 -421.70284 -895.2203 -421.87964 -895.6418 -422.0387 L -905.3166 -425.6896 C -905.5117 -425.7632 -905.7081 -425.83297 -905.9059 -425.8989 L -918.6004 -430.1304 C -918.7396 -430.1768 -918.8794 -430.2213 -919.0199 -430.26384 L -931.9034 -434.16794 C -931.974 -434.1893 -932.0443 -434.21117 -932.1146 -434.2335 L -944.6186 -438.21206 C -945.0122 -438.3373 -945.4008 -438.47775 -945.7836 -438.63307 L -957.7595 -443.49287 C -958.5912 -443.83036 -959.393 -444.2372 -960.1564 -444.70917 L -969.7756 -450.6556 C -969.9313 -450.75186 -970.0854 -450.8508 -970.2377 -450.9523 L -975.1278 -454.2124 C -976.1092 -454.86665 -976.9805 -455.67255 -977.7092 -456.6 L -977.7092 -456.6 C -977.8148 -456.7344 -978.0094 -456.75775 -978.1438 -456.65215 C -978.2465 -456.5714 -978.2875 -456.4349 -978.2462 -456.3109 L -978.1092 -455.9 C -977.65 -454.52225 -977.5454 -453.05096 -977.8052 -451.6221 L -978.2003 -449.44885 C -978.4715 -447.9572 -978.9534 -446.51165 -979.6314 -445.1556 L -981.1637 -442.09096 C -981.4604 -441.49756 -981.7938 -440.9232 -982.1618 -440.3712 L -985.3655 -435.5656 C -985.7941 -434.9227 -986.2687 -434.3117 -986.7856 -433.7374 L -991.3476 -428.66844 C -991.3887 -428.6228 -991.43 -428.5774 -991.4716 -428.53227 L -997.4658 -422.02424 C -998.0936 -421.3427 -998.7793 -420.717 -999.5154 -420.15413 L -1004.5395 -416.3121 C -1004.9857 -415.97094 -1005.4495 -415.6535 -1005.929 -415.3611 L -1012.4154 -411.40597 C -1013.0771 -411.0025 -1013.7672 -410.6477 -1014.4803 -410.34424 L -1021.5957 -407.3164 C -1022.4033 -406.9727 -1023.2379 -406.69607 -1024.091 -406.4893 L -1028.17 -405.5004 C -1028.9948 -405.30045 -1029.8343 -405.16644 -1030.6804 -405.09965 L -1036.3806 -404.64963 C -1036.7995 -404.61656 -1037.2196 -404.6 -1037.6398 -404.6 L -1044.6721 -404.6 C -1045.4292 -404.6 -1046.1854 -404.65374 -1046.9349 -404.7608 L -1054.8813 -405.896 C -1055.3663 -405.9653 -1055.8479 -406.05683 -1056.3245 -406.1703 L -1062.2857 -407.58965 C -1063.4312 -407.8624 -1064.5431 -408.26073 -1065.6012 -408.77747 L -1071.8812 -411.84444 C -1072.3662 -412.08133 -1072.839 -412.3426 -1073.2976 -412.6273 L -1077.5095 -415.24154 C -1078.1086 -415.61344 -1078.6826 -416.02454 -1079.2275 -416.47216 L -1083.6736 -420.1243 C -1083.8973 -420.30807 -1084.116 -420.49786 -1084.3294 -420.6935 L -1088.1317 -424.17896 C -1088.583 -424.59264 -1089.0102 -425.0319 -1089.4111 -425.49454 L -1093.5299 -430.24693 C -1093.8493 -430.61545 -1094.1516 -430.9984 -1094.436 -431.3945 L -1098.8657 -437.5644 C -1099.3606 -438.2537 -1099.7999 -438.9813 -1100.1794 -439.7403 L -1102.7558 -444.8932 C -1102.7914 -444.9644 -1102.8265 -445.03586 -1102.861 -445.1076 L -1104.1092 -447.7 C -1104.9599 -449.46687 -1105.3155 -451.4314 -1105.1379 -453.38436 L -1104.9577 -455.3666 C -1104.9339 -455.6285 -1105.1269 -455.86006 -1105.3887 -455.88386 C -1105.5511 -455.8986 -1105.7098 -455.82925 -1105.8092 -455.7 L -1105.8092 -455.7 C -1106.4727 -454.8375 -1107.2528 -454.07144 -1108.1271 -453.42375 L -1112.0237 -450.53743 C -1112.1474 -450.4458 -1112.2724 -450.356 -1112.3986 -450.268 L -1117.0209 -447.0464 C -1118.2076 -446.2193 -1119.501 -445.5569 -1120.8658 -445.0774 L -1125.4729 -443.4587 C -1125.9635 -443.28633 -1126.4454 -443.09016 -1126.9168 -442.87087 L -1133.7636 -439.6863 C -1134.4598 -439.36253 -1135.1783 -439.08926 -1135.9137 -438.86864 L -1146.7841 -435.6075 C -1146.8009 -435.6025 -1146.8176 -435.59746 -1146.8343 -435.5924 L -1157.8024 -432.2628 C -1157.9403 -432.22093 -1158.0776 -432.1772 -1158.2143 -432.13164 L -1171.1355 -427.82456 C -1171.1847 -427.8082 -1171.2339 -427.79205 -1171.2831 -427.77616 L -1182.6505 -424.10925 C -1183.289 -423.9033 -1183.9139 -423.65737 -1184.5215 -423.37296 L -1192.4535 -419.6601 C -1192.8238 -419.48677 -1193.1874 -419.2993 -1193.5434 -419.0981 L -1199.4895 -415.73724 C -1200.7425 -415.029 -1201.1842 -413.43907 -1200.476 -412.18604 C -1200.3988 -412.0496 -1200.3096 -411.9204 -1200.2092 -411.8 L -1199.3451 -410.76307 C -1198.5902 -409.85713 -1197.9377 -408.8705 -1197.3996 -407.8212 L -1194.3224 -401.82076 C -1194.247 -401.6736 -1194.1692 -401.5276 -1194.0892 -401.38285 L -1190.1345 -394.22663 C -1190.051 -394.07555 -1189.97 -393.92313 -1189.8914 -393.76943 L -1185.783 -385.73144 C -1185.534 -385.24413 -1185.3101 -384.74437 -1185.1122 -384.2341 L -1181.6295 -375.25224 C -1181.616 -375.2174 -1181.6023 -375.18263 -1181.5886 -375.1479 L -1177.9923 -366.06246 C -1177.8703 -365.75423 -1177.7579 -365.44228 -1177.6552 -365.12706 L -1175.0334 -357.0743 C -1175.0173 -357.02476 -1175.0014 -356.97516 -1174.9858 -356.9255 L -1171.9137 -347.1672 C -1171.7109 -346.52305 -1171.5491 -345.8667 -1171.4293 -345.2021 L -1169.444 -334.19263 C -1169.4208 -334.0642 -1169.3992 -333.9355 -1169.3792 -333.80658 L -1167.6733 -322.8132 C -1167.6306 -322.53778 -1167.595 -322.2613 -1167.5668 -321.984 L -1166.6794 -313.2873 C -1166.6326 -312.8293 -1166.6057 -312.36952 -1166.5986 -311.9092 L -1166.4144 -299.9336 C -1166.4109 -299.7112 -1166.4029 -299.48895 -1166.3902 -299.2669 L -1165.6198 -285.78535 C -1165.6127 -285.6618 -1165.6043 -285.5383 -1165.5943 -285.41494 L -1164.2608 -268.84057 C -1164.2264 -268.4137 -1164.2092 -267.9856 -1164.2092 -267.55736 L -1164.2092 -255.10758 C -1164.2092 -254.90254 -1164.2053 -254.69753 -1164.1974 -254.49265 L -1163.617 -239.4035 C -1163.6118 -239.26784 -1163.6083 -239.1321 -1163.6066 -238.99635 L -1163.4144 -224.2001 C -1163.411 -223.9334 -1163.4142 -223.66667 -1163.424 -223.40014 L -1163.9983 -207.896 C -1164.0056 -207.69868 -1164.0092 -207.50125 -1164.0092 -207.3038 L -1164.0092 -193.70757 C -1164.0092 -193.50254 -1164.0132 -193.29753 -1164.021 -193.09264 L -1164.6062 -177.87764 C -1164.6082 -177.82588 -1164.6105 -177.77412 -1164.613 -177.72238 L -1165.4083 -161.21945 C -1165.4089 -161.20648 -1165.4095 -161.19351 -1165.4102 -161.18055 L -1166.2047 -145.48938 C -1166.2077 -145.42979 -1166.211 -145.37022 -1166.2147 -145.31067 L -1167.4037 -126.08993 C -1167.4074 -126.02997 -1167.4114 -125.97004 -1167.4158 -125.91013 L -1169.199 -101.54058 C -1169.2058 -101.44686 -1169.2135 -101.3532 -1169.222 -101.25962 L -1171.0079 -81.6148 C -1171.0088 -81.60493 -1171.0097 -81.59506 -1171.0106 -81.58519 L -1172.7814 -62.50028 C -1172.7999 -62.30011 -1172.8223 -62.1003 -1172.8484 -61.90097 L -1174.8091 -46.92825 C -1174.9419 -45.914056 -1175.211 -44.92244 -1175.6092 -43.98027 L -1175.6092 -43.98027 C -1176.0068 -43.03952 -1176.2555 -42.042607 -1176.3463 -41.025345 L -1177.1092 -32.48027 C -1177.617 -26.79324 -1173.6585 -21.674875 -1168.0265 -20.736214 Z" fill="white"/>
      <path d="M -1168.0265 -20.736214 L -1154.2843 -18.445841 C -1154.1009 -18.415278 -1153.917 -18.387914 -1153.7327 -18.36376 L -1125.379 -14.648455 C -1125.1325 -14.616152 -1124.8853 -14.589599 -1124.6375 -14.568819 L -1094.3946 -12.032318 C -1094.1377 -12.010771 -1093.8803 -11.995437 -1093.6227 -11.986328 L -1054.6918 -10.609983 C -1054.5034 -10.603324 -1054.315 -10.599993 -1054.1265 -10.599993 L -1022.6592 -10.599993 C -1022.4925 -10.599993 -1022.3259 -10.602596 -1022.1594 -10.6078 L -997.1246 -11.390137 C -996.9144 -11.396707 -996.7043 -11.407423 -996.4945 -11.422277 L -974.4467 -12.98318 C -974.2884 -12.994388 -974.1302 -13.007951 -973.9723 -13.023865 L -948.7119 -15.569495 C -948.5101 -15.589825 -948.3088 -15.613989 -948.108 -15.641972 L -924.3153 -18.957348 C -924.1112 -18.985776 -923.9078 -19.01814 -923.705 -19.054424 L -914.5092 -20.699993 C -909.1821 -21.653265 -905.5312 -26.60691 -906.1977 -31.977447 L -908.4052 -49.76802 C -908.4079 -49.789335 -908.4105 -49.81066 -908.413 -49.831985 L -911.9769 -79.53051 C -911.9984 -79.71015 -912.0169 -79.89015 -912.0324 -80.07042 L -914.3946 -107.62963 C -914.4043 -107.7432 -914.4129 -107.85688 -914.4202 -107.97064 L -915.8068 -129.56228 C -915.8084 -129.58742 -915.8101 -129.61256 -915.8118 -129.6377 L -917.404 -152.72401 C -917.4075 -152.77467 -917.4107 -152.82534 -917.4137 -152.87602 L -918.5901 -172.6782 C -918.6028 -172.8927 -918.6113 -173.10745 -918.6154 -173.3223 L -919.0076 -193.91715 C -919.0087 -193.97238 -919.01 -194.0276 -919.0117 -194.08282 L -919.6068 -214.31717 C -919.6084 -214.37239 -919.6097 -214.42761 -919.6108 -214.48285 L -920.0015 -234.9924 C -920.0066 -235.26408 -920.0049 -235.53587 -919.9962 -235.80747 L -919.4103 -254.16708 C -919.4096 -254.18903 -919.4088 -254.21097 -919.408 -254.2329 L -918.62 -276.1022 C -918.6128 -276.30072 -918.6019 -276.49907 -918.5874 -276.69717 L -917.0299 -297.9178 C -917.0161 -298.1059 -917.0056 -298.29427 -916.9985 -298.48276 L -916.244 -318.38163 C -916.2208 -318.99337 -916.1626 -319.6033 -916.0695 -320.20835 L -913.3305 -338.01187 C -913.2497 -338.53696 -913.1428 -339.0577 -913.0102 -339.57217 L -908.3819 -357.52983 C -908.2668 -357.9764 -908.1325 -358.4178 -907.9793 -358.85275 L -902.2585 -375.0924 C -902.0924 -375.56387 -901.9043 -376.0273 -901.6948 -376.48117 L -896.1633 -388.4662 C -896.0606 -388.6887 -895.9528 -388.9088 -895.84 -389.12636 L -890.4778 -399.4678 C -890.4321 -399.55593 -890.3855 -399.64364 -890.3382 -399.7309 L -885.1222 -409.3479 C -884.385 -410.70724 -883.4353 -411.94013 -882.3092 -413 L -882.3092 -413 C -881.634 -413.63547 -881.6018 -414.69797 -882.2373 -415.37316 C -882.3618 -415.50544 -882.5069 -415.61663 -882.667 -415.7024 L -885.8812 -417.42427 C -886.0998 -417.5414 -886.3212 -417.65344 -886.5451 -417.7603 L -894.399 -421.5088 C -894.8056 -421.70284 -895.2203 -421.87964 -895.6418 -422.0387 L -905.3166 -425.6896 C -905.5117 -425.7632 -905.7081 -425.83297 -905.9059 -425.8989 L -918.6004 -430.1304 C -918.7396 -430.1768 -918.8794 -430.2213 -919.0199 -430.26384 L -931.9034 -434.16794 C -931.974 -434.1893 -932.0443 -434.21117 -932.1146 -434.2335 L -944.6186 -438.21206 C -945.0122 -438.3373 -945.4008 -438.47775 -945.7836 -438.63307 L -957.7595 -443.49287 C -958.5912 -443.83036 -959.393 -444.2372 -960.1564 -444.70917 L -969.7756 -450.6556 C -969.9313 -450.75186 -970.0854 -450.8508 -970.2377 -450.9523 L -975.1278 -454.2124 C -976.1092 -454.86665 -976.9805 -455.67255 -977.7092 -456.6 L -977.7092 -456.6 C -977.8148 -456.7344 -978.0094 -456.75775 -978.1438 -456.65215 C -978.2465 -456.5714 -978.2875 -456.4349 -978.2462 -456.3109 L -978.1092 -455.9 C -977.65 -454.52225 -977.5454 -453.05096 -977.8052 -451.6221 L -978.2003 -449.44885 C -978.4715 -447.9572 -978.9534 -446.51165 -979.6314 -445.1556 L -981.1637 -442.09096 C -981.4604 -441.49756 -981.7938 -440.9232 -982.1618 -440.3712 L -985.3655 -435.5656 C -985.7941 -434.9227 -986.2687 -434.3117 -986.7856 -433.7374 L -991.3476 -428.66844 C -991.3887 -428.6228 -991.43 -428.5774 -991.4716 -428.53227 L -997.4658 -422.02424 C -998.0936 -421.3427 -998.7793 -420.717 -999.5154 -420.15413 L -1004.5395 -416.3121 C -1004.9857 -415.97094 -1005.4495 -415.6535 -1005.929 -415.3611 L -1012.4154 -411.40597 C -1013.0771 -411.0025 -1013.7672 -410.6477 -1014.4803 -410.34424 L -1021.5957 -407.3164 C -1022.4033 -406.9727 -1023.2379 -406.69607 -1024.091 -406.4893 L -1028.17 -405.5004 C -1028.9948 -405.30045 -1029.8343 -405.16644 -1030.6804 -405.09965 L -1036.3806 -404.64963 C -1036.7995 -404.61656 -1037.2196 -404.6 -1037.6398 -404.6 L -1044.6721 -404.6 C -1045.4292 -404.6 -1046.1854 -404.65374 -1046.9349 -404.7608 L -1054.8813 -405.896 C -1055.3663 -405.9653 -1055.8479 -406.05683 -1056.3245 -406.1703 L -1062.2857 -407.58965 C -1063.4312 -407.8624 -1064.5431 -408.26073 -1065.6012 -408.77747 L -1071.8812 -411.84444 C -1072.3662 -412.08133 -1072.839 -412.3426 -1073.2976 -412.6273 L -1077.5095 -415.24154 C -1078.1086 -415.61344 -1078.6826 -416.02454 -1079.2275 -416.47216 L -1083.6736 -420.1243 C -1083.8973 -420.30807 -1084.116 -420.49786 -1084.3294 -420.6935 L -1088.1317 -424.17896 C -1088.583 -424.59264 -1089.0102 -425.0319 -1089.4111 -425.49454 L -1093.5299 -430.24693 C -1093.8493 -430.61545 -1094.1516 -430.9984 -1094.436 -431.3945 L -1098.8657 -437.5644 C -1099.3606 -438.2537 -1099.7999 -438.9813 -1100.1794 -439.7403 L -1102.7558 -444.8932 C -1102.7914 -444.9644 -1102.8265 -445.03586 -1102.861 -445.1076 L -1104.1092 -447.7 C -1104.9599 -449.46687 -1105.3155 -451.4314 -1105.1379 -453.38436 L -1104.9577 -455.3666 C -1104.9339 -455.6285 -1105.1269 -455.86006 -1105.3887 -455.88386 C -1105.5511 -455.8986 -1105.7098 -455.82925 -1105.8092 -455.7 L -1105.8092 -455.7 C -1106.4727 -454.8375 -1107.2528 -454.07144 -1108.1271 -453.42375 L -1112.0237 -450.53743 C -1112.1474 -450.4458 -1112.2724 -450.356 -1112.3986 -450.268 L -1117.0209 -447.0464 C -1118.2076 -446.2193 -1119.501 -445.5569 -1120.8658 -445.0774 L -1125.4729 -443.4587 C -1125.9635 -443.28633 -1126.4454 -443.09016 -1126.9168 -442.87087 L -1133.7636 -439.6863 C -1134.4598 -439.36253 -1135.1783 -439.08926 -1135.9137 -438.86864 L -1146.7841 -435.6075 C -1146.8009 -435.6025 -1146.8176 -435.59746 -1146.8343 -435.5924 L -1157.8024 -432.2628 C -1157.9403 -432.22093 -1158.0776 -432.1772 -1158.2143 -432.13164 L -1171.1355 -427.82456 C -1171.1847 -427.8082 -1171.2339 -427.79205 -1171.2831 -427.77616 L -1182.6505 -424.10925 C -1183.289 -423.9033 -1183.9139 -423.65737 -1184.5215 -423.37296 L -1192.4535 -419.6601 C -1192.8238 -419.48677 -1193.1874 -419.2993 -1193.5434 -419.0981 L -1199.4895 -415.73724 C -1200.7425 -415.029 -1201.1842 -413.43907 -1200.476 -412.18604 C -1200.3988 -412.0496 -1200.3096 -411.9204 -1200.2092 -411.8 L -1199.3451 -410.76307 C -1198.5902 -409.85713 -1197.9377 -408.8705 -1197.3996 -407.8212 L -1194.3224 -401.82076 C -1194.247 -401.6736 -1194.1692 -401.5276 -1194.0892 -401.38285 L -1190.1345 -394.22663 C -1190.051 -394.07555 -1189.97 -393.92313 -1189.8914 -393.76943 L -1185.783 -385.73144 C -1185.534 -385.24413 -1185.3101 -384.74437 -1185.1122 -384.2341 L -1181.6295 -375.25224 C -1181.616 -375.2174 -1181.6023 -375.18263 -1181.5886 -375.1479 L -1177.9923 -366.06246 C -1177.8703 -365.75423 -1177.7579 -365.44228 -1177.6552 -365.12706 L -1175.0334 -357.0743 C -1175.0173 -357.02476 -1175.0014 -356.97516 -1174.9858 -356.9255 L -1171.9137 -347.1672 C -1171.7109 -346.52305 -1171.5491 -345.8667 -1171.4293 -345.2021 L -1169.444 -334.19263 C -1169.4208 -334.0642 -1169.3992 -333.9355 -1169.3792 -333.80658 L -1167.6733 -322.8132 C -1167.6306 -322.53778 -1167.595 -322.2613 -1167.5668 -321.984 L -1166.6794 -313.2873 C -1166.6326 -312.8293 -1166.6057 -312.36952 -1166.5986 -311.9092 L -1166.4144 -299.9336 C -1166.4109 -299.7112 -1166.4029 -299.48895 -1166.3902 -299.2669 L -1165.6198 -285.78535 C -1165.6127 -285.6618 -1165.6043 -285.5383 -1165.5943 -285.41494 L -1164.2608 -268.84057 C -1164.2264 -268.4137 -1164.2092 -267.9856 -1164.2092 -267.55736 L -1164.2092 -255.10758 C -1164.2092 -254.90254 -1164.2053 -254.69753 -1164.1974 -254.49265 L -1163.617 -239.4035 C -1163.6118 -239.26784 -1163.6083 -239.1321 -1163.6066 -238.99635 L -1163.4144 -224.2001 C -1163.411 -223.9334 -1163.4142 -223.66667 -1163.424 -223.40014 L -1163.9983 -207.896 C -1164.0056 -207.69868 -1164.0092 -207.50125 -1164.0092 -207.3038 L -1164.0092 -193.70757 C -1164.0092 -193.50254 -1164.0132 -193.29753 -1164.021 -193.09264 L -1164.6062 -177.87764 C -1164.6082 -177.82588 -1164.6105 -177.77412 -1164.613 -177.72238 L -1165.4083 -161.21945 C -1165.4089 -161.20648 -1165.4095 -161.19351 -1165.4102 -161.18055 L -1166.2047 -145.48938 C -1166.2077 -145.42979 -1166.211 -145.37022 -1166.2147 -145.31067 L -1167.4037 -126.08993 C -1167.4074 -126.02997 -1167.4114 -125.97004 -1167.4158 -125.91013 L -1169.199 -101.54058 C -1169.2058 -101.44686 -1169.2135 -101.3532 -1169.222 -101.25962 L -1171.0079 -81.6148 C -1171.0088 -81.60493 -1171.0097 -81.59506 -1171.0106 -81.58519 L -1172.7814 -62.50028 C -1172.7999 -62.30011 -1172.8223 -62.1003 -1172.8484 -61.90097 L -1174.8091 -46.92825 C -1174.9419 -45.914056 -1175.211 -44.92244 -1175.6092 -43.98027 L -1175.6092 -43.98027 C -1176.0068 -43.03952 -1176.2555 -42.042607 -1176.3463 -41.025345 L -1177.1092 -32.48027 C -1177.617 -26.79324 -1173.6585 -21.674875 -1168.0265 -20.736214 Z" stroke="#7f8080" stroke-linecap="round" stroke-linejoin="round" stroke-width="1"/>
      <path d="M -1257 -306.55385 L -1250.8 -302.15385 L -1242.6 -298.15385 L -1234 -294.55385 L -1225 -290.75385 L -1214 -286.75385 L -1204.6 -283.95385 L -1195.6 -281.35385 L -1186.6 -278.75385 L -1181.2 -277.35385 L -1175.6 -276.35385 L -1173.2 -282.15385 L -1170.6 -287.55385 L -1168.4 -291.55385 L -1165.8 -294.95385 L -1165.6 -303.95385 L -1166.2 -314.95385 L -1168 -325.75385 L -1169.6 -336.15385 L -1172.2 -347.15386 L -1174.6 -356.75386 L -1177.4 -364.75386 L -1180.6 -374.15386 L -1183.4 -381.55386 L -1187 -389.15386 L -1191 -396.75386 L -1195 -404.15386 L -1197.6 -407.75386 L -1201.2 -413.55386 L -1206.6 -409.15386 L -1211.4 -404.35386 L -1216 -398.15386 L -1220.4 -391.95386 L -1225.2 -383.35386 L -1230 -373.95386 L -1234.8 -364.75386 L -1238.4 -356.15386 L -1242.4 -347.15386 L -1245.6 -338.95385 L -1249.4 -329.55385 L -1252.2 -321.55385 L -1255.2 -313.15385 Z" fill="black"/>
      <path d="M -1257 -306.55385 L -1250.8 -302.15385 L -1242.6 -298.15385 L -1234 -294.55385 L -1225 -290.75385 L -1214 -286.75385 L -1204.6 -283.95385 L -1195.6 -281.35385 L -1186.6 -278.75385 L -1181.2 -277.35385 L -1175.6 -276.35385 L -1173.2 -282.15385 L -1170.6 -287.55385 L -1168.4 -291.55385 L -1165.8 -294.95385 L -1165.6 -303.95385 L -1166.2 -314.95385 L -1168 -325.75385 L -1169.6 -336.15385 L -1172.2 -347.15386 L -1174.6 -356.75386 L -1177.4 -364.75386 L -1180.6 -374.15386 L -1183.4 -381.55386 L -1187 -389.15386 L -1191 -396.75386 L -1195 -404.15386 L -1197.6 -407.75386 L -1201.2 -413.55386 L -1206.6 -409.15386 L -1211.4 -404.35386 L -1216 -398.15386 L -1220.4 -391.95386 L -1225.2 -383.35386 L -1230 -373.95386 L -1234.8 -364.75386 L -1238.4 -356.15386 L -1242.4 -347.15386 L -1245.6 -338.95385 L -1249.4 -329.55385 L -1252.2 -321.55385 L -1255.2 -313.15385 Z" stroke="#7f8080" stroke-linecap="round" stroke-linejoin="round" stroke-width="1"/>
      <path d="M -825.5947 -307.49725 L -831.7947 -303.09725 L -839.9947 -299.09725 L -848.5947 -295.49725 L -857.5947 -291.69725 L -868.5947 -287.69725 L -877.9947 -284.89725 L -886.9947 -282.29725 L -895.9947 -279.69725 L -901.3947 -278.29725 L -906.9947 -277.29725 L -909.3947 -283.09725 L -911.9947 -288.49725 L -914.1947 -292.49725 L -916.7947 -295.89725 L -916.9947 -304.89725 L -916.3947 -315.89725 L -914.5947 -326.69725 L -912.9947 -337.09725 L -910.3947 -348.09725 L -907.9947 -357.69725 L -905.1947 -365.69725 L -901.9947 -375.09725 L -899.1947 -382.49725 L -895.5947 -390.09725 L -891.5947 -397.69725 L -887.5947 -405.09725 L -884.9947 -408.69725 L -881.3947 -414.49725 L -875.9947 -410.09725 L -871.1947 -405.29725 L -866.5947 -399.09725 L -862.1947 -392.89725 L -857.3947 -384.29725 L -852.5947 -374.89725 L -847.7947 -365.69725 L -844.1947 -357.09725 L -840.1947 -348.09725 L -836.9947 -339.89725 L -833.1947 -330.49725 L -830.3947 -322.49725 L -827.3947 -314.09725 Z" fill="black"/>
      <path d="M -825.5947 -307.49725 L -831.7947 -303.09725 L -839.9947 -299.09725 L -848.5947 -295.49725 L -857.5947 -291.69725 L -868.5947 -287.69725 L -877.9947 -284.89725 L -886.9947 -282.29725 L -895.9947 -279.69725 L -901.3947 -278.29725 L -906.9947 -277.29725 L -909.3947 -283.09725 L -911.9947 -288.49725 L -914.1947 -292.49725 L -916.7947 -295.89725 L -916.9947 -304.89725 L -916.3947 -315.89725 L -914.5947 -326.69725 L -912.9947 -337.09725 L -910.3947 -348.09725 L -907.9947 -357.69725 L -905.1947 -365.69725 L -901.9947 -375.09725 L -899.1947 -382.49725 L -895.5947 -390.09725 L -891.5947 -397.69725 L -887.5947 -405.09725 L -884.9947 -408.69725 L -881.3947 -414.49725 L -875.9947 -410.09725 L -871.1947 -405.29725 L -866.5947 -399.09725 L -862.1947 -392.89725 L -857.3947 -384.29725 L -852.5947 -374.89725 L -847.7947 -365.69725 L -844.1947 -357.09725 L -840.1947 -348.09725 L -836.9947 -339.89725 L -833.1947 -330.49725 L -830.3947 -322.49725 L -827.3947 -314.09725 Z" stroke="#7f8080" stroke-linecap="round" stroke-linejoin="round" stroke-width="1"/>
      <path d="M -1257 -306.55385 L -1250.8 -302.15385 L -1242.6 -298.15385 L -1234 -294.55385 L -1225 -290.75385 L -1214 -286.75385 L -1204.6 -283.95385 L -1195.6 -281.35385 L -1186.6 -278.75385 L -1181.2 -277.35385 L -1175.6 -276.35385 L -1172.6 -282.75385 L -1176.4 -283.55385 L -1181.2 -284.75385 L -1186.8 -285.95385 L -1192.8 -287.75385 L -1197.4 -289.15385 L -1201.6 -290.35385 L -1206.2 -292.35385 L -1210.8 -293.95385 L -1215.6 -295.95385 L -1219.6 -297.35385 L -1224.8 -299.55385 L -1229.4 -301.15385 L -1234.2 -303.35385 L -1239 -305.15385 L -1243 -307.15385 L -1247.4 -309.35385 L -1251.8 -311.55385 L -1255.2 -313.15385 Z" fill="url(#Obj_Gradient_2)"/>
      <path d="M -1257 -306.55385 L -1250.8 -302.15385 L -1242.6 -298.15385 L -1234 -294.55385 L -1225 -290.75385 L -1214 -286.75385 L -1204.6 -283.95385 L -1195.6 -281.35385 L -1186.6 -278.75385 L -1181.2 -277.35385 L -1175.6 -276.35385 L -1172.6 -282.75385 L -1176.4 -283.55385 L -1181.2 -284.75385 L -1186.8 -285.95385 L -1192.8 -287.75385 L -1197.4 -289.15385 L -1201.6 -290.35385 L -1206.2 -292.35385 L -1210.8 -293.95385 L -1215.6 -295.95385 L -1219.6 -297.35385 L -1224.8 -299.55385 L -1229.4 -301.15385 L -1234.2 -303.35385 L -1239 -305.15385 L -1243 -307.15385 L -1247.4 -309.35385 L -1251.8 -311.55385 L -1255.2 -313.15385 Z" stroke="#7f8080" stroke-linecap="round" stroke-linejoin="round" stroke-width="1"/>
      <path d="M -825.5947 -307.49725 L -831.7947 -303.09725 L -839.9947 -299.09725 L -848.5947 -295.49725 L -857.5947 -291.69725 L -868.5947 -287.69725 L -877.9947 -284.89725 L -886.9947 -282.29725 L -895.9947 -279.69725 L -901.3947 -278.29725 L -906.9947 -277.29725 L -909.9947 -283.69725 L -906.1947 -284.49725 L -901.3947 -285.69725 L -895.7947 -286.89725 L -889.7947 -288.69725 L -885.1947 -290.09725 L -880.9947 -291.29725 L -876.3947 -293.29725 L -871.7947 -294.89725 L -866.9947 -296.89725 L -862.9947 -298.29725 L -857.7947 -300.49725 L -853.1947 -302.09725 L -848.3947 -304.29725 L -843.5947 -306.09725 L -839.5947 -308.09725 L -835.1947 -310.29725 L -830.7947 -312.49725 L -827.3947 -314.09725 Z" fill="url(#Obj_Gradient_3)"/>
      <path d="M -825.5947 -307.49725 L -831.7947 -303.09725 L -839.9947 -299.09725 L -848.5947 -295.49725 L -857.5947 -291.69725 L -868.5947 -287.69725 L -877.9947 -284.89725 L -886.9947 -282.29725 L -895.9947 -279.69725 L -901.3947 -278.29725 L -906.9947 -277.29725 L -909.9947 -283.69725 L -906.1947 -284.49725 L -901.3947 -285.69725 L -895.7947 -286.89725 L -889.7947 -288.69725 L -885.1947 -290.09725 L -880.9947 -291.29725 L -876.3947 -293.29725 L -871.7947 -294.89725 L -866.9947 -296.89725 L -862.9947 -298.29725 L -857.7947 -300.49725 L -853.1947 -302.09725 L -848.3947 -304.29725 L -843.5947 -306.09725 L -839.5947 -308.09725 L -835.1947 -310.29725 L -830.7947 -312.49725 L -827.3947 -314.09725 Z" stroke="#7f8080" stroke-linecap="round" stroke-linejoin="round" stroke-width="1"/>
      <path d="M -1106.9408 -456.2441 L -1101.5408 -456.8441 L -1094.7408 -453.4441 L -1089.7408 -451.6441 L -1081.3408 -449.8441 L -1072.9408 -448.8441 L -1064.9408 -447.8441 L -1057.3408 -447.6441 L -1048.7408 -447.2441 L -1037.1408 -447.4441 L -1028.7408 -447.8441 L -1019.3408 -448.4441 L -1010.9408 -449.2441 L -1001.7408 -450.6441 L -993.5408 -452.8441 L -987.7408 -454.6441 L -982.1408 -457.2441 L -979.3408 -456.0441 L -978.9408 -450.4441 L -981.7408 -442.4441 L -987.1408 -439.6441 L -997.7408 -436.4441 L -1009.1408 -434.0441 L -1020.3408 -433.2441 L -1032.7408 -432.2441 L -1043.1408 -432.2441 L -1052.5408 -432.2441 L -1064.1408 -432.8441 L -1075.3408 -433.6441 L -1085.9408 -435.8441 L -1094.5408 -437.8441 L -1100.7408 -440.6441 L -1102.7408 -442.2441 L -1105.9408 -449.8441 Z" fill="url(#Obj_Gradient_4)"/>
      <path d="M -1106.9408 -456.2441 L -1101.5408 -456.8441 L -1094.7408 -453.4441 L -1089.7408 -451.6441 L -1081.3408 -449.8441 L -1072.9408 -448.8441 L -1064.9408 -447.8441 L -1057.3408 -447.6441 L -1048.7408 -447.2441 L -1037.1408 -447.4441 L -1028.7408 -447.8441 L -1019.3408 -448.4441 L -1010.9408 -449.2441 L -1001.7408 -450.6441 L -993.5408 -452.8441 L -987.7408 -454.6441 L -982.1408 -457.2441 L -979.3408 -456.0441 L -978.9408 -450.4441 L -981.7408 -442.4441 L -987.1408 -439.6441 L -997.7408 -436.4441 L -1009.1408 -434.0441 L -1020.3408 -433.2441 L -1032.7408 -432.2441 L -1043.1408 -432.2441 L -1052.5408 -432.2441 L -1064.1408 -432.8441 L -1075.3408 -433.6441 L -1085.9408 -435.8441 L -1094.5408 -437.8441 L -1100.7408 -440.6441 L -1102.7408 -442.2441 L -1105.9408 -449.8441 Z" stroke="#7f8080" stroke-linecap="round" stroke-linejoin="round" stroke-width="1"/>
      <path d="M -1177.1868 -30.79999 L -1177.1868 -30.79999 C -1177.2525 -30.274514 -1177.1896 -29.740947 -1177.0037 -29.2451 L -1176.3527 -27.509076 C -1176.176 -27.037728 -1175.9489 -26.58682 -1175.6754 -26.164182 L -1174.7076 -24.66847 C -1174.1666 -23.832443 -1173.4535 -23.121454 -1172.6159 -22.58298 L -1171.5378 -21.889947 C -1171.2376 -21.696926 -1170.923 -21.527153 -1170.5968 -21.382115 L -1169.28 -20.796514 C -1168.6835 -20.53124 -1168.0528 -20.35072 -1167.4062 -20.260204 L -1158.3958 -18.998745 C -1158.3858 -18.997346 -1158.3758 -18.995968 -1158.3658 -18.994612 L -1146.6498 -17.406002 C -1146.6038 -17.399765 -1146.5577 -17.393985 -1146.5116 -17.388664 L -1136.2287 -16.202172 C -1136.1968 -16.198488 -1136.1648 -16.195024 -1136.1328 -16.19178 L -1122.4228 -14.800904 C -1122.3948 -14.798065 -1122.3668 -14.795395 -1122.3388 -14.792894 L -1111.2335 -13.80135 C -1111.1984 -13.798214 -1111.1632 -13.795344 -1111.128 -13.792739 L -1100.4415 -13.001144 C -1100.401 -12.998145 -1100.3605 -12.995499 -1100.32 -12.993205 L -1089.812 -12.398414 C -1089.7912 -12.397235 -1089.7704 -12.395964 -1089.7496 -12.3946 L -1077.7068 -11.604909 C -1077.6228 -11.599401 -1077.5387 -11.595408 -1077.4546 -11.592933 L -1064.0074 -11.19743 C -1063.9897 -11.196907 -1063.9719 -11.196317 -1063.9542 -11.195659 L -1053.3103 -10.801442 C -1053.224 -10.798245 -1053.1376 -10.796646 -1053.0512 -10.796646 L -1042.4422 -10.796646 C -1042.4013 -10.796646 -1042.3603 -10.796287 -1042.3194 -10.795569 L -1031.233 -10.60107 C -1031.0649 -10.598122 -1030.8968 -10.601228 -1030.729 -10.610383 L -1020.1077 -11.189723 C -1020.0231 -11.194338 -1019.9384 -11.197416 -1019.8537 -11.198957 L -1009.0891 -11.394676 C -1009.0169 -11.395989 -1008.9447 -11.39842 -1008.8726 -11.40197 L -996.8539 -11.993049 C -996.8052 -11.995447 -996.7564 -11.998355 -996.7078 -12.001772 L -985.4677 -12.790547 C -985.4098 -12.794613 -985.3519 -12.7994 -985.2941 -12.804906 L -972.8835 -13.986866 C -972.815 -13.993386 -972.7465 -13.998896 -972.6779 -14.003396 L -960.7458 -14.785824 C -960.6358 -14.793038 -960.526 -14.80285 -960.4164 -14.815251 L -950.0041 -15.994008 C -949.9886 -15.995767 -949.973 -15.997578 -949.9575 -15.99944 L -940.0098 -17.193166 C -939.9905 -17.195486 -939.9711 -17.197887 -939.9518 -17.200368 L -926.1161 -18.977907 C -926.0188 -18.990397 -925.9219 -19.004927 -925.8253 -19.021487 L -919.2718 -20.144942 C -919.0708 -20.179393 -918.8685 -20.205047 -918.6653 -20.22183 L -915.4329 -20.488805 C -914.5437 -20.562252 -913.6767 -20.805028 -912.8786 -21.20406 L -911.3924 -21.947206 C -910.7918 -22.2475 -910.2375 -22.632648 -909.7466 -23.09081 L -908.4115 -24.33692 C -907.8047 -24.903285 -907.3493 -25.612526 -907.0868 -26.39999 L -906.792 -27.284477 C -906.7219 -27.4947 -906.6618 -27.708134 -906.612 -27.924055 L -906.1423 -29.959444 C -906.1071 -30.112076 -906.1405 -30.272476 -906.2338 -30.39832 L -906.2338 -30.39832 C -906.3241 -30.520198 -906.4748 -30.581695 -906.6246 -30.55786 L -915.1045 -29.20879 C -915.1553 -29.200695 -915.2061 -29.192037 -915.2568 -29.18282 L -928.2416 -26.821952 C -928.3344 -26.805083 -928.4275 -26.79009 -928.5209 -26.776984 L -939.7506 -25.200888 C -939.7707 -25.19806 -939.7909 -25.195144 -939.811 -25.19214 L -952.9336 -23.233546 C -953.0983 -23.208954 -953.2639 -23.190252 -953.43 -23.177475 L -966.1548 -22.198643 C -966.1721 -22.197312 -966.1895 -22.196045 -966.2068 -22.194842 L -980.5469 -21.198999 C -980.5695 -21.19743 -980.5921 -21.195972 -980.6147 -21.194622 L -993.918 -20.400398 C -993.9598 -20.397897 -994.0018 -20.395772 -994.0437 -20.394025 L -1008.2352 -19.802715 C -1008.3322 -19.79867 -1008.4294 -19.796646 -1008.5266 -19.796646 L -1021.7808 -19.796646 L -1034.3225 -19.796646 C -1034.3614 -19.796646 -1034.4002 -19.796322 -1034.4391 -19.795674 L -1046.1975 -19.5997 C -1046.3197 -19.597665 -1046.4419 -19.598828 -1046.564 -19.60319 L -1057.3976 -19.990103 C -1057.5197 -19.994464 -1057.6419 -19.995628 -1057.7641 -19.993591 L -1069.4787 -19.798347 C -1069.5468 -19.797213 -1069.6148 -19.797071 -1069.6829 -19.797922 L -1085.3852 -19.9942 C -1085.5156 -19.99583 -1085.6459 -20.001104 -1085.776 -20.010016 L -1100.0858 -20.990138 C -1100.1491 -20.994476 -1100.2124 -20.999677 -1100.2756 -21.005738 L -1114.7666 -22.395286 C -1114.7761 -22.396193 -1114.7855 -22.39712 -1114.795 -22.398064 L -1128.607 -23.779267 C -1128.7228 -23.790851 -1128.8384 -23.805324 -1128.9535 -23.82267 L -1143.2627 -25.978844 C -1143.3414 -25.99071 -1143.4204 -26.001234 -1143.4995 -26.010406 L -1157.0194 -27.577935 C -1157.127 -27.590407 -1157.2343 -27.605375 -1157.3411 -27.622825 L -1166.7332 -29.156227 C -1166.8982 -29.183165 -1167.0622 -29.216004 -1167.2248 -29.254682 L -1176.3024 -31.41346 C -1176.6908 -31.50581 -1177.0804 -31.265877 -1177.1728 -30.87756 C -1177.1788 -30.851977 -1177.1835 -30.826083 -1177.1868 -30.79999 Z" fill="url(#Obj_Gradient_5)"/>
      <path d="M -1177.1868 -30.79999 L -1177.1868 -30.79999 C -1177.2525 -30.274514 -1177.1896 -29.740947 -1177.0037 -29.2451 L -1176.3527 -27.509076 C -1176.176 -27.037728 -1175.9489 -26.58682 -1175.6754 -26.164182 L -1174.7076 -24.66847 C -1174.1666 -23.832443 -1173.4535 -23.121454 -1172.6159 -22.58298 L -1171.5378 -21.889947 C -1171.2376 -21.696926 -1170.923 -21.527153 -1170.5968 -21.382115 L -1169.28 -20.796514 C -1168.6835 -20.53124 -1168.0528 -20.35072 -1167.4062 -20.260204 L -1158.3958 -18.998745 C -1158.3858 -18.997346 -1158.3758 -18.995968 -1158.3658 -18.994612 L -1146.6498 -17.406002 C -1146.6038 -17.399765 -1146.5577 -17.393985 -1146.5116 -17.388664 L -1136.2287 -16.202172 C -1136.1968 -16.198488 -1136.1648 -16.195024 -1136.1328 -16.19178 L -1122.4228 -14.800904 C -1122.3948 -14.798065 -1122.3668 -14.795395 -1122.3388 -14.792894 L -1111.2335 -13.80135 C -1111.1984 -13.798214 -1111.1632 -13.795344 -1111.128 -13.792739 L -1100.4415 -13.001144 C -1100.401 -12.998145 -1100.3605 -12.995499 -1100.32 -12.993205 L -1089.812 -12.398414 C -1089.7912 -12.397235 -1089.7704 -12.395964 -1089.7496 -12.3946 L -1077.7068 -11.604909 C -1077.6228 -11.599401 -1077.5387 -11.595408 -1077.4546 -11.592933 L -1064.0074 -11.19743 C -1063.9897 -11.196907 -1063.9719 -11.196317 -1063.9542 -11.195659 L -1053.3103 -10.801442 C -1053.224 -10.798245 -1053.1376 -10.796646 -1053.0512 -10.796646 L -1042.4422 -10.796646 C -1042.4013 -10.796646 -1042.3603 -10.796287 -1042.3194 -10.795569 L -1031.233 -10.60107 C -1031.0649 -10.598122 -1030.8968 -10.601228 -1030.729 -10.610383 L -1020.1077 -11.189723 C -1020.0231 -11.194338 -1019.9384 -11.197416 -1019.8537 -11.198957 L -1009.0891 -11.394676 C -1009.0169 -11.395989 -1008.9447 -11.39842 -1008.8726 -11.40197 L -996.8539 -11.993049 C -996.8052 -11.995447 -996.7564 -11.998355 -996.7078 -12.001772 L -985.4677 -12.790547 C -985.4098 -12.794613 -985.3519 -12.7994 -985.2941 -12.804906 L -972.8835 -13.986866 C -972.815 -13.993386 -972.7465 -13.998896 -972.6779 -14.003396 L -960.7458 -14.785824 C -960.6358 -14.793038 -960.526 -14.80285 -960.4164 -14.815251 L -950.0041 -15.994008 C -949.9886 -15.995767 -949.973 -15.997578 -949.9575 -15.99944 L -940.0098 -17.193166 C -939.9905 -17.195486 -939.9711 -17.197887 -939.9518 -17.200368 L -926.1161 -18.977907 C -926.0188 -18.990397 -925.9219 -19.004927 -925.8253 -19.021487 L -919.2718 -20.144942 C -919.0708 -20.179393 -918.8685 -20.205047 -918.6653 -20.22183 L -915.4329 -20.488805 C -914.5437 -20.562252 -913.6767 -20.805028 -912.8786 -21.20406 L -911.3924 -21.947206 C -910.7918 -22.2475 -910.2375 -22.632648 -909.7466 -23.09081 L -908.4115 -24.33692 C -907.8047 -24.903285 -907.3493 -25.612526 -907.0868 -26.39999 L -906.792 -27.284477 C -906.7219 -27.4947 -906.6618 -27.708134 -906.612 -27.924055 L -906.1423 -29.959444 C -906.1071 -30.112076 -906.1405 -30.272476 -906.2338 -30.39832 L -906.2338 -30.39832 C -906.3241 -30.520198 -906.4748 -30.581695 -906.6246 -30.55786 L -915.1045 -29.20879 C -915.1553 -29.200695 -915.2061 -29.192037 -915.2568 -29.18282 L -928.2416 -26.821952 C -928.3344 -26.805083 -928.4275 -26.79009 -928.5209 -26.776984 L -939.7506 -25.200888 C -939.7707 -25.19806 -939.7909 -25.195144 -939.811 -25.19214 L -952.9336 -23.233546 C -953.0983 -23.208954 -953.2639 -23.190252 -953.43 -23.177475 L -966.1548 -22.198643 C -966.1721 -22.197312 -966.1895 -22.196045 -966.2068 -22.194842 L -980.5469 -21.198999 C -980.5695 -21.19743 -980.5921 -21.195972 -980.6147 -21.194622 L -993.918 -20.400398 C -993.9598 -20.397897 -994.0018 -20.395772 -994.0437 -20.394025 L -1008.2352 -19.802715 C -1008.3322 -19.79867 -1008.4294 -19.796646 -1008.5266 -19.796646 L -1021.7808 -19.796646 L -1034.3225 -19.796646 C -1034.3614 -19.796646 -1034.4002 -19.796322 -1034.4391 -19.795674 L -1046.1975 -19.5997 C -1046.3197 -19.597665 -1046.4419 -19.598828 -1046.564 -19.60319 L -1057.3976 -19.990103 C -1057.5197 -19.994464 -1057.6419 -19.995628 -1057.7641 -19.993591 L -1069.4787 -19.798347 C -1069.5468 -19.797213 -1069.6148 -19.797071 -1069.6829 -19.797922 L -1085.3852 -19.9942 C -1085.5156 -19.99583 -1085.6459 -20.001104 -1085.776 -20.010016 L -1100.0858 -20.990138 C -1100.1491 -20.994476 -1100.2124 -20.999677 -1100.2756 -21.005738 L -1114.7666 -22.395286 C -1114.7761 -22.396193 -1114.7855 -22.39712 -1114.795 -22.398064 L -1128.607 -23.779267 C -1128.7228 -23.790851 -1128.8384 -23.805324 -1128.9535 -23.82267 L -1143.2627 -25.978844 C -1143.3414 -25.99071 -1143.4204 -26.001234 -1143.4995 -26.010406 L -1157.0194 -27.577935 C -1157.127 -27.590407 -1157.2343 -27.605375 -1157.3411 -27.622825 L -1166.7332 -29.156227 C -1166.8982 -29.183165 -1167.0622 -29.216004 -1167.2248 -29.254682 L -1176.3024 -31.41346 C -1176.6908 -31.50581 -1177.0804 -31.265877 -1177.1728 -30.87756 C -1177.1788 -30.851977 -1177.1835 -30.826083 -1177.1868 -30.79999 Z" stroke="#7f8080" stroke-linecap="round" stroke-linejoin="round" stroke-width="1"/>
      <path d="M -908.0936 -359.32346 L -902.6315 -374.82894 C -902.4654 -375.3004 -902.2773 -375.76385 -902.0678 -376.2177 L -896.5362 -388.20276 C -896.4335 -388.42526 -896.3258 -388.64536 -896.213 -388.8629 L -890.8507 -399.20433 C -890.805 -399.29247 -890.7585 -399.3802 -890.7112 -399.46746 L -885.4952 -409.08443 C -884.7579 -410.4438 -883.8083 -411.6767 -882.6822 -412.73655 L -882.6822 -412.73655 C -882.007 -413.372 -881.9748 -414.4345 -882.6103 -415.1097 C -882.7348 -415.242 -882.8799 -415.3532 -883.04 -415.43896 L -886.2542 -417.1608 C -886.4728 -417.27796 -886.6942 -417.39 -886.918 -417.49684 L -894.772 -421.2453 C -895.1786 -421.4394 -895.5932 -421.6162 -896.0148 -421.77526 L -905.6896 -425.42614 C -905.8846 -425.49974 -906.0811 -425.5695 -906.2789 -425.63544 L -918.9733 -429.86693 C -919.1126 -429.91334 -919.2524 -429.95783 -919.3929 -430.0004 L -932.2764 -433.9045 C -932.3469 -433.92586 -932.4173 -433.9477 -932.4875 -433.97007 L -944.9915 -437.9486 C -945.3851 -438.07385 -945.7738 -438.2143 -946.1565 -438.3696 L -958.1325 -443.2294 C -958.9641 -443.5669 -959.7659 -443.97377 -960.5294 -444.4457 L -970.1486 -450.39216 C -970.3043 -450.4884 -970.4584 -450.58733 -970.6107 -450.68887 L -975.5008 -453.94893 C -976.4822 -454.6032 -977.3535 -455.4091 -978.0822 -456.33655 L -978.0822 -456.33655 C -978.1878 -456.47095 -978.3824 -456.4943 -978.5168 -456.3887 C -978.6195 -456.30797 -978.6605 -456.1714 -978.6192 -456.04747 L -978.4822 -455.63655 C -978.0229 -454.2588 -977.9184 -452.7875 -978.1782 -451.35866 L -978.5733 -449.1854 C -978.8445 -447.69374 -979.3264 -446.2482 -980.0044 -444.89214 L -981.5367 -441.8275 C -981.8334 -441.2341 -982.1667 -440.65974 -982.5347 -440.1077 L -985.7384 -435.30217 C -986.167 -434.65926 -986.6416 -434.04826 -987.1585 -433.47393 L -991.7206 -428.405 C -991.7616 -428.35936 -991.803 -428.31397 -991.8446 -428.2688 L -997.8388 -421.7608 C -998.4665 -421.07925 -999.1523 -420.45353 -999.8883 -419.8907 L -1004.9125 -416.04866 C -1005.3586 -415.7075 -1005.8224 -415.39004 -1006.302 -415.09765 L -1012.7884 -411.1425 C -1013.45 -410.73907 -1014.1401 -410.38423 -1014.8532 -410.0808 L -1021.9686 -407.05295 C -1022.7763 -406.70927 -1023.6109 -406.4326 -1024.4639 -406.22582 L -1028.543 -405.23696 C -1029.3678 -405.037 -1030.2072 -404.903 -1031.0533 -404.8362 L -1036.7535 -404.3862 C -1037.1725 -404.3531 -1037.5925 -404.33655 -1038.0128 -404.33655 L -1045.0451 -404.33655 C -1045.8022 -404.33655 -1046.5583 -404.3903 -1047.3078 -404.49736 L -1055.2543 -405.63256 C -1055.7393 -405.70185 -1056.2209 -405.7934 -1056.6975 -405.90685 L -1062.6587 -407.3262 C -1063.8042 -407.59893 -1064.9161 -407.9973 -1065.9741 -408.514 L -1072.2541 -411.581 C -1072.7392 -411.8179 -1073.212 -412.07916 -1073.6706 -412.36383 L -1077.8824 -414.9781 C -1078.4816 -415.35 -1079.0555 -415.7611 -1079.6005 -416.2087 L -1084.0466 -419.86087 C -1084.2703 -420.0446 -1084.489 -420.2344 -1084.7023 -420.43 L -1088.5047 -423.9155 C -1088.956 -424.3292 -1089.3832 -424.76844 -1089.7841 -425.2311 L -1093.9029 -429.9835 C -1094.2222 -430.352 -1094.5246 -430.73493 -1094.809 -431.13106 L -1099.2387 -437.30094 C -1099.7336 -437.99025 -1100.1728 -438.71784 -1100.5523 -439.47683 L -1103.1288 -444.62976 C -1103.1644 -444.70095 -1103.1995 -444.7724 -1103.234 -444.8441 L -1104.4822 -447.43655 C -1105.3329 -449.2034 -1105.6884 -451.16795 -1105.5109 -453.1209 L -1105.3307 -455.10316 C -1105.3069 -455.365 -1105.4999 -455.5966 -1105.7617 -455.6204 C -1105.9241 -455.63517 -1106.0828 -455.5658 -1106.1822 -455.43655 L -1106.1822 -455.43655 C -1106.8456 -454.57407 -1107.6257 -453.808 -1108.5001 -453.1603 L -1112.3967 -450.274 C -1112.5203 -450.18236 -1112.6453 -450.09254 -1112.7716 -450.0045 L -1117.3939 -446.78296 C -1118.5806 -445.95584 -1119.874 -445.29347 -1121.2388 -444.81397 L -1125.8459 -443.19525 C -1126.3365 -443.0229 -1126.8183 -442.8267 -1127.2898 -442.6074 L -1134.1366 -439.42287 C -1134.8328 -439.0991 -1135.5513 -438.8258 -1136.2867 -438.6052 L -1147.1571 -435.34407 C -1147.1738 -435.33906 -1147.1905 -435.334 -1147.2072 -435.32894 L -1158.1753 -431.99934 C -1158.3132 -431.9575 -1158.4506 -431.91376 -1158.5873 -431.8682 L -1171.5085 -427.5611 C -1171.5576 -427.54473 -1171.6068 -427.5286 -1171.6561 -427.5127 L -1183.0235 -423.8458 C -1183.662 -423.63983 -1184.2869 -423.3939 -1184.8945 -423.1095 L -1192.8265 -419.39667 C -1193.1968 -419.2233 -1193.5604 -419.03583 -1193.9163 -418.83463 L -1199.8625 -415.4738 C -1201.1155 -414.76555 -1201.5571 -413.1756 -1200.8489 -411.9226 C -1200.7718 -411.78615 -1200.6825 -411.65695 -1200.5822 -411.53655 L -1199.7181 -410.4996 C -1198.9631 -409.5937 -1198.3107 -408.60706 -1197.7725 -407.55773 L -1194.6954 -401.5573 C -1194.6199 -401.41014 -1194.5422 -401.26416 -1194.4622 -401.1194 L -1190.5074 -393.9632 C -1190.424 -393.8121 -1190.3429 -393.6597 -1190.2643 -393.506 L -1186.156 -385.468 C -1185.907 -384.9807 -1185.683 -384.4809 -1185.4852 -383.97066 L -1182.0024 -374.9888 C -1181.989 -374.95396 -1181.9753 -374.9192 -1181.9616 -374.88445 L -1178.3652 -365.799 C -1178.2432 -365.49077 -1178.1308 -365.17882 -1178.0282 -364.8636 L -1175.4064 -356.81083 C -1175.3902 -356.7613 -1175.3744 -356.7117 -1175.3587 -356.66203 L -1172.2867 -346.90376 C -1172.0839 -346.2596 -1171.9221 -345.60324 -1171.8022 -344.93863 L -1169.8169 -333.92918 C -1169.7938 -333.80076 -1169.7722 -333.67207 -1169.7522 -333.54312 L -1168.0463 -322.54974 C -1168.0036 -322.27433 -1167.968 -321.99784 -1167.9397 -321.72056 L -1167.0523 -313.02385 C -1167.0056 -312.56586 -1166.9786 -312.10607 -1166.9716 -311.64576 L -1166.7873 -299.67013 C -1166.7839 -299.44777 -1166.7758 -299.2255 -1166.7632 -299.00346 L -1165.9928 -285.5219 C -1165.9857 -285.39833 -1165.9772 -285.27486 -1165.9673 -285.1515 L -1164.6337 -268.5771 C -1164.5994 -268.15024 -1164.5822 -267.72216 -1164.5822 -267.2939 L -1164.5822 -254.84412 C -1164.5822 -254.6391 -1164.5782 -254.43408 -1164.5704 -254.2292 L -1164.2822 -246.73654 C -1164.163 -243.63913 -1161.5555 -241.22475 -1158.4581 -241.34389 C -1157.851 -241.36724 -1157.2517 -241.489 -1156.6836 -241.70444 L -920.9647 -331.09844 C -915.5894 -333.13698 -911.7209 -337.90262 -910.8311 -343.58224 L -908.8098 -356.4838 C -908.6584 -357.45027 -908.4186 -358.4008 -908.0936 -359.32346 Z" fill="black"/>
      <path d="M -908.0936 -359.32346 L -902.6315 -374.82894 C -902.4654 -375.3004 -902.2773 -375.76385 -902.0678 -376.2177 L -896.5362 -388.20276 C -896.4335 -388.42526 -896.3258 -388.64536 -896.213 -388.8629 L -890.8507 -399.20433 C -890.805 -399.29247 -890.7585 -399.3802 -890.7112 -399.46746 L -885.4952 -409.08443 C -884.7579 -410.4438 -883.8083 -411.6767 -882.6822 -412.73655 L -882.6822 -412.73655 C -882.007 -413.372 -881.9748 -414.4345 -882.6103 -415.1097 C -882.7348 -415.242 -882.8799 -415.3532 -883.04 -415.43896 L -886.2542 -417.1608 C -886.4728 -417.27796 -886.6942 -417.39 -886.918 -417.49684 L -894.772 -421.2453 C -895.1786 -421.4394 -895.5932 -421.6162 -896.0148 -421.77526 L -905.6896 -425.42614 C -905.8846 -425.49974 -906.0811 -425.5695 -906.2789 -425.63544 L -918.9733 -429.86693 C -919.1126 -429.91334 -919.2524 -429.95783 -919.3929 -430.0004 L -932.2764 -433.9045 C -932.3469 -433.92586 -932.4173 -433.9477 -932.4875 -433.97007 L -944.9915 -437.9486 C -945.3851 -438.07385 -945.7738 -438.2143 -946.1565 -438.3696 L -958.1325 -443.2294 C -958.9641 -443.5669 -959.7659 -443.97377 -960.5294 -444.4457 L -970.1486 -450.39216 C -970.3043 -450.4884 -970.4584 -450.58733 -970.6107 -450.68887 L -975.5008 -453.94893 C -976.4822 -454.6032 -977.3535 -455.4091 -978.0822 -456.33655 L -978.0822 -456.33655 C -978.1878 -456.47095 -978.3824 -456.4943 -978.5168 -456.3887 C -978.6195 -456.30797 -978.6605 -456.1714 -978.6192 -456.04747 L -978.4822 -455.63655 C -978.0229 -454.2588 -977.9184 -452.7875 -978.1782 -451.35866 L -978.5733 -449.1854 C -978.8445 -447.69374 -979.3264 -446.2482 -980.0044 -444.89214 L -981.5367 -441.8275 C -981.8334 -441.2341 -982.1667 -440.65974 -982.5347 -440.1077 L -985.7384 -435.30217 C -986.167 -434.65926 -986.6416 -434.04826 -987.1585 -433.47393 L -991.7206 -428.405 C -991.7616 -428.35936 -991.803 -428.31397 -991.8446 -428.2688 L -997.8388 -421.7608 C -998.4665 -421.07925 -999.1523 -420.45353 -999.8883 -419.8907 L -1004.9125 -416.04866 C -1005.3586 -415.7075 -1005.8224 -415.39004 -1006.302 -415.09765 L -1012.7884 -411.1425 C -1013.45 -410.73907 -1014.1401 -410.38423 -1014.8532 -410.0808 L -1021.9686 -407.05295 C -1022.7763 -406.70927 -1023.6109 -406.4326 -1024.4639 -406.22582 L -1028.543 -405.23696 C -1029.3678 -405.037 -1030.2072 -404.903 -1031.0533 -404.8362 L -1036.7535 -404.3862 C -1037.1725 -404.3531 -1037.5925 -404.33655 -1038.0128 -404.33655 L -1045.0451 -404.33655 C -1045.8022 -404.33655 -1046.5583 -404.3903 -1047.3078 -404.49736 L -1055.2543 -405.63256 C -1055.7393 -405.70185 -1056.2209 -405.7934 -1056.6975 -405.90685 L -1062.6587 -407.3262 C -1063.8042 -407.59893 -1064.9161 -407.9973 -1065.9741 -408.514 L -1072.2541 -411.581 C -1072.7392 -411.8179 -1073.212 -412.07916 -1073.6706 -412.36383 L -1077.8824 -414.9781 C -1078.4816 -415.35 -1079.0555 -415.7611 -1079.6005 -416.2087 L -1084.0466 -419.86087 C -1084.2703 -420.0446 -1084.489 -420.2344 -1084.7023 -420.43 L -1088.5047 -423.9155 C -1088.956 -424.3292 -1089.3832 -424.76844 -1089.7841 -425.2311 L -1093.9029 -429.9835 C -1094.2222 -430.352 -1094.5246 -430.73493 -1094.809 -431.13106 L -1099.2387 -437.30094 C -1099.7336 -437.99025 -1100.1728 -438.71784 -1100.5523 -439.47683 L -1103.1288 -444.62976 C -1103.1644 -444.70095 -1103.1995 -444.7724 -1103.234 -444.8441 L -1104.4822 -447.43655 C -1105.3329 -449.2034 -1105.6884 -451.16795 -1105.5109 -453.1209 L -1105.3307 -455.10316 C -1105.3069 -455.365 -1105.4999 -455.5966 -1105.7617 -455.6204 C -1105.9241 -455.63517 -1106.0828 -455.5658 -1106.1822 -455.43655 L -1106.1822 -455.43655 C -1106.8456 -454.57407 -1107.6257 -453.808 -1108.5001 -453.1603 L -1112.3967 -450.274 C -1112.5203 -450.18236 -1112.6453 -450.09254 -1112.7716 -450.0045 L -1117.3939 -446.78296 C -1118.5806 -445.95584 -1119.874 -445.29347 -1121.2388 -444.81397 L -1125.8459 -443.19525 C -1126.3365 -443.0229 -1126.8183 -442.8267 -1127.2898 -442.6074 L -1134.1366 -439.42287 C -1134.8328 -439.0991 -1135.5513 -438.8258 -1136.2867 -438.6052 L -1147.1571 -435.34407 C -1147.1738 -435.33906 -1147.1905 -435.334 -1147.2072 -435.32894 L -1158.1753 -431.99934 C -1158.3132 -431.9575 -1158.4506 -431.91376 -1158.5873 -431.8682 L -1171.5085 -427.5611 C -1171.5576 -427.54473 -1171.6068 -427.5286 -1171.6561 -427.5127 L -1183.0235 -423.8458 C -1183.662 -423.63983 -1184.2869 -423.3939 -1184.8945 -423.1095 L -1192.8265 -419.39667 C -1193.1968 -419.2233 -1193.5604 -419.03583 -1193.9163 -418.83463 L -1199.8625 -415.4738 C -1201.1155 -414.76555 -1201.5571 -413.1756 -1200.8489 -411.9226 C -1200.7718 -411.78615 -1200.6825 -411.65695 -1200.5822 -411.53655 L -1199.7181 -410.4996 C -1198.9631 -409.5937 -1198.3107 -408.60706 -1197.7725 -407.55773 L -1194.6954 -401.5573 C -1194.6199 -401.41014 -1194.5422 -401.26416 -1194.4622 -401.1194 L -1190.5074 -393.9632 C -1190.424 -393.8121 -1190.3429 -393.6597 -1190.2643 -393.506 L -1186.156 -385.468 C -1185.907 -384.9807 -1185.683 -384.4809 -1185.4852 -383.97066 L -1182.0024 -374.9888 C -1181.989 -374.95396 -1181.9753 -374.9192 -1181.9616 -374.88445 L -1178.3652 -365.799 C -1178.2432 -365.49077 -1178.1308 -365.17882 -1178.0282 -364.8636 L -1175.4064 -356.81083 C -1175.3902 -356.7613 -1175.3744 -356.7117 -1175.3587 -356.66203 L -1172.2867 -346.90376 C -1172.0839 -346.2596 -1171.9221 -345.60324 -1171.8022 -344.93863 L -1169.8169 -333.92918 C -1169.7938 -333.80076 -1169.7722 -333.67207 -1169.7522 -333.54312 L -1168.0463 -322.54974 C -1168.0036 -322.27433 -1167.968 -321.99784 -1167.9397 -321.72056 L -1167.0523 -313.02385 C -1167.0056 -312.56586 -1166.9786 -312.10607 -1166.9716 -311.64576 L -1166.7873 -299.67013 C -1166.7839 -299.44777 -1166.7758 -299.2255 -1166.7632 -299.00346 L -1165.9928 -285.5219 C -1165.9857 -285.39833 -1165.9772 -285.27486 -1165.9673 -285.1515 L -1164.6337 -268.5771 C -1164.5994 -268.15024 -1164.5822 -267.72216 -1164.5822 -267.2939 L -1164.5822 -254.84412 C -1164.5822 -254.6391 -1164.5782 -254.43408 -1164.5704 -254.2292 L -1164.2822 -246.73654 C -1164.163 -243.63913 -1161.5555 -241.22475 -1158.4581 -241.34389 C -1157.851 -241.36724 -1157.2517 -241.489 -1156.6836 -241.70444 L -920.9647 -331.09844 C -915.5894 -333.13698 -911.7209 -337.90262 -910.8311 -343.58224 L -908.8098 -356.4838 C -908.6584 -357.45027 -908.4186 -358.4008 -908.0936 -359.32346 Z" stroke="#7f8080" stroke-linecap="round" stroke-linejoin="round" stroke-width="1"/>
      <path d="M -1107.1556 -455.24695 L -1111.8848 -451.19337 C -1113.0351 -450.20736 -1114.2801 -449.33743 -1115.6015 -448.59625 L -1118.1281 -447.1791 C -1119.5633 -446.3741 -1120.1441 -444.605 -1119.4653 -443.106 L -1118.4477 -440.85877 C -1118.3261 -440.5903 -1118.1994 -440.32416 -1118.0676 -440.06054 L -1116.2653 -436.456 L -1113.7783 -431.48203 C -1113.4365 -430.79843 -1113.0609 -430.1323 -1112.6528 -429.4861 L -1110.3264 -425.80265 C -1109.886 -425.1054 -1109.4084 -424.4323 -1108.8958 -423.78635 L -1105.4851 -419.4889 C -1104.939 -418.80086 -1104.354 -418.1447 -1103.7329 -417.52357 L -1099.0669 -412.85753 C -1098.666 -412.45665 -1098.2504 -412.0707 -1097.821 -411.70055 L -1093.2575 -407.7665 C -1092.8628 -407.42626 -1092.4567 -407.09955 -1092.0399 -406.7869 L -1088.065 -403.8057 C -1087.399 -403.30627 -1086.7065 -402.84335 -1085.9904 -402.419 L -1081.8573 -399.96978 C -1081.7293 -399.89393 -1081.6006 -399.8193 -1081.4712 -399.74597 L -1076.7736 -397.08403 C -1076.0353 -396.66566 -1075.2744 -396.2885 -1074.4945 -395.9542 L -1070.9447 -394.43285 C -1070.3587 -394.18173 -1069.7625 -393.95507 -1069.1577 -393.75347 L -1064.1396 -392.08077 C -1062.8924 -391.665 -1061.6118 -391.357 -1060.3119 -391.16003 L -1056.2131 -390.539 C -1055.848 -390.48367 -1055.4816 -390.43715 -1055.1142 -390.39947 L -1048.2331 -389.6937 C -1047.988 -389.66857 -1047.7424 -389.64737 -1047.4965 -389.6301 L -1042.9694 -389.31242 C -1042.4335 -389.2748 -1041.8965 -389.256 -1041.3593 -389.256 L -1038.0973 -389.256 C -1037.1436 -389.256 -1036.1908 -389.3153 -1035.2445 -389.4336 L -1031.2557 -389.9322 C -1030.5958 -390.0147 -1029.9397 -390.12578 -1029.2894 -390.26513 L -1023.2073 -391.56843 C -1022.3135 -391.75997 -1021.4318 -392.00464 -1020.567 -392.30113 L -1016.0582 -393.847 C -1015.2635 -394.11947 -1014.4844 -394.43525 -1013.7243 -394.79294 L -1008.891 -397.06747 C -1008.3408 -397.3264 -1007.801 -397.607 -1007.2731 -397.9087 L -1003.5052 -400.0618 C -1002.8124 -400.45766 -1002.1407 -400.8893 -1001.4928 -401.355 L -996.8167 -404.716 C -996.316 -405.07585 -995.83 -405.4557 -995.3598 -405.85462 L -990.039 -410.3693 C -989.6566 -410.6937 -989.285 -411.0305 -988.9247 -411.37915 L -984.2255 -415.9268 C -983.5859 -416.54574 -982.9828 -417.2013 -982.4192 -417.89016 L -978.6259 -422.5264 C -978.1192 -423.1457 -977.6452 -423.79105 -977.2057 -424.45977 L -973.5885 -429.96417 C -973.3731 -430.292 -973.1661 -430.6253 -972.9677 -430.9637 L -970.4446 -435.2678 C -970.0587 -435.9262 -969.7057 -436.6034 -969.3871 -437.29686 L -967.2684 -441.9081 C -966.7355 -443.0679 -966.3644 -444.2953 -966.1653 -445.556 L -966.1653 -445.556 C -965.987 -446.68526 -966.5663 -447.7987 -967.5934 -448.30084 L -972.8868 -450.88874 C -974.2013 -451.53136 -975.4359 -452.3259 -976.5653 -453.256 L -976.9713 -453.59036 C -977.8157 -454.2857 -978.4391 -455.212 -978.7653 -456.256 L -978.7653 -456.256 C -978.812 -456.4053 -978.9709 -456.48854 -979.1202 -456.4419 C -979.2353 -456.4059 -979.315 -456.30105 -979.3188 -456.18055 L -979.428 -452.7576 C -979.5188 -449.91455 -980.1361 -447.11297 -981.2487 -444.49507 L -982.1257 -442.4317 C -982.6842 -441.1174 -983.364 -439.858 -984.1561 -438.6698 L -987.8419 -433.14115 C -988.5894 -432.0199 -989.434 -430.9665 -990.366 -429.9931 L -996.661 -423.41826 C -997.5291 -422.5116 -998.47 -421.67754 -999.4741 -420.9244 L -1007.849 -414.64323 C -1008.7254 -413.9859 -1009.6477 -413.39206 -1010.6088 -412.8662 L -1017.794 -408.93467 C -1019.1051 -408.21727 -1020.483 -407.62936 -1021.9082 -407.1793 L -1028.5811 -405.07207 C -1030.298 -404.5299 -1032.0726 -404.1912 -1033.8685 -404.0629 L -1040.7549 -403.57103 C -1041.8272 -403.49444 -1042.9036 -403.4931 -1043.976 -403.5671 L -1052.4123 -404.1489 C -1053.4465 -404.2202 -1054.4746 -404.36137 -1055.4898 -404.5714 L -1062.625 -406.04765 C -1064.5769 -406.4515 -1066.4681 -407.1074 -1068.251 -407.9988 L -1072.9104 -410.3285 C -1074.1445 -410.9456 -1075.3206 -411.67246 -1076.4245 -412.50035 L -1082.1064 -416.7618 C -1082.5456 -417.09117 -1082.9728 -417.43613 -1083.3872 -417.79605 L -1089.1424 -422.79397 C -1089.9567 -423.5011 -1090.7202 -424.26466 -1091.4274 -425.07894 L -1095.8326 -430.1516 C -1096.5867 -431.02 -1097.2746 -431.9437 -1097.8905 -432.91495 L -1101.6242 -438.8027 C -1101.9848 -439.3713 -1102.3202 -439.95544 -1102.6295 -440.55345 L -1104.2499 -443.6862 C -1104.859 -444.86385 -1105.3652 -446.092 -1105.7628 -447.3569 L -1107.043 -451.4304 C -1107.2578 -452.11375 -1107.4405 -452.8068 -1107.5906 -453.5072 L -1107.816 -454.55917 C -1107.9011 -454.9562 -1107.6747 -455.35383 -1107.2899 -455.48337 L -1107.2899 -455.48337 C -1107.2174 -455.50777 -1107.1389 -455.4688 -1107.1145 -455.3963 C -1107.0965 -455.3428 -1107.1127 -455.2837 -1107.1556 -455.24695 Z" fill="url(#Obj_Gradient_6)"/>
      <path d="M -1107.1556 -455.24695 L -1111.8848 -451.19337 C -1113.0351 -450.20736 -1114.2801 -449.33743 -1115.6015 -448.59625 L -1118.1281 -447.1791 C -1119.5633 -446.3741 -1120.1441 -444.605 -1119.4653 -443.106 L -1118.4477 -440.85877 C -1118.3261 -440.5903 -1118.1994 -440.32416 -1118.0676 -440.06054 L -1116.2653 -436.456 L -1113.7783 -431.48203 C -1113.4365 -430.79843 -1113.0609 -430.1323 -1112.6528 -429.4861 L -1110.3264 -425.80265 C -1109.886 -425.1054 -1109.4084 -424.4323 -1108.8958 -423.78635 L -1105.4851 -419.4889 C -1104.939 -418.80086 -1104.354 -418.1447 -1103.7329 -417.52357 L -1099.0669 -412.85753 C -1098.666 -412.45665 -1098.2504 -412.0707 -1097.821 -411.70055 L -1093.2575 -407.7665 C -1092.8628 -407.42626 -1092.4567 -407.09955 -1092.0399 -406.7869 L -1088.065 -403.8057 C -1087.399 -403.30627 -1086.7065 -402.84335 -1085.9904 -402.419 L -1081.8573 -399.96978 C -1081.7293 -399.89393 -1081.6006 -399.8193 -1081.4712 -399.74597 L -1076.7736 -397.08403 C -1076.0353 -396.66566 -1075.2744 -396.2885 -1074.4945 -395.9542 L -1070.9447 -394.43285 C -1070.3587 -394.18173 -1069.7625 -393.95507 -1069.1577 -393.75347 L -1064.1396 -392.08077 C -1062.8924 -391.665 -1061.6118 -391.357 -1060.3119 -391.16003 L -1056.2131 -390.539 C -1055.848 -390.48367 -1055.4816 -390.43715 -1055.1142 -390.39947 L -1048.2331 -389.6937 C -1047.988 -389.66857 -1047.7424 -389.64737 -1047.4965 -389.6301 L -1042.9694 -389.31242 C -1042.4335 -389.2748 -1041.8965 -389.256 -1041.3593 -389.256 L -1038.0973 -389.256 C -1037.1436 -389.256 -1036.1908 -389.3153 -1035.2445 -389.4336 L -1031.2557 -389.9322 C -1030.5958 -390.0147 -1029.9397 -390.12578 -1029.2894 -390.26513 L -1023.2073 -391.56843 C -1022.3135 -391.75997 -1021.4318 -392.00464 -1020.567 -392.30113 L -1016.0582 -393.847 C -1015.2635 -394.11947 -1014.4844 -394.43525 -1013.7243 -394.79294 L -1008.891 -397.06747 C -1008.3408 -397.3264 -1007.801 -397.607 -1007.2731 -397.9087 L -1003.5052 -400.0618 C -1002.8124 -400.45766 -1002.1407 -400.8893 -1001.4928 -401.355 L -996.8167 -404.716 C -996.316 -405.07585 -995.83 -405.4557 -995.3598 -405.85462 L -990.039 -410.3693 C -989.6566 -410.6937 -989.285 -411.0305 -988.9247 -411.37915 L -984.2255 -415.9268 C -983.5859 -416.54574 -982.9828 -417.2013 -982.4192 -417.89016 L -978.6259 -422.5264 C -978.1192 -423.1457 -977.6452 -423.79105 -977.2057 -424.45977 L -973.5885 -429.96417 C -973.3731 -430.292 -973.1661 -430.6253 -972.9677 -430.9637 L -970.4446 -435.2678 C -970.0587 -435.9262 -969.7057 -436.6034 -969.3871 -437.29686 L -967.2684 -441.9081 C -966.7355 -443.0679 -966.3644 -444.2953 -966.1653 -445.556 L -966.1653 -445.556 C -965.987 -446.68526 -966.5663 -447.7987 -967.5934 -448.30084 L -972.8868 -450.88874 C -974.2013 -451.53136 -975.4359 -452.3259 -976.5653 -453.256 L -976.9713 -453.59036 C -977.8157 -454.2857 -978.4391 -455.212 -978.7653 -456.256 L -978.7653 -456.256 C -978.812 -456.4053 -978.9709 -456.48854 -979.1202 -456.4419 C -979.2353 -456.4059 -979.315 -456.30105 -979.3188 -456.18055 L -979.428 -452.7576 C -979.5188 -449.91455 -980.1361 -447.11297 -981.2487 -444.49507 L -982.1257 -442.4317 C -982.6842 -441.1174 -983.364 -439.858 -984.1561 -438.6698 L -987.8419 -433.14115 C -988.5894 -432.0199 -989.434 -430.9665 -990.366 -429.9931 L -996.661 -423.41826 C -997.5291 -422.5116 -998.47 -421.67754 -999.4741 -420.9244 L -1007.849 -414.64323 C -1008.7254 -413.9859 -1009.6477 -413.39206 -1010.6088 -412.8662 L -1017.794 -408.93467 C -1019.1051 -408.21727 -1020.483 -407.62936 -1021.9082 -407.1793 L -1028.5811 -405.07207 C -1030.298 -404.5299 -1032.0726 -404.1912 -1033.8685 -404.0629 L -1040.7549 -403.57103 C -1041.8272 -403.49444 -1042.9036 -403.4931 -1043.976 -403.5671 L -1052.4123 -404.1489 C -1053.4465 -404.2202 -1054.4746 -404.36137 -1055.4898 -404.5714 L -1062.625 -406.04765 C -1064.5769 -406.4515 -1066.4681 -407.1074 -1068.251 -407.9988 L -1072.9104 -410.3285 C -1074.1445 -410.9456 -1075.3206 -411.67246 -1076.4245 -412.50035 L -1082.1064 -416.7618 C -1082.5456 -417.09117 -1082.9728 -417.43613 -1083.3872 -417.79605 L -1089.1424 -422.79397 C -1089.9567 -423.5011 -1090.7202 -424.26466 -1091.4274 -425.07894 L -1095.8326 -430.1516 C -1096.5867 -431.02 -1097.2746 -431.9437 -1097.8905 -432.91495 L -1101.6242 -438.8027 C -1101.9848 -439.3713 -1102.3202 -439.95544 -1102.6295 -440.55345 L -1104.2499 -443.6862 C -1104.859 -444.86385 -1105.3652 -446.092 -1105.7628 -447.3569 L -1107.043 -451.4304 C -1107.2578 -452.11375 -1107.4405 -452.8068 -1107.5906 -453.5072 L -1107.816 -454.55917 C -1107.9011 -454.9562 -1107.6747 -455.35383 -1107.2899 -455.48337 L -1107.2899 -455.48337 C -1107.2174 -455.50777 -1107.1389 -455.4688 -1107.1145 -455.3963 C -1107.0965 -455.3428 -1107.1127 -455.2837 -1107.1556 -455.24695 Z" stroke="#7f8080" stroke-linecap="round" stroke-linejoin="round" stroke-width="1"/>
    </g>
  </g>
</svg>
