<?xml version="1.0" encoding="UTF-8" standalone="no"?>
<!DOCTYPE svg PUBLIC "-//W3C//DTD SVG 1.1//EN" "http://www.w3.org/Graphics/SVG/1.1/DTD/svg11.dtd">
<svg xmlns="http://www.w3.org/2000/svg" xmlns:xl="http://www.w3.org/1999/xlink" version="1.1" viewBox="-1012.5 -212.5 432.4053 448.4" width="432.4053pt" height="448.4pt" xmlns:dc="http://purl.org/dc/elements/1.1/">
  <metadata> Produced by OmniGraffle 7.4.2 
    <dc:date>2018-03-14 01:51:34 +0000</dc:date>
  </metadata>
  <defs>
    <radialGradient cx="0" cy="0" r="1" id="Gradient" gradientUnits="userSpaceOnUse">
      <stop offset="0" stop-color="white"/>
      <stop offset="1" stop-color="#171605"/>
    </radialGradient>
    <radialGradient id="Obj_Gradient" xl:href="#Gradient" gradientTransform="translate(-797.24075 -184.6) scale(70.26272)"/>
    <linearGradient x1="0" x2="1" id="Gradient_2" gradientUnits="userSpaceOnUse">
      <stop offset="0" stop-color="white"/>
      <stop offset="1" stop-color="white"/>
    </linearGradient>
    <linearGradient id="Obj_Gradient_2" xl:href="#Gradient_2" gradientTransform="translate(-796.2974 -210.7183) rotate(90) scale(446.1183)"/>
    <radialGradient cx="0" cy="0" r="1" id="Gradient_3" gradientUnits="userSpaceOnUse">
      <stop offset="0" stop-color="white"/>
      <stop offset="1" stop-color="#aeb01d"/>
    </radialGradient>
    <radialGradient id="Obj_Gradient_3" xl:href="#Gradient_3" gradientTransform="translate(-969.8 -48.753854) scale(46.03694)"/>
    <radialGradient cx="0" cy="0" r="1" id="Gradient_4" gradientUnits="userSpaceOnUse">
      <stop offset="0" stop-color="white"/>
      <stop offset="1" stop-color="#ab9c1e"/>
    </radialGradient>
    <radialGradient id="Obj_Gradient_4" xl:href="#Gradient_4" gradientTransform="translate(-622.7947 -49.69725) scale(46.03694)"/>
    <radialGradient cx="0" cy="0" r="1" id="Gradient_5" gradientUnits="userSpaceOnUse">
      <stop offset="0" stop-color="white"/>
      <stop offset="1" stop-color="#cbac27"/>
    </radialGradient>
    <radialGradient id="Obj_Gradient_5" xl:href="#Gradient_5" gradientTransform="translate(-797.213 -177.64469) scale(83.83496)"/>
    <linearGradient x1="0" x2="1" id="Gradient_6" gradientUnits="userSpaceOnUse">
      <stop offset="0" stop-color="white"/>
      <stop offset="1" stop-color="#cdc126"/>
    </linearGradient>
    <linearGradient id="Obj_Gradient_6" xl:href="#Gradient_6" gradientTransform="translate(-797.94075 -211.2441) rotate(90) scale(25)"/>
    <radialGradient id="Obj_Gradient_7" xl:href="#Gradient_5" gradientTransform="translate(-796.6703 224.98339) scale(135.94141)"/>
  </defs>
  <g stroke="none" stroke-opacity="1" stroke-dasharray="none" fill="none" fill-opacity="1">
    <title>Canvas 1</title>
    <rect fill="white" width="432.4053" height="448.4"/>
    <g>
      <title>Layer 1</title>
      <path d="M -858.9943 -211.40955 L -850.8289 -208.29184 C -849.9709 -207.96424 -849.0941 -207.68833 -848.2031 -207.46558 L -834.4859 -204.03629 C -833.3242 -203.74587 -832.1417 -203.54662 -830.949 -203.44034 L -813.42285 -201.8786 C -812.835 -201.82622 -812.2454 -201.79648 -811.6552 -201.78946 L -796.1763 -201.60519 C -795.886 -201.60173 -795.5956 -201.60377 -795.3053 -201.6113 L -780.882 -201.98594 C -780.5212 -201.99531 -780.1607 -202.01317 -779.8008 -202.0395 L -765.4295 -203.09107 C -764.438 -203.16361 -763.4523 -203.30036 -762.4786 -203.50044 L -750.9056 -205.87845 C -749.8636 -206.09256 -748.8377 -206.3787 -747.83535 -206.73481 L -736.08336 -210.90986 C -734.993 -211.29723 -733.7898 -210.76646 -733.34075 -209.7 L -733.34075 -209.7 C -732.8186 -208.4599 -732.6666 -207.09515 -732.90315 -205.77055 L -733.0836 -204.75986 C -733.3874 -203.0587 -733.8819 -201.3972 -734.55786 -199.8068 L -736.1011 -196.1757 C -736.65965 -194.86142 -737.3394 -193.60202 -738.1315 -192.41382 L -741.8173 -186.88515 C -742.5648 -185.76389 -743.4094 -184.71049 -744.3414 -183.7371 L -750.6365 -177.16226 C -751.5045 -176.2556 -752.4454 -175.42154 -753.4495 -174.6684 L -761.8244 -168.38723 C -762.7009 -167.72992 -763.6231 -167.13606 -764.5842 -166.6102 L -771.7694 -162.67867 C -773.0805 -161.96126 -774.4584 -161.37336 -775.8836 -160.9233 L -782.5565 -158.81607 C -784.2734 -158.2739 -786.048 -157.9352 -787.8439 -157.80692 L -794.7303 -157.31503 C -795.8026 -157.23844 -796.879 -157.23712 -797.9515 -157.31108 L -806.3877 -157.8929 C -807.4219 -157.96422 -808.4501 -158.10537 -809.4652 -158.3154 L -816.6004 -159.79165 C -818.5524 -160.1955 -820.4435 -160.85139 -822.2264 -161.74281 L -826.8858 -164.07252 C -828.1199 -164.68959 -829.296 -165.41646 -830.3999 -166.24434 L -836.0818 -170.50581 C -836.521 -170.83517 -836.9482 -171.18013 -837.3626 -171.54005 L -843.1178 -176.53797 C -843.9321 -177.24511 -844.6956 -178.00865 -845.4028 -178.82294 L -849.808 -183.89562 C -850.5621 -184.76398 -851.25 -185.68768 -851.8659 -186.65895 L -855.5996 -192.54671 C -855.9602 -193.1153 -856.2956 -193.69944 -856.605 -194.29745 L -858.2253 -197.43017 C -858.8345 -198.60785 -859.3406 -199.836 -859.7382 -201.1009 L -861.0184 -205.17438 C -861.2332 -205.85775 -861.4159 -206.5508 -861.566 -207.25122 L -861.6408 -207.6 C -861.8354 -208.50843 -861.7282 -209.45557 -861.3353 -210.29746 L -861.2408 -210.5 C -860.8463 -211.3453 -859.8658 -211.7423 -858.9943 -211.40955 Z" fill="url(#Obj_Gradient)"/>
      <path d="M -858.9943 -211.40955 L -850.8289 -208.29184 C -849.9709 -207.96424 -849.0941 -207.68833 -848.2031 -207.46558 L -834.4859 -204.03629 C -833.3242 -203.74587 -832.1417 -203.54662 -830.949 -203.44034 L -813.42285 -201.8786 C -812.835 -201.82622 -812.2454 -201.79648 -811.6552 -201.78946 L -796.1763 -201.60519 C -795.886 -201.60173 -795.5956 -201.60377 -795.3053 -201.6113 L -780.882 -201.98594 C -780.5212 -201.99531 -780.1607 -202.01317 -779.8008 -202.0395 L -765.4295 -203.09107 C -764.438 -203.16361 -763.4523 -203.30036 -762.4786 -203.50044 L -750.9056 -205.87845 C -749.8636 -206.09256 -748.8377 -206.3787 -747.83535 -206.73481 L -736.08336 -210.90986 C -734.993 -211.29723 -733.7898 -210.76646 -733.34075 -209.7 L -733.34075 -209.7 C -732.8186 -208.4599 -732.6666 -207.09515 -732.90315 -205.77055 L -733.0836 -204.75986 C -733.3874 -203.0587 -733.8819 -201.3972 -734.55786 -199.8068 L -736.1011 -196.1757 C -736.65965 -194.86142 -737.3394 -193.60202 -738.1315 -192.41382 L -741.8173 -186.88515 C -742.5648 -185.76389 -743.4094 -184.71049 -744.3414 -183.7371 L -750.6365 -177.16226 C -751.5045 -176.2556 -752.4454 -175.42154 -753.4495 -174.6684 L -761.8244 -168.38723 C -762.7009 -167.72992 -763.6231 -167.13606 -764.5842 -166.6102 L -771.7694 -162.67867 C -773.0805 -161.96126 -774.4584 -161.37336 -775.8836 -160.9233 L -782.5565 -158.81607 C -784.2734 -158.2739 -786.048 -157.9352 -787.8439 -157.80692 L -794.7303 -157.31503 C -795.8026 -157.23844 -796.879 -157.23712 -797.9515 -157.31108 L -806.3877 -157.8929 C -807.4219 -157.96422 -808.4501 -158.10537 -809.4652 -158.3154 L -816.6004 -159.79165 C -818.5524 -160.1955 -820.4435 -160.85139 -822.2264 -161.74281 L -826.8858 -164.07252 C -828.1199 -164.68959 -829.296 -165.41646 -830.3999 -166.24434 L -836.0818 -170.50581 C -836.521 -170.83517 -836.9482 -171.18013 -837.3626 -171.54005 L -843.1178 -176.53797 C -843.9321 -177.24511 -844.6956 -178.00865 -845.4028 -178.82294 L -849.808 -183.89562 C -850.5621 -184.76398 -851.25 -185.68768 -851.8659 -186.65895 L -855.5996 -192.54671 C -855.9602 -193.1153 -856.2956 -193.69944 -856.605 -194.29745 L -858.2253 -197.43017 C -858.8345 -198.60785 -859.3406 -199.836 -859.7382 -201.1009 L -861.0184 -205.17438 C -861.2332 -205.85775 -861.4159 -206.5508 -861.566 -207.25122 L -861.6408 -207.6 C -861.8354 -208.50843 -861.7282 -209.45557 -861.3353 -210.29746 L -861.2408 -210.5 C -860.8463 -211.3453 -859.8658 -211.7423 -858.9943 -211.40955 Z" stroke="#7f8080" stroke-linecap="round" stroke-linejoin="round" stroke-width="1"/>
      <path d="M -923.0265 225.26379 L -909.2843 227.55416 C -909.1009 227.58472 -908.917 227.61209 -908.7327 227.63624 L -880.3791 231.35154 C -880.1325 231.38385 -879.8853 231.4104 -879.6375 231.43118 L -849.3946 233.96768 C -849.1377 233.98923 -848.8803 234.00456 -848.6227 234.01367 L -809.6918 235.39002 C -809.5034 235.39668 -809.315 235.4 -809.1265 235.4 L -777.6592 235.4 C -777.4925 235.4 -777.3259 235.3974 -777.1594 235.3922 L -752.1246 234.60986 C -751.9144 234.6033 -751.7043 234.59258 -751.49445 234.57772 L -729.4467 233.01682 C -729.2884 233.0056 -729.13025 232.99205 -728.9723 232.97614 L -703.71185 230.4305 C -703.5101 230.41017 -703.3088 230.386 -703.10796 230.35803 L -679.3153 227.04265 C -679.11125 227.01422 -678.9078 226.98186 -678.70504 226.94558 L -669.5092 225.3 C -664.1821 224.34674 -660.53124 219.3931 -661.19766 214.02255 L -663.40525 196.23198 C -663.4079 196.21066 -663.4105 196.18934 -663.41305 196.16801 L -666.9769 166.46949 C -666.9984 166.28985 -667.01694 166.10985 -667.0324 165.92958 L -669.3946 138.37037 C -669.40435 138.2568 -669.4129 138.14312 -669.4202 138.02936 L -670.8068 116.43772 C -670.8084 116.41258 -670.8101 116.38744 -670.8118 116.3623 L -672.404 93.27599 C -672.4075 93.22533 -672.4107 93.17466 -672.4137 93.12398 L -673.5901 73.32181 C -673.60284 73.10729 -673.6113 72.892545 -673.61535 72.67769 L -674.0076 52.082853 C -674.0087 52.02762 -674.01 51.972394 -674.01165 51.917175 L -674.6068 31.682832 C -674.6084 31.627614 -674.60974 31.572387 -674.6108 31.517154 L -675.00145 11.007613 C -675.0066 10.735917 -675.0049 10.464134 -674.9962 10.192528 L -674.4103 -8.167083 C -674.4096 -8.189025 -674.4088 -8.210967 -674.408 -8.232907 L -673.61995 -30.102215 C -673.6128 -30.30072 -673.60194 -30.499073 -673.5874 -30.697174 L -672.0299 -51.91779 C -672.0161 -52.105914 -672.00564 -52.294266 -671.9985 -52.48276 L -671.24404 -72.38163 C -671.22085 -72.99337 -671.1626 -73.60328 -671.0695 -74.20835 L -668.3305 -92.01187 C -668.2497 -92.53696 -668.1428 -93.05771 -668.0102 -93.57217 L -663.38194 -111.52983 C -663.26684 -111.9764 -663.1325 -112.41779 -662.9793 -112.85275 L -657.2585 -129.0924 C -657.0924 -129.56387 -656.9043 -130.0273 -656.6948 -130.48117 L -651.1633 -142.46621 C -651.0606 -142.6887 -650.9528 -142.90881 -650.84 -143.12636 L -645.4778 -153.46778 C -645.4321 -153.55593 -645.38554 -153.64364 -645.3382 -153.73092 L -640.1222 -163.34788 C -639.38495 -164.70724 -638.4353 -165.94013 -637.3092 -167 L -637.3092 -167 C -636.634 -167.63547 -636.6018 -168.69797 -637.2373 -169.37316 C -637.3618 -169.50544 -637.5069 -169.61663 -637.66705 -169.70241 L -640.8812 -171.42427 C -641.09984 -171.5414 -641.3212 -171.65344 -641.54506 -171.76029 L -649.399 -175.50878 C -649.80564 -175.70284 -650.22026 -175.87964 -650.6418 -176.0387 L -660.3166 -179.68959 C -660.5117 -179.76319 -660.7081 -179.83297 -660.9059 -179.8989 L -673.6004 -184.13038 C -673.7396 -184.1768 -673.87945 -184.22128 -674.0199 -184.26384 L -686.9034 -188.16794 C -686.97395 -188.18931 -687.0443 -188.21117 -687.11456 -188.23352 L -699.61856 -192.21206 C -700.0122 -192.3373 -700.4008 -192.47775 -700.7836 -192.63307 L -712.7595 -197.49287 C -713.5912 -197.83036 -714.393 -198.23723 -715.1564 -198.70917 L -724.77564 -204.6556 C -724.93135 -204.75186 -725.0854 -204.85078 -725.2377 -204.95232 L -730.1278 -208.21238 C -731.1092 -208.86665 -731.9805 -209.67255 -732.7092 -210.6 L -732.7092 -210.6 C -732.8148 -210.7344 -733.0094 -210.75775 -733.1438 -210.65215 C -733.2465 -210.57142 -733.2875 -210.43487 -733.2462 -210.31092 L -733.1092 -209.9 C -732.65 -208.52225 -732.5454 -207.05096 -732.8052 -205.6221 L -733.2003 -203.44885 C -733.47155 -201.95719 -733.9534 -200.51165 -734.6314 -199.1556 L -736.1637 -196.09096 C -736.4604 -195.49756 -736.79376 -194.9232 -737.1618 -194.37117 L -740.3655 -189.56562 C -740.7941 -188.92272 -741.2687 -188.3117 -741.7856 -187.73739 L -746.3476 -182.66844 C -746.3887 -182.62281 -746.43 -182.57742 -746.4716 -182.53227 L -752.4658 -176.02424 C -753.0936 -175.3427 -753.7793 -174.71698 -754.51535 -174.15413 L -759.5395 -170.31211 C -759.9857 -169.97094 -760.4495 -169.6535 -760.929 -169.3611 L -767.4154 -165.40597 C -768.0771 -165.00252 -768.7672 -164.64768 -769.48025 -164.34424 L -776.5957 -161.3164 C -777.4033 -160.97272 -778.2379 -160.69607 -779.09095 -160.48928 L -783.17 -159.50041 C -783.9948 -159.30045 -784.8343 -159.16644 -785.6804 -159.09965 L -791.3806 -158.64963 C -791.7995 -158.61656 -792.2196 -158.6 -792.6398 -158.6 L -799.6721 -158.6 C -800.4292 -158.6 -801.1854 -158.65374 -801.9349 -158.7608 L -809.8813 -159.89601 C -810.3663 -159.9653 -810.8479 -160.05683 -811.3245 -160.1703 L -817.2857 -161.58965 C -818.4312 -161.86238 -819.5431 -162.26073 -820.6012 -162.77747 L -826.8812 -165.84444 C -827.3662 -166.08133 -827.839 -166.3426 -828.2976 -166.62728 L -832.5095 -169.24154 C -833.1086 -169.61344 -833.6826 -170.02454 -834.2275 -170.47216 L -838.6736 -174.12432 C -838.8973 -174.30807 -839.116 -174.49786 -839.3294 -174.69348 L -843.1317 -178.17896 C -843.583 -178.59264 -844.0102 -179.0319 -844.4111 -179.49454 L -848.5299 -184.24693 C -848.8493 -184.61545 -849.1516 -184.99838 -849.436 -185.39451 L -853.8657 -191.5644 C -854.3606 -192.2537 -854.7999 -192.9813 -855.1794 -193.74028 L -857.7558 -198.8932 C -857.7914 -198.9644 -857.8265 -199.03586 -857.861 -199.10758 L -859.1092 -201.7 C -859.9599 -203.46687 -860.3155 -205.4314 -860.1379 -207.38436 L -859.9577 -209.36661 C -859.9339 -209.62848 -860.1269 -209.86006 -860.3887 -209.88386 C -860.5511 -209.89862 -860.7098 -209.82925 -860.8092 -209.7 L -860.8092 -209.7 C -861.4727 -208.83752 -862.2528 -208.07144 -863.1271 -207.42375 L -867.0237 -204.53743 C -867.1474 -204.44582 -867.2724 -204.356 -867.3986 -204.26798 L -872.0209 -201.0464 C -873.2076 -200.2193 -874.501 -199.55692 -875.8658 -199.07742 L -880.4729 -197.4587 C -880.9635 -197.28633 -881.4454 -197.09016 -881.9168 -196.87087 L -888.7636 -193.68632 C -889.4598 -193.36253 -890.1783 -193.08926 -890.9137 -192.86864 L -901.7841 -189.60752 C -901.8009 -189.6025 -901.8176 -189.59746 -901.8343 -189.5924 L -912.8024 -186.2628 C -912.9403 -186.22093 -913.0776 -186.1772 -913.2143 -186.13164 L -926.1355 -181.82456 C -926.1847 -181.80819 -926.2339 -181.79205 -926.2831 -181.77616 L -937.6505 -178.10925 C -938.289 -177.90329 -938.9139 -177.65737 -939.5215 -177.37296 L -947.4535 -173.66012 C -947.8238 -173.48677 -948.1874 -173.29929 -948.5434 -173.09808 L -954.4895 -169.73724 C -955.7425 -169.029 -956.1842 -167.43907 -955.4759 -166.18604 C -955.3988 -166.0496 -955.3096 -165.9204 -955.2092 -165.8 L -954.3451 -164.76307 C -953.5902 -163.85713 -952.9377 -162.87051 -952.3996 -161.82118 L -949.3224 -155.82076 C -949.247 -155.6736 -949.1692 -155.5276 -949.0892 -155.38285 L -945.1345 -148.22663 C -945.051 -148.07555 -944.9699 -147.92313 -944.8914 -147.76943 L -940.7831 -139.73144 C -940.534 -139.24413 -940.3101 -138.74437 -940.1122 -138.23411 L -936.6295 -129.25224 C -936.616 -129.21741 -936.6023 -129.18263 -936.5886 -129.1479 L -932.9923 -120.06246 C -932.8703 -119.75423 -932.7579 -119.44228 -932.6552 -119.12706 L -930.0334 -111.07428 C -930.0173 -111.02476 -930.0014 -110.97516 -929.9858 -110.92548 L -926.9137 -101.16721 C -926.7109 -100.52305 -926.5491 -99.86669 -926.4293 -99.20208 L -924.444 -88.19263 C -924.4208 -88.06421 -924.3992 -87.93552 -924.3792 -87.80658 L -922.6733 -76.813195 C -922.6306 -76.53778 -922.5951 -76.26129 -922.5668 -75.98402 L -921.6794 -67.2873 C -921.6326 -66.82931 -921.6057 -66.36952 -921.5986 -65.90921 L -921.4144 -53.933586 C -921.4109 -53.71122 -921.4029 -53.488946 -921.3902 -53.266914 L -920.6198 -39.78535 C -920.6127 -39.661786 -920.6043 -39.538307 -920.5943 -39.41494 L -919.2608 -22.840567 C -919.2264 -22.413692 -919.2092 -21.98561 -919.2092 -21.557357 L -919.2092 -9.107576 C -919.2092 -8.902542 -919.2053 -8.697528 -919.1974 -8.492646 L -918.617 6.596492 C -918.6118 6.732161 -918.6083 6.86789 -918.6066 7.0036475 L -918.4144 21.799903 C -918.411 22.066595 -918.4142 22.333332 -918.424 22.599864 L -918.9983 38.10401 C -919.0056 38.301323 -919.0092 38.49875 -919.0092 38.6962 L -919.0092 52.292425 C -919.0092 52.49746 -919.0132 52.702473 -919.021 52.907355 L -919.6062 68.12236 C -919.6082 68.17412 -919.6105 68.225876 -919.613 68.27762 L -920.4083 84.78055 C -920.4089 84.79352 -920.4095 84.80649 -920.4102 84.81945 L -921.2047 100.51062 C -921.2077 100.57021 -921.2111 100.62978 -921.2147 100.68933 L -922.4037 119.91007 C -922.4074 119.97003 -922.4114 120.02996 -922.4158 120.08987 L -924.1989 144.45942 C -924.2058 144.55314 -924.2135 144.6468 -924.222 144.74038 L -926.0079 164.3852 C -926.0088 164.39507 -926.0097 164.40494 -926.0106 164.41481 L -927.7814 183.49972 C -927.7999 183.6999 -927.8223 183.8997 -927.8484 184.09903 L -929.8091 199.07175 C -929.9419 200.08594 -930.211 201.07756 -930.6092 202.01973 L -930.6092 202.01973 C -931.0068 202.96048 -931.2555 203.9574 -931.3463 204.97465 L -932.1092 213.51973 C -932.617 219.20676 -928.6585 224.32512 -923.0265 225.26379 Z" fill="url(#Obj_Gradient_2)"/>
      <path d="M -923.0265 225.26379 L -909.2843 227.55416 C -909.1009 227.58472 -908.917 227.61209 -908.7327 227.63624 L -880.3791 231.35154 C -880.1325 231.38385 -879.8853 231.4104 -879.6375 231.43118 L -849.3946 233.96768 C -849.1377 233.98923 -848.8803 234.00456 -848.6227 234.01367 L -809.6918 235.39002 C -809.5034 235.39668 -809.315 235.4 -809.1265 235.4 L -777.6592 235.4 C -777.4925 235.4 -777.3259 235.3974 -777.1594 235.3922 L -752.1246 234.60986 C -751.9144 234.6033 -751.7043 234.59258 -751.49445 234.57772 L -729.4467 233.01682 C -729.2884 233.0056 -729.13025 232.99205 -728.9723 232.97614 L -703.71185 230.4305 C -703.5101 230.41017 -703.3088 230.386 -703.10796 230.35803 L -679.3153 227.04265 C -679.11125 227.01422 -678.9078 226.98186 -678.70504 226.94558 L -669.5092 225.3 C -664.1821 224.34674 -660.53124 219.3931 -661.19766 214.02255 L -663.40525 196.23198 C -663.4079 196.21066 -663.4105 196.18934 -663.41305 196.16801 L -666.9769 166.46949 C -666.9984 166.28985 -667.01694 166.10985 -667.0324 165.92958 L -669.3946 138.37037 C -669.40435 138.2568 -669.4129 138.14312 -669.4202 138.02936 L -670.8068 116.43772 C -670.8084 116.41258 -670.8101 116.38744 -670.8118 116.3623 L -672.404 93.27599 C -672.4075 93.22533 -672.4107 93.17466 -672.4137 93.12398 L -673.5901 73.32181 C -673.60284 73.10729 -673.6113 72.892545 -673.61535 72.67769 L -674.0076 52.082853 C -674.0087 52.02762 -674.01 51.972394 -674.01165 51.917175 L -674.6068 31.682832 C -674.6084 31.627614 -674.60974 31.572387 -674.6108 31.517154 L -675.00145 11.007613 C -675.0066 10.735917 -675.0049 10.464134 -674.9962 10.192528 L -674.4103 -8.167083 C -674.4096 -8.189025 -674.4088 -8.210967 -674.408 -8.232907 L -673.61995 -30.102215 C -673.6128 -30.30072 -673.60194 -30.499073 -673.5874 -30.697174 L -672.0299 -51.91779 C -672.0161 -52.105914 -672.00564 -52.294266 -671.9985 -52.48276 L -671.24404 -72.38163 C -671.22085 -72.99337 -671.1626 -73.60328 -671.0695 -74.20835 L -668.3305 -92.01187 C -668.2497 -92.53696 -668.1428 -93.05771 -668.0102 -93.57217 L -663.38194 -111.52983 C -663.26684 -111.9764 -663.1325 -112.41779 -662.9793 -112.85275 L -657.2585 -129.0924 C -657.0924 -129.56387 -656.9043 -130.0273 -656.6948 -130.48117 L -651.1633 -142.46621 C -651.0606 -142.6887 -650.9528 -142.90881 -650.84 -143.12636 L -645.4778 -153.46778 C -645.4321 -153.55593 -645.38554 -153.64364 -645.3382 -153.73092 L -640.1222 -163.34788 C -639.38495 -164.70724 -638.4353 -165.94013 -637.3092 -167 L -637.3092 -167 C -636.634 -167.63547 -636.6018 -168.69797 -637.2373 -169.37316 C -637.3618 -169.50544 -637.5069 -169.61663 -637.66705 -169.70241 L -640.8812 -171.42427 C -641.09984 -171.5414 -641.3212 -171.65344 -641.54506 -171.76029 L -649.399 -175.50878 C -649.80564 -175.70284 -650.22026 -175.87964 -650.6418 -176.0387 L -660.3166 -179.68959 C -660.5117 -179.76319 -660.7081 -179.83297 -660.9059 -179.8989 L -673.6004 -184.13038 C -673.7396 -184.1768 -673.87945 -184.22128 -674.0199 -184.26384 L -686.9034 -188.16794 C -686.97395 -188.18931 -687.0443 -188.21117 -687.11456 -188.23352 L -699.61856 -192.21206 C -700.0122 -192.3373 -700.4008 -192.47775 -700.7836 -192.63307 L -712.7595 -197.49287 C -713.5912 -197.83036 -714.393 -198.23723 -715.1564 -198.70917 L -724.77564 -204.6556 C -724.93135 -204.75186 -725.0854 -204.85078 -725.2377 -204.95232 L -730.1278 -208.21238 C -731.1092 -208.86665 -731.9805 -209.67255 -732.7092 -210.6 L -732.7092 -210.6 C -732.8148 -210.7344 -733.0094 -210.75775 -733.1438 -210.65215 C -733.2465 -210.57142 -733.2875 -210.43487 -733.2462 -210.31092 L -733.1092 -209.9 C -732.65 -208.52225 -732.5454 -207.05096 -732.8052 -205.6221 L -733.2003 -203.44885 C -733.47155 -201.95719 -733.9534 -200.51165 -734.6314 -199.1556 L -736.1637 -196.09096 C -736.4604 -195.49756 -736.79376 -194.9232 -737.1618 -194.37117 L -740.3655 -189.56562 C -740.7941 -188.92272 -741.2687 -188.3117 -741.7856 -187.73739 L -746.3476 -182.66844 C -746.3887 -182.62281 -746.43 -182.57742 -746.4716 -182.53227 L -752.4658 -176.02424 C -753.0936 -175.3427 -753.7793 -174.71698 -754.51535 -174.15413 L -759.5395 -170.31211 C -759.9857 -169.97094 -760.4495 -169.6535 -760.929 -169.3611 L -767.4154 -165.40597 C -768.0771 -165.00252 -768.7672 -164.64768 -769.48025 -164.34424 L -776.5957 -161.3164 C -777.4033 -160.97272 -778.2379 -160.69607 -779.09095 -160.48928 L -783.17 -159.50041 C -783.9948 -159.30045 -784.8343 -159.16644 -785.6804 -159.09965 L -791.3806 -158.64963 C -791.7995 -158.61656 -792.2196 -158.6 -792.6398 -158.6 L -799.6721 -158.6 C -800.4292 -158.6 -801.1854 -158.65374 -801.9349 -158.7608 L -809.8813 -159.89601 C -810.3663 -159.9653 -810.8479 -160.05683 -811.3245 -160.1703 L -817.2857 -161.58965 C -818.4312 -161.86238 -819.5431 -162.26073 -820.6012 -162.77747 L -826.8812 -165.84444 C -827.3662 -166.08133 -827.839 -166.3426 -828.2976 -166.62728 L -832.5095 -169.24154 C -833.1086 -169.61344 -833.6826 -170.02454 -834.2275 -170.47216 L -838.6736 -174.12432 C -838.8973 -174.30807 -839.116 -174.49786 -839.3294 -174.69348 L -843.1317 -178.17896 C -843.583 -178.59264 -844.0102 -179.0319 -844.4111 -179.49454 L -848.5299 -184.24693 C -848.8493 -184.61545 -849.1516 -184.99838 -849.436 -185.39451 L -853.8657 -191.5644 C -854.3606 -192.2537 -854.7999 -192.9813 -855.1794 -193.74028 L -857.7558 -198.8932 C -857.7914 -198.9644 -857.8265 -199.03586 -857.861 -199.10758 L -859.1092 -201.7 C -859.9599 -203.46687 -860.3155 -205.4314 -860.1379 -207.38436 L -859.9577 -209.36661 C -859.9339 -209.62848 -860.1269 -209.86006 -860.3887 -209.88386 C -860.5511 -209.89862 -860.7098 -209.82925 -860.8092 -209.7 L -860.8092 -209.7 C -861.4727 -208.83752 -862.2528 -208.07144 -863.1271 -207.42375 L -867.0237 -204.53743 C -867.1474 -204.44582 -867.2724 -204.356 -867.3986 -204.26798 L -872.0209 -201.0464 C -873.2076 -200.2193 -874.501 -199.55692 -875.8658 -199.07742 L -880.4729 -197.4587 C -880.9635 -197.28633 -881.4454 -197.09016 -881.9168 -196.87087 L -888.7636 -193.68632 C -889.4598 -193.36253 -890.1783 -193.08926 -890.9137 -192.86864 L -901.7841 -189.60752 C -901.8009 -189.6025 -901.8176 -189.59746 -901.8343 -189.5924 L -912.8024 -186.2628 C -912.9403 -186.22093 -913.0776 -186.1772 -913.2143 -186.13164 L -926.1355 -181.82456 C -926.1847 -181.80819 -926.2339 -181.79205 -926.2831 -181.77616 L -937.6505 -178.10925 C -938.289 -177.90329 -938.9139 -177.65737 -939.5215 -177.37296 L -947.4535 -173.66012 C -947.8238 -173.48677 -948.1874 -173.29929 -948.5434 -173.09808 L -954.4895 -169.73724 C -955.7425 -169.029 -956.1842 -167.43907 -955.4759 -166.18604 C -955.3988 -166.0496 -955.3096 -165.9204 -955.2092 -165.8 L -954.3451 -164.76307 C -953.5902 -163.85713 -952.9377 -162.87051 -952.3996 -161.82118 L -949.3224 -155.82076 C -949.247 -155.6736 -949.1692 -155.5276 -949.0892 -155.38285 L -945.1345 -148.22663 C -945.051 -148.07555 -944.9699 -147.92313 -944.8914 -147.76943 L -940.7831 -139.73144 C -940.534 -139.24413 -940.3101 -138.74437 -940.1122 -138.23411 L -936.6295 -129.25224 C -936.616 -129.21741 -936.6023 -129.18263 -936.5886 -129.1479 L -932.9923 -120.06246 C -932.8703 -119.75423 -932.7579 -119.44228 -932.6552 -119.12706 L -930.0334 -111.07428 C -930.0173 -111.02476 -930.0014 -110.97516 -929.9858 -110.92548 L -926.9137 -101.16721 C -926.7109 -100.52305 -926.5491 -99.86669 -926.4293 -99.20208 L -924.444 -88.19263 C -924.4208 -88.06421 -924.3992 -87.93552 -924.3792 -87.80658 L -922.6733 -76.813195 C -922.6306 -76.53778 -922.5951 -76.26129 -922.5668 -75.98402 L -921.6794 -67.2873 C -921.6326 -66.82931 -921.6057 -66.36952 -921.5986 -65.90921 L -921.4144 -53.933586 C -921.4109 -53.71122 -921.4029 -53.488946 -921.3902 -53.266914 L -920.6198 -39.78535 C -920.6127 -39.661786 -920.6043 -39.538307 -920.5943 -39.41494 L -919.2608 -22.840567 C -919.2264 -22.413692 -919.2092 -21.98561 -919.2092 -21.557357 L -919.2092 -9.107576 C -919.2092 -8.902542 -919.2053 -8.697528 -919.1974 -8.492646 L -918.617 6.596492 C -918.6118 6.732161 -918.6083 6.86789 -918.6066 7.0036475 L -918.4144 21.799903 C -918.411 22.066595 -918.4142 22.333332 -918.424 22.599864 L -918.9983 38.10401 C -919.0056 38.301323 -919.0092 38.49875 -919.0092 38.6962 L -919.0092 52.292425 C -919.0092 52.49746 -919.0132 52.702473 -919.021 52.907355 L -919.6062 68.12236 C -919.6082 68.17412 -919.6105 68.225876 -919.613 68.27762 L -920.4083 84.78055 C -920.4089 84.79352 -920.4095 84.80649 -920.4102 84.81945 L -921.2047 100.51062 C -921.2077 100.57021 -921.2111 100.62978 -921.2147 100.68933 L -922.4037 119.91007 C -922.4074 119.97003 -922.4114 120.02996 -922.4158 120.08987 L -924.1989 144.45942 C -924.2058 144.55314 -924.2135 144.6468 -924.222 144.74038 L -926.0079 164.3852 C -926.0088 164.39507 -926.0097 164.40494 -926.0106 164.41481 L -927.7814 183.49972 C -927.7999 183.6999 -927.8223 183.8997 -927.8484 184.09903 L -929.8091 199.07175 C -929.9419 200.08594 -930.211 201.07756 -930.6092 202.01973 L -930.6092 202.01973 C -931.0068 202.96048 -931.2555 203.9574 -931.3463 204.97465 L -932.1092 213.51973 C -932.617 219.20676 -928.6585 224.32512 -923.0265 225.26379 Z" stroke="#7f8080" stroke-linecap="round" stroke-linejoin="round" stroke-width="1"/>
      <path d="M -1012 -60.553854 L -1005.8 -56.153854 L -997.6 -52.153854 L -989 -48.553854 L -980 -44.753854 L -969 -40.753854 L -959.6 -37.953854 L -950.6 -35.353854 L -941.6 -32.753854 L -936.2 -31.353854 L -930.6 -30.353854 L -928.2 -36.153854 L -925.6 -41.553854 L -923.4 -45.553854 L -920.8 -48.953854 L -920.6 -57.953854 L -921.2 -68.953855 L -923 -79.75385 L -924.6 -90.15385 L -927.2 -101.15386 L -929.6 -110.75386 L -932.4 -118.75386 L -935.6 -128.15386 L -938.4 -135.55386 L -942 -143.15386 L -946 -150.75386 L -950 -158.15386 L -952.6 -161.75386 L -956.2 -167.55386 L -961.6 -163.15386 L -966.4 -158.35386 L -971 -152.15386 L -975.4 -145.95386 L -980.2 -137.35386 L -985 -127.95386 L -989.8 -118.75386 L -993.4 -110.15386 L -997.4 -101.15386 L -1000.6 -92.95385 L -1004.4 -83.55385 L -1007.2 -75.553855 L -1010.2 -67.153855 Z" fill="white"/>
      <path d="M -1012 -60.553854 L -1005.8 -56.153854 L -997.6 -52.153854 L -989 -48.553854 L -980 -44.753854 L -969 -40.753854 L -959.6 -37.953854 L -950.6 -35.353854 L -941.6 -32.753854 L -936.2 -31.353854 L -930.6 -30.353854 L -928.2 -36.153854 L -925.6 -41.553854 L -923.4 -45.553854 L -920.8 -48.953854 L -920.6 -57.953854 L -921.2 -68.953855 L -923 -79.75385 L -924.6 -90.15385 L -927.2 -101.15386 L -929.6 -110.75386 L -932.4 -118.75386 L -935.6 -128.15386 L -938.4 -135.55386 L -942 -143.15386 L -946 -150.75386 L -950 -158.15386 L -952.6 -161.75386 L -956.2 -167.55386 L -961.6 -163.15386 L -966.4 -158.35386 L -971 -152.15386 L -975.4 -145.95386 L -980.2 -137.35386 L -985 -127.95386 L -989.8 -118.75386 L -993.4 -110.15386 L -997.4 -101.15386 L -1000.6 -92.95385 L -1004.4 -83.55385 L -1007.2 -75.553855 L -1010.2 -67.153855 Z" stroke="#7f8080" stroke-linecap="round" stroke-linejoin="round" stroke-width="1"/>
      <path d="M -580.5947 -61.49725 L -586.7947 -57.09725 L -594.9947 -53.09725 L -603.5947 -49.49725 L -612.5947 -45.69725 L -623.5947 -41.69725 L -632.9947 -38.89725 L -641.9947 -36.29725 L -650.9947 -33.69725 L -656.3947 -32.29725 L -661.9947 -31.29725 L -664.3947 -37.09725 L -666.9947 -42.49725 L -669.1947 -46.49725 L -671.7947 -49.89725 L -671.9947 -58.89725 L -671.3947 -69.89725 L -669.5947 -80.69725 L -667.9947 -91.09725 L -665.3947 -102.09725 L -662.9947 -111.69725 L -660.1947 -119.69725 L -656.9947 -129.09725 L -654.1947 -136.49725 L -650.5947 -144.09725 L -646.5947 -151.69725 L -642.5947 -159.09725 L -639.9947 -162.69725 L -636.3947 -168.49725 L -630.9947 -164.09725 L -626.1947 -159.29725 L -621.5947 -153.09725 L -617.1947 -146.89725 L -612.3947 -138.29725 L -607.5947 -128.89725 L -602.7947 -119.69725 L -599.1947 -111.09725 L -595.1947 -102.09725 L -591.9947 -93.89725 L -588.1947 -84.49725 L -585.3947 -76.49725 L -582.3947 -68.09725 Z" fill="white"/>
      <path d="M -580.5947 -61.49725 L -586.7947 -57.09725 L -594.9947 -53.09725 L -603.5947 -49.49725 L -612.5947 -45.69725 L -623.5947 -41.69725 L -632.9947 -38.89725 L -641.9947 -36.29725 L -650.9947 -33.69725 L -656.3947 -32.29725 L -661.9947 -31.29725 L -664.3947 -37.09725 L -666.9947 -42.49725 L -669.1947 -46.49725 L -671.7947 -49.89725 L -671.9947 -58.89725 L -671.3947 -69.89725 L -669.5947 -80.69725 L -667.9947 -91.09725 L -665.3947 -102.09725 L -662.9947 -111.69725 L -660.1947 -119.69725 L -656.9947 -129.09725 L -654.1947 -136.49725 L -650.5947 -144.09725 L -646.5947 -151.69725 L -642.5947 -159.09725 L -639.9947 -162.69725 L -636.3947 -168.49725 L -630.9947 -164.09725 L -626.1947 -159.29725 L -621.5947 -153.09725 L -617.1947 -146.89725 L -612.3947 -138.29725 L -607.5947 -128.89725 L -602.7947 -119.69725 L -599.1947 -111.09725 L -595.1947 -102.09725 L -591.9947 -93.89725 L -588.1947 -84.49725 L -585.3947 -76.49725 L -582.3947 -68.09725 Z" stroke="#7f8080" stroke-linecap="round" stroke-linejoin="round" stroke-width="1"/>
      <path d="M -1012 -60.553854 L -1005.8 -56.153854 L -997.6 -52.153854 L -989 -48.553854 L -980 -44.753854 L -969 -40.753854 L -959.6 -37.953854 L -950.6 -35.353854 L -941.6 -32.753854 L -936.2 -31.353854 L -930.6 -30.353854 L -927.6 -36.753854 L -931.4 -37.553854 L -936.2 -38.753854 L -941.8 -39.953854 L -947.8 -41.753854 L -952.4 -43.153854 L -956.6 -44.353854 L -961.2 -46.353854 L -965.8 -47.953854 L -970.6 -49.953854 L -974.6 -51.353854 L -979.8 -53.553854 L -984.4 -55.153854 L -989.2 -57.353854 L -994 -59.153854 L -998 -61.153854 L -1002.4 -63.353854 L -1006.8 -65.553854 L -1010.2 -67.153855 Z" fill="url(#Obj_Gradient_3)"/>
      <path d="M -1012 -60.553854 L -1005.8 -56.153854 L -997.6 -52.153854 L -989 -48.553854 L -980 -44.753854 L -969 -40.753854 L -959.6 -37.953854 L -950.6 -35.353854 L -941.6 -32.753854 L -936.2 -31.353854 L -930.6 -30.353854 L -927.6 -36.753854 L -931.4 -37.553854 L -936.2 -38.753854 L -941.8 -39.953854 L -947.8 -41.753854 L -952.4 -43.153854 L -956.6 -44.353854 L -961.2 -46.353854 L -965.8 -47.953854 L -970.6 -49.953854 L -974.6 -51.353854 L -979.8 -53.553854 L -984.4 -55.153854 L -989.2 -57.353854 L -994 -59.153854 L -998 -61.153854 L -1002.4 -63.353854 L -1006.8 -65.553854 L -1010.2 -67.153855 Z" stroke="#7f8080" stroke-linecap="round" stroke-linejoin="round" stroke-width="1"/>
      <path d="M -580.5947 -61.49725 L -586.7947 -57.09725 L -594.9947 -53.09725 L -603.5947 -49.49725 L -612.5947 -45.69725 L -623.5947 -41.69725 L -632.9947 -38.89725 L -641.9947 -36.29725 L -650.9947 -33.69725 L -656.3947 -32.29725 L -661.9947 -31.29725 L -664.9947 -37.69725 L -661.1947 -38.49725 L -656.3947 -39.69725 L -650.7947 -40.89725 L -644.7947 -42.69725 L -640.1947 -44.09725 L -635.9947 -45.29725 L -631.3947 -47.29725 L -626.7947 -48.89725 L -621.9947 -50.89725 L -617.9947 -52.29725 L -612.7947 -54.49725 L -608.1947 -56.09725 L -603.3947 -58.29725 L -598.5947 -60.09725 L -594.5947 -62.09725 L -590.1947 -64.29725 L -585.7947 -66.49725 L -582.3947 -68.09725 Z" fill="url(#Obj_Gradient_4)"/>
      <path d="M -580.5947 -61.49725 L -586.7947 -57.09725 L -594.9947 -53.09725 L -603.5947 -49.49725 L -612.5947 -45.69725 L -623.5947 -41.69725 L -632.9947 -38.89725 L -641.9947 -36.29725 L -650.9947 -33.69725 L -656.3947 -32.29725 L -661.9947 -31.29725 L -664.9947 -37.69725 L -661.1947 -38.49725 L -656.3947 -39.69725 L -650.7947 -40.89725 L -644.7947 -42.69725 L -640.1947 -44.09725 L -635.9947 -45.29725 L -631.3947 -47.29725 L -626.7947 -48.89725 L -621.9947 -50.89725 L -617.9947 -52.29725 L -612.7947 -54.49725 L -608.1947 -56.09725 L -603.3947 -58.29725 L -598.5947 -60.09725 L -594.5947 -62.09725 L -590.1947 -64.29725 L -585.7947 -66.49725 L -582.3947 -68.09725 Z" stroke="#7f8080" stroke-linecap="round" stroke-linejoin="round" stroke-width="1"/>
      <path d="M -861.4279 -210.0362 L -866.157 -205.98264 C -867.3074 -204.99662 -868.5524 -204.1267 -869.8738 -203.38552 L -872.4004 -201.96835 C -873.8356 -201.16338 -874.4164 -199.39425 -873.7376 -197.89527 L -872.72 -195.64803 C -872.5984 -195.37954 -872.4717 -195.11342 -872.3399 -194.8498 L -870.5376 -191.24526 L -868.0506 -186.2713 C -867.7088 -185.5877 -867.3332 -184.92157 -866.925 -184.27537 L -864.5987 -180.59192 C -864.1583 -179.89465 -863.6807 -179.22158 -863.168 -178.57561 L -859.7574 -174.27815 C -859.2113 -173.59013 -858.6263 -172.93394 -858.0052 -172.31283 L -853.3391 -167.6468 C -852.9383 -167.2459 -852.5227 -166.85999 -852.0933 -166.48982 L -847.5298 -162.55574 C -847.1351 -162.21552 -846.729 -161.88881 -846.3122 -161.57617 L -842.3372 -158.59497 C -841.6713 -158.09553 -840.9788 -157.63262 -840.2627 -157.20826 L -836.1296 -154.75904 C -836.0016 -154.6832 -835.8729 -154.60859 -835.7434 -154.53523 L -831.0459 -151.8733 C -830.3076 -151.45493 -829.5467 -151.07774 -828.7667 -150.74347 L -825.2169 -149.22212 C -824.631 -148.97099 -824.0348 -148.74433 -823.43 -148.54274 L -818.4119 -146.87003 C -817.1647 -146.45429 -815.8841 -146.14624 -814.5842 -145.9493 L -810.4854 -145.32826 C -810.1202 -145.27294 -809.75385 -145.22642 -809.3865 -145.18874 L -802.5054 -144.48299 C -802.2602 -144.45784 -802.0147 -144.43664 -801.7688 -144.41938 L -797.2417 -144.10169 C -796.7058 -144.06409 -796.1688 -144.04527 -795.6316 -144.04527 L -792.3695 -144.04526 C -791.4158 -144.04526 -790.4631 -144.10458 -789.5167 -144.22287 L -785.528 -144.72146 C -784.8681 -144.80396 -784.212 -144.91504 -783.56165 -145.0544 L -777.4796 -146.35769 C -776.5857 -146.54924 -775.7041 -146.7939 -774.8393 -147.09039 L -770.3305 -148.63628 C -769.5358 -148.90873 -768.7567 -149.22451 -767.9966 -149.5822 L -763.1632 -151.85674 C -762.613 -152.11565 -762.0733 -152.39629 -761.5454 -152.69798 L -757.7775 -154.85104 C -757.0847 -155.24692 -756.413 -155.67858 -755.7651 -156.14428 L -751.0889 -159.50525 C -750.58825 -159.86511 -750.1022 -160.24497 -749.6321 -160.64389 L -744.3112 -165.15856 C -743.9289 -165.48294 -743.5573 -165.81974 -743.197 -166.16842 L -738.4978 -170.71604 C -737.8582 -171.335 -737.2551 -171.99056 -736.6915 -172.67942 L -732.8982 -177.31566 C -732.3915 -177.93497 -731.9174 -178.5803 -731.478 -179.24904 L -727.8608 -184.75344 C -727.6454 -185.08127 -727.4384 -185.41456 -727.24 -185.75298 L -724.7169 -190.05708 C -724.3309 -190.71546 -723.978 -191.39265 -723.6594 -192.08612 L -721.5407 -196.6974 C -721.0078 -197.85715 -720.6367 -199.08456 -720.4376 -200.34526 L -720.4376 -200.34526 C -720.2593 -201.47453 -720.8386 -202.58797 -721.8657 -203.0901 L -727.1591 -205.678 C -728.4736 -206.32063 -729.7082 -207.11514 -730.8376 -208.04526 L -731.2436 -208.37963 C -732.08795 -209.07496 -732.71136 -210.00126 -733.0376 -211.04526 L -733.0376 -211.04526 C -733.0843 -211.19458 -733.2431 -211.2778 -733.3925 -211.23114 C -733.5075 -211.19518 -733.5872 -211.09031 -733.5911 -210.9698 L -733.7003 -207.5469 C -733.7911 -204.70381 -734.4084 -201.90224 -735.521 -199.28433 L -736.3979 -197.22096 C -736.9565 -195.90669 -737.6363 -194.6473 -738.4284 -193.45909 L -742.1142 -187.93042 C -742.8617 -186.80915 -743.7063 -185.75575 -744.63825 -184.78238 L -750.9333 -178.20753 C -751.8014 -177.30087 -752.7422 -176.4668 -753.7464 -175.71367 L -762.1213 -169.4325 C -762.9977 -168.77518 -763.92 -168.18133 -764.881 -167.65546 L -772.0662 -163.72394 C -773.3774 -163.00653 -774.7553 -162.41863 -776.1805 -161.96857 L -782.8534 -159.86133 C -784.5703 -159.31916 -786.3449 -158.98046 -788.1407 -158.85219 L -795.0272 -158.3603 C -796.0995 -158.2837 -797.1758 -158.28238 -798.2483 -158.35635 L -806.6846 -158.93816 C -807.71875 -159.00948 -808.7469 -159.15064 -809.7621 -159.36067 L -816.8973 -160.83692 C -818.8492 -161.24077 -820.7404 -161.89665 -822.5232 -162.78808 L -827.1827 -165.11779 C -828.4168 -165.73485 -829.5929 -166.46173 -830.6967 -167.28961 L -836.3787 -171.55108 C -836.8178 -171.88043 -837.245 -172.2254 -837.6595 -172.58532 L -843.4147 -177.58324 C -844.229 -178.29038 -844.9925 -179.05392 -845.6996 -179.8682 L -850.1049 -184.9409 C -850.859 -185.80925 -851.5469 -186.73295 -852.1628 -187.70422 L -855.8965 -193.59198 C -856.2571 -194.16056 -856.5925 -194.7447 -856.9018 -195.34272 L -858.5222 -198.47544 C -859.1313 -199.65312 -859.6375 -200.88126 -860.035 -202.14615 L -861.3153 -206.21964 C -861.53 -206.90302 -861.7128 -207.59605 -861.8629 -208.29649 L -862.0883 -209.34843 C -862.1734 -209.74544 -861.947 -210.1431 -861.5622 -210.27263 L -861.5622 -210.27263 C -861.4897 -210.29704 -861.4112 -210.25805 -861.3868 -210.18556 C -861.3687 -210.13205 -861.385 -210.07296 -861.4279 -210.0362 Z" fill="url(#Obj_Gradient_5)"/>
      <path d="M -861.4279 -210.0362 L -866.157 -205.98264 C -867.3074 -204.99662 -868.5524 -204.1267 -869.8738 -203.38552 L -872.4004 -201.96835 C -873.8356 -201.16338 -874.4164 -199.39425 -873.7376 -197.89527 L -872.72 -195.64803 C -872.5984 -195.37954 -872.4717 -195.11342 -872.3399 -194.8498 L -870.5376 -191.24526 L -868.0506 -186.2713 C -867.7088 -185.5877 -867.3332 -184.92157 -866.925 -184.27537 L -864.5987 -180.59192 C -864.1583 -179.89465 -863.6807 -179.22158 -863.168 -178.57561 L -859.7574 -174.27815 C -859.2113 -173.59013 -858.6263 -172.93394 -858.0052 -172.31283 L -853.3391 -167.6468 C -852.9383 -167.2459 -852.5227 -166.85999 -852.0933 -166.48982 L -847.5298 -162.55574 C -847.1351 -162.21552 -846.729 -161.88881 -846.3122 -161.57617 L -842.3372 -158.59497 C -841.6713 -158.09553 -840.9788 -157.63262 -840.2627 -157.20826 L -836.1296 -154.75904 C -836.0016 -154.6832 -835.8729 -154.60859 -835.7434 -154.53523 L -831.0459 -151.8733 C -830.3076 -151.45493 -829.5467 -151.07774 -828.7667 -150.74347 L -825.2169 -149.22212 C -824.631 -148.97099 -824.0348 -148.74433 -823.43 -148.54274 L -818.4119 -146.87003 C -817.1647 -146.45429 -815.8841 -146.14624 -814.5842 -145.9493 L -810.4854 -145.32826 C -810.1202 -145.27294 -809.75385 -145.22642 -809.3865 -145.18874 L -802.5054 -144.48299 C -802.2602 -144.45784 -802.0147 -144.43664 -801.7688 -144.41938 L -797.2417 -144.10169 C -796.7058 -144.06409 -796.1688 -144.04527 -795.6316 -144.04527 L -792.3695 -144.04526 C -791.4158 -144.04526 -790.4631 -144.10458 -789.5167 -144.22287 L -785.528 -144.72146 C -784.8681 -144.80396 -784.212 -144.91504 -783.56165 -145.0544 L -777.4796 -146.35769 C -776.5857 -146.54924 -775.7041 -146.7939 -774.8393 -147.09039 L -770.3305 -148.63628 C -769.5358 -148.90873 -768.7567 -149.22451 -767.9966 -149.5822 L -763.1632 -151.85674 C -762.613 -152.11565 -762.0733 -152.39629 -761.5454 -152.69798 L -757.7775 -154.85104 C -757.0847 -155.24692 -756.413 -155.67858 -755.7651 -156.14428 L -751.0889 -159.50525 C -750.58825 -159.86511 -750.1022 -160.24497 -749.6321 -160.64389 L -744.3112 -165.15856 C -743.9289 -165.48294 -743.5573 -165.81974 -743.197 -166.16842 L -738.4978 -170.71604 C -737.8582 -171.335 -737.2551 -171.99056 -736.6915 -172.67942 L -732.8982 -177.31566 C -732.3915 -177.93497 -731.9174 -178.5803 -731.478 -179.24904 L -727.8608 -184.75344 C -727.6454 -185.08127 -727.4384 -185.41456 -727.24 -185.75298 L -724.7169 -190.05708 C -724.3309 -190.71546 -723.978 -191.39265 -723.6594 -192.08612 L -721.5407 -196.6974 C -721.0078 -197.85715 -720.6367 -199.08456 -720.4376 -200.34526 L -720.4376 -200.34526 C -720.2593 -201.47453 -720.8386 -202.58797 -721.8657 -203.0901 L -727.1591 -205.678 C -728.4736 -206.32063 -729.7082 -207.11514 -730.8376 -208.04526 L -731.2436 -208.37963 C -732.08795 -209.07496 -732.71136 -210.00126 -733.0376 -211.04526 L -733.0376 -211.04526 C -733.0843 -211.19458 -733.2431 -211.2778 -733.3925 -211.23114 C -733.5075 -211.19518 -733.5872 -211.09031 -733.5911 -210.9698 L -733.7003 -207.5469 C -733.7911 -204.70381 -734.4084 -201.90224 -735.521 -199.28433 L -736.3979 -197.22096 C -736.9565 -195.90669 -737.6363 -194.6473 -738.4284 -193.45909 L -742.1142 -187.93042 C -742.8617 -186.80915 -743.7063 -185.75575 -744.63825 -184.78238 L -750.9333 -178.20753 C -751.8014 -177.30087 -752.7422 -176.4668 -753.7464 -175.71367 L -762.1213 -169.4325 C -762.9977 -168.77518 -763.92 -168.18133 -764.881 -167.65546 L -772.0662 -163.72394 C -773.3774 -163.00653 -774.7553 -162.41863 -776.1805 -161.96857 L -782.8534 -159.86133 C -784.5703 -159.31916 -786.3449 -158.98046 -788.1407 -158.85219 L -795.0272 -158.3603 C -796.0995 -158.2837 -797.1758 -158.28238 -798.2483 -158.35635 L -806.6846 -158.93816 C -807.71875 -159.00948 -808.7469 -159.15064 -809.7621 -159.36067 L -816.8973 -160.83692 C -818.8492 -161.24077 -820.7404 -161.89665 -822.5232 -162.78808 L -827.1827 -165.11779 C -828.4168 -165.73485 -829.5929 -166.46173 -830.6967 -167.28961 L -836.3787 -171.55108 C -836.8178 -171.88043 -837.245 -172.2254 -837.6595 -172.58532 L -843.4147 -177.58324 C -844.229 -178.29038 -844.9925 -179.05392 -845.6996 -179.8682 L -850.1049 -184.9409 C -850.859 -185.80925 -851.5469 -186.73295 -852.1628 -187.70422 L -855.8965 -193.59198 C -856.2571 -194.16056 -856.5925 -194.7447 -856.9018 -195.34272 L -858.5222 -198.47544 C -859.1313 -199.65312 -859.6375 -200.88126 -860.035 -202.14615 L -861.3153 -206.21964 C -861.53 -206.90302 -861.7128 -207.59605 -861.8629 -208.29649 L -862.0883 -209.34843 C -862.1734 -209.74544 -861.947 -210.1431 -861.5622 -210.27263 L -861.5622 -210.27263 C -861.4897 -210.29704 -861.4112 -210.25805 -861.3868 -210.18556 C -861.3687 -210.13205 -861.385 -210.07296 -861.4279 -210.0362 Z" stroke="#7f8080" stroke-linecap="round" stroke-linejoin="round" stroke-width="1"/>
      <path d="M -861.9408 -210.2441 L -856.5408 -210.8441 L -849.7408 -207.4441 L -844.7408 -205.6441 L -836.3408 -203.8441 L -827.9408 -202.8441 L -819.9408 -201.8441 L -812.3408 -201.6441 L -803.74075 -201.2441 L -792.14075 -201.4441 L -783.74075 -201.8441 L -774.34075 -202.4441 L -765.94075 -203.2441 L -756.74075 -204.6441 L -748.54075 -206.8441 L -742.74075 -208.6441 L -737.14075 -211.2441 L -734.34075 -210.0441 L -733.94075 -204.4441 L -736.74075 -196.4441 L -742.14075 -193.6441 L -752.74075 -190.4441 L -764.14075 -188.0441 L -775.34075 -187.2441 L -787.74075 -186.2441 L -798.14075 -186.2441 L -807.54075 -186.2441 L -819.1408 -186.8441 L -830.3408 -187.6441 L -840.9408 -189.8441 L -849.5408 -191.8441 L -855.7408 -194.6441 L -857.7408 -196.2441 L -860.9408 -203.8441 Z" fill="url(#Obj_Gradient_6)"/>
      <path d="M -861.9408 -210.2441 L -856.5408 -210.8441 L -849.7408 -207.4441 L -844.7408 -205.6441 L -836.3408 -203.8441 L -827.9408 -202.8441 L -819.9408 -201.8441 L -812.3408 -201.6441 L -803.74075 -201.2441 L -792.14075 -201.4441 L -783.74075 -201.8441 L -774.34075 -202.4441 L -765.94075 -203.2441 L -756.74075 -204.6441 L -748.54075 -206.8441 L -742.74075 -208.6441 L -737.14075 -211.2441 L -734.34075 -210.0441 L -733.94075 -204.4441 L -736.74075 -196.4441 L -742.14075 -193.6441 L -752.74075 -190.4441 L -764.14075 -188.0441 L -775.34075 -187.2441 L -787.74075 -186.2441 L -798.14075 -186.2441 L -807.54075 -186.2441 L -819.1408 -186.8441 L -830.3408 -187.6441 L -840.9408 -189.8441 L -849.5408 -191.8441 L -855.7408 -194.6441 L -857.7408 -196.2441 L -860.9408 -203.8441 Z" stroke="#7f8080" stroke-linecap="round" stroke-linejoin="round" stroke-width="1"/>
      <path d="M -932.1868 215.2 L -932.1868 215.2 C -932.2525 215.72549 -932.1896 216.25905 -932.0037 216.7549 L -931.3527 218.49092 C -931.1759 218.96227 -930.9489 219.41318 -930.6754 219.83582 L -929.7076 221.33153 C -929.1666 222.16756 -928.4535 222.87855 -927.6159 223.41702 L -926.5378 224.11005 C -926.2376 224.30307 -925.923 224.47285 -925.5968 224.61789 L -924.28 225.20349 C -923.6835 225.46876 -923.0528 225.64928 -922.4062 225.7398 L -913.3958 227.00126 C -913.3858 227.00265 -913.3758 227.00403 -913.3658 227.0054 L -901.6498 228.594 C -901.6038 228.60024 -901.5577 228.60601 -901.5116 228.61134 L -891.2287 229.79783 C -891.1968 229.8015 -891.1648 229.80498 -891.1328 229.80822 L -877.4228 231.1991 C -877.3948 231.20193 -877.3668 231.2046 -877.3388 231.2071 L -866.2335 232.19865 C -866.1984 232.20179 -866.1632 232.20466 -866.1281 232.20726 L -855.4415 232.99886 C -855.401 233.00185 -855.3605 233.0045 -855.32 233.0068 L -844.812 233.6016 C -844.7912 233.60276 -844.7704 233.60404 -844.7496 233.6054 L -832.7068 234.3951 C -832.6228 234.4006 -832.5387 234.4046 -832.4546 234.40707 L -819.0074 234.80257 C -818.9897 234.8031 -818.9719 234.80368 -818.9542 234.80434 L -808.3103 235.19856 C -808.224 235.20176 -808.1376 235.20335 -808.0512 235.20335 L -797.4422 235.20335 C -797.4013 235.20335 -797.3603 235.2037 -797.3194 235.20443 L -786.233 235.39893 C -786.0649 235.40188 -785.8968 235.39877 -785.7289 235.38962 L -775.1077 234.81028 C -775.0231 234.80566 -774.9384 234.80258 -774.8537 234.80104 L -764.08915 234.60532 C -764.0169 234.604 -763.9447 234.60158 -763.87255 234.59803 L -751.8539 234.00695 C -751.8052 234.00455 -751.75645 234.00165 -751.70775 233.99823 L -740.4677 233.20945 C -740.4098 233.2054 -740.3519 233.2006 -740.2941 233.1951 L -727.8835 232.01313 C -727.815 232.00661 -727.7465 232.0011 -727.67786 231.9966 L -715.7458 231.21418 C -715.6358 231.20696 -715.526 231.19715 -715.41645 231.18475 L -705.0041 230.006 C -704.9886 230.00423 -704.973 230.00242 -704.9575 230.00056 L -695.0098 228.80683 C -694.9905 228.80451 -694.9711 228.8021 -694.9518 228.79963 L -681.11606 227.0221 C -681.01885 227.0096 -680.9219 226.99507 -680.8253 226.9785 L -674.2718 225.85506 C -674.07085 225.8206 -673.8685 225.79495 -673.6653 225.77817 L -670.4329 225.5112 C -669.5437 225.43775 -668.6767 225.19497 -667.87865 224.79594 L -666.39235 224.0528 C -665.7918 223.7525 -665.2375 223.36735 -664.7466 222.9092 L -663.4115 221.66308 C -662.8047 221.09672 -662.3493 220.38747 -662.0868 219.6 L -661.79195 218.71552 C -661.7219 218.5053 -661.6618 218.29187 -661.612 218.07595 L -661.1423 216.04056 C -661.1071 215.88792 -661.1405 215.72752 -661.2338 215.60168 L -661.2338 215.60168 C -661.3241 215.4798 -661.4748 215.4183 -661.6246 215.44214 L -670.10445 216.7912 C -670.15534 216.7993 -670.20615 216.80796 -670.25685 216.81718 L -683.2416 219.17805 C -683.3344 219.19492 -683.4275 219.2099 -683.5209 219.22302 L -694.7506 220.7991 C -694.7707 220.80194 -694.79086 220.80486 -694.811 220.80786 L -707.9801 222.7734 C -708.1139 222.79337 -708.2482 222.80945 -708.3829 222.82163 L -718.8913 223.77208 C -719.097 223.7907 -719.3034 223.80018 -719.51 223.80053 L -720.94395 223.80295 C -721.1018 223.80322 -721.2596 223.80883 -721.4171 223.81976 L -735.5469 224.801 C -735.5695 224.80257 -735.5921 224.80403 -735.6147 224.80538 L -748.91795 225.5996 C -748.9598 225.6021 -749.0018 225.60423 -749.0437 225.60597 L -763.23515 226.19729 C -763.3322 226.20133 -763.4294 226.20335 -763.5266 226.20335 L -776.7808 226.20335 L -789.3225 226.20335 C -789.36135 226.20335 -789.4002 226.20368 -789.4391 226.20433 L -801.1975 226.4003 C -801.3197 226.40234 -801.4419 226.40117 -801.564 226.3968 L -812.3976 226.0099 C -812.5197 226.00554 -812.6419 226.00437 -812.7641 226.0064 L -824.4787 226.20165 C -824.5468 226.2028 -824.6148 226.20293 -824.6829 226.20208 L -840.3852 226.0058 C -840.5156 226.00417 -840.6459 225.9989 -840.776 225.98998 L -855.0858 225.00986 C -855.1491 225.00552 -855.2124 225.00032 -855.2756 224.99426 L -869.7666 223.60471 C -869.7761 223.6038 -869.7855 223.60288 -869.795 223.60194 L -883.607 222.22073 C -883.7228 222.20915 -883.8384 222.19468 -883.9535 222.17733 L -898.2627 220.02116 C -898.3414 220.0093 -898.4204 219.99877 -898.4995 219.9896 L -912.0194 218.42207 C -912.127 218.4096 -912.2343 218.39463 -912.3411 218.37718 L -921.7332 216.84377 C -921.8982 216.81684 -922.0622 216.784 -922.2248 216.74532 L -931.3024 214.58654 C -931.6908 214.4942 -932.0804 214.73412 -932.1728 215.12244 C -932.1788 215.14802 -932.1835 215.17392 -932.1868 215.2 Z" fill="url(#Obj_Gradient_7)"/>
      <path d="M -932.1868 215.2 L -932.1868 215.2 C -932.2525 215.72549 -932.1896 216.25905 -932.0037 216.7549 L -931.3527 218.49092 C -931.1759 218.96227 -930.9489 219.41318 -930.6754 219.83582 L -929.7076 221.33153 C -929.1666 222.16756 -928.4535 222.87855 -927.6159 223.41702 L -926.5378 224.11005 C -926.2376 224.30307 -925.923 224.47285 -925.5968 224.61789 L -924.28 225.20349 C -923.6835 225.46876 -923.0528 225.64928 -922.4062 225.7398 L -913.3958 227.00126 C -913.3858 227.00265 -913.3758 227.00403 -913.3658 227.0054 L -901.6498 228.594 C -901.6038 228.60024 -901.5577 228.60601 -901.5116 228.61134 L -891.2287 229.79783 C -891.1968 229.8015 -891.1648 229.80498 -891.1328 229.80822 L -877.4228 231.1991 C -877.3948 231.20193 -877.3668 231.2046 -877.3388 231.2071 L -866.2335 232.19865 C -866.1984 232.20179 -866.1632 232.20466 -866.1281 232.20726 L -855.4415 232.99886 C -855.401 233.00185 -855.3605 233.0045 -855.32 233.0068 L -844.812 233.6016 C -844.7912 233.60276 -844.7704 233.60404 -844.7496 233.6054 L -832.7068 234.3951 C -832.6228 234.4006 -832.5387 234.4046 -832.4546 234.40707 L -819.0074 234.80257 C -818.9897 234.8031 -818.9719 234.80368 -818.9542 234.80434 L -808.3103 235.19856 C -808.224 235.20176 -808.1376 235.20335 -808.0512 235.20335 L -797.4422 235.20335 C -797.4013 235.20335 -797.3603 235.2037 -797.3194 235.20443 L -786.233 235.39893 C -786.0649 235.40188 -785.8968 235.39877 -785.7289 235.38962 L -775.1077 234.81028 C -775.0231 234.80566 -774.9384 234.80258 -774.8537 234.80104 L -764.08915 234.60532 C -764.0169 234.604 -763.9447 234.60158 -763.87255 234.59803 L -751.8539 234.00695 C -751.8052 234.00455 -751.75645 234.00165 -751.70775 233.99823 L -740.4677 233.20945 C -740.4098 233.2054 -740.3519 233.2006 -740.2941 233.1951 L -727.8835 232.01313 C -727.815 232.00661 -727.7465 232.0011 -727.67786 231.9966 L -715.7458 231.21418 C -715.6358 231.20696 -715.526 231.19715 -715.41645 231.18475 L -705.0041 230.006 C -704.9886 230.00423 -704.973 230.00242 -704.9575 230.00056 L -695.0098 228.80683 C -694.9905 228.80451 -694.9711 228.8021 -694.9518 228.79963 L -681.11606 227.0221 C -681.01885 227.0096 -680.9219 226.99507 -680.8253 226.9785 L -674.2718 225.85506 C -674.07085 225.8206 -673.8685 225.79495 -673.6653 225.77817 L -670.4329 225.5112 C -669.5437 225.43775 -668.6767 225.19497 -667.87865 224.79594 L -666.39235 224.0528 C -665.7918 223.7525 -665.2375 223.36735 -664.7466 222.9092 L -663.4115 221.66308 C -662.8047 221.09672 -662.3493 220.38747 -662.0868 219.6 L -661.79195 218.71552 C -661.7219 218.5053 -661.6618 218.29187 -661.612 218.07595 L -661.1423 216.04056 C -661.1071 215.88792 -661.1405 215.72752 -661.2338 215.60168 L -661.2338 215.60168 C -661.3241 215.4798 -661.4748 215.4183 -661.6246 215.44214 L -670.10445 216.7912 C -670.15534 216.7993 -670.20615 216.80796 -670.25685 216.81718 L -683.2416 219.17805 C -683.3344 219.19492 -683.4275 219.2099 -683.5209 219.22302 L -694.7506 220.7991 C -694.7707 220.80194 -694.79086 220.80486 -694.811 220.80786 L -707.9801 222.7734 C -708.1139 222.79337 -708.2482 222.80945 -708.3829 222.82163 L -718.8913 223.77208 C -719.097 223.7907 -719.3034 223.80018 -719.51 223.80053 L -720.94395 223.80295 C -721.1018 223.80322 -721.2596 223.80883 -721.4171 223.81976 L -735.5469 224.801 C -735.5695 224.80257 -735.5921 224.80403 -735.6147 224.80538 L -748.91795 225.5996 C -748.9598 225.6021 -749.0018 225.60423 -749.0437 225.60597 L -763.23515 226.19729 C -763.3322 226.20133 -763.4294 226.20335 -763.5266 226.20335 L -776.7808 226.20335 L -789.3225 226.20335 C -789.36135 226.20335 -789.4002 226.20368 -789.4391 226.20433 L -801.1975 226.4003 C -801.3197 226.40234 -801.4419 226.40117 -801.564 226.3968 L -812.3976 226.0099 C -812.5197 226.00554 -812.6419 226.00437 -812.7641 226.0064 L -824.4787 226.20165 C -824.5468 226.2028 -824.6148 226.20293 -824.6829 226.20208 L -840.3852 226.0058 C -840.5156 226.00417 -840.6459 225.9989 -840.776 225.98998 L -855.0858 225.00986 C -855.1491 225.00552 -855.2124 225.00032 -855.2756 224.99426 L -869.7666 223.60471 C -869.7761 223.6038 -869.7855 223.60288 -869.795 223.60194 L -883.607 222.22073 C -883.7228 222.20915 -883.8384 222.19468 -883.9535 222.17733 L -898.2627 220.02116 C -898.3414 220.0093 -898.4204 219.99877 -898.4995 219.9896 L -912.0194 218.42207 C -912.127 218.4096 -912.2343 218.39463 -912.3411 218.37718 L -921.7332 216.84377 C -921.8982 216.81684 -922.0622 216.784 -922.2248 216.74532 L -931.3024 214.58654 C -931.6908 214.4942 -932.0804 214.73412 -932.1728 215.12244 C -932.1788 215.14802 -932.1835 215.17392 -932.1868 215.2 Z" stroke="#7f8080" stroke-linecap="round" stroke-linejoin="round" stroke-width="1"/>
      <path d="M -894.2974 -24.5 L -891.2974 -20.5 L -898.7974 -31 L -901.2974 -38 L -903.2974 -44 L -903.7974 -51 L -903.7974 -57 L -901.2974 -65 L -898.7974 -71 L -894.2974 -76.5 L -886.2974 -81 L -880.2974 -84 L -873.7974 -84 L -866.2974 -84 L -859.7974 -84 L -855.7974 -84.5 L -848.2974 -87 L -842.2974 -88.5 L -830.2974 -91.5 L -824.7974 -92.5 L -816.7974 -95 L -810.2974 -96 L -804.2974 -97 L -794.2974 -97.5 L -786.2974 -98 L -778.2974 -97.5 L -772.2974 -96 L -766.7974 -94 L -761.2974 -93 L -756.2974 -91.5 L -748.79736 -89.5 L -743.29736 -88.5 L -736.79736 -87 L -731.29736 -85.5 L -726.29736 -84 L -721.79736 -84.5 L -714.79736 -83.5 L -707.79736 -83 L -701.29736 -81.5 L -696.29736 -79 L -691.79736 -75.5 L -687.29736 -71 L -685.29736 -65.5 L -682.79736 -60.5 L -681.79736 -53.5 L -681.79736 -46.5 L -682.29736 -40 L -684.79736 -33.5 L -688.29736 -28.5 L -692.29736 -24 L -694.29736 -18 L -697.79736 -9 L -699.29736 -2 L -701.29736 5.5 L -703.29736 14 L -705.79736 21.5 L -709.29736 34 L -712.79736 42.5 L -715.29736 49.5 L -718.29736 59.5 L -720.29736 64.5 L -720.29736 67.5 L -720.29736 72.5 L -722.29736 76.5 L -725.29736 78 L -771.2974 79 L -776.2974 76 L -776.2974 72 L -775.2974 67.5 L -770.2974 66 L -743.79736 65 L -742.29736 63.5 L -751.29736 3 L -749.79736 0 L -746.29736 -1.5 L -740.29736 -4.5 L -737.29736 -8.5 L -732.79736 -13.5 L -729.79736 -19 L -728.29736 -24.5 L -857.7974 -24 L -855.7974 -17 L -852.7974 -12.5 L -850.7974 -10 L -846.2974 -5.5 L -843.7974 -3.5 L -839.2974 -1 L -835.7974 .5 L -835.7974 3 L -836.2974 11.5 L -842.7974 63 L -842.2974 65 L -838.2974 65 L -811.7974 65.5 L -809.7974 68.5 L -808.7974 72.5 L -809.7974 75.5 L -811.7974 78 L -813.7974 79 L -861.2974 79 L -863.2974 78 L -864.2974 74.5 L -864.7974 70.5 L -864.7974 67 L -866.7974 61.5 L -874.7974 37.5 L -884.2974 3.5 L -886.2974 -10 L -890.2974 -18.5 Z" fill="#928a53"/>
      <path d="M -894.2974 -24.5 L -891.2974 -20.5 L -898.7974 -31 L -901.2974 -38 L -903.2974 -44 L -903.7974 -51 L -903.7974 -57 L -901.2974 -65 L -898.7974 -71 L -894.2974 -76.5 L -886.2974 -81 L -880.2974 -84 L -873.7974 -84 L -866.2974 -84 L -859.7974 -84 L -855.7974 -84.5 L -848.2974 -87 L -842.2974 -88.5 L -830.2974 -91.5 L -824.7974 -92.5 L -816.7974 -95 L -810.2974 -96 L -804.2974 -97 L -794.2974 -97.5 L -786.2974 -98 L -778.2974 -97.5 L -772.2974 -96 L -766.7974 -94 L -761.2974 -93 L -756.2974 -91.5 L -748.79736 -89.5 L -743.29736 -88.5 L -736.79736 -87 L -731.29736 -85.5 L -726.29736 -84 L -721.79736 -84.5 L -714.79736 -83.5 L -707.79736 -83 L -701.29736 -81.5 L -696.29736 -79 L -691.79736 -75.5 L -687.29736 -71 L -685.29736 -65.5 L -682.79736 -60.5 L -681.79736 -53.5 L -681.79736 -46.5 L -682.29736 -40 L -684.79736 -33.5 L -688.29736 -28.5 L -692.29736 -24 L -694.29736 -18 L -697.79736 -9 L -699.29736 -2 L -701.29736 5.5 L -703.29736 14 L -705.79736 21.5 L -709.29736 34 L -712.79736 42.5 L -715.29736 49.5 L -718.29736 59.5 L -720.29736 64.5 L -720.29736 67.5 L -720.29736 72.5 L -722.29736 76.5 L -725.29736 78 L -771.2974 79 L -776.2974 76 L -776.2974 72 L -775.2974 67.5 L -770.2974 66 L -743.79736 65 L -742.29736 63.5 L -751.29736 3 L -749.79736 0 L -746.29736 -1.5 L -740.29736 -4.5 L -737.29736 -8.5 L -732.79736 -13.5 L -729.79736 -19 L -728.29736 -24.5 L -857.7974 -24 L -855.7974 -17 L -852.7974 -12.5 L -850.7974 -10 L -846.2974 -5.5 L -843.7974 -3.5 L -839.2974 -1 L -835.7974 .5 L -835.7974 3 L -836.2974 11.5 L -842.7974 63 L -842.2974 65 L -838.2974 65 L -811.7974 65.5 L -809.7974 68.5 L -808.7974 72.5 L -809.7974 75.5 L -811.7974 78 L -813.7974 79 L -861.2974 79 L -863.2974 78 L -864.2974 74.5 L -864.7974 70.5 L -864.7974 67 L -866.7974 61.5 L -874.7974 37.5 L -884.2974 3.5 L -886.2974 -10 L -890.2974 -18.5 Z" stroke="#7f8080" stroke-linecap="round" stroke-linejoin="round" stroke-width="1"/>
      <path d="M -818.7974 99.5 L -758.2974 99 L -753.2974 101.5 L -752.2974 106 L -752.2974 110.5 L -752.7974 112 L -756.7974 114.5 L -819.7974 115 L -823.2974 112.5 L -824.2974 109 L -824.7974 104.5 L -822.2974 101 Z" fill="#928d55"/>
      <path d="M -818.7974 99.5 L -758.2974 99 L -753.2974 101.5 L -752.2974 106 L -752.2974 110.5 L -752.7974 112 L -756.7974 114.5 L -819.7974 115 L -823.2974 112.5 L -824.2974 109 L -824.7974 104.5 L -822.2974 101 Z" stroke="#7f8080" stroke-linecap="round" stroke-linejoin="round" stroke-width="1"/>
    </g>
  </g>
</svg>
