<?xml version="1.0" encoding="UTF-8" standalone="no"?>
<!DOCTYPE svg PUBLIC "-//W3C//DTD SVG 1.1//EN" "http://www.w3.org/Graphics/SVG/1.1/DTD/svg11.dtd">
<svg xmlns:xl="http://www.w3.org/1999/xlink" version="1.1" xmlns="http://www.w3.org/2000/svg" xmlns:dc="http://purl.org/dc/elements/1.1/" viewBox="-39 -62 433 450" width="433" height="450">
  <defs>
    <radialGradient cx="0" cy="0" r="1" id="Gradient" gradientUnits="userSpaceOnUse">
      <stop offset="0" stop-color="#cbcbcb"/>
      <stop offset=".4338305" stop-color="#837d78"/>
      <stop offset="1" stop-color="#2b1b0b"/>
    </radialGradient>
    <radialGradient id="Obj_Gradient" xl:href="#Gradient" gradientTransform="translate(176.75925 -33.6) scale(70.26272)"/>
  </defs>
  <metadata> Produced by OmniGraffle 7.19.2\n2023-12-10 23:15:41 +0000</metadata>
  <g id="Canvas_7" stroke-opacity="1" stroke-dasharray="none" fill="none" fill-opacity="1" stroke="none">
    <title>Canvas 7</title>
    <g id="Canvas_7_Layer_1">
      <title>Layer 1</title>
      <g id="Graphic_20">
        <path d="M 115.00565 -60.409554 L 123.1711 -57.291836 C 124.0291 -56.96424 124.90594 -56.68833 125.79692 -56.46558 L 139.5141 -53.036287 C 140.67576 -52.74587 141.85832 -52.54662 143.051 -52.44034 L 160.57715 -50.8786 C 161.165 -50.82622 161.75464 -50.796483 162.34478 -50.78946 L 177.8237 -50.605185 C 178.11404 -50.60173 178.40442 -50.60377 178.69469 -50.61131 L 193.118 -50.98594 C 193.47878 -50.99531 193.8393 -51.013174 194.19924 -51.03951 L 208.57053 -52.09107 C 209.56197 -52.163613 210.54766 -52.30036 211.5214 -52.50044 L 223.09436 -54.87845 C 224.13637 -55.09256 225.16226 -55.3787 226.16465 -55.734814 L 237.91664 -59.909864 C 239.00702 -60.29723 240.21021 -59.76646 240.65925 -58.7 L 240.65925 -58.7 C 241.1814 -57.459894 241.33338 -56.095146 241.09685 -54.77055 L 240.91637 -53.75986 C 240.6126 -52.058706 240.11806 -50.397204 239.44214 -48.80681 L 237.89892 -45.17569 C 237.34035 -43.86142 236.6606 -42.602025 235.86846 -41.41382 L 232.18268 -35.88515 C 231.43517 -34.763886 230.59057 -33.710487 229.6586 -32.73711 L 223.36354 -26.162263 C 222.49547 -25.25561 221.55463 -24.421538 220.55046 -23.668407 L 212.17555 -17.387229 C 211.29914 -16.729916 210.37688 -16.13606 209.41582 -15.610197 L 202.23062 -11.678672 C 200.9195 -10.961265 199.54156 -10.373362 198.11638 -9.923302 L 191.44347 -7.816068 C 189.7266 -7.273897 187.952 -6.9351955 186.15613 -6.806919 L 179.26968 -6.31503 C 178.19738 -6.238437 177.12103 -6.237118 176.04854 -6.311082 L 167.61229 -6.892893 C 166.57811 -6.9642156 165.54994 -7.105373 164.5348 -7.315401 L 157.3996 -8.79165 C 155.44765 -9.195503 153.55647 -9.851386 151.77362 -10.742815 L 147.1142 -13.072519 C 145.88007 -13.689587 144.70397 -14.41646 143.60012 -15.244345 L 137.91816 -19.505813 C 137.47903 -19.835165 137.05182 -20.180132 136.63737 -20.540052 L 130.88219 -25.537972 C 130.0679 -26.245115 129.30436 -27.008655 128.59722 -27.82294 L 124.192 -32.895624 C 123.43789 -33.763985 122.74998 -34.687685 122.13406 -35.65895 L 118.40036 -41.54671 C 118.03979 -42.115296 117.70437 -42.69944 117.39505 -43.29745 L 115.77468 -46.430173 C 115.16553 -47.60785 114.65936 -48.836 114.26183 -50.10089 L 112.98159 -54.174377 C 112.76681 -54.85775 112.58408 -55.55079 112.43399 -56.25122 L 112.35925 -56.6 C 112.16458 -57.508426 112.27185 -58.45557 112.66473 -59.29746 L 112.75925 -59.5 C 113.15372 -60.34531 114.1342 -60.74229 115.00565 -60.409554 Z" fill="url(#Obj_Gradient)"/>
        <path d="M 115.00565 -60.409554 L 123.1711 -57.291836 C 124.0291 -56.96424 124.90594 -56.68833 125.79692 -56.46558 L 139.5141 -53.036287 C 140.67576 -52.74587 141.85832 -52.54662 143.051 -52.44034 L 160.57715 -50.8786 C 161.165 -50.82622 161.75464 -50.796483 162.34478 -50.78946 L 177.8237 -50.605185 C 178.11404 -50.60173 178.40442 -50.60377 178.69469 -50.61131 L 193.118 -50.98594 C 193.47878 -50.99531 193.8393 -51.013174 194.19924 -51.03951 L 208.57053 -52.09107 C 209.56197 -52.163613 210.54766 -52.30036 211.5214 -52.50044 L 223.09436 -54.87845 C 224.13637 -55.09256 225.16226 -55.3787 226.16465 -55.734814 L 237.91664 -59.909864 C 239.00702 -60.29723 240.21021 -59.76646 240.65925 -58.7 L 240.65925 -58.7 C 241.1814 -57.459894 241.33338 -56.095146 241.09685 -54.77055 L 240.91637 -53.75986 C 240.6126 -52.058706 240.11806 -50.397204 239.44214 -48.80681 L 237.89892 -45.17569 C 237.34035 -43.86142 236.6606 -42.602025 235.86846 -41.41382 L 232.18268 -35.88515 C 231.43517 -34.763886 230.59057 -33.710487 229.6586 -32.73711 L 223.36354 -26.162263 C 222.49547 -25.25561 221.55463 -24.421538 220.55046 -23.668407 L 212.17555 -17.387229 C 211.29914 -16.729916 210.37688 -16.13606 209.41582 -15.610197 L 202.23062 -11.678672 C 200.9195 -10.961265 199.54156 -10.373362 198.11638 -9.923302 L 191.44347 -7.816068 C 189.7266 -7.273897 187.952 -6.9351955 186.15613 -6.806919 L 179.26968 -6.31503 C 178.19738 -6.238437 177.12103 -6.237118 176.04854 -6.311082 L 167.61229 -6.892893 C 166.57811 -6.9642156 165.54994 -7.105373 164.5348 -7.315401 L 157.3996 -8.79165 C 155.44765 -9.195503 153.55647 -9.851386 151.77362 -10.742815 L 147.1142 -13.072519 C 145.88007 -13.689587 144.70397 -14.41646 143.60012 -15.244345 L 137.91816 -19.505813 C 137.47903 -19.835165 137.05182 -20.180132 136.63737 -20.540052 L 130.88219 -25.537972 C 130.0679 -26.245115 129.30436 -27.008655 128.59722 -27.82294 L 124.192 -32.895624 C 123.43789 -33.763985 122.74998 -34.687685 122.13406 -35.65895 L 118.40036 -41.54671 C 118.03979 -42.115296 117.70437 -42.69944 117.39505 -43.29745 L 115.77468 -46.430173 C 115.16553 -47.60785 114.65936 -48.836 114.26183 -50.10089 L 112.98159 -54.174377 C 112.76681 -54.85775 112.58408 -55.55079 112.43399 -56.25122 L 112.35925 -56.6 C 112.16458 -57.508426 112.27185 -58.45557 112.66473 -59.29746 L 112.75925 -59.5 C 113.15372 -60.34531 114.1342 -60.74229 115.00565 -60.409554 Z" stroke="#7f8080" stroke-linecap="round" stroke-linejoin="round" stroke-width="1"/>
      </g>
      <g id="Graphic_19">
        <path d="M 49.33006 377.17293 L 63.0723 379.4633 C 63.25568 379.49387 63.43957 379.52123 63.6239 379.5454 L 91.97754 383.2607 C 92.22407 383.293 92.47132 383.31955 92.71908 383.34033 L 122.96197 385.87683 C 123.21888 385.89837 123.47627 385.9137 123.73391 385.9228 L 162.66482 387.29916 C 162.85318 387.3058 163.04165 387.30915 163.23013 387.30915 L 194.69745 387.30915 C 194.86406 387.30915 195.03067 387.30655 195.1972 387.30134 L 220.232 386.519 C 220.44224 386.51244 220.65233 386.5017 220.86215 386.48687 L 242.9099 384.92596 C 243.06822 384.91476 243.22636 384.9012 243.38427 384.8853 L 268.64475 382.33965 C 268.8465 382.3193 269.04783 382.29516 269.24865 382.26717 L 293.04134 378.9518 C 293.24535 378.92337 293.4488 378.891 293.65156 378.8547 L 302.8474 377.20915 C 308.1745 376.2559 311.82536 371.30223 311.15895 365.9317 L 308.95136 348.14113 C 308.9487 348.1198 308.9461 348.0985 308.94355 348.07716 L 305.37973 318.37863 C 305.35817 318.199 305.33966 318.019 305.3242 317.83873 L 302.962 290.2795 C 302.95226 290.16594 302.94374 290.05227 302.93643 289.9385 L 301.5498 268.34687 C 301.5482 268.32172 301.54652 268.29658 301.5448 268.27144 L 299.95263 245.18513 C 299.94914 245.13448 299.9459 245.0838 299.94287 245.03312 L 298.7665 225.23095 C 298.75376 225.01644 298.74534 224.8017 298.74125 224.58684 L 298.34897 203.992 C 298.3479 203.93677 298.34658 203.88154 298.34495 203.82632 L 297.74983 183.59198 C 297.7482 183.53676 297.74686 183.48153 297.7458 183.4263 L 297.35515 162.91676 C 297.34998 162.64506 297.35173 162.37328 297.3604 162.10167 L 297.94634 143.74206 C 297.94704 143.72012 297.9478 143.69818 297.94857 143.67624 L 298.73666 121.80693 C 298.7438 121.60842 298.75466 121.41007 298.7692 121.21197 L 300.32668 99.99135 C 300.3405 99.80323 300.35096 99.61488 300.3581 99.42638 L 301.11256 79.52752 C 301.13576 78.91577 301.19404 78.30586 301.28713 77.7008 L 304.02613 59.89728 C 304.1069 59.37218 304.2138 58.85143 304.3464 58.33697 L 308.97466 40.37932 C 309.08976 39.932745 309.2241 39.491357 309.37734 39.05639 L 315.09812 22.81675 C 315.2642 22.345273 315.4523 21.881838 315.66178 21.42797 L 321.19333 9.442931 C 321.29602 9.220437 321.4038 9.00033 321.5166 8.782787 L 326.87883 -1.5586384 C 326.92454 -1.6467808 326.97106 -1.734496 327.0184 -1.8217724 L 332.23437 -11.438735 C 332.97165 -12.798092 333.9213 -14.03099 335.0474 -15.090855 L 335.0474 -15.090855 C 335.72258 -15.726328 335.75478 -16.78883 335.1193 -17.464019 C 334.9948 -17.596295 334.84967 -17.70749 334.68955 -17.793267 L 331.4754 -19.515126 C 331.25676 -19.632263 331.0354 -19.7443 330.81155 -19.851144 L 322.95757 -23.599632 C 322.55096 -23.793694 322.13634 -23.970495 321.7148 -24.129563 L 312.03998 -27.780444 C 311.84494 -27.854044 311.64848 -27.923826 311.4507 -27.98975 L 298.75623 -32.22124 C 298.617 -32.26765 298.47716 -32.31214 298.3367 -32.3547 L 285.4532 -36.258796 C 285.38266 -36.28017 285.31227 -36.30203 285.24205 -36.324374 L 272.73805 -40.30292 C 272.34442 -40.428163 271.9558 -40.568604 271.57304 -40.723925 L 259.5971 -45.58373 C 258.76543 -45.921215 257.96364 -46.32808 257.2002 -46.80002 L 247.58096 -52.746466 C 247.42526 -52.84272 247.27122 -52.941636 247.1189 -53.043175 L 242.2288 -56.30324 C 241.24742 -56.9575 240.3761 -57.7634 239.6474 -58.690856 L 239.6474 -58.690856 C 239.54178 -58.82526 239.34722 -58.84861 239.21282 -58.743005 C 239.11007 -58.66228 239.0691 -58.52573 239.11042 -58.40177 L 239.2474 -57.990856 C 239.70664 -56.613104 239.8112 -55.14182 239.5514 -53.71297 L 239.15627 -51.5397 C 238.88506 -50.04804 238.4032 -48.602504 237.72519 -47.24645 L 236.19287 -44.181816 C 235.89617 -43.588417 235.56285 -43.014046 235.19484 -42.46203 L 231.99113 -37.656474 C 231.56253 -37.013573 231.08792 -36.402563 230.57104 -35.82824 L 226.009 -30.7593 C 225.96792 -30.71367 225.9266 -30.668278 225.885 -30.623124 L 219.89077 -24.115098 C 219.26303 -23.433558 218.57728 -22.807835 217.84125 -22.244984 L 212.81707 -18.402968 C 212.37093 -18.061796 211.90712 -17.744352 211.4276 -17.451955 L 204.94119 -13.49683 C 204.27953 -13.09338 203.58943 -12.738534 202.87635 -12.435094 L 195.76094 -9.40726 C 194.95327 -9.063573 194.1187 -8.78693 193.26566 -8.580132 L 189.1866 -7.59127 C 188.36177 -7.39131 187.52233 -7.257298 186.67624 -7.190501 L 180.97603 -6.740485 C 180.5571 -6.707411 180.13702 -6.690855 179.7168 -6.690855 L 172.68447 -6.690855 C 171.92737 -6.690855 171.17122 -6.744593 170.42173 -6.851663 L 162.47528 -7.98687 C 161.99027 -8.056157 161.5087 -8.147684 161.0321 -8.261162 L 155.07087 -9.680502 C 153.92538 -9.953237 152.8135 -10.35159 151.75543 -10.868322 L 145.47543 -13.9353 C 144.99038 -14.172185 144.51763 -14.433465 144.05899 -14.718138 L 139.84712 -17.332398 C 139.24795 -17.704296 138.67403 -18.1154 138.1291 -18.56302 L 133.683 -22.215179 C 133.4593 -22.39893 133.24063 -22.588717 133.02723 -22.784332 L 129.22489 -26.269813 C 128.77359 -26.6835 128.34641 -27.12275 127.94546 -27.58539 L 123.82671 -32.33779 C 123.50733 -32.706308 123.20496 -33.089234 122.92056 -33.48537 L 118.4909 -39.655246 C 117.99601 -40.34456 117.55674 -41.07215 117.17725 -41.831137 L 114.60078 -46.984064 C 114.56519 -47.05526 114.53012 -47.126715 114.49559 -47.19843 L 113.24739 -49.790856 C 112.39667 -51.557725 112.04115 -53.52226 112.21869 -55.475214 L 112.3989 -57.45747 C 112.4227 -57.71933 112.22972 -57.95091 111.96786 -57.97472 C 111.80546 -57.98948 111.64681 -57.920105 111.54739 -57.790856 L 111.54739 -57.790856 C 110.88394 -56.928375 110.10383 -56.1623 109.22945 -55.51461 L 105.33292 -52.62829 C 105.20924 -52.53667 105.08424 -52.446844 104.95796 -52.358833 L 100.33571 -49.137265 C 99.14898 -48.310146 97.85556 -47.64778 96.4908 -47.168273 L 91.88368 -45.549553 C 91.39311 -45.37719 90.91123 -45.181016 90.43976 -44.96173 L 83.59298 -41.77718 C 82.89682 -41.453383 82.17826 -41.180116 81.44286 -40.959497 L 70.57247 -37.69838 C 70.55575 -37.693364 70.53903 -37.68832 70.52233 -37.68325 L 59.55424 -34.35365 C 59.41634 -34.31179 59.27902 -34.268066 59.1423 -34.222494 L 46.22107 -29.915416 C 46.171946 -29.899042 46.122746 -29.882907 46.07347 -29.86701 L 34.70606 -26.200106 C 34.067576 -25.994143 33.442677 -25.748226 32.835064 -25.46381 L 24.9031 -21.750977 C 24.53276 -21.577626 24.1692 -21.390142 23.813224 -21.188938 L 17.86711 -17.828091 C 16.614076 -17.119855 16.17243 -15.52993 16.880667 -14.276897 C 16.957785 -14.140458 17.047052 -14.011254 17.147385 -13.890855 L 18.011496 -12.853922 C 18.766441 -11.947987 19.418917 -10.961367 19.957035 -9.912038 L 23.034173 -3.911619 C 23.109643 -3.7644518 23.18739 -3.6184637 23.267387 -3.4737074 L 27.22214 3.682512 C 27.30563 3.833591 27.386672 3.986011 27.46523 4.1397126 L 31.573535 12.1777 C 31.822604 12.66501 32.046507 13.164777 32.24436 13.675031 L 35.72713 22.65691 C 35.740633 22.691733 35.75426 22.72651 35.768005 22.761239 L 39.36433 31.846685 C 39.486337 32.154918 39.598736 32.466868 39.701365 32.782083 L 42.3232 40.83486 C 42.339323 40.884384 42.355205 40.933985 42.370844 40.983663 L 45.44289 50.741934 C 45.645684 51.386096 45.80749 52.04245 45.927337 52.70706 L 47.91265 63.71652 C 47.935806 63.84493 47.95739 63.973625 47.9774 64.10257 L 49.68327 75.09595 C 49.726006 75.37137 49.76154 75.64785 49.78983 75.92513 L 50.67725 84.62184 C 50.723986 85.07983 50.75093 85.53962 50.75801 85.99994 L 50.942253 97.97556 C 50.945674 98.19793 50.95373 98.4202 50.96642 98.64223 L 51.736794 112.12379 C 51.743855 112.24736 51.75235 112.37084 51.762275 112.4942 L 53.095845 129.06858 C 53.13019 129.49545 53.147385 129.92353 53.147385 130.35179 L 53.147385 142.80157 C 53.147385 143.0066 53.151326 143.21162 53.159207 143.4165 L 53.73956 158.50564 C 53.744776 158.6413 53.74827 158.77703 53.75003 158.9128 L 53.94219 173.70905 C 53.94565 173.97574 53.94245 174.24248 53.932576 174.509 L 53.35835 190.01316 C 53.35104 190.21047 53.347385 190.4079 53.347385 190.60534 L 53.347385 204.20157 C 53.347385 204.4066 53.343444 204.61162 53.335564 204.8165 L 52.75037 220.0315 C 52.74838 220.08327 52.74614 220.13502 52.743645 220.18676 L 51.94832 236.6897 C 51.9477 236.70266 51.94706 236.71563 51.9464 236.7286 L 51.15191 252.41976 C 51.148894 252.47935 51.145543 252.53893 51.14186 252.59848 L 49.95295 271.8192 C 49.94924 271.87917 49.945193 271.9391 49.94081 271.99902 L 48.15767 296.36857 C 48.150814 296.4623 48.14313 296.55594 48.134623 296.64953 L 46.34873 316.29434 C 46.347834 316.3042 46.34693 316.3141 46.34601 316.32396 L 44.575247 335.40886 C 44.556674 335.60904 44.53433 335.80884 44.508227 336.00818 L 42.547514 350.9809 C 42.414703 351.9951 42.14556 352.9867 41.747385 353.92888 L 41.747385 353.92888 C 41.34981 354.86962 41.10114 355.86654 41.010317 356.8838 L 40.247385 365.42888 C 39.73963 371.1159 43.698094 376.23427 49.33006 377.17293 Z" fill="red"/>
        <path d="M 49.33006 377.17293 L 63.0723 379.4633 C 63.25568 379.49387 63.43957 379.52123 63.6239 379.5454 L 91.97754 383.2607 C 92.22407 383.293 92.47132 383.31955 92.71908 383.34033 L 122.96197 385.87683 C 123.21888 385.89837 123.47627 385.9137 123.73391 385.9228 L 162.66482 387.29916 C 162.85318 387.3058 163.04165 387.30915 163.23013 387.30915 L 194.69745 387.30915 C 194.86406 387.30915 195.03067 387.30655 195.1972 387.30134 L 220.232 386.519 C 220.44224 386.51244 220.65233 386.5017 220.86215 386.48687 L 242.9099 384.92596 C 243.06822 384.91476 243.22636 384.9012 243.38427 384.8853 L 268.64475 382.33965 C 268.8465 382.3193 269.04783 382.29516 269.24865 382.26717 L 293.04134 378.9518 C 293.24535 378.92337 293.4488 378.891 293.65156 378.8547 L 302.8474 377.20915 C 308.1745 376.2559 311.82536 371.30223 311.15895 365.9317 L 308.95136 348.14113 C 308.9487 348.1198 308.9461 348.0985 308.94355 348.07716 L 305.37973 318.37863 C 305.35817 318.199 305.33966 318.019 305.3242 317.83873 L 302.962 290.2795 C 302.95226 290.16594 302.94374 290.05227 302.93643 289.9385 L 301.5498 268.34687 C 301.5482 268.32172 301.54652 268.29658 301.5448 268.27144 L 299.95263 245.18513 C 299.94914 245.13448 299.9459 245.0838 299.94287 245.03312 L 298.7665 225.23095 C 298.75376 225.01644 298.74534 224.8017 298.74125 224.58684 L 298.34897 203.992 C 298.3479 203.93677 298.34658 203.88154 298.34495 203.82632 L 297.74983 183.59198 C 297.7482 183.53676 297.74686 183.48153 297.7458 183.4263 L 297.35515 162.91676 C 297.34998 162.64506 297.35173 162.37328 297.3604 162.10167 L 297.94634 143.74206 C 297.94704 143.72012 297.9478 143.69818 297.94857 143.67624 L 298.73666 121.80693 C 298.7438 121.60842 298.75466 121.41007 298.7692 121.21197 L 300.32668 99.99135 C 300.3405 99.80323 300.35096 99.61488 300.3581 99.42638 L 301.11256 79.52752 C 301.13576 78.91577 301.19404 78.30586 301.28713 77.7008 L 304.02613 59.89728 C 304.1069 59.37218 304.2138 58.85143 304.3464 58.33697 L 308.97466 40.37932 C 309.08976 39.932745 309.2241 39.491357 309.37734 39.05639 L 315.09812 22.81675 C 315.2642 22.345273 315.4523 21.881838 315.66178 21.42797 L 321.19333 9.442931 C 321.29602 9.220437 321.4038 9.00033 321.5166 8.782787 L 326.87883 -1.5586384 C 326.92454 -1.6467808 326.97106 -1.734496 327.0184 -1.8217724 L 332.23437 -11.438735 C 332.97165 -12.798092 333.9213 -14.03099 335.0474 -15.090855 L 335.0474 -15.090855 C 335.72258 -15.726328 335.75478 -16.78883 335.1193 -17.464019 C 334.9948 -17.596295 334.84967 -17.70749 334.68955 -17.793267 L 331.4754 -19.515126 C 331.25676 -19.632263 331.0354 -19.7443 330.81155 -19.851144 L 322.95757 -23.599632 C 322.55096 -23.793694 322.13634 -23.970495 321.7148 -24.129563 L 312.03998 -27.780444 C 311.84494 -27.854044 311.64848 -27.923826 311.4507 -27.98975 L 298.75623 -32.22124 C 298.617 -32.26765 298.47716 -32.31214 298.3367 -32.3547 L 285.4532 -36.258796 C 285.38266 -36.28017 285.31227 -36.30203 285.24205 -36.324374 L 272.73805 -40.30292 C 272.34442 -40.428163 271.9558 -40.568604 271.57304 -40.723925 L 259.5971 -45.58373 C 258.76543 -45.921215 257.96364 -46.32808 257.2002 -46.80002 L 247.58096 -52.746466 C 247.42526 -52.84272 247.27122 -52.941636 247.1189 -53.043175 L 242.2288 -56.30324 C 241.24742 -56.9575 240.3761 -57.7634 239.6474 -58.690856 L 239.6474 -58.690856 C 239.54178 -58.82526 239.34722 -58.84861 239.21282 -58.743005 C 239.11007 -58.66228 239.0691 -58.52573 239.11042 -58.40177 L 239.2474 -57.990856 C 239.70664 -56.613104 239.8112 -55.14182 239.5514 -53.71297 L 239.15627 -51.5397 C 238.88506 -50.04804 238.4032 -48.602504 237.72519 -47.24645 L 236.19287 -44.181816 C 235.89617 -43.588417 235.56285 -43.014046 235.19484 -42.46203 L 231.99113 -37.656474 C 231.56253 -37.013573 231.08792 -36.402563 230.57104 -35.82824 L 226.009 -30.7593 C 225.96792 -30.71367 225.9266 -30.668278 225.885 -30.623124 L 219.89077 -24.115098 C 219.26303 -23.433558 218.57728 -22.807835 217.84125 -22.244984 L 212.81707 -18.402968 C 212.37093 -18.061796 211.90712 -17.744352 211.4276 -17.451955 L 204.94119 -13.49683 C 204.27953 -13.09338 203.58943 -12.738534 202.87635 -12.435094 L 195.76094 -9.40726 C 194.95327 -9.063573 194.1187 -8.78693 193.26566 -8.580132 L 189.1866 -7.59127 C 188.36177 -7.39131 187.52233 -7.257298 186.67624 -7.190501 L 180.97603 -6.740485 C 180.5571 -6.707411 180.13702 -6.690855 179.7168 -6.690855 L 172.68447 -6.690855 C 171.92737 -6.690855 171.17122 -6.744593 170.42173 -6.851663 L 162.47528 -7.98687 C 161.99027 -8.056157 161.5087 -8.147684 161.0321 -8.261162 L 155.07087 -9.680502 C 153.92538 -9.953237 152.8135 -10.35159 151.75543 -10.868322 L 145.47543 -13.9353 C 144.99038 -14.172185 144.51763 -14.433465 144.05899 -14.718138 L 139.84712 -17.332398 C 139.24795 -17.704296 138.67403 -18.1154 138.1291 -18.56302 L 133.683 -22.215179 C 133.4593 -22.39893 133.24063 -22.588717 133.02723 -22.784332 L 129.22489 -26.269813 C 128.77359 -26.6835 128.34641 -27.12275 127.94546 -27.58539 L 123.82671 -32.33779 C 123.50733 -32.706308 123.20496 -33.089234 122.92056 -33.48537 L 118.4909 -39.655246 C 117.99601 -40.34456 117.55674 -41.07215 117.17725 -41.831137 L 114.60078 -46.984064 C 114.56519 -47.05526 114.53012 -47.126715 114.49559 -47.19843 L 113.24739 -49.790856 C 112.39667 -51.557725 112.04115 -53.52226 112.21869 -55.475214 L 112.3989 -57.45747 C 112.4227 -57.71933 112.22972 -57.95091 111.96786 -57.97472 C 111.80546 -57.98948 111.64681 -57.920105 111.54739 -57.790856 L 111.54739 -57.790856 C 110.88394 -56.928375 110.10383 -56.1623 109.22945 -55.51461 L 105.33292 -52.62829 C 105.20924 -52.53667 105.08424 -52.446844 104.95796 -52.358833 L 100.33571 -49.137265 C 99.14898 -48.310146 97.85556 -47.64778 96.4908 -47.168273 L 91.88368 -45.549553 C 91.39311 -45.37719 90.91123 -45.181016 90.43976 -44.96173 L 83.59298 -41.77718 C 82.89682 -41.453383 82.17826 -41.180116 81.44286 -40.959497 L 70.57247 -37.69838 C 70.55575 -37.693364 70.53903 -37.68832 70.52233 -37.68325 L 59.55424 -34.35365 C 59.41634 -34.31179 59.27902 -34.268066 59.1423 -34.222494 L 46.22107 -29.915416 C 46.171946 -29.899042 46.122746 -29.882907 46.07347 -29.86701 L 34.70606 -26.200106 C 34.067576 -25.994143 33.442677 -25.748226 32.835064 -25.46381 L 24.9031 -21.750977 C 24.53276 -21.577626 24.1692 -21.390142 23.813224 -21.188938 L 17.86711 -17.828091 C 16.614076 -17.119855 16.17243 -15.52993 16.880667 -14.276897 C 16.957785 -14.140458 17.047052 -14.011254 17.147385 -13.890855 L 18.011496 -12.853922 C 18.766441 -11.947987 19.418917 -10.961367 19.957035 -9.912038 L 23.034173 -3.911619 C 23.109643 -3.7644518 23.18739 -3.6184637 23.267387 -3.4737074 L 27.22214 3.682512 C 27.30563 3.833591 27.386672 3.986011 27.46523 4.1397126 L 31.573535 12.1777 C 31.822604 12.66501 32.046507 13.164777 32.24436 13.675031 L 35.72713 22.65691 C 35.740633 22.691733 35.75426 22.72651 35.768005 22.761239 L 39.36433 31.846685 C 39.486337 32.154918 39.598736 32.466868 39.701365 32.782083 L 42.3232 40.83486 C 42.339323 40.884384 42.355205 40.933985 42.370844 40.983663 L 45.44289 50.741934 C 45.645684 51.386096 45.80749 52.04245 45.927337 52.70706 L 47.91265 63.71652 C 47.935806 63.84493 47.95739 63.973625 47.9774 64.10257 L 49.68327 75.09595 C 49.726006 75.37137 49.76154 75.64785 49.78983 75.92513 L 50.67725 84.62184 C 50.723986 85.07983 50.75093 85.53962 50.75801 85.99994 L 50.942253 97.97556 C 50.945674 98.19793 50.95373 98.4202 50.96642 98.64223 L 51.736794 112.12379 C 51.743855 112.24736 51.75235 112.37084 51.762275 112.4942 L 53.095845 129.06858 C 53.13019 129.49545 53.147385 129.92353 53.147385 130.35179 L 53.147385 142.80157 C 53.147385 143.0066 53.151326 143.21162 53.159207 143.4165 L 53.73956 158.50564 C 53.744776 158.6413 53.74827 158.77703 53.75003 158.9128 L 53.94219 173.70905 C 53.94565 173.97574 53.94245 174.24248 53.932576 174.509 L 53.35835 190.01316 C 53.35104 190.21047 53.347385 190.4079 53.347385 190.60534 L 53.347385 204.20157 C 53.347385 204.4066 53.343444 204.61162 53.335564 204.8165 L 52.75037 220.0315 C 52.74838 220.08327 52.74614 220.13502 52.743645 220.18676 L 51.94832 236.6897 C 51.9477 236.70266 51.94706 236.71563 51.9464 236.7286 L 51.15191 252.41976 C 51.148894 252.47935 51.145543 252.53893 51.14186 252.59848 L 49.95295 271.8192 C 49.94924 271.87917 49.945193 271.9391 49.94081 271.99902 L 48.15767 296.36857 C 48.150814 296.4623 48.14313 296.55594 48.134623 296.64953 L 46.34873 316.29434 C 46.347834 316.3042 46.34693 316.3141 46.34601 316.32396 L 44.575247 335.40886 C 44.556674 335.60904 44.53433 335.80884 44.508227 336.00818 L 42.547514 350.9809 C 42.414703 351.9951 42.14556 352.9867 41.747385 353.92888 L 41.747385 353.92888 C 41.34981 354.86962 41.10114 355.86654 41.010317 356.8838 L 40.247385 365.42888 C 39.73963 371.1159 43.698094 376.23427 49.33006 377.17293 Z" stroke="#7f8080" stroke-linecap="round" stroke-linejoin="round" stroke-width="1"/>
      </g>
      <g id="Graphic_18">
        <path d="M -38 90.44615 L -31.8 94.84615 L -23.6 98.84615 L -15 102.44615 L -5.9999995 106.24615 L 5.0000006 110.24615 L 14.4 113.04615 L 23.4 115.64615 L 32.4 118.24615 L 37.8 119.64615 L 43.4 120.64615 L 45.8 114.84615 L 48.4 109.44615 L 50.6 105.44615 L 53.2 102.04615 L 53.4 93.04615 L 52.8 82.04615 L 51 71.246145 L 49.4 60.846145 L 46.8 49.846145 L 44.4 40.246145 L 41.6 32.246145 L 38.4 22.846145 L 35.6 15.446144 L 32 7.846144 L 28 .24614425 L 24 -7.153856 L 21.4 -10.753856 L 17.8 -16.553856 L 12.400001 -12.153856 L 7.600001 -7.353856 L 3.0000006 -1.1538558 L -1.3999995 5.0461443 L -6.1999995 13.646144 L -11 23.046145 L -15.8 32.246145 L -19.4 40.846145 L -23.4 49.846145 L -26.6 58.046145 L -30.4 67.446145 L -33.2 75.446145 L -36.2 83.84615 Z" fill="yellow"/>
        <path d="M -38 90.44615 L -31.8 94.84615 L -23.6 98.84615 L -15 102.44615 L -5.9999995 106.24615 L 5.0000006 110.24615 L 14.4 113.04615 L 23.4 115.64615 L 32.4 118.24615 L 37.8 119.64615 L 43.4 120.64615 L 45.8 114.84615 L 48.4 109.44615 L 50.6 105.44615 L 53.2 102.04615 L 53.4 93.04615 L 52.8 82.04615 L 51 71.246145 L 49.4 60.846145 L 46.8 49.846145 L 44.4 40.246145 L 41.6 32.246145 L 38.4 22.846145 L 35.6 15.446144 L 32 7.846144 L 28 .24614425 L 24 -7.153856 L 21.4 -10.753856 L 17.8 -16.553856 L 12.400001 -12.153856 L 7.600001 -7.353856 L 3.0000006 -1.1538558 L -1.3999995 5.0461443 L -6.1999995 13.646144 L -11 23.046145 L -15.8 32.246145 L -19.4 40.846145 L -23.4 49.846145 L -26.6 58.046145 L -30.4 67.446145 L -33.2 75.446145 L -36.2 83.84615 Z" stroke="#7f8080" stroke-linecap="round" stroke-linejoin="round" stroke-width="1"/>
      </g>
      <g id="Graphic_17">
        <path d="M 393.4053 89.50275 L 387.2053 93.90275 L 379.0053 97.90275 L 370.4053 101.50275 L 361.4053 105.30275 L 350.4053 109.30275 L 341.0053 112.10275 L 332.0053 114.70275 L 323.0053 117.30275 L 317.6053 118.70275 L 312.0053 119.70275 L 309.6053 113.90275 L 307.0053 108.50275 L 304.8053 104.50275 L 300.2 97.4 L 300.4 90.4 L 302 79.6 L 303 68.599995 L 305.4 57.599995 L 307.8 47.199995 L 310.8 37.799995 L 313.6 28.999995 L 317.0053 21.902748 L 319.8053 14.502748 L 323.4053 6.902748 L 327.4053 -.697252 L 331.4053 -8.097252 L 334.0053 -11.697252 L 337.6053 -17.497252 L 343.0053 -13.097252 L 347.8053 -8.297252 L 352.4053 -2.097252 L 356.8053 4.102748 L 361.6053 12.702748 L 366.4053 22.102748 L 371.2053 31.30275 L 374.8053 39.90275 L 378.8053 48.90275 L 382.0053 57.10275 L 385.8053 66.50275 L 388.6053 74.50275 L 391.6053 82.90275 Z" fill="yellow"/>
        <path d="M 393.4053 89.50275 L 387.2053 93.90275 L 379.0053 97.90275 L 370.4053 101.50275 L 361.4053 105.30275 L 350.4053 109.30275 L 341.0053 112.10275 L 332.0053 114.70275 L 323.0053 117.30275 L 317.6053 118.70275 L 312.0053 119.70275 L 309.6053 113.90275 L 307.0053 108.50275 L 304.8053 104.50275 L 300.2 97.4 L 300.4 90.4 L 302 79.6 L 303 68.599995 L 305.4 57.599995 L 307.8 47.199995 L 310.8 37.799995 L 313.6 28.999995 L 317.0053 21.902748 L 319.8053 14.502748 L 323.4053 6.902748 L 327.4053 -.697252 L 331.4053 -8.097252 L 334.0053 -11.697252 L 337.6053 -17.497252 L 343.0053 -13.097252 L 347.8053 -8.297252 L 352.4053 -2.097252 L 356.8053 4.102748 L 361.6053 12.702748 L 366.4053 22.102748 L 371.2053 31.30275 L 374.8053 39.90275 L 378.8053 48.90275 L 382.0053 57.10275 L 385.8053 66.50275 L 388.6053 74.50275 L 391.6053 82.90275 Z" stroke="#7f8080" stroke-linecap="round" stroke-linejoin="round" stroke-width="1"/>
      </g>
      <g id="Graphic_16">
        <path d="M 112.57212 -59.03621 L 107.84295 -54.98264 C 106.6926 -53.996625 105.44764 -53.12669 104.12621 -52.385515 L 101.59958 -50.96835 C 100.16441 -50.16338 99.5836 -48.39425 100.26239 -46.895265 L 101.28 -44.64803 C 101.40158 -44.379545 101.52831 -44.11342 101.66012 -43.849804 L 105.94938 -35.271293 C 106.29117 -34.5877 106.66683 -33.921566 107.07495 -33.275375 L 109.40134 -29.59192 C 109.84172 -28.894655 110.31928 -28.22158 110.83195 -27.575613 L 114.24264 -23.278153 C 114.78869 -22.590125 115.37371 -21.933944 115.99482 -21.312833 L 120.66087 -16.64679 C 121.06175 -16.24591 121.47731 -15.859989 121.90671 -15.489817 L 126.47023 -11.555744 C 126.86489 -11.215522 127.271 -10.88881 127.68785 -10.576173 L 131.66279 -7.594968 C 132.3287 -7.0955334 133.02123 -6.632617 133.73733 -6.2082625 L 137.8704 -3.75904 C 137.99839 -3.683191 138.12712 -3.608586 138.25656 -3.535235 L 142.9541 -.8732919 C 143.6924 -.4549271 144.45328 -.07774189 145.23325 .2565335 L 148.78307 1.7778834 C 149.36903 2.02901 149.96518 2.2556658 150.56997 2.4572635 L 155.58808 4.1299657 C 156.83532 4.545714 158.11592 4.8537556 159.4158 5.0507064 L 163.51464 5.671744 C 163.87976 5.727064 164.24615 5.773583 164.6135 5.8112604 L 171.4946 6.5170146 C 171.73978 6.542161 171.98534 6.5633645 172.2312 6.5806175 L 176.75835 6.8983104 C 177.2942 6.935915 177.83122 6.954734 178.3684 6.954734 L 181.63046 6.954736 C 182.58416 6.954736 183.53693 6.895419 184.48327 6.777127 L 188.47198 6.2785374 C 189.13195 6.196042 189.78802 6.084959 190.43835 5.945602 L 196.52039 4.642309 C 197.41426 4.450764 198.29592 4.206097 199.16068 3.9096103 L 203.66952 2.3637194 C 204.46417 2.0912685 205.2433 1.7754865 206.0034 1.4177928 L 210.83677 -.8567373 C 211.38697 -1.1156531 211.92668 -1.3962863 212.45464 -1.6979752 L 216.2225 -3.851042 C 216.9153 -4.2469217 217.58701 -4.678585 218.23494 -5.1442806 L 222.91106 -8.505246 C 223.41175 -8.865112 223.89776 -9.244967 224.36792 -9.64389 L 229.68877 -14.158555 C 230.07108 -14.482941 230.44269 -14.819741 230.80298 -15.168416 L 235.5022 -19.716044 C 236.1418 -20.335002 236.7449 -20.990565 237.30852 -21.679424 L 241.1018 -26.315658 C 241.60852 -26.934974 242.08257 -27.58031 242.52201 -28.249036 L 246.1392 -33.753436 C 246.35462 -34.081268 246.56163 -34.414558 246.76002 -34.75298 L 249.2831 -39.057076 C 249.66906 -39.71546 250.022 -40.392646 250.34062 -41.08612 L 252.45932 -45.69739 C 252.99218 -46.85715 253.36334 -48.084564 253.5624 -49.345265 L 253.5624 -49.345265 C 253.7407 -50.474526 253.1614 -51.587974 252.13432 -52.0901 L 246.84088 -54.678005 C 245.52642 -55.32063 244.29183 -56.11514 243.1624 -57.045265 L 242.75638 -57.379625 C 241.91205 -58.074957 241.28864 -59.00126 240.9624 -60.045265 L 240.9624 -60.045265 C 240.91573 -60.19458 240.75686 -60.2778 240.60754 -60.23114 C 240.49247 -60.19518 240.41277 -60.090315 240.40892 -59.96981 L 240.29968 -56.54689 C 240.20894 -53.703814 239.5916 -50.902236 238.479 -48.28433 L 237.60206 -46.22096 C 237.0435 -44.906686 236.36374 -43.64729 235.5716 -42.45909 L 231.88582 -36.930416 C 231.1383 -35.80915 230.2937 -34.755752 229.36175 -33.782376 L 223.06668 -27.20753 C 222.1986 -26.300875 221.25777 -25.466804 220.2536 -24.713673 L 211.8787 -18.432495 C 211.00228 -17.775182 210.08002 -17.181326 209.11896 -16.655463 L 201.93376 -12.723938 C 200.62263 -12.006531 199.2447 -11.418628 197.81952 -10.968568 L 191.1466 -8.861334 C 189.42973 -8.319163 187.65514 -7.980461 185.85927 -7.852185 L 178.97281 -7.360296 C 177.90052 -7.283703 176.82417 -7.282384 175.75168 -7.356348 L 167.31543 -7.938159 C 166.28125 -8.0094815 165.25308 -8.150639 164.23795 -8.360667 L 157.10274 -9.836916 C 155.15079 -10.240769 153.25961 -10.896652 151.47676 -11.78808 L 146.81735 -14.117785 C 145.58321 -14.734853 144.4071 -15.461726 143.30326 -16.28961 L 137.6213 -20.55108 C 137.18217 -20.88043 136.75496 -21.225398 136.34051 -21.585317 L 130.58533 -26.583238 C 129.77104 -27.29038 129.0075 -28.05392 128.30036 -28.868206 L 123.89513 -33.94089 C 123.14103 -34.80925 122.45312 -35.73295 121.8372 -36.704217 L 118.1035 -42.59198 C 117.74293 -43.16056 117.4075 -43.744705 117.09819 -44.342717 L 115.47781 -47.47544 C 114.86867 -48.65312 114.3625 -49.881264 113.96497 -51.146155 L 112.68473 -55.21964 C 112.46995 -55.90302 112.28722 -56.596055 112.13713 -57.296485 L 111.91171 -58.34843 C 111.82664 -58.74544 112.05299 -59.143094 112.4378 -59.27263 L 112.4378 -59.27263 C 112.51029 -59.29704 112.58884 -59.25805 112.61325 -59.18556 C 112.63126 -59.132046 112.61499 -59.07296 112.57212 -59.03621 Z" fill="yellow"/>
        <path d="M 112.57212 -59.03621 L 107.84295 -54.98264 C 106.6926 -53.996625 105.44764 -53.12669 104.12621 -52.385515 L 101.59958 -50.96835 C 100.16441 -50.16338 99.5836 -48.39425 100.26239 -46.895265 L 101.28 -44.64803 C 101.40158 -44.379545 101.52831 -44.11342 101.66012 -43.849804 L 105.94938 -35.271293 C 106.29117 -34.5877 106.66683 -33.921566 107.07495 -33.275375 L 109.40134 -29.59192 C 109.84172 -28.894655 110.31928 -28.22158 110.83195 -27.575613 L 114.24264 -23.278153 C 114.78869 -22.590125 115.37371 -21.933944 115.99482 -21.312833 L 120.66087 -16.64679 C 121.06175 -16.24591 121.47731 -15.859989 121.90671 -15.489817 L 126.47023 -11.555744 C 126.86489 -11.215522 127.271 -10.88881 127.68785 -10.576173 L 131.66279 -7.594968 C 132.3287 -7.0955334 133.02123 -6.632617 133.73733 -6.2082625 L 137.8704 -3.75904 C 137.99839 -3.683191 138.12712 -3.608586 138.25656 -3.535235 L 142.9541 -.8732919 C 143.6924 -.4549271 144.45328 -.07774189 145.23325 .2565335 L 148.78307 1.7778834 C 149.36903 2.02901 149.96518 2.2556658 150.56997 2.4572635 L 155.58808 4.1299657 C 156.83532 4.545714 158.11592 4.8537556 159.4158 5.0507064 L 163.51464 5.671744 C 163.87976 5.727064 164.24615 5.773583 164.6135 5.8112604 L 171.4946 6.5170146 C 171.73978 6.542161 171.98534 6.5633645 172.2312 6.5806175 L 176.75835 6.8983104 C 177.2942 6.935915 177.83122 6.954734 178.3684 6.954734 L 181.63046 6.954736 C 182.58416 6.954736 183.53693 6.895419 184.48327 6.777127 L 188.47198 6.2785374 C 189.13195 6.196042 189.78802 6.084959 190.43835 5.945602 L 196.52039 4.642309 C 197.41426 4.450764 198.29592 4.206097 199.16068 3.9096103 L 203.66952 2.3637194 C 204.46417 2.0912685 205.2433 1.7754865 206.0034 1.4177928 L 210.83677 -.8567373 C 211.38697 -1.1156531 211.92668 -1.3962863 212.45464 -1.6979752 L 216.2225 -3.851042 C 216.9153 -4.2469217 217.58701 -4.678585 218.23494 -5.1442806 L 222.91106 -8.505246 C 223.41175 -8.865112 223.89776 -9.244967 224.36792 -9.64389 L 229.68877 -14.158555 C 230.07108 -14.482941 230.44269 -14.819741 230.80298 -15.168416 L 235.5022 -19.716044 C 236.1418 -20.335002 236.7449 -20.990565 237.30852 -21.679424 L 241.1018 -26.315658 C 241.60852 -26.934974 242.08257 -27.58031 242.52201 -28.249036 L 246.1392 -33.753436 C 246.35462 -34.081268 246.56163 -34.414558 246.76002 -34.75298 L 249.2831 -39.057076 C 249.66906 -39.71546 250.022 -40.392646 250.34062 -41.08612 L 252.45932 -45.69739 C 252.99218 -46.85715 253.36334 -48.084564 253.5624 -49.345265 L 253.5624 -49.345265 C 253.7407 -50.474526 253.1614 -51.587974 252.13432 -52.0901 L 246.84088 -54.678005 C 245.52642 -55.32063 244.29183 -56.11514 243.1624 -57.045265 L 242.75638 -57.379625 C 241.91205 -58.074957 241.28864 -59.00126 240.9624 -60.045265 L 240.9624 -60.045265 C 240.91573 -60.19458 240.75686 -60.2778 240.60754 -60.23114 C 240.49247 -60.19518 240.41277 -60.090315 240.40892 -59.96981 L 240.29968 -56.54689 C 240.20894 -53.703814 239.5916 -50.902236 238.479 -48.28433 L 237.60206 -46.22096 C 237.0435 -44.906686 236.36374 -43.64729 235.5716 -42.45909 L 231.88582 -36.930416 C 231.1383 -35.80915 230.2937 -34.755752 229.36175 -33.782376 L 223.06668 -27.20753 C 222.1986 -26.300875 221.25777 -25.466804 220.2536 -24.713673 L 211.8787 -18.432495 C 211.00228 -17.775182 210.08002 -17.181326 209.11896 -16.655463 L 201.93376 -12.723938 C 200.62263 -12.006531 199.2447 -11.418628 197.81952 -10.968568 L 191.1466 -8.861334 C 189.42973 -8.319163 187.65514 -7.980461 185.85927 -7.852185 L 178.97281 -7.360296 C 177.90052 -7.283703 176.82417 -7.282384 175.75168 -7.356348 L 167.31543 -7.938159 C 166.28125 -8.0094815 165.25308 -8.150639 164.23795 -8.360667 L 157.10274 -9.836916 C 155.15079 -10.240769 153.25961 -10.896652 151.47676 -11.78808 L 146.81735 -14.117785 C 145.58321 -14.734853 144.4071 -15.461726 143.30326 -16.28961 L 137.6213 -20.55108 C 137.18217 -20.88043 136.75496 -21.225398 136.34051 -21.585317 L 130.58533 -26.583238 C 129.77104 -27.29038 129.0075 -28.05392 128.30036 -28.868206 L 123.89513 -33.94089 C 123.14103 -34.80925 122.45312 -35.73295 121.8372 -36.704217 L 118.1035 -42.59198 C 117.74293 -43.16056 117.4075 -43.744705 117.09819 -44.342717 L 115.47781 -47.47544 C 114.86867 -48.65312 114.3625 -49.881264 113.96497 -51.146155 L 112.68473 -55.21964 C 112.46995 -55.90302 112.28722 -56.596055 112.13713 -57.296485 L 111.91171 -58.34843 C 111.82664 -58.74544 112.05299 -59.143094 112.4378 -59.27263 L 112.4378 -59.27263 C 112.51029 -59.29704 112.58884 -59.25805 112.61325 -59.18556 C 112.63126 -59.132046 112.61499 -59.07296 112.57212 -59.03621 Z" stroke="#7f8080" stroke-linecap="round" stroke-linejoin="round" stroke-width="1"/>
      </g>
      <g id="Graphic_15">
        <path d="M 112.05925 -59.24411 L 117.45925 -59.84411 L 124.25925 -56.44411 L 129.25925 -54.64411 L 137.65925 -52.84411 L 146.05925 -51.84411 L 154.05925 -50.84411 L 161.65925 -50.64411 L 170.25925 -50.24411 L 181.85925 -50.44411 L 190.25925 -50.84411 L 199.65925 -51.44411 L 208.05925 -52.24411 L 217.25925 -53.64411 L 225.45925 -55.84411 L 231.25925 -57.64411 L 236.85925 -60.24411 L 239.65925 -59.04411 L 240.05925 -53.44411 L 237.25925 -45.44411 L 231.85925 -42.644107 L 221.25925 -39.444107 L 209.85925 -37.044107 L 198.65925 -36.244107 L 186.25925 -35.244107 L 175.85925 -35.244107 L 166.45925 -35.244107 L 154.85925 -35.844107 L 143.65925 -36.644107 L 133.05925 -38.844107 L 124.45925 -40.844107 L 118.25925 -43.64411 L 116.25925 -45.24411 L 113.05925 -52.84411 Z" fill="yellow"/>
        <path d="M 112.05925 -59.24411 L 117.45925 -59.84411 L 124.25925 -56.44411 L 129.25925 -54.64411 L 137.65925 -52.84411 L 146.05925 -51.84411 L 154.05925 -50.84411 L 161.65925 -50.64411 L 170.25925 -50.24411 L 181.85925 -50.44411 L 190.25925 -50.84411 L 199.65925 -51.44411 L 208.05925 -52.24411 L 217.25925 -53.64411 L 225.45925 -55.84411 L 231.25925 -57.64411 L 236.85925 -60.24411 L 239.65925 -59.04411 L 240.05925 -53.44411 L 237.25925 -45.44411 L 231.85925 -42.644107 L 221.25925 -39.444107 L 209.85925 -37.044107 L 198.65925 -36.244107 L 186.25925 -35.244107 L 175.85925 -35.244107 L 166.45925 -35.244107 L 154.85925 -35.844107 L 143.65925 -36.644107 L 133.05925 -38.844107 L 124.45925 -40.844107 L 118.25925 -43.64411 L 116.25925 -45.24411 L 113.05925 -52.84411 Z" stroke="#7f8080" stroke-linecap="round" stroke-linejoin="round" stroke-width="1"/>
      </g>
      <g id="Graphic_14">
        <path d="M 41.813213 367.2 L 41.813213 367.2 C 41.74753 367.7255 41.810355 368.25905 41.9963 368.7549 L 42.647306 370.49092 C 42.82406 370.96227 43.051147 371.4132 43.32462 371.8358 L 44.292434 373.33153 C 44.83339 374.16756 45.546494 374.87855 46.38412 375.417 L 47.46217 376.11005 C 47.762426 376.30307 48.077006 376.47285 48.403157 376.6179 L 49.72001 377.2035 C 50.31654 377.46876 50.947246 377.6493 51.59379 377.7398 L 60.60421 379.00126 C 60.61421 379.00265 60.6242 379.00403 60.6342 379.0054 L 72.3502 380.594 C 72.3962 380.60024 72.44226 380.606 72.48838 380.61134 L 82.77131 381.79783 C 82.80324 381.8015 82.83519 381.80498 82.86716 381.8082 L 96.57723 383.1991 C 96.60521 383.20193 96.63321 383.2046 96.66123 383.2071 L 107.76653 384.19865 C 107.80164 384.2018 107.83679 384.20466 107.87195 384.20726 L 118.55848 384.99886 C 118.59896 385.00185 118.63947 385.0045 118.68 385.0068 L 129.18798 385.6016 C 129.2088 385.60276 129.22961 385.60404 129.25042 385.6054 L 141.2932 386.3951 C 141.3772 386.4006 141.46129 386.4046 141.54543 386.40707 L 154.99256 386.80257 C 155.01032 386.8031 155.02809 386.8037 155.04585 386.80434 L 165.6897 387.19856 C 165.77603 387.20176 165.8624 387.20335 165.9488 387.20335 L 176.5578 387.20335 C 176.59874 387.20335 176.63967 387.2037 176.6806 387.20443 L 187.76702 387.39893 C 187.93509 387.4019 188.1032 387.39877 188.27106 387.3896 L 198.8923 386.81028 C 198.9769 386.80566 199.06157 386.8026 199.1463 386.80104 L 209.91085 386.60532 C 209.98308 386.604 210.0553 386.6016 210.12745 386.59803 L 222.14607 386.00695 C 222.19483 386.00455 222.24355 386.00165 222.29225 385.99823 L 233.5323 385.20945 C 233.59023 385.2054 233.64812 385.2006 233.70594 385.1951 L 246.1165 384.01313 C 246.18497 384.0066 246.25352 384.0011 246.32214 383.9966 L 258.25416 383.21418 C 258.36418 383.20696 258.474 383.19715 258.58355 383.18475 L 268.9959 382.006 C 269.01144 382.00423 269.02697 382.0024 269.0425 382.00056 L 278.9902 380.80683 C 279.00954 380.8045 279.02886 380.8021 279.04818 380.79963 L 292.88394 379.0221 C 292.98115 379.0096 293.0781 378.99507 293.1747 378.9785 L 299.7282 377.85506 C 299.92915 377.8206 300.13153 377.79495 300.33473 377.77817 L 303.56706 377.5112 C 304.4563 377.43775 305.3233 377.19497 306.12135 376.79594 L 307.60765 376.0528 C 308.20824 375.7525 308.7625 375.36735 309.25338 374.9092 L 310.5885 373.6631 C 311.1953 373.0967 311.65073 372.38747 311.9132 371.6 L 312.20805 370.71552 C 312.27812 370.5053 312.33817 370.29187 312.388 370.07595 L 312.8577 368.04056 C 312.89293 367.88792 312.8595 367.72752 312.7662 367.6017 L 312.7662 367.6017 C 312.67587 367.4798 312.52523 367.4183 312.3754 367.44214 L 303.89555 368.7912 C 303.84466 368.7993 303.79385 368.80796 303.74315 368.8172 L 290.7584 371.17805 C 290.6656 371.1949 290.5725 371.2099 290.4791 371.223 L 279.24943 372.7991 C 279.22928 372.80194 279.20914 372.80486 279.18902 372.80786 L 266.06643 374.76645 C 265.90167 374.79105 265.73608 374.80975 265.56998 374.82253 L 252.84517 375.80136 C 252.82786 375.8027 252.81055 375.80396 252.79323 375.80516 L 238.45308 376.801 C 238.4305 376.80257 238.4079 376.80403 238.3853 376.8054 L 225.08205 377.5996 C 225.04016 377.6021 224.99824 377.60423 224.9563 377.60597 L 210.76485 378.1973 C 210.66776 378.20133 210.5706 378.20335 210.47344 378.20335 L 184.67753 378.20335 C 184.63865 378.20335 184.59976 378.2037 184.56088 378.20433 L 172.8025 378.4003 C 172.68032 378.40234 172.55812 378.40117 172.436 378.3968 L 161.6024 378.0099 C 161.4803 378.00554 161.35809 378.00437 161.23591 378.0064 L 149.52127 378.20165 C 149.45323 378.2028 149.38518 378.20293 149.31713 378.2021 L 133.61484 378.0058 C 133.48444 378.00417 133.35411 377.9989 133.224 377.99 L 118.91423 377.00986 C 118.85088 377.00552 118.7876 377.00032 118.72439 376.99426 L 104.23339 375.6047 C 104.22393 375.6038 104.21448 375.6029 104.20503 375.60194 L 90.39299 374.22073 C 90.27715 374.20915 90.16162 374.19468 90.0465 374.17733 L 75.73735 372.02116 C 75.65859 372.0093 75.57964 371.99877 75.50052 371.9896 L 61.98059 370.42207 C 61.87301 370.4096 61.76574 370.39463 61.65886 370.37718 L 52.26677 368.84377 C 52.10178 368.81684 51.937805 368.784 51.775164 368.7453 L 42.697565 366.58654 C 42.309246 366.4942 41.91959 366.73412 41.82724 367.12244 C 41.82116 367.14802 41.816475 367.1739 41.813213 367.2 Z" fill="yellow"/>
        <path d="M 41.813213 367.2 L 41.813213 367.2 C 41.74753 367.7255 41.810355 368.25905 41.9963 368.7549 L 42.647306 370.49092 C 42.82406 370.96227 43.051147 371.4132 43.32462 371.8358 L 44.292434 373.33153 C 44.83339 374.16756 45.546494 374.87855 46.38412 375.417 L 47.46217 376.11005 C 47.762426 376.30307 48.077006 376.47285 48.403157 376.6179 L 49.72001 377.2035 C 50.31654 377.46876 50.947246 377.6493 51.59379 377.7398 L 60.60421 379.00126 C 60.61421 379.00265 60.6242 379.00403 60.6342 379.0054 L 72.3502 380.594 C 72.3962 380.60024 72.44226 380.606 72.48838 380.61134 L 82.77131 381.79783 C 82.80324 381.8015 82.83519 381.80498 82.86716 381.8082 L 96.57723 383.1991 C 96.60521 383.20193 96.63321 383.2046 96.66123 383.2071 L 107.76653 384.19865 C 107.80164 384.2018 107.83679 384.20466 107.87195 384.20726 L 118.55848 384.99886 C 118.59896 385.00185 118.63947 385.0045 118.68 385.0068 L 129.18798 385.6016 C 129.2088 385.60276 129.22961 385.60404 129.25042 385.6054 L 141.2932 386.3951 C 141.3772 386.4006 141.46129 386.4046 141.54543 386.40707 L 154.99256 386.80257 C 155.01032 386.8031 155.02809 386.8037 155.04585 386.80434 L 165.6897 387.19856 C 165.77603 387.20176 165.8624 387.20335 165.9488 387.20335 L 176.5578 387.20335 C 176.59874 387.20335 176.63967 387.2037 176.6806 387.20443 L 187.76702 387.39893 C 187.93509 387.4019 188.1032 387.39877 188.27106 387.3896 L 198.8923 386.81028 C 198.9769 386.80566 199.06157 386.8026 199.1463 386.80104 L 209.91085 386.60532 C 209.98308 386.604 210.0553 386.6016 210.12745 386.59803 L 222.14607 386.00695 C 222.19483 386.00455 222.24355 386.00165 222.29225 385.99823 L 233.5323 385.20945 C 233.59023 385.2054 233.64812 385.2006 233.70594 385.1951 L 246.1165 384.01313 C 246.18497 384.0066 246.25352 384.0011 246.32214 383.9966 L 258.25416 383.21418 C 258.36418 383.20696 258.474 383.19715 258.58355 383.18475 L 268.9959 382.006 C 269.01144 382.00423 269.02697 382.0024 269.0425 382.00056 L 278.9902 380.80683 C 279.00954 380.8045 279.02886 380.8021 279.04818 380.79963 L 292.88394 379.0221 C 292.98115 379.0096 293.0781 378.99507 293.1747 378.9785 L 299.7282 377.85506 C 299.92915 377.8206 300.13153 377.79495 300.33473 377.77817 L 303.56706 377.5112 C 304.4563 377.43775 305.3233 377.19497 306.12135 376.79594 L 307.60765 376.0528 C 308.20824 375.7525 308.7625 375.36735 309.25338 374.9092 L 310.5885 373.6631 C 311.1953 373.0967 311.65073 372.38747 311.9132 371.6 L 312.20805 370.71552 C 312.27812 370.5053 312.33817 370.29187 312.388 370.07595 L 312.8577 368.04056 C 312.89293 367.88792 312.8595 367.72752 312.7662 367.6017 L 312.7662 367.6017 C 312.67587 367.4798 312.52523 367.4183 312.3754 367.44214 L 303.89555 368.7912 C 303.84466 368.7993 303.79385 368.80796 303.74315 368.8172 L 290.7584 371.17805 C 290.6656 371.1949 290.5725 371.2099 290.4791 371.223 L 279.24943 372.7991 C 279.22928 372.80194 279.20914 372.80486 279.18902 372.80786 L 266.06643 374.76645 C 265.90167 374.79105 265.73608 374.80975 265.56998 374.82253 L 252.84517 375.80136 C 252.82786 375.8027 252.81055 375.80396 252.79323 375.80516 L 238.45308 376.801 C 238.4305 376.80257 238.4079 376.80403 238.3853 376.8054 L 225.08205 377.5996 C 225.04016 377.6021 224.99824 377.60423 224.9563 377.60597 L 210.76485 378.1973 C 210.66776 378.20133 210.5706 378.20335 210.47344 378.20335 L 184.67753 378.20335 C 184.63865 378.20335 184.59976 378.2037 184.56088 378.20433 L 172.8025 378.4003 C 172.68032 378.40234 172.55812 378.40117 172.436 378.3968 L 161.6024 378.0099 C 161.4803 378.00554 161.35809 378.00437 161.23591 378.0064 L 149.52127 378.20165 C 149.45323 378.2028 149.38518 378.20293 149.31713 378.2021 L 133.61484 378.0058 C 133.48444 378.00417 133.35411 377.9989 133.224 377.99 L 118.91423 377.00986 C 118.85088 377.00552 118.7876 377.00032 118.72439 376.99426 L 104.23339 375.6047 C 104.22393 375.6038 104.21448 375.6029 104.20503 375.60194 L 90.39299 374.22073 C 90.27715 374.20915 90.16162 374.19468 90.0465 374.17733 L 75.73735 372.02116 C 75.65859 372.0093 75.57964 371.99877 75.50052 371.9896 L 61.98059 370.42207 C 61.87301 370.4096 61.76574 370.39463 61.65886 370.37718 L 52.26677 368.84377 C 52.10178 368.81684 51.937805 368.784 51.775164 368.7453 L 42.697565 366.58654 C 42.309246 366.4942 41.91959 366.73412 41.82724 367.12244 C 41.82116 367.14802 41.816475 367.1739 41.813213 367.2 Z" stroke="#7f8080" stroke-linecap="round" stroke-linejoin="round" stroke-width="1"/>
      </g>
      <g id="Graphic_13">
        <path d="M 73.3417 370.8861 L 69.02797 370.46113 L 58.02797 369.46113 L 45.02797 367.46113 L 41.02797 365.46113 L 46.02797 334.46113 L 47.8417 308.3861 L 50.3417 280.3861 L 51.8417 253.3861 L 52.3417 224.3861 L 53.8417 197.3861 L 54.3417 171.8861 L 53.3417 135.8861 L 52.3417 102.3861 L 52.3417 87.3861 L 49.8417 71.8861 L 47.3417 56.8861 L 42.8417 41.3861 L 38.3417 26.8861 L 33.3417 13.3861 L 26.8417 -.11389961 L 20.3417 -10.6139 L 16.841699 -17.1139 L 26.027972 -23.538867 L 39.02797 -28.538867 L 52.02797 -32.538867 L 70.3417 -38.1139 L 75.8417 -39.6139 Z" fill="red"/>
        <path d="M 73.3417 370.8861 L 69.02797 370.46113 L 58.02797 369.46113 L 45.02797 367.46113 L 41.02797 365.46113 L 46.02797 334.46113 L 47.8417 308.3861 L 50.3417 280.3861 L 51.8417 253.3861 L 52.3417 224.3861 L 53.8417 197.3861 L 54.3417 171.8861 L 53.3417 135.8861 L 52.3417 102.3861 L 52.3417 87.3861 L 49.8417 71.8861 L 47.3417 56.8861 L 42.8417 41.3861 L 38.3417 26.8861 L 33.3417 13.3861 L 26.8417 -.11389961 L 20.3417 -10.6139 L 16.841699 -17.1139 L 26.027972 -23.538867 L 39.02797 -28.538867 L 52.02797 -32.538867 L 70.3417 -38.1139 L 75.8417 -39.6139 Z" stroke="#7f8080" stroke-linecap="round" stroke-linejoin="round" stroke-width="1"/>
      </g>
      <g id="Graphic_12">
        <path d="M 113.5 375 L 119 376 L 133 376.5 L 154 376.5 L 154 3 L 142 -1 L 135 -5 L 126 -11 L 117 -19.5 Z" fill="red"/>
        <path d="M 113.5 375 L 119 376 L 133 376.5 L 154 376.5 L 154 3 L 142 -1 L 135 -5 L 126 -11 L 117 -19.5 Z" stroke="#7f8080" stroke-linecap="round" stroke-linejoin="round" stroke-width="1"/>
      </g>
      <g id="Graphic_11">
        <path d="M 207 1.5 L 216 -3.5 L 222 -8 L 230 -14 L 236 -20.5 L 240.5 375.5 L 223.5 376.5 L 212.5 377 L 206 377.5 L 202 377 L 203 377 L 199 4.5 Z" fill="red"/>
        <path d="M 207 1.5 L 216 -3.5 L 222 -8 L 230 -14 L 236 -20.5 L 240.5 375.5 L 223.5 376.5 L 212.5 377 L 206 377.5 L 202 377 L 203 377 L 199 4.5 Z" stroke="#7f8080" stroke-linecap="round" stroke-linejoin="round" stroke-width="1"/>
      </g>
      <g id="Graphic_10">
        <path d="M 198.2 377.2 L 208.2 377.2 L 203 3.199996 L 194 5.199996 Z" fill="yellow"/>
        <path d="M 198.12367 377.1997 L 208.32165 377.23725 M 208.24863 377.3282 L 203.01718 3.132777 M 203.13672 3.1847945 L 193.9765 5.1864525 M 194.0281 5.0851004 L 198.20048 377.24233 M 198.13933 377.1759 L 208.26304 377.2066 M 208.2493 377.3128 L 203.0253 3.1951718 M 203.15416 3.177481 L 194.04802 5.174347 M 194.054 5.06936 L 198.2175 377.18436" stroke="gray" stroke-linecap="round" stroke-linejoin="round" stroke-width=".25"/>
      </g>
      <g id="Graphic_9">
        <path d="M 153.6 377.2 L 163.2 377.5 L 158 4.199996 L 148.8 1.199996 Z" fill="yellow"/>
        <path d="M 153.49919 377.19737 L 163.21388 377.45087 M 163.13993 377.5517 L 157.95514 4.1711783 M 158.02186 4.279804 L 148.70485 1.1747139 M 148.77806 1.1181362 L 153.60155 377.3205 M 153.51484 377.1808 L 163.15443 377.4219 M 163.15031 377.53614 L 157.96681 4.242415 M 158.03666 4.266665 L 148.79304 1.1889206 M 148.80306 1.1023909 L 153.61591 377.18437" stroke="gray" stroke-linecap="round" stroke-linejoin="round" stroke-width=".25"/>
      </g>
      <g id="Graphic_8">
        <path d="M 113.2 375.4 L 123.2 376.5 L 117.8 -19.200004 L 108.6 -31.000004 Z" fill="yellow"/>
        <path d="M 113.16857 375.39657 L 123.23072 376.49412 M 123.1562 376.6002 L 117.81813 -19.31542 M 117.88744 -19.132488 L 108.59097 -31.057013 M 108.65329 -31.04883 L 113.20117 375.5049 M 113.1852 375.3717 L 123.17115 376.46223 M 123.16066 376.5847 L 117.83332 -19.235342 M 117.89332 -19.140515 L 108.66107 -30.98491 M 108.67739 -31.06455 L 113.22996 375.3842" stroke="gray" stroke-linecap="round" stroke-linejoin="round" stroke-width=".25"/>
      </g>
      <g id="Graphic_7">
        <path d="M 237.6 376 L 247.8 375.2 L 240.4 -25.200004 L 232.8 -17.800004 Z" fill="yellow"/>
        <path d="M 237.54403 376.0043 L 247.8482 375.21684 M 247.7714 375.25494 L 240.35556 -25.27701 M 240.3992 -25.213418 L 232.7803 -17.728157 M 232.80331 -17.815797 L 237.6011 376.0893 M 237.5595 375.98664 L 247.78608 375.2025 M 247.78557 375.23935 L 240.3592 -25.187816 M 240.41936 -25.224426 L 232.8204 -17.766466 M 232.82652 -17.831514 L 237.62839 375.9842" stroke="gray" stroke-linecap="round" stroke-linejoin="round" stroke-width=".25"/>
      </g>
      <g id="Graphic_6">
        <path d="M 274.6 372.8 L 284.6 372.2 L 278.6 -38.400005 L 269 -42.400005 Z" fill="yellow"/>
        <path d="M 274.51946 372.80436 L 284.66557 372.25543 M 284.5876 372.30344 L 278.61893 -38.563617 M 278.713 -38.411895 L 268.90073 -42.47411 M 268.95334 -42.50776 L 274.601 372.87373 M 274.53452 372.7784 L 284.6025 372.2428 M 284.59584 372.2879 L 278.6257 -38.46563 M 278.7284 -38.42698 L 268.9672 -42.46157 M 268.97564 -42.52348 L 274.6268 372.78422" stroke="gray" stroke-linecap="round" stroke-linejoin="round" stroke-width=".25"/>
      </g>
      <g id="Graphic_5">
        <path d="M 73.32455 370.8861 L 83.32455 370.8861 L 76.5 -39.5 L 68.5 -37.5 Z" fill="yellow"/>
        <path d="M 73.21937 370.8864 L 83.40749 370.8575 M 83.32858 370.91303 L 76.4566 -39.625207 M 76.50508 -39.51443 L 68.44936 -37.507645 M 68.52853 -37.574724 L 73.325235 370.94425 M 73.23499 370.8677 L 83.34324 370.82856 M 83.33091 370.89763 L 76.46721 -39.51837 M 76.5232 -39.520038 L 68.54766 -37.53131 M 68.54994 -37.590417 L 73.34978 370.87036" stroke="gray" stroke-linecap="round" stroke-linejoin="round" stroke-width=".25"/>
      </g>
      <g id="Graphic_4">
        <path d="M 284.2729 371.8372 L 295.47305 370.8335 L 308.70958 368.8262 L 312.78235 366.81885 L 307.6914 335.70516 L 304.6368 308.60614 L 302.6004 281.5071 L 300.8 255 L 299 226.6 L 298.52763 197.19905 L 297.6 173 L 298.4 135.6 L 300.4 103.2 L 302.6004 71.74061 L 305.2 56.799995 L 309.72777 40.62692 L 314.4 26.799995 L 320 14.399995 L 327 .19999447 L 333.8 -11.000006 L 337.8 -17.600006 L 328.05527 -23.6078 L 314.81874 -28.626137 L 301.5822 -32.640807 L 279.2 -37.800005 L 283 371.5 Z" fill="red"/>
        <path d="M 284.2729 371.8372 L 295.47305 370.8335 L 308.70958 368.8262 L 312.78235 366.81885 L 307.6914 335.70516 L 304.6368 308.60614 L 302.6004 281.5071 L 300.8 255 L 299 226.6 L 298.52763 197.19905 L 297.6 173 L 298.4 135.6 L 300.4 103.2 L 302.6004 71.74061 L 305.2 56.799995 L 309.72777 40.62692 L 314.4 26.799995 L 320 14.399995 L 327 .19999447 L 333.8 -11.000006 L 337.8 -17.600006 L 328.05527 -23.6078 L 314.81874 -28.626137 L 301.5822 -32.640807 L 279.2 -37.800005 L 283 371.5 Z" stroke="#7f8080" stroke-linecap="round" stroke-linejoin="round" stroke-width="1"/>
      </g>
      <g id="Graphic_3">
        <path d="M 393.4053 89.50275 L 387.2053 93.90275 L 379.0053 97.90275 L 370.4053 101.50275 L 361.4053 105.30275 L 350.4053 109.30275 L 341.0053 112.10275 L 332.0053 114.70275 L 323.0053 117.30275 L 317.6053 118.70275 L 312.0053 119.70275 L 309.0053 113.30275 L 312.8053 112.50275 L 317.6053 111.30275 L 323.2053 110.10275 L 329.2053 108.30275 L 333.8053 106.90275 L 338.0053 105.70275 L 342.6053 103.70275 L 347.2053 102.10275 L 352.0053 100.10275 L 356.0053 98.70275 L 361.2053 96.50275 L 365.8053 94.90275 L 370.6053 92.70275 L 375.4053 90.90275 L 379.4053 88.90275 L 383.8053 86.70275 L 388.2053 84.50275 L 391.6053 82.90275 Z" fill="red"/>
        <path d="M 393.4053 89.50275 L 387.2053 93.90275 L 379.0053 97.90275 L 370.4053 101.50275 L 361.4053 105.30275 L 350.4053 109.30275 L 341.0053 112.10275 L 332.0053 114.70275 L 323.0053 117.30275 L 317.6053 118.70275 L 312.0053 119.70275 L 309.0053 113.30275 L 312.8053 112.50275 L 317.6053 111.30275 L 323.2053 110.10275 L 329.2053 108.30275 L 333.8053 106.90275 L 338.0053 105.70275 L 342.6053 103.70275 L 347.2053 102.10275 L 352.0053 100.10275 L 356.0053 98.70275 L 361.2053 96.50275 L 365.8053 94.90275 L 370.6053 92.70275 L 375.4053 90.90275 L 379.4053 88.90275 L 383.8053 86.70275 L 388.2053 84.50275 L 391.6053 82.90275 Z" stroke="#7f8080" stroke-linecap="round" stroke-linejoin="round" stroke-width="1"/>
      </g>
      <g id="Graphic_2">
        <path d="M -38 90.44615 L -31.8 94.84615 L -23.6 98.84615 L -15 102.44615 L -5.9999995 106.24615 L 5.0000006 110.24615 L 14.4 113.04615 L 23.4 115.64615 L 32.4 118.24615 L 37.8 119.64615 L 43.4 120.64615 L 46.4 114.24615 L 42.6 113.44615 L 37.8 112.24615 L 32.2 111.04615 L 26.2 109.24615 L 21.6 107.84615 L 17.4 106.64615 L 12.8 104.64615 L 8.200001 103.04615 L 3.4000006 101.04615 L -.59999944 99.64615 L -5.7999995 97.44615 L -10.4 95.84615 L -15.2 93.64615 L -20 91.84615 L -24 89.84615 L -28.4 87.64615 L -32.8 85.44615 L -36.2 83.84615 Z" fill="red"/>
        <path d="M -38 90.44615 L -31.8 94.84615 L -23.6 98.84615 L -15 102.44615 L -5.9999995 106.24615 L 5.0000006 110.24615 L 14.4 113.04615 L 23.4 115.64615 L 32.4 118.24615 L 37.8 119.64615 L 43.4 120.64615 L 46.4 114.24615 L 42.6 113.44615 L 37.8 112.24615 L 32.2 111.04615 L 26.2 109.24615 L 21.6 107.84615 L 17.4 106.64615 L 12.8 104.64615 L 8.200001 103.04615 L 3.4000006 101.04615 L -.59999944 99.64615 L -5.7999995 97.44615 L -10.4 95.84615 L -15.2 93.64615 L -20 91.84615 L -24 89.84615 L -28.4 87.64615 L -32.8 85.44615 L -36.2 83.84615 Z" stroke="#7f8080" stroke-linecap="round" stroke-linejoin="round" stroke-width="1"/>
      </g>
    </g>
  </g>
</svg>
