<?xml version="1.0" encoding="UTF-8" standalone="no"?>
<!DOCTYPE svg PUBLIC "-//W3C//DTD SVG 1.1//EN" "http://www.w3.org/Graphics/SVG/1.1/DTD/svg11.dtd">
<svg xmlns="http://www.w3.org/2000/svg" xmlns:xl="http://www.w3.org/1999/xlink" version="1.1" viewBox="17.5 -71.5 432.4053 449.30915" width="432.4053pt" height="449.30915pt" xmlns:dc="http://purl.org/dc/elements/1.1/">
  <metadata> Produced by OmniGraffle 7.6.1 
    <dc:date>2019-05-26 04:58:46 +0000</dc:date>
  </metadata>
  <defs>
    <radialGradient cx="0" cy="0" r="1" id="Gradient" gradientUnits="userSpaceOnUse">
      <stop offset="0" stop-color="white"/>
      <stop offset="1" stop-color="black"/>
    </radialGradient>
    <radialGradient id="Obj_Gradient" xl:href="#Gradient" gradientTransform="translate(232.75925 -43.6) scale(70.26272)"/>
  </defs>
  <g stroke="none" stroke-opacity="1" stroke-dasharray="none" fill="none" fill-opacity="1">
    <title>Apoel</title>
    <g>
      <title>Layer 1</title>
      <path d="M 171.00565 -70.40955 L 179.1711 -67.291836 C 180.0291 -66.96424 180.90594 -66.68833 181.79692 -66.46558 L 195.5141 -63.03629 C 196.67576 -62.74587 197.85832 -62.54662 199.051 -62.44034 L 216.57715 -60.8786 C 217.165 -60.82622 217.75464 -60.79648 218.34478 -60.78946 L 233.8237 -60.605185 C 234.11404 -60.60173 234.40442 -60.60377 234.6947 -60.61131 L 249.118 -60.98594 C 249.47878 -60.99531 249.8393 -61.013174 250.19924 -61.03951 L 264.57053 -62.09107 C 265.56197 -62.16361 266.54766 -62.30036 267.5214 -62.50044 L 279.09436 -64.87845 C 280.13637 -65.09256 281.16226 -65.3787 282.16465 -65.73481 L 293.91664 -69.90986 C 295.007 -70.29723 296.2102 -69.76646 296.65925 -68.7 L 296.65925 -68.7 C 297.1814 -67.459894 297.3334 -66.09515 297.09685 -64.77055 L 296.91637 -63.75986 C 296.6126 -62.058706 296.11806 -60.397204 295.44214 -58.80681 L 293.89892 -55.17569 C 293.34035 -53.86142 292.6606 -52.602025 291.86846 -51.41382 L 288.1827 -45.88515 C 287.43517 -44.763886 286.59057 -43.710487 285.6586 -42.73711 L 279.36354 -36.162263 C 278.49547 -35.25561 277.55463 -34.42154 276.55046 -33.668407 L 268.17555 -27.38723 C 267.29914 -26.729916 266.37688 -26.13606 265.41582 -25.610197 L 258.23062 -21.678672 C 256.9195 -20.961265 255.54156 -20.373362 254.11638 -19.923302 L 247.44347 -17.816068 C 245.7266 -17.273897 243.952 -16.935195 242.15613 -16.80692 L 235.26968 -16.31503 C 234.19738 -16.238437 233.12103 -16.237118 232.04854 -16.311082 L 223.6123 -16.892893 C 222.5781 -16.964216 221.54994 -17.105373 220.5348 -17.3154 L 213.3996 -18.79165 C 211.44765 -19.195503 209.55647 -19.851386 207.77362 -20.742815 L 203.1142 -23.07252 C 201.88007 -23.689587 200.70397 -24.41646 199.60012 -25.244345 L 193.91816 -29.505813 C 193.47903 -29.835165 193.05182 -30.180132 192.63737 -30.54005 L 186.88219 -35.53797 C 186.0679 -36.245115 185.30436 -37.008655 184.59722 -37.82294 L 180.192 -42.895624 C 179.4379 -43.763985 178.74998 -44.687685 178.13406 -45.65895 L 174.40036 -51.54671 C 174.0398 -52.115296 173.70437 -52.69944 173.39505 -53.29745 L 171.77468 -56.430173 C 171.16553 -57.60785 170.65936 -58.836 170.26183 -60.10089 L 168.98159 -64.17438 C 168.76681 -64.85775 168.58408 -65.55079 168.43399 -66.25122 L 168.35925 -66.6 C 168.16458 -67.508426 168.27185 -68.45557 168.66473 -69.29746 L 168.75925 -69.5 C 169.15372 -70.34531 170.1342 -70.74229 171.00565 -70.40955 Z" fill="url(#Obj_Gradient)"/>
      <path d="M 171.00565 -70.40955 L 179.1711 -67.291836 C 180.0291 -66.96424 180.90594 -66.68833 181.79692 -66.46558 L 195.5141 -63.03629 C 196.67576 -62.74587 197.85832 -62.54662 199.051 -62.44034 L 216.57715 -60.8786 C 217.165 -60.82622 217.75464 -60.79648 218.34478 -60.78946 L 233.8237 -60.605185 C 234.11404 -60.60173 234.40442 -60.60377 234.6947 -60.61131 L 249.118 -60.98594 C 249.47878 -60.99531 249.8393 -61.013174 250.19924 -61.03951 L 264.57053 -62.09107 C 265.56197 -62.16361 266.54766 -62.30036 267.5214 -62.50044 L 279.09436 -64.87845 C 280.13637 -65.09256 281.16226 -65.3787 282.16465 -65.73481 L 293.91664 -69.90986 C 295.007 -70.29723 296.2102 -69.76646 296.65925 -68.7 L 296.65925 -68.7 C 297.1814 -67.459894 297.3334 -66.09515 297.09685 -64.77055 L 296.91637 -63.75986 C 296.6126 -62.058706 296.11806 -60.397204 295.44214 -58.80681 L 293.89892 -55.17569 C 293.34035 -53.86142 292.6606 -52.602025 291.86846 -51.41382 L 288.1827 -45.88515 C 287.43517 -44.763886 286.59057 -43.710487 285.6586 -42.73711 L 279.36354 -36.162263 C 278.49547 -35.25561 277.55463 -34.42154 276.55046 -33.668407 L 268.17555 -27.38723 C 267.29914 -26.729916 266.37688 -26.13606 265.41582 -25.610197 L 258.23062 -21.678672 C 256.9195 -20.961265 255.54156 -20.373362 254.11638 -19.923302 L 247.44347 -17.816068 C 245.7266 -17.273897 243.952 -16.935195 242.15613 -16.80692 L 235.26968 -16.31503 C 234.19738 -16.238437 233.12103 -16.237118 232.04854 -16.311082 L 223.6123 -16.892893 C 222.5781 -16.964216 221.54994 -17.105373 220.5348 -17.3154 L 213.3996 -18.79165 C 211.44765 -19.195503 209.55647 -19.851386 207.77362 -20.742815 L 203.1142 -23.07252 C 201.88007 -23.689587 200.70397 -24.41646 199.60012 -25.244345 L 193.91816 -29.505813 C 193.47903 -29.835165 193.05182 -30.180132 192.63737 -30.54005 L 186.88219 -35.53797 C 186.0679 -36.245115 185.30436 -37.008655 184.59722 -37.82294 L 180.192 -42.895624 C 179.4379 -43.763985 178.74998 -44.687685 178.13406 -45.65895 L 174.40036 -51.54671 C 174.0398 -52.115296 173.70437 -52.69944 173.39505 -53.29745 L 171.77468 -56.430173 C 171.16553 -57.60785 170.65936 -58.836 170.26183 -60.10089 L 168.98159 -64.17438 C 168.76681 -64.85775 168.58408 -65.55079 168.43399 -66.25122 L 168.35925 -66.6 C 168.16458 -67.508426 168.27185 -68.45557 168.66473 -69.29746 L 168.75925 -69.5 C 169.15372 -70.34531 170.1342 -70.74229 171.00565 -70.40955 Z" stroke="#7f8080" stroke-linecap="round" stroke-linejoin="round" stroke-width="1"/>
      <path d="M 105.33006 367.17293 L 119.0723 369.4633 C 119.25568 369.49387 119.43957 369.52123 119.6239 369.5454 L 147.97754 373.2607 C 148.22407 373.293 148.47132 373.31955 148.71908 373.34033 L 178.96197 375.87683 C 179.21888 375.89837 179.47627 375.9137 179.73391 375.9228 L 218.66482 377.29916 C 218.85318 377.3058 219.04165 377.30915 219.23013 377.30915 L 250.69745 377.30915 C 250.86406 377.30915 251.03067 377.30655 251.1972 377.30134 L 276.232 376.519 C 276.44224 376.51244 276.65233 376.5017 276.86215 376.48687 L 298.9099 374.92596 C 299.06822 374.91476 299.22636 374.9012 299.38427 374.8853 L 324.64475 372.33965 C 324.8465 372.3193 325.04783 372.29516 325.24865 372.26717 L 349.04134 368.9518 C 349.24535 368.92337 349.4488 368.891 349.65156 368.8547 L 358.8474 367.20915 C 364.1745 366.2559 367.82536 361.30223 367.15895 355.9317 L 364.95136 338.14113 C 364.9487 338.1198 364.9461 338.0985 364.94355 338.07716 L 361.37973 308.37863 C 361.35817 308.199 361.33966 308.019 361.3242 307.83873 L 358.962 280.2795 C 358.95226 280.16594 358.94374 280.05227 358.93643 279.9385 L 357.5498 258.34687 C 357.5482 258.32172 357.54652 258.29658 357.5448 258.27144 L 355.95263 235.18513 C 355.94914 235.13448 355.9459 235.0838 355.94287 235.03312 L 354.7665 215.23095 C 354.75376 215.01644 354.74534 214.8017 354.74125 214.58684 L 354.34897 193.992 C 354.3479 193.93677 354.34658 193.88154 354.34495 193.82632 L 353.74983 173.59198 C 353.7482 173.53676 353.74686 173.48153 353.7458 173.4263 L 353.35515 152.91676 C 353.34998 152.64506 353.35173 152.37328 353.3604 152.10167 L 353.94634 133.74206 C 353.94704 133.72012 353.9478 133.69818 353.94857 133.67624 L 354.73666 111.80693 C 354.7438 111.60842 354.75466 111.41007 354.7692 111.21197 L 356.32668 89.99135 C 356.3405 89.80323 356.35096 89.61488 356.3581 89.42638 L 357.11256 69.52752 C 357.13576 68.91577 357.19404 68.30586 357.28713 67.700796 L 360.02613 49.89728 C 360.1069 49.37218 360.2138 48.85143 360.3464 48.33697 L 364.97466 30.379318 C 365.08976 29.932745 365.2241 29.491357 365.37734 29.05639 L 371.0981 12.81675 C 371.2642 12.345273 371.4523 11.881838 371.66178 11.42797 L 377.19333 -.557069 C 377.29602 -.7795635 377.4038 -.9996695 377.5166 -1.2172128 L 382.87883 -11.558638 C 382.92454 -11.646781 382.97106 -11.734496 383.0184 -11.821772 L 388.23437 -21.438735 C 388.97165 -22.798092 389.9213 -24.03099 391.0474 -25.090855 L 391.0474 -25.090855 C 391.7226 -25.726328 391.75478 -26.78883 391.1193 -27.46402 C 390.9948 -27.596295 390.84967 -27.70749 390.68955 -27.793267 L 387.4754 -29.515126 C 387.25676 -29.632263 387.0354 -29.7443 386.81155 -29.851144 L 378.95757 -33.599632 C 378.55096 -33.793694 378.13634 -33.970495 377.7148 -34.129563 L 368.04 -37.780444 C 367.84494 -37.854044 367.64848 -37.923826 367.4507 -37.98975 L 354.75623 -42.22124 C 354.617 -42.26765 354.47716 -42.31214 354.3367 -42.3547 L 341.4532 -46.258796 C 341.38266 -46.28017 341.31227 -46.30203 341.24205 -46.324374 L 328.73805 -50.30292 C 328.34442 -50.42816 327.9558 -50.568604 327.57304 -50.723925 L 315.5971 -55.58373 C 314.76543 -55.921215 313.96364 -56.32808 313.2002 -56.80002 L 303.58096 -62.74647 C 303.42526 -62.84272 303.2712 -62.941636 303.1189 -63.043175 L 298.2288 -66.30324 C 297.24742 -66.9575 296.3761 -67.7634 295.6474 -68.690856 L 295.6474 -68.690856 C 295.5418 -68.82526 295.34722 -68.84861 295.2128 -68.743005 C 295.11007 -68.66228 295.0691 -68.52573 295.1104 -68.40177 L 295.2474 -67.990856 C 295.70664 -66.613104 295.8112 -65.14182 295.5514 -63.71297 L 295.15627 -61.5397 C 294.88506 -60.04804 294.4032 -58.602504 293.7252 -57.24645 L 292.19287 -54.181816 C 291.89617 -53.588417 291.56285 -53.014046 291.19484 -52.46203 L 287.99113 -47.656474 C 287.56253 -47.01357 287.08792 -46.402563 286.57104 -45.82824 L 282.009 -40.7593 C 281.96792 -40.71367 281.9266 -40.66828 281.885 -40.623124 L 275.89077 -34.115098 C 275.26303 -33.433558 274.5773 -32.807835 273.84125 -32.244984 L 268.81707 -28.40297 C 268.37093 -28.061796 267.90712 -27.744352 267.4276 -27.451955 L 260.9412 -23.49683 C 260.27953 -23.09338 259.58943 -22.738534 258.87635 -22.435094 L 251.76094 -19.40726 C 250.95327 -19.063573 250.1187 -18.78693 249.26566 -18.580132 L 245.1866 -17.59127 C 244.36177 -17.39131 243.52233 -17.257298 242.67624 -17.190501 L 236.97603 -16.740485 C 236.5571 -16.707411 236.13702 -16.690855 235.7168 -16.690855 L 228.68447 -16.690855 C 227.92737 -16.690855 227.17122 -16.744593 226.42173 -16.851663 L 218.47528 -17.98687 C 217.99027 -18.056157 217.5087 -18.147684 217.0321 -18.261162 L 211.07087 -19.680502 C 209.92538 -19.953237 208.8135 -20.35159 207.75543 -20.868322 L 201.47543 -23.9353 C 200.99038 -24.172185 200.51763 -24.433465 200.05899 -24.718138 L 195.84712 -27.332398 C 195.24795 -27.704296 194.67403 -28.1154 194.1291 -28.56302 L 189.683 -32.21518 C 189.4593 -32.39893 189.24063 -32.588717 189.02723 -32.784332 L 185.22489 -36.269813 C 184.7736 -36.6835 184.34641 -37.12275 183.94546 -37.58539 L 179.8267 -42.33779 C 179.50733 -42.70631 179.20496 -43.089234 178.92056 -43.48537 L 174.4909 -49.655246 C 173.996 -50.34456 173.55674 -51.07215 173.17725 -51.831137 L 170.60078 -56.984064 C 170.56519 -57.05526 170.53012 -57.126715 170.4956 -57.19843 L 169.24739 -59.790856 C 168.39667 -61.557725 168.04115 -63.52226 168.2187 -65.47521 L 168.3989 -67.45747 C 168.4227 -67.71933 168.22972 -67.95091 167.96786 -67.97472 C 167.80546 -67.98948 167.6468 -67.920105 167.54739 -67.790856 L 167.54739 -67.790856 C 166.88394 -66.928375 166.10383 -66.1623 165.22945 -65.51461 L 161.33292 -62.62829 C 161.20924 -62.53667 161.08424 -62.44684 160.95796 -62.35883 L 156.33571 -59.137265 C 155.14898 -58.310146 153.85556 -57.64778 152.4908 -57.16827 L 147.88368 -55.549553 C 147.39311 -55.37719 146.91123 -55.181016 146.43976 -54.96173 L 139.59298 -51.77718 C 138.89682 -51.453383 138.17826 -51.180116 137.44286 -50.959497 L 126.57247 -47.69838 C 126.55575 -47.693364 126.53903 -47.68832 126.52233 -47.68325 L 115.55424 -44.35365 C 115.41634 -44.31179 115.27902 -44.268066 115.1423 -44.222494 L 102.22107 -39.915416 C 102.17195 -39.899042 102.12275 -39.882907 102.07347 -39.86701 L 90.70606 -36.200106 C 90.06758 -35.994143 89.44268 -35.748226 88.83506 -35.46381 L 80.9031 -31.750977 C 80.53276 -31.577626 80.1692 -31.390142 79.81322 -31.18894 L 73.86711 -27.82809 C 72.61408 -27.119855 72.17243 -25.52993 72.88067 -24.276897 C 72.957785 -24.140458 73.04705 -24.011254 73.147385 -23.890855 L 74.0115 -22.853922 C 74.76644 -21.947987 75.41892 -20.961367 75.957035 -19.912038 L 79.03417 -13.911619 C 79.10964 -13.764452 79.18739 -13.618464 79.26739 -13.473707 L 83.22214 -6.317488 C 83.30563 -6.166409 83.38667 -6.013989 83.46523 -5.8602874 L 87.57354 2.1777 C 87.8226 2.6650093 88.04651 3.1647766 88.24436 3.675031 L 91.72713 12.656909 C 91.74063 12.691733 91.75426 12.72651 91.768 12.761239 L 95.36433 21.846685 C 95.48634 22.154918 95.59874 22.466868 95.70136 22.782083 L 98.3232 30.83486 C 98.33932 30.884384 98.3552 30.933985 98.37084 30.983663 L 101.44289 40.741934 C 101.64568 41.386096 101.80749 42.04245 101.92734 42.70706 L 103.91265 53.716517 C 103.9358 53.84493 103.95739 53.973625 103.9774 54.10257 L 105.68327 65.09595 C 105.726 65.37137 105.76154 65.647854 105.78983 65.92513 L 106.67725 74.62184 C 106.72399 75.07983 106.75093 75.53962 106.75801 75.99994 L 106.94225 87.97556 C 106.94567 88.19793 106.95373 88.4202 106.96642 88.64223 L 107.7368 102.12379 C 107.74385 102.24736 107.75235 102.37084 107.76228 102.4942 L 109.09585 119.06858 C 109.13019 119.49545 109.14739 119.92353 109.14739 120.35179 L 109.14739 132.80157 C 109.14739 133.0066 109.15133 133.21162 109.15921 133.4165 L 109.73956 148.50564 C 109.74478 148.6413 109.74827 148.77703 109.75003 148.9128 L 109.94219 163.70905 C 109.94565 163.97574 109.94245 164.24248 109.93258 164.509 L 109.35835 180.01316 C 109.35104 180.21047 109.34739 180.4079 109.34739 180.60534 L 109.34739 194.20157 C 109.34739 194.4066 109.34344 194.61162 109.33556 194.8165 L 108.75037 210.0315 C 108.74838 210.08327 108.74614 210.13502 108.74364 210.18676 L 107.94832 226.6897 C 107.9477 226.70266 107.94706 226.71563 107.9464 226.7286 L 107.15191 242.41976 C 107.1489 242.47935 107.14554 242.53893 107.14186 242.59848 L 105.95295 261.8192 C 105.94924 261.87917 105.94519 261.9391 105.94081 261.99902 L 104.15767 286.36857 C 104.15081 286.4623 104.14313 286.55594 104.13462 286.64953 L 102.34873 306.29434 C 102.34783 306.3042 102.34693 306.3141 102.34601 306.32396 L 100.57525 325.40886 C 100.55667 325.60904 100.53433 325.80884 100.50823 326.00818 L 98.54751 340.9809 C 98.4147 341.9951 98.14556 342.9867 97.74738 343.92888 L 97.74738 343.92888 C 97.34981 344.86962 97.10114 345.86654 97.01032 346.8838 L 96.24738 355.42888 C 95.73963 361.1159 99.69809 366.23427 105.33006 367.17293 Z" fill="yellow"/>
      <path d="M 105.33006 367.17293 L 119.0723 369.4633 C 119.25568 369.49387 119.43957 369.52123 119.6239 369.5454 L 147.97754 373.2607 C 148.22407 373.293 148.47132 373.31955 148.71908 373.34033 L 178.96197 375.87683 C 179.21888 375.89837 179.47627 375.9137 179.73391 375.9228 L 218.66482 377.29916 C 218.85318 377.3058 219.04165 377.30915 219.23013 377.30915 L 250.69745 377.30915 C 250.86406 377.30915 251.03067 377.30655 251.1972 377.30134 L 276.232 376.519 C 276.44224 376.51244 276.65233 376.5017 276.86215 376.48687 L 298.9099 374.92596 C 299.06822 374.91476 299.22636 374.9012 299.38427 374.8853 L 324.64475 372.33965 C 324.8465 372.3193 325.04783 372.29516 325.24865 372.26717 L 349.04134 368.9518 C 349.24535 368.92337 349.4488 368.891 349.65156 368.8547 L 358.8474 367.20915 C 364.1745 366.2559 367.82536 361.30223 367.15895 355.9317 L 364.95136 338.14113 C 364.9487 338.1198 364.9461 338.0985 364.94355 338.07716 L 361.37973 308.37863 C 361.35817 308.199 361.33966 308.019 361.3242 307.83873 L 358.962 280.2795 C 358.95226 280.16594 358.94374 280.05227 358.93643 279.9385 L 357.5498 258.34687 C 357.5482 258.32172 357.54652 258.29658 357.5448 258.27144 L 355.95263 235.18513 C 355.94914 235.13448 355.9459 235.0838 355.94287 235.03312 L 354.7665 215.23095 C 354.75376 215.01644 354.74534 214.8017 354.74125 214.58684 L 354.34897 193.992 C 354.3479 193.93677 354.34658 193.88154 354.34495 193.82632 L 353.74983 173.59198 C 353.7482 173.53676 353.74686 173.48153 353.7458 173.4263 L 353.35515 152.91676 C 353.34998 152.64506 353.35173 152.37328 353.3604 152.10167 L 353.94634 133.74206 C 353.94704 133.72012 353.9478 133.69818 353.94857 133.67624 L 354.73666 111.80693 C 354.7438 111.60842 354.75466 111.41007 354.7692 111.21197 L 356.32668 89.99135 C 356.3405 89.80323 356.35096 89.61488 356.3581 89.42638 L 357.11256 69.52752 C 357.13576 68.91577 357.19404 68.30586 357.28713 67.700796 L 360.02613 49.89728 C 360.1069 49.37218 360.2138 48.85143 360.3464 48.33697 L 364.97466 30.379318 C 365.08976 29.932745 365.2241 29.491357 365.37734 29.05639 L 371.0981 12.81675 C 371.2642 12.345273 371.4523 11.881838 371.66178 11.42797 L 377.19333 -.557069 C 377.29602 -.7795635 377.4038 -.9996695 377.5166 -1.2172128 L 382.87883 -11.558638 C 382.92454 -11.646781 382.97106 -11.734496 383.0184 -11.821772 L 388.23437 -21.438735 C 388.97165 -22.798092 389.9213 -24.03099 391.0474 -25.090855 L 391.0474 -25.090855 C 391.7226 -25.726328 391.75478 -26.78883 391.1193 -27.46402 C 390.9948 -27.596295 390.84967 -27.70749 390.68955 -27.793267 L 387.4754 -29.515126 C 387.25676 -29.632263 387.0354 -29.7443 386.81155 -29.851144 L 378.95757 -33.599632 C 378.55096 -33.793694 378.13634 -33.970495 377.7148 -34.129563 L 368.04 -37.780444 C 367.84494 -37.854044 367.64848 -37.923826 367.4507 -37.98975 L 354.75623 -42.22124 C 354.617 -42.26765 354.47716 -42.31214 354.3367 -42.3547 L 341.4532 -46.258796 C 341.38266 -46.28017 341.31227 -46.30203 341.24205 -46.324374 L 328.73805 -50.30292 C 328.34442 -50.42816 327.9558 -50.568604 327.57304 -50.723925 L 315.5971 -55.58373 C 314.76543 -55.921215 313.96364 -56.32808 313.2002 -56.80002 L 303.58096 -62.74647 C 303.42526 -62.84272 303.2712 -62.941636 303.1189 -63.043175 L 298.2288 -66.30324 C 297.24742 -66.9575 296.3761 -67.7634 295.6474 -68.690856 L 295.6474 -68.690856 C 295.5418 -68.82526 295.34722 -68.84861 295.2128 -68.743005 C 295.11007 -68.66228 295.0691 -68.52573 295.1104 -68.40177 L 295.2474 -67.990856 C 295.70664 -66.613104 295.8112 -65.14182 295.5514 -63.71297 L 295.15627 -61.5397 C 294.88506 -60.04804 294.4032 -58.602504 293.7252 -57.24645 L 292.19287 -54.181816 C 291.89617 -53.588417 291.56285 -53.014046 291.19484 -52.46203 L 287.99113 -47.656474 C 287.56253 -47.01357 287.08792 -46.402563 286.57104 -45.82824 L 282.009 -40.7593 C 281.96792 -40.71367 281.9266 -40.66828 281.885 -40.623124 L 275.89077 -34.115098 C 275.26303 -33.433558 274.5773 -32.807835 273.84125 -32.244984 L 268.81707 -28.40297 C 268.37093 -28.061796 267.90712 -27.744352 267.4276 -27.451955 L 260.9412 -23.49683 C 260.27953 -23.09338 259.58943 -22.738534 258.87635 -22.435094 L 251.76094 -19.40726 C 250.95327 -19.063573 250.1187 -18.78693 249.26566 -18.580132 L 245.1866 -17.59127 C 244.36177 -17.39131 243.52233 -17.257298 242.67624 -17.190501 L 236.97603 -16.740485 C 236.5571 -16.707411 236.13702 -16.690855 235.7168 -16.690855 L 228.68447 -16.690855 C 227.92737 -16.690855 227.17122 -16.744593 226.42173 -16.851663 L 218.47528 -17.98687 C 217.99027 -18.056157 217.5087 -18.147684 217.0321 -18.261162 L 211.07087 -19.680502 C 209.92538 -19.953237 208.8135 -20.35159 207.75543 -20.868322 L 201.47543 -23.9353 C 200.99038 -24.172185 200.51763 -24.433465 200.05899 -24.718138 L 195.84712 -27.332398 C 195.24795 -27.704296 194.67403 -28.1154 194.1291 -28.56302 L 189.683 -32.21518 C 189.4593 -32.39893 189.24063 -32.588717 189.02723 -32.784332 L 185.22489 -36.269813 C 184.7736 -36.6835 184.34641 -37.12275 183.94546 -37.58539 L 179.8267 -42.33779 C 179.50733 -42.70631 179.20496 -43.089234 178.92056 -43.48537 L 174.4909 -49.655246 C 173.996 -50.34456 173.55674 -51.07215 173.17725 -51.831137 L 170.60078 -56.984064 C 170.56519 -57.05526 170.53012 -57.126715 170.4956 -57.19843 L 169.24739 -59.790856 C 168.39667 -61.557725 168.04115 -63.52226 168.2187 -65.47521 L 168.3989 -67.45747 C 168.4227 -67.71933 168.22972 -67.95091 167.96786 -67.97472 C 167.80546 -67.98948 167.6468 -67.920105 167.54739 -67.790856 L 167.54739 -67.790856 C 166.88394 -66.928375 166.10383 -66.1623 165.22945 -65.51461 L 161.33292 -62.62829 C 161.20924 -62.53667 161.08424 -62.44684 160.95796 -62.35883 L 156.33571 -59.137265 C 155.14898 -58.310146 153.85556 -57.64778 152.4908 -57.16827 L 147.88368 -55.549553 C 147.39311 -55.37719 146.91123 -55.181016 146.43976 -54.96173 L 139.59298 -51.77718 C 138.89682 -51.453383 138.17826 -51.180116 137.44286 -50.959497 L 126.57247 -47.69838 C 126.55575 -47.693364 126.53903 -47.68832 126.52233 -47.68325 L 115.55424 -44.35365 C 115.41634 -44.31179 115.27902 -44.268066 115.1423 -44.222494 L 102.22107 -39.915416 C 102.17195 -39.899042 102.12275 -39.882907 102.07347 -39.86701 L 90.70606 -36.200106 C 90.06758 -35.994143 89.44268 -35.748226 88.83506 -35.46381 L 80.9031 -31.750977 C 80.53276 -31.577626 80.1692 -31.390142 79.81322 -31.18894 L 73.86711 -27.82809 C 72.61408 -27.119855 72.17243 -25.52993 72.88067 -24.276897 C 72.957785 -24.140458 73.04705 -24.011254 73.147385 -23.890855 L 74.0115 -22.853922 C 74.76644 -21.947987 75.41892 -20.961367 75.957035 -19.912038 L 79.03417 -13.911619 C 79.10964 -13.764452 79.18739 -13.618464 79.26739 -13.473707 L 83.22214 -6.317488 C 83.30563 -6.166409 83.38667 -6.013989 83.46523 -5.8602874 L 87.57354 2.1777 C 87.8226 2.6650093 88.04651 3.1647766 88.24436 3.675031 L 91.72713 12.656909 C 91.74063 12.691733 91.75426 12.72651 91.768 12.761239 L 95.36433 21.846685 C 95.48634 22.154918 95.59874 22.466868 95.70136 22.782083 L 98.3232 30.83486 C 98.33932 30.884384 98.3552 30.933985 98.37084 30.983663 L 101.44289 40.741934 C 101.64568 41.386096 101.80749 42.04245 101.92734 42.70706 L 103.91265 53.716517 C 103.9358 53.84493 103.95739 53.973625 103.9774 54.10257 L 105.68327 65.09595 C 105.726 65.37137 105.76154 65.647854 105.78983 65.92513 L 106.67725 74.62184 C 106.72399 75.07983 106.75093 75.53962 106.75801 75.99994 L 106.94225 87.97556 C 106.94567 88.19793 106.95373 88.4202 106.96642 88.64223 L 107.7368 102.12379 C 107.74385 102.24736 107.75235 102.37084 107.76228 102.4942 L 109.09585 119.06858 C 109.13019 119.49545 109.14739 119.92353 109.14739 120.35179 L 109.14739 132.80157 C 109.14739 133.0066 109.15133 133.21162 109.15921 133.4165 L 109.73956 148.50564 C 109.74478 148.6413 109.74827 148.77703 109.75003 148.9128 L 109.94219 163.70905 C 109.94565 163.97574 109.94245 164.24248 109.93258 164.509 L 109.35835 180.01316 C 109.35104 180.21047 109.34739 180.4079 109.34739 180.60534 L 109.34739 194.20157 C 109.34739 194.4066 109.34344 194.61162 109.33556 194.8165 L 108.75037 210.0315 C 108.74838 210.08327 108.74614 210.13502 108.74364 210.18676 L 107.94832 226.6897 C 107.9477 226.70266 107.94706 226.71563 107.9464 226.7286 L 107.15191 242.41976 C 107.1489 242.47935 107.14554 242.53893 107.14186 242.59848 L 105.95295 261.8192 C 105.94924 261.87917 105.94519 261.9391 105.94081 261.99902 L 104.15767 286.36857 C 104.15081 286.4623 104.14313 286.55594 104.13462 286.64953 L 102.34873 306.29434 C 102.34783 306.3042 102.34693 306.3141 102.34601 306.32396 L 100.57525 325.40886 C 100.55667 325.60904 100.53433 325.80884 100.50823 326.00818 L 98.54751 340.9809 C 98.4147 341.9951 98.14556 342.9867 97.74738 343.92888 L 97.74738 343.92888 C 97.34981 344.86962 97.10114 345.86654 97.01032 346.8838 L 96.24738 355.42888 C 95.73963 361.1159 99.69809 366.23427 105.33006 367.17293 Z" stroke="#7f8080" stroke-linecap="round" stroke-linejoin="round" stroke-width="1"/>
      <path d="M 18 80.44615 L 24.2 84.84615 L 32.4 88.84615 L 41 92.44615 L 50 96.24615 L 61 100.24615 L 70.4 103.04615 L 79.4 105.64615 L 88.4 108.24615 L 93.8 109.64615 L 99.4 110.64615 L 101.8 104.84615 L 104.4 99.44615 L 106.6 95.44615 L 109.2 92.04615 L 109.4 83.04615 L 108.8 72.046145 L 107 61.246145 L 105.4 50.846145 L 102.8 39.846145 L 100.4 30.246145 L 97.6 22.246145 L 94.4 12.846145 L 91.6 5.4461445 L 88 -2.1538556 L 84 -9.753856 L 80 -17.153856 L 77.4 -20.753856 L 73.8 -26.553856 L 68.4 -22.153856 L 63.6 -17.353856 L 59 -11.153856 L 54.6 -4.9538557 L 49.8 3.6461444 L 45 13.046145 L 40.2 22.246145 L 36.6 30.846145 L 32.6 39.846145 L 29.4 48.046145 L 25.6 57.446145 L 22.8 65.446145 L 19.8 73.846145 Z" fill="#000086"/>
      <path d="M 18 80.44615 L 24.2 84.84615 L 32.4 88.84615 L 41 92.44615 L 50 96.24615 L 61 100.24615 L 70.4 103.04615 L 79.4 105.64615 L 88.4 108.24615 L 93.8 109.64615 L 99.4 110.64615 L 101.8 104.84615 L 104.4 99.44615 L 106.6 95.44615 L 109.2 92.04615 L 109.4 83.04615 L 108.8 72.046145 L 107 61.246145 L 105.4 50.846145 L 102.8 39.846145 L 100.4 30.246145 L 97.6 22.246145 L 94.4 12.846145 L 91.6 5.4461445 L 88 -2.1538556 L 84 -9.753856 L 80 -17.153856 L 77.4 -20.753856 L 73.8 -26.553856 L 68.4 -22.153856 L 63.6 -17.353856 L 59 -11.153856 L 54.6 -4.9538557 L 49.8 3.6461444 L 45 13.046145 L 40.2 22.246145 L 36.6 30.846145 L 32.6 39.846145 L 29.4 48.046145 L 25.6 57.446145 L 22.8 65.446145 L 19.8 73.846145 Z" stroke="#7f8080" stroke-linecap="round" stroke-linejoin="round" stroke-width="1"/>
      <path d="M 449.4053 79.50275 L 443.2053 83.90275 L 435.0053 87.90275 L 426.4053 91.50275 L 417.4053 95.30275 L 406.4053 99.30275 L 397.0053 102.10275 L 388.0053 104.70275 L 379.0053 107.30275 L 373.6053 108.70275 L 368.0053 109.70275 L 365.6053 103.90275 L 363.0053 98.50275 L 360.8053 94.50275 L 358.2053 91.10275 L 358.0053 82.10275 L 358.6053 71.10275 L 360.4053 60.30275 L 362.0053 49.90275 L 364.6053 38.90275 L 367.0053 29.30275 L 369.8053 21.302748 L 373.0053 11.902748 L 375.8053 4.502748 L 379.4053 -3.097252 L 383.4053 -10.697252 L 387.4053 -18.097252 L 390.0053 -21.697252 L 393.6053 -27.497252 L 399.0053 -23.097252 L 403.8053 -18.297252 L 408.4053 -12.097252 L 412.8053 -5.897252 L 417.6053 2.7027482 L 422.4053 12.102748 L 427.2053 21.302748 L 430.8053 29.90275 L 434.8053 38.90275 L 438.0053 47.10275 L 441.8053 56.50275 L 444.6053 64.50275 L 447.6053 72.90275 Z" fill="#001792"/>
      <path d="M 449.4053 79.50275 L 443.2053 83.90275 L 435.0053 87.90275 L 426.4053 91.50275 L 417.4053 95.30275 L 406.4053 99.30275 L 397.0053 102.10275 L 388.0053 104.70275 L 379.0053 107.30275 L 373.6053 108.70275 L 368.0053 109.70275 L 365.6053 103.90275 L 363.0053 98.50275 L 360.8053 94.50275 L 358.2053 91.10275 L 358.0053 82.10275 L 358.6053 71.10275 L 360.4053 60.30275 L 362.0053 49.90275 L 364.6053 38.90275 L 367.0053 29.30275 L 369.8053 21.302748 L 373.0053 11.902748 L 375.8053 4.502748 L 379.4053 -3.097252 L 383.4053 -10.697252 L 387.4053 -18.097252 L 390.0053 -21.697252 L 393.6053 -27.497252 L 399.0053 -23.097252 L 403.8053 -18.297252 L 408.4053 -12.097252 L 412.8053 -5.897252 L 417.6053 2.7027482 L 422.4053 12.102748 L 427.2053 21.302748 L 430.8053 29.90275 L 434.8053 38.90275 L 438.0053 47.10275 L 441.8053 56.50275 L 444.6053 64.50275 L 447.6053 72.90275 Z" stroke="#7f8080" stroke-linecap="round" stroke-linejoin="round" stroke-width="1"/>
      <path d="M 18 80.44615 L 24.2 84.84615 L 32.4 88.84615 L 41 92.44615 L 50 96.24615 L 61 100.24615 L 70.4 103.04615 L 79.4 105.64615 L 88.4 108.24615 L 93.8 109.64615 L 99.4 110.64615 L 102.4 104.24615 L 98.6 103.44615 L 93.8 102.24615 L 88.2 101.04615 L 82.2 99.24615 L 77.6 97.84615 L 73.4 96.64615 L 68.8 94.64615 L 64.2 93.04615 L 59.4 91.04615 L 55.4 89.64615 L 50.2 87.44615 L 45.6 85.84615 L 40.8 83.64615 L 36 81.84615 L 32 79.84615 L 27.6 77.64615 L 23.2 75.44615 L 19.8 73.846145 Z" fill="#0322a7"/>
      <path d="M 18 80.44615 L 24.2 84.84615 L 32.4 88.84615 L 41 92.44615 L 50 96.24615 L 61 100.24615 L 70.4 103.04615 L 79.4 105.64615 L 88.4 108.24615 L 93.8 109.64615 L 99.4 110.64615 L 102.4 104.24615 L 98.6 103.44615 L 93.8 102.24615 L 88.2 101.04615 L 82.2 99.24615 L 77.6 97.84615 L 73.4 96.64615 L 68.8 94.64615 L 64.2 93.04615 L 59.4 91.04615 L 55.4 89.64615 L 50.2 87.44615 L 45.6 85.84615 L 40.8 83.64615 L 36 81.84615 L 32 79.84615 L 27.6 77.64615 L 23.2 75.44615 L 19.8 73.846145 Z" stroke="#7f8080" stroke-linecap="round" stroke-linejoin="round" stroke-width="1"/>
      <path d="M 449.4053 79.50275 L 443.2053 83.90275 L 435.0053 87.90275 L 426.4053 91.50275 L 417.4053 95.30275 L 406.4053 99.30275 L 397.0053 102.10275 L 388.0053 104.70275 L 379.0053 107.30275 L 373.6053 108.70275 L 368.0053 109.70275 L 365.0053 103.30275 L 368.8053 102.50275 L 373.6053 101.30275 L 379.2053 100.10275 L 385.2053 98.30275 L 389.8053 96.90275 L 394.0053 95.70275 L 398.6053 93.70275 L 403.2053 92.10275 L 408.0053 90.10275 L 412.0053 88.70275 L 417.2053 86.50275 L 421.8053 84.90275 L 426.6053 82.70275 L 431.4053 80.90275 L 435.4053 78.90275 L 439.8053 76.70275 L 444.2053 74.50275 L 447.6053 72.90275 Z" fill="#032197"/>
      <path d="M 449.4053 79.50275 L 443.2053 83.90275 L 435.0053 87.90275 L 426.4053 91.50275 L 417.4053 95.30275 L 406.4053 99.30275 L 397.0053 102.10275 L 388.0053 104.70275 L 379.0053 107.30275 L 373.6053 108.70275 L 368.0053 109.70275 L 365.0053 103.30275 L 368.8053 102.50275 L 373.6053 101.30275 L 379.2053 100.10275 L 385.2053 98.30275 L 389.8053 96.90275 L 394.0053 95.70275 L 398.6053 93.70275 L 403.2053 92.10275 L 408.0053 90.10275 L 412.0053 88.70275 L 417.2053 86.50275 L 421.8053 84.90275 L 426.6053 82.70275 L 431.4053 80.90275 L 435.4053 78.90275 L 439.8053 76.70275 L 444.2053 74.50275 L 447.6053 72.90275 Z" stroke="#7f8080" stroke-linecap="round" stroke-linejoin="round" stroke-width="1"/>
      <path d="M 168.57212 -69.03621 L 163.84295 -64.98264 C 162.6926 -63.996625 161.44764 -63.12669 160.12621 -62.385515 L 157.59958 -60.96835 C 156.1644 -60.16338 155.5836 -58.39425 156.26239 -56.895265 L 157.28 -54.64803 C 157.40158 -54.379545 157.52831 -54.11342 157.66012 -53.849804 L 159.4624 -50.245264 L 161.94938 -45.27129 C 162.29117 -44.5877 162.66683 -43.921566 163.07495 -43.275375 L 165.40134 -39.59192 C 165.84172 -38.894655 166.31928 -38.22158 166.83195 -37.575613 L 170.24264 -33.278153 C 170.7887 -32.590125 171.37371 -31.933944 171.99482 -31.312833 L 176.66087 -26.64679 C 177.06175 -26.24591 177.47731 -25.85999 177.9067 -25.489817 L 182.47023 -21.555744 C 182.8649 -21.215522 183.271 -20.88881 183.68785 -20.576173 L 187.66279 -17.594968 C 188.3287 -17.095533 189.02123 -16.632617 189.73733 -16.208263 L 193.8704 -13.75904 C 193.9984 -13.683191 194.12712 -13.608586 194.25656 -13.535235 L 198.9541 -10.873292 C 199.6924 -10.454927 200.45328 -10.077742 201.23325 -9.743466 L 204.78307 -8.222117 C 205.36903 -7.97099 205.96518 -7.744334 206.56997 -7.5427365 L 211.58808 -5.870034 C 212.83532 -5.454286 214.11592 -5.1462444 215.4158 -4.9492936 L 219.51464 -4.328256 C 219.87976 -4.272936 220.24615 -4.226417 220.6135 -4.1887396 L 227.4946 -3.4829854 C 227.73978 -3.4578392 227.98534 -3.4366355 228.2312 -3.4193825 L 232.75835 -3.1016896 C 233.2942 -3.0640854 233.83122 -3.045266 234.3684 -3.0452656 L 237.63046 -3.0452643 C 238.58416 -3.045264 239.53693 -3.1045814 240.48327 -3.222873 L 244.47198 -3.7214626 C 245.13195 -3.803958 245.78802 -3.915041 246.43835 -4.054398 L 252.5204 -5.357691 C 253.41426 -5.549236 254.29592 -5.793903 255.16068 -6.09039 L 259.66952 -7.636281 C 260.46417 -7.908731 261.2433 -8.224514 262.0034 -8.582207 L 266.83677 -10.856737 C 267.38697 -11.115653 267.92668 -11.396286 268.45464 -11.697975 L 272.2225 -13.851042 C 272.9153 -14.246922 273.587 -14.678585 274.23494 -15.14428 L 278.91106 -18.505246 C 279.41175 -18.865112 279.89776 -19.244967 280.3679 -19.64389 L 285.68877 -24.158555 C 286.0711 -24.48294 286.4427 -24.81974 286.803 -25.168416 L 291.5022 -29.716044 C 292.1418 -30.335002 292.7449 -30.990565 293.30852 -31.679424 L 297.1018 -36.31566 C 297.60852 -36.934974 298.08257 -37.58031 298.522 -38.249036 L 302.1392 -43.753436 C 302.35462 -44.08127 302.56163 -44.41456 302.76002 -44.75298 L 305.2831 -49.057076 C 305.66906 -49.71546 306.022 -50.392646 306.34062 -51.08612 L 308.4593 -55.69739 C 308.99218 -56.85715 309.36334 -58.084564 309.5624 -59.345265 L 309.5624 -59.345265 C 309.7407 -60.474526 309.1614 -61.587974 308.1343 -62.0901 L 302.84088 -64.678005 C 301.52642 -65.32063 300.29183 -66.11514 299.1624 -67.045265 L 298.7564 -67.379625 C 297.91205 -68.07496 297.28864 -69.00126 296.9624 -70.045265 L 296.9624 -70.045265 C 296.91573 -70.19458 296.75686 -70.2778 296.60754 -70.23114 C 296.49247 -70.19518 296.41277 -70.090315 296.40892 -69.96981 L 296.29968 -66.54689 C 296.20894 -63.70381 295.5916 -60.902236 294.479 -58.28433 L 293.60206 -56.22096 C 293.0435 -54.906686 292.36374 -53.64729 291.5716 -52.45909 L 287.88582 -46.930416 C 287.1383 -45.80915 286.2937 -44.75575 285.36175 -43.782376 L 279.0667 -37.20753 C 278.1986 -36.300875 277.25777 -35.466804 276.2536 -34.713673 L 267.8787 -28.432495 C 267.00228 -27.77518 266.08002 -27.181326 265.11896 -26.655463 L 257.93376 -22.723938 C 256.62263 -22.00653 255.2447 -21.418628 253.81952 -20.968568 L 247.1466 -18.861334 C 245.42973 -18.319163 243.65514 -17.980461 241.85927 -17.852185 L 234.97281 -17.360296 C 233.90052 -17.283703 232.82417 -17.282384 231.75168 -17.356348 L 223.31543 -17.93816 C 222.28125 -18.009482 221.25308 -18.15064 220.23795 -18.360667 L 213.10274 -19.836916 C 211.1508 -20.240769 209.25961 -20.896652 207.47676 -21.78808 L 202.81735 -24.117785 C 201.5832 -24.734853 200.4071 -25.461726 199.30326 -26.28961 L 193.6213 -30.55108 C 193.18217 -30.88043 192.75496 -31.225398 192.3405 -31.585317 L 186.58533 -36.583238 C 185.77104 -37.29038 185.0075 -38.05392 184.30036 -38.868206 L 179.89513 -43.94089 C 179.14103 -44.80925 178.45312 -45.73295 177.8372 -46.704217 L 174.1035 -52.59198 C 173.74293 -53.16056 173.4075 -53.744705 173.09819 -54.34272 L 171.47781 -57.47544 C 170.86867 -58.65312 170.3625 -59.881264 169.96497 -61.146155 L 168.68473 -65.21964 C 168.46995 -65.90302 168.28722 -66.596055 168.13713 -67.296485 L 167.9117 -68.34843 C 167.82664 -68.74544 168.053 -69.143094 168.4378 -69.27263 L 168.4378 -69.27263 C 168.5103 -69.29704 168.58884 -69.25805 168.61325 -69.18556 C 168.63126 -69.13205 168.615 -69.07296 168.57212 -69.03621 Z" fill="#001da1"/>
      <path d="M 168.57212 -69.03621 L 163.84295 -64.98264 C 162.6926 -63.996625 161.44764 -63.12669 160.12621 -62.385515 L 157.59958 -60.96835 C 156.1644 -60.16338 155.5836 -58.39425 156.26239 -56.895265 L 157.28 -54.64803 C 157.40158 -54.379545 157.52831 -54.11342 157.66012 -53.849804 L 159.4624 -50.245264 L 161.94938 -45.27129 C 162.29117 -44.5877 162.66683 -43.921566 163.07495 -43.275375 L 165.40134 -39.59192 C 165.84172 -38.894655 166.31928 -38.22158 166.83195 -37.575613 L 170.24264 -33.278153 C 170.7887 -32.590125 171.37371 -31.933944 171.99482 -31.312833 L 176.66087 -26.64679 C 177.06175 -26.24591 177.47731 -25.85999 177.9067 -25.489817 L 182.47023 -21.555744 C 182.8649 -21.215522 183.271 -20.88881 183.68785 -20.576173 L 187.66279 -17.594968 C 188.3287 -17.095533 189.02123 -16.632617 189.73733 -16.208263 L 193.8704 -13.75904 C 193.9984 -13.683191 194.12712 -13.608586 194.25656 -13.535235 L 198.9541 -10.873292 C 199.6924 -10.454927 200.45328 -10.077742 201.23325 -9.743466 L 204.78307 -8.222117 C 205.36903 -7.97099 205.96518 -7.744334 206.56997 -7.5427365 L 211.58808 -5.870034 C 212.83532 -5.454286 214.11592 -5.1462444 215.4158 -4.9492936 L 219.51464 -4.328256 C 219.87976 -4.272936 220.24615 -4.226417 220.6135 -4.1887396 L 227.4946 -3.4829854 C 227.73978 -3.4578392 227.98534 -3.4366355 228.2312 -3.4193825 L 232.75835 -3.1016896 C 233.2942 -3.0640854 233.83122 -3.045266 234.3684 -3.0452656 L 237.63046 -3.0452643 C 238.58416 -3.045264 239.53693 -3.1045814 240.48327 -3.222873 L 244.47198 -3.7214626 C 245.13195 -3.803958 245.78802 -3.915041 246.43835 -4.054398 L 252.5204 -5.357691 C 253.41426 -5.549236 254.29592 -5.793903 255.16068 -6.09039 L 259.66952 -7.636281 C 260.46417 -7.908731 261.2433 -8.224514 262.0034 -8.582207 L 266.83677 -10.856737 C 267.38697 -11.115653 267.92668 -11.396286 268.45464 -11.697975 L 272.2225 -13.851042 C 272.9153 -14.246922 273.587 -14.678585 274.23494 -15.14428 L 278.91106 -18.505246 C 279.41175 -18.865112 279.89776 -19.244967 280.3679 -19.64389 L 285.68877 -24.158555 C 286.0711 -24.48294 286.4427 -24.81974 286.803 -25.168416 L 291.5022 -29.716044 C 292.1418 -30.335002 292.7449 -30.990565 293.30852 -31.679424 L 297.1018 -36.31566 C 297.60852 -36.934974 298.08257 -37.58031 298.522 -38.249036 L 302.1392 -43.753436 C 302.35462 -44.08127 302.56163 -44.41456 302.76002 -44.75298 L 305.2831 -49.057076 C 305.66906 -49.71546 306.022 -50.392646 306.34062 -51.08612 L 308.4593 -55.69739 C 308.99218 -56.85715 309.36334 -58.084564 309.5624 -59.345265 L 309.5624 -59.345265 C 309.7407 -60.474526 309.1614 -61.587974 308.1343 -62.0901 L 302.84088 -64.678005 C 301.52642 -65.32063 300.29183 -66.11514 299.1624 -67.045265 L 298.7564 -67.379625 C 297.91205 -68.07496 297.28864 -69.00126 296.9624 -70.045265 L 296.9624 -70.045265 C 296.91573 -70.19458 296.75686 -70.2778 296.60754 -70.23114 C 296.49247 -70.19518 296.41277 -70.090315 296.40892 -69.96981 L 296.29968 -66.54689 C 296.20894 -63.70381 295.5916 -60.902236 294.479 -58.28433 L 293.60206 -56.22096 C 293.0435 -54.906686 292.36374 -53.64729 291.5716 -52.45909 L 287.88582 -46.930416 C 287.1383 -45.80915 286.2937 -44.75575 285.36175 -43.782376 L 279.0667 -37.20753 C 278.1986 -36.300875 277.25777 -35.466804 276.2536 -34.713673 L 267.8787 -28.432495 C 267.00228 -27.77518 266.08002 -27.181326 265.11896 -26.655463 L 257.93376 -22.723938 C 256.62263 -22.00653 255.2447 -21.418628 253.81952 -20.968568 L 247.1466 -18.861334 C 245.42973 -18.319163 243.65514 -17.980461 241.85927 -17.852185 L 234.97281 -17.360296 C 233.90052 -17.283703 232.82417 -17.282384 231.75168 -17.356348 L 223.31543 -17.93816 C 222.28125 -18.009482 221.25308 -18.15064 220.23795 -18.360667 L 213.10274 -19.836916 C 211.1508 -20.240769 209.25961 -20.896652 207.47676 -21.78808 L 202.81735 -24.117785 C 201.5832 -24.734853 200.4071 -25.461726 199.30326 -26.28961 L 193.6213 -30.55108 C 193.18217 -30.88043 192.75496 -31.225398 192.3405 -31.585317 L 186.58533 -36.583238 C 185.77104 -37.29038 185.0075 -38.05392 184.30036 -38.868206 L 179.89513 -43.94089 C 179.14103 -44.80925 178.45312 -45.73295 177.8372 -46.704217 L 174.1035 -52.59198 C 173.74293 -53.16056 173.4075 -53.744705 173.09819 -54.34272 L 171.47781 -57.47544 C 170.86867 -58.65312 170.3625 -59.881264 169.96497 -61.146155 L 168.68473 -65.21964 C 168.46995 -65.90302 168.28722 -66.596055 168.13713 -67.296485 L 167.9117 -68.34843 C 167.82664 -68.74544 168.053 -69.143094 168.4378 -69.27263 L 168.4378 -69.27263 C 168.5103 -69.29704 168.58884 -69.25805 168.61325 -69.18556 C 168.63126 -69.13205 168.615 -69.07296 168.57212 -69.03621 Z" stroke="#7f8080" stroke-linecap="round" stroke-linejoin="round" stroke-width="1"/>
      <path d="M 168.05925 -69.24411 L 173.45925 -69.84411 L 180.25925 -66.44411 L 185.25925 -64.64411 L 193.65925 -62.84411 L 202.05925 -61.84411 L 210.05925 -60.84411 L 217.65925 -60.64411 L 226.25925 -60.24411 L 237.85925 -60.44411 L 246.25925 -60.84411 L 255.65925 -61.44411 L 264.05925 -62.24411 L 273.25925 -63.64411 L 281.45925 -65.84411 L 287.25925 -67.64411 L 292.85925 -70.24411 L 295.65925 -69.04411 L 296.05925 -63.44411 L 293.25925 -55.44411 L 287.85925 -52.64411 L 277.25925 -49.44411 L 265.85925 -47.04411 L 254.65925 -46.24411 L 242.25925 -45.24411 L 231.85925 -45.24411 L 222.45925 -45.24411 L 210.85925 -45.84411 L 199.65925 -46.64411 L 189.05925 -48.84411 L 180.45925 -50.84411 L 174.25925 -53.64411 L 172.25925 -55.24411 L 169.05925 -62.84411 Z" fill="#00008b"/>
      <path d="M 168.05925 -69.24411 L 173.45925 -69.84411 L 180.25925 -66.44411 L 185.25925 -64.64411 L 193.65925 -62.84411 L 202.05925 -61.84411 L 210.05925 -60.84411 L 217.65925 -60.64411 L 226.25925 -60.24411 L 237.85925 -60.44411 L 246.25925 -60.84411 L 255.65925 -61.44411 L 264.05925 -62.24411 L 273.25925 -63.64411 L 281.45925 -65.84411 L 287.25925 -67.64411 L 292.85925 -70.24411 L 295.65925 -69.04411 L 296.05925 -63.44411 L 293.25925 -55.44411 L 287.85925 -52.64411 L 277.25925 -49.44411 L 265.85925 -47.04411 L 254.65925 -46.24411 L 242.25925 -45.24411 L 231.85925 -45.24411 L 222.45925 -45.24411 L 210.85925 -45.84411 L 199.65925 -46.64411 L 189.05925 -48.84411 L 180.45925 -50.84411 L 174.25925 -53.64411 L 172.25925 -55.24411 L 169.05925 -62.84411 Z" stroke="#7f8080" stroke-linecap="round" stroke-linejoin="round" stroke-width="1"/>
      <path d="M 97.81321 356.2 L 97.81321 356.2 C 97.74753 356.7255 97.81036 357.25905 97.9963 357.7549 L 98.64731 359.49092 C 98.82406 359.96227 99.05115 360.41318 99.32462 360.8358 L 100.29243 362.33153 C 100.83339 363.16756 101.54649 363.87855 102.38412 364.417 L 103.46217 365.11005 C 103.76243 365.30307 104.077 365.47285 104.40316 365.6179 L 105.72001 366.2035 C 106.31654 366.46876 106.94725 366.6493 107.59379 366.7398 L 116.60421 368.00126 C 116.6142 368.00265 116.6242 368.00403 116.6342 368.0054 L 128.3502 369.594 C 128.3962 369.60024 128.44226 369.606 128.48838 369.61134 L 138.77131 370.79783 C 138.80324 370.8015 138.83519 370.80498 138.86716 370.8082 L 152.57723 372.1991 C 152.60521 372.20193 152.63321 372.2046 152.66123 372.2071 L 163.76653 373.19865 C 163.80164 373.2018 163.83679 373.20466 163.87195 373.20726 L 174.55848 373.99886 C 174.59896 374.00185 174.63947 374.0045 174.68 374.0068 L 185.18798 374.6016 C 185.2088 374.60276 185.2296 374.60404 185.25042 374.6054 L 197.2932 375.3951 C 197.3772 375.4006 197.46129 375.4046 197.54543 375.40707 L 210.99256 375.80257 C 211.01032 375.8031 211.02809 375.8037 211.04585 375.80434 L 221.6897 376.19856 C 221.77603 376.20176 221.8624 376.20335 221.9488 376.20335 L 232.5578 376.20335 C 232.59874 376.20335 232.63967 376.2037 232.6806 376.20443 L 243.76702 376.39893 C 243.9351 376.4019 244.1032 376.39877 244.27106 376.3896 L 254.8923 375.81028 C 254.9769 375.80566 255.06157 375.8026 255.1463 375.80104 L 265.91085 375.60532 C 265.98308 375.604 266.0553 375.6016 266.12745 375.59803 L 278.14607 375.00695 C 278.19483 375.00455 278.24355 375.00165 278.29225 374.99823 L 289.5323 374.20945 C 289.59023 374.2054 289.64812 374.2006 289.70594 374.1951 L 302.1165 373.01313 C 302.18497 373.0066 302.25352 373.0011 302.32214 372.9966 L 314.25416 372.21418 C 314.36418 372.20696 314.474 372.19715 314.58355 372.18475 L 324.9959 371.006 C 325.01144 371.00423 325.02697 371.00242 325.0425 371.00056 L 334.9902 369.80683 C 335.00954 369.8045 335.02886 369.8021 335.04818 369.79963 L 348.88394 368.0221 C 348.98115 368.0096 349.0781 367.99507 349.1747 367.9785 L 355.7282 366.85506 C 355.92915 366.8206 356.13153 366.79495 356.33473 366.77817 L 359.56706 366.5112 C 360.4563 366.43775 361.3233 366.19497 362.12135 365.79594 L 363.60765 365.0528 C 364.20824 364.7525 364.7625 364.36735 365.2534 363.9092 L 366.5885 362.6631 C 367.1953 362.0967 367.65073 361.38747 367.9132 360.6 L 368.20805 359.71552 C 368.2781 359.5053 368.33817 359.29187 368.388 359.07595 L 368.8577 357.04056 C 368.89293 356.88792 368.8595 356.72752 368.7662 356.6017 L 368.7662 356.6017 C 368.67587 356.4798 368.52523 356.4183 368.3754 356.44214 L 359.89555 357.7912 C 359.84466 357.7993 359.79385 357.80796 359.74315 357.8172 L 346.7584 360.17805 C 346.6656 360.1949 346.5725 360.2099 346.4791 360.223 L 335.24943 361.7991 C 335.2293 361.80194 335.20914 361.80486 335.18902 361.80786 L 322.06643 363.76645 C 321.90167 363.79105 321.73608 363.80975 321.56998 363.82253 L 308.84517 364.80136 C 308.82786 364.8027 308.81055 364.80396 308.79323 364.80516 L 294.4531 365.801 C 294.4305 365.80257 294.4079 365.80403 294.3853 365.80538 L 281.08205 366.5996 C 281.04016 366.6021 280.99824 366.60423 280.9563 366.60597 L 266.76485 367.1973 C 266.66776 367.20133 266.5706 367.20335 266.47344 367.20335 L 253.2192 367.20335 L 240.67753 367.20335 C 240.63865 367.20335 240.59976 367.20368 240.56088 367.20433 L 228.8025 367.4003 C 228.68032 367.40234 228.55812 367.40117 228.436 367.3968 L 217.6024 367.0099 C 217.4803 367.00554 217.35809 367.00437 217.23591 367.0064 L 205.52127 367.20165 C 205.45323 367.2028 205.38518 367.20293 205.31713 367.20208 L 189.61484 367.0058 C 189.48444 367.00417 189.35411 366.9989 189.224 366.99 L 174.91423 366.00986 C 174.85088 366.00552 174.7876 366.00032 174.7244 365.99426 L 160.23339 364.6047 C 160.22393 364.6038 160.21448 364.6029 160.20503 364.60194 L 146.393 363.22073 C 146.27715 363.20915 146.16162 363.19468 146.0465 363.17733 L 131.73735 361.02116 C 131.65859 361.0093 131.57964 360.99877 131.50052 360.9896 L 117.98059 359.42207 C 117.87301 359.4096 117.76574 359.39463 117.65886 359.37718 L 108.26677 357.84377 C 108.10178 357.81684 107.9378 357.784 107.77516 357.7453 L 98.69756 355.58654 C 98.30925 355.4942 97.91959 355.73412 97.82724 356.12244 C 97.82116 356.14802 97.81647 356.1739 97.81321 356.2 Z" fill="yellow"/>
      <path d="M 97.81321 356.2 L 97.81321 356.2 C 97.74753 356.7255 97.81036 357.25905 97.9963 357.7549 L 98.64731 359.49092 C 98.82406 359.96227 99.05115 360.41318 99.32462 360.8358 L 100.29243 362.33153 C 100.83339 363.16756 101.54649 363.87855 102.38412 364.417 L 103.46217 365.11005 C 103.76243 365.30307 104.077 365.47285 104.40316 365.6179 L 105.72001 366.2035 C 106.31654 366.46876 106.94725 366.6493 107.59379 366.7398 L 116.60421 368.00126 C 116.6142 368.00265 116.6242 368.00403 116.6342 368.0054 L 128.3502 369.594 C 128.3962 369.60024 128.44226 369.606 128.48838 369.61134 L 138.77131 370.79783 C 138.80324 370.8015 138.83519 370.80498 138.86716 370.8082 L 152.57723 372.1991 C 152.60521 372.20193 152.63321 372.2046 152.66123 372.2071 L 163.76653 373.19865 C 163.80164 373.2018 163.83679 373.20466 163.87195 373.20726 L 174.55848 373.99886 C 174.59896 374.00185 174.63947 374.0045 174.68 374.0068 L 185.18798 374.6016 C 185.2088 374.60276 185.2296 374.60404 185.25042 374.6054 L 197.2932 375.3951 C 197.3772 375.4006 197.46129 375.4046 197.54543 375.40707 L 210.99256 375.80257 C 211.01032 375.8031 211.02809 375.8037 211.04585 375.80434 L 221.6897 376.19856 C 221.77603 376.20176 221.8624 376.20335 221.9488 376.20335 L 232.5578 376.20335 C 232.59874 376.20335 232.63967 376.2037 232.6806 376.20443 L 243.76702 376.39893 C 243.9351 376.4019 244.1032 376.39877 244.27106 376.3896 L 254.8923 375.81028 C 254.9769 375.80566 255.06157 375.8026 255.1463 375.80104 L 265.91085 375.60532 C 265.98308 375.604 266.0553 375.6016 266.12745 375.59803 L 278.14607 375.00695 C 278.19483 375.00455 278.24355 375.00165 278.29225 374.99823 L 289.5323 374.20945 C 289.59023 374.2054 289.64812 374.2006 289.70594 374.1951 L 302.1165 373.01313 C 302.18497 373.0066 302.25352 373.0011 302.32214 372.9966 L 314.25416 372.21418 C 314.36418 372.20696 314.474 372.19715 314.58355 372.18475 L 324.9959 371.006 C 325.01144 371.00423 325.02697 371.00242 325.0425 371.00056 L 334.9902 369.80683 C 335.00954 369.8045 335.02886 369.8021 335.04818 369.79963 L 348.88394 368.0221 C 348.98115 368.0096 349.0781 367.99507 349.1747 367.9785 L 355.7282 366.85506 C 355.92915 366.8206 356.13153 366.79495 356.33473 366.77817 L 359.56706 366.5112 C 360.4563 366.43775 361.3233 366.19497 362.12135 365.79594 L 363.60765 365.0528 C 364.20824 364.7525 364.7625 364.36735 365.2534 363.9092 L 366.5885 362.6631 C 367.1953 362.0967 367.65073 361.38747 367.9132 360.6 L 368.20805 359.71552 C 368.2781 359.5053 368.33817 359.29187 368.388 359.07595 L 368.8577 357.04056 C 368.89293 356.88792 368.8595 356.72752 368.7662 356.6017 L 368.7662 356.6017 C 368.67587 356.4798 368.52523 356.4183 368.3754 356.44214 L 359.89555 357.7912 C 359.84466 357.7993 359.79385 357.80796 359.74315 357.8172 L 346.7584 360.17805 C 346.6656 360.1949 346.5725 360.2099 346.4791 360.223 L 335.24943 361.7991 C 335.2293 361.80194 335.20914 361.80486 335.18902 361.80786 L 322.06643 363.76645 C 321.90167 363.79105 321.73608 363.80975 321.56998 363.82253 L 308.84517 364.80136 C 308.82786 364.8027 308.81055 364.80396 308.79323 364.80516 L 294.4531 365.801 C 294.4305 365.80257 294.4079 365.80403 294.3853 365.80538 L 281.08205 366.5996 C 281.04016 366.6021 280.99824 366.60423 280.9563 366.60597 L 266.76485 367.1973 C 266.66776 367.20133 266.5706 367.20335 266.47344 367.20335 L 253.2192 367.20335 L 240.67753 367.20335 C 240.63865 367.20335 240.59976 367.20368 240.56088 367.20433 L 228.8025 367.4003 C 228.68032 367.40234 228.55812 367.40117 228.436 367.3968 L 217.6024 367.0099 C 217.4803 367.00554 217.35809 367.00437 217.23591 367.0064 L 205.52127 367.20165 C 205.45323 367.2028 205.38518 367.20293 205.31713 367.20208 L 189.61484 367.0058 C 189.48444 367.00417 189.35411 366.9989 189.224 366.99 L 174.91423 366.00986 C 174.85088 366.00552 174.7876 366.00032 174.7244 365.99426 L 160.23339 364.6047 C 160.22393 364.6038 160.21448 364.6029 160.20503 364.60194 L 146.393 363.22073 C 146.27715 363.20915 146.16162 363.19468 146.0465 363.17733 L 131.73735 361.02116 C 131.65859 361.0093 131.57964 360.99877 131.50052 360.9896 L 117.98059 359.42207 C 117.87301 359.4096 117.76574 359.39463 117.65886 359.37718 L 108.26677 357.84377 C 108.10178 357.81684 107.9378 357.784 107.77516 357.7453 L 98.69756 355.58654 C 98.30925 355.4942 97.91959 355.73412 97.82724 356.12244 C 97.82116 356.14802 97.81647 356.1739 97.81321 356.2 Z" stroke="#7f8080" stroke-linecap="round" stroke-linejoin="round" stroke-width="1"/>
    </g>
  </g>
</svg>
