<?xml version="1.0" encoding="UTF-8" standalone="no"?>
<!DOCTYPE svg PUBLIC "-//W3C//DTD SVG 1.1//EN" "http://www.w3.org/Graphics/SVG/1.1/DTD/svg11.dtd">
<svg xmlns="http://www.w3.org/2000/svg" xmlns:xl="http://www.w3.org/1999/xlink" version="1.1" viewBox="-42.5 -230.5 432.4053 449.30915" width="432.4053pt" height="449.30915pt" xmlns:dc="http://purl.org/dc/elements/1.1/">
  <metadata> Produced by OmniGraffle 7.6.1 
    <dc:date>2019-05-26 05:01:42 +0000</dc:date>
  </metadata>
  <defs>
    <radialGradient cx="0" cy="0" r="1" id="Gradient" gradientUnits="userSpaceOnUse">
      <stop offset="0" stop-color="white"/>
      <stop offset="1" stop-color="black"/>
    </radialGradient>
    <radialGradient id="Obj_Gradient" xl:href="#Gradient" gradientTransform="translate(172.75925 -202.6) scale(70.26272)"/>
    <linearGradient x1="0" x2="1" id="Gradient_2" gradientUnits="userSpaceOnUse">
      <stop offset="0" stop-color="red"/>
      <stop offset="1" stop-color="#d0d0d0"/>
    </linearGradient>
    <linearGradient id="Obj_Gradient_2" xl:href="#Gradient_2" gradientTransform="translate(172.05925 -227.80915) rotate(90) scale(446.1183)"/>
  </defs>
  <g stroke="none" stroke-opacity="1" stroke-dasharray="none" fill="none" fill-opacity="1">
    <title>Benfica</title>
    <g>
      <title>Capa 1</title>
      <path d="M 111.00565 -229.40955 L 119.1711 -226.29184 C 120.0291 -225.96424 120.90594 -225.68833 121.79692 -225.46558 L 135.5141 -222.03629 C 136.67576 -221.74587 137.85832 -221.54662 139.051 -221.44034 L 156.57715 -219.8786 C 157.165 -219.82622 157.75464 -219.79648 158.34478 -219.78946 L 173.8237 -219.60519 C 174.11404 -219.60173 174.40442 -219.60377 174.69469 -219.6113 L 189.118 -219.98594 C 189.47878 -219.9953 189.8393 -220.01317 190.19924 -220.0395 L 204.57053 -221.09107 C 205.56197 -221.16361 206.54766 -221.30036 207.5214 -221.50044 L 219.09436 -223.87845 C 220.13637 -224.09256 221.16226 -224.3787 222.16465 -224.73481 L 233.91664 -228.90986 C 235.00702 -229.29723 236.21021 -228.76646 236.65925 -227.7 L 236.65925 -227.7 C 237.1814 -226.4599 237.33338 -225.09515 237.09685 -223.77055 L 236.91637 -222.75986 C 236.6126 -221.0587 236.11806 -219.3972 235.44214 -217.8068 L 233.89892 -214.1757 C 233.34035 -212.86142 232.6606 -211.60202 231.86846 -210.41382 L 228.18268 -204.88515 C 227.43517 -203.76389 226.59057 -202.71049 225.6586 -201.7371 L 219.36354 -195.16226 C 218.49547 -194.2556 217.55463 -193.42154 216.55046 -192.6684 L 208.17555 -186.38723 C 207.29914 -185.72992 206.37688 -185.13606 205.41582 -184.6102 L 198.23062 -180.67867 C 196.9195 -179.96126 195.54156 -179.37336 194.11638 -178.9233 L 187.44347 -176.81607 C 185.7266 -176.2739 183.952 -175.9352 182.15613 -175.80692 L 175.26968 -175.31503 C 174.19738 -175.23844 173.12103 -175.23712 172.04854 -175.31108 L 163.61229 -175.8929 C 162.57811 -175.96422 161.54994 -176.10537 160.5348 -176.3154 L 153.3996 -177.79165 C 151.44765 -178.1955 149.55647 -178.85139 147.77362 -179.74281 L 143.1142 -182.07252 C 141.88007 -182.68959 140.70397 -183.41646 139.60012 -184.24434 L 133.91816 -188.50581 C 133.47903 -188.83517 133.05182 -189.18013 132.63737 -189.54005 L 126.88219 -194.53797 C 126.0679 -195.24511 125.30436 -196.00865 124.59722 -196.82294 L 120.192 -201.89562 C 119.43789 -202.76398 118.74998 -203.68768 118.13406 -204.65895 L 114.40036 -210.5467 C 114.03979 -211.1153 113.70437 -211.69944 113.39505 -212.29745 L 111.77468 -215.43017 C 111.16553 -216.60785 110.65936 -217.836 110.26183 -219.1009 L 108.98159 -223.17438 C 108.76681 -223.85775 108.58408 -224.5508 108.43399 -225.25122 L 108.35925 -225.6 C 108.16458 -226.50843 108.27185 -227.45557 108.66473 -228.29746 L 108.75925 -228.5 C 109.15372 -229.3453 110.1342 -229.7423 111.00565 -229.40955 Z" fill="url(#Obj_Gradient)"/>
      <path d="M 111.00565 -229.40955 L 119.1711 -226.29184 C 120.0291 -225.96424 120.90594 -225.68833 121.79692 -225.46558 L 135.5141 -222.03629 C 136.67576 -221.74587 137.85832 -221.54662 139.051 -221.44034 L 156.57715 -219.8786 C 157.165 -219.82622 157.75464 -219.79648 158.34478 -219.78946 L 173.8237 -219.60519 C 174.11404 -219.60173 174.40442 -219.60377 174.69469 -219.6113 L 189.118 -219.98594 C 189.47878 -219.9953 189.8393 -220.01317 190.19924 -220.0395 L 204.57053 -221.09107 C 205.56197 -221.16361 206.54766 -221.30036 207.5214 -221.50044 L 219.09436 -223.87845 C 220.13637 -224.09256 221.16226 -224.3787 222.16465 -224.73481 L 233.91664 -228.90986 C 235.00702 -229.29723 236.21021 -228.76646 236.65925 -227.7 L 236.65925 -227.7 C 237.1814 -226.4599 237.33338 -225.09515 237.09685 -223.77055 L 236.91637 -222.75986 C 236.6126 -221.0587 236.11806 -219.3972 235.44214 -217.8068 L 233.89892 -214.1757 C 233.34035 -212.86142 232.6606 -211.60202 231.86846 -210.41382 L 228.18268 -204.88515 C 227.43517 -203.76389 226.59057 -202.71049 225.6586 -201.7371 L 219.36354 -195.16226 C 218.49547 -194.2556 217.55463 -193.42154 216.55046 -192.6684 L 208.17555 -186.38723 C 207.29914 -185.72992 206.37688 -185.13606 205.41582 -184.6102 L 198.23062 -180.67867 C 196.9195 -179.96126 195.54156 -179.37336 194.11638 -178.9233 L 187.44347 -176.81607 C 185.7266 -176.2739 183.952 -175.9352 182.15613 -175.80692 L 175.26968 -175.31503 C 174.19738 -175.23844 173.12103 -175.23712 172.04854 -175.31108 L 163.61229 -175.8929 C 162.57811 -175.96422 161.54994 -176.10537 160.5348 -176.3154 L 153.3996 -177.79165 C 151.44765 -178.1955 149.55647 -178.85139 147.77362 -179.74281 L 143.1142 -182.07252 C 141.88007 -182.68959 140.70397 -183.41646 139.60012 -184.24434 L 133.91816 -188.50581 C 133.47903 -188.83517 133.05182 -189.18013 132.63737 -189.54005 L 126.88219 -194.53797 C 126.0679 -195.24511 125.30436 -196.00865 124.59722 -196.82294 L 120.192 -201.89562 C 119.43789 -202.76398 118.74998 -203.68768 118.13406 -204.65895 L 114.40036 -210.5467 C 114.03979 -211.1153 113.70437 -211.69944 113.39505 -212.29745 L 111.77468 -215.43017 C 111.16553 -216.60785 110.65936 -217.836 110.26183 -219.1009 L 108.98159 -223.17438 C 108.76681 -223.85775 108.58408 -224.5508 108.43399 -225.25122 L 108.35925 -225.6 C 108.16458 -226.50843 108.27185 -227.45557 108.66473 -228.29746 L 108.75925 -228.5 C 109.15372 -229.3453 110.1342 -229.7423 111.00565 -229.40955 Z" stroke="#7f8080" stroke-linecap="round" stroke-linejoin="round" stroke-width="1"/>
      <path d="M 45.33006 208.17293 L 59.0723 210.4633 C 59.255676 210.49387 59.43957 210.52123 59.6239 210.54538 L 87.97754 214.2607 C 88.22407 214.293 88.47132 214.31955 88.71908 214.34033 L 118.96197 216.87683 C 119.21888 216.89837 119.47627 216.9137 119.73391 216.92282 L 158.66482 218.29916 C 158.85318 218.30582 159.04165 218.30915 159.23013 218.30915 L 190.69745 218.30915 C 190.86406 218.30915 191.03067 218.30655 191.1972 218.30134 L 216.232 217.519 C 216.44224 217.51244 216.65233 217.50172 216.86215 217.48687 L 238.9099 215.92596 C 239.06822 215.91476 239.22636 215.9012 239.38427 215.88528 L 264.64475 213.33965 C 264.8465 213.31932 265.04783 213.29516 265.24865 213.26717 L 289.04134 209.9518 C 289.24535 209.92337 289.4488 209.891 289.65156 209.85472 L 298.8474 208.20915 C 304.1745 207.25588 307.82536 202.30223 307.15895 196.9317 L 304.95136 179.14113 C 304.9487 179.1198 304.9461 179.09849 304.94355 179.07716 L 301.37973 149.37863 C 301.35817 149.19899 301.33966 149.019 301.3242 148.83873 L 298.962 121.27952 C 298.95226 121.16594 298.94374 121.05227 298.93643 120.93851 L 297.5498 99.34687 C 297.5482 99.32172 297.54652 99.29658 297.5448 99.27144 L 295.95263 76.18513 C 295.94914 76.13448 295.9459 76.08381 295.94287 76.03312 L 294.7665 56.23095 C 294.75376 56.01644 294.74534 55.80169 294.74125 55.586836 L 294.34897 34.991998 C 294.3479 34.936765 294.34658 34.88154 294.34495 34.82632 L 293.74983 14.591977 C 293.7482 14.536758 293.74686 14.481531 293.7458 14.426298 L 293.35515 -6.083243 C 293.34998 -6.354939 293.35173 -6.626722 293.3604 -6.898328 L 293.94634 -25.257938 C 293.94704 -25.27988 293.9478 -25.301823 293.94857 -25.323763 L 294.73666 -47.19307 C 294.7438 -47.391575 294.75466 -47.58993 294.7692 -47.78803 L 296.32668 -69.00865 C 296.3405 -69.19677 296.35096 -69.38512 296.3581 -69.573615 L 297.11256 -89.47248 C 297.13576 -90.08423 297.19404 -90.69414 297.28713 -91.2992 L 300.02613 -109.10272 C 300.1069 -109.62782 300.2138 -110.14857 300.3464 -110.66303 L 304.97466 -128.62068 C 305.08976 -129.06725 305.2241 -129.50864 305.37734 -129.94361 L 311.09812 -146.18325 C 311.2642 -146.65473 311.4523 -147.11816 311.66178 -147.57203 L 317.19333 -159.55707 C 317.29602 -159.77956 317.4038 -159.99967 317.5166 -160.21721 L 322.87883 -170.55864 C 322.92454 -170.64678 322.97106 -170.7345 323.0184 -170.82177 L 328.23437 -180.43873 C 328.97165 -181.7981 329.9213 -183.031 331.0474 -184.09086 L 331.0474 -184.09086 C 331.72258 -184.72633 331.75478 -185.78883 331.1193 -186.46402 C 330.9948 -186.5963 330.84967 -186.7075 330.68955 -186.79327 L 327.4754 -188.51513 C 327.25676 -188.63226 327.0354 -188.7443 326.81155 -188.85114 L 318.95757 -192.59963 C 318.55096 -192.7937 318.13634 -192.9705 317.7148 -193.12956 L 308.03998 -196.78044 C 307.84494 -196.85404 307.64848 -196.92383 307.4507 -196.98975 L 294.75623 -201.22124 C 294.617 -201.26765 294.47716 -201.31214 294.3367 -201.3547 L 281.4532 -205.2588 C 281.38266 -205.28017 281.31227 -205.30203 281.24205 -205.32437 L 268.73805 -209.30292 C 268.34442 -209.42816 267.9558 -209.5686 267.57304 -209.72393 L 255.5971 -214.58373 C 254.76543 -214.92122 253.96364 -215.32808 253.2002 -215.80002 L 243.58096 -221.74647 C 243.42526 -221.84272 243.27122 -221.94164 243.1189 -222.04317 L 238.2288 -225.30324 C 237.24742 -225.9575 236.3761 -226.7634 235.6474 -227.69086 L 235.6474 -227.69086 C 235.54178 -227.82526 235.34722 -227.8486 235.21282 -227.743 C 235.11007 -227.66228 235.0691 -227.52573 235.11042 -227.40177 L 235.2474 -226.99086 C 235.70664 -225.6131 235.8112 -224.14182 235.5514 -222.71297 L 235.15627 -220.5397 C 234.88506 -219.04804 234.4032 -217.6025 233.72519 -216.24645 L 232.19287 -213.18182 C 231.89617 -212.58842 231.56285 -212.01405 231.19484 -211.46203 L 227.99113 -206.65647 C 227.56253 -206.01357 227.08792 -205.40256 226.57104 -204.82824 L 222.009 -199.7593 C 221.96792 -199.71367 221.9266 -199.66828 221.885 -199.62312 L 215.89077 -193.1151 C 215.26303 -192.43356 214.57728 -191.80783 213.84125 -191.24498 L 208.81707 -187.40297 C 208.37093 -187.0618 207.90712 -186.74435 207.4276 -186.45195 L 200.94119 -182.49683 C 200.27953 -182.09338 199.58943 -181.73853 198.87635 -181.4351 L 191.76094 -178.40726 C 190.95327 -178.06357 190.1187 -177.78693 189.26566 -177.58013 L 185.1866 -176.59127 C 184.36177 -176.3913 183.52233 -176.2573 182.67624 -176.1905 L 176.97603 -175.74048 C 176.5571 -175.70741 176.13702 -175.69086 175.71679 -175.69086 L 168.68447 -175.69086 C 167.92737 -175.69086 167.17122 -175.7446 166.42173 -175.85166 L 158.47528 -176.98687 C 157.99027 -177.05616 157.5087 -177.14768 157.0321 -177.26116 L 151.07087 -178.6805 C 149.92538 -178.95324 148.8135 -179.3516 147.75543 -179.86832 L 141.47543 -182.9353 C 140.99038 -183.17218 140.51763 -183.43346 140.05899 -183.71814 L 135.84712 -186.3324 C 135.24795 -186.7043 134.67403 -187.1154 134.1291 -187.56302 L 129.683 -191.21518 C 129.4593 -191.39893 129.24063 -191.58872 129.02723 -191.78433 L 125.22489 -195.26981 C 124.77359 -195.6835 124.34641 -196.12275 123.94546 -196.5854 L 119.82671 -201.3378 C 119.50733 -201.7063 119.20496 -202.08923 118.92056 -202.48537 L 114.4909 -208.65525 C 113.99601 -209.34456 113.55674 -210.07215 113.17725 -210.83114 L 110.60078 -215.98406 C 110.56519 -216.05526 110.53012 -216.12672 110.49559 -216.19843 L 109.24739 -218.79086 C 108.39667 -220.55772 108.04115 -222.52226 108.21869 -224.47521 L 108.3989 -226.45747 C 108.4227 -226.71933 108.22972 -226.9509 107.96786 -226.97472 C 107.80546 -226.98948 107.64681 -226.9201 107.54739 -226.79086 L 107.54739 -226.79086 C 106.88394 -225.92838 106.10383 -225.1623 105.22945 -224.5146 L 101.33292 -221.6283 C 101.20924 -221.53667 101.08424 -221.44684 100.95796 -221.35883 L 96.33571 -218.13726 C 95.14898 -217.31015 93.85556 -216.64778 92.49081 -216.16827 L 87.88368 -214.54955 C 87.39311 -214.3772 86.91123 -214.18102 86.43976 -213.96173 L 79.59298 -210.77718 C 78.89682 -210.45338 78.17826 -210.18012 77.44286 -209.9595 L 66.57247 -206.69838 C 66.55575 -206.69336 66.53903 -206.68832 66.52233 -206.68325 L 55.55424 -203.35365 C 55.416343 -203.3118 55.27902 -203.26807 55.1423 -203.2225 L 42.22107 -198.91542 C 42.171946 -198.89904 42.122746 -198.8829 42.07347 -198.867 L 30.70606 -195.2001 C 30.067576 -194.99414 29.442677 -194.74823 28.835064 -194.4638 L 20.9031 -190.75098 C 20.53276 -190.57763 20.1692 -190.39014 19.813224 -190.18894 L 13.86711 -186.8281 C 12.614076 -186.11985 12.17243 -184.52993 12.880667 -183.2769 C 12.957785 -183.14046 13.047052 -183.01125 13.147385 -182.89086 L 14.011496 -181.85392 C 14.766441 -180.94799 15.418917 -179.96137 15.957035 -178.91204 L 19.034173 -172.91162 C 19.109643 -172.76445 19.18739 -172.61846 19.267387 -172.4737 L 23.22214 -165.31749 C 23.30563 -165.1664 23.386672 -165.01399 23.46523 -164.86029 L 27.573535 -156.8223 C 27.822604 -156.335 28.046507 -155.83522 28.24436 -155.32497 L 31.72713 -146.34309 C 31.740633 -146.30827 31.75426 -146.27349 31.768005 -146.23876 L 35.364328 -137.15332 C 35.486337 -136.84508 35.598736 -136.53313 35.701365 -136.21792 L 38.3232 -128.16514 C 38.339323 -128.11562 38.355205 -128.06601 38.370844 -128.01634 L 41.442893 -118.25807 C 41.645684 -117.6139 41.80749 -116.95755 41.927337 -116.29294 L 43.91265 -105.28348 C 43.935806 -105.15507 43.95739 -105.02638 43.9774 -104.89743 L 45.68327 -93.90405 C 45.726006 -93.62863 45.76154 -93.35215 45.78983 -93.07487 L 46.67725 -84.37816 C 46.723986 -83.92017 46.75093 -83.46038 46.758013 -83.00006 L 46.942253 -71.02444 C 46.945674 -70.80207 46.95373 -70.5798 46.96642 -70.35777 L 47.736794 -56.87621 C 47.743855 -56.75264 47.75235 -56.62916 47.762275 -56.505795 L 49.095845 -39.931423 C 49.13019 -39.50455 49.147385 -39.076467 49.147385 -38.648213 L 49.147385 -26.19843 C 49.147385 -25.993398 49.151326 -25.788383 49.159207 -25.5835 L 49.73956 -10.494364 C 49.744776 -10.358695 49.748267 -10.222966 49.75003 -10.087208 L 49.94219 4.709047 C 49.94565 4.975739 49.94245 5.242476 49.932576 5.509008 L 49.35835 21.013156 C 49.35104 21.210467 49.347385 21.407896 49.347385 21.605343 L 49.347385 35.20157 C 49.347385 35.406603 49.343444 35.611618 49.335564 35.8165 L 48.75037 51.0315 C 48.74838 51.083266 48.74614 51.13502 48.743645 51.18676 L 47.94832 67.6897 C 47.9477 67.702665 47.947057 67.71563 47.9464 67.7286 L 47.15191 83.41976 C 47.148894 83.47935 47.145543 83.53893 47.14186 83.59848 L 45.95295 102.81921 C 45.94924 102.87917 45.945193 102.9391 45.94081 102.99902 L 44.15767 127.36857 C 44.150814 127.46229 44.14313 127.55594 44.134623 127.64953 L 42.34873 147.29434 C 42.347834 147.30421 42.346927 147.31409 42.34601 147.32396 L 40.575247 166.40886 C 40.556674 166.60904 40.53433 166.80884 40.508227 167.00818 L 38.547514 181.9809 C 38.414703 182.99509 38.14556 183.9867 37.747385 184.92888 L 37.747385 184.92888 C 37.34981 185.86962 37.10114 186.86654 37.010317 187.8838 L 36.247385 196.42888 C 35.73963 202.1159 39.698094 207.23427 45.33006 208.17293 Z" fill="url(#Obj_Gradient_2)"/>
      <path d="M 45.33006 208.17293 L 59.0723 210.4633 C 59.255676 210.49387 59.43957 210.52123 59.6239 210.54538 L 87.97754 214.2607 C 88.22407 214.293 88.47132 214.31955 88.71908 214.34033 L 118.96197 216.87683 C 119.21888 216.89837 119.47627 216.9137 119.73391 216.92282 L 158.66482 218.29916 C 158.85318 218.30582 159.04165 218.30915 159.23013 218.30915 L 190.69745 218.30915 C 190.86406 218.30915 191.03067 218.30655 191.1972 218.30134 L 216.232 217.519 C 216.44224 217.51244 216.65233 217.50172 216.86215 217.48687 L 238.9099 215.92596 C 239.06822 215.91476 239.22636 215.9012 239.38427 215.88528 L 264.64475 213.33965 C 264.8465 213.31932 265.04783 213.29516 265.24865 213.26717 L 289.04134 209.9518 C 289.24535 209.92337 289.4488 209.891 289.65156 209.85472 L 298.8474 208.20915 C 304.1745 207.25588 307.82536 202.30223 307.15895 196.9317 L 304.95136 179.14113 C 304.9487 179.1198 304.9461 179.09849 304.94355 179.07716 L 301.37973 149.37863 C 301.35817 149.19899 301.33966 149.019 301.3242 148.83873 L 298.962 121.27952 C 298.95226 121.16594 298.94374 121.05227 298.93643 120.93851 L 297.5498 99.34687 C 297.5482 99.32172 297.54652 99.29658 297.5448 99.27144 L 295.95263 76.18513 C 295.94914 76.13448 295.9459 76.08381 295.94287 76.03312 L 294.7665 56.23095 C 294.75376 56.01644 294.74534 55.80169 294.74125 55.586836 L 294.34897 34.991998 C 294.3479 34.936765 294.34658 34.88154 294.34495 34.82632 L 293.74983 14.591977 C 293.7482 14.536758 293.74686 14.481531 293.7458 14.426298 L 293.35515 -6.083243 C 293.34998 -6.354939 293.35173 -6.626722 293.3604 -6.898328 L 293.94634 -25.257938 C 293.94704 -25.27988 293.9478 -25.301823 293.94857 -25.323763 L 294.73666 -47.19307 C 294.7438 -47.391575 294.75466 -47.58993 294.7692 -47.78803 L 296.32668 -69.00865 C 296.3405 -69.19677 296.35096 -69.38512 296.3581 -69.573615 L 297.11256 -89.47248 C 297.13576 -90.08423 297.19404 -90.69414 297.28713 -91.2992 L 300.02613 -109.10272 C 300.1069 -109.62782 300.2138 -110.14857 300.3464 -110.66303 L 304.97466 -128.62068 C 305.08976 -129.06725 305.2241 -129.50864 305.37734 -129.94361 L 311.09812 -146.18325 C 311.2642 -146.65473 311.4523 -147.11816 311.66178 -147.57203 L 317.19333 -159.55707 C 317.29602 -159.77956 317.4038 -159.99967 317.5166 -160.21721 L 322.87883 -170.55864 C 322.92454 -170.64678 322.97106 -170.7345 323.0184 -170.82177 L 328.23437 -180.43873 C 328.97165 -181.7981 329.9213 -183.031 331.0474 -184.09086 L 331.0474 -184.09086 C 331.72258 -184.72633 331.75478 -185.78883 331.1193 -186.46402 C 330.9948 -186.5963 330.84967 -186.7075 330.68955 -186.79327 L 327.4754 -188.51513 C 327.25676 -188.63226 327.0354 -188.7443 326.81155 -188.85114 L 318.95757 -192.59963 C 318.55096 -192.7937 318.13634 -192.9705 317.7148 -193.12956 L 308.03998 -196.78044 C 307.84494 -196.85404 307.64848 -196.92383 307.4507 -196.98975 L 294.75623 -201.22124 C 294.617 -201.26765 294.47716 -201.31214 294.3367 -201.3547 L 281.4532 -205.2588 C 281.38266 -205.28017 281.31227 -205.30203 281.24205 -205.32437 L 268.73805 -209.30292 C 268.34442 -209.42816 267.9558 -209.5686 267.57304 -209.72393 L 255.5971 -214.58373 C 254.76543 -214.92122 253.96364 -215.32808 253.2002 -215.80002 L 243.58096 -221.74647 C 243.42526 -221.84272 243.27122 -221.94164 243.1189 -222.04317 L 238.2288 -225.30324 C 237.24742 -225.9575 236.3761 -226.7634 235.6474 -227.69086 L 235.6474 -227.69086 C 235.54178 -227.82526 235.34722 -227.8486 235.21282 -227.743 C 235.11007 -227.66228 235.0691 -227.52573 235.11042 -227.40177 L 235.2474 -226.99086 C 235.70664 -225.6131 235.8112 -224.14182 235.5514 -222.71297 L 235.15627 -220.5397 C 234.88506 -219.04804 234.4032 -217.6025 233.72519 -216.24645 L 232.19287 -213.18182 C 231.89617 -212.58842 231.56285 -212.01405 231.19484 -211.46203 L 227.99113 -206.65647 C 227.56253 -206.01357 227.08792 -205.40256 226.57104 -204.82824 L 222.009 -199.7593 C 221.96792 -199.71367 221.9266 -199.66828 221.885 -199.62312 L 215.89077 -193.1151 C 215.26303 -192.43356 214.57728 -191.80783 213.84125 -191.24498 L 208.81707 -187.40297 C 208.37093 -187.0618 207.90712 -186.74435 207.4276 -186.45195 L 200.94119 -182.49683 C 200.27953 -182.09338 199.58943 -181.73853 198.87635 -181.4351 L 191.76094 -178.40726 C 190.95327 -178.06357 190.1187 -177.78693 189.26566 -177.58013 L 185.1866 -176.59127 C 184.36177 -176.3913 183.52233 -176.2573 182.67624 -176.1905 L 176.97603 -175.74048 C 176.5571 -175.70741 176.13702 -175.69086 175.71679 -175.69086 L 168.68447 -175.69086 C 167.92737 -175.69086 167.17122 -175.7446 166.42173 -175.85166 L 158.47528 -176.98687 C 157.99027 -177.05616 157.5087 -177.14768 157.0321 -177.26116 L 151.07087 -178.6805 C 149.92538 -178.95324 148.8135 -179.3516 147.75543 -179.86832 L 141.47543 -182.9353 C 140.99038 -183.17218 140.51763 -183.43346 140.05899 -183.71814 L 135.84712 -186.3324 C 135.24795 -186.7043 134.67403 -187.1154 134.1291 -187.56302 L 129.683 -191.21518 C 129.4593 -191.39893 129.24063 -191.58872 129.02723 -191.78433 L 125.22489 -195.26981 C 124.77359 -195.6835 124.34641 -196.12275 123.94546 -196.5854 L 119.82671 -201.3378 C 119.50733 -201.7063 119.20496 -202.08923 118.92056 -202.48537 L 114.4909 -208.65525 C 113.99601 -209.34456 113.55674 -210.07215 113.17725 -210.83114 L 110.60078 -215.98406 C 110.56519 -216.05526 110.53012 -216.12672 110.49559 -216.19843 L 109.24739 -218.79086 C 108.39667 -220.55772 108.04115 -222.52226 108.21869 -224.47521 L 108.3989 -226.45747 C 108.4227 -226.71933 108.22972 -226.9509 107.96786 -226.97472 C 107.80546 -226.98948 107.64681 -226.9201 107.54739 -226.79086 L 107.54739 -226.79086 C 106.88394 -225.92838 106.10383 -225.1623 105.22945 -224.5146 L 101.33292 -221.6283 C 101.20924 -221.53667 101.08424 -221.44684 100.95796 -221.35883 L 96.33571 -218.13726 C 95.14898 -217.31015 93.85556 -216.64778 92.49081 -216.16827 L 87.88368 -214.54955 C 87.39311 -214.3772 86.91123 -214.18102 86.43976 -213.96173 L 79.59298 -210.77718 C 78.89682 -210.45338 78.17826 -210.18012 77.44286 -209.9595 L 66.57247 -206.69838 C 66.55575 -206.69336 66.53903 -206.68832 66.52233 -206.68325 L 55.55424 -203.35365 C 55.416343 -203.3118 55.27902 -203.26807 55.1423 -203.2225 L 42.22107 -198.91542 C 42.171946 -198.89904 42.122746 -198.8829 42.07347 -198.867 L 30.70606 -195.2001 C 30.067576 -194.99414 29.442677 -194.74823 28.835064 -194.4638 L 20.9031 -190.75098 C 20.53276 -190.57763 20.1692 -190.39014 19.813224 -190.18894 L 13.86711 -186.8281 C 12.614076 -186.11985 12.17243 -184.52993 12.880667 -183.2769 C 12.957785 -183.14046 13.047052 -183.01125 13.147385 -182.89086 L 14.011496 -181.85392 C 14.766441 -180.94799 15.418917 -179.96137 15.957035 -178.91204 L 19.034173 -172.91162 C 19.109643 -172.76445 19.18739 -172.61846 19.267387 -172.4737 L 23.22214 -165.31749 C 23.30563 -165.1664 23.386672 -165.01399 23.46523 -164.86029 L 27.573535 -156.8223 C 27.822604 -156.335 28.046507 -155.83522 28.24436 -155.32497 L 31.72713 -146.34309 C 31.740633 -146.30827 31.75426 -146.27349 31.768005 -146.23876 L 35.364328 -137.15332 C 35.486337 -136.84508 35.598736 -136.53313 35.701365 -136.21792 L 38.3232 -128.16514 C 38.339323 -128.11562 38.355205 -128.06601 38.370844 -128.01634 L 41.442893 -118.25807 C 41.645684 -117.6139 41.80749 -116.95755 41.927337 -116.29294 L 43.91265 -105.28348 C 43.935806 -105.15507 43.95739 -105.02638 43.9774 -104.89743 L 45.68327 -93.90405 C 45.726006 -93.62863 45.76154 -93.35215 45.78983 -93.07487 L 46.67725 -84.37816 C 46.723986 -83.92017 46.75093 -83.46038 46.758013 -83.00006 L 46.942253 -71.02444 C 46.945674 -70.80207 46.95373 -70.5798 46.96642 -70.35777 L 47.736794 -56.87621 C 47.743855 -56.75264 47.75235 -56.62916 47.762275 -56.505795 L 49.095845 -39.931423 C 49.13019 -39.50455 49.147385 -39.076467 49.147385 -38.648213 L 49.147385 -26.19843 C 49.147385 -25.993398 49.151326 -25.788383 49.159207 -25.5835 L 49.73956 -10.494364 C 49.744776 -10.358695 49.748267 -10.222966 49.75003 -10.087208 L 49.94219 4.709047 C 49.94565 4.975739 49.94245 5.242476 49.932576 5.509008 L 49.35835 21.013156 C 49.35104 21.210467 49.347385 21.407896 49.347385 21.605343 L 49.347385 35.20157 C 49.347385 35.406603 49.343444 35.611618 49.335564 35.8165 L 48.75037 51.0315 C 48.74838 51.083266 48.74614 51.13502 48.743645 51.18676 L 47.94832 67.6897 C 47.9477 67.702665 47.947057 67.71563 47.9464 67.7286 L 47.15191 83.41976 C 47.148894 83.47935 47.145543 83.53893 47.14186 83.59848 L 45.95295 102.81921 C 45.94924 102.87917 45.945193 102.9391 45.94081 102.99902 L 44.15767 127.36857 C 44.150814 127.46229 44.14313 127.55594 44.134623 127.64953 L 42.34873 147.29434 C 42.347834 147.30421 42.346927 147.31409 42.34601 147.32396 L 40.575247 166.40886 C 40.556674 166.60904 40.53433 166.80884 40.508227 167.00818 L 38.547514 181.9809 C 38.414703 182.99509 38.14556 183.9867 37.747385 184.92888 L 37.747385 184.92888 C 37.34981 185.86962 37.10114 186.86654 37.010317 187.8838 L 36.247385 196.42888 C 35.73963 202.1159 39.698094 207.23427 45.33006 208.17293 Z" stroke="#7f8080" stroke-linecap="round" stroke-linejoin="round" stroke-width="1"/>
      <path d="M -42 -78.55385 L -35.8 -74.15385 L -27.6 -70.153854 L -19 -66.553854 L -10 -62.753854 L 1.0000006 -58.753854 L 10.400001 -55.953854 L 19.4 -53.353854 L 28.4 -50.753854 L 33.8 -49.353854 L 39.4 -48.353854 L 41.8 -54.153854 L 44.4 -59.553854 L 46.6 -63.553854 L 49.2 -66.953854 L 49.4 -75.95385 L 48.8 -86.95385 L 47 -97.75385 L 45.4 -108.15385 L 42.8 -119.15386 L 40.4 -128.75386 L 37.6 -136.75386 L 34.4 -146.15386 L 31.6 -153.55386 L 28 -161.15386 L 24 -168.75386 L 20 -176.15386 L 17.4 -179.75386 L 13.800001 -185.55386 L 8.400001 -181.15386 L 3.6000007 -176.35386 L -.9999994 -170.15386 L -5.3999995 -163.95386 L -10.2 -155.35386 L -15 -145.95386 L -19.8 -136.75386 L -23.4 -128.15386 L -27.4 -119.15386 L -30.6 -110.95385 L -34.4 -101.55385 L -37.2 -93.55385 L -40.2 -85.15385 Z" fill="red"/>
      <path d="M -42 -78.55385 L -35.8 -74.15385 L -27.6 -70.153854 L -19 -66.553854 L -10 -62.753854 L 1.0000006 -58.753854 L 10.400001 -55.953854 L 19.4 -53.353854 L 28.4 -50.753854 L 33.8 -49.353854 L 39.4 -48.353854 L 41.8 -54.153854 L 44.4 -59.553854 L 46.6 -63.553854 L 49.2 -66.953854 L 49.4 -75.95385 L 48.8 -86.95385 L 47 -97.75385 L 45.4 -108.15385 L 42.8 -119.15386 L 40.4 -128.75386 L 37.6 -136.75386 L 34.4 -146.15386 L 31.6 -153.55386 L 28 -161.15386 L 24 -168.75386 L 20 -176.15386 L 17.4 -179.75386 L 13.800001 -185.55386 L 8.400001 -181.15386 L 3.6000007 -176.35386 L -.9999994 -170.15386 L -5.3999995 -163.95386 L -10.2 -155.35386 L -15 -145.95386 L -19.8 -136.75386 L -23.4 -128.15386 L -27.4 -119.15386 L -30.6 -110.95385 L -34.4 -101.55385 L -37.2 -93.55385 L -40.2 -85.15385 Z" stroke="#7f8080" stroke-linecap="round" stroke-linejoin="round" stroke-width="1"/>
      <path d="M 389.4053 -79.49725 L 383.2053 -75.09725 L 375.0053 -71.09725 L 366.4053 -67.49725 L 357.4053 -63.69725 L 346.4053 -59.69725 L 337.0053 -56.89725 L 328.0053 -54.29725 L 319.0053 -51.69725 L 313.6053 -50.29725 L 308.0053 -49.29725 L 305.6053 -55.09725 L 303.0053 -60.49725 L 300.8053 -64.49725 L 298.2053 -67.89725 L 298.0053 -76.89725 L 298.6053 -87.89725 L 300.4053 -98.69725 L 302.0053 -109.09725 L 304.6053 -120.09725 L 307.0053 -129.69725 L 309.8053 -137.69725 L 313.0053 -147.09725 L 315.8053 -154.49725 L 319.4053 -162.09725 L 323.4053 -169.69725 L 327.4053 -177.09725 L 330.0053 -180.69725 L 333.6053 -186.49725 L 339.0053 -182.09725 L 343.8053 -177.29725 L 348.4053 -171.09725 L 352.8053 -164.89725 L 357.6053 -156.29725 L 362.4053 -146.89725 L 367.2053 -137.69725 L 370.8053 -129.09725 L 374.8053 -120.09725 L 378.0053 -111.89725 L 381.8053 -102.49725 L 384.6053 -94.49725 L 387.6053 -86.09725 Z" fill="red"/>
      <path d="M 389.4053 -79.49725 L 383.2053 -75.09725 L 375.0053 -71.09725 L 366.4053 -67.49725 L 357.4053 -63.69725 L 346.4053 -59.69725 L 337.0053 -56.89725 L 328.0053 -54.29725 L 319.0053 -51.69725 L 313.6053 -50.29725 L 308.0053 -49.29725 L 305.6053 -55.09725 L 303.0053 -60.49725 L 300.8053 -64.49725 L 298.2053 -67.89725 L 298.0053 -76.89725 L 298.6053 -87.89725 L 300.4053 -98.69725 L 302.0053 -109.09725 L 304.6053 -120.09725 L 307.0053 -129.69725 L 309.8053 -137.69725 L 313.0053 -147.09725 L 315.8053 -154.49725 L 319.4053 -162.09725 L 323.4053 -169.69725 L 327.4053 -177.09725 L 330.0053 -180.69725 L 333.6053 -186.49725 L 339.0053 -182.09725 L 343.8053 -177.29725 L 348.4053 -171.09725 L 352.8053 -164.89725 L 357.6053 -156.29725 L 362.4053 -146.89725 L 367.2053 -137.69725 L 370.8053 -129.09725 L 374.8053 -120.09725 L 378.0053 -111.89725 L 381.8053 -102.49725 L 384.6053 -94.49725 L 387.6053 -86.09725 Z" stroke="#7f8080" stroke-linecap="round" stroke-linejoin="round" stroke-width="1"/>
      <path d="M -42 -78.55385 L -35.8 -74.15385 L -27.6 -70.153854 L -19 -66.553854 L -10 -62.753854 L 1.0000006 -58.753854 L 10.400001 -55.953854 L 19.4 -53.353854 L 28.4 -50.753854 L 33.8 -49.353854 L 39.4 -48.353854 L 42.4 -54.753854 L 38.6 -55.553854 L 33.8 -56.753854 L 28.2 -57.953854 L 22.2 -59.753854 L 17.6 -61.153854 L 13.400001 -62.353854 L 8.800001 -64.353854 L 4.2000007 -65.953854 L -.5999994 -67.953854 L -4.5999994 -69.353854 L -9.8 -71.553854 L -14.4 -73.15385 L -19.2 -75.35385 L -24 -77.15385 L -28 -79.15385 L -32.4 -81.35385 L -36.8 -83.55385 L -40.2 -85.15385 Z" fill="white"/>
      <path d="M -42 -78.55385 L -35.8 -74.15385 L -27.6 -70.153854 L -19 -66.553854 L -10 -62.753854 L 1.0000006 -58.753854 L 10.400001 -55.953854 L 19.4 -53.353854 L 28.4 -50.753854 L 33.8 -49.353854 L 39.4 -48.353854 L 42.4 -54.753854 L 38.6 -55.553854 L 33.8 -56.753854 L 28.2 -57.953854 L 22.2 -59.753854 L 17.6 -61.153854 L 13.400001 -62.353854 L 8.800001 -64.353854 L 4.2000007 -65.953854 L -.5999994 -67.953854 L -4.5999994 -69.353854 L -9.8 -71.553854 L -14.4 -73.15385 L -19.2 -75.35385 L -24 -77.15385 L -28 -79.15385 L -32.4 -81.35385 L -36.8 -83.55385 L -40.2 -85.15385 Z" stroke="#7f8080" stroke-linecap="round" stroke-linejoin="round" stroke-width="1"/>
      <path d="M 389.4053 -79.49725 L 383.2053 -75.09725 L 375.0053 -71.09725 L 366.4053 -67.49725 L 357.4053 -63.69725 L 346.4053 -59.69725 L 337.0053 -56.89725 L 328.0053 -54.29725 L 319.0053 -51.69725 L 313.6053 -50.29725 L 308.0053 -49.29725 L 305.0053 -55.69725 L 308.8053 -56.49725 L 313.6053 -57.69725 L 319.2053 -58.89725 L 325.2053 -60.69725 L 329.8053 -62.09725 L 334.0053 -63.29725 L 338.6053 -65.29725 L 343.2053 -66.89725 L 348.0053 -68.89725 L 352.0053 -70.29725 L 357.2053 -72.49725 L 361.8053 -74.09725 L 366.6053 -76.29725 L 371.4053 -78.09725 L 375.4053 -80.09725 L 379.8053 -82.29725 L 384.2053 -84.49725 L 387.6053 -86.09725 Z" fill="white"/>
      <path d="M 389.4053 -79.49725 L 383.2053 -75.09725 L 375.0053 -71.09725 L 366.4053 -67.49725 L 357.4053 -63.69725 L 346.4053 -59.69725 L 337.0053 -56.89725 L 328.0053 -54.29725 L 319.0053 -51.69725 L 313.6053 -50.29725 L 308.0053 -49.29725 L 305.0053 -55.69725 L 308.8053 -56.49725 L 313.6053 -57.69725 L 319.2053 -58.89725 L 325.2053 -60.69725 L 329.8053 -62.09725 L 334.0053 -63.29725 L 338.6053 -65.29725 L 343.2053 -66.89725 L 348.0053 -68.89725 L 352.0053 -70.29725 L 357.2053 -72.49725 L 361.8053 -74.09725 L 366.6053 -76.29725 L 371.4053 -78.09725 L 375.4053 -80.09725 L 379.8053 -82.29725 L 384.2053 -84.49725 L 387.6053 -86.09725 Z" stroke="#7f8080" stroke-linecap="round" stroke-linejoin="round" stroke-width="1"/>
      <path d="M 108.57212 -228.0362 L 103.84295 -223.98264 C 102.6926 -222.99662 101.44764 -222.1267 100.12621 -221.38552 L 97.59958 -219.96835 C 96.16441 -219.16338 95.5836 -217.39425 96.26239 -215.89527 L 97.28 -213.64803 C 97.40158 -213.37954 97.52831 -213.11342 97.66012 -212.8498 L 99.46239 -209.24526 L 101.94938 -204.2713 C 102.29117 -203.5877 102.66683 -202.92157 103.07495 -202.27537 L 105.40134 -198.59192 C 105.84172 -197.89465 106.31928 -197.22158 106.83195 -196.57561 L 110.24264 -192.27815 C 110.78869 -191.59013 111.37371 -190.93394 111.99482 -190.31283 L 116.66087 -185.6468 C 117.06175 -185.2459 117.47731 -184.85999 117.90671 -184.48982 L 122.47023 -180.55574 C 122.86489 -180.21552 123.271 -179.8888 123.68785 -179.57617 L 127.66279 -176.59497 C 128.3287 -176.09553 129.02123 -175.63262 129.73733 -175.20826 L 133.8704 -172.75904 C 133.99839 -172.6832 134.12712 -172.60859 134.25656 -172.53523 L 138.9541 -169.8733 C 139.6924 -169.45493 140.45328 -169.07774 141.23325 -168.74347 L 144.78307 -167.22212 C 145.36903 -166.97099 145.96518 -166.74433 146.56997 -166.54274 L 151.58808 -164.87003 C 152.83532 -164.45429 154.11592 -164.14624 155.4158 -163.9493 L 159.51464 -163.32826 C 159.87976 -163.27294 160.24615 -163.22642 160.6135 -163.18874 L 167.4946 -162.48299 C 167.73978 -162.45784 167.98534 -162.43664 168.2312 -162.41938 L 172.75835 -162.10169 C 173.2942 -162.06409 173.83122 -162.04527 174.3684 -162.04527 L 177.63046 -162.04526 C 178.58416 -162.04526 179.53693 -162.10458 180.48327 -162.22287 L 184.47198 -162.72146 C 185.13195 -162.80396 185.78802 -162.91504 186.43835 -163.0544 L 192.52039 -164.3577 C 193.41426 -164.54924 194.29592 -164.7939 195.16068 -165.09039 L 199.66952 -166.63628 C 200.46417 -166.90873 201.2433 -167.22451 202.0034 -167.5822 L 206.83677 -169.85674 C 207.38697 -170.11565 207.92668 -170.39629 208.45464 -170.69798 L 212.2225 -172.85104 C 212.9153 -173.24692 213.58701 -173.67858 214.23494 -174.14428 L 218.91106 -177.50525 C 219.41175 -177.86511 219.89776 -178.24497 220.36792 -178.6439 L 225.68877 -183.15856 C 226.07108 -183.48294 226.44269 -183.81974 226.80298 -184.16842 L 231.5022 -188.71604 C 232.1418 -189.335 232.7449 -189.99056 233.30852 -190.67942 L 237.1018 -195.31566 C 237.60852 -195.93497 238.08257 -196.5803 238.52201 -197.24904 L 242.1392 -202.75344 C 242.35462 -203.08127 242.56163 -203.41456 242.76002 -203.75298 L 245.2831 -208.05708 C 245.66906 -208.71546 246.022 -209.39265 246.34062 -210.08612 L 248.45932 -214.6974 C 248.99218 -215.85715 249.36334 -217.08456 249.5624 -218.34526 L 249.5624 -218.34526 C 249.7407 -219.47453 249.1614 -220.58797 248.13432 -221.0901 L 242.84088 -223.678 C 241.52642 -224.32063 240.29183 -225.11514 239.1624 -226.04526 L 238.75638 -226.37963 C 237.91205 -227.07496 237.28864 -228.00126 236.9624 -229.04526 L 236.9624 -229.04526 C 236.91573 -229.19458 236.75686 -229.2778 236.60754 -229.23114 C 236.49247 -229.19518 236.41277 -229.09031 236.40892 -228.9698 L 236.29968 -225.5469 C 236.20894 -222.70381 235.5916 -219.90224 234.479 -217.28433 L 233.60206 -215.22096 C 233.0435 -213.90669 232.36374 -212.6473 231.5716 -211.4591 L 227.88582 -205.93042 C 227.1383 -204.80915 226.2937 -203.75575 225.36175 -202.78238 L 219.06668 -196.20753 C 218.1986 -195.30087 217.25777 -194.4668 216.2536 -193.71367 L 207.8787 -187.4325 C 207.00228 -186.77518 206.08002 -186.18133 205.11896 -185.65546 L 197.93376 -181.72394 C 196.62263 -181.00653 195.2447 -180.41863 193.81952 -179.96857 L 187.1466 -177.86133 C 185.42973 -177.31916 183.65514 -176.98046 181.85927 -176.85219 L 174.97281 -176.3603 C 173.90052 -176.2837 172.82417 -176.28238 171.75168 -176.35635 L 163.31543 -176.93816 C 162.28125 -177.00948 161.25308 -177.15064 160.23795 -177.36067 L 153.10274 -178.83692 C 151.15079 -179.24077 149.25961 -179.89665 147.47676 -180.78808 L 142.81735 -183.11779 C 141.58321 -183.73485 140.4071 -184.46173 139.30326 -185.2896 L 133.6213 -189.55108 C 133.18217 -189.88043 132.75496 -190.2254 132.34051 -190.58532 L 126.58533 -195.58324 C 125.77104 -196.29038 125.0075 -197.05392 124.30036 -197.8682 L 119.89513 -202.9409 C 119.14103 -203.80925 118.45312 -204.73295 117.8372 -205.70422 L 114.1035 -211.59198 C 113.74293 -212.16056 113.4075 -212.7447 113.09819 -213.34272 L 111.47781 -216.47544 C 110.86867 -217.65312 110.3625 -218.88126 109.96497 -220.14615 L 108.68473 -224.21964 C 108.46995 -224.90302 108.28722 -225.59605 108.13713 -226.29649 L 107.91171 -227.34843 C 107.82664 -227.74544 108.05299 -228.1431 108.4378 -228.27263 L 108.4378 -228.27263 C 108.51029 -228.29704 108.58884 -228.25805 108.61325 -228.18556 C 108.63126 -228.13205 108.61499 -228.07296 108.57212 -228.0362 Z" fill="white"/>
      <path d="M 108.57212 -228.0362 L 103.84295 -223.98264 C 102.6926 -222.99662 101.44764 -222.1267 100.12621 -221.38552 L 97.59958 -219.96835 C 96.16441 -219.16338 95.5836 -217.39425 96.26239 -215.89527 L 97.28 -213.64803 C 97.40158 -213.37954 97.52831 -213.11342 97.66012 -212.8498 L 99.46239 -209.24526 L 101.94938 -204.2713 C 102.29117 -203.5877 102.66683 -202.92157 103.07495 -202.27537 L 105.40134 -198.59192 C 105.84172 -197.89465 106.31928 -197.22158 106.83195 -196.57561 L 110.24264 -192.27815 C 110.78869 -191.59013 111.37371 -190.93394 111.99482 -190.31283 L 116.66087 -185.6468 C 117.06175 -185.2459 117.47731 -184.85999 117.90671 -184.48982 L 122.47023 -180.55574 C 122.86489 -180.21552 123.271 -179.8888 123.68785 -179.57617 L 127.66279 -176.59497 C 128.3287 -176.09553 129.02123 -175.63262 129.73733 -175.20826 L 133.8704 -172.75904 C 133.99839 -172.6832 134.12712 -172.60859 134.25656 -172.53523 L 138.9541 -169.8733 C 139.6924 -169.45493 140.45328 -169.07774 141.23325 -168.74347 L 144.78307 -167.22212 C 145.36903 -166.97099 145.96518 -166.74433 146.56997 -166.54274 L 151.58808 -164.87003 C 152.83532 -164.45429 154.11592 -164.14624 155.4158 -163.9493 L 159.51464 -163.32826 C 159.87976 -163.27294 160.24615 -163.22642 160.6135 -163.18874 L 167.4946 -162.48299 C 167.73978 -162.45784 167.98534 -162.43664 168.2312 -162.41938 L 172.75835 -162.10169 C 173.2942 -162.06409 173.83122 -162.04527 174.3684 -162.04527 L 177.63046 -162.04526 C 178.58416 -162.04526 179.53693 -162.10458 180.48327 -162.22287 L 184.47198 -162.72146 C 185.13195 -162.80396 185.78802 -162.91504 186.43835 -163.0544 L 192.52039 -164.3577 C 193.41426 -164.54924 194.29592 -164.7939 195.16068 -165.09039 L 199.66952 -166.63628 C 200.46417 -166.90873 201.2433 -167.22451 202.0034 -167.5822 L 206.83677 -169.85674 C 207.38697 -170.11565 207.92668 -170.39629 208.45464 -170.69798 L 212.2225 -172.85104 C 212.9153 -173.24692 213.58701 -173.67858 214.23494 -174.14428 L 218.91106 -177.50525 C 219.41175 -177.86511 219.89776 -178.24497 220.36792 -178.6439 L 225.68877 -183.15856 C 226.07108 -183.48294 226.44269 -183.81974 226.80298 -184.16842 L 231.5022 -188.71604 C 232.1418 -189.335 232.7449 -189.99056 233.30852 -190.67942 L 237.1018 -195.31566 C 237.60852 -195.93497 238.08257 -196.5803 238.52201 -197.24904 L 242.1392 -202.75344 C 242.35462 -203.08127 242.56163 -203.41456 242.76002 -203.75298 L 245.2831 -208.05708 C 245.66906 -208.71546 246.022 -209.39265 246.34062 -210.08612 L 248.45932 -214.6974 C 248.99218 -215.85715 249.36334 -217.08456 249.5624 -218.34526 L 249.5624 -218.34526 C 249.7407 -219.47453 249.1614 -220.58797 248.13432 -221.0901 L 242.84088 -223.678 C 241.52642 -224.32063 240.29183 -225.11514 239.1624 -226.04526 L 238.75638 -226.37963 C 237.91205 -227.07496 237.28864 -228.00126 236.9624 -229.04526 L 236.9624 -229.04526 C 236.91573 -229.19458 236.75686 -229.2778 236.60754 -229.23114 C 236.49247 -229.19518 236.41277 -229.09031 236.40892 -228.9698 L 236.29968 -225.5469 C 236.20894 -222.70381 235.5916 -219.90224 234.479 -217.28433 L 233.60206 -215.22096 C 233.0435 -213.90669 232.36374 -212.6473 231.5716 -211.4591 L 227.88582 -205.93042 C 227.1383 -204.80915 226.2937 -203.75575 225.36175 -202.78238 L 219.06668 -196.20753 C 218.1986 -195.30087 217.25777 -194.4668 216.2536 -193.71367 L 207.8787 -187.4325 C 207.00228 -186.77518 206.08002 -186.18133 205.11896 -185.65546 L 197.93376 -181.72394 C 196.62263 -181.00653 195.2447 -180.41863 193.81952 -179.96857 L 187.1466 -177.86133 C 185.42973 -177.31916 183.65514 -176.98046 181.85927 -176.85219 L 174.97281 -176.3603 C 173.90052 -176.2837 172.82417 -176.28238 171.75168 -176.35635 L 163.31543 -176.93816 C 162.28125 -177.00948 161.25308 -177.15064 160.23795 -177.36067 L 153.10274 -178.83692 C 151.15079 -179.24077 149.25961 -179.89665 147.47676 -180.78808 L 142.81735 -183.11779 C 141.58321 -183.73485 140.4071 -184.46173 139.30326 -185.2896 L 133.6213 -189.55108 C 133.18217 -189.88043 132.75496 -190.2254 132.34051 -190.58532 L 126.58533 -195.58324 C 125.77104 -196.29038 125.0075 -197.05392 124.30036 -197.8682 L 119.89513 -202.9409 C 119.14103 -203.80925 118.45312 -204.73295 117.8372 -205.70422 L 114.1035 -211.59198 C 113.74293 -212.16056 113.4075 -212.7447 113.09819 -213.34272 L 111.47781 -216.47544 C 110.86867 -217.65312 110.3625 -218.88126 109.96497 -220.14615 L 108.68473 -224.21964 C 108.46995 -224.90302 108.28722 -225.59605 108.13713 -226.29649 L 107.91171 -227.34843 C 107.82664 -227.74544 108.05299 -228.1431 108.4378 -228.27263 L 108.4378 -228.27263 C 108.51029 -228.29704 108.58884 -228.25805 108.61325 -228.18556 C 108.63126 -228.13205 108.61499 -228.07296 108.57212 -228.0362 Z" stroke="#7f8080" stroke-linecap="round" stroke-linejoin="round" stroke-width="1"/>
      <path d="M 108.05925 -228.2441 L 113.45925 -228.8441 L 120.25925 -225.4441 L 125.25925 -223.6441 L 133.65925 -221.8441 L 142.05925 -220.8441 L 150.05925 -219.8441 L 157.65925 -219.6441 L 166.25925 -219.2441 L 177.85925 -219.4441 L 186.25925 -219.8441 L 195.65925 -220.4441 L 204.05925 -221.2441 L 213.25925 -222.6441 L 221.45925 -224.8441 L 227.25925 -226.6441 L 232.85925 -229.2441 L 235.65925 -228.0441 L 236.05925 -222.4441 L 233.25925 -214.4441 L 227.85925 -211.6441 L 217.25925 -208.4441 L 205.85925 -206.0441 L 194.65925 -205.2441 L 182.25925 -204.2441 L 171.85925 -204.2441 L 162.45925 -204.2441 L 150.85925 -204.8441 L 139.65925 -205.6441 L 129.05925 -207.8441 L 120.45925 -209.8441 L 114.25925 -212.6441 L 112.25925 -214.2441 L 109.05925 -221.8441 Z" fill="white"/>
      <path d="M 108.05925 -228.2441 L 113.45925 -228.8441 L 120.25925 -225.4441 L 125.25925 -223.6441 L 133.65925 -221.8441 L 142.05925 -220.8441 L 150.05925 -219.8441 L 157.65925 -219.6441 L 166.25925 -219.2441 L 177.85925 -219.4441 L 186.25925 -219.8441 L 195.65925 -220.4441 L 204.05925 -221.2441 L 213.25925 -222.6441 L 221.45925 -224.8441 L 227.25925 -226.6441 L 232.85925 -229.2441 L 235.65925 -228.0441 L 236.05925 -222.4441 L 233.25925 -214.4441 L 227.85925 -211.6441 L 217.25925 -208.4441 L 205.85925 -206.0441 L 194.65925 -205.2441 L 182.25925 -204.2441 L 171.85925 -204.2441 L 162.45925 -204.2441 L 150.85925 -204.8441 L 139.65925 -205.6441 L 129.05925 -207.8441 L 120.45925 -209.8441 L 114.25925 -212.6441 L 112.25925 -214.2441 L 109.05925 -221.8441 Z" stroke="#7f8080" stroke-linecap="round" stroke-linejoin="round" stroke-width="1"/>
      <path d="M 37.813213 197.2 L 37.813213 197.2 C 37.74753 197.72549 37.810355 198.25905 37.9963 198.7549 L 38.647306 200.49092 C 38.82406 200.96227 39.051147 201.41318 39.32462 201.83582 L 40.292434 203.33153 C 40.83339 204.16756 41.546494 204.87855 42.38412 205.41702 L 43.46217 206.11005 C 43.762426 206.30307 44.077006 206.47285 44.403157 206.61789 L 45.72001 207.20349 C 46.31654 207.46876 46.947246 207.64928 47.59379 207.7398 L 56.604213 209.00126 C 56.61421 209.00265 56.6242 209.00403 56.6342 209.0054 L 68.3502 210.594 C 68.3962 210.60024 68.44226 210.60601 68.48838 210.61134 L 78.77131 211.79783 C 78.80324 211.8015 78.83519 211.80498 78.867165 211.80822 L 92.57723 213.1991 C 92.60521 213.20193 92.63321 213.2046 92.66123 213.2071 L 103.76653 214.19865 C 103.80164 214.20179 103.83679 214.20466 103.87195 214.20726 L 114.55848 214.99886 C 114.59896 215.00185 114.63947 215.0045 114.68 215.0068 L 125.18798 215.60159 C 125.2088 215.60276 125.22961 215.60404 125.25042 215.6054 L 137.2932 216.3951 C 137.3772 216.4006 137.46129 216.4046 137.54543 216.40707 L 150.99256 216.80257 C 151.01032 216.8031 151.02809 216.80368 151.04585 216.80434 L 161.6897 217.19856 C 161.77603 217.20176 161.8624 217.20335 161.94879 217.20335 L 172.5578 217.20335 C 172.59874 217.20335 172.63967 217.20371 172.6806 217.20443 L 183.76702 217.39893 C 183.93509 217.40188 184.1032 217.39877 184.27106 217.38962 L 194.8923 216.81028 C 194.9769 216.80566 195.06157 216.80258 195.1463 216.80104 L 205.91085 216.60532 C 205.98308 216.604 206.0553 216.60158 206.12745 216.59803 L 218.14607 216.00695 C 218.19483 216.00455 218.24355 216.00165 218.29225 215.99823 L 229.5323 215.20945 C 229.59023 215.20539 229.64812 215.2006 229.70594 215.1951 L 242.1165 214.01313 C 242.18497 214.00661 242.25352 214.0011 242.32214 213.9966 L 254.25416 213.21418 C 254.36418 213.20696 254.474 213.19715 254.58355 213.18475 L 264.9959 212.006 C 265.01144 212.00423 265.02697 212.00242 265.0425 212.00056 L 274.9902 210.80683 C 275.00954 210.80451 275.02886 210.80211 275.04818 210.79963 L 288.88394 209.0221 C 288.98115 209.0096 289.0781 208.99507 289.1747 208.97851 L 295.7282 207.85506 C 295.92915 207.8206 296.13153 207.79495 296.33473 207.77817 L 299.56706 207.5112 C 300.4563 207.43775 301.3233 207.19497 302.12135 206.79594 L 303.60765 206.0528 C 304.20824 205.7525 304.7625 205.36735 305.25338 204.9092 L 306.5885 203.66308 C 307.1953 203.09672 307.65073 202.38747 307.9132 201.6 L 308.20805 200.71552 C 308.27812 200.5053 308.33817 200.29187 308.388 200.07595 L 308.8577 198.04056 C 308.89293 197.88792 308.8595 197.72752 308.7662 197.60168 L 308.7662 197.60168 C 308.67587 197.4798 308.52523 197.4183 308.3754 197.44214 L 299.89555 198.7912 C 299.84466 198.7993 299.79385 198.80796 299.74315 198.81718 L 286.7584 201.17805 C 286.6656 201.19492 286.5725 201.2099 286.4791 201.22302 L 275.24943 202.7991 C 275.22928 202.80194 275.20914 202.80486 275.18902 202.80786 L 262.06643 204.76645 C 261.90167 204.79105 261.73608 204.80975 261.56998 204.82253 L 248.84517 205.80136 C 248.82786 205.8027 248.81055 205.80396 248.79323 205.80516 L 234.45308 206.801 C 234.4305 206.80257 234.4079 206.80403 234.3853 206.80538 L 221.08205 207.5996 C 221.04016 207.6021 220.99824 207.60423 220.9563 207.60597 L 206.76485 208.19729 C 206.66776 208.20133 206.5706 208.20335 206.47344 208.20335 L 193.2192 208.20335 L 180.67753 208.20335 C 180.63865 208.20335 180.59976 208.20368 180.56088 208.20433 L 168.8025 208.4003 C 168.68032 208.40234 168.55812 208.40117 168.436 208.3968 L 157.6024 208.0099 C 157.4803 208.00554 157.35809 208.00437 157.23591 208.0064 L 145.52127 208.20165 C 145.45323 208.20279 145.38518 208.20293 145.31713 208.20208 L 129.61484 208.0058 C 129.48444 208.00417 129.35411 207.9989 129.224 207.98998 L 114.91423 207.00986 C 114.85088 207.00552 114.7876 207.00032 114.72439 206.99426 L 100.23339 205.60471 C 100.22393 205.6038 100.21448 205.60288 100.20503 205.60194 L 86.39299 204.22073 C 86.27715 204.20915 86.16162 204.19468 86.0465 204.17733 L 71.73735 202.02116 C 71.65859 202.0093 71.57964 201.99877 71.50052 201.9896 L 57.98059 200.42207 C 57.87301 200.4096 57.76574 200.39463 57.65886 200.37718 L 48.26677 198.84377 C 48.10178 198.81684 47.937805 198.784 47.775164 198.74532 L 38.697565 196.58654 C 38.309246 196.4942 37.91959 196.73412 37.82724 197.12244 C 37.82116 197.14802 37.816475 197.17392 37.813213 197.2 Z" fill="white"/>
      <path d="M 37.813213 197.2 L 37.813213 197.2 C 37.74753 197.72549 37.810355 198.25905 37.9963 198.7549 L 38.647306 200.49092 C 38.82406 200.96227 39.051147 201.41318 39.32462 201.83582 L 40.292434 203.33153 C 40.83339 204.16756 41.546494 204.87855 42.38412 205.41702 L 43.46217 206.11005 C 43.762426 206.30307 44.077006 206.47285 44.403157 206.61789 L 45.72001 207.20349 C 46.31654 207.46876 46.947246 207.64928 47.59379 207.7398 L 56.604213 209.00126 C 56.61421 209.00265 56.6242 209.00403 56.6342 209.0054 L 68.3502 210.594 C 68.3962 210.60024 68.44226 210.60601 68.48838 210.61134 L 78.77131 211.79783 C 78.80324 211.8015 78.83519 211.80498 78.867165 211.80822 L 92.57723 213.1991 C 92.60521 213.20193 92.63321 213.2046 92.66123 213.2071 L 103.76653 214.19865 C 103.80164 214.20179 103.83679 214.20466 103.87195 214.20726 L 114.55848 214.99886 C 114.59896 215.00185 114.63947 215.0045 114.68 215.0068 L 125.18798 215.60159 C 125.2088 215.60276 125.22961 215.60404 125.25042 215.6054 L 137.2932 216.3951 C 137.3772 216.4006 137.46129 216.4046 137.54543 216.40707 L 150.99256 216.80257 C 151.01032 216.8031 151.02809 216.80368 151.04585 216.80434 L 161.6897 217.19856 C 161.77603 217.20176 161.8624 217.20335 161.94879 217.20335 L 172.5578 217.20335 C 172.59874 217.20335 172.63967 217.20371 172.6806 217.20443 L 183.76702 217.39893 C 183.93509 217.40188 184.1032 217.39877 184.27106 217.38962 L 194.8923 216.81028 C 194.9769 216.80566 195.06157 216.80258 195.1463 216.80104 L 205.91085 216.60532 C 205.98308 216.604 206.0553 216.60158 206.12745 216.59803 L 218.14607 216.00695 C 218.19483 216.00455 218.24355 216.00165 218.29225 215.99823 L 229.5323 215.20945 C 229.59023 215.20539 229.64812 215.2006 229.70594 215.1951 L 242.1165 214.01313 C 242.18497 214.00661 242.25352 214.0011 242.32214 213.9966 L 254.25416 213.21418 C 254.36418 213.20696 254.474 213.19715 254.58355 213.18475 L 264.9959 212.006 C 265.01144 212.00423 265.02697 212.00242 265.0425 212.00056 L 274.9902 210.80683 C 275.00954 210.80451 275.02886 210.80211 275.04818 210.79963 L 288.88394 209.0221 C 288.98115 209.0096 289.0781 208.99507 289.1747 208.97851 L 295.7282 207.85506 C 295.92915 207.8206 296.13153 207.79495 296.33473 207.77817 L 299.56706 207.5112 C 300.4563 207.43775 301.3233 207.19497 302.12135 206.79594 L 303.60765 206.0528 C 304.20824 205.7525 304.7625 205.36735 305.25338 204.9092 L 306.5885 203.66308 C 307.1953 203.09672 307.65073 202.38747 307.9132 201.6 L 308.20805 200.71552 C 308.27812 200.5053 308.33817 200.29187 308.388 200.07595 L 308.8577 198.04056 C 308.89293 197.88792 308.8595 197.72752 308.7662 197.60168 L 308.7662 197.60168 C 308.67587 197.4798 308.52523 197.4183 308.3754 197.44214 L 299.89555 198.7912 C 299.84466 198.7993 299.79385 198.80796 299.74315 198.81718 L 286.7584 201.17805 C 286.6656 201.19492 286.5725 201.2099 286.4791 201.22302 L 275.24943 202.7991 C 275.22928 202.80194 275.20914 202.80486 275.18902 202.80786 L 262.06643 204.76645 C 261.90167 204.79105 261.73608 204.80975 261.56998 204.82253 L 248.84517 205.80136 C 248.82786 205.8027 248.81055 205.80396 248.79323 205.80516 L 234.45308 206.801 C 234.4305 206.80257 234.4079 206.80403 234.3853 206.80538 L 221.08205 207.5996 C 221.04016 207.6021 220.99824 207.60423 220.9563 207.60597 L 206.76485 208.19729 C 206.66776 208.20133 206.5706 208.20335 206.47344 208.20335 L 193.2192 208.20335 L 180.67753 208.20335 C 180.63865 208.20335 180.59976 208.20368 180.56088 208.20433 L 168.8025 208.4003 C 168.68032 208.40234 168.55812 208.40117 168.436 208.3968 L 157.6024 208.0099 C 157.4803 208.00554 157.35809 208.00437 157.23591 208.0064 L 145.52127 208.20165 C 145.45323 208.20279 145.38518 208.20293 145.31713 208.20208 L 129.61484 208.0058 C 129.48444 208.00417 129.35411 207.9989 129.224 207.98998 L 114.91423 207.00986 C 114.85088 207.00552 114.7876 207.00032 114.72439 206.99426 L 100.23339 205.60471 C 100.22393 205.6038 100.21448 205.60288 100.20503 205.60194 L 86.39299 204.22073 C 86.27715 204.20915 86.16162 204.19468 86.0465 204.17733 L 71.73735 202.02116 C 71.65859 202.0093 71.57964 201.99877 71.50052 201.9896 L 57.98059 200.42207 C 57.87301 200.4096 57.76574 200.39463 57.65886 200.37718 L 48.26677 198.84377 C 48.10178 198.81684 47.937805 198.784 47.775164 198.74532 L 38.697565 196.58654 C 38.309246 196.4942 37.91959 196.73412 37.82724 197.12244 C 37.82116 197.14802 37.816475 197.17392 37.813213 197.2 Z" stroke="#7f8080" stroke-linecap="round" stroke-linejoin="round" stroke-width="1"/>
    </g>
  </g>
</svg>
