<?xml version="1.0" encoding="UTF-8" standalone="no"?>
<!DOCTYPE svg PUBLIC "-//W3C//DTD SVG 1.1//EN" "http://www.w3.org/Graphics/SVG/1.1/DTD/svg11.dtd">
<svg xmlns="http://www.w3.org/2000/svg" xmlns:xl="http://www.w3.org/1999/xlink" version="1.1" viewBox="-136.5 -238.5 432.4053 449.4" width="432.4053pt" height="449.4pt" xmlns:dc="http://purl.org/dc/elements/1.1/">
  <metadata> Produced by OmniGraffle 7.6.1 
    <dc:date>2019-05-26 05:02:41 +0000</dc:date>
  </metadata>
  <defs>
    <radialGradient cx="0" cy="0" r="1" id="Gradient" gradientUnits="userSpaceOnUse">
      <stop offset="0" stop-color="#cbcbcb"/>
      <stop offset="1" stop-color="#2b1b0b"/>
    </radialGradient>
    <radialGradient id="Obj_Gradient" xl:href="#Gradient" gradientTransform="translate(78.75925 -210.6) scale(70.26272)"/>
  </defs>
  <g stroke="none" stroke-opacity="1" stroke-dasharray="none" fill="none" fill-opacity="1">
    <title>Olympiacos</title>
    <g>
      <title>Capa 1</title>
      <path d="M 17.005654 -237.40955 L 25.171106 -234.29184 C 26.029097 -233.96424 26.90594 -233.68833 27.796923 -233.46558 L 41.5141 -230.0363 C 42.67576 -229.74587 43.85832 -229.54662 45.051005 -229.44034 L 62.57715 -227.8786 C 63.165 -227.82622 63.75464 -227.79648 64.34478 -227.78946 L 79.823695 -227.60519 C 80.11404 -227.60173 80.40442 -227.60377 80.69469 -227.6113 L 95.118 -227.98594 C 95.47878 -227.9953 95.8393 -228.01317 96.19924 -228.0395 L 110.57053 -229.09107 C 111.56197 -229.1636 112.54766 -229.30036 113.5214 -229.50044 L 125.09436 -231.87845 C 126.13637 -232.09256 127.16226 -232.3787 128.16465 -232.7348 L 139.91664 -236.90986 C 141.00702 -237.29723 142.21021 -236.76646 142.65925 -235.7 L 142.65925 -235.7 C 143.1814 -234.4599 143.33338 -233.09515 143.09685 -231.77055 L 142.91637 -230.75986 C 142.61259 -229.0587 142.11806 -227.3972 141.44214 -225.8068 L 139.89892 -222.1757 C 139.34035 -220.86142 138.6606 -219.60202 137.86846 -218.41382 L 134.18268 -212.88515 C 133.43517 -211.76389 132.59057 -210.71049 131.65861 -209.7371 L 125.36354 -203.16226 C 124.49547 -202.2556 123.55463 -201.42154 122.55046 -200.6684 L 114.17555 -194.38723 C 113.29914 -193.72992 112.37688 -193.13606 111.41582 -192.6102 L 104.23062 -188.67867 C 102.91949 -187.96126 101.54156 -187.37336 100.11638 -186.9233 L 93.44347 -184.81607 C 91.72659 -184.2739 89.952 -183.9352 88.15613 -183.80692 L 81.269675 -183.31503 C 80.19738 -183.23844 79.12103 -183.23712 78.048545 -183.31108 L 69.61229 -183.8929 C 68.57811 -183.96422 67.54994 -184.10537 66.53481 -184.3154 L 59.3996 -185.79165 C 57.44765 -186.1955 55.556474 -186.85139 53.77362 -187.74281 L 49.11421 -190.07252 C 47.88007 -190.68959 46.703967 -191.41646 45.60012 -192.24434 L 39.918163 -196.50581 C 39.479027 -196.83517 39.051822 -197.18013 38.63737 -197.54005 L 32.88219 -202.53797 C 32.067903 -203.24511 31.304363 -204.00865 30.59722 -204.82294 L 26.191995 -209.89562 C 25.437892 -210.76398 24.749984 -211.68768 24.13406 -212.65895 L 20.400357 -218.5467 C 20.039791 -219.1153 19.704365 -219.69944 19.395049 -220.29745 L 17.774675 -223.43017 C 17.16553 -224.60785 16.659362 -225.836 16.261825 -227.1009 L 14.981586 -231.17438 C 14.766811 -231.85775 14.584079 -232.5508 14.433986 -233.25122 L 14.359248 -233.6 C 14.164585 -234.50843 14.271846 -235.45557 14.664727 -236.29746 L 14.759248 -236.5 C 15.153724 -237.3453 16.134195 -237.7423 17.005654 -237.40955 Z" fill="url(#Obj_Gradient)"/>
      <path d="M 17.005654 -237.40955 L 25.171106 -234.29184 C 26.029097 -233.96424 26.90594 -233.68833 27.796923 -233.46558 L 41.5141 -230.0363 C 42.67576 -229.74587 43.85832 -229.54662 45.051005 -229.44034 L 62.57715 -227.8786 C 63.165 -227.82622 63.75464 -227.79648 64.34478 -227.78946 L 79.823695 -227.60519 C 80.11404 -227.60173 80.40442 -227.60377 80.69469 -227.6113 L 95.118 -227.98594 C 95.47878 -227.9953 95.8393 -228.01317 96.19924 -228.0395 L 110.57053 -229.09107 C 111.56197 -229.1636 112.54766 -229.30036 113.5214 -229.50044 L 125.09436 -231.87845 C 126.13637 -232.09256 127.16226 -232.3787 128.16465 -232.7348 L 139.91664 -236.90986 C 141.00702 -237.29723 142.21021 -236.76646 142.65925 -235.7 L 142.65925 -235.7 C 143.1814 -234.4599 143.33338 -233.09515 143.09685 -231.77055 L 142.91637 -230.75986 C 142.61259 -229.0587 142.11806 -227.3972 141.44214 -225.8068 L 139.89892 -222.1757 C 139.34035 -220.86142 138.6606 -219.60202 137.86846 -218.41382 L 134.18268 -212.88515 C 133.43517 -211.76389 132.59057 -210.71049 131.65861 -209.7371 L 125.36354 -203.16226 C 124.49547 -202.2556 123.55463 -201.42154 122.55046 -200.6684 L 114.17555 -194.38723 C 113.29914 -193.72992 112.37688 -193.13606 111.41582 -192.6102 L 104.23062 -188.67867 C 102.91949 -187.96126 101.54156 -187.37336 100.11638 -186.9233 L 93.44347 -184.81607 C 91.72659 -184.2739 89.952 -183.9352 88.15613 -183.80692 L 81.269675 -183.31503 C 80.19738 -183.23844 79.12103 -183.23712 78.048545 -183.31108 L 69.61229 -183.8929 C 68.57811 -183.96422 67.54994 -184.10537 66.53481 -184.3154 L 59.3996 -185.79165 C 57.44765 -186.1955 55.556474 -186.85139 53.77362 -187.74281 L 49.11421 -190.07252 C 47.88007 -190.68959 46.703967 -191.41646 45.60012 -192.24434 L 39.918163 -196.50581 C 39.479027 -196.83517 39.051822 -197.18013 38.63737 -197.54005 L 32.88219 -202.53797 C 32.067903 -203.24511 31.304363 -204.00865 30.59722 -204.82294 L 26.191995 -209.89562 C 25.437892 -210.76398 24.749984 -211.68768 24.13406 -212.65895 L 20.400357 -218.5467 C 20.039791 -219.1153 19.704365 -219.69944 19.395049 -220.29745 L 17.774675 -223.43017 C 17.16553 -224.60785 16.659362 -225.836 16.261825 -227.1009 L 14.981586 -231.17438 C 14.766811 -231.85775 14.584079 -232.5508 14.433986 -233.25122 L 14.359248 -233.6 C 14.164585 -234.50843 14.271846 -235.45557 14.664727 -236.29746 L 14.759248 -236.5 C 15.153724 -237.3453 16.134195 -237.7423 17.005654 -237.40955 Z" stroke="#7f8080" stroke-linecap="round" stroke-linejoin="round" stroke-width="1"/>
      <path d="M -48.66994 200.17293 L -34.9277 202.4633 C -34.744324 202.49387 -34.56043 202.52123 -34.376098 202.54538 L -6.022456 206.2607 C -5.775928 206.293 -5.528681 206.31955 -5.2809154 206.34033 L 24.961974 208.87683 C 25.218878 208.89837 25.476265 208.9137 25.73391 208.92282 L 64.66482 210.29916 C 64.853184 210.30582 65.04165 210.30915 65.23013 210.30915 L 96.69745 210.30915 C 96.86406 210.30915 97.03067 210.30655 97.1972 210.30134 L 122.23199 209.519 C 122.44224 209.51244 122.65233 209.50172 122.86215 209.48687 L 144.9099 207.92596 C 145.06822 207.91476 145.22636 207.9012 145.38427 207.88528 L 170.64475 205.33965 C 170.8465 205.31932 171.04783 205.29516 171.24865 205.26717 L 195.04134 201.9518 C 195.24535 201.92337 195.4488 201.891 195.65156 201.85472 L 204.8474 200.20915 C 210.1745 199.25588 213.82536 194.30223 213.15895 188.9317 L 210.95136 171.14113 C 210.9487 171.1198 210.9461 171.09849 210.94355 171.07716 L 207.37973 141.37863 C 207.35817 141.19899 207.33966 141.019 207.3242 140.83873 L 204.962 113.27952 C 204.95226 113.16594 204.94374 113.05227 204.93643 112.93851 L 203.5498 91.34687 C 203.5482 91.32172 203.54652 91.29658 203.5448 91.27144 L 201.95263 68.18513 C 201.94914 68.13448 201.94588 68.083806 201.94287 68.03312 L 200.7665 48.23095 C 200.75376 48.01644 200.74534 47.80169 200.74125 47.586836 L 200.34897 26.991998 C 200.34792 26.936765 200.34658 26.881538 200.34495 26.82632 L 199.74983 6.5919765 C 199.7482 6.536758 199.74686 6.481531 199.7458 6.426298 L 199.35515 -14.083243 C 199.34998 -14.354939 199.35173 -14.626722 199.3604 -14.898328 L 199.94634 -33.25794 C 199.94704 -33.27988 199.94778 -33.301823 199.94857 -33.323763 L 200.73666 -55.19307 C 200.7438 -55.391575 200.75466 -55.58993 200.7692 -55.78803 L 202.32668 -77.00865 C 202.34048 -77.19677 202.35096 -77.38512 202.3581 -77.573615 L 203.11256 -97.47248 C 203.13576 -98.08423 203.19404 -98.69414 203.28713 -99.2992 L 206.02613 -117.10272 C 206.10691 -117.62782 206.2138 -118.14857 206.3464 -118.66303 L 210.97466 -136.62068 C 211.08976 -137.06725 211.2241 -137.50864 211.37734 -137.94361 L 217.09812 -154.18325 C 217.2642 -154.65473 217.4523 -155.11816 217.66178 -155.57203 L 223.19333 -167.55707 C 223.29602 -167.77956 223.4038 -167.99967 223.5166 -168.21721 L 228.87883 -178.55864 C 228.92454 -178.64678 228.97106 -178.7345 229.0184 -178.82177 L 234.23437 -188.43873 C 234.97165 -189.7981 235.92128 -191.031 237.0474 -192.09086 L 237.0474 -192.09086 C 237.72258 -192.72633 237.75478 -193.78883 237.1193 -194.46402 C 236.9948 -194.5963 236.84967 -194.7075 236.68955 -194.79327 L 233.47542 -196.51513 C 233.25676 -196.63226 233.0354 -196.7443 232.81155 -196.85114 L 224.95757 -200.59963 C 224.55096 -200.7937 224.13634 -200.9705 223.71481 -201.12956 L 214.03998 -204.78044 C 213.84494 -204.85404 213.64848 -204.92383 213.4507 -204.98975 L 200.75623 -209.22124 C 200.617 -209.26765 200.47716 -209.31214 200.3367 -209.3547 L 187.45319 -213.2588 C 187.38266 -213.28017 187.31227 -213.30203 187.24205 -213.32437 L 174.73805 -217.30292 C 174.34442 -217.42816 173.9558 -217.5686 173.57304 -217.72393 L 161.5971 -222.58373 C 160.76543 -222.92122 159.96364 -223.32808 159.2002 -223.80002 L 149.58096 -229.74647 C 149.42526 -229.84272 149.27122 -229.94164 149.11891 -230.04317 L 144.22881 -233.30324 C 143.24742 -233.9575 142.3761 -234.7634 141.64739 -235.69086 L 141.64739 -235.69086 C 141.54178 -235.82526 141.34722 -235.8486 141.21282 -235.743 C 141.11007 -235.66228 141.0691 -235.52573 141.11042 -235.40177 L 141.24739 -234.99086 C 141.70664 -233.6131 141.8112 -232.14182 141.5514 -230.71297 L 141.15627 -228.5397 C 140.88506 -227.04804 140.40321 -225.6025 139.72519 -224.24645 L 138.19287 -221.18182 C 137.89617 -220.58842 137.56285 -220.01405 137.19484 -219.46203 L 133.99113 -214.65647 C 133.56253 -214.01357 133.08792 -213.40256 132.57104 -212.82824 L 128.00899 -207.7593 C 127.96792 -207.71367 127.9266 -207.66828 127.885 -207.62312 L 121.89077 -201.1151 C 121.26303 -200.43356 120.57728 -199.80783 119.84125 -199.24498 L 114.81707 -195.40297 C 114.37093 -195.0618 113.90712 -194.74435 113.42759 -194.45195 L 106.94119 -190.49683 C 106.27953 -190.09338 105.58943 -189.73853 104.87635 -189.4351 L 97.76094 -186.40726 C 96.95327 -186.06357 96.1187 -185.78693 95.26566 -185.58013 L 91.1866 -184.59127 C 90.36177 -184.3913 89.52233 -184.2573 88.67624 -184.1905 L 82.97603 -183.74048 C 82.5571 -183.70741 82.13702 -183.69086 81.71679 -183.69086 L 74.68447 -183.69086 C 73.92737 -183.69086 73.17122 -183.7446 72.42173 -183.85166 L 64.47528 -184.98687 C 63.990275 -185.05616 63.508705 -185.14768 63.032096 -185.26116 L 57.07087 -186.6805 C 55.92538 -186.95324 54.8135 -187.3516 53.75543 -187.86832 L 47.47543 -190.9353 C 46.99038 -191.17218 46.517626 -191.43346 46.058987 -191.71814 L 41.847124 -194.3324 C 41.247954 -194.7043 40.67403 -195.1154 40.1291 -195.56302 L 35.682993 -199.21518 C 35.459297 -199.39893 35.24063 -199.58872 35.02723 -199.78433 L 31.224887 -203.26981 C 30.773592 -203.6835 30.346412 -204.12275 29.945456 -204.5854 L 25.82671 -209.3378 C 25.507328 -209.7063 25.20496 -210.08923 24.920555 -210.48537 L 20.4909 -216.65525 C 19.996009 -217.34456 19.556738 -218.07215 19.177246 -218.83114 L 16.600782 -223.98406 C 16.565185 -224.05526 16.53012 -224.12672 16.49559 -224.19843 L 15.247386 -226.79086 C 14.396671 -228.55772 14.04115 -230.52226 14.218691 -232.47521 L 14.398897 -234.45747 C 14.422702 -234.71933 14.22972 -234.9509 13.967857 -234.97472 C 13.805462 -234.98948 13.646808 -234.9201 13.547386 -234.79086 L 13.547386 -234.79086 C 12.88394 -233.92838 12.103832 -233.1623 11.229454 -232.5146 L 7.332921 -229.6283 C 7.2092375 -229.53667 7.084238 -229.44684 6.957963 -229.35883 L 2.3357124 -226.13726 C 1.1489763 -225.31015 -.14444447 -224.64778 -1.5091943 -224.16827 L -6.11632 -222.54955 C -6.606891 -222.3772 -7.088768 -222.18102 -7.560236 -221.96173 L -14.407018 -218.77718 C -15.10318 -218.45338 -15.821744 -218.18012 -16.557143 -217.9595 L -27.427532 -214.69838 C -27.444254 -214.69336 -27.460967 -214.68832 -27.477672 -214.68325 L -38.44576 -211.35365 C -38.583657 -211.3118 -38.72098 -211.26807 -38.8577 -211.2225 L -51.77893 -206.91542 C -51.828054 -206.89904 -51.877254 -206.8829 -51.92653 -206.867 L -63.29394 -203.2001 C -63.932424 -202.99414 -64.55732 -202.74823 -65.164936 -202.4638 L -73.0969 -198.75098 C -73.46724 -198.57763 -73.8308 -198.39014 -74.186776 -198.18894 L -80.13289 -194.8281 C -81.38592 -194.11985 -81.82757 -192.52993 -81.11933 -191.2769 C -81.04222 -191.14046 -80.95295 -191.01125 -80.85262 -190.89086 L -79.9885 -189.85392 C -79.23356 -188.94799 -78.58108 -187.96137 -78.04297 -186.91204 L -74.96583 -180.91162 C -74.89036 -180.76445 -74.81261 -180.61846 -74.73261 -180.4737 L -70.77786 -173.31749 C -70.69437 -173.1664 -70.61333 -173.01399 -70.53477 -172.86029 L -66.426465 -164.8223 C -66.177396 -164.335 -65.95349 -163.83522 -65.75564 -163.32497 L -62.27287 -154.3431 C -62.25937 -154.30827 -62.24574 -154.27349 -62.231995 -154.23876 L -58.63567 -145.15332 C -58.51366 -144.84508 -58.401264 -144.53313 -58.298635 -144.21792 L -55.6768 -136.16514 C -55.66068 -136.11562 -55.644795 -136.06601 -55.629156 -136.01634 L -52.55711 -126.25807 C -52.354316 -125.6139 -52.19251 -124.95755 -52.072663 -124.29294 L -50.08735 -113.28348 C -50.064194 -113.15507 -50.04261 -113.02638 -50.0226 -112.89743 L -48.31673 -101.90405 C -48.273994 -101.62863 -48.23846 -101.35215 -48.21017 -101.07487 L -47.32275 -92.37816 C -47.276014 -91.92017 -47.24907 -91.46038 -47.241987 -91.00006 L -47.057747 -79.02444 C -47.054326 -78.80207 -47.04627 -78.5798 -47.03358 -78.35777 L -46.263206 -64.87621 C -46.256145 -64.75264 -46.24765 -64.62916 -46.237725 -64.505795 L -44.904155 -47.93142 C -44.86981 -47.50455 -44.852615 -47.076467 -44.852615 -46.648213 L -44.852615 -34.19843 C -44.852615 -33.993398 -44.848674 -33.788383 -44.840793 -33.5835 L -44.26044 -18.494364 C -44.255224 -18.358695 -44.251733 -18.222966 -44.24997 -18.087208 L -44.05781 -3.290953 C -44.054347 -3.024261 -44.057553 -2.757524 -44.067424 -2.490992 L -44.64165 13.013156 C -44.64896 13.210467 -44.652615 13.407896 -44.652615 13.605343 L -44.652615 27.20157 C -44.652615 27.406603 -44.656556 27.611618 -44.664436 27.8165 L -45.24963 43.0315 C -45.25162 43.083266 -45.25386 43.13502 -45.256355 43.18676 L -46.05168 59.6897 C -46.0523 59.702665 -46.052943 59.71563 -46.0536 59.7286 L -46.84809 75.41976 C -46.851106 75.47935 -46.854457 75.538925 -46.85814 75.59848 L -48.04705 94.81921 C -48.05076 94.87917 -48.054807 94.93911 -48.05919 94.99902 L -49.84233 119.36857 C -49.849186 119.46229 -49.85687 119.55594 -49.865377 119.64953 L -51.65127 139.29434 C -51.652166 139.30421 -51.65307 139.31409 -51.65399 139.32396 L -53.42475 158.40886 C -53.443326 158.60904 -53.46567 158.80884 -53.49177 159.00818 L -55.452486 173.9809 C -55.5853 174.99509 -55.85444 175.9867 -56.252615 176.92888 L -56.252615 176.92888 C -56.65019 177.86962 -56.89886 178.86654 -56.98968 179.8838 L -57.752615 188.42888 C -58.26037 194.1159 -54.301906 199.23427 -48.66994 200.17293 Z" fill="#ff4040"/>
      <path d="M -48.66994 200.17293 L -34.9277 202.4633 C -34.744324 202.49387 -34.56043 202.52123 -34.376098 202.54538 L -6.022456 206.2607 C -5.775928 206.293 -5.528681 206.31955 -5.2809154 206.34033 L 24.961974 208.87683 C 25.218878 208.89837 25.476265 208.9137 25.73391 208.92282 L 64.66482 210.29916 C 64.853184 210.30582 65.04165 210.30915 65.23013 210.30915 L 96.69745 210.30915 C 96.86406 210.30915 97.03067 210.30655 97.1972 210.30134 L 122.23199 209.519 C 122.44224 209.51244 122.65233 209.50172 122.86215 209.48687 L 144.9099 207.92596 C 145.06822 207.91476 145.22636 207.9012 145.38427 207.88528 L 170.64475 205.33965 C 170.8465 205.31932 171.04783 205.29516 171.24865 205.26717 L 195.04134 201.9518 C 195.24535 201.92337 195.4488 201.891 195.65156 201.85472 L 204.8474 200.20915 C 210.1745 199.25588 213.82536 194.30223 213.15895 188.9317 L 210.95136 171.14113 C 210.9487 171.1198 210.9461 171.09849 210.94355 171.07716 L 207.37973 141.37863 C 207.35817 141.19899 207.33966 141.019 207.3242 140.83873 L 204.962 113.27952 C 204.95226 113.16594 204.94374 113.05227 204.93643 112.93851 L 203.5498 91.34687 C 203.5482 91.32172 203.54652 91.29658 203.5448 91.27144 L 201.95263 68.18513 C 201.94914 68.13448 201.94588 68.083806 201.94287 68.03312 L 200.7665 48.23095 C 200.75376 48.01644 200.74534 47.80169 200.74125 47.586836 L 200.34897 26.991998 C 200.34792 26.936765 200.34658 26.881538 200.34495 26.82632 L 199.74983 6.5919765 C 199.7482 6.536758 199.74686 6.481531 199.7458 6.426298 L 199.35515 -14.083243 C 199.34998 -14.354939 199.35173 -14.626722 199.3604 -14.898328 L 199.94634 -33.25794 C 199.94704 -33.27988 199.94778 -33.301823 199.94857 -33.323763 L 200.73666 -55.19307 C 200.7438 -55.391575 200.75466 -55.58993 200.7692 -55.78803 L 202.32668 -77.00865 C 202.34048 -77.19677 202.35096 -77.38512 202.3581 -77.573615 L 203.11256 -97.47248 C 203.13576 -98.08423 203.19404 -98.69414 203.28713 -99.2992 L 206.02613 -117.10272 C 206.10691 -117.62782 206.2138 -118.14857 206.3464 -118.66303 L 210.97466 -136.62068 C 211.08976 -137.06725 211.2241 -137.50864 211.37734 -137.94361 L 217.09812 -154.18325 C 217.2642 -154.65473 217.4523 -155.11816 217.66178 -155.57203 L 223.19333 -167.55707 C 223.29602 -167.77956 223.4038 -167.99967 223.5166 -168.21721 L 228.87883 -178.55864 C 228.92454 -178.64678 228.97106 -178.7345 229.0184 -178.82177 L 234.23437 -188.43873 C 234.97165 -189.7981 235.92128 -191.031 237.0474 -192.09086 L 237.0474 -192.09086 C 237.72258 -192.72633 237.75478 -193.78883 237.1193 -194.46402 C 236.9948 -194.5963 236.84967 -194.7075 236.68955 -194.79327 L 233.47542 -196.51513 C 233.25676 -196.63226 233.0354 -196.7443 232.81155 -196.85114 L 224.95757 -200.59963 C 224.55096 -200.7937 224.13634 -200.9705 223.71481 -201.12956 L 214.03998 -204.78044 C 213.84494 -204.85404 213.64848 -204.92383 213.4507 -204.98975 L 200.75623 -209.22124 C 200.617 -209.26765 200.47716 -209.31214 200.3367 -209.3547 L 187.45319 -213.2588 C 187.38266 -213.28017 187.31227 -213.30203 187.24205 -213.32437 L 174.73805 -217.30292 C 174.34442 -217.42816 173.9558 -217.5686 173.57304 -217.72393 L 161.5971 -222.58373 C 160.76543 -222.92122 159.96364 -223.32808 159.2002 -223.80002 L 149.58096 -229.74647 C 149.42526 -229.84272 149.27122 -229.94164 149.11891 -230.04317 L 144.22881 -233.30324 C 143.24742 -233.9575 142.3761 -234.7634 141.64739 -235.69086 L 141.64739 -235.69086 C 141.54178 -235.82526 141.34722 -235.8486 141.21282 -235.743 C 141.11007 -235.66228 141.0691 -235.52573 141.11042 -235.40177 L 141.24739 -234.99086 C 141.70664 -233.6131 141.8112 -232.14182 141.5514 -230.71297 L 141.15627 -228.5397 C 140.88506 -227.04804 140.40321 -225.6025 139.72519 -224.24645 L 138.19287 -221.18182 C 137.89617 -220.58842 137.56285 -220.01405 137.19484 -219.46203 L 133.99113 -214.65647 C 133.56253 -214.01357 133.08792 -213.40256 132.57104 -212.82824 L 128.00899 -207.7593 C 127.96792 -207.71367 127.9266 -207.66828 127.885 -207.62312 L 121.89077 -201.1151 C 121.26303 -200.43356 120.57728 -199.80783 119.84125 -199.24498 L 114.81707 -195.40297 C 114.37093 -195.0618 113.90712 -194.74435 113.42759 -194.45195 L 106.94119 -190.49683 C 106.27953 -190.09338 105.58943 -189.73853 104.87635 -189.4351 L 97.76094 -186.40726 C 96.95327 -186.06357 96.1187 -185.78693 95.26566 -185.58013 L 91.1866 -184.59127 C 90.36177 -184.3913 89.52233 -184.2573 88.67624 -184.1905 L 82.97603 -183.74048 C 82.5571 -183.70741 82.13702 -183.69086 81.71679 -183.69086 L 74.68447 -183.69086 C 73.92737 -183.69086 73.17122 -183.7446 72.42173 -183.85166 L 64.47528 -184.98687 C 63.990275 -185.05616 63.508705 -185.14768 63.032096 -185.26116 L 57.07087 -186.6805 C 55.92538 -186.95324 54.8135 -187.3516 53.75543 -187.86832 L 47.47543 -190.9353 C 46.99038 -191.17218 46.517626 -191.43346 46.058987 -191.71814 L 41.847124 -194.3324 C 41.247954 -194.7043 40.67403 -195.1154 40.1291 -195.56302 L 35.682993 -199.21518 C 35.459297 -199.39893 35.24063 -199.58872 35.02723 -199.78433 L 31.224887 -203.26981 C 30.773592 -203.6835 30.346412 -204.12275 29.945456 -204.5854 L 25.82671 -209.3378 C 25.507328 -209.7063 25.20496 -210.08923 24.920555 -210.48537 L 20.4909 -216.65525 C 19.996009 -217.34456 19.556738 -218.07215 19.177246 -218.83114 L 16.600782 -223.98406 C 16.565185 -224.05526 16.53012 -224.12672 16.49559 -224.19843 L 15.247386 -226.79086 C 14.396671 -228.55772 14.04115 -230.52226 14.218691 -232.47521 L 14.398897 -234.45747 C 14.422702 -234.71933 14.22972 -234.9509 13.967857 -234.97472 C 13.805462 -234.98948 13.646808 -234.9201 13.547386 -234.79086 L 13.547386 -234.79086 C 12.88394 -233.92838 12.103832 -233.1623 11.229454 -232.5146 L 7.332921 -229.6283 C 7.2092375 -229.53667 7.084238 -229.44684 6.957963 -229.35883 L 2.3357124 -226.13726 C 1.1489763 -225.31015 -.14444447 -224.64778 -1.5091943 -224.16827 L -6.11632 -222.54955 C -6.606891 -222.3772 -7.088768 -222.18102 -7.560236 -221.96173 L -14.407018 -218.77718 C -15.10318 -218.45338 -15.821744 -218.18012 -16.557143 -217.9595 L -27.427532 -214.69838 C -27.444254 -214.69336 -27.460967 -214.68832 -27.477672 -214.68325 L -38.44576 -211.35365 C -38.583657 -211.3118 -38.72098 -211.26807 -38.8577 -211.2225 L -51.77893 -206.91542 C -51.828054 -206.89904 -51.877254 -206.8829 -51.92653 -206.867 L -63.29394 -203.2001 C -63.932424 -202.99414 -64.55732 -202.74823 -65.164936 -202.4638 L -73.0969 -198.75098 C -73.46724 -198.57763 -73.8308 -198.39014 -74.186776 -198.18894 L -80.13289 -194.8281 C -81.38592 -194.11985 -81.82757 -192.52993 -81.11933 -191.2769 C -81.04222 -191.14046 -80.95295 -191.01125 -80.85262 -190.89086 L -79.9885 -189.85392 C -79.23356 -188.94799 -78.58108 -187.96137 -78.04297 -186.91204 L -74.96583 -180.91162 C -74.89036 -180.76445 -74.81261 -180.61846 -74.73261 -180.4737 L -70.77786 -173.31749 C -70.69437 -173.1664 -70.61333 -173.01399 -70.53477 -172.86029 L -66.426465 -164.8223 C -66.177396 -164.335 -65.95349 -163.83522 -65.75564 -163.32497 L -62.27287 -154.3431 C -62.25937 -154.30827 -62.24574 -154.27349 -62.231995 -154.23876 L -58.63567 -145.15332 C -58.51366 -144.84508 -58.401264 -144.53313 -58.298635 -144.21792 L -55.6768 -136.16514 C -55.66068 -136.11562 -55.644795 -136.06601 -55.629156 -136.01634 L -52.55711 -126.25807 C -52.354316 -125.6139 -52.19251 -124.95755 -52.072663 -124.29294 L -50.08735 -113.28348 C -50.064194 -113.15507 -50.04261 -113.02638 -50.0226 -112.89743 L -48.31673 -101.90405 C -48.273994 -101.62863 -48.23846 -101.35215 -48.21017 -101.07487 L -47.32275 -92.37816 C -47.276014 -91.92017 -47.24907 -91.46038 -47.241987 -91.00006 L -47.057747 -79.02444 C -47.054326 -78.80207 -47.04627 -78.5798 -47.03358 -78.35777 L -46.263206 -64.87621 C -46.256145 -64.75264 -46.24765 -64.62916 -46.237725 -64.505795 L -44.904155 -47.93142 C -44.86981 -47.50455 -44.852615 -47.076467 -44.852615 -46.648213 L -44.852615 -34.19843 C -44.852615 -33.993398 -44.848674 -33.788383 -44.840793 -33.5835 L -44.26044 -18.494364 C -44.255224 -18.358695 -44.251733 -18.222966 -44.24997 -18.087208 L -44.05781 -3.290953 C -44.054347 -3.024261 -44.057553 -2.757524 -44.067424 -2.490992 L -44.64165 13.013156 C -44.64896 13.210467 -44.652615 13.407896 -44.652615 13.605343 L -44.652615 27.20157 C -44.652615 27.406603 -44.656556 27.611618 -44.664436 27.8165 L -45.24963 43.0315 C -45.25162 43.083266 -45.25386 43.13502 -45.256355 43.18676 L -46.05168 59.6897 C -46.0523 59.702665 -46.052943 59.71563 -46.0536 59.7286 L -46.84809 75.41976 C -46.851106 75.47935 -46.854457 75.538925 -46.85814 75.59848 L -48.04705 94.81921 C -48.05076 94.87917 -48.054807 94.93911 -48.05919 94.99902 L -49.84233 119.36857 C -49.849186 119.46229 -49.85687 119.55594 -49.865377 119.64953 L -51.65127 139.29434 C -51.652166 139.30421 -51.65307 139.31409 -51.65399 139.32396 L -53.42475 158.40886 C -53.443326 158.60904 -53.46567 158.80884 -53.49177 159.00818 L -55.452486 173.9809 C -55.5853 174.99509 -55.85444 175.9867 -56.252615 176.92888 L -56.252615 176.92888 C -56.65019 177.86962 -56.89886 178.86654 -56.98968 179.8838 L -57.752615 188.42888 C -58.26037 194.1159 -54.301906 199.23427 -48.66994 200.17293 Z" stroke="#7f8080" stroke-linecap="round" stroke-linejoin="round" stroke-width="1"/>
      <path d="M -136 -86.55385 L -129.8 -82.15385 L -121.6 -78.15385 L -113 -74.55385 L -104 -70.75385 L -93 -66.753854 L -83.6 -63.953854 L -74.6 -61.353854 L -65.6 -58.753854 L -60.2 -57.353854 L -54.6 -56.353854 L -52.2 -62.153854 L -49.6 -67.553854 L -47.4 -71.55385 L -44.8 -74.95385 L -44.6 -83.95385 L -45.2 -94.95385 L -47 -105.75385 L -48.6 -116.15385 L -51.2 -127.15386 L -53.6 -136.75386 L -56.4 -144.75386 L -59.6 -154.15386 L -62.4 -161.55386 L -66 -169.15386 L -70 -176.75386 L -74 -184.15386 L -76.6 -187.75386 L -80.2 -193.55386 L -85.6 -189.15386 L -90.4 -184.35386 L -95 -178.15386 L -99.4 -171.95386 L -104.2 -163.35386 L -109 -153.95386 L -113.8 -144.75386 L -117.4 -136.15386 L -121.4 -127.15386 L -124.6 -118.95385 L -128.4 -109.55385 L -131.2 -101.55385 L -134.2 -93.15385 Z" fill="red"/>
      <path d="M -136 -86.55385 L -129.8 -82.15385 L -121.6 -78.15385 L -113 -74.55385 L -104 -70.75385 L -93 -66.753854 L -83.6 -63.953854 L -74.6 -61.353854 L -65.6 -58.753854 L -60.2 -57.353854 L -54.6 -56.353854 L -52.2 -62.153854 L -49.6 -67.553854 L -47.4 -71.55385 L -44.8 -74.95385 L -44.6 -83.95385 L -45.2 -94.95385 L -47 -105.75385 L -48.6 -116.15385 L -51.2 -127.15386 L -53.6 -136.75386 L -56.4 -144.75386 L -59.6 -154.15386 L -62.4 -161.55386 L -66 -169.15386 L -70 -176.75386 L -74 -184.15386 L -76.6 -187.75386 L -80.2 -193.55386 L -85.6 -189.15386 L -90.4 -184.35386 L -95 -178.15386 L -99.4 -171.95386 L -104.2 -163.35386 L -109 -153.95386 L -113.8 -144.75386 L -117.4 -136.15386 L -121.4 -127.15386 L -124.6 -118.95385 L -128.4 -109.55385 L -131.2 -101.55385 L -134.2 -93.15385 Z" stroke="#7f8080" stroke-linecap="round" stroke-linejoin="round" stroke-width="1"/>
      <path d="M 295.4053 -87.49725 L 289.2053 -83.09725 L 281.0053 -79.09725 L 272.4053 -75.49725 L 263.4053 -71.69725 L 252.4053 -67.69725 L 243.0053 -64.89725 L 234.0053 -62.29725 L 225.0053 -59.69725 L 219.6053 -58.29725 L 214.0053 -57.29725 L 211.6053 -63.09725 L 209.0053 -68.49725 L 206.8053 -72.49725 L 204.2053 -75.89725 L 204.0053 -84.89725 L 204.6053 -95.89725 L 206.4053 -106.69725 L 208.0053 -117.09725 L 210.6053 -128.09725 L 213.0053 -137.69725 L 215.8053 -145.69725 L 219.0053 -155.09725 L 221.8053 -162.49725 L 225.4053 -170.09725 L 229.4053 -177.69725 L 233.4053 -185.09725 L 236.0053 -188.69725 L 239.6053 -194.49725 L 245.0053 -190.09725 L 249.8053 -185.29725 L 254.4053 -179.09725 L 258.8053 -172.89725 L 263.6053 -164.29725 L 268.4053 -154.89725 L 273.2053 -145.69725 L 276.8053 -137.09725 L 280.8053 -128.09725 L 284.0053 -119.89725 L 287.8053 -110.49725 L 290.6053 -102.49725 L 293.6053 -94.09725 Z" fill="red"/>
      <path d="M 295.4053 -87.49725 L 289.2053 -83.09725 L 281.0053 -79.09725 L 272.4053 -75.49725 L 263.4053 -71.69725 L 252.4053 -67.69725 L 243.0053 -64.89725 L 234.0053 -62.29725 L 225.0053 -59.69725 L 219.6053 -58.29725 L 214.0053 -57.29725 L 211.6053 -63.09725 L 209.0053 -68.49725 L 206.8053 -72.49725 L 204.2053 -75.89725 L 204.0053 -84.89725 L 204.6053 -95.89725 L 206.4053 -106.69725 L 208.0053 -117.09725 L 210.6053 -128.09725 L 213.0053 -137.69725 L 215.8053 -145.69725 L 219.0053 -155.09725 L 221.8053 -162.49725 L 225.4053 -170.09725 L 229.4053 -177.69725 L 233.4053 -185.09725 L 236.0053 -188.69725 L 239.6053 -194.49725 L 245.0053 -190.09725 L 249.8053 -185.29725 L 254.4053 -179.09725 L 258.8053 -172.89725 L 263.6053 -164.29725 L 268.4053 -154.89725 L 273.2053 -145.69725 L 276.8053 -137.09725 L 280.8053 -128.09725 L 284.0053 -119.89725 L 287.8053 -110.49725 L 290.6053 -102.49725 L 293.6053 -94.09725 Z" stroke="#7f8080" stroke-linecap="round" stroke-linejoin="round" stroke-width="1"/>
      <path d="M -136 -86.55385 L -129.8 -82.15385 L -121.6 -78.15385 L -113 -74.55385 L -104 -70.75385 L -93 -66.753854 L -83.6 -63.953854 L -74.6 -61.353854 L -65.6 -58.753854 L -60.2 -57.353854 L -54.6 -56.353854 L -51.6 -62.753854 L -55.4 -63.553854 L -60.2 -64.753854 L -65.8 -65.953854 L -71.8 -67.753854 L -76.4 -69.153854 L -80.6 -70.35385 L -85.2 -72.35385 L -89.8 -73.95385 L -94.6 -75.95385 L -98.6 -77.35385 L -103.8 -79.55385 L -108.4 -81.15385 L -113.2 -83.35385 L -118 -85.15385 L -122 -87.15385 L -126.4 -89.35385 L -130.8 -91.55385 L -134.2 -93.15385 Z" fill="red"/>
      <path d="M -136 -86.55385 L -129.8 -82.15385 L -121.6 -78.15385 L -113 -74.55385 L -104 -70.75385 L -93 -66.753854 L -83.6 -63.953854 L -74.6 -61.353854 L -65.6 -58.753854 L -60.2 -57.353854 L -54.6 -56.353854 L -51.6 -62.753854 L -55.4 -63.553854 L -60.2 -64.753854 L -65.8 -65.953854 L -71.8 -67.753854 L -76.4 -69.153854 L -80.6 -70.35385 L -85.2 -72.35385 L -89.8 -73.95385 L -94.6 -75.95385 L -98.6 -77.35385 L -103.8 -79.55385 L -108.4 -81.15385 L -113.2 -83.35385 L -118 -85.15385 L -122 -87.15385 L -126.4 -89.35385 L -130.8 -91.55385 L -134.2 -93.15385 Z" stroke="#7f8080" stroke-linecap="round" stroke-linejoin="round" stroke-width="1"/>
      <path d="M 295.4053 -87.49725 L 289.2053 -83.09725 L 281.0053 -79.09725 L 272.4053 -75.49725 L 263.4053 -71.69725 L 252.4053 -67.69725 L 243.0053 -64.89725 L 234.0053 -62.29725 L 225.0053 -59.69725 L 219.6053 -58.29725 L 214.0053 -57.29725 L 211.0053 -63.69725 L 214.8053 -64.49725 L 219.6053 -65.69725 L 225.2053 -66.89725 L 231.2053 -68.69725 L 235.8053 -70.09725 L 240.0053 -71.29725 L 244.6053 -73.29725 L 249.2053 -74.89725 L 254.0053 -76.89725 L 258.0053 -78.29725 L 263.2053 -80.49725 L 267.8053 -82.09725 L 272.6053 -84.29725 L 277.4053 -86.09725 L 281.4053 -88.09725 L 285.8053 -90.29725 L 290.2053 -92.49725 L 293.6053 -94.09725 Z" fill="red"/>
      <path d="M 295.4053 -87.49725 L 289.2053 -83.09725 L 281.0053 -79.09725 L 272.4053 -75.49725 L 263.4053 -71.69725 L 252.4053 -67.69725 L 243.0053 -64.89725 L 234.0053 -62.29725 L 225.0053 -59.69725 L 219.6053 -58.29725 L 214.0053 -57.29725 L 211.0053 -63.69725 L 214.8053 -64.49725 L 219.6053 -65.69725 L 225.2053 -66.89725 L 231.2053 -68.69725 L 235.8053 -70.09725 L 240.0053 -71.29725 L 244.6053 -73.29725 L 249.2053 -74.89725 L 254.0053 -76.89725 L 258.0053 -78.29725 L 263.2053 -80.49725 L 267.8053 -82.09725 L 272.6053 -84.29725 L 277.4053 -86.09725 L 281.4053 -88.09725 L 285.8053 -90.29725 L 290.2053 -92.49725 L 293.6053 -94.09725 Z" stroke="#7f8080" stroke-linecap="round" stroke-linejoin="round" stroke-width="1"/>
      <path d="M 14.572121 -236.0362 L 9.84295 -231.98264 C 8.692603 -230.99662 7.447643 -230.1267 6.126213 -229.38552 L 3.599578 -227.96835 C 2.164406 -227.16338 1.583603 -225.39425 2.2623888 -223.89527 L 3.2800056 -221.64803 C 3.4015846 -221.37954 3.528313 -221.11342 3.660121 -220.8498 L 5.462391 -217.24526 L 7.949377 -212.2713 C 8.291174 -211.5877 8.666832 -210.92157 9.074952 -210.27537 L 11.401344 -206.59192 C 11.84172 -205.89465 12.31928 -205.22158 12.831953 -204.57561 L 16.242638 -200.27815 C 16.788692 -199.59013 17.373712 -198.93394 17.994822 -198.31283 L 22.660865 -193.6468 C 23.061745 -193.2459 23.47731 -192.86 23.90671 -192.48982 L 28.470235 -188.55574 C 28.864892 -188.21552 29.270997 -187.8888 29.687846 -187.57617 L 33.662786 -184.59497 C 34.3287 -184.09553 35.021233 -183.63262 35.73733 -183.20826 L 39.870394 -180.75904 C 39.99839 -180.6832 40.127117 -180.60859 40.25656 -180.53523 L 44.954107 -177.8733 C 45.6924 -177.45493 46.453276 -177.07774 47.23325 -176.74347 L 50.78307 -175.22212 C 51.36903 -174.971 51.96518 -174.74433 52.569974 -174.54274 L 57.58808 -172.87003 C 58.835325 -172.45429 60.11592 -172.14624 61.415795 -171.9493 L 65.51464 -171.32826 C 65.879756 -171.27294 66.24615 -171.22642 66.6135 -171.18874 L 73.494605 -170.48299 C 73.73978 -170.45784 73.98534 -170.43664 74.2312 -170.41938 L 78.75835 -170.10169 C 79.29421 -170.06409 79.83122 -170.04527 80.3684 -170.04527 L 83.63046 -170.04526 C 84.58416 -170.04526 85.53693 -170.10458 86.48327 -170.22287 L 90.47198 -170.72146 C 91.13195 -170.80396 91.78802 -170.91504 92.43835 -171.0544 L 98.52039 -172.3577 C 99.41426 -172.54924 100.29592 -172.7939 101.16068 -173.0904 L 105.66952 -174.63628 C 106.46417 -174.90873 107.2433 -175.22451 108.0034 -175.5822 L 112.83677 -177.85674 C 113.38697 -178.11565 113.92668 -178.39629 114.45464 -178.69798 L 118.2225 -180.85104 C 118.9153 -181.24692 119.58701 -181.67858 120.23494 -182.14428 L 124.91106 -185.50525 C 125.41175 -185.86511 125.89776 -186.24497 126.36792 -186.6439 L 131.68877 -191.15856 C 132.07108 -191.48294 132.44269 -191.81974 132.80298 -192.16842 L 137.5022 -196.71604 C 138.14179 -197.335 138.74491 -197.99056 139.30852 -198.67942 L 143.1018 -203.31566 C 143.60852 -203.93497 144.08257 -204.5803 144.52201 -205.24904 L 148.1392 -210.75344 C 148.35462 -211.08127 148.56163 -211.41456 148.76002 -211.75298 L 151.28311 -216.05708 C 151.66906 -216.71546 152.022 -217.39265 152.34062 -218.08612 L 154.45932 -222.6974 C 154.99218 -223.85715 155.36334 -225.08456 155.5624 -226.34526 L 155.5624 -226.34526 C 155.7407 -227.47453 155.1614 -228.58797 154.13432 -229.0901 L 148.84088 -231.678 C 147.52642 -232.32063 146.29183 -233.11514 145.1624 -234.04526 L 144.75638 -234.37963 C 143.91205 -235.07496 143.28864 -236.00126 142.9624 -237.04526 L 142.9624 -237.04526 C 142.91573 -237.19458 142.75686 -237.2778 142.60754 -237.23114 C 142.49247 -237.19518 142.41277 -237.09031 142.40892 -236.9698 L 142.29968 -233.5469 C 142.20894 -230.7038 141.5916 -227.90224 140.479 -225.28433 L 139.60206 -223.22096 C 139.0435 -221.90669 138.36374 -220.6473 137.5716 -219.4591 L 133.88582 -213.93042 C 133.13831 -212.80915 132.2937 -211.75575 131.36175 -210.78238 L 125.06668 -204.20753 C 124.19861 -203.30087 123.25777 -202.4668 122.2536 -201.71367 L 113.8787 -195.4325 C 113.00228 -194.77518 112.08002 -194.18133 111.11896 -193.65546 L 103.93376 -189.72394 C 102.62263 -189.00653 101.2447 -188.41863 99.81952 -187.96857 L 93.14661 -185.86133 C 91.42973 -185.31916 89.65514 -184.98046 87.85927 -184.85219 L 80.972815 -184.3603 C 79.90052 -184.2837 78.82417 -184.28238 77.751685 -184.35635 L 69.31543 -184.93816 C 68.28125 -185.00948 67.25308 -185.15064 66.23795 -185.36067 L 59.10274 -186.83692 C 57.15079 -187.24077 55.259614 -187.89665 53.47676 -188.78808 L 48.81735 -191.11779 C 47.58321 -191.73485 46.407106 -192.46173 45.30326 -193.2896 L 39.621303 -197.55108 C 39.182167 -197.88043 38.75496 -198.2254 38.34051 -198.58532 L 32.58533 -203.58324 C 31.771043 -204.29038 31.007503 -205.05392 30.30036 -205.8682 L 25.895135 -210.9409 C 25.141032 -211.80925 24.453124 -212.73295 23.8372 -213.70422 L 20.103497 -219.59198 C 19.742931 -220.16056 19.407505 -220.7447 19.098188 -221.34272 L 17.477815 -224.47544 C 16.86867 -225.65312 16.362502 -226.88126 15.964965 -228.14615 L 14.684726 -232.21964 C 14.469951 -232.90302 14.287218 -233.59605 14.137126 -234.29649 L 13.911709 -235.34843 C 13.826635 -235.74544 14.052993 -236.1431 14.437797 -236.27263 L 14.437797 -236.27263 C 14.510292 -236.29704 14.588844 -236.25805 14.613249 -236.18556 C 14.631263 -236.13205 14.61499 -236.07296 14.572121 -236.0362 Z" fill="red"/>
      <path d="M 14.572121 -236.0362 L 9.84295 -231.98264 C 8.692603 -230.99662 7.447643 -230.1267 6.126213 -229.38552 L 3.599578 -227.96835 C 2.164406 -227.16338 1.583603 -225.39425 2.2623888 -223.89527 L 3.2800056 -221.64803 C 3.4015846 -221.37954 3.528313 -221.11342 3.660121 -220.8498 L 5.462391 -217.24526 L 7.949377 -212.2713 C 8.291174 -211.5877 8.666832 -210.92157 9.074952 -210.27537 L 11.401344 -206.59192 C 11.84172 -205.89465 12.31928 -205.22158 12.831953 -204.57561 L 16.242638 -200.27815 C 16.788692 -199.59013 17.373712 -198.93394 17.994822 -198.31283 L 22.660865 -193.6468 C 23.061745 -193.2459 23.47731 -192.86 23.90671 -192.48982 L 28.470235 -188.55574 C 28.864892 -188.21552 29.270997 -187.8888 29.687846 -187.57617 L 33.662786 -184.59497 C 34.3287 -184.09553 35.021233 -183.63262 35.73733 -183.20826 L 39.870394 -180.75904 C 39.99839 -180.6832 40.127117 -180.60859 40.25656 -180.53523 L 44.954107 -177.8733 C 45.6924 -177.45493 46.453276 -177.07774 47.23325 -176.74347 L 50.78307 -175.22212 C 51.36903 -174.971 51.96518 -174.74433 52.569974 -174.54274 L 57.58808 -172.87003 C 58.835325 -172.45429 60.11592 -172.14624 61.415795 -171.9493 L 65.51464 -171.32826 C 65.879756 -171.27294 66.24615 -171.22642 66.6135 -171.18874 L 73.494605 -170.48299 C 73.73978 -170.45784 73.98534 -170.43664 74.2312 -170.41938 L 78.75835 -170.10169 C 79.29421 -170.06409 79.83122 -170.04527 80.3684 -170.04527 L 83.63046 -170.04526 C 84.58416 -170.04526 85.53693 -170.10458 86.48327 -170.22287 L 90.47198 -170.72146 C 91.13195 -170.80396 91.78802 -170.91504 92.43835 -171.0544 L 98.52039 -172.3577 C 99.41426 -172.54924 100.29592 -172.7939 101.16068 -173.0904 L 105.66952 -174.63628 C 106.46417 -174.90873 107.2433 -175.22451 108.0034 -175.5822 L 112.83677 -177.85674 C 113.38697 -178.11565 113.92668 -178.39629 114.45464 -178.69798 L 118.2225 -180.85104 C 118.9153 -181.24692 119.58701 -181.67858 120.23494 -182.14428 L 124.91106 -185.50525 C 125.41175 -185.86511 125.89776 -186.24497 126.36792 -186.6439 L 131.68877 -191.15856 C 132.07108 -191.48294 132.44269 -191.81974 132.80298 -192.16842 L 137.5022 -196.71604 C 138.14179 -197.335 138.74491 -197.99056 139.30852 -198.67942 L 143.1018 -203.31566 C 143.60852 -203.93497 144.08257 -204.5803 144.52201 -205.24904 L 148.1392 -210.75344 C 148.35462 -211.08127 148.56163 -211.41456 148.76002 -211.75298 L 151.28311 -216.05708 C 151.66906 -216.71546 152.022 -217.39265 152.34062 -218.08612 L 154.45932 -222.6974 C 154.99218 -223.85715 155.36334 -225.08456 155.5624 -226.34526 L 155.5624 -226.34526 C 155.7407 -227.47453 155.1614 -228.58797 154.13432 -229.0901 L 148.84088 -231.678 C 147.52642 -232.32063 146.29183 -233.11514 145.1624 -234.04526 L 144.75638 -234.37963 C 143.91205 -235.07496 143.28864 -236.00126 142.9624 -237.04526 L 142.9624 -237.04526 C 142.91573 -237.19458 142.75686 -237.2778 142.60754 -237.23114 C 142.49247 -237.19518 142.41277 -237.09031 142.40892 -236.9698 L 142.29968 -233.5469 C 142.20894 -230.7038 141.5916 -227.90224 140.479 -225.28433 L 139.60206 -223.22096 C 139.0435 -221.90669 138.36374 -220.6473 137.5716 -219.4591 L 133.88582 -213.93042 C 133.13831 -212.80915 132.2937 -211.75575 131.36175 -210.78238 L 125.06668 -204.20753 C 124.19861 -203.30087 123.25777 -202.4668 122.2536 -201.71367 L 113.8787 -195.4325 C 113.00228 -194.77518 112.08002 -194.18133 111.11896 -193.65546 L 103.93376 -189.72394 C 102.62263 -189.00653 101.2447 -188.41863 99.81952 -187.96857 L 93.14661 -185.86133 C 91.42973 -185.31916 89.65514 -184.98046 87.85927 -184.85219 L 80.972815 -184.3603 C 79.90052 -184.2837 78.82417 -184.28238 77.751685 -184.35635 L 69.31543 -184.93816 C 68.28125 -185.00948 67.25308 -185.15064 66.23795 -185.36067 L 59.10274 -186.83692 C 57.15079 -187.24077 55.259614 -187.89665 53.47676 -188.78808 L 48.81735 -191.11779 C 47.58321 -191.73485 46.407106 -192.46173 45.30326 -193.2896 L 39.621303 -197.55108 C 39.182167 -197.88043 38.75496 -198.2254 38.34051 -198.58532 L 32.58533 -203.58324 C 31.771043 -204.29038 31.007503 -205.05392 30.30036 -205.8682 L 25.895135 -210.9409 C 25.141032 -211.80925 24.453124 -212.73295 23.8372 -213.70422 L 20.103497 -219.59198 C 19.742931 -220.16056 19.407505 -220.7447 19.098188 -221.34272 L 17.477815 -224.47544 C 16.86867 -225.65312 16.362502 -226.88126 15.964965 -228.14615 L 14.684726 -232.21964 C 14.469951 -232.90302 14.287218 -233.59605 14.137126 -234.29649 L 13.911709 -235.34843 C 13.826635 -235.74544 14.052993 -236.1431 14.437797 -236.27263 L 14.437797 -236.27263 C 14.510292 -236.29704 14.588844 -236.25805 14.613249 -236.18556 C 14.631263 -236.13205 14.61499 -236.07296 14.572121 -236.0362 Z" stroke="#7f8080" stroke-linecap="round" stroke-linejoin="round" stroke-width="1"/>
      <path d="M 14.059248 -236.2441 L 19.459248 -236.8441 L 26.259248 -233.4441 L 31.259248 -231.6441 L 39.65925 -229.8441 L 48.05925 -228.8441 L 56.05925 -227.8441 L 63.65925 -227.6441 L 72.25925 -227.2441 L 83.85925 -227.4441 L 92.25925 -227.8441 L 101.65925 -228.4441 L 110.05925 -229.2441 L 119.25925 -230.6441 L 127.45925 -232.8441 L 133.25925 -234.6441 L 138.85925 -237.2441 L 141.65925 -236.0441 L 142.05925 -230.4441 L 139.25925 -222.4441 L 133.85925 -219.6441 L 123.25925 -216.4441 L 111.85925 -214.0441 L 100.65925 -213.2441 L 88.25925 -212.2441 L 77.85925 -212.2441 L 68.45925 -212.2441 L 56.85925 -212.8441 L 45.65925 -213.6441 L 35.059248 -215.8441 L 26.459248 -217.8441 L 20.259248 -220.6441 L 18.259248 -222.2441 L 15.059248 -229.8441 Z" fill="red"/>
      <path d="M 14.059248 -236.2441 L 19.459248 -236.8441 L 26.259248 -233.4441 L 31.259248 -231.6441 L 39.65925 -229.8441 L 48.05925 -228.8441 L 56.05925 -227.8441 L 63.65925 -227.6441 L 72.25925 -227.2441 L 83.85925 -227.4441 L 92.25925 -227.8441 L 101.65925 -228.4441 L 110.05925 -229.2441 L 119.25925 -230.6441 L 127.45925 -232.8441 L 133.25925 -234.6441 L 138.85925 -237.2441 L 141.65925 -236.0441 L 142.05925 -230.4441 L 139.25925 -222.4441 L 133.85925 -219.6441 L 123.25925 -216.4441 L 111.85925 -214.0441 L 100.65925 -213.2441 L 88.25925 -212.2441 L 77.85925 -212.2441 L 68.45925 -212.2441 L 56.85925 -212.8441 L 45.65925 -213.6441 L 35.059248 -215.8441 L 26.459248 -217.8441 L 20.259248 -220.6441 L 18.259248 -222.2441 L 15.059248 -229.8441 Z" stroke="#7f8080" stroke-linecap="round" stroke-linejoin="round" stroke-width="1"/>
      <path d="M -56.186787 190.2 L -56.186787 190.2 C -56.25247 190.72549 -56.189645 191.25905 -56.0037 191.7549 L -55.352694 193.49092 C -55.17594 193.96227 -54.948853 194.41318 -54.67538 194.83582 L -53.707566 196.33153 C -53.16661 197.16756 -52.453506 197.87855 -51.61588 198.41702 L -50.53783 199.11005 C -50.237574 199.30307 -49.922994 199.47285 -49.596843 199.61789 L -48.27999 200.20349 C -47.68346 200.46876 -47.052754 200.64928 -46.406207 200.7398 L -37.395787 202.00126 C -37.385793 202.00265 -37.375797 202.00403 -37.365797 202.00539 L -25.6498 203.594 C -25.603798 203.60024 -25.557737 203.60601 -25.511622 203.61134 L -15.228685 204.79783 C -15.19676 204.8015 -15.164809 204.80498 -15.132835 204.80822 L -1.4227692 206.1991 C -1.3947873 206.20193 -1.3667884 206.2046 -1.3387743 206.2071 L 9.766526 207.19865 C 9.801644 207.20179 9.836786 207.20466 9.871948 207.20726 L 20.558485 207.99886 C 20.598964 208.00185 20.639468 208.0045 20.679993 208.0068 L 31.187976 208.60159 C 31.208795 208.60276 31.22961 208.60404 31.250416 208.6054 L 43.293193 209.3951 C 43.377194 209.4006 43.46129 209.4046 43.54543 209.40707 L 56.99256 209.80257 C 57.01032 209.8031 57.028085 209.80368 57.045846 209.80434 L 67.68971 210.19856 C 67.77603 210.20176 67.86241 210.20335 67.94879 210.20335 L 78.55781 210.20335 C 78.59874 210.20335 78.63967 210.20371 78.68059 210.20443 L 89.76702 210.39893 C 89.93509 210.40188 90.10321 210.39877 90.27106 210.38962 L 100.89229 209.81028 C 100.97689 209.80566 101.06157 209.80258 101.14629 209.80104 L 111.91085 209.60532 C 111.98308 209.604 112.05529 209.60158 112.12745 209.59803 L 124.14607 209.00695 C 124.19483 209.00455 124.24355 209.00165 124.29225 208.99823 L 135.5323 208.20945 C 135.59023 208.20539 135.64812 208.2006 135.70594 208.1951 L 148.11651 207.01313 C 148.18497 207.00661 148.25352 207.0011 148.32214 206.9966 L 160.25416 206.21418 C 160.36418 206.20696 160.474 206.19715 160.58355 206.18475 L 170.9959 205.006 C 171.01144 205.00423 171.02697 205.00242 171.0425 205.00056 L 180.9902 203.80683 C 181.00954 203.80451 181.02886 203.80211 181.04818 203.79963 L 194.88394 202.0221 C 194.98115 202.0096 195.0781 201.99507 195.1747 201.97851 L 201.72819 200.85506 C 201.92915 200.8206 202.13153 200.79495 202.33473 200.77817 L 205.56706 200.5112 C 206.4563 200.43775 207.3233 200.19497 208.12135 199.79594 L 209.60765 199.0528 C 210.20824 198.7525 210.7625 198.36735 211.25338 197.9092 L 212.5885 196.66308 C 213.19532 196.09672 213.65073 195.38747 213.91322 194.6 L 214.20805 193.71552 C 214.27812 193.5053 214.33817 193.29187 214.388 193.07595 L 214.8577 191.04056 C 214.89293 190.88792 214.8595 190.72752 214.7662 190.60168 L 214.7662 190.60168 C 214.67587 190.4798 214.52523 190.4183 214.3754 190.44214 L 205.89555 191.7912 C 205.84466 191.7993 205.79385 191.80796 205.74315 191.81718 L 192.7584 194.17805 C 192.6656 194.19492 192.5725 194.2099 192.47911 194.22302 L 181.24943 195.79911 C 181.22928 195.80194 181.20914 195.80486 181.18902 195.80786 L 168.06643 197.76645 C 167.90167 197.79105 167.73608 197.80975 167.56998 197.82253 L 154.84517 198.80136 C 154.82786 198.8027 154.81055 198.80396 154.79323 198.80516 L 140.45308 199.801 C 140.4305 199.80257 140.4079 199.80403 140.3853 199.80538 L 127.08205 200.5996 C 127.04016 200.6021 126.99824 200.60423 126.9563 200.60597 L 112.76485 201.19729 C 112.66776 201.20133 112.5706 201.20335 112.47344 201.20335 L 99.2192 201.20335 L 86.67753 201.20335 C 86.63865 201.20335 86.59976 201.20368 86.56088 201.20433 L 74.8025 201.4003 C 74.68032 201.40234 74.55812 201.40117 74.436005 201.3968 L 63.602405 201.0099 C 63.48029 201.00554 63.35809 201.00437 63.235914 201.0064 L 51.521274 201.20165 C 51.45323 201.20279 51.385176 201.20293 51.31713 201.20208 L 35.614845 201.0058 C 35.484443 201.00417 35.354113 200.9989 35.224007 200.98998 L 20.91423 200.00986 C 20.850882 200.00552 20.787597 200.00032 20.724392 199.99426 L 6.233386 198.60471 C 6.2239315 198.6038 6.214479 198.60288 6.205028 198.60194 L -7.607008 197.22073 C -7.722849 197.20915 -7.838382 197.19468 -7.953501 197.17733 L -22.262653 195.02116 C -22.34141 195.0093 -22.420363 194.99877 -22.499479 194.9896 L -36.01941 193.42207 C -36.126987 193.4096 -36.23426 193.39463 -36.34114 193.37718 L -45.73323 191.84377 C -45.89822 191.81684 -46.062195 191.784 -46.224836 191.74532 L -55.302435 189.58654 C -55.690754 189.4942 -56.08041 189.73412 -56.17276 190.12244 C -56.17884 190.14802 -56.183525 190.17392 -56.186787 190.2 Z" fill="red"/>
      <path d="M -56.186787 190.2 L -56.186787 190.2 C -56.25247 190.72549 -56.189645 191.25905 -56.0037 191.7549 L -55.352694 193.49092 C -55.17594 193.96227 -54.948853 194.41318 -54.67538 194.83582 L -53.707566 196.33153 C -53.16661 197.16756 -52.453506 197.87855 -51.61588 198.41702 L -50.53783 199.11005 C -50.237574 199.30307 -49.922994 199.47285 -49.596843 199.61789 L -48.27999 200.20349 C -47.68346 200.46876 -47.052754 200.64928 -46.406207 200.7398 L -37.395787 202.00126 C -37.385793 202.00265 -37.375797 202.00403 -37.365797 202.00539 L -25.6498 203.594 C -25.603798 203.60024 -25.557737 203.60601 -25.511622 203.61134 L -15.228685 204.79783 C -15.19676 204.8015 -15.164809 204.80498 -15.132835 204.80822 L -1.4227692 206.1991 C -1.3947873 206.20193 -1.3667884 206.2046 -1.3387743 206.2071 L 9.766526 207.19865 C 9.801644 207.20179 9.836786 207.20466 9.871948 207.20726 L 20.558485 207.99886 C 20.598964 208.00185 20.639468 208.0045 20.679993 208.0068 L 31.187976 208.60159 C 31.208795 208.60276 31.22961 208.60404 31.250416 208.6054 L 43.293193 209.3951 C 43.377194 209.4006 43.46129 209.4046 43.54543 209.40707 L 56.99256 209.80257 C 57.01032 209.8031 57.028085 209.80368 57.045846 209.80434 L 67.68971 210.19856 C 67.77603 210.20176 67.86241 210.20335 67.94879 210.20335 L 78.55781 210.20335 C 78.59874 210.20335 78.63967 210.20371 78.68059 210.20443 L 89.76702 210.39893 C 89.93509 210.40188 90.10321 210.39877 90.27106 210.38962 L 100.89229 209.81028 C 100.97689 209.80566 101.06157 209.80258 101.14629 209.80104 L 111.91085 209.60532 C 111.98308 209.604 112.05529 209.60158 112.12745 209.59803 L 124.14607 209.00695 C 124.19483 209.00455 124.24355 209.00165 124.29225 208.99823 L 135.5323 208.20945 C 135.59023 208.20539 135.64812 208.2006 135.70594 208.1951 L 148.11651 207.01313 C 148.18497 207.00661 148.25352 207.0011 148.32214 206.9966 L 160.25416 206.21418 C 160.36418 206.20696 160.474 206.19715 160.58355 206.18475 L 170.9959 205.006 C 171.01144 205.00423 171.02697 205.00242 171.0425 205.00056 L 180.9902 203.80683 C 181.00954 203.80451 181.02886 203.80211 181.04818 203.79963 L 194.88394 202.0221 C 194.98115 202.0096 195.0781 201.99507 195.1747 201.97851 L 201.72819 200.85506 C 201.92915 200.8206 202.13153 200.79495 202.33473 200.77817 L 205.56706 200.5112 C 206.4563 200.43775 207.3233 200.19497 208.12135 199.79594 L 209.60765 199.0528 C 210.20824 198.7525 210.7625 198.36735 211.25338 197.9092 L 212.5885 196.66308 C 213.19532 196.09672 213.65073 195.38747 213.91322 194.6 L 214.20805 193.71552 C 214.27812 193.5053 214.33817 193.29187 214.388 193.07595 L 214.8577 191.04056 C 214.89293 190.88792 214.8595 190.72752 214.7662 190.60168 L 214.7662 190.60168 C 214.67587 190.4798 214.52523 190.4183 214.3754 190.44214 L 205.89555 191.7912 C 205.84466 191.7993 205.79385 191.80796 205.74315 191.81718 L 192.7584 194.17805 C 192.6656 194.19492 192.5725 194.2099 192.47911 194.22302 L 181.24943 195.79911 C 181.22928 195.80194 181.20914 195.80486 181.18902 195.80786 L 168.06643 197.76645 C 167.90167 197.79105 167.73608 197.80975 167.56998 197.82253 L 154.84517 198.80136 C 154.82786 198.8027 154.81055 198.80396 154.79323 198.80516 L 140.45308 199.801 C 140.4305 199.80257 140.4079 199.80403 140.3853 199.80538 L 127.08205 200.5996 C 127.04016 200.6021 126.99824 200.60423 126.9563 200.60597 L 112.76485 201.19729 C 112.66776 201.20133 112.5706 201.20335 112.47344 201.20335 L 99.2192 201.20335 L 86.67753 201.20335 C 86.63865 201.20335 86.59976 201.20368 86.56088 201.20433 L 74.8025 201.4003 C 74.68032 201.40234 74.55812 201.40117 74.436005 201.3968 L 63.602405 201.0099 C 63.48029 201.00554 63.35809 201.00437 63.235914 201.0064 L 51.521274 201.20165 C 51.45323 201.20279 51.385176 201.20293 51.31713 201.20208 L 35.614845 201.0058 C 35.484443 201.00417 35.354113 200.9989 35.224007 200.98998 L 20.91423 200.00986 C 20.850882 200.00552 20.787597 200.00032 20.724392 199.99426 L 6.233386 198.60471 C 6.2239315 198.6038 6.214479 198.60288 6.205028 198.60194 L -7.607008 197.22073 C -7.722849 197.20915 -7.838382 197.19468 -7.953501 197.17733 L -22.262653 195.02116 C -22.34141 195.0093 -22.420363 194.99877 -22.499479 194.9896 L -36.01941 193.42207 C -36.126987 193.4096 -36.23426 193.39463 -36.34114 193.37718 L -45.73323 191.84377 C -45.89822 191.81684 -46.062195 191.784 -46.224836 191.74532 L -55.302435 189.58654 C -55.690754 189.4942 -56.08041 189.73412 -56.17276 190.12244 C -56.17884 190.14802 -56.183525 190.17392 -56.186787 190.2 Z" stroke="#7f8080" stroke-linecap="round" stroke-linejoin="round" stroke-width="1"/>
      <path d="M 186.27291 194.83719 L 197.47305 193.83352 L 210.70958 191.82619 L 214.78235 189.81885 L 209.69138 158.70516 L 206.6368 131.60614 L 204.6004 104.50711 L 201.54583 77.40809 L 200.52763 49.305403 L 200.52763 20.199047 L 199.50944 -3.888973 L 199.50944 -41.02467 L 201.54583 -74.1457 L 204.6004 -105.25939 L 206.6368 -120.3144 L 211.72777 -136.37308 L 215.80055 -150.42443 L 219.87333 -163.4721 L 228.01888 -177.52345 L 234.12804 -188.5638 L 239.21902 -195.58946 L 230.05527 -200.6078 L 216.81874 -205.62614 L 203.58222 -209.6408 L 184.23653 -214.65914 L 181 195 Z" fill="white"/>
      <path d="M 186.27291 194.83719 L 197.47305 193.83352 L 210.70958 191.82619 L 214.78235 189.81885 L 209.69138 158.70516 L 206.6368 131.60614 L 204.6004 104.50711 L 201.54583 77.40809 L 200.52763 49.305403 L 200.52763 20.199047 L 199.50944 -3.888973 L 199.50944 -41.02467 L 201.54583 -74.1457 L 204.6004 -105.25939 L 206.6368 -120.3144 L 211.72777 -136.37308 L 215.80055 -150.42443 L 219.87333 -163.4721 L 228.01888 -177.52345 L 234.12804 -188.5638 L 239.21902 -195.58946 L 230.05527 -200.6078 L 216.81874 -205.62614 L 203.58222 -209.6408 L 184.23653 -214.65914 L 181 195 Z" stroke="#7f8080" stroke-linecap="round" stroke-linejoin="round" stroke-width="1"/>
      <path d="M -24.6583 193.8861 L -28.972028 193.46113 L -39.97203 192.46113 L -52.97203 190.46113 L -56.97203 188.46113 L -51.97203 157.46113 L -50.1583 131.3861 L -47.6583 103.3861 L -46.1583 76.3861 L -45.6583 47.3861 L -44.1583 20.3861 L -43.6583 -5.1138996 L -44.6583 -41.1139 L -45.6583 -74.6139 L -45.6583 -89.6139 L -48.1583 -105.1139 L -50.6583 -120.1139 L -55.1583 -135.6139 L -59.6583 -150.1139 L -64.6583 -163.6139 L -71.1583 -177.1139 L -77.6583 -187.6139 L -81.1583 -194.1139 L -71.97203 -200.53887 L -58.97203 -205.53887 L -45.97203 -209.53887 L -27.6583 -215.1139 L -22.1583 -216.6139 Z" fill="white"/>
      <path d="M -24.6583 193.8861 L -28.972028 193.46113 L -39.97203 192.46113 L -52.97203 190.46113 L -56.97203 188.46113 L -51.97203 157.46113 L -50.1583 131.3861 L -47.6583 103.3861 L -46.1583 76.3861 L -45.6583 47.3861 L -44.1583 20.3861 L -43.6583 -5.1138996 L -44.6583 -41.1139 L -45.6583 -74.6139 L -45.6583 -89.6139 L -48.1583 -105.1139 L -50.6583 -120.1139 L -55.1583 -135.6139 L -59.6583 -150.1139 L -64.6583 -163.6139 L -71.1583 -177.1139 L -77.6583 -187.6139 L -81.1583 -194.1139 L -71.97203 -200.53887 L -58.97203 -205.53887 L -45.97203 -209.53887 L -27.6583 -215.1139 L -22.1583 -216.6139 Z" stroke="#7f8080" stroke-linecap="round" stroke-linejoin="round" stroke-width="1"/>
      <path d="M 15.5 198 L 21 199 L 35 199.5 L 56 199.5 L 56 -174 L 44 -178 L 37 -182 L 28 -188 L 19 -196.5 Z" fill="white"/>
      <path d="M 15.5 198 L 21 199 L 35 199.5 L 56 199.5 L 56 -174 L 44 -178 L 37 -182 L 28 -188 L 19 -196.5 Z" stroke="#7f8080" stroke-linecap="round" stroke-linejoin="round" stroke-width="1"/>
      <path d="M 109 -175.5 L 118 -180.5 L 124 -185 L 132 -191 L 138 -197.5 L 142.5 198.5 L 125.5 199.5 L 114.5 200 L 108 200.5 L 104 200 L 105 200 L 101 -172.5 Z" fill="white"/>
      <path d="M 109 -175.5 L 118 -180.5 L 124 -185 L 132 -191 L 138 -197.5 L 142.5 198.5 L 125.5 199.5 L 114.5 200 L 108 200.5 L 104 200 L 105 200 L 101 -172.5 Z" stroke="#7f8080" stroke-linecap="round" stroke-linejoin="round" stroke-width="1"/>
    </g>
  </g>
</svg>
