<?xml version="1.0" encoding="UTF-8" standalone="no"?>
<!DOCTYPE svg PUBLIC "-//W3C//DTD SVG 1.1//EN" "http://www.w3.org/Graphics/SVG/1.1/DTD/svg11.dtd">
<svg xmlns="http://www.w3.org/2000/svg" xmlns:xl="http://www.w3.org/1999/xlink" version="1.1" viewBox="-1254.5 -170.5 432.4053 449.30915" width="432.4053pt" height="449.30915pt" xmlns:dc="http://purl.org/dc/elements/1.1/">
  <metadata> Produced by OmniGraffle 7.4.2 
    <dc:date>2018-03-14 22:12:47 +0000</dc:date>
  </metadata>
  <defs>
    <radialGradient cx="0" cy="0" r="1" id="Gradient" gradientUnits="userSpaceOnUse">
      <stop offset="0" stop-color="#cbcbcb"/>
      <stop offset="1" stop-color="#021224"/>
    </radialGradient>
    <radialGradient id="Obj_Gradient" xl:href="#Gradient" gradientTransform="translate(-1039.2408 -142.6) scale(70.26272)"/>
    <radialGradient cx="0" cy="0" r="1" id="Gradient_2" gradientUnits="userSpaceOnUse">
      <stop offset="0" stop-color="white"/>
      <stop offset="1" stop-color="#0d081d"/>
    </radialGradient>
    <radialGradient id="Obj_Gradient_2" xl:href="#Gradient_2" gradientTransform="translate(-1038.6703 266.9834) scale(135.94141)"/>
  </defs>
  <g stroke="none" stroke-opacity="1" stroke-dasharray="none" fill="none" fill-opacity="1">
    <title>toulouse</title>
    <rect fill="white" width="432.4053" height="449.30915"/>
    <g>
      <title>Capa 1</title>
      <path d="M -1100.9943 -169.40955 L -1092.8289 -166.29184 C -1091.9709 -165.96424 -1091.094 -165.68833 -1090.2031 -165.46558 L -1076.4859 -162.03629 C -1075.3242 -161.74587 -1074.1417 -161.54662 -1072.949 -161.44034 L -1055.4228 -159.8786 C -1054.835 -159.82622 -1054.2454 -159.79648 -1053.6552 -159.78946 L -1038.1763 -159.60519 C -1037.886 -159.60173 -1037.5956 -159.60377 -1037.3053 -159.61131 L -1022.882 -159.98594 C -1022.5212 -159.99531 -1022.1607 -160.01317 -1021.8008 -160.03951 L -1007.4295 -161.09107 C -1006.438 -161.16361 -1005.4523 -161.30036 -1004.4786 -161.50044 L -992.9056 -163.87845 C -991.8636 -164.09256 -990.8377 -164.3787 -989.8353 -164.73481 L -978.0834 -168.90986 C -976.993 -169.29723 -975.7898 -168.76646 -975.3408 -167.7 L -975.3408 -167.7 C -974.8186 -166.4599 -974.6666 -165.09515 -974.9032 -163.77055 L -975.0836 -162.75986 C -975.3874 -161.0587 -975.8819 -159.3972 -976.5579 -157.80681 L -978.1011 -154.1757 C -978.6596 -152.86142 -979.3394 -151.60202 -980.1315 -150.41382 L -983.8173 -144.88515 C -984.5648 -143.76389 -985.4094 -142.71049 -986.3414 -141.73711 L -992.6365 -135.16226 C -993.5045 -134.25561 -994.4454 -133.42154 -995.4495 -132.6684 L -1003.8244 -126.38723 C -1004.7009 -125.72992 -1005.6231 -125.13606 -1006.5842 -124.6102 L -1013.7694 -120.67867 C -1015.0805 -119.96126 -1016.4584 -119.37336 -1017.8836 -118.9233 L -1024.5565 -116.81607 C -1026.2734 -116.2739 -1028.048 -115.9352 -1029.8439 -115.80692 L -1036.7303 -115.31503 C -1037.8026 -115.23844 -1038.879 -115.23712 -1039.9515 -115.31108 L -1048.3877 -115.89289 C -1049.4219 -115.96422 -1050.45 -116.10537 -1051.4652 -116.3154 L -1058.6004 -117.79165 C -1060.5524 -118.1955 -1062.4435 -118.85139 -1064.2264 -119.74281 L -1068.8858 -122.07252 C -1070.1199 -122.68959 -1071.296 -123.41646 -1072.3999 -124.24434 L -1078.0818 -128.50581 C -1078.521 -128.83517 -1078.9482 -129.18013 -1079.3626 -129.54005 L -1085.1178 -134.53797 C -1085.9321 -135.24511 -1086.6956 -136.00865 -1087.4028 -136.82294 L -1091.808 -141.89562 C -1092.5621 -142.76398 -1093.25 -143.68768 -1093.866 -144.65895 L -1097.5996 -150.54671 C -1097.9602 -151.1153 -1098.2956 -151.69944 -1098.605 -152.29745 L -1100.2253 -155.43017 C -1100.8345 -156.60785 -1101.3406 -157.836 -1101.7382 -159.10089 L -1103.0184 -163.17438 C -1103.2332 -163.85775 -1103.4159 -164.55079 -1103.566 -165.25122 L -1103.6408 -165.6 C -1103.8354 -166.50843 -1103.7282 -167.45557 -1103.3353 -168.29746 L -1103.2408 -168.5 C -1102.8463 -169.3453 -1101.8658 -169.7423 -1100.9943 -169.40955 Z" fill="url(#Obj_Gradient)"/>
      <path d="M -1100.9943 -169.40955 L -1092.8289 -166.29184 C -1091.9709 -165.96424 -1091.094 -165.68833 -1090.2031 -165.46558 L -1076.4859 -162.03629 C -1075.3242 -161.74587 -1074.1417 -161.54662 -1072.949 -161.44034 L -1055.4228 -159.8786 C -1054.835 -159.82622 -1054.2454 -159.79648 -1053.6552 -159.78946 L -1038.1763 -159.60519 C -1037.886 -159.60173 -1037.5956 -159.60377 -1037.3053 -159.61131 L -1022.882 -159.98594 C -1022.5212 -159.99531 -1022.1607 -160.01317 -1021.8008 -160.03951 L -1007.4295 -161.09107 C -1006.438 -161.16361 -1005.4523 -161.30036 -1004.4786 -161.50044 L -992.9056 -163.87845 C -991.8636 -164.09256 -990.8377 -164.3787 -989.8353 -164.73481 L -978.0834 -168.90986 C -976.993 -169.29723 -975.7898 -168.76646 -975.3408 -167.7 L -975.3408 -167.7 C -974.8186 -166.4599 -974.6666 -165.09515 -974.9032 -163.77055 L -975.0836 -162.75986 C -975.3874 -161.0587 -975.8819 -159.3972 -976.5579 -157.80681 L -978.1011 -154.1757 C -978.6596 -152.86142 -979.3394 -151.60202 -980.1315 -150.41382 L -983.8173 -144.88515 C -984.5648 -143.76389 -985.4094 -142.71049 -986.3414 -141.73711 L -992.6365 -135.16226 C -993.5045 -134.25561 -994.4454 -133.42154 -995.4495 -132.6684 L -1003.8244 -126.38723 C -1004.7009 -125.72992 -1005.6231 -125.13606 -1006.5842 -124.6102 L -1013.7694 -120.67867 C -1015.0805 -119.96126 -1016.4584 -119.37336 -1017.8836 -118.9233 L -1024.5565 -116.81607 C -1026.2734 -116.2739 -1028.048 -115.9352 -1029.8439 -115.80692 L -1036.7303 -115.31503 C -1037.8026 -115.23844 -1038.879 -115.23712 -1039.9515 -115.31108 L -1048.3877 -115.89289 C -1049.4219 -115.96422 -1050.45 -116.10537 -1051.4652 -116.3154 L -1058.6004 -117.79165 C -1060.5524 -118.1955 -1062.4435 -118.85139 -1064.2264 -119.74281 L -1068.8858 -122.07252 C -1070.1199 -122.68959 -1071.296 -123.41646 -1072.3999 -124.24434 L -1078.0818 -128.50581 C -1078.521 -128.83517 -1078.9482 -129.18013 -1079.3626 -129.54005 L -1085.1178 -134.53797 C -1085.9321 -135.24511 -1086.6956 -136.00865 -1087.4028 -136.82294 L -1091.808 -141.89562 C -1092.5621 -142.76398 -1093.25 -143.68768 -1093.866 -144.65895 L -1097.5996 -150.54671 C -1097.9602 -151.1153 -1098.2956 -151.69944 -1098.605 -152.29745 L -1100.2253 -155.43017 C -1100.8345 -156.60785 -1101.3406 -157.836 -1101.7382 -159.10089 L -1103.0184 -163.17438 C -1103.2332 -163.85775 -1103.4159 -164.55079 -1103.566 -165.25122 L -1103.6408 -165.6 C -1103.8354 -166.50843 -1103.7282 -167.45557 -1103.3353 -168.29746 L -1103.2408 -168.5 C -1102.8463 -169.3453 -1101.8658 -169.7423 -1100.9943 -169.40955 Z" stroke="#7f8080" stroke-linecap="round" stroke-linejoin="round" stroke-width="1"/>
      <path d="M -1166.67 268.17293 L -1152.9277 270.4633 C -1152.7443 270.49387 -1152.5604 270.52123 -1152.3761 270.5454 L -1124.0225 274.2607 C -1123.7759 274.293 -1123.5287 274.31955 -1123.2809 274.34033 L -1093.038 276.87683 C -1092.7811 276.89837 -1092.5237 276.9137 -1092.2661 276.9228 L -1053.3352 278.29916 C -1053.1468 278.30582 -1052.9584 278.30915 -1052.7699 278.30915 L -1021.3026 278.30915 C -1021.1359 278.30915 -1020.9693 278.30655 -1020.8028 278.30134 L -995.768 277.519 C -995.5578 277.51244 -995.3477 277.50172 -995.1378 277.48687 L -973.0901 275.92596 C -972.9318 275.91476 -972.7736 275.9012 -972.6157 275.88528 L -947.3552 273.33965 C -947.1535 273.31932 -946.9522 273.29516 -946.7514 273.26717 L -922.9587 269.9518 C -922.7546 269.92337 -922.5512 269.891 -922.3484 269.85472 L -913.1526 268.20915 C -907.8255 267.25588 -904.1746 262.30223 -904.841 256.9317 L -907.0486 239.14113 C -907.0513 239.1198 -907.0539 239.0985 -907.0564 239.07716 L -910.6203 209.37863 C -910.6418 209.199 -910.6603 209.019 -910.6758 208.83873 L -913.038 181.27952 C -913.0477 181.16594 -913.0563 181.05227 -913.0636 180.9385 L -914.4502 159.34687 C -914.4518 159.32172 -914.4535 159.29658 -914.4552 159.27144 L -916.0474 136.18513 C -916.0509 136.13448 -916.0541 136.0838 -916.0571 136.03312 L -917.2335 116.23095 C -917.2462 116.01644 -917.2547 115.80169 -917.2588 115.58684 L -917.651 94.992 C -917.6521 94.93677 -917.6534 94.88154 -917.655 94.82632 L -918.2502 74.59198 C -918.2518 74.53676 -918.2531 74.48153 -918.2542 74.4263 L -918.6448 53.91676 C -918.65 53.64506 -918.6483 53.37328 -918.6396 53.10167 L -918.0537 34.74206 C -918.053 34.72012 -918.0522 34.698177 -918.0514 34.676237 L -917.2633 12.80693 C -917.2562 12.608425 -917.2453 12.410071 -917.2308 12.21197 L -915.6733 -9.008647 C -915.6595 -9.19677 -915.649 -9.385122 -915.6419 -9.573615 L -914.8874 -29.472483 C -914.8642 -30.084228 -914.806 -30.694138 -914.7129 -31.299204 L -911.9739 -49.10272 C -911.8931 -49.62782 -911.7862 -50.14857 -911.6536 -50.66303 L -907.0253 -68.62068 C -906.9102 -69.067255 -906.7759 -69.50864 -906.6227 -69.94361 L -900.9019 -86.18325 C -900.7358 -86.65473 -900.5477 -87.11816 -900.3382 -87.57203 L -894.8067 -99.55707 C -894.704 -99.77956 -894.5962 -99.99967 -894.4834 -100.21721 L -889.1212 -110.55864 C -889.0755 -110.64678 -889.0289 -110.7345 -888.9816 -110.82177 L -883.7656 -120.43873 C -883.0283 -121.79809 -882.0787 -123.03099 -880.9526 -124.09086 L -880.9526 -124.09086 C -880.2774 -124.72633 -880.2452 -125.78883 -880.8807 -126.46402 C -881.0052 -126.5963 -881.1503 -126.70749 -881.3104 -126.79327 L -884.5246 -128.51513 C -884.7432 -128.63226 -884.9646 -128.7443 -885.1885 -128.85114 L -893.0424 -132.59963 C -893.449 -132.7937 -893.8637 -132.9705 -894.2852 -133.12956 L -903.96 -136.78044 C -904.1551 -136.85404 -904.3515 -136.92383 -904.5493 -136.98975 L -917.2438 -141.22124 C -917.383 -141.26765 -917.5228 -141.31214 -917.6633 -141.3547 L -930.5468 -145.2588 C -930.6173 -145.28017 -930.6877 -145.30203 -930.758 -145.32437 L -943.262 -149.30292 C -943.6556 -149.42816 -944.0442 -149.5686 -944.427 -149.72393 L -956.4029 -154.58373 C -957.2346 -154.92122 -958.0364 -155.32808 -958.7998 -155.80002 L -968.419 -161.74647 C -968.5747 -161.84272 -968.7288 -161.94164 -968.8811 -162.04317 L -973.7712 -165.30324 C -974.7526 -165.9575 -975.6239 -166.7634 -976.3526 -167.69086 L -976.3526 -167.69086 C -976.4582 -167.82526 -976.6528 -167.8486 -976.7872 -167.743 C -976.8899 -167.66228 -976.9309 -167.52573 -976.8896 -167.40177 L -976.7526 -166.99086 C -976.2934 -165.6131 -976.1888 -164.14182 -976.4486 -162.71297 L -976.8437 -160.5397 C -977.1149 -159.04804 -977.5968 -157.6025 -978.2748 -156.24645 L -979.8071 -153.18182 C -980.1038 -152.58842 -980.4372 -152.01405 -980.8052 -151.46203 L -984.0089 -146.65647 C -984.4375 -146.01357 -984.9121 -145.40256 -985.429 -144.82824 L -989.991 -139.7593 C -990.0321 -139.71367 -990.0734 -139.66828 -990.115 -139.62312 L -996.1092 -133.1151 C -996.737 -132.43356 -997.4227 -131.80783 -998.1588 -131.24498 L -1003.1829 -127.40297 C -1003.6291 -127.0618 -1004.0929 -126.74435 -1004.5724 -126.45195 L -1011.0588 -122.49683 C -1011.7205 -122.09338 -1012.4106 -121.73853 -1013.1237 -121.4351 L -1020.2391 -118.40726 C -1021.0467 -118.06357 -1021.8813 -117.78693 -1022.7343 -117.58013 L -1026.8134 -116.59127 C -1027.6382 -116.39131 -1028.4777 -116.2573 -1029.3238 -116.1905 L -1035.024 -115.74048 C -1035.4429 -115.70741 -1035.863 -115.69086 -1036.2832 -115.69086 L -1043.3155 -115.69086 C -1044.0726 -115.69086 -1044.8288 -115.74459 -1045.5783 -115.85166 L -1053.5247 -116.98687 C -1054.0097 -117.05616 -1054.4913 -117.14768 -1054.9679 -117.26116 L -1060.9291 -118.6805 C -1062.0746 -118.95324 -1063.1865 -119.35159 -1064.2446 -119.86832 L -1070.5246 -122.9353 C -1071.0096 -123.17218 -1071.4824 -123.43346 -1071.941 -123.71814 L -1076.1529 -126.3324 C -1076.752 -126.7043 -1077.326 -127.1154 -1077.8709 -127.56302 L -1082.317 -131.21518 C -1082.5407 -131.39893 -1082.7594 -131.58872 -1082.9728 -131.78433 L -1086.7751 -135.26981 C -1087.2264 -135.6835 -1087.6536 -136.12275 -1088.0545 -136.58539 L -1092.1733 -141.33779 C -1092.4927 -141.7063 -1092.795 -142.08923 -1093.0794 -142.48537 L -1097.5091 -148.65525 C -1098.004 -149.34456 -1098.4433 -150.07215 -1098.8228 -150.83114 L -1101.3992 -155.98406 C -1101.4348 -156.05526 -1101.4699 -156.12672 -1101.5044 -156.19843 L -1102.7526 -158.79086 C -1103.6033 -160.55772 -1103.9588 -162.52226 -1103.7813 -164.47521 L -1103.6011 -166.45747 C -1103.5773 -166.71933 -1103.7703 -166.95091 -1104.0321 -166.97472 C -1104.1945 -166.98948 -1104.3532 -166.9201 -1104.4526 -166.79086 L -1104.4526 -166.79086 C -1105.116 -165.92838 -1105.8962 -165.1623 -1106.7705 -164.51461 L -1110.6671 -161.62829 C -1110.7908 -161.53667 -1110.9158 -161.44684 -1111.042 -161.35883 L -1115.6643 -158.13726 C -1116.851 -157.31015 -1118.1444 -156.64778 -1119.5092 -156.16827 L -1124.1163 -154.54955 C -1124.6069 -154.37719 -1125.0888 -154.18102 -1125.5602 -153.96173 L -1132.407 -150.77718 C -1133.1032 -150.45338 -1133.8217 -150.18012 -1134.5571 -149.9595 L -1145.4275 -146.69838 C -1145.4443 -146.69336 -1145.461 -146.68832 -1145.4777 -146.68325 L -1156.4458 -143.35365 C -1156.5837 -143.31179 -1156.721 -143.26807 -1156.8577 -143.2225 L -1169.779 -138.91542 C -1169.828 -138.89904 -1169.8773 -138.8829 -1169.9265 -138.86701 L -1181.294 -135.2001 C -1181.9324 -134.99414 -1182.5573 -134.74823 -1183.165 -134.46381 L -1191.0969 -130.75098 C -1191.4672 -130.57763 -1191.8308 -130.39014 -1192.1868 -130.18894 L -1198.1329 -126.82809 C -1199.3859 -126.11985 -1199.8276 -124.52993 -1199.1193 -123.2769 C -1199.0422 -123.14046 -1198.953 -123.01125 -1198.8526 -122.89086 L -1197.9885 -121.85392 C -1197.2336 -120.94799 -1196.5811 -119.96137 -1196.043 -118.91204 L -1192.9658 -112.91162 C -1192.8904 -112.76445 -1192.8126 -112.61846 -1192.7326 -112.47371 L -1188.7779 -105.31749 C -1188.6944 -105.16641 -1188.6133 -105.01399 -1188.5348 -104.86029 L -1184.4265 -96.8223 C -1184.1774 -96.33499 -1183.9535 -95.83522 -1183.7556 -95.32497 L -1180.2729 -86.34309 C -1180.2594 -86.30827 -1180.2457 -86.27349 -1180.232 -86.23876 L -1176.6357 -77.153315 C -1176.5137 -76.84508 -1176.4013 -76.53313 -1176.2986 -76.21792 L -1173.6768 -68.16514 C -1173.6607 -68.11562 -1173.6448 -68.066015 -1173.6292 -68.01634 L -1170.5571 -58.258066 C -1170.3543 -57.613904 -1170.1925 -56.95755 -1170.0727 -56.29294 L -1168.0874 -45.283483 C -1168.0642 -45.15507 -1168.0426 -45.026375 -1168.0226 -44.89743 L -1166.3167 -33.90405 C -1166.274 -33.628633 -1166.2385 -33.352146 -1166.2102 -33.074872 L -1165.3227 -24.378157 C -1165.276 -23.920168 -1165.249 -23.460376 -1165.242 -23.000063 L -1165.0577 -11.024441 C -1165.0543 -10.802074 -1165.0463 -10.579801 -1165.0336 -10.35777 L -1164.2632 3.1237925 C -1164.2561 3.247358 -1164.2477 3.370837 -1164.2377 3.4942053 L -1162.9042 20.068577 C -1162.8698 20.495452 -1162.8526 20.923533 -1162.8526 21.351787 L -1162.8526 33.80157 C -1162.8526 34.006602 -1162.8487 34.211617 -1162.8408 34.4165 L -1162.2604 49.505636 C -1162.2552 49.641305 -1162.2517 49.777034 -1162.25 49.91279 L -1162.0578 64.70905 C -1162.0543 64.97574 -1162.0576 65.24248 -1162.0674 65.50901 L -1162.6417 81.01316 C -1162.649 81.21047 -1162.6526 81.4079 -1162.6526 81.60534 L -1162.6526 95.20157 C -1162.6526 95.4066 -1162.6566 95.61162 -1162.6644 95.8165 L -1163.2496 111.0315 C -1163.2516 111.08327 -1163.2539 111.13502 -1163.2564 111.18676 L -1164.0517 127.6897 C -1164.0523 127.70266 -1164.053 127.71563 -1164.0536 127.7286 L -1164.8481 143.41976 C -1164.8511 143.47935 -1164.8545 143.53893 -1164.8581 143.59848 L -1166.047 162.81921 C -1166.0508 162.87917 -1166.0548 162.9391 -1166.0592 162.99902 L -1167.8423 187.36857 C -1167.8492 187.46229 -1167.8569 187.55594 -1167.8654 187.64953 L -1169.6513 207.29434 C -1169.6522 207.30421 -1169.6531 207.31409 -1169.654 207.32396 L -1171.4248 226.40886 C -1171.4433 226.60904 -1171.4657 226.80884 -1171.4918 227.00818 L -1173.4525 241.9809 C -1173.5853 242.9951 -1173.8544 243.9867 -1174.2526 244.92888 L -1174.2526 244.92888 C -1174.6502 245.86962 -1174.8989 246.86654 -1174.9897 247.8838 L -1175.7526 256.42888 C -1176.2604 262.1159 -1172.3019 267.23427 -1166.67 268.17293 Z" fill="#4f1a6b"/>
      <path d="M -1166.67 268.17293 L -1152.9277 270.4633 C -1152.7443 270.49387 -1152.5604 270.52123 -1152.3761 270.5454 L -1124.0225 274.2607 C -1123.7759 274.293 -1123.5287 274.31955 -1123.2809 274.34033 L -1093.038 276.87683 C -1092.7811 276.89837 -1092.5237 276.9137 -1092.2661 276.9228 L -1053.3352 278.29916 C -1053.1468 278.30582 -1052.9584 278.30915 -1052.7699 278.30915 L -1021.3026 278.30915 C -1021.1359 278.30915 -1020.9693 278.30655 -1020.8028 278.30134 L -995.768 277.519 C -995.5578 277.51244 -995.3477 277.50172 -995.1378 277.48687 L -973.0901 275.92596 C -972.9318 275.91476 -972.7736 275.9012 -972.6157 275.88528 L -947.3552 273.33965 C -947.1535 273.31932 -946.9522 273.29516 -946.7514 273.26717 L -922.9587 269.9518 C -922.7546 269.92337 -922.5512 269.891 -922.3484 269.85472 L -913.1526 268.20915 C -907.8255 267.25588 -904.1746 262.30223 -904.841 256.9317 L -907.0486 239.14113 C -907.0513 239.1198 -907.0539 239.0985 -907.0564 239.07716 L -910.6203 209.37863 C -910.6418 209.199 -910.6603 209.019 -910.6758 208.83873 L -913.038 181.27952 C -913.0477 181.16594 -913.0563 181.05227 -913.0636 180.9385 L -914.4502 159.34687 C -914.4518 159.32172 -914.4535 159.29658 -914.4552 159.27144 L -916.0474 136.18513 C -916.0509 136.13448 -916.0541 136.0838 -916.0571 136.03312 L -917.2335 116.23095 C -917.2462 116.01644 -917.2547 115.80169 -917.2588 115.58684 L -917.651 94.992 C -917.6521 94.93677 -917.6534 94.88154 -917.655 94.82632 L -918.2502 74.59198 C -918.2518 74.53676 -918.2531 74.48153 -918.2542 74.4263 L -918.6448 53.91676 C -918.65 53.64506 -918.6483 53.37328 -918.6396 53.10167 L -918.0537 34.74206 C -918.053 34.72012 -918.0522 34.698177 -918.0514 34.676237 L -917.2633 12.80693 C -917.2562 12.608425 -917.2453 12.410071 -917.2308 12.21197 L -915.6733 -9.008647 C -915.6595 -9.19677 -915.649 -9.385122 -915.6419 -9.573615 L -914.8874 -29.472483 C -914.8642 -30.084228 -914.806 -30.694138 -914.7129 -31.299204 L -911.9739 -49.10272 C -911.8931 -49.62782 -911.7862 -50.14857 -911.6536 -50.66303 L -907.0253 -68.62068 C -906.9102 -69.067255 -906.7759 -69.50864 -906.6227 -69.94361 L -900.9019 -86.18325 C -900.7358 -86.65473 -900.5477 -87.11816 -900.3382 -87.57203 L -894.8067 -99.55707 C -894.704 -99.77956 -894.5962 -99.99967 -894.4834 -100.21721 L -889.1212 -110.55864 C -889.0755 -110.64678 -889.0289 -110.7345 -888.9816 -110.82177 L -883.7656 -120.43873 C -883.0283 -121.79809 -882.0787 -123.03099 -880.9526 -124.09086 L -880.9526 -124.09086 C -880.2774 -124.72633 -880.2452 -125.78883 -880.8807 -126.46402 C -881.0052 -126.5963 -881.1503 -126.70749 -881.3104 -126.79327 L -884.5246 -128.51513 C -884.7432 -128.63226 -884.9646 -128.7443 -885.1885 -128.85114 L -893.0424 -132.59963 C -893.449 -132.7937 -893.8637 -132.9705 -894.2852 -133.12956 L -903.96 -136.78044 C -904.1551 -136.85404 -904.3515 -136.92383 -904.5493 -136.98975 L -917.2438 -141.22124 C -917.383 -141.26765 -917.5228 -141.31214 -917.6633 -141.3547 L -930.5468 -145.2588 C -930.6173 -145.28017 -930.6877 -145.30203 -930.758 -145.32437 L -943.262 -149.30292 C -943.6556 -149.42816 -944.0442 -149.5686 -944.427 -149.72393 L -956.4029 -154.58373 C -957.2346 -154.92122 -958.0364 -155.32808 -958.7998 -155.80002 L -968.419 -161.74647 C -968.5747 -161.84272 -968.7288 -161.94164 -968.8811 -162.04317 L -973.7712 -165.30324 C -974.7526 -165.9575 -975.6239 -166.7634 -976.3526 -167.69086 L -976.3526 -167.69086 C -976.4582 -167.82526 -976.6528 -167.8486 -976.7872 -167.743 C -976.8899 -167.66228 -976.9309 -167.52573 -976.8896 -167.40177 L -976.7526 -166.99086 C -976.2934 -165.6131 -976.1888 -164.14182 -976.4486 -162.71297 L -976.8437 -160.5397 C -977.1149 -159.04804 -977.5968 -157.6025 -978.2748 -156.24645 L -979.8071 -153.18182 C -980.1038 -152.58842 -980.4372 -152.01405 -980.8052 -151.46203 L -984.0089 -146.65647 C -984.4375 -146.01357 -984.9121 -145.40256 -985.429 -144.82824 L -989.991 -139.7593 C -990.0321 -139.71367 -990.0734 -139.66828 -990.115 -139.62312 L -996.1092 -133.1151 C -996.737 -132.43356 -997.4227 -131.80783 -998.1588 -131.24498 L -1003.1829 -127.40297 C -1003.6291 -127.0618 -1004.0929 -126.74435 -1004.5724 -126.45195 L -1011.0588 -122.49683 C -1011.7205 -122.09338 -1012.4106 -121.73853 -1013.1237 -121.4351 L -1020.2391 -118.40726 C -1021.0467 -118.06357 -1021.8813 -117.78693 -1022.7343 -117.58013 L -1026.8134 -116.59127 C -1027.6382 -116.39131 -1028.4777 -116.2573 -1029.3238 -116.1905 L -1035.024 -115.74048 C -1035.4429 -115.70741 -1035.863 -115.69086 -1036.2832 -115.69086 L -1043.3155 -115.69086 C -1044.0726 -115.69086 -1044.8288 -115.74459 -1045.5783 -115.85166 L -1053.5247 -116.98687 C -1054.0097 -117.05616 -1054.4913 -117.14768 -1054.9679 -117.26116 L -1060.9291 -118.6805 C -1062.0746 -118.95324 -1063.1865 -119.35159 -1064.2446 -119.86832 L -1070.5246 -122.9353 C -1071.0096 -123.17218 -1071.4824 -123.43346 -1071.941 -123.71814 L -1076.1529 -126.3324 C -1076.752 -126.7043 -1077.326 -127.1154 -1077.8709 -127.56302 L -1082.317 -131.21518 C -1082.5407 -131.39893 -1082.7594 -131.58872 -1082.9728 -131.78433 L -1086.7751 -135.26981 C -1087.2264 -135.6835 -1087.6536 -136.12275 -1088.0545 -136.58539 L -1092.1733 -141.33779 C -1092.4927 -141.7063 -1092.795 -142.08923 -1093.0794 -142.48537 L -1097.5091 -148.65525 C -1098.004 -149.34456 -1098.4433 -150.07215 -1098.8228 -150.83114 L -1101.3992 -155.98406 C -1101.4348 -156.05526 -1101.4699 -156.12672 -1101.5044 -156.19843 L -1102.7526 -158.79086 C -1103.6033 -160.55772 -1103.9588 -162.52226 -1103.7813 -164.47521 L -1103.6011 -166.45747 C -1103.5773 -166.71933 -1103.7703 -166.95091 -1104.0321 -166.97472 C -1104.1945 -166.98948 -1104.3532 -166.9201 -1104.4526 -166.79086 L -1104.4526 -166.79086 C -1105.116 -165.92838 -1105.8962 -165.1623 -1106.7705 -164.51461 L -1110.6671 -161.62829 C -1110.7908 -161.53667 -1110.9158 -161.44684 -1111.042 -161.35883 L -1115.6643 -158.13726 C -1116.851 -157.31015 -1118.1444 -156.64778 -1119.5092 -156.16827 L -1124.1163 -154.54955 C -1124.6069 -154.37719 -1125.0888 -154.18102 -1125.5602 -153.96173 L -1132.407 -150.77718 C -1133.1032 -150.45338 -1133.8217 -150.18012 -1134.5571 -149.9595 L -1145.4275 -146.69838 C -1145.4443 -146.69336 -1145.461 -146.68832 -1145.4777 -146.68325 L -1156.4458 -143.35365 C -1156.5837 -143.31179 -1156.721 -143.26807 -1156.8577 -143.2225 L -1169.779 -138.91542 C -1169.828 -138.89904 -1169.8773 -138.8829 -1169.9265 -138.86701 L -1181.294 -135.2001 C -1181.9324 -134.99414 -1182.5573 -134.74823 -1183.165 -134.46381 L -1191.0969 -130.75098 C -1191.4672 -130.57763 -1191.8308 -130.39014 -1192.1868 -130.18894 L -1198.1329 -126.82809 C -1199.3859 -126.11985 -1199.8276 -124.52993 -1199.1193 -123.2769 C -1199.0422 -123.14046 -1198.953 -123.01125 -1198.8526 -122.89086 L -1197.9885 -121.85392 C -1197.2336 -120.94799 -1196.5811 -119.96137 -1196.043 -118.91204 L -1192.9658 -112.91162 C -1192.8904 -112.76445 -1192.8126 -112.61846 -1192.7326 -112.47371 L -1188.7779 -105.31749 C -1188.6944 -105.16641 -1188.6133 -105.01399 -1188.5348 -104.86029 L -1184.4265 -96.8223 C -1184.1774 -96.33499 -1183.9535 -95.83522 -1183.7556 -95.32497 L -1180.2729 -86.34309 C -1180.2594 -86.30827 -1180.2457 -86.27349 -1180.232 -86.23876 L -1176.6357 -77.153315 C -1176.5137 -76.84508 -1176.4013 -76.53313 -1176.2986 -76.21792 L -1173.6768 -68.16514 C -1173.6607 -68.11562 -1173.6448 -68.066015 -1173.6292 -68.01634 L -1170.5571 -58.258066 C -1170.3543 -57.613904 -1170.1925 -56.95755 -1170.0727 -56.29294 L -1168.0874 -45.283483 C -1168.0642 -45.15507 -1168.0426 -45.026375 -1168.0226 -44.89743 L -1166.3167 -33.90405 C -1166.274 -33.628633 -1166.2385 -33.352146 -1166.2102 -33.074872 L -1165.3227 -24.378157 C -1165.276 -23.920168 -1165.249 -23.460376 -1165.242 -23.000063 L -1165.0577 -11.024441 C -1165.0543 -10.802074 -1165.0463 -10.579801 -1165.0336 -10.35777 L -1164.2632 3.1237925 C -1164.2561 3.247358 -1164.2477 3.370837 -1164.2377 3.4942053 L -1162.9042 20.068577 C -1162.8698 20.495452 -1162.8526 20.923533 -1162.8526 21.351787 L -1162.8526 33.80157 C -1162.8526 34.006602 -1162.8487 34.211617 -1162.8408 34.4165 L -1162.2604 49.505636 C -1162.2552 49.641305 -1162.2517 49.777034 -1162.25 49.91279 L -1162.0578 64.70905 C -1162.0543 64.97574 -1162.0576 65.24248 -1162.0674 65.50901 L -1162.6417 81.01316 C -1162.649 81.21047 -1162.6526 81.4079 -1162.6526 81.60534 L -1162.6526 95.20157 C -1162.6526 95.4066 -1162.6566 95.61162 -1162.6644 95.8165 L -1163.2496 111.0315 C -1163.2516 111.08327 -1163.2539 111.13502 -1163.2564 111.18676 L -1164.0517 127.6897 C -1164.0523 127.70266 -1164.053 127.71563 -1164.0536 127.7286 L -1164.8481 143.41976 C -1164.8511 143.47935 -1164.8545 143.53893 -1164.8581 143.59848 L -1166.047 162.81921 C -1166.0508 162.87917 -1166.0548 162.9391 -1166.0592 162.99902 L -1167.8423 187.36857 C -1167.8492 187.46229 -1167.8569 187.55594 -1167.8654 187.64953 L -1169.6513 207.29434 C -1169.6522 207.30421 -1169.6531 207.31409 -1169.654 207.32396 L -1171.4248 226.40886 C -1171.4433 226.60904 -1171.4657 226.80884 -1171.4918 227.00818 L -1173.4525 241.9809 C -1173.5853 242.9951 -1173.8544 243.9867 -1174.2526 244.92888 L -1174.2526 244.92888 C -1174.6502 245.86962 -1174.8989 246.86654 -1174.9897 247.8838 L -1175.7526 256.42888 C -1176.2604 262.1159 -1172.3019 267.23427 -1166.67 268.17293 Z" stroke="#7f8080" stroke-linecap="round" stroke-linejoin="round" stroke-width="1"/>
      <path d="M -1254 -18.553854 L -1247.8 -14.153854 L -1239.6 -10.153854 L -1231 -6.553854 L -1222 -2.7538542 L -1211 1.2461459 L -1201.6 4.046146 L -1192.6 6.646146 L -1183.6 9.246146 L -1178.2 10.646146 L -1172.6 11.646146 L -1170.2 5.846146 L -1167.6 .4461459 L -1165.4 -3.553854 L -1162.8 -6.953854 L -1162.6 -15.953854 L -1163.2 -26.953855 L -1165 -37.753855 L -1166.6 -48.153855 L -1169.2 -59.153855 L -1171.6 -68.753855 L -1174.4 -76.753855 L -1177.6 -86.15386 L -1180.4 -93.55386 L -1184 -101.15386 L -1188 -108.75386 L -1192 -116.15386 L -1194.6 -119.75386 L -1198.2 -125.55386 L -1203.6 -121.15386 L -1208.4 -116.35386 L -1213 -110.15386 L -1217.4 -103.95386 L -1222.2 -95.35386 L -1227 -85.95386 L -1231.8 -76.753855 L -1235.4 -68.153855 L -1239.4 -59.153855 L -1242.6 -50.953855 L -1246.4 -41.553855 L -1249.2 -33.553855 L -1252.2 -25.153855 Z" fill="#4d1b5e"/>
      <path d="M -1254 -18.553854 L -1247.8 -14.153854 L -1239.6 -10.153854 L -1231 -6.553854 L -1222 -2.7538542 L -1211 1.2461459 L -1201.6 4.046146 L -1192.6 6.646146 L -1183.6 9.246146 L -1178.2 10.646146 L -1172.6 11.646146 L -1170.2 5.846146 L -1167.6 .4461459 L -1165.4 -3.553854 L -1162.8 -6.953854 L -1162.6 -15.953854 L -1163.2 -26.953855 L -1165 -37.753855 L -1166.6 -48.153855 L -1169.2 -59.153855 L -1171.6 -68.753855 L -1174.4 -76.753855 L -1177.6 -86.15386 L -1180.4 -93.55386 L -1184 -101.15386 L -1188 -108.75386 L -1192 -116.15386 L -1194.6 -119.75386 L -1198.2 -125.55386 L -1203.6 -121.15386 L -1208.4 -116.35386 L -1213 -110.15386 L -1217.4 -103.95386 L -1222.2 -95.35386 L -1227 -85.95386 L -1231.8 -76.753855 L -1235.4 -68.153855 L -1239.4 -59.153855 L -1242.6 -50.953855 L -1246.4 -41.553855 L -1249.2 -33.553855 L -1252.2 -25.153855 Z" stroke="#7f8080" stroke-linecap="round" stroke-linejoin="round" stroke-width="1"/>
      <path d="M -822.5947 -19.49725 L -828.7947 -15.09725 L -836.9947 -11.09725 L -845.5947 -7.4972505 L -854.5947 -3.6972504 L -865.5947 .30274966 L -874.9947 3.1027497 L -883.9947 5.70275 L -892.9947 8.30275 L -898.3947 9.70275 L -903.9947 10.70275 L -906.3947 4.90275 L -908.9947 -.49725035 L -911.1947 -4.4972504 L -913.7947 -7.89725 L -913.9947 -16.89725 L -913.3947 -27.89725 L -911.5947 -38.69725 L -909.9947 -49.09725 L -907.3947 -60.09725 L -904.9947 -69.69725 L -902.1947 -77.69725 L -898.9947 -87.09725 L -896.1947 -94.49725 L -892.5947 -102.09725 L -888.5947 -109.69725 L -884.5947 -117.09725 L -881.9947 -120.69725 L -878.3947 -126.49725 L -872.9947 -122.09725 L -868.1947 -117.29725 L -863.5947 -111.09725 L -859.1947 -104.89725 L -854.3947 -96.29725 L -849.5947 -86.89725 L -844.7947 -77.69725 L -841.1947 -69.09725 L -837.1947 -60.09725 L -833.9947 -51.89725 L -830.1947 -42.49725 L -827.3947 -34.49725 L -824.3947 -26.09725 Z" fill="#571c6b"/>
      <path d="M -822.5947 -19.49725 L -828.7947 -15.09725 L -836.9947 -11.09725 L -845.5947 -7.4972505 L -854.5947 -3.6972504 L -865.5947 .30274966 L -874.9947 3.1027497 L -883.9947 5.70275 L -892.9947 8.30275 L -898.3947 9.70275 L -903.9947 10.70275 L -906.3947 4.90275 L -908.9947 -.49725035 L -911.1947 -4.4972504 L -913.7947 -7.89725 L -913.9947 -16.89725 L -913.3947 -27.89725 L -911.5947 -38.69725 L -909.9947 -49.09725 L -907.3947 -60.09725 L -904.9947 -69.69725 L -902.1947 -77.69725 L -898.9947 -87.09725 L -896.1947 -94.49725 L -892.5947 -102.09725 L -888.5947 -109.69725 L -884.5947 -117.09725 L -881.9947 -120.69725 L -878.3947 -126.49725 L -872.9947 -122.09725 L -868.1947 -117.29725 L -863.5947 -111.09725 L -859.1947 -104.89725 L -854.3947 -96.29725 L -849.5947 -86.89725 L -844.7947 -77.69725 L -841.1947 -69.09725 L -837.1947 -60.09725 L -833.9947 -51.89725 L -830.1947 -42.49725 L -827.3947 -34.49725 L -824.3947 -26.09725 Z" stroke="#7f8080" stroke-linecap="round" stroke-linejoin="round" stroke-width="1"/>
      <path d="M -1254 -18.553854 L -1247.8 -14.153854 L -1239.6 -10.153854 L -1231 -6.553854 L -1222 -2.7538542 L -1211 1.2461459 L -1201.6 4.046146 L -1192.6 6.646146 L -1183.6 9.246146 L -1178.2 10.646146 L -1172.6 11.646146 L -1169.6 5.246146 L -1173.4 4.446146 L -1178.2 3.246146 L -1183.8 2.046146 L -1189.8 .24614587 L -1194.4 -1.1538541 L -1198.6 -2.3538542 L -1203.2 -4.353854 L -1207.8 -5.953854 L -1212.6 -7.953854 L -1216.6 -9.353854 L -1221.8 -11.553854 L -1226.4 -13.153854 L -1231.2 -15.353854 L -1236 -17.153854 L -1240 -19.153854 L -1244.4 -21.353854 L -1248.8 -23.553854 L -1252.2 -25.153855 Z" fill="#511960"/>
      <path d="M -1254 -18.553854 L -1247.8 -14.153854 L -1239.6 -10.153854 L -1231 -6.553854 L -1222 -2.7538542 L -1211 1.2461459 L -1201.6 4.046146 L -1192.6 6.646146 L -1183.6 9.246146 L -1178.2 10.646146 L -1172.6 11.646146 L -1169.6 5.246146 L -1173.4 4.446146 L -1178.2 3.246146 L -1183.8 2.046146 L -1189.8 .24614587 L -1194.4 -1.1538541 L -1198.6 -2.3538542 L -1203.2 -4.353854 L -1207.8 -5.953854 L -1212.6 -7.953854 L -1216.6 -9.353854 L -1221.8 -11.553854 L -1226.4 -13.153854 L -1231.2 -15.353854 L -1236 -17.153854 L -1240 -19.153854 L -1244.4 -21.353854 L -1248.8 -23.553854 L -1252.2 -25.153855 Z" stroke="#7f8080" stroke-linecap="round" stroke-linejoin="round" stroke-width="1"/>
      <path d="M -822.5947 -19.49725 L -828.7947 -15.09725 L -836.9947 -11.09725 L -845.5947 -7.4972505 L -854.5947 -3.6972504 L -865.5947 .30274966 L -874.9947 3.1027497 L -883.9947 5.70275 L -892.9947 8.30275 L -898.3947 9.70275 L -903.9947 10.70275 L -906.9947 4.3027497 L -903.1947 3.5027497 L -898.3947 2.3027497 L -892.7947 1.1027497 L -886.7947 -.69725035 L -882.1947 -2.0972504 L -877.9947 -3.2972504 L -873.3947 -5.2972504 L -868.7947 -6.8972504 L -863.9947 -8.89725 L -859.9947 -10.29725 L -854.7947 -12.49725 L -850.1947 -14.09725 L -845.3947 -16.29725 L -840.5947 -18.09725 L -836.5947 -20.09725 L -832.1947 -22.29725 L -827.7947 -24.49725 L -824.3947 -26.09725 Z" fill="#500f5c"/>
      <path d="M -822.5947 -19.49725 L -828.7947 -15.09725 L -836.9947 -11.09725 L -845.5947 -7.4972505 L -854.5947 -3.6972504 L -865.5947 .30274966 L -874.9947 3.1027497 L -883.9947 5.70275 L -892.9947 8.30275 L -898.3947 9.70275 L -903.9947 10.70275 L -906.9947 4.3027497 L -903.1947 3.5027497 L -898.3947 2.3027497 L -892.7947 1.1027497 L -886.7947 -.69725035 L -882.1947 -2.0972504 L -877.9947 -3.2972504 L -873.3947 -5.2972504 L -868.7947 -6.8972504 L -863.9947 -8.89725 L -859.9947 -10.29725 L -854.7947 -12.49725 L -850.1947 -14.09725 L -845.3947 -16.29725 L -840.5947 -18.09725 L -836.5947 -20.09725 L -832.1947 -22.29725 L -827.7947 -24.49725 L -824.3947 -26.09725 Z" stroke="#7f8080" stroke-linecap="round" stroke-linejoin="round" stroke-width="1"/>
      <path d="M -1103.4279 -168.03621 L -1108.157 -163.98264 C -1109.3074 -162.99662 -1110.5524 -162.1267 -1111.8738 -161.38552 L -1114.4004 -159.96835 C -1115.8356 -159.16338 -1116.4164 -157.39425 -1115.7376 -155.89527 L -1114.72 -153.64803 C -1114.5984 -153.37954 -1114.4717 -153.11342 -1114.3399 -152.8498 L -1112.5376 -149.24526 L -1110.0506 -144.2713 C -1109.7088 -143.5877 -1109.3332 -142.92157 -1108.925 -142.27537 L -1106.5987 -138.59192 C -1106.1583 -137.89465 -1105.6807 -137.22158 -1105.168 -136.57561 L -1101.7574 -132.27815 C -1101.2113 -131.59013 -1100.6263 -130.93394 -1100.0052 -130.31283 L -1095.3391 -125.64679 C -1094.9383 -125.24591 -1094.5227 -124.85999 -1094.0933 -124.48982 L -1089.5298 -120.55574 C -1089.1351 -120.21552 -1088.729 -119.88881 -1088.3122 -119.57617 L -1084.3372 -116.59497 C -1083.6713 -116.09553 -1082.9788 -115.63262 -1082.2627 -115.20826 L -1078.1296 -112.75904 C -1078.0016 -112.68319 -1077.8729 -112.60859 -1077.7434 -112.53523 L -1073.0459 -109.87329 C -1072.3076 -109.45493 -1071.5467 -109.07774 -1070.7667 -108.74347 L -1067.2169 -107.22212 C -1066.631 -106.97099 -1066.0348 -106.74433 -1065.43 -106.54274 L -1060.4119 -104.87003 C -1059.1647 -104.45429 -1057.8841 -104.14624 -1056.5842 -103.94929 L -1052.4854 -103.32826 C -1052.1202 -103.27294 -1051.7539 -103.22642 -1051.3865 -103.18874 L -1044.5054 -102.48299 C -1044.2602 -102.45784 -1044.0147 -102.43664 -1043.7688 -102.41938 L -1039.2417 -102.10169 C -1038.7058 -102.06409 -1038.1688 -102.04527 -1037.6316 -102.04527 L -1034.3695 -102.04526 C -1033.4158 -102.04526 -1032.4631 -102.10458 -1031.5167 -102.22287 L -1027.528 -102.72146 C -1026.868 -102.80396 -1026.212 -102.91504 -1025.5616 -103.0544 L -1019.4796 -104.35769 C -1018.5857 -104.54924 -1017.7041 -104.7939 -1016.8393 -105.09039 L -1012.3305 -106.63628 C -1011.5358 -106.90873 -1010.7567 -107.22451 -1009.9966 -107.58221 L -1005.1632 -109.85674 C -1004.613 -110.11565 -1004.0733 -110.39629 -1003.5454 -110.69798 L -999.7775 -112.85104 C -999.0847 -113.24692 -998.413 -113.67858 -997.7651 -114.14428 L -993.0889 -117.50525 C -992.5883 -117.86511 -992.1022 -118.24497 -991.6321 -118.64389 L -986.3112 -123.15856 C -985.9289 -123.48294 -985.5573 -123.81974 -985.197 -124.16842 L -980.4978 -128.71604 C -979.8582 -129.335 -979.2551 -129.99056 -978.6915 -130.67942 L -974.8982 -135.31566 C -974.3915 -135.93497 -973.9174 -136.58031 -973.478 -137.24904 L -969.8608 -142.75344 C -969.6454 -143.08127 -969.4384 -143.41456 -969.24 -143.75298 L -966.7169 -148.05708 C -966.3309 -148.71546 -965.978 -149.39265 -965.6594 -150.08612 L -963.5407 -154.69739 C -963.0078 -155.85715 -962.6367 -157.08456 -962.4376 -158.34526 L -962.4376 -158.34526 C -962.2593 -159.47453 -962.8386 -160.58797 -963.8657 -161.0901 L -969.1591 -163.678 C -970.4736 -164.32063 -971.7082 -165.11514 -972.8376 -166.04526 L -973.2436 -166.37963 C -974.088 -167.07496 -974.7114 -168.00126 -975.0376 -169.04526 L -975.0376 -169.04526 C -975.0843 -169.19458 -975.2431 -169.2778 -975.3925 -169.23114 C -975.5075 -169.19518 -975.5872 -169.09031 -975.5911 -168.96981 L -975.7003 -165.54689 C -975.7911 -162.70381 -976.4084 -159.90224 -977.521 -157.28433 L -978.398 -155.22096 C -978.9565 -153.90669 -979.6363 -152.64729 -980.4284 -151.45909 L -984.1142 -145.93042 C -984.8617 -144.80915 -985.7063 -143.75575 -986.6382 -142.78238 L -992.9333 -136.20753 C -993.8014 -135.30087 -994.7422 -134.4668 -995.7464 -133.71367 L -1004.1213 -127.4325 C -1004.9977 -126.77518 -1005.92 -126.18133 -1006.881 -125.65546 L -1014.0662 -121.72394 C -1015.3774 -121.00653 -1016.7553 -120.41863 -1018.1805 -119.96857 L -1024.8534 -117.86133 C -1026.5703 -117.31916 -1028.3449 -116.98046 -1030.1407 -116.85219 L -1037.0272 -116.3603 C -1038.0995 -116.2837 -1039.1758 -116.28238 -1040.2483 -116.35635 L -1048.6846 -116.93816 C -1049.7187 -117.00948 -1050.7469 -117.15064 -1051.762 -117.36067 L -1058.8973 -118.83692 C -1060.8492 -119.24077 -1062.7404 -119.89665 -1064.5232 -120.78808 L -1069.1827 -123.11779 C -1070.4168 -123.73485 -1071.5929 -124.46173 -1072.6967 -125.28961 L -1078.3787 -129.55108 C -1078.8178 -129.88043 -1079.245 -130.2254 -1079.6595 -130.58532 L -1085.4147 -135.58324 C -1086.229 -136.29038 -1086.9925 -137.05392 -1087.6996 -137.8682 L -1092.1049 -142.94089 C -1092.859 -143.80925 -1093.5469 -144.73295 -1094.1628 -145.70422 L -1097.8965 -151.59198 C -1098.2571 -152.16056 -1098.5925 -152.7447 -1098.9018 -153.34272 L -1100.5222 -156.47544 C -1101.1313 -157.65312 -1101.6375 -158.88126 -1102.035 -160.14615 L -1103.3153 -164.21964 C -1103.53 -164.90302 -1103.7128 -165.59605 -1103.8629 -166.29649 L -1104.0883 -167.34843 C -1104.1734 -167.74544 -1103.947 -168.1431 -1103.5622 -168.27263 L -1103.5622 -168.27263 C -1103.4897 -168.29704 -1103.4112 -168.25805 -1103.3868 -168.18556 C -1103.3687 -168.13205 -1103.385 -168.07296 -1103.4279 -168.03621 Z" fill="#56215a"/>
      <path d="M -1103.4279 -168.03621 L -1108.157 -163.98264 C -1109.3074 -162.99662 -1110.5524 -162.1267 -1111.8738 -161.38552 L -1114.4004 -159.96835 C -1115.8356 -159.16338 -1116.4164 -157.39425 -1115.7376 -155.89527 L -1114.72 -153.64803 C -1114.5984 -153.37954 -1114.4717 -153.11342 -1114.3399 -152.8498 L -1112.5376 -149.24526 L -1110.0506 -144.2713 C -1109.7088 -143.5877 -1109.3332 -142.92157 -1108.925 -142.27537 L -1106.5987 -138.59192 C -1106.1583 -137.89465 -1105.6807 -137.22158 -1105.168 -136.57561 L -1101.7574 -132.27815 C -1101.2113 -131.59013 -1100.6263 -130.93394 -1100.0052 -130.31283 L -1095.3391 -125.64679 C -1094.9383 -125.24591 -1094.5227 -124.85999 -1094.0933 -124.48982 L -1089.5298 -120.55574 C -1089.1351 -120.21552 -1088.729 -119.88881 -1088.3122 -119.57617 L -1084.3372 -116.59497 C -1083.6713 -116.09553 -1082.9788 -115.63262 -1082.2627 -115.20826 L -1078.1296 -112.75904 C -1078.0016 -112.68319 -1077.8729 -112.60859 -1077.7434 -112.53523 L -1073.0459 -109.87329 C -1072.3076 -109.45493 -1071.5467 -109.07774 -1070.7667 -108.74347 L -1067.2169 -107.22212 C -1066.631 -106.97099 -1066.0348 -106.74433 -1065.43 -106.54274 L -1060.4119 -104.87003 C -1059.1647 -104.45429 -1057.8841 -104.14624 -1056.5842 -103.94929 L -1052.4854 -103.32826 C -1052.1202 -103.27294 -1051.7539 -103.22642 -1051.3865 -103.18874 L -1044.5054 -102.48299 C -1044.2602 -102.45784 -1044.0147 -102.43664 -1043.7688 -102.41938 L -1039.2417 -102.10169 C -1038.7058 -102.06409 -1038.1688 -102.04527 -1037.6316 -102.04527 L -1034.3695 -102.04526 C -1033.4158 -102.04526 -1032.4631 -102.10458 -1031.5167 -102.22287 L -1027.528 -102.72146 C -1026.868 -102.80396 -1026.212 -102.91504 -1025.5616 -103.0544 L -1019.4796 -104.35769 C -1018.5857 -104.54924 -1017.7041 -104.7939 -1016.8393 -105.09039 L -1012.3305 -106.63628 C -1011.5358 -106.90873 -1010.7567 -107.22451 -1009.9966 -107.58221 L -1005.1632 -109.85674 C -1004.613 -110.11565 -1004.0733 -110.39629 -1003.5454 -110.69798 L -999.7775 -112.85104 C -999.0847 -113.24692 -998.413 -113.67858 -997.7651 -114.14428 L -993.0889 -117.50525 C -992.5883 -117.86511 -992.1022 -118.24497 -991.6321 -118.64389 L -986.3112 -123.15856 C -985.9289 -123.48294 -985.5573 -123.81974 -985.197 -124.16842 L -980.4978 -128.71604 C -979.8582 -129.335 -979.2551 -129.99056 -978.6915 -130.67942 L -974.8982 -135.31566 C -974.3915 -135.93497 -973.9174 -136.58031 -973.478 -137.24904 L -969.8608 -142.75344 C -969.6454 -143.08127 -969.4384 -143.41456 -969.24 -143.75298 L -966.7169 -148.05708 C -966.3309 -148.71546 -965.978 -149.39265 -965.6594 -150.08612 L -963.5407 -154.69739 C -963.0078 -155.85715 -962.6367 -157.08456 -962.4376 -158.34526 L -962.4376 -158.34526 C -962.2593 -159.47453 -962.8386 -160.58797 -963.8657 -161.0901 L -969.1591 -163.678 C -970.4736 -164.32063 -971.7082 -165.11514 -972.8376 -166.04526 L -973.2436 -166.37963 C -974.088 -167.07496 -974.7114 -168.00126 -975.0376 -169.04526 L -975.0376 -169.04526 C -975.0843 -169.19458 -975.2431 -169.2778 -975.3925 -169.23114 C -975.5075 -169.19518 -975.5872 -169.09031 -975.5911 -168.96981 L -975.7003 -165.54689 C -975.7911 -162.70381 -976.4084 -159.90224 -977.521 -157.28433 L -978.398 -155.22096 C -978.9565 -153.90669 -979.6363 -152.64729 -980.4284 -151.45909 L -984.1142 -145.93042 C -984.8617 -144.80915 -985.7063 -143.75575 -986.6382 -142.78238 L -992.9333 -136.20753 C -993.8014 -135.30087 -994.7422 -134.4668 -995.7464 -133.71367 L -1004.1213 -127.4325 C -1004.9977 -126.77518 -1005.92 -126.18133 -1006.881 -125.65546 L -1014.0662 -121.72394 C -1015.3774 -121.00653 -1016.7553 -120.41863 -1018.1805 -119.96857 L -1024.8534 -117.86133 C -1026.5703 -117.31916 -1028.3449 -116.98046 -1030.1407 -116.85219 L -1037.0272 -116.3603 C -1038.0995 -116.2837 -1039.1758 -116.28238 -1040.2483 -116.35635 L -1048.6846 -116.93816 C -1049.7187 -117.00948 -1050.7469 -117.15064 -1051.762 -117.36067 L -1058.8973 -118.83692 C -1060.8492 -119.24077 -1062.7404 -119.89665 -1064.5232 -120.78808 L -1069.1827 -123.11779 C -1070.4168 -123.73485 -1071.5929 -124.46173 -1072.6967 -125.28961 L -1078.3787 -129.55108 C -1078.8178 -129.88043 -1079.245 -130.2254 -1079.6595 -130.58532 L -1085.4147 -135.58324 C -1086.229 -136.29038 -1086.9925 -137.05392 -1087.6996 -137.8682 L -1092.1049 -142.94089 C -1092.859 -143.80925 -1093.5469 -144.73295 -1094.1628 -145.70422 L -1097.8965 -151.59198 C -1098.2571 -152.16056 -1098.5925 -152.7447 -1098.9018 -153.34272 L -1100.5222 -156.47544 C -1101.1313 -157.65312 -1101.6375 -158.88126 -1102.035 -160.14615 L -1103.3153 -164.21964 C -1103.53 -164.90302 -1103.7128 -165.59605 -1103.8629 -166.29649 L -1104.0883 -167.34843 C -1104.1734 -167.74544 -1103.947 -168.1431 -1103.5622 -168.27263 L -1103.5622 -168.27263 C -1103.4897 -168.29704 -1103.4112 -168.25805 -1103.3868 -168.18556 C -1103.3687 -168.13205 -1103.385 -168.07296 -1103.4279 -168.03621 Z" stroke="#7f8080" stroke-linecap="round" stroke-linejoin="round" stroke-width="1"/>
      <path d="M -1103.9408 -168.2441 L -1098.5408 -168.8441 L -1091.7408 -165.4441 L -1086.7408 -163.6441 L -1078.3408 -161.8441 L -1069.9408 -160.8441 L -1061.9408 -159.8441 L -1054.3408 -159.6441 L -1045.7408 -159.2441 L -1034.1408 -159.4441 L -1025.7408 -159.8441 L -1016.3408 -160.4441 L -1007.9408 -161.2441 L -998.7408 -162.6441 L -990.5408 -164.8441 L -984.7408 -166.6441 L -979.1408 -169.2441 L -976.3408 -168.0441 L -975.9408 -162.4441 L -978.7408 -154.4441 L -984.1408 -151.6441 L -994.7408 -148.4441 L -1006.1408 -146.0441 L -1017.3408 -145.2441 L -1029.7408 -144.2441 L -1040.1408 -144.2441 L -1049.5408 -144.2441 L -1061.1408 -144.8441 L -1072.3408 -145.6441 L -1082.9408 -147.8441 L -1091.5408 -149.8441 L -1097.7408 -152.6441 L -1099.7408 -154.2441 L -1102.9408 -161.8441 Z" fill="#551c5c"/>
      <path d="M -1103.9408 -168.2441 L -1098.5408 -168.8441 L -1091.7408 -165.4441 L -1086.7408 -163.6441 L -1078.3408 -161.8441 L -1069.9408 -160.8441 L -1061.9408 -159.8441 L -1054.3408 -159.6441 L -1045.7408 -159.2441 L -1034.1408 -159.4441 L -1025.7408 -159.8441 L -1016.3408 -160.4441 L -1007.9408 -161.2441 L -998.7408 -162.6441 L -990.5408 -164.8441 L -984.7408 -166.6441 L -979.1408 -169.2441 L -976.3408 -168.0441 L -975.9408 -162.4441 L -978.7408 -154.4441 L -984.1408 -151.6441 L -994.7408 -148.4441 L -1006.1408 -146.0441 L -1017.3408 -145.2441 L -1029.7408 -144.2441 L -1040.1408 -144.2441 L -1049.5408 -144.2441 L -1061.1408 -144.8441 L -1072.3408 -145.6441 L -1082.9408 -147.8441 L -1091.5408 -149.8441 L -1097.7408 -152.6441 L -1099.7408 -154.2441 L -1102.9408 -161.8441 Z" stroke="#7f8080" stroke-linecap="round" stroke-linejoin="round" stroke-width="1"/>
      <path d="M -1174.1868 257.2 L -1174.1868 257.2 C -1174.2525 257.7255 -1174.1896 258.25905 -1174.0037 258.7549 L -1173.3527 260.49092 C -1173.176 260.96227 -1172.9489 261.41318 -1172.6754 261.83582 L -1171.7076 263.33153 C -1171.1666 264.16756 -1170.4535 264.87855 -1169.6159 265.41702 L -1168.5378 266.11005 C -1168.2376 266.30307 -1167.923 266.47285 -1167.5968 266.6179 L -1166.28 267.2035 C -1165.6835 267.46876 -1165.0528 267.64928 -1164.4062 267.7398 L -1155.3958 269.00126 C -1155.3858 269.00265 -1155.3758 269.00403 -1155.3658 269.0054 L -1143.6498 270.594 C -1143.6038 270.60024 -1143.5577 270.606 -1143.5116 270.61134 L -1133.2287 271.79783 C -1133.1968 271.8015 -1133.1648 271.80498 -1133.1328 271.80822 L -1119.4228 273.1991 C -1119.3948 273.20193 -1119.3668 273.2046 -1119.3388 273.2071 L -1108.2335 274.19865 C -1108.1984 274.2018 -1108.1632 274.20466 -1108.128 274.20726 L -1097.4415 274.99886 C -1097.401 275.00185 -1097.3605 275.0045 -1097.32 275.0068 L -1086.812 275.6016 C -1086.7912 275.60276 -1086.7704 275.60404 -1086.7496 275.6054 L -1074.7068 276.3951 C -1074.6228 276.4006 -1074.5387 276.4046 -1074.4546 276.40707 L -1061.0074 276.80257 C -1060.9897 276.8031 -1060.9719 276.80368 -1060.9542 276.80434 L -1050.3103 277.19856 C -1050.224 277.20176 -1050.1376 277.20335 -1050.0512 277.20335 L -1039.4422 277.20335 C -1039.4013 277.20335 -1039.3603 277.2037 -1039.3194 277.20443 L -1028.233 277.39893 C -1028.0649 277.40188 -1027.8968 277.39877 -1027.729 277.38962 L -1017.1077 276.81028 C -1017.0231 276.80566 -1016.9384 276.8026 -1016.8537 276.80104 L -1006.0891 276.60532 C -1006.0169 276.604 -1005.9447 276.60158 -1005.8726 276.59803 L -993.8539 276.00695 C -993.8052 276.00455 -993.7564 276.00165 -993.7078 275.99823 L -982.4677 275.20945 C -982.4098 275.2054 -982.3519 275.2006 -982.2941 275.1951 L -969.8835 274.01313 C -969.815 274.0066 -969.7465 274.0011 -969.6779 273.9966 L -957.7458 273.21418 C -957.6358 273.20696 -957.526 273.19715 -957.4164 273.18475 L -947.0041 272.006 C -946.9886 272.00423 -946.973 272.00242 -946.9575 272.00056 L -937.0098 270.80683 C -936.9905 270.8045 -936.9711 270.8021 -936.9518 270.79963 L -923.1161 269.0221 C -923.0188 269.0096 -922.9219 268.99507 -922.8253 268.9785 L -916.2718 267.85506 C -916.0708 267.8206 -915.8685 267.79495 -915.6653 267.77817 L -912.4329 267.5112 C -911.5437 267.43775 -910.6767 267.19497 -909.8786 266.79594 L -908.3924 266.0528 C -907.7918 265.7525 -907.2375 265.36735 -906.7466 264.9092 L -905.4115 263.66308 C -904.8047 263.0967 -904.3493 262.38747 -904.0868 261.6 L -903.792 260.71552 C -903.7219 260.5053 -903.6618 260.29187 -903.612 260.07595 L -903.1423 258.04056 C -903.1071 257.88792 -903.1405 257.72752 -903.2338 257.60168 L -903.2338 257.60168 C -903.3241 257.4798 -903.4748 257.4183 -903.6246 257.44214 L -912.1045 258.7912 C -912.1553 258.7993 -912.2061 258.80796 -912.2568 258.81718 L -925.2416 261.17805 C -925.3344 261.19492 -925.4275 261.2099 -925.5209 261.22302 L -936.7506 262.7991 C -936.7707 262.80194 -936.7909 262.80486 -936.811 262.80786 L -949.9336 264.76645 C -950.0983 264.79105 -950.2639 264.80975 -950.43 264.82253 L -963.1548 265.80136 C -963.1721 265.8027 -963.1895 265.80396 -963.2068 265.80516 L -977.5469 266.801 C -977.5695 266.80257 -977.5921 266.80403 -977.6147 266.80538 L -990.918 267.5996 C -990.9598 267.6021 -991.0018 267.60423 -991.0437 267.60597 L -1005.2352 268.1973 C -1005.3322 268.20133 -1005.4294 268.20335 -1005.5266 268.20335 L -1018.7808 268.20335 L -1031.3225 268.20335 C -1031.3614 268.20335 -1031.4002 268.20368 -1031.4391 268.20433 L -1043.1975 268.4003 C -1043.3197 268.40234 -1043.4419 268.40117 -1043.564 268.3968 L -1054.3976 268.0099 C -1054.5197 268.00554 -1054.6419 268.00437 -1054.7641 268.0064 L -1066.4787 268.20165 C -1066.5468 268.2028 -1066.6148 268.20293 -1066.6829 268.20208 L -1082.3852 268.0058 C -1082.5156 268.00417 -1082.6459 267.9989 -1082.776 267.99 L -1097.0858 267.00986 C -1097.1491 267.00552 -1097.2124 267.00032 -1097.2756 266.99426 L -1111.7666 265.6047 C -1111.7761 265.6038 -1111.7855 265.60288 -1111.795 265.60194 L -1125.607 264.22073 C -1125.7228 264.20915 -1125.8384 264.19468 -1125.9535 264.17733 L -1140.2627 262.02116 C -1140.3414 262.0093 -1140.4204 261.99877 -1140.4995 261.9896 L -1154.0194 260.42207 C -1154.127 260.4096 -1154.2343 260.39463 -1154.3411 260.37718 L -1163.7332 258.84377 C -1163.8982 258.81684 -1164.0622 258.784 -1164.2248 258.74532 L -1173.3024 256.58654 C -1173.6908 256.4942 -1174.0804 256.73412 -1174.1728 257.12244 C -1174.1788 257.14802 -1174.1835 257.17392 -1174.1868 257.2 Z" fill="url(#Obj_Gradient_2)"/>
      <path d="M -1174.1868 257.2 L -1174.1868 257.2 C -1174.2525 257.7255 -1174.1896 258.25905 -1174.0037 258.7549 L -1173.3527 260.49092 C -1173.176 260.96227 -1172.9489 261.41318 -1172.6754 261.83582 L -1171.7076 263.33153 C -1171.1666 264.16756 -1170.4535 264.87855 -1169.6159 265.41702 L -1168.5378 266.11005 C -1168.2376 266.30307 -1167.923 266.47285 -1167.5968 266.6179 L -1166.28 267.2035 C -1165.6835 267.46876 -1165.0528 267.64928 -1164.4062 267.7398 L -1155.3958 269.00126 C -1155.3858 269.00265 -1155.3758 269.00403 -1155.3658 269.0054 L -1143.6498 270.594 C -1143.6038 270.60024 -1143.5577 270.606 -1143.5116 270.61134 L -1133.2287 271.79783 C -1133.1968 271.8015 -1133.1648 271.80498 -1133.1328 271.80822 L -1119.4228 273.1991 C -1119.3948 273.20193 -1119.3668 273.2046 -1119.3388 273.2071 L -1108.2335 274.19865 C -1108.1984 274.2018 -1108.1632 274.20466 -1108.128 274.20726 L -1097.4415 274.99886 C -1097.401 275.00185 -1097.3605 275.0045 -1097.32 275.0068 L -1086.812 275.6016 C -1086.7912 275.60276 -1086.7704 275.60404 -1086.7496 275.6054 L -1074.7068 276.3951 C -1074.6228 276.4006 -1074.5387 276.4046 -1074.4546 276.40707 L -1061.0074 276.80257 C -1060.9897 276.8031 -1060.9719 276.80368 -1060.9542 276.80434 L -1050.3103 277.19856 C -1050.224 277.20176 -1050.1376 277.20335 -1050.0512 277.20335 L -1039.4422 277.20335 C -1039.4013 277.20335 -1039.3603 277.2037 -1039.3194 277.20443 L -1028.233 277.39893 C -1028.0649 277.40188 -1027.8968 277.39877 -1027.729 277.38962 L -1017.1077 276.81028 C -1017.0231 276.80566 -1016.9384 276.8026 -1016.8537 276.80104 L -1006.0891 276.60532 C -1006.0169 276.604 -1005.9447 276.60158 -1005.8726 276.59803 L -993.8539 276.00695 C -993.8052 276.00455 -993.7564 276.00165 -993.7078 275.99823 L -982.4677 275.20945 C -982.4098 275.2054 -982.3519 275.2006 -982.2941 275.1951 L -969.8835 274.01313 C -969.815 274.0066 -969.7465 274.0011 -969.6779 273.9966 L -957.7458 273.21418 C -957.6358 273.20696 -957.526 273.19715 -957.4164 273.18475 L -947.0041 272.006 C -946.9886 272.00423 -946.973 272.00242 -946.9575 272.00056 L -937.0098 270.80683 C -936.9905 270.8045 -936.9711 270.8021 -936.9518 270.79963 L -923.1161 269.0221 C -923.0188 269.0096 -922.9219 268.99507 -922.8253 268.9785 L -916.2718 267.85506 C -916.0708 267.8206 -915.8685 267.79495 -915.6653 267.77817 L -912.4329 267.5112 C -911.5437 267.43775 -910.6767 267.19497 -909.8786 266.79594 L -908.3924 266.0528 C -907.7918 265.7525 -907.2375 265.36735 -906.7466 264.9092 L -905.4115 263.66308 C -904.8047 263.0967 -904.3493 262.38747 -904.0868 261.6 L -903.792 260.71552 C -903.7219 260.5053 -903.6618 260.29187 -903.612 260.07595 L -903.1423 258.04056 C -903.1071 257.88792 -903.1405 257.72752 -903.2338 257.60168 L -903.2338 257.60168 C -903.3241 257.4798 -903.4748 257.4183 -903.6246 257.44214 L -912.1045 258.7912 C -912.1553 258.7993 -912.2061 258.80796 -912.2568 258.81718 L -925.2416 261.17805 C -925.3344 261.19492 -925.4275 261.2099 -925.5209 261.22302 L -936.7506 262.7991 C -936.7707 262.80194 -936.7909 262.80486 -936.811 262.80786 L -949.9336 264.76645 C -950.0983 264.79105 -950.2639 264.80975 -950.43 264.82253 L -963.1548 265.80136 C -963.1721 265.8027 -963.1895 265.80396 -963.2068 265.80516 L -977.5469 266.801 C -977.5695 266.80257 -977.5921 266.80403 -977.6147 266.80538 L -990.918 267.5996 C -990.9598 267.6021 -991.0018 267.60423 -991.0437 267.60597 L -1005.2352 268.1973 C -1005.3322 268.20133 -1005.4294 268.20335 -1005.5266 268.20335 L -1018.7808 268.20335 L -1031.3225 268.20335 C -1031.3614 268.20335 -1031.4002 268.20368 -1031.4391 268.20433 L -1043.1975 268.4003 C -1043.3197 268.40234 -1043.4419 268.40117 -1043.564 268.3968 L -1054.3976 268.0099 C -1054.5197 268.00554 -1054.6419 268.00437 -1054.7641 268.0064 L -1066.4787 268.20165 C -1066.5468 268.2028 -1066.6148 268.20293 -1066.6829 268.20208 L -1082.3852 268.0058 C -1082.5156 268.00417 -1082.6459 267.9989 -1082.776 267.99 L -1097.0858 267.00986 C -1097.1491 267.00552 -1097.2124 267.00032 -1097.2756 266.99426 L -1111.7666 265.6047 C -1111.7761 265.6038 -1111.7855 265.60288 -1111.795 265.60194 L -1125.607 264.22073 C -1125.7228 264.20915 -1125.8384 264.19468 -1125.9535 264.17733 L -1140.2627 262.02116 C -1140.3414 262.0093 -1140.4204 261.99877 -1140.4995 261.9896 L -1154.0194 260.42207 C -1154.127 260.4096 -1154.2343 260.39463 -1154.3411 260.37718 L -1163.7332 258.84377 C -1163.8982 258.81684 -1164.0622 258.784 -1164.2248 258.74532 L -1173.3024 256.58654 C -1173.6908 256.4942 -1174.0804 256.73412 -1174.1728 257.12244 C -1174.1788 257.14802 -1174.1835 257.17392 -1174.1868 257.2 Z" stroke="#7f8080" stroke-linecap="round" stroke-linejoin="round" stroke-width="1"/>
      <path d="M -931.7271 262.8372 L -920.527 261.83352 L -907.2904 259.8262 L -903.2176 257.81885 L -908.3086 226.70516 L -911.3632 199.60614 L -913.3996 172.50711 L -916.4542 145.4081 L -917.4724 117.3054 L -917.4724 88.19905 L -918.4906 64.11103 L -918.4906 26.97533 L -916.4542 -6.145697 L -913.3996 -37.25939 L -911.3632 -52.3144 L -906.2722 -68.37308 L -902.1995 -82.42443 L -898.1267 -95.4721 L -889.9811 -109.52345 L -883.872 -120.56379 L -878.781 -127.58946 L -887.9447 -132.6078 L -901.1813 -137.62614 L -914.4178 -141.6408 L -933.7635 -146.65914 L -937 263 Z" fill="white"/>
      <path d="M -931.7271 262.8372 L -920.527 261.83352 L -907.2904 259.8262 L -903.2176 257.81885 L -908.3086 226.70516 L -911.3632 199.60614 L -913.3996 172.50711 L -916.4542 145.4081 L -917.4724 117.3054 L -917.4724 88.19905 L -918.4906 64.11103 L -918.4906 26.97533 L -916.4542 -6.145697 L -913.3996 -37.25939 L -911.3632 -52.3144 L -906.2722 -68.37308 L -902.1995 -82.42443 L -898.1267 -95.4721 L -889.9811 -109.52345 L -883.872 -120.56379 L -878.781 -127.58946 L -887.9447 -132.6078 L -901.1813 -137.62614 L -914.4178 -141.6408 L -933.7635 -146.65914 L -937 263 Z" stroke="#7f8080" stroke-linecap="round" stroke-linejoin="round" stroke-width="1"/>
      <path d="M -1142.6583 261.8861 L -1146.972 261.46113 L -1157.972 260.46113 L -1170.972 258.46113 L -1174.972 256.46113 L -1169.972 225.46113 L -1168.1583 199.3861 L -1165.6583 171.3861 L -1164.1583 144.3861 L -1163.6583 115.3861 L -1162.1583 88.3861 L -1161.6583 62.8861 L -1162.6583 26.8861 L -1163.6583 -6.6139 L -1163.6583 -21.6139 L -1166.1583 -37.1139 L -1168.6583 -52.1139 L -1173.1583 -67.6139 L -1177.6583 -82.1139 L -1182.6583 -95.6139 L -1189.1583 -109.1139 L -1195.6583 -119.6139 L -1199.1583 -126.1139 L -1189.972 -132.53887 L -1176.972 -137.53887 L -1163.972 -141.53887 L -1145.6583 -147.1139 L -1140.1583 -148.6139 Z" fill="white"/>
      <path d="M -1142.6583 261.8861 L -1146.972 261.46113 L -1157.972 260.46113 L -1170.972 258.46113 L -1174.972 256.46113 L -1169.972 225.46113 L -1168.1583 199.3861 L -1165.6583 171.3861 L -1164.1583 144.3861 L -1163.6583 115.3861 L -1162.1583 88.3861 L -1161.6583 62.8861 L -1162.6583 26.8861 L -1163.6583 -6.6139 L -1163.6583 -21.6139 L -1166.1583 -37.1139 L -1168.6583 -52.1139 L -1173.1583 -67.6139 L -1177.6583 -82.1139 L -1182.6583 -95.6139 L -1189.1583 -109.1139 L -1195.6583 -119.6139 L -1199.1583 -126.1139 L -1189.972 -132.53887 L -1176.972 -137.53887 L -1163.972 -141.53887 L -1145.6583 -147.1139 L -1140.1583 -148.6139 Z" stroke="#7f8080" stroke-linecap="round" stroke-linejoin="round" stroke-width="1"/>
      <path d="M -1102.5 266 L -1097 267 L -1083 267.5 L -1062 267.5 L -1062 -106 L -1074 -110 L -1081 -114 L -1090 -120 L -1099 -128.5 Z" fill="white"/>
      <path d="M -1102.5 266 L -1097 267 L -1083 267.5 L -1062 267.5 L -1062 -106 L -1074 -110 L -1081 -114 L -1090 -120 L -1099 -128.5 Z" stroke="#7f8080" stroke-linecap="round" stroke-linejoin="round" stroke-width="1"/>
      <path d="M -1009 -107.5 L -1e3 -112.5 L -994 -117 L -986 -123 L -980 -129.5 L -975.5 266.5 L -992.5 267.5 L -1003.5 268 L -1010 268.5 L -1014 268 L -1013 268 L -1017 -104.5 Z" fill="white"/>
      <path d="M -1009 -107.5 L -1e3 -112.5 L -994 -117 L -986 -123 L -980 -129.5 L -975.5 266.5 L -992.5 267.5 L -1003.5 268 L -1010 268.5 L -1014 268 L -1013 268 L -1017 -104.5 Z" stroke="#7f8080" stroke-linecap="round" stroke-linejoin="round" stroke-width="1"/>
    </g>
  </g>
</svg>
