<?xml version="1.0" encoding="UTF-8" standalone="no"?>
<!DOCTYPE svg PUBLIC "-//W3C//DTD SVG 1.1//EN" "http://www.w3.org/Graphics/SVG/1.1/DTD/svg11.dtd">
<svg xmlns:dc="http://purl.org/dc/elements/1.1/" xmlns="http://www.w3.org/2000/svg" version="1.1" xmlns:xl="http://www.w3.org/1999/xlink" viewBox="31 221 433 449" width="433" height="449">
  <defs>
    <radialGradient cx="0" cy="0" r="1" id="Gradient" gradientUnits="userSpaceOnUse">
      <stop offset="0" stop-color="white"/>
      <stop offset=".4338305" stop-color="#9aa6b0"/>
      <stop offset="1" stop-color="#163a53"/>
    </radialGradient>
    <radialGradient id="Obj_Gradient" xl:href="#Gradient" gradientTransform="translate(246.75925 249.4) scale(70.26272)"/>
  </defs>
  <metadata> Produced by OmniGraffle 7.19.2\n2023-07-10 01:54:29 +0000</metadata>
  <g id="schaffhausen" stroke="none" fill="none" fill-opacity="1" stroke-opacity="1" stroke-dasharray="none">
    <title>schaffhausen</title>
    <g id="schaffhausen_Capa_1">
      <title>Capa 1</title>
      <g id="Graphic_12">
        <path d="M 185.00565 222.59045 L 193.1711 225.70816 C 194.0291 226.03576 194.90594 226.31167 195.79692 226.53442 L 209.5141 229.9637 C 210.67576 230.25413 211.85832 230.45338 213.051 230.55966 L 230.57715 232.1214 C 231.165 232.17378 231.75464 232.20352 232.34478 232.21054 L 247.8237 232.39481 C 248.11404 232.39827 248.40442 232.39623 248.6947 232.3887 L 263.118 232.01406 C 263.47878 232.0047 263.8393 231.98683 264.19924 231.9605 L 278.57053 230.90893 C 279.56197 230.8364 280.54766 230.69964 281.5214 230.49956 L 293.09436 228.12155 C 294.13637 227.90744 295.16226 227.6213 296.16465 227.26519 L 307.91664 223.09014 C 309.007 222.70277 310.2102 223.23354 310.65925 224.3 L 310.65925 224.3 C 311.1814 225.5401 311.3334 226.90485 311.09685 228.22945 L 310.91637 229.24014 C 310.6126 230.9413 310.11806 232.6028 309.44214 234.1932 L 307.89892 237.8243 C 307.34035 239.13858 306.6606 240.39798 305.86846 241.58618 L 302.1827 247.11485 C 301.43517 248.2361 300.59057 249.2895 299.6586 250.2629 L 293.36354 256.83774 C 292.49547 257.7444 291.55463 258.57846 290.55046 259.3316 L 282.17555 265.61277 C 281.29914 266.2701 280.37688 266.86394 279.41582 267.3898 L 272.23062 271.32133 C 270.9195 272.03874 269.54156 272.62664 268.11638 273.0767 L 261.44347 275.18393 C 259.7266 275.7261 257.952 276.0648 256.15613 276.19308 L 249.26968 276.68497 C 248.19738 276.76156 247.12103 276.76288 246.04854 276.68892 L 237.6123 276.1071 C 236.5781 276.0358 235.54994 275.89463 234.5348 275.6846 L 227.3996 274.20835 C 225.44765 273.8045 223.55647 273.1486 221.77362 272.2572 L 217.1142 269.92748 C 215.88007 269.3104 214.70397 268.58354 213.60012 267.75566 L 207.91816 263.4942 C 207.47903 263.16483 207.05182 262.81987 206.63737 262.45995 L 200.8822 257.46203 C 200.0679 256.7549 199.30436 255.99135 198.59722 255.17706 L 194.192 250.10438 C 193.4379 249.23602 192.74998 248.31232 192.13406 247.34105 L 188.40036 241.4533 C 188.0398 240.8847 187.70437 240.30056 187.39505 239.70255 L 185.77468 236.56983 C 185.16553 235.39215 184.65936 234.164 184.26183 232.8991 L 182.98159 228.82562 C 182.76681 228.14225 182.58408 227.4492 182.43399 226.74878 L 182.35925 226.4 C 182.16458 225.49157 182.27185 224.54443 182.66473 223.70254 L 182.75925 223.5 C 183.15372 222.6547 184.1342 222.2577 185.00565 222.59045 Z" fill="url(#Obj_Gradient)"/>
        <path d="M 185.00565 222.59045 L 193.1711 225.70816 C 194.0291 226.03576 194.90594 226.31167 195.79692 226.53442 L 209.5141 229.9637 C 210.67576 230.25413 211.85832 230.45338 213.051 230.55966 L 230.57715 232.1214 C 231.165 232.17378 231.75464 232.20352 232.34478 232.21054 L 247.8237 232.39481 C 248.11404 232.39827 248.40442 232.39623 248.6947 232.3887 L 263.118 232.01406 C 263.47878 232.0047 263.8393 231.98683 264.19924 231.9605 L 278.57053 230.90893 C 279.56197 230.8364 280.54766 230.69964 281.5214 230.49956 L 293.09436 228.12155 C 294.13637 227.90744 295.16226 227.6213 296.16465 227.26519 L 307.91664 223.09014 C 309.007 222.70277 310.2102 223.23354 310.65925 224.3 L 310.65925 224.3 C 311.1814 225.5401 311.3334 226.90485 311.09685 228.22945 L 310.91637 229.24014 C 310.6126 230.9413 310.11806 232.6028 309.44214 234.1932 L 307.89892 237.8243 C 307.34035 239.13858 306.6606 240.39798 305.86846 241.58618 L 302.1827 247.11485 C 301.43517 248.2361 300.59057 249.2895 299.6586 250.2629 L 293.36354 256.83774 C 292.49547 257.7444 291.55463 258.57846 290.55046 259.3316 L 282.17555 265.61277 C 281.29914 266.2701 280.37688 266.86394 279.41582 267.3898 L 272.23062 271.32133 C 270.9195 272.03874 269.54156 272.62664 268.11638 273.0767 L 261.44347 275.18393 C 259.7266 275.7261 257.952 276.0648 256.15613 276.19308 L 249.26968 276.68497 C 248.19738 276.76156 247.12103 276.76288 246.04854 276.68892 L 237.6123 276.1071 C 236.5781 276.0358 235.54994 275.89463 234.5348 275.6846 L 227.3996 274.20835 C 225.44765 273.8045 223.55647 273.1486 221.77362 272.2572 L 217.1142 269.92748 C 215.88007 269.3104 214.70397 268.58354 213.60012 267.75566 L 207.91816 263.4942 C 207.47903 263.16483 207.05182 262.81987 206.63737 262.45995 L 200.8822 257.46203 C 200.0679 256.7549 199.30436 255.99135 198.59722 255.17706 L 194.192 250.10438 C 193.4379 249.23602 192.74998 248.31232 192.13406 247.34105 L 188.40036 241.4533 C 188.0398 240.8847 187.70437 240.30056 187.39505 239.70255 L 185.77468 236.56983 C 185.16553 235.39215 184.65936 234.164 184.26183 232.8991 L 182.98159 228.82562 C 182.76681 228.14225 182.58408 227.4492 182.43399 226.74878 L 182.35925 226.4 C 182.16458 225.49157 182.27185 224.54443 182.66473 223.70254 L 182.75925 223.5 C 183.15372 222.6547 184.1342 222.2577 185.00565 222.59045 Z" stroke="#7f8080" stroke-linecap="round" stroke-linejoin="round" stroke-width="1"/>
      </g>
      <g id="Graphic_11">
        <path d="M 120.97346 659.2638 L 134.7157 661.55416 C 134.89907 661.5847 135.08297 661.6121 135.2673 661.63624 L 163.62094 665.35154 C 163.86747 665.38385 164.11472 665.4104 164.36248 665.4312 L 194.60537 667.9677 C 194.86227 667.9892 195.11966 668.0046 195.3773 668.0137 L 234.30822 669.39 C 234.49658 669.3967 234.68504 669.4 234.87352 669.4 L 266.34084 669.4 C 266.50746 669.4 266.67407 669.3974 266.8406 669.3922 L 291.8754 668.6099 C 292.08563 668.6033 292.29573 668.5926 292.50555 668.5777 L 314.5533 667.0168 C 314.7116 667.0056 314.86975 666.99205 315.02766 666.9761 L 340.28815 664.4305 C 340.4899 664.4102 340.69122 664.386 340.89204 664.358 L 364.68474 661.04265 C 364.88875 661.0142 365.0922 660.98186 365.29496 660.9456 L 374.4908 659.3 C 379.8179 658.3467 383.46876 653.3931 382.80234 648.02255 L 380.59475 630.232 C 380.5921 630.2107 380.5895 630.18934 380.58695 630.168 L 377.02312 600.4695 C 377.00157 600.28985 376.98306 600.10985 376.9676 599.9296 L 374.6054 572.3704 C 374.59565 572.2568 374.58713 572.1431 374.57983 572.02936 L 373.1932 550.4377 C 373.1916 550.4126 373.1899 550.38744 373.1882 550.3623 L 371.59603 527.276 C 371.59253 527.22533 371.5893 527.17466 371.58627 527.124 L 370.4099 507.3218 C 370.39716 507.1073 370.38874 506.89255 370.38465 506.6777 L 369.99236 486.08285 C 369.9913 486.0276 369.98997 485.9724 369.98835 485.9172 L 369.3932 465.68283 C 369.3916 465.6276 369.39026 465.5724 369.3892 465.51715 L 368.99855 445.0076 C 368.99337 444.7359 368.9951 444.46413 369.0038 444.19253 L 369.58973 425.8329 C 369.59044 425.81097 369.5912 425.78903 369.59197 425.7671 L 370.38005 403.8978 C 370.3872 403.6993 370.39806 403.50093 370.4126 403.30283 L 371.97007 382.0822 C 371.9839 381.8941 371.99436 381.70573 372.0015 381.51724 L 372.75596 361.61837 C 372.77915 361.00663 372.83744 360.3967 372.93052 359.79165 L 375.66953 341.98813 C 375.7503 341.46304 375.8572 340.9423 375.9898 340.42783 L 380.61806 322.47017 C 380.73316 322.0236 380.8675 321.5822 381.02073 321.14725 L 386.7415 304.9076 C 386.9076 304.43613 387.0957 303.9727 387.30517 303.51883 L 392.83673 291.5338 C 392.9394 291.3113 393.0472 291.0912 393.16 290.87364 L 398.52223 280.53222 C 398.56793 280.44407 398.61446 280.35636 398.6618 280.2691 L 403.87777 270.65212 C 404.61505 269.29276 405.5647 268.05987 406.6908 267 L 406.6908 267 C 407.36598 266.36453 407.39817 265.30203 406.7627 264.62684 C 406.6382 264.49456 406.49307 264.38337 406.33295 264.2976 L 403.1188 262.57573 C 402.90016 262.4586 402.6788 262.34656 402.45494 262.2397 L 394.60097 258.49122 C 394.19436 258.29716 393.77974 258.12036 393.3582 257.9613 L 383.68338 254.3104 C 383.48833 254.2368 383.29187 254.16703 383.0941 254.1011 L 370.39963 249.86962 C 370.2604 249.8232 370.12055 249.77872 369.9801 249.73616 L 357.0966 245.83206 C 357.02605 245.8107 356.95567 245.78883 356.88544 245.76648 L 344.38144 241.78794 C 343.9878 241.6627 343.5992 241.52225 343.21643 241.36693 L 331.2405 236.50713 C 330.40883 236.16964 329.60704 235.76277 328.8436 235.29083 L 319.22436 229.3444 C 319.06865 229.24814 318.9146 229.14922 318.7623 229.04768 L 313.8722 225.78762 C 312.8908 225.13335 312.0195 224.32745 311.2908 223.4 L 311.2908 223.4 C 311.18518 223.2656 310.9906 223.24225 310.8562 223.34785 C 310.75347 223.42858 310.7125 223.56513 310.7538 223.68908 L 310.8908 224.1 C 311.35003 225.47775 311.4546 226.94904 311.1948 228.3779 L 310.79967 230.55115 C 310.52845 232.0428 310.0466 233.48835 309.3686 234.8444 L 307.83626 237.90904 C 307.53956 238.50244 307.20624 239.0768 306.83823 239.62883 L 303.63453 244.43438 C 303.20593 245.07728 302.73132 245.6883 302.21443 246.2626 L 297.6524 251.33156 C 297.61132 251.3772 297.57 251.42258 297.5284 251.46773 L 291.53417 257.97576 C 290.90643 258.6573 290.22068 259.28302 289.48465 259.84587 L 284.46047 263.6879 C 284.01432 264.02906 283.55052 264.3465 283.071 264.6389 L 276.58458 268.59403 C 275.92292 268.99748 275.23283 269.35232 274.51975 269.65576 L 267.40434 272.6836 C 266.59667 273.02728 265.7621 273.30393 264.90905 273.51072 L 260.83 274.4996 C 260.00516 274.69955 259.16573 274.83356 258.31963 274.90035 L 252.61943 275.35037 C 252.2005 275.38344 251.78042 275.4 251.3602 275.4 L 244.32787 275.4 C 243.57077 275.4 242.81462 275.34626 242.06513 275.2392 L 234.11868 274.104 C 233.63367 274.0347 233.1521 273.94317 232.6755 273.8297 L 226.71426 272.41035 C 225.56878 272.13762 224.4569 271.73927 223.39883 271.22253 L 217.11882 268.15556 C 216.63377 267.91867 216.16102 267.6574 215.70238 267.37272 L 211.49052 264.75846 C 210.89135 264.38656 210.31742 263.97546 209.7725 263.52784 L 205.3264 259.87568 C 205.1027 259.69193 204.88402 259.50214 204.67063 259.30652 L 200.86828 255.82104 C 200.417 255.40736 199.9898 254.9681 199.58885 254.50546 L 195.4701 249.75307 C 195.15072 249.38455 194.84836 249.00162 194.56395 248.6055 L 190.1343 242.4356 C 189.6394 241.7463 189.20013 241.0187 188.82064 240.25972 L 186.24418 235.1068 C 186.20858 235.0356 186.17352 234.96414 186.13899 234.89242 L 184.89078 232.3 C 184.04007 230.53313 183.68455 228.5686 183.86209 226.61564 L 184.0423 224.63339 C 184.0661 224.37152 183.87312 224.13994 183.61125 224.11614 C 183.44886 224.10138 183.2902 224.17075 183.19078 224.3 L 183.19078 224.3 C 182.52734 225.16248 181.74723 225.92856 180.87285 226.57625 L 176.97632 229.46257 C 176.85263 229.55418 176.72763 229.644 176.60136 229.73202 L 171.9791 232.9536 C 170.79237 233.7807 169.49895 234.44308 168.1342 234.92258 L 163.52708 236.5413 C 163.0365 236.71367 162.55463 236.90984 162.08316 237.12913 L 155.23638 240.31368 C 154.54022 240.63747 153.82165 240.91074 153.08625 241.13136 L 142.21586 244.39248 C 142.19914 244.3975 142.18243 244.40254 142.16572 244.4076 L 131.19764 247.7372 C 131.05974 247.77907 130.92241 247.8228 130.7857 247.86836 L 117.86446 252.17544 C 117.81534 252.1918 117.76614 252.20795 117.71686 252.22384 L 106.34946 255.89075 C 105.71097 256.0967 105.08607 256.34263 104.47846 256.62704 L 96.5465 260.33988 C 96.17616 260.51323 95.8126 260.7007 95.45662 260.90192 L 89.51051 264.26276 C 88.25747 264.971 87.81583 266.56093 88.52406 267.81396 C 88.60118 267.9504 88.69045 268.0796 88.79078 268.2 L 89.65489 269.23693 C 90.40984 270.14287 91.06231 271.1295 91.60043 272.17882 L 94.67757 278.17924 C 94.75304 278.3264 94.83079 278.4724 94.91078 278.61715 L 98.86554 285.77337 C 98.94903 285.92445 99.03007 286.07687 99.10863 286.23057 L 103.21693 294.26856 C 103.466 294.75587 103.6899 295.25563 103.88776 295.7659 L 107.37053 304.74776 C 107.38403 304.7826 107.39765 304.81737 107.4114 304.8521 L 111.00772 313.93754 C 111.12973 314.24577 111.24213 314.55772 111.34476 314.87294 L 113.9666 322.9257 C 113.98272 322.97524 113.9986 323.02484 114.01424 323.0745 L 117.08629 332.8328 C 117.28908 333.47695 117.45089 334.1333 117.57073 334.7979 L 119.55605 345.80737 C 119.5792 345.9358 119.60079 346.0645 119.6208 346.19342 L 121.32666 357.1868 C 121.3694 357.46222 121.40494 357.7387 121.43323 358.016 L 122.32065 366.7127 C 122.36738 367.1707 122.39433 367.6305 122.40141 368.0908 L 122.58565 380.0664 C 122.58907 380.2888 122.59713 380.51105 122.60981 380.7331 L 123.38019 394.21465 C 123.38725 394.3382 123.39575 394.4617 123.40567 394.58506 L 124.73924 411.15943 C 124.77359 411.5863 124.79078 412.0144 124.79078 412.44264 L 124.79078 424.8924 C 124.79078 425.09746 124.79472 425.30247 124.8026 425.50735 L 125.38295 440.5965 C 125.38817 440.73216 125.39166 440.8679 125.39343 441.00365 L 125.58559 455.7999 C 125.58905 456.0666 125.58584 456.33333 125.57597 456.59986 L 125.00174 472.104 C 124.99444 472.3013 124.99078 472.49875 124.99078 472.6962 L 124.99078 486.2924 C 124.99078 486.49746 124.98684 486.7025 124.97896 486.90736 L 124.39377 502.12236 C 124.39178 502.1741 124.38953 502.2259 124.38704 502.2776 L 123.59172 518.78055 C 123.5911 518.7935 123.59045 518.8065 123.5898 518.81945 L 122.79531 534.5106 C 122.79229 534.5702 122.78894 534.6298 122.78526 534.68933 L 121.59634 553.9101 C 121.59264 553.97 121.58859 554.02996 121.5842 554.0899 L 119.80107 578.4594 C 119.79421 578.55314 119.78653 578.6468 119.77802 578.7404 L 117.99213 598.3852 C 117.99123 598.3951 117.99032 598.40494 117.98941 598.4148 L 116.21864 617.4997 C 116.20007 617.6999 116.17773 617.8997 116.15162 618.099 L 114.19091 633.07175 C 114.0581 634.08594 113.78896 635.07756 113.39078 636.0197 L 113.39078 636.0197 C 112.9932 636.9605 112.74454 637.9574 112.65371 638.97465 L 111.89078 647.5197 C 111.38302 653.20676 115.34149 658.3251 120.97346 659.2638 Z" fill="yellow"/>
        <path d="M 120.97346 659.2638 L 134.7157 661.55416 C 134.89907 661.5847 135.08297 661.6121 135.2673 661.63624 L 163.62094 665.35154 C 163.86747 665.38385 164.11472 665.4104 164.36248 665.4312 L 194.60537 667.9677 C 194.86227 667.9892 195.11966 668.0046 195.3773 668.0137 L 234.30822 669.39 C 234.49658 669.3967 234.68504 669.4 234.87352 669.4 L 266.34084 669.4 C 266.50746 669.4 266.67407 669.3974 266.8406 669.3922 L 291.8754 668.6099 C 292.08563 668.6033 292.29573 668.5926 292.50555 668.5777 L 314.5533 667.0168 C 314.7116 667.0056 314.86975 666.99205 315.02766 666.9761 L 340.28815 664.4305 C 340.4899 664.4102 340.69122 664.386 340.89204 664.358 L 364.68474 661.04265 C 364.88875 661.0142 365.0922 660.98186 365.29496 660.9456 L 374.4908 659.3 C 379.8179 658.3467 383.46876 653.3931 382.80234 648.02255 L 380.59475 630.232 C 380.5921 630.2107 380.5895 630.18934 380.58695 630.168 L 377.02312 600.4695 C 377.00157 600.28985 376.98306 600.10985 376.9676 599.9296 L 374.6054 572.3704 C 374.59565 572.2568 374.58713 572.1431 374.57983 572.02936 L 373.1932 550.4377 C 373.1916 550.4126 373.1899 550.38744 373.1882 550.3623 L 371.59603 527.276 C 371.59253 527.22533 371.5893 527.17466 371.58627 527.124 L 370.4099 507.3218 C 370.39716 507.1073 370.38874 506.89255 370.38465 506.6777 L 369.99236 486.08285 C 369.9913 486.0276 369.98997 485.9724 369.98835 485.9172 L 369.3932 465.68283 C 369.3916 465.6276 369.39026 465.5724 369.3892 465.51715 L 368.99855 445.0076 C 368.99337 444.7359 368.9951 444.46413 369.0038 444.19253 L 369.58973 425.8329 C 369.59044 425.81097 369.5912 425.78903 369.59197 425.7671 L 370.38005 403.8978 C 370.3872 403.6993 370.39806 403.50093 370.4126 403.30283 L 371.97007 382.0822 C 371.9839 381.8941 371.99436 381.70573 372.0015 381.51724 L 372.75596 361.61837 C 372.77915 361.00663 372.83744 360.3967 372.93052 359.79165 L 375.66953 341.98813 C 375.7503 341.46304 375.8572 340.9423 375.9898 340.42783 L 380.61806 322.47017 C 380.73316 322.0236 380.8675 321.5822 381.02073 321.14725 L 386.7415 304.9076 C 386.9076 304.43613 387.0957 303.9727 387.30517 303.51883 L 392.83673 291.5338 C 392.9394 291.3113 393.0472 291.0912 393.16 290.87364 L 398.52223 280.53222 C 398.56793 280.44407 398.61446 280.35636 398.6618 280.2691 L 403.87777 270.65212 C 404.61505 269.29276 405.5647 268.05987 406.6908 267 L 406.6908 267 C 407.36598 266.36453 407.39817 265.30203 406.7627 264.62684 C 406.6382 264.49456 406.49307 264.38337 406.33295 264.2976 L 403.1188 262.57573 C 402.90016 262.4586 402.6788 262.34656 402.45494 262.2397 L 394.60097 258.49122 C 394.19436 258.29716 393.77974 258.12036 393.3582 257.9613 L 383.68338 254.3104 C 383.48833 254.2368 383.29187 254.16703 383.0941 254.1011 L 370.39963 249.86962 C 370.2604 249.8232 370.12055 249.77872 369.9801 249.73616 L 357.0966 245.83206 C 357.02605 245.8107 356.95567 245.78883 356.88544 245.76648 L 344.38144 241.78794 C 343.9878 241.6627 343.5992 241.52225 343.21643 241.36693 L 331.2405 236.50713 C 330.40883 236.16964 329.60704 235.76277 328.8436 235.29083 L 319.22436 229.3444 C 319.06865 229.24814 318.9146 229.14922 318.7623 229.04768 L 313.8722 225.78762 C 312.8908 225.13335 312.0195 224.32745 311.2908 223.4 L 311.2908 223.4 C 311.18518 223.2656 310.9906 223.24225 310.8562 223.34785 C 310.75347 223.42858 310.7125 223.56513 310.7538 223.68908 L 310.8908 224.1 C 311.35003 225.47775 311.4546 226.94904 311.1948 228.3779 L 310.79967 230.55115 C 310.52845 232.0428 310.0466 233.48835 309.3686 234.8444 L 307.83626 237.90904 C 307.53956 238.50244 307.20624 239.0768 306.83823 239.62883 L 303.63453 244.43438 C 303.20593 245.07728 302.73132 245.6883 302.21443 246.2626 L 297.6524 251.33156 C 297.61132 251.3772 297.57 251.42258 297.5284 251.46773 L 291.53417 257.97576 C 290.90643 258.6573 290.22068 259.28302 289.48465 259.84587 L 284.46047 263.6879 C 284.01432 264.02906 283.55052 264.3465 283.071 264.6389 L 276.58458 268.59403 C 275.92292 268.99748 275.23283 269.35232 274.51975 269.65576 L 267.40434 272.6836 C 266.59667 273.02728 265.7621 273.30393 264.90905 273.51072 L 260.83 274.4996 C 260.00516 274.69955 259.16573 274.83356 258.31963 274.90035 L 252.61943 275.35037 C 252.2005 275.38344 251.78042 275.4 251.3602 275.4 L 244.32787 275.4 C 243.57077 275.4 242.81462 275.34626 242.06513 275.2392 L 234.11868 274.104 C 233.63367 274.0347 233.1521 273.94317 232.6755 273.8297 L 226.71426 272.41035 C 225.56878 272.13762 224.4569 271.73927 223.39883 271.22253 L 217.11882 268.15556 C 216.63377 267.91867 216.16102 267.6574 215.70238 267.37272 L 211.49052 264.75846 C 210.89135 264.38656 210.31742 263.97546 209.7725 263.52784 L 205.3264 259.87568 C 205.1027 259.69193 204.88402 259.50214 204.67063 259.30652 L 200.86828 255.82104 C 200.417 255.40736 199.9898 254.9681 199.58885 254.50546 L 195.4701 249.75307 C 195.15072 249.38455 194.84836 249.00162 194.56395 248.6055 L 190.1343 242.4356 C 189.6394 241.7463 189.20013 241.0187 188.82064 240.25972 L 186.24418 235.1068 C 186.20858 235.0356 186.17352 234.96414 186.13899 234.89242 L 184.89078 232.3 C 184.04007 230.53313 183.68455 228.5686 183.86209 226.61564 L 184.0423 224.63339 C 184.0661 224.37152 183.87312 224.13994 183.61125 224.11614 C 183.44886 224.10138 183.2902 224.17075 183.19078 224.3 L 183.19078 224.3 C 182.52734 225.16248 181.74723 225.92856 180.87285 226.57625 L 176.97632 229.46257 C 176.85263 229.55418 176.72763 229.644 176.60136 229.73202 L 171.9791 232.9536 C 170.79237 233.7807 169.49895 234.44308 168.1342 234.92258 L 163.52708 236.5413 C 163.0365 236.71367 162.55463 236.90984 162.08316 237.12913 L 155.23638 240.31368 C 154.54022 240.63747 153.82165 240.91074 153.08625 241.13136 L 142.21586 244.39248 C 142.19914 244.3975 142.18243 244.40254 142.16572 244.4076 L 131.19764 247.7372 C 131.05974 247.77907 130.92241 247.8228 130.7857 247.86836 L 117.86446 252.17544 C 117.81534 252.1918 117.76614 252.20795 117.71686 252.22384 L 106.34946 255.89075 C 105.71097 256.0967 105.08607 256.34263 104.47846 256.62704 L 96.5465 260.33988 C 96.17616 260.51323 95.8126 260.7007 95.45662 260.90192 L 89.51051 264.26276 C 88.25747 264.971 87.81583 266.56093 88.52406 267.81396 C 88.60118 267.9504 88.69045 268.0796 88.79078 268.2 L 89.65489 269.23693 C 90.40984 270.14287 91.06231 271.1295 91.60043 272.17882 L 94.67757 278.17924 C 94.75304 278.3264 94.83079 278.4724 94.91078 278.61715 L 98.86554 285.77337 C 98.94903 285.92445 99.03007 286.07687 99.10863 286.23057 L 103.21693 294.26856 C 103.466 294.75587 103.6899 295.25563 103.88776 295.7659 L 107.37053 304.74776 C 107.38403 304.7826 107.39765 304.81737 107.4114 304.8521 L 111.00772 313.93754 C 111.12973 314.24577 111.24213 314.55772 111.34476 314.87294 L 113.9666 322.9257 C 113.98272 322.97524 113.9986 323.02484 114.01424 323.0745 L 117.08629 332.8328 C 117.28908 333.47695 117.45089 334.1333 117.57073 334.7979 L 119.55605 345.80737 C 119.5792 345.9358 119.60079 346.0645 119.6208 346.19342 L 121.32666 357.1868 C 121.3694 357.46222 121.40494 357.7387 121.43323 358.016 L 122.32065 366.7127 C 122.36738 367.1707 122.39433 367.6305 122.40141 368.0908 L 122.58565 380.0664 C 122.58907 380.2888 122.59713 380.51105 122.60981 380.7331 L 123.38019 394.21465 C 123.38725 394.3382 123.39575 394.4617 123.40567 394.58506 L 124.73924 411.15943 C 124.77359 411.5863 124.79078 412.0144 124.79078 412.44264 L 124.79078 424.8924 C 124.79078 425.09746 124.79472 425.30247 124.8026 425.50735 L 125.38295 440.5965 C 125.38817 440.73216 125.39166 440.8679 125.39343 441.00365 L 125.58559 455.7999 C 125.58905 456.0666 125.58584 456.33333 125.57597 456.59986 L 125.00174 472.104 C 124.99444 472.3013 124.99078 472.49875 124.99078 472.6962 L 124.99078 486.2924 C 124.99078 486.49746 124.98684 486.7025 124.97896 486.90736 L 124.39377 502.12236 C 124.39178 502.1741 124.38953 502.2259 124.38704 502.2776 L 123.59172 518.78055 C 123.5911 518.7935 123.59045 518.8065 123.5898 518.81945 L 122.79531 534.5106 C 122.79229 534.5702 122.78894 534.6298 122.78526 534.68933 L 121.59634 553.9101 C 121.59264 553.97 121.58859 554.02996 121.5842 554.0899 L 119.80107 578.4594 C 119.79421 578.55314 119.78653 578.6468 119.77802 578.7404 L 117.99213 598.3852 C 117.99123 598.3951 117.99032 598.40494 117.98941 598.4148 L 116.21864 617.4997 C 116.20007 617.6999 116.17773 617.8997 116.15162 618.099 L 114.19091 633.07175 C 114.0581 634.08594 113.78896 635.07756 113.39078 636.0197 L 113.39078 636.0197 C 112.9932 636.9605 112.74454 637.9574 112.65371 638.97465 L 111.89078 647.5197 C 111.38302 653.20676 115.34149 658.3251 120.97346 659.2638 Z" stroke="#7f8080" stroke-linecap="round" stroke-linejoin="round" stroke-width="1"/>
      </g>
      <g id="Graphic_10">
        <path d="M 32 373.44615 L 38.2 377.84615 L 46.4 381.84615 L 55 385.44615 L 64 389.24615 L 75 393.24615 L 84.4 396.04615 L 93.4 398.64615 L 102.4 401.24615 L 107.8 402.64615 L 113.4 403.64615 L 115.8 397.84615 L 118.4 392.44615 L 120.6 388.44615 L 123.2 385.04615 L 123.4 376.04615 L 122.8 365.04615 L 121 354.24615 L 119.4 343.84615 L 116.8 332.84614 L 114.4 323.24614 L 111.6 315.24614 L 108.4 305.84614 L 105.6 298.44614 L 102 290.84614 L 98 283.24614 L 94 275.84614 L 91.4 272.24614 L 87.8 266.44614 L 82.4 270.84614 L 77.6 275.64614 L 73 281.84614 L 68.6 288.04614 L 63.8 296.64614 L 59 306.04614 L 54.2 315.24614 L 50.6 323.84614 L 46.6 332.84614 L 43.4 341.04615 L 39.6 350.44615 L 36.8 358.44615 L 33.8 366.84615 Z" fill="yellow"/>
        <path d="M 32 373.44615 L 38.2 377.84615 L 46.4 381.84615 L 55 385.44615 L 64 389.24615 L 75 393.24615 L 84.4 396.04615 L 93.4 398.64615 L 102.4 401.24615 L 107.8 402.64615 L 113.4 403.64615 L 115.8 397.84615 L 118.4 392.44615 L 120.6 388.44615 L 123.2 385.04615 L 123.4 376.04615 L 122.8 365.04615 L 121 354.24615 L 119.4 343.84615 L 116.8 332.84614 L 114.4 323.24614 L 111.6 315.24614 L 108.4 305.84614 L 105.6 298.44614 L 102 290.84614 L 98 283.24614 L 94 275.84614 L 91.4 272.24614 L 87.8 266.44614 L 82.4 270.84614 L 77.6 275.64614 L 73 281.84614 L 68.6 288.04614 L 63.8 296.64614 L 59 306.04614 L 54.2 315.24614 L 50.6 323.84614 L 46.6 332.84614 L 43.4 341.04615 L 39.6 350.44615 L 36.8 358.44615 L 33.8 366.84615 Z" stroke="#7f8080" stroke-linecap="round" stroke-linejoin="round" stroke-width="1"/>
      </g>
      <g id="Graphic_9">
        <path d="M 463.4053 372.50275 L 457.2053 376.90275 L 449.0053 380.90275 L 440.4053 384.50275 L 431.4053 388.30275 L 420.4053 392.30275 L 411.0053 395.10275 L 402.0053 397.70275 L 393.0053 400.30275 L 387.6053 401.70275 L 382.0053 402.70275 L 379.6053 396.90275 L 377.0053 391.50275 L 374.8053 387.50275 L 372.2053 384.10275 L 372.0053 375.10275 L 372.6053 364.10275 L 374.4053 353.30275 L 376.0053 342.90275 L 378.6053 331.90275 L 381.0053 322.30275 L 383.8053 314.30275 L 387.0053 304.90275 L 389.8053 297.50275 L 393.4053 289.90275 L 397.4053 282.30275 L 401.4053 274.90275 L 404.0053 271.30275 L 407.6053 265.50275 L 413.0053 269.90275 L 417.8053 274.70275 L 422.4053 280.90275 L 426.8053 287.10275 L 431.6053 295.70275 L 436.4053 305.10275 L 441.2053 314.30275 L 444.8053 322.90275 L 448.8053 331.90275 L 452.0053 340.10275 L 455.8053 349.50275 L 458.6053 357.50275 L 461.6053 365.90275 Z" fill="yellow"/>
        <path d="M 463.4053 372.50275 L 457.2053 376.90275 L 449.0053 380.90275 L 440.4053 384.50275 L 431.4053 388.30275 L 420.4053 392.30275 L 411.0053 395.10275 L 402.0053 397.70275 L 393.0053 400.30275 L 387.6053 401.70275 L 382.0053 402.70275 L 379.6053 396.90275 L 377.0053 391.50275 L 374.8053 387.50275 L 372.2053 384.10275 L 372.0053 375.10275 L 372.6053 364.10275 L 374.4053 353.30275 L 376.0053 342.90275 L 378.6053 331.90275 L 381.0053 322.30275 L 383.8053 314.30275 L 387.0053 304.90275 L 389.8053 297.50275 L 393.4053 289.90275 L 397.4053 282.30275 L 401.4053 274.90275 L 404.0053 271.30275 L 407.6053 265.50275 L 413.0053 269.90275 L 417.8053 274.70275 L 422.4053 280.90275 L 426.8053 287.10275 L 431.6053 295.70275 L 436.4053 305.10275 L 441.2053 314.30275 L 444.8053 322.90275 L 448.8053 331.90275 L 452.0053 340.10275 L 455.8053 349.50275 L 458.6053 357.50275 L 461.6053 365.90275 Z" stroke="#7f8080" stroke-linecap="round" stroke-linejoin="round" stroke-width="1"/>
      </g>
      <g id="Graphic_8">
        <path d="M 32 373.44615 L 38.2 377.84615 L 46.4 381.84615 L 55 385.44615 L 64 389.24615 L 75 393.24615 L 84.4 396.04615 L 93.4 398.64615 L 102.4 401.24615 L 107.8 402.64615 L 113.4 403.64615 L 116.4 397.24615 L 112.6 396.44615 L 107.8 395.24615 L 102.2 394.04615 L 96.2 392.24615 L 91.6 390.84615 L 87.4 389.64615 L 82.8 387.64615 L 78.2 386.04615 L 73.4 384.04615 L 69.4 382.64615 L 64.2 380.44615 L 59.6 378.84615 L 54.8 376.64615 L 50 374.84615 L 46 372.84615 L 41.6 370.64615 L 37.2 368.44615 L 33.8 366.84615 Z" fill="black"/>
        <path d="M 32 373.44615 L 38.2 377.84615 L 46.4 381.84615 L 55 385.44615 L 64 389.24615 L 75 393.24615 L 84.4 396.04615 L 93.4 398.64615 L 102.4 401.24615 L 107.8 402.64615 L 113.4 403.64615 L 116.4 397.24615 L 112.6 396.44615 L 107.8 395.24615 L 102.2 394.04615 L 96.2 392.24615 L 91.6 390.84615 L 87.4 389.64615 L 82.8 387.64615 L 78.2 386.04615 L 73.4 384.04615 L 69.4 382.64615 L 64.2 380.44615 L 59.6 378.84615 L 54.8 376.64615 L 50 374.84615 L 46 372.84615 L 41.6 370.64615 L 37.2 368.44615 L 33.8 366.84615 Z" stroke="#7f8080" stroke-linecap="round" stroke-linejoin="round" stroke-width="1"/>
      </g>
      <g id="Graphic_7">
        <path d="M 463.4053 372.50275 L 457.2053 376.90275 L 449.0053 380.90275 L 440.4053 384.50275 L 431.4053 388.30275 L 420.4053 392.30275 L 411.0053 395.10275 L 402.0053 397.70275 L 393.0053 400.30275 L 387.6053 401.70275 L 382.0053 402.70275 L 379.0053 396.30275 L 382.8053 395.50275 L 387.6053 394.30275 L 393.2053 393.10275 L 399.2053 391.30275 L 403.8053 389.90275 L 408.0053 388.70275 L 412.6053 386.70275 L 417.2053 385.10275 L 422.0053 383.10275 L 426.0053 381.70275 L 431.2053 379.50275 L 435.8053 377.90275 L 440.6053 375.70275 L 445.4053 373.90275 L 449.4053 371.90275 L 453.8053 369.70275 L 458.2053 367.50275 L 461.6053 365.90275 Z" fill="black"/>
        <path d="M 463.4053 372.50275 L 457.2053 376.90275 L 449.0053 380.90275 L 440.4053 384.50275 L 431.4053 388.30275 L 420.4053 392.30275 L 411.0053 395.10275 L 402.0053 397.70275 L 393.0053 400.30275 L 387.6053 401.70275 L 382.0053 402.70275 L 379.0053 396.30275 L 382.8053 395.50275 L 387.6053 394.30275 L 393.2053 393.10275 L 399.2053 391.30275 L 403.8053 389.90275 L 408.0053 388.70275 L 412.6053 386.70275 L 417.2053 385.10275 L 422.0053 383.10275 L 426.0053 381.70275 L 431.2053 379.50275 L 435.8053 377.90275 L 440.6053 375.70275 L 445.4053 373.90275 L 449.4053 371.90275 L 453.8053 369.70275 L 458.2053 367.50275 L 461.6053 365.90275 Z" stroke="#7f8080" stroke-linecap="round" stroke-linejoin="round" stroke-width="1"/>
      </g>
      <g id="Graphic_6">
        <path d="M 182.57212 223.9638 L 177.84295 228.01736 C 176.6926 229.00338 175.44764 229.8733 174.12621 230.61448 L 171.59958 232.03165 C 170.1644 232.83662 169.5836 234.60575 170.26239 236.10473 L 171.28 238.35197 C 171.40158 238.62046 171.52831 238.88658 171.66012 239.1502 L 175.94938 247.7287 C 176.29117 248.4123 176.66683 249.07843 177.07495 249.72463 L 179.40134 253.40808 C 179.84172 254.10535 180.31928 254.77842 180.83195 255.4244 L 184.24264 259.72185 C 184.7887 260.40987 185.37371 261.06606 185.99482 261.68717 L 190.66087 266.3532 C 191.06175 266.7541 191.4773 267.14 191.9067 267.51018 L 196.47023 271.44426 C 196.8649 271.78448 197.271 272.1112 197.68785 272.42383 L 201.66279 275.40503 C 202.3287 275.90447 203.02123 276.36738 203.73733 276.79174 L 207.8704 279.24096 C 207.9984 279.3168 208.12712 279.3914 208.25656 279.46477 L 212.9541 282.1267 C 213.6924 282.54507 214.45328 282.92226 215.23325 283.25653 L 218.78307 284.7779 C 219.36903 285.029 219.96518 285.25567 220.56997 285.45726 L 225.58808 287.12997 C 226.83532 287.5457 228.11592 287.85376 229.4158 288.0507 L 233.51464 288.67174 C 233.87976 288.72706 234.24615 288.7736 234.6135 288.81126 L 241.4946 289.517 C 241.73978 289.54216 241.98534 289.56336 242.2312 289.58062 L 246.75835 289.8983 C 247.2942 289.9359 247.83122 289.95473 248.3684 289.95473 L 251.63046 289.95474 C 252.58416 289.95474 253.53693 289.89542 254.48327 289.77713 L 258.47198 289.27854 C 259.13195 289.19604 259.78802 289.08496 260.43835 288.9456 L 266.5204 287.6423 C 267.41426 287.45076 268.29592 287.2061 269.16068 286.9096 L 273.66952 285.36372 C 274.46417 285.09127 275.2433 284.7755 276.0034 284.4178 L 280.83677 282.14326 C 281.38697 281.88435 281.92668 281.6037 282.45464 281.30202 L 286.2225 279.14896 C 286.9153 278.75308 287.587 278.3214 288.23494 277.85572 L 292.91106 274.49475 C 293.41175 274.1349 293.89776 273.75503 294.3679 273.3561 L 299.68877 268.84144 C 300.0711 268.51706 300.4427 268.18026 300.803 267.83158 L 305.5022 263.28396 C 306.1418 262.665 306.7449 262.00944 307.30852 261.32058 L 311.1018 256.68434 C 311.60852 256.06503 312.08257 255.4197 312.522 254.75096 L 316.1392 249.24656 C 316.35462 248.91873 316.56163 248.58544 316.76 248.24702 L 319.2831 243.94292 C 319.66906 243.28454 320.022 242.60735 320.34062 241.91388 L 322.4593 237.3026 C 322.99218 236.14285 323.36334 234.91544 323.5624 233.65474 L 323.5624 233.65474 C 323.7407 232.52547 323.1614 231.41203 322.1343 230.9099 L 316.84088 228.322 C 315.52642 227.67937 314.29183 226.88486 313.1624 225.95474 L 312.7564 225.62037 C 311.91205 224.92504 311.28864 223.99874 310.9624 222.95474 L 310.9624 222.95474 C 310.91573 222.80542 310.75686 222.7222 310.60754 222.76886 C 310.49247 222.80482 310.41277 222.90969 310.40892 223.0302 L 310.29968 226.4531 C 310.20894 229.2962 309.5916 232.09776 308.479 234.71567 L 307.60206 236.77904 C 307.0435 238.09331 306.36374 239.3527 305.5716 240.5409 L 301.88582 246.06958 C 301.1383 247.19085 300.2937 248.24425 299.36175 249.21762 L 293.0667 255.79247 C 292.1986 256.69913 291.25777 257.5332 290.2536 258.28633 L 281.8787 264.5675 C 281.00228 265.22482 280.08002 265.81867 279.11896 266.34454 L 271.93376 270.27606 C 270.62263 270.99347 269.2447 271.58137 267.8195 272.03143 L 261.1466 274.13867 C 259.42973 274.68084 257.65514 275.01954 255.85927 275.1478 L 248.97281 275.6397 C 247.90052 275.7163 246.82417 275.7176 245.75168 275.64365 L 237.31543 275.06184 C 236.28125 274.99052 235.25308 274.84936 234.23795 274.63933 L 227.10274 273.1631 C 225.1508 272.75923 223.25961 272.10335 221.47676 271.21192 L 216.81735 268.8822 C 215.5832 268.26515 214.4071 267.53827 213.30326 266.7104 L 207.6213 262.44892 C 207.18217 262.11957 206.75496 261.7746 206.3405 261.41468 L 200.58533 256.41676 C 199.77104 255.70962 199.0075 254.94608 198.30036 254.1318 L 193.89513 249.0591 C 193.14103 248.19075 192.45312 247.26705 191.8372 246.29578 L 188.1035 240.40802 C 187.74293 239.83944 187.4075 239.2553 187.09819 238.65728 L 185.47781 235.52456 C 184.86867 234.34688 184.3625 233.11874 183.96497 231.85385 L 182.68473 227.78036 C 182.46995 227.09698 182.28722 226.40395 182.13713 225.70351 L 181.9117 224.65157 C 181.82664 224.25456 182.053 223.8569 182.4378 223.72737 L 182.4378 223.72737 C 182.5103 223.70296 182.58884 223.74195 182.61325 223.81444 C 182.63126 223.86795 182.615 223.92704 182.57212 223.9638 Z" fill="black"/>
        <path d="M 182.57212 223.9638 L 177.84295 228.01736 C 176.6926 229.00338 175.44764 229.8733 174.12621 230.61448 L 171.59958 232.03165 C 170.1644 232.83662 169.5836 234.60575 170.26239 236.10473 L 171.28 238.35197 C 171.40158 238.62046 171.52831 238.88658 171.66012 239.1502 L 175.94938 247.7287 C 176.29117 248.4123 176.66683 249.07843 177.07495 249.72463 L 179.40134 253.40808 C 179.84172 254.10535 180.31928 254.77842 180.83195 255.4244 L 184.24264 259.72185 C 184.7887 260.40987 185.37371 261.06606 185.99482 261.68717 L 190.66087 266.3532 C 191.06175 266.7541 191.4773 267.14 191.9067 267.51018 L 196.47023 271.44426 C 196.8649 271.78448 197.271 272.1112 197.68785 272.42383 L 201.66279 275.40503 C 202.3287 275.90447 203.02123 276.36738 203.73733 276.79174 L 207.8704 279.24096 C 207.9984 279.3168 208.12712 279.3914 208.25656 279.46477 L 212.9541 282.1267 C 213.6924 282.54507 214.45328 282.92226 215.23325 283.25653 L 218.78307 284.7779 C 219.36903 285.029 219.96518 285.25567 220.56997 285.45726 L 225.58808 287.12997 C 226.83532 287.5457 228.11592 287.85376 229.4158 288.0507 L 233.51464 288.67174 C 233.87976 288.72706 234.24615 288.7736 234.6135 288.81126 L 241.4946 289.517 C 241.73978 289.54216 241.98534 289.56336 242.2312 289.58062 L 246.75835 289.8983 C 247.2942 289.9359 247.83122 289.95473 248.3684 289.95473 L 251.63046 289.95474 C 252.58416 289.95474 253.53693 289.89542 254.48327 289.77713 L 258.47198 289.27854 C 259.13195 289.19604 259.78802 289.08496 260.43835 288.9456 L 266.5204 287.6423 C 267.41426 287.45076 268.29592 287.2061 269.16068 286.9096 L 273.66952 285.36372 C 274.46417 285.09127 275.2433 284.7755 276.0034 284.4178 L 280.83677 282.14326 C 281.38697 281.88435 281.92668 281.6037 282.45464 281.30202 L 286.2225 279.14896 C 286.9153 278.75308 287.587 278.3214 288.23494 277.85572 L 292.91106 274.49475 C 293.41175 274.1349 293.89776 273.75503 294.3679 273.3561 L 299.68877 268.84144 C 300.0711 268.51706 300.4427 268.18026 300.803 267.83158 L 305.5022 263.28396 C 306.1418 262.665 306.7449 262.00944 307.30852 261.32058 L 311.1018 256.68434 C 311.60852 256.06503 312.08257 255.4197 312.522 254.75096 L 316.1392 249.24656 C 316.35462 248.91873 316.56163 248.58544 316.76 248.24702 L 319.2831 243.94292 C 319.66906 243.28454 320.022 242.60735 320.34062 241.91388 L 322.4593 237.3026 C 322.99218 236.14285 323.36334 234.91544 323.5624 233.65474 L 323.5624 233.65474 C 323.7407 232.52547 323.1614 231.41203 322.1343 230.9099 L 316.84088 228.322 C 315.52642 227.67937 314.29183 226.88486 313.1624 225.95474 L 312.7564 225.62037 C 311.91205 224.92504 311.28864 223.99874 310.9624 222.95474 L 310.9624 222.95474 C 310.91573 222.80542 310.75686 222.7222 310.60754 222.76886 C 310.49247 222.80482 310.41277 222.90969 310.40892 223.0302 L 310.29968 226.4531 C 310.20894 229.2962 309.5916 232.09776 308.479 234.71567 L 307.60206 236.77904 C 307.0435 238.09331 306.36374 239.3527 305.5716 240.5409 L 301.88582 246.06958 C 301.1383 247.19085 300.2937 248.24425 299.36175 249.21762 L 293.0667 255.79247 C 292.1986 256.69913 291.25777 257.5332 290.2536 258.28633 L 281.8787 264.5675 C 281.00228 265.22482 280.08002 265.81867 279.11896 266.34454 L 271.93376 270.27606 C 270.62263 270.99347 269.2447 271.58137 267.8195 272.03143 L 261.1466 274.13867 C 259.42973 274.68084 257.65514 275.01954 255.85927 275.1478 L 248.97281 275.6397 C 247.90052 275.7163 246.82417 275.7176 245.75168 275.64365 L 237.31543 275.06184 C 236.28125 274.99052 235.25308 274.84936 234.23795 274.63933 L 227.10274 273.1631 C 225.1508 272.75923 223.25961 272.10335 221.47676 271.21192 L 216.81735 268.8822 C 215.5832 268.26515 214.4071 267.53827 213.30326 266.7104 L 207.6213 262.44892 C 207.18217 262.11957 206.75496 261.7746 206.3405 261.41468 L 200.58533 256.41676 C 199.77104 255.70962 199.0075 254.94608 198.30036 254.1318 L 193.89513 249.0591 C 193.14103 248.19075 192.45312 247.26705 191.8372 246.29578 L 188.1035 240.40802 C 187.74293 239.83944 187.4075 239.2553 187.09819 238.65728 L 185.47781 235.52456 C 184.86867 234.34688 184.3625 233.11874 183.96497 231.85385 L 182.68473 227.78036 C 182.46995 227.09698 182.28722 226.40395 182.13713 225.70351 L 181.9117 224.65157 C 181.82664 224.25456 182.053 223.8569 182.4378 223.72737 L 182.4378 223.72737 C 182.5103 223.70296 182.58884 223.74195 182.61325 223.81444 C 182.63126 223.86795 182.615 223.92704 182.57212 223.9638 Z" stroke="#7f8080" stroke-linecap="round" stroke-linejoin="round" stroke-width="1"/>
      </g>
      <g id="Graphic_5">
        <path d="M 182.05925 223.7559 L 187.45925 223.1559 L 194.25925 226.5559 L 199.25925 228.3559 L 207.65925 230.1559 L 216.05925 231.1559 L 224.05925 232.1559 L 231.65925 232.3559 L 240.25925 232.7559 L 251.85925 232.5559 L 260.25925 232.1559 L 269.65925 231.5559 L 278.05925 230.7559 L 287.25925 229.3559 L 295.45925 227.1559 L 301.25925 225.3559 L 306.85925 222.7559 L 309.65925 223.9559 L 310.05925 229.5559 L 307.25925 237.5559 L 301.85925 240.3559 L 291.25925 243.5559 L 279.85925 245.9559 L 268.65925 246.7559 L 256.25925 247.7559 L 245.85925 247.7559 L 236.45925 247.7559 L 224.85925 247.1559 L 213.65925 246.3559 L 203.05925 244.1559 L 194.45925 242.1559 L 188.25925 239.3559 L 186.25925 237.7559 L 183.05925 230.1559 Z" fill="yellow"/>
        <path d="M 182.05925 223.7559 L 187.45925 223.1559 L 194.25925 226.5559 L 199.25925 228.3559 L 207.65925 230.1559 L 216.05925 231.1559 L 224.05925 232.1559 L 231.65925 232.3559 L 240.25925 232.7559 L 251.85925 232.5559 L 260.25925 232.1559 L 269.65925 231.5559 L 278.05925 230.7559 L 287.25925 229.3559 L 295.45925 227.1559 L 301.25925 225.3559 L 306.85925 222.7559 L 309.65925 223.9559 L 310.05925 229.5559 L 307.25925 237.5559 L 301.85925 240.3559 L 291.25925 243.5559 L 279.85925 245.9559 L 268.65925 246.7559 L 256.25925 247.7559 L 245.85925 247.7559 L 236.45925 247.7559 L 224.85925 247.1559 L 213.65925 246.3559 L 203.05925 244.1559 L 194.45925 242.1559 L 188.25925 239.3559 L 186.25925 237.7559 L 183.05925 230.1559 Z" stroke="#7f8080" stroke-linecap="round" stroke-linejoin="round" stroke-width="1"/>
      </g>
      <g id="Graphic_4">
        <path d="M 111.81321 649.2 L 111.81321 649.2 C 111.74753 649.7255 111.81036 650.25905 111.9963 650.7549 L 112.6473 652.4909 C 112.82406 652.9623 113.05115 653.4132 113.32462 653.8358 L 114.29243 655.3315 C 114.83339 656.16756 115.5465 656.87855 116.38412 657.417 L 117.46217 658.11005 C 117.76243 658.3031 118.077 658.47285 118.40316 658.6179 L 119.72001 659.2035 C 120.31654 659.46876 120.94725 659.6493 121.5938 659.7398 L 130.60421 661.00126 C 130.6142 661.00265 130.6242 661.004 130.6342 661.0054 L 142.3502 662.594 C 142.3962 662.6002 142.44226 662.606 142.48838 662.6113 L 152.77131 663.7978 C 152.80324 663.8015 152.8352 663.805 152.86716 663.8082 L 166.57723 665.1991 C 166.60521 665.2019 166.63321 665.2046 166.66123 665.2071 L 177.76653 666.19865 C 177.80164 666.2018 177.83679 666.20466 177.87195 666.2073 L 188.55848 666.99886 C 188.59896 667.00185 188.63947 667.0045 188.68 667.0068 L 199.18798 667.6016 C 199.2088 667.6028 199.2296 667.604 199.25042 667.6054 L 211.2932 668.3951 C 211.3772 668.4006 211.4613 668.4046 211.54543 668.4071 L 224.99256 668.8026 C 225.01032 668.8031 225.02809 668.8037 225.04585 668.80434 L 235.6897 669.19856 C 235.77603 669.20176 235.8624 669.20335 235.9488 669.20335 L 246.5578 669.20335 C 246.59874 669.20335 246.63967 669.2037 246.6806 669.2044 L 257.76702 669.3989 C 257.9351 669.4019 258.1032 669.3988 258.27106 669.3896 L 268.8923 668.8103 C 268.9769 668.8057 269.06157 668.8026 269.1463 668.80104 L 279.91085 668.6053 C 279.9831 668.604 280.0553 668.6016 280.12745 668.598 L 292.14607 668.00695 C 292.19483 668.00455 292.24355 668.00165 292.29225 667.9982 L 303.5323 667.20945 C 303.59023 667.2054 303.64812 667.2006 303.70594 667.1951 L 316.1165 666.0131 C 316.18497 666.0066 316.25352 666.0011 316.32214 665.9966 L 328.25416 665.2142 C 328.36418 665.207 328.474 665.19715 328.58355 665.18475 L 338.9959 664.006 C 339.01144 664.0042 339.02697 664.0024 339.0425 664.00056 L 348.9902 662.8068 C 349.00954 662.8045 349.02886 662.8021 349.04818 662.7996 L 362.88394 661.0221 C 362.98115 661.0096 363.0781 660.9951 363.1747 660.9785 L 369.7282 659.85506 C 369.92915 659.8206 370.13153 659.79495 370.33473 659.7782 L 373.56706 659.5112 C 374.4563 659.43775 375.3233 659.195 376.12135 658.79594 L 377.60765 658.0528 C 378.20824 657.7525 378.7625 657.36735 379.2534 656.9092 L 380.5885 655.6631 C 381.1953 655.0967 381.65073 654.3875 381.9132 653.6 L 382.20805 652.7155 C 382.2781 652.5053 382.33817 652.2919 382.388 652.07595 L 382.8577 650.04056 C 382.89293 649.8879 382.8595 649.7275 382.7662 649.6017 L 382.7662 649.6017 C 382.67587 649.4798 382.52523 649.4183 382.3754 649.44214 L 373.89555 650.7912 C 373.84466 650.7993 373.79385 650.808 373.74315 650.8172 L 360.7584 653.17805 C 360.6656 653.1949 360.5725 653.2099 360.4791 653.223 L 349.24943 654.7991 C 349.2293 654.80194 349.20914 654.80486 349.18902 654.80786 L 336.0199 656.7734 C 335.88613 656.7934 335.7518 656.80945 335.6171 656.8216 L 325.10874 657.7721 C 324.903 657.7907 324.69657 657.8002 324.49 657.8005 L 323.05605 657.80295 C 322.8982 657.8032 322.7404 657.8088 322.58293 657.8198 L 308.4531 658.801 C 308.4305 658.8026 308.4079 658.804 308.3853 658.8054 L 295.08205 659.5996 C 295.04016 659.6021 294.99824 659.6042 294.9563 659.606 L 280.76485 660.1973 C 280.66776 660.2013 280.5706 660.20335 280.47344 660.20335 L 254.67753 660.20335 C 254.63865 660.20335 254.59976 660.2037 254.56088 660.2043 L 242.8025 660.4003 C 242.68032 660.4023 242.55812 660.4012 242.436 660.3968 L 231.6024 660.0099 C 231.4803 660.0055 231.3581 660.0044 231.23591 660.0064 L 219.52127 660.20165 C 219.45323 660.2028 219.38518 660.2029 219.31713 660.2021 L 203.61484 660.0058 C 203.48444 660.0042 203.35411 659.9989 203.224 659.99 L 188.91423 659.0099 C 188.85088 659.0055 188.7876 659.0003 188.7244 658.9943 L 174.23339 657.6047 C 174.22393 657.6038 174.21448 657.6029 174.20503 657.6019 L 160.393 656.2207 C 160.27715 656.20915 160.16162 656.1947 160.0465 656.1773 L 145.73735 654.02116 C 145.65859 654.0093 145.57964 653.9988 145.50052 653.9896 L 131.98059 652.4221 C 131.87301 652.4096 131.76574 652.3946 131.65886 652.3772 L 122.26677 650.8438 C 122.10178 650.8168 121.9378 650.784 121.77516 650.7453 L 112.69756 648.5865 C 112.30925 648.4942 111.91959 648.7341 111.82724 649.12244 C 111.82116 649.148 111.81647 649.1739 111.81321 649.2 Z" fill="black"/>
        <path d="M 111.81321 649.2 L 111.81321 649.2 C 111.74753 649.7255 111.81036 650.25905 111.9963 650.7549 L 112.6473 652.4909 C 112.82406 652.9623 113.05115 653.4132 113.32462 653.8358 L 114.29243 655.3315 C 114.83339 656.16756 115.5465 656.87855 116.38412 657.417 L 117.46217 658.11005 C 117.76243 658.3031 118.077 658.47285 118.40316 658.6179 L 119.72001 659.2035 C 120.31654 659.46876 120.94725 659.6493 121.5938 659.7398 L 130.60421 661.00126 C 130.6142 661.00265 130.6242 661.004 130.6342 661.0054 L 142.3502 662.594 C 142.3962 662.6002 142.44226 662.606 142.48838 662.6113 L 152.77131 663.7978 C 152.80324 663.8015 152.8352 663.805 152.86716 663.8082 L 166.57723 665.1991 C 166.60521 665.2019 166.63321 665.2046 166.66123 665.2071 L 177.76653 666.19865 C 177.80164 666.2018 177.83679 666.20466 177.87195 666.2073 L 188.55848 666.99886 C 188.59896 667.00185 188.63947 667.0045 188.68 667.0068 L 199.18798 667.6016 C 199.2088 667.6028 199.2296 667.604 199.25042 667.6054 L 211.2932 668.3951 C 211.3772 668.4006 211.4613 668.4046 211.54543 668.4071 L 224.99256 668.8026 C 225.01032 668.8031 225.02809 668.8037 225.04585 668.80434 L 235.6897 669.19856 C 235.77603 669.20176 235.8624 669.20335 235.9488 669.20335 L 246.5578 669.20335 C 246.59874 669.20335 246.63967 669.2037 246.6806 669.2044 L 257.76702 669.3989 C 257.9351 669.4019 258.1032 669.3988 258.27106 669.3896 L 268.8923 668.8103 C 268.9769 668.8057 269.06157 668.8026 269.1463 668.80104 L 279.91085 668.6053 C 279.9831 668.604 280.0553 668.6016 280.12745 668.598 L 292.14607 668.00695 C 292.19483 668.00455 292.24355 668.00165 292.29225 667.9982 L 303.5323 667.20945 C 303.59023 667.2054 303.64812 667.2006 303.70594 667.1951 L 316.1165 666.0131 C 316.18497 666.0066 316.25352 666.0011 316.32214 665.9966 L 328.25416 665.2142 C 328.36418 665.207 328.474 665.19715 328.58355 665.18475 L 338.9959 664.006 C 339.01144 664.0042 339.02697 664.0024 339.0425 664.00056 L 348.9902 662.8068 C 349.00954 662.8045 349.02886 662.8021 349.04818 662.7996 L 362.88394 661.0221 C 362.98115 661.0096 363.0781 660.9951 363.1747 660.9785 L 369.7282 659.85506 C 369.92915 659.8206 370.13153 659.79495 370.33473 659.7782 L 373.56706 659.5112 C 374.4563 659.43775 375.3233 659.195 376.12135 658.79594 L 377.60765 658.0528 C 378.20824 657.7525 378.7625 657.36735 379.2534 656.9092 L 380.5885 655.6631 C 381.1953 655.0967 381.65073 654.3875 381.9132 653.6 L 382.20805 652.7155 C 382.2781 652.5053 382.33817 652.2919 382.388 652.07595 L 382.8577 650.04056 C 382.89293 649.8879 382.8595 649.7275 382.7662 649.6017 L 382.7662 649.6017 C 382.67587 649.4798 382.52523 649.4183 382.3754 649.44214 L 373.89555 650.7912 C 373.84466 650.7993 373.79385 650.808 373.74315 650.8172 L 360.7584 653.17805 C 360.6656 653.1949 360.5725 653.2099 360.4791 653.223 L 349.24943 654.7991 C 349.2293 654.80194 349.20914 654.80486 349.18902 654.80786 L 336.0199 656.7734 C 335.88613 656.7934 335.7518 656.80945 335.6171 656.8216 L 325.10874 657.7721 C 324.903 657.7907 324.69657 657.8002 324.49 657.8005 L 323.05605 657.80295 C 322.8982 657.8032 322.7404 657.8088 322.58293 657.8198 L 308.4531 658.801 C 308.4305 658.8026 308.4079 658.804 308.3853 658.8054 L 295.08205 659.5996 C 295.04016 659.6021 294.99824 659.6042 294.9563 659.606 L 280.76485 660.1973 C 280.66776 660.2013 280.5706 660.20335 280.47344 660.20335 L 254.67753 660.20335 C 254.63865 660.20335 254.59976 660.2037 254.56088 660.2043 L 242.8025 660.4003 C 242.68032 660.4023 242.55812 660.4012 242.436 660.3968 L 231.6024 660.0099 C 231.4803 660.0055 231.3581 660.0044 231.23591 660.0064 L 219.52127 660.20165 C 219.45323 660.2028 219.38518 660.2029 219.31713 660.2021 L 203.61484 660.0058 C 203.48444 660.0042 203.35411 659.9989 203.224 659.99 L 188.91423 659.0099 C 188.85088 659.0055 188.7876 659.0003 188.7244 658.9943 L 174.23339 657.6047 C 174.22393 657.6038 174.21448 657.6029 174.20503 657.6019 L 160.393 656.2207 C 160.27715 656.20915 160.16162 656.1947 160.0465 656.1773 L 145.73735 654.02116 C 145.65859 654.0093 145.57964 653.9988 145.50052 653.9896 L 131.98059 652.4221 C 131.87301 652.4096 131.76574 652.3946 131.65886 652.3772 L 122.26677 650.8438 C 122.10178 650.8168 121.9378 650.784 121.77516 650.7453 L 112.69756 648.5865 C 112.30925 648.4942 111.91959 648.7341 111.82724 649.12244 C 111.82116 649.148 111.81647 649.1739 111.81321 649.2 Z" stroke="#7f8080" stroke-linecap="round" stroke-linejoin="round" stroke-width="1"/>
      </g>
      <g id="Graphic_3">
        <path d="M 407.219 264.8 L 395.219 257.7559 L 385.419 254 L 385.219 254 L 375.4053 250.4 L 362.619 246.8 L 361.219 246.7559 L 113.21902 647.7559 L 127.21902 650.7559 L 139.60528 652.8 L 144.00528 653.6 L 157.80528 655.6 L 169.80528 656.8 L 178.80528 656.8 L 180.21902 656.7559 Z" fill="black"/>
        <path d="M 407.219 264.8 L 395.219 257.7559 L 385.419 254 L 385.219 254 L 375.4053 250.4 L 362.619 246.8 L 361.219 246.7559 L 113.21902 647.7559 L 127.21902 650.7559 L 139.60528 652.8 L 144.00528 653.6 L 157.80528 655.6 L 169.80528 656.8 L 178.80528 656.8 L 180.21902 656.7559 Z" stroke="white" stroke-linecap="round" stroke-linejoin="round" stroke-width="0"/>
      </g>
    </g>
  </g>
</svg>
